/* XPM */
static char * close_active_xpm[] = {
"15 15 53 1",
" 	c #4B4D50",
".	c #4B4D51",
"+	c #4C4D51",
"@	c #4C4D50",
"#	c #4C4E51",
"$	c #4C4E50",
"%	c #4B4E51",
"&	c #4B4E50",
"*	c #4A4D51",
"=	c #4A4D50",
"-	c #4B4D4F",
";	c #4A4E4F",
">	c #4A4E50",
",	c #4A4C50",
"'	c #4A4D4F",
")	c #4B4C50",
"!	c #4A4C4F",
"~	c #494B4F",
"{	c #4B4C4F",
"]	c #494D4F",
"^	c #4A4B4F",
"/	c #494C4E",
"(	c #4A4B4E",
"_	c #494B4E",
":	c #4A4C4E",
"<	c #484B4D",
"[	c #4A4C4D",
"}	c #494B4D",
"|	c #4A4B4D",
"1	c #494A4D",
"2	c #484A4D",
"3	c #484A4C",
"4	c #484B4C",
"5	c #48494C",
"6	c #47494C",
"7	c #474A4C",
"8	c #474A4B",
"9	c #47494B",
"0	c #46484B",
"a	c #464A4A",
"b	c #474A4A",
"c	c #47484C",
"d	c #47494A",
"e	c #46494A",
"f	c #47484A",
"g	c #47484B",
"h	c #46494B",
"i	c #46484A",
"j	c #45474A",
"k	c #464849",
"l	c #454749",
"m	c #464749",
"n	c #45484A",
" .+@+#$##%&&##.",
"#$$$######%$& +",
".$$..@@  @&&  &",
".$$ *  =-@&;- >",
" , -= =='= '-)=",
"!~!{{{!!]]!!!^{",
"/(_(:^::/__:__/",
"<[}}}||}}1}}111",
"<22<23222<11442",
"356788753337337",
"988569999999669",
"0abc699deffghh0",
"0ee09h9deff0ee0",
"i00ihi00iiiiiif",
"jkkllmmknnjnlll"};
