/* XPM */
static char * top_right_active_shaded_xpm[] = {
"5 24 23 1",
" 	c None",
".	c #0B0B0B",
"+	c #000000",
"@	c #43444A",
"#	c #424449",
"$	c #131313",
"%	c #4D4F52",
"&	c #57595E",
"*	c #4F5154",
"=	c #4C4E51",
"-	c #050505",
";	c #4B4D50",
">	c #4B4D4F",
",	c #4A4C4F",
"'	c #4A4C4E",
")	c #494B4E",
"!	c #494B4D",
"~	c #484A4D",
"{	c #484A4C",
"]	c #47494C",
"^	c #47494B",
"/	c #46484A",
"(	c #454749",
".++  ",
"@#@$ ",
"%&@@+",
"%%*@+",
"====-",
"====+",
";;;;+",
";;;;+",
">>>>+",
",,,,+",
"''''+",
"))))+",
"))))+",
"!!!!+",
"~~~~+",
"{{{{+",
"]]]]+",
"^^^^+",
"^^^^+",
"////+",
"////+",
"((((+",
"////+",
"((((+"};
