<?xml version="1.0" encoding="UTF-8" standalone="no"?>
<!-- Created with Inkscape (http://www.inkscape.org/) -->

<svg
   xmlns:dc="http://purl.org/dc/elements/1.1/"
   xmlns:cc="http://creativecommons.org/ns#"
   xmlns:rdf="http://www.w3.org/1999/02/22-rdf-syntax-ns#"
   xmlns:svg="http://www.w3.org/2000/svg"
   xmlns="http://www.w3.org/2000/svg"
   xmlns:xlink="http://www.w3.org/1999/xlink"
   xmlns:sodipodi="http://sodipodi.sourceforge.net/DTD/sodipodi-0.dtd"
   xmlns:inkscape="http://www.inkscape.org/namespaces/inkscape"
   width="48"
   height="48"
   id="svg5453"
   version="1.1"
   inkscape:version="0.48+devel r12877"
   sodipodi:docname="distributor-logo-kubuntu.svg">
  <defs
     id="defs5455">
    <linearGradient
       id="linearGradient4658"
       inkscape:collect="always">
      <stop
         id="stop4660"
         offset="0"
         style="stop-color:#c4dcf4;stop-opacity:1" />
      <stop
         id="stop4662"
         offset="1"
         style="stop-color:#f6fbfe;stop-opacity:0.99607843" />
    </linearGradient>
    <linearGradient
       inkscape:collect="always"
       xlink:href="#linearGradient4142"
       id="linearGradient4612"
       x1="408.72192"
       y1="-547.79987"
       x2="408.72192"
       y2="-499.80991"
       gradientUnits="userSpaceOnUse" />
    <linearGradient
       id="linearGradient4142">
      <stop
         id="stop4144"
         offset="0"
         style="stop-color:#0a79d6;stop-opacity:0.99803919" />
      <stop
         id="stop4146"
         offset="1"
         style="stop-color:#2995ed;stop-opacity:1" />
    </linearGradient>
    <linearGradient
       inkscape:collect="always"
       xlink:href="#linearGradient4658"
       id="linearGradient4218"
       x1="380.01373"
       y1="573.58313"
       x2="380.01373"
       y2="484.34549"
       gradientUnits="userSpaceOnUse"
       gradientTransform="matrix(0.34510562,0,0,0.34510562,292.82656,341.25015)" />
  </defs>
  <sodipodi:namedview
     id="base"
     pagecolor="#ffffff"
     bordercolor="#666666"
     borderopacity="1.0"
     inkscape:pageopacity="0"
     inkscape:pageshadow="2"
     inkscape:zoom="5.6568543"
     inkscape:cx="26.348528"
     inkscape:cy="20.26256"
     inkscape:document-units="px"
     inkscape:current-layer="layer1"
     showgrid="false"
     fit-margin-top="0"
     fit-margin-left="0"
     fit-margin-right="0"
     fit-margin-bottom="0"
     inkscape:window-width="1366"
     inkscape:window-height="671"
     inkscape:window-x="0"
     inkscape:window-y="24"
     inkscape:window-maximized="1" />
  <metadata
     id="metadata5458">
    <rdf:RDF>
      <cc:Work
         rdf:about="">
        <dc:format>image/svg+xml</dc:format>
        <dc:type
           rdf:resource="http://purl.org/dc/dcmitype/StillImage" />
        <dc:title />
      </cc:Work>
    </rdf:RDF>
  </metadata>
  <g
     inkscape:label="Capa 1"
     inkscape:groupmode="layer"
     id="layer1"
     transform="translate(-384.57143,-499.798)">
    <rect
       style="fill:url(#linearGradient4612);fill-opacity:1.0;stroke:none"
       id="rect2991-1-7"
       width="48"
       height="48"
       x="384.57144"
       y="-547.79797"
       ry="1.9445436"
       transform="scale(1,-1)" />
    <path
       inkscape:connector-curvature="0"
       style="fill:#000000;fill-opacity:1;stroke:none"
       d="m 384.57143,544.79799 0,1.0625 c 0,1.0773 0.86022,1.9375 1.9375,1.9375 l 44.125,0 c 1.07728,0 1.9375,-0.8602 1.9375,-1.9375 l 0,-1.0625 c 0,1.0773 -0.86022,1.9375 -1.9375,1.9375 l -44.125,0 C 385.43165,546.73549 384.57143,545.87529 384.57143,544.79799 Z"
       id="rect846" />
    <path
       inkscape:connector-curvature="0"
       style="fill:#ffffff;fill-opacity:0.5372549;stroke:none"
       d="m 387.10268,500.45429 c -0.91709,0 -1.67115,0.6395 -1.84375,1.5 0.33561,-0.2799 0.77451,-0.4375 1.25,-0.4375 l 44.125,0 c 0.47549,0 0.91439,0.1576 1.25,0.4375 -0.1726,-0.8605 -0.92666,-1.5 -1.84375,-1.5 L 387.10268,500.45429 Z"
       id="path7515" />
    <path
       inkscape:connector-curvature="0"
       style="fill:#000000;fill-opacity:0.39215686;stroke:none"
       d="m 386.50893,499.79799 c -1.07728,0 -1.9375,0.8602 -1.9375,1.9375 l 0,43.0625 c 0,0.7934 0.48002,1.449 1.15625,1.75 -0.30934,-0.3333 -0.5,-0.7824 -0.5,-1.2812 l 0,-42.9375 c 0,-1.0482 0.8269,-1.875 1.875,-1.875 l 42.9375,0 c 1.0481,0 1.875,0.8268 1.875,1.875 l 0,42.9375 c 0,0.4988 -0.19066,0.9479 -0.5,1.2812 0.67623,-0.301 1.15625,-0.9566 1.15625,-1.75 l 0,-43.0625 c 0,-1.0773 -0.86022,-1.9375 -1.9375,-1.9375 L 386.50893,499.79799 Z"
       id="rect4280" />
    <path
       inkscape:connector-curvature="0"
       id="path4226"
       d="m 408.5711,509.598 c -8.50498,0 -15.39967,6.89479 -15.39967,15.39966 0,8.50476 6.89469,15.40034 15.39967,15.40034 8.50531,0 15.40033,-6.89558 15.40033,-15.40034 0,-8.50487 -6.89502,-15.39966 -15.40033,-15.39966 z m -0.93354,3.08977 c 0.0703,0.007 0.13392,0.051 0.16581,0.11796 l 1.52062,3.19694 c 0.74079,0.0217 1.48412,0.14945 2.20881,0.38083 l 2.44338,-2.44 c 0.0673,-0.0675 0.17263,-0.0803 0.25478,-0.0303 l 1.94257,1.18091 c 0.0843,0.0513 0.12055,0.15486 0.0876,0.24737 l -1.18158,3.32636 c 0.44609,0.49514 0.82426,1.03806 1.13036,1.61499 l 3.62698,0.003 c 0.096,8e-5 0.1794,0.0661 0.20221,0.15907 l 0.53788,2.20881 c 0.0237,0.0957 -0.0228,0.19466 -0.11189,0.23726 l -4.543,0.9942 c -0.53725,-3.5772 -3.62388,-6.32042 -7.35101,-6.32042 -0.82581,0 -1.61901,0.13699 -2.36115,0.38555 l -0.0384,-0.0236 -0.9733,-4.49312 c 3.4e-4,-0.0962 0.0663,-0.1795 0.15907,-0.20221 l 2.20881,-0.53788 c 0.024,-0.006 0.048,-0.008 0.0715,-0.005 z m -7.20341,3.25356 c 0.0462,-0.005 0.0941,0.006 0.13548,0.033 l 3.4578,3.14976 c -1.75509,1.35966 -2.88959,3.48159 -2.88959,5.87354 0,2.15662 0.92369,4.09297 2.3908,5.45091 l -0.002,0.0499 -3.1046,3.43353 c -0.0824,0.0496 -0.18786,0.0371 -0.25546,-0.0303 l -1.60757,-1.60757 c -0.07,-0.0697 -0.0811,-0.17881 -0.0269,-0.26153 l 1.94189,-2.96103 c -0.36634,-0.64423 -0.64413,-1.34538 -0.823,-2.08479 l -3.35399,-0.81963 c -0.0926,-0.0224 -0.1584,-0.10605 -0.1584,-0.2022 l 0,-2.27285 c 0,-0.0987 0.069,-0.18429 0.16514,-0.20423 l 3.45645,-0.71852 c 0.19126,-0.63843 0.45879,-1.24376 0.79266,-1.80507 l -1.88258,-3.09988 c -0.0498,-0.0821 -0.0373,-0.18765 0.0303,-0.25546 l 1.60757,-1.60757 c 0.0347,-0.035 0.0798,-0.0552 0.12605,-0.06 z m 15.39562,10.65919 4.50862,1.00903 c 0.0841,0.0467 0.12514,0.14501 0.10043,0.23726 l -0.59046,2.19533 c -0.0255,0.0954 -0.11428,0.1593 -0.21299,0.15368 l -3.53464,-0.20424 c -0.37532,0.63904 -0.84387,1.22973 -1.39525,1.75384 l 0.96387,3.31558 c 0.0268,0.0915 -0.0124,0.18993 -0.0957,0.23793 l -1.9702,1.13507 c -0.0855,0.0493 -0.19355,0.0316 -0.25883,-0.0418 l -2.34834,-2.63547 c -0.64866,0.15299 -1.30638,0.22342 -1.95942,0.21434 l -1.74642,3.17875 c -0.0462,0.0842 -0.14408,0.12514 -0.23659,0.10043 l -2.19533,-0.59045 c -0.0953,-0.0253 -0.15987,-0.11368 -0.15435,-0.21232 l 1.18765,-4.49447 0.0223,-0.0121 c 0.82528,0.31608 1.72062,0.4907 2.65705,0.4907 3.55501,0 6.52553,-2.4964 7.25867,-5.83108 z"
       style="fill:#000000;fill-opacity:0.05882353" />
    <path
       style="fill:#000000;fill-opacity:0.11764706"
       d="m 408.5711,509.198 c -8.50498,0 -15.39967,6.89479 -15.39967,15.39966 0,8.50476 6.89469,15.40034 15.39967,15.40034 8.50531,0 15.40033,-6.89558 15.40033,-15.40034 0,-8.50487 -6.89502,-15.39966 -15.40033,-15.39966 z m -0.93354,3.08977 c 0.0703,0.007 0.13392,0.051 0.16581,0.11796 l 1.52062,3.19694 c 0.74079,0.0217 1.48412,0.14945 2.20881,0.38083 l 2.44338,-2.44 c 0.0673,-0.0675 0.17263,-0.0803 0.25478,-0.0303 l 1.94257,1.18091 c 0.0843,0.0513 0.12055,0.15486 0.0876,0.24737 l -1.18158,3.32636 c 0.44609,0.49514 0.82426,1.03806 1.13036,1.61499 l 3.62698,0.003 c 0.096,8e-5 0.1794,0.0661 0.20221,0.15907 l 0.53788,2.20881 c 0.0237,0.0957 -0.0228,0.19466 -0.11189,0.23726 l -4.543,0.9942 c -0.53725,-3.5772 -3.62388,-6.32042 -7.35101,-6.32042 -0.82581,0 -1.61901,0.13699 -2.36115,0.38555 l -0.0384,-0.0236 -0.9733,-4.49312 c 3.4e-4,-0.0962 0.0663,-0.1795 0.15907,-0.20221 l 2.20881,-0.53788 c 0.024,-0.006 0.048,-0.008 0.0715,-0.005 z m -7.20341,3.25356 c 0.0462,-0.005 0.0941,0.006 0.13548,0.033 l 3.4578,3.14976 c -1.75509,1.35966 -2.88959,3.48159 -2.88959,5.87354 0,2.15662 0.92369,4.09297 2.3908,5.45091 l -0.002,0.0499 -3.1046,3.43353 c -0.0824,0.0496 -0.18786,0.0371 -0.25546,-0.0303 l -1.60757,-1.60757 c -0.07,-0.0697 -0.0811,-0.17881 -0.0269,-0.26153 l 1.94189,-2.96103 c -0.36634,-0.64423 -0.64413,-1.34538 -0.823,-2.08479 l -3.35399,-0.81963 c -0.0926,-0.0224 -0.1584,-0.10605 -0.1584,-0.2022 l 0,-2.27285 c 0,-0.0987 0.069,-0.18429 0.16514,-0.20423 l 3.45645,-0.71852 c 0.19126,-0.63843 0.45879,-1.24376 0.79266,-1.80507 l -1.88258,-3.09988 c -0.0498,-0.0821 -0.0373,-0.18765 0.0303,-0.25546 l 1.60757,-1.60757 c 0.0347,-0.035 0.0798,-0.0552 0.12605,-0.06 z m 15.39562,10.65919 4.50862,1.00903 c 0.0841,0.0467 0.12514,0.14501 0.10043,0.23726 l -0.59046,2.19533 c -0.0255,0.0954 -0.11428,0.1593 -0.21299,0.15368 l -3.53464,-0.20424 c -0.37532,0.63904 -0.84387,1.22973 -1.39525,1.75384 l 0.96387,3.31558 c 0.0268,0.0915 -0.0124,0.18993 -0.0957,0.23793 l -1.9702,1.13507 c -0.0855,0.0493 -0.19355,0.0316 -0.25883,-0.0418 l -2.34834,-2.63547 c -0.64866,0.15299 -1.30638,0.22342 -1.95942,0.21434 l -1.74642,3.17875 c -0.0462,0.0842 -0.14408,0.12514 -0.23659,0.10043 l -2.19533,-0.59045 c -0.0953,-0.0253 -0.15987,-0.11368 -0.15435,-0.21232 l 1.18765,-4.49447 0.0223,-0.0121 c 0.82528,0.31608 1.72062,0.4907 2.65705,0.4907 3.55501,0 6.52553,-2.4964 7.25867,-5.83108 z"
       id="path4224"
       inkscape:connector-curvature="0" />
    <path
       inkscape:connector-curvature="0"
       id="path4220"
       d="m 408.5711,508.798 c -8.50498,0 -15.39967,6.89479 -15.39967,15.39966 0,8.50476 6.89469,15.40034 15.39967,15.40034 8.50531,0 15.40033,-6.89558 15.40033,-15.40034 0,-8.50487 -6.89502,-15.39966 -15.40033,-15.39966 z m -0.93354,3.08977 c 0.0703,0.007 0.13392,0.051 0.16581,0.11796 l 1.52062,3.19694 c 0.74079,0.0217 1.48412,0.14945 2.20881,0.38083 l 2.44338,-2.44 c 0.0673,-0.0675 0.17263,-0.0803 0.25478,-0.0303 l 1.94257,1.18091 c 0.0843,0.0513 0.12055,0.15486 0.0876,0.24737 l -1.18158,3.32636 c 0.44609,0.49514 0.82426,1.03806 1.13036,1.61499 l 3.62698,0.003 c 0.096,8e-5 0.1794,0.0661 0.20221,0.15907 l 0.53788,2.20881 c 0.0237,0.0957 -0.0228,0.19466 -0.11189,0.23726 l -4.543,0.9942 c -0.53725,-3.5772 -3.62388,-6.32042 -7.35101,-6.32042 -0.82581,0 -1.61901,0.13699 -2.36115,0.38555 l -0.0384,-0.0236 -0.9733,-4.49312 c 3.4e-4,-0.0962 0.0663,-0.1795 0.15907,-0.20221 l 2.20881,-0.53788 c 0.024,-0.006 0.048,-0.008 0.0715,-0.005 z m -7.20341,3.25356 c 0.0462,-0.005 0.0941,0.006 0.13548,0.033 l 3.4578,3.14976 c -1.75509,1.35966 -2.88959,3.48159 -2.88959,5.87354 0,2.15662 0.92369,4.09297 2.3908,5.45091 l -0.002,0.0499 -3.1046,3.43353 c -0.0824,0.0496 -0.18786,0.0371 -0.25546,-0.0303 l -1.60757,-1.60757 c -0.07,-0.0697 -0.0811,-0.17881 -0.0269,-0.26153 l 1.94189,-2.96103 c -0.36634,-0.64423 -0.64413,-1.34538 -0.823,-2.08479 l -3.35399,-0.81963 c -0.0926,-0.0224 -0.1584,-0.10605 -0.1584,-0.2022 l 0,-2.27285 c 0,-0.0987 0.069,-0.18429 0.16514,-0.20423 l 3.45645,-0.71852 c 0.19126,-0.63843 0.45879,-1.24376 0.79266,-1.80507 l -1.88258,-3.09988 c -0.0498,-0.0821 -0.0373,-0.18765 0.0303,-0.25546 l 1.60757,-1.60757 c 0.0347,-0.035 0.0798,-0.0552 0.12605,-0.06 z m 15.39562,10.65919 4.50862,1.00903 c 0.0841,0.0467 0.12514,0.14501 0.10043,0.23726 l -0.59046,2.19533 c -0.0255,0.0954 -0.11428,0.1593 -0.21299,0.15368 l -3.53464,-0.20424 c -0.37532,0.63904 -0.84387,1.22973 -1.39525,1.75384 l 0.96387,3.31558 c 0.0268,0.0915 -0.0124,0.18993 -0.0957,0.23793 l -1.9702,1.13507 c -0.0855,0.0493 -0.19355,0.0316 -0.25883,-0.0418 l -2.34834,-2.63547 c -0.64866,0.15299 -1.30638,0.22342 -1.95942,0.21434 l -1.74642,3.17875 c -0.0462,0.0842 -0.14408,0.12514 -0.23659,0.10043 l -2.19533,-0.59045 c -0.0953,-0.0253 -0.15987,-0.11368 -0.15435,-0.21232 l 1.18765,-4.49447 0.0223,-0.0121 c 0.82528,0.31608 1.72062,0.4907 2.65705,0.4907 3.55501,0 6.52553,-2.4964 7.25867,-5.83108 z"
       style="fill:#000000;fill-opacity:0.23529412" />
    <path
       style="fill:url(#linearGradient4218);fill-opacity:1"
       d="m 408.5711,508.398 c -8.50498,0 -15.39967,6.89479 -15.39967,15.39966 0,8.50476 6.89469,15.40034 15.39967,15.40034 8.50531,0 15.40033,-6.89558 15.40033,-15.40034 0,-8.50487 -6.89502,-15.39966 -15.40033,-15.39966 z m -0.93354,3.08977 c 0.0703,0.007 0.13392,0.051 0.16581,0.11796 l 1.52062,3.19694 c 0.74079,0.0217 1.48412,0.14945 2.20881,0.38083 l 2.44338,-2.44 c 0.0673,-0.0675 0.17263,-0.0803 0.25478,-0.0303 l 1.94257,1.18091 c 0.0843,0.0513 0.12055,0.15486 0.0876,0.24737 l -1.18158,3.32636 c 0.44609,0.49514 0.82426,1.03806 1.13036,1.61499 l 3.62698,0.003 c 0.096,8e-5 0.1794,0.0661 0.20221,0.15907 l 0.53788,2.20881 c 0.0237,0.0957 -0.0228,0.19466 -0.11189,0.23726 l -4.543,0.9942 c -0.53725,-3.5772 -3.62388,-6.32042 -7.35101,-6.32042 -0.82581,0 -1.61901,0.13699 -2.36115,0.38555 l -0.0384,-0.0236 -0.9733,-4.49312 c 3.4e-4,-0.0962 0.0663,-0.1795 0.15907,-0.20221 l 2.20881,-0.53788 c 0.024,-0.006 0.048,-0.008 0.0715,-0.005 z m -7.20341,3.25356 c 0.0462,-0.005 0.0941,0.006 0.13548,0.033 l 3.4578,3.14976 c -1.75509,1.35966 -2.88959,3.48159 -2.88959,5.87354 0,2.15662 0.92369,4.09297 2.3908,5.45091 l -0.002,0.0499 -3.1046,3.43353 c -0.0824,0.0496 -0.18786,0.0371 -0.25546,-0.0303 l -1.60757,-1.60757 c -0.07,-0.0697 -0.0811,-0.17881 -0.0269,-0.26153 l 1.94189,-2.96103 c -0.36634,-0.64423 -0.64413,-1.34538 -0.823,-2.08479 l -3.35399,-0.81963 c -0.0926,-0.0224 -0.1584,-0.10605 -0.1584,-0.2022 l 0,-2.27285 c 0,-0.0987 0.069,-0.18429 0.16514,-0.20423 l 3.45645,-0.71852 c 0.19126,-0.63843 0.45879,-1.24376 0.79266,-1.80507 l -1.88258,-3.09988 c -0.0498,-0.0821 -0.0373,-0.18765 0.0303,-0.25546 l 1.60757,-1.60757 c 0.0347,-0.035 0.0798,-0.0552 0.12605,-0.06 z m 15.39562,10.65919 4.50862,1.00903 c 0.0841,0.0467 0.12514,0.14501 0.10043,0.23726 l -0.59046,2.19533 c -0.0255,0.0954 -0.11428,0.1593 -0.21299,0.15368 l -3.53464,-0.20424 c -0.37532,0.63904 -0.84387,1.22973 -1.39525,1.75384 l 0.96387,3.31558 c 0.0268,0.0915 -0.0124,0.18993 -0.0957,0.23793 l -1.9702,1.13507 c -0.0855,0.0493 -0.19355,0.0316 -0.25883,-0.0418 l -2.34834,-2.63547 c -0.64866,0.15299 -1.30638,0.22342 -1.95942,0.21434 l -1.74642,3.17875 c -0.0462,0.0842 -0.14408,0.12514 -0.23659,0.10043 l -2.19533,-0.59045 c -0.0953,-0.0253 -0.15987,-0.11368 -0.15435,-0.21232 l 1.18765,-4.49447 0.0223,-0.0121 c 0.82528,0.31608 1.72062,0.4907 2.65705,0.4907 3.55501,0 6.52553,-2.4964 7.25867,-5.83108 z"
       id="path2819-8-3-8"
       inkscape:connector-curvature="0" />
    <path
       style="fill:#0e7cd9;fill-opacity:0.3137255"
       d="M 23.066406 10.890625 C 23.042906 10.887625 23.018141 10.888531 22.994141 10.894531 L 20.785156 11.433594 C 20.692386 11.456304 20.627293 11.538566 20.626953 11.634766 L 20.759766 12.248047 C 20.769272 12.244145 20.774949 12.234921 20.785156 12.232422 L 22.994141 11.695312 C 23.018141 11.689313 23.042906 11.688406 23.066406 11.691406 L 23.066406 11.689453 C 23.136706 11.696453 23.200532 11.741634 23.232422 11.808594 L 24.751953 15.003906 C 25.492743 15.025606 26.236247 15.153386 26.960938 15.384766 L 29.404297 12.945312 C 29.471597 12.877813 29.578006 12.866016 29.660156 12.916016 L 31.511719 14.041016 L 31.689453 13.542969 C 31.722403 13.450459 31.685862 13.348175 31.601562 13.296875 L 29.660156 12.115234 C 29.578006 12.065234 29.471597 12.077031 29.404297 12.144531 L 26.960938 14.585938 C 26.236247 14.354558 25.492743 14.226778 24.751953 14.205078 L 23.232422 11.007812 C 23.200532 10.940853 23.136706 10.897625 23.066406 10.890625 z M 15.863281 14.142578 C 15.817031 14.147378 15.771028 14.168125 15.736328 14.203125 L 14.128906 15.810547 C 14.061306 15.878357 14.049809 15.984306 14.099609 16.066406 L 14.316406 16.423828 L 15.736328 15.003906 C 15.771028 14.968906 15.817031 14.948159 15.863281 14.943359 C 15.909481 14.938359 15.956667 14.949562 15.998047 14.976562 L 19.005859 17.716797 C 19.152754 17.583116 19.297854 17.447973 19.455078 17.326172 L 15.998047 14.175781 C 15.956667 14.148781 15.909481 14.137578 15.863281 14.142578 z M 30.705078 17.117188 L 30.507812 17.669922 C 30.953903 18.165062 31.332572 18.708226 31.638672 19.285156 L 35.265625 19.287109 C 35.361625 19.287189 35.443987 19.354296 35.466797 19.447266 L 35.869141 21.099609 L 35.894531 21.09375 C 35.983621 21.05115 36.029559 20.951169 36.005859 20.855469 L 35.466797 18.646484 C 35.443987 18.553514 35.361625 18.488361 35.265625 18.488281 L 31.638672 18.484375 C 31.38144 17.999551 31.061637 17.545804 30.705078 17.117188 z M 15.757812 19.599609 C 15.532034 20.037515 15.333239 20.490743 15.189453 20.970703 L 11.732422 21.689453 C 11.636282 21.709393 11.566406 21.795831 11.566406 21.894531 L 11.566406 22.693359 C 11.566406 22.594659 11.636282 22.510174 11.732422 22.490234 L 15.189453 21.771484 C 15.380713 21.133054 15.646599 20.528107 15.980469 19.966797 L 15.757812 19.599609 z M 8.6191406 23.599609 C 8.6156781 23.733957 8.5996094 23.864817 8.5996094 24 C 8.5996094 32.50476 15.49502 39.400391 24 39.400391 C 32.50531 39.400391 39.400391 32.50476 39.400391 24 C 39.400391 23.864817 39.384322 23.733957 39.380859 23.599609 C 39.166468 31.917532 32.37012 38.599609 24 38.599609 C 15.630204 38.599609 8.8335213 31.917532 8.6191406 23.599609 z M 16.589844 23.621094 C 16.58339 23.747808 16.566406 23.871655 16.566406 24 C 16.566406 25.97492 17.346338 27.759388 18.603516 29.089844 L 18.955078 28.701172 L 18.957031 28.650391 C 17.586781 27.382103 16.702209 25.606709 16.589844 23.621094 z M 31.257812 24.802734 C 30.524673 28.137414 27.55501 30.632812 24 30.632812 C 23.06357 30.632812 22.167077 30.458658 21.341797 30.142578 L 21.320312 30.154297 L 20.132812 34.650391 C 20.127293 34.749031 20.191809 34.836028 20.287109 34.861328 L 21.320312 30.955078 L 21.341797 30.943359 C 22.167077 31.259439 23.06357 31.433594 24 31.433594 C 27.55501 31.433594 30.524673 28.936243 31.257812 25.601562 L 35.71875 26.599609 L 35.867188 26.048828 C 35.891897 25.956578 35.851678 25.8592 35.767578 25.8125 L 31.257812 24.802734 z M 15.681641 27.611328 L 13.960938 30.234375 C 13.906738 30.317095 13.918281 30.426394 13.988281 30.496094 L 14.185547 30.693359 L 15.902344 28.074219 C 15.818275 27.926379 15.756257 27.764937 15.681641 27.611328 z M 30.310547 30.554688 C 30.249066 30.616995 30.198474 30.687489 30.134766 30.748047 L 30.943359 33.533203 L 31.001953 33.5 C 31.085253 33.452 31.124456 33.355172 31.097656 33.263672 L 30.310547 30.554688 z "
       transform="translate(384.57143,499.798)"
       id="path4228" />
    <path
       style="fill:#ffffff;fill-opacity:0.23529412"
       d="M 24 8.5996094 C 15.49502 8.5996094 8.5996094 15.49513 8.5996094 24 C 8.5996094 24.067261 8.6085151 24.132161 8.609375 24.199219 C 8.7181505 15.787998 15.562857 9 24 9 C 32.43747 9 39.281844 15.787998 39.390625 24.199219 C 39.391485 24.132161 39.400391 24.067261 39.400391 24 C 39.400391 15.49513 32.50531 8.5996094 24 8.5996094 z M 20.683594 12.699219 C 20.649945 12.736438 20.627141 12.782835 20.626953 12.835938 L 21.599609 17.328125 L 21.638672 17.351562 C 22.380812 17.103003 23.17419 16.966797 24 16.966797 C 27.72713 16.966797 30.814313 19.709909 31.351562 23.287109 L 35.894531 22.292969 C 35.983621 22.250369 36.029559 22.152341 36.005859 22.056641 L 35.951172 21.835938 C 35.933173 21.856317 35.920367 21.880224 35.894531 21.892578 L 31.351562 22.886719 C 30.814313 19.309519 27.72713 16.566406 24 16.566406 C 23.17419 16.566406 22.380812 16.704565 21.638672 16.953125 L 21.599609 16.927734 L 20.683594 12.699219 z M 31.625 14.525391 L 30.507812 17.669922 C 30.543113 17.709104 30.571021 17.753195 30.605469 17.792969 L 31.689453 14.744141 C 31.71795 14.664133 31.68634 14.580974 31.625 14.525391 z M 14.166016 16.974609 L 14.128906 17.011719 C 14.061306 17.079529 14.049809 17.183525 14.099609 17.265625 L 15.869141 20.183594 C 15.908514 20.112595 15.939032 20.036461 15.980469 19.966797 L 14.166016 16.974609 z M 19.230469 18.320312 C 17.607717 19.683357 16.566406 21.714892 16.566406 24 C 16.566406 24.071365 16.576116 24.140068 16.578125 24.210938 C 16.636881 21.897432 17.746971 19.848653 19.455078 18.525391 L 19.230469 18.320312 z M 11.566406 24.966797 L 11.566406 25.367188 C 11.566406 25.463337 11.632009 25.545959 11.724609 25.568359 L 15.080078 26.388672 C 15.238429 27.043259 15.484807 27.660518 15.791016 28.242188 L 15.902344 28.074219 C 15.536004 27.429989 15.258948 26.727691 15.080078 25.988281 L 11.724609 25.169922 C 11.632009 25.147522 11.566406 25.062947 11.566406 24.966797 z M 35.810547 27.060547 L 35.277344 29.044922 C 35.251844 29.140322 35.163163 29.202886 35.064453 29.197266 L 31.529297 28.994141 C 31.153977 29.633181 30.686146 30.223937 30.134766 30.748047 L 30.222656 31.050781 C 30.733303 30.549659 31.175568 29.996809 31.529297 29.394531 L 35.064453 29.597656 C 35.163163 29.603276 35.251844 29.538759 35.277344 29.443359 L 35.867188 27.248047 C 35.885971 27.177922 35.857784 27.112343 35.810547 27.060547 z M 18.791016 29.679688 L 15.851562 32.933594 C 15.769162 32.983194 15.663303 32.971697 15.595703 32.904297 L 14.025391 31.333984 L 13.960938 31.433594 C 13.906738 31.516314 13.918281 31.625612 13.988281 31.695312 L 15.595703 33.302734 C 15.663303 33.370134 15.769162 33.383584 15.851562 33.333984 L 18.955078 29.900391 L 18.957031 29.849609 C 18.898834 29.795742 18.847479 29.735352 18.791016 29.679688 z M 26.425781 32.757812 C 25.777121 32.910803 25.117884 32.981736 24.464844 32.972656 L 22.71875 36.152344 C 22.67255 36.236544 22.574932 36.276663 22.482422 36.251953 L 20.287109 35.662109 C 20.250582 35.652412 20.224501 35.62682 20.199219 35.601562 L 20.132812 35.849609 C 20.127293 35.948249 20.191809 36.0372 20.287109 36.0625 L 22.482422 36.652344 C 22.574932 36.677054 22.67255 36.636934 22.71875 36.552734 L 24.464844 33.373047 C 25.117884 33.382127 25.777121 33.311193 26.425781 33.158203 L 28.773438 35.794922 C 28.838717 35.868322 28.94575 35.885238 29.03125 35.835938 L 31.001953 34.701172 C 31.085253 34.653172 31.124456 34.554391 31.097656 34.462891 L 31.039062 34.259766 C 31.025928 34.273263 31.018941 34.290992 31.001953 34.300781 L 29.03125 35.435547 C 28.94575 35.484847 28.838717 35.467931 28.773438 35.394531 L 26.425781 32.757812 z "
       transform="translate(384.57143,499.798)"
       id="path4233" />
  </g>
</svg>
