<?xml version="1.0" encoding="UTF-8" standalone="no"?>
<!-- Created with Inkscape (http://www.inkscape.org/) -->

<svg
   xmlns:dc="http://purl.org/dc/elements/1.1/"
   xmlns:cc="http://creativecommons.org/ns#"
   xmlns:rdf="http://www.w3.org/1999/02/22-rdf-syntax-ns#"
   xmlns:svg="http://www.w3.org/2000/svg"
   xmlns="http://www.w3.org/2000/svg"
   xmlns:xlink="http://www.w3.org/1999/xlink"
   xmlns:sodipodi="http://sodipodi.sourceforge.net/DTD/sodipodi-0.dtd"
   xmlns:inkscape="http://www.inkscape.org/namespaces/inkscape"
   width="48"
   height="48"
   id="svg5453"
   version="1.1"
   inkscape:version="0.91pre2 r"
   sodipodi:docname="distributor-logo-deepin.svg">
  <defs
     id="defs5455">
    <linearGradient
       id="linearGradient4244">
      <stop
         style="stop-color:#bcdffc;stop-opacity:0.99607843"
         offset="0"
         id="stop4246" />
      <stop
         style="stop-color:#f6fafe;stop-opacity:1"
         offset="1"
         id="stop4248" />
    </linearGradient>
    <linearGradient
       inkscape:collect="always"
       xlink:href="#linearGradient4142"
       id="linearGradient4612"
       x1="408.72192"
       y1="-547.79987"
       x2="408.72192"
       y2="-499.80991"
       gradientUnits="userSpaceOnUse" />
    <linearGradient
       id="linearGradient4142">
      <stop
         id="stop4144"
         offset="0"
         style="stop-color:#0a79d6;stop-opacity:0.99803919" />
      <stop
         id="stop4146"
         offset="1"
         style="stop-color:#2995ed;stop-opacity:1" />
    </linearGradient>
    <linearGradient
       inkscape:collect="always"
       xlink:href="#linearGradient4244"
       id="linearGradient4242"
       x1="411.65576"
       y1="539.22699"
       x2="411.65576"
       y2="508.37143"
       gradientUnits="userSpaceOnUse" />
  </defs>
  <sodipodi:namedview
     id="base"
     pagecolor="#ffffff"
     bordercolor="#666666"
     borderopacity="1.0"
     inkscape:pageopacity="0"
     inkscape:pageshadow="2"
     inkscape:zoom="8.2500001"
     inkscape:cx="18.62942"
     inkscape:cy="32.28674"
     inkscape:document-units="px"
     inkscape:current-layer="layer1"
     showgrid="false"
     fit-margin-top="0"
     fit-margin-left="0"
     fit-margin-right="0"
     fit-margin-bottom="0"
     inkscape:window-width="1366"
     inkscape:window-height="672"
     inkscape:window-x="-4"
     inkscape:window-y="25"
     inkscape:window-maximized="1" />
  <metadata
     id="metadata5458">
    <rdf:RDF>
      <cc:Work
         rdf:about="">
        <dc:format>image/svg+xml</dc:format>
        <dc:type
           rdf:resource="http://purl.org/dc/dcmitype/StillImage" />
        <dc:title />
      </cc:Work>
    </rdf:RDF>
  </metadata>
  <g
     inkscape:label="Capa 1"
     inkscape:groupmode="layer"
     id="layer1"
     transform="translate(-384.57143,-499.798)">
    <rect
       style="fill:url(#linearGradient4612);fill-opacity:1.0;stroke:none"
       id="rect2991-1-7"
       width="48"
       height="48"
       x="384.57144"
       y="-547.79797"
       ry="1.9445436"
       transform="scale(1,-1)" />
    <path
       style="fill:#000000;fill-opacity:0.05882353;fill-rule:nonzero;stroke:none"
       inkscape:connector-curvature="0"
       d="m 407.46116,509.6177 c -1.87526,0.0449 -1.74947,0.38107 -2.54142,1.99516 -1.27842,2.59563 -2.17561,6.36014 -1.99078,8.58497 0.1951,2.37623 0.83173,3.92488 2.06522,5.0822 1.47865,1.40367 3.2846,1.22276 4.80817,-0.41058 1.36826,-1.4691 1.87526,-2.9921 1.99592,-6.32036 0.0706,-2.1055 0.11552,-2.3557 0.27083,-1.99516 0.60711,1.39854 0.76756,4.69087 0.34655,6.32036 -0.3504,1.3485 -1.22322,2.99724 -1.92532,3.6439 -0.928,0.85195 -1.92532,1.23815 -3.29871,1.30359 -0.92287,0.0449 -1.28355,0.0295 -1.99592,-0.20529 -1.82007,-0.60689 -4.07141,-2.34544 -5.36009,-4.05448 -1.83548,-2.42113 -3.66068,-7.34809 -4.12661,-11.26656 -0.0898,-0.75701 -0.21563,-1.44345 -0.27083,-1.50888 -0.32602,-0.37594 -1.59416,1.19838 -1.99078,2.47631 -0.26056,0.81731 -0.27596,1.20736 -0.27596,8.45024 l 0,7.62781 0.34656,0.20529 c 0.48646,0.31563 2.60688,0.95203 4.3371,1.30359 1.31307,0.27072 1.84061,0.34642 4.94808,0.34642 3.10875,-0.005 3.6902,-0.0808 4.8839,-0.34642 1.94585,-0.42598 3.39883,-1.12268 4.60793,-2.33518 1.69942,-1.7039 2.33092,-3.43347 2.33606,-6.11507 0.005,-1.77961 -0.2503,-3.20252 -0.9678,-4.60619 -0.25542,-0.51066 -0.507,-0.93279 -0.48133,-0.9623 0.16045,-0.16038 1.93559,1.95924 2.34119,2.81632 2.54656,5.38245 1.32847,9.77308 -3.92123,14.15218 -2.32708,1.93998 -6.35741,4.60619 -8.66395,5.76864 -0.80735,0.40545 -0.95753,0.55685 -0.75729,0.75701 0.0501,0.05 4.06628,0.0898 8.93477,0.0654 l 8.86931,-0.0654 0.7573,-0.34643 c 1.5287,-0.73134 2.49649,-1.80912 2.95344,-3.29747 0.26569,-0.85195 0.27596,-1.23815 0.27596,-11.67843 0,-10.97146 -0.0205,-11.91836 -0.48133,-12.09414 -0.10525,-0.0398 -1.14364,0.0757 -2.27188,0.27073 -1.24889,0.22068 -3.01377,0.4016 -4.53734,0.48628 -2.66208,0.13472 -4.00082,0.39133 -5.57059,1.02773 -1.45426,0.59662 -2.3014,1.07264 -3.09335,1.7193 -0.71237,0.58123 -0.80735,0.65693 -1.03326,1.5833 -0.31575,1.27793 -0.51085,1.84504 -1.03325,2.54046 -0.39149,0.50681 -0.7727,0.75701 -0.76756,0.48115 0.0205,-0.49141 0.46592,-2.0298 0.89719,-2.88689 1.27842,-2.54046 2.94318,-4.35599 6.19184,-6.80151 0.99731,-0.76214 1.85472,-1.41778 1.85472,-1.51914 0,-0.15012 -0.72649,-0.20529 -3.99055,-0.20529 -1.16802,0 -2.05624,-0.0154 -2.68261,0 m 2.67748,6.46663 c 0.2105,0 0.21564,0.21042 -0.0655,2.27102 -0.30035,2.16966 -1.07818,3.90436 -2.06523,4.9462 -0.69696,0.73648 -1.44912,0.93279 -1.99078,0.54659 -0.30548,-0.21043 -0.6867,-0.9469 -0.6867,-1.30359 0,-0.17578 0.0655,-0.18092 0.27083,-0.0654 0.421,0.22069 0.59172,0.17065 1.10257,-0.27586 0.85227,-0.75187 1.74434,-2.90742 2.20128,-5.35807 0.0501,-0.28612 0.83687,-0.76727 1.23349,-0.76727 m 0,-0.005"
       id="path4234" />
    <path
       id="path4232"
       d="m 407.46116,509.2177 c -1.87526,0.0449 -1.74947,0.38107 -2.54142,1.99516 -1.27842,2.59563 -2.17561,6.36014 -1.99078,8.58497 0.1951,2.37623 0.83173,3.92488 2.06522,5.0822 1.47865,1.40367 3.2846,1.22276 4.80817,-0.41058 1.36826,-1.4691 1.87526,-2.9921 1.99592,-6.32036 0.0706,-2.1055 0.11552,-2.3557 0.27083,-1.99516 0.60711,1.39854 0.76756,4.69087 0.34655,6.32036 -0.3504,1.3485 -1.22322,2.99724 -1.92532,3.6439 -0.928,0.85195 -1.92532,1.23815 -3.29871,1.30359 -0.92287,0.0449 -1.28355,0.0295 -1.99592,-0.20529 -1.82007,-0.60689 -4.07141,-2.34544 -5.36009,-4.05448 -1.83548,-2.42113 -3.66068,-7.34809 -4.12661,-11.26656 -0.0898,-0.75701 -0.21563,-1.44345 -0.27083,-1.50888 -0.32602,-0.37594 -1.59416,1.19838 -1.99078,2.47631 -0.26056,0.81731 -0.27596,1.20736 -0.27596,8.45024 l 0,7.62781 0.34656,0.20529 c 0.48646,0.31563 2.60688,0.95203 4.3371,1.30359 1.31307,0.27072 1.84061,0.34642 4.94808,0.34642 3.10875,-0.005 3.6902,-0.0808 4.8839,-0.34642 1.94585,-0.42598 3.39883,-1.12268 4.60793,-2.33518 1.69942,-1.7039 2.33092,-3.43347 2.33606,-6.11507 0.005,-1.77961 -0.2503,-3.20252 -0.9678,-4.60619 -0.25542,-0.51066 -0.507,-0.93279 -0.48133,-0.9623 0.16045,-0.16038 1.93559,1.95924 2.34119,2.81632 2.54656,5.38245 1.32847,9.77308 -3.92123,14.15218 -2.32708,1.93998 -6.35741,4.60619 -8.66395,5.76864 -0.80735,0.40545 -0.95753,0.55685 -0.75729,0.75701 0.0501,0.05 4.06628,0.0898 8.93477,0.0654 l 8.86931,-0.0654 0.7573,-0.34643 c 1.5287,-0.73134 2.49649,-1.80912 2.95344,-3.29747 0.26569,-0.85195 0.27596,-1.23815 0.27596,-11.67843 0,-10.97146 -0.0205,-11.91836 -0.48133,-12.09414 -0.10525,-0.0398 -1.14364,0.0757 -2.27188,0.27073 -1.24889,0.22068 -3.01377,0.4016 -4.53734,0.48628 -2.66208,0.13472 -4.00082,0.39133 -5.57059,1.02773 -1.45426,0.59662 -2.3014,1.07264 -3.09335,1.7193 -0.71237,0.58123 -0.80735,0.65693 -1.03326,1.5833 -0.31575,1.27793 -0.51085,1.84504 -1.03325,2.54046 -0.39149,0.50681 -0.7727,0.75701 -0.76756,0.48115 0.0205,-0.49141 0.46592,-2.0298 0.89719,-2.88689 1.27842,-2.54046 2.94318,-4.35599 6.19184,-6.80151 0.99731,-0.76214 1.85472,-1.41778 1.85472,-1.51914 0,-0.15012 -0.72649,-0.20529 -3.99055,-0.20529 -1.16802,0 -2.05624,-0.0154 -2.68261,0 m 2.67748,6.46663 c 0.2105,0 0.21564,0.21042 -0.0655,2.27102 -0.30035,2.16966 -1.07818,3.90436 -2.06523,4.9462 -0.69696,0.73648 -1.44912,0.93279 -1.99078,0.54659 -0.30548,-0.21043 -0.6867,-0.9469 -0.6867,-1.30359 0,-0.17578 0.0655,-0.18092 0.27083,-0.0654 0.421,0.22069 0.59172,0.17065 1.10257,-0.27586 0.85227,-0.75187 1.74434,-2.90742 2.20128,-5.35807 0.0501,-0.28612 0.83687,-0.76727 1.23349,-0.76727 m 0,-0.005"
       inkscape:connector-curvature="0"
       style="fill:#000000;fill-opacity:0.11764706;fill-rule:nonzero;stroke:none" />
    <path
       style="fill:#000000;fill-opacity:0.23529412;fill-rule:nonzero;stroke:none"
       inkscape:connector-curvature="0"
       d="m 407.46116,508.8177 c -1.87526,0.0449 -1.74947,0.38107 -2.54142,1.99516 -1.27842,2.59563 -2.17561,6.36014 -1.99078,8.58497 0.1951,2.37623 0.83173,3.92488 2.06522,5.0822 1.47865,1.40367 3.2846,1.22276 4.80817,-0.41058 1.36826,-1.4691 1.87526,-2.9921 1.99592,-6.32036 0.0706,-2.1055 0.11552,-2.3557 0.27083,-1.99516 0.60711,1.39854 0.76756,4.69087 0.34655,6.32036 -0.3504,1.3485 -1.22322,2.99724 -1.92532,3.6439 -0.928,0.85195 -1.92532,1.23815 -3.29871,1.30359 -0.92287,0.0449 -1.28355,0.0295 -1.99592,-0.20529 -1.82007,-0.60689 -4.07141,-2.34544 -5.36009,-4.05448 -1.83548,-2.42113 -3.66068,-7.34809 -4.12661,-11.26656 -0.0898,-0.75701 -0.21563,-1.44345 -0.27083,-1.50888 -0.32602,-0.37594 -1.59416,1.19838 -1.99078,2.47631 -0.26056,0.81731 -0.27596,1.20736 -0.27596,8.45024 l 0,7.62781 0.34656,0.20529 c 0.48646,0.31563 2.60688,0.95203 4.3371,1.30359 1.31307,0.27072 1.84061,0.34642 4.94808,0.34642 3.10875,-0.005 3.6902,-0.0808 4.8839,-0.34642 1.94585,-0.42598 3.39883,-1.12268 4.60793,-2.33518 1.69942,-1.7039 2.33092,-3.43347 2.33606,-6.11507 0.005,-1.77961 -0.2503,-3.20252 -0.9678,-4.60619 -0.25542,-0.51066 -0.507,-0.93279 -0.48133,-0.9623 0.16045,-0.16038 1.93559,1.95924 2.34119,2.81632 2.54656,5.38245 1.32847,9.77308 -3.92123,14.15218 -2.32708,1.93998 -6.35741,4.60619 -8.66395,5.76864 -0.80735,0.40545 -0.95753,0.55685 -0.75729,0.75701 0.0501,0.05 4.06628,0.0898 8.93477,0.0654 l 8.86931,-0.0654 0.7573,-0.34643 c 1.5287,-0.73134 2.49649,-1.80912 2.95344,-3.29747 0.26569,-0.85195 0.27596,-1.23815 0.27596,-11.67843 0,-10.97146 -0.0205,-11.91836 -0.48133,-12.09414 -0.10525,-0.0398 -1.14364,0.0757 -2.27188,0.27073 -1.24889,0.22068 -3.01377,0.4016 -4.53734,0.48628 -2.66208,0.13472 -4.00082,0.39133 -5.57059,1.02773 -1.45426,0.59662 -2.3014,1.07264 -3.09335,1.7193 -0.71237,0.58123 -0.80735,0.65693 -1.03326,1.5833 -0.31575,1.27793 -0.51085,1.84504 -1.03325,2.54046 -0.39149,0.50681 -0.7727,0.75701 -0.76756,0.48115 0.0205,-0.49141 0.46592,-2.0298 0.89719,-2.88689 1.27842,-2.54046 2.94318,-4.35599 6.19184,-6.80151 0.99731,-0.76214 1.85472,-1.41778 1.85472,-1.51914 0,-0.15012 -0.72649,-0.20529 -3.99055,-0.20529 -1.16802,0 -2.05624,-0.0154 -2.68261,0 m 2.67748,6.46663 c 0.2105,0 0.21564,0.21042 -0.0655,2.27102 -0.30035,2.16966 -1.07818,3.90436 -2.06523,4.9462 -0.69696,0.73648 -1.44912,0.93279 -1.99078,0.54659 -0.30548,-0.21043 -0.6867,-0.9469 -0.6867,-1.30359 0,-0.17578 0.0655,-0.18092 0.27083,-0.0654 0.421,0.22069 0.59172,0.17065 1.10257,-0.27586 0.85227,-0.75187 1.74434,-2.90742 2.20128,-5.35807 0.0501,-0.28612 0.83687,-0.76727 1.23349,-0.76727 m 0,-0.005"
       id="path4230" />
    <path
       inkscape:connector-curvature="0"
       style="fill:#000000;fill-opacity:1;stroke:none"
       d="m 384.57143,544.79799 0,1.0625 c 0,1.0773 0.86022,1.9375 1.9375,1.9375 l 44.125,0 c 1.07728,0 1.9375,-0.8602 1.9375,-1.9375 l 0,-1.0625 c 0,1.0773 -0.86022,1.9375 -1.9375,1.9375 l -44.125,0 C 385.43165,546.73549 384.57143,545.87529 384.57143,544.79799 Z"
       id="rect846" />
    <path
       inkscape:connector-curvature="0"
       style="fill:#ffffff;fill-opacity:0.5372549;stroke:none"
       d="m 387.10268,500.45429 c -0.91709,0 -1.67115,0.6395 -1.84375,1.5 0.33561,-0.2799 0.77451,-0.4375 1.25,-0.4375 l 44.125,0 c 0.47549,0 0.91439,0.1576 1.25,0.4375 -0.1726,-0.8605 -0.92666,-1.5 -1.84375,-1.5 L 387.10268,500.45429 Z"
       id="path7515" />
    <path
       inkscape:connector-curvature="0"
       style="fill:#000000;fill-opacity:0.39215686;stroke:none"
       d="m 386.50893,499.79799 c -1.07728,0 -1.9375,0.8602 -1.9375,1.9375 l 0,43.0625 c 0,0.7934 0.48002,1.449 1.15625,1.75 -0.30934,-0.3333 -0.5,-0.7824 -0.5,-1.2812 l 0,-42.9375 c 0,-1.0482 0.8269,-1.875 1.875,-1.875 l 42.9375,0 c 1.0481,0 1.875,0.8268 1.875,1.875 l 0,42.9375 c 0,0.4988 -0.19066,0.9479 -0.5,1.2812 0.67623,-0.301 1.15625,-0.9566 1.15625,-1.75 l 0,-43.0625 c 0,-1.0773 -0.86022,-1.9375 -1.9375,-1.9375 L 386.50893,499.79799 Z"
       id="rect4280" />
    <path
       id="path4185-0"
       d="m 407.46116,508.41769 c -1.87526,0.0449 -1.74947,0.38107 -2.54142,1.99516 -1.27842,2.59563 -2.17561,6.36014 -1.99078,8.58497 0.1951,2.37623 0.83173,3.92488 2.06522,5.0822 1.47865,1.40367 3.2846,1.22276 4.80817,-0.41058 1.36826,-1.4691 1.87526,-2.9921 1.99592,-6.32036 0.0706,-2.1055 0.11552,-2.3557 0.27083,-1.99516 0.60711,1.39854 0.76756,4.69087 0.34655,6.32036 -0.3504,1.3485 -1.22322,2.99724 -1.92532,3.6439 -0.928,0.85195 -1.92532,1.23815 -3.29871,1.30359 -0.92287,0.0449 -1.28355,0.0295 -1.99592,-0.20529 -1.82007,-0.60689 -4.07141,-2.34544 -5.36009,-4.05448 -1.83548,-2.42113 -3.66068,-7.34809 -4.12661,-11.26656 -0.0898,-0.75701 -0.21563,-1.44345 -0.27083,-1.50888 -0.32602,-0.37594 -1.59416,1.19838 -1.99078,2.47631 -0.26056,0.81731 -0.27596,1.20736 -0.27596,8.45024 l 0,7.62781 0.34656,0.20529 c 0.48646,0.31563 2.60688,0.95203 4.3371,1.30359 1.31307,0.27072 1.84061,0.34642 4.94808,0.34642 3.10875,-0.005 3.6902,-0.0808 4.8839,-0.34642 1.94585,-0.42598 3.39883,-1.12268 4.60793,-2.33518 1.69942,-1.7039 2.33092,-3.43347 2.33606,-6.11507 0.005,-1.77961 -0.2503,-3.20252 -0.9678,-4.60619 -0.25542,-0.51066 -0.507,-0.93279 -0.48133,-0.9623 0.16045,-0.16038 1.93559,1.95924 2.34119,2.81632 2.54656,5.38245 1.32847,9.77308 -3.92123,14.15218 -2.32708,1.93998 -6.35741,4.60619 -8.66395,5.76864 -0.80735,0.40545 -0.95753,0.55685 -0.75729,0.75701 0.0501,0.05 4.06628,0.0898 8.93477,0.0654 l 8.86931,-0.0654 0.7573,-0.34643 c 1.5287,-0.73134 2.49649,-1.80912 2.95344,-3.29747 0.26569,-0.85195 0.27596,-1.23815 0.27596,-11.67843 0,-10.97146 -0.0205,-11.91836 -0.48133,-12.09414 -0.10525,-0.0398 -1.14364,0.0757 -2.27188,0.27073 -1.24889,0.22068 -3.01377,0.4016 -4.53734,0.48628 -2.66208,0.13472 -4.00082,0.39133 -5.57059,1.02773 -1.45426,0.59662 -2.3014,1.07264 -3.09335,1.7193 -0.71237,0.58123 -0.80735,0.65693 -1.03326,1.5833 -0.31575,1.27793 -0.51085,1.84504 -1.03325,2.54046 -0.39149,0.50681 -0.7727,0.75701 -0.76756,0.48115 0.0205,-0.49141 0.46592,-2.0298 0.89719,-2.88689 1.27842,-2.54046 2.94318,-4.35599 6.19184,-6.80151 0.99731,-0.76214 1.85472,-1.41778 1.85472,-1.51914 0,-0.15012 -0.72649,-0.20529 -3.99055,-0.20529 -1.16802,0 -2.05624,-0.0154 -2.68261,0 m 2.67748,6.46663 c 0.2105,0 0.21564,0.21042 -0.0655,2.27102 -0.30035,2.16966 -1.07818,3.90436 -2.06523,4.9462 -0.69696,0.73648 -1.44912,0.93279 -1.99078,0.54659 -0.30548,-0.21043 -0.6867,-0.9469 -0.6867,-1.30359 0,-0.17578 0.0655,-0.18092 0.27083,-0.0654 0.421,0.22069 0.59172,0.17065 1.10257,-0.27586 0.85227,-0.75187 1.74434,-2.90742 2.20128,-5.35807 0.0501,-0.28612 0.83687,-0.76727 1.23349,-0.76727 m 0,-0.005"
       inkscape:connector-curvature="0"
       style="fill:url(#linearGradient4242);fill-opacity:1;fill-rule:nonzero;stroke:none" />
    <path
       style="fill:#0c7bd7;fill-opacity:0.3137255;fill-rule:nonzero;stroke:none"
       d="M 28.830078 8.6582031 C 28.508729 8.9121295 28.133641 9.2007587 27.701172 9.53125 C 24.452512 11.97677 22.786232 13.791571 21.507812 16.332031 C 21.076542 17.189121 20.631828 18.72734 20.611328 19.21875 C 20.609501 19.316804 20.667184 19.329415 20.746094 19.306641 C 20.912439 18.633502 21.208974 17.726714 21.507812 17.132812 C 22.786232 14.592352 24.452512 12.777551 27.701172 10.332031 C 28.698482 9.5698913 29.554688 8.91386 29.554688 8.8125 C 29.554688 8.7403419 29.366909 8.6909039 28.830078 8.6582031 z M 25.558594 14.267578 C 25.161974 14.267578 24.376272 14.749036 24.326172 15.035156 C 23.869232 17.485806 22.97727 19.640708 22.125 20.392578 C 21.61415 20.839088 21.442484 20.888659 21.021484 20.667969 C 20.816154 20.552449 20.751953 20.558595 20.751953 20.734375 C 20.751953 20.917574 20.852973 21.198145 20.992188 21.458984 C 21.005019 21.465776 21.007352 21.460799 21.021484 21.46875 C 21.442484 21.68944 21.61415 21.639869 22.125 21.193359 C 22.97727 20.441489 23.869232 18.284634 24.326172 15.833984 C 24.376272 15.547864 25.161974 15.066406 25.558594 15.066406 L 25.558594 15.074219 C 25.601711 15.074219 25.63106 15.095204 25.65625 15.126953 C 25.70625 14.553807 25.690877 14.273438 25.558594 14.273438 L 25.558594 14.267578 z M 27.400391 14.619141 C 27.318926 14.636102 27.279513 15.172828 27.226562 16.751953 C 27.105903 20.080213 26.598729 21.603166 25.230469 23.072266 C 23.706899 24.705606 21.900525 24.886092 20.421875 23.482422 C 19.188385 22.325102 18.552522 20.776621 18.357422 18.400391 C 18.350071 18.311905 18.355535 18.206467 18.351562 18.113281 C 18.333835 18.500884 18.330088 18.870201 18.357422 19.199219 C 18.552522 21.575449 19.188385 23.12393 20.421875 24.28125 C 21.900525 25.68492 23.706899 25.504434 25.230469 23.871094 C 26.598729 22.401994 27.105903 20.879041 27.226562 17.550781 C 27.297163 15.445281 27.342737 15.196101 27.498047 15.556641 C 27.840616 16.345783 28.034433 17.735693 28.068359 19.091797 C 28.108803 17.512203 27.909211 15.703018 27.498047 14.755859 C 27.459219 14.665724 27.427545 14.613487 27.400391 14.619141 z M 28.611328 15.033203 C 28.585658 15.062713 28.836377 15.485434 29.091797 15.996094 C 29.157209 16.124062 29.19993 16.254269 29.257812 16.382812 C 29.859787 17.032583 30.686083 18.088275 30.951172 18.648438 C 31.725689 20.285469 32.148224 21.831381 32.21875 23.3125 C 32.288582 21.58858 31.866513 19.784289 30.951172 17.849609 C 30.545572 16.992529 28.771778 14.872823 28.611328 15.033203 z M 30.046875 21.023438 C 29.975919 23.46225 29.329011 25.106207 27.722656 26.716797 C 26.513556 27.929297 25.061084 28.626754 23.115234 29.052734 C 21.921534 29.318354 21.341172 29.393438 18.232422 29.398438 C 15.124952 29.398438 14.596273 29.323454 13.283203 29.052734 C 11.552983 28.701174 9.4337256 28.063677 8.9472656 27.748047 L 8.5996094 27.542969 L 8.5996094 28.34375 L 8.9472656 28.548828 C 9.4337256 28.864458 11.552983 29.500003 13.283203 29.851562 C 14.596273 30.122282 15.124952 30.197266 18.232422 30.197266 C 21.341172 30.192266 21.921534 30.117183 23.115234 29.851562 C 25.061084 29.425583 26.513556 28.730078 27.722656 27.517578 C 29.422076 25.813678 30.055407 24.083944 30.060547 21.402344 C 30.060919 21.269976 30.049466 21.151997 30.046875 21.023438 z M 39.398438 23.447266 C 39.398137 33.50051 39.38728 34.041796 39.125 34.882812 C 38.66805 36.371162 37.698622 37.450301 36.169922 38.181641 L 35.414062 38.527344 L 26.544922 38.591797 C 22.41098 38.612515 19.410682 38.583721 18.412109 38.544922 C 18.399008 38.551565 18.38018 38.563764 18.367188 38.570312 C 17.559838 38.975762 17.409135 39.127965 17.609375 39.328125 C 17.659475 39.378125 21.676432 39.416978 26.544922 39.392578 L 35.414062 39.328125 L 36.169922 38.980469 C 37.698622 38.249129 38.66805 37.171944 39.125 35.683594 C 39.39069 34.831644 39.400391 34.444186 39.400391 24.003906 C 39.400391 23.768732 39.39846 23.673319 39.398438 23.447266 z "
       transform="translate(384.57143,499.798)"
       id="path4250" />
    <path
       style="fill:#ffffff;fill-opacity:0.23529412;fill-rule:nonzero;stroke:none"
       d="M 22.882812 8.6074219 L 22.890625 8.6191406 C 21.015365 8.6640406 21.139606 9.0011444 20.347656 10.615234 C 19.174619 12.996902 18.333468 16.34801 18.34375 18.605469 C 18.428031 16.364979 19.243809 13.256813 20.347656 11.015625 C 21.139606 9.401535 21.015365 9.0644312 22.890625 9.0195312 L 22.882812 9.0078125 C 23.509183 8.9924125 24.396433 9.0078125 25.564453 9.0078125 C 27.84192 9.0078125 28.841791 9.0362847 29.263672 9.1035156 C 29.431827 8.9599362 29.554688 8.8467545 29.554688 8.8125 C 29.554688 8.66238 28.828513 8.6074219 25.564453 8.6074219 C 24.396433 8.6074219 23.509183 8.5920219 22.882812 8.6074219 z M 10.703125 9.734375 C 10.236565 9.801331 9.2220425 11.147436 8.875 12.265625 C 8.61444 13.082935 8.5996094 13.471964 8.5996094 20.714844 L 8.5996094 21.115234 C 8.5996094 13.872354 8.61444 13.481373 8.875 12.664062 C 9.27162 11.386132 10.541167 9.8135131 10.867188 10.189453 C 10.922388 10.254883 11.046919 10.940256 11.136719 11.697266 C 11.602649 15.615736 13.428192 20.543714 15.263672 22.964844 C 16.552352 24.673884 18.80493 26.410688 20.625 27.017578 C 21.33737 27.252368 21.698224 27.269509 22.621094 27.224609 C 23.994484 27.159169 24.989969 26.771872 25.917969 25.919922 C 26.620069 25.273262 27.49335 23.623891 27.84375 22.275391 C 28.014415 21.614845 28.085671 20.681059 28.074219 19.710938 C 28.063159 20.533184 27.99063 21.308464 27.84375 21.876953 C 27.49335 23.225453 26.620069 24.872871 25.917969 25.519531 C 24.989969 26.371481 23.994484 26.758779 22.621094 26.824219 C 21.698224 26.869119 21.33737 26.853931 20.625 26.619141 C 18.80493 26.012251 16.552352 24.273493 15.263672 22.564453 C 13.428192 20.143323 11.602649 15.215345 11.136719 11.296875 C 11.046919 10.539865 10.922388 9.8544925 10.867188 9.7890625 C 10.826435 9.74207 10.769776 9.7248099 10.703125 9.734375 z M 38.917969 11.910156 C 38.812719 11.870356 37.774724 11.986611 36.646484 12.181641 C 35.397594 12.402321 33.632945 12.583289 32.109375 12.667969 C 29.447295 12.802689 28.108833 13.058913 26.539062 13.695312 C 25.084803 14.291933 24.237262 14.767403 23.445312 15.414062 C 22.732942 15.995293 22.638019 16.071677 22.412109 16.998047 C 22.096359 18.275977 21.901306 18.843642 21.378906 19.539062 C 21.070976 19.937699 20.772361 20.17305 20.660156 20.123047 C 20.642363 20.225918 20.614151 20.352249 20.611328 20.419922 C 20.606188 20.695782 20.987416 20.446263 21.378906 19.939453 C 21.901306 19.244033 22.096359 18.676367 22.412109 17.398438 C 22.638019 16.472067 22.732942 16.395683 23.445312 15.814453 C 24.237262 15.167793 25.084803 14.692323 26.539062 14.095703 C 28.108833 13.459303 29.447295 13.203079 32.109375 13.068359 C 33.632945 12.983679 35.397594 12.802711 36.646484 12.582031 C 37.774724 12.387001 38.812719 12.270747 38.917969 12.310547 C 39.263591 12.442382 39.361305 13.008969 39.388672 17.912109 C 39.363627 12.724485 39.270696 12.044701 38.917969 11.910156 z M 25.6875 15.634766 C 25.669147 15.962737 25.620028 16.421063 25.494141 17.34375 C 25.193791 19.51341 24.416738 21.249176 23.429688 22.291016 C 22.732728 23.027496 21.97916 23.224091 21.4375 22.837891 C 21.194142 22.670254 20.913152 22.174238 20.804688 21.796875 C 20.768602 21.80966 20.751953 21.85156 20.751953 21.933594 C 20.751953 22.290284 21.13202 23.025898 21.4375 23.236328 C 21.97916 23.622528 22.732728 23.427886 23.429688 22.691406 C 24.416738 21.649566 25.193791 19.913801 25.494141 17.744141 C 25.682362 16.364579 25.73163 15.847803 25.6875 15.634766 z M 28.611328 16.232422 C 28.585658 16.261932 28.836377 16.684652 29.091797 17.195312 C 29.782567 18.54669 30.038606 19.923153 30.052734 21.611328 C 30.053805 21.539953 30.060407 21.475102 30.060547 21.402344 C 30.065547 19.622734 29.809297 18.198592 29.091797 16.794922 C 29.01487 16.641122 28.951574 16.525916 28.882812 16.396484 C 28.748005 16.277421 28.643038 16.200726 28.611328 16.232422 z M 32.222656 23.773438 C 32.214231 26.978857 30.517552 29.89264 27.03125 32.800781 C 24.70417 34.740761 20.673727 37.407862 18.367188 38.570312 C 17.559838 38.975762 17.409135 39.127965 17.609375 39.328125 C 17.610607 39.329355 17.734248 39.330814 17.740234 39.332031 C 17.874121 39.23485 18.061123 39.124408 18.367188 38.970703 C 20.673727 37.808253 24.70417 35.141152 27.03125 33.201172 C 30.662084 30.172468 32.360526 27.13749 32.222656 23.773438 z "
       transform="translate(384.57143,499.798)"
       id="path4255" />
  </g>
</svg>
