<?xml version="1.0" encoding="UTF-8" standalone="no"?>
<!-- Created with Inkscape (http://www.inkscape.org/) -->

<svg
   xmlns:dc="http://purl.org/dc/elements/1.1/"
   xmlns:cc="http://creativecommons.org/ns#"
   xmlns:rdf="http://www.w3.org/1999/02/22-rdf-syntax-ns#"
   xmlns:svg="http://www.w3.org/2000/svg"
   xmlns="http://www.w3.org/2000/svg"
   xmlns:xlink="http://www.w3.org/1999/xlink"
   xmlns:sodipodi="http://sodipodi.sourceforge.net/DTD/sodipodi-0.dtd"
   xmlns:inkscape="http://www.inkscape.org/namespaces/inkscape"
   width="48"
   height="48"
   id="svg5453"
   version="1.1"
   inkscape:version="0.91pre2 r"
   sodipodi:docname="distributor-logo-lfs.svg">
  <defs
     id="defs5455">
    <filter
       id="filter3174"
       color-interpolation-filters="sRGB">
      <feGaussianBlur
         stdDeviation="1.71"
         id="feGaussianBlur3176" />
    </filter>
    <linearGradient
       gradientUnits="userSpaceOnUse"
       y2="-499.80991"
       x2="408.72192"
       y1="-547.79987"
       x1="408.72192"
       id="linearGradient4612-7"
       xlink:href="#linearGradient4252-2"
       inkscape:collect="always"
       gradientTransform="translate(-5.8251953e-6,-1.8183594e-5)" />
    <linearGradient
       inkscape:collect="always"
       id="linearGradient4079">
      <stop
         style="stop-color:#d8dce0;stop-opacity:1"
         offset="0"
         id="stop4081" />
      <stop
         style="stop-color:#f9fafb;stop-opacity:1"
         offset="1"
         id="stop4083" />
    </linearGradient>
    <linearGradient
       id="linearGradient4252-2"
       inkscape:collect="always">
      <stop
         id="stop4254-0"
         offset="0"
         style="stop-color:#2d3238;stop-opacity:1" />
      <stop
         id="stop4256-7"
         offset="1"
         style="stop-color:#5c6373;stop-opacity:1" />
    </linearGradient>
    <linearGradient
       inkscape:collect="always"
       xlink:href="#linearGradient4079"
       id="linearGradient4512"
       x1="23"
       y1="38.999973"
       x2="23"
       y2="9"
       gradientUnits="userSpaceOnUse" />
  </defs>
  <sodipodi:namedview
     id="base"
     pagecolor="#ffffff"
     bordercolor="#666666"
     borderopacity="1.0"
     inkscape:pageopacity="0"
     inkscape:pageshadow="2"
     inkscape:zoom="7.0746831"
     inkscape:cx="21.194433"
     inkscape:cy="28.515114"
     inkscape:document-units="px"
     inkscape:current-layer="layer1"
     showgrid="true"
     fit-margin-top="0"
     fit-margin-left="0"
     fit-margin-right="0"
     fit-margin-bottom="0"
     inkscape:window-width="1366"
     inkscape:window-height="672"
     inkscape:window-x="-4"
     inkscape:window-y="25"
     inkscape:window-maximized="1">
    <inkscape:grid
       type="xygrid"
       id="grid4221" />
    <sodipodi:guide
       position="9.0000117,9.0000264"
       orientation="-30,0"
       id="guide4237" />
    <sodipodi:guide
       position="9.0000117,39.000026"
       orientation="0,30"
       id="guide4239" />
    <sodipodi:guide
       position="39.000012,39.000026"
       orientation="30,0"
       id="guide4241" />
    <sodipodi:guide
       position="30,9.0000264"
       orientation="0,-30"
       id="guide4243" />
  </sodipodi:namedview>
  <metadata
     id="metadata5458">
    <rdf:RDF>
      <cc:Work
         rdf:about="">
        <dc:format>image/svg+xml</dc:format>
        <dc:type
           rdf:resource="http://purl.org/dc/dcmitype/StillImage" />
        <dc:title />
      </cc:Work>
    </rdf:RDF>
  </metadata>
  <g
     inkscape:label="Capa 1"
     inkscape:groupmode="layer"
     id="layer1"
     transform="translate(-384.57143,-499.798)">
    <g
       id="layer2"
       style="display:none"
       transform="translate(259.84683,475.07301)">
      <rect
         width="86"
         height="85"
         rx="6"
         ry="6"
         x="5"
         y="7"
         id="rect3745"
         style="opacity:0.9;fill:url(#ButtonShadow);fill-opacity:1;fill-rule:nonzero;stroke:none;filter:url(#filter3174)" />
    </g>
    <rect
       style="fill:url(#linearGradient4612-7);fill-opacity:1.0;stroke:none"
       id="rect2991-1-7"
       width="48"
       height="48"
       x="384.57144"
       y="-547.79797"
       ry="1.9445436"
       transform="scale(1,-1)" />
    <path
       id="path4520"
       d="m 408.57534,509.99795 c -4.98383,0 -8.9961,4.014 -8.9961,9 l 0,5 0,1 0,6 0,1 -0.008,1.02148 c -10e-6,-1.02118 1.02148,-1.02148 1.02148,-1.02148 l 1.98438,0 c 2.99869,0 3,-1.784 3,-4 l 0,-4 0,-3 0,-2.03711 c 0.0414,-0.93525 0.95708,-0.96049 0.99805,-0.96094 l 0,3.99805 0,3 0,4 c 0,2 -0.99892,4 -2.99805,4 l -3.99805,0 0,3.93945 c -10e-4,0.0219 -0.008,0.0376 -0.008,0.0606 0,1 -3,2 -3,2 0,0 -1,0.44175 -1,1 l 4.00781,0 0.99219,0 8,0 0.004,0 6.99609,0 c 0,-0.55825 -1,-1 -1,-1 0,0 -0.4318,-0.257 -1.00391,-0.61133 l 0,-1.36523 0,-15 c 0,-1.02344 1.50391,-4 3.49805,-4 l 0.50586,0 0,-4.02344 c 0,-1 3,-3 3,-3 0,0 1,-0.44175 1,-1 l -4,0 -1,0 -7.99609,0 z m 3.49804,3 c 0.83064,0 1.5,0.669 1.5,1.5 0,0.831 -0.66936,1.5 -1.5,1.5 -0.83063,0 -1.49804,-0.669 -1.49804,-1.5 0,-0.831 0.66741,-1.5 1.49804,-1.5 z m 5.49219,6.02344 c -2.99869,0 -3,4 -3,4 l 0,14.6875 c 1.84233,-1.64579 3.00586,-4.03415 3.00586,-6.71094 l 0,-6 0,-1 0,-4.97656 -0.006,0 z"
       style="color:#000000;text-decoration:none;text-decoration-line:none;text-decoration-style:solid;text-decoration-color:#000000;white-space:normal;clip-rule:nonzero;display:inline;overflow:visible;visibility:visible;opacity:1;isolation:auto;mix-blend-mode:normal;color-interpolation:sRGB;color-interpolation-filters:linearRGB;solid-color:#000000;solid-opacity:1;fill:#000000;fill-opacity:0.05882353;fill-rule:nonzero;stroke:none;stroke-width:1;stroke-linecap:butt;stroke-linejoin:miter;stroke-miterlimit:4;stroke-dasharray:none;stroke-dashoffset:0;stroke-opacity:1;color-rendering:auto;image-rendering:auto;shape-rendering:auto;text-rendering:auto;enable-background:accumulate"
       inkscape:connector-curvature="0" />
    <path
       inkscape:connector-curvature="0"
       style="color:#000000;text-decoration:none;text-decoration-line:none;text-decoration-style:solid;text-decoration-color:#000000;white-space:normal;clip-rule:nonzero;display:inline;overflow:visible;visibility:visible;opacity:1;isolation:auto;mix-blend-mode:normal;color-interpolation:sRGB;color-interpolation-filters:linearRGB;solid-color:#000000;solid-opacity:1;fill:#000000;fill-opacity:0.11764706;fill-rule:nonzero;stroke:none;stroke-width:1;stroke-linecap:butt;stroke-linejoin:miter;stroke-miterlimit:4;stroke-dasharray:none;stroke-dashoffset:0;stroke-opacity:1;color-rendering:auto;image-rendering:auto;shape-rendering:auto;text-rendering:auto;enable-background:accumulate"
       d="m 408.57534,509.59795 c -4.98383,0 -8.9961,4.014 -8.9961,9 l 0,5 0,1 0,6 0,1 -0.008,1.02148 c -10e-6,-1.02118 1.02148,-1.02148 1.02148,-1.02148 l 1.98438,0 c 2.99869,0 3,-1.784 3,-4 l 0,-4 0,-3 0,-2.03711 c 0.0414,-0.93525 0.95708,-0.96049 0.99805,-0.96094 l 0,3.99805 0,3 0,4 c 0,2 -0.99892,4 -2.99805,4 l -3.99805,0 0,3.93945 c -10e-4,0.0219 -0.008,0.0376 -0.008,0.0606 0,1 -3,2 -3,2 0,0 -1,0.44175 -1,1 l 4.00781,0 0.99219,0 8,0 0.004,0 6.99609,0 c 0,-0.55825 -1,-1 -1,-1 0,0 -0.4318,-0.257 -1.00391,-0.61133 l 0,-1.36523 0,-15 c 0,-1.02344 1.50391,-4 3.49805,-4 l 0.50586,0 0,-4.02344 c 0,-1 3,-3 3,-3 0,0 1,-0.44175 1,-1 l -4,0 -1,0 -7.99609,0 z m 3.49804,3 c 0.83064,0 1.5,0.669 1.5,1.5 0,0.831 -0.66936,1.5 -1.5,1.5 -0.83063,0 -1.49804,-0.669 -1.49804,-1.5 0,-0.831 0.66741,-1.5 1.49804,-1.5 z m 5.49219,6.02344 c -2.99869,0 -3,4 -3,4 l 0,14.6875 c 1.84233,-1.64579 3.00586,-4.03415 3.00586,-6.71094 l 0,-6 0,-1 0,-4.97656 -0.006,0 z"
       id="path4518" />
    <path
       id="path4514"
       d="m 408.57534,509.19795 c -4.98383,0 -8.9961,4.014 -8.9961,9 l 0,5 0,1 0,6 0,1 -0.008,1.02148 c -10e-6,-1.02118 1.02148,-1.02148 1.02148,-1.02148 l 1.98438,0 c 2.99869,0 3,-1.784 3,-4 l 0,-4 0,-3 0,-2.03711 c 0.0414,-0.93525 0.95708,-0.96049 0.99805,-0.96094 l 0,3.99805 0,3 0,4 c 0,2 -0.99892,4 -2.99805,4 l -3.99805,0 0,3.93945 c -10e-4,0.0219 -0.008,0.0376 -0.008,0.0606 0,1 -3,2 -3,2 0,0 -1,0.44175 -1,1 l 4.00781,0 0.99219,0 8,0 0.004,0 6.99609,0 c 0,-0.55825 -1,-1 -1,-1 0,0 -0.4318,-0.257 -1.00391,-0.61133 l 0,-1.36523 0,-15 c 0,-1.02344 1.50391,-4 3.49805,-4 l 0.50586,0 0,-4.02344 c 0,-1 3,-3 3,-3 0,0 1,-0.44175 1,-1 l -4,0 -1,0 -7.99609,0 z m 3.49804,3 c 0.83064,0 1.5,0.669 1.5,1.5 0,0.831 -0.66936,1.5 -1.5,1.5 -0.83063,0 -1.49804,-0.669 -1.49804,-1.5 0,-0.831 0.66741,-1.5 1.49804,-1.5 z m 5.49219,6.02344 c -2.99869,0 -3,4 -3,4 l 0,14.6875 c 1.84233,-1.64579 3.00586,-4.03415 3.00586,-6.71094 l 0,-6 0,-1 0,-4.97656 -0.006,0 z"
       style="color:#000000;text-decoration:none;text-decoration-line:none;text-decoration-style:solid;text-decoration-color:#000000;white-space:normal;clip-rule:nonzero;display:inline;overflow:visible;visibility:visible;opacity:1;isolation:auto;mix-blend-mode:normal;color-interpolation:sRGB;color-interpolation-filters:linearRGB;solid-color:#000000;solid-opacity:1;fill:#000000;fill-opacity:0.23529412;fill-rule:nonzero;stroke:none;stroke-width:1;stroke-linecap:butt;stroke-linejoin:miter;stroke-miterlimit:4;stroke-dasharray:none;stroke-dashoffset:0;stroke-opacity:1;color-rendering:auto;image-rendering:auto;shape-rendering:auto;text-rendering:auto;enable-background:accumulate"
       inkscape:connector-curvature="0" />
    <path
       inkscape:connector-curvature="0"
       style="fill:#000000;fill-opacity:1;stroke:none"
       d="m 384.57142,544.79801 0,1.0625 c 0,1.0773 0.86022,1.9375 1.9375,1.9375 l 44.125,0 c 1.07728,0 1.9375,-0.8602 1.9375,-1.9375 l 0,-1.0625 c 0,1.0773 -0.86022,1.9375 -1.9375,1.9375 l -44.125,0 c -1.07728,0 -1.9375,-0.8602 -1.9375,-1.9375 z"
       id="rect846" />
    <path
       inkscape:connector-curvature="0"
       style="fill:#ffffff;fill-opacity:0.5372549;stroke:none"
       d="m 387.10267,500.45431 c -0.91709,0 -1.67115,0.6395 -1.84375,1.5 0.33561,-0.2799 0.77451,-0.4375 1.25,-0.4375 l 44.125,0 c 0.47549,0 0.91439,0.1576 1.25,0.4375 -0.1726,-0.8605 -0.92666,-1.5 -1.84375,-1.5 l -42.9375,0 z"
       id="path7515" />
    <path
       inkscape:connector-curvature="0"
       style="fill:#000000;fill-opacity:0.39215686;stroke:none"
       d="m 386.50892,499.79801 c -1.07728,0 -1.9375,0.8602 -1.9375,1.9375 l 0,43.0625 c 0,0.7934 0.48002,1.449 1.15625,1.75 -0.30934,-0.3333 -0.5,-0.7824 -0.5,-1.2812 l 0,-42.9375 c 0,-1.0482 0.8269,-1.875 1.875,-1.875 l 42.9375,0 c 1.0481,0 1.875,0.8268 1.875,1.875 l 0,42.9375 c 0,0.4988 -0.19066,0.9479 -0.5,1.2812 0.67623,-0.301 1.15625,-0.9566 1.15625,-1.75 l 0,-43.0625 c 0,-1.0773 -0.86022,-1.9375 -1.9375,-1.9375 l -44.125,0 z"
       id="rect4280" />
    <path
       style="color:#000000;text-decoration:none;text-decoration-line:none;text-decoration-style:solid;text-decoration-color:#000000;white-space:normal;clip-rule:nonzero;display:inline;overflow:visible;visibility:visible;opacity:1;isolation:auto;mix-blend-mode:normal;color-interpolation:sRGB;color-interpolation-filters:linearRGB;solid-color:#000000;solid-opacity:1;fill:url(#linearGradient4512);fill-opacity:1;fill-rule:nonzero;stroke:none;stroke-width:1;stroke-linecap:butt;stroke-linejoin:miter;stroke-miterlimit:4;stroke-dasharray:none;stroke-dashoffset:0;stroke-opacity:1;color-rendering:auto;image-rendering:auto;shape-rendering:auto;text-rendering:auto;enable-background:accumulate"
       d="M 24.003906 9 C 19.020076 9 15.007812 13.014 15.007812 18 L 15.007812 23 L 15.007812 24 L 15.007812 30 L 15.007812 31 L 15 32.021484 C 14.99999 31.000304 16.021484 31 16.021484 31 L 18.005859 31 C 21.004549 31 21.005859 29.216 21.005859 27 L 21.005859 23 L 21.005859 20 L 21.005859 17.962891 C 21.047259 17.027641 21.962936 17.002403 22.003906 17.001953 L 22.003906 21 L 22.003906 24 L 22.003906 28 C 22.003906 30 21.004989 32 19.005859 32 L 15.007812 32 L 15.007812 35.939453 C 15.006785 35.96134 15 35.977074 15 36 C 15 37 12 38 12 38 C 12 38 11 38.44175 11 39 L 15.007812 39 L 16 39 L 24 39 L 24.003906 39 L 31 39 C 31 38.44175 30 38 30 38 C 30 38 29.568198 37.743 28.996094 37.388672 L 28.996094 36.023438 L 28.996094 21.023438 C 28.996094 20 30.5 17.023438 32.494141 17.023438 L 33 17.023438 L 33 13 C 33 12 36 10 36 10 C 36 10 37 9.55825 37 9 L 33 9 L 32 9 L 24.003906 9 z M 27.501953 12 C 28.332593 12 29.001953 12.669 29.001953 13.5 C 29.001953 14.331 28.332593 15 27.501953 15 C 26.671323 15 26.003906 14.331 26.003906 13.5 C 26.003906 12.669 26.671323 12 27.501953 12 z M 32.994141 18.023438 C 29.995451 18.023438 29.994141 22.023438 29.994141 22.023438 L 29.994141 36.710938 C 31.836466 35.065148 33 32.676786 33 30 L 33 24 L 33 23 L 33 18.023438 L 32.994141 18.023438 z "
       transform="translate(384.57143,499.798)"
       id="rect4327" />
    <path
       style="color:#000000;text-decoration:none;text-decoration-line:none;text-decoration-style:solid;text-decoration-color:#000000;white-space:normal;clip-rule:nonzero;display:inline;overflow:visible;visibility:visible;opacity:1;isolation:auto;mix-blend-mode:normal;color-interpolation:sRGB;color-interpolation-filters:linearRGB;solid-color:#000000;solid-opacity:1;fill:#31363c;fill-opacity:0.3137255;fill-rule:nonzero;stroke:none;stroke-width:1;stroke-linecap:butt;stroke-linejoin:miter;stroke-miterlimit:4;stroke-dasharray:none;stroke-dashoffset:0;stroke-opacity:1;color-rendering:auto;image-rendering:auto;shape-rendering:auto;text-rendering:auto;enable-background:accumulate"
       d="M 36.34375 9 C 36.188519 9.0912908 36 9.1992188 36 9.1992188 C 36 9.1992188 33 11.199219 33 12.199219 L 33 13 C 33 12 36 10 36 10 C 36 10 37 9.55825 37 9 L 36.34375 9 z M 27.501953 11.199219 C 26.671333 11.199219 26.003906 11.868219 26.003906 12.699219 C 26.003906 12.839105 26.029034 12.973275 26.064453 13.101562 C 26.238842 12.466825 26.810488 12 27.501953 12 C 28.194086 12 28.767172 12.467847 28.941406 13.103516 C 28.977306 12.974584 29.001953 12.839896 29.001953 12.699219 C 29.001953 11.868219 28.332593 11.199219 27.501953 11.199219 z M 22.003906 16.201172 C 21.962936 16.201622 21.047259 16.226859 21.005859 17.162109 L 21.005859 17.962891 C 21.047259 17.027641 21.962936 17.002403 22.003906 17.001953 L 22.003906 16.201172 z M 32.494141 16.222656 C 30.500001 16.222656 28.996094 19.199216 28.996094 20.222656 L 28.996094 21.023438 C 28.996094 20 30.5 17.023438 32.494141 17.023438 L 33 17.023438 L 33 16.222656 L 32.494141 16.222656 z M 21.005859 26.199219 C 21.005859 28.415219 21.004539 30.199219 18.005859 30.199219 L 16.021484 30.199219 C 16.021484 30.199219 15.041569 30.205243 15.005859 31.171875 L 15 32.021484 C 15 31.998606 15.00681 31.982803 15.007812 31.960938 L 15.007812 31.199219 L 15.400391 31.199219 C 15.68683 31.00695 16.021484 31 16.021484 31 L 18.005859 31 C 21.004549 31 21.005859 29.216 21.005859 27 L 21.005859 26.199219 z M 33 29.199219 C 33 31.875999 31.836471 34.264376 29.994141 35.910156 L 29.994141 36.710938 C 31.836466 35.065148 33 32.676786 33 30 L 33 29.199219 z M 11.658203 38.199219 C 11.362053 38.372992 11 38.632627 11 39 L 15.007812 39 L 16 39 L 24 39 L 24.003906 39 L 31 39 C 31 38.632627 30.637947 38.372992 30.341797 38.199219 L 24.003906 38.199219 L 24 38.199219 L 16 38.199219 L 15.007812 38.199219 L 11.658203 38.199219 z "
       transform="translate(384.57143,499.798)"
       id="path4522" />
    <path
       style="color:#000000;text-decoration:none;text-decoration-line:none;text-decoration-style:solid;text-decoration-color:#000000;white-space:normal;clip-rule:nonzero;display:inline;overflow:visible;visibility:visible;opacity:1;isolation:auto;mix-blend-mode:normal;color-interpolation:sRGB;color-interpolation-filters:linearRGB;solid-color:#000000;solid-opacity:1;fill:#ffffff;fill-opacity:0.23529412;fill-rule:nonzero;stroke:none;stroke-width:1;stroke-linecap:butt;stroke-linejoin:miter;stroke-miterlimit:4;stroke-dasharray:none;stroke-dashoffset:0;stroke-opacity:1;color-rendering:auto;image-rendering:auto;shape-rendering:auto;text-rendering:auto;enable-background:accumulate"
       d="M 24.003906 9 C 19.020076 9 15.007813 13.014 15.007812 18 L 15.007812 18.400391 C 15.007812 13.414391 19.020076 9.4003906 24.003906 9.4003906 L 32 9.4003906 L 33 9.4003906 L 36.835938 9.4003906 C 36.933396 9.2782402 37 9.1428601 37 9 L 33 9 L 32 9 L 24.003906 9 z M 26.025391 13.699219 C 26.016463 13.765743 26.003906 13.831339 26.003906 13.900391 C 26.003906 14.731391 26.671323 15.400391 27.501953 15.400391 C 28.332593 15.400391 29.001953 14.731391 29.001953 13.900391 C 29.001953 13.831339 28.989421 13.765743 28.980469 13.699219 C 28.882521 14.434209 28.264234 15 27.501953 15 C 26.739681 15 26.123069 14.434209 26.025391 13.699219 z M 32.994141 18.023438 C 29.995451 18.023438 29.994141 22.023438 29.994141 22.023438 L 29.994141 22.423828 C 29.994141 22.423828 29.995451 18.423828 32.994141 18.423828 L 33 18.423828 L 33 18.023438 L 32.994141 18.023438 z M 22.003906 28 C 22.003906 30 21.004989 32 19.005859 32 L 15.082031 32 C 15.041098 32.102316 15.014266 32.220535 15.007812 32.361328 L 15.007812 32.400391 L 19.005859 32.400391 C 21.004989 32.400391 22.003906 30.400391 22.003906 28.400391 L 22.003906 28 z M 15.007812 31 L 15 32.021484 C 15 32.01186 15.003727 32.005537 15.003906 31.996094 L 15.007812 31.400391 L 15.007812 31 z M 15.007812 35.939453 C 15.006786 35.96134 15 35.977074 15 36 C 15 37 12 38 12 38 C 12 38 11 38.44175 11 39 L 11.164062 39 C 11.447441 38.644827 12 38.400391 12 38.400391 C 12 38.400391 15 37.400391 15 36.400391 C 15 36.377391 15.006813 36.361744 15.007812 36.339844 L 15.007812 35.939453 z M 28.996094 37.388672 L 28.996094 37.789062 C 29.568204 38.143393 30 38.400391 30 38.400391 C 30 38.400391 30.552559 38.644827 30.835938 39 L 31 39 C 31 38.44175 30 38 30 38 C 30 38 29.568198 37.743 28.996094 37.388672 z "
       transform="translate(384.57143,499.798)"
       id="path4527" />
  </g>
</svg>
