<?xml version="1.0" encoding="UTF-8" standalone="no"?>
<!-- Created with Inkscape (http://www.inkscape.org/) -->

<svg
   xmlns:dc="http://purl.org/dc/elements/1.1/"
   xmlns:cc="http://creativecommons.org/ns#"
   xmlns:rdf="http://www.w3.org/1999/02/22-rdf-syntax-ns#"
   xmlns:svg="http://www.w3.org/2000/svg"
   xmlns="http://www.w3.org/2000/svg"
   xmlns:xlink="http://www.w3.org/1999/xlink"
   xmlns:sodipodi="http://sodipodi.sourceforge.net/DTD/sodipodi-0.dtd"
   xmlns:inkscape="http://www.inkscape.org/namespaces/inkscape"
   width="48"
   height="48"
   id="svg5453"
   version="1.1"
   inkscape:version="0.91pre2 r"
   sodipodi:docname="distributor-logo-mageia.svg">
  <defs
     id="defs5455">
    <linearGradient
       inkscape:collect="always"
       id="linearGradient4254">
      <stop
         style="stop-color:#d2d8e6;stop-opacity:1"
         offset="0"
         id="stop4256" />
      <stop
         style="stop-color:#f9f9fb;stop-opacity:1"
         offset="1"
         id="stop4258" />
    </linearGradient>
    <filter
       id="filter3174"
       color-interpolation-filters="sRGB">
      <feGaussianBlur
         stdDeviation="1.71"
         id="feGaussianBlur3176" />
    </filter>
    <linearGradient
       gradientUnits="userSpaceOnUse"
       y2="-499.80991"
       x2="408.72192"
       y1="-547.79987"
       x1="408.72192"
       id="linearGradient4612-7"
       xlink:href="#linearGradient4252-2"
       inkscape:collect="always"
       gradientTransform="translate(-5.8251953e-6,-1.8183594e-5)" />
    <linearGradient
       id="linearGradient4252-2"
       inkscape:collect="always">
      <stop
         id="stop4254-0"
         offset="0"
         style="stop-color:#262f45;stop-opacity:1" />
      <stop
         id="stop4256-7"
         offset="1"
         style="stop-color:#313d59;stop-opacity:1" />
    </linearGradient>
    <linearGradient
       inkscape:collect="always"
       xlink:href="#linearGradient4254"
       id="linearGradient4252"
       x1="410.57144"
       y1="538.79797"
       x2="410.57144"
       y2="507.798"
       gradientUnits="userSpaceOnUse" />
  </defs>
  <sodipodi:namedview
     id="base"
     pagecolor="#ffffff"
     bordercolor="#666666"
     borderopacity="1.0"
     inkscape:pageopacity="0"
     inkscape:pageshadow="2"
     inkscape:zoom="3.6478835"
     inkscape:cx="52.859692"
     inkscape:cy="28.578226"
     inkscape:document-units="px"
     inkscape:current-layer="layer1"
     showgrid="true"
     fit-margin-top="0"
     fit-margin-left="0"
     fit-margin-right="0"
     fit-margin-bottom="0"
     inkscape:window-width="1366"
     inkscape:window-height="672"
     inkscape:window-x="-4"
     inkscape:window-y="25"
     inkscape:window-maximized="1">
    <inkscape:grid
       type="xygrid"
       id="grid4221" />
    <sodipodi:guide
       position="9.0000117,9.0000264"
       orientation="-30,0"
       id="guide4237" />
    <sodipodi:guide
       position="9.0000117,39.000026"
       orientation="0,30"
       id="guide4239" />
    <sodipodi:guide
       position="39.000012,39.000026"
       orientation="30,0"
       id="guide4241" />
    <sodipodi:guide
       position="30,9.0000264"
       orientation="0,-30"
       id="guide4243" />
  </sodipodi:namedview>
  <metadata
     id="metadata5458">
    <rdf:RDF>
      <cc:Work
         rdf:about="">
        <dc:format>image/svg+xml</dc:format>
        <dc:type
           rdf:resource="http://purl.org/dc/dcmitype/StillImage" />
        <dc:title />
      </cc:Work>
    </rdf:RDF>
  </metadata>
  <g
     inkscape:label="Capa 1"
     inkscape:groupmode="layer"
     id="layer1"
     transform="translate(-384.57143,-499.798)">
    <g
       id="layer2"
       style="display:none"
       transform="translate(259.84683,475.07301)">
      <rect
         width="86"
         height="85"
         rx="6"
         ry="6"
         x="5"
         y="7"
         id="rect3745"
         style="opacity:0.9;fill:url(#ButtonShadow);fill-opacity:1;fill-rule:nonzero;stroke:none;filter:url(#filter3174)" />
    </g>
    <rect
       style="fill:url(#linearGradient4612-7);fill-opacity:1.0;stroke:none"
       id="rect2991-1-7"
       width="48"
       height="48"
       x="384.57144"
       y="-547.79797"
       ry="1.9445436"
       transform="scale(1,-1)" />
    <path
       inkscape:connector-curvature="0"
       style="fill:#000000;fill-opacity:1;stroke:none"
       d="m 384.57142,544.79801 0,1.0625 c 0,1.0773 0.86022,1.9375 1.9375,1.9375 l 44.125,0 c 1.07728,0 1.9375,-0.8602 1.9375,-1.9375 l 0,-1.0625 c 0,1.0773 -0.86022,1.9375 -1.9375,1.9375 l -44.125,0 c -1.07728,0 -1.9375,-0.8602 -1.9375,-1.9375 z"
       id="rect846" />
    <path
       inkscape:connector-curvature="0"
       style="fill:#ffffff;fill-opacity:0.5372549;stroke:none"
       d="m 387.10267,500.45431 c -0.91709,0 -1.67115,0.6395 -1.84375,1.5 0.33561,-0.2799 0.77451,-0.4375 1.25,-0.4375 l 44.125,0 c 0.47549,0 0.91439,0.1576 1.25,0.4375 -0.1726,-0.8605 -0.92666,-1.5 -1.84375,-1.5 l -42.9375,0 z"
       id="path7515" />
    <path
       inkscape:connector-curvature="0"
       style="fill:#000000;fill-opacity:0.39215686;stroke:none"
       d="m 386.50892,499.79801 c -1.07728,0 -1.9375,0.8602 -1.9375,1.9375 l 0,43.0625 c 0,0.7934 0.48002,1.449 1.15625,1.75 -0.30934,-0.3333 -0.5,-0.7824 -0.5,-1.2812 l 0,-42.9375 c 0,-1.0482 0.8269,-1.875 1.875,-1.875 l 42.9375,0 c 1.0481,0 1.875,0.8268 1.875,1.875 l 0,42.9375 c 0,0.4988 -0.19066,0.9479 -0.5,1.2812 0.67623,-0.301 1.15625,-0.9566 1.15625,-1.75 l 0,-43.0625 c 0,-1.0773 -0.86022,-1.9375 -1.9375,-1.9375 l -44.125,0 z"
       id="rect4280" />
    <path
       inkscape:connector-curvature="0"
       id="path4266"
       d="m 407.7604,509.598 a 1.162825,1.162825 0 0 0 -1.16311,1.16311 1.162825,1.162825 0 0 0 1.16311,1.16312 1.162825,1.162825 0 0 0 1.16199,-1.16312 1.162825,1.162825 0 0 0 -1.16199,-1.16311 z m 2.84816,2.20924 a 1.3372488,1.3372488 0 0 0 -1.33746,1.33747 1.3372488,1.3372488 0 0 0 1.33746,1.33746 1.3372488,1.3372488 0 0 0 1.33747,-1.33746 1.3372488,1.3372488 0 0 0 -1.33747,-1.33747 z m -2.3251,2.32623 a 1.4535313,1.4535313 0 0 0 -1.45333,1.45332 1.4535313,1.4535313 0 0 0 1.45333,1.45333 1.4535313,1.4535313 0 0 0 1.45333,-1.45333 1.4535313,1.4535313 0 0 0 -1.45333,-1.45332 z m 2.79192,2.84591 c -0.89774,7.4e-4 -1.62771,0.7312 -1.62656,1.62993 6e-4,0.89637 0.73054,1.62656 1.62769,1.62656 l 0.001,0 10e-4,0 c 0.89759,-8.8e-4 1.62543,-0.73232 1.62543,-1.63106 -8.9e-4,-0.89637 -0.73047,-1.62543 -1.62881,-1.62543 z m -4.71207,1.04613 c -0.96165,10e-4 -1.74357,0.78359 -1.74242,1.74692 0.001,0.96012 0.78276,1.74242 1.74355,1.74242 l 10e-4,0 0.001,0 c 0.96165,-10e-4 1.74242,-0.7836 1.74242,-1.74692 -10e-4,-0.96012 -0.78356,-1.74242 -1.7458,-1.74242 z m -3.7818,4.60745 c -0.39085,0.007 -0.77731,0.14055 -1.07538,0.45333 -1.50468,1.95032 -2.72555,4.14346 -2.72555,6.80095 0,5.76023 4.3711,10.51076 9.79085,10.51076 5.41958,0 9.79085,-4.75051 9.79085,-10.51076 0,-2.65801 -1.22242,-4.78146 -2.81217,-6.80095 -0.59613,-0.62556 -1.45673,-0.53302 -2.08326,-0.13274 -1.83333,0.94864 -2.82283,1.32763 -4.89542,1.31835 -2.00453,-0.009 -3.05749,-0.33691 -4.89093,-1.33635 -0.31326,-0.19144 -0.70815,-0.30967 -1.09899,-0.30259 z m 0.2306,2.07089 c 1.90032,1.05072 3.59513,1.58381 5.75932,1.58381 2.16602,0 3.85802,-0.5331 5.75932,-1.58381 1.03747,1.46284 2.01576,3.27675 2.01576,5.18339 0,4.72282 -3.48083,8.495 -7.77508,8.495 -4.29446,0 -7.91907,-3.77215 -7.91907,-8.495 0,-1.90413 1.12001,-3.7194 2.15975,-5.18339 z"
       style="fill:#000000;fill-opacity:0.05882353" />
    <path
       style="fill:#000000;fill-opacity:0.11764706"
       d="m 407.7604,509.198 a 1.162825,1.162825 0 0 0 -1.16311,1.16311 1.162825,1.162825 0 0 0 1.16311,1.16312 1.162825,1.162825 0 0 0 1.16199,-1.16312 1.162825,1.162825 0 0 0 -1.16199,-1.16311 z m 2.84816,2.20924 a 1.3372488,1.3372488 0 0 0 -1.33746,1.33747 1.3372488,1.3372488 0 0 0 1.33746,1.33746 1.3372488,1.3372488 0 0 0 1.33747,-1.33746 1.3372488,1.3372488 0 0 0 -1.33747,-1.33747 z m -2.3251,2.32623 a 1.4535313,1.4535313 0 0 0 -1.45333,1.45332 1.4535313,1.4535313 0 0 0 1.45333,1.45333 1.4535313,1.4535313 0 0 0 1.45333,-1.45333 1.4535313,1.4535313 0 0 0 -1.45333,-1.45332 z m 2.79192,2.84591 c -0.89774,7.4e-4 -1.62771,0.7312 -1.62656,1.62993 6e-4,0.89637 0.73054,1.62656 1.62769,1.62656 l 0.001,0 10e-4,0 c 0.89759,-8.8e-4 1.62543,-0.73232 1.62543,-1.63106 -8.9e-4,-0.89637 -0.73047,-1.62543 -1.62881,-1.62543 z m -4.71207,1.04613 c -0.96165,0.001 -1.74357,0.78359 -1.74242,1.74692 0.001,0.96012 0.78276,1.74242 1.74355,1.74242 l 10e-4,0 0.001,0 c 0.96165,-0.001 1.74242,-0.7836 1.74242,-1.74692 -10e-4,-0.96012 -0.78356,-1.74242 -1.7458,-1.74242 z m -3.7818,4.60745 c -0.39085,0.007 -0.77731,0.14055 -1.07538,0.45333 -1.50468,1.95032 -2.72555,4.14346 -2.72555,6.80095 0,5.76023 4.3711,10.51076 9.79085,10.51076 5.41958,0 9.79085,-4.75051 9.79085,-10.51076 0,-2.65801 -1.22242,-4.78146 -2.81217,-6.80095 -0.59613,-0.62556 -1.45673,-0.53302 -2.08326,-0.13274 -1.83333,0.94864 -2.82283,1.32763 -4.89542,1.31835 -2.00453,-0.009 -3.05749,-0.33691 -4.89093,-1.33635 -0.31326,-0.19144 -0.70815,-0.30967 -1.09899,-0.30259 z m 0.2306,2.07089 c 1.90032,1.05072 3.59513,1.58381 5.75932,1.58381 2.16602,0 3.85802,-0.5331 5.75932,-1.58381 1.03747,1.46284 2.01576,3.27675 2.01576,5.18339 0,4.72282 -3.48083,8.495 -7.77508,8.495 -4.29446,0 -7.91907,-3.77215 -7.91907,-8.495 0,-1.90413 1.12001,-3.7194 2.15975,-5.18339 z"
       id="path4264"
       inkscape:connector-curvature="0" />
    <path
       inkscape:connector-curvature="0"
       id="path4260"
       d="m 407.7604,508.798 a 1.162825,1.162825 0 0 0 -1.16311,1.16311 1.162825,1.162825 0 0 0 1.16311,1.16312 1.162825,1.162825 0 0 0 1.16199,-1.16312 1.162825,1.162825 0 0 0 -1.16199,-1.16311 z m 2.84816,2.20924 a 1.3372488,1.3372488 0 0 0 -1.33746,1.33747 1.3372488,1.3372488 0 0 0 1.33746,1.33746 1.3372488,1.3372488 0 0 0 1.33747,-1.33746 1.3372488,1.3372488 0 0 0 -1.33747,-1.33747 z m -2.3251,2.32623 a 1.4535313,1.4535313 0 0 0 -1.45333,1.45332 1.4535313,1.4535313 0 0 0 1.45333,1.45333 1.4535313,1.4535313 0 0 0 1.45333,-1.45333 1.4535313,1.4535313 0 0 0 -1.45333,-1.45332 z m 2.79192,2.84591 c -0.89774,7.4e-4 -1.62771,0.7312 -1.62656,1.62993 6e-4,0.89637 0.73054,1.62656 1.62769,1.62656 l 0.001,0 10e-4,0 c 0.89759,-8.8e-4 1.62543,-0.73232 1.62543,-1.63106 -8.9e-4,-0.89637 -0.73047,-1.62543 -1.62881,-1.62543 z m -4.71207,1.04613 c -0.96165,10e-4 -1.74357,0.78359 -1.74242,1.74692 0.001,0.96012 0.78276,1.74242 1.74355,1.74242 l 10e-4,0 0.001,0 c 0.96165,-10e-4 1.74242,-0.7836 1.74242,-1.74692 -10e-4,-0.96012 -0.78356,-1.74242 -1.7458,-1.74242 z m -3.7818,4.60745 c -0.39085,0.007 -0.77731,0.14055 -1.07538,0.45333 -1.50468,1.95032 -2.72555,4.14346 -2.72555,6.80095 0,5.76023 4.3711,10.51076 9.79085,10.51076 5.41958,0 9.79085,-4.75051 9.79085,-10.51076 0,-2.65801 -1.22242,-4.78146 -2.81217,-6.80095 -0.59613,-0.62556 -1.45673,-0.53302 -2.08326,-0.13274 -1.83333,0.94864 -2.82283,1.32763 -4.89542,1.31835 -2.00453,-0.009 -3.05749,-0.33691 -4.89093,-1.33635 -0.31326,-0.19144 -0.70815,-0.30967 -1.09899,-0.30259 z m 0.2306,2.07089 c 1.90032,1.05072 3.59513,1.58381 5.75932,1.58381 2.16602,0 3.85802,-0.5331 5.75932,-1.58381 1.03747,1.46284 2.01576,3.27675 2.01576,5.18339 0,4.72282 -3.48083,8.495 -7.77508,8.495 -4.29446,0 -7.91907,-3.77215 -7.91907,-8.495 0,-1.90413 1.12001,-3.7194 2.15975,-5.18339 z"
       style="fill:#000000;fill-opacity:0.23529412" />
    <path
       style="fill:url(#linearGradient4252);fill-opacity:1"
       d="m 407.7604,508.398 a 1.162825,1.162825 0 0 0 -1.16311,1.16311 1.162825,1.162825 0 0 0 1.16311,1.16312 1.162825,1.162825 0 0 0 1.16199,-1.16312 1.162825,1.162825 0 0 0 -1.16199,-1.16311 z m 2.84816,2.20924 a 1.3372488,1.3372488 0 0 0 -1.33746,1.33747 1.3372488,1.3372488 0 0 0 1.33746,1.33746 1.3372488,1.3372488 0 0 0 1.33747,-1.33746 1.3372488,1.3372488 0 0 0 -1.33747,-1.33747 z m -2.3251,2.32623 a 1.4535313,1.4535313 0 0 0 -1.45333,1.45332 1.4535313,1.4535313 0 0 0 1.45333,1.45333 1.4535313,1.4535313 0 0 0 1.45333,-1.45333 1.4535313,1.4535313 0 0 0 -1.45333,-1.45332 z m 2.79192,2.84591 c -0.89774,7.4e-4 -1.62771,0.7312 -1.62656,1.62993 6e-4,0.89637 0.73054,1.62656 1.62769,1.62656 l 0.001,0 10e-4,0 c 0.89759,-8.8e-4 1.62543,-0.73232 1.62543,-1.63106 -8.9e-4,-0.89637 -0.73047,-1.62543 -1.62881,-1.62543 z m -4.71207,1.04613 c -0.96165,10e-4 -1.74357,0.78359 -1.74242,1.74692 0.001,0.96012 0.78276,1.74242 1.74355,1.74242 l 10e-4,0 0.001,0 c 0.96165,-10e-4 1.74242,-0.7836 1.74242,-1.74692 -10e-4,-0.96012 -0.78356,-1.74242 -1.7458,-1.74242 z m -3.7818,4.60745 c -0.39085,0.007 -0.77731,0.14055 -1.07538,0.45333 -1.50468,1.95032 -2.72555,4.14346 -2.72555,6.80095 0,5.76023 4.3711,10.51076 9.79085,10.51076 5.41958,0 9.79085,-4.75051 9.79085,-10.51076 0,-2.65801 -1.22242,-4.78146 -2.81217,-6.80095 -0.59613,-0.62556 -1.45673,-0.53302 -2.08326,-0.13274 -1.83333,0.94864 -2.82283,1.32763 -4.89542,1.31835 -2.00453,-0.009 -3.05749,-0.33691 -4.89093,-1.33635 -0.31326,-0.19144 -0.70815,-0.30967 -1.09899,-0.30259 z m 0.2306,2.07089 c 1.90032,1.05072 3.59513,1.58381 5.75932,1.58381 2.16602,0 3.85802,-0.5331 5.75932,-1.58381 1.03747,1.46284 2.01576,3.27675 2.01576,5.18339 0,4.72282 -3.48083,8.495 -7.77508,8.495 -4.29446,0 -7.91907,-3.77215 -7.91907,-8.495 0,-1.90413 1.12001,-3.7194 2.15975,-5.18339 z"
       id="path3042-0-6-4"
       inkscape:connector-curvature="0" />
    <path
       style="fill:#273148;fill-opacity:0.3137255"
       d="M 22.097656 9.3632812 A 1.162825 1.162825 0 0 0 22.025391 9.7636719 A 1.162825 1.162825 0 0 0 23.189453 10.925781 A 1.162825 1.162825 0 0 0 24.351562 9.7636719 A 1.162825 1.162825 0 0 0 24.279297 9.3632812 A 1.162825 1.162825 0 0 1 23.189453 10.126953 A 1.162825 1.162825 0 0 1 22.097656 9.3632812 z M 27.3125 11.746094 A 1.3372488 1.3372488 0 0 1 26.037109 12.683594 A 1.3372488 1.3372488 0 0 1 24.761719 11.748047 A 1.3372488 1.3372488 0 0 0 24.699219 12.146484 A 1.3372488 1.3372488 0 0 0 26.037109 13.484375 A 1.3372488 1.3372488 0 0 0 27.375 12.146484 A 1.3372488 1.3372488 0 0 0 27.3125 11.746094 z M 22.316406 14.189453 A 1.4535313 1.4535313 0 0 0 22.257812 14.587891 A 1.4535313 1.4535313 0 0 0 23.712891 16.042969 A 1.4535313 1.4535313 0 0 0 25.166016 14.587891 A 1.4535313 1.4535313 0 0 0 25.107422 14.193359 A 1.4535313 1.4535313 0 0 1 23.712891 15.242188 A 1.4535313 1.4535313 0 0 1 22.316406 14.189453 z M 28.076172 17.207031 C 27.897227 17.911762 27.26667 18.436756 26.507812 18.4375 L 26.505859 18.4375 C 25.747529 18.4375 25.113507 17.913724 24.933594 17.210938 C 24.900828 17.339903 24.876775 17.472217 24.876953 17.611328 C 24.877553 18.507698 25.608709 19.238281 26.505859 19.238281 L 26.507812 19.238281 C 27.405402 19.237401 28.132812 18.506162 28.132812 17.607422 C 28.132675 17.468723 28.109129 17.335637 28.076172 17.207031 z M 20.099609 18.369141 C 20.068636 18.499493 20.048661 18.635589 20.048828 18.775391 C 20.049828 19.735511 20.832179 20.517578 21.792969 20.517578 L 21.794922 20.517578 C 22.756572 20.516578 23.537109 19.732851 23.537109 18.769531 C 23.536966 18.631604 23.516946 18.49989 23.486328 18.371094 C 23.304731 19.140805 22.618327 19.715941 21.794922 19.716797 L 21.792969 19.716797 C 20.968696 19.716797 20.280393 19.139017 20.099609 18.369141 z M 18.240234 22.90625 C 17.200494 24.37024 16.080078 26.185714 16.080078 28.089844 C 16.080078 28.249652 16.09533 28.404978 16.103516 28.5625 C 16.221185 26.778323 17.260288 25.084877 18.240234 23.705078 C 20.140554 24.755798 21.83581 25.289062 24 25.289062 C 26.16602 25.289062 27.858466 24.755788 29.759766 23.705078 C 30.735074 25.080269 31.6468 26.767746 31.753906 28.548828 C 31.761328 28.3958 31.775391 28.245025 31.775391 28.089844 C 31.775391 26.183204 30.797236 24.36909 29.759766 22.90625 C 27.858466 23.95696 26.16602 24.490234 24 24.490234 C 21.83581 24.490234 20.140554 23.95697 18.240234 22.90625 z M 14.230469 28.521484 C 14.22515 28.644616 14.208984 28.763503 14.208984 28.888672 C 14.208984 34.648902 18.58025 39.400391 24 39.400391 C 29.41958 39.400391 33.791016 34.648922 33.791016 28.888672 C 33.791016 28.765901 33.774663 28.649829 33.769531 28.529297 C 33.552297 34.088086 29.279988 38.599609 24 38.599609 C 18.717371 38.599609 14.443979 34.083847 14.230469 28.521484 z "
       transform="translate(384.57143,499.798)"
       id="path4268" />
    <path
       style="fill:#ffffff;fill-opacity:0.23529412"
       d="M 23.189453 8.5996094 A 1.162825 1.162825 0 0 0 22.025391 9.7636719 A 1.162825 1.162825 0 0 0 22.042969 9.9609375 A 1.162825 1.162825 0 0 1 23.189453 9 A 1.162825 1.162825 0 0 1 24.333984 9.9648438 A 1.162825 1.162825 0 0 0 24.351562 9.7636719 A 1.162825 1.162825 0 0 0 23.189453 8.5996094 z M 26.037109 10.808594 A 1.3372488 1.3372488 0 0 0 24.699219 12.146484 A 1.3372488 1.3372488 0 0 0 24.716797 12.341797 A 1.3372488 1.3372488 0 0 1 26.037109 11.208984 A 1.3372488 1.3372488 0 0 1 27.357422 12.351562 A 1.3372488 1.3372488 0 0 0 27.375 12.146484 A 1.3372488 1.3372488 0 0 0 26.037109 10.808594 z M 23.712891 13.134766 A 1.4535313 1.4535313 0 0 0 22.257812 14.587891 A 1.4535313 1.4535313 0 0 0 22.273438 14.787109 A 1.4535313 1.4535313 0 0 1 23.712891 13.535156 A 1.4535313 1.4535313 0 0 1 25.150391 14.789062 A 1.4535313 1.4535313 0 0 0 25.166016 14.587891 A 1.4535313 1.4535313 0 0 0 23.712891 13.134766 z M 26.503906 15.980469 C 25.606166 15.981209 24.875803 16.712598 24.876953 17.611328 C 24.876999 17.679995 24.888131 17.746037 24.896484 17.8125 C 24.994947 17.008538 25.674277 16.381543 26.503906 16.380859 C 27.333686 16.380859 28.012735 17.005291 28.113281 17.806641 C 28.121417 17.740626 28.132812 17.675608 28.132812 17.607422 C 28.131922 16.711052 27.402246 15.980469 26.503906 15.980469 z M 21.791016 17.027344 C 20.829366 17.028344 20.047678 17.812061 20.048828 18.775391 C 20.048897 18.841802 20.062971 18.90424 20.070312 18.96875 C 20.172187 18.103107 20.899519 17.428661 21.791016 17.427734 C 22.684733 17.427734 23.416099 18.105324 23.517578 18.970703 C 23.525343 18.903887 23.537109 18.838416 23.537109 18.769531 C 23.536109 17.809411 22.753256 17.027344 21.791016 17.027344 z M 18.009766 21.634766 C 17.618916 21.641766 17.233617 21.775111 16.935547 22.087891 C 15.430867 24.038211 14.208984 26.231182 14.208984 28.888672 C 14.208984 28.961719 14.217351 29.032754 14.21875 29.105469 C 14.274376 26.531775 15.466292 24.392684 16.935547 22.488281 C 17.233617 22.175501 17.618916 22.042156 18.009766 22.035156 C 18.400606 22.028076 18.796115 22.146451 19.109375 22.337891 C 20.942815 23.337331 21.99547 23.664828 24 23.673828 C 26.07259 23.683108 27.061201 23.304109 28.894531 22.355469 C 29.521061 21.955189 30.382386 21.862721 30.978516 22.488281 C 32.531563 24.461147 33.726554 26.53662 33.78125 29.109375 C 33.7827 29.035359 33.791016 28.963033 33.791016 28.888672 C 33.791016 26.230662 32.568266 24.107381 30.978516 22.087891 C 30.382386 21.462331 29.521061 21.554798 28.894531 21.955078 C 27.061201 22.903718 26.07259 23.282717 24 23.273438 C 21.99547 23.264437 20.942815 22.93694 19.109375 21.9375 C 18.796115 21.74606 18.400606 21.627686 18.009766 21.634766 z M 31.763672 29.119141 C 31.651646 33.732657 28.223545 37.384766 24 37.384766 C 19.778632 37.384766 16.212238 33.736805 16.091797 29.126953 C 16.089995 29.181227 16.080078 29.234637 16.080078 29.289062 C 16.080078 34.011912 19.70554 37.785156 24 37.785156 C 28.29425 37.785156 31.775391 34.011882 31.775391 29.289062 C 31.775391 29.232078 31.765395 29.175952 31.763672 29.119141 z "
       transform="translate(384.57143,499.798)"
       id="path4273" />
  </g>
</svg>
