<?xml version="1.0" encoding="UTF-8" standalone="no"?>
<!-- Created with Inkscape (http://www.inkscape.org/) -->

<svg
   xmlns:dc="http://purl.org/dc/elements/1.1/"
   xmlns:cc="http://creativecommons.org/ns#"
   xmlns:rdf="http://www.w3.org/1999/02/22-rdf-syntax-ns#"
   xmlns:svg="http://www.w3.org/2000/svg"
   xmlns="http://www.w3.org/2000/svg"
   xmlns:xlink="http://www.w3.org/1999/xlink"
   xmlns:sodipodi="http://sodipodi.sourceforge.net/DTD/sodipodi-0.dtd"
   xmlns:inkscape="http://www.inkscape.org/namespaces/inkscape"
   width="48"
   height="48"
   id="svg5453"
   version="1.1"
   inkscape:version="0.48+devel r12474"
   sodipodi:docname="distributor-logo-debian.svg">
  <defs
     id="defs5455">
    <linearGradient
       id="linearGradient4654"
       inkscape:collect="always">
      <stop
         id="stop4656"
         offset="0"
         style="stop-color:#f7c1d8;stop-opacity:1" />
      <stop
         id="stop4658"
         offset="1"
         style="stop-color:#fef6fa;stop-opacity:0.99607843" />
    </linearGradient>
    <linearGradient
       inkscape:collect="always"
       id="linearGradient4618">
      <stop
         style="stop-color:#e52d7c;stop-opacity:1"
         offset="0"
         id="stop4620" />
      <stop
         style="stop-color:#f26ab0;stop-opacity:0.99803919"
         offset="1"
         id="stop4622" />
    </linearGradient>
    <linearGradient
       inkscape:collect="always"
       xlink:href="#linearGradient4618"
       id="linearGradient4587"
       x1="423.0368"
       y1="-547.94263"
       x2="423.0368"
       y2="-499.9332"
       gradientUnits="userSpaceOnUse" />
    <linearGradient
       inkscape:collect="always"
       xlink:href="#linearGradient4654"
       id="linearGradient4652"
       x1="417.27512"
       y1="539.31274"
       x2="417.27512"
       y2="508.20001"
       gradientUnits="userSpaceOnUse" />
  </defs>
  <sodipodi:namedview
     id="base"
     pagecolor="#ffffff"
     bordercolor="#666666"
     borderopacity="1.0"
     inkscape:pageopacity="0"
     inkscape:pageshadow="2"
     inkscape:zoom="5.6568543"
     inkscape:cx="36.09578"
     inkscape:cy="18.577061"
     inkscape:document-units="px"
     inkscape:current-layer="layer1"
     showgrid="false"
     fit-margin-top="0"
     fit-margin-left="0"
     fit-margin-right="0"
     fit-margin-bottom="0"
     inkscape:window-width="1366"
     inkscape:window-height="718"
     inkscape:window-x="0"
     inkscape:window-y="30"
     inkscape:window-maximized="1" />
  <metadata
     id="metadata5458">
    <rdf:RDF>
      <cc:Work
         rdf:about="">
        <dc:format>image/svg+xml</dc:format>
        <dc:type
           rdf:resource="http://purl.org/dc/dcmitype/StillImage" />
        <dc:title></dc:title>
      </cc:Work>
    </rdf:RDF>
  </metadata>
  <g
     inkscape:label="Capa 1"
     inkscape:groupmode="layer"
     id="layer1"
     transform="translate(-384.57143,-499.798)">
    <rect
       style="fill:url(#linearGradient4587);fill-opacity:1.0;stroke:none"
       id="rect2991-1-7"
       width="48"
       height="48"
       x="384.57144"
       y="-547.79797"
       ry="1.9445436"
       transform="scale(1,-1)" />
    <path
       d="m 418.06891,522.78068 c 0.0309,0.83113 -0.24249,1.23497 -0.48983,1.94914 l -0.44482,0.2212 c -0.3636,0.70658 0.0366,0.44858 -0.22428,1.01032 -0.56828,0.50465 -1.72208,1.57862 -2.09152,1.67704 -0.27006,-0.003 0.18264,-0.31854 0.24182,-0.44066 -0.75992,0.5215 -0.60992,0.78294 -1.77232,1.10044 l -0.0338,-0.0758 c -2.86556,1.34851 -6.84637,-1.32336 -6.79411,-4.96843 -0.0305,0.23118 -0.0866,0.1734 -0.15042,0.26626 -0.14785,-1.87515 0.86621,-3.75859 2.57659,-4.5288 1.67289,-0.82769 3.63405,-0.48849 4.83154,0.62918 -0.65773,-0.86207 -1.96806,-1.77609 -3.51984,-1.69147 -1.52087,0.0247 -2.944,0.99107 -3.41874,2.04064 -0.77882,0.4902 -0.86963,1.89063 -1.20881,2.14726 -0.4572,3.35749 0.85898,4.80744 3.08572,6.51406 0.34951,0.23599 0.0985,0.27212 0.14505,0.45168 -0.73963,-0.34607 -1.41663,-0.86895 -1.97392,-1.50915 0.29586,0.43242 0.61474,0.85279 1.02722,1.18305 -0.698,-0.23566 -1.6299,-1.6901 -1.90132,-1.74926 1.20233,2.15275 4.8773,3.77544 6.80267,2.97012 -0.89097,0.0327 -2.02238,0.0183 -3.02275,-0.35158 -0.42138,-0.21638 -0.9921,-0.66391 -0.88994,-0.74752 2.62682,0.98075 5.33962,0.74235 7.61213,-1.07914 0.57861,-0.45062 1.21021,-1.21674 1.39288,-1.22705 -0.27488,0.41349 0.0474,0.19882 -0.16416,0.56381 0.57518,-0.92913 -0.25077,-0.3784 0.59514,-1.60442 l 0.31235,0.42999 c -0.11692,-0.77192 0.95805,-1.70832 0.84864,-2.92816 0.24667,-0.37289 0.27488,0.40179 0.0135,1.25973 0.36293,-0.95184 0.0958,-1.10492 0.18887,-1.89063 0.10015,0.26419 0.23324,0.54457 0.301,0.82353 -0.23668,-0.92018 0.24183,-1.54904 0.36087,-2.08397 -0.11742,-0.0515 -0.365,0.40663 -0.4221,-0.67974 0.0113,-0.47198 0.1319,-0.24734 0.17883,-0.36361 -0.0923,-0.0535 -0.3354,-0.41522 -0.48298,-1.10906 0.10632,-0.16345 0.28622,0.42275 0.43207,0.4465 -0.0939,-0.55145 -0.25525,-0.97217 -0.26213,-1.39562 -0.42656,-0.89098 -0.15092,0.11889 -0.49641,-0.38252 -0.45407,-1.41525 0.37635,-0.32854 0.43278,-0.97113 0.6873,0.99588 1.07913,2.54046 1.25973,3.17997 -0.13745,-0.77986 -0.35948,-1.53565 -0.6309,-2.26666 0.20949,0.0881 -0.3368,-1.60408 0.27211,-0.48332 -0.64984,-2.38911 -2.77887,-4.62169 -4.738,-5.66884 0.23913,0.21914 0.54148,0.49434 0.4335,0.53769 -0.97495,-0.57965 -0.80361,-0.6254 -0.94327,-0.87036 -0.79294,-0.32299 -0.84592,0.0263 -1.37056,9.1e-4 -1.49635,-0.79395 -1.78463,-0.70968 -3.1617,-1.20643 l 0.0628,0.2931 c -0.99108,-0.33023 -1.15485,0.12454 -2.22572,9.1e-4 -0.0649,-0.0507 0.34332,-0.18438 0.67975,-0.23289 -0.95839,0.12655 -0.91367,-0.1892 -1.85142,0.0343 0.23083,-0.16197 0.47577,-0.26968 0.72207,-0.40733 -0.78123,0.0476 -1.86589,0.45479 -1.53116,0.0836 -1.27454,0.56897 -3.53843,1.36742 -4.80885,2.55871 l -0.0399,-0.26696 c -0.58203,0.69867 -2.5384,2.08676 -2.69424,2.99248 l -0.15575,0.0358 c -0.30242,0.51288 -0.49881,1.09392 -0.73894,1.62127 -0.39593,0.67529 -0.58067,0.26008 -0.52429,0.36603 -0.77912,1.57966 -1.16684,2.90685 -1.50088,3.99596 0.23805,0.35604 0.003,2.14384 0.0956,3.57455 -0.3908,7.06721 4.95986,13.92837 10.80859,15.51215 0.85729,0.30721 2.13181,0.29618 3.21612,0.32647 -1.27899,-0.36604 -1.44417,-0.19371 -2.69082,-0.62815 -0.8989,-0.42382 -1.09562,-0.90711 -1.73271,-1.45996 l 0.25213,0.44551 c -1.24869,-0.4421 -0.72615,-0.547 -1.74237,-0.86868 l 0.26934,-0.35117 c -0.40487,-0.0309 -1.07224,-0.68186 -1.25456,-1.04337 l -0.44308,0.0183 c -0.53184,-0.6557 -0.81566,-1.1294 -0.79465,-1.49643 l -0.14315,0.25522 c -0.16194,-0.27829 -1.95773,-2.46235 -1.02616,-1.95388 -0.17303,-0.15761 -0.40316,-0.25699 -0.65258,-0.71071 l 0.18955,-0.21645 c -0.44755,-0.5769 -0.82493,-1.31613 -0.79603,-1.56241 0.23909,0.32266 0.40491,0.38319 0.56934,0.43861 -1.13213,-2.80849 -1.19576,-0.15448 -2.0527,-2.85871 l 0.18101,-0.0149 c -0.1386,-0.21016 -0.22361,-0.43686 -0.33508,-0.66012 l 0.0789,-0.78604 c -0.81459,-0.9412 -0.22774,-4.00593 -0.10964,-5.68641 0.0805,-0.68316 0.6801,-1.41075 1.13522,-2.55181 l -0.27727,-0.0476 c 0.53045,-0.9247 3.02793,-3.71491 4.18515,-3.57182 0.56038,-0.70382 -0.11122,-9.4e-4 -0.2212,-0.17954 1.23119,-1.27382 1.6182,-0.8999 2.44898,-1.12935 0.89544,-0.53148 -0.76884,0.20777 -0.34436,-0.20263 1.54906,-0.39523 1.09737,-0.89922 3.11772,-1.09977 0.21328,0.12123 -0.49434,0.18713 -0.67184,0.34435 1.29,-0.63158 4.08297,-0.48745 5.89792,0.35019 2.10428,0.98421 4.47001,3.89208 4.56358,6.62793 l 0.10631,0.0289 c -0.0538,1.08775 0.1665,2.34577 -0.21572,3.50094 l 0.25839,-0.5473"
       inkscape:connector-curvature="0"
       id="path4664"
       style="fill:#000000;fill-opacity:0.05882353;display:inline" />
    <path
       style="fill:#000000;fill-opacity:0.11764706;display:inline"
       id="path4662"
       inkscape:connector-curvature="0"
       d="m 418.06891,522.38068 c 0.0309,0.83113 -0.24249,1.23497 -0.48983,1.94914 l -0.44482,0.2212 c -0.3636,0.70658 0.0366,0.44858 -0.22428,1.01032 -0.56828,0.50465 -1.72208,1.57862 -2.09152,1.67704 -0.27006,-0.003 0.18264,-0.31854 0.24182,-0.44066 -0.75992,0.5215 -0.60992,0.78294 -1.77232,1.10044 l -0.0338,-0.0758 c -2.86556,1.34851 -6.84637,-1.32336 -6.79411,-4.96843 -0.0305,0.23118 -0.0866,0.1734 -0.15042,0.26626 -0.14785,-1.87515 0.86621,-3.75859 2.57659,-4.5288 1.67289,-0.82769 3.63405,-0.48849 4.83154,0.62918 -0.65773,-0.86207 -1.96806,-1.77609 -3.51984,-1.69147 -1.52087,0.0247 -2.944,0.99107 -3.41874,2.04064 -0.77882,0.4902 -0.86963,1.89063 -1.20881,2.14726 -0.4572,3.35749 0.85898,4.80744 3.08572,6.51406 0.34951,0.23599 0.0985,0.27212 0.14505,0.45168 -0.73963,-0.34607 -1.41663,-0.86895 -1.97392,-1.50915 0.29586,0.43242 0.61474,0.85279 1.02722,1.18305 -0.698,-0.23566 -1.6299,-1.6901 -1.90132,-1.74926 1.20233,2.15275 4.8773,3.77544 6.80267,2.97012 -0.89097,0.0327 -2.02238,0.0183 -3.02275,-0.35158 -0.42138,-0.21638 -0.9921,-0.66391 -0.88994,-0.74752 2.62682,0.98075 5.33962,0.74235 7.61213,-1.07914 0.57861,-0.45062 1.21021,-1.21674 1.39288,-1.22705 -0.27488,0.41349 0.0474,0.19882 -0.16416,0.56381 0.57518,-0.92913 -0.25077,-0.3784 0.59514,-1.60442 l 0.31235,0.42999 c -0.11692,-0.77192 0.95805,-1.70832 0.84864,-2.92816 0.24667,-0.37289 0.27488,0.40179 0.0135,1.25973 0.36293,-0.95184 0.0958,-1.10492 0.18887,-1.89063 0.10015,0.26419 0.23324,0.54457 0.301,0.82353 -0.23668,-0.92018 0.24183,-1.54904 0.36087,-2.08397 -0.11742,-0.0515 -0.365,0.40663 -0.4221,-0.67974 0.0113,-0.47198 0.1319,-0.24734 0.17883,-0.36361 -0.0923,-0.0535 -0.3354,-0.41522 -0.48298,-1.10906 0.10632,-0.16345 0.28622,0.42275 0.43207,0.4465 -0.0939,-0.55145 -0.25525,-0.97217 -0.26213,-1.39562 -0.42656,-0.89098 -0.15092,0.11889 -0.49641,-0.38252 -0.45407,-1.41525 0.37635,-0.32854 0.43278,-0.97113 0.6873,0.99588 1.07913,2.54046 1.25973,3.17997 -0.13745,-0.77986 -0.35948,-1.53565 -0.6309,-2.26666 0.20949,0.0881 -0.3368,-1.60408 0.27211,-0.48332 -0.64984,-2.38911 -2.77887,-4.62169 -4.738,-5.66884 0.23913,0.21914 0.54148,0.49434 0.4335,0.53769 -0.97495,-0.57965 -0.80361,-0.6254 -0.94327,-0.87036 -0.79294,-0.32299 -0.84592,0.0263 -1.37056,9.1e-4 -1.49635,-0.79395 -1.78463,-0.70968 -3.1617,-1.20643 l 0.0628,0.2931 c -0.99108,-0.33023 -1.15485,0.12454 -2.22572,9.1e-4 -0.0649,-0.0507 0.34332,-0.18438 0.67975,-0.23289 -0.95839,0.12655 -0.91367,-0.1892 -1.85142,0.0343 0.23083,-0.16197 0.47577,-0.26968 0.72207,-0.40733 -0.78123,0.0476 -1.86589,0.45479 -1.53116,0.0836 -1.27454,0.56897 -3.53843,1.36742 -4.80885,2.55871 l -0.0399,-0.26696 c -0.58203,0.69867 -2.5384,2.08676 -2.69424,2.99248 l -0.15575,0.0358 c -0.30242,0.51288 -0.49881,1.09392 -0.73894,1.62127 -0.39593,0.67529 -0.58067,0.26008 -0.52429,0.36603 -0.77912,1.57966 -1.16684,2.90685 -1.50088,3.99596 0.23805,0.35604 0.003,2.14384 0.0956,3.57455 -0.3908,7.06721 4.95986,13.92837 10.80859,15.51215 0.85729,0.30721 2.13181,0.29618 3.21612,0.32647 -1.27899,-0.36604 -1.44417,-0.19371 -2.69082,-0.62815 -0.8989,-0.42382 -1.09562,-0.90711 -1.73271,-1.45996 l 0.25213,0.44551 c -1.24869,-0.4421 -0.72615,-0.547 -1.74237,-0.86868 l 0.26934,-0.35117 c -0.40487,-0.0309 -1.07224,-0.68186 -1.25456,-1.04337 l -0.44308,0.0183 c -0.53184,-0.6557 -0.81566,-1.1294 -0.79465,-1.49643 l -0.14315,0.25522 c -0.16194,-0.27829 -1.95773,-2.46235 -1.02616,-1.95388 -0.17303,-0.15761 -0.40316,-0.25699 -0.65258,-0.71071 l 0.18955,-0.21645 c -0.44755,-0.5769 -0.82493,-1.31613 -0.79603,-1.56241 0.23909,0.32266 0.40491,0.38319 0.56934,0.43861 -1.13213,-2.80849 -1.19576,-0.15448 -2.0527,-2.85871 l 0.18101,-0.0149 c -0.1386,-0.21016 -0.22361,-0.43686 -0.33508,-0.66012 l 0.0789,-0.78604 c -0.81459,-0.9412 -0.22774,-4.00593 -0.10964,-5.68641 0.0805,-0.68316 0.6801,-1.41075 1.13522,-2.55181 l -0.27727,-0.0476 c 0.53045,-0.9247 3.02793,-3.71491 4.18515,-3.57182 0.56038,-0.70382 -0.11122,-9.4e-4 -0.2212,-0.17954 1.23119,-1.27382 1.6182,-0.8999 2.44898,-1.12935 0.89544,-0.53148 -0.76884,0.20777 -0.34436,-0.20263 1.54906,-0.39523 1.09737,-0.89922 3.11772,-1.09977 0.21328,0.12123 -0.49434,0.18713 -0.67184,0.34435 1.29,-0.63158 4.08297,-0.48745 5.89792,0.35019 2.10428,0.98421 4.47001,3.89208 4.56358,6.62793 l 0.10631,0.0289 c -0.0538,1.08775 0.1665,2.34577 -0.21572,3.50094 l 0.25839,-0.5473" />
    <path
       d="m 418.06891,521.98068 c 0.0309,0.83113 -0.24249,1.23497 -0.48983,1.94914 l -0.44482,0.2212 c -0.3636,0.70658 0.0366,0.44858 -0.22428,1.01032 -0.56828,0.50465 -1.72208,1.57862 -2.09152,1.67704 -0.27006,-0.003 0.18264,-0.31854 0.24182,-0.44066 -0.75992,0.5215 -0.60992,0.78294 -1.77232,1.10044 l -0.0338,-0.0758 c -2.86556,1.34851 -6.84637,-1.32336 -6.79411,-4.96843 -0.0305,0.23118 -0.0866,0.1734 -0.15042,0.26626 -0.14785,-1.87515 0.86621,-3.75859 2.57659,-4.5288 1.67289,-0.82769 3.63405,-0.48849 4.83154,0.62918 -0.65773,-0.86207 -1.96806,-1.77609 -3.51984,-1.69147 -1.52087,0.0247 -2.944,0.99107 -3.41874,2.04064 -0.77882,0.4902 -0.86963,1.89063 -1.20881,2.14726 -0.4572,3.35749 0.85898,4.80744 3.08572,6.51406 0.34951,0.23599 0.0985,0.27212 0.14505,0.45168 -0.73963,-0.34607 -1.41663,-0.86895 -1.97392,-1.50915 0.29586,0.43242 0.61474,0.85279 1.02722,1.18305 -0.698,-0.23566 -1.6299,-1.6901 -1.90132,-1.74926 1.20233,2.15275 4.8773,3.77544 6.80267,2.97012 -0.89097,0.0327 -2.02238,0.0183 -3.02275,-0.35158 -0.42138,-0.21638 -0.9921,-0.66391 -0.88994,-0.74752 2.62682,0.98075 5.33962,0.74235 7.61213,-1.07914 0.57861,-0.45062 1.21021,-1.21674 1.39288,-1.22705 -0.27488,0.41349 0.0474,0.19882 -0.16416,0.56381 0.57518,-0.92913 -0.25077,-0.3784 0.59514,-1.60442 l 0.31235,0.42999 c -0.11692,-0.77192 0.95805,-1.70832 0.84864,-2.92816 0.24667,-0.37289 0.27488,0.40179 0.0135,1.25973 0.36293,-0.95184 0.0958,-1.10492 0.18887,-1.89063 0.10015,0.26419 0.23324,0.54457 0.301,0.82353 -0.23668,-0.92018 0.24183,-1.54904 0.36087,-2.08397 -0.11742,-0.0515 -0.365,0.40663 -0.4221,-0.67974 0.0113,-0.47198 0.1319,-0.24734 0.17883,-0.36361 -0.0923,-0.0535 -0.3354,-0.41522 -0.48298,-1.10906 0.10632,-0.16345 0.28622,0.42275 0.43207,0.4465 -0.0939,-0.55145 -0.25525,-0.97217 -0.26213,-1.39562 -0.42656,-0.89098 -0.15092,0.11889 -0.49641,-0.38252 -0.45407,-1.41525 0.37635,-0.32854 0.43278,-0.97113 0.6873,0.99588 1.07913,2.54046 1.25973,3.17997 -0.13745,-0.77986 -0.35948,-1.53565 -0.6309,-2.26666 0.20949,0.0881 -0.3368,-1.60408 0.27211,-0.48332 -0.64984,-2.38911 -2.77887,-4.62169 -4.738,-5.66884 0.23913,0.21914 0.54148,0.49434 0.4335,0.53769 -0.97495,-0.57965 -0.80361,-0.6254 -0.94327,-0.87036 -0.79294,-0.32299 -0.84592,0.0263 -1.37056,9.1e-4 -1.49635,-0.79395 -1.78463,-0.70968 -3.1617,-1.20643 l 0.0628,0.2931 c -0.99108,-0.33023 -1.15485,0.12454 -2.22572,9.1e-4 -0.0649,-0.0507 0.34332,-0.18438 0.67975,-0.23289 -0.95839,0.12655 -0.91367,-0.1892 -1.85142,0.0343 0.23083,-0.16197 0.47577,-0.26968 0.72207,-0.40733 -0.78123,0.0476 -1.86589,0.45479 -1.53116,0.0836 -1.27454,0.56897 -3.53843,1.36742 -4.80885,2.55871 l -0.0399,-0.26696 c -0.58203,0.69867 -2.5384,2.08676 -2.69424,2.99248 l -0.15575,0.0358 c -0.30242,0.51288 -0.49881,1.09392 -0.73894,1.62127 -0.39593,0.67529 -0.58067,0.26008 -0.52429,0.36603 -0.77912,1.57966 -1.16684,2.90685 -1.50088,3.99596 0.23805,0.35604 0.003,2.14384 0.0956,3.57455 -0.3908,7.06721 4.95986,13.92837 10.80859,15.51215 0.85729,0.30721 2.13181,0.29618 3.21612,0.32647 -1.27899,-0.36604 -1.44417,-0.19371 -2.69082,-0.62815 -0.8989,-0.42382 -1.09562,-0.90711 -1.73271,-1.45996 l 0.25213,0.44551 c -1.24869,-0.4421 -0.72615,-0.547 -1.74237,-0.86868 l 0.26934,-0.35117 c -0.40487,-0.0309 -1.07224,-0.68186 -1.25456,-1.04337 l -0.44308,0.0183 c -0.53184,-0.6557 -0.81566,-1.1294 -0.79465,-1.49643 l -0.14315,0.25522 c -0.16194,-0.27829 -1.95773,-2.46235 -1.02616,-1.95388 -0.17303,-0.15761 -0.40316,-0.25699 -0.65258,-0.71071 l 0.18955,-0.21645 c -0.44755,-0.5769 -0.82493,-1.31613 -0.79603,-1.56241 0.23909,0.32266 0.40491,0.38319 0.56934,0.43861 -1.13213,-2.80849 -1.19576,-0.15448 -2.0527,-2.85871 l 0.18101,-0.0149 c -0.1386,-0.21016 -0.22361,-0.43686 -0.33508,-0.66012 l 0.0789,-0.78604 c -0.81459,-0.9412 -0.22774,-4.00593 -0.10964,-5.68641 0.0805,-0.68316 0.6801,-1.41075 1.13522,-2.55181 l -0.27727,-0.0476 c 0.53045,-0.9247 3.02793,-3.71491 4.18515,-3.57182 0.56038,-0.70382 -0.11122,-9.4e-4 -0.2212,-0.17954 1.23119,-1.27382 1.6182,-0.8999 2.44898,-1.12935 0.89544,-0.53148 -0.76884,0.20777 -0.34436,-0.20263 1.54906,-0.39523 1.09737,-0.89922 3.11772,-1.09977 0.21328,0.12123 -0.49434,0.18713 -0.67184,0.34435 1.29,-0.63158 4.08297,-0.48745 5.89792,0.35019 2.10428,0.98421 4.47001,3.89208 4.56358,6.62793 l 0.10631,0.0289 c -0.0538,1.08775 0.1665,2.34577 -0.21572,3.50094 l 0.25839,-0.5473"
       inkscape:connector-curvature="0"
       id="path4660"
       style="fill:#000000;fill-opacity:0.23529412;display:inline" />
    <path
       inkscape:connector-curvature="0"
       style="fill:#000000;fill-opacity:1;stroke:none"
       d="m 384.57143,544.79799 0,1.0625 c 0,1.0773 0.86022,1.9375 1.9375,1.9375 l 44.125,0 c 1.07728,0 1.9375,-0.8602 1.9375,-1.9375 l 0,-1.0625 c 0,1.0773 -0.86022,1.9375 -1.9375,1.9375 l -44.125,0 C 385.43165,546.73549 384.57143,545.87529 384.57143,544.79799 Z"
       id="rect846" />
    <path
       inkscape:connector-curvature="0"
       style="fill:#ffffff;fill-opacity:0.5372549;stroke:none"
       d="m 387.10268,500.45429 c -0.91709,0 -1.67115,0.6395 -1.84375,1.5 0.33561,-0.2799 0.77451,-0.4375 1.25,-0.4375 l 44.125,0 c 0.47549,0 0.91439,0.1576 1.25,0.4375 -0.1726,-0.8605 -0.92666,-1.5 -1.84375,-1.5 L 387.10268,500.45429 Z"
       id="path7515" />
    <path
       inkscape:connector-curvature="0"
       style="fill:#000000;fill-opacity:0.39215686;stroke:none"
       d="m 386.50893,499.79799 c -1.07728,0 -1.9375,0.8602 -1.9375,1.9375 l 0,43.0625 c 0,0.7934 0.48002,1.449 1.15625,1.75 -0.30934,-0.3333 -0.5,-0.7824 -0.5,-1.2812 l 0,-42.9375 c 0,-1.0482 0.8269,-1.875 1.875,-1.875 l 42.9375,0 c 1.0481,0 1.875,0.8268 1.875,1.875 l 0,42.9375 c 0,0.4988 -0.19066,0.9479 -0.5,1.2812 0.67623,-0.301 1.15625,-0.9566 1.15625,-1.75 l 0,-43.0625 c 0,-1.0773 -0.86022,-1.9375 -1.9375,-1.9375 L 386.50893,499.79799 Z"
       id="rect4280" />
    <path
       style="fill:url(#linearGradient4652);display:inline;fill-opacity:1"
       id="path2536"
       inkscape:connector-curvature="0"
       d="m 418.06891,521.58068 c 0.0309,0.83113 -0.24249,1.23497 -0.48983,1.94914 l -0.44482,0.2212 c -0.3636,0.70658 0.0366,0.44858 -0.22428,1.01032 -0.56828,0.50465 -1.72208,1.57862 -2.09152,1.67704 -0.27006,-0.003 0.18264,-0.31854 0.24182,-0.44066 -0.75992,0.5215 -0.60992,0.78294 -1.77232,1.10044 l -0.0338,-0.0758 c -2.86556,1.34851 -6.84637,-1.32336 -6.79411,-4.96843 -0.0305,0.23118 -0.0866,0.1734 -0.15042,0.26626 -0.14785,-1.87515 0.86621,-3.75859 2.57659,-4.5288 1.67289,-0.82769 3.63405,-0.48849 4.83154,0.62918 -0.65773,-0.86207 -1.96806,-1.77609 -3.51984,-1.69147 -1.52087,0.0247 -2.944,0.99107 -3.41874,2.04064 -0.77882,0.4902 -0.86963,1.89063 -1.20881,2.14726 -0.4572,3.35749 0.85898,4.80744 3.08572,6.51406 0.34951,0.23599 0.0985,0.27212 0.14505,0.45168 -0.73963,-0.34607 -1.41663,-0.86895 -1.97392,-1.50915 0.29586,0.43242 0.61474,0.85279 1.02722,1.18305 -0.698,-0.23566 -1.6299,-1.6901 -1.90132,-1.74926 1.20233,2.15275 4.8773,3.77544 6.80267,2.97012 -0.89097,0.0327 -2.02238,0.0183 -3.02275,-0.35158 -0.42138,-0.21638 -0.9921,-0.66391 -0.88994,-0.74752 2.62682,0.98075 5.33962,0.74235 7.61213,-1.07914 0.57861,-0.45062 1.21021,-1.21674 1.39288,-1.22705 -0.27488,0.41349 0.0474,0.19882 -0.16416,0.56381 0.57518,-0.92913 -0.25077,-0.3784 0.59514,-1.60442 l 0.31235,0.42999 c -0.11692,-0.77192 0.95805,-1.70832 0.84864,-2.92816 0.24667,-0.37289 0.27488,0.40179 0.0135,1.25973 0.36293,-0.95184 0.0958,-1.10492 0.18887,-1.89063 0.10015,0.26419 0.23324,0.54457 0.301,0.82353 -0.23668,-0.92018 0.24183,-1.54904 0.36087,-2.08397 -0.11742,-0.0515 -0.365,0.40663 -0.4221,-0.67974 0.0113,-0.47198 0.1319,-0.24734 0.17883,-0.36361 -0.0923,-0.0535 -0.3354,-0.41522 -0.48298,-1.10906 0.10632,-0.16345 0.28622,0.42275 0.43207,0.4465 -0.0939,-0.55145 -0.25525,-0.97217 -0.26213,-1.39562 -0.42656,-0.89098 -0.15092,0.11889 -0.49641,-0.38252 -0.45407,-1.41525 0.37635,-0.32854 0.43278,-0.97113 0.6873,0.99588 1.07913,2.54046 1.25973,3.17997 -0.13745,-0.77986 -0.35948,-1.53565 -0.6309,-2.26666 0.20949,0.0881 -0.3368,-1.60408 0.27211,-0.48332 -0.64984,-2.38911 -2.77887,-4.62169 -4.738,-5.66884 0.23913,0.21914 0.54148,0.49434 0.4335,0.53769 -0.97495,-0.57965 -0.80361,-0.6254 -0.94327,-0.87036 -0.79294,-0.32299 -0.84592,0.0263 -1.37056,9.1e-4 -1.49635,-0.79395 -1.78463,-0.70968 -3.1617,-1.20643 l 0.0628,0.2931 c -0.99108,-0.33023 -1.15485,0.12454 -2.22572,9.1e-4 -0.0649,-0.0507 0.34332,-0.18438 0.67975,-0.23289 -0.95839,0.12655 -0.91367,-0.1892 -1.85142,0.0343 0.23083,-0.16197 0.47577,-0.26968 0.72207,-0.40733 -0.78123,0.0476 -1.86589,0.45479 -1.53116,0.0836 -1.27454,0.56897 -3.53843,1.36742 -4.80885,2.55871 l -0.0399,-0.26696 c -0.58203,0.69867 -2.5384,2.08676 -2.69424,2.99248 l -0.15575,0.0358 c -0.30242,0.51288 -0.49881,1.09392 -0.73894,1.62127 -0.39593,0.67529 -0.58067,0.26008 -0.52429,0.36603 -0.77912,1.57966 -1.16684,2.90685 -1.50088,3.99596 0.23805,0.35604 0.003,2.14384 0.0956,3.57455 -0.3908,7.06721 4.95986,13.92837 10.80859,15.51215 0.85729,0.30721 2.13181,0.29618 3.21612,0.32647 -1.27899,-0.36604 -1.44417,-0.19371 -2.69082,-0.62815 -0.8989,-0.42382 -1.09562,-0.90711 -1.73271,-1.45996 l 0.25213,0.44551 c -1.24869,-0.4421 -0.72615,-0.547 -1.74237,-0.86868 l 0.26934,-0.35117 c -0.40487,-0.0309 -1.07224,-0.68186 -1.25456,-1.04337 l -0.44308,0.0183 c -0.53184,-0.6557 -0.81566,-1.1294 -0.79465,-1.49643 l -0.14315,0.25522 c -0.16194,-0.27829 -1.95773,-2.46235 -1.02616,-1.95388 -0.17303,-0.15761 -0.40316,-0.25699 -0.65258,-0.71071 l 0.18955,-0.21645 c -0.44755,-0.5769 -0.82493,-1.31613 -0.79603,-1.56241 0.23909,0.32266 0.40491,0.38319 0.56934,0.43861 -1.13213,-2.80849 -1.19576,-0.15448 -2.0527,-2.85871 l 0.18101,-0.0149 c -0.1386,-0.21016 -0.22361,-0.43686 -0.33508,-0.66012 l 0.0789,-0.78604 c -0.81459,-0.9412 -0.22774,-4.00593 -0.10964,-5.68641 0.0805,-0.68316 0.6801,-1.41075 1.13522,-2.55181 l -0.27727,-0.0476 c 0.53045,-0.9247 3.02793,-3.71491 4.18515,-3.57182 0.56038,-0.70382 -0.11122,-9.4e-4 -0.2212,-0.17954 1.23119,-1.27382 1.6182,-0.8999 2.44898,-1.12935 0.89544,-0.53148 -0.76884,0.20777 -0.34436,-0.20263 1.54906,-0.39523 1.09737,-0.89922 3.11772,-1.09977 0.21328,0.12123 -0.49434,0.18713 -0.67184,0.34435 1.29,-0.63158 4.08297,-0.48745 5.89792,0.35019 2.10428,0.98421 4.47001,3.89208 4.56358,6.62793 l 0.10631,0.0289 c -0.0538,1.08775 0.1665,2.34577 -0.21572,3.50094 l 0.25839,-0.5473" />
    <path
       style="fill:#e52f7d;fill-opacity:0.31372549;display:inline"
       d="m 409.41323,510.43239 c -0.77563,0.023 -1.47133,0.14988 -1.95508,0.38672 0.1775,-0.15722 0.88515,-0.22252 0.67187,-0.34375 -2.02035,0.20055 -1.56812,0.70438 -3.11718,1.09961 -0.42448,0.4104 1.23919,-0.32835 0.34375,0.20313 -0.83078,0.22945 -1.21803,-0.14492 -2.44922,1.1289 0.10998,0.1786 0.78108,-0.52413 0.2207,0.17969 -1.15722,-0.14309 -3.65314,2.64757 -4.18359,3.57227 l 0.27734,0.0469 c -0.45512,1.14106 -1.05622,1.86958 -1.13672,2.55274 -0.0781,1.11122 -0.35155,2.81746 -0.29883,4.125 0.0465,-1.14968 0.23598,-2.43188 0.29883,-3.32618 0.0805,-0.68316 0.6816,-1.40972 1.13672,-2.55078 l -0.27734,-0.0488 c 0.53045,-0.9247 3.02637,-3.7134 4.18359,-3.57031 0.56038,-0.70382 -0.11072,-0.001 -0.2207,-0.17969 1.23119,-1.27382 1.61844,-0.9014 2.44922,-1.13085 0.89544,-0.53148 -0.76823,0.20922 -0.34375,-0.20118 1.54906,-0.39523 1.09683,-0.89906 3.11718,-1.09961 0.21328,0.12123 -0.49437,0.18653 -0.67187,0.34375 1.29,-0.63158 4.08349,-0.48803 5.89844,0.34961 2.10428,0.98421 4.46893,3.89306 4.5625,6.62891 l 0.10742,0.0293 c -0.0163,0.33014 1e-4,0.69299 0.01,1.04687 0.006,-0.63684 -0.0385,-1.26638 -0.01,-1.84765 l -0.10742,-0.0293 c -0.0936,-2.73585 -2.45822,-5.64274 -4.5625,-6.62695 C 412.22224,510.64715 410.70594,510.39405 409.41323,510.43239 z m 10.27148,4.25391 c -0.0564,0.64259 -0.88766,-0.44455 -0.43359,0.9707 0.009,0.0128 0.0134,0.0145 0.0215,0.0254 0.0616,0.005 0.13082,0.0173 0.19727,0.0215 0.0148,-0.0427 0.036,-0.0567 0.082,-0.006 0.0661,-0.0186 0.12031,-0.0685 0.13281,-0.21094 0.6873,0.99588 1.07917,2.54018 1.25977,3.17969 -0.13745,-0.77986 -0.35944,-1.53657 -0.63086,-2.26758 0.0812,0.0341 0.0463,-0.20037 0.0117,-0.43359 C 420.14606,515.51364 419.94293,515.06046 419.68471,514.6863 z m 0.64453,0.5 c 0.0242,0.16395 0.0437,0.31826 0.0234,0.38086 0.0447,0.036 0.11081,0.12577 0.23242,0.34961 C 420.51819,515.67075 420.42573,515.42788 420.32924,515.1863 z m -10.13086,1.54297 c -0.38021,0.006 -0.75466,0.0712 -1.10937,0.18164 -0.0238,0.0103 -0.0486,0.0166 -0.0723,0.0273 -0.0432,0.0197 -0.088,0.0315 -0.13086,0.0527 -1.71038,0.77021 -2.72402,2.65414 -2.57617,4.52929 0.005,-0.007 0.009,-0.008 0.0137,-0.0137 0.1536,-1.5848 1.10041,-3.05644 2.5625,-3.71484 1.67289,-0.82769 3.63454,-0.48876 4.83203,0.62891 C 413.06018,517.55861 411.75016,516.64465 410.19838,516.72927 z m 9.42188,0.23047 c -0.0154,-4.3e-4 -0.0297,0.009 -0.043,0.0293 0.10824,0.5089 0.25336,0.78041 0.36719,0.94141 -0.0604,-0.27117 -0.10788,-0.52386 -0.14649,-0.75586 C 419.73343,517.06434 419.67167,516.96118 419.62026,516.95974 z m 0.36914,1.18164 c -0.0171,0.001 -0.033,0.0149 -0.0488,0.0312 0.0235,0.0253 0.048,0.0589 0.0703,0.0625 C 420.00497,518.20042 419.99579,518.17509 419.9894,518.14138 z m -0.0781,0.54492 c 0.0113,0.0978 0.0216,0.21224 0.0371,0.27344 0.0398,-0.0291 0.0877,0.003 0.11328,-0.0606 C 420.03035,518.88104 419.96768,518.77632 419.91127,518.6863 z m -23.61132,0.7832 c -0.03,0.098 -0.0726,0.22005 -0.10157,0.31446 0.0595,0.089 0.0906,0.26778 0.10352,0.50781 C 396.30934,519.97895 396.31343,519.69323 396.29995,519.4695 z m 24.0039,0.47266 c -0.0705,-0.0309 -0.1863,0.11598 -0.28125,0.008 -0.11745,0.34431 -0.19498,0.72913 -0.0918,1.20117 C 420.0191,520.67776 420.22739,520.28574 420.30385,519.94216 z m -0.66211,0.46094 c -0.042,0.35452 -0.0118,0.57822 0.002,0.80664 0.0998,0.26207 0.23168,0.53999 0.29882,0.8164 -0.0817,-0.31765 -0.0621,-0.59131 -0.0176,-0.84765 C 419.85432,520.91538 419.73617,520.65218 419.64174,520.4031 z m -1.57226,0.37695 -0.0547,0.11523 c -0.0232,0.40244 -0.0709,0.80315 -0.19531,1.19336 C 417.9677,521.70323 418.08973,521.32492 418.06948,520.78005 z m 1.45312,0.16406 c -0.0239,0.0128 -0.0512,0.0432 -0.082,0.0898 0.10941,1.21984 -0.96653,2.15581 -0.84961,2.92773 l -0.3125,-0.42969 c -0.84591,1.22602 -0.0186,0.67439 -0.59375,1.60352 0.21156,-0.36499 -0.11082,-0.15096 0.16406,-0.56445 -0.18267,0.0103 -0.81396,0.77789 -1.39257,1.22851 -2.27251,1.82149 -4.98647,2.05888 -7.61329,1.07813 -0.10216,0.0836 0.46925,0.53166 0.89063,0.74804 1.00037,0.36988 2.13051,0.38427 3.02148,0.35157 -1.11637,0.46694 -2.81347,0.10228 -4.2832,-0.69336 0.0631,0.0492 0.11896,0.0969 0.18359,0.14648 0.17476,0.118 0.20075,0.18707 0.1875,0.24805 2.62682,0.98075 5.34078,0.74141 7.61329,-1.08008 0.57861,-0.45062 1.2099,-1.21625 1.39257,-1.22656 -0.27488,0.41349 0.0475,0.19946 -0.16406,0.56445 0.57518,-0.92913 -0.25216,-0.37945 0.59375,-1.60547 l 0.3125,0.42969 c -0.11692,-0.77192 0.95902,-1.7079 0.84961,-2.92774 0.0607,-0.0917 0.10744,-0.11141 0.14063,-0.0801 C 419.67054,521.25005 419.64742,520.87703 419.5226,520.94411 z m -10.67969,6.73438 c -0.0132,0.061 -0.0643,0.11334 -0.041,0.20312 -0.73963,-0.34607 -1.41732,-0.86761 -1.97461,-1.50781 0.29586,0.43242 0.61486,0.85138 1.02734,1.18164 -0.698,-0.23566 -1.63092,-1.68889 -1.90234,-1.74805 1.20233,2.15275 4.87736,3.77603 6.80273,2.97071 -0.89097,0.0327 -2.02111,0.0164 -3.02148,-0.35352 C 409.31216,528.2082 408.74075,527.7621 408.84291,527.67849 z m 0,-0.80078 c 0.0132,-0.061 -0.0127,-0.1281 -0.1875,-0.2461 -1.83026,-1.40275 -3.02764,-2.65046 -3.14843,-4.9082 -0.12281,2.3541 0.76044,3.69578 2.26953,4.99219 0.0257,0.0116 0.0529,0.0325 0.0781,0.041 -0.41248,-0.33026 -0.73148,-0.75117 -1.02734,-1.18359 0.55729,0.6402 1.23498,1.16369 1.97461,1.50976 C 408.77862,526.993 408.82967,526.93868 408.84291,526.87771 z m 10.78321,-5.22657 c -0.006,0.0455 -0.0206,0.10193 -0.0312,0.15235 0.0759,0.15511 0.042,0.68961 -0.14063,1.28906 C 419.73469,522.35703 419.64119,522.09322 419.62612,521.65114 z m -23.34375,0.26758 c -0.0101,0.41377 -0.0103,0.82845 0.008,1.23828 0.002,-0.19949 -0.007,-0.39771 0.004,-0.59765 C 396.28077,522.35352 396.28451,522.134 396.28237,521.91872 z m 0.008,2.00977 c -0.0828,6.8623 5.12144,13.40227 10.8125,14.94336 0.85729,0.30721 2.13249,0.29588 3.2168,0.32617 -1.27899,-0.36604 -1.44476,-0.19447 -2.69141,-0.62891 -0.40947,-0.19306 -0.66652,-0.40044 -0.89258,-0.61914 C 401.41045,536.30101 396.59326,530.34476 396.29018,523.92849 z m 1.83789,1.69336 -0.0117,0.10937 c 0.0221,0.0442 0.0458,0.0865 0.0664,0.13086 l 0.0117,-0.11719 C 398.16639,525.71244 398.1529,525.6592 398.12807,525.62185 z m 1.66211,3.40039 c 0.0697,0.25835 0.27103,0.64999 0.5332,1.04101 C 400.10884,529.53104 399.94065,529.23576 399.79018,529.02224 Z"
       id="path4666"
       inkscape:connector-curvature="0" />
    <path
       style="fill:#ffffff;fill-opacity:0.23529412;display:inline"
       d="m 408.19252,508.39796 c -0.78123,0.0476 -1.86598,0.45517 -1.53125,0.084 -1.27454,0.56897 -3.53817,1.36731 -4.80859,2.5586 l -0.0391,-0.26758 c -0.58203,0.69867 -2.53947,2.08842 -2.69531,2.99414 l -0.15625,0.0352 c -0.30242,0.51288 -0.49816,1.09374 -0.73829,1.62109 -0.39593,0.67529 -0.57981,0.25928 -0.52343,0.36523 -0.77912,1.57966 -1.16792,2.90699 -1.50196,3.9961 0.0291,0.0436 0.05,0.11015 0.0664,0.19336 0.3218,-1.05265 0.70086,-2.2995 1.43555,-3.78906 -0.0564,-0.10595 0.1275,0.31005 0.52343,-0.36524 0.24013,-0.52735 0.43587,-1.10821 0.73829,-1.62109 l 0.15625,-0.0371 c 0.15584,-0.90572 2.11328,-2.29352 2.69531,-2.99219 l 0.0391,0.26758 c 1.27042,-1.19129 3.53405,-1.98963 4.80859,-2.5586 -0.33473,0.37119 0.75002,-0.0364 1.53125,-0.084 -0.2463,0.13765 -0.49182,0.24623 -0.72265,0.4082 0.93775,-0.2235 0.89317,0.0914 1.85156,-0.0351 -0.33643,0.0485 -0.74459,0.18172 -0.67969,0.23242 1.07087,0.12363 1.23548,-0.33023 2.22657,0 l -0.0625,-0.29297 c 1.37707,0.49675 1.66575,0.41113 3.1621,1.20508 0.52464,0.0254 0.57621,-0.32299 1.36915,0 0.13966,0.24496 -0.0316,0.29144 0.94335,0.87109 0.10798,-0.0434 -0.19446,-0.31992 -0.43359,-0.53906 1.74434,0.93235 3.61512,2.80697 4.46484,4.89258 0.0347,-0.0123 0.11229,0.0803 0.27344,0.37695 -0.64984,-2.38911 -2.77915,-4.62277 -4.73828,-5.66992 0.23913,0.21914 0.54157,0.49571 0.43359,0.53906 -0.97495,-0.57965 -0.80369,-0.62613 -0.94335,-0.87109 -0.79294,-0.32299 -0.84451,0.0273 -1.36915,0.002 -1.49635,-0.79395 -1.78503,-0.71028 -3.1621,-1.20703 l 0.0625,0.29297 c -0.99109,-0.33023 -1.1557,0.12363 -2.22657,0 -0.0649,-0.0507 0.34326,-0.18391 0.67969,-0.23242 -0.95839,0.12655 -0.91381,-0.18835 -1.85156,0.0351 C 407.7007,508.64419 407.94622,508.53561 408.19252,508.39796 z m 12.12305,7.53516 c -0.0564,-5.1e-4 -0.0195,0.22829 0.0137,0.45312 0.0541,-0.0189 0.0264,-0.23011 -0.006,-0.44726 C 420.3218,515.93865 420.31702,515.93313 420.31557,515.93312 z m -1.1543,0.1914 c -0.0639,0.0671 -0.0662,0.24789 0.0899,0.73438 0.34549,0.50141 0.0695,-0.50817 0.49609,0.38281 0.005,0.28265 0.0781,0.57853 0.1543,0.89844 0.0369,0.0512 0.0749,0.0901 0.10937,0.0957 -0.0939,-0.55145 -0.25679,-0.97108 -0.26367,-1.39453 -0.42656,-0.89098 -0.1506,0.1186 -0.49609,-0.38281 C 419.20618,516.31844 419.18304,516.21968 419.16127,516.12452 z m 1.18164,0.36524 c 0.0204,0.1526 0.0259,0.27006 -0.01,0.29297 0.2939,0.74501 0.49948,1.4887 0.61133,1.88476 C 420.81256,517.91903 420.59953,517.19325 420.34291,516.48976 z m -10.14453,0.24023 c -1.52087,0.0247 -2.94518,0.99145 -3.41992,2.04102 -0.77882,0.4902 -0.8698,1.88985 -1.20898,2.14648 -0.0693,0.50892 -0.0854,0.96182 -0.0762,1.39063 0.01,-0.31417 0.0279,-0.63618 0.0762,-0.99024 0.33918,-0.25663 0.43016,-1.65824 1.20898,-2.14844 0.47474,-1.04957 1.89905,-2.01436 3.41992,-2.03906 0.66607,-0.0363 1.28159,0.11666 1.82618,0.36524 0.63887,0.17576 1.22511,0.48875 1.69335,0.92578 C 413.06018,517.55933 411.75016,516.64537 410.19838,516.72999 z m -10.99218,0.77539 c -0.0788,0.11193 -0.21327,0.26906 -0.26172,0.35352 l 0.10742,0.0195 c 0.0568,-0.12413 0.11603,-0.23598 0.16992,-0.3711 L 399.2062,517.50538 z m 20.41406,0.65625 c -0.0154,-4.3e-4 -0.0297,0.009 -0.043,0.0293 0.0943,0.44329 0.21619,0.70247 0.32422,0.88086 0.0381,-0.18877 0.12257,-0.0788 0.16015,-0.17188 -0.0703,-0.0408 -0.22879,-0.26481 -0.36523,-0.67383 C 419.66984,518.19291 419.64333,518.16228 419.62026,518.16163 z m 0.28515,1.2793 c -0.0121,0.0475 -0.0208,0.1133 -0.0234,0.22265 0.0379,0.72152 0.15945,0.75021 0.27148,0.71094 0.0553,-0.14241 0.12174,-0.30287 0.15039,-0.43164 C 420.1958,519.89549 419.98406,520.22578 419.90541,519.44093 z m -1.86718,0.97265 c -0.002,0.57524 -0.0439,1.15682 -0.22852,1.71485 l 0.16797,-0.35156 C 418.04106,521.32033 418.04784,520.86773 418.03823,520.41358 z m -21.73633,0.75586 c -0.0106,0.40642 -0.0218,0.85911 -0.0234,1.31446 C 396.28815,521.99866 396.29935,521.55901 396.3019,521.16944 z m 23.5918,0.57032 c -0.004,0.042 -0.008,0.0835 -0.01,0.12695 0.0174,0.0542 0.0454,0.10593 0.0586,0.16016 C 419.91694,521.92741 419.90392,521.83265 419.8937,521.73976 z m -0.25977,0.0976 c -0.001,0.041 -0.006,0.0853 -0.006,0.12305 0.003,0.0499 7.3e-4,0.10748 -0.002,0.17187 0.003,0.054 0.006,0.10365 0.01,0.1543 C 419.64332,522.13301 419.64436,521.98261 419.63393,521.83741 z m -1.56445,0.14453 -0.0234,0.0508 c -0.0631,0.54799 -0.26975,0.92909 -0.4668,1.49804 l -0.44531,0.22071 c -0.28595,0.55567 -0.11032,0.5274 -0.14453,0.75781 0.0193,-0.0829 0.0583,-0.18992 0.14453,-0.35742 l 0.44531,-0.22266 C 417.82658,523.21504 418.10038,522.81307 418.06948,521.98194 z m -11.75977,0.0293 c -0.0175,0.23509 -0.0187,0.4719 0,0.70899 0.0638,-0.0929 0.11989,-0.0344 0.15039,-0.26563 -0.0523,3.64507 3.92936,6.31726 6.79492,4.96875 l 0.0332,0.0742 c 1.1624,-0.3175 1.01156,-0.57811 1.77148,-1.09961 -0.0592,0.12212 -0.51225,0.43841 -0.24219,0.44141 0.36944,-0.0984 1.52352,-1.17309 2.0918,-1.67774 0.19356,-0.41677 0.0246,-0.38392 0.0723,-0.62695 -0.0114,0.0601 -0.0222,0.11864 -0.0723,0.22656 -0.56828,0.50465 -1.72236,1.57932 -2.0918,1.67774 -0.27006,-0.003 0.18301,-0.31929 0.24219,-0.44141 -0.75992,0.5215 -0.60908,0.78406 -1.77148,1.10156 l -0.0332,-0.0762 c -2.86556,1.34851 -6.84718,-1.32368 -6.79492,-4.96875 -0.0305,0.23118 -0.0866,0.17276 -0.15039,0.26562 C 406.30158,522.21668 406.31089,522.11426 406.30971,522.01124 z m 13.30274,0.27734 c -0.0235,0.23445 -0.0666,0.50392 -0.15821,0.80469 0.12015,-0.31511 0.15976,-0.53069 0.17774,-0.72265 C 419.62983,522.33196 419.61797,522.31785 419.61245,522.28858 z m -23.32032,1.36915 c -0.0114,0.34944 -0.0197,0.6994 -0.004,1.04687 -0.005,-0.3145 -0.0116,-0.62953 0.006,-0.94531 C 396.29197,523.7266 396.29392,523.69077 396.29213,523.65773 z m 1.48633,0.42187 c -0.0139,0.85158 0.0732,1.59427 0.38281,2.00391 l 0.0332,-0.33789 C 397.90367,525.4096 397.79714,524.7973 397.77846,524.0796 z m 20.11914,1.33984 c -0.0151,0.0519 -0.0253,0.0988 -0.0254,0.13477 C 417.88929,525.50004 417.89668,525.45661 417.8976,525.41944 z m -11.94531,0.38868 c 0.27361,0.48989 0.68802,0.94479 1.16797,1.35742 -0.0985,-0.12972 -0.20102,-0.25624 -0.29297,-0.39063 0.27864,0.3201 0.5866,0.60928 0.91797,0.86328 0.13315,0.10207 0.27205,0.19545 0.41211,0.28516 0.20844,0.12471 0.42816,0.22821 0.64648,0.33398 -0.007,-0.0723 0.0268,-0.12427 0.0391,-0.17773 0.0132,-0.061 -0.0127,-0.13005 -0.1875,-0.24805 -0.0367,-0.0281 -0.0673,-0.056 -0.10351,-0.084 -0.64094,-0.34154 -1.23155,-0.80663 -1.72461,-1.37305 0.29586,0.43242 0.61486,0.85138 1.02734,1.18164 C 407.15663,527.3205 406.22371,525.86728 405.95229,525.80812 z m 2.89062,2.27148 c -0.0518,0.0424 0.0706,0.17605 0.25782,0.32813 1.30472,0.56833 2.69584,0.77198 3.65429,0.37109 -0.89097,0.0327 -2.02111,0.0164 -3.02148,-0.35352 -0.0646,-0.0332 -0.12862,-0.087 -0.19727,-0.1289 C 409.30491,528.22938 409.07331,528.16562 408.84291,528.0796 z m 8.89258,-2.23633 c -0.005,0.003 -0.01,0.006 -0.0156,0.01 -0.0119,0.0283 -0.0111,0.0426 -0.0352,0.084 C 417.70835,525.89883 417.71637,525.87669 417.73549,525.84327 z m -19.58593,0.75391 -0.0332,0.33398 c 0.0634,0.1269 0.13045,0.24955 0.19141,0.375 -0.0133,-0.0404 -0.0235,-0.0565 -0.0371,-0.0996 l 0.18164,-0.0156 C 398.32758,527.00183 398.2458,526.7985 398.14956,526.59718 z m 0.26367,0.99805 -0.14258,0.0117 c 0.7902,2.49362 0.91551,0.48197 1.81641,2.34766 0.0835,0.053 0.16047,0.0838 0.23632,0.10938 C 399.26149,527.42972 399.1314,529.54717 398.41323,527.59523 z m 1.33984,2.43164 c -0.0253,0.21597 0.26775,0.80759 0.64063,1.33984 l 0.15625,-0.17773 c -0.24062,-0.31017 -0.45375,-0.66268 -0.60157,-0.96485 C 399.88618,530.16682 399.82723,530.12695 399.75307,530.02687 z m 0.75781,1.60742 -0.15039,0.16992 c 0.18727,0.34066 0.35439,0.47406 0.50391,0.58984 -0.16148,-0.29227 -0.18218,-0.4578 0.14844,-0.27734 C 400.87521,531.99135 400.70173,531.89357 400.51088,531.63429 z m 0.27149,0.80859 c -0.27814,0.0812 1.11416,1.78384 1.25586,2.02735 l 0.14453,-0.25586 c -0.021,0.36703 0.26308,0.84039 0.79492,1.49609 l 0.44336,-0.0176 c 0.15028,0.29799 0.62293,0.77313 1.01367,0.95508 l 0.24024,-0.3125 c -0.40487,-0.0309 -1.07159,-0.68146 -1.25391,-1.04297 l -0.44336,0.0176 c -0.53184,-0.6557 -0.81593,-1.12906 -0.79492,-1.49609 l -0.14453,0.25585 c -0.0985,-0.16922 -0.79496,-1.0393 -1.1211,-1.58398 C 400.86876,532.46814 400.80564,532.43609 400.78237,532.44288 z m 3.85742,4.33789 -0.23438,0.30664 c 1.01622,0.32168 0.4935,0.42704 1.74219,0.86914 l -0.25195,-0.44726 c 0.63709,0.55285 0.83352,1.03712 1.73242,1.46094 0.12302,0.0429 0.19867,0.0596 0.30274,0.0918 0.74732,0.11058 1.61401,0.11508 2.38867,0.13672 -1.27899,-0.36604 -1.44476,-0.19447 -2.69141,-0.62891 -0.8989,-0.42382 -1.09533,-0.90613 -1.73242,-1.45898 l 0.25195,0.44531 C 405.03828,537.16341 405.27407,537.02969 404.63979,536.78077 Z"
       id="path4671"
       inkscape:connector-curvature="0" />
  </g>
</svg>
