<?xml version="1.0" encoding="UTF-8" standalone="no"?>
<!-- Created with Inkscape (http://www.inkscape.org/) -->

<svg
   xmlns:dc="http://purl.org/dc/elements/1.1/"
   xmlns:cc="http://creativecommons.org/ns#"
   xmlns:rdf="http://www.w3.org/1999/02/22-rdf-syntax-ns#"
   xmlns:svg="http://www.w3.org/2000/svg"
   xmlns="http://www.w3.org/2000/svg"
   xmlns:xlink="http://www.w3.org/1999/xlink"
   xmlns:sodipodi="http://sodipodi.sourceforge.net/DTD/sodipodi-0.dtd"
   xmlns:inkscape="http://www.inkscape.org/namespaces/inkscape"
   width="48"
   height="48"
   id="svg5453"
   version="1.1"
   inkscape:version="0.48+devel r12487"
   sodipodi:docname="distributor-logo-chakra.svg">
  <defs
     id="defs5455">
    <linearGradient
       id="linearGradient4093"
       inkscape:collect="always">
      <stop
         id="stop4095"
         offset="0"
         style="stop-color:#cadeee;stop-opacity:1" />
      <stop
         id="stop4097"
         offset="1"
         style="stop-color:#f8fafc;stop-opacity:1" />
    </linearGradient>
    <linearGradient
       inkscape:collect="always"
       id="linearGradient4606">
      <stop
         style="stop-color:#2b5b83;stop-opacity:1"
         offset="0"
         id="stop4608" />
      <stop
         style="stop-color:#5783a7;stop-opacity:1"
         offset="1"
         id="stop4610" />
    </linearGradient>
    <linearGradient
       inkscape:collect="always"
       xlink:href="#linearGradient4606"
       id="linearGradient4612"
       x1="408.72192"
       y1="-547.79987"
       x2="408.72192"
       y2="-499.80991"
       gradientUnits="userSpaceOnUse" />
    <linearGradient
       inkscape:collect="always"
       xlink:href="#linearGradient4093"
       id="linearGradient4091"
       x1="415.82227"
       y1="539.14447"
       x2="415.82227"
       y2="508.45151"
       gradientUnits="userSpaceOnUse" />
  </defs>
  <sodipodi:namedview
     id="base"
     pagecolor="#ffffff"
     bordercolor="#666666"
     borderopacity="1.0"
     inkscape:pageopacity="0"
     inkscape:pageshadow="2"
     inkscape:zoom="8.0148699"
     inkscape:cx="25.389532"
     inkscape:cy="27.496985"
     inkscape:document-units="px"
     inkscape:current-layer="layer1"
     showgrid="false"
     fit-margin-top="0"
     fit-margin-left="0"
     fit-margin-right="0"
     fit-margin-bottom="0"
     inkscape:window-width="1366"
     inkscape:window-height="718"
     inkscape:window-x="0"
     inkscape:window-y="30"
     inkscape:window-maximized="1" />
  <metadata
     id="metadata5458">
    <rdf:RDF>
      <cc:Work
         rdf:about="">
        <dc:format>image/svg+xml</dc:format>
        <dc:type
           rdf:resource="http://purl.org/dc/dcmitype/StillImage" />
        <dc:title></dc:title>
      </cc:Work>
    </rdf:RDF>
  </metadata>
  <g
     inkscape:label="Capa 1"
     inkscape:groupmode="layer"
     id="layer1"
     transform="translate(-384.57143,-499.798)">
    <rect
       style="fill:url(#linearGradient4612);fill-opacity:1;stroke:none"
       id="rect2991-1-7"
       width="48"
       height="48"
       x="384.57144"
       y="-547.79797"
       ry="1.9445436"
       transform="scale(1,-1)" />
    <path
       id="path4105"
       d="m 409.31301,509.59853 c -3.5344,0.11129 9.41665,17.46035 -0.55641,16.35253 8.31636,2.23714 10.22102,-8.18747 8.52259,-13.2866 -1.68244,-5.05112 -2.5575,-1.89978 -7.57153,-3.02163 -0.14964,-0.0335 -0.28064,-0.0479 -0.39465,-0.0443 z m -9.90991,2.41758 c -5.46701,-0.007 -2.65009,1.77544 -5.29826,6.05938 -2.52912,4.09134 19.97925,-3.23639 15.67799,5.91775 4.76096,-6.98908 -4.86078,-11.96996 -10.37973,-11.97713 z m 3.84718,7.83262 c -4.37422,-0.0101 -8.7764,4.81514 -10.00724,8.47695 -1.69634,5.04674 0.9195,2.99666 4.29687,6.76613 3.22554,3.6 3.00437,-19.45145 10.64082,-12.65033 -1.51141,-1.84405 -3.2188,-2.5888 -4.93045,-2.59275 z m 18.95065,0.81682 c -2.71606,-0.20541 -13.84286,13.72692 -15.67867,4.94455 0.37883,8.37171 11.17786,6.90956 15.64712,3.7653 4.4272,-3.11467 1.0695,-2.94864 0.61882,-7.92591 -0.0471,-0.51992 -0.25372,-0.75871 -0.58727,-0.78394 z m -16.03439,2.77531 c -8.08223,2.93686 -3.31287,12.4577 1.14771,15.61357 4.4186,3.12615 3.2186,0.077 7.9541,-1.87728 4.52261,-1.86641 -18.12266,-8.78547 -9.10181,-13.73629 z"
       style="fill:#000000;fill-opacity:0.05882353;fill-rule:evenodd;stroke:none"
       inkscape:connector-curvature="0" />
    <path
       inkscape:connector-curvature="0"
       style="fill:#000000;fill-opacity:0.11764706;fill-rule:evenodd;stroke:none"
       d="m 409.31301,509.19853 c -3.5344,0.11129 9.41665,17.46035 -0.55641,16.35253 8.31636,2.23714 10.22102,-8.18747 8.52259,-13.2866 -1.68244,-5.05112 -2.5575,-1.89978 -7.57153,-3.02163 -0.14964,-0.0335 -0.28064,-0.0479 -0.39465,-0.0443 z m -9.90991,2.41758 c -5.46701,-0.007 -2.65009,1.77544 -5.29826,6.05938 -2.52912,4.09134 19.97925,-3.23639 15.67799,5.91775 4.76096,-6.98908 -4.86078,-11.96996 -10.37973,-11.97713 z m 3.84718,7.83262 c -4.37422,-0.0101 -8.7764,4.81514 -10.00724,8.47695 -1.69634,5.04674 0.9195,2.99666 4.29687,6.76613 3.22554,3.6 3.00437,-19.45145 10.64082,-12.65033 -1.51141,-1.84405 -3.2188,-2.5888 -4.93045,-2.59275 z m 18.95065,0.81682 c -2.71606,-0.20541 -13.84286,13.72692 -15.67867,4.94455 0.37883,8.37171 11.17786,6.90956 15.64712,3.7653 4.4272,-3.11467 1.0695,-2.94864 0.61882,-7.92591 -0.0471,-0.51992 -0.25372,-0.75871 -0.58727,-0.78394 z m -16.03439,2.77531 c -8.08223,2.93686 -3.31287,12.4577 1.14771,15.61357 4.4186,3.12615 3.2186,0.077 7.9541,-1.87728 4.52261,-1.86641 -18.12266,-8.78547 -9.10181,-13.73629 z"
       id="path4103" />
    <path
       id="path4099"
       d="m 409.31301,508.79853 c -3.5344,0.11129 9.41665,17.46035 -0.55641,16.35253 8.31636,2.23714 10.22102,-8.18747 8.52259,-13.2866 -1.68244,-5.05112 -2.5575,-1.89978 -7.57153,-3.02163 -0.14964,-0.0335 -0.28064,-0.0479 -0.39465,-0.0443 z m -9.90991,2.41758 c -5.46701,-0.007 -2.65009,1.77544 -5.29826,6.05938 -2.52912,4.09134 19.97925,-3.23639 15.67799,5.91775 4.76096,-6.98908 -4.86078,-11.96996 -10.37973,-11.97713 z m 3.84718,7.83262 c -4.37422,-0.0101 -8.7764,4.81514 -10.00724,8.47695 -1.69634,5.04674 0.9195,2.99666 4.29687,6.76613 3.22554,3.6 3.00437,-19.45145 10.64082,-12.65033 -1.51141,-1.84405 -3.2188,-2.5888 -4.93045,-2.59275 z m 18.95065,0.81682 c -2.71606,-0.20541 -13.84286,13.72692 -15.67867,4.94455 0.37883,8.37171 11.17786,6.90956 15.64712,3.7653 4.4272,-3.11467 1.0695,-2.94864 0.61882,-7.92591 -0.0471,-0.51992 -0.25372,-0.75871 -0.58727,-0.78394 z m -16.03439,2.77531 c -8.08223,2.93686 -3.31287,12.4577 1.14771,15.61357 4.4186,3.12615 3.2186,0.077 7.9541,-1.87728 4.52261,-1.86641 -18.12266,-8.78547 -9.10181,-13.73629 z"
       style="fill:#000000;fill-opacity:0.23529412;fill-rule:evenodd;stroke:none"
       inkscape:connector-curvature="0" />
    <path
       inkscape:connector-curvature="0"
       style="fill:#000000;fill-opacity:1;stroke:none"
       d="m 384.57143,544.79799 0,1.0625 c 0,1.0773 0.86022,1.9375 1.9375,1.9375 l 44.125,0 c 1.07728,0 1.9375,-0.8602 1.9375,-1.9375 l 0,-1.0625 c 0,1.0773 -0.86022,1.9375 -1.9375,1.9375 l -44.125,0 C 385.43165,546.73549 384.57143,545.87529 384.57143,544.79799 Z"
       id="rect846" />
    <path
       inkscape:connector-curvature="0"
       style="fill:#ffffff;fill-opacity:0.5372549;stroke:none"
       d="m 387.10268,500.45429 c -0.91709,0 -1.67115,0.6395 -1.84375,1.5 0.33561,-0.2799 0.77451,-0.4375 1.25,-0.4375 l 44.125,0 c 0.47549,0 0.91439,0.1576 1.25,0.4375 -0.1726,-0.8605 -0.92666,-1.5 -1.84375,-1.5 L 387.10268,500.45429 Z"
       id="path7515" />
    <path
       inkscape:connector-curvature="0"
       style="fill:#000000;fill-opacity:0.39215686;stroke:none"
       d="m 386.50893,499.79799 c -1.07728,0 -1.9375,0.8602 -1.9375,1.9375 l 0,43.0625 c 0,0.7934 0.48002,1.449 1.15625,1.75 -0.30934,-0.3333 -0.5,-0.7824 -0.5,-1.2812 l 0,-42.9375 c 0,-1.0482 0.8269,-1.875 1.875,-1.875 l 42.9375,0 c 1.0481,0 1.875,0.8268 1.875,1.875 l 0,42.9375 c 0,0.4988 -0.19066,0.9479 -0.5,1.2812 0.67623,-0.301 1.15625,-0.9566 1.15625,-1.75 l 0,-43.0625 c 0,-1.0773 -0.86022,-1.9375 -1.9375,-1.9375 L 386.50893,499.79799 Z"
       id="rect4280" />
    <path
       inkscape:connector-curvature="0"
       style="fill:url(#linearGradient4091);fill-opacity:1;fill-rule:evenodd;stroke:none"
       d="m 409.31301,508.39853 c -3.5344,0.11129 9.41665,17.46035 -0.55641,16.35253 8.31636,2.23714 10.22102,-8.18747 8.52259,-13.2866 -1.68244,-5.05112 -2.5575,-1.89978 -7.57153,-3.02163 -0.14964,-0.0335 -0.28064,-0.0479 -0.39465,-0.0443 z m -9.90991,2.41758 c -5.46701,-0.007 -2.65009,1.77544 -5.29826,6.05938 -2.52912,4.09134 19.97925,-3.23639 15.67799,5.91775 4.76096,-6.98908 -4.86078,-11.96996 -10.37973,-11.97713 z m 3.84718,7.83262 c -4.37422,-0.0101 -8.7764,4.81514 -10.00724,8.47695 -1.69634,5.04674 0.9195,2.99666 4.29687,6.76613 3.22554,3.6 3.00437,-19.45145 10.64082,-12.65033 -1.51141,-1.84405 -3.2188,-2.5888 -4.93045,-2.59275 z m 18.95065,0.81682 c -2.71606,-0.20541 -13.84286,13.72692 -15.67867,4.94455 0.37883,8.37171 11.17786,6.90956 15.64712,3.7653 4.4272,-3.11467 1.0695,-2.94864 0.61882,-7.92591 -0.0471,-0.51992 -0.25372,-0.75871 -0.58727,-0.78394 z m -16.03439,2.77531 c -8.08223,2.93686 -3.31287,12.4577 1.14771,15.61357 4.4186,3.12615 3.2186,0.077 7.9541,-1.87728 4.52261,-1.86641 -18.12266,-8.78547 -9.10181,-13.73629 z"
       id="path7241" />
    <path
       style="fill:#2c5b83;fill-opacity:0.31372549;fill-rule:evenodd;stroke:none"
       d="m 408.72768,508.84264 c -0.49341,1.77753 3.5619,8.49226 3.86523,12.625 0.23469,-3.56997 -3.44191,-9.9426 -3.86523,-12.625 z m 9.10547,5.91797 c -0.0548,4.22867 -1.84623,8.95765 -6.13477,9.45312 -0.60551,0.4734 -1.54107,0.69266 -2.9414,0.53711 6.76391,1.81953 9.28386,-4.73567 9.07617,-9.99023 z m -23.7793,2.22265 c -0.97028,1.83088 3.53278,1.18562 8.05078,0.98047 0.38086,-0.0691 0.76392,-0.11612 1.14649,-0.11523 0.26368,6e-4 0.52628,0.0254 0.78906,0.0625 3.19602,-0.008 5.96895,0.45025 6.25195,2.49218 0.84474,-5.93841 -14.6065,-1.67668 -16.23828,-3.41992 z m 16.99024,1.68945 c -0.0588,0.78131 -0.29822,1.60098 -0.74805,2.45508 -0.0582,0.48462 -0.21623,1.03299 -0.51367,1.66602 1.00298,-1.47237 1.36254,-2.8547 1.26172,-4.1211 z m -5.41993,0.51172 c -5.07815,-0.10112 -5.26908,17.04794 -8.08398,13.90625 -2.47069,-2.75752 -4.52543,-2.40872 -4.79102,-3.99414 -0.30348,2.54273 1.97372,1.65054 4.79102,4.79492 3.22554,3.6 3.00417,-19.45151 10.64063,-12.65039 -0.80562,-0.98292 -1.6687,-1.64408 -2.55665,-2.05664 z m 0.54297,3.05664 c -0.75187,0.27321 -1.39161,0.60373 -1.93164,0.98047 -0.19871,0.42174 -0.24578,0.85037 -0.16015,1.28321 0.15349,-0.78157 0.78004,-1.54376 2.09179,-2.26368 z m 0.35547,2.16797 c 0.37883,8.37171 11.17723,6.90989 15.64649,3.76563 2.03719,-1.43323 2.41899,-2.17243 2.20117,-3.03711 -0.18083,0.5954 -0.80057,1.25291 -2.20117,2.23828 -4.13545,2.90941 -13.68231,4.3706 -15.38672,-2.05859 -0.0978,-0.27396 -0.18873,-0.56837 -0.25977,-0.90821 z m -4.70312,3.02735 c -0.30192,3.82612 2.65595,8.40995 5.49414,10.41797 4.4186,3.12615 3.21958,0.0773 7.95508,-1.87696 0.64382,-0.26569 0.72313,-0.63766 0.43554,-1.08789 -0.0988,0.1049 -0.23023,0.20238 -0.43554,0.28711 -4.7355,1.95428 -3.53648,5.0031 -7.95508,1.87695 -2.64328,-1.87012 -5.37256,-5.9714 -5.49414,-9.61718 z"
       id="path4107"
       inkscape:connector-curvature="0" />
    <path
       style="fill:#ffffff;fill-opacity:0.23529412;fill-rule:evenodd;stroke:none"
       d="m 409.31362,508.39851 c -0.50895,0.016 -0.66838,0.39913 -0.61133,1.02344 0.0429,-0.38026 0.22344,-0.61083 0.61133,-0.62305 0.11401,-0.004 0.24489,0.0114 0.39453,0.0449 5.01403,1.12185 5.88787,-2.02964 7.57031,3.02148 0.31776,0.954 0.50951,2.09372 0.55664,3.30273 -0.0173,-1.35481 -0.20448,-2.64586 -0.55664,-3.70312 -1.68244,-5.05112 -2.55628,-1.89964 -7.57031,-3.02149 -0.14964,-0.0335 -0.28052,-0.0485 -0.39453,-0.0449 z m -9.91016,2.41797 c -5.46701,-0.007 -2.65066,1.77661 -5.29883,6.06055 -0.18789,0.30394 -0.22347,0.53722 -0.15625,0.72656 0.0325,-0.10072 0.0824,-0.20861 0.15625,-0.32812 2.64817,-4.28394 -0.16818,-6.0656 5.29883,-6.0586 4.41991,0.006 11.46274,3.20387 11.65039,8.06641 0.19859,-5.08711 -7.11009,-8.4609 -11.65039,-8.4668 z m 3.84766,7.83399 c -4.37422,-0.0101 -8.77697,4.81475 -10.00781,8.47656 -0.40125,1.19373 -0.55383,1.98219 -0.51954,2.55273 0.0409,-0.52988 0.20536,-1.21763 0.51954,-2.15234 1.23084,-3.66181 5.63359,-8.48862 10.00781,-8.47852 1.1948,0.003 2.38432,0.37799 3.50976,1.22461 0.44171,0.20486 0.91203,0.51642 1.41993,0.96875 -1.51142,-1.84405 -3.21804,-2.58784 -4.92969,-2.59179 z m 18.94922,0.8164 c -2.71606,-0.20541 -13.84193,13.72573 -15.67774,4.94336 0.009,0.20432 0.0294,0.39908 0.0508,0.5918 1.96582,8.35933 12.93235,-5.33855 15.62696,-5.13477 0.33355,0.0252 0.54079,0.26329 0.58789,0.78321 0.25796,2.84893 1.46335,4.0118 1.62109,5.07031 0.15714,-1.19033 -1.33061,-2.26259 -1.62109,-5.4707 -0.0471,-0.51992 -0.25434,-0.75798 -0.58789,-0.78321 z m -11.88868,1.45117 c -0.0289,0.53377 -0.18702,1.14852 -0.52929,1.87696 0.13719,-0.20141 0.25929,-0.40161 0.37304,-0.59961 0.13784,-0.4798 0.18958,-0.90481 0.15625,-1.27735 z m 2.28907,1.26758 c -0.0841,1.76363 -1.0841,2.87295 -3.84375,2.56641 0.72354,0.19463 1.39511,0.28793 2.02343,0.30273 1.37393,-0.36701 1.85576,-1.43622 1.82032,-2.86914 z m -6.4336,0.0566 c -3.16184,1.14893 -4.33941,3.30835 -4.35547,5.69727 0.1165,-1.83044 0.96732,-3.49537 2.92188,-4.63281 0.34117,-0.36268 0.80341,-0.7186 1.43359,-1.06446 z m -2.12695,2.80274 c -0.48074,3.92993 11.03589,8.32857 11.7832,10.48047 0.81886,-1.90026 -11.46777,-6.39156 -11.7832,-10.48047 z"
       id="path4112"
       inkscape:connector-curvature="0" />
  </g>
</svg>
