<?xml version="1.0" encoding="UTF-8" standalone="no"?>
<!-- Created with Inkscape (http://www.inkscape.org/) -->

<svg
   xmlns:dc="http://purl.org/dc/elements/1.1/"
   xmlns:cc="http://creativecommons.org/ns#"
   xmlns:rdf="http://www.w3.org/1999/02/22-rdf-syntax-ns#"
   xmlns:svg="http://www.w3.org/2000/svg"
   xmlns="http://www.w3.org/2000/svg"
   xmlns:xlink="http://www.w3.org/1999/xlink"
   xmlns:sodipodi="http://sodipodi.sourceforge.net/DTD/sodipodi-0.dtd"
   xmlns:inkscape="http://www.inkscape.org/namespaces/inkscape"
   width="48"
   height="48"
   id="svg1239"
   version="1.1"
   inkscape:version="0.91pre2 r"
   sodipodi:docname="folder-music.svg">
  <defs
     id="defs1241">
    <style
       id="style1115"
       type="text/css"><![CDATA[ .fil0 {fill:#1F1A17} ]]></style>
    <style
       id="style1246"
       type="text/css"><![CDATA[ .fil0 {fill:#1F1A17} ]]></style>
    <style
       type="text/css"
       id="style1115-8"><![CDATA[ .fil0 {fill:#1F1A17} ]]></style>
    <style
       type="text/css"
       id="style1246-7"><![CDATA[ .fil0 {fill:#1F1A17} ]]></style>
    <style
       id="style1115-5"
       type="text/css"><![CDATA[ .fil0 {fill:#1F1A17} ]]></style>
    <style
       id="style1246-0"
       type="text/css"><![CDATA[ .fil0 {fill:#1F1A17} ]]></style>
    <linearGradient
       inkscape:collect="always"
       xlink:href="#linearGradient4308"
       id="linearGradient4241"
       x1="25"
       y1="40.000195"
       x2="25"
       y2="22"
       gradientUnits="userSpaceOnUse" />
    <linearGradient
       id="linearGradient4308"
       inkscape:collect="always">
      <stop
         id="stop4310"
         offset="0"
         style="stop-color:#bddbfb;stop-opacity:1" />
      <stop
         id="stop4312"
         offset="1"
         style="stop-color:#f5fbff;stop-opacity:1" />
    </linearGradient>
    <style
       id="style1115-3"
       type="text/css"><![CDATA[ .fil0 {fill:#1F1A17} ]]></style>
    <style
       id="style1246-8"
       type="text/css"><![CDATA[ .fil0 {fill:#1F1A17} ]]></style>
    <linearGradient
       id="linearGradient4121"
       inkscape:collect="always">
      <stop
         id="stop4123"
         offset="0"
         style="stop-color:#88cdfc;stop-opacity:1;" />
      <stop
         id="stop4125"
         offset="1"
         style="stop-color:#2da7fa;stop-opacity:0" />
    </linearGradient>
    <linearGradient
       inkscape:collect="always"
       id="linearGradient5070">
      <stop
         style="stop-color:#0e578e;stop-opacity:0"
         offset="0"
         id="stop5072" />
      <stop
         style="stop-color:#052f59;stop-opacity:1"
         offset="1"
         id="stop5074" />
    </linearGradient>
    <linearGradient
       inkscape:collect="always"
       id="linearGradient5020">
      <stop
         style="stop-color:#0986db;stop-opacity:1"
         offset="0"
         id="stop5022" />
      <stop
         style="stop-color:#2da7fa;stop-opacity:1"
         offset="1"
         id="stop5024" />
    </linearGradient>
    <linearGradient
       gradientTransform="translate(4.2320459e-6,-1e-4)"
       inkscape:collect="always"
       xlink:href="#linearGradient5020"
       id="linearGradient4333"
       x1="15.625"
       y1="1052.3624"
       x2="15.625"
       y2="1015.3622"
       gradientUnits="userSpaceOnUse" />
    <linearGradient
       gradientUnits="userSpaceOnUse"
       y2="4.9999999e-06"
       x2="16.617002"
       y1="10.999852"
       x1="16.617002"
       id="linearGradient5068"
       xlink:href="#linearGradient5070"
       inkscape:collect="always" />
    <linearGradient
       gradientUnits="userSpaceOnUse"
       y2="12.992188"
       x2="37.375008"
       y1="11.000093"
       x1="37.375008"
       id="linearGradient4127"
       xlink:href="#linearGradient4121"
       inkscape:collect="always" />
  </defs>
  <sodipodi:namedview
     id="base"
     pagecolor="#ffffff"
     bordercolor="#666666"
     borderopacity="1.0"
     inkscape:pageopacity="0.0"
     inkscape:pageshadow="2"
     inkscape:zoom="6.2313785"
     inkscape:cx="-18.330454"
     inkscape:cy="11.977795"
     inkscape:document-units="px"
     inkscape:current-layer="layer1"
     showgrid="true"
     fit-margin-top="0"
     fit-margin-left="0"
     fit-margin-right="0"
     fit-margin-bottom="0"
     inkscape:window-width="1366"
     inkscape:window-height="672"
     inkscape:window-x="-4"
     inkscape:window-y="25"
     inkscape:window-maximized="1">
    <sodipodi:guide
       position="-8.8671875e-06,47.999989"
       orientation="48,0"
       id="guide4211" />
    <sodipodi:guide
       position="47.999991,-1.1484375e-05"
       orientation="-48,0"
       id="guide4215" />
    <sodipodi:guide
       position="47.999991,47.999989"
       orientation="0,-48"
       id="guide4217" />
    <sodipodi:guide
       position="-8.8671875e-06,47.999989"
       orientation="48,0"
       id="guide4219" />
    <sodipodi:guide
       position="-8.8671875e-06,-1.1484375e-05"
       orientation="0,24"
       id="guide4221" />
    <sodipodi:guide
       position="23.999991,47.999989"
       orientation="0,-24"
       id="guide4225" />
    <sodipodi:guide
       position="27.999991,34.999714"
       orientation="0,-8"
       id="guide4239" />
    <sodipodi:guide
       position="19.999991,-7.2519531e-05"
       orientation="0,8"
       id="guide4251" />
    <inkscape:grid
       type="xygrid"
       id="grid4195" />
    <sodipodi:guide
       position="14.999991,25.999805"
       orientation="18,0"
       id="guide4179" />
    <sodipodi:guide
       position="14.999991,7.9998054"
       orientation="0,18"
       id="guide4181" />
    <sodipodi:guide
       position="32.999991,7.9998054"
       orientation="-18,0"
       id="guide4183" />
    <sodipodi:guide
       position="32.999991,25.999805"
       orientation="0,-18"
       id="guide4185" />
  </sodipodi:namedview>
  <metadata
     id="metadata1244">
    <rdf:RDF>
      <cc:Work
         rdf:about="">
        <dc:format>image/svg+xml</dc:format>
        <dc:type
           rdf:resource="http://purl.org/dc/dcmitype/StillImage" />
        <dc:title />
      </cc:Work>
    </rdf:RDF>
  </metadata>
  <g
     inkscape:label="Capa 1"
     inkscape:groupmode="layer"
     id="layer1"
     transform="translate(-644.57142,-419.79076)">
    <g
       id="g4252"
       transform="translate(644.57142,419.79076)">
      <g
         transform="translate(-2.220459e-7,-1004.3623)"
         id="layer1-2"
         inkscape:label="Capa 1">
        <path
           sodipodi:nodetypes="cccscccscccsccscccssscc"
           id="path4196"
           d="m 24.908197,1004.3625 c 4.447539,0 4.461192,3.4427 7.816406,4.3417 l 0.691407,0 12.646484,0 c 0.869187,0 1.58913,0.5635 1.837891,1.3457 0.02209,0.055 0.0402,0.1137 0.05469,0.1777 0.0081,0.038 0.0097,0.078 0.01563,0.1172 0.01012,0.072 0.0293,0.1338 0.0293,0.2168 l 0,0.08 0,3.498 0,36.2225 0,0.055 c 0,1.0773 -0.868032,1.945 -1.945312,1.9453 l -44.109375,0 c -1.07729103,-2e-4 -1.9453230279541,-0.8682 -1.9453230279541,-1.9455 l 0,-0.055 0,-1.0449 0,-40.6131 0,-2.3964 c 0,-0.5387 0.2166909979541,-1.0252 0.5683589979541,-1.3769 0.351669,-0.3517 0.83832003,-0.5684 1.37695303,-0.5684 l 22.96289,0 z"
           style="fill:#0f609c;fill-opacity:1;stroke:none"
           inkscape:connector-curvature="0" />
        <path
           id="rect5057"
           transform="translate(2.220459e-7,1004.3623)"
           d="M 1.9453125,0 C 1.4066795,0 0.92002838,0.21665937 0.56835938,0.56835938 0.21669137,0.92005937 0,1.4066125 0,1.9453125 L 0,4.3417969 0,11 48,11 48,9.7773438 48,6.2792969 48,6.1992189 C 48,6.1162189 47.98082,6.054422 47.9707,5.982422 47.9648,5.943222 47.9632,5.903234 47.95507,5.8652345 47.940588,5.8012344 47.922481,5.7425 47.900391,5.6875 47.65163,4.9053 46.931687,4.3417969 46.0625,4.3417969 l -12.646484,0 -0.691407,0 C 29.369395,3.4427969 29.355742,0 24.908203,0 L 1.9453125,0 Z"
           style="fill:url(#linearGradient5068);fill-opacity:1;stroke:none"
           inkscape:connector-curvature="0" />
        <rect
           transform="scale(1,-1)"
           ry="1.5799426"
           y="-1049.1119"
           x="6.250011"
           height="39.000008"
           width="35.499985"
           id="rect4851"
           style="fill:#0d2e44;fill-opacity:0.05882353;stroke:none" />
        <rect
           style="fill:#0d2e44;fill-opacity:0.11764706;stroke:none"
           id="rect4849"
           width="34.999992"
           height="38.518505"
           x="6.5000033"
           y="-1048.8711"
           ry="1.5604367"
           transform="scale(1,-1)" />
        <rect
           transform="scale(1,-1)"
           ry="1.5409319"
           y="-1048.6302"
           x="6.7500033"
           height="38.037048"
           width="34.5"
           id="rect4845"
           style="fill:#0d2e44;fill-opacity:0.23529412;stroke:none" />
        <rect
           style="fill:#fafafa;fill-opacity:1;stroke:none"
           id="rect4821"
           width="34.000008"
           height="37.555569"
           x="6.9999957"
           y="-1048.3894"
           ry="1.5214261"
           transform="scale(1,-1)" />
        <path
           style="fill:#000000;fill-opacity:0.11764706;stroke:none"
           d="m 8.5800808,1010.8336 c -0.875288,0 -1.580078,0.6793 -1.580078,1.5216 l 0,0.7703 c 0,-0.8438 0.70479,-1.5216 1.580078,-1.5216 l 30.8398432,0 c 0.87529,0 1.58008,0.6778 1.58008,1.5216 l 0,-0.7703 c 0,-0.8423 -0.70479,-1.5216 -1.58008,-1.5216 l -30.8398432,0 z"
           id="rect4840"
           inkscape:connector-curvature="0" />
        <rect
           style="fill:#0d2e44;fill-opacity:0.05882353;stroke:none"
           id="rect4831"
           width="41.5"
           height="37.074097"
           x="3.2500041"
           y="-1049.1119"
           ry="1.5019217"
           transform="scale(1,-1)" />
        <rect
           transform="scale(1,-1)"
           ry="1.4824157"
           y="-1048.8711"
           x="3.4999964"
           height="36.59264"
           width="41.000008"
           id="rect4829"
           style="fill:#0d2e44;fill-opacity:0.11764706;stroke:none" />
        <rect
           style="fill:#0d2e44;fill-opacity:0.23529412;stroke:none"
           id="rect4825"
           width="40.500008"
           height="36.111099"
           x="3.7499964"
           y="-1048.6302"
           ry="1.4629097"
           transform="scale(1,-1)" />
        <rect
           transform="scale(1,-1)"
           ry="1.4434031"
           y="-1048.3894"
           x="4.0000038"
           height="35.629623"
           width="40"
           id="rect4793"
           style="fill:#fafafa;fill-opacity:1;stroke:none" />
        <path
           sodipodi:nodetypes="cccscccscccscsscccssscc"
           inkscape:connector-curvature="0"
           style="fill:#000000;fill-opacity:0.05882353;stroke:none"
           d="m 21.891907,1014.162 c -4.447538,0 -4.461192,3.4427 -7.816406,4.3418 l -0.691407,0 -11.4465935,0 c -0.8691869,0 -1.58912965,0.5635 -1.83789066,1.3457 -0.02208999,0.055 -0.0401975,0.1137 -0.0546875,0.1777 -0.00813,0.038 -0.009725,0.078 -0.01562499,0.1172 -0.01012,0.072 -0.0292968779541,0.1338 -0.0292968779541,0.2168 l 0,0.08 0,3.498 0,25.2227 0,0.055 c 0,1.0773 0.8680325579541,1.945 1.9453125279541,1.9453 l 44.109375,0 c 1.07728,0 1.945312,-0.868 1.945312,-1.9453 l 0,-0.055 0,-1.0449 0,-29.6133 0,-2.3965 c 0,-0.5387 -0.216691,-1.0252 -0.568359,-1.3769 -0.351669,-0.3517 -0.83832,-0.5684 -1.376953,-0.5684 l -24.162781,0 z"
           id="path4234" />
        <path
           sodipodi:nodetypes="cccscccscccscsscccssscc"
           id="path4232"
           d="m 22.291907,1014.562 c -4.447538,0 -4.461192,3.4427 -7.816406,4.3418 l -0.691407,0 -11.8465935,0 c -0.8691869,0 -1.58912965,0.5635 -1.83789066,1.3457 -0.02208999,0.055 -0.0401975,0.1137 -0.0546875,0.1777 -0.00813,0.038 -0.009725,0.078 -0.01562499,0.1172 -0.01012,0.072 -0.0292968779541,0.1338 -0.0292968779541,0.2168 l 0,0.08 0,3.498 0,25.2227 0,0.055 c 0,1.0773 0.8680325579541,1.945 1.9453125279541,1.9453 l 44.109375,0 c 1.07728,0 1.945312,-0.868 1.945312,-1.9453 l 0,-0.055 0,-1.0449 0,-29.6133 0,-2.3965 c 0,-0.5387 -0.216691,-1.0252 -0.568359,-1.3769 -0.351669,-0.3517 -0.83832,-0.5684 -1.376953,-0.5684 l -23.762781,0 z"
           style="fill:#000000;fill-opacity:0.11764706;stroke:none"
           inkscape:connector-curvature="0" />
        <path
           sodipodi:nodetypes="cccscccscccscsscccssscc"
           inkscape:connector-curvature="0"
           style="fill:#000000;fill-opacity:0.23529412;stroke:none"
           d="m 22.691907,1014.962 c -4.447538,0 -4.461192,3.4427 -7.816406,4.3418 l -0.691407,0 -12.2465935,0 c -0.8691869,0 -1.58912965,0.5635 -1.83789066,1.3457 -0.02208999,0.055 -0.0401975,0.1137 -0.0546875,0.1777 -0.00813,0.038 -0.009725,0.078 -0.01562499,0.1172 -0.01012,0.072 -0.0292968779541,0.1338 -0.0292968779541,0.2168 l 0,0.08 0,3.498 0,25.2227 0,0.055 c 0,1.0773 0.8680325579541,1.945 1.9453125279541,1.9453 l 44.109375,0 c 1.07728,0 1.945312,-0.868 1.945312,-1.9453 l 0,-0.055 0,-1.0449 0,-29.6133 0,-2.3965 c 0,-0.5387 -0.216691,-1.0252 -0.568359,-1.3769 -0.351669,-0.3517 -0.83832,-0.5684 -1.376953,-0.5684 l -23.362781,0 z"
           id="path4228-8" />
        <path
           inkscape:connector-curvature="0"
           id="path4325"
           d="m 23.091797,1015.3622 c -4.447538,0 -4.461192,3.4427 -7.816406,4.3418 l -0.691407,0 -12.6464835,0 c -0.8691869,0 -1.58912965,0.5635 -1.83789066,1.3457 -0.02208999,0.055 -0.0401975,0.1137 -0.0546875,0.1777 -0.00813,0.038 -0.009725,0.078 -0.01562499,0.1172 -0.01012,0.072 -0.0292968779541,0.1338 -0.0292968779541,0.2168 l 0,0.08 0,3.498 0,25.2227 0,0.055 c 0,1.0773 0.8680325579541,1.945 1.9453125279541,1.9453 l 44.109375,0 c 1.07728,0 1.945312,-0.868 1.945312,-1.9453 l 0,-0.055 0,-1.0449 0,-29.6133 0,-2.3965 c 0,-0.5387 -0.216691,-1.0252 -0.568359,-1.3769 -0.351669,-0.3517 -0.83832,-0.5684 -1.376953,-0.5684 l -22.962891,0 z"
           style="fill:url(#linearGradient4333);fill-opacity:1;stroke:none" />
        <path
           transform="translate(2.220459e-7,1004.3623)"
           sodipodi:nodetypes="sccscccscccccsccssscssss"
           inkscape:connector-curvature="0"
           id="path4962"
           d="m 23.091797,11 c -4.447538,0 -4.461192,3.442697 -7.816406,4.341797 l -0.691407,0 -12.646484,0 c -0.8691869,0 -1.58912962,0.563503 -1.83789063,1.345703 -0.02208999,0.055 -0.0401975,0.113734 -0.0546875,0.177734 -0.00813,0.038 -0.009725,0.07799 -0.01562499,0.117188 C 0.01917688,17.054422 0,17.116219 0,17.199219 l 0,0.08008 0,0.71875 c 0,-0.083 0.01917688,-0.144797 0.02929688,-0.216797 0.0059,-0.0392 0.007495,-0.07919 0.01562499,-0.117188 0.01449,-0.064 0.03259751,-0.122734 0.0546875,-0.177734 C 0.34837038,16.704128 1.0683131,16.140625 1.9375,16.140625 l 12.646484,0 1.090813,0 c 3.355214,-0.8991 3.368868,-4.341797 7.816406,-4.341797 l 22.563485,0 c 0.538632,0 1.025284,0.216659 1.376953,0.56836 C 47.783309,12.718887 48,13.205441 48,13.744141 l 0,-0.798829 C 48,12.406613 47.783309,11.920059 47.431641,11.568359 47.079972,11.216659 46.59332,11 46.054688,11 Z"
           style="fill:#ffffff;fill-opacity:0.23529412;stroke:none" />
        <path
           sodipodi:nodetypes="scscssss"
           inkscape:connector-curvature="0"
           id="path4116"
           transform="translate(2.220459e-7,1004.3623)"
           d="m 23.091797,11 c -2.826121,0 -3.864974,1.386621 -5.105469,2.630859 C 18.898435,13.254158 19.90469,13 21.091797,13 L 48,13 48,12.945312 C 48,12.406613 47.783309,11.920059 47.431641,11.568359 47.079972,11.216659 46.59332,11 46.054688,11 Z"
           style="fill:url(#linearGradient4127);fill-opacity:1;stroke:none" />
        <path
           style="fill:#000000;fill-opacity:0.05882353;stroke:none"
           d="m 5.4980488,1012.7601 c -0.8304,0 -1.498046,0.6435 -1.498046,1.4425 l 0,0.7708 c 0,-0.7989 0.667646,-1.4445 1.498046,-1.4445 l 37.0039052,0 c 0.8304,0 1.49805,0.6456 1.49805,1.4445 l 0,-0.7708 c 0,-0.799 -0.66765,-1.4425 -1.49805,-1.4425 l -37.0039052,0 z"
           id="rect4833"
           inkscape:connector-curvature="0" />
        <path
           inkscape:connector-curvature="0"
           style="fill:#000000;fill-opacity:1;stroke:none"
           d="m -3.1479541e-6,1049.3621 0,1.0625 c 0,1.0773 0.8602199979541,1.9375 1.9374999479541,1.9375 l 44.1249972,0 c 1.07728,0 1.9375,-0.8602 1.9375,-1.9375 l 0,-1.0625 c 0,1.0773 -0.86022,1.9375 -1.9375,1.9375 l -44.1249972,0 c -1.07727995,0 -1.9374999479541,-0.8602 -1.9374999479541,-1.9375 z"
           id="rect846" />
        <path
           inkscape:connector-curvature="0"
           id="path4200"
           d="m 1.945313,1004.3622 c -0.538633,0 -1.02528416,0.2167 -1.37695315,0.5684 -0.35166801,0.3517 -0.5683593779541,0.8382 -0.5683593779541,1.3769 l 0,2.3965 0,40.6133 0,0.045 c 0,0.8158 0.4938466079541,1.5054 1.2011719279541,1.793 -0.34036144,-0.3419 -0.55078131,-0.8133 -0.55078131,-1.336 l 0,-0.053 0,-1.0176 0,-39.5117 0,-2.332 c 0,-0.5246 0.21058752,-0.9979 0.55273441,-1.3399 0.3421476,-0.342 0.8157941,-0.5527 1.3398438,-0.5527 l 22.3398427,0 0,0 c 4.327124,0 4.341097,3.3481 7.605469,4.2227 l 0.671875,0 12.304688,0 c 0.845653,0 1.547035,0.5492 1.789062,1.3106 0.02152,0.053 0.03863,0.1098 0.05273,0.1718 0.0078,0.036 0.0097,0.076 0.01563,0.1153 0.0097,0.069 0.02734,0.1283 0.02734,0.2089 l 0,0.078 0,3.4023 0,35.2422 0,0.053 c 0,0.5227 -0.210418,0.9942 -0.550781,1.336 C 47.506153,1050.8676 48,1050.178 48,1049.3622 l 0,-35.2227 0,-3.498 0,-0.08 c 0,-0.083 -0.01918,-0.1448 -0.0293,-0.2168 -0.0059,-0.039 -0.0075,-0.079 -0.01563,-0.1172 -0.01448,-0.064 -0.03259,-0.1227 -0.05468,-0.1777 -0.248761,-0.7822 -0.968704,-1.3457 -1.837891,-1.3457 l -12.646484,0 -0.691407,0 c -3.355214,-0.899 -3.368867,-4.3418 -7.816406,-4.3418 l -22.96289,0 z"
           style="fill:#000000;fill-opacity:0.49206351;stroke:none" />
        <path
           sodipodi:nodetypes="ccsccssccsccccccsccscc"
           inkscape:connector-curvature="0"
           id="path4218"
           d="m 2.5429693,1005.0126 c -0.524047,0 -0.997698,0.2108 -1.3398438,0.5527 -0.34214556,0.342 -0.55273441,0.8153 -0.55273441,1.3399 l 0,1.0351 c 0.005317,-0.5046 0.20862768,-0.9604 0.53906251,-1.291 0.334818,-0.3348 0.7996767,-0.541 1.3125,-0.541 l 22.3632804,0 c 3.95304,0 3.290625,3.0306 7.203553,4.0733 0.435978,0.1166 0.916197,0.059 1.378479,0.059 l 12.054687,0 c 0.827537,0 1.513161,0.5365 1.75,1.2813 0.03946,0.1519 0.08789,0.2893 0.08789,0.4394 l 0.0098,0 0,-0.8398 0,-0.078 c 0,-0.1063 -0.0447,-0.3368 -0.0957,-0.4961 -0.242062,-0.7611 -0.943449,-1.3105 -1.789099,-1.3105 l -12.304688,0 -0.671875,0 c -3.264359,-0.8742 -3.278364,-4.2227 -7.605469,-4.2227 l -22.3398427,0 z"
           style="fill:#ffffff;fill-opacity:0.5372549;stroke:none" />
      </g>
      <g
         transform="translate(-2.220459e-7,-1.046875e-4)"
         inkscape:label="Capa 2"
         id="layer2-4" />
    </g>
    <g
       transform="translate(700.6911,419.79078)"
       id="layer2"
       inkscape:label="Capa 2" />
    <g
       id="g4277">
      <path
         inkscape:connector-curvature="0"
         style="opacity:1;fill:#000000;fill-opacity:0.23529412;stroke:none"
         d="m 664.57142,442.79076 0,1 0,11.77539 c -0.53088,-0.47718 -1.2267,-0.77539 -2,-0.77539 -1.662,0 -3,1.338 -3,3 0,1.662 1.338,3 3,3 1.662,0 3,-1.338 3,-3 l 0,-14 9,0 0,-1 -10,0 z m 12,0 0,5 -8,0 0,1 8,0 0,4.05273 c -0.63457,-0.64829 -1.51696,-1.05273 -2.5,-1.05273 -1.939,0 -3.5,1.561 -3.5,3.5 0,1.939 1.561,3.5 3.5,3.5 1.939,0 3.5,-1.561 3.5,-3.5 l 0,-0.5 0,-0.5 0,-11.5 -1,0 z m -2.5,10 c 1.385,0 2.5,1.115 2.5,2.5 0,1.385 -1.115,2.5 -2.5,2.5 -1.385,0 -2.5,-1.115 -2.5,-2.5 0,-1.385 1.115,-2.5 2.5,-2.5 z m -11.5,3 c 1.108,0 2,0.892 2,2 0,1.108 -0.892,2 -2,2 -1.108,0 -2,-0.892 -2,-2 0,-1.108 0.892,-2 2,-2 z"
         id="path4331" />
      <path
         id="rect4216"
         transform="translate(644.57142,419.79076)"
         d="M 20 22 L 20 23 L 20 34.775391 C 19.469123 34.29821 18.773297 34 18 34 C 16.338 34 15 35.338 15 37 C 15 38.662 16.338 40 18 40 C 19.662 40 21 38.662 21 37 L 21 23 L 30 23 L 30 22 L 20 22 z M 32 22 L 32 27 L 24 27 L 24 28 L 32 28 L 32 32.052734 C 31.365433 31.404437 30.48304 31 29.5 31 C 27.561003 31 26 32.561003 26 34.5 C 26 36.438997 27.561003 38 29.5 38 C 31.438997 38 33 36.438997 33 34.5 L 33 34 L 33 33.5 L 33 22 L 32 22 z M 29.5 32 C 30.884997 32 32 33.115003 32 34.5 C 32 35.884997 30.884997 37 29.5 37 C 28.115003 37 27 35.884997 27 34.5 C 27 33.115003 28.115003 32 29.5 32 z M 18 35 C 19.108 35 20 35.892 20 37 C 20 38.108 19.108 39 18 39 C 16.892 39 16 38.108 16 37 C 16 35.892 16.892 35 18 35 z "
         style="opacity:1;fill:url(#linearGradient4241);fill-opacity:1;stroke:none" />
    </g>
  </g>
</svg>
