<?xml version="1.0" encoding="UTF-8" standalone="no"?>
<svg
   xmlns:dc="http://purl.org/dc/elements/1.1/"
   xmlns:cc="http://creativecommons.org/ns#"
   xmlns:rdf="http://www.w3.org/1999/02/22-rdf-syntax-ns#"
   xmlns:svg="http://www.w3.org/2000/svg"
   xmlns="http://www.w3.org/2000/svg"
   xmlns:sodipodi="http://sodipodi.sourceforge.net/DTD/sodipodi-0.dtd"
   xmlns:inkscape="http://www.inkscape.org/namespaces/inkscape"
   viewBox="0 0 16 16"
   id="svg2"
   version="1.1"
   inkscape:version="0.91pre2 r"
   sodipodi:docname="emblem-videos-symbolic.svg">
  <metadata
     id="metadata12">
    <rdf:RDF>
      <cc:Work
         rdf:about="">
        <dc:format>image/svg+xml</dc:format>
        <dc:type
           rdf:resource="http://purl.org/dc/dcmitype/StillImage" />
        <dc:title></dc:title>
      </cc:Work>
    </rdf:RDF>
  </metadata>
  <defs
     id="defs10" />
  <sodipodi:namedview
     pagecolor="#ffffff"
     bordercolor="#666666"
     borderopacity="1"
     objecttolerance="10"
     gridtolerance="10"
     guidetolerance="10"
     inkscape:pageopacity="0"
     inkscape:pageshadow="2"
     inkscape:window-width="1366"
     inkscape:window-height="672"
     id="namedview8"
     showgrid="true"
     inkscape:showpageshadow="false"
     borderlayer="true"
     inkscape:zoom="29.5"
     inkscape:cx="9.0769755"
     inkscape:cy="8.4127029"
     inkscape:window-x="-4"
     inkscape:window-y="25"
     inkscape:window-maximized="1"
     inkscape:current-layer="svg2">
    <inkscape:grid
       type="xygrid"
       id="grid4166" />
    <sodipodi:guide
       position="0,16"
       orientation="16,0"
       id="guide4174" />
    <sodipodi:guide
       position="0,0"
       orientation="0,16"
       id="guide4176" />
    <sodipodi:guide
       position="16,0"
       orientation="-16,0"
       id="guide4178" />
    <sodipodi:guide
       position="16,16"
       orientation="0,-16"
       id="guide4180" />
    <sodipodi:guide
       position="2,14"
       orientation="12,0"
       id="guide4182" />
    <sodipodi:guide
       position="2,2"
       orientation="0,12"
       id="guide4184" />
    <sodipodi:guide
       position="14,2"
       orientation="-12,0"
       id="guide4186" />
    <sodipodi:guide
       position="14,14"
       orientation="0,-12"
       id="guide4188" />
  </sodipodi:namedview>
  <g
     transform="translate(-3,-29)"
     inkscape:label="Layer 1"
     id="layer1"
     style="fill:#bebebe;fill-opacity:1">
    <path
       id="rect4128"
       transform="translate(3,29)"
       d="m 2,2 0,1 0,1 0,1 0,6 0,1 0,1 0,1 12,0 0,-1 L 14,3 14,2 2,2 Z M 3,3 4,3 4,4 3,4 3,3 Z M 5,3 6,3 6,4 5,4 5,3 Z M 7,3 9,3 9,4 7,4 7,3 Z m 3,0 1,0 0,1 -1,0 0,-1 z m 2,0 1,0 0,1 -1,0 0,-1 z M 3,5 5,5 5,11 3,11 3,5 Z m 3,0 4,0 0,6 -4,0 0,-6 z m 5,0 2,0 0,6 -2,0 0,-6 z m -8,7 1,0 0,1 -1,0 0,-1 z m 2,0 1,0 0,1 -1,0 0,-1 z m 2,0 2,0 0,1 -2,0 0,-1 z m 3,0 1,0 0,1 -1,0 0,-1 z m 2,0 1,0 0,1 -1,0 0,-1 z"
       style="opacity:1;fill:#bebebe;fill-opacity:1;stroke:none"
       inkscape:connector-curvature="0" />
  </g>
</svg>
