<?xml version="1.0" encoding="UTF-8" standalone="no"?>
<svg
   xmlns:dc="http://purl.org/dc/elements/1.1/"
   xmlns:cc="http://creativecommons.org/ns#"
   xmlns:rdf="http://www.w3.org/1999/02/22-rdf-syntax-ns#"
   xmlns:svg="http://www.w3.org/2000/svg"
   xmlns="http://www.w3.org/2000/svg"
   xmlns:sodipodi="http://sodipodi.sourceforge.net/DTD/sodipodi-0.dtd"
   xmlns:inkscape="http://www.inkscape.org/namespaces/inkscape"
   width="16"
   viewBox="0 0 16 16"
   height="16"
   id="svg2"
   version="1.1"
   inkscape:version="0.91pre2 r"
   sodipodi:docname="audio-headphones-symbolic.svg">
  <metadata
     id="metadata12">
    <rdf:RDF>
      <cc:Work
         rdf:about="">
        <dc:format>image/svg+xml</dc:format>
        <dc:type
           rdf:resource="http://purl.org/dc/dcmitype/StillImage" />
        <dc:title></dc:title>
      </cc:Work>
    </rdf:RDF>
  </metadata>
  <defs
     id="defs10" />
  <sodipodi:namedview
     pagecolor="#ffffff"
     bordercolor="#666666"
     borderopacity="1"
     objecttolerance="10"
     gridtolerance="10"
     guidetolerance="10"
     inkscape:pageopacity="0"
     inkscape:pageshadow="2"
     inkscape:window-width="1366"
     inkscape:window-height="672"
     id="namedview8"
     showgrid="true"
     inkscape:showpageshadow="false"
     borderlayer="true"
     inkscape:zoom="29.5"
     inkscape:cx="6.6581454"
     inkscape:cy="7.6863928"
     inkscape:window-x="-4"
     inkscape:window-y="25"
     inkscape:window-maximized="1"
     inkscape:current-layer="svg2">
    <inkscape:grid
       type="xygrid"
       id="grid4141" />
    <sodipodi:guide
       position="0,16"
       orientation="16,0"
       id="guide4147" />
    <sodipodi:guide
       position="0,0"
       orientation="0,16"
       id="guide4149" />
    <sodipodi:guide
       position="16,0"
       orientation="-16,0"
       id="guide4151" />
    <sodipodi:guide
       position="16,16"
       orientation="0,-16"
       id="guide4153" />
    <sodipodi:guide
       position="2,14"
       orientation="12,0"
       id="guide4155" />
    <sodipodi:guide
       position="2,2"
       orientation="0,12"
       id="guide4157" />
    <sodipodi:guide
       position="14,2"
       orientation="-12,0"
       id="guide4159" />
    <sodipodi:guide
       position="14,14"
       orientation="0,-12"
       id="guide4161" />
  </sodipodi:namedview>
  <path
     style="color:#000000;text-decoration:none;text-decoration-line:none;text-decoration-style:solid;text-decoration-color:#000000;clip-rule:nonzero;display:inline;overflow:visible;visibility:visible;opacity:1;isolation:auto;mix-blend-mode:normal;color-interpolation:sRGB;color-interpolation-filters:linearRGB;solid-color:#000000;solid-opacity:1;fill:#bebebe;fill-opacity:1;fill-rule:nonzero;stroke:none;stroke-width:1;stroke-linecap:butt;stroke-linejoin:miter;stroke-miterlimit:4;stroke-dasharray:none;stroke-dashoffset:0;stroke-opacity:1;color-rendering:auto;image-rendering:auto;shape-rendering:auto;text-rendering:auto;enable-background:accumulate"
     d="M 6 2 C 3.784 2 2 3.784 2 6 L 2 9 L 1 9 L 1 10 L 1 12 L 1 13 L 3 13 L 3 14 L 6 14 L 6 8 L 3 8 L 3 6 C 3 4.338 4.338 3 6 3 L 10 3 C 11.662 3 13 4.338 13 6 L 13 8 L 10 8 L 10 14 L 13 14 L 13 13 L 15 13 L 15 12 L 15 10 L 15 9 L 14 9 L 14 6 C 14 3.784 12.216 2 10 2 L 6 2 z M 4 9 L 5 9 L 5 13 L 4 13 L 4 9 z M 11 9 L 12 9 L 12 13 L 11 13 L 11 9 z M 2 10 L 3 10 L 3 12 L 2 12 L 2 10 z M 13 10 L 14 10 L 14 12 L 13 12 L 13 10 z "
     id="rect4173" />
</svg>
