<?xml version="1.0" encoding="UTF-8" standalone="no"?>
<svg
   xmlns:dc="http://purl.org/dc/elements/1.1/"
   xmlns:cc="http://creativecommons.org/ns#"
   xmlns:rdf="http://www.w3.org/1999/02/22-rdf-syntax-ns#"
   xmlns:svg="http://www.w3.org/2000/svg"
   xmlns="http://www.w3.org/2000/svg"
   xmlns:sodipodi="http://sodipodi.sourceforge.net/DTD/sodipodi-0.dtd"
   xmlns:inkscape="http://www.inkscape.org/namespaces/inkscape"
   width="16"
   viewBox="0 0 16 16"
   height="16"
   id="svg2"
   version="1.1"
   inkscape:version="0.91pre2 r"
   sodipodi:docname="camera-web-symbolic.svg">
  <metadata
     id="metadata14">
    <rdf:RDF>
      <cc:Work
         rdf:about="">
        <dc:format>image/svg+xml</dc:format>
        <dc:type
           rdf:resource="http://purl.org/dc/dcmitype/StillImage" />
        <dc:title></dc:title>
      </cc:Work>
    </rdf:RDF>
  </metadata>
  <defs
     id="defs12" />
  <sodipodi:namedview
     pagecolor="#ffffff"
     bordercolor="#666666"
     borderopacity="1"
     objecttolerance="10"
     gridtolerance="10"
     guidetolerance="10"
     inkscape:pageopacity="0"
     inkscape:pageshadow="2"
     inkscape:window-width="1366"
     inkscape:window-height="672"
     id="namedview10"
     showgrid="true"
     inkscape:showpageshadow="false"
     borderlayer="true"
     inkscape:zoom="41.7193"
     inkscape:cx="8.5306198"
     inkscape:cy="7.4857094"
     inkscape:window-x="-4"
     inkscape:window-y="25"
     inkscape:window-maximized="1"
     inkscape:current-layer="svg2">
    <inkscape:grid
       type="xygrid"
       id="grid4143" />
    <sodipodi:guide
       position="0,16"
       orientation="16,0"
       id="guide4149" />
    <sodipodi:guide
       position="0,0"
       orientation="0,16"
       id="guide4151" />
    <sodipodi:guide
       position="16,0"
       orientation="-16,0"
       id="guide4153" />
    <sodipodi:guide
       position="16,16"
       orientation="0,-16"
       id="guide4155" />
    <sodipodi:guide
       position="2,14"
       orientation="12,0"
       id="guide4157" />
    <sodipodi:guide
       position="2,2"
       orientation="0,12"
       id="guide4159" />
    <sodipodi:guide
       position="14,2"
       orientation="-12,0"
       id="guide4161" />
    <sodipodi:guide
       position="14,14"
       orientation="0,-12"
       id="guide4163" />
  </sodipodi:namedview>
  <path
     style="color:#000000;text-decoration:none;text-decoration-line:none;text-decoration-style:solid;text-decoration-color:#000000;clip-rule:nonzero;display:inline;overflow:visible;visibility:visible;opacity:1;isolation:auto;mix-blend-mode:normal;color-interpolation:sRGB;color-interpolation-filters:linearRGB;solid-color:#000000;solid-opacity:1;fill:#bebebe;fill-opacity:1;fill-rule:nonzero;stroke:none;stroke-width:1;stroke-linecap:butt;stroke-linejoin:miter;stroke-miterlimit:4;stroke-dasharray:none;stroke-dashoffset:0;stroke-opacity:1;color-rendering:auto;image-rendering:auto;shape-rendering:auto;text-rendering:auto;enable-background:accumulate"
     d="M 5.5 2 C 3.561 2 2 3.561 2 5.5 C 2 7.2676269 3.3017088 8.7080541 5 8.9511719 L 5 9 L 5 10 L 5 12 L 6 12 L 6 13 L 7 13 L 7 14 L 9 14 L 9 13 L 11 13 L 11 11 L 11 9 L 14 9 L 14 5.5 L 14 2 L 10.5 2 L 10 2 L 5.5 2 z M 5.5 3 L 10 3 L 10.5 3 L 12.947266 3 L 13 3 L 13 3.0527344 L 13 5.5 L 13 7.9472656 L 13 8 L 12.947266 8 L 10.5 8 L 10 8 L 6 8 L 5.5 8 C 4.115 8 3 6.885 3 5.5 C 3 4.115 4.115 3 5.5 3 z M 10.5 4 C 9.669 4 9 4.669 9 5.5 C 9 6.331 9.669 7 10.5 7 C 11.331 7 12 6.331 12 5.5 C 12 4.669 11.331 4 10.5 4 z M 10.5 5 C 10.777 5 11 5.223 11 5.5 C 11 5.777 10.777 6 10.5 6 C 10.223 6 10 5.777 10 5.5 C 10 5.223 10.223 5 10.5 5 z M 6 9 L 10 9 L 10 11 L 6 11 L 6 10 L 6 9 z "
     id="rect4165" />
</svg>
