<?xml version="1.0" encoding="UTF-8" standalone="no"?>
<svg
   xmlns:dc="http://purl.org/dc/elements/1.1/"
   xmlns:cc="http://creativecommons.org/ns#"
   xmlns:rdf="http://www.w3.org/1999/02/22-rdf-syntax-ns#"
   xmlns:svg="http://www.w3.org/2000/svg"
   xmlns="http://www.w3.org/2000/svg"
   xmlns:sodipodi="http://sodipodi.sourceforge.net/DTD/sodipodi-0.dtd"
   xmlns:inkscape="http://www.inkscape.org/namespaces/inkscape"
   viewBox="0 0 16 16"
   id="svg2"
   version="1.1"
   inkscape:version="0.91pre2 r"
   sodipodi:docname="drive-harddisk-symbolic-backup.svg">
  <metadata
     id="metadata10">
    <rdf:RDF>
      <cc:Work
         rdf:about="">
        <dc:format>image/svg+xml</dc:format>
        <dc:type
           rdf:resource="http://purl.org/dc/dcmitype/StillImage" />
        <dc:title></dc:title>
      </cc:Work>
    </rdf:RDF>
  </metadata>
  <defs
     id="defs8">
    <linearGradient
       id="linearGradient4103">
      <stop
         id="stop4105"
         offset="0"
         style="stop-color:#bdecfb;stop-opacity:1" />
      <stop
         id="stop4107"
         offset="1"
         style="stop-color:#f5feff;stop-opacity:1" />
    </linearGradient>
    <linearGradient
       id="linearGradient4314">
      <stop
         id="stop4316"
         offset="0"
         style="stop-color:#ff4b00;stop-opacity:1" />
      <stop
         id="stop4318"
         offset="1"
         style="stop-color:#ff5500;stop-opacity:1" />
    </linearGradient>
    <linearGradient
       id="linearGradient5020-1">
      <stop
         style="stop-color:#0da8db;stop-opacity:1"
         offset="0"
         id="stop5022-6" />
      <stop
         style="stop-color:#1fe1fb;stop-opacity:1"
         offset="1"
         id="stop5024-0" />
    </linearGradient>
  </defs>
  <sodipodi:namedview
     pagecolor="#ffffff"
     bordercolor="#666666"
     borderopacity="1"
     objecttolerance="10"
     gridtolerance="10"
     guidetolerance="10"
     inkscape:pageopacity="0"
     inkscape:pageshadow="2"
     inkscape:window-width="1366"
     inkscape:window-height="672"
     id="namedview6"
     showgrid="true"
     inkscape:showpageshadow="false"
     borderlayer="true"
     inkscape:zoom="29.5"
     inkscape:cx="5.3004231"
     inkscape:cy="7.6897547"
     inkscape:window-x="-4"
     inkscape:window-y="25"
     inkscape:window-maximized="1"
     inkscape:current-layer="svg2">
    <inkscape:grid
       type="xygrid"
       id="grid4177" />
    <sodipodi:guide
       position="0,16"
       orientation="16,0"
       id="guide4183" />
    <sodipodi:guide
       position="0,0"
       orientation="0,16"
       id="guide4185" />
    <sodipodi:guide
       position="16,0"
       orientation="-16,0"
       id="guide4187" />
    <sodipodi:guide
       position="16,16"
       orientation="0,-16"
       id="guide4189" />
    <sodipodi:guide
       position="2,14"
       orientation="12,0"
       id="guide4191" />
    <sodipodi:guide
       position="2,2"
       orientation="0,12"
       id="guide4193" />
    <sodipodi:guide
       position="14,2"
       orientation="-12,0"
       id="guide4195" />
    <sodipodi:guide
       position="14,14"
       orientation="0,-12"
       id="guide4197" />
  </sodipodi:namedview>
  <g
     transform="translate(-3,-29)"
     inkscape:label="Layer 1"
     id="layer1"
     style="fill:#bebebe;fill-opacity:1">
    <path
       id="rect4156"
       transform="translate(3,29)"
       d="M 2,2 2,14 14,14 14,2 2,2 Z m 2,1 1,0 0,1 -1,0 0,1 1,0 6,0 1,0 0,-1 0,-1 1,0 0,10 L 3,13 3,4 4,4 4,3 Z M 6,3 9,3 9,4 6,4 6,3 Z m 4,0 1,0 0,1 -1,0 0,-1 z M 6,7 6,8 10,8 10,7 6,7 Z m 0,2 0,1 2,0 0,-1 -2,0 z m -2,2 0,1 1,0 0,-1 -1,0 z m 7,0 0,1 1,0 0,-1 -1,0 z"
       style="opacity:1;fill:#bebebe;fill-opacity:1;stroke:none;stroke-width:1;stroke-miterlimit:4;stroke-dasharray:none;stroke-opacity:1"
       inkscape:connector-curvature="0" />
  </g>
</svg>
