<?xml version="1.0" encoding="UTF-8" standalone="no"?>
<svg
   xmlns:dc="http://purl.org/dc/elements/1.1/"
   xmlns:cc="http://creativecommons.org/ns#"
   xmlns:rdf="http://www.w3.org/1999/02/22-rdf-syntax-ns#"
   xmlns:svg="http://www.w3.org/2000/svg"
   xmlns="http://www.w3.org/2000/svg"
   xmlns:sodipodi="http://sodipodi.sourceforge.net/DTD/sodipodi-0.dtd"
   xmlns:inkscape="http://www.inkscape.org/namespaces/inkscape"
   width="16"
   viewBox="0 0 16 16"
   height="16"
   id="svg2"
   version="1.1"
   inkscape:version="0.91pre2 r"
   sodipodi:docname="input-gaming-symbolic.svg">
  <metadata
     id="metadata12">
    <rdf:RDF>
      <cc:Work
         rdf:about="">
        <dc:format>image/svg+xml</dc:format>
        <dc:type
           rdf:resource="http://purl.org/dc/dcmitype/StillImage" />
        <dc:title></dc:title>
      </cc:Work>
    </rdf:RDF>
  </metadata>
  <defs
     id="defs10" />
  <sodipodi:namedview
     pagecolor="#ffffff"
     bordercolor="#666666"
     borderopacity="1"
     objecttolerance="10"
     gridtolerance="10"
     guidetolerance="10"
     inkscape:pageopacity="0"
     inkscape:pageshadow="2"
     inkscape:window-width="1366"
     inkscape:window-height="672"
     id="namedview8"
     showgrid="true"
     inkscape:showpageshadow="false"
     borderlayer="true"
     inkscape:zoom="29.5"
     inkscape:cx="9.7265879"
     inkscape:cy="8.0821923"
     inkscape:window-x="-4"
     inkscape:window-y="25"
     inkscape:window-maximized="1"
     inkscape:current-layer="svg2">
    <inkscape:grid
       type="xygrid"
       id="grid4141" />
    <sodipodi:guide
       position="0,16"
       orientation="16,0"
       id="guide4147" />
    <sodipodi:guide
       position="0,0"
       orientation="0,16"
       id="guide4149" />
    <sodipodi:guide
       position="16,0"
       orientation="-16,0"
       id="guide4151" />
    <sodipodi:guide
       position="16,16"
       orientation="0,-16"
       id="guide4153" />
    <sodipodi:guide
       position="2,14"
       orientation="12,0"
       id="guide4155" />
    <sodipodi:guide
       position="2,2"
       orientation="0,12"
       id="guide4157" />
    <sodipodi:guide
       position="14,2"
       orientation="-12,0"
       id="guide4159" />
    <sodipodi:guide
       position="14,14"
       orientation="0,-12"
       id="guide4161" />
  </sodipodi:namedview>
  <path
     style="color:#000000;text-decoration:none;text-decoration-line:none;text-decoration-style:solid;text-decoration-color:#000000;clip-rule:nonzero;display:inline;overflow:visible;visibility:visible;opacity:1;isolation:auto;mix-blend-mode:normal;color-interpolation:sRGB;color-interpolation-filters:linearRGB;solid-color:#000000;solid-opacity:1;fill:#bebebe;fill-opacity:1;fill-rule:nonzero;stroke:none;stroke-width:1;stroke-linecap:butt;stroke-linejoin:miter;stroke-miterlimit:4;stroke-dasharray:none;stroke-dashoffset:0;stroke-opacity:1;color-rendering:auto;image-rendering:auto;shape-rendering:auto;text-rendering:auto;enable-background:accumulate"
     d="M 11 2 L 11 4 L 0 4 L 0 14 L 16 14 L 16 4 L 12 4 L 12 2 L 11 2 z M 1 5 L 6 5 L 6 6 L 10 6 L 10 5 L 15 5 L 15 13 L 11 13 L 11 12 L 5 12 L 5 13 L 1 13 L 1 5 z M 4 6 L 4 8 L 2 8 L 2 9 L 4 9 L 4 11 L 5 11 L 5 9 L 7 9 L 7 8 L 5 8 L 5 6 L 4 6 z M 10 8 C 9.446 8 9 8.446 9 9 C 9 9.554 9.446 10 10 10 C 10.554 10 11 9.554 11 9 C 11 8.446 10.554 8 10 8 z M 13 8 C 12.446 8 12 8.446 12 9 C 12 9.554 12.446 10 13 10 C 13.554 10 14 9.554 14 9 C 14 8.446 13.554 8 13 8 z M 7.5 10 C 7.223 10 7 10.223 7 10.5 C 7 10.777 7.223 11 7.5 11 L 8.5 11 C 8.777 11 9 10.777 9 10.5 C 9 10.223 8.777 10 8.5 10 L 7.5 10 z "
     id="rect4197" />
</svg>
