<?xml version="1.0" encoding="UTF-8" standalone="no"?>
<svg
   xmlns:dc="http://purl.org/dc/elements/1.1/"
   xmlns:cc="http://creativecommons.org/ns#"
   xmlns:rdf="http://www.w3.org/1999/02/22-rdf-syntax-ns#"
   xmlns:svg="http://www.w3.org/2000/svg"
   xmlns="http://www.w3.org/2000/svg"
   xmlns:sodipodi="http://sodipodi.sourceforge.net/DTD/sodipodi-0.dtd"
   xmlns:inkscape="http://www.inkscape.org/namespaces/inkscape"
   width="16"
   viewBox="0 0 16 16"
   height="16"
   id="svg2"
   version="1.1"
   inkscape:version="0.91pre2 r"
   sodipodi:docname="scanner-symbolic.svg">
  <metadata
     id="metadata16">
    <rdf:RDF>
      <cc:Work
         rdf:about="">
        <dc:format>image/svg+xml</dc:format>
        <dc:type
           rdf:resource="http://purl.org/dc/dcmitype/StillImage" />
        <dc:title></dc:title>
      </cc:Work>
    </rdf:RDF>
  </metadata>
  <defs
     id="defs14" />
  <sodipodi:namedview
     pagecolor="#ffffff"
     bordercolor="#666666"
     borderopacity="1"
     objecttolerance="10"
     gridtolerance="10"
     guidetolerance="10"
     inkscape:pageopacity="0"
     inkscape:pageshadow="2"
     inkscape:window-width="1366"
     inkscape:window-height="672"
     id="namedview12"
     showgrid="true"
     inkscape:showpageshadow="false"
     borderlayer="true"
     inkscape:zoom="29.5"
     inkscape:cx="9.1305598"
     inkscape:cy="8.6335754"
     inkscape:window-x="-4"
     inkscape:window-y="25"
     inkscape:window-maximized="1"
     inkscape:current-layer="svg2">
    <inkscape:grid
       type="xygrid"
       id="grid4145" />
    <sodipodi:guide
       position="0,16"
       orientation="16,0"
       id="guide4151" />
    <sodipodi:guide
       position="0,0"
       orientation="0,16"
       id="guide4153" />
    <sodipodi:guide
       position="16,0"
       orientation="-16,0"
       id="guide4155" />
    <sodipodi:guide
       position="16,16"
       orientation="0,-16"
       id="guide4157" />
    <sodipodi:guide
       position="2,14"
       orientation="12,0"
       id="guide4159" />
    <sodipodi:guide
       position="2,2"
       orientation="0,12"
       id="guide4161" />
    <sodipodi:guide
       position="14,2"
       orientation="-12,0"
       id="guide4163" />
    <sodipodi:guide
       position="14,14"
       orientation="0,-12"
       id="guide4165" />
  </sodipodi:namedview>
  <path
     style="color:#000000;text-decoration:none;text-decoration-line:none;text-decoration-style:solid;text-decoration-color:#000000;clip-rule:nonzero;display:inline;overflow:visible;visibility:visible;opacity:1;isolation:auto;mix-blend-mode:normal;color-interpolation:sRGB;color-interpolation-filters:linearRGB;solid-color:#000000;solid-opacity:1;fill:#bebebe;fill-opacity:1;fill-rule:nonzero;stroke:none;stroke-width:1;stroke-linecap:butt;stroke-linejoin:miter;stroke-miterlimit:4;stroke-dasharray:none;stroke-dashoffset:0;stroke-opacity:1;color-rendering:auto;image-rendering:auto;shape-rendering:auto;text-rendering:auto;enable-background:accumulate"
     d="M 3 2 L 3 14 L 13 14 L 13 7 L 13 6 L 13 2 L 3 2 z M 4 3 L 12 3 L 12 6 L 10 6 L 10 4 L 6 4 L 6 6 L 4 6 L 4 3 z M 4 7 L 5 7 L 5 8 L 5 9 L 11 9 L 11 8 L 11 7 L 12 7 L 12 10 L 4 10 L 4 7 z M 6 7 L 10 7 L 10 8 L 6 8 L 6 7 z M 4 11 L 10.5 11 L 12 11 L 12 13 L 4 13 L 4 11 z M 10.5 11 C 10.223 11 10 11.223 10 11.5 C 10 11.777 10.223 12 10.5 12 C 10.777 12 11 11.777 11 11.5 C 11 11.223 10.777 11 10.5 11 z "
     id="rect4173" />
</svg>
