/* XPM */
static char * close_prelight_xpm[] = {
"20 24 53 1",
" 	c None",
".	c #2D2D2D",
"+	c #5A2C30",
"@	c #892E35",
"#	c #7F2E33",
"$	c #3F2C2E",
"%	c #372C2D",
"&	c #BA333B",
"*	c #EE4A51",
"=	c #F25056",
"-	c #F24F55",
";	c #E6414A",
">	c #7C2D33",
",	c #AD3139",
"'	c #EE4D53",
")	c #E2464E",
"!	c #DF444C",
"~	c #EC484F",
"{	c #3B2C2D",
"]	c #E9434B",
"^	c #EF4E54",
"/	c #B82C38",
"(	c #E0454C",
"_	c #C5343E",
":	c #D13C45",
"<	c #B8343E",
"[	c #522B2E",
"}	c #EF4C52",
"|	c #EF4E55",
"1	c #AA2330",
"2	c #C6353E",
"3	c #D53B43",
"4	c #462C2E",
"5	c #C3333E",
"6	c #CD3942",
"7	c #C73840",
"8	c #CD3641",
"9	c #EA4B52",
"0	c #CE3A43",
"a	c #EC4C53",
"b	c #CC3842",
"c	c #F04C53",
"d	c #4B2C2E",
"e	c #E03E48",
"f	c #EF4C54",
"g	c #B6333C",
"h	c #2F2C2D",
"i	c #402C2D",
"j	c #9E3038",
"k	c #CA3840",
"l	c #C0373E",
"m	c #7A2D32",
"n	c #2F2D2D",
"....................",
"....................",
"....................",
"....................",
"....................",
"....................",
"....................",
"........+@#$........",
"......%&*=-;>.......",
"......,')==!~+......",
".....{]^/(_:=<......",
".....[}=|12==3......",
".....4~=56/(=7......",
"......890=abc>......",
"......de===fgh......",
".......ijklmn.......",
"....................",
"....................",
"....................",
"....................",
"....................",
"....................",
"....................",
"...................."};
