/* XPM */
static char * hide_prelight_xpm[] = {
"20 24 40 1",
" 	c None",
".	c #2D2D2D",
"+	c #5B4C25",
"@	c #8D6E21",
"#	c #826622",
"$	c #403929",
"%	c #37332B",
"&	c #BD901F",
"*	c #F6C031",
"=	c #FAC536",
"-	c #FAC436",
";	c #EDB528",
">	c #7F6322",
",	c #B1871F",
"'	c #FAC535",
")	c #F4BD2F",
"!	c #5C4B25",
"~	c #3B362A",
"{	c #F0BA2C",
"]	c #BD9122",
"^	c #544626",
"/	c #F7C132",
"(	c #C18623",
"_	c #B2761D",
":	c #DDA62C",
"<	c #DBA724",
"[	c #463E28",
"}	c #F3BD2E",
"|	c #CC9C23",
"1	c #D2A022",
"2	c #F7C233",
"3	c #4C4128",
"4	c #E6B026",
"5	c #F7C232",
"6	c #BB8E20",
"7	c #2F2E2C",
"8	c #A27C20",
"9	c #D1A025",
"0	c #C69823",
"a	c #7D6123",
"....................",
"....................",
"....................",
"....................",
"....................",
"....................",
"....................",
"........+@#$........",
"......%&*=-;>.......",
"......,'====)!......",
".....~{======]......",
".....^/(____:<......",
".....[}======|......",
"......1=====2>......",
"......34===567......",
".......$890a7.......",
"....................",
"....................",
"....................",
"....................",
"....................",
"....................",
"....................",
"...................."};
