/* XPM */
static char * maximize_pressed_xpm[] = {
"20 24 46 1",
" 	c None",
".	c #2D2D2D",
"+	c #265529",
"@	c #1F7B24",
"#	c #207326",
"$	c #293D2A",
"%	c #2B352C",
"&	c #18A221",
"*	c #13C11E",
"=	c #12BF1E",
"-	c #207125",
";	c #199821",
">	c #13BC1C",
",	c #0F9D13",
"'	c #10AB17",
")	c #255529",
"!	c #2A382B",
"~	c #13C01E",
"{	c #13BC1D",
"]	c #10A416",
"^	c #0B7507",
"/	c #0C7F0A",
"(	c #189F22",
"_	c #264D29",
":	c #11AE19",
"<	c #0D8A0E",
"[	c #12BF1D",
"}	c #11A716",
"|	c #0C800A",
"1	c #15B420",
"2	c #29422A",
"3	c #0B7407",
"4	c #0E8F0F",
"5	c #16AA21",
"6	c #15AF20",
"7	c #12B91C",
"8	c #0D880D",
"9	c #28472A",
"0	c #14BC1E",
"a	c #189F21",
"b	c #2C2E2C",
"c	c #1C8C23",
"d	c #17AB20",
"e	c #18A621",
"f	c #206F25",
"g	c #2C2F2C",
"....................",
"....................",
"....................",
"....................",
"....................",
"....................",
"....................",
"........+@#$........",
"......%&***=-.......",
"......;*>,,'*)......",
".....!~{~]^/*(......",
"....._*:<[}|*1......",
".....2*:34~'*5......",
"......67<8]**-......",
"......90****ab......",
".......$cdefg.......",
"....................",
"....................",
"....................",
"....................",
"....................",
"....................",
"....................",
"...................."};
