/* XPM */
static char * maximize_prelight_xpm[] = {
"20 24 59 1",
" 	c None",
".	c #2D2D2D",
"+	c #26552A",
"@	c #238029",
"#	c #237629",
"$	c #2A3D2B",
"%	c #2B352C",
"&	c #22AD2C",
"*	c #34E443",
"=	c #39EA49",
"-	c #39EA48",
";	c #2CD93A",
">	c #237329",
",	c #21A12B",
"'	c #38E948",
")	c #37E345",
"!	c #24B42B",
"~	c #23B32A",
"{	c #2BC836",
"]	c #32E241",
"^	c #265529",
"/	c #2B392B",
"(	c #2DDE3C",
"_	c #36E245",
":	c #38E848",
"<	c #27BD30",
"[	c #0B7508",
"}	c #118511",
"|	c #25AC2F",
"1	c #264E29",
"2	c #34E544",
"3	c #2ECD39",
"4	c #19961A",
"5	c #37E747",
"6	c #2AC232",
"7	c #128611",
"8	c #27C934",
"9	c #29432A",
"0	c #31E140",
"a	c #0B7407",
"b	c #1B9E1E",
"c	c #26BC31",
"d	c #24BE2F",
"e	c #34DD42",
"f	c #18961A",
"g	c #179318",
"h	c #36E645",
"i	c #247128",
"j	c #28472A",
"k	c #2BD337",
"l	c #36E746",
"m	c #23A82C",
"n	c #2C2E2C",
"o	c #293E2B",
"p	c #23932B",
"q	c #26BD31",
"r	c #25B530",
"s	c #237228",
"t	c #2C2F2C",
"....................",
"....................",
"....................",
"....................",
"....................",
"....................",
"....................",
"........+@#$........",
"......%&*=-;>.......",
"......,')!~{]^......",
"...../(_:<[}=|......",
".....1234567=8......",
".....903ab:{=c......",
"......defg<=hi......",
"......jk===lmn......",
".......opqrst.......",
"....................",
"....................",
"....................",
"....................",
"....................",
"....................",
"....................",
"...................."};
