<?xml version="1.0" encoding="UTF-8" standalone="no"?>
<!-- Created with Inkscape (http://www.inkscape.org/) -->

<svg
   xmlns:dc="http://purl.org/dc/elements/1.1/"
   xmlns:cc="http://creativecommons.org/ns#"
   xmlns:rdf="http://www.w3.org/1999/02/22-rdf-syntax-ns#"
   xmlns:svg="http://www.w3.org/2000/svg"
   xmlns="http://www.w3.org/2000/svg"
   xmlns:xlink="http://www.w3.org/1999/xlink"
   xmlns:sodipodi="http://sodipodi.sourceforge.net/DTD/sodipodi-0.dtd"
   xmlns:inkscape="http://www.inkscape.org/namespaces/inkscape"
   width="24"
   height="24"
   id="svg2"
   version="1.1"
   inkscape:version="0.48+devel r12370"
   sodipodi:docname="emblem-web.svg">
  <defs
     id="defs4">
    <linearGradient
       gradientTransform="matrix(2.1715905,0,0,2.1715905,19.342067,-1205.8388)"
       gradientUnits="userSpaceOnUse"
       y2="1030.2434"
       x2="-3.3402286"
       y1="1038.5532"
       x1="-3.3402286"
       id="linearGradient836"
       xlink:href="#linearGradient830"
       inkscape:collect="always" />
    <linearGradient
       id="linearGradient830"
       inkscape:collect="always">
      <stop
         id="stop832"
         offset="0"
         style="stop-color:#007fc6;stop-opacity:1" />
      <stop
         id="stop834"
         offset="1"
         style="stop-color:#079af2;stop-opacity:1" />
    </linearGradient>
    <clipPath
       id="clipPath16"
       clipPathUnits="userSpaceOnUse">
      <path
         id="path18"
         d="m 0,14400 14400,0 L 14400,0 0,0 0,14400 Z" />
    </clipPath>
    <clipPath
       id="clipPath24"
       clipPathUnits="userSpaceOnUse">
      <path
         id="path26"
         d="m 6797,7552.67 794,0 0,-1949.33 -794,0 L 6797,7552.67 Z" />
    </clipPath>
    <clipPath
       id="clipPath44"
       clipPathUnits="userSpaceOnUse">
      <path
         id="path46"
         d="m 0,14400 14400,0 L 14400,0 0,0 0,14400 Z" />
    </clipPath>
  </defs>
  <sodipodi:namedview
     id="base"
     pagecolor="#ffffff"
     bordercolor="#666666"
     borderopacity="1.0"
     inkscape:pageopacity="0.0"
     inkscape:pageshadow="2"
     inkscape:zoom="5.9220193"
     inkscape:cx="-4.3936528"
     inkscape:cy="11.532866"
     inkscape:document-units="px"
     inkscape:current-layer="layer1"
     showgrid="false"
     inkscape:window-width="1366"
     inkscape:window-height="714"
     inkscape:window-x="0"
     inkscape:window-y="30"
     inkscape:window-maximized="1"
     showguides="true"
     inkscape:guide-bbox="true" />
  <metadata
     id="metadata7">
    <rdf:RDF>
      <cc:Work
         rdf:about="">
        <dc:format>image/svg+xml</dc:format>
        <dc:type
           rdf:resource="http://purl.org/dc/dcmitype/StillImage" />
        <dc:title />
      </cc:Work>
    </rdf:RDF>
  </metadata>
  <g
     inkscape:label="Capa 1"
     inkscape:groupmode="layer"
     id="layer1"
     transform="translate(0,-1028.3622)">
    <rect
       ry="1.6408838"
       y="1030.3622"
       x="2"
       height="20"
       width="20"
       id="rect846"
       style="fill:#000000;fill-opacity:0.09411765;stroke:none" />
    <rect
       style="fill:#000000;fill-opacity:0.17647059;stroke:none"
       id="rect844"
       width="19.34852"
       height="19.34852"
       x="2.3257408"
       y="1030.6879"
       ry="1.5874341" />
    <rect
       ry="1.5339843"
       y="1031.0137"
       x="2.6514778"
       height="18.697042"
       width="18.697042"
       id="rect838"
       style="fill:#000000;fill-opacity:0.35294118;stroke:none" />
    <rect
       style="fill:#000000;fill-opacity:0.42672412;stroke:none"
       id="rect848"
       width="18.469109"
       height="18.469109"
       x="2.7654457"
       y="1031.1277"
       ry="1.5152837" />
    <rect
       style="fill:url(#linearGradient836);fill-opacity:1;stroke:none"
       id="rect828"
       width="18.045561"
       height="18.045561"
       x="2.9772186"
       y="1031.3394"
       ry="1.4805344" />
    <path
       d="m 10.255843,1047.151 c 0.333241,-0.1761 0.36677,-0.4024 0.668987,-0.415 0.345401,-0.017 0.627076,-0.1342 1.015648,-0.218 0.345387,-0.08 0.964081,-0.4276 1.508569,-0.4737 0.457728,-0.038 1.363554,0.025 1.607083,0.4695 -0.877308,0.5785 -1.928164,0.9223 -3.056138,0.9223 C 11.390533,1047.4361 10.805787,1047.3354 10.255843,1047.151 z m 0.981685,-10.7488 c -0.132868,0.2557 -0.482033,0.3647 -0.694552,0.5576 -0.463172,0.4192 -0.662284,0.3605 -0.911271,0.763 -0.250652,0.4024 -1.060483,0.981 -1.060483,1.2702 0,0.2935 0.4091,0.633 0.613656,0.5701 0.204137,-0.071 0.743182,-0.067 1.060078,0.046 0.316883,0.1132 2.650382,0.2263 1.906782,2.1966 -0.23558,0.6289 -1.26756,0.5199 -1.542531,1.5596 -0.04067,0.1509 -0.184015,0.8048 -0.193657,1.0145 -0.01593,0.3312 0.233063,1.5721 -0.08384,1.5721 -0.319821,0 -1.177021,-1.111 -1.177021,-1.3122 0,-0.2013 -0.222986,-0.9055 -0.222986,-1.5092 0,-0.6037 -1.026535,-0.5953 -1.026535,-1.396 0,-0.7253 0.556647,-1.0858 0.431741,-1.4337 -0.122821,-0.3438 -1.101988,-0.3564 -1.509841,-0.3983 C 7.539663,1038.0539 9.217161,1036.6789 11.237528,1036.4022 z m 6.306352,5.4876 c 0,1.2702 -0.430482,2.4398 -1.148516,3.3747 -0.202878,-0.1593 -0.419582,-0.5911 -0.216284,-1.0313 0.204123,-0.4485 0.258613,-1.484 0.212505,-1.8864 -0.0461,-0.4025 -0.254429,-1.3709 -0.823657,-1.3793 -0.565868,-0.01 -0.9557,-0.197 -1.293124,-0.8678 -0.699998,-1.4001 1.313667,-1.6727 0.613656,-2.4482 -0.196581,-0.218 -1.206772,0.8971 -1.355578,-0.5869 -0.0096,-0.1048 0.09222,-0.2641 0.227604,-0.4276 C 15.95692,1037.3748 17.54388,1039.4499 17.54388,1041.8898 z m -5.543888,-6.4979 c -3.58428,0 -6.499993,2.9136 -6.499993,6.4979 0,3.5843 2.915713,6.5021 6.499993,6.5021 3.584281,0 6.500007,-2.9178 6.500007,-6.5021 0,-3.5843 -2.915726,-6.4979 -6.500007,-6.4979"
       style="fill:#000000;fill-opacity:0.06666667;fill-rule:nonzero;stroke:none"
       id="path1876"
       inkscape:connector-curvature="0" />
    <path
       inkscape:connector-curvature="0"
       id="path1899"
       style="fill:#000000;fill-opacity:0.1372549;fill-rule:nonzero;stroke:none"
       d="m 10.255843,1046.6187 c 0.333241,-0.1761 0.36677,-0.4024 0.668987,-0.415 0.345401,-0.017 0.627076,-0.1342 1.015648,-0.218 0.345387,-0.08 0.964081,-0.4276 1.508569,-0.4737 0.457728,-0.038 1.363554,0.025 1.607083,0.4695 -0.877308,0.5785 -1.928164,0.9223 -3.056138,0.9223 C 11.390533,1046.9038 10.805787,1046.8031 10.255843,1046.6187 z m 0.981685,-10.7488 c -0.132868,0.2557 -0.482033,0.3647 -0.694552,0.5576 -0.463172,0.4192 -0.662284,0.3605 -0.911271,0.763 -0.250652,0.4024 -1.060483,0.981 -1.060483,1.2702 0,0.2935 0.4091,0.633 0.613656,0.5701 0.204137,-0.071 0.743182,-0.067 1.060078,0.046 0.316883,0.1132 2.650382,0.2263 1.906782,2.1966 -0.23558,0.6289 -1.26756,0.5199 -1.542531,1.5596 -0.04067,0.1509 -0.184015,0.8048 -0.193657,1.0145 -0.01593,0.3312 0.233063,1.5721 -0.08384,1.5721 -0.319821,0 -1.177021,-1.111 -1.177021,-1.3122 0,-0.2013 -0.222986,-0.9055 -0.222986,-1.5092 0,-0.6037 -1.026535,-0.5953 -1.026535,-1.396 0,-0.7253 0.556647,-1.0858 0.431741,-1.4337 -0.122821,-0.3438 -1.101988,-0.3564 -1.509841,-0.3983 C 7.539663,1037.5216 9.217161,1036.1466 11.237528,1035.8699 z m 6.306352,5.4876 c 0,1.2702 -0.430482,2.4398 -1.148516,3.3747 -0.202878,-0.1593 -0.419582,-0.5911 -0.216284,-1.0313 0.204123,-0.4485 0.258613,-1.484 0.212505,-1.8864 -0.0461,-0.4025 -0.254429,-1.3709 -0.823657,-1.3793 -0.565868,-0.01 -0.9557,-0.197 -1.293124,-0.8678 -0.699998,-1.4001 1.313667,-1.6727 0.613656,-2.4482 -0.196581,-0.218 -1.206772,0.8971 -1.355578,-0.5869 -0.0096,-0.1048 0.09222,-0.2641 0.227604,-0.4276 C 15.95692,1036.8425 17.54388,1038.9176 17.54388,1041.3575 z m -5.543888,-6.4979 c -3.58428,0 -6.499993,2.9136 -6.499993,6.4979 0,3.5843 2.915713,6.5021 6.499993,6.5021 3.584281,0 6.500007,-2.9178 6.500007,-6.5021 0,-3.5843 -2.915726,-6.4979 -6.500007,-6.4979" />
    <path
       d="m 10.255843,1046.0863 c 0.333241,-0.1761 0.36677,-0.4024 0.668987,-0.415 0.345401,-0.017 0.627076,-0.1342 1.015648,-0.218 0.345387,-0.08 0.964081,-0.4276 1.508569,-0.4737 0.457728,-0.038 1.363554,0.025 1.607083,0.4695 -0.877308,0.5785 -1.928164,0.9223 -3.056138,0.9223 C 11.390533,1046.3714 10.805787,1046.2707 10.255843,1046.0863 z m 0.981685,-10.7488 c -0.132868,0.2557 -0.482033,0.3647 -0.694552,0.5576 -0.463172,0.4192 -0.662284,0.3605 -0.911271,0.763 -0.250652,0.4024 -1.060483,0.981 -1.060483,1.2702 0,0.2935 0.4091,0.633 0.613656,0.5701 0.204137,-0.071 0.743182,-0.067 1.060078,0.046 0.316883,0.1132 2.650382,0.2263 1.906782,2.1966 -0.23558,0.6289 -1.26756,0.5199 -1.542531,1.5596 -0.04067,0.1509 -0.184015,0.8048 -0.193657,1.0145 -0.01593,0.3312 0.233063,1.5721 -0.08384,1.5721 -0.319821,0 -1.177021,-1.111 -1.177021,-1.3122 0,-0.2013 -0.222986,-0.9055 -0.222986,-1.5092 0,-0.6037 -1.026535,-0.5953 -1.026535,-1.396 0,-0.7253 0.556647,-1.0858 0.431741,-1.4337 -0.122821,-0.3438 -1.101988,-0.3564 -1.509841,-0.3983 C 7.539663,1036.9892 9.217161,1035.6142 11.237528,1035.3375 z m 6.306352,5.4876 c 0,1.2702 -0.430482,2.4398 -1.148516,3.3747 -0.202878,-0.1593 -0.419582,-0.5911 -0.216284,-1.0313 0.204123,-0.4485 0.258613,-1.484 0.212505,-1.8864 -0.0461,-0.4025 -0.254429,-1.3709 -0.823657,-1.3793 -0.565868,-0.01 -0.9557,-0.197 -1.293124,-0.8678 -0.699998,-1.4001 1.313667,-1.6727 0.613656,-2.4482 -0.196581,-0.218 -1.206772,0.8971 -1.355578,-0.5869 -0.0096,-0.1048 0.09222,-0.2641 0.227604,-0.4276 C 15.95692,1036.3101 17.54388,1038.3852 17.54388,1040.8251 z m -5.543888,-6.4979 c -3.58428,0 -6.499993,2.9136 -6.499993,6.4979 0,3.5843 2.915713,6.5021 6.499993,6.5021 3.584281,0 6.500007,-2.9178 6.500007,-6.5021 0,-3.5843 -2.915726,-6.4979 -6.500007,-6.4979"
       style="fill:#000000;fill-opacity:0.2745098;fill-rule:nonzero;stroke:none"
       id="path1901"
       inkscape:connector-curvature="0" />
    <path
       inkscape:connector-curvature="0"
       id="path208"
       style="fill:#ffffff;fill-opacity:1;fill-rule:nonzero;stroke:none"
       d="m 10.255843,1045.6213 c 0.333241,-0.1761 0.36677,-0.4024 0.668987,-0.415 0.345401,-0.017 0.627076,-0.1342 1.015648,-0.218 0.345387,-0.08 0.964081,-0.4276 1.508569,-0.4737 0.457728,-0.038 1.363554,0.025 1.607083,0.4695 -0.877308,0.5785 -1.928164,0.9223 -3.056138,0.9223 C 11.390533,1045.9064 10.805787,1045.8057 10.255843,1045.6213 z m 0.981685,-10.7488 c -0.132868,0.2557 -0.482033,0.3647 -0.694552,0.5576 -0.463172,0.4192 -0.662284,0.3605 -0.911271,0.763 -0.250652,0.4024 -1.060483,0.981 -1.060483,1.2702 0,0.2935 0.4091,0.633 0.613656,0.5701 0.204137,-0.071 0.743182,-0.067 1.060078,0.046 0.316883,0.1132 2.650382,0.2263 1.906782,2.1966 -0.23558,0.6289 -1.26756,0.5199 -1.542531,1.5596 -0.04067,0.1509 -0.184015,0.8048 -0.193657,1.0145 -0.01593,0.3312 0.233063,1.5721 -0.08384,1.5721 -0.319821,0 -1.177021,-1.111 -1.177021,-1.3122 0,-0.2013 -0.222986,-0.9055 -0.222986,-1.5092 0,-0.6037 -1.026535,-0.5953 -1.026535,-1.396 0,-0.7253 0.556647,-1.0858 0.431741,-1.4337 -0.122821,-0.3438 -1.101988,-0.3564 -1.509841,-0.3983 C 7.539663,1036.5242 9.217161,1035.1492 11.237528,1034.8725 z m 6.306352,5.4876 c 0,1.2702 -0.430482,2.4398 -1.148516,3.3747 -0.202878,-0.1593 -0.419582,-0.5911 -0.216284,-1.0313 0.204123,-0.4485 0.258613,-1.484 0.212505,-1.8864 -0.0461,-0.4025 -0.254429,-1.3709 -0.823657,-1.3793 -0.565868,-0.01 -0.9557,-0.197 -1.293124,-0.8678 -0.699998,-1.4001 1.313667,-1.6727 0.613656,-2.4482 -0.196581,-0.218 -1.206772,0.8971 -1.355578,-0.5869 -0.0096,-0.1048 0.09222,-0.2641 0.227604,-0.4276 C 15.95692,1035.8451 17.54388,1037.9202 17.54388,1040.3601 z m -5.543888,-6.4979 c -3.58428,0 -6.499993,2.9136 -6.499993,6.4979 0,3.5843 2.915713,6.5021 6.499993,6.5021 3.584281,0 6.500007,-2.9178 6.500007,-6.5021 0,-3.5843 -2.915726,-6.4979 -6.500007,-6.4979" />
  </g>
</svg>
