<?xml version="1.0" encoding="UTF-8" standalone="no"?>
<!-- Created with Inkscape (http://www.inkscape.org/) -->

<svg
   xmlns:dc="http://purl.org/dc/elements/1.1/"
   xmlns:cc="http://creativecommons.org/ns#"
   xmlns:rdf="http://www.w3.org/1999/02/22-rdf-syntax-ns#"
   xmlns:svg="http://www.w3.org/2000/svg"
   xmlns="http://www.w3.org/2000/svg"
   xmlns:xlink="http://www.w3.org/1999/xlink"
   xmlns:sodipodi="http://sodipodi.sourceforge.net/DTD/sodipodi-0.dtd"
   xmlns:inkscape="http://www.inkscape.org/namespaces/inkscape"
   width="24"
   height="24"
   id="svg2"
   version="1.1"
   inkscape:version="0.48+devel r12370"
   sodipodi:docname="emblem-nowrite.svg">
  <defs
     id="defs4">
    <linearGradient
       inkscape:collect="always"
       xlink:href="#linearGradient830"
       id="linearGradient836"
       x1="-3.3402286"
       y1="1038.5532"
       x2="-3.3402286"
       y2="1030.2434"
       gradientUnits="userSpaceOnUse"
       gradientTransform="matrix(2.1715905,0,0,2.1715905,19.342067,-1205.8387)" />
    <linearGradient
       inkscape:collect="always"
       id="linearGradient830">
      <stop
         style="stop-color:#f1992c;stop-opacity:1"
         offset="0"
         id="stop832" />
      <stop
         style="stop-color:#f4c156;stop-opacity:1"
         offset="1"
         id="stop834" />
    </linearGradient>
  </defs>
  <sodipodi:namedview
     id="base"
     pagecolor="#ffffff"
     bordercolor="#666666"
     borderopacity="1.0"
     inkscape:pageopacity="0"
     inkscape:pageshadow="2"
     inkscape:zoom="8.290827"
     inkscape:cx="14.097819"
     inkscape:cy="14.774141"
     inkscape:document-units="px"
     inkscape:current-layer="layer1"
     showgrid="false"
     inkscape:window-width="1366"
     inkscape:window-height="714"
     inkscape:window-x="0"
     inkscape:window-y="30"
     inkscape:window-maximized="1"
     showguides="true"
     inkscape:guide-bbox="true"
     width="0px"
     height="0px"
     fit-margin-top="0"
     fit-margin-left="0"
     fit-margin-right="0"
     fit-margin-bottom="0">
    <inkscape:grid
       type="xygrid"
       id="grid3825"
       empspacing="5"
       visible="true"
       enabled="true"
       snapvisiblegridlinesonly="true" />
  </sodipodi:namedview>
  <metadata
     id="metadata7">
    <rdf:RDF>
      <cc:Work
         rdf:about="">
        <dc:format>image/svg+xml</dc:format>
        <dc:type
           rdf:resource="http://purl.org/dc/dcmitype/StillImage" />
        <dc:title />
      </cc:Work>
    </rdf:RDF>
  </metadata>
  <g
     inkscape:label="Capa 1"
     inkscape:groupmode="layer"
     id="layer1"
     transform="translate(0,-1028.3622)">
    <rect
       ry="1.6408838"
       y="1030.3622"
       x="2"
       height="20"
       width="20"
       id="rect846"
       style="fill:#000000;fill-opacity:0.09411765;stroke:none" />
    <rect
       style="fill:#000000;fill-opacity:0.17647059;stroke:none"
       id="rect844"
       width="19.34852"
       height="19.34852"
       x="2.3257389"
       y="1030.6879"
       ry="1.5874341" />
    <rect
       ry="1.5339843"
       y="1031.0137"
       x="2.6514778"
       height="18.697042"
       width="18.697042"
       id="rect838"
       style="fill:#000000;fill-opacity:0.35294118;stroke:none" />
    <rect
       style="fill:#000000;fill-opacity:0.42672412;stroke:none"
       id="rect848"
       width="18.469109"
       height="18.469109"
       x="2.7654457"
       y="1031.1277"
       ry="1.5152837" />
    <rect
       style="fill:url(#linearGradient836);fill-opacity:1;stroke:none"
       id="rect828"
       width="18.045561"
       height="18.045561"
       x="2.9772186"
       y="1031.3394"
       ry="1.4805344" />
    <g
       style="fill:#000000;fill-opacity:0.06666667"
       transform="matrix(0.40625,0,0,0.40625,7.125,1035.3925)"
       id="g890">
      <g
         style="fill:#000000;fill-opacity:0.06666667"
         id="g892">
</g>
      <g
         style="fill:#000000;fill-opacity:0.06666667"
         id="g894">
	<path
   inkscape:connector-curvature="0"
   style="fill:#000000;fill-opacity:0.06666667"
   d="M 14,0 C 8.492,0 4.004,4.484 4.004,10 l 0,2 L 0,12 0,26 c 0,3.309 2.691,6 6,6 l 12,0 c 3.309,0 6,-2.691 6,-6 L 24,10 C 24,4.484 19.512,0 14,0 Z M 11.996,24 C 10.895,24 10,23.105 10,22 c 0,-1.105 0.895,-2 1.996,-2 1.105,0 2,0.895 2,2 C 13.996,23.105 13.102,24 11.996,24 Z M 20,12 8.004,12 l 0,-2 c 0,-3.309 2.691,-6 5.996,-6 3.309,0 6,2.691 6,6 L 20,12 Z"
   id="path896" />

</g>
    </g>
    <g
       id="g882"
       transform="matrix(0.40625,0,0,0.40625,7.125,1034.8602)"
       style="fill:#000000;fill-opacity:0.1372549">
      <g
         id="g884"
         style="fill:#000000;fill-opacity:0.1372549">
</g>
      <g
         id="g886"
         style="fill:#000000;fill-opacity:0.1372549">
	<path
   id="path888"
   d="M 14,0 C 8.492,0 4.004,4.484 4.004,10 l 0,2 L 0,12 0,26 c 0,3.309 2.691,6 6,6 l 12,0 c 3.309,0 6,-2.691 6,-6 L 24,10 C 24,4.484 19.512,0 14,0 Z M 11.996,24 C 10.895,24 10,23.105 10,22 c 0,-1.105 0.895,-2 1.996,-2 1.105,0 2,0.895 2,2 C 13.996,23.105 13.102,24 11.996,24 Z M 20,12 8.004,12 l 0,-2 c 0,-3.309 2.691,-6 5.996,-6 3.309,0 6,2.691 6,6 L 20,12 Z"
   style="fill:#000000;fill-opacity:0.1372549"
   inkscape:connector-curvature="0" />

</g>
    </g>
    <g
       style="fill:#000000;fill-opacity:0.2745098"
       transform="matrix(0.40625,0,0,0.40625,7.125,1034.3278)"
       id="g874">
      <g
         style="fill:#000000;fill-opacity:0.2745098"
         id="g876">
</g>
      <g
         style="fill:#000000;fill-opacity:0.2745098"
         id="g878">
	<path
   inkscape:connector-curvature="0"
   style="fill:#000000;fill-opacity:0.2745098"
   d="M 14,0 C 8.492,0 4.004,4.484 4.004,10 l 0,2 L 0,12 0,26 c 0,3.309 2.691,6 6,6 l 12,0 c 3.309,0 6,-2.691 6,-6 L 24,10 C 24,4.484 19.512,0 14,0 Z M 11.996,24 C 10.895,24 10,23.105 10,22 c 0,-1.105 0.895,-2 1.996,-2 1.105,0 2,0.895 2,2 C 13.996,23.105 13.102,24 11.996,24 Z M 20,12 8.004,12 l 0,-2 c 0,-3.309 2.691,-6 5.996,-6 3.309,0 6,2.691 6,6 L 20,12 Z"
   id="path880" />

</g>
    </g>
    <g
       id="g858"
       transform="matrix(0.40625,0,0,0.40625,7.125,1033.8622)"
       style="fill:#ffffff">
      <g
         id="Layer_1"
         style="fill:#ffffff">
</g>
      <g
         id="lock_x5F_fill"
         style="fill:#ffffff">
	<path
   id="path850"
   d="M 14,0 C 8.492,0 4.004,4.484 4.004,10 l 0,2 L 0,12 0,26 c 0,3.309 2.691,6 6,6 l 12,0 c 3.309,0 6,-2.691 6,-6 L 24,10 C 24,4.484 19.512,0 14,0 Z M 11.996,24 C 10.895,24 10,23.105 10,22 c 0,-1.105 0.895,-2 1.996,-2 1.105,0 2,0.895 2,2 C 13.996,23.105 13.102,24 11.996,24 Z M 20,12 8.004,12 l 0,-2 c 0,-3.309 2.691,-6 5.996,-6 3.309,0 6,2.691 6,6 L 20,12 Z"
   style="fill:#ffffff"
   inkscape:connector-curvature="0" />

</g>
    </g>
  </g>
</svg>
