<?xml version="1.0" encoding="UTF-8" standalone="no"?>
<!-- Created with Inkscape (http://www.inkscape.org/) -->

<svg
   xmlns:dc="http://purl.org/dc/elements/1.1/"
   xmlns:cc="http://creativecommons.org/ns#"
   xmlns:rdf="http://www.w3.org/1999/02/22-rdf-syntax-ns#"
   xmlns:svg="http://www.w3.org/2000/svg"
   xmlns="http://www.w3.org/2000/svg"
   xmlns:xlink="http://www.w3.org/1999/xlink"
   xmlns:sodipodi="http://sodipodi.sourceforge.net/DTD/sodipodi-0.dtd"
   xmlns:inkscape="http://www.inkscape.org/namespaces/inkscape"
   width="24"
   height="24"
   id="svg2"
   version="1.1"
   inkscape:version="0.91pre2 r"
   sodipodi:docname="emblem-mmounted.svg">
  <defs
     id="defs4">
    <linearGradient
       inkscape:collect="always"
       xlink:href="#linearGradient830-5"
       id="linearGradient836"
       x1="-3.3402286"
       y1="1038.5532"
       x2="-3.3402286"
       y2="1030.2434"
       gradientUnits="userSpaceOnUse"
       gradientTransform="matrix(2.1715905,0,0,2.1715905,19.342067,-1205.8388)" />
    <linearGradient
       id="linearGradient830-5"
       inkscape:collect="always">
      <stop
         id="stop832-5"
         offset="0"
         style="stop-color:#1a1a1a;stop-opacity:1" />
      <stop
         id="stop834-8"
         offset="1"
         style="stop-color:#4d4d4d;stop-opacity:1" />
    </linearGradient>
  </defs>
  <sodipodi:namedview
     id="base"
     pagecolor="#ffffff"
     bordercolor="#666666"
     borderopacity="1.0"
     inkscape:pageopacity="0.0"
     inkscape:pageshadow="2"
     inkscape:zoom="17.625"
     inkscape:cx="1.6666695"
     inkscape:cy="14.036655"
     inkscape:document-units="px"
     inkscape:current-layer="layer1"
     showgrid="true"
     inkscape:window-width="1366"
     inkscape:window-height="672"
     inkscape:window-x="-4"
     inkscape:window-y="25"
     inkscape:window-maximized="1"
     showguides="true"
     inkscape:guide-bbox="true">
    <inkscape:grid
       type="xygrid"
       id="grid3830" />
  </sodipodi:namedview>
  <metadata
     id="metadata7">
    <rdf:RDF>
      <cc:Work
         rdf:about="">
        <dc:format>image/svg+xml</dc:format>
        <dc:type
           rdf:resource="http://purl.org/dc/dcmitype/StillImage" />
        <dc:title />
      </cc:Work>
    </rdf:RDF>
  </metadata>
  <g
     inkscape:label="Capa 1"
     inkscape:groupmode="layer"
     id="layer1"
     transform="translate(0,-1028.3622)">
    <rect
       ry="1.6408838"
       y="1030.3622"
       x="2"
       height="20"
       width="20"
       id="rect846"
       style="fill:#000000;fill-opacity:0.09411765;stroke:none" />
    <rect
       style="fill:#000000;fill-opacity:0.17647059;stroke:none"
       id="rect844"
       width="19.34852"
       height="19.34852"
       x="2.3257396"
       y="1030.6879"
       ry="1.5874341" />
    <rect
       ry="1.5339843"
       y="1031.0137"
       x="2.6514792"
       height="18.697042"
       width="18.697042"
       id="rect838"
       style="fill:#000000;fill-opacity:0.35294118;stroke:none" />
    <rect
       style="fill:#000000;fill-opacity:0.42672412;stroke:none"
       id="rect848"
       width="18.469109"
       height="18.469109"
       x="2.7654459"
       y="1031.1277"
       ry="1.5152837" />
    <rect
       style="fill:url(#linearGradient836);fill-opacity:1.0;stroke:none"
       id="rect828"
       width="18.045561"
       height="18.045561"
       x="2.9772196"
       y="1031.3394"
       ry="1.4805344" />
    <path
       id="path4170"
       d="m 10,1035.3923 0,3 -1,0 0,6 2,0 0,4 2,0 0,-4 2,0 0,-6 -1,0 0,-3 -4,0 z m 1,1 2,0 0,1 -2,0 0,-1 z"
       style="opacity:1;fill:#000000;fill-opacity:0.06666667;stroke:none;stroke-width:1;stroke-miterlimit:4;stroke-dasharray:none;stroke-opacity:1"
       inkscape:connector-curvature="0" />
    <path
       inkscape:connector-curvature="0"
       style="opacity:1;fill:#000000;fill-opacity:0.13725491;stroke:none;stroke-width:1;stroke-miterlimit:4;stroke-dasharray:none;stroke-opacity:1"
       d="m 10,1034.86 0,3 -1,0 0,6 2,0 0,4 2,0 0,-4 2,0 0,-6 -1,0 0,-3 -4,0 z m 1,1 2,0 0,1 -2,0 0,-1 z"
       id="path4172" />
    <path
       id="path4174"
       d="m 10,1034.3276 0,3 -1,0 0,6 2,0 0,4 2,0 0,-4 2,0 0,-6 -1,0 0,-3 -4,0 z m 1,1 2,0 0,1 -2,0 0,-1 z"
       style="opacity:1;fill:#000000;fill-opacity:0.27450982;stroke:none;stroke-width:1;stroke-miterlimit:4;stroke-dasharray:none;stroke-opacity:1"
       inkscape:connector-curvature="0" />
    <path
       style="opacity:1;fill:#ffffff;fill-opacity:1;stroke:none;stroke-width:1;stroke-miterlimit:4;stroke-dasharray:none;stroke-opacity:1"
       d="m 10,1033.8622 0,3 -1,0 0,6 2,0 0,4 2,0 0,-4 2,0 0,-6 -1,0 0,-3 -4,0 z m 1,1 2,0 0,1 -2,0 0,-1 z"
       id="rect4160"
       inkscape:connector-curvature="0" />
  </g>
</svg>
