<?xml version="1.0" encoding="UTF-8" standalone="no"?>
<!-- Created with Inkscape (http://www.inkscape.org/) -->

<svg
   xmlns:dc="http://purl.org/dc/elements/1.1/"
   xmlns:cc="http://creativecommons.org/ns#"
   xmlns:rdf="http://www.w3.org/1999/02/22-rdf-syntax-ns#"
   xmlns:svg="http://www.w3.org/2000/svg"
   xmlns="http://www.w3.org/2000/svg"
   xmlns:xlink="http://www.w3.org/1999/xlink"
   xmlns:sodipodi="http://sodipodi.sourceforge.net/DTD/sodipodi-0.dtd"
   xmlns:inkscape="http://www.inkscape.org/namespaces/inkscape"
   width="24"
   height="24"
   id="svg2"
   version="1.1"
   inkscape:version="0.48+devel r12370"
   sodipodi:docname="emblem-insync-syncing.svg">
  <defs
     id="defs4">
    <linearGradient
       gradientTransform="matrix(2.1715905,0,0,2.1715905,19.342067,-1205.8388)"
       gradientUnits="userSpaceOnUse"
       y2="1030.2434"
       x2="-3.3402286"
       y1="1038.5532"
       x1="-3.3402286"
       id="linearGradient836"
       xlink:href="#linearGradient830"
       inkscape:collect="always" />
    <linearGradient
       id="linearGradient830"
       inkscape:collect="always">
      <stop
         id="stop832"
         offset="0"
         style="stop-color:#80b22e;stop-opacity:1" />
      <stop
         id="stop834"
         offset="1"
         style="stop-color:#aee063;stop-opacity:1" />
    </linearGradient>
  </defs>
  <sodipodi:namedview
     id="base"
     pagecolor="#ffffff"
     bordercolor="#666666"
     borderopacity="1.0"
     inkscape:pageopacity="0.0"
     inkscape:pageshadow="2"
     inkscape:zoom="10.103433"
     inkscape:cx="13.637587"
     inkscape:cy="15.210101"
     inkscape:document-units="px"
     inkscape:current-layer="layer1"
     showgrid="false"
     width="0px"
     height="0px"
     fit-margin-top="0"
     fit-margin-left="0"
     fit-margin-right="0"
     fit-margin-bottom="0"
     inkscape:window-width="1366"
     inkscape:window-height="714"
     inkscape:window-x="0"
     inkscape:window-y="30"
     inkscape:window-maximized="1" />
  <metadata
     id="metadata7">
    <rdf:RDF>
      <cc:Work
         rdf:about="">
        <dc:format>image/svg+xml</dc:format>
        <dc:type
           rdf:resource="http://purl.org/dc/dcmitype/StillImage" />
        <dc:title />
      </cc:Work>
    </rdf:RDF>
  </metadata>
  <g
     inkscape:label="Capa 1"
     inkscape:groupmode="layer"
     id="layer1"
     transform="translate(0,-1028.3622)">
    <rect
       ry="1.6408838"
       y="1030.3622"
       x="2"
       height="20"
       width="20"
       id="rect846"
       style="fill:#000000;fill-opacity:0.09411765;stroke:none" />
    <rect
       style="fill:#000000;fill-opacity:0.17647059;stroke:none"
       id="rect844"
       width="19.34852"
       height="19.34852"
       x="2.3257408"
       y="1030.6879"
       ry="1.5874341" />
    <rect
       ry="1.5339843"
       y="1031.0137"
       x="2.6514778"
       height="18.697042"
       width="18.697042"
       id="rect838"
       style="fill:#000000;fill-opacity:0.35294118;stroke:none" />
    <rect
       style="fill:#000000;fill-opacity:0.42672412;stroke:none"
       id="rect848"
       width="18.469109"
       height="18.469109"
       x="2.7654457"
       y="1031.1277"
       ry="1.5152837" />
    <rect
       style="fill:url(#linearGradient836);fill-opacity:1;stroke:none"
       id="rect828"
       width="18.045561"
       height="18.045561"
       x="2.9772186"
       y="1031.3394"
       ry="1.4805344" />
    <g
       transform="matrix(0.40625,0,0,0.40625,6.312499,1035.3919)"
       id="g1053"
       style="fill:#000000;fill-opacity:0.06666667">
      <g
         id="g1055"
         style="fill:#000000;fill-opacity:0.06666667">
</g>
      <g
         id="g1057"
         style="fill:#000000;fill-opacity:0.06666667">
	<g
   id="g1059"
   style="fill:#000000;fill-opacity:0.06666667">
		<path
   inkscape:connector-curvature="0"
   style="fill:#000000;fill-opacity:0.06666667"
   d="m 23.883,6.086 -2.82,2.832 C 22.953,10.809 24,13.324 24,16 24,21.516 19.516,26 14,26 l 0,-2 -4,4 4,4 0,-2 C 21.719,30 28,23.719 28,16 28,12.254 26.539,8.734 23.883,6.086 Z"
   id="path1061" />

		<path
   inkscape:connector-curvature="0"
   style="fill:#000000;fill-opacity:0.06666667"
   d="M 18,4 14,0 14,2 C 6.281,2 0,8.281 0,16 c 0,3.746 1.461,7.266 4.117,9.914 l 2.82,-2.832 C 5.047,21.191 4,18.676 4,16 4,10.484 8.484,6 14,6 L 14,8 18,4 Z"
   id="path1063" />

	</g>

</g>
    </g>
    <g
       style="fill:#000000;fill-opacity:0.1372549"
       id="g1065"
       transform="matrix(0.40625,0,0,0.40625,6.312499,1034.8596)">
      <g
         style="fill:#000000;fill-opacity:0.1372549"
         id="g1067">
</g>
      <g
         style="fill:#000000;fill-opacity:0.1372549"
         id="g1069">
	<g
   style="fill:#000000;fill-opacity:0.1372549"
   id="g1071">
		<path
   id="path1073"
   d="m 23.883,6.086 -2.82,2.832 C 22.953,10.809 24,13.324 24,16 24,21.516 19.516,26 14,26 l 0,-2 -4,4 4,4 0,-2 C 21.719,30 28,23.719 28,16 28,12.254 26.539,8.734 23.883,6.086 Z"
   style="fill:#000000;fill-opacity:0.1372549"
   inkscape:connector-curvature="0" />

		<path
   id="path1075"
   d="M 18,4 14,0 14,2 C 6.281,2 0,8.281 0,16 c 0,3.746 1.461,7.266 4.117,9.914 l 2.82,-2.832 C 5.047,21.191 4,18.676 4,16 4,10.484 8.484,6 14,6 L 14,8 18,4 Z"
   style="fill:#000000;fill-opacity:0.1372549"
   inkscape:connector-curvature="0" />

	</g>

</g>
    </g>
    <g
       transform="matrix(0.40625,0,0,0.40625,6.312499,1034.3272)"
       id="g1077"
       style="fill:#000000;fill-opacity:0.2745098">
      <g
         id="g1079"
         style="fill:#000000;fill-opacity:0.2745098">
</g>
      <g
         id="g1081"
         style="fill:#000000;fill-opacity:0.2745098">
	<g
   id="g1083"
   style="fill:#000000;fill-opacity:0.2745098">
		<path
   inkscape:connector-curvature="0"
   style="fill:#000000;fill-opacity:0.2745098"
   d="m 23.883,6.086 -2.82,2.832 C 22.953,10.809 24,13.324 24,16 24,21.516 19.516,26 14,26 l 0,-2 -4,4 4,4 0,-2 C 21.719,30 28,23.719 28,16 28,12.254 26.539,8.734 23.883,6.086 Z"
   id="path1085" />

		<path
   inkscape:connector-curvature="0"
   style="fill:#000000;fill-opacity:0.2745098"
   d="M 18,4 14,0 14,2 C 6.281,2 0,8.281 0,16 c 0,3.746 1.461,7.266 4.117,9.914 l 2.82,-2.832 C 5.047,21.191 4,18.676 4,16 4,10.484 8.484,6 14,6 L 14,8 18,4 Z"
   id="path1087" />

	</g>

</g>
    </g>
    <g
       id="g1046"
       transform="matrix(0.40625,0,0,0.40625,6.312499,1033.8622)"
       style="fill:#ffffff">
      <g
         id="Layer_1-2"
         style="fill:#ffffff">
</g>
      <g
         id="spin"
         style="fill:#ffffff">
	<g
   id="g1034"
   style="fill:#ffffff">
		<path
   id="path1036"
   d="m 23.883,6.086 -2.82,2.832 C 22.953,10.809 24,13.324 24,16 24,21.516 19.516,26 14,26 l 0,-2 -4,4 4,4 0,-2 C 21.719,30 28,23.719 28,16 28,12.254 26.539,8.734 23.883,6.086 Z"
   style="fill:#ffffff"
   inkscape:connector-curvature="0" />

		<path
   id="path1038"
   d="M 18,4 14,0 14,2 C 6.281,2 0,8.281 0,16 c 0,3.746 1.461,7.266 4.117,9.914 l 2.82,-2.832 C 5.047,21.191 4,18.676 4,16 4,10.484 8.484,6 14,6 L 14,8 18,4 Z"
   style="fill:#ffffff"
   inkscape:connector-curvature="0" />

	</g>

</g>
    </g>
  </g>
</svg>
