<?xml version="1.0" encoding="UTF-8" standalone="no"?>
<!-- Created with Inkscape (http://www.inkscape.org/) -->

<svg
   xmlns:dc="http://purl.org/dc/elements/1.1/"
   xmlns:cc="http://creativecommons.org/ns#"
   xmlns:rdf="http://www.w3.org/1999/02/22-rdf-syntax-ns#"
   xmlns:svg="http://www.w3.org/2000/svg"
   xmlns="http://www.w3.org/2000/svg"
   xmlns:xlink="http://www.w3.org/1999/xlink"
   xmlns:sodipodi="http://sodipodi.sourceforge.net/DTD/sodipodi-0.dtd"
   xmlns:inkscape="http://www.inkscape.org/namespaces/inkscape"
   width="24"
   height="24"
   id="svg2"
   version="1.1"
   inkscape:version="0.48+devel r12370"
   sodipodi:docname="emblem-urgent.svg">
  <defs
     id="defs4">
    <linearGradient
       inkscape:collect="always"
       xlink:href="#linearGradient830"
       id="linearGradient836"
       x1="-3.3402286"
       y1="1038.5532"
       x2="-3.3402286"
       y2="1030.2434"
       gradientUnits="userSpaceOnUse"
       gradientTransform="matrix(2.1715905,0,0,2.1715905,19.342067,-1205.8388)" />
    <linearGradient
       inkscape:collect="always"
       id="linearGradient830">
      <stop
         style="stop-color:#ff7703;stop-opacity:1"
         offset="0"
         id="stop832" />
      <stop
         style="stop-color:#ff9a00;stop-opacity:1"
         offset="1"
         id="stop834" />
    </linearGradient>
  </defs>
  <sodipodi:namedview
     id="base"
     pagecolor="#ffffff"
     bordercolor="#666666"
     borderopacity="1.0"
     inkscape:pageopacity="0.0"
     inkscape:pageshadow="2"
     inkscape:zoom="4"
     inkscape:cx="4.1524197"
     inkscape:cy="38.898286"
     inkscape:document-units="px"
     inkscape:current-layer="layer1"
     showgrid="false"
     inkscape:window-width="1366"
     inkscape:window-height="714"
     inkscape:window-x="0"
     inkscape:window-y="30"
     inkscape:window-maximized="1"
     showguides="true"
     inkscape:guide-bbox="true" />
  <metadata
     id="metadata7">
    <rdf:RDF>
      <cc:Work
         rdf:about="">
        <dc:format>image/svg+xml</dc:format>
        <dc:type
           rdf:resource="http://purl.org/dc/dcmitype/StillImage" />
        <dc:title />
      </cc:Work>
    </rdf:RDF>
  </metadata>
  <g
     inkscape:label="Capa 1"
     inkscape:groupmode="layer"
     id="layer1"
     transform="translate(0,-1028.3622)">
    <rect
       ry="1.6408838"
       y="1030.3622"
       x="2"
       height="20"
       width="20"
       id="rect846"
       style="fill:#000000;fill-opacity:0.09411765;stroke:none" />
    <rect
       style="fill:#000000;fill-opacity:0.17647059;stroke:none"
       id="rect844"
       width="19.34852"
       height="19.34852"
       x="2.3257408"
       y="1030.6879"
       ry="1.5874341" />
    <rect
       ry="1.5339843"
       y="1031.0137"
       x="2.6514778"
       height="18.697042"
       width="18.697042"
       id="rect838"
       style="fill:#000000;fill-opacity:0.35294118;stroke:none" />
    <rect
       style="fill:#000000;fill-opacity:0.42672412;stroke:none"
       id="rect848"
       width="18.469109"
       height="18.469109"
       x="2.7654457"
       y="1031.1277"
       ry="1.5152837" />
    <rect
       style="fill:url(#linearGradient836);fill-opacity:1;stroke:none"
       id="rect828"
       width="18.045561"
       height="18.045561"
       x="2.9772186"
       y="1031.3394"
       ry="1.4805344" />
    <path
       d="m 12.841042,1044.1846 -1.682514,0 0,-4.5883 1.682514,0 L 12.841042,1044.1846 z m 0,2.6782 -1.682514,0 0,-1.5296 1.682514,0 L 12.841042,1046.8628 z m 6.432315,0.7489 -6.811515,-11.9538 c -0.09326,-0.1647 -0.270797,-0.266 -0.462065,-0.266 -0.191252,0 -0.368311,0.1013 -0.462048,0.266 l -6.8101094,11.9538 c -0.09326,0.1624 -0.09184,0.3598 0.0029,0.5203 0.09658,0.1605 0.269374,0.2599 0.457323,0.2599 l 13.6239954,0 c 0.187949,0 0.360742,-0.099 0.457323,-0.2599 0.09469,-0.1605 0.09657,-0.3579 0.0043,-0.5203"
       style="fill:#000000;fill-opacity:0.06666667;fill-rule:nonzero;stroke:none"
       id="path942"
       inkscape:connector-curvature="0" />
    <path
       inkscape:connector-curvature="0"
       id="path944"
       style="fill:#000000;fill-opacity:0.1372549;fill-rule:nonzero;stroke:none"
       d="m 12.841042,1043.6523 -1.682514,0 0,-4.5883 1.682514,0 L 12.841042,1043.6523 z m 0,2.6782 -1.682514,0 0,-1.5296 1.682514,0 L 12.841042,1046.3305 z m 6.432315,0.7489 -6.811515,-11.9538 c -0.09326,-0.1647 -0.270797,-0.266 -0.462065,-0.266 -0.191252,0 -0.368311,0.1013 -0.462048,0.266 l -6.8101094,11.9538 c -0.09326,0.1624 -0.09184,0.3598 0.0029,0.5203 0.09658,0.1605 0.269374,0.2599 0.457323,0.2599 l 13.6239954,0 c 0.187949,0 0.360742,-0.099 0.457323,-0.2599 0.09469,-0.1605 0.09657,-0.3579 0.0043,-0.5203" />
    <path
       d="m 12.841042,1043.1199 -1.682514,0 0,-4.5883 1.682514,0 L 12.841042,1043.1199 z m 0,2.6782 -1.682514,0 0,-1.5296 1.682514,0 L 12.841042,1045.7981 z m 6.432315,0.7489 -6.811515,-11.9538 c -0.09326,-0.1647 -0.270797,-0.266 -0.462065,-0.266 -0.191252,0 -0.368311,0.1013 -0.462048,0.266 l -6.8101094,11.9538 c -0.09326,0.1624 -0.09184,0.3598 0.0029,0.5203 0.09658,0.1605 0.269374,0.2599 0.457323,0.2599 l 13.6239954,0 c 0.187949,0 0.360742,-0.099 0.457323,-0.2599 0.09469,-0.1605 0.09657,-0.3579 0.0043,-0.5203"
       style="fill:#000000;fill-opacity:0.2745098;fill-rule:nonzero;stroke:none"
       id="path946"
       inkscape:connector-curvature="0" />
    <path
       inkscape:connector-curvature="0"
       id="path558"
       style="fill:#ffffff;fill-opacity:1;fill-rule:nonzero;stroke:none"
       d="m 12.841042,1042.6549 -1.682514,0 0,-4.5883 1.682514,0 L 12.841042,1042.6549 z m 0,2.6782 -1.682514,0 0,-1.5296 1.682514,0 L 12.841042,1045.3331 z m 6.432315,0.7489 -6.811515,-11.9538 c -0.09326,-0.1647 -0.270797,-0.266 -0.462065,-0.266 -0.191252,0 -0.368311,0.1013 -0.462048,0.266 l -6.8101094,11.9538 c -0.09326,0.1624 -0.09184,0.3598 0.0029,0.5203 0.09658,0.1605 0.269374,0.2599 0.457323,0.2599 l 13.6239954,0 c 0.187949,0 0.360742,-0.099 0.457323,-0.2599 0.09469,-0.1605 0.09657,-0.3579 0.0043,-0.5203" />
  </g>
</svg>
