<?xml version="1.0" encoding="UTF-8" standalone="no"?>
<!-- Created with Inkscape (http://www.inkscape.org/) -->

<svg
   xmlns:dc="http://purl.org/dc/elements/1.1/"
   xmlns:cc="http://creativecommons.org/ns#"
   xmlns:rdf="http://www.w3.org/1999/02/22-rdf-syntax-ns#"
   xmlns:svg="http://www.w3.org/2000/svg"
   xmlns="http://www.w3.org/2000/svg"
   xmlns:xlink="http://www.w3.org/1999/xlink"
   xmlns:sodipodi="http://sodipodi.sourceforge.net/DTD/sodipodi-0.dtd"
   xmlns:inkscape="http://www.inkscape.org/namespaces/inkscape"
   width="24"
   height="24"
   id="svg2"
   version="1.1"
   inkscape:version="0.48+devel r12378"
   sodipodi:docname="emblem-development.svg">
  <defs
     id="defs4">
    <linearGradient
       inkscape:collect="always"
       xlink:href="#linearGradient830"
       id="linearGradient836"
       x1="-3.3402286"
       y1="1038.5532"
       x2="-3.3402286"
       y2="1030.2434"
       gradientUnits="userSpaceOnUse"
       gradientTransform="matrix(2.1715905,0,0,2.1715905,19.342067,-1205.8388)" />
    <linearGradient
       inkscape:collect="always"
       id="linearGradient830">
      <stop
         style="stop-color:#007fc6;stop-opacity:1"
         offset="0"
         id="stop832" />
      <stop
         style="stop-color:#079af2;stop-opacity:1"
         offset="1"
         id="stop834" />
    </linearGradient>
  </defs>
  <sodipodi:namedview
     id="base"
     pagecolor="#ffffff"
     bordercolor="#666666"
     borderopacity="1.0"
     inkscape:pageopacity="0.0"
     inkscape:pageshadow="2"
     inkscape:zoom="12.274609"
     inkscape:cx="2.7883667"
     inkscape:cy="6.8475819"
     inkscape:document-units="px"
     inkscape:current-layer="layer1"
     showgrid="false"
     inkscape:window-width="1366"
     inkscape:window-height="714"
     inkscape:window-x="0"
     inkscape:window-y="30"
     inkscape:window-maximized="1" />
  <metadata
     id="metadata7">
    <rdf:RDF>
      <cc:Work
         rdf:about="">
        <dc:format>image/svg+xml</dc:format>
        <dc:type
           rdf:resource="http://purl.org/dc/dcmitype/StillImage" />
        <dc:title></dc:title>
      </cc:Work>
    </rdf:RDF>
  </metadata>
  <g
     inkscape:label="Capa 1"
     inkscape:groupmode="layer"
     id="layer1"
     transform="translate(0,-1028.3622)">
    <rect
       ry="1.6408838"
       y="1030.3622"
       x="2"
       height="20"
       width="20"
       id="rect846"
       style="fill:#000000;fill-opacity:0.09411765;stroke:none" />
    <rect
       style="fill:#000000;fill-opacity:0.17647059;stroke:none"
       id="rect844"
       width="19.34852"
       height="19.34852"
       x="2.3257408"
       y="1030.6879"
       ry="1.5874341" />
    <rect
       ry="1.5339843"
       y="1031.0137"
       x="2.6514778"
       height="18.697042"
       width="18.697042"
       id="rect838"
       style="fill:#000000;fill-opacity:0.35294118;stroke:none" />
    <rect
       style="fill:#000000;fill-opacity:0.42672412;stroke:none"
       id="rect848"
       width="18.469109"
       height="18.469109"
       x="2.7654457"
       y="1031.1277"
       ry="1.5152837" />
    <rect
       style="fill:url(#linearGradient836);fill-opacity:1;stroke:none"
       id="rect828"
       width="18.045561"
       height="18.045561"
       x="2.9772186"
       y="1031.3394"
       ry="1.4805344" />
    <path
       inkscape:connector-curvature="0"
       id="path4100"
       d="m 8.8647806,1035.3937 c -0.425154,0.013 -0.849446,0.1057 -1.247805,0.2721 l 2.101566,2.1015 c 0.193669,0.1937 0.193668,0.51 0,0.7037 l -1.172749,1.1727 c -0.193668,0.1937 -0.509981,0.1937 -0.703649,0 l -2.110949,-2.1109 c -0.537323,1.2766 -0.279892,2.8068 0.759942,3.8466 1.371144,1.3712 3.5825474,1.3712 4.9536924,0 1.371143,-1.3711 1.380525,-3.5919 0.0094,-4.9631 C 10.741047,1035.7031 9.8001196,1035.3638 8.8647806,1035.3937 z m 4.2406604,5.4885 c -0.395397,0 -0.785338,0.1567 -1.088312,0.4597 l -0.516008,0.516 c -0.605948,0.6059 -0.605948,1.58 0,2.186 l 3.884144,3.8935 c 0.605948,0.606 1.580057,0.606 2.186004,0 l 0.51601,-0.5254 c 0.605948,-0.6059 0.605948,-1.58 0,-2.186 l -3.884145,-3.8841 C 13.90016,1041.0389 13.500837,1040.8822 13.105441,1040.8822 z m 3.358753,4.6722 c 0.193774,0 0.387591,0.078 0.534774,0.2252 0.294364,0.2943 0.284982,0.7658 -0.0094,1.0601 -0.294365,0.2944 -0.765801,0.2944 -1.060165,0 -0.294365,-0.2943 -0.294365,-0.7658 0,-1.0601 C 16.076603,1045.6324 16.27042,1045.5544 16.464194,1045.5544 Z"
       style="fill:#000000;fill-opacity:0.06666667;fill-rule:nonzero;stroke:none" />
    <path
       style="fill:#000000;fill-opacity:0.1372549;fill-rule:nonzero;stroke:none"
       d="m 8.8647806,1034.8614 c -0.425154,0.013 -0.849446,0.1057 -1.247805,0.2721 l 2.101566,2.1015 c 0.193669,0.1937 0.193668,0.51 0,0.7037 l -1.172749,1.1727 c -0.193668,0.1937 -0.509981,0.1937 -0.703649,0 l -2.110949,-2.1109 c -0.537323,1.2766 -0.279892,2.8068 0.759942,3.8466 1.371144,1.3712 3.5825474,1.3712 4.9536924,0 1.371143,-1.3711 1.380525,-3.5919 0.0094,-4.9631 C 10.741047,1035.1708 9.8001196,1034.8315 8.8647806,1034.8614 z m 4.2406604,5.4885 c -0.395397,0 -0.785338,0.1567 -1.088312,0.4597 l -0.516008,0.516 c -0.605948,0.6059 -0.605948,1.58 0,2.186 l 3.884144,3.8935 c 0.605948,0.606 1.580057,0.606 2.186004,0 l 0.51601,-0.5254 c 0.605948,-0.6059 0.605948,-1.58 0,-2.186 l -3.884145,-3.8841 C 13.90016,1040.5066 13.500837,1040.3499 13.105441,1040.3499 z m 3.358753,4.6722 c 0.193774,0 0.387591,0.078 0.534774,0.2252 0.294364,0.2943 0.284982,0.7658 -0.0094,1.0601 -0.294365,0.2944 -0.765801,0.2944 -1.060165,0 -0.294365,-0.2943 -0.294365,-0.7658 0,-1.0601 C 16.076603,1045.1001 16.27042,1045.0221 16.464194,1045.0221 Z"
       id="path4102"
       inkscape:connector-curvature="0" />
    <path
       style="fill:#000000;fill-opacity:0.2745098;fill-rule:nonzero;stroke:none"
       d="m 8.8647806,1034.329 c -0.425154,0.013 -0.849446,0.1057 -1.247805,0.2721 l 2.101566,2.1015 c 0.193669,0.1937 0.193668,0.51 0,0.7037 l -1.172749,1.1727 c -0.193668,0.1937 -0.509981,0.1937 -0.703649,0 l -2.110949,-2.1109 c -0.537323,1.2766 -0.279892,2.8068 0.759942,3.8466 1.371144,1.3712 3.5825474,1.3712 4.9536924,0 1.371143,-1.3711 1.380525,-3.5919 0.0094,-4.9631 C 10.741047,1034.6384 9.8001196,1034.2991 8.8647806,1034.329 z m 4.2406604,5.4885 c -0.395397,0 -0.785338,0.1567 -1.088312,0.4597 l -0.516008,0.516 c -0.605948,0.6059 -0.605948,1.58 0,2.186 l 3.884144,3.8935 c 0.605948,0.606 1.580057,0.606 2.186004,0 l 0.51601,-0.5254 c 0.605948,-0.6059 0.605948,-1.58 0,-2.186 l -3.884145,-3.8841 C 13.90016,1039.9742 13.500837,1039.8175 13.105441,1039.8175 z m 3.358753,4.6722 c 0.193774,0 0.387591,0.078 0.534774,0.2252 0.294364,0.2943 0.284982,0.7658 -0.0094,1.0601 -0.294365,0.2944 -0.765801,0.2944 -1.060165,0 -0.294365,-0.2943 -0.294365,-0.7658 0,-1.0601 C 16.076603,1044.5677 16.27042,1044.4897 16.464194,1044.4897 Z"
       id="path4104"
       inkscape:connector-curvature="0" />
    <path
       style="fill:#ffffff;fill-opacity:1;fill-rule:nonzero;stroke:none"
       d="m 8.8647806,1033.864 c -0.425154,0.013 -0.849446,0.1057 -1.247805,0.2721 l 2.101566,2.1015 c 0.193669,0.1937 0.193668,0.51 0,0.7037 l -1.172749,1.1727 c -0.193668,0.1937 -0.509981,0.1937 -0.703649,0 l -2.110949,-2.1109 c -0.537323,1.2766 -0.279892,2.8068 0.759942,3.8466 1.371144,1.3712 3.5825474,1.3712 4.9536924,0 1.371143,-1.3711 1.380525,-3.5919 0.0094,-4.9631 C 10.741047,1034.1734 9.8001196,1033.8341 8.8647806,1033.864 z m 4.2406604,5.4885 c -0.395397,0 -0.785338,0.1567 -1.088312,0.4597 l -0.516008,0.516 c -0.605948,0.6059 -0.605948,1.58 0,2.186 l 3.884144,3.8935 c 0.605948,0.606 1.580057,0.606 2.186004,0 l 0.51601,-0.5254 c 0.605948,-0.6059 0.605948,-1.58 0,-2.186 l -3.884145,-3.8841 C 13.90016,1039.5092 13.500837,1039.3525 13.105441,1039.3525 z m 3.358753,4.6722 c 0.193774,0 0.387591,0.078 0.534774,0.2252 0.294364,0.2943 0.284982,0.7658 -0.0094,1.0601 -0.294365,0.2944 -0.765801,0.2944 -1.060165,0 -0.294365,-0.2943 -0.294365,-0.7658 0,-1.0601 C 16.076603,1044.1027 16.27042,1044.0247 16.464194,1044.0247 Z"
       id="path4096"
       inkscape:connector-curvature="0" />
  </g>
</svg>
