<?xml version="1.0" encoding="UTF-8" standalone="no"?>
<svg
   xmlns:dc="http://purl.org/dc/elements/1.1/"
   xmlns:cc="http://creativecommons.org/ns#"
   xmlns:rdf="http://www.w3.org/1999/02/22-rdf-syntax-ns#"
   xmlns:svg="http://www.w3.org/2000/svg"
   xmlns="http://www.w3.org/2000/svg"
   xmlns:xlink="http://www.w3.org/1999/xlink"
   xmlns:sodipodi="http://sodipodi.sourceforge.net/DTD/sodipodi-0.dtd"
   xmlns:inkscape="http://www.inkscape.org/namespaces/inkscape"
   height="48"
   width="48"
   viewBox="0 0 13.546667 13.546667"
   id="svg2"
   version="1.1"
   inkscape:version="0.48+devel r"
   sodipodi:docname="preferences-system-hotcorners.svg">
  <metadata
     id="metadata97">
    <rdf:RDF>
      <cc:Work
         rdf:about="">
        <dc:format>image/svg+xml</dc:format>
        <dc:type
           rdf:resource="http://purl.org/dc/dcmitype/StillImage" />
      </cc:Work>
    </rdf:RDF>
  </metadata>
  <sodipodi:namedview
     pagecolor="#ffffff"
     bordercolor="#666666"
     borderopacity="1"
     objecttolerance="10"
     gridtolerance="10"
     guidetolerance="10"
     inkscape:pageopacity="0"
     inkscape:pageshadow="2"
     inkscape:window-width="1366"
     inkscape:window-height="666"
     id="namedview95"
     showgrid="false"
     inkscape:zoom="6.5149434"
     inkscape:cx="25.461486"
     inkscape:cy="25.729537"
     inkscape:window-x="-2"
     inkscape:window-y="25"
     inkscape:window-maximized="1"
     inkscape:current-layer="svg2" />
  <defs
     id="defs4">
    <linearGradient
       inkscape:collect="always"
       id="linearGradient4376">
      <stop
         style="stop-color:#ffffff;stop-opacity:1;"
         offset="0"
         id="stop4378" />
      <stop
         style="stop-color:#ffffff;stop-opacity:0;"
         offset="1"
         id="stop4380" />
    </linearGradient>
    <linearGradient
       gradientTransform="matrix(0.29983645,0,0,0.29983645,-79.031337,-209.70591)"
       gradientUnits="userSpaceOnUse"
       y2="695.97229"
       x2="260.49445"
       y1="733.65088"
       x1="310.04129"
       id="linearGradient1384"
       xlink:href="#linearGradient1378"
       inkscape:collect="always" />
    <linearGradient
       id="linearGradient1378"
       inkscape:collect="always">
      <stop
         id="stop1380"
         offset="0"
         style="stop-color:#ffffff;stop-opacity:0.26595744" />
      <stop
         id="stop1382"
         offset="1"
         style="stop-color:#ffffff;stop-opacity:0;" />
    </linearGradient>
    <linearGradient
       gradientTransform="matrix(0.28222223,0,0,0.28222223,-74.667942,-197.49616)"
       gradientUnits="userSpaceOnUse"
       y2="728.87933"
       x2="302.72244"
       y1="698.57471"
       x1="274.54669"
       id="linearGradient1365"
       xlink:href="#linearGradient1378"
       inkscape:collect="always" />
    <linearGradient
       id="linearGradient3700-46-1">
      <stop
         id="stop3702-4-1"
         style="stop-color:#2276c5;stop-opacity:1"
         offset="0" />
      <stop
         id="stop3704-2-4"
         style="stop-color:#68baf4;stop-opacity:1"
         offset="1" />
    </linearGradient>
    <linearGradient
       gradientTransform="matrix(0.28222223,0,0,0.28222223,13.418502,283.53436)"
       gradientUnits="userSpaceOnUse"
       y2="-1004.7695"
       x2="-13.025376"
       y1="-1052.8632"
       x1="-13.025376"
       id="linearGradient4647"
       xlink:href="#linearGradient3700-46-1"
       inkscape:collect="always" />
    <linearGradient
       inkscape:collect="always"
       xlink:href="#linearGradient4376"
       id="linearGradient4382"
       x1="0"
       y1="0.67824513"
       x2="6.1865597"
       y2="6.8648047"
       gradientUnits="userSpaceOnUse" />
    <linearGradient
       inkscape:collect="always"
       xlink:href="#linearGradient4376"
       id="linearGradient4386"
       gradientUnits="userSpaceOnUse"
       x1="0"
       y1="0.67824513"
       x2="6.1865597"
       y2="6.8648047"
       gradientTransform="matrix(-0.28222223,0,0,0.28222223,13.546667,0)" />
  </defs>
  <rect
     style="fill:url(#linearGradient4647);fill-opacity:1;stroke:none"
     id="rect2991-1-7"
     width="13.546667"
     height="13.546667"
     x="1.402411e-06"
     y="-13.546662"
     ry="0.54879344"
     transform="scale(1,-1)" />
  <path
     style="opacity:0.5;fill:url(#linearGradient1365);fill-opacity:1;stroke:none"
     d="m -7.6444433e-8,3.3958388 0,6.6410282 C 2.8886057,8.0019878 6.8825445,6.5885907 9.9836114,5.7065333 6.7848321,4.6820102 3.0671782,3.9194739 -7.6444433e-8,3.3958388 Z"
     id="path1357"
     inkscape:connector-curvature="0" />
  <path
     style="fill:#ffffff;fill-opacity:0.15204677;stroke:none"
     d="m -7.6444433e-8,3.3847838e-4 0,7.93750022162 C 4.2406244,4.9505446 10.869323,3.2874372 13.546667,2.7079221 l 0,-2.70758362162 -13.546667076444434,0 z"
     id="rect1340"
     inkscape:connector-curvature="0" />
  <path
     style="fill:url(#linearGradient1384);fill-opacity:1;stroke:none"
     d="m -7.6444433e-8,3.3847838e-4 0,7.15258372162 C 5.3181858,7.5498114 10.724064,9.0473954 13.546667,9.9310332 l 0,-4.2421388 -9.8601391,-5.68855592162 -3.686527976444433,0 z"
     id="path1376"
     inkscape:connector-curvature="0" />
  <rect
     transform="scale(1,-1)"
     ry="0.54879344"
     y="-13.546662"
     x="1.402411e-06"
     height="13.546667"
     width="13.546667"
     id="rect4388"
     style="fill:#000000;fill-opacity:0.3137255;stroke:none" />
  <path
     inkscape:connector-curvature="0"
     style="fill:#000000;fill-opacity:0.70588235;stroke:none"
     d="M 0.54901043,13.546667 C 0.24497887,13.546667 0,13.301688 0,12.997656 l 0,-2.273212 13.546667,0 0,2.273212 c 0,0.304032 -0.244979,0.549011 -0.54901,0.549011 l -12.44864657,0 z"
     id="rect4060" />
  <path
     style="opacity:1;fill:url(#linearGradient4386);fill-opacity:1;stroke:none;stroke-width:2.79999995;stroke-miterlimit:4;stroke-dasharray:none;stroke-opacity:0.55026455"
     d="m 12.997657,0 c 0.304031,0 0.54901,0.244979 0.54901,0.549011 l 0,2.797417 -3.227917,0 c -0.0858,0 -0.169283,-0.0704 -0.15434,-0.154891 L 10.16441,0 Z"
     id="path4384"
     inkscape:connector-curvature="0"
     sodipodi:nodetypes="sscsscs" />
  <path
     style="fill:#000000;fill-opacity:0.23529412;stroke:none"
     d="m 2.6392188,13.546667 0,-2.822222 0.141111,0 0,2.822222 -0.141111,0 z"
     id="rect4658"
     inkscape:connector-curvature="0" />
  <path
     id="path4663"
     d="m 2.7803298,13.546667 0,-2.822222 0.1411111,0 0,2.822222 -0.1411111,0 z"
     style="fill:#ffffff;fill-opacity:0.11764706;stroke:none"
     inkscape:connector-curvature="0" />
  <path
     inkscape:connector-curvature="0"
     style="fill:#ffffff;fill-opacity:0.5372549;stroke:none"
     d="m 0.14992913,0.18522226 c -0.25882319,0 -0.47163569,0.18048112 -0.52034725,0.42333335 0.0947166,-0.078994 0.21858395,-0.12347223 0.3527778,-0.12347223 l 12.45305632,0 c 0.134194,0 0.258061,0.0444782 0.352778,0.12347223 C 12.739484,0.36570338 12.52667,0.18522226 12.267847,0.18522226 l -12.11791787,0 z"
     id="path7515-8" />
  <g
     style="fill:#ffffff;fill-opacity:1"
     inkscape:label="Capa 1"
     id="layer1-4"
     transform="matrix(0.03762963,0,0,-0.03762963,0.55760916,50.663107)">
    <g
       id="g1252"
       transform="matrix(0.53927737,0,0,-0.53927737,24.005932,1034.3687)"
       style="fill:#ffffff;fill-opacity:1">
      <path
         d="m 0,0 c -5.752,0 -10.414,4.774 -10.414,10.669 0,5.889 4.662,10.667 10.414,10.667 5.751,0 10.415,-4.778 10.415,-10.667 C 10.415,4.774 5.751,0 0,0 m 26.015,3.195 c 0.731,2.515 1.123,5.18 1.123,7.941 0,0.233 -0.003,0.461 -0.007,0.691 l -6.071,3.211 c -0.223,1.184 -0.542,2.33 -0.948,3.438 l 3.762,5.896 c -1.373,2.59 -3.133,4.937 -5.208,6.951 L 11.83,29.095 c -0.814,0.551 -1.663,1.042 -2.547,1.472 L 7.816,37.78 c -2.476,0.764 -5.102,1.173 -7.826,1.173 -0.239,0 -0.476,-0.006 -0.712,-0.01 l -3.374,-6.682 c -0.87,-0.183 -1.716,-0.414 -2.538,-0.696 l -6.149,4.118 c -2.561,-1.397 -4.882,-3.207 -6.872,-5.343 l 2.206,-7.103 c -0.516,-0.767 -0.993,-1.574 -1.413,-2.413 l -7.109,-1.52 c -0.776,-2.585 -1.189,-5.324 -1.189,-8.168 0,-0.188 0,-0.369 0.008,-0.554 l 6.2,-3.292 c 0.176,-1.101 0.435,-2.18 0.766,-3.218 l -3.815,-5.968 c 0.001,-0.001 0.002,-0.003 0.003,-0.005 l -0.003,0.004 c 1.181,-2.275 2.661,-4.365 4.388,-6.209 0.246,-0.263 0.498,-0.521 0.755,-0.775 l 6.354,2.069 c 1.015,-0.767 2.093,-1.436 3.236,-2.008 l 1.358,-6.66 c 2.501,-0.778 5.153,-1.197 7.9,-1.197 0.173,0 0.338,0 0.504,0.006 l 2.978,5.899 c 1.364,0.215 2.695,0.572 3.961,1.046 l 5.419,-3.63 c 2.511,1.381 4.782,3.16 6.741,5.251 l -1.985,6.398 c 0.756,1.104 1.416,2.283 1.966,3.52 l 6.441,1.382 z"
         style="fill:#ffffff;fill-opacity:1;fill-rule:nonzero;stroke:none"
         id="path1254"
         inkscape:connector-curvature="0" />
    </g>
  </g>
  <path
     inkscape:connector-curvature="0"
     style="fill:#000000;fill-opacity:1;stroke:none"
     d="m -1.4424111e-6,12.7 0,0.299861 c 0,0.304038 0.2427732024111,0.546806 0.5468055824111,0.546806 l 12.45305586,0 c 0.304032,0 0.546806,-0.242768 0.546806,-0.546806 l 0,-0.299861 c 0,0.304038 -0.242774,0.546806 -0.546806,0.546806 l -12.45305586,0 C 0.24277176,13.246806 -1.4424111e-6,13.004038 -1.4424111e-6,12.7 Z"
     id="rect846-4" />
  <path
     sodipodi:nodetypes="sscsscs"
     inkscape:connector-curvature="0"
     id="path4366"
     transform="scale(0.28222223,0.28222223)"
     d="M 1.9453125,0 C 0.86803533,0 0,0.86803533 0,1.9453125 l 0,9.9121095 11.4375,0 c 0.304031,0 0.599823,-0.249443 0.546875,-0.548828 L 11.984375,0 Z"
     style="opacity:1;fill:url(#linearGradient4382);fill-opacity:1;stroke:none;stroke-width:2.79999995;stroke-miterlimit:4;stroke-dasharray:none;stroke-opacity:0.55026455" />
  <path
     inkscape:connector-curvature="0"
     style="fill:#000000;fill-opacity:0.39215686;stroke:none"
     d="M 0.54680414,-1.88294e-7 C 0.24277176,-1.88294e-7 -1.4424111e-6,0.24276737 -1.4424111e-6,0.54680538 l 0,12.15319462 c 0,0.223915 0.1354723124111,0.40894 0.3263194624111,0.493889 C 0.23901539,13.099824 0.1852069,12.973078 0.1852069,12.832306 l 0,-12.11791706 c 0,-0.29582534 0.23336957,-0.52916668 0.52916669,-0.52916668 l 12.11791741,0 c 0.295797,0 0.529166,0.23334134 0.529166,0.52916668 l 0,12.11791706 c 0,0.140772 -0.05381,0.267518 -0.141111,0.361583 0.190847,-0.08495 0.32632,-0.269974 0.32632,-0.493889 l 0,-12.15319462 C 13.546666,0.24276737 13.303892,-1.88294e-7 12.99986,-1.88294e-7 l -12.45305586,0 z"
     id="rect4280-4" />
</svg>
