<?xml version="1.0" encoding="UTF-8" standalone="no"?>
<!-- Created with Inkscape (http://www.inkscape.org/) -->

<svg
   xmlns:dc="http://purl.org/dc/elements/1.1/"
   xmlns:cc="http://creativecommons.org/ns#"
   xmlns:rdf="http://www.w3.org/1999/02/22-rdf-syntax-ns#"
   xmlns:svg="http://www.w3.org/2000/svg"
   xmlns="http://www.w3.org/2000/svg"
   xmlns:xlink="http://www.w3.org/1999/xlink"
   xmlns:sodipodi="http://sodipodi.sourceforge.net/DTD/sodipodi-0.dtd"
   xmlns:inkscape="http://www.inkscape.org/namespaces/inkscape"
   width="48"
   height="48"
   id="svg5453"
   version="1.1"
   inkscape:version="0.48+devel r12392"
   sodipodi:docname="preferences-tweaks-shadows.svg">
  <defs
     id="defs5455">
    <linearGradient
       inkscape:collect="always"
       id="linearGradient4162">
      <stop
         style="stop-color:#e95353;stop-opacity:1;"
         offset="0"
         id="stop4164" />
      <stop
         style="stop-color:#ea7373;stop-opacity:1"
         offset="1"
         id="stop4166" />
    </linearGradient>
    <linearGradient
       id="linearGradient4141"
       inkscape:collect="always">
      <stop
         id="stop4143"
         offset="0"
         style="stop-color:#01bbff;stop-opacity:1" />
      <stop
         id="stop4145"
         offset="1"
         style="stop-color:#14ccff;stop-opacity:1" />
    </linearGradient>
    <linearGradient
       inkscape:collect="always"
       id="linearGradient4108">
      <stop
         style="stop-color:#00a3df;stop-opacity:1"
         offset="0"
         id="stop4110" />
      <stop
         style="stop-color:#00baed;stop-opacity:1"
         offset="1"
         id="stop4112" />
    </linearGradient>
    <linearGradient
       inkscape:collect="always"
       id="linearGradient56">
      <stop
         style="stop-color:#b3b3b3;stop-opacity:0.99607843"
         offset="0"
         id="stop58" />
      <stop
         style="stop-color:#f2f0eb;stop-opacity:1"
         offset="1"
         id="stop60" />
    </linearGradient>
    <linearGradient
       inkscape:collect="always"
       id="linearGradient44">
      <stop
         style="stop-color:#fefefd;stop-opacity:1"
         offset="0"
         id="stop46" />
      <stop
         style="stop-color:#fefeff;stop-opacity:1"
         offset="1"
         id="stop48" />
    </linearGradient>
    <linearGradient
       inkscape:collect="always"
       id="linearGradient19">
      <stop
         style="stop-color:#f2f0eb;stop-opacity:1"
         offset="0"
         id="stop21" />
      <stop
         style="stop-color:#ffffff;stop-opacity:1"
         offset="1"
         id="stop23" />
    </linearGradient>
    <linearGradient
       inkscape:collect="always"
       xlink:href="#linearGradient19"
       id="linearGradient25"
       x1="412.11057"
       y1="-547.79797"
       x2="412.11057"
       y2="-499.81238"
       gradientUnits="userSpaceOnUse" />
    <linearGradient
       inkscape:collect="always"
       xlink:href="#linearGradient44"
       id="linearGradient50"
       x1="410.07144"
       y1="-539.78235"
       x2="410.07144"
       y2="-507.76675"
       gradientUnits="userSpaceOnUse"
       gradientTransform="matrix(1.2173938,0,0,1.2173938,-88.820974,114.78343)" />
    <linearGradient
       inkscape:collect="always"
       xlink:href="#linearGradient56"
       id="linearGradient62"
       x1="415.79364"
       y1="-545.79797"
       x2="415.79364"
       y2="-513.81232"
       gradientUnits="userSpaceOnUse"
       gradientTransform="matrix(1.3125,0,0,1.3125,-135.55366,171.56185)" />
    <linearGradient
       inkscape:collect="always"
       xlink:href="#linearGradient4141"
       id="linearGradient4114"
       x1="397.08472"
       y1="515.48743"
       x2="397.08472"
       y2="514.41534"
       gradientUnits="userSpaceOnUse"
       gradientTransform="matrix(1.2173938,0,0,1.2173938,-88.820974,-114.78343)" />
    <linearGradient
       inkscape:collect="always"
       xlink:href="#linearGradient4108"
       id="linearGradient4139"
       gradientUnits="userSpaceOnUse"
       x1="397.08472"
       y1="515.48743"
       x2="397.08472"
       y2="514.41534"
       gradientTransform="matrix(1.1877093,0,0,0.93486589,-77.039616,30.705298)" />
    <linearGradient
       inkscape:collect="always"
       xlink:href="#linearGradient4162"
       id="linearGradient4168"
       x1="9.4630775"
       y1="8.4937439"
       x2="9.4630775"
       y2="9.5654526"
       gradientUnits="userSpaceOnUse" />
  </defs>
  <sodipodi:namedview
     id="base"
     pagecolor="#ffffff"
     bordercolor="#666666"
     borderopacity="1.0"
     inkscape:pageopacity="0"
     inkscape:pageshadow="2"
     inkscape:zoom="6.2692068"
     inkscape:cx="3.2053442"
     inkscape:cy="16.264278"
     inkscape:document-units="px"
     inkscape:current-layer="layer1"
     showgrid="false"
     fit-margin-top="0"
     fit-margin-left="0"
     fit-margin-right="0"
     fit-margin-bottom="0"
     inkscape:window-width="1366"
     inkscape:window-height="715"
     inkscape:window-x="0"
     inkscape:window-y="30"
     inkscape:window-maximized="1" />
  <metadata
     id="metadata5458">
    <rdf:RDF>
      <cc:Work
         rdf:about="">
        <dc:format>image/svg+xml</dc:format>
        <dc:type
           rdf:resource="http://purl.org/dc/dcmitype/StillImage" />
        <dc:title />
      </cc:Work>
    </rdf:RDF>
  </metadata>
  <g
     inkscape:label="Capa 1"
     inkscape:groupmode="layer"
     id="layer1"
     transform="translate(-384.57143,-499.798)">
    <rect
       style="fill:url(#linearGradient25);fill-opacity:1;stroke:none"
       id="rect2991-1-7"
       width="48"
       height="48"
       x="384.57144"
       y="-547.79797"
       ry="1.9445436"
       transform="scale(1,-1)" />
    <path
       inkscape:connector-curvature="0"
       style="fill:#000000;fill-opacity:1;stroke:none"
       d="m 384.57143,544.79799 0,1.0625 c 0,1.0773 0.86022,1.9375 1.9375,1.9375 l 44.125,0 c 1.07728,0 1.9375,-0.8602 1.9375,-1.9375 l 0,-1.0625 c 0,1.0773 -0.86022,1.9375 -1.9375,1.9375 l -44.125,0 C 385.43165,546.73549 384.57143,545.87529 384.57143,544.79799 Z"
       id="rect846" />
    <path
       inkscape:connector-curvature="0"
       style="fill:#ffffff;fill-opacity:0.5372549;stroke:none"
       d="m 387.10268,500.45429 c -0.91709,0 -1.67115,0.6395 -1.84375,1.5 0.33561,-0.2799 0.77451,-0.4375 1.25,-0.4375 l 44.125,0 c 0.47549,0 0.91439,0.1576 1.25,0.4375 -0.1726,-0.8605 -0.92666,-1.5 -1.84375,-1.5 L 387.10268,500.45429 Z"
       id="path7515" />
    <path
       inkscape:connector-curvature="0"
       style="fill:#000000;fill-opacity:0.39215686;stroke:none"
       d="m 386.50893,499.79799 c -1.07728,0 -1.9375,0.8602 -1.9375,1.9375 l 0,43.0625 c 0,0.7934 0.48002,1.449 1.15625,1.75 -0.30934,-0.3333 -0.5,-0.7824 -0.5,-1.2812 l 0,-42.9375 c 0,-1.0482 0.8269,-1.875 1.875,-1.875 l 42.9375,0 c 1.0481,0 1.875,0.8268 1.875,1.875 l 0,42.9375 c 0,0.4988 -0.19066,0.9479 -0.5,1.2812 0.67623,-0.301 1.15625,-0.9566 1.15625,-1.75 l 0,-43.0625 c 0,-1.0773 -0.86022,-1.9375 -1.9375,-1.9375 L 386.50893,499.79799 Z"
       id="rect4280" />
    <rect
       style="fill:url(#linearGradient62);fill-opacity:1;stroke:none"
       id="rect52"
       width="42"
       height="42"
       x="387.57144"
       y="-544.79797"
       ry="1.7014759"
       transform="scale(1,-1)" />
    <rect
       style="fill:#000000;fill-opacity:0.05882353;stroke:none"
       id="rect4092"
       width="38.956604"
       height="38.956604"
       x="389.09308"
       y="-544.18927"
       ry="1.5781844"
       transform="scale(1,-1)" />
    <rect
       transform="scale(1,-1)"
       ry="1.5781844"
       y="-543.58069"
       x="389.09308"
       height="38.956604"
       width="38.956604"
       id="rect4090"
       style="fill:#000000;fill-opacity:0.11764706;stroke:none" />
    <rect
       style="fill:#000000;fill-opacity:0.23529412;stroke:none"
       id="rect4086"
       width="38.956604"
       height="38.956604"
       x="389.09308"
       y="-542.97235"
       ry="1.5781844"
       transform="scale(1,-1)" />
    <rect
       transform="scale(1,-1)"
       ry="1.5781844"
       y="-542.36316"
       x="389.09308"
       height="38.956604"
       width="38.956604"
       id="rect27"
       style="fill:url(#linearGradient50);fill-opacity:1;stroke:none" />
    <path
       style="fill:#000000;fill-opacity:0.11764706;stroke:none"
       d="m 389.0931,511.47201 0,29.33157 c 0,0.87429 0.68546,1.5598 1.55975,1.5598 l 8.94027,0 0,-30.89137 L 389.0931,511.47201 Z"
       id="rect4094"
       inkscape:connector-curvature="0" />
    <path
       sodipodi:nodetypes="ssssccs"
       inkscape:connector-curvature="0"
       id="path4101"
       d="m 428.04973,504.96648 c 0,-0.87427 -0.68552,-1.55974 -1.55981,-1.55974 l -35.83701,0 c -0.87433,0 -1.5598,0.68547 -1.5598,1.55974 l 0,6.5055 L 428.04973,511.47198 Z"
       style="fill:#000000;fill-opacity:0.11764706;stroke:none" />
    <path
       style="fill:#000000;fill-opacity:0.23529412;stroke:none"
       d="m 399.36485,511.47201 0,30.89137 0.22827,0 0,-30.89137 L 399.36485,511.47201 Z"
       id="path4132"
       inkscape:connector-curvature="0" />
    <rect
       style="fill:url(#linearGradient4114);fill-opacity:1;stroke:none"
       id="rect4106"
       width="10.491333"
       height="1.291241"
       x="389.09744"
       y="511.47189"
       ry="0" />
    <path
       style="fill:#000000;fill-opacity:0.23529412;stroke:none"
       d="m 389.0931,511.22849 0,0.24352 38.95662,0 0,-0.24352 L 389.0931,511.22849 Z"
       id="rect4127"
       inkscape:connector-curvature="0" />
    <rect
       ry="0"
       y="511.62164"
       x="389.22543"
       height="0.99157494"
       width="10.235518"
       id="rect4137"
       style="fill:url(#linearGradient4139);fill-opacity:1;stroke:none" />
    <path
       sodipodi:type="arc"
       style="fill:url(#linearGradient4168);fill-opacity:1;stroke:none"
       id="path4147"
       sodipodi:cx="9.40625"
       sodipodi:cy="9.03125"
       sodipodi:rx="0.53125"
       sodipodi:ry="0.53125"
       d="M 9.9375,9.03125 C 9.9375,9.3246513 9.6996513,9.5625 9.40625,9.5625 9.1128487,9.5625 8.875,9.3246513 8.875,9.03125 8.875,8.7378487 9.1128487,8.5 9.40625,8.5 9.6996513,8.5 9.9375,8.7378487 9.9375,9.03125 Z"
       transform="matrix(1.2173938,0,0,1.2173938,379.35394,494.03344)" />
  </g>
</svg>
