/* XPM */
static char *bottom_active[] = {
/* columns rows colors chars-per-pixel */
"11 5 2 1 ",
"  c black",
". c #2D2D2D",
/* pixels */
"...........",
"...........",
"...........",
"...........",
"           "
};
