/* XPM */
static char *bottom_left_active[] = {
/* columns rows colors chars-per-pixel */
"5 30 5 1 ",
"  c black",
". c gray15",
"X c #282828",
"o c #2D2D2D",
"O c None",
/* pixels */
" oooo",
" oooo",
" oooo",
" oooo",
" oooo",
" oooo",
" oooo",
" oooo",
" oooo",
" oooo",
" oooo",
" oooo",
" oooo",
" oooo",
" oooo",
" oooo",
" oooo",
" oooo",
" oooo",
" oooo",
" oooo",
" oooo",
" oooo",
" oooo",
" oooo",
" oooo",
" Xooo",
"O ooo",
"O .oo",
"OO   "
};
