/* XPM */
static char *close_active[] = {
/* columns rows colors chars-per-pixel */
"20 30 27 1 ",
"  c black",
". c #070707",
"X c gray3",
"o c #0A0B0A",
"O c #0B0B0B",
"+ c #0C0C0C",
"@ c #101010",
"# c #171717",
"$ c #191919",
"% c gray10",
"& c #1D1D1D",
"* c #202020",
"= c gray15",
"- c #282828",
"; c #2D2D2D",
": c #2F2F2F",
"> c gray19",
", c #333333",
"< c #343434",
"1 c #363636",
"2 c #373737",
"3 c #3A3A3A",
"4 c #3C3C3C",
"5 c #3E3E3E",
"6 c gray25",
"7 c #444444",
"8 c #35BF5C",
/* pixels */
"                    ",
"77777777777777777777",
"11111111111111111111",
"11111111111111111111",
"111,11,1111,1,11<1<1",
",11,1,11,,11111,1<1<",
"111111,,11,1111,<1<1",
"1,,1,1111,,1,,111<11",
",11,,,,&O...@*,1<<<<",
",,,,,=O.......+;<<<<",
"1,,1-O..O.O....O;1<<",
",,,;O....O.OOO..+,,,",
",,,%...O.OOOO.O..*<,",
",,1+..OO8O..8OO..#,,",
",,;O.O.OOOOOOO...O,,",
";1-.O..OOO8OOOO...,,",
",,,O..OOOOOOXOO..@;<",
"1;1+...O8XXO8XXX.%1;",
";,;=...OOOXOXXXX.;11",
";,,1+.O.XOXOO.XX#<;;",
",;>>1O.X...XXXX@3,;,",
";,;;11@.O+....#3;;>;",
";,;,;15;%+X@&<3>>;,;",
";;;,;;>135653,;,;,;;",
";;;;,;;;,;;;;;;;;,;;",
";,;;;;;;;;;,;,;,;;;;",
",;,;;;;;;;;;;;,;;;;,",
";;;;;,;;;,;;;;;;,;;;",
";;;;;;;;;;;;;;;;;;;;",
";;;;;;;;;;;;;;;;;;;;"
};
