/* XPM */
static char *close_inactive[] = {
/* columns rows colors chars-per-pixel */
"20 30 16 1 ",
"  c black",
". c #070707",
"X c #0B0B0B",
"o c #0C0C0C",
"O c #101010",
"+ c gray9",
"@ c #1A1A1A",
"# c #1D1D1D",
"$ c #202020",
"% c gray15",
"& c #2D2D2D",
"* c #333333",
"= c #363636",
"- c #383838",
"; c #3D3D3D",
": c #444444",
/* pixels */
"                    ",
"::::::::::::::::::::",
"====================",
"====================",
"===*==*====*=*====**",
"*==*=*==**=====**===",
"======**==*====**===",
"=**=*====**=**====*=",
"*==****#X...O$*==***",
"****=%X.......o&*==*",
"=**=%X..X.X....X&=**",
"***&X....X.XXX..o***",
"***@..XXXXXXXX...$=*",
"***o...X;.XX;XX..+**",
"***..X.XXXXXX.X..o**",
"&*&..X.XXX;XXXX..X&*",
"***...XXXXXXXX...o*&",
"*&*O.XX.;XX.;.X..#*&",
"***%...XXXXXXX.X.&**",
"&&&-O....X.X....@*&*",
"*&*&=o.XX....X.O-&*&",
"&*&&*=O.......+-**&&",
"&*&*&*;&@OXO#*-*&&&*",
"&&&*&*&=;-:;-**&&*&*",
"&&&&*&&&*&&&&&&&&*&&",
"&*&&&&&&&&&*&*&*&&&&",
"*&*&&&&&&&&&&&*&&&&*",
"&&&&&*&&&*&&&&&&*&&&",
"&&&&&&&&&&&&&&&&&&&&",
"&&&&&&&&&&&&&&&&&&&&"
};
