/* XPM */
static char *close_pressed[] = {
/* columns rows colors chars-per-pixel */
"20 30 17 1 ",
"  c black",
". c #070707",
"X c #0B0B0B",
"o c #0C0C0C",
"O c #101010",
"+ c #151515",
"@ c gray10",
"# c #1D1D1D",
"$ c #202020",
"% c gray14",
"& c #2D2D2D",
"* c #333333",
"= c #363636",
"- c #383838",
"; c gray24",
": c #444444",
"> c #5A5A5A",
/* pixels */
"                    ",
"::::::::::::::::::::",
"====================",
"====================",
"===*==*====*=*==*===",
"*==*=*==**=====*==*=",
"======**==*====*=*=*",
"=**=*====**=**===*==",
"=******#X...O$*=**==",
"**===%X.......o&=***",
"*=**%X..X.X....X****",
"**=&X..X.X.XXX..o***",
"***@.X..XXXXX.X..%**",
"***o..XX>.XX>XX..+**",
"**&XX..XXXX.XX...o**",
"**&...X.XX>XXXX..X&*",
"&**...XXX.XXX....O*&",
"*&*+...X>XXX>XX..@*&",
"*&*%..X.XXXX.....&**",
"&*&-o..X.X..X.X.@*&*",
"*&*&=o.X...X...O-&*&",
"&*&&*-O..X...X+-**&&",
"&*&*&*;&@OXO#=-*&&&*",
"&&&*&*&=;;;;-**&&*&*",
"&&&&*&&&*&&&&&&&&*&&",
"&*&&&&&&&&&*&*&*&&&&",
"*&*&&&&&&&&&&&*&&&&*",
"&&&&&*&&&*&&&&&&*&&&",
"&&&&&&&&&&&&&&&&&&&&",
"&&&&&&&&&&&&&&&&&&&&"
};
