/* XPM */
static char *minimize_inactive[] = {
/* columns rows colors chars-per-pixel */
"20 30 22 1 ",
"  c black",
". c #070707",
"X c gray3",
"o c #0B0B0B",
"O c #0C0C0C",
"+ c #101010",
"@ c #171717",
"# c #181818",
"$ c #1D1D1D",
"% c #202020",
"& c gray14",
"* c #282828",
"= c #2D2D2D",
"- c #2F2F2F",
"; c #333333",
": c #343434",
"> c #363636",
", c #3A3A3A",
"< c #3C3C3C",
"1 c #3F3F3F",
"2 c gray25",
"3 c #444444",
/* pixels */
"                    ",
"33333333333333333333",
">>>>>>>>>>>>>>>>>>>>",
">>>>>>>>>>>>>>>>>>>>",
">>>;>>;>>>>;>;>>;>>>",
";>>;>;>>;;>>>>>;>;>;",
">>>>>>;;>>;>>>>;>>;>",
">;;>;>>>>;;>;;>>>;>>",
">;;;;>;$o...+%;>;;>>",
";;>>>%o.......O=>>;;",
";>;;&o..o.o....o=>;;",
";;>=o..o.o.ooo..O;;;",
";;;$..o.o.ooo.o..%>;",
";;;o..ooooooooo..@;;",
";;=..o.ooooooo...O;;",
";;=...o.ooo.ooo...;;",
"=;;.o.ooo.oooo...O>=",
"=;;+...o1o1o1.o.o$=>",
";;=&.o.oo.oo...o.=;=",
"=;;>O...o..oo...@;=;",
";==;>o.....oo.o+,;;=",
"==;=>>+..o....@,===;",
"=;;==;1=$OoO$;,==;==",
"====;;=>,111,;=;==;=",
"=;===;=========;====",
"========;=;=;====;==",
"===;=====;======;=;=",
";===;=========;=====",
"====================",
"===================="
};
