/* XPM */
static char *hide_active[] = {
/* columns rows colors chars-per-pixel */
"20 30 22 1 ",
"  c black",
". c #070707",
"X c gray3",
"o c #0B0B0B",
"O c #0C0C0C",
"+ c #101010",
"@ c #171717",
"# c #181818",
"$ c #1D1D1D",
"% c #202020",
"& c gray14",
"* c #282828",
"= c #2D2D2D",
"- c #2F2F2F",
"; c #333333",
": c #343434",
"> c #363636",
", c gray23",
"< c #3E3E3E",
"1 c gray25",
"2 c #444444",
"3 c #35BF5C",
/* pixels */
"                    ",
"22222222222222222222",
">>>>>>>>>>>>>>>>>>>>",
">>>>>>>>>>>>>>>>>>>>",
">>>;>>;>>>>;>;>>;>>>",
";>>;>;>>;;>>>>>;>;>;",
">>>>>>;;>>;>>>>;>>;>",
">;;>;>>>>;;>;;>>>;>>",
">;;;;>;$o...+%;>;;>>",
";;>>>%o.......O=>>;;",
";>;;&o..o.o....o=>;;",
";;>=o..o.o.ooo..o;;;",
";;;$..o.o.ooo.o..$>;",
";;;o..ooooooooo..@>;",
";;=..o.ooooooo...o;;",
";;=...o.ooo.ooo...;;",
"=;;.o.ooo.o.oo...O;=",
"=;;+...o3o3o3.ooo$=>",
";;=&.o.oo.ooo....=;=",
"=;;>O...oo.oo...@;=;",
"=;=;>o......o.oO,;;=",
"=;==>>+.oO....@,===;",
"=;=;=;<=@OoO$;<==;==",
"===;==;><<<<,;=;==>=",
"====;===;========;==",
"=;=========;=;=;====",
";=;===========;====;",
"=====;===;======;===",
"====================",
"===================="
};
