/* XPM */
static char *left_active[] = {
/* columns rows colors chars-per-pixel */
"5 30 2 1 ",
"  c black",
". c #2D2D2D",
/* pixels */
" ....",
" ....",
" ....",
" ....",
" ....",
" ....",
" ....",
" ....",
" ....",
" ....",
" ....",
" ....",
" ....",
" ....",
" ....",
" ....",
" ....",
" ....",
" ....",
" ....",
" ....",
" ....",
" ....",
" ....",
" ....",
" ....",
" ....",
" ....",
" ....",
" ...."
};
