/* XPM */
static char *title_1_active[] = {
/* columns rows colors chars-per-pixel */
"5 30 12 1 ",
"  c #0E0E0E",
". c #2D2D2D",
"X c gray18",
"o c #2F2F2F",
"O c gray19",
"+ c #313131",
"@ c #323232",
"# c gray20",
"$ c #343434",
"% c #353535",
"& c gray21",
"* c #414141",
/* pixels */
"     ",
"*****",
"&&&&&",
"%%%%%",
"%%%%%",
"%%%%%",
"%%%%%",
"$$$$$",
"$$$$$",
"$$$$$",
"#####",
"#####",
"#####",
"@@@@@",
"@@@@@",
"@@@@@",
"+++++",
"+++++",
"OOOOO",
"OOOOO",
"OOOOO",
"ooooo",
"ooooo",
"ooooo",
"XXXXX",
"XXXXX",
"XXXXX",
"XXXXX",
".....",
"....."
};
