/* XPM */
static char *top_left_active[] = {
/* columns rows colors chars-per-pixel */
"5 30 15 1 ",
"  c black",
". c #161616",
"X c #252525",
"o c #2E2E2E",
"O c #2F2F2F",
"+ c #303030",
"@ c #313131",
"# c #323232",
"$ c gray20",
"% c #343434",
"& c #353535",
"* c gray21",
"= c #3F3F3F",
"- c #414141",
"; c None",
/* pixels */
";;   ",
"; .=-",
"; $**",
";.***",
" X*$*",
" $*$*",
" *$*$",
" *$*$",
" $$*$",
" *$$$",
" $$$$",
" $$$$",
" $$$$",
" $$$$",
" $$$$",
" $$O$",
" $$O$",
" $O$O",
" OOOO",
" $O$O",
" OOO$",
" OOOO",
" OOOO",
" OOOO",
" OOOo",
" OoOo",
" oooo",
" oooo",
" OOOo",
" OOOo"
};
