<?xml version="1.0" encoding="UTF-8" standalone="no"?>
<!-- Created with Inkscape (http://www.inkscape.org/) -->

<svg
   xmlns:dc="http://purl.org/dc/elements/1.1/"
   xmlns:cc="http://creativecommons.org/ns#"
   xmlns:rdf="http://www.w3.org/1999/02/22-rdf-syntax-ns#"
   xmlns:svg="http://www.w3.org/2000/svg"
   xmlns="http://www.w3.org/2000/svg"
   xmlns:xlink="http://www.w3.org/1999/xlink"
   xmlns:sodipodi="http://sodipodi.sourceforge.net/DTD/sodipodi-0.dtd"
   xmlns:inkscape="http://www.inkscape.org/namespaces/inkscape"
   width="48"
   height="48"
   id="svg2"
   version="1.1"
   inkscape:version="0.49 r12742"
   sodipodi:docname="package-new.svg">
  <defs
     id="defs4">
    <linearGradient
       inkscape:collect="always"
       xlink:href="#linearGradient4821"
       id="linearGradient3789"
       gradientUnits="userSpaceOnUse"
       x1="1806.3983"
       y1="605.03632"
       x2="1806.3983"
       y2="530.68671" />
    <linearGradient
       id="linearGradient4788"
       inkscape:collect="always">
      <stop
         id="stop4790"
         offset="0"
         style="stop-color:#000000;stop-opacity:1" />
      <stop
         id="stop4792"
         offset="1"
         style="stop-color:#000000;stop-opacity:0" />
    </linearGradient>
    <linearGradient
       id="linearGradient4433"
       inkscape:collect="always">
      <stop
         id="stop4435"
         offset="0"
         style="stop-color:#2b3141;stop-opacity:1" />
      <stop
         id="stop4437"
         offset="1"
         style="stop-color:#394056;stop-opacity:1" />
    </linearGradient>
    <linearGradient
       inkscape:collect="always"
       xlink:href="#linearGradient943"
       id="linearGradient4117-8"
       gradientUnits="userSpaceOnUse"
       gradientTransform="translate(-64.89343,-3.2742)"
       x1="92.14286"
       y1="-1049.092"
       x2="92.14286"
       y2="-1001.0899" />
    <linearGradient
       gradientUnits="userSpaceOnUse"
       y2="33.999271"
       x2="42.956738"
       y1="48.000004"
       x1="42.956738"
       id="linearGradient4439"
       xlink:href="#linearGradient4433"
       inkscape:collect="always"
       gradientTransform="translate(1e-5,1004.3622)" />
    <linearGradient
       gradientTransform="matrix(-1,0,0,-1,492.57145,1914.7236)"
       y2="862.36139"
       x2="472.50894"
       y1="871.36139"
       x1="458.57144"
       gradientUnits="userSpaceOnUse"
       id="linearGradient4786"
       xlink:href="#linearGradient4788"
       inkscape:collect="always" />
    <linearGradient
       gradientUnits="userSpaceOnUse"
       y2="862.36255"
       x2="458.57144"
       y1="869.36218"
       x1="465.57108"
       id="linearGradient4219"
       xlink:href="#linearGradient4815"
       inkscape:collect="always"
       gradientTransform="translate(-424.57143,176.00002)" />
    <linearGradient
       id="linearGradient4821">
      <stop
         style="stop-color:#fff2b9;stop-opacity:1"
         offset="0"
         id="stop4823" />
      <stop
         style="stop-color:#fffdf5;stop-opacity:1"
         offset="1"
         id="stop4825" />
    </linearGradient>
    <linearGradient
       id="linearGradient4815">
      <stop
         style="stop-color:#ffd72d;stop-opacity:1"
         offset="0"
         id="stop4817" />
      <stop
         style="stop-color:#ffed91;stop-opacity:1"
         offset="1"
         id="stop4819" />
    </linearGradient>
    <linearGradient
       id="linearGradient943">
      <stop
         id="stop945"
         offset="0"
         style="stop-color:#ffd936;stop-opacity:1" />
      <stop
         id="stop947"
         offset="1"
         style="stop-color:#ffdf37;stop-opacity:1" />
    </linearGradient>
  </defs>
  <sodipodi:namedview
     id="base"
     pagecolor="#ffffff"
     bordercolor="#666666"
     borderopacity="1.0"
     inkscape:pageopacity="0.0"
     inkscape:pageshadow="2"
     inkscape:zoom="5.6568543"
     inkscape:cx="-12.310833"
     inkscape:cy="31.671794"
     inkscape:document-units="px"
     inkscape:current-layer="layer1"
     showgrid="false"
     inkscape:window-width="1366"
     inkscape:window-height="718"
     inkscape:window-x="0"
     inkscape:window-y="23"
     inkscape:window-maximized="1" />
  <metadata
     id="metadata7">
    <rdf:RDF>
      <cc:Work
         rdf:about="">
        <dc:format>image/svg+xml</dc:format>
        <dc:type
           rdf:resource="http://purl.org/dc/dcmitype/StillImage" />
        <dc:title />
      </cc:Work>
    </rdf:RDF>
  </metadata>
  <g
     inkscape:label="Capa 1"
     inkscape:groupmode="layer"
     id="layer1"
     transform="translate(0,-1004.3622)">
    <g
       id="layer1-2"
       inkscape:label="Capa 1"
       transform="translate(0,8.6914065e-6)">
      <rect
         transform="scale(1,-1)"
         ry="1.9445436"
         y="-1052.3622"
         x="4.4335939e-06"
         height="48"
         width="48"
         id="rect2991-1-7-3-6"
         style="fill:url(#linearGradient4117-8);fill-opacity:1.0;stroke:none" />
      <g
         transform="translate(-417.3796,398.42204)"
         id="text6661"
         style="font-size:10px;font-style:normal;font-variant:normal;font-weight:normal;font-stretch:normal;line-height:125%;letter-spacing:0px;word-spacing:0px;fill:#000000;fill-opacity:1;stroke:none;font-family:Decker;-inkscape-font-specification:Decker" />
      <polygon
         transform="matrix(0.41400075,0,0,0.41400075,-723.81018,794.50187)"
         style="fill:#1a1a1a;fill-opacity:0.05882353"
         points="1830.473,604.97 1806.303,590.468 1782.131,604.97 1788.449,577.5 1767.189,558.99 1795.27,556.516 1806.303,530.574 1817.336,556.516 1845.414,558.99 1824.154,577.5 "
         id="polygon4057" />
      <polygon
         id="polygon4055"
         points="1806.303,530.574 1817.336,556.516 1845.414,558.99 1824.154,577.5 1830.473,604.97 1806.303,590.468 1782.131,604.97 1788.449,577.5 1767.189,558.99 1795.27,556.516 "
         style="fill:#1a1a1a;fill-opacity:0.11764706"
         transform="matrix(0.41400075,0,0,0.41400075,-723.81018,794.10187)" />
      <rect
         y="1014.1059"
         x="10.000004"
         height="27.999998"
         width="27.999998"
         id="rect3345-9"
         style="fill:none;stroke:none" />
      <polygon
         transform="matrix(0.41400075,0,0,0.41400075,-723.81018,793.70187)"
         style="fill:#1a1a1a;fill-opacity:0.23529412"
         points="1782.131,604.97 1788.449,577.5 1767.189,558.99 1795.27,556.516 1806.303,530.574 1817.336,556.516 1845.414,558.99 1824.154,577.5 1830.473,604.97 1806.303,590.468 "
         id="polygon4051" />
      <polygon
         id="Star__x2014__Used_to_flag_a_data_item_as_important_or_as_favorite._Typical_applications_range_from_bookmarking_web_pages_in_a_browser_to_promoting_contacts_to_favorites._1_-5"
         points="1845.414,558.99 1824.154,577.5 1830.473,604.97 1806.303,590.468 1782.131,604.97 1788.449,577.5 1767.189,558.99 1795.27,556.516 1806.303,530.574 1817.336,556.516 "
         style="fill:url(#linearGradient3789);fill-opacity:1.0"
         transform="matrix(0.41400075,0,0,0.41400075,-723.81018,793.30187)" />
      <path
         inkscape:connector-curvature="0"
         id="polygon3780"
         d="m 7.1875,1024.5005 9.09375,7.9375 0.03125,-0.125 -8.96875,-7.8125 -0.15625,0 z m 33.46875,0 -8.96875,7.8125 0.03125,0.125 9.09375,-7.9375 -0.15625,0 z M 24,1037.8755 l -10.375,6.2188 -0.03125,0.1875 10.40625,-6.25 10.40625,6.25 L 34.375,1044.0943 24,1037.8755 Z"
         style="fill:#ffffff;fill-opacity:0.23529412" />
      <path
         style="fill:#ffffff;fill-opacity:0.11764706"
         d="m 7.1875,1024.6724 9.09375,7.9375 0.03125,-0.125 -8.96875,-7.8125 -0.15625,0 z m 33.46875,0 -8.96875,7.8125 0.03125,0.125 9.09375,-7.9375 -0.15625,0 z M 24,1038.0474 l -10.375,6.2188 -0.03125,0.1875 10.40625,-6.25 10.40625,6.25 L 34.375,1044.2662 24,1038.0474 Z"
         id="path3785"
         inkscape:connector-curvature="0" />
      <path
         inkscape:connector-curvature="0"
         id="path3787"
         d="m 7.1875,1024.8326 9.09375,7.9375 0.03125,-0.125 -8.96875,-7.8125 -0.15625,0 z m 33.46875,0 -8.96875,7.8125 0.03125,0.125 9.09375,-7.9375 -0.15625,0 z M 24,1038.2076 l -10.375,6.2188 -0.03125,0.1875 10.40625,-6.25 10.40625,6.25 L 34.375,1044.4264 24,1038.2076 Z"
         style="fill:#ffffff;fill-opacity:0.05882353" />
      <path
         inkscape:connector-curvature="0"
         id="polygon4071"
         d="m 8.640625,1024.6486 -0.833984,0.074 8.648437,7.5312 0.154297,-0.6679 -7.96875,-6.9375 z m 30.71875,0 -7.96875,6.9375 0.154297,0.6679 8.648437,-7.5312 -0.833984,-0.074 z M 24,1036.9552 l -9.792969,5.875 -0.21289,0.9297 L 24,1037.756 l 10.007812,6.0039 -0.21289,-0.9297 L 24,1036.9552 Z"
         style="fill:#ffd005;fill-opacity:0.3137255" />
      <path
         inkscape:connector-curvature="0"
         id="polygon4076"
         d="m 24,1012.9599 -4.566406,10.7402 -11.626953,1.0235 0.417968,0.3633 11.208985,-0.9864 L 24,1013.3603 l 4.568359,10.7402 11.207032,0.9864 0.417968,-0.3633 -11.625,-1.0235 L 24,1012.9599 Z m -7.466797,19.7617 -2.539062,11.0391 0.107421,-0.064 2.507813,-10.9082 -0.07617,-0.066 z m 14.933594,0 -0.07617,0.066 2.509766,10.9082 0.107421,0.064 -2.541015,-11.0391 z"
         style="fill:#ffffff;fill-opacity:0.23529412" />
      <path
         inkscape:connector-curvature="0"
         id="path4130"
         d="m 34.00001,1038.3615 0,14.0007 14,-14 z"
         style="fill:url(#linearGradient4219);fill-opacity:1.0;stroke:none" />
      <path
         id="path4303"
         d="m 48.00001,1038.3622 -14,14 12.05469,0 c 1.07727,0 1.94531,-0.868 1.94531,-1.9453 l 0,-12.0547 z"
         style="fill:url(#linearGradient4439);fill-opacity:1;stroke:none"
         inkscape:connector-curvature="0" />
      <path
         style="opacity:0.1;fill:url(#linearGradient4786);fill-opacity:1;stroke:none"
         d="m 34.00001,1052.3622 0,-14.0007 -14,14 z"
         id="path4784"
         inkscape:connector-curvature="0" />
      <path
         id="rect846-0-2"
         d="m -1e-5,1049.3622 0,1.0625 c 0,1.0773 0.86022,1.9375 1.9375,1.9375 l 44.125,0 c 1.07728,0 1.9375,-0.8602 1.9375,-1.9375 l 0,-1.0625 c 0,1.0773 -0.86022,1.9375 -1.9375,1.9375 l -44.125,0 c -1.07728,0 -1.9375,-0.8602 -1.9375,-1.9375 z"
         style="fill:#000000;fill-opacity:1;stroke:none"
         inkscape:connector-curvature="0" />
      <path
         id="rect4280-1-0"
         d="m 1.93749,1004.3622 c -1.07728,0 -1.9375,0.8602 -1.9375,1.9375 l 0,43.0625 c 0,0.7934 0.48002,1.449 1.15625,1.75 -0.30934,-0.3333 -0.5,-0.7824 -0.5,-1.2812 l 0,-42.9375 c 0,-1.0482 0.8269,-1.875 1.875,-1.875 l 42.9375,0 c 1.0481,0 1.875,0.8268 1.875,1.875 l 0,42.9375 c 0,0.4988 -0.19066,0.9479 -0.5,1.2812 0.67623,-0.301 1.15625,-0.9566 1.15625,-1.75 l 0,-43.0625 c 0,-1.0773 -0.86022,-1.9375 -1.9375,-1.9375 l -44.125,0 z"
         style="fill:#000000;fill-opacity:0.39215686;stroke:none"
         inkscape:connector-curvature="0" />
      <path
         id="path7515-3-7"
         d="m 2.53124,1005.0185 c -0.91709,0 -1.67115,0.6395 -1.84375,1.5 0.33561,-0.2799 0.77451,-0.4375 1.25,-0.4375 l 44.125,0 c 0.47549,0 0.91439,0.1576 1.25,0.4375 -0.1726,-0.8605 -0.92666,-1.5 -1.84375,-1.5 l -42.9375,0 z"
         style="fill:#ffffff;fill-opacity:0.5372549;stroke:none"
         inkscape:connector-curvature="0" />
    </g>
  </g>
</svg>
