<?xml version="1.0" encoding="UTF-8" standalone="no"?>
<!-- Created with Inkscape (http://www.inkscape.org/) -->

<svg
   xmlns:dc="http://purl.org/dc/elements/1.1/"
   xmlns:cc="http://creativecommons.org/ns#"
   xmlns:rdf="http://www.w3.org/1999/02/22-rdf-syntax-ns#"
   xmlns:svg="http://www.w3.org/2000/svg"
   xmlns="http://www.w3.org/2000/svg"
   xmlns:xlink="http://www.w3.org/1999/xlink"
   xmlns:sodipodi="http://sodipodi.sourceforge.net/DTD/sodipodi-0.dtd"
   xmlns:inkscape="http://www.inkscape.org/namespaces/inkscape"
   width="48"
   height="48"
   id="svg2"
   version="1.1"
   inkscape:version="0.49 r12742"
   sodipodi:docname="package-reinstall.svg">
  <defs
     id="defs4">
    <linearGradient
       inkscape:collect="always"
       id="linearGradient4217">
      <stop
         style="stop-color:#d1f5c3;stop-opacity:1"
         offset="0"
         id="stop4219" />
      <stop
         style="stop-color:#fafff5;stop-opacity:1"
         offset="1"
         id="stop4221" />
    </linearGradient>
    <linearGradient
       inkscape:collect="always"
       id="linearGradient6334">
      <stop
         style="stop-color:#75e04c;stop-opacity:1"
         offset="0"
         id="stop6336" />
      <stop
         style="stop-color:#c7fb95;stop-opacity:1"
         offset="1"
         id="stop6338" />
    </linearGradient>
    <linearGradient
       id="linearGradient5770"
       inkscape:collect="always">
      <stop
         id="stop5772"
         offset="0"
         style="stop-color:#57d925;stop-opacity:1" />
      <stop
         id="stop5774"
         offset="1"
         style="stop-color:#aef965;stop-opacity:1" />
    </linearGradient>
    <linearGradient
       id="linearGradient4788"
       inkscape:collect="always">
      <stop
         id="stop4790"
         offset="0"
         style="stop-color:#000000;stop-opacity:1" />
      <stop
         id="stop4792"
         offset="1"
         style="stop-color:#000000;stop-opacity:0" />
    </linearGradient>
    <linearGradient
       id="linearGradient4433"
       inkscape:collect="always">
      <stop
         id="stop4435"
         offset="0"
         style="stop-color:#2b3141;stop-opacity:1" />
      <stop
         id="stop4437"
         offset="1"
         style="stop-color:#394056;stop-opacity:1" />
    </linearGradient>
    <linearGradient
       inkscape:collect="always"
       xlink:href="#linearGradient5770"
       id="linearGradient4117"
       gradientUnits="userSpaceOnUse"
       gradientTransform="translate(-105.71416,-17.042179)"
       x1="92.14286"
       y1="-1049.092"
       x2="92.14286"
       y2="-1001.0899" />
    <linearGradient
       gradientUnits="userSpaceOnUse"
       y2="33.999271"
       x2="42.956738"
       y1="48.000004"
       x1="42.956738"
       id="linearGradient4439"
       xlink:href="#linearGradient4433"
       inkscape:collect="always"
       gradientTransform="translate(-40.82072,1018.1302)" />
    <linearGradient
       gradientTransform="matrix(-1,0,0,-1,451.75072,1928.4916)"
       y2="862.36139"
       x2="472.50894"
       y1="871.36139"
       x1="458.57144"
       gradientUnits="userSpaceOnUse"
       id="linearGradient4786"
       xlink:href="#linearGradient4788"
       inkscape:collect="always" />
    <linearGradient
       gradientUnits="userSpaceOnUse"
       y2="862.36255"
       x2="458.57144"
       y1="869.36218"
       x1="465.57108"
       id="linearGradient4219"
       xlink:href="#linearGradient6334"
       inkscape:collect="always"
       gradientTransform="translate(-465.39216,189.768)" />
    <linearGradient
       inkscape:collect="always"
       xlink:href="#linearGradient4217"
       id="linearGradient4164"
       x1="23.463068"
       y1="39.038403"
       x2="23.463068"
       y2="8.976347"
       gradientUnits="userSpaceOnUse" />
  </defs>
  <sodipodi:namedview
     id="base"
     pagecolor="#ffffff"
     bordercolor="#666666"
     borderopacity="1.0"
     inkscape:pageopacity="0.0"
     inkscape:pageshadow="2"
     inkscape:zoom="6.1373048"
     inkscape:cx="11.128012"
     inkscape:cy="31.304122"
     inkscape:document-units="px"
     inkscape:current-layer="layer1-0"
     showgrid="false"
     inkscape:window-width="1366"
     inkscape:window-height="718"
     inkscape:window-x="0"
     inkscape:window-y="23"
     inkscape:window-maximized="1" />
  <metadata
     id="metadata7">
    <rdf:RDF>
      <cc:Work
         rdf:about="">
        <dc:format>image/svg+xml</dc:format>
        <dc:type
           rdf:resource="http://purl.org/dc/dcmitype/StillImage" />
        <dc:title />
      </cc:Work>
    </rdf:RDF>
  </metadata>
  <g
     inkscape:label="Capa 1"
     inkscape:groupmode="layer"
     id="layer1"
     transform="translate(0,-1004.3622)">
    <g
       id="layer1-0"
       inkscape:label="Capa 1"
       transform="translate(40.820728,-13.76798)">
      <rect
         transform="scale(1,-1)"
         ry="1.9445436"
         y="-1066.1301"
         x="-40.820717"
         height="48"
         width="48"
         id="rect2991-1-7-3"
         style="fill:url(#linearGradient4117);fill-opacity:1;stroke:none" />
      <g
         transform="translate(-417.3796,398.42203)"
         id="text6661"
         style="font-size:10px;font-style:normal;font-variant:normal;font-weight:normal;font-stretch:normal;line-height:125%;letter-spacing:0px;word-spacing:0px;fill:#000000;fill-opacity:1;stroke:none;font-family:Decker;-inkscape-font-specification:Decker" />
      <path
         inkscape:connector-curvature="0"
         id="path4130"
         d="m -6.8207201,1052.1295 0,14.0007 14,-14 z"
         style="fill:url(#linearGradient4219);fill-opacity:1;stroke:none" />
      <path
         id="path4303"
         d="m 7.1792799,1052.1302 -14,14 12.05469,0 c 1.07727,0 1.94531,-0.868 1.94531,-1.9453 l 0,-12.0547 z"
         style="fill:url(#linearGradient4439);fill-opacity:1;stroke:none"
         inkscape:connector-curvature="0" />
      <path
         style="opacity:0.1;fill:url(#linearGradient4786);fill-opacity:1;stroke:none"
         d="m -6.8207201,1066.1302 0,-14.0007 -13.9999999,14 z"
         id="path4784"
         inkscape:connector-curvature="0" />
      <path
         id="rect846-0-2"
         d="m -40.82074,1063.1302 0,1.0625 c 0,1.0773 0.86022,1.9375 1.9375,1.9375 l 44.1249999,0 c 1.07728,0 1.9375,-0.8602 1.9375,-1.9375 l 0,-1.0625 c 0,1.0773 -0.86022,1.9375 -1.9375,1.9375 l -44.1249999,0 c -1.07728,0 -1.9375,-0.8602 -1.9375,-1.9375 z"
         style="fill:#000000;fill-opacity:1;stroke:none"
         inkscape:connector-curvature="0" />
      <path
         id="rect4280-1"
         d="m -38.88324,1018.1302 c -1.07728,0 -1.9375,0.8602 -1.9375,1.9375 l 0,43.0625 c 0,0.7934 0.48002,1.449 1.15625,1.75 -0.30934,-0.3333 -0.5,-0.7824 -0.5,-1.2812 l 0,-42.9375 c 0,-1.0482 0.8269,-1.875 1.875,-1.875 l 42.9374999,0 c 1.0481,0 1.875,0.8268 1.875,1.875 l 0,42.9375 c 0,0.4988 -0.19066,0.9479 -0.5,1.2812 0.67623,-0.301 1.15625,-0.9566 1.15625,-1.75 l 0,-43.0625 c 0,-1.0773 -0.86022,-1.9375 -1.9375,-1.9375 l -44.1249999,0 z"
         style="fill:#000000;fill-opacity:0.39215686;stroke:none"
         inkscape:connector-curvature="0" />
      <path
         id="path7515-3"
         d="m -38.28949,1018.7865 c -0.91709,0 -1.67115,0.6395 -1.84375,1.5 0.33561,-0.2799 0.77451,-0.4375 1.25,-0.4375 l 44.1249999,0 c 0.47549,0 0.91439,0.1576 1.25,0.4375 -0.1726,-0.8605 -0.92666,-1.5 -1.84375,-1.5 l -42.9374999,0 z"
         style="fill:#ffffff;fill-opacity:0.5372549;stroke:none"
         inkscape:connector-curvature="0" />
    </g>
    <g
       transform="translate(0,1.2)"
       inkscape:label="Capa 1"
       id="g4176"
       style="fill:#000000;fill-opacity:0.05882353">
      <path
         id="path4178"
         transform="translate(0,1004.3622)"
         d="m 9.0097656,9 0,8.775391 L 9,17.785156 9,24 l 0.00977,0 0,0.01367 15,0 0,-4 -7.335938,0 1.669922,-1.669922 C 19.791465,16.896035 21.790861,16 24,16 c 4.418278,0 8,3.581722 8,8 0,2.209139 -0.896035,4.208535 -2.34375,5.65625 L 25.259766,34.052734 30.207031,39 l 0.0078,0 4.378906,-4.378906 C 37.531792,31.683065 39,27.848368 39,24.013672 39,20.178975 37.531779,16.344278 34.59375,13.40625 31.655721,10.468221 27.820615,9 23.986328,9 20.152042,9 16.316935,10.468221 13.378906,13.40625 l -0.36914,0.369141 0,-4.775391 -4.0000004,0 z"
         style="fill:#000000;fill-opacity:0.05882353;stroke:none"
         inkscape:connector-curvature="0" />
    </g>
    <g
       style="fill:#000000;fill-opacity:0.11764706"
       id="g4172"
       inkscape:label="Capa 1"
       transform="translate(0,0.8)">
      <path
         inkscape:connector-curvature="0"
         style="fill:#000000;fill-opacity:0.11764706;stroke:none"
         d="m 9.0097656,9 0,8.775391 L 9,17.785156 9,24 l 0.00977,0 0,0.01367 15,0 0,-4 -7.335938,0 1.669922,-1.669922 C 19.791465,16.896035 21.790861,16 24,16 c 4.418278,0 8,3.581722 8,8 0,2.209139 -0.896035,4.208535 -2.34375,5.65625 L 25.259766,34.052734 30.207031,39 l 0.0078,0 4.378906,-4.378906 C 37.531792,31.683065 39,27.848368 39,24.013672 39,20.178975 37.531779,16.344278 34.59375,13.40625 31.655721,10.468221 27.820615,9 23.986328,9 20.152042,9 16.316935,10.468221 13.378906,13.40625 l -0.36914,0.369141 0,-4.775391 -4.0000004,0 z"
         transform="translate(0,1004.3622)"
         id="path4174" />
    </g>
    <g
       transform="translate(0,0.4)"
       inkscape:label="Capa 1"
       id="g4166"
       style="fill:#000000;fill-opacity:0.23529412">
      <path
         id="path4168"
         transform="translate(0,1004.3622)"
         d="m 9.0097656,9 0,8.775391 L 9,17.785156 9,24 l 0.00977,0 0,0.01367 15,0 0,-4 -7.335938,0 1.669922,-1.669922 C 19.791465,16.896035 21.790861,16 24,16 c 4.418278,0 8,3.581722 8,8 0,2.209139 -0.896035,4.208535 -2.34375,5.65625 L 25.259766,34.052734 30.207031,39 l 0.0078,0 4.378906,-4.378906 C 37.531792,31.683065 39,27.848368 39,24.013672 39,20.178975 37.531779,16.344278 34.59375,13.40625 31.655721,10.468221 27.820615,9 23.986328,9 20.152042,9 16.316935,10.468221 13.378906,13.40625 l -0.36914,0.369141 0,-4.775391 -4.0000004,0 z"
         style="fill:#000000;fill-opacity:0.23529412;stroke:none"
         inkscape:connector-curvature="0" />
    </g>
    <g
       id="layer1-4"
       inkscape:label="Capa 1"
       transform="translate(0,8.691406e-6)">
      <path
         style="fill:url(#linearGradient4164);fill-opacity:1;stroke:none"
         d="M 9.0097656 9 L 9.0097656 17.775391 L 9 17.785156 L 9 24 L 9.0097656 24 L 9.0097656 24.013672 L 24.009766 24.013672 L 24.009766 20.013672 L 16.673828 20.013672 L 18.34375 18.34375 C 19.791465 16.896035 21.790861 16 24 16 C 28.418278 16 32 19.581722 32 24 C 32 26.209139 31.103965 28.208535 29.65625 29.65625 L 25.259766 34.052734 L 30.207031 39 L 30.214844 39 L 34.59375 34.621094 C 37.531792 31.683065 39 27.848368 39 24.013672 C 39 20.178975 37.531779 16.344278 34.59375 13.40625 C 31.655721 10.468221 27.820615 9 23.986328 9 C 20.152042 9 16.316935 10.468221 13.378906 13.40625 L 13.009766 13.775391 L 13.009766 9 L 9.0097656 9 z "
         transform="translate(0,1004.3622)"
         id="rect3269" />
    </g>
    <path
       style="fill:#5cda2a;fill-opacity:0.3137255;stroke:none"
       d="M 24 15.201172 C 21.790861 15.201172 19.791461 16.097222 18.34375 17.544922 L 16.673828 19.214844 L 17.472656 19.214844 L 18.34375 18.34375 C 19.791461 16.89605 21.790861 16 24 16 C 28.283182 16 31.77062 19.368491 31.980469 23.599609 C 31.987059 23.46649 32 23.335929 32 23.201172 C 32 18.782872 28.418278 15.201172 24 15.201172 z M 9 23.201172 L 9 24 L 9.0097656 24 L 9.0097656 24.013672 L 24.009766 24.013672 L 24.009766 23.214844 L 9.0097656 23.214844 L 9.0097656 23.201172 L 9 23.201172 z M 38.980469 23.613281 C 38.881785 27.313414 37.42951 30.98608 34.59375 33.822266 L 30.214844 38.201172 L 30.207031 38.201172 L 25.660156 33.652344 L 25.259766 34.052734 L 30.207031 39 L 30.214844 39 L 34.59375 34.621094 C 37.531809 31.682594 39 27.848372 39 24.013672 C 39 23.879972 38.984038 23.746943 38.980469 23.613281 z "
       transform="translate(0,1004.3622)"
       id="path4182" />
    <path
       style="fill:#ffffff;fill-opacity:0.23529412;stroke:none"
       d="M 9.0097656 9 L 9.0097656 9.8007812 L 13.009766 9.8007812 L 13.009766 9 L 9.0097656 9 z M 23.986328 9 C 20.152042 9 16.316935 10.46815 13.378906 13.40625 L 13.009766 13.775391 L 13.009766 14.576172 L 13.378906 14.207031 C 16.316935 11.269031 20.152042 9.8007812 23.986328 9.8007812 C 27.820615 9.8007812 31.655721 11.269031 34.59375 14.207031 C 37.429481 17.042831 38.881784 20.713931 38.980469 24.414062 C 38.984038 24.2804 39 24.147372 39 24.013672 C 39 20.178972 37.531779 16.34425 34.59375 13.40625 C 31.655721 10.46815 27.820615 9 23.986328 9 z M 9.0097656 17.775391 L 9 17.785156 L 9 18.585938 L 9.0097656 18.576172 L 9.0097656 17.775391 z M 17.474609 20.013672 L 16.673828 20.814453 L 24.009766 20.814453 L 24.009766 20.013672 L 17.474609 20.013672 z M 31.980469 24.400391 C 31.878788 26.449117 31.015432 28.296988 29.65625 29.65625 L 25.259766 34.052734 L 25.660156 34.453125 L 29.65625 30.457031 C 31.103965 29.009231 32 27.009881 32 24.800781 C 32 24.665684 31.987088 24.533845 31.980469 24.400391 z "
       transform="translate(0,1004.3622)"
       id="path4193" />
  </g>
</svg>
