/* XPM */
static char * close_inactive_xpm[] = {
"20 24 37 1",
" 	c None",
".	c #2D2D2D",
"+	c #5A2C30",
"@	c #892E35",
"#	c #7F2E33",
"$	c #3F2C2E",
"%	c #372C2D",
"&	c #BA333B",
"*	c #EE4A51",
"=	c #F25056",
"-	c #F24F55",
";	c #E6414A",
">	c #7C2D33",
",	c #AD3139",
"'	c #F24F56",
")	c #EC484F",
"!	c #3B2C2D",
"~	c #E9434B",
"{	c #B8343E",
"]	c #522B2E",
"^	c #EF4C52",
"/	c #D53B43",
"(	c #462C2E",
"_	c #C73840",
":	c #CD3641",
"<	c #F04C53",
"[	c #4B2C2E",
"}	c #E03E48",
"|	c #EF4C54",
"1	c #B6333C",
"2	c #2F2C2D",
"3	c #402C2D",
"4	c #9E3038",
"5	c #CA3840",
"6	c #C0373E",
"7	c #7A2D32",
"8	c #2F2D2D",
"....................",
"....................",
"....................",
"....................",
"....................",
"....................",
"....................",
"........+@#$........",
"......%&*=-;>.......",
"......,'====)+......",
".....!~======{......",
".....]^======/......",
".....()======_......",
"......:=====<>......",
"......[}===|12......",
".......345678.......",
"....................",
"....................",
"....................",
"....................",
"....................",
"....................",
"....................",
"...................."};
