/* XPM */
static char * close_pressed_xpm[] = {
"20 24 47 1",
" 	c None",
".	c #2D2D2D",
"+	c #5A2B2F",
"@	c #862931",
"#	c #7C2A31",
"$	c #3F2B2D",
"%	c #372C2D",
"&	c #B12833",
"*	c #D52735",
"=	c #D42634",
"-	c #7B2A30",
";	c #A62832",
">	c #D22634",
",	c #CB2533",
"'	c #C92533",
")	c #3A2C2D",
"!	c #D42734",
"~	c #D32734",
"{	c #B0202E",
"]	c #B8222F",
"^	c #C02331",
"/	c #B02734",
"(	c #532B2F",
"_	c #D32735",
":	c #A71E2C",
"<	c #B82131",
"[	c #C72733",
"}	c #452C2E",
"|	c #B7212F",
"1	c #BD2230",
"2	c #AF202E",
"3	c #C92432",
"4	c #BB2733",
"5	c #C02733",
"6	c #D02634",
"7	c #BD2331",
"8	c #D12634",
"9	c #BC2230",
"0	c #782930",
"a	c #4B2C2E",
"b	c #AE2833",
"c	c #2F2C2D",
"d	c #992932",
"e	c #BD2633",
"f	c #B62833",
"g	c #782A30",
"h	c #2F2D2D",
"....................",
"....................",
"....................",
"....................",
"....................",
"....................",
"....................",
"........+@#$........",
"......%&***=-.......",
"......;>,**'*+......",
".....)!~{']^*/......",
".....(**_:<**[......",
".....}**|123*4......",
"......567*89*0......",
"......a6****bc......",
".......$defgh.......",
"....................",
"....................",
"....................",
"....................",
"....................",
"....................",
"....................",
"...................."};
