/* XPM */
static char * hide_pressed_xpm[] = {
"20 24 33 1",
" 	c None",
".	c #2D2D2D",
"+	c #265529",
"@	c #1F7B24",
"#	c #207326",
"$	c #293D2A",
"%	c #2B352C",
"&	c #18A221",
"*	c #13C11E",
"=	c #12BF1E",
"-	c #207125",
";	c #199821",
">	c #255529",
",	c #2A382B",
"'	c #13C01E",
")	c #189F22",
"!	c #264D29",
"~	c #0E9511",
"{	c #0D880D",
"]	c #10AA17",
"^	c #15B420",
"/	c #29422A",
"(	c #16AA21",
"_	c #15AF20",
":	c #28472A",
"<	c #14BC1E",
"[	c #189F21",
"}	c #2C2E2C",
"|	c #1C8C23",
"1	c #17AB20",
"2	c #18A621",
"3	c #206F25",
"4	c #2C2F2C",
"....................",
"....................",
"....................",
"....................",
"....................",
"....................",
"....................",
"........+@#$........",
"......%&***=-.......",
"......;******>......",
".....,'******)......",
".....!*~{{{{]^......",
"...../*******(......",
"......_******-......",
"......:<****[}......",
".......$|1234.......",
"....................",
"....................",
"....................",
"....................",
"....................",
"....................",
"....................",
"...................."};
