/* XPM */
static char * hide_prelight_xpm[] = {
"20 24 43 1",
" 	c None",
".	c #2D2D2D",
"+	c #26552A",
"@	c #238029",
"#	c #237629",
"$	c #2A3D2B",
"%	c #2B352C",
"&	c #22AD2C",
"*	c #34E443",
"=	c #39EA49",
"-	c #39EA48",
";	c #2CD93A",
">	c #237329",
",	c #21A12B",
"'	c #38E948",
")	c #32E241",
"!	c #265529",
"~	c #2B392B",
"{	c #2DDE3C",
"]	c #25AC2F",
"^	c #264E29",
"/	c #34E544",
"(	c #1EA623",
"_	c #179318",
":	c #2BC836",
"<	c #27C934",
"[	c #29432A",
"}	c #31E140",
"|	c #26BC31",
"1	c #24BE2F",
"2	c #36E645",
"3	c #247128",
"4	c #28472A",
"5	c #2BD337",
"6	c #36E746",
"7	c #23A82C",
"8	c #2C2E2C",
"9	c #293E2B",
"0	c #23932B",
"a	c #26BD31",
"b	c #25B530",
"c	c #237228",
"d	c #2C2F2C",
"....................",
"....................",
"....................",
"....................",
"....................",
"....................",
"....................",
"........+@#$........",
"......%&*=-;>.......",
"......,'====)!......",
".....~{======]......",
".....^/(____:<......",
".....[}======|......",
"......1=====23......",
"......45===678......",
".......90abcd.......",
"....................",
"....................",
"....................",
"....................",
"....................",
"....................",
"....................",
"...................."};
