/* XPM */
static char * maximize_active_xpm[] = {
"20 24 37 1",
" 	c None",
".	c #2D2D2D",
"+	c #5B4C25",
"@	c #8D6E21",
"#	c #826622",
"$	c #403929",
"%	c #37332B",
"&	c #BD901F",
"*	c #F6C031",
"=	c #FAC536",
"-	c #FAC436",
";	c #EDB528",
">	c #7F6322",
",	c #B1871F",
"'	c #FAC535",
")	c #F4BD2F",
"!	c #5C4B25",
"~	c #3B362A",
"{	c #F0BA2C",
"]	c #BD9122",
"^	c #544626",
"/	c #F7C132",
"(	c #DBA724",
"_	c #463E28",
":	c #F3BD2E",
"<	c #CC9C23",
"[	c #D2A022",
"}	c #F7C233",
"|	c #4C4128",
"1	c #E6B026",
"2	c #F7C232",
"3	c #BB8E20",
"4	c #2F2E2C",
"5	c #A27C20",
"6	c #D1A025",
"7	c #C69823",
"8	c #7D6123",
"....................",
"....................",
"....................",
"....................",
"....................",
"....................",
"....................",
"........+@#$........",
"......%&*=-;>.......",
"......,'====)!......",
".....~{======]......",
".....^/======(......",
"....._:======<......",
"......[=====}>......",
"......|1===234......",
".......$56784.......",
"....................",
"....................",
"....................",
"....................",
"....................",
"....................",
"....................",
"...................."};
