/* XPM */
static char * maximize_pressed_xpm[] = {
"20 24 49 1",
" 	c None",
".	c #2D2D2D",
"+	c #63562F",
"@	c #9A7D31",
"#	c #8F7531",
"$	c #433D2D",
"%	c #39362D",
"&	c #CFA534",
"*	c #FAC536",
"=	c #F7C335",
"-	c #8C7330",
";	c #C19A33",
">	c #F4BF34",
",	c #CC9426",
"'	c #CB9326",
")	c #DDA62C",
"!	c #65562F",
"~	c #3D382D",
"{	c #F9C534",
"]	c #F2BD33",
"^	c #F8C335",
"/	c #D49C29",
"(	c #985A14",
"_	c #A56819",
":	c #CCA334",
"<	c #5B4E2F",
"[	c #E2AB2E",
"}	c #B4781D",
"|	c #F7C236",
"1	c #D9A12B",
"2	c #A56919",
"3	c #EAB834",
"4	c #4A432E",
"5	c #975914",
"6	c #B97F20",
"7	c #F9C435",
"8	c #DBAE35",
"9	c #E1B234",
"0	c #F0B932",
"a	c #B2761D",
"b	c #554B2E",
"c	c #F4C035",
"d	c #D0A634",
"e	c #2F2E2D",
"f	c #B59233",
"g	c #E2B334",
"h	c #DAAE34",
"i	c #8A7130",
"j	c #302F2D",
"....................",
"....................",
"....................",
"....................",
"....................",
"....................",
"....................",
"........+@#$........",
"......%&***=-.......",
"......;*>,')*!......",
".....~{]^/(_*:......",
".....<*[}|12*3......",
".....4*[567)*8......",
"......90}a/**-......",
"......bc****de......",
".......$fghij.......",
"....................",
"....................",
"....................",
"....................",
"....................",
"....................",
"....................",
"...................."};
