/* XPM */
static char * maximize_prelight_xpm[] = {
"20 24 57 1",
" 	c None",
".	c #2D2D2D",
"+	c #5B4C25",
"@	c #8D6E21",
"#	c #826622",
"$	c #403929",
"%	c #37332B",
"&	c #BD901F",
"*	c #F6C031",
"=	c #FAC536",
"-	c #FAC436",
";	c #EDB528",
">	c #7F6322",
",	c #B1871F",
"'	c #FAC535",
")	c #F4BF34",
"!	c #CC9426",
"~	c #CB9326",
"{	c #DDA62C",
"]	c #F4BD2F",
"^	c #5C4B25",
"/	c #3B362A",
"(	c #F0BA2C",
"_	c #F2BD33",
":	c #F8C335",
"<	c #D49C29",
"[	c #985A14",
"}	c #A56919",
"|	c #BD9122",
"1	c #544626",
"2	c #F7C132",
"3	c #E1AA2E",
"4	c #B4781E",
"5	c #F7C236",
"6	c #D9A12B",
"7	c #A66919",
"8	c #DBA724",
"9	c #463E28",
"0	c #F3BD2E",
"a	c #975914",
"b	c #B97F20",
"c	c #F9C435",
"d	c #CC9C23",
"e	c #D2A022",
"f	c #F0B932",
"g	c #B4781D",
"h	c #B2761D",
"i	c #F7C233",
"j	c #4C4128",
"k	c #E6B026",
"l	c #F7C232",
"m	c #BB8E20",
"n	c #2F2E2C",
"o	c #A27C20",
"p	c #D1A025",
"q	c #C69823",
"r	c #7D6123",
"....................",
"....................",
"....................",
"....................",
"....................",
"....................",
"....................",
"........+@#$........",
"......%&*=-;>.......",
"......,')!~{]^......",
"...../(_:<[}=|......",
".....1234567=8......",
".....903abc{=d......",
"......efgh<=i>......",
"......jk===lmn......",
".......$opqrn.......",
"....................",
"....................",
"....................",
"....................",
"....................",
"....................",
"....................",
"...................."};
