<?xml version="1.0" encoding="UTF-8" standalone="no"?>
<svg
   xmlns:dc="http://purl.org/dc/elements/1.1/"
   xmlns:cc="http://creativecommons.org/ns#"
   xmlns:rdf="http://www.w3.org/1999/02/22-rdf-syntax-ns#"
   xmlns:svg="http://www.w3.org/2000/svg"
   xmlns="http://www.w3.org/2000/svg"
   xmlns:sodipodi="http://sodipodi.sourceforge.net/DTD/sodipodi-0.dtd"
   xmlns:inkscape="http://www.inkscape.org/namespaces/inkscape"
   width="16"
   height="16"
   viewBox="0 0 16 16"
   id="svg2"
   version="1.1"
   inkscape:version="0.91pre2 r"
   sodipodi:docname="document-save-as-symbolic.svg">
  <metadata
     id="metadata16">
    <rdf:RDF>
      <cc:Work
         rdf:about="">
        <dc:format>image/svg+xml</dc:format>
        <dc:type
           rdf:resource="http://purl.org/dc/dcmitype/StillImage" />
        <dc:title></dc:title>
      </cc:Work>
    </rdf:RDF>
  </metadata>
  <defs
     id="defs14" />
  <sodipodi:namedview
     pagecolor="#ffffff"
     bordercolor="#666666"
     borderopacity="1"
     objecttolerance="10"
     gridtolerance="10"
     guidetolerance="10"
     inkscape:pageopacity="0"
     inkscape:pageshadow="2"
     inkscape:window-width="1366"
     inkscape:window-height="672"
     id="namedview12"
     showgrid="true"
     inkscape:showpageshadow="false"
     borderlayer="true"
     inkscape:zoom="29.5"
     inkscape:cx="9.4227725"
     inkscape:cy="7.7335608"
     inkscape:window-x="-4"
     inkscape:window-y="25"
     inkscape:window-maximized="1"
     inkscape:current-layer="svg2">
    <inkscape:grid
       type="xygrid"
       id="grid4160" />
    <sodipodi:guide
       position="0,16"
       orientation="16,0"
       id="guide4166" />
    <sodipodi:guide
       position="0,0"
       orientation="0,16"
       id="guide4168" />
    <sodipodi:guide
       position="16,0"
       orientation="-16,0"
       id="guide4170" />
    <sodipodi:guide
       position="16,16"
       orientation="0,-16"
       id="guide4172" />
    <sodipodi:guide
       position="2,14"
       orientation="12,0"
       id="guide4174" />
    <sodipodi:guide
       position="2,2"
       orientation="0,12"
       id="guide4176" />
    <sodipodi:guide
       position="14,2"
       orientation="-12,0"
       id="guide4178" />
    <sodipodi:guide
       position="14,14"
       orientation="0,-12"
       id="guide4180" />
  </sodipodi:namedview>
  <path
     style="color:#000000;text-decoration:none;text-decoration-line:none;text-decoration-style:solid;text-decoration-color:#000000;clip-rule:nonzero;display:inline;overflow:visible;visibility:visible;opacity:1;isolation:auto;mix-blend-mode:normal;color-interpolation:sRGB;color-interpolation-filters:linearRGB;solid-color:#000000;solid-opacity:1;fill:#bebebe;fill-opacity:1;fill-rule:nonzero;stroke:none;stroke-width:1;stroke-linecap:butt;stroke-linejoin:miter;stroke-miterlimit:4;stroke-dasharray:none;stroke-dashoffset:0;stroke-opacity:1;color-rendering:auto;image-rendering:auto;shape-rendering:auto;text-rendering:auto;enable-background:accumulate"
     d="M 6 2 L 6 3 L 6 7 L 7 7 L 7 3 L 9 3 L 9 7 L 10 7 L 10 3 L 10 2 L 6 2 z M 15 2 C 14.446 2 14 2.446 14 3 C 14 3.554 14.446 4 15 4 C 15.554 4 16 3.554 16 3 C 16 2.446 15.554 2 15 2 z M 15 5 C 14.446 5 14 5.446 14 6 C 14 6.554 14.446 7 15 7 C 15.554 7 16 6.554 16 6 C 16 5.446 15.554 5 15 5 z M 3.2929688 8 L 7.2929688 12 L 8 12.707031 L 8.7070312 12 L 12.707031 8 L 11.292969 8 L 8 11.292969 L 4.7070312 8 L 3.2929688 8 z M 15 8 C 14.446 8 14 8.446 14 9 C 14 9.554 14.446 10 15 10 C 15.554 10 16 9.554 16 9 C 16 8.446 15.554 8 15 8 z M 2 12 L 2 13 L 2 14 L 13 14 L 14 14 L 14 13 L 14 12 L 13 12 L 13 13 L 3 13 L 3 12 L 2 12 z "
     id="rect4165" />
</svg>
