<?xml version="1.0" encoding="UTF-8" standalone="no"?>
<svg
   xmlns:dc="http://purl.org/dc/elements/1.1/"
   xmlns:cc="http://creativecommons.org/ns#"
   xmlns:rdf="http://www.w3.org/1999/02/22-rdf-syntax-ns#"
   xmlns:svg="http://www.w3.org/2000/svg"
   xmlns="http://www.w3.org/2000/svg"
   xmlns:sodipodi="http://sodipodi.sourceforge.net/DTD/sodipodi-0.dtd"
   xmlns:inkscape="http://www.inkscape.org/namespaces/inkscape"
   viewBox="0 0 16 16"
   id="svg2"
   version="1.1"
   inkscape:version="0.91pre2 r"
   sodipodi:docname="format-text-bold-symbolic.svg">
  <metadata
     id="metadata14">
    <rdf:RDF>
      <cc:Work
         rdf:about="">
        <dc:format>image/svg+xml</dc:format>
        <dc:type
           rdf:resource="http://purl.org/dc/dcmitype/StillImage" />
        <dc:title />
      </cc:Work>
    </rdf:RDF>
  </metadata>
  <defs
     id="defs12" />
  <sodipodi:namedview
     pagecolor="#ffffff"
     bordercolor="#666666"
     borderopacity="1"
     objecttolerance="10"
     gridtolerance="10"
     guidetolerance="10"
     inkscape:pageopacity="0"
     inkscape:pageshadow="2"
     inkscape:window-width="1366"
     inkscape:window-height="672"
     id="namedview10"
     showgrid="true"
     inkscape:showpageshadow="false"
     borderlayer="true"
     inkscape:zoom="20.85965"
     inkscape:cx="8.8850455"
     inkscape:cy="10.861071"
     inkscape:window-x="-4"
     inkscape:window-y="25"
     inkscape:window-maximized="1"
     inkscape:current-layer="svg2">
    <inkscape:grid
       type="xygrid"
       id="grid4143" />
    <sodipodi:guide
       position="0,16"
       orientation="16,0"
       id="guide4149" />
    <sodipodi:guide
       position="0,0"
       orientation="0,16"
       id="guide4151" />
    <sodipodi:guide
       position="16,0"
       orientation="-16,0"
       id="guide4153" />
    <sodipodi:guide
       position="16,16"
       orientation="0,-16"
       id="guide4155" />
    <sodipodi:guide
       position="2,14"
       orientation="12,0"
       id="guide4157" />
    <sodipodi:guide
       position="2,2"
       orientation="0,12"
       id="guide4159" />
    <sodipodi:guide
       position="14,2"
       orientation="-12,0"
       id="guide4161" />
    <sodipodi:guide
       position="14,14"
       orientation="0,-12"
       id="guide4163" />
  </sodipodi:namedview>
  <path
     inkscape:connector-curvature="0"
     id="path4145"
     style="font-style:normal;font-variant:normal;font-weight:bold;font-stretch:normal;font-size:medium;line-height:125%;font-family:sans-serif;-inkscape-font-specification:'sans-serif Bold';letter-spacing:0px;word-spacing:0px;fill:#bebebe;fill-opacity:1;stroke:none;stroke-width:1px;stroke-linecap:butt;stroke-linejoin:miter;stroke-opacity:1"
     d="m 7.8657445,6.6456797 q 0.7404394,0 1.1228642,-0.3215003 0.3824247,-0.3215004 0.3824247,-0.9484261 0,-0.6188881 -0.3824247,-0.9403885 Q 8.6061839,4.105827 7.8657445,4.105827 l -1.7331163,0 0,2.5398527 1.7331163,0 z m 0.1057771,5.2484933 q 0.9438569,0 1.4157852,-0.393838 0.4800652,-0.393838 0.4800652,-1.189552 0,-0.7796377 -0.4719285,-1.1654382 Q 8.9235151,8.751507 7.9715216,8.751507 l -1.8388934,0 0,3.142666 1.8388934,0 z M 10.884459,7.5780307 Q 11.89341,7.867381 12.446705,8.6470193 13,9.4266577 13,10.559947 13,12.296048 11.812042,13.148024 10.624084,14 8.1993491,14 L 3,14 3,1.9999997 l 4.7030106,0 q 2.5305134,0 3.6615134,0.7555259 1.139138,0.7555257 1.139138,2.41929 0,0.8760885 -0.414972,1.4949767 -0.414971,0.6108506 -1.204231,0.9082384 z" />
</svg>
