<?xml version="1.0" encoding="UTF-8" standalone="no"?>
<svg
   xmlns:dc="http://purl.org/dc/elements/1.1/"
   xmlns:cc="http://creativecommons.org/ns#"
   xmlns:rdf="http://www.w3.org/1999/02/22-rdf-syntax-ns#"
   xmlns:svg="http://www.w3.org/2000/svg"
   xmlns="http://www.w3.org/2000/svg"
   xmlns:sodipodi="http://sodipodi.sourceforge.net/DTD/sodipodi-0.dtd"
   xmlns:inkscape="http://www.inkscape.org/namespaces/inkscape"
   viewBox="0 0 16 16"
   id="svg2"
   version="1.1"
   inkscape:version="0.91pre2 r"
   sodipodi:docname="mail-send-receive-symbolic.svg">
  <metadata
     id="metadata18">
    <rdf:RDF>
      <cc:Work
         rdf:about="">
        <dc:format>image/svg+xml</dc:format>
        <dc:type
           rdf:resource="http://purl.org/dc/dcmitype/StillImage" />
        <dc:title></dc:title>
      </cc:Work>
    </rdf:RDF>
  </metadata>
  <defs
     id="defs16" />
  <sodipodi:namedview
     pagecolor="#ffffff"
     bordercolor="#666666"
     borderopacity="1"
     objecttolerance="10"
     gridtolerance="10"
     guidetolerance="10"
     inkscape:pageopacity="0"
     inkscape:pageshadow="2"
     inkscape:window-width="1366"
     inkscape:window-height="672"
     id="namedview14"
     showgrid="true"
     inkscape:showpageshadow="false"
     showborder="true"
     borderlayer="true"
     inkscape:zoom="41.7193"
     inkscape:cx="6.432237"
     inkscape:cy="7.8768735"
     inkscape:window-x="-4"
     inkscape:window-y="25"
     inkscape:window-maximized="1"
     inkscape:current-layer="svg2">
    <inkscape:grid
       type="xygrid"
       id="grid4147" />
    <sodipodi:guide
       position="0,16"
       orientation="16,0"
       id="guide4153" />
    <sodipodi:guide
       position="0,0"
       orientation="0,16"
       id="guide4155" />
    <sodipodi:guide
       position="16,0"
       orientation="-16,0"
       id="guide4157" />
    <sodipodi:guide
       position="16,16"
       orientation="0,-16"
       id="guide4159" />
    <sodipodi:guide
       position="2,14"
       orientation="12,0"
       id="guide4161" />
    <sodipodi:guide
       position="2,2"
       orientation="0,12"
       id="guide4163" />
    <sodipodi:guide
       position="14,2"
       orientation="-12,0"
       id="guide4165" />
    <sodipodi:guide
       position="14,14"
       orientation="0,-12"
       id="guide4167" />
  </sodipodi:namedview>
  <path
     style="color:#000000;text-decoration:none;text-decoration-line:none;text-decoration-style:solid;text-decoration-color:#000000;clip-rule:nonzero;display:inline;overflow:visible;visibility:visible;opacity:1;isolation:auto;mix-blend-mode:normal;color-interpolation:sRGB;color-interpolation-filters:linearRGB;solid-color:#000000;solid-opacity:1;fill:#bebebe;fill-opacity:1;fill-rule:nonzero;stroke:none;stroke-width:1;stroke-linecap:butt;stroke-linejoin:miter;stroke-miterlimit:4;stroke-dasharray:none;stroke-dashoffset:0;stroke-opacity:1;color-rendering:auto;image-rendering:auto;shape-rendering:auto;text-rendering:auto;enable-background:accumulate"
     d="M 6 2 L 6 3 L 6 6 L 5.0410156 6 L 3.8847656 6 L 1 10.996094 L 1 11 L 1 12 L 1 12.380859 L 1 13 L 1 14 L 15 14 L 15 13 L 15 12.380859 L 15 12 L 15 11 L 15 10.996094 L 12.115234 6 L 12 6 L 10 6 L 10 3 L 10 2 L 6 2 z M 7 3 L 9 3 L 9 6 L 9 7 L 9 8 L 11.292969 8 L 8 11.292969 L 4.7070312 8 L 7 8 L 7 7 L 7 6 L 7 3 z M 3.6679688 8.375 L 7.2929688 12 L 5.5898438 12 L 5.0078125 10.990234 L 5 11 L 3.8574219 11 L 2.1542969 11 L 3.6679688 8.375 z M 12.332031 8.375 L 13.845703 11 L 12.142578 11 L 11 11 L 10.992188 10.990234 L 10.410156 12 L 8.7070312 12 L 12.332031 8.375 z M 2 12 L 4.4335938 12 L 5 12.980469 L 5 13 L 2 13 L 2 12 z M 11.566406 12 L 14 12 L 14 13 L 11 13 L 11 12.980469 L 11.566406 12 z "
     id="rect4198" />
</svg>
