<?xml version="1.0" encoding="UTF-8" standalone="no"?>
<svg
   xmlns:dc="http://purl.org/dc/elements/1.1/"
   xmlns:cc="http://creativecommons.org/ns#"
   xmlns:rdf="http://www.w3.org/1999/02/22-rdf-syntax-ns#"
   xmlns:svg="http://www.w3.org/2000/svg"
   xmlns="http://www.w3.org/2000/svg"
   xmlns:sodipodi="http://sodipodi.sourceforge.net/DTD/sodipodi-0.dtd"
   xmlns:inkscape="http://www.inkscape.org/namespaces/inkscape"
   viewBox="0 0 16 16"
   id="svg2"
   version="1.1"
   inkscape:version="0.91pre2 r"
   sodipodi:docname="view-list-video-symbolic.svg">
  <metadata
     id="metadata10">
    <rdf:RDF>
      <cc:Work
         rdf:about="">
        <dc:format>image/svg+xml</dc:format>
        <dc:type
           rdf:resource="http://purl.org/dc/dcmitype/StillImage" />
        <dc:title></dc:title>
      </cc:Work>
    </rdf:RDF>
  </metadata>
  <defs
     id="defs8" />
  <sodipodi:namedview
     pagecolor="#ffffff"
     bordercolor="#666666"
     borderopacity="1"
     objecttolerance="10"
     gridtolerance="10"
     guidetolerance="10"
     inkscape:pageopacity="0"
     inkscape:pageshadow="2"
     inkscape:window-width="1366"
     inkscape:window-height="672"
     id="namedview6"
     showgrid="true"
     inkscape:showpageshadow="false"
     borderlayer="true"
     inkscape:zoom="29.5"
     inkscape:cx="8.4076479"
     inkscape:cy="7.9346834"
     inkscape:window-x="-4"
     inkscape:window-y="25"
     inkscape:window-maximized="1"
     inkscape:current-layer="svg2">
    <inkscape:grid
       type="xygrid"
       id="grid4139" />
    <sodipodi:guide
       position="0,16"
       orientation="16,0"
       id="guide4145" />
    <sodipodi:guide
       position="0,0"
       orientation="0,16"
       id="guide4147" />
    <sodipodi:guide
       position="16,0"
       orientation="-16,0"
       id="guide4149" />
    <sodipodi:guide
       position="16,16"
       orientation="0,-16"
       id="guide4151" />
    <sodipodi:guide
       position="2,14"
       orientation="12,0"
       id="guide4153" />
    <sodipodi:guide
       position="2,2"
       orientation="0,12"
       id="guide4155" />
    <sodipodi:guide
       position="14,2"
       orientation="-12,0"
       id="guide4157" />
    <sodipodi:guide
       position="14,14"
       orientation="0,-12"
       id="guide4159" />
  </sodipodi:namedview>
  <path
     style="color:#000000;text-decoration:none;text-decoration-line:none;text-decoration-style:solid;text-decoration-color:#000000;clip-rule:nonzero;display:inline;overflow:visible;visibility:visible;opacity:1;isolation:auto;mix-blend-mode:normal;color-interpolation:sRGB;color-interpolation-filters:linearRGB;solid-color:#000000;solid-opacity:1;fill:#bebebe;fill-opacity:1;fill-rule:nonzero;stroke:none;stroke-width:1;stroke-linecap:butt;stroke-linejoin:miter;stroke-miterlimit:4;stroke-dasharray:none;stroke-dashoffset:0;stroke-opacity:1;color-rendering:auto;image-rendering:auto;shape-rendering:auto;text-rendering:auto;enable-background:accumulate"
     d="M 2 2 L 2 3 L 2 8 L 3 8 L 3 5 L 4 5 L 4 8 L 5 8 L 5 5 L 11 5 L 11 11 L 8 11 L 8 12 L 9 12 L 9 13 L 8 13 L 8 14 L 14 14 L 14 13 L 14 3 L 14 2 L 3 2 L 2 2 z M 3 3 L 4 3 L 4 4 L 3 4 L 3 3 z M 5 3 L 6 3 L 6 4 L 5 4 L 5 3 z M 7 3 L 9 3 L 9 4 L 7 4 L 7 3 z M 10 3 L 11 3 L 11 4 L 10 4 L 10 3 z M 12 3 L 13 3 L 13 4 L 12 4 L 12 3 z M 12 5 L 13 5 L 13 11 L 12 11 L 12 5 z M 2 9 L 2 10 L 7 10 L 7 9 L 2 9 z M 2 11 L 2 12 L 7 12 L 7 11 L 2 11 z M 10 12 L 11 12 L 11 13 L 10 13 L 10 12 z M 12 12 L 13 12 L 13 13 L 12 13 L 12 12 z M 2 13 L 2 14 L 7 14 L 7 13 L 2 13 z "
     id="rect4172" />
</svg>
