<?xml version="1.0" encoding="UTF-8" standalone="no"?>
<svg
   xmlns:dc="http://purl.org/dc/elements/1.1/"
   xmlns:cc="http://creativecommons.org/ns#"
   xmlns:rdf="http://www.w3.org/1999/02/22-rdf-syntax-ns#"
   xmlns:svg="http://www.w3.org/2000/svg"
   xmlns="http://www.w3.org/2000/svg"
   xmlns:sodipodi="http://sodipodi.sourceforge.net/DTD/sodipodi-0.dtd"
   xmlns:inkscape="http://www.inkscape.org/namespaces/inkscape"
   viewBox="0 0 16 16"
   id="svg2"
   version="1.1"
   inkscape:version="0.91pre2 r"
   sodipodi:docname="view-restore-symbolic.svg"
   width="16"
   height="16">
  <metadata
     id="metadata32">
    <rdf:RDF>
      <cc:Work
         rdf:about="">
        <dc:format>image/svg+xml</dc:format>
        <dc:type
           rdf:resource="http://purl.org/dc/dcmitype/StillImage" />
        <dc:title></dc:title>
      </cc:Work>
    </rdf:RDF>
  </metadata>
  <defs
     id="defs30" />
  <sodipodi:namedview
     pagecolor="#ffffff"
     bordercolor="#666666"
     borderopacity="1"
     objecttolerance="10"
     gridtolerance="10"
     guidetolerance="10"
     inkscape:pageopacity="0"
     inkscape:pageshadow="2"
     inkscape:window-width="1366"
     inkscape:window-height="672"
     id="namedview28"
     showgrid="true"
     inkscape:showpageshadow="false"
     borderlayer="true"
     inkscape:zoom="41.656036"
     inkscape:cx="7.7894711"
     inkscape:cy="9.2766619"
     inkscape:window-x="-4"
     inkscape:window-y="25"
     inkscape:window-maximized="1"
     inkscape:current-layer="svg2">
    <inkscape:grid
       type="xygrid"
       id="grid4161" />
    <sodipodi:guide
       position="0,16"
       orientation="16,0"
       id="guide4167" />
    <sodipodi:guide
       position="0,0"
       orientation="0,16"
       id="guide4169" />
    <sodipodi:guide
       position="16,0"
       orientation="-16,0"
       id="guide4171" />
    <sodipodi:guide
       position="16,16"
       orientation="0,-16"
       id="guide4173" />
    <sodipodi:guide
       position="2,14"
       orientation="12,0"
       id="guide4175" />
    <sodipodi:guide
       position="2,2"
       orientation="0,12"
       id="guide4177" />
    <sodipodi:guide
       position="14,2"
       orientation="-12,0"
       id="guide4179" />
    <sodipodi:guide
       position="14,14"
       orientation="0,-12"
       id="guide4181" />
  </sodipodi:namedview>
  <path
     style="fill:#bebebe;fill-rule:evenodd;stroke:none;stroke-width:1px;stroke-linecap:butt;stroke-linejoin:miter;stroke-opacity:1;fill-opacity:1"
     d="M 6 2 L 8 4 L 10 2 L 6 2 z M 8 4 L 4 4 L 4 8 L 4 12 L 8 12 L 12 12 L 12 8 L 12 4 L 8 4 z M 12 8 L 14 10 L 14 6 L 12 8 z M 8 12 L 6 14 L 10 14 L 8 12 z M 4 8 L 2 6 L 2 10 L 4 8 z M 5 5 L 11 5 L 11 6 L 5 6 L 5 5 z M 5 7 L 11 7 L 11 11 L 5 11 L 5 7 z "
     id="path4183" />
</svg>
