<?xml version="1.0" encoding="UTF-8" standalone="no"?>
<svg
   xmlns:dc="http://purl.org/dc/elements/1.1/"
   xmlns:cc="http://creativecommons.org/ns#"
   xmlns:rdf="http://www.w3.org/1999/02/22-rdf-syntax-ns#"
   xmlns:svg="http://www.w3.org/2000/svg"
   xmlns="http://www.w3.org/2000/svg"
   xmlns:sodipodi="http://sodipodi.sourceforge.net/DTD/sodipodi-0.dtd"
   xmlns:inkscape="http://www.inkscape.org/namespaces/inkscape"
   viewBox="0 0 16 16"
   id="svg2"
   version="1.1"
   inkscape:version="0.91pre2 r"
   sodipodi:docname="view-list-images-symbolic.svg">
  <metadata
     id="metadata10">
    <rdf:RDF>
      <cc:Work
         rdf:about="">
        <dc:format>image/svg+xml</dc:format>
        <dc:type
           rdf:resource="http://purl.org/dc/dcmitype/StillImage" />
        <dc:title></dc:title>
      </cc:Work>
    </rdf:RDF>
  </metadata>
  <defs
     id="defs8" />
  <sodipodi:namedview
     pagecolor="#ffffff"
     bordercolor="#666666"
     borderopacity="1"
     objecttolerance="10"
     gridtolerance="10"
     guidetolerance="10"
     inkscape:pageopacity="0"
     inkscape:pageshadow="2"
     inkscape:window-width="1366"
     inkscape:window-height="672"
     id="namedview6"
     showgrid="true"
     inkscape:showpageshadow="false"
     borderlayer="true"
     inkscape:zoom="20.85965"
     inkscape:cx="7.8026024"
     inkscape:cy="4.6087339"
     inkscape:window-x="-4"
     inkscape:window-y="25"
     inkscape:window-maximized="1"
     inkscape:current-layer="svg2">
    <inkscape:grid
       type="xygrid"
       id="grid4154" />
    <sodipodi:guide
       position="0,16"
       orientation="16,0"
       id="guide4160" />
    <sodipodi:guide
       position="0,0"
       orientation="0,16"
       id="guide4162" />
    <sodipodi:guide
       position="16,0"
       orientation="-16,0"
       id="guide4164" />
    <sodipodi:guide
       position="16,16"
       orientation="0,-16"
       id="guide4166" />
    <sodipodi:guide
       position="2,14"
       orientation="12,0"
       id="guide4168" />
    <sodipodi:guide
       position="2,2"
       orientation="0,12"
       id="guide4170" />
    <sodipodi:guide
       position="14,2"
       orientation="-12,0"
       id="guide4172" />
    <sodipodi:guide
       position="14,14"
       orientation="0,-12"
       id="guide4174" />
  </sodipodi:namedview>
  <path
     style="color:#000000;text-decoration:none;text-decoration-line:none;text-decoration-style:solid;text-decoration-color:#000000;clip-rule:nonzero;display:inline;overflow:visible;visibility:visible;opacity:1;isolation:auto;mix-blend-mode:normal;color-interpolation:sRGB;color-interpolation-filters:linearRGB;solid-color:#000000;solid-opacity:1;fill:#bebebe;fill-opacity:1;fill-rule:nonzero;stroke:none;stroke-width:1;stroke-linecap:butt;stroke-linejoin:miter;stroke-miterlimit:4;stroke-dasharray:none;stroke-dashoffset:0;stroke-opacity:1;color-rendering:auto;image-rendering:auto;shape-rendering:auto;text-rendering:auto;enable-background:accumulate"
     d="M 2 2 L 2 3 L 2 8 L 3 8 L 3 3 L 13 3 L 13 9.2929688 L 9.7070312 6 L 9.6992188 6.0078125 L 9.6933594 6 L 7.3476562 8.3476562 L 8.0546875 9.0546875 L 9.7011719 7.4082031 L 13 10.707031 L 13 13 L 8 13 L 8 14 L 14 14 L 14 13 L 14 11.707031 L 14 10.292969 L 14 2 L 3 2 L 2 2 z M 5.5 4 C 4.669 4 4 4.6690001 4 5.5 C 4 6.331 4.669 7 5.5 7 C 6.331 7 7 6.331 7 5.5 C 7 4.6690001 6.331 4 5.5 4 z M 5.5 5 C 5.777 5 6 5.223 6 5.5 C 6 5.777 5.777 6 5.5 6 C 5.223 6 5 5.777 5 5.5 C 5 5.223 5.223 5 5.5 5 z M 2 9 L 2 10 L 7 10 L 7 9 L 2 9 z M 2 11 L 2 12 L 7 12 L 7 11 L 2 11 z M 2 13 L 2 14 L 7 14 L 7 13 L 2 13 z "
     id="rect4172" />
</svg>
