<?xml version="1.0" encoding="UTF-8" standalone="no"?>
<svg
   xmlns:dc="http://purl.org/dc/elements/1.1/"
   xmlns:cc="http://creativecommons.org/ns#"
   xmlns:rdf="http://www.w3.org/1999/02/22-rdf-syntax-ns#"
   xmlns:svg="http://www.w3.org/2000/svg"
   xmlns="http://www.w3.org/2000/svg"
   xmlns:sodipodi="http://sodipodi.sourceforge.net/DTD/sodipodi-0.dtd"
   xmlns:inkscape="http://www.inkscape.org/namespaces/inkscape"
   viewBox="0 0 16 16"
   id="svg2"
   version="1.1"
   inkscape:version="0.91+devel r"
   sodipodi:docname="window-close-symbolic.svg">
  <metadata
     id="metadata12">
    <rdf:RDF>
      <cc:Work
         rdf:about="">
        <dc:format>image/svg+xml</dc:format>
        <dc:type
           rdf:resource="http://purl.org/dc/dcmitype/StillImage" />
        <dc:title />
      </cc:Work>
    </rdf:RDF>
  </metadata>
  <defs
     id="defs10" />
  <sodipodi:namedview
     pagecolor="#ffffff"
     bordercolor="#666666"
     borderopacity="1"
     objecttolerance="10"
     gridtolerance="10"
     guidetolerance="10"
     inkscape:pageopacity="0"
     inkscape:pageshadow="2"
     inkscape:window-width="1366"
     inkscape:window-height="670"
     id="namedview8"
     showgrid="true"
     inkscape:showpageshadow="false"
     borderlayer="true"
     inkscape:zoom="7.375"
     inkscape:cx="-13.393221"
     inkscape:cy="10.741437"
     inkscape:window-x="-4"
     inkscape:window-y="29"
     inkscape:window-maximized="1"
     inkscape:current-layer="svg2">
    <inkscape:grid
       type="xygrid"
       id="grid4141" />
    <sodipodi:guide
       position="0,16"
       orientation="16,0"
       id="guide4147" />
    <sodipodi:guide
       position="0,0"
       orientation="0,16"
       id="guide4149" />
    <sodipodi:guide
       position="16,0"
       orientation="-16,0"
       id="guide4151" />
    <sodipodi:guide
       position="16,16"
       orientation="0,-16"
       id="guide4153" />
    <sodipodi:guide
       position="2,14"
       orientation="12,0"
       id="guide4155" />
    <sodipodi:guide
       position="2,2"
       orientation="0,12"
       id="guide4157" />
    <sodipodi:guide
       position="14,2"
       orientation="-12,0"
       id="guide4159" />
    <sodipodi:guide
       position="14,14"
       orientation="0,-12"
       id="guide4161" />
  </sodipodi:namedview>
  <path
     inkscape:connector-curvature="0"
     style="opacity:1;fill:#bebebe;fill-opacity:1;stroke:none;stroke-width:2.79999995;stroke-miterlimit:4;stroke-dasharray:none;stroke-opacity:0.55026455"
     d="M 8,2 C 4.6760048,2 2,4.6760048 2,8 c 0,3.323995 2.6760048,6 6,6 3.323995,0 6,-2.676005 6,-6 C 14,4.6760048 11.323995,2 8,2 Z m 0,1 c 2.769996,0 5,2.230004 5,5 0,2.769996 -2.230004,5 -5,5 C 5.230004,13 3,10.769996 3,8 3,5.230004 5.230004,3 8,3 Z M 6.7070312,6 6,6.7070312 7.2929688,8 6,9.2929688 6.7070312,10 8,8.7070312 9.2929688,10 10,9.2929688 8.7070312,8 10,6.7070312 9.2929688,6 8,7.2929688 6.7070312,6 Z"
     id="rect4169" />
</svg>
