<?xml version="1.0" encoding="UTF-8" standalone="no"?>
<!-- Created with Inkscape (http://www.inkscape.org/) -->

<svg
   xmlns:dc="http://purl.org/dc/elements/1.1/"
   xmlns:cc="http://creativecommons.org/ns#"
   xmlns:rdf="http://www.w3.org/1999/02/22-rdf-syntax-ns#"
   xmlns:svg="http://www.w3.org/2000/svg"
   xmlns="http://www.w3.org/2000/svg"
   xmlns:sodipodi="http://sodipodi.sourceforge.net/DTD/sodipodi-0.dtd"
   xmlns:inkscape="http://www.inkscape.org/namespaces/inkscape"
   width="16"
   height="16"
   id="svg4359"
   version="1.1"
   inkscape:version="0.48+devel r"
   sodipodi:docname="folder-pictures.svg">
  <defs
     id="defs4361" />
  <sodipodi:namedview
     id="base"
     pagecolor="#ffffff"
     bordercolor="#666666"
     borderopacity="1.0"
     inkscape:pageopacity="0.0"
     inkscape:pageshadow="2"
     inkscape:zoom="32"
     inkscape:cx="7.0402758"
     inkscape:cy="8.9071327"
     inkscape:current-layer="layer1"
     showgrid="true"
     inkscape:grid-bbox="true"
     inkscape:document-units="px"
     inkscape:window-width="1366"
     inkscape:window-height="668"
     inkscape:window-x="-2"
     inkscape:window-y="23"
     inkscape:window-maximized="1"
     inkscape:showpageshadow="false"
     borderlayer="true"
     showguides="true"
     fit-margin-top="0"
     fit-margin-left="0"
     fit-margin-right="0"
     fit-margin-bottom="0">
    <inkscape:grid
       type="xygrid"
       id="grid4105"
       originx="-3px"
       originy="-3px" />
    <sodipodi:guide
       position="0,16"
       orientation="16,0"
       id="guide4205" />
    <sodipodi:guide
       position="0,0"
       orientation="0,16"
       id="guide4207" />
    <sodipodi:guide
       position="16,0"
       orientation="-16,0"
       id="guide4209" />
    <sodipodi:guide
       position="16,16"
       orientation="0,-16"
       id="guide4211" />
    <sodipodi:guide
       position="2,14"
       orientation="12,0"
       id="guide4213" />
    <sodipodi:guide
       position="2,2"
       orientation="0,12"
       id="guide4215" />
    <sodipodi:guide
       position="14,2"
       orientation="-12,0"
       id="guide4217" />
    <sodipodi:guide
       position="14,14"
       orientation="0,-12"
       id="guide4219" />
    <sodipodi:guide
       position="13.999992,8"
       orientation="0,-11.999984"
       id="guide4221" />
    <sodipodi:guide
       position="2.0000086,8"
       orientation="6,0"
       id="guide4223" />
    <sodipodi:guide
       position="2.0000086,2"
       orientation="0,11.999984"
       id="guide4225" />
    <sodipodi:guide
       position="13.999992,2"
       orientation="-6,0"
       id="guide4227" />
    <sodipodi:guide
       position="2,14"
       orientation="12,0"
       id="guide4124" />
    <sodipodi:guide
       position="2,2"
       orientation="0,6"
       id="guide4126" />
    <sodipodi:guide
       position="8,2"
       orientation="-12,0"
       id="guide4128" />
    <sodipodi:guide
       position="8,14"
       orientation="0,-6"
       id="guide4130" />
  </sodipodi:namedview>
  <metadata
     id="metadata4364">
    <rdf:RDF>
      <cc:Work
         rdf:about="">
        <dc:format>image/svg+xml</dc:format>
        <dc:type
           rdf:resource="http://purl.org/dc/dcmitype/StillImage" />
        <dc:title />
      </cc:Work>
    </rdf:RDF>
  </metadata>
  <g
     id="layer1"
     inkscape:label="Layer 1"
     inkscape:groupmode="layer"
     transform="translate(-3,-29)">
    <path
       style="opacity:1;fill:#424854;fill-opacity:1;stroke:none"
       d="M 3 2 L 3 3 L 3 4 L 2 4 L 2 5 L 2 14 L 3 14 L 14 14 L 14 13 L 14 3 L 13 3 L 10 3 L 10 5 L 13 5 L 13 13 L 3 13 L 3 5 L 9 5 L 9 4 L 9 2 L 4 2 L 3 2 z M 4 3 L 8 3 L 8 4 L 4 4 L 4 3 z M 8 6 C 6.338 6 5 7.338 5 9 C 5 10.662 6.338 12 8 12 C 9.662 12 11 10.662 11 9 C 11 7.338 9.662 6 8 6 z M 8 7 C 9.108 7 10 7.892 10 9 C 10 10.108 9.108 11 8 11 C 6.892 11 6 10.108 6 9 C 6 7.892 6.892 7 8 7 z "
       transform="translate(3,29)"
       id="rect4142" />
  </g>
</svg>
