<?xml version="1.0" encoding="UTF-8" standalone="no"?>
<!-- Created with Inkscape (http://www.inkscape.org/) -->

<svg
   xmlns:dc="http://purl.org/dc/elements/1.1/"
   xmlns:cc="http://creativecommons.org/ns#"
   xmlns:rdf="http://www.w3.org/1999/02/22-rdf-syntax-ns#"
   xmlns:svg="http://www.w3.org/2000/svg"
   xmlns="http://www.w3.org/2000/svg"
   xmlns:xlink="http://www.w3.org/1999/xlink"
   xmlns:sodipodi="http://sodipodi.sourceforge.net/DTD/sodipodi-0.dtd"
   xmlns:inkscape="http://www.inkscape.org/namespaces/inkscape"
   width="48"
   height="48"
   id="svg2"
   version="1.1"
   inkscape:version="0.48+devel r"
   sodipodi:docname="abrt.svg">
  <defs
     id="defs4">
    <linearGradient
       id="linearGradient4212"
       inkscape:collect="always">
      <stop
         id="stop4214"
         offset="0"
         style="stop-color:#ffe9b9;stop-opacity:1" />
      <stop
         id="stop4216"
         offset="1"
         style="stop-color:#fffef5;stop-opacity:1" />
    </linearGradient>
    <linearGradient
       inkscape:collect="always"
       id="linearGradient859">
      <stop
         style="stop-color:#ffae00;stop-opacity:1"
         offset="0"
         id="stop861" />
      <stop
         style="stop-color:#fcdb00;stop-opacity:1"
         offset="1"
         id="stop863" />
    </linearGradient>
    <linearGradient
       gradientTransform="scale(1.0058652,0.994169)"
       gradientUnits="userSpaceOnUse"
       id="ButtonShadow"
       y2="7.0165396"
       x2="45.447727"
       y1="92.539597"
       x1="45.447727">
      <stop
         offset="0"
         style="stop-color:#000000;stop-opacity:1"
         id="stop3750" />
      <stop
         offset="1"
         style="stop-color:#000000;stop-opacity:0.58823532"
         id="stop3752" />
    </linearGradient>
    <linearGradient
       id="linearGradient3737">
      <stop
         offset="0"
         style="stop-color:#ffffff;stop-opacity:1"
         id="stop3739" />
      <stop
         offset="1"
         style="stop-color:#ffffff;stop-opacity:0"
         id="stop3741" />
    </linearGradient>
    <filter
       style="color-interpolation-filters:sRGB"
       id="filter3174">
      <feGaussianBlur
         stdDeviation="1.71"
         id="feGaussianBlur3176" />
    </filter>
    <filter
       style="color-interpolation-filters:sRGB"
       id="filter3794"
       height="1.3839999"
       width="1.3839999"
       y="-0.192"
       x="-0.192">
      <feGaussianBlur
         stdDeviation="5.28"
         id="feGaussianBlur3796" />
    </filter>
    <linearGradient
       gradientUnits="userSpaceOnUse"
       xlink:href="#linearGradient3737"
       id="linearGradient3613"
       y2="138.66119"
       x2="48"
       y1="20.220806"
       x1="48" />
    <clipPath
       id="clipPath3613">
      <rect
         style="fill:#ffffff;fill-opacity:1;fill-rule:nonzero;stroke:none"
         id="rect3615"
         y="6"
         x="6"
         ry="6"
         rx="6"
         height="84"
         width="84" />
    </clipPath>
    <linearGradient
       inkscape:collect="always"
       xlink:href="#linearGradient859"
       id="linearGradient865"
       x1="19.980021"
       y1="-1052.5221"
       x2="19.980021"
       y2="-1004.7299"
       gradientUnits="userSpaceOnUse" />
    <linearGradient
       inkscape:collect="always"
       xlink:href="#linearGradient4212"
       id="linearGradient4210"
       x1="24.599588"
       y1="39.35083"
       x2="24.599588"
       y2="8.7979174"
       gradientUnits="userSpaceOnUse"
       gradientTransform="matrix(0.99997462,0,0,0.99997462,6.0897962e-4,1004.3628)" />
  </defs>
  <sodipodi:namedview
     id="base"
     pagecolor="#ffffff"
     bordercolor="#666666"
     borderopacity="1.0"
     inkscape:pageopacity="0.0"
     inkscape:pageshadow="2"
     inkscape:zoom="6.2950806"
     inkscape:cx="15.210084"
     inkscape:cy="23.359393"
     inkscape:document-units="px"
     inkscape:current-layer="layer1"
     showgrid="false"
     inkscape:window-width="1366"
     inkscape:window-height="666"
     inkscape:window-x="-2"
     inkscape:window-y="25"
     inkscape:window-maximized="1" />
  <metadata
     id="metadata7">
    <rdf:RDF>
      <cc:Work
         rdf:about="">
        <dc:format>image/svg+xml</dc:format>
        <dc:type
           rdf:resource="http://purl.org/dc/dcmitype/StillImage" />
        <dc:title />
      </cc:Work>
    </rdf:RDF>
  </metadata>
  <g
     inkscape:label="Capa 1"
     inkscape:groupmode="layer"
     id="layer1"
     transform="translate(0,-1004.3622)">
    <g
       id="layer2"
       style="display:none"
       transform="translate(-126.31865,964.9772)">
      <rect
         width="86"
         height="85"
         rx="6"
         ry="6"
         x="5"
         y="7"
         id="rect3745"
         style="opacity:0.9;fill:url(#ButtonShadow);fill-opacity:1;fill-rule:nonzero;stroke:none;filter:url(#filter3174)" />
    </g>
    <g
       id="layer5"
       style="display:none"
       transform="translate(-126.31865,964.9772)">
      <rect
         width="66"
         height="66"
         rx="12"
         ry="12"
         x="15"
         y="15"
         clip-path="url(#clipPath3613)"
         id="rect3171"
         style="opacity:0.1;fill:url(#linearGradient3613);fill-opacity:1;fill-rule:nonzero;stroke:#ffffff;stroke-width:0.5;stroke-linecap:round;stroke-linejoin:miter;stroke-miterlimit:4;stroke-opacity:1;stroke-dasharray:none;stroke-dashoffset:0;filter:url(#filter3794)" />
    </g>
    <rect
       style="fill:url(#linearGradient865);fill-opacity:1;stroke:none"
       id="rect2991-1"
       width="48"
       height="48"
       x="3.4576416e-08"
       y="-1052.3622"
       ry="1.9445436"
       transform="scale(1,-1)" />
    <path
       inkscape:connector-curvature="0"
       id="path4228"
       d="m 17.451339,1014.1622 c -0.938644,0 -1.738394,0.1684 -2.398377,0.5058 -0.659984,0.3226 -1.266854,0.7698 -1.824172,1.3418 -0.117331,0.132 -0.184548,0.2869 -0.199214,0.4629 -0.01467,0.1613 0.05255,0.3142 0.199214,0.4609 l 0.460925,0.5293 c 0.146662,0.1467 0.308367,0.2118 0.484363,0.1972 0.175995,-0.015 0.322111,-0.08 0.439442,-0.1972 0.337324,-0.3373 0.762038,-0.6383 1.275358,-0.9023 0.513319,-0.2786 1.034474,-0.418 1.562461,-0.418 0.366657,0 0.712472,0.058 1.035129,0.1758 0.322659,0.1026 0.601256,0.2644 0.835917,0.4843 0.249327,0.22 0.440255,0.4918 0.572251,0.8145 0.146663,0.3227 0.218744,0.6889 0.218744,1.0996 0,0.352 -0.05163,0.6822 -0.154293,0.9902 -0.102663,0.2934 -0.278003,0.6148 -0.52733,0.9667 -0.23466,0.3374 -0.549298,0.7192 -0.945289,1.1445 -0.39599,0.4253 -0.88792,0.9396 -1.474571,1.541 l -3.74014,3.7831 c -0.146663,0.1466 -0.249921,0.2636 -0.308585,0.3516 -0.044,0.088 -0.06445,0.2205 -0.06445,0.3965 l 0,0.791 c -10e-7,0.2053 0.05845,0.367 0.175777,0.4843 0.11733,0.1173 0.277081,0.1758 0.482409,0.1758 l 8.624782,0 c 0.205327,0 0.367031,-0.058 0.484362,-0.1758 0.11733,-0.1173 0.175777,-0.279 0.175777,-0.4843 l 0,-0.6582 c 0,-0.2053 -0.05845,-0.3671 -0.175777,-0.4844 -0.117331,-0.1174 -0.279035,-0.1758 -0.484362,-0.1758 l -5.675638,0 c -0.13199,0 -0.219661,-0.038 -0.263665,-0.1113 -0.04399,-0.073 -0.02355,-0.1542 0.06445,-0.2422 l 2.486265,-2.4843 c 0.63065,-0.6307 1.158621,-1.1967 1.583943,-1.6953 0.439989,-0.5133 0.792621,-0.9896 1.056615,-1.4296 0.27866,-0.4547 0.476404,-0.895 0.593735,-1.3203 0.11733,-0.4254 0.175776,-0.8792 0.175776,-1.3632 0,-0.6893 -0.123711,-1.3138 -0.373037,-1.8711 -0.234662,-0.5573 -0.571705,-1.0336 -1.011694,-1.4296 -0.425322,-0.396 -0.93284,-0.7038 -1.519492,-0.9238 -0.571986,-0.22 -1.187626,-0.3301 -1.847609,-0.3301 z m 13.009436,0 c -0.747983,0 -1.430839,0.1325 -2.046826,0.3965 -0.601317,0.2493 -1.122471,0.602 -1.56246,1.0566 -0.425321,0.44 -0.753595,0.9591 -0.988256,1.5605 -0.23466,0.6013 -0.353506,1.2481 -0.353506,1.9374 l 0,5.4999 c 0,0.6893 0.118847,1.3342 0.353506,1.9355 0.234662,0.6014 0.562936,1.1293 0.988256,1.5839 0.43999,0.44 0.961143,0.7927 1.56246,1.0567 0.615985,0.2492 1.298843,0.373 2.046825,0.373 0.74798,0 1.422067,-0.1238 2.023385,-0.373 0.615985,-0.264 1.137138,-0.6167 1.562461,-1.0567 0.439988,-0.4546 0.777032,-0.9825 1.011693,-1.5839 0.23466,-0.6013 0.351553,-1.2462 0.351553,-1.9355 l 0,-5.4999 c 0,-0.6893 -0.116892,-1.3361 -0.351553,-1.9374 -0.234661,-0.6014 -0.571705,-1.1205 -1.011693,-1.5605 -0.425323,-0.4546 -0.946476,-0.8073 -1.562461,-1.0566 -0.601318,-0.264 -1.275405,-0.3965 -2.023385,-0.3965 z m 0,1.9804 c 0.293326,0 0.565104,0.036 0.814432,0.1094 0.249327,0.073 0.476295,0.1697 0.681623,0.2871 0.11733,0.059 0.189412,0.1892 0.218743,0.3945 0.044,0.1907 0.01478,0.368 -0.08789,0.5293 l -3.761623,6.533 c -0.131997,0.22 -0.28493,0.3233 -0.460927,0.3086 -0.175995,-0.015 -0.265618,-0.2055 -0.265618,-0.5722 l 0,-4.5097 c 0,-0.4254 0.0604,-0.8209 0.177731,-1.1875 0.117331,-0.3814 0.292669,-0.7115 0.52733,-0.9902 0.249327,-0.2786 0.550329,-0.4988 0.90232,-0.6601 0.366658,-0.1614 0.784553,-0.2422 1.253876,-0.2422 z m 2.595637,3.2773 c 0.175995,0.015 0.263664,0.192 0.263664,0.5293 l 0,4.5526 c 0,0.4253 -0.05845,0.8296 -0.175777,1.2109 -0.11733,0.3667 -0.30144,0.6881 -0.550767,0.9668 -0.234661,0.2786 -0.53371,0.4988 -0.900368,0.6601 -0.351991,0.1614 -0.763069,0.2422 -1.232389,0.2422 -0.571988,0 -1.057098,-0.1101 -1.45309,-0.3301 -0.117329,-0.073 -0.204999,-0.2038 -0.263664,-0.3945 -0.05867,-0.1906 -2.19e-4,-0.4401 0.175777,-0.748 l 3.697172,-6.3807 c 0.131995,-0.2347 0.278112,-0.3379 0.439442,-0.3086 z m -14.394167,10.0329 c -0.175996,0.015 -0.315294,0.1024 -0.417957,0.2637 l -5.25768,8.2283 c -0.263993,0.4107 -0.396474,0.777 -0.396474,1.0996 l 0,0.9023 c 0,0.2053 0.05845,0.3651 0.175777,0.4824 0.11733,0.1173 0.279034,0.1777 0.484362,0.1777 l 4.970577,0 c 0.146663,0 0.220698,0.072 0.220698,0.2188 l 0,3.2558 c 0,0.2053 0.05845,0.367 0.175777,0.4843 0.117329,0.1173 0.279034,0.1758 0.484362,0.1758 l 0.769512,0 c 0.205328,0 0.367031,-0.058 0.484362,-0.1758 0.11733,-0.1173 0.175776,-0.279 0.175776,-0.4843 l 0,-3.2558 c 0,-0.1467 0.07404,-0.2188 0.220698,-0.2188 l 1.626912,0 c 0.205328,0 0.367032,-0.06 0.484362,-0.1777 0.11733,-0.1173 0.175777,-0.2771 0.175777,-0.4824 l 0,-0.6601 c 0,-0.2053 -0.05845,-0.367 -0.175777,-0.4844 -0.11733,-0.1173 -0.279034,-0.1758 -0.484362,-0.1758 l -1.626912,0 c -0.146663,0 -0.220698,-0.074 -0.220698,-0.2207 l 0,-1.9355 c 0,-0.2053 -0.05845,-0.3669 -0.175776,-0.4843 -0.117331,-0.1173 -0.279035,-0.1758 -0.484362,-0.1758 l -0.769512,0 c -0.205327,0 -0.367032,0.058 -0.484362,0.1758 -0.117331,0.1174 -0.175777,0.279 -0.175777,0.4843 l 0,1.9355 c 0,0.1466 -0.07404,0.2207 -0.220698,0.2207 l -2.90227,0 c -0.131997,0 -0.212849,-0.038 -0.242181,-0.1113 -0.02934,-0.073 -0.01571,-0.1522 0.04297,-0.2402 l 4.863157,-7.4139 c 0.102665,-0.176 0.138705,-0.3446 0.109373,-0.5059 -0.02933,-0.1614 -0.125774,-0.3025 -0.287102,-0.4199 l -0.636703,-0.373 c -0.16133,-0.1027 -0.329852,-0.1387 -0.505847,-0.1094 z m 11.753609,0.1094 c -0.601319,0 -1.165331,0.1101 -1.693317,0.3301 -0.527987,0.22 -0.997511,0.521 -1.408168,0.9023 -0.39599,0.3667 -0.710628,0.807 -0.945288,1.3203 -0.234661,0.4986 -0.353507,1.0334 -0.353507,1.6054 0,0.352 0.04481,0.6822 0.13281,0.9902 0.102661,0.308 0.226373,0.5934 0.373035,0.8574 0.16133,0.2493 0.331805,0.4763 0.507801,0.6816 0.190662,0.1907 0.379637,0.3524 0.570297,0.4844 0.07333,0.044 0.102558,0.1092 0.08789,0.1972 0,0.088 -0.02923,0.1484 -0.08789,0.1778 -0.219994,0.132 -0.438192,0.3073 -0.658186,0.5273 -0.219995,0.2054 -0.42651,0.4479 -0.617172,0.7265 -0.190663,0.2786 -0.343595,0.5933 -0.460926,0.9453 -0.11733,0.352 -0.177729,0.7339 -0.177729,1.1445 0,0.6454 0.118847,1.2453 0.353506,1.8027 0.249328,0.5426 0.586371,1.0191 1.011693,1.4297 0.425323,0.396 0.924072,0.7125 1.496056,0.9472 0.586652,0.22 1.20911,0.3301 1.869094,0.3301 0.659983,0 1.275623,-0.1101 1.84761,-0.3301 0.571984,-0.2347 1.070732,-0.5512 1.496056,-0.9472 0.425322,-0.4106 0.762365,-0.8871 1.011692,-1.4297 0.249327,-0.5574 0.374991,-1.1573 0.374991,-1.8027 0,-0.4252 -0.05845,-0.814 -0.175777,-1.1659 -0.11733,-0.352 -0.272217,-0.6686 -0.462879,-0.9473 -0.190661,-0.2786 -0.395224,-0.5192 -0.615219,-0.7246 -0.219994,-0.2053 -0.440144,-0.3738 -0.660139,-0.5058 -0.088,-0.059 -0.13281,-0.1259 -0.13281,-0.1992 0.01467,-0.073 0.05948,-0.1386 0.13281,-0.1973 0.175995,-0.1173 0.360104,-0.2634 0.550767,-0.4394 0.190662,-0.1906 0.359184,-0.4109 0.505845,-0.6602 0.16133,-0.2494 0.285041,-0.5279 0.373039,-0.8359 0.102663,-0.3226 0.154293,-0.6753 0.154293,-1.0566 0,-0.572 -0.116893,-1.1068 -0.351553,-1.6054 -0.234662,-0.5133 -0.558071,-0.9536 -0.968726,-1.3203 -0.395989,-0.3813 -0.865515,-0.6823 -1.408167,-0.9023 -0.527986,-0.22 -1.085181,-0.3301 -1.671832,-0.3301 z m 0,1.9804 c 0.307992,0 0.602176,0.052 0.880836,0.1543 0.27866,0.1026 0.519263,0.2488 0.724591,0.4394 0.219994,0.1907 0.390469,0.4246 0.5078,0.7032 0.131997,0.2639 0.19726,0.5581 0.19726,0.8808 0,0.308 -0.05845,0.6002 -0.175777,0.8789 -0.102663,0.2787 -0.25755,0.528 -0.462878,0.748 -0.190662,0.22 -0.431265,0.3973 -0.724591,0.5293 -0.278659,0.1173 -0.59525,0.1758 -0.947241,0.1758 -0.366658,0 -0.696884,-0.058 -0.99021,-0.1758 -0.278659,-0.132 -0.519263,-0.3093 -0.724591,-0.5293 -0.190661,-0.22 -0.338731,-0.4693 -0.441395,-0.748 -0.102666,-0.2787 -0.154293,-0.5709 -0.154293,-0.8789 0,-0.6453 0.228921,-1.1665 0.683576,-1.5625 0.454657,-0.4107 0.996263,-0.6152 1.626913,-0.6152 z m 0,6.2694 c 0.366656,0 0.712471,0.065 1.035129,0.1972 0.322659,0.132 0.601256,0.3162 0.835916,0.5508 0.249328,0.2347 0.440255,0.5132 0.572252,0.8359 0.131996,0.3227 0.197261,0.6753 0.197261,1.0566 0,0.352 -0.06527,0.6823 -0.197261,0.9902 -0.131997,0.308 -0.316107,0.5778 -0.550767,0.8125 -0.234661,0.22 -0.513258,0.3973 -0.835917,0.5293 -0.322658,0.132 -0.675289,0.1973 -1.056613,0.1973 -0.381324,0 -0.732003,-0.065 -1.054662,-0.1973 -0.307992,-0.132 -0.586589,-0.3093 -0.835915,-0.5293 -0.234661,-0.2347 -0.418772,-0.5045 -0.550768,-0.8125 -0.131997,-0.3079 -0.19726,-0.6382 -0.19726,-0.9902 0,-0.3813 0.06527,-0.7339 0.19726,-1.0566 0.131996,-0.3227 0.316107,-0.6012 0.550768,-0.8359 0.249325,-0.2346 0.527922,-0.4188 0.835915,-0.5508 0.322658,-0.132 0.673337,-0.1972 1.054662,-0.1972 z"
       style="font-style:normal;font-variant:normal;font-weight:normal;font-stretch:normal;font-size:medium;line-height:125%;font-family:SciFly;-inkscape-font-specification:SciFly;letter-spacing:0px;word-spacing:0px;fill:#000000;fill-opacity:0.05882353;stroke:none;stroke-width:1px;stroke-linecap:butt;stroke-linejoin:miter;stroke-opacity:1" />
    <path
       inkscape:connector-curvature="0"
       style="fill:#000000;fill-opacity:1;stroke:none"
       d="m -3.4576416e-8,1049.3622 0,1.0625 c 0,1.0773 0.860223004576416,1.9375 1.937500034576416,1.9375 l 44.125,0 c 1.077277,0 1.9375,-0.8602 1.9375,-1.9375 l 0,-1.0625 c 0,1.0773 -0.860223,1.9375 -1.9375,1.9375 l -44.125,0 C 0.86022297,1051.2997 -3.4576416e-8,1050.4395 -3.4576416e-8,1049.3622 Z"
       id="rect846" />
    <path
       inkscape:connector-curvature="0"
       style="fill:#ffffff;fill-opacity:0.5372549;stroke:none"
       d="m 2.53125,1005.0185 c -0.917088,0 -1.67114603,0.6395 -1.84375003,1.5 C 1.023112,1006.2386 1.462012,1006.081 1.9375,1006.081 l 44.125,0 c 0.475488,0 0.914388,0.1576 1.25,0.4375 -0.172603,-0.8605 -0.926662,-1.5 -1.84375,-1.5 L 2.53125,1005.0185 Z"
       id="path7515" />
    <path
       inkscape:connector-curvature="0"
       style="fill:#000000;fill-opacity:0.39215686;stroke:none"
       d="m 1.9375,1004.3622 c -1.07727703,0 -1.937500034576416,0.8602 -1.937500034576416,1.9375 l 0,43.0625 c 0,0.7934 0.480024004576416,1.449 1.156250034576416,1.75 -0.30934103,-0.3333 -0.50000003,-0.7824 -0.50000003,-1.2812 l 0,-42.9375 c 0,-1.0482 0.82689903,-1.875 1.87500003,-1.875 l 42.9375,0 c 1.048101,0 1.875,0.8268 1.875,1.875 l 0,42.9375 c 0,0.4988 -0.190658,0.9479 -0.5,1.2812 0.676226,-0.301 1.15625,-0.9566 1.15625,-1.75 l 0,-43.0625 c 0,-1.0773 -0.860223,-1.9375 -1.9375,-1.9375 L 1.9375,1004.3622 Z"
       id="rect4280" />
    <path
       style="font-style:normal;font-variant:normal;font-weight:normal;font-stretch:normal;font-size:medium;line-height:125%;font-family:SciFly;-inkscape-font-specification:SciFly;letter-spacing:0px;word-spacing:0px;fill:#000000;fill-opacity:0.11764706;stroke:none;stroke-width:1px;stroke-linecap:butt;stroke-linejoin:miter;stroke-opacity:1"
       d="m 17.451339,1013.7622 c -0.938644,0 -1.738394,0.1684 -2.398377,0.5058 -0.659984,0.3226 -1.266854,0.7698 -1.824172,1.3418 -0.117331,0.132 -0.184548,0.2869 -0.199214,0.4629 -0.01467,0.1613 0.05255,0.3142 0.199214,0.4609 l 0.460925,0.5293 c 0.146662,0.1467 0.308367,0.2118 0.484363,0.1972 0.175995,-0.015 0.322111,-0.08 0.439442,-0.1972 0.337324,-0.3373 0.762038,-0.6383 1.275358,-0.9023 0.513319,-0.2786 1.034474,-0.418 1.562461,-0.418 0.366657,0 0.712472,0.058 1.035129,0.1758 0.322659,0.1026 0.601256,0.2644 0.835917,0.4843 0.249327,0.22 0.440255,0.4918 0.572251,0.8145 0.146663,0.3227 0.218744,0.6889 0.218744,1.0996 0,0.352 -0.05163,0.6822 -0.154293,0.9902 -0.102663,0.2934 -0.278003,0.6148 -0.52733,0.9667 -0.23466,0.3374 -0.549298,0.7192 -0.945289,1.1445 -0.39599,0.4253 -0.88792,0.9396 -1.474571,1.541 l -3.74014,3.7831 c -0.146663,0.1466 -0.249921,0.2636 -0.308585,0.3516 -0.044,0.088 -0.06445,0.2205 -0.06445,0.3965 l 0,0.791 c -10e-7,0.2053 0.05845,0.367 0.175777,0.4843 0.11733,0.1173 0.277081,0.1758 0.482409,0.1758 l 8.624782,0 c 0.205327,0 0.367031,-0.058 0.484362,-0.1758 0.11733,-0.1173 0.175777,-0.279 0.175777,-0.4843 l 0,-0.6582 c 0,-0.2053 -0.05845,-0.3671 -0.175777,-0.4844 -0.117331,-0.1174 -0.279035,-0.1758 -0.484362,-0.1758 l -5.675638,0 c -0.13199,0 -0.219661,-0.038 -0.263665,-0.1113 -0.04399,-0.073 -0.02355,-0.1542 0.06445,-0.2422 l 2.486265,-2.4843 c 0.63065,-0.6307 1.158621,-1.1967 1.583943,-1.6953 0.439989,-0.5133 0.792621,-0.9896 1.056615,-1.4296 0.27866,-0.4547 0.476404,-0.895 0.593735,-1.3203 0.11733,-0.4254 0.175776,-0.8792 0.175776,-1.3632 0,-0.6893 -0.123711,-1.3138 -0.373037,-1.8711 -0.234662,-0.5573 -0.571705,-1.0336 -1.011694,-1.4296 -0.425322,-0.396 -0.93284,-0.7038 -1.519492,-0.9238 -0.571986,-0.22 -1.187626,-0.3301 -1.847609,-0.3301 z m 13.009436,0 c -0.747983,0 -1.430839,0.1325 -2.046826,0.3965 -0.601317,0.2493 -1.122471,0.602 -1.56246,1.0566 -0.425321,0.44 -0.753595,0.9591 -0.988256,1.5605 -0.23466,0.6013 -0.353506,1.2481 -0.353506,1.9374 l 0,5.4999 c 0,0.6893 0.118847,1.3342 0.353506,1.9355 0.234662,0.6014 0.562936,1.1293 0.988256,1.5839 0.43999,0.44 0.961143,0.7927 1.56246,1.0567 0.615985,0.2492 1.298843,0.373 2.046825,0.373 0.74798,0 1.422067,-0.1238 2.023385,-0.373 0.615985,-0.264 1.137138,-0.6167 1.562461,-1.0567 0.439988,-0.4546 0.777032,-0.9825 1.011693,-1.5839 0.23466,-0.6013 0.351553,-1.2462 0.351553,-1.9355 l 0,-5.4999 c 0,-0.6893 -0.116892,-1.3361 -0.351553,-1.9374 -0.234661,-0.6014 -0.571705,-1.1205 -1.011693,-1.5605 -0.425323,-0.4546 -0.946476,-0.8073 -1.562461,-1.0566 -0.601318,-0.264 -1.275405,-0.3965 -2.023385,-0.3965 z m 0,1.9804 c 0.293326,0 0.565104,0.036 0.814432,0.1094 0.249327,0.073 0.476295,0.1697 0.681623,0.2871 0.11733,0.059 0.189412,0.1892 0.218743,0.3945 0.044,0.1907 0.01478,0.368 -0.08789,0.5293 l -3.761623,6.533 c -0.131997,0.22 -0.28493,0.3233 -0.460927,0.3086 -0.175995,-0.015 -0.265618,-0.2055 -0.265618,-0.5722 l 0,-4.5097 c 0,-0.4254 0.0604,-0.8209 0.177731,-1.1875 0.117331,-0.3814 0.292669,-0.7115 0.52733,-0.9902 0.249327,-0.2786 0.550329,-0.4988 0.90232,-0.6601 0.366658,-0.1614 0.784553,-0.2422 1.253876,-0.2422 z m 2.595637,3.2773 c 0.175995,0.015 0.263664,0.192 0.263664,0.5293 l 0,4.5526 c 0,0.4253 -0.05845,0.8296 -0.175777,1.2109 -0.11733,0.3667 -0.30144,0.6881 -0.550767,0.9668 -0.234661,0.2786 -0.53371,0.4988 -0.900368,0.6601 -0.351991,0.1614 -0.763069,0.2422 -1.232389,0.2422 -0.571988,0 -1.057098,-0.1101 -1.45309,-0.3301 -0.117329,-0.073 -0.204999,-0.2038 -0.263664,-0.3945 -0.05867,-0.1906 -2.19e-4,-0.4401 0.175777,-0.748 l 3.697172,-6.3807 c 0.131995,-0.2347 0.278112,-0.3379 0.439442,-0.3086 z m -14.394167,10.0329 c -0.175996,0.015 -0.315294,0.1024 -0.417957,0.2637 l -5.25768,8.2283 c -0.263993,0.4107 -0.396474,0.777 -0.396474,1.0996 l 0,0.9023 c 0,0.2053 0.05845,0.3651 0.175777,0.4824 0.11733,0.1173 0.279034,0.1777 0.484362,0.1777 l 4.970577,0 c 0.146663,0 0.220698,0.072 0.220698,0.2188 l 0,3.2558 c 0,0.2053 0.05845,0.367 0.175777,0.4843 0.117329,0.1173 0.279034,0.1758 0.484362,0.1758 l 0.769512,0 c 0.205328,0 0.367031,-0.058 0.484362,-0.1758 0.11733,-0.1173 0.175776,-0.279 0.175776,-0.4843 l 0,-3.2558 c 0,-0.1467 0.07404,-0.2188 0.220698,-0.2188 l 1.626912,0 c 0.205328,0 0.367032,-0.06 0.484362,-0.1777 0.11733,-0.1173 0.175777,-0.2771 0.175777,-0.4824 l 0,-0.6601 c 0,-0.2053 -0.05845,-0.367 -0.175777,-0.4844 -0.11733,-0.1173 -0.279034,-0.1758 -0.484362,-0.1758 l -1.626912,0 c -0.146663,0 -0.220698,-0.074 -0.220698,-0.2207 l 0,-1.9355 c 0,-0.2053 -0.05845,-0.3669 -0.175776,-0.4843 -0.117331,-0.1173 -0.279035,-0.1758 -0.484362,-0.1758 l -0.769512,0 c -0.205327,0 -0.367032,0.058 -0.484362,0.1758 -0.117331,0.1174 -0.175777,0.279 -0.175777,0.4843 l 0,1.9355 c 0,0.1466 -0.07404,0.2207 -0.220698,0.2207 l -2.90227,0 c -0.131997,0 -0.212849,-0.038 -0.242181,-0.1113 -0.02934,-0.073 -0.01571,-0.1522 0.04297,-0.2402 l 4.863157,-7.4139 c 0.102665,-0.176 0.138705,-0.3446 0.109373,-0.5059 -0.02933,-0.1614 -0.125774,-0.3025 -0.287102,-0.4199 l -0.636703,-0.373 c -0.16133,-0.1027 -0.329852,-0.1387 -0.505847,-0.1094 z m 11.753609,0.1094 c -0.601319,0 -1.165331,0.1101 -1.693317,0.3301 -0.527987,0.22 -0.997511,0.521 -1.408168,0.9023 -0.39599,0.3667 -0.710628,0.807 -0.945288,1.3203 -0.234661,0.4986 -0.353507,1.0334 -0.353507,1.6054 0,0.352 0.04481,0.6822 0.13281,0.9902 0.102661,0.308 0.226373,0.5934 0.373035,0.8574 0.16133,0.2493 0.331805,0.4763 0.507801,0.6816 0.190662,0.1907 0.379637,0.3524 0.570297,0.4844 0.07333,0.044 0.102558,0.1092 0.08789,0.1972 0,0.088 -0.02923,0.1484 -0.08789,0.1778 -0.219994,0.132 -0.438192,0.3073 -0.658186,0.5273 -0.219995,0.2054 -0.42651,0.4479 -0.617172,0.7265 -0.190663,0.2786 -0.343595,0.5933 -0.460926,0.9453 -0.11733,0.352 -0.177729,0.7339 -0.177729,1.1445 0,0.6454 0.118847,1.2453 0.353506,1.8027 0.249328,0.5426 0.586371,1.0191 1.011693,1.4297 0.425323,0.396 0.924072,0.7125 1.496056,0.9472 0.586652,0.22 1.20911,0.3301 1.869094,0.3301 0.659983,0 1.275623,-0.1101 1.84761,-0.3301 0.571984,-0.2347 1.070732,-0.5512 1.496056,-0.9472 0.425322,-0.4106 0.762365,-0.8871 1.011692,-1.4297 0.249327,-0.5574 0.374991,-1.1573 0.374991,-1.8027 0,-0.4252 -0.05845,-0.814 -0.175777,-1.1659 -0.11733,-0.352 -0.272217,-0.6686 -0.462879,-0.9473 -0.190661,-0.2786 -0.395224,-0.5192 -0.615219,-0.7246 -0.219994,-0.2053 -0.440144,-0.3738 -0.660139,-0.5058 -0.088,-0.059 -0.13281,-0.1259 -0.13281,-0.1992 0.01467,-0.073 0.05948,-0.1386 0.13281,-0.1973 0.175995,-0.1173 0.360104,-0.2634 0.550767,-0.4394 0.190662,-0.1906 0.359184,-0.4109 0.505845,-0.6602 0.16133,-0.2494 0.285041,-0.5279 0.373039,-0.8359 0.102663,-0.3226 0.154293,-0.6753 0.154293,-1.0566 0,-0.572 -0.116893,-1.1068 -0.351553,-1.6054 -0.234662,-0.5133 -0.558071,-0.9536 -0.968726,-1.3203 -0.395989,-0.3813 -0.865515,-0.6823 -1.408167,-0.9023 -0.527986,-0.22 -1.085181,-0.3301 -1.671832,-0.3301 z m 0,1.9804 c 0.307992,0 0.602176,0.052 0.880836,0.1543 0.27866,0.1026 0.519263,0.2488 0.724591,0.4394 0.219994,0.1907 0.390469,0.4246 0.5078,0.7032 0.131997,0.2639 0.19726,0.5581 0.19726,0.8808 0,0.308 -0.05845,0.6002 -0.175777,0.8789 -0.102663,0.2787 -0.25755,0.528 -0.462878,0.748 -0.190662,0.22 -0.431265,0.3973 -0.724591,0.5293 -0.278659,0.1173 -0.59525,0.1758 -0.947241,0.1758 -0.366658,0 -0.696884,-0.058 -0.99021,-0.1758 -0.278659,-0.132 -0.519263,-0.3093 -0.724591,-0.5293 -0.190661,-0.22 -0.338731,-0.4693 -0.441395,-0.748 -0.102666,-0.2787 -0.154293,-0.5709 -0.154293,-0.8789 0,-0.6453 0.228921,-1.1665 0.683576,-1.5625 0.454657,-0.4107 0.996263,-0.6152 1.626913,-0.6152 z m 0,6.2694 c 0.366656,0 0.712471,0.065 1.035129,0.1972 0.322659,0.132 0.601256,0.3162 0.835916,0.5508 0.249328,0.2347 0.440255,0.5132 0.572252,0.8359 0.131996,0.3227 0.197261,0.6753 0.197261,1.0566 0,0.352 -0.06527,0.6823 -0.197261,0.9902 -0.131997,0.308 -0.316107,0.5778 -0.550767,0.8125 -0.234661,0.22 -0.513258,0.3973 -0.835917,0.5293 -0.322658,0.132 -0.675289,0.1973 -1.056613,0.1973 -0.381324,0 -0.732003,-0.065 -1.054662,-0.1973 -0.307992,-0.132 -0.586589,-0.3093 -0.835915,-0.5293 -0.234661,-0.2347 -0.418772,-0.5045 -0.550768,-0.8125 -0.131997,-0.3079 -0.19726,-0.6382 -0.19726,-0.9902 0,-0.3813 0.06527,-0.7339 0.19726,-1.0566 0.131996,-0.3227 0.316107,-0.6012 0.550768,-0.8359 0.249325,-0.2346 0.527922,-0.4188 0.835915,-0.5508 0.322658,-0.132 0.673337,-0.1972 1.054662,-0.1972 z"
       id="path4226"
       inkscape:connector-curvature="0" />
    <path
       inkscape:connector-curvature="0"
       id="path4218"
       d="m 17.451339,1013.3622 c -0.938644,0 -1.738394,0.1684 -2.398377,0.5058 -0.659984,0.3226 -1.266854,0.7698 -1.824172,1.3418 -0.117331,0.132 -0.184548,0.2869 -0.199214,0.4629 -0.01467,0.1613 0.05255,0.3142 0.199214,0.4609 l 0.460925,0.5293 c 0.146662,0.1467 0.308367,0.2118 0.484363,0.1972 0.175995,-0.015 0.322111,-0.08 0.439442,-0.1972 0.337324,-0.3373 0.762038,-0.6383 1.275358,-0.9023 0.513319,-0.2786 1.034474,-0.418 1.562461,-0.418 0.366657,0 0.712472,0.058 1.035129,0.1758 0.322659,0.1026 0.601256,0.2644 0.835917,0.4843 0.249327,0.22 0.440255,0.4918 0.572251,0.8145 0.146663,0.3227 0.218744,0.6889 0.218744,1.0996 0,0.352 -0.05163,0.6822 -0.154293,0.9902 -0.102663,0.2934 -0.278003,0.6148 -0.52733,0.9667 -0.23466,0.3374 -0.549298,0.7192 -0.945289,1.1445 -0.39599,0.4253 -0.88792,0.9396 -1.474571,1.541 l -3.74014,3.7831 c -0.146663,0.1466 -0.249921,0.2636 -0.308585,0.3516 -0.044,0.088 -0.06445,0.2205 -0.06445,0.3965 l 0,0.791 c -10e-7,0.2053 0.05845,0.367 0.175777,0.4843 0.11733,0.1173 0.277081,0.1758 0.482409,0.1758 l 8.624782,0 c 0.205327,0 0.367031,-0.058 0.484362,-0.1758 0.11733,-0.1173 0.175777,-0.279 0.175777,-0.4843 l 0,-0.6582 c 0,-0.2053 -0.05845,-0.3671 -0.175777,-0.4844 -0.117331,-0.1174 -0.279035,-0.1758 -0.484362,-0.1758 l -5.675638,0 c -0.13199,0 -0.219661,-0.038 -0.263665,-0.1113 -0.04399,-0.073 -0.02355,-0.1542 0.06445,-0.2422 l 2.486265,-2.4843 c 0.63065,-0.6307 1.158621,-1.1967 1.583943,-1.6953 0.439989,-0.5133 0.792621,-0.9896 1.056615,-1.4296 0.27866,-0.4547 0.476404,-0.895 0.593735,-1.3203 0.11733,-0.4254 0.175776,-0.8792 0.175776,-1.3632 0,-0.6893 -0.123711,-1.3138 -0.373037,-1.8711 -0.234662,-0.5573 -0.571705,-1.0336 -1.011694,-1.4296 -0.425322,-0.396 -0.93284,-0.7038 -1.519492,-0.9238 -0.571986,-0.22 -1.187626,-0.3301 -1.847609,-0.3301 z m 13.009436,0 c -0.747983,0 -1.430839,0.1325 -2.046826,0.3965 -0.601317,0.2493 -1.122471,0.602 -1.56246,1.0566 -0.425321,0.44 -0.753595,0.9591 -0.988256,1.5605 -0.23466,0.6013 -0.353506,1.2481 -0.353506,1.9374 l 0,5.4999 c 0,0.6893 0.118847,1.3342 0.353506,1.9355 0.234662,0.6014 0.562936,1.1293 0.988256,1.5839 0.43999,0.44 0.961143,0.7927 1.56246,1.0567 0.615985,0.2492 1.298843,0.373 2.046825,0.373 0.74798,0 1.422067,-0.1238 2.023385,-0.373 0.615985,-0.264 1.137138,-0.6167 1.562461,-1.0567 0.439988,-0.4546 0.777032,-0.9825 1.011693,-1.5839 0.23466,-0.6013 0.351553,-1.2462 0.351553,-1.9355 l 0,-5.4999 c 0,-0.6893 -0.116892,-1.3361 -0.351553,-1.9374 -0.234661,-0.6014 -0.571705,-1.1205 -1.011693,-1.5605 -0.425323,-0.4546 -0.946476,-0.8073 -1.562461,-1.0566 -0.601318,-0.264 -1.275405,-0.3965 -2.023385,-0.3965 z m 0,1.9804 c 0.293326,0 0.565104,0.036 0.814432,0.1094 0.249327,0.073 0.476295,0.1697 0.681623,0.2871 0.11733,0.059 0.189412,0.1892 0.218743,0.3945 0.044,0.1907 0.01478,0.368 -0.08789,0.5293 l -3.761623,6.533 c -0.131997,0.22 -0.28493,0.3233 -0.460927,0.3086 -0.175995,-0.015 -0.265618,-0.2055 -0.265618,-0.5722 l 0,-4.5097 c 0,-0.4254 0.0604,-0.8209 0.177731,-1.1875 0.117331,-0.3814 0.292669,-0.7115 0.52733,-0.9902 0.249327,-0.2786 0.550329,-0.4988 0.90232,-0.6601 0.366658,-0.1614 0.784553,-0.2422 1.253876,-0.2422 z m 2.595637,3.2773 c 0.175995,0.015 0.263664,0.192 0.263664,0.5293 l 0,4.5526 c 0,0.4253 -0.05845,0.8296 -0.175777,1.2109 -0.11733,0.3667 -0.30144,0.6881 -0.550767,0.9668 -0.234661,0.2786 -0.53371,0.4988 -0.900368,0.6601 -0.351991,0.1614 -0.763069,0.2422 -1.232389,0.2422 -0.571988,0 -1.057098,-0.1101 -1.45309,-0.3301 -0.117329,-0.073 -0.204999,-0.2038 -0.263664,-0.3945 -0.05867,-0.1906 -2.19e-4,-0.4401 0.175777,-0.748 l 3.697172,-6.3807 c 0.131995,-0.2347 0.278112,-0.3379 0.439442,-0.3086 z m -14.394167,10.0329 c -0.175996,0.015 -0.315294,0.1024 -0.417957,0.2637 l -5.25768,8.2283 c -0.263993,0.4107 -0.396474,0.777 -0.396474,1.0996 l 0,0.9023 c 0,0.2053 0.05845,0.3651 0.175777,0.4824 0.11733,0.1173 0.279034,0.1777 0.484362,0.1777 l 4.970577,0 c 0.146663,0 0.220698,0.072 0.220698,0.2188 l 0,3.2558 c 0,0.2053 0.05845,0.367 0.175777,0.4843 0.117329,0.1173 0.279034,0.1758 0.484362,0.1758 l 0.769512,0 c 0.205328,0 0.367031,-0.058 0.484362,-0.1758 0.11733,-0.1173 0.175776,-0.279 0.175776,-0.4843 l 0,-3.2558 c 0,-0.1467 0.07404,-0.2188 0.220698,-0.2188 l 1.626912,0 c 0.205328,0 0.367032,-0.06 0.484362,-0.1777 0.11733,-0.1173 0.175777,-0.2771 0.175777,-0.4824 l 0,-0.6601 c 0,-0.2053 -0.05845,-0.367 -0.175777,-0.4844 -0.11733,-0.1173 -0.279034,-0.1758 -0.484362,-0.1758 l -1.626912,0 c -0.146663,0 -0.220698,-0.074 -0.220698,-0.2207 l 0,-1.9355 c 0,-0.2053 -0.05845,-0.3669 -0.175776,-0.4843 -0.117331,-0.1173 -0.279035,-0.1758 -0.484362,-0.1758 l -0.769512,0 c -0.205327,0 -0.367032,0.058 -0.484362,0.1758 -0.117331,0.1174 -0.175777,0.279 -0.175777,0.4843 l 0,1.9355 c 0,0.1466 -0.07404,0.2207 -0.220698,0.2207 l -2.90227,0 c -0.131997,0 -0.212849,-0.038 -0.242181,-0.1113 -0.02934,-0.073 -0.01571,-0.1522 0.04297,-0.2402 l 4.863157,-7.4139 c 0.102665,-0.176 0.138705,-0.3446 0.109373,-0.5059 -0.02933,-0.1614 -0.125774,-0.3025 -0.287102,-0.4199 l -0.636703,-0.373 c -0.16133,-0.1027 -0.329852,-0.1387 -0.505847,-0.1094 z m 11.753609,0.1094 c -0.601319,0 -1.165331,0.1101 -1.693317,0.3301 -0.527987,0.22 -0.997511,0.521 -1.408168,0.9023 -0.39599,0.3667 -0.710628,0.807 -0.945288,1.3203 -0.234661,0.4986 -0.353507,1.0334 -0.353507,1.6054 0,0.352 0.04481,0.6822 0.13281,0.9902 0.102661,0.308 0.226373,0.5934 0.373035,0.8574 0.16133,0.2493 0.331805,0.4763 0.507801,0.6816 0.190662,0.1907 0.379637,0.3524 0.570297,0.4844 0.07333,0.044 0.102558,0.1092 0.08789,0.1972 0,0.088 -0.02923,0.1484 -0.08789,0.1778 -0.219994,0.132 -0.438192,0.3073 -0.658186,0.5273 -0.219995,0.2054 -0.42651,0.4479 -0.617172,0.7265 -0.190663,0.2786 -0.343595,0.5933 -0.460926,0.9453 -0.11733,0.352 -0.177729,0.7339 -0.177729,1.1445 0,0.6454 0.118847,1.2453 0.353506,1.8027 0.249328,0.5426 0.586371,1.0191 1.011693,1.4297 0.425323,0.396 0.924072,0.7125 1.496056,0.9472 0.586652,0.22 1.20911,0.3301 1.869094,0.3301 0.659983,0 1.275623,-0.1101 1.84761,-0.3301 0.571984,-0.2347 1.070732,-0.5512 1.496056,-0.9472 0.425322,-0.4106 0.762365,-0.8871 1.011692,-1.4297 0.249327,-0.5574 0.374991,-1.1573 0.374991,-1.8027 0,-0.4252 -0.05845,-0.814 -0.175777,-1.1659 -0.11733,-0.352 -0.272217,-0.6686 -0.462879,-0.9473 -0.190661,-0.2786 -0.395224,-0.5192 -0.615219,-0.7246 -0.219994,-0.2053 -0.440144,-0.3738 -0.660139,-0.5058 -0.088,-0.059 -0.13281,-0.1259 -0.13281,-0.1992 0.01467,-0.073 0.05948,-0.1386 0.13281,-0.1973 0.175995,-0.1173 0.360104,-0.2634 0.550767,-0.4394 0.190662,-0.1906 0.359184,-0.4109 0.505845,-0.6602 0.16133,-0.2494 0.285041,-0.5279 0.373039,-0.8359 0.102663,-0.3226 0.154293,-0.6753 0.154293,-1.0566 0,-0.572 -0.116893,-1.1068 -0.351553,-1.6054 -0.234662,-0.5133 -0.558071,-0.9536 -0.968726,-1.3203 -0.395989,-0.3813 -0.865515,-0.6823 -1.408167,-0.9023 -0.527986,-0.22 -1.085181,-0.3301 -1.671832,-0.3301 z m 0,1.9804 c 0.307992,0 0.602176,0.052 0.880836,0.1543 0.27866,0.1026 0.519263,0.2488 0.724591,0.4394 0.219994,0.1907 0.390469,0.4246 0.5078,0.7032 0.131997,0.2639 0.19726,0.5581 0.19726,0.8808 0,0.308 -0.05845,0.6002 -0.175777,0.8789 -0.102663,0.2787 -0.25755,0.528 -0.462878,0.748 -0.190662,0.22 -0.431265,0.3973 -0.724591,0.5293 -0.278659,0.1173 -0.59525,0.1758 -0.947241,0.1758 -0.366658,0 -0.696884,-0.058 -0.99021,-0.1758 -0.278659,-0.132 -0.519263,-0.3093 -0.724591,-0.5293 -0.190661,-0.22 -0.338731,-0.4693 -0.441395,-0.748 -0.102666,-0.2787 -0.154293,-0.5709 -0.154293,-0.8789 0,-0.6453 0.228921,-1.1665 0.683576,-1.5625 0.454657,-0.4107 0.996263,-0.6152 1.626913,-0.6152 z m 0,6.2694 c 0.366656,0 0.712471,0.065 1.035129,0.1972 0.322659,0.132 0.601256,0.3162 0.835916,0.5508 0.249328,0.2347 0.440255,0.5132 0.572252,0.8359 0.131996,0.3227 0.197261,0.6753 0.197261,1.0566 0,0.352 -0.06527,0.6823 -0.197261,0.9902 -0.131997,0.308 -0.316107,0.5778 -0.550767,0.8125 -0.234661,0.22 -0.513258,0.3973 -0.835917,0.5293 -0.322658,0.132 -0.675289,0.1973 -1.056613,0.1973 -0.381324,0 -0.732003,-0.065 -1.054662,-0.1973 -0.307992,-0.132 -0.586589,-0.3093 -0.835915,-0.5293 -0.234661,-0.2347 -0.418772,-0.5045 -0.550768,-0.8125 -0.131997,-0.3079 -0.19726,-0.6382 -0.19726,-0.9902 0,-0.3813 0.06527,-0.7339 0.19726,-1.0566 0.131996,-0.3227 0.316107,-0.6012 0.550768,-0.8359 0.249325,-0.2346 0.527922,-0.4188 0.835915,-0.5508 0.322658,-0.132 0.673337,-0.1972 1.054662,-0.1972 z"
       style="font-style:normal;font-variant:normal;font-weight:normal;font-stretch:normal;font-size:medium;line-height:125%;font-family:SciFly;-inkscape-font-specification:SciFly;letter-spacing:0px;word-spacing:0px;fill:#000000;fill-opacity:0.23529412;stroke:none;stroke-width:1px;stroke-linecap:butt;stroke-linejoin:miter;stroke-opacity:1" />
    <path
       style="font-style:normal;font-variant:normal;font-weight:normal;font-stretch:normal;font-size:medium;line-height:125%;font-family:SciFly;-inkscape-font-specification:SciFly;letter-spacing:0px;word-spacing:0px;fill:url(#linearGradient4210);fill-opacity:1;stroke:none;stroke-width:1px;stroke-linecap:butt;stroke-linejoin:miter;stroke-opacity:1"
       d="m 17.451339,1012.9622 c -0.938644,0 -1.738394,0.1684 -2.398377,0.5058 -0.659984,0.3226 -1.266854,0.7698 -1.824172,1.3418 -0.117331,0.132 -0.184548,0.2869 -0.199214,0.4629 -0.01467,0.1613 0.05255,0.3142 0.199214,0.4609 l 0.460925,0.5293 c 0.146662,0.1467 0.308367,0.2118 0.484363,0.1972 0.175995,-0.015 0.322111,-0.08 0.439442,-0.1972 0.337324,-0.3373 0.762038,-0.6383 1.275358,-0.9023 0.513319,-0.2786 1.034474,-0.418 1.562461,-0.418 0.366657,0 0.712472,0.058 1.035129,0.1758 0.322659,0.1026 0.601256,0.2644 0.835917,0.4843 0.249327,0.22 0.440255,0.4918 0.572251,0.8145 0.146663,0.3227 0.218744,0.6889 0.218744,1.0996 0,0.352 -0.05163,0.6822 -0.154293,0.9902 -0.102663,0.2934 -0.278003,0.6148 -0.52733,0.9667 -0.23466,0.3374 -0.549298,0.7192 -0.945289,1.1445 -0.39599,0.4253 -0.88792,0.9396 -1.474571,1.541 l -3.74014,3.7831 c -0.146663,0.1466 -0.249921,0.2636 -0.308585,0.3516 -0.044,0.088 -0.06445,0.2205 -0.06445,0.3965 l 0,0.791 c -10e-7,0.2053 0.05845,0.367 0.175777,0.4843 0.11733,0.1173 0.277081,0.1758 0.482409,0.1758 l 8.624782,0 c 0.205327,0 0.367031,-0.058 0.484362,-0.1758 0.11733,-0.1173 0.175777,-0.279 0.175777,-0.4843 l 0,-0.6582 c 0,-0.2053 -0.05845,-0.3671 -0.175777,-0.4844 -0.117331,-0.1174 -0.279035,-0.1758 -0.484362,-0.1758 l -5.675638,0 c -0.13199,0 -0.219661,-0.038 -0.263665,-0.1113 -0.04399,-0.073 -0.02355,-0.1542 0.06445,-0.2422 l 2.486265,-2.4843 c 0.63065,-0.6307 1.158621,-1.1967 1.583943,-1.6953 0.439989,-0.5133 0.792621,-0.9896 1.056615,-1.4296 0.27866,-0.4547 0.476404,-0.895 0.593735,-1.3203 0.11733,-0.4254 0.175776,-0.8792 0.175776,-1.3632 0,-0.6893 -0.123711,-1.3138 -0.373037,-1.8711 -0.234662,-0.5573 -0.571705,-1.0336 -1.011694,-1.4296 -0.425322,-0.396 -0.93284,-0.7038 -1.519492,-0.9238 -0.571986,-0.22 -1.187626,-0.3301 -1.847609,-0.3301 z m 13.009436,0 c -0.747983,0 -1.430839,0.1325 -2.046826,0.3965 -0.601317,0.2493 -1.122471,0.602 -1.56246,1.0566 -0.425321,0.44 -0.753595,0.9591 -0.988256,1.5605 -0.23466,0.6013 -0.353506,1.2481 -0.353506,1.9374 l 0,5.4999 c 0,0.6893 0.118847,1.3342 0.353506,1.9355 0.234662,0.6014 0.562936,1.1293 0.988256,1.5839 0.43999,0.44 0.961143,0.7927 1.56246,1.0567 0.615985,0.2492 1.298843,0.373 2.046825,0.373 0.74798,0 1.422067,-0.1238 2.023385,-0.373 0.615985,-0.264 1.137138,-0.6167 1.562461,-1.0567 0.439988,-0.4546 0.777032,-0.9825 1.011693,-1.5839 0.23466,-0.6013 0.351553,-1.2462 0.351553,-1.9355 l 0,-5.4999 c 0,-0.6893 -0.116892,-1.3361 -0.351553,-1.9374 -0.234661,-0.6014 -0.571705,-1.1205 -1.011693,-1.5605 -0.425323,-0.4546 -0.946476,-0.8073 -1.562461,-1.0566 -0.601318,-0.264 -1.275405,-0.3965 -2.023385,-0.3965 z m 0,1.9804 c 0.293326,0 0.565104,0.036 0.814432,0.1094 0.249327,0.073 0.476295,0.1697 0.681623,0.2871 0.11733,0.059 0.189412,0.1892 0.218743,0.3945 0.044,0.1907 0.01478,0.368 -0.08789,0.5293 l -3.761623,6.533 c -0.131997,0.22 -0.28493,0.3233 -0.460927,0.3086 -0.175995,-0.015 -0.265618,-0.2055 -0.265618,-0.5722 l 0,-4.5097 c 0,-0.4254 0.0604,-0.8209 0.177731,-1.1875 0.117331,-0.3814 0.292669,-0.7115 0.52733,-0.9902 0.249327,-0.2786 0.550329,-0.4988 0.90232,-0.6601 0.366658,-0.1614 0.784553,-0.2422 1.253876,-0.2422 z m 2.595637,3.2773 c 0.175995,0.015 0.263664,0.192 0.263664,0.5293 l 0,4.5526 c 0,0.4253 -0.05845,0.8296 -0.175777,1.2109 -0.11733,0.3667 -0.30144,0.6881 -0.550767,0.9668 -0.234661,0.2786 -0.53371,0.4988 -0.900368,0.6601 -0.351991,0.1614 -0.763069,0.2422 -1.232389,0.2422 -0.571988,0 -1.057098,-0.1101 -1.45309,-0.3301 -0.117329,-0.073 -0.204999,-0.2038 -0.263664,-0.3945 -0.05867,-0.1906 -2.19e-4,-0.4401 0.175777,-0.748 l 3.697172,-6.3807 c 0.131995,-0.2347 0.278112,-0.3379 0.439442,-0.3086 z m -14.394167,10.0329 c -0.175996,0.015 -0.315294,0.1024 -0.417957,0.2637 l -5.25768,8.2283 c -0.263993,0.4107 -0.396474,0.777 -0.396474,1.0996 l 0,0.9023 c 0,0.2053 0.05845,0.3651 0.175777,0.4824 0.11733,0.1173 0.279034,0.1777 0.484362,0.1777 l 4.970577,0 c 0.146663,0 0.220698,0.072 0.220698,0.2188 l 0,3.2558 c 0,0.2053 0.05845,0.367 0.175777,0.4843 0.117329,0.1173 0.279034,0.1758 0.484362,0.1758 l 0.769512,0 c 0.205328,0 0.367031,-0.058 0.484362,-0.1758 0.11733,-0.1173 0.175776,-0.279 0.175776,-0.4843 l 0,-3.2558 c 0,-0.1467 0.07404,-0.2188 0.220698,-0.2188 l 1.626912,0 c 0.205328,0 0.367032,-0.06 0.484362,-0.1777 0.11733,-0.1173 0.175777,-0.2771 0.175777,-0.4824 l 0,-0.6601 c 0,-0.2053 -0.05845,-0.367 -0.175777,-0.4844 -0.11733,-0.1173 -0.279034,-0.1758 -0.484362,-0.1758 l -1.626912,0 c -0.146663,0 -0.220698,-0.074 -0.220698,-0.2207 l 0,-1.9355 c 0,-0.2053 -0.05845,-0.3669 -0.175776,-0.4843 -0.117331,-0.1173 -0.279035,-0.1758 -0.484362,-0.1758 l -0.769512,0 c -0.205327,0 -0.367032,0.058 -0.484362,0.1758 -0.117331,0.1174 -0.175777,0.279 -0.175777,0.4843 l 0,1.9355 c 0,0.1466 -0.07404,0.2207 -0.220698,0.2207 l -2.90227,0 c -0.131997,0 -0.212849,-0.038 -0.242181,-0.1113 -0.02934,-0.073 -0.01571,-0.1522 0.04297,-0.2402 l 4.863157,-7.4139 c 0.102665,-0.176 0.138705,-0.3446 0.109373,-0.5059 -0.02933,-0.1614 -0.125774,-0.3025 -0.287102,-0.4199 l -0.636703,-0.373 c -0.16133,-0.1027 -0.329852,-0.1387 -0.505847,-0.1094 z m 11.753609,0.1094 c -0.601319,0 -1.165331,0.1101 -1.693317,0.3301 -0.527987,0.22 -0.997511,0.521 -1.408168,0.9023 -0.39599,0.3667 -0.710628,0.807 -0.945288,1.3203 -0.234661,0.4986 -0.353507,1.0334 -0.353507,1.6054 0,0.352 0.04481,0.6822 0.13281,0.9902 0.102661,0.308 0.226373,0.5934 0.373035,0.8574 0.16133,0.2493 0.331805,0.4763 0.507801,0.6816 0.190662,0.1907 0.379637,0.3524 0.570297,0.4844 0.07333,0.044 0.102558,0.1092 0.08789,0.1972 0,0.088 -0.02923,0.1484 -0.08789,0.1778 -0.219994,0.132 -0.438192,0.3073 -0.658186,0.5273 -0.219995,0.2054 -0.42651,0.4479 -0.617172,0.7265 -0.190663,0.2786 -0.343595,0.5933 -0.460926,0.9453 -0.11733,0.352 -0.177729,0.7339 -0.177729,1.1445 0,0.6454 0.118847,1.2453 0.353506,1.8027 0.249328,0.5426 0.586371,1.0191 1.011693,1.4297 0.425323,0.396 0.924072,0.7125 1.496056,0.9472 0.586652,0.22 1.20911,0.3301 1.869094,0.3301 0.659983,0 1.275623,-0.1101 1.84761,-0.3301 0.571984,-0.2347 1.070732,-0.5512 1.496056,-0.9472 0.425322,-0.4106 0.762365,-0.8871 1.011692,-1.4297 0.249327,-0.5574 0.374991,-1.1573 0.374991,-1.8027 0,-0.4252 -0.05845,-0.814 -0.175777,-1.1659 -0.11733,-0.352 -0.272217,-0.6686 -0.462879,-0.9473 -0.190661,-0.2786 -0.395224,-0.5192 -0.615219,-0.7246 -0.219994,-0.2053 -0.440144,-0.3738 -0.660139,-0.5058 -0.088,-0.059 -0.13281,-0.1259 -0.13281,-0.1992 0.01467,-0.073 0.05948,-0.1386 0.13281,-0.1973 0.175995,-0.1173 0.360104,-0.2634 0.550767,-0.4394 0.190662,-0.1906 0.359184,-0.4109 0.505845,-0.6602 0.16133,-0.2494 0.285041,-0.5279 0.373039,-0.8359 0.102663,-0.3226 0.154293,-0.6753 0.154293,-1.0566 0,-0.572 -0.116893,-1.1068 -0.351553,-1.6054 -0.234662,-0.5133 -0.558071,-0.9536 -0.968726,-1.3203 -0.395989,-0.3813 -0.865515,-0.6823 -1.408167,-0.9023 -0.527986,-0.22 -1.085181,-0.3301 -1.671832,-0.3301 z m 0,1.9804 c 0.307992,0 0.602176,0.052 0.880836,0.1543 0.27866,0.1026 0.519263,0.2488 0.724591,0.4394 0.219994,0.1907 0.390469,0.4246 0.5078,0.7032 0.131997,0.2639 0.19726,0.5581 0.19726,0.8808 0,0.308 -0.05845,0.6002 -0.175777,0.8789 -0.102663,0.2787 -0.25755,0.528 -0.462878,0.748 -0.190662,0.22 -0.431265,0.3973 -0.724591,0.5293 -0.278659,0.1173 -0.59525,0.1758 -0.947241,0.1758 -0.366658,0 -0.696884,-0.058 -0.99021,-0.1758 -0.278659,-0.132 -0.519263,-0.3093 -0.724591,-0.5293 -0.190661,-0.22 -0.338731,-0.4693 -0.441395,-0.748 -0.102666,-0.2787 -0.154293,-0.5709 -0.154293,-0.8789 0,-0.6453 0.228921,-1.1665 0.683576,-1.5625 0.454657,-0.4107 0.996263,-0.6152 1.626913,-0.6152 z m 0,6.2694 c 0.366656,0 0.712471,0.065 1.035129,0.1972 0.322659,0.132 0.601256,0.3162 0.835916,0.5508 0.249328,0.2347 0.440255,0.5132 0.572252,0.8359 0.131996,0.3227 0.197261,0.6753 0.197261,1.0566 0,0.352 -0.06527,0.6823 -0.197261,0.9902 -0.131997,0.308 -0.316107,0.5778 -0.550767,0.8125 -0.234661,0.22 -0.513258,0.3973 -0.835917,0.5293 -0.322658,0.132 -0.675289,0.1973 -1.056613,0.1973 -0.381324,0 -0.732003,-0.065 -1.054662,-0.1973 -0.307992,-0.132 -0.586589,-0.3093 -0.835915,-0.5293 -0.234661,-0.2347 -0.418772,-0.5045 -0.550768,-0.8125 -0.131997,-0.3079 -0.19726,-0.6382 -0.19726,-0.9902 0,-0.3813 0.06527,-0.7339 0.19726,-1.0566 0.131996,-0.3227 0.316107,-0.6012 0.550768,-0.8359 0.249325,-0.2346 0.527922,-0.4188 0.835915,-0.5508 0.322658,-0.132 0.673337,-0.1972 1.054662,-0.1972 z"
       id="path4176"
       inkscape:connector-curvature="0" />
    <path
       style="font-style:normal;font-variant:normal;font-weight:normal;font-stretch:normal;font-size:medium;line-height:125%;font-family:SciFly;-inkscape-font-specification:SciFly;letter-spacing:0px;word-spacing:0px;fill:#ffb100;fill-opacity:0.3137255;stroke:none;stroke-width:1px;stroke-linecap:butt;stroke-linejoin:miter;stroke-opacity:1"
       d="M 17.451172 9.78125 C 16.923185 9.78125 16.401991 9.9206188 15.888672 10.199219 C 15.375352 10.463219 14.950605 10.764262 14.613281 11.101562 C 14.49595 11.218762 14.349823 11.283828 14.173828 11.298828 C 13.997832 11.313428 13.836115 11.248263 13.689453 11.101562 L 13.228516 10.572266 C 13.208893 10.552638 13.20232 10.531574 13.185547 10.511719 C 13.098914 10.629578 13.041742 10.760811 13.029297 10.910156 C 13.014627 11.071456 13.081852 11.224394 13.228516 11.371094 L 13.689453 11.900391 C 13.836115 12.047091 13.997832 12.112256 14.173828 12.097656 C 14.349823 12.082656 14.49595 12.017591 14.613281 11.900391 C 14.950605 11.563091 15.375352 11.262047 15.888672 10.998047 C 16.401991 10.719447 16.923185 10.580078 17.451172 10.580078 C 17.817829 10.580078 18.163671 10.638059 18.486328 10.755859 C 18.808987 10.858459 19.087605 11.020334 19.322266 11.240234 C 19.571593 11.460234 19.762535 11.731988 19.894531 12.054688 C 19.995922 12.277777 20.04915 12.529923 20.080078 12.794922 C 20.099212 12.651341 20.113281 12.50718 20.113281 12.355469 C 20.113281 11.944769 20.041194 11.578559 19.894531 11.255859 C 19.762535 10.933159 19.571593 10.661406 19.322266 10.441406 C 19.087605 10.221506 18.808987 10.059631 18.486328 9.9570312 C 18.163671 9.8392313 17.817829 9.78125 17.451172 9.78125 z M 30.460938 9.78125 C 29.991614 9.78125 29.573689 9.8620375 29.207031 10.023438 C 28.85504 10.184738 28.554015 10.404994 28.304688 10.683594 C 28.070027 10.962294 27.894675 11.292428 27.777344 11.673828 C 27.660013 12.040428 27.599609 12.435928 27.599609 12.861328 L 27.599609 13.660156 C 27.599609 13.234756 27.660013 12.839256 27.777344 12.472656 C 27.894675 12.091256 28.070027 11.761122 28.304688 11.482422 C 28.554015 11.203822 28.85504 10.983566 29.207031 10.822266 C 29.573689 10.660866 29.991614 10.580078 30.460938 10.580078 C 30.754264 10.580078 31.026063 10.616053 31.275391 10.689453 C 31.524718 10.762453 31.751703 10.859163 31.957031 10.976562 C 32.010071 11.003234 32.05116 11.049337 32.085938 11.105469 L 32.087891 11.101562 C 32.190561 10.940263 32.219781 10.762966 32.175781 10.572266 C 32.14645 10.366966 32.074361 10.236734 31.957031 10.177734 C 31.751703 10.060334 31.524718 9.963625 31.275391 9.890625 C 31.026063 9.817225 30.754264 9.78125 30.460938 9.78125 z M 22.173828 12.841797 C 22.14735 13.144899 22.104099 13.44046 22.027344 13.71875 C 21.910013 14.14405 21.712254 14.584362 21.433594 15.039062 C 21.1696 15.479063 20.816942 15.953497 20.376953 16.466797 C 19.951631 16.965397 19.423619 17.531409 18.792969 18.162109 L 16.306641 20.646484 C 16.218641 20.734484 16.198197 20.815672 16.242188 20.888672 C 16.286192 20.961972 16.373869 21 16.505859 21 L 16.753906 21 L 18.792969 18.962891 C 19.423619 18.332191 19.951631 17.766178 20.376953 17.267578 C 20.816942 16.754278 21.1696 16.277891 21.433594 15.837891 C 21.712254 15.383191 21.910013 14.942878 22.027344 14.517578 C 22.144674 14.092178 22.203125 13.638297 22.203125 13.154297 C 22.203125 13.0449 22.180068 12.94792 22.173828 12.841797 z M 33.056641 13.058594 C 32.895311 13.029294 32.749183 13.132488 32.617188 13.367188 L 28.919922 19.746094 C 28.743926 20.053994 28.685471 20.303541 28.744141 20.494141 C 28.771546 20.583227 28.805571 20.657547 28.845703 20.720703 C 28.872176 20.661609 28.883241 20.611047 28.919922 20.546875 L 32.617188 14.166016 C 32.749183 13.931316 32.895311 13.828122 33.056641 13.857422 C 33.232636 13.872422 33.320313 14.049419 33.320312 14.386719 L 33.320312 13.587891 C 33.320313 13.250591 33.232636 13.073594 33.056641 13.058594 z M 25.509766 18.25 L 25.509766 19.050781 C 25.509766 19.740081 25.628622 20.385028 25.863281 20.986328 C 26.097943 21.587728 26.426242 22.115712 26.851562 22.570312 C 27.291553 23.010313 27.812746 23.362953 28.414062 23.626953 C 28.437552 23.636456 28.462645 23.643206 28.486328 23.652344 C 28.566763 23.613579 28.639306 23.564027 28.722656 23.529297 C 29.250642 23.309297 29.814697 23.199219 30.416016 23.199219 C 31.002667 23.199219 31.559905 23.309297 32.087891 23.529297 C 32.185546 23.568888 32.268412 23.625088 32.361328 23.669922 C 32.401711 23.654545 32.444629 23.643425 32.484375 23.626953 C 33.10036 23.362953 33.621552 23.010313 34.046875 22.570312 C 34.486863 22.115712 34.823933 21.587728 35.058594 20.986328 C 35.293254 20.385028 35.410156 19.740081 35.410156 19.050781 L 35.410156 18.25 C 35.410156 18.9393 35.293254 19.584247 35.058594 20.185547 C 34.823933 20.786947 34.486863 21.314931 34.046875 21.769531 C 33.621552 22.209531 33.10036 22.562172 32.484375 22.826172 C 31.883057 23.075372 31.208917 23.199219 30.460938 23.199219 C 29.712955 23.199219 29.030047 23.075372 28.414062 22.826172 C 27.812746 22.562172 27.291553 22.209531 26.851562 21.769531 C 26.426242 21.314931 26.097943 20.786947 25.863281 20.185547 C 25.628622 19.584247 25.509766 18.9393 25.509766 18.25 z M 12.898438 22.322266 C 12.898429 22.324782 12.898438 22.325591 12.898438 22.328125 L 12.898438 23.119141 C 12.898437 23.324441 12.956892 23.486216 13.074219 23.603516 C 13.191549 23.720816 13.351313 23.779297 13.556641 23.779297 L 17.972656 23.779297 L 18.244141 23.353516 C 18.346804 23.192216 18.486113 23.104844 18.662109 23.089844 C 18.838104 23.060544 19.006639 23.096519 19.167969 23.199219 L 19.804688 23.572266 C 19.890245 23.634526 19.955179 23.704212 20.003906 23.779297 L 22.181641 23.779297 C 22.386968 23.779297 22.548685 23.721316 22.666016 23.603516 C 22.783346 23.486216 22.841797 23.324441 22.841797 23.119141 L 22.841797 22.460938 C 22.841797 22.434687 22.83199 22.415451 22.830078 22.390625 C 22.816736 22.559003 22.767937 22.700839 22.666016 22.802734 C 22.548685 22.920534 22.386968 22.978516 22.181641 22.978516 L 13.556641 22.978516 C 13.351313 22.978516 13.191549 22.920034 13.074219 22.802734 C 12.957702 22.686245 12.899239 22.525549 12.898438 22.322266 z M 19.960938 24.529297 L 15.119141 31.912109 C 15.060461 32.000109 15.046832 32.079344 15.076172 32.152344 C 15.105504 32.225644 15.186362 32.263672 15.318359 32.263672 L 15.414062 32.263672 L 19.982422 25.298828 C 20.085087 25.122828 20.121129 24.954269 20.091797 24.792969 C 20.074317 24.696781 20.025618 24.610345 19.960938 24.529297 z M 30.416016 25.179688 C 29.785366 25.179688 29.24372 25.384222 28.789062 25.794922 C 28.334407 26.190922 28.105469 26.712122 28.105469 27.357422 C 28.105469 27.499397 28.118743 27.637952 28.140625 27.773438 C 28.216112 27.303799 28.429272 26.909077 28.789062 26.595703 C 29.24372 26.185003 29.785366 25.980469 30.416016 25.980469 C 30.724008 25.980469 31.018215 26.032466 31.296875 26.134766 C 31.575535 26.237366 31.816156 26.383619 32.021484 26.574219 C 32.241478 26.764919 32.411966 26.998744 32.529297 27.277344 C 32.605877 27.43045 32.653604 27.596379 32.685547 27.769531 C 32.709971 27.635237 32.726562 27.498088 32.726562 27.357422 C 32.726562 27.034722 32.661294 26.740462 32.529297 26.476562 C 32.411966 26.197963 32.241478 25.964138 32.021484 25.773438 C 31.816156 25.582838 31.575535 25.436584 31.296875 25.333984 C 31.018215 25.231684 30.724008 25.179688 30.416016 25.179688 z M 34.783203 27.837891 C 34.757874 28.038673 34.72 28.232153 34.662109 28.414062 C 34.574111 28.722062 34.450392 29.0006 34.289062 29.25 C 34.142401 29.4993 33.973865 29.719556 33.783203 29.910156 C 33.59254 30.086156 33.408417 30.232309 33.232422 30.349609 C 33.159092 30.408309 33.114279 30.473875 33.099609 30.546875 C 33.099609 30.620175 33.144422 30.687094 33.232422 30.746094 C 33.318291 30.797616 33.404337 30.880698 33.490234 30.943359 C 33.587501 30.86663 33.682011 30.804347 33.783203 30.710938 C 33.973865 30.520338 34.142401 30.300081 34.289062 30.050781 C 34.450392 29.801381 34.574111 29.522844 34.662109 29.214844 C 34.764772 28.892244 34.816406 28.539503 34.816406 28.158203 C 34.816406 28.047866 34.791908 27.945466 34.783203 27.837891 z M 26.046875 27.853516 C 26.038893 27.95596 26.015625 28.053261 26.015625 28.158203 C 26.015625 28.510203 26.060437 28.840438 26.148438 29.148438 C 26.251099 29.456437 26.374822 29.741859 26.521484 30.005859 C 26.682814 30.255159 26.853301 30.4822 27.029297 30.6875 C 27.127813 30.786036 27.226138 30.854546 27.324219 30.9375 C 27.41549 30.867391 27.507974 30.801076 27.599609 30.746094 C 27.658269 30.716694 27.6875 30.656359 27.6875 30.568359 C 27.702168 30.480359 27.672939 30.415094 27.599609 30.371094 C 27.408949 30.239094 27.219959 30.077419 27.029297 29.886719 C 26.853301 29.681419 26.682814 29.454378 26.521484 29.205078 C 26.374822 28.941078 26.251099 28.655656 26.148438 28.347656 C 26.103089 28.188936 26.069063 28.023972 26.046875 27.853516 z M 30.416016 31.449219 C 30.034691 31.449219 29.683986 31.514484 29.361328 31.646484 C 29.053335 31.778484 28.774716 31.962666 28.525391 32.197266 C 28.29073 32.431966 28.106605 32.710503 27.974609 33.033203 C 27.842619 33.355903 27.777344 33.708544 27.777344 34.089844 C 27.777344 34.222192 27.795923 34.348433 27.814453 34.474609 C 27.845264 34.250916 27.892469 34.034808 27.974609 33.833984 C 28.106605 33.511284 28.29073 33.232747 28.525391 32.998047 C 28.774716 32.763447 29.053335 32.579266 29.361328 32.447266 C 29.683986 32.315266 30.034691 32.25 30.416016 32.25 C 30.782672 32.25 31.128514 32.315066 31.451172 32.447266 C 31.773831 32.579266 32.052449 32.763447 32.287109 32.998047 C 32.536437 33.232747 32.727378 33.511284 32.859375 33.833984 C 32.941519 34.034808 32.988722 34.250916 33.019531 34.474609 C 33.038063 34.348433 33.056641 34.222192 33.056641 34.089844 C 33.056641 33.708544 32.991371 33.355903 32.859375 33.033203 C 32.727378 32.710503 32.536437 32.431966 32.287109 32.197266 C 32.052449 31.962666 31.773831 31.778484 31.451172 31.646484 C 31.128514 31.514284 30.782672 31.449219 30.416016 31.449219 z M 12.589844 33.583984 L 12.589844 34.384766 C 12.589844 34.590066 12.648298 34.749887 12.765625 34.867188 C 12.882955 34.984487 13.044672 35.044922 13.25 35.044922 L 18.220703 35.044922 C 18.367366 35.044922 18.441406 35.116872 18.441406 35.263672 L 18.441406 34.462891 C 18.441406 34.316091 18.367366 34.244141 18.220703 34.244141 L 13.25 34.244141 C 13.044672 34.244141 12.882955 34.183706 12.765625 34.066406 C 12.648298 33.949106 12.589844 33.789284 12.589844 33.583984 z M 23.027344 33.654297 C 23.014302 33.823241 22.965609 33.964105 22.863281 34.066406 C 22.745951 34.184106 22.584234 34.244141 22.378906 34.244141 L 20.751953 34.244141 C 20.605295 34.244141 20.53125 34.316191 20.53125 34.462891 L 20.53125 35.263672 C 20.53125 35.116972 20.605295 35.044922 20.751953 35.044922 L 22.378906 35.044922 C 22.584234 35.044922 22.745951 34.984888 22.863281 34.867188 C 22.980611 34.749888 23.039062 34.590066 23.039062 34.384766 L 23.039062 33.724609 C 23.039062 33.698358 23.029256 33.679121 23.027344 33.654297 z M 35.113281 34.427734 C 35.07615 34.943224 34.975795 35.435817 34.771484 35.892578 C 34.522157 36.435178 34.185088 36.911666 33.759766 37.322266 C 33.334442 37.718266 32.835656 38.034831 32.263672 38.269531 C 31.691685 38.489531 31.075999 38.599609 30.416016 38.599609 C 29.756032 38.599609 29.133527 38.489531 28.546875 38.269531 C 27.974891 38.034831 27.476104 37.718266 27.050781 37.322266 C 26.625459 36.911666 26.28839 36.435178 26.039062 35.892578 C 25.849224 35.441644 25.755389 34.955419 25.71875 34.447266 C 25.702094 34.592494 25.685547 34.737334 25.685547 34.890625 C 25.685547 35.536025 25.804404 36.135959 26.039062 36.693359 C 26.28839 37.235959 26.625459 37.712447 27.050781 38.123047 C 27.476104 38.519047 27.974891 38.835613 28.546875 39.070312 C 29.133527 39.290313 29.756032 39.400391 30.416016 39.400391 C 31.075999 39.400391 31.691685 39.290312 32.263672 39.070312 C 32.835656 38.835613 33.334442 38.519047 33.759766 38.123047 C 34.185088 37.712447 34.522157 37.235959 34.771484 36.693359 C 35.020811 36.135959 35.146484 35.536025 35.146484 34.890625 C 35.146484 34.729667 35.130056 34.578233 35.113281 34.427734 z M 18.441406 37.71875 L 18.441406 38.519531 C 18.441406 38.724831 18.499861 38.886606 18.617188 39.003906 C 18.734517 39.121206 18.896234 39.179688 19.101562 39.179688 L 19.871094 39.179688 C 20.076422 39.179688 20.238138 39.121706 20.355469 39.003906 C 20.472799 38.886606 20.53125 38.724831 20.53125 38.519531 L 20.53125 37.71875 C 20.53125 37.92405 20.472799 38.085825 20.355469 38.203125 C 20.238138 38.320925 20.076422 38.378906 19.871094 38.378906 L 19.101562 38.378906 C 18.896234 38.378906 18.734517 38.320425 18.617188 38.203125 C 18.499861 38.085825 18.441406 37.92405 18.441406 37.71875 z "
       transform="translate(0,1004.3622)"
       id="path4230" />
    <path
       style="font-style:normal;font-variant:normal;font-weight:normal;font-stretch:normal;font-size:medium;line-height:125%;font-family:SciFly;-inkscape-font-specification:SciFly;letter-spacing:0px;word-spacing:0px;fill:#ffffff;fill-opacity:0.23529412;stroke:none;stroke-width:1px;stroke-linecap:butt;stroke-linejoin:miter;stroke-opacity:1"
       d="M 17.451172 8.5996094 C 16.512528 8.5996094 15.712717 8.7680687 15.052734 9.1054688 C 14.39275 9.4280687 13.785834 9.8752656 13.228516 10.447266 C 13.111185 10.579266 13.043963 10.734156 13.029297 10.910156 C 13.021962 10.990806 13.035055 11.069759 13.068359 11.146484 C 13.101251 11.038074 13.149933 10.936063 13.228516 10.847656 C 13.785834 10.275656 14.39275 9.8284594 15.052734 9.5058594 C 15.712717 9.1684594 16.512528 9 17.451172 9 C 18.111155 9 18.726842 9.1100781 19.298828 9.3300781 C 19.88548 9.5500781 20.393037 9.8579063 20.818359 10.253906 C 21.258348 10.649906 21.595416 11.126294 21.830078 11.683594 C 22.059607 12.196644 22.169403 12.773356 22.1875 13.398438 C 22.191027 13.316207 22.203125 13.238339 22.203125 13.154297 C 22.203125 12.464997 22.079404 11.840503 21.830078 11.283203 C 21.595416 10.725903 21.258348 10.249516 20.818359 9.8535156 C 20.393037 9.4575156 19.88548 9.1496875 19.298828 8.9296875 C 18.726842 8.7096875 18.111155 8.5996094 17.451172 8.5996094 z M 30.460938 8.5996094 C 29.712954 8.5996094 29.03005 8.7320938 28.414062 8.9960938 C 27.812745 9.2453937 27.291552 9.5981344 26.851562 10.052734 C 26.426241 10.492734 26.097942 11.011881 25.863281 11.613281 C 25.628621 12.214581 25.509766 12.861481 25.509766 13.550781 L 25.509766 13.951172 C 25.509766 13.261872 25.628621 12.614972 25.863281 12.013672 C 26.097942 11.412272 26.426241 10.893125 26.851562 10.453125 C 27.291552 9.998525 27.812745 9.6457844 28.414062 9.3964844 C 29.03005 9.1324844 29.712954 9 30.460938 9 C 31.208917 9 31.883057 9.1324844 32.484375 9.3964844 C 33.10036 9.6457844 33.621552 9.998525 34.046875 10.453125 C 34.486863 10.893125 34.823933 11.412272 35.058594 12.013672 C 35.293255 12.614972 35.410156 13.261872 35.410156 13.951172 L 35.410156 13.550781 C 35.410156 12.861481 35.293255 12.214581 35.058594 11.613281 C 34.823933 11.011881 34.486863 10.492734 34.046875 10.052734 C 33.621552 9.5981344 33.10036 9.2453937 32.484375 8.9960938 C 31.883057 8.7320937 31.208917 8.5996094 30.460938 8.5996094 z M 32.160156 11.716797 C 32.142228 11.779202 32.125026 11.842049 32.087891 11.900391 L 28.326172 18.433594 C 28.194175 18.653594 28.041231 18.756888 27.865234 18.742188 C 27.689239 18.727188 27.599609 18.536622 27.599609 18.169922 L 27.599609 18.570312 C 27.599609 18.937012 27.689239 19.127578 27.865234 19.142578 C 28.041231 19.157278 28.194175 19.053984 28.326172 18.833984 L 32.087891 12.300781 C 32.190561 12.139481 32.219781 11.962184 32.175781 11.771484 C 32.172613 11.749306 32.164326 11.737227 32.160156 11.716797 z M 20.095703 13.375 C 20.078256 13.643682 20.039503 13.902968 19.958984 14.144531 C 19.856321 14.437931 19.680968 14.759428 19.431641 15.111328 C 19.196981 15.448728 18.882319 15.830559 18.486328 16.255859 C 18.090338 16.681159 17.59837 17.195475 17.011719 17.796875 L 13.271484 21.580078 C 13.124821 21.726678 13.021555 21.843641 12.962891 21.931641 C 12.918891 22.019641 12.898438 22.152125 12.898438 22.328125 L 12.898438 22.728516 C 12.898438 22.552516 12.918891 22.420031 12.962891 22.332031 C 13.021555 22.244031 13.124821 22.127069 13.271484 21.980469 L 17.011719 18.197266 C 17.59837 17.595866 18.090338 17.08155 18.486328 16.65625 C 18.882319 16.23095 19.196981 15.849119 19.431641 15.511719 C 19.680968 15.159819 19.856321 14.838322 19.958984 14.544922 C 20.061647 14.236922 20.113281 13.906687 20.113281 13.554688 C 20.113281 13.491268 20.09915 13.436301 20.095703 13.375 z M 33.320312 18.939453 C 33.320312 19.364753 33.261858 19.769091 33.144531 20.150391 C 33.027201 20.517091 32.843077 20.838488 32.59375 21.117188 C 32.359089 21.395788 32.060017 21.616044 31.693359 21.777344 C 31.341368 21.938744 30.930257 22.019531 30.460938 22.019531 C 29.888949 22.019531 29.403805 21.909453 29.007812 21.689453 C 28.898583 21.621493 28.818112 21.49797 28.759766 21.328125 C 28.722214 21.46672 28.712201 21.59155 28.744141 21.695312 C 28.802806 21.886013 28.890483 22.016844 29.007812 22.089844 C 29.403805 22.309844 29.888949 22.419922 30.460938 22.419922 C 30.930257 22.419922 31.341368 22.339134 31.693359 22.177734 C 32.060017 22.016434 32.359089 21.796178 32.59375 21.517578 C 32.843077 21.238878 33.027201 20.917481 33.144531 20.550781 C 33.261858 20.169481 33.320312 19.765144 33.320312 19.339844 L 33.320312 18.939453 z M 16.375 21.779297 L 16.306641 21.847656 C 16.218641 21.935656 16.198197 22.016844 16.242188 22.089844 C 16.286192 22.163144 16.373869 22.201172 16.505859 22.201172 L 22.181641 22.201172 C 22.386968 22.201172 22.548685 22.259553 22.666016 22.376953 C 22.783343 22.494253 22.841797 22.656028 22.841797 22.861328 L 22.841797 22.460938 C 22.841797 22.255637 22.783343 22.093863 22.666016 21.976562 C 22.548685 21.859162 22.386968 21.800781 22.181641 21.800781 L 16.505859 21.800781 C 16.453242 21.800781 16.413573 21.791204 16.375 21.779297 z M 18.228516 24.179688 L 12.986328 32.382812 C 12.722335 32.793512 12.589844 33.159822 12.589844 33.482422 L 12.589844 33.882812 C 12.589844 33.560213 12.722335 33.193903 12.986328 32.783203 L 18.244141 24.554688 C 18.346804 24.393388 18.486113 24.306016 18.662109 24.291016 C 18.838104 24.261716 19.006639 24.297691 19.167969 24.400391 L 19.804688 24.773438 C 19.936903 24.869652 20.014765 24.985149 20.058594 25.111328 C 20.093114 25.002852 20.110445 24.895518 20.091797 24.792969 C 20.062467 24.631569 19.966015 24.490447 19.804688 24.373047 L 19.474609 24.179688 L 18.228516 24.179688 z M 29.056641 24.228516 C 28.945859 24.264262 28.830425 24.285173 28.722656 24.330078 C 28.194669 24.550078 27.72511 24.851122 27.314453 25.232422 C 26.918463 25.599122 26.603801 26.039434 26.369141 26.552734 C 26.13448 27.051334 26.015625 27.586203 26.015625 28.158203 C 26.015625 28.243506 26.02601 28.323514 26.03125 28.40625 C 26.051031 27.892912 26.156006 27.405987 26.369141 26.953125 C 26.603801 26.439825 26.918463 25.999513 27.314453 25.632812 C 27.72511 25.251512 28.194669 24.950469 28.722656 24.730469 C 29.250642 24.510469 29.814697 24.400391 30.416016 24.400391 C 31.002667 24.400391 31.559905 24.510469 32.087891 24.730469 C 32.630543 24.950469 33.100105 25.251512 33.496094 25.632812 C 33.906749 25.999513 34.230182 26.439825 34.464844 26.953125 C 34.676857 27.403605 34.778436 27.88812 34.798828 28.398438 C 34.803735 28.318005 34.816406 28.241372 34.816406 28.158203 C 34.816406 27.586203 34.699504 27.051334 34.464844 26.552734 C 34.230182 26.039434 33.906749 25.599122 33.496094 25.232422 C 33.100105 24.851122 32.630543 24.550078 32.087891 24.330078 C 31.994208 24.291043 31.894351 24.274302 31.798828 24.242188 C 31.38155 24.343348 30.938056 24.400391 30.460938 24.400391 C 29.962744 24.400391 29.496536 24.338829 29.056641 24.228516 z M 32.705078 28.363281 C 32.684524 28.595786 32.641429 28.821783 32.550781 29.037109 C 32.448118 29.315809 32.293219 29.565156 32.087891 29.785156 C 31.897229 30.005156 31.656607 30.182453 31.363281 30.314453 C 31.084622 30.431753 30.768007 30.490234 30.416016 30.490234 C 30.049358 30.490234 29.719107 30.432253 29.425781 30.314453 C 29.147122 30.182453 28.9065 30.005156 28.701172 29.785156 C 28.510511 29.565156 28.36243 29.315809 28.259766 29.037109 C 28.180652 28.822344 28.141276 28.597085 28.123047 28.365234 C 28.118017 28.430165 28.105469 28.490934 28.105469 28.558594 C 28.105469 28.866594 28.1571 29.1588 28.259766 29.4375 C 28.36243 29.7162 28.510511 29.965547 28.701172 30.185547 C 28.9065 30.405547 29.147122 30.582844 29.425781 30.714844 C 29.719107 30.832644 30.049358 30.890625 30.416016 30.890625 C 30.768007 30.890625 31.084622 30.832144 31.363281 30.714844 C 31.656607 30.582844 31.897229 30.405547 32.087891 30.185547 C 32.293219 29.965547 32.448118 29.7162 32.550781 29.4375 C 32.668108 29.1588 32.726562 28.866594 32.726562 28.558594 C 32.726562 28.490482 32.710907 28.428837 32.705078 28.363281 z M 19.101562 30.248047 C 18.896235 30.248047 18.734518 30.306028 18.617188 30.423828 C 18.499856 30.541228 18.441406 30.702903 18.441406 30.908203 L 18.441406 31.308594 C 18.441406 31.103294 18.499856 30.941619 18.617188 30.824219 C 18.734518 30.706419 18.896235 30.648438 19.101562 30.648438 L 19.871094 30.648438 C 20.076421 30.648438 20.238138 30.706919 20.355469 30.824219 C 20.472795 30.941619 20.53125 31.103294 20.53125 31.308594 L 20.53125 30.908203 C 20.53125 30.702903 20.472795 30.541228 20.355469 30.423828 C 20.238138 30.306528 20.076421 30.248047 19.871094 30.248047 L 19.101562 30.248047 z M 33.234375 31.548828 C 33.233689 31.549286 33.233107 31.550324 33.232422 31.550781 C 33.159092 31.609481 33.114279 31.675047 33.099609 31.748047 C 33.099609 31.821347 33.144422 31.888266 33.232422 31.947266 C 33.452417 32.079266 33.672584 32.247825 33.892578 32.453125 C 34.112573 32.658525 34.317152 32.899134 34.507812 33.177734 C 34.698475 33.456434 34.853373 33.773 34.970703 34.125 C 35.06591 34.410554 35.111009 34.726665 35.128906 35.060547 C 35.130987 35.002547 35.146484 34.949377 35.146484 34.890625 C 35.146484 34.465425 35.08803 34.076509 34.970703 33.724609 C 34.853373 33.372609 34.698475 33.056044 34.507812 32.777344 C 34.317152 32.498744 34.112573 32.258134 33.892578 32.052734 C 33.673308 31.84811 33.453647 31.680633 33.234375 31.548828 z M 27.583984 31.558594 C 27.369407 31.689443 27.156067 31.859552 26.941406 32.074219 C 26.721411 32.279619 26.514881 32.522181 26.324219 32.800781 C 26.133556 33.079381 25.980612 33.394094 25.863281 33.746094 C 25.745951 34.098094 25.685547 34.480025 25.685547 34.890625 C 25.685547 34.952087 25.700972 35.00772 25.703125 35.068359 C 25.721387 34.743273 25.767884 34.432683 25.863281 34.146484 C 25.980612 33.794484 26.133556 33.479772 26.324219 33.201172 C 26.514881 32.922572 26.721411 32.680009 26.941406 32.474609 C 27.1614 32.254609 27.379615 32.079266 27.599609 31.947266 C 27.658269 31.917866 27.6875 31.857531 27.6875 31.769531 C 27.702168 31.681531 27.672939 31.616266 27.599609 31.572266 C 27.59432 31.568603 27.589272 31.562302 27.583984 31.558594 z M 18.441406 32.84375 C 18.441406 32.99035 18.367361 33.064453 18.220703 33.064453 L 15.318359 33.064453 C 15.257176 33.064453 15.209091 33.053169 15.169922 33.037109 L 15.119141 33.113281 C 15.060461 33.201281 15.046832 33.280516 15.076172 33.353516 C 15.105504 33.426816 15.186362 33.464844 15.318359 33.464844 L 18.220703 33.464844 C 18.367361 33.464844 18.441406 33.390741 18.441406 33.244141 L 18.441406 32.84375 z M 20.53125 32.84375 L 20.53125 33.244141 C 20.53125 33.390841 20.60529 33.464844 20.751953 33.464844 L 22.378906 33.464844 C 22.584234 33.464844 22.745951 33.523325 22.863281 33.640625 C 22.980608 33.758025 23.039062 33.9197 23.039062 34.125 L 23.039062 33.724609 C 23.039062 33.519309 22.980608 33.357634 22.863281 33.240234 C 22.745951 33.122934 22.584234 33.064453 22.378906 33.064453 L 20.751953 33.064453 C 20.60529 33.064453 20.53125 32.99045 20.53125 32.84375 z M 27.794922 35.083984 C 27.790304 35.153589 27.777344 35.219376 27.777344 35.291016 C 27.777344 35.643016 27.842612 35.97335 27.974609 36.28125 C 28.106605 36.58925 28.29073 36.85905 28.525391 37.09375 C 28.774717 37.31375 29.053336 37.491047 29.361328 37.623047 C 29.683987 37.755347 30.034692 37.820312 30.416016 37.820312 C 30.79734 37.820312 31.149998 37.755047 31.472656 37.623047 C 31.795315 37.491047 32.073933 37.31375 32.308594 37.09375 C 32.543254 36.85905 32.727378 36.58925 32.859375 36.28125 C 32.991366 35.97335 33.056641 35.643016 33.056641 35.291016 C 33.056641 35.219376 33.04368 35.153589 33.039062 35.083984 C 33.019024 35.36284 32.966439 35.631107 32.859375 35.880859 C 32.727378 36.188859 32.543254 36.458659 32.308594 36.693359 C 32.073933 36.913359 31.795315 37.090656 31.472656 37.222656 C 31.149998 37.354656 30.79734 37.419922 30.416016 37.419922 C 30.034692 37.419922 29.683987 37.354956 29.361328 37.222656 C 29.053336 37.090656 28.774717 36.913359 28.525391 36.693359 C 28.29073 36.458659 28.106605 36.188859 27.974609 35.880859 C 27.86754 35.631107 27.814959 35.36284 27.794922 35.083984 z "
       transform="translate(0,1004.3622)"
       id="path4235" />
  </g>
</svg>
