<?xml version="1.0" encoding="UTF-8" standalone="no"?>
<!-- Created with Inkscape (http://www.inkscape.org/) -->

<svg
   xmlns:dc="http://purl.org/dc/elements/1.1/"
   xmlns:cc="http://creativecommons.org/ns#"
   xmlns:rdf="http://www.w3.org/1999/02/22-rdf-syntax-ns#"
   xmlns:svg="http://www.w3.org/2000/svg"
   xmlns="http://www.w3.org/2000/svg"
   xmlns:xlink="http://www.w3.org/1999/xlink"
   xmlns:sodipodi="http://sodipodi.sourceforge.net/DTD/sodipodi-0.dtd"
   xmlns:inkscape="http://www.inkscape.org/namespaces/inkscape"
   width="48"
   height="48"
   id="svg2"
   version="1.1"
   inkscape:version="0.48+devel r12487"
   sodipodi:docname="preferences-desktop-font.svg">
  <defs
     id="defs4">
    <linearGradient
       id="linearGradient4104"
       inkscape:collect="always">
      <stop
         id="stop4106"
         offset="0"
         style="stop-color:#9ec6f1;stop-opacity:1" />
      <stop
         id="stop4108"
         offset="1"
         style="stop-color:#f7fbfd;stop-opacity:1" />
    </linearGradient>
    <linearGradient
       inkscape:collect="always"
       id="linearGradient4098">
      <stop
         style="stop-color:#185ea8;stop-opacity:1"
         offset="0"
         id="stop4100" />
      <stop
         style="stop-color:#46adda;stop-opacity:1"
         offset="1"
         id="stop4102" />
    </linearGradient>
    <linearGradient
       inkscape:collect="always"
       xlink:href="#linearGradient4098"
       id="linearGradient977"
       x1="-12.953899"
       y1="-1033.1511"
       x2="-12.953899"
       y2="-985.11591"
       gradientUnits="userSpaceOnUse"
       gradientTransform="translate(44.5,-19.250009)" />
    <linearGradient
       inkscape:collect="always"
       xlink:href="#linearGradient4104"
       id="linearGradient4079"
       x1="29.162415"
       y1="1040.6857"
       x2="29.162415"
       y2="1016.1799"
       gradientUnits="userSpaceOnUse" />
  </defs>
  <sodipodi:namedview
     id="base"
     pagecolor="#ffffff"
     bordercolor="#666666"
     borderopacity="1.0"
     inkscape:pageopacity="0.0"
     inkscape:pageshadow="2"
     inkscape:zoom="5.6568543"
     inkscape:cx="56.088311"
     inkscape:cy="26.216458"
     inkscape:document-units="px"
     inkscape:current-layer="layer2"
     showgrid="false"
     inkscape:window-width="1366"
     inkscape:window-height="718"
     inkscape:window-x="0"
     inkscape:window-y="30"
     inkscape:window-maximized="1" />
  <metadata
     id="metadata7">
    <rdf:RDF>
      <cc:Work
         rdf:about="">
        <dc:format>image/svg+xml</dc:format>
        <dc:type
           rdf:resource="http://purl.org/dc/dcmitype/StillImage" />
        <dc:title />
      </cc:Work>
    </rdf:RDF>
  </metadata>
  <g
     inkscape:label="Capa 1"
     inkscape:groupmode="layer"
     id="layer1"
     transform="translate(0,-1004.3622)"
     sodipodi:insensitive="true">
    <rect
       style="fill:url(#linearGradient977);fill-opacity:1;stroke:none"
       id="rect2991-1"
       width="48"
       height="48"
       x="5e-07"
       y="-1052.3622"
       ry="1.9445436"
       transform="scale(1,-1)" />
    <path
       inkscape:connector-curvature="0"
       style="fill:#000000;fill-opacity:1;stroke:none"
       d="m -5e-7,1049.3622 0,1.0625 c 0,1.0773 0.860223,1.9375 1.9375,1.9375 l 44.1250005,0 c 1.077277,0 1.9375,-0.8602 1.9375,-1.9375 l 0,-1.0625 c 0,1.0773 -0.860223,1.9375 -1.9375,1.9375 l -44.1250005,0 C 0.8602225,1051.2997 -5e-7,1050.4395 -5e-7,1049.3622 Z"
       id="rect846-2" />
    <path
       inkscape:connector-curvature="0"
       style="fill:#ffffff;fill-opacity:0.5372549;stroke:none"
       d="m 2.5312495,1005.0185 c -0.917089,0 -1.671147,0.6395 -1.84375,1.5 0.335612,-0.2799 0.774512,-0.4375 1.25,-0.4375 l 44.1250005,0 c 0.475487,0 0.914388,0.1576 1.25,0.4375 -0.172604,-0.8605 -0.926663,-1.5 -1.843751,-1.5 L 2.5312495,1005.0185 Z"
       id="path7515" />
    <path
       inkscape:connector-curvature="0"
       style="fill:#000000;fill-opacity:0.39215686;stroke:none"
       d="m 1.9374995,1004.3622 c -1.077277,0 -1.9375,0.8602 -1.9375,1.9375 l 0,43.0625 c 0,0.7934 0.480024,1.449 1.15625,1.75 -0.309342,-0.3333 -0.5,-0.7824 -0.5,-1.2812 l 0,-42.9375 c 0,-1.0482 0.826899,-1.875 1.875,-1.875 l 42.9374995,0 c 1.048101,0 1.875001,0.8268 1.875001,1.875 l 0,42.9375 c 0,0.4988 -0.190659,0.9479 -0.5,1.2812 0.676225,-0.301 1.15625,-0.9566 1.15625,-1.75 l 0,-43.0625 c 0,-1.0773 -0.860224,-1.9375 -1.9375,-1.9375 L 1.9374995,1004.3622 Z"
       id="rect4280-1" />
    <path
       style="color:#000000;fill:#ffffff;fill-opacity:0.11764706;fill-rule:nonzero;stroke:none;stroke-width:0.5;marker:none;visibility:visible;display:inline;overflow:visible;enable-background:accumulate"
       d="M 1.9375,0 C 1.7018456,0 1.4899259,0.04887973 1.28125,0.125 l 0.34375,0 0,1.5 -1.5,0 0,-0.34375 C 0.04887973,1.4899259 0,1.7018456 0,1.9375 l 0,44.125 c 0,0.235654 0.04887973,0.447574 0.125,0.65625 l 0,-0.34375 1.5,0 0,1.5 -0.34375,0 C 1.4899259,47.95112 1.7018456,48 1.9375,48 l 44.125,0 c 0.235654,0 0.447574,-0.04888 0.65625,-0.125 l -0.34375,0 0,-1.5 1.5,0 0,0.34375 C 47.95112,46.510074 48,46.298154 48,46.0625 L 48,1.9375 C 48,1.7018456 47.95112,1.4899259 47.875,1.28125 l 0,0.34375 -1.5,0 0,-1.5 0.34375,0 C 46.510074,0.04887973 46.298154,0 46.0625,0 L 1.9375,0 Z M 2,0.125 l 1.46875,0 0,1.5 L 2,1.625 2,0.125 z m 1.8125,0 1.5,0 0,1.5 -1.5,0 L 3.8125,0.125 z m 1.875,0 1.4375,0 0,1.5 -1.4375,0 L 5.6875,0.125 z m 1.84375,0 1.5,0 0,1.5 -1.5,0 L 7.53125,0.125 z m 1.84375,0 1.46875,0 0,1.5 -1.46875,0 L 9.375,0.125 z m 1.875,0 1.5,0 0,1.5 -1.5,0 L 11.25,0.125 z m 1.84375,0 1.5,0 0,1.5 -1.5,0 L 13.09375,0.125 z m 1.84375,0 1.46875,0 0,1.5 -1.46875,0 L 14.9375,0.125 z m 1.84375,0 1.5,0 0,1.5 -1.5,0 L 16.78125,0.125 z m 1.84375,0 1.46875,0 0,1.5 -1.46875,0 L 18.625,0.125 z m 1.8125,0 1.5,0 0,1.5 -1.5,0 L 20.4375,0.125 z m 1.90625,0 1.5,0 0,1.5 -1.5,0 L 22.34375,0.125 z m 1.84375,0 1.46875,0 0,1.5 -1.46875,0 L 24.1875,0.125 z m 1.875,0 1.5,0 0,1.5 -1.5,0 L 26.0625,0.125 z m 1.84375,0 1.46875,0 0,1.5 -1.46875,0 L 27.90625,0.125 z m 1.8125,0 1.5,0 0,1.5 -1.5,0 L 29.71875,0.125 z m 1.875,0 1.46875,0 0,1.5 -1.46875,0 L 31.59375,0.125 z m 1.8125,0 1.5,0 0,1.5 -1.5,0 L 33.40625,0.125 z m 1.84375,0 1.5,0 0,1.5 -1.5,0 L 35.25,0.125 z m 1.90625,0 1.46875,0 0,1.5 -1.46875,0 L 37.15625,0.125 z m 1.8125,0 1.5,0 0,1.5 -1.5,0 L 38.96875,0.125 z m 1.90625,0 1.4375,0 0,1.5 -1.4375,0 L 40.875,0.125 z m 1.8125,0 1.5,0 0,1.5 -1.5,0 L 42.6875,0.125 z m 1.84375,0 1.46875,0 0,1.5 -1.46875,0 L 44.53125,0.125 Z M 0.125,2 l 1.5,0 0,1.46875 -1.5,0 L 0.125,2 Z M 2,2 l 1.46875,0 0,1.46875 L 2,3.46875 2,2 z m 1.8125,0 1.5,0 0,1.46875 -1.5,0 L 3.8125,2 z m 1.875,0 1.4375,0 0,1.46875 -1.4375,0 L 5.6875,2 z m 1.84375,0 1.5,0 0,1.46875 -1.5,0 L 7.53125,2 z m 1.84375,0 1.46875,0 0,1.46875 -1.46875,0 L 9.375,2 z m 1.875,0 1.5,0 0,1.46875 -1.5,0 L 11.25,2 z m 1.84375,0 1.5,0 0,1.46875 -1.5,0 L 13.09375,2 z m 1.84375,0 1.46875,0 0,1.46875 -1.46875,0 L 14.9375,2 z m 1.84375,0 1.5,0 0,1.46875 -1.5,0 L 16.78125,2 z m 1.84375,0 1.46875,0 0,1.46875 -1.46875,0 L 18.625,2 z m 1.8125,0 1.5,0 0,1.46875 -1.5,0 L 20.4375,2 z m 1.90625,0 1.5,0 0,1.46875 -1.5,0 L 22.34375,2 z m 1.84375,0 1.46875,0 0,1.46875 -1.46875,0 L 24.1875,2 z m 1.875,0 1.5,0 0,1.46875 -1.5,0 L 26.0625,2 z m 1.84375,0 1.46875,0 0,1.46875 -1.46875,0 L 27.90625,2 z m 1.8125,0 1.5,0 0,1.46875 -1.5,0 L 29.71875,2 z m 1.875,0 1.46875,0 0,1.46875 -1.46875,0 L 31.59375,2 z m 1.8125,0 1.5,0 0,1.46875 -1.5,0 L 33.40625,2 z m 1.84375,0 1.5,0 0,1.46875 -1.5,0 L 35.25,2 z m 1.90625,0 1.46875,0 0,1.46875 -1.46875,0 L 37.15625,2 z m 1.8125,0 1.5,0 0,1.46875 -1.5,0 L 38.96875,2 z m 1.90625,0 1.4375,0 0,1.46875 -1.4375,0 L 40.875,2 z m 1.8125,0 1.5,0 0,1.46875 -1.5,0 L 42.6875,2 Z M 44.53125,2 46,2 l 0,1.46875 -1.46875,0 L 44.53125,2 z m 1.84375,0 1.5,0 0,1.46875 -1.5,0 L 46.375,2 z m -46.25,1.8125 1.5,0 0,1.5 -1.5,0 L 0.125,3.8125 z m 1.875,0 1.46875,0 0,1.5 L 2,5.3125 2,3.8125 z m 1.8125,0 1.5,0 0,1.5 -1.5,0 L 3.8125,3.8125 z m 1.875,0 1.4375,0 0,1.5 -1.4375,0 L 5.6875,3.8125 z m 1.84375,0 1.5,0 0,1.5 -1.5,0 L 7.53125,3.8125 z m 1.84375,0 1.46875,0 0,1.5 -1.46875,0 L 9.375,3.8125 z m 1.875,0 1.5,0 0,1.5 -1.5,0 L 11.25,3.8125 z m 1.84375,0 1.5,0 0,1.5 -1.5,0 L 13.09375,3.8125 z m 1.84375,0 1.46875,0 0,1.5 -1.46875,0 L 14.9375,3.8125 z m 1.84375,0 1.5,0 0,1.5 -1.5,0 L 16.78125,3.8125 z m 1.84375,0 1.46875,0 0,1.5 -1.46875,0 L 18.625,3.8125 z m 1.8125,0 1.5,0 0,1.5 -1.5,0 L 20.4375,3.8125 z m 1.90625,0 1.5,0 0,1.5 -1.5,0 L 22.34375,3.8125 z m 1.84375,0 1.46875,0 0,1.5 -1.46875,0 L 24.1875,3.8125 z m 1.875,0 1.5,0 0,1.5 -1.5,0 L 26.0625,3.8125 z m 1.84375,0 1.46875,0 0,1.5 -1.46875,0 L 27.90625,3.8125 z m 1.8125,0 1.5,0 0,1.5 -1.5,0 L 29.71875,3.8125 z m 1.875,0 1.46875,0 0,1.5 -1.46875,0 L 31.59375,3.8125 z m 1.8125,0 1.5,0 0,1.5 -1.5,0 L 33.40625,3.8125 z m 1.84375,0 1.5,0 0,1.5 -1.5,0 L 35.25,3.8125 z m 1.90625,0 1.46875,0 0,1.5 -1.46875,0 L 37.15625,3.8125 z m 1.8125,0 1.5,0 0,1.5 -1.5,0 L 38.96875,3.8125 z m 1.90625,0 1.4375,0 0,1.5 -1.4375,0 L 40.875,3.8125 z m 1.8125,0 1.5,0 0,1.5 -1.5,0 L 42.6875,3.8125 z m 1.84375,0 1.46875,0 0,1.5 -1.46875,0 L 44.53125,3.8125 z m 1.84375,0 1.5,0 0,1.5 -1.5,0 L 46.375,3.8125 z m -46.25,1.875 1.5,0 0,1.4375 -1.5,0 L 0.125,5.6875 z m 1.875,0 1.46875,0 0,1.4375 L 2,7.125 2,5.6875 z m 1.8125,0 1.5,0 0,1.4375 -1.5,0 L 3.8125,5.6875 z m 1.875,0 1.4375,0 0,1.4375 -1.4375,0 L 5.6875,5.6875 z m 1.84375,0 1.5,0 0,1.4375 -1.5,0 L 7.53125,5.6875 z m 1.84375,0 1.46875,0 0,1.4375 -1.46875,0 L 9.375,5.6875 z m 1.875,0 1.5,0 0,1.4375 -1.5,0 L 11.25,5.6875 z m 1.84375,0 1.5,0 0,1.4375 -1.5,0 L 13.09375,5.6875 z m 1.84375,0 1.46875,0 0,1.4375 -1.46875,0 L 14.9375,5.6875 z m 1.84375,0 1.5,0 0,1.4375 -1.5,0 L 16.78125,5.6875 z m 1.84375,0 1.46875,0 0,1.4375 -1.46875,0 L 18.625,5.6875 z m 1.8125,0 1.5,0 0,1.4375 -1.5,0 L 20.4375,5.6875 z m 1.90625,0 1.5,0 0,1.4375 -1.5,0 L 22.34375,5.6875 z m 1.84375,0 1.46875,0 0,1.4375 -1.46875,0 L 24.1875,5.6875 z m 1.875,0 1.5,0 0,1.4375 -1.5,0 L 26.0625,5.6875 z m 1.84375,0 1.46875,0 0,1.4375 -1.46875,0 L 27.90625,5.6875 z m 1.8125,0 1.5,0 0,1.4375 -1.5,0 L 29.71875,5.6875 z m 1.875,0 1.46875,0 0,1.4375 -1.46875,0 L 31.59375,5.6875 z m 1.8125,0 1.5,0 0,1.4375 -1.5,0 L 33.40625,5.6875 z m 1.84375,0 1.5,0 0,1.4375 -1.5,0 L 35.25,5.6875 z m 1.90625,0 1.46875,0 0,1.4375 -1.46875,0 L 37.15625,5.6875 z m 1.8125,0 1.5,0 0,1.4375 -1.5,0 L 38.96875,5.6875 z m 1.90625,0 1.4375,0 0,1.4375 -1.4375,0 L 40.875,5.6875 z m 1.8125,0 1.5,0 0,1.4375 -1.5,0 L 42.6875,5.6875 z m 1.84375,0 1.46875,0 0,1.4375 -1.46875,0 L 44.53125,5.6875 z m 1.84375,0 1.5,0 0,1.4375 -1.5,0 L 46.375,5.6875 z m -46.25,1.84375 1.5,0 0,1.5 -1.5,0 L 0.125,7.53125 z m 1.875,0 1.46875,0 0,1.5 L 2,9.03125 2,7.53125 z m 1.8125,0 1.5,0 0,1.5 -1.5,0 L 3.8125,7.53125 z m 1.875,0 1.4375,0 0,1.5 -1.4375,0 L 5.6875,7.53125 z m 1.84375,0 1.5,0 0,1.5 -1.5,0 L 7.53125,7.53125 z m 1.84375,0 1.46875,0 0,1.5 -1.46875,0 L 9.375,7.53125 z m 1.875,0 1.5,0 0,1.5 -1.5,0 L 11.25,7.53125 z m 1.84375,0 1.5,0 0,1.5 -1.5,0 L 13.09375,7.53125 z m 1.84375,0 1.46875,0 0,1.5 -1.46875,0 L 14.9375,7.53125 z m 1.84375,0 1.5,0 0,1.5 -1.5,0 L 16.78125,7.53125 z m 1.84375,0 1.46875,0 0,1.5 -1.46875,0 L 18.625,7.53125 z m 1.8125,0 1.5,0 0,1.5 -1.5,0 L 20.4375,7.53125 z m 1.90625,0 1.5,0 0,1.5 -1.5,0 L 22.34375,7.53125 z m 1.84375,0 1.46875,0 0,1.5 -1.46875,0 L 24.1875,7.53125 z m 1.875,0 1.5,0 0,1.5 -1.5,0 L 26.0625,7.53125 z m 1.84375,0 1.46875,0 0,1.5 -1.46875,0 L 27.90625,7.53125 z m 1.8125,0 1.5,0 0,1.5 -1.5,0 L 29.71875,7.53125 z m 1.875,0 1.46875,0 0,1.5 -1.46875,0 L 31.59375,7.53125 z m 1.8125,0 1.5,0 0,1.5 -1.5,0 L 33.40625,7.53125 z m 1.84375,0 1.5,0 0,1.5 -1.5,0 L 35.25,7.53125 z m 1.90625,0 1.46875,0 0,1.5 -1.46875,0 L 37.15625,7.53125 z m 1.8125,0 1.5,0 0,1.5 -1.5,0 L 38.96875,7.53125 z m 1.90625,0 1.4375,0 0,1.5 -1.4375,0 L 40.875,7.53125 z m 1.8125,0 1.5,0 0,1.5 -1.5,0 L 42.6875,7.53125 z m 1.84375,0 1.46875,0 0,1.5 -1.46875,0 L 44.53125,7.53125 z m 1.84375,0 1.5,0 0,1.5 -1.5,0 L 46.375,7.53125 Z M 0.125,9.375 l 1.5,0 0,1.46875 -1.5,0 L 0.125,9.375 z m 1.875,0 1.46875,0 0,1.46875 L 2,10.84375 2,9.375 z m 1.8125,0 1.5,0 0,1.46875 -1.5,0 L 3.8125,9.375 z m 1.875,0 1.4375,0 0,1.46875 -1.4375,0 L 5.6875,9.375 z m 1.84375,0 1.5,0 0,1.46875 -1.5,0 L 7.53125,9.375 z m 1.84375,0 1.46875,0 0,1.46875 -1.46875,0 L 9.375,9.375 z m 1.875,0 1.5,0 0,1.46875 -1.5,0 L 11.25,9.375 z m 1.84375,0 1.5,0 0,1.46875 -1.5,0 L 13.09375,9.375 z m 1.84375,0 1.46875,0 0,1.46875 -1.46875,0 L 14.9375,9.375 z m 1.84375,0 1.5,0 0,1.46875 -1.5,0 L 16.78125,9.375 z m 1.84375,0 1.46875,0 0,1.46875 -1.46875,0 L 18.625,9.375 z m 1.8125,0 1.5,0 0,1.46875 -1.5,0 L 20.4375,9.375 z m 1.90625,0 1.5,0 0,1.46875 -1.5,0 L 22.34375,9.375 z m 1.84375,0 1.46875,0 0,1.46875 -1.46875,0 L 24.1875,9.375 z m 1.875,0 1.5,0 0,1.46875 -1.5,0 L 26.0625,9.375 z m 1.84375,0 1.46875,0 0,1.46875 -1.46875,0 L 27.90625,9.375 z m 1.8125,0 1.5,0 0,1.46875 -1.5,0 L 29.71875,9.375 z m 1.875,0 1.46875,0 0,1.46875 -1.46875,0 L 31.59375,9.375 z m 1.8125,0 1.5,0 0,1.46875 -1.5,0 L 33.40625,9.375 z m 1.84375,0 1.5,0 0,1.46875 -1.5,0 L 35.25,9.375 z m 1.90625,0 1.46875,0 0,1.46875 -1.46875,0 L 37.15625,9.375 z m 1.8125,0 1.5,0 0,1.46875 -1.5,0 L 38.96875,9.375 z m 1.90625,0 1.4375,0 0,1.46875 -1.4375,0 L 40.875,9.375 z m 1.8125,0 1.5,0 0,1.46875 -1.5,0 L 42.6875,9.375 z m 1.84375,0 1.46875,0 0,1.46875 -1.46875,0 L 44.53125,9.375 z m 1.84375,0 1.5,0 0,1.46875 -1.5,0 L 46.375,9.375 z m -46.25,1.875 1.5,0 0,1.5 -1.5,0 L 0.125,11.25 z m 1.875,0 1.46875,0 0,1.5 L 2,12.75 2,11.25 z m 1.8125,0 1.5,0 0,1.5 -1.5,0 L 3.8125,11.25 z m 1.875,0 1.4375,0 0,1.5 -1.4375,0 L 5.6875,11.25 z m 1.84375,0 1.5,0 0,1.5 -1.5,0 L 7.53125,11.25 z m 1.84375,0 1.46875,0 0,1.5 -1.46875,0 L 9.375,11.25 z m 1.875,0 1.5,0 0,1.5 -1.5,0 L 11.25,11.25 z m 1.84375,0 1.5,0 0,1.5 -1.5,0 L 13.09375,11.25 z m 1.84375,0 1.46875,0 0,1.5 -1.46875,0 L 14.9375,11.25 z m 1.84375,0 1.5,0 0,1.5 -1.5,0 L 16.78125,11.25 z m 1.84375,0 1.46875,0 0,1.5 -1.46875,0 L 18.625,11.25 z m 1.8125,0 1.5,0 0,1.5 -1.5,0 L 20.4375,11.25 z m 1.90625,0 1.5,0 0,1.5 -1.5,0 L 22.34375,11.25 z m 1.84375,0 1.46875,0 0,1.5 -1.46875,0 L 24.1875,11.25 z m 1.875,0 1.5,0 0,1.5 -1.5,0 L 26.0625,11.25 z m 1.84375,0 1.46875,0 0,1.5 -1.46875,0 L 27.90625,11.25 z m 1.8125,0 1.5,0 0,1.5 -1.5,0 L 29.71875,11.25 z m 1.875,0 1.46875,0 0,1.5 -1.46875,0 L 31.59375,11.25 z m 1.8125,0 1.5,0 0,1.5 -1.5,0 L 33.40625,11.25 z m 1.84375,0 1.5,0 0,1.5 -1.5,0 L 35.25,11.25 z m 1.90625,0 1.46875,0 0,1.5 -1.46875,0 L 37.15625,11.25 z m 1.8125,0 1.5,0 0,1.5 -1.5,0 L 38.96875,11.25 z m 1.90625,0 1.4375,0 0,1.5 -1.4375,0 L 40.875,11.25 z m 1.8125,0 1.5,0 0,1.5 -1.5,0 L 42.6875,11.25 z m 1.84375,0 1.46875,0 0,1.5 -1.46875,0 L 44.53125,11.25 z m 1.84375,0 1.5,0 0,1.5 -1.5,0 L 46.375,11.25 z m -46.25,1.84375 1.5,0 0,1.5 -1.5,0 L 0.125,13.09375 z m 1.875,0 1.46875,0 0,1.5 L 2,14.59375 2,13.09375 z m 1.8125,0 1.5,0 0,1.5 -1.5,0 L 3.8125,13.09375 z m 1.875,0 1.4375,0 0,1.5 -1.4375,0 L 5.6875,13.09375 z m 1.84375,0 1.5,0 0,1.5 -1.5,0 L 7.53125,13.09375 z m 1.84375,0 1.46875,0 0,1.5 -1.46875,0 L 9.375,13.09375 z m 1.875,0 1.5,0 0,1.5 -1.5,0 L 11.25,13.09375 z m 1.84375,0 1.5,0 0,1.5 -1.5,0 L 13.09375,13.09375 z m 1.84375,0 1.46875,0 0,1.5 -1.46875,0 L 14.9375,13.09375 z m 1.84375,0 1.5,0 0,1.5 -1.5,0 L 16.78125,13.09375 z m 1.84375,0 1.46875,0 0,1.5 -1.46875,0 L 18.625,13.09375 z m 1.8125,0 1.5,0 0,1.5 -1.5,0 L 20.4375,13.09375 z m 1.90625,0 1.5,0 0,1.5 -1.5,0 L 22.34375,13.09375 z m 1.84375,0 1.46875,0 0,1.5 -1.46875,0 L 24.1875,13.09375 z m 1.875,0 1.5,0 0,1.5 -1.5,0 L 26.0625,13.09375 z m 1.84375,0 1.46875,0 0,1.5 -1.46875,0 L 27.90625,13.09375 z m 1.8125,0 1.5,0 0,1.5 -1.5,0 L 29.71875,13.09375 z m 1.875,0 1.46875,0 0,1.5 -1.46875,0 L 31.59375,13.09375 z m 1.8125,0 1.5,0 0,1.5 -1.5,0 L 33.40625,13.09375 z m 1.84375,0 1.5,0 0,1.5 -1.5,0 L 35.25,13.09375 z m 1.90625,0 1.46875,0 0,1.5 -1.46875,0 L 37.15625,13.09375 z m 1.8125,0 1.5,0 0,1.5 -1.5,0 L 38.96875,13.09375 z m 1.90625,0 1.4375,0 0,1.5 -1.4375,0 L 40.875,13.09375 z m 1.8125,0 1.5,0 0,1.5 -1.5,0 L 42.6875,13.09375 z m 1.84375,0 1.46875,0 0,1.5 -1.46875,0 L 44.53125,13.09375 z m 1.84375,0 1.5,0 0,1.5 -1.5,0 L 46.375,13.09375 z m -46.25,1.84375 1.5,0 0,1.46875 -1.5,0 L 0.125,14.9375 z m 1.875,0 1.46875,0 0,1.46875 L 2,16.40625 2,14.9375 z m 1.8125,0 1.5,0 0,1.46875 -1.5,0 L 3.8125,14.9375 z m 1.875,0 1.4375,0 0,1.46875 -1.4375,0 L 5.6875,14.9375 z m 1.84375,0 1.5,0 0,1.46875 -1.5,0 L 7.53125,14.9375 z m 1.84375,0 1.46875,0 0,1.46875 -1.46875,0 L 9.375,14.9375 z m 1.875,0 1.5,0 0,1.46875 -1.5,0 L 11.25,14.9375 z m 1.84375,0 1.5,0 0,1.46875 -1.5,0 L 13.09375,14.9375 z m 1.84375,0 1.46875,0 0,1.46875 -1.46875,0 L 14.9375,14.9375 z m 1.84375,0 1.5,0 0,1.46875 -1.5,0 L 16.78125,14.9375 z m 1.84375,0 1.46875,0 0,1.46875 -1.46875,0 L 18.625,14.9375 z m 1.8125,0 1.5,0 0,1.46875 -1.5,0 L 20.4375,14.9375 z m 1.90625,0 1.5,0 0,1.46875 -1.5,0 L 22.34375,14.9375 z m 1.84375,0 1.46875,0 0,1.46875 -1.46875,0 L 24.1875,14.9375 z m 1.875,0 1.5,0 0,1.46875 -1.5,0 L 26.0625,14.9375 z m 1.84375,0 1.46875,0 0,1.46875 -1.46875,0 L 27.90625,14.9375 z m 1.8125,0 1.5,0 0,1.46875 -1.5,0 L 29.71875,14.9375 z m 1.875,0 1.46875,0 0,1.46875 -1.46875,0 L 31.59375,14.9375 z m 1.8125,0 1.5,0 0,1.46875 -1.5,0 L 33.40625,14.9375 z m 1.84375,0 1.5,0 0,1.46875 -1.5,0 L 35.25,14.9375 z m 1.90625,0 1.46875,0 0,1.46875 -1.46875,0 L 37.15625,14.9375 z m 1.8125,0 1.5,0 0,1.46875 -1.5,0 L 38.96875,14.9375 z m 1.90625,0 1.4375,0 0,1.46875 -1.4375,0 L 40.875,14.9375 z m 1.8125,0 1.5,0 0,1.46875 -1.5,0 L 42.6875,14.9375 z m 1.84375,0 1.46875,0 0,1.46875 -1.46875,0 L 44.53125,14.9375 z m 1.84375,0 1.5,0 0,1.46875 -1.5,0 L 46.375,14.9375 z m -46.25,1.84375 1.5,0 0,1.5 -1.5,0 L 0.125,16.78125 z m 1.875,0 1.46875,0 0,1.5 L 2,18.28125 2,16.78125 z m 1.8125,0 1.5,0 0,1.5 -1.5,0 L 3.8125,16.78125 z m 1.875,0 1.4375,0 0,1.5 -1.4375,0 L 5.6875,16.78125 z m 1.84375,0 1.5,0 0,1.5 -1.5,0 L 7.53125,16.78125 z m 1.84375,0 1.46875,0 0,1.5 -1.46875,0 L 9.375,16.78125 z m 1.875,0 1.5,0 0,1.5 -1.5,0 L 11.25,16.78125 z m 1.84375,0 1.5,0 0,1.5 -1.5,0 L 13.09375,16.78125 z m 1.84375,0 1.46875,0 0,1.5 -1.46875,0 L 14.9375,16.78125 z m 1.84375,0 1.5,0 0,1.5 -1.5,0 L 16.78125,16.78125 z m 1.84375,0 1.46875,0 0,1.5 -1.46875,0 L 18.625,16.78125 z m 1.8125,0 1.5,0 0,1.5 -1.5,0 L 20.4375,16.78125 z m 1.90625,0 1.5,0 0,1.5 -1.5,0 L 22.34375,16.78125 z m 1.84375,0 1.46875,0 0,1.5 -1.46875,0 L 24.1875,16.78125 z m 1.875,0 1.5,0 0,1.5 -1.5,0 L 26.0625,16.78125 z m 1.84375,0 1.46875,0 0,1.5 -1.46875,0 L 27.90625,16.78125 z m 1.8125,0 1.5,0 0,1.5 -1.5,0 L 29.71875,16.78125 z m 1.875,0 1.46875,0 0,1.5 -1.46875,0 L 31.59375,16.78125 z m 1.8125,0 1.5,0 0,1.5 -1.5,0 L 33.40625,16.78125 z m 1.84375,0 1.5,0 0,1.5 -1.5,0 L 35.25,16.78125 z m 1.90625,0 1.46875,0 0,1.5 -1.46875,0 L 37.15625,16.78125 z m 1.8125,0 1.5,0 0,1.5 -1.5,0 L 38.96875,16.78125 z m 1.90625,0 1.4375,0 0,1.5 -1.4375,0 L 40.875,16.78125 z m 1.8125,0 1.5,0 0,1.5 -1.5,0 L 42.6875,16.78125 z m 1.84375,0 1.46875,0 0,1.5 -1.46875,0 L 44.53125,16.78125 z m 1.84375,0 1.5,0 0,1.5 -1.5,0 L 46.375,16.78125 z m -46.25,1.84375 1.5,0 0,1.46875 -1.5,0 L 0.125,18.625 z m 1.875,0 1.46875,0 0,1.46875 L 2,20.09375 2,18.625 z m 1.8125,0 1.5,0 0,1.46875 -1.5,0 L 3.8125,18.625 z m 1.875,0 1.4375,0 0,1.46875 -1.4375,0 L 5.6875,18.625 z m 1.84375,0 1.5,0 0,1.46875 -1.5,0 L 7.53125,18.625 z m 1.84375,0 1.46875,0 0,1.46875 -1.46875,0 L 9.375,18.625 z m 1.875,0 1.5,0 0,1.46875 -1.5,0 L 11.25,18.625 z m 1.84375,0 1.5,0 0,1.46875 -1.5,0 L 13.09375,18.625 z m 1.84375,0 1.46875,0 0,1.46875 -1.46875,0 L 14.9375,18.625 z m 1.84375,0 1.5,0 0,1.46875 -1.5,0 L 16.78125,18.625 z m 1.84375,0 1.46875,0 0,1.46875 -1.46875,0 L 18.625,18.625 z m 1.8125,0 1.5,0 0,1.46875 -1.5,0 L 20.4375,18.625 z m 1.90625,0 1.5,0 0,1.46875 -1.5,0 L 22.34375,18.625 z m 1.84375,0 1.46875,0 0,1.46875 -1.46875,0 L 24.1875,18.625 z m 1.875,0 1.5,0 0,1.46875 -1.5,0 L 26.0625,18.625 z m 1.84375,0 1.46875,0 0,1.46875 -1.46875,0 L 27.90625,18.625 z m 1.8125,0 1.5,0 0,1.46875 -1.5,0 L 29.71875,18.625 z m 1.875,0 1.46875,0 0,1.46875 -1.46875,0 L 31.59375,18.625 z m 1.8125,0 1.5,0 0,1.46875 -1.5,0 L 33.40625,18.625 z m 1.84375,0 1.5,0 0,1.46875 -1.5,0 L 35.25,18.625 z m 1.90625,0 1.46875,0 0,1.46875 -1.46875,0 L 37.15625,18.625 z m 1.8125,0 1.5,0 0,1.46875 -1.5,0 L 38.96875,18.625 z m 1.90625,0 1.4375,0 0,1.46875 -1.4375,0 L 40.875,18.625 z m 1.8125,0 1.5,0 0,1.46875 -1.5,0 L 42.6875,18.625 z m 1.84375,0 1.46875,0 0,1.46875 -1.46875,0 L 44.53125,18.625 z m 1.84375,0 1.5,0 0,1.46875 -1.5,0 L 46.375,18.625 z m -46.25,1.8125 1.5,0 0,1.5 -1.5,0 L 0.125,20.4375 z m 1.875,0 1.46875,0 0,1.5 L 2,21.9375 2,20.4375 z m 1.8125,0 1.5,0 0,1.5 -1.5,0 L 3.8125,20.4375 z m 1.875,0 1.4375,0 0,1.5 -1.4375,0 L 5.6875,20.4375 z m 1.84375,0 1.5,0 0,1.5 -1.5,0 L 7.53125,20.4375 z m 1.84375,0 1.46875,0 0,1.5 -1.46875,0 L 9.375,20.4375 z m 1.875,0 1.5,0 0,1.5 -1.5,0 L 11.25,20.4375 z m 1.84375,0 1.5,0 0,1.5 -1.5,0 L 13.09375,20.4375 z m 1.84375,0 1.46875,0 0,1.5 -1.46875,0 L 14.9375,20.4375 z m 1.84375,0 1.5,0 0,1.5 -1.5,0 L 16.78125,20.4375 z m 1.84375,0 1.46875,0 0,1.5 -1.46875,0 L 18.625,20.4375 z m 1.8125,0 1.5,0 0,1.5 -1.5,0 L 20.4375,20.4375 z m 1.90625,0 1.5,0 0,1.5 -1.5,0 L 22.34375,20.4375 z m 1.84375,0 1.46875,0 0,1.5 -1.46875,0 L 24.1875,20.4375 z m 1.875,0 1.5,0 0,1.5 -1.5,0 L 26.0625,20.4375 z m 1.84375,0 1.46875,0 0,1.5 -1.46875,0 L 27.90625,20.4375 z m 1.8125,0 1.5,0 0,1.5 -1.5,0 L 29.71875,20.4375 z m 1.875,0 1.46875,0 0,1.5 -1.46875,0 L 31.59375,20.4375 z m 1.8125,0 1.5,0 0,1.5 -1.5,0 L 33.40625,20.4375 z m 1.84375,0 1.5,0 0,1.5 -1.5,0 L 35.25,20.4375 z m 1.90625,0 1.46875,0 0,1.5 -1.46875,0 L 37.15625,20.4375 z m 1.8125,0 1.5,0 0,1.5 -1.5,0 L 38.96875,20.4375 z m 1.90625,0 1.4375,0 0,1.5 -1.4375,0 L 40.875,20.4375 z m 1.8125,0 1.5,0 0,1.5 -1.5,0 L 42.6875,20.4375 z m 1.84375,0 1.46875,0 0,1.5 -1.46875,0 L 44.53125,20.4375 z m 1.84375,0 1.5,0 0,1.5 -1.5,0 L 46.375,20.4375 z m -46.25,1.90625 1.5,0 0,1.5 -1.5,0 L 0.125,22.34375 z m 1.875,0 1.46875,0 0,1.5 L 2,23.84375 2,22.34375 z m 1.8125,0 1.5,0 0,1.5 -1.5,0 L 3.8125,22.34375 z m 1.875,0 1.4375,0 0,1.5 -1.4375,0 L 5.6875,22.34375 z m 1.84375,0 1.5,0 0,1.5 -1.5,0 L 7.53125,22.34375 z m 1.84375,0 1.46875,0 0,1.5 -1.46875,0 L 9.375,22.34375 z m 1.875,0 1.5,0 0,1.5 -1.5,0 L 11.25,22.34375 z m 1.84375,0 1.5,0 0,1.5 -1.5,0 L 13.09375,22.34375 z m 1.84375,0 1.46875,0 0,1.5 -1.46875,0 L 14.9375,22.34375 z m 1.84375,0 1.5,0 0,1.5 -1.5,0 L 16.78125,22.34375 z m 1.84375,0 1.46875,0 0,1.5 -1.46875,0 L 18.625,22.34375 z m 1.8125,0 1.5,0 0,1.5 -1.5,0 L 20.4375,22.34375 z m 1.90625,0 1.5,0 0,1.5 -1.5,0 L 22.34375,22.34375 z m 1.84375,0 1.46875,0 0,1.5 -1.46875,0 L 24.1875,22.34375 z m 1.875,0 1.5,0 0,1.5 -1.5,0 L 26.0625,22.34375 z m 1.84375,0 1.46875,0 0,1.5 -1.46875,0 L 27.90625,22.34375 z m 1.8125,0 1.5,0 0,1.5 -1.5,0 L 29.71875,22.34375 z m 1.875,0 1.46875,0 0,1.5 -1.46875,0 L 31.59375,22.34375 z m 1.8125,0 1.5,0 0,1.5 -1.5,0 L 33.40625,22.34375 z m 1.84375,0 1.5,0 0,1.5 -1.5,0 L 35.25,22.34375 z m 1.90625,0 1.46875,0 0,1.5 -1.46875,0 L 37.15625,22.34375 z m 1.8125,0 1.5,0 0,1.5 -1.5,0 L 38.96875,22.34375 z m 1.90625,0 1.4375,0 0,1.5 -1.4375,0 L 40.875,22.34375 z m 1.8125,0 1.5,0 0,1.5 -1.5,0 L 42.6875,22.34375 z m 1.84375,0 1.46875,0 0,1.5 -1.46875,0 L 44.53125,22.34375 z m 1.84375,0 1.5,0 0,1.5 -1.5,0 L 46.375,22.34375 z m -46.25,1.84375 1.5,0 0,1.46875 -1.5,0 L 0.125,24.1875 z m 1.875,0 1.46875,0 0,1.46875 L 2,25.65625 2,24.1875 z m 1.8125,0 1.5,0 0,1.46875 -1.5,0 L 3.8125,24.1875 z m 1.875,0 1.4375,0 0,1.46875 -1.4375,0 L 5.6875,24.1875 z m 1.84375,0 1.5,0 0,1.46875 -1.5,0 L 7.53125,24.1875 z m 1.84375,0 1.46875,0 0,1.46875 -1.46875,0 L 9.375,24.1875 z m 1.875,0 1.5,0 0,1.46875 -1.5,0 L 11.25,24.1875 z m 1.84375,0 1.5,0 0,1.46875 -1.5,0 L 13.09375,24.1875 z m 1.84375,0 1.46875,0 0,1.46875 -1.46875,0 L 14.9375,24.1875 z m 1.84375,0 1.5,0 0,1.46875 -1.5,0 L 16.78125,24.1875 z m 1.84375,0 1.46875,0 0,1.46875 -1.46875,0 L 18.625,24.1875 z m 1.8125,0 1.5,0 0,1.46875 -1.5,0 L 20.4375,24.1875 z m 1.90625,0 1.5,0 0,1.46875 -1.5,0 L 22.34375,24.1875 z m 1.84375,0 1.46875,0 0,1.46875 -1.46875,0 L 24.1875,24.1875 z m 1.875,0 1.5,0 0,1.46875 -1.5,0 L 26.0625,24.1875 z m 1.84375,0 1.46875,0 0,1.46875 -1.46875,0 L 27.90625,24.1875 z m 1.8125,0 1.5,0 0,1.46875 -1.5,0 L 29.71875,24.1875 z m 1.875,0 1.46875,0 0,1.46875 -1.46875,0 L 31.59375,24.1875 z m 1.8125,0 1.5,0 0,1.46875 -1.5,0 L 33.40625,24.1875 z m 1.84375,0 1.5,0 0,1.46875 -1.5,0 L 35.25,24.1875 z m 1.90625,0 1.46875,0 0,1.46875 -1.46875,0 L 37.15625,24.1875 z m 1.8125,0 1.5,0 0,1.46875 -1.5,0 L 38.96875,24.1875 z m 1.90625,0 1.4375,0 0,1.46875 -1.4375,0 L 40.875,24.1875 z m 1.8125,0 1.5,0 0,1.46875 -1.5,0 L 42.6875,24.1875 z m 1.84375,0 1.46875,0 0,1.46875 -1.46875,0 L 44.53125,24.1875 z m 1.84375,0 1.5,0 0,1.46875 -1.5,0 L 46.375,24.1875 z m -46.25,1.875 1.5,0 0,1.5 -1.5,0 L 0.125,26.0625 z m 1.875,0 1.46875,0 0,1.5 L 2,27.5625 2,26.0625 z m 1.8125,0 1.5,0 0,1.5 -1.5,0 L 3.8125,26.0625 z m 1.875,0 1.4375,0 0,1.5 -1.4375,0 L 5.6875,26.0625 z m 1.84375,0 1.5,0 0,1.5 -1.5,0 L 7.53125,26.0625 z m 1.84375,0 1.46875,0 0,1.5 -1.46875,0 L 9.375,26.0625 z m 1.875,0 1.5,0 0,1.5 -1.5,0 L 11.25,26.0625 z m 1.84375,0 1.5,0 0,1.5 -1.5,0 L 13.09375,26.0625 z m 1.84375,0 1.46875,0 0,1.5 -1.46875,0 L 14.9375,26.0625 z m 1.84375,0 1.5,0 0,1.5 -1.5,0 L 16.78125,26.0625 z m 1.84375,0 1.46875,0 0,1.5 -1.46875,0 L 18.625,26.0625 z m 1.8125,0 1.5,0 0,1.5 -1.5,0 L 20.4375,26.0625 z m 1.90625,0 1.5,0 0,1.5 -1.5,0 L 22.34375,26.0625 z m 1.84375,0 1.46875,0 0,1.5 -1.46875,0 L 24.1875,26.0625 z m 1.875,0 1.5,0 0,1.5 -1.5,0 L 26.0625,26.0625 z m 1.84375,0 1.46875,0 0,1.5 -1.46875,0 L 27.90625,26.0625 z m 1.8125,0 1.5,0 0,1.5 -1.5,0 L 29.71875,26.0625 z m 1.875,0 1.46875,0 0,1.5 -1.46875,0 L 31.59375,26.0625 z m 1.8125,0 1.5,0 0,1.5 -1.5,0 L 33.40625,26.0625 z m 1.84375,0 1.5,0 0,1.5 -1.5,0 L 35.25,26.0625 z m 1.90625,0 1.46875,0 0,1.5 -1.46875,0 L 37.15625,26.0625 z m 1.8125,0 1.5,0 0,1.5 -1.5,0 L 38.96875,26.0625 z m 1.90625,0 1.4375,0 0,1.5 -1.4375,0 L 40.875,26.0625 z m 1.8125,0 1.5,0 0,1.5 -1.5,0 L 42.6875,26.0625 z m 1.84375,0 1.46875,0 0,1.5 -1.46875,0 L 44.53125,26.0625 z m 1.84375,0 1.5,0 0,1.5 -1.5,0 L 46.375,26.0625 z m -46.25,1.84375 1.5,0 0,1.46875 -1.5,0 L 0.125,27.90625 z m 1.875,0 1.46875,0 0,1.46875 L 2,29.375 2,27.90625 z m 1.8125,0 1.5,0 0,1.46875 -1.5,0 L 3.8125,27.90625 z m 1.875,0 1.4375,0 0,1.46875 -1.4375,0 L 5.6875,27.90625 z m 1.84375,0 1.5,0 0,1.46875 -1.5,0 L 7.53125,27.90625 z m 1.84375,0 1.46875,0 0,1.46875 -1.46875,0 L 9.375,27.90625 z m 1.875,0 1.5,0 0,1.46875 -1.5,0 L 11.25,27.90625 z m 1.84375,0 1.5,0 0,1.46875 -1.5,0 L 13.09375,27.90625 z m 1.84375,0 1.46875,0 0,1.46875 -1.46875,0 L 14.9375,27.90625 z m 1.84375,0 1.5,0 0,1.46875 -1.5,0 L 16.78125,27.90625 z m 1.84375,0 1.46875,0 0,1.46875 -1.46875,0 L 18.625,27.90625 z m 1.8125,0 1.5,0 0,1.46875 -1.5,0 L 20.4375,27.90625 z m 1.90625,0 1.5,0 0,1.46875 -1.5,0 L 22.34375,27.90625 z m 1.84375,0 1.46875,0 0,1.46875 -1.46875,0 L 24.1875,27.90625 z m 1.875,0 1.5,0 0,1.46875 -1.5,0 L 26.0625,27.90625 z m 1.84375,0 1.46875,0 0,1.46875 -1.46875,0 L 27.90625,27.90625 z m 1.8125,0 1.5,0 0,1.46875 -1.5,0 L 29.71875,27.90625 z m 1.875,0 1.46875,0 0,1.46875 -1.46875,0 L 31.59375,27.90625 z m 1.8125,0 1.5,0 0,1.46875 -1.5,0 L 33.40625,27.90625 z m 1.84375,0 1.5,0 0,1.46875 -1.5,0 L 35.25,27.90625 z m 1.90625,0 1.46875,0 0,1.46875 -1.46875,0 L 37.15625,27.90625 z m 1.8125,0 1.5,0 0,1.46875 -1.5,0 L 38.96875,27.90625 z m 1.90625,0 1.4375,0 0,1.46875 -1.4375,0 L 40.875,27.90625 z m 1.8125,0 1.5,0 0,1.46875 -1.5,0 L 42.6875,27.90625 z m 1.84375,0 1.46875,0 0,1.46875 -1.46875,0 L 44.53125,27.90625 z m 1.84375,0 1.5,0 0,1.46875 -1.5,0 L 46.375,27.90625 z m -46.25,1.8125 1.5,0 0,1.5 -1.5,0 L 0.125,29.71875 z m 1.875,0 1.46875,0 0,1.5 L 2,31.21875 2,29.71875 z m 1.8125,0 1.5,0 0,1.5 -1.5,0 L 3.8125,29.71875 z m 1.875,0 1.4375,0 0,1.5 -1.4375,0 L 5.6875,29.71875 z m 1.84375,0 1.5,0 0,1.5 -1.5,0 L 7.53125,29.71875 z m 1.84375,0 1.46875,0 0,1.5 -1.46875,0 L 9.375,29.71875 z m 1.875,0 1.5,0 0,1.5 -1.5,0 L 11.25,29.71875 z m 1.84375,0 1.5,0 0,1.5 -1.5,0 L 13.09375,29.71875 z m 1.84375,0 1.46875,0 0,1.5 -1.46875,0 L 14.9375,29.71875 z m 1.84375,0 1.5,0 0,1.5 -1.5,0 L 16.78125,29.71875 z m 1.84375,0 1.46875,0 0,1.5 -1.46875,0 L 18.625,29.71875 z m 1.8125,0 1.5,0 0,1.5 -1.5,0 L 20.4375,29.71875 z m 1.90625,0 1.5,0 0,1.5 -1.5,0 L 22.34375,29.71875 z m 1.84375,0 1.46875,0 0,1.5 -1.46875,0 L 24.1875,29.71875 z m 1.875,0 1.5,0 0,1.5 -1.5,0 L 26.0625,29.71875 z m 1.84375,0 1.46875,0 0,1.5 -1.46875,0 L 27.90625,29.71875 z m 1.8125,0 1.5,0 0,1.5 -1.5,0 L 29.71875,29.71875 z m 1.875,0 1.46875,0 0,1.5 -1.46875,0 L 31.59375,29.71875 z m 1.8125,0 1.5,0 0,1.5 -1.5,0 L 33.40625,29.71875 z m 1.84375,0 1.5,0 0,1.5 -1.5,0 L 35.25,29.71875 z m 1.90625,0 1.46875,0 0,1.5 -1.46875,0 L 37.15625,29.71875 z m 1.8125,0 1.5,0 0,1.5 -1.5,0 L 38.96875,29.71875 z m 1.90625,0 1.4375,0 0,1.5 -1.4375,0 L 40.875,29.71875 z m 1.8125,0 1.5,0 0,1.5 -1.5,0 L 42.6875,29.71875 z m 1.84375,0 1.46875,0 0,1.5 -1.46875,0 L 44.53125,29.71875 z m 1.84375,0 1.5,0 0,1.5 -1.5,0 L 46.375,29.71875 z m -46.25,1.875 1.5,0 0,1.46875 -1.5,0 L 0.125,31.59375 z m 1.875,0 1.46875,0 0,1.46875 L 2,33.0625 2,31.59375 z m 1.8125,0 1.5,0 0,1.46875 -1.5,0 L 3.8125,31.59375 z m 1.875,0 1.4375,0 0,1.46875 -1.4375,0 L 5.6875,31.59375 z m 1.84375,0 1.5,0 0,1.46875 -1.5,0 L 7.53125,31.59375 z m 1.84375,0 1.46875,0 0,1.46875 -1.46875,0 L 9.375,31.59375 z m 1.875,0 1.5,0 0,1.46875 -1.5,0 L 11.25,31.59375 z m 1.84375,0 1.5,0 0,1.46875 -1.5,0 L 13.09375,31.59375 z m 1.84375,0 1.46875,0 0,1.46875 -1.46875,0 L 14.9375,31.59375 z m 1.84375,0 1.5,0 0,1.46875 -1.5,0 L 16.78125,31.59375 z m 1.84375,0 1.46875,0 0,1.46875 -1.46875,0 L 18.625,31.59375 z m 1.8125,0 1.5,0 0,1.46875 -1.5,0 L 20.4375,31.59375 z m 1.90625,0 1.5,0 0,1.46875 -1.5,0 L 22.34375,31.59375 z m 1.84375,0 1.46875,0 0,1.46875 -1.46875,0 L 24.1875,31.59375 z m 1.875,0 1.5,0 0,1.46875 -1.5,0 L 26.0625,31.59375 z m 1.84375,0 1.46875,0 0,1.46875 -1.46875,0 L 27.90625,31.59375 z m 1.8125,0 1.5,0 0,1.46875 -1.5,0 L 29.71875,31.59375 z m 1.875,0 1.46875,0 0,1.46875 -1.46875,0 L 31.59375,31.59375 z m 1.8125,0 1.5,0 0,1.46875 -1.5,0 L 33.40625,31.59375 z m 1.84375,0 1.5,0 0,1.46875 -1.5,0 L 35.25,31.59375 z m 1.90625,0 1.46875,0 0,1.46875 -1.46875,0 L 37.15625,31.59375 z m 1.8125,0 1.5,0 0,1.46875 -1.5,0 L 38.96875,31.59375 z m 1.90625,0 1.4375,0 0,1.46875 -1.4375,0 L 40.875,31.59375 z m 1.8125,0 1.5,0 0,1.46875 -1.5,0 L 42.6875,31.59375 z m 1.84375,0 1.46875,0 0,1.46875 -1.46875,0 L 44.53125,31.59375 z m 1.84375,0 1.5,0 0,1.46875 -1.5,0 L 46.375,31.59375 z m -46.25,1.8125 1.5,0 0,1.5 -1.5,0 L 0.125,33.40625 z m 1.875,0 1.46875,0 0,1.5 L 2,34.90625 2,33.40625 z m 1.8125,0 1.5,0 0,1.5 -1.5,0 L 3.8125,33.40625 z m 1.875,0 1.4375,0 0,1.5 -1.4375,0 L 5.6875,33.40625 z m 1.84375,0 1.5,0 0,1.5 -1.5,0 L 7.53125,33.40625 z m 1.84375,0 1.46875,0 0,1.5 -1.46875,0 L 9.375,33.40625 z m 1.875,0 1.5,0 0,1.5 -1.5,0 L 11.25,33.40625 z m 1.84375,0 1.5,0 0,1.5 -1.5,0 L 13.09375,33.40625 z m 1.84375,0 1.46875,0 0,1.5 -1.46875,0 L 14.9375,33.40625 z m 1.84375,0 1.5,0 0,1.5 -1.5,0 L 16.78125,33.40625 z m 1.84375,0 1.46875,0 0,1.5 -1.46875,0 L 18.625,33.40625 z m 1.8125,0 1.5,0 0,1.5 -1.5,0 L 20.4375,33.40625 z m 1.90625,0 1.5,0 0,1.5 -1.5,0 L 22.34375,33.40625 z m 1.84375,0 1.46875,0 0,1.5 -1.46875,0 L 24.1875,33.40625 z m 1.875,0 1.5,0 0,1.5 -1.5,0 L 26.0625,33.40625 z m 1.84375,0 1.46875,0 0,1.5 -1.46875,0 L 27.90625,33.40625 z m 1.8125,0 1.5,0 0,1.5 -1.5,0 L 29.71875,33.40625 z m 1.875,0 1.46875,0 0,1.5 -1.46875,0 L 31.59375,33.40625 z m 1.8125,0 1.5,0 0,1.5 -1.5,0 L 33.40625,33.40625 z m 1.84375,0 1.5,0 0,1.5 -1.5,0 L 35.25,33.40625 z m 1.90625,0 1.46875,0 0,1.5 -1.46875,0 L 37.15625,33.40625 z m 1.8125,0 1.5,0 0,1.5 -1.5,0 L 38.96875,33.40625 z m 1.90625,0 1.4375,0 0,1.5 -1.4375,0 L 40.875,33.40625 z m 1.8125,0 1.5,0 0,1.5 -1.5,0 L 42.6875,33.40625 z m 1.84375,0 1.46875,0 0,1.5 -1.46875,0 L 44.53125,33.40625 z m 1.84375,0 1.5,0 0,1.5 -1.5,0 L 46.375,33.40625 Z M 0.125,35.25 l 1.5,0 0,1.5 -1.5,0 L 0.125,35.25 z m 1.875,0 1.46875,0 0,1.5 L 2,36.75 2,35.25 z m 1.8125,0 1.5,0 0,1.5 -1.5,0 L 3.8125,35.25 z m 1.875,0 1.4375,0 0,1.5 -1.4375,0 L 5.6875,35.25 z m 1.84375,0 1.5,0 0,1.5 -1.5,0 L 7.53125,35.25 z m 1.84375,0 1.46875,0 0,1.5 -1.46875,0 L 9.375,35.25 z m 1.875,0 1.5,0 0,1.5 -1.5,0 L 11.25,35.25 z m 1.84375,0 1.5,0 0,1.5 -1.5,0 L 13.09375,35.25 z m 1.84375,0 1.46875,0 0,1.5 -1.46875,0 L 14.9375,35.25 z m 1.84375,0 1.5,0 0,1.5 -1.5,0 L 16.78125,35.25 z m 1.84375,0 1.46875,0 0,1.5 -1.46875,0 L 18.625,35.25 z m 1.8125,0 1.5,0 0,1.5 -1.5,0 L 20.4375,35.25 z m 1.90625,0 1.5,0 0,1.5 -1.5,0 L 22.34375,35.25 z m 1.84375,0 1.46875,0 0,1.5 -1.46875,0 L 24.1875,35.25 z m 1.875,0 1.5,0 0,1.5 -1.5,0 L 26.0625,35.25 z m 1.84375,0 1.46875,0 0,1.5 -1.46875,0 L 27.90625,35.25 z m 1.8125,0 1.5,0 0,1.5 -1.5,0 L 29.71875,35.25 z m 1.875,0 1.46875,0 0,1.5 -1.46875,0 L 31.59375,35.25 z m 1.8125,0 1.5,0 0,1.5 -1.5,0 L 33.40625,35.25 z m 1.84375,0 1.5,0 0,1.5 -1.5,0 L 35.25,35.25 z m 1.90625,0 1.46875,0 0,1.5 -1.46875,0 L 37.15625,35.25 z m 1.8125,0 1.5,0 0,1.5 -1.5,0 L 38.96875,35.25 z m 1.90625,0 1.4375,0 0,1.5 -1.4375,0 L 40.875,35.25 z m 1.8125,0 1.5,0 0,1.5 -1.5,0 L 42.6875,35.25 z m 1.84375,0 1.46875,0 0,1.5 -1.46875,0 L 44.53125,35.25 z m 1.84375,0 1.5,0 0,1.5 -1.5,0 L 46.375,35.25 z m -46.25,1.90625 1.5,0 0,1.46875 -1.5,0 L 0.125,37.15625 z m 1.875,0 1.46875,0 0,1.46875 L 2,38.625 2,37.15625 z m 1.8125,0 1.5,0 0,1.46875 -1.5,0 L 3.8125,37.15625 z m 1.875,0 1.4375,0 0,1.46875 -1.4375,0 L 5.6875,37.15625 z m 1.84375,0 1.5,0 0,1.46875 -1.5,0 L 7.53125,37.15625 z m 1.84375,0 1.46875,0 0,1.46875 -1.46875,0 L 9.375,37.15625 z m 1.875,0 1.5,0 0,1.46875 -1.5,0 L 11.25,37.15625 z m 1.84375,0 1.5,0 0,1.46875 -1.5,0 L 13.09375,37.15625 z m 1.84375,0 1.46875,0 0,1.46875 -1.46875,0 L 14.9375,37.15625 z m 1.84375,0 1.5,0 0,1.46875 -1.5,0 L 16.78125,37.15625 z m 1.84375,0 1.46875,0 0,1.46875 -1.46875,0 L 18.625,37.15625 z m 1.8125,0 1.5,0 0,1.46875 -1.5,0 L 20.4375,37.15625 z m 1.90625,0 1.5,0 0,1.46875 -1.5,0 L 22.34375,37.15625 z m 1.84375,0 1.46875,0 0,1.46875 -1.46875,0 L 24.1875,37.15625 z m 1.875,0 1.5,0 0,1.46875 -1.5,0 L 26.0625,37.15625 z m 1.84375,0 1.46875,0 0,1.46875 -1.46875,0 L 27.90625,37.15625 z m 1.8125,0 1.5,0 0,1.46875 -1.5,0 L 29.71875,37.15625 z m 1.875,0 1.46875,0 0,1.46875 -1.46875,0 L 31.59375,37.15625 z m 1.8125,0 1.5,0 0,1.46875 -1.5,0 L 33.40625,37.15625 z m 1.84375,0 1.5,0 0,1.46875 -1.5,0 L 35.25,37.15625 z m 1.90625,0 1.46875,0 0,1.46875 -1.46875,0 L 37.15625,37.15625 z m 1.8125,0 1.5,0 0,1.46875 -1.5,0 L 38.96875,37.15625 z m 1.90625,0 1.4375,0 0,1.46875 -1.4375,0 L 40.875,37.15625 z m 1.8125,0 1.5,0 0,1.46875 -1.5,0 L 42.6875,37.15625 z m 1.84375,0 1.46875,0 0,1.46875 -1.46875,0 L 44.53125,37.15625 z m 1.84375,0 1.5,0 0,1.46875 -1.5,0 L 46.375,37.15625 z m -46.25,1.8125 1.5,0 0,1.5 -1.5,0 L 0.125,38.96875 z m 1.875,0 1.46875,0 0,1.5 L 2,40.46875 2,38.96875 z m 1.8125,0 1.5,0 0,1.5 -1.5,0 L 3.8125,38.96875 z m 1.875,0 1.4375,0 0,1.5 -1.4375,0 L 5.6875,38.96875 z m 1.84375,0 1.5,0 0,1.5 -1.5,0 L 7.53125,38.96875 z m 1.84375,0 1.46875,0 0,1.5 -1.46875,0 L 9.375,38.96875 z m 1.875,0 1.5,0 0,1.5 -1.5,0 L 11.25,38.96875 z m 1.84375,0 1.5,0 0,1.5 -1.5,0 L 13.09375,38.96875 z m 1.84375,0 1.46875,0 0,1.5 -1.46875,0 L 14.9375,38.96875 z m 1.84375,0 1.5,0 0,1.5 -1.5,0 L 16.78125,38.96875 z m 1.84375,0 1.46875,0 0,1.5 -1.46875,0 L 18.625,38.96875 z m 1.8125,0 1.5,0 0,1.5 -1.5,0 L 20.4375,38.96875 z m 1.90625,0 1.5,0 0,1.5 -1.5,0 L 22.34375,38.96875 z m 1.84375,0 1.46875,0 0,1.5 -1.46875,0 L 24.1875,38.96875 z m 1.875,0 1.5,0 0,1.5 -1.5,0 L 26.0625,38.96875 z m 1.84375,0 1.46875,0 0,1.5 -1.46875,0 L 27.90625,38.96875 z m 1.8125,0 1.5,0 0,1.5 -1.5,0 L 29.71875,38.96875 z m 1.875,0 1.46875,0 0,1.5 -1.46875,0 L 31.59375,38.96875 z m 1.8125,0 1.5,0 0,1.5 -1.5,0 L 33.40625,38.96875 z m 1.84375,0 1.5,0 0,1.5 -1.5,0 L 35.25,38.96875 z m 1.90625,0 1.46875,0 0,1.5 -1.46875,0 L 37.15625,38.96875 z m 1.8125,0 1.5,0 0,1.5 -1.5,0 L 38.96875,38.96875 z m 1.90625,0 1.4375,0 0,1.5 -1.4375,0 L 40.875,38.96875 z m 1.8125,0 1.5,0 0,1.5 -1.5,0 L 42.6875,38.96875 z m 1.84375,0 1.46875,0 0,1.5 -1.46875,0 L 44.53125,38.96875 z m 1.84375,0 1.5,0 0,1.5 -1.5,0 L 46.375,38.96875 z m -46.25,1.90625 1.5,0 0,1.4375 -1.5,0 L 0.125,40.875 z m 1.875,0 1.46875,0 0,1.4375 L 2,42.3125 2,40.875 z m 1.8125,0 1.5,0 0,1.4375 -1.5,0 L 3.8125,40.875 z m 1.875,0 1.4375,0 0,1.4375 -1.4375,0 L 5.6875,40.875 z m 1.84375,0 1.5,0 0,1.4375 -1.5,0 L 7.53125,40.875 z m 1.84375,0 1.46875,0 0,1.4375 -1.46875,0 L 9.375,40.875 z m 1.875,0 1.5,0 0,1.4375 -1.5,0 L 11.25,40.875 z m 1.84375,0 1.5,0 0,1.4375 -1.5,0 L 13.09375,40.875 z m 1.84375,0 1.46875,0 0,1.4375 -1.46875,0 L 14.9375,40.875 z m 1.84375,0 1.5,0 0,1.4375 -1.5,0 L 16.78125,40.875 z m 1.84375,0 1.46875,0 0,1.4375 -1.46875,0 L 18.625,40.875 z m 1.8125,0 1.5,0 0,1.4375 -1.5,0 L 20.4375,40.875 z m 1.90625,0 1.5,0 0,1.4375 -1.5,0 L 22.34375,40.875 z m 1.84375,0 1.46875,0 0,1.4375 -1.46875,0 L 24.1875,40.875 z m 1.875,0 1.5,0 0,1.4375 -1.5,0 L 26.0625,40.875 z m 1.84375,0 1.46875,0 0,1.4375 -1.46875,0 L 27.90625,40.875 z m 1.8125,0 1.5,0 0,1.4375 -1.5,0 L 29.71875,40.875 z m 1.875,0 1.46875,0 0,1.4375 -1.46875,0 L 31.59375,40.875 z m 1.8125,0 1.5,0 0,1.4375 -1.5,0 L 33.40625,40.875 z m 1.84375,0 1.5,0 0,1.4375 -1.5,0 L 35.25,40.875 z m 1.90625,0 1.46875,0 0,1.4375 -1.46875,0 L 37.15625,40.875 z m 1.8125,0 1.5,0 0,1.4375 -1.5,0 L 38.96875,40.875 z m 1.90625,0 1.4375,0 0,1.4375 -1.4375,0 L 40.875,40.875 z m 1.8125,0 1.5,0 0,1.4375 -1.5,0 L 42.6875,40.875 z m 1.84375,0 1.46875,0 0,1.4375 -1.46875,0 L 44.53125,40.875 z m 1.84375,0 1.5,0 0,1.4375 -1.5,0 L 46.375,40.875 z m -46.25,1.8125 1.5,0 0,1.5 -1.5,0 L 0.125,42.6875 z m 1.875,0 1.46875,0 0,1.5 L 2,44.1875 2,42.6875 z m 1.8125,0 1.5,0 0,1.5 -1.5,0 L 3.8125,42.6875 z m 1.875,0 1.4375,0 0,1.5 -1.4375,0 L 5.6875,42.6875 z m 1.84375,0 1.5,0 0,1.5 -1.5,0 L 7.53125,42.6875 z m 1.84375,0 1.46875,0 0,1.5 -1.46875,0 L 9.375,42.6875 z m 1.875,0 1.5,0 0,1.5 -1.5,0 L 11.25,42.6875 z m 1.84375,0 1.5,0 0,1.5 -1.5,0 L 13.09375,42.6875 z m 1.84375,0 1.46875,0 0,1.5 -1.46875,0 L 14.9375,42.6875 z m 1.84375,0 1.5,0 0,1.5 -1.5,0 L 16.78125,42.6875 z m 1.84375,0 1.46875,0 0,1.5 -1.46875,0 L 18.625,42.6875 z m 1.8125,0 1.5,0 0,1.5 -1.5,0 L 20.4375,42.6875 z m 1.90625,0 1.5,0 0,1.5 -1.5,0 L 22.34375,42.6875 z m 1.84375,0 1.46875,0 0,1.5 -1.46875,0 L 24.1875,42.6875 z m 1.875,0 1.5,0 0,1.5 -1.5,0 L 26.0625,42.6875 z m 1.84375,0 1.46875,0 0,1.5 -1.46875,0 L 27.90625,42.6875 z m 1.8125,0 1.5,0 0,1.5 -1.5,0 L 29.71875,42.6875 z m 1.875,0 1.46875,0 0,1.5 -1.46875,0 L 31.59375,42.6875 z m 1.8125,0 1.5,0 0,1.5 -1.5,0 L 33.40625,42.6875 z m 1.84375,0 1.5,0 0,1.5 -1.5,0 L 35.25,42.6875 z m 1.90625,0 1.46875,0 0,1.5 -1.46875,0 L 37.15625,42.6875 z m 1.8125,0 1.5,0 0,1.5 -1.5,0 L 38.96875,42.6875 z m 1.90625,0 1.4375,0 0,1.5 -1.4375,0 L 40.875,42.6875 z m 1.8125,0 1.5,0 0,1.5 -1.5,0 L 42.6875,42.6875 z m 1.84375,0 1.46875,0 0,1.5 -1.46875,0 L 44.53125,42.6875 z m 1.84375,0 1.5,0 0,1.5 -1.5,0 L 46.375,42.6875 z m -46.25,1.84375 1.5,0 0,1.46875 -1.5,0 L 0.125,44.53125 z m 1.875,0 1.46875,0 0,1.46875 L 2,46 2,44.53125 z m 1.8125,0 1.5,0 0,1.46875 -1.5,0 L 3.8125,44.53125 z m 1.875,0 1.4375,0 L 7.125,46 5.6875,46 5.6875,44.53125 z m 1.84375,0 1.5,0 0,1.46875 -1.5,0 L 7.53125,44.53125 z m 1.84375,0 1.46875,0 0,1.46875 L 9.375,46 9.375,44.53125 z m 1.875,0 1.5,0 0,1.46875 -1.5,0 L 11.25,44.53125 z m 1.84375,0 1.5,0 0,1.46875 -1.5,0 L 13.09375,44.53125 z m 1.84375,0 1.46875,0 0,1.46875 L 14.9375,46 14.9375,44.53125 z m 1.84375,0 1.5,0 0,1.46875 -1.5,0 L 16.78125,44.53125 z m 1.84375,0 1.46875,0 0,1.46875 L 18.625,46 18.625,44.53125 z m 1.8125,0 1.5,0 0,1.46875 -1.5,0 L 20.4375,44.53125 z m 1.90625,0 1.5,0 0,1.46875 -1.5,0 L 22.34375,44.53125 z m 1.84375,0 1.46875,0 0,1.46875 L 24.1875,46 24.1875,44.53125 z m 1.875,0 1.5,0 0,1.46875 -1.5,0 L 26.0625,44.53125 z m 1.84375,0 1.46875,0 0,1.46875 -1.46875,0 L 27.90625,44.53125 z m 1.8125,0 1.5,0 0,1.46875 -1.5,0 L 29.71875,44.53125 z m 1.875,0 1.46875,0 0,1.46875 -1.46875,0 L 31.59375,44.53125 z m 1.8125,0 1.5,0 0,1.46875 -1.5,0 L 33.40625,44.53125 z m 1.84375,0 1.5,0 0,1.46875 -1.5,0 L 35.25,44.53125 z m 1.90625,0 1.46875,0 0,1.46875 -1.46875,0 L 37.15625,44.53125 z m 1.8125,0 1.5,0 0,1.46875 -1.5,0 L 38.96875,44.53125 z m 1.90625,0 1.4375,0 0,1.46875 L 40.875,46 40.875,44.53125 z m 1.8125,0 1.5,0 0,1.46875 -1.5,0 L 42.6875,44.53125 z m 1.84375,0 1.46875,0 L 46,46 44.53125,46 44.53125,44.53125 z m 1.84375,0 1.5,0 0,1.46875 -1.5,0 L 46.375,44.53125 Z M 2,46.375 l 1.46875,0 0,1.5 L 2,47.875 2,46.375 z m 1.8125,0 1.5,0 0,1.5 -1.5,0 L 3.8125,46.375 z m 1.875,0 1.4375,0 0,1.5 -1.4375,0 L 5.6875,46.375 z m 1.84375,0 1.5,0 0,1.5 -1.5,0 L 7.53125,46.375 z m 1.84375,0 1.46875,0 0,1.5 -1.46875,0 L 9.375,46.375 z m 1.875,0 1.5,0 0,1.5 -1.5,0 L 11.25,46.375 z m 1.84375,0 1.5,0 0,1.5 -1.5,0 L 13.09375,46.375 z m 1.84375,0 1.46875,0 0,1.5 -1.46875,0 L 14.9375,46.375 z m 1.84375,0 1.5,0 0,1.5 -1.5,0 L 16.78125,46.375 z m 1.84375,0 1.46875,0 0,1.5 -1.46875,0 L 18.625,46.375 z m 1.8125,0 1.5,0 0,1.5 -1.5,0 L 20.4375,46.375 z m 1.90625,0 1.5,0 0,1.5 -1.5,0 L 22.34375,46.375 z m 1.84375,0 1.46875,0 0,1.5 -1.46875,0 L 24.1875,46.375 z m 1.875,0 1.5,0 0,1.5 -1.5,0 L 26.0625,46.375 z m 1.84375,0 1.46875,0 0,1.5 -1.46875,0 L 27.90625,46.375 z m 1.8125,0 1.5,0 0,1.5 -1.5,0 L 29.71875,46.375 z m 1.875,0 1.46875,0 0,1.5 -1.46875,0 L 31.59375,46.375 z m 1.8125,0 1.5,0 0,1.5 -1.5,0 L 33.40625,46.375 z m 1.84375,0 1.5,0 0,1.5 -1.5,0 L 35.25,46.375 z m 1.90625,0 1.46875,0 0,1.5 -1.46875,0 L 37.15625,46.375 z m 1.8125,0 1.5,0 0,1.5 -1.5,0 L 38.96875,46.375 z m 1.90625,0 1.4375,0 0,1.5 -1.4375,0 L 40.875,46.375 z m 1.8125,0 1.5,0 0,1.5 -1.5,0 L 42.6875,46.375 z m 1.84375,0 1.46875,0 0,1.5 -1.46875,0 L 44.53125,46.375 Z"
       transform="translate(0,1004.3622)"
       id="path970"
       inkscape:connector-curvature="0" />
  </g>
  <g
     inkscape:groupmode="layer"
     id="layer2"
     inkscape:label="Capa 2">
    <g
       transform="matrix(1.2573276,0,0,1.2573276,-6.1758618,-1267.7882)"
       id="g4247"
       style="font-size:34.314785px;font-style:normal;font-variant:normal;font-weight:normal;font-stretch:normal;line-height:125%;letter-spacing:0px;word-spacing:0px;fill:#1a1a1a;fill-opacity:0.05882353;stroke:none;font-family:Decker;-inkscape-font-specification:Decker">
      <path
         id="path4249"
         style="fill:#1a1a1a;fill-opacity:0.05882353;font-family:Droid Serif;-inkscape-font-specification:Droid Serif"
         d="m 21.989368,1017.8231 0,9.9191 8.277101,0 0,1.6755 -8.277101,0 0,7.2886 q 0,0.8042 0.217818,1.2901 0.234574,0.4859 0.60319,0.754 0.385371,0.2513 0.904784,0.3351 0.519414,0.084 1.089093,0.084 l 1.139358,0 0,1.4409 -10.673105,0 0,-1.4409 0.435637,0 q 0.569679,0 1.072337,-0.067 0.519413,-0.084 0.904784,-0.3184 0.385372,-0.2346 0.60319,-0.687 0.234574,-0.4691 0.234574,-1.2231 l 0,-16.9898 q 0,-0.754 -0.234574,-1.2064 -0.217818,-0.4692 -0.60319,-0.7205 -0.385371,-0.2513 -0.904784,-0.3183 -0.502658,-0.084 -1.072337,-0.084 l -0.435637,0 0,-1.441 17.291435,0 0.167552,5.9984 -1.776058,0 -0.167552,-1.4744 q -0.06702,-0.5865 -0.268085,-1.0891 -0.201063,-0.5195 -0.586434,-0.8881 -0.368616,-0.3853 -0.938295,-0.6032 -0.569679,-0.2345 -1.373932,-0.2345 L 21.989368,1017.8231 Z"
         inkscape:connector-curvature="0" />
    </g>
    <g
       style="font-size:34.314785px;font-style:normal;font-variant:normal;font-weight:normal;font-stretch:normal;line-height:125%;letter-spacing:0px;word-spacing:0px;fill:#1a1a1a;fill-opacity:0.11764706;stroke:none;font-family:Decker;-inkscape-font-specification:Decker"
       id="g4243"
       transform="matrix(1.2573276,0,0,1.2573276,-6.1758618,-1268.1882)">
      <path
         inkscape:connector-curvature="0"
         d="m 21.989368,1017.8231 0,9.9191 8.277101,0 0,1.6755 -8.277101,0 0,7.2886 q 0,0.8042 0.217818,1.2901 0.234574,0.4859 0.60319,0.754 0.385371,0.2513 0.904784,0.3351 0.519414,0.084 1.089093,0.084 l 1.139358,0 0,1.4409 -10.673105,0 0,-1.4409 0.435637,0 q 0.569679,0 1.072337,-0.067 0.519413,-0.084 0.904784,-0.3184 0.385372,-0.2346 0.60319,-0.687 0.234574,-0.4691 0.234574,-1.2231 l 0,-16.9898 q 0,-0.754 -0.234574,-1.2064 -0.217818,-0.4692 -0.60319,-0.7205 -0.385371,-0.2513 -0.904784,-0.3183 -0.502658,-0.084 -1.072337,-0.084 l -0.435637,0 0,-1.441 17.291435,0 0.167552,5.9984 -1.776058,0 -0.167552,-1.4744 q -0.06702,-0.5865 -0.268085,-1.0891 -0.201063,-0.5195 -0.586434,-0.8881 -0.368616,-0.3853 -0.938295,-0.6032 -0.569679,-0.2345 -1.373932,-0.2345 L 21.989368,1017.8231 Z"
         style="fill:#1a1a1a;fill-opacity:0.11764706;font-family:Droid Serif;-inkscape-font-specification:Droid Serif"
         id="path4245" />
    </g>
    <g
       transform="matrix(1.2573276,0,0,1.2573276,-6.1758618,-1268.5882)"
       id="g4235"
       style="font-size:34.314785px;font-style:normal;font-variant:normal;font-weight:normal;font-stretch:normal;line-height:125%;letter-spacing:0px;word-spacing:0px;fill:#1a1a1a;fill-opacity:0.23529412;stroke:none;font-family:Decker;-inkscape-font-specification:Decker">
      <path
         id="path4237"
         style="fill:#1a1a1a;fill-opacity:0.23529412;font-family:Droid Serif;-inkscape-font-specification:Droid Serif"
         d="m 21.989368,1017.8231 0,9.9191 8.277101,0 0,1.6755 -8.277101,0 0,7.2886 q 0,0.8042 0.217818,1.2901 0.234574,0.4859 0.60319,0.754 0.385371,0.2513 0.904784,0.3351 0.519414,0.084 1.089093,0.084 l 1.139358,0 0,1.4409 -10.673105,0 0,-1.4409 0.435637,0 q 0.569679,0 1.072337,-0.067 0.519413,-0.084 0.904784,-0.3184 0.385372,-0.2346 0.60319,-0.687 0.234574,-0.4691 0.234574,-1.2231 l 0,-16.9898 q 0,-0.754 -0.234574,-1.2064 -0.217818,-0.4692 -0.60319,-0.7205 -0.385371,-0.2513 -0.904784,-0.3183 -0.502658,-0.084 -1.072337,-0.084 l -0.435637,0 0,-1.441 17.291435,0 0.167552,5.9984 -1.776058,0 -0.167552,-1.4744 q -0.06702,-0.5865 -0.268085,-1.0891 -0.201063,-0.5195 -0.586434,-0.8881 -0.368616,-0.3853 -0.938295,-0.6032 -0.569679,-0.2345 -1.373932,-0.2345 L 21.989368,1017.8231 Z"
         inkscape:connector-curvature="0" />
    </g>
    <g
       style="font-size:34.314785px;font-style:normal;font-variant:normal;font-weight:normal;font-stretch:normal;line-height:125%;letter-spacing:0px;word-spacing:0px;fill:url(#linearGradient4079);fill-opacity:1;stroke:none;font-family:Decker;-inkscape-font-specification:Decker"
       id="text3784-5"
       transform="matrix(1.2573276,0,0,1.2573276,-6.1758618,-1268.9882)">
      <path
         inkscape:connector-curvature="0"
         d="m 21.989368,1017.8231 0,9.9191 8.277101,0 0,1.6755 -8.277101,0 0,7.2886 q 0,0.8042 0.217818,1.2901 0.234574,0.4859 0.60319,0.754 0.385371,0.2513 0.904784,0.3351 0.519414,0.084 1.089093,0.084 l 1.139358,0 0,1.4409 -10.673105,0 0,-1.4409 0.435637,0 q 0.569679,0 1.072337,-0.067 0.519413,-0.084 0.904784,-0.3184 0.385372,-0.2346 0.60319,-0.687 0.234574,-0.4691 0.234574,-1.2231 l 0,-16.9898 q 0,-0.754 -0.234574,-1.2064 -0.217818,-0.4692 -0.60319,-0.7205 -0.385371,-0.2513 -0.904784,-0.3183 -0.502658,-0.084 -1.072337,-0.084 l -0.435637,0 0,-1.441 17.291435,0 0.167552,5.9984 -1.776058,0 -0.167552,-1.4744 q -0.06702,-0.5865 -0.268085,-1.0891 -0.201063,-0.5195 -0.586434,-0.8881 -0.368616,-0.3853 -0.938295,-0.6032 -0.569679,-0.2345 -1.373932,-0.2345 L 21.989368,1017.8231 Z"
         style="fill:url(#linearGradient4079);fill-opacity:1;font-family:Droid Serif;-inkscape-font-specification:Droid Serif"
         id="path868" />
    </g>
    <path
       style="font-size:34.314785px;font-style:normal;font-variant:normal;font-weight:normal;font-stretch:normal;line-height:125%;letter-spacing:0px;word-spacing:0px;fill:#1960a9;fill-opacity:0.31372549;stroke:none;font-family:Droid Serif;-inkscape-font-specification:Droid Serif"
       d="m 13.03125,9.6187266 0,0.7812504 0.53125,0 c 0.477515,0 0.922413,0.05459 1.34375,0.125 0.435381,0.05616 0.833225,0.164355 1.15625,0.375 0.323026,0.210644 0.567421,0.512958 0.75,0.90625 0.196624,0.37921 0.3125,0.899233 0.3125,1.53125 l 0,-0.8125 c 0,-0.632017 -0.115876,-1.12079 -0.3125,-1.5 -0.182579,-0.393293 -0.426974,-0.695606 -0.75,-0.90625 -0.323025,-0.2106447 -0.720869,-0.3500897 -1.15625,-0.4062504 -0.421337,-0.07041 -0.866235,-0.09375 -1.34375,-0.09375 L 13.03125,9.6187266 z m 8.4375,0.3125 0,0.8125004 7.09375,0 c 0.67414,0 1.241235,0.08469 1.71875,0.28125 0.477515,0.182648 0.878519,0.458285 1.1875,0.78125 0.323025,0.308967 0.550215,0.658295 0.71875,1.09375 0.168534,0.421288 0.28757,0.883385 0.34375,1.375 l 0.21875,1.875 2.21875,0 -0.03125,-0.8125 -2.1875,0 -0.21875,-1.84375 c -0.05618,-0.491615 -0.175214,-0.953712 -0.34375,-1.375 -0.168535,-0.435455 -0.395725,-0.816033 -0.71875,-1.125 -0.308981,-0.322965 -0.709985,-0.567352 -1.1875,-0.75 C 29.803735,10.047165 29.23664,9.9312266 28.5625,9.9312266 L 21.46875,9.9312266 z m 0,14.5937504 0,0.78125 10.40625,0 0,-0.78125 L 21.46875,24.524977 z m -8.4375,14.0625 0,0.8125 13.40625,0 0,-0.8125 L 13.03125,38.587477 Z"
       id="path4115"
       inkscape:connector-curvature="0" />
    <path
       style="font-size:34.314785px;font-style:normal;font-variant:normal;font-weight:normal;font-stretch:normal;line-height:125%;letter-spacing:0px;word-spacing:0px;fill:#ffffff;fill-opacity:0.23529412;stroke:none;font-family:Droid Serif;-inkscape-font-specification:Droid Serif"
       d="m 13.03125,8.5999769 0,0.40625 21.71875,0 0,-0.40625 L 13.03125,8.5999769 z m 8.4375,14.6250001 0,0.40625 10.40625,0 0,-0.40625 L 21.46875,23.224977 z m 0,11.28125 0,0.40625 c 0,0.674095 0.09867,1.18646 0.28125,1.59375 0.196624,0.407291 0.441019,0.744024 0.75,0.96875 0.323025,0.210645 0.720869,0.336007 1.15625,0.40625 0.435383,0.07041 0.866235,0.125 1.34375,0.125 l 1.4375,0 0,-0.40625 -1.4375,0 c -0.477515,0 -0.908367,-0.05459 -1.34375,-0.125 C 23.220869,37.404734 22.823025,37.279372 22.5,37.068727 22.191019,36.844001 21.946624,36.538518 21.75,36.131227 21.567421,35.723937 21.46875,35.180322 21.46875,34.506227 z m -4.34375,0.1875 c 0,0.632017 -0.115876,1.169292 -0.3125,1.5625 -0.182579,0.37921 -0.426974,0.647104 -0.75,0.84375 -0.323025,0.196479 -0.720869,0.33584 -1.15625,0.40625 -0.421337,0.05616 -0.866235,0.09375 -1.34375,0.09375 l -0.53125,0 0,0.40625 0.53125,0 c 0.477515,0 0.922413,-0.03759 1.34375,-0.09375 0.435381,-0.07041 0.833225,-0.209771 1.15625,-0.40625 0.323026,-0.196646 0.567421,-0.49579 0.75,-0.875 0.196624,-0.393208 0.3125,-0.899233 0.3125,-1.53125 L 17.125,34.693727 Z"
       id="path4126"
       inkscape:connector-curvature="0" />
  </g>
</svg>
