<?xml version="1.0" encoding="UTF-8" standalone="no"?>
<!-- Created with Inkscape (http://www.inkscape.org/) -->

<svg
   xmlns:dc="http://purl.org/dc/elements/1.1/"
   xmlns:cc="http://creativecommons.org/ns#"
   xmlns:rdf="http://www.w3.org/1999/02/22-rdf-syntax-ns#"
   xmlns:svg="http://www.w3.org/2000/svg"
   xmlns="http://www.w3.org/2000/svg"
   xmlns:xlink="http://www.w3.org/1999/xlink"
   xmlns:sodipodi="http://sodipodi.sourceforge.net/DTD/sodipodi-0.dtd"
   xmlns:inkscape="http://www.inkscape.org/namespaces/inkscape"
   width="48"
   height="48"
   id="svg944"
   version="1.1"
   inkscape:version="0.48+devel r12487"
   sodipodi:docname="acetoneiso.svg">
  <defs
     id="defs946">
    <linearGradient
       id="linearGradient2113"
       inkscape:collect="always">
      <stop
         id="stop2115"
         offset="0"
         style="stop-color:#22002b;stop-opacity:1" />
      <stop
         id="stop2117"
         offset="1"
         style="stop-color:#800066;stop-opacity:1" />
    </linearGradient>
    <linearGradient
       y2="1053.017"
       x2="13.253634"
       y1="1004.7622"
       x1="13.253634"
       gradientTransform="matrix(1,0,0,-1,0,1052.3622)"
       gradientUnits="userSpaceOnUse"
       id="linearGradient900"
       xlink:href="#linearGradient2113"
       inkscape:collect="always" />
  </defs>
  <sodipodi:namedview
     id="base"
     pagecolor="#ffffff"
     bordercolor="#666666"
     borderopacity="1.0"
     inkscape:pageopacity="0.0"
     inkscape:pageshadow="2"
     inkscape:zoom="4.8882446"
     inkscape:cx="9.6475357"
     inkscape:cy="28.306311"
     inkscape:document-units="px"
     inkscape:current-layer="layer1"
     showgrid="false"
     width="0px"
     height="0px"
     fit-margin-top="0"
     fit-margin-left="0"
     fit-margin-right="0"
     fit-margin-bottom="0"
     inkscape:window-width="1366"
     inkscape:window-height="718"
     inkscape:window-x="0"
     inkscape:window-y="28"
     inkscape:window-maximized="1">
    <inkscape:grid
       type="xygrid"
       id="grid1823"
       empspacing="5"
       visible="true"
       enabled="true"
       snapvisiblegridlinesonly="true" />
  </sodipodi:namedview>
  <metadata
     id="metadata949">
    <rdf:RDF>
      <cc:Work
         rdf:about="">
        <dc:format>image/svg+xml</dc:format>
        <dc:type
           rdf:resource="http://purl.org/dc/dcmitype/StillImage" />
        <dc:title />
      </cc:Work>
    </rdf:RDF>
  </metadata>
  <g
     inkscape:label="Capa 1"
     inkscape:groupmode="layer"
     id="layer1"
     transform="translate(-1640.5564,-364.34714)">
    <rect
       style="fill:#ffffff;fill-opacity:1;stroke:none"
       id="rect2991-1"
       width="48"
       height="48"
       x="1640.5564"
       y="-412.61673"
       ry="1.9445436"
       transform="scale(1,-1)" />
    <path
       style="fill:#333333;fill-opacity:1;stroke:none"
       d="M 28 0 C 24.222161 0 20.648161 0.88244332 17.46875 2.4375 L 17.46875 45.5625 C 20.648161 47.117557 24.222161 48 28 48 C 36.349684 48 43.700701 43.719157 48 37.25 L 48 10.75 C 43.700701 4.2808432 36.349684 0 28 0 z M 28 19.5625 C 30.4547 19.5625 32.4375 21.5454 32.4375 24 C 32.4375 26.4546 30.4547 28.4375 28 28.4375 C 25.5453 28.4375 23.5625 26.4546 23.5625 24 C 23.5625 21.5454 25.5453 19.5625 28 19.5625 z "
       transform="translate(1640.5564,364.34714)"
       id="path3264" />
    <rect
       style="fill:none;stroke:none"
       id="rect1526"
       width="48"
       height="48"
       x="1640.5564"
       y="364.34714"
       ry="0" />
    <path
       style="fill:#cccccc;fill-opacity:1;stroke:none"
       d="m 1668.5564,380.34714 c -4.4183,0 -8,3.58172 -8,8 0,4.41828 3.5817,8 8,8 4.4183,0 8,-3.58172 8,-8 C 1676.5564,383.92886 1672.9747,380.34714 1668.5564,380.34714 z m 0,4.44444 c 1.9637,0 3.5556,1.59188 3.5556,3.55556 0,1.96368 -1.5919,3.55556 -3.5556,3.55556 -1.9637,0 -3.5556,-1.59188 -3.5556,-3.55556 C 1665.0008,386.38346 1666.5927,384.79158 1668.5564,384.79158 Z"
       id="path4075"
       inkscape:connector-curvature="0" />
    <path
       style="fill:#999999;fill-opacity:1;stroke:none"
       d="m 1668.5563,380.56936 c -4.2954,0 -7.7777,3.48229 -7.7777,7.77778 0,4.29549 3.4823,7.77778 7.7777,7.77778 4.2955,0 7.7778,-3.48229 7.7778,-7.77778 C 1676.3341,384.05165 1672.8518,380.56936 1668.5563,380.56936 z m 0,0.30378 c 4.1347,0 7.4734,3.33956 7.4734,7.474 0,4.13443 -3.3387,7.474 -7.4734,7.474 -4.1345,0 -7.5036,-3.33957 -7.5036,-7.474 C 1661.0526,384.21271 1664.4218,380.87314 1668.5563,380.87314 Z"
       id="path4124"
       inkscape:connector-curvature="0" />
    <path
       inkscape:connector-curvature="0"
       id="path4130"
       d="m 1668.5563,384.39154 c -2.1856,0 -3.9555,1.771 -3.9555,3.9556 0,2.1847 1.7699,3.9556 3.9555,3.9556 2.1857,0 3.9556,-1.7709 3.9556,-3.9556 C 1672.5119,386.16254 1670.742,384.39154 1668.5563,384.39154 z m 0,0.15471 c 2.1013,0 3.8013,1.69832 3.8013,3.80089 0,2.10256 -1.7001,3.80093 -3.8013,3.80093 -2.1011,0 -3.8171,-1.69837 -3.8171,-3.80093 C 1664.7392,386.24458 1666.4552,384.54625 1668.5563,384.54625 Z"
       style="fill:#b3b3b3;fill-opacity:1;stroke:none" />
    <path
       style="fill:url(#linearGradient900);fill-opacity:1;stroke:none"
       d="M 1.9375 0 C 0.86022285 0 0 0.86022285 0 1.9375 L 0 46.0625 C 0 47.139777 0.86022285 48 1.9375 48 L 30.53125 48 L 30.53125 0 L 1.9375 0 z "
       id="rect2991"
       transform="translate(1640.5564,364.34714)" />
    <rect
       ry="0"
       y="375.1496"
       x="1644.1206"
       height="3.6305587"
       width="7.0516949"
       id="rect4068"
       style="fill:#ffffff;fill-opacity:1;stroke:none" />
    <rect
       style="fill:#ffffff;fill-opacity:1;stroke:none"
       id="rect4066"
       width="14.22144"
       height="3.6305587"
       x="1644.1206"
       y="371.04797"
       ry="0" />
    <g
       style="font-size:3.24407005px;font-style:normal;font-weight:normal;line-height:125%;letter-spacing:0px;word-spacing:0px;fill:#333333;fill-opacity:1;stroke:none;font-family:Impact;-inkscape-font-specification:Impact"
       id="text4094">
      <path
         d="m 1646.8799,371.58098 0.3817,2.56453 -0.6827,0 -0.033,-0.46095 -0.2392,0 -0.04,0.46095 -0.6906,0 0.339,-2.56453 L 1646.8799,371.58098 z m -0.3533,1.64897 q -0.051,-0.43561 -0.1014,-1.07555 -0.1013,0.73498 -0.1267,1.07555 L 1646.5266,373.22995 Z"
         style="fill:#333333"
         id="path4110" />
      <path
         d="m 1648.9327,372.6993 -0.6668,0 0,-0.44669 q 0,-0.19484 -0.022,-0.24236 -0.021,-0.0491 -0.093,-0.0491 -0.082,0 -0.1045,0.0586 -0.022,0.0586 -0.022,0.25345 l 0,1.19118 q 0,0.18691 0.022,0.24394 0.022,0.057 0.1,0.057 0.074,0 0.097,-0.057 0.024,-0.057 0.024,-0.2677 l 0,-0.32156 0.6668,0 0,0.0998 q 0,0.39759 -0.057,0.56391 -0.055,0.16632 -0.2487,0.29146 -0.1916,0.12513 -0.4736,0.12513 -0.293,0 -0.4831,-0.10612 -0.1901,-0.10613 -0.2519,-0.29305 -0.062,-0.1885 -0.062,-0.56549 l 0,-0.74924 q 0,-0.27721 0.019,-0.41502 0.019,-0.13939 0.1124,-0.2677 0.095,-0.1283 0.2614,-0.20117 0.1679,-0.0744 0.3849,-0.0744 0.2946,0 0.4863,0.11404 0.1917,0.11405 0.2518,0.28513 0.06,0.16949 0.06,0.52906 L 1648.9327,372.6993 Z"
         style="fill:#333333"
         id="path4112" />
      <path
         d="m 1649.1751,371.58098 1.112,0 0,0.51322 -0.4451,0 0,0.4863 0.4166,0 0,0.48788 -0.4166,0 0,0.56391 0.4894,0 0,0.51322 -1.1563,0 L 1649.1751,371.58098 Z"
         style="fill:#333333"
         id="path4114" />
      <path
         d="m 1651.8236,371.58098 0,0.51322 -0.396,0 0,2.05131 -0.6669,0 0,-2.05131 -0.3944,0 0,-0.51322 L 1651.8236,371.58098 Z"
         style="fill:#333333"
         id="path4116" />
      <path
         d="m 1653.4995,373.08263 q 0,0.3865 -0.019,0.54807 -0.017,0.15999 -0.1141,0.29305 -0.095,0.13305 -0.2582,0.20433 -0.1631,0.0713 -0.3801,0.0713 -0.206,0 -0.3707,-0.0665 -0.1632,-0.0681 -0.263,-0.20276 -0.1,-0.13464 -0.1188,-0.29304 -0.019,-0.1584 -0.019,-0.55441 l 0,-0.43877 q 0,-0.3865 0.017,-0.54649 0.019,-0.16157 0.114,-0.29463 0.097,-0.13305 0.2598,-0.20433 0.1631,-0.0713 0.3802,-0.0713 0.2059,0 0.369,0.0681 0.1648,0.0665 0.2646,0.20117 0.1,0.13464 0.1188,0.29304 0.019,0.1584 0.019,0.55441 L 1653.4995,373.08263 z m -0.6669,-0.8427 q 0,-0.17899 -0.021,-0.2281 -0.019,-0.0507 -0.081,-0.0507 -0.052,0 -0.081,0.0412 -0.027,0.0396 -0.027,0.2376 l 0,1.19752 q 0,0.22335 0.017,0.27562 0.019,0.0523 0.086,0.0523 0.068,0 0.087,-0.0602 0.019,-0.0602 0.019,-0.28671 L 1652.8326,372.23993 Z"
         style="fill:#333333"
         id="path4118" />
      <path
         d="m 1655.2387,371.58098 0,2.56453 -0.5845,0 -0.3469,-1.16584 0,1.16584 -0.5576,0 0,-2.56453 0.5576,0 0.3738,1.15475 0,-1.15475 L 1655.2387,371.58098 Z"
         style="fill:#333333"
         id="path4120" />
      <path
         d="m 1655.5048,371.58098 1.112,0 0,0.51322 -0.4451,0 0,0.4863 0.4166,0 0,0.48788 -0.4166,0 0,0.56391 0.4895,0 0,0.51322 -1.1564,0 L 1655.5048,371.58098 Z"
         style="fill:#333333"
         id="path4122" />
    </g>
    <g
       style="font-size:3.24407005px;font-style:normal;font-weight:normal;line-height:125%;letter-spacing:0px;word-spacing:0px;fill:#333333;fill-opacity:1;stroke:none;font-family:Impact;-inkscape-font-specification:Impact"
       id="text4098">
      <path
         d="m 1646.243,375.68261 0,2.56452 -0.6668,0 0,-2.56452 L 1646.243,375.68261 Z"
         style="fill:#333333"
         id="path4103" />
      <path
         d="m 1647.9269,376.45877 -0.6194,0 0,-0.19008 q 0,-0.13306 -0.024,-0.16949 -0.024,-0.0364 -0.079,-0.0364 -0.06,0 -0.092,0.0491 -0.03,0.0491 -0.03,0.1489 0,0.12831 0.035,0.19325 0.033,0.065 0.1885,0.15682 0.4451,0.26453 0.5608,0.43402 0.1156,0.16949 0.1156,0.54649 0,0.27403 -0.065,0.40392 -0.063,0.12989 -0.2472,0.2186 -0.1837,0.0871 -0.4276,0.0871 -0.2677,0 -0.4578,-0.10138 -0.1885,-0.10138 -0.2471,-0.25819 -0.059,-0.15682 -0.059,-0.44511 l 0,-0.16791 0.6193,0 0,0.31205 q 0,0.14415 0.025,0.18533 0.027,0.0412 0.093,0.0412 0.066,0 0.098,-0.0523 0.033,-0.0523 0.033,-0.15523 0,-0.22651 -0.062,-0.29621 -0.063,-0.0697 -0.312,-0.23285 -0.2487,-0.16474 -0.3295,-0.23919 -0.081,-0.0745 -0.1347,-0.20592 -0.052,-0.13147 -0.052,-0.33581 0,-0.29463 0.074,-0.43086 0.076,-0.13622 0.244,-0.21225 0.1679,-0.0776 0.4055,-0.0776 0.2597,0 0.4419,0.0839 0.1838,0.084 0.2424,0.21226 0.06,0.12672 0.06,0.43244 L 1647.9269,376.45877 Z"
         style="fill:#333333"
         id="path4105" />
      <path
         d="m 1649.7168,377.18425 q 0,0.38651 -0.019,0.54808 -0.017,0.15998 -0.1141,0.29304 -0.095,0.13306 -0.2582,0.20434 -0.1631,0.0713 -0.3801,0.0713 -0.2059,0 -0.3707,-0.0665 -0.1631,-0.0681 -0.2629,-0.20276 -0.1,-0.13464 -0.1188,-0.29304 -0.019,-0.1584 -0.019,-0.55441 l 0,-0.43877 q 0,-0.3865 0.017,-0.54648 0.019,-0.16157 0.114,-0.29463 0.097,-0.13306 0.2598,-0.20434 0.1632,-0.0713 0.3802,-0.0713 0.2059,0 0.3691,0.0681 0.1647,0.0665 0.2645,0.20117 0.1,0.13464 0.1188,0.29305 0.019,0.1584 0.019,0.5544 L 1649.7168,377.18425 z m -0.6669,-0.84269 q 0,-0.179 -0.021,-0.2281 -0.019,-0.0507 -0.081,-0.0507 -0.052,0 -0.081,0.0412 -0.027,0.0396 -0.027,0.23761 l 0,1.19752 q 0,0.22334 0.018,0.27561 0.019,0.0523 0.085,0.0523 0.068,0 0.087,-0.0602 0.019,-0.0602 0.019,-0.2867 L 1649.0499,376.34156 Z"
         style="fill:#333333"
         id="path4107" />
    </g>
    <path
       inkscape:connector-curvature="0"
       style="fill:#000000;fill-opacity:1;stroke:none"
       d="m 1640.5564,409.61675 0,1.0625 c 0,1.0773 0.8602,1.9375 1.9375,1.9375 l 44.125,0 c 1.0773,0 1.9375,-0.8602 1.9375,-1.9375 l 0,-1.0625 c 0,1.0773 -0.8602,1.9375 -1.9375,1.9375 l -44.125,0 C 1641.4166,411.55425 1640.5564,410.69405 1640.5564,409.61675 Z"
       id="rect846" />
    <path
       inkscape:connector-curvature="0"
       style="fill:#ffffff;fill-opacity:0.5372549;stroke:none"
       d="m 1643.0876,365.27305 c -0.917,0 -1.6711,0.6395 -1.8437,1.5 0.3356,-0.2799 0.7745,-0.4375 1.25,-0.4375 l 44.125,0 c 0.4755,0 0.9144,0.1576 1.25,0.4375 -0.1726,-0.8605 -0.9267,-1.5 -1.8437,-1.5 L 1643.0876,365.27305 Z"
       id="path7515" />
    <path
       inkscape:connector-curvature="0"
       style="fill:#000000;fill-opacity:0.39215686;stroke:none"
       d="m 1642.4939,364.61675 c -1.0773,0 -1.9375,0.8602 -1.9375,1.9375 l 0,43.0625 c 0,0.7934 0.48,1.449 1.1562,1.75 -0.3093,-0.3333 -0.5,-0.7824 -0.5,-1.2812 l 0,-42.9375 c 0,-1.0482 0.8269,-1.875 1.875,-1.875 l 42.9376,0 c 1.0481,0 1.875,0.8268 1.875,1.875 l 0,42.9375 c 0,0.4988 -0.1907,0.9479 -0.5,1.2812 0.6762,-0.301 1.1562,-0.9566 1.1562,-1.75 l 0,-43.0625 c 0,-1.0773 -0.8602,-1.9375 -1.9375,-1.9375 L 1642.4939,364.61675 Z"
       id="rect4280-1" />
  </g>
</svg>
