<?xml version="1.0" encoding="UTF-8" standalone="no"?>
<!-- Created with Inkscape (http://www.inkscape.org/) -->

<svg
   xmlns:dc="http://purl.org/dc/elements/1.1/"
   xmlns:cc="http://creativecommons.org/ns#"
   xmlns:rdf="http://www.w3.org/1999/02/22-rdf-syntax-ns#"
   xmlns:svg="http://www.w3.org/2000/svg"
   xmlns="http://www.w3.org/2000/svg"
   xmlns:xlink="http://www.w3.org/1999/xlink"
   xmlns:sodipodi="http://sodipodi.sourceforge.net/DTD/sodipodi-0.dtd"
   xmlns:inkscape="http://www.inkscape.org/namespaces/inkscape"
   width="48"
   height="48"
   id="svg2"
   version="1.1"
   inkscape:version="0.48+devel r12510"
   sodipodi:docname="AdobeReader.svg"
   inkscape:export-filename="/home/uri/workspace/nitruxforAndroid/res/drawable-xhdpi/adobereader.png"
   inkscape:export-xdpi="180"
   inkscape:export-ydpi="180">
  <defs
     id="defs4">
    <linearGradient
       id="linearGradient4053">
      <stop
         id="stop4055"
         offset="0"
         style="stop-color:#ffcdcd;stop-opacity:1" />
      <stop
         id="stop4057"
         offset="1"
         style="stop-color:#fff5f5;stop-opacity:1" />
    </linearGradient>
    <linearGradient
       id="linearGradient868">
      <stop
         style="stop-color:#aa0000;stop-opacity:1"
         offset="0"
         id="stop870" />
      <stop
         style="stop-color:#ff3939;stop-opacity:1"
         offset="1"
         id="stop872" />
    </linearGradient>
    <linearGradient
       inkscape:collect="always"
       xlink:href="#linearGradient868"
       id="linearGradient844"
       x1="24.176777"
       y1="-1052.1854"
       x2="24.176777"
       y2="-1005.2044"
       gradientUnits="userSpaceOnUse" />
    <linearGradient
       inkscape:collect="always"
       xlink:href="#linearGradient4053"
       id="linearGradient4051"
       x1="26.329329"
       y1="1043.7521"
       x2="26.329329"
       y2="1012.9306"
       gradientUnits="userSpaceOnUse" />
  </defs>
  <sodipodi:namedview
     id="base"
     pagecolor="#ffffff"
     bordercolor="#666666"
     borderopacity="1.0"
     inkscape:pageopacity="0.0"
     inkscape:pageshadow="2"
     inkscape:zoom="6.2421875"
     inkscape:cx="-35.057595"
     inkscape:cy="39.191648"
     inkscape:document-units="px"
     inkscape:current-layer="layer1"
     showgrid="false"
     inkscape:window-width="1366"
     inkscape:window-height="718"
     inkscape:window-x="0"
     inkscape:window-y="30"
     inkscape:window-maximized="1" />
  <metadata
     id="metadata7">
    <rdf:RDF>
      <cc:Work
         rdf:about="">
        <dc:format>image/svg+xml</dc:format>
        <dc:type
           rdf:resource="http://purl.org/dc/dcmitype/StillImage" />
        <dc:title />
      </cc:Work>
    </rdf:RDF>
  </metadata>
  <g
     inkscape:label="Capa 1"
     inkscape:groupmode="layer"
     id="layer1"
     transform="translate(0,-1004.3622)">
    <rect
       style="fill:url(#linearGradient844);fill-opacity:1;stroke:none"
       id="rect2991-1"
       width="48"
       height="48"
       x="7.3376464e-07"
       y="-1052.3622"
       ry="1.9445436"
       transform="scale(1,-1)" />
    <path
       d="m 22.224808,1014.1623 c -0.531028,0 -0.635771,0.023 -0.849388,0.204 -0.425283,0.3562 -0.667641,1.4534 -0.665186,3.0476 0.0023,1.6494 0.228301,3.2187 0.747054,5.2607 l 0.327478,1.2737 -0.30701,0.9586 c -0.975118,3.1161 -2.388857,6.3594 -4.472094,10.2447 -3.157237,5.8904 -5.597214,8.9819 -7.2965794,9.257 -0.273425,0.042 -0.286541,0.035 -0.286541,-0.1632 0,-0.9943 1.8847784,-3.4798 3.9808814,-5.2498 1.070729,-0.9046 -0.175293,-0.3004 -1.616913,0.7846 -1.452787,1.0932 -2.6561979,2.5109 -3.0291545,3.5677 -0.2652006,0.7518 -0.2091012,1.0176 0.2763079,1.264 0.8673002,0.441 1.3086596,0.4587 2.0467256,0.092 1.434702,-0.7127 3.332055,-2.9661 5.44429,-6.4634 0.684893,-1.1337 0.899807,-1.4168 1.07453,-1.4168 0.06155,0 0.708828,-0.18 1.432709,-0.3975 2.893191,-0.8722 6.367239,-1.5759 9.773116,-1.988 l 1.135932,-0.1432 0.573083,0.2859 c 1.492472,0.7489 3.57205,1.4749 5.096348,1.7734 1.030942,0.2022 2.373427,0.2397 2.824481,0.082 0.284209,-0.099 0.876276,-0.4499 0.876283,-0.5654 -1.156898,0.5422 -2.900668,-0.1278 -4.212447,-0.5148 -0.864896,-0.2723 -2.768288,-1.0169 -2.875647,-1.1216 2.304559,-0.4457 6.627389,-0.5448 7.091902,1.0499 0.136098,-10e-5 0.101128,-0.6401 -0.0512,-0.8965 -0.28523,-0.4815 -1.111743,-0.8699 -2.302567,-1.0913 -0.964124,-0.1792 -3.248662,-0.2295 -5.034946,-0.1119 l -1.586214,0.1018 -0.573082,-0.3465 c -3.286108,-1.9913 -5.026486,-4.2366 -6.60069,-8.5022 -0.236233,-0.6404 -0.252128,-0.7284 -0.173972,-1.1319 0.275173,-1.4207 0.53054,-6.2217 0.33771,-6.3403 -0.351202,1.5729 -0.635218,3.1462 -0.992661,4.5667 -0.07384,0 -0.290174,-1.1068 -0.460516,-2.3953 -0.18533,-1.4024 -0.118025,-3.2987 0.13304,-3.9455 0.100604,-0.2587 0.231828,-0.495 0.296773,-0.5199 0.643543,0.1844 1.001715,0.6942 1.094998,1.478 0.09131,0 0.11476,-0.1496 0.133039,-0.6316 C 23.574923,1014.4572 23.290685,1014.1623 22.224808,1014.1623 z m 0.255839,11.7032 c 0.03644,-0.01 0.05721,0.068 0.102335,0.1935 0.05553,0.1561 0.366463,0.7936 0.685654,1.4171 1.373398,2.6814 2.894279,4.44 5.086114,5.8815 0.111045,0.072 0.179653,0.1568 0.153505,0.1835 -0.02612,0.023 -0.472302,0.1233 -0.982428,0.214 -3.478669,0.6199 -7.809506,1.9232 -9.916387,2.9766 -0.03351,0.018 -0.06138,-0.017 -0.06138,-0.069 1e-6,-0.054 0.207097,-0.4867 0.470746,-0.9582 1.985828,-3.5525 3.320216,-6.4231 4.072982,-8.7875 C 22.330574,1026.1651 22.419863,1025.8842 22.480647,1025.8655 Z"
       inkscape:connector-curvature="0"
       id="path4043"
       style="fill:#000000;fill-opacity:0.05882353;fill-rule:nonzero;stroke:none;enable-background:new" />
    <path
       style="fill:#000000;fill-opacity:0.11764706;fill-rule:nonzero;stroke:none;enable-background:new"
       id="path4041"
       inkscape:connector-curvature="0"
       d="m 22.224808,1013.7623 c -0.531028,0 -0.635771,0.023 -0.849388,0.204 -0.425283,0.3562 -0.667641,1.4534 -0.665186,3.0476 0.0023,1.6494 0.228301,3.2187 0.747054,5.2607 l 0.327478,1.2737 -0.30701,0.9586 c -0.975118,3.1161 -2.388857,6.3594 -4.472094,10.2447 -3.157237,5.8904 -5.597214,8.9819 -7.2965794,9.257 -0.273425,0.042 -0.286541,0.035 -0.286541,-0.1632 0,-0.9943 1.8847784,-3.4798 3.9808814,-5.2498 1.070729,-0.9046 -0.175293,-0.3004 -1.616913,0.7846 -1.452787,1.0932 -2.6561979,2.5109 -3.0291545,3.5677 -0.2652006,0.7518 -0.2091012,1.0176 0.2763079,1.264 0.8673002,0.441 1.3086596,0.4587 2.0467256,0.092 1.434702,-0.7127 3.332055,-2.9661 5.44429,-6.4634 0.684893,-1.1337 0.899807,-1.4168 1.07453,-1.4168 0.06155,0 0.708828,-0.18 1.432709,-0.3975 2.893191,-0.8722 6.367239,-1.5759 9.773116,-1.988 l 1.135932,-0.1432 0.573083,0.2859 c 1.492472,0.7489 3.57205,1.4749 5.096348,1.7734 1.030942,0.2022 2.373427,0.2397 2.824481,0.082 0.284209,-0.099 0.876276,-0.4499 0.876283,-0.5654 -1.156898,0.5422 -2.900668,-0.1278 -4.212447,-0.5148 -0.864896,-0.2723 -2.768288,-1.0169 -2.875647,-1.1216 2.304559,-0.4457 6.627389,-0.5448 7.091902,1.0499 0.136098,-10e-5 0.101128,-0.6401 -0.0512,-0.8965 -0.28523,-0.4815 -1.111743,-0.8699 -2.302567,-1.0913 -0.964124,-0.1792 -3.248662,-0.2295 -5.034946,-0.1119 l -1.586214,0.1018 -0.573082,-0.3465 c -3.286108,-1.9913 -5.026486,-4.2366 -6.60069,-8.5022 -0.236233,-0.6404 -0.252128,-0.7284 -0.173972,-1.1319 0.275173,-1.4207 0.53054,-6.2217 0.33771,-6.3403 -0.351202,1.5729 -0.635218,3.1462 -0.992661,4.5667 -0.07384,0 -0.290174,-1.1068 -0.460516,-2.3953 -0.18533,-1.4024 -0.118025,-3.2987 0.13304,-3.9455 0.100604,-0.2587 0.231828,-0.495 0.296773,-0.5199 0.643543,0.1844 1.001715,0.6942 1.094998,1.478 0.09131,0 0.11476,-0.1496 0.133039,-0.6316 C 23.574923,1014.0572 23.290685,1013.7623 22.224808,1013.7623 z m 0.255839,11.7032 c 0.03644,-0.01 0.05721,0.068 0.102335,0.1935 0.05553,0.1561 0.366463,0.7936 0.685654,1.4171 1.373398,2.6814 2.894279,4.44 5.086114,5.8815 0.111045,0.072 0.179653,0.1568 0.153505,0.1835 -0.02612,0.023 -0.472302,0.1233 -0.982428,0.214 -3.478669,0.6199 -7.809506,1.9232 -9.916387,2.9766 -0.03351,0.018 -0.06138,-0.017 -0.06138,-0.069 1e-6,-0.054 0.207097,-0.4867 0.470746,-0.9582 1.985828,-3.5525 3.320216,-6.4231 4.072982,-8.7875 C 22.330574,1025.7651 22.419863,1025.4842 22.480647,1025.4655 Z" />
    <path
       inkscape:connector-curvature="0"
       style="fill:#000000;fill-opacity:1;stroke:none"
       d="m -7.3376464e-7,1049.3622 0,1.0625 c 0,1.0773 0.86022300376464,1.9375 1.93750003376464,1.9375 l 44.1249997,0 c 1.077278,0 1.937501,-0.8602 1.937501,-1.9375 l 0,-1.0625 c 0,1.0773 -0.860223,1.9375 -1.937501,1.9375 l -44.1249997,0 C 0.86022227,1051.2997 -7.3376464e-7,1050.4395 -7.3376464e-7,1049.3622 Z"
       id="rect846" />
    <path
       inkscape:connector-curvature="0"
       style="fill:#ffffff;fill-opacity:0.5372549;stroke:none"
       d="m 2.5312493,1005.0185 c -0.917088,0 -1.67114603,0.6395 -1.84375003,1.5 0.33561203,-0.2799 0.77451303,-0.4375 1.25000003,-0.4375 l 44.1249997,0 c 0.475488,0 0.914388,0.1576 1.250001,0.4375 -0.172603,-0.8605 -0.926663,-1.5 -1.843751,-1.5 L 2.5312493,1005.0185 Z"
       id="path7515" />
    <path
       inkscape:connector-curvature="0"
       style="fill:#000000;fill-opacity:0.39215686;stroke:none"
       d="m 1.9374993,1004.3622 c -1.07727703,0 -1.93750003376464,0.8602 -1.93750003376464,1.9375 l 0,43.0625 c 0,0.7934 0.48002400376464,1.449 1.15625003376464,1.75 -0.30934103,-0.3333 -0.50000003,-0.7824 -0.50000003,-1.2812 l 0,-42.9375 c 0,-1.0482 0.82689903,-1.875 1.87500003,-1.875 l 42.9374997,0 c 1.048101,0 1.875001,0.8268 1.875001,1.875 l 0,42.9375 c 0,0.4988 -0.190658,0.9479 -0.500001,1.2812 0.676227,-0.301 1.156251,-0.9566 1.156251,-1.75 l 0,-43.0625 c 0,-1.0773 -0.860223,-1.9375 -1.937501,-1.9375 L 1.9374993,1004.3622 Z"
       id="rect4280-4" />
    <path
       d="m 22.224808,1013.3623 c -0.531028,0 -0.635771,0.023 -0.849388,0.204 -0.425283,0.3562 -0.667641,1.4534 -0.665186,3.0476 0.0023,1.6494 0.228301,3.2187 0.747054,5.2607 l 0.327478,1.2737 -0.30701,0.9586 c -0.975118,3.1161 -2.388857,6.3594 -4.472094,10.2447 -3.157237,5.8904 -5.597214,8.9819 -7.2965794,9.257 -0.273425,0.042 -0.286541,0.035 -0.286541,-0.1632 0,-0.9943 1.8847784,-3.4798 3.9808814,-5.2498 1.070729,-0.9046 -0.175293,-0.3004 -1.616913,0.7846 -1.452787,1.0932 -2.6561979,2.5109 -3.0291545,3.5677 -0.2652006,0.7518 -0.2091012,1.0176 0.2763079,1.264 0.8673002,0.441 1.3086596,0.4587 2.0467256,0.092 1.434702,-0.7127 3.332055,-2.9661 5.44429,-6.4634 0.684893,-1.1337 0.899807,-1.4168 1.07453,-1.4168 0.06155,0 0.708828,-0.18 1.432709,-0.3975 2.893191,-0.8722 6.367239,-1.5759 9.773116,-1.988 l 1.135932,-0.1432 0.573083,0.2859 c 1.492472,0.7489 3.57205,1.4749 5.096348,1.7734 1.030942,0.2022 2.373427,0.2397 2.824481,0.082 0.284209,-0.099 0.876276,-0.4499 0.876283,-0.5654 -1.156898,0.5422 -2.900668,-0.1278 -4.212447,-0.5148 -0.864896,-0.2723 -2.768288,-1.0169 -2.875647,-1.1216 2.304559,-0.4457 6.627389,-0.5448 7.091902,1.0499 0.136098,-10e-5 0.101128,-0.6401 -0.0512,-0.8965 -0.28523,-0.4815 -1.111743,-0.8699 -2.302567,-1.0913 -0.964124,-0.1792 -3.248662,-0.2295 -5.034946,-0.1119 l -1.586214,0.1018 -0.573082,-0.3465 c -3.286108,-1.9913 -5.026486,-4.2366 -6.60069,-8.5022 -0.236233,-0.6404 -0.252128,-0.7284 -0.173972,-1.1319 0.275173,-1.4207 0.53054,-6.2217 0.33771,-6.3403 -0.351202,1.5729 -0.635218,3.1462 -0.992661,4.5667 -0.07384,0 -0.290174,-1.1068 -0.460516,-2.3953 -0.18533,-1.4024 -0.118025,-3.2987 0.13304,-3.9455 0.100604,-0.2587 0.231828,-0.495 0.296773,-0.5199 0.643543,0.1844 1.001715,0.6942 1.094998,1.478 0.09131,0 0.11476,-0.1496 0.133039,-0.6316 C 23.574923,1013.6572 23.290685,1013.3623 22.224808,1013.3623 z m 0.255839,11.7032 c 0.03644,-0.01 0.05721,0.068 0.102335,0.1935 0.05553,0.1561 0.366463,0.7936 0.685654,1.4171 1.373398,2.6814 2.894279,4.44 5.086114,5.8815 0.111045,0.072 0.179653,0.1568 0.153505,0.1835 -0.02612,0.023 -0.472302,0.1233 -0.982428,0.214 -3.478669,0.6199 -7.809506,1.9232 -9.916387,2.9766 -0.03351,0.018 -0.06138,-0.017 -0.06138,-0.069 1e-6,-0.054 0.207097,-0.4867 0.470746,-0.9582 1.985828,-3.5525 3.320216,-6.4231 4.072982,-8.7875 C 22.330574,1025.3651 22.419863,1025.0842 22.480647,1025.0655 Z"
       inkscape:connector-curvature="0"
       id="path4039"
       style="fill:#000000;fill-opacity:0.23529412;fill-rule:nonzero;stroke:none;enable-background:new" />
    <path
       style="fill:url(#linearGradient4051);fill-opacity:1.0;fill-rule:nonzero;stroke:none;enable-background:new"
       id="rect3364-1"
       inkscape:connector-curvature="0"
       d="m 22.224808,1012.9623 c -0.531028,0 -0.635771,0.023 -0.849388,0.204 -0.425283,0.3562 -0.667641,1.4534 -0.665186,3.0476 0.0023,1.6494 0.228301,3.2187 0.747054,5.2607 l 0.327478,1.2737 -0.30701,0.9586 c -0.975118,3.1161 -2.388857,6.3594 -4.472094,10.2447 -3.157237,5.8904 -5.597214,8.9819 -7.2965794,9.257 -0.273425,0.042 -0.286541,0.035 -0.286541,-0.1632 0,-0.9943 1.8847784,-3.4798 3.9808814,-5.2498 1.070729,-0.9046 -0.175293,-0.3004 -1.616913,0.7846 -1.452787,1.0932 -2.6561979,2.5109 -3.0291545,3.5677 -0.2652006,0.7518 -0.2091012,1.0176 0.2763079,1.264 0.8673002,0.441 1.3086596,0.4587 2.0467256,0.092 1.434702,-0.7127 3.332055,-2.9661 5.44429,-6.4634 0.684893,-1.1337 0.899807,-1.4168 1.07453,-1.4168 0.06155,0 0.708828,-0.18 1.432709,-0.3975 2.893191,-0.8722 6.367239,-1.5759 9.773116,-1.988 l 1.135932,-0.1432 0.573083,0.2859 c 1.492472,0.7489 3.57205,1.4749 5.096348,1.7734 1.030942,0.2022 2.373427,0.2397 2.824481,0.082 0.284209,-0.099 0.876276,-0.4499 0.876283,-0.5654 -1.156898,0.5422 -2.900668,-0.1278 -4.212447,-0.5148 -0.864896,-0.2723 -2.768288,-1.0169 -2.875647,-1.1216 2.304559,-0.4457 6.627389,-0.5448 7.091902,1.0499 0.136098,-10e-5 0.101128,-0.6401 -0.0512,-0.8965 -0.28523,-0.4815 -1.111743,-0.8699 -2.302567,-1.0913 -0.964124,-0.1792 -3.248662,-0.2295 -5.034946,-0.1119 l -1.586214,0.1018 -0.573082,-0.3465 c -3.286108,-1.9913 -5.026486,-4.2366 -6.60069,-8.5022 -0.236233,-0.6404 -0.252128,-0.7284 -0.173972,-1.1319 0.275173,-1.4207 0.53054,-6.2217 0.33771,-6.3403 -0.351202,1.5729 -0.635218,3.1462 -0.992661,4.5667 -0.07384,0 -0.290174,-1.1068 -0.460516,-2.3953 -0.18533,-1.4024 -0.118025,-3.2987 0.13304,-3.9455 0.100604,-0.2587 0.231828,-0.495 0.296773,-0.5199 0.643543,0.1844 1.001715,0.6942 1.094998,1.478 0.09131,0 0.11476,-0.1496 0.133039,-0.6316 C 23.574923,1013.2572 23.290685,1012.9623 22.224808,1012.9623 z m 0.255839,11.7032 c 0.03644,-0.01 0.05721,0.068 0.102335,0.1935 0.05553,0.1561 0.366463,0.7936 0.685654,1.4171 1.373398,2.6814 2.894279,4.44 5.086114,5.8815 0.111045,0.072 0.179653,0.1568 0.153505,0.1835 -0.02612,0.023 -0.472302,0.1233 -0.982428,0.214 -3.478669,0.6199 -7.809506,1.9232 -9.916387,2.9766 -0.03351,0.018 -0.06138,-0.017 -0.06138,-0.069 1e-6,-0.054 0.207097,-0.4867 0.470746,-0.9582 1.985828,-3.5525 3.320216,-6.4231 4.072982,-8.7875 C 22.330574,1024.9651 22.419863,1024.6842 22.480647,1024.6655 Z" />
    <path
       style="fill:#ffffff;fill-opacity:0.3137255;fill-rule:nonzero;stroke:none;enable-background:new"
       d="m 22.21875,1012.9623 c -0.531028,0 -0.630133,0.038 -0.84375,0.2188 -0.358421,0.3001 -0.563482,1.1369 -0.625,2.3437 0.08706,-0.9978 0.306038,-1.6703 0.625,-1.9375 0.213617,-0.181 0.312722,-0.2187 0.84375,-0.2187 0.977255,0 1.297027,0.2661 1.3125,1.125 0.0036,-0.063 -0.003,-0.076 0,-0.1563 C 23.571492,1013.2765 23.284627,1012.9623 22.21875,1012.9623 z m 1.125,2.8125 c -0.351202,1.5729 -0.642557,3.142 -1,4.5625 -0.07384,0 -0.298408,-1.1177 -0.46875,-2.4062 -0.04633,-0.3506 -0.07792,-0.7087 -0.09375,-1.0938 0.0082,0.5127 0.03197,1.0325 0.09375,1.5 0.170342,1.2885 0.39491,2.4063 0.46875,2.4063 0.357443,-1.4205 0.648798,-2.9896 1,-4.5625 0.04188,0.026 0.05851,0.3025 0.0625,0.6875 C 23.413943,1016.2647 23.398487,1015.8085 23.34375,1015.7748 Z M 23,1022.6498 c -0.04656,0.2973 -0.05091,0.4384 0.15625,1 1.574204,4.2656 3.338892,6.5087 6.625,8.5 l 0.5625,0.3438 1.59375,-0.094 c 1.786284,-0.1176 4.067126,-0.085 5.03125,0.094 1.190824,0.2214 1.99602,0.6122 2.28125,1.0937 0.05712,0.096 0.103716,0.2562 0.125,0.4063 0.04044,-0.1921 -0.01075,-0.6202 -0.125,-0.8125 -0.28523,-0.4815 -1.090426,-0.8411 -2.28125,-1.0625 -0.964124,-0.1792 -3.244966,-0.2426 -5.03125,-0.125 l -1.59375,0.094 -0.5625,-0.3437 c -3.286108,-1.9913 -5.050796,-4.2344 -6.625,-8.5 C 23.050019,1022.9556 23.028602,1022.7933 23,1022.6498 z m -1.28125,0.2813 -0.25,0.7812 c -0.975118,3.1161 -2.385513,6.3647 -4.46875,10.25 -3.157237,5.8904 -5.581885,8.9749 -7.28125,9.25 -0.1367125,0.021 -0.2125429,0.021 -0.25,0 -0.018531,0.085 -0.03125,0.1792 -0.03125,0.25 0,0.099 -0.00621,0.135 0.03125,0.1563 0.037457,0.021 0.1132875,0.021 0.25,0 1.699365,-0.2751 4.124013,-3.3596 7.28125,-9.25 2.083237,-3.8853 3.493632,-7.1339 4.46875,-10.25 l 0.3125,-0.9688 L 21.71875,1022.9311 z m 6.4375,9.5 c -0.180597,0.043 -0.297711,0.067 -0.625,0.125 -3.415703,0.6086 -7.634442,1.8633 -9.78125,2.9062 -0.01898,0.04 -0.04872,0.094 -0.0625,0.125 0.127962,-0.022 0.667914,-0.1407 1.34375,-0.3437 0.266518,-0.08 0.567881,-0.1414 0.84375,-0.2188 2.23898,-0.8055 5.154722,-1.6167 7.65625,-2.0625 0.510126,-0.091 0.94263,-0.1957 0.96875,-0.2187 0.02615,-0.027 -0.0452,-0.1155 -0.15625,-0.1875 C 28.279658,1032.5139 28.219208,1032.4738 28.15625,1032.4311 z m 4.75,0.9062 c -0.240748,0.034 -0.476165,0.053 -0.6875,0.094 0.107359,0.1047 2.010104,0.8527 2.875,1.125 0.96461,0.2845 2.160832,0.7226 3.1875,0.7187 0.02046,-10e-5 0.04218,4e-4 0.0625,0 0.02569,-0.01 0.07205,-0.024 0.09375,-0.031 0.284209,-0.099 0.874993,-0.447 0.875,-0.5625 -1.156898,0.5422 -2.906971,-0.1443 -4.21875,-0.5313 C 34.486315,1033.9586 33.556224,1033.6092 32.90625,1033.3373 Z M 13.75,1037.3686 c -0.230342,0.052 -1.067738,0.5406 -1.96875,1.2187 -1.452787,1.0932 -2.6582934,2.5057 -3.03125,3.5625 -0.1326003,0.3759 -0.1665509,0.6213 -0.125,0.8125 0.026129,-0.1229 0.066953,-0.2417 0.125,-0.4062 0.3729566,-1.0568 1.578463,-2.4693 3.03125,-3.5625 0.456844,-0.3439 0.868694,-0.6292 1.21875,-0.8438 0.131797,-0.1184 0.27229,-0.2306 0.40625,-0.3437 C 13.807773,1037.4668 13.888205,1037.3376 13.75,1037.3686 Z"
       id="path4059"
       inkscape:connector-curvature="0" />
    <path
       style="fill:#aa0000;fill-opacity:0.3137255;fill-rule:nonzero;stroke:none;enable-background:new"
       d="M 22.09375 8.59375 C 22.057539 8.6671822 22.033039 8.7587923 22 8.84375 C 21.83088 9.2794417 21.762555 10.275757 21.78125 11.3125 C 21.806293 10.582275 21.874467 9.9484 22 9.625 C 22.100604 9.3663 22.247555 9.1499 22.3125 9.125 C 22.956043 9.3094 23.312967 9.80995 23.40625 10.59375 C 23.49756 10.59375 23.512971 10.45075 23.53125 9.96875 C 23.538116 9.7877578 23.514296 9.6387398 23.5 9.5 C 23.480807 9.6801361 23.466117 9.78125 23.40625 9.78125 C 23.35028 9.31097 23.188614 8.9493976 22.9375 8.6875 C 22.916005 8.6808553 22.897892 8.6620049 22.875 8.65625 C 22.699093 8.6120281 22.485219 8.59375 22.21875 8.59375 C 22.156492 8.59375 22.145152 8.5929001 22.09375 8.59375 z M 20.71875 11.46875 C 20.715408 11.59784 20.71854 11.707216 20.71875 11.84375 C 20.72105 13.49315 20.949997 15.083 21.46875 17.125 L 21.65625 17.9375 L 21.78125 17.59375 L 21.46875 16.3125 C 20.993198 14.440555 20.755454 12.972075 20.71875 11.46875 z M 23.375 11.9375 C 23.3417 13.493245 23.187706 15.968387 23 16.9375 C 22.949616 17.197618 22.969629 17.363348 23.03125 17.59375 C 23.247986 16.341228 23.408518 13.178949 23.375 11.9375 z M 22.46875 19.5 C 22.407966 19.5187 22.332536 19.8106 22.09375 20.5625 C 21.340984 22.9269 20.017078 25.79125 18.03125 29.34375 C 17.767601 29.81525 17.562501 30.2585 17.5625 30.3125 C 17.5625 30.3645 17.59149 30.393 17.625 30.375 C 17.739408 30.317798 17.872969 30.246026 18 30.1875 C 18.010355 30.168786 18.020704 30.17511 18.03125 30.15625 C 20.017078 26.60375 21.340984 23.70815 22.09375 21.34375 C 22.332536 20.59185 22.407966 20.3312 22.46875 20.3125 C 22.50519 20.3025 22.548625 20.3745 22.59375 20.5 C 22.64928 20.6561 22.962059 21.28275 23.28125 21.90625 C 24.519224 24.32325 25.857725 26.013962 27.71875 27.375 C 28.10111 27.301231 28.478871 27.206105 28.5 27.1875 C 28.526148 27.1608 28.454795 27.072 28.34375 27 C 26.151915 25.5585 24.654648 23.8064 23.28125 21.125 C 22.962059 20.5015 22.64928 19.8436 22.59375 19.6875 C 22.548625 19.562 22.50519 19.49 22.46875 19.5 z M 35.34375 27.59375 C 34.2218 27.592362 33.08296 27.707863 32.21875 27.875 C 32.282303 27.936979 32.953187 28.22026 33.6875 28.5 C 35.888386 28.291075 38.615093 28.409622 39.21875 29.53125 C 39.24839 29.519187 39.283578 29.513555 39.3125 29.5 C 39.312499 29.52079 39.283118 29.560548 39.25 29.59375 C 39.269238 29.636268 39.299331 29.673539 39.3125 29.71875 C 39.430887 29.718663 39.417643 29.232303 39.3125 28.9375 C 39.299331 28.892289 39.269238 28.855018 39.25 28.8125 C 38.96477 28.331 38.159574 27.9714 36.96875 27.75 C 36.727719 27.7052 36.408916 27.653078 36.03125 27.625 C 35.828633 27.609936 35.573128 27.603731 35.34375 27.59375 z M 29.9375 27.9375 L 28.8125 28.0625 C 28.096165 28.149174 27.372578 28.263673 26.65625 28.375 C 23.349518 29.040564 19.562507 30.187534 17.625 31.15625 C 17.59149 31.17425 17.5625 31.14575 17.5625 31.09375 C 17.562501 31.05271 17.733097 30.704306 17.90625 30.375 C 17.842244 30.390684 17.607191 30.46875 17.59375 30.46875 C 17.419027 30.46875 17.216143 30.7413 16.53125 31.875 C 14.419015 35.3723 12.528452 37.63105 11.09375 38.34375 C 10.885061 38.447435 10.677582 38.489909 10.5 38.53125 C 10.219039 38.692649 9.9679358 38.803411 9.71875 38.84375 C 9.445325 38.88575 9.4375 38.8857 9.4375 38.6875 C 9.4375 38.616656 9.4502189 38.522686 9.46875 38.4375 C 9.3330638 38.384682 9.1914454 38.331455 9.03125 38.25 C 8.8613568 38.16376 8.7568432 38.079748 8.6875 37.96875 C 8.5040955 38.568512 8.5922403 38.839653 9.03125 39.0625 C 9.8985502 39.5035 10.355684 39.52295 11.09375 39.15625 C 12.528452 38.44355 14.419015 36.1848 16.53125 32.6875 C 17.216143 31.5538 17.419027 31.25 17.59375 31.25 C 17.6553 31.25 18.307369 31.0925 19.03125 30.875 C 21.924441 30.0028 25.406623 29.2871 28.8125 28.875 L 29.9375 28.71875 L 30.5 29.03125 C 31.992472 29.78015 34.100702 30.48275 35.625 30.78125 C 36.655942 30.98345 37.986446 31.0327 38.4375 30.875 C 38.721709 30.776 39.312493 30.428 39.3125 30.3125 C 38.375748 30.751525 37.07166 30.387978 35.90625 30.03125 C 35.813765 30.016319 35.713643 30.017386 35.625 30 C 34.100702 29.7015 31.992472 28.96765 30.5 28.21875 L 29.9375 27.9375 z M 13.75 33 C 13.519658 33.051523 12.682262 33.540625 11.78125 34.21875 C 11.756327 34.24559 11.712177 34.254375 11.6875 34.28125 C 10.380489 35.704659 9.4375 37.16703 9.4375 37.875 C 9.4375 38.022888 9.4764571 38.068439 9.59375 38.0625 C 10.080358 36.870399 11.661298 34.910979 13.40625 33.4375 C 13.807773 33.098275 13.888205 32.969086 13.75 33 z "
       transform="translate(0,1004.3622)"
       id="path4046" />
  </g>
</svg>
