<?xml version="1.0" encoding="UTF-8" standalone="no"?>
<!-- Created with Inkscape (http://www.inkscape.org/) -->

<svg
   xmlns:dc="http://purl.org/dc/elements/1.1/"
   xmlns:cc="http://creativecommons.org/ns#"
   xmlns:rdf="http://www.w3.org/1999/02/22-rdf-syntax-ns#"
   xmlns:svg="http://www.w3.org/2000/svg"
   xmlns="http://www.w3.org/2000/svg"
   xmlns:xlink="http://www.w3.org/1999/xlink"
   xmlns:sodipodi="http://sodipodi.sourceforge.net/DTD/sodipodi-0.dtd"
   xmlns:inkscape="http://www.inkscape.org/namespaces/inkscape"
   width="48"
   height="48"
   id="svg2"
   version="1.1"
   inkscape:version="0.48+devel r12487"
   sodipodi:docname="AdobeAIR.svg">
  <defs
     id="defs4">
    <linearGradient
       id="linearGradient868-6">
      <stop
         style="stop-color:#aa0000;stop-opacity:1"
         offset="0"
         id="stop870-0" />
      <stop
         style="stop-color:#ff3939;stop-opacity:1"
         offset="1"
         id="stop872-1" />
    </linearGradient>
    <linearGradient
       y2="-1005.2044"
       x2="24.176777"
       y1="-1052.1854"
       x1="24.176777"
       gradientUnits="userSpaceOnUse"
       id="linearGradient837"
       xlink:href="#linearGradient868-6"
       inkscape:collect="always" />
    <linearGradient
       inkscape:collect="always"
       xlink:href="#linearGradient4053"
       id="linearGradient4054"
       x1="23.028612"
       y1="1043.7766"
       x2="23.028612"
       y2="1012.9648"
       gradientUnits="userSpaceOnUse" />
    <linearGradient
       id="linearGradient4053">
      <stop
         style="stop-color:#ffcdcd;stop-opacity:1"
         offset="0"
         id="stop4055" />
      <stop
         style="stop-color:#fff5f5;stop-opacity:1"
         offset="1"
         id="stop4057" />
    </linearGradient>
  </defs>
  <sodipodi:namedview
     id="base"
     pagecolor="#ffffff"
     bordercolor="#666666"
     borderopacity="1.0"
     inkscape:pageopacity="0.0"
     inkscape:pageshadow="2"
     inkscape:zoom="4.85376"
     inkscape:cx="1.0867646"
     inkscape:cy="13.782799"
     inkscape:document-units="px"
     inkscape:current-layer="layer1"
     showgrid="false"
     inkscape:window-width="1366"
     inkscape:window-height="718"
     inkscape:window-x="0"
     inkscape:window-y="30"
     inkscape:window-maximized="1" />
  <metadata
     id="metadata7">
    <rdf:RDF>
      <cc:Work
         rdf:about="">
        <dc:format>image/svg+xml</dc:format>
        <dc:type
           rdf:resource="http://purl.org/dc/dcmitype/StillImage" />
        <dc:title />
      </cc:Work>
    </rdf:RDF>
  </metadata>
  <g
     inkscape:label="Capa 1"
     inkscape:groupmode="layer"
     id="layer1"
     transform="translate(0,-1004.3622)">
    <rect
       style="fill:url(#linearGradient837);fill-opacity:1;stroke:none"
       id="rect2991-1"
       width="48"
       height="48"
       x="-7.701172e-07"
       y="-1052.3622"
       ry="1.9445436"
       transform="scale(1,-1)" />
    <path
       d="m 38.097989,1035.507 c -0.08988,-0.1216 -0.232255,-0.2927 -0.39254,-0.457 -1.667587,-1.7115 -2.913083,-3.7326 -3.584076,-5.9713 -0.0308,-0.1038 -0.0616,-0.2081 -0.08926,-0.3122 -0.0289,-0.1052 -0.05405,-0.2122 -0.07982,-0.3189 -0.537106,-2.2727 -0.471423,-4.6469 0.119743,-6.9621 0,0 0.0902,-0.3823 0.113457,-0.5399 0.496879,-2.9252 -1.303644,-5.8009 -4.224899,-6.5842 -2.978453,-0.7982 -6.031077,0.8726 -7.00504,3.7537 -0.04023,0.1074 -0.122255,0.3791 -0.123198,0.3831 -0.640195,2.2697 -1.752437,4.3303 -3.323848,6.017 -1.785123,1.874 -4.054557,3.2066 -6.598987,3.8884 -3.0994541,0.8304 -4.9408336,4.0228 -4.1101857,7.124 0.8319053,3.1008 4.0184137,4.9427 7.1200657,4.1109 2.314377,-0.5911 4.68815,-0.6579 6.961354,-0.1212 0.105915,0.025 0.212459,0.054 0.318056,0.081 0.105911,0.028 0.210883,0.059 0.315853,0.088 2.237063,0.6719 4.259781,1.9167 5.968534,3.5854 0.209943,0.2105 0.391282,0.3584 0.560683,0.4783 2.297087,1.7509 5.565621,1.6166 7.660003,-0.4783 C 39.829682,1041.1482 39.952881,1037.7905 38.097989,1035.507 z m -14.084565,1.051 c -3.034395,-0.8132 -4.835863,-3.9341 -4.022812,-6.9693 0.813678,-3.0352 3.933241,-4.8371 6.96764,-4.0239 3.03565,0.8138 4.83649,3.934 4.023128,6.969 C 30.168014,1035.5692 27.049079,1037.3714 24.013424,1036.558 Z"
       inkscape:connector-curvature="0"
       id="path4046"
       style="fill:#000000;fill-opacity:0.05882353" />
    <path
       style="fill:#000000;fill-opacity:0.11764706"
       id="path4044"
       inkscape:connector-curvature="0"
       d="m 38.097989,1035.107 c -0.08988,-0.1216 -0.232255,-0.2927 -0.39254,-0.457 -1.667587,-1.7115 -2.913083,-3.7326 -3.584076,-5.9713 -0.0308,-0.1038 -0.0616,-0.2081 -0.08926,-0.3122 -0.0289,-0.1052 -0.05405,-0.2122 -0.07982,-0.3189 -0.537106,-2.2727 -0.471423,-4.6469 0.119743,-6.9621 0,0 0.0902,-0.3823 0.113457,-0.5399 0.496879,-2.9252 -1.303644,-5.8009 -4.224899,-6.5842 -2.978453,-0.7982 -6.031077,0.8726 -7.00504,3.7537 -0.04023,0.1074 -0.122255,0.3791 -0.123198,0.3831 -0.640195,2.2697 -1.752437,4.3303 -3.323848,6.017 -1.785123,1.874 -4.054557,3.2066 -6.598987,3.8884 -3.0994541,0.8304 -4.9408336,4.0228 -4.1101857,7.124 0.8319053,3.1008 4.0184137,4.9427 7.1200657,4.1109 2.314377,-0.5911 4.68815,-0.6579 6.961354,-0.1212 0.105915,0.025 0.212459,0.054 0.318056,0.081 0.105911,0.028 0.210883,0.059 0.315853,0.088 2.237063,0.6719 4.259781,1.9167 5.968534,3.5854 0.209943,0.2105 0.391282,0.3584 0.560683,0.4783 2.297087,1.7509 5.565621,1.6166 7.660003,-0.4783 C 39.829682,1040.7482 39.952881,1037.3905 38.097989,1035.107 z m -14.084565,1.051 c -3.034395,-0.8132 -4.835863,-3.9341 -4.022812,-6.9693 0.813678,-3.0352 3.933241,-4.8371 6.96764,-4.0239 3.03565,0.8138 4.83649,3.934 4.023128,6.969 C 30.168014,1035.1692 27.049079,1036.9714 24.013424,1036.158 Z" />
    <path
       inkscape:connector-curvature="0"
       style="fill:#000000;fill-opacity:1;stroke:none"
       d="m 4.7011719e-7,1049.3622 0,1.0625 c 0,1.0773 0.86022299988281,1.9375 1.93750002988281,1.9375 l 44.1249995,0 c 1.077278,0 1.937501,-0.8602 1.937501,-1.9375 l 0,-1.0625 c 0,1.0773 -0.860223,1.9375 -1.937501,1.9375 l -44.1249995,0 C 0.86022347,1051.2997 4.7011719e-7,1050.4395 4.7011719e-7,1049.3622 Z"
       id="rect846" />
    <path
       inkscape:connector-curvature="0"
       style="fill:#ffffff;fill-opacity:0.5372549;stroke:none"
       d="m 2.5312505,1005.0185 c -0.917088,0 -1.67114603,0.6395 -1.84375003,1.5 0.33561203,-0.2799 0.77451303,-0.4375 1.25000003,-0.4375 l 44.1249995,0 c 0.475488,0 0.914388,0.1576 1.250001,0.4375 -0.172603,-0.8605 -0.926663,-1.5 -1.843751,-1.5 L 2.5312505,1005.0185 Z"
       id="path7515" />
    <path
       inkscape:connector-curvature="0"
       style="fill:#000000;fill-opacity:0.39215686;stroke:none"
       d="m 1.9375005,1004.3622 c -1.07727703,0 -1.93750002988281,0.8602 -1.93750002988281,1.9375 l 0,43.0625 c 0,0.7934 0.48002399988281,1.449 1.15625002988281,1.75 -0.30934103,-0.3333 -0.50000003,-0.7824 -0.50000003,-1.2812 l 0,-42.9375 c 0,-1.0482 0.82689903,-1.875 1.87500003,-1.875 l 42.9374995,0 c 1.048101,0 1.875001,0.8268 1.875001,1.875 l 0,42.9375 c 0,0.4988 -0.190658,0.9479 -0.500001,1.2812 0.676227,-0.301 1.156251,-0.9566 1.156251,-1.75 l 0,-43.0625 c 0,-1.0773 -0.860223,-1.9375 -1.937501,-1.9375 L 1.9375005,1004.3622 Z"
       id="rect4280-4" />
    <path
       d="m 38.097989,1034.707 c -0.08988,-0.1216 -0.232255,-0.2927 -0.39254,-0.457 -1.667587,-1.7115 -2.913083,-3.7326 -3.584076,-5.9713 -0.0308,-0.1038 -0.0616,-0.2081 -0.08926,-0.3122 -0.0289,-0.1052 -0.05405,-0.2122 -0.07982,-0.3189 -0.537106,-2.2727 -0.471423,-4.6469 0.119743,-6.9621 0,0 0.0902,-0.3823 0.113457,-0.5399 0.496879,-2.9252 -1.303644,-5.8009 -4.224899,-6.5842 -2.978453,-0.7982 -6.031077,0.8726 -7.00504,3.7537 -0.04023,0.1074 -0.122255,0.3791 -0.123198,0.3831 -0.640195,2.2697 -1.752437,4.3303 -3.323848,6.017 -1.785123,1.874 -4.054557,3.2066 -6.598987,3.8884 -3.0994541,0.8304 -4.9408336,4.0228 -4.1101857,7.124 0.8319053,3.1008 4.0184137,4.9427 7.1200657,4.1109 2.314377,-0.5911 4.68815,-0.6579 6.961354,-0.1212 0.105915,0.025 0.212459,0.054 0.318056,0.081 0.105911,0.028 0.210883,0.059 0.315853,0.088 2.237063,0.6719 4.259781,1.9167 5.968534,3.5854 0.209943,0.2105 0.391282,0.3584 0.560683,0.4783 2.297087,1.7509 5.565621,1.6166 7.660003,-0.4783 C 39.829682,1040.3482 39.952881,1036.9905 38.097989,1034.707 z m -14.084565,1.051 c -3.034395,-0.8132 -4.835863,-3.9341 -4.022812,-6.9693 0.813678,-3.0352 3.933241,-4.8371 6.96764,-4.0239 3.03565,0.8138 4.83649,3.934 4.023128,6.969 C 30.168014,1034.7692 27.049079,1036.5714 24.013424,1035.758 Z"
       inkscape:connector-curvature="0"
       id="path4042"
       style="fill:#000000;fill-opacity:0.23529412" />
    <path
       style="fill:url(#linearGradient4054);fill-opacity:1.0"
       id="path3860"
       inkscape:connector-curvature="0"
       d="m 38.097989,1034.307 c -0.08988,-0.1216 -0.232255,-0.2927 -0.39254,-0.457 -1.667587,-1.7115 -2.913083,-3.7326 -3.584076,-5.9713 -0.0308,-0.1038 -0.0616,-0.2081 -0.08926,-0.3122 -0.0289,-0.1052 -0.05405,-0.2122 -0.07982,-0.3189 -0.537106,-2.2727 -0.471423,-4.6469 0.119743,-6.9621 0,0 0.0902,-0.3823 0.113457,-0.5399 0.496879,-2.9252 -1.303644,-5.8009 -4.224899,-6.5842 -2.978453,-0.7982 -6.031077,0.8726 -7.00504,3.7537 -0.04023,0.1074 -0.122255,0.3791 -0.123198,0.3831 -0.640195,2.2697 -1.752437,4.3303 -3.323848,6.017 -1.785123,1.874 -4.054557,3.2066 -6.598987,3.8884 -3.0994541,0.8304 -4.9408336,4.0228 -4.1101857,7.124 0.8319053,3.1008 4.0184137,4.9427 7.1200657,4.1109 2.314377,-0.5911 4.68815,-0.6579 6.961354,-0.1212 0.105915,0.025 0.212459,0.054 0.318056,0.081 0.105911,0.028 0.210883,0.059 0.315853,0.088 2.237063,0.6719 4.259781,1.9167 5.968534,3.5854 0.209943,0.2105 0.391282,0.3584 0.560683,0.4783 2.297087,1.7509 5.565621,1.6166 7.660003,-0.4783 C 39.829682,1039.9482 39.952881,1036.5905 38.097989,1034.307 z m -14.084565,1.051 c -3.034395,-0.8132 -4.835863,-3.9341 -4.022812,-6.9693 0.813678,-3.0352 3.933241,-4.8371 6.96764,-4.0239 3.03565,0.8138 4.83649,3.934 4.023128,6.969 C 30.168014,1034.3692 27.049079,1036.1714 24.013424,1035.358 Z" />
    <path
       style="fill:#ffffff;fill-opacity:0.31372549"
       d="m 28.28125,1012.964 c -2.381098,0.068 -4.521155,1.6279 -5.3125,3.9688 -0.04023,0.1074 -0.124057,0.371 -0.125,0.375 -0.640195,2.2697 -1.772339,4.3133 -3.34375,6 -1.785123,1.874 -4.04932,3.2244 -6.59375,3.9062 -2.609813,0.6992 -4.330772,3.0723 -4.3125,5.6563 0.1497156,-2.4272 1.836717,-4.5867 4.3125,-5.25 2.54443,-0.6818 4.808627,-2.0323 6.59375,-3.9063 1.571411,-1.6867 2.703555,-3.7303 3.34375,-6 9.43e-4,-0 0.08477,-0.2988 0.125,-0.4062 0.973963,-2.8811 4.021547,-4.5482 7,-3.75 2.513725,0.674 4.208191,2.904 4.3125,5.375 0.0689,-2.626 -1.665394,-5.0402 -4.3125,-5.75 C 29.41029,1013.0331 28.830734,1012.9484 28.28125,1012.964 z m 5.3125,11.6875 c 0.01279,1.0092 0.111164,2.0159 0.34375,3 0.02577,0.1067 0.06485,0.2073 0.09375,0.3125 0.02766,0.1041 0.06295,0.2087 0.09375,0.3125 0.670993,2.2387 1.926163,4.2573 3.59375,5.9688 0.160285,0.1643 0.28512,0.3471 0.375,0.4687 0.864018,1.0637 1.278099,2.3598 1.28125,3.6563 0.09819,-1.4315 -0.32529,-2.8857 -1.28125,-4.0625 -0.08988,-0.1216 -0.214715,-0.2732 -0.375,-0.4375 -1.667587,-1.7115 -2.922757,-3.7301 -3.59375,-5.9688 -0.0308,-0.1038 -0.06609,-0.2084 -0.09375,-0.3125 -0.0289,-0.1052 -0.06798,-0.237 -0.09375,-0.3437 C 33.736085,1026.393 33.629707,1025.5239 33.59375,1024.6515 z m -2.40625,5.25 c -0.0021,0.4796 -0.08877,0.9525 -0.21875,1.4375 -0.813366,3.0354 -3.933095,4.8447 -6.96875,4.0313 -2.465446,-0.6607 -4.090957,-2.8574 -4.1875,-5.2813 -0.08288,2.5825 1.585085,4.9901 4.1875,5.6875 3.035655,0.8134 6.155384,-0.9958 6.96875,-4.0312 C 31.133053,1031.1322 31.225177,1030.5019 31.1875,1029.9015 Z"
       id="path4096"
       inkscape:connector-curvature="0" />
    <path
       style="fill:#aa0000;fill-opacity:0.3137255"
       d="M 34.25 14.03125 C 34.236606 14.21319 34.218555 14.410925 34.1875 14.59375 C 34.164243 14.75135 34.0625 15.125 34.0625 15.125 C 33.700939 16.540993 33.544497 17.982837 33.59375 19.40625 C 33.616928 18.239213 33.766917 17.0951 34.0625 15.9375 C 34.0625 15.9375 34.164243 15.5326 34.1875 15.375 C 34.264236 14.923241 34.278519 14.473123 34.25 14.03125 z M 25.25 19 C 22.826901 19.096593 20.661113 20.75265 20 23.21875 C 19.832659 23.843452 19.770378 24.482655 19.8125 25.09375 C 19.83785 24.736725 19.903946 24.389829 20 24.03125 C 20.813678 20.99605 23.934351 19.1868 26.96875 20 C 29.340352 20.635781 30.94973 22.689193 31.15625 25 C 31.299598 22.3702 29.614436 19.896758 26.96875 19.1875 C 26.3998 19.035025 25.809177 18.977709 25.25 19 z M 8.625 28 C 8.574523 28.641965 8.6364938 29.311636 8.8125 29.96875 C 9.6444053 33.06955 12.804598 34.8943 15.90625 34.0625 C 18.220627 33.4714 20.601796 33.43205 22.875 33.96875 C 22.980915 33.99375 23.081903 34.00425 23.1875 34.03125 C 23.293411 34.05925 23.39503 34.096 23.5 34.125 C 25.737063 34.7969 27.759997 36.05005 29.46875 37.71875 C 29.678693 37.92925 29.861849 38.0676 30.03125 38.1875 C 32.328337 39.9384 35.624368 39.81365 37.71875 37.71875 C 38.926546 36.51226 39.455615 34.892431 39.375 33.3125 C 39.263838 34.626394 38.725355 35.900733 37.71875 36.90625 C 35.624368 39.00115 32.328337 39.1259 30.03125 37.375 C 29.861849 37.2551 29.678693 37.11675 29.46875 36.90625 C 27.759997 35.23755 25.737063 33.9844 23.5 33.3125 C 23.39503 33.2835 23.293411 33.278 23.1875 33.25 C 23.081903 33.223 22.980915 33.18125 22.875 33.15625 C 20.601796 32.61955 18.220627 32.69015 15.90625 33.28125 C 12.804598 34.11305 9.6444053 32.25705 8.8125 29.15625 C 8.708669 28.7686 8.6480918 28.385709 8.625 28 z "
       transform="translate(0,1004.3622)"
       id="path4049" />
  </g>
</svg>
