<?xml version="1.0" encoding="UTF-8" standalone="no"?>
<!-- Created with Inkscape (http://www.inkscape.org/) -->

<svg
   xmlns:dc="http://purl.org/dc/elements/1.1/"
   xmlns:cc="http://creativecommons.org/ns#"
   xmlns:rdf="http://www.w3.org/1999/02/22-rdf-syntax-ns#"
   xmlns:svg="http://www.w3.org/2000/svg"
   xmlns="http://www.w3.org/2000/svg"
   xmlns:xlink="http://www.w3.org/1999/xlink"
   xmlns:sodipodi="http://sodipodi.sourceforge.net/DTD/sodipodi-0.dtd"
   xmlns:inkscape="http://www.inkscape.org/namespaces/inkscape"
   width="48"
   height="48"
   id="svg2"
   version="1.1"
   inkscape:version="0.48+devel r"
   sodipodi:docname="AdobeDreamweaver.svg">
  <defs
     id="defs4">
    <linearGradient
       inkscape:collect="always"
       id="linearGradient4638">
      <stop
         style="stop-color:#cfe9d8;stop-opacity:1"
         offset="0"
         id="stop4640" />
      <stop
         style="stop-color:#f7fdf8;stop-opacity:1"
         offset="1"
         id="stop4642" />
    </linearGradient>
    <linearGradient
       y2="-1004.3644"
       x2="24.176777"
       y1="-1052.3602"
       x1="24.176777"
       gradientUnits="userSpaceOnUse"
       id="linearGradient837"
       xlink:href="#linearGradient2881"
       inkscape:collect="always" />
    <linearGradient
       id="linearGradient2881"
       inkscape:collect="always">
      <stop
         id="stop2883"
         offset="0"
         style="stop-color:#64b77f;stop-opacity:1" />
      <stop
         id="stop2885"
         offset="1"
         style="stop-color:#8fe195;stop-opacity:1" />
    </linearGradient>
    <defs
       id="defs4922">
      <filter
         color-interpolation-filters="sRGB"
         id="Adobe_OpacityMaskFilter"
         filterUnits="userSpaceOnUse"
         x="3.7850001"
         y="4.6750002"
         width="5.8829999"
         height="73.013">
        <feColorMatrix
           type="matrix"
           values="1 0 0 0 0  0 1 0 0 0  0 0 1 0 0  0 0 0 1 0"
           id="feColorMatrix4925" />
      </filter>
    </defs>
    <mask
       maskUnits="userSpaceOnUse"
       x="3.785"
       y="4.675"
       width="5.883"
       height="73.013"
       id="SVGID_2_">
      <g
         style="filter:url(#Adobe_OpacityMaskFilter)"
         id="g4928">
        <linearGradient
           id="SVGID_3_"
           gradientUnits="userSpaceOnUse"
           x1="3.7852001"
           y1="41.181198"
           x2="9.6680002"
           y2="41.181198">
          <stop
             offset="0"
             style="stop-color:#FFFFFF"
             id="stop4931" />
          <stop
             offset="0.0029"
             style="stop-color:#FAFBFB"
             id="stop4933" />
          <stop
             offset="0.0756"
             style="stop-color:#BBBDBF"
             id="stop4935" />
          <stop
             offset="0.1438"
             style="stop-color:#898B8E"
             id="stop4937" />
          <stop
             offset="0.2053"
             style="stop-color:#646567"
             id="stop4939" />
          <stop
             offset="0.259"
             style="stop-color:#444446"
             id="stop4941" />
          <stop
             offset="0.3028"
             style="stop-color:#1D1C1D"
             id="stop4943" />
          <stop
             offset="0.3313"
             style="stop-color:#000000"
             id="stop4945" />
        </linearGradient>
        <rect
           style="fill:url(#SVGID_3_)"
           x="3.7850001"
           y="4.6750002"
           width="5.8829999"
           height="73.013"
           id="rect4947" />
      </g>
    </mask>
    <linearGradient
       inkscape:collect="always"
       xlink:href="#linearGradient4638"
       id="linearGradient4636"
       x1="24.118044"
       y1="31.571768"
       x2="24.118044"
       y2="16.541683"
       gradientUnits="userSpaceOnUse" />
  </defs>
  <sodipodi:namedview
     id="base"
     pagecolor="#ffffff"
     bordercolor="#666666"
     borderopacity="1.0"
     inkscape:pageopacity="0.0"
     inkscape:pageshadow="2"
     inkscape:zoom="7.080437"
     inkscape:cx="14.306718"
     inkscape:cy="37.523966"
     inkscape:document-units="px"
     inkscape:current-layer="layer1"
     showgrid="false"
     inkscape:window-width="1366"
     inkscape:window-height="666"
     inkscape:window-x="-2"
     inkscape:window-y="25"
     inkscape:window-maximized="1" />
  <metadata
     id="metadata7">
    <rdf:RDF>
      <cc:Work
         rdf:about="">
        <dc:format>image/svg+xml</dc:format>
        <dc:type
           rdf:resource="http://purl.org/dc/dcmitype/StillImage" />
        <dc:title></dc:title>
      </cc:Work>
    </rdf:RDF>
  </metadata>
  <g
     inkscape:label="Capa 1"
     inkscape:groupmode="layer"
     id="layer1"
     transform="translate(0,-1004.3622)">
    <rect
       style="fill:url(#linearGradient837);fill-opacity:1.0;stroke:none"
       id="rect2991-1"
       width="48"
       height="48"
       x="-7.701172e-07"
       y="-1052.3622"
       ry="1.9445436"
       transform="scale(1,-1)" />
    <path
       id="path4650"
       d="m 15.121094,1022.0622 c -1.444867,0 -2.811957,0.1098 -3.88086,0.3066 l 0,14.4961 c 0.791547,0.1095 1.862055,0.1973 3.28711,0.1973 2.593015,0 4.71111,-0.6776 6.037109,-2.0117 1.266791,-1.2684 2.078125,-3.236 2.078125,-5.8594 0,-2.5149 -0.791297,-4.2647 -2.078125,-5.4238 -1.226718,-1.1372 -2.949625,-1.7051 -5.443359,-1.7051 z m 0.216797,2.0996 c 3.047997,0 4.75028,1.8592 4.730468,5.1172 0,3.718 -1.857291,5.6408 -4.992187,5.6406 -0.01778,0 -0.0369,0 -0.05469,0 -0.495055,0 -1.009588,6e-4 -1.345703,-0.064 l 0,-10.541 c 0.336115,-0.088 0.889923,-0.1524 1.66211,-0.1524 z m 7.574218,2.0977 2.761719,10.6504 2.205078,0 1.189453,-4.3301 c 0.268352,-1.0498 0.517627,-2.0996 0.708985,-3.4121 l 0.03906,0 c 0.210943,1.2905 0.421948,2.2968 0.708985,3.4121 l 1.113281,4.3301 2.185547,0 2.935547,-10.6504 -2.320313,0 -1.037109,4.7246 c -0.249216,1.2463 -0.460195,2.4052 -0.613282,3.5644 l -0.03906,0 c -0.210944,-1.1592 -0.460109,-2.3181 -0.748047,-3.5644 l -1.169922,-4.7246 -1.917969,0 -1.207031,4.8554 c -0.268577,1.093 -0.57577,2.2744 -0.767578,3.4336 l -0.03906,0 c -0.172448,-1.1592 -0.383031,-2.3182 -0.59375,-3.455 l -0.978516,-4.834 -2.416016,0 z"
       style="fill:#000000;fill-opacity:0.05882353;stroke:none"
       inkscape:connector-curvature="0" />
    <path
       inkscape:connector-curvature="0"
       style="fill:#000000;fill-opacity:0.11764706;stroke:none"
       d="m 15.121094,1021.6622 c -1.444867,0 -2.811957,0.1098 -3.88086,0.3066 l 0,14.4961 c 0.791547,0.1095 1.862055,0.1973 3.28711,0.1973 2.593015,0 4.71111,-0.6776 6.037109,-2.0117 1.266791,-1.2684 2.078125,-3.236 2.078125,-5.8594 0,-2.5149 -0.791297,-4.2647 -2.078125,-5.4238 -1.226718,-1.1372 -2.949625,-1.7051 -5.443359,-1.7051 z m 0.216797,2.0996 c 3.047997,0 4.75028,1.8592 4.730468,5.1172 0,3.718 -1.857291,5.6408 -4.992187,5.6406 -0.01778,0 -0.0369,0 -0.05469,0 -0.495055,0 -1.009588,6e-4 -1.345703,-0.064 l 0,-10.541 c 0.336115,-0.088 0.889923,-0.1524 1.66211,-0.1524 z m 7.574218,2.0977 2.761719,10.6504 2.205078,0 1.189453,-4.3301 c 0.268352,-1.0498 0.517627,-2.0996 0.708985,-3.4121 l 0.03906,0 c 0.210943,1.2905 0.421948,2.2968 0.708985,3.4121 l 1.113281,4.3301 2.185547,0 2.935547,-10.6504 -2.320313,0 -1.037109,4.7246 c -0.249216,1.2463 -0.460195,2.4052 -0.613282,3.5644 l -0.03906,0 c -0.210944,-1.1592 -0.460109,-2.3181 -0.748047,-3.5644 l -1.169922,-4.7246 -1.917969,0 -1.207031,4.8554 c -0.268577,1.093 -0.57577,2.2744 -0.767578,3.4336 l -0.03906,0 c -0.172448,-1.1592 -0.383031,-2.3182 -0.59375,-3.455 l -0.978516,-4.834 -2.416016,0 z"
       id="path4648" />
    <path
       id="path4644"
       d="m 15.121094,1021.2622 c -1.444867,0 -2.811957,0.1098 -3.88086,0.3066 l 0,14.4961 c 0.791547,0.1095 1.862055,0.1973 3.28711,0.1973 2.593015,0 4.71111,-0.6776 6.037109,-2.0117 1.266791,-1.2684 2.078125,-3.236 2.078125,-5.8594 0,-2.5149 -0.791297,-4.2647 -2.078125,-5.4238 -1.226718,-1.1372 -2.949625,-1.7051 -5.443359,-1.7051 z m 0.216797,2.0996 c 3.047997,0 4.75028,1.8592 4.730468,5.1172 0,3.718 -1.857291,5.6408 -4.992187,5.6406 -0.01778,0 -0.0369,0 -0.05469,0 -0.495055,0 -1.009588,6e-4 -1.345703,-0.064 l 0,-10.541 c 0.336115,-0.088 0.889923,-0.1524 1.66211,-0.1524 z m 7.574218,2.0977 2.761719,10.6504 2.205078,0 1.189453,-4.3301 c 0.268352,-1.0498 0.517627,-2.0996 0.708985,-3.4121 l 0.03906,0 c 0.210943,1.2905 0.421948,2.2968 0.708985,3.4121 l 1.113281,4.3301 2.185547,0 2.935547,-10.6504 -2.320313,0 -1.037109,4.7246 c -0.249216,1.2463 -0.460195,2.4052 -0.613282,3.5644 l -0.03906,0 c -0.210944,-1.1592 -0.460109,-2.3181 -0.748047,-3.5644 l -1.169922,-4.7246 -1.917969,0 -1.207031,4.8554 c -0.268577,1.093 -0.57577,2.2744 -0.767578,3.4336 l -0.03906,0 c -0.172448,-1.1592 -0.383031,-2.3182 -0.59375,-3.455 l -0.978516,-4.834 -2.416016,0 z"
       style="fill:#000000;fill-opacity:0.23529412;stroke:none"
       inkscape:connector-curvature="0" />
    <path
       inkscape:connector-curvature="0"
       style="fill:#000000;fill-opacity:1;stroke:none"
       d="m 4.7011719e-7,1049.3622 0,1.0625 c 0,1.0773 0.86022299988281,1.9375 1.93750002988281,1.9375 l 44.1249995,0 c 1.077278,0 1.937501,-0.8602 1.937501,-1.9375 l 0,-1.0625 c 0,1.0773 -0.860223,1.9375 -1.937501,1.9375 l -44.1249995,0 C 0.86022347,1051.2997 4.7011719e-7,1050.4395 4.7011719e-7,1049.3622 Z"
       id="rect846" />
    <path
       inkscape:connector-curvature="0"
       style="fill:#ffffff;fill-opacity:0.5372549;stroke:none"
       d="m 2.5312505,1005.0185 c -0.917088,0 -1.67114603,0.6395 -1.84375003,1.5 0.33561203,-0.2799 0.77451303,-0.4375 1.25000003,-0.4375 l 44.1249995,0 c 0.475488,0 0.914388,0.1576 1.250001,0.4375 -0.172603,-0.8605 -0.926663,-1.5 -1.843751,-1.5 L 2.5312505,1005.0185 Z"
       id="path7515" />
    <path
       inkscape:connector-curvature="0"
       style="fill:#000000;fill-opacity:0.39215686;stroke:none"
       d="m 1.9375005,1004.3622 c -1.07727703,0 -1.93750002988281,0.8602 -1.93750002988281,1.9375 l 0,43.0625 c 0,0.7934 0.48002399988281,1.449 1.15625002988281,1.75 -0.30934103,-0.3333 -0.50000003,-0.7824 -0.50000003,-1.2812 l 0,-42.9375 c 0,-1.0482 0.82689903,-1.875 1.87500003,-1.875 l 42.9374995,0 c 1.048101,0 1.875001,0.8268 1.875001,1.875 l 0,42.9375 c 0,0.4988 -0.190658,0.9479 -0.500001,1.2812 0.676227,-0.301 1.156251,-0.9566 1.156251,-1.75 l 0,-43.0625 c 0,-1.0773 -0.860223,-1.9375 -1.937501,-1.9375 L 1.9375005,1004.3622 Z"
       id="rect4280-4" />
    <path
       style="fill:url(#linearGradient4636);fill-opacity:1;stroke:none"
       d="M 15.121094 16.5 C 13.676227 16.5 12.309137 16.609841 11.240234 16.806641 L 11.240234 31.302734 C 12.031781 31.412234 13.102289 31.5 14.527344 31.5 C 17.120359 31.5 19.238454 30.822381 20.564453 29.488281 C 21.831244 28.219881 22.642578 26.252306 22.642578 23.628906 C 22.642578 21.114006 21.851281 19.364178 20.564453 18.205078 C 19.337735 17.067878 17.614828 16.5 15.121094 16.5 z M 15.337891 18.599609 C 18.385888 18.599609 20.088171 20.458797 20.068359 23.716797 C 20.068359 27.434797 18.211068 29.357622 15.076172 29.357422 C 15.058392 29.357422 15.039274 29.357422 15.021484 29.357422 C 14.526429 29.357422 14.011896 29.357969 13.675781 29.292969 L 13.675781 18.751953 C 14.011896 18.663953 14.565704 18.599609 15.337891 18.599609 z M 22.912109 20.697266 L 25.673828 31.347656 L 27.878906 31.347656 L 29.068359 27.017578 C 29.336711 25.967778 29.585986 24.917969 29.777344 23.605469 L 29.816406 23.605469 C 30.027349 24.895969 30.238354 25.902278 30.525391 27.017578 L 31.638672 31.347656 L 33.824219 31.347656 L 36.759766 20.697266 L 34.439453 20.697266 L 33.402344 25.421875 C 33.153128 26.668175 32.942149 27.827128 32.789062 28.986328 L 32.75 28.986328 C 32.539056 27.827128 32.289891 26.668175 32.001953 25.421875 L 30.832031 20.697266 L 28.914062 20.697266 L 27.707031 25.552734 C 27.438454 26.645734 27.131261 27.827128 26.939453 28.986328 L 26.900391 28.986328 C 26.727943 27.827128 26.51736 26.66805 26.306641 25.53125 L 25.328125 20.697266 L 22.912109 20.697266 z "
       transform="translate(0,1004.3622)"
       id="path2430-4" />
    <path
       style="fill:#68bb81;fill-opacity:0.3137255;stroke:none"
       d="M 15.337891 17.798828 L 15.337891 17.800781 C 14.565704 17.800781 14.011896 17.865125 13.675781 17.953125 L 13.675781 18.751953 C 14.011896 18.663953 14.565704 18.599609 15.337891 18.599609 C 18.250741 18.599609 19.916667 20.312509 20.042969 23.306641 C 20.048095 23.173111 20.068359 23.054535 20.068359 22.916016 C 20.088171 19.658016 18.385888 17.798828 15.337891 17.798828 z M 22.912109 20.697266 L 25.673828 31.347656 L 27.878906 31.347656 L 29.068359 27.017578 C 29.336711 25.967778 29.585986 24.917969 29.777344 23.605469 L 29.816406 23.605469 C 30.027349 24.895969 30.238354 25.902278 30.525391 27.017578 L 31.638672 31.347656 L 33.824219 31.347656 L 36.759766 20.697266 L 36.539062 20.697266 L 33.824219 30.546875 L 31.638672 30.546875 L 30.525391 26.216797 C 30.238354 25.101497 30.027349 24.095188 29.816406 22.804688 L 29.777344 22.804688 C 29.585986 24.117188 29.336711 25.166997 29.068359 26.216797 L 27.878906 30.546875 L 25.673828 30.546875 L 23.119141 20.697266 L 22.912109 20.697266 z M 22.626953 23.238281 C 22.54534 25.653697 21.763104 27.487326 20.564453 28.6875 C 19.238454 30.0216 17.120359 30.699219 14.527344 30.699219 C 13.102289 30.699219 12.031781 30.611453 11.240234 30.501953 L 11.240234 31.302734 C 12.031781 31.412234 13.102289 31.5 14.527344 31.5 C 17.120359 31.5 19.238454 30.822381 20.564453 29.488281 C 21.831244 28.219881 22.642578 26.252306 22.642578 23.628906 C 22.642578 23.493701 22.631481 23.369091 22.626953 23.238281 z "
       transform="translate(0,1004.3622)"
       id="path4652" />
    <path
       style="fill:#ffffff;fill-opacity:0.23529412;stroke:none"
       d="M 15.121094 16.5 C 13.676227 16.5 12.309137 16.609841 11.240234 16.806641 L 11.240234 17.207031 C 12.309137 17.010231 13.676227 16.900391 15.121094 16.900391 C 17.614828 16.900391 19.337735 17.468269 20.564453 18.605469 C 21.81669 19.733411 22.593576 21.426591 22.634766 23.833984 C 22.635932 23.764379 22.642578 23.699462 22.642578 23.628906 C 22.642578 21.114006 21.851281 19.364178 20.564453 18.205078 C 19.337735 17.067878 17.614828 16.5 15.121094 16.5 z M 22.912109 20.697266 L 23.015625 21.097656 L 25.328125 21.097656 L 26.306641 25.931641 C 26.51736 27.068441 26.727943 28.227519 26.900391 29.386719 L 26.939453 29.386719 C 27.131261 28.227519 27.438454 27.046125 27.707031 25.953125 L 28.914062 21.097656 L 30.832031 21.097656 L 32.001953 25.822266 C 32.289891 27.068566 32.539056 28.227519 32.75 29.386719 L 32.789062 29.386719 C 32.942149 28.227519 33.153128 27.068566 33.402344 25.822266 L 34.439453 21.097656 L 36.648438 21.097656 L 36.759766 20.697266 L 34.439453 20.697266 L 33.402344 25.421875 C 33.153128 26.668175 32.942149 27.827128 32.789062 28.986328 L 32.75 28.986328 C 32.539056 27.827128 32.289891 26.668175 32.001953 25.421875 L 30.832031 20.697266 L 28.914062 20.697266 L 27.707031 25.552734 C 27.438454 26.645734 27.131261 27.827128 26.939453 28.986328 L 26.900391 28.986328 C 26.727943 27.827128 26.51736 26.66805 26.306641 25.53125 L 25.328125 20.697266 L 22.912109 20.697266 z M 20.054688 23.912109 C 19.986956 27.495127 18.152651 29.357618 15.076172 29.357422 L 15.021484 29.357422 C 14.526429 29.357422 14.011896 29.357969 13.675781 29.292969 L 13.675781 29.693359 C 14.011896 29.757959 14.526429 29.757812 15.021484 29.757812 L 15.076172 29.757812 C 18.211068 29.758012 20.068359 27.835188 20.068359 24.117188 C 20.068799 24.044937 20.055938 23.982979 20.054688 23.912109 z "
       transform="translate(0,1004.3622)"
       id="path4657" />
  </g>
</svg>
