<?xml version="1.0" encoding="UTF-8" standalone="no"?>
<!-- Created with Inkscape (http://www.inkscape.org/) -->

<svg
   xmlns:dc="http://purl.org/dc/elements/1.1/"
   xmlns:cc="http://creativecommons.org/ns#"
   xmlns:rdf="http://www.w3.org/1999/02/22-rdf-syntax-ns#"
   xmlns:svg="http://www.w3.org/2000/svg"
   xmlns="http://www.w3.org/2000/svg"
   xmlns:xlink="http://www.w3.org/1999/xlink"
   xmlns:sodipodi="http://sodipodi.sourceforge.net/DTD/sodipodi-0.dtd"
   xmlns:inkscape="http://www.inkscape.org/namespaces/inkscape"
   width="48"
   height="48"
   id="svg2"
   version="1.1"
   inkscape:version="0.48+devel r"
   sodipodi:docname="AdobeSpeedgrade.svg">
  <defs
     id="defs4">
    <linearGradient
       inkscape:collect="always"
       id="linearGradient4906">
      <stop
         style="stop-color:#b9fdff;stop-opacity:1"
         offset="0"
         id="stop4908" />
      <stop
         style="stop-color:#f5ffff;stop-opacity:1"
         offset="1"
         id="stop4910" />
    </linearGradient>
    <linearGradient
       y2="-1004.3644"
       x2="24.176777"
       y1="-1052.3602"
       x1="24.176777"
       gradientUnits="userSpaceOnUse"
       id="linearGradient837"
       xlink:href="#linearGradient4206"
       inkscape:collect="always" />
    <defs
       id="defs4922">
      <filter
         color-interpolation-filters="sRGB"
         id="Adobe_OpacityMaskFilter"
         filterUnits="userSpaceOnUse"
         x="3.7850001"
         y="4.6750002"
         width="5.8829999"
         height="73.013">
        <feColorMatrix
           type="matrix"
           values="1 0 0 0 0  0 1 0 0 0  0 0 1 0 0  0 0 0 1 0"
           id="feColorMatrix4925" />
      </filter>
    </defs>
    <mask
       maskUnits="userSpaceOnUse"
       x="3.785"
       y="4.675"
       width="5.883"
       height="73.013"
       id="SVGID_2_">
      <g
         style="filter:url(#Adobe_OpacityMaskFilter)"
         id="g4928">
        <linearGradient
           id="SVGID_3_"
           gradientUnits="userSpaceOnUse"
           x1="3.7852001"
           y1="41.181198"
           x2="9.6680002"
           y2="41.181198">
          <stop
             offset="0"
             style="stop-color:#FFFFFF"
             id="stop4931" />
          <stop
             offset="0.0029"
             style="stop-color:#FAFBFB"
             id="stop4933" />
          <stop
             offset="0.0756"
             style="stop-color:#BBBDBF"
             id="stop4935" />
          <stop
             offset="0.1438"
             style="stop-color:#898B8E"
             id="stop4937" />
          <stop
             offset="0.2053"
             style="stop-color:#646567"
             id="stop4939" />
          <stop
             offset="0.259"
             style="stop-color:#444446"
             id="stop4941" />
          <stop
             offset="0.3028"
             style="stop-color:#1D1C1D"
             id="stop4943" />
          <stop
             offset="0.3313"
             style="stop-color:#000000"
             id="stop4945" />
        </linearGradient>
        <rect
           style="fill:url(#SVGID_3_)"
           x="3.7850001"
           y="4.6750002"
           width="5.8829999"
           height="73.013"
           id="rect4947" />
      </g>
    </mask>
    <linearGradient
       id="linearGradient4206"
       inkscape:collect="always">
      <stop
         id="stop4208"
         offset="0"
         style="stop-color:#00979c;stop-opacity:1" />
      <stop
         id="stop4210"
         offset="1"
         style="stop-color:#00979c;stop-opacity:1" />
    </linearGradient>
    <linearGradient
       inkscape:collect="always"
       xlink:href="#linearGradient4906"
       id="linearGradient4904"
       x1="24.668505"
       y1="1037.9432"
       x2="24.668505"
       y2="1018.5733"
       gradientUnits="userSpaceOnUse"
       gradientTransform="matrix(0.99981403,0,0,1.0007163,0.00446667,-0.7366181)" />
  </defs>
  <sodipodi:namedview
     id="base"
     pagecolor="#ffffff"
     bordercolor="#666666"
     borderopacity="1.0"
     inkscape:pageopacity="0.0"
     inkscape:pageshadow="2"
     inkscape:zoom="8.1406768"
     inkscape:cx="14.442238"
     inkscape:cy="27.186965"
     inkscape:document-units="px"
     inkscape:current-layer="layer1"
     showgrid="false"
     inkscape:window-width="1366"
     inkscape:window-height="666"
     inkscape:window-x="-2"
     inkscape:window-y="25"
     inkscape:window-maximized="1" />
  <metadata
     id="metadata7">
    <rdf:RDF>
      <cc:Work
         rdf:about="">
        <dc:format>image/svg+xml</dc:format>
        <dc:type
           rdf:resource="http://purl.org/dc/dcmitype/StillImage" />
        <dc:title />
      </cc:Work>
    </rdf:RDF>
  </metadata>
  <g
     inkscape:label="Capa 1"
     inkscape:groupmode="layer"
     id="layer1"
     transform="translate(0,-1004.3622)">
    <rect
       style="fill:url(#linearGradient837);fill-opacity:1.0;stroke:none"
       id="rect2991-1"
       width="48"
       height="48"
       x="-7.701172e-07"
       y="-1052.3622"
       ry="1.9445436"
       transform="scale(1,-1)" />
    <path
       inkscape:connector-curvature="0"
       id="path4920"
       d="m 18.788082,1020.0622 c -3.100181,0 -5.053748,1.7843 -5.053748,4.1221 0,2.0617 1.507712,3.3171 3.864517,4.167 1.826128,0.659 2.548354,1.2951 2.548354,2.3787 0,1.1691 -0.934743,1.9565 -2.612795,1.9565 -1.337178,0 -2.610784,-0.4262 -3.460294,-0.9147 l -0.574112,2.1695 c 0.785958,0.4674 2.356793,0.9128 3.864515,0.9128 3.694625,0 5.43649,-2.0184 5.43649,-4.3137 0,-2.0614 -1.210288,-3.3162 -3.694626,-4.251 -1.91065,-0.744 -2.739724,-1.2538 -2.739724,-2.3591 0,-0.8288 0.722237,-1.7219 2.378463,-1.7219 1.33782,0 2.335682,0.4038 2.845174,0.6801 l 0.636601,-2.103 c -0.742734,-0.3825 -1.888937,-0.7233 -3.438814,-0.7233 z m 10.298866,3.9736 c -2.484339,0 -4.692486,2.0625 -4.692486,5.4628 0,2.9327 1.826162,5.0584 4.395667,5.0584 1.358575,0 2.420192,-0.6164 3.015063,-1.5305 l 0.04101,0 0,0.8913 c 0,2.2317 -1.273509,3.1254 -2.972103,3.1254 -1.252871,0 -2.35664,-0.4036 -3.015065,-0.7859 l -0.574111,1.9761 c 0.89188,0.5528 2.294449,0.8288 3.610656,0.8288 1.422771,0 2.908691,-0.2985 3.991445,-1.2548 1.082752,-0.9774 1.529013,-2.5289 1.529013,-4.6968 l 0,-5.8654 c 0,-1.4238 0.0416,-2.2737 0.08396,-2.9749 l -2.271063,0 -0.105449,1.3799 -0.04296,0 c -0.488727,-0.8494 -1.422308,-1.6144 -2.993583,-1.6144 z m 0.509671,1.9995 c 1.103723,0 1.846828,0.7223 2.122651,1.6789 0.06377,0.2123 0.08592,0.4653 0.08592,0.6997 l 0,1.679 c 0,0.2975 -0.04385,0.6599 -0.107402,0.9361 -0.297435,0.9353 -1.145822,1.5715 -2.122652,1.5715 -1.635257,0 -2.526873,-1.4233 -2.526873,-3.1878 0,-2.1038 1.083001,-3.3774 2.548354,-3.3774 z"
       style="fill:#000000;fill-opacity:0.05882353;stroke:none" />
    <path
       style="fill:#000000;fill-opacity:0.11764706;stroke:none"
       d="m 18.788082,1019.6622 c -3.100181,0 -5.053748,1.7843 -5.053748,4.1221 0,2.0617 1.507712,3.3171 3.864517,4.167 1.826128,0.659 2.548354,1.2951 2.548354,2.3787 0,1.1691 -0.934743,1.9565 -2.612795,1.9565 -1.337178,0 -2.610784,-0.4262 -3.460294,-0.9147 l -0.574112,2.1695 c 0.785958,0.4674 2.356793,0.9128 3.864515,0.9128 3.694625,0 5.43649,-2.0184 5.43649,-4.3137 0,-2.0614 -1.210288,-3.3162 -3.694626,-4.251 -1.91065,-0.744 -2.739724,-1.2538 -2.739724,-2.3591 0,-0.8288 0.722237,-1.7219 2.378463,-1.7219 1.33782,0 2.335682,0.4038 2.845174,0.6801 l 0.636601,-2.103 c -0.742734,-0.3825 -1.888937,-0.7233 -3.438814,-0.7233 z m 10.298866,3.9736 c -2.484339,0 -4.692486,2.0625 -4.692486,5.4628 0,2.9327 1.826162,5.0584 4.395667,5.0584 1.358575,0 2.420192,-0.6164 3.015063,-1.5305 l 0.04101,0 0,0.8913 c 0,2.2317 -1.273509,3.1254 -2.972103,3.1254 -1.252871,0 -2.35664,-0.4036 -3.015065,-0.7859 l -0.574111,1.9761 c 0.89188,0.5528 2.294449,0.8288 3.610656,0.8288 1.422771,0 2.908691,-0.2985 3.991445,-1.2548 1.082752,-0.9774 1.529013,-2.5289 1.529013,-4.6968 l 0,-5.8654 c 0,-1.4238 0.0416,-2.2737 0.08396,-2.9749 l -2.271063,0 -0.105449,1.3799 -0.04296,0 c -0.488727,-0.8494 -1.422308,-1.6144 -2.993583,-1.6144 z m 0.509671,1.9995 c 1.103723,0 1.846828,0.7223 2.122651,1.6789 0.06377,0.2123 0.08592,0.4653 0.08592,0.6997 l 0,1.679 c 0,0.2975 -0.04385,0.6599 -0.107402,0.9361 -0.297435,0.9353 -1.145822,1.5715 -2.122652,1.5715 -1.635257,0 -2.526873,-1.4233 -2.526873,-3.1878 0,-2.1038 1.083001,-3.3774 2.548354,-3.3774 z"
       id="path4918"
       inkscape:connector-curvature="0" />
    <path
       inkscape:connector-curvature="0"
       id="path4914"
       d="m 18.788082,1019.2622 c -3.100181,0 -5.053748,1.7843 -5.053748,4.1221 0,2.0617 1.507712,3.3171 3.864517,4.167 1.826128,0.659 2.548354,1.2951 2.548354,2.3787 0,1.1691 -0.934743,1.9565 -2.612795,1.9565 -1.337178,0 -2.610784,-0.4262 -3.460294,-0.9147 l -0.574112,2.1695 c 0.785958,0.4674 2.356793,0.9128 3.864515,0.9128 3.694625,0 5.43649,-2.0184 5.43649,-4.3137 0,-2.0614 -1.210288,-3.3162 -3.694626,-4.251 -1.91065,-0.744 -2.739724,-1.2538 -2.739724,-2.3591 0,-0.8288 0.722237,-1.7219 2.378463,-1.7219 1.33782,0 2.335682,0.4038 2.845174,0.6801 l 0.636601,-2.103 c -0.742734,-0.3825 -1.888937,-0.7233 -3.438814,-0.7233 z m 10.298866,3.9736 c -2.484339,0 -4.692486,2.0625 -4.692486,5.4628 0,2.9327 1.826162,5.0584 4.395667,5.0584 1.358575,0 2.420192,-0.6164 3.015063,-1.5305 l 0.04101,0 0,0.8913 c 0,2.2317 -1.273509,3.1254 -2.972103,3.1254 -1.252871,0 -2.35664,-0.4036 -3.015065,-0.7859 l -0.574111,1.9761 c 0.89188,0.5528 2.294449,0.8288 3.610656,0.8288 1.422771,0 2.908691,-0.2985 3.991445,-1.2548 1.082752,-0.9774 1.529013,-2.5289 1.529013,-4.6968 l 0,-5.8654 c 0,-1.4238 0.0416,-2.2737 0.08396,-2.9749 l -2.271063,0 -0.105449,1.3799 -0.04296,0 c -0.488727,-0.8494 -1.422308,-1.6144 -2.993583,-1.6144 z m 0.509671,1.9995 c 1.103723,0 1.846828,0.7223 2.122651,1.6789 0.06377,0.2123 0.08592,0.4653 0.08592,0.6997 l 0,1.679 c 0,0.2975 -0.04385,0.6599 -0.107402,0.9361 -0.297435,0.9353 -1.145822,1.5715 -2.122652,1.5715 -1.635257,0 -2.526873,-1.4233 -2.526873,-3.1878 0,-2.1038 1.083001,-3.3774 2.548354,-3.3774 z"
       style="fill:#000000;fill-opacity:0.23529412;stroke:none" />
    <path
       inkscape:connector-curvature="0"
       style="fill:#000000;fill-opacity:1;stroke:none"
       d="m 4.7011719e-7,1049.3622 0,1.0625 c 0,1.0773 0.86022299988281,1.9375 1.93750002988281,1.9375 l 44.1249995,0 c 1.077278,0 1.937501,-0.8602 1.937501,-1.9375 l 0,-1.0625 c 0,1.0773 -0.860223,1.9375 -1.937501,1.9375 l -44.1249995,0 C 0.86022347,1051.2997 4.7011719e-7,1050.4395 4.7011719e-7,1049.3622 Z"
       id="rect846" />
    <path
       inkscape:connector-curvature="0"
       style="fill:#ffffff;fill-opacity:0.5372549;stroke:none"
       d="m 2.5312505,1005.0185 c -0.917088,0 -1.67114603,0.6395 -1.84375003,1.5 0.33561203,-0.2799 0.77451303,-0.4375 1.25000003,-0.4375 l 44.1249995,0 c 0.475488,0 0.914388,0.1576 1.250001,0.4375 -0.172603,-0.8605 -0.926663,-1.5 -1.843751,-1.5 L 2.5312505,1005.0185 Z"
       id="path7515" />
    <path
       inkscape:connector-curvature="0"
       style="fill:#000000;fill-opacity:0.39215686;stroke:none"
       d="m 1.9375005,1004.3622 c -1.07727703,0 -1.93750002988281,0.8602 -1.93750002988281,1.9375 l 0,43.0625 c 0,0.7934 0.48002399988281,1.449 1.15625002988281,1.75 -0.30934103,-0.3333 -0.50000003,-0.7824 -0.50000003,-1.2812 l 0,-42.9375 c 0,-1.0482 0.82689903,-1.875 1.87500003,-1.875 l 42.9374995,0 c 1.048101,0 1.875001,0.8268 1.875001,1.875 l 0,42.9375 c 0,0.4988 -0.190658,0.9479 -0.500001,1.2812 0.676227,-0.301 1.156251,-0.9566 1.156251,-1.75 l 0,-43.0625 c 0,-1.0773 -0.860223,-1.9375 -1.937501,-1.9375 L 1.9375005,1004.3622 Z"
       id="rect4280-4" />
    <path
       style="fill:url(#linearGradient4904);fill-opacity:1;stroke:none"
       d="m 18.788082,1018.8622 c -3.100181,0 -5.053748,1.7843 -5.053748,4.1221 0,2.0617 1.507712,3.3171 3.864517,4.167 1.826128,0.659 2.548354,1.2951 2.548354,2.3787 0,1.1691 -0.934743,1.9565 -2.612795,1.9565 -1.337178,0 -2.610784,-0.4262 -3.460294,-0.9147 l -0.574112,2.1695 c 0.785958,0.4674 2.356793,0.9128 3.864515,0.9128 3.694625,0 5.43649,-2.0184 5.43649,-4.3137 0,-2.0614 -1.210288,-3.3162 -3.694626,-4.251 -1.91065,-0.744 -2.739724,-1.2538 -2.739724,-2.3591 0,-0.8288 0.722237,-1.7219 2.378463,-1.7219 1.33782,0 2.335682,0.4038 2.845174,0.6801 l 0.636601,-2.103 c -0.742734,-0.3825 -1.888937,-0.7233 -3.438814,-0.7233 z m 10.298866,3.9736 c -2.484339,0 -4.692486,2.0625 -4.692486,5.4628 0,2.9327 1.826162,5.0584 4.395667,5.0584 1.358575,0 2.420192,-0.6164 3.015063,-1.5305 l 0.04101,0 0,0.8913 c 0,2.2317 -1.273509,3.1254 -2.972103,3.1254 -1.252871,0 -2.35664,-0.4036 -3.015065,-0.7859 l -0.574111,1.9761 c 0.89188,0.5528 2.294449,0.8288 3.610656,0.8288 1.422771,0 2.908691,-0.2985 3.991445,-1.2548 1.082752,-0.9774 1.529013,-2.5289 1.529013,-4.6968 l 0,-5.8654 c 0,-1.4238 0.0416,-2.2737 0.08396,-2.9749 l -2.271063,0 -0.105449,1.3799 -0.04296,0 c -0.488727,-0.8494 -1.422308,-1.6144 -2.993583,-1.6144 z m 0.509671,1.9995 c 1.103723,0 1.846828,0.7223 2.122651,1.6789 0.06377,0.2123 0.08592,0.4653 0.08592,0.6997 l 0,1.679 c 0,0.2975 -0.04385,0.6599 -0.107402,0.9361 -0.297435,0.9353 -1.145822,1.5715 -2.122652,1.5715 -1.635257,0 -2.526873,-1.4233 -2.526873,-3.1878 0,-2.1038 1.083001,-3.3774 2.548354,-3.3774 z"
       id="path2836-0"
       inkscape:connector-curvature="0" />
    <path
       style="fill:#00979c;fill-opacity:0.3137255;stroke:none"
       d="M 22.011719 15.130859 L 21.589844 16.525391 C 21.080352 16.249091 20.083914 15.845703 18.746094 15.845703 C 17.089868 15.845703 16.367188 16.739559 16.367188 17.568359 C 16.367188 17.723023 16.386763 17.86443 16.419922 17.998047 C 16.606876 17.294335 17.336326 16.646484 18.746094 16.646484 C 20.083914 16.646484 21.080352 17.049872 21.589844 17.326172 L 22.226562 15.222656 C 22.163633 15.190248 22.080442 15.162487 22.011719 15.130859 z M 13.775391 18.242188 C 13.76326 18.369518 13.734375 18.492023 13.734375 18.623047 C 13.734375 20.684747 15.242804 21.939163 17.599609 22.789062 C 19.183222 23.360545 19.933279 23.915951 20.105469 24.759766 C 20.130705 24.634192 20.146484 24.503839 20.146484 24.367188 C 20.146484 23.283588 19.425737 22.647281 17.599609 21.988281 C 15.410847 21.19898 13.971954 20.051996 13.775391 18.242188 z M 34.460938 18.708984 C 34.435819 19.275997 34.416016 19.927532 34.416016 20.882812 L 34.416016 21.683594 C 34.416016 20.259794 34.45764 19.410184 34.5 18.708984 L 34.460938 18.708984 z M 29.595703 19.673828 C 28.13035 19.673828 27.048828 20.946981 27.048828 23.050781 C 27.048828 23.189546 27.063262 23.321061 27.074219 23.455078 C 27.204751 21.594009 28.226951 20.472656 29.595703 20.472656 C 30.699426 20.472656 31.442927 21.195744 31.71875 22.152344 C 31.78252 22.364644 31.804688 22.617163 31.804688 22.851562 L 31.804688 22.050781 C 31.804688 21.816381 31.78252 21.563862 31.71875 21.351562 C 31.442927 20.394962 30.699426 19.673828 29.595703 19.673828 z M 24.416016 23.408203 C 24.403868 23.581 24.394531 23.755107 24.394531 23.935547 C 24.394531 26.868247 26.221511 28.994141 28.791016 28.994141 C 30.149591 28.994141 31.209817 28.378944 31.804688 27.464844 L 31.845703 27.464844 L 31.845703 26.664062 L 31.804688 26.664062 C 31.209817 27.578162 30.149591 28.195312 28.791016 28.195312 C 26.30388 28.195312 24.528267 26.195498 24.416016 23.408203 z M 22.765625 24.53125 C 22.592521 26.674649 20.866763 28.492188 17.365234 28.492188 C 15.955253 28.492188 14.514339 28.098784 13.6875 27.666016 L 13.5 28.378906 C 14.285958 28.846306 15.857512 29.291016 17.365234 29.291016 C 21.059859 29.291016 22.800781 27.273816 22.800781 24.978516 C 22.800781 24.821977 22.779611 24.678699 22.765625 24.53125 z M 34.416016 26.748047 C 34.416016 28.915947 33.969471 30.467913 32.886719 31.445312 C 31.803965 32.401612 30.319255 32.699219 28.896484 32.699219 C 27.669401 32.699219 26.383648 32.449175 25.490234 31.96875 L 25.285156 32.671875 C 26.177036 33.224675 27.580277 33.5 28.896484 33.5 C 30.319255 33.5 31.803965 33.202394 32.886719 32.246094 C 33.969471 31.268694 34.416016 29.716728 34.416016 27.548828 L 34.416016 26.748047 z "
       transform="translate(0,1004.3622)"
       id="path4922" />
    <path
       style="fill:#ffffff;fill-opacity:0.23529412;stroke:none"
       d="M 18.787109 14.5 C 15.686928 14.5 13.734375 16.285247 13.734375 18.623047 C 13.734375 18.696369 13.750122 18.76073 13.753906 18.832031 C 13.85937 16.590512 15.773514 14.900391 18.787109 14.900391 C 20.27111 14.900391 21.375135 15.213841 22.119141 15.576172 L 22.226562 15.222656 C 21.483829 14.840156 20.336986 14.5 18.787109 14.5 z M 29.087891 18.472656 C 26.603552 18.472656 24.394531 20.535247 24.394531 23.935547 C 24.394531 23.982829 24.405305 24.025408 24.40625 24.072266 C 24.51901 20.831814 26.669478 18.873047 29.087891 18.873047 C 30.659166 18.873047 31.591351 19.638881 32.080078 20.488281 L 32.123047 20.488281 L 32.228516 19.107422 L 34.480469 19.107422 C 34.487195 18.982556 34.493053 18.823977 34.5 18.708984 L 32.228516 18.708984 L 32.123047 20.087891 L 32.080078 20.087891 C 31.591351 19.238491 30.659166 18.472656 29.087891 18.472656 z M 16.388672 18.574219 C 16.379814 18.639081 16.367188 18.703044 16.367188 18.767578 C 16.367187 19.872878 17.194819 20.382953 19.105469 21.126953 C 21.495888 22.026414 22.695067 23.230791 22.783203 25.15625 C 22.785623 25.096219 22.800781 25.038963 22.800781 24.978516 C 22.800781 22.917116 21.589807 21.661362 19.105469 20.726562 C 17.322077 20.032116 16.492802 19.535294 16.388672 18.574219 z M 27.0625 24.052734 C 27.06017 24.12028 27.048828 24.180633 27.048828 24.25 C 27.048828 26.0145 27.938962 27.4375 29.574219 27.4375 C 30.551049 27.4375 31.399831 26.802488 31.697266 25.867188 C 31.760818 25.590988 31.804688 25.229141 31.804688 24.931641 L 31.804688 24.53125 C 31.804688 24.82875 31.760818 25.190597 31.697266 25.466797 C 31.399831 26.402097 30.551049 27.039062 29.574219 27.039062 C 28.003396 27.039062 27.129776 25.720265 27.0625 24.052734 z M 20.126953 25.351562 C 20.030871 26.416141 19.121463 27.125 17.535156 27.125 C 16.197978 27.125 14.923729 26.697484 14.074219 26.208984 L 13.5 28.378906 C 13.525578 28.394117 13.566539 28.408678 13.59375 28.423828 L 14.074219 26.609375 C 14.923729 27.097875 16.197978 27.523438 17.535156 27.523438 C 19.213208 27.523438 20.146484 26.737459 20.146484 25.568359 C 20.146484 25.492398 20.134183 25.423288 20.126953 25.351562 z M 31.845703 28.355469 C 31.845703 30.587169 30.573594 31.480469 28.875 31.480469 C 27.622129 31.480469 26.5178 31.077612 25.859375 30.695312 L 25.285156 32.671875 C 25.315148 32.690464 25.355595 32.70274 25.386719 32.720703 L 25.859375 31.095703 C 26.5178 31.478003 27.622129 31.880859 28.875 31.880859 C 30.573594 31.880859 31.845703 30.987559 31.845703 28.755859 L 31.845703 28.355469 z "
       transform="translate(0,1004.3622)"
       id="path4927" />
  </g>
</svg>
