<?xml version="1.0" encoding="UTF-8" standalone="no"?>
<!-- Created with Inkscape (http://www.inkscape.org/) -->

<svg
   xmlns:dc="http://purl.org/dc/elements/1.1/"
   xmlns:cc="http://creativecommons.org/ns#"
   xmlns:rdf="http://www.w3.org/1999/02/22-rdf-syntax-ns#"
   xmlns:svg="http://www.w3.org/2000/svg"
   xmlns="http://www.w3.org/2000/svg"
   xmlns:xlink="http://www.w3.org/1999/xlink"
   xmlns:sodipodi="http://sodipodi.sourceforge.net/DTD/sodipodi-0.dtd"
   xmlns:inkscape="http://www.inkscape.org/namespaces/inkscape"
   width="48"
   height="48"
   id="svg2"
   version="1.1"
   inkscape:version="0.48+devel r"
   sodipodi:docname="AdobePhotoshop.svg">
  <defs
     id="defs4">
    <linearGradient
       id="linearGradient4899">
      <stop
         style="stop-color:#b9d9ff;stop-opacity:1"
         offset="0"
         id="stop4901" />
      <stop
         style="stop-color:#f6fbfe;stop-opacity:1"
         offset="1"
         id="stop4903" />
    </linearGradient>
    <linearGradient
       y2="-1004.3644"
       x2="24.176777"
       y1="-1052.3602"
       x1="24.176777"
       gradientUnits="userSpaceOnUse"
       id="linearGradient837"
       xlink:href="#linearGradient943-6"
       inkscape:collect="always" />
    <defs
       id="defs4922">
      <filter
         color-interpolation-filters="sRGB"
         id="Adobe_OpacityMaskFilter"
         filterUnits="userSpaceOnUse"
         x="3.7850001"
         y="4.6750002"
         width="5.8829999"
         height="73.013">
        <feColorMatrix
           type="matrix"
           values="1 0 0 0 0  0 1 0 0 0  0 0 1 0 0  0 0 0 1 0"
           id="feColorMatrix4925" />
      </filter>
    </defs>
    <mask
       maskUnits="userSpaceOnUse"
       x="3.785"
       y="4.675"
       width="5.883"
       height="73.013"
       id="SVGID_2_">
      <g
         style="filter:url(#Adobe_OpacityMaskFilter)"
         id="g4928">
        <linearGradient
           id="SVGID_3_"
           gradientUnits="userSpaceOnUse"
           x1="3.7852001"
           y1="41.181198"
           x2="9.6680002"
           y2="41.181198">
          <stop
             offset="0"
             style="stop-color:#FFFFFF"
             id="stop4931" />
          <stop
             offset="0.0029"
             style="stop-color:#FAFBFB"
             id="stop4933" />
          <stop
             offset="0.0756"
             style="stop-color:#BBBDBF"
             id="stop4935" />
          <stop
             offset="0.1438"
             style="stop-color:#898B8E"
             id="stop4937" />
          <stop
             offset="0.2053"
             style="stop-color:#646567"
             id="stop4939" />
          <stop
             offset="0.259"
             style="stop-color:#444446"
             id="stop4941" />
          <stop
             offset="0.3028"
             style="stop-color:#1D1C1D"
             id="stop4943" />
          <stop
             offset="0.3313"
             style="stop-color:#000000"
             id="stop4945" />
        </linearGradient>
        <rect
           style="fill:url(#SVGID_3_)"
           x="3.7850001"
           y="4.6750002"
           width="5.8829999"
           height="73.013"
           id="rect4947" />
      </g>
    </mask>
    <linearGradient
       id="linearGradient943-6">
      <stop
         id="stop945-0"
         offset="0"
         style="stop-color:#0059c1;stop-opacity:1" />
      <stop
         id="stop947-5"
         offset="1"
         style="stop-color:#118de7;stop-opacity:1" />
    </linearGradient>
    <linearGradient
       inkscape:collect="always"
       xlink:href="#linearGradient4899"
       id="linearGradient4897"
       x1="25.287285"
       y1="1035.9545"
       x2="25.287285"
       y2="1020.8335"
       gradientUnits="userSpaceOnUse" />
  </defs>
  <sodipodi:namedview
     id="base"
     pagecolor="#ffffff"
     bordercolor="#666666"
     borderopacity="1.0"
     inkscape:pageopacity="0.0"
     inkscape:pageshadow="2"
     inkscape:zoom="10.989435"
     inkscape:cx="23.318915"
     inkscape:cy="25.511952"
     inkscape:document-units="px"
     inkscape:current-layer="layer1"
     showgrid="false"
     inkscape:window-width="1366"
     inkscape:window-height="666"
     inkscape:window-x="-2"
     inkscape:window-y="25"
     inkscape:window-maximized="1" />
  <metadata
     id="metadata7">
    <rdf:RDF>
      <cc:Work
         rdf:about="">
        <dc:format>image/svg+xml</dc:format>
        <dc:type
           rdf:resource="http://purl.org/dc/dcmitype/StillImage" />
        <dc:title />
      </cc:Work>
    </rdf:RDF>
  </metadata>
  <g
     inkscape:label="Capa 1"
     inkscape:groupmode="layer"
     id="layer1"
     transform="translate(0,-1004.3622)">
    <rect
       style="fill:url(#linearGradient837);fill-opacity:1.0;stroke:none"
       id="rect2991-1"
       width="48"
       height="48"
       x="-7.701172e-07"
       y="-1052.3622"
       ry="1.9445436"
       transform="scale(1,-1)" />
    <path
       inkscape:connector-curvature="0"
       id="path4913"
       d="m 19.249023,1022.0622 c -1.803993,0 -3.129329,0.1306 -4.085937,0.3047 l 0,14.4551 2.652343,0 0,-5.5215 c 0.348041,0.065 0.804673,0.088 1.304688,0.088 1.891283,0 3.565698,-0.4994 4.630859,-1.5645 0.826122,-0.7827 1.259766,-1.935 1.259766,-3.3262 0,-1.3696 -0.566005,-2.5226 -1.435547,-3.2402 -0.934898,-0.7825 -2.369533,-1.1953 -4.326172,-1.1953 z m 0.109375,2.043 c 1.847862,0 2.978516,0.8697 2.978516,2.5 0,1.7176 -1.216962,2.6953 -3.216797,2.6953 -0.543436,0 -0.978358,-0.02 -1.304688,-0.1074 l 0,-4.9571 c 0.28291,-0.065 0.804138,-0.1308 1.542969,-0.1308 z m 10.238281,1.8906 c -2.456654,0 -4,1.4567 -4,3.3262 -0.02149,1.2389 0.848648,2.3708 2.914063,3.0879 1.304202,0.4566 1.738281,0.8253 1.738281,1.5429 0,0.6954 -0.521374,1.1739 -1.695312,1.1739 -0.956609,0 -2.109959,-0.39 -2.71875,-0.7598 l -0.521485,1.9336 c 0.782252,0.4347 1.936259,0.7617 3.21875,0.7617 2.804695,0 4.304688,-1.4132 4.304688,-3.3262 -0.02216,-1.565 -0.913178,-2.5427 -2.826172,-3.2383 -1.347846,-0.4783 -1.849609,-0.8041 -1.849609,-1.4785 0,-0.6517 0.52213,-1.1093 1.478515,-1.1093 0.93445,0 1.783641,0.3484 2.240235,0.6093 l 0.521484,-1.8925 c -0.608344,-0.3261 -1.630974,-0.6309 -2.804688,-0.6309 z"
       style="fill:#000000;fill-opacity:0.05882353;stroke:none" />
    <path
       style="fill:#000000;fill-opacity:0.11764706;stroke:none"
       d="m 19.249023,1021.6622 c -1.803993,0 -3.129329,0.1306 -4.085937,0.3047 l 0,14.4551 2.652343,0 0,-5.5215 c 0.348041,0.065 0.804673,0.088 1.304688,0.088 1.891283,0 3.565698,-0.4994 4.630859,-1.5645 0.826122,-0.7827 1.259766,-1.935 1.259766,-3.3262 0,-1.3696 -0.566005,-2.5226 -1.435547,-3.2402 -0.934898,-0.7825 -2.369533,-1.1953 -4.326172,-1.1953 z m 0.109375,2.043 c 1.847862,0 2.978516,0.8697 2.978516,2.5 0,1.7176 -1.216962,2.6953 -3.216797,2.6953 -0.543436,0 -0.978358,-0.02 -1.304688,-0.1074 l 0,-4.9571 c 0.28291,-0.065 0.804138,-0.1308 1.542969,-0.1308 z m 10.238281,1.8906 c -2.456654,0 -4,1.4567 -4,3.3262 -0.02149,1.2389 0.848648,2.3708 2.914063,3.0879 1.304202,0.4566 1.738281,0.8253 1.738281,1.5429 0,0.6954 -0.521374,1.1739 -1.695312,1.1739 -0.956609,0 -2.109959,-0.39 -2.71875,-0.7598 l -0.521485,1.9336 c 0.782252,0.4347 1.936259,0.7617 3.21875,0.7617 2.804695,0 4.304688,-1.4132 4.304688,-3.3262 -0.02216,-1.565 -0.913178,-2.5427 -2.826172,-3.2383 -1.347846,-0.4783 -1.849609,-0.8041 -1.849609,-1.4785 0,-0.6517 0.52213,-1.1093 1.478515,-1.1093 0.93445,0 1.783641,0.3484 2.240235,0.6093 l 0.521484,-1.8925 c -0.608344,-0.3261 -1.630974,-0.6309 -2.804688,-0.6309 z"
       id="path4911"
       inkscape:connector-curvature="0" />
    <path
       inkscape:connector-curvature="0"
       id="path4905"
       d="m 19.249023,1021.2622 c -1.803993,0 -3.129329,0.1306 -4.085937,0.3047 l 0,14.4551 2.652343,0 0,-5.5215 c 0.348041,0.065 0.804673,0.088 1.304688,0.088 1.891283,0 3.565698,-0.4994 4.630859,-1.5645 0.826122,-0.7827 1.259766,-1.935 1.259766,-3.3262 0,-1.3696 -0.566005,-2.5226 -1.435547,-3.2402 -0.934898,-0.7825 -2.369533,-1.1953 -4.326172,-1.1953 z m 0.109375,2.043 c 1.847862,0 2.978516,0.8697 2.978516,2.5 0,1.7176 -1.216962,2.6953 -3.216797,2.6953 -0.543436,0 -0.978358,-0.02 -1.304688,-0.1074 l 0,-4.9571 c 0.28291,-0.065 0.804138,-0.1308 1.542969,-0.1308 z m 10.238281,1.8906 c -2.456654,0 -4,1.4567 -4,3.3262 -0.02149,1.2389 0.848648,2.3708 2.914063,3.0879 1.304202,0.4566 1.738281,0.8253 1.738281,1.5429 0,0.6954 -0.521374,1.1739 -1.695312,1.1739 -0.956609,0 -2.109959,-0.39 -2.71875,-0.7598 l -0.521485,1.9336 c 0.782252,0.4347 1.936259,0.7617 3.21875,0.7617 2.804695,0 4.304688,-1.4132 4.304688,-3.3262 -0.02216,-1.565 -0.913178,-2.5427 -2.826172,-3.2383 -1.347846,-0.4783 -1.849609,-0.8041 -1.849609,-1.4785 0,-0.6517 0.52213,-1.1093 1.478515,-1.1093 0.93445,0 1.783641,0.3484 2.240235,0.6093 l 0.521484,-1.8925 c -0.608344,-0.3261 -1.630974,-0.6309 -2.804688,-0.6309 z"
       style="fill:#000000;fill-opacity:0.23529412;stroke:none" />
    <path
       inkscape:connector-curvature="0"
       style="fill:#000000;fill-opacity:1;stroke:none"
       d="m 4.7011719e-7,1049.3622 0,1.0625 c 0,1.0773 0.86022299988281,1.9375 1.93750002988281,1.9375 l 44.1249995,0 c 1.077278,0 1.937501,-0.8602 1.937501,-1.9375 l 0,-1.0625 c 0,1.0773 -0.860223,1.9375 -1.937501,1.9375 l -44.1249995,0 C 0.86022347,1051.2997 4.7011719e-7,1050.4395 4.7011719e-7,1049.3622 Z"
       id="rect846" />
    <path
       inkscape:connector-curvature="0"
       style="fill:#ffffff;fill-opacity:0.5372549;stroke:none"
       d="m 2.5312505,1005.0185 c -0.917088,0 -1.67114603,0.6395 -1.84375003,1.5 0.33561203,-0.2799 0.77451303,-0.4375 1.25000003,-0.4375 l 44.1249995,0 c 0.475488,0 0.914388,0.1576 1.250001,0.4375 -0.172603,-0.8605 -0.926663,-1.5 -1.843751,-1.5 L 2.5312505,1005.0185 Z"
       id="path7515" />
    <path
       inkscape:connector-curvature="0"
       style="fill:#000000;fill-opacity:0.39215686;stroke:none"
       d="m 1.9375005,1004.3622 c -1.07727703,0 -1.93750002988281,0.8602 -1.93750002988281,1.9375 l 0,43.0625 c 0,0.7934 0.48002399988281,1.449 1.15625002988281,1.75 -0.30934103,-0.3333 -0.50000003,-0.7824 -0.50000003,-1.2812 l 0,-42.9375 c 0,-1.0482 0.82689903,-1.875 1.87500003,-1.875 l 42.9374995,0 c 1.048101,0 1.875001,0.8268 1.875001,1.875 l 0,42.9375 c 0,0.4988 -0.190658,0.9479 -0.500001,1.2812 0.676227,-0.301 1.156251,-0.9566 1.156251,-1.75 l 0,-43.0625 c 0,-1.0773 -0.860223,-1.9375 -1.937501,-1.9375 L 1.9375005,1004.3622 Z"
       id="rect4280-4" />
    <path
       style="fill:url(#linearGradient4897);fill-opacity:1;stroke:none"
       d="m 19.249023,1020.8622 c -1.803993,0 -3.129329,0.1306 -4.085937,0.3047 l 0,14.4551 2.652343,0 0,-5.5215 c 0.348041,0.065 0.804673,0.088 1.304688,0.088 1.891283,0 3.565698,-0.4994 4.630859,-1.5645 0.826122,-0.7827 1.259766,-1.935 1.259766,-3.3262 0,-1.3696 -0.566005,-2.5226 -1.435547,-3.2402 -0.934898,-0.7825 -2.369533,-1.1953 -4.326172,-1.1953 z m 0.109375,2.043 c 1.847862,0 2.978516,0.8697 2.978516,2.5 0,1.7176 -1.216962,2.6953 -3.216797,2.6953 -0.543436,0 -0.978358,-0.02 -1.304688,-0.1074 l 0,-4.9571 c 0.28291,-0.065 0.804138,-0.1308 1.542969,-0.1308 z m 10.238281,1.8906 c -2.456654,0 -4,1.4567 -4,3.3262 -0.02149,1.2389 0.848648,2.3708 2.914063,3.0879 1.304202,0.4566 1.738281,0.8253 1.738281,1.5429 0,0.6954 -0.521374,1.1739 -1.695312,1.1739 -0.956609,0 -2.109959,-0.39 -2.71875,-0.7598 l -0.521485,1.9336 c 0.782252,0.4347 1.936259,0.7617 3.21875,0.7617 2.804695,0 4.304688,-1.4132 4.304688,-3.3262 -0.02216,-1.565 -0.913178,-2.5427 -2.826172,-3.2383 -1.347846,-0.4783 -1.849609,-0.8041 -1.849609,-1.4785 0,-0.6517 0.52213,-1.1093 1.478515,-1.1093 0.93445,0 1.783641,0.3484 2.240235,0.6093 l 0.521484,-1.8925 c -0.608344,-0.3261 -1.630974,-0.6309 -2.804688,-0.6309 z"
       id="path156-1"
       inkscape:connector-curvature="0" />
    <path
       style="fill:#0361c7;fill-opacity:0.3137255;stroke:none"
       d="M 19.357422 17.742188 C 18.618591 17.742188 18.097363 17.808047 17.814453 17.873047 L 17.814453 18.673828 C 18.097363 18.608828 18.618591 18.542969 19.357422 18.542969 C 21.043221 18.542969 22.122753 19.273832 22.300781 20.638672 C 22.316644 20.508907 22.335938 20.381867 22.335938 20.242188 C 22.335938 18.611887 21.205284 17.742188 19.357422 17.742188 z M 24.984375 20.443359 C 24.922734 21.692198 24.512253 22.73875 23.75 23.460938 C 22.684839 24.526038 21.010424 25.025391 19.119141 25.025391 C 18.619126 25.025391 18.162494 25.0025 17.814453 24.9375 L 17.814453 25.738281 C 18.162494 25.803281 18.619126 25.826172 19.119141 25.826172 C 21.010424 25.826172 22.684839 25.326819 23.75 24.261719 C 24.576122 23.479019 25.009766 22.326747 25.009766 20.935547 C 25.009766 20.768318 25.000774 20.603731 24.984375 20.443359 z M 32.205078 20.976562 L 31.880859 22.15625 C 31.424265 21.89535 30.573122 21.546875 29.638672 21.546875 C 28.682287 21.546875 28.162109 22.00455 28.162109 22.65625 C 28.162109 22.804592 28.18997 22.934745 28.242188 23.054688 C 28.419595 22.625528 28.895324 22.347656 29.638672 22.347656 C 30.573122 22.347656 31.424265 22.696131 31.880859 22.957031 L 32.400391 21.064453 C 32.344197 21.034331 32.268134 21.006098 32.205078 20.976562 z M 25.630859 23.421875 C 25.619097 23.534583 25.595703 23.643621 25.595703 23.759766 C 25.574213 24.998666 26.444351 26.130556 28.509766 26.847656 C 29.534312 27.206349 30.017698 27.512648 30.179688 27.974609 C 30.221894 27.855604 30.248047 27.728032 30.248047 27.589844 C 30.248047 26.872244 29.813968 26.503475 28.509766 26.046875 C 26.704636 25.420145 25.812699 24.476805 25.630859 23.421875 z M 32.798828 27.748047 C 32.61055 29.464808 31.146325 30.699219 28.53125 30.699219 C 27.343581 30.699219 26.279951 30.414045 25.505859 30.027344 L 25.3125 30.738281 C 26.094752 31.172981 27.248759 31.5 28.53125 31.5 C 31.335945 31.5 32.835938 30.086828 32.835938 28.173828 C 32.833833 28.025234 32.816729 27.886313 32.798828 27.748047 z M 15.164062 30.458984 L 15.164062 31.259766 L 17.814453 31.259766 L 17.814453 30.458984 L 15.164062 30.458984 z "
       transform="translate(0,1004.3622)"
       id="path4915" />
    <path
       style="fill:#ffffff;fill-opacity:0.23529412;stroke:none"
       d="M 19.248047 16.5 C 17.444054 16.5 16.120671 16.630587 15.164062 16.804688 L 15.164062 17.205078 C 16.120671 17.030978 17.444054 16.900391 19.248047 16.900391 C 21.204686 16.900391 22.639321 17.313203 23.574219 18.095703 C 24.390686 18.769502 24.934087 19.829435 24.998047 21.089844 C 24.999344 21.036712 25.009766 20.989403 25.009766 20.935547 C 25.009766 19.565947 24.443761 18.412912 23.574219 17.695312 C 22.639321 16.912812 21.204686 16.5 19.248047 16.5 z M 29.595703 20.433594 C 27.139049 20.433594 25.595703 21.890266 25.595703 23.759766 C 25.594343 23.83818 25.607421 23.914709 25.613281 23.992188 C 25.705088 22.206104 27.214924 20.833984 29.595703 20.833984 C 30.71541 20.833984 31.686543 21.113223 32.302734 21.421875 L 32.400391 21.064453 C 31.792047 20.738353 30.769417 20.433594 29.595703 20.433594 z M 22.318359 21.242188 C 22.223668 22.831232 21.037263 23.738281 19.119141 23.738281 C 18.575705 23.738281 18.140783 23.718259 17.814453 23.630859 L 17.814453 24.03125 C 18.140783 24.11865 18.575705 24.138672 19.119141 24.138672 C 21.118976 24.138672 22.335938 23.160959 22.335938 21.443359 C 22.335938 21.372211 22.322632 21.310429 22.318359 21.242188 z M 28.181641 23.658203 C 28.169962 23.722736 28.162109 23.788192 28.162109 23.857422 C 28.162109 24.531822 28.66192 24.857638 30.009766 25.335938 C 31.831978 25.998528 32.718372 26.923037 32.818359 28.361328 C 32.821796 28.297696 32.835938 28.238643 32.835938 28.173828 C 32.813778 26.608828 31.92276 25.631147 30.009766 24.935547 C 28.804144 24.507717 28.279788 24.200626 28.181641 23.658203 z M 30.230469 28.570312 C 30.144208 29.165803 29.623115 29.564453 28.554688 29.564453 C 27.598078 29.564453 26.444729 29.174487 25.835938 28.804688 L 25.3125 30.738281 C 25.341178 30.754218 25.378538 30.767567 25.408203 30.783203 L 25.835938 29.205078 C 26.444729 29.574878 27.598078 29.964844 28.554688 29.964844 C 29.728625 29.964844 30.248047 29.486416 30.248047 28.791016 C 30.248047 28.713029 30.241282 28.640618 30.230469 28.570312 z "
       transform="translate(0,1004.3622)"
       id="path4920" />
  </g>
</svg>
