<?xml version="1.0" encoding="UTF-8" standalone="no"?>
<!-- Created with Inkscape (http://www.inkscape.org/) -->

<svg
   xmlns:dc="http://purl.org/dc/elements/1.1/"
   xmlns:cc="http://creativecommons.org/ns#"
   xmlns:rdf="http://www.w3.org/1999/02/22-rdf-syntax-ns#"
   xmlns:svg="http://www.w3.org/2000/svg"
   xmlns="http://www.w3.org/2000/svg"
   xmlns:xlink="http://www.w3.org/1999/xlink"
   xmlns:sodipodi="http://sodipodi.sourceforge.net/DTD/sodipodi-0.dtd"
   xmlns:inkscape="http://www.inkscape.org/namespaces/inkscape"
   width="48"
   height="48"
   id="svg2"
   version="1.1"
   inkscape:version="0.48+devel r"
   sodipodi:docname="AdobeFirework.svg">
  <defs
     id="defs4">
    <linearGradient
       inkscape:collect="always"
       id="linearGradient4730">
      <stop
         style="stop-color:#ffe9b9;stop-opacity:1"
         offset="0"
         id="stop4732" />
      <stop
         style="stop-color:#fffef5;stop-opacity:1"
         offset="1"
         id="stop4734" />
    </linearGradient>
    <linearGradient
       y2="-1004.3644"
       x2="24.176777"
       y1="-1052.3602"
       x1="24.176777"
       gradientUnits="userSpaceOnUse"
       id="linearGradient837"
       xlink:href="#linearGradient859"
       inkscape:collect="always" />
    <linearGradient
       id="linearGradient859"
       inkscape:collect="always">
      <stop
         id="stop861"
         offset="0"
         style="stop-color:#ffae00;stop-opacity:1" />
      <stop
         id="stop863"
         offset="1"
         style="stop-color:#fcdb00;stop-opacity:1" />
    </linearGradient>
    <defs
       id="defs4922">
      <filter
         color-interpolation-filters="sRGB"
         id="Adobe_OpacityMaskFilter"
         filterUnits="userSpaceOnUse"
         x="3.7850001"
         y="4.6750002"
         width="5.8829999"
         height="73.013">
        <feColorMatrix
           type="matrix"
           values="1 0 0 0 0  0 1 0 0 0  0 0 1 0 0  0 0 0 1 0"
           id="feColorMatrix4925" />
      </filter>
    </defs>
    <mask
       maskUnits="userSpaceOnUse"
       x="3.785"
       y="4.675"
       width="5.883"
       height="73.013"
       id="SVGID_2_">
      <g
         style="filter:url(#Adobe_OpacityMaskFilter)"
         id="g4928">
        <linearGradient
           id="SVGID_3_"
           gradientUnits="userSpaceOnUse"
           x1="3.7852001"
           y1="41.181198"
           x2="9.6680002"
           y2="41.181198">
          <stop
             offset="0"
             style="stop-color:#FFFFFF"
             id="stop4931" />
          <stop
             offset="0.0029"
             style="stop-color:#FAFBFB"
             id="stop4933" />
          <stop
             offset="0.0756"
             style="stop-color:#BBBDBF"
             id="stop4935" />
          <stop
             offset="0.1438"
             style="stop-color:#898B8E"
             id="stop4937" />
          <stop
             offset="0.2053"
             style="stop-color:#646567"
             id="stop4939" />
          <stop
             offset="0.259"
             style="stop-color:#444446"
             id="stop4941" />
          <stop
             offset="0.3028"
             style="stop-color:#1D1C1D"
             id="stop4943" />
          <stop
             offset="0.3313"
             style="stop-color:#000000"
             id="stop4945" />
        </linearGradient>
        <rect
           style="fill:url(#SVGID_3_)"
           x="3.7850001"
           y="4.6750002"
           width="5.8829999"
           height="73.013"
           id="rect4947" />
      </g>
    </mask>
    <linearGradient
       inkscape:collect="always"
       xlink:href="#linearGradient4730"
       id="linearGradient4728"
       x1="24.782879"
       y1="31.569363"
       x2="24.782879"
       y2="16.439484"
       gradientUnits="userSpaceOnUse" />
  </defs>
  <sodipodi:namedview
     id="base"
     pagecolor="#ffffff"
     bordercolor="#666666"
     borderopacity="1.0"
     inkscape:pageopacity="0.0"
     inkscape:pageshadow="2"
     inkscape:zoom="5.1643044"
     inkscape:cx="62.843398"
     inkscape:cy="26.243988"
     inkscape:document-units="px"
     inkscape:current-layer="layer1"
     showgrid="false"
     inkscape:window-width="1366"
     inkscape:window-height="666"
     inkscape:window-x="-2"
     inkscape:window-y="25"
     inkscape:window-maximized="1" />
  <metadata
     id="metadata7">
    <rdf:RDF>
      <cc:Work
         rdf:about="">
        <dc:format>image/svg+xml</dc:format>
        <dc:type
           rdf:resource="http://purl.org/dc/dcmitype/StillImage" />
        <dc:title />
      </cc:Work>
    </rdf:RDF>
  </metadata>
  <g
     inkscape:label="Capa 1"
     inkscape:groupmode="layer"
     id="layer1"
     transform="translate(0,-1004.3622)">
    <rect
       style="fill:url(#linearGradient837);fill-opacity:1.0;stroke:none"
       id="rect2991-1"
       width="48"
       height="48"
       x="-7.701172e-07"
       y="-1052.3622"
       ry="1.9445436"
       transform="scale(1,-1)" />
    <path
       id="path4742"
       d="m 12.060547,1022.0622 0,15 2.738281,0 0,-6.3652 5.519531,0 0,-2.2481 -5.519531,0 0,-4.1387 5.919922,0 0,-2.248 -8.658203,0 z m 8.998047,4.1621 2.96875,10.8379 2.36914,0 1.277344,-4.4062 c 0.288423,-1.068 0.557559,-2.1373 0.763672,-3.4727 l 0.04102,0 c 0.226746,1.3134 0.451989,2.3376 0.761718,3.4727 l 1.195313,4.4062 2.349609,0 3.154297,-10.8379 -2.494141,0 -1.113281,4.8067 c -0.268237,1.2685 -0.495087,2.4474 -0.660156,3.6269 l -0.04102,0 c -0.226743,-1.1795 -0.493229,-2.3584 -0.802734,-3.6269 l -1.257813,-4.8067 -2.060546,0 -1.298828,4.9395 c -0.288648,1.1131 -0.618331,2.3146 -0.824219,3.4941 l -0.04102,0 c -0.185482,-1.1795 -0.41215,-2.3581 -0.638672,-3.5156 l -1.050781,-4.918 -2.597656,0 z"
       style="fill:#000000;fill-opacity:0.05882353;stroke:none"
       inkscape:connector-curvature="0" />
    <path
       inkscape:connector-curvature="0"
       style="fill:#000000;fill-opacity:0.11764706;stroke:none"
       d="m 12.060547,1021.6622 0,15 2.738281,0 0,-6.3652 5.519531,0 0,-2.2481 -5.519531,0 0,-4.1387 5.919922,0 0,-2.248 -8.658203,0 z m 8.998047,4.1621 2.96875,10.8379 2.36914,0 1.277344,-4.4062 c 0.288423,-1.068 0.557559,-2.1373 0.763672,-3.4727 l 0.04102,0 c 0.226746,1.3134 0.451989,2.3376 0.761718,3.4727 l 1.195313,4.4062 2.349609,0 3.154297,-10.8379 -2.494141,0 -1.113281,4.8067 c -0.268237,1.2685 -0.495087,2.4474 -0.660156,3.6269 l -0.04102,0 c -0.226743,-1.1795 -0.493229,-2.3584 -0.802734,-3.6269 l -1.257813,-4.8067 -2.060546,0 -1.298828,4.9395 c -0.288648,1.1131 -0.618331,2.3146 -0.824219,3.4941 l -0.04102,0 c -0.185482,-1.1795 -0.41215,-2.3581 -0.638672,-3.5156 l -1.050781,-4.918 -2.597656,0 z"
       id="path4740" />
    <path
       inkscape:connector-curvature="0"
       style="fill:#000000;fill-opacity:1;stroke:none"
       d="m 4.7011719e-7,1049.3622 0,1.0625 c 0,1.0773 0.86022299988281,1.9375 1.93750002988281,1.9375 l 44.1249995,0 c 1.077278,0 1.937501,-0.8602 1.937501,-1.9375 l 0,-1.0625 c 0,1.0773 -0.860223,1.9375 -1.937501,1.9375 l -44.1249995,0 C 0.86022347,1051.2997 4.7011719e-7,1050.4395 4.7011719e-7,1049.3622 Z"
       id="rect846" />
    <path
       inkscape:connector-curvature="0"
       style="fill:#ffffff;fill-opacity:0.5372549;stroke:none"
       d="m 2.5312505,1005.0185 c -0.917088,0 -1.67114603,0.6395 -1.84375003,1.5 0.33561203,-0.2799 0.77451303,-0.4375 1.25000003,-0.4375 l 44.1249995,0 c 0.475488,0 0.914388,0.1576 1.250001,0.4375 -0.172603,-0.8605 -0.926663,-1.5 -1.843751,-1.5 L 2.5312505,1005.0185 Z"
       id="path7515" />
    <path
       inkscape:connector-curvature="0"
       style="fill:#000000;fill-opacity:0.39215686;stroke:none"
       d="m 1.9375005,1004.3622 c -1.07727703,0 -1.93750002988281,0.8602 -1.93750002988281,1.9375 l 0,43.0625 c 0,0.7934 0.48002399988281,1.449 1.15625002988281,1.75 -0.30934103,-0.3333 -0.50000003,-0.7824 -0.50000003,-1.2812 l 0,-42.9375 c 0,-1.0482 0.82689903,-1.875 1.87500003,-1.875 l 42.9374995,0 c 1.048101,0 1.875001,0.8268 1.875001,1.875 l 0,42.9375 c 0,0.4988 -0.190658,0.9479 -0.500001,1.2812 0.676227,-0.301 1.156251,-0.9566 1.156251,-1.75 l 0,-43.0625 c 0,-1.0773 -0.860223,-1.9375 -1.937501,-1.9375 L 1.9375005,1004.3622 Z"
       id="rect4280-4" />
    <path
       id="path4736"
       d="m 12.060547,1021.2622 0,15 2.738281,0 0,-6.3652 5.519531,0 0,-2.2481 -5.519531,0 0,-4.1387 5.919922,0 0,-2.248 -8.658203,0 z m 8.998047,4.1621 2.96875,10.8379 2.36914,0 1.277344,-4.4062 c 0.288423,-1.068 0.557559,-2.1373 0.763672,-3.4727 l 0.04102,0 c 0.226746,1.3134 0.451989,2.3376 0.761718,3.4727 l 1.195313,4.4062 2.349609,0 3.154297,-10.8379 -2.494141,0 -1.113281,4.8067 c -0.268237,1.2685 -0.495087,2.4474 -0.660156,3.6269 l -0.04102,0 c -0.226743,-1.1795 -0.493229,-2.3584 -0.802734,-3.6269 l -1.257813,-4.8067 -2.060546,0 -1.298828,4.9395 c -0.288648,1.1131 -0.618331,2.3146 -0.824219,3.4941 l -0.04102,0 c -0.185482,-1.1795 -0.41215,-2.3581 -0.638672,-3.5156 l -1.050781,-4.918 -2.597656,0 z"
       style="fill:#000000;fill-opacity:0.23529412;stroke:none"
       inkscape:connector-curvature="0" />
    <path
       style="fill:url(#linearGradient4728);fill-opacity:1;stroke:none"
       d="M 12.060547 16.5 L 12.060547 31.5 L 14.798828 31.5 L 14.798828 25.134766 L 20.318359 25.134766 L 20.318359 22.886719 L 14.798828 22.886719 L 14.798828 18.748047 L 20.71875 18.748047 L 20.71875 16.5 L 12.060547 16.5 z M 21.058594 20.662109 L 24.027344 31.5 L 26.396484 31.5 L 27.673828 27.09375 C 27.962251 26.02575 28.231387 24.956494 28.4375 23.621094 L 28.478516 23.621094 C 28.705262 24.934494 28.930505 25.95865 29.240234 27.09375 L 30.435547 31.5 L 32.785156 31.5 L 35.939453 20.662109 L 33.445312 20.662109 L 32.332031 25.46875 C 32.063794 26.73725 31.836944 27.916203 31.671875 29.095703 L 31.630859 29.095703 C 31.404116 27.916203 31.13763 26.73725 30.828125 25.46875 L 29.570312 20.662109 L 27.509766 20.662109 L 26.210938 25.601562 C 25.92229 26.714663 25.592607 27.916203 25.386719 29.095703 L 25.345703 29.095703 C 25.160221 27.916203 24.933553 26.737578 24.707031 25.580078 L 23.65625 20.662109 L 21.058594 20.662109 z "
       transform="translate(0,1004.3622)"
       id="path1900-9" />
    <path
       style="fill:#ffb200;fill-opacity:0.3137255;stroke:none"
       d="M 14.798828 17.947266 L 14.798828 18.748047 L 20.71875 18.748047 L 20.71875 17.947266 L 14.798828 17.947266 z M 21.058594 20.662109 L 24.027344 31.5 L 26.396484 31.5 L 27.673828 27.09375 C 27.962251 26.02575 28.231387 24.956494 28.4375 23.621094 L 28.478516 23.621094 C 28.705262 24.934494 28.930505 25.95865 29.240234 27.09375 L 30.435547 31.5 L 32.785156 31.5 L 35.939453 20.662109 L 35.707031 20.662109 L 32.785156 30.699219 L 30.435547 30.699219 L 29.240234 26.292969 C 28.930505 25.157869 28.705262 24.133713 28.478516 22.820312 L 28.4375 22.820312 C 28.231387 24.155712 27.962251 25.224969 27.673828 26.292969 L 26.396484 30.699219 L 24.027344 30.699219 L 21.277344 20.662109 L 21.058594 20.662109 z M 14.798828 24.333984 L 14.798828 25.134766 L 20.318359 25.134766 L 20.318359 24.333984 L 14.798828 24.333984 z M 12.060547 30.699219 L 12.060547 31.5 L 14.798828 31.5 L 14.798828 30.699219 L 12.060547 30.699219 z "
       transform="translate(0,1004.3622)"
       id="path4744" />
    <path
       style="fill:#ffffff;fill-opacity:0.23529412;stroke:none"
       d="M 12.060547 16.5 L 12.060547 16.900391 L 20.71875 16.900391 L 20.71875 16.5 L 12.060547 16.5 z M 21.058594 20.662109 L 21.167969 21.0625 L 23.65625 21.0625 L 24.707031 25.980469 C 24.933553 27.137969 25.160221 28.316594 25.345703 29.496094 L 25.386719 29.496094 C 25.592607 28.316594 25.92229 27.115053 26.210938 26.001953 L 27.509766 21.0625 L 29.570312 21.0625 L 30.828125 25.869141 C 31.13763 27.137641 31.404116 28.316594 31.630859 29.496094 L 31.671875 29.496094 C 31.836944 28.316594 32.063794 27.137641 32.332031 25.869141 L 33.445312 21.0625 L 35.822266 21.0625 L 35.939453 20.662109 L 33.445312 20.662109 L 32.332031 25.46875 C 32.063794 26.73725 31.836944 27.916203 31.671875 29.095703 L 31.630859 29.095703 C 31.404116 27.916203 31.13763 26.73725 30.828125 25.46875 L 29.570312 20.662109 L 27.509766 20.662109 L 26.210938 25.601562 C 25.92229 26.714664 25.592607 27.916203 25.386719 29.095703 L 25.345703 29.095703 C 25.160221 27.916203 24.933553 26.737578 24.707031 25.580078 L 23.65625 20.662109 L 21.058594 20.662109 z M 14.798828 22.886719 L 14.798828 23.287109 L 20.318359 23.287109 L 20.318359 22.886719 L 14.798828 22.886719 z "
       transform="translate(0,1004.3622)"
       id="path4749" />
  </g>
</svg>
