<?xml version="1.0" encoding="UTF-8" standalone="no"?>
<!-- Created with Inkscape (http://www.inkscape.org/) -->

<svg
   xmlns:dc="http://purl.org/dc/elements/1.1/"
   xmlns:cc="http://creativecommons.org/ns#"
   xmlns:rdf="http://www.w3.org/1999/02/22-rdf-syntax-ns#"
   xmlns:svg="http://www.w3.org/2000/svg"
   xmlns="http://www.w3.org/2000/svg"
   xmlns:xlink="http://www.w3.org/1999/xlink"
   xmlns:sodipodi="http://sodipodi.sourceforge.net/DTD/sodipodi-0.dtd"
   xmlns:inkscape="http://www.inkscape.org/namespaces/inkscape"
   width="48"
   height="48"
   id="svg2"
   version="1.1"
   inkscape:version="0.48+devel r"
   sodipodi:docname="AirPortUtility.svg">
  <defs
     id="defs4">
    <linearGradient
       inkscape:collect="always"
       id="linearGradient943">
      <stop
         style="stop-color:#ffffff;stop-opacity:1;"
         offset="0"
         id="stop945" />
      <stop
         style="stop-color:#ffffff;stop-opacity:0;"
         offset="1"
         id="stop947" />
    </linearGradient>
    <linearGradient
       inkscape:collect="always"
       id="linearGradient929">
      <stop
         style="stop-color:#87e6f7;stop-opacity:1"
         offset="0"
         id="stop931" />
      <stop
         style="stop-color:#2866b5;stop-opacity:1"
         offset="1"
         id="stop933" />
    </linearGradient>
    <linearGradient
       inkscape:collect="always"
       xlink:href="#linearGradient893"
       id="linearGradient886"
       x1="23.688076"
       y1="-1052.5176"
       x2="23.688076"
       y2="-1004.2789"
       gradientUnits="userSpaceOnUse" />
    <linearGradient
       gradientTransform="translate(0,-1.564e-5)"
       gradientUnits="userSpaceOnUse"
       y2="1012.733"
       x2="34.700851"
       y1="1043.6986"
       x1="34.700851"
       id="linearGradient4068-9"
       xlink:href="#linearGradient929"
       inkscape:collect="always" />
    <linearGradient
       inkscape:collect="always"
       xlink:href="#linearGradient929"
       id="linearGradient4265"
       x1="31.817781"
       y1="13.970944"
       x2="31.817781"
       y2="38.909206"
       gradientUnits="userSpaceOnUse" />
    <linearGradient
       inkscape:collect="always"
       xlink:href="#linearGradient943"
       id="linearGradient4278"
       x1="28.009476"
       y1="-1.3851285"
       x2="28.009476"
       y2="35.223747"
       gradientUnits="userSpaceOnUse" />
    <linearGradient
       id="linearGradient893"
       inkscape:collect="always">
      <stop
         id="stop895"
         offset="0"
         style="stop-color:#dadada;stop-opacity:1" />
      <stop
         id="stop897"
         offset="1"
         style="stop-color:#e7e7e7;stop-opacity:1" />
    </linearGradient>
  </defs>
  <sodipodi:namedview
     id="base"
     pagecolor="#ffffff"
     bordercolor="#666666"
     borderopacity="1.0"
     inkscape:pageopacity="0.0"
     inkscape:pageshadow="2"
     inkscape:zoom="2.8779608"
     inkscape:cx="90.853004"
     inkscape:cy="-15.406549"
     inkscape:document-units="px"
     inkscape:current-layer="layer1"
     showgrid="false"
     inkscape:window-width="1366"
     inkscape:window-height="666"
     inkscape:window-x="-2"
     inkscape:window-y="25"
     inkscape:window-maximized="1"
     showguides="true"
     inkscape:guide-bbox="true">
    <inkscape:grid
       type="xygrid"
       id="grid3850" />
    <sodipodi:guide
       orientation="1,0"
       position="-667.875,729.25"
       id="guide1018" />
    <sodipodi:guide
       orientation="0,1"
       position="-667.875,543.05801"
       id="guide1025" />
  </sodipodi:namedview>
  <metadata
     id="metadata7">
    <rdf:RDF>
      <cc:Work
         rdf:about="">
        <dc:format>image/svg+xml</dc:format>
        <dc:type
           rdf:resource="http://purl.org/dc/dcmitype/StillImage" />
        <dc:title />
      </cc:Work>
    </rdf:RDF>
  </metadata>
  <g
     inkscape:label="Capa 1"
     inkscape:groupmode="layer"
     id="layer1"
     transform="translate(0,-1004.3622)">
    <rect
       style="fill:url(#linearGradient886);fill-opacity:1.0;stroke:none"
       id="rect2991-1"
       width="48"
       height="48"
       x="-4.2092893e-08"
       y="-1052.3622"
       ry="1.9445436"
       transform="scale(1,-1)" />
    <path
       style="fill:#000000;fill-opacity:0.05882353"
       d="m 24,1014.1622 c -6.939758,0 -13.879671,2.3132 -19.55533,6.9382 l 3.856902,4.703 c 4.278067,-3.4858 9.74338,-5.583 15.697406,-5.583 5.94984,0 11.415105,2.097 15.69945,5.5881 l 3.856902,-4.7081 C 37.879409,1016.4754 30.939758,1014.1622 24,1014.1622 Z m 0,7.5002 c -5.607637,0 -10.75619,1.9756 -14.7899,5.2601 l 3.857924,4.7031 c 2.981984,-2.4295 6.786814,-3.8917 10.931976,-3.8917 4.140976,0 7.949469,1.4622 10.931976,3.8917 l 3.852814,-4.7031 C 34.75108,1023.638 29.603451,1021.6624 24,1021.6624 Z m 0,7.5278 c -3.79354,0 -7.279934,1.3398 -10.007097,3.5636 l 4.066405,4.9627 c 1.603229,-1.4227 3.67294,-2.2882 5.940692,-2.2882 2.263566,0 4.336939,0.8655 5.940691,2.2882 l 4.068449,-4.9627 C 31.275175,1030.53 27.794586,1029.1902 24,1029.1902 Z m -0.001,7.6954 c -1.920839,0 -3.675957,0.7337 -5.030119,1.9367 l 5.030119,6.1399 5.031142,-6.1358 c -1.354163,-1.2083 -3.113965,-1.9408 -5.031142,-1.9408 z"
       id="path4252"
       inkscape:connector-curvature="0" />
    <path
       inkscape:connector-curvature="0"
       id="path4250"
       d="m 24,1013.7622 c -6.939758,0 -13.879671,2.3132 -19.55533,6.9382 l 3.856902,4.703 c 4.278067,-3.4858 9.74338,-5.583 15.697406,-5.583 5.94984,0 11.415105,2.097 15.69945,5.5881 l 3.856902,-4.7081 C 37.879409,1016.0754 30.939758,1013.7622 24,1013.7622 Z m 0,7.5002 c -5.607637,0 -10.75619,1.9756 -14.7899,5.2601 l 3.857924,4.7031 c 2.981984,-2.4295 6.786814,-3.8917 10.931976,-3.8917 4.140976,0 7.949469,1.4622 10.931976,3.8917 l 3.852814,-4.7031 C 34.75108,1023.238 29.603451,1021.2624 24,1021.2624 Z m 0,7.5278 c -3.79354,0 -7.279934,1.3398 -10.007097,3.5636 l 4.066405,4.9627 c 1.603229,-1.4227 3.67294,-2.2882 5.940692,-2.2882 2.263566,0 4.336939,0.8655 5.940691,2.2882 l 4.068449,-4.9627 C 31.275175,1030.13 27.794586,1028.7902 24,1028.7902 Z m -0.001,7.6954 c -1.920839,0 -3.675957,0.7337 -5.030119,1.9367 l 5.030119,6.1399 5.031142,-6.1358 c -1.354163,-1.2083 -3.113965,-1.9408 -5.031142,-1.9408 z"
       style="fill:#000000;fill-opacity:0.11764706" />
    <path
       style="fill:#000000;fill-opacity:0.23529412"
       d="m 24,1013.3622 c -6.939758,0 -13.879671,2.3132 -19.55533,6.9382 l 3.856902,4.703 c 4.278067,-3.4858 9.74338,-5.583 15.697406,-5.583 5.94984,0 11.415105,2.097 15.69945,5.5881 l 3.856902,-4.7081 C 37.879409,1015.6754 30.939758,1013.3622 24,1013.3622 Z m 0,7.5002 c -5.607637,0 -10.75619,1.9756 -14.7899,5.2601 l 3.857924,4.7031 c 2.981984,-2.4295 6.786814,-3.8917 10.931976,-3.8917 4.140976,0 7.949469,1.4622 10.931976,3.8917 l 3.852814,-4.7031 C 34.75108,1022.838 29.603451,1020.8624 24,1020.8624 Z m 0,7.5278 c -3.79354,0 -7.279934,1.3398 -10.007097,3.5636 l 4.066405,4.9627 c 1.603229,-1.4227 3.67294,-2.2882 5.940692,-2.2882 2.263566,0 4.336939,0.8655 5.940691,2.2882 l 4.068449,-4.9627 C 31.275175,1029.73 27.794586,1028.3902 24,1028.3902 Z m -0.001,7.6954 c -1.920839,0 -3.675957,0.7337 -5.030119,1.9367 l 5.030119,6.1399 5.031142,-6.1358 c -1.354163,-1.2083 -3.113965,-1.9408 -5.031142,-1.9408 z"
       id="path4246"
       inkscape:connector-curvature="0" />
    <path
       inkscape:connector-curvature="0"
       style="fill:#000000;fill-opacity:1;stroke:none"
       d="m -1.5e-7,1049.3622 0,1.0625 c 0,1.0773 0.8602229,1.9375 1.93749995,1.9375 l 44.1250002,0 c 1.077277,0 1.9375,-0.8602 1.9375,-1.9375 l 0,-1.0625 c 0,1.0773 -0.860223,1.9375 -1.9375,1.9375 l -44.1250002,0 C 0.86022275,1051.2997 -1.5e-7,1050.4395 -1.5e-7,1049.3622 Z"
       id="rect846" />
    <path
       inkscape:connector-curvature="0"
       style="fill:#ffffff;fill-opacity:0.5372549;stroke:none"
       d="m 2.5312498,1005.0185 c -0.9170884,0 -1.67114675,0.6395 -1.84374995,1.5 0.33561205,-0.2799 0.77451215,-0.4375 1.24999995,-0.4375 l 44.1250002,0 c 0.475488,0 0.914388,0.1576 1.25,0.4375 -0.172603,-0.8605 -0.926662,-1.5 -1.84375,-1.5 L 2.5312498,1005.0185 Z"
       id="path7515" />
    <path
       inkscape:connector-curvature="0"
       style="fill:#000000;fill-opacity:0.39215686;stroke:none"
       d="m 1.9374998,1004.3622 c -1.07727695,0 -1.93749995,0.8602 -1.93749995,1.9375 l 0,43.0625 c 0,0.7934 0.4800236,1.449 1.15624995,1.75 -0.30934165,-0.3333 -0.49999995,-0.7824 -0.49999995,-1.2812 l 0,-42.9375 c 0,-1.0482 0.82689895,-1.875 1.87499995,-1.875 l 42.9375002,0 c 1.048101,0 1.875,0.8268 1.875,1.875 l 0,42.9375 c 0,0.4988 -0.190658,0.9479 -0.5,1.2812 0.676226,-0.301 1.15625,-0.9566 1.15625,-1.75 l 0,-43.0625 c 0,-1.0773 -0.860223,-1.9375 -1.9375,-1.9375 L 1.9374998,1004.3622 Z"
       id="rect4280" />
    <path
       inkscape:connector-curvature="0"
       id="path440-1"
       d="m 24,1012.9622 c -6.939758,0 -13.879671,2.3132 -19.55533,6.9382 l 3.856902,4.703 c 4.278067,-3.4858 9.74338,-5.583 15.697406,-5.583 5.94984,0 11.415105,2.097 15.69945,5.5881 l 3.856902,-4.7081 C 37.879409,1015.2754 30.939758,1012.9622 24,1012.9622 Z m 0,7.5002 c -5.607637,0 -10.75619,1.9756 -14.7899,5.2601 l 3.857924,4.7031 c 2.981984,-2.4295 6.786814,-3.8917 10.931976,-3.8917 4.140976,0 7.949469,1.4622 10.931976,3.8917 l 3.852814,-4.7031 C 34.75108,1022.438 29.603451,1020.4624 24,1020.4624 Z m 0,7.5278 c -3.79354,0 -7.279934,1.3398 -10.007097,3.5636 l 4.066405,4.9627 c 1.603229,-1.4227 3.67294,-2.2882 5.940692,-2.2882 2.263566,0 4.336939,0.8655 5.940691,2.2882 l 4.068449,-4.9627 C 31.275175,1029.33 27.794586,1027.9902 24,1027.9902 Z m -0.001,7.6954 c -1.920839,0 -3.675957,0.7337 -5.030119,1.9367 l 5.030119,6.1399 5.031142,-6.1358 c -1.354163,-1.2083 -3.113965,-1.9408 -5.031142,-1.9408 z"
       style="fill:url(#linearGradient4068-9);fill-opacity:1" />
    <path
       style="fill:url(#linearGradient4265);fill-opacity:1;opacity:0.3"
       d="M 23.998047 13.958984 C 18.044021 13.958984 12.578848 16.055216 8.3007812 19.541016 L 4.7949219 15.265625 C 4.6787887 15.357519 4.5604163 15.445266 4.4453125 15.539062 L 8.3007812 20.240234 C 12.578848 16.754434 18.044021 14.658203 23.998047 14.658203 C 29.947887 14.658203 35.414874 16.754994 39.699219 20.246094 L 43.554688 15.539062 C 43.439578 15.445266 43.321216 15.357519 43.205078 15.265625 L 39.699219 19.546875 C 35.414874 16.055775 29.947887 13.958984 23.998047 13.958984 z M 9.5664062 21.09375 C 9.4499236 21.18501 9.3256325 21.265983 9.2109375 21.359375 L 13.068359 26.0625 C 16.050343 23.633 19.854838 22.171875 24 22.171875 C 28.140976 22.171875 31.949134 23.633 34.931641 26.0625 L 38.785156 21.359375 C 38.670553 21.266058 38.546074 21.184939 38.429688 21.09375 L 34.931641 25.363281 C 31.949134 22.933781 28.140976 21.472656 24 21.472656 C 19.854838 21.472656 16.050343 22.933781 13.068359 25.363281 L 9.5664062 21.09375 z M 14.347656 26.925781 C 14.230543 27.015976 14.106659 27.098063 13.992188 27.191406 L 18.058594 32.154297 C 19.661823 30.731597 21.732248 29.865234 24 29.865234 C 26.263566 29.865234 28.337654 30.731597 29.941406 32.154297 L 34.009766 27.191406 C 33.895144 27.098174 33.771511 27.015873 33.654297 26.925781 L 29.941406 31.455078 C 28.337654 30.032378 26.263566 29.166016 24 29.166016 C 21.732248 29.166016 19.661823 30.032378 18.058594 31.455078 L 14.347656 26.925781 z M 19.3125 32.980469 C 19.196612 33.072365 19.079411 33.161457 18.96875 33.259766 L 23.998047 39.400391 L 29.029297 33.263672 C 28.918529 33.164835 28.801607 33.074751 28.685547 32.982422 L 23.998047 38.699219 L 19.3125 32.980469 z "
       transform="translate(0,1004.3622)"
       id="path4254" />
    <path
       style="fill:url(#linearGradient4278);fill-opacity:1"
       d="M 24 8.5996094 C 17.060242 8.5996094 10.120971 10.914062 4.4453125 15.539062 L 4.6445312 15.78125 C 10.283244 11.262717 17.140596 9 24 9 C 30.859785 9 37.716332 11.264169 43.355469 15.783203 L 43.554688 15.539062 C 37.878767 10.914062 30.939758 8.5996094 24 8.5996094 z M 24 16.099609 C 18.392363 16.099609 13.244648 18.074875 9.2109375 21.359375 L 9.4140625 21.607422 C 13.417661 18.41843 18.483596 16.5 24 16.5 C 29.512359 16.5 34.578438 18.418354 38.582031 21.607422 L 38.785156 21.359375 C 34.751446 18.074875 29.603451 16.099609 24 16.099609 z M 24 23.628906 C 20.20646 23.628906 16.719351 24.967606 13.992188 27.191406 L 14.195312 27.439453 C 16.892316 25.310761 20.29757 24.027344 24 24.027344 C 27.703559 24.027344 31.103541 25.310649 33.806641 27.439453 L 34.009766 27.191406 C 31.275801 24.967606 27.794586 23.628906 24 23.628906 z M 23.998047 31.324219 C 22.077208 31.324219 20.322912 32.056766 18.96875 33.259766 L 19.166016 33.5 C 20.492032 32.395892 22.16726 31.722656 23.998047 31.722656 C 25.825508 31.722656 27.505568 32.395133 28.832031 33.503906 L 29.029297 33.263672 C 27.675134 32.055372 25.915224 31.324219 23.998047 31.324219 z "
       transform="translate(0,1004.3622)"
       id="path4267" />
  </g>
</svg>
