<?xml version="1.0" encoding="UTF-8" standalone="no"?>
<!-- Created with Inkscape (http://www.inkscape.org/) -->

<svg
   xmlns:dc="http://purl.org/dc/elements/1.1/"
   xmlns:cc="http://creativecommons.org/ns#"
   xmlns:rdf="http://www.w3.org/1999/02/22-rdf-syntax-ns#"
   xmlns:svg="http://www.w3.org/2000/svg"
   xmlns="http://www.w3.org/2000/svg"
   xmlns:xlink="http://www.w3.org/1999/xlink"
   xmlns:sodipodi="http://sodipodi.sourceforge.net/DTD/sodipodi-0.dtd"
   xmlns:inkscape="http://www.inkscape.org/namespaces/inkscape"
   width="48"
   height="48"
   id="svg2"
   version="1.1"
   inkscape:version="0.48+devel r12487"
   sodipodi:docname="rssowl.svg">
  <defs
     id="defs4">
    <linearGradient
       id="linearGradient4052">
      <stop
         id="stop4054"
         offset="0"
         style="stop-color:#ffdac3;stop-opacity:1" />
      <stop
         id="stop4056"
         offset="1"
         style="stop-color:#fffdf5;stop-opacity:1" />
    </linearGradient>
    <linearGradient
       id="linearGradient3795">
      <stop
         style="stop-color:#ff6302;stop-opacity:1"
         offset="0"
         id="stop3797" />
      <stop
         style="stop-color:#ffcf00;stop-opacity:1"
         offset="1"
         id="stop3799" />
    </linearGradient>
    <linearGradient
       inkscape:collect="always"
       xlink:href="#linearGradient3795"
       id="linearGradient837"
       x1="102.74889"
       y1="-1028.4553"
       x2="102.74889"
       y2="-980.41406"
       gradientUnits="userSpaceOnUse"
       gradientTransform="translate(-77.293048,-23.906506)" />
    <linearGradient
       inkscape:collect="always"
       xlink:href="#linearGradient4052"
       id="linearGradient4050"
       x1="28.25532"
       y1="1043.738"
       x2="28.25532"
       y2="1012.9863"
       gradientUnits="userSpaceOnUse" />
  </defs>
  <sodipodi:namedview
     id="base"
     pagecolor="#ffffff"
     bordercolor="#666666"
     borderopacity="1.0"
     inkscape:pageopacity="0.0"
     inkscape:pageshadow="2"
     inkscape:zoom="199.40411"
     inkscape:cx="23.234839"
     inkscape:cy="8.6476266"
     inkscape:document-units="px"
     inkscape:current-layer="layer1"
     showgrid="false"
     inkscape:window-width="1366"
     inkscape:window-height="718"
     inkscape:window-x="0"
     inkscape:window-y="30"
     inkscape:window-maximized="1" />
  <metadata
     id="metadata7">
    <rdf:RDF>
      <cc:Work
         rdf:about="">
        <dc:format>image/svg+xml</dc:format>
        <dc:type
           rdf:resource="http://purl.org/dc/dcmitype/StillImage" />
        <dc:title />
      </cc:Work>
    </rdf:RDF>
  </metadata>
  <g
     inkscape:label="Capa 1"
     inkscape:groupmode="layer"
     id="layer1"
     transform="translate(0,-1004.3622)">
    <rect
       style="fill:url(#linearGradient837);fill-opacity:1;stroke:none"
       id="rect2991-1"
       width="48"
       height="48"
       x="-2.4780275e-06"
       y="-1052.3622"
       ry="1.9445436"
       transform="scale(1,-1)" />
    <path
       style="font-size:13.58991337px;font-style:normal;font-variant:normal;font-weight:bold;font-stretch:normal;text-align:start;line-height:125%;writing-mode:lr-tb;text-anchor:start;fill:#000000;fill-opacity:0.05882353;stroke:none;font-family:Bitstream Vera Serif"
       id="path4062"
       d="m 8.8094344,1041.5804 c 0,-0.9454 0.3262259,-1.7391 0.9785873,-2.381 0.6524053,-0.6538 1.4504273,-0.9807 2.3940553,-0.9807 0.92033,0 1.700874,0.3269 2.341608,0.9807 0.652383,0.6419 0.978584,1.4356 0.978584,2.381 0,0.9221 -0.326201,1.71 -0.978584,2.3637 -0.640734,0.642 -1.421278,0.963 -2.341608,0.963 -0.943628,0 -1.74165,-0.321 -2.3940553,-0.963 -0.6523614,-0.642 -0.9785873,-1.4299 -0.9785873,-2.3637 m -0.1946687,-15.1813 0,5.5921 c 7.1391623,0 12.9376953,5.8136 12.9376953,12.971 l 5.607312,0 C 27.159773,1034.7098 18.841125,1026.3991 8.6147657,1026.3991 z m 0.01031,-12.2369 0,6.1817 c 13.5549543,0 24.5608963,11.0274 24.5608963,24.6087 l 6.199262,0 C 39.385234,1027.9514 25.593164,1014.1622 8.6250954,1014.1622 Z"
       inkscape:connector-curvature="0" />
    <path
       inkscape:connector-curvature="0"
       d="m 8.8094344,1041.1804 c 0,-0.9454 0.3262259,-1.7391 0.9785873,-2.381 0.6524053,-0.6538 1.4504273,-0.9807 2.3940553,-0.9807 0.92033,0 1.700874,0.3269 2.341608,0.9807 0.652383,0.6419 0.978584,1.4356 0.978584,2.381 0,0.9221 -0.326201,1.71 -0.978584,2.3637 -0.640734,0.642 -1.421278,0.963 -2.341608,0.963 -0.943628,0 -1.74165,-0.321 -2.3940553,-0.963 -0.6523614,-0.642 -0.9785873,-1.4299 -0.9785873,-2.3637 m -0.1946687,-15.1813 0,5.5921 c 7.1391623,0 12.9376953,5.8136 12.9376953,12.971 l 5.607312,0 C 27.159773,1034.3098 18.841125,1025.9991 8.6147657,1025.9991 z m 0.01031,-12.2369 0,6.1817 c 13.5549543,0 24.5608963,11.0274 24.5608963,24.6087 l 6.199262,0 C 39.385234,1027.5514 25.593164,1013.7622 8.6250954,1013.7622 Z"
       id="path4060"
       style="font-size:13.58991337px;font-style:normal;font-variant:normal;font-weight:bold;font-stretch:normal;text-align:start;line-height:125%;writing-mode:lr-tb;text-anchor:start;fill:#000000;fill-opacity:0.11764706;stroke:none;font-family:Bitstream Vera Serif" />
    <path
       inkscape:connector-curvature="0"
       style="fill:#000000;fill-opacity:1;stroke:none"
       d="m -5.2197265e-7,1049.3622 0,1.0625 c 0,1.0773 0.86022300197265,1.9375 1.93750002197265,1.9375 l 44.1250025,0 c 1.07727,0 1.9375,-0.8602 1.9375,-1.9375 l 0,-1.0625 c 0,1.0773 -0.86023,1.9375 -1.9375,1.9375 l -44.1250025,0 C 0.86022248,1051.2997 -5.2197265e-7,1050.4395 -5.2197265e-7,1049.3622 Z"
       id="rect846" />
    <path
       inkscape:connector-curvature="0"
       style="fill:#ffffff;fill-opacity:0.5372549;stroke:none"
       d="m 2.5312495,1005.0185 c -0.917088,0 -1.67114702,0.6395 -1.84375002,1.5 0.33561202,-0.2799 0.77451202,-0.4375 1.25000002,-0.4375 l 44.1250025,0 c 0.47549,0 0.91439,0.1576 1.25,0.4375 -0.17261,-0.8605 -0.92666,-1.5 -1.84375,-1.5 L 2.5312495,1005.0185 Z"
       id="path7515" />
    <path
       inkscape:connector-curvature="0"
       style="fill:#000000;fill-opacity:0.39215686;stroke:none"
       d="m 1.9374995,1004.3622 c -1.07727702,0 -1.93750002197265,0.8602 -1.93750002197265,1.9375 l 0,43.0625 c 0,0.7934 0.48002400197265,1.449 1.15625002197265,1.75 -0.30934102,-0.3333 -0.50000002,-0.7824 -0.50000002,-1.2812 l 0,-42.9375 c 0,-1.0482 0.82689902,-1.875 1.87500002,-1.875 l 42.9375025,0 c 1.0481,0 1.875,0.8268 1.875,1.875 l 0,42.9375 c 0,0.4988 -0.19066,0.9479 -0.5,1.2812 0.67622,-0.301 1.15625,-0.9566 1.15625,-1.75 l 0,-43.0625 c 0,-1.0773 -0.86023,-1.9375 -1.9375,-1.9375 L 1.9374995,1004.3622 Z"
       id="rect4280-5" />
    <path
       style="font-size:13.58991337px;font-style:normal;font-variant:normal;font-weight:bold;font-stretch:normal;text-align:start;line-height:125%;writing-mode:lr-tb;text-anchor:start;fill:#000000;fill-opacity:0.23529412;stroke:none;font-family:Bitstream Vera Serif"
       id="path4058"
       d="m 8.8094344,1040.7804 c 0,-0.9454 0.3262259,-1.7391 0.9785873,-2.381 0.6524053,-0.6538 1.4504273,-0.9807 2.3940553,-0.9807 0.92033,0 1.700874,0.3269 2.341608,0.9807 0.652383,0.6419 0.978584,1.4356 0.978584,2.381 0,0.9221 -0.326201,1.71 -0.978584,2.3637 -0.640734,0.642 -1.421278,0.963 -2.341608,0.963 -0.943628,0 -1.74165,-0.321 -2.3940553,-0.963 -0.6523614,-0.642 -0.9785873,-1.4299 -0.9785873,-2.3637 m -0.1946687,-15.1813 0,5.5921 c 7.1391623,0 12.9376953,5.8136 12.9376953,12.971 l 5.607312,0 C 27.159773,1033.9098 18.841125,1025.5991 8.6147657,1025.5991 z m 0.01031,-12.2369 0,6.1817 c 13.5549543,0 24.5608963,11.0274 24.5608963,24.6087 l 6.199262,0 C 39.385234,1027.1514 25.593164,1013.3622 8.6250954,1013.3622 Z"
       inkscape:connector-curvature="0" />
    <path
       inkscape:connector-curvature="0"
       d="m 8.8094344,1040.3804 c 0,-0.9454 0.3262259,-1.7391 0.9785873,-2.381 0.6524053,-0.6538 1.4504273,-0.9807 2.3940553,-0.9807 0.92033,0 1.700874,0.3269 2.341608,0.9807 0.652383,0.6419 0.978584,1.4356 0.978584,2.381 0,0.9221 -0.326201,1.71 -0.978584,2.3637 -0.640734,0.642 -1.421278,0.963 -2.341608,0.963 -0.943628,0 -1.74165,-0.321 -2.3940553,-0.963 -0.6523614,-0.642 -0.9785873,-1.4299 -0.9785873,-2.3637 m -0.1946687,-15.1813 0,5.5921 c 7.1391623,0 12.9376953,5.8136 12.9376953,12.971 l 5.607312,0 C 27.159773,1033.5098 18.841125,1025.1991 8.6147657,1025.1991 z m 0.01031,-12.2369 0,6.1817 c 13.5549543,0 24.5608963,11.0274 24.5608963,24.6087 l 6.199262,0 C 39.385234,1026.7514 25.593164,1012.9622 8.6250954,1012.9622 Z"
       id="path4311"
       style="font-size:13.58991337px;font-style:normal;font-variant:normal;font-weight:bold;font-stretch:normal;text-align:start;line-height:125%;writing-mode:lr-tb;text-anchor:start;fill:url(#linearGradient4050);fill-opacity:1;stroke:none;font-family:Bitstream Vera Serif" />
    <path
       style="font-size:13.58991337px;font-style:normal;font-variant:normal;font-weight:bold;font-stretch:normal;text-align:start;line-height:125%;writing-mode:lr-tb;text-anchor:start;fill:#ff6302;fill-opacity:0.3137255;stroke:none;font-family:Bitstream Vera Serif"
       d="M 8.625 13.96875 L 8.625 14.78125 C 22.179954 14.78125 33.1875 25.7937 33.1875 39.375 L 39.375 39.375 C 39.375 39.109462 39.381689 38.85768 39.375 38.59375 L 33.1875 38.59375 C 33.1875 25.01245 22.179954 13.96875 8.625 13.96875 z M 8.625 25.625 L 8.625 26.4375 C 15.764162 26.4375 21.5625 32.24885 21.5625 39.40625 L 27.15625 39.40625 C 27.15625 39.133276 27.136673 38.86385 27.125 38.59375 L 21.5625 38.59375 C 21.5625 31.43635 15.764162 25.625 8.625 25.625 z M 8.84375 35.625 C 8.8295475 35.75788 8.8125 35.891765 8.8125 36.03125 C 8.8125 36.96505 9.1288886 37.733 9.78125 38.375 C 10.433655 39.017 11.243872 39.34375 12.1875 39.34375 C 13.10783 39.34375 13.890516 39.017 14.53125 38.375 C 15.183633 37.7213 15.5 36.95335 15.5 36.03125 C 15.5 35.891765 15.482952 35.75788 15.46875 35.625 C 15.38353 36.369581 15.082843 37.041043 14.53125 37.59375 C 13.890516 38.23575 13.10783 38.53125 12.1875 38.53125 C 11.243872 38.53125 10.433655 38.23575 9.78125 37.59375 C 9.2251386 37.046471 8.9258089 36.384326 8.84375 35.625 z "
       transform="translate(0,1004.3622)"
       id="path4064" />
    <path
       style="font-size:13.58991337px;font-style:normal;font-variant:normal;font-weight:bold;font-stretch:normal;text-align:start;line-height:125%;writing-mode:lr-tb;text-anchor:start;fill:#ffffff;fill-opacity:0.3137255;stroke:none;font-family:Bitstream Vera Serif"
       d="M 8.625 8.59375 L 8.625 9 C 25.062816 9 38.518727 21.953321 39.34375 38.21875 C 38.72608 21.761425 25.200627 8.59375 8.625 8.59375 z M 8.625 20.84375 L 8.625 21.25 C 18.714962 21.25 26.90718 29.342818 27.125 39.40625 L 27.15625 39.40625 C 27.15625 29.15385 18.851359 20.84375 8.625 20.84375 z M 12.1875 32.65625 C 11.243872 32.65625 10.433655 32.9712 9.78125 33.625 C 9.1288886 34.2669 8.8125 35.08585 8.8125 36.03125 C 8.8125 36.0984 8.8403762 36.153109 8.84375 36.21875 C 8.8872936 35.361583 9.1758 34.626991 9.78125 34.03125 C 10.433655 33.37745 11.243872 33.0625 12.1875 33.0625 C 13.10783 33.0625 13.890516 33.37745 14.53125 34.03125 C 15.13672 34.626991 15.425209 35.361583 15.46875 36.21875 C 15.472124 36.15383 15.5 36.097558 15.5 36.03125 C 15.5 35.08585 15.183633 34.2669 14.53125 33.625 C 13.890516 32.9712 13.10783 32.65625 12.1875 32.65625 z "
       transform="translate(0,1004.3622)"
       id="path4069" />
  </g>
</svg>
