<?xml version="1.0" encoding="UTF-8" standalone="no"?>
<svg
   xmlns:dc="http://purl.org/dc/elements/1.1/"
   xmlns:cc="http://creativecommons.org/ns#"
   xmlns:rdf="http://www.w3.org/1999/02/22-rdf-syntax-ns#"
   xmlns:svg="http://www.w3.org/2000/svg"
   xmlns="http://www.w3.org/2000/svg"
   xmlns:xlink="http://www.w3.org/1999/xlink"
   xmlns:sodipodi="http://sodipodi.sourceforge.net/DTD/sodipodi-0.dtd"
   xmlns:inkscape="http://www.inkscape.org/namespaces/inkscape"
   width="48"
   viewBox="0 0 13.546667 13.546667"
   height="48"
   id="svg2"
   version="1.1"
   inkscape:version="0.48+devel r"
   sodipodi:docname="AndYetItMoves.svg">
  <metadata
     id="metadata20">
    <rdf:RDF>
      <cc:Work
         rdf:about="">
        <dc:format>image/svg+xml</dc:format>
        <dc:type
           rdf:resource="http://purl.org/dc/dcmitype/StillImage" />
      </cc:Work>
    </rdf:RDF>
  </metadata>
  <sodipodi:namedview
     pagecolor="#ffffff"
     bordercolor="#666666"
     borderopacity="1"
     objecttolerance="10"
     gridtolerance="10"
     guidetolerance="10"
     inkscape:pageopacity="0"
     inkscape:pageshadow="2"
     inkscape:window-width="1366"
     inkscape:window-height="666"
     id="namedview18"
     showgrid="true"
     inkscape:zoom="4.9934895"
     inkscape:cx="15.315629"
     inkscape:cy="31.471668"
     inkscape:window-x="-2"
     inkscape:window-y="25"
     inkscape:window-maximized="1"
     inkscape:current-layer="svg2">
    <inkscape:grid
       type="xygrid"
       id="grid4343" />
  </sodipodi:namedview>
  <defs
     id="defs4">
    <filter
       id="filter3174"
       color-interpolation-filters="sRGB">
      <feGaussianBlur
         id="feGaussianBlur3176"
         stdDeviation="1.71" />
    </filter>
    <linearGradient
       gradientTransform="scale(1.0058652,0.994169)"
       gradientUnits="userSpaceOnUse"
       id="ButtonShadow"
       y2="7.0165396"
       x2="45.447727"
       y1="92.539597"
       x1="45.447727">
      <stop
         offset="0"
         style="stop-color:#000000;stop-opacity:1"
         id="stop3750" />
      <stop
         offset="1"
         style="stop-color:#000000;stop-opacity:0.58823532"
         id="stop3752" />
    </linearGradient>
    <linearGradient
       inkscape:collect="always"
       xlink:href="#ButtonShadow"
       id="linearGradient4324"
       gradientUnits="userSpaceOnUse"
       gradientTransform="scale(1.0058652,0.994169)"
       x1="45.447727"
       y1="92.539597"
       x2="45.447727"
       y2="7.0165396" />
    <linearGradient
       gradientUnits="userSpaceOnUse"
       y2="262.28577"
       x2="347.53024"
       y1="260.83276"
       x1="312.14365"
       id="linearGradient4145"
       xlink:href="#linearGradient4139"
       inkscape:collect="always" />
    <linearGradient
       id="linearGradient4139"
       inkscape:collect="always">
      <stop
         id="stop4141"
         offset="0"
         style="stop-color:#f4eed7;stop-opacity:1" />
      <stop
         id="stop4143"
         offset="1"
         style="stop-color:#24221c;stop-opacity:1" />
    </linearGradient>
  </defs>
  <rect
     style="opacity:0.9;fill:url(#linearGradient4324);fill-opacity:1;fill-rule:nonzero;stroke:none;display:none;filter:url(#filter3174)"
     id="rect3745"
     y="7"
     x="5"
     ry="6"
     rx="6"
     height="85"
     width="86"
     transform="matrix(0.28222223,0,0,0.28222223,16.474125,-7.8639551)" />
  <rect
     style="fill:#7e5f3e;fill-opacity:1;stroke:none"
     id="rect2991-1"
     width="13.54667"
     height="13.54667"
     x="-3.2315309e-06"
     y="-13.546663"
     ry="0.54879355"
     transform="scale(1,-1)" />
  <path
     style="display:inline;fill:#aca793;fill-opacity:1;stroke:none"
     d="m 3.9523126,1.864948 2.1481961,9.891209 2.1481938,-0.108768 2.7668195,-3.8613199 0.978916,-0.7205895 0,-3.4602196 C 11.327987,2.9594029 10.705086,2.3442065 10.254129,1.9057347 L 3.9523126,1.8649477 Z"
     id="rect3076"
     inkscape:connector-curvature="0" />
  <path
     style="display:inline;fill:#7f7d72;fill-opacity:1;stroke:none"
     d="m 2.0367066,1.9102051 5.7520442,0.266844 c 0,0 -0.014224,0.00985 -0.038255,0.026275 l 0.2209518,0.00415 c 0,0 -0.2993644,0.3747149 -0.2693783,0.5395892 0.029978,0.1648714 0,0.5243124 0,0.5243124 0,0 -0.059857,0.2247308 -0.1198203,0.1198005 C 7.522299,3.2862703 7.4318359,2.596649 7.4318359,2.596649 L 7.3587569,2.506578 C 7.1376048,2.6994515 6.9017686,2.9504599 6.8412517,3.1821361 6.7989717,3.3440216 7.2404522,5.429452 7.3545067,5.4144688 7.4685611,5.3996808 8.0237544,5.6699166 7.995233,5.8197936 7.966683,5.9696846 7.923949,8.2021274 8.1235454,8.3070491 8.3231386,8.4119652 8.4659177,8.2920631 8.5229208,8.2620151 8.5799668,8.2320351 8.4092531,7.9779048 8.5518289,7.7980502 8.6943821,7.61819 8.9512129,7.4377456 8.9512129,7.4377456 c 0,0 -0.2430441,0.4499808 -0.2430441,0.5548884 0,0.1049077 0.4422535,0.8247267 0.4707805,0.9296287 0.019445,0.071309 0.1012388,0.5948455 0.162306,0.9925333 L 8.4379608,11.124843 8.3002985,11.650011 3.3300457,11.459824 Z m 6.5287226,0.4537992 1.4207942,0.021195 c 0,0 -0.1694885,0.5721689 -0.3390477,0.6993524 C 9.5523577,3.1556577 9.4387124,3.5902177 9.1602549,3.3768605 9.219262,3.2972905 9.2710808,3.2114614 9.2868683,3.1482831 9.3292493,2.9787183 8.9476146,2.787318 8.862835,2.8721145 8.7780531,2.9569365 8.6503979,3.2749331 8.6503979,3.2749331 Z"
     id="path4116"
     inkscape:connector-curvature="0"
     sodipodi:nodetypes="ccccscsccsssssscsscccccccscsscc" />
  <path
     style="display:inline;fill:#57564e;fill-opacity:1;stroke:none"
     d="m 5.0182596,1.8432648 c -0.927228,0.00811 -3.50504,0.7978574 -5.01826395,1.0847917 l 0,8.7665285 8.44020855,-0.105833 0.5379861,-1.28764 -0.6614583,-0.185208 -0.1058333,0.291042 c 0,0 -0.7505729,-0.02468 -0.8554862,-0.114653 C 7.2505048,10.202373 7.4965236,9.9306956 7.4965236,9.9306956 L 7.4347876,9.8160428 c 0,0 -0.373984,0.3545672 -0.4938889,0.4145142 C 6.8209994,10.290507 4.8330516,8.8635428 4.8330516,8.8635428 L 4.7183986,8.6077789 c 0,0 -0.128812,0.4012523 -0.308681,0.3263195 -0.179868,-0.074927 0.07322,-1.1500895 0.0882,-1.2700001 0.01476,-0.1198908 0.238125,-0.4938889 0.238125,-0.4938889 l -0.379236,0.4321528 c 0,0 -0.08738,0.3897969 -0.282223,0.2998611 -0.19484,-0.089919 -0.357172,-2.264029 -0.282222,-2.5488195 0.07494,-0.2847537 0.670278,-0.6614583 0.670278,-0.6614583 L 4.3303476,4.5067371 3.9863896,4.8859733 c 0,0 -0.08819,-0.7691262 -0.08819,-0.9789584 0,-0.2098407 1.3317358,-1.7197917 1.3317358,-1.7197917 L 5.0182596,1.8432648 Z"
     id="path4121"
     inkscape:connector-curvature="0" />
  <path
     sodipodi:type="inkscape:offset"
     inkscape:radius="4.8536911"
     inkscape:original="M 323.75 153.75 C 322.42623 153.7383 320.99791 153.95835 319.5625 154.5625 C 318.32752 154.89027 316.97176 155.66306 315.65625 157.15625 C 277.77174 164.65186 281.375 202.4375 281.375 202.4375 L 247.21875 218.40625 L 246.375 222.28125 C 246.375 222.28125 262.39114 217.31399 280.4375 213.28125 C 281.97117 212.93853 283.50823 212.60691 285.0625 212.28125 C 286.98777 221.00402 289.40109 231.96724 290.46875 236.59375 C 292.1223 243.75916 288.8125 257 288.8125 257 L 294.875 256.4375 L 296.84375 270.15625 L 291.53125 272.46875 L 296.59375 277.53125 L 297.28125 283.5 C 292.97182 282.04614 272.16144 275.76561 271.25 275.21875 C 270.27563 274.63413 266.38062 267.421 265.40625 267.03125 C 264.67547 266.73895 261.54184 265.66635 259.6875 265.8125 C 259.06939 265.8612 258.60112 266.04775 258.40625 266.4375 C 257.62676 267.99649 257.4375 270.90625 257.4375 270.90625 C 257.4375 270.90625 256.8373 271.54189 256.53125 271.875 C 254.25932 270.52038 252.38928 269.4348 250.1875 268.125 C 248.95999 266.91576 247.46096 265.76303 246.78125 265.6875 C 246.62957 265.6707 246.28538 265.67295 246.03125 265.65625 C 245.39832 265.28055 244.7001 264.85945 244.09375 264.5 C 244.51833 264.4609 244.83194 264.33268 244.875 264.03125 C 245.01279 263.06667 246.91635 256.99434 245.125 256.71875 C 244.90108 256.68435 244.66435 256.69615 244.40625 256.71875 C 242.59956 256.877 240.1875 258.25 240.1875 258.25 C 240.1875 258.25 240.02559 260.51607 240.21875 262.1875 C 235.70466 259.5209 232.52846 257.66195 232.09375 257.46875 C 230.33989 256.68926 228.19522 252.22261 224.6875 250.46875 C 222.5394 249.3947 207.37867 240.8702 193.96875 233.34375 L 195.9375 230.125 L 194.53125 227.5 C 198.15979 218.432 217.09661 192.9592 221.25 190.03125 C 223.06601 188.75104 220.09746 185.23044 217.3125 184.6875 C 217.0883 184.6438 216.76462 184.7245 216.34375 184.9375 C 215.92294 185.15043 215.40105 185.50034 214.8125 185.9375 C 209.78103 189.67491 199.18985 200.9924 191.96875 209.8125 C 191.59127 210.27371 191.16998 210.74156 190.8125 211.1875 C 186.80649 216.18299 184.15585 220.12764 184.625 221 L 182.40625 221.0625 L 179.78125 225.40625 C 179.03517 224.99058 176.99743 223.86381 176.90625 223.8125 C 176.88215 223.7989 176.15625 223.375 176.15625 223.375 C 173.57325 224.25972 172.1558 225.6069 171.3125 227.1875 C 171.2678 227.2712 171.2289 227.35253 171.1875 227.4375 C 171.132 227.55089 171.08154 227.66577 171.03125 227.78125 C 171.01255 227.82455 170.98675 227.86275 170.96875 227.90625 C 170.86137 228.16375 170.77331 228.42138 170.6875 228.6875 C 170.6744 228.7284 170.66885 228.7714 170.65625 228.8125 C 170.57055 229.08876 170.50583 229.37306 170.4375 229.65625 C 170.14019 230.91215 169.98048 232.21321 169.75 233.5 L 173.53125 235.71875 L 172.875 236.78125 L 173.5 239.0625 C 171.56125 243.14509 169.74129 247.95601 168.09375 253.0625 C 168.09075 253.0715 168.09675 253.08435 168.09375 253.09375 C 167.27331 255.63813 166.48011 258.25102 165.75 260.875 C 165.747 260.885 165.753 260.89665 165.75 260.90625 C 165.02025 263.5303 164.34614 266.16255 163.71875 268.75 C 163.71675 268.76 163.72075 268.77155 163.71875 268.78125 C 163.09187 271.36794 162.51253 273.90981 162 276.34375 C 161.998 276.35375 162.002 276.3653 162 276.375 C 160.97417 281.24961 160.18192 285.71927 159.6875 289.28125 C 159.4396 291.06616 159.25242 292.62641 159.15625 293.90625 C 158.92623 296.96733 160.82304 304.50616 161.125 302.375 C 162.34406 293.77106 168.98902 266.10239 176.1875 253.125 C 176.91689 251.81006 177.63907 250.66586 178.375 249.6875 C 178.408 249.6435 178.43585 249.6057 178.46875 249.5625 C 179.02541 248.83446 179.57004 248.18558 180.125 247.6875 C 180.1655 247.6511 180.2095 247.62875 180.25 247.59375 C 180.35459 247.50295 180.45808 247.42566 180.5625 247.34375 C 180.75374 247.19421 180.9657 247.05621 181.15625 246.9375 C 181.55811 246.6863 181.94626 246.48034 182.34375 246.375 C 182.4889 246.3365 182.63683 246.3305 182.78125 246.3125 L 185.4375 247.375 L 187.53125 243.9375 L 230.65625 269.3125 C 230.60935 269.42813 230.57515 269.54115 230.53125 269.65625 C 230.52725 269.66625 230.53525 269.6778 230.53125 269.6875 C 230.27036 270.37484 230.04291 271.04852 229.90625 271.6875 C 229.77508 272.30322 229.70859 272.91264 229.71875 273.4375 C 229.71952 273.4688 229.71775 273.50035 229.71875 273.53125 C 229.73445 273.93923 229.81928 274.30008 229.9375 274.625 C 229.986 274.76066 230.0261 274.88141 230.09375 275 C 230.64423 275.96498 233.25418 278.17471 234.21875 278.3125 C 235.18332 278.4503 235.61072 279.83661 236.4375 280.25 C 237.26428 280.66339 240.3125 281.625 240.3125 281.625 L 245.125 283.6875 C 245.125 283.6875 246.30526 281.66184 247.625 279.3125 L 249.125 280.1875 C 247.16082 282.4821 245.60122 284.44771 245.53125 284.9375 C 245.33638 286.30161 249.03301 288.8585 249.8125 288.46875 C 250.592 288.079 253.90976 292.73525 255.46875 293.125 C 257.02774 293.51475 262.09726 294.51299 263.65625 293.34375 C 264.19461 292.93998 265.08359 291.64095 266.03125 290.125 L 274.78125 295.28125 C 276.30079 294.59081 277.49197 293.73156 278.375 292.6875 C 278.67472 292.33292 278.93222 291.95906 279.15625 291.5625 C 279.26255 291.37633 279.3793 291.19553 279.46875 291 C 279.47275 290.992 279.46475 290.97725 279.46875 290.96875 C 279.82258 290.1874 280.01198 289.33874 280.09375 288.40625 C 284.76774 291.21915 289.61915 294.21583 290.9375 294.875 C 292.33654 295.57452 295.79773 297.33729 299.09375 298.875 L 300.5625 311.5625 L 301.75 321.84375 L 305.5625 354.71875 L 302.84375 360.5625 L 304.375 362.90625 C 304.3555 362.90639 303.625 362.90625 303.625 362.90625 L 300.5 372.65625 L 305.90625 372.9375 C 306.44805 380.32449 308.24383 404.87456 307.90625 406.5625 C 307.5165 408.51123 305.5625 412.78125 305.5625 412.78125 C 305.5625 412.78125 310.2335 416.69101 309.84375 418.25 C 309.454 419.80899 305.15625 421.36376 305.15625 423.3125 C 305.15625 424.77405 305.17785 427.10961 306 428.1875 C 296.37296 430.36836 282.70127 433.66849 280.21875 435.40625 C 276.32129 438.13448 279.0625 446.6875 279.0625 446.6875 L 361.28125 448.25 L 360.125 430.3125 L 359.71875 430.28125 C 359.67185 419.96445 359.52122 402.06484 358.96875 398.75 C 358.41778 395.44418 358.82984 382.8424 359.125 375.59375 L 362.46875 375.75 C 362.46875 375.75 360.51124 362.5 358.5625 362.5 C 358.5392 362.5 357.94392 362.49989 357.90625 362.5 C 357.26095 354.18213 355.10253 325.76472 355.4375 322.75 C 355.82725 319.24228 359.73349 291.1882 359.34375 284.5625 C 358.954 277.93681 359.75 257.28125 359.75 257.28125 L 367.53125 253.375 L 357.78125 242.96875 L 354.125 244.53125 L 354.3125 241.875 C 354.80153 242.32416 355.2826 242.76959 355.78125 243.21875 L 360.40625 237.28125 L 366 237.4375 L 358.53125 233.3125 L 360.46875 226.6875 L 358 223.9375 L 366.25 225.875 L 362.09375 218.53125 C 362.77725 218.75933 364.34375 219.25 364.34375 219.25 L 369.84375 205.46875 L 367.375 204.09375 C 368.79916 200.88938 367.3428 181.53917 356.40625 168.34375 C 355.42608 165.17742 354.06995 162.40266 352.21875 160.28125 C 352.14045 160.19155 352.02382 160.11712 351.9375 160.03125 C 351.9123 160.00615 351.9009 159.9622 351.875 159.9375 C 351.74907 159.81084 351.6334 159.69881 351.5 159.59375 C 351.4319 159.53875 351.35274 159.49078 351.28125 159.4375 C 351.26905 159.4295 351.2621 159.41445 351.25 159.40625 C 350.94667 159.18303 350.60781 159.00673 350.25 158.8125 C 350.2052 158.7882 350.1706 158.74255 350.125 158.71875 C 344.54351 155.40627 339.96495 156.22842 335.78125 156.15625 C 335.72205 156.15525 335.68315 156.15725 335.625 156.15625 C 334.98481 156.14165 334.39918 156.1258 333.90625 156.125 C 333.40565 156.0679 332.88944 156.0377 332.375 156 C 332.2823 155.995 332.18694 156.004 332.09375 156 C 331.66071 155.9714 331.2242 155.9526 330.78125 155.9375 C 329.57555 155.18005 326.96186 153.77842 323.75 153.75 z M 265.125 174.3125 L 256.03125 174.59375 C 255.78387 175.43757 255.52567 176.27463 255.3125 177.125 C 253.3174 178.83248 250.78125 183.0859 250.78125 193.625 C 250.78125 207.01751 253.29237 210.05907 255.21875 210.4375 C 255.38488 210.92247 255.56748 211.38179 255.75 211.8125 C 257.5847 212.54999 261.16575 211.51205 265.9375 209.3125 L 267.59375 207.125 C 267.59375 207.125 276.43454 203.26724 277.8125 201.0625 C 279.19046 198.85776 279.72172 185.34106 278.34375 183.6875 C 276.96579 182.03395 266.21875 176.8125 266.21875 176.8125 L 265.125 174.3125 z "
     style="display:inline;fill:url(#linearGradient4145);fill-opacity:1;stroke:none"
     id="path4083"
     d="m 323.79297,148.89648 c -1.75757,-0.0155 -3.70861,0.31029 -5.66602,1.06055 -1.63727,0.4685 -3.23109,1.47583 -4.71875,2.78516 -18.55113,4.1241 -28.36709,15.61992 -32.88086,26.39453 -0.69908,-0.5254 -1.3605,-0.90141 -2.1582,-1.38086 -1.33254,-0.80091 -2.86125,-1.63609 -4.33594,-2.41602 -2.10543,-1.11351 -3.09168,-1.58462 -4.06445,-2.06445 l -0.39648,-0.9082 a 4.8541765,4.8541765 0 0 0 -4.59766,-2.90625 l -9.09375,0.28125 a 4.8541765,4.8541765 0 0 0 -4.50781,3.48633 c -0.14305,0.48794 -0.30812,1.09071 -0.46875,1.65625 -2.83921,3.28258 -4.97657,8.87505 -4.97657,18.74023 0,6.99961 0.5901,11.52067 1.76954,14.89062 0.44851,1.28152 1.12202,2.41224 1.89257,3.42579 l -4.42578,2.06836 a 4.8541765,4.8541765 0 0 0 -2.6875,3.36328 l -0.84375,3.875 a 4.8541765,4.8541765 0 0 0 6.17969,5.66992 c 0,0 15.80242,-4.89367 33.56055,-8.86914 1.64768,7.46662 3.49241,15.84604 4.36718,19.63672 0.51994,2.25306 0.30225,7.13638 -0.28125,11.08984 -0.5835,3.95346 -1.35546,7.04688 -1.35546,7.04688 a 4.8541765,4.8541765 0 0 0 5.1582,6.00976 l 1.46484,-0.13476 0.78711,5.48632 -1.91992,0.83399 a 4.8541765,4.8541765 0 0 0 -1.92969,7.38086 c -1.29799,-0.40239 -1.92013,-0.60572 -3.23242,-1.01367 -2.92311,-0.90872 -5.73712,-1.78803 -7.85352,-2.4668 -1.00573,-0.32256 -1.82286,-0.59283 -2.42968,-0.79883 -0.0289,-0.0419 -0.036,-0.0469 -0.0664,-0.0918 -0.44117,-0.65189 -1.03873,-1.59995 -1.65234,-2.57031 -0.61362,-0.97035 -1.23922,-1.96132 -1.85742,-2.8457 -0.30911,-0.44219 -0.60679,-0.85331 -0.98633,-1.29688 -0.37955,-0.44357 -0.37619,-0.98875 -2.37696,-1.78906 -1.37156,-0.5486 -3.76665,-1.87674 -7.90234,-1.55078 -1.39432,0.10986 -3.93348,0.67548 -5.24219,3.29297 -0.0771,0.15413 -0.0895,0.26937 -0.15625,0.41797 -0.31009,-0.18324 -0.62372,-0.3688 -0.94336,-0.5586 -0.58821,-0.54335 -1.17412,-1.09098 -1.81836,-1.5625 -0.29247,-0.21406 -0.56412,-0.4384 -0.84179,-0.66015 0.0718,-0.35638 0.14884,-0.63167 0.21093,-1.01758 0.16864,-1.04807 0.33691,-2.11923 0.16797,-3.5957 -0.0845,-0.73824 -0.22653,-1.63758 -0.91211,-2.75586 -0.68558,-1.11828 -2.29662,-2.36535 -3.9082,-2.61328 a 4.8541765,4.8541765 0 0 0 -0.002,0 c -0.89605,-0.13766 -1.51014,-0.0714 -1.87891,-0.0391 -3.86363,0.33842 -6.19531,2.14844 -6.19531,2.14844 a 4.8541765,4.8541765 0 0 0 -0.83594,0.60547 c -0.65217,-0.37921 -1.21926,-0.7043 -1.64844,-0.94727 -0.4598,-0.2603 -0.49437,-0.32563 -1.23828,-0.65625 1.59629,0.70946 0.007,-0.25073 -1.28711,-1.80468 -1.29433,-1.55396 -3.04581,-3.66451 -5.91992,-5.10157 -0.56523,-0.28261 -5.2099,-2.83502 -10.9375,-6.03711 -4.48576,-2.50782 -10.00005,-5.60447 -15.33203,-8.59765 a 4.8541765,4.8541765 0 0 0 -0.37109,-3.66016 l -0.17188,-0.32031 c 1.96236,-3.95235 6.5728,-11.2988 11.57813,-18.19922 2.80423,-3.86597 5.62977,-7.54861 7.96093,-10.38672 2.33117,-2.8381 4.71375,-5.10457 4.4629,-4.92773 1.81922,-1.28248 2.79387,-4.06166 2.56054,-5.88282 -0.23333,-1.82115 -0.9786,-2.9979 -1.77148,-4.01562 -1.58577,-2.03544 -3.58522,-3.58926 -6.59375,-4.17578 a 4.8541765,4.8541765 0 0 0 -0.002,0 c -2.18658,-0.4262 -3.21313,0.24088 -4.08789,0.68359 -0.88967,0.45018 -1.53849,0.91671 -2.23437,1.4336 -6.17937,4.59007 -16.29956,15.6519 -23.70508,24.69726 -0.27536,0.33644 -0.70224,0.80873 -1.1875,1.41406 -2.06572,2.57601 -3.79948,4.88818 -5.06836,6.86328 -0.29765,0.46332 -0.49419,0.90652 -0.74414,1.34571 a 4.8541765,4.8541765 0 0 0 -2.96094,2.1914 l -0.21484,0.35352 a 4.8541765,4.8541765 0 0 0 -3.45313,-0.12305 c -3.49698,1.19778 -6.18727,3.5562 -7.55468,6.11914 -0.10785,0.20215 -0.17365,0.34566 -0.20508,0.41016 -0.11065,0.22681 -0.1888,0.40866 -0.24219,0.53125 a 4.8541765,4.8541765 0 0 0 -0.006,0.0137 c 0.2136,-0.49458 0.16887,-0.43659 -0.0918,0.19336 -0.18422,0.4433 -0.31438,0.83127 -0.41602,1.14649 a 4.8541765,4.8541765 0 0 0 -0.004,0.01 c -0.19307,0.60279 -0.19722,0.66765 -0.0488,0.18359 -0.15576,0.50527 -0.23916,0.88778 -0.29687,1.12696 a 4.8541765,4.8541765 0 0 0 -0.004,0.0215 c -0.38065,1.60796 -0.5432,2.99454 -0.74218,4.10547 a 4.8541765,4.8541765 0 0 0 2.32031,5.04102 l 0.94922,0.55664 0.13086,0.48047 c -1.76307,3.93234 -3.40716,8.23374 -4.88672,12.8164 -0.01,0.03 -0.002,0.0352 -0.0117,0.0645 -0.035,0.11 -0.016,0.1418 -0.043,0.24218 0.0264,-0.097 0.005,-0.12286 0.0391,-0.22851 -0.82653,2.5638 -1.62739,5.2031 -2.36914,7.86328 -7.6e-4,0.003 7.6e-4,0.001 0,0.004 -0.008,0.0254 0.003,0.0141 -0.004,0.0391 a 4.8541765,4.8541765 0 0 0 -0.0234,0.082 c -0.74751,2.68792 -1.4349,5.37139 -2.07227,8 a 4.8541765,4.8541765 0 0 0 -0.043,0.19336 c -0.0318,0.15916 -0.022,0.10851 -0.0488,0.24219 -0.5991,2.48731 -1.16344,4.94386 -1.66016,7.30273 a 4.8541765,4.8541765 0 0 0 -0.01,0.0488 c -0.38702,1.93513 -0.40448,1.99214 0.006,0.002 -1.043,4.95833 -1.85052,9.51057 -2.36523,13.21875 -0.25512,1.83691 -0.45511,3.47451 -0.56445,4.92969 -0.21202,2.82154 0.34298,5.35108 0.90625,7.68359 0.28163,1.16626 0.48431,2.04892 1.05273,3.24219 0.14211,0.29832 0.29301,0.62582 0.69141,1.14258 0.39839,0.51675 1.03271,1.71751 3.48632,1.96679 1.22681,0.12465 2.69728,-0.36988 3.5293,-1.01757 0.83203,-0.6477 1.18694,-1.27625 1.41406,-1.73243 0.45426,-0.91234 0.47759,-1.36518 0.53516,-1.77148 1.07814,-7.60933 8.10643,-36.05182 14.5,-47.57812 0.64952,-1.17096 1.26219,-2.12847 1.82227,-2.87305 a 4.8541765,4.8541765 0 0 0 0.004,-0.006 c 0.0439,-0.0585 0.0591,-0.0802 0.0664,-0.0898 l 0.006,-0.006 c 0.3326,-0.43441 0.52833,-0.63326 0.73242,-0.85157 l 0.57227,0.22852 a 4.8541765,4.8541765 0 0 0 5.9375,-1.96484 l -0.38282,0.6289 35.86914,21.10547 c -0.089,0.615 -0.2062,1.2174 -0.19336,1.88086 a 4.8541765,4.8541765 0 0 0 0.002,0.0254 c -0.006,-0.23168 -0.0104,-0.19185 0,0.13086 a 4.8541765,4.8541765 0 0 0 0.002,0.0312 c 0.0372,0.96713 0.24874,1.85246 0.50586,2.56055 0.0294,0.0852 0.14677,0.50236 0.50195,1.125 1.12103,1.96514 1.9458,2.41359 3.04688,3.3164 0.55053,0.45141 1.11716,0.87618 1.75976,1.27539 0.36057,0.224 0.73215,0.45955 1.23829,0.67774 0.30684,0.47002 0.82934,1.15979 2.3457,1.91797 1.20101,0.6005 1.94642,0.7895 2.86523,1.09961 0.78514,0.26498 1.28204,0.42123 1.46875,0.48047 l 2.42969,1.04101 c 0.32378,0.8151 0.78039,1.41609 1.14844,1.88867 0.70701,0.90783 1.42857,1.54251 2.18164,2.11719 0.75306,0.57468 1.50559,1.05833 2.41601,1.47266 0.36642,0.16675 0.82467,0.31073 1.33789,0.44336 0.23583,0.23337 0.4023,0.38962 0.73829,0.73828 0.56264,0.58387 1.20013,1.25353 1.94726,1.92187 0.74714,0.66834 1.2874,1.48835 3.49024,2.03906 1.03453,0.25864 2.79523,0.63175 4.82812,0.81836 1.01644,0.0933 2.08156,0.14466 3.25391,0.0391 1.17234,-0.1056 2.53023,-0.21604 4.19531,-1.46485 0.41516,-0.31136 0.43996,-0.49419 0.6875,-0.74609 l 5.06055,2.98242 a 4.8541765,4.8541765 0 0 0 4.47265,0.23633 c 2.03056,-0.92264 3.86607,-2.19215 5.29102,-3.87695 a 4.8541765,4.8541765 0 0 0 0.002,-0.002 c 0.11038,-0.13058 0.1832,-0.27792 0.28711,-0.41211 2.2947,1.40163 5.06952,3.14414 6.39844,3.8086 0.94482,0.47241 3.51151,1.72861 5.80859,2.84765 l 1.16406,10.05469 1.1875,10.28125 a 4.8541765,4.8541765 0 0 0 0,0.002 l 3.65625,31.51368 -2.14062,4.5996 a 4.8541765,4.8541765 0 0 0 0.10937,4.31055 l -2.67578,8.34961 a 4.8541765,4.8541765 0 0 0 4.3711,6.32813 l 1.11718,0.0586 c 0.30231,4.15792 0.66142,9.03229 1.02735,14.64062 0.23632,3.62192 0.44536,7.06373 0.57226,9.66797 0.0635,1.30213 0.10492,2.40024 0.1211,3.16797 0.007,0.31966 -0.028,0.64566 -0.0508,0.88477 -0.11109,0.36868 -0.49379,1.55577 -0.9375,2.63867 -0.49629,1.21119 -0.94922,2.19922 -0.94922,2.19922 a 4.8541765,4.8541765 0 0 0 1.29883,5.74219 c 0,0 0.63853,0.60941 1.09375,1.02929 -0.41909,0.3343 -0.79901,0.57821 -1.27735,1.09766 -0.82917,0.90045 -1.96094,2.4104 -1.96094,4.68164 0,0.29805 0.0502,0.84808 0.0586,1.24805 -3.74944,0.87604 -7.60321,1.75881 -11.18164,2.71289 -2.51989,0.67185 -4.82842,1.33138 -6.75977,1.96875 -1.93134,0.63737 -3.24038,0.96671 -4.98437,2.1875 -2.16941,1.51859 -3.27903,3.79046 -3.75586,5.73242 -0.47684,1.94196 -0.46548,3.72277 -0.33985,5.29492 0.25127,3.14431 1.09961,5.71094 1.09961,5.71094 a 4.8541765,4.8541765 0 0 0 4.53125,3.37305 l 82.21875,1.5625 A 4.8541765,4.8541765 0 0 0 366.125,447.9375 L 364.96875,430 a 4.8541765,4.8541765 0 0 0 -0.41602,-1.66211 c -0.0262,-4.95863 -0.0645,-10.96446 -0.16601,-16.53711 -0.11333,-6.22028 -0.13348,-10.86532 -0.63086,-13.84961 -0.0788,-0.47285 -0.24374,-4.82377 -0.17383,-9.22265 0.045,-2.83098 0.15534,-5.54918 0.25195,-8.32618 a 4.8541765,4.8541765 0 0 0 3.43555,-5.36132 c 0,0 -0.50122,-3.43086 -1.2832,-6.96485 -0.39099,-1.76699 -0.8351,-3.54819 -1.4375,-5.18359 -0.3012,-0.81771 -0.60754,-1.59016 -1.21289,-2.50391 -0.15909,-0.24014 -0.5228,-0.58367 -0.78321,-0.90039 -0.35697,-4.64301 -0.89949,-11.71616 -1.40625,-19.18164 -0.2882,-4.24584 -0.54418,-8.32241 -0.70703,-11.49219 -0.16285,-3.16977 -0.10587,-6.17604 -0.17773,-5.52929 0.15517,-1.39654 1.25915,-9.55554 2.24219,-17.89063 0.98303,-8.33509 1.95981,-16.45455 1.68554,-21.11719 -0.29029,-4.93497 0.18745,-19.79703 0.32617,-23.95703 l 5.19336,-2.60742 a 4.8541765,4.8541765 0 0 0 1.36329,-7.65625 l -7.33399,-7.82617 2.12695,0.0586 a 4.8541765,4.8541765 0 0 0 2.48047,-9.09961 l -4.06445,-2.24609 0.14844,-0.50977 0.71093,0.16602 a 4.8541765,4.8541765 0 0 0 5.33399,-7.11523 l -1.52149,-2.68946 5.39844,-13.52734 a 4.8541765,4.8541765 0 0 0 -1.64062,-5.71094 c 0.002,-0.86161 -0.0167,-1.69941 -0.0625,-2.75586 -0.12156,-2.80323 -0.54998,-6.18307 -1.38867,-9.90234 -1.62188,-7.19234 -4.81605,-15.63266 -10.57618,-22.88672 -1.09844,-3.26189 -2.5626,-6.34805 -4.80859,-8.92188 -0.77084,-0.88306 -0.97394,-0.95884 -0.51172,-0.49804 0.7317,0.72879 0.83744,1.12957 0.82031,1.09765 -0.0168,-0.0314 -0.18147,-0.50617 -0.9414,-1.24218 -0.16181,-0.16197 -0.38685,-0.38333 -0.71485,-0.64454 -0.36805,-0.2935 -0.5207,-0.38823 -0.3457,-0.25781 a 4.8541765,4.8541765 0 0 0 -0.17578,-0.12304 c -0.6305,-0.44531 -1.15274,-0.71937 -1.43945,-0.875 a 4.8541765,4.8541765 0 0 0 -0.002,0 c 0.51431,0.27896 -0.15703,-0.0869 -0.0781,-0.0527 -6.84099,-4.00689 -13.15401,-3.1316 -16.6211,-3.19141 a 4.8541765,4.8541765 0 0 0 -0.002,0 c -0.20437,-0.003 -0.2446,-0.002 -0.1543,0 l 0.0274,0.002 c -0.55495,-0.0127 -1.08628,-0.0254 -1.61133,-0.0293 -0.51838,-0.0499 -1.01747,-0.0876 -1.39453,-0.11523 a 4.8541765,4.8541765 0 0 0 -0.0937,-0.006 c -0.58425,-0.0315 -0.69417,-0.0194 -0.33399,-0.004 -0.11286,-0.007 -0.21715,-0.01 -0.32812,-0.0156 -1.82414,-1.00504 -4.45438,-2.20531 -8.18164,-2.23829 z m 30.17969,6.49219 0.15429,0.10742 c -0.0365,-0.0268 -0.0445,-0.0233 -0.0801,-0.0488 1.41418,0.92919 1.4391,0.96696 -0.0742,-0.0586 z m -69.95508,137.11914 c -0.0311,0.0929 -0.0514,0.1841 -0.0723,0.24414 0.009,-0.021 0.007,-0.0414 0.0156,-0.0625 0.0226,-0.0632 0.0306,-0.10638 0.0566,-0.18164 z m -32.03516,0.30274 c -0.69838,0.34919 -1.2856,0.46464 -1.81836,0.5039 0.52336,-0.0516 1.08561,-0.13752 1.81836,-0.5039 z m 31.90039,0.20898 -0.0723,0.15039 c 1e-5,-2e-5 0.0112,-0.0376 0.0117,-0.0391 0.0311,-0.064 0.0273,-0.0386 0.0605,-0.11133 z m 21.15039,126.08594 c 0.0618,0.0797 0.21729,0.24799 0.24414,0.28906 0.0528,0.0807 -0.12437,0.0457 -0.24414,-0.28906 z"
     transform="matrix(-0.0963508,0,0,0.0963508,525.49988,453.58827)" />
  <path
     style="display:inline;fill:#7e5f3e;fill-opacity:1;stroke:none"
     d="m 2.8133987,1.5522232 c -0.4599891,0.040857 -0.867111,0.090596 -1.155347,0.1499305 -0.0098,0.011599 -0.01785,0.022617 -0.02646,0.035278 -0.0057,0.00816 -0.0127,0.017822 -0.01764,0.026458 -0.0088,0.015071 -0.01946,0.027824 -0.02646,0.044097 -0.0076,0.017413 -0.01259,0.034527 -0.01764,0.052917 -0.0028,0.00875 -0.0068,0.026247 -0.0088,0.035278 -0.0055,0.026698 -0.0088,0.051082 -0.0088,0.079375 l 0,0.5909028 c 0.30703,0.043095 0.888676,0.1202747 0.970139,0.097014 0.104902,-0.029975 1.505532,-0.47625 1.640417,-0.47625 0.134894,0 0.237315,0.1349304 0.432153,0.1499305 0.194857,0.01493 0.9463952,0.2213526 1.1112497,0.1763889 0.1648742,-0.044958 0.2258399,-0.097014 0.4056945,-0.097014 0.1798546,0 0.8405481,0.029983 1.0054167,0 0.1648798,-0.02998 0.5865678,-0.00967 0.8113889,0.035278 0.2248182,0.044972 0.3404898,0.3051556 0.5203472,0.3351389 0.1798546,0.029961 0.3308068,0.00958 0.555625,-0.035278 0.2248324,-0.044966 1.1157374,-0.069661 1.3405554,0.035278 0.224824,0.1048992 0.57592,0.3043005 0.590903,0.3792361 0.01482,0.074958 -0.07402,0.2884312 0.105833,0.4233334 0.179858,0.1348909 0.177309,0.4357201 0.282223,0.555625 0.104924,0.1199162 0.223136,0.2064061 0.238125,0.3263195 0.01479,0.1199162 -0.0785,0.2099451 -0.123473,0.2998611 -0.04497,0.089941 0.04497,1.1668845 0,1.3317361 -0.04497,0.1648827 -0.09881,0.3642501 -0.15875,0.3792361 -0.05996,0.014789 -0.164973,0.00705 -0.299861,0.097014 -0.134885,0.089922 -0.335139,0.336042 -0.335139,0.4409723 0,0.1049133 0.08627,0.2134362 0.02646,0.2734028 -0.05996,0.059952 -0.426037,0.1199444 -0.590902,0.1499305 -0.1648635,0.029981 -0.4930258,0.1014476 -0.5379866,0.1763889 -0.044969,0.074953 -0.1005276,0.459534 -0.070556,0.5644445 0.029975,0.1049246 -0.1173,0.2778308 -0.1322917,0.3527778 -0.014958,0.07495 -0.017639,0.238125 -0.017639,0.238125 0,0 -0.4172119,1.168654 -0.5820833,1.3934721 -0.1648827,0.224821 -0.635,0.598859 -0.635,0.643819 0,0.04496 -0.042353,0.231965 -0.1322917,0.246945 -0.089916,0.01482 -0.3298839,-0.08385 -0.4497917,-0.0088 -0.1199106,0.07495 -1.3044481,-0.01578 -1.4993056,0.0441 -0.1948349,0.05994 -1.0310598,0.164916 -1.2259028,0.14993 -0.194832,-0.01493 -0.247966,-0.135808 -0.652639,-0.105833 -0.340396,0.0252 -3.145034,0.142407 -4.14513895,0.185208 l 0,0.670278 11.57111135,0 c 0.234341,0 0.423334,-0.188987 0.423334,-0.423333 l 0,-9.5955558 c 0,-0.234363 -0.188993,-0.4233333 -0.423334,-0.4233333 l -1.7903471,0 c -0.1566531,0.015212 -0.3067841,0.017216 -0.4409723,0 l -6.526389,0 z"
     id="path4163"
     inkscape:connector-curvature="0" />
  <path
     style="display:inline;fill:#5c452b;fill-opacity:1;stroke:none"
     d="m 4.4714536,1.9931954 c -0.06946,0.0014 -0.420015,0.1800439 -0.8202079,0.3086806 0.126606,-0.011873 0.4948119,-0.1146528 0.5115279,-0.1146528 0.134888,0 0.237292,0.1349445 0.432153,0.1499305 0.194832,0.014958 0.9463755,0.2213526 1.1112497,0.1763889 0.1648488,-0.044958 0.2258455,-0.097014 0.4056945,-0.097014 0.1798602,0 0.8405509,0.029983 1.0054167,0 0.164877,-0.029983 0.5865678,-0.00965 0.8113889,0.035278 0.2248182,0.044967 0.3404898,0.3051556 0.5203472,0.3351389 0.1798574,0.029961 0.3308096,0.00958 0.555625,-0.035278 0.2248239,-0.044966 1.1157344,-0.069655 1.3405554,0.035278 0.224818,0.1049077 0.584745,0.3042977 0.599723,0.3792361 0.01482,0.07493 -0.08285,0.2796174 0.09701,0.4145139 0.179854,0.1348882 0.177283,0.4445255 0.282222,0.5644445 0.104905,0.119888 0.223139,0.2064032 0.238125,0.3263195 0.01496,0.1199105 -0.07851,0.2099394 -0.123472,0.2998611 -0.04496,0.089933 0.04496,1.1668647 0,1.3317361 -0.04496,0.1648827 -0.09878,0.3642304 -0.15875,0.3792361 -0.05994,0.014817 -0.164965,0.00705 -0.299862,0.097014 -0.134888,0.089922 -0.335138,0.3360449 -0.335138,0.4409723 0,0.1049133 0.08628,0.213439 0.02646,0.2734028 -0.05995,0.05995 -0.426052,0.1199472 -0.590903,0.1499305 C 9.9157465,7.4735734 9.5964176,7.5450657 9.551454,7.6200013 9.506496,7.6949423 9.442107,8.0795381 9.472079,8.1844458 9.502051,8.2893478 9.3547959,8.4622851 9.3397873,8.5372236 c -0.014958,0.074936 -0.017639,0.238125 -0.017639,0.238125 0,0 -0.4172147,1.1686427 -0.5820833,1.3934724 -0.1648658,0.224824 -0.635,0.598859 -0.635,0.643819 0,0.04496 -0.042367,0.231959 -0.1322917,0.246945 -0.089927,0.01482 -0.3298698,-0.08385 -0.4497917,-0.0088 -0.1198965,0.07495 -1.3044565,-0.01577 -1.4993056,0.0441 -0.1948406,0.05996 -1.0310504,0.164928 -1.2259024,0.14993 -0.194832,-0.01482 -0.239133,-0.135797 -0.64382,-0.105833 -0.308466,0.02285 -2.769938,0.0822 -4.15395795,0.114653 l 0,0.273403 C 1.1618726,11.480628 3.2928896,11.382672 3.3513847,11.32419 c 0.07495,-0.07494 0.814965,-0.03528 0.9348609,-0.03528 0.119902,0 0.64387,0.216969 0.7937498,0.246944 0.149877,0.02996 0.8952061,-0.281347 0.970139,-0.326319 0.074947,-0.04496 1.2735645,0.03528 1.3934722,0.03528 0.1198937,0 0.4560091,0.211667 0.5909029,0.211667 0.1348965,0 0.2204861,-0.546874 0.2204861,-0.696737 0,-0.149893 0.4753808,-0.357217 0.5203473,-0.432152 0.044964,-0.07494 0.6076695,-1.0945428 0.6526389,-1.1994448 0.044964,-0.1049037 -0.026458,-0.4656994 -0.026458,-0.5556211 0,-0.089933 0.2760671,-0.309609 0.2910418,-0.4145139 0.014817,-0.1049104 -0.059086,-0.4304284 -0.044097,-0.5203472 0.014901,-0.08993 0.9013666,-0.1357969 0.9613196,-0.1058333 0.05996,0.02998 0.345736,0.069774 0.405694,-0.035278 0.05995,-0.1049161 -0.237255,-0.3863199 -0.282222,-0.47625 -0.04497,-0.089936 0.368681,-0.3757225 0.458611,-0.4056945 0.08993,-0.02998 0.520347,0.1499306 0.520347,0.1499306 0,0 -0.008,-0.3334033 -0.05292,-0.4233334 -0.04496,-0.089924 -0.170222,-1.0327781 -0.185208,-1.1377083 -0.01499,-0.1049049 0.1667,-0.3616368 0.211667,-0.5115278 0.04496,-0.1498798 -0.149931,-0.79202 -0.149931,-0.8819445 0,-0.08993 -0.493889,-0.4145139 -0.493889,-0.4145139 0,0 0.118181,-0.2752005 0.08819,-0.3351389 C 11.100154,3.000405 10.693554,2.731396 10.618607,2.7164157 10.543683,2.7015987 9.816038,2.6017629 9.816038,2.6017629 c 0,0 -0.045881,-0.1446135 -0.1058333,-0.1146528 -0.059933,0.02998 -1.1677396,0.2028472 -1.2876389,0.2028472 -0.1198908,0 -0.3792361,-0.3880555 -0.3792361,-0.3880555 0,0 -1.3185846,-0.082011 -1.5434029,-0.097014 C 6.2751001,2.1900148 5.8613539,2.3689266 5.7414546,2.3989156 5.621544,2.4288986 4.7166208,2.2198907 4.6566628,2.2048878 c -0.05994,-0.014873 -0.08645,-0.1878471 -0.176389,-0.2028472 -0.0029,-3.867e-4 -0.004,-0.00893 -0.0088,-0.00882 z m -0.890763,0.3263195 c -0.536158,0.050279 -0.916468,0.1352976 -1.957917,0.2469444 0.690123,0.1015653 0.868796,0.088195 0.899583,0.088195 0.04618,-1.05e-5 0.607124,-0.1901036 1.058334,-0.3351389 z m -2.240139,0.3175 C 0.99828765,2.6231239 0.45839265,2.7561586 -4.35e-6,2.8222232 l 0,0.1322917 c 0.479322,-0.097077 1.13974695,-0.2417203 1.34055595,-0.3175 z"
     id="path4151"
     inkscape:connector-curvature="0" />
  <path
     inkscape:connector-curvature="0"
     style="fill:#000000;fill-opacity:1;stroke:none"
     d="m 4.65e-6,12.700007 0,0.299861 c 0,0.304038 0.242773,0.546806 0.546805,0.546806 l 12.45305635,0 c 0.304032,0 0.546805,-0.242768 0.546805,-0.546806 l 0,-0.299861 c 0,0.304038 -0.242773,0.546806 -0.546805,0.546806 l -12.45305635,0 c -0.304032,0 -0.546805,-0.242768 -0.546805,-0.546806 z"
     id="rect846" />
  <path
     inkscape:connector-curvature="0"
     style="fill:#ffffff;fill-opacity:0.5372549;stroke:none"
     d="m 0.71437965,0.18522901 c -0.258823,0 -0.471636,0.18048109 -0.520348,0.42333332 0.09472,-0.078994 0.218584,-0.12347223 0.352778,-0.12347223 l 12.45305635,0 c 0.134194,0 0.258061,0.0444782 0.352778,0.12347223 C 13.303932,0.3657101 13.09112,0.18522901 12.832296,0.18522901 l -12.11791635,0 z"
     id="path7515" />
  <path
     inkscape:connector-curvature="0"
     style="fill:#000000;fill-opacity:0.39215686;stroke:none"
     d="M 0.54680965,6.5061035e-6 C 0.24277765,6.5061035e-6 4.65e-6,0.24277409 4.65e-6,0.5468121 l 0,12.1531949 c 0,0.223915 0.135472,0.40894 0.326319,0.493889 -0.0873,-0.09406 -0.141111,-0.22081 -0.141111,-0.361583 l 0,-12.11791734 c 0,-0.29582534 0.23337,-0.52916665 0.529167,-0.52916665 l 12.11791635,0 c 0.295797,0 0.529167,0.23334131 0.529167,0.52916665 l 0,12.11791734 c 0,0.140773 -0.05381,0.267519 -0.141111,0.361583 0.190847,-0.08495 0.326319,-0.269974 0.326319,-0.493889 l 0,-12.1531949 C 13.546671,0.24277409 13.303898,6.5061035e-6 12.999866,6.5061035e-6 l -12.45305635,0 z"
     id="rect4280" />
  <path
     d="M 9.2878526,5.136715 A 0.28211276,0.28221578 0 0 0 9.0278065,5.4233117 0.28211276,0.28221578 0 0 0 9.3142989,5.7010901 l 0.8286231,0 0.01763,0 c 0.314923,0 0.564168,0.2493373 0.564168,0.5643753 0,0.3090593 -0.240101,0.5551555 -0.546537,0.5643746 a 0.28211276,0.28221578 0 0 0 -0.01763,0 0.28211276,0.28221578 0 0 0 -0.02644,0 l -0.8198081,0 A 0.28211276,0.28221578 0 0 0 9.0278115,7.1164368 0.28211276,0.28221578 0 0 0 9.3143039,7.3942152 l 0.8242161,0 a 0.28211276,0.28221578 0 0 0 0.0044,0 l 0.01763,0 c 0.314924,0 0.564169,0.2493373 0.564169,0.5643753 0,0.3090593 -0.240102,0.5551561 -0.546538,0.5643746 a 0.28211276,0.28221578 0 0 0 -0.01763,0 0.28211276,0.28221578 0 0 0 -0.02645,0 l -0.8198082,0 a 0.28211276,0.28221578 0 0 0 -0.2864924,0.2865968 0.28211276,0.28221578 0 0 0 0,0.026455 0.28211276,0.28221578 0 0 0 0.2864924,0.2513235 l 0.8242162,0 a 0.28211276,0.28221578 0 0 0 0.02204,0 0.28211276,0.28221578 0 0 0 0.0573,-0.00437 c 0.593299,-0.030468 1.071041,-0.5236973 1.071041,-1.1243409 0,-0.3362167 -0.147753,-0.6391761 -0.383459,-0.8465632 0.235706,-0.2073866 0.383459,-0.5103459 0.383459,-0.8465625 0,-0.6126074 -0.496614,-1.1167428 -1.106301,-1.1287499 -0.0015,-2.93e-5 -0.003,2.34e-5 -0.0044,0 a 0.28211276,0.28221578 0 0 0 -0.01763,0 0.28211276,0.28221578 0 0 0 -0.02644,0 l -0.8198082,0 a 0.28211276,0.28221578 0 0 0 -0.02645,0 z M 5.9028384,5.9832775 A 0.28211276,0.28221578 0 0 0 5.6427915,6.2698748 l 0,0.6040574 C 5.1586353,7.0007714 4.796538,7.4407533 4.796538,7.9629994 a 0.28211276,0.28221578 0 0 0 0.2512318,0.2865968 0.28211276,0.28221578 0 0 0 0.026445,0 0.28211276,0.28221578 0 0 0 0.2864921,-0.2865968 c 0,-0.3029076 0.2312358,-0.5417663 0.5289082,-0.5599658 a 0.28211276,0.28221578 0 0 0 0.00437,0 0.28211276,0.28221578 0 0 0 0.026445,0 0.28211276,0.28221578 0 0 0 0.030854,0 c 0.00152,6.77e-5 0.00297,-7.88e-5 0.00437,0 0.2998049,0.016065 0.5333161,0.2555632 0.5333161,0.5599658 a 0.28211276,0.28221578 0 1 0 0.5641686,0 c 0,-0.5222461 -0.3620959,-0.962228 -0.8462534,-1.0890672 l 0,-0.6040574 A 0.28211276,0.28221578 0 0 0 5.9028384,5.9832775 Z m -3.3629766,0.00443 c -0.1562745,0 -0.2820843,0.1258556 -0.2820843,0.2821878 0,0.1158798 0.068068,0.2165968 0.1674879,0.2601412 -0.105017,0.1712534 -0.1674879,0.3721994 -0.1674879,0.5864214 0,0.620049 0.5085152,1.1287499 1.1283384,1.1287499 0.6198221,0 1.1283377,-0.5087009 1.1283377,-1.1287499 0,-0.214222 -0.062471,-0.415168 -0.1674879,-0.5864214 0.09942,-0.043546 0.1674879,-0.1442617 0.1674879,-0.2601412 0,-0.1563322 -0.1258096,-0.2821878 -0.2820842,-0.2821878 l -0.8462535,0 -0.8462541,0 z m 5.6416909,0 c -0.1562746,0 -0.2820843,0.1258556 -0.2820843,0.2821878 l 0,1.6931251 c 0,0.1563317 0.1258097,0.2821874 0.2820843,0.2821874 0.1562751,0 0.2820848,-0.1258557 0.2820848,-0.2821874 l 0,-1.6931251 c 0,-0.1563322 -0.1258097,-0.2821878 -0.2820848,-0.2821878 z M 3.3861159,6.5520866 c 0.3149224,0 0.5641686,0.2493373 0.5641686,0.5643753 0,0.315038 -0.2492462,0.5643752 -0.5641686,0.5643752 -0.3149236,0 -0.5641692,-0.2493372 -0.5641692,-0.5643752 0,-0.315038 0.2492456,-0.5643753 0.5641692,-0.5643753 z"
     inkscape:connector-curvature="0"
     id="path4416"
     style="color:#000000;display:inline;overflow:visible;visibility:visible;fill:#000000;fill-opacity:0.05882353;fill-rule:nonzero;stroke:none;stroke-width:2;marker:none;enable-background:accumulate" />
  <path
     style="color:#000000;display:inline;overflow:visible;visibility:visible;fill:#000000;fill-opacity:0.11764706;fill-rule:nonzero;stroke:none;stroke-width:2;marker:none;enable-background:accumulate"
     id="path4414"
     inkscape:connector-curvature="0"
     d="M 9.2878526,5.0238261 A 0.28211276,0.28221578 0 0 0 9.0278065,5.3104228 0.28211276,0.28221578 0 0 0 9.3142989,5.5882012 l 0.8286231,0 0.01763,0 c 0.314923,0 0.564168,0.2493373 0.564168,0.5643753 0,0.3090593 -0.240101,0.5551555 -0.546537,0.5643746 a 0.28211276,0.28221578 0 0 0 -0.01763,0 0.28211276,0.28221578 0 0 0 -0.02644,0 l -0.8198081,0 A 0.28211276,0.28221578 0 0 0 9.0278115,7.0035479 0.28211276,0.28221578 0 0 0 9.3143039,7.2813263 l 0.8242161,0 a 0.28211276,0.28221578 0 0 0 0.0044,0 l 0.01763,0 c 0.314924,0 0.564169,0.2493373 0.564169,0.5643753 0,0.3090593 -0.240102,0.5551561 -0.546538,0.5643746 a 0.28211276,0.28221578 0 0 0 -0.01763,0 0.28211276,0.28221578 0 0 0 -0.02645,0 l -0.8198082,0 a 0.28211276,0.28221578 0 0 0 -0.2864924,0.2865968 0.28211276,0.28221578 0 0 0 0,0.026455 0.28211276,0.28221578 0 0 0 0.2864924,0.2513235 l 0.8242162,0 a 0.28211276,0.28221578 0 0 0 0.02204,0 0.28211276,0.28221578 0 0 0 0.0573,-0.00437 c 0.593299,-0.030468 1.071041,-0.5236973 1.071041,-1.1243409 0,-0.3362167 -0.147753,-0.6391761 -0.383459,-0.8465632 0.235706,-0.2073866 0.383459,-0.5103459 0.383459,-0.8465625 0,-0.6126074 -0.496614,-1.1167428 -1.106301,-1.1287499 -0.0015,-2.93e-5 -0.003,2.34e-5 -0.0044,0 a 0.28211276,0.28221578 0 0 0 -0.01763,0 0.28211276,0.28221578 0 0 0 -0.02644,0 l -0.8198082,0 a 0.28211276,0.28221578 0 0 0 -0.02645,0 z M 5.9028384,5.8703886 A 0.28211276,0.28221578 0 0 0 5.6427915,6.1569859 l 0,0.6040574 C 5.1586353,6.8878825 4.796538,7.3278644 4.796538,7.8501105 a 0.28211276,0.28221578 0 0 0 0.2512318,0.2865968 0.28211276,0.28221578 0 0 0 0.026445,0 0.28211276,0.28221578 0 0 0 0.2864921,-0.2865968 c 0,-0.3029076 0.2312358,-0.5417663 0.5289082,-0.5599658 a 0.28211276,0.28221578 0 0 0 0.00437,0 0.28211276,0.28221578 0 0 0 0.026445,0 0.28211276,0.28221578 0 0 0 0.030854,0 c 0.00152,6.77e-5 0.00297,-7.88e-5 0.00437,0 0.2998049,0.016065 0.5333161,0.2555632 0.5333161,0.5599658 a 0.28211276,0.28221578 0 1 0 0.5641686,0 c 0,-0.5222461 -0.3620959,-0.962228 -0.8462534,-1.0890672 l 0,-0.6040574 A 0.28211276,0.28221578 0 0 0 5.9028384,5.8703886 Z m -3.3629766,0.00443 c -0.1562745,0 -0.2820843,0.1258556 -0.2820843,0.2821878 0,0.1158798 0.068068,0.2165968 0.1674879,0.2601412 C 2.3202484,6.588401 2.2577775,6.789347 2.2577775,7.003569 c 0,0.620049 0.5085152,1.1287499 1.1283384,1.1287499 0.6198221,0 1.1283377,-0.5087009 1.1283377,-1.1287499 0,-0.214222 -0.062471,-0.415168 -0.1674879,-0.5864214 0.09942,-0.043546 0.1674879,-0.1442617 0.1674879,-0.2601412 0,-0.1563322 -0.1258096,-0.2821878 -0.2820842,-0.2821878 l -0.8462535,0 -0.8462541,0 z m 5.6416909,0 c -0.1562746,0 -0.2820843,0.1258556 -0.2820843,0.2821878 l 0,1.6931251 c 0,0.1563317 0.1258097,0.2821874 0.2820843,0.2821874 0.1562751,0 0.2820848,-0.1258557 0.2820848,-0.2821874 l 0,-1.6931251 c 0,-0.1563322 -0.1258097,-0.2821878 -0.2820848,-0.2821878 z M 3.3861159,6.4391977 c 0.3149224,0 0.5641686,0.2493373 0.5641686,0.5643753 0,0.315038 -0.2492462,0.5643752 -0.5641686,0.5643752 -0.3149236,0 -0.5641692,-0.2493372 -0.5641692,-0.5643752 0,-0.315038 0.2492456,-0.5643753 0.5641692,-0.5643753 z" />
  <path
     d="M 9.2878526,4.9109372 A 0.28211276,0.28221578 0 0 0 9.0278065,5.1975339 0.28211276,0.28221578 0 0 0 9.3142989,5.4753123 l 0.8286231,0 0.01763,0 c 0.314923,0 0.564168,0.2493373 0.564168,0.5643753 0,0.3090593 -0.240101,0.5551555 -0.546537,0.5643746 a 0.28211276,0.28221578 0 0 0 -0.01763,0 0.28211276,0.28221578 0 0 0 -0.02644,0 l -0.8198081,0 A 0.28211276,0.28221578 0 0 0 9.0278115,6.890659 0.28211276,0.28221578 0 0 0 9.3143039,7.1684374 l 0.8242161,0 a 0.28211276,0.28221578 0 0 0 0.0044,0 l 0.01763,0 c 0.314924,0 0.564169,0.2493373 0.564169,0.5643753 0,0.3090593 -0.240102,0.5551561 -0.546538,0.5643746 a 0.28211276,0.28221578 0 0 0 -0.01763,0 0.28211276,0.28221578 0 0 0 -0.02645,0 l -0.8198082,0 a 0.28211276,0.28221578 0 0 0 -0.2864924,0.2865968 0.28211276,0.28221578 0 0 0 0,0.026455 0.28211276,0.28221578 0 0 0 0.2864924,0.2513235 l 0.8242162,0 a 0.28211276,0.28221578 0 0 0 0.02204,0 0.28211276,0.28221578 0 0 0 0.0573,-0.00437 c 0.593299,-0.030468 1.071041,-0.5236973 1.071041,-1.1243409 0,-0.3362167 -0.147753,-0.6391761 -0.383459,-0.8465632 0.235706,-0.2073866 0.383459,-0.5103459 0.383459,-0.8465625 0,-0.6126074 -0.496614,-1.1167428 -1.106301,-1.1287499 -0.0015,-2.93e-5 -0.003,2.34e-5 -0.0044,0 a 0.28211276,0.28221578 0 0 0 -0.01763,0 0.28211276,0.28221578 0 0 0 -0.02644,0 l -0.8198082,0 a 0.28211276,0.28221578 0 0 0 -0.02645,0 z M 5.9028384,5.7574997 A 0.28211276,0.28221578 0 0 0 5.6427915,6.044097 l 0,0.6040574 C 5.1586353,6.7749936 4.796538,7.2149755 4.796538,7.7372216 a 0.28211276,0.28221578 0 0 0 0.2512318,0.2865968 0.28211276,0.28221578 0 0 0 0.026445,0 0.28211276,0.28221578 0 0 0 0.2864921,-0.2865968 c 0,-0.3029076 0.2312358,-0.5417663 0.5289082,-0.5599658 a 0.28211276,0.28221578 0 0 0 0.00437,0 0.28211276,0.28221578 0 0 0 0.026445,0 0.28211276,0.28221578 0 0 0 0.030854,0 c 0.00152,6.77e-5 0.00297,-7.88e-5 0.00437,0 0.2998049,0.016065 0.5333161,0.2555632 0.5333161,0.5599658 a 0.28211276,0.28221578 0 1 0 0.5641686,0 c 0,-0.5222461 -0.3620959,-0.962228 -0.8462534,-1.0890672 l 0,-0.6040574 A 0.28211276,0.28221578 0 0 0 5.9028384,5.7574997 Z m -3.3629766,0.00443 c -0.1562745,0 -0.2820843,0.1258556 -0.2820843,0.2821878 0,0.1158798 0.068068,0.2165968 0.1674879,0.2601412 -0.105017,0.1712534 -0.1674879,0.3721994 -0.1674879,0.5864214 0,0.620049 0.5085152,1.1287499 1.1283384,1.1287499 0.6198221,0 1.1283377,-0.5087009 1.1283377,-1.1287499 0,-0.214222 -0.062471,-0.415168 -0.1674879,-0.5864214 0.09942,-0.043546 0.1674879,-0.1442617 0.1674879,-0.2601412 0,-0.1563322 -0.1258096,-0.2821878 -0.2820842,-0.2821878 l -0.8462535,0 -0.8462541,0 z m 5.6416909,0 c -0.1562746,0 -0.2820843,0.1258556 -0.2820843,0.2821878 l 0,1.6931251 c 0,0.1563317 0.1258097,0.2821874 0.2820843,0.2821874 0.1562751,0 0.2820848,-0.1258557 0.2820848,-0.2821874 l 0,-1.6931251 c 0,-0.1563322 -0.1258097,-0.2821878 -0.2820848,-0.2821878 z M 3.3861159,6.3263088 c 0.3149224,0 0.5641686,0.2493373 0.5641686,0.5643753 0,0.315038 -0.2492462,0.5643752 -0.5641686,0.5643752 -0.3149236,0 -0.5641692,-0.2493372 -0.5641692,-0.5643752 0,-0.315038 0.2492456,-0.5643753 0.5641692,-0.5643753 z"
     inkscape:connector-curvature="0"
     id="path4412"
     style="color:#000000;display:inline;overflow:visible;visibility:visible;fill:#000000;fill-opacity:0.23529412;fill-rule:nonzero;stroke:none;stroke-width:2;marker:none;enable-background:accumulate" />
  <path
     style="color:#000000;display:inline;overflow:visible;visibility:visible;fill:#f9f9f9;fill-opacity:1;fill-rule:nonzero;stroke:none;stroke-width:2;marker:none;enable-background:accumulate"
     id="path3942-6"
     inkscape:connector-curvature="0"
     d="M 9.2878526,4.7980488 A 0.28211276,0.28221578 0 0 0 9.0278065,5.0846455 0.28211276,0.28221578 0 0 0 9.3142989,5.3624239 l 0.8286231,0 0.01763,0 c 0.314923,0 0.564168,0.2493373 0.564168,0.5643753 0,0.3090593 -0.240101,0.5551555 -0.546537,0.5643746 a 0.28211276,0.28221578 0 0 0 -0.01763,0 0.28211276,0.28221578 0 0 0 -0.02644,0 l -0.8198081,0 A 0.28211276,0.28221578 0 0 0 9.0278115,6.7777706 0.28211276,0.28221578 0 0 0 9.3143039,7.055549 l 0.8242161,0 a 0.28211276,0.28221578 0 0 0 0.0044,0 l 0.01763,0 c 0.314924,0 0.564169,0.2493373 0.564169,0.5643753 0,0.3090593 -0.240102,0.5551561 -0.546538,0.5643746 a 0.28211276,0.28221578 0 0 0 -0.01763,0 0.28211276,0.28221578 0 0 0 -0.02645,0 l -0.8198082,0 a 0.28211276,0.28221578 0 0 0 -0.2864924,0.2865968 0.28211276,0.28221578 0 0 0 0,0.026455 0.28211276,0.28221578 0 0 0 0.2864924,0.2513235 l 0.8242162,0 a 0.28211276,0.28221578 0 0 0 0.02204,0 0.28211276,0.28221578 0 0 0 0.0573,-0.00437 c 0.593299,-0.030468 1.071041,-0.5236973 1.071041,-1.1243409 0,-0.3362167 -0.147753,-0.6391761 -0.383459,-0.8465632 0.235706,-0.2073866 0.383459,-0.5103459 0.383459,-0.8465625 0,-0.6126074 -0.496614,-1.1167428 -1.106301,-1.1287499 -0.0015,-2.93e-5 -0.003,2.34e-5 -0.0044,0 a 0.28211276,0.28221578 0 0 0 -0.01763,0 0.28211276,0.28221578 0 0 0 -0.02644,0 l -0.8198082,0 a 0.28211276,0.28221578 0 0 0 -0.02645,0 z M 5.9028384,5.6446113 A 0.28211276,0.28221578 0 0 0 5.6427915,5.9312086 l 0,0.6040574 C 5.1586353,6.6621052 4.796538,7.1020871 4.796538,7.6243332 a 0.28211276,0.28221578 0 0 0 0.2512318,0.2865968 0.28211276,0.28221578 0 0 0 0.026445,0 0.28211276,0.28221578 0 0 0 0.2864921,-0.2865968 c 0,-0.3029076 0.2312358,-0.5417663 0.5289082,-0.5599658 a 0.28211276,0.28221578 0 0 0 0.00437,0 0.28211276,0.28221578 0 0 0 0.026445,0 0.28211276,0.28221578 0 0 0 0.030854,0 c 0.00152,6.77e-5 0.00297,-7.88e-5 0.00437,0 0.2998049,0.016065 0.5333161,0.2555632 0.5333161,0.5599658 a 0.28211276,0.28221578 0 1 0 0.5641686,0 c 0,-0.5222461 -0.3620959,-0.962228 -0.8462534,-1.0890672 l 0,-0.6040574 A 0.28211276,0.28221578 0 0 0 5.9028384,5.6446113 Z m -3.3629766,0.00443 c -0.1562745,0 -0.2820843,0.1258556 -0.2820843,0.2821878 0,0.1158798 0.068068,0.2165968 0.1674879,0.2601412 -0.105017,0.1712534 -0.1674879,0.3721994 -0.1674879,0.5864214 0,0.620049 0.5085152,1.1287499 1.1283384,1.1287499 0.6198221,0 1.1283377,-0.5087009 1.1283377,-1.1287499 0,-0.214222 -0.062471,-0.415168 -0.1674879,-0.5864214 0.09942,-0.043546 0.1674879,-0.1442617 0.1674879,-0.2601412 0,-0.1563322 -0.1258096,-0.2821878 -0.2820842,-0.2821878 l -0.8462535,0 -0.8462541,0 z m 5.6416909,0 c -0.1562746,0 -0.2820843,0.1258556 -0.2820843,0.2821878 l 0,1.6931251 c 0,0.1563317 0.1258097,0.2821874 0.2820843,0.2821874 0.1562751,0 0.2820848,-0.1258557 0.2820848,-0.2821874 l 0,-1.6931251 c 0,-0.1563322 -0.1258097,-0.2821878 -0.2820848,-0.2821878 z M 3.3861159,6.2134204 c 0.3149224,0 0.5641686,0.2493373 0.5641686,0.5643753 0,0.315038 -0.2492462,0.5643752 -0.5641686,0.5643752 -0.3149236,0 -0.5641692,-0.2493372 -0.5641692,-0.5643752 0,-0.315038 0.2492456,-0.5643753 0.5641692,-0.5643753 z" />
  <path
     style="color:#000000;display:inline;overflow:visible;visibility:visible;fill:#7e5f3e;fill-opacity:0.3137255;fill-rule:nonzero;stroke:none;stroke-width:2;marker:none;enable-background:accumulate"
     d="M 32.007812 17.796875 A 0.99961212 0.99997715 0 0 0 31.988281 18.015625 A 0.99961212 0.99997715 0 0 0 33.003906 19 L 35.939453 19 L 36.001953 19 C 37.050074 19 37.881993 19.783036 37.980469 20.802734 C 37.987158 20.73522 38 20.669076 38 20.599609 C 38 19.483333 37.117822 18.601562 36.001953 18.601562 L 35.939453 18.601562 L 33.003906 18.601562 A 0.99961212 0.99997715 0 0 1 32.007812 17.796875 z M 39.978516 20.791016 C 39.925032 21.90445 39.430174 22.904923 38.640625 23.599609 C 38.7093 23.660033 38.761829 23.735901 38.826172 23.800781 C 39.544922 23.076542 40 22.093873 40 21 C 40 20.928478 39.982288 20.861654 39.978516 20.791016 z M 8.0332031 20.847656 C 8.0232348 20.904522 8 20.955816 8 21.015625 C 8 21.358909 8.1743998 21.656706 8.4355469 21.837891 C 8.4866392 21.736734 8.5348135 21.633218 8.59375 21.537109 C 8.310405 21.413009 8.1051144 21.156416 8.0332031 20.847656 z M 15.962891 20.847656 C 15.890979 21.156415 15.685689 21.413004 15.402344 21.537109 C 15.46128 21.633218 15.509455 21.736734 15.560547 21.837891 C 15.821694 21.656704 15.996094 21.358908 15.996094 21.015625 C 15.996094 20.955816 15.972859 20.904522 15.962891 20.847656 z M 11.998047 21.615234 C 10.882176 21.615234 10 22.498958 10 23.615234 C 10 23.684337 10.012917 23.749242 10.019531 23.816406 C 10.118888 22.797659 10.950589 22.015625 11.998047 22.015625 C 13.045533 22.015625 13.879202 22.797613 13.978516 23.816406 C 13.985124 23.749273 13.998047 23.684304 13.998047 23.615234 C 13.998047 22.498958 13.113914 21.615234 11.998047 21.615234 z M 8.0175781 23.783203 C 8.0128658 23.86109 8 23.936655 8 24.015625 C 8 26.212649 9.801823 28.015625 11.998047 28.015625 C 14.194267 28.015625 15.996094 26.212649 15.996094 24.015625 C 15.996094 23.936655 15.983228 23.86109 15.978516 23.783203 C 15.887641 25.901706 14.136809 27.615234 11.998047 27.615234 C 9.8592811 27.615234 8.108453 25.901706 8.0175781 23.783203 z M 32.009766 23.800781 A 0.99961212 0.99997715 0 0 0 31.988281 24.015625 A 0.99961212 0.99997715 0 0 0 33.003906 25 L 35.923828 25 A 0.99961212 0.99997715 0 0 0 35.939453 25 L 36.001953 25 C 37.050077 25 37.881993 25.783036 37.980469 26.802734 C 37.987223 26.734902 38 26.669414 38 26.599609 C 38 25.483333 37.117826 24.599609 36.001953 24.599609 L 35.939453 24.599609 A 0.99961212 0.99997715 0 0 1 35.923828 24.599609 L 33.003906 24.599609 A 0.99961212 0.99997715 0 0 1 32.009766 23.800781 z M 20.869141 24.630859 C 19.814396 24.695346 18.994141 25.54194 18.994141 26.615234 A 0.99961212 0.99997715 0 0 1 17.980469 27.630859 A 0.99961212 0.99997715 0 0 1 17.886719 27.630859 A 0.99961212 0.99997715 0 0 1 17.013672 26.820312 C 17.010398 26.886012 16.996094 26.949135 16.996094 27.015625 A 0.99961212 0.99997715 0 0 0 17.886719 28.03125 A 0.99961212 0.99997715 0 0 0 17.980469 28.03125 A 0.99961212 0.99997715 0 0 0 18.994141 27.015625 C 18.994141 25.94233 19.814396 25.095736 20.869141 25.03125 A 0.99961212 0.99997715 0 0 0 20.884766 25.03125 A 0.99961212 0.99997715 0 0 0 20.978516 25.03125 A 0.99961212 0.99997715 0 0 0 21.087891 25.03125 C 21.093276 25.03149 21.098555 25.030971 21.103516 25.03125 C 22.165816 25.088173 22.992187 25.937033 22.992188 27.015625 A 0.99961212 0.99997715 0 1 0 24.992188 27.015625 C 24.992188 26.944517 24.97835 26.876842 24.974609 26.806641 A 0.99961212 0.99997715 0 0 1 22.992188 26.615234 C 22.992187 25.536643 22.165816 24.687783 21.103516 24.630859 C 21.098555 24.63058 21.093276 24.631099 21.087891 24.630859 A 0.99961212 0.99997715 0 0 1 20.978516 24.630859 A 0.99961212 0.99997715 0 0 1 20.884766 24.630859 A 0.99961212 0.99997715 0 0 1 20.869141 24.630859 z M 27.990234 26.615234 L 27.990234 27.015625 C 27.990234 27.569556 28.436505 28.015625 28.990234 28.015625 C 29.543965 28.015625 29.990234 27.569556 29.990234 27.015625 L 29.990234 26.615234 C 29.990234 27.169166 29.543965 27.615234 28.990234 27.615234 C 28.436505 27.615234 27.990234 27.169166 27.990234 26.615234 z M 39.978516 26.8125 C 39.868005 28.841286 38.235331 30.479724 36.205078 30.583984 A 0.99961212 0.99997715 0 0 1 36.001953 30.599609 A 0.99961212 0.99997715 0 0 1 35.923828 30.599609 L 33.003906 30.599609 A 0.99961212 0.99997715 0 0 1 32.005859 29.814453 A 0.99961212 0.99997715 0 0 0 31.988281 30.015625 A 0.99961212 0.99997715 0 0 0 31.988281 30.109375 A 0.99961212 0.99997715 0 0 0 33.003906 31 L 35.923828 31 A 0.99961212 0.99997715 0 0 0 36.001953 31 A 0.99961212 0.99997715 0 0 0 36.205078 30.984375 C 38.307319 30.876418 40 29.128265 40 27 C 40 26.935575 39.981544 26.876201 39.978516 26.8125 z "
     transform="scale(0.28222223,0.28222223)"
     id="path4418" />
</svg>
