<?xml version="1.0" encoding="UTF-8" standalone="no"?>
<svg
   xmlns:dc="http://purl.org/dc/elements/1.1/"
   xmlns:cc="http://creativecommons.org/ns#"
   xmlns:rdf="http://www.w3.org/1999/02/22-rdf-syntax-ns#"
   xmlns:svg="http://www.w3.org/2000/svg"
   xmlns="http://www.w3.org/2000/svg"
   xmlns:xlink="http://www.w3.org/1999/xlink"
   xmlns:sodipodi="http://sodipodi.sourceforge.net/DTD/sodipodi-0.dtd"
   xmlns:inkscape="http://www.inkscape.org/namespaces/inkscape"
   width="48"
   viewBox="0 0 13.546667 13.546667"
   height="48"
   id="svg2"
   version="1.1"
   inkscape:version="0.48+devel r"
   sodipodi:docname="armagetronad.svg">
  <metadata
     id="metadata32">
    <rdf:RDF>
      <cc:Work
         rdf:about="">
        <dc:format>image/svg+xml</dc:format>
        <dc:type
           rdf:resource="http://purl.org/dc/dcmitype/StillImage" />
      </cc:Work>
    </rdf:RDF>
  </metadata>
  <sodipodi:namedview
     pagecolor="#ffffff"
     bordercolor="#666666"
     borderopacity="1"
     objecttolerance="10"
     gridtolerance="10"
     guidetolerance="10"
     inkscape:pageopacity="0"
     inkscape:pageshadow="2"
     inkscape:window-width="1366"
     inkscape:window-height="666"
     id="namedview30"
     showgrid="false"
     showguides="false"
     inkscape:zoom="9.2135214"
     inkscape:cx="19.566326"
     inkscape:cy="19.876719"
     inkscape:window-x="-2"
     inkscape:window-y="25"
     inkscape:window-maximized="1"
     inkscape:current-layer="svg2" />
  <defs
     id="defs4">
    <linearGradient
       id="linearGradient4301"
       inkscape:collect="always">
      <stop
         id="stop4303"
         offset="0"
         style="stop-color:#000000;stop-opacity:1;" />
      <stop
         id="stop4305"
         offset="1"
         style="stop-color:#000000;stop-opacity:0;" />
    </linearGradient>
    <linearGradient
       id="linearGradient1264"
       inkscape:collect="always">
      <stop
         id="stop1266"
         offset="0"
         style="stop-color:#222b32;stop-opacity:1" />
      <stop
         id="stop1268"
         offset="1"
         style="stop-color:#313a41;stop-opacity:1" />
    </linearGradient>
    <linearGradient
       y2="7.5"
       x2="35.5"
       y1="39.166668"
       x1="35.5"
       gradientUnits="userSpaceOnUse"
       id="linearGradient1327"
       xlink:href="#linearGradient1264"
       inkscape:collect="always"
       gradientTransform="matrix(0.20372917,0,0,0.20372917,-0.15345832,2.0875694)" />
    <linearGradient
       gradientUnits="userSpaceOnUse"
       y2="24.334229"
       x2="34.502411"
       y1="-2.02157"
       x1="34.502411"
       id="linearGradient4307"
       xlink:href="#linearGradient4301"
       inkscape:collect="always"
       gradientTransform="matrix(0.2716389,0,0,0.2716389,-2.462389,0.52563872)" />
    <linearGradient
       y2="-651.25061"
       x2="393.85712"
       y1="-699.2182"
       x1="393.85712"
       gradientTransform="matrix(0.28222223,0,0,0.28222223,-103.69651,183.78855)"
       gradientUnits="userSpaceOnUse"
       id="linearGradient4156"
       xlink:href="#linearGradient1264"
       inkscape:collect="always" />
  </defs>
  <text
     x="-38.4"
     y="7.489"
     font-family="Sans"
     word-spacing="0"
     line-height="125%"
     letter-spacing="0"
     font-size="11.289"
     id="text20">
    <tspan
       x="-38.4"
       y="7.489"
       font-family="URW Bookman L"
       id="tspan22" />
  </text>
  <rect
     transform="scale(1,-1)"
     ry="0.54879344"
     y="-13.546662"
     x="0"
     height="13.546667"
     width="13.546667"
     id="rect4154"
     style="fill:url(#linearGradient4156);fill-opacity:1;stroke:none" />
  <circle
     r="4.3462224"
     cy="7.112"
     cx="6.7733335"
     id="path4299"
     style="fill:#000000;fill-opacity:0.05882353;stroke:none" />
  <circle
     r="4.3462224"
     cy="6.9991112"
     cx="6.7733335"
     style="fill:#000000;fill-opacity:0.11764706;stroke:none"
     id="path4297" />
  <circle
     r="4.3462224"
     cy="6.8862224"
     cx="6.7733335"
     id="path4267"
     style="fill:#000000;fill-opacity:0.23529412;stroke:none" />
  <path
     inkscape:connector-curvature="0"
     style="fill:#000000;fill-opacity:1;stroke:none"
     d="m -3.465766e-8,12.7 0,0.299861 c 0,0.304038 0.24277402465766,0.546806 0.54680554465766,0.546806 l 12.45305549,0 c 0.304032,0 0.546806,-0.242768 0.546806,-0.546806 l 0,-0.299861 c 0,0.304038 -0.242774,0.546806 -0.546806,0.546806 l -12.45305549,0 C 0.24277399,13.246806 -3.4657661e-8,13.004038 -3.4657661e-8,12.7 Z"
     id="rect846" />
  <path
     inkscape:connector-curvature="0"
     style="fill:#ffffff;fill-opacity:0.5372549;stroke:none"
     d="m 0.71437496,0.18522226 c -0.25882273,0 -0.47163475,0.18048112 -0.52034721,0.42333335 0.0947172,-0.078994 0.21858454,-0.12347223 0.35277776,-0.12347223 l 12.45305549,0 c 0.134193,0 0.258061,0.0444782 0.352778,0.12347223 -0.04871,-0.24285223 -0.261525,-0.42333335 -0.520347,-0.42333335 l -12.11791704,0 z"
     id="path7515" />
  <path
     inkscape:connector-curvature="0"
     style="fill:#000000;fill-opacity:0.39215686;stroke:none"
     d="M 0.54680551,-1.88294e-7 C 0.24277402,-1.88294e-7 -3.465766e-8,0.24276737 -3.465766e-8,0.54680538 l 0,12.15319462 C -3.465766e-8,12.923915 0.1354733,13.10894 0.3263194,13.193889 0.23901632,13.099824 0.1852083,12.973078 0.1852083,12.832306 l 0,-12.11791706 c 0,-0.29582534 0.23336926,-0.52916668 0.52916666,-0.52916668 l 12.11791704,0 c 0.295797,0 0.529166,0.23334134 0.529166,0.52916668 l 0,12.11791706 c 0,0.140772 -0.05381,0.267518 -0.141111,0.361583 0.190846,-0.08495 0.32632,-0.269974 0.32632,-0.493889 l 0,-12.15319462 C 13.546667,0.24276737 13.303893,-1.88294e-7 12.999861,-1.88294e-7 l -12.45305549,0 z"
     id="rect4280" />
  <circle
     r="4.3462224"
     cy="6.7733335"
     cx="6.7733335"
     style="fill:url(#linearGradient4307);fill-opacity:1;stroke:none"
     id="path1272" />
  <circle
     r="3.2596667"
     cy="6.886229"
     cx="6.7733335"
     style="fill:#000000;fill-opacity:0.23529412;stroke:none"
     id="path4193" />
  <circle
     r="3.2596667"
     cy="6.9708958"
     cx="6.7733335"
     id="path4195"
     style="fill:#000000;fill-opacity:0.11764706;stroke:none" />
  <circle
     r="3.2596667"
     cy="7.0837846"
     cx="6.7733335"
     style="fill:#000000;fill-opacity:0.05882353;stroke:none"
     id="path4197" />
  <circle
     r="3.2596667"
     cy="6.7733402"
     cx="6.7733335"
     id="path1325"
     style="fill:url(#linearGradient1327);fill-opacity:1;stroke:none" />
  <path
     inkscape:connector-curvature="0"
     style="fill:#5d6f7d;fill-opacity:0.31372549;stroke:none"
     d="m 6.7733335,3.510139 c -1.8002643,0 -3.2631945,1.4629302 -3.2631945,3.2631945 0,0.038542 0.00749,0.076435 0.00882,0.1146528 0.060649,-1.7469384 1.4926525,-3.1485418 3.2543751,-3.1485418 1.7617226,0 3.1937264,1.4016034 3.2543755,3.1485418 0.0013,-0.038218 0.0088,-0.076111 0.0088,-0.1146528 0,-1.8002643 -1.4629302,-3.2631945 -3.2631945,-3.2631945 z"
     id="path4257" />
  <path
     id="path4264"
     d="M 6.7733335,4.4730637 A 2.4129999,2.4129999 0 0 0 4.360113,6.8862842 2.4129999,2.4129999 0 0 0 6.7733335,9.2995047 2.4129999,2.4129999 0 0 0 9.186554,6.8862842 2.4129999,2.4129999 0 0 0 6.7733335,4.4730637 Z m 0,0.2822223 A 2.1307776,2.1307776 0 0 1 8.9043318,6.8862842 2.1307776,2.1307776 0 0 1 6.7733335,9.0172825 2.1307776,2.1307776 0 0 1 4.6423353,6.8862842 2.1307776,2.1307776 0 0 1 6.7733335,4.755286 Z"
     style="fill:#1a1a1a;fill-opacity:0.23529412;stroke:none"
     inkscape:connector-curvature="0" />
  <path
     style="fill:#00d8ff;fill-opacity:1;stroke:none"
     d="M 24 15.449219 A 8.5499993 8.5499993 0 0 0 15.449219 24 A 8.5499993 8.5499993 0 0 0 24 32.550781 A 8.5499993 8.5499993 0 0 0 32.550781 24 A 8.5499993 8.5499993 0 0 0 24 15.449219 z M 24 16.449219 A 7.5499992 7.5499992 0 0 1 31.550781 24 A 7.5499992 7.5499992 0 0 1 24 31.550781 A 7.5499992 7.5499992 0 0 1 16.449219 24 A 7.5499992 7.5499992 0 0 1 24 16.449219 z "
     transform="scale(0.28222223,0.28222223)"
     id="circle4255" />
</svg>
