<?xml version="1.0" encoding="UTF-8" standalone="no"?>
<!-- Created with Inkscape (http://www.inkscape.org/) -->

<svg
   xmlns:dc="http://purl.org/dc/elements/1.1/"
   xmlns:cc="http://creativecommons.org/ns#"
   xmlns:rdf="http://www.w3.org/1999/02/22-rdf-syntax-ns#"
   xmlns:svg="http://www.w3.org/2000/svg"
   xmlns="http://www.w3.org/2000/svg"
   xmlns:xlink="http://www.w3.org/1999/xlink"
   xmlns:sodipodi="http://sodipodi.sourceforge.net/DTD/sodipodi-0.dtd"
   xmlns:inkscape="http://www.inkscape.org/namespaces/inkscape"
   width="48"
   height="48"
   id="svg5453"
   version="1.1"
   inkscape:version="0.48+devel r12923"
   sodipodi:docname="arronax.svg">
  <defs
     id="defs5455">
    <linearGradient
       inkscape:collect="always"
       id="linearGradient4247">
      <stop
         style="stop-color:#b9daff;stop-opacity:1"
         offset="0"
         id="stop4249" />
      <stop
         style="stop-color:#f5faff;stop-opacity:1"
         offset="1"
         id="stop4251" />
    </linearGradient>
    <linearGradient
       id="linearGradient4096"
       inkscape:collect="always">
      <stop
         id="stop4098"
         offset="0"
         style="stop-color:#004ba0;stop-opacity:1" />
      <stop
         id="stop4104"
         offset="1"
         style="stop-color:#005ec8;stop-opacity:1" />
    </linearGradient>
    <linearGradient
       inkscape:collect="always"
       xlink:href="#linearGradient4096"
       id="linearGradient4194"
       x1="418.70917"
       y1="-547.80817"
       x2="418.70917"
       y2="-499.79779"
       gradientUnits="userSpaceOnUse" />
    <linearGradient
       inkscape:collect="always"
       xlink:href="#linearGradient4247"
       id="linearGradient4239"
       x1="411.82144"
       y1="539.29797"
       x2="411.82144"
       y2="508.423"
       gradientUnits="userSpaceOnUse" />
  </defs>
  <sodipodi:namedview
     id="base"
     pagecolor="#ffffff"
     bordercolor="#666666"
     borderopacity="1.0"
     inkscape:pageopacity="0"
     inkscape:pageshadow="2"
     inkscape:zoom="4"
     inkscape:cx="55.288368"
     inkscape:cy="24.24567"
     inkscape:document-units="px"
     inkscape:current-layer="layer1"
     showgrid="false"
     fit-margin-top="0"
     fit-margin-left="0"
     fit-margin-right="0"
     fit-margin-bottom="0"
     inkscape:window-width="1366"
     inkscape:window-height="669"
     inkscape:window-x="0"
     inkscape:window-y="26"
     inkscape:window-maximized="1"
     borderlayer="true"
     inkscape:showpageshadow="false" />
  <metadata
     id="metadata5458">
    <rdf:RDF>
      <cc:Work
         rdf:about="">
        <dc:format>image/svg+xml</dc:format>
        <dc:type
           rdf:resource="http://purl.org/dc/dcmitype/StillImage" />
        <dc:title></dc:title>
      </cc:Work>
    </rdf:RDF>
  </metadata>
  <g
     inkscape:label="Capa 1"
     inkscape:groupmode="layer"
     id="layer1"
     transform="translate(-384.57143,-499.798)">
    <rect
       style="fill:url(#linearGradient4194);fill-opacity:1;stroke:none"
       id="rect2991-1-7"
       width="48"
       height="48"
       x="384.57144"
       y="-547.79797"
       ry="1.9445436"
       transform="scale(1,-1)" />
    <path
       inkscape:connector-curvature="0"
       id="path4259"
       d="m 406.59787,509.5987 -11.05695,30.7993 4.32655,0 8.67844,-24.79309 3.71109,10.54104 c -1.38662,-0.3667 -2.89087,-0.24981 -4.18764,0.34474 -1.3295,0.60956 -2.44959,1.75185 -2.85045,3.3386 -0.24361,0.96418 -0.14913,2.00575 0.27302,2.90591 0.42217,0.90013 1.21451,1.66862 2.2998,1.9157 0.64132,0.146 1.31808,0.0679 1.91336,-0.23137 0.5952,-0.2995 1.11958,-0.87132 1.26324,-1.63573 0.0832,-0.44168 0.0213,-0.89028 -0.192,-1.298 -0.21304,-0.40767 -0.63336,-0.78444 -1.17769,-0.86526 -0.31004,-0.046 -0.60616,0.006 -0.89073,0.16886 -0.28461,0.1625 -0.56702,0.50275 -0.60621,0.92316 l 1.45532,0.13647 c -0.01,0.10155 -0.10145,0.20713 -0.13188,0.22445 -0.0305,0.0177 -0.01,0.0117 -0.0392,0.006 0.046,0.006 0.0538,0.0107 0.097,0.0949 0.0433,0.0837 0.0663,0.23768 0.0487,0.33316 -0.0522,0.27616 -0.20654,0.45412 -0.47655,0.59002 -0.2701,0.13588 -0.64496,0.17866 -0.94169,0.11101 -0.61449,-0.13998 -1.03383,-0.54012 -1.30024,-1.10828 -0.26652,-0.56812 -0.33577,-1.29178 -0.18051,-1.90643 0.28339,-1.12161 1.04253,-1.90233 2.04068,-2.35991 0.99813,-0.45767 2.22644,-0.55298 3.29458,-0.24987 0.32507,0.0922 0.63021,0.21817 0.92317,0.36325 l 4.38207,12.44973 4.32879,0 -11.05694,-30.7993 -3.94703,0 z"
       style="font-size:41.32174683px;font-style:normal;font-weight:normal;line-height:125%;letter-spacing:0px;word-spacing:0px;fill:#000000;fill-opacity:0.05882353;stroke:none;font-family:sans-serif" />
    <path
       style="font-size:41.32174683px;font-style:normal;font-weight:normal;line-height:125%;letter-spacing:0px;word-spacing:0px;fill:#000000;fill-opacity:0.11764706;stroke:none;font-family:sans-serif"
       d="m 406.59787,509.1987 -11.05695,30.7993 4.32655,0 8.67844,-24.79309 3.71109,10.54104 c -1.38662,-0.3667 -2.89087,-0.24981 -4.18764,0.34474 -1.3295,0.60956 -2.44959,1.75185 -2.85045,3.3386 -0.24361,0.96418 -0.14913,2.00575 0.27302,2.90591 0.42217,0.90013 1.21451,1.66862 2.2998,1.9157 0.64132,0.146 1.31808,0.0679 1.91336,-0.23137 0.5952,-0.2995 1.11958,-0.87132 1.26324,-1.63573 0.0832,-0.44168 0.0213,-0.89028 -0.192,-1.298 -0.21304,-0.40767 -0.63336,-0.78444 -1.17769,-0.86526 -0.31004,-0.046 -0.60616,0.006 -0.89073,0.16886 -0.28461,0.1625 -0.56702,0.50275 -0.60621,0.92316 l 1.45532,0.13647 c -0.01,0.10155 -0.10145,0.20713 -0.13188,0.22445 -0.0305,0.0177 -0.01,0.0117 -0.0392,0.006 0.046,0.006 0.0538,0.0107 0.097,0.0949 0.0433,0.0837 0.0663,0.23768 0.0487,0.33316 -0.0522,0.27616 -0.20654,0.45412 -0.47655,0.59002 -0.2701,0.13588 -0.64496,0.17866 -0.94169,0.11101 -0.61449,-0.13998 -1.03383,-0.54012 -1.30024,-1.10828 -0.26652,-0.56812 -0.33577,-1.29178 -0.18051,-1.90643 0.28339,-1.12161 1.04253,-1.90233 2.04068,-2.35991 0.99813,-0.45767 2.22644,-0.55298 3.29458,-0.24987 0.32507,0.0922 0.63021,0.21817 0.92317,0.36325 l 4.38207,12.44973 4.32879,0 -11.05694,-30.7993 -3.94703,0 z"
       id="path4257"
       inkscape:connector-curvature="0" />
    <path
       inkscape:connector-curvature="0"
       id="path4253"
       d="m 406.59787,508.7987 -11.05695,30.7993 4.32655,0 8.67844,-24.79309 3.71109,10.54104 c -1.38662,-0.3667 -2.89087,-0.24981 -4.18764,0.34474 -1.3295,0.60956 -2.44959,1.75185 -2.85045,3.3386 -0.24361,0.96418 -0.14913,2.00575 0.27302,2.90591 0.42217,0.90013 1.21451,1.66862 2.2998,1.9157 0.64132,0.146 1.31808,0.0679 1.91336,-0.23137 0.5952,-0.2995 1.11958,-0.87132 1.26324,-1.63573 0.0832,-0.44168 0.0213,-0.89028 -0.192,-1.298 -0.21304,-0.40767 -0.63336,-0.78444 -1.17769,-0.86526 -0.31004,-0.046 -0.60616,0.006 -0.89073,0.16886 -0.28461,0.1625 -0.56702,0.50275 -0.60621,0.92316 l 1.45532,0.13647 c -0.01,0.10155 -0.10145,0.20713 -0.13188,0.22445 -0.0305,0.0177 -0.01,0.0117 -0.0392,0.006 0.046,0.006 0.0538,0.0107 0.097,0.0949 0.0433,0.0837 0.0663,0.23768 0.0487,0.33316 -0.0522,0.27616 -0.20654,0.45412 -0.47655,0.59002 -0.2701,0.13588 -0.64496,0.17866 -0.94169,0.11101 -0.61449,-0.13998 -1.03383,-0.54012 -1.30024,-1.10828 -0.26652,-0.56812 -0.33577,-1.29178 -0.18051,-1.90643 0.28339,-1.12161 1.04253,-1.90233 2.04068,-2.35991 0.99813,-0.45767 2.22644,-0.55298 3.29458,-0.24987 0.32507,0.0922 0.63021,0.21817 0.92317,0.36325 l 4.38207,12.44973 4.32879,0 -11.05694,-30.7993 -3.94703,0 z"
       style="font-size:41.32174683px;font-style:normal;font-weight:normal;line-height:125%;letter-spacing:0px;word-spacing:0px;fill:#000000;fill-opacity:0.23529412;stroke:none;font-family:sans-serif" />
    <path
       inkscape:connector-curvature="0"
       style="fill:#000000;fill-opacity:1;stroke:none"
       d="m 384.57143,544.79799 0,1.0625 c 0,1.0773 0.86022,1.9375 1.9375,1.9375 l 44.125,0 c 1.07728,0 1.9375,-0.8602 1.9375,-1.9375 l 0,-1.0625 c 0,1.0773 -0.86022,1.9375 -1.9375,1.9375 l -44.125,0 C 385.43165,546.73549 384.57143,545.87529 384.57143,544.79799 Z"
       id="rect846" />
    <path
       inkscape:connector-curvature="0"
       style="fill:#ffffff;fill-opacity:0.5372549;stroke:none"
       d="m 387.10268,500.45429 c -0.91709,0 -1.67115,0.6395 -1.84375,1.5 0.33561,-0.2799 0.77451,-0.4375 1.25,-0.4375 l 44.125,0 c 0.47549,0 0.91439,0.1576 1.25,0.4375 -0.1726,-0.8605 -0.92666,-1.5 -1.84375,-1.5 L 387.10268,500.45429 Z"
       id="path7515" />
    <path
       inkscape:connector-curvature="0"
       style="fill:#000000;fill-opacity:0.39215686;stroke:none"
       d="m 386.50893,499.79799 c -1.07728,0 -1.9375,0.8602 -1.9375,1.9375 l 0,43.0625 c 0,0.7934 0.48002,1.449 1.15625,1.75 -0.30934,-0.3333 -0.5,-0.7824 -0.5,-1.2812 l 0,-42.9375 c 0,-1.0482 0.8269,-1.875 1.875,-1.875 l 42.9375,0 c 1.0481,0 1.875,0.8268 1.875,1.875 l 0,42.9375 c 0,0.4988 -0.19066,0.9479 -0.5,1.2812 0.67623,-0.301 1.15625,-0.9566 1.15625,-1.75 l 0,-43.0625 c 0,-1.0773 -0.86022,-1.9375 -1.9375,-1.9375 L 386.50893,499.79799 Z"
       id="rect4280" />
    <path
       style="font-size:41.32174683px;font-style:normal;font-weight:normal;line-height:125%;letter-spacing:0px;word-spacing:0px;fill:url(#linearGradient4239);fill-opacity:1;stroke:none;font-family:sans-serif"
       d="m 406.59787,508.39882 -11.05695,30.7993 4.32655,0 8.67844,-24.79309 3.71109,10.54104 c -1.38662,-0.3667 -2.89087,-0.24981 -4.18764,0.34474 -1.3295,0.60956 -2.44959,1.75185 -2.85045,3.3386 -0.24361,0.96418 -0.14913,2.00575 0.27302,2.90591 0.42217,0.90013 1.21451,1.66862 2.2998,1.9157 0.64132,0.146 1.31808,0.0679 1.91336,-0.23137 0.5952,-0.2995 1.11958,-0.87132 1.26324,-1.63573 0.0832,-0.44168 0.0213,-0.89028 -0.192,-1.298 -0.21304,-0.40767 -0.63336,-0.78444 -1.17769,-0.86526 -0.31004,-0.046 -0.60616,0.006 -0.89073,0.16886 -0.28461,0.1625 -0.56702,0.50275 -0.60621,0.92316 l 1.45532,0.13647 c -0.01,0.10155 -0.10145,0.20713 -0.13188,0.22445 -0.0305,0.0177 -0.01,0.0117 -0.0392,0.006 0.046,0.006 0.0538,0.0107 0.097,0.0949 0.0433,0.0837 0.0663,0.23768 0.0487,0.33316 -0.0522,0.27616 -0.20654,0.45412 -0.47655,0.59002 -0.2701,0.13588 -0.64496,0.17866 -0.94169,0.11101 -0.61449,-0.13998 -1.03383,-0.54012 -1.30024,-1.10828 -0.26652,-0.56812 -0.33577,-1.29178 -0.18051,-1.90643 0.28339,-1.12161 1.04253,-1.90233 2.04068,-2.35991 0.99813,-0.45767 2.22644,-0.55298 3.29458,-0.24987 0.32507,0.0922 0.63021,0.21817 0.92317,0.36325 l 4.38207,12.44973 4.32879,0 -11.05694,-30.7993 -3.94703,0 z"
       id="path4229"
       inkscape:connector-curvature="0" />
    <path
       style="font-size:41.32174683px;font-style:normal;font-weight:normal;line-height:125%;letter-spacing:0px;word-spacing:0px;fill:#004da4;fill-opacity:0.3137255;stroke:none;font-family:sans-serif"
       d="M 23.974609 13.806641 L 15.296875 38.599609 L 11.255859 38.599609 L 10.96875 39.400391 L 15.296875 39.400391 L 23.974609 14.607422 L 27.384766 24.294922 C 27.484545 24.316126 27.586843 24.321553 27.685547 24.347656 L 23.974609 13.806641 z M 25.722656 25.625 C 25.157295 25.668148 24.600628 25.806321 24.101562 26.035156 C 23.103412 26.492736 22.343937 27.274874 22.060547 28.396484 C 21.973365 28.741624 21.96605 29.119284 22.015625 29.486328 C 22.028947 29.388777 22.036944 29.288754 22.060547 29.195312 C 22.343937 28.073702 23.103412 27.293518 24.101562 26.835938 C 25.099693 26.378267 26.328344 26.282827 27.396484 26.585938 C 27.721554 26.678138 28.027352 26.804139 28.320312 26.949219 L 32.701172 39.398438 L 37.03125 39.398438 L 36.744141 38.599609 L 32.701172 38.599609 L 28.320312 26.148438 C 28.027352 26.003357 27.721554 25.877356 27.396484 25.785156 C 26.862414 25.633601 26.288018 25.581852 25.722656 25.625 z M 20.535156 29.513672 C 20.46817 30.272605 20.595751 31.047045 20.919922 31.738281 C 21.342092 32.638411 22.135413 33.405264 23.220703 33.652344 C 23.862023 33.798344 24.537532 33.721145 25.132812 33.421875 C 25.728012 33.122375 26.252824 32.549566 26.396484 31.785156 C 26.444978 31.52772 26.43806 31.270252 26.386719 31.017578 C 26.234298 31.765331 25.719355 32.32595 25.132812 32.621094 C 24.537532 32.920364 23.862023 32.999516 23.220703 32.853516 C 22.135413 32.606436 21.342092 31.83763 20.919922 30.9375 C 20.709667 30.489169 20.581559 30.005127 20.535156 29.513672 z M 23.921875 29.951172 C 23.723208 30.134996 23.558401 30.40263 23.529297 30.714844 L 24.900391 30.84375 C 24.918224 30.797281 24.950842 30.762393 24.960938 30.708984 C 24.978538 30.613504 24.955409 30.460653 24.912109 30.376953 C 24.868909 30.292753 24.860453 30.28725 24.814453 30.28125 C 24.843653 30.28695 24.823016 30.293091 24.853516 30.275391 C 24.883946 30.258071 24.976328 30.152331 24.986328 30.050781 L 23.921875 29.951172 z "
       transform="translate(384.57143,499.798)"
       id="path4261" />
    <path
       style="font-size:41.32174683px;font-style:normal;font-weight:normal;line-height:125%;letter-spacing:0px;word-spacing:0px;fill:#f9f9f9;fill-opacity:0.3137255;stroke:none;font-family:sans-serif"
       d="M 22.027344 8.5996094 L 22.027344 8.6015625 L 10.96875 39.400391 L 11.113281 39.400391 L 22.027344 9 L 25.972656 9 L 36.886719 39.398438 L 37.03125 39.398438 L 25.972656 8.5996094 L 22.027344 8.5996094 z M 25.558594 24.960938 C 24.847107 25.018641 24.146432 25.194912 23.498047 25.492188 C 22.168547 26.101747 21.049298 27.245281 20.648438 28.832031 C 20.556763 29.194867 20.527723 29.568311 20.53125 29.941406 C 20.55075 29.702092 20.589479 29.463819 20.648438 29.230469 C 21.049298 27.643719 22.168547 26.502138 23.498047 25.892578 C 24.794817 25.298028 26.298927 25.182128 27.685547 25.548828 L 27.535156 25.121094 C 26.887538 24.9668 26.219394 24.907345 25.558594 24.960938 z M 25.027344 29.623047 C 24.717304 29.577047 24.421289 29.628156 24.136719 29.791016 C 23.852109 29.953516 23.568487 30.294434 23.529297 30.714844 L 23.650391 30.726562 C 23.766894 30.490768 23.947892 30.299218 24.136719 30.191406 C 24.421289 30.028546 24.717304 29.977437 25.027344 30.023438 C 25.571674 30.104258 25.992038 30.481002 26.205078 30.888672 C 26.323714 31.115442 26.389967 31.353818 26.416016 31.597656 C 26.451942 31.217825 26.388094 30.838114 26.205078 30.488281 C 25.992038 30.080611 25.571674 29.703867 25.027344 29.623047 z M 21.992188 30.035156 C 21.951254 30.535969 22.037107 31.0648 22.242188 31.501953 C 22.508597 32.070113 22.926526 32.471348 23.541016 32.611328 C 23.837746 32.678978 24.214275 32.63588 24.484375 32.5 C 24.754385 32.3641 24.908737 32.186316 24.960938 31.910156 C 24.976896 31.823583 24.951682 31.694187 24.916016 31.607422 C 24.846231 31.821931 24.716392 31.982832 24.484375 32.099609 C 24.214275 32.235489 23.837746 32.278588 23.541016 32.210938 C 22.926526 32.070957 22.508597 31.669723 22.242188 31.101562 C 22.091213 30.779741 22.011609 30.408711 21.992188 30.035156 z M 24.921875 31.246094 C 24.933957 31.284472 24.934548 31.321707 24.939453 31.365234 C 24.96023 31.329381 24.982352 31.292335 24.986328 31.251953 L 24.921875 31.246094 z "
       transform="translate(384.57143,499.798)"
       id="path4266" />
  </g>
</svg>
