<?xml version="1.0" encoding="UTF-8" standalone="no"?>
<svg
   xmlns:dc="http://purl.org/dc/elements/1.1/"
   xmlns:cc="http://creativecommons.org/ns#"
   xmlns:rdf="http://www.w3.org/1999/02/22-rdf-syntax-ns#"
   xmlns:svg="http://www.w3.org/2000/svg"
   xmlns="http://www.w3.org/2000/svg"
   xmlns:xlink="http://www.w3.org/1999/xlink"
   xmlns:sodipodi="http://sodipodi.sourceforge.net/DTD/sodipodi-0.dtd"
   xmlns:inkscape="http://www.inkscape.org/namespaces/inkscape"
   width="48"
   viewBox="0 0 13.546667 13.546667"
   height="48"
   id="svg2"
   version="1.1"
   inkscape:version="0.48+devel r"
   sodipodi:docname="assaultcube.svg">
  <metadata
     id="metadata30">
    <rdf:RDF>
      <cc:Work
         rdf:about="">
        <dc:format>image/svg+xml</dc:format>
        <dc:type
           rdf:resource="http://purl.org/dc/dcmitype/StillImage" />
      </cc:Work>
    </rdf:RDF>
  </metadata>
  <sodipodi:namedview
     pagecolor="#ffffff"
     bordercolor="#666666"
     borderopacity="1"
     objecttolerance="10"
     gridtolerance="10"
     guidetolerance="10"
     inkscape:pageopacity="0"
     inkscape:pageshadow="2"
     inkscape:window-width="1366"
     inkscape:window-height="666"
     id="namedview28"
     showgrid="false"
     inkscape:zoom="6.5149434"
     inkscape:cx="25.610179"
     inkscape:cy="23.202242"
     inkscape:window-x="-2"
     inkscape:window-y="25"
     inkscape:window-maximized="1"
     inkscape:current-layer="svg2" />
  <defs
     id="defs4">
    <linearGradient
       id="linearGradient4383">
      <stop
         id="stop4385"
         offset="0"
         style="stop-color:#ff9b9b;stop-opacity:1" />
      <stop
         id="stop4387"
         offset="1"
         style="stop-color:#fff5f5;stop-opacity:1" />
    </linearGradient>
    <linearGradient
       id="linearGradient4377">
      <stop
         id="stop4379"
         offset="0"
         style="stop-color:#ff8686;stop-opacity:1" />
      <stop
         id="stop4381"
         offset="1"
         style="stop-color:#ffc6c6;stop-opacity:1" />
    </linearGradient>
    <linearGradient
       gradientTransform="matrix(0.28222223,0,0,0.28222223,16.052931,285.03808)"
       gradientUnits="userSpaceOnUse"
       y2="-1009.9762"
       x2="-35.844036"
       y1="-1057.9852"
       x1="-35.844036"
       id="linearGradient843"
       xlink:href="#linearGradient868"
       inkscape:collect="always" />
    <linearGradient
       gradientUnits="userSpaceOnUse"
       y2="4.9867163"
       x2="24.412077"
       y1="33.590416"
       x1="7.8977227"
       id="linearGradient4095"
       xlink:href="#linearGradient4053"
       inkscape:collect="always"
       gradientTransform="matrix(0.24904463,0,0,0.24904463,3.4961038,2.0131192)" />
    <linearGradient
       gradientUnits="userSpaceOnUse"
       y2="17.338818"
       x2="20.242876"
       y1="35.537689"
       x1="30.75"
       id="linearGradient4103"
       xlink:href="#linearGradient4377"
       inkscape:collect="always"
       gradientTransform="scale(0.28222223,0.28222223)" />
    <linearGradient
       gradientUnits="userSpaceOnUse"
       y2="17.064079"
       x2="10.518213"
       y1="17.064079"
       x1="37.388271"
       id="linearGradient4118"
       xlink:href="#linearGradient4383"
       inkscape:collect="always"
       gradientTransform="scale(0.28222223,0.28222223)" />
    <linearGradient
       id="linearGradient868">
      <stop
         id="stop870"
         offset="0"
         style="stop-color:#aa0000;stop-opacity:1" />
      <stop
         id="stop872"
         offset="1"
         style="stop-color:#ff5555;stop-opacity:1" />
    </linearGradient>
    <linearGradient
       id="linearGradient4053">
      <stop
         style="stop-color:#ffcdcd;stop-opacity:1"
         offset="0"
         id="stop4055" />
      <stop
         style="stop-color:#fff5f5;stop-opacity:1"
         offset="1"
         id="stop4057" />
    </linearGradient>
  </defs>
  <rect
     style="fill:url(#linearGradient843);fill-opacity:1.0;stroke:none"
     id="rect2991-1"
     width="13.546667"
     height="13.546667"
     x="2.9884983e-08"
     y="-13.546662"
     ry="0.54879344"
     transform="scale(1,-1)" />
  <path
     d="m 10.537273,9.2851207 -3.7639395,2.1731113 -3.763939,-2.1731113 0,-4.3462224 3.7639391,-2.1731112 3.7639394,2.1731112 z"
     inkscape:randomized="0"
     inkscape:rounded="0"
     inkscape:flatsided="true"
     sodipodi:arg2="1.0471976"
     sodipodi:arg1="0.52359878"
     sodipodi:r2="3.7639393"
     sodipodi:r1="4.3462223"
     sodipodi:cy="7.1120094"
     sodipodi:cx="6.7733335"
     sodipodi:sides="6"
     id="path4137"
     style="fill:#000000;fill-opacity:0.05882353;stroke:none"
     sodipodi:type="star" />
  <path
     sodipodi:type="star"
     style="fill:#000000;fill-opacity:0.11764706;stroke:none"
     id="path4135"
     sodipodi:sides="6"
     sodipodi:cx="6.7733335"
     sodipodi:cy="6.9991205"
     sodipodi:r1="4.3462223"
     sodipodi:r2="3.7639393"
     sodipodi:arg1="0.52359878"
     sodipodi:arg2="1.0471976"
     inkscape:flatsided="true"
     inkscape:rounded="0"
     inkscape:randomized="0"
     d="m 10.537273,9.1722319 -3.7639395,2.1731111 -3.763939,-2.1731111 0,-4.3462224 3.7639391,-2.1731112 3.7639394,2.1731112 z" />
  <path
     d="m 10.537273,9.0593426 -3.7639395,2.1731114 -3.763939,-2.1731114 0,-4.3462224 3.7639391,-2.1731112 3.7639394,2.1731112 z"
     inkscape:randomized="0"
     inkscape:rounded="0"
     inkscape:flatsided="true"
     sodipodi:arg2="1.0471976"
     sodipodi:arg1="0.52359878"
     sodipodi:r2="3.7639393"
     sodipodi:r1="4.3462223"
     sodipodi:cy="6.8862316"
     sodipodi:cx="6.7733335"
     sodipodi:sides="6"
     id="path4120"
     style="fill:#000000;fill-opacity:0.23529412;stroke:none"
     sodipodi:type="star" />
  <path
     inkscape:connector-curvature="0"
     style="fill:#ffffff;fill-opacity:0.5372549;stroke:none"
     d="m 0.71437494,0.18522226 c -0.2588229,0 -0.47163482,0.18048112 -0.52034723,0.42333335 0.0947172,-0.078994 0.2185845,-0.12347223 0.35277778,-0.12347223 l 12.45305551,0 c 0.134194,0 0.258061,0.0444782 0.352778,0.12347223 -0.04871,-0.24285223 -0.261524,-0.42333335 -0.520347,-0.42333335 l -12.11791706,0 z"
     id="path7515" />
  <path
     inkscape:connector-curvature="0"
     style="fill:#000000;fill-opacity:0.39215686;stroke:none"
     d="M 0.54680549,-1.88294e-7 C 0.24277398,-1.88294e-7 -6.9884984e-8,0.24276737 -6.9884984e-8,0.54680538 l 0,12.15319462 c 0,0.223915 0.135473159884984,0.40894 0.326319449884984,0.493889 -0.0873032,-0.09407 -0.14111111,-0.220811 -0.14111111,-0.361583 l 0,-12.11791706 c 0,-0.29582534 0.23336927,-0.52916668 0.52916667,-0.52916668 l 12.11791706,0 c 0.295797,0 0.529167,0.23334134 0.529167,0.52916668 l 0,12.11791706 c 0,0.140772 -0.05381,0.267518 -0.141111,0.361583 0.190846,-0.08495 0.326319,-0.269974 0.326319,-0.493889 l 0,-12.15319462 C 13.546667,0.24276737 13.303893,-1.88294e-7 12.999861,-1.88294e-7 l -12.45305551,0 z"
     id="rect4280-3" />
  <path
     inkscape:connector-curvature="0"
     style="fill:#000000;fill-opacity:1;stroke:none"
     d="m -6.9884984e-8,12.7 0,0.299861 c 0,0.304038 0.242774049884984,0.546806 0.546805559884984,0.546806 l 12.45305551,0 c 0.304032,0 0.546806,-0.242768 0.546806,-0.546806 l 0,-0.299861 c 0,0.304038 -0.242774,0.546806 -0.546806,0.546806 l -12.45305551,0 C 0.24277398,13.246806 -6.9884985e-8,13.004038 -6.9884985e-8,12.7 Z"
     id="rect846" />
  <path
     sodipodi:type="star"
     style="fill:url(#linearGradient4095);fill-opacity:1.0;stroke:none"
     id="path4045"
     sodipodi:sides="6"
     sodipodi:cx="6.7733335"
     sodipodi:cy="6.7733427"
     sodipodi:r1="4.3462223"
     sodipodi:r2="3.7639393"
     sodipodi:arg1="0.52359878"
     sodipodi:arg2="1.0471976"
     inkscape:flatsided="true"
     inkscape:rounded="0"
     inkscape:randomized="0"
     d="m 10.537273,8.9464538 -3.7639395,2.1731112 -3.763939,-2.1731112 0,-4.3462224 3.7639391,-2.1731112 3.7639394,2.1731112 z" />
  <path
     inkscape:connector-curvature="0"
     style="fill:url(#linearGradient4103);fill-opacity:1.0;stroke:none"
     d="m 6.7733335,2.4270009 0,8.6926651 3.7636985,-2.1734417 0,-4.3457815 -3.7636985,-2.1734419 z"
     id="path4047" />
  <path
     inkscape:connector-curvature="0"
     style="fill:url(#linearGradient4118);fill-opacity:1.0;stroke:none"
     d="m 6.7733335,2.4270009 -3.7642493,2.1734419 3.7642493,2.1728907 3.7636985,-2.1723396 0,-5.644e-4 -3.7636985,-2.1734286 z"
     id="path4063" />
  <path
     inkscape:connector-curvature="0"
     style="fill:#ffffff;fill-opacity:0.23529412;stroke:none"
     d="m 6.7733335,2.4270009 3.7636985,2.1734419 5.64e-4,0 -3.7642625,-2.1734419 z"
     id="path4054" />
  <path
     inkscape:connector-curvature="0"
     style="fill:#b00606;fill-opacity:0.3137255;stroke:none"
     d="m 3.0096354,8.7207773 0,0.225447 3.7636981,2.1734417 3.7636985,-2.1734417 0,-0.225447 L 6.7733335,10.893668 3.0096354,8.7207773 Z"
     id="path4139" />
  <path
     inkscape:connector-curvature="0"
     style="fill:#ffffff;fill-opacity:0.23529412;stroke:none"
     d="m 6.7733335,2.4270009 -3.7642493,2.1734419 0.098116,0.056224 3.6661328,-2.1166667 3.6655815,2.1172179 0.09812,-0.056224 0,-5.644e-4 -3.7636985,-2.1734286 z"
     id="path4144" />
</svg>
