<?xml version="1.0" encoding="UTF-8" standalone="no"?>
<!-- Created with Inkscape (http://www.inkscape.org/) -->

<svg
   xmlns:dc="http://purl.org/dc/elements/1.1/"
   xmlns:cc="http://creativecommons.org/ns#"
   xmlns:rdf="http://www.w3.org/1999/02/22-rdf-syntax-ns#"
   xmlns:svg="http://www.w3.org/2000/svg"
   xmlns="http://www.w3.org/2000/svg"
   xmlns:xlink="http://www.w3.org/1999/xlink"
   xmlns:sodipodi="http://sodipodi.sourceforge.net/DTD/sodipodi-0.dtd"
   xmlns:inkscape="http://www.inkscape.org/namespaces/inkscape"
   width="48"
   height="48"
   id="svg2"
   version="1.1"
   inkscape:version="0.49 r12742"
   sodipodi:docname="audex.svg">
  <defs
     id="defs4">
    <linearGradient
       inkscape:collect="always"
       id="linearGradient4252">
      <stop
         style="stop-color:#000000;stop-opacity:1;"
         offset="0"
         id="stop4254" />
      <stop
         style="stop-color:#6e6f71;stop-opacity:1"
         offset="1"
         id="stop4256" />
    </linearGradient>
    <linearGradient
       inkscape:collect="always"
       xlink:href="#linearGradient4638-0"
       id="linearGradient835"
       x1="78.707253"
       y1="-1050.9479"
       x2="78.707253"
       y2="-1003.9253"
       gradientUnits="userSpaceOnUse"
       gradientTransform="translate(-52.367529,-0.57196943)" />
    <linearGradient
       id="linearGradient4727"
       inkscape:collect="always">
      <stop
         id="stop4729"
         offset="0"
         style="stop-color:#ffffff;stop-opacity:1;" />
      <stop
         id="stop4731"
         offset="1"
         style="stop-color:#ffffff;stop-opacity:0;" />
    </linearGradient>
    <linearGradient
       id="linearGradient4606"
       inkscape:collect="always">
      <stop
         id="stop4608"
         offset="0"
         style="stop-color:#22849f;stop-opacity:1" />
      <stop
         id="stop4610"
         offset="1"
         style="stop-color:#38b549;stop-opacity:1" />
    </linearGradient>
    <linearGradient
       inkscape:collect="always"
       id="linearGradient4596">
      <stop
         style="stop-color:#d11f44;stop-opacity:1"
         offset="0"
         id="stop4598" />
      <stop
         style="stop-color:#532557;stop-opacity:1"
         offset="1"
         id="stop4600" />
    </linearGradient>
    <linearGradient
       id="linearGradient4565"
       inkscape:collect="always">
      <stop
         id="stop4567"
         offset="0"
         style="stop-color:#f7921e;stop-opacity:1" />
      <stop
         id="stop4569"
         offset="1"
         style="stop-color:#ae2e28;stop-opacity:1" />
    </linearGradient>
    <linearGradient
       inkscape:collect="always"
       id="linearGradient4638-0">
      <stop
         style="stop-color:#0d0d0d;stop-opacity:1"
         offset="0"
         id="stop4640-5" />
      <stop
         style="stop-color:#262626;stop-opacity:1"
         offset="1"
         id="stop4642-8" />
    </linearGradient>
    <linearGradient
       inkscape:collect="always"
       xlink:href="#linearGradient4252"
       id="linearGradient4250"
       x1="12.662356"
       y1="1008.5938"
       x2="38.388042"
       y2="1036.0209"
       gradientUnits="userSpaceOnUse"
       gradientTransform="translate(-4.4940076,0.1577279)" />
    <linearGradient
       inkscape:collect="always"
       xlink:href="#linearGradient4252"
       id="linearGradient4265"
       gradientUnits="userSpaceOnUse"
       gradientTransform="matrix(0.97162809,0,0,0.97162809,-3.6855782,29.329853)"
       x1="10.338981"
       y1="1020.3525"
       x2="24.927561"
       y2="1034.941" />
    <linearGradient
       inkscape:collect="always"
       xlink:href="#linearGradient4252"
       id="linearGradient4267"
       gradientUnits="userSpaceOnUse"
       gradientTransform="matrix(0.97162809,0,0,0.97162809,-3.6855782,29.329853)"
       x1="18.910099"
       y1="1020.2351"
       x2="33.997753"
       y2="1035.3228" />
    <linearGradient
       inkscape:collect="always"
       xlink:href="#linearGradient4252"
       id="linearGradient4269"
       gradientUnits="userSpaceOnUse"
       gradientTransform="matrix(0.97162809,0,0,0.97162809,-3.6855782,29.329853)"
       x1="28.978323"
       y1="1019.9709"
       x2="44.300755"
       y2="1035.2933" />
    <linearGradient
       inkscape:collect="always"
       xlink:href="#linearGradient4727"
       id="linearGradient4315"
       x1="19.844366"
       y1="26.703609"
       x2="12.745568"
       y2="19.604811"
       gradientUnits="userSpaceOnUse" />
    <linearGradient
       inkscape:collect="always"
       xlink:href="#linearGradient4727"
       id="linearGradient4323"
       x1="29.201872"
       y1="27.348953"
       x2="22.183743"
       y2="20.330824"
       gradientUnits="userSpaceOnUse" />
    <linearGradient
       inkscape:collect="always"
       xlink:href="#linearGradient4727"
       id="linearGradient4325"
       x1="40.617672"
       y1="31.16433"
       x2="30.856424"
       y2="18.882896"
       gradientUnits="userSpaceOnUse" />
    <linearGradient
       inkscape:collect="always"
       xlink:href="#linearGradient4606"
       id="linearGradient4355"
       gradientUnits="userSpaceOnUse"
       gradientTransform="matrix(0.97162809,0,0,0.97162809,-3.6855782,-975.03235)"
       x1="19.401653"
       y1="1035.8024"
       x2="22.113127"
       y2="1025.683" />
    <linearGradient
       inkscape:collect="always"
       xlink:href="#linearGradient4596"
       id="linearGradient4365"
       gradientUnits="userSpaceOnUse"
       gradientTransform="matrix(0.97162809,0,0,0.97162809,7.1791875,-975.03235)"
       x1="19.401653"
       y1="1035.8024"
       x2="22.113127"
       y2="1025.683" />
    <linearGradient
       inkscape:collect="always"
       xlink:href="#linearGradient4565"
       id="linearGradient4413"
       gradientUnits="userSpaceOnUse"
       gradientTransform="matrix(0.97162809,0,0,0.97162809,-3.6855782,-975.03235)"
       x1="42.651077"
       y1="1035.7449"
       x2="34.801216"
       y2="1025.7246" />
  </defs>
  <sodipodi:namedview
     id="base"
     pagecolor="#ffffff"
     bordercolor="#666666"
     borderopacity="1.0"
     inkscape:pageopacity="0.0"
     inkscape:pageshadow="2"
     inkscape:zoom="5.6568543"
     inkscape:cx="19.774055"
     inkscape:cy="23.531221"
     inkscape:document-units="px"
     inkscape:current-layer="layer1"
     showgrid="false"
     inkscape:window-width="1366"
     inkscape:window-height="718"
     inkscape:window-x="-2"
     inkscape:window-y="23"
     inkscape:window-maximized="1">
    <inkscape:grid
       type="xygrid"
       id="grid3850" />
  </sodipodi:namedview>
  <metadata
     id="metadata7">
    <rdf:RDF>
      <cc:Work
         rdf:about="">
        <dc:format>image/svg+xml</dc:format>
        <dc:type
           rdf:resource="http://purl.org/dc/dcmitype/StillImage" />
        <dc:title></dc:title>
      </cc:Work>
    </rdf:RDF>
  </metadata>
  <g
     inkscape:label="Capa 1"
     inkscape:groupmode="layer"
     id="layer1"
     transform="translate(0,-1004.3622)">
    <rect
       style="fill:url(#linearGradient835);fill-opacity:1.0;stroke:none"
       id="rect2991-1"
       width="48"
       height="48"
       x="-1.4959717e-06"
       y="-1052.3622"
       ry="1.9445436"
       transform="scale(1,-1)" />
    <path
       inkscape:connector-curvature="0"
       style="fill:#000000;fill-opacity:1;stroke:none"
       d="m 4.9597168e-7,1049.3623 0,1.0625 c 0,1.0773 0.86022200402832,1.9375 1.93749900402832,1.9375 l 44.1250005,0 c 1.077277,0 1.937501,-0.8602 1.937501,-1.9375 l 0,-1.0625 c 0,1.0773 -0.860224,1.9375 -1.937501,1.9375 l -44.1250005,0 C 0.8602225,1051.2998 4.9597168e-7,1050.4396 4.9597168e-7,1049.3623 Z"
       id="rect846" />
    <path
       inkscape:connector-curvature="0"
       style="fill:#ffffff;fill-opacity:0.5372549;stroke:none"
       d="m 2.5312495,1005.0186 c -0.917088,0 -1.671146,0.6395 -1.843749,1.5 0.335612,-0.2799 0.774512,-0.4375 1.249999,-0.4375 l 44.1250005,0 c 0.475488,0 0.914388,0.1576 1.25,0.4375 -0.172603,-0.8605 -0.926662,-1.5 -1.84375,-1.5 L 2.5312495,1005.0186 Z"
       id="path7515" />
    <path
       inkscape:connector-curvature="0"
       style="fill:#000000;fill-opacity:0.39215686;stroke:none"
       d="m 1.9374995,1004.3623 c -1.077276,0 -1.93749900402832,0.8602 -1.93749900402832,1.9375 l 0,43.0625 c 0,0.7934 0.48002300402832,1.449 1.15624900402832,1.75 -0.309341,-0.3333 -0.499999,-0.7824 -0.499999,-1.2812 l 0,-42.9375 c 0,-1.0482 0.826898,-1.875 1.874999,-1.875 l 42.9375005,0 c 1.048101,0 1.875,0.8268 1.875,1.875 l 0,42.9375 c 0,0.4988 -0.190658,0.9479 -0.5,1.2812 0.676226,-0.301 1.156251,-0.9566 1.156251,-1.75 l 0,-43.0625 c 0,-1.0773 -0.860224,-1.9375 -1.937501,-1.9375 L 1.9374995,1004.3623 Z"
       id="rect4280-1" />
    <path
       inkscape:connector-curvature="0"
       id="path4259"
       style="font-size:20px;font-style:normal;font-variant:normal;font-weight:normal;font-stretch:normal;line-height:125%;letter-spacing:0px;word-spacing:0px;fill:url(#linearGradient4265);fill-opacity:1;stroke:none;font-family:Chula;-inkscape-font-specification:Chula"
       d="m 19.416059,1033.8033 q 0,0.3887 -0.155461,0.719 -0.136028,0.3304 -0.388651,0.583 -0.252623,0.2332 -0.602409,0.3887 -0.330354,0.136 -0.699573,0.136 -0.563544,0 -1.010493,-0.3109 -0.446949,-0.311 -0.660707,-0.8162 -1.340847,1.0882 -3.070345,1.1271 -1.710065,0 -3.0703446,-1.1077 -0.7190048,-0.583 -1.1659538,-1.3991 -0.4469489,-0.8356 -0.5635442,-1.749 -0.097163,-0.9327 0.1360279,-1.8655 0.2526233,-0.9327 0.8938978,-1.7489 0.621842,-0.7579 1.4574429,-1.2048 0.8356,-0.447 1.807228,-0.5441 0.932763,-0.097 1.807228,0.1554 0.874465,0.2526 1.612903,0.8162 l 0,-1.1077 1.904391,0 0,9.658 q 0.699572,-0.039 1.185386,-0.5247 0.485814,-0.5052 0.485814,-1.2048 l 0.09716,0 z m -6.587639,1.7101 q 1.710066,0 3.03148,-1.1077 -0.116595,-0.2915 -0.116595,-0.6024 l 0,-6.6848 q -1.263117,-1.0299 -2.914885,-1.0299 -0.816167,0 -1.554605,0.2526 -0.738437,0.2526 -1.3602792,0.7579 l 0,7.4038 q 1.0882242,0.8745 2.4873682,0.9911 0.116595,0.019 0.213758,0.019 0.116596,0 0.213758,0 z" />
    <path
       style="font-size:20px;font-style:normal;font-variant:normal;font-weight:normal;font-stretch:normal;line-height:125%;letter-spacing:0px;word-spacing:0px;fill:url(#linearGradient4355);fill-opacity:1;stroke:none;font-family:Chula;-inkscape-font-specification:Chula"
       d="M 15.744141 21.511719 L 15.744141 22.621094 C 15.74297 22.6202 15.741406 22.620032 15.740234 22.619141 L 15.740234 22.753906 C 15.74138 22.754839 15.742995 22.754926 15.744141 22.755859 L 15.744141 29.441406 C 15.744141 29.648673 15.781645 29.848635 15.859375 30.042969 C 15.821239 30.074937 15.778875 30.094639 15.740234 30.125 L 15.740234 30.246094 C 15.791769 30.207699 15.847903 30.181638 15.898438 30.140625 C 16.040942 30.477425 16.260628 30.749698 16.558594 30.957031 C 16.85656 31.164298 17.194617 31.267578 17.570312 31.267578 C 17.597289 31.267578 17.621856 31.259133 17.648438 31.257812 L 17.648438 31.169922 L 17.648438 21.511719 L 15.744141 21.511719 z "
       transform="translate(0,1004.3622)"
       id="path4351" />
    <path
       inkscape:connector-curvature="0"
       id="path4261"
       style="font-size:20px;font-style:normal;font-variant:normal;font-weight:normal;font-stretch:normal;line-height:125%;letter-spacing:0px;word-spacing:0px;fill:url(#linearGradient4267);fill-opacity:1;stroke:none;font-family:Chula;-inkscape-font-specification:Chula"
       d="m 30.28129,1033.8616 q 0,0.3887 -0.155461,0.719 -0.136027,0.3304 -0.388651,0.583 -0.252623,0.2332 -0.602409,0.3886 -0.330354,0.1361 -0.699572,0.1361 -0.563545,0 -1.029926,-0.3109 -0.446949,-0.3304 -0.660707,-0.8356 -1.340847,1.1076 -3.050912,1.1076 -0.116596,0 -0.233191,0 -0.116596,-0.019 -0.233191,-0.039 -1.43801,-0.1165 -2.545666,-1.0104 -0.777302,-0.6025 -1.243684,-1.4186 -0.466381,-0.8356 -0.563544,-1.8073 -0.116595,-0.9716 0.136028,-1.8849 0.252623,-0.9328 0.874465,-1.6906 0.719005,-0.8939 1.710066,-1.3603 l 0.01943,-0.02 q 0.01943,0 0.03887,-0.019 0.971628,-0.4469 2.020986,-0.4275 0.816168,-0.019 1.554605,0.2332 0.738437,0.2526 1.379712,0.7579 l 0,-5.927 1.904391,0 0,14.555 q 0.68014,-0.039 1.165954,-0.5247 0.505246,-0.5052 0.505246,-1.2048 l 0.09716,0 z m -3.556159,0.6024 q -0.116595,-0.2526 -0.116595,-0.6024 l 0,-6.7819 q -0.738438,-0.583 -1.651768,-0.8356 -0.893898,-0.2527 -1.846093,-0.1555 -0.75787,0.097 -1.418577,0.4081 -0.01943,0 -0.03887,0.019 l -0.01943,0 q -0.485814,0.2526 -0.893898,0.5636 l 0,7.4426 q 0.621842,0.5053 1.360279,0.7579 0.75787,0.2526 1.574038,0.272 l 0.01943,0 q 0.816167,0 1.59347,-0.272 0.777302,-0.2915 1.418577,-0.8162 l 0.01943,0 z" />
    <path
       inkscape:connector-curvature="0"
       id="path4263"
       style="font-size:20px;font-style:normal;font-variant:normal;font-weight:normal;font-stretch:normal;line-height:125%;letter-spacing:0px;word-spacing:0px;fill:url(#linearGradient4269);fill-opacity:1;stroke:none;font-family:Chula;-inkscape-font-specification:Chula"
       d="m 30.128259,1025.9526 -0.0583,-0.078 2.27361,-0.019 3.26467,4.2169 4.139136,-4.1975 0.0583,0.078 -4.119703,4.1974 4.314029,5.5383 -2.254177,0 -3.342401,-4.2752 -4.119703,4.2363 -0.07773,-0.078 4.139135,-4.2363 -4.216865,-5.3828 0,0 z" />
    <path
       style="font-size:20px;font-style:normal;font-variant:normal;font-weight:normal;font-stretch:normal;line-height:125%;letter-spacing:0px;word-spacing:0px;fill:url(#linearGradient4413);fill-opacity:1;stroke:none;font-family:Chula;-inkscape-font-specification:Chula"
       d="M 32.34375 21.494141 L 30.128906 21.589844 L 34.345703 26.972656 L 37.755859 31.326172 L 39.957031 31.326172 L 35.607422 25.710938 L 32.34375 21.494141 z "
       transform="translate(0,1004.3622)"
       id="path4409" />
    <path
       style="font-size:20px;font-style:normal;font-variant:normal;font-weight:normal;font-stretch:normal;line-height:125%;letter-spacing:0px;word-spacing:0px;fill:url(#linearGradient4315);fill-opacity:1;stroke:none;font-family:Chula;-inkscape-font-specification:Chula"
       d="M 15.744141 21.511719 L 15.744141 22.621094 C 15.251849 22.24536 14.713836 21.973088 14.130859 21.804688 C 13.547883 21.636421 12.944108 21.583771 12.322266 21.648438 C 11.674514 21.713171 11.072692 21.895359 10.515625 22.193359 C 10.021076 22.457856 9.5931717 22.818189 9.2109375 23.246094 C 9.446285 23.255024 9.67942 23.271788 9.9140625 23.283203 L 9.9140625 22.736328 C 10.328624 22.399461 10.781146 22.146916 11.273438 21.978516 C 11.765729 21.810116 12.284014 21.726562 12.828125 21.726562 C 13.929304 21.726562 14.902063 22.069259 15.744141 22.755859 L 15.744141 23.808594 C 16.384149 23.893051 17.017828 23.986629 17.648438 24.085938 L 17.648438 21.511719 L 15.744141 21.511719 z "
       transform="translate(0,1004.3622)"
       id="path4284" />
    <path
       style="font-size:20px;font-style:normal;font-variant:normal;font-weight:normal;font-stretch:normal;line-height:125%;letter-spacing:0px;word-spacing:0px;fill:url(#linearGradient4365);fill-opacity:1.0;stroke:none;font-family:Chula;-inkscape-font-specification:Chula"
       d="m 26.609375,16.673828 0,5.927734 0,0.01953 c -0.0012,-9e-4 -0.0027,0 -0.0039,0 l 0,0.09375 c 0.0012,9.07e-4 0.0028,9.53e-4 0.0039,0.002 l 0,0.03906 0,6.744141 c 0,0.2332 0.0375,0.433163 0.115234,0.601562 -0.001,0.02682 0.01302,0.05208 0.01953,0.07813 0.142505,0.3368 0.36219,0.61567 0.660156,0.835937 0.310921,0.207267 0.655553,0.310547 1.03125,0.310547 0.02677,0 0.05166,-0.0067 0.07813,-0.0078 l 0,-0.08984 0,-14.554688 z"
       transform="translate(0,1004.3622)"
       id="path4363"
       inkscape:connector-curvature="0"
       sodipodi:nodetypes="cccccccscccscccc" />
    <path
       style="font-size:20px;font-style:normal;font-variant:normal;font-weight:normal;font-stretch:normal;line-height:125%;letter-spacing:0px;word-spacing:0px;fill:url(#linearGradient4323);fill-opacity:1;stroke:none;font-family:Chula;-inkscape-font-specification:Chula"
       d="M 26.609375 16.673828 L 26.609375 22.601562 C 26.181858 22.264696 25.720807 22.01215 25.228516 21.84375 C 24.736224 21.675617 24.21794 21.596708 23.673828 21.609375 C 22.974256 21.596442 22.300096 21.739176 21.652344 22.037109 C 21.639384 22.049776 21.628188 22.056641 21.615234 22.056641 L 21.595703 22.076172 C 20.934996 22.387105 20.364102 22.839614 19.884766 23.435547 C 19.647189 23.725067 19.455566 24.037398 19.298828 24.365234 C 19.782447 24.451817 20.263418 24.540632 20.740234 24.634766 L 20.740234 22.716797 C 21.01229 22.509464 21.31089 22.322697 21.634766 22.154297 L 21.652344 22.154297 C 21.665304 22.14163 21.678453 22.134766 21.691406 22.134766 C 22.131878 21.927366 22.606081 21.791229 23.111328 21.726562 C 23.746125 21.661763 24.361099 21.714346 24.957031 21.882812 C 25.565918 22.051213 26.117083 22.32813 26.609375 22.716797 L 26.609375 26.025391 C 27.246516 26.197146 27.896207 26.360817 28.513672 26.541016 L 28.513672 16.673828 L 26.609375 16.673828 z "
       transform="translate(0,1004.3622)"
       id="path4286" />
    <path
       style="font-size:20px;font-style:normal;font-variant:normal;font-weight:normal;font-stretch:normal;line-height:125%;letter-spacing:0px;word-spacing:0px;fill:url(#linearGradient4325);fill-opacity:1;stroke:none;font-family:Chula;-inkscape-font-specification:Chula"
       d="M 32.34375 21.494141 L 30.070312 21.511719 L 30.128906 21.589844 L 34.345703 26.972656 L 33.271484 28.072266 C 33.306445 28.08442 33.340136 28.097211 33.375 28.109375 L 34.404297 27.050781 L 35.958984 29.041016 C 37.128909 29.484415 38.215754 29.919641 39.238281 30.347656 L 35.685547 25.789062 L 39.806641 21.589844 L 39.748047 21.513672 L 35.607422 25.710938 L 32.34375 21.494141 z "
       transform="translate(0,1004.3622)"
       id="path4288" />
    <path
       style="font-size:20px;font-style:normal;font-variant:normal;font-weight:normal;font-stretch:normal;line-height:125%;letter-spacing:0px;word-spacing:0px;fill:#ffffff;fill-opacity:0.23529412;stroke:none;font-family:Chula;-inkscape-font-specification:Chula"
       d="M 28.212891 16.673828 L 28.212891 31.228516 C 28.316801 31.222557 28.41656 31.207202 28.513672 31.185547 L 28.513672 16.673828 L 28.212891 16.673828 z M 32.34375 21.494141 L 32.044922 21.496094 L 35.306641 25.710938 L 35.474609 25.541016 L 32.34375 21.494141 z M 17.347656 21.511719 L 17.347656 31.169922 C 17.452004 31.164105 17.551211 31.14953 17.648438 31.128906 L 17.648438 21.511719 L 17.347656 21.511719 z M 39.748047 21.513672 L 35.607422 25.710938 L 35.542969 25.626953 L 35.384766 25.789062 L 39.699219 31.326172 L 40 31.326172 L 35.685547 25.789062 L 39.806641 21.589844 L 39.748047 21.513672 z M 23.673828 21.609375 C 23.611356 21.60822 23.550348 21.61586 23.488281 21.617188 C 23.989569 21.617688 24.471051 21.687716 24.927734 21.84375 C 25.091831 21.899883 25.247227 21.979854 25.404297 22.054688 C 25.7233 22.178331 26.024993 22.334845 26.308594 22.525391 L 26.308594 22.402344 C 25.965962 22.171 25.609666 21.974132 25.228516 21.84375 C 24.736224 21.675617 24.21794 21.596708 23.673828 21.609375 z M 13.240234 21.638672 C 13.147201 21.630616 13.050979 21.645085 12.957031 21.642578 C 13.253045 21.669243 13.543774 21.722034 13.830078 21.804688 C 13.926187 21.83245 14.01376 21.880655 14.107422 21.914062 C 14.582352 22.047674 15.027507 22.258986 15.443359 22.548828 L 15.443359 22.431641 C 15.032532 22.161438 14.600424 21.940327 14.130859 21.804688 C 13.839371 21.720554 13.54178 21.664784 13.240234 21.638672 z M 23.748047 21.716797 C 23.440365 21.690797 23.127945 21.694563 22.810547 21.726562 C 22.40174 21.778832 22.019079 21.891302 21.652344 22.037109 C 21.639384 22.049776 21.628188 22.056641 21.615234 22.056641 L 21.595703 22.076172 C 21.171567 22.275773 20.789105 22.540648 20.439453 22.857422 L 20.439453 30.011719 C 20.522885 30.085498 20.592033 30.168825 20.681641 30.238281 C 21.049209 30.534916 21.443283 30.767481 21.865234 30.935547 C 22.350344 31.090247 22.852361 31.177013 23.373047 31.189453 L 23.392578 31.189453 C 23.443936 31.189453 23.49379 31.179342 23.544922 31.177734 C 23.047426 31.154412 22.564216 31.072823 22.099609 30.917969 C 21.607318 30.749569 21.154796 30.497023 20.740234 30.160156 L 20.740234 22.716797 C 21.01229 22.509464 21.31089 22.322697 21.634766 22.154297 L 21.652344 22.154297 C 21.665304 22.14163 21.678453 22.134766 21.691406 22.134766 C 22.131878 21.927366 22.606081 21.79123 23.111328 21.726562 C 23.332181 21.704019 23.547559 21.715025 23.763672 21.720703 C 23.758319 21.720232 23.753403 21.71725 23.748047 21.716797 z M 12.527344 21.726562 C 12.039987 21.726562 11.576657 21.804468 11.130859 21.939453 C 10.922491 22.015824 10.712735 22.087917 10.515625 22.193359 C 10.187325 22.368943 9.891969 22.592171 9.6132812 22.839844 L 9.6132812 30.017578 C 9.6643397 30.062703 9.7045129 30.116939 9.7578125 30.160156 C 10.148355 30.478182 10.564262 30.713524 10.998047 30.894531 C 11.348929 31.013433 11.712888 31.098521 12.099609 31.130859 C 12.177339 31.140859 12.249683 31.150391 12.314453 31.150391 L 12.527344 31.150391 C 12.54344 31.150391 12.558174 31.146631 12.574219 31.146484 C 12.519542 31.144394 12.463275 31.141107 12.400391 31.130859 C 11.467628 31.053126 10.639545 30.723625 9.9140625 30.140625 L 9.9140625 22.736328 C 10.328624 22.399461 10.781146 22.146916 11.273438 21.978516 C 11.718677 21.826211 12.188141 21.752737 12.675781 21.738281 C 12.62543 21.736817 12.578244 21.726562 12.527344 21.726562 z M 34.177734 27.144531 L 30.205078 31.208984 L 30.283203 31.287109 L 34.238281 27.222656 L 34.177734 27.144531 z M 19.318359 29.441406 C 19.318359 29.907806 19.15786 30.309684 18.833984 30.646484 C 18.591077 30.889334 18.307486 31.048064 17.984375 31.123047 C 17.983835 31.123292 17.982962 31.122803 17.982422 31.123047 C 17.977487 31.125278 17.973715 31.128651 17.96875 31.130859 C 17.804787 31.198384 17.631349 31.232562 17.453125 31.25 C 17.493376 31.25248 17.529154 31.267578 17.570312 31.267578 C 17.816459 31.267578 18.049295 31.221526 18.269531 31.130859 C 18.502722 31.027193 18.702678 30.897654 18.871094 30.742188 C 19.039509 30.573787 19.16908 30.380423 19.259766 30.160156 C 19.363406 29.939956 19.416016 29.70054 19.416016 29.441406 L 19.318359 29.441406 z M 30.183594 29.5 C 30.183594 29.9664 30.016518 30.366325 29.679688 30.703125 C 29.441469 30.941287 29.167696 31.098529 28.859375 31.175781 C 28.850401 31.179892 28.843059 31.185422 28.833984 31.189453 C 28.668807 31.257478 28.494105 31.291405 28.314453 31.308594 C 28.355865 31.311201 28.393348 31.326172 28.435547 31.326172 C 28.681692 31.326172 28.91453 31.280186 29.134766 31.189453 C 29.367956 31.085853 29.567913 30.956248 29.736328 30.800781 C 29.904744 30.632381 30.034315 30.439017 30.125 30.21875 C 30.228641 29.99855 30.28125 29.759133 30.28125 29.5 L 30.183594 29.5 z M 15.634766 30.201172 C 15.20348 30.525315 14.744376 30.768519 14.253906 30.923828 C 13.755063 31.119197 13.223509 31.227352 12.662109 31.253906 C 12.718269 31.255734 12.771388 31.267578 12.828125 31.267578 C 13.892873 31.24363 14.841758 30.907585 15.685547 30.287109 C 15.669836 30.257435 15.649114 30.231984 15.634766 30.201172 z M 26.486328 30.251953 C 26.115751 30.524207 25.721568 30.75504 25.287109 30.917969 C 25.22792 30.938681 25.166956 30.946509 25.107422 30.964844 C 24.583454 31.169167 24.027902 31.278028 23.4375 31.283203 C 23.445294 31.284478 23.453164 31.285843 23.460938 31.287109 L 23.693359 31.287109 C 24.745948 31.287109 25.688508 30.957558 26.53125 30.328125 C 26.517412 30.301832 26.49911 30.279039 26.486328 30.251953 z "
       transform="translate(0,1004.3622)"
       id="path4327" />
    <path
       style="font-size:20px;font-style:normal;font-variant:normal;font-weight:normal;font-stretch:normal;line-height:125%;letter-spacing:0px;word-spacing:0px;fill:#ffffff;fill-opacity:0.11764706;stroke:none;font-family:Chula;-inkscape-font-specification:Chula"
       d="M 26.609375 16.673828 L 26.609375 22.404297 C 26.70851 22.471314 26.81241 22.526074 26.908203 22.601562 L 26.908203 16.673828 L 26.609375 16.673828 z M 32.34375 21.494141 L 30.070312 21.511719 L 30.128906 21.589844 L 34.345703 26.972656 L 30.205078 31.208984 L 30.283203 31.287109 L 34.404297 27.050781 L 34.476562 27.144531 L 34.644531 26.972656 L 30.427734 21.589844 L 30.369141 21.511719 L 32.345703 21.496094 L 32.34375 21.494141 z M 15.744141 21.511719 L 15.744141 22.433594 C 15.842773 22.49852 15.947752 22.548428 16.042969 22.621094 L 16.042969 21.511719 L 15.744141 21.511719 z M 39.748047 21.513672 L 35.775391 25.541016 L 35.841797 25.628906 L 39.806641 21.589844 L 39.748047 21.513672 z M 23.673828 21.609375 C 22.974256 21.596442 22.300096 21.739176 21.652344 22.037109 C 21.639384 22.049776 21.628188 22.056641 21.615234 22.056641 L 21.595703 22.076172 C 20.934996 22.387105 20.364102 22.839614 19.884766 23.435547 C 19.470204 23.940747 19.178181 24.505086 19.009766 25.126953 C 18.84135 25.73582 18.79727 26.363985 18.875 27.011719 C 18.939775 27.659519 19.126579 28.261293 19.4375 28.818359 C 19.748421 29.362426 20.163439 29.836615 20.681641 30.238281 C 21.420078 30.834215 22.267889 31.17038 23.226562 31.248047 C 23.304293 31.26138 23.383207 31.274443 23.460938 31.287109 L 23.693359 31.287109 C 23.708753 31.287109 23.722932 31.283338 23.738281 31.283203 C 23.667514 31.271398 23.595978 31.259852 23.525391 31.248047 C 23.043618 31.20905 22.591981 31.103348 22.166016 30.933594 C 22.144329 30.926676 22.121224 30.925173 22.099609 30.917969 C 21.607318 30.749569 21.154796 30.497023 20.740234 30.160156 L 20.740234 30.013672 C 20.340236 29.66032 19.993932 29.269074 19.736328 28.818359 C 19.425407 28.261259 19.238608 27.659519 19.173828 27.011719 C 19.096098 26.364019 19.140178 25.735753 19.308594 25.126953 C 19.477009 24.505053 19.769032 23.940747 20.183594 23.435547 C 20.355686 23.221606 20.54462 23.032525 20.740234 22.855469 L 20.740234 22.716797 C 21.01229 22.509464 21.31089 22.322697 21.634766 22.154297 L 21.652344 22.154297 C 21.665304 22.14163 21.678453 22.134766 21.691406 22.134766 C 21.774854 22.095474 21.865321 22.071285 21.951172 22.037109 C 21.951727 22.036854 21.95257 22.037364 21.953125 22.037109 C 22.542518 21.766309 23.154746 21.630672 23.787109 21.617188 C 23.748678 21.617163 23.712521 21.608474 23.673828 21.609375 z M 13.240234 21.638672 C 12.938688 21.612559 12.633187 21.616104 12.322266 21.648438 C 11.674514 21.713171 11.072692 21.895359 10.515625 22.193359 C 9.9585577 22.491293 9.473155 22.893171 9.0585938 23.398438 C 8.6310773 23.942571 8.332478 24.524684 8.1640625 25.146484 C 8.0086019 25.768351 7.9645215 26.389919 8.0292969 27.011719 C 8.1070271 27.620652 8.2938309 28.204652 8.5917969 28.761719 C 8.8897629 29.305785 9.278476 29.77149 9.7578125 30.160156 C 10.664666 30.898623 11.688082 31.267578 12.828125 31.267578 C 12.873712 31.266553 12.915756 31.256025 12.960938 31.253906 C 12.374775 31.234782 11.82206 31.112863 11.298828 30.894531 C 10.80339 30.726641 10.338762 30.481915 9.9140625 30.140625 L 9.9140625 30.019531 C 9.505001 29.658411 9.1559096 29.246141 8.890625 28.761719 C 8.592659 28.204719 8.405855 27.620719 8.328125 27.011719 C 8.2633496 26.389919 8.30743 25.768384 8.4628906 25.146484 C 8.6313061 24.524684 8.9299055 23.942638 9.3574219 23.398438 C 9.5282644 23.190242 9.7191004 23.01095 9.9140625 22.837891 L 9.9140625 22.736328 C 10.328624 22.399461 10.781146 22.146916 11.273438 21.978516 C 11.322995 21.961563 11.375697 21.954687 11.425781 21.939453 C 11.807317 21.799317 12.201296 21.690563 12.621094 21.648438 C 12.835633 21.62615 13.045734 21.637027 13.255859 21.642578 C 13.250512 21.642096 13.245585 21.639135 13.240234 21.638672 z M 24.347656 21.716797 C 24.254707 21.708942 24.158273 21.723137 24.064453 21.720703 C 24.366604 21.747193 24.664252 21.800046 24.957031 21.882812 C 25.565918 22.051213 26.117083 22.32813 26.609375 22.716797 L 26.609375 29.5 C 26.609375 29.7332 26.646879 29.933163 26.724609 30.101562 L 26.705078 30.101562 C 26.277561 30.451362 25.805311 30.723635 25.287109 30.917969 C 24.816564 31.082625 24.333748 31.16267 23.841797 31.177734 C 23.885974 31.179825 23.928222 31.188391 23.972656 31.189453 L 23.992188 31.189453 C 24.47482 31.189453 24.945907 31.107408 25.408203 30.964844 C 25.879425 30.781084 26.326594 30.524599 26.744141 30.179688 C 26.755339 30.206154 26.774957 30.226202 26.787109 30.251953 C 26.858237 30.199677 26.935102 30.157859 27.003906 30.101562 L 27.023438 30.101562 C 26.945704 29.933162 26.908203 29.7332 26.908203 29.5 L 26.908203 22.716797 C 26.81403 22.64244 26.707849 22.591588 26.609375 22.525391 L 26.609375 22.601562 C 26.326045 22.37831 26.023057 22.205874 25.710938 22.056641 C 25.559856 21.997823 25.414831 21.926779 25.255859 21.882812 C 24.957893 21.798813 24.655338 21.742797 24.347656 21.716797 z M 13.126953 21.726562 C 13.075611 21.726562 13.027444 21.736793 12.976562 21.738281 C 14.015513 21.768501 14.940987 22.100997 15.744141 22.755859 L 15.744141 29.441406 C 15.744141 29.648673 15.781645 29.848635 15.859375 30.042969 C 14.990355 30.77144 13.994196 31.136632 12.873047 31.146484 C 12.885954 31.147144 12.901692 31.150391 12.914062 31.150391 L 13.126953 31.150391 C 13.627142 31.150391 14.098565 31.067878 14.548828 30.925781 C 15.02666 30.739345 15.477934 30.481895 15.898438 30.140625 C 15.907822 30.162803 15.92354 30.179553 15.933594 30.201172 C 16.007551 30.145603 16.085984 30.103502 16.158203 30.042969 C 16.080469 29.848569 16.042969 29.648706 16.042969 29.441406 L 16.042969 22.755859 C 15.947029 22.677634 15.84347 22.620081 15.744141 22.550781 L 15.744141 22.621094 C 15.333171 22.307428 14.882458 22.083283 14.408203 21.914062 C 14.001203 21.799492 13.57701 21.726562 13.126953 21.726562 z M 34.703125 27.050781 L 34.537109 27.220703 L 37.746094 31.326172 L 38.044922 31.326172 L 34.703125 27.050781 z M 19.318359 29.441406 C 19.318359 29.907806 19.15786 30.309684 18.833984 30.646484 C 18.582111 30.898299 18.285369 31.057539 17.947266 31.128906 L 17.947266 31.169922 C 18.0632 31.163459 18.17606 31.147791 18.283203 31.123047 C 18.283743 31.122803 18.284617 31.123291 18.285156 31.123047 C 18.511292 31.020639 18.706664 30.893974 18.871094 30.742188 C 19.039509 30.573787 19.16908 30.380423 19.259766 30.160156 C 19.363406 29.939956 19.416016 29.70054 19.416016 29.441406 L 19.318359 29.441406 z M 30.183594 29.5 C 30.183594 29.9664 30.016518 30.366325 29.679688 30.703125 C 29.42956 30.953193 29.139912 31.112909 28.8125 31.185547 L 28.8125 31.228516 C 28.934559 31.221517 29.051385 31.202481 29.164062 31.173828 C 29.383902 31.072656 29.575494 30.94925 29.736328 30.800781 C 29.904744 30.632381 30.034315 30.439017 30.125 30.21875 C 30.228641 29.99855 30.28125 29.759133 30.28125 29.5 L 30.183594 29.5 z M 16.197266 30.140625 C 16.128716 30.196261 16.054448 30.23559 15.984375 30.287109 C 16.124859 30.552778 16.308225 30.782817 16.558594 30.957031 C 16.85656 31.164298 17.194617 31.267578 17.570312 31.267578 C 17.631187 31.267578 17.68879 31.255611 17.748047 31.25 C 17.422458 31.229255 17.121663 31.140868 16.857422 30.957031 C 16.559456 30.749731 16.339771 30.477425 16.197266 30.140625 z M 27.042969 30.179688 C 26.974819 30.235982 26.90161 30.276124 26.832031 30.328125 C 26.972459 30.594937 27.154374 30.830873 27.404297 31.015625 C 27.715218 31.222892 28.05985 31.326172 28.435547 31.326172 C 28.496421 31.326172 28.554025 31.3142 28.613281 31.308594 C 28.286008 31.287987 27.979123 31.199641 27.703125 31.015625 C 27.405159 30.795425 27.185474 30.516488 27.042969 30.179688 z "
       id="path4339"
       transform="translate(0,1004.3622)" />
  </g>
</svg>
