<?xml version="1.0" encoding="UTF-8" standalone="no"?>
<svg
   xmlns:dc="http://purl.org/dc/elements/1.1/"
   xmlns:cc="http://creativecommons.org/ns#"
   xmlns:rdf="http://www.w3.org/1999/02/22-rdf-syntax-ns#"
   xmlns:svg="http://www.w3.org/2000/svg"
   xmlns="http://www.w3.org/2000/svg"
   xmlns:xlink="http://www.w3.org/1999/xlink"
   xmlns:sodipodi="http://sodipodi.sourceforge.net/DTD/sodipodi-0.dtd"
   xmlns:inkscape="http://www.inkscape.org/namespaces/inkscape"
   width="48"
   viewBox="0 0 13.546667 13.546667"
   height="48"
   id="svg2"
   version="1.1"
   inkscape:version="0.48+devel r"
   sodipodi:docname="awn-applet-digital-clock.svg">
  <metadata
     id="metadata26">
    <rdf:RDF>
      <cc:Work
         rdf:about="">
        <dc:format>image/svg+xml</dc:format>
        <dc:type
           rdf:resource="http://purl.org/dc/dcmitype/StillImage" />
        <dc:title></dc:title>
      </cc:Work>
    </rdf:RDF>
  </metadata>
  <sodipodi:namedview
     pagecolor="#ffffff"
     bordercolor="#666666"
     borderopacity="1"
     objecttolerance="10"
     gridtolerance="10"
     guidetolerance="10"
     inkscape:pageopacity="0"
     inkscape:pageshadow="2"
     inkscape:window-width="1366"
     inkscape:window-height="666"
     id="namedview24"
     showgrid="false"
     inkscape:zoom="10.143026"
     inkscape:cx="0.045543199"
     inkscape:cy="22.84917"
     inkscape:window-x="-2"
     inkscape:window-y="25"
     inkscape:window-maximized="1"
     inkscape:current-layer="svg2">
    <inkscape:grid
       type="xygrid"
       id="grid3020" />
  </sodipodi:namedview>
  <defs
     id="defs4">
    <linearGradient
       id="linearGradient4164">
      <stop
         offset="0"
         style="stop-color:#c5ddf3;stop-opacity:1"
         id="stop4166" />
      <stop
         offset="1"
         style="stop-color:#f6fbfe;stop-opacity:1"
         id="stop4168" />
    </linearGradient>
    <linearGradient
       id="linearGradient3700-46-1-4">
      <stop
         id="stop3702-4-1-6"
         style="stop-color:#2276c5;stop-opacity:1"
         offset="0" />
      <stop
         id="stop3704-2-4-4"
         style="stop-color:#68baf4;stop-opacity:1"
         offset="1" />
    </linearGradient>
    <linearGradient
       gradientTransform="matrix(0.28222223,0,0,0.28222223,-74.667939,-197.49616)"
       gradientUnits="userSpaceOnUse"
       y2="728.87933"
       x2="302.72244"
       y1="698.57471"
       x1="274.54669"
       id="linearGradient1365"
       xlink:href="#linearGradient1378"
       inkscape:collect="always" />
    <linearGradient
       id="linearGradient1378"
       inkscape:collect="always">
      <stop
         id="stop1380"
         offset="0"
         style="stop-color:#ffffff;stop-opacity:0.26595744" />
      <stop
         id="stop1382"
         offset="1"
         style="stop-color:#ffffff;stop-opacity:0;" />
    </linearGradient>
    <linearGradient
       gradientTransform="matrix(0.29983645,0,0,0.29983645,-79.031335,-209.70591)"
       gradientUnits="userSpaceOnUse"
       y2="695.97229"
       x2="260.49445"
       y1="733.65088"
       x1="310.04129"
       id="linearGradient1384"
       xlink:href="#linearGradient1378"
       inkscape:collect="always" />
    <linearGradient
       inkscape:collect="always"
       xlink:href="#linearGradient3700-46-1-4"
       id="linearGradient4959"
       gradientUnits="userSpaceOnUse"
       gradientTransform="matrix(0.28222223,0,0,0.28222223,13.418502,283.53437)"
       x1="-13.025376"
       y1="-1052.8632"
       x2="-13.025376"
       y2="-1004.7695" />
    <linearGradient
       inkscape:collect="always"
       xlink:href="#linearGradient4164"
       id="linearGradient4204"
       x1="7.4290786"
       y1="9.5956211"
       x2="7.4290786"
       y2="3.9194717"
       gradientUnits="userSpaceOnUse" />
  </defs>
  <rect
     style="fill:url(#linearGradient4959);fill-opacity:1;stroke:none"
     id="rect2991-1-7"
     width="13.546667"
     height="13.546667"
     x="1.3608804e-06"
     y="-13.546662"
     ry="0.54879344"
     transform="scale(1,-1)" />
  <path
     inkscape:connector-curvature="0"
     style="fill:#000000;fill-opacity:0.70588235;stroke:none"
     d="m 1.1288889,12.417778 0,1.128889 11.2888891,0 0,-1.128889 -11.2888891,0 z"
     id="path4818" />
  <path
     style="opacity:0.5;fill:url(#linearGradient1365);fill-opacity:1;stroke:none"
     d="m 1.0230725e-8,3.3958388 0,6.6410282 C 2.8886057,8.0019878 6.8825445,6.5885907 9.9836114,5.7065333 6.7848321,4.6820102 3.0671782,3.9194739 1.0230725e-8,3.3958388 Z"
     id="path1357"
     inkscape:connector-curvature="0" />
  <path
     style="fill:#ffffff;fill-opacity:0.15204677;stroke:none"
     d="m 1.0230725e-8,3.3847838e-4 0,7.93750022162 C 4.2406244,4.9505446 10.869323,3.2874372 13.546667,2.7079221 l 0,-2.70758362162 -13.546666989769274,0 z"
     id="rect1340"
     inkscape:connector-curvature="0" />
  <path
     style="fill:url(#linearGradient1384);fill-opacity:1;stroke:none"
     d="m 1.0230725e-8,3.3847838e-4 0,7.15258372162 C 5.3181858,7.5498114 10.724064,9.0473954 13.546667,9.9310332 l 0,-4.2421388 -9.8601391,-5.68855592162 -3.686527889769275,0 z"
     id="path1376"
     inkscape:connector-curvature="0" />
  <path
     inkscape:connector-curvature="0"
     style="fill:#000000;fill-opacity:1;stroke:none"
     d="m -1.4008804e-6,12.7 0,0.299861 c 0,0.304038 0.2427732108804,0.546806 0.5468055708804,0.546806 l 12.45305583,0 c 0.304032,0 0.546806,-0.242768 0.546806,-0.546806 l 0,-0.299861 c 0,0.304038 -0.242774,0.546806 -0.546806,0.546806 l -12.45305583,0 C 0.24277181,13.246806 -1.4008804e-6,13.004038 -1.4008804e-6,12.7 Z"
     id="rect846-4" />
  <path
     inkscape:connector-curvature="0"
     style="fill:#ffffff;fill-opacity:0.5372549;stroke:none"
     d="m 0.71437362,0.18522226 c -0.25882319,0 -0.47163568,0.18048112 -0.52034724,0.42333335 0.0947166,-0.078994 0.21858394,-0.12347223 0.35277779,-0.12347223 l 12.45305583,0 c 0.134194,0 0.258061,0.0444782 0.352778,0.12347223 -0.04871,-0.24285223 -0.261524,-0.42333335 -0.520347,-0.42333335 l -12.11791738,0 z"
     id="path7515-8" />
  <path
     inkscape:connector-curvature="0"
     style="fill:#000000;fill-opacity:0.39215686;stroke:none"
     d="M 0.54680417,-1.88294e-7 C 0.24277181,-1.88294e-7 -1.4008804e-6,0.24276737 -1.4008804e-6,0.54680538 l 0,12.15319462 c 0,0.223915 0.1354723108804,0.40894 0.3263194508804,0.493889 -0.0873026,-0.09407 -0.14111111,-0.220811 -0.14111111,-0.361583 l 0,-12.11791706 c 0,-0.29582534 0.23336956,-0.52916668 0.52916668,-0.52916668 l 12.11791738,0 c 0.295797,0 0.529166,0.23334134 0.529166,0.52916668 l 0,12.11791706 c 0,0.140772 -0.05381,0.267518 -0.141111,0.361583 0.190847,-0.08495 0.32632,-0.269974 0.32632,-0.493889 l 0,-12.15319462 C 13.546666,0.24276737 13.303892,-1.88294e-7 12.99986,-1.88294e-7 l -12.45305583,0 z"
     id="rect4280-4" />
  <path
     style="fill:url(#linearGradient4204);fill-opacity:1;stroke:none"
     d="M 6.7733338,3.9511105 A 2.8222224,2.8222224 0 0 0 3.9511108,6.7733329 2.8222224,2.8222224 0 0 0 6.7733338,9.5955564 2.8222224,2.8222224 0 0 0 9.5955562,6.7733329 2.8222224,2.8222224 0 0 0 6.7733338,3.9511105 Z m 0,0.3762965 A 2.445926,2.445926 0 0 1 9.2192596,6.7733329 2.445926,2.445926 0 0 1 6.7733338,9.2192584 2.445926,2.445926 0 0 1 4.3274078,6.7733329 2.445926,2.445926 0 0 1 6.7733338,4.327407 Z m -0.188148,0.7525925 0,1.5051853 0,0.3762964 1.881482,0 0,-0.3762964 -1.505187,0 0,-1.5051853 -0.376295,0 z"
     id="path4093"
     inkscape:connector-curvature="0" />
</svg>
