<?xml version="1.0" encoding="UTF-8" standalone="no"?>
<!-- Created with Inkscape (http://www.inkscape.org/) -->

<svg
   xmlns:dc="http://purl.org/dc/elements/1.1/"
   xmlns:cc="http://creativecommons.org/ns#"
   xmlns:rdf="http://www.w3.org/1999/02/22-rdf-syntax-ns#"
   xmlns:svg="http://www.w3.org/2000/svg"
   xmlns="http://www.w3.org/2000/svg"
   xmlns:xlink="http://www.w3.org/1999/xlink"
   xmlns:sodipodi="http://sodipodi.sourceforge.net/DTD/sodipodi-0.dtd"
   xmlns:inkscape="http://www.inkscape.org/namespaces/inkscape"
   width="48"
   height="48"
   id="svg2"
   version="1.1"
   inkscape:version="0.48+devel r12487"
   sodipodi:docname="kdf.svg">
  <defs
     id="defs4">
    <linearGradient
       inkscape:collect="always"
       id="linearGradient4093">
      <stop
         style="stop-color:#94cf1f;stop-opacity:1"
         offset="0"
         id="stop4095" />
      <stop
         style="stop-color:#c8e62f;stop-opacity:1"
         offset="1"
         id="stop4097" />
    </linearGradient>
    <linearGradient
       inkscape:collect="always"
       id="linearGradient877">
      <stop
         style="stop-color:#0a8dd6;stop-opacity:1"
         offset="0"
         id="stop879" />
      <stop
         style="stop-color:#10b2e4;stop-opacity:1"
         offset="1"
         id="stop881" />
    </linearGradient>
    <linearGradient
       inkscape:collect="always"
       xlink:href="#linearGradient877"
       id="linearGradient883"
       x1="21.5"
       y1="-1052.3661"
       x2="21.5"
       y2="-1004.3544"
       gradientUnits="userSpaceOnUse" />
    <linearGradient
       inkscape:collect="always"
       xlink:href="#linearGradient4093"
       id="linearGradient4099"
       x1="25.19068"
       y1="1037.6013"
       x2="25.19068"
       y2="1019.3934"
       gradientUnits="userSpaceOnUse"
       gradientTransform="matrix(1,0,0,0.93947344,0,60.24329)" />
  </defs>
  <sodipodi:namedview
     id="base"
     pagecolor="#ffffff"
     bordercolor="#666666"
     borderopacity="1.0"
     inkscape:pageopacity="0.0"
     inkscape:pageshadow="2"
     inkscape:zoom="11.313709"
     inkscape:cx="28.051095"
     inkscape:cy="24.77528"
     inkscape:document-units="px"
     inkscape:current-layer="layer1"
     showgrid="false"
     inkscape:window-width="1366"
     inkscape:window-height="715"
     inkscape:window-x="0"
     inkscape:window-y="30"
     inkscape:window-maximized="1"
     showguides="false" />
  <metadata
     id="metadata7">
    <rdf:RDF>
      <cc:Work
         rdf:about="">
        <dc:format>image/svg+xml</dc:format>
        <dc:type
           rdf:resource="http://purl.org/dc/dcmitype/StillImage" />
        <dc:title />
      </cc:Work>
    </rdf:RDF>
  </metadata>
  <g
     inkscape:label="Capa 1"
     inkscape:groupmode="layer"
     id="layer1"
     transform="translate(0,-1004.3622)">
    <rect
       style="fill:url(#linearGradient883);fill-opacity:1;stroke:none"
       id="rect2991-1"
       width="48"
       height="48"
       x="0"
       y="-1052.3622"
       ry="1.9445436"
       transform="scale(1,-1)" />
    <path
       inkscape:connector-curvature="0"
       style="fill:#000000;fill-opacity:1;stroke:none"
       d="m 0,1049.3622 0,1.0625 c 0,1.0773 0.860223,1.9375 1.9375,1.9375 l 44.125,0 c 1.077277,0 1.9375,-0.8602 1.9375,-1.9375 l 0,-1.0625 c 0,1.0773 -0.860223,1.9375 -1.9375,1.9375 l -44.125,0 C 0.860223,1051.2997 0,1050.4395 0,1049.3622 Z"
       id="rect846" />
    <path
       inkscape:connector-curvature="0"
       style="fill:#ffffff;fill-opacity:0.5372549;stroke:none"
       d="m 2.53125,1005.0185 c -0.917089,0 -1.671147,0.6395 -1.84375,1.5 0.335612,-0.2799 0.774512,-0.4375 1.25,-0.4375 l 44.125,0 c 0.475488,0 0.914388,0.1576 1.25,0.4375 -0.172603,-0.8605 -0.926662,-1.5 -1.84375,-1.5 L 2.53125,1005.0185 Z"
       id="path7515" />
    <path
       inkscape:connector-curvature="0"
       style="fill:#000000;fill-opacity:0.39215686;stroke:none"
       d="m 1.9375,1004.3622 c -1.077277,0 -1.9375,0.8602 -1.9375,1.9375 l 0,43.0625 c 0,0.7934 0.480024,1.449 1.15625,1.75 -0.309342,-0.3333 -0.5,-0.7824 -0.5,-1.2812 l 0,-42.9375 c 0,-1.0482 0.826899,-1.875 1.875,-1.875 l 42.9375,0 c 1.048101,0 1.875,0.8268 1.875,1.875 l 0,42.9375 c 0,0.4988 -0.190658,0.9479 -0.5,1.2812 0.676226,-0.301 1.15625,-0.9566 1.15625,-1.75 l 0,-43.0625 c 0,-1.0773 -0.860223,-1.9375 -1.9375,-1.9375 L 1.9375,1004.3622 Z"
       id="rect4280" />
    <path
       inkscape:connector-curvature="0"
       style="fill:#000000;fill-opacity:0.05882353;stroke:none"
       d="m 13,1018.363 c -5.54,0 -10,4.46 -10,10 0,5.54 4.46,10 10,10 l 7.601562,0 3.398438,4.5332 3.398438,-4.5332 7.601562,0 c 5.54,0 10,-4.46 10,-10 0,-5.54 -4.46,-10 -10,-10 l -22,0 z"
       id="path4108" />
    <path
       id="path4106"
       d="m 13,1017.563 c -5.54,0 -10,4.46 -10,10 0,5.54 4.46,10 10,10 l 7.601562,0 3.398438,4.5332 3.398438,-4.5332 7.601562,0 c 5.54,0 10,-4.46 10,-10 0,-5.54 -4.46,-10 -10,-10 l -22,0 z"
       style="fill:#000000;fill-opacity:0.11764706;stroke:none"
       inkscape:connector-curvature="0" />
    <path
       style="fill:#000000;fill-opacity:0.23529412;stroke:none"
       d="m 13,1016.763 c -5.54,0 -10,4.46 -10,10 0,5.54 4.46,10 10,10 l 7.601562,0 3.398438,4.5332 3.398438,-4.5332 7.601562,0 c 5.54,0 10,-4.46 10,-10 0,-5.54 -4.46,-10 -10,-10 l -22,0 z"
       id="rect4083"
       inkscape:connector-curvature="0" />
    <path
       inkscape:connector-curvature="0"
       style="fill:#086186;fill-opacity:1;stroke:none"
       d="m 13,1016.3622 c -5.54,0 -10,4.46 -10,10 0,5.54 4.46,10 10,10 l 8,0 3,4 3,-4 8,0 c 5.54,0 10,-4.46 10,-10 0,-5.54 -4.46,-10 -10,-10 l -22,0 z"
       id="rect4076" />
    <path
       inkscape:connector-curvature="0"
       style="fill:#4b6802;fill-opacity:1;stroke:none"
       d="m 13.5,1016.8622 c -5.2630026,0 -9.5,4.237 -9.5,9.5 0,5.263 4.2369974,9.5 9.5,9.5 l 17.224609,0 0,-19 -17.224609,0 z"
       id="rect4101" />
    <path
       inkscape:connector-curvature="0"
       style="fill:url(#linearGradient4099);fill-opacity:1;stroke:none"
       d="m 13.5,1017.8622 c -4.7090005,0 -8.5,3.791 -8.5,8.5 0,4.709 3.7909995,8.5 8.5,8.5 l 16.125,0 0,-17 -16.125,0 z"
       id="rect4091" />
    <path
       inkscape:connector-curvature="0"
       style="fill:#000000;fill-opacity:0.05882353;stroke:none"
       d="m 14.201172,1017.8622 -7.6992189,13.334 c 0.2045072,0.2962 0.4322795,0.5727 0.671875,0.8398 l 8.1816409,-14.1738 -1.154297,0 z m 4,0 -9.1035158,15.7676 c 0.2847469,0.1723 0.5792192,0.3302 0.8847657,0.4687 l 9.3730471,-16.2363 -1.154297,0 z m 4,0 -9.773438,16.9258 c 0.352031,0.044 0.707913,0.074 1.072266,0.074 l 0.04102,0 9.814453,-17 -1.154297,0 z m 4,0 -9.814453,17 1.154297,0 9.814453,-17 -1.154297,0 z m -15.035156,0.3301 c -0.520072,0.1474 -1.018365,0.3436 -1.4921879,0.582 l -4.6503906,8.0567 c 0.029592,0.5458 0.1093213,1.0766 0.2363281,1.5898 l 5.9062504,-10.2285 z m 18.458984,0.666 -9.238281,16.0039 1.154297,0 8.083984,-14.002 0,-2.0019 z m 0,6.9297 -5.238281,9.0742 1.154297,0 4.083984,-7.0742 0,-2 z"
       id="rect4116" />
    <path
       inkscape:connector-curvature="0"
       style="fill:#ffffff;fill-opacity:0.23529412;stroke:none"
       d="m 13.5,1017.8622 c -4.7090005,0 -8.5,3.791 -8.5,8.5 0,0.1353 0.013343,0.2667 0.019531,0.4004 0.2087989,-4.5206 3.906441,-8.0996 8.480469,-8.0996 l 16.125,0 0,-0.8008 -16.125,0 z"
       id="path4136" />
  </g>
</svg>
