<?xml version="1.0" encoding="UTF-8" standalone="no"?>
<!-- Created with Inkscape (http://www.inkscape.org/) -->

<svg
   xmlns:dc="http://purl.org/dc/elements/1.1/"
   xmlns:cc="http://creativecommons.org/ns#"
   xmlns:rdf="http://www.w3.org/1999/02/22-rdf-syntax-ns#"
   xmlns:svg="http://www.w3.org/2000/svg"
   xmlns="http://www.w3.org/2000/svg"
   xmlns:xlink="http://www.w3.org/1999/xlink"
   xmlns:sodipodi="http://sodipodi.sourceforge.net/DTD/sodipodi-0.dtd"
   xmlns:inkscape="http://www.inkscape.org/namespaces/inkscape"
   width="48"
   height="48"
   id="svg5453"
   version="1.1"
   inkscape:version="0.91pre2 r"
   sodipodi:docname="Battle.net.svg">
  <defs
     id="defs5455">
    <linearGradient
       id="linearGradient5261"
       inkscape:collect="always">
      <stop
         id="stop5263"
         offset="0"
         style="stop-color:#1e6ccd;stop-opacity:1" />
      <stop
         id="stop5265"
         offset="1"
         style="stop-color:#2faff9;stop-opacity:1" />
    </linearGradient>
    <linearGradient
       gradientTransform="translate(384.57139,504.56412)"
       gradientUnits="userSpaceOnUse"
       y2="-1004.6837"
       x2="26.25"
       y1="-1052.5408"
       x1="26.25"
       id="linearGradient867-1"
       xlink:href="#linearGradient1373-2"
       inkscape:collect="always" />
    <linearGradient
       id="linearGradient1373-2"
       inkscape:collect="always">
      <stop
         id="stop1375-3"
         offset="0"
         style="stop-color:#282827;stop-opacity:1" />
      <stop
         id="stop1377-7"
         offset="1"
         style="stop-color:#292929;stop-opacity:1" />
    </linearGradient>
    <linearGradient
       inkscape:collect="always"
       xlink:href="#linearGradient5261"
       id="linearGradient4468"
       x1="410.60208"
       y1="539.198"
       x2="410.60208"
       y2="508.39801"
       gradientUnits="userSpaceOnUse" />
  </defs>
  <sodipodi:namedview
     id="base"
     pagecolor="#ffffff"
     bordercolor="#666666"
     borderopacity="1.0"
     inkscape:pageopacity="0"
     inkscape:pageshadow="2"
     inkscape:zoom="9.2087265"
     inkscape:cx="18.758076"
     inkscape:cy="25.946843"
     inkscape:document-units="px"
     inkscape:current-layer="layer1"
     showgrid="false"
     fit-margin-top="0"
     fit-margin-left="0"
     fit-margin-right="0"
     fit-margin-bottom="0"
     inkscape:window-width="1366"
     inkscape:window-height="672"
     inkscape:window-x="-4"
     inkscape:window-y="25"
     inkscape:window-maximized="1"
     inkscape:showpageshadow="false"
     borderlayer="true">
    <sodipodi:guide
       position="8.5999872,8.600002"
       orientation="-30.799988,0"
       id="guide4210" />
    <sodipodi:guide
       position="8.5999872,39.39999"
       orientation="0,30.799988"
       id="guide4212" />
    <sodipodi:guide
       position="39.399975,39.39999"
       orientation="30.799988,0"
       id="guide4214" />
    <sodipodi:guide
       position="39.399975,8.600002"
       orientation="0,-30.799988"
       id="guide4216" />
    <sodipodi:guide
       position="8.5999872,15.600002"
       orientation="7,0"
       id="guide4281" />
    <sodipodi:guide
       position="8.5999872,8.600002"
       orientation="0,30.799988"
       id="guide4283" />
    <sodipodi:guide
       position="39.399975,8.600002"
       orientation="-7,0"
       id="guide4285" />
    <sodipodi:guide
       position="39.399975,15.600002"
       orientation="0,-30.799988"
       id="guide4287" />
    <sodipodi:guide
       position="8.5999872,39.39999"
       orientation="7,0"
       id="guide4289" />
    <sodipodi:guide
       position="8.5999872,32.39999"
       orientation="0,30.799988"
       id="guide4291" />
    <sodipodi:guide
       position="39.399975,32.39999"
       orientation="-7,0"
       id="guide4293" />
    <sodipodi:guide
       position="39.399975,39.39999"
       orientation="0,-30.799988"
       id="guide4295" />
    <sodipodi:guide
       position="30.400036,39.39999"
       orientation="30.799988,0"
       id="guide4321" />
    <sodipodi:guide
       position="30.400036,8.600002"
       orientation="0,9"
       id="guide4323" />
    <sodipodi:guide
       position="39.400036,8.600002"
       orientation="-30.799988,0"
       id="guide4325" />
    <sodipodi:guide
       position="39.400036,39.39999"
       orientation="0,-9"
       id="guide4327" />
    <sodipodi:guide
       position="30.400036,11.600002"
       orientation="3,0"
       id="guide4333" />
    <sodipodi:guide
       position="30.400036,8.600002"
       orientation="0,9"
       id="guide4335" />
    <sodipodi:guide
       position="39.400036,8.600002"
       orientation="-3,0"
       id="guide4337" />
    <sodipodi:guide
       position="39.400036,11.600002"
       orientation="0,-9"
       id="guide4339" />
    <sodipodi:guide
       position="11.000012,39.39999"
       orientation="30.799988,0"
       id="guide4345" />
    <sodipodi:guide
       position="11.000012,8.600002"
       orientation="0,26"
       id="guide4347" />
    <sodipodi:guide
       position="37.000012,8.600002"
       orientation="-30.799988,0"
       id="guide4349" />
    <sodipodi:guide
       position="37.000012,39.39999"
       orientation="0,-26"
       id="guide4351" />
    <sodipodi:guide
       position="17.000012,27.499965"
       orientation="7,0"
       id="guide4379" />
    <sodipodi:guide
       position="17.000012,20.499965"
       orientation="0,6"
       id="guide4381" />
    <sodipodi:guide
       position="23.000012,20.499965"
       orientation="-7,0"
       id="guide4383" />
    <sodipodi:guide
       position="23.000012,27.499965"
       orientation="0,-6"
       id="guide4385" />
    <sodipodi:guide
       position="17.000012,29.499965"
       orientation="11,0"
       id="guide4387" />
    <sodipodi:guide
       position="17.000012,18.499965"
       orientation="0,7"
       id="guide4389" />
    <sodipodi:guide
       position="24.000012,18.499965"
       orientation="-11,0"
       id="guide4391" />
    <sodipodi:guide
       position="24.000012,29.499965"
       orientation="0,-7"
       id="guide4393" />
    <sodipodi:guide
       position="30.400036,39.39999"
       orientation="3,0"
       id="guide4399" />
    <sodipodi:guide
       position="30.400036,36.39999"
       orientation="0,6.5999756"
       id="guide4401" />
    <sodipodi:guide
       position="37.000012,36.39999"
       orientation="-3,0"
       id="guide4403" />
    <sodipodi:guide
       position="37.000012,39.39999"
       orientation="0,-6.5999756"
       id="guide4405" />
    <sodipodi:guide
       position="17.000012,29.499965"
       orientation="11,0"
       id="guide4421" />
    <sodipodi:guide
       position="17.000012,18.499965"
       orientation="0,3"
       id="guide4423" />
    <sodipodi:guide
       position="20.000012,18.499965"
       orientation="-11,0"
       id="guide4425" />
    <sodipodi:guide
       position="20.000012,29.499965"
       orientation="0,-3"
       id="guide4427" />
    <sodipodi:guide
       position="23.000012,28.500148"
       orientation="1,0"
       id="guide4435" />
    <sodipodi:guide
       position="23.000012,27.500148"
       orientation="0,1"
       id="guide4437" />
    <sodipodi:guide
       position="24.000012,27.500148"
       orientation="-1,0"
       id="guide4439" />
    <sodipodi:guide
       position="24.000012,28.500148"
       orientation="0,-1"
       id="guide4441" />
  </sodipodi:namedview>
  <metadata
     id="metadata5458">
    <rdf:RDF>
      <cc:Work
         rdf:about="">
        <dc:format>image/svg+xml</dc:format>
        <dc:type
           rdf:resource="http://purl.org/dc/dcmitype/StillImage" />
        <dc:title />
      </cc:Work>
    </rdf:RDF>
  </metadata>
  <g
     inkscape:label="Capa 1"
     inkscape:groupmode="layer"
     id="layer1"
     transform="translate(-384.57143,-499.798)">
    <rect
       transform="scale(1,-1)"
       ry="1.9445436"
       y="-547.79797"
       x="384.57144"
       height="48"
       width="48"
       id="rect2991-1-0"
       style="fill:url(#linearGradient867-1);fill-opacity:1;stroke:none" />
    <path
       inkscape:connector-curvature="0"
       style="fill:#000000;fill-opacity:1;stroke:none"
       d="m 384.57143,544.79799 0,1.0625 c 0,1.0773 0.86022,1.9375 1.9375,1.9375 l 44.125,0 c 1.07728,0 1.9375,-0.8602 1.9375,-1.9375 l 0,-1.0625 c 0,1.0773 -0.86022,1.9375 -1.9375,1.9375 l -44.125,0 C 385.43165,546.73549 384.57143,545.87529 384.57143,544.79799 Z"
       id="rect846" />
    <path
       inkscape:connector-curvature="0"
       style="fill:#ffffff;fill-opacity:0.5372549;stroke:none"
       d="m 387.10268,500.45429 c -0.91709,0 -1.67115,0.6395 -1.84375,1.5 0.33561,-0.2799 0.77451,-0.4375 1.25,-0.4375 l 44.125,0 c 0.47549,0 0.91439,0.1576 1.25,0.4375 -0.1726,-0.8605 -0.92666,-1.5 -1.84375,-1.5 L 387.10268,500.45429 Z"
       id="path7515" />
    <path
       inkscape:connector-curvature="0"
       style="fill:#000000;fill-opacity:0.39215686;stroke:none"
       d="m 386.50893,499.79799 c -1.07728,0 -1.9375,0.8602 -1.9375,1.9375 l 0,43.0625 c 0,0.7934 0.48002,1.449 1.15625,1.75 -0.30934,-0.3333 -0.5,-0.7824 -0.5,-1.2812 l 0,-42.9375 c 0,-1.0482 0.8269,-1.875 1.875,-1.875 l 42.9375,0 c 1.0481,0 1.875,0.8268 1.875,1.875 l 0,42.9375 c 0,0.4988 -0.19066,0.9479 -0.5,1.2812 0.67623,-0.301 1.15625,-0.9566 1.15625,-1.75 l 0,-43.0625 c 0,-1.0773 -0.86022,-1.9375 -1.9375,-1.9375 L 386.50893,499.79799 Z"
       id="rect4280" />
    <g
       id="g4240"
       transform="translate(435.95803,500.26304)" />
    <path
       inkscape:connector-curvature="0"
       id="path4477"
       d="m 406.17578,509.60801 c -1.62944,0.24653 -2.45736,2.43296 -2.54422,5.57539 -0.52512,-0.78069 -1.16587,-1.34116 -1.9301,-1.24093 -1.37297,0.25302 -1.9608,2.24244 -1.87244,4.77819 -2.35649,0.15295 -4.62618,0.57841 -6.65759,1.37129 2.05228,-0.37346 4.35658,-0.45543 6.72026,-0.35098 0.17954,1.7557 0.65633,3.67674 1.41875,5.46258 -1.75326,2.32997 -4.16006,6.68279 -2.60439,8.9447 1.06187,1.35746 3.5383,0.90066 6.48463,-0.74456 -0.57524,1.00603 -0.88969,2.04489 -0.32335,2.76263 0.89787,1.02611 2.83081,0.56272 4.90044,-0.73202 1.27546,1.91327 2.73441,3.62354 4.38409,4.9637 -1.30295,-1.55938 -2.48549,-3.46443 -3.54436,-5.51022 1.4707,-1.06678 2.93927,-2.52025 4.12589,-4.15396 2.87926,0.32459 7.95648,0.18281 9.10907,-2.34397 0.59205,-1.53732 -0.89746,-3.33849 -3.58197,-4.96871 1.01963,-0.0296 1.91245,-0.29184 2.23341,-1.05291 0.4758,-1.30364 -0.91655,-2.80787 -3.11574,-4.01358 1.04501,-2.06284 1.81936,-4.18768 2.17575,-6.29738 -0.72127,1.91397 -1.80038,3.89392 -3.0681,5.83359 -1.70422,-0.79091 -3.75306,-1.37335 -5.81036,-1.59941 -1.16227,-2.6757 -3.76793,-6.92681 -6.49967,-6.68344 z m 15.37813,2.44926 c 0.001,-0.004 0.004,-0.009 0.005,-0.0128 l -0.003,0 c -7e-4,0.004 -10e-4,0.009 -0.003,0.0128 z m -13.5884,1.06294 c 1.12531,0.0128 2.26694,1.68868 3.44911,3.05593 -2.04892,-0.0651 -4.01454,0.29673 -5.55217,1.25095 0.0886,-2.22213 0.62512,-3.83903 1.76717,-4.25925 0.11242,-0.0345 0.22324,-0.0489 0.33589,-0.0476 z m -5.31905,2.75259 c 0.33322,0.0348 0.66601,0.31525 0.99513,0.68188 0.0244,0.68538 0.0787,1.40587 0.16294,2.15094 -0.7791,-0.045 -1.554,-0.0558 -2.32615,-0.0476 0.0471,-1.42095 0.33135,-2.48027 0.82969,-2.73003 0.11281,-0.0495 0.22605,-0.0669 0.33839,-0.0552 z m 8.29191,1.47406 c 0.70236,0.0354 1.40575,0.14607 2.10055,0.28579 0.0629,0.0339 0.12474,0.0906 0.18799,0.11784 -0.006,-0.0231 -0.023,-0.0611 -0.03,-0.0852 1.61539,0.34168 3.13753,0.91239 4.38158,1.56181 -0.42483,0.59861 -0.87023,1.17914 -1.32601,1.75985 -0.6281,-0.9806 -1.58428,-1.88356 -2.9578,-2.65482 1.13694,0.93178 1.9003,1.91517 2.36875,2.91555 -2.68875,-1.0084 -5.79705,-1.8145 -9.00128,-2.23367 0,0 -0.14028,1.50242 -0.0902,1.41641 l 0,0.003 c 3.67921,0.72846 7.16557,1.89349 9.67304,3.22891 0.14659,3.95918 -3.39324,7.81516 -6.35929,9.76695 -0.29894,-0.6366 -0.57647,-1.27943 -0.84724,-1.93283 1.12131,-0.062 2.33314,-0.41661 3.63962,-1.16822 -1.39629,0.5042 -2.63837,0.64964 -3.7449,0.53147 2.27298,-1.8044 4.59345,-4.09008 6.6225,-6.6634 0,0 -1.21162,-0.88888 -1.16558,-0.80221 -2.55155,2.82681 -5.3815,5.24357 -7.83821,6.70601 -2.10281,-1.17952 -3.46505,-3.51151 -4.24873,-5.95644 -0.003,-0.0468 0.0128,-0.10243 0.008,-0.14791 -0.0115,0.0115 -0.0285,0.0332 -0.04,0.0452 -0.45364,-1.44735 -0.70257,-2.90809 -0.77454,-4.2041 0.68356,0.0563 1.36178,0.13812 2.04541,0.22562 -0.43782,0.95328 -0.70156,2.09553 -0.71439,3.47961 0.23981,-1.28836 0.66047,-2.3267 1.20818,-3.17126 0.45957,2.80935 1.29343,5.87447 2.49911,8.83188 0,0 1.37347,-0.62673 1.27337,-0.62673 l 0.003,-0.005 c -1.19187,-3.57282 -1.90597,-7.1921 -1.98273,-10.03771 1.46007,-0.96641 3.26823,-1.27873 5.111,-1.18578 z m 7.65271,2.4618 c 1.17457,0.75372 1.92596,1.52741 1.88749,2.07824 -0.0629,0.53212 -0.68033,0.73348 -1.41374,0.86238 -0.55707,-0.29173 -1.15355,-0.57433 -1.7797,-0.84734 0.46457,-0.68517 0.89686,-1.38443 1.30595,-2.09328 z m -1.38366,4.44227 c 1.88751,1.17682 3.02919,2.4429 2.82998,3.64756 -0.29241,1.29077 -2.65228,1.42177 -4.62973,1.83256 1.09233,-1.75659 1.81305,-3.65504 1.79975,-5.48012 z m -15.36308,2.08074 c 0.93503,1.80591 2.16817,3.3743 3.70729,4.29686 -1.92888,0.97284 -3.55631,1.27442 -4.4693,0.50139 -0.94015,-0.89339 0.095,-2.91938 0.76201,-4.79825 z m 5.83291,5.47762 c 0.37486,0.75858 0.78316,1.4957 1.20819,2.21612 -1.18109,0.63025 -2.1769,0.89611 -2.62945,0.60667 -0.4785,-0.34073 -0.28473,-1.07573 0.003,-1.86264 0.46633,-0.29439 0.93874,-0.61474 1.41875,-0.96015 z"
       style="fill:#000000;fill-opacity:0.05882353;fill-rule:nonzero;stroke:none" />
    <path
       style="fill:#000000;fill-opacity:0.11764706;fill-rule:nonzero;stroke:none"
       d="m 406.17578,509.20801 c -1.62944,0.24653 -2.45736,2.43296 -2.54422,5.57539 -0.52512,-0.78069 -1.16587,-1.34116 -1.9301,-1.24093 -1.37297,0.25302 -1.9608,2.24244 -1.87244,4.77819 -2.35649,0.15295 -4.62618,0.57841 -6.65759,1.37129 2.05228,-0.37346 4.35658,-0.45543 6.72026,-0.35098 0.17954,1.7557 0.65633,3.67674 1.41875,5.46258 -1.75326,2.32997 -4.16006,6.68279 -2.60439,8.9447 1.06187,1.35746 3.5383,0.90066 6.48463,-0.74456 -0.57524,1.00603 -0.88969,2.04489 -0.32335,2.76263 0.89787,1.02611 2.83081,0.56272 4.90044,-0.73202 1.27546,1.91327 2.73441,3.62354 4.38409,4.9637 -1.30295,-1.55938 -2.48549,-3.46443 -3.54436,-5.51022 1.4707,-1.06678 2.93927,-2.52025 4.12589,-4.15396 2.87926,0.32459 7.95648,0.18281 9.10907,-2.34397 0.59205,-1.53732 -0.89746,-3.33849 -3.58197,-4.96871 1.01963,-0.0296 1.91245,-0.29184 2.23341,-1.05291 0.4758,-1.30364 -0.91655,-2.80787 -3.11574,-4.01358 1.04501,-2.06284 1.81936,-4.18768 2.17575,-6.29738 -0.72127,1.91397 -1.80038,3.89392 -3.0681,5.83359 -1.70422,-0.79091 -3.75306,-1.37335 -5.81036,-1.59941 -1.16227,-2.6757 -3.76793,-6.92681 -6.49967,-6.68344 z m 15.37813,2.44926 c 0.001,-0.004 0.004,-0.009 0.005,-0.0128 l -0.003,0 c -7e-4,0.004 -10e-4,0.009 -0.003,0.0128 z m -13.5884,1.06294 c 1.12531,0.0128 2.26694,1.68868 3.44911,3.05593 -2.04892,-0.0651 -4.01454,0.29673 -5.55217,1.25095 0.0886,-2.22213 0.62512,-3.83903 1.76717,-4.25925 0.11242,-0.0345 0.22324,-0.0489 0.33589,-0.0476 z m -5.31905,2.75259 c 0.33322,0.0348 0.66601,0.31525 0.99513,0.68188 0.0244,0.68538 0.0787,1.40587 0.16294,2.15094 -0.7791,-0.045 -1.554,-0.0558 -2.32615,-0.0476 0.0471,-1.42095 0.33135,-2.48027 0.82969,-2.73003 0.11281,-0.0495 0.22605,-0.0669 0.33839,-0.0552 z m 8.29191,1.47406 c 0.70236,0.0354 1.40575,0.14607 2.10055,0.28579 0.0629,0.0339 0.12474,0.0906 0.18799,0.11784 -0.006,-0.0231 -0.023,-0.0611 -0.03,-0.0852 1.61539,0.34168 3.13753,0.91239 4.38158,1.56181 -0.42483,0.59861 -0.87023,1.17914 -1.32601,1.75985 -0.6281,-0.9806 -1.58428,-1.88356 -2.9578,-2.65482 1.13694,0.93178 1.9003,1.91517 2.36875,2.91555 -2.68875,-1.0084 -5.79705,-1.8145 -9.00128,-2.23367 0,0 -0.14028,1.50242 -0.0902,1.41641 l 0,0.003 c 3.67921,0.72846 7.16557,1.89349 9.67304,3.22891 0.14659,3.95918 -3.39324,7.81516 -6.35929,9.76695 -0.29894,-0.6366 -0.57647,-1.27943 -0.84724,-1.93283 1.12131,-0.062 2.33314,-0.41661 3.63962,-1.16822 -1.39629,0.5042 -2.63837,0.64964 -3.7449,0.53147 2.27298,-1.8044 4.59345,-4.09008 6.6225,-6.6634 0,0 -1.21162,-0.88888 -1.16558,-0.80221 -2.55155,2.82681 -5.3815,5.24357 -7.83821,6.70601 -2.10281,-1.17952 -3.46505,-3.51151 -4.24873,-5.95644 -0.003,-0.0468 0.0128,-0.10243 0.008,-0.14791 -0.0115,0.0115 -0.0285,0.0332 -0.04,0.0452 -0.45364,-1.44735 -0.70257,-2.90809 -0.77454,-4.2041 0.68356,0.0563 1.36178,0.13812 2.04541,0.22562 -0.43782,0.95328 -0.70156,2.09553 -0.71439,3.47961 0.23981,-1.28836 0.66047,-2.3267 1.20818,-3.17126 0.45957,2.80935 1.29343,5.87447 2.49911,8.83188 0,0 1.37347,-0.62673 1.27337,-0.62673 l 0.003,-0.005 c -1.19187,-3.57282 -1.90597,-7.1921 -1.98273,-10.03771 1.46007,-0.96641 3.26823,-1.27873 5.111,-1.18578 z m 7.65271,2.4618 c 1.17457,0.75372 1.92596,1.52741 1.88749,2.07824 -0.0629,0.53212 -0.68033,0.73348 -1.41374,0.86238 -0.55707,-0.29173 -1.15355,-0.57433 -1.7797,-0.84734 0.46457,-0.68517 0.89686,-1.38443 1.30595,-2.09328 z m -1.38366,4.44227 c 1.88751,1.17682 3.02919,2.4429 2.82998,3.64756 -0.29241,1.29077 -2.65228,1.42177 -4.62973,1.83256 1.09233,-1.75659 1.81305,-3.65504 1.79975,-5.48012 z m -15.36308,2.08074 c 0.93503,1.80591 2.16817,3.3743 3.70729,4.29686 -1.92888,0.97284 -3.55631,1.27442 -4.4693,0.50139 -0.94015,-0.89339 0.095,-2.91938 0.76201,-4.79825 z m 5.83291,5.47762 c 0.37486,0.75858 0.78316,1.4957 1.20819,2.21612 -1.18109,0.63025 -2.1769,0.89611 -2.62945,0.60667 -0.4785,-0.34073 -0.28473,-1.07573 0.003,-1.86264 0.46633,-0.29439 0.93874,-0.61474 1.41875,-0.96015 z"
       id="path4475"
       inkscape:connector-curvature="0" />
    <path
       inkscape:connector-curvature="0"
       id="path4470"
       d="m 406.17578,508.80801 c -1.62944,0.24653 -2.45736,2.43296 -2.54422,5.57539 -0.52512,-0.78069 -1.16587,-1.34116 -1.9301,-1.24093 -1.37297,0.25302 -1.9608,2.24244 -1.87244,4.77819 -2.35649,0.15295 -4.62618,0.57841 -6.65759,1.37129 2.05228,-0.37346 4.35658,-0.45543 6.72026,-0.35098 0.17954,1.7557 0.65633,3.67674 1.41875,5.46258 -1.75326,2.32997 -4.16006,6.68279 -2.60439,8.9447 1.06187,1.35746 3.5383,0.90066 6.48463,-0.74456 -0.57524,1.00603 -0.88969,2.04489 -0.32335,2.76263 0.89787,1.02611 2.83081,0.56272 4.90044,-0.73202 1.27546,1.91327 2.73441,3.62354 4.38409,4.9637 -1.30295,-1.55938 -2.48549,-3.46443 -3.54436,-5.51022 1.4707,-1.06678 2.93927,-2.52025 4.12589,-4.15396 2.87926,0.32459 7.95648,0.18281 9.10907,-2.34397 0.59205,-1.53732 -0.89746,-3.33849 -3.58197,-4.96871 1.01963,-0.0296 1.91245,-0.29184 2.23341,-1.05291 0.4758,-1.30364 -0.91655,-2.80787 -3.11574,-4.01358 1.04501,-2.06284 1.81936,-4.18768 2.17575,-6.29738 -0.72127,1.91397 -1.80038,3.89392 -3.0681,5.83359 -1.70422,-0.79091 -3.75306,-1.37335 -5.81036,-1.59941 -1.16227,-2.6757 -3.76793,-6.92681 -6.49967,-6.68344 z m 15.37813,2.44926 c 0.001,-0.004 0.004,-0.009 0.005,-0.0128 l -0.003,0 c -7e-4,0.004 -10e-4,0.009 -0.003,0.0128 z m -13.5884,1.06294 c 1.12531,0.0128 2.26694,1.68868 3.44911,3.05593 -2.04892,-0.0651 -4.01454,0.29673 -5.55217,1.25095 0.0886,-2.22213 0.62512,-3.83903 1.76717,-4.25925 0.11242,-0.0345 0.22324,-0.0489 0.33589,-0.0476 z m -5.31905,2.75259 c 0.33322,0.0348 0.66601,0.31525 0.99513,0.68188 0.0244,0.68538 0.0787,1.40587 0.16294,2.15094 -0.7791,-0.045 -1.554,-0.0558 -2.32615,-0.0476 0.0471,-1.42095 0.33135,-2.48027 0.82969,-2.73003 0.11281,-0.0495 0.22605,-0.0669 0.33839,-0.0552 z m 8.29191,1.47406 c 0.70236,0.0354 1.40575,0.14607 2.10055,0.28579 0.0629,0.0339 0.12474,0.0906 0.18799,0.11784 -0.006,-0.0231 -0.023,-0.0611 -0.03,-0.0852 1.61539,0.34168 3.13753,0.91239 4.38158,1.56181 -0.42483,0.59861 -0.87023,1.17914 -1.32601,1.75985 -0.6281,-0.9806 -1.58428,-1.88356 -2.9578,-2.65482 1.13694,0.93178 1.9003,1.91517 2.36875,2.91555 -2.68875,-1.0084 -5.79705,-1.8145 -9.00128,-2.23367 0,0 -0.14028,1.50242 -0.0902,1.41641 l 0,0.003 c 3.67921,0.72846 7.16557,1.89349 9.67304,3.22891 0.14659,3.95918 -3.39324,7.81516 -6.35929,9.76695 -0.29894,-0.6366 -0.57647,-1.27943 -0.84724,-1.93283 1.12131,-0.062 2.33314,-0.41661 3.63962,-1.16822 -1.39629,0.5042 -2.63837,0.64964 -3.7449,0.53147 2.27298,-1.8044 4.59345,-4.09008 6.6225,-6.6634 0,0 -1.21162,-0.88888 -1.16558,-0.80221 -2.55155,2.82681 -5.3815,5.24357 -7.83821,6.70601 -2.10281,-1.17952 -3.46505,-3.51151 -4.24873,-5.95644 -0.003,-0.0468 0.0128,-0.10243 0.008,-0.14791 -0.0115,0.0115 -0.0285,0.0332 -0.04,0.0452 -0.45364,-1.44735 -0.70257,-2.90809 -0.77454,-4.2041 0.68356,0.0563 1.36178,0.13812 2.04541,0.22562 -0.43782,0.95328 -0.70156,2.09553 -0.71439,3.47961 0.23981,-1.28836 0.66047,-2.3267 1.20818,-3.17126 0.45957,2.80935 1.29343,5.87447 2.49911,8.83188 0,0 1.37347,-0.62673 1.27337,-0.62673 l 0.003,-0.005 c -1.19187,-3.57282 -1.90597,-7.1921 -1.98273,-10.03771 1.46007,-0.96641 3.26823,-1.27873 5.111,-1.18578 z m 7.65271,2.4618 c 1.17457,0.75372 1.92596,1.52741 1.88749,2.07824 -0.0629,0.53212 -0.68033,0.73348 -1.41374,0.86238 -0.55707,-0.29173 -1.15355,-0.57433 -1.7797,-0.84734 0.46457,-0.68517 0.89686,-1.38443 1.30595,-2.09328 z m -1.38366,4.44227 c 1.88751,1.17682 3.02919,2.4429 2.82998,3.64756 -0.29241,1.29077 -2.65228,1.42177 -4.62973,1.83256 1.09233,-1.75659 1.81305,-3.65504 1.79975,-5.48012 z m -15.36308,2.08074 c 0.93503,1.80591 2.16817,3.3743 3.70729,4.29686 -1.92888,0.97284 -3.55631,1.27442 -4.4693,0.50139 -0.94015,-0.89339 0.095,-2.91938 0.76201,-4.79825 z m 5.83291,5.47762 c 0.37486,0.75858 0.78316,1.4957 1.20819,2.21612 -1.18109,0.63025 -2.1769,0.89611 -2.62945,0.60667 -0.4785,-0.34073 -0.28473,-1.07573 0.003,-1.86264 0.46633,-0.29439 0.93874,-0.61474 1.41875,-0.96015 z"
       style="fill:#000000;fill-opacity:0.23529412;fill-rule:nonzero;stroke:none" />
    <path
       style="fill:url(#linearGradient4468);fill-opacity:1;fill-rule:nonzero;stroke:none"
       d="m 406.17578,508.40801 c -1.62944,0.24653 -2.45736,2.43296 -2.54422,5.57539 -0.52512,-0.78069 -1.16587,-1.34116 -1.9301,-1.24093 -1.37297,0.25302 -1.9608,2.24244 -1.87244,4.77819 -2.35649,0.15295 -4.62618,0.57841 -6.65759,1.37129 2.05228,-0.37346 4.35658,-0.45543 6.72026,-0.35098 0.17954,1.7557 0.65633,3.67674 1.41875,5.46258 -1.75326,2.32997 -4.16006,6.68279 -2.60439,8.9447 1.06187,1.35746 3.5383,0.90066 6.48463,-0.74456 -0.57524,1.00603 -0.88969,2.04489 -0.32335,2.76263 0.89787,1.02611 2.83081,0.56272 4.90044,-0.73202 1.27546,1.91327 2.73441,3.62354 4.38409,4.9637 -1.30295,-1.55938 -2.48549,-3.46443 -3.54436,-5.51022 1.4707,-1.06678 2.93927,-2.52025 4.12589,-4.15396 2.87926,0.32459 7.95648,0.18281 9.10907,-2.34397 0.59205,-1.53732 -0.89746,-3.33849 -3.58197,-4.96871 1.01963,-0.0296 1.91245,-0.29184 2.23341,-1.05291 0.4758,-1.30364 -0.91655,-2.80787 -3.11574,-4.01358 1.04501,-2.06284 1.81936,-4.18768 2.17575,-6.29738 -0.72127,1.91397 -1.80038,3.89392 -3.0681,5.83359 -1.70422,-0.79091 -3.75306,-1.37335 -5.81036,-1.59941 -1.16227,-2.6757 -3.76793,-6.92681 -6.49967,-6.68344 z m 15.37813,2.44926 c 0.001,-0.004 0.004,-0.009 0.005,-0.0128 l -0.003,0 c -7e-4,0.004 -10e-4,0.009 -0.003,0.0128 z m -13.5884,1.06294 c 1.12531,0.0128 2.26694,1.68868 3.44911,3.05593 -2.04892,-0.0651 -4.01454,0.29673 -5.55217,1.25095 0.0886,-2.22213 0.62512,-3.83903 1.76717,-4.25925 0.11242,-0.0345 0.22324,-0.0489 0.33589,-0.0476 z m -5.31905,2.75259 c 0.33322,0.0348 0.66601,0.31525 0.99513,0.68188 0.0244,0.68538 0.0787,1.40587 0.16294,2.15094 -0.7791,-0.045 -1.554,-0.0558 -2.32615,-0.0476 0.0471,-1.42095 0.33135,-2.48027 0.82969,-2.73003 0.11281,-0.0495 0.22605,-0.0669 0.33839,-0.0552 z m 8.29191,1.47406 c 0.70236,0.0354 1.40575,0.14607 2.10055,0.28579 0.0629,0.0339 0.12474,0.0906 0.18799,0.11784 -0.006,-0.0231 -0.023,-0.0611 -0.03,-0.0852 1.61539,0.34168 3.13753,0.91239 4.38158,1.56181 -0.42483,0.59861 -0.87023,1.17914 -1.32601,1.75985 -0.6281,-0.9806 -1.58428,-1.88356 -2.9578,-2.65482 1.13694,0.93178 1.9003,1.91517 2.36875,2.91555 -2.68875,-1.0084 -5.79705,-1.8145 -9.00128,-2.23367 0,0 -0.14028,1.50242 -0.0902,1.41641 l 0,0.003 c 3.67921,0.72846 7.16557,1.89349 9.67304,3.22891 0.14659,3.95918 -3.39324,7.81516 -6.35929,9.76695 -0.29894,-0.6366 -0.57647,-1.27943 -0.84724,-1.93283 1.12131,-0.062 2.33314,-0.41661 3.63962,-1.16822 -1.39629,0.5042 -2.63837,0.64964 -3.7449,0.53147 2.27298,-1.8044 4.59345,-4.09008 6.6225,-6.6634 0,0 -1.21162,-0.88888 -1.16558,-0.80221 -2.55155,2.82681 -5.3815,5.24357 -7.83821,6.70601 -2.10281,-1.17952 -3.46505,-3.51151 -4.24873,-5.95644 -0.003,-0.0468 0.0128,-0.10243 0.008,-0.14791 -0.0115,0.0115 -0.0285,0.0332 -0.04,0.0452 -0.45364,-1.44735 -0.70257,-2.90809 -0.77454,-4.2041 0.68356,0.0563 1.36178,0.13812 2.04541,0.22562 -0.43782,0.95328 -0.70156,2.09553 -0.71439,3.47961 0.23981,-1.28836 0.66047,-2.3267 1.20818,-3.17126 0.45957,2.80935 1.29343,5.87447 2.49911,8.83188 0,0 1.37347,-0.62673 1.27337,-0.62673 l 0.003,-0.005 c -1.19187,-3.57282 -1.90597,-7.1921 -1.98273,-10.03771 1.46007,-0.96641 3.26823,-1.27873 5.111,-1.18578 z m 7.65271,2.4618 c 1.17457,0.75372 1.92596,1.52741 1.88749,2.07824 -0.0629,0.53212 -0.68033,0.73348 -1.41374,0.86238 -0.55707,-0.29173 -1.15355,-0.57433 -1.7797,-0.84734 0.46457,-0.68517 0.89686,-1.38443 1.30595,-2.09328 z m -1.38366,4.44227 c 1.88751,1.17682 3.02919,2.4429 2.82998,3.64756 -0.29241,1.29077 -2.65228,1.42177 -4.62973,1.83256 1.09233,-1.75659 1.81305,-3.65504 1.79975,-5.48012 z m -15.36308,2.08074 c 0.93503,1.80591 2.16817,3.3743 3.70729,4.29686 -1.92888,0.97284 -3.55631,1.27442 -4.4693,0.50139 -0.94015,-0.89339 0.095,-2.91938 0.76201,-4.79825 z m 5.83291,5.47762 c 0.37486,0.75858 0.78316,1.4957 1.20819,2.21612 -1.18109,0.63025 -2.1769,0.89611 -2.62945,0.60667 -0.4785,-0.34073 -0.28473,-1.07573 0.003,-1.86264 0.46633,-0.29439 0.93874,-0.61474 1.41875,-0.96015 z"
       id="path4276"
       inkscape:connector-curvature="0" />
    <path
       style="fill:#0d305a;fill-opacity:0.3137255;fill-rule:nonzero;stroke:none"
       d="M 36.984375 11.046875 C 36.983675 11.050875 36.984422 11.054794 36.982422 11.058594 C 36.983422 11.054594 36.987281 11.050675 36.988281 11.046875 L 36.984375 11.046875 z M 36.982422 11.058594 C 36.86731 11.364056 36.728356 11.674031 36.595703 11.982422 C 36.178658 13.520276 35.567482 15.054746 34.806641 16.556641 C 34.909273 16.612909 35.000599 16.672951 35.099609 16.730469 C 35.989307 14.864456 36.661853 12.956247 36.982422 11.058594 z M 23.394531 11.322266 C 23.281881 11.320966 23.171014 11.334641 23.058594 11.369141 C 21.916544 11.789361 21.379616 13.406776 21.291016 15.628906 C 21.310022 15.617112 21.330473 15.607317 21.349609 15.595703 C 21.530297 13.807881 22.064951 12.535535 23.058594 12.169922 C 23.171014 12.135422 23.281881 12.121747 23.394531 12.123047 C 24.310114 12.133461 25.237264 13.242269 26.1875 14.392578 C 26.406896 14.38941 26.621965 14.37186 26.84375 14.378906 C 25.66158 13.011656 24.519841 11.335066 23.394531 11.322266 z M 18.074219 14.074219 C 17.961879 14.062519 17.849138 14.081359 17.736328 14.130859 C 17.237988 14.380619 16.95335 15.438425 16.90625 16.859375 C 16.927649 16.859148 16.9493 16.861526 16.970703 16.861328 C 17.083918 15.857936 17.33849 15.129078 17.736328 14.929688 C 17.849138 14.880188 17.961879 14.8633 18.074219 14.875 C 18.407439 14.9098 18.741192 15.190011 19.070312 15.556641 C 19.085626 15.986789 19.132997 16.451046 19.171875 16.90625 C 19.192153 16.907375 19.212138 16.907032 19.232422 16.908203 C 19.148182 16.163133 19.094713 15.441239 19.070312 14.755859 C 18.741192 14.389229 18.407439 14.109019 18.074219 14.074219 z M 26.367188 15.548828 C 24.524418 15.455878 22.717882 15.767965 21.257812 16.734375 C 21.264571 16.984935 21.282296 17.249722 21.298828 17.511719 C 22.751911 16.565743 24.541075 16.2575 26.367188 16.349609 C 27.069547 16.385009 27.771997 16.495046 28.466797 16.634766 C 28.529697 16.668666 28.593 16.724713 28.65625 16.751953 C 28.65025 16.728853 28.632 16.692069 28.625 16.667969 C 28.740919 16.692487 28.851907 16.727084 28.966797 16.753906 C 28.882853 16.680828 28.811082 16.605673 28.722656 16.533203 C 28.871754 16.616925 28.997342 16.708166 29.136719 16.794922 C 30.379266 17.098392 31.547156 17.526438 32.564453 18.017578 C 32.710628 17.820902 32.865851 17.62972 33.007812 17.429688 C 31.763763 16.780267 30.24039 16.208867 28.625 15.867188 C 28.632 15.891287 28.65025 15.930025 28.65625 15.953125 C 28.593 15.925885 28.529697 15.867884 28.466797 15.833984 C 27.771997 15.694264 27.069547 15.584228 26.367188 15.548828 z M 15.257812 16.777344 C 15.256097 16.824356 15.257036 16.874325 15.255859 16.921875 C 15.256512 16.921833 15.25716 16.921917 15.257812 16.921875 C 15.256081 16.872181 15.259024 16.826609 15.257812 16.777344 z M 28.722656 17.333984 C 29.476581 17.951864 30.051681 18.594874 30.5 19.248047 C 30.69431 19.317299 30.901572 19.377876 31.091797 19.449219 C 31.006581 19.26724 30.900129 19.086896 30.794922 18.90625 C 30.243989 18.342205 29.570918 17.810301 28.722656 17.333984 z M 13.5625 17.900391 C 13.518297 17.900302 13.475765 17.904231 13.431641 17.904297 C 11.732523 18.127295 10.099826 18.5082 8.5996094 19.09375 C 10.651889 18.72029 12.956633 18.637738 15.320312 18.742188 C 15.482704 20.330196 15.900863 22.049397 16.541016 23.685547 C 16.60634 23.595579 16.674466 23.491056 16.738281 23.40625 C 15.975861 21.62041 15.499852 19.699059 15.320312 17.943359 C 14.729393 17.917247 14.142988 17.901559 13.5625 17.900391 z M 34.019531 18.009766 C 33.610441 18.718616 33.177461 19.418346 32.712891 20.103516 C 32.848212 20.162517 32.965205 20.227216 33.097656 20.287109 C 33.41246 19.798271 33.730996 19.310506 34.019531 18.810547 C 34.885636 19.366325 35.514539 19.931974 35.773438 20.412109 C 35.844439 20.319901 35.891387 20.215581 35.90625 20.089844 C 35.94472 19.539014 35.194101 18.763486 34.019531 18.009766 z M 16.925781 18.039062 C 16.940294 18.3004 16.966963 18.57243 16.996094 18.845703 C 17.555966 18.893259 18.112763 18.961253 18.671875 19.03125 C 18.759534 18.763053 18.859188 18.506477 18.970703 18.263672 C 18.287073 18.176172 17.609341 18.095362 16.925781 18.039062 z M 19.464844 18.572266 C 18.969145 19.336625 18.583622 20.271032 18.335938 21.394531 C 18.291036 21.759852 18.259618 22.139415 18.255859 22.544922 C 18.495669 21.256562 18.917134 20.217607 19.464844 19.373047 C 19.924414 22.182397 20.757211 25.247668 21.962891 28.205078 C 21.962891 28.205078 22.29756 28.052354 22.619141 27.900391 C 22.817557 27.772536 23.016699 27.638886 23.21875 27.5 C 23.15058 27.294504 23.098175 27.090376 23.033203 26.884766 C 22.768573 27.031625 21.962891 27.404297 21.962891 27.404297 C 20.757211 24.446887 19.924414 21.381616 19.464844 18.572266 z M 22.037109 18.642578 C 22.002797 19.056634 21.971127 19.481228 22 19.431641 L 22 19.435547 C 24.788995 19.98775 27.464484 20.792481 29.689453 21.730469 C 29.731755 21.683995 29.776206 21.642404 29.818359 21.595703 C 29.785458 21.533766 30.292102 21.896349 30.642578 22.150391 C 30.99381 22.314715 31.331348 22.48188 31.652344 22.652344 C 31.673938 22.390547 31.683575 22.128472 31.673828 21.865234 C 29.174902 20.534364 25.702465 19.371518 22.037109 18.642578 z M 37.951172 20.410156 C 37.938021 20.463122 37.940982 20.517962 37.921875 20.570312 C 37.600915 21.331383 36.709083 21.593447 35.689453 21.623047 C 36.044837 21.838861 36.376058 22.0585 36.6875 22.279297 C 37.25431 22.132563 37.713978 21.864066 37.921875 21.371094 C 38.035366 21.060142 38.035854 20.73716 37.951172 20.410156 z M 32.636719 22.453125 C 32.650019 24.278205 31.928268 26.177004 30.835938 27.933594 C 30.996957 27.900144 31.16531 27.872314 31.330078 27.841797 C 32.129622 26.342696 32.647809 24.775766 32.636719 23.253906 C 34.170321 24.210073 35.196085 25.223601 35.425781 26.216797 C 35.439185 26.178044 35.457497 26.140662 35.466797 26.099609 C 35.666007 24.894949 34.524229 23.629945 32.636719 22.453125 z M 30.566406 22.896484 C 28.637511 25.262158 26.483148 27.378098 24.361328 29.0625 C 24.65461 29.093821 24.95881 29.103191 25.271484 29.095703 C 27.247749 27.423346 29.225334 25.430103 30.984375 23.199219 C 30.984375 23.199219 30.756379 23.033611 30.566406 22.896484 z M 17.273438 24.533203 C 16.742891 26.027676 15.9948 27.605951 16.177734 28.642578 C 16.32676 27.677527 16.866623 26.479923 17.273438 25.333984 C 18.059232 26.851662 19.057977 28.196893 20.269531 29.136719 C 20.506275 29.034832 20.732922 28.954929 20.980469 28.830078 C 19.441349 27.907518 18.208467 26.339113 17.273438 24.533203 z M 39.34375 26.253906 C 39.322374 26.366945 39.31403 26.481322 39.271484 26.591797 C 38.118894 29.118577 33.041369 29.260137 30.162109 28.935547 C 28.975489 30.569257 27.505856 32.023064 26.035156 33.089844 C 26.133534 33.279914 26.239334 33.460962 26.339844 33.648438 C 27.707005 32.606654 29.057796 31.25672 30.162109 29.736328 C 33.041369 30.060918 38.118894 29.919358 39.271484 27.392578 C 39.412378 27.026732 39.426677 26.643777 39.34375 26.253906 z M 28.064453 29.34375 C 26.759297 29.809047 25.591129 29.953672 24.541016 29.869141 C 24.623811 30.067425 24.714129 30.260512 24.798828 30.457031 C 25.809462 30.350852 26.890162 30.017216 28.046875 29.361328 C 28.052713 29.35545 28.058621 29.349639 28.064453 29.34375 z M 24.568359 29.6875 C 24.535017 29.68985 24.499981 29.697384 24.466797 29.699219 C 24.474204 29.717094 24.482817 29.734094 24.490234 29.751953 C 24.516009 29.731302 24.542575 29.708274 24.568359 29.6875 z M 23.105469 30.011719 C 22.625459 30.357129 22.15383 30.676313 21.6875 30.970703 C 21.465007 31.579198 21.303667 32.154852 21.460938 32.542969 C 21.514129 32.298388 21.588469 32.042322 21.6875 31.771484 C 22.15383 31.477094 22.625459 31.155957 23.105469 30.810547 C 23.372221 31.350356 23.66048 31.876694 23.955078 32.396484 C 24.075809 32.33804 24.189122 32.293442 24.314453 32.226562 C 23.889423 31.506143 23.480329 30.770299 23.105469 30.011719 z M 13.65625 30.947266 C 13.590723 31.779086 13.715929 32.541411 14.134766 33.150391 C 15.140661 34.436295 17.422458 34.08074 20.164062 32.642578 C 20.274975 32.301614 20.420307 31.953206 20.619141 31.605469 C 17.672811 33.250689 15.196636 33.707069 14.134766 32.349609 C 13.854602 31.942258 13.706345 31.466218 13.65625 30.947266 z M 25.197266 33.636719 C 23.127636 34.931459 21.194745 35.395251 20.296875 34.369141 C 20.169229 34.20737 20.092132 34.026281 20.046875 33.835938 C 19.952238 34.333026 20.002394 34.794764 20.296875 35.167969 C 21.194745 36.194079 23.127636 35.730287 25.197266 34.435547 C 26.472726 36.348817 27.930398 38.060231 29.580078 39.400391 C 28.929149 38.621354 28.309168 37.756108 27.71875 36.830078 C 27.71812 36.829403 27.717427 36.8288 27.716797 36.828125 C 26.811686 35.857981 25.967095 34.791511 25.197266 33.636719 z "
       transform="translate(384.57143,499.798)"
       id="path4479" />
    <path
       style="fill:#ffffff;fill-opacity:0.23529412;fill-rule:nonzero;stroke:none"
       d="M 21.603516 8.609375 C 19.974076 8.855905 19.147407 11.043117 19.060547 14.185547 C 18.535427 13.404857 17.895089 12.845083 17.130859 12.945312 C 15.857307 13.180011 15.265263 14.914543 15.255859 17.1875 C 15.329858 15.110609 15.931843 13.564713 17.130859 13.34375 C 17.895089 13.24352 18.535427 13.805247 19.060547 14.585938 C 19.147407 11.443507 19.974076 9.2562956 21.603516 9.0097656 C 24.335256 8.7663956 26.941246 13.017659 28.103516 15.693359 C 30.160816 15.919419 32.209842 16.502059 33.914062 17.292969 C 35.087329 15.497817 36.086723 13.670545 36.802734 11.890625 C 36.863601 11.613294 36.935631 11.335578 36.982422 11.058594 C 36.261152 12.972564 35.181782 14.952908 33.914062 16.892578 C 32.209842 16.101668 30.160816 15.519029 28.103516 15.292969 C 26.941246 12.617269 24.335256 8.366005 21.603516 8.609375 z M 36.982422 11.058594 C 36.983422 11.054594 36.987281 11.050675 36.988281 11.046875 L 36.984375 11.046875 C 36.983675 11.050875 36.984422 11.054794 36.982422 11.058594 z M 26.515625 15.185547 C 24.59887 15.168249 22.768519 15.523437 21.318359 16.414062 C 21.308882 16.552129 21.296727 16.684869 21.291016 16.828125 C 22.828646 15.873905 24.79483 15.513025 26.84375 15.578125 C 26.733588 15.450716 26.625103 15.31672 26.515625 15.185547 z M 28.722656 17.333984 C 29.230476 17.750169 29.65376 18.177636 30.019531 18.611328 C 30.719176 19.163624 31.277472 19.757676 31.681641 20.388672 C 32.137421 19.807962 32.582983 19.227516 33.007812 18.628906 C 32.937474 18.592188 32.857239 18.559625 32.785156 18.523438 C 32.426067 19.01704 32.060986 19.504957 31.681641 19.988281 C 31.053541 19.007681 30.096176 18.105244 28.722656 17.333984 z M 34.953125 17.443359 C 34.90207 17.547172 34.859078 17.652349 34.806641 17.755859 C 36.607153 18.742993 37.847934 19.929544 37.984375 21.042969 C 38.14105 19.850532 36.885874 18.533865 34.953125 17.443359 z M 16.939453 17.660156 C 16.929895 17.795711 16.911003 17.917168 16.90625 18.060547 C 17.6784 18.052347 18.453322 18.062422 19.232422 18.107422 C 19.216739 17.968717 19.216732 17.843964 19.203125 17.707031 C 18.445052 17.664075 17.690942 17.652707 16.939453 17.660156 z M 15.257812 17.722656 C 12.901322 17.875606 10.631019 18.30087 8.5996094 19.09375 C 9.2907492 18.967981 10.018819 18.885931 10.759766 18.822266 C 12.194938 18.457108 13.703679 18.223919 15.257812 18.123047 C 15.253026 17.985672 15.258613 17.856635 15.257812 17.722656 z M 21.279297 17.923828 C 21.272448 17.928323 21.264647 17.931023 21.257812 17.935547 C 21.332106 20.689736 22.013011 24.1688 23.136719 27.628906 C 23.147048 27.621009 23.244625 27.578125 23.236328 27.578125 L 23.240234 27.572266 C 22.100937 24.157041 21.40612 20.707636 21.279297 17.923828 z M 22.089844 18.015625 C 22.089844 18.015625 21.94992 19.517651 22 19.431641 L 22 19.435547 C 22.005325 19.436601 22.010301 19.438397 22.015625 19.439453 C 22.038762 19.030778 22.089844 18.416016 22.089844 18.416016 C 25.294074 18.835186 28.403047 19.641991 31.091797 20.650391 C 31.014679 20.485704 30.91572 20.321814 30.822266 20.158203 C 28.194324 19.195107 25.190807 18.421286 22.089844 18.015625 z M 16.925781 19.238281 C 16.997751 20.534291 17.245579 21.996009 17.699219 23.443359 C 17.710719 23.431359 17.728734 23.409937 17.740234 23.398438 C 17.745034 23.443917 17.729422 23.498122 17.732422 23.544922 C 18.516102 25.989852 19.877659 28.322433 21.980469 29.501953 C 24.437179 28.039513 27.266809 25.623685 29.818359 22.796875 C 29.78028 22.725191 30.491854 23.23913 30.777344 23.447266 C 30.845021 23.362861 30.917322 23.284258 30.984375 23.199219 C 30.984375 23.199219 29.772319 22.309814 29.818359 22.396484 C 27.266809 25.223294 24.437179 27.639122 21.980469 29.101562 C 19.877659 27.922042 18.516102 25.591414 17.732422 23.146484 C 17.729422 23.099684 17.745034 23.043527 17.740234 22.998047 C 17.728734 23.009547 17.710719 23.030969 17.699219 23.042969 C 17.291338 21.741614 17.058001 20.435719 16.960938 19.242188 C 16.949188 19.241205 16.937533 19.239249 16.925781 19.238281 z M 18.820312 19.447266 C 18.477993 20.321927 18.267056 21.337036 18.255859 22.544922 C 18.264356 22.499272 18.276207 22.459087 18.285156 22.414062 C 18.353087 21.269636 18.591268 20.291001 18.970703 19.464844 C 18.920393 19.458404 18.870568 19.453636 18.820312 19.447266 z M 32.90625 20.996094 C 32.839077 21.097793 32.78144 21.203588 32.712891 21.304688 C 33.339041 21.577697 33.937071 21.858661 34.494141 22.150391 C 35.227551 22.021491 35.84335 21.821182 35.90625 21.289062 C 35.911862 21.208701 35.896013 21.122298 35.869141 21.033203 C 35.718573 21.457485 35.15607 21.635616 34.494141 21.751953 C 33.997516 21.491877 33.458617 21.241331 32.90625 20.996094 z M 36.224609 22.771484 C 36.049934 22.793936 35.875241 22.816872 35.689453 22.822266 C 37.887291 24.156944 39.259809 25.604443 39.369141 26.929688 C 39.527915 25.612279 38.312243 24.144679 36.224609 22.771484 z M 31.666016 23.060547 C 31.573767 26.878564 28.181214 30.545187 25.314453 32.431641 C 25.074341 31.920317 24.85289 31.400517 24.632812 30.878906 C 24.578131 30.883288 24.521055 30.895437 24.466797 30.898438 C 24.737567 31.551837 25.015513 32.195431 25.314453 32.832031 C 28.280503 30.880241 31.820418 27.023633 31.673828 23.064453 C 31.671341 23.063128 31.668505 23.061871 31.666016 23.060547 z M 16.638672 24.345703 C 15.270143 26.197508 13.575755 29.192487 13.644531 31.474609 C 13.769323 29.195029 15.432913 26.340219 16.738281 24.605469 C 16.701825 24.520077 16.67382 24.43168 16.638672 24.345703 z M 35.46875 26.804688 C 35.465356 26.836433 35.472033 26.868727 35.466797 26.900391 C 35.186332 28.138432 33.006701 28.313112 31.083984 28.6875 C 30.998506 28.835394 30.926762 28.986756 30.835938 29.132812 C 32.813387 28.722023 35.174387 28.591551 35.466797 27.300781 C 35.493936 27.136663 35.48988 26.970704 35.46875 26.804688 z M 28.107422 29.330078 C 26.895231 29.7678 25.804448 29.921665 24.8125 29.880859 C 24.662113 30.004133 24.511399 30.142586 24.361328 30.261719 C 24.857502 30.314707 25.385135 30.303785 25.9375 30.242188 C 26.630399 30.052873 27.352039 29.764645 28.107422 29.330078 z M 16.152344 29.332031 C 16.119807 29.820475 16.204847 30.239641 16.511719 30.53125 C 17.424709 31.30428 19.051589 31.00409 20.980469 30.03125 C 20.856107 29.956707 20.737558 29.86987 20.617188 29.787109 C 18.853333 30.612327 17.364862 30.85517 16.511719 30.132812 C 16.292072 29.92409 16.18624 29.648076 16.152344 29.332031 z M 20.619141 32.806641 C 20.528386 32.857318 20.443351 32.896909 20.353516 32.945312 C 20.112139 33.470808 19.966191 33.986765 20.015625 34.445312 C 20.068934 33.928169 20.300585 33.363758 20.619141 32.806641 z M 24.134766 33.113281 C 23.036087 33.672822 22.112082 33.908816 21.683594 33.634766 C 21.515291 33.514921 21.45291 33.33336 21.425781 33.130859 C 21.370587 33.514534 21.412612 33.840243 21.683594 34.033203 C 22.136144 34.322643 23.133363 34.057984 24.314453 33.427734 C 24.253308 33.324094 24.195168 33.217627 24.134766 33.113281 z M 26.1875 34.169922 C 26.136785 34.207632 26.085888 34.252264 26.035156 34.289062 C 26.818954 35.8034 27.671844 37.238636 28.589844 38.515625 C 28.913823 38.821942 29.239947 39.124076 29.580078 39.400391 C 28.337655 37.91345 27.208131 36.107787 26.1875 34.169922 z "
       transform="translate(384.57143,499.798)"
       id="path4484" />
  </g>
</svg>
