<?xml version="1.0" encoding="UTF-8" standalone="no"?>
<svg
   xmlns:dc="http://purl.org/dc/elements/1.1/"
   xmlns:cc="http://creativecommons.org/ns#"
   xmlns:rdf="http://www.w3.org/1999/02/22-rdf-syntax-ns#"
   xmlns:svg="http://www.w3.org/2000/svg"
   xmlns="http://www.w3.org/2000/svg"
   xmlns:xlink="http://www.w3.org/1999/xlink"
   xmlns:sodipodi="http://sodipodi.sourceforge.net/DTD/sodipodi-0.dtd"
   xmlns:inkscape="http://www.inkscape.org/namespaces/inkscape"
   width="48"
   viewBox="0 0 13.546667 13.546667"
   height="48"
   id="svg2"
   version="1.1"
   inkscape:version="0.48+devel r"
   sodipodi:docname="bittorent.svg">
  <metadata
     id="metadata40">
    <rdf:RDF>
      <cc:Work
         rdf:about="">
        <dc:format>image/svg+xml</dc:format>
        <dc:type
           rdf:resource="http://purl.org/dc/dcmitype/StillImage" />
      </cc:Work>
    </rdf:RDF>
  </metadata>
  <sodipodi:namedview
     pagecolor="#ffffff"
     bordercolor="#666666"
     borderopacity="1"
     objecttolerance="10"
     gridtolerance="10"
     guidetolerance="10"
     inkscape:pageopacity="0"
     inkscape:pageshadow="2"
     inkscape:window-width="1366"
     inkscape:window-height="666"
     id="namedview38"
     showgrid="false"
     inkscape:zoom="8.2519531"
     inkscape:cx="13.504592"
     inkscape:cy="20.337347"
     inkscape:window-x="-2"
     inkscape:window-y="25"
     inkscape:window-maximized="1"
     inkscape:current-layer="svg2" />
  <defs
     id="defs4">
    <linearGradient
       inkscape:collect="always"
       id="linearGradient4152">
      <stop
         style="stop-color:#e3caee;stop-opacity:1"
         offset="0"
         id="stop4154" />
      <stop
         style="stop-color:#fbf8fc;stop-opacity:1"
         offset="1"
         id="stop4156" />
    </linearGradient>
    <linearGradient
       id="linearGradient4235">
      <stop
         id="stop4237"
         stop-color="#58246d"
         style="stop-color:#e3caee;stop-opacity:1" />
      <stop
         style="stop-color:#fbf7fd;stop-opacity:1"
         id="stop4239"
         stop-color="#8e6394"
         offset="1" />
    </linearGradient>
    <linearGradient
       id="0">
      <stop
         stop-color="#58246d"
         id="stop7" />
      <stop
         offset="1"
         stop-color="#8e6394"
         id="stop9"
         style="stop-color:#7c3399;stop-opacity:1;" />
    </linearGradient>
    <linearGradient
       inkscape:collect="always"
       xlink:href="#0"
       id="linearGradient1440"
       x1="-25.25"
       y1="-1050.3622"
       x2="-25.25"
       y2="-1002.6122"
       gradientUnits="userSpaceOnUse"
       gradientTransform="matrix(0.28222223,0,0,0.28222223,14.534445,282.81834)" />
    <linearGradient
       inkscape:collect="always"
       xlink:href="#linearGradient4152"
       id="linearGradient4158"
       x1="8.4133615"
       y1="11.118421"
       x2="8.4133615"
       y2="2.4998543"
       gradientUnits="userSpaceOnUse" />
  </defs>
  <rect
     style="fill:url(#linearGradient1440);fill-opacity:1.0;stroke:none"
     id="rect2991-1"
     width="13.546667"
     height="13.546667"
     x="-7.0233153e-07"
     y="-13.546664"
     ry="0.54879344"
     transform="scale(1,-1)" />
  <path
     inkscape:connector-curvature="0"
     id="path4249"
     d="m 6.7727274,2.7657785 c -2.4076482,0 -4.3456162,1.9379681 -4.3456162,4.3456167 l 0,8.067e-4 c 0,2.4076483 1.9379681,4.3460211 4.3456162,4.3460211 l 8.067e-4,0 c 0.2089994,0 0.4142939,-0.01541 0.6152583,-0.04366 C 5.4426446,11.1181 3.4982052,9.7731032 3.6944125,7.4853195 3.8509439,5.4726553 5.6918421,4.3804169 6.9340191,4.3459651 c 0.082812,-0.0023 0.1629044,1.314e-4 0.2397158,0.00727 l 0,0.606365 C 7.1047837,4.9399596 4.5339393,5.0721773 4.2870336,7.6551002 4.1047155,10.258365 6.93205,11.111451 8.6209262,11.044681 8.7544546,10.982111 8.883785,10.913035 9.0094042,10.837708 7.9702221,10.858133 6.6593092,10.768214 5.7912229,10.172324 4.5272833,9.3038612 4.1364849,7.7429779 4.8663139,6.46905 5.2138515,5.8626788 5.7906171,5.4254415 6.4893513,5.2373204 c 0.1778841,-0.047943 0.3560476,-0.078064 0.5352181,-0.090551 0.067191,-0.00468 0.1343969,-0.00651 0.201313,-0.00607 0.4684142,0.00308 0.9275417,0.1303462 1.3404708,0.3682658 L 8.2668106,6.0340866 C 7.7784286,5.7528178 7.2078131,5.6761349 6.6526671,5.8259011 6.1112395,5.9711015 5.6592916,6.3118579 5.3922358,6.7766816 4.822457,7.7702539 5.1378402,8.9893912 6.1356394,9.6742982 7.1431769,10.365249 8.5489077,10.503918 9.635174,10.382937 9.7683799,10.266388 9.8935173,10.1413 10.011525,10.009416 9.0494174,10.01002 7.8122694,10.085881 6.8612566,9.8101242 6.0573473,9.5178972 5.686636,8.9593442 5.5915284,8.7958772 c -8.8e-4,-9.16e-4 -0.014125,-0.01047 -0.017784,-0.01779 -0.00279,-0.0046 0,-0.0093 0,-0.0093 -0.00183,-0.0037 -0.0093,-0.017268 -0.0093,-0.018192 C 5.4117112,8.4675065 5.3376646,8.1575798 5.3376646,7.854394 c 0,-0.6538584 0.3367381,-1.2894475 0.9431001,-1.6392071 0.2737998,-0.1575286 0.5816821,-0.2433914 0.8889309,-0.2534606 0.1843489,-0.00604 0.3698616,0.014495 0.553005,0.063466 0.4883816,0.1315021 0.8903662,0.4498867 1.1427958,0.8873142 l 0.018191,0.018191 -0.5441116,0.2805449 C 8.1676345,6.91445 7.8908643,6.7023527 7.5597889,6.6137716 7.2277988,6.5251902 6.8864367,6.5699339 6.5892007,6.740704 6.177643,6.9790518 5.9452411,7.4105748 5.9452411,7.8543947 c 0,0.2173438 0.056462,0.4409297 0.1726119,0.6427469 0.048468,0.086755 0.310216,0.5124666 0.9430995,0.7425956 0.9601641,0.466436 2.1623917,0.356285 3.2808395,0.355734 0.489341,-0.703339 0.777764,-1.5578072 0.777764,-2.4832675 l 0,-8.067e-4 c 0,-2.4076486 -1.9383724,-4.3456167 -4.3460204,-4.3456167 l -8.067e-4,0 z M 8.4786339,11.113 c -0.015059,0.0062 -0.029051,0.01207 -0.044466,0.01819 0.01481,-0.0061 0.02974,-0.01194 0.044466,-0.01819 z m -0.1556337,0.06185 c -0.084788,0.03156 -0.172533,0.06223 -0.2615454,0.09055 0.088575,-0.02727 0.1755186,-0.05789 0.2615454,-0.09055 z"
     style="fill:#000000;fill-opacity:0.05882353;stroke:none" />
  <path
     style="fill:#000000;fill-opacity:0.11764706;stroke:none"
     d="m 6.7727274,2.6528898 c -2.4076482,0 -4.3456162,1.9379681 -4.3456162,4.3456167 l 0,8.067e-4 c 0,2.4076483 1.9379681,4.3460208 4.3456162,4.3460208 l 8.067e-4,0 c 0.2089994,0 0.4142939,-0.01541 0.6152583,-0.04366 C 5.4426446,11.005211 3.4982052,9.6602145 3.6944125,7.3724308 3.8509439,5.3597666 5.6918421,4.2675282 6.9340191,4.2330764 c 0.082812,-0.0023 0.1629044,1.314e-4 0.2397158,0.00727 l 0,0.606365 C 7.1047837,4.8270709 4.5339393,4.9592886 4.2870336,7.5422115 4.1047155,10.145476 6.93205,10.998562 8.6209262,10.931792 8.7544546,10.869222 8.883785,10.800146 9.0094042,10.724819 7.9702221,10.745244 6.6593092,10.655325 5.7912229,10.059435 4.5272833,9.1909725 4.1364849,7.6300892 4.8663139,6.3561613 5.2138515,5.7497901 5.7906171,5.3125528 6.4893513,5.1244317 c 0.1778841,-0.047943 0.3560476,-0.078064 0.5352181,-0.090551 0.067191,-0.00468 0.1343969,-0.00651 0.201313,-0.00607 0.4684142,0.00308 0.9275417,0.1303462 1.3404708,0.3682658 L 8.2668106,5.9211979 C 7.7784286,5.6399291 7.2078131,5.5632462 6.6526671,5.7130124 6.1112395,5.8582128 5.6592916,6.1989692 5.3922358,6.6637929 4.822457,7.6573652 5.1378402,8.8765025 6.1356394,9.5614095 7.1431769,10.25236 8.5489077,10.391029 9.635174,10.270048 9.7683799,10.153499 9.8935173,10.028411 10.011525,9.8965275 9.0494174,9.8971315 7.8122694,9.9729925 6.8612566,9.6972355 6.0573473,9.4050085 5.686636,8.8464555 5.5915284,8.6829885 c -8.8e-4,-9.16e-4 -0.014125,-0.01047 -0.017784,-0.01779 -0.00279,-0.0046 0,-0.0093 0,-0.0093 -0.00183,-0.0037 -0.0093,-0.017268 -0.0093,-0.018192 C 5.4117112,8.3546178 5.3376646,8.0446911 5.3376646,7.7415053 c 0,-0.6538584 0.3367381,-1.2894475 0.9431001,-1.6392071 0.2737998,-0.1575286 0.5816821,-0.2433914 0.8889309,-0.2534606 0.1843489,-0.00604 0.3698616,0.014495 0.553005,0.063466 0.4883816,0.1315021 0.8903662,0.4498867 1.1427958,0.8873142 l 0.018191,0.018191 -0.5441116,0.2805449 C 8.1676345,6.8015613 7.8908643,6.589464 7.5597889,6.5008829 7.2277988,6.4123015 6.8864367,6.4570452 6.5892007,6.6278153 6.177643,6.8661631 5.9452411,7.2976861 5.9452411,7.741506 c 0,0.2173438 0.056462,0.4409297 0.1726119,0.6427469 0.048468,0.086755 0.310216,0.5124666 0.9430995,0.7425956 0.9601641,0.466436 2.1623917,0.356285 3.2808395,0.355734 0.489341,-0.703339 0.777764,-1.5578072 0.777764,-2.4832675 l 0,-8.067e-4 c 0,-2.4076486 -1.9383724,-4.3456167 -4.3460204,-4.3456167 l -8.067e-4,0 z m 1.7059065,8.3472212 c -0.015059,0.0062 -0.029051,0.01207 -0.044466,0.01819 0.01481,-0.0061 0.02974,-0.01194 0.044466,-0.01819 z m -0.1556337,0.06185 c -0.084788,0.03156 -0.172533,0.06223 -0.2615454,0.09055 0.088575,-0.02727 0.1755186,-0.05789 0.2615454,-0.09055 z"
     id="path4247"
     inkscape:connector-curvature="0" />
  <path
     inkscape:connector-curvature="0"
     id="path4241"
     d="m 6.7727274,2.5400007 c -2.4076482,0 -4.3456162,1.9379681 -4.3456162,4.3456167 l 0,8.067e-4 c 0,2.4076483 1.9379681,4.3460209 4.3456162,4.3460209 l 8.067e-4,0 c 0.2089994,0 0.4142939,-0.01541 0.6152583,-0.04366 C 5.4426446,10.892322 3.4982052,9.5473254 3.6944125,7.2595417 3.8509439,5.2468775 5.6918421,4.1546391 6.9340191,4.1201873 c 0.082812,-0.0023 0.1629044,1.314e-4 0.2397158,0.00727 l 0,0.606365 C 7.1047837,4.7141818 4.5339393,4.8463995 4.2870336,7.4293224 4.1047155,10.032587 6.93205,10.885673 8.6209262,10.818903 8.7544546,10.756333 8.883785,10.687257 9.0094042,10.61193 7.9702221,10.632355 6.6593092,10.542436 5.7912229,9.9465464 4.5272833,9.0780834 4.1364849,7.5172001 4.8663139,6.2432722 5.2138515,5.636901 5.7906171,5.1996637 6.4893513,5.0115426 c 0.1778841,-0.047943 0.3560476,-0.078064 0.5352181,-0.090551 0.067191,-0.00468 0.1343969,-0.00651 0.201313,-0.00607 0.4684142,0.00308 0.9275417,0.1303462 1.3404708,0.3682658 L 8.2668106,5.8083088 C 7.7784286,5.52704 7.2078131,5.4503571 6.6526671,5.6001233 6.1112395,5.7453237 5.6592916,6.0860801 5.3922358,6.5509038 4.822457,7.5444761 5.1378402,8.7636134 6.1356394,9.4485204 7.1431769,10.139471 8.5489077,10.27814 9.635174,10.157159 9.7683799,10.04061 9.8935173,9.9155214 10.011525,9.7836384 9.0494174,9.7842424 7.8122694,9.8601034 6.8612566,9.5843464 6.0573473,9.2921194 5.686636,8.7335664 5.5915284,8.5700994 c -8.8e-4,-9.16e-4 -0.014125,-0.01047 -0.017784,-0.01779 -0.00279,-0.0046 0,-0.0093 0,-0.0093 -0.00183,-0.0037 -0.0093,-0.017268 -0.0093,-0.018192 C 5.4117112,8.2417287 5.3376646,7.931802 5.3376646,7.6286162 c 0,-0.6538584 0.3367381,-1.2894475 0.9431001,-1.6392071 0.2737998,-0.1575286 0.5816821,-0.2433914 0.8889309,-0.2534606 0.1843489,-0.00604 0.3698616,0.014495 0.553005,0.063466 0.4883816,0.1315021 0.8903662,0.4498867 1.1427958,0.8873142 l 0.018191,0.018191 -0.5441116,0.2805449 C 8.1676345,6.6886722 7.8908643,6.4765749 7.5597889,6.3879938 7.2277988,6.2994124 6.8864367,6.3441561 6.5892007,6.5149262 6.177643,6.753274 5.9452411,7.184797 5.9452411,7.6286169 c 0,0.2173438 0.056462,0.4409297 0.1726119,0.6427469 0.048468,0.086755 0.310216,0.5124666 0.9430995,0.7425956 0.9601641,0.466436 2.1623917,0.356285 3.2808395,0.355734 0.489341,-0.703339 0.777764,-1.5578072 0.777764,-2.4832675 l 0,-8.067e-4 c 0,-2.4076486 -1.9383724,-4.3456167 -4.3460204,-4.3456167 l -8.067e-4,0 z m 1.7059065,8.3472213 c -0.015059,0.0062 -0.029051,0.01207 -0.044466,0.01819 0.01481,-0.0061 0.02974,-0.01194 0.044466,-0.01819 z m -0.1556337,0.06185 c -0.084788,0.03156 -0.172533,0.06223 -0.2615454,0.09055 0.088575,-0.02727 0.1755186,-0.05789 0.2615454,-0.09055 z"
     style="fill:#000000;fill-opacity:0.23529412;stroke:none" />
  <path
     inkscape:connector-curvature="0"
     style="fill:#000000;fill-opacity:1;stroke:none"
     d="m 7.0233154e-7,12.700003 0,0.299861 C 7.0233154e-7,13.303902 0.2427677,13.54667 0.5468057,13.54667 l 12.4530563,0 c 0.304038,0 0.546806,-0.242768 0.546806,-0.546806 l 0,-0.299861 c 0,0.304038 -0.242768,0.546806 -0.546806,0.546806 l -12.4530563,0 C 0.2427677,13.246809 7.0233155e-7,13.004041 7.0233155e-7,12.700003 Z"
     id="rect846" />
  <path
     inkscape:connector-curvature="0"
     style="fill:#ffffff;fill-opacity:0.5372549;stroke:none"
     d="m 0.7143607,0.18522494 c -0.258797,0 -0.471621,0.1804811 -0.520332,0.4233333 0.09471,-0.078994 0.218581,-0.1234722 0.352777,-0.1234722 l 12.4530563,0 c 0.134197,0 0.258064,0.044478 0.352778,0.1234722 -0.04871,-0.2428522 -0.261535,-0.4233333 -0.520333,-0.4233333 l -12.1179463,0 z"
     id="path7515" />
  <path
     inkscape:connector-curvature="0"
     style="fill:#000000;fill-opacity:0.39215686;stroke:none"
     d="M 0.5468057,2.4374817e-6 C 0.2427677,2.4374817e-6 7.0233154e-7,0.24277004 7.0233154e-7,0.54680804 l 0,12.15319496 c 0,0.223915 0.13546599766846,0.40894 0.32630499766846,0.493889 -0.08729,-0.09406 -0.141111,-0.220811 -0.141111,-0.361583 l 0,-12.11791746 c 0,-0.2958253 0.233369,-0.5291666 0.529166,-0.5291666 l 12.1179463,0 c 0.295797,0 0.529167,0.2333413 0.529167,0.5291666 l 0,12.11791746 c 0,0.140772 -0.05382,0.267518 -0.141111,0.361583 0.190838,-0.08495 0.326305,-0.269974 0.326305,-0.493889 l 0,-12.15319496 C 13.546668,0.24277004 13.3039,2.4374817e-6 12.999862,2.4374817e-6 l -12.4530563,0 z"
     id="rect4280-7" />
  <rect
     style="fill:none;stroke:none"
     id="rect1526"
     width="13.546667"
     height="13.546667"
     x="-7.0233153e-07"
     y="-2.3990631e-06"
     ry="0" />
  <path
     style="fill:url(#linearGradient4158);fill-opacity:1;stroke:none"
     d="m 6.7727274,2.4271111 c -2.4076482,0 -4.3456162,1.9379681 -4.3456162,4.3456167 l 0,8.067e-4 c 0,2.4076483 1.9379681,4.3460215 4.3456162,4.3460215 l 8.067e-4,0 c 0.2089994,0 0.4142939,-0.01541 0.6152583,-0.04366 C 5.4426446,10.779433 3.4982052,9.4344358 3.6944125,7.1466521 3.8509439,5.1339879 5.6918421,4.0417495 6.9340191,4.0072977 c 0.082812,-0.0023 0.1629044,1.314e-4 0.2397158,0.00727 l 0,0.606365 C 7.1047837,4.6012922 4.5339393,4.7335099 4.2870336,7.3164328 4.1047155,9.9196968 6.93205,10.772784 8.6209262,10.706014 8.7544546,10.643444 8.883785,10.574368 9.0094042,10.499041 7.9702221,10.519466 6.6593092,10.429547 5.7912229,9.8336568 4.5272833,8.9651938 4.1364849,7.4043105 4.8663139,6.1303826 5.2138515,5.5240114 5.7906171,5.0867741 6.4893513,4.898653 6.6672354,4.85071 6.8453989,4.820589 7.0245694,4.808102 c 0.067191,-0.00468 0.1343969,-0.00651 0.201313,-0.00607 0.4684142,0.00308 0.9275417,0.1303462 1.3404708,0.3682658 L 8.2668106,5.6954192 C 7.7784286,5.4141504 7.2078131,5.3374675 6.6526671,5.4872337 6.1112395,5.6324341 5.6592916,5.9731905 5.3922358,6.4380142 4.822457,7.4315865 5.1378402,8.6507238 6.1356394,9.3356308 7.1431769,10.026582 8.5489077,10.165251 9.635174,10.04427 9.7683799,9.9277198 9.8935173,9.8026318 10.011525,9.6707488 9.0494174,9.6713528 7.8122694,9.7472138 6.8612566,9.4714568 6.0573473,9.1792298 5.686636,8.6206768 5.5915284,8.4572098 c -8.8e-4,-9.16e-4 -0.014125,-0.01047 -0.017784,-0.01779 -0.00279,-0.0046 0,-0.0093 0,-0.0093 -0.00183,-0.0037 -0.0093,-0.017268 -0.0093,-0.018192 C 5.4117112,8.1288391 5.3376646,7.8189124 5.3376646,7.5157266 c 0,-0.6538584 0.3367381,-1.2894475 0.9431001,-1.6392071 0.2737998,-0.1575286 0.5816821,-0.2433914 0.8889309,-0.2534606 0.1843489,-0.00604 0.3698616,0.014495 0.553005,0.063466 0.4883816,0.1315021 0.8903662,0.4498867 1.1427958,0.8873142 L 8.8836874,6.5920301 8.3395758,6.872575 C 8.1676345,6.5757826 7.8908643,6.3636853 7.5597889,6.2751042 7.2277988,6.1865228 6.8864367,6.2312665 6.5892007,6.4020366 6.177643,6.6403844 5.9452411,7.0719074 5.9452411,7.5157273 c 0,0.2173438 0.056462,0.4409297 0.1726119,0.6427469 0.048468,0.086755 0.310216,0.5124666 0.9430995,0.7425956 0.9601641,0.466436 2.1623917,0.356285 3.2808395,0.355734 0.489341,-0.703339 0.777764,-1.5578072 0.777764,-2.4832675 l 0,-8.067e-4 c 0,-2.4076486 -1.9383724,-4.3456167 -4.3460204,-4.3456167 l -8.067e-4,0 z m 1.7059065,8.3472219 c -0.015059,0.0062 -0.029051,0.01207 -0.044466,0.01819 0.01481,-0.0061 0.02974,-0.01194 0.044466,-0.01819 z m -0.1556337,0.06185 c -0.084788,0.03156 -0.172533,0.06223 -0.2615454,0.09055 0.088575,-0.02727 0.1755186,-0.05789 0.2615454,-0.09055 z"
     id="rect14"
     inkscape:connector-curvature="0" />
  <path
     style="fill:#5a256f;fill-opacity:0.3137255;stroke:none"
     d="M 24.570312 13.398438 C 20.168898 13.520511 13.644483 17.39195 13.089844 24.523438 C 13.040219 25.10206 13.039543 25.658679 13.064453 26.203125 C 13.069718 25.910938 13.063991 25.623711 13.089844 25.322266 C 13.644483 18.190778 20.168898 14.321292 24.570312 14.199219 C 24.863741 14.191069 25.145802 14.199315 25.417969 14.224609 L 25.417969 13.425781 C 25.145802 13.400487 24.863741 13.390288 24.570312 13.398438 z M 25.603516 16.214844 C 25.541801 16.214438 25.479804 16.219983 25.417969 16.220703 L 25.417969 16.373047 C 25.277819 16.333126 22.223245 16.480223 19.476562 18.332031 C 18.58188 19.046503 17.819253 19.915032 17.242188 20.921875 C 16.303288 22.560739 15.89497 24.333378 15.960938 26.074219 C 16.030725 24.59482 16.446998 23.110672 17.242188 21.722656 C 18.47362 19.574097 20.518311 18.023993 22.994141 17.357422 C 23.624439 17.187545 24.255769 17.081355 24.890625 17.037109 C 25.128703 17.020527 25.366411 17.014066 25.603516 17.015625 C 27.132431 17.025678 28.627214 17.425166 29.998047 18.144531 L 30.353516 17.519531 C 28.890381 16.676509 27.263251 16.225757 25.603516 16.214844 z M 25.791016 19.179688 C 25.077507 19.157759 24.353404 19.242802 23.636719 19.429688 C 23.159711 19.576912 22.692862 19.768934 22.253906 20.021484 C 20.10538 21.26079 18.912109 23.513257 18.912109 25.830078 C 18.912109 25.965656 18.929109 26.102182 18.9375 26.238281 C 19.064706 24.062979 20.227503 21.991129 22.253906 20.822266 C 23.224063 20.264093 24.31562 19.959506 25.404297 19.923828 C 26.057502 19.902427 26.714348 19.974918 27.363281 20.148438 C 28.890284 20.5596 30.177718 21.488405 31.074219 22.765625 L 31.478516 22.556641 L 31.414062 22.492188 C 30.773167 21.381599 29.856621 20.493323 28.753906 19.904297 C 27.81926 19.460404 26.816337 19.2112 25.791016 19.179688 z M 8.6191406 23.599609 C 8.615742 23.733366 8.5996094 23.863441 8.5996094 23.998047 L 8.5996094 24 C 8.5996094 32.531037 15.467011 39.400391 23.998047 39.400391 L 24 39.400391 C 24.740549 39.400391 25.469562 39.346192 26.181641 39.246094 C 25.199803 39.096527 24.219482 38.861622 23.259766 38.5625 C 15.209972 38.183177 8.8248423 31.695246 8.6191406 23.599609 z M 39.382812 23.654297 C 39.292738 26.757927 38.297705 29.623862 36.644531 32 C 32.681527 32.001952 28.421687 32.391007 25.019531 30.738281 C 22.777031 29.922864 21.849471 28.414821 21.677734 28.107422 C 21.33685 27.515115 21.148985 26.870259 21.091797 26.228516 C 21.079783 26.362447 21.066406 26.495881 21.066406 26.630859 C 21.066406 27.400975 21.26618 28.193103 21.677734 28.908203 C 21.849471 29.215603 22.777031 30.723645 25.019531 31.539062 C 28.421687 33.191788 32.681527 32.80078 36.644531 32.798828 C 38.378417 30.306682 39.400391 27.27919 39.400391 24 L 39.400391 23.998047 C 39.400391 23.881904 39.385345 23.76981 39.382812 23.654297 z M 18.121094 26.150391 C 17.990274 28.771674 19.273963 31.385233 21.740234 33.078125 C 25.310249 35.526377 30.29165 36.018517 34.140625 35.589844 C 34.612614 35.176871 35.056472 34.732927 35.474609 34.265625 C 35.228826 34.265779 34.948529 34.271078 34.693359 34.273438 C 34.512559 34.44892 34.330458 34.622965 34.140625 34.789062 C 30.29165 35.217735 25.310249 34.727549 21.740234 32.279297 C 19.525018 30.758733 18.261078 28.495004 18.121094 26.150391 z M 15.173828 26.349609 C 14.895609 34.330042 22.752813 37.498063 28.626953 37.894531 C 29.2953 37.939641 29.945156 37.959336 30.546875 37.935547 C 31.020007 37.713842 31.478721 37.468079 31.923828 37.201172 C 28.241687 37.273544 23.595428 36.955172 20.519531 34.84375 C 20.236059 34.648974 19.965491 34.444023 19.707031 34.230469 C 17.169272 32.515016 15.299518 29.964869 15.173828 26.349609 z M 30.042969 38.177734 C 29.98961 38.199703 29.939386 38.220502 29.884766 38.242188 C 29.937242 38.220573 29.99079 38.19988 30.042969 38.177734 z M 29.490234 38.396484 C 29.189804 38.508311 28.879851 38.61645 28.564453 38.716797 C 28.878302 38.620171 29.185415 38.512209 29.490234 38.396484 z "
     transform="scale(0.28222223,0.28222223)"
     id="path4251" />
  <path
     style="fill:#ffffff;fill-opacity:0.23529412;stroke:none"
     d="M 23.998047 8.5996094 C 15.46701 8.5996094 8.5996094 15.467009 8.5996094 23.998047 L 8.5996094 24 C 8.5996094 24.06722 8.6085249 24.132208 8.609375 24.199219 C 8.7164152 15.76174 15.53423 9 23.998047 9 L 24 9 C 32.473053 9 39.300088 15.776215 39.392578 24.226562 C 39.393678 24.15065 39.400391 24.076187 39.400391 24 L 39.400391 23.998047 C 39.400391 15.467009 32.531036 8.5996094 24 8.5996094 L 23.998047 8.5996094 z M 25.417969 16.373047 C 25.173653 16.303455 16.064316 16.771739 15.189453 25.923828 C 15.164546 26.279465 15.162014 26.623568 15.167969 26.960938 C 15.171571 26.751216 15.174289 26.540736 15.189453 26.324219 C 16.064316 17.17213 25.173653 16.703845 25.417969 16.773438 L 25.417969 16.373047 z M 30.175781 18.632812 L 29.291016 20.179688 C 27.560528 19.183066 25.539318 18.912692 23.572266 19.443359 C 21.653821 19.957849 20.051729 21.165487 19.105469 22.8125 C 18.412876 24.020234 18.098608 25.320258 18.115234 26.607422 C 18.163849 25.452097 18.484715 24.2934 19.105469 23.210938 C 20.051729 21.563924 21.653821 20.35824 23.572266 19.84375 C 25.539318 19.313082 27.560528 19.583456 29.291016 20.580078 L 30.353516 18.720703 C 30.295854 18.68748 30.233944 18.664815 30.175781 18.632812 z M 25.900391 22.087891 C 25.014566 22.028429 24.137555 22.229776 23.347656 22.683594 C 21.889381 23.528133 21.066406 25.058269 21.066406 26.630859 C 21.066406 26.697 21.07712 26.763674 21.080078 26.830078 C 21.1472 25.329467 21.951776 23.892388 23.347656 23.083984 C 24.400855 22.478893 25.610767 22.320895 26.787109 22.634766 C 27.960211 22.948636 28.939587 23.700327 29.548828 24.751953 L 31.478516 23.757812 L 31.414062 23.693359 C 31.368833 23.614983 31.315489 23.542985 31.267578 23.466797 L 29.548828 24.351562 C 28.939587 23.299936 27.960211 22.548245 26.787109 22.234375 C 26.493024 22.155907 26.195665 22.107711 25.900391 22.087891 z M 15.958984 26.507812 C 15.814743 29.827674 17.42899 33.120605 20.519531 35.244141 C 23.391036 37.215258 27.621485 37.618745 31.167969 37.605469 C 31.420683 37.472375 31.679335 37.347781 31.923828 37.201172 C 28.241687 37.273544 23.595428 36.955172 20.519531 34.84375 C 17.552874 32.805336 15.955637 29.690687 15.958984 26.507812 z M 18.925781 26.835938 C 18.923886 26.901205 18.912109 26.965858 18.912109 27.03125 C 18.912109 28.10553 19.175616 29.202008 19.716797 30.205078 C 19.716797 30.208352 19.743516 30.256421 19.75 30.269531 C 19.75 30.269531 19.740114 30.286435 19.75 30.302734 C 19.762965 30.328671 19.809382 30.363942 19.8125 30.367188 C 20.149495 30.946401 21.464003 32.925488 24.3125 33.960938 C 27.563185 34.903511 31.739157 34.688341 35.091797 34.669922 C 35.220026 34.536031 35.350889 34.403892 35.474609 34.265625 C 32.065567 34.267765 27.68223 34.537639 24.3125 33.560547 C 21.464003 32.525097 20.149495 30.546011 19.8125 29.966797 C 19.809382 29.963551 19.762965 29.930234 19.75 29.904297 C 19.740114 29.887998 19.75 29.871094 19.75 29.871094 C 19.743516 29.857984 19.716797 29.809915 19.716797 29.806641 C 19.209939 28.867186 18.957012 27.844475 18.925781 26.835938 z M 13.054688 26.902344 C 13.091261 33.753882 18.717336 37.996675 24.763672 39.371094 C 25.241392 39.347076 25.716401 39.311493 26.181641 39.246094 C 19.747417 38.265948 13.321761 34.047219 13.054688 26.902344 z M 29.490234 38.396484 C 29.189804 38.508311 28.879851 38.61645 28.564453 38.716797 C 28.878302 38.620171 29.185415 38.512209 29.490234 38.396484 z M 30.042969 38.576172 C 29.99079 38.598318 29.937242 38.619011 29.884766 38.640625 C 29.939386 38.61894 29.98961 38.59814 30.042969 38.576172 z M 29.490234 38.796875 C 29.185415 38.912599 28.878302 39.020562 28.564453 39.117188 C 28.879851 39.016841 29.189804 38.908702 29.490234 38.796875 z "
     transform="scale(0.28222223,0.28222223)"
     id="path4256" />
</svg>
