<?xml version="1.0" encoding="UTF-8" standalone="no"?>
<svg
   xmlns:dc="http://purl.org/dc/elements/1.1/"
   xmlns:cc="http://creativecommons.org/ns#"
   xmlns:rdf="http://www.w3.org/1999/02/22-rdf-syntax-ns#"
   xmlns:svg="http://www.w3.org/2000/svg"
   xmlns="http://www.w3.org/2000/svg"
   xmlns:xlink="http://www.w3.org/1999/xlink"
   xmlns:sodipodi="http://sodipodi.sourceforge.net/DTD/sodipodi-0.dtd"
   xmlns:inkscape="http://www.inkscape.org/namespaces/inkscape"
   width="48"
   viewBox="0 0 13.546667 13.546667"
   height="48"
   id="svg2"
   version="1.1"
   inkscape:version="0.48+devel r"
   sodipodi:docname="bless-48x48.svg">
  <metadata
     id="metadata56">
    <rdf:RDF>
      <cc:Work
         rdf:about="">
        <dc:format>image/svg+xml</dc:format>
        <dc:type
           rdf:resource="http://purl.org/dc/dcmitype/StillImage" />
      </cc:Work>
    </rdf:RDF>
  </metadata>
  <sodipodi:namedview
     pagecolor="#ffffff"
     bordercolor="#666666"
     borderopacity="1"
     objecttolerance="10"
     gridtolerance="10"
     guidetolerance="10"
     inkscape:pageopacity="0"
     inkscape:pageshadow="2"
     inkscape:window-width="1366"
     inkscape:window-height="666"
     id="namedview54"
     showgrid="false"
     inkscape:zoom="13.029887"
     inkscape:cx="23.288412"
     inkscape:cy="27.03788"
     inkscape:window-x="-2"
     inkscape:window-y="25"
     inkscape:window-maximized="1"
     inkscape:current-layer="svg2" />
  <defs
     id="defs4">
    <linearGradient
       inkscape:collect="always"
       id="linearGradient4001">
      <stop
         style="stop-color:#c0bebe;stop-opacity:1"
         offset="0"
         id="stop4003" />
      <stop
         style="stop-color:#f2f7f7;stop-opacity:1"
         offset="1"
         id="stop4005" />
    </linearGradient>
    <linearGradient
       id="linearGradient3795-1-2">
      <stop
         style="stop-color:#272b30;stop-opacity:1"
         offset="0"
         id="stop3797-1-9" />
      <stop
         style="stop-color:#282c31;stop-opacity:1"
         offset="1"
         id="stop3799-3-6" />
    </linearGradient>
    <linearGradient
       inkscape:collect="always"
       xlink:href="#linearGradient4001"
       id="linearGradient4007"
       x1="22.45064"
       y1="1049.29"
       x2="22.45064"
       y2="1007.3755"
       gradientUnits="userSpaceOnUse"
       gradientTransform="matrix(0.26878221,0,0,0.26878224,0.32254252,-269.63219)" />
    <linearGradient
       inkscape:collect="always"
       xlink:href="#linearGradient3795-1-2"
       id="linearGradient929"
       x1="88.429985"
       y1="-1042.1093"
       x2="88.429985"
       y2="-994.90985"
       gradientUnits="userSpaceOnUse"
       gradientTransform="matrix(0.28222223,0,0,0.28222223,-17.872482,280.69763)" />
  </defs>
  <rect
     style="fill:url(#linearGradient929);fill-opacity:1;stroke:none"
     id="rect2991-1-5"
     width="13.546667"
     height="13.546667"
     x="1.5180046e-07"
     y="-13.546662"
     ry="0.54879344"
     transform="scale(1,-1)" />
  <path
     sodipodi:nodetypes="sssssssss"
     inkscape:connector-curvature="0"
     id="path4523"
     d="m 1.326525,0.8466665 c -0.2660269,0 -0.47985798,0.2138116 -0.47985798,0.4798342 l 0,10.8936373 C 0.84666702,12.48616 1.0604981,12.7 1.326525,12.7 l 10.893617,0 c 0.266027,0 0.479859,-0.21384 0.479859,-0.479862 l 0,-10.893609 c 0,-0.2660509 -0.213832,-0.4798625 -0.479859,-0.4798625 z"
     style="fill:#000000;fill-opacity:0.23529412;stroke:none" />
  <path
     style="fill:url(#linearGradient4007);fill-opacity:1;stroke:none"
     d="m 1.5858968,1.1288887 c -0.2533588,0 -0.4570076,0.2036234 -0.4570076,0.4569743 l 0,10.374912 c 0,0.253351 0.2036488,0.457003 0.4570076,0.457003 l 10.3748742,0 c 0.253358,0 0.457007,-0.203652 0.457007,-0.457003 l 0,-10.3748838 c 0,-0.2533791 -0.203649,-0.4570025 -0.457007,-0.4570025 z"
     id="rect839"
     inkscape:connector-curvature="0"
     sodipodi:nodetypes="sssssssss" />
  <path
     inkscape:connector-curvature="0"
     style="fill:#000000;fill-opacity:0.31372549;stroke:none"
     d="m 1.1288892,11.456473 0,0.502694 c 0,0.253351 0.2052603,0.458611 0.4586112,0.458611 l 10.3716666,0 c 0.253351,0 0.458611,-0.20526 0.458611,-0.458611 l 0,-0.502694 c 0,0.25335 -0.20526,0.449777 -0.458611,0.449777 l -10.3716666,0 c -0.2533509,0 -0.4586112,-0.196427 -0.4586112,-0.449777 z"
     id="path4943" />
  <path
     inkscape:connector-curvature="0"
     style="fill:#000000;fill-opacity:0.31372549;stroke:none"
     d="m 1.1288892,11.791611 0,0.167556 c 0,0.253351 0.2052603,0.458611 0.4586112,0.458611 l 10.3716666,0 c 0.253351,0 0.458611,-0.20526 0.458611,-0.458611 l 0,-0.167556 c 0,0.253351 -0.20526,0.458612 -0.458611,0.458612 l -10.3716666,0 c -0.2533509,0 -0.4586112,-0.205261 -0.4586112,-0.458612 z"
     id="path4948" />
  <g
     id="g10821"
     transform="matrix(0.28222223,0,0,0.28222223,3.297741e-7,-283.45334)">
    <path
       id="rect846-7"
       d="m 7.4539099e-7,1049.3622 0,1.0625 c 0,1.0773 0.86022300460901,1.9375 1.93750005460901,1.9375 l 44.1249992,0 c 1.07728,0 1.9375,-0.8602 1.9375,-1.9375 l 0,-1.0625 c 0,1.0773 -0.86022,1.9375 -1.9375,1.9375 l -44.1249992,0 c -1.07727705,0 -1.93750005460901,-0.8602 -1.93750005460901,-1.9375 z"
       style="fill:#000000;fill-opacity:1;stroke:none"
       inkscape:connector-curvature="0" />
    <path
       id="path7515-9"
       d="m 2.5312508,1005.0185 c -0.917088,0 -1.67114705,0.6395 -1.84375005,1.5 0.33561205,-0.2799 0.77451205,-0.4375 1.25000005,-0.4375 l 44.1249992,0 c 0.47549,0 0.91439,0.1576 1.25,0.4375 -0.1726,-0.8605 -0.92666,-1.5 -1.84375,-1.5 l -42.9374992,0 z"
       style="fill:#ffffff;fill-opacity:0.5372549;stroke:none"
       inkscape:connector-curvature="0" />
    <path
       id="rect4280-5"
       d="m 1.9375008,1004.3622 c -1.07727705,0 -1.93750005460901,0.8602 -1.93750005460901,1.9375 l 0,43.0625 c 0,0.7934 0.48002400460901,1.449 1.15625005460901,1.75 -0.30934105,-0.3333 -0.50000005,-0.7824 -0.50000005,-1.2812 l 0,-42.9375 c 0,-1.0482 0.82689905,-1.875 1.87500005,-1.875 l 42.9374992,0 c 1.0481,0 1.875,0.8268 1.875,1.875 l 0,42.9375 c 0,0.4988 -0.19066,0.9479 -0.5,1.2812 0.67623,-0.301 1.15625,-0.9566 1.15625,-1.75 l 0,-43.0625 c 0,-1.0773 -0.86022,-1.9375 -1.9375,-1.9375 l -44.1249992,0 z"
       style="fill:#000000;fill-opacity:0.39215686;stroke:none"
       inkscape:connector-curvature="0" />
  </g>
  <rect
     style="fill:none;stroke:none"
     id="rect1526"
     width="13.546667"
     height="13.546667"
     x="-3.6977411e-07"
     y="-5.0941103e-06"
     ry="0" />
  <path
     inkscape:connector-curvature="0"
     id="path4749"
     d="m 1.7345283,2.3706665 0,0.2728143 0,0.5456285 0,0.2728143 0.2728143,0 0.5456285,0 0,-0.2728143 0,-0.8184428 -0.5456285,0 -0.2728143,0 z m 1.1573293,0 0,0.2728143 0,0.5456285 0,0.2728143 0.2728143,0 0.5456285,0 0,-0.2728143 0,-0.8184428 -0.5456285,0 -0.2728143,0 z m 1.1573291,0 0,0.2728143 0.2728143,0 0,0.5456285 -0.2728143,0 0,0.2728143 0.2728143,0 0.2728143,0 0.2728142,0 0,-0.2728143 -0.2728142,0 0,-0.8184428 -0.2728143,0 -0.2728143,0 z m 1.1578623,0 0,0.2728143 0,0.5456285 0,0.2728143 0.2728142,0 0.5456286,0 0,-0.2728143 0,-0.8184428 -0.5456286,0 -0.2728142,0 z m 1.1573294,0 0,0.2728143 0,0.5456285 0,0.2728143 0.2728142,0 0.5456286,0 0,-0.2728143 0,-0.8184428 -0.5456286,0 -0.2728142,0 z m 1.1573291,0 0,0.2728143 0.2728143,0 0,0.5456285 -0.2728143,0 0,0.2728143 0.2728143,0 0.2728142,0 0.2728143,0 0,-0.2728143 -0.2728143,0 0,-0.8184428 -0.2728142,0 -0.2728143,0 z m 1.1573294,0 0,0.2728143 0.2728143,0 0,0.5456285 -0.2728143,0 0,0.2728143 0.2728143,0 0.2728143,0 0.2728142,0 0,-0.2728143 -0.2728142,0 0,-0.8184428 -0.2728143,0 -0.2728143,0 z m 1.1573292,0 0,0.2728143 0.2728139,0 0,0.5456285 -0.2728139,0 0,0.2728143 0.2728139,0 0.272815,0 0.272814,0 0,-0.2728143 -0.272814,0 0,-0.8184428 -0.272815,0 -0.2728139,0 z m 1.1573299,0 0,0.2728143 0.272814,0 0,0.5456285 -0.272814,0 0,0.2728143 0.272814,0 0.272814,0 0.272815,0 0,-0.2728143 -0.272815,0 0,-0.8184428 -0.272814,0 -0.272814,0 z m -8.9863534,0.2728143 0.2728143,0 0,0.5456285 -0.2728143,0 0,-0.5456285 z m 1.1573293,0 0.2728142,0 0,0.5456285 -0.2728142,0 0,-0.5456285 z m 2.3151913,0 0.2728143,0 0,0.5456285 -0.2728143,0 0,-0.5456285 z m 1.1573294,0 0.2728143,0 0,0.5456285 -0.2728143,0 0,-0.5456285 z m -4.9026643,1.31505 0,0.2728143 0,0.5456285 0,0.2728143 0.2728143,0 0.5456285,0 0,-0.2728143 0,-0.8184428 -0.5456285,0 -0.2728143,0 z m 1.1573293,0 0,0.2728143 0.2728143,0 0,0.5456285 -0.2728143,0 0,0.2728143 0.2728143,0 0.2728142,0 0.2728143,0 0,-0.2728143 -0.2728143,0 0,-0.8184428 -0.2728142,0 -0.2728143,0 z m 1.1573291,0 0,0.2728143 0,0.5456285 0,0.2728143 0.2728143,0 0.5456285,0 0,-0.2728143 0,-0.8184428 -0.5456285,0 -0.2728143,0 z m 1.1573295,0 0,0.2728143 0,0.5456285 0,0.2728143 0.2728142,0 0.5456286,0 0,-0.2728143 0,-0.8184428 -0.5456286,0 -0.2728142,0 z m 1.1578622,0 0,0.2728143 0.2728142,0 0,0.5456285 -0.2728142,0 0,0.2728143 0.2728142,0 0.2728143,0 0.2728143,0 0,-0.2728143 -0.2728143,0 0,-0.8184428 -0.2728143,0 -0.2728142,0 z m 1.1573291,0 0,0.2728143 0,0.5456285 0,0.2728143 0.2728143,0 0.5456285,0 0,-0.2728143 0,-0.8184428 -0.5456285,0 -0.2728143,0 z m 1.1573294,0 0,0.2728143 0,0.5456285 0,0.2728143 0.2728143,0 0.5456285,0 0,-0.2728143 0,-0.8184428 -0.5456285,0 -0.2728143,0 z m 1.1573292,0 0,0.2728143 0,0.5456285 0,0.2728143 0.2728139,0 0.545629,0 0,-0.2728143 0,-0.8184428 -0.545629,0 -0.2728139,0 z m 1.1573299,0 0,0.2728143 0,0.5456285 0,0.2728143 0.272814,0 0.545629,0 0,-0.2728143 0,-0.8184428 -0.545629,0 -0.272814,0 z m -8.9863534,0.2728143 0.2728143,0 0,0.5456285 -0.2728143,0 0,-0.5456285 z m 2.3146584,0 0.2728143,0 0,0.5456285 -0.2728143,0 0,-0.5456285 z m 1.1573294,0 0.2728143,0 0,0.5456285 -0.2728143,0 0,-0.5456285 z m 2.3151914,0 0.2728142,0 0,0.5456285 -0.2728142,0 0,-0.5456285 z m 1.1573294,0 0.2728143,0 0,0.5456285 -0.2728143,0 0,-0.5456285 z m 1.1573288,0 0.272815,0 0,0.5456285 -0.272815,0 0,-0.5456285 z m 1.15733,0 0.272814,0 0,0.5456285 -0.272814,0 0,-0.5456285 z m -9.5319817,1.3150501 0,0.2728143 0.2728143,0 0,0.5456285 -0.2728143,0 0,0.2728143 0.2728143,0 0.2728143,0 0.2728142,0 0,-0.2728143 -0.2728142,0 0,-0.8184428 -0.2728143,0 -0.2728143,0 z m 1.1573293,0 0,0.2728143 0,0.5456285 0,0.2728143 0.2728143,0 0.5456285,0 0,-0.2728143 0,-0.8184428 -0.5456285,0 -0.2728143,0 z m 1.1573291,0 0,0.2728143 0.2728143,0 0,0.5456285 -0.2728143,0 0,0.2728143 0.2728143,0 0.2728143,0 0.2728142,0 0,-0.2728143 -0.2728142,0 0,-0.8184428 -0.2728143,0 -0.2728143,0 z m 1.1573295,0 0,0.2728143 0.2728142,0 0,0.5456285 -0.2728142,0 0,0.2728143 0.2728142,0 0.2728143,0 0.2728143,0 0,-0.2728143 -0.2728143,0 0,-0.8184428 -0.2728143,0 -0.2728142,0 z m 1.1578622,0 0,0.2728143 0,0.5456285 0,0.2728143 0.2728142,0 0.5456286,0 0,-0.2728143 0,-0.8184428 -0.5456286,0 -0.2728142,0 z m 1.1573291,0 0,0.2728143 0.2728143,0 0,0.5456285 -0.2728143,0 0,0.2728143 0.2728143,0 0.2728142,0 0.2728143,0 0,-0.2728143 -0.2728143,0 0,-0.8184428 -0.2728142,0 -0.2728143,0 z m 1.1573294,0 0,0.2728143 0.2728143,0 0,0.5456285 -0.2728143,0 0,0.2728143 0.2728143,0 0.2728143,0 0.2728142,0 0,-0.2728143 -0.2728142,0 0,-0.8184428 -0.2728143,0 -0.2728143,0 z m 1.1573292,0 0,0.2728143 0.2728139,0 0,0.5456285 -0.2728139,0 0,0.2728143 0.2728139,0 0.272815,0 0.272814,0 0,-0.2728143 -0.272814,0 0,-0.8184428 -0.272815,0 -0.2728139,0 z m 1.1573299,0 0,0.2728143 0.272814,0 0,0.5456285 -0.272814,0 0,0.2728143 0.272814,0 0.272814,0 0.272815,0 0,-0.2728143 -0.272815,0 0,-0.8184428 -0.272814,0 -0.272814,0 z m -7.8290241,0.2728143 0.2728142,0 0,0.5456285 -0.2728142,0 0,-0.5456285 z m 3.4725207,0 0.2728143,0 0,0.5456285 -0.2728143,0 0,-0.5456285 z m -4.9026643,1.3150499 0,0.2728142 0,0.5456286 0,0.2728142 0.2728143,0 0.5456285,0 0,-0.2728142 0,-0.8184428 -0.5456285,0 -0.2728143,0 z m 1.1573293,0 0,0.2728142 0,0.5456286 0,0.2728142 0.2728143,0 0.5456285,0 0,-0.2728142 0,-0.8184428 -0.5456285,0 -0.2728143,0 z m 1.1573291,0 0,0.2728142 0.2728143,0 0,0.5456286 -0.2728143,0 0,0.2728142 0.2728143,0 0.2728143,0 0.2728142,0 0,-0.2728142 -0.2728142,0 0,-0.8184428 -0.2728143,0 -0.2728143,0 z m 1.1578623,0 0,0.2728142 0,0.5456286 0,0.2728142 0.2728142,0 0.5456286,0 0,-0.2728142 0,-0.8184428 -0.5456286,0 -0.2728142,0 z m 1.1573294,0 0,0.2728142 0,0.5456286 0,0.2728142 0.2728142,0 0.5456286,0 0,-0.2728142 0,-0.8184428 -0.5456286,0 -0.2728142,0 z m 1.1573291,0 0,0.2728142 0.2728143,0 0,0.5456286 -0.2728143,0 0,0.2728142 0.2728143,0 0.2728142,0 0.2728143,0 0,-0.2728142 -0.2728143,0 0,-0.8184428 -0.2728142,0 -0.2728143,0 z m 1.1573294,0 0,0.2728142 0.2728143,0 0,0.5456286 -0.2728143,0 0,0.2728142 0.2728143,0 0.2728143,0 0.2728142,0 0,-0.2728142 -0.2728142,0 0,-0.8184428 -0.2728143,0 -0.2728143,0 z m 1.1573292,0 0,0.2728142 0.2728139,0 0,0.5456286 -0.2728139,0 0,0.2728142 0.2728139,0 0.272815,0 0.272814,0 0,-0.2728142 -0.272814,0 0,-0.8184428 -0.272815,0 -0.2728139,0 z m 1.1573299,0 0,0.2728142 0.272814,0 0,0.5456286 -0.272814,0 0,0.2728142 0.272814,0 0.272814,0 0.272815,0 0,-0.2728142 -0.272815,0 0,-0.8184428 -0.272814,0 -0.272814,0 z m -8.9863534,0.2728142 0.2728143,0 0,0.5456286 -0.2728143,0 0,-0.5456286 z m 1.1573293,0 0.2728142,0 0,0.5456286 -0.2728142,0 0,-0.5456286 z m 2.3151913,0 0.2728143,0 0,0.5456286 -0.2728143,0 0,-0.5456286 z m 1.1573294,0 0.2728143,0 0,0.5456286 -0.2728143,0 0,-0.5456286 z m -4.9026643,1.315583 0,0.2728143 0,0.5456285 0,0.2728143 0.2728143,0 0.5456285,0 0,-0.2728143 0,-0.8184428 -0.5456285,0 -0.2728143,0 z m 1.1573293,0 0,0.2728143 0.2728143,0 0,0.5456285 -0.2728143,0 0,0.2728143 0.2728143,0 0.2728142,0 0.2728143,0 0,-0.2728143 -0.2728143,0 0,-0.8184428 -0.2728142,0 -0.2728143,0 z m 1.1573291,0 0,0.2728143 0,0.5456285 0,0.2728143 0.2728143,0 0.5456285,0 0,-0.2728143 0,-0.8184428 -0.5456285,0 -0.2728143,0 z m 1.1573295,0 0,0.2728143 0,0.5456285 0,0.2728143 0.2728142,0 0.5456286,0 0,-0.2728143 0,-0.8184428 -0.5456286,0 -0.2728142,0 z m 1.1578622,0 0,0.2728143 0.2728142,0 0,0.5456285 -0.2728142,0 0,0.2728143 0.2728142,0 0.2728143,0 0.2728143,0 0,-0.2728143 -0.2728143,0 0,-0.8184428 -0.2728143,0 -0.2728142,0 z m 1.1573291,0 0,0.2728143 0,0.5456285 0,0.2728143 0.2728143,0 0.5456285,0 0,-0.2728143 0,-0.8184428 -0.5456285,0 -0.2728143,0 z m 1.1573294,0 0,0.2728143 0,0.5456285 0,0.2728143 0.2728143,0 0.5456285,0 0,-0.2728143 0,-0.8184428 -0.5456285,0 -0.2728143,0 z m 1.1573292,0 0,0.2728143 0,0.5456285 0,0.2728143 0.2728139,0 0.545629,0 0,-0.2728143 0,-0.8184428 -0.545629,0 -0.2728139,0 z m 1.1573299,0 0,0.2728143 0,0.5456285 0,0.2728143 0.272814,0 0.545629,0 0,-0.2728143 0,-0.8184428 -0.545629,0 -0.272814,0 z m -8.9863534,0.2728143 0.2728143,0 0,0.5456285 -0.2728143,0 0,-0.5456285 z m 2.3146584,0 0.2728143,0 0,0.5456285 -0.2728143,0 0,-0.5456285 z m 1.1573294,0 0.2728143,0 0,0.5456285 -0.2728143,0 0,-0.5456285 z m 2.3151914,0 0.2728142,0 0,0.5456285 -0.2728142,0 0,-0.5456285 z m 1.1573294,0 0.2728143,0 0,0.5456285 -0.2728143,0 0,-0.5456285 z m 1.1573288,0 0.272815,0 0,0.5456285 -0.272815,0 0,-0.5456285 z m 1.15733,0 0.272814,0 0,0.5456285 -0.272814,0 0,-0.5456285 z m -9.5319817,1.3150501 0,0.272814 0.2728143,0 0,0.545628 -0.2728143,0 0,0.272815 0.2728143,0 0.2728143,0 0.2728142,0 0,-0.272815 -0.2728142,0 0,-0.818442 -0.2728143,0 -0.2728143,0 z m 1.1573293,0 0,0.272814 0,0.545628 0,0.272815 0.2728143,0 0.5456285,0 0,-0.272815 0,-0.818442 -0.5456285,0 -0.2728143,0 z m 1.1573291,0 0,0.272814 0.2728143,0 0,0.545628 -0.2728143,0 0,0.272815 0.2728143,0 0.2728143,0 0.2728142,0 0,-0.272815 -0.2728142,0 0,-0.818442 -0.2728143,0 -0.2728143,0 z m 1.1573295,0 0,0.272814 0.2728142,0 0,0.545628 -0.2728142,0 0,0.272815 0.2728142,0 0.2728143,0 0.2728143,0 0,-0.272815 -0.2728143,0 0,-0.818442 -0.2728143,0 -0.2728142,0 z m 1.1578622,0 0,0.272814 0,0.545628 0,0.272815 0.2728142,0 0.5456286,0 0,-0.272815 0,-0.818442 -0.5456286,0 -0.2728142,0 z m 1.1573291,0 0,0.272814 0.2728143,0 0,0.545628 -0.2728143,0 0,0.272815 0.2728143,0 0.2728142,0 0.2728143,0 0,-0.272815 -0.2728143,0 0,-0.818442 -0.2728142,0 -0.2728143,0 z m 1.1573294,0 0,0.272814 0.2728143,0 0,0.545628 -0.2728143,0 0,0.272815 0.2728143,0 0.2728143,0 0.2728142,0 0,-0.272815 -0.2728142,0 0,-0.818442 -0.2728143,0 -0.2728143,0 z m 1.1573292,0 0,0.272814 0.2728139,0 0,0.545628 -0.2728139,0 0,0.272815 0.2728139,0 0.272815,0 0.272814,0 0,-0.272815 -0.272814,0 0,-0.818442 -0.272815,0 -0.2728139,0 z m 1.1573299,0 0,0.272814 0.272814,0 0,0.545628 -0.272814,0 0,0.272815 0.272814,0 0.272814,0 0.272815,0 0,-0.272815 -0.272815,0 0,-0.818442 -0.272814,0 -0.272814,0 z m -7.8290241,0.272814 0.2728142,0 0,0.545628 -0.2728142,0 0,-0.545628 z m 3.4725207,0 0.2728143,0 0,0.545628 -0.2728143,0 0,-0.545628 z"
     style="fill:#ffffff;fill-opacity:0.48148149" />
  <path
     style="fill:#000000;fill-opacity:0.11758481"
     d="m 1.7345283,2.116667 0,0.2728143 0,0.5456285 0,0.2728143 0.2728143,0 0.5456285,0 0,-0.2728143 0,-0.8184428 -0.5456285,0 -0.2728143,0 z m 1.1573293,0 0,0.2728143 0,0.5456285 0,0.2728143 0.2728143,0 0.5456285,0 0,-0.2728143 0,-0.8184428 -0.5456285,0 -0.2728143,0 z m 1.1573291,0 0,0.2728143 0.2728143,0 0,0.5456285 -0.2728143,0 0,0.2728143 0.2728143,0 0.2728143,0 0.2728142,0 0,-0.2728143 -0.2728142,0 0,-0.8184428 -0.2728143,0 -0.2728143,0 z m 1.1578623,0 0,0.2728143 0,0.5456285 0,0.2728143 0.2728142,0 0.5456286,0 0,-0.2728143 0,-0.8184428 -0.5456286,0 -0.2728142,0 z m 1.1573294,0 0,0.2728143 0,0.5456285 0,0.2728143 0.2728142,0 0.5456286,0 0,-0.2728143 0,-0.8184428 -0.5456286,0 -0.2728142,0 z m 1.1573291,0 0,0.2728143 0.2728143,0 0,0.5456285 -0.2728143,0 0,0.2728143 0.2728143,0 0.2728142,0 0.2728143,0 0,-0.2728143 -0.2728143,0 0,-0.8184428 -0.2728142,0 -0.2728143,0 z m 1.1573294,0 0,0.2728143 0.2728143,0 0,0.5456285 -0.2728143,0 0,0.2728143 0.2728143,0 0.2728143,0 0.2728142,0 0,-0.2728143 -0.2728142,0 0,-0.8184428 -0.2728143,0 -0.2728143,0 z m 1.1573292,0 0,0.2728143 0.2728139,0 0,0.5456285 -0.2728139,0 0,0.2728143 0.2728139,0 0.272815,0 0.272814,0 0,-0.2728143 -0.272814,0 0,-0.8184428 -0.272815,0 -0.2728139,0 z m 1.1573299,0 0,0.2728143 0.272814,0 0,0.5456285 -0.272814,0 0,0.2728143 0.272814,0 0.272814,0 0.272815,0 0,-0.2728143 -0.272815,0 0,-0.8184428 -0.272814,0 -0.272814,0 z m -8.9863534,0.2728143 0.2728143,0 0,0.5456285 -0.2728143,0 0,-0.5456285 z m 1.1573293,0 0.2728142,0 0,0.5456285 -0.2728142,0 0,-0.5456285 z m 2.3151913,0 0.2728143,0 0,0.5456285 -0.2728143,0 0,-0.5456285 z m 1.1573294,0 0.2728143,0 0,0.5456285 -0.2728143,0 0,-0.5456285 z m -4.9026643,1.31505 0,0.2728143 0,0.5456285 0,0.2728143 0.2728143,0 0.5456285,0 0,-0.2728143 0,-0.8184428 -0.5456285,0 -0.2728143,0 z m 1.1573293,0 0,0.2728143 0.2728143,0 0,0.5456285 -0.2728143,0 0,0.2728143 0.2728143,0 0.2728142,0 0.2728143,0 0,-0.2728143 -0.2728143,0 0,-0.8184428 -0.2728142,0 -0.2728143,0 z m 1.1573291,0 0,0.2728143 0,0.5456285 0,0.2728143 0.2728143,0 0.5456285,0 0,-0.2728143 0,-0.8184428 -0.5456285,0 -0.2728143,0 z m 1.1573295,0 0,0.2728143 0,0.5456285 0,0.2728143 0.2728142,0 0.5456286,0 0,-0.2728143 0,-0.8184428 -0.5456286,0 -0.2728142,0 z m 1.1578622,0 0,0.2728143 0.2728142,0 0,0.5456285 -0.2728142,0 0,0.2728143 0.2728142,0 0.2728143,0 0.2728143,0 0,-0.2728143 -0.2728143,0 0,-0.8184428 -0.2728143,0 -0.2728142,0 z m 1.1573291,0 0,0.2728143 0,0.5456285 0,0.2728143 0.2728143,0 0.5456285,0 0,-0.2728143 0,-0.8184428 -0.5456285,0 -0.2728143,0 z m 1.1573294,0 0,0.2728143 0,0.5456285 0,0.2728143 0.2728143,0 0.5456285,0 0,-0.2728143 0,-0.8184428 -0.5456285,0 -0.2728143,0 z m 1.1573292,0 0,0.2728143 0,0.5456285 0,0.2728143 0.2728139,0 0.545629,0 0,-0.2728143 0,-0.8184428 -0.545629,0 -0.2728139,0 z m 1.1573299,0 0,0.2728143 0,0.5456285 0,0.2728143 0.272814,0 0.545629,0 0,-0.2728143 0,-0.8184428 -0.545629,0 -0.272814,0 z m -8.9863534,0.2728143 0.2728143,0 0,0.5456285 -0.2728143,0 0,-0.5456285 z m 2.3146584,0 0.2728143,0 0,0.5456285 -0.2728143,0 0,-0.5456285 z m 1.1573294,0 0.2728143,0 0,0.5456285 -0.2728143,0 0,-0.5456285 z m 2.3151914,0 0.2728142,0 0,0.5456285 -0.2728142,0 0,-0.5456285 z m 1.1573294,0 0.2728143,0 0,0.5456285 -0.2728143,0 0,-0.5456285 z m 1.1573288,0 0.272815,0 0,0.5456285 -0.272815,0 0,-0.5456285 z m 1.15733,0 0.272814,0 0,0.5456285 -0.272814,0 0,-0.5456285 z m -9.5319817,1.3150501 0,0.2728143 0.2728143,0 0,0.5456285 -0.2728143,0 0,0.2728143 0.2728143,0 0.2728143,0 0.2728142,0 0,-0.2728143 -0.2728142,0 0,-0.8184428 -0.2728143,0 -0.2728143,0 z m 1.1573293,0 0,0.2728143 0,0.5456285 0,0.2728143 0.2728143,0 0.5456285,0 0,-0.2728143 0,-0.8184428 -0.5456285,0 -0.2728143,0 z m 1.1573291,0 0,0.2728143 0.2728143,0 0,0.5456285 -0.2728143,0 0,0.2728143 0.2728143,0 0.2728143,0 0.2728142,0 0,-0.2728143 -0.2728142,0 0,-0.8184428 -0.2728143,0 -0.2728143,0 z m 1.1573295,0 0,0.2728143 0.2728142,0 0,0.5456285 -0.2728142,0 0,0.2728143 0.2728142,0 0.2728143,0 0.2728143,0 0,-0.2728143 -0.2728143,0 0,-0.8184428 -0.2728143,0 -0.2728142,0 z m 1.1578622,0 0,0.2728143 0,0.5456285 0,0.2728143 0.2728142,0 0.5456286,0 0,-0.2728143 0,-0.8184428 -0.5456286,0 -0.2728142,0 z m 1.1573291,0 0,0.2728143 0.2728143,0 0,0.5456285 -0.2728143,0 0,0.2728143 0.2728143,0 0.2728142,0 0.2728143,0 0,-0.2728143 -0.2728143,0 0,-0.8184428 -0.2728142,0 -0.2728143,0 z m 1.1573294,0 0,0.2728143 0.2728143,0 0,0.5456285 -0.2728143,0 0,0.2728143 0.2728143,0 0.2728143,0 0.2728142,0 0,-0.2728143 -0.2728142,0 0,-0.8184428 -0.2728143,0 -0.2728143,0 z m 1.1573292,0 0,0.2728143 0.2728139,0 0,0.5456285 -0.2728139,0 0,0.2728143 0.2728139,0 0.272815,0 0.272814,0 0,-0.2728143 -0.272814,0 0,-0.8184428 -0.272815,0 -0.2728139,0 z m 1.1573299,0 0,0.2728143 0.272814,0 0,0.5456285 -0.272814,0 0,0.2728143 0.272814,0 0.272814,0 0.272815,0 0,-0.2728143 -0.272815,0 0,-0.8184428 -0.272814,0 -0.272814,0 z M 3.1646719,5.56521 l 0.2728142,0 0,0.5456285 -0.2728142,0 0,-0.5456285 z m 3.4725207,0 0.2728143,0 0,0.5456285 -0.2728143,0 0,-0.5456285 z m -4.9026643,1.3150499 0,0.2728142 0,0.5456286 0,0.2728142 0.2728143,0 0.5456285,0 0,-0.2728142 0,-0.8184428 -0.5456285,0 -0.2728143,0 z m 1.1573293,0 0,0.2728142 0,0.5456286 0,0.2728142 0.2728143,0 0.5456285,0 0,-0.2728142 0,-0.8184428 -0.5456285,0 -0.2728143,0 z m 1.1573291,0 0,0.2728142 0.2728143,0 0,0.5456286 -0.2728143,0 0,0.2728142 0.2728143,0 0.2728143,0 0.2728142,0 0,-0.2728142 -0.2728142,0 0,-0.8184428 -0.2728143,0 -0.2728143,0 z m 1.1578623,0 0,0.2728142 0,0.5456286 0,0.2728142 0.2728142,0 0.5456286,0 0,-0.2728142 0,-0.8184428 -0.5456286,0 -0.2728142,0 z m 1.1573294,0 0,0.2728142 0,0.5456286 0,0.2728142 0.2728142,0 0.5456286,0 0,-0.2728142 0,-0.8184428 -0.5456286,0 -0.2728142,0 z m 1.1573291,0 0,0.2728142 0.2728143,0 0,0.5456286 -0.2728143,0 0,0.2728142 0.2728143,0 0.2728142,0 0.2728143,0 0,-0.2728142 -0.2728143,0 0,-0.8184428 -0.2728142,0 -0.2728143,0 z m 1.1573294,0 0,0.2728142 0.2728143,0 0,0.5456286 -0.2728143,0 0,0.2728142 0.2728143,0 0.2728143,0 0.2728142,0 0,-0.2728142 -0.2728142,0 0,-0.8184428 -0.2728143,0 -0.2728143,0 z m 1.1573292,0 0,0.2728142 0.2728139,0 0,0.5456286 -0.2728139,0 0,0.2728142 0.2728139,0 0.272815,0 0.272814,0 0,-0.2728142 -0.272814,0 0,-0.8184428 -0.272815,0 -0.2728139,0 z m 1.1573299,0 0,0.2728142 0.272814,0 0,0.5456286 -0.272814,0 0,0.2728142 0.272814,0 0.272814,0 0.272815,0 0,-0.2728142 -0.272815,0 0,-0.8184428 -0.272814,0 -0.272814,0 z m -8.9863534,0.2728142 0.2728143,0 0,0.5456286 -0.2728143,0 0,-0.5456286 z m 1.1573293,0 0.2728142,0 0,0.5456286 -0.2728142,0 0,-0.5456286 z m 2.3151913,0 0.2728143,0 0,0.5456286 -0.2728143,0 0,-0.5456286 z m 1.1573294,0 0.2728143,0 0,0.5456286 -0.2728143,0 0,-0.5456286 z m -4.9026643,1.315583 0,0.2728143 0,0.5456285 0,0.2728143 0.2728143,0 0.5456285,0 0,-0.2728143 0,-0.8184428 -0.5456285,0 -0.2728143,0 z m 1.1573293,0 0,0.2728143 0.2728143,0 0,0.5456285 -0.2728143,0 0,0.2728143 0.2728143,0 0.2728142,0 0.2728143,0 0,-0.2728143 -0.2728143,0 0,-0.8184428 -0.2728142,0 -0.2728143,0 z m 1.1573291,0 0,0.2728143 0,0.5456285 0,0.2728143 0.2728143,0 0.5456285,0 0,-0.2728143 0,-0.8184428 -0.5456285,0 -0.2728143,0 z m 1.1573295,0 0,0.2728143 0,0.5456285 0,0.2728143 0.2728142,0 0.5456286,0 0,-0.2728143 0,-0.8184428 -0.5456286,0 -0.2728142,0 z m 1.1578622,0 0,0.2728143 0.2728142,0 0,0.5456285 -0.2728142,0 0,0.2728143 0.2728142,0 0.2728143,0 0.2728143,0 0,-0.2728143 -0.2728143,0 0,-0.8184428 -0.2728143,0 -0.2728142,0 z m 1.1573291,0 0,0.2728143 0,0.5456285 0,0.2728143 0.2728143,0 0.5456285,0 0,-0.2728143 0,-0.8184428 -0.5456285,0 -0.2728143,0 z m 1.1573294,0 0,0.2728143 0,0.5456285 0,0.2728143 0.2728143,0 0.5456285,0 0,-0.2728143 0,-0.8184428 -0.5456285,0 -0.2728143,0 z m 1.1573292,0 0,0.2728143 0,0.5456285 0,0.2728143 0.2728139,0 0.545629,0 0,-0.2728143 0,-0.8184428 -0.545629,0 -0.2728139,0 z m 1.1573299,0 0,0.2728143 0,0.5456285 0,0.2728143 0.272814,0 0.545629,0 0,-0.2728143 0,-0.8184428 -0.545629,0 -0.272814,0 z m -8.9863534,0.2728143 0.2728143,0 0,0.5456285 -0.2728143,0 0,-0.5456285 z m 2.3146584,0 0.2728143,0 0,0.5456285 -0.2728143,0 0,-0.5456285 z m 1.1573294,0 0.2728143,0 0,0.5456285 -0.2728143,0 0,-0.5456285 z m 2.3151914,0 0.2728142,0 0,0.5456285 -0.2728142,0 0,-0.5456285 z m 1.1573294,0 0.2728143,0 0,0.5456285 -0.2728143,0 0,-0.5456285 z m 1.1573288,0 0.272815,0 0,0.5456285 -0.272815,0 0,-0.5456285 z m 1.15733,0 0.272814,0 0,0.5456285 -0.272814,0 0,-0.5456285 z m -9.5319817,1.3150496 0,0.272814 0.2728143,0 0,0.545628 -0.2728143,0 0,0.272815 0.2728143,0 0.2728143,0 0.2728142,0 0,-0.272815 -0.2728142,0 0,-0.818442 -0.2728143,0 -0.2728143,0 z m 1.1573293,0 0,0.272814 0,0.545628 0,0.272815 0.2728143,0 0.5456285,0 0,-0.272815 0,-0.818442 -0.5456285,0 -0.2728143,0 z m 1.1573291,0 0,0.272814 0.2728143,0 0,0.545628 -0.2728143,0 0,0.272815 0.2728143,0 0.2728143,0 0.2728142,0 0,-0.272815 -0.2728142,0 0,-0.818442 -0.2728143,0 -0.2728143,0 z m 1.1573295,0 0,0.272814 0.2728142,0 0,0.545628 -0.2728142,0 0,0.272815 0.2728142,0 0.2728143,0 0.2728143,0 0,-0.272815 -0.2728143,0 0,-0.818442 -0.2728143,0 -0.2728142,0 z m 1.1578622,0 0,0.272814 0,0.545628 0,0.272815 0.2728142,0 0.5456286,0 0,-0.272815 0,-0.818442 -0.5456286,0 -0.2728142,0 z m 1.1573291,0 0,0.272814 0.2728143,0 0,0.545628 -0.2728143,0 0,0.272815 0.2728143,0 0.2728142,0 0.2728143,0 0,-0.272815 -0.2728143,0 0,-0.818442 -0.2728142,0 -0.2728143,0 z m 1.1573294,0 0,0.272814 0.2728143,0 0,0.545628 -0.2728143,0 0,0.272815 0.2728143,0 0.2728143,0 0.2728142,0 0,-0.272815 -0.2728142,0 0,-0.818442 -0.2728143,0 -0.2728143,0 z m 1.1573292,0 0,0.272814 0.2728139,0 0,0.545628 -0.2728139,0 0,0.272815 0.2728139,0 0.272815,0 0.272814,0 0,-0.272815 -0.272814,0 0,-0.818442 -0.272815,0 -0.2728139,0 z m 1.1573299,0 0,0.272814 0.272814,0 0,0.545628 -0.272814,0 0,0.272815 0.272814,0 0.272814,0 0.272815,0 0,-0.272815 -0.272815,0 0,-0.818442 -0.272814,0 -0.272814,0 z m -7.8290241,0.272814 0.2728142,0 0,0.545628 -0.2728142,0 0,-0.545628 z m 3.4725207,0 0.2728143,0 0,0.545628 -0.2728143,0 0,-0.545628 z"
     id="path4751"
     inkscape:connector-curvature="0" />
  <path
     style="fill:#2d2d2d"
     d="m 1.7345283,2.2577776 0,0.2728143 0,0.5456285 0,0.2728143 0.2728143,0 0.5456285,0 0,-0.2728143 0,-0.8184428 -0.5456285,0 -0.2728143,0 z m 1.1573293,0 0,0.2728143 0,0.5456285 0,0.2728143 0.2728143,0 0.5456285,0 0,-0.2728143 0,-0.8184428 -0.5456285,0 -0.2728143,0 z m 1.1573291,0 0,0.2728143 0.2728143,0 0,0.5456285 -0.2728143,0 0,0.2728143 0.2728143,0 0.2728143,0 0.2728142,0 0,-0.2728143 -0.2728142,0 0,-0.8184428 -0.2728143,0 -0.2728143,0 z m 1.1578623,0 0,0.2728143 0,0.5456285 0,0.2728143 0.2728142,0 0.5456286,0 0,-0.2728143 0,-0.8184428 -0.5456286,0 -0.2728142,0 z m 1.1573294,0 0,0.2728143 0,0.5456285 0,0.2728143 0.2728142,0 0.5456286,0 0,-0.2728143 0,-0.8184428 -0.5456286,0 -0.2728142,0 z m 1.1573291,0 0,0.2728143 0.2728143,0 0,0.5456285 -0.2728143,0 0,0.2728143 0.2728143,0 0.2728142,0 0.2728143,0 0,-0.2728143 -0.2728143,0 0,-0.8184428 -0.2728142,0 -0.2728143,0 z m 1.1573294,0 0,0.2728143 0.2728143,0 0,0.5456285 -0.2728143,0 0,0.2728143 0.2728143,0 0.2728143,0 0.2728142,0 0,-0.2728143 -0.2728142,0 0,-0.8184428 -0.2728143,0 -0.2728143,0 z m 1.1573292,0 0,0.2728143 0.2728139,0 0,0.5456285 -0.2728139,0 0,0.2728143 0.2728139,0 0.272815,0 0.272814,0 0,-0.2728143 -0.272814,0 0,-0.8184428 -0.272815,0 -0.2728139,0 z m 1.1573299,0 0,0.2728143 0.272814,0 0,0.5456285 -0.272814,0 0,0.2728143 0.272814,0 0.272814,0 0.272815,0 0,-0.2728143 -0.272815,0 0,-0.8184428 -0.272814,0 -0.272814,0 z m -8.9863534,0.2728143 0.2728143,0 0,0.5456285 -0.2728143,0 0,-0.5456285 z m 1.1573293,0 0.2728142,0 0,0.5456285 -0.2728142,0 0,-0.5456285 z m 2.3151913,0 0.2728143,0 0,0.5456285 -0.2728143,0 0,-0.5456285 z m 1.1573294,0 0.2728143,0 0,0.5456285 -0.2728143,0 0,-0.5456285 z m -4.9026643,1.31505 0,0.2728143 0,0.5456285 0,0.2728143 0.2728143,0 0.5456285,0 0,-0.2728143 0,-0.8184428 -0.5456285,0 -0.2728143,0 z m 1.1573293,0 0,0.2728143 0.2728143,0 0,0.5456285 -0.2728143,0 0,0.2728143 0.2728143,0 0.2728142,0 0.2728143,0 0,-0.2728143 -0.2728143,0 0,-0.8184428 -0.2728142,0 -0.2728143,0 z m 1.1573291,0 0,0.2728143 0,0.5456285 0,0.2728143 0.2728143,0 0.5456285,0 0,-0.2728143 0,-0.8184428 -0.5456285,0 -0.2728143,0 z m 1.1573295,0 0,0.2728143 0,0.5456285 0,0.2728143 0.2728142,0 0.5456286,0 0,-0.2728143 0,-0.8184428 -0.5456286,0 -0.2728142,0 z m 1.1578622,0 0,0.2728143 0.2728142,0 0,0.5456285 -0.2728142,0 0,0.2728143 0.2728142,0 0.2728143,0 0.2728143,0 0,-0.2728143 -0.2728143,0 0,-0.8184428 -0.2728143,0 -0.2728142,0 z m 1.1573291,0 0,0.2728143 0,0.5456285 0,0.2728143 0.2728143,0 0.5456285,0 0,-0.2728143 0,-0.8184428 -0.5456285,0 -0.2728143,0 z m 1.1573294,0 0,0.2728143 0,0.5456285 0,0.2728143 0.2728143,0 0.5456285,0 0,-0.2728143 0,-0.8184428 -0.5456285,0 -0.2728143,0 z m 1.1573292,0 0,0.2728143 0,0.5456285 0,0.2728143 0.2728139,0 0.545629,0 0,-0.2728143 0,-0.8184428 -0.545629,0 -0.2728139,0 z m 1.1573299,0 0,0.2728143 0,0.5456285 0,0.2728143 0.272814,0 0.545629,0 0,-0.2728143 0,-0.8184428 -0.545629,0 -0.272814,0 z m -8.9863534,0.2728143 0.2728143,0 0,0.5456285 -0.2728143,0 0,-0.5456285 z m 2.3146584,0 0.2728143,0 0,0.5456285 -0.2728143,0 0,-0.5456285 z m 1.1573294,0 0.2728143,0 0,0.5456285 -0.2728143,0 0,-0.5456285 z m 2.3151914,0 0.2728142,0 0,0.5456285 -0.2728142,0 0,-0.5456285 z m 1.1573294,0 0.2728143,0 0,0.5456285 -0.2728143,0 0,-0.5456285 z m 1.1573288,0 0.272815,0 0,0.5456285 -0.272815,0 0,-0.5456285 z m 1.15733,0 0.272814,0 0,0.5456285 -0.272814,0 0,-0.5456285 z m -9.5319817,1.3150501 0,0.2728143 0.2728143,0 0,0.5456285 -0.2728143,0 0,0.2728143 0.2728143,0 0.2728143,0 0.2728142,0 0,-0.2728143 -0.2728142,0 0,-0.8184428 -0.2728143,0 -0.2728143,0 z m 1.1573293,0 0,0.2728143 0,0.5456285 0,0.2728143 0.2728143,0 0.5456285,0 0,-0.2728143 0,-0.8184428 -0.5456285,0 -0.2728143,0 z m 1.1573291,0 0,0.2728143 0.2728143,0 0,0.5456285 -0.2728143,0 0,0.2728143 0.2728143,0 0.2728143,0 0.2728142,0 0,-0.2728143 -0.2728142,0 0,-0.8184428 -0.2728143,0 -0.2728143,0 z m 1.1573295,0 0,0.2728143 0.2728142,0 0,0.5456285 -0.2728142,0 0,0.2728143 0.2728142,0 0.2728143,0 0.2728143,0 0,-0.2728143 -0.2728143,0 0,-0.8184428 -0.2728143,0 -0.2728142,0 z m 1.1578622,0 0,0.2728143 0,0.5456285 0,0.2728143 0.2728142,0 0.5456286,0 0,-0.2728143 0,-0.8184428 -0.5456286,0 -0.2728142,0 z m 1.1573291,0 0,0.2728143 0.2728143,0 0,0.5456285 -0.2728143,0 0,0.2728143 0.2728143,0 0.2728142,0 0.2728143,0 0,-0.2728143 -0.2728143,0 0,-0.8184428 -0.2728142,0 -0.2728143,0 z m 1.1573294,0 0,0.2728143 0.2728143,0 0,0.5456285 -0.2728143,0 0,0.2728143 0.2728143,0 0.2728143,0 0.2728142,0 0,-0.2728143 -0.2728142,0 0,-0.8184428 -0.2728143,0 -0.2728143,0 z m 1.1573292,0 0,0.2728143 0.2728139,0 0,0.5456285 -0.2728139,0 0,0.2728143 0.2728139,0 0.272815,0 0.272814,0 0,-0.2728143 -0.272814,0 0,-0.8184428 -0.272815,0 -0.2728139,0 z m 1.1573299,0 0,0.2728143 0.272814,0 0,0.5456285 -0.272814,0 0,0.2728143 0.272814,0 0.272814,0 0.272815,0 0,-0.2728143 -0.272815,0 0,-0.8184428 -0.272814,0 -0.272814,0 z m -7.8290241,0.2728143 0.2728142,0 0,0.5456285 -0.2728142,0 0,-0.5456285 z m 3.4725207,0 0.2728143,0 0,0.5456285 -0.2728143,0 0,-0.5456285 z m -4.9026643,1.3150499 0,0.2728142 0,0.5456286 0,0.2728142 0.2728143,0 0.5456285,0 0,-0.2728142 0,-0.8184428 -0.5456285,0 -0.2728143,0 z m 1.1573293,0 0,0.2728142 0,0.5456286 0,0.2728142 0.2728143,0 0.5456285,0 0,-0.2728142 0,-0.8184428 -0.5456285,0 -0.2728143,0 z m 1.1573291,0 0,0.2728142 0.2728143,0 0,0.5456286 -0.2728143,0 0,0.2728142 0.2728143,0 0.2728143,0 0.2728142,0 0,-0.2728142 -0.2728142,0 0,-0.8184428 -0.2728143,0 -0.2728143,0 z m 1.1578623,0 0,0.2728142 0,0.5456286 0,0.2728142 0.2728142,0 0.5456286,0 0,-0.2728142 0,-0.8184428 -0.5456286,0 -0.2728142,0 z m 1.1573294,0 0,0.2728142 0,0.5456286 0,0.2728142 0.2728142,0 0.5456286,0 0,-0.2728142 0,-0.8184428 -0.5456286,0 -0.2728142,0 z m 1.1573291,0 0,0.2728142 0.2728143,0 0,0.5456286 -0.2728143,0 0,0.2728142 0.2728143,0 0.2728142,0 0.2728143,0 0,-0.2728142 -0.2728143,0 0,-0.8184428 -0.2728142,0 -0.2728143,0 z m 1.1573294,0 0,0.2728142 0.2728143,0 0,0.5456286 -0.2728143,0 0,0.2728142 0.2728143,0 0.2728143,0 0.2728142,0 0,-0.2728142 -0.2728142,0 0,-0.8184428 -0.2728143,0 -0.2728143,0 z m 1.1573292,0 0,0.2728142 0.2728139,0 0,0.5456286 -0.2728139,0 0,0.2728142 0.2728139,0 0.272815,0 0.272814,0 0,-0.2728142 -0.272814,0 0,-0.8184428 -0.272815,0 -0.2728139,0 z m 1.1573299,0 0,0.2728142 0.272814,0 0,0.5456286 -0.272814,0 0,0.2728142 0.272814,0 0.272814,0 0.272815,0 0,-0.2728142 -0.272815,0 0,-0.8184428 -0.272814,0 -0.272814,0 z m -8.9863534,0.2728142 0.2728143,0 0,0.5456286 -0.2728143,0 0,-0.5456286 z m 1.1573293,0 0.2728142,0 0,0.5456286 -0.2728142,0 0,-0.5456286 z m 2.3151913,0 0.2728143,0 0,0.5456286 -0.2728143,0 0,-0.5456286 z m 1.1573294,0 0.2728143,0 0,0.5456286 -0.2728143,0 0,-0.5456286 z m -4.9026643,1.315583 0,0.2728143 0,0.5456285 0,0.2728143 0.2728143,0 0.5456285,0 0,-0.2728143 0,-0.8184428 -0.5456285,0 -0.2728143,0 z m 1.1573293,0 0,0.2728143 0.2728143,0 0,0.5456285 -0.2728143,0 0,0.2728143 0.2728143,0 0.2728142,0 0.2728143,0 0,-0.2728143 -0.2728143,0 0,-0.8184428 -0.2728142,0 -0.2728143,0 z m 1.1573291,0 0,0.2728143 0,0.5456285 0,0.2728143 0.2728143,0 0.5456285,0 0,-0.2728143 0,-0.8184428 -0.5456285,0 -0.2728143,0 z m 1.1573295,0 0,0.2728143 0,0.5456285 0,0.2728143 0.2728142,0 0.5456286,0 0,-0.2728143 0,-0.8184428 -0.5456286,0 -0.2728142,0 z m 1.1578622,0 0,0.2728143 0.2728142,0 0,0.5456285 -0.2728142,0 0,0.2728143 0.2728142,0 0.2728143,0 0.2728143,0 0,-0.2728143 -0.2728143,0 0,-0.8184428 -0.2728143,0 -0.2728142,0 z m 1.1573291,0 0,0.2728143 0,0.5456285 0,0.2728143 0.2728143,0 0.5456285,0 0,-0.2728143 0,-0.8184428 -0.5456285,0 -0.2728143,0 z m 1.1573294,0 0,0.2728143 0,0.5456285 0,0.2728143 0.2728143,0 0.5456285,0 0,-0.2728143 0,-0.8184428 -0.5456285,0 -0.2728143,0 z m 1.1573292,0 0,0.2728143 0,0.5456285 0,0.2728143 0.2728139,0 0.545629,0 0,-0.2728143 0,-0.8184428 -0.545629,0 -0.2728139,0 z m 1.1573299,0 0,0.2728143 0,0.5456285 0,0.2728143 0.272814,0 0.545629,0 0,-0.2728143 0,-0.8184428 -0.545629,0 -0.272814,0 z m -8.9863534,0.2728143 0.2728143,0 0,0.5456285 -0.2728143,0 0,-0.5456285 z m 2.3146584,0 0.2728143,0 0,0.5456285 -0.2728143,0 0,-0.5456285 z m 1.1573294,0 0.2728143,0 0,0.5456285 -0.2728143,0 0,-0.5456285 z m 2.3151914,0 0.2728142,0 0,0.5456285 -0.2728142,0 0,-0.5456285 z m 1.1573294,0 0.2728143,0 0,0.5456285 -0.2728143,0 0,-0.5456285 z m 1.1573288,0 0.272815,0 0,0.5456285 -0.272815,0 0,-0.5456285 z m 1.15733,0 0.272814,0 0,0.5456285 -0.272814,0 0,-0.5456285 z m -9.5319817,1.31505 0,0.272814 0.2728143,0 0,0.545628 -0.2728143,0 0,0.272815 0.2728143,0 0.2728143,0 0.2728142,0 0,-0.272815 -0.2728142,0 0,-0.818442 -0.2728143,0 -0.2728143,0 z m 1.1573293,0 0,0.272814 0,0.545628 0,0.272815 0.2728143,0 0.5456285,0 0,-0.272815 0,-0.818442 -0.5456285,0 -0.2728143,0 z m 1.1573291,0 0,0.272814 0.2728143,0 0,0.545628 -0.2728143,0 0,0.272815 0.2728143,0 0.2728143,0 0.2728142,0 0,-0.272815 -0.2728142,0 0,-0.818442 -0.2728143,0 -0.2728143,0 z m 1.1573295,0 0,0.272814 0.2728142,0 0,0.545628 -0.2728142,0 0,0.272815 0.2728142,0 0.2728143,0 0.2728143,0 0,-0.272815 -0.2728143,0 0,-0.818442 -0.2728143,0 -0.2728142,0 z m 1.1578622,0 0,0.272814 0,0.545628 0,0.272815 0.2728142,0 0.5456286,0 0,-0.272815 0,-0.818442 -0.5456286,0 -0.2728142,0 z m 1.1573291,0 0,0.272814 0.2728143,0 0,0.545628 -0.2728143,0 0,0.272815 0.2728143,0 0.2728142,0 0.2728143,0 0,-0.272815 -0.2728143,0 0,-0.818442 -0.2728142,0 -0.2728143,0 z m 1.1573294,0 0,0.272814 0.2728143,0 0,0.545628 -0.2728143,0 0,0.272815 0.2728143,0 0.2728143,0 0.2728142,0 0,-0.272815 -0.2728142,0 0,-0.818442 -0.2728143,0 -0.2728143,0 z m 1.1573292,0 0,0.272814 0.2728139,0 0,0.545628 -0.2728139,0 0,0.272815 0.2728139,0 0.272815,0 0.272814,0 0,-0.272815 -0.272814,0 0,-0.818442 -0.272815,0 -0.2728139,0 z m 1.1573299,0 0,0.272814 0.272814,0 0,0.545628 -0.272814,0 0,0.272815 0.272814,0 0.272814,0 0.272815,0 0,-0.272815 -0.272815,0 0,-0.818442 -0.272814,0 -0.272814,0 z m -7.8290241,0.272814 0.2728142,0 0,0.545628 -0.2728142,0 0,-0.545628 z m 3.4725207,0 0.2728143,0 0,0.545628 -0.2728143,0 0,-0.545628 z"
     id="path4559-8"
     inkscape:connector-curvature="0" />
</svg>
