<?xml version="1.0" encoding="UTF-8" standalone="no"?>
<!-- Created with Inkscape (http://www.inkscape.org/) -->

<svg
   xmlns:dc="http://purl.org/dc/elements/1.1/"
   xmlns:cc="http://creativecommons.org/ns#"
   xmlns:rdf="http://www.w3.org/1999/02/22-rdf-syntax-ns#"
   xmlns:svg="http://www.w3.org/2000/svg"
   xmlns="http://www.w3.org/2000/svg"
   xmlns:xlink="http://www.w3.org/1999/xlink"
   xmlns:sodipodi="http://sodipodi.sourceforge.net/DTD/sodipodi-0.dtd"
   xmlns:inkscape="http://www.inkscape.org/namespaces/inkscape"
   width="48"
   height="48"
   id="svg2"
   version="1.1"
   inkscape:version="0.49 r12742"
   sodipodi:docname="blogilo.svg">
  <defs
     id="defs4">
    <linearGradient
       id="linearGradient4001"
       inkscape:collect="always">
      <stop
         id="stop4003"
         offset="0"
         style="stop-color:#c0bebe;stop-opacity:1" />
      <stop
         id="stop4005"
         offset="1"
         style="stop-color:#f2f7f7;stop-opacity:1" />
    </linearGradient>
    <linearGradient
       id="linearGradient3795-1-2">
      <stop
         id="stop3797-1-9"
         offset="0"
         style="stop-color:#272b30;stop-opacity:1" />
      <stop
         id="stop3799-3-6"
         offset="1"
         style="stop-color:#282c31;stop-opacity:1" />
    </linearGradient>
    <linearGradient
       gradientTransform="matrix(0.95237789,0,0,0.95237799,1.1428663,48.972578)"
       gradientUnits="userSpaceOnUse"
       y2="1007.3755"
       x2="22.45064"
       y1="1049.29"
       x1="22.45064"
       id="linearGradient4007"
       xlink:href="#linearGradient4001"
       inkscape:collect="always" />
    <linearGradient
       gradientTransform="translate(-63.327693,-9.7643189)"
       gradientUnits="userSpaceOnUse"
       y2="-994.90985"
       x2="88.429985"
       y1="-1042.1093"
       x1="88.429985"
       id="linearGradient929"
       xlink:href="#linearGradient3795-1-2"
       inkscape:collect="always" />
    <linearGradient
       inkscape:collect="always"
       id="linearGradient137480">
      <stop
         style="stop-color:#5a5a5a;stop-opacity:1"
         offset="0"
         id="stop137482" />
      <stop
         style="stop-color:#101010;stop-opacity:1"
         offset="1"
         id="stop137484" />
    </linearGradient>
    <linearGradient
       x1="0"
       y1="0"
       x2="1"
       y2="0"
       gradientUnits="userSpaceOnUse"
       gradientTransform="matrix(13.526835,20.525875,20.525875,-13.526835,19.18986,1021.0543)"
       spreadMethod="pad"
       id="linearGradient6194">
      <stop
         style="stop-opacity:1;stop-color:#ffffff"
         offset="0"
         id="stop6196" />
      <stop
         style="stop-opacity:1;stop-color:#29282b"
         offset="0.168498"
         id="stop6198" />
      <stop
         style="stop-opacity:1;stop-color:#868c95"
         offset="0.263736"
         id="stop6200" />
      <stop
         style="stop-opacity:1;stop-color:#92979f"
         offset="0.395604"
         id="stop6202" />
      <stop
         style="stop-opacity:1;stop-color:#737881"
         offset="0.542125"
         id="stop6204" />
      <stop
         style="stop-opacity:1;stop-color:#70757e"
         offset="0.626374"
         id="stop6206" />
      <stop
         style="stop-opacity:1;stop-color:#e4e6e8"
         offset="0.717949"
         id="stop6208" />
      <stop
         style="stop-opacity:1;stop-color:#ffffff"
         offset="0.791209"
         id="stop6210" />
      <stop
         style="stop-opacity:1;stop-color:#1d191a"
         offset="1"
         id="stop6212" />
    </linearGradient>
    <linearGradient
       gradientTransform="translate(0.50002588,0)"
       gradientUnits="userSpaceOnUse"
       y2="-34.624512"
       x2="1012.3622"
       y1="-34.624512"
       x1="1004.3131"
       id="linearGradient4768"
       xlink:href="#linearGradient6194"
       inkscape:collect="always" />
    <linearGradient
       gradientTransform="translate(0.50002588,2)"
       y2="-34.624512"
       x2="1012.3622"
       y1="-34.624512"
       x1="1004.3131"
       gradientUnits="userSpaceOnUse"
       id="linearGradient4772"
       xlink:href="#linearGradient6194"
       inkscape:collect="always" />
    <linearGradient
       y2="-34.624512"
       x2="1012.3622"
       y1="-34.624512"
       x1="1004.3131"
       gradientTransform="translate(0.50002588,9.249021)"
       gradientUnits="userSpaceOnUse"
       id="linearGradient4776"
       xlink:href="#linearGradient6194"
       inkscape:collect="always" />
    <linearGradient
       y2="-34.624512"
       x2="1012.3622"
       y1="-34.624512"
       x1="1004.3131"
       gradientTransform="translate(0.50002588,11.249021)"
       gradientUnits="userSpaceOnUse"
       id="linearGradient4780"
       xlink:href="#linearGradient6194"
       inkscape:collect="always" />
    <linearGradient
       y2="-34.624512"
       x2="1012.3622"
       y1="-34.624512"
       x1="1004.3131"
       gradientTransform="translate(0.50002588,22)"
       gradientUnits="userSpaceOnUse"
       id="linearGradient4788"
       xlink:href="#linearGradient6194"
       inkscape:collect="always" />
    <linearGradient
       y2="-34.624512"
       x2="1012.3622"
       y1="-34.624512"
       x1="1004.3131"
       gradientTransform="translate(0.50002588,20)"
       gradientUnits="userSpaceOnUse"
       id="linearGradient4792"
       xlink:href="#linearGradient6194"
       inkscape:collect="always" />
    <linearGradient
       gradientTransform="matrix(1.1578948,0,0,2.6595742,-159.62035,19.577131)"
       gradientUnits="userSpaceOnUse"
       y2="-13.205674"
       x2="1011.5395"
       y1="-13.205674"
       x1="1013.4686"
       id="linearGradient4863"
       xlink:href="#linearGradient137480"
       inkscape:collect="always" />
    <linearGradient
       y2="-13.205674"
       x2="1011.5395"
       y1="-13.205674"
       x1="1013.4686"
       gradientTransform="matrix(1.1578948,0,0,2.6595742,-159.62035,-0.42286811)"
       gradientUnits="userSpaceOnUse"
       id="linearGradient4871"
       xlink:href="#linearGradient137480"
       inkscape:collect="always" />
    <linearGradient
       y2="-13.205674"
       x2="1011.5395"
       y1="-13.205674"
       x1="1013.4686"
       gradientTransform="matrix(1.1578948,0,0,2.6595742,-159.62035,9.2016413)"
       gradientUnits="userSpaceOnUse"
       id="linearGradient4883"
       xlink:href="#linearGradient137480"
       inkscape:collect="always" />
    <linearGradient
       id="linearGradient6453"
       inkscape:collect="always">
      <stop
         id="stop6455"
         offset="0"
         style="stop-color:#ffffff;stop-opacity:1;" />
      <stop
         id="stop6457"
         offset="1"
         style="stop-color:#ffffff;stop-opacity:0;" />
    </linearGradient>
    <linearGradient
       inkscape:collect="always"
       id="linearGradient6436">
      <stop
         style="stop-color:#908f7d;stop-opacity:1"
         offset="0"
         id="stop6438" />
      <stop
         style="stop-color:#2d3538;stop-opacity:1"
         offset="1"
         id="stop6440" />
    </linearGradient>
    <linearGradient
       id="linearGradient6413"
       inkscape:collect="always">
      <stop
         id="stop6415"
         offset="0"
         style="stop-color:#eed39b;stop-opacity:1" />
      <stop
         id="stop6417"
         offset="1"
         style="stop-color:#bc6a2d;stop-opacity:1" />
    </linearGradient>
    <linearGradient
       id="linearGradient6405"
       inkscape:collect="always">
      <stop
         id="stop6407"
         offset="0"
         style="stop-color:#99491c;stop-opacity:1;" />
      <stop
         id="stop6409"
         offset="1"
         style="stop-color:#99491c;stop-opacity:0;" />
    </linearGradient>
    <linearGradient
       inkscape:collect="always"
       id="linearGradient6381">
      <stop
         style="stop-color:#0f0e1c;stop-opacity:0.18324608"
         offset="0"
         id="stop6383" />
      <stop
         style="stop-color:#0f0e1c;stop-opacity:0;"
         offset="1"
         id="stop6385" />
    </linearGradient>
    <linearGradient
       id="linearGradient6365"
       inkscape:collect="always">
      <stop
         id="stop6367"
         offset="0"
         style="stop-color:#fef0ac;stop-opacity:1;" />
      <stop
         id="stop6369"
         offset="1"
         style="stop-color:#fef0ac;stop-opacity:0;" />
    </linearGradient>
    <linearGradient
       id="linearGradient6357"
       inkscape:collect="always">
      <stop
         id="stop6359"
         offset="0"
         style="stop-color:#be7c04;stop-opacity:1" />
      <stop
         id="stop6361"
         offset="1"
         style="stop-color:#fbd61f;stop-opacity:0;" />
    </linearGradient>
    <linearGradient
       inkscape:collect="always"
       id="linearGradient6349">
      <stop
         style="stop-color:#bf4e3a;stop-opacity:1"
         offset="0"
         id="stop6351" />
      <stop
         style="stop-color:#0f0e1c;stop-opacity:0;"
         offset="1"
         id="stop6353" />
    </linearGradient>
    <linearGradient
       id="linearGradient6337"
       inkscape:collect="always">
      <stop
         id="stop6339"
         offset="0"
         style="stop-color:#ee6b6a;stop-opacity:1;" />
      <stop
         id="stop6341"
         offset="1"
         style="stop-color:#eb5453;stop-opacity:1" />
    </linearGradient>
    <linearGradient
       id="linearGradient6138"
       inkscape:collect="always">
      <stop
         id="stop6140"
         offset="0"
         style="stop-color:#0f0e1c;stop-opacity:1;" />
      <stop
         id="stop6142"
         offset="1"
         style="stop-color:#0f0e1c;stop-opacity:0;" />
    </linearGradient>
    <linearGradient
       x1="0"
       y1="0"
       x2="1"
       y2="0"
       gradientUnits="userSpaceOnUse"
       gradientTransform="matrix(13.526835,20.525875,20.525875,-13.526835,19.18986,1021.0543)"
       spreadMethod="pad"
       id="linearGradient6194-6">
      <stop
         style="stop-opacity:1;stop-color:#ffffff"
         offset="0"
         id="stop6196-4" />
      <stop
         style="stop-opacity:1;stop-color:#29282b"
         offset="0.168498"
         id="stop6198-2" />
      <stop
         style="stop-opacity:1;stop-color:#868c95"
         offset="0.263736"
         id="stop6200-17" />
      <stop
         style="stop-opacity:1;stop-color:#92979f"
         offset="0.395604"
         id="stop6202-4" />
      <stop
         style="stop-opacity:1;stop-color:#737881"
         offset="0.542125"
         id="stop6204-4" />
      <stop
         style="stop-opacity:1;stop-color:#70757e"
         offset="0.626374"
         id="stop6206-5" />
      <stop
         style="stop-opacity:1;stop-color:#e4e6e8"
         offset="0.717949"
         id="stop6208-4" />
      <stop
         style="stop-opacity:1;stop-color:#ffffff"
         offset="0.791209"
         id="stop6210-0" />
      <stop
         style="stop-opacity:1;stop-color:#1d191a"
         offset="1"
         id="stop6212-4" />
    </linearGradient>
    <linearGradient
       gradientTransform="matrix(0.48308685,0.48308685,-0.4817572,0.4817572,51.93319,558.88054)"
       gradientUnits="userSpaceOnUse"
       y2="500.73779"
       x2="461.60092"
       y1="500.73779"
       x1="451.12973"
       id="linearGradient6343"
       xlink:href="#linearGradient6337"
       inkscape:collect="always" />
    <linearGradient
       gradientTransform="matrix(-0.39088837,-0.39088837,-0.38981247,0.38981247,405.03678,1004.1232)"
       y2="500.73779"
       x2="461.60092"
       y1="500.73779"
       x1="451.12973"
       gradientUnits="userSpaceOnUse"
       id="linearGradient6347"
       xlink:href="#linearGradient6349"
       inkscape:collect="always" />
    <linearGradient
       gradientTransform="matrix(0.48308685,0.48308685,-0.4817572,0.4817572,-3.06668,985.44324)"
       gradientUnits="userSpaceOnUse"
       y2="18.070829"
       x2="69.409843"
       y1="18.070829"
       x1="76.542366"
       id="linearGradient6363"
       xlink:href="#linearGradient6357"
       inkscape:collect="always" />
    <linearGradient
       gradientTransform="matrix(0.48308685,0.48308685,-0.61264245,0.61264245,119.66725,491.14648)"
       gradientUnits="userSpaceOnUse"
       y2="516.13843"
       x2="452.08917"
       y1="516.13843"
       x1="455.20972"
       id="linearGradient6371"
       xlink:href="#linearGradient6365"
       inkscape:collect="always" />
    <linearGradient
       y2="516.13843"
       x2="452.77002"
       y1="516.13843"
       x1="456.34448"
       gradientTransform="matrix(0.48308685,0.48308685,-0.61264245,0.61264245,121.80518,493.2844)"
       gradientUnits="userSpaceOnUse"
       id="linearGradient6375"
       xlink:href="#linearGradient6365"
       inkscape:collect="always" />
    <linearGradient
       y2="516.13843"
       x2="452.77002"
       y1="516.13843"
       x1="455.09625"
       gradientTransform="matrix(-0.48308685,-0.48308685,-0.61264245,0.61264245,558.53019,930.00942)"
       gradientUnits="userSpaceOnUse"
       id="linearGradient6379"
       xlink:href="#linearGradient6381"
       inkscape:collect="always" />
    <linearGradient
       y2="516.13843"
       x2="452.20264"
       y1="516.13843"
       x1="454.24518"
       gradientTransform="matrix(-0.48308685,-0.48308685,-0.61264245,0.61264245,560.66816,932.14735)"
       gradientUnits="userSpaceOnUse"
       id="linearGradient6389"
       xlink:href="#linearGradient6381"
       inkscape:collect="always" />
    <linearGradient
       gradientTransform="matrix(0.48308685,0.48308685,-0.4817572,0.4817572,51.93319,558.88054)"
       gradientUnits="userSpaceOnUse"
       y2="533.07416"
       x2="458.99316"
       y1="532.39209"
       x1="457.18777"
       id="linearGradient6411"
       xlink:href="#linearGradient6405"
       inkscape:collect="always" />
    <linearGradient
       gradientTransform="matrix(0.48308685,0.48308685,-0.4817572,0.4817572,-3.06668,985.44324)"
       gradientUnits="userSpaceOnUse"
       y2="33.436611"
       x2="74.983406"
       y1="33.436611"
       x1="68.644516"
       id="linearGradient6419"
       xlink:href="#linearGradient6413"
       inkscape:collect="always" />
    <linearGradient
       gradientTransform="matrix(-0.36852036,-0.36852036,-0.36750602,0.36750602,379.69828,1007.9672)"
       y2="532.76477"
       x2="457.76062"
       y1="533.50854"
       x1="460.04016"
       gradientUnits="userSpaceOnUse"
       id="linearGradient6423"
       xlink:href="#linearGradient6365"
       inkscape:collect="always" />
    <linearGradient
       gradientTransform="matrix(0.48308685,0.48308685,-0.4817572,0.4817572,-3.06668,985.44324)"
       y2="37.950058"
       x2="72.415756"
       y1="37.950058"
       x1="71.11187"
       gradientUnits="userSpaceOnUse"
       id="linearGradient6433"
       xlink:href="#linearGradient6436"
       inkscape:collect="always" />
    <linearGradient
       gradientTransform="matrix(0.48308685,0.48308685,-0.4817572,0.4817572,50.29318,560.52056)"
       y2="500.73779"
       x2="461.60092"
       y1="500.73779"
       x1="451.12973"
       gradientUnits="userSpaceOnUse"
       id="linearGradient6444"
       xlink:href="#linearGradient6194-6"
       inkscape:collect="always" />
    <linearGradient
       gradientTransform="matrix(0.48308685,0.48308685,-0.4817572,0.4817572,-3.06668,985.44324)"
       gradientUnits="userSpaceOnUse"
       y2="0.71569508"
       x2="68.818954"
       y1="-2.5004838"
       x1="66.350433"
       id="linearGradient6459"
       xlink:href="#linearGradient6453"
       inkscape:collect="always" />
    <linearGradient
       y2="502.47391"
       x2="455.94089"
       y1="498.03061"
       x1="455.94089"
       gradientTransform="matrix(-0.51192701,-0.51192701,-0.1076542,0.1076542,317.02019,1202.0447)"
       gradientUnits="userSpaceOnUse"
       id="linearGradient6463"
       xlink:href="#linearGradient6138"
       inkscape:collect="always" />
  </defs>
  <sodipodi:namedview
     id="base"
     pagecolor="#ffffff"
     bordercolor="#666666"
     borderopacity="1.0"
     inkscape:pageopacity="0.0"
     inkscape:pageshadow="2"
     inkscape:zoom="8.421875"
     inkscape:cx="24.988535"
     inkscape:cy="34.480791"
     inkscape:document-units="px"
     inkscape:current-layer="layer1"
     showgrid="false"
     inkscape:window-width="1366"
     inkscape:window-height="718"
     inkscape:window-x="-2"
     inkscape:window-y="23"
     inkscape:window-maximized="1">
    <inkscape:grid
       type="xygrid"
       id="grid3850" />
  </sodipodi:namedview>
  <metadata
     id="metadata7">
    <rdf:RDF>
      <cc:Work
         rdf:about="">
        <dc:format>image/svg+xml</dc:format>
        <dc:type
           rdf:resource="http://purl.org/dc/dcmitype/StillImage" />
        <dc:title />
      </cc:Work>
    </rdf:RDF>
  </metadata>
  <g
     inkscape:label="Capa 1"
     inkscape:groupmode="layer"
     id="layer1"
     transform="translate(0,-1004.3622)">
    <rect
       style="fill:url(#linearGradient929);fill-opacity:1;stroke:none"
       id="rect2991-1-5"
       width="48"
       height="48"
       x="-3.153076e-07"
       y="-1052.3622"
       ry="1.9445436"
       transform="scale(1,-1)" />
    <path
       sodipodi:nodetypes="sssssssss"
       inkscape:connector-curvature="0"
       id="path4523"
       d="m 4.7002843,1007.3622 c -0.942615,0 -1.700284,0.7576 -1.700284,1.7002 l 0,38.5995 c 0,0.9426 0.757669,1.7003 1.700284,1.7003 l 38.5994307,0 c 0.942614,0 1.700285,-0.7577 1.700285,-1.7003 l 0,-38.5994 c 0,-0.9427 -0.757671,-1.7003 -1.700285,-1.7003 z"
       style="fill:#000000;fill-opacity:0.23529412;stroke:none" />
    <path
       style="fill:url(#linearGradient4007);fill-opacity:1;stroke:none"
       d="m 5.6193183,1008.3622 c -0.897728,0 -1.619318,0.7215 -1.619318,1.6192 l 0,36.7615 c 0,0.8977 0.72159,1.6193 1.619318,1.6193 l 36.7613627,0 c 0.897728,0 1.619319,-0.7216 1.619319,-1.6193 l 0,-36.7614 c 0,-0.8978 -0.721591,-1.6193 -1.619319,-1.6193 z"
       id="rect839"
       inkscape:connector-curvature="0"
       sodipodi:nodetypes="sssssssss" />
    <path
       inkscape:connector-curvature="0"
       style="fill:#000000;fill-opacity:0.31372549;stroke:none"
       d="m 4.0000003,1044.956 0,1.7812 c 0,0.8977 0.7273,1.625 1.625,1.625 l 36.7499997,0 c 0.8977,0 1.625,-0.7273 1.625,-1.625 l 0,-1.7812 c 0,0.8977 -0.7273,1.5937 -1.625,1.5937 l -36.7499997,0 c -0.8977,0 -1.625,-0.696 -1.625,-1.5937 z"
       id="path4943" />
    <path
       inkscape:connector-curvature="0"
       style="fill:#000000;fill-opacity:0.31372549;stroke:none"
       d="m 4.0000003,1046.1435 0,0.5937 c 0,0.8977 0.7273,1.625 1.625,1.625 l 36.7499997,0 c 0.8977,0 1.625,-0.7273 1.625,-1.625 l 0,-0.5937 c 0,0.8977 -0.7273,1.625 -1.625,1.625 l -36.7499997,0 c -0.8977,0 -1.625,-0.7273 -1.625,-1.625 z"
       id="path4948" />
    <g
       id="g10821"
       transform="translate(3.1530762e-7,-1.0016406e-5)">
      <path
         id="rect846-7"
         d="m 7.4539099e-7,1049.3622 0,1.0625 c 0,1.0773 0.86022300460901,1.9375 1.93750005460901,1.9375 l 44.1249992,0 c 1.07728,0 1.9375,-0.8602 1.9375,-1.9375 l 0,-1.0625 c 0,1.0773 -0.86022,1.9375 -1.9375,1.9375 l -44.1249992,0 c -1.07727705,0 -1.93750005460901,-0.8602 -1.93750005460901,-1.9375 z"
         style="fill:#000000;fill-opacity:1;stroke:none"
         inkscape:connector-curvature="0" />
      <path
         id="path7515-9"
         d="m 2.5312508,1005.0185 c -0.917088,0 -1.67114705,0.6395 -1.84375005,1.5 0.33561205,-0.2799 0.77451205,-0.4375 1.25000005,-0.4375 l 44.1249992,0 c 0.47549,0 0.91439,0.1576 1.25,0.4375 -0.1726,-0.8605 -0.92666,-1.5 -1.84375,-1.5 l -42.9374992,0 z"
         style="fill:#ffffff;fill-opacity:0.5372549;stroke:none"
         inkscape:connector-curvature="0" />
      <path
         id="rect4280-5"
         d="m 1.9375008,1004.3622 c -1.07727705,0 -1.93750005460901,0.8602 -1.93750005460901,1.9375 l 0,43.0625 c 0,0.7934 0.48002400460901,1.449 1.15625005460901,1.75 -0.30934105,-0.3333 -0.50000005,-0.7824 -0.50000005,-1.2812 l 0,-42.9375 c 0,-1.0482 0.82689905,-1.875 1.87500005,-1.875 l 42.9374992,0 c 1.0481,0 1.875,0.8268 1.875,1.875 l 0,42.9375 c 0,0.4988 -0.19066,0.9479 -0.5,1.2812 0.67623,-0.301 1.15625,-0.9566 1.15625,-1.75 l 0,-43.0625 c 0,-1.0773 -0.86022,-1.9375 -1.9375,-1.9375 l -44.1249992,0 z"
         style="fill:#000000;fill-opacity:0.39215686;stroke:none"
         inkscape:connector-curvature="0" />
    </g>
    <rect
       style="fill:none;stroke:none"
       id="rect1526"
       width="48"
       height="48"
       x="-2.1634064e-06"
       y="1004.3622"
       ry="0" />
    <path
       id="rect4953-2"
       d="m 5.8437498,1008.3622 0,1.8438 -1.8437495,0 0,0.3125 1.8437495,0 0,1.6875 -1.8437495,0 0,0.3125 1.8437495,0 0,1.6875 -1.8437495,0 0,0.3125 1.8437495,0 0,1.6875 -1.8437495,0 0,0.3125 1.8437495,0 0,1.6875 -1.8437495,0 0,0.3125 1.8437495,0 0,1.6875 -1.8437495,0 0,0.3125 1.8437495,0 0,1.6875 -1.8437495,0 0,0.3125 1.8437495,0 0,1.6875 -1.8437495,0 0,0.3125 1.8437495,0 0,1.6875 -1.8437495,0 0,0.3125 1.8437495,0 0,1.6875 -1.8437495,0 0,0.3125 1.8437495,0 0,1.6875 -1.8437495,0 0,0.3125 1.8437495,0 0,1.6875 -1.8437495,0 0,0.3125 1.8437495,0 0,1.6875 -1.8437495,0 0,0.3125 1.8437495,0 0,1.6875 -1.8437495,0 0,0.3125 1.8437495,0 0,1.6875 -1.8437495,0 0,0.3125 1.8437495,0 0,1.6875 -1.8437495,0 0,0.3125 1.8437495,0 0,1.6875 -1.8437495,0 0,0.3125 1.8437495,0 0,1.6875 -1.8437495,0 0,0.3125 1.8437495,0 0,1.6875 -1.2187495,0 c 0.1936152,0.1467 0.4378079,0.2634 0.6874995,0.3125 l 0.53125,0 0,0.031 0.3125,0 0,-0.031 1.6875,0 0,0.031 0.3125,0 0,-0.031 1.6875,0 0,0.031 0.3125012,0 0,-0.031 1.6875,0 0,0.031 0.3125,0 0,-0.031 1.6875,0 0,0.031 0.312499,0 0,-0.031 1.6875,0 0,0.031 0.3125,0 0,-0.031 1.6875,0 0,0.031 0.3125,0 0,-0.031 1.6875,0 0,0.031 0.3125,0 0,-0.031 1.6875,0 0,0.031 0.3125,0 0,-0.031 1.6875,0 0,0.031 0.3125,0 0,-0.031 1.6875,0 0,0.031 0.3125,0 0,-0.031 1.6875,0 0,0.031 0.3125,0 0,-0.031 1.6875,0 0,0.031 0.3125,0 0,-0.031 1.6875,0 0,0.031 0.3125,0 0,-0.031 1.6875,0 0,0.031 0.3125,0 0,-0.031 1.6875,0 0,0.031 0.3125,0 0,-0.031 1.6875,0 0,0.031 0.3125,0 0,-0.031 1.6875,0 0,0.031 0.3125,0 0,-0.031 1.6875,0 0,0.031 0.3125,0 0,-0.031 0.53125,0 c 0.249692,-0.049 0.493885,-0.1658 0.6875,-0.3125 l -1.21875,0 0,-1.6875 1.84375,0 0,-0.3125 -1.84375,0 0,-1.6875 1.84375,0 0,-0.3125 -1.84375,0 0,-1.6875 1.84375,0 0,-0.3125 -1.84375,0 0,-1.6875 1.84375,0 0,-0.3125 -1.84375,0 0,-1.6875 1.84375,0 0,-0.3125 -1.84375,0 0,-1.6875 1.84375,0 0,-0.3125 -1.84375,0 0,-1.6875 1.84375,0 0,-0.3125 -1.84375,0 0,-1.6875 1.84375,0 0,-0.3125 -1.84375,0 0,-1.6875 1.84375,0 0,-0.3125 -1.84375,0 0,-1.6875 1.84375,0 0,-0.3125 -1.84375,0 0,-1.6875 1.84375,0 0,-0.3125 -1.84375,0 0,-1.6875 1.84375,0 0,-0.3125 -1.84375,0 0,-1.6875 1.84375,0 0,-0.3125 -1.84375,0 0,-1.6875 1.84375,0 0,-0.3125 -1.84375,0 0,-1.6875 1.84375,0 0,-0.3125 -1.84375,0 0,-1.6875 1.84375,0 0,-0.3125 -1.84375,0 0,-1.6875 1.84375,0 0,-0.3125 -1.84375,0 0,-1.6875 1.84375,0 0,-0.3125 -1.84375,0 0,-1.8438 -0.3125,0 0,1.8438 -1.6875,0 0,-1.8438 -0.3125,0 0,1.8438 -1.6875,0 0,-1.8438 -0.3125,0 0,1.8438 -1.6875,0 0,-1.8438 -0.3125,0 0,1.8438 -1.6875,0 0,-1.8438 -0.3125,0 0,1.8438 -1.6875,0 0,-1.8438 -0.3125,0 0,1.8438 -1.6875,0 0,-1.8438 -0.3125,0 0,1.8438 -1.6875,0 0,-1.8438 -0.3125,0 0,1.8438 -1.6875,0 0,-1.8438 -0.3125,0 0,1.8438 -1.6875,0 0,-1.8438 -0.3125,0 0,1.8438 -1.6875,0 0,-1.8438 -0.3125,0 0,1.8438 -1.6875,0 0,-1.8438 -0.3125,0 0,1.8438 -1.6875,0 0,-1.8438 -0.3125,0 0,1.8438 -1.6875,0 0,-1.8438 -0.3125,0 0,1.8438 -1.6875,0 0,-1.8438 -0.312499,0 0,1.8438 -1.6875,0 0,-1.8438 -0.3125,0 0,1.8438 -1.6875,0 0,-1.8438 -0.3125013,0 0,1.8438 -1.6875,0 0,-1.8438 -0.3125,0 0,1.8438 -1.6875,0 0,-1.8438 -0.3125,0 z m 0.3125,2.1563 1.6875,0 0,1.6875 -1.6875,0 0,-1.6875 z m 2,0 1.6875,0 0,1.6875 -1.6875,0 0,-1.6875 z m 2.0000012,0 1.6875,0 0,1.6875 -1.6875,0 0,-1.6875 z m 2,0 1.6875,0 0,1.6875 -1.6875,0 0,-1.6875 z m 1.999999,0 1.6875,0 0,1.6875 -1.6875,0 0,-1.6875 z m 2,0 1.6875,0 0,1.6875 -1.6875,0 0,-1.6875 z m 2,0 1.6875,0 0,1.6875 -1.6875,0 0,-1.6875 z m 2,0 1.6875,0 0,1.6875 -1.6875,0 0,-1.6875 z m 2,0 1.6875,0 0,1.6875 -1.6875,0 0,-1.6875 z m 2,0 1.6875,0 0,1.6875 -1.6875,0 0,-1.6875 z m 2,0 1.6875,0 0,1.6875 -1.6875,0 0,-1.6875 z m 2,0 1.6875,0 0,1.6875 -1.6875,0 0,-1.6875 z m 2,0 1.6875,0 0,1.6875 -1.6875,0 0,-1.6875 z m 2,0 1.6875,0 0,1.6875 -1.6875,0 0,-1.6875 z m 2,0 1.6875,0 0,1.6875 -1.6875,0 0,-1.6875 z m 2,0 1.6875,0 0,1.6875 -1.6875,0 0,-1.6875 z m 2,0 1.6875,0 0,1.6875 -1.6875,0 0,-1.6875 z m 2,0 1.6875,0 0,1.6875 -1.6875,0 0,-1.6875 z m -34.0000002,2 1.6875,0 0,1.6875 -1.6875,0 0,-1.6875 z m 2,0 1.6875,0 0,1.6875 -1.6875,0 0,-1.6875 z m 2.0000012,0 1.6875,0 0,1.6875 -1.6875,0 0,-1.6875 z m 2,0 1.6875,0 0,1.6875 -1.6875,0 0,-1.6875 z m 1.999999,0 1.6875,0 0,1.6875 -1.6875,0 0,-1.6875 z m 2,0 1.6875,0 0,1.6875 -1.6875,0 0,-1.6875 z m 2,0 1.6875,0 0,1.6875 -1.6875,0 0,-1.6875 z m 2,0 1.6875,0 0,1.6875 -1.6875,0 0,-1.6875 z m 2,0 1.6875,0 0,1.6875 -1.6875,0 0,-1.6875 z m 2,0 1.6875,0 0,1.6875 -1.6875,0 0,-1.6875 z m 2,0 1.6875,0 0,1.6875 -1.6875,0 0,-1.6875 z m 2,0 1.6875,0 0,1.6875 -1.6875,0 0,-1.6875 z m 2,0 1.6875,0 0,1.6875 -1.6875,0 0,-1.6875 z m 2,0 1.6875,0 0,1.6875 -1.6875,0 0,-1.6875 z m 2,0 1.6875,0 0,1.6875 -1.6875,0 0,-1.6875 z m 2,0 1.6875,0 0,1.6875 -1.6875,0 0,-1.6875 z m 2,0 1.6875,0 0,1.6875 -1.6875,0 0,-1.6875 z m 2,0 1.6875,0 0,1.6875 -1.6875,0 0,-1.6875 z m -34.0000002,2 1.6875,0 0,1.6875 -1.6875,0 0,-1.6875 z m 2,0 1.6875,0 0,1.6875 -1.6875,0 0,-1.6875 z m 2.0000012,0 1.6875,0 0,1.6875 -1.6875,0 0,-1.6875 z m 2,0 1.6875,0 0,1.6875 -1.6875,0 0,-1.6875 z m 1.999999,0 1.6875,0 0,1.6875 -1.6875,0 0,-1.6875 z m 2,0 1.6875,0 0,1.6875 -1.6875,0 0,-1.6875 z m 2,0 1.6875,0 0,1.6875 -1.6875,0 0,-1.6875 z m 2,0 1.6875,0 0,1.6875 -1.6875,0 0,-1.6875 z m 2,0 1.6875,0 0,1.6875 -1.6875,0 0,-1.6875 z m 2,0 1.6875,0 0,1.6875 -1.6875,0 0,-1.6875 z m 2,0 1.6875,0 0,1.6875 -1.6875,0 0,-1.6875 z m 2,0 1.6875,0 0,1.6875 -1.6875,0 0,-1.6875 z m 2,0 1.6875,0 0,1.6875 -1.6875,0 0,-1.6875 z m 2,0 1.6875,0 0,1.6875 -1.6875,0 0,-1.6875 z m 2,0 1.6875,0 0,1.6875 -1.6875,0 0,-1.6875 z m 2,0 1.6875,0 0,1.6875 -1.6875,0 0,-1.6875 z m 2,0 1.6875,0 0,1.6875 -1.6875,0 0,-1.6875 z m 2,0 1.6875,0 0,1.6875 -1.6875,0 0,-1.6875 z m -34.0000002,2 1.6875,0 0,1.6875 -1.6875,0 0,-1.6875 z m 2,0 1.6875,0 0,1.6875 -1.6875,0 0,-1.6875 z m 2.0000012,0 1.6875,0 0,1.6875 -1.6875,0 0,-1.6875 z m 2,0 1.6875,0 0,1.6875 -1.6875,0 0,-1.6875 z m 1.999999,0 1.6875,0 0,1.6875 -1.6875,0 0,-1.6875 z m 2,0 1.6875,0 0,1.6875 -1.6875,0 0,-1.6875 z m 2,0 1.6875,0 0,1.6875 -1.6875,0 0,-1.6875 z m 2,0 1.6875,0 0,1.6875 -1.6875,0 0,-1.6875 z m 2,0 1.6875,0 0,1.6875 -1.6875,0 0,-1.6875 z m 2,0 1.6875,0 0,1.6875 -1.6875,0 0,-1.6875 z m 2,0 1.6875,0 0,1.6875 -1.6875,0 0,-1.6875 z m 2,0 1.6875,0 0,1.6875 -1.6875,0 0,-1.6875 z m 2,0 1.6875,0 0,1.6875 -1.6875,0 0,-1.6875 z m 2,0 1.6875,0 0,1.6875 -1.6875,0 0,-1.6875 z m 2,0 1.6875,0 0,1.6875 -1.6875,0 0,-1.6875 z m 2,0 1.6875,0 0,1.6875 -1.6875,0 0,-1.6875 z m 2,0 1.6875,0 0,1.6875 -1.6875,0 0,-1.6875 z m 2,0 1.6875,0 0,1.6875 -1.6875,0 0,-1.6875 z m -34.0000002,2 1.6875,0 0,1.6875 -1.6875,0 0,-1.6875 z m 2,0 1.6875,0 0,1.6875 -1.6875,0 0,-1.6875 z m 2.0000012,0 1.6875,0 0,1.6875 -1.6875,0 0,-1.6875 z m 2,0 1.6875,0 0,1.6875 -1.6875,0 0,-1.6875 z m 1.999999,0 1.6875,0 0,1.6875 -1.6875,0 0,-1.6875 z m 2,0 1.6875,0 0,1.6875 -1.6875,0 0,-1.6875 z m 2,0 1.6875,0 0,1.6875 -1.6875,0 0,-1.6875 z m 2,0 1.6875,0 0,1.6875 -1.6875,0 0,-1.6875 z m 2,0 1.6875,0 0,1.6875 -1.6875,0 0,-1.6875 z m 2,0 1.6875,0 0,1.6875 -1.6875,0 0,-1.6875 z m 2,0 1.6875,0 0,1.6875 -1.6875,0 0,-1.6875 z m 2,0 1.6875,0 0,1.6875 -1.6875,0 0,-1.6875 z m 2,0 1.6875,0 0,1.6875 -1.6875,0 0,-1.6875 z m 2,0 1.6875,0 0,1.6875 -1.6875,0 0,-1.6875 z m 2,0 1.6875,0 0,1.6875 -1.6875,0 0,-1.6875 z m 2,0 1.6875,0 0,1.6875 -1.6875,0 0,-1.6875 z m 2,0 1.6875,0 0,1.6875 -1.6875,0 0,-1.6875 z m 2,0 1.6875,0 0,1.6875 -1.6875,0 0,-1.6875 z m -34.0000002,2 1.6875,0 0,1.6875 -1.6875,0 0,-1.6875 z m 2,0 1.6875,0 0,1.6875 -1.6875,0 0,-1.6875 z m 2.0000012,0 1.6875,0 0,1.6875 -1.6875,0 0,-1.6875 z m 2,0 1.6875,0 0,1.6875 -1.6875,0 0,-1.6875 z m 1.999999,0 1.6875,0 0,1.6875 -1.6875,0 0,-1.6875 z m 2,0 1.6875,0 0,1.6875 -1.6875,0 0,-1.6875 z m 2,0 1.6875,0 0,1.6875 -1.6875,0 0,-1.6875 z m 2,0 1.6875,0 0,1.6875 -1.6875,0 0,-1.6875 z m 2,0 1.6875,0 0,1.6875 -1.6875,0 0,-1.6875 z m 2,0 1.6875,0 0,1.6875 -1.6875,0 0,-1.6875 z m 2,0 1.6875,0 0,1.6875 -1.6875,0 0,-1.6875 z m 2,0 1.6875,0 0,1.6875 -1.6875,0 0,-1.6875 z m 2,0 1.6875,0 0,1.6875 -1.6875,0 0,-1.6875 z m 2,0 1.6875,0 0,1.6875 -1.6875,0 0,-1.6875 z m 2,0 1.6875,0 0,1.6875 -1.6875,0 0,-1.6875 z m 2,0 1.6875,0 0,1.6875 -1.6875,0 0,-1.6875 z m 2,0 1.6875,0 0,1.6875 -1.6875,0 0,-1.6875 z m 2,0 1.6875,0 0,1.6875 -1.6875,0 0,-1.6875 z m -34.0000002,2 1.6875,0 0,1.6875 -1.6875,0 0,-1.6875 z m 2,0 1.6875,0 0,1.6875 -1.6875,0 0,-1.6875 z m 2.0000012,0 1.6875,0 0,1.6875 -1.6875,0 0,-1.6875 z m 2,0 1.6875,0 0,1.6875 -1.6875,0 0,-1.6875 z m 1.999999,0 1.6875,0 0,1.6875 -1.6875,0 0,-1.6875 z m 2,0 1.6875,0 0,1.6875 -1.6875,0 0,-1.6875 z m 2,0 1.6875,0 0,1.6875 -1.6875,0 0,-1.6875 z m 2,0 1.6875,0 0,1.6875 -1.6875,0 0,-1.6875 z m 2,0 1.6875,0 0,1.6875 -1.6875,0 0,-1.6875 z m 2,0 1.6875,0 0,1.6875 -1.6875,0 0,-1.6875 z m 2,0 1.6875,0 0,1.6875 -1.6875,0 0,-1.6875 z m 2,0 1.6875,0 0,1.6875 -1.6875,0 0,-1.6875 z m 2,0 1.6875,0 0,1.6875 -1.6875,0 0,-1.6875 z m 2,0 1.6875,0 0,1.6875 -1.6875,0 0,-1.6875 z m 2,0 1.6875,0 0,1.6875 -1.6875,0 0,-1.6875 z m 2,0 1.6875,0 0,1.6875 -1.6875,0 0,-1.6875 z m 2,0 1.6875,0 0,1.6875 -1.6875,0 0,-1.6875 z m 2,0 1.6875,0 0,1.6875 -1.6875,0 0,-1.6875 z m -34.0000002,2 1.6875,0 0,1.6875 -1.6875,0 0,-1.6875 z m 2,0 1.6875,0 0,1.6875 -1.6875,0 0,-1.6875 z m 2.0000012,0 1.6875,0 0,1.6875 -1.6875,0 0,-1.6875 z m 2,0 1.6875,0 0,1.6875 -1.6875,0 0,-1.6875 z m 1.999999,0 1.6875,0 0,1.6875 -1.6875,0 0,-1.6875 z m 2,0 1.6875,0 0,1.6875 -1.6875,0 0,-1.6875 z m 2,0 1.6875,0 0,1.6875 -1.6875,0 0,-1.6875 z m 2,0 1.6875,0 0,1.6875 -1.6875,0 0,-1.6875 z m 2,0 1.6875,0 0,1.6875 -1.6875,0 0,-1.6875 z m 2,0 1.6875,0 0,1.6875 -1.6875,0 0,-1.6875 z m 2,0 1.6875,0 0,1.6875 -1.6875,0 0,-1.6875 z m 2,0 1.6875,0 0,1.6875 -1.6875,0 0,-1.6875 z m 2,0 1.6875,0 0,1.6875 -1.6875,0 0,-1.6875 z m 2,0 1.6875,0 0,1.6875 -1.6875,0 0,-1.6875 z m 2,0 1.6875,0 0,1.6875 -1.6875,0 0,-1.6875 z m 2,0 1.6875,0 0,1.6875 -1.6875,0 0,-1.6875 z m 2,0 1.6875,0 0,1.6875 -1.6875,0 0,-1.6875 z m 2,0 1.6875,0 0,1.6875 -1.6875,0 0,-1.6875 z m -34.0000002,2 1.6875,0 0,1.6875 -1.6875,0 0,-1.6875 z m 2,0 1.6875,0 0,1.6875 -1.6875,0 0,-1.6875 z m 2.0000012,0 1.6875,0 0,1.6875 -1.6875,0 0,-1.6875 z m 2,0 1.6875,0 0,1.6875 -1.6875,0 0,-1.6875 z m 1.999999,0 1.6875,0 0,1.6875 -1.6875,0 0,-1.6875 z m 2,0 1.6875,0 0,1.6875 -1.6875,0 0,-1.6875 z m 2,0 1.6875,0 0,1.6875 -1.6875,0 0,-1.6875 z m 2,0 1.6875,0 0,1.6875 -1.6875,0 0,-1.6875 z m 2,0 1.6875,0 0,1.6875 -1.6875,0 0,-1.6875 z m 2,0 1.6875,0 0,1.6875 -1.6875,0 0,-1.6875 z m 2,0 1.6875,0 0,1.6875 -1.6875,0 0,-1.6875 z m 2,0 1.6875,0 0,1.6875 -1.6875,0 0,-1.6875 z m 2,0 1.6875,0 0,1.6875 -1.6875,0 0,-1.6875 z m 2,0 1.6875,0 0,1.6875 -1.6875,0 0,-1.6875 z m 2,0 1.6875,0 0,1.6875 -1.6875,0 0,-1.6875 z m 2,0 1.6875,0 0,1.6875 -1.6875,0 0,-1.6875 z m 2,0 1.6875,0 0,1.6875 -1.6875,0 0,-1.6875 z m 2,0 1.6875,0 0,1.6875 -1.6875,0 0,-1.6875 z m -34.0000002,2 1.6875,0 0,1.6875 -1.6875,0 0,-1.6875 z m 2,0 1.6875,0 0,1.6875 -1.6875,0 0,-1.6875 z m 2.0000012,0 1.6875,0 0,1.6875 -1.6875,0 0,-1.6875 z m 2,0 1.6875,0 0,1.6875 -1.6875,0 0,-1.6875 z m 1.999999,0 1.6875,0 0,1.6875 -1.6875,0 0,-1.6875 z m 2,0 1.6875,0 0,1.6875 -1.6875,0 0,-1.6875 z m 2,0 1.6875,0 0,1.6875 -1.6875,0 0,-1.6875 z m 2,0 1.6875,0 0,1.6875 -1.6875,0 0,-1.6875 z m 2,0 1.6875,0 0,1.6875 -1.6875,0 0,-1.6875 z m 2,0 1.6875,0 0,1.6875 -1.6875,0 0,-1.6875 z m 2,0 1.6875,0 0,1.6875 -1.6875,0 0,-1.6875 z m 2,0 1.6875,0 0,1.6875 -1.6875,0 0,-1.6875 z m 2,0 1.6875,0 0,1.6875 -1.6875,0 0,-1.6875 z m 2,0 1.6875,0 0,1.6875 -1.6875,0 0,-1.6875 z m 2,0 1.6875,0 0,1.6875 -1.6875,0 0,-1.6875 z m 2,0 1.6875,0 0,1.6875 -1.6875,0 0,-1.6875 z m 2,0 1.6875,0 0,1.6875 -1.6875,0 0,-1.6875 z m 2,0 1.6875,0 0,1.6875 -1.6875,0 0,-1.6875 z m -34.0000002,2 1.6875,0 0,1.6875 -1.6875,0 0,-1.6875 z m 2,0 1.6875,0 0,1.6875 -1.6875,0 0,-1.6875 z m 2.0000012,0 1.6875,0 0,1.6875 -1.6875,0 0,-1.6875 z m 2,0 1.6875,0 0,1.6875 -1.6875,0 0,-1.6875 z m 1.999999,0 1.6875,0 0,1.6875 -1.6875,0 0,-1.6875 z m 2,0 1.6875,0 0,1.6875 -1.6875,0 0,-1.6875 z m 2,0 1.6875,0 0,1.6875 -1.6875,0 0,-1.6875 z m 2,0 1.6875,0 0,1.6875 -1.6875,0 0,-1.6875 z m 2,0 1.6875,0 0,1.6875 -1.6875,0 0,-1.6875 z m 2,0 1.6875,0 0,1.6875 -1.6875,0 0,-1.6875 z m 2,0 1.6875,0 0,1.6875 -1.6875,0 0,-1.6875 z m 2,0 1.6875,0 0,1.6875 -1.6875,0 0,-1.6875 z m 2,0 1.6875,0 0,1.6875 -1.6875,0 0,-1.6875 z m 2,0 1.6875,0 0,1.6875 -1.6875,0 0,-1.6875 z m 2,0 1.6875,0 0,1.6875 -1.6875,0 0,-1.6875 z m 2,0 1.6875,0 0,1.6875 -1.6875,0 0,-1.6875 z m 2,0 1.6875,0 0,1.6875 -1.6875,0 0,-1.6875 z m 2,0 1.6875,0 0,1.6875 -1.6875,0 0,-1.6875 z m -34.0000002,2 1.6875,0 0,1.6875 -1.6875,0 0,-1.6875 z m 2,0 1.6875,0 0,1.6875 -1.6875,0 0,-1.6875 z m 2.0000012,0 1.6875,0 0,1.6875 -1.6875,0 0,-1.6875 z m 2,0 1.6875,0 0,1.6875 -1.6875,0 0,-1.6875 z m 1.999999,0 1.6875,0 0,1.6875 -1.6875,0 0,-1.6875 z m 2,0 1.6875,0 0,1.6875 -1.6875,0 0,-1.6875 z m 2,0 1.6875,0 0,1.6875 -1.6875,0 0,-1.6875 z m 2,0 1.6875,0 0,1.6875 -1.6875,0 0,-1.6875 z m 2,0 1.6875,0 0,1.6875 -1.6875,0 0,-1.6875 z m 2,0 1.6875,0 0,1.6875 -1.6875,0 0,-1.6875 z m 2,0 1.6875,0 0,1.6875 -1.6875,0 0,-1.6875 z m 2,0 1.6875,0 0,1.6875 -1.6875,0 0,-1.6875 z m 2,0 1.6875,0 0,1.6875 -1.6875,0 0,-1.6875 z m 2,0 1.6875,0 0,1.6875 -1.6875,0 0,-1.6875 z m 2,0 1.6875,0 0,1.6875 -1.6875,0 0,-1.6875 z m 2,0 1.6875,0 0,1.6875 -1.6875,0 0,-1.6875 z m 2,0 1.6875,0 0,1.6875 -1.6875,0 0,-1.6875 z m 2,0 1.6875,0 0,1.6875 -1.6875,0 0,-1.6875 z m -34.0000002,2 1.6875,0 0,1.6875 -1.6875,0 0,-1.6875 z m 2,0 1.6875,0 0,1.6875 -1.6875,0 0,-1.6875 z m 2.0000012,0 1.6875,0 0,1.6875 -1.6875,0 0,-1.6875 z m 2,0 1.6875,0 0,1.6875 -1.6875,0 0,-1.6875 z m 1.999999,0 1.6875,0 0,1.6875 -1.6875,0 0,-1.6875 z m 2,0 1.6875,0 0,1.6875 -1.6875,0 0,-1.6875 z m 2,0 1.6875,0 0,1.6875 -1.6875,0 0,-1.6875 z m 2,0 1.6875,0 0,1.6875 -1.6875,0 0,-1.6875 z m 2,0 1.6875,0 0,1.6875 -1.6875,0 0,-1.6875 z m 2,0 1.6875,0 0,1.6875 -1.6875,0 0,-1.6875 z m 2,0 1.6875,0 0,1.6875 -1.6875,0 0,-1.6875 z m 2,0 1.6875,0 0,1.6875 -1.6875,0 0,-1.6875 z m 2,0 1.6875,0 0,1.6875 -1.6875,0 0,-1.6875 z m 2,0 1.6875,0 0,1.6875 -1.6875,0 0,-1.6875 z m 2,0 1.6875,0 0,1.6875 -1.6875,0 0,-1.6875 z m 2,0 1.6875,0 0,1.6875 -1.6875,0 0,-1.6875 z m 2,0 1.6875,0 0,1.6875 -1.6875,0 0,-1.6875 z m 2,0 1.6875,0 0,1.6875 -1.6875,0 0,-1.6875 z m -34.0000002,2 1.6875,0 0,1.6875 -1.6875,0 0,-1.6875 z m 2,0 1.6875,0 0,1.6875 -1.6875,0 0,-1.6875 z m 2.0000012,0 1.6875,0 0,1.6875 -1.6875,0 0,-1.6875 z m 2,0 1.6875,0 0,1.6875 -1.6875,0 0,-1.6875 z m 1.999999,0 1.6875,0 0,1.6875 -1.6875,0 0,-1.6875 z m 2,0 1.6875,0 0,1.6875 -1.6875,0 0,-1.6875 z m 2,0 1.6875,0 0,1.6875 -1.6875,0 0,-1.6875 z m 2,0 1.6875,0 0,1.6875 -1.6875,0 0,-1.6875 z m 2,0 1.6875,0 0,1.6875 -1.6875,0 0,-1.6875 z m 2,0 1.6875,0 0,1.6875 -1.6875,0 0,-1.6875 z m 2,0 1.6875,0 0,1.6875 -1.6875,0 0,-1.6875 z m 2,0 1.6875,0 0,1.6875 -1.6875,0 0,-1.6875 z m 2,0 1.6875,0 0,1.6875 -1.6875,0 0,-1.6875 z m 2,0 1.6875,0 0,1.6875 -1.6875,0 0,-1.6875 z m 2,0 1.6875,0 0,1.6875 -1.6875,0 0,-1.6875 z m 2,0 1.6875,0 0,1.6875 -1.6875,0 0,-1.6875 z m 2,0 1.6875,0 0,1.6875 -1.6875,0 0,-1.6875 z m 2,0 1.6875,0 0,1.6875 -1.6875,0 0,-1.6875 z m -34.0000002,2 1.6875,0 0,1.6875 -1.6875,0 0,-1.6875 z m 2,0 1.6875,0 0,1.6875 -1.6875,0 0,-1.6875 z m 2.0000012,0 1.6875,0 0,1.6875 -1.6875,0 0,-1.6875 z m 2,0 1.6875,0 0,1.6875 -1.6875,0 0,-1.6875 z m 1.999999,0 1.6875,0 0,1.6875 -1.6875,0 0,-1.6875 z m 2,0 1.6875,0 0,1.6875 -1.6875,0 0,-1.6875 z m 2,0 1.6875,0 0,1.6875 -1.6875,0 0,-1.6875 z m 2,0 1.6875,0 0,1.6875 -1.6875,0 0,-1.6875 z m 2,0 1.6875,0 0,1.6875 -1.6875,0 0,-1.6875 z m 2,0 1.6875,0 0,1.6875 -1.6875,0 0,-1.6875 z m 2,0 1.6875,0 0,1.6875 -1.6875,0 0,-1.6875 z m 2,0 1.6875,0 0,1.6875 -1.6875,0 0,-1.6875 z m 2,0 1.6875,0 0,1.6875 -1.6875,0 0,-1.6875 z m 2,0 1.6875,0 0,1.6875 -1.6875,0 0,-1.6875 z m 2,0 1.6875,0 0,1.6875 -1.6875,0 0,-1.6875 z m 2,0 1.6875,0 0,1.6875 -1.6875,0 0,-1.6875 z m 2,0 1.6875,0 0,1.6875 -1.6875,0 0,-1.6875 z m 2,0 1.6875,0 0,1.6875 -1.6875,0 0,-1.6875 z m -34.0000002,2 1.6875,0 0,1.6875 -1.6875,0 0,-1.6875 z m 2,0 1.6875,0 0,1.6875 -1.6875,0 0,-1.6875 z m 2.0000012,0 1.6875,0 0,1.6875 -1.6875,0 0,-1.6875 z m 2,0 1.6875,0 0,1.6875 -1.6875,0 0,-1.6875 z m 1.999999,0 1.6875,0 0,1.6875 -1.6875,0 0,-1.6875 z m 2,0 1.6875,0 0,1.6875 -1.6875,0 0,-1.6875 z m 2,0 1.6875,0 0,1.6875 -1.6875,0 0,-1.6875 z m 2,0 1.6875,0 0,1.6875 -1.6875,0 0,-1.6875 z m 2,0 1.6875,0 0,1.6875 -1.6875,0 0,-1.6875 z m 2,0 1.6875,0 0,1.6875 -1.6875,0 0,-1.6875 z m 2,0 1.6875,0 0,1.6875 -1.6875,0 0,-1.6875 z m 2,0 1.6875,0 0,1.6875 -1.6875,0 0,-1.6875 z m 2,0 1.6875,0 0,1.6875 -1.6875,0 0,-1.6875 z m 2,0 1.6875,0 0,1.6875 -1.6875,0 0,-1.6875 z m 2,0 1.6875,0 0,1.6875 -1.6875,0 0,-1.6875 z m 2,0 1.6875,0 0,1.6875 -1.6875,0 0,-1.6875 z m 2,0 1.6875,0 0,1.6875 -1.6875,0 0,-1.6875 z m 2,0 1.6875,0 0,1.6875 -1.6875,0 0,-1.6875 z m -34.0000002,2 1.6875,0 0,1.6875 -1.6875,0 0,-1.6875 z m 2,0 1.6875,0 0,1.6875 -1.6875,0 0,-1.6875 z m 2.0000012,0 1.6875,0 0,1.6875 -1.6875,0 0,-1.6875 z m 2,0 1.6875,0 0,1.6875 -1.6875,0 0,-1.6875 z m 1.999999,0 1.6875,0 0,1.6875 -1.6875,0 0,-1.6875 z m 2,0 1.6875,0 0,1.6875 -1.6875,0 0,-1.6875 z m 2,0 1.6875,0 0,1.6875 -1.6875,0 0,-1.6875 z m 2,0 1.6875,0 0,1.6875 -1.6875,0 0,-1.6875 z m 2,0 1.6875,0 0,1.6875 -1.6875,0 0,-1.6875 z m 2,0 1.6875,0 0,1.6875 -1.6875,0 0,-1.6875 z m 2,0 1.6875,0 0,1.6875 -1.6875,0 0,-1.6875 z m 2,0 1.6875,0 0,1.6875 -1.6875,0 0,-1.6875 z m 2,0 1.6875,0 0,1.6875 -1.6875,0 0,-1.6875 z m 2,0 1.6875,0 0,1.6875 -1.6875,0 0,-1.6875 z m 2,0 1.6875,0 0,1.6875 -1.6875,0 0,-1.6875 z m 2,0 1.6875,0 0,1.6875 -1.6875,0 0,-1.6875 z m 2,0 1.6875,0 0,1.6875 -1.6875,0 0,-1.6875 z m 2,0 1.6875,0 0,1.6875 -1.6875,0 0,-1.6875 z m -34.0000002,2 1.6875,0 0,1.6875 -1.6875,0 0,-1.6875 z m 2,0 1.6875,0 0,1.6875 -1.6875,0 0,-1.6875 z m 2.0000012,0 1.6875,0 0,1.6875 -1.6875,0 0,-1.6875 z m 2,0 1.6875,0 0,1.6875 -1.6875,0 0,-1.6875 z m 1.999999,0 1.6875,0 0,1.6875 -1.6875,0 0,-1.6875 z m 2,0 1.6875,0 0,1.6875 -1.6875,0 0,-1.6875 z m 2,0 1.6875,0 0,1.6875 -1.6875,0 0,-1.6875 z m 2,0 1.6875,0 0,1.6875 -1.6875,0 0,-1.6875 z m 2,0 1.6875,0 0,1.6875 -1.6875,0 0,-1.6875 z m 2,0 1.6875,0 0,1.6875 -1.6875,0 0,-1.6875 z m 2,0 1.6875,0 0,1.6875 -1.6875,0 0,-1.6875 z m 2,0 1.6875,0 0,1.6875 -1.6875,0 0,-1.6875 z m 2,0 1.6875,0 0,1.6875 -1.6875,0 0,-1.6875 z m 2,0 1.6875,0 0,1.6875 -1.6875,0 0,-1.6875 z m 2,0 1.6875,0 0,1.6875 -1.6875,0 0,-1.6875 z m 2,0 1.6875,0 0,1.6875 -1.6875,0 0,-1.6875 z m 2,0 1.6875,0 0,1.6875 -1.6875,0 0,-1.6875 z m 2,0 1.6875,0 0,1.6875 -1.6875,0 0,-1.6875 z"
       style="fill:#000000;fill-opacity:0.03921569;stroke:none"
       inkscape:connector-curvature="0" />
    <g
       id="g302"
       transform="translate(3.1530762e-7,-0.49994032)">
      <rect
         style="font-size:24px;font-style:normal;font-variant:normal;font-weight:normal;font-stretch:normal;line-height:125%;letter-spacing:-0.03px;word-spacing:0px;fill:url(#linearGradient4883);fill-opacity:1;stroke:none;font-family:Derivia;-inkscape-font-specification:Derivia"
         id="rect4881"
         width="2.2"
         height="5"
         x="1011.6622"
         y="-26.87549"
         ry="0.2596879"
         transform="matrix(0,1,-1,0,0,0)" />
      <rect
         transform="matrix(0,1,-1,0,0,0)"
         ry="0.2596879"
         y="-36.5"
         x="1011.6622"
         height="5"
         width="2.2"
         id="rect4869"
         style="font-size:24px;font-style:normal;font-variant:normal;font-weight:normal;font-stretch:normal;line-height:125%;letter-spacing:-0.03px;word-spacing:0px;fill:url(#linearGradient4871);fill-opacity:1;stroke:none;font-family:Derivia;-inkscape-font-specification:Derivia" />
      <rect
         style="font-size:24px;font-style:normal;font-variant:normal;font-weight:normal;font-stretch:normal;line-height:125%;letter-spacing:-0.03px;word-spacing:0px;fill:url(#linearGradient4863);fill-opacity:1;stroke:none;font-family:Derivia;-inkscape-font-specification:Derivia"
         id="rect4855"
         width="2.2"
         height="5"
         x="1011.6622"
         y="-16.5"
         ry="0.2596879"
         transform="matrix(0,1,-1,0,0,0)" />
      <rect
         style="font-size:24px;font-style:normal;font-variant:normal;font-weight:normal;font-stretch:normal;line-height:125%;letter-spacing:-0.03px;word-spacing:0px;fill:#000000;fill-opacity:0.23529412;stroke:none;font-family:Derivia;-inkscape-font-specification:Derivia"
         id="rect4833"
         width="5"
         height="1.48"
         x="1008.4622"
         y="-33.739998"
         ry="0.41771603"
         transform="matrix(0,1,-1,0,0,0)" />
      <rect
         transform="matrix(0,1,-1,0,0,0)"
         ry="0.33304384"
         y="-33.59"
         x="1008.1622"
         height="1.1799999"
         width="5"
         id="rect4829"
         style="font-size:24px;font-style:normal;font-variant:normal;font-weight:normal;font-stretch:normal;line-height:125%;letter-spacing:-0.03px;word-spacing:0px;fill:#000000;fill-opacity:0.23529412;stroke:none;font-family:Derivia;-inkscape-font-specification:Derivia" />
      <rect
         transform="matrix(0,1,-1,0,0,0)"
         ry="0.41771603"
         y="-35.739998"
         x="1008.4622"
         height="1.48"
         width="5"
         id="rect4835"
         style="font-size:24px;font-style:normal;font-variant:normal;font-weight:normal;font-stretch:normal;line-height:125%;letter-spacing:-0.03px;word-spacing:0px;fill:#000000;fill-opacity:0.23529412;stroke:none;font-family:Derivia;-inkscape-font-specification:Derivia" />
      <rect
         style="font-size:24px;font-style:normal;font-variant:normal;font-weight:normal;font-stretch:normal;line-height:125%;letter-spacing:-0.03px;word-spacing:0px;fill:#000000;fill-opacity:0.23529412;stroke:none;font-family:Derivia;-inkscape-font-specification:Derivia"
         id="rect4837"
         width="5"
         height="1.1799999"
         x="1008.1622"
         y="-35.59"
         ry="0.33304384"
         transform="matrix(0,1,-1,0,0,0)" />
      <rect
         style="font-size:24px;font-style:normal;font-variant:normal;font-weight:normal;font-stretch:normal;line-height:125%;letter-spacing:-0.03px;word-spacing:0px;fill:#000000;fill-opacity:0.23529412;stroke:none;font-family:Derivia;-inkscape-font-specification:Derivia"
         id="rect4839"
         width="5"
         height="1.48"
         x="1008.4622"
         y="-26.11549"
         ry="0.41771603"
         transform="matrix(0,1,-1,0,0,0)" />
      <rect
         transform="matrix(0,1,-1,0,0,0)"
         ry="0.33304384"
         y="-25.965488"
         x="1008.1622"
         height="1.1799999"
         width="5"
         id="rect4841"
         style="font-size:24px;font-style:normal;font-variant:normal;font-weight:normal;font-stretch:normal;line-height:125%;letter-spacing:-0.03px;word-spacing:0px;fill:#000000;fill-opacity:0.23529412;stroke:none;font-family:Derivia;-inkscape-font-specification:Derivia" />
      <rect
         transform="matrix(0,1,-1,0,0,0)"
         ry="0.41771603"
         y="-24.11549"
         x="1008.4622"
         height="1.48"
         width="5"
         id="rect4843"
         style="font-size:24px;font-style:normal;font-variant:normal;font-weight:normal;font-stretch:normal;line-height:125%;letter-spacing:-0.03px;word-spacing:0px;fill:#000000;fill-opacity:0.23529412;stroke:none;font-family:Derivia;-inkscape-font-specification:Derivia" />
      <rect
         style="font-size:24px;font-style:normal;font-variant:normal;font-weight:normal;font-stretch:normal;line-height:125%;letter-spacing:-0.03px;word-spacing:0px;fill:#000000;fill-opacity:0.23529412;stroke:none;font-family:Derivia;-inkscape-font-specification:Derivia"
         id="rect4845"
         width="5"
         height="1.1799999"
         x="1008.1622"
         y="-23.965488"
         ry="0.33304384"
         transform="matrix(0,1,-1,0,0,0)" />
      <rect
         style="font-size:24px;font-style:normal;font-variant:normal;font-weight:normal;font-stretch:normal;line-height:125%;letter-spacing:-0.03px;word-spacing:0px;fill:#000000;fill-opacity:0.23529412;stroke:none;font-family:Derivia;-inkscape-font-specification:Derivia"
         id="rect4847"
         width="5"
         height="1.48"
         x="1008.4622"
         y="-15.74"
         ry="0.41771603"
         transform="matrix(0,1,-1,0,0,0)" />
      <rect
         transform="matrix(0,1,-1,0,0,0)"
         ry="0.33304384"
         y="-15.589999"
         x="1008.1622"
         height="1.1799999"
         width="5"
         id="rect4849"
         style="font-size:24px;font-style:normal;font-variant:normal;font-weight:normal;font-stretch:normal;line-height:125%;letter-spacing:-0.03px;word-spacing:0px;fill:#000000;fill-opacity:0.23529412;stroke:none;font-family:Derivia;-inkscape-font-specification:Derivia" />
      <rect
         transform="matrix(0,1,-1,0,0,0)"
         ry="0.41771603"
         y="-13.74"
         x="1008.4622"
         height="1.48"
         width="5"
         id="rect4851"
         style="font-size:24px;font-style:normal;font-variant:normal;font-weight:normal;font-stretch:normal;line-height:125%;letter-spacing:-0.03px;word-spacing:0px;fill:#000000;fill-opacity:0.23529412;stroke:none;font-family:Derivia;-inkscape-font-specification:Derivia" />
      <rect
         style="font-size:24px;font-style:normal;font-variant:normal;font-weight:normal;font-stretch:normal;line-height:125%;letter-spacing:-0.03px;word-spacing:0px;fill:#000000;fill-opacity:0.23529412;stroke:none;font-family:Derivia;-inkscape-font-specification:Derivia"
         id="rect4853"
         width="5"
         height="1.1799999"
         x="1008.1622"
         y="-13.589999"
         ry="0.33304384"
         transform="matrix(0,1,-1,0,0,0)" />
      <g
         transform="translate(0.37548923,0)"
         id="g4873">
        <rect
           style="font-size:24px;font-style:normal;font-variant:normal;font-weight:normal;font-stretch:normal;line-height:125%;letter-spacing:-0.03px;word-spacing:0px;fill:url(#linearGradient4768);fill-opacity:1;stroke:none;font-family:Derivia;-inkscape-font-specification:Derivia"
           id="rect4202"
           width="5"
           height="0.69999999"
           x="1007.8621"
           y="-34.97451"
           ry="0.19756836"
           transform="matrix(0,1,-1,0,0,0)" />
        <rect
           transform="matrix(0,1,-1,0,0,0)"
           ry="0.19756836"
           y="-32.97451"
           x="1007.8621"
           height="0.69999999"
           width="5"
           id="rect4770"
           style="font-size:24px;font-style:normal;font-variant:normal;font-weight:normal;font-stretch:normal;line-height:125%;letter-spacing:-0.03px;word-spacing:0px;fill:url(#linearGradient4772);fill-opacity:1;stroke:none;font-family:Derivia;-inkscape-font-specification:Derivia" />
      </g>
      <g
         id="g4877">
        <rect
           style="font-size:24px;font-style:normal;font-variant:normal;font-weight:normal;font-stretch:normal;line-height:125%;letter-spacing:-0.03px;word-spacing:0px;fill:url(#linearGradient4776);fill-opacity:1;stroke:none;font-family:Derivia;-inkscape-font-specification:Derivia"
           id="rect4774"
           width="5"
           height="0.69999999"
           x="1007.8621"
           y="-25.725491"
           ry="0.19756836"
           transform="matrix(0,1,-1,0,0,0)" />
        <rect
           transform="matrix(0,1,-1,0,0,0)"
           ry="0.19756836"
           y="-23.725491"
           x="1007.8621"
           height="0.69999999"
           width="5"
           id="rect4778"
           style="font-size:24px;font-style:normal;font-variant:normal;font-weight:normal;font-stretch:normal;line-height:125%;letter-spacing:-0.03px;word-spacing:0px;fill:url(#linearGradient4780);fill-opacity:1;stroke:none;font-family:Derivia;-inkscape-font-specification:Derivia" />
      </g>
      <g
         transform="translate(0.37548923,0)"
         id="g4865">
        <rect
           transform="matrix(0,1,-1,0,0,0)"
           ry="0.19756836"
           y="-12.97451"
           x="1007.8621"
           height="0.69999999"
           width="5"
           id="rect4786"
           style="font-size:24px;font-style:normal;font-variant:normal;font-weight:normal;font-stretch:normal;line-height:125%;letter-spacing:-0.03px;word-spacing:0px;fill:url(#linearGradient4788);fill-opacity:1;stroke:none;font-family:Derivia;-inkscape-font-specification:Derivia" />
        <rect
           style="font-size:24px;font-style:normal;font-variant:normal;font-weight:normal;font-stretch:normal;line-height:125%;letter-spacing:-0.03px;word-spacing:0px;fill:url(#linearGradient4792);fill-opacity:1;stroke:none;font-family:Derivia;-inkscape-font-specification:Derivia"
           id="rect4790"
           width="5"
           height="0.69999999"
           x="1007.8621"
           y="-14.97451"
           ry="0.19756836"
           transform="matrix(0,1,-1,0,0,0)" />
      </g>
      <path
         inkscape:connector-curvature="0"
         id="rect4814"
         d="m 32.844239,1007.8622 c -0.109453,0 -0.1875,0.078 -0.1875,0.1875 l 0,4.625 c 0,0.1094 0.07805,0.1875 0.1875,0.1875 0.109453,0 0.21875,-0.078 0.21875,-0.1875 l 0,-4.625 c 0,-0.1095 -0.109297,-0.1875 -0.21875,-0.1875 z"
         style="font-size:24px;font-style:normal;font-variant:normal;font-weight:normal;font-stretch:normal;line-height:125%;letter-spacing:-0.03px;word-spacing:0px;fill:#000000;fill-opacity:0.23529412;stroke:none;font-family:Derivia;-inkscape-font-specification:Derivia" />
      <path
         inkscape:connector-curvature="0"
         style="font-size:24px;font-style:normal;font-variant:normal;font-weight:normal;font-stretch:normal;line-height:125%;letter-spacing:-0.03px;word-spacing:0px;fill:#000000;fill-opacity:0.23529412;stroke:none;font-family:Derivia;-inkscape-font-specification:Derivia"
         d="m 34.837499,1007.8622 c -0.109453,0 -0.1875,0.078 -0.1875,0.1875 l 0,4.625 c 0,0.1095 0.07805,0.1875 0.1875,0.1875 0.109453,0 0.21875,-0.078 0.21875,-0.1875 l 0,-4.625 c 0,-0.1095 -0.109297,-0.1875 -0.21875,-0.1875 z"
         id="path4819" />
      <path
         inkscape:connector-curvature="0"
         style="font-size:24px;font-style:normal;font-variant:normal;font-weight:normal;font-stretch:normal;line-height:125%;letter-spacing:-0.03px;word-spacing:0px;fill:#000000;fill-opacity:0.23529412;stroke:none;font-family:Derivia;-inkscape-font-specification:Derivia"
         d="m 25.212989,1007.8622 c -0.109453,0 -0.1875,0.078 -0.1875,0.1875 l 0,4.625 c 0,0.1095 0.07805,0.1875 0.1875,0.1875 0.109453,0 0.21875,-0.078 0.21875,-0.1875 l 0,-4.625 c 0,-0.1095 -0.109297,-0.1875 -0.21875,-0.1875 z"
         id="path4821" />
      <path
         id="path4823"
         d="m 23.212989,1007.8622 c -0.109453,0 -0.1875,0.078 -0.1875,0.1875 l 0,4.625 c 0,0.1095 0.07805,0.1875 0.1875,0.1875 0.109453,0 0.21875,-0.078 0.21875,-0.1875 l 0,-4.625 c 0,-0.1095 -0.109297,-0.1875 -0.21875,-0.1875 z"
         style="font-size:24px;font-style:normal;font-variant:normal;font-weight:normal;font-stretch:normal;line-height:125%;letter-spacing:-0.03px;word-spacing:0px;fill:#000000;fill-opacity:0.23529412;stroke:none;font-family:Derivia;-inkscape-font-specification:Derivia"
         inkscape:connector-curvature="0" />
      <path
         inkscape:connector-curvature="0"
         style="font-size:24px;font-style:normal;font-variant:normal;font-weight:normal;font-stretch:normal;line-height:125%;letter-spacing:-0.03px;word-spacing:0px;fill:#000000;fill-opacity:0.23529412;stroke:none;font-family:Derivia;-inkscape-font-specification:Derivia"
         d="m 14.837499,1007.8622 c -0.109453,0 -0.1875,0.078 -0.1875,0.1875 l 0,4.625 c 0,0.1095 0.07805,0.1875 0.1875,0.1875 0.109453,0 0.21875,-0.078 0.21875,-0.1875 l 0,-4.625 c 0,-0.1095 -0.109297,-0.1875 -0.21875,-0.1875 z"
         id="path4825" />
      <path
         id="path4827"
         d="m 12.837499,1007.8622 c -0.109453,0 -0.1875,0.078 -0.1875,0.1875 l 0,4.625 c 0,0.1095 0.07805,0.1875 0.1875,0.1875 0.109453,0 0.21875,-0.078 0.21875,-0.1875 l 0,-4.625 c 0,-0.1095 -0.109297,-0.1875 -0.21875,-0.1875 z"
         style="font-size:24px;font-style:normal;font-variant:normal;font-weight:normal;font-stretch:normal;line-height:125%;letter-spacing:-0.03px;word-spacing:0px;fill:#000000;fill-opacity:0.23529412;stroke:none;font-family:Derivia;-inkscape-font-specification:Derivia"
         inkscape:connector-curvature="0" />
    </g>
    <path
       style="fill:#000000;fill-opacity:0.05882353;stroke:none"
       d="m 30.1312,1017.7381 -2.10769,2.1076 -1.0689,1.0689 -0.57209,0.5721 -11.17075,11.1708 -0.94374,3.4523 -0.88342,3.4524 3.42217,-0.9137 3.4674,-0.9286 11.17074,-11.1708 0.5721,-0.5721 1.53559,-1.5356 1.64099,-1.6409 -5.0624,-5.0624 z"
       id="path6481"
       inkscape:connector-curvature="0" />
    <path
       inkscape:connector-curvature="0"
       id="path6479"
       d="m 29.93834,1017.5452 -2.10768,2.1077 -1.06891,1.0689 -0.57209,0.5721 -11.17073,11.1707 -0.94375,3.4523 -0.88343,3.4524 3.42218,-0.9136 3.4674,-0.9287 11.17073,-11.1707 0.5721,-0.5721 1.5356,-1.5356 1.64099,-1.641 -5.06241,-5.0624 z"
       style="fill:#000000;fill-opacity:0.11764706;stroke:none" />
    <path
       style="fill:#000000;fill-opacity:0.23529412;stroke:none"
       d="m 29.74549,1017.3524 -2.10768,2.1076 -1.06891,1.0689 -0.57209,0.5721 -11.17073,11.1708 -0.94376,3.4523 -0.88342,3.4523 3.42218,-0.9136 3.4674,-0.9286 11.17073,-11.1708 0.57209,-0.5721 1.53561,-1.5356 1.64098,-1.6409 -5.0624,-5.0624 z"
       id="path6468"
       inkscape:connector-curvature="0" />
    <path
       id="path6442"
       d="m 27.91202,1018.8022 -2.11287,2.1129 5.06238,5.0624 2.11289,-2.113 -5.0624,-5.0623 z"
       style="fill:url(#linearGradient6444);fill-opacity:1;stroke:none"
       inkscape:connector-curvature="0" />
    <path
       style="fill:url(#linearGradient6343);fill-opacity:1;stroke:none"
       d="m 29.55205,1017.1622 -2.11287,2.1128 5.06238,5.0624 2.11289,-2.1129 -5.0624,-5.0623 z"
       id="path6330"
       inkscape:connector-curvature="0" />
    <path
       style="fill:url(#linearGradient6419);fill-opacity:1;stroke:none"
       d="m 19.69343,1037.1389 -5.05732,-5.0573 -0.94501,3.451 -0.8847,3.4511 3.42091,-0.9149 3.46612,-0.9299 z"
       id="path6335"
       inkscape:connector-curvature="0" />
    <path
       style="fill:#fbd61f;fill-opacity:1;stroke:none"
       d="m 26.37894,1020.3387 -11.74283,11.7429 5.05732,5.0573 11.74284,-11.7428 -5.05733,-5.0574 z"
       id="path6328"
       inkscape:connector-curvature="0" />
    <path
       id="path6355"
       d="m 26.37894,1020.3387 -11.74283,11.7429 5.05732,5.0573 11.74284,-11.7428 -5.05733,-5.0574 z"
       style="fill:url(#linearGradient6363);fill-opacity:1;stroke:none"
       inkscape:connector-curvature="0" />
    <path
       style="fill:url(#linearGradient6371);fill-opacity:1;stroke:none"
       d="m 26.57326,1020.5331 -11.74282,11.7428 1.28514,1.2851 11.74282,-11.7428 z"
       id="rect844"
       inkscape:connector-curvature="0"
       sodipodi:nodetypes="ccccc" />
    <path
       id="path6345"
       d="m 34.21952,1022.2329 -1.70963,1.7096 -4.09624,-4.0962 1.70967,-1.7097 4.0962,4.0963 z"
       style="opacity:0.58999999;fill:url(#linearGradient6347);fill-opacity:1;stroke:none"
       inkscape:connector-curvature="0" />
    <path
       style="fill:url(#linearGradient6375);fill-opacity:1;stroke:none"
       d="m 29.27747,1023.2373 -11.74284,11.7428 0.72464,0.7246 11.74283,-11.7428 -0.72463,-0.7246 z"
       id="path6373"
       inkscape:connector-curvature="0" />
    <path
       style="fill:url(#linearGradient6379);fill-opacity:1;stroke:none"
       d="m 27.8584,1021.8182 -11.74282,11.7428 0.70953,0.7095 11.74283,-11.7428 -0.70954,-0.7095 z"
       id="path6377"
       inkscape:connector-curvature="0" />
    <path
       style="fill:url(#linearGradient6389);fill-opacity:1;stroke:none"
       d="m 30.0021,1023.9619 -11.74283,11.7428 0.70952,0.7096 11.74284,-11.7429 -0.70953,-0.7095 z"
       id="path6387"
       inkscape:connector-curvature="0" />
    <path
       id="path6403"
       d="m 19.03413,1036.832 -1.33724,-1.3377 -2.0963,1.4599 -2.66851,1.9009 3.05728,-1.03 z"
       style="fill:url(#linearGradient6411);fill-opacity:1;stroke:none"
       inkscape:connector-curvature="0"
       sodipodi:nodetypes="cccccc" />
    <path
       sodipodi:nodetypes="cccccc"
       inkscape:connector-curvature="0"
       style="fill:url(#linearGradient6423);fill-opacity:1;stroke:none"
       d="m 15.09544,1033.0641 1.02043,1.0201 -1.11367,1.5991 -1.45008,2.0357 0.78574,-2.3323 z"
       id="path6421" />
    <path
       style="fill:url(#linearGradient6433);fill-opacity:1;stroke:none"
       d="m 13.1813,1037.552 -0.3749,1.4317 1.43167,-0.3749 -1.05677,-1.0568 z"
       id="path6425"
       inkscape:connector-curvature="0" />
    <path
       style="fill:url(#linearGradient6459);fill-opacity:1;stroke:none"
       d="m 29.55553,1017.1622 -2.06252,2.0625 c 1.56494,-0.1519 3.57445,0.4778 5.41394,1.2889 l -3.35142,-3.3514 z"
       id="path6446"
       inkscape:connector-curvature="0" />
    <path
       style="opacity:0.58999999;fill:url(#linearGradient6463);fill-opacity:1;stroke:none"
       d="m 27.14674,1019.5709 -0.48176,0.4818 5.05732,5.0573 0.48176,-0.4818 -5.05732,-5.0573 z"
       id="path6461"
       inkscape:connector-curvature="0" />
    <path
       inkscape:connector-curvature="0"
       id="path5692_2_-0"
       d="m 36.263294,1032.8622 -1.588973,0.1572 0,6.4955 1.571512,-0.227 0,-2.7763 2.095349,3.0732 1.641356,-0.5239 -2.147732,-2.9509 2.165194,-2.7938 -1.676279,-0.3842 -2.077888,2.7938 0.01746,-2.8636 z m -3.579554,1.5889 c -0.01781,0 -0.03901,0.01 -0.05239,0.018 l -0.611143,0.6286 c -0.02603,0.027 -0.03663,0.073 -0.01747,0.1048 l 0.715911,1.1874 c -0.128512,0.2161 -0.223223,0.4527 -0.296841,0.6983 l -1.327055,0.2795 c -0.03701,0.01 -0.06984,0.032 -0.06984,0.07 l 0,0.8731 c 0,0.037 0.03419,0.078 0.06984,0.087 l 1.292132,0.3143 c 0.06885,0.2847 0.173293,0.5553 0.314302,0.8031 l -0.750833,1.1352 c -0.02085,0.032 -0.0095,0.078 0.01747,0.1048 l 0.611144,0.611 c 0.02603,0.025 0.07303,0.038 0.104768,0.018 l 1.169902,-0.7158 c 0.230034,0.1327 0.471177,0.2434 0.733373,0.3142 l 0.279379,1.3096 c 0.0077,0.038 0.03211,0.07 0.06984,0.07 l 0.873063,0 c 0.0368,0 0.07852,-0.034 0.08731,-0.07 l 0.314303,-1.3096 c 0.270276,-0.073 0.532658,-0.1929 0.768295,-0.3317 l 1.152441,0.7683 c 0.03173,0.02 0.07783,0.01 0.104767,-0.018 l 0.611146,-0.6112 c 0.02618,-0.027 0.0367,-0.073 0.01747,-0.1047 l -0.419071,-0.6983 -0.139689,0.052 c -0.01989,0.01 -0.04069,0 -0.05239,-0.018 0,0 -0.2641,-0.4001 -0.611144,-0.9081 -0.414869,0.812 -1.26033,1.3621 -2.235039,1.3621 -1.38481,0 -2.514418,-1.1121 -2.514418,-2.497 0,-1.0187 0.611881,-1.8949 1.484205,-2.2874 l 0,-0.6461 c -0.158762,0.056 -0.308214,0.1126 -0.453992,0.1922 -1.11e-4,0 -0.01706,0 -0.01747,0 l -1.169903,-0.7684 c -0.01591,-0.01 -0.03457,-0.019 -0.05237,-0.017 z"
       style="fill:#000000;fill-opacity:0.39215686;stroke:none" />
  </g>
</svg>
