<?xml version="1.0" encoding="UTF-8" standalone="no"?>
<!-- Created with Inkscape (http://www.inkscape.org/) -->

<svg
   xmlns:dc="http://purl.org/dc/elements/1.1/"
   xmlns:cc="http://creativecommons.org/ns#"
   xmlns:rdf="http://www.w3.org/1999/02/22-rdf-syntax-ns#"
   xmlns:svg="http://www.w3.org/2000/svg"
   xmlns="http://www.w3.org/2000/svg"
   xmlns:sodipodi="http://sodipodi.sourceforge.net/DTD/sodipodi-0.dtd"
   xmlns:inkscape="http://www.inkscape.org/namespaces/inkscape"
   width="48"
   height="48"
   id="svg944"
   version="1.1"
   inkscape:version="0.48+devel r12487"
   sodipodi:docname="bluegriffon.svg">
  <defs
     id="defs946" />
  <sodipodi:namedview
     id="base"
     pagecolor="#ffffff"
     bordercolor="#666666"
     borderopacity="1.0"
     inkscape:pageopacity="0.0"
     inkscape:pageshadow="2"
     inkscape:zoom="5.6568543"
     inkscape:cx="-6.9899688"
     inkscape:cy="16.592117"
     inkscape:document-units="px"
     inkscape:current-layer="layer1"
     showgrid="false"
     width="0px"
     height="0px"
     fit-margin-top="0"
     fit-margin-left="0"
     fit-margin-right="0"
     fit-margin-bottom="0"
     inkscape:window-width="1366"
     inkscape:window-height="718"
     inkscape:window-x="0"
     inkscape:window-y="28"
     inkscape:window-maximized="1" />
  <metadata
     id="metadata949">
    <rdf:RDF>
      <cc:Work
         rdf:about="">
        <dc:format>image/svg+xml</dc:format>
        <dc:type
           rdf:resource="http://purl.org/dc/dcmitype/StillImage" />
        <dc:title />
      </cc:Work>
    </rdf:RDF>
  </metadata>
  <g
     inkscape:label="Capa 1"
     inkscape:groupmode="layer"
     id="layer1"
     transform="translate(-1640.5564,-364.34714)">
    <rect
       style="fill:#ffffff;fill-opacity:1;stroke:none"
       id="rect2991-1"
       width="48"
       height="48"
       x="1640.5564"
       y="-412.34714"
       ry="1.9445436"
       transform="scale(1,-1)" />
    <path
       inkscape:connector-curvature="0"
       style="fill:#ffffff;fill-opacity:0.5372549;stroke:none"
       d="m 1643.0876,365.00345 c -0.917,0 -1.6711,0.6395 -1.8437,1.5 0.3356,-0.2799 0.7745,-0.4375 1.25,-0.4375 l 44.125,0 c 0.4755,0 0.9144,0.1576 1.25,0.4375 -0.1726,-0.8605 -0.9267,-1.5 -1.8437,-1.5 L 1643.0876,365.00345 Z"
       id="path7515" />
    <path
       style="font-size:5.06092358px;font-style:normal;font-variant:normal;font-weight:normal;font-stretch:normal;line-height:125%;letter-spacing:0px;word-spacing:0px;fill:#000000;fill-opacity:1;stroke:none;font-family:Helvetica;-inkscape-font-specification:Helvetica"
       d="m 1648.8992,369.59717 0,4 0.8276,0 0,-1.7931 1.5862,0 0,1.7931 0.8276,0 0,-4 -0.8276,0 0,1.51724 -1.5862,0 0,-1.51724 L 1648.8992,369.59717 z m 3.7241,0 0,0.72414 1.2069,0 0,3.27586 0.8276,0 0,-3.27586 1.2069,0 0,-0.72414 L 1652.6233,369.59717 z m 3.7242,0 0,4 0.7586,0 0.034,-3.34483 0.7241,3.34483 0.8276,0 0.7586,-3.34483 0,3.34483 0.7586,0 0,-4 -1.2069,0 -0.7241,3.17241 -0.7241,-3.17241 L 1656.3475,369.59717 z m 4.6896,0 0,4 2.8276,0 0,-0.72414 -2,0 0,-3.27586 L 1661.0371,369.59717 Z"
       id="path891"
       inkscape:connector-curvature="0" />
    <g
       id="g926"
       transform="translate(0,-2.624967)">
      <path
         transform="matrix(0.5888158,0,0,0.5888158,1701.2663,370.3274)"
         d="m -35.754189,6.6145253 c 0,1.8759169 -1.520731,3.3966477 -3.396648,3.3966477 -1.875917,0 -3.396648,-1.5207308 -3.396648,-3.3966477 0,-1.8759168 1.520731,-3.3966479 3.396648,-3.3966479 C -37.27492,3.2178774 -35.754189,4.7386085 -35.754189,6.6145253 Z"
         sodipodi:ry="3.3966479"
         sodipodi:rx="3.3966479"
         sodipodi:cy="6.6145253"
         sodipodi:cx="-39.150837"
         id="path878"
         style="color:#000000;fill:#e6e6e6;fill-opacity:1;fill-rule:nonzero;stroke:none;stroke-width:0.1;marker:none;visibility:visible;display:inline;overflow:visible;enable-background:accumulate"
         sodipodi:type="arc" />
      <path
         sodipodi:type="arc"
         style="color:#000000;fill:#ffffff;fill-opacity:1;fill-rule:nonzero;stroke:none;stroke-width:0.1;marker:none;visibility:visible;display:inline;overflow:visible;enable-background:accumulate"
         id="path880"
         sodipodi:cx="-39.150837"
         sodipodi:cy="6.6145253"
         sodipodi:rx="3.3966479"
         sodipodi:ry="3.3966479"
         d="m -35.754189,6.6145253 c 0,1.8759169 -1.520731,3.3966477 -3.396648,3.3966477 -1.875917,0 -3.396648,-1.5207308 -3.396648,-3.3966477 0,-1.8759168 1.520731,-3.3966479 3.396648,-3.3966479 C -37.27492,3.2178774 -35.754189,4.7386085 -35.754189,6.6145253 Z"
         transform="matrix(0.56006247,0,0,0.56006247,1700.1406,370.51759)" />
      <path
         sodipodi:type="arc"
         style="color:#000000;fill:#87c4ea;fill-opacity:1;fill-rule:nonzero;stroke:none;stroke-width:0.1;marker:none;visibility:visible;display:inline;overflow:visible;enable-background:accumulate"
         id="path865"
         sodipodi:cx="-39.150837"
         sodipodi:cy="6.6145253"
         sodipodi:rx="3.3966479"
         sodipodi:ry="3.3966479"
         d="m -35.754189,6.6145253 c 0,1.8759169 -1.520731,3.3966477 -3.396648,3.3966477 -1.875917,0 -3.396648,-1.5207308 -3.396648,-3.3966477 0,-1.8759168 1.520731,-3.3966479 3.396648,-3.3966479 C -37.27492,3.2178774 -35.754189,4.7386085 -35.754189,6.6145253 Z"
         transform="matrix(0.44726092,0,0,0.44726092,1695.7243,371.26372)" />
      <path
         id="path863"
         d="m 1678.2111,372.70961 c -0.839,0 -1.5176,0.67854 -1.5176,1.51756 0,0.83902 0.6786,1.51756 1.5176,1.51756 0.839,0 1.5176,-0.67854 1.5176,-1.51756 C 1679.7287,373.38815 1679.0501,372.70961 1678.2111,372.70961 z m 0,0.0901 c 0.7833,0 1.4274,0.64413 1.4274,1.42741 0,0.78328 -0.6441,1.41239 -1.4274,1.41239 -0.7833,0 -1.4124,-0.62911 -1.4124,-1.41239 C 1676.7987,373.44389 1677.4278,372.79976 1678.2111,372.79976 Z"
         style="color:#000000;fill:#000000;fill-opacity:0.17050691;fill-rule:nonzero;stroke:none;stroke-width:0.1;marker:none;visibility:visible;display:inline;overflow:visible;enable-background:accumulate"
         inkscape:connector-curvature="0" />
      <path
         inkscape:connector-curvature="0"
         style="color:#000000;fill:#000000;fill-opacity:0.05990786;fill-rule:nonzero;stroke:none;stroke-width:0.1;marker:none;visibility:visible;display:inline;overflow:visible;enable-background:accumulate"
         d="m 1678.2137,372.79651 c -0.7882,0 -1.4256,0.63743 -1.4256,1.42562 0,0.7882 0.6374,1.42563 1.4256,1.42563 0.7882,0 1.4256,-0.63743 1.4256,-1.42563 C 1679.6393,373.43394 1679.0019,372.79651 1678.2137,372.79651 z m 0,0.0847 c 0.7358,0 1.3409,0.60511 1.3409,1.34093 0,0.73583 -0.6051,1.32682 -1.3409,1.32682 -0.7359,0 -1.3268,-0.59099 -1.3268,-1.32682 C 1676.8869,373.48631 1677.4778,372.8812 1678.2137,372.8812 Z"
         id="path874" />
      <path
         id="path876"
         d="m 1678.2137,372.87885 c -0.7427,0 -1.3433,0.60061 -1.3433,1.34328 0,0.74268 0.6006,1.34329 1.3433,1.34329 0.7426,0 1.3433,-0.60061 1.3433,-1.34329 C 1679.557,373.47946 1678.9563,372.87885 1678.2137,372.87885 z m 0,0.0798 c 0.6933,0 1.2635,0.57016 1.2635,1.26348 0,0.69333 -0.5702,1.25019 -1.2635,1.25019 -0.6934,0 -1.2502,-0.55686 -1.2502,-1.25019 C 1676.9635,373.52881 1677.5203,372.95865 1678.2137,372.95865 Z"
         style="color:#000000;fill:#000000;fill-opacity:0.03137255;fill-rule:nonzero;stroke:none;stroke-width:0.1;marker:none;visibility:visible;display:inline;overflow:visible;enable-background:accumulate"
         inkscape:connector-curvature="0" />
    </g>
    <path
       style="color:#000000;fill:#fbfbfb;fill-opacity:1;fill-rule:nonzero;stroke:none;stroke-width:0.1;marker:none;visibility:visible;display:inline;overflow:visible;enable-background:accumulate"
       d="m 1640.5564,377.63251 0,32.84697 c 0,0.43649 0.1181,0.83477 0.3053,1.14891 l 10.6635,0 0,-33.99588 L 1640.5564,377.63251 Z"
       id="rect934"
       inkscape:connector-curvature="0" />
    <path
       style="color:#000000;fill:#e4e4e4;fill-opacity:1;fill-rule:nonzero;stroke:none;stroke-width:0.1;marker:none;visibility:visible;display:inline;overflow:visible;enable-background:accumulate"
       d="m 1641.2127,377.19089 0,0.4375 46.6875,0 0,-0.4375 L 1641.2127,377.19089 Z"
       id="rect904"
       inkscape:connector-curvature="0" />
    <path
       inkscape:connector-curvature="0"
       style="fill:#000000;fill-opacity:0.39215686;stroke:none"
       d="m 1642.4939,364.34715 c -1.0773,0 -1.9375,0.8602 -1.9375,1.9375 l 0,43.0625 c 0,0.7934 0.48,1.449 1.1562,1.75 -0.3093,-0.3333 -0.5,-0.7824 -0.5,-1.2812 l 0,-42.9375 c 0,-1.0482 0.8269,-1.875 1.875,-1.875 l 42.9376,0 c 1.0481,0 1.875,0.8268 1.875,1.875 l 0,42.9375 c 0,0.4988 -0.1907,0.9479 -0.5,1.2812 0.6762,-0.301 1.1562,-0.9566 1.1562,-1.75 l 0,-43.0625 c 0,-1.0773 -0.8602,-1.9375 -1.9375,-1.9375 L 1642.4939,364.34715 Z"
       id="rect4280" />
    <path
       inkscape:connector-curvature="0"
       style="fill:#000000;fill-opacity:1;stroke:none"
       d="m 1640.5564,409.34715 0,1.0625 c 0,1.0773 0.8602,1.9375 1.9375,1.9375 l 44.125,0 c 1.0773,0 1.9375,-0.8602 1.9375,-1.9375 l 0,-1.0625 c 0,1.0773 -0.8602,1.9375 -1.9375,1.9375 l -44.125,0 C 1641.4166,411.28465 1640.5564,410.42445 1640.5564,409.34715 Z"
       id="rect846" />
    <path
       style="color:#000000;fill:#e4e4e4;fill-opacity:1;fill-rule:nonzero;stroke:none;stroke-width:0.1;marker:none;visibility:visible;display:inline;overflow:visible;enable-background:accumulate"
       d="m 1651.5252,377.62839 0,33.65625 0.4375,0 0,-33.65625 L 1651.5252,377.62839 Z"
       id="path943"
       inkscape:connector-curvature="0" />
    <g
       id="g1119"
       transform="translate(0,0.098755)">
      <path
         d="m 1647.6461,383.7309 -1.8115,0 0,-0.34913 0.73,0 0,-2.67578 -0.6885,0.34424 0,-0.40039 0.7446,-0.3833 0.3443,0 0,3.11523 0.6811,0 L 1647.6461,383.7309 Z"
         style="font-size:5px;font-style:normal;font-variant:normal;font-weight:bold;font-stretch:normal;line-height:125%;letter-spacing:0px;word-spacing:0px;fill:#b3b3b3;fill-opacity:1;stroke:none;font-family:Andale Mono;-inkscape-font-specification:Andale Mono Bold"
         id="path967"
         inkscape:connector-curvature="0" />
      <path
         d="m 1647.5558,389.9809 -1.8945,0 0,-0.29053 q 0.7202,-0.80322 0.935,-1.07666 0.2149,-0.27344 0.3491,-0.57373 0.1343,-0.30029 0.1343,-0.59815 0,-0.28808 -0.1758,-0.4541 -0.1733,-0.16601 -0.4883,-0.16601 -0.2416,0 -0.6494,0.14892 l -0.056,-0.34424 q 0.3686,-0.15625 0.7715,-0.15625 0.4614,0 0.7422,0.26123 0.2832,0.25879 0.2832,0.69336 0,0.31006 -0.1465,0.61524 -0.1441,0.30517 -0.3711,0.58594 -0.2271,0.28076 -0.8838,1.00585 l 1.4502,0 L 1647.5558,389.9809 Z"
         style="font-size:5px;font-style:normal;font-variant:normal;font-weight:bold;font-stretch:normal;line-height:125%;letter-spacing:0px;word-spacing:0px;fill:#b3b3b3;fill-opacity:1;stroke:none;font-family:Andale Mono;-inkscape-font-specification:Andale Mono Bold"
         id="path969"
         inkscape:connector-curvature="0" />
      <path
         d="m 1646.8746,394.38031 q 0.315,0.0879 0.5054,0.32227 0.1904,0.23193 0.1904,0.52246 0,0.4541 -0.354,0.76416 -0.354,0.30761 -0.8349,0.30761 -0.4102,0 -0.7349,-0.18066 l 0.078,-0.32959 q 0.3394,0.15869 0.6714,0.15869 0.3125,0 0.5322,-0.19287 0.2222,-0.19531 0.2222,-0.50049 0,-0.30029 -0.2368,-0.48828 -0.2368,-0.18799 -0.6274,-0.18799 l -0.105,0 0,-0.32959 0.029,0 q 0.3759,0 0.6201,-0.17578 0.2441,-0.17822 0.2441,-0.47851 0,-0.24414 -0.1758,-0.38086 -0.1757,-0.13916 -0.4834,-0.13916 -0.2661,0 -0.5957,0.14404 l -0.054,-0.34424 q 0.3321,-0.15137 0.669,-0.15137 0.4614,0 0.7593,0.24414 0.3003,0.2417 0.3003,0.62256 0,0.26367 -0.1832,0.49317 -0.1806,0.22705 -0.437,0.28564 L 1646.8746,394.38031 Z"
         style="font-size:5px;font-style:normal;font-variant:normal;font-weight:bold;font-stretch:normal;line-height:125%;letter-spacing:0px;word-spacing:0px;fill:#b3b3b3;fill-opacity:1;stroke:none;font-family:Andale Mono;-inkscape-font-specification:Andale Mono Bold"
         id="path971"
         inkscape:connector-curvature="0" />
      <path
         d="m 1647.7804,401.685 -0.4248,0 0,0.7959 -0.4004,0 0,-0.7959 -1.499,0 0,-0.30518 1.3598,-2.34375 0.5396,0 0,2.29981 0.4248,0 L 1647.7804,401.685 z m -0.8252,-0.34912 0,-1.9043 -1.0937,1.9043 L 1646.9552,401.33588 Z"
         style="font-size:5px;font-style:normal;font-variant:normal;font-weight:bold;font-stretch:normal;line-height:125%;letter-spacing:0px;word-spacing:0px;fill:#b3b3b3;fill-opacity:1;stroke:none;font-family:Andale Mono;-inkscape-font-specification:Andale Mono Bold"
         id="path973"
         inkscape:connector-curvature="0" />
      <path
         d="m 1646.2203,406.67523 q 0.1661,-0.0439 0.3247,-0.0439 0.4883,0 0.7715,0.30029 0.2832,0.29785 0.2832,0.74463 0,0.46875 -0.3296,0.7959 -0.3295,0.3247 -0.8032,0.3247 -0.4516,0 -0.7568,-0.15136 l 0.081,-0.33936 q 0.3321,0.13916 0.6861,0.13916 0.3149,0 0.5078,-0.20264 0.1953,-0.20263 0.1953,-0.5664 0,-0.34424 -0.1831,-0.52979 -0.1831,-0.18554 -0.4712,-0.18554 -0.2099,0 -0.415,0.0806 l -0.2393,-0.10986 0,-1.64551 1.5747,0 0,0.34912 -1.2256,0 L 1646.2203,406.67523 Z"
         style="font-size:5px;font-style:normal;font-variant:normal;font-weight:bold;font-stretch:normal;line-height:125%;letter-spacing:0px;word-spacing:0px;fill:#b3b3b3;fill-opacity:1;stroke:none;font-family:Andale Mono;-inkscape-font-specification:Andale Mono Bold"
         id="path975"
         inkscape:connector-curvature="0" />
    </g>
    <path
       style="font-size:5px;font-style:normal;font-variant:normal;font-weight:normal;font-stretch:normal;line-height:125%;letter-spacing:0px;word-spacing:0px;fill:#000000;fill-opacity:1;stroke:none;font-family:Andale Mono;-inkscape-font-specification:Andale Mono"
       d="m 1657.2127,380.36529 0,3.46875 0.4062,0 0,-1.84375 c 0.2669,-0.28971 0.5173,-0.4375 0.75,-0.4375 0.1546,0 0.2722,0.0537 0.3438,0.15625 0.073,0.10092 0.094,0.24251 0.094,0.46875 l 0,1.65625 0.375,0 0,-1.75 c 0,-0.57616 -0.2418,-0.875 -0.7187,-0.875 -0.3028,0 -0.5704,0.14779 -0.8438,0.4375 l 0,-1.28125 L 1657.2127,380.36529 z m 9.0937,0 0,0.34375 0.6563,0 0,3.125 1.0312,0 0,-0.34375 -0.6562,0 0,-3.125 L 1666.3064,380.36529 z m -5.5312,0.21875 0,0.6875 -0.5,0 0,0.34375 0.5,0 0,1.5625 c 0,0.48014 0.2334,0.71875 0.6875,0.71875 0.2474,0 0.4944,-0.0703 0.75,-0.1875 l -0.062,-0.28125 c -0.2035,0.0928 -0.4167,0.125 -0.625,0.125 -0.1172,0 -0.213,-0.0404 -0.2813,-0.125 -0.068,-0.0863 -0.094,-0.22037 -0.094,-0.375 l 0,-1.4375 0.875,0 0,-0.34375 -0.875,0 0,-0.6875 L 1660.7752,380.58404 z m -4.6875,0.25 -1.8438,1.0625 0,0.3125 1.8438,1.09375 0,-0.375 -1.4688,-0.875 1.4688,-0.875 L 1656.0877,380.83404 z m 13.25,0 0,0.34375 1.4687,0.875 -1.4687,0.875 0,0.375 1.8437,-1.09375 0,-0.3125 L 1669.3377,380.83404 z m -5.4063,0.375 c -0.098,0 -0.2132,0.0436 -0.3125,0.125 -0.098,0.0798 -0.1783,0.20866 -0.25,0.34375 l 0,-0.40625 -0.3437,0 0,2.5625 0.375,0 0,-1.84375 c 0,-0.0147 0.034,-0.0804 0.125,-0.21875 0.093,-0.13997 0.1751,-0.21875 0.25,-0.21875 0.1513,0 0.25,0.19011 0.25,0.59375 l 0,1.6875 0.375,0 0,-1.84375 c 0,-0.0147 0.034,-0.0804 0.125,-0.21875 0.093,-0.13997 0.1734,-0.21875 0.25,-0.21875 0.1497,0 0.2187,0.19011 0.2187,0.59375 l 0,1.6875 0.4063,0 0,-1.78125 c 0,-0.55013 -0.1612,-0.84375 -0.4688,-0.84375 -0.096,0 -0.2132,0.0436 -0.3125,0.125 -0.099,0.0798 -0.1784,0.20866 -0.25,0.34375 -0.031,-0.13509 -0.075,-0.26398 -0.1562,-0.34375 C 1664.1313,381.25266 1664.0339,381.20904 1663.9314,381.20904 z m -0.7187,5.40625 0,3.46875 0.4062,0 0,-1.84375 c 0.2669,-0.28971 0.5172,-0.4375 0.75,-0.4375 0.1546,0 0.2409,0.0537 0.3125,0.15625 0.073,0.10092 0.125,0.24251 0.125,0.46875 l 0,1.65625 0.375,0 0,-1.75 c 0,-0.57616 -0.2419,-0.875 -0.7187,-0.875 -0.3028,0 -0.5704,0.14779 -0.8438,0.4375 l 0,-1.28125 L 1663.2127,386.61529 z m 10.5625,0 0,1.25 c -0.1954,-0.26042 -0.4294,-0.40625 -0.75,-0.40625 -0.2914,0 -0.5414,0.12923 -0.7188,0.375 -0.1758,0.24415 -0.25,0.56478 -0.25,0.9375 0,0.39876 0.081,0.70833 0.25,0.96875 0.1693,0.25879 0.3962,0.40625 0.6875,0.40625 0.1611,0 0.324,-0.0436 0.4688,-0.125 0.1465,-0.0814 0.2343,-0.18716 0.3125,-0.3125 l 0,0.375 0.4062,0 0,-3.46875 L 1673.7752,386.61529 z m -11.6875,0.46875 -1.8438,1.0625 0,0.3125 1.8438,1.09375 0,-0.375 -1.4688,-0.875 1.4688,-0.875 L 1662.0877,387.08404 z m 19.25,0 0,0.34375 1.4687,0.875 -1.4687,0.875 0,0.375 1.8125,-1.09375 0,-0.3125 L 1681.3377,387.08404 z m -14.125,0.375 c -0.3288,0 -0.573,0.13412 -0.7813,0.375 -0.2067,0.23926 -0.3125,0.56511 -0.3125,0.96875 0,0.41179 0.1126,0.72625 0.3438,0.96875 0.231,0.24253 0.5286,0.375 0.9062,0.375 0.2995,0 0.5567,-0.0553 0.7813,-0.15625 l -0.062,-0.3125 c -0.2458,0.083 -0.4877,0.125 -0.7188,0.125 -0.2425,0 -0.4261,-0.0941 -0.5937,-0.28125 -0.166,-0.18716 -0.25,-0.43065 -0.25,-0.71875 l 1.7187,0 0,-0.0937 c 0,-0.37109 -0.084,-0.68327 -0.2812,-0.90625 C 1667.7657,387.57981 1667.5056,387.45904 1667.2127,387.45904 z m 3.0937,0 c -0.2979,0 -0.6221,0.10384 -0.9687,0.28125 l 0.094,0.28125 c 0.1058,-0.057 0.2598,-0.11558 0.4063,-0.15625 0.1481,-0.0423 0.2477,-0.0625 0.3437,-0.0625 0.4069,0 0.625,0.22006 0.625,0.65625 l 0,0.125 -0.4375,0.0312 c -0.192,0.0147 -0.36,0.0234 -0.5,0.0625 -0.14,0.0374 -0.2461,0.0895 -0.3437,0.15625 -0.098,0.0651 -0.1681,0.15397 -0.2188,0.25 -0.051,0.096 -0.094,0.21843 -0.094,0.34375 0,0.21159 0.075,0.36491 0.2187,0.5 0.1449,0.13346 0.3112,0.21875 0.5,0.21875 0.3727,0 0.6585,-0.15137 0.875,-0.46875 0,0.1709 0.032,0.30372 0.062,0.40625 l 0.375,0 c -0.042,-0.17253 -0.063,-0.37237 -0.062,-0.59375 l 0,-1.09375 C 1671.1814,387.78294 1670.8858,387.45904 1670.3064,387.45904 z m 5.9063,0 c -0.3288,0 -0.573,0.13412 -0.7813,0.375 -0.2067,0.23926 -0.3125,0.56511 -0.3125,0.96875 0,0.41179 0.1126,0.72625 0.3438,0.96875 0.2311,0.24253 0.5286,0.375 0.9062,0.375 0.2995,0 0.5567,-0.0553 0.7813,-0.15625 l -0.062,-0.3125 c -0.2458,0.083 -0.4877,0.125 -0.7188,0.125 -0.2425,0 -0.4573,-0.0941 -0.625,-0.28125 -0.166,-0.18716 -0.25,-0.43065 -0.25,-0.71875 l 1.75,0 0,-0.0937 c 0,-0.37109 -0.084,-0.68327 -0.2812,-0.90625 C 1676.7657,387.57981 1676.5056,387.45904 1676.2127,387.45904 z m 3.4375,0 c -0.324,0 -0.5778,0.20963 -0.7813,0.59375 l 0,-0.53125 -0.375,0 0,2.5625 0.375,0 0,-1.65625 c 0,-0.0147 0.035,-0.0687 0.125,-0.1875 0.091,-0.12045 0.205,-0.21778 0.3125,-0.28125 0.1074,-0.0651 0.2002,-0.0937 0.3125,-0.0937 0.1221,0 0.2699,0.0205 0.4375,0.0937 l 0.1563,-0.375 C 1680.032,387.49779 1679.8422,387.45902 1679.6502,387.45904 z m -12.4063,0.34375 c 0.1529,0 0.2825,0.0508 0.4063,0.1875 0.1236,0.13511 0.1875,0.30145 0.1875,0.5 l -1.3125,0 c 0.015,-0.20996 0.09,-0.36979 0.2187,-0.5 C 1666.8741,387.86008 1667.0469,387.80279 1667.2439,387.80279 z m 5.875,0 c 0.2571,0 0.4739,0.14453 0.6563,0.4375 l 0,1.0625 c 0,0.0228 -0.039,0.0833 -0.125,0.1875 -0.086,0.10418 -0.1836,0.1667 -0.2813,0.21875 -0.098,0.0521 -0.1852,0.0937 -0.2812,0.0937 -0.2002,0 -0.3532,-0.0908 -0.4688,-0.28125 -0.1139,-0.19205 -0.1562,-0.45702 -0.1562,-0.75 0,-0.28483 0.034,-0.50196 0.1562,-0.6875 C 1672.741,387.89686 1672.9089,387.80279 1673.1189,387.80279 z m 3.125,0 c 0.153,0 0.2826,0.0508 0.4063,0.1875 0.1237,0.13511 0.1875,0.30145 0.1875,0.5 l -1.3125,0 c 0.015,-0.20996 0.09,-0.36979 0.2187,-0.5 C 1675.8741,387.86008 1676.047,387.80279 1676.2439,387.80279 z m -5.4375,1.0625 0,0.46875 c -0.1009,0.1416 -0.2103,0.23112 -0.3437,0.3125 -0.1335,0.0798 -0.2712,0.125 -0.4063,0.125 -0.1237,0 -0.2328,-0.0238 -0.3125,-0.0937 -0.08,-0.07 -0.125,-0.16731 -0.125,-0.28125 0,-0.12532 0.063,-0.23926 0.1563,-0.3125 0.094,-0.0732 0.1855,-0.0989 0.3125,-0.125 C 1670.2162,388.93138 1670.4629,388.89623 1670.8064,388.86529 z m -0.4375,3.9375 c -0.067,0 -0.1354,0.0417 -0.1875,0.0937 -0.051,0.0521 -0.062,0.11752 -0.062,0.1875 0,0.07 0.012,0.13377 0.062,0.1875 0.052,0.0521 0.1208,0.0625 0.1875,0.0625 0.073,0 0.1388,-0.012 0.1875,-0.0625 0.051,-0.0505 0.062,-0.11264 0.062,-0.1875 0,-0.0716 -0.012,-0.13703 -0.062,-0.1875 C 1670.506,392.84449 1670.4406,392.80279 1670.3689,392.80279 z m 4.9063,0.0625 0,0.34375 0.6875,0 0,3.125 1.0312,0 0,-0.34375 -0.6562,0 0,-3.125 L 1675.2752,392.86529 z m -8.5,0.21875 0,0.6875 -0.5,0 0,0.34375 0.5,0 0,1.5625 c 0,0.48014 0.2334,0.71875 0.6875,0.71875 0.2474,0 0.4944,-0.0703 0.75,-0.1875 l -0.062,-0.28125 c -0.2035,0.0928 -0.4167,0.125 -0.625,0.125 -0.1172,0 -0.213,-0.0404 -0.2813,-0.125 -0.068,-0.0863 -0.094,-0.22037 -0.094,-0.375 l 0,-1.4375 0.8437,0 0,-0.34375 -0.8437,0 0,-0.6875 L 1666.7752,393.08404 z m 6,0 0,0.6875 -0.5,0 0,0.34375 0.5,0 0,1.5625 c 0,0.48014 0.2334,0.71875 0.6875,0.71875 0.2474,0 0.4944,-0.0703 0.75,-0.1875 l -0.062,-0.28125 c -0.2035,0.0928 -0.4167,0.125 -0.625,0.125 -0.1172,0 -0.213,-0.0404 -0.2813,-0.125 -0.068,-0.0863 -0.094,-0.22037 -0.094,-0.375 l 0,-1.4375 0.8437,0 0,-0.34375 -0.8437,0 0,-0.6875 L 1672.7752,393.08404 z m -7.6875,0.25 -1.8438,1.0625 0,0.3125 1.8438,1.09375 0,-0.375 -1.4688,-0.875 1.4688,-0.875 L 1665.0877,393.33404 z m 16.25,0 0,0.34375 1.4687,0.875 -1.4687,0.875 0,0.375 1.8125,-1.09375 0,-0.3125 L 1681.3377,393.33404 z m -2.125,0.375 c -0.3288,0 -0.6042,0.13412 -0.8125,0.375 -0.2067,0.23926 -0.2813,0.56511 -0.2813,0.96875 0,0.41179 0.1127,0.72625 0.3438,0.96875 0.2311,0.24253 0.5286,0.375 0.9062,0.375 0.2995,0 0.5567,-0.0553 0.7813,-0.15625 l -0.062,-0.3125 c -0.2458,0.083 -0.4877,0.125 -0.7188,0.125 -0.2425,0 -0.4574,-0.0941 -0.625,-0.28125 -0.166,-0.18716 -0.25,-0.43065 -0.25,-0.71875 l 1.75,0 0,-0.0937 c 0,-0.37109 -0.084,-0.68327 -0.2812,-0.90625 C 1679.7656,393.82981 1679.5056,393.70904 1679.2127,393.70904 z m -9.8125,0.0625 0,0.34375 0.75,0 0,2.21875 0.4062,0 0,-2.5625 L 1669.4002,393.77154 z m 9.8437,0.28125 c 0.153,0 0.2825,0.0508 0.4063,0.1875 0.1236,0.13511 0.1875,0.30145 0.1875,0.5 l -1.3125,0 c 0.015,-0.20996 0.09,-0.36979 0.2187,-0.5 C 1678.8741,394.11008 1679.047,394.05279 1679.2439,394.05279 z m -14.5312,5 -1.5,3.59375 0.375,0 1.5,-3.59375 L 1664.7127,399.05279 z m 1.5,0.0625 0,3.46875 0.375,0 0,-1.84375 c 0.2669,-0.28971 0.5172,-0.4375 0.75,-0.4375 0.1546,0 0.2721,0.0537 0.3437,0.15625 0.073,0.10092 0.125,0.24251 0.125,0.46875 l 0,1.65625 0.375,0 0,-1.75 c 0,-0.57616 -0.2419,-0.875 -0.7187,-0.875 -0.3028,0 -0.6016,0.14779 -0.875,0.4375 l 0,-1.28125 L 1666.2127,399.11529 z m 10.5625,0 0,1.25 c -0.1954,-0.26042 -0.4294,-0.40625 -0.75,-0.40625 -0.2914,0 -0.5414,0.12923 -0.7188,0.375 -0.1758,0.24415 -0.25,0.56478 -0.25,0.9375 0,0.39876 0.081,0.70833 0.25,0.96875 0.1693,0.25879 0.3962,0.40625 0.6875,0.40625 0.1611,0 0.3239,-0.0436 0.4688,-0.125 0.1464,-0.0814 0.2343,-0.18716 0.3125,-0.3125 l 0,0.375 0.4062,0 0,-3.46875 L 1676.7752,399.11529 z m -14.6875,0.46875 -1.8438,1.0625 0,0.3125 1.8438,1.09375 0,-0.375 -1.4688,-0.875 1.4688,-0.875 L 1662.0877,399.58404 z m 22.25,0 0,0.34375 1.4687,0.875 -1.4687,0.875 0,0.375 1.8125,-1.09375 0,-0.3125 L 1684.3377,399.58404 z m -14.125,0.375 c -0.3288,0 -0.573,0.13412 -0.7813,0.375 -0.2067,0.23926 -0.3125,0.56511 -0.3125,0.96875 0,0.41179 0.1126,0.72625 0.3438,0.96875 0.2311,0.24253 0.5286,0.375 0.9062,0.375 0.2995,0 0.5567,-0.0553 0.7813,-0.15625 l -0.062,-0.3125 c -0.2458,0.083 -0.4877,0.125 -0.7188,0.125 -0.2425,0 -0.4261,-0.0941 -0.5937,-0.28125 -0.166,-0.18716 -0.25,-0.43065 -0.25,-0.71875 l 1.7187,0 0,-0.0937 c 0,-0.37109 -0.084,-0.68327 -0.2812,-0.90625 C 1670.7657,400.07981 1670.5056,399.95904 1670.2127,399.95904 z m 3.0937,0 c -0.2978,0 -0.6221,0.10384 -0.9687,0.28125 l 0.094,0.28125 c 0.1058,-0.057 0.2285,-0.11558 0.375,-0.15625 0.1481,-0.0423 0.2789,-0.0625 0.375,-0.0625 0.4069,0 0.625,0.22006 0.625,0.65625 l 0,0.125 -0.4375,0.0312 c -0.1921,0.0147 -0.36,0.0234 -0.5,0.0625 -0.1399,0.0374 -0.2461,0.0895 -0.3437,0.15625 -0.098,0.0651 -0.1681,0.15397 -0.2188,0.25 -0.051,0.096 -0.094,0.21843 -0.094,0.34375 0,0.21159 0.075,0.36491 0.2187,0.5 0.1449,0.13346 0.3112,0.21875 0.5,0.21875 0.3727,0 0.6585,-0.15137 0.875,-0.46875 0,0.1709 0.032,0.30372 0.062,0.40625 l 0.375,0 c -0.042,-0.17253 -0.063,-0.37237 -0.062,-0.59375 l 0,-1.09375 C 1674.1814,400.28294 1673.8859,399.95904 1673.3064,399.95904 z m 5.9063,0 c -0.3288,0 -0.6042,0.13412 -0.8125,0.375 -0.2067,0.23926 -0.2813,0.56511 -0.2813,0.96875 0,0.41179 0.1127,0.72625 0.3438,0.96875 0.2311,0.24253 0.5286,0.375 0.9062,0.375 0.2995,0 0.5567,-0.0553 0.7813,-0.15625 l -0.062,-0.3125 c -0.2458,0.083 -0.4877,0.125 -0.7188,0.125 -0.2425,0 -0.4574,-0.0941 -0.625,-0.28125 -0.166,-0.18716 -0.25,-0.43065 -0.25,-0.71875 l 1.75,0 0,-0.0937 c 0,-0.37109 -0.084,-0.68327 -0.2812,-0.90625 C 1679.7656,400.07981 1679.5056,399.95904 1679.2127,399.95904 z m 3.4375,0 c -0.3239,0 -0.5778,0.20963 -0.7813,0.59375 l 0,-0.53125 -0.375,0 0,2.5625 0.375,0 0,-1.65625 c 0,-0.0147 0.035,-0.0687 0.125,-0.1875 0.091,-0.12045 0.2051,-0.21778 0.3125,-0.28125 0.1075,-0.0651 0.2002,-0.0937 0.3125,-0.0937 0.1221,0 0.2698,0.0205 0.4375,0.0937 l 0.1563,-0.375 C 1683.032,399.99779 1682.8422,399.95902 1682.6502,399.95904 z m -12.4063,0.34375 c 0.153,0 0.2826,0.0508 0.4063,0.1875 0.1237,0.13511 0.1875,0.30145 0.1875,0.5 l -1.3125,0 c 0.015,-0.20996 0.09,-0.36979 0.2187,-0.5 C 1669.8741,400.36008 1670.047,400.30279 1670.2439,400.30279 z m 5.875,0 c 0.2572,0 0.474,0.14453 0.6563,0.4375 l 0,1.0625 c 0,0.0228 -0.039,0.0833 -0.125,0.1875 -0.086,0.10418 -0.1836,0.1667 -0.2813,0.21875 -0.098,0.0521 -0.1852,0.0937 -0.2812,0.0937 -0.2002,0 -0.3533,-0.0908 -0.4688,-0.28125 -0.1139,-0.19205 -0.1875,-0.45702 -0.1875,-0.75 0,-0.28483 0.065,-0.50196 0.1875,-0.6875 C 1675.741,400.39686 1675.909,400.30279 1676.1189,400.30279 z m 3.125,0 c 0.153,0 0.2825,0.0508 0.4063,0.1875 0.1236,0.13511 0.1875,0.30145 0.1875,0.5 l -1.3125,0 c 0.015,-0.20996 0.09,-0.36979 0.2187,-0.5 C 1678.8741,400.36008 1679.047,400.30279 1679.2439,400.30279 z m -5.4375,1.0625 0,0.46875 c -0.1009,0.1416 -0.2415,0.23112 -0.375,0.3125 -0.1335,0.0798 -0.2399,0.125 -0.375,0.125 -0.1237,0 -0.2328,-0.0238 -0.3125,-0.0937 -0.08,-0.07 -0.125,-0.16731 -0.125,-0.28125 0,-0.12532 0.032,-0.23926 0.125,-0.3125 0.094,-0.0732 0.2168,-0.0989 0.3438,-0.125 C 1673.2163,401.43138 1673.463,401.39623 1673.8064,401.36529 z m -16.5937,4 0,3.46875 0.4062,0 0,-0.375 c 0.08,0.13022 0.1758,0.23276 0.3125,0.3125 0.1383,0.0781 0.2796,0.125 0.4375,0.125 0.2946,0 0.543,-0.1442 0.7188,-0.40625 0.1757,-0.26366 0.25,-0.57648 0.25,-0.96875 0,-0.38736 -0.084,-0.69986 -0.25,-0.9375 -0.1645,-0.23763 -0.3913,-0.375 -0.6875,-0.375 -0.1596,0 -0.2927,0.0534 -0.4375,0.125 -0.1433,0.0716 -0.2592,0.16407 -0.3438,0.28125 l 0,-1.25 L 1657.2127,405.36529 z m 7.5937,0 0,1.25 c -0.1953,-0.26042 -0.4606,-0.40625 -0.7812,-0.40625 -0.2914,0 -0.5414,0.12923 -0.7188,0.375 -0.1758,0.24415 -0.25,0.56478 -0.25,0.9375 0,0.39876 0.081,0.70833 0.25,0.96875 0.1693,0.25879 0.3962,0.40625 0.6875,0.40625 0.1611,0 0.3239,-0.0436 0.4688,-0.125 0.1464,-0.0814 0.2656,-0.18716 0.3437,-0.3125 l 0,0.375 0.375,0 0,-3.46875 L 1664.8064,405.36529 z m -8.7187,0.46875 -1.8438,1.0625 0,0.3125 1.8438,1.09375 0,-0.375 -1.4688,-0.875 1.4688,-0.875 L 1656.0877,405.83404 z m 13.25,0 0,0.34375 1.4687,0.875 -1.4687,0.875 0,0.375 1.8437,-1.09375 0,-0.3125 L 1669.3377,405.83404 z m -8.125,0.375 c -0.35,0 -0.6371,0.13086 -0.8438,0.375 -0.2067,0.24251 -0.3125,0.56836 -0.3125,0.96875 0,0.40366 0.1074,0.72299 0.3125,0.96875 0.2067,0.24415 0.4922,0.375 0.8438,0.375 0.3499,0 0.6058,-0.12923 0.8125,-0.375 0.2067,-0.24576 0.3125,-0.56673 0.3125,-0.96875 0,-0.39875 -0.1058,-0.7246 -0.3125,-0.96875 C 1661.8185,406.3399 1661.5626,406.20904 1661.2127,406.20904 z m 4.8125,0.0625 0.9687,2.5625 c -0.09,0.24089 -0.1934,0.39421 -0.2812,0.5 -0.088,0.1058 -0.2071,0.15625 -0.3438,0.15625 -0.098,0 -0.1888,-0.0234 -0.3125,-0.0625 l -0.062,0.3125 c 0.153,0.0569 0.2812,0.0937 0.4375,0.0937 0.1757,0 0.332,-0.0706 0.4688,-0.21875 0.1383,-0.14811 0.2974,-0.40689 0.4375,-0.78125 l 0.9687,-2.5625 -0.4375,0 -0.7187,2.03125 -0.7188,-2.03125 L 1666.0252,406.27154 z m -7.7188,0.28125 c 0.2067,0 0.3531,0.099 0.4688,0.28125 0.1155,0.1823 0.1875,0.39454 0.1875,0.6875 0,0.28484 -0.065,0.52344 -0.1875,0.71875 -0.1205,0.19532 -0.295,0.3125 -0.5,0.3125 -0.1303,0 -0.253,-0.0602 -0.375,-0.15625 -0.1221,-0.096 -0.2097,-0.20051 -0.2813,-0.34375 l 0,-1.0625 C 1657.806,406.69732 1658.0378,406.55279 1658.3064,406.55279 z m 2.9063,0 c 0.2343,0 0.3993,0.0924 0.5312,0.28125 0.1318,0.18881 0.2188,0.42579 0.2188,0.71875 0,0.27832 -0.085,0.52344 -0.2188,0.71875 -0.1334,0.19532 -0.3001,0.28125 -0.5312,0.28125 -0.2328,0 -0.4307,-0.0892 -0.5625,-0.28125 -0.1319,-0.19367 -0.1875,-0.43554 -0.1875,-0.71875 0,-0.29784 0.057,-0.5332 0.1875,-0.71875 C 1660.7804,406.64686 1660.9766,406.55279 1661.2127,406.55279 z m 2.9375,0 c 0.2572,0 0.4739,0.14453 0.6562,0.4375 l 0,1.0625 c 0,0.0228 -0.07,0.0833 -0.1562,0.1875 -0.086,0.10418 -0.1524,0.1667 -0.25,0.21875 -0.098,0.0521 -0.2165,0.0937 -0.3125,0.0937 -0.2002,0 -0.3533,-0.0908 -0.4688,-0.28125 -0.1139,-0.19205 -0.1562,-0.45702 -0.1562,-0.75 0,-0.28483 0.065,-0.50196 0.1875,-0.6875 C 1663.7722,406.64686 1663.9402,406.55279 1664.1502,406.55279 Z"
       id="path1010"
       inkscape:connector-curvature="0" />
  </g>
</svg>
