<?xml version="1.0" encoding="UTF-8" standalone="no"?>
<svg
   xmlns:dc="http://purl.org/dc/elements/1.1/"
   xmlns:cc="http://creativecommons.org/ns#"
   xmlns:rdf="http://www.w3.org/1999/02/22-rdf-syntax-ns#"
   xmlns:svg="http://www.w3.org/2000/svg"
   xmlns="http://www.w3.org/2000/svg"
   xmlns:xlink="http://www.w3.org/1999/xlink"
   xmlns:sodipodi="http://sodipodi.sourceforge.net/DTD/sodipodi-0.dtd"
   xmlns:inkscape="http://www.inkscape.org/namespaces/inkscape"
   width="48"
   viewBox="0 0 13.546667 13.546667"
   height="48"
   id="svg2"
   version="1.1"
   inkscape:version="0.48+devel r"
   sodipodi:docname="bluetooth-black.svg">
  <metadata
     id="metadata20">
    <rdf:RDF>
      <cc:Work
         rdf:about="">
        <dc:format>image/svg+xml</dc:format>
        <dc:type
           rdf:resource="http://purl.org/dc/dcmitype/StillImage" />
        <dc:title />
      </cc:Work>
    </rdf:RDF>
  </metadata>
  <sodipodi:namedview
     pagecolor="#ffffff"
     bordercolor="#666666"
     borderopacity="1"
     objecttolerance="10"
     gridtolerance="10"
     guidetolerance="10"
     inkscape:pageopacity="0"
     inkscape:pageshadow="2"
     inkscape:window-width="1366"
     inkscape:window-height="666"
     id="namedview18"
     showgrid="false"
     inkscape:zoom="4.6067607"
     inkscape:cx="32.583351"
     inkscape:cy="20.037067"
     inkscape:window-x="-2"
     inkscape:window-y="25"
     inkscape:window-maximized="1"
     inkscape:current-layer="svg2" />
  <defs
     id="defs4">
    <linearGradient
       id="linearGradient4538"
       inkscape:collect="always">
      <stop
         id="stop4540"
         offset="0"
         style="stop-color:#2e2e2e;stop-opacity:1" />
      <stop
         style="stop-color:#3c3c3c;stop-opacity:1"
         offset="0.34163755"
         id="stop4542" />
      <stop
         id="stop4544"
         offset="1"
         style="stop-color:#676767;stop-opacity:1" />
    </linearGradient>
    <linearGradient
       gradientTransform="matrix(0.28222223,0,0,0.28222223,15.753589,297.78649)"
       gradientUnits="userSpaceOnUse"
       y2="-1007.129"
       x2="-23.769293"
       y1="-1055.1525"
       x1="-23.769293"
       id="linearGradient1399"
       xlink:href="#linearGradient2493"
       inkscape:collect="always" />
    <linearGradient
       gradientUnits="userSpaceOnUse"
       y2="1013.045"
       x2="33.860886"
       y1="1043.7766"
       x1="33.860886"
       id="linearGradient4056"
       xlink:href="#linearGradient4538"
       inkscape:collect="always"
       gradientTransform="matrix(0.28222223,0,0,0.28222223,-6.6195288e-8,-283.45334)" />
    <linearGradient
       inkscape:collect="always"
       id="linearGradient2493">
      <stop
         style="stop-color:#333333;stop-opacity:1"
         offset="0"
         id="stop2495" />
      <stop
         style="stop-color:#000000;stop-opacity:1"
         offset="1"
         id="stop2497" />
    </linearGradient>
  </defs>
  <rect
     style="fill:url(#linearGradient1399);fill-opacity:1;stroke:none"
     id="rect2991-1"
     width="13.546667"
     height="13.546667"
     x="-2.5602694e-07"
     y="-4.7683716e-06"
     ry="0.54879344" />
  <path
     inkscape:connector-curvature="0"
     id="path4048"
     d="m 6.3288013,2.7657777 0,3.4647012 L 4.3712718,4.7657455 3.8272241,5.3078944 6.1494028,7.112 3.9210841,8.8958138 l 0.586816,0.5997505 1.8209012,-1.4735952 0,3.4362529 L 9.7194431,8.9282694 7.4724704,7.1407585 9.6476811,5.3778008 Z M 7.2270884,4.4515475 8.3649819,5.4064464 7.2270884,6.2678451 Z M 7.2270319,8.0503607 8.4008453,8.8995392 7.2263052,9.667099 c 0,-0.5820552 7.338e-4,-1.0460285 7.338e-4,-1.6167383 z"
     style="display:inline;fill:#000000;fill-opacity:0.05882353;fill-rule:evenodd;stroke:none"
     sodipodi:nodetypes="ccccccccccccccccccccc" />
  <path
     sodipodi:nodetypes="ccccccccccccccccccccc"
     style="display:inline;fill:#000000;fill-opacity:0.11764706;fill-rule:evenodd;stroke:none"
     d="m 6.3288013,2.6528888 0,3.4647012 -1.9575295,-1.4647334 -0.5440477,0.5421489 2.3221787,1.8041056 -2.2283187,1.7838138 0.586816,0.5997505 1.8209012,-1.4735951 0,3.4362527 L 9.7194431,8.8153805 7.4724704,7.0278696 9.6476811,5.264912 Z M 7.2270884,4.3386586 8.3649819,5.2935575 7.2270884,6.1549562 Z m -5.65e-5,3.5988132 1.1738134,0.8491785 -1.1745401,0.7675598 c 0,-0.5820552 7.338e-4,-1.0460285 7.338e-4,-1.6167383 z"
     id="path4046"
     inkscape:connector-curvature="0" />
  <path
     inkscape:connector-curvature="0"
     id="path4044"
     d="m 6.3288013,2.5399999 0,3.4647012 -1.9575295,-1.4647334 -0.5440477,0.5421489 2.3221787,1.8041056 -2.2283187,1.7838139 0.586816,0.5997504 1.8209012,-1.4735951 0,3.4362536 L 9.7194431,8.7024916 7.4724704,6.9149807 9.6476811,5.1520231 Z M 7.2270884,4.2257697 8.3649819,5.1806686 7.2270884,6.0420673 Z m -5.65e-5,3.5988132 1.1738134,0.8491785 -1.1745401,0.7675598 c 0,-0.5820551 7.338e-4,-1.0460285 7.338e-4,-1.6167383 z"
     style="display:inline;fill:#000000;fill-opacity:0.23529412;fill-rule:evenodd;stroke:none"
     sodipodi:nodetypes="ccccccccccccccccccccc" />
  <path
     inkscape:connector-curvature="0"
     style="fill:#000000;fill-opacity:1;stroke:none"
     d="m 6.7191921e-8,12.7 0,0.299861 c 0,0.304038 0.242774052808079,0.546806 0.546805582808079,0.546806 l 12.45305635,0 c 0.304031,0 0.546805,-0.242768 0.546805,-0.546806 l 0,-0.299861 c 0,0.304038 -0.242774,0.546806 -0.546805,0.546806 l -12.45305635,0 C 0.24277412,13.246806 6.7191921e-8,13.004038 6.7191921e-8,12.7 Z"
     id="rect846" />
  <path
     inkscape:connector-curvature="0"
     style="fill:#ffffff;fill-opacity:0.5372549;stroke:none"
     d="m 0.71437509,0.18522226 c -0.2588229,0 -0.47163484,0.18048112 -0.52034724,0.42333335 0.0947172,-0.078994 0.21858451,-0.12347223 0.3527778,-0.12347223 l 12.45305635,0 c 0.134193,0 0.25806,0.0444782 0.352777,0.12347223 -0.04871,-0.24285223 -0.261524,-0.42333335 -0.520347,-0.42333335 l -12.11791691,0 z"
     id="path7515" />
  <path
     inkscape:connector-curvature="0"
     style="fill:#000000;fill-opacity:0.39215686;stroke:none"
     d="M 0.54680565,-1.88294e-7 C 0.24277412,-1.88294e-7 6.7191921e-8,0.24276737 6.7191921e-8,0.54680538 l 0,12.15319462 C 6.7191921e-8,12.923915 0.13547323,13.10894 0.32631953,13.193889 0.23901633,13.099824 0.1852084,12.973078 0.1852084,12.832306 l 0,-12.11791706 c 0,-0.29582534 0.23336929,-0.52916668 0.52916669,-0.52916668 l 12.11791691,0 c 0.295798,0 0.529167,0.23334134 0.529167,0.52916668 l 0,12.11791706 c 0,0.140772 -0.05381,0.267518 -0.141111,0.361583 0.190846,-0.08495 0.326319,-0.269974 0.326319,-0.493889 l 0,-12.15319462 C 13.546667,0.24276737 13.303893,-1.88294e-7 12.999862,-1.88294e-7 l -12.45305635,0 z"
     id="rect4280-1" />
  <path
     sodipodi:nodetypes="ccccccccccccccccccccc"
     style="display:inline;fill:url(#linearGradient4056);fill-opacity:1.0;fill-rule:evenodd;stroke:none"
     d="m 6.3288013,2.427111 0,3.4647012 -1.9575295,-1.4647334 -0.5440477,0.5421489 2.3221787,1.8041056 -2.2283187,1.7838139 0.586816,0.5997504 1.8209012,-1.4735951 0,3.4362535 L 9.7194431,8.5896027 7.4724704,6.8020918 9.6476811,5.0391342 Z M 7.2270884,4.1128808 8.3649819,5.0677797 7.2270884,5.9291784 Z M 7.2270319,7.711694 8.4008453,8.5608725 7.2263052,9.3284323 c 0,-0.5820551 7.338e-4,-1.0460285 7.338e-4,-1.6167383 z"
     id="path4050"
     inkscape:connector-curvature="0" />
  <path
     style="display:inline;fill:#646464;fill-opacity:0.31372549;fill-rule:evenodd;stroke:none"
     d="m 7.2269837,3.8870466 0,0.2254673 L 8.2235809,4.9487102 8.3652432,4.8417762 7.2269837,3.8870466 Z M 3.9544185,4.8423124 3.8270877,4.9690866 6.0060418,6.6618838 6.1493576,6.5472169 3.9544185,4.8423124 Z M 9.5062589,4.9277411 7.4722743,6.5764269 7.6128342,6.688328 9.6479212,5.039106 9.5062589,4.9277411 Z m -3.177205,2.5295296 -1.8212154,1.473962 -0.4630208,-0.4734842 -0.1234722,0.099201 0.586493,0.5997222 1.8212154,-1.4733976 0,-0.2260035 z m 0.8979298,0.028674 c 0,0.079587 2.42e-5,0.1494084 0,0.2254391 L 8.2368101,8.4423109 8.4010722,8.3348125 7.2269837,7.4859445 Z m 2.3459723,0.9866771 -3.2439021,2.4209304 0,0.226004 L 9.7195792,8.5894898 9.572956,8.4726216 Z"
     id="path4064"
     inkscape:connector-curvature="0" />
  <path
     style="display:inline;fill:#ffffff;fill-opacity:0.31372549;fill-rule:evenodd;stroke:none"
     d="m 6.3290539,2.427111 0,0.1130018 3.2483118,2.5565383 0.070556,-0.057319 L 6.3290539,2.427111 Z m -1.9579168,1.9997985 -0.5440494,0.5424029 0.063941,0.049615 0.4801085,-0.4790158 1.9579168,1.4651285 0,-0.1130018 -1.9579168,-1.4651285 z m 3.9235506,0.6945489 -1.067704,0.8080869 0,0.1124373 1.1382595,-0.8610035 -0.070555,-0.059521 z M 6.0776997,6.8307656 3.9213455,8.5571754 3.9830816,8.6205625 6.1493576,6.886448 6.0776997,6.8307656 Z M 7.5428299,6.8584233 7.4722743,6.9151782 9.6462677,8.6443538 9.7195792,8.589772 7.5428299,6.8583387 Z M 8.318941,8.6145794 7.2264325,9.3284041 c -6.8e-6,0.039624 0,0.072333 0,0.1130017 L 8.4010722,8.6740436 8.318941,8.6144947 Z"
     id="path4069"
     inkscape:connector-curvature="0" />
</svg>
