<?xml version="1.0" encoding="UTF-8" standalone="no"?>
<!-- Created with Inkscape (http://www.inkscape.org/) -->

<svg
   xmlns:dc="http://purl.org/dc/elements/1.1/"
   xmlns:cc="http://creativecommons.org/ns#"
   xmlns:rdf="http://www.w3.org/1999/02/22-rdf-syntax-ns#"
   xmlns:svg="http://www.w3.org/2000/svg"
   xmlns="http://www.w3.org/2000/svg"
   xmlns:xlink="http://www.w3.org/1999/xlink"
   xmlns:sodipodi="http://sodipodi.sourceforge.net/DTD/sodipodi-0.dtd"
   xmlns:inkscape="http://www.inkscape.org/namespaces/inkscape"
   width="48"
   height="48"
   id="svg5453"
   version="1.1"
   inkscape:version="0.49 r12742"
   sodipodi:docname="bombono-dvd.svg"
   viewBox="0 0 48 48">
  <defs
     id="defs5455">
    <linearGradient
       gradientUnits="userSpaceOnUse"
       y2="-554.09424"
       x2="258.66409"
       y1="-602.0835"
       x1="258.66409"
       id="linearGradient1414"
       xlink:href="#linearGradient4350"
       inkscape:collect="always"
       gradientTransform="translate(159.99998,54.278466)" />
    <linearGradient
       inkscape:collect="always"
       id="linearGradient1539">
      <stop
         style="stop-color:#efefef;stop-opacity:1"
         offset="0"
         id="stop1541" />
      <stop
         style="stop-color:#fbfbfb;stop-opacity:1"
         offset="1"
         id="stop1543" />
    </linearGradient>
    <style
       id="style2464"
       type="text/css" />
    <style
       type="text/css"
       id="style2464-7" />
    <linearGradient
       gradientTransform="matrix(1.2902545,0,0,1.2902545,374.39482,-808.1738)"
       inkscape:collect="always"
       xlink:href="#linearGradient1539"
       id="linearGradient1545"
       x1="26.363955"
       y1="1047.3109"
       x2="26.363955"
       y2="1017.3646"
       gradientUnits="userSpaceOnUse" />
    <linearGradient
       inkscape:collect="always"
       id="linearGradient4140">
      <stop
         style="stop-color:#fe8100;stop-opacity:1"
         offset="0"
         id="stop4142" />
      <stop
         style="stop-color:#f9d054;stop-opacity:1"
         offset="1"
         id="stop4144" />
    </linearGradient>
    <linearGradient
       gradientTransform="matrix(1.7360756,0,0,1.7360756,-279.90707,-382.80832)"
       gradientUnits="userSpaceOnUse"
       y2="514.92297"
       x2="401.44644"
       y1="532.67297"
       x1="401.44644"
       id="linearGradient4184"
       xlink:href="#linearGradient4140"
       inkscape:collect="always" />
    <linearGradient
       inkscape:collect="always"
       id="linearGradient4350">
      <stop
         style="stop-color:#131219;stop-opacity:1"
         offset="0"
         id="stop4352" />
      <stop
         style="stop-color:#2e2e3a;stop-opacity:1"
         offset="1"
         id="stop4354" />
    </linearGradient>
  </defs>
  <sodipodi:namedview
     id="base"
     pagecolor="#ffffff"
     bordercolor="#666666"
     borderopacity="1.0"
     inkscape:pageopacity="0"
     inkscape:pageshadow="2"
     inkscape:zoom="6.3225692"
     inkscape:cx="4.9833781"
     inkscape:cy="12.617482"
     inkscape:document-units="px"
     inkscape:current-layer="layer1"
     showgrid="false"
     fit-margin-top="0"
     fit-margin-left="0"
     fit-margin-right="0"
     fit-margin-bottom="0"
     inkscape:window-width="1366"
     inkscape:window-height="718"
     inkscape:window-x="-2"
     inkscape:window-y="23"
     inkscape:window-maximized="1" />
  <metadata
     id="metadata5458">
    <rdf:RDF>
      <cc:Work
         rdf:about="">
        <dc:format>image/svg+xml</dc:format>
        <dc:type
           rdf:resource="http://purl.org/dc/dcmitype/StillImage" />
        <dc:title />
      </cc:Work>
    </rdf:RDF>
  </metadata>
  <g
     inkscape:label="Capa 1"
     inkscape:groupmode="layer"
     id="layer1"
     transform="translate(-384.57143,-499.798)">
    <rect
       style="fill:url(#linearGradient1414);fill-opacity:1.0;stroke:none"
       id="rect2991-1-7-7"
       width="48"
       height="48"
       x="384.57144"
       y="-547.79797"
       ry="1.9445436"
       transform="scale(1,-1)" />
    <path
       inkscape:connector-curvature="0"
       style="fill:#000000;fill-opacity:1;stroke:none"
       d="m 384.57143,544.79799 0,1.0625 c 0,1.0773 0.86022,1.9375 1.9375,1.9375 l 44.125,0 c 1.07728,0 1.9375,-0.8602 1.9375,-1.9375 l 0,-1.0625 c 0,1.0773 -0.86022,1.9375 -1.9375,1.9375 l -44.125,0 c -1.07728,0 -1.9375,-0.8602 -1.9375,-1.9375 z"
       id="rect846" />
    <path
       inkscape:connector-curvature="0"
       style="fill:#ffffff;fill-opacity:0.5372549;stroke:none"
       d="m 387.10268,500.45429 c -0.91709,0 -1.67115,0.6395 -1.84375,1.5 0.33561,-0.2799 0.77451,-0.4375 1.25,-0.4375 l 44.125,0 c 0.47549,0 0.91439,0.1576 1.25,0.4375 -0.1726,-0.8605 -0.92666,-1.5 -1.84375,-1.5 l -42.9375,0 z"
       id="path7515" />
    <path
       inkscape:connector-curvature="0"
       style="fill:#000000;fill-opacity:0.39215686;stroke:none"
       d="m 386.50893,499.79799 c -1.07728,0 -1.9375,0.8602 -1.9375,1.9375 l 0,43.0625 c 0,0.7934 0.48002,1.449 1.15625,1.75 -0.30934,-0.3333 -0.5,-0.7824 -0.5,-1.2812 l 0,-42.9375 c 0,-1.0482 0.8269,-1.875 1.875,-1.875 l 42.9375,0 c 1.0481,0 1.875,0.8268 1.875,1.875 l 0,42.9375 c 0,0.4988 -0.19066,0.9479 -0.5,1.2812 0.67623,-0.301 1.15625,-0.9566 1.15625,-1.75 l 0,-43.0625 c 0,-1.0773 -0.86022,-1.9375 -1.9375,-1.9375 l -44.125,0 z"
       id="rect4280" />
    <text
       xml:space="preserve"
       style="font-size:40px;font-style:italic;font-variant:normal;font-weight:bold;font-stretch:normal;line-height:125%;letter-spacing:0px;word-spacing:0px;fill:#000000;fill-opacity:1;stroke:none;font-family:URW Chancery L;-inkscape-font-specification:URW Chancery L Bold Italic"
       x="463.83878"
       y="523.48297"
       id="text3025"
       sodipodi:linespacing="125%"><tspan
         sodipodi:role="line"
         id="tspan3027"
         x="463.83878"
         y="523.48297" /></text>
    <path
       inkscape:connector-curvature="0"
       id="path1489"
       d="m 408.57143,502.7982 c -11.59798,0 -21,9.4019 -21,20.9998 0,11.5977 9.40202,20.9998 21,20.9998 11.59798,0 21,-9.4021 21,-20.9998 0,-11.5979 -9.40202,-20.9998 -21,-20.9998 z m 0,18.7436 c 1.24264,0 2.25586,1.0133 2.25586,2.2562 0,1.2428 -1.01322,2.256 -2.25586,2.256 -1.24264,0 -2.25586,-1.0132 -2.25586,-2.256 0,-1.2429 1.01322,-2.2562 2.25586,-2.2562 z"
       style="fill:#000000;fill-opacity:0.18534486;stroke:none" />
    <path
       inkscape:connector-curvature="0"
       id="path1491"
       d="m 408.57143,503.4543 c -11.23554,0 -20.34375,9.1079 -20.34375,20.3437 0,11.2356 9.10821,20.3436 20.34375,20.3436 11.23554,0 20.34375,-9.108 20.34375,-20.3436 0,-11.2358 -9.10821,-20.3437 -20.34375,-20.3437 z m 0,18.0875 c 1.24264,0 2.25586,1.0133 2.25586,2.2562 0,1.2428 -1.01322,2.256 -2.25586,2.256 -1.24264,0 -2.25586,-1.0132 -2.25586,-2.256 0,-1.2429 1.01322,-2.2562 2.25586,-2.2562 z"
       style="fill:#e4e4e5;fill-opacity:1;stroke:none" />
    <path
       inkscape:connector-curvature="0"
       id="path1493"
       d="m 408.57143,504.4795 c -10.666,0 -19.31836,8.6527 -19.31836,19.3185 0,10.6657 8.65236,19.3184 19.31836,19.3184 10.666,0 19.31836,-8.6527 19.31836,-19.3184 0,-10.6658 -8.65236,-19.3185 -19.31836,-19.3185 z m 0,17.0623 c 1.24264,0 2.25586,1.0133 2.25586,2.2562 0,1.2428 -1.01322,2.256 -2.25586,2.256 -1.24264,0 -2.25586,-1.0132 -2.25586,-2.256 0,-1.2429 1.01322,-2.2562 2.25586,-2.2562 z"
       style="fill:url(#linearGradient1545);fill-opacity:1;stroke:none" />
    <path
       inkscape:connector-curvature="0"
       id="path1495"
       d="m 408.57143,517.6045 c -3.41726,0 -6.19336,2.7762 -6.19336,6.1935 0,3.4171 2.7761,6.1935 6.19336,6.1935 3.41726,0 6.19336,-2.7764 6.19336,-6.1935 0,-3.4173 -2.7761,-6.1935 -6.19336,-6.1935 z m 0,3.9373 c 1.24264,0 2.25586,1.0133 2.25586,2.2562 0,1.2428 -1.01322,2.256 -2.25586,2.256 -1.24264,0 -2.25586,-1.0132 -2.25586,-2.256 0,-1.2429 1.01322,-2.2562 2.25586,-2.2562 z"
       style="fill:#d3d5d7;fill-opacity:1;stroke:none" />
    <path
       inkscape:connector-curvature="0"
       id="path1497"
       d="m 408.57143,518.9173 c -2.69239,0 -4.88086,2.1881 -4.88086,4.8807 0,2.6925 2.18847,4.8806 4.88086,4.8806 2.69239,0 4.88086,-2.1881 4.88086,-4.8806 0,-2.6926 -2.18847,-4.8807 -4.88086,-4.8807 z m 0,2.6245 c 1.24264,0 2.25586,1.0133 2.25586,2.2562 0,1.2428 -1.01322,2.256 -2.25586,2.256 -1.24264,0 -2.25586,-1.0132 -2.25586,-2.256 0,-1.2429 1.01322,-2.2562 2.25586,-2.2562 z"
       style="fill:#e0e0e2;fill-opacity:1;stroke:none" />
    <path
       inkscape:connector-curvature="0"
       id="path1516"
       d="m 408.57143,521.5418 c -1.24264,0 -2.25586,1.0133 -2.25586,2.2562 0,0.1006 0.0285,0.1913 0.041,0.2871 0.20981,-1.0251 1.12753,-1.8047 2.21485,-1.8047 1.08731,0 2.00504,0.7796 2.21484,1.8047 0.0126,-0.094 0.041,-0.1876 0.041,-0.2871 5e-5,-1.2429 -1.01317,-2.2562 -2.25581,-2.2562 z"
       style="fill:#000000;fill-opacity:0.31465532;stroke:none" />
    <path
       inkscape:connector-curvature="0"
       id="path1532"
       d="m 408.57143,521.5249 c -1.14917,0 -2.08189,0.8867 -2.21875,2.0001 0.21092,-1.0267 1.13144,-1.7814 2.21875,-1.7814 1.08731,0 2.00783,0.7547 2.21875,1.7814 -0.13686,-1.1134 -1.06958,-2.0001 -2.21875,-2.0001 z m -6.15625,2.9063 c 0.2286,3.2098 2.88865,5.7499 6.15625,5.7499 3.2676,0 5.92765,-2.5401 6.15625,-5.7499 -0.31751,3.1206 -2.95256,5.5625 -6.15625,5.5625 -3.20368,0 -5.83874,-2.4419 -6.15625,-5.5625 z"
       style="fill:#1a1a1a;fill-opacity:0.31372549;stroke:none" />
    <g
       id="g5060"
       transform="translate(4.5181752e-6,1.54526)">
      <path
         inkscape:connector-curvature="0"
         d="m 405.49995,513.00332 c 0,0 11.65548,7.8123 10.2861,18.55421 0,0 3.91192,-0.97651 2.86103,-7.43853 0,0 5.64364,5.44532 5.54832,10.36816 -0.0783,3.99965 -5.08298,9.76538 -14.49548,9.76538 0,0 8.48744,-7.5911 -2.72746,-17.19623 0,0 -10.37378,10.23461 -3.5285,17.19623 0,0 -13.8031,-3.51138 -9.7539,-12.30403 4.04908,-8.79457 12.90653,-9.57081 11.80989,-18.94519 z"
         id="path4218"
         style="fill:#000000;fill-opacity:0.11764706" />
      <path
         style="fill:#000000;fill-opacity:0.11764706"
         id="path4214"
         d="m 405.49995,512.3089 c 0,0 11.65548,7.8123 10.2861,18.55421 0,0 3.91192,-0.97653 2.86103,-7.43855 0,0 5.64364,5.44533 5.54832,10.36818 -0.0783,3.99964 -5.08298,9.76538 -14.49548,9.76538 0,0 8.48744,-7.59113 -2.72746,-17.19624 0,0 -10.37378,10.23462 -3.5285,17.19624 0,0 -13.8031,-3.5114 -9.7539,-12.30405 4.04908,-8.79455 12.90653,-9.57079 11.80989,-18.94517 z"
         inkscape:connector-curvature="0" />
      <path
         inkscape:connector-curvature="0"
         d="m 405.49995,511.61445 c 0,0 11.65548,7.8123 10.2861,18.55423 0,0 3.91192,-0.97653 2.86103,-7.43854 0,0 5.64364,5.44531 5.54832,10.36817 -0.0783,3.99963 -5.08298,9.76536 -14.49548,9.76536 0,0 8.48744,-7.5911 -2.72746,-17.19621 0,0 -10.37378,10.23461 -3.5285,17.19621 0,0 -13.8031,-3.51138 -9.7539,-12.30403 4.04908,-8.79456 12.90653,-9.57079 11.80989,-18.94519 z"
         id="path4206"
         style="fill:#000000;fill-opacity:0.23529412" />
      <path
         style="fill:url(#linearGradient4184);fill-opacity:1"
         id="path4149"
         d="m 405.49995,510.91997 c 0,0 11.65548,7.8123 10.2861,18.55423 0,0 3.91192,-0.97653 2.86103,-7.43855 0,0 5.64364,5.44532 5.54832,10.36818 -0.0783,3.99963 -5.08298,9.76536 -14.49548,9.76536 0,0 8.48744,-7.5911 -2.72746,-17.19621 0,0 -10.37378,10.23461 -3.5285,17.19621 0,0 -13.8031,-3.51138 -9.7539,-12.30403 4.04908,-8.79456 12.90653,-9.57079 11.80989,-18.94519 z"
         inkscape:connector-curvature="0" />
      <path
         inkscape:connector-curvature="0"
         id="path4222"
         d="m 405.47481,510.91984 c 0.0376,0.32119 0.0393,0.62062 0.0543,0.92228 0.0207,-0.28507 0.0562,-0.56396 0.0541,-0.86804 -0.0116,-0.008 -0.10834,-0.0543 -0.10834,-0.0543 z m 13.18334,11.12172 c 0.0829,0.50988 0.0829,0.96681 0.10852,1.41058 0.03,-0.38089 0.0194,-0.80348 0,-1.24781 -0.0155,-0.0155 -0.10852,-0.16278 -0.10852,-0.16278 z m -11.66428,1.51908 c 0,0 -6.35076,6.26377 -5.85924,12.31529 0.44007,-5.58021 5.85924,-10.90474 5.85924,-10.90474 4.17901,3.57914 5.58463,6.87139 5.75076,9.60267 0.27516,-2.96422 -0.84423,-6.81098 -5.75076,-11.01322 z m 8.84315,3.4179 c -0.0174,0.36559 -0.008,0.71217 -0.0541,1.08505 0,0 0.0487,-0.0527 0.0541,-0.0543 0.006,-0.34569 0.0174,-0.6922 0,-1.03079 z m 8.30061,4.82846 c -0.61811,3.74308 -5.18131,8.45363 -13.23758,8.89738 -0.64814,0.91986 -1.19356,1.46481 -1.19356,1.46481 9.4125,0 14.40709,-5.76577 14.4854,-9.76542 0.004,-0.19945 -0.0401,-0.396 -0.0543,-0.59677 z m -31.14085,0.37976 c -0.85281,7.06334 10.41645,9.98243 10.41645,9.98243 -0.5841,-0.59402 -1.00581,-1.21129 -1.35631,-1.84457 -2.70086,-0.924 -8.5893,-3.4372 -9.06014,-8.13786 z"
         style="fill:#9a5001;fill-opacity:0.31372549" />
      <path
         inkscape:connector-curvature="0"
         id="path4298"
         d="m 405.45385,510.91997 c 0.031,0.26473 0.0389,0.50815 0.0543,0.75954 0.30844,0.20905 10.0296,6.80895 10.36221,16.22145 0.11356,-9.90858 -10.41647,-16.98099 -10.41647,-16.98099 z m 0.10852,2.00734 c -0.31094,7.53624 -8.14119,8.80333 -11.88127,16.92675 -0.56721,1.23168 -0.75169,2.33433 -0.70527,3.36363 0.0589,-0.83349 0.26497,-1.70225 0.70527,-2.65836 3.8464,-8.35434 12.01152,-9.50499 11.88125,-17.63202 z m 13.07483,9.11441 c 0.0438,0.26864 0.0271,0.5095 0.0541,0.75952 0.16143,0.15678 5.29574,5.18417 5.47948,9.92819 0.008,-0.10911 -0.002,-0.21891 0,-0.32552 0.0955,-4.92285 -5.53357,-10.36219 -5.53357,-10.36219 z m 0.16259,2.49561 c -0.18042,4.12658 -2.86358,4.90492 -2.98389,4.93695 -0.0174,0.23329 -0.0242,0.46912 -0.0543,0.70528 1.5e-4,0 3.15547,-0.80266 3.03829,-5.64223 z m -6.07627,11.39298 c -0.35377,3.81114 -3.03813,6.23902 -3.03813,6.23902 0.20854,0 0.39259,0.006 0.59677,0 0.87934,-1.0207 2.39952,-3.20089 2.4415,-6.23902 z m -11.61001,0.92229 c -0.0822,1.72967 0.30986,3.48812 1.51908,5.09974 0.46751,0.14728 0.75952,0.21699 0.75952,0.21699 -1.61553,-1.64313 -2.21847,-3.48654 -2.27845,-5.31673 z"
         style="fill:#ffffff;fill-opacity:0.23529412" />
    </g>
  </g>
</svg>
