<?xml version="1.0" encoding="UTF-8" standalone="no"?>
<!-- Created with Inkscape (http://www.inkscape.org/) -->

<svg
   xmlns:dc="http://purl.org/dc/elements/1.1/"
   xmlns:cc="http://creativecommons.org/ns#"
   xmlns:rdf="http://www.w3.org/1999/02/22-rdf-syntax-ns#"
   xmlns:svg="http://www.w3.org/2000/svg"
   xmlns="http://www.w3.org/2000/svg"
   xmlns:xlink="http://www.w3.org/1999/xlink"
   xmlns:sodipodi="http://sodipodi.sourceforge.net/DTD/sodipodi-0.dtd"
   xmlns:inkscape="http://www.inkscape.org/namespaces/inkscape"
   width="48"
   height="48"
   id="svg2"
   version="1.1"
   inkscape:version="0.48+devel r12487"
   sodipodi:docname="xfburn.svg">
  <defs
     id="defs4">
    <linearGradient
       inkscape:collect="always"
       id="linearGradient4371">
      <stop
         style="stop-color:#ff0000;stop-opacity:0.40585774"
         offset="0"
         id="stop4373" />
      <stop
         style="stop-color:#ff0000;stop-opacity:0;"
         offset="1"
         id="stop4375" />
    </linearGradient>
    <linearGradient
       id="linearGradient4360"
       inkscape:collect="always">
      <stop
         id="stop4362"
         offset="0"
         style="stop-color:#db2000;stop-opacity:0" />
      <stop
         id="stop4364"
         offset="1"
         style="stop-color:#d11a00;stop-opacity:1" />
    </linearGradient>
    <linearGradient
       inkscape:collect="always"
       id="linearGradient4347">
      <stop
         style="stop-color:#f6c700;stop-opacity:0"
         offset="0"
         id="stop4349" />
      <stop
         style="stop-color:#f6ce00;stop-opacity:1"
         offset="1"
         id="stop4351" />
    </linearGradient>
    <linearGradient
       inkscape:collect="always"
       id="linearGradient4315">
      <stop
         style="stop-color:#ef2a1c;stop-opacity:1"
         offset="0"
         id="stop4317" />
      <stop
         style="stop-color:#5e0200;stop-opacity:1"
         offset="1"
         id="stop4319" />
    </linearGradient>
    <linearGradient
       id="linearGradient4124"
       inkscape:collect="always">
      <stop
         id="stop4126"
         offset="0"
         style="stop-color:#f64524;stop-opacity:1" />
      <stop
         id="stop4128"
         offset="1"
         style="stop-color:#f37824;stop-opacity:1" />
    </linearGradient>
    <linearGradient
       inkscape:collect="always"
       id="linearGradient1758">
      <stop
         style="stop-color:#0c0c0c;stop-opacity:1"
         offset="0"
         id="stop1760" />
      <stop
         style="stop-color:#333333;stop-opacity:1"
         offset="1"
         id="stop1762" />
    </linearGradient>
    <linearGradient
       inkscape:collect="always"
       xlink:href="#linearGradient1758"
       id="linearGradient1764"
       x1="24.04163"
       y1="-1052.6943"
       x2="24.04163"
       y2="-1004.6628"
       gradientUnits="userSpaceOnUse"
       gradientTransform="translate(1.0754395e-6,0.21947714)" />
    <linearGradient
       inkscape:collect="always"
       xlink:href="#linearGradient4124"
       id="linearGradient4122"
       x1="29.1875"
       y1="1043.8622"
       x2="29.1875"
       y2="1013.0497"
       gradientUnits="userSpaceOnUse"
       gradientTransform="matrix(1.9597829,0,0,1.9597829,-23.050418,-974.82392)" />
    <linearGradient
       id="linearGradient1539"
       inkscape:collect="always">
      <stop
         id="stop1541"
         offset="0"
         style="stop-color:#f9edeb;stop-opacity:1" />
      <stop
         id="stop1543"
         offset="1"
         style="stop-color:#fff3ee;stop-opacity:1" />
    </linearGradient>
    <style
       type="text/css"
       id="style2464" />
    <style
       id="style2464-7"
       type="text/css" />
    <linearGradient
       gradientUnits="userSpaceOnUse"
       y2="1017.3646"
       x2="26.363955"
       y1="1032.3914"
       x1="26.363955"
       id="linearGradient1545"
       xlink:href="#linearGradient1539"
       inkscape:collect="always"
       gradientTransform="matrix(1.2024093,0,0,1.2024093,-7.8497573,-189.19236)" />
    <linearGradient
       inkscape:collect="always"
       xlink:href="#linearGradient4315"
       id="linearGradient4302"
       gradientUnits="userSpaceOnUse"
       gradientTransform="matrix(-1.3881788,0,0,1.3881788,57.327385,-384.10337)"
       x1="22.413586"
       y1="1034.2557"
       x2="22.413586"
       y2="1012.9412" />
    <linearGradient
       inkscape:collect="always"
       xlink:href="#linearGradient4347"
       id="linearGradient4344"
       gradientUnits="userSpaceOnUse"
       gradientTransform="matrix(1.9597829,0,0,1.9597829,-23.050417,-974.82392)"
       x1="26.682777"
       y1="1020.8947"
       x2="26.682777"
       y2="1012.9473" />
    <linearGradient
       inkscape:collect="always"
       xlink:href="#linearGradient4360"
       id="linearGradient4357"
       gradientUnits="userSpaceOnUse"
       gradientTransform="matrix(-1.3881788,0,0,1.3881788,57.327385,-384.10333)"
       x1="20.894499"
       y1="1026.6995"
       x2="20.894499"
       y2="1016.731" />
    <linearGradient
       inkscape:collect="always"
       xlink:href="#linearGradient4371"
       id="linearGradient4377"
       x1="22.804193"
       y1="17.771185"
       x2="22.804193"
       y2="39.691494"
       gradientUnits="userSpaceOnUse"
       gradientTransform="matrix(0.93191681,0,0,0.93191681,1.6339995,1007.3614)" />
    <linearGradient
       inkscape:collect="always"
       xlink:href="#linearGradient4124"
       id="linearGradient4411"
       gradientUnits="userSpaceOnUse"
       gradientTransform="matrix(1.9597829,0,0,1.9597829,-23.050418,-974.82392)"
       x1="29.1875"
       y1="1043.8622"
       x2="29.1875"
       y2="1013.0497" />
  </defs>
  <sodipodi:namedview
     id="base"
     pagecolor="#ffffff"
     bordercolor="#666666"
     borderopacity="1.0"
     inkscape:pageopacity="0.0"
     inkscape:pageshadow="2"
     inkscape:zoom="8"
     inkscape:cx="13.010327"
     inkscape:cy="26.650706"
     inkscape:document-units="px"
     inkscape:current-layer="layer1"
     showgrid="false"
     inkscape:window-width="1366"
     inkscape:window-height="718"
     inkscape:window-x="0"
     inkscape:window-y="30"
     inkscape:window-maximized="1">
    <inkscape:grid
       type="xygrid"
       id="grid3850" />
  </sodipodi:namedview>
  <metadata
     id="metadata7">
    <rdf:RDF>
      <cc:Work
         rdf:about="">
        <dc:format>image/svg+xml</dc:format>
        <dc:type
           rdf:resource="http://purl.org/dc/dcmitype/StillImage" />
        <dc:title />
      </cc:Work>
    </rdf:RDF>
  </metadata>
  <g
     inkscape:label="Capa 1"
     inkscape:groupmode="layer"
     id="layer1"
     transform="translate(0,-1004.3622)">
    <rect
       style="fill:url(#linearGradient1764);fill-opacity:1;stroke:none"
       id="rect2991-1-2"
       width="48"
       height="48"
       x="0"
       y="-1052.3622"
       ry="1.9445436"
       transform="scale(1,-1)" />
    <g
       id="g4418">
      <path
         inkscape:connector-curvature="0"
         id="path4109"
         d="m 26.591883,1010.3622 c -5.739955,4.8892 -8.348242,8.6815 -8.532843,16.1909 -1.792007,-5.1509 -4.30005,-5.9226 -6.11571,-6.6092 -0.0035,3.3966 0.246738,6.8921 -2.5336488,10.3671 -3.7133498,5.6921 -6.7249512,11.6579 -7.7756817,17.5017 l 0,2.6804 c 0,1.0049 0.8016561,1.806 1.8055895,1.806 l 41.120821,0 c 1.003942,0 1.80559,-0.8011 1.80559,-1.806 l 0,-1.8919 c -1.639645,-8.8373 -7.81778,-16.4235 -12.231391,-22.4834 0.104446,0.8774 0.418717,3.0265 -0.757206,4.4842 -0.805321,0.1556 -0.640677,-0.6697 -0.640677,-0.6697 C 34.598463,1022.0503 26.322594,1022.1711 26.591883,1010.3622 Z"
         style="fill:url(#linearGradient4411);fill-opacity:1;stroke:none" />
      <path
         inkscape:connector-curvature="0"
         style="fill:url(#linearGradient4122);fill-opacity:1;stroke:none"
         d="m 26.591883,1010.3622 c -5.739955,4.8892 -8.348242,8.6815 -8.532843,16.1909 -1.792007,-5.1509 -4.30005,-5.9226 -6.11571,-6.6092 -0.0035,3.3966 0.246738,6.8921 -2.5336488,10.3671 -3.7133498,5.6921 -6.7249512,11.6579 -7.7756817,17.5017 l 0,2.6804 c 0,1.0049 0.8016561,1.806 1.8055895,1.806 l 41.120821,0 c 1.003942,0 1.80559,-0.8011 1.80559,-1.806 l 0,-1.8919 c -1.639645,-8.8373 -7.81778,-16.4235 -12.231391,-22.4834 0.104446,0.8774 0.418717,3.0265 -0.757206,4.4842 -0.805321,0.1556 -0.640677,-0.6697 -0.640677,-0.6697 C 34.598463,1022.0503 26.322594,1022.1711 26.591883,1010.3622 Z"
         id="path4156" />
      <path
         inkscape:connector-curvature="0"
         id="path4388"
         d="m 26.591883,1010.3622 c -5.739955,4.8892 -8.348242,8.6815 -8.532843,16.1909 -1.792007,-5.1509 -4.30005,-5.9226 -6.11571,-6.6092 -6.06e-4,0.6167 0.0038,1.239 0,1.8632 1.81566,0.6853 4.323703,1.4601 6.11571,6.6107 0.184601,-7.5092 2.792888,-11.3044 8.532843,-16.1906 -0.228522,10.0197 5.687408,11.462 6.348705,16.4816 C 33.711987,1022.0198 26.337215,1021.529 26.591883,1010.3622 z m -14.648553,12.1445 c -0.06128,2.5771 -0.448361,5.1973 -2.5336488,7.8043 -3.7133498,5.6921 -6.7249512,11.6579 -7.7756817,17.5017 l 0,1.865 C 2.68473,1043.8339 5.6963314,1037.8668 9.4096812,1032.176 12.000507,1028.9368 11.958233,1025.6829 11.94333,1022.5067 z m 22.191279,3.6111 c 0.05103,0.429 0.13409,1.1742 0.08731,1.9808 4.407894,6.0402 10.514338,13.5817 12.144023,22.3646 l 0,-1.862 C 44.726355,1039.7639 38.54822,1032.1777 34.134609,1026.1178 z m 0.05821,2.3877 c -0.09032,0.725 -0.311387,1.4717 -0.815434,2.0965 -0.201324,0.042 -0.339005,0.028 -0.436817,-0.031 -0.0443,0.3846 -0.102765,0.7948 -0.203868,1.2235 0,0 -0.164644,0.8252 0.640685,0.6697 C 34.376734,1031.2259 34.302595,1029.5369 34.192845,1028.5055 Z"
         style="fill:#000000;fill-opacity:0.11764706;stroke:none" />
      <path
         inkscape:connector-curvature="0"
         id="path4340"
         d="m 26.591883,1010.3623 c -5.739955,4.8891 -8.348242,8.6815 -8.532843,16.191 -1.792007,-5.1511 -4.30005,-5.9228 -6.11571,-6.6094 -0.0035,3.3966 0.246738,6.8921 -2.5336487,10.3671 -1.3292282,2.0381 -2.5486623,4.1132 -3.6402995,6.2022 12.5896862,-7.3625 19.3301582,-13.5413 23.6182682,-6.1145 3.906255,6.7661 8.897119,3.6362 9.930727,2.882 -1.757187,-2.5712 -3.589966,-4.9745 -5.183768,-7.1629 0.104446,0.8774 0.418717,3.0265 -0.757206,4.4842 -0.805321,0.1556 -0.640677,-0.6696 -0.640677,-0.6696 C 34.598463,1022.0504 26.322594,1022.1712 26.591883,1010.3623 Z"
         style="fill:url(#linearGradient4344);fill-opacity:1;stroke:none" />
      <path
         inkscape:connector-curvature="0"
         id="path4288"
         d="m 26.591883,1010.3622 c -5.283434,4.4998 -7.916577,8.0783 -8.445476,14.4727 0.634621,0.8782 1.234014,2.023 1.776457,3.5829 0.165417,-6.7296 2.306303,-10.4549 6.872887,-14.6761 C 26.653685,1012.732 26.563279,1011.6172 26.591883,1010.3622 z m -14.648553,9.5817 c -0.0035,3.3966 0.246738,6.8921 -2.5336488,10.3671 -3.7133498,5.6921 -6.7249512,11.6579 -7.7756817,17.5017 l 0,2.6804 c 0,1.0049 0.8016561,1.806 1.8055895,1.806 l 0.058235,0 0,-2.6214 c 1.0507305,-5.8439 4.0623319,-11.8109 7.775675,-17.5017 2.780406,-3.4781 2.530401,-6.9706 2.533655,-10.3689 0.75384,0.2857 1.641905,0.6008 2.533651,1.2223 C 14.866308,1020.9584 13.22307,1020.4256 11.94333,1019.9439 z m 22.191279,6.1739 c 0.01561,0.1322 0.03893,0.3422 0.05821,0.5227 0.654472,1.3872 0.92764,2.9541 0.407706,5.1568 0,0 -0.164644,0.8252 0.640706,0.6697 0.911036,-1.1298 0.931875,-2.6525 0.844545,-3.6988 C 35.430417,1027.8802 34.739868,1026.9481 34.134609,1026.1178 Z"
         style="fill:#f9a02a;fill-opacity:0.31372549;stroke:none" />
      <path
         inkscape:connector-curvature="0"
         id="path1489"
         d="m 24.000014,1032.5234 c -10.808353,0 -19.5702633,8.7638 -19.5702633,19.5701 0,0.072 -6.817e-4,0.1373 0,0.2058 l 17.4734383,0 c -0.0067,-0.07 0,-0.1367 0,-0.2058 0,-1.157 0.938781,-2.0965 2.096825,-2.0965 1.158024,0 2.096796,0.9395 2.096796,2.0965 0,0.072 0.0067,0.1391 0,0.2058 l 17.473453,0 c 6.71e-4,-0.072 0,-0.1365 0,-0.2058 C 43.570262,1041.2872 34.808342,1032.5234 24.000014,1032.5234 Z"
         style="fill:#000000;fill-opacity:0.18534486;stroke:none" />
      <path
         inkscape:connector-curvature="0"
         id="path4300"
         d="m 22.16408,1022.0687 c 4.065796,3.4637 5.913328,6.1512 6.044106,11.4696 1.269331,-3.6486 3.045867,-4.1965 4.331962,-4.6812 0.0026,2.404 -0.17478,4.8796 1.794668,7.3435 2.630278,4.0321 4.763499,8.2574 5.507768,12.3979 l 0,1.8953 c 0,0.7135 -0.567841,1.2806 -1.278964,1.2806 l -29.1272431,0 c -0.7111209,0 -1.2789582,-0.5671 -1.2789582,-1.2806 l 0,-1.3402 c 1.1614146,-6.2594 5.5375873,-11.6332 8.6639213,-15.9226 -0.07388,0.6206 -0.296598,2.1421 0.536339,3.1755 0.570429,0.1098 0.453809,-0.4753 0.453809,-0.4753 C 16.492756,1030.3476 22.35485,1030.4332 22.16408,1022.0687 Z"
         style="fill:url(#linearGradient4302);fill-opacity:1;stroke:none" />
      <path
         inkscape:connector-curvature="0"
         id="path4353"
         d="m 22.165292,1022.0686 c 0.19077,8.3645 -5.657984,8.2789 -4.339244,13.8625 0,0 0.104504,0.576 -0.46595,0.4662 -0.832937,-1.0317 -0.598206,-2.5523 -0.524206,-3.173 -0.709077,0.9728 -1.515114,2.0319 -2.300664,3.1148 0.904794,1.554 2.294234,3.1025 4.397489,3.9039 5.189335,1.9761 2.147776,0.8197 6.348681,-4.3683 2.46547,-3.0471 5.000551,-3.108 8.678476,-0.2628 -1.526681,-2.275 -1.42477,-4.5349 -1.427016,-6.756 -1.286096,0.4847 -3.069892,1.039 -4.339223,4.6875 C 28.062854,1028.2251 26.231088,1025.5323 22.165292,1022.0686 Z"
         style="fill:url(#linearGradient4357);fill-opacity:1;stroke:none" />
      <path
         inkscape:connector-curvature="0"
         style="fill:#000000;fill-opacity:0.15686275;stroke:none"
         d="m 22.165292,1023.0956 c 0.17844,7.8246 -4.931576,8.2479 -4.513964,12.8422 0.367142,-3.6796 4.678121,-4.6264 4.513964,-11.8222 4.065796,3.4607 5.897562,6.1535 6.028343,11.4718 1.269331,-3.6485 3.053127,-4.2028 4.339223,-4.6875 2.94e-4,-0.3427 3.36e-4,-0.6803 0,-1.0202 -1.286096,0.4877 -3.069892,1.0416 -4.339223,4.6907 C 28.062854,1029.249 26.231088,1026.5561 22.165292,1023.0956 z m 10.367566,8.5897 c -0.009,2.1622 0.04722,4.3563 1.805589,6.5526 2.630308,4.032 4.759868,8.2667 5.504137,12.4073 l 0,-1.0201 c -0.744269,-4.1376 -2.873829,-8.3723 -5.504137,-12.4043 C 32.861368,1035.3731 32.576378,1033.5136 32.532858,1031.6853 z m -15.696966,2.5628 c -3.126305,4.2924 -7.5170587,9.6714 -8.6784733,15.9309 l 0,1.02 c 1.151513,-6.2077 5.4706443,-11.5417 8.5911053,-15.815 C 16.745628,1034.9211 16.80549,1034.5035 16.835892,1034.2481 z m -0.08731,1.545 c -0.06466,0.7411 -0.0423,1.8394 0.611574,2.6482 0.570454,0.1128 0.465941,-0.4642 0.465941,-0.4642 -0.05329,-0.2262 -0.08578,-0.4323 -0.11647,-0.6405 -0.06706,0.076 -0.158178,0.1245 -0.349471,0.094 C 16.969248,1036.9379 16.79896,1036.3482 16.748524,1035.7931 Z"
         id="path4393" />
      <path
         inkscape:connector-curvature="0"
         id="path4335"
         d="m 22.165292,1022.0686 c 0.17844,7.8248 -4.931576,8.251 -4.513964,12.8427 0.367142,-3.6799 4.678121,-4.6237 4.513964,-11.8225 4.065796,3.4636 5.897562,6.1535 6.028343,11.4748 1.269331,-3.6486 3.053127,-4.203 4.339223,-4.6907 2.94e-4,-0.3395 3.36e-4,-0.6772 0,-1.017 -1.286096,0.4847 -3.069892,1.039 -4.339223,4.6875 C 28.062854,1028.2251 26.231088,1025.5323 22.165292,1022.0686 z m 10.367566,8.5928 c -0.009,2.1591 0.04722,4.3534 1.805589,6.5526 2.630308,4.032 4.759868,8.2667 5.504137,12.4043 l 0,-1.0171 c -0.744269,-4.1405 -2.873829,-8.3752 -5.504137,-12.4073 C 32.861368,1034.3475 32.576378,1032.4868 32.532858,1030.6614 z m -15.696966,2.5629 c -3.126305,4.291 -7.5170587,9.6683 -8.6784733,15.9277 l 0,1.0202 c 1.151513,-6.2053 5.4706443,-11.5392 8.5911053,-15.8121 C 16.745628,1033.8973 16.80549,1033.4797 16.835892,1033.2243 z m -0.08731,1.5427 c -0.06466,0.7403 -0.0423,1.8387 0.611574,2.6504 0.570454,0.1099 0.465941,-0.4662 0.465941,-0.4662 -0.05329,-0.2272 -0.08578,-0.4332 -0.11647,-0.6415 -0.06706,0.076 -0.158178,0.1244 -0.349471,0.094 C 16.969248,1035.914 16.79896,1035.3242 16.748524,1034.767 Z"
         style="fill:#000000;fill-opacity:0.31372549;stroke:none" />
      <path
         id="path4395"
         d="m 22.165292,1024.1189 c 0.17844,7.8247 -4.931576,8.251 -4.513964,12.8453 0.367142,-3.6826 4.678121,-4.6265 4.513964,-11.8253 4.065796,3.4637 5.897562,6.1565 6.028343,11.4748 1.269331,-3.6485 3.053127,-4.2028 4.339223,-4.6875 2.94e-4,-0.3427 3.36e-4,-0.6803 0,-1.0202 -1.286096,0.4848 -3.069892,1.0392 -4.339223,4.6877 C 28.062854,1030.2754 26.231088,1027.5825 22.165292,1024.1189 z m 10.367566,8.5927 c -0.009,2.1592 0.04722,4.3533 1.805589,6.5526 2.630308,4.0321 4.759868,8.2668 5.504137,12.4051 l 0,-1.0179 c -0.744269,-4.1406 -2.873829,-8.3753 -5.504137,-12.4073 C 32.861368,1036.3977 32.576378,1034.5369 32.532858,1032.7116 z m -15.696966,2.5628 c -3.126305,4.2924 -7.5170587,9.6715 -8.6784733,15.9309 l 0,1.017 c 1.151513,-6.2052 5.4706443,-11.5392 8.5911053,-15.8119 C 16.745628,1035.9474 16.80549,1035.5298 16.835892,1035.2744 z m -0.08731,1.5428 c -0.06466,0.7403 -0.0423,1.8386 0.611574,2.6504 0.570454,0.1098 0.465941,-0.4662 0.465941,-0.4662 -0.05329,-0.2263 -0.08578,-0.4332 -0.11647,-0.6415 -0.06706,0.076 -0.158178,0.1245 -0.349471,0.094 C 16.969248,1037.9642 16.79896,1037.3745 16.748524,1036.8172 Z"
         style="fill:#000000;fill-opacity:0.07843137;stroke:none"
         inkscape:connector-curvature="0" />
      <path
         inkscape:connector-curvature="0"
         id="path1491"
         d="m 24.000014,1033.1366 c -10.470587,0 -18.9586945,8.4882 -18.9586945,18.9569 0,0.072 -6.987e-4,0.1375 0,0.2058 l 16.8618695,0 c -0.0067,-0.07 0,-0.1367 0,-0.2058 0,-1.157 0.938781,-2.0965 2.096825,-2.0965 1.158024,0 2.096796,0.9395 2.096796,2.0965 0,0.072 0.0067,0.1391 0,0.2058 l 16.861879,0 c 6.9e-4,-0.072 0,-0.1367 0,-0.2058 C 42.958689,1041.6248 34.470612,1033.1366 24.000014,1033.1366 Z"
         style="fill:#e4e4e5;fill-opacity:1;stroke:none" />
      <path
         inkscape:connector-curvature="0"
         id="path1493"
         d="m 24.000014,1034.0973 c -9.939829,0 -17.9976556,8.0576 -17.9976556,17.9962 0,0.073 -7.498e-4,0.1369 0,0.2056 l 15.9008306,0 c -0.0067,-0.07 0,-0.1365 0,-0.2056 0,-1.157 0.938781,-2.0965 2.096825,-2.0965 1.158024,0 2.096796,0.9395 2.096796,2.0965 0,0.072 0.0067,0.1391 0,0.2056 l 15.900834,0 c 7.44e-4,-0.073 0,-0.1359 0,-0.2056 C 41.997644,1042.1549 33.939817,1034.0973 24.000014,1034.0973 Z"
         style="fill:url(#linearGradient1545);fill-opacity:1;stroke:none" />
      <path
         inkscape:connector-curvature="0"
         id="path1495"
         d="m 24.000014,1046.3294 c -3.184613,0 -5.766239,2.58 -5.766239,5.7641 0,0.075 -0.0026,0.1356 0,0.2056 l 3.669414,0 c -0.0067,-0.07 0,-0.1365 0,-0.2056 0,-1.157 0.938781,-2.0965 2.096825,-2.0965 1.158024,0 2.096796,0.9395 2.096796,2.0965 0,0.072 0.0067,0.1391 0,0.2056 l 3.669418,0 c 0.0026,-0.074 0,-0.1342 0,-0.2056 C 29.766228,1048.9094 27.184608,1046.3294 24.000014,1046.3294 Z"
         style="fill:#d3d5d7;fill-opacity:1;stroke:none" />
      <path
         inkscape:connector-curvature="0"
         id="path4295"
         d="m 26.591883,1010.3622 c -0.651936,0.5559 -1.262519,1.0972 -1.834692,1.6303 0.485477,10.0079 7.626752,10.442 6.173946,17.5894 0.460604,-0.2919 0.899547,-0.456 1.310515,-0.6102 0.245336,-1.1314 0.09864,-2.2703 0.0291,-2.8539 0.21856,0.3005 0.4725,0.6523 0.698942,0.9607 C 32.467058,1021.8627 26.359797,1020.5398 26.591883,1010.3622 z m -14.648553,9.5817 c -2.48e-4,0.2685 -0.0014,0.5439 0,0.8137 1.45286,0.7975 3.01822,2.2503 4.251858,5.7955 0.02911,-1.183 0.138599,-2.2694 0.291233,-3.2891 C 14.970281,1020.9976 13.269521,1020.4445 11.94333,1019.9439 z m 22.191279,6.1739 c 0.06413,0.5377 0.199241,1.5498 0.0291,2.591 4.134533,5.5995 8.918111,12.2373 10.338463,19.8924 l 0,1.8921 c 0,1.0046 -0.801647,1.806 -1.805589,1.806 l 1.863824,0 c 1.003942,0 1.80559,-0.8013 1.80559,-1.806 l 0,-1.8921 C 44.726355,1039.7639 38.54822,1032.1777 34.134609,1026.1178 Z"
         style="fill:#f7a02b;fill-opacity:0.62745098;stroke:none" />
      <path
         inkscape:connector-curvature="0"
         id="path4366"
         d="m 24.000014,1034.6511 c -9.378473,0 -17.0701183,7.1783 -17.9102879,16.3377 l -0.058235,0 c -0.02207,0.364 -0.029133,0.7347 -0.029133,1.1047 0,0.073 -7.498e-4,0.1369 0,0.2058 l 0.087368,0 c 0.8401696,-9.1588 8.5318149,-16.338 17.9102879,-16.338 9.378447,0 17.070094,7.1792 17.910262,16.338 l 0.08731,0 c 7.44e-4,-0.073 0,-0.1361 0,-0.2058 0,-0.37 -0.0076,-0.7407 -0.0291,-1.1047 l -0.0582,0 C 41.070108,1041.8294 33.378461,1034.6511 24.000014,1034.6511 Z"
         style="fill:url(#linearGradient4377);fill-opacity:1;stroke:none" />
      <path
         inkscape:connector-curvature="0"
         id="path4401"
         d="m 26.591883,1012.2272 c -5.739955,4.8861 -8.348242,8.6814 -8.532843,16.1906 -1.792007,-5.1506 -4.30005,-5.9254 -6.11571,-6.6107 -6.06e-4,0.6185 0.0038,1.2408 0,1.8637 1.81566,0.6866 4.323703,1.4583 6.11571,6.612 0.184601,-7.5097 2.792888,-11.3045 8.532843,-16.1937 -0.228522,10.0227 5.687408,11.4621 6.348705,16.4847 C 33.711987,1023.8847 26.337215,1023.3939 26.591883,1012.2272 z m -14.648553,12.1419 c -0.06128,2.5798 -0.448361,5.1998 -2.5336488,7.8069 -3.7133498,5.6908 -6.7249512,11.6578 -7.7756817,17.5017 l 0,0.8156 c 0,0.21 0.05125,0.3943 0.1164895,0.5831 1.1239778,-5.6945 4.0453618,-11.4991 7.6591922,-17.0385 C 12.000507,1030.7987 11.958233,1027.5479 11.94333,1024.3691 z m 22.191279,3.6122 c 0.05103,0.4275 0.13409,1.1757 0.08731,1.9793 4.236198,5.806 10.047804,13.0009 11.940185,21.3474 0.124609,-0.2457 0.203838,-0.5207 0.203838,-0.8147 l 0,-0.031 C 44.726355,1041.6289 38.54822,1034.0397 34.134609,1027.9811 z m 0.05821,2.3891 c -0.09032,0.7221 -0.311387,1.4717 -0.815434,2.0966 -0.201324,0.042 -0.339005,0.028 -0.436817,-0.031 -0.0443,0.3845 -0.102765,0.7953 -0.203868,1.2236 0,0 -0.164644,0.8282 0.640685,0.6697 C 34.376734,1033.0907 34.302595,1031.4018 34.192845,1030.3704 Z"
         style="fill:#000000;fill-opacity:0.05882353;stroke:none" />
      <path
         inkscape:connector-curvature="0"
         id="path4403"
         d="m 26.591883,1014.0891 c -5.739955,4.8892 -8.348242,8.684 -8.532843,16.1937 -1.792007,-5.1537 -4.30005,-5.9254 -6.11571,-6.612 -6.06e-4,0.6167 0.0038,1.2421 0,1.865 1.81566,0.6836 4.323703,1.4583 6.11571,6.6089 0.184601,-7.5091 2.792888,-11.3036 8.532843,-16.1906 -0.228522,10.0197 5.687408,11.462 6.348705,16.4816 C 33.711987,1025.7496 26.337215,1025.2558 26.591883,1014.0891 z m -14.648553,12.1446 c -0.06128,2.5802 -0.448361,5.1972 -2.5336488,7.8042 -3.6138304,5.5394 -6.5352144,11.3439 -7.6591922,17.0385 0.068686,0.1965 0.1630188,0.3923 0.291224,0.5507 1.2905041,-5.2659 4.0323741,-10.6118 7.3679682,-15.7242 C 12.000507,1032.6637 11.958233,1029.4099 11.94333,1026.2337 z m 22.191279,3.6111 c 0.05103,0.429 0.13409,1.1742 0.08731,1.9807 4.001568,5.4826 9.380495,12.214 11.561581,19.977 0.155766,-0.1431 0.281536,-0.3012 0.378604,-0.4945 C 44.255803,1042.9101 38.376309,1035.6671 34.134609,1029.8448 z m 0.05821,2.3876 c -0.09032,0.7251 -0.311387,1.4717 -0.815434,2.0966 -0.201324,0.042 -0.339005,0.028 -0.436817,-0.031 -0.0443,0.3845 -0.102765,0.7947 -0.203868,1.2235 0,0 -0.164644,0.8253 0.640685,0.6697 C 34.376734,1034.9531 34.302595,1033.2668 34.192845,1032.2324 Z"
         style="fill:#000000;fill-opacity:0.02745098;stroke:none" />
      <path
         inkscape:connector-curvature="0"
         id="path1497"
         d="m 24.000014,1047.5529 c -2.509078,0 -4.543106,2.0321 -4.543106,4.5406 0,0.073 -0.0032,0.137 0,0.2058 l 2.446281,0 c -0.0067,-0.07 0,-0.1367 0,-0.2058 0,-1.157 0.938781,-2.0965 2.096825,-2.0965 1.158024,0 2.096796,0.9395 2.096796,2.0965 0,0.072 0.0067,0.1391 0,0.2058 l 2.446296,0 c 0.0032,-0.072 0,-0.1356 0,-0.2058 C 28.543106,1049.585 26.509098,1047.5529 24.000014,1047.5529 Z"
         style="fill:#e0e0e2;fill-opacity:1;stroke:none" />
      <path
         style="fill:#000000;fill-opacity:0.31465532;stroke:none"
         d="m 24.000012,1049.9908 c -1.158044,0 -2.102286,0.9457 -2.102286,2.1027 0,0.1004 0.02666,0.179 0.03824,0.2687 0.195516,-0.9545 1.050759,-1.682 2.064068,-1.682 1.01327,0 1.868527,0.7275 2.064029,1.682 0.01168,-0.094 0.03824,-0.1753 0.03824,-0.2687 C 26.102269,1050.9365 25.158036,1049.9908 24.000012,1049.9908 Z"
         id="path1516"
         inkscape:connector-curvature="0" />
      <path
         inkscape:connector-curvature="0"
         id="path1532"
         d="m 24.000014,1049.9687 c -1.070956,0 -1.94015,0.8253 -2.067692,1.865 0.19657,-0.9592 1.054393,-1.6615 2.067692,-1.6615 1.01327,0 1.871133,0.7023 2.067693,1.6615 C 25.940145,1050.794 25.07094,1049.9687 24.000014,1049.9687 Z"
         style="fill:#1a1a1a;fill-opacity:0.31372549;stroke:none" />
    </g>
    <g
       id="g4413"
       transform="translate(-6.6009559e-8,0.0677)">
      <path
         id="rect846-6"
         d="m -8.6798088e-7,1049.2945 0,1.0625 c 0,1.0773 0.86022300798088,1.9375 1.93749996798088,1.9375 l 44.1250019,0 c 1.07728,0 1.9375,-0.8602 1.9375,-1.9375 l 0,-1.0625 c 0,1.0773 -0.86022,1.9375 -1.9375,1.9375 l -44.1250019,0 C 0.86022214,1051.232 -8.6798088e-7,1050.3718 -8.6798088e-7,1049.2945 Z"
         style="fill:#000000;fill-opacity:1;stroke:none"
         inkscape:connector-curvature="0" />
      <path
         id="rect4280-0"
         d="m 1.9374991,1004.2945 c -1.07727696,0 -1.93749996798088,0.8602 -1.93749996798088,1.9375 l 0,43.0625 c 0,0.7934 0.48002300798088,1.449 1.15624996798088,1.75 -0.30934196,-0.3333 -0.49999996,-0.7824 -0.49999996,-1.2812 l 0,-42.9375 c 0,-1.0482 0.82689896,-1.875 1.87499996,-1.875 l 42.9375019,0 c 1.0481,0 1.875,0.8268 1.875,1.875 l 0,42.9375 c 0,0.4988 -0.19066,0.9479 -0.5,1.2812 0.67622,-0.301 1.15625,-0.9566 1.15625,-1.75 l 0,-43.0625 c 0,-1.0773 -0.86022,-1.9375 -1.9375,-1.9375 L 1.9374991,1004.2945 Z"
         style="fill:#000000;fill-opacity:0.39215686;stroke:none"
         inkscape:connector-curvature="0" />
      <path
         id="path7515-9"
         d="m 2.5312491,1004.9508 c -0.917089,0 -1.67114696,0.6395 -1.84374996,1.5 0.33561196,-0.2799 0.77451196,-0.4375 1.24999996,-0.4375 l 44.1250019,0 c 0.47549,0 0.91439,0.1576 1.25,0.4375 -0.1726,-0.8605 -0.92666,-1.5 -1.84375,-1.5 L 2.5312491,1004.9508 Z"
         style="fill:#ffffff;fill-opacity:0.5372549;stroke:none"
         inkscape:connector-curvature="0" />
    </g>
  </g>
</svg>
