<?xml version="1.0" encoding="UTF-8" standalone="no"?>
<!-- Created with Inkscape (http://www.inkscape.org/) -->

<svg
   xmlns:dc="http://purl.org/dc/elements/1.1/"
   xmlns:cc="http://creativecommons.org/ns#"
   xmlns:rdf="http://www.w3.org/1999/02/22-rdf-syntax-ns#"
   xmlns:svg="http://www.w3.org/2000/svg"
   xmlns="http://www.w3.org/2000/svg"
   xmlns:xlink="http://www.w3.org/1999/xlink"
   xmlns:sodipodi="http://sodipodi.sourceforge.net/DTD/sodipodi-0.dtd"
   xmlns:inkscape="http://www.inkscape.org/namespaces/inkscape"
   width="48"
   height="48"
   id="svg944"
   version="1.1"
   inkscape:version="0.48+devel r12487"
   sodipodi:docname="celestia.svg">
  <defs
     id="defs946">
    <linearGradient
       inkscape:collect="always"
       id="linearGradient853">
      <stop
         style="stop-color:#00012f;stop-opacity:1"
         offset="0"
         id="stop855" />
      <stop
         style="stop-color:#063494;stop-opacity:1"
         offset="1"
         id="stop857" />
    </linearGradient>
    <linearGradient
       inkscape:collect="always"
       xlink:href="#linearGradient853"
       id="linearGradient859"
       x1="1663.9772"
       y1="-412.49353"
       x2="1663.9772"
       y2="-364.62723"
       gradientUnits="userSpaceOnUse" />
  </defs>
  <sodipodi:namedview
     id="base"
     pagecolor="#ffffff"
     bordercolor="#666666"
     borderopacity="1.0"
     inkscape:pageopacity="0.0"
     inkscape:pageshadow="2"
     inkscape:zoom="5.6568543"
     inkscape:cx="7.323617"
     inkscape:cy="38.614519"
     inkscape:document-units="px"
     inkscape:current-layer="layer1"
     showgrid="false"
     width="0px"
     height="0px"
     fit-margin-top="0"
     fit-margin-left="0"
     fit-margin-right="0"
     fit-margin-bottom="0"
     inkscape:window-width="1366"
     inkscape:window-height="718"
     inkscape:window-x="0"
     inkscape:window-y="28"
     inkscape:window-maximized="1"
     showguides="false" />
  <metadata
     id="metadata949">
    <rdf:RDF>
      <cc:Work
         rdf:about="">
        <dc:format>image/svg+xml</dc:format>
        <dc:type
           rdf:resource="http://purl.org/dc/dcmitype/StillImage" />
        <dc:title />
      </cc:Work>
    </rdf:RDF>
  </metadata>
  <g
     inkscape:label="Capa 1"
     inkscape:groupmode="layer"
     id="layer1"
     transform="translate(-1640.5564,-364.34714)">
    <rect
       style="fill:url(#linearGradient859);fill-opacity:1;stroke:none"
       id="rect2991-1"
       width="48"
       height="48"
       x="1640.5564"
       y="-412.34714"
       ry="1.9445436"
       transform="scale(1,-1)" />
    <path
       style="color:#000000;fill:#0d1755;fill-opacity:1;fill-rule:nonzero;stroke:none;stroke-width:0.2;marker:none;visibility:visible;display:inline;overflow:visible;enable-background:accumulate;opacity:0.5"
       d="M 1.9375 0 C 0.86022285 0 0 0.86022285 0 1.9375 L 0 24.53125 C 0.76648931 24.613631 1.5553774 24.65625 2.34375 24.65625 C 14.265978 24.65625 23.9375 14.984728 23.9375 3.0625 C 23.9375 2.021721 23.861131 1.0014451 23.71875 0 L 1.9375 0 z "
       transform="translate(1640.5564,364.34714)"
       id="path942" />
    <path
       style="color:#000000;fill:#021b6f;fill-opacity:1;fill-rule:nonzero;stroke:none;stroke-width:0.2;marker:none;visibility:visible;display:inline;overflow:visible;enable-background:accumulate;opacity:0.5"
       d="M 1.9375 0 C 0.86022285 0 0 0.86022285 0 1.9375 L 0 19.46875 C 0.76896191 19.577998 1.5446109 19.65625 2.34375 19.65625 C 11.504555 19.65625 18.9375 12.223305 18.9375 3.0625 C 18.9375 2.0140534 18.811016 0.99447465 18.625 0 L 1.9375 0 z "
       transform="translate(1640.5564,364.34714)"
       id="path940" />
    <path
       style="color:#000000;fill:#0a4c96;fill-opacity:1;fill-rule:nonzero;stroke:none;stroke-width:0.2;marker:none;visibility:visible;display:inline;overflow:visible;enable-background:accumulate;opacity:0.5"
       d="M 1.9375 0 C 0.86022285 0 0 0.86022285 0 1.9375 L 0 14.40625 C 0.75429263 14.560601 1.5438273 14.65625 2.34375 14.65625 C 8.7431315 14.65625 13.9375 9.4618815 13.9375 3.0625 C 13.9375 1.9995093 13.768056 0.97790326 13.5 0 L 1.9375 0 z "
       transform="translate(1640.5564,364.34714)"
       id="path938" />
    <path
       style="color:#000000;fill:#4f50bf;fill-opacity:1;fill-rule:nonzero;stroke:none;stroke-width:0.2;marker:none;visibility:visible;display:inline;overflow:visible;enable-background:accumulate;opacity:0.5"
       d="M 1.9375 0 C 0.86022285 0 0 0.86022285 0 1.9375 L 0 9.21875 C 0.7271225 9.4951375 1.5196637 9.65625 2.34375 9.65625 C 5.9817083 9.65625 8.9375 6.7004583 8.9375 3.0625 C 8.9375 1.9595896 8.6353826 0.91331 8.15625 0 L 1.9375 0 z "
       transform="translate(1640.5564,364.34714)"
       id="path936" />
    <path
       style="color:#000000;fill:#704f96;fill-opacity:1;fill-rule:nonzero;stroke:none;stroke-width:0.2;marker:none;visibility:visible;display:inline;overflow:visible;enable-background:accumulate;opacity:0.5"
       d="M 1.9375 0 C 0.86022285 0 0 0.86022285 0 1.9375 L 0 5.75 C 0.63050177 6.3004659 1.4410201 6.65625 2.34375 6.65625 C 4.3248541 6.65625 5.9375 5.0436041 5.9375 3.0625 C 5.9375 1.7585472 5.2280233 0.62796558 4.1875 0 L 1.9375 0 z "
       transform="translate(1640.5564,364.34714)"
       id="path944" />
    <path
       style="color:#000000;fill:#ffffff;fill-opacity:0.1627907;fill-rule:nonzero;stroke:none;stroke-width:0.2;marker:none;visibility:visible;display:inline;overflow:visible;enable-background:accumulate"
       d="M 3.1875 0 L 18.5625 15.40625 L 13.40625 17.125 L 0 9.125 L 0 9.59375 L 12.90625 17.3125 L 0 21.625 L 0 22.0625 L 13.34375 17.5625 L 18.625 20.71875 L 14.6875 35.34375 C 8.9706176 35.190613 3.7960523 32.836684 0 29.09375 L 0 29.625 C 3.8414987 33.26062 8.9845803 35.561187 14.65625 35.6875 L 14.65625 38.9375 C 9.1162236 38.651079 4.0472165 36.56389 0 33.28125 L 0 33.875 C 4.3697324 37.282032 9.8486252 39.34375 15.8125 39.34375 C 23.165825 39.34375 29.783517 36.260186 34.46875 31.3125 L 37.0625 33.875 L 37.09375 33.90625 C 31.768403 39.445347 24.291746 42.90625 16 42.90625 C 10.094117 42.90625 4.6030633 41.164405 0 38.15625 L 0 38.78125 C 4.5811012 41.662258 10.003983 43.34375 15.8125 43.34375 C 32.237 43.34375 45.53125 30.01815 45.53125 13.59375 C 45.53125 8.6853418 44.322099 4.078026 42.21875 0 L 41.9375 0 C 42.949214 1.9278542 43.746368 3.9741591 44.3125 6.125 L 44.21875 6.15625 L 40.8125 7.59375 C 40.162799 4.8658035 39.097567 2.31287 37.65625 0 L 37.375 0 C 38.856527 2.3288203 39.936414 4.9240926 40.59375 7.6875 L 37 9.21875 L 36.875 9.25 L 36.8125 9.28125 C 36.128817 5.8346964 34.623747 2.6692352 32.53125 0 L 32.25 0 C 34.394249 2.6738606 35.93379 5.8564081 36.625 9.34375 L 20.625 14.71875 L 24.5625 0 L 24.15625 0 L 20.1875 14.84375 L 19 15.25 L 3.75 0 L 3.1875 0 z M 44.4375 6.5625 C 44.991925 8.8110749 45.28125 11.172652 45.28125 13.59375 C 45.28125 21.323427 42.292349 28.35507 37.40625 33.59375 L 37.34375 33.53125 L 34.78125 30.96875 C 38.966239 26.387845 41.53125 20.288678 41.53125 13.59375 C 41.53125 11.68689 41.298818 9.8193379 40.90625 8.03125 L 44.34375 6.59375 L 44.4375 6.5625 z M 40.71875 8.125 C 41.103445 9.8846155 41.3125 11.716783 41.3125 13.59375 C 41.3125 20.223324 38.755444 26.259128 34.59375 30.78125 L 31.8125 28.03125 C 35.166791 24.156218 37.21875 19.12212 37.21875 13.59375 C 37.21875 12.26537 37.099457 10.981958 36.875 9.71875 L 37.09375 9.625 L 40.71875 8.125 z M 36.6875 9.75 C 36.910453 10.999533 37.03125 12.279732 37.03125 13.59375 C 37.03125 19.073737 34.997391 24.079104 31.65625 27.90625 L 20.15625 16.40625 L 20.5 15.15625 L 36.6875 9.75 z M 20.0625 15.3125 L 19.84375 16.09375 L 19.3125 15.5625 L 20.0625 15.3125 z M 18.875 15.71875 L 19.71875 16.5625 L 18.71875 20.3125 L 13.84375 17.40625 L 18.875 15.71875 z M 20.03125 16.875 L 30.59375 27.40625 L 19.0625 20.53125 L 20.03125 16.875 z M 18.96875 20.9375 L 31.28125 28.28125 C 27.308732 32.614238 21.623712 35.375 15.28125 35.375 C 15.218727 35.375 15.156149 35.375527 15.09375 35.375 L 18.96875 20.9375 z M 31.5 28.4375 L 31.59375 28.46875 L 31.8125 28.65625 L 34.28125 31.125 C 29.668433 35.954359 23.173891 38.96875 15.96875 38.96875 C 15.674479 38.96875 15.385573 38.947564 15.09375 38.9375 L 15.09375 35.6875 C 15.114715 35.687472 15.135667 35.6875 15.15625 35.6875 C 21.634259 35.6875 27.465105 32.883418 31.5 28.4375 z "
       transform="translate(1640.5564,364.34714)"
       id="path866" />
    <path
       inkscape:connector-curvature="0"
       style="fill:#ffffff;fill-opacity:0.5372549;stroke:none"
       d="m 1643.0876,365.00345 c -0.917,0 -1.6711,0.6395 -1.8437,1.5 0.3356,-0.2799 0.7745,-0.4375 1.25,-0.4375 l 44.125,0 c 0.4755,0 0.9144,0.1576 1.25,0.4375 -0.1726,-0.8605 -0.9267,-1.5 -1.8437,-1.5 L 1643.0876,365.00345 Z"
       id="path7515" />
    <path
       inkscape:connector-curvature="0"
       style="fill:#000000;fill-opacity:0.39215686;stroke:none"
       d="m 1642.4939,364.34715 c -1.0773,0 -1.9375,0.8602 -1.9375,1.9375 l 0,43.0625 c 0,0.7934 0.48,1.449 1.1562,1.75 -0.3093,-0.3333 -0.5,-0.7824 -0.5,-1.2812 l 0,-42.9375 c 0,-1.0482 0.8269,-1.875 1.875,-1.875 l 42.9376,0 c 1.0481,0 1.875,0.8268 1.875,1.875 l 0,42.9375 c 0,0.4988 -0.1907,0.9479 -0.5,1.2812 0.6762,-0.301 1.1562,-0.9566 1.1562,-1.75 l 0,-43.0625 c 0,-1.0773 -0.8602,-1.9375 -1.9375,-1.9375 L 1642.4939,364.34715 Z"
       id="rect4280" />
    <path
       inkscape:connector-curvature="0"
       style="color:#000000;fill:#000000;fill-opacity:0.12093023;fill-rule:nonzero;stroke:none;stroke-width:0.2;marker:none;visibility:visible;display:inline;overflow:visible;enable-background:accumulate"
       d="m 1682.2127,371.28464 -1.1563,0.6875 -1.25,-0.5625 0.3125,1.3125 -0.9375,1 1.3438,0.125 0.6875,1.1875 0.5312,-1.25 1.3125,-0.25 -1,-0.90625 L 1682.2127,371.28464 z m -34.0625,11.4375 -1.1563,0.6875 -1.2187,-0.5625 0.2812,1.3125 -0.9062,0.96875 1.3437,0.125 0.6563,1.1875 0.5312,-1.25 1.3125,-0.25 -1,-0.90625 L 1648.1502,382.72214 z m 25.5625,8.5625 -1.1563,0.6875 -1.2187,-0.5625 0.2812,1.34375 -0.9062,0.96875 1.3437,0.125 0.6563,1.1875 0.5312,-1.25 1.3125,-0.25 -1,-0.90625 L 1673.7127,391.28464 z m 2.4375,3.21875 -1.1563,0.6875 -1.2187,-0.5625 0.2812,1.3125 -0.9062,1 1.3437,0.125 0.6563,1.15625 0.5312,-1.21875 1.3438,-0.28125 -1.0313,-0.875 L 1676.1502,394.50339 z m -20.6875,7.78125 -0.7188,1.15625 -1.3437,0.0625 0.875,1.03125 -0.375,1.28125 1.25,-0.5 1.125,0.75 -0.094,-1.34375 1.0625,-0.84375 -1.3125,-0.3125 L 1655.4627,402.28464 Z"
       id="path971" />
    <path
       inkscape:connector-curvature="0"
       style="fill:#000000;fill-opacity:1;stroke:none"
       d="m 1640.5564,409.34715 0,1.0625 c 0,1.0773 0.8602,1.9375 1.9375,1.9375 l 44.125,0 c 1.0773,0 1.9375,-0.8602 1.9375,-1.9375 l 0,-1.0625 c 0,1.0773 -0.8602,1.9375 -1.9375,1.9375 l -44.125,0 C 1641.4166,411.28465 1640.5564,410.42445 1640.5564,409.34715 Z"
       id="rect846" />
    <path
       style="color:#000000;fill:#000000;fill-opacity:0.39069769;fill-rule:nonzero;stroke:none;stroke-width:0.2;marker:none;visibility:visible;display:inline;overflow:visible;enable-background:accumulate"
       d="M 3.1875 0 L 3.40625 0.21875 L 3.75 0.21875 L 19 15.46875 L 20.1875 15.0625 L 24.15625 0.21875 L 24.5 0.21875 L 24.5625 0 L 24.15625 0 L 20.1875 14.84375 L 19 15.25 L 3.75 0 L 3.1875 0 z M 32.25 0 C 32.30567 0.069420535 32.351399 0.14864726 32.40625 0.21875 L 32.53125 0.21875 C 34.62365 2.88799 36.1288 6.05345 36.8125 9.5 L 36.875 9.46875 L 37 9.4375 L 40.59375 7.90625 C 40.578579 7.8424792 40.546871 7.7823405 40.53125 7.71875 L 37 9.21875 L 36.875 9.25 L 36.8125 9.28125 C 36.128817 5.8346964 34.623747 2.6692352 32.53125 0 L 32.25 0 z M 37.375 0 C 37.420337 0.071265766 37.455416 0.14698801 37.5 0.21875 L 37.65625 0.21875 C 39.09755 2.53162 40.1628 5.08456 40.8125 7.8125 L 44.21875 6.375 L 44.3125 6.34375 C 44.295673 6.2798185 44.267235 6.2199965 44.25 6.15625 L 44.21875 6.15625 L 40.8125 7.59375 C 40.162799 4.8658035 39.097567 2.31287 37.65625 0 L 37.375 0 z M 41.9375 0 C 41.974266 0.070058982 41.995051 0.14837883 42.03125 0.21875 L 42.21875 0.21875 C 44.031674 3.7337777 45.186143 7.6258914 45.46875 11.78125 C 45.208554 7.5553767 44.05918 3.5682727 42.21875 0 L 41.9375 0 z M 40.9375 8.21875 L 40.90625 8.25 C 41.1025 9.144045 41.267812 10.039994 41.375 10.96875 C 41.27469 10.039778 41.127811 9.1138269 40.9375 8.21875 z M 41.375 10.96875 C 41.428594 11.433128 41.47207 11.903826 41.5 12.375 C 41.475776 11.894944 41.426098 11.441965 41.375 10.96875 z M 0 9.125 L 0 9.34375 L 13.40625 17.34375 L 18.5625 15.625 L 18.40625 15.46875 L 13.40625 17.125 L 0 9.125 z M 36.5625 9.375 L 20.6875 14.6875 L 20.625 14.9375 L 36.625 9.5625 C 36.612392 9.4988897 36.575671 9.4384062 36.5625 9.375 z M 36.875 9.9375 C 36.98725 10.569105 37.067112 11.198949 37.125 11.84375 C 37.073572 11.199735 37.01198 10.567732 36.90625 9.9375 L 36.875 9.9375 z M 20.0625 15.53125 L 20 15.5625 L 19.84375 16.09375 L 19.46875 15.71875 L 19.3125 15.78125 L 19.84375 16.3125 L 20.0625 15.53125 z M 36.9375 15.625 C 36.502527 20.306546 34.579748 24.557497 31.65625 27.90625 L 20.21875 16.46875 L 20.15625 16.625 L 31.65625 28.125 C 34.624593 24.724843 36.542336 20.391734 36.9375 15.625 z M 41.1875 16.0625 C 40.641165 21.720913 38.235232 26.824393 34.59375 30.78125 L 31.90625 28.125 C 31.872711 28.164287 31.846305 28.210947 31.8125 28.25 L 34.59375 31 C 38.27493 26.999919 40.676495 21.794642 41.1875 16.0625 z M 45.15625 16.46875 C 44.517354 23.064553 41.681587 29.009905 37.40625 33.59375 L 37.34375 33.53125 L 34.875 31.0625 C 34.84051 31.100706 34.815963 31.149502 34.78125 31.1875 L 37.34375 33.75 L 37.40625 33.8125 C 41.722037 29.185193 44.553152 23.139264 45.15625 16.46875 z M 19.6875 16.75 L 18.71875 20.3125 L 14.09375 17.53125 L 13.84375 17.625 L 18.71875 20.53125 L 19.71875 16.78125 L 19.6875 16.75 z M 12.65625 17.40625 L 0 21.625 L 0 21.84375 L 12.90625 17.53125 L 12.65625 17.40625 z M 19.125 20.5625 L 19.0625 20.75 L 30.59375 27.625 L 30.0625 27.09375 L 19.125 20.5625 z M 18.5625 20.90625 L 14.6875 35.34375 C 8.9706176 35.190613 3.7960523 32.836684 0 29.09375 L 0 29.3125 C 3.7961 33.05544 8.9706 35.40937 14.6875 35.5625 L 18.625 20.9375 L 18.5625 20.90625 z M 31.15625 28.40625 C 27.189782 32.663174 21.55902 35.375 15.28125 35.375 C 15.239568 35.375 15.197912 35.375 15.15625 35.375 L 15.09375 35.59375 C 15.15605 35.59428 15.21825 35.59375 15.28125 35.59375 C 21.62365 35.59375 27.30865 32.83299 31.28125 28.5 L 31.15625 28.40625 z M 34.1875 31.25 C 29.581619 36.01342 23.117601 38.96875 15.96875 38.96875 C 15.674479 38.96875 15.385573 38.947564 15.09375 38.9375 L 15.09375 39.15625 C 15.38555 39.16625 15.67445 39.1875 15.96875 39.1875 C 23.17385 39.1875 29.66835 36.17311 34.28125 31.34375 L 34.1875 31.25 z M 0 33.28125 L 0 33.5 C 4.0472 36.78264 9.11615 38.86983 14.65625 39.15625 L 14.65625 38.9375 C 9.1162236 38.651079 4.0472165 36.56389 0 33.28125 z M 36.96875 34 C 31.650556 39.473838 24.235827 42.90625 16 42.90625 C 10.094117 42.90625 4.6030633 41.164405 0 38.15625 L 0 38.375 C 4.6031 41.38316 10.0941 43.125 16 43.125 C 24.2917 43.125 31.76835 39.6641 37.09375 34.125 L 37.0625 34.09375 L 36.96875 34 z "
       transform="translate(1640.5564,364.34714)"
       id="path961" />
    <path
       id="path969"
       d="m 1682.2127,371.06589 -1.1563,0.6875 -1.25,-0.5625 0.3125,1.3125 -0.9375,1 1.3438,0.125 0.6875,1.1875 0.5312,-1.25 1.3125,-0.25 -1,-0.90625 L 1682.2127,371.06589 z m -34.0625,11.4375 -1.1563,0.6875 -1.2187,-0.5625 0.2812,1.3125 -0.9062,0.96875 1.3437,0.125 0.6563,1.1875 0.5312,-1.25 1.3125,-0.25 -1,-0.90625 L 1648.1502,382.50339 z m 25.5625,8.5625 -1.1563,0.6875 -1.2187,-0.5625 0.2812,1.34375 -0.9062,0.96875 1.3437,0.125 0.6563,1.1875 0.5312,-1.25 1.3125,-0.25 -1,-0.90625 L 1673.7127,391.06589 z m 2.4375,3.21875 -1.1563,0.6875 -1.2187,-0.5625 0.2812,1.3125 -0.9062,1 1.3437,0.125 0.6563,1.15625 0.5312,-1.21875 1.3438,-0.28125 -1.0313,-0.875 L 1676.1502,394.28464 z m -20.6875,7.78125 -0.7188,1.15625 -1.3437,0.0625 0.875,1.03125 -0.375,1.28125 1.25,-0.5 1.125,0.75 -0.094,-1.34375 1.0625,-0.84375 -1.3125,-0.3125 L 1655.4627,402.06589 Z"
       style="color:#000000;fill:#000000;fill-opacity:0.37674417;fill-rule:nonzero;stroke:none;stroke-width:0.2;marker:none;visibility:visible;display:inline;overflow:visible;enable-background:accumulate"
       inkscape:connector-curvature="0" />
    <path
       style="color:#000000;fill:#fcf6c3;fill-opacity:1;fill-rule:nonzero;stroke:none;stroke-width:0.2;marker:none;visibility:visible;display:inline;overflow:visible;enable-background:accumulate"
       d="M 41.65625 6.34375 L 40.5 7.03125 L 39.25 6.46875 L 39.5625 7.78125 L 38.625 8.78125 L 39.96875 8.90625 L 40.65625 10.09375 L 41.1875 8.84375 L 42.5 8.59375 L 41.5 7.6875 L 41.65625 6.34375 z M 7.59375 17.78125 L 6.4375 18.46875 L 5.21875 17.90625 L 5.5 19.21875 L 4.59375 20.1875 L 5.9375 20.3125 L 6.59375 21.5 L 7.125 20.25 L 8.4375 20 L 7.4375 19.09375 L 7.59375 17.78125 z M 33.15625 26.34375 L 32 27.03125 L 30.78125 26.46875 L 31.0625 27.8125 L 30.15625 28.78125 L 31.5 28.90625 L 32.15625 30.09375 L 32.6875 28.84375 L 34 28.59375 L 33 27.6875 L 33.15625 26.34375 z M 35.59375 29.5625 L 34.4375 30.25 L 33.21875 29.6875 L 33.5 31 L 32.59375 32 L 33.9375 32.125 L 34.59375 33.28125 L 35.125 32.0625 L 36.46875 31.78125 L 35.4375 30.90625 L 35.59375 29.5625 z M 14.90625 37.34375 L 14.1875 38.5 L 12.84375 38.5625 L 13.71875 39.59375 L 13.34375 40.875 L 14.59375 40.375 L 15.71875 41.125 L 15.625 39.78125 L 16.6875 38.9375 L 15.375 38.625 L 14.90625 37.34375 z "
       transform="translate(1640.5564,364.34714)"
       id="path896" />
  </g>
</svg>
