<?xml version="1.0" encoding="UTF-8" standalone="no"?>
<svg
   xmlns:dc="http://purl.org/dc/elements/1.1/"
   xmlns:cc="http://creativecommons.org/ns#"
   xmlns:rdf="http://www.w3.org/1999/02/22-rdf-syntax-ns#"
   xmlns:svg="http://www.w3.org/2000/svg"
   xmlns="http://www.w3.org/2000/svg"
   xmlns:xlink="http://www.w3.org/1999/xlink"
   xmlns:sodipodi="http://sodipodi.sourceforge.net/DTD/sodipodi-0.dtd"
   xmlns:inkscape="http://www.inkscape.org/namespaces/inkscape"
   width="48"
   viewBox="0 0 13.546667 13.546667"
   height="48"
   id="svg2"
   version="1.1"
   inkscape:version="0.48+devel r"
   sodipodi:docname="chrome-iggpfpnahkgpnindfkdncknoldgnccdg-Default.svg">
  <metadata
     id="metadata20">
    <rdf:RDF>
      <cc:Work
         rdf:about="">
        <dc:format>image/svg+xml</dc:format>
        <dc:type
           rdf:resource="http://purl.org/dc/dcmitype/StillImage" />
      </cc:Work>
    </rdf:RDF>
  </metadata>
  <sodipodi:namedview
     pagecolor="#ffffff"
     bordercolor="#666666"
     borderopacity="1"
     objecttolerance="10"
     gridtolerance="10"
     guidetolerance="10"
     inkscape:pageopacity="0"
     inkscape:pageshadow="2"
     inkscape:window-width="1366"
     inkscape:window-height="666"
     id="namedview18"
     showgrid="false"
     inkscape:zoom="9.9869792"
     inkscape:cx="29.464807"
     inkscape:cy="20.816349"
     inkscape:window-x="-2"
     inkscape:window-y="25"
     inkscape:window-maximized="1"
     inkscape:current-layer="svg2" />
  <defs
     id="defs4">
    <linearGradient
       inkscape:collect="always"
       id="linearGradient4291">
      <stop
         style="stop-color:#ffb9b9;stop-opacity:1"
         offset="0"
         id="stop4293" />
      <stop
         style="stop-color:#fff5f5;stop-opacity:1"
         offset="1"
         id="stop4295" />
    </linearGradient>
    <linearGradient
       gradientUnits="userSpaceOnUse"
       y2="-1004.3426"
       x2="21.566755"
       y1="-1052.3541"
       x1="21.566755"
       id="linearGradient1427"
       xlink:href="#linearGradient4116"
       inkscape:collect="always"
       gradientTransform="matrix(0.28222223,0,0,0.28222223,0,283.45334)" />
    <linearGradient
       gradientTransform="matrix(0.29206716,0,0,0.29206716,-0.2362786,-293.51379)"
       gradientUnits="userSpaceOnUse"
       y2="1013.3622"
       x2="25.874998"
       y1="1042.9872"
       x1="25.874998"
       id="linearGradient819"
       xlink:href="#linearGradient4291"
       inkscape:collect="always" />
    <linearGradient
       id="linearGradient4116"
       inkscape:collect="always">
      <stop
         id="stop4118"
         offset="0"
         style="stop-color:#970000;stop-opacity:1" />
      <stop
         id="stop4120"
         offset="1"
         style="stop-color:#fd3232;stop-opacity:1" />
    </linearGradient>
  </defs>
  <rect
     style="fill:url(#linearGradient1427);fill-opacity:1.0;stroke:none"
     id="rect2991-1"
     width="13.546667"
     height="13.546667"
     x="-2.424486e-08"
     y="-13.546662"
     ry="0.54879344"
     transform="scale(1,-1)" />
  <path
     inkscape:connector-curvature="0"
     id="path4057"
     d="m 7.978743,2.7657777 4.159509,1.3666611 -1.273319,0.7300525 c 0.127377,0.3584787 0.195242,0.7354147 0.195242,1.1375249 0,1.8910301 -1.5298605,3.4294516 -3.4209837,3.4294516 -0.3699679,0 -0.7273377,-0.069737 -1.0611,-0.1782515 1.3722935,-0.4463062 2.3683743,-1.7301069 2.3683743,-3.2512001 0,-0.00988 8.77e-5,-0.015522 0,-0.0254 L 7.0874189,7.0442385 7.978743,2.7657777 Z M 5.9074771,4.7945886 c 0.369966,0 0.7273381,0.069709 1.0610992,0.1782798 -1.3722918,0.4463627 -2.3683737,1.7301069 -2.3683737,3.2512001 0,0.00988 -8.75e-5,0.015522 0,0.0254 L 6.4592484,7.1798745 5.5679251,11.458222 1.4084151,10.091533 2.6817346,9.3615087 C 2.5543579,9.0030301 2.486492,8.626094 2.486492,8.2239838 c 6e-7,-1.8909736 1.5298625,-3.4293952 3.4209851,-3.4293952 z"
     style="color:#000000;display:inline;overflow:visible;visibility:visible;fill:#000000;fill-opacity:0.05882353;fill-rule:nonzero;stroke:none;stroke-width:0.2;marker:none;enable-background:accumulate" />
  <path
     style="color:#000000;display:inline;overflow:visible;visibility:visible;fill:#000000;fill-opacity:0.11764706;fill-rule:nonzero;stroke:none;stroke-width:0.2;marker:none;enable-background:accumulate"
     d="m 7.978743,2.6528888 4.159509,1.3666611 -1.273319,0.7300525 c 0.127377,0.3584787 0.195242,0.7354147 0.195242,1.1375249 0,1.8910301 -1.5298605,3.4294517 -3.4209837,3.4294517 -0.3699679,0 -0.7273377,-0.069737 -1.0611,-0.1782516 1.3722935,-0.4463062 2.3683743,-1.7301069 2.3683743,-3.2512001 0,-0.00988 8.77e-5,-0.015522 0,-0.0254 L 7.0874189,6.9313496 7.978743,2.6528888 Z M 5.9074771,4.6816997 c 0.369966,0 0.7273381,0.069709 1.0610992,0.1782798 -1.3722918,0.4463627 -2.3683737,1.7301069 -2.3683737,3.2512001 0,0.00988 -8.75e-5,0.015522 0,0.0254 L 6.4592484,7.0669856 5.5679251,11.345333 1.4084151,9.9786441 2.6817346,9.2486198 C 2.5543579,8.8901412 2.486492,8.5132052 2.486492,8.1110949 c 6e-7,-1.8909736 1.5298625,-3.4293952 3.4209851,-3.4293952 z"
     id="path4055"
     inkscape:connector-curvature="0" />
  <path
     inkscape:connector-curvature="0"
     id="path4051"
     d="m 7.978743,2.5399999 4.159509,1.3666611 -1.273319,0.7300525 c 0.127377,0.3584787 0.195242,0.7354147 0.195242,1.1375249 0,1.8910301 -1.5298605,3.4294517 -3.4209837,3.4294517 -0.3699679,0 -0.7273377,-0.069737 -1.0611,-0.1782516 1.3722935,-0.4463062 2.3683743,-1.7301069 2.3683743,-3.2512001 0,-0.00988 8.77e-5,-0.015522 0,-0.0254 L 7.0874189,6.8184607 7.978743,2.5399999 Z M 5.9074771,4.5688108 c 0.369966,0 0.7273381,0.069709 1.0610992,0.1782798 -1.3722918,0.4463627 -2.3683737,1.7301069 -2.3683737,3.2512001 0,0.00988 -8.75e-5,0.015522 0,0.0254 L 6.4592484,6.9540967 5.5679251,11.232445 1.4084151,9.8657552 2.6817346,9.135731 C 2.5543579,8.7772523 2.486492,8.4003163 2.486492,7.998206 c 6e-7,-1.8909736 1.5298625,-3.4293952 3.4209851,-3.4293952 z"
     style="color:#000000;display:inline;overflow:visible;visibility:visible;fill:#000000;fill-opacity:0.23529412;fill-rule:nonzero;stroke:none;stroke-width:0.2;marker:none;enable-background:accumulate" />
  <path
     inkscape:connector-curvature="0"
     style="fill:#000000;fill-opacity:1;stroke:none"
     d="m 0,12.7 0,0.299861 c 0,0.304038 0.24277402,0.546806 0.5468056,0.546806 l 12.4530554,0 c 0.304032,0 0.546806,-0.242768 0.546806,-0.546806 l 0,-0.299861 c 0,0.304038 -0.242774,0.546806 -0.546806,0.546806 l -12.4530554,0 C 0.24277402,13.246806 0,13.004038 0,12.7 Z"
     id="rect846" />
  <path
     inkscape:connector-curvature="0"
     style="fill:#ffffff;fill-opacity:0.5372549;stroke:none"
     d="m 0.71437505,0.18522226 c -0.2588229,0 -0.47163481,0.18048112 -0.52034727,0.42333335 0.0947172,-0.078994 0.21858454,-0.12347223 0.35277782,-0.12347223 l 12.4530554,0 c 0.134194,0 0.258061,0.0444782 0.352778,0.12347223 -0.04871,-0.24285223 -0.261524,-0.42333335 -0.520347,-0.42333335 l -12.11791695,0 z"
     id="path7515" />
  <path
     inkscape:connector-curvature="0"
     style="fill:#000000;fill-opacity:0.39215686;stroke:none"
     d="M 0.5468056,-1.88294e-7 C 0.24277405,-1.88294e-7 0,0.24276737 0,0.54680538 L 0,12.7 c 0,0.223915 0.13547333,0.40894 0.32631943,0.493889 -0.0873031,-0.09407 -0.14111109,-0.220811 -0.14111109,-0.361583 l 0,-12.11791706 c 0,-0.29582534 0.23336931,-0.52916668 0.52916671,-0.52916668 l 12.11791695,0 c 0.295797,0 0.529167,0.23334134 0.529167,0.52916668 l 0,12.11791706 c 0,0.140772 -0.05381,0.267518 -0.141111,0.361583 0.190846,-0.08495 0.326319,-0.269974 0.326319,-0.493889 l 0,-12.15319462 C 13.546667,0.24276737 13.303893,-1.88294e-7 12.999861,-1.88294e-7 l -12.4530554,0 z"
     id="rect4280" />
  <path
     style="color:#000000;display:inline;overflow:visible;visibility:visible;fill:url(#linearGradient819);fill-opacity:1.0;fill-rule:nonzero;stroke:none;stroke-width:0.2;marker:none;enable-background:accumulate"
     d="m 7.978743,2.427111 4.159509,1.3666611 -1.273319,0.7300525 c 0.127377,0.3584787 0.195242,0.7354147 0.195242,1.1375249 0,1.8910301 -1.5298605,3.4294517 -3.4209837,3.4294517 -0.3699679,0 -0.7273377,-0.069737 -1.0611,-0.1782516 1.3722935,-0.4463062 2.3683743,-1.7301069 2.3683743,-3.2512001 0,-0.00988 8.77e-5,-0.015522 0,-0.0254 L 7.0874189,6.7055718 7.978743,2.427111 Z M 5.9074771,4.4559219 c 0.369966,0 0.7273381,0.069709 1.0610992,0.1782798 -1.3722918,0.4463627 -2.3683737,1.730107 -2.3683737,3.2512001 0,0.00988 -8.75e-5,0.015522 0,0.0254 L 6.4592484,6.8412078 5.5679251,11.119556 1.4084151,9.7528663 2.6817346,9.0228421 C 2.5543579,8.6643634 2.486492,8.2874274 2.486492,7.8853171 c 6e-7,-1.8909736 1.5298625,-3.4293952 3.4209851,-3.4293952 z"
     id="path1429"
     inkscape:connector-curvature="0" />
  <path
     style="color:#000000;display:inline;overflow:visible;visibility:visible;fill:#770505;fill-opacity:0.3137255;fill-rule:nonzero;stroke:none;stroke-width:0.2;marker:none;enable-background:accumulate"
     d="m 11.887509,3.7117866 -1.022504,0.5859216 c 0.02239,0.063048 0.04086,0.1276208 0.05953,0.1918264 L 12.138312,3.7939132 11.887509,3.7117866 Z M 6.6278127,4.5424513 C 5.4351895,5.0773188 4.6004428,6.2680709 4.6004428,7.6595676 c 0,0.00988 -8.75e-5,0.015522 0,0.0254 l 0.00827,-0.00452 C 4.6936376,6.249924 5.6583246,5.0600186 6.9684645,4.6338631 6.8576928,4.5979362 6.7433821,4.5688108 6.6278127,4.5424513 Z M 8.9462243,5.4100588 7.140994,6.448552 7.0875262,6.7054307 8.937956,5.6404651 c 0.00405,-0.068044 0.00827,-0.1359747 0.00827,-0.2050345 -8e-7,-0.00988 8.69e-5,-0.015522 -8e-7,-0.0254 z m 2.1089497,0.1290038 c -0.05517,1.8428265 -1.559747,3.3260172 -3.4158814,3.3260172 -0.2473661,0 -0.4881778,-0.033443 -0.7209894,-0.086529 -0.1108998,0.049699 -0.223375,0.095984 -0.3400998,0.1339427 0.3337622,0.1085144 0.6911213,0.1780258 1.0610892,0.1780258 1.8911232,0 3.4208424,-1.5380548 3.4208424,-3.4290848 0,-0.041402 -0.0035,-0.081506 -0.005,-0.1223716 z M 6.4591409,6.8410102 6.405673,6.8718853 5.5678258,10.893552 1.6586068,9.6092152 1.4083551,9.7525559 5.5678258,11.119556 6.4591409,6.8410102 Z M 2.4914931,7.7814029 c -0.00104,0.034742 -0.00496,0.068637 -0.00496,0.103632 0,0.3312725 0.048145,0.6450189 0.135599,0.9458678 l 0.059531,-0.034177 C 2.5673656,8.4750769 2.5039206,8.137652 2.4914931,7.7814029 Z"
     id="path4059"
     inkscape:connector-curvature="0" />
  <path
     style="color:#000000;display:inline;overflow:visible;visibility:visible;fill:#ffffff;fill-opacity:0.23529412;fill-rule:nonzero;stroke:none;stroke-width:0.2;marker:none;enable-background:accumulate"
     d="M 7.9788413,2.427111 7.0875262,6.7056564 7.1145348,6.6901342 7.9788404,2.5400281 12.013736,3.8657106 12.138311,3.7940261 7.9788413,2.427111 Z M 5.9073744,4.4561477 c -1.8911226,0 -3.4208416,1.5381112 -3.4208422,3.4290848 0,0.020602 0.0024,0.040612 0.00276,0.061186 0.027952,-1.8669001 1.5444623,-3.377297 3.418086,-3.377297 0.3079,0 0.6061087,0.049671 0.8902128,0.1284393 0.056655,-0.021731 0.1128279,-0.044506 0.1708765,-0.063387 C 6.6347026,4.5256026 6.2773404,4.4561477 5.9073744,4.4561477 Z m 4.9873956,0.1636889 -0.02976,0.017216 c 0.120865,0.3401342 0.185811,0.6973993 0.192374,1.0765084 2.61e-4,-0.017498 0.0028,-0.034318 0.0028,-0.051816 -10e-6,-0.3668042 -0.05884,-0.7119902 -0.165375,-1.041908 z m -1.9485457,1.1288889 -0.00331,0.00282 C 8.9045406,7.233158 7.9233609,8.4758389 6.5782031,8.9133398 c 0.056191,0.018345 0.1139506,0.033669 0.171428,0.049587 C 8.0320785,8.4685576 8.946224,7.2312671 8.946224,5.7747182 c 3e-7,-0.010442 8.8e-5,-0.016087 3e-7,-0.025964 z M 6.4591409,6.841236 4.6037501,7.9089391 c -7.62e-4,0.029887 -0.00331,0.059238 -0.00331,0.089295 0,0.00988 -8.75e-5,0.015522 0,0.0254 L 6.4321311,6.9697036 6.4591397,6.841236 Z M 2.6518968,9.0400294 1.4083551,9.7527534 1.533481,9.794099 2.6816624,9.1359567 c -0.011218,-0.031581 -0.019476,-0.064064 -0.029766,-0.095927 z"
     id="path4064"
     inkscape:connector-curvature="0" />
</svg>
