<?xml version="1.0" encoding="UTF-8" standalone="no"?>
<!-- Created with Inkscape (http://www.inkscape.org/) -->

<svg
   xmlns:dc="http://purl.org/dc/elements/1.1/"
   xmlns:cc="http://creativecommons.org/ns#"
   xmlns:rdf="http://www.w3.org/1999/02/22-rdf-syntax-ns#"
   xmlns:svg="http://www.w3.org/2000/svg"
   xmlns="http://www.w3.org/2000/svg"
   xmlns:xlink="http://www.w3.org/1999/xlink"
   xmlns:sodipodi="http://sodipodi.sourceforge.net/DTD/sodipodi-0.dtd"
   xmlns:inkscape="http://www.inkscape.org/namespaces/inkscape"
   width="48"
   height="48"
   id="svg5453"
   version="1.1"
   inkscape:version="0.48+devel r12851"
   sodipodi:docname="chromium-bsu.svg"
   viewBox="0 0 48 48">
  <defs
     id="defs5455">
    <linearGradient
       id="linearGradient4259"
       inkscape:collect="always">
      <stop
         id="stop4261"
         offset="0"
         style="stop-color:#0ff7dd;stop-opacity:1" />
      <stop
         id="stop4263"
         offset="1"
         style="stop-color:#0dffe1;stop-opacity:1" />
    </linearGradient>
    <linearGradient
       inkscape:collect="always"
       id="linearGradient5165">
      <stop
         style="stop-color:#d30079;stop-opacity:1"
         offset="0"
         id="stop5167" />
      <stop
         style="stop-color:#ff217b;stop-opacity:1"
         offset="1"
         id="stop5169" />
    </linearGradient>
    <linearGradient
       id="linearGradient855"
       inkscape:collect="always">
      <stop
         id="stop857"
         offset="0"
         style="stop-color:#383156;stop-opacity:1" />
      <stop
         id="stop859"
         offset="1"
         style="stop-color:#553a6c;stop-opacity:1" />
    </linearGradient>
    <linearGradient
       gradientUnits="userSpaceOnUse"
       y2="-1004.3673"
       x2="25.63262"
       y1="-1052.3983"
       x1="25.63262"
       id="linearGradient861"
       xlink:href="#linearGradient855"
       inkscape:collect="always"
       gradientTransform="translate(384.57143,504.5642)" />
    <linearGradient
       inkscape:collect="always"
       xlink:href="#linearGradient5165"
       id="linearGradient5171"
       x1="409.57693"
       y1="581.81451"
       x2="409.57693"
       y2="539.79797"
       gradientUnits="userSpaceOnUse"
       gradientTransform="translate(-384.57143,-499.798)" />
    <linearGradient
       inkscape:collect="always"
       xlink:href="#linearGradient5165"
       id="linearGradient4092"
       gradientUnits="userSpaceOnUse"
       x1="409.57693"
       y1="581.81451"
       x2="409.57693"
       y2="539.79797"
       gradientTransform="matrix(1.0238095,0,0,1.0238095,-394.29932,-513.15034)" />
    <linearGradient
       inkscape:collect="always"
       xlink:href="#linearGradient5165"
       id="linearGradient4098"
       gradientUnits="userSpaceOnUse"
       gradientTransform="matrix(1.0476195,0,0,1.0476195,-404.0272,-526.50291)"
       x1="409.57693"
       y1="581.81451"
       x2="409.57693"
       y2="539.79797" />
    <linearGradient
       inkscape:collect="always"
       xlink:href="#linearGradient5165"
       id="linearGradient4238"
       x1="411.44147"
       y1="524.81702"
       x2="411.44147"
       y2="518.45306"
       gradientUnits="userSpaceOnUse"
       gradientTransform="matrix(0.31143819,0,0,0.31143819,280.48789,362.00156)" />
    <linearGradient
       inkscape:collect="always"
       xlink:href="#linearGradient4259"
       id="linearGradient4257"
       x1="408.96661"
       y1="-527.29193"
       x2="408.96661"
       y2="-503.42706"
       gradientUnits="userSpaceOnUse"
       gradientTransform="matrix(1,0,0,-1,-384.57143,-499.798)" />
  </defs>
  <sodipodi:namedview
     id="base"
     pagecolor="#ffffff"
     bordercolor="#666666"
     borderopacity="1.0"
     inkscape:pageopacity="0"
     inkscape:pageshadow="2"
     inkscape:zoom="2"
     inkscape:cx="15.074207"
     inkscape:cy="39.918944"
     inkscape:document-units="px"
     inkscape:current-layer="layer1"
     showgrid="false"
     fit-margin-top="0"
     fit-margin-left="0"
     fit-margin-right="0"
     fit-margin-bottom="0"
     inkscape:window-width="1366"
     inkscape:window-height="673"
     inkscape:window-x="0"
     inkscape:window-y="24"
     inkscape:window-maximized="1"
     inkscape:showpageshadow="false"
     borderlayer="true"
     showguides="false">
    <sodipodi:guide
       position="8.0000117,39.999996"
       orientation="31.999969,0"
       id="guide5145" />
    <sodipodi:guide
       position="8.0000117,8.0000264"
       orientation="0,32"
       id="guide5147" />
    <sodipodi:guide
       position="40.000012,8.0000264"
       orientation="-31.999969,0"
       id="guide5149" />
    <sodipodi:guide
       position="40.000012,39.999996"
       orientation="0,-32"
       id="guide5151" />
    <sodipodi:guide
       position="3.0000117,44.999996"
       orientation="41.999969,0"
       id="guide5155" />
    <sodipodi:guide
       position="3.0000117,3.0000264"
       orientation="0,42"
       id="guide5157" />
    <sodipodi:guide
       position="45.000012,3.0000264"
       orientation="-41.999969,0"
       id="guide5159" />
    <sodipodi:guide
       position="45.000012,44.999996"
       orientation="0,-42"
       id="guide5161" />
    <sodipodi:guide
       position="18.500012,25.999904"
       orientation="18,0"
       id="guide4100" />
    <sodipodi:guide
       position="18.500012,7.9999043"
       orientation="0,11"
       id="guide4102" />
    <sodipodi:guide
       position="29.500012,7.9999043"
       orientation="-18,0"
       id="guide4104" />
    <sodipodi:guide
       position="29.500012,25.999904"
       orientation="0,-11"
       id="guide4106" />
    <sodipodi:guide
       position="22.343762,26.429714"
       orientation="0.1640625,0"
       id="guide4293" />
    <sodipodi:guide
       position="22.343762,26.265651"
       orientation="0,0.328125"
       id="guide4295" />
    <sodipodi:guide
       position="22.671887,26.265651"
       orientation="-0.1640625,0"
       id="guide4297" />
    <sodipodi:guide
       position="22.671887,26.429714"
       orientation="0,-0.328125"
       id="guide4299" />
  </sodipodi:namedview>
  <metadata
     id="metadata5458">
    <rdf:RDF>
      <cc:Work
         rdf:about="">
        <dc:format>image/svg+xml</dc:format>
        <dc:type
           rdf:resource="http://purl.org/dc/dcmitype/StillImage" />
        <dc:title />
      </cc:Work>
    </rdf:RDF>
  </metadata>
  <g
     inkscape:label="Capa 1"
     inkscape:groupmode="layer"
     id="layer1"
     transform="translate(-384.57143,-499.798)">
    <rect
       style="fill:url(#linearGradient861);fill-opacity:1;stroke:none"
       id="rect2991-1"
       width="48"
       height="48"
       x="384.57144"
       y="-547.79797"
       ry="1.9445436"
       transform="scale(1,-1)" />
    <path
       style="fill:url(#linearGradient4257);fill-opacity:1;stroke:none"
       d="M 20.375 0 L 20.375 24 L 20.375 24.224609 L 20.398438 24.224609 C 20.515936 26.125248 22.068756 27.625 24 27.625 C 25.931244 27.625 27.484061 26.125248 27.601562 24.224609 L 27.625 24.224609 L 27.625 24 L 27.625 0 L 20.375 0 z M 26.246094 8.625 C 26.471156 8.625 26.652344 8.8061875 26.652344 9.03125 L 26.652344 24 L 26.652344 24.03125 C 26.652344 24.03475 26.650491 24.037516 26.650391 24.041016 C 26.629491 25.415499 25.374642 26.65185 24 26.652344 C 22.624074 26.65182 21.368505 25.412905 21.349609 24.037109 C 21.349577 24.035009 21.347656 24.03345 21.347656 24.03125 L 21.347656 24 L 21.347656 12.78125 C 21.347656 12.556187 21.528844 12.375 21.753906 12.375 C 21.978969 12.375 22.160156 12.556187 22.160156 12.78125 L 22.160156 21.347656 C 22.160156 21.734356 22.845703 21.734356 22.845703 21.347656 L 22.845703 17.78125 C 22.845703 17.556187 23.026891 17.375 23.251953 17.375 C 23.477016 17.375 23.658203 17.556187 23.658203 17.78125 L 23.658203 21.347656 C 23.658203 21.734356 24.341797 21.734356 24.341797 21.347656 L 24.341797 19.53125 C 24.341797 19.306187 24.522984 19.125 24.748047 19.125 C 24.973109 19.125 25.154297 19.306187 25.154297 19.53125 L 25.154297 21.347656 C 25.154297 21.734356 25.839844 21.734356 25.839844 21.347656 L 25.839844 9.03125 C 25.839844 8.8061875 26.021031 8.625 26.246094 8.625 z "
       transform="translate(384.57143,499.798)"
       id="rect4248" />
    <path
       inkscape:connector-curvature="0"
       style="fill:#000000;fill-opacity:0.39215686;stroke:none"
       d="m 386.50893,499.7981 c -1.07728,0 -1.9375,0.8602 -1.9375,1.9375 l 0,43.0624 c 0,0.7934 0.48002,1.449 1.15625,1.75 -0.30934,-0.3333 -0.5,-0.7824 -0.5,-1.2812 l 0,-42.9374 c 0,-1.0482 0.8269,-1.875 1.875,-1.875 l 42.9375,0 c 1.0481,0 1.875,0.8268 1.875,1.875 l 0,42.9374 c 0,0.4988 -0.19066,0.9479 -0.5,1.2812 0.67623,-0.301 1.15625,-0.9566 1.15625,-1.75 l 0,-43.0624 c 0,-1.0773 -0.86022,-1.9375 -1.9375,-1.9375 l -44.125,0 z"
       id="rect4280-7" />
    <path
       style="fill:#0dffe1;fill-opacity:0.12169312;stroke:none"
       d="M 24 37 C 15.503558 37 8.0713688 41.374833 3.8085938 48 L 44.191406 48 C 39.928631 41.374833 32.496442 37 24 37 z "
       transform="translate(384.57143,499.798)"
       id="rect5187" />
    <path
       style="opacity:0.3;fill:url(#linearGradient4098);fill-opacity:1;stroke:none"
       d="M 24 39 C 16.684161 39 10.227938 42.537665 6.2324219 48 L 41.767578 48 C 37.772062 42.537665 31.315839 39 24 39 z "
       transform="translate(384.57143,499.798)"
       id="rect4096" />
    <path
       style="fill:url(#linearGradient4092);fill-opacity:1;stroke:none;opacity:0.15"
       d="M 24 39.5 C 16.988742 39.5 10.800829 42.837114 6.8808594 48 L 41.119141 48 C 37.199171 42.837114 31.011258 39.5 24 39.5 z "
       transform="translate(384.57143,499.798)"
       id="rect4090" />
    <path
       style="fill:#0dffe1;fill-opacity:0.23529412;stroke:none;opacity:1"
       d="M 24 37 C 15.503558 37 8.0713688 41.374833 3.8085938 48 L 4.1054688 48 C 8.3376407 41.519439 15.649837 37.25 24 37.25 C 32.350163 37.25 39.662359 41.519439 43.894531 48 L 44.191406 48 C 39.928631 41.374833 32.496442 37 24 37 z "
       transform="translate(384.57143,499.798)"
       id="path5207" />
    <path
       style="opacity:1;fill:#0dffe1;fill-opacity:0.11764706;stroke:none"
       d="M 24 37.25 C 15.649837 37.25 8.3376407 41.519439 4.1054688 48 L 4.3984375 48 C 8.5995342 41.662329 15.794601 37.498047 24 37.498047 C 32.205399 37.498047 39.400466 41.662329 43.601562 48 L 43.894531 48 C 39.662359 41.519439 32.350163 37.25 24 37.25 z "
       transform="translate(384.57143,499.798)"
       id="path5218" />
    <path
       style="fill:#0dffe1;fill-opacity:0.05882353;stroke:none"
       d="M 24 37.5 C 15.796485 37.5 8.6031894 41.664294 4.4023438 48 L 4.6933594 48 C 8.8626386 41.805401 15.93969 37.744141 24 37.744141 C 32.06031 37.744141 39.137361 41.805401 43.306641 48 L 43.597656 48 C 39.396811 41.664294 32.203515 37.5 24 37.5 z "
       transform="translate(384.57143,499.798)"
       id="path4088" />
    <path
       style="fill:url(#linearGradient5171);fill-opacity:1;stroke:none"
       d="M 24 40 C 17.287828 40 11.343071 43.127907 7.5039062 48 L 40.496094 48 C 36.656929 43.127907 30.712172 40 24 40 z "
       transform="translate(384.57143,499.798)"
       id="rect5163" />
    <circle
       style="fill:url(#linearGradient4238);fill-opacity:1;stroke:none"
       id="path4228"
       cx="408.57144"
       cy="523.79797"
       r="1.6516504" />
    <path
       inkscape:connector-curvature="0"
       style="fill:#000000;fill-opacity:1;stroke:none"
       d="m 384.57143,544.798 0,1.0625 c 0,1.0773 0.86022,1.9375 1.9375,1.9375 l 44.125,0 c 1.07728,0 1.9375,-0.8602 1.9375,-1.9375 l 0,-1.0625 c 0,1.0773 -0.86022,1.9375 -1.9375,1.9375 l -44.125,0 c -1.07728,0 -1.9375,-0.8602 -1.9375,-1.9375 z"
       id="rect846-4" />
    <path
       inkscape:connector-curvature="0"
       style="fill:#ffffff;fill-opacity:0.5372549;stroke:none"
       d="m 387.10268,500.4544 c -0.91709,0 -1.67115,0.6395 -1.84375,1.5 0.33561,-0.2799 0.77451,-0.4375 1.25,-0.4375 l 44.125,0 c 0.47549,0 0.91439,0.1576 1.25,0.4375 -0.1726,-0.8605 -0.92666,-1.5 -1.84375,-1.5 l -42.9375,0 z"
       id="path7515-3" />
  </g>
</svg>
