<?xml version="1.0" encoding="UTF-8" standalone="no"?>
<svg
   xmlns:dc="http://purl.org/dc/elements/1.1/"
   xmlns:cc="http://creativecommons.org/ns#"
   xmlns:rdf="http://www.w3.org/1999/02/22-rdf-syntax-ns#"
   xmlns:svg="http://www.w3.org/2000/svg"
   xmlns="http://www.w3.org/2000/svg"
   xmlns:xlink="http://www.w3.org/1999/xlink"
   xmlns:sodipodi="http://sodipodi.sourceforge.net/DTD/sodipodi-0.dtd"
   xmlns:inkscape="http://www.inkscape.org/namespaces/inkscape"
   width="48"
   viewBox="0 0 13.546667 13.546667"
   height="48"
   id="svg2"
   version="1.1"
   inkscape:version="0.48+devel r"
   sodipodi:docname="chrome-dkfhfaphfkopdgpbfkebjfcblcafcmpi-Default.svg">
  <metadata
     id="metadata26">
    <rdf:RDF>
      <cc:Work
         rdf:about="">
        <dc:format>image/svg+xml</dc:format>
        <dc:type
           rdf:resource="http://purl.org/dc/dcmitype/StillImage" />
      </cc:Work>
    </rdf:RDF>
  </metadata>
  <sodipodi:namedview
     pagecolor="#ffffff"
     bordercolor="#666666"
     borderopacity="1"
     objecttolerance="10"
     gridtolerance="10"
     guidetolerance="10"
     inkscape:pageopacity="0"
     inkscape:pageshadow="2"
     inkscape:window-width="1366"
     inkscape:window-height="666"
     id="namedview24"
     showgrid="false"
     inkscape:zoom="9.2135214"
     inkscape:cx="25.671234"
     inkscape:cy="25.590286"
     inkscape:window-x="-2"
     inkscape:window-y="25"
     inkscape:window-maximized="1"
     inkscape:current-layer="svg2" />
  <defs
     id="defs4">
    <linearGradient
       inkscape:collect="always"
       id="linearGradient4235">
      <stop
         style="stop-color:#c8f0ee;stop-opacity:1"
         offset="0"
         id="stop4237" />
      <stop
         style="stop-color:#f7fdfd;stop-opacity:1"
         offset="1"
         id="stop4239" />
    </linearGradient>
    <linearGradient
       id="linearGradient4716"
       inkscape:collect="always">
      <stop
         id="stop4718"
         offset="0"
         style="stop-color:#4accc7;stop-opacity:1;" />
      <stop
         id="stop4720"
         offset="1"
         style="stop-color:#7cdad7;stop-opacity:1" />
    </linearGradient>
    <linearGradient
       gradientUnits="userSpaceOnUse"
       y2="-499.79349"
       x2="411.46689"
       y1="-547.82697"
       x1="411.46689"
       id="linearGradient4651"
       xlink:href="#linearGradient4716"
       inkscape:collect="always"
       gradientTransform="matrix(0.28222223,0,0,0.28222223,-108.53461,141.0541)" />
    <linearGradient
       inkscape:collect="always"
       xlink:href="#linearGradient4235"
       id="linearGradient4227"
       x1="7.3821459"
       y1="11.126794"
       x2="7.3821459"
       y2="2.488764"
       gradientUnits="userSpaceOnUse" />
  </defs>
  <rect
     style="fill:url(#linearGradient4651);fill-opacity:1;stroke:none"
     id="rect2991-1-7"
     width="13.546667"
     height="13.546667"
     x="1.5632629e-06"
     y="-13.546664"
     ry="0.54879344"
     transform="scale(1,-1)" />
  <path
     style="fill:#000000;fill-opacity:0.05882353"
     inkscape:connector-curvature="0"
     id="path4225"
     d="m 7.8598889,2.7657775 c -1.1071458,0 -2.0556074,0.6684498 -2.4787049,1.6185151 C 5.2140319,4.2793882 5.0271769,4.2145184 4.8152696,4.2145184 c -0.6000901,0 -1.0865555,0.4864675 -1.0865555,1.0865555 0,0.1814456 0.04586,0.3476413 0.1245014,0.4980045 -0.8320914,0.3046691 -1.4261043,1.0996545 -1.4261043,2.0372918 0,1.2001763 0.9729309,2.1731118 2.1731111,2.1731118 l 0.3621851,0 0,1.448738 1.4487409,-1.448738 2.8974815,0 c 1.0001452,0 1.8109262,-0.8107796 1.8109262,-1.8109267 0,-0.6342818 -0.332555,-1.1931963 -0.826235,-1.5166505 0.180031,-0.3631189 0.282957,-0.7669695 0.282957,-1.1997383 0,-1.50022 -1.2161712,-2.716389 -2.716389,-2.716389 z M 5.381184,5.6632591 c 0.063256,3.2e-6 0.1641821,-0.00371 0.3055937,0 l 0.316912,0 0.7696436,1.663788 0.7583253,-1.663788 0.6111875,0 c 0.1228021,3.2e-6 0.2119399,0.023109 0.2603205,0.056591 0.074422,0.063262 0.1131836,0.137062 0.1131836,0.2263657 -7.3e-6,0.1674513 -0.1007814,0.2643546 -0.2942755,0.2829572 l 0,2.1391563 c 0.2269815,2e-7 0.3395414,0.085584 0.3395486,0.2716388 -7.2e-6,0.1004696 -0.046526,0.1894653 -0.1358194,0.2490023 -0.044661,0.026046 -0.1147262,0.033954 -0.2263658,0.033954 l -0.7243704,0 c -0.2455977,0 -0.3735071,-0.096903 -0.3735035,-0.2829572 -3.6e-6,-0.1079117 0.046526,-0.1855892 0.1358194,-0.237684 0.040913,-0.026046 0.1223352,-0.033953 0.2376841,-0.033954 l 0.1924108,0 0,-1.618515 -0.6225057,1.4034675 -0.509323,0 -0.6564605,-1.4034675 0,1.618515 0.1924108,0 c 0.1190792,3e-7 0.2082239,0.011794 0.2603206,0.045274 0.074422,0.055815 0.1131425,0.1296182 0.1131835,0.2263656 -3.6e-6,0.1004696 -0.04653,0.1894653 -0.1358195,0.2490024 -0.044661,0.026046 -0.1260439,0.033954 -0.237684,0.033954 l -0.713052,0 c -0.1227881,0 -0.2119509,-0.019386 -0.2603206,-0.056591 -0.078131,-0.055815 -0.1131836,-0.1333388 -0.1131836,-0.2263657 0,-0.1860538 0.1125522,-0.2716385 0.3395487,-0.2716388 l 0,-2.1391563 C 5.1310915,6.210564 5.0303171,6.1173885 5.0303171,5.9462162 c 0,-0.1004645 0.046526,-0.1894612 0.1358194,-0.2490023 0.044661,-0.026045 0.1182938,-0.033949 0.2150475,-0.033955 z" />
  <path
     d="m 7.8598889,2.6528887 c -1.1071458,0 -2.0556074,0.6684498 -2.4787049,1.6185151 C 5.2140319,4.1664994 5.0271769,4.1016296 4.8152696,4.1016296 c -0.6000901,0 -1.0865555,0.4864675 -1.0865555,1.0865555 0,0.1814456 0.04586,0.3476413 0.1245014,0.4980045 -0.8320914,0.3046691 -1.4261043,1.0996545 -1.4261043,2.0372918 0,1.2001763 0.9729309,2.1731113 2.1731111,2.1731113 l 0.3621851,0 0,1.4487393 1.4487409,-1.4487393 2.8974815,0 c 1.0001452,0 1.8109262,-0.8107791 1.8109262,-1.8109262 0,-0.6342818 -0.332555,-1.1931963 -0.826235,-1.5166505 0.180031,-0.3631189 0.282957,-0.7669695 0.282957,-1.1997383 0,-1.50022 -1.2161712,-2.716389 -2.716389,-2.716389 z M 5.381184,5.5503703 c 0.063256,3.2e-6 0.1641821,-0.00371 0.3055937,0 l 0.316912,0 0.7696436,1.663788 0.7583253,-1.663788 0.6111875,0 c 0.1228021,3.2e-6 0.2119399,0.023109 0.2603205,0.056591 0.074422,0.063262 0.1131836,0.137062 0.1131836,0.2263657 -7.3e-6,0.1674513 -0.1007814,0.2643546 -0.2942755,0.2829572 l 0,2.1391563 c 0.2269815,2e-7 0.3395414,0.085584 0.3395486,0.2716388 -7.2e-6,0.1004696 -0.046526,0.1894653 -0.1358194,0.2490023 -0.044661,0.026046 -0.1147262,0.033954 -0.2263658,0.033954 l -0.7243704,0 c -0.2455977,0 -0.3735071,-0.096903 -0.3735035,-0.2829572 -3.6e-6,-0.1079117 0.046526,-0.1855892 0.1358194,-0.237684 0.040913,-0.026046 0.1223352,-0.033953 0.2376841,-0.033954 l 0.1924108,0 0,-1.618515 -0.6225057,1.4034675 -0.509323,0 -0.6564605,-1.4034675 0,1.618515 0.1924108,0 c 0.1190792,3e-7 0.2082239,0.011794 0.2603206,0.045274 0.074422,0.055815 0.1131425,0.1296182 0.1131835,0.2263656 -3.6e-6,0.1004696 -0.04653,0.1894653 -0.1358195,0.2490024 -0.044661,0.026046 -0.1260439,0.033954 -0.237684,0.033954 l -0.713052,0 c -0.1227881,0 -0.2119509,-0.019386 -0.2603206,-0.056591 -0.078131,-0.055815 -0.1131836,-0.1333388 -0.1131836,-0.2263657 0,-0.1860538 0.1125522,-0.2716385 0.3395487,-0.2716388 l 0,-2.1391563 C 5.1310915,6.0976752 5.0303171,6.0044997 5.0303171,5.8333274 c 0,-0.1004645 0.046526,-0.1894612 0.1358194,-0.2490023 0.044661,-0.026045 0.1182938,-0.033949 0.2150475,-0.033955 z"
     id="path4223"
     inkscape:connector-curvature="0"
     style="fill:#000000;fill-opacity:0.11764706" />
  <path
     style="fill:#000000;fill-opacity:0.23529412"
     inkscape:connector-curvature="0"
     id="path4221"
     d="m 7.8598889,2.5399999 c -1.1071458,0 -2.0556074,0.6684498 -2.4787049,1.6185151 C 5.2140319,4.0536106 5.0271769,3.9887408 4.8152696,3.9887408 c -0.6000901,0 -1.0865555,0.4864675 -1.0865555,1.0865555 0,0.1814456 0.04586,0.3476413 0.1245014,0.4980045 -0.8320914,0.3046691 -1.4261043,1.0996545 -1.4261043,2.0372918 0,1.2001763 0.9729309,2.1731113 2.1731111,2.1731113 l 0.3621851,0 0,1.4487401 1.4487409,-1.4487401 2.8974815,0 c 1.0001452,0 1.8109262,-0.8107791 1.8109262,-1.8109262 0,-0.6342818 -0.332555,-1.1931963 -0.826235,-1.5166505 0.180031,-0.3631189 0.282957,-0.7669695 0.282957,-1.1997383 0,-1.50022 -1.2161712,-2.716389 -2.716389,-2.716389 z M 5.381184,5.4374815 c 0.063256,3.2e-6 0.1641821,-0.00371 0.3055937,0 l 0.316912,0 0.7696436,1.663788 0.7583253,-1.663788 0.6111875,0 c 0.1228021,3.2e-6 0.2119399,0.023109 0.2603205,0.056591 0.074422,0.063262 0.1131836,0.137062 0.1131836,0.2263657 -7.3e-6,0.1674513 -0.1007814,0.2643546 -0.2942755,0.2829572 l 0,2.1391563 c 0.2269815,2e-7 0.3395414,0.085584 0.3395486,0.2716388 -7.2e-6,0.1004696 -0.046526,0.1894653 -0.1358194,0.2490023 -0.044661,0.026046 -0.1147262,0.033954 -0.2263658,0.033954 l -0.7243704,0 c -0.2455977,0 -0.3735071,-0.096903 -0.3735035,-0.2829572 -3.6e-6,-0.1079117 0.046526,-0.1855892 0.1358194,-0.237684 0.040913,-0.026046 0.1223352,-0.033953 0.2376841,-0.033954 l 0.1924108,0 0,-1.618515 -0.6225057,1.4034675 -0.509323,0 -0.6564605,-1.4034675 0,1.618515 0.1924108,0 c 0.1190792,3e-7 0.2082239,0.011794 0.2603206,0.045274 0.074422,0.055815 0.1131425,0.1296182 0.1131835,0.2263656 -3.6e-6,0.1004696 -0.04653,0.1894653 -0.1358195,0.2490024 -0.044661,0.026046 -0.1260439,0.033954 -0.237684,0.033954 l -0.713052,0 c -0.1227881,0 -0.2119509,-0.019386 -0.2603206,-0.056591 -0.078131,-0.055815 -0.1131836,-0.1333388 -0.1131836,-0.2263657 0,-0.1860538 0.1125522,-0.2716385 0.3395487,-0.2716388 l 0,-2.1391563 C 5.1310915,5.9847864 5.0303171,5.8916109 5.0303171,5.7204386 c 0,-0.1004645 0.046526,-0.1894612 0.1358194,-0.2490023 0.044661,-0.026045 0.1182938,-0.033949 0.2150475,-0.033955 z" />
  <path
     inkscape:connector-curvature="0"
     style="fill:#000000;fill-opacity:1;stroke:none"
     d="m -1.662262e-6,12.700004 0,0.299861 c 0,0.304038 0.242773002262,0.546805 0.546805002262,0.546805 l 12.45305566,0 c 0.304033,0 0.546806,-0.242767 0.546806,-0.546805 l 0,-0.299861 c 0,0.304038 -0.242773,0.546805 -0.546806,0.546805 l -12.45305566,0 c -0.304032,0 -0.546805002262,-0.242767 -0.546805002262,-0.546805 z"
     id="rect846" />
  <path
     inkscape:connector-curvature="0"
     style="fill:#ffffff;fill-opacity:0.5372549;stroke:none"
     d="m 0.71437334,0.18522522 c -0.258824,0 -0.471636,0.1804812 -0.520348,0.4233334 0.09472,-0.078994 0.218584,-0.1234722 0.352778,-0.1234722 l 12.45305566,0 c 0.134194,0 0.258062,0.044478 0.352778,0.1234722 -0.04871,-0.2428522 -0.261524,-0.4233334 -0.520347,-0.4233334 l -12.11791666,0 z"
     id="path7515" />
  <path
     inkscape:connector-curvature="0"
     style="fill:#000000;fill-opacity:0.39215686;stroke:none"
     d="M 0.54680334,2.8162354e-6 C 0.24277134,2.8162354e-6 -1.662262e-6,0.24277032 -1.662262e-6,0.54680842 l 0,12.15319558 c 0,0.223915 0.135472002262,0.40894 0.326319002262,0.493889 -0.0873,-0.09407 -0.141111,-0.220811 -0.141111,-0.361584 l 0,-12.11791708 c 0,-0.2958253 0.233369,-0.5291667 0.529167,-0.5291667 l 12.11791666,0 c 0.295797,0 0.529167,0.2333414 0.529167,0.5291667 l 0,12.11791708 c 0,0.140773 -0.05381,0.267519 -0.141111,0.361584 0.190847,-0.08495 0.326319,-0.269974 0.326319,-0.493889 l 0,-12.15319558 c 0,-0.3040381 -0.242773,-0.5468056037646 -0.546806,-0.5468056037646 l -12.45305566,0 z"
     id="rect4280" />
  <path
     d="m 7.8598889,2.4271111 c -1.1071458,0 -2.0556074,0.6684498 -2.4787049,1.6185151 C 5.2140319,3.9407218 5.0271769,3.875852 4.8152696,3.875852 c -0.6000901,0 -1.0865555,0.4864675 -1.0865555,1.0865555 0,0.1814456 0.04586,0.3476413 0.1245014,0.4980045 -0.8320914,0.3046691 -1.4261043,1.0996545 -1.4261043,2.0372918 0,1.2001763 0.9729309,2.1731113 2.1731111,2.1731113 l 0.3621851,0 0,1.4487409 1.4487409,-1.4487409 2.8974815,0 c 1.0001452,0 1.8109262,-0.8107791 1.8109262,-1.8109262 0,-0.6342818 -0.332555,-1.1931963 -0.826235,-1.5166505 0.180031,-0.3631189 0.282957,-0.7669695 0.282957,-1.1997383 0,-1.50022 -1.2161712,-2.716389 -2.716389,-2.716389 z M 5.381184,5.3245927 c 0.063256,3.2e-6 0.1641821,-0.00371 0.3055937,0 l 0.316912,0 0.7696436,1.663788 0.7583253,-1.663788 0.6111875,0 c 0.1228021,3.2e-6 0.2119399,0.023109 0.2603205,0.056591 0.074422,0.063262 0.1131836,0.137062 0.1131836,0.2263657 -7.3e-6,0.1674513 -0.1007814,0.2643546 -0.2942755,0.2829572 l 0,2.1391563 c 0.2269815,2e-7 0.3395414,0.085584 0.3395486,0.2716388 C 8.5616161,8.4017713 8.5150973,8.490767 8.4258039,8.550304 8.3811429,8.57635 8.3110777,8.584258 8.1994381,8.584258 l -0.7243704,0 c -0.2455977,0 -0.3735071,-0.096903 -0.3735035,-0.2829572 -3.6e-6,-0.1079117 0.046526,-0.1855892 0.1358194,-0.237684 0.040913,-0.026046 0.1223352,-0.033953 0.2376841,-0.033954 l 0.1924108,0 0,-1.618515 -0.6225057,1.4034675 -0.509323,0 -0.6564605,-1.4034675 0,1.618515 0.1924108,0 c 0.1190792,3e-7 0.2082239,0.011794 0.2603206,0.045274 0.074422,0.055815 0.1131425,0.1296182 0.1131835,0.2263656 -3.6e-6,0.1004696 -0.04653,0.1894653 -0.1358195,0.2490024 -0.044661,0.026046 -0.1260439,0.033954 -0.237684,0.033954 l -0.713052,0 c -0.1227881,0 -0.2119509,-0.019386 -0.2603206,-0.056591 C 5.0200971,8.4718528 4.9850445,8.394329 4.9850445,8.3013021 c 0,-0.1860538 0.1125522,-0.2716385 0.3395487,-0.2716388 l 0,-2.1391563 C 5.1310915,5.8718976 5.0303171,5.7787221 5.0303171,5.6075498 c 0,-0.1004645 0.046526,-0.1894612 0.1358194,-0.2490023 0.044661,-0.026045 0.1182938,-0.033949 0.2150475,-0.033955 z"
     id="path18"
     inkscape:connector-curvature="0"
     style="fill:url(#linearGradient4227);fill-opacity:1" />
  <text
     x="-150.15"
     y="28.15"
     transform="scale(0.28222223,0.28222223)"
     font-family="Sans"
     word-spacing="0"
     line-height="125%"
     letter-spacing="0"
     font-size="40"
     id="text20">
    <tspan
       id="tspan22" />
  </text>
  <path
     style="fill:#4dcdc8;fill-opacity:0.3137255"
     d="M 13.244141 17.267578 C 13.235393 17.373486 13.212891 17.475818 13.212891 17.583984 C 13.212891 17.966789 13.275424 18.327819 13.380859 18.671875 C 13.473238 18.633903 13.558204 18.583297 13.652344 18.548828 C 13.445157 18.152685 13.303847 17.724901 13.244141 17.267578 z M 37.453125 17.791016 C 37.399451 19.184934 37.058966 20.493206 36.472656 21.675781 C 36.563436 21.735259 36.644802 21.807201 36.732422 21.871094 C 37.200567 20.744242 37.474609 19.524112 37.474609 18.224609 C 37.474609 18.078269 37.459588 17.935762 37.453125 17.791016 z M 19.066406 18.066406 C 18.723578 18.066428 18.462935 18.095215 18.304688 18.1875 C 17.988294 18.398472 17.824219 18.712383 17.824219 19.068359 C 17.824219 19.228205 17.853263 19.366604 17.902344 19.488281 C 17.978776 19.292137 18.108291 19.117286 18.304688 18.986328 C 18.462935 18.894043 18.723578 18.867209 19.066406 18.867188 C 19.290542 18.867199 19.649326 18.854042 20.150391 18.867188 L 21.273438 18.867188 L 24 24.761719 L 26.6875 18.867188 L 28.853516 18.867188 C 29.288641 18.867199 29.603963 18.947769 29.775391 19.066406 C 29.924995 19.193577 30.02749 19.335815 30.09375 19.490234 C 30.145093 19.367156 30.175774 19.228308 30.175781 19.068359 C 30.175781 18.751929 30.039091 18.491735 29.775391 18.267578 C 29.603963 18.148941 29.288641 18.066418 28.853516 18.066406 L 26.6875 18.066406 L 24 23.962891 L 21.273438 18.066406 L 20.150391 18.066406 C 19.649326 18.053261 19.290542 18.066418 19.066406 18.066406 z M 8.625 26.248047 C 8.620555 26.355418 8.5996094 26.457914 8.5996094 26.566406 C 8.5996094 30.818999 12.048174 34.267578 16.300781 34.267578 L 17.583984 34.267578 L 17.583984 33.466797 L 16.300781 33.466797 C 12.210423 33.466797 8.8743199 30.275596 8.625 26.248047 z M 39.376953 27.503906 C 39.143611 30.835452 36.373302 33.466797 32.982422 33.466797 L 22.716797 33.466797 L 17.583984 38.599609 L 17.583984 39.400391 L 22.716797 34.267578 L 32.982422 34.267578 C 36.526243 34.267578 39.400391 31.393438 39.400391 27.849609 C 39.400391 27.73232 39.383285 27.61966 39.376953 27.503906 z M 18.867188 27.652344 C 18.062869 27.652345 17.664062 27.954036 17.664062 28.613281 C 17.664062 28.751605 17.690483 28.878742 17.736328 28.996094 C 17.88387 28.626935 18.259337 28.451173 18.867188 28.451172 L 18.867188 27.652344 z M 20.832031 27.652344 L 20.832031 28.451172 L 21.513672 28.451172 C 21.935606 28.451173 22.250952 28.492698 22.435547 28.611328 C 22.583792 28.722509 22.687495 28.857131 22.753906 29.011719 C 22.804859 28.887377 22.837886 28.754359 22.837891 28.613281 C 22.837745 28.270476 22.699247 28.01027 22.435547 27.8125 C 22.250952 27.69387 21.935606 27.652345 21.513672 27.652344 L 20.832031 27.652344 z M 26.486328 27.652344 C 26.077612 27.652347 25.789499 27.679195 25.644531 27.771484 C 25.328137 27.956072 25.162097 28.230917 25.162109 28.613281 C 25.162106 28.768424 25.192461 28.903642 25.242188 29.023438 C 25.318998 28.837251 25.449755 28.6859 25.644531 28.572266 C 25.789499 28.479977 26.077612 28.451175 26.486328 28.451172 L 27.167969 28.451172 L 27.167969 27.652344 L 26.486328 27.652344 z M 29.132812 27.652344 L 29.132812 28.451172 C 29.736011 28.451172 30.111836 28.622918 30.261719 28.986328 C 30.30622 28.868925 30.335928 28.745057 30.335938 28.613281 C 30.335912 27.954032 29.937078 27.652344 29.132812 27.652344 z "
     transform="scale(0.28222223,0.28222223)"
     id="path4244" />
  <path
     style="fill:#ffffff;fill-opacity:0.23529412"
     d="M 27.849609 8.5996094 C 23.926652 8.5996094 20.565571 10.967611 19.066406 14.333984 C 18.474135 13.962276 17.813353 13.732422 17.0625 13.732422 C 14.936197 13.732422 13.212891 15.457688 13.212891 17.583984 C 13.212891 17.668024 13.223066 17.74789 13.228516 17.830078 C 13.310338 15.776082 14.988426 14.132812 17.0625 14.132812 C 17.813353 14.132812 18.474135 14.362667 19.066406 14.734375 C 20.565571 11.368002 23.926652 9 27.849609 9 C 33.092155 9 37.346483 13.1936 37.462891 18.408203 C 37.464087 18.346287 37.474609 18.286866 37.474609 18.224609 C 37.474609 12.908869 33.165342 8.5996094 27.849609 8.5996094 z M 13.501953 19.416016 C 10.635433 20.536443 8.5996094 23.302822 8.5996094 26.566406 C 8.5996094 26.647513 8.6088384 26.726138 8.6113281 26.806641 C 8.6788718 23.555394 10.752322 20.809886 13.652344 19.748047 C 13.595938 19.640199 13.548455 19.528444 13.501953 19.416016 z M 30.148438 20.035156 C 30.082074 20.519795 29.747027 20.812043 29.132812 20.871094 L 29.132812 21.271484 C 29.818421 21.20557 30.175755 20.862863 30.175781 20.269531 C 30.175781 20.18821 30.166393 20.10952 30.148438 20.035156 z M 17.851562 20.039062 C 17.835254 20.113826 17.824219 20.19 17.824219 20.269531 C 17.824219 20.876047 18.181552 21.205546 18.867188 21.271484 L 18.867188 20.871094 C 18.253555 20.81208 17.918403 20.530054 17.851562 20.039062 z M 36.603516 22.574219 C 36.558029 22.674139 36.52137 22.778698 36.472656 22.876953 C 38.176122 23.993047 39.328996 25.901548 39.388672 28.076172 C 39.391325 28.000348 39.400391 27.92608 39.400391 27.849609 C 39.400391 25.660839 38.277659 23.732446 36.603516 22.574219 z M 20.832031 22.716797 L 20.832031 23.117188 L 23.158203 28.089844 L 24.962891 28.089844 L 27.167969 23.117188 L 27.167969 22.716797 L 24.962891 27.689453 L 23.158203 27.689453 L 20.832031 22.716797 z M 25.191406 29.5625 C 25.173312 29.640847 25.162106 29.724449 25.162109 29.814453 C 25.162097 30.4737 25.6161 30.816406 26.486328 30.816406 L 29.052734 30.816406 C 29.448308 30.816406 29.697221 30.789555 29.855469 30.697266 C 30.171863 30.486308 30.335912 30.170448 30.335938 29.814453 C 30.335935 29.753771 30.315359 29.710941 30.308594 29.65625 C 30.249907 29.911347 30.097564 30.135456 29.855469 30.296875 C 29.697221 30.389164 29.448308 30.416016 29.052734 30.416016 L 26.486328 30.416016 C 25.690246 30.416016 25.261807 30.116152 25.191406 29.5625 z M 22.814453 29.607422 C 22.764597 29.88246 22.612528 30.125471 22.355469 30.296875 C 22.197221 30.389164 21.909247 30.416016 21.513672 30.416016 L 18.986328 30.416016 C 18.551252 30.416016 18.235842 30.348626 18.064453 30.216797 C 17.860028 30.07076 17.740824 29.881224 17.691406 29.660156 C 17.684964 29.713675 17.664062 29.755226 17.664062 29.814453 C 17.664063 30.144076 17.787611 30.417465 18.064453 30.615234 C 18.235842 30.747063 18.551252 30.816406 18.986328 30.816406 L 21.513672 30.816406 C 21.909247 30.816406 22.197221 30.789555 22.355469 30.697266 C 22.671849 30.486307 22.837878 30.170448 22.837891 29.814453 C 22.83786 29.74119 22.826901 29.67343 22.814453 29.607422 z "
     transform="scale(0.28222223,0.28222223)"
     id="path4249" />
</svg>
