<?xml version="1.0" encoding="UTF-8" standalone="no"?>
<svg
   xmlns:dc="http://purl.org/dc/elements/1.1/"
   xmlns:cc="http://creativecommons.org/ns#"
   xmlns:rdf="http://www.w3.org/1999/02/22-rdf-syntax-ns#"
   xmlns:svg="http://www.w3.org/2000/svg"
   xmlns="http://www.w3.org/2000/svg"
   xmlns:xlink="http://www.w3.org/1999/xlink"
   xmlns:sodipodi="http://sodipodi.sourceforge.net/DTD/sodipodi-0.dtd"
   xmlns:inkscape="http://www.inkscape.org/namespaces/inkscape"
   width="48"
   viewBox="0 0 13.546667 13.546667"
   height="48"
   id="svg2"
   version="1.1"
   inkscape:version="0.48+devel r"
   sodipodi:docname="chrome-efdcneeepllhjlbejkfnaolelbpdacai-Default.svg">
  <metadata
     id="metadata24">
    <rdf:RDF>
      <cc:Work
         rdf:about="">
        <dc:format>image/svg+xml</dc:format>
        <dc:type
           rdf:resource="http://purl.org/dc/dcmitype/StillImage" />
        <dc:title></dc:title>
      </cc:Work>
    </rdf:RDF>
  </metadata>
  <sodipodi:namedview
     pagecolor="#ffffff"
     bordercolor="#666666"
     borderopacity="1"
     objecttolerance="10"
     gridtolerance="10"
     guidetolerance="10"
     inkscape:pageopacity="0"
     inkscape:pageshadow="2"
     inkscape:window-width="1366"
     inkscape:window-height="666"
     id="namedview22"
     showgrid="false"
     inkscape:showpageshadow="false"
     borderlayer="true"
     inkscape:zoom="6.5149434"
     inkscape:cx="5.830494"
     inkscape:cy="18.696262"
     inkscape:window-x="-2"
     inkscape:window-y="25"
     inkscape:window-maximized="1"
     inkscape:current-layer="svg2" />
  <defs
     id="defs4">
    <linearGradient
       id="linearGradient1010">
      <stop
         style="stop-color:#1a1a1a;stop-opacity:1"
         offset="0"
         id="stop1012" />
      <stop
         id="stop1016"
         offset="0.87394208"
         style="stop-color:#868686;stop-opacity:1" />
      <stop
         style="stop-color:#ffffff;stop-opacity:1"
         offset="0.8868947"
         id="stop1018" />
      <stop
         id="stop1020"
         offset="0.99013621"
         style="stop-color:#b0b0b0;stop-opacity:1" />
      <stop
         style="stop-color:#6a6a6a;stop-opacity:1"
         offset="1"
         id="stop1014" />
    </linearGradient>
    <linearGradient
       id="linearGradient3698-2">
      <stop
         style="stop-color:#b3b3b3;stop-opacity:1"
         offset="0"
         id="stop3700-0" />
      <stop
         style="stop-color:#e6e6e6;stop-opacity:1"
         offset="1"
         id="stop3702-6" />
    </linearGradient>
    <linearGradient
       gradientUnits="userSpaceOnUse"
       y2="-1004.7372"
       x2="27.75"
       y1="-1052.3622"
       x1="27.75"
       id="linearGradient895"
       xlink:href="#linearGradient1359"
       inkscape:collect="always"
       gradientTransform="matrix(0.28222223,0,0,0.28222223,-1.9999999e-8,283.45334)" />
    <radialGradient
       gradientTransform="matrix(0.27163829,0,0,0.27163829,0.25401454,0.25399982)"
       gradientUnits="userSpaceOnUse"
       r="16"
       fy="24"
       fx="24"
       cy="24"
       cx="24"
       id="radialGradient923"
       xlink:href="#linearGradient1010"
       inkscape:collect="always" />
    <linearGradient
       gradientUnits="userSpaceOnUse"
       y2="20.531212"
       x2="15.455017"
       y1="24.457449"
       x1="15.455017"
       id="linearGradient933"
       xlink:href="#linearGradient3698-2"
       inkscape:collect="always"
       gradientTransform="matrix(0.04866318,0,0,0.04866318,6.0227646,5.672582)" />
    <linearGradient
       gradientUnits="userSpaceOnUse"
       y2="10.90625"
       x2="25.4375"
       y1="34.53125"
       x1="25.4375"
       id="linearGradient1001"
       xlink:href="#linearGradient1359"
       inkscape:collect="always"
       gradientTransform="matrix(0.31726782,0,0,0.31726782,-1.2475936,-0.45443442)" />
    <linearGradient
       gradientUnits="userSpaceOnUse"
       y2="1043.538"
       x2="31.497444"
       y1="1012.6483"
       x1="31.497444"
       id="linearGradient4166"
       xlink:href="#linearGradient26-7"
       inkscape:collect="always"
       gradientTransform="matrix(0.28222223,0,0,0.28222223,-1.9999999e-8,-283.45334)" />
    <linearGradient
       inkscape:collect="always"
       xlink:href="#linearGradient3698-2"
       id="linearGradient4307"
       gradientUnits="userSpaceOnUse"
       x1="15.455017"
       y1="24.457449"
       x2="15.455017"
       y2="20.531212"
       gradientTransform="matrix(0.28310065,0,0,0.28310065,-0.30952801,0.42488538)" />
    <linearGradient
       inkscape:collect="always"
       xlink:href="#linearGradient3698-2"
       id="linearGradient4309"
       gradientUnits="userSpaceOnUse"
       x1="15.455017"
       y1="24.457449"
       x2="15.455017"
       y2="20.531212"
       gradientTransform="matrix(0.28310065,0,0,0.28310065,5.123238,0.42488538)" />
    <linearGradient
       inkscape:collect="always"
       xlink:href="#linearGradient3698-2"
       id="linearGradient4311"
       gradientUnits="userSpaceOnUse"
       x1="15.455017"
       y1="24.457449"
       x2="15.455017"
       y2="20.531212"
       gradientTransform="matrix(0.28310065,0,0,0.28310065,2.4068549,-2.2914895)" />
    <linearGradient
       id="linearGradient1359"
       inkscape:collect="always">
      <stop
         id="stop1361"
         offset="0"
         style="stop-color:#1c3145;stop-opacity:1" />
      <stop
         id="stop1363"
         offset="1"
         style="stop-color:#364552;stop-opacity:1" />
    </linearGradient>
    <linearGradient
       id="linearGradient26-7"
       spreadMethod="pad"
       gradientTransform="matrix(-1.3107266e-6,29.876887,-29.876887,-1.3107266e-6,399.54619,508.86648)"
       gradientUnits="userSpaceOnUse"
       y2="0"
       x2="1"
       y1="0"
       x1="0">
      <stop
         id="stop28-0"
         offset="0"
         style="stop-opacity:1;stop-color:#47c4ed" />
      <stop
         id="stop30-2"
         offset="0.09019779"
         style="stop-opacity:1;stop-color:#47c4ed" />
      <stop
         id="stop32-6"
         offset="1"
         style="stop-opacity:1;stop-color:#498bc9" />
    </linearGradient>
  </defs>
  <rect
     style="fill:url(#linearGradient895);fill-opacity:1.0;stroke:none"
     id="rect2991-1"
     width="13.546667"
     height="13.546667"
     x="1.0479623e-08"
     y="-13.546662"
     ry="0.54879344"
     transform="scale(1,-1)" />
  <path
     id="path4180"
     d="m 6.7733338,2.7657777 c -2.4003472,0 -4.3462129,1.945894 -4.3462129,4.3462223 0,2.4003283 1.9458657,4.346222 4.3462129,4.346222 2.4003469,0 4.3462122,-1.9458937 4.3462122,-4.346222 0,-2.4003283 -1.9458653,-4.3462223 -4.3462122,-4.3462223 z m 0,0.543306 c 2.1003037,0 3.8029362,1.7026185 3.8029362,3.8029163 0,2.1002978 -1.7026325,3.802916 -3.8029362,3.802916 -2.1003041,0 -3.8029361,-1.7026182 -3.8029361,-3.802916 0,-2.1002978 1.702632,-3.8029163 3.8029361,-3.8029163 z"
     style="fill:#000000;fill-opacity:0.05882353;stroke:none"
     inkscape:connector-curvature="0" />
  <path
     inkscape:connector-curvature="0"
     style="fill:#000000;fill-opacity:0.11764706;stroke:none"
     d="m 6.7733338,2.6528888 c -2.4003472,0 -4.3462129,1.945894 -4.3462129,4.3462223 0,2.4003283 1.9458657,4.3462219 4.3462129,4.3462219 2.4003469,0 4.3462122,-1.9458936 4.3462122,-4.3462219 0,-2.4003283 -1.9458653,-4.3462223 -4.3462122,-4.3462223 z m 0,0.543306 c 2.1003037,0 3.8029362,1.7026185 3.8029362,3.8029163 0,2.1002979 -1.7026325,3.8029159 -3.8029362,3.8029159 -2.1003041,0 -3.8029361,-1.702618 -3.8029361,-3.8029159 0,-2.1002978 1.702632,-3.8029163 3.8029361,-3.8029163 z"
     id="path4176" />
  <path
     inkscape:connector-curvature="0"
     style="fill:#000000;fill-opacity:1;stroke:none"
     d="m -5.0479622e-8,12.7 0,0.299861 c 0,0.304038 0.242774020479622,0.546806 0.546805540479622,0.546806 l 12.45305551,0 c 0.304032,0 0.546806,-0.242768 0.546806,-0.546806 l 0,-0.299861 c 0,0.304038 -0.242774,0.546806 -0.546806,0.546806 l -12.45305551,0 C 0.24277397,13.246806 -5.0479622e-8,13.004038 -5.0479622e-8,12.7 Z"
     id="rect846" />
  <path
     inkscape:connector-curvature="0"
     style="fill:#ffffff;fill-opacity:0.5372549;stroke:none"
     d="m 0.71437494,0.18522226 c -0.25882273,0 -0.47163475,0.18048112 -0.52034721,0.42333335 0.0947172,-0.078994 0.21858454,-0.12347223 0.35277776,-0.12347223 l 12.45305551,0 c 0.134194,0 0.258061,0.0444782 0.352778,0.12347223 -0.04871,-0.24285223 -0.261524,-0.42333335 -0.520347,-0.42333335 l -12.11791706,0 z"
     id="path7515" />
  <path
     inkscape:connector-curvature="0"
     style="fill:#000000;fill-opacity:0.39215686;stroke:none"
     d="M 0.54680549,-1.88294e-7 C 0.242774,-1.88294e-7 -5.0479622e-8,0.24276737 -5.0479622e-8,0.54680538 l 0,12.15319462 C -5.0479622e-8,12.923915 0.13547328,13.10894 0.32631938,13.193889 0.2390163,13.099824 0.18520829,12.973078 0.18520829,12.832306 l 0,-12.11791706 c 0,-0.29582534 0.23336925,-0.52916668 0.52916665,-0.52916668 l 12.11791706,0 c 0.295797,0 0.529167,0.23334134 0.529167,0.52916668 l 0,12.11791706 c 0,0.140772 -0.05381,0.267518 -0.141111,0.361583 0.190846,-0.08495 0.326319,-0.269974 0.326319,-0.493889 l 0,-12.15319462 C 13.546667,0.24276737 13.303893,-1.88294e-7 12.999861,-1.88294e-7 l -12.45305551,0 z"
     id="rect4280" />
  <path
     id="path4172"
     d="m 6.7733338,2.5399999 c -2.4003472,0 -4.3462129,1.945894 -4.3462129,4.3462223 0,2.4003283 1.9458657,4.3462228 4.3462129,4.3462228 2.4003469,0 4.3462122,-1.9458945 4.3462122,-4.3462228 0,-2.4003283 -1.9458653,-4.3462223 -4.3462122,-4.3462223 z m 0,0.543306 c 2.1003037,0 3.8029362,1.7026185 3.8029362,3.8029163 0,2.1002979 -1.7026325,3.8029168 -3.8029362,3.8029168 -2.1003041,0 -3.8029361,-1.7026189 -3.8029361,-3.8029168 0,-2.1002978 1.702632,-3.8029163 3.8029361,-3.8029163 z"
     style="fill:#000000;fill-opacity:0.23529412;stroke:none"
     inkscape:connector-curvature="0" />
  <circle
     r="3.7774699"
     cy="6.7733231"
     cx="6.7733335"
     style="fill:url(#linearGradient1001);fill-opacity:1.0;stroke:none"
     id="path993" />
  <path
     inkscape:connector-curvature="0"
     style="fill:url(#radialGradient923);fill-opacity:1;stroke:none"
     d="m 6.7733338,2.427111 c -2.4003472,0 -4.3462129,1.945894 -4.3462129,4.3462223 0,2.4003283 1.9458657,4.3462227 4.3462129,4.3462227 2.4003469,0 4.3462122,-1.9458944 4.3462122,-4.3462227 0,-2.4003283 -1.9458653,-4.3462223 -4.3462122,-4.3462223 z m 0,0.543306 c 2.1003037,0 3.8029362,1.7026185 3.8029362,3.8029163 0,2.1002979 -1.7026325,3.8029167 -3.8029362,3.8029167 -2.1003041,0 -3.8029361,-1.7026188 -3.8029361,-3.8029167 0,-2.1002978 1.702632,-3.8029163 3.8029361,-3.8029163 z"
     id="path897" />
  <circle
     r="0.56301296"
     cy="6.7946391"
     cx="4.0569506"
     style="fill:url(#linearGradient4307);fill-opacity:1;stroke:none"
     id="path925" />
  <path
     style="fill:#000000;fill-opacity:0.23529412;stroke:none"
     d="m 3.5349836,7.0124884 c 0.081497,0.2105661 0.2826622,0.3627403 0.5219666,0.3627403 0.2393044,0 0.4404699,-0.1521742 0.5219672,-0.3627403 -0.08547,0.2021276 -0.2887594,0.3450449 -0.5219672,0.3450449 -0.2332073,0 -0.4364968,-0.1429173 -0.5219666,-0.3450449 z"
     id="path937"
     inkscape:connector-curvature="0" />
  <path
     inkscape:connector-curvature="0"
     id="path942"
     d="m 3.5349836,7.0297322 c 0.081497,0.2105378 0.2826622,0.3627403 0.5219666,0.3627403 0.2393044,0 0.4404699,-0.1522025 0.5219672,-0.3627403 -0.08547,0.2020994 -0.2887594,0.3450449 -0.5219672,0.3450449 -0.2332073,0 -0.4364968,-0.1429455 -0.5219666,-0.3450449 z"
     style="fill:#000000;fill-opacity:0.13807529;stroke:none" />
  <path
     style="fill:#000000;fill-opacity:0.07949793;stroke:none"
     d="m 3.5349836,7.046976 c 0.081497,0.2105378 0.2826622,0.3627402 0.5219666,0.3627402 0.2393044,0 0.4404699,-0.1522024 0.5219672,-0.3627402 -0.08547,0.2020711 -0.2887594,0.3450731 -0.5219672,0.3450731 -0.2332073,0 -0.4364968,-0.143002 -0.5219666,-0.3450731 z"
     id="path944"
     inkscape:connector-curvature="0" />
  <path
     style="fill:#ffffff;fill-opacity:0.73640167;stroke:none"
     d="m 4.0569502,6.2300273 c -0.3109432,0 -0.5650851,0.2541694 -0.5650851,0.5650936 0,0.0079 0.00413,0.014393 0.00445,0.022296 0.00995,-0.3022035 0.2560066,-0.5428544 0.5606356,-0.5428544 0.304629,0 0.5506842,0.2406509 0.5606356,0.5428544 3.387e-4,-0.0079 0.00445,-0.014393 0.00445,-0.022296 9e-7,-0.3109242 -0.2541408,-0.5650936 -0.5650845,-0.5650936 z"
     id="path946"
     inkscape:connector-curvature="0" />
  <path
     inkscape:connector-curvature="0"
     id="path951"
     d="M 3.5349836,7.0642198 C 3.6164809,7.2747576 3.8176458,7.42696 4.0569502,7.42696 c 0.2393044,0 0.4404699,-0.1522024 0.5219672,-0.3627402 -0.08547,0.2020993 -0.2887594,0.3450731 -0.5219672,0.3450731 -0.2332073,0 -0.4364968,-0.1429738 -0.5219666,-0.3450731 z"
     style="fill:#000000;fill-opacity:0.03921569;stroke:none" />
  <circle
     r="0.56301296"
     cy="6.7946391"
     cx="9.4897165"
     id="path963"
     style="fill:url(#linearGradient4309);fill-opacity:1;stroke:none" />
  <path
     inkscape:connector-curvature="0"
     id="path965"
     d="m 8.9677496,7.0124884 c 0.081497,0.2105661 0.2826622,0.3627403 0.5219667,0.3627403 0.2393044,0 0.4404693,-0.1521742 0.5219667,-0.3627403 -0.08547,0.2021276 -0.2887592,0.3450449 -0.5219667,0.3450449 -0.2332076,0 -0.4364968,-0.1429173 -0.5219667,-0.3450449 z"
     style="fill:#000000;fill-opacity:0.23529412;stroke:none" />
  <path
     style="fill:#000000;fill-opacity:0.13807529;stroke:none"
     d="m 8.9677496,7.0297322 c 0.081497,0.2105378 0.2826622,0.3627403 0.5219667,0.3627403 0.2393044,0 0.4404693,-0.1522025 0.5219667,-0.3627403 -0.08547,0.2020994 -0.2887592,0.3450449 -0.5219667,0.3450449 -0.2332076,0 -0.4364968,-0.1429455 -0.5219667,-0.3450449 z"
     id="path967"
     inkscape:connector-curvature="0" />
  <path
     inkscape:connector-curvature="0"
     id="path969"
     d="m 8.9677496,7.046976 c 0.081497,0.2105378 0.2826622,0.3627402 0.5219667,0.3627402 0.2393044,0 0.4404693,-0.1522024 0.5219667,-0.3627402 -0.08547,0.2020711 -0.2887592,0.3450731 -0.5219667,0.3450731 -0.2332076,0 -0.4364968,-0.143002 -0.5219667,-0.3450731 z"
     style="fill:#000000;fill-opacity:0.07949793;stroke:none" />
  <path
     inkscape:connector-curvature="0"
     id="path971"
     d="m 9.4897163,6.2300273 c -0.3109435,0 -0.5650851,0.2541694 -0.5650851,0.5650936 0,0.0079 0.00413,0.014393 0.00445,0.022296 0.00995,-0.3022035 0.2560066,-0.5428544 0.5606358,-0.5428544 0.304629,0 0.5506832,0.2406509 0.5606352,0.5428544 3.39e-4,-0.0079 0.0045,-0.014393 0.0045,-0.022296 0,-0.3109242 -0.2541413,-0.5650936 -0.5650847,-0.5650936 z"
     style="fill:#ffffff;fill-opacity:0.73640167;stroke:none" />
  <path
     style="fill:#000000;fill-opacity:0.03921569;stroke:none"
     d="M 8.9677496,7.0642198 C 9.0492467,7.2747576 9.2504118,7.42696 9.4897163,7.42696 c 0.2393044,0 0.4404693,-0.1522024 0.5219667,-0.3627402 -0.08547,0.2020993 -0.2887592,0.3450731 -0.5219667,0.3450731 -0.2332076,0 -0.4364968,-0.1429738 -0.5219667,-0.3450731 z"
     id="path973"
     inkscape:connector-curvature="0" />
  <circle
     r="0.56301296"
     cy="4.0782642"
     cx="6.7733335"
     style="fill:url(#linearGradient4311);fill-opacity:1;stroke:none"
     id="path979" />
  <path
     style="fill:#000000;fill-opacity:0.23529412;stroke:none"
     d="m 6.2513666,4.2960995 c 0.081497,0.210566 0.2826622,0.3627402 0.5219666,0.3627402 0.2393044,0 0.4404696,-0.1521742 0.5219669,-0.3627402 -0.08547,0.2020993 -0.2887593,0.3450449 -0.5219669,0.3450449 -0.2332073,0 -0.4364967,-0.1429456 -0.5219666,-0.3450449 z"
     id="path981"
     inkscape:connector-curvature="0" />
  <path
     inkscape:connector-curvature="0"
     id="path983"
     d="m 6.2513666,4.3133715 c 0.081497,0.2105095 0.2826622,0.362712 0.5219666,0.362712 0.2393044,0 0.4404696,-0.1522025 0.5219669,-0.362712 -0.08547,0.2020993 -0.2887593,0.3450449 -0.5219669,0.3450449 -0.2332073,0 -0.4364967,-0.1429456 -0.5219666,-0.3450449 z"
     style="fill:#000000;fill-opacity:0.13807529;stroke:none" />
  <path
     style="fill:#000000;fill-opacity:0.07949793;stroke:none"
     d="m 6.2513666,4.330587 c 0.081497,0.210566 0.2826622,0.3627403 0.5219666,0.3627403 0.2393044,0 0.4404696,-0.1521743 0.5219669,-0.3627403 -0.08547,0.2020994 -0.2887593,0.3450732 -0.5219669,0.3450732 -0.2332073,0 -0.4364967,-0.1429738 -0.5219666,-0.3450732 z"
     id="path985"
     inkscape:connector-curvature="0" />
  <path
     style="fill:#ffffff;fill-opacity:0.73640167;stroke:none"
     d="m 6.7733332,3.5136666 c -0.3109434,0 -0.5650851,0.2541411 -0.5650851,0.5650653 0,0.0079 0.00413,0.014393 0.00445,0.022296 0.00995,-0.3022036 0.2560069,-0.5428263 0.5606359,-0.5428263 0.304629,0 0.5506836,0.2406227 0.5606356,0.5428263 3.387e-4,-0.0079 0.00445,-0.014393 0.00445,-0.022296 3.4e-6,-0.3109242 -0.2541386,-0.5650653 -0.565082,-0.5650653 z"
     id="path987"
     inkscape:connector-curvature="0" />
  <path
     inkscape:connector-curvature="0"
     id="path989"
     d="m 6.2513666,4.3478308 c 0.081497,0.2105378 0.2826622,0.3627403 0.5219666,0.3627403 0.2393044,0 0.4404696,-0.1522025 0.5219669,-0.3627403 -0.08547,0.2020994 -0.2887593,0.3450449 -0.5219669,0.3450449 -0.2332073,0 -0.4364967,-0.1429455 -0.5219666,-0.3450449 z"
     style="fill:#000000;fill-opacity:0.03921569;stroke:none" />
  <path
     inkscape:connector-curvature="0"
     style="fill:#ff0000;fill-opacity:0.93305437;stroke:none"
     d="m 6.7733341,2.8743203 -0.3349177,3.8468019 0,0.028702 c 0,0.027093 0.00362,0.051562 0.00957,0.076539 0.035117,0.1474047 0.1672302,0.2583462 0.3253489,0.2583462 0.1849289,0 0.3349176,-0.1499447 0.3349176,-0.3348849 l 0,-0.028702 L 6.9838524,5.3144702 6.7733341,2.8743203 Z"
     id="path1047" />
  <path
     inkscape:connector-curvature="0"
     style="fill:#ffffff;fill-opacity:0.24267782;stroke:none"
     d="m 6.7733341,2.8743203 0,4.2103888 c 0.1849289,0 0.3349179,-0.1499447 0.3349179,-0.3348849 l 0,-0.028702 L 6.9838538,5.3144702 6.7733341,2.8743203 Z"
     id="rect1093" />
  <circle
     r="0.096778303"
     cy="6.7675018"
     cx="6.773334"
     style="fill:url(#linearGradient933);fill-opacity:1;stroke:none"
     id="path1100" />
  <path
     style="fill:#000000;fill-opacity:0.23529412;stroke:none"
     d="m 6.6836117,6.8049422 c 0.01401,0.036209 0.048588,0.062343 0.089722,0.062343 0.041135,0 0.075714,-0.026247 0.089723,-0.062343 -0.014693,0.034742 -0.049636,0.059323 -0.089723,0.059323 -0.040087,0 -0.075031,-0.024553 -0.089722,-0.059323 z"
     id="path1102"
     inkscape:connector-curvature="0" />
  <path
     inkscape:connector-curvature="0"
     id="path1104"
     d="m 6.6836117,6.8079056 c 0.01401,0.036209 0.048588,0.062371 0.089722,0.062371 0.041135,0 0.075714,-0.026247 0.089723,-0.062371 -0.014693,0.034741 -0.049636,0.059323 -0.089723,0.059323 -0.040087,0 -0.075031,-0.024553 -0.089722,-0.059323 z"
     style="fill:#000000;fill-opacity:0.13807529;stroke:none" />
  <path
     style="fill:#000000;fill-opacity:0.07949793;stroke:none"
     d="m 6.6836117,6.8108689 c 0.01401,0.036209 0.048588,0.062371 0.089722,0.062371 0.041135,0 0.075714,-0.026247 0.089723,-0.062371 -0.014693,0.034741 -0.049636,0.059323 -0.089723,0.059323 -0.040087,0 -0.075031,-0.024553 -0.089722,-0.059323 z"
     id="path1106"
     inkscape:connector-curvature="0" />
  <path
     style="fill:#ffffff;fill-opacity:0.73640167;stroke:none"
     d="m 6.7733341,6.6704351 c -0.053449,0 -0.097134,0.043688 -0.097134,0.097141 0,0.00282 7.055e-4,0.00282 7.62e-4,0.00395 0.00172,-0.051901 0.044006,-0.093274 0.09637,-0.093274 0.052364,0 0.094659,0.041374 0.09637,0.093274 5.59e-5,-0.00282 7.62e-4,-0.00282 7.62e-4,-0.00395 5.3e-6,-0.053453 -0.04368,-0.097141 -0.097129,-0.097141 z"
     id="path1108"
     inkscape:connector-curvature="0" />
  <path
     inkscape:connector-curvature="0"
     id="path1110"
     d="m 6.6836117,6.8138322 c 0.01401,0.036181 0.048588,0.062371 0.089722,0.062371 0.041135,0 0.075714,-0.026247 0.089723,-0.062371 -0.014693,0.034742 -0.049636,0.059323 -0.089723,0.059323 -0.040087,0 -0.075031,-0.024553 -0.089722,-0.059323 z"
     style="fill:#000000;fill-opacity:0.03921569;stroke:none" />
  <path
     style="fill:#000000;fill-opacity:0.19665276;stroke:none"
     d="m 7.1043929,6.8168238 c -0.031237,0.1525975 -0.1692464,0.2716107 -0.3310591,0.2716107 -0.1581187,0 -0.2874538,-0.1157112 -0.3225704,-0.2631158 0.00141,0.0079 -0.00195,0.017215 0,0.025682 C 6.48588,6.9983773 6.6152151,7.1141731 6.7733338,7.1141731 6.9438149,7.1139473 7.0834353,6.9816133 7.1043929,6.8168238 Z"
     id="path1213"
     inkscape:connector-curvature="0" />
  <path
     inkscape:connector-curvature="0"
     id="path1218"
     d="M 7.1043929,6.8433244 C 7.0731557,6.995922 6.9351465,7.1149633 6.7733338,7.1149633 c -0.1581187,0 -0.2874538,-0.1157393 -0.3225704,-0.263144 0.00141,0.00818 -0.00195,0.017216 0,0.025682 C 6.48588,7.0249062 6.6152151,7.1406738 6.7733338,7.1406738 6.9438149,7.140448 7.0834353,7.0081422 7.1043929,6.8433244 Z"
     style="fill:#000000;fill-opacity:0.11689226;stroke:none" />
  <path
     style="fill:#000000;fill-opacity:0.05439333;stroke:none"
     d="m 7.1043929,6.8698533 c -0.031237,0.1525976 -0.1692464,0.2716389 -0.3310591,0.2716389 -0.1581187,0 -0.2874538,-0.1157393 -0.3225704,-0.263144 0.00141,0.00818 -0.00195,0.017216 0,0.025682 C 6.48588,7.0514351 6.6152151,7.1672027 6.7733338,7.1672027 6.9438149,7.1669769 7.0834353,7.0346711 7.1043929,6.8698533 Z"
     id="path1220"
     inkscape:connector-curvature="0" />
  <path
     id="path4162"
     d="m 6.7733338,2.427111 c -2.4003472,0 -4.3462129,1.945894 -4.3462129,4.3462223 0,2.4003283 1.9458657,4.3462227 4.3462129,4.3462227 2.4003469,0 4.3462122,-1.9458944 4.3462122,-4.3462227 0,-2.4003283 -1.9458653,-4.3462223 -4.3462122,-4.3462223 z m 0,0.543306 c 2.1003037,0 3.8029362,1.7026185 3.8029362,3.8029163 0,2.1002979 -1.7026325,3.8029167 -3.8029362,3.8029167 -2.1003041,0 -3.8029361,-1.7026188 -3.8029361,-3.8029167 0,-2.1002978 1.702632,-3.8029163 3.8029361,-3.8029163 z"
     style="fill:url(#linearGradient4166);fill-opacity:1;stroke:none"
     inkscape:connector-curvature="0" />
</svg>
