<?xml version="1.0" encoding="UTF-8" standalone="no"?>
<svg
   xmlns:dc="http://purl.org/dc/elements/1.1/"
   xmlns:cc="http://creativecommons.org/ns#"
   xmlns:rdf="http://www.w3.org/1999/02/22-rdf-syntax-ns#"
   xmlns:svg="http://www.w3.org/2000/svg"
   xmlns="http://www.w3.org/2000/svg"
   xmlns:xlink="http://www.w3.org/1999/xlink"
   xmlns:sodipodi="http://sodipodi.sourceforge.net/DTD/sodipodi-0.dtd"
   xmlns:inkscape="http://www.inkscape.org/namespaces/inkscape"
   width="48"
   viewBox="0 0 13.546667 13.546667"
   height="48"
   id="svg2"
   version="1.1"
   inkscape:version="0.48+devel r"
   sodipodi:docname="chrome-pkbfakcphdokdnbdhlndlpcehebmplab-Default.svg">
  <metadata
     id="metadata276">
    <rdf:RDF>
      <cc:Work
         rdf:about="">
        <dc:format>image/svg+xml</dc:format>
        <dc:type
           rdf:resource="http://purl.org/dc/dcmitype/StillImage" />
      </cc:Work>
    </rdf:RDF>
  </metadata>
  <sodipodi:namedview
     pagecolor="#ffffff"
     bordercolor="#666666"
     borderopacity="1"
     objecttolerance="10"
     gridtolerance="10"
     guidetolerance="10"
     inkscape:pageopacity="0"
     inkscape:pageshadow="2"
     inkscape:window-width="1366"
     inkscape:window-height="665"
     id="namedview274"
     showgrid="true"
     inkscape:zoom="9.1958031"
     inkscape:cx="13.411493"
     inkscape:cy="22.855706"
     inkscape:window-x="-2"
     inkscape:window-y="26"
     inkscape:window-maximized="1"
     inkscape:current-layer="svg2">
    <inkscape:grid
       type="xygrid"
       id="grid4463" />
  </sodipodi:namedview>
  <defs
     id="defs4">
    <linearGradient
       gradientUnits="userSpaceOnUse"
       y2="-1004.3317"
       x2="27.223612"
       y1="-1052.3843"
       x1="27.223612"
       id="linearGradient5561-0"
       xlink:href="#linearGradient896"
       inkscape:collect="always"
       gradientTransform="matrix(0.28222223,0,0,0.28222223,-1.0774661e-7,283.45334)" />
    <linearGradient
       gradientTransform="matrix(0.96250002,0,0,0.96250002,0.89999994,0.90000947)"
       gradientUnits="userSpaceOnUse"
       y2="7.9598985"
       x2="25"
       y1="40"
       x1="25"
       id="linearGradient4245"
       xlink:href="#linearGradient4195"
       inkscape:collect="always" />
    <linearGradient
       id="linearGradient896">
      <stop
         id="stop898"
         offset="0"
         style="stop-color:#1a1a1a;stop-opacity:1" />
      <stop
         id="stop900"
         offset="1"
         style="stop-color:#4d4d4d;stop-opacity:1" />
    </linearGradient>
    <linearGradient
       inkscape:collect="always"
       id="linearGradient4195">
      <stop
         style="stop-color:#dee4e4;stop-opacity:1"
         offset="0"
         id="stop4197" />
      <stop
         style="stop-color:#f2f2f0;stop-opacity:1"
         offset="1"
         id="stop4199" />
    </linearGradient>
  </defs>
  <rect
     style="fill:url(#linearGradient5561-0);fill-opacity:1.0;stroke:none"
     id="rect2991-1-7-2"
     width="13.546667"
     height="13.546667"
     x="1.7610799e-06"
     y="-13.546664"
     ry="0.54879344"
     transform="scale(1,-1)" />
  <path
     style="opacity:1;fill:#000000;fill-opacity:0.05882353;stroke:none;stroke-width:2.79999995;stroke-miterlimit:4;stroke-dasharray:none;stroke-opacity:0.55026455"
     d="M 8.5996094 9.8007812 L 8.5996094 33.863281 L 21.353516 33.863281 L 29.775391 40.599609 L 29.775391 33.863281 L 39.400391 33.863281 L 39.400391 9.8007812 L 8.5996094 9.8007812 z M 10 10 L 38 10 L 38 31 L 10 31 L 10 10 z "
     transform="scale(0.28222223,0.28222223)"
     id="path4269" />
  <path
     style="opacity:1;fill:#000000;fill-opacity:0.11764706;stroke:none;stroke-width:2.79999995;stroke-miterlimit:4;stroke-dasharray:none;stroke-opacity:0.55026455"
     d="M 8.5996094 9.4003906 L 8.5996094 33.462891 L 21.353516 33.462891 L 29.775391 40.199219 L 29.775391 33.462891 L 39.400391 33.462891 L 39.400391 9.4003906 L 8.5996094 9.4003906 z M 10 10 L 38 10 L 38 31 L 10 31 L 10 10 z "
     transform="scale(0.28222223,0.28222223)"
     id="path4267" />
  <path
     style="opacity:1;fill:#000000;fill-opacity:0.23529412;stroke:none;stroke-width:2.79999995;stroke-miterlimit:4;stroke-dasharray:none;stroke-opacity:0.55026455"
     d="M 8.5996094 9 L 8.5996094 33.0625 L 21.353516 33.0625 L 29.775391 39.800781 L 29.775391 33.0625 L 39.400391 33.0625 L 39.400391 9 L 8.5996094 9 z M 10 10 L 38 10 L 38 31 L 10 31 L 10 10 z "
     transform="scale(0.28222223,0.28222223)"
     id="path4263" />
  <path
     inkscape:connector-curvature="0"
     style="fill:#000000;fill-opacity:1;stroke:none"
     d="m -1.80108e-6,12.700003 0,0.299861 c 0,0.304038 0.24277321108,0.546806 0.54680557108,0.546806 l 12.45305523,0 c 0.304033,0 0.546806,-0.242768 0.546806,-0.546806 l 0,-0.299861 c 0,0.304038 -0.242773,0.546806 -0.546806,0.546806 l -12.45305523,0 c -0.30403236,0 -0.54680557108,-0.242768 -0.54680557108,-0.546806 z"
     id="rect846-3" />
  <path
     inkscape:connector-curvature="0"
     style="fill:#ffffff;fill-opacity:0.5372549;stroke:none"
     d="m 0.71437322,0.18522512 c -0.25882318,0 -0.47163568,0.18048112 -0.52034724,0.42333335 0.0947166,-0.078994 0.21858394,-0.12347223 0.35277779,-0.12347223 l 12.45305523,0 c 0.134194,0 0.258062,0.0444782 0.352778,0.12347223 C 13.303926,0.36570624 13.091113,0.18522512 12.83229,0.18522512 l -12.11791678,0 z"
     id="path7515-3" />
  <path
     inkscape:connector-curvature="0"
     style="fill:#000000;fill-opacity:0.39215686;stroke:none"
     d="M 0.54680377,2.6714809e-6 C 0.24277141,2.6714809e-6 -1.80108e-6,0.24277023 -1.80108e-6,0.54680824 l 0,12.15319476 c 0,0.223915 0.13547231108,0.40894 0.32631946108,0.493889 -0.0873026,-0.09407 -0.14111112,-0.220811 -0.14111112,-0.361583 l 0,-12.1179172 c 0,-0.29582534 0.23336956,-0.52916668 0.52916668,-0.52916668 l 12.11791678,0 c 0.295797,0 0.529167,0.23334134 0.529167,0.52916668 l 0,12.1179172 c 0,0.140772 -0.05381,0.267518 -0.141111,0.361583 0.190847,-0.08495 0.326319,-0.269974 0.326319,-0.493889 l 0,-12.15319476 C 13.546665,0.24277023 13.303892,2.6714809e-6 12.999859,2.6714809e-6 l -12.45305523,0 z"
     id="rect4280-2" />
  <path
     style="opacity:1;fill:url(#linearGradient4245);fill-opacity:1.0;stroke:none;stroke-width:2.79999995;stroke-miterlimit:4;stroke-dasharray:none;stroke-opacity:0.55026455"
     d="M 8.5996094 8.5996094 L 8.5996094 32.662109 L 21.353516 32.662109 L 29.775391 39.400391 L 29.775391 32.662109 L 39.400391 32.662109 L 39.400391 8.5996094 L 8.5996094 8.5996094 z M 10 10 L 38 10 L 38 31 L 10 31 L 10 10 z "
     transform="scale(0.28222223,0.28222223)"
     id="rect4225" />
  <path
     style="opacity:1;fill:#000000;fill-opacity:0.3137255;stroke:none;stroke-width:2.79999995;stroke-miterlimit:4;stroke-dasharray:none;stroke-opacity:0.55026455"
     d="M 8.5996094 31.863281 L 8.5996094 32.662109 L 21.353516 32.662109 L 29.775391 39.400391 L 29.775391 38.599609 L 21.353516 31.863281 L 8.5996094 31.863281 z M 29.775391 31.863281 L 29.775391 32.662109 L 39.400391 32.662109 L 39.400391 31.863281 L 29.775391 31.863281 z "
     transform="scale(0.28222223,0.28222223)"
     id="path4271" />
  <path
     style="opacity:1;fill:#ffffff;fill-opacity:0.23529412;stroke:none;stroke-width:2.79999995;stroke-miterlimit:4;stroke-dasharray:none;stroke-opacity:0.55026455"
     d="M 8.5996094 8.5996094 L 8.5996094 9 L 39.400391 9 L 39.400391 8.5996094 L 8.5996094 8.5996094 z "
     transform="scale(0.28222223,0.28222223)"
     id="path4276" />
</svg>
