<?xml version="1.0" encoding="UTF-8" standalone="no"?>
<!-- Created with Inkscape (http://www.inkscape.org/) -->

<svg
   xmlns:dc="http://purl.org/dc/elements/1.1/"
   xmlns:cc="http://creativecommons.org/ns#"
   xmlns:rdf="http://www.w3.org/1999/02/22-rdf-syntax-ns#"
   xmlns:svg="http://www.w3.org/2000/svg"
   xmlns="http://www.w3.org/2000/svg"
   xmlns:xlink="http://www.w3.org/1999/xlink"
   xmlns:sodipodi="http://sodipodi.sourceforge.net/DTD/sodipodi-0.dtd"
   xmlns:inkscape="http://www.inkscape.org/namespaces/inkscape"
   width="48"
   height="48"
   id="svg5453"
   version="1.1"
   inkscape:version="0.48+devel r12923"
   sodipodi:docname="cxmenu-cxoffice-0-cxdoc.svg">
  <defs
     id="defs5455">
    <linearGradient
       inkscape:collect="always"
       id="linearGradient4116">
      <stop
         style="stop-color:#002434;stop-opacity:1"
         offset="0"
         id="stop4118" />
      <stop
         style="stop-color:#003046;stop-opacity:1"
         offset="1"
         id="stop4120" />
    </linearGradient>
    <linearGradient
       inkscape:collect="always"
       xlink:href="#linearGradient4116"
       id="linearGradient4122"
       x1="428.34531"
       y1="-547.8125"
       x2="428.34531"
       y2="-499.81177"
       gradientUnits="userSpaceOnUse" />
    <linearGradient
       id="linearGradient4001"
       inkscape:collect="always">
      <stop
         id="stop4003"
         offset="0"
         style="stop-color:#c0bebe;stop-opacity:1" />
      <stop
         id="stop4005"
         offset="1"
         style="stop-color:#f2f7f7;stop-opacity:1" />
    </linearGradient>
    <linearGradient
       gradientTransform="matrix(0.95237789,0,0,0.95237799,385.7143,-455.5916)"
       gradientUnits="userSpaceOnUse"
       y2="1007.3755"
       x2="22.45064"
       y1="1049.29"
       x1="22.45064"
       id="linearGradient4007"
       xlink:href="#linearGradient4001"
       inkscape:collect="always" />
    <linearGradient
       inkscape:collect="always"
       id="linearGradient137480">
      <stop
         style="stop-color:#5a5a5a;stop-opacity:1"
         offset="0"
         id="stop137482" />
      <stop
         style="stop-color:#101010;stop-opacity:1"
         offset="1"
         id="stop137484" />
    </linearGradient>
    <linearGradient
       x1="0"
       y1="0"
       x2="1"
       y2="0"
       gradientUnits="userSpaceOnUse"
       gradientTransform="matrix(13.526835,20.525875,20.525875,-13.526835,19.18986,1021.0543)"
       spreadMethod="pad"
       id="linearGradient6194">
      <stop
         style="stop-opacity:1;stop-color:#ffffff"
         offset="0"
         id="stop6196" />
      <stop
         style="stop-opacity:1;stop-color:#29282b"
         offset="0.168498"
         id="stop6198" />
      <stop
         style="stop-opacity:1;stop-color:#868c95"
         offset="0.263736"
         id="stop6200" />
      <stop
         style="stop-opacity:1;stop-color:#92979f"
         offset="0.395604"
         id="stop6202" />
      <stop
         style="stop-opacity:1;stop-color:#737881"
         offset="0.542125"
         id="stop6204" />
      <stop
         style="stop-opacity:1;stop-color:#70757e"
         offset="0.626374"
         id="stop6206" />
      <stop
         style="stop-opacity:1;stop-color:#e4e6e8"
         offset="0.717949"
         id="stop6208" />
      <stop
         style="stop-opacity:1;stop-color:#ffffff"
         offset="0.791209"
         id="stop6210" />
      <stop
         style="stop-opacity:1;stop-color:#1d191a"
         offset="1"
         id="stop6212" />
    </linearGradient>
    <linearGradient
       gradientTransform="translate(0.50002588,0)"
       gradientUnits="userSpaceOnUse"
       y2="-34.624512"
       x2="1012.3622"
       y1="-34.624512"
       x1="1004.3131"
       id="linearGradient4768"
       xlink:href="#linearGradient6194"
       inkscape:collect="always" />
    <linearGradient
       gradientTransform="translate(0.50002588,2)"
       y2="-34.624512"
       x2="1012.3622"
       y1="-34.624512"
       x1="1004.3131"
       gradientUnits="userSpaceOnUse"
       id="linearGradient4772"
       xlink:href="#linearGradient6194"
       inkscape:collect="always" />
    <linearGradient
       y2="-34.624512"
       x2="1012.3622"
       y1="-34.624512"
       x1="1004.3131"
       gradientTransform="translate(0.50002588,22)"
       gradientUnits="userSpaceOnUse"
       id="linearGradient4788"
       xlink:href="#linearGradient6194"
       inkscape:collect="always" />
    <linearGradient
       y2="-34.624512"
       x2="1012.3622"
       y1="-34.624512"
       x1="1004.3131"
       gradientTransform="translate(0.50002588,20)"
       gradientUnits="userSpaceOnUse"
       id="linearGradient4792"
       xlink:href="#linearGradient6194"
       inkscape:collect="always" />
    <linearGradient
       gradientTransform="matrix(1.1578948,0,0,2.6595742,-664.68445,-364.9943)"
       gradientUnits="userSpaceOnUse"
       y2="-13.205674"
       x2="1011.5395"
       y1="-13.205674"
       x1="1013.4686"
       id="linearGradient4863"
       xlink:href="#linearGradient137480"
       inkscape:collect="always" />
    <linearGradient
       y2="-13.205674"
       x2="1011.5395"
       y1="-13.205674"
       x1="1013.4686"
       gradientTransform="matrix(1.1578948,0,0,2.6595742,-664.68445,-384.9943)"
       gradientUnits="userSpaceOnUse"
       id="linearGradient4871"
       xlink:href="#linearGradient137480"
       inkscape:collect="always" />
    <linearGradient
       inkscape:collect="always"
       id="linearGradient859">
      <stop
         style="stop-color:#ffae00;stop-opacity:1"
         offset="0"
         id="stop861" />
      <stop
         style="stop-color:#fcdb00;stop-opacity:1"
         offset="1"
         id="stop863" />
    </linearGradient>
    <linearGradient
       inkscape:collect="always"
       id="linearGradient5261">
      <stop
         style="stop-color:#1e6ccd;stop-opacity:1"
         offset="0"
         id="stop5263" />
      <stop
         style="stop-color:#2faff9;stop-opacity:1"
         offset="1"
         id="stop5265" />
    </linearGradient>
    <linearGradient
       gradientUnits="userSpaceOnUse"
       y2="514.12292"
       x2="414.54227"
       y1="539.21088"
       x1="414.54227"
       id="linearGradient4265"
       xlink:href="#linearGradient5261"
       inkscape:collect="always"
       gradientTransform="translate(-2e-6,1.8183594e-5)" />
    <linearGradient
       gradientUnits="userSpaceOnUse"
       y2="508.0614"
       x2="419.08838"
       y1="533.99121"
       x1="419.08838"
       id="linearGradient4273"
       xlink:href="#linearGradient859"
       inkscape:collect="always"
       gradientTransform="translate(-2e-6,1.8183594e-5)" />
  </defs>
  <sodipodi:namedview
     id="base"
     pagecolor="#ffffff"
     bordercolor="#666666"
     borderopacity="1.0"
     inkscape:pageopacity="0"
     inkscape:pageshadow="2"
     inkscape:zoom="5.7767111"
     inkscape:cx="11.347438"
     inkscape:cy="19.009564"
     inkscape:document-units="px"
     inkscape:current-layer="layer1"
     showgrid="false"
     fit-margin-top="0"
     fit-margin-left="0"
     fit-margin-right="0"
     fit-margin-bottom="0"
     inkscape:window-width="1366"
     inkscape:window-height="669"
     inkscape:window-x="0"
     inkscape:window-y="26"
     inkscape:window-maximized="1"
     inkscape:showpageshadow="false"
     borderlayer="true" />
  <metadata
     id="metadata5458">
    <rdf:RDF>
      <cc:Work
         rdf:about="">
        <dc:format>image/svg+xml</dc:format>
        <dc:type
           rdf:resource="http://purl.org/dc/dcmitype/StillImage" />
        <dc:title />
      </cc:Work>
    </rdf:RDF>
  </metadata>
  <g
     inkscape:label="Capa 1"
     inkscape:groupmode="layer"
     id="layer1"
     transform="translate(-384.57143,-499.798)">
    <rect
       style="fill:url(#linearGradient4122);fill-opacity:1;stroke:none"
       id="rect2991-1-7"
       width="48"
       height="48"
       x="384.57144"
       y="-547.79797"
       ry="1.9445436"
       transform="scale(1,-1)" />
    <path
       sodipodi:nodetypes="sssssssss"
       inkscape:connector-curvature="0"
       id="path4523"
       d="m 389.27171,502.79802 c -0.94261,0 -1.70028,0.7576 -1.70028,1.7002 l 0,38.5995 c 0,0.9426 0.75767,1.7003 1.70028,1.7003 l 38.59943,0 c 0.94262,0 1.70029,-0.7577 1.70029,-1.7003 l 0,-38.5994 c 0,-0.9427 -0.75767,-1.7003 -1.70029,-1.7003 z"
       style="fill:#000000;fill-opacity:0.23529412;stroke:none" />
    <path
       style="fill:url(#linearGradient4007);fill-opacity:1;stroke:none"
       d="m 390.19075,503.79802 c -0.89773,0 -1.61932,0.7215 -1.61932,1.6192 l 0,36.7615 c 0,0.8977 0.72159,1.6193 1.61932,1.6193 l 36.76136,0 c 0.89773,0 1.61932,-0.7216 1.61932,-1.6193 l 0,-36.7614 c 0,-0.8978 -0.72159,-1.6193 -1.61932,-1.6193 z"
       id="rect839"
       inkscape:connector-curvature="0"
       sodipodi:nodetypes="sssssssss" />
    <path
       inkscape:connector-curvature="0"
       style="fill:#000000;fill-opacity:0.03921569;stroke:none"
       d="m 390.41518,503.79802 0,1.84375 -1.84375,0 0,0.3125 1.84375,0 0,1.6875 -1.84375,0 0,0.3125 1.84375,0 0,1.6875 -1.84375,0 0,0.3125 1.84375,0 0,1.6875 -1.84375,0 0,0.3125 1.84375,0 0,1.6875 -1.84375,0 0,0.3125 1.84375,0 0,1.6875 -1.84375,0 0,0.3125 1.84375,0 0,1.6875 -1.84375,0 0,0.3125 1.84375,0 0,1.6875 -1.84375,0 0,0.3125 1.84375,0 0,1.6875 -1.84375,0 0,0.3125 1.84375,0 0,1.6875 -1.84375,0 0,0.3125 1.84375,0 0,1.6875 -1.84375,0 0,0.3125 1.84375,0 0,1.6875 -1.84375,0 0,0.3125 1.84375,0 0,1.6875 -1.84375,0 0,0.3125 1.84375,0 0,1.6875 -1.84375,0 0,0.3125 1.84375,0 0,1.6875 -1.84375,0 0,0.3125 1.84375,0 0,1.6875 -1.84375,0 0,0.3125 1.84375,0 0,1.6875 -1.84375,0 0,0.3125 1.84375,0 0,1.6875 -1.84375,0 0,0.3125 1.84375,0 0,1.6875 -1.21875,0 c 0.19362,0.14675 0.43781,0.26344 0.6875,0.3125 l 0.53125,0 0,0.0312 0.3125,0 0,-0.0312 1.6875,0 0,0.0312 0.3125,0 0,-0.0312 1.6875,0 0,0.0312 0.3125,0 0,-0.0312 1.6875,0 0,0.0312 0.3125,0 0,-0.0312 1.6875,0 0,0.0312 0.3125,0 0,-0.0312 1.6875,0 0,0.0312 0.3125,0 0,-0.0312 1.6875,0 0,0.0312 0.3125,0 0,-0.0312 1.6875,0 0,0.0312 0.3125,0 0,-0.0312 1.6875,0 0,0.0312 0.3125,0 0,-0.0312 1.6875,0 0,0.0312 0.3125,0 0,-0.0312 1.6875,0 0,0.0312 0.3125,0 0,-0.0312 1.6875,0 0,0.0312 0.3125,0 0,-0.0312 1.6875,0 0,0.0312 0.3125,0 0,-0.0312 1.6875,0 0,0.0312 0.3125,0 0,-0.0312 1.6875,0 0,0.0312 0.3125,0 0,-0.0312 1.6875,0 0,0.0312 0.3125,0 0,-0.0312 1.6875,0 0,0.0312 0.3125,0 0,-0.0312 1.6875,0 0,0.0312 0.3125,0 0,-0.0312 1.6875,0 0,0.0312 0.3125,0 0,-0.0312 0.53125,0 c 0.24969,-0.0491 0.49388,-0.16575 0.6875,-0.3125 l -1.21875,0 0,-1.6875 1.84375,0 0,-0.3125 -1.84375,0 0,-1.6875 1.84375,0 0,-0.3125 -1.84375,0 0,-1.6875 1.84375,0 0,-0.3125 -1.84375,0 0,-1.6875 1.84375,0 0,-0.3125 -1.84375,0 0,-1.6875 1.84375,0 0,-0.3125 -1.84375,0 0,-1.6875 1.84375,0 0,-0.3125 -1.84375,0 0,-1.6875 1.84375,0 0,-0.3125 -1.84375,0 0,-1.6875 1.84375,0 0,-0.3125 -1.84375,0 0,-1.6875 1.84375,0 0,-0.3125 -1.84375,0 0,-1.6875 1.84375,0 0,-0.3125 -1.84375,0 0,-1.6875 1.84375,0 0,-0.3125 -1.84375,0 0,-1.6875 1.84375,0 0,-0.3125 -1.84375,0 0,-1.6875 1.84375,0 0,-0.3125 -1.84375,0 0,-1.6875 1.84375,0 0,-0.3125 -1.84375,0 0,-1.6875 1.84375,0 0,-0.3125 -1.84375,0 0,-1.6875 1.84375,0 0,-0.3125 -1.84375,0 0,-1.6875 1.84375,0 0,-0.3125 -1.84375,0 0,-1.6875 1.84375,0 0,-0.3125 -1.84375,0 0,-1.84375 -0.3125,0 0,1.84375 -1.6875,0 0,-1.84375 -0.3125,0 0,1.84375 -1.6875,0 0,-1.84375 -0.3125,0 0,1.84375 -1.6875,0 0,-1.84375 -0.3125,0 0,1.84375 -1.6875,0 0,-1.84375 -0.3125,0 0,1.84375 -1.6875,0 0,-1.84375 -0.3125,0 0,1.84375 -1.6875,0 0,-1.84375 -0.3125,0 0,1.84375 -1.6875,0 0,-1.84375 -0.3125,0 0,1.84375 -1.6875,0 0,-1.84375 -0.3125,0 0,1.84375 -1.6875,0 0,-1.84375 -0.3125,0 0,1.84375 -1.6875,0 0,-1.84375 -0.3125,0 0,1.84375 -1.6875,0 0,-1.84375 -0.3125,0 0,1.84375 -1.6875,0 0,-1.84375 -0.3125,0 0,1.84375 -1.6875,0 0,-1.84375 -0.3125,0 0,1.84375 -1.6875,0 0,-1.84375 -0.3125,0 0,1.84375 -1.6875,0 0,-1.84375 -0.3125,0 0,1.84375 -1.6875,0 0,-1.84375 -0.3125,0 0,1.84375 -1.6875,0 0,-1.84375 -0.3125,0 0,1.84375 -1.6875,0 0,-1.84375 -0.3125,0 z m 0.3125,2.15625 1.6875,0 0,1.6875 -1.6875,0 0,-1.6875 z m 2,0 1.6875,0 0,1.6875 -1.6875,0 0,-1.6875 z m 2,0 1.6875,0 0,1.6875 -1.6875,0 0,-1.6875 z m 2,0 1.6875,0 0,1.6875 -1.6875,0 0,-1.6875 z m 2,0 1.6875,0 0,1.6875 -1.6875,0 0,-1.6875 z m 2,0 1.6875,0 0,1.6875 -1.6875,0 0,-1.6875 z m 2,0 1.6875,0 0,1.6875 -1.6875,0 0,-1.6875 z m 2,0 1.6875,0 0,1.6875 -1.6875,0 0,-1.6875 z m 2,0 1.6875,0 0,1.6875 -1.6875,0 0,-1.6875 z m 2,0 1.6875,0 0,1.6875 -1.6875,0 0,-1.6875 z m 2,0 1.6875,0 0,1.6875 -1.6875,0 0,-1.6875 z m 2,0 1.6875,0 0,1.6875 -1.6875,0 0,-1.6875 z m 2,0 1.6875,0 0,1.6875 -1.6875,0 0,-1.6875 z m 2,0 1.6875,0 0,1.6875 -1.6875,0 0,-1.6875 z m 2,0 1.6875,0 0,1.6875 -1.6875,0 0,-1.6875 z m 2,0 1.6875,0 0,1.6875 -1.6875,0 0,-1.6875 z m 2,0 1.6875,0 0,1.6875 -1.6875,0 0,-1.6875 z m 2,0 1.6875,0 0,1.6875 -1.6875,0 0,-1.6875 z m -34,2 1.6875,0 0,1.6875 -1.6875,0 0,-1.6875 z m 2,0 1.6875,0 0,1.6875 -1.6875,0 0,-1.6875 z m 2,0 1.6875,0 0,1.6875 -1.6875,0 0,-1.6875 z m 2,0 1.6875,0 0,1.6875 -1.6875,0 0,-1.6875 z m 2,0 1.6875,0 0,1.6875 -1.6875,0 0,-1.6875 z m 2,0 1.6875,0 0,1.6875 -1.6875,0 0,-1.6875 z m 2,0 1.6875,0 0,1.6875 -1.6875,0 0,-1.6875 z m 2,0 1.6875,0 0,1.6875 -1.6875,0 0,-1.6875 z m 2,0 1.6875,0 0,1.6875 -1.6875,0 0,-1.6875 z m 2,0 1.6875,0 0,1.6875 -1.6875,0 0,-1.6875 z m 2,0 1.6875,0 0,1.6875 -1.6875,0 0,-1.6875 z m 2,0 1.6875,0 0,1.6875 -1.6875,0 0,-1.6875 z m 2,0 1.6875,0 0,1.6875 -1.6875,0 0,-1.6875 z m 2,0 1.6875,0 0,1.6875 -1.6875,0 0,-1.6875 z m 2,0 1.6875,0 0,1.6875 -1.6875,0 0,-1.6875 z m 2,0 1.6875,0 0,1.6875 -1.6875,0 0,-1.6875 z m 2,0 1.6875,0 0,1.6875 -1.6875,0 0,-1.6875 z m 2,0 1.6875,0 0,1.6875 -1.6875,0 0,-1.6875 z m -34,2 1.6875,0 0,1.6875 -1.6875,0 0,-1.6875 z m 2,0 1.6875,0 0,1.6875 -1.6875,0 0,-1.6875 z m 2,0 1.6875,0 0,1.6875 -1.6875,0 0,-1.6875 z m 2,0 1.6875,0 0,1.6875 -1.6875,0 0,-1.6875 z m 2,0 1.6875,0 0,1.6875 -1.6875,0 0,-1.6875 z m 2,0 1.6875,0 0,1.6875 -1.6875,0 0,-1.6875 z m 2,0 1.6875,0 0,1.6875 -1.6875,0 0,-1.6875 z m 2,0 1.6875,0 0,1.6875 -1.6875,0 0,-1.6875 z m 2,0 1.6875,0 0,1.6875 -1.6875,0 0,-1.6875 z m 2,0 1.6875,0 0,1.6875 -1.6875,0 0,-1.6875 z m 2,0 1.6875,0 0,1.6875 -1.6875,0 0,-1.6875 z m 2,0 1.6875,0 0,1.6875 -1.6875,0 0,-1.6875 z m 2,0 1.6875,0 0,1.6875 -1.6875,0 0,-1.6875 z m 2,0 1.6875,0 0,1.6875 -1.6875,0 0,-1.6875 z m 2,0 1.6875,0 0,1.6875 -1.6875,0 0,-1.6875 z m 2,0 1.6875,0 0,1.6875 -1.6875,0 0,-1.6875 z m 2,0 1.6875,0 0,1.6875 -1.6875,0 0,-1.6875 z m 2,0 1.6875,0 0,1.6875 -1.6875,0 0,-1.6875 z m -34,2 1.6875,0 0,1.6875 -1.6875,0 0,-1.6875 z m 2,0 1.6875,0 0,1.6875 -1.6875,0 0,-1.6875 z m 2,0 1.6875,0 0,1.6875 -1.6875,0 0,-1.6875 z m 2,0 1.6875,0 0,1.6875 -1.6875,0 0,-1.6875 z m 2,0 1.6875,0 0,1.6875 -1.6875,0 0,-1.6875 z m 2,0 1.6875,0 0,1.6875 -1.6875,0 0,-1.6875 z m 2,0 1.6875,0 0,1.6875 -1.6875,0 0,-1.6875 z m 2,0 1.6875,0 0,1.6875 -1.6875,0 0,-1.6875 z m 2,0 1.6875,0 0,1.6875 -1.6875,0 0,-1.6875 z m 2,0 1.6875,0 0,1.6875 -1.6875,0 0,-1.6875 z m 2,0 1.6875,0 0,1.6875 -1.6875,0 0,-1.6875 z m 2,0 1.6875,0 0,1.6875 -1.6875,0 0,-1.6875 z m 2,0 1.6875,0 0,1.6875 -1.6875,0 0,-1.6875 z m 2,0 1.6875,0 0,1.6875 -1.6875,0 0,-1.6875 z m 2,0 1.6875,0 0,1.6875 -1.6875,0 0,-1.6875 z m 2,0 1.6875,0 0,1.6875 -1.6875,0 0,-1.6875 z m 2,0 1.6875,0 0,1.6875 -1.6875,0 0,-1.6875 z m 2,0 1.6875,0 0,1.6875 -1.6875,0 0,-1.6875 z m -34,2 1.6875,0 0,1.6875 -1.6875,0 0,-1.6875 z m 2,0 1.6875,0 0,1.6875 -1.6875,0 0,-1.6875 z m 2,0 1.6875,0 0,1.6875 -1.6875,0 0,-1.6875 z m 2,0 1.6875,0 0,1.6875 -1.6875,0 0,-1.6875 z m 2,0 1.6875,0 0,1.6875 -1.6875,0 0,-1.6875 z m 2,0 1.6875,0 0,1.6875 -1.6875,0 0,-1.6875 z m 2,0 1.6875,0 0,1.6875 -1.6875,0 0,-1.6875 z m 2,0 1.6875,0 0,1.6875 -1.6875,0 0,-1.6875 z m 2,0 1.6875,0 0,1.6875 -1.6875,0 0,-1.6875 z m 2,0 1.6875,0 0,1.6875 -1.6875,0 0,-1.6875 z m 2,0 1.6875,0 0,1.6875 -1.6875,0 0,-1.6875 z m 2,0 1.6875,0 0,1.6875 -1.6875,0 0,-1.6875 z m 2,0 1.6875,0 0,1.6875 -1.6875,0 0,-1.6875 z m 2,0 1.6875,0 0,1.6875 -1.6875,0 0,-1.6875 z m 2,0 1.6875,0 0,1.6875 -1.6875,0 0,-1.6875 z m 2,0 1.6875,0 0,1.6875 -1.6875,0 0,-1.6875 z m 2,0 1.6875,0 0,1.6875 -1.6875,0 0,-1.6875 z m 2,0 1.6875,0 0,1.6875 -1.6875,0 0,-1.6875 z m -34,2 1.6875,0 0,1.6875 -1.6875,0 0,-1.6875 z m 2,0 1.6875,0 0,1.6875 -1.6875,0 0,-1.6875 z m 2,0 1.6875,0 0,1.6875 -1.6875,0 0,-1.6875 z m 2,0 1.6875,0 0,1.6875 -1.6875,0 0,-1.6875 z m 2,0 1.6875,0 0,1.6875 -1.6875,0 0,-1.6875 z m 2,0 1.6875,0 0,1.6875 -1.6875,0 0,-1.6875 z m 2,0 1.6875,0 0,1.6875 -1.6875,0 0,-1.6875 z m 2,0 1.6875,0 0,1.6875 -1.6875,0 0,-1.6875 z m 2,0 1.6875,0 0,1.6875 -1.6875,0 0,-1.6875 z m 2,0 1.6875,0 0,1.6875 -1.6875,0 0,-1.6875 z m 2,0 1.6875,0 0,1.6875 -1.6875,0 0,-1.6875 z m 2,0 1.6875,0 0,1.6875 -1.6875,0 0,-1.6875 z m 2,0 1.6875,0 0,1.6875 -1.6875,0 0,-1.6875 z m 2,0 1.6875,0 0,1.6875 -1.6875,0 0,-1.6875 z m 2,0 1.6875,0 0,1.6875 -1.6875,0 0,-1.6875 z m 2,0 1.6875,0 0,1.6875 -1.6875,0 0,-1.6875 z m 2,0 1.6875,0 0,1.6875 -1.6875,0 0,-1.6875 z m 2,0 1.6875,0 0,1.6875 -1.6875,0 0,-1.6875 z m -34,2 1.6875,0 0,1.6875 -1.6875,0 0,-1.6875 z m 2,0 1.6875,0 0,1.6875 -1.6875,0 0,-1.6875 z m 2,0 1.6875,0 0,1.6875 -1.6875,0 0,-1.6875 z m 2,0 1.6875,0 0,1.6875 -1.6875,0 0,-1.6875 z m 2,0 1.6875,0 0,1.6875 -1.6875,0 0,-1.6875 z m 2,0 1.6875,0 0,1.6875 -1.6875,0 0,-1.6875 z m 2,0 1.6875,0 0,1.6875 -1.6875,0 0,-1.6875 z m 2,0 1.6875,0 0,1.6875 -1.6875,0 0,-1.6875 z m 2,0 1.6875,0 0,1.6875 -1.6875,0 0,-1.6875 z m 2,0 1.6875,0 0,1.6875 -1.6875,0 0,-1.6875 z m 2,0 1.6875,0 0,1.6875 -1.6875,0 0,-1.6875 z m 2,0 1.6875,0 0,1.6875 -1.6875,0 0,-1.6875 z m 2,0 1.6875,0 0,1.6875 -1.6875,0 0,-1.6875 z m 2,0 1.6875,0 0,1.6875 -1.6875,0 0,-1.6875 z m 2,0 1.6875,0 0,1.6875 -1.6875,0 0,-1.6875 z m 2,0 1.6875,0 0,1.6875 -1.6875,0 0,-1.6875 z m 2,0 1.6875,0 0,1.6875 -1.6875,0 0,-1.6875 z m 2,0 1.6875,0 0,1.6875 -1.6875,0 0,-1.6875 z m -34,2 1.6875,0 0,1.6875 -1.6875,0 0,-1.6875 z m 2,0 1.6875,0 0,1.6875 -1.6875,0 0,-1.6875 z m 2,0 1.6875,0 0,1.6875 -1.6875,0 0,-1.6875 z m 2,0 1.6875,0 0,1.6875 -1.6875,0 0,-1.6875 z m 2,0 1.6875,0 0,1.6875 -1.6875,0 0,-1.6875 z m 2,0 1.6875,0 0,1.6875 -1.6875,0 0,-1.6875 z m 2,0 1.6875,0 0,1.6875 -1.6875,0 0,-1.6875 z m 2,0 1.6875,0 0,1.6875 -1.6875,0 0,-1.6875 z m 2,0 1.6875,0 0,1.6875 -1.6875,0 0,-1.6875 z m 2,0 1.6875,0 0,1.6875 -1.6875,0 0,-1.6875 z m 2,0 1.6875,0 0,1.6875 -1.6875,0 0,-1.6875 z m 2,0 1.6875,0 0,1.6875 -1.6875,0 0,-1.6875 z m 2,0 1.6875,0 0,1.6875 -1.6875,0 0,-1.6875 z m 2,0 1.6875,0 0,1.6875 -1.6875,0 0,-1.6875 z m 2,0 1.6875,0 0,1.6875 -1.6875,0 0,-1.6875 z m 2,0 1.6875,0 0,1.6875 -1.6875,0 0,-1.6875 z m 2,0 1.6875,0 0,1.6875 -1.6875,0 0,-1.6875 z m 2,0 1.6875,0 0,1.6875 -1.6875,0 0,-1.6875 z m -34,2 1.6875,0 0,1.6875 -1.6875,0 0,-1.6875 z m 2,0 1.6875,0 0,1.6875 -1.6875,0 0,-1.6875 z m 2,0 1.6875,0 0,1.6875 -1.6875,0 0,-1.6875 z m 2,0 1.6875,0 0,1.6875 -1.6875,0 0,-1.6875 z m 2,0 1.6875,0 0,1.6875 -1.6875,0 0,-1.6875 z m 2,0 1.6875,0 0,1.6875 -1.6875,0 0,-1.6875 z m 2,0 1.6875,0 0,1.6875 -1.6875,0 0,-1.6875 z m 2,0 1.6875,0 0,1.6875 -1.6875,0 0,-1.6875 z m 2,0 1.6875,0 0,1.6875 -1.6875,0 0,-1.6875 z m 2,0 1.6875,0 0,1.6875 -1.6875,0 0,-1.6875 z m 2,0 1.6875,0 0,1.6875 -1.6875,0 0,-1.6875 z m 2,0 1.6875,0 0,1.6875 -1.6875,0 0,-1.6875 z m 2,0 1.6875,0 0,1.6875 -1.6875,0 0,-1.6875 z m 2,0 1.6875,0 0,1.6875 -1.6875,0 0,-1.6875 z m 2,0 1.6875,0 0,1.6875 -1.6875,0 0,-1.6875 z m 2,0 1.6875,0 0,1.6875 -1.6875,0 0,-1.6875 z m 2,0 1.6875,0 0,1.6875 -1.6875,0 0,-1.6875 z m 2,0 1.6875,0 0,1.6875 -1.6875,0 0,-1.6875 z m -34,2 1.6875,0 0,1.6875 -1.6875,0 0,-1.6875 z m 2,0 1.6875,0 0,1.6875 -1.6875,0 0,-1.6875 z m 2,0 1.6875,0 0,1.6875 -1.6875,0 0,-1.6875 z m 2,0 1.6875,0 0,1.6875 -1.6875,0 0,-1.6875 z m 2,0 1.6875,0 0,1.6875 -1.6875,0 0,-1.6875 z m 2,0 1.6875,0 0,1.6875 -1.6875,0 0,-1.6875 z m 2,0 1.6875,0 0,1.6875 -1.6875,0 0,-1.6875 z m 2,0 1.6875,0 0,1.6875 -1.6875,0 0,-1.6875 z m 2,0 1.6875,0 0,1.6875 -1.6875,0 0,-1.6875 z m 2,0 1.6875,0 0,1.6875 -1.6875,0 0,-1.6875 z m 2,0 1.6875,0 0,1.6875 -1.6875,0 0,-1.6875 z m 2,0 1.6875,0 0,1.6875 -1.6875,0 0,-1.6875 z m 2,0 1.6875,0 0,1.6875 -1.6875,0 0,-1.6875 z m 2,0 1.6875,0 0,1.6875 -1.6875,0 0,-1.6875 z m 2,0 1.6875,0 0,1.6875 -1.6875,0 0,-1.6875 z m 2,0 1.6875,0 0,1.6875 -1.6875,0 0,-1.6875 z m 2,0 1.6875,0 0,1.6875 -1.6875,0 0,-1.6875 z m 2,0 1.6875,0 0,1.6875 -1.6875,0 0,-1.6875 z m -34,2 1.6875,0 0,1.6875 -1.6875,0 0,-1.6875 z m 2,0 1.6875,0 0,1.6875 -1.6875,0 0,-1.6875 z m 2,0 1.6875,0 0,1.6875 -1.6875,0 0,-1.6875 z m 2,0 1.6875,0 0,1.6875 -1.6875,0 0,-1.6875 z m 2,0 1.6875,0 0,1.6875 -1.6875,0 0,-1.6875 z m 2,0 1.6875,0 0,1.6875 -1.6875,0 0,-1.6875 z m 2,0 1.6875,0 0,1.6875 -1.6875,0 0,-1.6875 z m 2,0 1.6875,0 0,1.6875 -1.6875,0 0,-1.6875 z m 2,0 1.6875,0 0,1.6875 -1.6875,0 0,-1.6875 z m 2,0 1.6875,0 0,1.6875 -1.6875,0 0,-1.6875 z m 2,0 1.6875,0 0,1.6875 -1.6875,0 0,-1.6875 z m 2,0 1.6875,0 0,1.6875 -1.6875,0 0,-1.6875 z m 2,0 1.6875,0 0,1.6875 -1.6875,0 0,-1.6875 z m 2,0 1.6875,0 0,1.6875 -1.6875,0 0,-1.6875 z m 2,0 1.6875,0 0,1.6875 -1.6875,0 0,-1.6875 z m 2,0 1.6875,0 0,1.6875 -1.6875,0 0,-1.6875 z m 2,0 1.6875,0 0,1.6875 -1.6875,0 0,-1.6875 z m 2,0 1.6875,0 0,1.6875 -1.6875,0 0,-1.6875 z m -34,2 1.6875,0 0,1.6875 -1.6875,0 0,-1.6875 z m 2,0 1.6875,0 0,1.6875 -1.6875,0 0,-1.6875 z m 2,0 1.6875,0 0,1.6875 -1.6875,0 0,-1.6875 z m 2,0 1.6875,0 0,1.6875 -1.6875,0 0,-1.6875 z m 2,0 1.6875,0 0,1.6875 -1.6875,0 0,-1.6875 z m 2,0 1.6875,0 0,1.6875 -1.6875,0 0,-1.6875 z m 2,0 1.6875,0 0,1.6875 -1.6875,0 0,-1.6875 z m 2,0 1.6875,0 0,1.6875 -1.6875,0 0,-1.6875 z m 2,0 1.6875,0 0,1.6875 -1.6875,0 0,-1.6875 z m 2,0 1.6875,0 0,1.6875 -1.6875,0 0,-1.6875 z m 2,0 1.6875,0 0,1.6875 -1.6875,0 0,-1.6875 z m 2,0 1.6875,0 0,1.6875 -1.6875,0 0,-1.6875 z m 2,0 1.6875,0 0,1.6875 -1.6875,0 0,-1.6875 z m 2,0 1.6875,0 0,1.6875 -1.6875,0 0,-1.6875 z m 2,0 1.6875,0 0,1.6875 -1.6875,0 0,-1.6875 z m 2,0 1.6875,0 0,1.6875 -1.6875,0 0,-1.6875 z m 2,0 1.6875,0 0,1.6875 -1.6875,0 0,-1.6875 z m 2,0 1.6875,0 0,1.6875 -1.6875,0 0,-1.6875 z m -34,2 1.6875,0 0,1.6875 -1.6875,0 0,-1.6875 z m 2,0 1.6875,0 0,1.6875 -1.6875,0 0,-1.6875 z m 2,0 1.6875,0 0,1.6875 -1.6875,0 0,-1.6875 z m 2,0 1.6875,0 0,1.6875 -1.6875,0 0,-1.6875 z m 2,0 1.6875,0 0,1.6875 -1.6875,0 0,-1.6875 z m 2,0 1.6875,0 0,1.6875 -1.6875,0 0,-1.6875 z m 2,0 1.6875,0 0,1.6875 -1.6875,0 0,-1.6875 z m 2,0 1.6875,0 0,1.6875 -1.6875,0 0,-1.6875 z m 2,0 1.6875,0 0,1.6875 -1.6875,0 0,-1.6875 z m 2,0 1.6875,0 0,1.6875 -1.6875,0 0,-1.6875 z m 2,0 1.6875,0 0,1.6875 -1.6875,0 0,-1.6875 z m 2,0 1.6875,0 0,1.6875 -1.6875,0 0,-1.6875 z m 2,0 1.6875,0 0,1.6875 -1.6875,0 0,-1.6875 z m 2,0 1.6875,0 0,1.6875 -1.6875,0 0,-1.6875 z m 2,0 1.6875,0 0,1.6875 -1.6875,0 0,-1.6875 z m 2,0 1.6875,0 0,1.6875 -1.6875,0 0,-1.6875 z m 2,0 1.6875,0 0,1.6875 -1.6875,0 0,-1.6875 z m 2,0 1.6875,0 0,1.6875 -1.6875,0 0,-1.6875 z m -34,2 1.6875,0 0,1.6875 -1.6875,0 0,-1.6875 z m 2,0 1.6875,0 0,1.6875 -1.6875,0 0,-1.6875 z m 2,0 1.6875,0 0,1.6875 -1.6875,0 0,-1.6875 z m 2,0 1.6875,0 0,1.6875 -1.6875,0 0,-1.6875 z m 2,0 1.6875,0 0,1.6875 -1.6875,0 0,-1.6875 z m 2,0 1.6875,0 0,1.6875 -1.6875,0 0,-1.6875 z m 2,0 1.6875,0 0,1.6875 -1.6875,0 0,-1.6875 z m 2,0 1.6875,0 0,1.6875 -1.6875,0 0,-1.6875 z m 2,0 1.6875,0 0,1.6875 -1.6875,0 0,-1.6875 z m 2,0 1.6875,0 0,1.6875 -1.6875,0 0,-1.6875 z m 2,0 1.6875,0 0,1.6875 -1.6875,0 0,-1.6875 z m 2,0 1.6875,0 0,1.6875 -1.6875,0 0,-1.6875 z m 2,0 1.6875,0 0,1.6875 -1.6875,0 0,-1.6875 z m 2,0 1.6875,0 0,1.6875 -1.6875,0 0,-1.6875 z m 2,0 1.6875,0 0,1.6875 -1.6875,0 0,-1.6875 z m 2,0 1.6875,0 0,1.6875 -1.6875,0 0,-1.6875 z m 2,0 1.6875,0 0,1.6875 -1.6875,0 0,-1.6875 z m 2,0 1.6875,0 0,1.6875 -1.6875,0 0,-1.6875 z m -34,2 1.6875,0 0,1.6875 -1.6875,0 0,-1.6875 z m 2,0 1.6875,0 0,1.6875 -1.6875,0 0,-1.6875 z m 2,0 1.6875,0 0,1.6875 -1.6875,0 0,-1.6875 z m 2,0 1.6875,0 0,1.6875 -1.6875,0 0,-1.6875 z m 2,0 1.6875,0 0,1.6875 -1.6875,0 0,-1.6875 z m 2,0 1.6875,0 0,1.6875 -1.6875,0 0,-1.6875 z m 2,0 1.6875,0 0,1.6875 -1.6875,0 0,-1.6875 z m 2,0 1.6875,0 0,1.6875 -1.6875,0 0,-1.6875 z m 2,0 1.6875,0 0,1.6875 -1.6875,0 0,-1.6875 z m 2,0 1.6875,0 0,1.6875 -1.6875,0 0,-1.6875 z m 2,0 1.6875,0 0,1.6875 -1.6875,0 0,-1.6875 z m 2,0 1.6875,0 0,1.6875 -1.6875,0 0,-1.6875 z m 2,0 1.6875,0 0,1.6875 -1.6875,0 0,-1.6875 z m 2,0 1.6875,0 0,1.6875 -1.6875,0 0,-1.6875 z m 2,0 1.6875,0 0,1.6875 -1.6875,0 0,-1.6875 z m 2,0 1.6875,0 0,1.6875 -1.6875,0 0,-1.6875 z m 2,0 1.6875,0 0,1.6875 -1.6875,0 0,-1.6875 z m 2,0 1.6875,0 0,1.6875 -1.6875,0 0,-1.6875 z m -34,2 1.6875,0 0,1.6875 -1.6875,0 0,-1.6875 z m 2,0 1.6875,0 0,1.6875 -1.6875,0 0,-1.6875 z m 2,0 1.6875,0 0,1.6875 -1.6875,0 0,-1.6875 z m 2,0 1.6875,0 0,1.6875 -1.6875,0 0,-1.6875 z m 2,0 1.6875,0 0,1.6875 -1.6875,0 0,-1.6875 z m 2,0 1.6875,0 0,1.6875 -1.6875,0 0,-1.6875 z m 2,0 1.6875,0 0,1.6875 -1.6875,0 0,-1.6875 z m 2,0 1.6875,0 0,1.6875 -1.6875,0 0,-1.6875 z m 2,0 1.6875,0 0,1.6875 -1.6875,0 0,-1.6875 z m 2,0 1.6875,0 0,1.6875 -1.6875,0 0,-1.6875 z m 2,0 1.6875,0 0,1.6875 -1.6875,0 0,-1.6875 z m 2,0 1.6875,0 0,1.6875 -1.6875,0 0,-1.6875 z m 2,0 1.6875,0 0,1.6875 -1.6875,0 0,-1.6875 z m 2,0 1.6875,0 0,1.6875 -1.6875,0 0,-1.6875 z m 2,0 1.6875,0 0,1.6875 -1.6875,0 0,-1.6875 z m 2,0 1.6875,0 0,1.6875 -1.6875,0 0,-1.6875 z m 2,0 1.6875,0 0,1.6875 -1.6875,0 0,-1.6875 z m 2,0 1.6875,0 0,1.6875 -1.6875,0 0,-1.6875 z m -34,2 1.6875,0 0,1.6875 -1.6875,0 0,-1.6875 z m 2,0 1.6875,0 0,1.6875 -1.6875,0 0,-1.6875 z m 2,0 1.6875,0 0,1.6875 -1.6875,0 0,-1.6875 z m 2,0 1.6875,0 0,1.6875 -1.6875,0 0,-1.6875 z m 2,0 1.6875,0 0,1.6875 -1.6875,0 0,-1.6875 z m 2,0 1.6875,0 0,1.6875 -1.6875,0 0,-1.6875 z m 2,0 1.6875,0 0,1.6875 -1.6875,0 0,-1.6875 z m 2,0 1.6875,0 0,1.6875 -1.6875,0 0,-1.6875 z m 2,0 1.6875,0 0,1.6875 -1.6875,0 0,-1.6875 z m 2,0 1.6875,0 0,1.6875 -1.6875,0 0,-1.6875 z m 2,0 1.6875,0 0,1.6875 -1.6875,0 0,-1.6875 z m 2,0 1.6875,0 0,1.6875 -1.6875,0 0,-1.6875 z m 2,0 1.6875,0 0,1.6875 -1.6875,0 0,-1.6875 z m 2,0 1.6875,0 0,1.6875 -1.6875,0 0,-1.6875 z m 2,0 1.6875,0 0,1.6875 -1.6875,0 0,-1.6875 z m 2,0 1.6875,0 0,1.6875 -1.6875,0 0,-1.6875 z m 2,0 1.6875,0 0,1.6875 -1.6875,0 0,-1.6875 z m 2,0 1.6875,0 0,1.6875 -1.6875,0 0,-1.6875 z m -34,2 1.6875,0 0,1.6875 -1.6875,0 0,-1.6875 z m 2,0 1.6875,0 0,1.6875 -1.6875,0 0,-1.6875 z m 2,0 1.6875,0 0,1.6875 -1.6875,0 0,-1.6875 z m 2,0 1.6875,0 0,1.6875 -1.6875,0 0,-1.6875 z m 2,0 1.6875,0 0,1.6875 -1.6875,0 0,-1.6875 z m 2,0 1.6875,0 0,1.6875 -1.6875,0 0,-1.6875 z m 2,0 1.6875,0 0,1.6875 -1.6875,0 0,-1.6875 z m 2,0 1.6875,0 0,1.6875 -1.6875,0 0,-1.6875 z m 2,0 1.6875,0 0,1.6875 -1.6875,0 0,-1.6875 z m 2,0 1.6875,0 0,1.6875 -1.6875,0 0,-1.6875 z m 2,0 1.6875,0 0,1.6875 -1.6875,0 0,-1.6875 z m 2,0 1.6875,0 0,1.6875 -1.6875,0 0,-1.6875 z m 2,0 1.6875,0 0,1.6875 -1.6875,0 0,-1.6875 z m 2,0 1.6875,0 0,1.6875 -1.6875,0 0,-1.6875 z m 2,0 1.6875,0 0,1.6875 -1.6875,0 0,-1.6875 z m 2,0 1.6875,0 0,1.6875 -1.6875,0 0,-1.6875 z m 2,0 1.6875,0 0,1.6875 -1.6875,0 0,-1.6875 z m 2,0 1.6875,0 0,1.6875 -1.6875,0 0,-1.6875 z"
       id="rect4953" />
    <rect
       style="font-size:24px;font-style:normal;font-variant:normal;font-weight:normal;font-stretch:normal;line-height:125%;letter-spacing:-0.03px;word-spacing:0px;fill:url(#linearGradient4871);fill-opacity:1;stroke:none;font-family:Derivia;-inkscape-font-specification:Derivia"
       id="rect4869"
       width="2.2"
       height="5"
       x="506.59808"
       y="-421.07144"
       ry="0.2596879"
       transform="matrix(0,1,-1,0,0,0)" />
    <rect
       transform="matrix(0,1,-1,0,0,0)"
       ry="0.2596879"
       y="-401.07144"
       x="506.59808"
       height="5"
       width="2.2"
       id="rect4855"
       style="font-size:24px;font-style:normal;font-variant:normal;font-weight:normal;font-stretch:normal;line-height:125%;letter-spacing:-0.03px;word-spacing:0px;fill:url(#linearGradient4863);fill-opacity:1;stroke:none;font-family:Derivia;-inkscape-font-specification:Derivia" />
    <rect
       transform="matrix(0,1,-1,0,0,0)"
       ry="0.41771603"
       y="-418.31143"
       x="503.39813"
       height="1.48"
       width="5"
       id="rect4833"
       style="font-size:24px;font-style:normal;font-variant:normal;font-weight:normal;font-stretch:normal;line-height:125%;letter-spacing:-0.03px;word-spacing:0px;fill:#000000;fill-opacity:0.23529412;stroke:none;font-family:Derivia;-inkscape-font-specification:Derivia" />
    <rect
       style="font-size:24px;font-style:normal;font-variant:normal;font-weight:normal;font-stretch:normal;line-height:125%;letter-spacing:-0.03px;word-spacing:0px;fill:#000000;fill-opacity:0.23529412;stroke:none;font-family:Derivia;-inkscape-font-specification:Derivia"
       id="rect4829"
       width="5"
       height="1.1799999"
       x="503.09808"
       y="-418.16144"
       ry="0.33304384"
       transform="matrix(0,1,-1,0,0,0)" />
    <rect
       style="font-size:24px;font-style:normal;font-variant:normal;font-weight:normal;font-stretch:normal;line-height:125%;letter-spacing:-0.03px;word-spacing:0px;fill:#000000;fill-opacity:0.23529412;stroke:none;font-family:Derivia;-inkscape-font-specification:Derivia"
       id="rect4835"
       width="5"
       height="1.48"
       x="503.39813"
       y="-420.31143"
       ry="0.41771603"
       transform="matrix(0,1,-1,0,0,0)" />
    <rect
       transform="matrix(0,1,-1,0,0,0)"
       ry="0.33304384"
       y="-420.16144"
       x="503.09808"
       height="1.1799999"
       width="5"
       id="rect4837"
       style="font-size:24px;font-style:normal;font-variant:normal;font-weight:normal;font-stretch:normal;line-height:125%;letter-spacing:-0.03px;word-spacing:0px;fill:#000000;fill-opacity:0.23529412;stroke:none;font-family:Derivia;-inkscape-font-specification:Derivia" />
    <rect
       transform="matrix(0,1,-1,0,0,0)"
       ry="0.41771603"
       y="-400.31143"
       x="503.39813"
       height="1.48"
       width="5"
       id="rect4847"
       style="font-size:24px;font-style:normal;font-variant:normal;font-weight:normal;font-stretch:normal;line-height:125%;letter-spacing:-0.03px;word-spacing:0px;fill:#000000;fill-opacity:0.23529412;stroke:none;font-family:Derivia;-inkscape-font-specification:Derivia" />
    <rect
       style="font-size:24px;font-style:normal;font-variant:normal;font-weight:normal;font-stretch:normal;line-height:125%;letter-spacing:-0.03px;word-spacing:0px;fill:#000000;fill-opacity:0.23529412;stroke:none;font-family:Derivia;-inkscape-font-specification:Derivia"
       id="rect4849"
       width="5"
       height="1.1799999"
       x="503.09808"
       y="-400.16144"
       ry="0.33304384"
       transform="matrix(0,1,-1,0,0,0)" />
    <rect
       style="font-size:24px;font-style:normal;font-variant:normal;font-weight:normal;font-stretch:normal;line-height:125%;letter-spacing:-0.03px;word-spacing:0px;fill:#000000;fill-opacity:0.23529412;stroke:none;font-family:Derivia;-inkscape-font-specification:Derivia"
       id="rect4851"
       width="5"
       height="1.48"
       x="503.39813"
       y="-398.31143"
       ry="0.41771603"
       transform="matrix(0,1,-1,0,0,0)" />
    <rect
       transform="matrix(0,1,-1,0,0,0)"
       ry="0.33304384"
       y="-398.16144"
       x="503.09808"
       height="1.1799999"
       width="5"
       id="rect4853"
       style="font-size:24px;font-style:normal;font-variant:normal;font-weight:normal;font-stretch:normal;line-height:125%;letter-spacing:-0.03px;word-spacing:0px;fill:#000000;fill-opacity:0.23529412;stroke:none;font-family:Derivia;-inkscape-font-specification:Derivia" />
    <g
       id="g4873"
       transform="translate(384.94692,-505.0641)">
      <rect
         transform="matrix(0,1,-1,0,0,0)"
         ry="0.19756836"
         y="-34.97451"
         x="1007.8621"
         height="0.69999999"
         width="5"
         id="rect4202"
         style="font-size:24px;font-style:normal;font-variant:normal;font-weight:normal;font-stretch:normal;line-height:125%;letter-spacing:-0.03px;word-spacing:0px;fill:url(#linearGradient4768);fill-opacity:1;stroke:none;font-family:Derivia;-inkscape-font-specification:Derivia" />
      <rect
         style="font-size:24px;font-style:normal;font-variant:normal;font-weight:normal;font-stretch:normal;line-height:125%;letter-spacing:-0.03px;word-spacing:0px;fill:url(#linearGradient4772);fill-opacity:1;stroke:none;font-family:Derivia;-inkscape-font-specification:Derivia"
         id="rect4770"
         width="5"
         height="0.69999999"
         x="1007.8621"
         y="-32.97451"
         ry="0.19756836"
         transform="matrix(0,1,-1,0,0,0)" />
    </g>
    <g
       id="g4865"
       transform="translate(384.94692,-505.0641)">
      <rect
         style="font-size:24px;font-style:normal;font-variant:normal;font-weight:normal;font-stretch:normal;line-height:125%;letter-spacing:-0.03px;word-spacing:0px;fill:url(#linearGradient4788);fill-opacity:1;stroke:none;font-family:Derivia;-inkscape-font-specification:Derivia"
         id="rect4786"
         width="5"
         height="0.69999999"
         x="1007.8621"
         y="-12.97451"
         ry="0.19756836"
         transform="matrix(0,1,-1,0,0,0)" />
      <rect
         transform="matrix(0,1,-1,0,0,0)"
         ry="0.19756836"
         y="-14.97451"
         x="1007.8621"
         height="0.69999999"
         width="5"
         id="rect4790"
         style="font-size:24px;font-style:normal;font-variant:normal;font-weight:normal;font-stretch:normal;line-height:125%;letter-spacing:-0.03px;word-spacing:0px;fill:url(#linearGradient4792);fill-opacity:1;stroke:none;font-family:Derivia;-inkscape-font-specification:Derivia" />
    </g>
    <path
       style="font-size:24px;font-style:normal;font-variant:normal;font-weight:normal;font-stretch:normal;line-height:125%;letter-spacing:-0.03px;word-spacing:0px;fill:#000000;fill-opacity:0.23529412;stroke:none;font-family:Derivia;-inkscape-font-specification:Derivia"
       d="m 417.41567,502.7981 c -0.10945,0 -0.1875,0.078 -0.1875,0.1875 l 0,4.625 c 0,0.1094 0.0781,0.1875 0.1875,0.1875 0.10945,0 0.21875,-0.078 0.21875,-0.1875 l 0,-4.625 c 0,-0.1095 -0.1093,-0.1875 -0.21875,-0.1875 z"
       id="rect4814"
       inkscape:connector-curvature="0" />
    <path
       id="path4819"
       d="m 419.40893,502.7981 c -0.10945,0 -0.1875,0.078 -0.1875,0.1875 l 0,4.625 c 0,0.1095 0.0781,0.1875 0.1875,0.1875 0.10945,0 0.21875,-0.078 0.21875,-0.1875 l 0,-4.625 c 0,-0.1095 -0.1093,-0.1875 -0.21875,-0.1875 z"
       style="font-size:24px;font-style:normal;font-variant:normal;font-weight:normal;font-stretch:normal;line-height:125%;letter-spacing:-0.03px;word-spacing:0px;fill:#000000;fill-opacity:0.23529412;stroke:none;font-family:Derivia;-inkscape-font-specification:Derivia"
       inkscape:connector-curvature="0" />
    <path
       id="path4825"
       d="m 399.40893,502.7981 c -0.10945,0 -0.1875,0.078 -0.1875,0.1875 l 0,4.625 c 0,0.1095 0.0781,0.1875 0.1875,0.1875 0.10945,0 0.21875,-0.078 0.21875,-0.1875 l 0,-4.625 c 0,-0.1095 -0.1093,-0.1875 -0.21875,-0.1875 z"
       style="font-size:24px;font-style:normal;font-variant:normal;font-weight:normal;font-stretch:normal;line-height:125%;letter-spacing:-0.03px;word-spacing:0px;fill:#000000;fill-opacity:0.23529412;stroke:none;font-family:Derivia;-inkscape-font-specification:Derivia"
       inkscape:connector-curvature="0" />
    <path
       inkscape:connector-curvature="0"
       style="font-size:24px;font-style:normal;font-variant:normal;font-weight:normal;font-stretch:normal;line-height:125%;letter-spacing:-0.03px;word-spacing:0px;fill:#000000;fill-opacity:0.23529412;stroke:none;font-family:Derivia;-inkscape-font-specification:Derivia"
       d="m 397.40893,502.7981 c -0.10945,0 -0.1875,0.078 -0.1875,0.1875 l 0,4.625 c 0,0.1095 0.0781,0.1875 0.1875,0.1875 0.10945,0 0.21875,-0.078 0.21875,-0.1875 l 0,-4.625 c 0,-0.1095 -0.1093,-0.1875 -0.21875,-0.1875 z"
       id="path4827" />
    <path
       inkscape:connector-curvature="0"
       style="fill:#000000;fill-opacity:0.31372549;stroke:none"
       d="m 388.57143,540.39177 0,1.78125 c 0,0.8977 0.72727,1.625 1.625,1.625 l 36.75,0 c 0.89773,0 1.625,-0.7273 1.625,-1.625 l 0,-1.78125 c 0,0.8977 -0.72727,1.59375 -1.625,1.59375 l -36.75,0 c -0.89773,0 -1.625,-0.69605 -1.625,-1.59375 z"
       id="path4943" />
    <path
       inkscape:connector-curvature="0"
       style="fill:#000000;fill-opacity:0.31372549;stroke:none"
       d="m 388.57143,541.57927 0,0.59375 c 0,0.8977 0.72727,1.625 1.625,1.625 l 36.75,0 c 0.89773,0 1.625,-0.7273 1.625,-1.625 l 0,-0.59375 c 0,0.8977 -0.72727,1.625 -1.625,1.625 l -36.75,0 c -0.89773,0 -1.625,-0.7273 -1.625,-1.625 z"
       id="path4948" />
    <path
       inkscape:connector-curvature="0"
       style="fill:#000000;fill-opacity:1;stroke:none"
       d="m 384.57143,544.79799 0,1.0625 c 0,1.0773 0.86022,1.9375 1.9375,1.9375 l 44.125,0 c 1.07728,0 1.9375,-0.8602 1.9375,-1.9375 l 0,-1.0625 c 0,1.0773 -0.86022,1.9375 -1.9375,1.9375 l -44.125,0 C 385.43165,546.73549 384.57143,545.87529 384.57143,544.79799 Z"
       id="rect846" />
    <path
       inkscape:connector-curvature="0"
       style="fill:#ffffff;fill-opacity:0.5372549;stroke:none"
       d="m 387.10268,500.45429 c -0.91709,0 -1.67115,0.6395 -1.84375,1.5 0.33561,-0.2799 0.77451,-0.4375 1.25,-0.4375 l 44.125,0 c 0.47549,0 0.91439,0.1576 1.25,0.4375 -0.1726,-0.8605 -0.92666,-1.5 -1.84375,-1.5 L 387.10268,500.45429 Z"
       id="path7515" />
    <path
       inkscape:connector-curvature="0"
       style="fill:#000000;fill-opacity:0.39215686;stroke:none"
       d="m 386.50893,499.79799 c -1.07728,0 -1.9375,0.8602 -1.9375,1.9375 l 0,43.0625 c 0,0.7934 0.48002,1.449 1.15625,1.75 -0.30934,-0.3333 -0.5,-0.7824 -0.5,-1.2812 l 0,-42.9375 c 0,-1.0482 0.8269,-1.875 1.875,-1.875 l 42.9375,0 c 1.0481,0 1.875,0.8268 1.875,1.875 l 0,42.9375 c 0,0.4988 -0.19066,0.9479 -0.5,1.2812 0.67623,-0.301 1.15625,-0.9566 1.15625,-1.75 l 0,-43.0625 c 0,-1.0773 -0.86022,-1.9375 -1.9375,-1.9375 L 386.50893,499.79799 Z"
       id="rect4280" />
    <path
       style="fill:#000000;fill-opacity:0.05882353"
       d="m 409.91323,509.59724 c 1.03594,1.94877 1.86824,3.77985 2.49804,5.49414 -1.29507,-0.0767 -2.53657,-0.12443 -3.66406,-0.10547 -12.46639,0.20966 -14.71957,6.30042 -6.82812,18.26367 0.74373,-0.13017 1.45696,-0.26694 2.13086,-0.4375 -2.36252,-8.30853 0.66591,-13.51727 9.03906,-15.63281 3.01679,10.60576 -2.70464,16.16699 -17.17969,16.67383 2.55023,0.42419 4.89063,0.72718 7.0332,0.91601 1.23263,1.75709 2.64895,3.63771 4.28711,5.62891 -1.03357,-1.94427 -1.88046,-3.77351 -2.50976,-5.48438 -0.49686,-0.0298 -1.01618,-0.0801 -1.53906,-0.12695 16.93054,1.43195 20.95798,-4.58378 12.0625,-18.0625 1.80142,-0.31338 3.78131,-0.52227 5.99023,-0.59961 -2.54516,-0.42336 -4.8805,-0.72405 -7.02148,-0.91211 -1.232,-1.75589 -2.66196,-3.62558 -4.29883,-5.61523 z"
       id="path4136-4"
       inkscape:connector-curvature="0" />
    <path
       inkscape:connector-curvature="0"
       id="path4134-4"
       d="m 409.91323,509.19724 c 1.03594,1.94877 1.86824,3.77985 2.49804,5.49414 -1.29507,-0.0767 -2.53657,-0.12443 -3.66406,-0.10547 -12.46639,0.20966 -14.71957,6.30042 -6.82812,18.26367 0.74373,-0.13017 1.45696,-0.26694 2.13086,-0.4375 -2.36252,-8.30853 0.66591,-13.51727 9.03906,-15.63281 3.01679,10.60576 -2.70464,16.16699 -17.17969,16.67383 2.55023,0.42419 4.89063,0.72718 7.0332,0.91601 1.23263,1.75709 2.64895,3.63771 4.28711,5.62891 -1.03357,-1.94427 -1.88046,-3.77351 -2.50976,-5.48438 -0.49686,-0.0298 -1.01618,-0.0801 -1.53906,-0.12695 16.93054,1.43195 20.95798,-4.58378 12.0625,-18.0625 1.80142,-0.31338 3.78131,-0.52227 5.99023,-0.59961 -2.54516,-0.42336 -4.8805,-0.72405 -7.02148,-0.91211 -1.232,-1.75589 -2.66196,-3.62558 -4.29883,-5.61523 z"
       style="fill:#000000;fill-opacity:0.11764706" />
    <path
       style="fill:#000000;fill-opacity:0.23529412"
       d="m 409.91323,508.79724 c 1.03594,1.94877 1.86824,3.77985 2.49804,5.49414 -1.29507,-0.0767 -2.53657,-0.12443 -3.66406,-0.10547 -12.46639,0.20966 -14.71957,6.30042 -6.82812,18.26367 0.74373,-0.13017 1.45696,-0.26694 2.13086,-0.4375 -2.36252,-8.30853 0.66591,-13.51727 9.03906,-15.63281 3.01679,10.60576 -2.70464,16.16699 -17.17969,16.67383 2.55023,0.42419 4.89063,0.72718 7.0332,0.91601 1.23263,1.75709 2.64895,3.63771 4.28711,5.62891 -1.03357,-1.94427 -1.88046,-3.77351 -2.50976,-5.48438 -0.49686,-0.0298 -1.01618,-0.0801 -1.53906,-0.12695 16.93054,1.43195 20.95798,-4.58378 12.0625,-18.0625 1.80142,-0.31338 3.78131,-0.52227 5.99023,-0.59961 -2.54516,-0.42336 -4.8805,-0.72405 -7.02148,-0.91211 -1.232,-1.75589 -2.66196,-3.62558 -4.29883,-5.61523 z"
       id="path4129-3"
       inkscape:connector-curvature="0" />
    <path
       inkscape:connector-curvature="0"
       style="fill:url(#linearGradient4273);fill-opacity:1"
       d="m 409.91376,508.39802 c 16.89279,20.53351 12.22473,28.61882 -14.00421,24.25598 17.60459,-0.61642 22.27265,-8.70175 14.00421,-24.25598 z"
       id="path4079-3" />
    <path
       inkscape:connector-curvature="0"
       style="fill:url(#linearGradient4265);fill-opacity:1"
       d="m 408.74634,513.78644 c -12.46639,0.20966 -14.71844,6.30041 -6.82699,18.26366 0.74373,-0.13017 1.45589,-0.26707 2.12979,-0.43763 -3.01526,-10.60411 2.71026,-16.18146 17.18417,-16.68819 -4.91792,-0.81805 -9.08504,-1.19506 -12.48697,-1.13784 z m -5.80586,19.78078 c 1.23298,1.7577 2.64993,3.6388 4.28875,5.6308 -1.03357,-1.94427 -1.87977,-3.77406 -2.50907,-5.48493 -0.57441,-0.0344 -1.17244,-0.0925 -1.77968,-0.14587 z"
       id="path4081-8" />
    <path
       inkscape:connector-curvature="0"
       style="fill:#000000;fill-opacity:0.31372549"
       d="m 409.91323,508.39763 c 0.87434,1.64478 1.59478,3.20009 2.17968,4.67773 0.10804,0.006 0.20954,0.009 0.31836,0.0156 -0.39508,-1.07539 -0.89838,-2.21332 -1.45312,-3.38086 -0.35015,-0.43909 -0.67358,-0.86112 -1.04492,-1.3125 z m 7.72461,5.99219 c -0.83025,0.0932 -1.63207,0.20134 -2.39454,0.33398 0.16631,0.252 0.29585,0.48369 0.45313,0.73047 1.68118,-0.27188 3.50889,-0.45829 5.53711,-0.5293 -1.24951,-0.20784 -2.4455,-0.38525 -3.5957,-0.53515 z m -4.54883,0.78906 c -6.59637,1.66662 -9.85924,5.26219 -9.79883,10.77148 0.25218,-5.06245 3.52399,-8.38531 9.79883,-9.9707 0.47823,1.68127 0.73444,3.23442 0.77344,4.66211 0.0529,-1.64159 -0.20435,-3.46221 -0.77344,-5.46289 z m -15.75781,5.17383 c -0.14966,2.77562 1.24676,6.44533 4.13671,10.97851 0.83182,-0.13327 1.61727,-0.29292 2.36524,-0.47461 -0.61242,0.14728 -1.24603,0.27566 -1.91406,0.39258 -2.9308,-4.44302 -4.45911,-8.07389 -4.58789,-10.89648 z m 22.48632,6.02734 c -0.26297,5.18559 -5.80416,7.32245 -16.63672,6.40625 0.52288,0.0469 1.04221,0.0972 1.53907,0.12695 0.0945,0.25692 0.20243,0.52291 0.30664,0.78516 10.10402,0.54722 15.05397,-1.88064 14.79101,-7.31836 z m -20.3164,6.00781 c -1.13786,0.12281 -2.31848,0.22104 -3.5918,0.26563 2.55022,0.42419 4.89063,0.72718 7.0332,0.91601 1.23263,1.75709 2.64895,3.63772 4.28711,5.62891 -0.39337,-0.73998 -0.73272,-1.44782 -1.07031,-2.1543 -0.93895,-1.18465 -1.80704,-2.32888 -2.5957,-3.42578 -0.12932,-0.0117 -0.25277,-0.0196 -0.38282,-0.0312 0.13195,0.0112 0.24658,0.0132 0.37696,0.0234 -0.1992,-0.27711 -0.42494,-0.57053 -0.61524,-0.84179 -1.09409,-0.0964 -2.24254,-0.22397 -3.4414,-0.38086 z"
       id="path4138-9" />
    <path
       inkscape:connector-curvature="0"
       style="fill:#ffffff;fill-opacity:0.23529412"
       d="m 409.91323,508.39763 c 0.19297,0.36301 0.34264,0.70179 0.52148,1.05664 1.40985,1.74009 2.68499,3.40212 3.77734,4.95898 1.5706,0.13796 3.28443,0.35795 5.07032,0.6211 0.63208,-0.0472 1.27797,-0.0858 1.95117,-0.10938 -2.54516,-0.42336 -4.8805,-0.72405 -7.02149,-0.91211 -1.23199,-1.75589 -2.66195,-3.62558 -4.29882,-5.61523 z m -1.16602,5.38867 c -7.80619,0.13129 -11.60609,2.56942 -11.41992,7.31055 0.0424,-4.47562 3.83862,-6.78266 11.41992,-6.91016 1.12749,-0.019 2.36899,0.0288 3.66406,0.10547 -0.0491,-0.1336 -0.10666,-0.27319 -0.1582,-0.4082 -1.2366,-0.0711 -2.42545,-0.11583 -3.50586,-0.0977 z m 6.72266,2.10352 c -0.0743,0.0125 -0.15288,0.0223 -0.22657,0.0352 2.989,4.52903 4.51236,8.21029 4.58399,11.05469 0.068,-2.81867 -1.39273,-6.51999 -4.35742,-11.08985 z m -1.60547,5.53711 c -0.16076,5.18781 -3.45005,8.56993 -9.81836,10.17382 -0.44082,-1.5532 -0.6918,-2.99755 -0.75586,-4.33398 0.0282,1.44862 0.26998,3.02241 0.75586,4.73437 6.52924,-1.64442 9.81429,-5.1625 9.81836,-10.57421 z m -10.07031,10.63867 c -0.59805,0.14253 -1.21447,0.26882 -1.86524,0.38281 0.64725,-0.11298 1.27074,-0.23937 1.86524,-0.38281 z m -2.10157,0.0234 c -1.74717,0.29202 -3.65908,0.49007 -5.7832,0.56445 0.66845,0.11119 1.28399,0.19245 1.92383,0.28711 1.4643,-0.10416 2.82251,-0.27009 4.08594,-0.49023 -0.082,-0.12433 -0.14675,-0.23828 -0.22657,-0.36133 z m 1.5586,1.90234 c 5.1e-4,7.2e-4 10e-4,10e-4 0.002,0.002 0.49797,0.0449 0.99326,0.0927 1.46679,0.12109 0.50946,1.38506 1.19634,2.86782 1.97461,4.40625 0.18519,0.22933 0.344,0.44538 0.53516,0.67774 -0.95934,-1.80464 -1.75031,-3.50561 -2.36328,-5.10937 -0.5353,-0.0305 -1.05117,-0.0506 -1.61524,-0.0977 z"
       id="path4073-6" />
  </g>
</svg>
