<?xml version="1.0" encoding="UTF-8" standalone="no"?>
<!-- Created with Inkscape (http://www.inkscape.org/) -->

<svg
   xmlns:dc="http://purl.org/dc/elements/1.1/"
   xmlns:cc="http://creativecommons.org/ns#"
   xmlns:rdf="http://www.w3.org/1999/02/22-rdf-syntax-ns#"
   xmlns:svg="http://www.w3.org/2000/svg"
   xmlns="http://www.w3.org/2000/svg"
   xmlns:xlink="http://www.w3.org/1999/xlink"
   xmlns:sodipodi="http://sodipodi.sourceforge.net/DTD/sodipodi-0.dtd"
   xmlns:inkscape="http://www.inkscape.org/namespaces/inkscape"
   width="48"
   height="48"
   id="svg5453"
   version="1.1"
   inkscape:version="0.48+devel r12923"
   sodipodi:docname="cxmenu-cxoffice-0-cxuninstall.svg">
  <defs
     id="defs5455">
    <linearGradient
       inkscape:collect="always"
       xlink:href="#linearGradient865"
       id="linearGradient4122"
       x1="428.34531"
       y1="-547.8125"
       x2="428.34531"
       y2="-499.81177"
       gradientUnits="userSpaceOnUse"
       gradientTransform="translate(-2.8867187e-5,0)" />
    <linearGradient
       inkscape:collect="always"
       id="linearGradient865">
      <stop
         style="stop-color:#000000;stop-opacity:1"
         offset="0"
         id="stop867" />
      <stop
         style="stop-color:#4d4d4d;stop-opacity:1"
         offset="1"
         id="stop869" />
    </linearGradient>
    <linearGradient
       id="linearGradient1425"
       inkscape:collect="always">
      <stop
         id="stop1427"
         offset="0"
         style="stop-color:#a40606;stop-opacity:1" />
      <stop
         id="stop1429"
         offset="1"
         style="stop-color:#ed2f2f;stop-opacity:1" />
    </linearGradient>
    <linearGradient
       inkscape:collect="always"
       xlink:href="#linearGradient1425"
       id="linearGradient4514"
       x1="35.948154"
       y1="39.396656"
       x2="35.948154"
       y2="8.6001482"
       gradientUnits="userSpaceOnUse" />
  </defs>
  <sodipodi:namedview
     id="base"
     pagecolor="#ffffff"
     bordercolor="#666666"
     borderopacity="1.0"
     inkscape:pageopacity="0"
     inkscape:pageshadow="2"
     inkscape:zoom="4.199584"
     inkscape:cx="69.719491"
     inkscape:cy="14.071673"
     inkscape:document-units="px"
     inkscape:current-layer="layer1"
     showgrid="false"
     fit-margin-top="0"
     fit-margin-left="0"
     fit-margin-right="0"
     fit-margin-bottom="0"
     inkscape:window-width="1366"
     inkscape:window-height="669"
     inkscape:window-x="0"
     inkscape:window-y="26"
     inkscape:window-maximized="1"
     inkscape:showpageshadow="false"
     borderlayer="true" />
  <metadata
     id="metadata5458">
    <rdf:RDF>
      <cc:Work
         rdf:about="">
        <dc:format>image/svg+xml</dc:format>
        <dc:type
           rdf:resource="http://purl.org/dc/dcmitype/StillImage" />
        <dc:title></dc:title>
      </cc:Work>
    </rdf:RDF>
  </metadata>
  <g
     inkscape:label="Capa 1"
     inkscape:groupmode="layer"
     id="layer1"
     transform="translate(-384.57143,-499.798)">
    <rect
       style="fill:url(#linearGradient4122);fill-opacity:1;stroke:none"
       id="rect2991-1-7"
       width="48"
       height="48"
       x="384.57144"
       y="-547.79797"
       ry="1.9445436"
       transform="scale(1,-1)" />
    <path
       inkscape:connector-curvature="0"
       style="fill:#000000;fill-opacity:1;stroke:none"
       d="m 384.57143,544.79799 0,1.0625 c 0,1.0773 0.86022,1.9375 1.9375,1.9375 l 44.125,0 c 1.07728,0 1.9375,-0.8602 1.9375,-1.9375 l 0,-1.0625 c 0,1.0773 -0.86022,1.9375 -1.9375,1.9375 l -44.125,0 C 385.43165,546.73549 384.57143,545.87529 384.57143,544.79799 Z"
       id="rect846" />
    <path
       inkscape:connector-curvature="0"
       style="fill:#ffffff;fill-opacity:0.5372549;stroke:none"
       d="m 387.10268,500.45429 c -0.91709,0 -1.67115,0.6395 -1.84375,1.5 0.33561,-0.2799 0.77451,-0.4375 1.25,-0.4375 l 44.125,0 c 0.47549,0 0.91439,0.1576 1.25,0.4375 -0.1726,-0.8605 -0.92666,-1.5 -1.84375,-1.5 L 387.10268,500.45429 Z"
       id="path7515" />
    <path
       inkscape:connector-curvature="0"
       style="fill:#000000;fill-opacity:0.39215686;stroke:none"
       d="m 386.50893,499.79799 c -1.07728,0 -1.9375,0.8602 -1.9375,1.9375 l 0,43.0625 c 0,0.7934 0.48002,1.449 1.15625,1.75 -0.30934,-0.3333 -0.5,-0.7824 -0.5,-1.2812 l 0,-42.9375 c 0,-1.0482 0.8269,-1.875 1.875,-1.875 l 42.9375,0 c 1.0481,0 1.875,0.8268 1.875,1.875 l 0,42.9375 c 0,0.4988 -0.19066,0.9479 -0.5,1.2812 0.67623,-0.301 1.15625,-0.9566 1.15625,-1.75 l 0,-43.0625 c 0,-1.0773 -0.86022,-1.9375 -1.9375,-1.9375 L 386.50893,499.79799 Z"
       id="rect4280" />
    <path
       style="fill:#000000;fill-opacity:0.05882353"
       d="m 409.91323,509.48112 c 1.03594,1.94877 1.86824,3.77985 2.49804,5.49414 -1.29507,-0.0767 -2.53657,-0.12443 -3.66406,-0.10547 -12.46639,0.20966 -14.71957,6.30042 -6.82812,18.26367 0.74373,-0.13017 1.45696,-0.26694 2.13086,-0.4375 -2.36252,-8.30853 0.66591,-13.51727 9.03906,-15.63281 3.01679,10.60576 -2.70464,16.16699 -17.17969,16.67383 2.55023,0.42419 4.89063,0.72718 7.0332,0.91601 1.23263,1.75709 2.64895,3.63771 4.28711,5.62891 -1.03357,-1.94427 -1.88046,-3.77351 -2.50976,-5.48438 -0.49686,-0.0298 -1.01618,-0.0801 -1.53906,-0.12695 16.93054,1.43195 20.95798,-4.58378 12.0625,-18.0625 1.80142,-0.31338 3.78131,-0.52227 5.99023,-0.59961 -2.54516,-0.42336 -4.8805,-0.72405 -7.02148,-0.91211 -1.232,-1.75589 -2.66196,-3.62558 -4.29883,-5.61523 z"
       id="path4136"
       inkscape:connector-curvature="0" />
    <path
       inkscape:connector-curvature="0"
       id="path4134"
       d="m 409.91323,509.08112 c 1.03594,1.94877 1.86824,3.77985 2.49804,5.49414 -1.29507,-0.0767 -2.53657,-0.12443 -3.66406,-0.10547 -12.46639,0.20966 -14.71957,6.30042 -6.82812,18.26367 0.74373,-0.13017 1.45696,-0.26694 2.13086,-0.4375 -2.36252,-8.30853 0.66591,-13.51727 9.03906,-15.63281 3.01679,10.60576 -2.70464,16.16699 -17.17969,16.67383 2.55023,0.42419 4.89063,0.72718 7.0332,0.91601 1.23263,1.75709 2.64895,3.63771 4.28711,5.62891 -1.03357,-1.94427 -1.88046,-3.77351 -2.50976,-5.48438 -0.49686,-0.0298 -1.01618,-0.0801 -1.53906,-0.12695 16.93054,1.43195 20.95798,-4.58378 12.0625,-18.0625 1.80142,-0.31338 3.78131,-0.52227 5.99023,-0.59961 -2.54516,-0.42336 -4.8805,-0.72405 -7.02148,-0.91211 -1.232,-1.75589 -2.66196,-3.62558 -4.29883,-5.61523 z"
       style="fill:#000000;fill-opacity:0.11764706" />
    <path
       style="fill:#000000;fill-opacity:0.23529412"
       d="m 409.91323,508.68112 c 1.03594,1.94877 1.86824,3.77985 2.49804,5.49414 -1.29507,-0.0767 -2.53657,-0.12443 -3.66406,-0.10547 -12.46639,0.20966 -14.71957,6.30042 -6.82812,18.26367 0.74373,-0.13017 1.45696,-0.26694 2.13086,-0.4375 -2.36252,-8.30853 0.66591,-13.51727 9.03906,-15.63281 3.01679,10.60576 -2.70464,16.16699 -17.17969,16.67383 2.55023,0.42419 4.89063,0.72718 7.0332,0.91601 1.23263,1.75709 2.64895,3.63771 4.28711,5.62891 -1.03357,-1.94427 -1.88046,-3.77351 -2.50976,-5.48438 -0.49686,-0.0298 -1.01618,-0.0801 -1.53906,-0.12695 16.93054,1.43195 20.95798,-4.58378 12.0625,-18.0625 1.80142,-0.31338 3.78131,-0.52227 5.99023,-0.59961 -2.54516,-0.42336 -4.8805,-0.72405 -7.02148,-0.91211 -1.232,-1.75589 -2.66196,-3.62558 -4.29883,-5.61523 z"
       id="path4129"
       inkscape:connector-curvature="0" />
    <path
       style="fill:url(#linearGradient4514);fill-opacity:1"
       d="M 25.341797 8.484375 C 26.377386 10.432479 27.210113 12.262781 27.839844 13.976562 C 26.544789 13.899886 25.303261 13.854083 24.175781 13.873047 C 11.709391 14.082707 9.4562063 20.173469 17.347656 32.136719 C 18.091386 32.006549 18.804616 31.869779 19.478516 31.699219 C 17.116019 23.390756 20.144601 18.181984 28.517578 16.066406 C 31.53437 26.672168 25.812936 32.233395 11.337891 32.740234 C 13.888115 33.164431 16.228523 33.467412 18.371094 33.65625 C 19.603522 35.412987 21.020428 37.292473 22.658203 39.283203 C 21.624633 37.338933 20.777738 35.509698 20.148438 33.798828 C 19.759392 33.775529 19.349598 33.735428 18.943359 33.699219 C 35.588299 35.022521 39.507871 28.998327 30.673828 15.611328 C 32.474816 15.298124 34.453889 15.087075 36.662109 15.009766 C 34.116957 14.586403 31.781604 14.287665 29.640625 14.099609 C 28.408608 12.343677 26.978711 10.474076 25.341797 8.484375 z "
       transform="translate(384.57143,499.798)"
       id="path4079" />
    <path
       inkscape:connector-curvature="0"
       style="fill:#000000;fill-opacity:0.31372549"
       d="m 409.91323,508.28151 c 0.87434,1.64478 1.59478,3.20009 2.17968,4.67773 0.10804,0.006 0.20954,0.009 0.31836,0.0156 -0.39508,-1.07539 -0.89838,-2.21332 -1.45312,-3.38086 -0.35015,-0.43909 -0.67358,-0.86112 -1.04492,-1.3125 z m 7.72461,5.99219 c -0.83025,0.0932 -1.63207,0.20134 -2.39454,0.33398 0.16632,0.252 0.29585,0.48369 0.45313,0.73047 1.68118,-0.27188 3.50889,-0.45829 5.53711,-0.5293 -1.24951,-0.20784 -2.4455,-0.38525 -3.5957,-0.53515 z m -4.54883,0.78906 c -6.59636,1.66662 -9.85924,5.26219 -9.79883,10.77148 0.25218,-5.06245 3.52399,-8.38531 9.79883,-9.9707 0.47823,1.68127 0.73444,3.23442 0.77344,4.66211 0.0529,-1.64159 -0.20435,-3.46221 -0.77344,-5.46289 z m -15.75781,5.17383 c -0.14966,2.77561 1.24676,6.44532 4.13671,10.97851 0.83182,-0.13327 1.61727,-0.29292 2.36524,-0.47461 -0.61242,0.14728 -1.24603,0.27566 -1.91406,0.39258 -2.9308,-4.44302 -4.45911,-8.07389 -4.58789,-10.89648 z m 22.48632,6.02734 c -0.26297,5.18559 -5.80416,7.32245 -16.63672,6.40625 0.52288,0.0469 1.04221,0.0972 1.53907,0.12695 0.0945,0.25692 0.20243,0.52291 0.30664,0.78516 10.10402,0.54722 15.05397,-1.88064 14.79101,-7.31836 z m -20.3164,6.00781 c -1.13786,0.1228 -2.31848,0.22104 -3.5918,0.26563 2.55023,0.42419 4.89063,0.72718 7.0332,0.91601 1.23263,1.75709 2.64895,3.63772 4.28711,5.62891 -0.39337,-0.73998 -0.73272,-1.44782 -1.07031,-2.1543 -0.93895,-1.18465 -1.80704,-2.32889 -2.5957,-3.42578 -0.12932,-0.0117 -0.25277,-0.0196 -0.38282,-0.0312 0.13195,0.0112 0.24658,0.0132 0.37696,0.0234 -0.1992,-0.27711 -0.42494,-0.57053 -0.61524,-0.8418 -1.09409,-0.0964 -2.24254,-0.22396 -3.4414,-0.38085 z"
       id="path4138" />
    <path
       inkscape:connector-curvature="0"
       style="fill:#ffffff;fill-opacity:0.23529412"
       d="m 409.91323,508.28151 c 0.19297,0.36301 0.34264,0.70179 0.52148,1.05664 1.40985,1.74009 2.68499,3.40212 3.77734,4.95898 1.5706,0.13796 3.28443,0.35795 5.07032,0.6211 0.63208,-0.0472 1.27797,-0.0858 1.95117,-0.10938 -2.54516,-0.42336 -4.8805,-0.72405 -7.02149,-0.91211 -1.23199,-1.75589 -2.66195,-3.62558 -4.29882,-5.61523 z m -1.16602,5.38867 c -7.80619,0.13129 -11.60609,2.56942 -11.41992,7.31055 0.0424,-4.47562 3.83862,-6.78266 11.41992,-6.91016 1.12749,-0.019 2.36899,0.0288 3.66406,0.10547 -0.0491,-0.1336 -0.10666,-0.27319 -0.1582,-0.4082 -1.2366,-0.0711 -2.42545,-0.11583 -3.50586,-0.0977 z m 6.72266,2.10352 c -0.0743,0.0125 -0.15288,0.0223 -0.22657,0.0352 2.989,4.52903 4.51236,8.21029 4.58399,11.05468 0.068,-2.81866 -1.39273,-6.51998 -4.35742,-11.08984 z m -1.60547,5.53711 c -0.16076,5.18781 -3.45005,8.56993 -9.81836,10.17382 -0.44082,-1.5532 -0.6918,-2.99755 -0.75586,-4.33398 0.0282,1.44862 0.26998,3.02241 0.75586,4.73438 6.52924,-1.64443 9.81429,-5.16251 9.81836,-10.57422 z m -10.07031,10.63867 c -0.59805,0.14253 -1.21447,0.26882 -1.86524,0.38281 0.64726,-0.11298 1.27074,-0.23937 1.86524,-0.38281 z m -2.10157,0.0234 c -1.74717,0.29202 -3.65908,0.49007 -5.7832,0.56445 0.66846,0.11119 1.28399,0.19245 1.92383,0.28711 1.4643,-0.10416 2.82251,-0.27009 4.08594,-0.49023 -0.082,-0.12433 -0.14675,-0.23828 -0.22657,-0.36133 z m 1.5586,1.90234 c 5.1e-4,7.2e-4 10e-4,10e-4 0.002,0.002 0.49797,0.0449 0.99326,0.0927 1.46679,0.12109 0.50946,1.38506 1.19634,2.86782 1.97461,4.40625 0.18519,0.22933 0.344,0.44538 0.53516,0.67774 -0.95934,-1.80464 -1.75031,-3.50561 -2.36328,-5.10938 -0.5353,-0.0305 -1.05117,-0.0506 -1.61524,-0.0976 z"
       id="path4073" />
  </g>
</svg>
