<?xml version="1.0" encoding="UTF-8" standalone="no"?>
<!-- Created with Inkscape (http://www.inkscape.org/) -->

<svg
   xmlns:dc="http://purl.org/dc/elements/1.1/"
   xmlns:cc="http://creativecommons.org/ns#"
   xmlns:rdf="http://www.w3.org/1999/02/22-rdf-syntax-ns#"
   xmlns:svg="http://www.w3.org/2000/svg"
   xmlns="http://www.w3.org/2000/svg"
   xmlns:xlink="http://www.w3.org/1999/xlink"
   xmlns:sodipodi="http://sodipodi.sourceforge.net/DTD/sodipodi-0.dtd"
   xmlns:inkscape="http://www.inkscape.org/namespaces/inkscape"
   width="48"
   height="48"
   id="svg2"
   version="1.1"
   inkscape:version="0.91pre2 r"
   sodipodi:docname="dart.svg">
  <defs
     id="defs4">
    <linearGradient
       id="linearGradient872">
      <stop
         style="stop-color:#e3ebed;stop-opacity:0.99607843"
         offset="0"
         id="stop874" />
      <stop
         style="stop-color:#f4f8f9;stop-opacity:0.99705881"
         offset="1"
         id="stop876" />
    </linearGradient>
    <linearGradient
       inkscape:collect="always"
       xlink:href="#linearGradient872"
       id="linearGradient843"
       x1="-35.844036"
       y1="-1057.9852"
       x2="-35.844036"
       y2="-1009.9762"
       gradientUnits="userSpaceOnUse"
       gradientTransform="translate(56.880463,5.6152085)" />
    <linearGradient
       id="linearGradient1877"
       inkscape:collect="always">
      <stop
         id="stop1879"
         offset="0"
         style="stop-color:#49c7f5;stop-opacity:1" />
      <stop
         style="stop-color:#015ae0;stop-opacity:1"
         offset="0.5"
         id="stop2620" />
      <stop
         id="stop1881"
         offset="1"
         style="stop-color:#0671b0;stop-opacity:1" />
    </linearGradient>
    <linearGradient
       inkscape:collect="always"
       xlink:href="#linearGradient1877"
       id="linearGradient4687"
       x1="38.095238"
       y1="1040.5233"
       x2="16.937757"
       y2="1019.3658"
       gradientUnits="userSpaceOnUse" />
    <linearGradient
       inkscape:collect="always"
       xlink:href="#linearGradient1877"
       id="linearGradient4695"
       x1="37.860806"
       y1="1040.5233"
       x2="37.860806"
       y2="1020.245"
       gradientUnits="userSpaceOnUse" />
  </defs>
  <sodipodi:namedview
     id="base"
     pagecolor="#ffffff"
     bordercolor="#666666"
     borderopacity="1.0"
     inkscape:pageopacity="0.0"
     inkscape:pageshadow="2"
     inkscape:zoom="6.0325047"
     inkscape:cx="18.530778"
     inkscape:cy="29.190959"
     inkscape:document-units="px"
     inkscape:current-layer="layer1"
     showgrid="false"
     inkscape:window-width="1366"
     inkscape:window-height="672"
     inkscape:window-x="-4"
     inkscape:window-y="25"
     inkscape:window-maximized="1">
    <inkscape:grid
       type="xygrid"
       id="grid3850" />
  </sodipodi:namedview>
  <metadata
     id="metadata7">
    <rdf:RDF>
      <cc:Work
         rdf:about="">
        <dc:format>image/svg+xml</dc:format>
        <dc:type
           rdf:resource="http://purl.org/dc/dcmitype/StillImage" />
        <dc:title />
      </cc:Work>
    </rdf:RDF>
  </metadata>
  <g
     inkscape:label="Capa 1"
     inkscape:groupmode="layer"
     id="layer1"
     transform="translate(0,-1004.3622)">
    <rect
       style="fill:url(#linearGradient843);fill-opacity:1;stroke:none"
       id="rect2991-1"
       width="48"
       height="48"
       x="1.7675781e-07"
       y="-1052.3622"
       ry="1.9445436"
       transform="scale(1,-1)" />
    <path
       inkscape:connector-curvature="0"
       style="fill:#ffffff;fill-opacity:0.5372549;stroke:none"
       d="m 2.5312498,1005.0185 c -0.917089,0 -1.67114698,0.6395 -1.84374998,1.5 0.33561198,-0.2799 0.77451198,-0.4375 1.24999998,-0.4375 l 44.1250002,0 c 0.475488,0 0.914388,0.1576 1.25,0.4375 -0.172603,-0.8605 -0.926662,-1.5 -1.84375,-1.5 L 2.5312498,1005.0185 Z"
       id="path7515" />
    <path
       inkscape:connector-curvature="0"
       style="fill:#000000;fill-opacity:0.39215686;stroke:none"
       d="m 1.9374998,1004.3622 c -1.07727698,0 -1.93749997675782,0.8602 -1.93749997675782,1.9375 l 0,43.0625 c 0,0.7934 0.48002299675782,1.449 1.15624997675782,1.75 -0.30934198,-0.3333 -0.49999998,-0.7824 -0.49999998,-1.2812 l 0,-42.9375 c 0,-1.0482 0.82689898,-1.875 1.87499998,-1.875 l 42.9375002,0 c 1.048101,0 1.875,0.8268 1.875,1.875 l 0,42.9375 c 0,0.4988 -0.190658,0.9479 -0.5,1.2812 0.676226,-0.301 1.15625,-0.9566 1.15625,-1.75 l 0,-43.0625 c 0,-1.0773 -0.860223,-1.9375 -1.9375,-1.9375 L 1.9374998,1004.3622 Z"
       id="rect4280-3" />
    <path
       inkscape:connector-curvature="0"
       style="fill:#000000;fill-opacity:1;stroke:none"
       d="m -1.7675782e-7,1049.3622 0,1.0625 c 0,1.0773 0.86022299675782,1.9375 1.93749997675782,1.9375 l 44.1250002,0 c 1.077277,0 1.9375,-0.8602 1.9375,-1.9375 l 0,-1.0625 c 0,1.0773 -0.860223,1.9375 -1.9375,1.9375 l -44.1250002,0 C 0.86022282,1051.2997 -1.7675782e-7,1050.4395 -1.7675782e-7,1049.3622 Z"
       id="rect846" />
    <path
       style="fill:#000000;fill-opacity:0.11764706;fill-rule:nonzero;stroke:none"
       d="m 25.10505,1014.1622 0.002,0.01 c -0.255387,0 -7.713099,4.8666 -9.394293,6.0895 -0.02952,0 -0.546861,0.5117 -0.546861,0.5117 l 0.0059,0 0.05859,0 -0.05273,0.01 1.017552,1.0156 c -0.364593,-0.3634 -0.648113,-0.6428 -1.021458,-1.0156 -0.0025,0 -0.0053,0 -0.0078,-0.01 l -0.002,0 0,0.018 -3.304603,4.7557 -3.2596826,4.8884 0.4316296,1.4335 2.064401,2.0253 2.066353,2.0292 2.001902,0.7539 0,0 0.0078,0 0.002,0 1.191376,2.6406 2.790945,2.822 2.792898,2.8222 5.851414,0 5.851414,0 1.556601,-4.1795 0.002,0 c 0.02541,0.075 1.045163,-0.69 2.124946,-1.0098 l 2.0644,-0.6112 0,-11.7105 -2.933519,-2.8026 -2.8261,-2.8025 -1.107394,-0.5079 c -0.0051,0 -1.433558,-0.5625 -1.433558,-0.5625 -6.19e-4,2e-4 -0.0013,-10e-5 -0.002,0 l -0.0039,0 0.0039,0 -0.355459,-1.1522 -0.30468,-0.9473 -1.845656,-1.8749 -1.845656,-1.8905 -0.707015,-0.3711 c -0.391422,-0.2002 -0.8078,-0.3711 -0.933569,-0.3711 z m -9.931389,6.613 0.0039,0 -0.0059,-0.01 0.002,0.01 z"
       id="path4345"
       inkscape:connector-curvature="0" />
    <path
       inkscape:connector-curvature="0"
       id="path4343"
       d="m 25.10505,1013.7622 0.002,0.01 c -0.255387,0 -7.713099,4.8666 -9.394293,6.0895 -0.02952,0 -0.546861,0.5117 -0.546861,0.5117 l 0.0059,0 0.05859,0 -0.05273,0.01 1.017552,1.0156 c -0.364593,-0.3634 -0.648113,-0.6428 -1.021458,-1.0156 -0.0025,0 -0.0053,0 -0.0078,-0.01 l -0.002,0 0,0.018 -3.304603,4.7557 -3.2596826,4.8884 0.4316296,1.4335 2.064401,2.0253 2.066353,2.0292 2.001902,0.7539 0,0 0.0078,0 0.002,0 1.191376,2.6406 2.790945,2.822 2.792898,2.8222 5.851414,0 5.851414,0 1.556601,-4.1795 0.002,0 c 0.02541,0.075 1.045163,-0.69 2.124946,-1.0098 l 2.0644,-0.6112 0,-11.7105 -2.933519,-2.8026 -2.8261,-2.8025 -1.107394,-0.5079 c -0.0051,0 -1.433558,-0.5625 -1.433558,-0.5625 -6.19e-4,2e-4 -0.0013,-1e-4 -0.002,0 l -0.0039,0 0.0039,0 -0.355459,-1.1522 -0.30468,-0.9473 -1.845656,-1.8749 -1.845656,-1.8905 -0.707015,-0.3711 c -0.391422,-0.2002 -0.8078,-0.3711 -0.933569,-0.3711 z m -9.931389,6.613 0.0039,0 -0.0059,-0.01 0.002,0.01 z"
       style="fill:#000000;fill-opacity:0.11764706;fill-rule:nonzero;stroke:none" />
    <path
       style="fill:#000000;fill-opacity:0.23529412;fill-rule:nonzero;stroke:none"
       d="m 25.10505,1013.3622 0.002,0.01 c -0.255387,0 -7.713099,4.8666 -9.394293,6.0895 -0.02952,0 -0.546861,0.5117 -0.546861,0.5117 l 0.0059,0 0.05859,0 -0.05273,0.01 1.017552,1.0156 c -0.364593,-0.3634 -0.648113,-0.6428 -1.021458,-1.0156 -0.0025,0 -0.0053,0 -0.0078,-0.01 l -0.002,0 0,0.018 -3.304603,4.7557 -3.2596826,4.8884 0.4316296,1.4335 2.064401,2.0253 2.066353,2.0292 2.001902,0.7539 0,0 0.0078,0 0.002,0 1.191376,2.6406 2.790945,2.822 2.792898,2.8222 5.851414,0 5.851414,0 1.556601,-4.1795 0.002,0 c 0.02541,0.075 1.045163,-0.69 2.124946,-1.0098 l 2.0644,-0.6112 0,-11.7105 -2.933519,-2.8026 -2.8261,-2.8025 -1.107394,-0.5079 c -0.0051,0 -1.433558,-0.5625 -1.433558,-0.5625 -6.19e-4,2e-4 -0.0013,-10e-5 -0.002,0 l -0.0039,0 0.0039,0 -0.355459,-1.1522 -0.30468,-0.9473 -1.845656,-1.8749 -1.845656,-1.8905 -0.707015,-0.3711 c -0.391422,-0.2002 -0.8078,-0.3711 -0.933569,-0.3711 z m -9.931389,6.613 0.0039,0 -0.0059,-0.01 0.002,0.01 z"
       id="path4330"
       inkscape:connector-curvature="0" />
    <path
       id="path4221"
       d="m 34.797775,1035.5604 -1.267986,-1.8852 -1.809576,-6.0804 c -1.398891,-4.7073 -1.935347,-7.7257 -0.621159,-8.0209 0,0 1.42841,0.5621 1.433543,0.5621 l 1.107563,0.5069 2.827301,2.8028 2.932539,2.8028 0,11.7105 -2.064969,0.6121 c -1.083179,0.3208 -2.106038,1.0934 -2.125289,1.0126 l -0.100104,-0.4017 m -0.31058,-3.6139"
       inkscape:connector-curvature="0"
       style="fill:url(#linearGradient4695);fill-opacity:1.0;fill-rule:nonzero;stroke:none" />
    <path
       id="path4223"
       d="m 19.15714,1040.9401 -2.79265,-2.822 -1.19355,-2.6424 c 2.009784,-1.8403 6.035769,-0.7815 7.084296,-0.2554 l 7.560431,3.9707 3.113497,1.1075 c -6.090954,-2.1612 1.975132,-0.8868 2.111171,-0.992 l 0.241277,-0.1861 -0.07059,0.4607 -1.559315,4.1811 -5.85096,0 -5.85096,0 m -2.79265,-2.8272"
       inkscape:connector-curvature="0"
       style="fill:#45c0b9;fill-opacity:1;fill-rule:nonzero;stroke:none" />
    <path
       id="path4225"
       d="m 25.07227,1029.4607 -9.90133,-9.8906 2.100905,8.633 -2.100905,7.2739 -2.009783,-0.7572 -2.06497,-2.0302 -2.064969,-2.0251 -0.4312179,-1.4335 3.2585189,-4.8882 3.313705,-4.7676 7.790158,-0.8675 7.910796,0.657 0.225876,0.2105 c 0.08085,0.076 1.388625,3.7101 2.913288,8.0054 l 2.772116,7.8155 -1.574716,4.1863 c -1.654286,0.5711 -5.249052,-4.502 -10.136189,-10.1217 m 0,0"
       inkscape:connector-curvature="0"
       style="fill:url(#linearGradient4687);fill-opacity:1;fill-rule:nonzero;stroke:none" />
    <path
       id="path4227"
       d="m 25.106921,1012.9673 c -0.255394,0 -7.713155,4.8677 -9.394391,6.0907 -0.02952,0 -0.546723,0.5108 -0.546723,0.5108 l 15.67657,0 c 0.139889,0 0.255394,0 0.255394,0 l -0.355498,-1.1524 -0.305447,-0.9471 -1.84551,-1.875 -1.84551,-1.8903 -0.707146,-0.3709 c -0.391433,-0.2002 -0.80725,-0.3709 -0.933022,-0.3709 m -9.941114,6.6066 0,15.9069 c 0.134755,0.04 3.888662,1.4335 8.046835,2.9029 4.16074,1.4694 7.634868,2.6668 7.725988,2.677 0.215609,0.026 4.271112,-1.4732 4.271112,-1.4732 -6.893071,-7.0288 -12.547673,-12.5279 -20.042652,-20.0123 m 0,0"
       inkscape:connector-curvature="0"
       style="fill:#01b1a9;fill-opacity:1;fill-rule:nonzero;stroke:none" />
    <path
       style="fill:#4d7074;fill-opacity:0.3137255;fill-rule:nonzero;stroke:none"
       d="M 8.765625 24.625 L 8.5996094 24.873047 L 9.03125 26.306641 L 11.095703 28.332031 L 13.162109 30.361328 L 15.164062 31.115234 L 15.171875 31.115234 L 15.173828 31.115234 L 16.365234 33.755859 L 19.15625 36.578125 L 21.949219 39.400391 L 27.800781 39.400391 L 33.652344 39.400391 L 35.208984 35.220703 L 35.210938 35.220703 C 35.236348 35.295703 36.256155 34.530737 37.335938 34.210938 L 39.400391 33.599609 L 39.400391 32.798828 L 37.335938 33.410156 C 36.256155 33.729956 35.236348 34.494922 35.210938 34.419922 L 35.208984 34.419922 L 33.652344 38.599609 L 27.800781 38.599609 L 21.949219 38.599609 L 19.15625 35.777344 L 16.365234 32.955078 L 15.173828 30.314453 L 15.171875 30.314453 L 15.164062 30.314453 L 13.162109 29.560547 L 11.095703 27.53125 L 9.03125 25.505859 L 8.765625 24.625 z "
       transform="translate(0,1004.3622)"
       id="path4713" />
    <path
       style="fill:#ffffff;fill-opacity:0.23529412;fill-rule:nonzero;stroke:none"
       d="M 25.107422 8.6054688 L 25.107422 8.609375 C 24.852035 8.609375 17.394085 13.476319 15.712891 14.699219 C 15.683371 14.699219 15.166016 15.210938 15.166016 15.210938 L 15.171875 15.210938 L 15.173828 15.210938 L 15.173828 15.212891 L 15.177734 15.212891 L 15.175781 15.210938 L 15.230469 15.210938 L 15.177734 15.220703 L 15.373047 15.416016 C 15.526826 15.266527 15.694589 15.099609 15.712891 15.099609 C 17.394085 13.876709 24.852035 9.0097656 25.107422 9.0097656 L 25.107422 9.0058594 C 25.234295 9.006689 25.648594 9.1772407 26.039062 9.3769531 L 26.746094 9.7480469 L 28.591797 11.638672 L 30.4375 13.513672 L 30.742188 14.460938 L 31.097656 15.613281 C 31.097656 15.613281 31.099609 15.613281 31.099609 15.613281 C 31.099609 15.613281 32.528103 16.175781 32.533203 16.175781 L 33.640625 16.683594 L 36.466797 19.486328 L 39.400391 22.289062 L 39.400391 21.888672 L 36.466797 19.085938 L 33.640625 16.283203 L 32.533203 15.775391 C 32.528103 15.775391 31.099609 15.212891 31.099609 15.212891 C 31.099609 15.212891 31.097656 15.212891 31.097656 15.212891 L 30.742188 14.060547 L 30.4375 13.113281 L 28.591797 11.238281 L 26.746094 9.3476562 L 26.039062 8.9765625 C 25.648594 8.7768501 25.234295 8.6062984 25.107422 8.6054688 z M 15.166016 15.210938 L 15.164062 15.210938 L 15.164062 15.228516 L 11.859375 19.984375 L 8.5996094 24.873047 L 8.6835938 25.148438 L 11.859375 20.384766 L 15.164062 15.628906 L 15.164062 15.611328 L 15.166016 15.611328 C 15.166016 15.611328 15.279412 15.509003 15.373047 15.417969 C 15.305927 15.351178 15.246493 15.293262 15.173828 15.220703 C 15.171328 15.220703 15.168516 15.220937 15.166016 15.210938 z M 15.166016 15.611328 C 15.168516 15.621328 15.171328 15.621094 15.173828 15.621094 C 15.547173 15.993894 15.83072 16.273319 16.195312 16.636719 L 15.177734 15.621094 L 15.230469 15.611328 L 15.175781 15.611328 L 15.177734 15.613281 L 15.173828 15.613281 L 15.173828 15.611328 L 15.171875 15.611328 L 15.166016 15.611328 z "
       transform="translate(0,1004.3622)"
       id="path4718" />
  </g>
</svg>
