<?xml version="1.0" encoding="UTF-8" standalone="no"?>
<!-- Created with Inkscape (http://www.inkscape.org/) -->

<svg
   xmlns:dc="http://purl.org/dc/elements/1.1/"
   xmlns:cc="http://creativecommons.org/ns#"
   xmlns:rdf="http://www.w3.org/1999/02/22-rdf-syntax-ns#"
   xmlns:svg="http://www.w3.org/2000/svg"
   xmlns="http://www.w3.org/2000/svg"
   xmlns:xlink="http://www.w3.org/1999/xlink"
   xmlns:sodipodi="http://sodipodi.sourceforge.net/DTD/sodipodi-0.dtd"
   xmlns:inkscape="http://www.inkscape.org/namespaces/inkscape"
   width="48"
   height="48"
   id="svg2"
   version="1.1"
   inkscape:version="0.91pre2 r"
   sodipodi:docname="Darwinia.svg">
  <defs
     id="defs4">
    <linearGradient
       inkscape:collect="always"
       id="linearGradient4872">
      <stop
         style="stop-color:#000000;stop-opacity:0"
         offset="0"
         id="stop4874" />
      <stop
         style="stop-color:#000000;stop-opacity:0.4037267"
         offset="1"
         id="stop4876" />
    </linearGradient>
    <linearGradient
       y2="-1004.3641"
       x2="22.490341"
       y1="-1052.3704"
       x1="22.490341"
       gradientUnits="userSpaceOnUse"
       id="linearGradient1711"
       xlink:href="#linearGradient1373"
       inkscape:collect="always"
       gradientTransform="translate(-3.8085936e-8,-2.5343751e-6)" />
    <linearGradient
       id="linearGradient4169"
       inkscape:collect="always">
      <stop
         id="stop4171"
         offset="0"
         style="stop-color:#e2f4c4;stop-opacity:1" />
      <stop
         id="stop4173"
         offset="1"
         style="stop-color:#fdfff5;stop-opacity:1" />
    </linearGradient>
    <linearGradient
       gradientTransform="matrix(2.5666667,0,0,2.5666667,-55.35834,990.61949)"
       y2="2.0118454"
       x2="10.409504"
       y1="13.990603"
       x1="10.409504"
       gradientUnits="userSpaceOnUse"
       id="linearGradient4181"
       xlink:href="#linearGradient4169"
       inkscape:collect="always" />
    <linearGradient
       gradientTransform="matrix(2.5666667,0,0,2.5666667,-55.35834,990.61949)"
       y2="2.0118454"
       x2="10.409504"
       y1="13.990603"
       x1="10.409504"
       gradientUnits="userSpaceOnUse"
       id="linearGradient4185"
       xlink:href="#linearGradient4169"
       inkscape:collect="always" />
    <linearGradient
       id="linearGradient1373"
       inkscape:collect="always">
      <stop
         id="stop1375"
         offset="0"
         style="stop-color:#282827;stop-opacity:1" />
      <stop
         id="stop1377"
         offset="1"
         style="stop-color:#292929;stop-opacity:1" />
    </linearGradient>
    <linearGradient
       inkscape:collect="always"
       xlink:href="#linearGradient4175"
       id="linearGradient4335"
       x1="25.318682"
       y1="1043.8054"
       x2="25.318682"
       y2="1013.0948"
       gradientUnits="userSpaceOnUse" />
    <linearGradient
       inkscape:collect="always"
       id="linearGradient4175">
      <stop
         style="stop-color:#1ecb08;stop-opacity:0.99607843"
         offset="0"
         id="stop4177" />
      <stop
         id="stop4179"
         offset="0.13174212"
         style="stop-color:#b9f177;stop-opacity:1" />
      <stop
         style="stop-color:#9ae63f;stop-opacity:0.99967319"
         offset="0.3335036"
         id="stop4181" />
      <stop
         id="stop4183"
         offset="0.61540711"
         style="stop-color:#41bd18;stop-opacity:1" />
      <stop
         style="stop-color:#27d410;stop-opacity:1"
         offset="0.85505599"
         id="stop4610" />
      <stop
         style="stop-color:#2ca815;stop-opacity:1"
         offset="1"
         id="stop4185" />
    </linearGradient>
    <linearGradient
       inkscape:collect="always"
       xlink:href="#linearGradient4872"
       id="linearGradient4878"
       x1="25.196831"
       y1="1043.5764"
       x2="25.196831"
       y2="1012.9921"
       gradientUnits="userSpaceOnUse"
       gradientTransform="translate(-4.9999997e-8,0.6)" />
  </defs>
  <sodipodi:namedview
     id="base"
     pagecolor="#ffffff"
     bordercolor="#666666"
     borderopacity="1.0"
     inkscape:pageopacity="0.0"
     inkscape:pageshadow="2"
     inkscape:zoom="4"
     inkscape:cx="39.321"
     inkscape:cy="36.808616"
     inkscape:document-units="px"
     inkscape:current-layer="layer1"
     showgrid="false"
     inkscape:window-width="1366"
     inkscape:window-height="672"
     inkscape:window-x="-4"
     inkscape:window-y="25"
     inkscape:window-maximized="1">
    <inkscape:grid
       type="xygrid"
       id="grid3850" />
  </sodipodi:namedview>
  <metadata
     id="metadata7">
    <rdf:RDF>
      <cc:Work
         rdf:about="">
        <dc:format>image/svg+xml</dc:format>
        <dc:type
           rdf:resource="http://purl.org/dc/dcmitype/StillImage" />
        <dc:title />
      </cc:Work>
    </rdf:RDF>
  </metadata>
  <g
     inkscape:label="Capa 1"
     inkscape:groupmode="layer"
     id="layer1"
     transform="translate(0,-1004.3622)">
    <rect
       style="fill:url(#linearGradient1711);fill-opacity:1.0;stroke:none"
       id="rect2991-1"
       width="48"
       height="48"
       x="3.8085936e-08"
       y="-1052.3622"
       ry="1.9445436"
       transform="scale(1,-1)" />
    <path
       id="path4886"
       d="m 9,1019.2955 12.433333,0 0,-5.1333 5.133333,0 0,5.1333 12.433334,0 0,5.1334 -12.433334,0 0,5.1333 5.133335,0 0,15.4 -5.133334,0 0,-10.2667 -5.133333,0 0,10.2667 -5.133333,0 0,-15.4 5.133333,0 0,-5.1333 -12.433334,0"
       inkscape:connector-curvature="0"
       style="fill:#000000;fill-opacity:0.05882353;fill-rule:nonzero;stroke:none"
       sodipodi:nodetypes="cccccccccccccccccccc" />
    <path
       sodipodi:nodetypes="cccccccccccccccccccc"
       style="fill:#000000;fill-opacity:0.11764706;fill-rule:nonzero;stroke:none"
       inkscape:connector-curvature="0"
       d="m 9,1018.8955 12.433333,0 0,-5.1333 5.133333,0 0,5.1333 12.433334,0 0,5.1334 -12.433334,0 0,5.1333 5.133335,0 0,15.4 -5.133334,0 0,-10.2667 -5.133333,0 0,10.2667 -5.133333,0 0,-15.4 5.133333,0 0,-5.1333 -12.433334,0"
       id="path4884" />
    <path
       id="path4880"
       d="m 9,1018.4955 12.433333,0 0,-5.1333 5.133333,0 0,5.1333 12.433334,0 0,5.1334 -12.433334,0 0,5.1333 5.133335,0 0,15.4 -5.133334,0 0,-10.2667 -5.133333,0 0,10.2667 -5.133333,0 0,-15.4 5.133333,0 0,-5.1333 -12.433334,0"
       inkscape:connector-curvature="0"
       style="fill:#000000;fill-opacity:0.23529412;fill-rule:nonzero;stroke:none"
       sodipodi:nodetypes="cccccccccccccccccccc" />
    <path
       inkscape:connector-curvature="0"
       style="fill:#000000;fill-opacity:1;stroke:none"
       d="m -3.8085936e-8,1049.3622 0,1.0625 c 0,1.0773 0.860222898085936,1.9375 1.937499938085936,1.9375 l 44.1250001,0 c 1.077277,0 1.9375,-0.8602 1.9375,-1.9375 l 0,-1.0625 c 0,1.0773 -0.860223,1.9375 -1.9375,1.9375 l -44.1250001,0 C 0.86022286,1051.2997 -3.8085936e-8,1050.4395 -3.8085936e-8,1049.3622 Z"
       id="rect846" />
    <path
       inkscape:connector-curvature="0"
       style="fill:#ffffff;fill-opacity:0.5372549;stroke:none"
       d="m 2.5312499,1005.0185 c -0.9170884,0 -1.67114674,0.6395 -1.84374994,1.5 0.33561204,-0.2799 0.77451214,-0.4375 1.24999994,-0.4375 l 44.1250001,0 c 0.475488,0 0.914388,0.1576 1.25,0.4375 -0.172603,-0.8605 -0.926662,-1.5 -1.84375,-1.5 L 2.5312499,1005.0185 Z"
       id="path7515" />
    <path
       inkscape:connector-curvature="0"
       style="fill:#000000;fill-opacity:0.39215686;stroke:none"
       d="m 1.9374999,1004.3622 c -1.07727694,0 -1.937499938085938,0.8602 -1.937499938085938,1.9375 l 0,43.0625 c 0,0.7934 0.480023998085938,1.449 1.156249938085938,1.75 -0.30934164,-0.3333 -0.49999994,-0.7824 -0.49999994,-1.2812 l 0,-42.9375 c 0,-1.0482 0.82689894,-1.875 1.87499994,-1.875 l 42.9375001,0 c 1.048101,0 1.875,0.8268 1.875,1.875 l 0,42.9375 c 0,0.4988 -0.190658,0.9479 -0.5,1.2812 0.676226,-0.301 1.15625,-0.9566 1.15625,-1.75 l 0,-43.0625 c 0,-1.0773 -0.860223,-1.9375 -1.9375,-1.9375 L 1.9374999,1004.3622 Z"
       id="rect4280" />
    <rect
       style="fill:url(#linearGradient4181);fill-opacity:1;fill-rule:nonzero;stroke:none;display:none"
       id="rect4898"
       width="56.466667"
       height="56.466667"
       x="-55.358353"
       y="990.61951" />
    <rect
       y="990.61951"
       x="-55.358353"
       height="56.466667"
       width="56.466667"
       id="rect4126"
       style="fill:url(#linearGradient4185);fill-opacity:1;fill-rule:nonzero;stroke:none;display:none" />
    <path
       id="path4274-7"
       d="m 9,1018.0955 12.433333,0 0,-5.1333 5.133333,0 0,5.1333 12.433334,0 0,5.1334 -12.433334,0 0,5.1333 5.133335,0 0,15.4 -5.133334,0 0,-10.2667 -5.133333,0 0,10.2667 -5.133333,0 0,-15.4 5.133333,0 0,-5.1333 -12.433334,0"
       inkscape:connector-curvature="0"
       style="fill:url(#linearGradient4335);fill-opacity:1;fill-rule:nonzero;stroke:none"
       sodipodi:nodetypes="cccccccccccccccccccc" />
    <path
       sodipodi:nodetypes="cccccccccccccccccccc"
       style="fill:url(#linearGradient4878);fill-opacity:1;fill-rule:nonzero;stroke:none"
       inkscape:connector-curvature="0"
       d="m 9,1018.6955 12.433333,0 0,-5.1333 5.133333,0 0,5.1333 12.433334,0 0,5.1334 -12.433334,0 0,5.1333 5.133335,0 0,15.4 -5.133334,0 0,-10.2667 -5.133333,0 0,10.2667 -5.133333,0 0,-15.4 5.133333,0 0,-5.1333 -12.4333341,0"
       id="path4854" />
  </g>
</svg>
