<?xml version="1.0" encoding="UTF-8" standalone="no"?>
<!-- Created with Inkscape (http://www.inkscape.org/) -->

<svg
   xmlns:dc="http://purl.org/dc/elements/1.1/"
   xmlns:cc="http://creativecommons.org/ns#"
   xmlns:rdf="http://www.w3.org/1999/02/22-rdf-syntax-ns#"
   xmlns:svg="http://www.w3.org/2000/svg"
   xmlns="http://www.w3.org/2000/svg"
   xmlns:xlink="http://www.w3.org/1999/xlink"
   xmlns:sodipodi="http://sodipodi.sourceforge.net/DTD/sodipodi-0.dtd"
   xmlns:inkscape="http://www.inkscape.org/namespaces/inkscape"
   width="48"
   height="48"
   id="svg5453"
   version="1.1"
   inkscape:version="0.48+devel r12487"
   sodipodi:docname="dassault-systems.draftsight.svg">
  <defs
     id="defs5455">
    <linearGradient
       gradientTransform="translate(17.142868,151.4224)"
       y2="-651.25061"
       x2="393.85712"
       y1="-699.2182"
       x1="393.85712"
       gradientUnits="userSpaceOnUse"
       id="linearGradient2344"
       xlink:href="#linearGradient1163"
       inkscape:collect="always" />
    <linearGradient
       id="linearGradient1163"
       inkscape:collect="always">
      <stop
         id="stop1165"
         offset="0"
         style="stop-color:#132f45;stop-opacity:1" />
      <stop
         id="stop1167"
         offset="1"
         style="stop-color:#366182;stop-opacity:1" />
    </linearGradient>
  </defs>
  <sodipodi:namedview
     id="base"
     pagecolor="#ffffff"
     bordercolor="#666666"
     borderopacity="1.0"
     inkscape:pageopacity="0"
     inkscape:pageshadow="2"
     inkscape:zoom="6.2777282"
     inkscape:cx="18.338692"
     inkscape:cy="25.164326"
     inkscape:document-units="px"
     inkscape:current-layer="layer1"
     showgrid="false"
     fit-margin-top="0"
     fit-margin-left="0"
     fit-margin-right="0"
     fit-margin-bottom="0"
     inkscape:window-width="1366"
     inkscape:window-height="714"
     inkscape:window-x="0"
     inkscape:window-y="30"
     inkscape:window-maximized="1" />
  <metadata
     id="metadata5458">
    <rdf:RDF>
      <cc:Work
         rdf:about="">
        <dc:format>image/svg+xml</dc:format>
        <dc:type
           rdf:resource="http://purl.org/dc/dcmitype/StillImage" />
        <dc:title />
      </cc:Work>
    </rdf:RDF>
  </metadata>
  <g
     inkscape:label="Capa 1"
     inkscape:groupmode="layer"
     id="layer1"
     transform="translate(-384.57143,-499.798)">
    <rect
       style="fill:url(#linearGradient2344);fill-opacity:1.0;stroke:none"
       id="rect2991-1"
       width="48"
       height="48"
       x="384.57144"
       y="-547.79688"
       ry="1.9445436"
       transform="scale(1,-1)" />
    <path
       inkscape:connector-curvature="0"
       style="fill:#ffffff;fill-opacity:0.23519885;stroke:none"
       d="m 390.35268,500.45315 0,1.125 -3.59375,0 0,-1.09375 c -0.13391,0.0246 -0.28449,0.0742 -0.40625,0.125 l 0,0.96875 -0.96875,0 c -0.0508,0.12177 -0.10041,0.27233 -0.125,0.40625 l 1.09375,0 0,3.59375 -1.125,0 0,0.40625 1.125,0 0,3.59375 -1.125,0 0,0.40625 1.125,0 0,3.59375 -1.125,0 0,0.40625 1.125,0 0,3.59375 -1.125,0 0,0.40625 1.125,0 0,3.59375 -1.125,0 0,0.40625 1.125,0 0,3.59375 -1.125,0 0,0.40625 1.125,0 0,3.59375 -1.125,0 0,0.40625 1.125,0 0,3.59375 -1.125,0 0,0.40625 1.125,0 0,3.59375 -1.125,0 0,0.40625 1.125,0 0,3.59375 -1.125,0 0,0.40625 1.125,0 0,3.59375 -1.09375,0 c 0.0246,0.15272 0.0666,0.26885 0.125,0.40625 l 0.96875,0 0,1.8125 c 0.0545,0.005 0.10053,0 0.15625,0 l 0.25,0 0,-1.8125 3.59375,0 0,1.8125 0.40625,0 0,-1.8125 3.59375,0 0,1.8125 0.40625,0 0,-1.8125 3.59375,0 0,1.8125 0.40625,0 0,-1.8125 3.59375,0 0,1.8125 0.40625,0 0,-1.8125 3.59375,0 0,1.8125 0.40625,0 0,-1.8125 3.59375,0 0,1.8125 0.40625,0 0,-1.8125 3.59375,0 0,1.8125 0.40625,0 0,-1.8125 3.59375,0 0,1.8125 0.40625,0 0,-1.8125 3.59375,0 0,1.8125 0.40625,0 0,-1.8125 3.59375,0 0,1.8125 0.40625,0 0,-1.8125 3.59375,0 0,1.8125 0.28125,0 c 0.0446,0 0.0812,0.003 0.125,0 l 0,-1.8125 1,0 c 0.0584,-0.1374 0.10044,-0.25353 0.125,-0.40625 l -1.125,0 0,-3.59375 1.15625,0 0,-0.40625 -1.15625,0 0,-3.59375 1.15625,0 0,-0.40625 -1.15625,0 0,-3.59375 1.15625,0 0,-0.40625 -1.15625,0 0,-3.59375 1.15625,0 0,-0.40625 -1.15625,0 0,-3.59375 1.15625,0 0,-0.40625 -1.15625,0 0,-3.59375 1.15625,0 0,-0.40625 -1.15625,0 0,-3.59375 1.15625,0 0,-0.40625 -1.15625,0 0,-3.59375 1.15625,0 0,-0.40625 -1.15625,0 0,-3.59375 1.15625,0 0,-0.40625 -1.15625,0 0,-3.59375 1.15625,0 0,-0.40625 -1.15625,0 0,-3.59375 1.125,0 c -0.0246,-0.13392 -0.0742,-0.28448 -0.125,-0.40625 l -1,0 0,-0.96875 c -0.12358,-0.0495 -0.27057,-0.10238 -0.40625,-0.125 l 0,1.09375 -3.59375,0 0,-1.125 -0.40625,0 0,1.125 -3.59375,0 0,-1.125 -0.40625,0 0,1.125 -3.59375,0 0,-1.125 -0.40625,0 0,1.125 -3.59375,0 0,-1.125 -0.40625,0 0,1.125 -3.59375,0 0,-1.125 -0.40625,0 0,1.125 -3.59375,0 0,-1.125 -0.40625,0 0,1.125 -3.59375,0 0,-1.125 -0.40625,0 0,1.125 -3.59375,0 0,-1.125 -0.40625,0 0,1.125 -3.59375,0 0,-1.125 -0.40625,0 0,1.125 -3.59375,0 0,-1.125 L 390.35268,500.45315 z m -3.59375,1.53125 3.59375,0 0,3.59375 -3.59375,0 L 386.75893,501.9844 z m 4,0 3.59375,0 0,3.59375 -3.59375,0 L 390.75893,501.9844 z m 4,0 3.59375,0 0,3.59375 -3.59375,0 L 394.75893,501.9844 z m 4,0 3.59375,0 0,3.59375 -3.59375,0 L 398.75893,501.9844 z m 4,0 3.59375,0 0,3.59375 -3.59375,0 L 402.75893,501.9844 z m 4,0 3.59375,0 0,3.59375 -3.59375,0 L 406.75893,501.9844 z m 4,0 3.59375,0 0,3.59375 -3.59375,0 L 410.75893,501.9844 z m 4,0 3.59375,0 0,3.59375 -3.59375,0 L 414.75893,501.9844 z m 4,0 3.59375,0 0,3.59375 -3.59375,0 L 418.75893,501.9844 z m 4,0 3.59375,0 0,3.59375 -3.59375,0 L 422.75893,501.9844 z m 4,0 3.59375,0 0,3.59375 -3.59375,0 L 426.75893,501.9844 z m -40,4 3.59375,0 0,3.59375 -3.59375,0 L 386.75893,505.9844 z m 4,0 3.59375,0 0,3.59375 -3.59375,0 L 390.75893,505.9844 z m 4,0 3.59375,0 0,3.59375 -3.59375,0 L 394.75893,505.9844 z m 4,0 3.59375,0 0,3.59375 -3.59375,0 L 398.75893,505.9844 z m 4,0 3.59375,0 0,3.59375 -3.59375,0 L 402.75893,505.9844 z m 4,0 3.59375,0 0,3.59375 -3.59375,0 L 406.75893,505.9844 z m 4,0 3.59375,0 0,3.59375 -3.59375,0 L 410.75893,505.9844 z m 4,0 3.59375,0 0,3.59375 -3.59375,0 L 414.75893,505.9844 z m 4,0 3.59375,0 0,3.59375 -3.59375,0 L 418.75893,505.9844 z m 4,0 3.59375,0 0,3.59375 -3.59375,0 L 422.75893,505.9844 z m 4,0 3.59375,0 0,3.59375 -3.59375,0 L 426.75893,505.9844 z m -40,4 3.59375,0 0,3.59375 -3.59375,0 L 386.75893,509.9844 z m 4,0 3.59375,0 0,3.59375 -3.59375,0 L 390.75893,509.9844 z m 4,0 3.59375,0 0,3.59375 -3.59375,0 L 394.75893,509.9844 z m 4,0 3.59375,0 0,3.59375 -3.59375,0 L 398.75893,509.9844 z m 4,0 3.59375,0 0,3.59375 -3.59375,0 L 402.75893,509.9844 z m 4,0 3.59375,0 0,3.59375 -3.59375,0 L 406.75893,509.9844 z m 4,0 3.59375,0 0,3.59375 -3.59375,0 L 410.75893,509.9844 z m 4,0 3.59375,0 0,3.59375 -3.59375,0 L 414.75893,509.9844 z m 4,0 3.59375,0 0,3.59375 -3.59375,0 L 418.75893,509.9844 z m 4,0 3.59375,0 0,3.59375 -3.59375,0 L 422.75893,509.9844 z m 4,0 3.59375,0 0,3.59375 -3.59375,0 L 426.75893,509.9844 z m -40,4 3.59375,0 0,3.59375 -3.59375,0 L 386.75893,513.9844 z m 4,0 3.59375,0 0,3.59375 -3.59375,0 L 390.75893,513.9844 z m 4,0 3.59375,0 0,3.59375 -3.59375,0 L 394.75893,513.9844 z m 4,0 3.59375,0 0,3.59375 -3.59375,0 L 398.75893,513.9844 z m 4,0 3.59375,0 0,3.59375 -3.59375,0 L 402.75893,513.9844 z m 4,0 3.59375,0 0,3.59375 -3.59375,0 L 406.75893,513.9844 z m 4,0 3.59375,0 0,3.59375 -3.59375,0 L 410.75893,513.9844 z m 4,0 3.59375,0 0,3.59375 -3.59375,0 L 414.75893,513.9844 z m 4,0 3.59375,0 0,3.59375 -3.59375,0 L 418.75893,513.9844 z m 4,0 3.59375,0 0,3.59375 -3.59375,0 L 422.75893,513.9844 z m 4,0 3.59375,0 0,3.59375 -3.59375,0 L 426.75893,513.9844 z m -40,4 3.59375,0 0,3.59375 -3.59375,0 L 386.75893,517.9844 z m 4,0 3.59375,0 0,3.59375 -3.59375,0 L 390.75893,517.9844 z m 4,0 3.59375,0 0,3.59375 -3.59375,0 L 394.75893,517.9844 z m 4,0 3.59375,0 0,3.59375 -3.59375,0 L 398.75893,517.9844 z m 4,0 3.59375,0 0,3.59375 -3.59375,0 L 402.75893,517.9844 z m 4,0 3.59375,0 0,3.59375 -3.59375,0 L 406.75893,517.9844 z m 4,0 3.59375,0 0,3.59375 -3.59375,0 L 410.75893,517.9844 z m 4,0 3.59375,0 0,3.59375 -3.59375,0 L 414.75893,517.9844 z m 4,0 3.59375,0 0,3.59375 -3.59375,0 L 418.75893,517.9844 z m 4,0 3.59375,0 0,3.59375 -3.59375,0 L 422.75893,517.9844 z m 4,0 3.59375,0 0,3.59375 -3.59375,0 L 426.75893,517.9844 z m -40,4 3.59375,0 0,3.59375 -3.59375,0 L 386.75893,521.9844 z m 4,0 3.59375,0 0,3.59375 -3.59375,0 L 390.75893,521.9844 z m 4,0 3.59375,0 0,3.59375 -3.59375,0 L 394.75893,521.9844 z m 4,0 3.59375,0 0,3.59375 -3.59375,0 L 398.75893,521.9844 z m 4,0 3.59375,0 0,3.59375 -3.59375,0 L 402.75893,521.9844 z m 4,0 3.59375,0 0,3.59375 -3.59375,0 L 406.75893,521.9844 z m 4,0 3.59375,0 0,3.59375 -3.59375,0 L 410.75893,521.9844 z m 4,0 3.59375,0 0,3.59375 -3.59375,0 L 414.75893,521.9844 z m 4,0 3.59375,0 0,3.59375 -3.59375,0 L 418.75893,521.9844 z m 4,0 3.59375,0 0,3.59375 -3.59375,0 L 422.75893,521.9844 z m 4,0 3.59375,0 0,3.59375 -3.59375,0 L 426.75893,521.9844 z m -40,4 3.59375,0 0,3.59375 -3.59375,0 L 386.75893,525.9844 z m 4,0 3.59375,0 0,3.59375 -3.59375,0 L 390.75893,525.9844 z m 4,0 3.59375,0 0,3.59375 -3.59375,0 L 394.75893,525.9844 z m 4,0 3.59375,0 0,3.59375 -3.59375,0 L 398.75893,525.9844 z m 4,0 3.59375,0 0,3.59375 -3.59375,0 L 402.75893,525.9844 z m 4,0 3.59375,0 0,3.59375 -3.59375,0 L 406.75893,525.9844 z m 4,0 3.59375,0 0,3.59375 -3.59375,0 L 410.75893,525.9844 z m 4,0 3.59375,0 0,3.59375 -3.59375,0 L 414.75893,525.9844 z m 4,0 3.59375,0 0,3.59375 -3.59375,0 L 418.75893,525.9844 z m 4,0 3.59375,0 0,3.59375 -3.59375,0 L 422.75893,525.9844 z m 4,0 3.59375,0 0,3.59375 -3.59375,0 L 426.75893,525.9844 z m -40,4 3.59375,0 0,3.59375 -3.59375,0 L 386.75893,529.9844 z m 4,0 3.59375,0 0,3.59375 -3.59375,0 L 390.75893,529.9844 z m 4,0 3.59375,0 0,3.59375 -3.59375,0 L 394.75893,529.9844 z m 4,0 3.59375,0 0,3.59375 -3.59375,0 L 398.75893,529.9844 z m 4,0 3.59375,0 0,3.59375 -3.59375,0 L 402.75893,529.9844 z m 4,0 3.59375,0 0,3.59375 -3.59375,0 L 406.75893,529.9844 z m 4,0 3.59375,0 0,3.59375 -3.59375,0 L 410.75893,529.9844 z m 4,0 3.59375,0 0,3.59375 -3.59375,0 L 414.75893,529.9844 z m 4,0 3.59375,0 0,3.59375 -3.59375,0 L 418.75893,529.9844 z m 4,0 3.59375,0 0,3.59375 -3.59375,0 L 422.75893,529.9844 z m 4,0 3.59375,0 0,3.59375 -3.59375,0 L 426.75893,529.9844 z m -40,4 3.59375,0 0,3.59375 -3.59375,0 L 386.75893,533.9844 z m 4,0 3.59375,0 0,3.59375 -3.59375,0 L 390.75893,533.9844 z m 4,0 3.59375,0 0,3.59375 -3.59375,0 L 394.75893,533.9844 z m 4,0 3.59375,0 0,3.59375 -3.59375,0 L 398.75893,533.9844 z m 4,0 3.59375,0 0,3.59375 -3.59375,0 L 402.75893,533.9844 z m 4,0 3.59375,0 0,3.59375 -3.59375,0 L 406.75893,533.9844 z m 4,0 3.59375,0 0,3.59375 -3.59375,0 L 410.75893,533.9844 z m 4,0 3.59375,0 0,3.59375 -3.59375,0 L 414.75893,533.9844 z m 4,0 3.59375,0 0,3.59375 -3.59375,0 L 418.75893,533.9844 z m 4,0 3.59375,0 0,3.59375 -3.59375,0 L 422.75893,533.9844 z m 4,0 3.59375,0 0,3.59375 -3.59375,0 L 426.75893,533.9844 z m -40,4 3.59375,0 0,3.59375 -3.59375,0 L 386.75893,537.9844 z m 4,0 3.59375,0 0,3.59375 -3.59375,0 L 390.75893,537.9844 z m 4,0 3.59375,0 0,3.59375 -3.59375,0 L 394.75893,537.9844 z m 4,0 3.59375,0 0,3.59375 -3.59375,0 L 398.75893,537.9844 z m 4,0 3.59375,0 0,3.59375 -3.59375,0 L 402.75893,537.9844 z m 4,0 3.59375,0 0,3.59375 -3.59375,0 L 406.75893,537.9844 z m 4,0 3.59375,0 0,3.59375 -3.59375,0 L 410.75893,537.9844 z m 4,0 3.59375,0 0,3.59375 -3.59375,0 L 414.75893,537.9844 z m 4,0 3.59375,0 0,3.59375 -3.59375,0 L 418.75893,537.9844 z m 4,0 3.59375,0 0,3.59375 -3.59375,0 L 422.75893,537.9844 z m 4,0 3.59375,0 0,3.59375 -3.59375,0 L 426.75893,537.9844 z m -40,4 3.59375,0 0,3.59375 -3.59375,0 L 386.75893,541.9844 z m 4,0 3.59375,0 0,3.59375 -3.59375,0 L 390.75893,541.9844 z m 4,0 3.59375,0 0,3.59375 -3.59375,0 L 394.75893,541.9844 z m 4,0 3.59375,0 0,3.59375 -3.59375,0 L 398.75893,541.9844 z m 4,0 3.59375,0 0,3.59375 -3.59375,0 L 402.75893,541.9844 z m 4,0 3.59375,0 0,3.59375 -3.59375,0 L 406.75893,541.9844 z m 4,0 3.59375,0 0,3.59375 -3.59375,0 L 410.75893,541.9844 z m 4,0 3.59375,0 0,3.59375 -3.59375,0 L 414.75893,541.9844 z m 4,0 3.59375,0 0,3.59375 -3.59375,0 L 418.75893,541.9844 z m 4,0 3.59375,0 0,3.59375 -3.59375,0 L 422.75893,541.9844 z m 4,0 3.59375,0 0,3.59375 -3.59375,0 L 426.75893,541.9844 z m -42.1875,3.59375 0,0.28125 c 0,0.0446 -0.003,0.0812 0,0.125 l 0.4375,0 c -0.10187,-0.12383 -0.18196,-0.25905 -0.25,-0.40625 L 384.57143,545.57815 z m 47.8125,0 c -0.068,0.1472 -0.14813,0.28242 -0.25,0.40625 l 0.4375,0 c 0.003,-0.0438 0,-0.0804 0,-0.125 l 0,-0.28125 L 432.38393,545.57815 Z"
       id="rect859" />
    <path
       inkscape:connector-curvature="0"
       style="fill:#000000;fill-opacity:1;stroke:none"
       d="m 384.57143,544.79799 0,1.0625 c 0,1.0773 0.86022,1.9375 1.9375,1.9375 l 44.125,0 c 1.07728,0 1.9375,-0.8602 1.9375,-1.9375 l 0,-1.0625 c 0,1.0773 -0.86022,1.9375 -1.9375,1.9375 l -44.125,0 C 385.43165,546.73549 384.57143,545.87529 384.57143,544.79799 Z"
       id="rect846" />
    <path
       inkscape:connector-curvature="0"
       style="fill:#ffffff;fill-opacity:0.5372549;stroke:none"
       d="m 387.10268,500.45429 c -0.91709,0 -1.67115,0.6395 -1.84375,1.5 0.33561,-0.2799 0.77451,-0.4375 1.25,-0.4375 l 44.125,0 c 0.47549,0 0.91439,0.1576 1.25,0.4375 -0.1726,-0.8605 -0.92666,-1.5 -1.84375,-1.5 L 387.10268,500.45429 Z"
       id="path7515" />
    <path
       inkscape:connector-curvature="0"
       style="fill:#000000;fill-opacity:0.39215686;stroke:none"
       d="m 386.50893,499.79799 c -1.07728,0 -1.9375,0.8602 -1.9375,1.9375 l 0,43.0625 c 0,0.7934 0.48002,1.449 1.15625,1.75 -0.30934,-0.3333 -0.5,-0.7824 -0.5,-1.2812 l 0,-42.9375 c 0,-1.0482 0.8269,-1.875 1.875,-1.875 l 42.9375,0 c 1.0481,0 1.875,0.8268 1.875,1.875 l 0,42.9375 c 0,0.4988 -0.19066,0.9479 -0.5,1.2812 0.67623,-0.301 1.15625,-0.9566 1.15625,-1.75 l 0,-43.0625 c 0,-1.0773 -0.86022,-1.9375 -1.9375,-1.9375 L 386.50893,499.79799 Z"
       id="rect4280" />
    <path
       style="fill:#ffffff;fill-opacity:1"
       d="m 409.40417,507.798 c -0.79145,-1.1e-4 -1.63111,0.0587 -2.86736,0.17652 l -1.98636,0.18927 -2.87649,1.90355 c -1.58205,1.04694 -3.10667,2.0574 -3.38805,2.24545 -0.4266,0.28509 -0.81613,0.77627 -2.34429,2.95608 l -1.83268,2.61417 -0.69535,3.02694 -0.69534,3.02693 0.51192,2.92441 0.51191,2.9244 1.57519,2.40877 1.57519,2.40876 1.65438,1.14591 c 0.90989,0.63024 2.47842,1.67123 3.48557,2.31329 l 1.83118,1.16741 1.92875,0.27924 -6e-5,1.6e-4 c 1.0608,0.15358 2.15434,0.28363 2.43013,0.28854 0.27572,0.006 1.33284,-0.12224 2.34916,-0.28359 l 1.84784,-0.29334 2.23787,-0.98082 2.23783,-0.98082 1.69403,-2.07611 c 0.93172,-1.14187 2.22637,-2.8189 2.877,-3.72675 l 1.183,-1.65062 0.88898,-2.8289 c 0.56153,-1.78698 0.88797,-2.9901 0.88649,-3.26658 -10e-4,-0.24073 -0.1203,-1.66867 -0.26451,-3.17324 l -0.26206,-2.73556 -1.49467,-2.62895 -1.49467,-2.62896 -2.45332,-1.75314 c -2.3134,-1.65315 -2.52076,-1.77809 -3.63599,-2.19043 -1.02938,-0.38061 -1.39712,-0.46158 -2.83705,-0.62472 C 410.93888,507.85719 410.19562,507.79811 409.40417,507.798 z m -0.17199,0.6055 c 0.23943,-0.0909 0.36028,0.0986 0.53331,0.67085 0.11505,0.3804 0.22043,0.79473 0.23535,0.92072 l 0,2.8e-4 c 0.015,0.12599 -0.0189,0.23772 -0.074,0.24795 -0.18431,0.0352 -1.53736,-0.0969 -1.59552,-0.15574 -0.11939,-0.12074 0.3659,-1.30599 0.6156,-1.50332 C 409.05939,508.49535 409.15238,508.43384 409.23218,508.4035 z m 0.86156,0.0298 c 0.0428,-0.043 3.27944,1.3133 3.38351,1.41786 0.10142,0.10187 -0.12269,0.14951 -1.15249,0.24553 l 0,3.5e-4 c -0.60196,0.0562 -1.2146,0.12209 -1.36144,0.14636 -0.14681,0.0247 -0.31184,-0.0105 -0.36671,-0.0768 C 410.46918,510.01101 410.02992,508.49736 410.09374,508.43324 z m -2.42901,0.1784 c 0.18634,0.0174 -0.006,0.16071 -0.81082,0.6021 l 0,3.4e-4 c -0.58045,0.31858 -1.16425,0.57671 -1.2973,0.57326 -0.30974,-0.007 -1.14621,-0.34555 -1.13875,-0.46075 C 404.42471,509.21873 407.32568,508.58004 407.66473,508.61164 z m 4.88218,0.14531 c 0.29996,0.0193 0.92743,0.17043 1.14802,0.30135 0.14247,0.0845 0.31209,0.23904 0.37694,0.34346 l 0,3.4e-4 c 0.0649,0.10442 0.0837,0.18826 0.0419,0.18623 -0.16602,-0.007 -1.73042,-0.73126 -1.73042,-0.80122 C 412.38334,508.75868 412.44693,508.7505 412.54691,508.75696 z m -4.5309,0.44254 c 0.0312,0.0313 -0.004,0.23439 -0.0785,0.45117 l 0,3.6e-4 c -0.11355,0.33115 -0.18173,0.39612 -0.42651,0.40611 -0.4186,0.0177 -0.84281,-0.0625 -0.84281,-0.15911 C 406.66825,509.78736 407.9434,509.12639 408.01601,509.1995 z m 6.70918,0.0202 c 0.0825,-0.0829 0.3653,0.0464 0.3653,0.16709 l 0,4.2e-4 c 0,0.0571 -0.065,0.10396 -0.14456,0.10351 C 414.78633,509.49069 414.63737,509.30793 414.72519,509.21969 z m 1.04588,0.32146 c 0.0572,-0.012 0.11056,-0.009 0.15069,0.015 0.32068,0.18922 2.78564,1.98136 2.83453,2.06076 l 0,1.9e-4 c 0.0974,0.15836 -0.17566,0.0863 -1.40591,-0.37103 -0.90473,-0.3362 -1.29258,-0.53719 -1.57919,-0.81838 -0.20895,-0.20499 -0.3799,-0.44323 -0.3799,-0.52952 C 415.39129,509.74879 415.59928,509.5775 415.77107,509.54116 z m -12.2256,0.0385 c 0.14845,0.0283 0.35596,0.0993 0.67799,0.2236 1.31775,0.50849 1.28181,0.58848 -0.34164,0.76048 l 0,1.9e-4 c -1.1533,0.12224 -2.22684,0.17063 -2.22684,0.10037 0,-0.0421 1.25859,-0.88791 1.56581,-1.05237 C 403.30726,509.56555 403.39692,509.55125 403.54547,509.57961 z m 10.30858,0.78711 c 0.55334,-0.0574 0.93565,0.0389 0.93565,0.23577 l 0,2.8e-4 c 0,0.0535 -0.16921,0.0896 -0.376,0.08 C 413.19081,510.62767 412.90328,510.46529 413.85405,510.36672 z m -5.3992,0.27121 c 0.54288,-0.0135 1.57384,0.0876 1.68702,0.19987 0.0969,0.0962 0.4367,2.87083 0.4367,3.56653 l 0,1.8e-4 c 0,0.20229 -0.0466,0.22288 -0.47626,0.2102 -0.88811,-0.0259 -2.48122,-0.1994 -2.56129,-0.2788 -0.0776,-0.077 0.46387,-3.44557 0.5857,-3.64357 C 408.14715,510.6591 408.27389,510.64221 408.45485,510.63793 z m -1.20023,0.0268 c 0.19213,-10e-4 0.30239,0.0135 0.32185,0.0446 0.0503,0.0818 -0.43568,3.22967 -0.55213,3.57619 -0.0207,0.0614 -0.54273,0.16179 -1.18003,0.22665 l 0,1.2e-4 c -0.62865,0.064 -1.36594,0.10831 -1.63844,0.0975 -0.97008,-0.0355 -1.49939,-0.0959 -1.58467,-0.18065 -0.0482,-0.0479 0.5401,-0.8635 1.32964,-1.84305 l 1.4162,-1.75705 1.07456,-0.10921 C 406.7885,510.68492 407.0625,510.6665 407.25462,510.6647 z m 3.44604,0.18106 c 0.0283,-0.0283 1.08238,0.0271 2.3425,0.12314 l 2.29115,0.17467 0.42476,0.45812 c 0.34283,0.36975 0.50462,0.68805 0.83887,1.65029 0.22769,0.6557 0.38573,1.22063 0.35129,1.25524 -0.0344,0.0346 -0.77141,0.14157 -1.63752,0.23744 l 0,1.4e-4 c -1.53543,0.17001 -2.0194,0.19705 -2.32678,0.12973 -0.0827,-0.018 -0.54339,-0.062 -1.0237,-0.0977 -0.69167,-0.0514 -0.88361,-0.0998 -0.92253,-0.23252 C 410.95338,514.25373 410.64684,510.89984 410.70066,510.84576 z m -6.26322,0.0866 c 0.0887,0.0105 0.12224,0.0401 0.12074,0.0899 -0.003,0.0721 -0.57775,0.83037 -1.27836,1.68525 l 0,2e-4 c -0.70063,0.85489 -1.31898,1.56503 -1.37413,1.57786 -0.12598,0.0298 -2.06282,-0.83915 -2.22704,-0.99925 -0.0945,-0.0921 0.003,-0.31957 0.43877,-1.02506 0.30813,-0.49866 0.57507,-0.9236 0.59327,-0.94412 0.0181,-0.0207 0.63286,-0.0978 1.36601,-0.17171 0.73313,-0.0738 1.5924,-0.16122 1.90949,-0.19418 C 404.20506,510.9284 404.3488,510.92129 404.43744,510.9323 z m 12.14417,0.56506 c 0.099,-0.0373 0.40708,0.0748 1.66722,0.53051 0.77205,0.27924 1.52779,0.55236 1.67945,0.60704 0.15168,0.0545 0.27572,0.14591 0.27572,0.20287 0,0.0569 -0.28201,0.36782 -0.62665,0.69084 l 0,2e-4 c -0.34467,0.32302 -0.67962,0.58932 -0.74436,0.59158 -0.17503,0.006 -2.3603,-2.40086 -2.30826,-2.54302 C 416.53881,511.53889 416.54859,511.50983 416.58161,511.49736 z m -16.95202,0.55897 c 0.0244,0.0246 -0.0758,0.25072 -0.22261,0.50254 l 0,2e-4 c -0.14696,0.25183 -0.32422,0.45786 -0.39408,0.45768 -0.15789,0 -0.5341,-0.26869 -0.46595,-0.33281 C 398.70911,512.53123 399.59247,512.01903 399.62959,512.05633 z m -1.60286,1.11839 c 0.17099,-0.0723 0.72187,0.21351 0.71889,0.37357 -9.3e-4,0.0679 -0.242,0.50865 -0.53572,0.97961 -0.48835,0.78299 -0.62334,0.91845 -1.5775,1.58282 l 0,10e-5 c -0.57389,0.39961 -1.08172,0.72828 -1.12848,0.73025 -0.10652,0.004 0.0347,-0.21649 1.33836,-2.09415 C 397.42131,513.91286 397.95441,513.20528 398.02673,513.17472 z m 22.71936,0.0445 c 0.0319,0.0216 0.0589,0.0646 0.0948,0.12179 0.43669,0.69706 2.1706,3.8148 2.1706,3.90303 l -6e-5,5.3e-4 c 0,0.15236 -0.0135,0.1483 -1.70446,-0.53156 l -1.55411,-0.62416 -0.26989,-0.55406 c -0.41843,-0.85897 -0.39062,-0.96283 0.46633,-1.74263 C 420.50975,513.28227 420.65029,513.15456 420.74609,513.21926 z m -3.6503,0.015 c 0,-0.0995 0.20886,0.047 0.55145,0.38699 0.30331,0.30094 0.55148,0.60024 0.55148,0.66511 l 0,1.9e-4 c 0,0.16119 -0.582,0.23555 -0.70243,0.0896 C 417.37032,514.22353 417.09579,513.44082 417.09579,513.23418 z m -17.7496,0.48781 c 0.13962,0 2.13867,0.89741 2.25198,1.01096 0.16921,0.1696 -0.0199,0.22122 -1.31748,0.35919 l 0,1e-4 c -1.36211,0.14487 -1.93444,0.17198 -1.93444,0.0915 C 398.34625,515.05651 399.25912,513.72199 399.34619,513.72199 z m 18.88128,1.12766 c 0.46276,-0.0298 0.48291,-0.0195 0.62575,0.32416 0.081,0.19525 0.14756,0.40174 0.14756,0.45896 l 0,1.1e-4 c 0,0.15577 -0.1936,0.11834 -0.78482,-0.15153 -0.39337,-0.17954 -0.52532,-0.2908 -0.50043,-0.42233 C 417.74123,514.92336 417.86422,514.87302 418.22747,514.84965 z m -1.21524,0.14172 c 0.0644,-0.006 0.13572,0.0464 0.15875,0.1158 l 0,1.2e-4 c 0.05,0.15082 -0.35573,0.16854 -0.57646,0.0252 -0.12284,-0.0797 -0.1089,-0.10082 0.0752,-0.1143 C 416.79374,515.009 416.94783,514.99732 417.01223,514.99133 z m -12.69712,0.13212 c 1.12911,-0.0238 2.33968,0.0658 2.49875,0.21918 0.13243,0.12764 -0.22067,4.13575 -0.3774,4.2848 -0.0655,0.0623 -1.405,0.25749 -2.97664,0.43371 l -6e-5,4e-4 c -1.57165,0.17623 -3.02675,0.34637 -3.23349,0.37777 -0.2661,0.0407 -0.37598,0.0204 -0.37598,-0.0695 0,-0.13902 1.99126,-4.83483 2.10592,-4.96621 0.0388,-0.0445 0.62338,-0.14216 1.29892,-0.21674 C 403.57143,515.1519 403.93875,515.13138 404.31511,515.12345 z m 9.4444,0.25556 c 0.43236,0.006 0.93238,0.0424 1.68192,0.11025 0.99261,0.0897 1.83771,0.19468 1.87782,0.23333 0.0403,0.0385 0.10367,1.16108 0.14082,2.49451 l -6e-5,4.1e-4 c 0.0397,1.42034 0.0303,2.44439 -0.0228,2.47224 -0.0499,0.0265 -1.46685,-0.0911 -3.14879,-0.26145 l -3.05808,-0.3097 -0.0845,-2.15293 c -0.0689,-1.75508 -0.0596,-2.17612 0.05,-2.27829 0.074,-0.0689 0.65348,-0.17849 1.28765,-0.24336 C 412.96247,515.39498 413.32716,515.37239 413.75951,515.37901 z m -5.88225,0.0105 c 0.86093,0.0135 2.54379,0.14801 2.70413,0.24763 0.0703,0.0436 0.11415,0.81655 0.12763,2.22363 l -6e-5,5.2e-4 0.0201,2.15659 -0.3008,0.0135 c -0.43513,0.0199 -3.33233,-0.30398 -3.40792,-0.38113 -0.0761,-0.0776 0.26108,-4.07189 0.35681,-4.22758 C 407.39465,515.39436 407.59029,515.38525 407.87726,515.38966 z m -7.10425,0.0703 c 0.30612,-0.0193 0.51981,-0.0202 0.54781,0.007 0.0385,0.0386 -0.38251,1.12362 -0.93562,2.41093 l -6e-5,4e-4 c -0.57316,1.33401 -1.06612,2.34975 -1.14621,2.36153 -0.21103,0.0321 -1.89525,-0.8607 -1.89534,-1.00466 -1.2e-4,-0.23578 0.62592,-3.27532 0.69913,-3.39427 C 398.10483,515.74074 399.85472,515.51762 400.77301,515.45984 z m 17.0932,0.4484 c 0.0796,-0.0485 1.3592,0.42317 1.48161,0.54616 0.16663,0.16741 1.64629,3.8677 1.57516,3.93916 -0.0452,0.0455 -0.61864,0.14965 -1.27413,0.23125 l -6e-5,4.1e-4 c -1.45169,0.18092 -1.64602,0.18351 -1.6961,0.0222 C 417.8692,520.38021 417.78868,515.95543 417.86621,515.90824 z m -20.52363,0.35131 c 0.0508,-0.012 0.0773,-0.004 0.0831,0.0235 0.0265,0.12688 -0.25133,1.69545 -0.45174,2.55099 l -6e-5,5.3e-4 c -0.0292,0.12464 -0.0821,0.2251 -0.1173,0.22264 -0.17512,-0.009 -2.02432,-1.03925 -1.99883,-1.1131 0.0162,-0.0469 0.59347,-0.47435 1.28279,-0.94974 C 396.8203,516.52546 397.19031,516.29751 397.34258,516.25955 z m 22.78292,0.52401 c 0.0716,-0.0439 0.37718,0.0797 1.67678,0.59664 0.74114,0.29485 1.36368,0.58483 1.38351,0.64445 0.0198,0.0596 -0.3298,0.53242 -0.77688,1.05071 l -6e-5,5.4e-4 c -0.85435,0.99047 -0.94391,1.06736 -1.0473,0.89865 -0.15528,-0.25242 -1.25775,-2.96943 -1.25775,-3.09976 C 420.1038,516.83137 420.10165,516.79816 420.1255,516.78356 z m -25.61528,1.69988 c 0.12794,-0.0493 1.85075,0.79276 2.14347,1.04767 0.14321,0.12479 0.14741,0.2125 0.0355,0.7518 -0.0697,0.33576 -0.16529,0.64508 -0.21241,0.68717 -0.047,0.0422 -0.72697,0.55915 -1.51086,1.14882 l -6e-5,4.6e-4 c -0.78387,0.58965 -1.47722,1.0721 -1.54069,1.07164 -0.071,0 -0.0923,-0.0882 -0.056,-0.22666 0.0327,-0.12464 0.27471,-1.17302 0.5378,-2.32969 C 394.17703,519.44704 394.4397,518.51071 394.51022,518.48344 z m 29.00404,0.14292 c 0.0407,0.0451 0.1498,0.92051 0.2421,1.94551 0.0923,1.02501 0.19399,2.07899 0.22575,2.34217 l -6e-5,4.4e-4 c 0.0736,0.60825 0.006,0.60982 -1.27141,0.0294 -0.92547,-0.42027 -0.9544,-0.44355 -1.02195,-0.82296 -0.0382,-0.21476 -0.0722,-0.6255 -0.0752,-0.91277 -0.006,-0.51578 0.006,-0.53567 0.91037,-1.59294 C 423.02781,519.02622 423.47355,518.58121 423.51426,518.6263 z m -26.26998,1.30824 c 0.041,-0.0458 0.35649,0.0596 0.70096,0.23438 0.34449,0.17472 0.58692,0.35396 0.53876,0.39846 l -6e-5,4e-4 c -0.11445,0.10561 -1.28268,0.23085 -1.36654,0.14606 C 397.04124,520.63741 397.13603,520.05528 397.24428,519.93454 z m 9.02368,0.23432 c 0.18917,0 0.20767,0.0496 0.18023,0.47851 l -6e-5,4.7e-4 c -0.0289,0.4538 -0.0461,0.47925 -0.33118,0.49292 -0.16543,0.007 -1.04525,-0.0682 -1.95517,-0.1697 -0.90989,-0.10157 -1.71983,-0.18816 -1.79975,-0.19116 -0.0896,-0.004 -0.10891,-0.0409 -0.0502,-0.096 C 402.39676,520.60412 405.74027,520.16886 406.26796,520.16886 z m 0.75632,0.0345 c 0.16437,-0.0634 3.52228,0.23597 3.669,0.32705 0.0472,0.0294 0.0858,0.27731 0.0858,0.55106 l -6e-5,4.7e-4 8e-5,0.49675 -0.5264,-0.012 c -0.60877,-0.015 -3.07284,-0.27024 -3.25862,-0.33825 C 406.80356,521.15867 406.82943,520.27839 407.02428,520.20333 z m 4.29557,0.40906 c 0.13123,-0.0506 3.04549,0.19355 3.92109,0.32852 0.63199,0.0974 0.22326,0.19758 -1.75893,0.43108 l -6e-5,4.5e-4 c -1.92323,0.22657 -2.13561,0.23987 -2.23487,0.13962 C 411.11871,521.38307 411.17656,520.66752 411.31985,520.61239 z m 9.7944,0.33421 c 0.0408,0.0431 0.0893,0.32673 0.10831,0.63009 l -6e-5,4.6e-4 c 0.0268,0.43117 0.002,0.55656 -0.11595,0.57398 -0.21556,0.0328 -2.2296,-0.8917 -2.13463,-0.97994 C 419.09184,521.05986 421.02956,520.85673 421.11425,520.94661 z m -21.45871,0.0828 c 0.0683,-0.0686 1.17059,0.007 3.37847,0.2317 1.80245,0.18342 3.31123,0.35474 3.35283,0.38051 0.10592,0.0658 -0.0241,3.59183 -0.13707,3.71527 l -6e-5,4e-4 c -0.0506,0.0554 -1.74141,0.30788 -3.75718,0.56066 -3.13497,0.39369 -3.67333,0.43893 -3.72149,0.3128 C 398.69636,526.03513 399.52522,521.16037 399.65554,521.02944 z m -0.59343,0.022 c 0.11191,0.1158 -0.79006,5.28448 -0.93856,5.37916 l -6e-5,3.1e-4 c -0.16693,0.10651 -0.45339,0.10741 -0.51834,10e-4 -0.1161,-0.18878 -0.59461,-5.06216 -0.50545,-5.14814 C 397.22466,521.16372 398.97042,520.95669 399.06211,521.05152 z m 18.30348,0.35727 c 0.0706,0.11475 -0.87359,4.81225 -1.00108,4.98069 l -6e-5,4.1e-4 c -0.0524,0.0692 -0.14621,0.12059 -0.20829,0.1137 -0.0622,-0.006 -1.19593,-0.13992 -2.51943,-0.29654 -1.32349,-0.15659 -2.44727,-0.28737 -2.49738,-0.29037 -0.12703,-0.007 0.0135,-3.64483 0.14576,-3.77846 C 411.42506,521.997 417.29433,521.29299 417.36559,521.40879 z m 0.59522,6.1e-4 c 0.10501,-0.0404 3.09427,1.21942 3.27904,1.38211 0.0458,0.0403 0.14471,0.95136 0.21964,2.02455 0.10546,1.50887 0.10936,1.9774 0.0169,2.06654 -0.0656,0.0634 -0.66335,0.18803 -1.32821,0.27702 l -7e-5,3.3e-4 c -0.66485,0.089 -1.36419,0.15952 -1.55401,0.15648 -0.39336,-0.006 -1.69698,-0.63901 -1.70296,-0.82751 C 416.87936,526.12672 417.86494,521.44641 417.96081,521.4094 z m -21.4286,0.16982 c 0.0602,0 0.10966,0.0671 0.10966,0.14906 0,0.0819 0.0929,0.96869 0.20643,1.97044 l -6e-5,4.5e-4 c 0.11355,1.00175 0.19249,1.95444 0.17544,2.11666 l -0.0309,0.29575 -1.7861,-1.06319 c -0.98237,-0.58475 -1.77195,-1.10237 -1.75465,-1.15016 C 393.49935,523.76737 396.40578,521.57922 396.53221,521.57922 z m 10.3639,0.14037 c 0.0742,-0.0744 3.63433,0.27121 3.79017,0.36798 0.0855,0.0532 0.0932,0.5395 0.0291,1.87202 l -9e-5,4.5e-4 -0.0861,1.79984 -0.4512,0.0135 c -0.24815,0.007 -1.10541,-0.0607 -1.90503,-0.15111 l -1.45383,-0.16462 0.009,-1.8396 C 406.83334,522.60623 406.8639,521.75192 406.89611,521.71956 z m 14.92362,1.43085 c 0.0933,-0.10681 1.88783,0.63753 1.96046,0.81319 0.0268,0.0647 -0.3438,0.64277 -0.82348,1.28441 l -6e-5,4.6e-4 c -0.79829,1.0678 -0.92331,1.21641 -0.96024,1.14095 C 421.92558,526.24597 421.76053,523.21828 421.81973,523.15041 z m -28.4843,1.39925 c 0.0852,-0.0529 3.25197,1.79293 3.53495,2.06054 0.16915,0.15997 0.10591,0.23003 -1.2167,1.34662 l -6e-5,3e-4 c -0.76735,0.64782 -1.44079,1.17786 -1.49649,1.17758 -0.0557,0 -0.17305,-0.39666 -0.26057,-0.88146 C 393.42713,525.65382 393.26624,524.59265 393.33543,524.54966 z m 30.1321,0.88069 c 0.0312,-0.012 0.0452,0.004 0.0452,0.0463 0,0.0446 -0.25585,0.90863 -0.56853,1.91995 l -6e-5,3e-4 c -0.59669,1.9299 -0.61399,1.95663 -1.11077,1.71555 -0.27722,-0.13423 -0.28128,-0.32252 -0.0256,-1.18492 0.14606,-0.49255 0.37523,-0.90823 0.84884,-1.53906 C 423.12872,525.7597 423.37426,525.46668 423.46753,525.43035 z m -16.64391,0.51524 c 0.16065,-0.0619 3.19803,0.21945 3.58308,0.33196 0.15785,0.0463 0.17575,0.16357 0.1504,1.02657 l -6e-5,3.1e-4 -0.0285,0.97346 -0.50132,0.015 c -0.5188,0.015 -3.1144,-0.28606 -3.1903,-0.36995 -0.0235,-0.0261 -0.0746,-0.46691 -0.11325,-0.97955 C 406.66135,526.11922 406.67294,526.00372 406.82362,525.94559 z m -0.61057,3.3e-4 c 0.1221,0.047 0.15445,0.23672 0.15445,0.90665 l -9e-5,3.2e-4 c 0,0.55943 -0.0425,0.87963 -0.12403,0.94262 -0.1209,0.0924 -7.45929,-0.70701 -7.57708,-0.82535 -0.0294,-0.0285 -0.0282,-0.0762 0.002,-0.10607 C 398.76112,526.7703 406.05053,525.8833 406.21305,525.94592 z m 4.84804,0.45211 c 0.0773,-0.075 5.00676,0.46136 5.09994,0.55499 0.0685,0.0688 -0.15328,0.64947 -0.27748,0.72662 -0.0458,0.0285 -1.06641,0.186 -2.26797,0.35011 l -6e-5,3.3e-4 c -2.32049,0.31694 -2.63188,0.34326 -2.64269,0.22313 C 410.93912,527.88171 411.00727,526.45032 411.06109,526.39804 z m 5.76608,0.73136 c 0.0936,-0.003 0.21111,0.052 0.36881,0.16297 l 0.24504,0.17243 -0.2478,0.0694 -4e-5,3.3e-4 c -0.55677,0.15587 -0.75478,0.0803 -0.59159,-0.22639 C 416.66381,527.19129 416.73356,527.13187 416.82717,527.12939 z m -19.57053,0.14171 c 0.059,0 0.32701,0.5247 0.59552,1.16597 0.482,1.15118 0.60615,1.74607 0.71157,3.41005 l -6e-5,2.4e-4 c 0.0156,0.24518 -0.0187,0.4615 -0.0761,0.48046 -0.14021,0.047 -4.04616,-2.50824 -4.04914,-2.64906 C 394.43552,529.54767 397.10024,527.27109 397.25664,527.27109 z m 0.77402,0.0426 c 0.0213,-0.005 0.0464,0.006 0.0738,0.0334 l -7e-5,3.3e-4 c 0.0325,0.0327 0.0394,0.14217 0.0156,0.24218 -0.0417,0.17693 -0.0469,0.17708 -0.1215,0.004 C 397.93953,527.4576 397.967,527.32497 398.03066,527.31363 z m 23.35532,0.1543 c 0.0295,0.0297 -0.006,0.30338 -0.0789,0.60843 l -6e-5,3.2e-4 c -0.0929,0.3888 -0.18009,0.55309 -0.2918,0.54926 -0.26781,-0.009 -1.74455,-0.81045 -1.65091,-0.89659 C 419.47174,527.6307 421.31129,527.39288 421.38598,527.46793 z m -22.76187,0.0376 c 0.0811,-0.0812 7.45189,0.75529 7.62998,0.86584 0.16689,0.10337 0.15528,2.46754 -0.012,2.52627 -0.0689,0.0243 -1.45633,0.22679 -3.08313,0.45019 l -8e-5,2.9e-4 c -1.6268,0.2234 -3.05774,0.40618 -3.1803,0.40588 -0.25702,-6e-5 -0.276,-0.0312 -0.81461,-1.33252 -0.30307,-0.7323 -0.43168,-1.21531 -0.50907,-1.91155 C 398.59817,527.99748 398.58414,527.54547 398.62411,527.50547 z m 19.62478,0.31818 1.32852,0.65215 c 1.01192,0.49674 1.32849,0.69786 1.32849,0.84392 0,0.20543 -0.5072,2.01159 -0.75791,2.6989 -0.23911,0.65547 -0.41411,0.75275 -1.72325,0.95788 l -6e-5,2.6e-4 c -0.64816,0.10157 -1.29129,0.18463 -1.42908,0.18441 -0.24609,-2e-5 -2.19455,-1.03426 -2.3198,-1.2313 -0.0724,-0.11385 1.45924,-3.70387 1.62367,-3.80603 0.0587,-0.0364 0.52129,-0.1188 1.02804,-0.18319 L 418.24889,527.82366 z m -2.94048,0.42111 c 0.29084,-0.0189 0.28346,0.0193 0.28346,0.0948 0,0.0613 -0.32197,0.85462 -0.7155,1.76291 l -6e-5,2.8e-4 -0.71545,1.65101 -0.41246,-0.012 c -0.6645,-0.0195 -2.94666,-0.33458 -3.03002,-0.41832 -0.11655,-0.117 0.13947,-2.31257 0.28492,-2.44514 0.0697,-0.0635 1.07428,-0.23695 2.23234,-0.38556 C 414.42851,528.33971 415.01758,528.26367 415.30841,528.24476 z m -8.54597,0.18459 0.32895,0.004 c 0.48311,0.006 3.27456,0.35295 3.33555,0.41407 0.0286,0.0288 -0.005,0.56974 -0.0739,1.20211 l -6e-5,3e-4 -0.12583,1.14932 -0.50115,0.0153 c -0.27561,0.009 -1.04254,-0.0596 -1.70429,-0.1511 l -1.20318,-0.16639 -0.028,-1.23404 L 406.76244,528.42935 z m 14.77174,1.05912 c 0.18364,0.0273 0.47463,0.17499 0.47463,0.27533 0,0.0512 -0.20968,0.36124 -0.46597,0.68899 l -6e-5,3e-4 c -0.25628,0.32774 -0.48188,0.59591 -0.50126,0.59563 -0.12749,0 0.19031,-1.36186 0.35959,-1.54109 C 421.4237,529.48372 421.47297,529.4794 421.53418,529.48848 z m -26.56443,1.25476 c 0.0196,-0.004 0.0658,0.0196 0.12165,0.0412 0.35562,0.13707 3.15262,2.02768 3.15337,2.13179 6.9e-4,0.0575 -0.21461,0.31814 -0.47845,0.57924 l -6e-5,2.5e-4 c -0.26383,0.2611 -0.52903,0.47472 -0.58926,0.47447 -0.14561,0 -0.17373,-0.0376 -1.20717,-1.6118 C 395.09188,531.02096 394.91101,530.75587 394.96975,530.74324 z m 12.00934,0.60625 c 0.50163,-0.004 2.96839,0.35263 3.06039,0.44386 0.12119,0.12029 -0.0433,2.006 -0.19649,2.25231 l -4e-5,3e-4 c -0.0431,0.0692 -0.10951,0.12015 -0.14756,0.11265 -0.038,-0.007 -0.62019,-0.0864 -1.29351,-0.17629 -0.67332,-0.0899 -1.26971,-0.20963 -1.32533,-0.26596 -0.0556,-0.0563 -0.13168,-0.61173 -0.16948,-1.23404 C 406.85057,531.5472 406.86309,531.35023 406.97909,531.34949 z m -8.00355,0.0333 c 0.0199,-0.0219 0.0568,0.0216 0.12599,0.1134 0.081,0.10756 0.14711,0.30021 0.14711,0.42814 l -6e-5,2.7e-4 c 0,0.22777 -0.10097,0.29912 -0.23384,0.16516 -0.0367,-0.037 -0.0652,-0.2296 -0.0637,-0.42814 C 398.95261,531.49192 398.95562,531.40463 398.97554,531.38271 z m 7.14585,0.0445 c 0.38235,0.0318 0.34325,0.21533 0.34475,0.58903 8.8e-4,0.22735 0.0306,0.692 0.0661,1.03255 l -6e-5,2.6e-4 0.0644,0.61892 -0.44042,-0.0105 c -0.24222,-0.006 -1.55949,-0.15958 -2.92724,-0.34176 -1.95931,-0.26098 -2.53024,-0.37071 -2.69138,-0.51722 -0.21734,-0.19762 -0.42609,-0.53461 -0.36764,-0.59334 0.0193,-0.0193 1.4045,-0.22472 3.07822,-0.45627 C 404.93527,531.51539 405.73905,531.39539 406.12139,531.42714 z m 4.79778,0.42744 c 0.54087,0 2.69773,0.29237 2.78213,0.37716 0.0439,0.0441 -0.17995,0.41904 -0.49731,0.8333 l -0.57699,0.75321 -0.7986,0.11879 -6e-5,2.4e-4 c -0.43922,0.0653 -0.95142,0.12209 -1.13816,0.12599 l -0.33966,0.007 0.0698,-0.88146 C 410.52158,531.91016 410.54233,531.85458 410.91917,531.85458 z m 3.44415,0.50377 c 0.12464,0 1.52935,0.82869 1.52935,0.9021 0,0.0451 -0.34968,0.13272 -0.77706,0.19458 l -6e-5,2.4e-4 c -1.75824,0.2545 -1.76712,0.25504 -1.67632,0.10261 C 413.60848,533.27401 414.31397,532.35835 414.36332,532.35835 z m -14.76643,0.10336 c 0.0803,-0.0135 0.15315,-0.004 0.15315,0.0394 0,0.0232 0.0274,0.11385 0.0608,0.20147 l -6e-5,2.6e-4 c 0.0433,0.11325 10e-4,0.15933 -0.14442,0.15906 -0.22957,0 -0.36154,-0.14905 -0.26729,-0.30222 C 399.42887,532.51148 399.51659,532.47515 399.59689,532.46175 z m -0.0166,0.80324 c 0.72606,0 0.85326,0.0929 2.03044,1.48265 0.63096,0.7449 1.14719,1.38562 1.14719,1.42397 0,0.0384 -0.13872,0.2386 -0.3081,0.44515 l -6e-5,2.5e-4 c -0.23867,0.29091 -0.37986,0.37518 -0.62659,0.3738 -0.62847,-0.003 -0.77986,-0.17126 -1.58439,-1.76143 C 399.28338,533.34094 399.25794,533.26499 399.58034,533.26499 z m -0.83741,0.0475 c 0.10396,0.0646 1.30788,2.53771 1.30788,2.68677 l -6e-5,3e-4 c 0,0.15125 -0.12839,0.084 -1.20207,-0.63022 -1.51279,-1.00575 -1.46133,-0.90269 -0.77971,-1.56214 C 398.38516,533.50134 398.6885,533.2787 398.74292,533.31255 z m 20.32357,0.0855 c 0.0312,0.0312 -0.0418,0.19539 -0.16176,0.36481 l -6e-5,2.4e-4 c -0.12014,0.16941 -0.29419,0.30725 -0.38689,0.30607 -0.19853,-10e-4 -0.82035,-0.38387 -0.82035,-0.50386 C 417.69744,533.46968 418.98165,533.31284 419.0665,533.39808 z m -17.79655,0.11925 c 0.0631,-0.0634 5.1302,0.60055 5.27647,0.69133 0.15388,0.0954 0.16748,1.27251 0.015,1.27251 -0.0589,0 -0.70178,0.0902 -1.42877,0.20023 l -6e-5,3e-4 c -0.72702,0.11011 -1.44534,0.22221 -1.59643,0.24877 -0.24248,0.0431 -0.36379,-0.0536 -1.04048,-0.82983 C 401.56629,534.03463 401.21134,533.57605 401.26995,533.51732 z m 15.40941,0.13138 0.62841,0.33703 c 0.34562,0.18537 0.64506,0.39036 0.66535,0.45553 0.0204,0.0656 -0.97936,0.72915 -2.23866,1.48587 l -5e-5,2.6e-4 c -1.25157,0.75207 -2.30325,1.36648 -2.33702,1.36492 -0.12374,-0.004 -1.66834,-1.00633 -1.75512,-1.13831 -0.0626,-0.0954 0.10202,-0.39609 0.55145,-1.0065 0.74503,-1.01185 0.62328,-0.95841 2.9142,-1.27893 L 416.67936,533.64867 z m -9.08816,0.63477 c 0.18035,0.0159 0.42296,0.0484 0.74929,0.0909 1.57421,0.20469 1.46136,0.15291 1.38204,0.6344 -0.0382,0.23215 -0.11101,0.50146 -0.16172,0.59838 l -6e-5,3e-4 c -0.0506,0.0969 -0.12434,0.17094 -0.16381,0.16417 -0.0394,-0.006 -0.51631,-0.0729 -1.05973,-0.14756 -0.54345,-0.0746 -1.05106,-0.18803 -1.12799,-0.2523 -0.0846,-0.0707 -0.13992,-0.31052 -0.13992,-0.60803 C 407.06936,534.33649 407.05014,534.23558 407.59119,534.28344 z m 4.39759,0.10756 c 0.19955,0.0306 0.18983,0.0626 -0.16317,0.53621 -0.20645,0.27704 -0.4897,0.62836 -0.62941,0.78073 l -6e-5,2.1e-4 c -0.13977,0.15237 -0.27943,0.27023 -0.31041,0.26175 -0.031,-0.009 -0.1918,-0.035 -0.35723,-0.0593 -0.49646,-0.0729 -0.54841,-0.17037 -0.3973,-0.74585 0.0737,-0.2806 0.15005,-0.52636 0.16957,-0.54598 C 410.37007,534.54909 411.77968,534.35892 411.98878,534.39097 z m 5.58742,1.03557 c 0.089,0.0894 -0.90488,1.37817 -1.12872,1.46371 l -6e-5,2.5e-4 c -0.35809,0.13678 -1.72594,0.24476 -1.60754,0.12659 C 415.01827,536.83944 417.52952,535.37966 417.5762,535.42655 z m -10.08071,0.49057 c 0.12404,0.0301 0.54733,0.0857 0.94057,0.12344 0.96208,0.0926 0.99697,0.1209 0.88246,0.71717 -0.0824,0.42855 -0.15147,0.52534 -0.58105,0.8138 l -6e-5,2.6e-4 c -0.51725,0.34729 -0.59076,0.36521 -0.93154,0.22688 -0.16597,-0.0673 -0.25312,-0.25127 -0.37599,-0.79423 C 407.20532,536.01254 407.21519,535.84911 407.4955,535.91712 z m -1.07214,0.0315 c 0.1774,-0.004 0.26288,0.018 0.3065,0.0656 0.10951,0.11954 0.3395,1.13468 0.3395,1.49864 l -6e-5,2.5e-4 c 0,0.19924 -0.20418,0.22341 -0.75968,0.0897 -0.39851,-0.0957 -2.2482,-1.09934 -2.2482,-1.21978 0,-0.11251 0.16576,-0.14997 1.50397,-0.34064 C 405.97665,535.98365 406.24595,535.95279 406.42335,535.9485 z m 3.71578,0.33858 c 0.28837,0 0.31177,0.15515 0.0451,0.29867 l -6e-5,2.9e-4 c -0.29127,0.15661 -0.39473,0.12674 -0.33638,-0.0975 C 409.88166,536.35824 409.98449,536.28708 410.13913,536.28708 z m 1.03665,0.18074 0.70407,0.43652 c 0.38723,0.24008 0.70407,0.4677 0.70407,0.50606 0,0.0818 -0.21754,0.12943 -1.52795,0.33522 l -6e-5,2.3e-4 c -1.22246,0.19194 -1.47999,0.19357 -1.47993,0.009 0,-0.19737 0.16631,-0.34882 0.93706,-0.85335 L 411.17579,536.46782 z m -7.92602,0.12254 c 0.1635,9.6e-4 1.21269,0.56839 1.21269,0.65588 l -4e-5,2.5e-4 c 0,0.12015 -1.51144,-0.0249 -1.64694,-0.15819 C 402.69709,536.972 403.03114,536.58879 403.24976,536.59028 z m 11.38959,1.09968 -0.4512,0.24262 -6e-5,2.6e-4 c -0.81784,0.4398 -1.0779,0.4475 -0.76875,0.0225 0.0924,-0.12689 0.30104,-0.19616 0.67678,-0.22447 L 414.63935,537.68996 z m -2.01234,0.32558 c 0.13272,0.028 0.10531,0.10442 -0.14786,0.41224 l -6e-5,2.5e-4 c -0.33155,0.40295 -0.30032,0.3965 -1.4993,0.3098 -0.91058,-0.0656 -1.3496,-0.15025 -1.19916,-0.23115 C 409.98759,538.3954 412.43023,537.9739 412.62701,538.01555 z m -9.28081,0.10322 c 0.21868,-0.009 0.7661,0.0936 1.7526,0.30258 0.26731,0.0566 0.44772,0.13812 0.40106,0.18123 l -6e-5,2.6e-4 c -0.0467,0.0431 -0.40072,0.10531 -0.78666,0.13797 -0.67137,0.0574 -0.7212,0.0461 -1.14707,-0.25866 C 403.23762,538.24706 403.12755,538.1274 403.34621,538.11871 z m 3.55888,0.80252 c 0.4215,-0.0298 0.76586,0.0894 0.76586,0.30744 l -6e-5,2.5e-4 c 0,0.12329 -0.47377,0.0884 -1.20312,-0.0891 l -0.25067,-0.061 0.25067,-0.0763 C 406.61552,538.95768 406.76459,538.93118 406.90508,538.92123 z m 1.43824,0.0229 c 0.0181,0.008 0.0295,0.0277 0.0295,0.0569 l -6e-5,2.6e-4 c 0,0.0587 -0.0451,0.10666 -0.10022,0.10651 -0.0553,0 -0.10037,-0.0201 -0.10037,-0.0445 0,-0.0244 0.0451,-0.0725 0.10037,-0.10667 C 408.30004,538.9396 408.32513,538.93605 408.34332,538.94409 z m 0.96437,0.0854 c 0.15428,-0.0243 0.33245,-0.0171 0.4522,0.0343 0.13842,0.0595 0.12404,0.0849 -0.0836,0.14861 l -6e-5,2.5e-4 c -0.40612,0.12449 -0.72314,0.11086 -0.67739,-0.0294 C 409.023,539.10927 409.15341,539.05364 409.30769,539.0294 Z"
       id="path2919-5"
       inkscape:connector-curvature="0" />
  </g>
</svg>
