<?xml version="1.0" encoding="UTF-8" standalone="no"?>
<!-- Created with Inkscape (http://www.inkscape.org/) -->

<svg
   xmlns:dc="http://purl.org/dc/elements/1.1/"
   xmlns:cc="http://creativecommons.org/ns#"
   xmlns:rdf="http://www.w3.org/1999/02/22-rdf-syntax-ns#"
   xmlns:svg="http://www.w3.org/2000/svg"
   xmlns="http://www.w3.org/2000/svg"
   xmlns:xlink="http://www.w3.org/1999/xlink"
   xmlns:sodipodi="http://sodipodi.sourceforge.net/DTD/sodipodi-0.dtd"
   xmlns:inkscape="http://www.inkscape.org/namespaces/inkscape"
   width="48"
   height="48"
   id="svg2"
   version="1.1"
   inkscape:version="0.48+devel r12877"
   sodipodi:docname="debian-plymouth-manager.svg">
  <defs
     id="defs4">
    <linearGradient
       id="linearGradient865"
       inkscape:collect="always">
      <stop
         id="stop867"
         offset="0"
         style="stop-color:#000000;stop-opacity:1" />
      <stop
         id="stop869"
         offset="1"
         style="stop-color:#4d4d4d;stop-opacity:1" />
    </linearGradient>
    <linearGradient
       id="linearGradient873"
       inkscape:collect="always">
      <stop
         id="stop875"
         offset="0"
         style="stop-color:#8b8b8b;stop-opacity:1" />
      <stop
         id="stop877"
         offset="1"
         style="stop-color:#e1e1e1;stop-opacity:1" />
    </linearGradient>
    <linearGradient
       id="linearGradient886"
       inkscape:collect="always">
      <stop
         id="stop888"
         offset="0"
         style="stop-color:#535353;stop-opacity:1" />
      <stop
         id="stop890"
         offset="1"
         style="stop-color:#f0f0f0;stop-opacity:1" />
    </linearGradient>
    <linearGradient
       inkscape:collect="always"
       xlink:href="#linearGradient865"
       id="linearGradient3230"
       gradientUnits="userSpaceOnUse"
       x1="24.748737"
       y1="-1052.7157"
       x2="24.748737"
       y2="-1004.6325"
       gradientTransform="translate(2.8405762e-7,-4.41125e-5)" />
    <linearGradient
       inkscape:collect="always"
       xlink:href="#linearGradient873"
       id="linearGradient3071"
       gradientUnits="userSpaceOnUse"
       gradientTransform="matrix(0.44658631,0.11966244,-0.11966244,0.44658631,144.51313,564.96433)"
       x1="28.387375"
       y1="1046.0605"
       x2="28.387375"
       y2="1011.8457" />
    <linearGradient
       inkscape:collect="always"
       xlink:href="#linearGradient886"
       id="linearGradient3073"
       gradientUnits="userSpaceOnUse"
       gradientTransform="matrix(0.45733385,0.12254224,-0.12254224,0.45733385,49.449019,1018.7585)"
       x1="-27.5"
       y1="16.875"
       x2="-27.5"
       y2="37" />
    <linearGradient
       inkscape:collect="always"
       xlink:href="#linearGradient873"
       id="linearGradient3075"
       gradientUnits="userSpaceOnUse"
       x1="28.387375"
       y1="1046.0605"
       x2="28.387375"
       y2="1011.8457" />
    <linearGradient
       inkscape:collect="always"
       xlink:href="#linearGradient873"
       id="linearGradient3077"
       gradientUnits="userSpaceOnUse"
       x1="28.387375"
       y1="1046.0605"
       x2="28.387375"
       y2="1011.8457" />
    <linearGradient
       inkscape:collect="always"
       xlink:href="#linearGradient886"
       id="linearGradient3079"
       gradientUnits="userSpaceOnUse"
       gradientTransform="matrix(0.94674517,0,0,0.94674517,53.053242,1003.3326)"
       x1="-27.5"
       y1="16.875"
       x2="-27.5"
       y2="37" />
    <linearGradient
       inkscape:collect="always"
       xlink:href="#linearGradient886"
       id="linearGradient4179"
       gradientUnits="userSpaceOnUse"
       gradientTransform="matrix(0.69480258,0,0,0.69480258,-267.71949,659.52702)"
       x1="417.27512"
       y1="539.31274"
       x2="417.27512"
       y2="508.20001" />
  </defs>
  <sodipodi:namedview
     id="base"
     pagecolor="#ffffff"
     bordercolor="#666666"
     borderopacity="1.0"
     inkscape:pageopacity="0.0"
     inkscape:pageshadow="2"
     inkscape:zoom="4.046875"
     inkscape:cx="14.3601"
     inkscape:cy="30.116836"
     inkscape:document-units="px"
     inkscape:current-layer="layer1"
     showgrid="false"
     inkscape:window-width="1366"
     inkscape:window-height="671"
     inkscape:window-x="0"
     inkscape:window-y="24"
     inkscape:window-maximized="1" />
  <metadata
     id="metadata7">
    <rdf:RDF>
      <cc:Work
         rdf:about="">
        <dc:format>image/svg+xml</dc:format>
        <dc:type
           rdf:resource="http://purl.org/dc/dcmitype/StillImage" />
        <dc:title></dc:title>
      </cc:Work>
    </rdf:RDF>
  </metadata>
  <g
     inkscape:label="Capa 1"
     inkscape:groupmode="layer"
     id="layer1"
     transform="translate(0,-1004.3622)">
    <rect
       style="fill:url(#linearGradient3230);fill-opacity:1;stroke:none"
       id="rect2991-1-1"
       width="48"
       height="48"
       x="-1.2840576e-06"
       y="-1052.3622"
       ry="1.9445436"
       transform="scale(1,-1)" />
    <path
       inkscape:connector-curvature="0"
       style="color:#000000;fill:#000000;fill-opacity:0.15686275;fill-rule:nonzero;stroke:none;stroke-width:0.2;marker:none;visibility:visible;display:inline;overflow:visible;enable-background:accumulate"
       d="m 9.0000003,1005.1122 c -1.794925,0 -3.25,1.4551 -3.25,3.25 0,1.7949 1.455075,3.25 3.25,3.25 1.7949247,0 3.2499997,-1.4551 3.2499997,-3.25 0,-1.7949 -1.455075,-3.25 -3.2499997,-3.25 z m 9.9999997,0 c -1.794925,0 -3.25,1.4551 -3.25,3.25 0,1.7949 1.455075,3.25 3.25,3.25 1.794925,0 3.25,-1.4551 3.25,-3.25 0,-1.7949 -1.455075,-3.25 -3.25,-3.25 z m 10,0 c -1.794925,0 -3.25,1.4551 -3.25,3.25 0,1.7949 1.455075,3.25 3.25,3.25 1.794925,0 3.25,-1.4551 3.25,-3.25 0,-1.7949 -1.455075,-3.25 -3.25,-3.25 z m 10,0 c -1.794925,0 -3.25,1.4551 -3.25,3.25 0,1.7949 1.455075,3.25 3.25,3.25 1.794925,0 3.25,-1.4551 3.25,-3.25 0,-1.7949 -1.455075,-3.25 -3.25,-3.25 z m -38.74999972,0.25 c -0.153255,0.2783 -0.24999999594238,0.5961 -0.24999999594238,0.9375 l 0,5.1563 C 1.3003733,1011.0311 2.2500003,1009.8044 2.2500003,1008.3622 c 0,-1.3462 -0.833526,-2.5066 -2.00000002,-3 z m 47.49999972,0 c -1.166474,0.4934 -2,1.6538 -2,3 0,1.4422 0.949627,2.6689 2.25,3.0938 l 0,-5.1563 c 0,-0.3414 -0.09675,-0.6592 -0.25,-0.9375 z m -38.7499997,9.75 c -1.794925,0 -3.25,1.4551 -3.25,3.25 0,1.7949 1.455075,3.25 3.25,3.25 1.7949247,0 3.2499997,-1.4551 3.2499997,-3.25 0,-1.7949 -1.455075,-3.25 -3.2499997,-3.25 z m 9.9999997,0 c -1.794925,0 -3.25,1.4551 -3.25,3.25 0,1.7949 1.455075,3.25 3.25,3.25 1.794925,0 3.25,-1.4551 3.25,-3.25 0,-1.7949 -1.455075,-3.25 -3.25,-3.25 z m 10,0 c -1.794925,0 -3.25,1.4551 -3.25,3.25 0,1.7949 1.455075,3.25 3.25,3.25 1.794925,0 3.25,-1.4551 3.25,-3.25 0,-1.7949 -1.455075,-3.25 -3.25,-3.25 z m 10,0 c -1.794925,0 -3.25,1.4551 -3.25,3.25 0,1.7949 1.455075,3.25 3.25,3.25 1.794925,0 3.25,-1.4551 3.25,-3.25 0,-1.7949 -1.455075,-3.25 -3.25,-3.25 z M 2.8405762e-7,1015.2685 l 0,6.1875 C 1.3003733,1021.0311 2.2500003,1019.8044 2.2500003,1018.3622 c 0,-1.4422 -0.949627,-2.6689 -2.25000001594238,-3.0937 z M 48,1015.2685 c -1.300373,0.4248 -2.25,1.6515 -2.25,3.0937 0,1.4422 0.949627,2.6689 2.25,3.0938 l 0,-6.1875 z m -38.9999997,9.8437 c -1.794925,0 -3.25,1.4551 -3.25,3.25 0,1.7949 1.455075,3.25 3.25,3.25 1.7949247,0 3.2499997,-1.4551 3.2499997,-3.25 0,-1.7949 -1.455075,-3.25 -3.2499997,-3.25 z m 9.9999997,0 c -1.794925,0 -3.25,1.4551 -3.25,3.25 0,1.7949 1.455075,3.25 3.25,3.25 1.794925,0 3.25,-1.4551 3.25,-3.25 0,-1.7949 -1.455075,-3.25 -3.25,-3.25 z m 10,0 c -1.794925,0 -3.25,1.4551 -3.25,3.25 0,1.7949 1.455075,3.25 3.25,3.25 1.794925,0 3.25,-1.4551 3.25,-3.25 0,-1.7949 -1.455075,-3.25 -3.25,-3.25 z m 10,0 c -1.794925,0 -3.25,1.4551 -3.25,3.25 0,1.7949 1.455075,3.25 3.25,3.25 1.794925,0 3.25,-1.4551 3.25,-3.25 0,-1.7949 -1.455075,-3.25 -3.25,-3.25 z M 2.8405762e-7,1025.2685 l 0,6.1875 C 1.3003733,1031.0311 2.2500003,1029.8045 2.2500003,1028.3622 c 0,-1.4422 -0.949627,-2.6689 -2.25000001594238,-3.0937 z M 48,1025.2685 c -1.300373,0.4248 -2.25,1.6515 -2.25,3.0937 0,1.4423 0.949627,2.6689 2.25,3.0938 l 0,-6.1875 z m -38.9999997,9.8437 c -1.794925,0 -3.25,1.4551 -3.25,3.25 0,1.7949 1.455075,3.25 3.25,3.25 1.7949247,0 3.2499997,-1.4551 3.2499997,-3.25 0,-1.7949 -1.455075,-3.25 -3.2499997,-3.25 z m 9.9999997,0 c -1.794925,0 -3.25,1.4551 -3.25,3.25 0,1.7949 1.455075,3.25 3.25,3.25 1.794925,0 3.25,-1.4551 3.25,-3.25 0,-1.7949 -1.455075,-3.25 -3.25,-3.25 z m 10,0 c -1.794925,0 -3.25,1.4551 -3.25,3.25 0,1.7949 1.455075,3.25 3.25,3.25 1.794925,0 3.25,-1.4551 3.25,-3.25 0,-1.7949 -1.455075,-3.25 -3.25,-3.25 z m 10,0 c -1.794925,0 -3.25,1.4551 -3.25,3.25 0,1.7949 1.455075,3.25 3.25,3.25 1.794925,0 3.25,-1.4551 3.25,-3.25 0,-1.7949 -1.455075,-3.25 -3.25,-3.25 z M 2.8405762e-7,1035.2685 l 0,6.1875 C 1.3003733,1041.0311 2.2500003,1039.8045 2.2500003,1038.3622 c 0,-1.4422 -0.949627,-2.6689 -2.25000001594238,-3.0937 z M 48,1035.2685 c -1.300373,0.4248 -2.25,1.6515 -2.25,3.0937 0,1.4423 0.949627,2.6689 2.25,3.0938 l 0,-6.1875 z m -38.9999997,9.8437 c -1.794925,0 -3.25,1.4551 -3.25,3.25 0,1.7949 1.455075,3.25 3.25,3.25 1.7949247,0 3.2499997,-1.4551 3.2499997,-3.25 0,-1.7949 -1.455075,-3.25 -3.2499997,-3.25 z m 9.9999997,0 c -1.794925,0 -3.25,1.4551 -3.25,3.25 0,1.7949 1.455075,3.25 3.25,3.25 1.794925,0 3.25,-1.4551 3.25,-3.25 0,-1.7949 -1.455075,-3.25 -3.25,-3.25 z m 10,0 c -1.794925,0 -3.25,1.4551 -3.25,3.25 0,1.7949 1.455075,3.25 3.25,3.25 1.794925,0 3.25,-1.4551 3.25,-3.25 0,-1.7949 -1.455075,-3.25 -3.25,-3.25 z m 10,0 c -1.794925,0 -3.25,1.4551 -3.25,3.25 0,1.7949 1.455075,3.25 3.25,3.25 1.794925,0 3.25,-1.4551 3.25,-3.25 0,-1.7949 -1.455075,-3.25 -3.25,-3.25 z M 2.8405762e-7,1045.2685 l 0,5.1562 c 0,0.3414 0.0967399959424,0.6592 0.24999999594238,0.9375 1.16647402,-0.4934 2.00000002,-1.6538 2.00000002,-3 0,-1.4422 -0.949627,-2.6689 -2.25000001594238,-3.0937 z M 48,1045.2685 c -1.300373,0.4248 -2.25,1.6515 -2.25,3.0937 0,1.3462 0.833526,2.5066 2,3 0.153255,-0.2783 0.25,-0.5961 0.25,-0.9375 l 0,-5.1562 z"
       id="path918" />
    <path
       inkscape:connector-curvature="0"
       style="color:#000000;fill:#ffffff;fill-opacity:0.07692309;fill-rule:nonzero;stroke:none;stroke-width:0.2;marker:none;visibility:visible;display:inline;overflow:visible;enable-background:accumulate"
       d="m 2.2187503,1008.6122 c -0.103448,1.3345 -0.995008,2.4463 -2.21875001594238,2.8438 l 0,0.5 C 1.3003733,1011.5311 2.2500003,1010.3044 2.2500003,1008.8622 c 0,-0.086 -0.02474,-0.166 -0.03125,-0.25 z m 3.5625,0 c -0.0065,0.084 -0.03125,0.1643 -0.03125,0.25 0,1.7949 1.455075,3.25 3.25,3.25 1.7949247,0 3.2499997,-1.4551 3.2499997,-3.25 0,-0.086 -0.02473,-0.166 -0.03125,-0.25 -0.12991,1.6758 -1.509538,3 -3.2187497,3 -1.709213,0 -3.08884,-1.3242 -3.21875,-3 z m 9.9999997,0 c -0.0065,0.084 -0.03125,0.1643 -0.03125,0.25 0,1.7949 1.455075,3.25 3.25,3.25 1.794925,0 3.25,-1.4551 3.25,-3.25 0,-0.086 -0.02473,-0.166 -0.03125,-0.25 -0.12991,1.6758 -1.509538,3 -3.21875,3 -1.709212,0 -3.08884,-1.3242 -3.21875,-3 z m 10,0 c -0.0065,0.084 -0.03125,0.1643 -0.03125,0.25 0,1.7949 1.455075,3.25 3.25,3.25 1.794925,0 3.25,-1.4551 3.25,-3.25 0,-0.086 -0.02473,-0.166 -0.03125,-0.25 -0.12991,1.6758 -1.509538,3 -3.21875,3 -1.709212,0 -3.08884,-1.3242 -3.21875,-3 z m 10,0 c -0.0065,0.084 -0.03125,0.1643 -0.03125,0.25 0,1.7949 1.455075,3.25 3.25,3.25 1.794925,0 3.25,-1.4551 3.25,-3.25 0,-0.086 -0.02473,-0.166 -0.03125,-0.25 -0.12991,1.6758 -1.509538,3 -3.21875,3 -1.709212,0 -3.08884,-1.3242 -3.21875,-3 z m 10,0 c -0.0065,0.084 -0.03125,0.1643 -0.03125,0.25 0,1.4422 0.949627,2.6689 2.25,3.0938 l 0,-0.5 c -1.223741,-0.3975 -2.115302,-1.5093 -2.21875,-2.8438 z m -43.5624997,10 c -0.103448,1.3345 -0.995008,2.4463 -2.21875001594238,2.8438 l 0,0.5 C 1.3003733,1021.5311 2.2500003,1020.3044 2.2500003,1018.8622 c 0,-0.086 -0.02474,-0.166 -0.03125,-0.25 z m 3.5625,0 c -0.0065,0.084 -0.03125,0.1643 -0.03125,0.25 0,1.7949 1.455075,3.25 3.25,3.25 1.7949247,0 3.2499997,-1.4551 3.2499997,-3.25 0,-0.086 -0.02473,-0.166 -0.03125,-0.25 -0.12991,1.6758 -1.509538,3 -3.2187497,3 -1.709213,0 -3.08884,-1.3242 -3.21875,-3 z m 9.9999997,0 c -0.0065,0.084 -0.03125,0.1643 -0.03125,0.25 0,1.7949 1.455075,3.25 3.25,3.25 1.794925,0 3.25,-1.4551 3.25,-3.25 0,-0.086 -0.02473,-0.166 -0.03125,-0.25 -0.12991,1.6758 -1.509538,3 -3.21875,3 -1.709212,0 -3.08884,-1.3242 -3.21875,-3 z m 10,0 c -0.0065,0.084 -0.03125,0.1643 -0.03125,0.25 0,1.7949 1.455075,3.25 3.25,3.25 1.794925,0 3.25,-1.4551 3.25,-3.25 0,-0.086 -0.02473,-0.166 -0.03125,-0.25 -0.12991,1.6758 -1.509538,3 -3.21875,3 -1.709212,0 -3.08884,-1.3242 -3.21875,-3 z m 10,0 c -0.0065,0.084 -0.03125,0.1643 -0.03125,0.25 0,1.7949 1.455075,3.25 3.25,3.25 1.794925,0 3.25,-1.4551 3.25,-3.25 0,-0.086 -0.02473,-0.166 -0.03125,-0.25 -0.12991,1.6758 -1.509538,3 -3.21875,3 -1.709212,0 -3.08884,-1.3242 -3.21875,-3 z m 10,0 c -0.0065,0.084 -0.03125,0.1643 -0.03125,0.25 0,1.4422 0.949627,2.6689 2.25,3.0938 l 0,-0.5 c -1.223741,-0.3975 -2.115302,-1.5093 -2.21875,-2.8438 z m -43.5624997,10 c -0.103448,1.3345 -0.995008,2.4463 -2.21875001594238,2.8438 l 0,0.5 C 1.3003733,1031.5311 2.2500003,1030.3045 2.2500003,1028.8622 c 0,-0.086 -0.02474,-0.166 -0.03125,-0.25 z m 3.5625,0 c -0.0065,0.084 -0.03125,0.1643 -0.03125,0.25 0,1.7949 1.455075,3.25 3.25,3.25 1.7949247,0 3.2499997,-1.4551 3.2499997,-3.25 0,-0.086 -0.02473,-0.166 -0.03125,-0.25 -0.12991,1.6758 -1.509538,3 -3.2187497,3 -1.709213,0 -3.08884,-1.3242 -3.21875,-3 z m 9.9999997,0 c -0.0065,0.084 -0.03125,0.1643 -0.03125,0.25 0,1.7949 1.455075,3.25 3.25,3.25 1.794925,0 3.25,-1.4551 3.25,-3.25 0,-0.086 -0.02473,-0.166 -0.03125,-0.25 -0.12991,1.6758 -1.509538,3 -3.21875,3 -1.709212,0 -3.08884,-1.3242 -3.21875,-3 z m 10,0 c -0.0065,0.084 -0.03125,0.1643 -0.03125,0.25 0,1.7949 1.455075,3.25 3.25,3.25 1.794925,0 3.25,-1.4551 3.25,-3.25 0,-0.086 -0.02473,-0.166 -0.03125,-0.25 -0.12991,1.6758 -1.509538,3 -3.21875,3 -1.709212,0 -3.08884,-1.3242 -3.21875,-3 z m 10,0 c -0.0065,0.084 -0.03125,0.1643 -0.03125,0.25 0,1.7949 1.455075,3.25 3.25,3.25 1.794925,0 3.25,-1.4551 3.25,-3.25 0,-0.086 -0.02473,-0.166 -0.03125,-0.25 -0.12991,1.6758 -1.509538,3 -3.21875,3 -1.709212,0 -3.08884,-1.3242 -3.21875,-3 z m 10,0 c -0.0065,0.084 -0.03125,0.1643 -0.03125,0.25 0,1.4423 0.949627,2.6689 2.25,3.0938 l 0,-0.5 c -1.223741,-0.3975 -2.115302,-1.5093 -2.21875,-2.8438 z m -43.5624997,10 c -0.103448,1.3345 -0.995008,2.4463 -2.21875001594238,2.8438 l 0,0.5 C 1.3003733,1041.5311 2.2500003,1040.3045 2.2500003,1038.8622 c 0,-0.086 -0.02474,-0.166 -0.03125,-0.25 z m 3.5625,0 c -0.0065,0.084 -0.03125,0.1643 -0.03125,0.25 0,1.7949 1.455075,3.25 3.25,3.25 1.7949247,0 3.2499997,-1.4551 3.2499997,-3.25 0,-0.086 -0.02473,-0.166 -0.03125,-0.25 -0.12991,1.6758 -1.509538,3 -3.2187497,3 -1.709213,0 -3.08884,-1.3242 -3.21875,-3 z m 9.9999997,0 c -0.0065,0.084 -0.03125,0.1643 -0.03125,0.25 0,1.7949 1.455075,3.25 3.25,3.25 1.794925,0 3.25,-1.4551 3.25,-3.25 0,-0.086 -0.02473,-0.166 -0.03125,-0.25 -0.12991,1.6758 -1.509538,3 -3.21875,3 -1.709212,0 -3.08884,-1.3242 -3.21875,-3 z m 10,0 c -0.0065,0.084 -0.03125,0.1643 -0.03125,0.25 0,1.7949 1.455075,3.25 3.25,3.25 1.794925,0 3.25,-1.4551 3.25,-3.25 0,-0.086 -0.02473,-0.166 -0.03125,-0.25 -0.12991,1.6758 -1.509538,3 -3.21875,3 -1.709212,0 -3.08884,-1.3242 -3.21875,-3 z m 10,0 c -0.0065,0.084 -0.03125,0.1643 -0.03125,0.25 0,1.7949 1.455075,3.25 3.25,3.25 1.794925,0 3.25,-1.4551 3.25,-3.25 0,-0.086 -0.02473,-0.166 -0.03125,-0.25 -0.12991,1.6758 -1.509538,3 -3.21875,3 -1.709212,0 -3.08884,-1.3242 -3.21875,-3 z m 10,0 c -0.0065,0.084 -0.03125,0.1643 -0.03125,0.25 0,1.4423 0.949627,2.6689 2.25,3.0938 l 0,-0.5 c -1.223741,-0.3975 -2.115302,-1.5093 -2.21875,-2.8438 z m -43.5624997,10 c -0.09629,1.2421 -0.873966,2.2903 -1.96875002,2.75 0.07368,0.1338 0.148049,0.2629 0.25,0.375 1.03312502,-0.5442 1.75000002,-1.6262 1.75000002,-2.875 0,-0.086 -0.02474,-0.166 -0.03125,-0.25 z m 3.5625,0 c -0.0065,0.084 -0.03125,0.1643 -0.03125,0.25 0,1.7949 1.455075,3.25 3.25,3.25 1.7949247,0 3.2499997,-1.4551 3.2499997,-3.25 0,-0.086 -0.02473,-0.166 -0.03125,-0.25 -0.12991,1.6758 -1.509538,3 -3.2187497,3 -1.709213,0 -3.08884,-1.3242 -3.21875,-3 z m 9.9999997,0 c -0.0065,0.084 -0.03125,0.1643 -0.03125,0.25 0,1.7949 1.455075,3.25 3.25,3.25 1.794925,0 3.25,-1.4551 3.25,-3.25 0,-0.086 -0.02473,-0.166 -0.03125,-0.25 -0.12991,1.6758 -1.509538,3 -3.21875,3 -1.709212,0 -3.08884,-1.3242 -3.21875,-3 z m 10,0 c -0.0065,0.084 -0.03125,0.1643 -0.03125,0.25 0,1.7949 1.455075,3.25 3.25,3.25 1.794925,0 3.25,-1.4551 3.25,-3.25 0,-0.086 -0.02473,-0.166 -0.03125,-0.25 -0.12991,1.6758 -1.509538,3 -3.21875,3 -1.709212,0 -3.08884,-1.3242 -3.21875,-3 z m 10,0 c -0.0065,0.084 -0.03125,0.1643 -0.03125,0.25 0,1.7949 1.455075,3.25 3.25,3.25 1.794925,0 3.25,-1.4551 3.25,-3.25 0,-0.086 -0.02473,-0.166 -0.03125,-0.25 -0.12991,1.6758 -1.509538,3 -3.21875,3 -1.709212,0 -3.08884,-1.3242 -3.21875,-3 z m 10,0 c -0.0065,0.084 -0.03125,0.1643 -0.03125,0.25 0,1.2488 0.716875,2.3308 1.75,2.875 0.101951,-0.1121 0.176317,-0.2412 0.25,-0.375 -1.094783,-0.4597 -1.872459,-1.5079 -1.96875,-2.75 z"
       id="path954" />
    <path
       inkscape:connector-curvature="0"
       style="fill:#ffffff;fill-opacity:0.5372549;stroke:none"
       d="m 2.5312513,1005.0186 c -0.917089,0 -1.67114702,0.6395 -1.84375002,1.5 0.33561202,-0.2799 0.77451202,-0.4375 1.25000002,-0.4375 l 44.1249997,0 c 0.475488,0 0.914388,0.1576 1.25,0.4375 -0.172603,-0.8605 -0.926662,-1.5 -1.84375,-1.5 l -42.9374997,0 z"
       id="path7515-1" />
    <path
       inkscape:connector-curvature="0"
       style="fill:#000000;fill-opacity:1;stroke:none"
       d="m 1.2840576e-6,1049.3622 0,1.0625 c 0,1.0773 0.8602229959424,1.9375 1.9375000159424,1.9375 l 44.1249997,0 c 1.077277,0 1.9375,-0.8602 1.9375,-1.9375 l 0,-1.0625 c 0,1.0773 -0.860223,1.9375 -1.9375,1.9375 l -44.1249997,0 c -1.07727702,0 -1.9375000159424,-0.8602 -1.9375000159424,-1.9375 z"
       id="rect846-1" />
    <path
       inkscape:connector-curvature="0"
       style="fill:#000000;fill-opacity:0.39215686;stroke:none"
       d="m 1.9375013,1004.3623 c -1.07727702,0 -1.9375000159424,0.8602 -1.9375000159424,1.9375 l 0,43.0624 c 0,0.7934 0.4800229959424,1.449 1.1562500159424,1.75 -0.30934202,-0.3333 -0.50000002,-0.7824 -0.50000002,-1.2812 l 0,-42.9374 c 0,-1.0482 0.82689902,-1.875 1.87500002,-1.875 l 42.9374997,0 c 1.048101,0 1.875,0.8268 1.875,1.875 l 0,42.9374 c 0,0.4988 -0.190658,0.9479 -0.5,1.2812 0.676226,-0.301 1.15625,-0.9566 1.15625,-1.75 l 0,-43.0624 c 0,-1.0773 -0.860223,-1.9375 -1.9375,-1.9375 l -44.1249997,0 z"
       id="rect4280" />
    <g
       id="layer2"
       inkscape:label="Dark background"
       style="display:none"
       transform="translate(-4.2197642,1012.916)">
      <rect
         y="0"
         x="0"
         height="22"
         width="22"
         id="rect4898"
         style="fill:#333333;fill-opacity:1;fill-rule:nonzero;stroke:none;display:inline" />
    </g>
    <g
       id="layer3"
       inkscape:label="Pale darkground"
       style="display:none"
       transform="translate(-4.2197642,1012.916)">
      <rect
         style="fill:#efebe7;fill-opacity:1;fill-rule:nonzero;stroke:none"
         id="rect4126"
         width="22"
         height="22"
         x="0"
         y="0" />
    </g>
    <path
       sodipodi:nodetypes="ssssssssscsssscccsccccssccsssssccssscsscssccsssscsss"
       inkscape:connector-curvature="0"
       id="path980"
       d="m 28.076047,1034.207 c 0.0399,-0.1489 1.337404,-1.0132 1.774878,-1.1823 0.238021,-0.092 0.556183,-0.1342 0.706976,-0.094 0.375432,0.1005 0.880082,0.7623 1.28654,1.6868 0.386532,0.8792 0.369751,0.8726 1.672342,0.664 0.65351,-0.1047 0.748947,-0.1515 0.75441,-0.3709 0.01629,-0.656 0.27692,-1.7903 0.499779,-2.1753 0.385624,-0.666 0.634579,-0.692 2.09892,-0.2197 1.413844,0.456 1.242698,0.504 2.006719,-0.5621 l 0.429508,-0.5994 -0.603362,-0.8488 c -0.721233,-1.0147 -0.924137,-1.582 -0.712273,-1.9909 0.141959,-0.2741 1.552959,-1.135 2.198233,-1.3413 0.271496,-0.087 0.281758,-0.1097 0.246519,-0.551 -0.02022,-0.2532 -0.08006,-0.7005 -0.133032,-0.9938 l -0.09626,-0.5333 -1.362381,-0.365 c -1.801964,-0.4828 -1.755753,-0.4007 -1.26955,-2.2267 l 0.368784,-1.385 -0.788876,-0.5955 -0.788875,-0.5955 -0.424455,0.3225 c -0.233477,0.1774 -0.741034,0.5037 -1.128,0.7255 -0.586862,0.336 -0.766165,0.3861 -1.081391,0.3016 -0.315206,-0.085 -0.453846,-0.226 -0.835919,-0.8532 -0.25195,-0.4134 -0.524205,-0.944 -0.605067,-1.1788 -0.170805,-0.4963 -0.232362,-0.5092 -1.488303,-0.3082 -0.563236,0.091 -0.815102,0.1815 -0.803567,0.2913 0.0092,0.088 -0.06958,0.6039 -0.175188,1.1465 -0.150166,0.7716 -0.250464,1.062 -0.460392,1.333 -0.34188,0.4414 -0.548514,0.4378 -2.047141,-0.035 l -1.179498,-0.3724 -0.524744,0.6814 c -0.288599,0.3747 -0.542643,0.7481 -0.564522,0.8298 -0.02193,0.082 0.189022,0.4585 0.468714,0.8375 0.616368,0.8349 0.915066,1.5652 0.806342,1.9709 -0.09278,0.3463 -0.82185,0.8531 -1.812657,1.26 -0.341482,0.1402 -0.638136,0.3195 -0.659269,0.3984 -0.02112,0.079 0.01343,0.5318 0.0768,1.0066 l 0.115211,0.8633 1.210607,0.2559 c 1.966937,0.4156 2.107916,0.6634 1.462791,2.5694 l -0.359623,1.0625 0.383304,0.3455 c 0.703657,0.635 1.291011,0.9976 1.336968,0.826 z m 1.953267,-4.692 c -0.995546,-0.8825 -1.301784,-1.947 -0.942945,-3.2784 0.237782,-0.8823 0.736459,-1.4934 1.576316,-1.9316 0.839986,-0.4383 1.324876,-0.491 2.272978,-0.2469 0.661286,0.1707 0.874909,0.2775 1.308907,0.6566 0.959605,0.8388 1.296724,1.9585 0.966956,3.2114 -0.613089,2.3294 -3.387131,3.1799 -5.182212,1.5889 z"
       style="fill:#000000;fill-opacity:0.5372549" />
    <path
       style="fill:url(#linearGradient3071);fill-opacity:1"
       d="m 28.294333,1033.828 c 0.03778,-0.1411 1.266181,-0.9593 1.680357,-1.1194 0.225346,-0.087 0.526564,-0.1271 0.669327,-0.088 0.355438,0.095 0.833213,0.7217 1.218025,1.597 0.365947,0.8324 0.35006,0.8261 1.583281,0.6287 0.618707,-0.099 0.709063,-0.1435 0.714234,-0.3513 0.01543,-0.621 0.262174,-1.6949 0.473165,-2.0593 0.365087,-0.6306 0.600784,-0.6553 1.987143,-0.208 1.338548,0.4317 1.176517,0.4772 1.89985,-0.5322 l 0.406635,-0.5675 -0.57123,-0.8036 c -0.682825,-0.9607 -0.874922,-1.4978 -0.674341,-1.8849 0.134398,-0.2594 1.470256,-1.0745 2.081166,-1.2698 0.257037,-0.082 0.266753,-0.1039 0.233391,-0.5217 -0.01915,-0.2397 -0.0758,-0.6632 -0.125949,-0.9409 l -0.09114,-0.5049 -1.289827,-0.3456 c -1.706002,-0.4571 -1.662252,-0.3792 -1.201941,-2.1081 l 0.349143,-1.3111 -0.746863,-0.5639 -0.746864,-0.5637 -0.40185,0.3052 c -0.221045,0.1681 -0.701572,0.477 -1.06793,0.6869 -0.555609,0.3181 -0.725362,0.3655 -1.023801,0.2855 -0.298419,-0.08 -0.429677,-0.2139 -0.791402,-0.8077 -0.238533,-0.3914 -0.496288,-0.8937 -0.572844,-1.116 -0.16171,-0.47 -0.219988,-0.4821 -1.409044,-0.2919 -0.533241,0.086 -0.771694,0.1719 -0.760773,0.276 0.0088,0.084 -0.06588,0.5716 -0.165859,1.0854 -0.142169,0.7304 -0.237125,1.0053 -0.435874,1.2619 -0.323673,0.4178 -0.519302,0.4145 -1.93812,-0.033 l -1.116685,-0.3527 -0.496798,0.6451 c -0.27323,0.3547 -0.513745,0.7084 -0.534458,0.7857 -0.02077,0.077 0.178956,0.4341 0.443752,0.7928 0.583543,0.7905 0.866335,1.4819 0.763401,1.8661 -0.08784,0.3278 -0.778084,0.8076 -1.716125,1.1928 -0.323296,0.1328 -0.604153,0.3025 -0.624161,0.3771 -0.01999,0.074 0.01272,0.5035 0.07271,0.9531 l 0.109076,0.8173 1.146136,0.2423 c 1.862188,0.3934 1.995659,0.6281 1.384891,2.4326 l -0.340473,1.0059 0.362891,0.3271 c 0.666185,0.6011 1.22226,0.9444 1.265769,0.782 z m 1.849247,-4.4423 c -0.942529,-0.8354 -1.232459,-1.8433 -0.892729,-3.1037 0.225118,-0.8353 0.697239,-1.4139 1.492369,-1.8287 0.795252,-0.4151 1.25432,-0.4648 2.151931,-0.2338 0.626069,0.1616 0.828316,0.2627 1.239202,0.6216 0.908501,0.7941 1.227667,1.8542 0.91546,3.0405 -0.580439,2.2053 -3.206749,3.0105 -4.906233,1.5041 z"
       id="path984"
       inkscape:connector-curvature="0"
       sodipodi:nodetypes="ssssssssscsssscccsccccssccsssssccssscsscssccsssscsss" />
    <path
       inkscape:connector-curvature="0"
       id="path986"
       d="m 33.377313,1022.6011 c -2.478427,-0.6641 -5.025935,0.8067 -5.690029,3.2851 -0.664094,2.4785 0.806721,5.026 3.285148,5.6901 2.478426,0.6641 5.025936,-0.8067 5.690029,-3.2851 0.664093,-2.4785 -0.806721,-5.026 -3.285148,-5.6901 z m -0.245085,0.9147 c 1.973269,0.5287 3.144295,2.557 2.615565,4.5302 -0.528731,1.9733 -2.557019,3.1444 -4.530288,2.6157 -1.973271,-0.5288 -3.144283,-2.5571 -2.615553,-4.5304 0.528729,-1.9732 2.557006,-3.1443 4.530276,-2.6155 z"
       style="color:#000000;fill:url(#linearGradient3073);fill-opacity:1;fill-rule:nonzero;stroke:none;stroke-width:0.2;marker:none;visibility:visible;display:inline;overflow:visible;enable-background:accumulate" />
    <path
       inkscape:connector-curvature="0"
       id="path988"
       d="m 33.377313,1022.6011 c -2.478427,-0.6641 -5.025935,0.8067 -5.690029,3.2851 -0.664094,2.4785 0.806721,5.026 3.285148,5.6901 2.478426,0.6641 5.025936,-0.8067 5.690029,-3.2851 0.664093,-2.4785 -0.806721,-5.026 -3.285148,-5.6901 z m -0.04978,0.1858 c 2.375817,0.6366 3.785739,3.0787 3.149136,5.4545 -0.636601,2.3758 -3.078652,3.7857 -5.454469,3.1491 -2.375816,-0.6366 -3.785725,-3.0787 -3.149124,-5.4545 0.636603,-2.3758 3.078641,-3.7857 5.454457,-3.1491 z"
       style="color:#000000;fill:#ffffff;fill-opacity:1;fill-rule:nonzero;stroke:none;stroke-width:0.2;marker:none;visibility:visible;display:inline;overflow:visible;enable-background:accumulate" />
    <path
       inkscape:connector-curvature="0"
       id="path990"
       d="m 36.136381,1020.3075 -0.403518,0.3054 c -0.221051,0.168 -0.689523,0.4723 -1.055881,0.6821 -0.456188,0.2613 -0.660275,0.3399 -0.881028,0.3154 0.04491,0.02 0.08563,0.038 0.139032,0.052 0.298439,0.08 0.472173,0.027 1.027778,-0.2913 0.366358,-0.21 0.834831,-0.5141 1.055881,-0.6821 l 0.309085,-0.2389 -0.191349,-0.1434 z m -4.163732,-1.0391 c -0.183473,-0.038 -0.505452,0.01 -1.099979,0.1035 -0.533241,0.086 -0.772771,0.1667 -0.761844,0.2707 0.0088,0.084 -0.06908,0.5746 -0.169052,1.0883 -0.142161,0.7304 -0.23165,1.0066 -0.430397,1.2632 -0.233143,0.301 -0.40719,0.3791 -1.012453,0.2343 0.818656,0.2291 1.035302,0.1818 1.298287,-0.1577 0.198747,-0.2565 0.288235,-0.5328 0.430397,-1.2632 0.09998,-0.5138 0.17779,-1.005 0.169051,-1.0883 -0.01092,-0.1039 0.228604,-0.1853 0.761845,-0.2707 0.445888,-0.072 0.742159,-0.1161 0.935108,-0.1171 -0.0355,-0.026 -0.06741,-0.051 -0.120989,-0.063 z m -5.512583,2.3371 -0.495418,0.6484 c -0.273243,0.3547 -0.51302,0.7141 -0.533729,0.7914 -0.02077,0.077 0.166967,0.4309 0.431751,0.7897 0.583539,0.7904 0.875552,1.4772 0.772638,1.8613 -0.08784,0.3278 -0.776084,0.8098 -1.714127,1.195 -0.323286,0.1328 -0.603769,0.3096 -0.623779,0.3843 -0.01999,0.074 0.01037,0.4884 0.07036,0.9379 l 0.10099,0.8236 0.289717,0.062 -0.104821,-0.8093 c -0.05999,-0.4496 -0.09035,-0.8634 -0.07036,-0.938 0.02001,-0.074 0.300493,-0.2515 0.623779,-0.3843 0.938043,-0.3853 1.62628,-0.8671 1.714128,-1.1951 0.102913,-0.384 -0.189099,-1.0707 -0.772638,-1.8613 -0.264784,-0.3587 -0.452514,-0.7121 -0.431753,-0.7896 0.02071,-0.077 0.260486,-0.4366 0.533731,-0.7914 l 0.491534,-0.634 -0.28195,-0.091 z m 6.623618,2.6632 c 0.474113,0.1342 0.693029,0.2567 1.056274,0.574 0.908506,0.7941 1.230198,1.8477 0.918004,3.0338 -0.435328,1.6541 -2.021463,2.5222 -3.50429,2.2166 1.558311,0.4867 3.326894,-0.38 3.790123,-2.14 0.312197,-1.1862 -0.0095,-2.2397 -0.918004,-3.0338 -0.410878,-0.3589 -0.61596,-0.4625 -1.242065,-0.6239 -0.03722,-0.01 -0.06453,-0.017 -0.100042,-0.027 z m -6.562535,5.2264 c -0.04631,-0.012 -0.11135,-0.016 -0.161092,-0.028 1.128008,0.3251 1.154814,0.7205 0.640662,2.2395 l -0.33289,1.0137 0.357016,0.3255 c 0.63417,0.5722 1.169664,0.9052 1.257115,0.7963 -0.233766,-0.1251 -0.580536,-0.3671 -0.971281,-0.7198 l -0.357016,-0.3254 0.33289,-1.0136 c 0.534467,-1.5791 0.49931,-1.9554 -0.765404,-2.2886 z m 9.475386,2.539 c 0.186825,0.049 0.362588,0.1137 0.621198,0.197 0.407555,0.1314 0.667433,0.2212 0.864155,0.2621 -0.162264,-0.049 -0.324158,-0.1034 -0.578322,-0.1855 -0.38746,-0.1251 -0.671325,-0.2255 -0.907031,-0.2736 z m -5.06453,0.6648 c -0.0357,-0.01 -0.0802,-0.022 -0.132509,-0.02 0.332767,0.2016 0.724901,0.7819 1.057992,1.5395 0.240606,0.5473 0.331291,0.7343 0.705347,0.7405 -0.159074,-0.094 -0.254581,-0.2888 -0.419514,-0.6638 -0.38476,-0.8755 -0.855878,-1.501 -1.211316,-1.5963 z"
       style="fill:#ffffff;fill-opacity:0.5372549" />
    <g
       transform="matrix(0,-0.33984598,0.33984598,0,-321.78317,1047.0873)"
       id="g998">
      <g
         style="fill:#000000;fill-opacity:0.5372549"
         transform="matrix(0.97649957,0,0,0.97649957,0.56401169,24.166997)"
         inkscape:label="Capa 1"
         id="g1000">
        <path
           style="fill:#000000;fill-opacity:0.5372549"
           d="m 19.665365,1044.6142 c 0,-0.3157 2.108324,-2.7129 2.884039,-3.2791 0.422068,-0.308 1.028953,-0.5603 1.34863,-0.5603 0.7959,0 2.14478,1.0414 3.438711,2.6546 1.230518,1.5342 1.193845,1.5301 3.659737,0.4271 1.237132,-0.5534 1.401061,-0.6967 1.295599,-1.1335 -0.315449,-1.3062 -0.401135,-3.688 -0.164318,-4.5674 0.409769,-1.5217 0.888375,-1.7052 4.035084,-1.5471 3.038234,0.1528 2.725143,0.3384 3.671293,-2.1753 l 0.531875,-1.4132 -1.643301,-1.3592 c -1.96435,-1.6248 -2.666331,-2.6393 -2.463996,-3.5604 0.135568,-0.6172 2.470169,-3.0679 3.637163,-3.8179 0.491021,-0.3155 0.499165,-0.3663 0.195578,-1.2205 -0.174229,-0.4902 -0.529657,-1.3433 -0.789842,-1.8952 l -0.473061,-1.0039 -2.888194,0 c -3.820093,0 -3.685096,0.1382 -3.691193,-3.7313 l -0.0046,-2.9349 -1.875973,-0.7598 -1.875971,-0.7598 -0.66864,0.8628 c -0.367741,0.4748 -1.198728,1.3892 -1.846629,2.0328 -0.982686,0.9757 -1.310819,1.1697 -1.979085,1.1697 -0.668224,0 -1.01744,-0.2064 -2.10555,-1.2444 -0.717456,-0.6842 -1.537171,-1.5894 -1.821592,-2.0111 -0.600896,-0.8912 -0.729437,-0.8839 -3.107126,0.1792 -1.066279,0.4768 -1.516036,0.791 -1.434991,1.0022 0.06493,0.1693 0.182418,1.2313 0.261103,2.3605 0.111898,1.6057 0.06741,2.2332 -0.204186,2.8805 -0.442299,1.0542 -0.852917,1.1566 -4.067942,1.0148 l -2.5303924,-0.1116 -0.6768044,1.6258 c -0.372246,0.8941 -0.676808,1.7674 -0.676808,1.9405 0,0.1735 0.616929,0.8069 1.3709532,1.4081 1.6616536,1.3248 2.6395196,2.611 2.6395196,3.4712 0,0.7341 -1.173516,2.1227 -2.9176124,3.4527 -0.6010736,0.4585 -1.0928604,0.9702 -1.0928604,1.1374 0,0.1671 0.30844,1.0448 0.6854236,1.9504 l 0.6854214,1.6465 2.5301598,-0.1354 c 4.110716,-0.2206 4.520947,0.195 4.255089,4.3069 l -0.148196,2.2922 0.941258,0.4802 c 1.728325,0.883 3.082227,1.2888 3.082227,0.9252 z m 1.376739,-10.3158 c -2.436828,-1.2178 -3.606799,-3.1613 -3.602602,-5.9847 0.0027,-1.8712 0.665187,-3.3442 2.094155,-4.656 1.429133,-1.3122 2.360325,-1.6733 4.364986,-1.693 1.398416,-0.013 1.877547,0.085 2.936913,0.6049 2.342573,1.1504 3.602851,3.1866 3.614624,5.8396 0.02188,4.9323 -5.014266,8.0848 -9.408076,5.8892 z"
           id="path1002"
           inkscape:connector-curvature="0"
           sodipodi:nodetypes="ssssssssscsssscccsccccssccsssssccssscsscssccsssscsss" />
      </g>
      <g
         id="g1004"
         inkscape:label="Capa 1"
         transform="matrix(0.92449625,0,0,0.92449625,1.8120913,77.645244)"
         style="fill:url(#linearGradient3077);fill-opacity:1">
        <path
           sodipodi:nodetypes="ssssssssscsssscccsccccssccsssssccssscsscssccsssscsss"
           inkscape:connector-curvature="0"
           id="path1006"
           d="m 19.665365,1044.6142 c 0,-0.3157 2.108324,-2.7129 2.884039,-3.2791 0.422068,-0.308 1.028953,-0.5603 1.34863,-0.5603 0.7959,0 2.14478,1.0414 3.438711,2.6546 1.230518,1.5342 1.193845,1.5301 3.659737,0.4271 1.237132,-0.5534 1.401061,-0.6967 1.295599,-1.1335 -0.315449,-1.3062 -0.401135,-3.688 -0.164318,-4.5674 0.409769,-1.5217 0.888375,-1.7052 4.035084,-1.5471 3.038234,0.1528 2.725143,0.3384 3.671293,-2.1753 l 0.531875,-1.4132 -1.643301,-1.3592 c -1.96435,-1.6248 -2.666331,-2.6393 -2.463996,-3.5604 0.135568,-0.6172 2.470169,-3.0679 3.637163,-3.8179 0.491021,-0.3155 0.499165,-0.3663 0.195578,-1.2205 -0.174229,-0.4902 -0.529657,-1.3433 -0.789842,-1.8952 l -0.473061,-1.0039 -2.888194,0 c -3.820093,0 -3.685096,0.1382 -3.691193,-3.7313 l -0.0046,-2.9349 -1.875973,-0.7598 -1.875971,-0.7598 -0.66864,0.8628 c -0.367741,0.4748 -1.198728,1.3892 -1.846629,2.0328 -0.982686,0.9757 -1.310819,1.1697 -1.979085,1.1697 -0.668224,0 -1.01744,-0.2064 -2.10555,-1.2444 -0.717456,-0.6842 -1.537171,-1.5894 -1.821592,-2.0111 -0.600896,-0.8912 -0.729437,-0.8839 -3.107126,0.1792 -1.066279,0.4768 -1.516036,0.791 -1.434991,1.0022 0.06493,0.1693 0.182418,1.2313 0.261103,2.3605 0.111898,1.6057 0.06741,2.2332 -0.204186,2.8805 -0.442299,1.0542 -0.852917,1.1566 -4.067942,1.0148 l -2.5303924,-0.1116 -0.6768044,1.6258 c -0.372246,0.8941 -0.676808,1.7674 -0.676808,1.9405 0,0.1735 0.616929,0.8069 1.3709532,1.4081 1.6616536,1.3248 2.6395196,2.611 2.6395196,3.4712 0,0.7341 -1.173516,2.1227 -2.9176124,3.4527 -0.6010736,0.4585 -1.0928604,0.9702 -1.0928604,1.1374 0,0.1671 0.30844,1.0448 0.6854236,1.9504 l 0.6854214,1.6465 2.5301598,-0.1354 c 4.110716,-0.2206 4.520947,0.195 4.255089,4.3069 l -0.148196,2.2922 0.941258,0.4802 c 1.728325,0.883 3.082227,1.2888 3.082227,0.9252 z m 1.376739,-10.3158 c -2.436828,-1.2178 -3.606799,-3.1613 -3.602602,-5.9847 0.0027,-1.8712 0.665187,-3.3442 2.094155,-4.656 1.429133,-1.3122 2.360325,-1.6733 4.364986,-1.693 1.398416,-0.013 1.877547,0.085 2.936913,0.6049 2.342573,1.1504 3.602851,3.1866 3.614624,5.8396 0.02188,4.9323 -5.014266,8.0848 -9.408076,5.8892 z"
           style="fill:url(#linearGradient3075);fill-opacity:1" />
      </g>
      <path
         inkscape:connector-curvature="0"
         id="path1008"
         d="m 24,1019.0723 c -5.130691,0 -9.289937,4.1592 -9.289937,9.2899 0,5.1307 4.159246,9.2899 9.289937,9.2899 5.13069,0 9.289937,-4.1592 9.289937,-9.2899 0,-5.1307 -4.159247,-9.2899 -9.289937,-9.2899 z m 0,1.8935 c 4.084945,0 7.396446,3.3115 7.396446,7.3964 0,4.0849 -3.311501,7.3965 -7.396446,7.3965 -4.084945,0 -7.396447,-3.3116 -7.396447,-7.3965 0,-4.0849 3.311502,-7.3964 7.396447,-7.3964 z"
         style="color:#000000;fill:url(#linearGradient3079);fill-opacity:1;fill-rule:nonzero;stroke:none;stroke-width:0.2;marker:none;visibility:visible;display:inline;overflow:visible;enable-background:accumulate" />
      <path
         inkscape:connector-curvature="0"
         id="path1010"
         d="m 24,1019.0723 c -5.130691,0 -9.289937,4.1592 -9.289937,9.2899 0,5.1307 4.159246,9.2899 9.289937,9.2899 5.13069,0 9.289937,-4.1592 9.289937,-9.2899 0,-5.1307 -4.159247,-9.2899 -9.289937,-9.2899 z m 0,0.3846 c 4.918273,0 8.905321,3.987 8.905321,8.9053 0,4.9183 -3.987048,8.9054 -8.905321,8.9054 -4.918273,0 -8.905322,-3.9871 -8.905322,-8.9054 0,-4.9183 3.987049,-8.9053 8.905322,-8.9053 z"
         style="color:#000000;fill:#ffffff;fill-opacity:1;fill-rule:nonzero;stroke:none;stroke-width:0.2;marker:none;visibility:visible;display:inline;overflow:visible;enable-background:accumulate" />
      <path
         inkscape:connector-curvature="0"
         id="path1012"
         d="m 28.14201,1013.2143 -0.621302,0.7988 c -0.339975,0.439 -1.087408,1.2689 -1.68639,1.8639 -0.74593,0.7406 -1.099421,0.9981 -1.53846,1.0651 0.09726,0.016 0.185317,0.03 0.295857,0.03 0.617809,0 0.925829,-0.1927 1.834319,-1.0947 0.598982,-0.595 1.346415,-1.4249 1.68639,-1.8639 l 0.473373,-0.6213 -0.443787,-0.1779 z m -8.579878,0.1479 c -0.37392,0.022 -0.971923,0.2778 -2.071005,0.7692 -0.985771,0.4408 -1.406286,0.722 -1.331361,0.9172 0.06002,0.1565 0.163943,1.1455 0.236687,2.1894 0.10345,1.4844 0.07358,2.0643 -0.177515,2.6627 -0.294536,0.702 -0.590291,0.9429 -1.834319,0.9763 1.699823,0.019 2.093808,-0.1844 2.426035,-0.9763 0.251093,-0.5984 0.280964,-1.1783 0.177514,-2.6627 -0.07274,-1.0439 -0.176662,-2.0329 -0.236686,-2.1894 -0.07492,-0.1952 0.34559,-0.4764 1.33136,-0.9172 0.824313,-0.3685 1.37338,-0.6083 1.745562,-0.71 -0.08207,-0.032 -0.156972,-0.065 -0.266272,-0.059 z m -9.437866,7.3669 -0.6213014,1.5088 c -0.34414,0.8267 -0.6213015,1.6448 -0.6213015,1.8048 0,0.1604 0.5455105,0.7459 1.2426029,1.3018 1.536192,1.2248 2.45562,2.4001 2.45562,3.1952 0,0.6787 -1.079896,1.9657 -2.6923062,3.1953 -0.5556903,0.4238 -1.0059167,0.9105 -1.0059167,1.0651 0,0.1544 0.2727816,0.9379 0.6213015,1.7751 l 0.6213014,1.5385 0.591716,-0.03 -0.621302,-1.5089 c -0.3485196,-0.8372 -0.6213012,-1.6207 -0.6213012,-1.7751 0,-0.1546 0.4502265,-0.6413 1.0059172,-1.0651 1.61241,-1.2296 2.692306,-2.5166 2.692306,-3.1953 0,-0.7951 -0.919428,-1.9704 -2.45562,-3.1952 -0.697093,-0.5559 -1.2426032,-1.1414 -1.2426032,-1.3018 0,-0.16 0.2771614,-0.9781 0.6213012,-1.8048 l 0.621302,-1.4788 -0.591716,-0.03 z m 14.171592,1.7159 c 0.985231,0.014 1.47143,0.1372 2.337277,0.5622 2.165699,1.0635 3.33231,2.932 3.343194,5.3846 0.01517,3.4199 -2.599094,5.9176 -5.6213,6.0947 3.261747,0.1337 6.229161,-2.4556 6.213015,-6.0947 -0.01088,-2.4526 -1.177494,-4.3211 -3.343194,-5.3846 -0.97938,-0.4807 -1.429061,-0.5745 -2.721892,-0.5622 -0.07683,8e-4 -0.133579,0 -0.2071,0 z m -9.97041,13.4912 c -0.09577,4e-4 -0.223277,0.027 -0.325444,0.03 2.346924,0.044 2.603352,0.7939 2.396449,3.994 l -0.118344,2.1302 0.857988,0.4438 c 1.521018,0.777 2.727661,1.1431 2.840236,0.8876 -0.516296,-0.1208 -1.311327,-0.4088 -2.24852,-0.8876 l -0.857988,-0.4438 0.118343,-2.1302 c 0.215062,-3.3266 -0.04756,-4.0351 -2.66272,-4.024 z m 19.615376,0 c 0.386566,-7e-4 0.759184,0.032 1.301775,0.059 0.855219,0.043 1.403652,0.082 1.804733,0.059 -0.339125,-0.012 -0.679627,-0.032 -1.213018,-0.059 -0.813082,-0.041 -1.413317,-0.088 -1.89349,-0.059 z m -9.437866,3.9053 c -0.07389,0 -0.166015,0 -0.266272,0.03 0.747074,0.2172 1.804796,1.1351 2.840236,2.426 0.747978,0.9326 1.019871,1.2467 1.745561,1.0651 -0.355833,-0.099 -0.641139,-0.4259 -1.153846,-1.0651 -1.196234,-1.4918 -2.429872,-2.456 -3.165679,-2.456 z"
         style="fill:#ffffff;fill-opacity:0.5372549" />
    </g>
    <path
       style="fill:#000000;fill-opacity:0.53725493;display:inline"
       id="path2536"
       inkscape:connector-curvature="0"
       d="m 22.755873,1021.5226 c 0.02148,0.5774 -0.168483,0.858 -0.340335,1.3543 l -0.309063,0.1538 c -0.252631,0.4907 0.02544,0.3115 -0.15583,0.7019 -0.394843,0.3504 -1.196505,1.0968 -1.453193,1.1652 -0.187639,0 0.126899,-0.2213 0.168016,-0.3063 -0.527995,0.3624 -0.423774,0.5441 -1.231413,0.7646 l -0.02347,-0.053 c -1.991,0.9369 -4.756876,-0.9196 -4.720566,-3.4521 -0.02119,0.1607 -0.06016,0.1205 -0.104518,0.1849 -0.10272,-1.3027 0.601845,-2.6114 1.790222,-3.1465 1.162328,-0.5751 2.524946,-0.3394 3.356965,0.4371 -0.456992,-0.5989 -1.367413,-1.234 -2.445594,-1.1752 -1.056704,0.019 -2.045498,0.6886 -2.375349,1.4178 -0.541126,0.3406 -0.604221,1.3137 -0.839883,1.4919 -0.317665,2.3328 0.596821,3.3404 2.143965,4.5261 0.24284,0.1639 0.06845,0.189 0.100779,0.3137 -0.513898,-0.2403 -0.984278,-0.6037 -1.371485,-1.0486 0.205565,0.3005 0.427123,0.5926 0.713716,0.8222 -0.484972,-0.1638 -1.13246,-1.1744 -1.321043,-1.2155 0.835383,1.4958 3.38876,2.6232 4.726513,2.0636 -0.619048,0.022 -1.405155,0.013 -2.100215,-0.2442 -0.292776,-0.1503 -0.689313,-0.4613 -0.618333,-0.5194 1.825122,0.6814 3.709983,0.5158 5.288929,-0.7497 0.402019,-0.3132 0.840856,-0.8454 0.967776,-0.8527 -0.190986,0.2874 0.03294,0.139 -0.114059,0.3918 0.399637,-0.6455 -0.174234,-0.2629 0.413505,-1.1149 l 0.217022,0.2989 c -0.08123,-0.5363 0.665656,-1.1869 0.589637,-2.0345 0.171387,-0.2591 0.190988,0.2791 0.0095,0.8752 0.252165,-0.6613 0.06656,-0.7676 0.13122,-1.3135 0.06958,0.1835 0.162056,0.3783 0.209136,0.5722 -0.164446,-0.6394 0.168025,-1.0764 0.250732,-1.448 -0.08157,-0.035 -0.253601,0.2825 -0.293275,-0.4723 0.0078,-0.328 0.09163,-0.1719 0.124259,-0.2526 -0.06412,-0.035 -0.233037,-0.2885 -0.335577,-0.7705 0.07386,-0.1144 0.198866,0.2937 0.300204,0.3101 -0.06525,-0.3831 -0.177347,-0.6755 -0.182128,-0.9697 -0.296375,-0.619 -0.10486,0.083 -0.344907,-0.2657 -0.315488,-0.9834 0.261489,-0.2282 0.300696,-0.6748 0.477538,0.6919 0.749783,1.7651 0.875263,2.2095 -0.09552,-0.5419 -0.249767,-1.0669 -0.438351,-1.575 0.145555,0.062 -0.234008,-1.1144 0.189064,-0.3356 -0.451511,-1.6602 -1.930766,-3.2113 -3.291976,-3.9387 0.16615,0.1521 0.376223,0.3433 0.301198,0.3735 -0.677398,-0.4028 -0.55835,-0.4345 -0.655387,-0.6048 -0.550937,-0.2244 -0.587747,0.019 -0.952268,6e-4 -1.039669,-0.5515 -1.239966,-0.4932 -2.196757,-0.8381 l 0.04364,0.2035 c -0.688606,-0.2293 -0.802393,0.086 -1.546437,8e-4 -0.04508,-0.034 0.23854,-0.128 0.472292,-0.1619 -0.665891,0.087 -0.63482,-0.1321 -1.286371,0.023 0.160382,-0.113 0.330566,-0.1873 0.501696,-0.2828 -0.5428,0.033 -1.296425,0.3159 -1.063854,0.058 -0.885553,0.3953 -2.45851,0.9499 -3.341201,1.7777 l -0.02772,-0.1855 c -0.404395,0.4854 -1.7636867,1.4499 -1.8719642,2.0792 l -0.1082136,0.024 c -0.2101222,0.3563 -0.3465753,0.76 -0.5134176,1.1264 -0.2750929,0.4693 -0.4034512,0.1808 -0.3642779,0.2544 -0.5413349,1.0975 -0.8107239,2.0197 -1.0428152,2.7763 0.1653972,0.2474 0.00207,1.4895 0.066424,2.4836 -0.2715284,4.9103 3.4461235,9.6777 7.5098365,10.778 0.595647,0.2136 1.481186,0.2057 2.234569,0.2268 -0.888646,-0.2544 -1.003415,-0.1348 -1.869589,-0.4365 -0.624558,-0.2944 -0.761239,-0.6302 -1.203892,-1.0144 l 0.175181,0.3095 c -0.867593,-0.3072 -0.504531,-0.38 -1.210603,-0.6035 l 0.187138,-0.244 c -0.281305,-0.021 -0.744995,-0.4739 -0.871672,-0.7248 l -0.307853,0.013 c -0.369523,-0.4557 -0.566723,-0.7848 -0.552124,-1.0398 l -0.09944,0.1774 c -0.112522,-0.1935 -1.360237,-1.7109 -0.71298,-1.3577 -0.120233,-0.1092 -0.280115,-0.1786 -0.453413,-0.4937 l 0.131707,-0.1504 c -0.310959,-0.4009 -0.573164,-0.9145 -0.553084,-1.0855 0.166121,0.2241 0.281332,0.2662 0.395579,0.3046 -0.7866081,-1.9513 -0.8308168,-0.107 -1.426222,-1.9862 l 0.125774,-0.013 c -0.0963,-0.146 -0.1553649,-0.3036 -0.2328144,-0.4588 l 0.054816,-0.546 c -0.5659794,-0.6539 -0.1582343,-2.7832 -0.076179,-3.9509 0.055935,-0.4747 0.4725346,-0.9802 0.7887534,-1.773 l -0.1926477,-0.033 c 0.3685581,-0.6424 2.1038147,-2.581 2.9078527,-2.4816 0.389354,-0.489 -0.07727,0 -0.153689,-0.1251 0.855434,-0.885 1.124329,-0.6252 1.701556,-0.7846 0.622155,-0.3693 -0.534191,0.1443 -0.239261,-0.1409 1.07629,-0.2745 0.762454,-0.6248 2.166199,-0.764 0.148188,0.085 -0.343468,0.1293 -0.466796,0.2392 0.896295,-0.4388 2.836857,-0.3387 4.097888,0.2433 1.46206,0.6838 3.105776,2.7044 3.170789,4.6051 l 0.07386,0.02 c -0.03737,0.7559 0.115683,1.6299 -0.149884,2.4326 l 0.179532,-0.3804" />
    <path
       d="m 22.755873,1022.7227 c 0.02148,0.5774 -0.168483,0.858 -0.340335,1.3543 l -0.309063,0.1538 c -0.252631,0.4907 0.02544,0.3115 -0.15583,0.7019 -0.394843,0.3504 -1.196505,1.0968 -1.453193,1.1652 -0.187639,0 0.126899,-0.2213 0.168016,-0.3063 -0.527995,0.3624 -0.423774,0.5441 -1.231413,0.7646 l -0.02347,-0.053 c -1.991,0.9369 -4.756876,-0.9196 -4.720566,-3.4521 -0.02119,0.1607 -0.06016,0.1205 -0.104518,0.1849 -0.10272,-1.3027 0.601845,-2.6114 1.790222,-3.1465 1.162328,-0.5751 2.524946,-0.3394 3.356965,0.4371 -0.456992,-0.5989 -1.367413,-1.234 -2.445594,-1.1752 -1.056704,0.019 -2.045498,0.6886 -2.375349,1.4178 -0.541126,0.3406 -0.604221,1.3137 -0.839883,1.4919 -0.317665,2.3328 0.596821,3.3404 2.143965,4.5261 0.24284,0.1639 0.06845,0.189 0.100779,0.3137 -0.513898,-0.2403 -0.984278,-0.6037 -1.371485,-1.0486 0.205565,0.3005 0.427123,0.5926 0.713716,0.8222 -0.484972,-0.1638 -1.13246,-1.1744 -1.321043,-1.2155 0.835383,1.4958 3.38876,2.6232 4.726513,2.0636 -0.619048,0.022 -1.405155,0.013 -2.100215,-0.2442 -0.292776,-0.1503 -0.689313,-0.4613 -0.618333,-0.5194 1.825122,0.6814 3.709983,0.5158 5.288929,-0.7497 0.402019,-0.3132 0.840856,-0.8454 0.967776,-0.8527 -0.190986,0.2874 0.03294,0.139 -0.114059,0.3918 0.399637,-0.6455 -0.174234,-0.2629 0.413505,-1.1149 l 0.217022,0.2989 c -0.08123,-0.5363 0.665656,-1.1869 0.589637,-2.0345 0.171387,-0.2591 0.190988,0.2791 0.0095,0.8752 0.252165,-0.6613 0.06656,-0.7676 0.13122,-1.3135 0.06958,0.1835 0.162056,0.3783 0.209136,0.5722 -0.164446,-0.6394 0.168025,-1.0764 0.250732,-1.448 -0.08157,-0.035 -0.253601,0.2825 -0.293275,-0.4723 0.0078,-0.328 0.09163,-0.1719 0.124259,-0.2526 -0.06412,-0.035 -0.233037,-0.2885 -0.335577,-0.7705 0.07386,-0.1144 0.198866,0.2937 0.300204,0.3101 -0.06525,-0.3831 -0.177347,-0.6755 -0.182128,-0.9697 -0.296375,-0.619 -0.10486,0.083 -0.344907,-0.2657 -0.315488,-0.9834 0.261489,-0.2282 0.300696,-0.6748 0.477538,0.6919 0.749783,1.7651 0.875263,2.2095 -0.09552,-0.5419 -0.249767,-1.0669 -0.438351,-1.575 0.145555,0.062 -0.234008,-1.1144 0.189064,-0.3356 -0.451511,-1.6602 -1.930766,-3.2113 -3.291976,-3.9387 0.16615,0.1521 0.376223,0.3433 0.301198,0.3735 -0.677398,-0.4028 -0.55835,-0.4345 -0.655387,-0.6048 -0.550937,-0.2244 -0.587747,0.019 -0.952268,6e-4 -1.039669,-0.5515 -1.239966,-0.4932 -2.196757,-0.8381 l 0.04364,0.2035 c -0.688606,-0.2293 -0.802393,0.086 -1.546437,8e-4 -0.04508,-0.034 0.23854,-0.128 0.472292,-0.1619 -0.665891,0.087 -0.63482,-0.1321 -1.286371,0.023 0.160382,-0.113 0.330566,-0.1873 0.501696,-0.2828 -0.5428,0.033 -1.296425,0.3159 -1.063854,0.058 -0.885553,0.3953 -2.45851,0.9499 -3.341201,1.7777 l -0.02772,-0.1855 c -0.404395,0.4854 -1.7636867,1.4499 -1.8719642,2.0792 l -0.1082136,0.024 c -0.2101222,0.3563 -0.3465753,0.76 -0.5134176,1.1264 -0.2750929,0.4693 -0.4034512,0.1808 -0.3642779,0.2544 -0.5413349,1.0975 -0.8107239,2.0197 -1.0428152,2.7763 0.1653972,0.2474 0.00207,1.4895 0.066424,2.4836 -0.2715284,4.9103 3.4461235,9.6777 7.5098365,10.778 0.595647,0.2136 1.481186,0.2057 2.234569,0.2268 -0.888646,-0.2544 -1.003415,-0.1348 -1.869589,-0.4365 -0.624558,-0.2944 -0.761239,-0.6302 -1.203892,-1.0144 l 0.175181,0.3095 c -0.867593,-0.3072 -0.504531,-0.38 -1.210603,-0.6035 l 0.187138,-0.244 c -0.281305,-0.021 -0.744995,-0.4739 -0.871672,-0.7248 l -0.307853,0.013 c -0.369523,-0.4557 -0.566723,-0.7848 -0.552124,-1.0398 l -0.09944,0.1774 c -0.112522,-0.1935 -1.360237,-1.7109 -0.71298,-1.3577 -0.120233,-0.1092 -0.280115,-0.1786 -0.453413,-0.4937 l 0.131707,-0.1504 c -0.310959,-0.4009 -0.573164,-0.9145 -0.553084,-1.0855 0.166121,0.2241 0.281332,0.2662 0.395579,0.3046 -0.7866081,-1.9513 -0.8308168,-0.107 -1.426222,-1.9862 l 0.125774,-0.013 c -0.0963,-0.146 -0.1553649,-0.3036 -0.2328144,-0.4588 l 0.054816,-0.546 c -0.5659794,-0.6539 -0.1582343,-2.7832 -0.076179,-3.9509 0.055935,-0.4747 0.4725346,-0.9802 0.7887534,-1.773 l -0.1926477,-0.033 c 0.3685581,-0.6424 2.1038147,-2.581 2.9078527,-2.4816 0.389354,-0.489 -0.07727,0 -0.153689,-0.1251 0.855434,-0.885 1.124329,-0.6252 1.701556,-0.7846 0.622155,-0.3693 -0.534191,0.1443 -0.239261,-0.1409 1.07629,-0.2745 0.762454,-0.6248 2.166199,-0.764 0.148188,0.085 -0.343468,0.1293 -0.466796,0.2392 0.896295,-0.4388 2.836857,-0.3387 4.097888,0.2433 1.46206,0.6838 3.105776,2.7044 3.170789,4.6051 l 0.07386,0.02 c -0.03737,0.7559 0.115683,1.6299 -0.149884,2.4326 l 0.179532,-0.3804"
       inkscape:connector-curvature="0"
       id="path4181"
       style="fill:#000000;fill-opacity:0.5372549;display:inline" />
    <path
       d="m 22.755873,1021.9227 c 0.02148,0.5774 -0.168483,0.858 -0.340335,1.3543 l -0.309063,0.1538 c -0.252631,0.4907 0.02544,0.3115 -0.15583,0.7019 -0.394843,0.3504 -1.196505,1.0968 -1.453193,1.1652 -0.187639,0 0.126899,-0.2213 0.168016,-0.3063 -0.527995,0.3624 -0.423774,0.5441 -1.231413,0.7646 l -0.02347,-0.053 c -1.991,0.9369 -4.756876,-0.9196 -4.720566,-3.4521 -0.02119,0.1607 -0.06016,0.1205 -0.104518,0.1849 -0.10272,-1.3027 0.601845,-2.6114 1.790222,-3.1465 1.162328,-0.5751 2.524946,-0.3394 3.356965,0.4371 -0.456992,-0.5989 -1.367413,-1.234 -2.445594,-1.1752 -1.056704,0.019 -2.045498,0.6886 -2.375349,1.4178 -0.541126,0.3406 -0.604221,1.3137 -0.839883,1.4919 -0.317665,2.3328 0.596821,3.3404 2.143965,4.5261 0.24284,0.1639 0.06845,0.189 0.100779,0.3137 -0.513898,-0.2403 -0.984278,-0.6037 -1.371485,-1.0486 0.205565,0.3005 0.427123,0.5926 0.713716,0.8222 -0.484972,-0.1638 -1.13246,-1.1744 -1.321043,-1.2155 0.835383,1.4958 3.38876,2.6232 4.726513,2.0636 -0.619048,0.022 -1.405155,0.013 -2.100215,-0.2442 -0.292776,-0.1503 -0.689313,-0.4613 -0.618333,-0.5194 1.825122,0.6814 3.709983,0.5158 5.288929,-0.7497 0.402019,-0.3132 0.840856,-0.8454 0.967776,-0.8527 -0.190986,0.2874 0.03294,0.139 -0.114059,0.3918 0.399637,-0.6455 -0.174234,-0.2629 0.413505,-1.1149 l 0.217022,0.2989 c -0.08123,-0.5363 0.665656,-1.1869 0.589637,-2.0345 0.171387,-0.2591 0.190988,0.2791 0.0095,0.8752 0.252165,-0.6613 0.06656,-0.7676 0.13122,-1.3135 0.06958,0.1835 0.162056,0.3783 0.209136,0.5722 -0.164446,-0.6394 0.168025,-1.0764 0.250732,-1.448 -0.08157,-0.035 -0.253601,0.2825 -0.293275,-0.4723 0.0078,-0.328 0.09163,-0.1719 0.124259,-0.2526 -0.06412,-0.035 -0.233037,-0.2885 -0.335577,-0.7705 0.07386,-0.1144 0.198866,0.2937 0.300204,0.3101 -0.06525,-0.3831 -0.177347,-0.6755 -0.182128,-0.9697 -0.296375,-0.619 -0.10486,0.083 -0.344907,-0.2657 -0.315488,-0.9834 0.261489,-0.2282 0.300696,-0.6748 0.477538,0.6919 0.749783,1.7651 0.875263,2.2095 -0.09552,-0.5419 -0.249767,-1.0669 -0.438351,-1.575 0.145555,0.062 -0.234008,-1.1144 0.189064,-0.3356 -0.451511,-1.6602 -1.930766,-3.2113 -3.291976,-3.9387 0.16615,0.1521 0.376223,0.3433 0.301198,0.3735 -0.677398,-0.4028 -0.55835,-0.4345 -0.655387,-0.6048 -0.550937,-0.2244 -0.587747,0.019 -0.952268,6e-4 -1.039669,-0.5515 -1.239966,-0.4932 -2.196757,-0.8381 l 0.04364,0.2035 c -0.688606,-0.2293 -0.802393,0.086 -1.546437,8e-4 -0.04508,-0.034 0.23854,-0.128 0.472292,-0.1619 -0.665891,0.087 -0.63482,-0.1321 -1.286371,0.023 0.160382,-0.113 0.330566,-0.1873 0.501696,-0.2828 -0.5428,0.033 -1.296425,0.3159 -1.063854,0.058 -0.885553,0.3953 -2.45851,0.9499 -3.341201,1.7777 l -0.02772,-0.1855 c -0.404395,0.4854 -1.7636867,1.4499 -1.8719642,2.0792 l -0.1082136,0.024 c -0.2101222,0.3563 -0.3465753,0.76 -0.5134176,1.1264 -0.2750929,0.4693 -0.4034512,0.1808 -0.3642779,0.2544 -0.5413349,1.0975 -0.8107239,2.0197 -1.0428152,2.7763 0.1653972,0.2474 0.00207,1.4895 0.066424,2.4836 -0.2715284,4.9103 3.4461235,9.6777 7.5098365,10.778 0.595647,0.2136 1.481186,0.2057 2.234569,0.2268 -0.888646,-0.2544 -1.003415,-0.1348 -1.869589,-0.4365 -0.624558,-0.2944 -0.761239,-0.6302 -1.203892,-1.0144 l 0.175181,0.3095 c -0.867593,-0.3072 -0.504531,-0.38 -1.210603,-0.6035 l 0.187138,-0.244 c -0.281305,-0.021 -0.744995,-0.4739 -0.871672,-0.7248 l -0.307853,0.013 c -0.369523,-0.4557 -0.566723,-0.7848 -0.552124,-1.0398 l -0.09944,0.1774 c -0.112522,-0.1935 -1.360237,-1.7109 -0.71298,-1.3577 -0.120233,-0.1092 -0.280115,-0.1786 -0.453413,-0.4937 l 0.131707,-0.1504 c -0.310959,-0.4009 -0.573164,-0.9145 -0.553084,-1.0855 0.166121,0.2241 0.281332,0.2662 0.395579,0.3046 -0.7866081,-1.9513 -0.8308168,-0.107 -1.426222,-1.9862 l 0.125774,-0.013 c -0.0963,-0.146 -0.1553649,-0.3036 -0.2328144,-0.4588 l 0.054816,-0.546 c -0.5659794,-0.6539 -0.1582343,-2.7832 -0.076179,-3.9509 0.055935,-0.4747 0.4725346,-0.9802 0.7887534,-1.773 l -0.1926477,-0.033 c 0.3685581,-0.6424 2.1038147,-2.581 2.9078527,-2.4816 0.389354,-0.489 -0.07727,0 -0.153689,-0.1251 0.855434,-0.885 1.124329,-0.6252 1.701556,-0.7846 0.622155,-0.3693 -0.534191,0.1443 -0.239261,-0.1409 1.07629,-0.2745 0.762454,-0.6248 2.166199,-0.764 0.148188,0.085 -0.343468,0.1293 -0.466796,0.2392 0.896295,-0.4388 2.836857,-0.3387 4.097888,0.2433 1.46206,0.6838 3.105776,2.7044 3.170789,4.6051 l 0.07386,0.02 c -0.03737,0.7559 0.115683,1.6299 -0.149884,2.4326 l 0.179532,-0.3804"
       inkscape:connector-curvature="0"
       id="path4177"
       style="fill:url(#linearGradient4179);fill-opacity:1;display:inline" />
    <path
       style="fill:#ffffff;fill-opacity:0.53725493;display:inline"
       d="M 16.742188 9.8652344 C 16.20328 9.8812246 15.718923 9.9702156 15.382812 10.134766 C 15.506141 10.024866 15.997797 9.9814844 15.849609 9.8964844 C 14.445864 10.035684 14.759884 10.385656 13.683594 10.660156 C 13.388664 10.945356 14.545983 10.431481 13.923828 10.800781 C 13.346601 10.960181 13.07809 10.700938 12.222656 11.585938 C 12.299075 11.711037 12.764354 11.221937 12.375 11.710938 C 11.570962 11.611537 9.8373081 13.549006 9.46875 14.191406 L 9.6601562 14.224609 C 9.3439374 15.017409 8.9270287 15.523347 8.8710938 15.998047 C 8.8172151 16.764774 8.6289694 17.939703 8.6621094 18.845703 C 8.6915264 18.037372 8.8267317 17.129348 8.8710938 16.498047 C 8.9270287 16.023347 9.3439374 15.517409 9.6601562 14.724609 L 9.46875 14.691406 C 9.8373081 14.049006 11.570962 12.111537 12.375 12.210938 C 12.764354 11.721937 12.299075 12.211037 12.222656 12.085938 C 13.07809 11.200938 13.346601 11.460181 13.923828 11.300781 C 14.545983 10.931481 13.388664 11.445356 13.683594 11.160156 C 14.759884 10.885656 14.445864 10.535684 15.849609 10.396484 C 15.997797 10.481484 15.506141 10.524866 15.382812 10.634766 C 16.279107 10.195966 18.221391 10.296906 19.482422 10.878906 C 20.944482 11.562706 22.587331 13.583675 22.652344 15.484375 L 22.726562 15.503906 C 22.714512 15.747664 22.725292 16.015375 22.732422 16.277344 C 22.735903 15.838665 22.706761 15.404444 22.726562 15.003906 L 22.652344 14.984375 C 22.587331 13.083675 20.944482 11.062706 19.482422 10.378906 C 18.694277 10.015156 17.640366 9.838584 16.742188 9.8652344 z M 23.878906 12.826172 C 23.840408 13.264699 23.293704 12.561951 23.572266 13.466797 C 23.681818 13.463214 23.857707 13.567653 23.878906 13.326172 C 24.356444 14.018072 24.628426 15.090756 24.753906 15.535156 C 24.658386 14.993256 24.503037 14.469038 24.314453 13.960938 C 24.360279 13.980457 24.354731 13.872416 24.337891 13.746094 C 24.21084 13.421123 24.064601 13.095223 23.878906 12.826172 z M 24.314453 13.083984 C 24.331374 13.201972 24.351166 13.329335 24.347656 13.402344 C 24.378144 13.423837 24.415853 13.462909 24.503906 13.625 C 24.454261 13.442454 24.387426 13.262942 24.314453 13.083984 z M 17.287109 14.189453 C 17.170125 14.191557 17.053971 14.205407 16.939453 14.222656 C 16.748882 14.274092 16.558465 14.336959 16.375 14.427734 C 15.187217 14.962567 14.484076 16.270211 14.585938 17.572266 C 14.67266 16.446938 15.339412 15.394037 16.375 14.927734 C 17.537328 14.352634 18.900403 14.588734 19.732422 15.365234 C 19.27543 14.766334 18.36529 14.130653 17.287109 14.189453 z M 23.869141 14.423828 C 23.845451 14.4014 23.823152 14.397181 23.804688 14.425781 C 23.885745 14.806801 23.996713 15.005082 24.076172 15.105469 C 24.035899 14.910319 23.998776 14.732033 23.966797 14.568359 C 23.932383 14.509572 23.899379 14.452456 23.869141 14.423828 z M 24.101562 15.214844 C 24.096797 15.215352 24.092849 15.220351 24.087891 15.220703 C 24.093543 15.223777 24.099945 15.235434 24.105469 15.236328 C 24.104126 15.228446 24.102943 15.22265 24.101562 15.214844 z M 24.027344 15.537109 C 24.034773 15.624816 24.043308 15.696109 24.054688 15.75 C 24.083535 15.718073 24.121243 15.745203 24.140625 15.697266 C 24.117131 15.684441 24.070557 15.609095 24.027344 15.537109 z M 7.6210938 16.119141 C 7.6029624 16.178424 7.5781469 16.253172 7.5605469 16.310547 C 7.6018962 16.372397 7.6219068 16.497292 7.6308594 16.664062 C 7.6352968 16.451116 7.6326127 16.267019 7.6210938 16.119141 z M 24.308594 16.421875 C 24.263807 16.402658 24.193306 16.474159 24.130859 16.431641 C 24.044907 16.669238 23.992078 16.935385 24.048828 17.261719 C 24.110183 16.932806 24.255474 16.660538 24.308594 16.421875 z M 23.849609 16.796875 C 23.82232 17.027271 23.837514 17.177612 23.847656 17.326172 C 23.848814 17.314918 23.84823 17.308519 23.849609 17.296875 C 23.919189 17.480375 24.011514 17.675241 24.058594 17.869141 C 24.005238 17.661682 24.013299 17.482023 24.039062 17.3125 C 23.989158 17.137612 23.912348 16.962332 23.849609 16.796875 z M 22.755859 17.056641 L 22.714844 17.140625 C 22.695965 17.40913 22.662185 17.675566 22.576172 17.935547 L 22.660156 17.757812 C 22.724728 17.556202 22.766438 17.344915 22.755859 17.060547 L 22.755859 17.056641 z M 23.765625 17.173828 C 23.749041 17.182744 23.730408 17.203941 23.708984 17.236328 C 23.785003 18.083928 23.037911 18.733231 23.119141 19.269531 L 22.902344 18.970703 C 22.314605 19.822703 22.887918 19.440438 22.488281 20.085938 C 22.63528 19.833137 22.410577 19.982712 22.601562 19.695312 C 22.474642 19.702612 22.036785 20.233675 21.634766 20.546875 C 20.05582 21.812375 18.170825 21.978275 16.345703 21.296875 C 16.274723 21.354975 16.672068 21.666106 16.964844 21.816406 C 17.659904 22.073606 18.445405 22.082547 19.064453 22.060547 C 18.908385 22.125832 18.733329 22.16409 18.548828 22.185547 C 19.634314 22.16174 20.689998 21.804091 21.634766 21.046875 C 22.036785 20.733675 22.474642 20.202612 22.601562 20.195312 C 22.410577 20.482712 22.63528 20.333137 22.488281 20.585938 C 22.887918 19.940437 22.314605 20.322703 22.902344 19.470703 L 23.119141 19.769531 C 23.037911 19.233231 23.785003 18.583928 23.708984 17.736328 C 23.757093 17.663599 23.789401 17.664613 23.8125 17.701172 C 23.867999 17.367987 23.849766 17.128591 23.765625 17.173828 z M 16.345703 21.296875 C 16.354904 21.254525 16.338217 21.20695 16.216797 21.125 C 14.937637 20.144678 14.102743 19.273958 14.027344 17.6875 C 13.959468 19.114003 14.428965 20.006499 15.255859 20.808594 C 15.145179 20.674926 15.043387 20.533992 14.945312 20.390625 C 15.332519 20.835525 15.802508 21.199153 16.316406 21.439453 C 16.300242 21.377103 16.336502 21.339225 16.345703 21.296875 z M 23.837891 17.65625 C 23.834096 17.684847 23.82845 17.716706 23.822266 17.748047 C 23.861225 17.882561 23.837072 18.222697 23.71875 18.611328 C 23.904231 18.124905 23.852298 17.937934 23.837891 17.65625 z M 7.6191406 17.806641 C 7.6122999 18.092324 7.6122269 18.379764 7.625 18.662109 C 7.6268587 18.539586 7.620165 18.417679 7.6269531 18.294922 C 7.6167965 18.138029 7.6201422 17.971002 7.6191406 17.806641 z M 7.625 19.246094 C 7.5960289 23.993828 11.197834 28.505764 15.136719 29.572266 C 15.732366 29.785866 16.617711 29.777728 17.371094 29.798828 C 16.482448 29.544428 16.368127 29.664981 15.501953 29.363281 C 15.274653 29.256138 15.120703 29.141885 14.984375 29.023438 C 11.243442 27.923881 7.837305 23.745948 7.625 19.246094 z M 8.9042969 20.371094 L 8.8925781 20.496094 C 8.9064313 20.523854 8.9205987 20.550291 8.9335938 20.578125 L 8.9472656 20.449219 C 8.9293996 20.428577 8.9202632 20.394599 8.9042969 20.371094 z M 14.337891 20.496094 C 15.173274 21.991894 17.7267 23.120147 19.064453 22.560547 C 18.445405 22.582547 17.659904 22.573606 16.964844 22.316406 C 16.672068 22.166106 16.274723 21.854975 16.345703 21.796875 C 16.336502 21.839225 16.300242 21.877103 16.316406 21.939453 C 15.802508 21.699153 15.332519 21.335525 14.945312 20.890625 C 15.150877 21.191125 15.37161 21.483291 15.658203 21.712891 C 15.173231 21.549091 14.526474 20.537194 14.337891 20.496094 z M 16.345703 21.796875 C 16.624389 21.900921 16.905377 21.977367 17.185547 22.041016 C 16.878704 21.953015 16.572597 21.823936 16.273438 21.675781 C 16.329043 21.725628 16.352604 21.765113 16.345703 21.796875 z M 18.375 22.191406 C 18.391965 22.191599 18.408829 22.191377 18.425781 22.191406 C 18.409497 22.192481 18.391442 22.190632 18.375 22.191406 z M 10.042969 22.708984 C 10.059744 22.86216 10.20824 23.14628 10.396484 23.439453 C 10.40596 23.442775 10.416347 23.449954 10.425781 23.453125 C 10.270151 23.067061 10.150496 22.856128 10.042969 22.708984 z "
       transform="translate(0,1004.3622)"
       id="path4183" />
  </g>
</svg>
