<?xml version="1.0" encoding="UTF-8" standalone="no"?>
<!-- Created with Inkscape (http://www.inkscape.org/) -->

<svg
   xmlns:dc="http://purl.org/dc/elements/1.1/"
   xmlns:cc="http://creativecommons.org/ns#"
   xmlns:rdf="http://www.w3.org/1999/02/22-rdf-syntax-ns#"
   xmlns:svg="http://www.w3.org/2000/svg"
   xmlns="http://www.w3.org/2000/svg"
   xmlns:xlink="http://www.w3.org/1999/xlink"
   xmlns:sodipodi="http://sodipodi.sourceforge.net/DTD/sodipodi-0.dtd"
   xmlns:inkscape="http://www.inkscape.org/namespaces/inkscape"
   width="48"
   height="48"
   id="svg5453"
   version="1.1"
   inkscape:version="0.48+devel r12510"
   sodipodi:docname="deepin-media-player.svg">
  <defs
     id="defs5455">
    <linearGradient
       inkscape:collect="always"
       xlink:href="#linearGradient4105"
       id="linearGradient4161"
       gradientUnits="userSpaceOnUse"
       x1="379.75018"
       y1="120.84629"
       x2="379.75018"
       y2="55.288342"
       gradientTransform="matrix(0.46666667,0,0,0.46666667,244.30476,482.73133)" />
    <linearGradient
       id="linearGradient4105">
      <stop
         id="stop4107"
         offset="0"
         style="stop-color:#034ab2;stop-opacity:1" />
      <stop
         id="stop4109"
         offset="1"
         style="stop-color:#66ecf7;stop-opacity:1" />
    </linearGradient>
    <linearGradient
       inkscape:collect="always"
       xlink:href="#linearGradient825"
       id="linearGradient4480"
       x1="428.95056"
       y1="-547.81207"
       x2="428.95056"
       y2="-499.80042"
       gradientUnits="userSpaceOnUse" />
    <linearGradient
       id="linearGradient825">
      <stop
         style="stop-color:#cad8e6;stop-opacity:0.99607843"
         offset="0"
         id="stop827" />
      <stop
         style="stop-color:#fcfdfe;stop-opacity:0.99803919"
         offset="1"
         id="stop829" />
    </linearGradient>
  </defs>
  <sodipodi:namedview
     id="base"
     pagecolor="#ffffff"
     bordercolor="#666666"
     borderopacity="1.0"
     inkscape:pageopacity="0"
     inkscape:pageshadow="2"
     inkscape:zoom="2.2195121"
     inkscape:cx="128.34657"
     inkscape:cy="-8.1530763"
     inkscape:document-units="px"
     inkscape:current-layer="layer1"
     showgrid="false"
     fit-margin-top="0"
     fit-margin-left="0"
     fit-margin-right="0"
     fit-margin-bottom="0"
     inkscape:window-width="1366"
     inkscape:window-height="716"
     inkscape:window-x="0"
     inkscape:window-y="28"
     inkscape:window-maximized="1" />
  <metadata
     id="metadata5458">
    <rdf:RDF>
      <cc:Work
         rdf:about="">
        <dc:format>image/svg+xml</dc:format>
        <dc:type
           rdf:resource="http://purl.org/dc/dcmitype/StillImage" />
        <dc:title></dc:title>
      </cc:Work>
    </rdf:RDF>
  </metadata>
  <g
     inkscape:label="Capa 1"
     inkscape:groupmode="layer"
     id="layer1"
     transform="translate(-384.57143,-499.798)">
    <rect
       style="fill:url(#linearGradient4480);fill-opacity:1.0;stroke:none"
       id="rect2991-1-7"
       width="48"
       height="48"
       x="384.57144"
       y="-547.79797"
       ry="1.9445436"
       transform="scale(1,-1)" />
    <path
       inkscape:connector-curvature="0"
       id="path4488"
       d="m 408.57143,509.598 c -8.50519,0 -15.4,6.89481 -15.4,15.4 0,8.50518 6.89481,15.4 15.4,15.4 2.228,0 4.34426,-0.47581 6.25625,-1.32709 l -1.32709,-2.975 c -1.50519,0.66939 -3.17559,1.03542 -4.92916,1.03542 -6.70106,0 -12.13334,-5.43228 -12.13334,-12.13333 0,-6.70106 5.43228,-12.13334 12.13334,-12.13334 6.70105,0 12.13333,5.43228 12.13333,12.13334 l 3.26667,0 c 0,-8.50519 -6.89482,-15.4 -15.4,-15.4 z m -3.26667,7.46666 c 0,0 -2.33333,0 -2.33333,2.33334 l 0,12.6 3.26666,0 0,-2.8 0,-1.86667 0,-6.53333 c 0,-0.32254 0.005,-0.46584 0.46667,-0.45209 0.20691,0.006 0.50094,-0.0146 0.93333,-0.0146 2.83276,10e-6 5.13332,0.99272 5.13334,4.2 -1e-5,2.60187 -0.93334,3.73333 -3.73334,4.2 l 0,3.26667 c 4.50005,-0.0877 7.17413,-3.87921 7,-7.46667 -0.17412,-3.58746 -2.8,-7.46667 -8.50208,-7.46667 l -2.23125,0 z m 16.7125,9.39167 c -0.75947,-0.019 -1.44119,0.49967 -1.61875,1.26875 -0.20292,0.87895 0.34606,1.75125 1.225,1.95417 0.87894,0.20292 1.75125,-0.33147 1.95417,-1.21042 0.20292,-0.87894 -0.34606,-1.76583 -1.225,-1.96875 -0.10987,-0.0254 -0.22692,-0.041 -0.33542,-0.0437 z m -1.925,4.40417 c -0.52424,0.01 -1.0346,0.27091 -1.34167,0.74375 -0.4913,0.75653 -0.27528,1.76911 0.48125,2.26041 0.75654,0.49131 1.76912,0.27529 2.26042,-0.48125 0.4913,-0.75653 0.27529,-1.76911 -0.48125,-2.26041 -0.2837,-0.18424 -0.60421,-0.26822 -0.91875,-0.2625 z m -3.325,3.5 c -0.31418,0.0162 -0.61942,0.11725 -0.88958,0.32083 -0.72042,0.54288 -0.86371,1.56916 -0.32084,2.28958 0.54288,0.72043 1.56917,0.86372 2.28959,0.32084 0.72042,-0.54288 0.86371,-1.55458 0.32083,-2.275 -0.3393,-0.45027 -0.87637,-0.68331 -1.4,-0.65625 z"
       style="color:#000000;fill:#000000;fill-opacity:0.05882353;fill-rule:nonzero;stroke:none;stroke-width:3;marker:none;visibility:visible;display:inline;overflow:visible;enable-background:accumulate" />
    <path
       style="color:#000000;fill:#000000;fill-opacity:0.11764706;fill-rule:nonzero;stroke:none;stroke-width:3;marker:none;visibility:visible;display:inline;overflow:visible;enable-background:accumulate"
       d="m 408.57143,509.198 c -8.50519,0 -15.4,6.89481 -15.4,15.4 0,8.50518 6.89481,15.4 15.4,15.4 2.228,0 4.34426,-0.47581 6.25625,-1.32709 l -1.32709,-2.975 c -1.50519,0.66939 -3.17559,1.03542 -4.92916,1.03542 -6.70106,0 -12.13334,-5.43228 -12.13334,-12.13333 0,-6.70106 5.43228,-12.13334 12.13334,-12.13334 6.70105,0 12.13333,5.43228 12.13333,12.13334 l 3.26667,0 c 0,-8.50519 -6.89482,-15.4 -15.4,-15.4 z m -3.26667,7.46666 c 0,0 -2.33333,0 -2.33333,2.33334 l 0,12.6 3.26666,0 0,-2.8 0,-1.86667 0,-6.53333 c 0,-0.32254 0.005,-0.46584 0.46667,-0.45209 0.20691,0.006 0.50094,-0.0146 0.93333,-0.0146 2.83276,10e-6 5.13332,0.99272 5.13334,4.2 -1e-5,2.60187 -0.93334,3.73333 -3.73334,4.2 l 0,3.26667 c 4.50005,-0.0877 7.17413,-3.87921 7,-7.46667 -0.17412,-3.58746 -2.8,-7.46667 -8.50208,-7.46667 l -2.23125,0 z m 16.7125,9.39167 c -0.75947,-0.019 -1.44119,0.49967 -1.61875,1.26875 -0.20292,0.87895 0.34606,1.75125 1.225,1.95417 0.87894,0.20292 1.75125,-0.33147 1.95417,-1.21042 0.20292,-0.87894 -0.34606,-1.76583 -1.225,-1.96875 -0.10987,-0.0254 -0.22692,-0.041 -0.33542,-0.0437 z m -1.925,4.40417 c -0.52424,0.01 -1.0346,0.27091 -1.34167,0.74375 -0.4913,0.75653 -0.27528,1.76911 0.48125,2.26041 0.75654,0.49131 1.76912,0.27529 2.26042,-0.48125 0.4913,-0.75653 0.27529,-1.76911 -0.48125,-2.26041 -0.2837,-0.18424 -0.60421,-0.26822 -0.91875,-0.2625 z m -3.325,3.5 c -0.31418,0.0162 -0.61942,0.11725 -0.88958,0.32083 -0.72042,0.54288 -0.86371,1.56916 -0.32084,2.28958 0.54288,0.72043 1.56917,0.86372 2.28959,0.32084 0.72042,-0.54288 0.86371,-1.55458 0.32083,-2.275 -0.3393,-0.45027 -0.87637,-0.68331 -1.4,-0.65625 z"
       id="path4486"
       inkscape:connector-curvature="0" />
    <path
       inkscape:connector-curvature="0"
       id="path4482"
       d="m 408.57143,508.798 c -8.50519,0 -15.4,6.89481 -15.4,15.4 0,8.50518 6.89481,15.4 15.4,15.4 2.228,0 4.34426,-0.47581 6.25625,-1.32709 l -1.32709,-2.975 c -1.50519,0.66939 -3.17559,1.03542 -4.92916,1.03542 -6.70106,0 -12.13334,-5.43228 -12.13334,-12.13333 0,-6.70106 5.43228,-12.13334 12.13334,-12.13334 6.70105,0 12.13333,5.43228 12.13333,12.13334 l 3.26667,0 c 0,-8.50519 -6.89482,-15.4 -15.4,-15.4 z m -3.26667,7.46666 c 0,0 -2.33333,0 -2.33333,2.33334 l 0,12.6 3.26666,0 0,-2.8 0,-1.86667 0,-6.53333 c 0,-0.32254 0.005,-0.46584 0.46667,-0.45209 0.20691,0.006 0.50094,-0.0146 0.93333,-0.0146 2.83276,1e-5 5.13332,0.99272 5.13334,4.2 -1e-5,2.60187 -0.93334,3.73333 -3.73334,4.2 l 0,3.26667 c 4.50005,-0.0877 7.17413,-3.87921 7,-7.46667 -0.17412,-3.58746 -2.8,-7.46667 -8.50208,-7.46667 l -2.23125,0 z m 16.7125,9.39167 c -0.75947,-0.019 -1.44119,0.49967 -1.61875,1.26875 -0.20292,0.87895 0.34606,1.75125 1.225,1.95417 0.87894,0.20292 1.75125,-0.33147 1.95417,-1.21042 0.20292,-0.87894 -0.34606,-1.76583 -1.225,-1.96875 -0.10987,-0.0254 -0.22692,-0.041 -0.33542,-0.0437 z m -1.925,4.40417 c -0.52424,0.01 -1.0346,0.27091 -1.34167,0.74375 -0.4913,0.75653 -0.27528,1.76911 0.48125,2.26041 0.75654,0.49131 1.76912,0.27529 2.26042,-0.48125 0.4913,-0.75653 0.27529,-1.76911 -0.48125,-2.26041 -0.2837,-0.18424 -0.60421,-0.26822 -0.91875,-0.2625 z m -3.325,3.5 c -0.31418,0.0162 -0.61942,0.11725 -0.88958,0.32083 -0.72042,0.54288 -0.86371,1.56916 -0.32084,2.28958 0.54288,0.72043 1.56917,0.86372 2.28959,0.32084 0.72042,-0.54288 0.86371,-1.55458 0.32083,-2.275 -0.3393,-0.45027 -0.87637,-0.68331 -1.4,-0.65625 z"
       style="color:#000000;fill:#000000;fill-opacity:0.23529412;fill-rule:nonzero;stroke:none;stroke-width:3;marker:none;visibility:visible;display:inline;overflow:visible;enable-background:accumulate" />
    <path
       inkscape:connector-curvature="0"
       style="fill:#000000;fill-opacity:1;stroke:none"
       d="m 384.57143,544.79799 0,1.0625 c 0,1.0773 0.86022,1.9375 1.9375,1.9375 l 44.125,0 c 1.07728,0 1.9375,-0.8602 1.9375,-1.9375 l 0,-1.0625 c 0,1.0773 -0.86022,1.9375 -1.9375,1.9375 l -44.125,0 C 385.43165,546.73549 384.57143,545.87529 384.57143,544.79799 Z"
       id="rect846" />
    <path
       inkscape:connector-curvature="0"
       style="fill:#ffffff;fill-opacity:0.5372549;stroke:none"
       d="m 387.10268,500.45429 c -0.91709,0 -1.67115,0.6395 -1.84375,1.5 0.33561,-0.2799 0.77451,-0.4375 1.25,-0.4375 l 44.125,0 c 0.47549,0 0.91439,0.1576 1.25,0.4375 -0.1726,-0.8605 -0.92666,-1.5 -1.84375,-1.5 L 387.10268,500.45429 Z"
       id="path7515" />
    <path
       inkscape:connector-curvature="0"
       style="fill:#000000;fill-opacity:0.39215686;stroke:none"
       d="m 386.50893,499.79799 c -1.07728,0 -1.9375,0.8602 -1.9375,1.9375 l 0,43.0625 c 0,0.7934 0.48002,1.449 1.15625,1.75 -0.30934,-0.3333 -0.5,-0.7824 -0.5,-1.2812 l 0,-42.9375 c 0,-1.0482 0.8269,-1.875 1.875,-1.875 l 42.9375,0 c 1.0481,0 1.875,0.8268 1.875,1.875 l 0,42.9375 c 0,0.4988 -0.19066,0.9479 -0.5,1.2812 0.67623,-0.301 1.15625,-0.9566 1.15625,-1.75 l 0,-43.0625 c 0,-1.0773 -0.86022,-1.9375 -1.9375,-1.9375 L 386.50893,499.79799 Z"
       id="rect4280" />
    <path
       style="color:#000000;fill:url(#linearGradient4161);fill-opacity:1;fill-rule:nonzero;stroke:none;stroke-width:3;marker:none;visibility:visible;display:inline;overflow:visible;enable-background:accumulate"
       d="m 408.57143,508.398 c -8.50519,0 -15.4,6.89481 -15.4,15.4 0,8.50518 6.89481,15.4 15.4,15.4 2.228,0 4.34426,-0.47581 6.25625,-1.32709 l -1.32709,-2.975 c -1.50519,0.66939 -3.17559,1.03542 -4.92916,1.03542 -6.70106,0 -12.13334,-5.43228 -12.13334,-12.13333 0,-6.70106 5.43228,-12.13334 12.13334,-12.13334 6.70105,0 12.13333,5.43228 12.13333,12.13334 l 3.26667,0 c 0,-8.50519 -6.89482,-15.4 -15.4,-15.4 z m -3.26667,7.46666 c 0,0 -2.33333,0 -2.33333,2.33334 l 0,12.6 3.26666,0 0,-2.8 0,-1.86667 0,-6.53333 c 0,-0.32254 0.005,-0.46584 0.46667,-0.45209 0.20691,0.006 0.50094,-0.0146 0.93333,-0.0146 2.83276,10e-6 5.13332,0.99272 5.13334,4.2 -1e-5,2.60187 -0.93334,3.73333 -3.73334,4.2 l 0,3.26667 c 4.50005,-0.0877 7.17413,-3.87921 7,-7.46667 -0.17412,-3.58746 -2.8,-7.46667 -8.50208,-7.46667 l -2.23125,0 z m 16.7125,9.39167 c -0.75947,-0.019 -1.44119,0.49967 -1.61875,1.26875 -0.20292,0.87895 0.34606,1.75125 1.225,1.95417 0.87894,0.20292 1.75125,-0.33147 1.95417,-1.21042 0.20292,-0.87894 -0.34606,-1.76583 -1.225,-1.96875 -0.10987,-0.0254 -0.22692,-0.041 -0.33542,-0.0437 z m -1.925,4.40417 c -0.52424,0.01 -1.0346,0.27091 -1.34167,0.74375 -0.4913,0.75653 -0.27528,1.76911 0.48125,2.26041 0.75654,0.49131 1.76912,0.27529 2.26042,-0.48125 0.4913,-0.75653 0.27529,-1.76911 -0.48125,-2.26041 -0.2837,-0.18424 -0.60421,-0.26822 -0.91875,-0.2625 z m -3.325,3.5 c -0.31418,0.0162 -0.61942,0.11725 -0.88958,0.32083 -0.72042,0.54288 -0.86371,1.56916 -0.32084,2.28958 0.54288,0.72043 1.56917,0.86372 2.28959,0.32084 0.72042,-0.54288 0.86371,-1.55458 0.32083,-2.275 -0.3393,-0.45027 -0.87637,-0.68331 -1.4,-0.65625 z"
       id="path4155"
       inkscape:connector-curvature="0" />
    <path
       style="color:#000000;fill:#000000;fill-opacity:0.3137255;fill-rule:nonzero;stroke:none;stroke-width:3;marker:none;visibility:visible;display:inline;overflow:visible;enable-background:accumulate"
       d="M 24 11.066406 C 17.29894 11.066406 11.867188 16.498159 11.867188 23.199219 C 11.867188 23.334204 11.882344 23.465688 11.886719 23.599609 C 12.099834 17.085571 17.434137 11.867188 24 11.867188 C 30.70105 11.867188 36.132812 17.29894 36.132812 24 L 39.400391 24 C 39.400391 23.729591 39.373144 23.466202 39.359375 23.199219 L 36.132812 23.199219 C 36.132812 16.498159 30.70105 11.066406 24 11.066406 z M 23.066406 18.533203 C 22.634016 18.533203 22.339722 18.554828 22.132812 18.548828 C 21.671142 18.535078 21.666016 18.67746 21.666016 19 L 21.666016 19.800781 C 21.666016 19.478241 21.671142 19.333906 22.132812 19.347656 C 22.339722 19.353656 22.634016 19.333984 23.066406 19.333984 C 25.76892 19.333994 27.98141 20.24138 28.179688 23.109375 C 28.184822 22.982431 28.199218 22.867138 28.199219 22.732422 C 28.199199 19.525142 25.899166 18.533213 23.066406 18.533203 z M 31.460938 23.46875 C 31.265964 26.820798 28.660253 30.117494 24.466797 30.199219 L 24.466797 31 C 28.966847 30.9123 31.640927 27.120663 31.466797 23.533203 C 31.465759 23.511821 31.46215 23.490152 31.460938 23.46875 z M 8.6191406 23.599609 C 8.615678 23.733962 8.5996094 23.864812 8.5996094 24 C 8.5996094 32.50518 15.49481 39.400391 24 39.400391 C 26.228 39.400391 28.343869 38.923546 30.255859 38.072266 L 29.951172 37.390625 C 28.118367 38.160694 26.112625 38.599609 24 38.599609 C 15.629831 38.599609 8.833266 31.918141 8.6191406 23.599609 z M 35.839844 26.685547 C 35.836183 26.699719 35.829484 26.712215 35.826172 26.726562 C 35.623252 27.605513 36.173794 28.478721 37.052734 28.681641 C 37.931674 28.884561 38.802939 28.349653 39.005859 27.470703 C 39.065869 27.210772 39.052783 26.95241 38.992188 26.708984 C 38.772037 27.563552 37.917966 28.080615 37.052734 27.880859 C 36.433659 27.737934 35.984097 27.261056 35.839844 26.685547 z M 18.400391 30.199219 L 18.400391 31 L 21.666016 31 L 21.666016 30.199219 L 18.400391 30.199219 z M 37.128906 31.09375 C 37.086199 31.263623 37.020616 31.430884 36.919922 31.585938 C 36.428622 32.342478 35.416696 32.557716 34.660156 32.066406 C 34.302244 31.833974 34.07095 31.483078 33.972656 31.099609 C 33.807834 31.758125 34.059179 32.476905 34.660156 32.867188 C 35.416696 33.358497 36.428622 33.141306 36.919922 32.384766 C 37.178412 31.986729 37.237718 31.520332 37.128906 31.09375 z M 33.869141 34.582031 C 33.782733 34.931924 33.587904 35.258643 33.275391 35.494141 C 32.554971 36.037021 31.529208 35.894258 30.986328 35.173828 C 30.853601 34.997692 30.761273 34.80273 30.708984 34.601562 C 30.596727 35.061933 30.679268 35.565169 30.986328 35.972656 C 31.529208 36.693086 32.554971 36.835849 33.275391 36.292969 C 33.821621 35.881351 34.034005 35.201369 33.869141 34.582031 z "
       transform="translate(384.57143,499.798)"
       id="path4490" />
    <path
       style="color:#000000;fill:#ffffff;fill-opacity:0.23529412;fill-rule:nonzero;stroke:none;stroke-width:3;marker:none;visibility:visible;display:inline;overflow:visible;enable-background:accumulate"
       d="M 24 8.5996094 C 15.49481 8.5996094 8.5996094 15.49481 8.5996094 24 C 8.5996094 24.067265 8.6085151 24.132158 8.609375 24.199219 C 8.7182855 15.787801 15.562733 9 24 9 C 32.369993 9 39.166475 15.681691 39.380859 24 L 39.400391 24 C 39.400391 15.49481 32.50518 8.5996094 24 8.5996094 z M 20.732422 16.066406 C 20.732422 16.066406 18.400391 16.067051 18.400391 18.400391 L 18.400391 18.800781 C 18.400391 16.467441 20.732422 16.466797 20.732422 16.466797 L 22.964844 16.466797 C 28.666924 16.466797 31.292677 20.346134 31.466797 23.933594 C 31.468134 23.800001 31.473264 23.666433 31.466797 23.533203 C 31.292677 19.945743 28.666924 16.066406 22.964844 16.066406 L 20.732422 16.066406 z M 28.189453 23.722656 C 28.141416 26.182518 27.193779 27.277922 24.466797 27.732422 L 24.466797 28.132812 C 27.266797 27.666142 28.199209 26.535464 28.199219 23.933594 C 28.199218 23.8602 28.191842 23.793746 28.189453 23.722656 z M 11.876953 24.199219 C 11.875841 24.266881 11.867188 24.332463 11.867188 24.400391 C 11.867188 31.101441 17.29894 36.533203 24 36.533203 C 25.75357 36.533203 27.424497 36.167437 28.929688 35.498047 L 30.103516 38.130859 C 30.153293 38.109323 30.206354 38.094307 30.255859 38.072266 L 28.929688 35.097656 C 27.424497 35.767046 25.75357 36.132812 24 36.132812 C 17.36621 36.132812 11.984509 30.807366 11.876953 24.199219 z M 37.445312 25.458984 C 36.685842 25.439984 36.003732 25.957483 35.826172 26.726562 C 35.78086 26.922831 35.777761 27.118414 35.802734 27.306641 C 35.809714 27.24671 35.812272 27.18716 35.826172 27.126953 C 36.003732 26.357873 36.685842 25.838422 37.445312 25.857422 C 37.553812 25.860122 37.67138 25.876944 37.78125 25.902344 C 38.465096 26.060223 38.943649 26.6329 39.029297 27.292969 C 39.125344 26.475501 38.600671 25.691132 37.78125 25.501953 C 37.67138 25.476553 37.553812 25.461684 37.445312 25.458984 z M 35.521484 29.863281 C 34.997244 29.873281 34.486758 30.132629 34.179688 30.605469 C 33.962427 30.940018 33.890593 31.323935 33.935547 31.691406 C 33.96518 31.45427 34.040854 31.219643 34.179688 31.005859 C 34.486758 30.533019 34.997244 30.271719 35.521484 30.261719 C 35.836024 30.255999 36.155753 30.341151 36.439453 30.525391 C 36.864126 30.801175 37.111482 31.242183 37.166016 31.708984 C 37.245315 31.103936 36.985115 30.479355 36.439453 30.125 C 36.155753 29.94076 35.836024 29.857561 35.521484 29.863281 z M 32.195312 33.363281 C 31.881132 33.379481 31.576801 33.480014 31.306641 33.683594 C 30.83103 34.041995 30.613036 34.609434 30.671875 35.162109 C 30.729891 34.747627 30.946431 34.355424 31.306641 34.083984 C 31.576801 33.880404 31.881132 33.777919 32.195312 33.761719 C 32.718942 33.734659 33.256403 33.967699 33.595703 34.417969 C 33.778794 34.660936 33.877024 34.938679 33.908203 35.21875 C 33.965048 34.809064 33.866291 34.378611 33.595703 34.019531 C 33.256403 33.569261 32.718942 33.336221 32.195312 33.363281 z "
       transform="translate(384.57143,499.798)"
       id="path4495" />
  </g>
</svg>
