<?xml version="1.0" encoding="UTF-8" standalone="no"?>
<!-- Created with Inkscape (http://www.inkscape.org/) -->

<svg
   xmlns:dc="http://purl.org/dc/elements/1.1/"
   xmlns:cc="http://creativecommons.org/ns#"
   xmlns:rdf="http://www.w3.org/1999/02/22-rdf-syntax-ns#"
   xmlns:svg="http://www.w3.org/2000/svg"
   xmlns="http://www.w3.org/2000/svg"
   xmlns:xlink="http://www.w3.org/1999/xlink"
   xmlns:sodipodi="http://sodipodi.sourceforge.net/DTD/sodipodi-0.dtd"
   xmlns:inkscape="http://www.inkscape.org/namespaces/inkscape"
   width="48"
   height="48"
   id="svg5453"
   version="1.1"
   inkscape:version="0.91pre2 r"
   sodipodi:docname="desktop-enviroment-lxde.svg">
  <defs
     id="defs5455">
    <linearGradient
       inkscape:collect="always"
       id="linearGradient4419">
      <stop
         style="stop-color:#ccd6ec;stop-opacity:1"
         offset="0"
         id="stop4421" />
      <stop
         style="stop-color:#f7fafd;stop-opacity:1"
         offset="1"
         id="stop4423" />
    </linearGradient>
    <linearGradient
       y2="-1004.7695"
       x2="-13.025376"
       y1="-1052.8632"
       x1="-13.025376"
       gradientTransform="translate(432.1173,504.8513)"
       gradientUnits="userSpaceOnUse"
       id="linearGradient4264"
       xlink:href="#linearGradient891"
       inkscape:collect="always" />
    <linearGradient
       id="linearGradient891"
       inkscape:collect="always">
      <stop
         id="stop893"
         offset="0"
         style="stop-color:#294172;stop-opacity:1" />
      <stop
         id="stop895"
         offset="1"
         style="stop-color:#3c6eb4;stop-opacity:1" />
    </linearGradient>
    <linearGradient
       inkscape:collect="always"
       xlink:href="#linearGradient4419"
       id="linearGradient4417"
       x1="410.92633"
       y1="539.13855"
       x2="410.92633"
       y2="508.34094"
       gradientUnits="userSpaceOnUse" />
  </defs>
  <sodipodi:namedview
     id="base"
     pagecolor="#ffffff"
     bordercolor="#666666"
     borderopacity="1.0"
     inkscape:pageopacity="0"
     inkscape:pageshadow="2"
     inkscape:zoom="18.781128"
     inkscape:cx="24.670281"
     inkscape:cy="37.302325"
     inkscape:document-units="px"
     inkscape:current-layer="layer1"
     showgrid="false"
     fit-margin-top="0"
     fit-margin-left="0"
     fit-margin-right="0"
     fit-margin-bottom="0"
     inkscape:window-width="1366"
     inkscape:window-height="672"
     inkscape:window-x="-4"
     inkscape:window-y="25"
     inkscape:window-maximized="1" />
  <metadata
     id="metadata5458">
    <rdf:RDF>
      <cc:Work
         rdf:about="">
        <dc:format>image/svg+xml</dc:format>
        <dc:type
           rdf:resource="http://purl.org/dc/dcmitype/StillImage" />
        <dc:title />
      </cc:Work>
    </rdf:RDF>
  </metadata>
  <g
     inkscape:label="Capa 1"
     inkscape:groupmode="layer"
     id="layer1"
     transform="translate(-384.57143,-499.798)">
    <rect
       transform="scale(1,-1)"
       ry="1.9445436"
       y="-547.79797"
       x="384.57144"
       height="48"
       width="48"
       id="rect4256"
       style="fill:url(#linearGradient4264);fill-opacity:1.0;stroke:none" />
    <path
       id="path4431"
       d="m 416.25095,521.48668 c -1.89035,-2.19565 -3.58949,-3.61365 -6.1061,0.0808 -1.50407,2.19566 -10.49254,14.79211 -12.14162,16.79784 -0.48125,0.58132 -0.7623,0.98298 -1.12805,1.22295 0,-0.79691 6.21133,-10.92309 7.94512,-13.85533 2.09055,-3.52383 2.0251,-3.31851 1.77485,-3.31851 -0.35549,0 -1.07287,0.5364 -2.17012,1.73882 -1.99558,2.19052 -7.91047,10.35588 -8.32113,10.23141 0.13988,-0.59159 4.77271,-7.89974 6.87225,-10.92309 1.8095,-2.6063 1.11778,-2.80777 0.0808,-2.55112 -4.42109,1.08821 -9.71484,3.7099 -9.88552,3.61365 0.0654,-0.13473 17.82165,-12.98271 20.1971,-13.2291 0.27592,-0.0295 0.85727,-0.53639 1.89548,-0.96243 1.12805,-0.45556 1.88522,-0.83156 2.07515,-0.71221 -0.82775,1.18829 -1.25766,1.42826 -1.26793,1.80938 -0.0103,0.62624 -0.22587,1.63873 -0.46585,1.96467 4.59177,3.14783 6.38202,13.87074 7.68973,22.50193 0.31057,2.0455 0.60189,3.58926 0.67632,4.50166 -0.38628,-1.02789 -4.05533,-14.65736 -7.72567,-18.91265 m 0,0"
       inkscape:connector-curvature="0"
       style="fill:#000000;fill-opacity:0.05882353;fill-rule:nonzero;stroke:none" />
    <path
       style="fill:#000000;fill-opacity:0.11764706;fill-rule:nonzero;stroke:none"
       inkscape:connector-curvature="0"
       d="m 416.25095,521.08668 c -1.89035,-2.19565 -3.58949,-3.61365 -6.1061,0.0808 -1.50407,2.19566 -10.49254,14.79211 -12.14162,16.79784 -0.48125,0.58132 -0.7623,0.98298 -1.12805,1.22295 0,-0.79691 6.21133,-10.92309 7.94512,-13.85533 2.09055,-3.52383 2.0251,-3.31851 1.77485,-3.31851 -0.35549,0 -1.07287,0.5364 -2.17012,1.73882 -1.99558,2.19052 -7.91047,10.35588 -8.32113,10.23141 0.13988,-0.59159 4.77271,-7.89974 6.87225,-10.92309 1.8095,-2.6063 1.11778,-2.80777 0.0808,-2.55112 -4.42109,1.08821 -9.71484,3.7099 -9.88552,3.61365 0.0654,-0.13473 17.82165,-12.98271 20.1971,-13.2291 0.27592,-0.0295 0.85727,-0.53639 1.89548,-0.96243 1.12805,-0.45556 1.88522,-0.83156 2.07515,-0.71221 -0.82775,1.18829 -1.25766,1.42826 -1.26793,1.80938 -0.0103,0.62624 -0.22587,1.63873 -0.46585,1.96467 4.59177,3.14783 6.38202,13.87074 7.68973,22.50193 0.31057,2.0455 0.60189,3.58926 0.67632,4.50166 -0.38628,-1.02789 -4.05533,-14.65736 -7.72567,-18.91265 m 0,0"
       id="path4429" />
    <path
       id="path4425"
       d="m 416.25095,520.68668 c -1.89035,-2.19565 -3.58949,-3.61365 -6.1061,0.0808 -1.50407,2.19566 -10.49254,14.79211 -12.14162,16.79784 -0.48125,0.58132 -0.7623,0.98298 -1.12805,1.22295 0,-0.79691 6.21133,-10.92309 7.94512,-13.85533 2.09055,-3.52383 2.0251,-3.31851 1.77485,-3.31851 -0.35549,0 -1.07287,0.5364 -2.17012,1.73882 -1.99558,2.19052 -7.91047,10.35588 -8.32113,10.23141 0.13988,-0.59159 4.77271,-7.89974 6.87225,-10.92309 1.8095,-2.6063 1.11778,-2.80777 0.0808,-2.55112 -4.42109,1.08821 -9.71484,3.7099 -9.88552,3.61365 0.0654,-0.13473 17.82165,-12.98271 20.1971,-13.2291 0.27592,-0.0295 0.85727,-0.53639 1.89548,-0.96243 1.12805,-0.45556 1.88522,-0.83156 2.07515,-0.71221 -0.82775,1.18829 -1.25766,1.42826 -1.26793,1.80938 -0.0103,0.62624 -0.22587,1.63873 -0.46585,1.96467 4.59177,3.14783 6.38202,13.87074 7.68973,22.50193 0.31057,2.0455 0.60189,3.58926 0.67632,4.50166 -0.38628,-1.02789 -4.05533,-14.65736 -7.72567,-18.91265 m 0,0"
       inkscape:connector-curvature="0"
       style="fill:#000000;fill-opacity:0.23529412;fill-rule:nonzero;stroke:none" />
    <path
       id="path4258"
       d="m 384.57142,544.798 0,1.0625 c 0,1.0773 0.86022,1.9375 1.9375,1.9375 l 44.125,0 c 1.07728,0 1.9375,-0.8602 1.9375,-1.9375 l 0,-1.0625 c 0,1.0773 -0.86022,1.9375 -1.9375,1.9375 l -44.125,0 c -1.07728,0 -1.9375,-0.8602 -1.9375,-1.9375 z"
       style="fill:#000000;fill-opacity:1;stroke:none"
       inkscape:connector-curvature="0" />
    <path
       id="path4260"
       d="m 387.10267,500.4543 c -0.91709,0 -1.67115,0.6395 -1.84375,1.5 0.33561,-0.2799 0.77451,-0.4375 1.25,-0.4375 l 44.125,0 c 0.47549,0 0.91439,0.1576 1.25,0.4375 -0.1726,-0.8605 -0.92666,-1.5 -1.84375,-1.5 l -42.9375,0 z"
       style="fill:#ffffff;fill-opacity:0.5372549;stroke:none"
       inkscape:connector-curvature="0" />
    <path
       id="path4262"
       d="m 386.50892,499.798 c -1.07728,0 -1.9375,0.8602 -1.9375,1.9375 l 0,43.0625 c 0,0.7934 0.48002,1.449 1.15625,1.75 -0.30934,-0.3333 -0.5,-0.7824 -0.5,-1.2812 l 0,-42.9375 c 0,-1.0482 0.8269,-1.875 1.875,-1.875 l 42.9375,0 c 1.0481,0 1.875,0.8268 1.875,1.875 l 0,42.9375 c 0,0.4988 -0.19066,0.9479 -0.5,1.2812 0.67623,-0.301 1.15625,-0.9566 1.15625,-1.75 l 0,-43.0625 c 0,-1.0773 -0.86022,-1.9375 -1.9375,-1.9375 l -44.125,0 z"
       style="fill:#000000;fill-opacity:0.39215686;stroke:none"
       inkscape:connector-curvature="0" />
    <g
       id="g4317"
       transform="translate(329.04895,505.22607)" />
    <path
       style="fill:url(#linearGradient4417);fill-opacity:1;fill-rule:nonzero;stroke:none"
       inkscape:connector-curvature="0"
       d="m 416.25095,520.28668 c -1.89035,-2.19565 -3.58949,-3.61365 -6.1061,0.0808 -1.50407,2.19566 -10.49254,14.79211 -12.14162,16.79784 -0.48125,0.58132 -0.7623,0.98298 -1.12805,1.22295 0,-0.79691 6.21133,-10.92309 7.94512,-13.85533 2.09055,-3.52383 2.0251,-3.31851 1.77485,-3.31851 -0.35549,0 -1.07287,0.5364 -2.17012,1.73882 -1.99558,2.19052 -7.91047,10.35588 -8.32113,10.23141 0.13988,-0.59159 4.77271,-7.89974 6.87225,-10.92309 1.8095,-2.6063 1.11778,-2.80777 0.0808,-2.55112 -4.42109,1.08821 -9.71484,3.7099 -9.88552,3.61365 0.0654,-0.13473 17.82165,-12.98271 20.1971,-13.2291 0.27592,-0.0295 0.85727,-0.53639 1.89548,-0.96243 1.12805,-0.45556 1.88522,-0.83156 2.07515,-0.71221 -0.82775,1.18829 -1.25766,1.42826 -1.26793,1.80938 -0.0103,0.62624 -0.22587,1.63873 -0.46585,1.96467 4.59177,3.14783 6.38202,13.87074 7.68973,22.50193 0.31057,2.0455 0.60189,3.58926 0.67632,4.50166 -0.38628,-1.02789 -4.05533,-14.65736 -7.72567,-18.91265 m 0,0"
       id="path4337-0" />
    <path
       style="fill:#2b467a;fill-opacity:0.3137255;fill-rule:nonzero;stroke:none"
       d="M 32.521484 8.6191406 C 32.397694 8.6466045 32.225878 8.7093516 32.03125 8.7851562 C 31.698854 9.1834366 31.506453 9.3913888 31.5 9.6308594 C 31.4897 10.257099 31.273183 11.269763 31.033203 11.595703 C 31.117591 11.653554 31.194834 11.732014 31.277344 11.794922 C 31.401762 11.36182 31.493504 10.826592 31.5 10.431641 C 31.51027 10.050521 31.939828 9.8113369 32.767578 8.6230469 C 32.720096 8.5932094 32.636804 8.5935561 32.521484 8.6191406 z M 28.492188 17.494141 C 27.619641 17.51635 26.675236 18.153209 25.574219 19.769531 C 24.070149 21.965191 15.080721 34.560676 13.431641 36.566406 C 13.250654 36.785027 13.11412 36.95429 12.974609 37.123047 C 12.585388 37.85877 12.304688 38.435304 12.304688 38.589844 C 12.670437 38.349874 12.950391 37.948508 13.431641 37.367188 C 15.080721 35.361458 24.070149 22.765972 25.574219 20.570312 C 28.090829 16.875863 29.789337 18.292631 31.679688 20.488281 L 31.673828 20.488281 C 35.344168 24.743571 39.014111 38.372501 39.400391 39.400391 C 39.370855 39.03833 39.286664 38.50397 39.201172 37.951172 C 38.488256 35.672836 35.130764 23.695375 31.673828 19.6875 L 31.679688 19.689453 C 30.616366 18.4544 29.614033 17.465586 28.492188 17.494141 z M 19.164062 19.037109 C 18.981662 19.01359 18.745573 19.049119 18.486328 19.113281 C 15.834519 19.765999 12.995649 20.921075 11.009766 21.759766 C 9.7268116 22.685654 8.6134372 23.496904 8.5996094 23.525391 C 8.7702894 23.621641 14.065238 21.000319 18.486328 19.912109 C 18.880127 19.814645 19.220342 19.78645 19.396484 19.927734 C 19.61919 19.330243 19.491185 19.07929 19.164062 19.037109 z M 22.105469 20.615234 C 22.083813 20.613966 22.054719 20.617188 22.023438 20.617188 C 21.667948 20.617188 20.950766 21.153049 19.853516 22.355469 C 18.311064 24.048596 14.452056 29.272409 12.578125 31.517578 C 11.995737 32.483832 11.57209 33.222258 11.533203 33.386719 C 11.943863 33.511189 17.857936 25.344817 19.853516 23.154297 C 20.666245 22.263669 21.268656 21.743753 21.671875 21.53125 C 21.988908 20.986062 22.18719 20.62002 22.105469 20.615234 z "
       transform="translate(384.57143,499.798)"
       id="path4433" />
    <path
       style="fill:#ffffff;fill-opacity:0.23529412;fill-rule:nonzero;stroke:none"
       d="M 32.521484 8.6191406 C 32.175526 8.6958942 31.539397 8.9923144 30.693359 9.3339844 C 29.655149 9.7600244 29.072795 10.267375 28.796875 10.296875 C 26.421425 10.543265 8.6650094 23.390661 8.5996094 23.525391 C 8.6446495 23.55079 9.0781997 23.374619 9.7265625 23.099609 C 12.64618 20.93605 26.656253 10.919298 28.796875 10.697266 C 29.072795 10.667766 29.655149 10.160415 30.693359 9.734375 C 31.496793 9.4099104 32.098865 9.1345387 32.455078 9.0410156 C 32.557209 8.9065726 32.649075 8.7931659 32.767578 8.6230469 C 32.720096 8.5932094 32.636804 8.5935561 32.521484 8.6191406 z M 31.171875 12.509766 C 31.127168 12.62171 31.081332 12.731506 31.033203 12.796875 C 35.624973 15.944705 37.416899 26.667638 38.724609 35.298828 C 38.973559 36.938479 39.178366 38.148064 39.300781 39.076172 C 39.317465 39.126769 39.389168 39.370528 39.400391 39.400391 C 39.325961 38.487991 39.035179 36.943937 38.724609 34.898438 C 37.430572 26.35749 35.657917 15.780383 31.171875 12.509766 z M 19.486328 20.474609 C 19.389358 20.879553 19.068227 21.506604 18.404297 22.462891 C 16.304757 25.486241 11.673083 32.795129 11.533203 33.386719 C 11.577891 33.400264 11.69647 33.299172 11.859375 33.134766 C 12.951565 31.182368 16.602415 25.458002 18.404297 22.863281 C 19.355432 21.493321 19.604218 20.79842 19.486328 20.474609 z M 22.105469 21.814453 C 22.083813 21.813185 22.054719 21.816406 22.023438 21.816406 C 22.008364 21.816406 21.983173 21.832046 21.966797 21.833984 C 21.743418 22.236017 21.265324 23.019652 20.248047 24.734375 C 18.514257 27.666615 12.304688 37.792934 12.304688 38.589844 C 12.377621 38.541992 12.445215 38.482729 12.513672 38.421875 C 13.585413 36.104628 18.698454 27.755485 20.248047 25.134766 C 22.077278 22.051414 22.257062 21.823331 22.105469 21.814453 z "
       transform="translate(384.57143,499.798)"
       id="path4438" />
  </g>
</svg>
