<?xml version="1.0" encoding="UTF-8" standalone="no"?>
<!-- Created with Inkscape (http://www.inkscape.org/) -->

<svg
   xmlns:dc="http://purl.org/dc/elements/1.1/"
   xmlns:cc="http://creativecommons.org/ns#"
   xmlns:rdf="http://www.w3.org/1999/02/22-rdf-syntax-ns#"
   xmlns:svg="http://www.w3.org/2000/svg"
   xmlns="http://www.w3.org/2000/svg"
   xmlns:xlink="http://www.w3.org/1999/xlink"
   xmlns:sodipodi="http://sodipodi.sourceforge.net/DTD/sodipodi-0.dtd"
   xmlns:inkscape="http://www.inkscape.org/namespaces/inkscape"
   width="48"
   height="48"
   id="svg2"
   version="1.1"
   inkscape:version="0.48+devel r12487"
   sodipodi:docname="wmtweaks.svg">
  <defs
     id="defs4">
    <linearGradient
       inkscape:collect="always"
       id="linearGradient1485">
      <stop
         style="stop-color:#000000;stop-opacity:1;"
         offset="0"
         id="stop1487" />
      <stop
         style="stop-color:#000000;stop-opacity:0;"
         offset="1"
         id="stop1489" />
    </linearGradient>
    <linearGradient
       inkscape:collect="always"
       id="linearGradient1469">
      <stop
         style="stop-color:#ffffff;stop-opacity:1;"
         offset="0"
         id="stop1471" />
      <stop
         style="stop-color:#ffffff;stop-opacity:0;"
         offset="1"
         id="stop1473" />
    </linearGradient>
    <linearGradient
       inkscape:collect="always"
       id="linearGradient1434">
      <stop
         style="stop-color:#f3f3f3;stop-opacity:1"
         offset="0"
         id="stop1436" />
      <stop
         style="stop-color:#ededed;stop-opacity:1"
         offset="1"
         id="stop1438" />
    </linearGradient>
    <linearGradient
       id="linearGradient3795">
      <stop
         style="stop-color:#adaeae;stop-opacity:1"
         offset="0"
         id="stop3797" />
      <stop
         id="stop3832"
         offset="0.47395626"
         style="stop-color:#ffffff;stop-opacity:1" />
      <stop
         style="stop-color:#f0f0f0;stop-opacity:1"
         offset="1"
         id="stop3799" />
    </linearGradient>
    <linearGradient
       inkscape:collect="always"
       xlink:href="#linearGradient3795"
       id="linearGradient852"
       x1="23.398647"
       y1="1015.8618"
       x2="23.398647"
       y2="1045.6122"
       gradientUnits="userSpaceOnUse"
       gradientTransform="matrix(0.84859218,0,0,0.84859218,3.6337877,155.70188)" />
    <linearGradient
       inkscape:collect="always"
       xlink:href="#linearGradient1434"
       id="linearGradient1440"
       x1="-25.25"
       y1="-1050.3622"
       x2="-25.25"
       y2="-1002.6122"
       gradientUnits="userSpaceOnUse"
       gradientTransform="translate(51.500001,-2.2500087)" />
    <linearGradient
       inkscape:collect="always"
       xlink:href="#linearGradient1469"
       id="linearGradient1475"
       x1="24"
       y1="8"
       x2="24"
       y2="29.125"
       gradientUnits="userSpaceOnUse" />
    <linearGradient
       inkscape:collect="always"
       xlink:href="#linearGradient1485"
       id="linearGradient1491"
       x1="23.65625"
       y1="1016.2997"
       x2="23.65625"
       y2="1017.8309"
       gradientUnits="userSpaceOnUse"
       gradientTransform="translate(0,0.15625)" />
    <linearGradient
       inkscape:collect="always"
       xlink:href="#linearGradient1485"
       id="linearGradient1504"
       x1="23.9375"
       y1="8.25"
       x2="23.9375"
       y2="10.0625"
       gradientUnits="userSpaceOnUse" />
  </defs>
  <sodipodi:namedview
     id="base"
     pagecolor="#ffffff"
     bordercolor="#666666"
     borderopacity="1.0"
     inkscape:pageopacity="0.0"
     inkscape:pageshadow="2"
     inkscape:zoom="6.1982326"
     inkscape:cx="63.63442"
     inkscape:cy="32.507682"
     inkscape:document-units="px"
     inkscape:current-layer="layer1"
     showgrid="false"
     inkscape:window-width="1366"
     inkscape:window-height="715"
     inkscape:window-x="0"
     inkscape:window-y="30"
     inkscape:window-maximized="1">
    <inkscape:grid
       type="xygrid"
       id="grid3850" />
  </sodipodi:namedview>
  <metadata
     id="metadata7">
    <rdf:RDF>
      <cc:Work
         rdf:about="">
        <dc:format>image/svg+xml</dc:format>
        <dc:type
           rdf:resource="http://purl.org/dc/dcmitype/StillImage" />
        <dc:title />
      </cc:Work>
    </rdf:RDF>
  </metadata>
  <g
     inkscape:label="Capa 1"
     inkscape:groupmode="layer"
     id="layer1"
     transform="translate(0,-1004.3622)">
    <rect
       style="fill:url(#linearGradient1440);fill-opacity:1;stroke:none"
       id="rect2991-1"
       width="48"
       height="48"
       x="-2.9073485e-06"
       y="-1052.3622"
       ry="1.9445436"
       transform="scale(1,-1)" />
    <path
       inkscape:connector-curvature="0"
       style="fill:#000000;fill-opacity:1;stroke:none"
       d="m 2.9073486e-6,1049.3622 0,1.0625 c 0,1.0773 0.8602000026514,1.9375 1.9374989926514,1.9375 l 44.1250011,0 c 1.0773,0 1.9375,-0.8602 1.9375,-1.9375 l 0,-1.0625 c 0,1.0773 -0.8602,1.9375 -1.9375,1.9375 l -44.1250011,0 C 0.86020291,1051.2997 2.9073486e-6,1050.4395 2.9073486e-6,1049.3622 Z"
       id="rect846" />
    <path
       inkscape:connector-curvature="0"
       style="fill:#ffffff;fill-opacity:0.5372549;stroke:none"
       d="m 2.5312019,1005.0185 c -0.916999,0 -1.67109899,0.6395 -1.84369899,1.5 0.33559899,-0.2799 0.77449999,-0.4375 1.24999899,-0.4375 l 44.1250011,0 c 0.4755,0 0.9144,0.1576 1.25,0.4375 -0.1726,-0.8605 -0.9267,-1.5 -1.8437,-1.5 L 2.5312019,1005.0185 Z"
       id="path7515" />
    <path
       inkscape:connector-curvature="0"
       style="fill:#000000;fill-opacity:0.39215686;stroke:none"
       d="m 1.9375019,1004.3622 c -1.07729899,0 -1.9374989926514,0.8602 -1.9374989926514,1.9375 l 0,43.0625 c 0,0.7934 0.4800000026514,1.449 1.1561989926514,1.75 -0.30929899,-0.3333 -0.49999899,-0.7824 -0.49999899,-1.2812 l 0,-42.9375 c 0,-1.0482 0.82689899,-1.875 1.87499899,-1.875 l 42.9376011,0 c 1.0481,0 1.875,0.8268 1.875,1.875 l 0,42.9375 c 0,0.4988 -0.1907,0.9479 -0.5,1.2812 0.6762,-0.301 1.1562,-0.9566 1.1562,-1.75 l 0,-43.0625 c 0,-1.0773 -0.8602,-1.9375 -1.9375,-1.9375 L 1.9375019,1004.3622 Z"
       id="rect4280-7" />
    <rect
       style="fill:none;stroke:none"
       id="rect1526"
       width="48"
       height="48"
       x="-2.9073485e-06"
       y="1004.3622"
       ry="0" />
    <g
       id="g1600"
       transform="matrix(0.9589193,0,0,0.9589193,0.9859368,42.245791)">
      <path
         style="color:#000000;fill:#000000;fill-opacity:0.08296946;fill-rule:nonzero;stroke:none;stroke-width:0.40000001;marker:none;visibility:visible;display:inline;overflow:visible;enable-background:accumulate"
         d="m 18.359316,1012.185 c -2.766496,0 -4.996035,2.2158 -4.996035,4.9653 l 0,22.4238 c 0,2.7495 2.229539,4.9654 4.996035,4.9654 l 11.281368,0 c 2.766496,0 4.996035,-2.2159 4.996035,-4.9654 l 0,-22.4238 C 34.636719,1014.4008 32.40718,1012.185 29.640684,1012.185 z m 0.193395,0.4805 10.894578,0 c 2.684323,0 4.867105,2.1373 4.867105,4.8051 l 0,21.7832 c 0,2.6678 -2.182782,4.8051 -4.867105,4.8051 l -10.894578,0 c -2.684323,0 -4.867105,-2.1373 -4.867105,-4.8051 l 0,-21.7832 C 13.685606,1014.8028 15.868388,1012.6655 18.552711,1012.6655 Z"
         id="path1459"
         inkscape:connector-curvature="0"
         sodipodi:nodetypes="ssssssssssssssssss" />
      <path
         sodipodi:nodetypes="ssssssssssssssssss"
         inkscape:connector-curvature="0"
         id="rect1449"
         d="m 18.53125,1012.6693 c -2.68217,0 -4.84375,2.1495 -4.84375,4.8167 l 0,21.7524 c 0,2.6672 2.16158,4.8167 4.84375,4.8167 l 10.9375,0 c 2.68217,0 4.84375,-2.1495 4.84375,-4.8167 l 0,-21.7524 C 34.3125,1014.8188 32.15092,1012.6693 29.46875,1012.6693 z m 0.1875,0.4662 10.5625,0 c 2.602502,0 4.71875,2.0733 4.71875,4.6612 l 0,21.131 c 0,2.5879 -2.116248,4.6612 -4.71875,4.6612 l -10.5625,0 c -2.602502,0 -4.71875,-2.0733 -4.71875,-4.6612 l 0,-21.131 C 14,1015.2088 16.116248,1013.1355 18.71875,1013.1355 Z"
         style="color:#000000;fill:#000000;fill-opacity:0.13537119;fill-rule:nonzero;stroke:none;stroke-width:0.40000001;marker:none;visibility:visible;display:inline;overflow:visible;enable-background:accumulate" />
      <path
         inkscape:connector-curvature="0"
         id="rect842"
         d="m 18.71875,1013.1381 c -2.602502,0 -4.71875,2.073 -4.71875,4.6604 l 0,21.1274 c 0,2.5874 2.116248,4.6604 4.71875,4.6604 l 10.5625,0 c 2.602502,0 4.71875,-2.073 4.71875,-4.6604 l 0,-21.1274 c 0,-2.5874 -2.116248,-4.6604 -4.71875,-4.6604 L 18.71875,1013.1381 z m 0.21875,0.466 10.125,0 c 2.523957,0 4.5625,2.0268 4.5625,4.5362 l 0,20.4438 c 0,2.5094 -2.038543,4.5362 -4.5625,4.5362 l -10.125,0 c -2.523957,0 -4.5625,-2.0268 -4.5625,-4.5362 l 0,-20.4438 C 14.375,1015.6309 16.413543,1013.6041 18.9375,1013.6041 Z"
         style="color:#000000;fill:#000000;fill-opacity:0.25327513;fill-rule:nonzero;stroke:none;stroke-width:0.40000001;marker:none;visibility:visible;display:inline;overflow:visible;enable-background:accumulate" />
      <rect
         style="color:#000000;fill:url(#linearGradient852);fill-opacity:1;fill-rule:nonzero;stroke:none;stroke-width:0.40000001;marker:none;visibility:visible;display:inline;overflow:visible;enable-background:accumulate"
         id="rect844"
         width="19.265337"
         height="29.700727"
         x="14.367332"
         y="1013.5118"
         ry="4.5558796" />
      <path
         sodipodi:nodetypes="ssssssssssssssssss"
         inkscape:connector-curvature="0"
         id="path1461"
         d="m 18.183543,1011.6768 c -2.852704,0 -5.151719,2.2854 -5.151719,5.1213 l 0,23.1282 c 0,2.8359 2.299015,5.1214 5.151719,5.1214 l 11.632914,0 c 2.852704,0 5.151719,-2.2855 5.151719,-5.1214 l 0,-23.1282 C 34.968176,1013.9622 32.669161,1011.6768 29.816457,1011.6768 z m 0.199422,0.4956 11.23407,0 c 2.76797,0 5.018772,2.2044 5.018772,4.956 l 0,22.4676 c 0,2.7516 -2.250802,4.956 -5.018772,4.956 l -11.23407,0 c -2.76797,0 -5.018772,-2.2044 -5.018772,-4.956 l 0,-22.4676 C 13.364193,1014.3768 15.614995,1012.1724 18.382965,1012.1724 Z"
         style="color:#000000;fill:#000000;fill-opacity:0.5371179;fill-rule:nonzero;stroke:none;stroke-width:0.40000001;marker:none;visibility:visible;display:inline;overflow:visible;enable-background:accumulate" />
      <path
         id="rect1463"
         transform="translate(0,1004.3622)"
         d="m 18.9375,9.15625 c -2.523957,0 -4.5625,2.038543 -4.5625,4.5625 l 0,20.5625 c 0,0.655583 0.12781,1.281544 0.375,1.84375 l 0,-19.15625 c 0,-2.4257 1.9493,-4.375 4.375,-4.375 l 9.75,0 c 2.4257,0 4.375,1.9493 4.375,4.375 l 0,19.15625 c 0.24719,-0.562206 0.375,-1.188167 0.375,-1.84375 l 0,-20.5625 c 0,-2.523957 -2.038543,-4.5625 -4.5625,-4.5625 L 18.9375,9.15625 Z"
         style="color:#000000;fill:url(#linearGradient1475);fill-opacity:1;fill-rule:nonzero;stroke:none;stroke-width:0.40000001;marker:none;visibility:visible;display:inline;overflow:visible;enable-background:accumulate"
         inkscape:connector-curvature="0" />
      <path
         inkscape:connector-curvature="0"
         id="rect1477"
         d="m 19.15625,1016.9247 c -2.202446,0 -3.956286,1.6297 -4.25,3.75 -0.0274,0.1978 -0.09375,0.3883 -0.09375,0.5938 -0.0019,0.053 0,0.1031 0,0.1562 l 0,0.031 c -6.78e-4,0.032 0,0.062 0,0.094 l 0,0.1875 c 0,-0.2467 0.02326,-0.4834 0.0625,-0.7187 0.0072,-0.052 0.0222,-0.1046 0.03125,-0.1563 0.405171,-1.9853 2.143075,-3.4687 4.25,-3.4687 l 9.6875,0 c 2.106926,0 3.844829,1.4834 4.25,3.4687 0.01044,0.051 0.02262,0.1045 0.03125,0.1563 0.03924,0.2353 0.0625,0.472 0.0625,0.7187 l 0,-0.1875 c 0,-0.032 6.78e-4,-0.062 0,-0.094 l 0,-0.031 c 0,-0.053 0.0019,-0.1036 0,-0.1562 0,-0.2055 -0.06635,-0.396 -0.09375,-0.5938 -0.293714,-2.1203 -2.047553,-3.75 -4.25,-3.75 L 19.15625,1016.9247 Z"
         style="opacity:0.43200001;color:#000000;fill:url(#linearGradient1491);fill-opacity:1;fill-rule:nonzero;stroke:none;stroke-width:0.40000001;marker:none;visibility:visible;display:inline;overflow:visible;enable-background:accumulate" />
      <path
         id="path1493"
         transform="translate(0,1004.3622)"
         d="m 18.9375,9.15625 c -2.523957,0 -4.5625,2.038543 -4.5625,4.5625 l 0,1.1875 c 0,-2.524 2.038543,-4.5625 4.5625,-4.5625 l 10.125,0 c 2.523957,0 4.5625,2.0385 4.5625,4.5625 l 0,-1.1875 c 0,-2.523957 -2.038543,-4.5625 -4.5625,-4.5625 L 18.9375,9.15625 Z"
         style="opacity:0.67699998;color:#000000;fill:url(#linearGradient1504);fill-opacity:1;fill-rule:nonzero;stroke:none;stroke-width:0.40000001;marker:none;visibility:visible;display:inline;overflow:visible;enable-background:accumulate"
         inkscape:connector-curvature="0" />
      <rect
         ry="0"
         y="1020.0816"
         x="23.403379"
         height="3"
         width="1.0124999"
         id="rect1515"
         style="fill:#000000;fill-opacity:0.32919258;stroke:none" />
      <path
         id="path1517"
         transform="translate(0,1004.3622)"
         d="m 24,32.90625 c -0.828428,0 -1.5,0.6716 -1.5,1.5 0,0.8284 0.671572,1.5 1.5,1.5 0.828428,0 1.5,-0.6716 1.5,-1.5 C 25.5,33.57785 24.828428,32.90625 24,32.90625 z m 0,0.5 c 0.551377,0 1,0.4488 1,1 0,0.5514 -0.448623,1.03125 -1,1.03125 -0.551378,0 -1,-0.48005 -1,-1.03125 C 23,33.85485 23.448622,33.40625 24,33.40625 Z"
         style="fill:#000000;fill-opacity:0.32919258;stroke:none"
         inkscape:connector-curvature="0" />
      <path
         id="rect1533"
         transform="translate(0,1004.3622)"
         d="m 23.40625,18.71875 0,0.15625 1,0 0,-0.15625 L 23.40625,18.71875 Z"
         style="fill:#ffffff;fill-opacity:0.49689445;stroke:none"
         inkscape:connector-curvature="0" />
      <path
         sodipodi:nodetypes="cscsc"
         inkscape:connector-curvature="0"
         id="path1535"
         d="m 22.53125,1039.0888 c 0.0775,0.7556 0.692611,1.3437 1.46875,1.3437 0.776139,0 1.391245,-0.5881 1.46875,-1.3437 -0.139869,0.6835 -0.743876,1.1875 -1.46875,1.1875 C 23.275126,1040.2763 22.671119,1039.7723 22.53125,1039.0888 Z"
         style="fill:#f9f9f9;fill-opacity:1;stroke:none" />
    </g>
  </g>
</svg>
