<?xml version="1.0" encoding="UTF-8" standalone="no"?>
<!-- Created with Inkscape (http://www.inkscape.org/) -->

<svg
   xmlns:dc="http://purl.org/dc/elements/1.1/"
   xmlns:cc="http://creativecommons.org/ns#"
   xmlns:rdf="http://www.w3.org/1999/02/22-rdf-syntax-ns#"
   xmlns:svg="http://www.w3.org/2000/svg"
   xmlns="http://www.w3.org/2000/svg"
   xmlns:xlink="http://www.w3.org/1999/xlink"
   xmlns:sodipodi="http://sodipodi.sourceforge.net/DTD/sodipodi-0.dtd"
   xmlns:inkscape="http://www.inkscape.org/namespaces/inkscape"
   width="48"
   height="48"
   id="svg5453"
   version="1.1"
   inkscape:version="0.91pre2 r"
   sodipodi:docname="start-here-gnome.svg">
  <defs
     id="defs5455">
    <linearGradient
       inkscape:collect="always"
       id="linearGradient4230">
      <stop
         style="stop-color:#bef1fa;stop-opacity:1"
         offset="0"
         id="stop4232" />
      <stop
         style="stop-color:#f6fdfe;stop-opacity:1"
         offset="1"
         id="stop4234" />
    </linearGradient>
    <linearGradient
       y2="-1004.7695"
       x2="-13.025376"
       y1="-1052.8632"
       x1="-13.025376"
       gradientTransform="translate(432.1173,504.8513)"
       gradientUnits="userSpaceOnUse"
       id="linearGradient4264"
       xlink:href="#linearGradient5020"
       inkscape:collect="always" />
    <linearGradient
       inkscape:collect="always"
       xlink:href="#linearGradient4230"
       id="linearGradient4707"
       x1="415.79376"
       y1="536.92279"
       x2="415.79376"
       y2="510.78726"
       gradientUnits="userSpaceOnUse"
       gradientTransform="matrix(1.1849306,0,0,1.1846148,-75.557201,-96.700662)" />
    <linearGradient
       id="linearGradient5020"
       inkscape:collect="always">
      <stop
         id="stop5022"
         offset="0"
         style="stop-color:#10b5d4;stop-opacity:1" />
      <stop
         id="stop5024"
         offset="1"
         style="stop-color:#37d5f1;stop-opacity:1" />
    </linearGradient>
  </defs>
  <sodipodi:namedview
     id="base"
     pagecolor="#ffffff"
     bordercolor="#666666"
     borderopacity="1.0"
     inkscape:pageopacity="0"
     inkscape:pageshadow="2"
     inkscape:zoom="8.5979004"
     inkscape:cx="22.640341"
     inkscape:cy="29.853669"
     inkscape:document-units="px"
     inkscape:current-layer="layer1"
     showgrid="false"
     fit-margin-top="0"
     fit-margin-left="0"
     fit-margin-right="0"
     fit-margin-bottom="0"
     inkscape:window-width="1366"
     inkscape:window-height="672"
     inkscape:window-x="-4"
     inkscape:window-y="25"
     inkscape:window-maximized="1" />
  <metadata
     id="metadata5458">
    <rdf:RDF>
      <cc:Work
         rdf:about="">
        <dc:format>image/svg+xml</dc:format>
        <dc:type
           rdf:resource="http://purl.org/dc/dcmitype/StillImage" />
        <dc:title />
      </cc:Work>
    </rdf:RDF>
  </metadata>
  <g
     inkscape:label="Capa 1"
     inkscape:groupmode="layer"
     id="layer1"
     transform="translate(-384.57143,-499.798)">
    <rect
       transform="scale(1,-1)"
       ry="1.9445436"
       y="-547.79797"
       x="384.57144"
       height="48"
       width="48"
       id="rect4256"
       style="fill:url(#linearGradient4264);fill-opacity:1.0;stroke:none" />
    <path
       id="path4258"
       d="m 384.57142,544.798 0,1.0625 c 0,1.0773 0.86022,1.9375 1.9375,1.9375 l 44.125,0 c 1.07728,0 1.9375,-0.8602 1.9375,-1.9375 l 0,-1.0625 c 0,1.0773 -0.86022,1.9375 -1.9375,1.9375 l -44.125,0 c -1.07728,0 -1.9375,-0.8602 -1.9375,-1.9375 z"
       style="fill:#000000;fill-opacity:1;stroke:none"
       inkscape:connector-curvature="0" />
    <path
       id="path4260"
       d="m 387.10267,500.4543 c -0.91709,0 -1.67115,0.6395 -1.84375,1.5 0.33561,-0.2799 0.77451,-0.4375 1.25,-0.4375 l 44.125,0 c 0.47549,0 0.91439,0.1576 1.25,0.4375 -0.1726,-0.8605 -0.92666,-1.5 -1.84375,-1.5 l -42.9375,0 z"
       style="fill:#ffffff;fill-opacity:0.5372549;stroke:none"
       inkscape:connector-curvature="0" />
    <path
       id="path4262"
       d="m 386.50892,499.798 c -1.07728,0 -1.9375,0.8602 -1.9375,1.9375 l 0,43.0625 c 0,0.7934 0.48002,1.449 1.15625,1.75 -0.30934,-0.3333 -0.5,-0.7824 -0.5,-1.2812 l 0,-42.9375 c 0,-1.0482 0.8269,-1.875 1.875,-1.875 l 42.9375,0 c 1.0481,0 1.875,0.8268 1.875,1.875 l 0,42.9375 c 0,0.4988 -0.19066,0.9479 -0.5,1.2812 0.67623,-0.301 1.15625,-0.9566 1.15625,-1.75 l 0,-43.0625 c 0,-1.0773 -0.86022,-1.9375 -1.9375,-1.9375 l -44.125,0 z"
       style="fill:#000000;fill-opacity:0.39215686;stroke:none"
       inkscape:connector-curvature="0" />
    <path
       style="fill:#000000;fill-opacity:0.05882353;stroke:none"
       d="m 418.18343,509.608 c -1.18363,0.0528 -2.53968,0.60277 -3.63369,1.49861 -1.34046,1.1005 -2.42932,3.88998 -2.13754,5.44961 0.15058,0.80177 0.75607,1.77991 1.33592,2.08544 1.07986,0.56492 3.04799,-0.37946 4.86283,-2.2997 1.96047,-2.08071 2.86078,-4.3684 2.19092,-5.66369 -0.4117,-0.79767 -1.4348,-1.14544 -2.61844,-1.07027 z m -9.67211,1.22896 c -1.64671,0 -2.51795,1.16207 -2.51162,3.37056 0.002,1.51049 0.53561,2.86982 1.22905,3.20453 0.51564,0.24958 0.52853,0.22382 1.17566,0 1.07196,-0.37858 2.07903,-2.87424 1.87029,-4.54453 -0.17068,-1.36492 -0.75886,-2.03105 -1.76338,-2.03056 z m -6.51945,2.2447 c -0.30811,0.0295 -0.6171,0.24394 -0.90836,0.5327 -0.58718,0.59302 -0.59499,0.91088 -0.58782,2.03011 0.005,1.32371 0.3315,2.04979 1.22906,2.99719 0.67134,0.70246 1.15546,0.74814 1.76342,0.0704 0.65858,-0.69617 0.86303,-1.79101 0.64121,-2.99152 -0.33831,-1.83074 -1.21309,-2.8046 -2.13751,-2.67098 z m -4.59557,4.006 c -0.31968,0.0345 -0.60779,0.23701 -0.9084,0.53884 -0.7889,0.78468 -0.23714,2.95972 1.01522,4.05445 1.49493,1.31559 2.70203,0.074 2.19101,-2.18951 -0.36362,-1.63654 -1.33876,-2.55935 -2.29783,-2.40378 z m 13.73344,2.88757 c -1.0586,-0.0132 -2.24492,0.0461 -3.47347,0.31746 -3.16477,0.6454 -5.6971,1.84061 -7.32092,3.47406 -0.9352,0.94512 -1.47022,1.81377 -1.92376,3.14943 -1.09765,3.2492 0.93523,7.85666 4.80936,11.0114 1.44342,1.1721 2.32418,1.69687 3.79408,2.18927 0.76218,0.2523 1.3666,0.31232 2.77875,0.26757 1.61885,-0.0358 1.94809,-0.0848 2.99247,-0.64035 1.53055,-0.75897 3.26535,-2.49774 4.00783,-4.00638 0.45294,-0.92099 0.52553,-1.31678 0.48092,-2.08649 -0.0764,-1.31723 -0.58594,-1.66871 -2.24433,-1.65848 -2.36758,0.014 -3.36144,0.5757 -3.84751,2.24535 -0.36712,1.26335 -0.77299,1.71239 -1.60309,1.71239 -1.31569,0 -2.67195,-1.04483 -2.67195,-2.141 0,-0.75406 1.2232,-1.88655 4.27504,-3.94991 4.2991,-2.91132 5.77718,-4.67646 5.5575,-6.62353 -0.227,-2.02 -2.4352,-3.2044 -5.61092,-3.26079 z"
       id="path4727"
       inkscape:connector-curvature="0" />
    <path
       inkscape:connector-curvature="0"
       id="path4725"
       d="m 418.18343,509.208 c -1.18363,0.0528 -2.53968,0.60277 -3.63369,1.49861 -1.34046,1.1005 -2.42932,3.88998 -2.13754,5.44961 0.15058,0.80177 0.75607,1.77991 1.33592,2.08544 1.07986,0.56492 3.04799,-0.37946 4.86283,-2.2997 1.96047,-2.08071 2.86078,-4.3684 2.19092,-5.66369 -0.4117,-0.79767 -1.4348,-1.14544 -2.61844,-1.07027 z m -9.67211,1.22896 c -1.64671,0 -2.51795,1.16207 -2.51162,3.37056 0.002,1.51049 0.53561,2.86982 1.22905,3.20453 0.51564,0.24958 0.52853,0.22382 1.17566,0 1.07196,-0.37858 2.07903,-2.87424 1.87029,-4.54453 -0.17068,-1.36492 -0.75886,-2.03105 -1.76338,-2.03056 z m -6.51945,2.2447 c -0.30811,0.0295 -0.6171,0.24394 -0.90836,0.5327 -0.58718,0.59302 -0.59499,0.91088 -0.58782,2.03011 0.005,1.32371 0.3315,2.04979 1.22906,2.99719 0.67134,0.70246 1.15546,0.74814 1.76342,0.0704 0.65858,-0.69617 0.86303,-1.79101 0.64121,-2.99152 -0.33831,-1.83074 -1.21309,-2.8046 -2.13751,-2.67098 z m -4.59557,4.006 c -0.31968,0.0345 -0.60779,0.23701 -0.9084,0.53884 -0.7889,0.78468 -0.23714,2.95972 1.01522,4.05445 1.49493,1.31559 2.70203,0.074 2.19101,-2.18951 -0.36362,-1.63654 -1.33876,-2.55935 -2.29783,-2.40378 z m 13.73344,2.88757 c -1.0586,-0.0132 -2.24492,0.0461 -3.47347,0.31746 -3.16477,0.6454 -5.6971,1.84061 -7.32092,3.47406 -0.9352,0.94512 -1.47022,1.81377 -1.92376,3.14943 -1.09765,3.2492 0.93523,7.85666 4.80936,11.0114 1.44342,1.1721 2.32418,1.69687 3.79408,2.18927 0.76218,0.2523 1.3666,0.31232 2.77875,0.26757 1.61885,-0.0358 1.94809,-0.0848 2.99247,-0.64035 1.53055,-0.75897 3.26535,-2.49774 4.00783,-4.00638 0.45294,-0.92099 0.52553,-1.31678 0.48092,-2.08649 -0.0764,-1.31723 -0.58594,-1.66871 -2.24433,-1.65848 -2.36758,0.014 -3.36144,0.5757 -3.84751,2.24535 -0.36712,1.26335 -0.77299,1.71239 -1.60309,1.71239 -1.31569,0 -2.67195,-1.04483 -2.67195,-2.141 0,-0.75406 1.2232,-1.88655 4.27504,-3.94991 4.2991,-2.91132 5.77718,-4.67646 5.5575,-6.62353 -0.227,-2.02 -2.4352,-3.2044 -5.61092,-3.26079 z"
       style="fill:#000000;fill-opacity:0.23529412;stroke:none" />
    <path
       style="fill:#000000;fill-opacity:0.23529412;stroke:none"
       d="m 418.18343,508.808 c -1.18363,0.0528 -2.53968,0.60277 -3.63369,1.49861 -1.34046,1.1005 -2.42932,3.88998 -2.13754,5.44961 0.15058,0.80177 0.75607,1.77991 1.33592,2.08544 1.07986,0.56492 3.04799,-0.37946 4.86283,-2.2997 1.96047,-2.08071 2.86078,-4.3684 2.19092,-5.66369 -0.4117,-0.79767 -1.4348,-1.14544 -2.61844,-1.07027 z m -9.67211,1.22896 c -1.64671,0 -2.51795,1.16207 -2.51162,3.37056 0.002,1.51049 0.53561,2.86982 1.22905,3.20453 0.51564,0.24958 0.52853,0.22382 1.17566,0 1.07196,-0.37858 2.07903,-2.87424 1.87029,-4.54453 -0.17068,-1.36492 -0.75886,-2.03105 -1.76338,-2.03056 z m -6.51945,2.2447 c -0.30811,0.0295 -0.6171,0.24394 -0.90836,0.5327 -0.58718,0.59302 -0.59499,0.91088 -0.58782,2.03011 0.005,1.32371 0.3315,2.04979 1.22906,2.99719 0.67134,0.70246 1.15546,0.74814 1.76342,0.0704 0.65858,-0.69617 0.86303,-1.79101 0.64121,-2.99152 -0.33831,-1.83074 -1.21309,-2.8046 -2.13751,-2.67098 z m -4.59557,4.006 c -0.31968,0.0345 -0.60779,0.23701 -0.9084,0.53884 -0.7889,0.78468 -0.23714,2.95972 1.01522,4.05445 1.49493,1.31559 2.70203,0.074 2.19101,-2.18951 -0.36362,-1.63654 -1.33876,-2.55935 -2.29783,-2.40378 z m 13.73344,2.88757 c -1.0586,-0.0132 -2.24492,0.0461 -3.47347,0.31746 -3.16477,0.6454 -5.6971,1.84061 -7.32092,3.47406 -0.9352,0.94512 -1.47022,1.81377 -1.92376,3.14943 -1.09765,3.2492 0.93523,7.85666 4.80936,11.0114 1.44342,1.1721 2.32418,1.69687 3.79408,2.18927 0.76218,0.2523 1.3666,0.31232 2.77875,0.26757 1.61885,-0.0358 1.94809,-0.0848 2.99247,-0.64035 1.53055,-0.75897 3.26535,-2.49774 4.00783,-4.00638 0.45294,-0.92099 0.52553,-1.31678 0.48092,-2.08649 -0.0764,-1.31723 -0.58594,-1.66871 -2.24433,-1.65848 -2.36758,0.014 -3.36144,0.5757 -3.84751,2.24535 -0.36712,1.26335 -0.77299,1.71239 -1.60309,1.71239 -1.31569,0 -2.67195,-1.04483 -2.67195,-2.141 0,-0.75406 1.2232,-1.88655 4.27504,-3.94991 4.2991,-2.91132 5.77718,-4.67646 5.5575,-6.62353 -0.227,-2.02 -2.4352,-3.2044 -5.61092,-3.26079 z"
       id="path4721"
       inkscape:connector-curvature="0" />
    <path
       inkscape:connector-curvature="0"
       id="path4909-2"
       d="m 418.18343,508.408 c -1.18363,0.0528 -2.53968,0.60277 -3.63369,1.49861 -1.34046,1.1005 -2.42932,3.88998 -2.13754,5.44961 0.15058,0.80177 0.75607,1.77991 1.33592,2.08544 1.07986,0.56492 3.04799,-0.37946 4.86283,-2.2997 1.96047,-2.08071 2.86078,-4.3684 2.19092,-5.66369 -0.4117,-0.79767 -1.4348,-1.14544 -2.61844,-1.07027 z m -9.67211,1.22896 c -1.64671,0 -2.51795,1.16207 -2.51162,3.37056 0.002,1.51049 0.53561,2.86982 1.22905,3.20453 0.51564,0.24958 0.52853,0.22382 1.17566,0 1.07196,-0.37858 2.07903,-2.87424 1.87029,-4.54453 -0.17068,-1.36492 -0.75886,-2.03105 -1.76338,-2.03056 z m -6.51945,2.2447 c -0.30811,0.0295 -0.6171,0.24394 -0.90836,0.5327 -0.58718,0.59302 -0.59499,0.91088 -0.58782,2.03011 0.005,1.32371 0.3315,2.04979 1.22906,2.99719 0.67134,0.70246 1.15546,0.74814 1.76342,0.0704 0.65858,-0.69617 0.86303,-1.79101 0.64121,-2.99152 -0.33831,-1.83074 -1.21309,-2.8046 -2.13751,-2.67098 z m -4.59557,4.006 c -0.31968,0.0345 -0.60779,0.23701 -0.9084,0.53884 -0.7889,0.78468 -0.23714,2.95972 1.01522,4.05445 1.49493,1.31559 2.70203,0.074 2.19101,-2.18951 -0.36362,-1.63654 -1.33876,-2.55935 -2.29783,-2.40378 z m 13.73344,2.88757 c -1.0586,-0.0132 -2.24492,0.0461 -3.47347,0.31746 -3.16477,0.6454 -5.6971,1.84061 -7.32092,3.47406 -0.9352,0.94512 -1.47022,1.81377 -1.92376,3.14943 -1.09765,3.2492 0.93523,7.85666 4.80936,11.0114 1.44342,1.1721 2.32418,1.69687 3.79408,2.18927 0.76218,0.2523 1.3666,0.31232 2.77875,0.26757 1.61885,-0.0358 1.94809,-0.0848 2.99247,-0.64035 1.53055,-0.75897 3.26535,-2.49774 4.00783,-4.00638 0.45294,-0.92099 0.52553,-1.31678 0.48092,-2.08649 -0.0764,-1.31723 -0.58594,-1.66871 -2.24433,-1.65848 -2.36758,0.014 -3.36144,0.5757 -3.84751,2.24535 -0.36712,1.26335 -0.77299,1.71239 -1.60309,1.71239 -1.31569,0 -2.67195,-1.04483 -2.67195,-2.141 0,-0.75406 1.2232,-1.88655 4.27504,-3.94991 4.2991,-2.91132 5.77718,-4.67646 5.5575,-6.62353 -0.227,-2.02 -2.4352,-3.2044 -5.61092,-3.26079 z"
       style="fill:url(#linearGradient4707);fill-opacity:1.0;stroke:none" />
    <path
       style="fill:#13b8d6;fill-opacity:0.3137255;stroke:none"
       d="M 36.375 10.111328 C 36.149389 11.318729 35.330441 12.773949 34.039062 14.144531 C 32.224223 16.064771 30.255641 17.008279 29.175781 16.443359 C 28.600896 16.140445 28.002682 15.176744 27.845703 14.378906 C 27.788708 14.808715 27.775821 15.216375 27.839844 15.558594 C 27.990424 16.360364 28.595931 17.339001 29.175781 17.644531 C 30.255641 18.209451 32.224223 17.26399 34.039062 15.34375 C 35.800405 13.47438 36.694979 11.445059 36.375 10.111328 z M 25.681641 11.746094 C 25.497348 13.253339 24.690351 14.911714 23.832031 15.214844 C 23.184901 15.438664 23.173843 15.464424 22.658203 15.214844 C 22.034056 14.91358 21.560883 13.769823 21.466797 12.445312 C 21.441422 12.684234 21.426959 12.938444 21.427734 13.208984 C 21.429734 14.719474 21.964763 16.079353 22.658203 16.414062 C 23.173843 16.663643 23.184901 16.637883 23.832031 16.414062 C 24.903991 16.035482 25.911865 13.539431 25.703125 11.869141 C 25.69764 11.825275 25.687988 11.788517 25.681641 11.746094 z M 15.949219 13.787109 C 15.928834 14.01891 15.921491 14.281704 15.923828 14.646484 C 15.928828 15.970194 16.254784 16.697131 17.152344 17.644531 C 17.823684 18.346991 18.308056 18.392584 18.916016 17.714844 C 19.520587 17.075765 19.725213 16.094106 19.585938 15.009766 C 19.497391 15.599474 19.285454 16.123147 18.916016 16.513672 C 18.308056 17.191412 17.823684 17.145819 17.152344 16.443359 C 16.340207 15.586126 16.01116 14.888621 15.949219 13.787109 z M 11.630859 17.181641 C 11.361604 18.169706 11.904108 19.785393 12.931641 20.683594 C 14.336344 21.919781 15.46793 20.884636 15.177734 18.878906 C 14.944121 20.034213 14.017872 20.438343 12.931641 19.482422 C 12.262168 18.897213 11.802144 18.006856 11.630859 17.181641 z M 32.113281 22.003906 C 31.798227 23.606323 30.193104 25.236556 26.611328 27.662109 C 23.559488 29.725469 22.335938 30.857268 22.335938 31.611328 C 22.335938 31.841484 22.407021 32.06677 22.513672 32.283203 C 22.936305 31.542269 24.192134 30.496954 26.611328 28.861328 C 30.910428 25.950008 32.389602 24.185351 32.169922 22.238281 C 32.160675 22.155999 32.129034 22.083395 32.113281 22.003906 z M 13.574219 27.185547 C 13.275732 30.288961 15.256875 34.166317 18.650391 36.929688 C 20.093811 38.101788 20.973459 38.626741 22.443359 39.119141 C 23.205539 39.371441 23.810506 39.431469 25.222656 39.386719 C 26.841506 39.350919 27.170464 39.301644 28.214844 38.746094 C 29.745394 37.987124 31.480176 36.248874 32.222656 34.740234 C 32.675596 33.819244 32.747735 33.422054 32.703125 32.652344 C 32.696108 32.531367 32.680894 32.427418 32.666016 32.322266 C 32.605176 32.66832 32.477684 33.020499 32.222656 33.539062 C 31.480176 35.047703 29.745394 36.787905 28.214844 37.546875 C 27.170464 38.102425 26.841506 38.149747 25.222656 38.185547 C 23.810506 38.230297 23.205539 38.170269 22.443359 37.917969 C 20.973459 37.425569 20.093811 36.902569 18.650391 35.730469 C 15.682226 33.313465 13.800994 30.043851 13.574219 27.185547 z "
       transform="translate(384.57143,499.798)"
       id="path4729" />
    <path
       style="fill:#ffffff;fill-opacity:0.23529412;stroke:none"
       d="M 33.611328 8.609375 C 32.427698 8.662175 31.072526 9.213535 29.978516 10.109375 C 28.745463 11.121695 27.739004 13.551671 27.810547 15.150391 C 27.902546 13.569546 28.845698 11.43784 29.978516 10.507812 C 31.072526 9.6119725 32.427698 9.0625656 33.611328 9.0097656 C 34.794968 8.9345956 35.818769 9.2824081 36.230469 10.080078 C 36.359559 10.329697 36.413573 10.624707 36.429688 10.939453 C 36.469979 10.463467 36.412976 10.032596 36.230469 9.6796875 C 35.818769 8.8820175 34.794968 8.534205 33.611328 8.609375 z M 23.939453 9.8398438 C 22.292743 9.8398438 21.421404 11.000494 21.427734 13.208984 C 21.427801 13.259674 21.440156 13.305152 21.441406 13.355469 C 21.503754 11.318902 22.359821 10.238281 23.939453 10.238281 C 24.943973 10.237791 25.532445 10.904611 25.703125 12.269531 C 25.717253 12.382583 25.713451 12.507251 25.716797 12.626953 C 25.733054 12.36414 25.732848 12.106979 25.703125 11.869141 C 25.532445 10.504221 24.943973 9.8393537 23.939453 9.8398438 z M 17.419922 12.050781 L 17.419922 12.083984 C 17.111812 12.113484 16.802979 12.328427 16.511719 12.617188 C 15.924539 13.210208 15.916658 13.527254 15.923828 14.646484 C 15.923883 14.660993 15.927602 14.671181 15.927734 14.685547 C 15.932855 13.872599 15.99956 13.532878 16.511719 13.015625 C 16.802979 12.726865 17.111812 12.513875 17.419922 12.484375 L 17.419922 12.451172 C 18.344342 12.317552 19.220284 13.292307 19.558594 15.123047 C 19.601668 15.35617 19.614277 15.579726 19.625 15.802734 C 19.640031 15.456408 19.628081 15.098729 19.558594 14.722656 C 19.220284 12.891916 18.344342 11.917161 17.419922 12.050781 z M 13.183594 16.082031 C 13.064434 16.06849 12.944102 16.070397 12.824219 16.089844 C 12.504539 16.124344 12.216626 16.327076 11.916016 16.628906 C 11.615815 16.927501 11.511658 17.427074 11.564453 17.992188 C 11.585665 17.597917 11.690302 17.253803 11.916016 17.029297 C 12.216626 16.727467 12.504539 16.524734 12.824219 16.490234 C 13.783289 16.334664 14.759427 17.256038 15.123047 18.892578 C 15.179424 19.142293 15.206181 19.374878 15.222656 19.597656 C 15.2343 19.263919 15.21558 18.904007 15.123047 18.494141 C 14.804879 17.062168 14.017715 16.176818 13.183594 16.082031 z M 26.558594 18.976562 C 25.499994 18.963363 24.312534 19.023562 23.083984 19.294922 C 19.919214 19.940322 17.387492 21.136081 15.763672 22.769531 C 14.828472 23.714651 14.293384 24.582309 13.839844 25.917969 C 13.61746 26.576257 13.530797 27.292647 13.554688 28.039062 C 13.570263 27.437685 13.657631 26.857736 13.839844 26.318359 C 14.293384 24.982699 14.828472 24.113089 15.763672 23.167969 C 17.387492 21.534519 19.919214 20.340712 23.083984 19.695312 C 24.312534 19.423953 25.499994 19.363753 26.558594 19.376953 C 29.734314 19.433343 31.942922 20.618672 32.169922 22.638672 C 32.171318 22.505486 32.185095 22.372766 32.169922 22.238281 C 31.942922 20.218281 29.734314 19.032953 26.558594 18.976562 z M 30.458984 30.994141 C 28.091404 31.008141 27.097398 31.570584 26.611328 33.240234 C 26.244208 34.503584 25.837913 34.953125 25.007812 34.953125 C 23.782662 34.953125 22.538751 34.044933 22.371094 33.035156 C 22.357776 33.094558 22.335938 33.155798 22.335938 33.210938 C 22.335938 34.307107 23.692122 35.351562 25.007812 35.351562 C 25.837913 35.351562 26.244208 34.903975 26.611328 33.640625 C 27.097398 31.970975 28.091404 31.408531 30.458984 31.394531 C 32.117374 31.384301 32.626725 31.735504 32.703125 33.052734 C 32.706592 33.11255 32.70315 33.159122 32.705078 33.214844 C 32.715582 33.042715 32.715259 32.861707 32.703125 32.652344 C 32.626725 31.335114 32.117374 30.983911 30.458984 30.994141 z "
       transform="translate(384.57143,499.798)"
       id="path4734" />
  </g>
</svg>
