<?xml version="1.0" encoding="UTF-8" standalone="no"?>
<!-- Created with Inkscape (http://www.inkscape.org/) -->

<svg
   xmlns:dc="http://purl.org/dc/elements/1.1/"
   xmlns:cc="http://creativecommons.org/ns#"
   xmlns:rdf="http://www.w3.org/1999/02/22-rdf-syntax-ns#"
   xmlns:svg="http://www.w3.org/2000/svg"
   xmlns="http://www.w3.org/2000/svg"
   xmlns:xlink="http://www.w3.org/1999/xlink"
   xmlns:sodipodi="http://sodipodi.sourceforge.net/DTD/sodipodi-0.dtd"
   xmlns:inkscape="http://www.inkscape.org/namespaces/inkscape"
   width="48"
   height="48"
   id="svg5453"
   version="1.1"
   inkscape:version="0.91+devel r"
   sodipodi:docname="xfce4-panel-menu.svg">
  <defs
     id="defs5455">
    <linearGradient
       inkscape:collect="always"
       id="linearGradient4267">
      <stop
         style="stop-color:#ccd6ec;stop-opacity:1"
         offset="0"
         id="stop4269" />
      <stop
         style="stop-color:#f7fafd;stop-opacity:1"
         offset="1"
         id="stop4271" />
    </linearGradient>
    <linearGradient
       y2="-1004.7695"
       x2="-13.025376"
       y1="-1052.8632"
       x1="-13.025376"
       gradientTransform="translate(432.1173,504.8513)"
       gradientUnits="userSpaceOnUse"
       id="linearGradient4264"
       xlink:href="#linearGradient891"
       inkscape:collect="always" />
    <linearGradient
       id="linearGradient891"
       inkscape:collect="always">
      <stop
         id="stop893"
         offset="0"
         style="stop-color:#294172;stop-opacity:1" />
      <stop
         id="stop895"
         offset="1"
         style="stop-color:#3c6eb4;stop-opacity:1" />
    </linearGradient>
    <linearGradient
       inkscape:collect="always"
       xlink:href="#linearGradient4267"
       id="linearGradient4265"
       x1="410.28391"
       y1="532.61835"
       x2="410.28391"
       y2="514.96039"
       gradientUnits="userSpaceOnUse"
       gradientTransform="matrix(1,0,0,1.0166053,-3.2714067e-6,-8.6978148)" />
  </defs>
  <sodipodi:namedview
     id="base"
     pagecolor="#ffffff"
     bordercolor="#666666"
     borderopacity="1.0"
     inkscape:pageopacity="0"
     inkscape:pageshadow="2"
     inkscape:zoom="4.8420096"
     inkscape:cx="-18.39966"
     inkscape:cy="25.000949"
     inkscape:document-units="px"
     inkscape:current-layer="layer1"
     showgrid="false"
     fit-margin-top="0"
     fit-margin-left="0"
     fit-margin-right="0"
     fit-margin-bottom="0"
     inkscape:window-width="1366"
     inkscape:window-height="670"
     inkscape:window-x="-4"
     inkscape:window-y="29"
     inkscape:window-maximized="1" />
  <metadata
     id="metadata5458">
    <rdf:RDF>
      <cc:Work
         rdf:about="">
        <dc:format>image/svg+xml</dc:format>
        <dc:type
           rdf:resource="http://purl.org/dc/dcmitype/StillImage" />
        <dc:title />
      </cc:Work>
    </rdf:RDF>
  </metadata>
  <g
     inkscape:label="Capa 1"
     inkscape:groupmode="layer"
     id="layer1"
     transform="translate(-384.57143,-499.798)">
    <rect
       transform="scale(1,-1)"
       ry="1.9445436"
       y="-547.79797"
       x="384.57144"
       height="48"
       width="48"
       id="rect4256"
       style="fill:url(#linearGradient4264);fill-opacity:1;stroke:none" />
    <path
       sodipodi:nodetypes="ccccccccccccccccccccccccccccccccccccccccccccccccccc"
       style="fill:#000000;fill-opacity:0.05882353;fill-rule:nonzero;stroke:none"
       inkscape:connector-curvature="0"
       d="m 393.37024,516.0017 c -0.0672,0.13381 -0.13435,0.2667 -0.1988,0.40052 1.02126,0.57678 3.96429,2.08012 5.36138,2.97068 1.76564,1.09913 4.1522,3.34167 4.34011,3.71912 -1.83645,3.25123 -1.0031,6.1287 -1.22006,6.43509 -0.15614,0.25564 -1.59952,1.86695 -1.13473,2.10505 0.46115,0.23439 1.19464,-0.13382 1.30539,-0.20581 0.23058,-0.14397 0.46842,-0.35345 0.36856,0.0609 -0.19517,0.84719 -1.08117,2.88394 0.14162,2.45112 0.14888,-0.0867 2.11695,-2.29239 2.35479,-2.36806 3.91528,1.03821 8.29443,0.56202 9.10508,0.17627 0.42212,0.0286 1.61676,0.79273 2.2976,1.15726 0.68084,0.36084 2.53544,1.26523 1.98623,-0.37837 -0.17066,-0.51957 -1.38981,-1.84572 -1.19192,-1.93247 0.43574,-0.17627 1.51419,0.45774 1.92905,0.57679 1.24094,0.35346 1.40797,-0.13659 0.62455,-1.21448 -0.77343,-1.0779 -0.88963,-0.91179 -1.13473,-1.40921 -0.19154,-0.40051 0,-0.84349 0.14162,-0.95146 0.25145,-0.19472 3.95703,-2.28592 4.82578,-3.08604 1.28724,-1.18957 0,-2.67444 -0.31591,-2.88394 -2.6698,-1.95369 -5.4113,-1.53563 -5.44671,-1.84571 -0.0181,-0.35346 -0.0109,-1.37321 -0.0572,-1.72667 -0.26598,-2.3939 -1.35441,-1.79127 -1.50329,-1.79127 -1.08843,0.1735 -0.6881,1.86695 -0.22695,3.46072 0.0354,0.40698 -0.37945,0.22702 -0.62455,-0.20211 -0.83698,-2.28223 -1.18829,-2.24254 -1.41887,-2.31084 -0.22331,-0.0507 -1.01036,0.43651 -0.99675,1.35938 0.004,0.26301 0.31228,1.5181 0.31228,1.90386 -0.5138,0.45773 -0.53922,1.49595 -1.07845,1.87432 -1.57046,0.3313 -5.34412,-0.78905 -5.81526,-0.83981 -1.63129,-0.31007 -2.3439,0.93394 -2.60625,0.63493 -2.67418,-3.00533 -8.2106,-5.21421 -9.78773,-5.96997 -0.10622,-0.0645 -0.22695,-0.11166 -0.34406,-0.17349 m 29.11265,2.16318 c -0.51108,0.55832 -0.42212,2.64583 -0.31591,2.6283 0.52107,-0.10798 0.47205,-2.79626 0.31591,-2.6283 m 1.47878,0.31746 c -0.0599,-0.16981 -1.40434,1.74881 -1.1665,2.4548 0.10621,0.30639 1.34715,-1.9177 1.1665,-2.4548 m -6.98177,3.2623 c 0.0182,-0.0184 0.039,0.007 0.0599,0.0286 0.15614,0.52603 0.32952,1.02715 1.35804,1.15357 0.12074,0.0147 -0.57099,0.42544 -1.04577,0.17351 -0.43301,-0.26671 -0.47204,-1.23663 -0.37219,-1.35569 m 2.66707,2.64953 c 0.0953,-0.0147 0.16341,-0.0111 0.23058,0 0.25146,0.0647 -1.82465,1.16464 -1.98623,1.0133 -0.099,-0.0969 1.10659,-0.89056 1.75929,-1.0133 m 0.53922,0.69584 c 0.21605,0.0185 -1.20191,1.51071 -1.36168,1.35568 -0.1171,-0.10798 0.91868,-1.39167 1.36168,-1.35568"
       id="path4283" />
    <path
       id="path4281"
       d="m 393.37024,515.6017 c -0.0672,0.13381 -0.13435,0.2667 -0.1988,0.40052 1.02126,0.57678 3.96429,2.08012 5.36138,2.97068 1.76564,1.09913 4.1522,3.34167 4.34011,3.71912 -1.83645,3.25123 -1.0031,6.1287 -1.22006,6.43509 -0.15614,0.25564 -1.59952,1.86695 -1.13473,2.10505 0.46115,0.23439 1.19464,-0.13382 1.30539,-0.20581 0.23058,-0.14397 0.46842,-0.35345 0.36856,0.0609 -0.19517,0.84719 -1.08117,2.88394 0.14162,2.45112 0.14888,-0.0867 2.11695,-2.29239 2.35479,-2.36806 3.91528,1.03821 8.29443,0.56202 9.10508,0.17627 0.42212,0.0286 1.61676,0.79273 2.2976,1.15726 0.68084,0.36084 2.53544,1.26523 1.98623,-0.37837 -0.17066,-0.51957 -1.38981,-1.84572 -1.19192,-1.93247 0.43574,-0.17627 1.51419,0.45774 1.92905,0.57679 1.24094,0.35346 1.40797,-0.13659 0.62455,-1.21448 -0.77343,-1.0779 -0.88963,-0.91179 -1.13473,-1.40921 -0.19154,-0.40051 0,-0.84349 0.14162,-0.95146 0.25145,-0.19472 3.95703,-2.28592 4.82578,-3.08604 1.28724,-1.18957 0,-2.67444 -0.31591,-2.88394 -2.6698,-1.95369 -5.4113,-1.53563 -5.44671,-1.84571 -0.0181,-0.35346 -0.0109,-1.37321 -0.0572,-1.72667 -0.26598,-2.3939 -1.35441,-1.79127 -1.50329,-1.79127 -1.08843,0.1735 -0.6881,1.86695 -0.22695,3.46072 0.0354,0.40698 -0.37945,0.22702 -0.62455,-0.20211 -0.83698,-2.28223 -1.18829,-2.24254 -1.41887,-2.31084 -0.22331,-0.0507 -1.01036,0.43651 -0.99675,1.35938 0.004,0.26301 0.31228,1.5181 0.31228,1.90386 -0.5138,0.45773 -0.53922,1.49595 -1.07845,1.87432 -1.57046,0.3313 -5.34412,-0.78905 -5.81526,-0.83981 -1.63129,-0.31007 -2.3439,0.93394 -2.60625,0.63493 -2.67418,-3.00533 -8.2106,-5.21421 -9.78773,-5.96997 -0.10622,-0.0645 -0.22695,-0.11166 -0.34406,-0.17349 m 29.11265,2.16318 c -0.51108,0.55832 -0.42212,2.64583 -0.31591,2.6283 0.52107,-0.10798 0.47205,-2.79626 0.31591,-2.6283 m 1.47878,0.31746 c -0.0599,-0.16981 -1.40434,1.74881 -1.1665,2.4548 0.10621,0.30639 1.34715,-1.9177 1.1665,-2.4548 m -6.98177,3.2623 c 0.0182,-0.0184 0.039,0.007 0.0599,0.0286 0.15614,0.52603 0.32952,1.02715 1.35804,1.15357 0.12074,0.0147 -0.57099,0.42544 -1.04577,0.17351 -0.43301,-0.26671 -0.47204,-1.23663 -0.37219,-1.35569 m 2.66707,2.64953 c 0.0953,-0.0147 0.16341,-0.0111 0.23058,0 0.25146,0.0647 -1.82465,1.16464 -1.98623,1.0133 -0.099,-0.0969 1.10659,-0.89056 1.75929,-1.0133 m 0.53922,0.69584 c 0.21605,0.0185 -1.20191,1.51071 -1.36168,1.35568 -0.1171,-0.10798 0.91868,-1.39167 1.36168,-1.35568"
       inkscape:connector-curvature="0"
       style="fill:#000000;fill-opacity:0.11764706;fill-rule:nonzero;stroke:none"
       sodipodi:nodetypes="ccccccccccccccccccccccccccccccccccccccccccccccccccc" />
    <path
       sodipodi:nodetypes="ccccccccccccccccccccccccccccccccccccccccccccccccccc"
       style="fill:#000000;fill-opacity:0.23529412;fill-rule:nonzero;stroke:none"
       inkscape:connector-curvature="0"
       d="m 393.37024,515.2017 c -0.0672,0.13381 -0.13435,0.2667 -0.1988,0.40052 1.02126,0.57678 3.96429,2.08012 5.36138,2.97068 1.76564,1.09913 4.1522,3.34167 4.34011,3.71912 -1.83645,3.25123 -1.0031,6.1287 -1.22006,6.43509 -0.15614,0.25564 -1.59952,1.86695 -1.13473,2.10505 0.46115,0.23439 1.19464,-0.13382 1.30539,-0.20581 0.23058,-0.14397 0.46842,-0.35345 0.36856,0.0609 -0.19517,0.84719 -1.08117,2.88394 0.14162,2.45112 0.14888,-0.0867 2.11695,-2.29239 2.35479,-2.36806 3.91528,1.03821 8.29443,0.56202 9.10508,0.17627 0.42212,0.0286 1.61676,0.79273 2.2976,1.15726 0.68084,0.36084 2.53544,1.26523 1.98623,-0.37837 -0.17066,-0.51957 -1.38981,-1.84572 -1.19192,-1.93247 0.43574,-0.17627 1.51419,0.45774 1.92905,0.57679 1.24094,0.35346 1.40797,-0.13659 0.62455,-1.21448 -0.77343,-1.0779 -0.88963,-0.91179 -1.13473,-1.40921 -0.19154,-0.40051 0,-0.84349 0.14162,-0.95146 0.25145,-0.19472 3.95703,-2.28592 4.82578,-3.08604 1.28724,-1.18957 0,-2.67444 -0.31591,-2.88394 -2.6698,-1.95369 -5.4113,-1.53563 -5.44671,-1.84571 -0.0181,-0.35346 -0.0109,-1.37321 -0.0572,-1.72667 -0.26598,-2.3939 -1.35441,-1.79127 -1.50329,-1.79127 -1.08843,0.1735 -0.6881,1.86695 -0.22695,3.46072 0.0354,0.40698 -0.37945,0.22702 -0.62455,-0.20211 -0.83698,-2.28223 -1.18829,-2.24254 -1.41887,-2.31084 -0.22331,-0.0507 -1.01036,0.43651 -0.99675,1.35938 0.004,0.26301 0.31228,1.5181 0.31228,1.90386 -0.5138,0.45773 -0.53922,1.49595 -1.07845,1.87432 -1.57046,0.3313 -5.34412,-0.78905 -5.81526,-0.83981 -1.63129,-0.31007 -2.3439,0.93394 -2.60625,0.63493 -2.67418,-3.00533 -8.2106,-5.21421 -9.78773,-5.96997 -0.10622,-0.0645 -0.22695,-0.11166 -0.34406,-0.17349 m 29.11265,2.16318 c -0.51108,0.55832 -0.42212,2.64583 -0.31591,2.6283 0.52107,-0.10798 0.47205,-2.79626 0.31591,-2.6283 m 1.47878,0.31746 c -0.0599,-0.16981 -1.40434,1.74881 -1.1665,2.4548 0.10621,0.30639 1.34715,-1.9177 1.1665,-2.4548 m -6.98177,3.2623 c 0.0182,-0.0184 0.039,0.007 0.0599,0.0286 0.15614,0.52603 0.32952,1.02715 1.35804,1.15357 0.12074,0.0147 -0.57099,0.42544 -1.04577,0.17351 -0.43301,-0.26671 -0.47204,-1.23663 -0.37219,-1.35569 m 2.66707,2.64953 c 0.0953,-0.0147 0.16341,-0.0111 0.23058,0 0.25146,0.0647 -1.82465,1.16464 -1.98623,1.0133 -0.099,-0.0969 1.10659,-0.89056 1.75929,-1.0133 m 0.53922,0.69584 c 0.21605,0.0185 -1.20191,1.51071 -1.36168,1.35568 -0.1171,-0.10798 0.91868,-1.39167 1.36168,-1.35568"
       id="path4277" />
    <path
       id="path4258"
       d="m 384.57142,544.798 0,1.0625 c 0,1.0773 0.86022,1.9375 1.9375,1.9375 l 44.125,0 c 1.07728,0 1.9375,-0.8602 1.9375,-1.9375 l 0,-1.0625 c 0,1.0773 -0.86022,1.9375 -1.9375,1.9375 l -44.125,0 c -1.07728,0 -1.9375,-0.8602 -1.9375,-1.9375 z"
       style="fill:#000000;fill-opacity:1;stroke:none"
       inkscape:connector-curvature="0" />
    <path
       id="path4260"
       d="m 387.10267,500.4543 c -0.91709,0 -1.67115,0.6395 -1.84375,1.5 0.33561,-0.2799 0.77451,-0.4375 1.25,-0.4375 l 44.125,0 c 0.47549,0 0.91439,0.1576 1.25,0.4375 -0.1726,-0.8605 -0.92666,-1.5 -1.84375,-1.5 l -42.9375,0 z"
       style="fill:#ffffff;fill-opacity:0.5372549;stroke:none"
       inkscape:connector-curvature="0" />
    <path
       id="path4262"
       d="m 386.50892,499.798 c -1.07728,0 -1.9375,0.8602 -1.9375,1.9375 l 0,43.0625 c 0,0.7934 0.48002,1.449 1.15625,1.75 -0.30934,-0.3333 -0.5,-0.7824 -0.5,-1.2812 l 0,-42.9375 c 0,-1.0482 0.8269,-1.875 1.875,-1.875 l 42.9375,0 c 1.0481,0 1.875,0.8268 1.875,1.875 l 0,42.9375 c 0,0.4988 -0.19066,0.9479 -0.5,1.2812 0.67623,-0.301 1.15625,-0.9566 1.15625,-1.75 l 0,-43.0625 c 0,-1.0773 -0.86022,-1.9375 -1.9375,-1.9375 l -44.125,0 z"
       style="fill:#000000;fill-opacity:0.39215686;stroke:none"
       inkscape:connector-curvature="0" />
    <g
       id="g4317"
       transform="translate(329.04895,505.22607)" />
    <path
       id="path4204-6"
       d="m 393.37024,514.8017 c -0.0672,0.13381 -0.13435,0.2667 -0.1988,0.40052 1.02126,0.57678 3.96429,2.08012 5.36138,2.97068 1.76564,1.09913 4.1522,3.34167 4.34011,3.71912 -1.83645,3.25123 -1.0031,6.1287 -1.22006,6.43509 -0.15614,0.25564 -1.59952,1.86695 -1.13473,2.10505 0.46115,0.23439 1.19464,-0.13382 1.30539,-0.20581 0.23058,-0.14397 0.46842,-0.35345 0.36856,0.0609 -0.19517,0.84719 -1.08117,2.88394 0.14162,2.45112 0.14888,-0.0867 2.11695,-2.29239 2.35479,-2.36806 3.91528,1.03821 8.29443,0.56202 9.10508,0.17627 0.42212,0.0286 1.61676,0.79273 2.2976,1.15726 0.68084,0.36084 2.53544,1.26523 1.98623,-0.37837 -0.17066,-0.51957 -1.38981,-1.84572 -1.19192,-1.93247 0.43574,-0.17627 1.51419,0.45774 1.92905,0.57679 1.24094,0.35346 1.40797,-0.13659 0.62455,-1.21448 -0.77343,-1.0779 -0.88963,-0.91179 -1.13473,-1.40921 -0.19154,-0.40051 0,-0.84349 0.14162,-0.95146 0.25145,-0.19472 3.95703,-2.28592 4.82578,-3.08604 1.28724,-1.18957 0,-2.67444 -0.31591,-2.88394 -2.6698,-1.95369 -5.4113,-1.53563 -5.44671,-1.84571 -0.0181,-0.35346 -0.0109,-1.37321 -0.0572,-1.72667 -0.26598,-2.3939 -1.35441,-1.79127 -1.50329,-1.79127 -1.08843,0.1735 -0.6881,1.86695 -0.22695,3.46072 0.0354,0.40698 -0.37945,0.22702 -0.62455,-0.20211 -0.83698,-2.28223 -1.18829,-2.24254 -1.41887,-2.31084 -0.22331,-0.0507 -1.01036,0.43651 -0.99675,1.35938 0.004,0.26301 0.31228,1.5181 0.31228,1.90386 -0.5138,0.45773 -0.53922,1.49595 -1.07845,1.87432 -1.57046,0.3313 -5.34412,-0.78905 -5.81526,-0.83981 -1.63129,-0.31007 -2.3439,0.93394 -2.60625,0.63493 -2.67418,-3.00533 -8.2106,-5.21421 -9.78773,-5.96997 -0.10622,-0.0645 -0.22695,-0.11166 -0.34406,-0.17349 m 29.11265,2.16318 c -0.51108,0.55832 -0.42212,2.64583 -0.31591,2.6283 0.52107,-0.10798 0.47205,-2.79626 0.31591,-2.6283 m 1.47878,0.31746 c -0.0599,-0.16981 -1.40434,1.74881 -1.1665,2.4548 0.10621,0.30639 1.34715,-1.9177 1.1665,-2.4548 m -6.98177,3.2623 c 0.0182,-0.0184 0.039,0.007 0.0599,0.0286 0.15614,0.52603 0.32952,1.02715 1.35804,1.15357 0.12074,0.0147 -0.57099,0.42544 -1.04577,0.17351 -0.43301,-0.26671 -0.47204,-1.23663 -0.37219,-1.35569 m 2.66707,2.64953 c 0.0953,-0.0147 0.16341,-0.0111 0.23058,0 0.25146,0.0647 -1.82465,1.16464 -1.98623,1.0133 -0.099,-0.0969 1.10659,-0.89056 1.75929,-1.0133 m 0.53922,0.69584 c 0.21605,0.0185 -1.20191,1.51071 -1.36168,1.35568 -0.1171,-0.10798 0.91868,-1.39167 1.36168,-1.35568"
       inkscape:connector-curvature="0"
       style="fill:url(#linearGradient4265);fill-opacity:1;fill-rule:nonzero;stroke:none"
       sodipodi:nodetypes="ccccccccccccccccccccccccccccccccccccccccccccccccccc" />
    <path
       style="fill:#2b477a;fill-opacity:0.3137255;fill-rule:nonzero;stroke:none"
       d="M 8.7988281 15.003906 C 8.7316281 15.137716 8.6640594 15.270477 8.5996094 15.404297 C 9.6208694 15.981077 12.563848 17.48444 13.960938 18.375 C 15.512987 19.341167 17.458184 21.120802 18.054688 21.810547 C 18.138681 21.63797 18.201883 21.47001 18.300781 21.294922 C 18.112871 20.917472 15.726578 18.673349 13.960938 17.574219 C 13.676117 17.392663 13.298005 17.176481 12.914062 16.957031 C 11.281073 16.126016 9.8242672 15.504237 9.1347656 15.173828 C 9.0309542 15.110791 8.913434 15.0637 8.7988281 15.003906 z M 30.714844 15.984375 C 30.616651 16.52933 30.777621 17.318902 30.994141 18.132812 C 31.092083 18.143823 31.165249 18.094652 31.150391 17.923828 C 30.956204 17.252703 30.78084 16.569916 30.714844 15.984375 z M 28.173828 17.138672 C 28.1359 17.270869 28.107039 17.411938 28.109375 17.570312 C 28.112013 17.743758 28.22479 18.292426 28.316406 18.794922 C 28.350529 18.753531 28.382456 18.708945 28.421875 18.673828 C 28.421875 18.366634 28.255479 17.608433 28.173828 17.138672 z M 39.382812 17.480469 C 39.367374 17.436701 39.263976 17.537654 39.126953 17.714844 C 38.885884 18.285745 38.558918 18.873038 38.361328 19.076172 C 38.269302 19.309871 38.205671 19.526295 38.201172 19.710938 C 38.262503 19.753325 38.323476 19.781322 38.384766 19.826172 C 38.387072 19.827702 38.392122 19.836225 38.394531 19.837891 C 38.757531 19.421122 39.528392 17.913299 39.382812 17.480469 z M 37.994141 17.625 C 37.957187 18.272937 37.841382 18.939657 37.587891 18.992188 C 37.560668 18.996681 37.534674 18.857382 37.519531 18.646484 C 37.506263 18.888375 37.509467 19.09208 37.517578 19.283203 C 37.61791 19.339032 37.719475 19.410835 37.820312 19.472656 C 37.988532 19.008164 38.023251 18.161908 37.994141 17.625 z M 32.400391 19.943359 C 32.33866 20.016966 32.344509 20.408822 32.449219 20.765625 C 32.453263 20.769769 32.456867 20.767277 32.460938 20.771484 C 32.489904 20.869071 32.525044 20.963002 32.560547 21.056641 C 32.618091 21.15565 32.683643 21.244723 32.771484 21.298828 C 33.246264 21.550758 33.939099 21.1397 33.818359 21.125 C 32.789839 20.99858 32.617077 20.496733 32.460938 19.970703 C 32.440037 19.949103 32.418591 19.924959 32.400391 19.943359 z M 39.195312 21.90625 C 39.122717 22.177531 38.981958 22.451456 38.701172 22.710938 C 37.832422 23.511057 34.12645 25.602155 33.875 25.796875 C 33.73338 25.904845 33.540882 26.347537 33.732422 26.748047 C 33.738494 26.760371 33.744074 26.763852 33.75 26.775391 C 33.789345 26.694944 33.83323 26.627548 33.875 26.595703 C 34.12645 26.400983 37.832422 24.309886 38.701172 23.509766 C 39.267958 22.985985 39.324088 22.410453 39.195312 21.90625 z M 35.070312 22.591797 C 34.417612 22.714537 33.2135 23.508569 33.3125 23.605469 C 33.47408 23.756809 35.550288 22.656497 35.298828 22.591797 C 35.232787 22.580883 35.16312 22.577946 35.070312 22.591797 z M 35.609375 23.289062 C 35.524045 23.28213 35.413717 23.33309 35.296875 23.40625 C 35.336427 23.439415 35.178626 23.554593 34.951172 23.695312 C 34.551594 24.071788 34.175141 24.577303 34.248047 24.644531 C 34.407817 24.799561 35.825425 23.307563 35.609375 23.289062 z M 17.09375 26.298828 C 17.066252 26.829997 17.08383 27.248819 17.101562 27.611328 C 17.132836 27.413192 17.107525 26.91667 17.09375 26.298828 z M 32.505859 28.763672 C 32.433859 28.762973 32.368921 28.772888 32.314453 28.794922 C 32.215053 28.838496 32.472202 29.195773 32.775391 29.605469 C 33.278328 29.723713 33.937719 30.084504 34.242188 30.171875 C 35.267883 30.464026 35.522329 30.155469 35.150391 29.439453 C 34.973945 29.511672 34.676908 29.494916 34.242188 29.371094 C 33.879185 29.266925 33.009865 28.768566 32.505859 28.763672 z M 17.560547 29.449219 C 17.484747 29.467791 17.367243 29.556921 17.251953 29.628906 C 17.153283 29.693044 16.561715 29.989902 16.107422 29.888672 C 15.903485 30.231219 15.768518 30.543198 15.947266 30.634766 C 16.408416 30.869156 17.141203 30.499724 17.251953 30.427734 C 17.321363 30.384396 17.376184 30.35672 17.4375 30.320312 C 17.508162 30.089071 17.582647 29.856343 17.621094 29.689453 C 17.671024 29.482278 17.636347 29.430646 17.560547 29.449219 z M 20.117188 29.771484 C 19.879347 29.847154 17.910599 32.053925 17.761719 32.140625 C 17.452749 32.249988 17.280174 32.199682 17.195312 32.052734 C 17.067178 32.681994 17.102195 33.172899 17.761719 32.939453 C 17.910599 32.852753 19.879347 30.647936 20.117188 30.572266 C 24.032467 31.610476 28.412006 31.133797 29.222656 30.748047 C 29.644776 30.776647 30.838691 31.54172 31.519531 31.90625 C 32.198086 32.265879 34.039139 33.162089 33.507812 31.541016 C 33.170239 31.935128 32.024154 31.372915 31.519531 31.105469 C 30.838691 30.740939 29.644776 29.977819 29.222656 29.949219 C 28.412006 30.334969 24.032467 30.809694 20.117188 29.771484 z "
       transform="translate(384.57143,499.798)"
       id="path4285" />
    <path
       style="fill:#ffffff;fill-opacity:0.23529412;fill-rule:nonzero;stroke:none"
       d="M 8.7988281 15.003906 C 8.7316281 15.137716 8.6640594 15.270477 8.5996094 15.404297 C 8.6310014 15.422026 8.7209364 15.468846 8.7558594 15.488281 C 8.7700047 15.460121 8.7846534 15.432522 8.7988281 15.404297 C 8.913434 15.464091 9.0309542 15.511181 9.1347656 15.574219 C 10.711896 16.329979 16.247695 18.537639 18.921875 21.542969 C 19.184225 21.841979 19.898007 20.598133 21.529297 20.908203 C 22.000437 20.958963 25.77329 22.079347 27.34375 21.748047 C 27.88298 21.369677 27.908075 20.330777 28.421875 19.873047 C 28.421875 19.807607 28.383893 19.641542 28.369141 19.535156 C 27.909954 20.016513 27.862178 20.983882 27.34375 21.347656 C 25.77329 21.678956 22.000437 20.558573 21.529297 20.507812 C 19.898007 20.197743 19.184225 21.441588 18.921875 21.142578 C 16.247695 18.137248 10.711896 15.929588 9.1347656 15.173828 C 9.0309542 15.110791 8.913434 15.0637 8.7988281 15.003906 z M 31.847656 15.199219 C 31.620496 15.178909 31.432783 15.263672 31.376953 15.263672 C 30.797022 15.356115 30.647897 15.885246 30.697266 16.595703 C 30.731147 16.095802 30.913552 15.735977 31.376953 15.662109 C 31.525833 15.662109 32.614879 15.061178 32.880859 17.455078 C 32.927159 17.808538 32.9194 18.828181 32.9375 19.181641 C 32.97291 19.491721 35.714966 19.073654 38.384766 21.027344 C 38.578785 21.15601 39.134869 21.76721 39.240234 22.494141 C 39.339754 21.600982 38.613599 20.778707 38.384766 20.626953 C 38.133169 20.442842 37.881404 20.298877 37.630859 20.154297 C 37.615665 20.162555 37.604186 20.188029 37.587891 20.191406 C 37.581813 20.192409 37.578121 20.12929 37.572266 20.117188 C 35.186337 18.766131 32.969313 19.059831 32.9375 18.78125 C 32.9194 18.42779 32.927159 17.408148 32.880859 17.054688 C 32.714622 15.5585 32.226257 15.233068 31.847656 15.199219 z M 29.107422 16.210938 C 28.884112 16.160237 28.095765 16.647443 28.109375 17.570312 C 28.10969 17.591014 28.130979 17.680804 28.134766 17.712891 C 28.253106 16.959726 28.906181 16.565639 29.107422 16.611328 C 29.338002 16.679628 29.688411 16.639645 30.525391 18.921875 C 30.770491 19.351005 31.185791 19.530027 31.150391 19.123047 C 31.131042 19.056177 31.116685 18.990929 31.097656 18.923828 C 30.982673 19.019387 30.707711 18.840697 30.525391 18.521484 C 29.688411 16.239254 29.338002 16.279238 29.107422 16.210938 z M 37.902344 17.164062 C 37.584533 17.511249 37.509517 18.41437 37.515625 19.070312 C 37.545643 18.486824 37.650179 17.837973 37.902344 17.5625 C 37.963869 17.496317 37.996158 17.910277 37.996094 18.398438 C 38.032244 17.724035 37.981472 17.078944 37.902344 17.164062 z M 39.382812 17.480469 C 39.322912 17.310659 37.977004 19.229557 38.214844 19.935547 C 38.356565 19.135497 39.214498 17.904878 39.353516 17.890625 C 39.392563 17.722183 39.413571 17.571917 39.382812 17.480469 z M 32.378906 21.253906 C 32.324954 21.521903 32.392058 22.264341 32.771484 22.498047 C 33.246264 22.749977 33.939099 22.338919 33.818359 22.324219 C 33.566898 22.29331 33.368507 22.240513 33.207031 22.169922 C 33.059279 22.181802 32.907833 22.170006 32.771484 22.097656 C 32.524752 21.945683 32.416998 21.575006 32.378906 21.253906 z M 18.177734 22.351562 C 17.274781 24.071596 17.097011 25.615355 17.089844 26.757812 C 17.143772 25.600681 17.396919 24.094328 18.300781 22.494141 C 18.289371 22.471221 18.204728 22.387563 18.177734 22.351562 z M 35.070312 23.792969 C 34.417612 23.915709 33.2135 24.709741 33.3125 24.806641 C 33.47408 24.957981 35.550288 23.857669 35.298828 23.792969 C 35.232787 23.782055 35.16312 23.779118 35.070312 23.792969 z M 35.609375 24.488281 C 35.509028 24.480129 35.377217 24.546261 35.236328 24.644531 C 35.030969 24.871422 34.803008 25.099587 34.599609 25.263672 C 34.372129 25.538304 34.198962 25.798488 34.248047 25.84375 C 34.407817 25.99878 35.825425 24.506781 35.609375 24.488281 z M 33.681641 27.355469 C 33.637941 27.531399 33.635083 27.74373 33.732422 27.947266 C 33.977522 28.444686 34.093757 28.279522 34.867188 29.357422 C 35.090397 29.664531 35.226925 29.91729 35.292969 30.123047 C 35.419314 29.917043 35.275992 29.519496 34.867188 28.957031 C 34.093757 27.879131 33.977522 28.046248 33.732422 27.548828 C 33.701804 27.484805 33.69445 27.42012 33.681641 27.355469 z M 17.109375 28.367188 C 17.104009 28.432371 17.101105 28.502362 17.082031 28.529297 C 16.929644 28.778793 15.555963 30.316073 15.921875 30.611328 C 16.153659 30.043016 16.966648 29.118599 17.082031 28.929688 C 17.129254 28.863 17.123308 28.654821 17.109375 28.367188 z M 32.46875 29.970703 C 32.413139 29.973368 32.358353 29.976382 32.314453 29.994141 C 32.116563 30.080891 33.335199 31.408164 33.505859 31.927734 C 33.548612 32.055679 33.553052 32.141712 33.568359 32.240234 C 33.627607 32.090858 33.618796 31.865324 33.505859 31.527344 C 33.386516 31.164005 32.770413 30.423237 32.46875 29.970703 z M 17.572266 30.65625 C 17.411738 31.250446 17.070038 32.186564 17.154297 32.679688 C 17.230846 32.107909 17.518162 31.335477 17.621094 30.888672 C 17.667127 30.697667 17.635963 30.649655 17.572266 30.65625 z "
       transform="translate(384.57143,499.798)"
       id="path4290" />
  </g>
</svg>
