<?xml version="1.0" encoding="UTF-8" standalone="no"?>
<!-- Created with Inkscape (http://www.inkscape.org/) -->

<svg
   xmlns:dc="http://purl.org/dc/elements/1.1/"
   xmlns:cc="http://creativecommons.org/ns#"
   xmlns:rdf="http://www.w3.org/1999/02/22-rdf-syntax-ns#"
   xmlns:svg="http://www.w3.org/2000/svg"
   xmlns="http://www.w3.org/2000/svg"
   xmlns:xlink="http://www.w3.org/1999/xlink"
   xmlns:sodipodi="http://sodipodi.sourceforge.net/DTD/sodipodi-0.dtd"
   xmlns:inkscape="http://www.inkscape.org/namespaces/inkscape"
   width="48"
   height="48"
   id="svg2"
   version="1.1"
   inkscape:version="0.48+devel r12487"
   sodipodi:docname="desura.svg">
  <defs
     id="defs4">
    <linearGradient
       id="linearGradient4052">
      <stop
         style="stop-color:#bee0fa;stop-opacity:1"
         offset="0"
         id="stop4054" />
      <stop
         style="stop-color:#f5fbfe;stop-opacity:1"
         offset="1"
         id="stop4056" />
    </linearGradient>
    <linearGradient
       id="linearGradient1409">
      <stop
         id="stop1411"
         offset="0"
         style="stop-color:#1378c1;stop-opacity:1" />
      <stop
         id="stop1413"
         offset="1"
         style="stop-color:#329feb;stop-opacity:1" />
    </linearGradient>
    <linearGradient
       inkscape:collect="always"
       xlink:href="#linearGradient1409"
       id="linearGradient1407"
       x1="85.247993"
       y1="-1051.4783"
       x2="85.247993"
       y2="-1003.7486"
       gradientUnits="userSpaceOnUse"
       gradientTransform="translate(-61.913469,-0.92552397)" />
    <linearGradient
       inkscape:collect="always"
       xlink:href="#linearGradient4052"
       id="linearGradient4050"
       x1="25.985815"
       y1="1043.7949"
       x2="25.985815"
       y2="1013.0998"
       gradientUnits="userSpaceOnUse" />
  </defs>
  <sodipodi:namedview
     id="base"
     pagecolor="#ffffff"
     bordercolor="#666666"
     borderopacity="1.0"
     inkscape:pageopacity="0.0"
     inkscape:pageshadow="2"
     inkscape:zoom="6.2313785"
     inkscape:cx="45.413434"
     inkscape:cy="32.963698"
     inkscape:document-units="px"
     inkscape:current-layer="layer1"
     showgrid="false"
     inkscape:window-width="1366"
     inkscape:window-height="718"
     inkscape:window-x="0"
     inkscape:window-y="30"
     inkscape:window-maximized="1">
    <inkscape:grid
       type="xygrid"
       id="grid3850" />
  </sodipodi:namedview>
  <metadata
     id="metadata7">
    <rdf:RDF>
      <cc:Work
         rdf:about="">
        <dc:format>image/svg+xml</dc:format>
        <dc:type
           rdf:resource="http://purl.org/dc/dcmitype/StillImage" />
        <dc:title />
      </cc:Work>
    </rdf:RDF>
  </metadata>
  <g
     inkscape:label="Capa 1"
     inkscape:groupmode="layer"
     id="layer1"
     transform="translate(0,-1004.3622)">
    <rect
       style="fill:url(#linearGradient1407);fill-opacity:1;stroke:none"
       id="rect2991-1"
       width="48"
       height="48"
       x="-1.2963867e-06"
       y="-1052.3622"
       ry="1.9445436"
       transform="scale(1,-1)" />
    <path
       d="m 24.022066,1014.1633 c -0.03528,-0.016 -1.676756,1.3634 -3.652287,3.0803 -2.861339,2.4864 -3.645806,3.1248 -3.828302,3.1244 -0.125984,-2e-4 -2.155021,-0.1908 -4.532357,-0.4402 -2.377333,-0.2494 -4.3372896,-0.437 -4.3563432,-0.418 -0.037465,0.038 -3.3209794,10.8959 -3.3662639,11.133 -0.01944,0.1017 1.2949909,1.2675 4.5103563,4.0041 l 4.5323568,3.8503 1.628125,0 c 0.892195,0 1.785438,-0.037 2.002158,-0.063 l 0.39603,-0.043 -4.774371,-3.9602 c -2.6276453,-2.1734 -4.7717729,-4.0033 -4.7743784,-4.0704 -0.00268,-0.065 0.4439721,-1.4745 0.9900796,-3.1463 0.5461088,-1.6717 1.0897526,-3.4041 1.2320958,-3.8502 0.256862,-0.8049 0.263606,-0.8172 0.528042,-0.8141 0.146558,0 1.887005,0.1963 3.850303,0.4401 l 3.564281,0.4401 2.794219,-2.3981 c 1.536857,-1.3278 2.894131,-2.5081 3.014239,-2.6185 l 0.220014,-0.1979 2.200177,1.892 c 1.206741,1.0442 2.556697,2.2247 3.014235,2.6184 l 0.836068,0.7041 3.806301,-0.4622 c 2.096197,-0.2589 3.814824,-0.4651 3.8283,-0.44 0.04295,0.079 2.552201,7.8022 2.552201,7.8547 0,0.028 -2.159442,1.839 -4.796379,4.0262 l -4.79638,3.9823 0.418038,0.043 c 0.223428,0.028 1.122164,0.061 2.002153,0.063 l 1.606129,0.021 4.510355,-3.8509 c 2.482897,-2.11 4.519725,-3.8642 4.532357,-3.916 0.01894,-0.078 -3.284688,-11.2052 -3.344266,-11.2647 -0.01017,-0.016 -1.978714,0.1882 -4.378341,0.44 -2.399627,0.2512 -4.45342,0.453 -4.576359,0.4399 -0.157455,-0.018 -1.287512,-0.9343 -3.784299,-3.1025 C 25.680768,1015.5718 24.057331,1014.1746 24.022066,1014.1624 z m -0.04399,6.7106 -2.024158,2.0462 -2.002156,2.0682 0,1.7823 c -0.0061,2.7994 0.316028,5.1755 0.968073,7.1942 0.599464,1.8564 1.29857,3.1018 2.354186,4.1585 0.354247,0.3544 0.66341,0.6379 0.704055,0.6379 0.163485,0 1.010971,-0.835 1.452117,-1.4297 0.65616,-0.8852 1.206968,-1.9725 1.628127,-3.2565 0.683484,-2.0844 0.950961,-3.9016 1.012081,-6.9085 l 0.04399,-2.1782 -2.068163,-2.0682 L 23.978063,1020.8739 z m 12.408981,4.1803 c -0.02069,-0.02 -1.196719,0.1007 -2.618208,0.2641 -1.421487,0.1621 -2.636274,0.3079 -2.68421,0.3079 -0.05624,0 -0.08798,0.3827 -0.08798,1.0782 0,3.6642 -1.318449,8.0808 -3.278259,11.0008 -0.454016,0.6765 -0.498119,0.8041 -0.308023,0.6821 1.269305,-0.8155 10.312216,-8.4654 10.27481,-8.6907 C 37.644087,1029.449 36.425745,1025.0932 36.387028,1025.0542 z m -24.773953,0.043 c -0.03408,0.037 -0.333651,1.1166 -0.682054,2.3977 l -0.638049,2.3105 0.220018,0.2201 c 2.123676,1.8594 7.951636,6.7402 9.328734,7.8106 0.477793,0.3711 0.888516,0.6513 0.902071,0.6377 0.0136,-0.016 -0.207107,-0.3815 -0.506041,-0.836 -1.919586,-2.9164 -3.070837,-6.7444 -3.256257,-10.8248 -0.0301,-0.6613 -0.083,-1.1879 -0.110002,-1.1879 -0.02698,0 -1.204004,-0.1465 -2.618205,-0.3083 C 12.839093,1025.1552 11.647184,1025.0608 11.61309,1025.0975 z m 7.634602,15.0048 -4.796377,0.02 4.774376,2.442 c 2.616767,1.3356 4.771786,2.4069 4.796376,2.3981 0.02459,-0.016 2.183177,-1.0931 4.796379,-2.4202 l 4.752374,-2.4199 -4.774376,-0.02 C 26.170083,1040.0878 21.875892,1040.0878 19.247682,1040.1028 Z"
       inkscape:connector-curvature="0"
       id="path4062"
       style="fill:#000000;fill-opacity:0.11764706;display:inline" />
    <path
       style="fill:#000000;fill-opacity:0.11764706;display:inline"
       id="path4060"
       inkscape:connector-curvature="0"
       d="m 24.022066,1013.7633 c -0.03528,-0.016 -1.676756,1.3634 -3.652287,3.0803 -2.861339,2.4864 -3.645806,3.1248 -3.828302,3.1244 -0.125984,-2e-4 -2.155021,-0.1908 -4.532357,-0.4402 -2.377333,-0.2494 -4.3372896,-0.437 -4.3563432,-0.418 -0.037465,0.038 -3.3209794,10.8959 -3.3662639,11.133 -0.01944,0.1017 1.2949909,1.2675 4.5103563,4.0041 l 4.5323568,3.8503 1.628125,0 c 0.892195,0 1.785438,-0.037 2.002158,-0.063 l 0.39603,-0.043 -4.774371,-3.9602 c -2.6276453,-2.1734 -4.7717729,-4.0033 -4.7743784,-4.0704 -0.00268,-0.065 0.4439721,-1.4745 0.9900796,-3.1463 0.5461088,-1.6717 1.0897526,-3.4041 1.2320958,-3.8502 0.256862,-0.8049 0.263606,-0.8172 0.528042,-0.8141 0.146558,0 1.887005,0.1963 3.850303,0.4401 l 3.564281,0.4401 2.794219,-2.3981 c 1.536857,-1.3278 2.894131,-2.5081 3.014239,-2.6185 l 0.220014,-0.1979 2.200177,1.892 c 1.206741,1.0442 2.556697,2.2247 3.014235,2.6184 l 0.836068,0.7041 3.806301,-0.4622 c 2.096197,-0.2589 3.814824,-0.4651 3.8283,-0.44 0.04295,0.079 2.552201,7.8022 2.552201,7.8547 0,0.028 -2.159442,1.839 -4.796379,4.0262 l -4.79638,3.9823 0.418038,0.043 c 0.223428,0.028 1.122164,0.061 2.002153,0.063 l 1.606129,0.021 4.510355,-3.8509 c 2.482897,-2.11 4.519725,-3.8642 4.532357,-3.916 0.01894,-0.078 -3.284688,-11.2052 -3.344266,-11.2647 -0.01017,-0.016 -1.978714,0.1882 -4.378341,0.44 -2.399627,0.2512 -4.45342,0.453 -4.576359,0.4399 -0.157455,-0.018 -1.287512,-0.9343 -3.784299,-3.1025 C 25.680768,1015.1718 24.057331,1013.7746 24.022066,1013.7624 z m -0.04399,6.7106 -2.024158,2.0462 -2.002156,2.0682 0,1.7823 c -0.0061,2.7994 0.316028,5.1755 0.968073,7.1942 0.599464,1.8564 1.29857,3.1018 2.354186,4.1585 0.354247,0.3544 0.66341,0.6379 0.704055,0.6379 0.163485,0 1.010971,-0.835 1.452117,-1.4297 0.65616,-0.8852 1.206968,-1.9725 1.628127,-3.2565 0.683484,-2.0844 0.950961,-3.9016 1.012081,-6.9085 l 0.04399,-2.1782 -2.068163,-2.0682 L 23.978063,1020.4739 z m 12.408981,4.1803 c -0.02069,-0.02 -1.196719,0.1007 -2.618208,0.2641 -1.421487,0.1621 -2.636274,0.3079 -2.68421,0.3079 -0.05624,0 -0.08798,0.3827 -0.08798,1.0782 0,3.6642 -1.318449,8.0808 -3.278259,11.0008 -0.454016,0.6765 -0.498119,0.8041 -0.308023,0.6821 1.269305,-0.8155 10.312216,-8.4654 10.27481,-8.6907 C 37.644087,1029.049 36.425745,1024.6932 36.387028,1024.6542 z m -24.773953,0.043 c -0.03408,0.037 -0.333651,1.1166 -0.682054,2.3977 l -0.638049,2.3105 0.220018,0.2201 c 2.123676,1.8594 7.951636,6.7402 9.328734,7.8106 0.477793,0.3711 0.888516,0.6513 0.902071,0.6377 0.0136,-0.016 -0.207107,-0.3815 -0.506041,-0.836 -1.919586,-2.9164 -3.070837,-6.7444 -3.256257,-10.8248 -0.0301,-0.6613 -0.083,-1.1879 -0.110002,-1.1879 -0.02698,0 -1.204004,-0.1465 -2.618205,-0.3083 C 12.839093,1024.7552 11.647184,1024.6608 11.61309,1024.6975 z m 7.634602,15.0048 -4.796377,0.02 4.774376,2.442 c 2.616767,1.3356 4.771786,2.4069 4.796376,2.3981 0.02459,-0.016 2.183177,-1.0931 4.796379,-2.4202 l 4.752374,-2.4199 -4.774376,-0.02 C 26.170083,1039.6878 21.875892,1039.6878 19.247682,1039.7028 Z" />
    <path
       d="m 24.022066,1013.3633 c -0.03528,-0.016 -1.676756,1.3634 -3.652287,3.0803 -2.861339,2.4864 -3.645806,3.1248 -3.828302,3.1244 -0.125984,-2e-4 -2.155021,-0.1908 -4.532357,-0.4402 -2.377333,-0.2494 -4.3372896,-0.437 -4.3563432,-0.418 -0.037465,0.038 -3.3209794,10.8959 -3.3662639,11.133 -0.01944,0.1017 1.2949909,1.2675 4.5103563,4.0041 l 4.5323568,3.8503 1.628125,0 c 0.892195,0 1.785438,-0.037 2.002158,-0.063 l 0.39603,-0.043 -4.774371,-3.9602 c -2.6276453,-2.1734 -4.7717729,-4.0033 -4.7743784,-4.0704 -0.00268,-0.065 0.4439721,-1.4745 0.9900796,-3.1463 0.5461088,-1.6717 1.0897526,-3.4041 1.2320958,-3.8502 0.256862,-0.8049 0.263606,-0.8172 0.528042,-0.8141 0.146558,0 1.887005,0.1963 3.850303,0.4401 l 3.564281,0.4401 2.794219,-2.3981 c 1.536857,-1.3278 2.894131,-2.5081 3.014239,-2.6185 l 0.220014,-0.1979 2.200177,1.892 c 1.206741,1.0442 2.556697,2.2247 3.014235,2.6184 l 0.836068,0.7041 3.806301,-0.4622 c 2.096197,-0.2589 3.814824,-0.4651 3.8283,-0.44 0.04295,0.079 2.552201,7.8022 2.552201,7.8547 0,0.028 -2.159442,1.839 -4.796379,4.0262 l -4.79638,3.9823 0.418038,0.043 c 0.223428,0.028 1.122164,0.061 2.002153,0.063 l 1.606129,0.021 4.510355,-3.8509 c 2.482897,-2.11 4.519725,-3.8642 4.532357,-3.916 0.01894,-0.078 -3.284688,-11.2052 -3.344266,-11.2647 -0.01017,-0.016 -1.978714,0.1882 -4.378341,0.44 -2.399627,0.2512 -4.45342,0.453 -4.576359,0.4399 -0.157455,-0.018 -1.287512,-0.9343 -3.784299,-3.1025 C 25.680768,1014.7718 24.057331,1013.3746 24.022066,1013.3624 z m -0.04399,6.7106 -2.024158,2.0462 -2.002156,2.0682 0,1.7823 c -0.0061,2.7994 0.316028,5.1755 0.968073,7.1942 0.599464,1.8564 1.29857,3.1018 2.354186,4.1585 0.354247,0.3544 0.66341,0.6379 0.704055,0.6379 0.163485,0 1.010971,-0.835 1.452117,-1.4297 0.65616,-0.8852 1.206968,-1.9725 1.628127,-3.2565 0.683484,-2.0844 0.950961,-3.9016 1.012081,-6.9085 l 0.04399,-2.1782 -2.068163,-2.0682 L 23.978063,1020.0739 z m 12.408981,4.1803 c -0.02069,-0.02 -1.196719,0.1007 -2.618208,0.2641 -1.421487,0.1621 -2.636274,0.3079 -2.68421,0.3079 -0.05624,0 -0.08798,0.3827 -0.08798,1.0782 0,3.6642 -1.318449,8.0808 -3.278259,11.0008 -0.454016,0.6765 -0.498119,0.8041 -0.308023,0.6821 1.269305,-0.8155 10.312216,-8.4654 10.27481,-8.6907 C 37.644087,1028.649 36.425745,1024.2932 36.387028,1024.2542 z m -24.773953,0.043 c -0.03408,0.037 -0.333651,1.1166 -0.682054,2.3977 l -0.638049,2.3105 0.220018,0.2201 c 2.123676,1.8594 7.951636,6.7402 9.328734,7.8106 0.477793,0.3711 0.888516,0.6513 0.902071,0.6377 0.0136,-0.016 -0.207107,-0.3815 -0.506041,-0.836 -1.919586,-2.9164 -3.070837,-6.7444 -3.256257,-10.8248 -0.0301,-0.6613 -0.083,-1.1879 -0.110002,-1.1879 -0.02698,0 -1.204004,-0.1465 -2.618205,-0.3083 C 12.839093,1024.3552 11.647184,1024.2608 11.61309,1024.2975 z m 7.634602,15.0048 -4.796377,0.02 4.774376,2.442 c 2.616767,1.3356 4.771786,2.4069 4.796376,2.3981 0.02459,-0.016 2.183177,-1.0931 4.796379,-2.4202 l 4.752374,-2.4199 -4.774376,-0.02 C 26.170083,1039.2878 21.875892,1039.2878 19.247682,1039.3028 Z"
       inkscape:connector-curvature="0"
       id="path4058"
       style="fill:#000000;fill-opacity:0.23529412;display:inline" />
    <path
       inkscape:connector-curvature="0"
       style="fill:#000000;fill-opacity:1;stroke:none"
       d="m 3.2963867e-6,1049.3622 0,1.0625 c 0,1.0773 0.8602000036133,1.9375 1.9375000036133,1.9375 l 44.1249977,0 c 1.0773,0 1.9375,-0.8602 1.9375,-1.9375 l 0,-1.0625 c 0,1.0773 -0.8602,1.9375 -1.9375,1.9375 l -44.1249977,0 C 0.8602033,1051.2997 3.2963867e-6,1050.4395 3.2963867e-6,1049.3622 Z"
       id="rect846" />
    <path
       inkscape:connector-curvature="0"
       style="fill:#ffffff;fill-opacity:0.5372549;stroke:none"
       d="m 2.5312033,1005.0185 c -0.917,0 -1.6711,0.6395 -1.8437,1.5 0.3356,-0.2799 0.7745,-0.4375 1.25,-0.4375 l 44.1249977,0 c 0.4755,0 0.9144,0.1576 1.25,0.4375 -0.1726,-0.8605 -0.9267,-1.5 -1.8437,-1.5 L 2.5312033,1005.0185 Z"
       id="path7515" />
    <path
       inkscape:connector-curvature="0"
       style="fill:#000000;fill-opacity:0.39215686;stroke:none"
       d="m 1.9375033,1004.3622 c -1.0773,0 -1.9375000036133,0.8602 -1.9375000036133,1.9375 l 0,43.0625 c 0,0.7934 0.4800000036133,1.449 1.1562000036133,1.75 -0.3093,-0.3333 -0.5,-0.7824 -0.5,-1.2812 l 0,-42.9375 c 0,-1.0482 0.8269,-1.875 1.875,-1.875 l 42.9375977,0 c 1.0481,0 1.875,0.8268 1.875,1.875 l 0,42.9375 c 0,0.4988 -0.1907,0.9479 -0.5,1.2812 0.6762,-0.301 1.1562,-0.9566 1.1562,-1.75 l 0,-43.0625 c 0,-1.0773 -0.8602,-1.9375 -1.9375,-1.9375 L 1.9375033,1004.3622 Z"
       id="rect4280-7" />
    <rect
       style="fill:none;stroke:none"
       id="rect1526"
       width="48"
       height="48"
       x="-1.2963867e-06"
       y="1004.3622"
       ry="0" />
    <path
       style="fill:url(#linearGradient4050);fill-opacity:1;display:inline"
       id="path3033"
       inkscape:connector-curvature="0"
       d="m 24.022066,1012.9632 c -0.03528,-0.016 -1.676756,1.3634 -3.652287,3.0803 -2.861339,2.4864 -3.645806,3.1248 -3.828302,3.1244 -0.125984,-2e-4 -2.155021,-0.1908 -4.532357,-0.4402 -2.377333,-0.2494 -4.3372896,-0.437 -4.3563432,-0.418 -0.037465,0.038 -3.3209794,10.8959 -3.3662639,11.133 -0.01944,0.1017 1.2949909,1.2675 4.5103563,4.0041 l 4.5323568,3.8503 1.628125,0 c 0.892195,0 1.785438,-0.037 2.002158,-0.063 l 0.39603,-0.043 -4.774371,-3.9602 c -2.6276453,-2.1734 -4.7717729,-4.0033 -4.7743784,-4.0704 -0.00268,-0.065 0.4439721,-1.4745 0.9900796,-3.1463 0.5461088,-1.6717 1.0897526,-3.4041 1.2320958,-3.8502 0.256862,-0.8049 0.263606,-0.8172 0.528042,-0.8141 0.146558,0 1.887005,0.1963 3.850303,0.4401 l 3.564281,0.4401 2.794219,-2.3981 c 1.536857,-1.3278 2.894131,-2.5081 3.014239,-2.6185 l 0.220014,-0.1979 2.200177,1.892 c 1.206741,1.0442 2.556697,2.2247 3.014235,2.6184 l 0.836068,0.7041 3.806301,-0.4622 c 2.096197,-0.2589 3.814824,-0.4651 3.8283,-0.44 0.04295,0.079 2.552201,7.8022 2.552201,7.8547 0,0.028 -2.159442,1.839 -4.796379,4.0262 l -4.79638,3.9823 0.418038,0.043 c 0.223428,0.028 1.122164,0.061 2.002153,0.063 l 1.606129,0.021 4.510355,-3.8509 c 2.482897,-2.11 4.519725,-3.8642 4.532357,-3.916 0.01894,-0.078 -3.284688,-11.2052 -3.344266,-11.2647 -0.01017,-0.016 -1.978714,0.1882 -4.378341,0.44 -2.399627,0.2512 -4.45342,0.453 -4.576359,0.4399 -0.157455,-0.018 -1.287512,-0.9343 -3.784299,-3.1025 C 25.680768,1014.3717 24.057331,1012.9745 24.022066,1012.9623 z m -0.04399,6.7106 -2.024158,2.0462 -2.002156,2.0682 0,1.7823 c -0.0061,2.7994 0.316028,5.1755 0.968073,7.1942 0.599464,1.8564 1.29857,3.1018 2.354186,4.1585 0.354247,0.3544 0.66341,0.6379 0.704055,0.6379 0.163485,0 1.010971,-0.835 1.452117,-1.4297 0.65616,-0.8852 1.206968,-1.9725 1.628127,-3.2565 0.683484,-2.0844 0.950961,-3.9016 1.012081,-6.9085 l 0.04399,-2.1782 L 26.046228,1021.72 23.978063,1019.6738 z m 12.408981,4.1803 c -0.02069,-0.02 -1.196719,0.1007 -2.618208,0.2641 -1.421487,0.1621 -2.636274,0.3079 -2.68421,0.3079 -0.05624,0 -0.08798,0.3827 -0.08798,1.0782 0,3.6642 -1.318449,8.0808 -3.278259,11.0008 -0.454016,0.6765 -0.498119,0.8041 -0.308023,0.6821 1.269305,-0.8155 10.312216,-8.4654 10.27481,-8.6907 C 37.644087,1028.2489 36.425745,1023.8931 36.387028,1023.8541 z m -24.773953,0.043 c -0.03408,0.037 -0.333651,1.1166 -0.682054,2.3977 l -0.638049,2.3105 0.220018,0.2201 c 2.123676,1.8594 7.951636,6.7402 9.328734,7.8106 0.477793,0.3711 0.888516,0.6513 0.902071,0.6377 0.0136,-0.016 -0.207107,-0.3815 -0.506041,-0.836 -1.919586,-2.9164 -3.070837,-6.7444 -3.256257,-10.8248 -0.0301,-0.6613 -0.083,-1.1879 -0.110002,-1.1879 -0.02698,0 -1.204004,-0.1465 -2.618205,-0.3083 C 12.839093,1023.9551 11.647184,1023.8607 11.61309,1023.8974 z m 7.634602,15.0048 -4.796377,0.02 4.774376,2.442 c 2.616767,1.3356 4.771786,2.4069 4.796376,2.3981 0.02459,-0.016 2.183177,-1.0931 4.796379,-2.4202 l 4.752374,-2.4199 -4.774376,-0.02 C 26.170083,1038.8877 21.875892,1038.8877 19.247682,1038.9027 Z" />
    <path
       style="fill:#ffffff;fill-opacity:0.23529412;display:inline"
       d="m 24.03125,1012.9624 c -0.03528,-0.016 -1.680719,1.3769 -3.65625,3.0938 -2.861339,2.4864 -3.661254,3.1254 -3.84375,3.125 -0.125984,-2e-4 -2.153914,-0.1881 -4.53125,-0.4375 -2.377333,-0.2494 -4.3246964,-0.4565 -4.34375,-0.4375 -0.037465,0.038 -3.3297155,10.9191 -3.375,11.1562 -0.00171,0.01 0.074447,0.068 0.09375,0.094 0.2009091,-0.7452 3.24474,-10.8067 3.28125,-10.8438 0.019054,-0.019 1.966417,0.1569 4.34375,0.4063 2.377336,0.2494 4.405266,0.4685 4.53125,0.4687 0.182496,4e-4 0.982411,-0.6386 3.84375,-3.125 1.975531,-1.7169 3.62097,-3.1097 3.65625,-3.0937 0.03526,0.012 1.644165,1.4015 3.59375,3.0937 2.496787,2.1682 3.623795,3.107 3.78125,3.125 0.122939,0.013 2.194123,-0.2175 4.59375,-0.4687 2.399627,-0.2518 4.36483,-0.4535 4.375,-0.4375 0.05793,0.058 3.094475,10.3147 3.25,10.9687 0.0022,-0 0.09347,-0.093 0.09375,-0.094 0.01894,-0.078 -3.284172,-11.1905 -3.34375,-11.25 -0.01017,-0.016 -1.975373,0.1857 -4.375,0.4375 -2.399627,0.2512 -4.470811,0.4506 -4.59375,0.4375 -0.157455,-0.018 -1.284463,-0.9568 -3.78125,-3.125 C 25.675415,1014.364 24.066515,1012.9746 24.03125,1012.9624 z m -0.0625,6.7188 -2,2.0312 -2.03125,2.0938 0,0.375 2.03125,-2.0625 2,-2.0313 2.0625,2.0313 2.09375,2.0625 0,-0.375 -2.09375,-2.0938 L 23.96875,1019.6812 z m 12.40625,4.1875 c -0.02069,-0.02 -1.172261,0.087 -2.59375,0.25 -1.421487,0.1621 -2.639564,0.3125 -2.6875,0.3125 -0.04216,0 -0.05093,0.2868 -0.0625,0.6875 0.01497,-0.1826 0.03438,-0.2813 0.0625,-0.2813 0.04794,0 1.266013,-0.1504 2.6875,-0.3125 1.421489,-0.1634 2.57306,-0.27 2.59375,-0.25 0.03609,0.036 1.041631,3.5982 1.21875,4.3125 0.01472,-0.02 0.09487,-0.087 0.09375,-0.094 C 37.6464,1028.2461 36.413717,1023.9077 36.375,1023.8687 z m -24.75,0.031 c -0.03408,0.037 -0.339097,1.1252 -0.6875,2.4063 l -0.65625,2.3125 0.09375,0.094 0.5625,-2 c 0.348403,-1.2811 0.65342,-2.3692 0.6875,-2.4062 0.03409,-0.037 1.210774,0.057 2.625,0.2187 1.414201,0.1618 2.59802,0.3125 2.625,0.3125 0.027,0 0.06365,0.5262 0.09375,1.1875 0.18542,4.0804 1.361664,7.8961 3.28125,10.8125 0.05554,0.085 0.04461,0.08 0.09375,0.1563 0.136256,0.094 0.400166,0.2873 0.40625,0.2812 0.0136,-0.016 -0.201066,-0.3892 -0.5,-0.8437 -1.919586,-2.9164 -3.09583,-6.7321 -3.28125,-10.8125 -0.0301,-0.6613 -0.06675,-1.1875 -0.09375,-1.1875 -0.02698,0 -1.210799,-0.1507 -2.625,-0.3125 C 12.835774,1023.9571 11.659094,1023.8632 11.625,1023.8999 z m 19.375,1.625 c 0,3.6642 -1.32144,8.08 -3.28125,11 -0.454016,0.6765 -0.502596,0.7783 -0.3125,0.6563 0.04927,-0.032 0.178297,-0.1361 0.25,-0.1875 0.02883,-0.044 0.02938,-0.044 0.0625,-0.094 1.95981,-2.92 3.28125,-7.3358 3.28125,-11 C 31,1025.7333 30.996455,1025.6547 31,1025.5249 z m -23.09375,3.75 c -0.00687,0.027 -0.093993,0.2754 -0.09375,0.2813 0.00261,0.067 2.1536047,1.9203 4.78125,4.0937 l 4.34375,3.5938 c 0.0037,-4e-4 0.02787,4e-4 0.03125,0 l 0.375,-0.031 -4.75,-3.9687 C 10.059473,1031.1475 8.0535256,1029.4587 7.90625,1029.2749 z m 32.25,0 c -0.08822,0.1003 -2.137287,1.7963 -4.71875,3.9375 l -4.78125,4 0.40625,0.031 4.375,-3.625 c 2.636937,-2.1872 4.8125,-4.0033 4.8125,-4.0313 C 40.25,1029.5854 40.163783,1029.3 40.15625,1029.2749 z m -20.90625,9.625 -4.8125,0.031 0.78125,0.4062 4.03125,-0.031 c 2.62821,-0.015 6.904875,-0.014 9.53125,0 l 4,0.031 0.78125,-0.4062 -4.78125,-0.031 C 26.154875,1038.8857 21.87821,1038.8849 19.25,1038.8999 Z"
       id="path4069"
       inkscape:connector-curvature="0" />
    <path
       inkscape:connector-curvature="0"
       id="path4071"
       d="m 24.000104,1016.1995 -0.21875,0.2188 c -0.120108,0.1104 -1.463143,1.2659 -3,2.5937 l -2.8125,2.4063 -3.5625,-0.4375 c -1.963298,-0.2438 -3.697192,-0.4375 -3.84375,-0.4375 -0.264436,0 -0.274388,0.01 -0.53125,0.8125 -0.1423431,0.4461 -0.7038911,2.172 -1.2499999,3.8437 -0.5461075,1.6718 -0.97143,3.0913 -0.96875,3.1563 1.833e-4,0 0.1666997,0.1658 0.1875,0.1875 0.1293905,-0.4447 0.3430724,-1.1899 0.78125,-2.5313 0.5461088,-1.6717 1.1076568,-3.3976 1.2499999,-3.8437 0.256862,-0.8049 0.266814,-0.8156 0.53125,-0.8125 0.146558,0 1.880452,0.1937 3.84375,0.4375 l 3.5625,0.4375 2.8125,-2.4063 c 1.536857,-1.3278 2.879892,-2.5146 3,-2.625 l 0.21875,-0.1875 2.1875,1.875 c 1.206741,1.0442 2.573712,2.2313 3.03125,2.625 l 0.84375,0.7188 3.78125,-0.4688 c 2.096197,-0.2589 3.830274,-0.4626 3.84375,-0.4375 0.03956,0.073 2.038269,6.1416 2.375,7.2188 0.0065,-0.01 0.1875,-0.1552 0.1875,-0.1563 0,-0.053 -2.51955,-7.796 -2.5625,-7.875 -0.01348,-0.025 -1.747553,0.1786 -3.84375,0.4375 l -3.78125,0.4688 -0.84375,-0.6875 c -0.457538,-0.3937 -1.824509,-1.5808 -3.03125,-2.625 L 24.000104,1016.1995 z m 4.09375,7.5625 -0.03125,1.4063 c -0.06112,3.0069 -0.316516,4.8218 -1,6.9062 -0.421159,1.284 -0.96884,2.3648 -1.625,3.25 -0.441146,0.5947 -1.305265,1.4375 -1.46875,1.4375 -0.04065,0 -0.333253,-0.3018 -0.6875,-0.6562 -1.055616,-1.0567 -1.775536,-2.2999 -2.375,-4.1563 -0.652045,-2.0187 -0.97485,-4.3881 -0.96875,-7.1875 l 0,0.8125 c -0.0061,2.7994 0.316705,5.1688 0.96875,7.1875 0.599464,1.8564 1.319384,3.0996 2.375,4.1563 0.354247,0.3544 0.646855,0.625 0.6875,0.625 0.163485,0 1.027604,-0.8116 1.46875,-1.4063 0.65616,-0.8852 1.203841,-1.9972 1.625,-3.2812 0.683484,-2.0844 0.93888,-3.8994 1,-6.9063 l 0.0625,-2.1562 L 28.093854,1023.762 z m 9.4375,4.125 c -0.765663,0.8396 -7.152046,6.2376 -9.4375,8 -0.122917,0.2039 -0.246366,0.4333 -0.375,0.625 -0.454016,0.6765 -0.502596,0.7783 -0.3125,0.6563 1.269305,-0.8155 10.318656,-8.4622 10.28125,-8.6875 C 37.682356,1028.4491 37.570081,1028.035 37.531354,1027.887 z m -27.0625,0.094 -0.1875,0.625 0.21875,0.2187 c 2.123676,1.8594 7.966652,6.7421 9.34375,7.8125 0.477793,0.3711 0.892695,0.6386 0.90625,0.625 0.0136,-0.016 -0.201066,-0.3892 -0.5,-0.8437 -0.115121,-0.175 -0.234198,-0.35 -0.34375,-0.5313 -0.0363,-0.028 -0.02523,-0.034 -0.0625,-0.062 -1.377098,-1.0704 -7.220074,-5.9531 -9.34375,-7.8125 L 10.468854,1027.9808 z m -5.9999999,0.875 c -0.01991,0.07 -0.185081,0.581 -0.1875,0.5937 -0.01944,0.1017 1.2846346,1.2634 4.5,4 l 4.5624999,3.8438 1.625,0 c 0.892195,0 1.78328,-0.036 2,-0.062 l 0.375,-0.031 -0.90625,-0.75 c -0.388028,0.021 -0.813748,0.031 -1.46875,0.031 l -1.625,0 -4.5624999,-3.8438 C 6.1813431,1030.4241 4.8827708,1029.2823 4.4688541,1028.8558 z m 39.0624999,0.031 c -0.167492,0.1803 -1.961781,1.757 -4.34375,3.7813 l -4.53125,3.8437 -1.59375,-0.031 c -0.659777,0 -1.111665,-0.01 -1.5,-0.031 l -0.90625,0.75 0.40625,0.031 c 0.223428,0.028 1.120011,0.061 2,0.062 l 1.59375,0.031 4.53125,-3.875 c 2.482897,-2.11 4.518618,-3.8544 4.53125,-3.9062 C 43.719956,1029.5387 43.551463,1028.962 43.531354,1028.887 z m -29.09375,10.0313 4.78125,2.4375 c 2.616767,1.3356 4.78791,2.415 4.8125,2.4062 0.02459,-0.016 2.168048,-1.1104 4.78125,-2.4375 l 4.75,-2.4062 -1.5625,0 -3.1875,1.625 c -2.613202,1.3271 -4.75666,2.3902 -4.78125,2.4062 -0.02459,0.01 -2.195733,-1.0706 -4.8125,-2.4062 l -3.21875,-1.625 L 14.437604,1038.9183 Z"
       style="fill:#1479c2;fill-opacity:0.31372549;display:inline" />
  </g>
</svg>
