<?xml version="1.0" encoding="UTF-8" standalone="no"?>
<!-- Created with Inkscape (http://www.inkscape.org/) -->

<svg
   xmlns:dc="http://purl.org/dc/elements/1.1/"
   xmlns:cc="http://creativecommons.org/ns#"
   xmlns:rdf="http://www.w3.org/1999/02/22-rdf-syntax-ns#"
   xmlns:svg="http://www.w3.org/2000/svg"
   xmlns="http://www.w3.org/2000/svg"
   xmlns:xlink="http://www.w3.org/1999/xlink"
   xmlns:sodipodi="http://sodipodi.sourceforge.net/DTD/sodipodi-0.dtd"
   xmlns:inkscape="http://www.inkscape.org/namespaces/inkscape"
   width="48"
   height="48"
   id="svg5453"
   version="1.1"
   inkscape:version="0.48+devel r12487"
   sodipodi:docname="deviantart.svg">
  <defs
     id="defs5455">
    <linearGradient
       id="linearGradient4097"
       inkscape:collect="always">
      <stop
         id="stop4099"
         offset="0"
         style="stop-color:#d8e0de;stop-opacity:1" />
      <stop
         id="stop4101"
         offset="1"
         style="stop-color:#f9fbfa;stop-opacity:1" />
    </linearGradient>
    <linearGradient
       inkscape:collect="always"
       id="linearGradient3281">
      <stop
         style="stop-color:#3f4e4b;stop-opacity:1"
         offset="0"
         id="stop3283" />
      <stop
         style="stop-color:#576f6a;stop-opacity:1"
         offset="1"
         id="stop3285" />
    </linearGradient>
    <linearGradient
       inkscape:collect="always"
       xlink:href="#linearGradient3281"
       id="linearGradient3287"
       x1="423.76923"
       y1="-547.8006"
       x2="423.76923"
       y2="-499.79724"
       gradientUnits="userSpaceOnUse" />
    <linearGradient
       inkscape:collect="always"
       xlink:href="#linearGradient4097"
       id="linearGradient4095"
       x1="418.63394"
       y1="533.48547"
       x2="418.63394"
       y2="514.29797"
       gradientUnits="userSpaceOnUse"
       gradientTransform="translate(1.4893425e-6,0)" />
  </defs>
  <sodipodi:namedview
     id="base"
     pagecolor="#ffffff"
     bordercolor="#666666"
     borderopacity="1.0"
     inkscape:pageopacity="0"
     inkscape:pageshadow="2"
     inkscape:zoom="5.6568543"
     inkscape:cx="44.037717"
     inkscape:cy="32.269944"
     inkscape:document-units="px"
     inkscape:current-layer="layer1"
     showgrid="false"
     fit-margin-top="0"
     fit-margin-left="0"
     fit-margin-right="0"
     fit-margin-bottom="0"
     inkscape:window-width="1366"
     inkscape:window-height="716"
     inkscape:window-x="0"
     inkscape:window-y="28"
     inkscape:window-maximized="1" />
  <metadata
     id="metadata5458">
    <rdf:RDF>
      <cc:Work
         rdf:about="">
        <dc:format>image/svg+xml</dc:format>
        <dc:type
           rdf:resource="http://purl.org/dc/dcmitype/StillImage" />
        <dc:title></dc:title>
      </cc:Work>
    </rdf:RDF>
  </metadata>
  <g
     inkscape:label="Capa 1"
     inkscape:groupmode="layer"
     id="layer1"
     transform="translate(-384.57143,-499.798)">
    <rect
       style="fill:url(#linearGradient3287);fill-opacity:1;stroke:none"
       id="rect2991-1-7"
       width="48"
       height="48"
       x="384.57144"
       y="-547.79797"
       ry="1.9445436"
       transform="scale(1,-1)" />
    <path
       inkscape:connector-curvature="0"
       id="path4109"
       d="m 387.67523,534.15491 c -0.0654,-0.28945 -0.10717,-0.99216 -0.10358,-1.74724 0.003,-1.08921 0.0364,-1.37868 0.22993,-2.10313 1.19834,-4.49299 6.09964,-8.37097 12.71361,-10.05925 0.70283,-0.17939 1.38204,-0.34939 1.50942,-0.37775 l 0.23153,-0.0517 0,-1.93013 c 0,-1.11676 0.0335,-1.9508 0.0794,-1.97916 0.23407,-0.14468 4.07402,-0.55031 5.20925,-0.55031 l 0.4373,0 0,1.92352 0,1.92358 1.62093,0.0525 c 6.03706,0.19525 11.5088,1.937 15.31677,4.8756 2.23619,1.72567 3.82826,3.94837 4.42166,6.17307 0.19321,0.72439 0.22482,1.0139 0.2299,2.10313 0.002,0.75504 -0.0381,1.45779 -0.1036,1.74722 l -0.10957,0.48414 -10.09853,0 -10.09853,0 0,-5.44423 0,-5.44417 1.11571,0.0547 c 1.51011,0.074 2.82227,0.27187 4.12602,0.6215 l 0.48415,0.12988 0,2.89396 0,2.89397 3.50117,0 3.50117,0 -0.0537,-0.27366 c -0.10097,-0.51567 -0.48538,-1.62093 -0.73932,-2.12618 -1.74943,-3.4806 -5.76309,-5.34239 -11.74694,-5.44888 l -1.36946,-0.0246 0.002,6.08376 0.002,6.08374 -10.0996,0 -10.0996,0 -0.10958,-0.48417 z m 14.58078,-7.34682 c 0,-2.09746 -0.0315,-3.53658 -0.0776,-3.53658 -0.0424,0 -0.41206,0.11796 -0.82098,0.26229 -2.46382,0.86923 -4.29806,2.39283 -5.31036,4.41107 -0.27263,0.54349 -0.6518,1.61608 -0.7428,2.10105 l -0.0563,0.29874 3.50383,0 3.50384,0 0,-3.53657 z"
       style="fill:#000000;fill-opacity:0.05882353" />
    <path
       style="fill:#000000;fill-opacity:0.11764706"
       d="m 387.67523,533.75491 c -0.0654,-0.28945 -0.10717,-0.99216 -0.10358,-1.74724 0.003,-1.08921 0.0364,-1.37868 0.22993,-2.10313 1.19834,-4.49299 6.09964,-8.37097 12.71361,-10.05925 0.70283,-0.17939 1.38204,-0.34939 1.50942,-0.37775 l 0.23153,-0.0517 0,-1.93013 c 0,-1.11676 0.0335,-1.9508 0.0794,-1.97916 0.23407,-0.14468 4.07402,-0.55031 5.20925,-0.55031 l 0.4373,0 0,1.92352 0,1.92358 1.62093,0.0525 c 6.03706,0.19525 11.5088,1.937 15.31677,4.8756 2.23619,1.72567 3.82826,3.94837 4.42166,6.17307 0.19321,0.72439 0.22482,1.0139 0.2299,2.10313 0.002,0.75504 -0.0381,1.45779 -0.1036,1.74722 l -0.10957,0.48414 -10.09853,0 -10.09853,0 0,-5.44423 0,-5.44417 1.11571,0.0547 c 1.51011,0.074 2.82227,0.27187 4.12602,0.6215 l 0.48415,0.12988 0,2.89396 0,2.89397 3.50117,0 3.50117,0 -0.0537,-0.27366 c -0.10097,-0.51567 -0.48538,-1.62093 -0.73932,-2.12618 -1.74943,-3.4806 -5.76309,-5.34239 -11.74694,-5.44888 l -1.36946,-0.0246 0.002,6.08376 0.002,6.08374 -10.0996,0 -10.0996,0 -0.10958,-0.48417 z m 14.58078,-7.34682 c 0,-2.09746 -0.0315,-3.53658 -0.0776,-3.53658 -0.0424,0 -0.41206,0.11796 -0.82098,0.26229 -2.46382,0.86923 -4.29806,2.39283 -5.31036,4.41107 -0.27263,0.54349 -0.6518,1.61608 -0.7428,2.10105 l -0.0563,0.29874 3.50383,0 3.50384,0 0,-3.53657 z"
       id="path4107"
       inkscape:connector-curvature="0" />
    <path
       inkscape:connector-curvature="0"
       id="path4103"
       d="m 387.67523,533.35491 c -0.0654,-0.28945 -0.10717,-0.99216 -0.10358,-1.74724 0.003,-1.08921 0.0364,-1.37868 0.22993,-2.10313 1.19834,-4.49299 6.09964,-8.37097 12.71361,-10.05925 0.70283,-0.17939 1.38204,-0.34939 1.50942,-0.37775 l 0.23153,-0.0517 0,-1.93013 c 0,-1.11676 0.0335,-1.9508 0.0794,-1.97916 0.23407,-0.14468 4.07402,-0.55031 5.20925,-0.55031 l 0.4373,0 0,1.92352 0,1.92358 1.62093,0.0525 c 6.03706,0.19525 11.5088,1.937 15.31677,4.8756 2.23619,1.72567 3.82826,3.94837 4.42166,6.17307 0.19321,0.72439 0.22482,1.0139 0.2299,2.10313 0.002,0.75504 -0.0381,1.45779 -0.1036,1.74722 l -0.10957,0.48414 -10.09853,0 -10.09853,0 0,-5.44423 0,-5.44417 1.11571,0.0547 c 1.51011,0.074 2.82227,0.27187 4.12602,0.6215 l 0.48415,0.12988 0,2.89396 0,2.89397 3.50117,0 3.50117,0 -0.0537,-0.27366 c -0.10097,-0.51567 -0.48538,-1.62093 -0.73932,-2.12618 -1.74943,-3.4806 -5.76309,-5.34239 -11.74694,-5.44888 l -1.36946,-0.0246 0.002,6.08376 0.002,6.08374 -10.0996,0 -10.0996,0 -0.10958,-0.48417 z m 14.58078,-7.34682 c 0,-2.09746 -0.0315,-3.53658 -0.0776,-3.53658 -0.0424,0 -0.41206,0.11796 -0.82098,0.26229 -2.46382,0.86923 -4.29806,2.39283 -5.31036,4.41107 -0.27263,0.54349 -0.6518,1.61608 -0.7428,2.10105 l -0.0563,0.29874 3.50383,0 3.50384,0 0,-3.53657 z"
       style="fill:#000000;fill-opacity:0.23529412" />
    <path
       inkscape:connector-curvature="0"
       style="fill:#000000;fill-opacity:1;stroke:none"
       d="m 384.57143,544.79799 0,1.0625 c 0,1.0773 0.86022,1.9375 1.9375,1.9375 l 44.125,0 c 1.07728,0 1.9375,-0.8602 1.9375,-1.9375 l 0,-1.0625 c 0,1.0773 -0.86022,1.9375 -1.9375,1.9375 l -44.125,0 C 385.43165,546.73549 384.57143,545.87529 384.57143,544.79799 Z"
       id="rect846" />
    <path
       inkscape:connector-curvature="0"
       style="fill:#ffffff;fill-opacity:0.5372549;stroke:none"
       d="m 387.10268,500.45429 c -0.91709,0 -1.67115,0.6395 -1.84375,1.5 0.33561,-0.2799 0.77451,-0.4375 1.25,-0.4375 l 44.125,0 c 0.47549,0 0.91439,0.1576 1.25,0.4375 -0.1726,-0.8605 -0.92666,-1.5 -1.84375,-1.5 L 387.10268,500.45429 Z"
       id="path7515" />
    <path
       inkscape:connector-curvature="0"
       style="fill:#000000;fill-opacity:0.39215686;stroke:none"
       d="m 386.50893,499.79799 c -1.07728,0 -1.9375,0.8602 -1.9375,1.9375 l 0,43.0625 c 0,0.7934 0.48002,1.449 1.15625,1.75 -0.30934,-0.3333 -0.5,-0.7824 -0.5,-1.2812 l 0,-42.9375 c 0,-1.0482 0.8269,-1.875 1.875,-1.875 l 42.9375,0 c 1.0481,0 1.875,0.8268 1.875,1.875 l 0,42.9375 c 0,0.4988 -0.19066,0.9479 -0.5,1.2812 0.67623,-0.301 1.15625,-0.9566 1.15625,-1.75 l 0,-43.0625 c 0,-1.0773 -0.86022,-1.9375 -1.9375,-1.9375 L 386.50893,499.79799 Z"
       id="rect4280" />
    <path
       style="fill:url(#linearGradient4095);fill-opacity:1"
       d="m 387.67523,532.95529 c -0.0654,-0.28945 -0.10717,-0.99216 -0.10358,-1.74724 0.003,-1.08921 0.0364,-1.37868 0.22993,-2.10313 1.19834,-4.49299 6.09964,-8.37097 12.71361,-10.05925 0.70283,-0.17939 1.38204,-0.34939 1.50942,-0.37775 l 0.23153,-0.0517 0,-1.93013 c 0,-1.11676 0.0335,-1.9508 0.0794,-1.97916 0.23407,-0.14468 4.07402,-0.55031 5.20925,-0.55031 l 0.4373,0 0,1.92352 0,1.92358 1.62093,0.0525 c 6.03706,0.19525 11.5088,1.937 15.31677,4.8756 2.23619,1.72567 3.82826,3.94837 4.42166,6.17307 0.19321,0.72439 0.22482,1.0139 0.2299,2.10313 0.002,0.75504 -0.0381,1.45779 -0.1036,1.74722 l -0.10957,0.48414 -10.09853,0 -10.09853,0 0,-5.44423 0,-5.44417 1.11571,0.0547 c 1.51011,0.074 2.82227,0.27187 4.12602,0.6215 l 0.48415,0.12988 0,2.89396 0,2.89397 3.50117,0 3.50117,0 -0.0537,-0.27366 c -0.10097,-0.51567 -0.48538,-1.62093 -0.73932,-2.12618 -1.74943,-3.4806 -5.76309,-5.34239 -11.74694,-5.44888 l -1.36946,-0.0246 0.002,6.08376 0.002,6.08374 -10.0996,0 -10.0996,0 -0.10958,-0.48417 z m 14.58078,-7.34682 c 0,-2.09746 -0.0315,-3.53658 -0.0776,-3.53658 -0.0424,0 -0.41206,0.11796 -0.82098,0.26229 -2.46382,0.86923 -4.29806,2.39283 -5.31036,4.41107 -0.27263,0.54349 -0.6518,1.61608 -0.7428,2.10105 l -0.0563,0.29874 3.50383,0 3.50384,0 0,-3.53657 z"
       id="path3268"
       inkscape:connector-curvature="0" />
    <path
       style="fill:#3f4e4b;fill-opacity:0.3137255"
       d="M 23.408203 20.673828 L 23.408203 21.474609 L 24.777344 21.498047 C 30.761194 21.604537 34.775961 23.466666 36.525391 26.947266 C 36.716657 27.327817 36.946936 27.993853 37.109375 28.546875 L 37.318359 28.546875 L 37.263672 28.273438 C 37.162702 27.757767 36.779331 26.651734 36.525391 26.146484 C 34.775961 22.665884 30.761194 20.803756 24.777344 20.697266 L 23.408203 20.673828 z M 17.607422 21.472656 C 17.565022 21.472656 17.194076 21.591998 16.785156 21.736328 C 14.321336 22.605558 12.488862 24.128244 11.476562 26.146484 C 11.203933 26.689974 10.823422 27.763077 10.732422 28.248047 L 10.675781 28.546875 L 10.880859 28.546875 C 11.038199 28.013697 11.270438 27.358177 11.476562 26.947266 C 12.488862 24.929026 14.321336 23.406339 16.785156 22.537109 C 17.194076 22.392779 17.565022 22.273438 17.607422 22.273438 C 17.651601 22.273438 17.681106 23.641465 17.683594 25.597656 L 17.683594 25.009766 L 17.685547 25.009766 C 17.685547 22.912306 17.653522 21.472656 17.607422 21.472656 z M 44.988281 31.083984 C 44.97575 31.63559 44.947165 32.133475 44.896484 32.357422 L 44.787109 32.841797 L 34.6875 32.841797 L 24.589844 32.841797 L 24.589844 33.640625 L 34.6875 33.640625 L 44.787109 33.640625 L 44.896484 33.158203 C 44.961984 32.868773 45.002 32.165196 45 31.410156 C 44.999304 31.260822 44.990323 31.206436 44.988281 31.083984 z M 3.0117188 31.089844 C 3.0098899 31.21068 3.0004046 31.263254 3 31.410156 C 2.996415 32.164195 3.038271 32.868015 3.1035156 33.158203 L 3.2128906 33.640625 L 13.3125 33.640625 L 23.412109 33.640625 L 23.412109 32.839844 L 13.3125 32.839844 L 3.2128906 32.839844 L 3.1035156 32.357422 C 3.0530956 32.134271 3.0240921 31.638879 3.0117188 31.089844 z "
       transform="translate(384.57143,499.798)"
       id="path4111" />
    <path
       style="fill:#ffffff;fill-opacity:0.23529412"
       d="M 22.972656 14.359375 C 21.837426 14.359375 17.997742 14.763523 17.763672 14.908203 C 17.717772 14.936563 17.685547 15.771912 17.685547 16.888672 L 17.685547 17.287109 C 17.685547 16.170349 17.717772 15.336954 17.763672 15.308594 C 17.997742 15.163914 21.837426 14.757812 22.972656 14.757812 L 23.410156 14.757812 L 23.410156 14.359375 L 22.972656 14.359375 z M 23.410156 18.205078 L 23.410156 18.605469 L 25.03125 18.658203 C 31.06831 18.853453 36.539686 20.594603 40.347656 23.533203 C 42.583846 25.258873 44.176131 27.482331 44.769531 29.707031 C 44.949417 30.381467 44.985406 30.729593 44.994141 31.646484 C 44.99496 31.563266 45.000225 31.495218 45 31.410156 C 44.99492 30.320926 44.962741 30.031031 44.769531 29.306641 C 44.176131 27.081941 42.583846 24.860436 40.347656 23.134766 C 36.539686 20.196166 31.06831 18.453062 25.03125 18.257812 L 23.410156 18.205078 z M 17.685547 18.818359 L 17.453125 18.869141 C 17.325745 18.897501 16.646189 19.068657 15.943359 19.248047 C 9.3293894 20.936327 4.4288087 24.813651 3.2304688 29.306641 C 3.0369387 30.031091 3.003 30.320946 3 31.410156 C 2.9995889 31.496632 3.0051133 31.56583 3.0058594 31.650391 C 3.0130236 30.729726 3.0499681 30.382708 3.2304688 29.707031 C 4.4288087 25.214041 9.3293894 21.334764 15.943359 19.646484 C 16.646189 19.467094 17.325745 19.297891 17.453125 19.269531 L 17.685547 19.21875 L 17.685547 18.818359 z M 24.589844 22.753906 L 24.589844 23.152344 L 25.705078 23.207031 C 27.215188 23.281031 28.528281 23.478495 29.832031 23.828125 L 30.316406 23.958984 L 30.316406 23.558594 L 29.832031 23.429688 C 28.528281 23.080058 27.215188 22.882594 25.705078 22.808594 L 24.589844 22.753906 z M 17.683594 25.998047 L 17.683594 26.210938 L 17.685547 26.210938 C 17.685547 26.12361 17.683702 26.083036 17.683594 25.998047 z M 10.761719 29.347656 C 10.755999 29.373798 10.736833 29.423758 10.732422 29.447266 L 10.675781 29.746094 L 14.179688 29.746094 L 17.683594 29.746094 L 17.683594 29.347656 L 14.179688 29.347656 L 10.761719 29.347656 z M 30.316406 29.347656 L 30.316406 29.746094 L 33.816406 29.746094 L 37.318359 29.746094 L 37.263672 29.472656 C 37.257748 29.442403 37.234354 29.381728 37.226562 29.347656 L 33.816406 29.347656 L 30.316406 29.347656 z "
       transform="translate(384.57143,499.798)"
       id="path4116" />
  </g>
</svg>
