<?xml version="1.0" encoding="UTF-8" standalone="no"?>
<!-- Created with Inkscape (http://www.inkscape.org/) -->

<svg
   xmlns:dc="http://purl.org/dc/elements/1.1/"
   xmlns:cc="http://creativecommons.org/ns#"
   xmlns:rdf="http://www.w3.org/1999/02/22-rdf-syntax-ns#"
   xmlns:svg="http://www.w3.org/2000/svg"
   xmlns="http://www.w3.org/2000/svg"
   xmlns:xlink="http://www.w3.org/1999/xlink"
   xmlns:sodipodi="http://sodipodi.sourceforge.net/DTD/sodipodi-0.dtd"
   xmlns:inkscape="http://www.inkscape.org/namespaces/inkscape"
   width="48"
   height="48"
   id="svg2"
   version="1.1"
   inkscape:version="0.48+devel r12487"
   sodipodi:docname="kivio.svg">
  <defs
     id="defs4">
    <linearGradient
       id="linearGradient4001"
       inkscape:collect="always">
      <stop
         id="stop4003"
         offset="0"
         style="stop-color:#c0bebe;stop-opacity:1" />
      <stop
         id="stop4005"
         offset="1"
         style="stop-color:#f2f7f7;stop-opacity:1" />
    </linearGradient>
    <linearGradient
       id="linearGradient3795-1-2">
      <stop
         id="stop3797-1-9"
         offset="0"
         style="stop-color:#272b30;stop-opacity:1" />
      <stop
         id="stop3799-3-6"
         offset="1"
         style="stop-color:#282c31;stop-opacity:1" />
    </linearGradient>
    <linearGradient
       gradientTransform="matrix(0.95237789,0,0,0.95237799,1.1428663,48.972578)"
       gradientUnits="userSpaceOnUse"
       y2="1007.3755"
       x2="22.45064"
       y1="1049.29"
       x1="22.45064"
       id="linearGradient4007"
       xlink:href="#linearGradient4001"
       inkscape:collect="always" />
    <linearGradient
       gradientTransform="translate(-63.327693,-9.7643189)"
       gradientUnits="userSpaceOnUse"
       y2="-994.90985"
       x2="88.429985"
       y1="-1042.1093"
       x1="88.429985"
       id="linearGradient929"
       xlink:href="#linearGradient3795-1-2"
       inkscape:collect="always" />
    <linearGradient
       inkscape:collect="always"
       id="linearGradient137480">
      <stop
         style="stop-color:#5a5a5a;stop-opacity:1"
         offset="0"
         id="stop137482" />
      <stop
         style="stop-color:#101010;stop-opacity:1"
         offset="1"
         id="stop137484" />
    </linearGradient>
    <linearGradient
       x1="0"
       y1="0"
       x2="1"
       y2="0"
       gradientUnits="userSpaceOnUse"
       gradientTransform="matrix(13.526835,20.525875,20.525875,-13.526835,19.18986,1021.0543)"
       spreadMethod="pad"
       id="linearGradient6194">
      <stop
         style="stop-opacity:1;stop-color:#ffffff"
         offset="0"
         id="stop6196" />
      <stop
         style="stop-opacity:1;stop-color:#29282b"
         offset="0.168498"
         id="stop6198" />
      <stop
         style="stop-opacity:1;stop-color:#868c95"
         offset="0.263736"
         id="stop6200" />
      <stop
         style="stop-opacity:1;stop-color:#92979f"
         offset="0.395604"
         id="stop6202" />
      <stop
         style="stop-opacity:1;stop-color:#737881"
         offset="0.542125"
         id="stop6204" />
      <stop
         style="stop-opacity:1;stop-color:#70757e"
         offset="0.626374"
         id="stop6206" />
      <stop
         style="stop-opacity:1;stop-color:#e4e6e8"
         offset="0.717949"
         id="stop6208" />
      <stop
         style="stop-opacity:1;stop-color:#ffffff"
         offset="0.791209"
         id="stop6210" />
      <stop
         style="stop-opacity:1;stop-color:#1d191a"
         offset="1"
         id="stop6212" />
    </linearGradient>
    <linearGradient
       gradientTransform="translate(0.50002588,0)"
       gradientUnits="userSpaceOnUse"
       y2="-34.624512"
       x2="1012.3622"
       y1="-34.624512"
       x1="1004.3131"
       id="linearGradient4768"
       xlink:href="#linearGradient6194"
       inkscape:collect="always" />
    <linearGradient
       gradientTransform="translate(0.50002588,2)"
       y2="-34.624512"
       x2="1012.3622"
       y1="-34.624512"
       x1="1004.3131"
       gradientUnits="userSpaceOnUse"
       id="linearGradient4772"
       xlink:href="#linearGradient6194"
       inkscape:collect="always" />
    <linearGradient
       y2="-34.624512"
       x2="1012.3622"
       y1="-34.624512"
       x1="1004.3131"
       gradientTransform="translate(0.50002588,9.249021)"
       gradientUnits="userSpaceOnUse"
       id="linearGradient4776"
       xlink:href="#linearGradient6194"
       inkscape:collect="always" />
    <linearGradient
       y2="-34.624512"
       x2="1012.3622"
       y1="-34.624512"
       x1="1004.3131"
       gradientTransform="translate(0.50002588,11.249021)"
       gradientUnits="userSpaceOnUse"
       id="linearGradient4780"
       xlink:href="#linearGradient6194"
       inkscape:collect="always" />
    <linearGradient
       y2="-34.624512"
       x2="1012.3622"
       y1="-34.624512"
       x1="1004.3131"
       gradientTransform="translate(0.50002588,22)"
       gradientUnits="userSpaceOnUse"
       id="linearGradient4788"
       xlink:href="#linearGradient6194"
       inkscape:collect="always" />
    <linearGradient
       y2="-34.624512"
       x2="1012.3622"
       y1="-34.624512"
       x1="1004.3131"
       gradientTransform="translate(0.50002588,20)"
       gradientUnits="userSpaceOnUse"
       id="linearGradient4792"
       xlink:href="#linearGradient6194"
       inkscape:collect="always" />
    <linearGradient
       gradientTransform="matrix(1.1578948,0,0,2.6595742,-159.62035,19.577131)"
       gradientUnits="userSpaceOnUse"
       y2="-13.205674"
       x2="1011.5395"
       y1="-13.205674"
       x1="1013.4686"
       id="linearGradient4863"
       xlink:href="#linearGradient137480"
       inkscape:collect="always" />
    <linearGradient
       y2="-13.205674"
       x2="1011.5395"
       y1="-13.205674"
       x1="1013.4686"
       gradientTransform="matrix(1.1578948,0,0,2.6595742,-159.62035,-0.42286811)"
       gradientUnits="userSpaceOnUse"
       id="linearGradient4871"
       xlink:href="#linearGradient137480"
       inkscape:collect="always" />
    <linearGradient
       y2="-13.205674"
       x2="1011.5395"
       y1="-13.205674"
       x1="1013.4686"
       gradientTransform="matrix(1.1578948,0,0,2.6595742,-159.62035,9.2016413)"
       gradientUnits="userSpaceOnUse"
       id="linearGradient4883"
       xlink:href="#linearGradient137480"
       inkscape:collect="always" />
    <linearGradient
       inkscape:collect="always"
       xlink:href="#linearGradient3795-1-2"
       id="linearGradient5614"
       gradientUnits="userSpaceOnUse"
       x1="29.179962"
       y1="1029.8539"
       x2="29.179962"
       y2="1026.032" />
    <linearGradient
       inkscape:collect="always"
       xlink:href="#linearGradient3795-1-2"
       id="linearGradient5616"
       gradientUnits="userSpaceOnUse"
       x1="29.179962"
       y1="1029.8539"
       x2="29.179962"
       y2="1026.032" />
    <linearGradient
       inkscape:collect="always"
       xlink:href="#linearGradient3795-1-2"
       id="linearGradient5618"
       gradientUnits="userSpaceOnUse"
       x1="29.179962"
       y1="1029.8539"
       x2="29.179962"
       y2="1026.032" />
    <linearGradient
       inkscape:collect="always"
       xlink:href="#linearGradient3795-1-2"
       id="linearGradient5620"
       gradientUnits="userSpaceOnUse"
       x1="29.179962"
       y1="1029.8539"
       x2="29.179962"
       y2="1026.032" />
    <linearGradient
       inkscape:collect="always"
       xlink:href="#linearGradient3795-1-2"
       id="linearGradient5622"
       gradientUnits="userSpaceOnUse"
       x1="29.179962"
       y1="1029.8539"
       x2="29.179962"
       y2="1026.032" />
    <linearGradient
       inkscape:collect="always"
       xlink:href="#linearGradient3795-1-2"
       id="linearGradient5624"
       gradientUnits="userSpaceOnUse"
       x1="29.179962"
       y1="1029.8539"
       x2="29.179962"
       y2="1026.032" />
    <linearGradient
       inkscape:collect="always"
       xlink:href="#linearGradient3795-1-2"
       id="linearGradient5626"
       gradientUnits="userSpaceOnUse"
       x1="29.179962"
       y1="1029.8539"
       x2="29.179962"
       y2="1026.032" />
    <linearGradient
       inkscape:collect="always"
       xlink:href="#linearGradient3795-1-2"
       id="linearGradient5628"
       gradientUnits="userSpaceOnUse"
       x1="29.179962"
       y1="1029.8539"
       x2="29.179962"
       y2="1026.032" />
    <linearGradient
       inkscape:collect="always"
       xlink:href="#linearGradient3795-1-2"
       id="linearGradient5630"
       gradientUnits="userSpaceOnUse"
       x1="29.179962"
       y1="1029.8539"
       x2="29.179962"
       y2="1026.032" />
    <linearGradient
       inkscape:collect="always"
       xlink:href="#linearGradient3795-1-2"
       id="linearGradient5632"
       gradientUnits="userSpaceOnUse"
       x1="29.179962"
       y1="1029.8539"
       x2="29.179962"
       y2="1026.032" />
  </defs>
  <sodipodi:namedview
     id="base"
     pagecolor="#ffffff"
     bordercolor="#666666"
     borderopacity="1.0"
     inkscape:pageopacity="0.0"
     inkscape:pageshadow="2"
     inkscape:zoom="11.91033"
     inkscape:cx="22.578766"
     inkscape:cy="24.293006"
     inkscape:document-units="px"
     inkscape:current-layer="layer1"
     showgrid="false"
     inkscape:window-width="1366"
     inkscape:window-height="715"
     inkscape:window-x="0"
     inkscape:window-y="30"
     inkscape:window-maximized="1">
    <inkscape:grid
       type="xygrid"
       id="grid3850" />
  </sodipodi:namedview>
  <metadata
     id="metadata7">
    <rdf:RDF>
      <cc:Work
         rdf:about="">
        <dc:format>image/svg+xml</dc:format>
        <dc:type
           rdf:resource="http://purl.org/dc/dcmitype/StillImage" />
        <dc:title />
      </cc:Work>
    </rdf:RDF>
  </metadata>
  <g
     inkscape:label="Capa 1"
     inkscape:groupmode="layer"
     id="layer1"
     transform="translate(0,-1004.3622)">
    <rect
       style="fill:url(#linearGradient929);fill-opacity:1;stroke:none"
       id="rect2991-1-5"
       width="48"
       height="48"
       x="-3.153076e-07"
       y="-1052.3622"
       ry="1.9445436"
       transform="scale(1,-1)" />
    <path
       sodipodi:nodetypes="sssssssss"
       inkscape:connector-curvature="0"
       id="path4523"
       d="m 4.7002843,1007.3622 c -0.942615,0 -1.700284,0.7576 -1.700284,1.7002 l 0,38.5995 c 0,0.9426 0.757669,1.7003 1.700284,1.7003 l 38.5994307,0 c 0.942614,0 1.700285,-0.7577 1.700285,-1.7003 l 0,-38.5994 c 0,-0.9427 -0.757671,-1.7003 -1.700285,-1.7003 z"
       style="fill:#000000;fill-opacity:0.23529412;stroke:none" />
    <path
       style="fill:url(#linearGradient4007);fill-opacity:1;stroke:none"
       d="m 5.6193183,1008.3622 c -0.897728,0 -1.619318,0.7215 -1.619318,1.6192 l 0,36.7615 c 0,0.8977 0.72159,1.6193 1.619318,1.6193 l 36.7613627,0 c 0.897728,0 1.619319,-0.7216 1.619319,-1.6193 l 0,-36.7614 c 0,-0.8978 -0.721591,-1.6193 -1.619319,-1.6193 z"
       id="rect839"
       inkscape:connector-curvature="0"
       sodipodi:nodetypes="sssssssss" />
    <path
       inkscape:connector-curvature="0"
       style="fill:#000000;fill-opacity:0.31372549;stroke:none"
       d="m 4.0000003,1044.956 0,1.7812 c 0,0.8977 0.7273,1.625 1.625,1.625 l 36.7499997,0 c 0.8977,0 1.625,-0.7273 1.625,-1.625 l 0,-1.7812 c 0,0.8977 -0.7273,1.5937 -1.625,1.5937 l -36.7499997,0 c -0.8977,0 -1.625,-0.696 -1.625,-1.5937 z"
       id="path4943" />
    <path
       inkscape:connector-curvature="0"
       style="fill:#000000;fill-opacity:0.31372549;stroke:none"
       d="m 4.0000003,1046.1435 0,0.5937 c 0,0.8977 0.7273,1.625 1.625,1.625 l 36.7499997,0 c 0.8977,0 1.625,-0.7273 1.625,-1.625 l 0,-0.5937 c 0,0.8977 -0.7273,1.625 -1.625,1.625 l -36.7499997,0 c -0.8977,0 -1.625,-0.7273 -1.625,-1.625 z"
       id="path4948" />
    <g
       id="g10821"
       transform="translate(3.1530762e-7,-1.0016406e-5)">
      <path
         id="rect846-7"
         d="m 7.4539099e-7,1049.3622 0,1.0625 c 0,1.0773 0.86022300460901,1.9375 1.93750005460901,1.9375 l 44.1249992,0 c 1.07728,0 1.9375,-0.8602 1.9375,-1.9375 l 0,-1.0625 c 0,1.0773 -0.86022,1.9375 -1.9375,1.9375 l -44.1249992,0 c -1.07727705,0 -1.93750005460901,-0.8602 -1.93750005460901,-1.9375 z"
         style="fill:#000000;fill-opacity:1;stroke:none"
         inkscape:connector-curvature="0" />
      <path
         id="path7515-9"
         d="m 2.5312508,1005.0185 c -0.917088,0 -1.67114705,0.6395 -1.84375005,1.5 0.33561205,-0.2799 0.77451205,-0.4375 1.25000005,-0.4375 l 44.1249992,0 c 0.47549,0 0.91439,0.1576 1.25,0.4375 -0.1726,-0.8605 -0.92666,-1.5 -1.84375,-1.5 l -42.9374992,0 z"
         style="fill:#ffffff;fill-opacity:0.5372549;stroke:none"
         inkscape:connector-curvature="0" />
      <path
         id="rect4280-5"
         d="m 1.9375008,1004.3622 c -1.07727705,0 -1.93750005460901,0.8602 -1.93750005460901,1.9375 l 0,43.0625 c 0,0.7934 0.48002400460901,1.449 1.15625005460901,1.75 -0.30934105,-0.3333 -0.50000005,-0.7824 -0.50000005,-1.2812 l 0,-42.9375 c 0,-1.0482 0.82689905,-1.875 1.87500005,-1.875 l 42.9374992,0 c 1.0481,0 1.875,0.8268 1.875,1.875 l 0,42.9375 c 0,0.4988 -0.19066,0.9479 -0.5,1.2812 0.67623,-0.301 1.15625,-0.9566 1.15625,-1.75 l 0,-43.0625 c 0,-1.0773 -0.86022,-1.9375 -1.9375,-1.9375 l -44.1249992,0 z"
         style="fill:#000000;fill-opacity:0.39215686;stroke:none"
         inkscape:connector-curvature="0" />
    </g>
    <g
       id="g302"
       transform="translate(3.1530762e-7,-0.49994032)">
      <rect
         style="font-size:24px;font-style:normal;font-variant:normal;font-weight:normal;font-stretch:normal;line-height:125%;letter-spacing:-0.03px;word-spacing:0px;fill:url(#linearGradient4883);fill-opacity:1;stroke:none;font-family:Derivia;-inkscape-font-specification:Derivia"
         id="rect4881"
         width="2.2"
         height="5"
         x="1011.6622"
         y="-26.87549"
         ry="0.2596879"
         transform="matrix(0,1,-1,0,0,0)" />
      <rect
         transform="matrix(0,1,-1,0,0,0)"
         ry="0.2596879"
         y="-36.5"
         x="1011.6622"
         height="5"
         width="2.2"
         id="rect4869"
         style="font-size:24px;font-style:normal;font-variant:normal;font-weight:normal;font-stretch:normal;line-height:125%;letter-spacing:-0.03px;word-spacing:0px;fill:url(#linearGradient4871);fill-opacity:1;stroke:none;font-family:Derivia;-inkscape-font-specification:Derivia" />
      <rect
         style="font-size:24px;font-style:normal;font-variant:normal;font-weight:normal;font-stretch:normal;line-height:125%;letter-spacing:-0.03px;word-spacing:0px;fill:url(#linearGradient4863);fill-opacity:1;stroke:none;font-family:Derivia;-inkscape-font-specification:Derivia"
         id="rect4855"
         width="2.2"
         height="5"
         x="1011.6622"
         y="-16.5"
         ry="0.2596879"
         transform="matrix(0,1,-1,0,0,0)" />
      <rect
         style="font-size:24px;font-style:normal;font-variant:normal;font-weight:normal;font-stretch:normal;line-height:125%;letter-spacing:-0.03px;word-spacing:0px;fill:#000000;fill-opacity:0.23529412;stroke:none;font-family:Derivia;-inkscape-font-specification:Derivia"
         id="rect4833"
         width="5"
         height="1.48"
         x="1008.4622"
         y="-33.739998"
         ry="0.41771603"
         transform="matrix(0,1,-1,0,0,0)" />
      <rect
         transform="matrix(0,1,-1,0,0,0)"
         ry="0.33304384"
         y="-33.59"
         x="1008.1622"
         height="1.1799999"
         width="5"
         id="rect4829"
         style="font-size:24px;font-style:normal;font-variant:normal;font-weight:normal;font-stretch:normal;line-height:125%;letter-spacing:-0.03px;word-spacing:0px;fill:#000000;fill-opacity:0.23529412;stroke:none;font-family:Derivia;-inkscape-font-specification:Derivia" />
      <rect
         transform="matrix(0,1,-1,0,0,0)"
         ry="0.41771603"
         y="-35.739998"
         x="1008.4622"
         height="1.48"
         width="5"
         id="rect4835"
         style="font-size:24px;font-style:normal;font-variant:normal;font-weight:normal;font-stretch:normal;line-height:125%;letter-spacing:-0.03px;word-spacing:0px;fill:#000000;fill-opacity:0.23529412;stroke:none;font-family:Derivia;-inkscape-font-specification:Derivia" />
      <rect
         style="font-size:24px;font-style:normal;font-variant:normal;font-weight:normal;font-stretch:normal;line-height:125%;letter-spacing:-0.03px;word-spacing:0px;fill:#000000;fill-opacity:0.23529412;stroke:none;font-family:Derivia;-inkscape-font-specification:Derivia"
         id="rect4837"
         width="5"
         height="1.1799999"
         x="1008.1622"
         y="-35.59"
         ry="0.33304384"
         transform="matrix(0,1,-1,0,0,0)" />
      <rect
         style="font-size:24px;font-style:normal;font-variant:normal;font-weight:normal;font-stretch:normal;line-height:125%;letter-spacing:-0.03px;word-spacing:0px;fill:#000000;fill-opacity:0.23529412;stroke:none;font-family:Derivia;-inkscape-font-specification:Derivia"
         id="rect4839"
         width="5"
         height="1.48"
         x="1008.4622"
         y="-26.11549"
         ry="0.41771603"
         transform="matrix(0,1,-1,0,0,0)" />
      <rect
         transform="matrix(0,1,-1,0,0,0)"
         ry="0.33304384"
         y="-25.965488"
         x="1008.1622"
         height="1.1799999"
         width="5"
         id="rect4841"
         style="font-size:24px;font-style:normal;font-variant:normal;font-weight:normal;font-stretch:normal;line-height:125%;letter-spacing:-0.03px;word-spacing:0px;fill:#000000;fill-opacity:0.23529412;stroke:none;font-family:Derivia;-inkscape-font-specification:Derivia" />
      <rect
         transform="matrix(0,1,-1,0,0,0)"
         ry="0.41771603"
         y="-24.11549"
         x="1008.4622"
         height="1.48"
         width="5"
         id="rect4843"
         style="font-size:24px;font-style:normal;font-variant:normal;font-weight:normal;font-stretch:normal;line-height:125%;letter-spacing:-0.03px;word-spacing:0px;fill:#000000;fill-opacity:0.23529412;stroke:none;font-family:Derivia;-inkscape-font-specification:Derivia" />
      <rect
         style="font-size:24px;font-style:normal;font-variant:normal;font-weight:normal;font-stretch:normal;line-height:125%;letter-spacing:-0.03px;word-spacing:0px;fill:#000000;fill-opacity:0.23529412;stroke:none;font-family:Derivia;-inkscape-font-specification:Derivia"
         id="rect4845"
         width="5"
         height="1.1799999"
         x="1008.1622"
         y="-23.965488"
         ry="0.33304384"
         transform="matrix(0,1,-1,0,0,0)" />
      <rect
         style="font-size:24px;font-style:normal;font-variant:normal;font-weight:normal;font-stretch:normal;line-height:125%;letter-spacing:-0.03px;word-spacing:0px;fill:#000000;fill-opacity:0.23529412;stroke:none;font-family:Derivia;-inkscape-font-specification:Derivia"
         id="rect4847"
         width="5"
         height="1.48"
         x="1008.4622"
         y="-15.74"
         ry="0.41771603"
         transform="matrix(0,1,-1,0,0,0)" />
      <rect
         transform="matrix(0,1,-1,0,0,0)"
         ry="0.33304384"
         y="-15.589999"
         x="1008.1622"
         height="1.1799999"
         width="5"
         id="rect4849"
         style="font-size:24px;font-style:normal;font-variant:normal;font-weight:normal;font-stretch:normal;line-height:125%;letter-spacing:-0.03px;word-spacing:0px;fill:#000000;fill-opacity:0.23529412;stroke:none;font-family:Derivia;-inkscape-font-specification:Derivia" />
      <rect
         transform="matrix(0,1,-1,0,0,0)"
         ry="0.41771603"
         y="-13.74"
         x="1008.4622"
         height="1.48"
         width="5"
         id="rect4851"
         style="font-size:24px;font-style:normal;font-variant:normal;font-weight:normal;font-stretch:normal;line-height:125%;letter-spacing:-0.03px;word-spacing:0px;fill:#000000;fill-opacity:0.23529412;stroke:none;font-family:Derivia;-inkscape-font-specification:Derivia" />
      <rect
         style="font-size:24px;font-style:normal;font-variant:normal;font-weight:normal;font-stretch:normal;line-height:125%;letter-spacing:-0.03px;word-spacing:0px;fill:#000000;fill-opacity:0.23529412;stroke:none;font-family:Derivia;-inkscape-font-specification:Derivia"
         id="rect4853"
         width="5"
         height="1.1799999"
         x="1008.1622"
         y="-13.589999"
         ry="0.33304384"
         transform="matrix(0,1,-1,0,0,0)" />
      <g
         transform="translate(0.37548923,0)"
         id="g4873">
        <rect
           style="font-size:24px;font-style:normal;font-variant:normal;font-weight:normal;font-stretch:normal;line-height:125%;letter-spacing:-0.03px;word-spacing:0px;fill:url(#linearGradient4768);fill-opacity:1;stroke:none;font-family:Derivia;-inkscape-font-specification:Derivia"
           id="rect4202"
           width="5"
           height="0.69999999"
           x="1007.8621"
           y="-34.97451"
           ry="0.19756836"
           transform="matrix(0,1,-1,0,0,0)" />
        <rect
           transform="matrix(0,1,-1,0,0,0)"
           ry="0.19756836"
           y="-32.97451"
           x="1007.8621"
           height="0.69999999"
           width="5"
           id="rect4770"
           style="font-size:24px;font-style:normal;font-variant:normal;font-weight:normal;font-stretch:normal;line-height:125%;letter-spacing:-0.03px;word-spacing:0px;fill:url(#linearGradient4772);fill-opacity:1;stroke:none;font-family:Derivia;-inkscape-font-specification:Derivia" />
      </g>
      <g
         id="g4877">
        <rect
           style="font-size:24px;font-style:normal;font-variant:normal;font-weight:normal;font-stretch:normal;line-height:125%;letter-spacing:-0.03px;word-spacing:0px;fill:url(#linearGradient4776);fill-opacity:1;stroke:none;font-family:Derivia;-inkscape-font-specification:Derivia"
           id="rect4774"
           width="5"
           height="0.69999999"
           x="1007.8621"
           y="-25.725491"
           ry="0.19756836"
           transform="matrix(0,1,-1,0,0,0)" />
        <rect
           transform="matrix(0,1,-1,0,0,0)"
           ry="0.19756836"
           y="-23.725491"
           x="1007.8621"
           height="0.69999999"
           width="5"
           id="rect4778"
           style="font-size:24px;font-style:normal;font-variant:normal;font-weight:normal;font-stretch:normal;line-height:125%;letter-spacing:-0.03px;word-spacing:0px;fill:url(#linearGradient4780);fill-opacity:1;stroke:none;font-family:Derivia;-inkscape-font-specification:Derivia" />
      </g>
      <g
         transform="translate(0.37548923,0)"
         id="g4865">
        <rect
           transform="matrix(0,1,-1,0,0,0)"
           ry="0.19756836"
           y="-12.97451"
           x="1007.8621"
           height="0.69999999"
           width="5"
           id="rect4786"
           style="font-size:24px;font-style:normal;font-variant:normal;font-weight:normal;font-stretch:normal;line-height:125%;letter-spacing:-0.03px;word-spacing:0px;fill:url(#linearGradient4788);fill-opacity:1;stroke:none;font-family:Derivia;-inkscape-font-specification:Derivia" />
        <rect
           style="font-size:24px;font-style:normal;font-variant:normal;font-weight:normal;font-stretch:normal;line-height:125%;letter-spacing:-0.03px;word-spacing:0px;fill:url(#linearGradient4792);fill-opacity:1;stroke:none;font-family:Derivia;-inkscape-font-specification:Derivia"
           id="rect4790"
           width="5"
           height="0.69999999"
           x="1007.8621"
           y="-14.97451"
           ry="0.19756836"
           transform="matrix(0,1,-1,0,0,0)" />
      </g>
      <path
         inkscape:connector-curvature="0"
         id="rect4814"
         d="m 32.844239,1007.8622 c -0.109453,0 -0.1875,0.078 -0.1875,0.1875 l 0,4.625 c 0,0.1094 0.07805,0.1875 0.1875,0.1875 0.109453,0 0.21875,-0.078 0.21875,-0.1875 l 0,-4.625 c 0,-0.1095 -0.109297,-0.1875 -0.21875,-0.1875 z"
         style="font-size:24px;font-style:normal;font-variant:normal;font-weight:normal;font-stretch:normal;line-height:125%;letter-spacing:-0.03px;word-spacing:0px;fill:#000000;fill-opacity:0.23529412;stroke:none;font-family:Derivia;-inkscape-font-specification:Derivia" />
      <path
         inkscape:connector-curvature="0"
         style="font-size:24px;font-style:normal;font-variant:normal;font-weight:normal;font-stretch:normal;line-height:125%;letter-spacing:-0.03px;word-spacing:0px;fill:#000000;fill-opacity:0.23529412;stroke:none;font-family:Derivia;-inkscape-font-specification:Derivia"
         d="m 34.837499,1007.8622 c -0.109453,0 -0.1875,0.078 -0.1875,0.1875 l 0,4.625 c 0,0.1095 0.07805,0.1875 0.1875,0.1875 0.109453,0 0.21875,-0.078 0.21875,-0.1875 l 0,-4.625 c 0,-0.1095 -0.109297,-0.1875 -0.21875,-0.1875 z"
         id="path4819" />
      <path
         inkscape:connector-curvature="0"
         style="font-size:24px;font-style:normal;font-variant:normal;font-weight:normal;font-stretch:normal;line-height:125%;letter-spacing:-0.03px;word-spacing:0px;fill:#000000;fill-opacity:0.23529412;stroke:none;font-family:Derivia;-inkscape-font-specification:Derivia"
         d="m 25.212989,1007.8622 c -0.109453,0 -0.1875,0.078 -0.1875,0.1875 l 0,4.625 c 0,0.1095 0.07805,0.1875 0.1875,0.1875 0.109453,0 0.21875,-0.078 0.21875,-0.1875 l 0,-4.625 c 0,-0.1095 -0.109297,-0.1875 -0.21875,-0.1875 z"
         id="path4821" />
      <path
         id="path4823"
         d="m 23.212989,1007.8622 c -0.109453,0 -0.1875,0.078 -0.1875,0.1875 l 0,4.625 c 0,0.1095 0.07805,0.1875 0.1875,0.1875 0.109453,0 0.21875,-0.078 0.21875,-0.1875 l 0,-4.625 c 0,-0.1095 -0.109297,-0.1875 -0.21875,-0.1875 z"
         style="font-size:24px;font-style:normal;font-variant:normal;font-weight:normal;font-stretch:normal;line-height:125%;letter-spacing:-0.03px;word-spacing:0px;fill:#000000;fill-opacity:0.23529412;stroke:none;font-family:Derivia;-inkscape-font-specification:Derivia"
         inkscape:connector-curvature="0" />
      <path
         inkscape:connector-curvature="0"
         style="font-size:24px;font-style:normal;font-variant:normal;font-weight:normal;font-stretch:normal;line-height:125%;letter-spacing:-0.03px;word-spacing:0px;fill:#000000;fill-opacity:0.23529412;stroke:none;font-family:Derivia;-inkscape-font-specification:Derivia"
         d="m 14.837499,1007.8622 c -0.109453,0 -0.1875,0.078 -0.1875,0.1875 l 0,4.625 c 0,0.1095 0.07805,0.1875 0.1875,0.1875 0.109453,0 0.21875,-0.078 0.21875,-0.1875 l 0,-4.625 c 0,-0.1095 -0.109297,-0.1875 -0.21875,-0.1875 z"
         id="path4825" />
      <path
         id="path4827"
         d="m 12.837499,1007.8622 c -0.109453,0 -0.1875,0.078 -0.1875,0.1875 l 0,4.625 c 0,0.1095 0.07805,0.1875 0.1875,0.1875 0.109453,0 0.21875,-0.078 0.21875,-0.1875 l 0,-4.625 c 0,-0.1095 -0.109297,-0.1875 -0.21875,-0.1875 z"
         style="font-size:24px;font-style:normal;font-variant:normal;font-weight:normal;font-stretch:normal;line-height:125%;letter-spacing:-0.03px;word-spacing:0px;fill:#000000;fill-opacity:0.23529412;stroke:none;font-family:Derivia;-inkscape-font-specification:Derivia"
         inkscape:connector-curvature="0" />
    </g>
    <rect
       style="fill:none;stroke:none"
       id="rect1526"
       width="48"
       height="48"
       x="-2.1634064e-06"
       y="1004.3622"
       ry="0" />
    <g
       id="g881"
       transform="matrix(0.68744113,0,0,0.68744113,7.8981276,321.42676)">
      <rect
         ry="0"
         y="1009.4471"
         x="8.8388338"
         height="11.136931"
         width="29.168154"
         id="rect869"
         style="fill:#b3b3b3;fill-opacity:1;stroke:none" />
      <rect
         style="fill:#ffffff;fill-opacity:1;stroke:none"
         id="rect871"
         width="28.726212"
         height="10.606602"
         x="9.0598049"
         y="1009.7123"
         ry="0" />
    </g>
    <rect
       ry="0"
       y="1024.5371"
       x="13.974304"
       height="7.6559854"
       width="20.05139"
       id="rect873"
       style="fill:#9bce41;fill-opacity:1;stroke:none" />
    <rect
       style="fill:#eeffd2;fill-opacity:1;stroke:none"
       id="rect875"
       width="19.747578"
       height="7.2914147"
       x="14.12621"
       y="1024.7195"
       ry="0" />
    <path
       style="fill:#9bce41;fill-opacity:1;stroke:none"
       d="m 13.978397,1033.7144 0,7.6478 20.043205,0 0,-7.6478 -8.807839,0 -0.279273,0.4725 -0.923748,1.6328 -0.945232,-1.6328 -0.279274,-0.4725 -8.807839,0 z"
       id="rect877"
       inkscape:connector-curvature="0" />
    <path
       style="fill:#eeffd2;fill-opacity:1;stroke:none"
       d="m 14.118033,1033.8863 0,7.3039 19.763933,0 0,-7.3039 -8.550048,0 -0.193344,0.3436 -1.138574,1.9764 -1.138573,-1.9764 -0.193344,-0.3436 -8.55005,0 z"
       id="rect879"
       inkscape:connector-curvature="0" />
    <path
       inkscape:transform-center-y="0.34085783"
       transform="matrix(0.43456416,0,0,0.43456416,14.0325,1019.5607)"
       d="m 22.936775,36.024624 -1.35924,-2.354273 -1.35924,-2.354273 2.71848,0 2.718481,0 -1.359241,2.354273 z"
       inkscape:randomized="0"
       inkscape:rounded="0"
       inkscape:flatsided="false"
       sodipodi:arg2="2.6179939"
       sodipodi:arg1="1.5707963"
       sodipodi:r2="1.5695153"
       sodipodi:r1="3.1390309"
       sodipodi:cy="32.885593"
       sodipodi:cx="22.936775"
       sodipodi:sides="3"
       id="path899"
       style="fill:#9bce41;fill-opacity:1;stroke:none"
       sodipodi:type="star" />
    <rect
       style="fill:#9bce41;fill-opacity:1;stroke:none"
       id="rect901"
       width="1.0177598"
       height="1.5114493"
       x="23.491119"
       y="1032.1417"
       ry="0" />
    <path
       inkscape:connector-curvature="0"
       id="path950"
       style="font-size:2.87973762px;font-style:normal;font-variant:normal;font-weight:bold;font-stretch:normal;text-align:start;line-height:125%;letter-spacing:0px;word-spacing:0px;writing-mode:lr-tb;text-anchor:start;fill:#000000;fill-opacity:1;stroke:none;font-family:Helvetica;-inkscape-font-specification:Helvetica Bold"
       d="m 18.420796,1019.3236 0.0023,0.7065 -0.350967,0 0,-1.6798 1.19563,0 0,0.2971 -0.844663,0 -0.0023,0.3789 0.739373,0 0,0.2973 -0.739373,0 z" />
    <path
       inkscape:connector-curvature="0"
       id="path952"
       style="font-size:2.87973762px;font-style:normal;font-variant:normal;font-weight:bold;font-stretch:normal;text-align:start;line-height:125%;letter-spacing:0px;word-spacing:0px;writing-mode:lr-tb;text-anchor:start;fill:#000000;fill-opacity:1;stroke:none;font-family:Helvetica;-inkscape-font-specification:Helvetica Bold"
       d="m 19.813736,1018.3503 0,1.6798 -0.32757,0 0,-1.6798 0.32757,0 z" />
    <path
       inkscape:connector-curvature="0"
       id="path954"
       style="font-size:2.87973762px;font-style:normal;font-variant:normal;font-weight:bold;font-stretch:normal;text-align:start;line-height:125%;letter-spacing:0px;word-spacing:0px;writing-mode:lr-tb;text-anchor:start;fill:#000000;fill-opacity:1;stroke:none;font-family:Helvetica;-inkscape-font-specification:Helvetica Bold"
       d="m 21.326043,1019.4078 q 0,0.3205 -0.191862,0.496 -0.173146,0.1591 -0.44456,0.1591 -0.271414,0 -0.444561,-0.1591 -0.191861,-0.1755 -0.191861,-0.496 0,-0.3181 0.191861,-0.4959 0.173147,-0.1592 0.442221,-0.1592 0.269074,0 0.444561,0.1592 0.194201,0.1778 0.194201,0.4959 z m -0.336928,0 q 0,-0.1544 -0.05381,-0.2479 -0.07487,-0.131 -0.245679,-0.131 -0.168464,0 -0.243338,0.1287 -0.05615,0.098 -0.05615,0.2502 0,0.1544 0.05381,0.248 0.07487,0.131 0.245677,0.131 0.168465,0 0.243339,-0.1287 0.05615,-0.098 0.05615,-0.2503 z" />
    <path
       inkscape:connector-curvature="0"
       id="path956"
       style="font-size:2.87973762px;font-style:normal;font-variant:normal;font-weight:bold;font-stretch:normal;text-align:start;line-height:125%;letter-spacing:0px;word-spacing:0px;writing-mode:lr-tb;text-anchor:start;fill:#000000;fill-opacity:1;stroke:none;font-family:Helvetica;-inkscape-font-specification:Helvetica Bold"
       d="m 23.20098,1018.7855 -0.355647,1.2446 -0.336931,0 -0.196541,-0.9076 -0.196543,0.9076 -0.336929,0 -0.353306,-1.2446 0.348627,0 0.196541,0.8937 0.177826,-0.8937 0.329909,0 0.189521,0.8937 0.196544,-0.8937 0.336929,0 z" />
    <path
       inkscape:connector-curvature="0"
       id="path958"
       style="font-size:2.87973762px;font-style:normal;font-variant:normal;font-weight:bold;font-stretch:normal;text-align:start;line-height:125%;letter-spacing:0px;word-spacing:0px;writing-mode:lr-tb;text-anchor:start;fill:#000000;fill-opacity:1;stroke:none;font-family:Helvetica;-inkscape-font-specification:Helvetica Bold"
       d="m 25.472181,1018.9002 -0.350967,0 q -0.03276,-0.1218 -0.08891,-0.1826 -0.09593,-0.1076 -0.285454,-0.1076 -0.161445,0 -0.269075,0.1147 -0.145067,0.1544 -0.145067,0.4725 0,0.248 0.09593,0.4001 0.10997,0.1732 0.32055,0.1732 0.147407,0 0.243339,-0.08 0.09593,-0.083 0.126348,-0.2363 l 0.350967,0 q -0.05381,0.2879 -0.229298,0.4469 -0.189524,0.1731 -0.498375,0.1731 -0.346288,0 -0.55219,-0.2222 -0.217599,-0.234 -0.217599,-0.6597 0,-0.426 0.224618,-0.6646 0.208242,-0.2222 0.54985,-0.2222 0.341609,0 0.542831,0.2034 0.163785,0.1663 0.182503,0.391 z" />
    <path
       inkscape:connector-curvature="0"
       id="path960"
       style="font-size:2.87973762px;font-style:normal;font-variant:normal;font-weight:bold;font-stretch:normal;text-align:start;line-height:125%;letter-spacing:0px;word-spacing:0px;writing-mode:lr-tb;text-anchor:start;fill:#000000;fill-opacity:1;stroke:none;font-family:Helvetica;-inkscape-font-specification:Helvetica Bold"
       d="m 26.837814,1019.1693 0.0023,0.8608 -0.327571,0 0,-0.7555 q 0,-0.1053 -0.02808,-0.157 -0.0468,-0.089 -0.184844,-0.089 -0.112309,0 -0.184842,0.074 -0.07253,0.074 -0.07253,0.2129 l 0,0.7136 -0.327569,0 0,-1.6798 0.325229,0 0,0.5966 q 0.03978,-0.082 0.138048,-0.1381 0.09827,-0.057 0.22696,-0.057 0.189522,0 0.311192,0.1099 0.121654,0.1078 0.121654,0.3067 z" />
    <path
       inkscape:connector-curvature="0"
       id="path962"
       style="font-size:2.87973762px;font-style:normal;font-variant:normal;font-weight:bold;font-stretch:normal;text-align:start;line-height:125%;letter-spacing:0px;word-spacing:0px;writing-mode:lr-tb;text-anchor:start;fill:#000000;fill-opacity:1;stroke:none;font-family:Helvetica;-inkscape-font-specification:Helvetica Bold"
       d="m 28.151202,1019.1131 0.0023,0.6737 q 0,0.1029 0.01872,0.1429 0.01872,0.04 0.05381,0.051 l 0,0.048 -0.353307,0 q -0.0234,-0.071 -0.03042,-0.1474 -0.07955,0.084 -0.145066,0.1194 -0.107631,0.06 -0.257378,0.06 -0.156765,0 -0.259715,-0.084 -0.11933,-0.098 -0.11933,-0.2784 0,-0.1755 0.09593,-0.2739 0.09827,-0.1005 0.266736,-0.1239 l 0.292473,-0.046 q 0.06785,-0.01 0.09125,-0.032 0.02574,-0.026 0.02574,-0.066 0,-0.091 -0.07721,-0.124 -0.04913,-0.02 -0.140387,-0.02 -0.10763,0 -0.156766,0.058 -0.0351,0.043 -0.04212,0.1147 l -0.315871,0 q 0.0234,-0.2574 0.194202,-0.3604 0.124009,-0.074 0.360327,-0.074 0.187183,0 0.313532,0.063 0.182491,0.092 0.182491,0.2978 z m -0.318212,0.4702 0,-0.1592 q -0.0234,0.019 -0.07487,0.037 -0.05147,0.017 -0.156766,0.032 -0.102951,0.017 -0.147406,0.046 -0.06551,0.045 -0.06551,0.1381 0,0.077 0.05147,0.1169 0.04212,0.033 0.10061,0.033 0.116989,0 0.203562,-0.068 0.08891,-0.068 0.08891,-0.1779 z" />
    <path
       inkscape:connector-curvature="0"
       id="path964"
       style="font-size:2.87973762px;font-style:normal;font-variant:normal;font-weight:bold;font-stretch:normal;text-align:start;line-height:125%;letter-spacing:0px;word-spacing:0px;writing-mode:lr-tb;text-anchor:start;fill:#000000;fill-opacity:1;stroke:none;font-family:Helvetica;-inkscape-font-specification:Helvetica Bold"
       d="m 28.445173,1020.0301 -0.0023,-1.2446 0.313531,0 0.0023,0.2151 q 0.06785,-0.1238 0.121669,-0.1706 0.08657,-0.077 0.222279,-0.077 l 0.06551,0.01 -0.0023,0.3323 q -0.02106,0 -0.04212,0 -0.01872,0 -0.04913,0 -0.173145,0 -0.245678,0.096 -0.05615,0.072 -0.05615,0.2012 l 0,0.6481 -0.327554,-0.01 z" />
    <path
       inkscape:connector-curvature="0"
       id="path966"
       style="font-size:2.87973762px;font-style:normal;font-variant:normal;font-weight:bold;font-stretch:normal;text-align:start;line-height:125%;letter-spacing:0px;word-spacing:0px;writing-mode:lr-tb;text-anchor:start;fill:#000000;fill-opacity:1;stroke:none;font-family:Helvetica;-inkscape-font-specification:Helvetica Bold"
       d="m 29.724269,1018.4485 -0.0023,0.337 0.2059,0 0,0.234 -0.20356,0 -0.0023,0.6762 q 0,0.06 0.02106,0.083 0.0234,0.019 0.116988,0.019 l 0.06785,-0.01 0,0.2479 -0.154426,0.01 -0.04212,0 q -0.19888,0 -0.273755,-0.072 -0.06083,-0.058 -0.06083,-0.1966 l 0,-0.7556 -0.168464,0 -0.0023,-0.234 0.168464,0 0.0023,-0.3369 0.327604,-2e-4 z" />
    <path
       inkscape:connector-curvature="0"
       id="path936"
       style="font-size:3.40361762px;font-style:normal;font-variant:normal;font-weight:bold;font-stretch:normal;text-align:start;line-height:125%;letter-spacing:0px;word-spacing:0px;writing-mode:lr-tb;text-anchor:start;fill:#9bce41;fill-opacity:1;stroke:none;font-family:Helvetica;-inkscape-font-specification:Helvetica Bold"
       d="m 22.972925,1028.5593 0,0.6295 -0.350969,0 0,-0.634 -0.580267,-1.046 0.414143,0 0.346289,0.7301 0.33459,-0.7301 0.397764,0 -0.56155,1.0505 z" />
    <path
       inkscape:connector-curvature="0"
       id="path938"
       style="font-size:3.40361762px;font-style:normal;font-variant:normal;font-weight:bold;font-stretch:normal;text-align:start;line-height:125%;letter-spacing:0px;word-spacing:0px;writing-mode:lr-tb;text-anchor:start;fill:#9bce41;fill-opacity:1;stroke:none;font-family:Helvetica;-inkscape-font-specification:Helvetica Bold"
       d="m 24.32598,1028.8239 0.336929,0 q -0.06083,0.2083 -0.224621,0.3112 -0.138047,0.086 -0.32289,0.086 -0.287793,0 -0.442219,-0.1475 -0.177823,-0.1707 -0.177823,-0.5334 0,-0.213 0.09125,-0.3698 0.149747,-0.2596 0.503055,-0.2596 0.236319,0 0.386066,0.1287 0.20122,0.1732 0.20122,0.5568 l -0.0023,0.058 -0.854023,0 q 0.02105,0.1661 0.08891,0.2363 0.07019,0.069 0.205901,0.069 0.07253,0 0.131029,-0.034 0.06085,-0.035 0.07957,-0.1012 z m -0.493696,-0.3816 0.507735,0 q -0.01404,-0.1379 -0.09359,-0.2057 -0.06551,-0.057 -0.159105,-0.057 -0.114651,0 -0.177823,0.069 -0.06317,0.068 -0.07721,0.1937 z" />
    <path
       inkscape:connector-curvature="0"
       id="path940"
       style="font-size:3.40361762px;font-style:normal;font-variant:normal;font-weight:bold;font-stretch:normal;text-align:start;line-height:125%;letter-spacing:0px;word-spacing:0px;writing-mode:lr-tb;text-anchor:start;fill:#9bce41;fill-opacity:1;stroke:none;font-family:Helvetica;-inkscape-font-specification:Helvetica Bold"
       d="m 25.920872,1028.3232 -0.32055,0 q -0.01404,-0.08 -0.04679,-0.1124 -0.05147,-0.051 -0.173146,-0.051 -0.119328,0 -0.168463,0.04 -0.0351,0.029 -0.0351,0.082 0,0.072 0.201222,0.117 0.290134,0.063 0.376705,0.1029 0.203563,0.096 0.203563,0.2926 0,0.2386 -0.198884,0.3486 -0.145066,0.08 -0.346286,0.08 -0.250358,0 -0.404784,-0.089 -0.194202,-0.1123 -0.194202,-0.3415 l 0.336928,0 q 0,0.086 0.06084,0.1356 0.06317,0.046 0.21058,0.046 0.109969,0 0.166126,-0.046 0.04212,-0.034 0.04212,-0.082 0,-0.077 -0.198883,-0.1215 -0.297153,-0.065 -0.374364,-0.1008 -0.201223,-0.093 -0.201223,-0.2947 0,-0.1638 0.10529,-0.2762 0.133369,-0.1403 0.397764,-0.1403 0.236317,0 0.372025,0.072 0.189513,0.1005 0.189513,0.3392 z" />
    <path
       inkscape:connector-curvature="0"
       id="path927"
       style="font-size:3.40361762px;font-style:normal;font-variant:normal;font-weight:bold;font-stretch:normal;text-align:start;line-height:125%;letter-spacing:0px;word-spacing:0px;writing-mode:lr-tb;text-anchor:start;fill:#9bce41;fill-opacity:1;stroke:none;font-family:Helvetica;-inkscape-font-specification:Helvetica Bold"
       d="m 21.928118,1037.7559 0,-0.2831 0.701937,0 0,0.9054 -0.231637,0 -0.03509,-0.2106 q -0.100612,0.117 -0.180163,0.1663 -0.142727,0.089 -0.34395,0.089 -0.32523,0 -0.538151,-0.2176 -0.233978,-0.2387 -0.233978,-0.6621 0,-0.3744 0.196541,-0.6155 0.222281,-0.2736 0.624725,-0.2736 0.350967,0 0.559208,0.1965 0.175485,0.1662 0.175485,0.3696 l -0.35097,0 q 0,-0.072 -0.08891,-0.1615 -0.11465,-0.1145 -0.278435,-0.1145 -0.205903,0 -0.33459,0.1404 -0.147407,0.1613 -0.147407,0.4632 0,0.3159 0.154426,0.461 0.124008,0.117 0.33693,0.117 0.10997,0 0.20356,-0.057 0.156766,-0.094 0.203563,-0.3136 l -0.393091,-10e-5 z" />
    <path
       inkscape:connector-curvature="0"
       id="path929"
       style="font-size:3.40361762px;font-style:normal;font-variant:normal;font-weight:bold;font-stretch:normal;text-align:start;line-height:125%;letter-spacing:0px;word-spacing:0px;writing-mode:lr-tb;text-anchor:start;fill:#9bce41;fill-opacity:1;stroke:none;font-family:Helvetica;-inkscape-font-specification:Helvetica Bold"
       d="m 24.135343,1037.7559 q 0,0.3206 -0.191862,0.4961 -0.173146,0.159 -0.44456,0.159 -0.271415,0 -0.444561,-0.159 -0.191861,-0.1755 -0.191861,-0.4961 0,-0.3182 0.191861,-0.496 0.173146,-0.1592 0.442221,-0.1592 0.269074,0 0.444561,0.1592 0.194201,0.1778 0.194201,0.496 z m -0.336928,0 q 0,-0.1544 -0.05381,-0.248 -0.07487,-0.131 -0.245678,-0.131 -0.168465,0 -0.243338,0.1287 -0.05616,0.098 -0.05616,0.2503 0,0.1543 0.05381,0.2479 0.07487,0.1312 0.245679,0.1312 0.168463,0 0.243337,-0.1287 0.05616,-0.098 0.05616,-0.2504 z" />
    <path
       inkscape:connector-curvature="0"
       id="path931"
       style="font-size:3.40361762px;font-style:normal;font-variant:normal;font-weight:bold;font-stretch:normal;text-align:start;line-height:125%;letter-spacing:0px;word-spacing:0px;writing-mode:lr-tb;text-anchor:start;fill:#9bce41;fill-opacity:1;stroke:none;font-family:Helvetica;-inkscape-font-specification:Helvetica Bold"
       d="m 25.56572,1037.7559 q 0,0.3206 -0.191862,0.4961 -0.173145,0.159 -0.444561,0.159 -0.271414,0 -0.444559,-0.159 -0.191862,-0.1755 -0.191862,-0.4961 0,-0.3182 0.191862,-0.496 0.173145,-0.1592 0.44222,-0.1592 0.269075,0 0.44456,0.1592 0.194202,0.1778 0.194202,0.496 z m -0.336929,0 q 0,-0.1544 -0.05381,-0.248 -0.07487,-0.131 -0.245679,-0.131 -0.168463,0 -0.243337,0.1287 -0.05616,0.098 -0.05616,0.2503 0,0.1543 0.05381,0.2479 0.07487,0.1312 0.245678,0.1312 0.168465,0 0.243337,-0.1287 0.05616,-0.098 0.05616,-0.2504 z" />
    <path
       inkscape:connector-curvature="0"
       id="path933"
       style="font-size:3.40361762px;font-style:normal;font-variant:normal;font-weight:bold;font-stretch:normal;text-align:start;line-height:125%;letter-spacing:0px;word-spacing:0px;writing-mode:lr-tb;text-anchor:start;fill:#9bce41;fill-opacity:1;stroke:none;font-family:Helvetica;-inkscape-font-specification:Helvetica Bold"
       d="m 26.932922,1036.6984 0,1.6798 -0.320551,0 0,-0.1567 q -0.05849,0.098 -0.161444,0.1475 -0.08891,0.043 -0.203561,0.043 -0.259716,0 -0.400104,-0.206 -0.124008,-0.1824 -0.124008,-0.4632 0,-0.3089 0.154425,-0.482 0.140388,-0.159 0.360328,-0.159 0.142727,0 0.240996,0.065 0.06785,0.045 0.11933,0.1287 l 0.0046,-0.5967 0.329877,3e-4 z m -0.87274,1.0669 q 0,0.1426 0.05381,0.2434 0.07019,0.1332 0.212921,0.1332 0.147407,0 0.224619,-0.1099 0.06785,-0.096 0.06785,-0.248 0,-0.1731 -0.05616,-0.2738 -0.07019,-0.1264 -0.226959,-0.1264 -0.145068,0 -0.21526,0.117 -0.06082,0.1007 -0.06082,0.2645 z" />
    <path
       inkscape:connector-curvature="0"
       id="path5563"
       style="font-size:5px;font-style:normal;font-variant:normal;font-weight:normal;font-stretch:normal;text-align:start;line-height:125%;letter-spacing:0px;word-spacing:0px;writing-mode:lr-tb;text-anchor:start;fill:#000000;fill-opacity:0.23529412;stroke:none;font-family:Leckerli One;-inkscape-font-specification:Leckerli One"
       d="m 12.406406,1028.5497 q -0.29,0.04 -0.48,0.04 -0.065,0 -0.065,-0.05 0,-0.115 0.155,-0.24 0.16,-0.13 0.515,-0.225 0.16,-0.57 0.365,-1.045 -0.5,0.025 -0.82,0.33 -0.08,0.08 -0.13,0.125 -0.05,0.045 -0.09,0.045 -0.035,0 -0.07,-0.06 -0.035,-0.06 -0.035,-0.16 0.005,-0.385 0.52,-0.625 0.515,-0.24 1.27,-0.235 l 1.5,0.025 q 0.135,0 0.135,0.105 0,0.03 -0.04,0.11 -0.04,0.075 -0.07,0.165 -0.065,0.18 -0.28,0.18 l -0.16,0 -0.665,0 -0.385,0 q -0.04,0.285 -0.24,0.93 l 0.915,0.015 q 0.08,0 0.08,0.095 0,0.03 -0.025,0.105 -0.025,0.075 -0.045,0.155 -0.04,0.165 -0.17,0.165 l -0.76,-0.035 -0.065,0 q -0.03,0 -0.07,0 -0.26,0.955 -0.26,1.51 0,0.295 -0.575,0.295 -0.125,0 -0.15,-0.125 -0.02,-0.13 -0.02,-0.34 0,-0.45 0.215,-1.255 z" />
    <path
       inkscape:connector-curvature="0"
       id="path5565"
       style="font-size:5px;font-style:normal;font-variant:normal;font-weight:normal;font-stretch:normal;text-align:start;line-height:125%;letter-spacing:0px;word-spacing:0px;writing-mode:lr-tb;text-anchor:start;fill:#000000;fill-opacity:0.23529412;stroke:none;font-family:Leckerli One;-inkscape-font-specification:Leckerli One"
       d="m 15.792968,1030.2097 q -0.715,0 -0.975,-0.535 -0.09,-0.19 -0.09,-0.475 0,-0.29 0.05,-0.615 0.1,-0.65 0.385,-1.2 0.145,-0.28 0.325,-0.48 0.395,-0.44 0.88,-0.435 0.215,0 0.335,0.12 0.125,0.115 0.125,0.335 0,0.22 -0.13,0.445 -0.13,0.22 -0.335,0.46 -0.2,0.235 -0.445,0.495 -0.245,0.26 -0.48,0.565 l 0,0.2 q 0,0.28 0.12,0.41 0.12,0.13 0.28,0.13 0.43,0 0.76,-0.425 0.135,-0.175 0.205,-0.175 0.07,0 0.07,0.17 0,0.17 -0.095,0.35 -0.09,0.175 -0.24,0.325 -0.15,0.145 -0.345,0.24 -0.195,0.095 -0.4,0.095 z m 0.27,-2.685 q 0.105,-0.13 0.165,-0.235 0.06,-0.105 0.06,-0.215 0,-0.115 -0.08,-0.115 -0.175,0 -0.39,0.36 -0.21,0.36 -0.315,0.945 0.17,-0.26 0.31,-0.435 0.145,-0.175 0.25,-0.305 z" />
    <path
       inkscape:connector-curvature="0"
       id="path5567"
       style="font-size:5px;font-style:normal;font-variant:normal;font-weight:normal;font-stretch:normal;text-align:start;line-height:125%;letter-spacing:0px;word-spacing:0px;writing-mode:lr-tb;text-anchor:start;fill:#000000;fill-opacity:0.23529412;stroke:none;font-family:Leckerli One;-inkscape-font-specification:Leckerli One"
       d="m 18.602265,1029.7697 q -0.395,0.465 -0.95,0.465 -0.55,0 -0.825,-0.28 -0.275,-0.285 -0.27,-0.705 -0.005,-0.595 0.375,-1.025 0.38,-0.43 0.995,-0.43 0.28,0 0.45,0.07 0.295,0.12 0.295,0.225 0,0.08 -0.415,0.085 -0.41,0 -0.69,0.285 -0.275,0.28 -0.275,0.71 0,0.225 0.13,0.38 0.135,0.15 0.375,0.15 0.245,0 0.405,-0.1 -0.355,-0.24 -0.355,-0.695 -0.005,-0.24 0.17,-0.435 0.18,-0.2 0.455,-0.2 0.28,-0.01 0.4,0.15 0.12,0.155 0.12,0.4 0,0.24 -0.115,0.51 l 0.03,0 q 0.22,-0.01 0.38,-0.155 0.06,-0.06 0.1,-0.105 0.045,-0.045 0.09,-0.045 0.07,0 0.07,0.165 0,0.305 -0.18,0.46 -0.18,0.15 -0.4,0.15 -0.215,0 -0.365,-0.03 z m -0.045,-0.58 q 0.085,-0.18 0.085,-0.35 0,-0.17 -0.11,-0.17 -0.045,0 -0.075,0.065 -0.03,0.065 -0.03,0.125 0,0.2 0.13,0.33 z" />
    <path
       inkscape:connector-curvature="0"
       id="path5569"
       style="font-size:5px;font-style:normal;font-variant:normal;font-weight:normal;font-stretch:normal;text-align:start;line-height:125%;letter-spacing:0px;word-spacing:0px;writing-mode:lr-tb;text-anchor:start;fill:#000000;fill-opacity:0.23529412;stroke:none;font-family:Leckerli One;-inkscape-font-specification:Leckerli One"
       d="m 20.087109,1027.9947 q 0,0.335 -0.12,0.76 0.01,0.16 0.01,0.31 0.01,0.32 0.08,0.44 0.05,0.065 0.13,0.065 0.155,0 0.385,-0.22 -0.175,-0.415 -0.175,-0.75 0,-0.685 0.645,-0.685 0.22,0 0.365,0.13 0.15,0.125 0.15,0.315 0,0.4 -0.445,0.96 0.185,0.22 0.3,0.255 0.165,0 0.495,-0.61 -0.06,-0.225 -0.06,-0.42 0,-0.355 0.11,-0.52 0.135,-0.21 0.445,-0.21 0.315,0 0.355,0.255 0.01,0.075 0.01,0.16 0,0.32 -0.355,0.885 0.125,0.18 0.235,0.215 0.23,0 0.39,-0.155 0.06,-0.055 0.1,-0.1 0.045,-0.05 0.09,-0.05 0.07,0 0.07,0.165 0,0.305 -0.18,0.45 -0.18,0.145 -0.47,0.145 -0.29,0 -0.505,-0.28 -0.26,0.34 -0.43,0.475 -0.31,0.255 -0.485,0.255 -0.085,0 -0.22,-0.14 -0.13,-0.145 -0.26,-0.375 -0.24,0.225 -0.475,0.37 -0.235,0.145 -0.395,0.145 -0.29,0 -0.49,-1.26 -0.07,-0.43 -0.07,-0.59 0.01,-0.33 0.09,-0.46 0.11,-0.16 0.43,-0.16 0.12,0 0.185,0.075 0.065,0.07 0.065,0.155 z m 0.855,0.9 q 0.165,-0.255 0.165,-0.405 0,-0.155 -0.105,-0.155 -0.07,0 -0.09,0.08 -0.015,0.075 -0.015,0.2 0,0.125 0.045,0.28 z" />
    <path
       inkscape:connector-curvature="0"
       id="path5571"
       style="font-size:5px;font-style:normal;font-variant:normal;font-weight:normal;font-stretch:normal;text-align:start;line-height:125%;letter-spacing:0px;word-spacing:0px;writing-mode:lr-tb;text-anchor:start;fill:#000000;fill-opacity:0.23529412;stroke:none;font-family:Leckerli One;-inkscape-font-specification:Leckerli One"
       d="m 25.061406,1029.0147 q 0.09,0 0.09,0.155 0,0.15 -0.08,0.325 -0.075,0.175 -0.235,0.34 -0.155,0.16 -0.4,0.275 -0.245,0.115 -0.58,0.115 -0.33,0 -0.58,-0.195 -0.25,-0.2 -0.25,-0.57 0,-0.375 0.115,-0.675 0.12,-0.305 0.31,-0.525 0.195,-0.22 0.44,-0.34 0.245,-0.125 0.465,-0.125 0.385,0 0.385,0.305 0,0.175 -0.075,0.28 -0.07,0.105 -0.145,0.105 -0.1,0 -0.175,-0.07 -0.075,-0.07 -0.165,-0.07 -0.09,-0.01 -0.175,0.085 -0.08,0.09 -0.135,0.23 -0.11,0.28 -0.11,0.655 0.005,0.18 0.165,0.27 0.11,0.06 0.26,0.065 0.15,0 0.285,-0.1 0.14,-0.1 0.255,-0.215 0.115,-0.12 0.2,-0.22 0.09,-0.1 0.135,-0.1 z" />
    <path
       inkscape:connector-curvature="0"
       id="path5573"
       style="font-size:5px;font-style:normal;font-variant:normal;font-weight:normal;font-stretch:normal;text-align:start;line-height:125%;letter-spacing:0px;word-spacing:0px;writing-mode:lr-tb;text-anchor:start;fill:#000000;fill-opacity:0.23529412;stroke:none;font-family:Leckerli One;-inkscape-font-specification:Leckerli One"
       d="m 26.567578,1028.5147 q 0,-0.18 -0.215,-0.18 -0.21,0 -0.415,0.33 -0.205,0.325 -0.255,0.665 0.01,0.115 0.02,0.23 0.01,0.115 0.01,0.225 0,0.265 -0.175,0.36 -0.08,0.045 -0.155,0.085 -0.07,0.04 -0.165,0.04 -0.095,0 -0.17,-0.125 -0.07,-0.13 -0.07,-0.4 0,-0.755 0.11,-1.31 0.17,-0.86 0.675,-1.84 0.07,-0.135 0.205,-0.13 0.135,0 0.22,0.185 0.085,0.185 0.08,0.31 0,0.125 -0.04,0.245 -0.035,0.115 -0.095,0.23 -0.055,0.11 -0.13,0.23 -0.07,0.115 -0.14,0.25 l -0.075,0.36 q 0.195,-0.325 0.525,-0.435 0.12,-0.04 0.265,-0.04 0.34,0 0.515,0.155 0.175,0.15 0.175,0.43 0,0.275 -0.075,0.56 -0.07,0.285 -0.105,0.41 -0.03,0.12 -0.03,0.2 0,0.08 0.055,0.08 0.075,0 0.185,-0.095 0.11,-0.095 0.22,-0.205 0.11,-0.115 0.2,-0.21 0.095,-0.095 0.13,-0.095 0.07,0 0.07,0.17 0,0.35 -0.345,0.675 -0.58,0.34 -0.74,0.34 -0.015,0 -0.02,0 -0.4,0 -0.4,-0.64 0,-0.275 0.05,-0.505 0.055,-0.23 0.08,-0.335 0.025,-0.105 0.025,-0.215 z" />
    <path
       inkscape:connector-curvature="0"
       id="path5575"
       style="font-size:5px;font-style:normal;font-variant:normal;font-weight:normal;font-stretch:normal;text-align:start;line-height:125%;letter-spacing:0px;word-spacing:0px;writing-mode:lr-tb;text-anchor:start;fill:#000000;fill-opacity:0.23529412;stroke:none;font-family:Leckerli One;-inkscape-font-specification:Leckerli One"
       d="m 30.73625,1029.0147 q 0.09,0 0.09,0.23 0,0.125 -0.105,0.305 -0.105,0.175 -0.275,0.325 -0.165,0.145 -0.37,0.24 -0.205,0.095 -0.4,0.095 -0.265,0 -0.355,-0.465 -0.13,0.215 -0.34,0.355 -0.21,0.135 -0.565,0.135 -0.35,0 -0.565,-0.22 -0.215,-0.22 -0.21,-0.535 0,-0.85 0.565,-1.34 0.24,-0.205 0.445,-0.27 0.21,-0.065 0.44,-0.065 0.23,0 0.375,0.08 0.07,-0.145 0.16,-0.145 0.175,0 0.33,0.155 0.16,0.15 0.16,0.285 -0.07,0.165 -0.205,0.395 -0.04,0.23 -0.04,0.645 0,0.415 0.105,0.415 0.13,0 0.63,-0.52 0.09,-0.1 0.13,-0.1 z m -2.36,0.3 q 0,0.385 0.285,0.385 0.305,0 0.505,-0.325 0.07,-0.11 0.115,-0.27 0,-0.56 0.1,-0.96 -0.405,0.08 -0.705,0.39 -0.3,0.31 -0.3,0.78 z" />
    <path
       inkscape:connector-curvature="0"
       id="path5577"
       style="font-size:5px;font-style:normal;font-variant:normal;font-weight:normal;font-stretch:normal;text-align:start;line-height:125%;letter-spacing:0px;word-spacing:0px;writing-mode:lr-tb;text-anchor:start;fill:#000000;fill-opacity:0.23529412;stroke:none;font-family:Leckerli One;-inkscape-font-specification:Leckerli One"
       d="m 31.306406,1029.3547 0.03,0.61 q 0,0.12 -0.125,0.215 -0.125,0.095 -0.34,0.095 -0.125,0 -0.175,-0.13 -0.045,-0.13 -0.045,-0.38 0,-0.525 0.05,-0.82 0.055,-0.3 0.21,-0.605 -0.23,-0.22 -0.23,-0.38 0,-0.335 0.36,-0.335 0.185,0 0.325,0.195 0.1,0.135 0.145,0.315 0.07,0.025 0.175,0.025 0.145,0 0.335,-0.095 l 0.13,-0.065 q 0.06,-0.03 0.105,-0.03 0.145,0 0.29,0.425 -0.045,0.195 -0.1,0.375 -0.05,0.18 -0.12,0.435 -0.07,0.255 -0.075,0.345 0,0.085 0.055,0.085 0.075,0 0.185,-0.095 0.11,-0.095 0.22,-0.205 0.11,-0.115 0.2,-0.21 0.095,-0.095 0.13,-0.095 0.07,0 0.07,0.17 0,0.345 -0.305,0.68 -0.3,0.335 -0.69,0.33 -0.23,0 -0.345,-0.185 -0.115,-0.185 -0.12,-0.45 0,-0.525 0.235,-0.995 -0.11,0.045 -0.25,0.045 -0.135,0 -0.195,-0.01 -0.045,0.19 -0.09,0.385 -0.045,0.19 -0.045,0.355 z" />
    <path
       inkscape:connector-curvature="0"
       id="path5579"
       style="font-size:5px;font-style:normal;font-variant:normal;font-weight:normal;font-stretch:normal;text-align:start;line-height:125%;letter-spacing:0px;word-spacing:0px;writing-mode:lr-tb;text-anchor:start;fill:#000000;fill-opacity:0.23529412;stroke:none;font-family:Leckerli One;-inkscape-font-specification:Leckerli One"
       d="m 33.081562,1029.9247 q -0.055,-0.135 -0.08,-0.31 -0.025,-0.18 -0.025,-0.5 0,-0.32 0.12,-0.865 l -0.225,0 q -0.06,0 -0.06,-0.05 0,-0.12 0.02,-0.195 0.025,-0.08 0.11,-0.18 l 0.12,0 q 0.07,0 0.15,0 0.24,-0.77 0.49,-0.77 0.2,0 0.28,0.255 0.02,0.07 0.045,0.15 l -0.205,0.36 q 0.35,0.01 0.44,0.01 0.095,0 0.1,0.02 0.01,0.015 0.01,0.05 0,0.09 -0.045,0.225 -0.04,0.135 -0.095,0.13 l -0.5,-0.025 q -0.105,0.61 -0.105,1.01 0,0.4 0.115,0.4 0.095,0 0.345,-0.155 0.25,-0.16 0.36,-0.305 0.11,-0.145 0.18,-0.145 0.07,0 0.07,0.17 0,0.17 -0.12,0.35 -0.12,0.175 -0.305,0.325 -0.18,0.145 -0.405,0.24 -0.22,0.095 -0.385,0.095 -0.165,0 -0.255,-0.075 -0.085,-0.08 -0.145,-0.21 z" />
    <path
       inkscape:connector-curvature="0"
       id="path5581"
       style="font-size:5px;font-style:normal;font-variant:normal;font-weight:normal;font-stretch:normal;text-align:start;line-height:125%;letter-spacing:0px;word-spacing:0px;writing-mode:lr-tb;text-anchor:start;fill:#000000;fill-opacity:0.23529412;stroke:none;font-family:Leckerli One;-inkscape-font-specification:Leckerli One"
       d="m 35.583593,1027.7747 q 0.335,0 0.5,0.125 0.165,0.125 0.165,0.365 0,0.235 -0.145,0.405 -0.14,0.165 -0.345,0.235 0.145,0.15 0.26,0.305 0.12,0.155 0.12,0.325 0,0.335 -0.265,0.52 -0.265,0.18 -0.74,0.18 -0.47,0 -0.705,-0.185 -0.235,-0.19 -0.235,-0.425 0,-0.24 0.115,-0.435 0.12,-0.195 0.255,-0.195 0.08,0 0.115,0.06 0.035,0.055 0.13,0.33 0.035,0.1 0.115,0.19 0.185,0.205 0.585,0.205 -0.06,-0.19 -0.195,-0.325 -0.13,-0.14 -0.26,-0.27 -0.13,-0.13 -0.23,-0.275 -0.1,-0.15 -0.1,-0.35 0,-0.36 0.27,-0.585 0.255,-0.2 0.59,-0.2 z m -0.02,0.925 q 0.2,-0.215 0.2,-0.345 0,-0.06 -0.045,-0.105 -0.04,-0.05 -0.12,-0.05 -0.08,0 -0.155,0.02 -0.07,0.02 -0.115,0.03 0,0.19 0.235,0.45 z" />
    <path
       inkscape:connector-curvature="0"
       id="path5584"
       style="font-size:5px;font-style:normal;font-variant:normal;font-weight:normal;font-stretch:normal;text-align:start;line-height:125%;letter-spacing:0px;word-spacing:0px;writing-mode:lr-tb;text-anchor:start;fill:url(#linearGradient5614);fill-opacity:1;stroke:none;font-family:Leckerli One;-inkscape-font-specification:Leckerli One"
       d="m 12.406406,1028.1502 q -0.29,0.04 -0.48,0.04 -0.065,0 -0.065,-0.05 0,-0.115 0.155,-0.24 0.16,-0.13 0.515,-0.225 0.16,-0.57 0.365,-1.045 -0.5,0.025 -0.82,0.33 -0.08,0.08 -0.13,0.125 -0.05,0.045 -0.09,0.045 -0.035,0 -0.07,-0.06 -0.035,-0.06 -0.035,-0.16 0.005,-0.385 0.52,-0.625 0.515,-0.24 1.27,-0.235 l 1.5,0.025 q 0.135,0 0.135,0.105 0,0.03 -0.04,0.11 -0.04,0.075 -0.07,0.165 -0.065,0.18 -0.28,0.18 l -0.16,0 -0.665,0 -0.385,0 q -0.04,0.285 -0.24,0.93 l 0.915,0.015 q 0.08,0 0.08,0.095 0,0.03 -0.025,0.105 -0.025,0.075 -0.045,0.155 -0.04,0.165 -0.17,0.165 l -0.76,-0.035 -0.065,0 q -0.03,0 -0.07,0.01 -0.26,0.955 -0.26,1.51 0,0.295 -0.575,0.295 -0.125,0 -0.15,-0.125 -0.02,-0.13 -0.02,-0.34 0,-0.45 0.215,-1.255 z" />
    <path
       inkscape:connector-curvature="0"
       id="path5586"
       style="font-size:5px;font-style:normal;font-variant:normal;font-weight:normal;font-stretch:normal;text-align:start;line-height:125%;letter-spacing:0px;word-spacing:0px;writing-mode:lr-tb;text-anchor:start;fill:url(#linearGradient5616);fill-opacity:1;stroke:none;font-family:Leckerli One;-inkscape-font-specification:Leckerli One"
       d="m 15.792968,1029.8102 q -0.715,0.01 -0.975,-0.535 -0.09,-0.19 -0.09,-0.475 0,-0.29 0.05,-0.615 0.1,-0.65 0.385,-1.2 0.145,-0.28 0.325,-0.48 0.395,-0.44 0.88,-0.435 0.215,0 0.335,0.12 0.125,0.115 0.125,0.335 0,0.22 -0.13,0.445 -0.13,0.22 -0.335,0.46 -0.2,0.235 -0.445,0.495 -0.245,0.26 -0.48,0.565 l 0,0.2 q 0,0.28 0.12,0.41 0.12,0.13 0.28,0.13 0.43,0 0.76,-0.425 0.135,-0.175 0.205,-0.175 0.07,0 0.07,0.17 0,0.17 -0.095,0.35 -0.09,0.175 -0.24,0.325 -0.15,0.145 -0.345,0.24 -0.195,0.095 -0.4,0.095 z m 0.27,-2.685 q 0.105,-0.13 0.165,-0.235 0.06,-0.105 0.06,-0.215 0,-0.115 -0.08,-0.115 -0.175,0 -0.39,0.36 -0.21,0.36 -0.315,0.945 0.17,-0.26 0.31,-0.435 0.145,-0.175 0.25,-0.305 z" />
    <path
       inkscape:connector-curvature="0"
       id="path5588"
       style="font-size:5px;font-style:normal;font-variant:normal;font-weight:normal;font-stretch:normal;text-align:start;line-height:125%;letter-spacing:0px;word-spacing:0px;writing-mode:lr-tb;text-anchor:start;fill:url(#linearGradient5618);fill-opacity:1;stroke:none;font-family:Leckerli One;-inkscape-font-specification:Leckerli One"
       d="m 18.602265,1029.3702 q -0.395,0.465 -0.95,0.465 -0.55,0 -0.825,-0.28 -0.275,-0.285 -0.27,-0.705 -0.005,-0.595 0.375,-1.025 0.38,-0.43 0.995,-0.43 0.28,0 0.45,0.07 0.295,0.12 0.295,0.225 0,0.08 -0.415,0.085 -0.41,0 -0.69,0.285 -0.275,0.28 -0.275,0.71 0,0.225 0.13,0.38 0.135,0.15 0.375,0.15 0.245,0 0.405,-0.1 -0.355,-0.24 -0.355,-0.695 -0.005,-0.24 0.17,-0.435 0.18,-0.2 0.455,-0.2 0.28,-0.01 0.4,0.15 0.12,0.155 0.12,0.4 0,0.24 -0.115,0.51 l 0.03,0 q 0.22,-0.01 0.38,-0.155 0.06,-0.06 0.1,-0.105 0.045,-0.045 0.09,-0.045 0.07,0 0.07,0.165 0,0.305 -0.18,0.46 -0.18,0.15 -0.4,0.15 -0.215,0 -0.365,-0.03 z m -0.045,-0.58 q 0.085,-0.18 0.085,-0.35 0,-0.17 -0.11,-0.17 -0.045,0 -0.075,0.065 -0.03,0.065 -0.03,0.125 0,0.2 0.13,0.33 z" />
    <path
       inkscape:connector-curvature="0"
       id="path5590"
       style="font-size:5px;font-style:normal;font-variant:normal;font-weight:normal;font-stretch:normal;text-align:start;line-height:125%;letter-spacing:0px;word-spacing:0px;writing-mode:lr-tb;text-anchor:start;fill:url(#linearGradient5620);fill-opacity:1;stroke:none;font-family:Leckerli One;-inkscape-font-specification:Leckerli One"
       d="m 20.087109,1027.5952 q 0,0.335 -0.12,0.76 0.01,0.16 0.01,0.31 0.01,0.32 0.08,0.44 0.05,0.065 0.13,0.065 0.155,0 0.385,-0.22 -0.175,-0.415 -0.175,-0.75 0,-0.685 0.645,-0.685 0.22,0 0.365,0.13 0.15,0.125 0.15,0.315 0,0.4 -0.445,0.96 0.185,0.22 0.3,0.255 0.165,0 0.495,-0.61 -0.06,-0.225 -0.06,-0.42 0,-0.355 0.11,-0.52 0.135,-0.21 0.445,-0.21 0.315,0 0.355,0.255 0.01,0.075 0.01,0.16 0,0.32 -0.355,0.885 0.125,0.18 0.235,0.215 0.23,0 0.39,-0.155 0.06,-0.055 0.1,-0.1 0.045,-0.05 0.09,-0.05 0.07,0 0.07,0.165 0,0.305 -0.18,0.45 -0.18,0.145 -0.47,0.145 -0.29,0 -0.505,-0.28 -0.26,0.34 -0.43,0.475 -0.31,0.255 -0.485,0.255 -0.085,0 -0.22,-0.14 -0.13,-0.145 -0.26,-0.375 -0.24,0.225 -0.475,0.37 -0.235,0.145 -0.395,0.145 -0.29,0 -0.49,-1.26 -0.07,-0.43 -0.07,-0.59 0.01,-0.33 0.09,-0.46 0.11,-0.16 0.43,-0.16 0.12,0 0.185,0.075 0.065,0.07 0.065,0.155 z m 0.855,0.9 q 0.165,-0.255 0.165,-0.405 0,-0.155 -0.105,-0.155 -0.07,0 -0.09,0.08 -0.015,0.075 -0.015,0.2 0,0.125 0.045,0.28 z" />
    <path
       inkscape:connector-curvature="0"
       id="path5592"
       style="font-size:5px;font-style:normal;font-variant:normal;font-weight:normal;font-stretch:normal;text-align:start;line-height:125%;letter-spacing:0px;word-spacing:0px;writing-mode:lr-tb;text-anchor:start;fill:url(#linearGradient5622);fill-opacity:1;stroke:none;font-family:Leckerli One;-inkscape-font-specification:Leckerli One"
       d="m 25.061406,1028.6152 q 0.09,0 0.09,0.155 0,0.15 -0.08,0.325 -0.075,0.175 -0.235,0.34 -0.155,0.16 -0.4,0.275 -0.245,0.115 -0.58,0.115 -0.33,0 -0.58,-0.195 -0.25,-0.2 -0.25,-0.57 0,-0.375 0.115,-0.675 0.12,-0.305 0.31,-0.525 0.195,-0.22 0.44,-0.34 0.245,-0.125 0.465,-0.125 0.385,0 0.385,0.305 0,0.175 -0.075,0.28 -0.07,0.105 -0.145,0.105 -0.1,0 -0.175,-0.07 -0.075,-0.07 -0.165,-0.07 -0.09,-0.01 -0.175,0.085 -0.08,0.09 -0.135,0.23 -0.11,0.28 -0.11,0.655 0.005,0.18 0.165,0.27 0.11,0.06 0.26,0.065 0.15,0 0.285,-0.1 0.14,-0.1 0.255,-0.215 0.115,-0.12 0.2,-0.22 0.09,-0.1 0.135,-0.1 z" />
    <path
       inkscape:connector-curvature="0"
       id="path5594"
       style="font-size:5px;font-style:normal;font-variant:normal;font-weight:normal;font-stretch:normal;text-align:start;line-height:125%;letter-spacing:0px;word-spacing:0px;writing-mode:lr-tb;text-anchor:start;fill:url(#linearGradient5624);fill-opacity:1;stroke:none;font-family:Leckerli One;-inkscape-font-specification:Leckerli One"
       d="m 26.567578,1028.1152 q 0,-0.18 -0.215,-0.18 -0.21,0 -0.415,0.33 -0.205,0.325 -0.255,0.665 0.01,0.115 0.02,0.23 0.01,0.115 0.01,0.225 0,0.265 -0.175,0.36 -0.08,0.045 -0.155,0.085 -0.07,0.04 -0.165,0.04 -0.095,0 -0.17,-0.125 -0.07,-0.13 -0.07,-0.4 0,-0.755 0.11,-1.31 0.17,-0.86 0.675,-1.84 0.07,-0.135 0.205,-0.13 0.135,0 0.22,0.185 0.085,0.185 0.08,0.31 0,0.125 -0.04,0.245 -0.035,0.115 -0.095,0.23 -0.055,0.11 -0.13,0.23 -0.07,0.115 -0.14,0.25 l -0.075,0.36 q 0.195,-0.325 0.525,-0.435 0.12,-0.04 0.265,-0.04 0.34,0 0.515,0.155 0.175,0.15 0.175,0.43 0,0.275 -0.075,0.56 -0.07,0.285 -0.105,0.41 -0.03,0.12 -0.03,0.2 0,0.08 0.055,0.08 0.075,0 0.185,-0.095 0.11,-0.095 0.22,-0.205 0.11,-0.115 0.2,-0.21 0.095,-0.095 0.13,-0.095 0.07,0 0.07,0.17 0,0.35 -0.345,0.675 -0.58,0.34 -0.74,0.34 -0.015,0 -0.02,-0.01 -0.4,0 -0.4,-0.64 0,-0.275 0.05,-0.505 0.055,-0.23 0.08,-0.335 0.025,-0.105 0.025,-0.215 z" />
    <path
       inkscape:connector-curvature="0"
       id="path5596"
       style="font-size:5px;font-style:normal;font-variant:normal;font-weight:normal;font-stretch:normal;text-align:start;line-height:125%;letter-spacing:0px;word-spacing:0px;writing-mode:lr-tb;text-anchor:start;fill:url(#linearGradient5626);fill-opacity:1;stroke:none;font-family:Leckerli One;-inkscape-font-specification:Leckerli One"
       d="m 30.73625,1028.6152 q 0.09,0 0.09,0.23 0,0.125 -0.105,0.305 -0.105,0.175 -0.275,0.325 -0.165,0.145 -0.37,0.24 -0.205,0.095 -0.4,0.095 -0.265,0 -0.355,-0.465 -0.13,0.215 -0.34,0.355 -0.21,0.135 -0.565,0.135 -0.35,0 -0.565,-0.22 -0.215,-0.22 -0.21,-0.535 0,-0.85 0.565,-1.34 0.24,-0.205 0.445,-0.27 0.21,-0.065 0.44,-0.065 0.23,0 0.375,0.08 0.07,-0.145 0.16,-0.145 0.175,0 0.33,0.155 0.16,0.15 0.16,0.285 -0.07,0.165 -0.205,0.395 -0.04,0.23 -0.04,0.645 0,0.415 0.105,0.415 0.13,0 0.63,-0.52 0.09,-0.1 0.13,-0.1 z m -2.36,0.3 q 0,0.385 0.285,0.385 0.305,0 0.505,-0.325 0.07,-0.11 0.115,-0.27 0,-0.56 0.1,-0.96 -0.405,0.08 -0.705,0.39 -0.3,0.31 -0.3,0.78 z" />
    <path
       inkscape:connector-curvature="0"
       id="path5598"
       style="font-size:5px;font-style:normal;font-variant:normal;font-weight:normal;font-stretch:normal;text-align:start;line-height:125%;letter-spacing:0px;word-spacing:0px;writing-mode:lr-tb;text-anchor:start;fill:url(#linearGradient5628);fill-opacity:1;stroke:none;font-family:Leckerli One;-inkscape-font-specification:Leckerli One"
       d="m 31.306406,1028.9552 0.03,0.61 q 0,0.12 -0.125,0.215 -0.125,0.095 -0.34,0.095 -0.125,0 -0.175,-0.13 -0.045,-0.13 -0.045,-0.38 0,-0.525 0.05,-0.82 0.055,-0.3 0.21,-0.605 -0.23,-0.22 -0.23,-0.38 0,-0.335 0.36,-0.335 0.185,0 0.325,0.195 0.1,0.135 0.145,0.315 0.07,0.025 0.175,0.025 0.145,0 0.335,-0.095 l 0.13,-0.065 q 0.06,-0.03 0.105,-0.03 0.145,0 0.29,0.425 -0.045,0.195 -0.1,0.375 -0.05,0.18 -0.12,0.435 -0.07,0.255 -0.075,0.345 0,0.085 0.055,0.085 0.075,0 0.185,-0.095 0.11,-0.095 0.22,-0.205 0.11,-0.115 0.2,-0.21 0.095,-0.095 0.13,-0.095 0.07,0 0.07,0.17 0,0.345 -0.305,0.68 -0.3,0.335 -0.69,0.33 -0.23,0 -0.345,-0.185 -0.115,-0.185 -0.12,-0.45 0,-0.525 0.235,-0.995 -0.11,0.045 -0.25,0.045 -0.135,0 -0.195,-0.01 -0.045,0.19 -0.09,0.385 -0.045,0.19 -0.045,0.355 z" />
    <path
       inkscape:connector-curvature="0"
       id="path5600"
       style="font-size:5px;font-style:normal;font-variant:normal;font-weight:normal;font-stretch:normal;text-align:start;line-height:125%;letter-spacing:0px;word-spacing:0px;writing-mode:lr-tb;text-anchor:start;fill:url(#linearGradient5630);fill-opacity:1;stroke:none;font-family:Leckerli One;-inkscape-font-specification:Leckerli One"
       d="m 33.081562,1029.5252 q -0.055,-0.135 -0.08,-0.31 -0.025,-0.18 -0.025,-0.5 0,-0.32 0.12,-0.865 l -0.225,0 q -0.06,0 -0.06,-0.05 0,-0.12 0.02,-0.195 0.025,-0.08 0.11,-0.18 l 0.12,0 q 0.07,0 0.15,0 0.24,-0.77 0.49,-0.77 0.2,0 0.28,0.255 0.02,0.07 0.045,0.15 l -0.205,0.36 q 0.35,0.01 0.44,0.01 0.095,0 0.1,0.02 0.01,0.015 0.01,0.05 0,0.09 -0.045,0.225 -0.04,0.135 -0.095,0.13 l -0.5,-0.025 q -0.105,0.61 -0.105,1.01 0,0.4 0.115,0.4 0.095,0 0.345,-0.155 0.25,-0.16 0.36,-0.305 0.11,-0.145 0.18,-0.145 0.07,0 0.07,0.17 0,0.17 -0.12,0.35 -0.12,0.175 -0.305,0.325 -0.18,0.145 -0.405,0.24 -0.22,0.095 -0.385,0.095 -0.165,0 -0.255,-0.075 -0.085,-0.08 -0.145,-0.21 z" />
    <path
       inkscape:connector-curvature="0"
       id="path5602"
       style="font-size:5px;font-style:normal;font-variant:normal;font-weight:normal;font-stretch:normal;text-align:start;line-height:125%;letter-spacing:0px;word-spacing:0px;writing-mode:lr-tb;text-anchor:start;fill:url(#linearGradient5632);fill-opacity:1;stroke:none;font-family:Leckerli One;-inkscape-font-specification:Leckerli One"
       d="m 35.583593,1027.3752 q 0.335,0 0.5,0.125 0.165,0.125 0.165,0.365 0,0.235 -0.145,0.405 -0.14,0.165 -0.345,0.235 0.145,0.15 0.26,0.305 0.12,0.155 0.12,0.325 0,0.335 -0.265,0.52 -0.265,0.18 -0.74,0.18 -0.47,0 -0.705,-0.185 -0.235,-0.19 -0.235,-0.425 0,-0.24 0.115,-0.435 0.12,-0.195 0.255,-0.195 0.08,0 0.115,0.06 0.035,0.055 0.13,0.33 0.035,0.1 0.115,0.19 0.185,0.205 0.585,0.205 -0.06,-0.19 -0.195,-0.325 -0.13,-0.14 -0.26,-0.27 -0.13,-0.13 -0.23,-0.275 -0.1,-0.15 -0.1,-0.35 0,-0.36 0.27,-0.585 0.255,-0.2 0.59,-0.2 z m -0.02,0.925 q 0.2,-0.215 0.2,-0.345 0,-0.06 -0.045,-0.105 -0.04,-0.05 -0.12,-0.05 -0.08,0 -0.155,0.02 -0.07,0.02 -0.115,0.03 0,0.19 0.235,0.45 z" />
    <path
       id="path5958"
       d="m 39.023438,1029.9339 c -0.06127,-0.021 -0.133835,-0.019 -0.212891,0.022 -0.232603,0.1206 -0.468207,0.2355 -0.701172,0.3555 -0.05666,-0.1088 -0.185115,-0.1818 -0.341797,-0.1075 -0.08402,0.04 -0.169829,0.075 -0.253906,0.1153 -0.05561,-0.022 -0.119695,-0.031 -0.195313,0 l -0.677734,0.2598 c -1.056479,0.3927 -2.110832,0.796 -3.1875,1.1308 -0.316347,0.088 -0.637273,0.1687 -0.945313,0.2832 -0.330738,0.1323 -0.143237,0.5991 0.1875,0.4668 0.291494,-0.1063 0.593837,-0.1824 0.892579,-0.2656 0.199733,-0.062 0.395422,-0.1351 0.59375,-0.2012 0.04169,0.096 0.126079,0.1747 0.271484,0.1504 0.203674,-0.062 0.399701,-0.1469 0.599609,-0.2207 -0.141661,0.1924 0.04138,0.4911 0.3125,0.3555 0.360816,-0.173 0.710633,-0.3675 1.066407,-0.5508 0.87738,-0.4264 1.743452,-0.8732 2.609375,-1.3223 0.237168,-0.1229 0.16623,-0.4044 -0.01758,-0.4687 z"
       style="fill:#000000;fill-opacity:0.23529412;stroke:none"
       inkscape:connector-curvature="0" />
    <path
       style="fill:#272b30;fill-opacity:1;stroke:none"
       d="M 39.023438 25.171875 C 38.962168 25.150447 38.889603 25.152363 38.810547 25.193359 C 38.577944 25.313981 38.34234 25.42891 38.109375 25.548828 C 38.052712 25.440062 37.92426 25.367028 37.767578 25.441406 C 37.683562 25.48129 37.597749 25.516863 37.513672 25.556641 C 37.458061 25.534853 37.393977 25.525768 37.318359 25.554688 L 36.640625 25.814453 C 35.584146 26.207167 34.529793 26.610446 33.453125 26.945312 C 33.136778 27.033393 32.815852 27.113983 32.507812 27.228516 C 32.177074 27.360811 32.364575 27.827607 32.695312 27.695312 C 32.986806 27.588962 33.289149 27.512857 33.587891 27.429688 C 33.787624 27.3678 33.983313 27.294618 34.181641 27.228516 C 34.223329 27.324101 34.30772 27.40314 34.453125 27.378906 C 34.656799 27.316513 34.852826 27.23197 35.052734 27.158203 C 34.911073 27.350615 35.094116 27.64923 35.365234 27.513672 C 35.72605 27.340713 36.075867 27.146199 36.431641 26.962891 C 37.309021 26.536509 38.175093 26.089669 39.041016 25.640625 C 39.278184 25.517636 39.207246 25.236158 39.023438 25.171875 z "
       transform="translate(0,1004.3622)"
       id="path5951" />
  </g>
</svg>
