<?xml version="1.0" encoding="UTF-8" standalone="no"?>
<!-- Created with Inkscape (http://www.inkscape.org/) -->

<svg
   xmlns:dc="http://purl.org/dc/elements/1.1/"
   xmlns:cc="http://creativecommons.org/ns#"
   xmlns:rdf="http://www.w3.org/1999/02/22-rdf-syntax-ns#"
   xmlns:svg="http://www.w3.org/2000/svg"
   xmlns="http://www.w3.org/2000/svg"
   xmlns:xlink="http://www.w3.org/1999/xlink"
   xmlns:sodipodi="http://sodipodi.sourceforge.net/DTD/sodipodi-0.dtd"
   xmlns:inkscape="http://www.inkscape.org/namespaces/inkscape"
   width="48"
   height="48"
   id="svg5453"
   version="1.1"
   inkscape:version="0.49 r12742"
   sodipodi:docname="dogecoin.svg">
  <defs
     id="defs5455">
    <linearGradient
       inkscape:collect="always"
       id="linearGradient4216">
      <stop
         style="stop-color:#fadfbe;stop-opacity:1"
         offset="0"
         id="stop4218" />
      <stop
         style="stop-color:#fffaf5;stop-opacity:1"
         offset="1"
         id="stop4220" />
    </linearGradient>
    <linearGradient
       id="linearGradient3356"
       inkscape:collect="always">
      <stop
         id="stop3358"
         offset="0"
         style="stop-color:#ebc775;stop-opacity:1" />
      <stop
         id="stop3360"
         offset="1"
         style="stop-color:#f0daa3;stop-opacity:1" />
    </linearGradient>
    <linearGradient
       gradientUnits="userSpaceOnUse"
       y2="-499.79691"
       x2="413.63187"
       y1="-547.8006"
       x1="413.63187"
       id="linearGradient3362"
       xlink:href="#linearGradient3356-6"
       inkscape:collect="always"
       gradientTransform="translate(-5.1171873e-7,-4.5375781e-5)" />
    <linearGradient
       id="linearGradient3356-6"
       inkscape:collect="always">
      <stop
         id="stop3358-9"
         offset="0"
         style="stop-color:#ed9223;stop-opacity:1" />
      <stop
         id="stop3360-6"
         offset="1"
         style="stop-color:#f9a847;stop-opacity:1" />
    </linearGradient>
    <linearGradient
       inkscape:collect="always"
       xlink:href="#linearGradient3356"
       id="linearGradient4198"
       gradientUnits="userSpaceOnUse"
       gradientTransform="matrix(1,0,0,-1,-384.57143,-499.79795)"
       x1="413.63187"
       y1="-547.8006"
       x2="413.63187"
       y2="-499.79691" />
    <linearGradient
       inkscape:collect="always"
       xlink:href="#linearGradient4216"
       id="linearGradient4214"
       x1="426.48914"
       y1="529.65448"
       x2="426.48914"
       y2="501.53052"
       gradientUnits="userSpaceOnUse" />
    <linearGradient
       inkscape:collect="always"
       xlink:href="#linearGradient4216"
       id="linearGradient4222"
       gradientUnits="userSpaceOnUse"
       x1="426.48914"
       y1="529.65448"
       x2="426.48914"
       y2="501.53052" />
  </defs>
  <sodipodi:namedview
     id="base"
     pagecolor="#ffffff"
     bordercolor="#666666"
     borderopacity="1.0"
     inkscape:pageopacity="0"
     inkscape:pageshadow="2"
     inkscape:zoom="3.0530358"
     inkscape:cx="35.281363"
     inkscape:cy="39.762662"
     inkscape:document-units="px"
     inkscape:current-layer="layer1"
     showgrid="false"
     fit-margin-top="0"
     fit-margin-left="0"
     fit-margin-right="0"
     fit-margin-bottom="0"
     inkscape:window-width="1366"
     inkscape:window-height="718"
     inkscape:window-x="-2"
     inkscape:window-y="23"
     inkscape:window-maximized="1"
     inkscape:showpageshadow="false"
     borderlayer="true" />
  <metadata
     id="metadata5458">
    <rdf:RDF>
      <cc:Work
         rdf:about="">
        <dc:format>image/svg+xml</dc:format>
        <dc:type
           rdf:resource="http://purl.org/dc/dcmitype/StillImage" />
        <dc:title />
      </cc:Work>
    </rdf:RDF>
  </metadata>
  <g
     inkscape:label="Capa 1"
     inkscape:groupmode="layer"
     id="layer1"
     transform="translate(-384.57143,-499.798)">
    <rect
       transform="scale(1,-1)"
       ry="1.9445436"
       y="-547.79797"
       x="384.57144"
       height="48"
       width="48"
       id="rect4194"
       style="fill:url(#linearGradient3362);fill-opacity:1.0;stroke:none" />
    <path
       style="fill:url(#linearGradient4198);fill-opacity:1;stroke:none;opacity:0.1"
       d="M 18.341797 6.4433594 L 17.523438 7.015625 L 15.804688 11.314453 L 15.517578 12.419922 L 12.283203 14.753906 L 8.84375 19.585938 L 7.5332031 25.359375 L 8.0664062 30.886719 L 10.03125 35.349609 L 30.804688 40.587891 C 34.278808 40.240481 35.539062 39.15625 35.539062 39.15625 L 37.544922 37.4375 L 39.345703 35.021484 L 40.328125 31.007812 L 40.246094 27.814453 L 38.978516 20.691406 L 37.75 17.621094 L 37.134766 14.876953 L 36.357422 8.3671875 L 35.703125 7.5898438 L 34.841797 7.7949219 L 32.548828 9.1855469 L 29.847656 11.396484 L 21.904297 10.90625 L 18.792969 6.8105469 L 18.341797 6.4433594 z "
       transform="translate(384.57143,499.798)"
       id="rect2991-1-7-2" />
    <path
       inkscape:connector-curvature="0"
       style="fill:#000000;fill-opacity:1;stroke:none"
       d="m 384.57143,544.79799 0,1.0625 c 0,1.0773 0.86022,1.9375 1.9375,1.9375 l 44.125,0 c 1.07728,0 1.9375,-0.8602 1.9375,-1.9375 l 0,-1.0625 c 0,1.0773 -0.86022,1.9375 -1.9375,1.9375 l -44.125,0 C 385.43165,546.73549 384.57143,545.87529 384.57143,544.79799 Z"
       id="rect846" />
    <path
       inkscape:connector-curvature="0"
       style="fill:#ffffff;fill-opacity:0.5372549;stroke:none"
       d="m 387.10268,500.45429 c -0.91709,0 -1.67115,0.6395 -1.84375,1.5 0.33561,-0.2799 0.77451,-0.4375 1.25,-0.4375 l 44.125,0 c 0.47549,0 0.91439,0.1576 1.25,0.4375 -0.1726,-0.8605 -0.92666,-1.5 -1.84375,-1.5 L 387.10268,500.45429 Z"
       id="path7515" />
    <path
       inkscape:connector-curvature="0"
       style="fill:#000000;fill-opacity:0.39215686;stroke:none"
       d="m 386.50893,499.79799 c -1.07728,0 -1.9375,0.8602 -1.9375,1.9375 l 0,43.0625 c 0,0.7934 0.48002,1.449 1.15625,1.75 -0.30934,-0.3333 -0.5,-0.7824 -0.5,-1.2812 l 0,-42.9375 c 0,-1.0482 0.8269,-1.875 1.875,-1.875 l 42.9375,0 c 1.0481,0 1.875,0.8268 1.875,1.875 l 0,42.9375 c 0,0.4988 -0.19066,0.9479 -0.5,1.2812 0.67623,-0.301 1.15625,-0.9566 1.15625,-1.75 l 0,-43.0625 c 0,-1.0773 -0.86022,-1.9375 -1.9375,-1.9375 L 386.50893,499.79799 Z"
       id="rect4280" />
    <path
       style="fill:#f0daa3;fill-opacity:1;stroke:none;opacity:0.1"
       d="m 394.46076,535.14429 c 10.59605,9.78543 21.62793,5.67742 23.73979,4.16894 2.8372,-2.02656 4.53899,-10.51045 2.953,-15.22821 -1.83083,-5.44606 -11.11717,-0.1737 -16.21254,-0.0579 -5.09537,0.11581 -7.77429,0.85123 -8.39578,-1.67915 -0.81063,-3.30042 0.86852,-5.21118 -0.40532,-5.21118 -2.38525,0 -3.64782,5.03747 -3.64782,5.03747 l -0.1158,6.54292 z"
       id="path4132-5"
       inkscape:connector-curvature="0"
       sodipodi:nodetypes="csssssccc" />
    <path
       style="fill:#342b16;fill-opacity:1;opacity:0.1"
       d="m 417.1697,540.40295 c -0.17756,-0.17756 -0.0461,-0.28014 1.07292,-0.83706 3.05244,-1.51918 5.18817,-3.87273 5.97255,-6.58165 0.34193,-1.18089 0.47408,-4.35744 0.25796,-6.20049 -0.36142,-3.08202 -1.28119,-6.69424 -2.17643,-8.54747 l -0.63403,-1.3125 -0.0914,-1.6875 c -0.14094,-2.60092 -0.35376,-4.72507 -0.56983,-5.6875 -0.22402,-0.99781 -0.62452,-1.92979 -0.86972,-2.02389 -0.26462,-0.10154 -1.65122,0.61082 -2.63688,1.3547 -0.49722,0.37526 -1.41263,1.14868 -2.03422,1.71871 l -1.13017,1.03643 -1.15328,-0.19419 c -4.21478,-0.70968 -7.70274,-0.64185 -9.93464,0.19321 -0.49928,0.18681 -0.71637,0.2173 -0.81868,0.11498 -0.32446,-0.32445 0.95422,-0.87659 2.68817,-1.16076 0.50153,-0.0822 0.93671,-0.16821 0.96705,-0.19116 0.0303,-0.023 -0.23001,-0.33563 -0.57858,-0.69487 -0.34857,-0.35924 -0.94331,-1.07503 -1.32165,-1.59066 -0.37834,-0.51562 -0.83994,-1.07812 -1.02578,-1.25 l -0.3379,-0.3125 -0.25367,0.3125 c -0.71999,0.88697 -1.63711,3.16524 -1.97998,4.91863 -0.12053,0.61637 -0.20259,0.76351 -0.52282,0.9375 -1.65105,0.89703 -3.62458,2.64512 -4.86661,4.31068 -2.10106,2.81751 -2.97666,6.37439 -2.62871,10.67842 0.24266,3.00154 0.69738,4.54227 1.95201,6.61388 0.49769,0.82179 0.63446,1.1451 0.53588,1.26681 -0.19255,0.23772 -0.56426,-0.18842 -1.31149,-1.50355 -1.22213,-2.15093 -1.77909,-4.6802 -1.77763,-8.07252 0.002,-3.587 0.72877,-6.27745 2.34101,-8.66077 1.32019,-1.9516 3.61935,-4.14937 5.08103,-4.85695 0.53215,-0.25761 0.57019,-0.31094 0.70148,-0.98351 0.25512,-1.30689 0.62133,-2.36719 1.25427,-3.63151 1.15096,-2.29907 1.60722,-2.31623 3.24845,-0.12212 0.51453,0.68787 1.24508,1.54614 1.62343,1.90728 l 0.68791,0.6566 1.74959,0.0832 c 0.96227,0.0457 2.60632,0.2031 3.65344,0.34964 l 1.90385,0.26644 0.81695,-0.76423 c 1.90666,-1.78358 4.13939,-3.26857 4.91482,-3.26883 1.25204,-5e-4 1.86772,2.27504 2.13073,7.8749 l 0.0851,1.8125 0.65162,1.37574 c 0.47929,1.01193 0.79777,1.95401 1.20433,3.5625 1.19241,4.7176 1.4561,8.00582 0.87205,10.87426 -0.62621,3.07554 -2.78092,5.67992 -6.1305,7.40991 -1.12131,0.57913 -1.41541,0.67334 -1.58199,0.50676 z m -16.02083,-10.67009 c -0.275,-0.0556 -1.20313,-0.36501 -2.0625,-0.68761 -1.4466,-0.54305 -1.62045,-0.58064 -2.34375,-0.50677 -0.71365,0.0729 -0.78125,0.0591 -0.78125,-0.15911 0,-0.26214 0.31585,-0.38863 0.97717,-0.39135 0.33569,-0.001 0.40243,-0.0434 0.35042,-0.22046 -0.0353,-0.12031 -0.10037,-0.42286 -0.14449,-0.67234 -0.0549,-0.31044 -0.25741,-0.62601 -0.64169,-1 -0.30881,-0.30052 -0.64246,-0.70049 -0.74145,-0.88881 -0.16827,-0.32011 -0.15948,-0.36021 0.13503,-0.61629 0.3299,-0.28684 0.4522,-0.62328 0.1291,-0.35513 -0.22934,0.19033 -0.56409,0.0785 -0.56409,-0.18847 0,-0.6676 0.75837,-1.32397 1.79922,-1.55723 1.04998,-0.23531 2.63638,0.33649 3.31021,1.19312 0.33144,0.42135 0.33234,0.62724 0.005,1.1789 -0.53621,0.90408 -1.86238,1.86522 -2.58334,1.87225 -0.22822,0.002 -0.28125,0.0731 -0.28125,0.37578 0,0.6317 0.53037,1.04142 2.08806,1.61302 1.58271,0.58079 1.91706,0.61176 2.97444,0.27548 2.779,-0.88382 2.6875,-0.8661 2.6875,-0.52051 0,0.17783 -0.18148,0.30892 -0.69219,0.5 -0.3807,0.14244 -0.76727,0.25898 -0.85905,0.25898 -0.0918,0 -0.59764,0.14062 -1.12417,0.3125 -0.52652,0.17188 -0.99777,0.30634 -1.0472,0.2988 -0.0494,-0.008 -0.31489,-0.0592 -0.58989,-0.11475 z m -2.25747,-5.0443 c -0.0452,-0.17999 -0.16041,-0.32725 -0.25608,-0.32725 -0.22678,0 -0.21971,0.12904 0.0263,0.48027 0.24452,0.3491 0.33987,0.2856 0.22978,-0.15302 z m -0.0967,3.21442 c -0.14383,-0.14383 -0.091,-0.29167 0.10417,-0.29167 0.10312,0 0.1875,0.0844 0.1875,0.1875 0,0.1952 -0.14784,0.248 -0.29167,0.10417 z m -3.45833,-0.34375 c 0,-0.10886 0.0891,-0.19792 0.19791,-0.19792 0.10886,0 0.17566,0.0668 0.14844,0.14844 -0.0773,0.23177 -0.34635,0.27022 -0.34635,0.0495 z m 0.9375,0.0521 c -0.0499,-0.0807 -0.0344,-0.20303 0.0343,-0.27178 0.0833,-0.0833 0.15524,-0.0761 0.21571,0.0217 0.0499,0.0807 0.0344,0.20303 -0.0343,0.27178 -0.0833,0.0833 -0.15524,0.0761 -0.21572,-0.0218 z m 3.6875,-0.0729 c 0,-0.10885 0.0668,-0.17565 0.14844,-0.14843 0.23177,0.0773 0.27022,0.34635 0.0495,0.34635 -0.10885,0 -0.19792,-0.0891 -0.19792,-0.19792 z m 0.90364,-0.0755 c 0.0773,-0.23178 0.34636,-0.27022 0.34636,-0.0495 0,0.10886 -0.0891,0.19792 -0.19792,0.19792 -0.10885,0 -0.17565,-0.0668 -0.14844,-0.14844 z m 1.15886,0.0234 c -0.0499,-0.0807 -0.0344,-0.20303 0.0343,-0.27178 0.0833,-0.0833 0.15524,-0.0761 0.21571,0.0218 0.0499,0.0807 0.0344,0.20303 -0.0343,0.27178 -0.0833,0.0833 -0.15524,0.0761 -0.21572,-0.0218 z m 0.75126,-0.12296 c -0.0922,-0.14917 0.0248,-0.37704 0.19362,-0.37704 0.1521,0 0.15308,0.33833 10e-4,0.43216 -0.064,0.0396 -0.1517,0.0148 -0.19488,-0.0551 z m -4.12626,-0.12704 c -0.0499,-0.0807 -0.0344,-0.20303 0.0343,-0.27178 0.0833,-0.0833 0.15524,-0.0761 0.21571,0.0218 0.0499,0.0807 0.0344,0.20303 -0.0343,0.27178 -0.0833,0.0833 -0.15524,0.0761 -0.21572,-0.0218 z m 0.86827,-0.26089 c -0.0462,-0.0747 -0.035,-0.1849 0.0249,-0.24479 0.14783,-0.14784 0.4732,0.0674 0.36545,0.24171 -0.1092,0.17667 -0.28224,0.17804 -0.39037,0.003 z m 1.00673,-0.11411 c -0.0499,-0.0807 -0.0344,-0.20303 0.0343,-0.27178 0.0833,-0.0833 0.15524,-0.0761 0.21571,0.0218 0.0499,0.0807 0.0344,0.20303 -0.0343,0.27178 -0.0833,0.0833 -0.15524,0.0761 -0.21572,-0.0218 z m -4.28854,-0.13437 c 0.0247,-0.0739 0.0982,-0.13438 0.16354,-0.13438 0.0653,0 0.1389,0.0605 0.16354,0.13438 0.0247,0.0739 -0.0489,0.13437 -0.16354,0.13437 -0.11459,0 -0.18818,-0.0605 -0.16354,-0.13437 z m -0.89896,-0.31354 c 0,-0.22075 0.26909,-0.1823 0.34635,0.0495 0.0272,0.0816 -0.0396,0.14844 -0.14844,0.14844 -0.10885,0 -0.19791,-0.0891 -0.19791,-0.19792 z m 5.875,0 c 0,-0.22075 0.26909,-0.1823 0.34635,0.0495 0.0272,0.0816 -0.0396,0.14844 -0.14844,0.14844 -0.10885,0 -0.19791,-0.0891 -0.19791,-0.19792 z m 1.93236,0.0646 c -0.11504,-0.18615 0.0183,-0.28735 0.25767,-0.19551 0.11045,0.0424 0.1658,0.1337 0.12301,0.20294 -0.10132,0.16394 -0.27688,0.16051 -0.38068,-0.007 z m -1.30736,-0.17919 c 0,-0.10312 0.0844,-0.1875 0.1875,-0.1875 0.10312,0 0.1875,0.0844 0.1875,0.1875 0,0.10313 -0.0844,0.1875 -0.1875,0.1875 -0.10313,0 -0.1875,-0.0844 -0.1875,-0.1875 z m 4.8125,-4.24263 c -0.86649,-0.31955 -1.44006,-1.16963 -1.26359,-1.87273 0.10387,-0.41386 0.64881,-1.03821 1.12223,-1.28577 0.51411,-0.26885 1.76662,-0.26989 2.27905,-0.002 0.44318,0.23177 1.11451,0.95363 1.23245,1.3252 0.12058,0.37994 -0.36941,1.21994 -0.92678,1.58879 -0.61286,0.40557 -1.71137,0.51635 -2.44336,0.2464 z m 0.12777,-0.97612 c -0.10954,-0.62633 0.0836,-1.14862 0.44314,-1.19808 0.33795,-0.0465 0.64781,-0.27067 0.37412,-0.27067 -0.0921,0 -0.234,-0.091 -0.31531,-0.20218 -0.13605,-0.18606 -0.17893,-0.18611 -0.53744,-10e-4 -0.80563,0.4166 -1.02099,1.22305 -0.47296,1.77108 0.42612,0.42612 0.59461,0.39317 0.50845,-0.0994 z m -8.85122,-1.14618 c -0.45518,-0.34526 -0.58332,-1.34593 -0.2597,-2.02792 0.37536,-0.79101 1.29925,-1.01949 2.05841,-0.50906 0.72518,0.48759 0.85152,1.4731 0.27227,2.1239 -0.47842,0.53753 -1.60949,0.76314 -2.07098,0.41308 z m 0.82761,-1.70034 0.39584,-0.003 -0.31144,-0.23927 c -0.28574,-0.21954 -0.32957,-0.22287 -0.53125,-0.0403 -0.12555,0.11362 -0.21558,0.36483 -0.20994,0.5858 l 0.01,0.38688 0.12555,-0.34375 c 0.10049,-0.27515 0.20454,-0.34431 0.52138,-0.34653 z"
       id="path4126-4"
       inkscape:connector-curvature="0"
       sodipodi:nodetypes="ssssscssssscsssscssscssssssssssssssscsscscscssssscssscsssssssssscssssssscccsssssssssssssssssssssssssssssscssccssssscssccssssscscscsssssssscscccssssscssssscccssscsccsssssccssccscc" />
    <g
       transform="matrix(1.088647,0,0,1.0921986,-46.634425,-38.175204)"
       id="g4236"
       style="font-size:40px;font-style:normal;font-variant:normal;font-weight:bold;font-stretch:normal;line-height:125%;letter-spacing:0px;word-spacing:0px;fill:#000000;fill-opacity:0.05882353;stroke:none;font-family:Bitter;-inkscape-font-specification:Bitter Bold">
      <path
         style="fill:#000000;fill-opacity:0.05882353"
         inkscape:connector-curvature="0"
         id="path4238"
         d="m 408.27908,525.1326 -3,1.2 0,3.4 12.4,0 c 8.12,0 13.32,-5.48 13.32,-14.48 0,-9 -4.72,-13.72 -12.72,-13.72 l -3.8,0 -9.2,0.2 0,3.4 3,1.2 0,18.8 z m 6.2,-0.2 0,-18.6 3.6,0 c 3.92,0 6.2,2.4 6.2,9.12 0,7.2 -2.6,9.48 -6.48,9.48 l -3.32,0 z" />
    </g>
    <g
       style="font-size:40px;font-style:normal;font-variant:normal;font-weight:bold;font-stretch:normal;line-height:125%;letter-spacing:0px;word-spacing:0px;fill:#000000;fill-opacity:0.11764706;stroke:none;font-family:Bitter;-inkscape-font-specification:Bitter Bold"
       id="g4232"
       transform="matrix(1.088647,0,0,1.0921986,-46.634425,-38.575204)">
      <path
         d="m 408.27908,525.1326 -3,1.2 0,3.4 12.4,0 c 8.12,0 13.32,-5.48 13.32,-14.48 0,-9 -4.72,-13.72 -12.72,-13.72 l -3.8,0 -9.2,0.2 0,3.4 3,1.2 0,18.8 z m 6.2,-0.2 0,-18.6 3.6,0 c 3.92,0 6.2,2.4 6.2,9.12 0,7.2 -2.6,9.48 -6.48,9.48 l -3.32,0 z"
         id="path4234"
         inkscape:connector-curvature="0"
         style="fill:#000000;fill-opacity:0.11764706" />
    </g>
    <g
       transform="matrix(1.088647,0,0,1.0921986,-46.634425,-38.975204)"
       id="g4224"
       style="font-size:40px;font-style:normal;font-variant:normal;font-weight:bold;font-stretch:normal;line-height:125%;letter-spacing:0px;word-spacing:0px;fill:#000000;fill-opacity:0.23529412;stroke:none;font-family:Bitter;-inkscape-font-specification:Bitter Bold">
      <path
         style="fill:#000000;fill-opacity:0.23529412"
         inkscape:connector-curvature="0"
         id="path4226"
         d="m 408.27908,525.1326 -3,1.2 0,3.4 12.4,0 c 8.12,0 13.32,-5.48 13.32,-14.48 0,-9 -4.72,-13.72 -12.72,-13.72 l -3.8,0 -9.2,0.2 0,3.4 3,1.2 0,18.8 z m 6.2,-0.2 0,-18.6 3.6,0 c 3.92,0 6.2,2.4 6.2,9.12 0,7.2 -2.6,9.48 -6.48,9.48 l -3.32,0 z" />
    </g>
    <g
       style="font-size:40px;font-style:normal;font-variant:normal;font-weight:bold;font-stretch:normal;line-height:125%;letter-spacing:0px;word-spacing:0px;fill:url(#linearGradient4214);fill-opacity:1;stroke:none;font-family:Bitter;-inkscape-font-specification:Bitter Bold"
       id="text4201"
       transform="matrix(1.088647,0,0,1.0921986,-46.634425,-39.375204)">
      <path
         d="m 408.27908,525.1326 -3,1.2 0,3.4 12.4,0 c 8.12,0 13.32,-5.48 13.32,-14.48 0,-9 -4.72,-13.72 -12.72,-13.72 l -3.8,0 -9.2,0.2 0,3.4 3,1.2 0,18.8 z m 6.2,-0.2 0,-18.6 3.6,0 c 3.92,0 6.2,2.4 6.2,9.12 0,7.2 -2.6,9.48 -6.48,9.48 l -3.32,0 z"
         id="path4206"
         inkscape:connector-curvature="0"
         style="fill:url(#linearGradient4222);fill-opacity:1" />
    </g>
    <path
       style="font-size:40px;font-style:normal;font-variant:normal;font-weight:bold;font-stretch:normal;line-height:125%;letter-spacing:0px;word-spacing:0px;fill:#ed9324;fill-opacity:0.3137255;stroke:none;font-family:Bitter;-inkscape-font-specification:Bitter Bold"
       d="M 10 11.732422 L 10 12.53125 L 13.265625 13.841797 L 13.265625 13.042969 L 10 11.732422 z M 20.015625 13.042969 L 20.015625 13.841797 L 23.935547 13.841797 C 28.119799 13.841797 30.581091 16.373941 30.675781 23.390625 C 30.677432 23.259166 30.683594 23.138499 30.683594 23.003906 C 30.683594 15.664336 28.203047 13.042969 23.935547 13.042969 L 20.015625 13.042969 z M 37.986328 23.167969 C 37.838023 32.765491 32.222121 38.599609 23.5 38.599609 L 10 38.599609 L 10 39.400391 L 23.5 39.400391 C 32.33982 39.400391 38 33.413774 38 23.583984 C 38 23.440974 37.988499 23.308999 37.986328 23.167969 z "
       transform="translate(384.57143,499.798)"
       id="path4242" />
    <path
       style="font-size:40px;font-style:normal;font-variant:normal;font-weight:bold;font-stretch:normal;line-height:125%;letter-spacing:0px;word-spacing:0px;fill:#ffffff;fill-opacity:0.23529412;stroke:none;font-family:Bitter;-inkscape-font-specification:Bitter Bold"
       d="M 20.015625 8.5996094 L 10 8.8183594 L 10 9.21875 L 20.015625 9 L 24.152344 9 C 32.797863 9 37.9177 14.085327 37.992188 23.775391 C 37.992688 23.71035 38 23.649366 38 23.583984 C 38 13.754204 32.861524 8.5996094 24.152344 8.5996094 L 20.015625 8.5996094 z M 30.679688 23.996094 C 30.631761 31.701652 27.816709 34.158203 23.628906 34.158203 L 20.015625 34.158203 L 20.015625 34.556641 L 23.628906 34.556641 C 27.852856 34.556641 30.683594 32.066955 30.683594 24.203125 C 30.683594 24.131198 30.680164 24.067117 30.679688 23.996094 z M 13.265625 34.375 L 10 35.685547 L 10 36.085938 L 13.265625 34.775391 L 13.265625 34.375 z "
       transform="translate(384.57143,499.798)"
       id="path4253" />
  </g>
</svg>
