<?xml version="1.0" encoding="UTF-8" standalone="no"?>
<!-- Created with Inkscape (http://www.inkscape.org/) -->

<svg
   xmlns:dc="http://purl.org/dc/elements/1.1/"
   xmlns:cc="http://creativecommons.org/ns#"
   xmlns:rdf="http://www.w3.org/1999/02/22-rdf-syntax-ns#"
   xmlns:svg="http://www.w3.org/2000/svg"
   xmlns="http://www.w3.org/2000/svg"
   xmlns:xlink="http://www.w3.org/1999/xlink"
   xmlns:sodipodi="http://sodipodi.sourceforge.net/DTD/sodipodi-0.dtd"
   xmlns:inkscape="http://www.inkscape.org/namespaces/inkscape"
   width="48"
   height="48"
   id="svg2"
   version="1.1"
   inkscape:version="0.48+devel r12487"
   sodipodi:docname="easystroke.svg">
  <defs
     id="defs4">
    <linearGradient
       id="linearGradient4085">
      <stop
         id="stop4087"
         offset="0"
         style="stop-color:#f1c7c7;stop-opacity:1" />
      <stop
         id="stop4089"
         offset="1"
         style="stop-color:#fef6f6;stop-opacity:1" />
    </linearGradient>
    <linearGradient
       id="linearGradient3795">
      <stop
         style="stop-color:#ce3c3c;stop-opacity:1"
         offset="0"
         id="stop3797" />
      <stop
         style="stop-color:#ea5252;stop-opacity:1"
         offset="1"
         id="stop3799" />
    </linearGradient>
    <linearGradient
       inkscape:collect="always"
       xlink:href="#linearGradient4085"
       id="linearGradient975"
       x1="-84.610794"
       y1="927.55194"
       x2="-84.610794"
       y2="878.06256"
       gradientUnits="userSpaceOnUse"
       gradientTransform="matrix(0.61761344,0,0,0.61761344,78.820672,470.68265)" />
    <linearGradient
       inkscape:collect="always"
       xlink:href="#linearGradient3795"
       id="linearGradient848"
       x1="24.04163"
       y1="-1053.0693"
       x2="24.04163"
       y2="-1004.6325"
       gradientUnits="userSpaceOnUse" />
  </defs>
  <sodipodi:namedview
     id="base"
     pagecolor="#ffffff"
     bordercolor="#666666"
     borderopacity="1.0"
     inkscape:pageopacity="0.0"
     inkscape:pageshadow="2"
     inkscape:zoom="4.2109375"
     inkscape:cx="43.14333"
     inkscape:cy="36.398082"
     inkscape:document-units="px"
     inkscape:current-layer="layer1"
     showgrid="false"
     inkscape:window-width="1366"
     inkscape:window-height="715"
     inkscape:window-x="0"
     inkscape:window-y="30"
     inkscape:window-maximized="1" />
  <metadata
     id="metadata7">
    <rdf:RDF>
      <cc:Work
         rdf:about="">
        <dc:format>image/svg+xml</dc:format>
        <dc:type
           rdf:resource="http://purl.org/dc/dcmitype/StillImage" />
        <dc:title />
      </cc:Work>
    </rdf:RDF>
  </metadata>
  <g
     inkscape:label="Capa 1"
     inkscape:groupmode="layer"
     id="layer1"
     transform="translate(0,-1004.3622)">
    <rect
       style="fill:url(#linearGradient848);fill-opacity:1.0;stroke:none"
       id="rect2991-1"
       width="48"
       height="48"
       x="-1.604248e-06"
       y="-1052.3622"
       ry="1.9445436"
       transform="scale(1,-1)" />
    <path
       inkscape:connector-curvature="0"
       id="path4097"
       d="m 22.296051,1014.1622 c -3.56931,0 -6.507963,2.6456 -6.990257,6.0819 l 1.278196,-1.5058 1.448875,1.7049 c 0.382114,-2.0255 2.126843,-3.5805 4.263186,-3.5805 1.747455,0 3.257555,1.0182 3.952171,2.5014 l -0.995629,0 1.39388,1.6765 1.363537,1.6195 1.363537,-1.6195 1.39388,-1.6765 -1.678345,0 c -0.817476,-2.9999 -3.533549,-5.2019 -6.793031,-5.2019 z m -5.712061,5.2019 -2.757417,3.296 1.564559,0 c 0.527753,2.61 2.473523,4.6903 5.006588,5.3954 l 0,1.2934 0,4.7088 c -0.226059,0.048 -0.442916,0.035 -0.656166,0 l -0.597378,-0.5993 c -0.876781,-0.8768 -2.288366,-0.8768 -3.165148,0 -0.876783,0.8768 -0.876783,2.2884 0,3.1652 l 3.878209,3.8801 c 0.248366,0.2816 0.420685,0.5925 0.540483,0.9254 l 0.771849,1.4091 0.312912,0.6372 c 0.491738,0.8516 0.62926,1.0958 1.020282,1.4868 l 0.03793,0 10.475908,0 c 0.312551,-0.064 0.630913,-0.1302 0.847707,-0.347 0.192236,-0.1923 0.309119,-0.7529 0.309119,-0.7529 l 0,-13.2978 c -0.07507,-0.2701 -0.116883,-0.5607 -0.309119,-0.7529 -0.290467,-0.2905 -0.692721,-0.4627 -1.137861,-0.4627 l -6.904921,0 -0.07775,0 -0.481695,0 c -0.331727,0 -0.599274,-0.2676 -0.599274,-0.5993 l 0,-0.8477 c 2.610702,-0.9265 4.527604,-3.3298 4.710745,-6.2071 l -1.363537,1.6196 -1.33509,-1.6196 c -0.138255,1.3614 -0.911058,2.5317 -2.012118,3.2316 l 0,-2.179 c -1e-6,-1.1795 -0.942642,-2.124 -2.122111,-2.124 -1.179469,0 -2.142971,0.9445 -2.142971,2.124 l 0,2.4312 c -1.048675,-0.5043 -1.870343,-1.407 -2.251068,-2.5185 l 1.2232,0 -2.785862,-3.296 z"
       style="fill:#000000;fill-opacity:0.05882353;stroke:none" />
    <path
       style="fill:#000000;fill-opacity:0.11764706;stroke:none"
       d="m 22.296051,1013.7622 c -3.56931,0 -6.507963,2.6456 -6.990257,6.0819 l 1.278196,-1.5058 1.448875,1.7049 c 0.382114,-2.0255 2.126843,-3.5805 4.263186,-3.5805 1.747455,0 3.257555,1.0182 3.952171,2.5014 l -0.995629,0 1.39388,1.6765 1.363537,1.6195 1.363537,-1.6195 1.39388,-1.6765 -1.678345,0 c -0.817476,-2.9999 -3.533549,-5.2019 -6.793031,-5.2019 z m -5.712061,5.2019 -2.757417,3.296 1.564559,0 c 0.527753,2.61 2.473523,4.6903 5.006588,5.3954 l 0,1.2934 0,4.7088 c -0.226059,0.048 -0.442916,0.035 -0.656166,0 l -0.597378,-0.5993 c -0.876781,-0.8768 -2.288366,-0.8768 -3.165148,0 -0.876783,0.8768 -0.876783,2.2884 0,3.1652 l 3.878209,3.8801 c 0.248366,0.2816 0.420685,0.5925 0.540483,0.9254 l 0.771849,1.4091 0.312912,0.6372 c 0.491738,0.8516 0.62926,1.0958 1.020282,1.4868 l 0.03793,0 10.475908,0 c 0.312551,-0.064 0.630913,-0.1302 0.847707,-0.347 0.192236,-0.1923 0.309119,-0.7529 0.309119,-0.7529 l 0,-13.2978 c -0.07507,-0.2701 -0.116883,-0.5607 -0.309119,-0.7529 -0.290467,-0.2905 -0.692721,-0.4627 -1.137861,-0.4627 l -6.904921,0 -0.07775,0 -0.481695,0 c -0.331727,0 -0.599274,-0.2676 -0.599274,-0.5993 l 0,-0.8477 c 2.610702,-0.9265 4.527604,-3.3298 4.710745,-6.2071 l -1.363537,1.6196 -1.33509,-1.6196 c -0.138255,1.3614 -0.911058,2.5317 -2.012118,3.2316 l 0,-2.179 c -1e-6,-1.1795 -0.942642,-2.124 -2.122111,-2.124 -1.179469,0 -2.142971,0.9445 -2.142971,2.124 l 0,2.4312 c -1.048675,-0.5043 -1.870343,-1.407 -2.251068,-2.5185 l 1.2232,0 -2.785862,-3.296 z"
       id="path4095"
       inkscape:connector-curvature="0" />
    <path
       inkscape:connector-curvature="0"
       id="path4091"
       d="m 22.296051,1013.3622 c -3.56931,0 -6.507963,2.6456 -6.990257,6.0819 l 1.278196,-1.5058 1.448875,1.7049 c 0.382114,-2.0255 2.126843,-3.5805 4.263186,-3.5805 1.747455,0 3.257555,1.0182 3.952171,2.5014 l -0.995629,0 1.39388,1.6765 1.363537,1.6195 1.363537,-1.6195 1.39388,-1.6765 -1.678345,0 c -0.817476,-2.9999 -3.533549,-5.2019 -6.793031,-5.2019 z m -5.712061,5.2019 -2.757417,3.296 1.564559,0 c 0.527753,2.61 2.473523,4.6903 5.006588,5.3954 l 0,1.2934 0,4.7088 c -0.226059,0.048 -0.442916,0.035 -0.656166,0 l -0.597378,-0.5993 c -0.876781,-0.8768 -2.288366,-0.8768 -3.165148,0 -0.876783,0.8768 -0.876783,2.2884 0,3.1652 l 3.878209,3.8801 c 0.248366,0.2816 0.420685,0.5925 0.540483,0.9254 l 0.771849,1.4091 0.312912,0.6372 c 0.491738,0.8516 0.62926,1.0958 1.020282,1.4868 l 0.03793,0 10.475908,0 c 0.312551,-0.064 0.630913,-0.1302 0.847707,-0.347 0.192236,-0.1923 0.309119,-0.7529 0.309119,-0.7529 l 0,-13.2978 c -0.07507,-0.2701 -0.116883,-0.5607 -0.309119,-0.7529 -0.290467,-0.2905 -0.692721,-0.4627 -1.137861,-0.4627 l -6.904921,0 -0.07775,0 -0.481695,0 c -0.331727,0 -0.599274,-0.2676 -0.599274,-0.5993 l 0,-0.8477 c 2.610702,-0.9265 4.527604,-3.3298 4.710745,-6.2071 l -1.363537,1.6196 -1.33509,-1.6196 c -0.138255,1.3614 -0.911058,2.5317 -2.012118,3.2316 l 0,-2.179 c -1e-6,-1.1795 -0.942642,-2.124 -2.122111,-2.124 -1.179469,0 -2.142971,0.9445 -2.142971,2.124 l 0,2.4312 c -1.048675,-0.5043 -1.870343,-1.407 -2.251068,-2.5185 l 1.2232,0 -2.785862,-3.296 z"
       style="fill:#000000;fill-opacity:0.23529412;stroke:none" />
    <path
       inkscape:connector-curvature="0"
       style="fill:#000000;fill-opacity:1;stroke:none"
       d="m 1.604248e-6,1049.3622 0,1.0625 c 0,1.0773 0.860199995752,1.9375 1.937499995752,1.9375 l 44.1250004,0 c 1.0773,0 1.9375,-0.8602 1.9375,-1.9375 l 0,-1.0625 c 0,1.0773 -0.8602,1.9375 -1.9375,1.9375 l -44.1250004,0 C 0.8602016,1051.2997 1.604248e-6,1050.4395 1.604248e-6,1049.3622 Z"
       id="rect846" />
    <path
       inkscape:connector-curvature="0"
       style="fill:#ffffff;fill-opacity:0.5372549;stroke:none"
       d="m 2.5312016,1005.0185 c -0.917,0 -1.6711,0.6395 -1.8437,1.5 0.3356,-0.2799 0.7745,-0.4375 1.25,-0.4375 l 44.1250004,0 c 0.4755,0 0.9144,0.1576 1.25,0.4375 -0.1726,-0.8605 -0.9267,-1.5 -1.8437,-1.5 L 2.5312016,1005.0185 Z"
       id="path7515" />
    <path
       inkscape:connector-curvature="0"
       style="fill:#000000;fill-opacity:0.39215686;stroke:none"
       d="m 1.9375016,1004.3622 c -1.0773,0 -1.937499995752,0.8602 -1.937499995752,1.9375 l 0,43.0625 c 0,0.7934 0.479999995752,1.449 1.156199995752,1.75 -0.3093,-0.3333 -0.5,-0.7824 -0.5,-1.2812 l 0,-42.9375 c 0,-1.0482 0.8269,-1.875 1.875,-1.875 l 42.9376004,0 c 1.0481,0 1.875,0.8268 1.875,1.875 l 0,42.9375 c 0,0.4988 -0.1907,0.9479 -0.5,1.2812 0.6762,-0.301 1.1562,-0.9566 1.1562,-1.75 l 0,-43.0625 c 0,-1.0773 -0.8602,-1.9375 -1.9375,-1.9375 L 1.9375016,1004.3622 Z"
       id="rect4280-7" />
    <rect
       style="fill:none;stroke:none"
       id="rect1526"
       width="48"
       height="48"
       x="-1.604248e-06"
       y="1004.3622"
       ry="0" />
    <path
       style="fill:url(#linearGradient975);fill-opacity:1;stroke:none"
       d="m 22.296051,1012.9622 c -3.56931,0 -6.507963,2.6456 -6.990257,6.0819 l 1.278196,-1.5058 1.448875,1.7049 c 0.382114,-2.0255 2.126843,-3.5805 4.263186,-3.5805 1.747455,0 3.257555,1.0182 3.952171,2.5014 l -0.995629,0 1.39388,1.6765 1.363537,1.6195 1.363537,-1.6195 1.39388,-1.6765 -1.678345,0 c -0.817476,-2.9999 -3.533549,-5.2019 -6.793031,-5.2019 z m -5.712061,5.2019 -2.757417,3.296 1.564559,0 c 0.527753,2.61 2.473523,4.6903 5.006588,5.3954 l 0,1.2934 0,4.7088 c -0.226059,0.048 -0.442916,0.035 -0.656166,0 l -0.597378,-0.5993 c -0.876781,-0.8768 -2.288366,-0.8768 -3.165148,0 -0.876783,0.8768 -0.876783,2.2884 0,3.1652 l 3.878209,3.8801 c 0.248366,0.2816 0.420685,0.5925 0.540483,0.9254 l 0.771849,1.4091 0.312912,0.6372 c 0.491738,0.8516 0.62926,1.0958 1.020282,1.4868 l 0.03793,0 10.475908,0 c 0.312551,-0.064 0.630913,-0.1302 0.847707,-0.347 0.192236,-0.1923 0.309119,-0.7529 0.309119,-0.7529 l 0,-13.2978 c -0.07507,-0.2701 -0.116883,-0.5607 -0.309119,-0.7529 -0.290467,-0.2905 -0.692721,-0.4627 -1.137861,-0.4627 l -6.904921,0 -0.07775,0 -0.481695,0 c -0.331727,0 -0.599274,-0.2676 -0.599274,-0.5993 l 0,-0.8477 c 2.610702,-0.9265 4.527604,-3.3298 4.710745,-6.2071 l -1.363537,1.6196 -1.33509,-1.6196 c -0.138255,1.3614 -0.911058,2.5317 -2.012118,3.2316 l 0,-2.179 c -1e-6,-1.1795 -0.942642,-2.124 -2.122111,-2.124 -1.179469,0 -2.142971,0.9445 -2.142971,2.124 l 0,2.4312 c -1.048675,-0.5043 -1.870343,-1.407 -2.251068,-2.5185 l 1.2232,0 -2.785862,-3.296 z"
       id="path937"
       inkscape:connector-curvature="0" />
    <path
       style="fill:#cf3c3c;fill-opacity:0.3137255;stroke:none"
       d="M 22.296875 10.5 C 20.160532 10.5 18.415317 12.054578 18.033203 14.080078 L 16.583984 12.376953 L 15.552734 13.59375 C 15.463767 13.883765 15.395285 14.181764 15.34375 14.486328 L 16.583984 13.001953 L 18.068359 14.757812 C 18.498012 12.7946 20.205351 11.300781 22.296875 11.300781 C 23.705171 11.300781 24.950686 11.968887 25.748047 13.001953 L 26.248047 13.001953 C 25.553431 11.518753 24.04433 10.5 22.296875 10.5 z M 25.251953 13.802734 L 26.646484 15.478516 L 26.650391 15.484375 C 26.65745 15.433266 26.670533 15.383706 26.675781 15.332031 L 28.009766 16.953125 L 29.373047 15.332031 C 29.369234 15.39193 29.354915 15.448334 29.349609 15.507812 L 29.373047 15.478516 L 30.767578 13.802734 L 30.101562 13.802734 L 29.373047 14.677734 L 28.009766 16.298828 L 26.646484 14.677734 L 25.917969 13.802734 L 25.251953 13.802734 z M 29.373047 16.132812 L 29.240234 16.291016 C 28.740514 18.73433 26.976102 20.71786 24.662109 21.539062 L 24.662109 22.339844 C 27.272811 21.413344 29.189906 19.010112 29.373047 16.132812 z M 14.494141 16.298828 L 13.826172 17.097656 L 15.390625 17.097656 C 15.918378 19.707656 17.865372 21.789041 20.398438 22.494141 L 20.398438 21.693359 C 17.865372 20.988259 15.918378 18.908828 15.390625 16.298828 L 14.494141 16.298828 z M 18.146484 16.298828 C 18.242744 16.57985 18.368403 16.846393 18.517578 17.097656 L 19.369141 17.097656 L 18.693359 16.298828 L 18.146484 16.298828 z M 15.361328 29.078125 C 15.234019 29.775608 15.43705 30.519071 15.978516 31.060547 L 19.857422 34.941406 C 20.105788 35.223006 20.27864 35.534287 20.398438 35.867188 L 21.169922 37.275391 L 21.482422 37.914062 C 21.97416 38.765662 22.110931 39.009391 22.501953 39.400391 L 22.541016 39.400391 L 33.015625 39.400391 C 33.328176 39.336391 33.64844 39.269534 33.865234 39.052734 C 34.05747 38.860434 34.173828 38.300781 34.173828 38.300781 L 34.173828 37.5 C 34.173828 37.5 34.05747 38.061606 33.865234 38.253906 C 33.64844 38.470706 33.328176 38.535609 33.015625 38.599609 L 22.541016 38.599609 L 22.501953 38.599609 C 22.110931 38.208609 21.97416 37.964881 21.482422 37.113281 L 21.169922 36.476562 L 20.398438 35.066406 C 20.27864 34.733506 20.105788 34.422225 19.857422 34.140625 L 15.978516 30.261719 C 15.6427 29.925897 15.439903 29.510756 15.361328 29.078125 z "
       transform="translate(0,1004.3622)"
       id="path4099" />
    <path
       style="fill:#ffffff;fill-opacity:0.23529412;stroke:none"
       d="M 22.296875 8.5996094 C 18.727565 8.5996094 15.788935 11.245341 15.306641 14.681641 L 15.400391 14.570312 C 16.088989 11.387221 18.907358 9 22.296875 9 C 25.556357 9 28.272368 11.201272 29.089844 14.201172 L 30.435547 14.201172 L 30.767578 13.802734 L 29.089844 13.802734 C 28.272368 10.802834 25.556357 8.5996094 22.296875 8.5996094 z M 16.583984 13.802734 L 13.826172 17.097656 L 14.160156 17.097656 L 16.583984 14.201172 L 19.03125 17.097656 L 19.369141 17.097656 L 16.583984 13.802734 z M 25.251953 13.802734 L 25.583984 14.201172 L 26.248047 14.201172 C 26.183109 14.062511 26.104111 13.932815 26.025391 13.802734 L 25.251953 13.802734 z M 22.541016 15.060547 C 21.361547 15.060547 20.398438 16.006047 20.398438 17.185547 L 20.398438 17.585938 C 20.398438 16.406437 21.361547 15.460938 22.541016 15.460938 C 23.720485 15.460938 24.662108 16.406438 24.662109 17.585938 L 24.662109 17.185547 C 24.662108 16.006047 23.720485 15.060547 22.541016 15.060547 z M 26.675781 16.132812 C 26.537526 17.494213 25.763169 18.663381 24.662109 19.363281 L 24.662109 19.763672 C 25.763169 19.063772 26.537526 17.894603 26.675781 16.533203 L 28.009766 18.152344 L 29.306641 16.611328 C 29.32799 16.451382 29.362661 16.29599 29.373047 16.132812 L 28.009766 17.751953 L 26.675781 16.132812 z M 18.146484 17.498047 C 18.527209 18.609547 19.349763 19.511325 20.398438 20.015625 L 20.398438 19.617188 C 19.48255 19.176744 18.75908 18.419966 18.332031 17.498047 L 18.146484 17.498047 z M 24.662109 23.1875 L 24.662109 23.587891 C 24.662109 23.919591 24.929992 24.1875 25.261719 24.1875 L 25.744141 24.1875 L 25.822266 24.1875 L 32.726562 24.1875 C 33.171703 24.1875 33.574767 24.357937 33.865234 24.648438 C 34.05747 24.840637 34.098758 25.132244 34.173828 25.402344 L 34.173828 25.001953 C 34.098758 24.731853 34.05747 24.4422 33.865234 24.25 C 33.574767 23.9595 33.171703 23.787109 32.726562 23.787109 L 25.822266 23.787109 L 25.744141 23.787109 L 25.261719 23.787109 C 24.929992 23.787109 24.662109 23.5192 24.662109 23.1875 z M 17.5625 27.238281 C 16.990408 27.238281 16.416907 27.458084 15.978516 27.896484 C 15.488572 28.386437 15.284183 29.042379 15.341797 29.679688 C 15.386907 29.175818 15.59118 28.684218 15.978516 28.296875 C 16.855298 27.420075 18.26775 27.420075 19.144531 28.296875 L 19.742188 28.894531 C 19.955437 28.929531 20.172379 28.942531 20.398438 28.894531 L 20.398438 28.496094 C 20.172379 28.544094 19.955437 28.531094 19.742188 28.496094 L 19.144531 27.896484 C 18.706141 27.458084 18.134592 27.238281 17.5625 27.238281 z "
       transform="translate(0,1004.3622)"
       id="path4104" />
  </g>
</svg>
