<?xml version="1.0" encoding="UTF-8" standalone="no"?>
<!-- Created with Inkscape (http://www.inkscape.org/) -->

<svg
   xmlns:dc="http://purl.org/dc/elements/1.1/"
   xmlns:cc="http://creativecommons.org/ns#"
   xmlns:rdf="http://www.w3.org/1999/02/22-rdf-syntax-ns#"
   xmlns:svg="http://www.w3.org/2000/svg"
   xmlns="http://www.w3.org/2000/svg"
   xmlns:xlink="http://www.w3.org/1999/xlink"
   xmlns:sodipodi="http://sodipodi.sourceforge.net/DTD/sodipodi-0.dtd"
   xmlns:inkscape="http://www.inkscape.org/namespaces/inkscape"
   width="48"
   height="48"
   id="svg5453"
   version="1.1"
   inkscape:version="0.48+devel r12923"
   sodipodi:docname="ebay.svg">
  <defs
     id="defs5455">
    <style
       id="style874"
       type="text/css"><![CDATA[
    .fil0 {fill:#1F1A17}
   ]]></style>
    <style
       id="style874-2"
       type="text/css"><![CDATA[
    .fil0 {fill:#1F1A17}
   ]]></style>
    <linearGradient
       x1="45.447727"
       y1="92.539597"
       x2="45.447727"
       y2="7.0165396"
       id="ButtonShadow"
       gradientUnits="userSpaceOnUse"
       gradientTransform="scale(1.0058652,0.994169)">
      <stop
         id="stop3750"
         style="stop-color:#000000;stop-opacity:1"
         offset="0" />
      <stop
         id="stop3752"
         style="stop-color:#000000;stop-opacity:0.58823532"
         offset="1" />
    </linearGradient>
    <linearGradient
       id="linearGradient3737">
      <stop
         id="stop3739"
         style="stop-color:#ffffff;stop-opacity:1"
         offset="0" />
      <stop
         id="stop3741"
         style="stop-color:#ffffff;stop-opacity:0"
         offset="1" />
    </linearGradient>
    <filter
       id="filter3174"
       style="color-interpolation-filters:sRGB">
      <feGaussianBlur
         id="feGaussianBlur3176"
         stdDeviation="1.71" />
    </filter>
    <filter
       x="-0.192"
       y="-0.192"
       width="1.3839999"
       height="1.3839999"
       id="filter3794"
       style="color-interpolation-filters:sRGB">
      <feGaussianBlur
         id="feGaussianBlur3796"
         stdDeviation="5.28" />
    </filter>
    <linearGradient
       x1="48"
       y1="20.220806"
       x2="48"
       y2="138.66119"
       id="linearGradient3613"
       xlink:href="#linearGradient3737"
       gradientUnits="userSpaceOnUse" />
    <clipPath
       id="clipPath3613">
      <rect
         width="84"
         height="84"
         rx="6"
         ry="6"
         x="6"
         y="6"
         id="rect3615"
         style="fill:#ffffff;fill-opacity:1;fill-rule:nonzero;stroke:none" />
    </clipPath>
    <linearGradient
       inkscape:collect="always"
       id="linearGradient5356">
      <stop
         style="stop-color:#f2f2f2;stop-opacity:1"
         offset="0"
         id="stop5358" />
      <stop
         style="stop-color:#ffffff;stop-opacity:1"
         offset="1"
         id="stop5360" />
    </linearGradient>
    <linearGradient
       inkscape:collect="always"
       id="linearGradient5336">
      <stop
         style="stop-color:#292929;stop-opacity:1"
         offset="0"
         id="stop5338" />
      <stop
         style="stop-color:#878787;stop-opacity:1"
         offset="1"
         id="stop5340" />
    </linearGradient>
    <linearGradient
       inkscape:collect="always"
       id="linearGradient5322">
      <stop
         style="stop-color:#000000;stop-opacity:1;"
         offset="0"
         id="stop5324" />
      <stop
         style="stop-color:#000000;stop-opacity:0;"
         offset="1"
         id="stop5326" />
    </linearGradient>
    <linearGradient
       id="linearGradient5142"
       inkscape:collect="always">
      <stop
         id="stop5144"
         offset="0"
         style="stop-color:#292929;stop-opacity:1" />
      <stop
         id="stop5146"
         offset="1"
         style="stop-color:#696969;stop-opacity:1" />
    </linearGradient>
    <linearGradient
       inkscape:collect="always"
       id="linearGradient5109">
      <stop
         style="stop-color:#000000;stop-opacity:1;"
         offset="0"
         id="stop5111" />
      <stop
         style="stop-color:#000000;stop-opacity:0;"
         offset="1"
         id="stop5113" />
    </linearGradient>
    <linearGradient
       y2="-499.80093"
       x2="410.37695"
       y1="-547.80865"
       x1="410.37695"
       gradientTransform="translate(-2.5592774e-5,-1.4881859e-4)"
       gradientUnits="userSpaceOnUse"
       id="linearGradient4422"
       xlink:href="#linearGradient5356"
       inkscape:collect="always" />
    <linearGradient
       inkscape:collect="always"
       xlink:href="#linearGradient5336"
       id="linearGradient5140"
       x1="402.19681"
       y1="617.76288"
       x2="408.92279"
       y2="611.01929"
       gradientUnits="userSpaceOnUse"
       gradientTransform="matrix(2,0,0,1.585687,-409.38331,-470.88602)" />
    <linearGradient
       inkscape:collect="always"
       xlink:href="#linearGradient5109"
       id="linearGradient5176"
       x1="115.40337"
       y1="49.418438"
       x2="115.40337"
       y2="48.443264"
       gradientUnits="userSpaceOnUse"
       gradientTransform="matrix(2.0525112,0,0,2.0640046,172.3843,407.47748)" />
    <linearGradient
       inkscape:collect="always"
       xlink:href="#linearGradient5142"
       id="linearGradient5255"
       x1="408.9805"
       y1="617.83386"
       x2="408.9805"
       y2="621.19397"
       gradientUnits="userSpaceOnUse"
       gradientTransform="matrix(2.0525117,0,0,2.0640046,-430.50097,-766.48659)" />
    <linearGradient
       inkscape:collect="always"
       xlink:href="#linearGradient5109"
       id="linearGradient5275"
       gradientUnits="userSpaceOnUse"
       gradientTransform="matrix(2.0525112,0,0,2.0640046,193.68335,407.47748)"
       x1="115.40337"
       y1="49.418438"
       x2="115.40337"
       y2="48.443264" />
    <linearGradient
       inkscape:collect="always"
       xlink:href="#linearGradient5109"
       id="linearGradient5292"
       x1="303.67419"
       y1="578.02942"
       x2="304.45044"
       y2="578.02942"
       gradientUnits="userSpaceOnUse"
       gradientTransform="matrix(1,0,0,0.76825749,90.840926,60.822575)" />
    <linearGradient
       inkscape:collect="always"
       xlink:href="#linearGradient5109"
       id="linearGradient5296"
       gradientUnits="userSpaceOnUse"
       x1="303.67419"
       y1="578.02942"
       x2="304.45044"
       y2="578.02942"
       gradientTransform="matrix(1,0,0,0.76825749,112.13939,60.822575)" />
    <linearGradient
       inkscape:collect="always"
       xlink:href="#linearGradient5109"
       id="linearGradient5310"
       gradientUnits="userSpaceOnUse"
       x1="303.67419"
       y1="578.02942"
       x2="304.45044"
       y2="578.02942"
       gradientTransform="matrix(-1,0,0,0.76825749,726.30077,60.822575)" />
    <linearGradient
       inkscape:collect="always"
       xlink:href="#linearGradient5109"
       id="linearGradient5312"
       gradientUnits="userSpaceOnUse"
       gradientTransform="matrix(-1,0,0,0.76825749,705.00231,60.822575)"
       x1="303.67419"
       y1="578.02942"
       x2="304.45044"
       y2="578.02942" />
    <radialGradient
       inkscape:collect="always"
       xlink:href="#linearGradient5322"
       id="radialGradient5328"
       cx="23.999023"
       cy="15.454969"
       fx="23.999023"
       fy="15.454969"
       r="13.649414"
       gradientTransform="matrix(1.0091579,0,0,0.33991558,384.35164,504.97958)"
       gradientUnits="userSpaceOnUse" />
    <linearGradient
       inkscape:collect="always"
       xlink:href="#linearGradient5336"
       id="linearGradient5346"
       gradientUnits="userSpaceOnUse"
       gradientTransform="matrix(2,0,0,1.585687,-388.08486,-470.88602)"
       x1="402.19681"
       y1="617.76288"
       x2="408.92279"
       y2="611.01929" />
  </defs>
  <sodipodi:namedview
     id="base"
     pagecolor="#ffffff"
     bordercolor="#666666"
     borderopacity="1.0"
     inkscape:pageopacity="0"
     inkscape:pageshadow="2"
     inkscape:zoom="4.3176446"
     inkscape:cx="9.6128579"
     inkscape:cy="12.037046"
     inkscape:document-units="px"
     inkscape:current-layer="layer1"
     showgrid="false"
     fit-margin-top="0"
     fit-margin-left="0"
     fit-margin-right="0"
     fit-margin-bottom="0"
     inkscape:window-width="1366"
     inkscape:window-height="669"
     inkscape:window-x="0"
     inkscape:window-y="26"
     inkscape:window-maximized="1"
     borderlayer="true"
     inkscape:showpageshadow="false" />
  <metadata
     id="metadata5458">
    <rdf:RDF>
      <cc:Work
         rdf:about="">
        <dc:format>image/svg+xml</dc:format>
        <dc:type
           rdf:resource="http://purl.org/dc/dcmitype/StillImage" />
        <dc:title></dc:title>
      </cc:Work>
    </rdf:RDF>
  </metadata>
  <g
     inkscape:label="Capa 1"
     inkscape:groupmode="layer"
     id="layer1"
     transform="translate(-384.57143,-499.798)">
    <rect
       style="fill:url(#linearGradient4422);fill-opacity:1;stroke:none"
       id="rect2991-1-7-6"
       width="48"
       height="48"
       x="384.57144"
       y="-547.79797"
       ry="1.9445436"
       transform="scale(1,-1)" />
    <path
       inkscape:connector-curvature="0"
       style="fill:url(#linearGradient5346);fill-opacity:1;fill-rule:evenodd;stroke:none"
       d="m 416.21986,499.798 0,9 6,0 0,-9 -6,0 z"
       id="rect5344" />
    <path
       inkscape:connector-curvature="0"
       id="path5354"
       d="m 394.92163,509.9182 2.87815,3.34193 1.43908,1.66893 0.72154,0.83448 c 0.66473,0.66849 0.67244,0.83446 1.69562,0.83446 l 0.18042,0 0.79368,0 0.18042,0 1.76778,0 0.18432,0 3.71593,0 0.18452,0 3.71593,0 0.18041,0 1.76779,0 0.18431,0 0.79371,0 0.18042,0 c 1.02319,0 1.03089,-0.16595 1.69562,-0.83446 l 0.71753,-0.83448 1.43908,-1.66893 2.88218,-3.34193 -27.2984,0 z"
       style="fill:#000000;fill-opacity:0.05882353;fill-rule:evenodd;stroke:none" />
    <path
       style="fill:#000000;fill-opacity:0.11764706;fill-rule:evenodd;stroke:none"
       d="m 394.92163,509.5182 2.87815,3.34193 1.43908,1.66893 0.72154,0.83448 c 0.66473,0.66849 0.67244,0.83446 1.69562,0.83446 l 0.18042,0 0.79368,0 0.18042,0 1.76778,0 0.18432,0 3.71593,0 0.18452,0 3.71593,0 0.18041,0 1.76779,0 0.18431,0 0.79371,0 0.18042,0 c 1.02319,0 1.03089,-0.16595 1.69562,-0.83446 l 0.71753,-0.83448 1.43908,-1.66893 2.88218,-3.34193 -27.2984,0 z"
       id="path5352"
       inkscape:connector-curvature="0" />
    <path
       inkscape:connector-curvature="0"
       id="path5348"
       d="m 394.92163,509.1182 2.87815,3.34193 1.43908,1.66893 0.72154,0.83448 c 0.66473,0.66849 0.67244,0.83446 1.69562,0.83446 l 0.18042,0 0.79368,0 0.18042,0 1.76778,0 0.18432,0 3.71593,0 0.18452,0 3.71593,0 0.18041,0 1.76779,0 0.18431,0 0.79371,0 0.18042,0 c 1.02319,0 1.03089,-0.16595 1.69562,-0.83446 l 0.71753,-0.83448 1.43908,-1.66893 2.88218,-3.34193 -27.2984,0 z"
       style="fill:#000000;fill-opacity:0.23529412;fill-rule:evenodd;stroke:none" />
    <path
       inkscape:connector-curvature="0"
       style="fill:url(#linearGradient5140);fill-opacity:1;fill-rule:evenodd;stroke:none"
       d="m 394.92103,499.798 0,9 6,0 0,-9 -6,0 z"
       id="rect5127" />
    <path
       style="fill:url(#linearGradient5255);fill-opacity:1;fill-rule:evenodd;stroke:none"
       d="m 394.92163,508.7182 2.87815,3.34193 1.43908,1.66893 0.72154,0.83448 c 0.66473,0.66849 0.67244,0.83446 1.69562,0.83446 l 0.18042,0 0.79368,0 0.18042,0 1.76778,0 0.18432,0 3.71593,0 0.18452,0 3.71593,0 0.18041,0 1.76779,0 0.18431,0 0.79371,0 0.18042,0 c 1.02319,0 1.03089,-0.16595 1.69562,-0.83446 l 0.71753,-0.83448 1.43908,-1.66893 2.88218,-3.34193 -27.2984,0 z"
       id="rect5131"
       inkscape:connector-curvature="0" />
    <path
       style="fill:url(#linearGradient5176);fill-opacity:1;fill-rule:evenodd;stroke:none"
       d="m 394.92103,507.46166 0,1.23633 6,0 0,-1.23633 -6,0 z"
       id="rect5160"
       inkscape:connector-curvature="0" />
    <path
       id="path5273"
       d="m 416.22008,507.46166 0,1.23633 6,0 0,-1.23633 -6,0 z"
       style="fill:url(#linearGradient5275);fill-opacity:1;fill-rule:evenodd;stroke:none"
       inkscape:connector-curvature="0" />
    <path
       inkscape:connector-curvature="0"
       style="fill:url(#linearGradient5292);fill-opacity:1;fill-rule:evenodd;stroke:none"
       d="m 394.92103,499.798 0,9 2,0 0,-9 -2,0 z"
       id="rect5282" />
    <path
       inkscape:connector-curvature="0"
       style="fill:url(#linearGradient5296);fill-opacity:1;fill-rule:evenodd;stroke:none"
       d="m 416.21986,499.798 0,9 2,0 0,-9 -2,0 z"
       id="rect5294" />
    <path
       inkscape:connector-curvature="0"
       style="fill:url(#linearGradient5310);fill-opacity:1;fill-rule:evenodd;stroke:none"
       d="m 420.21986,499.798 0,9 2,0 0,-9 -2,0 z"
       id="rect5306" />
    <path
       inkscape:connector-curvature="0"
       style="fill:url(#linearGradient5312);fill-opacity:1;fill-rule:evenodd;stroke:none"
       d="m 398.92103,499.798 0,9 2,0 0,-9 -2,0 z"
       id="rect5308" />
    <path
       style="fill:url(#radialGradient5328);fill-opacity:1;fill-rule:evenodd;stroke:none"
       d="m 394.92103,508.71831 0.3457,0.40039 2.53711,2.94141 1.4375,1.66992 0.71875,0.83399 c 0.55554,0.55869 0.68481,0.75549 1.29883,0.80859 -0.10961,-0.10915 -0.23346,-0.24229 -0.39844,-0.4082 l -0.71875,-0.83594 -1.43945,-1.66797 -2.88086,-3.3418 25.49805,0 -2.88086,3.3418 -1.43946,1.66797 -0.71875,0.83594 c -0.16497,0.16591 -0.28883,0.29905 -0.39843,0.4082 0.61401,-0.0531 0.74329,-0.2499 1.29882,-0.80859 l 0.71875,-0.83399 1.4375,-1.66992 2.53711,-2.94141 0.34571,-0.40039 -27.29883,0 z"
       id="path5314"
       inkscape:connector-curvature="0" />
    <g
       id="g5277"
       transform="translate(90.840926,-68.989738)">
      <path
         id="path7515-8"
         d="m 296.26174,569.44404 c -0.91709,0 -1.67116,0.6395 -1.84375,1.5 0.3356,-0.2799 0.77451,-0.4375 1.25,-0.4375 l 44.125,0 c 0.47548,0 0.91439,0.1576 1.25,0.4375 -0.1726,-0.8605 -0.92667,-1.5 -1.84375,-1.5 l -42.9375,0 z"
         style="fill:#ffffff;fill-opacity:0.5372549;stroke:none"
         inkscape:connector-curvature="0" />
      <path
         sodipodi:nodetypes="csssscssc"
         id="rect846-2"
         d="m 293.73049,613.78774 0,1.0625 c 0,1.0773 0.86022,1.9375 1.9375,1.9375 l 44.125,0 c 1.07727,0 1.9375,-0.8602 1.9375,-1.9375 l 0,-1.0625 c 0,1.0773 -0.86023,1.9375 -1.9375,1.9375 l -44.125,0 c -1.07729,0 -1.9375,-0.8602 -1.9375,-1.9375 z"
         style="fill:#000000;fill-opacity:1;stroke:none"
         inkscape:connector-curvature="0" />
      <path
         id="rect4280-7"
         d="m 295.66799,568.78774 c -1.07728,0 -1.9375,0.8602 -1.9375,1.9375 l 0,43.0625 c 0,0.7934 0.48002,1.449 1.15625,1.75 -0.30935,-0.3333 -0.5,-0.7824 -0.5,-1.2812 l 0,-42.9375 c 0,-1.0482 0.8269,-1.875 1.875,-1.875 l 42.9375,0 c 1.04809,0 1.875,0.8268 1.875,1.875 l 0,42.9375 c 0,0.4988 -0.19066,0.9479 -0.5,1.2812 0.67622,-0.301 1.15625,-0.9566 1.15625,-1.75 l 0,-43.0625 c 0,-1.0773 -0.86023,-1.9375 -1.9375,-1.9375 l -44.125,0 z"
         style="fill:#000000;fill-opacity:0.39215686;stroke:none"
         inkscape:connector-curvature="0" />
    </g>
    <path
       inkscape:connector-curvature="0"
       style="fill:#000000;fill-opacity:0.05882353;stroke:none"
       d="m 401.11049,524.98652 0,5.79296 c 0,-1.24687 -0.791,-3.16992 -3.66015,-3.16992 -2.11598,0 -3.87891,0.89908 -3.87891,3.60742 0,2.1456 1.18537,3.4961 3.93359,3.4961 3.23477,0 3.44336,-2.13086 3.44336,-2.13086 l -1.56836,0 c 0,0 -0.33642,1.14648 -1.9707,1.14648 -1.33108,0 -2.28711,-0.89786 -2.28711,-2.1582 l 5.98828,0 0,1.78125 c 0,0.47484 -0.0332,1.14258 -0.0332,1.14258 l 1.49414,0 c 0,0 0.0527,-0.4784 0.0527,-0.91602 0,0 0.73971,1.1543 2.74805,1.1543 1.78835,0 3.07965,-1.05618 3.43945,-2.65234 -0.0307,0.14178 -0.0527,0.28791 -0.0527,0.44726 0,1.44081 1.20605,2.22461 2.83398,2.22461 2.21863,0 2.93165,-1.22656 2.93165,-1.22656 0,0.4876 0.0391,0.96875 0.0391,0.96875 l 1.4082,0 c 0,0 -0.0547,-0.59551 -0.0547,-0.97656 l 0,-3.29297 c 0,-0.50399 -0.10259,-0.90804 -0.26757,-1.24219 l 2.91992,5.48242 -1.3418,2.54297 1.69531,0 4.64844,-9.125 -1.61523,0 -2.55274,5.125 -2.55664,-5.125 -1.7832,0 0.51172,0.95898 c -0.58002,-0.98103 -1.81132,-1.23242 -2.9375,-1.23242 -3.18333,0 -3.38672,1.74296 -3.38672,2.02149 l 1.58398,0 c 0,0 0.0827,-1.01758 1.69336,-1.01758 1.04664,0 1.85938,0.47938 1.85938,1.40039 l 0,0.32812 -1.85938,0 c -2.10233,0 -3.35046,0.53015 -3.67578,1.5918 0.0453,-0.24637 0.0703,-0.50262 0.0703,-0.77148 0,-1.95697 -1.31838,-3.53125 -3.54687,-3.53125 -2.08682,0 -2.73633,1.12695 -2.73633,1.12695 l 0,-3.77148 -1.5293,0 z m -3.71484,3.63476 c 1.26705,0 2.13086,0.77605 2.13086,1.93945 l -4.3711,0 c 0,-1.23508 1.12759,-1.93945 2.24024,-1.93945 z m 7.59375,0.043 c 1.43616,0 2.34961,1.0677 2.34961,2.49805 0,1.53379 -1.05545,2.53711 -2.33985,2.53711 -1.53281,0 -2.35937,-1.1967 -2.35937,-2.52344 0,-1.23626 0.74215,-2.51172 2.34961,-2.51172 z m 9.39844,2.66016 0,0.4375 c 0,0.57009 -0.35281,1.98828 -2.42383,1.98828 -1.13409,0 -1.6211,-0.56615 -1.6211,-1.22266 0,-1.19432 1.63926,-1.20312 4.04493,-1.20312 z"
       id="path4314" />
    <path
       id="path4312"
       d="m 401.11049,524.58652 0,5.79296 c 0,-1.24687 -0.791,-3.16992 -3.66015,-3.16992 -2.11598,0 -3.87891,0.89908 -3.87891,3.60742 0,2.1456 1.18537,3.4961 3.93359,3.4961 3.23477,0 3.44336,-2.13086 3.44336,-2.13086 l -1.56836,0 c 0,0 -0.33642,1.14648 -1.9707,1.14648 -1.33108,0 -2.28711,-0.89786 -2.28711,-2.1582 l 5.98828,0 0,1.78125 c 0,0.47484 -0.0332,1.14258 -0.0332,1.14258 l 1.49414,0 c 0,0 0.0527,-0.4784 0.0527,-0.91602 0,0 0.73971,1.1543 2.74805,1.1543 1.78835,0 3.07965,-1.05618 3.43945,-2.65234 -0.0307,0.14178 -0.0527,0.28791 -0.0527,0.44726 0,1.44081 1.20605,2.22461 2.83398,2.22461 2.21863,0 2.93165,-1.22656 2.93165,-1.22656 0,0.4876 0.0391,0.96875 0.0391,0.96875 l 1.4082,0 c 0,0 -0.0547,-0.59551 -0.0547,-0.97656 l 0,-3.29297 c 0,-0.50399 -0.10259,-0.90804 -0.26757,-1.24219 l 2.91992,5.48242 -1.3418,2.54297 1.69531,0 4.64844,-9.125 -1.61523,0 -2.55274,5.125 -2.55664,-5.125 -1.7832,0 0.51172,0.95898 c -0.58002,-0.98103 -1.81132,-1.23242 -2.9375,-1.23242 -3.18333,0 -3.38672,1.74296 -3.38672,2.02149 l 1.58398,0 c 0,0 0.0827,-1.01758 1.69336,-1.01758 1.04664,0 1.85938,0.47938 1.85938,1.40039 l 0,0.32812 -1.85938,0 c -2.10233,0 -3.35046,0.53015 -3.67578,1.5918 0.0453,-0.24637 0.0703,-0.50262 0.0703,-0.77148 0,-1.95697 -1.31838,-3.53125 -3.54687,-3.53125 -2.08682,0 -2.73633,1.12695 -2.73633,1.12695 l 0,-3.77148 -1.5293,0 z m -3.71484,3.63476 c 1.26705,0 2.13086,0.77605 2.13086,1.93945 l -4.3711,0 c 0,-1.23508 1.12759,-1.93945 2.24024,-1.93945 z m 7.59375,0.043 c 1.43616,0 2.34961,1.0677 2.34961,2.49805 0,1.53379 -1.05545,2.53711 -2.33985,2.53711 -1.53281,0 -2.35937,-1.1967 -2.35937,-2.52344 0,-1.23626 0.74215,-2.51172 2.34961,-2.51172 z m 9.39844,2.66016 0,0.4375 c 0,0.57009 -0.35281,1.98828 -2.42383,1.98828 -1.13409,0 -1.6211,-0.56615 -1.6211,-1.22266 0,-1.19432 1.63926,-1.20312 4.04493,-1.20312 z"
       style="fill:#000000;fill-opacity:0.11764706;stroke:none"
       inkscape:connector-curvature="0" />
    <path
       style="fill:#000000;fill-opacity:0.23529412;stroke:none"
       d="M 16.539062 24.388672 L 16.539062 30.181641 C 16.539062 28.934771 15.748056 27.011719 12.878906 27.011719 C 10.762926 27.011719 9 27.910801 9 30.619141 C 9 32.764741 10.185374 34.115234 12.933594 34.115234 C 16.168364 34.115234 16.376953 31.984375 16.376953 31.984375 L 14.808594 31.984375 C 14.808594 31.984375 14.472171 33.130859 12.837891 33.130859 C 11.506811 33.130859 10.550781 32.232996 10.550781 30.972656 L 16.539062 30.972656 L 16.539062 32.753906 C 16.539062 33.228746 16.505859 33.896484 16.505859 33.896484 L 18 33.896484 C 18 33.896484 18.052734 33.418089 18.052734 32.980469 C 18.052734 32.980469 18.792441 34.134766 20.800781 34.134766 C 22.589134 34.134766 23.880429 33.078589 24.240234 31.482422 C 24.209527 31.624202 24.1875 31.770341 24.1875 31.929688 C 24.1875 33.370498 25.393554 34.154297 27.021484 34.154297 C 29.240114 34.154297 29.953125 32.927734 29.953125 32.927734 C 29.953125 33.415334 29.992188 33.896484 29.992188 33.896484 L 31.400391 33.896484 C 31.400391 33.896484 31.345703 33.300972 31.345703 32.919922 L 31.345703 29.626953 C 31.345703 29.12297 31.24311 28.718917 31.078125 28.384766 L 33.998047 33.867188 L 32.65625 36.410156 L 34.351562 36.410156 L 39 27.285156 L 37.384766 27.285156 L 34.832031 32.410156 L 32.275391 27.285156 L 30.492188 27.285156 L 31.003906 28.244141 C 30.423892 27.263109 29.192589 27.011719 28.066406 27.011719 C 24.883076 27.011719 24.679688 28.754673 24.679688 29.033203 L 26.263672 29.033203 C 26.263672 29.033203 26.346391 28.015625 27.957031 28.015625 C 29.003671 28.015625 29.816406 28.495006 29.816406 29.416016 L 29.816406 29.744141 L 27.957031 29.744141 C 25.854698 29.744141 24.606568 30.274285 24.28125 31.335938 C 24.326602 31.089566 24.351562 30.833321 24.351562 30.564453 C 24.351562 28.607483 23.033178 27.033203 20.804688 27.033203 C 18.717868 27.033203 18.068359 28.160156 18.068359 28.160156 L 18.068359 24.388672 L 16.539062 24.388672 z M 12.824219 28.023438 C 14.091269 28.023438 14.955078 28.799491 14.955078 29.962891 L 10.583984 29.962891 C 10.583984 28.727811 11.711569 28.023438 12.824219 28.023438 z M 20.417969 28.066406 C 21.854129 28.066406 22.767578 29.134103 22.767578 30.564453 C 22.767578 32.098243 21.712134 33.101562 20.427734 33.101562 C 18.894924 33.101562 18.068359 31.904865 18.068359 30.578125 C 18.068359 29.341865 18.810509 28.066406 20.417969 28.066406 z M 29.816406 30.726562 L 29.816406 31.164062 C 29.816406 31.734153 29.463598 33.152344 27.392578 33.152344 C 26.258488 33.152344 25.771484 32.586197 25.771484 31.929688 C 25.771484 30.735368 27.410736 30.726562 29.816406 30.726562 z "
       transform="translate(384.57143,499.798)"
       id="path4299" />
    <text
       xml:space="preserve"
       style="font-size:40px;font-style:normal;font-variant:normal;font-weight:bold;font-stretch:normal;line-height:125%;letter-spacing:0px;word-spacing:0px;fill:#000000;fill-opacity:1;stroke:none;font-family:Impact;-inkscape-font-specification:Impact Bold"
       x="586.49304"
       y="486.39273"
       id="text818"
       sodipodi:linespacing="125%"><tspan
         sodipodi:role="line"
         id="tspan820"
         x="586.49304"
         y="486.39273" /></text>
    <g
       id="layer2"
       style="display:none"
       transform="translate(314.6202,459.35374)">
      <rect
         width="86"
         height="85"
         rx="6"
         ry="6"
         x="5"
         y="7"
         id="rect3745"
         style="opacity:0.9;fill:url(#ButtonShadow);fill-opacity:1;fill-rule:nonzero;stroke:none;filter:url(#filter3174)" />
    </g>
    <g
       id="layer5"
       style="display:none"
       transform="translate(314.6202,459.35374)">
      <rect
         width="66"
         height="66"
         rx="12"
         ry="12"
         x="15"
         y="15"
         clip-path="url(#clipPath3613)"
         id="rect3171"
         style="opacity:0.1;fill:url(#linearGradient3613);fill-opacity:1;fill-rule:nonzero;stroke:#ffffff;stroke-width:0.5;stroke-linecap:round;stroke-linejoin:miter;stroke-miterlimit:4;stroke-opacity:1;stroke-dasharray:none;stroke-dashoffset:0;filter:url(#filter3794)" />
    </g>
    <g
       id="g4291"
       transform="matrix(0.80053368,0,0,0.80053368,81.359885,108.97793)">
      <path
         style="fill:#e53238;fill-opacity:1;stroke:none"
         d="m 394.85007,521.44268 c -2.64322,0 -4.84581,1.12139 -4.84581,4.50456 0,2.68021 1.48108,4.36805 4.91406,4.36805 4.04076,0 4.2998,-2.66178 4.2998,-2.66178 l -1.95795,0 c 0,0 -0.4198,1.43326 -2.46129,1.43326 -1.66274,0 -2.85865,-1.12323 -2.85865,-2.6976 l 7.48264,0 0,-0.98794 c 0,-1.55755 -0.98876,-3.95855 -4.5728,-3.95855 z m -0.0683,1.26264 c 1.58276,0 2.66178,0.96963 2.66178,2.42291 l -5.46006,0 c 0,-1.54283 1.4084,-2.42291 2.79828,-2.42291 z"
         id="e"
         inkscape:connector-curvature="0" />
      <path
         style="fill:#0064d2;fill-opacity:1;stroke:none"
         d="m 399.42148,518.16665 0,10.44962 c 0,0.59316 -0.0423,1.42601 -0.0423,1.42601 l 1.86747,0 c 0,0 0.067,-0.59817 0.067,-1.14483 0,0 0.92265,1.44343 3.4314,1.44343 2.64181,0 4.4363,-1.83413 4.4363,-4.46189 0,-2.44458 -1.64829,-4.41071 -4.43204,-4.41071 -2.60678,0 -3.41681,1.40767 -3.41681,1.40767 l 0,-4.7093 z m 4.8458,4.59413 c 1.79401,0 2.93479,1.33146 2.93479,3.11821 0,1.91596 -1.31756,3.16939 -2.92198,3.16939 -1.91474,0 -2.94759,-1.49501 -2.94759,-3.15233 0,-1.5443 0.9268,-3.13527 2.93478,-3.13527 z"
         id="b"
         inkscape:connector-curvature="0" />
      <path
         style="fill:#f5af02;fill-opacity:1;stroke:none"
         d="m 413.8224,521.44268 c -3.97652,0 -4.23155,2.17735 -4.23155,2.52528 l 1.97927,0 c 0,0 0.10379,-1.27117 2.11577,-1.27117 1.30743,0 2.32054,0.59843 2.32054,1.74893 l 0,0.4095 -2.32054,0 c -3.08066,0 -4.7093,0.90122 -4.7093,2.73004 0,1.79981 1.50482,2.77908 3.53838,2.77908 2.77143,0 3.66421,-1.53137 3.66421,-1.53137 0,0.60909 0.0469,1.20931 0.0469,1.20931 l 1.75956,0 c 0,0 -0.0683,-0.74399 -0.0683,-1.21998 l 0,-4.11424 c 0,-2.69766 -2.17593,-3.26538 -4.09504,-3.26538 z m 2.18402,4.64106 0,0.54601 c 0,0.71214 -0.43944,2.48262 -3.02649,2.48262 -1.41667,0 -2.02407,-0.70702 -2.02407,-1.52711 0,-1.49191 2.04548,-1.50152 5.05056,-1.50152 z"
         id="a"
         inkscape:connector-curvature="0" />
      <path
         style="fill:#86b817;fill-opacity:1;stroke:none"
         d="m 416.85164,521.78428 2.22668,0 3.1956,6.40217 3.18828,-6.40217 2.01706,0 -5.80741,11.39788 -2.11578,0 1.6758,-3.17731 z"
         id="y"
         inkscape:connector-curvature="0" />
    </g>
    <path
       style="fill:#5b5b5b;fill-opacity:0.23529412;stroke:none"
       d="M 27.957031 26.818359 C 26.346371 26.818359 26.263672 27.835938 26.263672 27.835938 L 24.939453 27.835938 C 24.716042 28.197576 24.679687 28.526697 24.679688 28.634766 L 26.263672 28.634766 C 26.263672 28.634766 26.346391 27.617188 27.957031 27.617188 C 28.80515 27.617188 29.491652 27.935947 29.724609 28.544922 L 29.816406 28.544922 L 29.816406 28.216797 C 29.816406 27.295787 29.003671 26.818359 27.957031 26.818359 z M 12.824219 26.824219 C 11.711569 26.824219 10.583984 27.528592 10.583984 28.763672 L 10.767578 28.763672 C 11.130337 28.029434 11.980552 27.623047 12.824219 27.623047 C 13.771583 27.623047 14.492885 28.058452 14.796875 28.763672 L 14.955078 28.763672 C 14.955078 27.600272 14.091269 26.824219 12.824219 26.824219 z M 20.417969 26.869141 C 18.810509 26.869141 18.068359 28.142646 18.068359 29.378906 C 18.068359 29.510921 18.083361 29.639189 18.099609 29.767578 C 18.247147 28.675211 18.988553 27.667969 20.417969 27.667969 C 21.71049 27.667969 22.571496 28.534658 22.732422 29.75 C 22.748083 29.62403 22.767578 29.499674 22.767578 29.365234 C 22.767578 27.934884 21.854129 26.869141 20.417969 26.869141 z M 30.884766 26.886719 C 30.923026 26.939046 30.966017 26.985758 31 27.042969 L 30.916016 26.886719 L 30.884766 26.886719 z M 38.59375 26.886719 L 34.351562 35.210938 L 33.078125 35.210938 L 32.65625 36.009766 L 34.351562 36.009766 L 39 26.886719 L 38.59375 26.886719 z M 31.080078 27.191406 C 31.243458 27.524606 31.345703 27.926404 31.345703 28.427734 L 31.345703 28.488281 L 33.787109 33.068359 L 33.998047 32.667969 L 31.080078 27.191406 z M 29.816406 29.529297 C 27.410736 29.529297 25.771484 29.536149 25.771484 30.730469 C 25.771484 30.871944 25.798869 31.006444 25.845703 31.134766 C 26.188832 30.3415 27.686121 30.328311 29.757812 30.328125 C 29.782839 30.199024 29.816406 30.060333 29.816406 29.966797 L 29.816406 29.529297 z M 24.316406 29.757812 C 24.305258 29.879442 24.306069 30.006689 24.285156 30.123047 C 24.298245 30.081543 24.321961 30.045725 24.337891 30.005859 C 24.334722 29.921696 24.324487 29.840304 24.316406 29.757812 z M 10.550781 29.773438 C 10.550781 30.061893 10.606027 30.328045 10.699219 30.572266 L 16.539062 30.572266 L 16.539062 29.78125 L 16.539062 29.773438 L 10.550781 29.773438 z M 9.03125 29.849609 C 9.0227741 29.974961 9 30.084625 9 30.21875 C 9 32.36435 10.185374 33.714844 12.933594 33.714844 C 16.168364 33.714844 16.376953 31.583984 16.376953 31.583984 L 16.054688 31.583984 C 15.669664 32.189334 14.826389 32.916016 12.933594 32.916016 C 10.378152 32.916016 9.1876111 31.738439 9.03125 29.849609 z M 24.240234 30.285156 C 23.880294 31.881076 22.588971 32.9375 20.800781 32.9375 C 18.792441 32.9375 18.052734 31.78125 18.052734 31.78125 C 18.052734 32.21887 18 32.697266 18 32.697266 L 16.529297 32.697266 C 16.519537 33.056086 16.505859 33.496094 16.505859 33.496094 L 18 33.496094 C 18 33.496094 18.052734 33.017698 18.052734 32.580078 C 18.052734 32.580078 18.792441 33.736328 20.800781 33.736328 C 22.57515 33.736328 23.857093 32.694422 24.228516 31.119141 C 24.207133 30.993459 24.1875 30.868284 24.1875 30.730469 C 24.1875 30.571809 24.209834 30.426396 24.240234 30.285156 z M 24.232422 31.148438 C 24.208658 31.270426 24.1875 31.393608 24.1875 31.529297 C 24.1875 32.970107 25.393554 33.753906 27.021484 33.753906 C 29.240114 33.753906 29.953125 32.529297 29.953125 32.529297 C 29.953125 33.016897 29.992188 33.496094 29.992188 33.496094 L 31.400391 33.496094 C 31.400391 33.496094 31.368788 33.050878 31.355469 32.697266 L 29.992188 32.697266 C 29.992188 32.697266 29.953125 32.218069 29.953125 31.730469 C 29.953125 31.730469 29.240114 32.955078 27.021484 32.955078 C 25.561039 32.955078 24.447606 32.318529 24.232422 31.148438 z "
       transform="translate(384.57143,499.798)"
       id="path4318" />
    <path
       style="fill:#ffffff;fill-opacity:0.23529412;stroke:none"
       d="M 16.539062 23.990234 L 16.539062 24.390625 L 18.068359 24.390625 L 18.068359 23.990234 L 16.539062 23.990234 z M 12.878906 26.613281 C 10.762926 26.613281 9 27.51041 9 30.21875 C 9 30.294003 9.0126924 30.360321 9.015625 30.433594 C 9.1001828 27.879724 10.815487 27.013672 12.878906 27.013672 C 15.748056 27.013672 16.539062 28.934771 16.539062 30.181641 L 16.539062 29.78125 C 16.539062 28.53438 15.748056 26.613281 12.878906 26.613281 z M 28.066406 26.613281 C 24.883076 26.613281 24.679687 28.356236 24.679688 28.634766 L 24.755859 28.634766 C 24.941949 28.031946 25.618108 27.013672 28.066406 27.013672 C 29.191196 27.013672 30.41908 27.264188 31 28.242188 L 30.492188 27.287109 L 30.511719 27.287109 C 29.865443 26.766522 28.93649 26.613281 28.066406 26.613281 z M 20.804688 26.632812 C 18.717868 26.632812 18.068359 27.759766 18.068359 27.759766 L 18.068359 28.160156 C 18.068359 28.160156 18.717868 27.033203 20.804688 27.033203 C 22.953796 27.033203 24.243905 28.501819 24.333984 30.361328 C 24.337056 30.294208 24.351562 30.23252 24.351562 30.164062 C 24.351562 28.207093 23.033177 26.632812 20.804688 26.632812 z M 30.492188 26.886719 L 30.705078 27.287109 L 32.275391 27.287109 L 34.832031 32.412109 L 37.384766 27.287109 L 38.796875 27.287109 L 39 26.886719 L 37.384766 26.886719 L 34.832031 32.011719 L 32.275391 26.886719 L 30.492188 26.886719 z M 31.080078 28.390625 C 31.243458 28.723825 31.345703 29.125623 31.345703 29.626953 L 31.345703 29.226562 C 31.345703 29.071417 31.319147 28.941687 31.300781 28.804688 L 31.080078 28.390625 z M 27.957031 29.34375 C 25.931441 29.34375 24.706483 29.8407 24.328125 30.826172 C 24.317927 30.993787 24.313565 31.164204 24.285156 31.322266 C 24.617066 30.269796 25.863761 29.744141 27.957031 29.744141 L 29.816406 29.744141 L 29.816406 29.416016 C 29.816406 29.390373 29.809841 29.368704 29.808594 29.34375 L 27.957031 29.34375 z M 10.630859 29.5625 C 10.603051 29.689652 10.583984 29.821585 10.583984 29.962891 L 14.955078 29.962891 C 14.955078 29.823592 14.941946 29.690025 14.917969 29.5625 L 10.630859 29.5625 z M 22.75 30.357422 C 22.662651 31.778104 21.655561 32.701172 20.427734 32.701172 C 18.971261 32.701172 18.16193 31.618891 18.083984 30.373047 C 18.079411 30.441518 18.068359 30.50966 18.068359 30.578125 C 18.068359 31.904865 18.894924 33.101562 20.427734 33.101562 C 21.712134 33.101562 22.767578 32.098243 22.767578 30.564453 C 22.767578 30.492924 22.75452 30.427039 22.75 30.357422 z M 29.816406 30.765625 C 29.816406 31.335715 29.463598 32.751953 27.392578 32.751953 C 26.408678 32.751953 25.913172 32.324766 25.798828 31.783203 C 25.791857 31.833623 25.771484 31.874273 25.771484 31.929688 C 25.771484 32.586198 26.258488 33.152344 27.392578 33.152344 C 29.463598 33.152344 29.816406 31.736106 29.816406 31.166016 L 29.816406 30.765625 z M 10.550781 30.972656 C 10.550781 32.232996 11.506811 33.132812 12.837891 33.132812 C 14.472171 33.132812 14.808594 31.984375 14.808594 31.984375 L 16.261719 31.984375 C 16.351957 31.750567 16.376953 31.583984 16.376953 31.583984 L 14.808594 31.583984 C 14.808594 31.583984 14.472171 32.732422 12.837891 32.732422 C 11.653177 32.732422 10.76877 32.018036 10.587891 30.972656 L 10.550781 30.972656 z M 24.240234 31.484375 C 24.229334 31.532706 24.209862 31.57572 24.197266 31.623047 C 24.198848 31.66362 24.207408 31.700756 24.210938 31.740234 C 24.220363 31.65465 24.222776 31.565489 24.240234 31.484375 z M 16.539062 32.355469 C 16.539062 32.830309 16.505859 33.496094 16.505859 33.496094 L 16.517578 33.496094 C 16.527395 33.261261 16.539062 33.064017 16.539062 32.755859 L 16.539062 32.355469 z M 31.345703 32.519531 L 31.345703 32.919922 C 31.345703 33.144756 31.363292 33.288314 31.378906 33.496094 L 31.400391 33.496094 C 31.400391 33.496094 31.345703 32.900581 31.345703 32.519531 z M 33.892578 33.667969 L 32.65625 36.009766 L 32.867188 36.009766 L 33.998047 33.867188 L 33.892578 33.667969 z "
       transform="translate(384.57143,499.798)"
       id="path4336" />
  </g>
</svg>
