<?xml version="1.0" encoding="UTF-8" standalone="no"?>
<!-- Created with Inkscape (http://www.inkscape.org/) -->

<svg
   xmlns:dc="http://purl.org/dc/elements/1.1/"
   xmlns:cc="http://creativecommons.org/ns#"
   xmlns:rdf="http://www.w3.org/1999/02/22-rdf-syntax-ns#"
   xmlns:svg="http://www.w3.org/2000/svg"
   xmlns="http://www.w3.org/2000/svg"
   xmlns:xlink="http://www.w3.org/1999/xlink"
   xmlns:sodipodi="http://sodipodi.sourceforge.net/DTD/sodipodi-0.dtd"
   xmlns:inkscape="http://www.inkscape.org/namespaces/inkscape"
   width="48"
   height="48"
   id="svg2"
   version="1.1"
   inkscape:version="0.48+devel r12487"
   sodipodi:docname="geany.svg">
  <defs
     id="defs4">
    <linearGradient
       id="linearGradient1429"
       inkscape:collect="always">
      <stop
         id="stop1431"
         offset="0"
         style="stop-color:#4d4d4d;stop-opacity:1" />
      <stop
         id="stop1433"
         offset="1"
         style="stop-color:#808080;stop-opacity:1" />
    </linearGradient>
    <linearGradient
       inkscape:collect="always"
       id="linearGradient1408">
      <stop
         style="stop-color:#000000;stop-opacity:1"
         offset="0"
         id="stop1410" />
      <stop
         style="stop-color:#1a1a1a;stop-opacity:1"
         offset="1"
         id="stop1412" />
    </linearGradient>
    <linearGradient
       inkscape:collect="always"
       xlink:href="#linearGradient1408"
       id="linearGradient1414"
       x1="21.036427"
       y1="-1052.3622"
       x2="21.036427"
       y2="-1004.1022"
       gradientUnits="userSpaceOnUse" />
    <linearGradient
       inkscape:collect="always"
       xlink:href="#linearGradient1429"
       id="linearGradient1427"
       x1="5.8530302"
       y1="48.340321"
       x2="5.8530302"
       y2="0.1351472"
       gradientUnits="userSpaceOnUse" />
  </defs>
  <sodipodi:namedview
     id="base"
     pagecolor="#ffffff"
     bordercolor="#666666"
     borderopacity="1.0"
     inkscape:pageopacity="0.0"
     inkscape:pageshadow="2"
     inkscape:zoom="5.6568543"
     inkscape:cx="23.470351"
     inkscape:cy="32.681215"
     inkscape:document-units="px"
     inkscape:current-layer="layer1"
     showgrid="false"
     inkscape:window-width="1366"
     inkscape:window-height="718"
     inkscape:window-x="0"
     inkscape:window-y="28"
     inkscape:window-maximized="1">
    <inkscape:grid
       type="xygrid"
       id="grid3850"
       empspacing="5"
       visible="true"
       enabled="true"
       snapvisiblegridlinesonly="true" />
  </sodipodi:namedview>
  <metadata
     id="metadata7">
    <rdf:RDF>
      <cc:Work
         rdf:about="">
        <dc:format>image/svg+xml</dc:format>
        <dc:type
           rdf:resource="http://purl.org/dc/dcmitype/StillImage" />
        <dc:title />
      </cc:Work>
    </rdf:RDF>
  </metadata>
  <g
     inkscape:label="Capa 1"
     inkscape:groupmode="layer"
     id="layer1"
     transform="translate(0,-1004.3622)">
    <rect
       style="fill:url(#linearGradient1414);fill-opacity:1;stroke:none"
       id="rect2991-1"
       width="48"
       height="48"
       x="-2.367859e-06"
       y="-1052.3622"
       ry="1.9445436"
       transform="scale(1,-1)" />
    <path
       style="fill:url(#linearGradient1427);fill-opacity:1;stroke:none"
       d="M 1.9375,0 C 0.86022285,0 0,0.86022285 0,1.9375 l 0,44.125 C 0,47.139777 0.86022285,48 1.9375,48 L 8.375,48 8.375,0 Z"
       transform="translate(0,1004.3622)"
       id="rect1416"
       inkscape:connector-curvature="0"
       sodipodi:nodetypes="ssssccs" />
    <path
       inkscape:connector-curvature="0"
       style="fill:#ffffff;fill-opacity:0.5372549;stroke:none"
       d="m 2.5312014,1005.0185 c -0.917,0 -1.67110003,0.6395 -1.84370003,1.5 0.33560003,-0.2799 0.77450003,-0.4375 1.25000003,-0.4375 l 44.1250006,0 c 0.4755,0 0.9144,0.1576 1.25,0.4375 -0.1726,-0.8605 -0.9267,-1.5 -1.8437,-1.5 L 2.5312014,1005.0185 Z"
       id="path7515" />
    <path
       inkscape:connector-curvature="0"
       style="fill:#000000;fill-opacity:0.39215686;stroke:none"
       d="m 1.9375014,1004.3622 c -1.07730003,0 -1.9375000321411,0.8602 -1.9375000321411,1.9375 l 0,43.0625 c 0,0.7934 0.4800000021411,1.449 1.1562000321411,1.75 -0.30930003,-0.3333 -0.50000003,-0.7824 -0.50000003,-1.2812 l 0,-42.9375 c 0,-1.0482 0.82690003,-1.875 1.87500003,-1.875 l 42.9376006,0 c 1.0481,0 1.875,0.8268 1.875,1.875 l 0,42.9375 c 0,0.4988 -0.1907,0.9479 -0.5,1.2812 0.6762,-0.301 1.1562,-0.9566 1.1562,-1.75 l 0,-43.0625 c 0,-1.0773 -0.8602,-1.9375 -1.9375,-1.9375 L 1.9375014,1004.3622 Z"
       id="rect4280-7" />
    <rect
       style="fill:none;stroke:none"
       id="rect1526"
       width="48"
       height="48"
       x="-2.367859e-06"
       y="1004.3622"
       ry="0" />
    <path
       inkscape:connector-curvature="0"
       style="fill:#000000;fill-opacity:1;stroke:none"
       d="m 1.3678589e-6,1049.3622 0,1.0625 c 0,1.0773 0.8602000021411,1.9375 1.9375000321411,1.9375 l 44.1250006,0 c 1.0773,0 1.9375,-0.8602 1.9375,-1.9375 l 0,-1.0625 c 0,1.0773 -0.8602,1.9375 -1.9375,1.9375 l -44.1250006,0 C 0.86020137,1051.2997 1.3678589e-6,1050.4395 1.3678589e-6,1049.3622 Z"
       id="rect846" />
    <path
       inkscape:connector-curvature="0"
       id="path1463"
       style="font-size:2.32220101px;font-style:normal;font-variant:normal;font-weight:bold;font-stretch:normal;text-align:start;line-height:125%;letter-spacing:0px;word-spacing:0px;writing-mode:lr-tb;text-anchor:start;fill:#55d400;fill-opacity:1;stroke:none;font-family:Droid Sans Mono;-inkscape-font-specification:Droid Sans Mono Bold"
       d="m 11.232076,1013.114 -0.07257,0.3719 0.272133,0 0,0.1553 -0.301614,0 -0.09298,0.4853 -0.167815,0 0.09525,-0.4853 -0.328827,0 -0.09298,0.4853 -0.163279,0 0.08844,-0.4853 -0.246054,0 0,-0.1553 0.276669,0 0.0737,-0.3719 -0.264195,0 0,-0.1554 0.292543,0 0.09298,-0.4898 0.166682,0 -0.09298,0.4898 0.332229,0 0.09525,-0.4898 0.16328,0 -0.09525,0.4898 0.250589,0 0,0.1554 L 11.232076,1013.114 z m -0.566944,0.3719 0.329961,0 0.07257,-0.3719 -0.329961,0 L 10.665132,1013.4859 Z" />
    <path
       inkscape:connector-curvature="0"
       id="path1465"
       style="font-size:2.32220101px;font-style:normal;font-variant:normal;font-weight:bold;font-stretch:normal;text-align:start;line-height:125%;letter-spacing:0px;word-spacing:0px;writing-mode:lr-tb;text-anchor:start;fill:#55d400;fill-opacity:1;stroke:none;font-family:Droid Sans Mono;-inkscape-font-specification:Droid Sans Mono Bold"
       d="m 12.280921,1012.369 q 0.120192,0 0.120192,0.1293 0,0.066 -0.03628,0.099 -0.03515,0.032 -0.08391,0.032 -0.121326,0 -0.121326,-0.1304 Q 12.159595,1012.369 12.280921,1012.369 z m -0.104317,0.6758 -0.305016,-0.024 0,-0.1395 0.511383,0 0,1.0829 0.399129,0.023 0,0.1394 -0.995553,0 0,-0.1394 0.390057,-0.023 L 12.176604,1013.0448 Z" />
    <path
       inkscape:connector-curvature="0"
       id="path1467"
       style="font-size:2.32220101px;font-style:normal;font-variant:normal;font-weight:bold;font-stretch:normal;text-align:start;line-height:125%;letter-spacing:0px;word-spacing:0px;writing-mode:lr-tb;text-anchor:start;fill:#55d400;fill-opacity:1;stroke:none;font-family:Droid Sans Mono;-inkscape-font-specification:Droid Sans Mono Bold"
       d="m 13.961342,1014.1265 0,-0.8016 q 0,-0.2948 -0.269865,-0.2948 -0.348103,0 -0.348103,0.4512 l 0,0.6452 -0.206368,0 0,-1.245 0.166682,0 0.03062,0.1678 0.01134,0 q 0.116791,-0.1905 0.380987,-0.1905 0.441082,0 0.441082,0.4547 l 0,0.813 L 13.961342,1014.1265 Z" />
    <path
       inkscape:connector-curvature="0"
       id="path1469"
       style="font-size:2.32220101px;font-style:normal;font-variant:normal;font-weight:bold;font-stretch:normal;text-align:start;line-height:125%;letter-spacing:0px;word-spacing:0px;writing-mode:lr-tb;text-anchor:start;fill:#55d400;fill-opacity:1;stroke:none;font-family:Droid Sans Mono;-inkscape-font-specification:Droid Sans Mono Bold"
       d="m 15.551052,1012.9257 -0.0703,0.1792 q -0.170083,-0.065 -0.303882,-0.065 -0.420672,0 -0.420672,0.4683 0,0.4603 0.409333,0.4603 0.178021,0 0.363978,-0.07 l 0,0.1814 q -0.151941,0.069 -0.373049,0.069 -0.291409,0 -0.452421,-0.1644 -0.161012,-0.1656 -0.161012,-0.474 0,-0.3186 0.164414,-0.4853 0.164414,-0.1667 0.462626,-0.1667 Q 15.371898,1012.8588 15.551052,1012.9257 Z" />
    <path
       inkscape:connector-curvature="0"
       id="path1471"
       style="font-size:2.32220101px;font-style:normal;font-variant:normal;font-weight:bold;font-stretch:normal;text-align:start;line-height:125%;letter-spacing:0px;word-spacing:0px;writing-mode:lr-tb;text-anchor:start;fill:#55d400;fill-opacity:1;stroke:none;font-family:Droid Sans Mono;-inkscape-font-specification:Droid Sans Mono Bold"
       d="m 16.343639,1012.5243 -0.303881,-0.024 0,-0.1383 0.511383,0 0,1.6022 0.399128,0.023 0,0.1394 -0.996687,0 0,-0.1394 0.390057,-0.023 L 16.343639,1012.5243 Z" />
    <path
       inkscape:connector-curvature="0"
       id="path1473"
       style="font-size:2.32220101px;font-style:normal;font-variant:normal;font-weight:bold;font-stretch:normal;text-align:start;line-height:125%;letter-spacing:0px;word-spacing:0px;writing-mode:lr-tb;text-anchor:start;fill:#55d400;fill-opacity:1;stroke:none;font-family:Droid Sans Mono;-inkscape-font-specification:Droid Sans Mono Bold"
       d="m 18.178269,1014.1265 -0.03062,-0.1667 -0.01134,0 q -0.119058,0.1894 -0.378718,0.1894 -0.44335,0 -0.44335,-0.4547 l 0,-0.813 0.206367,0 0,0.8017 q 0,0.2948 0.267598,0.2948 0.182556,0 0.266463,-0.1043 0.08391,-0.1055 0.08391,-0.3459 l 0,-0.6463 0.206367,0 0,1.245 L 18.178269,1014.1265 Z" />
    <path
       inkscape:connector-curvature="0"
       id="path1475"
       style="font-size:2.32220101px;font-style:normal;font-variant:normal;font-weight:bold;font-stretch:normal;text-align:start;line-height:125%;letter-spacing:0px;word-spacing:0px;writing-mode:lr-tb;text-anchor:start;fill:#55d400;fill-opacity:1;stroke:none;font-family:Droid Sans Mono;-inkscape-font-specification:Droid Sans Mono Bold"
       d="m 19.542335,1013.9598 -0.0091,0 q -0.128129,0.1894 -0.365112,0.1894 -0.227911,0 -0.358308,-0.1689 -0.129263,-0.1701 -0.129263,-0.474 0,-0.3062 0.130397,-0.4762 0.130397,-0.1713 0.357174,-0.1713 0.233581,0 0.365112,0.1815 l 0.01361,0 q -0.01361,-0.1463 -0.01361,-0.1837 l 0,-0.4944 0.206367,0 0,1.7643 -0.166681,0 L 19.542335,1013.9598 z m -0.0091,-0.407 0,-0.047 q 0,-0.2574 -0.07937,-0.3663 -0.07824,-0.1099 -0.250589,-0.1099 -0.308418,0 -0.308418,0.4785 0,0.4694 0.310685,0.4694 0.172351,0 0.247188,-0.1 Q 19.528728,1013.7773 19.533264,1013.5528 Z" />
    <path
       inkscape:connector-curvature="0"
       id="path1477"
       style="font-size:2.32220101px;font-style:normal;font-variant:normal;font-weight:bold;font-stretch:normal;text-align:start;line-height:125%;letter-spacing:0px;word-spacing:0px;writing-mode:lr-tb;text-anchor:start;fill:#55d400;fill-opacity:1;stroke:none;font-family:Droid Sans Mono;-inkscape-font-specification:Droid Sans Mono Bold"
       d="m 21.160393,1013.5437 -0.877629,0 q 0.0091,0.4252 0.390057,0.4252 0.221108,0 0.419538,-0.086 l 0,0.1815 q -0.188225,0.085 -0.412735,0.085 -0.277802,0 -0.444483,-0.1689 -0.166682,-0.1701 -0.166682,-0.4672 0,-0.3016 0.153075,-0.4774 0.154209,-0.1769 0.411601,-0.1769 0.240384,0 0.383254,0.152 0.144004,0.1519 0.144004,0.4048 L 21.160393,1013.5437 z m -0.873094,-0.1678 0.649718,0 q 0,-0.3458 -0.308418,-0.3458 Q 20.31678,1013.0301 20.287299,1013.3759 Z" />
    <path
       inkscape:connector-curvature="0"
       id="path1479"
       style="font-size:2.32220101px;font-style:normal;font-variant:normal;font-weight:bold;font-stretch:normal;text-align:start;line-height:125%;letter-spacing:0px;word-spacing:0px;writing-mode:lr-tb;text-anchor:start;fill:#55d400;fill-opacity:1;stroke:none;font-family:Droid Sans Mono;-inkscape-font-specification:Droid Sans Mono Bold"
       d="m 23.921407,1013.8759 -1.046578,-0.5113 0,-0.1157 1.046578,-0.5114 0,0.1814 -0.810729,0.3878 0.810729,0.3878 L 23.921407,1013.8759 Z" />
    <path
       inkscape:connector-curvature="0"
       id="path1481"
       style="font-size:2.32220101px;font-style:normal;font-variant:normal;font-weight:bold;font-stretch:normal;text-align:start;line-height:125%;letter-spacing:0px;word-spacing:0px;writing-mode:lr-tb;text-anchor:start;fill:#55d400;fill-opacity:1;stroke:none;font-family:Droid Sans Mono;-inkscape-font-specification:Droid Sans Mono Bold"
       d="m 24.325072,1014.071 0,-0.1883 q 0.21884,0.098 0.419538,0.098 0.311819,0 0.311819,-0.1837 0,-0.065 -0.05556,-0.1123 -0.05556,-0.048 -0.256258,-0.1202 -0.264196,-0.099 -0.333363,-0.1803 -0.06803,-0.083 -0.06803,-0.195 0,-0.1542 0.125861,-0.2415 0.126996,-0.089 0.350371,-0.089 0.22451,0 0.418405,0.084 l -0.06803,0.169 q -0.206368,-0.082 -0.36171,-0.082 -0.267598,0 -0.267598,0.1508 0,0.069 0.05669,0.1111 0.05783,0.041 0.264195,0.1145 0.23925,0.087 0.317489,0.1724 0.07937,0.084 0.07937,0.2063 0,0.1701 -0.132665,0.2676 -0.132665,0.096 -0.375317,0.096 Q 24.469075,1014.1492 24.325072,1014.071 Z" />
    <path
       inkscape:connector-curvature="0"
       id="path1483"
       style="font-size:2.32220101px;font-style:normal;font-variant:normal;font-weight:bold;font-stretch:normal;text-align:start;line-height:125%;letter-spacing:0px;word-spacing:0px;writing-mode:lr-tb;text-anchor:start;fill:#55d400;fill-opacity:1;stroke:none;font-family:Droid Sans Mono;-inkscape-font-specification:Droid Sans Mono Bold"
       d="m 26.643871,1013.9564 0,0.1565 q -0.147406,0.036 -0.28574,0.036 -0.410467,0 -0.410467,-0.3901 l 0,-0.7222 -0.302748,0 0,-0.1066 0.302748,-0.056 0.08731,-0.3254 0.119058,0 0,0.3322 0.496643,0 0,0.1554 -0.496643,0 0,0.7222 q 0,0.2212 0.217707,0.2212 Q 26.477189,1013.9803 26.643871,1013.9564 Z" />
    <path
       inkscape:connector-curvature="0"
       id="path1485"
       style="font-size:2.32220101px;font-style:normal;font-variant:normal;font-weight:bold;font-stretch:normal;text-align:start;line-height:125%;letter-spacing:0px;word-spacing:0px;writing-mode:lr-tb;text-anchor:start;fill:#55d400;fill-opacity:1;stroke:none;font-family:Droid Sans Mono;-inkscape-font-specification:Droid Sans Mono Bold"
       d="m 27.896816,1013.9598 -0.0091,0 q -0.12813,0.1894 -0.365112,0.1894 -0.227911,0 -0.358309,-0.1689 -0.129263,-0.1701 -0.129263,-0.474 0,-0.3062 0.130397,-0.4762 0.130397,-0.1713 0.357175,-0.1713 0.233581,0 0.365112,0.1815 l 0.01361,0 q -0.01361,-0.1463 -0.01361,-0.1837 l 0,-0.4944 0.206367,0 0,1.7643 -0.166681,0 L 27.896816,1013.9598 z m -0.0091,-0.407 0,-0.047 q 0,-0.2574 -0.07937,-0.3663 -0.07824,-0.1099 -0.250589,-0.1099 -0.308417,0 -0.308417,0.4785 0,0.4694 0.310685,0.4694 0.172351,0 0.247188,-0.1 Q 27.883209,1013.7773 27.887745,1013.5528 Z" />
    <path
       inkscape:connector-curvature="0"
       id="path1487"
       style="font-size:2.32220101px;font-style:normal;font-variant:normal;font-weight:bold;font-stretch:normal;text-align:start;line-height:125%;letter-spacing:0px;word-spacing:0px;writing-mode:lr-tb;text-anchor:start;fill:#55d400;fill-opacity:1;stroke:none;font-family:Droid Sans Mono;-inkscape-font-specification:Droid Sans Mono Bold"
       d="m 28.989883,1012.369 q 0.120193,0 0.120193,0.1293 0,0.066 -0.03628,0.099 -0.03515,0.032 -0.08391,0.032 -0.121325,0 -0.121325,-0.1304 Q 28.868558,1012.369 28.989883,1012.369 z m -0.104317,0.6758 -0.305016,-0.024 0,-0.1395 0.511383,0 0,1.0829 0.399129,0.023 0,0.1394 -0.995553,0 0,-0.1394 0.390057,-0.023 L 28.885566,1013.0448 Z" />
    <path
       inkscape:connector-curvature="0"
       id="path1489"
       style="font-size:2.32220101px;font-style:normal;font-variant:normal;font-weight:bold;font-stretch:normal;text-align:start;line-height:125%;letter-spacing:0px;word-spacing:0px;writing-mode:lr-tb;text-anchor:start;fill:#55d400;fill-opacity:1;stroke:none;font-family:Droid Sans Mono;-inkscape-font-specification:Droid Sans Mono Bold"
       d="m 30.356218,1014.1492 q -0.244919,0 -0.403664,-0.1757 -0.15761,-0.1769 -0.15761,-0.4717 0,-0.2983 0.153075,-0.4706 0.154208,-0.1724 0.415002,-0.1724 0.247188,0 0.404798,0.1758 0.157611,0.1757 0.157611,0.4672 0,0.3004 -0.155343,0.4739 Q 30.614744,1014.1492 30.356218,1014.1492 z m 0.0045,-0.1712 q 0.351505,0 0.351505,-0.4762 0,-0.4717 -0.353773,-0.4717 -0.350371,0 -0.350371,0.4717 Q 30.008115,1013.978 30.360754,1013.978 Z" />
    <path
       inkscape:connector-curvature="0"
       id="path1491"
       style="font-size:2.32220101px;font-style:normal;font-variant:normal;font-weight:bold;font-stretch:normal;text-align:start;line-height:125%;letter-spacing:0px;word-spacing:0px;writing-mode:lr-tb;text-anchor:start;fill:#55d400;fill-opacity:1;stroke:none;font-family:Droid Sans Mono;-inkscape-font-specification:Droid Sans Mono Bold"
       d="m 31.753166,1013.7852 q 0.172351,0 0.172351,0.1883 0,0.1882 -0.172351,0.1882 -0.171217,0 -0.171217,-0.1882 Q 31.581949,1013.7852 31.753166,1013.7852 Z" />
    <path
       inkscape:connector-curvature="0"
       id="path1493"
       style="font-size:2.32220101px;font-style:normal;font-variant:normal;font-weight:bold;font-stretch:normal;text-align:start;line-height:125%;letter-spacing:0px;word-spacing:0px;writing-mode:lr-tb;text-anchor:start;fill:#55d400;fill-opacity:1;stroke:none;font-family:Droid Sans Mono;-inkscape-font-specification:Droid Sans Mono Bold"
       d="m 33.455131,1014.1265 0,-0.8016 q 0,-0.2948 -0.269865,-0.2948 -0.348103,0 -0.348103,0.4512 l 0,0.6452 -0.206368,0 0,-1.7643 0.206368,0 0,0.5239 -0.0091,0.1632 0.01134,0 q 0.116791,-0.1905 0.380987,-0.1905 0.441082,0 0.441082,0.4547 l 0,0.813 L 33.455131,1014.1265 Z" />
    <path
       inkscape:connector-curvature="0"
       id="path1495"
       style="font-size:2.32220101px;font-style:normal;font-variant:normal;font-weight:bold;font-stretch:normal;text-align:start;line-height:125%;letter-spacing:0px;word-spacing:0px;writing-mode:lr-tb;text-anchor:start;fill:#55d400;fill-opacity:1;stroke:none;font-family:Droid Sans Mono;-inkscape-font-specification:Droid Sans Mono Bold"
       d="m 34.014138,1013.6945 0.809596,-0.3878 -0.809596,-0.3878 0,-0.1814 1.046578,0.5114 0,0.1157 -1.046578,0.5113 L 34.014138,1013.6945 Z" />
    <path
       inkscape:connector-curvature="0"
       id="path1497"
       style="font-size:2.32220101px;font-style:normal;font-variant:normal;font-weight:bold;font-stretch:normal;text-align:start;line-height:125%;letter-spacing:0px;word-spacing:0px;writing-mode:lr-tb;text-anchor:start;fill:#a02c2c;fill-opacity:1;stroke:none;font-family:Droid Sans Mono;-inkscape-font-specification:Droid Sans Mono Bold"
       d="m 10.888508,1018.1745 q 0.120192,0 0.120192,0.1293 0,0.066 -0.03628,0.099 -0.03515,0.032 -0.08391,0.032 -0.121326,0 -0.121326,-0.1304 Q 10.767182,1018.1745 10.888508,1018.1745 z m -0.104318,0.6758 -0.305015,-0.024 0,-0.1395 0.511383,0 0,1.0829 0.399128,0.023 0,0.1394 -0.995553,0 0,-0.1394 0.390057,-0.023 L 10.78419,1018.8503 Z" />
    <path
       inkscape:connector-curvature="0"
       id="path1499"
       style="font-size:2.32220101px;font-style:normal;font-variant:normal;font-weight:bold;font-stretch:normal;text-align:start;line-height:125%;letter-spacing:0px;word-spacing:0px;writing-mode:lr-tb;text-anchor:start;fill:#a02c2c;fill-opacity:1;stroke:none;font-family:Droid Sans Mono;-inkscape-font-specification:Droid Sans Mono Bold"
       d="m 12.568929,1019.932 0,-0.8016 q 0,-0.2948 -0.269865,-0.2948 -0.348104,0 -0.348104,0.4512 l 0,0.6452 -0.206367,0 0,-1.245 0.166681,0 0.03061,0.1678 0.01134,0 q 0.11679,-0.1905 0.380986,-0.1905 0.441082,0 0.441082,0.4547 l 0,0.813 L 12.568929,1019.932 Z" />
    <path
       inkscape:connector-curvature="0"
       id="path1501"
       style="font-size:2.32220101px;font-style:normal;font-variant:normal;font-weight:bold;font-stretch:normal;text-align:start;line-height:125%;letter-spacing:0px;word-spacing:0px;writing-mode:lr-tb;text-anchor:start;fill:#a02c2c;fill-opacity:1;stroke:none;font-family:Droid Sans Mono;-inkscape-font-specification:Droid Sans Mono Bold"
       d="m 14.112149,1019.7619 0,0.1565 q -0.147405,0.036 -0.285739,0.036 -0.410468,0 -0.410468,-0.3901 l 0,-0.7222 -0.302747,0 0,-0.1066 0.302747,-0.056 0.08731,-0.3254 0.119058,0 0,0.3322 0.496643,0 0,0.1554 -0.496643,0 0,0.7222 q 0,0.2212 0.217706,0.2212 Q 13.945468,1019.7858 14.112149,1019.7619 Z" />
    <path
       inkscape:connector-curvature="0"
       id="path1503"
       style="font-size:2.32220101px;font-style:normal;font-variant:normal;font-weight:bold;font-stretch:normal;text-align:start;line-height:125%;letter-spacing:0px;word-spacing:0px;writing-mode:lr-tb;text-anchor:start;fill:#ffffff;fill-opacity:1;stroke:none;font-family:Droid Sans Mono;-inkscape-font-specification:Droid Sans Mono Bold"
       d="m 16.848219,1019.932 0,-0.8016 q 0,-0.1656 -0.03062,-0.2302 -0.02948,-0.065 -0.09978,-0.065 -0.09865,0 -0.144004,0.094 -0.04422,0.094 -0.04422,0.3152 l 0,0.6871 -0.182556,0 0,-0.8016 q 0,-0.2948 -0.141736,-0.2948 -0.09525,0 -0.136066,0.091 -0.04082,0.09 -0.04082,0.3605 l 0,0.6452 -0.18369,0 0,-1.245 0.144004,0 0.03062,0.1678 0.01134,0 q 0.07597,-0.1905 0.227912,-0.1905 0.184823,0 0.241518,0.2064 l 0.0068,0 q 0.08618,-0.2064 0.248321,-0.2064 0.145138,0 0.210903,0.1055 0.06577,0.1043 0.06577,0.3492 l 0,0.813 L 16.848219,1019.932 Z" />
    <path
       inkscape:connector-curvature="0"
       id="path1505"
       style="font-size:2.32220101px;font-style:normal;font-variant:normal;font-weight:bold;font-stretch:normal;text-align:start;line-height:125%;letter-spacing:0px;word-spacing:0px;writing-mode:lr-tb;text-anchor:start;fill:#ffffff;fill-opacity:1;stroke:none;font-family:Droid Sans Mono;-inkscape-font-specification:Droid Sans Mono Bold"
       d="m 18.147654,1019.932 -0.04195,-0.1723 -0.0091,0 q -0.08731,0.11 -0.179154,0.1531 -0.09184,0.042 -0.236983,0.042 -0.184823,0 -0.290275,-0.097 -0.104317,-0.098 -0.104317,-0.2733 0,-0.3764 0.578282,-0.3946 l 0.230179,-0.01 0,-0.078 q 0,-0.2676 -0.276668,-0.2676 -0.166682,0 -0.371915,0.093 l -0.07144,-0.1553 q 0.222242,-0.1089 0.434279,-0.1089 0.257392,0 0.371915,0.099 0.115656,0.099 0.115656,0.3163 l 0,0.8527 L 18.147654,1019.932 z m -0.05556,-0.6089 -0.183689,0.01 q -0.222242,0.01 -0.315221,0.07 -0.09298,0.06 -0.09298,0.1848 0,0.2018 0.226778,0.2018 0.166681,0 0.265329,-0.092 0.09978,-0.093 0.09978,-0.2608 L 18.092093,1019.3231 Z" />
    <path
       inkscape:connector-curvature="0"
       id="path1507"
       style="font-size:2.32220101px;font-style:normal;font-variant:normal;font-weight:bold;font-stretch:normal;text-align:start;line-height:125%;letter-spacing:0px;word-spacing:0px;writing-mode:lr-tb;text-anchor:start;fill:#ffffff;fill-opacity:1;stroke:none;font-family:Droid Sans Mono;-inkscape-font-specification:Droid Sans Mono Bold"
       d="m 19.242989,1018.1745 q 0.120192,0 0.120192,0.1293 0,0.066 -0.03628,0.099 -0.03515,0.032 -0.08391,0.032 -0.121326,0 -0.121326,-0.1304 Q 19.121663,1018.1745 19.242989,1018.1745 z m -0.104318,0.6758 -0.305016,-0.024 0,-0.1395 0.511383,0 0,1.0829 0.399129,0.023 0,0.1394 -0.995553,0 0,-0.1394 0.390057,-0.023 L 19.138671,1018.8503 Z" />
    <path
       inkscape:connector-curvature="0"
       id="path1509"
       style="font-size:2.32220101px;font-style:normal;font-variant:normal;font-weight:bold;font-stretch:normal;text-align:start;line-height:125%;letter-spacing:0px;word-spacing:0px;writing-mode:lr-tb;text-anchor:start;fill:#ffffff;fill-opacity:1;stroke:none;font-family:Droid Sans Mono;-inkscape-font-specification:Droid Sans Mono Bold"
       d="m 20.92341,1019.932 0,-0.8016 q 0,-0.2948 -0.269865,-0.2948 -0.348103,0 -0.348103,0.4512 l 0,0.6452 -0.206368,0 0,-1.245 0.166682,0 0.03061,0.1678 0.01134,0 q 0.116791,-0.1905 0.380986,-0.1905 0.441083,0 0.441083,0.4547 l 0,0.813 L 20.92341,1019.932 Z" />
    <path
       inkscape:connector-curvature="0"
       id="path1511"
       style="font-size:2.32220101px;font-style:normal;font-variant:normal;font-weight:bold;font-stretch:normal;text-align:start;line-height:125%;letter-spacing:0px;word-spacing:0px;writing-mode:lr-tb;text-anchor:start;fill:#55d400;fill-opacity:1;stroke:none;font-family:Droid Sans Mono;-inkscape-font-specification:Droid Sans Mono Bold"
       d="m 22.148008,1018.2743 0.21884,0 q -0.509115,0.4263 -0.509115,1.0125 0,0.5908 0.506847,1.0126 l -0.216572,0 q -0.503446,-0.4003 -0.503446,-1.0103 Q 21.644562,1018.6859 22.148008,1018.2743 Z" />
    <path
       inkscape:connector-curvature="0"
       id="path1513"
       style="font-size:2.32220101px;font-style:normal;font-variant:normal;font-weight:bold;font-stretch:normal;text-align:start;line-height:125%;letter-spacing:0px;word-spacing:0px;writing-mode:lr-tb;text-anchor:start;fill:#55d400;fill-opacity:1;stroke:none;font-family:Droid Sans Mono;-inkscape-font-specification:Droid Sans Mono Bold"
       d="m 23.256949,1020.2994 -0.215438,0 q 0.505713,-0.4207 0.505713,-1.0126 0,-0.5873 -0.507981,-1.0125 l 0.217706,0 q 0.50458,0.4093 0.50458,1.0148 Q 23.761529,1019.9014 23.256949,1020.2994 Z" />
    <path
       inkscape:connector-curvature="0"
       id="path1515"
       style="font-size:2.32220101px;font-style:normal;font-variant:normal;font-weight:bold;font-stretch:normal;text-align:start;line-height:125%;letter-spacing:0px;word-spacing:0px;writing-mode:lr-tb;text-anchor:start;fill:#55d400;fill-opacity:1;stroke:none;font-family:Droid Sans Mono;-inkscape-font-specification:Droid Sans Mono Bold"
       d="m 11.015503,1022.8529 q 0,0.092 0.0635,0.1338 0.0635,0.043 0.226777,0.045 l 0,0.1701 q -0.496642,-0.01 -0.496642,-0.3323 l 0,-0.3787 q 0,-0.2143 -0.383254,-0.2143 l 0,-0.1757 q 0.383254,0 0.383254,-0.2144 l 0,-0.3775 q 0,-0.3255 0.496642,-0.3323 l 0,0.169 q -0.163279,0 -0.226777,0.045 -0.0635,0.042 -0.0635,0.1338 l 0,0.3765 q 0,0.2347 -0.264195,0.2812 l 0,0.014 q 0.264195,0.046 0.264195,0.2812 L 11.015503,1022.8529 Z" />
    <path
       inkscape:connector-curvature="0"
       id="path1517"
       style="font-size:2.32220101px;font-style:normal;font-variant:normal;font-weight:bold;font-stretch:normal;text-align:start;line-height:125%;letter-spacing:0px;word-spacing:0px;writing-mode:lr-tb;text-anchor:start;fill:#ffffff;fill-opacity:1;stroke:none;font-family:Droid Sans Mono;-inkscape-font-specification:Droid Sans Mono Bold"
       d="m 13.341106,1025.5799 -0.01361,0 q 0.01361,0.1463 0.01361,0.1837 l 0,0.5318 -0.206368,0 0,-1.8029 0.166682,0 0.03061,0.1678 0.0091,0 q 0.124728,-0.1905 0.365112,-0.1905 0.227911,0 0.357174,0.1701 0.130397,0.169 0.130397,0.4729 0,0.3061 -0.130397,0.4773 -0.130397,0.1701 -0.357174,0.1701 Q 13.471503,1025.7602 13.341106,1025.5799 z m 0,-0.5136 0,0.047 q 0,0.2574 0.07824,0.3673 0.07937,0.1089 0.251723,0.1089 0.308417,0 0.308417,-0.4785 0,-0.4694 -0.310685,-0.4694 -0.172351,0 -0.248321,0.1 Q 13.345641,1024.8406 13.341106,1025.0663 Z" />
    <path
       inkscape:connector-curvature="0"
       id="path1519"
       style="font-size:2.32220101px;font-style:normal;font-variant:normal;font-weight:bold;font-stretch:normal;text-align:start;line-height:125%;letter-spacing:0px;word-spacing:0px;writing-mode:lr-tb;text-anchor:start;fill:#ffffff;fill-opacity:1;stroke:none;font-family:Droid Sans Mono;-inkscape-font-specification:Droid Sans Mono Bold"
       d="m 15.548784,1024.5209 -0.05556,0.1882 q -0.139468,-0.051 -0.253991,-0.051 -0.184824,0 -0.28574,0.1054 -0.09978,0.1043 -0.09978,0.3028 l 0,0.6712 -0.206367,0 0,-1.245 0.167815,0 0.02495,0.2279 0.0091,0 q 0.08618,-0.1349 0.184823,-0.1927 0.09865,-0.058 0.242652,-0.058 Q 15.41045,1024.4698 15.548784,1024.5209 Z" />
    <path
       inkscape:connector-curvature="0"
       id="path1521"
       style="font-size:2.32220101px;font-style:normal;font-variant:normal;font-weight:bold;font-stretch:normal;text-align:start;line-height:125%;letter-spacing:0px;word-spacing:0px;writing-mode:lr-tb;text-anchor:start;fill:#ffffff;fill-opacity:1;stroke:none;font-family:Droid Sans Mono;-inkscape-font-specification:Droid Sans Mono Bold"
       d="m 16.458162,1023.98 q 0.120192,0 0.120192,0.1293 0,0.066 -0.03628,0.099 -0.03515,0.032 -0.08391,0.032 -0.121326,0 -0.121326,-0.1304 Q 16.336836,1023.98 16.458162,1023.98 z m -0.104318,0.6758 -0.305015,-0.024 0,-0.1395 0.511383,0 0,1.0829 0.399128,0.023 0,0.1394 -0.995553,0 0,-0.1394 0.390057,-0.023 L 16.353844,1024.6558 Z" />
    <path
       inkscape:connector-curvature="0"
       id="path1523"
       style="font-size:2.32220101px;font-style:normal;font-variant:normal;font-weight:bold;font-stretch:normal;text-align:start;line-height:125%;letter-spacing:0px;word-spacing:0px;writing-mode:lr-tb;text-anchor:start;fill:#ffffff;fill-opacity:1;stroke:none;font-family:Droid Sans Mono;-inkscape-font-specification:Droid Sans Mono Bold"
       d="m 18.138583,1025.7375 0,-0.8016 q 0,-0.2948 -0.269865,-0.2948 -0.348104,0 -0.348104,0.4512 l 0,0.6452 -0.206367,0 0,-1.245 0.166681,0 0.03062,0.1678 0.01134,0 q 0.11679,-0.1905 0.380986,-0.1905 0.441082,0 0.441082,0.4547 l 0,0.813 L 18.138583,1025.7375 Z" />
    <path
       inkscape:connector-curvature="0"
       id="path1525"
       style="font-size:2.32220101px;font-style:normal;font-variant:normal;font-weight:bold;font-stretch:normal;text-align:start;line-height:125%;letter-spacing:0px;word-spacing:0px;writing-mode:lr-tb;text-anchor:start;fill:#ffffff;fill-opacity:1;stroke:none;font-family:Droid Sans Mono;-inkscape-font-specification:Droid Sans Mono Bold"
       d="m 19.681803,1025.5674 0,0.1565 q -0.147405,0.036 -0.28574,0.036 -0.410467,0 -0.410467,-0.39 l 0,-0.7223 -0.302748,0 0,-0.1066 0.302748,-0.056 0.08731,-0.3254 0.119058,0 0,0.3322 0.496642,0 0,0.1554 -0.496642,0 0,0.7223 q 0,0.2211 0.217706,0.2211 Q 19.515122,1025.5913 19.681803,1025.5674 Z" />
    <path
       inkscape:connector-curvature="0"
       id="path1527"
       style="font-size:2.32220101px;font-style:normal;font-variant:normal;font-weight:bold;font-stretch:normal;text-align:start;line-height:125%;letter-spacing:0px;word-spacing:0px;writing-mode:lr-tb;text-anchor:start;fill:#ffffff;fill-opacity:1;stroke:none;font-family:Droid Sans Mono;-inkscape-font-specification:Droid Sans Mono Bold"
       d="m 21.10143,1024.6479 -0.441082,0 0,1.0896 -0.206367,0 0,-1.0896 -0.359442,0 0,-0.1248 0.359442,-0.037 0,-0.1088 q 0,-0.2189 0.10205,-0.3175 0.102049,-0.099 0.339032,-0.099 0.146271,0 0.285739,0.04 l -0.04649,0.1622 q -0.117924,-0.032 -0.234715,-0.032 -0.139468,0 -0.189359,0.057 -0.04989,0.057 -0.04989,0.1871 l 0,0.1179 0.441082,0 L 21.10143,1024.6479 Z" />
    <path
       inkscape:connector-curvature="0"
       id="path1529"
       style="font-size:2.32220101px;font-style:normal;font-variant:normal;font-weight:bold;font-stretch:normal;text-align:start;line-height:125%;letter-spacing:0px;word-spacing:0px;writing-mode:lr-tb;text-anchor:start;fill:#55d400;fill-opacity:1;stroke:none;font-family:Droid Sans Mono;-inkscape-font-specification:Droid Sans Mono Bold"
       d="m 22.148008,1024.0798 0.21884,0 q -0.509115,0.4263 -0.509115,1.0125 0,0.5908 0.506847,1.0126 l -0.216572,0 q -0.503446,-0.4003 -0.503446,-1.0103 Q 21.644562,1024.4914 22.148008,1024.0798 Z" />
    <path
       inkscape:connector-curvature="0"
       id="path1531"
       style="font-size:2.32220101px;font-style:normal;font-variant:normal;font-weight:bold;font-stretch:normal;text-align:start;line-height:125%;letter-spacing:0px;word-spacing:0px;writing-mode:lr-tb;text-anchor:start;fill:#d40000;fill-opacity:1;stroke:none;font-family:Droid Sans Mono;-inkscape-font-specification:Droid Sans Mono Bold"
       d="m 23.294368,1024.0798 -0.04649,0.5987 -0.175752,0 -0.04649,-0.5987 L 23.294368,1024.0798 z m 0.4785,0 -0.04649,0.5987 -0.175753,0 -0.04649,-0.5987 L 23.772868,1024.0798 Z" />
    <path
       inkscape:connector-curvature="0"
       id="path1533"
       style="font-size:2.32220101px;font-style:normal;font-variant:normal;font-weight:bold;font-stretch:normal;text-align:start;line-height:125%;letter-spacing:0px;word-spacing:0px;writing-mode:lr-tb;text-anchor:start;fill:#d40000;fill-opacity:1;stroke:none;font-family:Droid Sans Mono;-inkscape-font-specification:Droid Sans Mono Bold"
       d="m 25.335365,1025.7375 -0.212037,0 0,-0.7733 -0.663324,0 0,0.7733 -0.212037,0 0,-1.6577 0.212037,0 0,0.6985 0.663324,0 0,-0.6985 0.212037,0 L 25.335365,1025.7375 Z" />
    <path
       inkscape:connector-curvature="0"
       id="path1535"
       style="font-size:2.32220101px;font-style:normal;font-variant:normal;font-weight:bold;font-stretch:normal;text-align:start;line-height:125%;letter-spacing:0px;word-spacing:0px;writing-mode:lr-tb;text-anchor:start;fill:#d40000;fill-opacity:1;stroke:none;font-family:Droid Sans Mono;-inkscape-font-specification:Droid Sans Mono Bold"
       d="m 26.730046,1025.1547 -0.877629,0 q 0.0091,0.4252 0.390058,0.4252 0.221108,0 0.419538,-0.086 l 0,0.1815 q -0.188225,0.085 -0.412735,0.085 -0.277803,0 -0.444484,-0.1689 -0.166681,-0.1701 -0.166681,-0.4672 0,-0.3016 0.153074,-0.4774 0.154209,-0.1769 0.411601,-0.1769 0.240385,0 0.383254,0.152 0.144004,0.1519 0.144004,0.4048 L 26.730046,1025.1547 z m -0.873093,-0.1678 0.649717,0 q 0,-0.3458 -0.308417,-0.3458 Q 25.886434,1024.6411 25.856953,1024.9869 Z" />
    <path
       inkscape:connector-curvature="0"
       id="path1537"
       style="font-size:2.32220101px;font-style:normal;font-variant:normal;font-weight:bold;font-stretch:normal;text-align:start;line-height:125%;letter-spacing:0px;word-spacing:0px;writing-mode:lr-tb;text-anchor:start;fill:#d40000;fill-opacity:1;stroke:none;font-family:Droid Sans Mono;-inkscape-font-specification:Droid Sans Mono Bold"
       d="m 27.482947,1024.1353 -0.303882,-0.024 0,-0.1383 0.511383,0 0,1.6022 0.399128,0.023 0,0.1394 -0.996686,0 0,-0.1394 0.390057,-0.023 L 27.482947,1024.1353 Z" />
    <path
       inkscape:connector-curvature="0"
       id="path1539"
       style="font-size:2.32220101px;font-style:normal;font-variant:normal;font-weight:bold;font-stretch:normal;text-align:start;line-height:125%;letter-spacing:0px;word-spacing:0px;writing-mode:lr-tb;text-anchor:start;fill:#d40000;fill-opacity:1;stroke:none;font-family:Droid Sans Mono;-inkscape-font-specification:Droid Sans Mono Bold"
       d="m 28.875361,1024.1353 -0.303882,-0.024 0,-0.1383 0.511383,0 0,1.6022 0.399129,0.023 0,0.1394 -0.996687,0 0,-0.1394 0.390057,-0.023 L 28.875361,1024.1353 Z" />
    <path
       inkscape:connector-curvature="0"
       id="path1541"
       style="font-size:2.32220101px;font-style:normal;font-variant:normal;font-weight:bold;font-stretch:normal;text-align:start;line-height:125%;letter-spacing:0px;word-spacing:0px;writing-mode:lr-tb;text-anchor:start;fill:#d40000;fill-opacity:1;stroke:none;font-family:Droid Sans Mono;-inkscape-font-specification:Droid Sans Mono Bold"
       d="m 30.356218,1025.7602 q -0.244919,0 -0.403664,-0.1757 -0.15761,-0.1769 -0.15761,-0.4717 0,-0.2983 0.153075,-0.4706 0.154208,-0.1724 0.415002,-0.1724 0.247188,0 0.404798,0.1758 0.157611,0.1758 0.157611,0.4672 0,0.3004 -0.155343,0.4739 Q 30.614744,1025.7602 30.356218,1025.7602 z m 0.0045,-0.1712 q 0.351505,0 0.351505,-0.4762 0,-0.4717 -0.353773,-0.4717 -0.350371,0 -0.350371,0.4717 Q 30.008115,1025.589 30.360754,1025.589 Z" />
    <path
       inkscape:connector-curvature="0"
       id="path1543"
       style="font-size:2.32220101px;font-style:normal;font-variant:normal;font-weight:bold;font-stretch:normal;text-align:start;line-height:125%;letter-spacing:0px;word-spacing:0px;writing-mode:lr-tb;text-anchor:start;fill:#d40000;fill-opacity:1;stroke:none;font-family:Droid Sans Mono;-inkscape-font-specification:Droid Sans Mono Bold"
       d="m 33.371224,1025.7375 -0.14854,-0.6758 -0.0771,-0.3741 -0.0068,0 -0.0737,0.3787 -0.153075,0.6712 -0.214304,0 -0.252857,-1.245 0.183689,0 0.111121,0.6157 q 0.03855,0.2109 0.06463,0.4456 l 0.0068,0 q 0.03515,-0.2097 0.0771,-0.4059 l 0.150807,-0.6554 0.21884,0 0.144004,0.6554 q 0.04876,0.2211 0.07597,0.4059 l 0.0068,0 q 0.03515,-0.2744 0.06803,-0.4456 l 0.115656,-0.6157 0.179154,0 -0.255124,1.245 L 33.371224,1025.7375 Z" />
    <path
       inkscape:connector-curvature="0"
       id="path1545"
       style="font-size:2.32220101px;font-style:normal;font-variant:normal;font-weight:bold;font-stretch:normal;text-align:start;line-height:125%;letter-spacing:0px;word-spacing:0px;writing-mode:lr-tb;text-anchor:start;fill:#d40000;fill-opacity:1;stroke:none;font-family:Droid Sans Mono;-inkscape-font-specification:Droid Sans Mono Bold"
       d="m 34.533459,1025.7602 q -0.24492,0 -0.403664,-0.1757 -0.157611,-0.1769 -0.157611,-0.4717 0,-0.2983 0.153075,-0.4706 0.154209,-0.1724 0.415003,-0.1724 0.247187,0 0.404798,0.1758 0.15761,0.1758 0.15761,0.4672 0,0.3004 -0.155343,0.4739 Q 34.791985,1025.7602 34.533459,1025.7602 z m 0.0045,-0.1712 q 0.351505,0 0.351505,-0.4762 0,-0.4717 -0.353773,-0.4717 -0.350371,0 -0.350371,0.4717 Q 34.185355,1025.589 34.537994,1025.589 Z" />
    <path
       inkscape:connector-curvature="0"
       id="path1547"
       style="font-size:2.32220101px;font-style:normal;font-variant:normal;font-weight:bold;font-stretch:normal;text-align:start;line-height:125%;letter-spacing:0px;word-spacing:0px;writing-mode:lr-tb;text-anchor:start;fill:#d40000;fill-opacity:1;stroke:none;font-family:Droid Sans Mono;-inkscape-font-specification:Droid Sans Mono Bold"
       d="m 36.434986,1024.5209 -0.05556,0.1882 q -0.139469,-0.051 -0.253991,-0.051 -0.184824,0 -0.28574,0.1054 -0.09978,0.1043 -0.09978,0.3028 l 0,0.6712 -0.206367,0 0,-1.245 0.167815,0 0.02495,0.2279 0.0091,0 q 0.08618,-0.1349 0.184823,-0.1927 0.09865,-0.058 0.242652,-0.058 Q 36.296652,1024.4698 36.434986,1024.5209 Z" />
    <path
       inkscape:connector-curvature="0"
       id="path1549"
       style="font-size:2.32220101px;font-style:normal;font-variant:normal;font-weight:bold;font-stretch:normal;text-align:start;line-height:125%;letter-spacing:0px;word-spacing:0px;writing-mode:lr-tb;text-anchor:start;fill:#d40000;fill-opacity:1;stroke:none;font-family:Droid Sans Mono;-inkscape-font-specification:Droid Sans Mono Bold"
       d="m 37.229842,1024.1353 -0.303882,-0.024 0,-0.1383 0.511383,0 0,1.6022 0.399128,0.023 0,0.1394 -0.996687,0 0,-0.1394 0.390058,-0.023 L 37.229842,1024.1353 Z" />
    <path
       inkscape:connector-curvature="0"
       id="path1551"
       style="font-size:2.32220101px;font-style:normal;font-variant:normal;font-weight:bold;font-stretch:normal;text-align:start;line-height:125%;letter-spacing:0px;word-spacing:0px;writing-mode:lr-tb;text-anchor:start;fill:#d40000;fill-opacity:1;stroke:none;font-family:Droid Sans Mono;-inkscape-font-specification:Droid Sans Mono Bold"
       d="m 39.036125,1025.5708 -0.0091,0 q -0.128129,0.1894 -0.365111,0.1894 -0.227912,0 -0.358309,-0.1689 -0.129263,-0.1701 -0.129263,-0.474 0,-0.3062 0.130397,-0.4762 0.130397,-0.1713 0.357175,-0.1713 0.233581,0 0.365111,0.1815 l 0.01361,0 q -0.01361,-0.1463 -0.01361,-0.1837 l 0,-0.4944 0.206368,0 0,1.7643 -0.166682,0 L 39.036125,1025.5708 z m -0.0091,-0.407 0,-0.047 q 0,-0.2574 -0.07937,-0.3663 -0.07824,-0.1099 -0.250589,-0.1099 -0.308417,0 -0.308417,0.4785 0,0.4694 0.310685,0.4694 0.172351,0 0.247187,-0.1 Q 39.022518,1025.3883 39.027053,1025.1638 Z" />
    <path
       inkscape:connector-curvature="0"
       id="path1553"
       style="font-size:2.32220101px;font-style:normal;font-variant:normal;font-weight:bold;font-stretch:normal;text-align:start;line-height:125%;letter-spacing:0px;word-spacing:0px;writing-mode:lr-tb;text-anchor:start;fill:#0000b7;fill-opacity:1;stroke:none;font-family:Droid Sans Mono;-inkscape-font-specification:Droid Sans Mono Bold"
       d="m 39.852522,1024.0798 0.710947,1.6577 -0.201832,0 -0.710947,-1.6577 L 39.852522,1024.0798 Z" />
    <path
       inkscape:connector-curvature="0"
       id="path1555"
       style="font-size:2.32220101px;font-style:normal;font-variant:normal;font-weight:bold;font-stretch:normal;text-align:start;line-height:125%;letter-spacing:0px;word-spacing:0px;writing-mode:lr-tb;text-anchor:start;fill:#0000b7;fill-opacity:1;stroke:none;font-family:Droid Sans Mono;-inkscape-font-specification:Droid Sans Mono Bold"
       d="m 41.809612,1025.7375 0,-0.8016 q 0,-0.2948 -0.269865,-0.2948 -0.348104,0 -0.348104,0.4512 l 0,0.6452 -0.206367,0 0,-1.245 0.166681,0 0.03061,0.1678 0.01134,0 q 0.116791,-0.1905 0.380986,-0.1905 0.441082,0 0.441082,0.4547 l 0,0.813 L 41.809612,1025.7375 Z" />
    <path
       inkscape:connector-curvature="0"
       id="path1557"
       style="font-size:2.32220101px;font-style:normal;font-variant:normal;font-weight:bold;font-stretch:normal;text-align:start;line-height:125%;letter-spacing:0px;word-spacing:0px;writing-mode:lr-tb;text-anchor:start;fill:#d40000;fill-opacity:1;stroke:none;font-family:Droid Sans Mono;-inkscape-font-specification:Droid Sans Mono Bold"
       d="m 42.788155,1024.0798 -0.04649,0.5987 -0.175753,0 -0.04649,-0.5987 L 42.788155,1024.0798 z m 0.478501,0 -0.04649,0.5987 -0.175752,0 -0.04649,-0.5987 L 43.266656,1024.0798 Z" />
    <path
       inkscape:connector-curvature="0"
       id="path1559"
       style="font-size:2.32220101px;font-style:normal;font-variant:normal;font-weight:bold;font-stretch:normal;text-align:start;line-height:125%;letter-spacing:0px;word-spacing:0px;writing-mode:lr-tb;text-anchor:start;fill:#55d400;fill-opacity:1;stroke:none;font-family:Droid Sans Mono;-inkscape-font-specification:Droid Sans Mono Bold"
       d="m 44.143151,1026.1049 -0.215438,0 q 0.505713,-0.4207 0.505713,-1.0126 0,-0.5873 -0.507981,-1.0125 l 0.217706,0 q 0.50458,0.4093 0.50458,1.0148 Q 44.647731,1025.7069 44.143151,1026.1049 Z" />
    <path
       inkscape:connector-curvature="0"
       id="path1561"
       style="font-size:2.32220101px;font-style:normal;font-variant:normal;font-weight:bold;font-stretch:normal;text-align:start;line-height:125%;letter-spacing:0px;word-spacing:0px;writing-mode:lr-tb;text-anchor:start;fill:#55d400;fill-opacity:1;stroke:none;font-family:Droid Sans Mono;-inkscape-font-specification:Droid Sans Mono Bold"
       d="m 45.685238,1024.4608 q 0.144004,0 0.144004,0.1576 0,0.1576 -0.144004,0.1576 -0.144003,0 -0.144003,-0.1576 Q 45.541235,1024.4608 45.685238,1024.4608 z m 0.09978,1.0069 0.01587,0.026 q -0.05783,0.2234 -0.199564,0.5432 l -0.155343,0 q 0.0703,-0.2892 0.113389,-0.5692 L 45.78502,1025.4677 Z" />
    <path
       inkscape:connector-curvature="0"
       id="path1563"
       style="font-size:2.32220101px;font-style:normal;font-variant:normal;font-weight:bold;font-stretch:normal;text-align:start;line-height:125%;letter-spacing:0px;word-spacing:0px;writing-mode:lr-tb;text-anchor:start;fill:#7f9e00;fill-opacity:1;stroke:none;font-family:Droid Sans Mono;-inkscape-font-specification:Droid Sans Mono Bold"
       d="m 14.156371,1027.4236 -0.05556,0.1882 q -0.139468,-0.051 -0.25399,-0.051 -0.184824,0 -0.28574,0.1055 -0.09978,0.1043 -0.09978,0.3027 l 0,0.6713 -0.206367,0 0,-1.245 0.167815,0 0.02495,0.2279 0.0091,0 q 0.08618,-0.1349 0.184824,-0.1928 0.09865,-0.058 0.242652,-0.058 Q 14.018037,1027.3726 14.156371,1027.4236 Z" />
    <path
       inkscape:connector-curvature="0"
       id="path1565"
       style="font-size:2.32220101px;font-style:normal;font-variant:normal;font-weight:bold;font-stretch:normal;text-align:start;line-height:125%;letter-spacing:0px;word-spacing:0px;writing-mode:lr-tb;text-anchor:start;fill:#7f9e00;fill-opacity:1;stroke:none;font-family:Droid Sans Mono;-inkscape-font-specification:Droid Sans Mono Bold"
       d="m 15.590738,1028.0575 -0.877629,0 q 0.0091,0.4252 0.390058,0.4252 0.221108,0 0.419538,-0.086 l 0,0.1814 q -0.188225,0.085 -0.412735,0.085 -0.277802,0 -0.444484,-0.169 -0.166681,-0.1701 -0.166681,-0.4672 0,-0.3016 0.153074,-0.4773 0.154209,-0.1769 0.411601,-0.1769 0.240385,0 0.383254,0.1519 0.144004,0.152 0.144004,0.4048 L 15.590738,1028.0575 z m -0.873093,-0.1679 0.649717,0 q 0,-0.3458 -0.308417,-0.3458 Q 14.747126,1027.5438 14.717645,1027.8896 Z" />
    <path
       inkscape:connector-curvature="0"
       id="path1567"
       style="font-size:2.32220101px;font-style:normal;font-variant:normal;font-weight:bold;font-stretch:normal;text-align:start;line-height:125%;letter-spacing:0px;word-spacing:0px;writing-mode:lr-tb;text-anchor:start;fill:#7f9e00;fill-opacity:1;stroke:none;font-family:Droid Sans Mono;-inkscape-font-specification:Droid Sans Mono Bold"
       d="m 16.896976,1028.4702 0,0.1565 q -0.147405,0.036 -0.285739,0.036 -0.410468,0 -0.410468,-0.3901 l 0,-0.7223 -0.302747,0 0,-0.1066 0.302747,-0.055 0.08731,-0.3255 0.119058,0 0,0.3323 0.496643,0 0,0.1553 -0.496643,0 0,0.7223 q 0,0.2211 0.217706,0.2211 Q 16.730295,1028.494 16.896976,1028.4702 Z" />
    <path
       inkscape:connector-curvature="0"
       id="path1569"
       style="font-size:2.32220101px;font-style:normal;font-variant:normal;font-weight:bold;font-stretch:normal;text-align:start;line-height:125%;letter-spacing:0px;word-spacing:0px;writing-mode:lr-tb;text-anchor:start;fill:#7f9e00;fill-opacity:1;stroke:none;font-family:Droid Sans Mono;-inkscape-font-specification:Droid Sans Mono Bold"
       d="m 18.178269,1028.6403 -0.03062,-0.1667 -0.01134,0 q -0.119058,0.1894 -0.378718,0.1894 -0.44335,0 -0.44335,-0.4547 l 0,-0.813 0.206367,0 0,0.8016 q 0,0.2948 0.267598,0.2948 0.182556,0 0.266463,-0.1043 0.08391,-0.1054 0.08391,-0.3458 l 0,-0.6463 0.206367,0 0,1.245 L 18.178269,1028.6403 Z" />
    <path
       inkscape:connector-curvature="0"
       id="path1571"
       style="font-size:2.32220101px;font-style:normal;font-variant:normal;font-weight:bold;font-stretch:normal;text-align:start;line-height:125%;letter-spacing:0px;word-spacing:0px;writing-mode:lr-tb;text-anchor:start;fill:#7f9e00;fill-opacity:1;stroke:none;font-family:Droid Sans Mono;-inkscape-font-specification:Droid Sans Mono Bold"
       d="m 19.726025,1027.4236 -0.05556,0.1882 q -0.139468,-0.051 -0.253991,-0.051 -0.184823,0 -0.285739,0.1055 -0.09978,0.1043 -0.09978,0.3027 l 0,0.6713 -0.206368,0 0,-1.245 0.167816,0 0.02494,0.2279 0.0091,0 q 0.08618,-0.1349 0.184824,-0.1928 0.09865,-0.058 0.242652,-0.058 Q 19.58769,1027.3726 19.726025,1027.4236 Z" />
    <path
       inkscape:connector-curvature="0"
       id="path1573"
       style="font-size:2.32220101px;font-style:normal;font-variant:normal;font-weight:bold;font-stretch:normal;text-align:start;line-height:125%;letter-spacing:0px;word-spacing:0px;writing-mode:lr-tb;text-anchor:start;fill:#7f9e00;fill-opacity:1;stroke:none;font-family:Droid Sans Mono;-inkscape-font-specification:Droid Sans Mono Bold"
       d="m 20.92341,1028.6403 0,-0.8017 q 0,-0.2948 -0.269865,-0.2948 -0.348103,0 -0.348103,0.4513 l 0,0.6452 -0.206368,0 0,-1.245 0.166682,0 0.03061,0.1678 0.01134,0 q 0.116791,-0.1905 0.380986,-0.1905 0.441083,0 0.441083,0.4547 l 0,0.813 L 20.92341,1028.6403 Z" />
    <path
       inkscape:connector-curvature="0"
       id="path1575"
       style="font-size:2.32220101px;font-style:normal;font-variant:normal;font-weight:bold;font-stretch:normal;text-align:start;line-height:125%;letter-spacing:0px;word-spacing:0px;writing-mode:lr-tb;text-anchor:start;fill:#ffffff;fill-opacity:1;stroke:none;font-family:Droid Sans Mono;-inkscape-font-specification:Droid Sans Mono Bold"
       d="m 23.396417,1028.663 q -0.25966,0 -0.393458,-0.2189 -0.133799,-0.22 -0.133799,-0.635 0,-0.8526 0.527257,-0.8526 0.263062,0 0.396861,0.2199 0.134932,0.2189 0.134932,0.6327 Q 23.92821,1028.663 23.396417,1028.663 z m 0,-0.1758 q 0.166682,0 0.24492,-0.1587 0.07824,-0.1599 0.07824,-0.5194 0,-0.3571 -0.07824,-0.5159 -0.07824,-0.1599 -0.24492,-0.1599 -0.164413,0 -0.241518,0.1588 -0.07597,0.1576 -0.07597,0.517 0,0.3606 0.07597,0.5194 Q 23.232004,1028.4872 23.396417,1028.4872 Z" />
    <path
       inkscape:connector-curvature="0"
       id="path1577"
       style="font-size:2.32220101px;font-style:normal;font-variant:normal;font-weight:bold;font-stretch:normal;text-align:start;line-height:125%;letter-spacing:0px;word-spacing:0px;writing-mode:lr-tb;text-anchor:start;fill:#55d400;fill-opacity:1;stroke:none;font-family:Droid Sans Mono;-inkscape-font-specification:Droid Sans Mono Bold"
       d="m 24.799036,1027.3635 q 0.144004,0 0.144004,0.1576 0,0.1576 -0.144004,0.1576 -0.144003,0 -0.144003,-0.1576 Q 24.655033,1027.3635 24.799036,1027.3635 z m 0.09978,1.0069 0.01587,0.026 q -0.05783,0.2234 -0.199564,0.5431 l -0.155343,0 q 0.0703,-0.2891 0.113389,-0.5692 L 24.898819,1028.3704 Z" />
    <path
       inkscape:connector-curvature="0"
       id="path1579"
       style="font-size:2.32220101px;font-style:normal;font-variant:normal;font-weight:bold;font-stretch:normal;text-align:start;line-height:125%;letter-spacing:0px;word-spacing:0px;writing-mode:lr-tb;text-anchor:start;fill:#55d400;fill-opacity:1;stroke:none;font-family:Droid Sans Mono;-inkscape-font-specification:Droid Sans Mono Bold"
       d="m 10.718425,1031.1859 q 0,-0.2348 0.265329,-0.2812 l 0,-0.014 q -0.265329,-0.046 -0.265329,-0.2812 l 0,-0.3764 q 0,-0.092 -0.06463,-0.1349 -0.0635,-0.043 -0.225643,-0.044 l 0,-0.1689 q 0.497776,0.01 0.497776,0.3322 l 0,0.3776 q 0,0.2143 0.383254,0.2143 l 0,0.1758 q -0.383254,0 -0.383254,0.2143 l 0,0.3787 q 0,0.3254 -0.497776,0.3322 l 0,-0.1701 q 0.162146,0 0.225643,-0.044 0.06463,-0.043 0.06463,-0.1349 L 10.718425,1031.1859 Z" />
    <path
       inkscape:connector-curvature="0"
       id="path1736"
       style="font-size:2.3665688px;font-style:normal;font-variant:normal;font-weight:bold;font-stretch:normal;text-align:start;line-height:125%;letter-spacing:0px;word-spacing:0px;writing-mode:lr-tb;text-anchor:start;fill:#ffffff;fill-opacity:1;stroke:none;font-family:Droid Sans Mono;-inkscape-font-specification:Droid Sans Mono Bold"
       d="m 4.2124575,1014.0394 -0.203377,0 0,-1.055 q 0,-0.141 0.00924,-0.4171 -0.045066,0.05 -0.1398217,0.1305 l -0.1698661,0.1399 -0.1120884,-0.1422 0.4425761,-0.3455 0.1733326,0 L 4.2124575,1014.0394 Z" />
    <path
       inkscape:connector-curvature="0"
       id="path1738"
       style="font-size:2.3665688px;font-style:normal;font-variant:normal;font-weight:bold;font-stretch:normal;text-align:start;line-height:125%;letter-spacing:0px;word-spacing:0px;writing-mode:lr-tb;text-anchor:start;fill:#ffffff;fill-opacity:1;stroke:none;font-family:Droid Sans Mono;-inkscape-font-specification:Droid Sans Mono Bold"
       d="m 4.571834,1016.9976 -1.0527072,0 0,-0.1802 0.404443,-0.4403 q 0.2253324,-0.2461 0.2969766,-0.3663 0.071644,-0.1213 0.071644,-0.2669 0,-0.1306 -0.073955,-0.2057 -0.0728,-0.076 -0.1975992,-0.076 -0.1848882,0 -0.3674653,0.1583 l -0.1178662,-0.1375 q 0.2218658,-0.1987 0.4876426,-0.1987 0.2241769,0 0.3535986,0.1224 0.1294217,0.1225 0.1294217,0.3294 0,0.1375 -0.068178,0.2819 -0.068178,0.1445 -0.3362654,0.4334 l -0.3247098,0.3455 0,0.01 0.7950192,0 L 4.571834,1016.9976 Z" />
    <path
       inkscape:connector-curvature="0"
       id="path1740"
       style="font-size:2.3665688px;font-style:normal;font-variant:normal;font-weight:bold;font-stretch:normal;text-align:start;line-height:125%;letter-spacing:0px;word-spacing:0px;writing-mode:lr-tb;text-anchor:start;fill:#ffffff;fill-opacity:1;stroke:none;font-family:Droid Sans Mono;-inkscape-font-specification:Droid Sans Mono Bold"
       d="m 4.1385023,1019.0661 0,0.01 q 0.4171539,0.054 0.4171539,0.4021 0,0.2346 -0.159466,0.3698 -0.1594661,0.1341 -0.4610649,0.1341 -0.2796434,0 -0.4471983,-0.091 l 0,-0.1965 q 0.2126214,0.111 0.4425761,0.111 0.4090651,0 0.4090651,-0.334 0,-0.2981 -0.440265,-0.2981 l -0.1536883,0 0,-0.1745 0.1536883,0 q 0.1848882,0 0.2865767,-0.088 0.1016885,-0.088 0.1016885,-0.2323 0,-0.1179 -0.078577,-0.186 -0.078577,-0.069 -0.2103103,-0.069 -0.2056881,0 -0.3975096,0.1398 l -0.1063107,-0.1444 q 0.216088,-0.1733 0.5038203,-0.1733 0.2380435,0 0.3709319,0.1144 0.1340439,0.1144 0.1340439,0.305 0,0.1595 -0.094755,0.267 Q 4.3141461,1019.036 4.1385023,1019.0661 Z" />
    <path
       inkscape:connector-curvature="0"
       id="path1742"
       style="font-size:2.3665688px;font-style:normal;font-variant:normal;font-weight:bold;font-stretch:normal;text-align:start;line-height:125%;letter-spacing:0px;word-spacing:0px;writing-mode:lr-tb;text-anchor:start;fill:#ffffff;fill-opacity:1;stroke:none;font-family:Droid Sans Mono;-inkscape-font-specification:Droid Sans Mono Bold"
       d="m 4.6377004,1022.535 -0.2461324,0 0,0.3791 -0.203377,0 0,-0.3791 -0.7811526,0 0,-0.1837 0.767286,-1.1359 0.2172436,0 0,1.1278 0.2461324,0 L 4.6377004,1022.535 z m -0.4495094,-0.1918 0,-0.4114 q 0,-0.2033 0.015022,-0.4992 l -0.0104,0 q -0.0416,0.1179 -0.1039996,0.208 L 3.613882,1022.3432 4.188191,1022.3432 Z" />
    <path
       inkscape:connector-curvature="0"
       id="path1744"
       style="font-size:2.3665688px;font-style:normal;font-variant:normal;font-weight:bold;font-stretch:normal;text-align:start;line-height:125%;letter-spacing:0px;word-spacing:0px;writing-mode:lr-tb;text-anchor:start;fill:#ffffff;fill-opacity:1;stroke:none;font-family:Droid Sans Mono;-inkscape-font-specification:Droid Sans Mono Bold"
       d="m 3.5353046,1025.8041 0,-0.1988 q 0.1663993,0.111 0.4159984,0.111 0.3882652,0 0.3882652,-0.3629 0,-0.3397 -0.3975096,-0.3397 -0.1028441,0 -0.2669323,0.03 l -0.1039997,-0.066 0.063555,-0.795 0.7973303,0 0,0.1918 -0.6147533,0 -0.045066,0.4842 q 0.1236439,-0.023 0.2415101,-0.023 0.2426658,0 0.3917319,0.1329 0.1502216,0.1318 0.1502216,0.3617 0,0.2704 -0.159466,0.4183 -0.1594661,0.1468 -0.4495094,0.1468 Q 3.6878373,1025.8954 3.5353046,1025.8041 Z" />
    <path
       inkscape:connector-curvature="0"
       id="path1746"
       style="font-size:2.3665688px;font-style:normal;font-variant:normal;font-weight:bold;font-stretch:normal;text-align:start;line-height:125%;letter-spacing:0px;word-spacing:0px;writing-mode:lr-tb;text-anchor:start;fill:#ffffff;fill-opacity:1;stroke:none;font-family:Droid Sans Mono;-inkscape-font-specification:Droid Sans Mono Bold"
       d="m 4.4516566,1027.1388 0,0.1791 q -0.082044,-0.028 -0.1918215,-0.028 -0.2588434,0 -0.3894207,0.163 -0.1294217,0.1629 -0.1409772,0.5165 l 0.013867,0 q 0.1097773,-0.1964 0.3547542,-0.1964 0.2253325,0 0.3524431,0.1375 0.1282662,0.1375 0.1282662,0.3755 0,0.2635 -0.1398217,0.416 -0.1386662,0.1514 -0.3732431,0.1514 -0.2519101,0 -0.4021318,-0.1941 -0.1490661,-0.1953 -0.1490661,-0.5512 0,-0.9915 0.7383972,-0.9915 Q 4.3730792,1027.1168 4.4516566,1027.1388 z m -0.076266,1.1474 q 0,-0.1675 -0.079733,-0.2577 -0.078577,-0.09 -0.2253324,-0.09 -0.146755,0 -0.2461324,0.094 -0.099377,0.094 -0.099377,0.2138 0,0.1756 0.0936,0.3039 0.0936,0.1271 0.2449768,0.1271 0.146755,0 0.2287992,-0.1017 Q 4.3753903,1028.4734 4.3753903,1028.2862 Z" />
    <path
       inkscape:connector-curvature="0"
       id="path1748"
       style="font-size:2.3665688px;font-style:normal;font-variant:normal;font-weight:bold;font-stretch:normal;text-align:start;line-height:125%;letter-spacing:0px;word-spacing:0px;writing-mode:lr-tb;text-anchor:start;fill:#ffffff;fill-opacity:1;stroke:none;font-family:Droid Sans Mono;-inkscape-font-specification:Droid Sans Mono Bold"
       d="m 3.7225039,1031.7887 0.6505753,-1.4976 -0.8712856,0 0,-0.1918 1.0862181,0 0,0.1675 -0.6413309,1.5219 L 3.7225039,1031.7887 Z" />
  </g>
</svg>
