<?xml version="1.0" encoding="UTF-8" standalone="no"?>
<!-- Created with Inkscape (http://www.inkscape.org/) -->

<svg
   xmlns:dc="http://purl.org/dc/elements/1.1/"
   xmlns:cc="http://creativecommons.org/ns#"
   xmlns:rdf="http://www.w3.org/1999/02/22-rdf-syntax-ns#"
   xmlns:svg="http://www.w3.org/2000/svg"
   xmlns="http://www.w3.org/2000/svg"
   xmlns:xlink="http://www.w3.org/1999/xlink"
   xmlns:sodipodi="http://sodipodi.sourceforge.net/DTD/sodipodi-0.dtd"
   xmlns:inkscape="http://www.inkscape.org/namespaces/inkscape"
   width="48"
   height="48"
   id="svg2"
   version="1.1"
   inkscape:version="0.48+devel r12487"
   sodipodi:docname="emerald-theme-manager.svg">
  <defs
     id="defs4">
    <linearGradient
       inkscape:collect="always"
       id="linearGradient4160">
      <stop
         style="stop-color:#ffffff;stop-opacity:1;"
         offset="0"
         id="stop4162" />
      <stop
         style="stop-color:#ffffff;stop-opacity:0;"
         offset="1"
         id="stop4164" />
    </linearGradient>
    <linearGradient
       inkscape:collect="always"
       id="linearGradient4132">
      <stop
         style="stop-color:#000000;stop-opacity:1;"
         offset="0"
         id="stop4134" />
      <stop
         style="stop-color:#000000;stop-opacity:0;"
         offset="1"
         id="stop4136" />
    </linearGradient>
    <linearGradient
       id="linearGradient1414">
      <stop
         style="stop-color:#2c3e50;stop-opacity:1"
         offset="0"
         id="stop1416" />
      <stop
         id="stop1418"
         offset="1"
         style="stop-color:#3d5670;stop-opacity:1" />
    </linearGradient>
    <linearGradient
       inkscape:collect="always"
       xlink:href="#linearGradient1414"
       id="linearGradient1398"
       x1="76.279137"
       y1="-1044.0126"
       x2="76.279137"
       y2="-995.98181"
       gradientUnits="userSpaceOnUse"
       gradientTransform="translate(-52.721087,-8.350115)" />
    <linearGradient
       inkscape:collect="always"
       xlink:href="#linearGradient4132"
       id="linearGradient4118"
       x1="-52.408283"
       y1="23.239002"
       x2="-49.757126"
       y2="22.319525"
       gradientUnits="userSpaceOnUse" />
    <linearGradient
       inkscape:collect="always"
       xlink:href="#linearGradient4132"
       id="linearGradient4128"
       x1="-25.367456"
       y1="1027.0389"
       x2="-22.692749"
       y2="1028.3947"
       gradientUnits="userSpaceOnUse"
       gradientTransform="matrix(2.0602678,0,0,2.0602678,80.051595,-1086.3568)" />
    <linearGradient
       inkscape:collect="always"
       xlink:href="#linearGradient4132"
       id="linearGradient4138"
       x1="-34.471455"
       y1="1030.9722"
       x2="-31.687223"
       y2="1028.2322"
       gradientUnits="userSpaceOnUse"
       gradientTransform="matrix(2.0602678,0,0,2.0602678,80.051595,-1086.3568)" />
    <linearGradient
       inkscape:collect="always"
       xlink:href="#linearGradient4132"
       id="linearGradient4156"
       x1="-31.33367"
       y1="1021.6915"
       x2="-28.549437"
       y2="1021.6915"
       gradientUnits="userSpaceOnUse"
       gradientTransform="matrix(2.0602678,0,0,2.0602678,80.051595,-1086.3568)" />
    <linearGradient
       inkscape:collect="always"
       xlink:href="#linearGradient4160"
       id="linearGradient4166"
       x1="-29.919456"
       y1="1021.9124"
       x2="-31.844225"
       y2="1021.3967"
       gradientUnits="userSpaceOnUse"
       gradientTransform="matrix(2.0602678,0,0,2.0602678,80.051595,-1086.3568)" />
    <linearGradient
       inkscape:collect="always"
       xlink:href="#linearGradient4132"
       id="linearGradient4176"
       x1="-24.538263"
       y1="1021.4604"
       x2="-22.788845"
       y2="1020.6486"
       gradientUnits="userSpaceOnUse"
       gradientTransform="matrix(2.0602678,0,0,2.0602678,80.051595,-1086.3568)" />
  </defs>
  <sodipodi:namedview
     id="base"
     pagecolor="#ffffff"
     bordercolor="#666666"
     borderopacity="1.0"
     inkscape:pageopacity="0.0"
     inkscape:pageshadow="2"
     inkscape:zoom="8"
     inkscape:cx="13.186902"
     inkscape:cy="23.109255"
     inkscape:document-units="px"
     inkscape:current-layer="layer1"
     showgrid="false"
     inkscape:window-width="1366"
     inkscape:window-height="715"
     inkscape:window-x="0"
     inkscape:window-y="30"
     inkscape:window-maximized="1">
    <inkscape:grid
       type="xygrid"
       id="grid3043" />
  </sodipodi:namedview>
  <metadata
     id="metadata7">
    <rdf:RDF>
      <cc:Work
         rdf:about="">
        <dc:format>image/svg+xml</dc:format>
        <dc:type
           rdf:resource="http://purl.org/dc/dcmitype/StillImage" />
        <dc:title />
      </cc:Work>
    </rdf:RDF>
  </metadata>
  <g
     inkscape:label="Capa 1"
     inkscape:groupmode="layer"
     id="layer1"
     transform="translate(0,-1004.3622)">
    <rect
       style="fill:url(#linearGradient1398);fill-opacity:1;stroke:none"
       id="rect2991-1"
       width="48"
       height="48"
       x="-2.7026367e-06"
       y="-1052.3622"
       ry="1.9445436"
       transform="scale(1,-1)" />
    <path
       style="fill:#000000;fill-opacity:0.05882353;stroke:none"
       d="m 12.336412,1014.1623 -0.0039,0.01 -0.04884,0 -6.0642543,7.353 -2.4694645,2.9694 0.019537,0 -0.013676,0.016 -0.00586,0 0.00391,0 -0.00391,0 20.2480468,20.4515 0.002,0 0.002,0 20.248046,-20.4516 -0.0039,0 0.0039,0 -0.0059,0 -0.01368,-0.016 0.01954,0 -2.469464,-2.9694 -6.064255,-7.353 -0.04884,0 -0.0039,-0.01 -1.680173,0.01 -19.964762,0 -1.682127,-0.01 z"
       id="path4161"
       inkscape:connector-curvature="0" />
    <path
       inkscape:connector-curvature="0"
       id="path4159"
       d="m 12.336412,1013.7623 -0.0039,0.01 -0.04884,0 -6.0642543,7.353 -2.4694645,2.9694 0.019537,0 -0.013676,0.016 -0.00586,0 0.00391,0 -0.00391,0 20.2480468,20.4515 0.002,0 0.002,0 20.248046,-20.4516 -0.0039,0 0.0039,0 -0.0059,0 -0.01368,-0.016 0.01954,0 -2.469464,-2.9694 -6.064255,-7.353 -0.04884,0 -0.0039,-0.01 -1.680173,0.01 -19.964762,0 -1.682127,-0.01 z"
       style="fill:#000000;fill-opacity:0.11764706;stroke:none" />
    <path
       style="fill:#000000;fill-opacity:0.23529412;stroke:none"
       d="m 12.336412,1013.3623 -0.0039,0.01 -0.04884,0 -6.0642543,7.353 -2.4694645,2.9694 0.019537,0 -0.013676,0.016 -0.00586,0 0.00391,0 -0.00391,0 20.2480468,20.4515 0.002,0 0.002,0 20.248046,-20.4516 -0.0039,0 0.0039,0 -0.0059,0 -0.01368,-0.016 0.01954,0 -2.469464,-2.9694 -6.064255,-7.353 -0.04884,0 -0.0039,-0.01 -1.680173,0.01 -19.964762,0 -1.682127,-0.01 z"
       id="path4106"
       inkscape:connector-curvature="0" />
    <path
       inkscape:connector-curvature="0"
       style="fill:#000000;fill-opacity:1;stroke:none"
       d="m -2.2973633e-6,1049.3622 0,1.0625 c 0,1.0773 0.8602229973633,1.9375 1.9374999973633,1.9375 l 44.1250003,0 c 1.077277,0 1.937505,-0.8602 1.937505,-1.9375 l 0,-1.0625 c 0,1.0773 -0.860228,1.9375 -1.937505,1.9375 l -44.1250003,0 C 0.8602207,1051.2997 -2.2973633e-6,1050.4395 -2.2973633e-6,1049.3622 Z"
       id="rect846" />
    <path
       inkscape:connector-curvature="0"
       style="fill:#ffffff;fill-opacity:0.5372549;stroke:none"
       d="m 2.5312477,1005.0185 c -0.917088,0 -1.671147,0.6395 -1.84375,1.5 0.335612,-0.2799 0.774512,-0.4375 1.25,-0.4375 l 44.1250003,0 c 0.475488,0 0.914388,0.1576 1.250005,0.4375 -0.172608,-0.8605 -0.926667,-1.5 -1.843755,-1.5 L 2.5312477,1005.0185 Z"
       id="path7515" />
    <path
       inkscape:connector-curvature="0"
       style="fill:#000000;fill-opacity:0.39215686;stroke:none"
       d="m 1.9374977,1004.3622 c -1.077277,0 -1.9374999973633,0.8602 -1.9374999973633,1.9375 l 0,43.0625 c 0,0.7934 0.4800239973633,1.449 1.1562499973633,1.75 -0.309342,-0.3333 -0.5,-0.7824 -0.5,-1.2812 l 0,-42.9375 c 0,-1.0482 0.826899,-1.875 1.875,-1.875 l 42.9375003,0 c 1.048101,0 1.875005,0.8268 1.875005,1.875 l 0,42.9375 c 0,0.4988 -0.190663,0.9479 -0.500005,1.2812 0.676225,-0.301 1.156255,-0.9566 1.156255,-1.75 l 0,-43.0625 c 0,-1.0773 -0.860228,-1.9375 -1.937505,-1.9375 L 1.9374977,1004.3622 Z"
       id="rect4280-0" />
    <g
       id="g4089"
       transform="matrix(1.0003105,0,0,1,-0.0074522,4.4152594e-6)">
      <path
         inkscape:connector-curvature="0"
         id="path4073"
         d="m 12.287688,1012.9683 -8.5313486,10.3438 -3.25e-5,0 1.86e-5,0 2.05e-5,0 20.243674,20.4499 20.24367,-20.4499 2.4e-5,0 -1.6e-5,0 -8.531347,-10.3438 -23.424663,0 z"
         style="fill:#50d991;fill-opacity:1;stroke:none" />
      <path
         sodipodi:type="star"
         style="fill:#47d586;fill-opacity:1;stroke:none"
         id="path4086"
         sodipodi:sides="3"
         sodipodi:cx="-49.460674"
         sodipodi:cy="21.597841"
         sodipodi:r1="3.4418893"
         sodipodi:r2="1.7209446"
         sodipodi:arg1="1.5707963"
         sodipodi:arg2="2.6179939"
         inkscape:flatsided="true"
         inkscape:rounded="0"
         inkscape:randomized="0"
         d="m -49.460674,25.039731 -2.980764,-5.162834 5.961527,0 z"
         transform="matrix(3.194008,0,0,3.9610243,181.97779,944.57921)"
         inkscape:transform-center-y="3.4083444" />
      <path
         inkscape:connector-curvature="0"
         id="path4091"
         d="m 14.485117,1023.304 -0.0057,0 0.0095,0 -0.0038,0 z m -0.0057,0 -10.7231306,0 20.2265856,20.4135 -9.503398,-20.4054 z"
         style="fill:#63e89e;fill-opacity:1;stroke:none" />
      <path
         inkscape:connector-curvature="0"
         style="fill:#4cc585;fill-opacity:1;stroke:none"
         d="m 33.514821,1023.304 0.0057,0 -0.0095,0 0.0038,0 z m 0.0057,0 10.723132,0 -20.22662,20.4135 9.503431,-20.4054 z"
         id="path4096" />
      <path
         sodipodi:nodetypes="ccccc"
         inkscape:connector-curvature="0"
         id="path4098"
         d="m 18.482434,1013.0297 -4.003007,10.2491 19.041167,0 -4.02097,-10.295 z"
         style="fill:#70e9a7;fill-opacity:1;stroke:none" />
      <path
         sodipodi:nodetypes="cccccccccc"
         id="path4102"
         d="m 33.514821,1023.2882 0.0057,0 -0.0095,0 z m 0.0057,0 10.723132,0 -8.583803,-10.326 -6.163719,0.021 4.024333,10.2955 z"
         style="fill:#5bdd9a;fill-opacity:1;stroke:none"
         inkscape:connector-curvature="0" />
      <path
         inkscape:connector-curvature="0"
         style="fill:#98f7c2;fill-opacity:1;stroke:none"
         d="m 14.485197,1023.2882 -0.0057,0 0.0095,0 z m -0.0057,0 -10.7231316,0 8.5838026,-10.326 6.163722,0.021 -4.024334,10.2955 z"
         id="path4107"
         sodipodi:nodetypes="cccccccccc" />
      <path
         inkscape:transform-center-y="3.4083444"
         transform="matrix(3.194008,0,0,3.9610243,181.97779,944.57921)"
         d="m -49.460674,25.039731 -2.980764,-5.162834 5.961527,0 z"
         inkscape:randomized="0"
         inkscape:rounded="0"
         inkscape:flatsided="true"
         sodipodi:arg2="2.6179939"
         sodipodi:arg1="1.5707963"
         sodipodi:r2="1.7209446"
         sodipodi:r1="3.4418893"
         sodipodi:cy="21.597841"
         sodipodi:cx="-49.460674"
         sodipodi:sides="3"
         id="path4110"
         style="opacity:0.17000002;fill:url(#linearGradient4118);fill-opacity:1;stroke:none"
         sodipodi:type="star" />
      <path
         sodipodi:nodetypes="ccccccccc"
         id="path4120"
         d="m 33.514821,1023.304 0.0057,0 -0.0095,0 z m 0.0057,0 7.625801,0 -17.129289,20.4135 9.503431,-20.4054 z"
         style="opacity:0.31000001;fill:url(#linearGradient4128);fill-opacity:1;stroke:none"
         inkscape:connector-curvature="0" />
      <path
         style="fill:url(#linearGradient4138);fill-opacity:1;stroke:none"
         d="m 14.485117,1023.304 -0.0057,0 0.0095,0 -0.0038,0 z m -0.0057,0 -10.7231306,0 20.2265856,20.4135 -9.503398,-20.4054 z"
         id="path4130"
         inkscape:connector-curvature="0" />
      <path
         style="opacity:0.17000002;fill:url(#linearGradient4156);fill-opacity:1;stroke:none"
         d="m 18.482434,1013.0297 -4.003007,10.2491 19.041167,0 -4.02097,-10.295 z"
         id="path4140"
         inkscape:connector-curvature="0"
         sodipodi:nodetypes="ccccc" />
      <path
         sodipodi:nodetypes="cccccccccc"
         id="path4158"
         d="m 14.485197,1023.2882 -0.0057,0 0.0095,0 z m -0.0057,0 -10.7231316,0 8.5838026,-10.326 6.163722,0.021 -4.024334,10.2955 z"
         style="fill:url(#linearGradient4166);fill-opacity:1;stroke:none"
         inkscape:connector-curvature="0" />
      <path
         inkscape:connector-curvature="0"
         style="opacity:0.18000004;fill:url(#linearGradient4176);fill-opacity:1;stroke:none"
         d="m 33.514821,1023.2882 0.0057,0 -0.0095,0 z m 0.0057,0 10.723132,0 -8.583803,-10.326 -6.163719,0.021 4.024333,10.2955 z"
         id="path4168"
         sodipodi:nodetypes="cccccccccc" />
    </g>
  </g>
</svg>
