<?xml version="1.0" encoding="UTF-8" standalone="no"?>
<!-- Created with Inkscape (http://www.inkscape.org/) -->

<svg
   xmlns:dc="http://purl.org/dc/elements/1.1/"
   xmlns:cc="http://creativecommons.org/ns#"
   xmlns:rdf="http://www.w3.org/1999/02/22-rdf-syntax-ns#"
   xmlns:svg="http://www.w3.org/2000/svg"
   xmlns="http://www.w3.org/2000/svg"
   xmlns:xlink="http://www.w3.org/1999/xlink"
   xmlns:sodipodi="http://sodipodi.sourceforge.net/DTD/sodipodi-0.dtd"
   xmlns:inkscape="http://www.inkscape.org/namespaces/inkscape"
   width="48"
   height="48"
   id="svg6393"
   version="1.1"
   inkscape:version="0.48+devel r12923"
   sodipodi:docname="agenda.svg"
   inkscape:export-filename="/home/uri/workspace/Nitrux/res/drawable-xhdpi/gtasks.png"
   inkscape:export-xdpi="180"
   inkscape:export-ydpi="180">
  <defs
     id="defs6395">
    <linearGradient
       inkscape:collect="always"
       id="linearGradient1453">
      <stop
         style="stop-color:#fbf3c2;stop-opacity:1"
         offset="0"
         id="stop1455" />
      <stop
         style="stop-color:#fdfad1;stop-opacity:1"
         offset="1"
         id="stop1457" />
    </linearGradient>
    <linearGradient
       inkscape:collect="always"
       xlink:href="#linearGradient1453"
       id="linearGradient1459"
       x1="427.78571"
       y1="-757.43359"
       x2="427.78571"
       y2="-708.50507"
       gradientUnits="userSpaceOnUse" />
  </defs>
  <sodipodi:namedview
     id="base"
     pagecolor="#ffffff"
     bordercolor="#666666"
     borderopacity="1.0"
     inkscape:pageopacity="0.0"
     inkscape:pageshadow="2"
     inkscape:zoom="11.2875"
     inkscape:cx="12.405705"
     inkscape:cy="26.216903"
     inkscape:document-units="px"
     inkscape:current-layer="layer1"
     showgrid="false"
     fit-margin-top="0"
     fit-margin-left="0"
     fit-margin-right="0"
     fit-margin-bottom="0"
     inkscape:window-width="1366"
     inkscape:window-height="669"
     inkscape:window-x="0"
     inkscape:window-y="26"
     inkscape:window-maximized="1" />
  <metadata
     id="metadata6398">
    <rdf:RDF>
      <cc:Work
         rdf:about="">
        <dc:format>image/svg+xml</dc:format>
        <dc:type
           rdf:resource="http://purl.org/dc/dcmitype/StillImage" />
        <dc:title />
      </cc:Work>
    </rdf:RDF>
  </metadata>
  <g
     inkscape:label="Capa 1"
     inkscape:groupmode="layer"
     id="layer1"
     transform="translate(-401.71429,-708.36218)">
    <rect
       style="fill:url(#linearGradient1459);fill-opacity:1;stroke:none"
       id="rect2991-1"
       width="48"
       height="48"
       x="401.71429"
       y="-756.36218"
       ry="1.9445436"
       transform="scale(1,-1)" />
    <path
       inkscape:connector-curvature="0"
       style="fill:#000000;fill-opacity:1;stroke:none"
       d="m 401.71429,753.36219 0,1.0625 c 0,1.0773 0.86022,1.9375 1.9375,1.9375 l 44.125,0 c 1.07728,0 1.93751,-0.8602 1.93751,-1.9375 l 0,-1.0625 c 0,1.0773 -0.86023,1.9375 -1.93751,1.9375 l -44.125,0 C 402.57451,755.29969 401.71429,754.43949 401.71429,753.36219 Z"
       id="rect846" />
    <path
       inkscape:connector-curvature="0"
       style="fill:#000000;fill-opacity:0.39215686;stroke:none"
       d="m 403.65179,708.36219 c -1.07728,0 -1.9375,0.8602 -1.9375,1.9375 l 0,43.0625 c 0,0.7934 0.48002,1.449 1.15625,1.75 -0.30934,-0.3333 -0.5,-0.7824 -0.5,-1.2812 l 0,-42.9375 c 0,-1.0482 0.8269,-1.875 1.875,-1.875 l 42.9375,0 c 1.0481,0 1.87501,0.8268 1.87501,1.875 l 0,42.9375 c 0,0.4988 -0.19067,0.9479 -0.50001,1.2812 0.67623,-0.301 1.15626,-0.9566 1.15626,-1.75 l 0,-43.0625 c 0,-1.0773 -0.86023,-1.9375 -1.93751,-1.9375 L 403.65179,708.36219 Z"
       id="rect4280-0" />
    <path
       inkscape:connector-curvature="0"
       style="fill:#ffffff;fill-opacity:0.5372549;stroke:none"
       d="m 404.24554,709.01849 c -0.91709,0 -1.67115,0.6395 -1.84375,1.5 0.33561,-0.2799 0.77451,-0.4375 1.25,-0.4375 l 44.125,0 c 0.47549,0 0.91439,0.1576 1.25001,0.4375 -0.17261,-0.8605 -0.92667,-1.5 -1.84376,-1.5 L 404.24554,709.01849 Z"
       id="path7515" />
    <path
       style="fill:#4d4d4d;fill-opacity:0.35371178;stroke:none"
       d="m 402.37054,714.17468 0,0.375 46.6875,0 0,-0.375 L 402.37054,714.17468 Z"
       id="path1494" />
    <path
       style="fill:#4d4d4d;fill-opacity:0.35371178;stroke:none"
       d="m 402.37054,720.17468 0,0.375 46.6875,0 0,-0.375 L 402.37054,720.17468 Z"
       id="path1492" />
    <path
       style="fill:#4d4d4d;fill-opacity:0.35371178;stroke:none"
       d="m 402.37054,726.17468 0,0.375 46.6875,0 0,-0.375 L 402.37054,726.17468 Z"
       id="path1490" />
    <path
       style="fill:#4d4d4d;fill-opacity:0.35371178;stroke:none"
       d="m 402.37054,732.17468 0,0.375 46.6875,0 0,-0.375 L 402.37054,732.17468 Z"
       id="path1488" />
    <path
       style="fill:#4d4d4d;fill-opacity:0.35371178;stroke:none"
       d="m 402.37054,738.17468 0,0.375 46.6875,0 0,-0.375 L 402.37054,738.17468 Z"
       id="path1486" />
    <path
       style="fill:#4d4d4d;fill-opacity:0.35371178;stroke:none"
       d="m 402.37054,744.17468 0,0.375 46.6875,0 0,-0.375 L 402.37054,744.17468 Z"
       id="path1484" />
    <path
       style="fill:#4d4d4d;fill-opacity:0.35371178;stroke:none"
       d="m 402.37054,750.17468 0,0.375 46.6875,0 0,-0.375 L 402.37054,750.17468 Z"
       id="rect1425" />
    <path
       style="fill:#666666;fill-opacity:0.29694322;stroke:none"
       d="M 8.09375 0.65625 L 8.09375 48 L 8.46875 48 L 8.46875 0.65625 L 8.09375 0.65625 z M 9.34375 0.65625 L 9.34375 48 L 9.71875 48 L 9.71875 0.65625 L 9.34375 0.65625 z "
       transform="translate(401.71429,708.36218)"
       id="rect1421" />
    <path
       style="fill:#666666;fill-opacity:1;stroke:none"
       d="m 405.13659,715.86218 -0.53425,0.53425 0.96576,0.96575 -0.96576,0.96575 0.53425,0.53425 0.96575,-0.96575 0.96576,0.96575 0.53424,-0.53425 -0.96575,-0.96575 0.96575,-0.96575 -0.53424,-0.53425 -0.96576,0.96575 L 405.13659,715.86218 Z"
       id="rect1472"
       inkscape:connector-curvature="0" />
    <path
       style="fill:#666666;fill-opacity:1;stroke:none"
       d="m 407.48583,727.86218 -1.95146,1.95145 -0.81553,-0.81552 -0.52427,0.52427 0.81553,0.81553 0.52427,0.52427 0.52428,-0.52427 1.95145,-1.95146 L 407.48583,727.86218 Z"
       id="rect1476"
       inkscape:connector-curvature="0" />
    <path
       inkscape:connector-curvature="0"
       id="path1496"
       d="m 407.48583,721.86218 -1.95146,1.95145 -0.81553,-0.81552 -0.52427,0.52427 0.81553,0.81553 0.52427,0.52427 0.52428,-0.52427 1.95145,-1.95146 L 407.48583,721.86218 Z"
       style="fill:#666666;fill-opacity:1;stroke:none" />
    <path
       inkscape:connector-curvature="0"
       id="path1498"
       d="m 405.13659,733.86218 -0.53425,0.53425 0.96576,0.96575 -0.96576,0.96575 0.53425,0.53425 0.96575,-0.96575 0.96576,0.96575 0.53424,-0.53425 -0.96575,-0.96575 0.96575,-0.96575 -0.53424,-0.53425 -0.96576,0.96575 L 405.13659,733.86218 Z"
       style="fill:#666666;fill-opacity:1;stroke:none" />
    <path
       inkscape:connector-curvature="0"
       id="path1500"
       d="m 407.48583,745.86218 -1.95146,1.95145 -0.81553,-0.81552 -0.52427,0.52427 0.81553,0.81553 0.52427,0.52427 0.52428,-0.52427 1.95145,-1.95146 L 407.48583,745.86218 Z"
       style="fill:#666666;fill-opacity:1;stroke:none" />
    <path
       style="fill:#666666;fill-opacity:1;stroke:none"
       d="m 405.13659,739.86218 -0.53425,0.53425 0.96576,0.96575 -0.96576,0.96575 0.53425,0.53425 0.96575,-0.96575 0.96576,0.96575 0.53424,-0.53425 -0.96575,-0.96575 0.96575,-0.96575 -0.53424,-0.53425 -0.96576,0.96575 L 405.13659,739.86218 Z"
       id="path1504"
       inkscape:connector-curvature="0" />
    <path
       inkscape:connector-curvature="0"
       id="path1654"
       style="font-size:2.50919676px;font-style:normal;font-variant:normal;font-weight:bold;font-stretch:normal;text-align:start;line-height:125%;letter-spacing:0px;word-spacing:0px;writing-mode:lr-tb;text-anchor:start;fill:#706f6c;fill-opacity:1;stroke:none;font-family:Helvetica;-inkscape-font-specification:Helvetica Bold"
       d="m 414.44652,717.99451 -0.50937,-1.80161 0.40147,0 q 0.0979,0.41653 0.16812,0.73269 0.0427,0.18568 0.0753,0.3538 0.0326,0.16811 0.0427,0.23084 0.0326,-0.18819 0.0678,-0.37387 0.0502,-0.26848 0.18819,-0.94346 l 0.39896,0 q 0.14553,0.68752 0.19823,0.94095 0.0351,0.17314 0.0702,0.37638 0.0326,-0.16811 0.0753,-0.36383 0.0452,-0.19572 0.22332,-0.9535 l 0.3814,0 -0.50686,1.80161 -0.36133,0 q -0.0401,-0.1907 -0.14051,-0.68 -0.0402,-0.20073 -0.0778,-0.39143 -0.0376,-0.19321 -0.0627,-0.33372 -0.0301,0.17313 -0.0552,0.31114 -0.0401,0.20575 -0.0778,0.39143 -0.0753,0.35129 -0.14805,0.70258 L 414.44652,717.99451 Z" />
    <path
       inkscape:connector-curvature="0"
       id="path1656"
       style="font-size:2.50919676px;font-style:normal;font-variant:normal;font-weight:bold;font-stretch:normal;text-align:start;line-height:125%;letter-spacing:0px;word-spacing:0px;writing-mode:lr-tb;text-anchor:start;fill:#706f6c;fill-opacity:1;stroke:none;font-family:Helvetica;-inkscape-font-specification:Helvetica Bold"
       d="m 417.41302,717.0109 0.002,0.72265 q 0,0.11041 0.0201,0.15306 0.0201,0.0427 0.0577,0.0552 l 0,0.0527 -0.37889,0 q -0.0251,-0.0753 -0.0326,-0.15808 -0.0853,0.0903 -0.15557,0.12797 -0.11542,0.0652 -0.27601,0.0652 -0.16812,0 -0.27852,-0.0903 -0.12797,-0.10538 -0.12797,-0.29859 0,-0.18819 0.10288,-0.29358 0.10538,-0.10789 0.28605,-0.13298 l 0.31364,-0.0477 q 0.0728,-0.01 0.0979,-0.0351 0.0276,-0.0276 0.0276,-0.0702 0,-0.0979 -0.0828,-0.13299 -0.0527,-0.0226 -0.15055,-0.0226 -0.11542,0 -0.16812,0.0627 -0.0376,0.0452 -0.0452,0.12295 l -0.33874,0 q 0.0251,-0.27602 0.20826,-0.38642 0.13299,-0.0803 0.38642,-0.0803 0.20073,0 0.33623,0.0677 Q 417.41302,716.79009 417.41302,717.0109 z m -0.34126,0.50435 0,-0.17063 q -0.0251,0.0201 -0.0803,0.0402 -0.0552,0.0176 -0.16812,0.0351 -0.1104,0.0176 -0.15808,0.0502 -0.0703,0.0477 -0.0703,0.14805 0,0.0828 0.0552,0.12546 0.0452,0.0351 0.10789,0.0351 0.12546,0 0.2183,-0.0728 Q 417.07176,717.63318 417.07176,717.51525 Z" />
    <path
       inkscape:connector-curvature="0"
       id="path1658"
       style="font-size:2.50919676px;font-style:normal;font-variant:normal;font-weight:bold;font-stretch:normal;text-align:start;line-height:125%;letter-spacing:0px;word-spacing:0px;writing-mode:lr-tb;text-anchor:start;fill:#706f6c;fill-opacity:1;stroke:none;font-family:Helvetica;-inkscape-font-specification:Helvetica Bold"
       d="m 418.09211,717.57296 0,0.42155 -0.35129,0 0,-1.80161 0.34878,0 0,0.97357 0.44162,-0.50686 0.43158,0 -0.47173,0.5169 0.48678,0.818 -0.42154,0 -0.32118,-0.5721 L 418.09211,717.57296 Z" />
    <path
       inkscape:connector-curvature="0"
       id="path1660"
       style="font-size:2.50919676px;font-style:normal;font-variant:normal;font-weight:bold;font-stretch:normal;text-align:start;line-height:125%;letter-spacing:0px;word-spacing:0px;writing-mode:lr-tb;text-anchor:start;fill:#706f6c;fill-opacity:1;stroke:none;font-family:Helvetica;-inkscape-font-specification:Helvetica Bold"
       d="m 419.96189,717.60307 0.36132,0 q -0.0652,0.22332 -0.24088,0.33373 -0.14804,0.0928 -0.34627,0.0928 -0.30863,0 -0.47424,-0.15808 -0.1907,-0.18318 -0.1907,-0.5721 0,-0.22834 0.0979,-0.39645 0.16059,-0.27852 0.53948,-0.27852 0.25343,0 0.41402,0.138 0.21579,0.18568 0.21579,0.59719 l -0.003,0.0627 -0.91586,0 q 0.0226,0.17815 0.0953,0.25343 0.0753,0.0728 0.22081,0.0728 0.0778,0 0.14052,-0.0376 Q 419.94182,717.67333 419.96189,717.60307 z m -0.52944,-0.409 0.54449,0 q -0.0151,-0.14804 -0.10036,-0.22081 -0.0703,-0.0602 -0.17063,-0.0602 -0.12295,0 -0.1907,0.0728 Q 419.4475,717.05858 419.43245,717.19407 Z" />
    <path
       inkscape:connector-curvature="0"
       id="path1662"
       style="font-size:2.50919676px;font-style:normal;font-variant:normal;font-weight:bold;font-stretch:normal;text-align:start;line-height:125%;letter-spacing:0px;word-spacing:0px;writing-mode:lr-tb;text-anchor:start;fill:#706f6c;fill-opacity:1;stroke:none;font-family:Helvetica;-inkscape-font-specification:Helvetica Bold"
       d="m 422.47356,716.65961 0,1.3349 -0.33624,0 0,-0.18819 q -0.13298,0.22332 -0.41151,0.22332 -0.20826,0 -0.32619,-0.11794 -0.12797,-0.12797 -0.12797,-0.37387 l -0.003,-0.87822 0.3538,0 0,0.82804 q 0,0.14051 0.0728,0.20073 0.0552,0.0452 0.15557,0.0452 0.1079,0 0.17816,-0.0602 0.0928,-0.0803 0.0928,-0.24339 l 0,-0.77033 L 422.47356,716.65961 Z" />
    <path
       inkscape:connector-curvature="0"
       id="path1664"
       style="font-size:2.50919676px;font-style:normal;font-variant:normal;font-weight:bold;font-stretch:normal;text-align:start;line-height:125%;letter-spacing:0px;word-spacing:0px;writing-mode:lr-tb;text-anchor:start;fill:#706f6c;fill-opacity:1;stroke:none;font-family:Helvetica;-inkscape-font-specification:Helvetica Bold"
       d="m 423.13179,717.35717 q 0,0.16561 0.0677,0.26598 0.0803,0.11793 0.23837,0.11793 0.15306,0 0.23085,-0.14303 0.0602,-0.1104 0.0602,-0.26095 0,-0.17816 -0.0652,-0.28354 -0.0778,-0.12546 -0.23587,-0.12546 -0.1656,0 -0.23837,0.13299 Q 423.13179,717.16647 423.13179,717.35717 z m -0.003,-0.69756 0.003,0.19321 q 0.0703,-0.10538 0.138,-0.15306 0.10539,-0.0753 0.26347,-0.0753 0.23586,0 0.38893,0.17062 0.16811,0.18568 0.16811,0.5169 0,0.30361 -0.13048,0.49682 -0.15055,0.22081 -0.43158,0.22081 -0.15808,0 -0.26346,-0.0753 -0.0627,-0.0452 -0.11543,-0.13048 l -0.003,0.69003 -0.35128,0 0,-1.8543 L 423.12928,716.65961 Z" />
    <path
       inkscape:connector-curvature="0"
       id="path1666"
       style="font-size:2.50919676px;font-style:normal;font-variant:normal;font-weight:bold;font-stretch:normal;text-align:start;line-height:125%;letter-spacing:0px;word-spacing:0px;writing-mode:lr-tb;text-anchor:start;fill:#706f6c;fill-opacity:1;stroke:none;font-family:Helvetica;-inkscape-font-specification:Helvetica Bold"
       d="m 425.81832,717.60307 0.36132,0 q -0.0652,0.22332 -0.24088,0.33373 -0.14805,0.0928 -0.34627,0.0928 -0.30863,0 -0.47424,-0.15808 -0.1907,-0.18318 -0.1907,-0.5721 0,-0.22834 0.0979,-0.39645 0.16059,-0.27852 0.53948,-0.27852 0.25343,0 0.41401,0.138 0.21579,0.18568 0.21579,0.59719 l -0.002,0.0627 -0.91586,0 q 0.0226,0.17815 0.0954,0.25343 0.0753,0.0728 0.22081,0.0728 0.0778,0 0.14051,-0.0376 Q 425.79824,717.67333 425.81832,717.60307 z m -0.52945,-0.409 0.5445,0 q -0.015,-0.14804 -0.10037,-0.22081 -0.0703,-0.0602 -0.17062,-0.0602 -0.12295,0 -0.1907,0.0728 Q 425.30393,717.05858 425.28887,717.19407 Z" />
    <path
       inkscape:connector-curvature="0"
       id="path1668"
       style="font-size:2.50919676px;font-style:normal;font-variant:normal;font-weight:bold;font-stretch:normal;text-align:start;line-height:125%;letter-spacing:0px;word-spacing:0px;writing-mode:lr-tb;text-anchor:start;fill:#706f6c;fill-opacity:1;stroke:none;font-family:Helvetica;-inkscape-font-specification:Helvetica Bold"
       d="m 427.50861,717.0109 0.003,0.72265 q 0,0.11041 0.0201,0.15306 0.0201,0.0427 0.0577,0.0552 l 0,0.0527 -0.37889,0 q -0.0251,-0.0753 -0.0326,-0.15808 -0.0853,0.0903 -0.15557,0.12797 -0.11543,0.0652 -0.27601,0.0652 -0.16812,0 -0.27852,-0.0903 -0.12797,-0.10538 -0.12797,-0.29859 0,-0.18819 0.10287,-0.29358 0.10539,-0.10789 0.28605,-0.13298 l 0.31365,-0.0477 q 0.0728,-0.01 0.0979,-0.0351 0.0276,-0.0276 0.0276,-0.0702 0,-0.0979 -0.0828,-0.13299 -0.0527,-0.0226 -0.15055,-0.0226 -0.11543,0 -0.16812,0.0627 -0.0376,0.0452 -0.0452,0.12295 l -0.33874,0 q 0.0251,-0.27602 0.20827,-0.38642 0.13298,-0.0803 0.38641,-0.0803 0.20074,0 0.33623,0.0677 Q 427.50861,716.79009 427.50861,717.0109 z m -0.34125,0.50435 0,-0.17063 q -0.0251,0.0201 -0.0803,0.0402 -0.0552,0.0176 -0.16812,0.0351 -0.1104,0.0176 -0.15808,0.0502 -0.0703,0.0477 -0.0703,0.14805 0,0.0828 0.0552,0.12546 0.0452,0.0351 0.10789,0.0351 0.12546,0 0.2183,-0.0728 Q 427.16736,717.63318 427.16736,717.51525 Z" />
    <path
       inkscape:connector-curvature="0"
       id="path1670"
       style="font-size:2.50919676px;font-style:normal;font-variant:normal;font-weight:bold;font-stretch:normal;text-align:start;line-height:125%;letter-spacing:0px;word-spacing:0px;writing-mode:lr-tb;text-anchor:start;fill:#706f6c;fill-opacity:1;stroke:none;font-family:Helvetica;-inkscape-font-specification:Helvetica Bold"
       d="m 427.82387,717.99451 -0.003,-1.3349 0.33623,0 0.003,0.23085 q 0.0728,-0.13299 0.13048,-0.18317 0.0928,-0.0828 0.23837,-0.0828 l 0.0703,0.005 -0.003,0.35631 q -0.0226,-0.003 -0.0452,-0.003 -0.0201,-0.003 -0.0527,-0.003 -0.18568,0 -0.26346,0.10288 -0.0602,0.0778 -0.0602,0.21579 l 0,0.69505 L 427.82387,717.99451 Z" />
    <path
       inkscape:connector-curvature="0"
       id="path1672"
       style="font-size:2.50919676px;font-style:normal;font-variant:normal;font-weight:bold;font-stretch:normal;text-align:start;line-height:125%;letter-spacing:0px;word-spacing:0px;writing-mode:lr-tb;text-anchor:start;fill:#706f6c;fill-opacity:1;stroke:none;font-family:Helvetica;-inkscape-font-specification:Helvetica Bold"
       d="m 429.16296,716.1929 0,1.80161 -0.35129,0 0,-1.80161 L 429.16296,716.1929 Z" />
    <path
       inkscape:connector-curvature="0"
       id="path1674"
       style="font-size:2.50919676px;font-style:normal;font-variant:normal;font-weight:bold;font-stretch:normal;text-align:start;line-height:125%;letter-spacing:0px;word-spacing:0px;writing-mode:lr-tb;text-anchor:start;fill:#706f6c;fill-opacity:1;stroke:none;font-family:Helvetica;-inkscape-font-specification:Helvetica Bold"
       d="m 430.68439,716.65961 -0.45667,1.31231 q -0.12797,0.37889 -0.20325,0.46421 -0.0853,0.0953 -0.31114,0.0953 l -0.16059,-0.005 0,-0.28103 0.0678,0.005 q 0.1079,0 0.15055,-0.0301 0.0577,-0.0401 0.0803,-0.17062 l -0.49431,-1.3901 0.39143,0 0.28856,0.98361 0.27601,-0.98361 L 430.68439,716.65961 Z" />
    <path
       inkscape:connector-curvature="0"
       id="path1631"
       style="font-size:2.50919676px;font-style:normal;font-variant:normal;font-weight:bold;font-stretch:normal;text-align:start;line-height:125%;letter-spacing:0px;word-spacing:0px;writing-mode:lr-tb;text-anchor:start;fill:#706f6c;fill-opacity:1;stroke:none;font-family:Helvetica;-inkscape-font-specification:Helvetica Bold"
       d="m 414.93079,723.32706 0,-0.30361 0.75276,0 0,0.97106 -0.24841,0 -0.0376,-0.22583 q -0.10789,0.12546 -0.19321,0.17815 -0.15306,0.0954 -0.36885,0.0954 -0.34878,0 -0.57711,-0.23335 -0.25092,-0.25594 -0.25092,-0.71011 0,-0.40147 0.21077,-0.65992 0.23837,-0.29357 0.66996,-0.29357 0.37638,0 0.59969,0.21077 0.18819,0.17815 0.18819,0.39645 l -0.37638,0 q 0,-0.0778 -0.0953,-0.17313 -0.12295,-0.12295 -0.29859,-0.12295 -0.22081,0 -0.35881,0.15055 -0.15808,0.17314 -0.15808,0.49682 0,0.33874 0.1656,0.49431 0.13299,0.12546 0.36133,0.12546 0.11793,0 0.2183,-0.0602 0.16811,-0.10037 0.2183,-0.33623 L 414.93079,723.32706 Z" />
    <path
       inkscape:connector-curvature="0"
       id="path1633"
       style="font-size:2.50919676px;font-style:normal;font-variant:normal;font-weight:bold;font-stretch:normal;text-align:start;line-height:125%;letter-spacing:0px;word-spacing:0px;writing-mode:lr-tb;text-anchor:start;fill:#706f6c;fill-opacity:1;stroke:none;font-family:Helvetica;-inkscape-font-specification:Helvetica Bold"
       d="m 416.79599,723.60307 0.36132,0 q -0.0652,0.22332 -0.24088,0.33373 -0.14804,0.0928 -0.34627,0.0928 -0.30863,0 -0.47424,-0.15808 -0.1907,-0.18318 -0.1907,-0.5721 0,-0.22834 0.0979,-0.39645 0.16059,-0.27852 0.53948,-0.27852 0.25343,0 0.41402,0.138 0.21579,0.18568 0.21579,0.59719 l -0.003,0.0627 -0.91586,0 q 0.0226,0.17815 0.0953,0.25343 0.0753,0.0728 0.22081,0.0728 0.0778,0 0.14052,-0.0376 Q 416.77591,723.67333 416.79599,723.60307 z m -0.52944,-0.409 0.54449,0 q -0.015,-0.14804 -0.10036,-0.22081 -0.0703,-0.0602 -0.17063,-0.0602 -0.12295,0 -0.1907,0.0728 Q 416.2816,723.05858 416.26655,723.19407 Z" />
    <path
       inkscape:connector-curvature="0"
       id="path1635"
       style="font-size:2.50919676px;font-style:normal;font-variant:normal;font-weight:bold;font-stretch:normal;text-align:start;line-height:125%;letter-spacing:0px;word-spacing:0px;writing-mode:lr-tb;text-anchor:start;fill:#706f6c;fill-opacity:1;stroke:none;font-family:Helvetica;-inkscape-font-specification:Helvetica Bold"
       d="m 417.80127,722.29829 -0.002,0.36132 0.2208,0 0,0.25092 -0.2183,0 -0.002,0.72516 q 0,0.0652 0.0226,0.0878 0.0251,0.0201 0.12546,0.0201 l 0.0728,-0.005 0,0.26597 -0.1656,0.005 -0.0452,0 q -0.21328,0 -0.29357,-0.0778 -0.0652,-0.0627 -0.0652,-0.21078 l 0,-0.81047 -0.18067,0 -0.002,-0.25092 0.18066,0 0.003,-0.36132 L 417.80127,722.29829 Z" />
    <path
       inkscape:connector-curvature="0"
       id="path1637"
       style="font-size:2.50919676px;font-style:normal;font-variant:normal;font-weight:bold;font-stretch:normal;text-align:start;line-height:125%;letter-spacing:0px;word-spacing:0px;writing-mode:lr-tb;text-anchor:start;fill:#706f6c;fill-opacity:1;stroke:none;font-family:Helvetica;-inkscape-font-specification:Helvetica Bold"
       d="m 420.22849,723.32706 q 0,0.34376 -0.20575,0.53195 -0.18568,0.17063 -0.47675,0.17063 -0.29107,0 -0.47675,-0.17063 -0.20575,-0.18819 -0.20575,-0.53195 0,-0.34125 0.20575,-0.53195 0.18568,-0.17062 0.47424,-0.17062 0.28856,0 0.47675,0.17062 Q 420.22849,722.98581 420.22849,723.32706 z m -0.36132,0 q 0,-0.16561 -0.0577,-0.26597 -0.0803,-0.14052 -0.26346,-0.14052 -0.18066,0 -0.26096,0.13801 -0.0602,0.10538 -0.0602,0.26848 0,0.16561 0.0577,0.26598 0.0803,0.14051 0.26347,0.14051 0.18066,0 0.26096,-0.13801 Q 419.86717,723.49016 419.86717,723.32706 Z" />
    <path
       inkscape:connector-curvature="0"
       id="path1639"
       style="font-size:2.50919676px;font-style:normal;font-variant:normal;font-weight:bold;font-stretch:normal;text-align:start;line-height:125%;letter-spacing:0px;word-spacing:0px;writing-mode:lr-tb;text-anchor:start;fill:#706f6c;fill-opacity:1;stroke:none;font-family:Helvetica;-inkscape-font-specification:Helvetica Bold"
       d="m 421.67963,722.65961 0,1.3349 -0.33623,0 0,-0.18819 q -0.13299,0.22332 -0.41151,0.22332 -0.20826,0 -0.3262,-0.11794 -0.12797,-0.12797 -0.12797,-0.37387 l -0.002,-0.87822 0.35379,0 0,0.82804 q 0,0.14051 0.0728,0.20073 0.0552,0.0452 0.15557,0.0452 0.10789,0 0.17815,-0.0602 0.0928,-0.0803 0.0928,-0.24339 l 0,-0.77033 L 421.67963,722.65961 Z" />
    <path
       inkscape:connector-curvature="0"
       id="path1641"
       style="font-size:2.50919676px;font-style:normal;font-variant:normal;font-weight:bold;font-stretch:normal;text-align:start;line-height:125%;letter-spacing:0px;word-spacing:0px;writing-mode:lr-tb;text-anchor:start;fill:#706f6c;fill-opacity:1;stroke:none;font-family:Helvetica;-inkscape-font-specification:Helvetica Bold"
       d="m 422.4031,722.29829 -0.003,0.36132 0.22081,0 0,0.25092 -0.2183,0 -0.003,0.72516 q 0,0.0652 0.0226,0.0878 0.0251,0.0201 0.12546,0.0201 l 0.0728,-0.005 0,0.26597 -0.1656,0.005 -0.0452,0 q -0.21328,0 -0.29358,-0.0778 -0.0652,-0.0627 -0.0652,-0.21078 l 0,-0.81047 -0.18066,0 -0.003,-0.25092 0.18067,0 0.002,-0.36132 L 422.4031,722.29829 Z" />
    <path
       inkscape:connector-curvature="0"
       id="path1643"
       style="font-size:2.50919676px;font-style:normal;font-variant:normal;font-weight:bold;font-stretch:normal;text-align:start;line-height:125%;letter-spacing:0px;word-spacing:0px;writing-mode:lr-tb;text-anchor:start;fill:#706f6c;fill-opacity:1;stroke:none;font-family:Helvetica;-inkscape-font-specification:Helvetica Bold"
       d="m 424.83032,723.32706 q 0,0.34376 -0.20576,0.53195 -0.18568,0.17063 -0.47674,0.17063 -0.29107,0 -0.47675,-0.17063 -0.20575,-0.18819 -0.20575,-0.53195 0,-0.34125 0.20575,-0.53195 0.18568,-0.17062 0.47424,-0.17062 0.28856,0 0.47675,0.17062 Q 424.83032,722.98581 424.83032,723.32706 z m -0.36133,0 q 0,-0.16561 -0.0577,-0.26597 -0.0803,-0.14052 -0.26346,-0.14052 -0.18066,0 -0.26096,0.13801 -0.0602,0.10538 -0.0602,0.26848 0,0.16561 0.0577,0.26598 0.0803,0.14051 0.26347,0.14051 0.18066,0 0.26095,-0.13801 Q 424.46899,723.49016 424.46899,723.32706 Z" />
    <path
       inkscape:connector-curvature="0"
       id="path1645"
       style="font-size:2.50919676px;font-style:normal;font-variant:normal;font-weight:bold;font-stretch:normal;text-align:start;line-height:125%;letter-spacing:0px;word-spacing:0px;writing-mode:lr-tb;text-anchor:start;fill:#706f6c;fill-opacity:1;stroke:none;font-family:Helvetica;-inkscape-font-specification:Helvetica Bold"
       d="m 425.48353,722.91053 0,1.08398 -0.35128,0 0,-1.08398 -0.19321,0 -0.003,-0.25092 0.19321,0 0,-0.10789 q 0,-0.19823 0.10036,-0.28856 0.10288,-0.0928 0.29358,-0.0928 l 0.17815,0.005 0,0.28354 -0.0979,0 q -0.0828,0 -0.10287,0.0276 -0.0176,0.0276 -0.0176,0.12044 l -0.003,0.0527 0.22834,0 0.003,0.25092 L 425.48353,722.91053 Z" />
    <path
       inkscape:connector-curvature="0"
       id="path1647"
       style="font-size:2.50919676px;font-style:normal;font-variant:normal;font-weight:bold;font-stretch:normal;text-align:start;line-height:125%;letter-spacing:0px;word-spacing:0px;writing-mode:lr-tb;text-anchor:start;fill:#706f6c;fill-opacity:1;stroke:none;font-family:Helvetica;-inkscape-font-specification:Helvetica Bold"
       d="m 427.53688,723.3371 q 0,-0.17816 -0.0652,-0.28354 -0.0778,-0.12546 -0.23586,-0.12546 -0.16561,0 -0.23838,0.13299 -0.0602,0.10789 -0.0602,0.29608 0,0.1631 0.0703,0.26598 0.0803,0.11793 0.23837,0.11793 0.15306,0 0.23085,-0.14303 Q 427.53688,723.48765 427.53688,723.3371 z m -0.58715,-1.1442 0,0.63985 q 0.0853,-0.11542 0.18066,-0.16059 0.0953,-0.0477 0.21077,-0.0477 0.23587,0 0.38893,0.17062 0.16811,0.18568 0.16811,0.5169 0,0.30361 -0.13048,0.49682 -0.15055,0.22081 -0.43158,0.22081 -0.12044,0 -0.21579,-0.0452 -0.1104,-0.0527 -0.17062,-0.15808 l -0.005,0.16812 -0.34376,0 0,-1.80161 L 426.94973,722.1929 Z" />
    <path
       inkscape:connector-curvature="0"
       id="path1649"
       style="font-size:2.50919676px;font-style:normal;font-variant:normal;font-weight:bold;font-stretch:normal;text-align:start;line-height:125%;letter-spacing:0px;word-spacing:0px;writing-mode:lr-tb;text-anchor:start;fill:#706f6c;fill-opacity:1;stroke:none;font-family:Helvetica;-inkscape-font-specification:Helvetica Bold"
       d="m 428.93031,723.60307 0.36132,0 q -0.0652,0.22332 -0.24088,0.33373 -0.14804,0.0928 -0.34627,0.0928 -0.30863,0 -0.47424,-0.15808 -0.1907,-0.18318 -0.1907,-0.5721 0,-0.22834 0.0979,-0.39645 0.16059,-0.27852 0.53948,-0.27852 0.25343,0 0.41402,0.138 0.21579,0.18568 0.21579,0.59719 l -0.003,0.0627 -0.91586,0 q 0.0226,0.17815 0.0953,0.25343 0.0753,0.0728 0.22081,0.0728 0.0778,0 0.14051,-0.0376 Q 428.91023,723.67333 428.93031,723.60307 z m -0.52944,-0.409 0.54449,0 q -0.015,-0.14804 -0.10037,-0.22081 -0.0702,-0.0602 -0.17062,-0.0602 -0.12295,0 -0.1907,0.0728 Q 428.41592,723.05858 428.40087,723.19407 Z" />
    <path
       inkscape:connector-curvature="0"
       id="path1651"
       style="font-size:2.50919676px;font-style:normal;font-variant:normal;font-weight:bold;font-stretch:normal;text-align:start;line-height:125%;letter-spacing:0px;word-spacing:0px;writing-mode:lr-tb;text-anchor:start;fill:#706f6c;fill-opacity:1;stroke:none;font-family:Helvetica;-inkscape-font-specification:Helvetica Bold"
       d="m 430.76112,722.1929 0,1.80161 -0.34376,0 0,-0.16812 q -0.0627,0.10539 -0.17314,0.15808 -0.0953,0.0452 -0.2183,0.0452 -0.27852,0 -0.42907,-0.22081 -0.13299,-0.19572 -0.13299,-0.49682 0,-0.33122 0.16561,-0.5169 0.15055,-0.17062 0.38642,-0.17062 0.15306,0 0.25844,0.0702 0.0728,0.0477 0.12797,0.13801 l 0.005,-0.63985 L 430.76112,722.1929 z m -0.93593,1.1442 q 0,0.15306 0.0577,0.26095 0.0753,0.14303 0.22834,0.14303 0.15808,0 0.24088,-0.11793 0.0728,-0.10288 0.0728,-0.26598 0,-0.18568 -0.0602,-0.29358 -0.0753,-0.13549 -0.2434,-0.13549 -0.15557,0 -0.23084,0.12546 Q 429.82519,723.16145 429.82519,723.3371 Z" />
    <path
       inkscape:connector-curvature="0"
       id="path1606"
       style="font-size:2.50919676px;font-style:normal;font-variant:normal;font-weight:bold;font-stretch:normal;text-align:start;line-height:125%;letter-spacing:0px;word-spacing:0px;writing-mode:lr-tb;text-anchor:start;fill:#706f6c;fill-opacity:1;stroke:none;font-family:Helvetica;-inkscape-font-specification:Helvetica Bold"
       d="m 415.41256,728.4614 0,0.31867 -0.95601,0 0,0.37888 0.87822,0 0,0.31867 -0.87822,0 0,0.46671 0.99866,0 0,0.31867 -1.36751,0 0,-1.8016 L 415.41256,728.4614 Z" />
    <path
       inkscape:connector-curvature="0"
       id="path1608"
       style="font-size:2.50919676px;font-style:normal;font-variant:normal;font-weight:bold;font-stretch:normal;text-align:start;line-height:125%;letter-spacing:0px;word-spacing:0px;writing-mode:lr-tb;text-anchor:start;fill:#706f6c;fill-opacity:1;stroke:none;font-family:Helvetica;-inkscape-font-specification:Helvetica Bold"
       d="m 416.81512,729.2794 0.003,0.72264 q 0,0.11041 0.0201,0.15307 0.0201,0.0426 0.0577,0.0552 l 0,0.0527 -0.37888,0 q -0.0251,-0.0753 -0.0326,-0.15808 -0.0853,0.0903 -0.15557,0.12797 -0.11543,0.0652 -0.27602,0.0652 -0.16811,0 -0.27852,-0.0903 -0.12797,-0.10539 -0.12797,-0.2986 0,-0.18819 0.10288,-0.29357 0.10539,-0.1079 0.28605,-0.13299 l 0.31365,-0.0477 q 0.0728,-0.01 0.0979,-0.0351 0.0276,-0.0276 0.0276,-0.0703 0,-0.0979 -0.0828,-0.13299 -0.0527,-0.0226 -0.15056,-0.0226 -0.11542,0 -0.16811,0.0627 -0.0376,0.0452 -0.0452,0.12295 l -0.33874,0 q 0.0251,-0.27601 0.20826,-0.38642 0.13299,-0.0803 0.38642,-0.0803 0.20074,0 0.33623,0.0678 Q 416.81512,729.05859 416.81512,729.2794 z m -0.34125,0.50434 0,-0.17062 q -0.0251,0.0201 -0.0803,0.0402 -0.0552,0.0176 -0.16812,0.0351 -0.11041,0.0176 -0.15808,0.0502 -0.0703,0.0477 -0.0703,0.14804 0,0.0828 0.0552,0.12546 0.0452,0.0351 0.1079,0.0351 0.12546,0 0.2183,-0.0728 Q 416.47387,729.90168 416.47387,729.78374 Z" />
    <path
       inkscape:connector-curvature="0"
       id="path1610"
       style="font-size:2.50919676px;font-style:normal;font-variant:normal;font-weight:bold;font-stretch:normal;text-align:start;line-height:125%;letter-spacing:0px;word-spacing:0px;writing-mode:lr-tb;text-anchor:start;fill:#706f6c;fill-opacity:1;stroke:none;font-family:Helvetica;-inkscape-font-specification:Helvetica Bold"
       d="m 417.52683,728.56678 -0.003,0.36133 0.22081,0 0,0.25092 -0.2183,0 -0.003,0.72516 q 0,0.0652 0.0226,0.0878 0.0251,0.0201 0.12546,0.0201 l 0.0728,-0.005 0,0.26598 -0.16561,0.005 -0.0452,0 q -0.21328,0 -0.29358,-0.0778 -0.0652,-0.0627 -0.0652,-0.21077 l 0,-0.81047 -0.18066,0 -0.003,-0.25092 0.18066,0 0.003,-0.36133 L 417.52683,728.56678 Z" />
    <path
       inkscape:connector-curvature="0"
       id="path1612"
       style="font-size:2.50919676px;font-style:normal;font-variant:normal;font-weight:bold;font-stretch:normal;text-align:start;line-height:125%;letter-spacing:0px;word-spacing:0px;writing-mode:lr-tb;text-anchor:start;fill:#706f6c;fill-opacity:1;stroke:none;font-family:Helvetica;-inkscape-font-specification:Helvetica Bold"
       d="m 419.59272,729.60559 q 0,-0.17815 -0.0652,-0.28354 -0.0778,-0.12546 -0.23586,-0.12546 -0.16561,0 -0.23837,0.13299 -0.0602,0.10789 -0.0602,0.29608 0,0.1631 0.0703,0.26598 0.0803,0.11793 0.23838,0.11793 0.15306,0 0.23084,-0.14302 Q 419.59272,729.75614 419.59272,729.60559 z m -0.58715,-1.14419 0,0.63984 q 0.0853,-0.11542 0.18066,-0.16059 0.0953,-0.0477 0.21078,-0.0477 0.23586,0 0.38892,0.17062 0.16812,0.18568 0.16812,0.5169 0,0.30361 -0.13048,0.49682 -0.15055,0.22081 -0.43158,0.22081 -0.12044,0 -0.21579,-0.0452 -0.11041,-0.0527 -0.17063,-0.15808 l -0.005,0.16812 -0.34376,0 0,-1.8016 L 419.00557,728.4614 Z" />
    <path
       inkscape:connector-curvature="0"
       id="path1614"
       style="font-size:2.50919676px;font-style:normal;font-variant:normal;font-weight:bold;font-stretch:normal;text-align:start;line-height:125%;letter-spacing:0px;word-spacing:0px;writing-mode:lr-tb;text-anchor:start;fill:#706f6c;fill-opacity:1;stroke:none;font-family:Helvetica;-inkscape-font-specification:Helvetica Bold"
       d="m 420.19826,730.263 -0.003,-1.33489 0.33624,0 0.002,0.23084 q 0.0728,-0.13298 0.13048,-0.18317 0.0928,-0.0828 0.23838,-0.0828 l 0.0702,0.005 -0.002,0.3563 q -0.0226,-0.003 -0.0452,-0.003 -0.0201,-0.003 -0.0527,-0.003 -0.18568,0 -0.26347,0.10288 -0.0602,0.0778 -0.0602,0.21579 l 0,0.69505 L 420.19826,730.263 Z" />
    <path
       inkscape:connector-curvature="0"
       id="path1616"
       style="font-size:2.50919676px;font-style:normal;font-variant:normal;font-weight:bold;font-stretch:normal;text-align:start;line-height:125%;letter-spacing:0px;word-spacing:0px;writing-mode:lr-tb;text-anchor:start;fill:#706f6c;fill-opacity:1;stroke:none;font-family:Helvetica;-inkscape-font-specification:Helvetica Bold"
       d="m 421.9614,729.87157 0.36133,0 q -0.0652,0.22331 -0.24088,0.33372 -0.14805,0.0928 -0.34627,0.0928 -0.30863,0 -0.47424,-0.15808 -0.1907,-0.18317 -0.1907,-0.5721 0,-0.22833 0.0979,-0.39645 0.16059,-0.27852 0.53948,-0.27852 0.25342,0 0.41401,0.138 0.21579,0.18569 0.21579,0.59719 l -0.002,0.0627 -0.91586,0 q 0.0226,0.17816 0.0953,0.25343 0.0753,0.0728 0.22081,0.0728 0.0778,0 0.14051,-0.0376 Q 421.94133,729.94182 421.9614,729.87157 z m -0.52944,-0.409 0.5445,0 q -0.0151,-0.14805 -0.10037,-0.22081 -0.0703,-0.0602 -0.17062,-0.0602 -0.12295,0 -0.1907,0.0728 Q 421.44702,729.32707 421.43196,729.46257 Z" />
    <path
       inkscape:connector-curvature="0"
       id="path1618"
       style="font-size:2.50919676px;font-style:normal;font-variant:normal;font-weight:bold;font-stretch:normal;text-align:start;line-height:125%;letter-spacing:0px;word-spacing:0px;writing-mode:lr-tb;text-anchor:start;fill:#706f6c;fill-opacity:1;stroke:none;font-family:Helvetica;-inkscape-font-specification:Helvetica Bold"
       d="m 423.6517,729.2794 0.003,0.72264 q 0,0.11041 0.0201,0.15307 0.0201,0.0426 0.0577,0.0552 l 0,0.0527 -0.37889,0 q -0.0251,-0.0753 -0.0326,-0.15808 -0.0853,0.0903 -0.15557,0.12797 -0.11543,0.0652 -0.27601,0.0652 -0.16812,0 -0.27853,-0.0903 -0.12796,-0.10539 -0.12796,-0.2986 0,-0.18819 0.10287,-0.29357 0.10539,-0.1079 0.28605,-0.13299 l 0.31365,-0.0477 q 0.0728,-0.01 0.0979,-0.0351 0.0276,-0.0276 0.0276,-0.0703 0,-0.0979 -0.0828,-0.13299 -0.0527,-0.0226 -0.15055,-0.0226 -0.11543,0 -0.16812,0.0627 -0.0376,0.0452 -0.0452,0.12295 l -0.33874,0 q 0.0251,-0.27601 0.20827,-0.38642 0.13298,-0.0803 0.38641,-0.0803 0.20074,0 0.33623,0.0678 Q 423.6517,729.05859 423.6517,729.2794 z m -0.34125,0.50434 0,-0.17062 q -0.0251,0.0201 -0.0803,0.0402 -0.0552,0.0176 -0.16812,0.0351 -0.1104,0.0176 -0.15808,0.0502 -0.0703,0.0477 -0.0703,0.14804 0,0.0828 0.0552,0.12546 0.0452,0.0351 0.10789,0.0351 0.12546,0 0.2183,-0.0728 Q 423.31045,729.90168 423.31045,729.78374 Z" />
    <path
       inkscape:connector-curvature="0"
       id="path1620"
       style="font-size:2.50919676px;font-style:normal;font-variant:normal;font-weight:bold;font-stretch:normal;text-align:start;line-height:125%;letter-spacing:0px;word-spacing:0px;writing-mode:lr-tb;text-anchor:start;fill:#706f6c;fill-opacity:1;stroke:none;font-family:Helvetica;-inkscape-font-specification:Helvetica Bold"
       d="m 424.33079,729.84146 0,0.42154 -0.35129,0 0,-1.8016 0.34878,0 0,0.97357 0.44162,-0.50686 0.43158,0 -0.47173,0.51689 0.48679,0.818 -0.42155,0 -0.32117,-0.5721 L 424.33079,729.84146 Z" />
    <path
       inkscape:connector-curvature="0"
       id="path1622"
       style="font-size:2.50919676px;font-style:normal;font-variant:normal;font-weight:bold;font-stretch:normal;text-align:start;line-height:125%;letter-spacing:0px;word-spacing:0px;writing-mode:lr-tb;text-anchor:start;fill:#706f6c;fill-opacity:1;stroke:none;font-family:Helvetica;-inkscape-font-specification:Helvetica Bold"
       d="m 425.82169,729.17903 0,1.08397 -0.35129,0 0,-1.08397 -0.19321,0 -0.003,-0.25092 0.19321,0 0,-0.1079 q 0,-0.19822 0.10037,-0.28856 0.10287,-0.0928 0.29357,-0.0928 l 0.17816,0.005 0,0.28354 -0.0979,0 q -0.0828,0 -0.10288,0.0276 -0.0176,0.0276 -0.0176,0.12044 l -0.003,0.0527 0.22833,0 0.003,0.25092 L 425.82169,729.17903 Z" />
    <path
       inkscape:connector-curvature="0"
       id="path1624"
       style="font-size:2.50919676px;font-style:normal;font-variant:normal;font-weight:bold;font-stretch:normal;text-align:start;line-height:125%;letter-spacing:0px;word-spacing:0px;writing-mode:lr-tb;text-anchor:start;fill:#706f6c;fill-opacity:1;stroke:none;font-family:Helvetica;-inkscape-font-specification:Helvetica Bold"
       d="m 427.33218,729.2794 0.003,0.72264 q 0,0.11041 0.0201,0.15307 0.0201,0.0426 0.0577,0.0552 l 0,0.0527 -0.37889,0 q -0.0251,-0.0753 -0.0326,-0.15808 -0.0853,0.0903 -0.15557,0.12797 -0.11542,0.0652 -0.27601,0.0652 -0.16812,0 -0.27852,-0.0903 -0.12797,-0.10539 -0.12797,-0.2986 0,-0.18819 0.10288,-0.29357 0.10538,-0.1079 0.28604,-0.13299 l 0.31365,-0.0477 q 0.0728,-0.01 0.0979,-0.0351 0.0276,-0.0276 0.0276,-0.0703 0,-0.0979 -0.0828,-0.13299 -0.0527,-0.0226 -0.15055,-0.0226 -0.11542,0 -0.16812,0.0627 -0.0376,0.0452 -0.0452,0.12295 l -0.33875,0 q 0.0251,-0.27601 0.20827,-0.38642 0.13299,-0.0803 0.38641,-0.0803 0.20074,0 0.33624,0.0678 Q 427.33218,729.05859 427.33218,729.2794 z m -0.34125,0.50434 0,-0.17062 q -0.0251,0.0201 -0.0803,0.0402 -0.0552,0.0176 -0.16812,0.0351 -0.1104,0.0176 -0.15808,0.0502 -0.0702,0.0477 -0.0702,0.14804 0,0.0828 0.0552,0.12546 0.0452,0.0351 0.10789,0.0351 0.12546,0 0.2183,-0.0728 Q 426.99093,729.90168 426.99093,729.78374 Z" />
    <path
       inkscape:connector-curvature="0"
       id="path1626"
       style="font-size:2.50919676px;font-style:normal;font-variant:normal;font-weight:bold;font-stretch:normal;text-align:start;line-height:125%;letter-spacing:0px;word-spacing:0px;writing-mode:lr-tb;text-anchor:start;fill:#706f6c;fill-opacity:1;stroke:none;font-family:Helvetica;-inkscape-font-specification:Helvetica Bold"
       d="m 428.74898,729.3346 -0.34376,0 q -0.0151,-0.0853 -0.0502,-0.12044 -0.0552,-0.0552 -0.18568,-0.0552 -0.12796,0 -0.18066,0.0427 -0.0376,0.0301 -0.0376,0.0878 0,0.0778 0.21579,0.12546 0.31115,0.0677 0.40399,0.11041 0.2183,0.10287 0.2183,0.31365 0,0.25593 -0.21329,0.37387 -0.15557,0.0853 -0.37136,0.0853 -0.26848,0 -0.43409,-0.0954 -0.20826,-0.12044 -0.20826,-0.36634 l 0.36132,0 q 0,0.0928 0.0652,0.14553 0.0677,0.0502 0.22583,0.0502 0.11793,0 0.17815,-0.0502 0.0452,-0.0376 0.0452,-0.0878 0,-0.0828 -0.21328,-0.13048 -0.31867,-0.0703 -0.40147,-0.1079 -0.2158,-0.10036 -0.2158,-0.31615 0,-0.17565 0.11292,-0.29609 0.14302,-0.15055 0.42656,-0.15055 0.25343,0 0.39896,0.0778 Q 428.74898,729.07866 428.74898,729.3346 Z" />
    <path
       inkscape:connector-curvature="0"
       id="path1628"
       style="font-size:2.50919676px;font-style:normal;font-variant:normal;font-weight:bold;font-stretch:normal;text-align:start;line-height:125%;letter-spacing:0px;word-spacing:0px;writing-mode:lr-tb;text-anchor:start;fill:#706f6c;fill-opacity:1;stroke:none;font-family:Helvetica;-inkscape-font-specification:Helvetica Bold"
       d="m 429.44062,728.56678 -0.003,0.36133 0.22081,0 0,0.25092 -0.2183,0 -0.003,0.72516 q 0,0.0652 0.0226,0.0878 0.0251,0.0201 0.12546,0.0201 l 0.0728,-0.005 0,0.26598 -0.16561,0.005 -0.0452,0 q -0.21328,0 -0.29357,-0.0778 -0.0652,-0.0627 -0.0652,-0.21077 l 0,-0.81047 -0.18066,0 -0.003,-0.25092 0.18066,0 0.003,-0.36133 L 429.44062,728.56678 Z" />
    <path
       inkscape:connector-curvature="0"
       id="path1591"
       style="font-size:2.50919676px;font-style:normal;font-variant:normal;font-weight:bold;font-stretch:normal;text-align:start;line-height:125%;letter-spacing:0px;word-spacing:0px;writing-mode:lr-tb;text-anchor:start;fill:#706f6c;fill-opacity:1;stroke:none;font-family:Helvetica;-inkscape-font-specification:Helvetica Bold"
       d="m 414.0877,736.0033 0,-1.80161 0.79542,0 q 0.40649,0 0.59468,0.30111 0.138,0.22081 0.138,0.55704 0,0.36383 -0.15055,0.61475 -0.19572,0.32871 -0.59719,0.32871 L 414.0877,736.0033 z m 0.36634,-1.49047 0.003,1.17933 0.36635,0 q 0.21077,0 0.31866,-0.1907 0.0903,-0.16059 0.0903,-0.41402 0,-0.35129 -0.14805,-0.48679 -0.0953,-0.0878 -0.26848,-0.0878 L 414.45404,734.51283 Z" />
    <path
       inkscape:connector-curvature="0"
       id="path1593"
       style="font-size:2.50919676px;font-style:normal;font-variant:normal;font-weight:bold;font-stretch:normal;text-align:start;line-height:125%;letter-spacing:0px;word-spacing:0px;writing-mode:lr-tb;text-anchor:start;fill:#706f6c;fill-opacity:1;stroke:none;font-family:Helvetica;-inkscape-font-specification:Helvetica Bold"
       d="m 415.87088,736.0033 -0.003,-1.3349 0.33623,0 0.003,0.23085 q 0.0728,-0.13299 0.13048,-0.18317 0.0928,-0.0828 0.23837,-0.0828 l 0.0703,0.005 -0.003,0.35631 q -0.0226,-0.003 -0.0452,-0.003 -0.0201,-0.003 -0.0527,-0.003 -0.18568,0 -0.26346,0.10288 -0.0602,0.0778 -0.0602,0.21579 l 0,0.69505 L 415.87088,736.0033 Z" />
    <path
       inkscape:connector-curvature="0"
       id="path1595"
       style="font-size:2.50919676px;font-style:normal;font-variant:normal;font-weight:bold;font-stretch:normal;text-align:start;line-height:125%;letter-spacing:0px;word-spacing:0px;writing-mode:lr-tb;text-anchor:start;fill:#706f6c;fill-opacity:1;stroke:none;font-family:Helvetica;-inkscape-font-specification:Helvetica Bold"
       d="m 417.63402,735.61186 0.36132,0 q -0.0652,0.22332 -0.24088,0.33372 -0.14804,0.0928 -0.34627,0.0928 -0.30863,0 -0.47424,-0.15807 -0.19069,-0.18318 -0.19069,-0.5721 0,-0.22834 0.0978,-0.39645 0.16059,-0.27853 0.53948,-0.27853 0.25343,0 0.41402,0.13801 0.21579,0.18568 0.21579,0.59719 l -0.003,0.0627 -0.91586,0 q 0.0226,0.17815 0.0953,0.25343 0.0753,0.0728 0.22081,0.0728 0.0778,0 0.14052,-0.0376 Q 417.61395,735.68212 417.63402,735.61186 z m -0.52944,-0.409 0.5445,0 q -0.0151,-0.14804 -0.10037,-0.22081 -0.0703,-0.0602 -0.17063,-0.0602 -0.12295,0 -0.1907,0.0728 Q 417.11964,735.06737 417.10458,735.20286 Z" />
    <path
       inkscape:connector-curvature="0"
       id="path1597"
       style="font-size:2.50919676px;font-style:normal;font-variant:normal;font-weight:bold;font-stretch:normal;text-align:start;line-height:125%;letter-spacing:0px;word-spacing:0px;writing-mode:lr-tb;text-anchor:start;fill:#706f6c;fill-opacity:1;stroke:none;font-family:Helvetica;-inkscape-font-specification:Helvetica Bold"
       d="m 419.34439,735.07489 -0.34376,0 q -0.015,-0.0853 -0.0502,-0.12044 -0.0552,-0.0552 -0.18568,-0.0552 -0.12797,0 -0.18067,0.0427 -0.0376,0.0301 -0.0376,0.0878 0,0.0778 0.21579,0.12546 0.31114,0.0678 0.40398,0.1104 0.2183,0.10288 0.2183,0.31365 0,0.25594 -0.21328,0.37387 -0.15557,0.0853 -0.37136,0.0853 -0.26849,0 -0.4341,-0.0953 -0.20826,-0.12045 -0.20826,-0.36635 l 0.36133,0 q 0,0.0928 0.0652,0.14554 0.0678,0.0502 0.22583,0.0502 0.11793,0 0.17815,-0.0502 0.0452,-0.0376 0.0452,-0.0878 0,-0.0828 -0.21328,-0.13047 -0.31867,-0.0703 -0.40147,-0.1079 -0.21579,-0.10037 -0.21579,-0.31616 0,-0.17564 0.11291,-0.29608 0.14302,-0.15056 0.42656,-0.15056 0.25343,0 0.39897,0.0778 Q 419.34439,734.81896 419.34439,735.07489 Z" />
    <path
       inkscape:connector-curvature="0"
       id="path1599"
       style="font-size:2.50919676px;font-style:normal;font-variant:normal;font-weight:bold;font-stretch:normal;text-align:start;line-height:125%;letter-spacing:0px;word-spacing:0px;writing-mode:lr-tb;text-anchor:start;fill:#706f6c;fill-opacity:1;stroke:none;font-family:Helvetica;-inkscape-font-specification:Helvetica Bold"
       d="m 420.74111,735.07489 -0.34376,0 q -0.0151,-0.0853 -0.0502,-0.12044 -0.0552,-0.0552 -0.18568,-0.0552 -0.12797,0 -0.18066,0.0427 -0.0376,0.0301 -0.0376,0.0878 0,0.0778 0.21579,0.12546 0.31114,0.0678 0.40398,0.1104 0.2183,0.10288 0.2183,0.31365 0,0.25594 -0.21328,0.37387 -0.15557,0.0853 -0.37136,0.0853 -0.26849,0 -0.43409,-0.0953 -0.20827,-0.12045 -0.20827,-0.36635 l 0.36133,0 q 0,0.0928 0.0652,0.14554 0.0677,0.0502 0.22582,0.0502 0.11794,0 0.17816,-0.0502 0.0452,-0.0376 0.0452,-0.0878 0,-0.0828 -0.21328,-0.13047 -0.31867,-0.0703 -0.40147,-0.1079 -0.21579,-0.10037 -0.21579,-0.31616 0,-0.17564 0.11291,-0.29608 0.14303,-0.15056 0.42656,-0.15056 0.25343,0 0.39897,0.0778 Q 420.74111,734.81896 420.74111,735.07489 Z" />
    <path
       inkscape:connector-curvature="0"
       id="path1601"
       style="font-size:2.50919676px;font-style:normal;font-variant:normal;font-weight:bold;font-stretch:normal;text-align:start;line-height:125%;letter-spacing:0px;word-spacing:0px;writing-mode:lr-tb;text-anchor:start;fill:#706f6c;fill-opacity:1;stroke:none;font-family:Helvetica;-inkscape-font-specification:Helvetica Bold"
       d="m 422.93913,734.6684 0,1.3349 -0.33623,0 0,-0.18819 q -0.13299,0.22331 -0.41151,0.22331 -0.20827,0 -0.3262,-0.11793 -0.12797,-0.12797 -0.12797,-0.37387 l -0.003,-0.87822 0.3538,0 0,0.82804 q 0,0.14051 0.0728,0.20073 0.0552,0.0452 0.15557,0.0452 0.10789,0 0.17815,-0.0602 0.0928,-0.0803 0.0928,-0.24339 l 0,-0.77033 L 422.93913,734.6684 Z" />
    <path
       inkscape:connector-curvature="0"
       id="path1603"
       style="font-size:2.50919676px;font-style:normal;font-variant:normal;font-weight:bold;font-stretch:normal;text-align:start;line-height:125%;letter-spacing:0px;word-spacing:0px;writing-mode:lr-tb;text-anchor:start;fill:#706f6c;fill-opacity:1;stroke:none;font-family:Helvetica;-inkscape-font-specification:Helvetica Bold"
       d="m 423.59736,735.36596 q 0,0.16561 0.0678,0.26597 0.0803,0.11794 0.23837,0.11794 0.15306,0 0.23085,-0.14303 0.0602,-0.1104 0.0602,-0.26095 0,-0.17816 -0.0652,-0.28354 -0.0778,-0.12546 -0.23586,-0.12546 -0.16561,0 -0.23838,0.13298 Q 423.59736,735.17526 423.59736,735.36596 z m -0.003,-0.69756 0.003,0.19321 q 0.0703,-0.10538 0.13801,-0.15306 0.10538,-0.0753 0.26346,-0.0753 0.23587,0 0.38893,0.17063 0.16812,0.18568 0.16812,0.51689 0,0.30362 -0.13048,0.49683 -0.15055,0.2208 -0.43158,0.2208 -0.15808,0 -0.26347,-0.0753 -0.0627,-0.0452 -0.11542,-0.13048 l -0.003,0.69003 -0.35129,0 0,-1.8543 L 423.59485,734.6684 Z" />
    <path
       inkscape:connector-curvature="0"
       id="path1560"
       style="font-size:2.50919676px;font-style:normal;font-variant:normal;font-weight:bold;font-stretch:normal;text-align:start;line-height:125%;letter-spacing:0px;word-spacing:0px;writing-mode:lr-tb;text-anchor:start;fill:#706f6c;fill-opacity:1;stroke:none;font-family:Helvetica;-inkscape-font-specification:Helvetica Bold"
       d="m 414.85301,740.77378 0,1.48293 -0.37638,0 0,-1.48293 -0.5445,0 0,-0.31867 1.46537,0 0,0.31867 L 414.85301,740.77378 Z" />
    <path
       inkscape:connector-curvature="0"
       id="path1562"
       style="font-size:2.50919676px;font-style:normal;font-variant:normal;font-weight:bold;font-stretch:normal;text-align:start;line-height:125%;letter-spacing:0px;word-spacing:0px;writing-mode:lr-tb;text-anchor:start;fill:#706f6c;fill-opacity:1;stroke:none;font-family:Helvetica;-inkscape-font-specification:Helvetica Bold"
       d="m 416.48677,741.27311 0.003,0.72265 q 0,0.1104 0.0201,0.15306 0.0201,0.0426 0.0577,0.0552 l 0,0.0527 -0.37889,0 q -0.0251,-0.0753 -0.0326,-0.15808 -0.0853,0.0903 -0.15557,0.12797 -0.11542,0.0652 -0.27601,0.0652 -0.16811,0 -0.27852,-0.0903 -0.12797,-0.10538 -0.12797,-0.29859 0,-0.18819 0.10288,-0.29358 0.10539,-0.10789 0.28605,-0.13299 l 0.31365,-0.0477 q 0.0728,-0.01 0.0979,-0.0351 0.0276,-0.0276 0.0276,-0.0703 0,-0.0979 -0.0828,-0.13298 -0.0527,-0.0226 -0.15055,-0.0226 -0.11542,0 -0.16811,0.0627 -0.0376,0.0452 -0.0452,0.12295 l -0.33874,0 q 0.0251,-0.27601 0.20826,-0.38641 0.13299,-0.0803 0.38642,-0.0803 0.20073,0 0.33623,0.0677 Q 416.48677,741.0523 416.48677,741.27311 z m -0.34125,0.50435 0,-0.17063 q -0.0251,0.0201 -0.0803,0.0402 -0.0552,0.0176 -0.16811,0.0351 -0.11041,0.0176 -0.15808,0.0502 -0.0703,0.0477 -0.0703,0.14804 0,0.0828 0.0552,0.12546 0.0452,0.0351 0.1079,0.0351 0.12546,0 0.2183,-0.0728 Q 416.14552,741.89539 416.14552,741.77746 Z" />
    <path
       inkscape:connector-curvature="0"
       id="path1564"
       style="font-size:2.50919676px;font-style:normal;font-variant:normal;font-weight:bold;font-stretch:normal;text-align:start;line-height:125%;letter-spacing:0px;word-spacing:0px;writing-mode:lr-tb;text-anchor:start;fill:#706f6c;fill-opacity:1;stroke:none;font-family:Helvetica;-inkscape-font-specification:Helvetica Bold"
       d="m 417.16586,741.83517 0,0.42154 -0.35129,0 0,-1.8016 0.34878,0 0,0.97357 0.44162,-0.50686 0.43158,0 -0.47173,0.5169 0.48679,0.81799 -0.42155,0 -0.32118,-0.57209 L 417.16586,741.83517 Z" />
    <path
       inkscape:connector-curvature="0"
       id="path1566"
       style="font-size:2.50919676px;font-style:normal;font-variant:normal;font-weight:bold;font-stretch:normal;text-align:start;line-height:125%;letter-spacing:0px;word-spacing:0px;writing-mode:lr-tb;text-anchor:start;fill:#706f6c;fill-opacity:1;stroke:none;font-family:Helvetica;-inkscape-font-specification:Helvetica Bold"
       d="m 419.03564,741.86528 0.36133,0 q -0.0652,0.22332 -0.24089,0.33372 -0.14804,0.0928 -0.34627,0.0928 -0.30863,0 -0.47423,-0.15808 -0.1907,-0.18317 -0.1907,-0.57209 0,-0.22834 0.0979,-0.39646 0.16058,-0.27852 0.53947,-0.27852 0.25343,0 0.41402,0.13801 0.21579,0.18568 0.21579,0.59719 l -0.003,0.0627 -0.91585,0 q 0.0226,0.17815 0.0953,0.25343 0.0753,0.0728 0.2208,0.0728 0.0778,0 0.14052,-0.0376 Q 419.01557,741.93554 419.03564,741.86528 z m -0.52944,-0.409 0.5445,0 q -0.0151,-0.14804 -0.10037,-0.22081 -0.0703,-0.0602 -0.17063,-0.0602 -0.12295,0 -0.19069,0.0728 Q 418.52126,741.32078 418.5062,741.45628 Z" />
    <path
       inkscape:connector-curvature="0"
       id="path1568"
       style="font-size:2.50919676px;font-style:normal;font-variant:normal;font-weight:bold;font-stretch:normal;text-align:start;line-height:125%;letter-spacing:0px;word-spacing:0px;writing-mode:lr-tb;text-anchor:start;fill:#706f6c;fill-opacity:1;stroke:none;font-family:Helvetica;-inkscape-font-specification:Helvetica Bold"
       d="m 421.63011,741.58927 q 0,0.34376 -0.20575,0.53195 -0.18568,0.17062 -0.47675,0.17062 -0.29107,0 -0.47675,-0.17062 -0.20575,-0.18819 -0.20575,-0.53195 0,-0.34125 0.20575,-0.53195 0.18568,-0.17063 0.47424,-0.17063 0.28856,0 0.47675,0.17063 Q 421.63011,741.24802 421.63011,741.58927 z m -0.36132,0 q 0,-0.16561 -0.0577,-0.26598 -0.0803,-0.14051 -0.26347,-0.14051 -0.18066,0 -0.26096,0.138 -0.0602,0.10539 -0.0602,0.26849 0,0.1656 0.0577,0.26597 0.0803,0.14052 0.26346,0.14052 0.18066,0 0.26096,-0.13801 Q 421.26879,741.75237 421.26879,741.58927 Z" />
    <path
       inkscape:connector-curvature="0"
       id="path1570"
       style="font-size:2.50919676px;font-style:normal;font-variant:normal;font-weight:bold;font-stretch:normal;text-align:start;line-height:125%;letter-spacing:0px;word-spacing:0px;writing-mode:lr-tb;text-anchor:start;fill:#706f6c;fill-opacity:1;stroke:none;font-family:Helvetica;-inkscape-font-specification:Helvetica Bold"
       d="m 423.08125,740.92182 0,1.33489 -0.33623,0 0,-0.18819 q -0.13299,0.22332 -0.41151,0.22332 -0.20826,0 -0.32619,-0.11793 -0.12797,-0.12797 -0.12797,-0.37387 l -0.003,-0.87822 0.35379,0 0,0.82804 q 0,0.14051 0.0728,0.20073 0.0552,0.0452 0.15557,0.0452 0.1079,0 0.17815,-0.0602 0.0928,-0.0803 0.0928,-0.2434 l 0,-0.77032 L 423.08125,740.92182 Z" />
    <path
       inkscape:connector-curvature="0"
       id="path1572"
       style="font-size:2.50919676px;font-style:normal;font-variant:normal;font-weight:bold;font-stretch:normal;text-align:start;line-height:125%;letter-spacing:0px;word-spacing:0px;writing-mode:lr-tb;text-anchor:start;fill:#706f6c;fill-opacity:1;stroke:none;font-family:Helvetica;-inkscape-font-specification:Helvetica Bold"
       d="m 423.80472,740.5605 -0.003,0.36132 0.22081,0 0,0.25092 -0.2183,0 -0.003,0.72516 q 0,0.0652 0.0226,0.0878 0.0251,0.0201 0.12546,0.0201 l 0.0728,-0.005 0,0.26597 -0.1656,0.005 -0.0452,0 q -0.21328,0 -0.29358,-0.0778 -0.0652,-0.0627 -0.0652,-0.21077 l 0,-0.81047 -0.18067,0 -0.003,-0.25092 0.18067,0 0.003,-0.36132 L 423.80472,740.5605 Z" />
    <path
       inkscape:connector-curvature="0"
       id="path1574"
       style="font-size:2.50919676px;font-style:normal;font-variant:normal;font-weight:bold;font-stretch:normal;text-align:start;line-height:125%;letter-spacing:0px;word-spacing:0px;writing-mode:lr-tb;text-anchor:start;fill:#706f6c;fill-opacity:1;stroke:none;font-family:Helvetica;-inkscape-font-specification:Helvetica Bold"
       d="m 425.33867,740.5605 -0.003,0.36132 0.22081,0 0,0.25092 -0.2183,0 -0.003,0.72516 q 0,0.0652 0.0226,0.0878 0.0251,0.0201 0.12546,0.0201 l 0.0728,-0.005 0,0.26597 -0.16561,0.005 -0.0452,0 q -0.21328,0 -0.29357,-0.0778 -0.0652,-0.0627 -0.0652,-0.21077 l 0,-0.81047 -0.18066,0 -0.003,-0.25092 0.18066,0 0.003,-0.36132 L 425.33867,740.5605 Z" />
    <path
       inkscape:connector-curvature="0"
       id="path1576"
       style="font-size:2.50919676px;font-style:normal;font-variant:normal;font-weight:bold;font-stretch:normal;text-align:start;line-height:125%;letter-spacing:0px;word-spacing:0px;writing-mode:lr-tb;text-anchor:start;fill:#706f6c;fill-opacity:1;stroke:none;font-family:Helvetica;-inkscape-font-specification:Helvetica Bold"
       d="m 426.98717,741.33333 0.003,0.92338 -0.35129,0 0,-0.81047 q 0,-0.11291 -0.0301,-0.16811 -0.0502,-0.0954 -0.19823,-0.0954 -0.12044,0 -0.19822,0.0803 -0.0778,0.0803 -0.0778,0.22834 l 0,0.7653 -0.35129,0 0,-1.8016 0.34878,0 0,0.63985 q 0.0427,-0.0878 0.14805,-0.14805 0.10538,-0.0602 0.24339,-0.0602 0.20324,0 0.33372,0.11793 Q 426.98717,741.12005 426.98717,741.33333 Z" />
    <path
       inkscape:connector-curvature="0"
       id="path1578"
       style="font-size:2.50919676px;font-style:normal;font-variant:normal;font-weight:bold;font-stretch:normal;text-align:start;line-height:125%;letter-spacing:0px;word-spacing:0px;writing-mode:lr-tb;text-anchor:start;fill:#706f6c;fill-opacity:1;stroke:none;font-family:Helvetica;-inkscape-font-specification:Helvetica Bold"
       d="m 428.10208,741.86528 0.36132,0 q -0.0652,0.22332 -0.24088,0.33372 -0.14805,0.0928 -0.34627,0.0928 -0.30863,0 -0.47424,-0.15808 -0.1907,-0.18317 -0.1907,-0.57209 0,-0.22834 0.0979,-0.39646 0.16059,-0.27852 0.53948,-0.27852 0.25343,0 0.41401,0.13801 0.2158,0.18568 0.2158,0.59719 l -0.003,0.0627 -0.91586,0 q 0.0226,0.17815 0.0953,0.25343 0.0753,0.0728 0.22081,0.0728 0.0778,0 0.14051,-0.0376 Q 428.082,741.93554 428.10208,741.86528 z m -0.52944,-0.409 0.54449,0 q -0.015,-0.14804 -0.10037,-0.22081 -0.0702,-0.0602 -0.17062,-0.0602 -0.12295,0 -0.1907,0.0728 Q 427.58769,741.32078 427.57264,741.45628 Z" />
    <path
       inkscape:connector-curvature="0"
       id="path1580"
       style="font-size:2.50919676px;font-style:normal;font-variant:normal;font-weight:bold;font-stretch:normal;text-align:start;line-height:125%;letter-spacing:0px;word-spacing:0px;writing-mode:lr-tb;text-anchor:start;fill:#706f6c;fill-opacity:1;stroke:none;font-family:Helvetica;-inkscape-font-specification:Helvetica Bold"
       d="m 429.80327,740.5605 -0.003,0.36132 0.22081,0 0,0.25092 -0.2183,0 -0.003,0.72516 q 0,0.0652 0.0226,0.0878 0.0251,0.0201 0.12546,0.0201 l 0.0728,-0.005 0,0.26597 -0.16561,0.005 -0.0452,0 q -0.21328,0 -0.29358,-0.0778 -0.0652,-0.0627 -0.0652,-0.21077 l 0,-0.81047 -0.18066,0 -0.003,-0.25092 0.18067,0 0.002,-0.36132 L 429.80327,740.5605 Z" />
    <path
       inkscape:connector-curvature="0"
       id="path1582"
       style="font-size:2.50919676px;font-style:normal;font-variant:normal;font-weight:bold;font-stretch:normal;text-align:start;line-height:125%;letter-spacing:0px;word-spacing:0px;writing-mode:lr-tb;text-anchor:start;fill:#706f6c;fill-opacity:1;stroke:none;font-family:Helvetica;-inkscape-font-specification:Helvetica Bold"
       d="m 430.24485,742.25671 -0.003,-1.33489 0.33623,0 0.003,0.23085 q 0.0728,-0.13299 0.13048,-0.18317 0.0928,-0.0828 0.23838,-0.0828 l 0.0702,0.005 -0.003,0.35631 q -0.0226,-0.003 -0.0452,-0.003 -0.0201,-0.003 -0.0527,-0.003 -0.18569,0 -0.26347,0.10288 -0.0602,0.0778 -0.0602,0.21579 l 0,0.69504 L 430.24485,742.25671 Z" />
    <path
       inkscape:connector-curvature="0"
       id="path1584"
       style="font-size:2.50919676px;font-style:normal;font-variant:normal;font-weight:bold;font-stretch:normal;text-align:start;line-height:125%;letter-spacing:0px;word-spacing:0px;writing-mode:lr-tb;text-anchor:start;fill:#706f6c;fill-opacity:1;stroke:none;font-family:Helvetica;-inkscape-font-specification:Helvetica Bold"
       d="m 432.30157,741.27311 0.003,0.72265 q 0,0.1104 0.0201,0.15306 0.0201,0.0426 0.0577,0.0552 l 0,0.0527 -0.37889,0 q -0.0251,-0.0753 -0.0326,-0.15808 -0.0853,0.0903 -0.15557,0.12797 -0.11543,0.0652 -0.27602,0.0652 -0.16811,0 -0.27852,-0.0903 -0.12797,-0.10538 -0.12797,-0.29859 0,-0.18819 0.10288,-0.29358 0.10539,-0.10789 0.28605,-0.13299 l 0.31365,-0.0477 q 0.0728,-0.01 0.0979,-0.0351 0.0276,-0.0276 0.0276,-0.0703 0,-0.0979 -0.0828,-0.13298 -0.0527,-0.0226 -0.15056,-0.0226 -0.11542,0 -0.16811,0.0627 -0.0376,0.0452 -0.0452,0.12295 l -0.33874,0 q 0.0251,-0.27601 0.20826,-0.38641 0.13299,-0.0803 0.38642,-0.0803 0.20074,0 0.33623,0.0677 Q 432.30157,741.0523 432.30157,741.27311 z m -0.34125,0.50435 0,-0.17063 q -0.0251,0.0201 -0.0803,0.0402 -0.0552,0.0176 -0.16811,0.0351 -0.11041,0.0176 -0.15808,0.0502 -0.0703,0.0477 -0.0703,0.14804 0,0.0828 0.0552,0.12546 0.0452,0.0351 0.1079,0.0351 0.12546,0 0.2183,-0.0728 Q 431.96032,741.89539 431.96032,741.77746 Z" />
    <path
       inkscape:connector-curvature="0"
       id="path1586"
       style="font-size:2.50919676px;font-style:normal;font-variant:normal;font-weight:bold;font-stretch:normal;text-align:start;line-height:125%;letter-spacing:0px;word-spacing:0px;writing-mode:lr-tb;text-anchor:start;fill:#706f6c;fill-opacity:1;stroke:none;font-family:Helvetica;-inkscape-font-specification:Helvetica Bold"
       d="m 433.71836,741.32831 -0.34376,0 q -0.015,-0.0853 -0.0502,-0.12044 -0.0552,-0.0552 -0.18568,-0.0552 -0.12797,0 -0.18066,0.0427 -0.0376,0.0301 -0.0376,0.0878 0,0.0778 0.21579,0.12546 0.31114,0.0677 0.40398,0.1104 0.2183,0.10288 0.2183,0.31365 0,0.25594 -0.21328,0.37387 -0.15557,0.0853 -0.37136,0.0853 -0.26849,0 -0.43409,-0.0953 -0.20827,-0.12044 -0.20827,-0.36634 l 0.36133,0 q 0,0.0928 0.0652,0.14553 0.0677,0.0502 0.22582,0.0502 0.11794,0 0.17816,-0.0502 0.0452,-0.0376 0.0452,-0.0878 0,-0.0828 -0.21328,-0.13048 -0.31867,-0.0702 -0.40147,-0.10789 -0.21579,-0.10037 -0.21579,-0.31616 0,-0.17564 0.11291,-0.29609 0.14303,-0.15055 0.42657,-0.15055 0.25343,0 0.39896,0.0778 Q 433.71836,741.07237 433.71836,741.32831 Z" />
    <path
       inkscape:connector-curvature="0"
       id="path1588"
       style="font-size:2.50919676px;font-style:normal;font-variant:normal;font-weight:bold;font-stretch:normal;text-align:start;line-height:125%;letter-spacing:0px;word-spacing:0px;writing-mode:lr-tb;text-anchor:start;fill:#706f6c;fill-opacity:1;stroke:none;font-family:Helvetica;-inkscape-font-specification:Helvetica Bold"
       d="m 435.22047,741.33333 0.003,0.92338 -0.35129,0 0,-0.81047 q 0,-0.11291 -0.0301,-0.16811 -0.0502,-0.0954 -0.19822,-0.0954 -0.12045,0 -0.19823,0.0803 -0.0778,0.0803 -0.0778,0.22834 l 0,0.7653 -0.35128,0 0,-1.8016 0.34877,0 0,0.63985 q 0.0427,-0.0878 0.14805,-0.14805 0.10538,-0.0602 0.24339,-0.0602 0.20324,0 0.33372,0.11793 Q 435.22047,741.12005 435.22047,741.33333 Z" />
    <path
       inkscape:connector-curvature="0"
       id="path1531"
       style="font-size:2.50919676px;font-style:normal;font-variant:normal;font-weight:bold;font-stretch:normal;text-align:start;line-height:125%;letter-spacing:0px;word-spacing:0px;writing-mode:lr-tb;text-anchor:start;fill:#706f6c;fill-opacity:1;stroke:none;font-family:Helvetica;-inkscape-font-specification:Helvetica Bold"
       d="m 414.93079,747.57798 0,-0.30362 0.75276,0 0,0.97106 -0.24841,0 -0.0376,-0.22583 q -0.10789,0.12546 -0.19321,0.17816 -0.15306,0.0953 -0.36885,0.0953 -0.34878,0 -0.57711,-0.23336 -0.25092,-0.25594 -0.25092,-0.7101 0,-0.40147 0.21077,-0.65992 0.23837,-0.29358 0.66996,-0.29358 0.37638,0 0.59969,0.21078 0.18819,0.17815 0.18819,0.39645 l -0.37638,0 q 0,-0.0778 -0.0953,-0.17313 -0.12295,-0.12296 -0.29859,-0.12296 -0.22081,0 -0.35881,0.15056 -0.15808,0.17313 -0.15808,0.49682 0,0.33874 0.1656,0.49431 0.13299,0.12546 0.36133,0.12546 0.11793,0 0.2183,-0.0602 0.16811,-0.10037 0.2183,-0.33623 L 414.93079,747.57798 Z" />
    <path
       inkscape:connector-curvature="0"
       id="path1533"
       style="font-size:2.50919676px;font-style:normal;font-variant:normal;font-weight:bold;font-stretch:normal;text-align:start;line-height:125%;letter-spacing:0px;word-spacing:0px;writing-mode:lr-tb;text-anchor:start;fill:#706f6c;fill-opacity:1;stroke:none;font-family:Helvetica;-inkscape-font-specification:Helvetica Bold"
       d="m 416.79599,747.85399 0.36132,0 q -0.0652,0.22332 -0.24088,0.33372 -0.14804,0.0928 -0.34627,0.0928 -0.30863,0 -0.47424,-0.15808 -0.1907,-0.18317 -0.1907,-0.5721 0,-0.22833 0.0979,-0.39645 0.16059,-0.27852 0.53948,-0.27852 0.25343,0 0.41402,0.13801 0.21579,0.18568 0.21579,0.59719 l -0.003,0.0627 -0.91586,0 q 0.0226,0.17815 0.0953,0.25342 0.0753,0.0728 0.22081,0.0728 0.0778,0 0.14052,-0.0376 Q 416.77591,747.92425 416.79599,747.85399 z m -0.52944,-0.409 0.54449,0 q -0.015,-0.14804 -0.10036,-0.22081 -0.0703,-0.0602 -0.17063,-0.0602 -0.12295,0 -0.1907,0.0728 Q 416.2816,747.30949 416.26655,747.44499 Z" />
    <path
       inkscape:connector-curvature="0"
       id="path1535"
       style="font-size:2.50919676px;font-style:normal;font-variant:normal;font-weight:bold;font-stretch:normal;text-align:start;line-height:125%;letter-spacing:0px;word-spacing:0px;writing-mode:lr-tb;text-anchor:start;fill:#706f6c;fill-opacity:1;stroke:none;font-family:Helvetica;-inkscape-font-specification:Helvetica Bold"
       d="m 417.80127,746.54921 -0.002,0.36132 0.2208,0 0,0.25092 -0.2183,0 -0.002,0.72516 q 0,0.0652 0.0226,0.0878 0.0251,0.0201 0.12546,0.0201 l 0.0728,-0.005 0,0.26598 -0.1656,0.005 -0.0452,0 q -0.21328,0 -0.29357,-0.0778 -0.0652,-0.0627 -0.0652,-0.21077 l 0,-0.81047 -0.18067,0 -0.002,-0.25092 0.18066,0 0.003,-0.36132 L 417.80127,746.54921 Z" />
    <path
       inkscape:connector-curvature="0"
       id="path1537"
       style="font-size:2.50919676px;font-style:normal;font-variant:normal;font-weight:bold;font-stretch:normal;text-align:start;line-height:125%;letter-spacing:0px;word-spacing:0px;writing-mode:lr-tb;text-anchor:start;fill:#706f6c;fill-opacity:1;stroke:none;font-family:Helvetica;-inkscape-font-specification:Helvetica Bold"
       d="m 420.0679,746.44382 0.35129,0 0,1.8016 -0.37638,0 -0.73519,-1.28471 -0.005,1.28471 -0.35129,0 0,-1.8016 0.39645,0 0.71261,1.2546 L 420.0679,746.44382 Z" />
    <path
       inkscape:connector-curvature="0"
       id="path1539"
       style="font-size:2.50919676px;font-style:normal;font-variant:normal;font-weight:bold;font-stretch:normal;text-align:start;line-height:125%;letter-spacing:0px;word-spacing:0px;writing-mode:lr-tb;text-anchor:start;fill:#706f6c;fill-opacity:1;stroke:none;font-family:Helvetica;-inkscape-font-specification:Helvetica Bold"
       d="m 420.76209,746.91053 0.35128,0 0,1.33489 -0.35128,0 L 420.76209,746.91053 z m 0.35128,-0.48428 0,0.3262 -0.35128,0 0,-0.3262 L 421.11337,746.42625 Z" />
    <path
       inkscape:connector-curvature="0"
       id="path1541"
       style="font-size:2.50919676px;font-style:normal;font-variant:normal;font-weight:bold;font-stretch:normal;text-align:start;line-height:125%;letter-spacing:0px;word-spacing:0px;writing-mode:lr-tb;text-anchor:start;fill:#706f6c;fill-opacity:1;stroke:none;font-family:Helvetica;-inkscape-font-specification:Helvetica Bold"
       d="m 421.84441,746.54921 -0.003,0.36132 0.22081,0 0,0.25092 -0.2183,0 -0.003,0.72516 q 0,0.0652 0.0226,0.0878 0.0251,0.0201 0.12546,0.0201 l 0.0728,-0.005 0,0.26598 -0.1656,0.005 -0.0452,0 q -0.21328,0 -0.29358,-0.0778 -0.0652,-0.0627 -0.0652,-0.21077 l 0,-0.81047 -0.18067,0 -0.003,-0.25092 0.18067,0 0.003,-0.36132 L 421.84441,746.54921 Z" />
    <path
       inkscape:connector-curvature="0"
       id="path1543"
       style="font-size:2.50919676px;font-style:normal;font-variant:normal;font-weight:bold;font-stretch:normal;text-align:start;line-height:125%;letter-spacing:0px;word-spacing:0px;writing-mode:lr-tb;text-anchor:start;fill:#706f6c;fill-opacity:1;stroke:none;font-family:Helvetica;-inkscape-font-specification:Helvetica Bold"
       d="m 422.28599,748.24542 -0.003,-1.33489 0.33624,0 0.003,0.23085 q 0.0728,-0.13299 0.13047,-0.18318 0.0928,-0.0828 0.23838,-0.0828 l 0.0702,0.005 -0.002,0.35631 q -0.0226,-0.003 -0.0452,-0.003 -0.0201,-0.003 -0.0527,-0.003 -0.18568,0 -0.26347,0.10287 -0.0602,0.0778 -0.0602,0.21579 l 0,0.69505 L 422.28599,748.24542 Z" />
    <path
       inkscape:connector-curvature="0"
       id="path1545"
       style="font-size:2.50919676px;font-style:normal;font-variant:normal;font-weight:bold;font-stretch:normal;text-align:start;line-height:125%;letter-spacing:0px;word-spacing:0px;writing-mode:lr-tb;text-anchor:start;fill:#706f6c;fill-opacity:1;stroke:none;font-family:Helvetica;-inkscape-font-specification:Helvetica Bold"
       d="m 424.46817,746.91053 0,1.33489 -0.33623,0 0,-0.18819 q -0.13299,0.22332 -0.41151,0.22332 -0.20826,0 -0.3262,-0.11793 -0.12796,-0.12797 -0.12796,-0.37387 l -0.003,-0.87822 0.35379,0 0,0.82803 q 0,0.14052 0.0728,0.20074 0.0552,0.0452 0.15557,0.0452 0.1079,0 0.17815,-0.0602 0.0928,-0.0803 0.0928,-0.2434 l 0,-0.77032 L 424.46817,746.91053 Z" />
    <path
       inkscape:connector-curvature="0"
       id="path1547"
       style="font-size:2.50919676px;font-style:normal;font-variant:normal;font-weight:bold;font-stretch:normal;text-align:start;line-height:125%;letter-spacing:0px;word-spacing:0px;writing-mode:lr-tb;text-anchor:start;fill:#706f6c;fill-opacity:1;stroke:none;font-family:Helvetica;-inkscape-font-specification:Helvetica Bold"
       d="m 425.53791,747.56543 0.45417,0.67999 -0.43409,0 -0.23085,-0.40147 -0.23085,0.40147 -0.42405,0 0.45416,-0.67999 -0.43911,-0.6549 0.42657,0 0.22582,0.38893 0.22081,-0.38893 0.41402,0 L 425.53791,747.56543 Z" />
    <path
       inkscape:connector-curvature="0"
       id="path1549"
       style="font-size:2.50919676px;font-style:normal;font-variant:normal;font-weight:bold;font-stretch:normal;text-align:start;line-height:125%;letter-spacing:0px;word-spacing:0px;writing-mode:lr-tb;text-anchor:start;fill:#706f6c;fill-opacity:1;stroke:none;font-family:Helvetica;-inkscape-font-specification:Helvetica Bold"
       d="m 426.89786,746.91053 0.35128,0 0,1.33489 -0.35128,0 L 426.89786,746.91053 z m 0.35128,-0.48428 0,0.3262 -0.35128,0 0,-0.3262 L 427.24914,746.42625 Z" />
    <path
       inkscape:connector-curvature="0"
       id="path1551"
       style="font-size:2.50919676px;font-style:normal;font-variant:normal;font-weight:bold;font-stretch:normal;text-align:start;line-height:125%;letter-spacing:0px;word-spacing:0px;writing-mode:lr-tb;text-anchor:start;fill:#706f6c;fill-opacity:1;stroke:none;font-family:Helvetica;-inkscape-font-specification:Helvetica Bold"
       d="m 428.37915,747.75864 0.3563,0 q -0.0151,0.17313 -0.12546,0.31114 -0.1656,0.21077 -0.48427,0.21077 -0.33623,0 -0.49682,-0.22583 -0.12295,-0.17313 -0.12295,-0.43911 0,-0.34125 0.15055,-0.53195 0.1631,-0.20826 0.48929,-0.20826 0.21077,0 0.36133,0.0979 0.20826,0.13299 0.23084,0.41402 l -0.3563,0 q -0.0226,-0.11543 -0.0903,-0.17063 -0.0552,-0.0452 -0.14302,-0.0452 -0.15055,0 -0.22332,0.13047 -0.0577,0.10288 -0.0577,0.25594 0,0.23838 0.0652,0.33623 0.0678,0.0979 0.20575,0.0979 0.11543,0 0.18568,-0.0928 Q 428.37915,747.82639 428.37915,747.75864 Z" />
    <path
       inkscape:connector-curvature="0"
       id="path1553"
       style="font-size:2.50919676px;font-style:normal;font-variant:normal;font-weight:bold;font-stretch:normal;text-align:start;line-height:125%;letter-spacing:0px;word-spacing:0px;writing-mode:lr-tb;text-anchor:start;fill:#706f6c;fill-opacity:1;stroke:none;font-family:Helvetica;-inkscape-font-specification:Helvetica Bold"
       d="m 430.27018,747.57798 q 0,0.34376 -0.20576,0.53195 -0.18568,0.17062 -0.47674,0.17062 -0.29107,0 -0.47675,-0.17062 -0.20575,-0.18819 -0.20575,-0.53195 0,-0.34125 0.20575,-0.53195 0.18568,-0.17063 0.47424,-0.17063 0.28856,0 0.47675,0.17063 Q 430.27018,747.23673 430.27018,747.57798 z m -0.36133,0 q 0,-0.16561 -0.0577,-0.26598 -0.0803,-0.14051 -0.26346,-0.14051 -0.18066,0 -0.26096,0.138 -0.0602,0.10539 -0.0602,0.26849 0,0.1656 0.0577,0.26597 0.0803,0.14052 0.26347,0.14052 0.18066,0 0.26095,-0.13801 Q 429.90885,747.74107 429.90885,747.57798 Z" />
    <path
       inkscape:connector-curvature="0"
       id="path1555"
       style="font-size:2.50919676px;font-style:normal;font-variant:normal;font-weight:bold;font-stretch:normal;text-align:start;line-height:125%;letter-spacing:0px;word-spacing:0px;writing-mode:lr-tb;text-anchor:start;fill:#706f6c;fill-opacity:1;stroke:none;font-family:Helvetica;-inkscape-font-specification:Helvetica Bold"
       d="m 431.72132,747.32204 0.003,0.92338 -0.35129,0 0,-0.81047 q 0,-0.11291 -0.0301,-0.16811 -0.0502,-0.0954 -0.19823,-0.0954 -0.12044,0 -0.19822,0.0803 -0.0778,0.0803 -0.0778,0.22834 l 0,0.7653 -0.35129,0 0,-1.33489 0.33373,0 0,0.19572 q 0.0853,-0.12797 0.18066,-0.17816 0.0979,-0.0527 0.22583,-0.0527 0.20324,0 0.33372,0.11793 Q 431.72132,747.10876 431.72132,747.32204 Z" />
    <path
       inkscape:connector-curvature="0"
       id="path1557"
       style="font-size:2.50919676px;font-style:normal;font-variant:normal;font-weight:bold;font-stretch:normal;text-align:start;line-height:125%;letter-spacing:0px;word-spacing:0px;writing-mode:lr-tb;text-anchor:start;fill:#706f6c;fill-opacity:1;stroke:none;font-family:Helvetica;-inkscape-font-specification:Helvetica Bold"
       d="m 433.14987,747.31702 -0.34376,0 q -0.015,-0.0853 -0.0502,-0.12044 -0.0552,-0.0552 -0.18568,-0.0552 -0.12797,0 -0.18066,0.0426 -0.0376,0.0301 -0.0376,0.0878 0,0.0778 0.21579,0.12546 0.31114,0.0678 0.40398,0.11041 0.2183,0.10288 0.2183,0.31365 0,0.25594 -0.21328,0.37387 -0.15557,0.0853 -0.37136,0.0853 -0.26849,0 -0.43409,-0.0953 -0.20827,-0.12044 -0.20827,-0.36634 l 0.36133,0 q 0,0.0928 0.0652,0.14553 0.0677,0.0502 0.22583,0.0502 0.11793,0 0.17815,-0.0502 0.0452,-0.0376 0.0452,-0.0878 0,-0.0828 -0.21328,-0.13048 -0.31867,-0.0703 -0.40147,-0.10789 -0.21579,-0.10037 -0.21579,-0.31616 0,-0.17565 0.11291,-0.29609 0.14303,-0.15055 0.42657,-0.15055 0.25343,0 0.39896,0.0778 Q 433.14987,747.06108 433.14987,747.31702 Z" />
  </g>
</svg>
