<?xml version="1.0" encoding="UTF-8" standalone="no"?>
<!-- Created with Inkscape (http://www.inkscape.org/) -->

<svg
   xmlns:dc="http://purl.org/dc/elements/1.1/"
   xmlns:cc="http://creativecommons.org/ns#"
   xmlns:rdf="http://www.w3.org/1999/02/22-rdf-syntax-ns#"
   xmlns:svg="http://www.w3.org/2000/svg"
   xmlns="http://www.w3.org/2000/svg"
   xmlns:xlink="http://www.w3.org/1999/xlink"
   xmlns:sodipodi="http://sodipodi.sourceforge.net/DTD/sodipodi-0.dtd"
   xmlns:inkscape="http://www.inkscape.org/namespaces/inkscape"
   width="48"
   height="48"
   id="svg5453"
   version="1.1"
   inkscape:version="0.49 r12742"
   sodipodi:docname="fade-in.svg">
  <defs
     id="defs5455">
    <linearGradient
       inkscape:collect="always"
       id="linearGradient4171">
      <stop
         style="stop-color:#dcdcdc;stop-opacity:1"
         offset="0"
         id="stop4173" />
      <stop
         style="stop-color:#fafafa;stop-opacity:1"
         offset="1"
         id="stop4175" />
    </linearGradient>
    <linearGradient
       gradientTransform="translate(384.5714,504.56415)"
       gradientUnits="userSpaceOnUse"
       y2="-1004.6837"
       x2="26.25"
       y1="-1052.5408"
       x1="26.25"
       id="linearGradient867-9"
       xlink:href="#linearGradient1373-3"
       inkscape:collect="always" />
    <linearGradient
       id="linearGradient1373-3"
       inkscape:collect="always">
      <stop
         id="stop1375-8"
         offset="0"
         style="stop-color:#282827;stop-opacity:1" />
      <stop
         id="stop1377-0"
         offset="1"
         style="stop-color:#292929;stop-opacity:1" />
    </linearGradient>
    <linearGradient
       inkscape:collect="always"
       xlink:href="#linearGradient4171"
       id="linearGradient4218"
       gradientUnits="userSpaceOnUse"
       x1="407.66125"
       y1="539.80457"
       x2="407.66125"
       y2="510.59058"
       gradientTransform="matrix(1.056236,0,0,1.056236,-402.4997,-530.75405)" />
    <linearGradient
       id="linearGradient4116"
       inkscape:collect="always">
      <stop
         id="stop4118"
         offset="0"
         style="stop-color:#ca0000;stop-opacity:1" />
      <stop
         id="stop4120"
         offset="1"
         style="stop-color:#fd3232;stop-opacity:1" />
    </linearGradient>
    <linearGradient
       inkscape:collect="always"
       xlink:href="#linearGradient4116"
       id="linearGradient4327"
       x1="410.7431"
       y1="524.81091"
       x2="410.7431"
       y2="522.7771"
       gradientUnits="userSpaceOnUse" />
  </defs>
  <sodipodi:namedview
     id="base"
     pagecolor="#ffffff"
     bordercolor="#666666"
     borderopacity="1.0"
     inkscape:pageopacity="0"
     inkscape:pageshadow="2"
     inkscape:zoom="6.1060716"
     inkscape:cx="20.667387"
     inkscape:cy="19.22338"
     inkscape:document-units="px"
     inkscape:current-layer="layer1"
     showgrid="false"
     fit-margin-top="0"
     fit-margin-left="0"
     fit-margin-right="0"
     fit-margin-bottom="0"
     inkscape:window-width="1366"
     inkscape:window-height="718"
     inkscape:window-x="-2"
     inkscape:window-y="23"
     inkscape:window-maximized="1"
     inkscape:showpageshadow="false"
     borderlayer="true" />
  <metadata
     id="metadata5458">
    <rdf:RDF>
      <cc:Work
         rdf:about="">
        <dc:format>image/svg+xml</dc:format>
        <dc:type
           rdf:resource="http://purl.org/dc/dcmitype/StillImage" />
        <dc:title />
      </cc:Work>
    </rdf:RDF>
  </metadata>
  <g
     inkscape:label="Capa 1"
     inkscape:groupmode="layer"
     id="layer1"
     transform="translate(-384.57143,-499.798)">
    <rect
       transform="scale(1,-1)"
       ry="1.9445436"
       y="-547.79797"
       x="384.57144"
       height="48"
       width="48"
       id="rect2991-1-1"
       style="fill:url(#linearGradient867-9);fill-opacity:1;stroke:none" />
    <path
       style="font-size:40px;font-style:normal;font-variant:normal;font-weight:normal;font-stretch:normal;line-height:125%;letter-spacing:0px;word-spacing:0px;fill:#000000;fill-opacity:0.05882353;stroke:none;font-family:DejaVu Serif;-inkscape-font-specification:DejaVu Serif"
       d="M 11.394531 9.8007812 L 11.394531 12.007812 L 15.314453 12.007812 L 15.314453 22 L 19.501953 22 L 19.501953 12.337891 L 34.066406 12.337891 L 34.066406 16.648438 L 36.605469 16.648438 L 36.605469 9.8007812 L 11.394531 9.8007812 z M 30.023438 18.794922 L 30.023438 22 L 32.560547 22 L 32.560547 18.794922 L 30.023438 18.794922 z M 15.314453 26 L 15.314453 38.414062 L 11.394531 38.414062 L 11.394531 40.599609 L 24.433594 40.599609 L 24.433594 38.414062 L 19.501953 38.414062 L 19.501953 26 L 15.314453 26 z M 30.023438 26 L 30.023438 29.027344 L 32.560547 29.027344 L 32.560547 26 L 30.023438 26 z "
       transform="translate(384.57143,499.798)"
       id="path4190" />
    <path
       style="font-size:40px;font-style:normal;font-variant:normal;font-weight:normal;font-stretch:normal;line-height:125%;letter-spacing:0px;word-spacing:0px;fill:#000000;fill-opacity:0.11764706;stroke:none;font-family:DejaVu Serif;-inkscape-font-specification:DejaVu Serif"
       d="M 11.394531 9.4003906 L 11.394531 11.607422 L 15.314453 11.607422 L 15.314453 22 L 19.501953 22 L 19.501953 11.9375 L 34.066406 11.9375 L 34.066406 16.248047 L 36.605469 16.248047 L 36.605469 9.4003906 L 11.394531 9.4003906 z M 30.023438 18.394531 L 30.023438 22 L 32.560547 22 L 32.560547 18.394531 L 30.023438 18.394531 z M 15.314453 26 L 15.314453 38.013672 L 11.394531 38.013672 L 11.394531 40.199219 L 24.433594 40.199219 L 24.433594 38.013672 L 19.501953 38.013672 L 19.501953 26 L 15.314453 26 z M 30.023438 26 L 30.023438 28.626953 L 32.560547 28.626953 L 32.560547 26 L 30.023438 26 z "
       transform="translate(384.57143,499.798)"
       id="path4188" />
    <path
       style="font-size:40px;font-style:normal;font-variant:normal;font-weight:normal;font-stretch:normal;line-height:125%;letter-spacing:0px;word-spacing:0px;fill:#000000;fill-opacity:0.23529412;stroke:none;font-family:DejaVu Serif;-inkscape-font-specification:DejaVu Serif"
       d="M 11.394531 9 L 11.394531 11.207031 L 15.314453 11.207031 L 15.314453 22 L 32.560547 22 L 32.560547 17.994141 L 30.023438 17.994141 L 30.023438 21.851562 L 19.501953 21.851562 L 19.501953 11.537109 L 34.066406 11.537109 L 34.066406 15.849609 L 36.605469 15.849609 L 36.605469 9 L 11.394531 9 z M 15.314453 26 L 15.314453 37.613281 L 11.394531 37.613281 L 11.394531 39.800781 L 24.433594 39.800781 L 24.433594 37.613281 L 19.501953 37.613281 L 19.501953 26 L 15.314453 26 z M 30.023438 26 L 30.023438 28.226562 L 32.560547 28.226562 L 32.560547 26 L 30.023438 26 z "
       transform="translate(384.57143,499.798)"
       id="path4181" />
    <path
       inkscape:connector-curvature="0"
       style="fill:#000000;fill-opacity:1;stroke:none"
       d="m 384.57143,544.79799 0,1.0625 c 0,1.0773 0.86022,1.9375 1.9375,1.9375 l 44.125,0 c 1.07728,0 1.9375,-0.8602 1.9375,-1.9375 l 0,-1.0625 c 0,1.0773 -0.86022,1.9375 -1.9375,1.9375 l -44.125,0 C 385.43165,546.73549 384.57143,545.87529 384.57143,544.79799 Z"
       id="rect846" />
    <path
       inkscape:connector-curvature="0"
       style="fill:#ffffff;fill-opacity:0.5372549;stroke:none"
       d="m 387.10268,500.45429 c -0.91709,0 -1.67115,0.6395 -1.84375,1.5 0.33561,-0.2799 0.77451,-0.4375 1.25,-0.4375 l 44.125,0 c 0.47549,0 0.91439,0.1576 1.25,0.4375 -0.1726,-0.8605 -0.92666,-1.5 -1.84375,-1.5 L 387.10268,500.45429 Z"
       id="path7515" />
    <path
       inkscape:connector-curvature="0"
       style="fill:#000000;fill-opacity:0.39215686;stroke:none"
       d="m 386.50893,499.79799 c -1.07728,0 -1.9375,0.8602 -1.9375,1.9375 l 0,43.0625 c 0,0.7934 0.48002,1.449 1.15625,1.75 -0.30934,-0.3333 -0.5,-0.7824 -0.5,-1.2812 l 0,-42.9375 c 0,-1.0482 0.8269,-1.875 1.875,-1.875 l 42.9375,0 c 1.0481,0 1.875,0.8268 1.875,1.875 l 0,42.9375 c 0,0.4988 -0.19066,0.9479 -0.5,1.2812 0.67623,-0.301 1.15625,-0.9566 1.15625,-1.75 l 0,-43.0625 c 0,-1.0773 -0.86022,-1.9375 -1.9375,-1.9375 L 386.50893,499.79799 Z"
       id="rect4280" />
    <path
       style="font-size:40px;font-style:normal;font-variant:normal;font-weight:normal;font-stretch:normal;line-height:125%;letter-spacing:0px;word-spacing:0px;fill:url(#linearGradient4218);fill-opacity:1;stroke:none;font-family:DejaVu Serif;-inkscape-font-specification:DejaVu Serif"
       d="M 11.394531 8.5996094 L 11.394531 10.806641 L 15.314453 10.806641 L 15.314453 22 L 32.560547 22 L 32.560547 17.59375 L 30.023438 17.59375 L 30.023438 21.453125 L 19.501953 21.453125 L 19.501953 11.136719 L 34.066406 11.136719 L 34.066406 15.449219 L 36.605469 15.449219 L 36.605469 8.5996094 L 11.394531 8.5996094 z M 15.314453 26 L 15.314453 37.212891 L 11.394531 37.212891 L 11.394531 39.400391 L 24.433594 39.400391 L 24.433594 37.212891 L 19.501953 37.212891 L 19.501953 26 L 15.314453 26 z M 30.023438 26 L 30.023438 27.826172 L 32.560547 27.826172 L 32.560547 26 L 30.023438 26 z "
       transform="translate(384.57143,499.798)"
       id="path4161" />
    <path
       style="font-size:40px;font-style:normal;font-variant:normal;font-weight:normal;font-stretch:normal;line-height:125%;letter-spacing:0px;word-spacing:0px;fill:#282827;fill-opacity:0.3137255;stroke:none;font-family:DejaVu Serif;-inkscape-font-specification:DejaVu Serif"
       d="M 11.394531 10.007812 L 11.394531 10.806641 L 15.314453 10.806641 L 15.314453 10.007812 L 11.394531 10.007812 z M 19.501953 10.337891 L 19.501953 11.136719 L 34.066406 11.136719 L 34.066406 10.337891 L 19.501953 10.337891 z M 34.066406 14.648438 L 34.066406 15.449219 L 36.605469 15.449219 L 36.605469 14.648438 L 34.066406 14.648438 z M 19.501953 23.169922 L 19.501953 23.96875 L 30.023438 23.96875 L 30.023438 23.169922 L 19.501953 23.169922 z M 30.023438 27.027344 L 30.023438 27.826172 L 32.560547 27.826172 L 32.560547 27.027344 L 30.023438 27.027344 z M 11.394531 38.599609 L 11.394531 39.400391 L 24.433594 39.400391 L 24.433594 38.599609 L 11.394531 38.599609 z "
       transform="translate(384.57143,499.798)"
       id="path4194" />
    <path
       style="font-size:40px;font-style:normal;font-variant:normal;font-weight:normal;font-stretch:normal;line-height:125%;letter-spacing:0px;word-spacing:0px;fill:#ffffff;fill-opacity:0.23529412;stroke:none;font-family:DejaVu Serif;-inkscape-font-specification:DejaVu Serif"
       d="M 11.394531 8.5996094 L 11.394531 9 L 36.605469 9 L 36.605469 8.5996094 L 11.394531 8.5996094 z M 30.023438 17.59375 L 30.023438 17.994141 L 32.560547 17.994141 L 32.560547 17.59375 L 30.023438 17.59375 z M 19.501953 21.453125 L 19.501953 21.851562 L 30.023438 21.851562 L 30.023438 21.453125 L 19.501953 21.453125 z M 11.394531 37.212891 L 11.394531 37.613281 L 15.314453 37.613281 L 15.314453 37.212891 L 11.394531 37.212891 z M 19.501953 37.212891 L 19.501953 37.613281 L 24.433594 37.613281 L 24.433594 37.212891 L 19.501953 37.212891 z "
       transform="translate(384.57143,499.798)"
       id="path4205" />
    <rect
       style="fill:url(#linearGradient4327);fill-opacity:1;stroke:none"
       id="rect4214"
       width="42"
       height="2"
       x="387.57144"
       y="522.79797"
       ry="0" />
    <path
       style="fill:#870e0e;fill-opacity:0.3137255;stroke:none"
       d="M 3 24.199219 L 3 25 L 45 25 L 45 24.199219 L 3 24.199219 z "
       transform="translate(384.57143,499.798)"
       id="rect4329" />
    <path
       style="fill:#ffffff;fill-opacity:0.23529412;stroke:none"
       d="M 3 23 L 3 23.400391 L 45 23.400391 L 45 23 L 3 23 z "
       transform="translate(384.57143,499.798)"
       id="rect4334" />
  </g>
</svg>
