<?xml version="1.0" encoding="UTF-8" standalone="no"?>
<!-- Created with Inkscape (http://www.inkscape.org/) -->

<svg
   xmlns:dc="http://purl.org/dc/elements/1.1/"
   xmlns:cc="http://creativecommons.org/ns#"
   xmlns:rdf="http://www.w3.org/1999/02/22-rdf-syntax-ns#"
   xmlns:svg="http://www.w3.org/2000/svg"
   xmlns="http://www.w3.org/2000/svg"
   xmlns:xlink="http://www.w3.org/1999/xlink"
   xmlns:sodipodi="http://sodipodi.sourceforge.net/DTD/sodipodi-0.dtd"
   xmlns:inkscape="http://www.inkscape.org/namespaces/inkscape"
   width="48"
   height="48"
   id="svg5453"
   version="1.1"
   inkscape:version="0.91+devel r"
   sodipodi:docname="fading-hearts.svg"
   viewBox="0 0 48 48">
  <defs
     id="defs5455">
    <linearGradient
       inkscape:collect="always"
       xlink:href="#linearGradient4106"
       id="linearGradient4080"
       x1="421.78848"
       y1="-547.83893"
       x2="421.78848"
       y2="-499.81299"
       gradientUnits="userSpaceOnUse" />
    <linearGradient
       inkscape:collect="always"
       xlink:href="#linearGradient4255"
       id="linearGradient4261"
       x1="1408.7839"
       y1="417.31012"
       x2="1408.7839"
       y2="407.33487"
       gradientUnits="userSpaceOnUse" />
    <linearGradient
       inkscape:collect="always"
       id="linearGradient4255">
      <stop
         style="stop-color:#ffffff;stop-opacity:1;"
         offset="0"
         id="stop4257" />
      <stop
         style="stop-color:#ffffff;stop-opacity:0;"
         offset="1"
         id="stop4259" />
    </linearGradient>
    <linearGradient
       inkscape:collect="always"
       xlink:href="#linearGradient4255"
       id="linearGradient4248"
       x1="1408.3928"
       y1="377.66589"
       x2="1408.3928"
       y2="392.52325"
       gradientUnits="userSpaceOnUse" />
    <filter
       inkscape:collect="always"
       id="filter4283"
       x="-0.0091646342"
       width="1.0183293"
       y="-0.017375723"
       height="1.0347514">
      <feGaussianBlur
         inkscape:collect="always"
         stdDeviation="0.1565625"
         id="feGaussianBlur4285" />
    </filter>
    <linearGradient
       inkscape:collect="always"
       xlink:href="#linearGradient4173"
       id="linearGradient4179"
       x1="1401.7858"
       y1="712.84607"
       x2="1401.7858"
       y2="686.29077"
       gradientUnits="userSpaceOnUse"
       gradientTransform="matrix(0.7343874,0,0,0.7343874,-620.22654,6.04413)" />
    <linearGradient
       inkscape:collect="always"
       id="linearGradient4173">
      <stop
         style="stop-color:#efbdbd;stop-opacity:1"
         offset="0"
         id="stop4175" />
      <stop
         style="stop-color:#fbebeb;stop-opacity:1"
         offset="1"
         id="stop4177" />
    </linearGradient>
    <linearGradient
       inkscape:collect="always"
       id="linearGradient4106">
      <stop
         style="stop-color:#cc6969;stop-opacity:1"
         offset="0"
         id="stop4108" />
      <stop
         style="stop-color:#e28080;stop-opacity:1"
         offset="1"
         id="stop4110" />
    </linearGradient>
  </defs>
  <sodipodi:namedview
     id="base"
     pagecolor="#ffffff"
     bordercolor="#666666"
     borderopacity="1.0"
     inkscape:pageopacity="0"
     inkscape:pageshadow="2"
     inkscape:zoom="11.5"
     inkscape:cx="27.771826"
     inkscape:cy="15.907992"
     inkscape:document-units="px"
     inkscape:current-layer="layer1"
     showgrid="false"
     fit-margin-top="0"
     fit-margin-left="0"
     fit-margin-right="0"
     fit-margin-bottom="0"
     inkscape:window-width="2560"
     inkscape:window-height="957"
     inkscape:window-x="-4"
     inkscape:window-y="29"
     inkscape:window-maximized="1"
     inkscape:showpageshadow="false"
     borderlayer="true" />
  <metadata
     id="metadata5458">
    <rdf:RDF>
      <cc:Work
         rdf:about="">
        <dc:format>image/svg+xml</dc:format>
        <dc:type
           rdf:resource="http://purl.org/dc/dcmitype/StillImage" />
        <dc:title />
      </cc:Work>
    </rdf:RDF>
  </metadata>
  <g
     inkscape:label="Capa 1"
     inkscape:groupmode="layer"
     id="layer1"
     transform="translate(-384.57143,-499.798)">
    <rect
       style="fill:url(#linearGradient4080);fill-opacity:1.0;stroke:none"
       id="rect2991-1-7"
       width="48"
       height="48"
       x="384.57144"
       y="-547.79797"
       ry="1.9445436"
       transform="scale(1,-1)" />
    <path
       d="m 423.29216,512.43667 c -1.74898,-1.76585 -4.07532,-2.73867 -6.54862,-2.73867 -2.47371,0 -4.79954,0.97282 -6.54818,2.73867 -0.65389,0.66045 -1.19902,1.40193 -1.62398,2.20229 -0.42478,-0.80036 -0.96982,-1.54184 -1.62379,-2.20229 -1.74865,-1.76585 -4.07447,-2.73867 -6.54786,-2.73867 -2.4732,0 -4.79988,0.97282 -6.54852,2.73867 -1.74864,1.76585 -2.71345,4.11374 -2.71345,6.61129 0,2.49764 0.96481,4.84552 2.71345,6.61128 l 13.12368,14.13551 c 0.41152,0.44835 0.99245,0.70325 1.59649,0.70325 0.60466,0 1.18516,-0.2549 1.59669,-0.70325 l 13.12409,-14.13551 c 1.74856,-1.76576 2.71294,-4.11364 2.71294,-6.61128 0,-2.49755 -0.96438,-4.84544 -2.71294,-6.61129"
       style="fill:#000000;fill-opacity:0.05882353;fill-rule:nonzero;stroke:none;stroke-width:0.85446733"
       id="path4282"
       inkscape:connector-curvature="0" />
    <path
       inkscape:connector-curvature="0"
       id="path4280"
       style="fill:#000000;fill-opacity:0.11764706;fill-rule:nonzero;stroke:none;stroke-width:0.85446733"
       d="m 423.29216,512.03667 c -1.74898,-1.76585 -4.07532,-2.73867 -6.54862,-2.73867 -2.47371,0 -4.79954,0.97282 -6.54818,2.73867 -0.65389,0.66045 -1.19902,1.40193 -1.62398,2.20229 -0.42478,-0.80036 -0.96982,-1.54184 -1.62379,-2.20229 -1.74865,-1.76585 -4.07447,-2.73867 -6.54786,-2.73867 -2.4732,0 -4.79988,0.97282 -6.54852,2.73867 -1.74864,1.76585 -2.71345,4.11374 -2.71345,6.61129 0,2.49764 0.96481,4.84552 2.71345,6.61128 l 13.12368,14.13551 c 0.41152,0.44835 0.99245,0.70325 1.59649,0.70325 0.60466,0 1.18516,-0.2549 1.59669,-0.70325 l 13.12409,-14.13551 c 1.74856,-1.76576 2.71294,-4.11364 2.71294,-6.61128 0,-2.49755 -0.96438,-4.84544 -2.71294,-6.61129" />
    <path
       inkscape:connector-curvature="0"
       style="fill:#000000;fill-opacity:1;stroke:none"
       d="m 384.57143,544.79799 0,1.0625 c 0,1.0773 0.86022,1.9375 1.9375,1.9375 l 44.125,0 c 1.07728,0 1.9375,-0.8602 1.9375,-1.9375 l 0,-1.0625 c 0,1.0773 -0.86022,1.9375 -1.9375,1.9375 l -44.125,0 c -1.07728,0 -1.9375,-0.8602 -1.9375,-1.9375 z"
       id="rect846" />
    <path
       inkscape:connector-curvature="0"
       style="fill:#ffffff;fill-opacity:0.5372549;stroke:none"
       d="m 387.10268,500.45429 c -0.91709,0 -1.67115,0.6395 -1.84375,1.5 0.33561,-0.2799 0.77451,-0.4375 1.25,-0.4375 l 44.125,0 c 0.47549,0 0.91439,0.1576 1.25,0.4375 -0.1726,-0.8605 -0.92666,-1.5 -1.84375,-1.5 l -42.9375,0 z"
       id="path7515" />
    <path
       inkscape:connector-curvature="0"
       style="fill:#000000;fill-opacity:0.39215686;stroke:none"
       d="m 386.50893,499.79799 c -1.07728,0 -1.9375,0.8602 -1.9375,1.9375 l 0,43.0625 c 0,0.7934 0.48002,1.449 1.15625,1.75 -0.30934,-0.3333 -0.5,-0.7824 -0.5,-1.2812 l 0,-42.9375 c 0,-1.0482 0.8269,-1.875 1.875,-1.875 l 42.9375,0 c 1.0481,0 1.875,0.8268 1.875,1.875 l 0,42.9375 c 0,0.4988 -0.19066,0.9479 -0.5,1.2812 0.67623,-0.301 1.15625,-0.9566 1.15625,-1.75 l 0,-43.0625 c 0,-1.0773 -0.86022,-1.9375 -1.9375,-1.9375 l -44.125,0 z"
       id="rect4280" />
    <path
       d="m 423.29216,511.63667 c -1.74898,-1.76585 -4.07532,-2.73867 -6.54862,-2.73867 -2.47371,0 -4.79954,0.97282 -6.54818,2.73867 -0.65389,0.66045 -1.19902,1.40193 -1.62398,2.20229 -0.42478,-0.80036 -0.96982,-1.54184 -1.62379,-2.20229 -1.74865,-1.76585 -4.07447,-2.73867 -6.54786,-2.73867 -2.4732,0 -4.79988,0.97282 -6.54852,2.73867 -1.74864,1.76585 -2.71345,4.11374 -2.71345,6.61129 0,2.49764 0.96481,4.84552 2.71345,6.61128 l 13.12368,14.13551 c 0.41152,0.44835 0.99245,0.70325 1.59649,0.70325 0.60466,0 1.18516,-0.2549 1.59669,-0.70325 l 13.12409,-14.13551 c 1.74856,-1.76576 2.71294,-4.11364 2.71294,-6.61128 0,-2.49755 -0.96438,-4.84544 -2.71294,-6.61129"
       style="fill:#000000;fill-opacity:0.23529412;fill-rule:nonzero;stroke:none;stroke-width:0.85446733"
       id="path4205"
       inkscape:connector-curvature="0" />
    <g
       id="g4275"
       transform="matrix(1.1858571,0,0,1.1858571,-75.943265,-96.294687)">
      <path
         d="m 420.97357,512.46399 c -1.47352,-1.47368 -3.43342,-2.28552 -5.51714,-2.28552 -2.08408,0 -4.04358,0.81184 -5.51678,2.28552 -0.55092,0.55116 -1.01018,1.16996 -1.3682,1.8379 -0.35788,-0.66794 -0.81708,-1.28674 -1.36804,-1.8379 -1.47322,-1.47368 -3.4327,-2.28552 -5.5165,-2.28552 -2.08366,0 -4.04386,0.81184 -5.51708,2.28552 -1.47322,1.47368 -2.28604,3.43308 -2.28604,5.51738 0,2.08438 0.81282,4.04378 2.28604,5.51738 l 11.05658,11.79662 c 0.3467,0.37416 0.83614,0.58688 1.34504,0.58688 0.50942,0 0.99848,-0.21272 1.34518,-0.58688 l 11.05694,-11.79662 c 1.47314,-1.4736 2.28562,-3.433 2.28562,-5.51738 0,-2.0843 -0.81248,-4.0437 -2.28562,-5.51738"
         style="fill:url(#linearGradient4179);fill-opacity:1;fill-rule:nonzero;stroke:none;stroke-width:0.25"
         id="path292"
         inkscape:connector-curvature="0" />
      <path
         inkscape:connector-curvature="0"
         id="path4235"
         transform="matrix(0.7164755,0,0,0.7164755,-599.97354,238.33191)"
         d="m 1398.0312,379.4375 c -2.9082,0 -5.6312,1.13067 -7.6874,3.1875 -2.0562,2.05684 -3.1876,4.7784 -3.1876,7.6875 0,2.04642 0.5764,3.98899 1.625,5.6875 4.9621,3.13367 11.5983,5.0625 18.875,5.0625 7.2878,0 13.9106,-1.92044 18.875,-5.0625 1.0452,-1.69654 1.625,-3.6445 1.625,-5.6875 0,-2.9091 -1.1313,-5.63066 -3.1874,-7.6875 -2.0566,-2.05683 -4.8105,-3.1875 -7.7188,-3.1875 -2.9088,0 -5.6313,1.13067 -7.6875,3.1875 -0.7689,0.76928 -1.4066,1.63025 -1.9063,2.5625 -0.4994,-0.93225 -1.1372,-1.79322 -1.9062,-2.5625 -2.0562,-2.05683 -4.8103,-3.1875 -7.7188,-3.1875 z"
         style="fill:url(#linearGradient4248);fill-opacity:1;fill-rule:nonzero;stroke:none;filter:url(#filter4283)" />
      <path
         inkscape:connector-curvature="0"
         id="path4250"
         transform="matrix(0.7164755,0,0,0.7164755,-599.97354,238.33191)"
         d="m 1387.1875,389.125 c -0.041,0.38735 -0.031,0.79246 -0.031,1.1875 0,2.90921 1.1314,5.63077 3.1876,7.6875 l 15.4374,16.46875 c 0.4839,0.52222 1.1647,0.84375 1.875,0.84375 0.7111,0 1.3911,-0.32153 1.875,-0.84375 L 1424.9688,398 c 2.0561,-2.05673 3.1875,-4.77829 3.1874,-7.6875 0,-0.39504 -0.021,-0.80015 -0.062,-1.1875 -0.257,2.47696 -1.3408,4.77766 -3.125,6.5625 l -15.4376,16.46875 c -0.4839,0.52222 -1.1639,0.8125 -1.875,0.8125 -0.7103,0 -1.3911,-0.29028 -1.875,-0.8125 l -15.4378,-16.46875 c -1.7844,-1.78484 -2.8992,-4.08554 -3.1563,-6.5625 z"
         style="opacity:0.85;fill:url(#linearGradient4261);fill-opacity:1;fill-rule:nonzero;stroke:none" />
    </g>
  </g>
</svg>
