<?xml version="1.0" encoding="UTF-8" standalone="no"?>
<!-- Created with Inkscape (http://www.inkscape.org/) -->

<svg
   xmlns:dc="http://purl.org/dc/elements/1.1/"
   xmlns:cc="http://creativecommons.org/ns#"
   xmlns:rdf="http://www.w3.org/1999/02/22-rdf-syntax-ns#"
   xmlns:svg="http://www.w3.org/2000/svg"
   xmlns="http://www.w3.org/2000/svg"
   xmlns:xlink="http://www.w3.org/1999/xlink"
   xmlns:sodipodi="http://sodipodi.sourceforge.net/DTD/sodipodi-0.dtd"
   xmlns:inkscape="http://www.inkscape.org/namespaces/inkscape"
   width="48"
   height="48"
   id="svg2"
   version="1.1"
   inkscape:version="0.48+devel r12923"
   sodipodi:docname="fedora-release-notes.svg">
  <defs
     id="defs4">
    <linearGradient
       inkscape:collect="always"
       id="linearGradient4144">
      <stop
         style="stop-color:#111b2e;stop-opacity:1"
         offset="0"
         id="stop4146" />
      <stop
         style="stop-color:#152841;stop-opacity:1"
         offset="1"
         id="stop4148" />
    </linearGradient>
    <linearGradient
       id="linearGradient4138"
       inkscape:collect="always">
      <stop
         id="stop4140"
         offset="0"
         style="stop-color:#1c2d4d;stop-opacity:1" />
      <stop
         id="stop4142"
         offset="1"
         style="stop-color:#284a79;stop-opacity:1" />
    </linearGradient>
    <linearGradient
       inkscape:collect="always"
       xlink:href="#linearGradient891"
       id="linearGradient879"
       x1="85.206367"
       y1="-1059.7451"
       x2="85.206367"
       y2="-1011.8803"
       gradientUnits="userSpaceOnUse"
       gradientTransform="matrix(1,0,0,-1,-61.559919,-1011.3916)" />
    <linearGradient
       inkscape:collect="always"
       xlink:href="#linearGradient4138"
       id="linearGradient940"
       x1="4.5"
       y1="48.125"
       x2="4.5"
       y2="0.50000012"
       gradientUnits="userSpaceOnUse" />
    <linearGradient
       inkscape:collect="always"
       xlink:href="#linearGradient4144"
       id="linearGradient991"
       x1="4.125"
       y1="48"
       x2="4.125"
       y2="0.37500012"
       gradientUnits="userSpaceOnUse" />
    <linearGradient
       id="linearGradient4169"
       inkscape:collect="always">
      <stop
         id="stop4171"
         offset="0"
         style="stop-color:#aebfe2;stop-opacity:1" />
      <stop
         id="stop4173"
         offset="1"
         style="stop-color:#f8fafc;stop-opacity:1" />
    </linearGradient>
    <linearGradient
       inkscape:collect="always"
       id="linearGradient891">
      <stop
         style="stop-color:#294172;stop-opacity:1"
         offset="0"
         id="stop893" />
      <stop
         style="stop-color:#3c6eb4;stop-opacity:1"
         offset="1"
         id="stop895" />
    </linearGradient>
    <linearGradient
       gradientUnits="userSpaceOnUse"
       y2="397.09979"
       x2="-403.76898"
       y1="427.73807"
       x1="-403.76898"
       id="linearGradient4167"
       xlink:href="#linearGradient4169"
       inkscape:collect="always"
       gradientTransform="matrix(0.68737571,0,0,0.68736466,308.99591,745.50875)" />
  </defs>
  <sodipodi:namedview
     id="base"
     pagecolor="#ffffff"
     bordercolor="#666666"
     borderopacity="1.0"
     inkscape:pageopacity="0.0"
     inkscape:pageshadow="2"
     inkscape:zoom="3.014375"
     inkscape:cx="26.245845"
     inkscape:cy="15.630928"
     inkscape:document-units="px"
     inkscape:current-layer="layer1"
     showgrid="false"
     inkscape:window-width="1366"
     inkscape:window-height="669"
     inkscape:window-x="0"
     inkscape:window-y="26"
     inkscape:window-maximized="1" />
  <metadata
     id="metadata7">
    <rdf:RDF>
      <cc:Work
         rdf:about="">
        <dc:format>image/svg+xml</dc:format>
        <dc:type
           rdf:resource="http://purl.org/dc/dcmitype/StillImage" />
        <dc:title></dc:title>
      </cc:Work>
    </rdf:RDF>
  </metadata>
  <g
     inkscape:label="Capa 1"
     inkscape:groupmode="layer"
     id="layer1"
     transform="translate(0,-1004.3622)">
    <path
       style="fill:url(#linearGradient879);fill-opacity:1.0;stroke:none"
       d="M 1.9375,0 C 0.86022285,0 0,0.86022285 0,1.9375 l 0,44.125 C 0,47.139777 0.86022285,48 1.9375,48 l 44.125,0 C 47.139777,48 48,47.139777 48,46.0625 L 48,1.9375 C 48,0.86022285 47.139777,0 46.0625,0 Z"
       transform="translate(0,1004.3622)"
       id="rect2991-1"
       inkscape:connector-curvature="0"
       sodipodi:nodetypes="sssssssss" />
    <path
       style="color:#000000;fill:#000000;fill-opacity:0.62732915;fill-rule:nonzero;stroke:none;stroke-width:0.2;marker:none;visibility:visible;display:inline;overflow:visible;enable-background:accumulate"
       d="m 8.65625,1004.3622 0,48 0.1875,0 0,-48 L 8.65625,1004.3622 Z"
       id="rect1035"
       inkscape:connector-curvature="0" />
    <path
       style="fill:#ffffff;fill-opacity:1;stroke:none"
       d="m 42.75383,1004.3622 c 1.077277,0 1.9375,0.8602 1.9375,1.9375 l 0,44.125 c 0,1.0773 -0.860223,1.9375 -1.9375,1.9375 l 2.65625,0 c 1.077277,0 1.9375,-0.8602 1.9375,-1.9375 l 0,-44.125 c 0,-1.0773 -0.860223,-1.9375 -1.9375,-1.9375 L 42.75383,1004.3622 Z"
       id="path1004"
       inkscape:connector-curvature="0" />
    <path
       style="color:#000000;fill:url(#linearGradient940);fill-opacity:1.0;fill-rule:nonzero;stroke:none;stroke-width:0.2;marker:none;visibility:visible;display:inline;overflow:visible;enable-background:accumulate"
       d="M 1.9375 0 C 0.86022285 0 0 0.86022285 0 1.9375 L 0 46.0625 C 0 47.139777 0.86022285 48 1.9375 48 L 8.65625 48 L 8.65625 0 L 1.9375 0 z "
       transform="translate(0,1004.3622)"
       id="rect923" />
    <path
       style="color:#000000;fill:url(#linearGradient991);fill-opacity:1.0;fill-rule:nonzero;stroke:none;stroke-width:0.2;marker:none;visibility:visible;display:inline;overflow:visible;enable-background:accumulate;opacity:0.5"
       d="M 2.75 0 L 2.75 48 L 4.75 48 L 4.75 0 L 2.75 0 z "
       transform="translate(0,1004.3622)"
       id="rect983" />
    <path
       inkscape:connector-curvature="0"
       style="fill:#000000;fill-opacity:0.39215686;stroke:none"
       d="m 1.9374985,1004.3622 c -1.077277,0 -1.9375,0.8602 -1.9375,1.9375 l 0,43.0625 c 0,0.7934 0.480023,1.449 1.15625,1.75 -0.309342,-0.3333 -0.5,-0.7824 -0.5,-1.2812 l 0,-42.9375 c 0,-1.0482 0.826899,-1.875 1.875,-1.875 l 42.9375025,0 c 1.048101,0 1.875,0.8268 1.875,1.875 l 0,42.9375 c 0,0.4988 -0.190659,0.9479 -0.5,1.2812 0.67622,-0.301 1.15625,-0.9566 1.15625,-1.75 l 0,-43.0625 c 0,-1.0773 -0.86023,-1.9375 -1.9375,-1.9375 L 1.9374985,1004.3622 Z"
       id="rect4280-9" />
    <path
       inkscape:connector-curvature="0"
       style="fill:#000000;fill-opacity:1;stroke:none"
       d="m -1.5e-6,1049.3622 0,1.0625 c 0,1.0773 0.860223,1.9375 1.9375,1.9375 l 44.1250025,0 c 1.07727,0 1.9375,-0.8602 1.9375,-1.9375 l 0,-1.0625 c 0,1.0773 -0.86023,1.9375 -1.9375,1.9375 l -44.1250025,0 C 0.8602215,1051.2997 -1.5e-6,1050.4395 -1.5e-6,1049.3622 Z"
       id="rect846" />
    <path
       inkscape:connector-curvature="0"
       style="fill:#ffffff;fill-opacity:0.5372549;stroke:none"
       d="m 2.5312485,1005.0185 c -0.917089,0 -1.671147,0.6395 -1.84375,1.5 0.335612,-0.2799 0.774512,-0.4375 1.25,-0.4375 l 44.1250025,0 c 0.47548,0 0.91438,0.1576 1.25,0.4375 -0.17261,-0.8605 -0.92667,-1.5 -1.84375,-1.5 L 2.5312485,1005.0185 Z"
       id="path7515" />
    <path
       id="path996"
       d="m 4.75,1004.3622 0,48 0.4973981,0 0,-48 L 4.75,1004.3622 Z"
       style="color:#000000;fill:#ffffff;fill-opacity:0.07845573;fill-rule:nonzero;stroke:none;stroke-width:0.2;marker:none;visibility:visible;display:inline;overflow:visible;enable-background:accumulate"
       inkscape:connector-curvature="0" />
    <path
       inkscape:connector-curvature="0"
       style="color:#000000;fill:#000000;fill-opacity:0.07845573;fill-rule:nonzero;stroke:none;stroke-width:0.2;marker:none;visibility:visible;display:inline;overflow:visible;enable-background:accumulate"
       d="m 2.75,1004.3622 0,48 0.4973981,0 0,-48 L 2.75,1004.3622 Z"
       id="path1002" />
    <path
       inkscape:connector-curvature="0"
       id="path1014"
       d="m 43.442424,1004.3622 c 1.077277,0 1.9375,0.8602 1.9375,1.9375 l 0,44.125 c 0,1.0773 -0.860223,1.9375 -1.9375,1.9375 l 0.40625,0 c 1.077277,0 1.9375,-0.8602 1.9375,-1.9375 l 0,-44.125 c 0,-1.0773 -0.860223,-1.9375 -1.9375,-1.9375 L 43.442424,1004.3622 Z"
       style="fill:#000000;fill-opacity:0.43137255;stroke:none" />
    <path
       style="fill:#000000;fill-opacity:0.43137255;stroke:none"
       d="m 44.379924,1004.3622 c 1.077277,0 1.9375,0.8602 1.9375,1.9375 l 0,44.125 c 0,1.0773 -0.860223,1.9375 -1.9375,1.9375 l 0.40625,0 c 1.077277,0 1.9375,-0.8602 1.9375,-1.9375 l 0,-44.125 c 0,-1.0773 -0.860223,-1.9375 -1.9375,-1.9375 L 44.379924,1004.3622 Z"
       id="path1016"
       inkscape:connector-curvature="0" />
    <path
       style="fill:#000000;fill-opacity:0.19607843;stroke:none"
       d="m 41.75,1004.3622 c 0.975404,0.1047 1.71875,0.9323 1.71875,1.9375 l 0,44.125 c 0,1.0052 -0.743346,1.8328 -1.71875,1.9375 0.06179,0 0.127264,0.01 0.1875,0 0.04119,0 0.08448,0 0.125,0 0.03089,0 0.06323,0 0.09375,0 0.03044,0 0.06367,0 0.09375,0 l 0.09375,0 c 0.04119,0 0.08448,0 0.125,0 l 0.28125,0 c 1.077277,0 1.9375,-0.8602 1.9375,-1.9375 l 0,-44.125 c 0,-1.0773 -0.860223,-1.9375 -1.9375,-1.9375 l -0.28125,0 -0.21875,0 c -0.03012,-0 -0.06323,0 -0.09375,0 l -0.21875,0 L 41.75,1004.3622 Z"
       id="path1018"
       inkscape:connector-curvature="0" />
    <path
       inkscape:connector-curvature="0"
       style="fill:#000000;fill-opacity:0.05882353"
       d="m 26.189883,1019.1913 c -5.843546,0 -10.581565,4.7427 -10.585589,10.5854 l 0,8.1872 c 0.002,1.3265 1.07054,2.3983 2.398291,2.3983 l 0.04139,0 8.145926,0 c 5.844109,0 10.585586,-4.7404 10.585586,-10.5855 -1.4e-5,-5.8466 -4.739373,-10.5854 -10.585593,-10.5854 z m 3.101226,2.5222 c 0.416273,0 0.731168,0.024 1.116449,0.1241 0.561943,0.1475 0.992172,0.6221 0.992411,1.158 2.7e-4,0.6477 -0.455072,1.1164 -1.157807,1.1164 -0.334779,0 -0.460845,-0.083 -0.951053,-0.083 -1.446713,0 -2.602598,1.1998 -2.60503,2.6463 l 0,2.2743 c 0,0.2048 0.167504,0.3723 0.372149,0.3723 l 1.695337,0 c 0.641721,0 1.157302,0.473 1.157797,1.1163 0,0.6438 -0.516316,1.1577 -1.157797,1.1577 l -2.067486,0 0,2.6464 c 0,2.7437 -2.218316,5.0032 -4.961989,5.0032 -0.416348,0 -0.731148,-0.064 -1.116448,-0.1654 -0.561918,-0.1473 -1.033517,-0.6221 -1.033766,-1.1578 0,-0.6474 0.496101,-1.1164 1.199156,-1.1164 0.334462,0 0.461119,0.083 0.951058,0.083 1.446714,0 2.602771,-1.1589 2.605038,-2.6049 l 0,-2.3155 c 0,-0.2045 -0.167512,-0.3723 -0.372167,-0.3723 l -1.736688,0 c -0.641864,0 -1.157789,-0.4725 -1.157789,-1.1165 -1.78e-4,-0.6474 0.550466,-1.1577 1.199149,-1.1577 l 2.067495,0 0,-2.6465 c 0,-2.744 2.217899,-4.9622 4.961981,-4.9622 z"
       id="path4202" />
    <path
       id="path4200"
       d="m 26.189883,1018.9163 c -5.843546,0 -10.581565,4.7428 -10.585589,10.5855 l 0,8.1872 c 0.002,1.3265 1.07054,2.3983 2.398291,2.3983 l 0.04139,0 8.145926,0 c 5.844109,0 10.585586,-4.7406 10.585586,-10.5855 -1.4e-5,-5.8466 -4.739373,-10.5855 -10.585593,-10.5855 z m 3.101226,2.5223 c 0.416273,0 0.731168,0.024 1.116449,0.1241 0.561943,0.1473 0.992172,0.6221 0.992411,1.158 2.7e-4,0.6477 -0.455072,1.1163 -1.157807,1.1163 -0.334779,0 -0.460845,-0.083 -0.951053,-0.083 -1.446713,0 -2.602598,1.1997 -2.60503,2.6463 l 0,2.2742 c 0,0.2049 0.167504,0.3723 0.372149,0.3723 l 1.695337,0 c 0.641721,0 1.157302,0.473 1.157797,1.1164 0,0.6436 -0.516316,1.1577 -1.157797,1.1577 l -2.067486,0 0,2.6463 c 0,2.7437 -2.218316,5.0033 -4.961989,5.0033 -0.416348,0 -0.731148,-0.064 -1.116448,-0.1655 -0.561918,-0.1472 -1.033517,-0.622 -1.033766,-1.1577 0,-0.6474 0.496101,-1.1164 1.199156,-1.1164 0.334462,0 0.461119,0.082 0.951058,0.082 1.446714,0 2.602771,-1.1587 2.605038,-2.6049 l 0,-2.3154 c 0,-0.2046 -0.167512,-0.3722 -0.372167,-0.3722 l -1.736688,0 c -0.641864,0 -1.157789,-0.4727 -1.157789,-1.1165 -1.78e-4,-0.6475 0.550466,-1.1579 1.199149,-1.1579 l 2.067495,0 0,-2.6463 c 0,-2.744 2.217899,-4.9622 4.961981,-4.9622 z"
       style="fill:#000000;fill-opacity:0.11764706"
       inkscape:connector-curvature="0" />
    <path
       inkscape:connector-curvature="0"
       style="fill:#000000;fill-opacity:0.23529412"
       d="m 26.189883,1018.6414 c -5.843546,0 -10.581565,4.7428 -10.585589,10.5855 l 0,8.187 c 0.002,1.3267 1.07054,2.3985 2.398291,2.3985 l 0.04139,0 8.145926,0 c 5.844109,0 10.585586,-4.7407 10.585586,-10.5855 -1.4e-5,-5.8466 -4.739373,-10.5855 -10.585593,-10.5855 z m 3.101226,2.5223 c 0.416273,0 0.731168,0.024 1.116449,0.124 0.561943,0.1474 0.992172,0.6222 0.992411,1.158 2.7e-4,0.6477 -0.455072,1.1164 -1.157807,1.1164 -0.334779,0 -0.460845,-0.083 -0.951053,-0.083 -1.446713,0 -2.602598,1.1998 -2.60503,2.6463 l 0,2.2743 c 0,0.2049 0.167504,0.3722 0.372149,0.3722 l 1.695337,0 c 0.641721,0 1.157302,0.4731 1.157797,1.1165 0,0.6435 -0.516316,1.1577 -1.157797,1.1577 l -2.067486,0 0,2.6462 c 0,2.7438 -2.218316,5.0034 -4.961989,5.0034 -0.416348,0 -0.731148,-0.064 -1.116448,-0.1656 -0.561918,-0.1471 -1.033517,-0.6219 -1.033766,-1.1576 0,-0.6476 0.496101,-1.1164 1.199156,-1.1164 0.334462,0 0.461119,0.083 0.951058,0.083 1.446714,0 2.602771,-1.1587 2.605038,-2.6049 l 0,-2.3155 c 0,-0.2046 -0.167512,-0.3721 -0.372167,-0.3721 l -1.736688,0 c -0.641864,0 -1.157789,-0.4728 -1.157789,-1.1165 -1.78e-4,-0.6476 0.550466,-1.158 1.199149,-1.158 l 2.067495,0 0,-2.6462 c 0,-2.744 2.217899,-4.9622 4.961981,-4.9622 z"
       id="path4196" />
    <path
       id="path4144"
       d="m 26.189883,1018.3665 c -5.843546,0 -10.581565,4.7426 -10.585589,10.5855 l 0,8.187 c 0.002,1.3266 1.07054,2.3984 2.398291,2.3984 l 0.04139,0 8.145926,0 c 5.844109,0 10.585586,-4.7406 10.585586,-10.5854 -1.4e-5,-5.8467 -4.739373,-10.5855 -10.585593,-10.5855 z m 3.101226,2.5223 c 0.416273,0 0.731168,0.024 1.116449,0.1239 0.561943,0.1474 0.992172,0.6223 0.992411,1.1581 2.7e-4,0.6477 -0.455072,1.1164 -1.157807,1.1164 -0.334779,0 -0.460845,-0.083 -0.951053,-0.083 -1.446713,0 -2.602598,1.1997 -2.60503,2.6463 l 0,2.2743 c 0,0.2048 0.167504,0.3722 0.372149,0.3722 l 1.695337,0 c 0.641721,0 1.157302,0.473 1.157797,1.1165 0,0.6435 -0.516316,1.1576 -1.157797,1.1576 l -2.067486,0 0,2.6463 c 0,2.7437 -2.218316,5.0034 -4.961989,5.0034 -0.416348,0 -0.731148,-0.064 -1.116448,-0.1656 -0.561918,-0.1472 -1.033517,-0.6219 -1.033766,-1.1577 0,-0.6476 0.496101,-1.1163 1.199156,-1.1163 0.334462,0 0.461119,0.082 0.951058,0.082 1.446714,0 2.602771,-1.1586 2.605038,-2.6049 l 0,-2.3155 c 0,-0.2044 -0.167512,-0.3721 -0.372167,-0.3721 l -1.736688,0 c -0.641864,0 -1.157789,-0.4727 -1.157789,-1.1164 -1.78e-4,-0.6476 0.550466,-1.158 1.199149,-1.158 l 2.067495,0 0,-2.6462 c 0,-2.7441 2.217899,-4.9621 4.961981,-4.9621 z"
       style="fill:url(#linearGradient4167);fill-opacity:1"
       inkscape:connector-curvature="0" />
    <path
       style="fill:#294171;fill-opacity:0.31372549"
       d="m 29.283072,1020.3339 c -2.744079,0 -4.961994,2.2179 -4.961994,4.9621 l 0,0.5586 c 0,-2.7443 2.217915,-4.9618 4.961994,-4.9618 0.416276,0 0.731706,0.01 1.116987,0.1071 0.475312,0.1249 0.860278,0.4918 0.966619,0.9236 0.02324,-0.095 0.04304,-0.1951 0.04296,-0.3004 -2.4e-4,-0.536 -0.447639,-1.0127 -1.009583,-1.1602 -0.385281,-0.1005 -0.700711,-0.129 -1.116985,-0.129 z m -2.599138,7.2392 0,0.5367 c 0,0.2048 0.160522,0.3868 0.365166,0.3868 l 1.696962,0 c 0.544578,0 0.991792,0.3414 1.116983,0.8376 0.02227,-0.09 0.04295,-0.1816 0.04295,-0.2793 -4.95e-4,-0.6434 -0.518227,-1.1166 -1.159946,-1.1166 l -1.69696,0 c -0.204645,0 -0.365168,-0.1607 -0.365168,-0.3652 z m -4.424984,0.3652 c -0.648681,0 -1.203085,0.5124 -1.202905,1.1596 0,0.097 0.02085,0.1912 0.04296,0.2791 0.132224,-0.507 0.609125,-0.8804 1.159947,-0.8804 l 2.062127,0 0,-0.5583 -2.062127,0 z m 14.499332,0.7302 c -0.147916,5.7157 -4.817494,10.3083 -10.568399,10.3105 l -8.141109,0 -0.04295,0 c -1.327749,0 -2.403754,-1.0579 -2.405815,-2.3845 l 0,0.5371 c 0.002,1.3265 1.078066,2.4058 2.405815,2.4058 l 0.04295,0 8.141109,0 c 5.844109,0 10.589882,-4.745 10.589882,-10.5897 0,-0.095 -0.01898,-0.1847 -0.02144,-0.2792 z M 24.321078,1032.9 c -0.002,1.446 -1.152425,2.6206 -2.599138,2.6206 -0.489942,0 -0.61068,-0.086 -0.945143,-0.086 -0.703055,0 -1.202906,0.4693 -1.202906,1.1168 4e-5,0.083 0.02193,0.1576 0.04295,0.2362 0.128841,-0.4869 0.571381,-0.8162 1.159947,-0.8162 0.334462,0 0.4552,0.086 0.94514,0.086 1.446713,0 2.596872,-1.1529 2.59914,-2.5991 l 0,-0.5584 z"
       id="path4175"
       inkscape:connector-curvature="0" />
    <path
       inkscape:connector-curvature="0"
       style="fill:#ffffff;fill-opacity:0.23529412"
       d="m 26.189883,1018.3622 c -5.843546,0 -10.585864,4.747 -10.589883,10.5898 l 0,0.2792 c 0.0038,-5.8428 4.746337,-10.5898 10.589883,-10.5898 5.796239,0 10.509794,4.6619 10.589882,10.4395 5.28e-4,-0.043 0,-0.085 0,-0.1289 -1.5e-5,-5.8467 -4.743662,-10.5898 -10.589882,-10.5898 z m 5.198278,3.9524 c -0.06552,0.568 -0.491889,0.9665 -1.138466,0.9665 -0.334779,0 -0.476415,-0.086 -0.966623,-0.086 -1.446714,0 -2.596705,1.217 -2.599138,2.6637 l 0,0.2578 c 0.0025,-1.4466 1.152424,-2.6422 2.599138,-2.6422 0.490208,0 0.631844,0.086 0.966623,0.086 0.702737,0 1.160213,-0.469 1.159947,-1.1167 -2e-5,-0.045 -0.01558,-0.085 -0.02149,-0.1289 z m -1.503636,7.4536 c -0.07364,0.571 -0.54825,1.0095 -1.138463,1.0095 l -2.062128,0 0,0.258 2.062128,0 c 0.641476,0 1.159946,-0.4949 1.159946,-1.1385 -3.4e-5,-0.044 -0.01672,-0.086 -0.02149,-0.129 z m -8.807001,0.042 c -0.0049,0.043 -0.02149,0.084 -0.02149,0.1289 0,0.644 0.518082,1.1172 1.159947,1.1172 l 1.73992,0 c 0.204651,0 0.365168,0.1607 0.365168,0.3652 l 0,-0.2794 c 0,-0.2044 -0.160517,-0.3651 -0.365168,-0.3651 l -1.73992,0 c -0.590568,0 -1.064884,-0.4013 -1.138466,-0.9668 z m 5.60641,3.6089 c 0,0.1714 -0.0046,0.3481 -0.02149,0.5153 0.0038,-0.082 0.02149,-0.1541 0.02149,-0.2361 l 0,-0.2792 z m -0.02149,0.5153 c -0.253758,2.509 -2.368318,4.4896 -4.940513,4.4896 -0.41635,0 -0.731684,-0.072 -1.116986,-0.172 -0.514804,-0.1348 -0.939398,-0.5514 -1.009583,-1.0311 -0.0061,0.05 -0.02149,0.099 -0.02149,0.1506 2.47e-4,0.5356 0.469147,1.0125 1.031063,1.1596 0.385301,0.1011 0.700635,0.172 1.116986,0.172 2.661493,0 4.813076,-2.1367 4.940512,-4.7687 z"
       id="path4191" />
  </g>
</svg>
