<?xml version="1.0" encoding="UTF-8" standalone="no"?>
<!-- Created with Inkscape (http://www.inkscape.org/) -->

<svg
   xmlns:dc="http://purl.org/dc/elements/1.1/"
   xmlns:cc="http://creativecommons.org/ns#"
   xmlns:rdf="http://www.w3.org/1999/02/22-rdf-syntax-ns#"
   xmlns:svg="http://www.w3.org/2000/svg"
   xmlns="http://www.w3.org/2000/svg"
   xmlns:xlink="http://www.w3.org/1999/xlink"
   xmlns:sodipodi="http://sodipodi.sourceforge.net/DTD/sodipodi-0.dtd"
   xmlns:inkscape="http://www.inkscape.org/namespaces/inkscape"
   width="48.000011"
   height="48.000008"
   id="svg10357"
   version="1.1"
   inkscape:version="0.48+devel r12923"
   sodipodi:docname="fedora-utils.svg">
  <defs
     id="defs10359">
    <linearGradient
       id="linearGradient4085"
       inkscape:collect="always">
      <stop
         id="stop4087"
         offset="0"
         style="stop-color:#d4dde4;stop-opacity:1" />
      <stop
         id="stop4089"
         offset="1"
         style="stop-color:#f9fafb;stop-opacity:1" />
    </linearGradient>
    <linearGradient
       inkscape:collect="always"
       xlink:href="#linearGradient4165"
       id="linearGradient848"
       x1="-408.46823"
       y1="-436.35776"
       x2="-408.46823"
       y2="-388.49387"
       gradientUnits="userSpaceOnUse" />
    <linearGradient
       inkscape:collect="always"
       xlink:href="#linearGradient4085"
       id="linearGradient4167"
       x1="-398.24799"
       y1="428.11758"
       x2="-398.24799"
       y2="396.9567"
       gradientUnits="userSpaceOnUse" />
    <linearGradient
       inkscape:collect="always"
       id="linearGradient4165">
      <stop
         style="stop-color:#1a232a;stop-opacity:1"
         offset="0"
         id="stop4167" />
      <stop
         style="stop-color:#8ea0b2;stop-opacity:1"
         offset="1"
         id="stop4169" />
    </linearGradient>
  </defs>
  <sodipodi:namedview
     id="base"
     pagecolor="#ffffff"
     bordercolor="#666666"
     borderopacity="1.0"
     inkscape:pageopacity="0.0"
     inkscape:pageshadow="2"
     inkscape:zoom="5.8952592"
     inkscape:cx="24.475423"
     inkscape:cy="41.247151"
     inkscape:document-units="px"
     inkscape:current-layer="layer1"
     showgrid="false"
     width="0px"
     height="0px"
     fit-margin-top="0"
     fit-margin-left="0"
     fit-margin-right="0"
     fit-margin-bottom="0"
     inkscape:window-width="1366"
     inkscape:window-height="669"
     inkscape:window-x="0"
     inkscape:window-y="26"
     inkscape:window-maximized="1" />
  <metadata
     id="metadata10362">
    <rdf:RDF>
      <cc:Work
         rdf:about="">
        <dc:format>image/svg+xml</dc:format>
        <dc:type
           rdf:resource="http://purl.org/dc/dcmitype/StillImage" />
        <cc:license
           rdf:resource="" />
        <dc:title />
      </cc:Work>
    </rdf:RDF>
  </metadata>
  <g
     inkscape:label="Capa 1"
     inkscape:groupmode="layer"
     id="layer1"
     transform="translate(435.42857,-388.36218)">
    <rect
       style="fill:url(#linearGradient848);fill-opacity:1.0;stroke:none"
       id="rect2991-1"
       width="48"
       height="48"
       x="-435.42856"
       y="-436.36218"
       ry="1.9445436"
       transform="scale(1,-1)" />
    <path
       inkscape:connector-curvature="0"
       style="fill:#000000;fill-opacity:0.05882353"
       d="m -411.42857,398.16219 c -8.50124,0 -15.39415,6.89956 -15.4,15.4 l 0,11.91095 c 0.003,1.92994 1.55743,3.48905 3.48905,3.48905 l 0.0602,0 11.85076,0 c 8.50206,-0.003 15.4,-6.89682 15.4,-15.4 C -396.02858,405.05643 -402.92344,398.16219 -411.42857,398.16219 z m 4.51169,3.66952 c 0.6056,0 1.06371,0.034 1.62422,0.18046 0.81752,0.21448 1.44342,0.90489 1.44377,1.68443 3.9e-4,0.94238 -0.66204,1.62416 -1.68439,1.62416 -0.48704,0 -0.67044,-0.12035 -1.3836,-0.12035 -2.10469,0 -3.78628,1.74537 -3.78982,3.84999 l 0,3.30858 c 0,0.29791 0.24369,0.54143 0.54141,0.54143 l 2.46639,0 c 0.93358,0 1.68365,0.68817 1.68437,1.62422 0,0.93645 -0.75114,1.68436 -1.68437,1.68436 l -3.0078,0 0,3.84999 c 0,3.99164 -3.22722,7.27892 -7.21874,7.27892 -0.60571,0 -1.06368,-0.0937 -1.62422,-0.2407 -0.81748,-0.21422 -1.50357,-0.90505 -1.50393,-1.68437 0,-0.94215 0.72173,-1.62423 1.74454,-1.62423 0.48658,0 0.67084,0.12074 1.38361,0.12074 2.10469,0 3.78653,-1.68593 3.78983,-3.78983 l 0,-3.36877 c 0,-0.29724 -0.2437,-0.5414 -0.54143,-0.5414 l -2.52655,0 c -0.93379,0 -1.68436,-0.68755 -1.68436,-1.62422 -2.6e-4,-0.94189 0.80082,-1.68438 1.74453,-1.68438 l 3.00781,0 0,-3.85 C -414.13561,405.0585 -410.90899,401.83171 -406.91688,401.83171 Z"
       id="path4202" />
    <path
       id="path4200"
       d="m -411.42857,397.76219 c -8.50124,0 -15.39415,6.89956 -15.4,15.4 l 0,11.91095 c 0.003,1.92994 1.55743,3.48905 3.48905,3.48905 l 0.0602,0 11.85076,0 c 8.50206,-0.003 15.4,-6.89682 15.4,-15.4 C -396.02858,404.65643 -402.92344,397.76219 -411.42857,397.76219 z m 4.51169,3.66952 c 0.6056,0 1.06371,0.034 1.62422,0.18046 0.81752,0.21448 1.44342,0.90489 1.44377,1.68443 3.9e-4,0.94238 -0.66204,1.62416 -1.68439,1.62416 -0.48704,0 -0.67044,-0.12035 -1.3836,-0.12035 -2.10469,0 -3.78628,1.74537 -3.78982,3.84999 l 0,3.30858 c 0,0.29791 0.24369,0.54143 0.54141,0.54143 l 2.46639,0 c 0.93358,0 1.68365,0.68817 1.68437,1.62422 0,0.93645 -0.75114,1.68436 -1.68437,1.68436 l -3.0078,0 0,3.84999 c 0,3.99164 -3.22722,7.27892 -7.21874,7.27892 -0.60571,0 -1.06368,-0.0937 -1.62422,-0.2407 -0.81748,-0.21422 -1.50357,-0.90505 -1.50393,-1.68437 0,-0.94215 0.72173,-1.62423 1.74454,-1.62423 0.48658,0 0.67084,0.12074 1.38361,0.12074 2.10469,0 3.78653,-1.68593 3.78983,-3.78983 l 0,-3.36877 c 0,-0.29724 -0.2437,-0.5414 -0.54143,-0.5414 l -2.52655,0 c -0.93379,0 -1.68436,-0.68755 -1.68436,-1.62422 -2.6e-4,-0.94189 0.80082,-1.68438 1.74453,-1.68438 l 3.00781,0 0,-3.85 C -414.13561,404.6585 -410.90899,401.43171 -406.91688,401.43171 Z"
       style="fill:#000000;fill-opacity:0.11764706"
       inkscape:connector-curvature="0" />
    <path
       inkscape:connector-curvature="0"
       style="fill:#000000;fill-opacity:0.23529412"
       d="m -411.42857,397.36219 c -8.50124,0 -15.39415,6.89956 -15.4,15.4 l 0,11.91095 c 0.003,1.92994 1.55743,3.48905 3.48905,3.48905 l 0.0602,0 11.85076,0 c 8.50206,-0.003 15.4,-6.89682 15.4,-15.4 C -396.02858,404.25643 -402.92344,397.36219 -411.42857,397.36219 z m 4.51169,3.66952 c 0.6056,0 1.06371,0.034 1.62422,0.18046 0.81752,0.21448 1.44342,0.90489 1.44377,1.68443 3.9e-4,0.94238 -0.66204,1.62416 -1.68439,1.62416 -0.48704,0 -0.67044,-0.12035 -1.3836,-0.12035 -2.10469,0 -3.78628,1.74537 -3.78982,3.84999 l 0,3.30858 c 0,0.29791 0.24369,0.54143 0.54141,0.54143 l 2.46639,0 c 0.93358,0 1.68365,0.68817 1.68437,1.62422 0,0.93645 -0.75114,1.68436 -1.68437,1.68436 l -3.0078,0 0,3.84999 c 0,3.99164 -3.22722,7.27892 -7.21874,7.27892 -0.60571,0 -1.06368,-0.0937 -1.62422,-0.2407 -0.81748,-0.21422 -1.50357,-0.90505 -1.50393,-1.68437 0,-0.94215 0.72173,-1.62423 1.74454,-1.62423 0.48658,0 0.67084,0.12074 1.38361,0.12074 2.10469,0 3.78653,-1.68593 3.78983,-3.78983 l 0,-3.36877 c 0,-0.29724 -0.2437,-0.5414 -0.54143,-0.5414 l -2.52655,0 c -0.93379,0 -1.68436,-0.68755 -1.68436,-1.62422 -2.6e-4,-0.94189 0.80082,-1.68438 1.74453,-1.68438 l 3.00781,0 0,-3.85 C -414.13561,404.2585 -410.90899,401.03171 -406.91688,401.03171 Z"
       id="path4196" />
    <path
       id="path4144"
       d="m -411.42857,396.96218 c -8.50124,0 -15.39415,6.89956 -15.4,15.4 l 0,11.91095 c 0.003,1.92994 1.55743,3.48905 3.48905,3.48905 l 0.0602,0 11.85076,0 c 8.50206,-0.003 15.4,-6.89682 15.4,-15.4 C -396.02858,403.85642 -402.92344,396.96218 -411.42857,396.96218 z m 4.51169,3.66952 c 0.6056,0 1.06371,0.034 1.62422,0.18046 0.81752,0.21448 1.44342,0.90489 1.44377,1.68443 3.9e-4,0.94238 -0.66204,1.62416 -1.68439,1.62416 -0.48704,0 -0.67044,-0.12035 -1.3836,-0.12035 -2.10469,0 -3.78628,1.74537 -3.78982,3.84999 l 0,3.30858 c 0,0.29791 0.24369,0.54143 0.54141,0.54143 l 2.46639,0 c 0.93358,0 1.68365,0.68817 1.68437,1.62422 0,0.93645 -0.75114,1.68436 -1.68437,1.68436 l -3.0078,0 0,3.84999 c 0,3.99164 -3.22722,7.27892 -7.21874,7.27892 -0.60571,0 -1.06368,-0.0937 -1.62422,-0.2407 -0.81748,-0.21422 -1.50357,-0.90505 -1.50393,-1.68437 0,-0.94215 0.72173,-1.62423 1.74454,-1.62423 0.48658,0 0.67084,0.12074 1.38361,0.12074 2.10469,0 3.78653,-1.68593 3.78983,-3.78983 l 0,-3.36877 c 0,-0.29724 -0.2437,-0.5414 -0.54143,-0.5414 l -2.52655,0 c -0.93379,0 -1.68436,-0.68755 -1.68436,-1.62422 -2.6e-4,-0.94189 0.80082,-1.68438 1.74453,-1.68438 l 3.00781,0 0,-3.85 C -414.13561,403.85849 -410.90899,400.6317 -406.91688,400.6317 Z"
       style="fill:url(#linearGradient4167);fill-opacity:1"
       inkscape:connector-curvature="0" />
    <path
       inkscape:connector-curvature="0"
       style="fill:#000000;fill-opacity:1;stroke:none"
       d="m -435.42857,433.36219 0,1.0625 c 0,1.0773 0.86022,1.9375 1.9375,1.9375 l 44.125,0 c 1.07728,0 1.9375,-0.8602 1.9375,-1.9375 l 0,-1.0625 c 0,1.0773 -0.86022,1.9375 -1.9375,1.9375 l -44.125,0 C -434.56835,435.29969 -435.42857,434.43949 -435.42857,433.36219 Z"
       id="rect846" />
    <path
       inkscape:connector-curvature="0"
       style="fill:#ffffff;fill-opacity:0.5372549;stroke:none"
       d="m -432.89732,389.01849 c -0.91709,0 -1.67115,0.6395 -1.84375,1.5 0.33561,-0.2799 0.77451,-0.4375 1.25,-0.4375 l 44.125,0 c 0.47549,0 0.91439,0.1576 1.25,0.4375 -0.1726,-0.8605 -0.92666,-1.5 -1.84375,-1.5 L -432.89732,389.01849 Z"
       id="path7515" />
    <path
       inkscape:connector-curvature="0"
       style="fill:#000000;fill-opacity:0.39215686;stroke:none"
       d="m -433.49107,388.36219 c -1.07728,0 -1.9375,0.8602 -1.9375,1.9375 l 0,43.0625 c 0,0.7934 0.48002,1.449 1.15625,1.75 -0.30934,-0.3333 -0.5,-0.7824 -0.5,-1.2812 l 0,-42.9375 c 0,-1.0482 0.8269,-1.875 1.875,-1.875 l 42.9375,0 c 1.0481,0 1.875,0.8268 1.875,1.875 l 0,42.9375 c 0,0.4988 -0.19066,0.9479 -0.5,1.2812 0.67623,-0.301 1.15625,-0.9566 1.15625,-1.75 l 0,-43.0625 c 0,-1.0773 -0.86022,-1.9375 -1.9375,-1.9375 L -433.49107,388.36219 Z"
       id="rect4280" />
    <path
       style="fill:#2b353e;fill-opacity:0.3137255"
       d="m -406.92857,399.82468 c -3.99211,0 -7.21875,3.22651 -7.21875,7.21875 l 0,0.8125 c 0,-3.99224 3.22664,-7.21875 7.21875,-7.21875 0.6056,0 1.06449,0.01 1.625,0.15625 0.69149,0.18141 1.25154,0.71541 1.40625,1.34375 0.0338,-0.13782 0.0626,-0.28404 0.0625,-0.4375 -3.5e-4,-0.77954 -0.65123,-1.47302 -1.46875,-1.6875 C -405.86408,399.86572 -406.32297,399.82468 -406.92857,399.82468 z m -3.78125,10.53125 0,0.78125 c 0,0.29791 0.23353,0.5625 0.53125,0.5625 l 2.46875,0 c 0.79226,0 1.44287,0.49664 1.625,1.21875 0.0324,-0.13117 0.0625,-0.26449 0.0625,-0.40625 -7.2e-4,-0.93605 -0.75392,-1.625 -1.6875,-1.625 l -2.46875,0 C -410.47629,410.88718 -410.70982,410.65384 -410.70982,410.35593 z m -6.4375,0.53125 c -0.94371,0 -1.75026,0.74561 -1.75,1.6875 0,0.14131 0.0303,0.27779 0.0625,0.40625 0.19236,-0.73821 0.88616,-1.28125 1.6875,-1.28125 l 3,0 0,-0.8125 L -417.14732,410.88718 z m 21.09375,1.0625 c -0.21519,8.31573 -7.00853,14.99705 -15.375,15 l -11.84375,0 -0.0625,0 c -1.93162,0 -3.497,-1.53881 -3.5,-3.46875 l 0,0.78125 c 0.003,1.92994 1.56838,3.5 3.5,3.5 l 0.0625,0 11.84375,0 c 8.50206,-0.003 15.40625,-6.90307 15.40625,-15.40625 C -396.02232,412.21757 -396.04994,412.08716 -396.05357,411.94968 z m -18.09375,6.15625 c -0.003,2.1039 -1.67656,3.8125 -3.78125,3.8125 -0.71277,0 -0.88842,-0.125 -1.375,-0.125 -1.02281,0 -1.75,0.68285 -1.75,1.625 6e-5,0.12014 0.0319,0.22923 0.0625,0.34375 0.18744,-0.70845 0.83125,-1.1875 1.6875,-1.1875 0.48658,0 0.66223,0.125 1.375,0.125 2.10469,0 3.77795,-1.67735 3.78125,-3.78125 L -414.14732,418.10593 Z"
       id="path4175"
       inkscape:connector-curvature="0" />
    <path
       style="fill:#ffffff;fill-opacity:0.23529412"
       d="M 24 8.59375 C 15.49876 8.59375 8.5996 15.49956 8.59375 24 L 8.59375 24.40625 C 8.5996 15.90581 15.49876 9 24 9 C 32.432421 9 39.289735 15.782155 39.40625 24.1875 C 39.407018 24.124137 39.40625 24.063545 39.40625 24 C 39.40623 15.49424 32.50513 8.59375 24 8.59375 z M 31.5625 14.34375 C 31.467163 15.170017 30.846896 15.75 29.90625 15.75 C 29.41921 15.75 29.21316 15.625 28.5 15.625 C 26.39531 15.625 24.72229 17.39538 24.71875 19.5 L 24.71875 19.875 C 24.72229 17.77038 26.39531 16.03125 28.5 16.03125 C 29.21316 16.03125 29.41921 16.15625 29.90625 16.15625 C 30.9286 16.15625 31.59414 15.47363 31.59375 14.53125 C 31.593721 14.465892 31.571068 14.407627 31.5625 14.34375 z M 29.375 25.1875 C 29.26788 26.018097 28.577398 26.65625 27.71875 26.65625 L 24.71875 26.65625 L 24.71875 27.03125 L 27.71875 27.03125 C 28.65198 27.03125 29.40625 26.31145 29.40625 25.375 C 29.406201 25.310742 29.381929 25.249279 29.375 25.1875 z M 16.5625 25.25 C 16.555178 25.312603 16.531232 25.372842 16.53125 25.4375 C 16.53125 26.37417 17.28496 27.0625 18.21875 27.0625 L 20.75 27.0625 C 21.04773 27.0625 21.28125 27.29651 21.28125 27.59375 L 21.28125 27.1875 C 21.28125 26.89026 21.04773 26.65625 20.75 26.65625 L 18.21875 26.65625 C 17.359587 26.65625 16.669547 26.072601 16.5625 25.25 z M 24.71875 30.5 C 24.71875 30.749478 24.712111 31.006656 24.6875 31.25 C 24.693225 31.131772 24.71875 31.025811 24.71875 30.90625 L 24.71875 30.5 z M 24.6875 31.25 C 24.31833 34.900161 21.24205 37.78125 17.5 37.78125 C 16.89429 37.78125 16.43554 37.67825 15.875 37.53125 C 15.126059 37.334991 14.508355 36.729137 14.40625 36.03125 C 14.397245 36.103007 14.375 36.174705 14.375 36.25 C 14.37536 37.02932 15.05752 37.72328 15.875 37.9375 C 16.43554 38.0845 16.89429 38.1875 17.5 38.1875 C 21.371963 38.1875 24.502105 35.0789 24.6875 31.25 z "
       transform="translate(-435.42857,388.36218)"
       id="path4191" />
    <path
       style="fill:#010101;fill-opacity:0.56613755"
       d="m -406.91688,400.6317 c 0.6056,0 1.06371,0.034 1.62422,0.18046 0.81752,0.21448 1.44342,0.90489 1.44377,1.68443 3.9e-4,0.94238 -0.66204,1.62416 -1.68439,1.62416 -0.48704,0 -0.67044,-0.12035 -1.3836,-0.12035 -2.10469,0 -3.78628,1.74537 -3.78982,3.84999 l 0,3.30858 c 0,0.29791 0.24369,0.54143 0.54141,0.54143 l 2.46639,0 c 0.93358,0 1.68365,0.68817 1.68437,1.62422 0,0.93645 -0.75114,1.68436 -1.68437,1.68436 l -3.0078,0 0,3.84999 c 0,3.99164 -3.22722,7.27892 -7.21874,7.27892 -0.60571,0 -1.06368,-0.0937 -1.62422,-0.2407 -0.81748,-0.21422 -1.50357,-0.90505 -1.50393,-1.68437 0,-0.94215 0.72173,-1.62423 1.74454,-1.62423 0.48658,0 0.67084,0.12074 1.38361,0.12074 2.10469,0 3.78653,-1.68593 3.78983,-3.78983 l 0,-3.36877 c 0,-0.29724 -0.2437,-0.5414 -0.54143,-0.5414 l -2.52655,0 c -0.93379,0 -1.68436,-0.68755 -1.68436,-1.62422 -2.6e-4,-0.94189 0.80082,-1.68438 1.74453,-1.68438 l 3.00781,0 0,-3.85 c 0,-3.99224 3.22662,-7.21903 7.21873,-7.21903 z"
       id="path4143" />
  </g>
</svg>
