<?xml version="1.0" encoding="UTF-8" standalone="no"?>
<!-- Created with Inkscape (http://www.inkscape.org/) -->

<svg
   xmlns:dc="http://purl.org/dc/elements/1.1/"
   xmlns:cc="http://creativecommons.org/ns#"
   xmlns:rdf="http://www.w3.org/1999/02/22-rdf-syntax-ns#"
   xmlns:svg="http://www.w3.org/2000/svg"
   xmlns="http://www.w3.org/2000/svg"
   xmlns:xlink="http://www.w3.org/1999/xlink"
   xmlns:sodipodi="http://sodipodi.sourceforge.net/DTD/sodipodi-0.dtd"
   xmlns:inkscape="http://www.inkscape.org/namespaces/inkscape"
   width="48"
   height="48"
   id="svg2"
   version="1.1"
   inkscape:version="0.48+devel r12487"
   sodipodi:docname="postr.svg">
  <defs
     id="defs4">
    <linearGradient
       id="linearGradient4309"
       inkscape:collect="always">
      <stop
         id="stop4311"
         offset="0"
         style="stop-color:#d0d0d0;stop-opacity:1" />
      <stop
         id="stop4313"
         offset="1"
         style="stop-color:#f6f6f6;stop-opacity:1" />
    </linearGradient>
    <linearGradient
       inkscape:collect="always"
       id="linearGradient4295">
      <stop
         style="stop-color:#005fb8;stop-opacity:1"
         offset="0"
         id="stop4297" />
      <stop
         style="stop-color:#3e8fff;stop-opacity:1"
         offset="1"
         id="stop4299" />
    </linearGradient>
    <linearGradient
       id="linearGradient4289"
       inkscape:collect="always">
      <stop
         id="stop4291"
         offset="0"
         style="stop-color:#67b2ff;stop-opacity:1" />
      <stop
         id="stop4293"
         offset="1"
         style="stop-color:#0780ff;stop-opacity:0" />
    </linearGradient>
    <linearGradient
       inkscape:collect="always"
       xlink:href="#linearGradient4309"
       id="linearGradient845"
       x1="25.766008"
       y1="-1052.3612"
       x2="25.766008"
       y2="-1004.3607"
       gradientUnits="userSpaceOnUse" />
    <linearGradient
       gradientUnits="userSpaceOnUse"
       y2="1.9404022"
       x2="26.937496"
       y1="8.690402"
       x1="26.937496"
       id="linearGradient2193"
       xlink:href="#linearGradient2186"
       inkscape:collect="always" />
    <linearGradient
       id="linearGradient2186"
       inkscape:collect="always">
      <stop
         id="stop2189"
         offset="0"
         style="stop-color:#b7006f;stop-opacity:1" />
      <stop
         id="stop2191"
         offset="1"
         style="stop-color:#ff0089;stop-opacity:1" />
    </linearGradient>
    <linearGradient
       gradientUnits="userSpaceOnUse"
       y2="8.1876431"
       x2="26.874996"
       y1="1.6589547"
       x1="26.874996"
       id="linearGradient2203"
       xlink:href="#linearGradient2197"
       inkscape:collect="always" />
    <linearGradient
       id="linearGradient2197"
       inkscape:collect="always">
      <stop
         id="stop2199"
         offset="0"
         style="stop-color:#ffffff;stop-opacity:1;" />
      <stop
         id="stop2201"
         offset="1"
         style="stop-color:#ffffff;stop-opacity:0;" />
    </linearGradient>
    <linearGradient
       y2="8.1876431"
       x2="26.874996"
       y1="-0.72753048"
       x1="26.874996"
       gradientUnits="userSpaceOnUse"
       id="linearGradient2207"
       xlink:href="#linearGradient2197"
       inkscape:collect="always" />
    <linearGradient
       gradientTransform="matrix(1.7325521,0,0,0.551719,40.096974,1001.7794)"
       gradientUnits="userSpaceOnUse"
       y2="2.8471596"
       x2="26.871328"
       y1="5.3354774"
       x1="26.871328"
       id="linearGradient2219"
       xlink:href="#linearGradient2224"
       inkscape:collect="always" />
    <linearGradient
       inkscape:collect="always"
       id="linearGradient2224">
      <stop
         style="stop-color:#ff64b9;stop-opacity:1"
         offset="0"
         id="stop2226" />
      <stop
         style="stop-color:#ff008a;stop-opacity:0"
         offset="1"
         id="stop2228" />
    </linearGradient>
    <linearGradient
       inkscape:collect="always"
       xlink:href="#linearGradient4295"
       id="linearGradient4275"
       gradientUnits="userSpaceOnUse"
       x1="26.937496"
       y1="8.690402"
       x2="26.937496"
       y2="1.9404022" />
    <linearGradient
       inkscape:collect="always"
       xlink:href="#linearGradient2197"
       id="linearGradient4277"
       gradientUnits="userSpaceOnUse"
       x1="26.874996"
       y1="1.6589547"
       x2="26.874996"
       y2="8.1876431" />
    <linearGradient
       inkscape:collect="always"
       xlink:href="#linearGradient2197"
       id="linearGradient4279"
       gradientUnits="userSpaceOnUse"
       x1="26.874996"
       y1="-0.72753048"
       x2="26.874996"
       y2="8.1876431" />
    <linearGradient
       inkscape:collect="always"
       xlink:href="#linearGradient4289"
       id="linearGradient4281"
       gradientUnits="userSpaceOnUse"
       gradientTransform="matrix(1.7325521,0,0,0.551719,20.494576,1001.7794)"
       x1="26.871328"
       y1="5.3354774"
       x2="26.871328"
       y2="2.8471596" />
  </defs>
  <sodipodi:namedview
     id="base"
     pagecolor="#ffffff"
     bordercolor="#666666"
     borderopacity="1.0"
     inkscape:pageopacity="0.0"
     inkscape:pageshadow="2"
     inkscape:zoom="6.9259128"
     inkscape:cx="30.975953"
     inkscape:cy="19.358159"
     inkscape:document-units="px"
     inkscape:current-layer="layer1"
     showgrid="false"
     inkscape:window-width="1366"
     inkscape:window-height="718"
     inkscape:window-x="0"
     inkscape:window-y="30"
     inkscape:window-maximized="1">
    <inkscape:grid
       type="xygrid"
       id="grid3850" />
  </sodipodi:namedview>
  <metadata
     id="metadata7">
    <rdf:RDF>
      <cc:Work
         rdf:about="">
        <dc:format>image/svg+xml</dc:format>
        <dc:type
           rdf:resource="http://purl.org/dc/dcmitype/StillImage" />
        <dc:title />
      </cc:Work>
    </rdf:RDF>
  </metadata>
  <g
     inkscape:label="Capa 1"
     inkscape:groupmode="layer"
     id="layer1"
     transform="translate(0,-1004.3622)">
    <rect
       style="fill:url(#linearGradient845);fill-opacity:1;stroke:none"
       id="rect2991-1"
       width="48"
       height="48"
       x="-1.2211304e-07"
       y="-1052.3622"
       ry="1.9445436"
       transform="scale(1,-1)" />
    <path
       inkscape:connector-curvature="0"
       style="fill:#000000;fill-opacity:1;stroke:none"
       d="m -2.7e-6,1049.3622 0,1.0625 c 0,1.0773 0.860223,1.9375 1.9374999,1.9375 l 44.1250008,0 c 1.077277,0 1.937505,-0.8602 1.937505,-1.9375 l 0,-1.0625 c 0,1.0773 -0.860228,1.9375 -1.937505,1.9375 l -44.1250008,0 C 0.8602203,1051.2997 -2.7e-6,1050.4395 -2.7e-6,1049.3622 Z"
       id="rect846" />
    <path
       inkscape:connector-curvature="0"
       style="fill:#ffffff;fill-opacity:0.5372549;stroke:none"
       d="m 2.5312472,1005.0185 c -0.917088,0 -1.6711469,0.6395 -1.8437499,1.5 0.3356119,-0.2799 0.7745119,-0.4375 1.2499999,-0.4375 l 44.1250008,0 c 0.475488,0 0.914388,0.1576 1.250005,0.4375 -0.172608,-0.8605 -0.926667,-1.5 -1.843755,-1.5 L 2.5312472,1005.0185 Z"
       id="path7515" />
    <path
       inkscape:connector-curvature="0"
       style="fill:#000000;fill-opacity:0.39215686;stroke:none"
       d="m 1.9374972,1004.3622 c -1.0772769,0 -1.9374999,0.8602 -1.9374999,1.9375 l 0,43.0625 c 0,0.7934 0.480024,1.449 1.1562499,1.75 -0.3093419,-0.3333 -0.4999999,-0.7824 -0.4999999,-1.2812 l 0,-42.9375 c 0,-1.0482 0.8268989,-1.875 1.8749999,-1.875 l 42.9375008,0 c 1.048101,0 1.875005,0.8268 1.875005,1.875 l 0,42.9375 c 0,0.4988 -0.190663,0.9479 -0.500005,1.2812 0.676225,-0.301 1.156255,-0.9566 1.156255,-1.75 l 0,-43.0625 c 0,-1.0773 -0.860228,-1.9375 -1.937505,-1.9375 L 1.9374972,1004.3622 Z"
       id="rect4280-0" />
    <g
       id="g4324"
       transform="translate(-54.835308,30.643931)">
      <path
         sodipodi:type="arc"
         style="fill:#000000;fill-opacity:0.05882353"
         id="path4248"
         sodipodi:cx="26.874998"
         sodipodi:cy="5.2500019"
         sodipodi:rx="3.3749998"
         sodipodi:ry="3.3749998"
         d="m 30.249998,5.2500019 c 0,1.8639609 -1.511039,3.3749998 -3.375,3.3749998 -1.863961,0 -3.375,-1.5110389 -3.375,-3.3749998 0,-1.8639609 1.511039,-3.3749998 3.375,-3.3749998 C 28.738959,1.8750021 30.249998,3.386041 30.249998,5.2500019 Z"
         transform="matrix(2.4225186,0,0,2.4223495,21.554126,985.00093)" />
      <path
         sodipodi:type="arc"
         style="fill:#000000;fill-opacity:0.23529412"
         id="path4244"
         sodipodi:cx="26.874998"
         sodipodi:cy="5.2500019"
         sodipodi:rx="3.3749998"
         sodipodi:ry="3.3749998"
         d="m 30.249998,5.2500019 c 0,1.8639609 -1.511039,3.3749998 -3.375,3.3749998 -1.863961,0 -3.375,-1.5110389 -3.375,-3.3749998 0,-1.8639609 1.511039,-3.3749998 3.375,-3.3749998 C 28.738959,1.8750021 30.249998,3.386041 30.249998,5.2500019 Z"
         transform="matrix(2.185486,0,0,2.1853335,27.924377,986.24526)" />
      <path
         transform="matrix(2.3040002,0,0,2.3038391,24.739308,985.62311)"
         d="m 30.249998,5.2500019 c 0,1.8639609 -1.511039,3.3749998 -3.375,3.3749998 -1.863961,0 -3.375,-1.5110389 -3.375,-3.3749998 0,-1.8639609 1.511039,-3.3749998 3.375,-3.3749998 C 28.738959,1.8750021 30.249998,3.386041 30.249998,5.2500019 Z"
         sodipodi:ry="3.3749998"
         sodipodi:rx="3.3749998"
         sodipodi:cy="5.2500019"
         sodipodi:cx="26.874998"
         id="path4246"
         style="fill:#000000;fill-opacity:0.11764706"
         sodipodi:type="arc" />
      <path
         transform="matrix(2.0818241,0,0,2.081679,30.71029,986.78945)"
         d="m 30.249998,5.2500019 c 0,1.8639609 -1.511039,3.3749998 -3.375,3.3749998 -1.863961,0 -3.375,-1.5110389 -3.375,-3.3749998 0,-1.8639609 1.511039,-3.3749998 3.375,-3.3749998 C 28.738959,1.8750021 30.249998,3.386041 30.249998,5.2500019 Z"
         sodipodi:ry="3.3749998"
         sodipodi:rx="3.3749998"
         sodipodi:cy="5.2500019"
         sodipodi:cx="26.874998"
         id="path1384"
         style="fill:url(#linearGradient2193);fill-opacity:1"
         sodipodi:type="arc" />
      <path
         sodipodi:type="arc"
         style="opacity:0.628;fill:url(#linearGradient2203);fill-opacity:1"
         id="path2195"
         sodipodi:cx="26.874998"
         sodipodi:cy="5.2500019"
         sodipodi:rx="3.3749998"
         sodipodi:ry="3.3749998"
         d="m 30.249998,5.2500019 c 0,1.8639609 -1.511039,3.3749998 -3.375,3.3749998 -1.863961,0 -3.375,-1.5110389 -3.375,-3.3749998 0,-1.8639609 1.511039,-3.3749998 3.375,-3.3749998 C 28.738959,1.8750021 30.249998,3.386041 30.249998,5.2500019 Z"
         transform="matrix(1.809563,0,0,1.5761557,38.027306,988.20895)" />
      <path
         transform="matrix(1.4844795,0,0,1.2565708,46.763924,988.80826)"
         d="m 30.249998,5.2500019 c 0,1.8639609 -1.511039,3.3749998 -3.375,3.3749998 -1.863961,0 -3.375,-1.5110389 -3.375,-3.3749998 0,-1.8639609 1.511039,-3.3749998 3.375,-3.3749998 C 28.738959,1.8750021 30.249998,3.386041 30.249998,5.2500019 Z"
         sodipodi:ry="3.3749998"
         sodipodi:rx="3.3749998"
         sodipodi:cy="5.2500019"
         sodipodi:cx="26.874998"
         id="path2205"
         style="opacity:0.62000002;fill:url(#linearGradient2207);fill-opacity:1"
         sodipodi:type="arc" />
      <path
         inkscape:connector-curvature="0"
         id="path2209"
         d="m 86.659308,1002.8636 c -1.605446,0 -3.038378,0.1977 -4.098593,0.5204 1.157711,0.8397 2.558974,1.366 4.098593,1.366 1.53962,0 2.940883,-0.5263 4.098594,-1.366 C 89.697687,1003.0594 88.264755,1002.8636 86.659308,1002.8636 Z"
         style="fill:url(#linearGradient2219);fill-opacity:1" />
    </g>
    <g
       id="g4315"
       transform="translate(-50.880911,30.643931)">
      <path
         transform="matrix(2.4225186,0,0,2.4223495,1.9517277,985.00093)"
         d="m 30.249998,5.2500019 c 0,1.8639609 -1.511039,3.3749998 -3.375,3.3749998 -1.863961,0 -3.375,-1.5110389 -3.375,-3.3749998 0,-1.8639609 1.511039,-3.3749998 3.375,-3.3749998 C 28.738959,1.8750021 30.249998,3.386041 30.249998,5.2500019 Z"
         sodipodi:ry="3.3749998"
         sodipodi:rx="3.3749998"
         sodipodi:cy="5.2500019"
         sodipodi:cx="26.874998"
         id="path4261"
         style="fill:#000000;fill-opacity:0.05882353"
         sodipodi:type="arc" />
      <path
         transform="matrix(2.185486,0,0,2.1853335,8.3219787,986.24526)"
         d="m 30.249998,5.2500019 c 0,1.8639609 -1.511039,3.3749998 -3.375,3.3749998 -1.863961,0 -3.375,-1.5110389 -3.375,-3.3749998 0,-1.8639609 1.511039,-3.3749998 3.375,-3.3749998 C 28.738959,1.8750021 30.249998,3.386041 30.249998,5.2500019 Z"
         sodipodi:ry="3.3749998"
         sodipodi:rx="3.3749998"
         sodipodi:cy="5.2500019"
         sodipodi:cx="26.874998"
         id="path4263"
         style="fill:#000000;fill-opacity:0.23529412"
         sodipodi:type="arc" />
      <path
         sodipodi:type="arc"
         style="fill:#000000;fill-opacity:0.11764706"
         id="path4265"
         sodipodi:cx="26.874998"
         sodipodi:cy="5.2500019"
         sodipodi:rx="3.3749998"
         sodipodi:ry="3.3749998"
         d="m 30.249998,5.2500019 c 0,1.8639609 -1.511039,3.3749998 -3.375,3.3749998 -1.863961,0 -3.375,-1.5110389 -3.375,-3.3749998 0,-1.8639609 1.511039,-3.3749998 3.375,-3.3749998 C 28.738959,1.8750021 30.249998,3.386041 30.249998,5.2500019 Z"
         transform="matrix(2.3040002,0,0,2.3038391,5.1369097,985.62311)" />
      <path
         sodipodi:type="arc"
         style="fill:url(#linearGradient4275);fill-opacity:1"
         id="path4267"
         sodipodi:cx="26.874998"
         sodipodi:cy="5.2500019"
         sodipodi:rx="3.3749998"
         sodipodi:ry="3.3749998"
         d="m 30.249998,5.2500019 c 0,1.8639609 -1.511039,3.3749998 -3.375,3.3749998 -1.863961,0 -3.375,-1.5110389 -3.375,-3.3749998 0,-1.8639609 1.511039,-3.3749998 3.375,-3.3749998 C 28.738959,1.8750021 30.249998,3.386041 30.249998,5.2500019 Z"
         transform="matrix(2.0818241,0,0,2.081679,11.107892,986.78945)" />
      <path
         transform="matrix(1.809563,0,0,1.5761557,18.424908,988.20895)"
         d="m 30.249998,5.2500019 c 0,1.8639609 -1.511039,3.3749998 -3.375,3.3749998 -1.863961,0 -3.375,-1.5110389 -3.375,-3.3749998 0,-1.8639609 1.511039,-3.3749998 3.375,-3.3749998 C 28.738959,1.8750021 30.249998,3.386041 30.249998,5.2500019 Z"
         sodipodi:ry="3.3749998"
         sodipodi:rx="3.3749998"
         sodipodi:cy="5.2500019"
         sodipodi:cx="26.874998"
         id="path4269"
         style="opacity:0.628;fill:url(#linearGradient4277);fill-opacity:1"
         sodipodi:type="arc" />
      <path
         sodipodi:type="arc"
         style="opacity:0.62000002;fill:url(#linearGradient4279);fill-opacity:1"
         id="path4271"
         sodipodi:cx="26.874998"
         sodipodi:cy="5.2500019"
         sodipodi:rx="3.3749998"
         sodipodi:ry="3.3749998"
         d="m 30.249998,5.2500019 c 0,1.8639609 -1.511039,3.3749998 -3.375,3.3749998 -1.863961,0 -3.375,-1.5110389 -3.375,-3.3749998 0,-1.8639609 1.511039,-3.3749998 3.375,-3.3749998 C 28.738959,1.8750021 30.249998,3.386041 30.249998,5.2500019 Z"
         transform="matrix(1.4844795,0,0,1.2565708,27.161526,988.80826)" />
      <path
         style="fill:url(#linearGradient4281);fill-opacity:1"
         d="m 67.05691,1002.8636 c -1.605446,0 -3.038378,0.1977 -4.098593,0.5204 1.157711,0.8397 2.558974,1.366 4.098593,1.366 1.53962,0 2.940883,-0.5263 4.098594,-1.366 C 70.095289,1003.0594 68.662357,1002.8636 67.05691,1002.8636 Z"
         id="path4273"
         inkscape:connector-curvature="0" />
    </g>
  </g>
</svg>
