<?xml version="1.0" encoding="UTF-8" standalone="no"?>
<svg
   xmlns:dc="http://purl.org/dc/elements/1.1/"
   xmlns:cc="http://creativecommons.org/ns#"
   xmlns:rdf="http://www.w3.org/1999/02/22-rdf-syntax-ns#"
   xmlns:svg="http://www.w3.org/2000/svg"
   xmlns="http://www.w3.org/2000/svg"
   xmlns:xlink="http://www.w3.org/1999/xlink"
   xmlns:sodipodi="http://sodipodi.sourceforge.net/DTD/sodipodi-0.dtd"
   xmlns:inkscape="http://www.inkscape.org/namespaces/inkscape"
   width="48"
   viewBox="0 0 13.546667 13.546667"
   height="48"
   id="svg2"
   version="1.1"
   inkscape:version="0.91pre2 r"
   sodipodi:docname="freeciv-server.svg">
  <metadata
     id="metadata54">
    <rdf:RDF>
      <cc:Work
         rdf:about="">
        <dc:format>image/svg+xml</dc:format>
        <dc:type
           rdf:resource="http://purl.org/dc/dcmitype/StillImage" />
        <dc:title></dc:title>
      </cc:Work>
    </rdf:RDF>
  </metadata>
  <sodipodi:namedview
     pagecolor="#ffffff"
     bordercolor="#666666"
     borderopacity="1"
     objecttolerance="10"
     gridtolerance="10"
     guidetolerance="10"
     inkscape:pageopacity="0"
     inkscape:pageshadow="2"
     inkscape:window-width="1366"
     inkscape:window-height="672"
     id="namedview52"
     showgrid="true"
     inkscape:zoom="29.497504"
     inkscape:cx="23.911688"
     inkscape:cy="15.352494"
     inkscape:window-x="-4"
     inkscape:window-y="25"
     inkscape:window-maximized="1"
     inkscape:current-layer="svg2">
    <inkscape:grid
       type="xygrid"
       id="grid4181" />
  </sodipodi:namedview>
  <defs
     id="defs4">
    <linearGradient
       id="linearGradient960">
      <stop
         id="stop962"
         offset="0"
         style="stop-color:#272822;stop-opacity:1" />
      <stop
         id="stop964"
         offset="1"
         style="stop-color:#32342c;stop-opacity:0.99607843" />
    </linearGradient>
    <linearGradient
       gradientTransform="matrix(0.28222223,0,0,0.28222223,15.5575,284.3)"
       gradientUnits="userSpaceOnUse"
       y2="-1007.4872"
       x2="-31.1875"
       y1="-1055.4247"
       x1="-31.1875"
       id="linearGradient1061"
       xlink:href="#linearGradient960"
       inkscape:collect="always" />
    <linearGradient
       id="linearGradient4686"
       inkscape:collect="always">
      <stop
         id="stop4688"
         offset="0"
         style="stop-color:#524625;stop-opacity:1" />
      <stop
         style="stop-color:#9e8749;stop-opacity:1"
         offset="0.03907728"
         id="stop4690" />
      <stop
         style="stop-color:#c6af76;stop-opacity:1"
         offset="0.9403764"
         id="stop4692" />
      <stop
         id="stop4694"
         offset="1"
         style="stop-color:#000000;stop-opacity:1" />
    </linearGradient>
    <linearGradient
       id="linearGradient1127">
      <stop
         style="stop-color:#33bd6f;stop-opacity:1"
         offset="0"
         id="stop1129" />
      <stop
         id="stop1131"
         offset="0.85996979"
         style="stop-color:#034726;stop-opacity:1" />
      <stop
         style="stop-color:#103c23;stop-opacity:1"
         offset="1"
         id="stop1133" />
    </linearGradient>
    <linearGradient
       id="linearGradient3821"
       inkscape:collect="always">
      <stop
         id="stop3823"
         offset="0"
         style="stop-color:#000000;stop-opacity:1;" />
      <stop
         id="stop3825"
         offset="1"
         style="stop-color:#000000;stop-opacity:0" />
    </linearGradient>
    <linearGradient
       gradientUnits="userSpaceOnUse"
       y2="6.0445771"
       x2="-35.254269"
       y1="17.010765"
       x1="-35.254269"
       id="linearGradient1111"
       xlink:href="#linearGradient4686"
       inkscape:collect="always"
       gradientTransform="matrix(0.24813,0,0,0.24813,15.797475,0.59789269)" />
    <linearGradient
       gradientTransform="matrix(0.24813,0,0,0.24813,15.797475,3.778844)"
       y2="6.0445771"
       x2="-35.254269"
       y1="17.010765"
       x1="-35.254269"
       gradientUnits="userSpaceOnUse"
       id="linearGradient1115"
       xlink:href="#linearGradient4686"
       inkscape:collect="always" />
    <radialGradient
       gradientUnits="userSpaceOnUse"
       r="2.0851204"
       fy="11.471779"
       fx="-54.135906"
       cy="11.471779"
       cx="-54.135906"
       id="radialGradient1125"
       xlink:href="#linearGradient1127"
       inkscape:collect="always"
       gradientTransform="matrix(0.24813,0,0,0.24813,15.797475,0.74590223)" />
    <radialGradient
       r="2.0851204"
       fy="11.471779"
       fx="-54.135906"
       cy="11.471779"
       cx="-54.135906"
       gradientUnits="userSpaceOnUse"
       id="radialGradient1137"
       xlink:href="#linearGradient1127"
       inkscape:collect="always"
       gradientTransform="matrix(0.24813,0,0,0.24813,15.797475,3.9268536)" />
    <linearGradient
       gradientUnits="userSpaceOnUse"
       y2="1028.4779"
       x2="-26.184048"
       y1="1028.4779"
       x1="-27.876881"
       id="linearGradient1161"
       xlink:href="#linearGradient3821"
       inkscape:collect="always"
       gradientTransform="matrix(0.24813,0,0,0.24813,15.797475,-248.42287)" />
    <linearGradient
       gradientUnits="userSpaceOnUse"
       y2="1028.4779"
       x2="-31.217125"
       y1="1028.4779"
       x1="-32.909958"
       id="linearGradient1163"
       xlink:href="#linearGradient3821"
       inkscape:collect="always"
       gradientTransform="matrix(0.24813,0,0,0.24813,15.797475,-248.42287)" />
    <linearGradient
       gradientUnits="userSpaceOnUse"
       y2="1028.4779"
       x2="-36.250202"
       y1="1028.4779"
       x1="-37.943035"
       id="linearGradient1165"
       xlink:href="#linearGradient3821"
       inkscape:collect="always"
       gradientTransform="matrix(0.24813,0,0,0.24813,15.797475,-248.42287)" />
    <linearGradient
       gradientUnits="userSpaceOnUse"
       y2="1028.4779"
       x2="-41.283279"
       y1="1028.4779"
       x1="-42.976112"
       id="linearGradient1167"
       xlink:href="#linearGradient3821"
       inkscape:collect="always"
       gradientTransform="matrix(0.24813,0,0,0.24813,15.797475,-248.42287)" />
    <linearGradient
       gradientUnits="userSpaceOnUse"
       y2="1016.4304"
       x2="-26.184048"
       y1="1016.4304"
       x1="-27.876881"
       id="linearGradient1175"
       xlink:href="#linearGradient3821"
       inkscape:collect="always"
       gradientTransform="matrix(0.24813,0,0,0.24813,15.797475,-248.6145)" />
    <linearGradient
       gradientUnits="userSpaceOnUse"
       y2="1016.4304"
       x2="-31.217125"
       y1="1016.4304"
       x1="-32.909958"
       id="linearGradient1177"
       xlink:href="#linearGradient3821"
       inkscape:collect="always"
       gradientTransform="matrix(0.24813,0,0,0.24813,15.797475,-248.6145)" />
    <linearGradient
       gradientUnits="userSpaceOnUse"
       y2="1016.4304"
       x2="-36.250202"
       y1="1016.4304"
       x1="-37.943035"
       id="linearGradient1179"
       xlink:href="#linearGradient3821"
       inkscape:collect="always"
       gradientTransform="matrix(0.24813,0,0,0.24813,15.797475,-248.6145)" />
    <linearGradient
       gradientUnits="userSpaceOnUse"
       y2="1016.4304"
       x2="-41.283279"
       y1="1016.4304"
       x1="-42.976112"
       id="linearGradient1181"
       xlink:href="#linearGradient3821"
       inkscape:collect="always"
       gradientTransform="matrix(0.24813,0,0,0.24813,15.797475,-248.6145)" />
    <linearGradient
       y2="6.0445771"
       x2="-35.254269"
       y1="17.010765"
       x1="-35.254269"
       gradientTransform="matrix(0.24813,0,0,0.24813,15.797475,6.9597722)"
       gradientUnits="userSpaceOnUse"
       id="linearGradient1195"
       xlink:href="#linearGradient4686"
       inkscape:collect="always" />
    <radialGradient
       r="2.0851204"
       fy="11.471779"
       fx="-54.135906"
       cy="11.471779"
       cx="-54.135906"
       gradientUnits="userSpaceOnUse"
       id="radialGradient1197"
       xlink:href="#linearGradient1127"
       inkscape:collect="always"
       gradientTransform="matrix(0.24813,0,0,0.24813,15.797475,7.1077817)" />
    <linearGradient
       gradientTransform="matrix(0.24813,0,0,0.24813,15.797475,-245.24194)"
       y2="1028.4779"
       x2="-41.283279"
       y1="1028.4779"
       x1="-42.976112"
       gradientUnits="userSpaceOnUse"
       id="linearGradient1199"
       xlink:href="#linearGradient3821"
       inkscape:collect="always" />
    <linearGradient
       gradientTransform="matrix(0.24813,0,0,0.24813,15.797475,-245.24194)"
       y2="1028.4779"
       x2="-36.250202"
       y1="1028.4779"
       x1="-37.943035"
       gradientUnits="userSpaceOnUse"
       id="linearGradient1201"
       xlink:href="#linearGradient3821"
       inkscape:collect="always" />
    <linearGradient
       gradientTransform="matrix(0.24813,0,0,0.24813,15.797475,-245.24194)"
       y2="1028.4779"
       x2="-31.217125"
       y1="1028.4779"
       x1="-32.909958"
       gradientUnits="userSpaceOnUse"
       id="linearGradient1203"
       xlink:href="#linearGradient3821"
       inkscape:collect="always" />
    <linearGradient
       gradientTransform="matrix(0.24813,0,0,0.24813,15.797475,-245.24194)"
       y2="1028.4779"
       x2="-26.184048"
       y1="1028.4779"
       x1="-27.876881"
       gradientUnits="userSpaceOnUse"
       id="linearGradient1205"
       xlink:href="#linearGradient3821"
       inkscape:collect="always" />
  </defs>
  <rect
     style="fill:url(#linearGradient1061);fill-opacity:1;stroke:none"
     id="rect2991-1"
     width="13.546667"
     height="13.546667"
     x="-2e-08"
     y="-13.546662"
     ry="0.54879344"
     transform="scale(1,-1)" />
  <path
     style="fill:#000000;fill-opacity:0.0627451;stroke:none"
     d="m 1.1095963,2.7656673 0,2.3305382 11.3274737,0 0,-2.3305382 -11.3274737,0 z m 0,3.1810634 0,2.330538 11.3274737,0 0,-2.330538 -11.3274737,0 z m 0,3.1810632 0,2.3305361 11.3274737,0 0,-2.3305361 -11.3274737,0 z"
     id="path4584"
     inkscape:connector-curvature="0" />
  <path
     inkscape:connector-curvature="0"
     id="path4582"
     d="m 1.1095963,2.6527785 0,2.3305382 11.3274737,0 0,-2.3305382 -11.3274737,0 z m 0,3.1810634 0,2.330538 11.3274737,0 0,-2.330538 -11.3274737,0 z m 0,3.1810632 0,2.3305369 11.3274737,0 0,-2.3305369 -11.3274737,0 z"
     style="fill:#000000;fill-opacity:0.11764706;stroke:none" />
  <path
     style="fill:#000000;fill-opacity:0.23529412;stroke:none"
     d="m 1.1095963,2.5398897 0,2.3305382 11.3274737,0 0,-2.3305382 -11.3274737,0 z m 0,3.1810634 0,2.330538 11.3274737,0 0,-2.330538 -11.3274737,0 z m 0,3.1810632 0,2.3305377 11.3274737,0 0,-2.3305377 -11.3274737,0 z"
     id="rect4573"
     inkscape:connector-curvature="0" />
  <text
     xml:space="preserve"
     style="font-style:normal;font-variant:normal;font-weight:bold;font-stretch:normal;font-size:11.28888893px;line-height:125%;font-family:Impact;-inkscape-font-specification:'Impact Bold';letter-spacing:0px;word-spacing:0px;fill:#000000;fill-opacity:1;stroke:none"
     x="1.6463803"
     y="10.104235"
     id="text830"
     sodipodi:linespacing="125%"><tspan
       sodipodi:role="line"
       id="tspan832"
       x="1.6463803"
       y="10.104235" /></text>
  <path
     inkscape:connector-curvature="0"
     style="fill:#000000;fill-opacity:1;stroke:none"
     d="m -1.9999999e-8,12.7 0,0.299861 c 0,0.304038 0.242774049999999,0.546806 0.546805569999999,0.546806 l 12.45305545,0 c 0.304032,0 0.546806,-0.242768 0.546806,-0.546806 l 0,-0.299861 c 0,0.304038 -0.242774,0.546806 -0.546806,0.546806 l -12.45305545,0 C 0.24277403,13.246806 -1.9999999e-8,13.004038 -1.9999999e-8,12.7 Z"
     id="rect846" />
  <path
     inkscape:connector-curvature="0"
     style="fill:#000000;fill-opacity:0.39215686;stroke:none"
     d="M 0.54680555,-1.88294e-7 C 0.24277403,-1.88294e-7 -1.9999999e-8,0.24276737 -1.9999999e-8,0.54680538 l 0,12.15319462 c 0,0.223915 0.135473439999999,0.40894 0.326319449999999,0.493889 -0.0873032,-0.09407 -0.14111111,-0.220811 -0.14111111,-0.361583 l 0,-12.11791706 c 0,-0.29582534 0.23336928,-0.52916668 0.52916668,-0.52916668 l 12.117917,0 c 0.295797,0 0.529167,0.23334134 0.529167,0.52916668 l 0,12.11791706 c 0,0.140772 -0.05381,0.267518 -0.141111,0.361583 0.190846,-0.08495 0.326319,-0.269974 0.326319,-0.493889 l 0,-12.15319462 C 13.546667,0.24276737 13.303893,-1.88294e-7 12.999861,-1.88294e-7 l -12.45305545,0 z"
     id="rect4280-4" />
  <path
     inkscape:connector-curvature="0"
     style="fill:#ffffff;fill-opacity:0.5372549;stroke:none"
     d="m 0.714375,0.18522226 c -0.2588229,0 -0.47163483,0.18048112 -0.52034724,0.42333335 0.0947172,-0.078994 0.21858451,-0.12347223 0.35277779,-0.12347223 l 12.45305545,0 c 0.134194,0 0.258061,0.0444782 0.352778,0.12347223 -0.04871,-0.24285223 -0.261524,-0.42333335 -0.520347,-0.42333335 l -12.117917,0 z"
     id="path7515" />
  <rect
     style="fill:url(#linearGradient1111);fill-opacity:1;stroke:none"
     id="rect1103"
     width="11.3276"
     height="2.330559"
     x="1.1095333"
     y="2.42711"
     ry="0" />
  <circle
     r="0.51738095"
     cy="3.5923948"
     cx="2.3647325"
     style="fill:url(#radialGradient1125);fill-opacity:1;stroke:none"
     id="path1117" />
  <rect
     style="fill:url(#linearGradient1181);fill-opacity:1;stroke:none"
     id="rect1139"
     width="0.4200426"
     height="1.6666207"
     x="5.1338124"
     y="2.7590759" />
  <rect
     y="2.7590759"
     x="6.3826699"
     height="1.6666207"
     width="0.4200426"
     id="rect1141"
     style="fill:url(#linearGradient1179);fill-opacity:1;stroke:none" />
  <rect
     y="2.7590759"
     x="7.6315269"
     height="1.6666207"
     width="0.4200426"
     id="rect1143"
     style="fill:url(#linearGradient1177);fill-opacity:1;stroke:none" />
  <rect
     style="fill:url(#linearGradient1175);fill-opacity:1;stroke:none"
     id="rect1145"
     width="0.4200426"
     height="1.6666207"
     x="8.8803844"
     y="2.7590759" />
  <rect
     ry="0"
     y="5.6080623"
     x="1.1095333"
     height="2.330559"
     width="11.3276"
     id="rect1113"
     style="fill:url(#linearGradient1115);fill-opacity:1;stroke:none" />
  <circle
     r="0.51738095"
     cy="6.7733459"
     cx="2.3647325"
     id="path1135"
     style="fill:url(#radialGradient1137);fill-opacity:1;stroke:none" />
  <rect
     y="5.9400334"
     x="5.1338124"
     height="1.6666207"
     width="0.4200426"
     id="rect1147"
     style="fill:url(#linearGradient1167);fill-opacity:1;stroke:none" />
  <rect
     style="fill:url(#linearGradient1165);fill-opacity:1;stroke:none"
     id="rect1149"
     width="0.4200426"
     height="1.6666207"
     x="6.3826699"
     y="5.9400334" />
  <rect
     style="fill:url(#linearGradient1163);fill-opacity:1;stroke:none"
     id="rect1151"
     width="0.4200426"
     height="1.6666207"
     x="7.6315269"
     y="5.9400334" />
  <rect
     y="5.9400334"
     x="8.8803844"
     height="1.6666207"
     width="0.4200426"
     id="rect1153"
     style="fill:url(#linearGradient1161);fill-opacity:1;stroke:none" />
  <rect
     style="fill:url(#linearGradient1195);fill-opacity:1;stroke:none"
     id="rect1183"
     width="11.3276"
     height="2.330559"
     x="1.1095333"
     y="8.7889957"
     ry="0" />
  <circle
     r="0.51738095"
     cy="9.9542742"
     cx="2.3647325"
     style="fill:url(#radialGradient1197);fill-opacity:1;stroke:none"
     id="path1185" />
  <rect
     style="fill:url(#linearGradient1199);fill-opacity:1;stroke:none"
     id="rect1187"
     width="0.4200426"
     height="1.6666207"
     x="5.1338124"
     y="9.120966" />
  <rect
     y="9.120966"
     x="6.3826699"
     height="1.6666207"
     width="0.4200426"
     id="rect1189"
     style="fill:url(#linearGradient1201);fill-opacity:1;stroke:none" />
  <rect
     y="9.120966"
     x="7.6315269"
     height="1.6666207"
     width="0.4200426"
     id="rect1191"
     style="fill:url(#linearGradient1203);fill-opacity:1;stroke:none" />
  <rect
     style="fill:url(#linearGradient1205);fill-opacity:1;stroke:none"
     id="rect1193"
     width="0.4200426"
     height="1.6666207"
     x="8.8803844"
     y="9.120966" />
  <path
     style="fill:#282923;fill-opacity:0.3137255;stroke:none"
     d="M 3.9316406 16.056641 L 3.9316406 16.857422 L 44.068359 16.857422 L 44.068359 16.056641 L 3.9316406 16.056641 z M 3.9316406 27.328125 L 3.9316406 28.128906 L 44.068359 28.128906 L 44.068359 27.328125 L 3.9316406 27.328125 z M 3.9316406 38.599609 L 3.9316406 39.400391 L 44.068359 39.400391 L 44.068359 38.599609 L 3.9316406 38.599609 z "
     transform="scale(0.28222222,0.28222222)"
     id="rect4586" />
  <path
     id="path4598"
     d="m 1.1095963,9.0152351 0,-0.225998 11.3274737,0 0,0.225998 -11.3274737,0 z m 0,-3.1810634 0,-0.2259982 11.3274737,0 0,0.2259982 -11.3274737,0 z m 0,-3.1810633 0,-0.2259984 11.3274737,0 0,0.2259984 -11.3274737,0 z"
     style="fill:#ffffff;fill-opacity:0.23529412;stroke:none"
     inkscape:connector-curvature="0" />
</svg>
