<?xml version="1.0" encoding="UTF-8" standalone="no"?>
<!-- Created with Inkscape (http://www.inkscape.org/) -->

<svg
   xmlns:dc="http://purl.org/dc/elements/1.1/"
   xmlns:cc="http://creativecommons.org/ns#"
   xmlns:rdf="http://www.w3.org/1999/02/22-rdf-syntax-ns#"
   xmlns:svg="http://www.w3.org/2000/svg"
   xmlns="http://www.w3.org/2000/svg"
   xmlns:xlink="http://www.w3.org/1999/xlink"
   xmlns:sodipodi="http://sodipodi.sourceforge.net/DTD/sodipodi-0.dtd"
   xmlns:inkscape="http://www.inkscape.org/namespaces/inkscape"
   width="48"
   height="48"
   id="svg2"
   version="1.1"
   inkscape:version="0.48+devel r12923"
   sodipodi:docname="friends.svg">
  <defs
     id="defs4">
    <linearGradient
       id="linearGradient4199">
      <stop
         id="stop4201"
         offset="0"
         style="stop-color:#882c0c;stop-opacity:1" />
      <stop
         id="stop4203"
         offset="1"
         style="stop-color:#ed632b;stop-opacity:1" />
    </linearGradient>
    <linearGradient
       y2="-1003.5718"
       x2="-29.303299"
       y1="-1051.3015"
       x1="-29.303299"
       gradientTransform="translate(53.344928,-1.1022814)"
       gradientUnits="userSpaceOnUse"
       id="linearGradient1098"
       xlink:href="#linearGradient3795"
       inkscape:collect="always" />
    <linearGradient
       inkscape:collect="always"
       xlink:href="#linearGradient4078"
       id="linearGradient4127"
       x1="35.068321"
       y1="1043.7351"
       x2="35.068321"
       y2="1012.9521"
       gradientUnits="userSpaceOnUse" />
    <linearGradient
       inkscape:collect="always"
       xlink:href="#linearGradient4199"
       id="linearGradient4159"
       x1="28.461618"
       y1="20.899126"
       x2="28.461618"
       y2="25.353552"
       gradientUnits="userSpaceOnUse"
       gradientTransform="matrix(0.86486486,0,0,0.86486486,0.97297306,1008.4703)" />
    <style
       type="text/css"
       id="style2464" />
    <style
       id="style2464-7"
       type="text/css" />
    <linearGradient
       id="linearGradient4078">
      <stop
         id="stop4080"
         offset="0"
         style="stop-color:#f9cebf;stop-opacity:1" />
      <stop
         id="stop4082"
         offset="1"
         style="stop-color:#fef8f6;stop-opacity:1" />
    </linearGradient>
    <linearGradient
       id="linearGradient3795">
      <stop
         style="stop-color:#dd4814;stop-opacity:1"
         offset="0"
         id="stop3797" />
      <stop
         style="stop-color:#ed632b;stop-opacity:1"
         offset="1"
         id="stop3799" />
    </linearGradient>
  </defs>
  <sodipodi:namedview
     id="base"
     pagecolor="#ffffff"
     bordercolor="#666666"
     borderopacity="1.0"
     inkscape:pageopacity="0.0"
     inkscape:pageshadow="2"
     inkscape:zoom="7.78125"
     inkscape:cx="26.92972"
     inkscape:cy="24.920001"
     inkscape:document-units="px"
     inkscape:current-layer="layer1"
     showgrid="false"
     inkscape:window-width="1366"
     inkscape:window-height="669"
     inkscape:window-x="0"
     inkscape:window-y="26"
     inkscape:window-maximized="1">
    <inkscape:grid
       type="xygrid"
       id="grid3850" />
  </sodipodi:namedview>
  <metadata
     id="metadata7">
    <rdf:RDF>
      <cc:Work
         rdf:about="">
        <dc:format>image/svg+xml</dc:format>
        <dc:type
           rdf:resource="http://purl.org/dc/dcmitype/StillImage" />
        <dc:title></dc:title>
      </cc:Work>
    </rdf:RDF>
  </metadata>
  <g
     inkscape:label="Capa 1"
     inkscape:groupmode="layer"
     id="layer1"
     transform="translate(0,-1004.3622)">
    <rect
       style="fill:url(#linearGradient1098);fill-opacity:1.0;stroke:none"
       id="rect2991-1"
       width="48"
       height="48"
       x="2.3073455e-06"
       y="-1052.3622"
       ry="1.9445436"
       transform="scale(1,-1)" />
    <path
       sodipodi:nodetypes="sscccsss"
       inkscape:connector-curvature="0"
       id="path4194"
       d="m 24.104613,1014.1622 c -8.505769,0 -15.401337,6.8928 -15.401337,15.3987 0,2.4444 0.584256,4.7482 1.597738,6.8011 -0.8933713,3.3341 -1.7421482,4.0336 -1.739672,4.8312 0.084776,1.8387 3.07256,2.8155 7.410561,1.4293 2.362084,1.4741 5.143381,2.3397 8.13271,2.3397 8.50577,0 15.40134,-6.8956 15.40134,-15.4013 C 39.505953,1021.055 32.610383,1014.1622 24.104613,1014.1622 Z"
       style="fill:#000000;fill-opacity:0.05882353;stroke:none" />
    <path
       style="fill:#000000;fill-opacity:0.11764706;stroke:none"
       d="m 24.104613,1013.7622 c -8.505769,0 -15.401337,6.8928 -15.401337,15.3987 0,2.4444 0.584256,4.7482 1.597738,6.8011 -0.8933713,3.3341 -1.7421482,4.0336 -1.739672,4.8312 0.084776,1.8387 3.07256,2.8155 7.410561,1.4293 2.362084,1.4741 5.143381,2.3397 8.13271,2.3397 8.50577,0 15.40134,-6.8956 15.40134,-15.4013 C 39.505953,1020.655 32.610383,1013.7622 24.104613,1013.7622 Z"
       id="path4192"
       inkscape:connector-curvature="0"
       sodipodi:nodetypes="sscccsss" />
    <path
       sodipodi:nodetypes="sscccsss"
       inkscape:connector-curvature="0"
       id="path4188"
       d="m 24.104613,1013.3622 c -8.505769,0 -15.401337,6.8928 -15.401337,15.3987 0,2.4444 0.584256,4.7482 1.597738,6.8011 -0.8933713,3.3341 -1.7421482,4.0336 -1.739672,4.8312 0.084776,1.8387 3.07256,2.8155 7.410561,1.4293 2.362084,1.4741 5.143381,2.3397 8.13271,2.3397 8.50577,0 15.40134,-6.8956 15.40134,-15.4013 C 39.505953,1020.255 32.610383,1013.3622 24.104613,1013.3622 Z"
       style="fill:#000000;fill-opacity:0.23529412;stroke:none" />
    <path
       inkscape:connector-curvature="0"
       style="fill:#000000;fill-opacity:1;stroke:none"
       d="m -2.3073456e-6,1049.3622 0,1.0625 c 0,1.0773 0.8602229973456,1.9375 1.9375000073456,1.9375 l 44.1250003,0 c 1.077277,0 1.9375,-0.8602 1.9375,-1.9375 l 0,-1.0625 c 0,1.0773 -0.860223,1.9375 -1.9375,1.9375 l -44.1250003,0 C 0.86022069,1051.2997 -2.3073456e-6,1050.4395 -2.3073456e-6,1049.3622 Z"
       id="rect846" />
    <path
       inkscape:connector-curvature="0"
       style="fill:#ffffff;fill-opacity:0.5372549;stroke:none"
       d="m 2.5312477,1005.0185 c -0.917088,0 -1.67114601,0.6395 -1.84375001,1.5 0.33561201,-0.2799 0.77451301,-0.4375 1.25000001,-0.4375 l 44.1250003,0 c 0.475488,0 0.914388,0.1576 1.25,0.4375 -0.172603,-0.8605 -0.926662,-1.5 -1.84375,-1.5 L 2.5312477,1005.0185 Z"
       id="path7515" />
    <path
       inkscape:connector-curvature="0"
       style="fill:#000000;fill-opacity:0.39215686;stroke:none"
       d="m 1.9374977,1004.3622 c -1.07727701,0 -1.9375000073456,0.8602 -1.9375000073456,1.9375 l 0,43.0625 c 0,0.7934 0.4800239973456,1.449 1.1562500073456,1.75 -0.30934101,-0.3333 -0.50000001,-0.7824 -0.50000001,-1.2812 l 0,-42.9375 c 0,-1.0482 0.82689901,-1.875 1.87500001,-1.875 l 42.9375003,0 c 1.048101,0 1.875,0.8268 1.875,1.875 l 0,42.9375 c 0,0.4988 -0.190658,0.9479 -0.5,1.2812 0.676226,-0.301 1.15625,-0.9566 1.15625,-1.75 l 0,-43.0625 c 0,-1.0773 -0.860223,-1.9375 -1.9375,-1.9375 L 1.9374977,1004.3622 Z"
       id="rect4280-2" />
    <path
       style="fill:url(#linearGradient4127);fill-opacity:1.0;stroke:none"
       d="m 24.104613,1012.9622 c -8.505769,0 -15.401337,6.8928 -15.401337,15.3987 0,2.4444 0.584256,4.7482 1.597738,6.8011 -0.8933713,3.3341 -1.7421482,4.0336 -1.739672,4.8312 0.084776,1.8387 3.07256,2.8155 7.410561,1.4293 2.362084,1.4741 5.143381,2.3397 8.13271,2.3397 8.50577,0 15.40134,-6.8956 15.40134,-15.4013 C 39.505953,1019.855 32.610383,1012.9622 24.104613,1012.9622 Z"
       id="path4080"
       inkscape:connector-curvature="0"
       sodipodi:nodetypes="sscccsss" />
    <path
       style="fill:#ffffff;fill-opacity:0.23529412;stroke:none"
       d="M 16 22.400391 C 14.895431 22.400391 14 23.295821 14 24.400391 C 14 25.50496 14.895431 26.400391 16 26.400391 C 17.104569 26.400391 18 25.50496 18 24.400391 C 18 23.295821 17.104569 22.400391 16 22.400391 z M 24 22.400391 C 22.895431 22.400391 22 23.295821 22 24.400391 C 22 25.50496 22.895431 26.400391 24 26.400391 C 25.104569 26.400391 26 25.50496 26 24.400391 C 26 23.295821 25.104569 22.400391 24 22.400391 z M 32 22.400391 C 30.895431 22.400391 30 23.295821 30 24.400391 C 30 25.50496 30.895431 26.400391 32 26.400391 C 33.104569 26.400391 34 25.50496 34 24.400391 C 34 23.295821 33.104569 22.400391 32 22.400391 z "
       id="path4161"
       transform="translate(0,1004.3622)" />
    <path
       style="fill:#dd4915;fill-opacity:0.3137255;stroke:none"
       d="m 16,1025.9622 c -1.104569,0 -2,0.8954 -2,2 0,1.1046 0.895431,2 2,2 1.104569,0 2,-0.8954 2,-2 C 18,1026.8576 17.104569,1025.9622 16,1025.9622 z m 8,0 c -1.104569,0 -2,0.8954 -2,2 0,1.1046 0.895431,2 2,2 1.104569,0 2,-0.8954 2,-2 C 26,1026.8576 25.104569,1025.9622 24,1025.9622 z m 8,0 c -1.104569,0 -2,0.8954 -2,2 0,1.1046 0.895431,2 2,2 1.104569,0 2,-0.8954 2,-2 C 34,1026.8576 33.104569,1025.9622 32,1025.9622 Z"
       id="path4179"
       inkscape:connector-curvature="0" />
    <path
       style="fill:url(#linearGradient4159);fill-opacity:1.0;stroke:none"
       d="m 16,1026.3622 c -1.104569,0 -2,0.8954 -2,2 0,1.1046 0.895431,2 2,2 1.104569,0 2,-0.8954 2,-2 C 18,1027.2576 17.104569,1026.3622 16,1026.3622 z m 8,0 c -1.104569,0 -2,0.8954 -2,2 0,1.1046 0.895431,2 2,2 1.104569,0 2,-0.8954 2,-2 C 26,1027.2576 25.104569,1026.3622 24,1026.3622 z m 8,0 c -1.104569,0 -2,0.8954 -2,2 0,1.1046 0.895431,2 2,2 1.104569,0 2,-0.8954 2,-2 C 34,1027.2576 33.104569,1026.3622 32,1026.3622 Z"
       id="path4143"
       inkscape:connector-curvature="0" />
    <path
       style="fill:#dd4915;fill-opacity:0.3137255;stroke:none"
       d="M 39.486328 23.597656 C 39.27294 31.917387 32.4767 38.599609 24.105469 38.599609 C 21.11614 38.599609 18.33474 37.733866 15.972656 36.259766 C 11.960416 37.541869 9.1083363 36.801582 8.6347656 35.228516 C 8.5924429 35.367062 8.5601383 35.499249 8.5605469 35.630859 C 8.6453229 37.469559 11.634655 38.446747 15.972656 37.060547 C 18.33474 38.534647 21.11614 39.400391 24.105469 39.400391 C 32.611239 39.400391 39.505859 32.503747 39.505859 23.998047 C 39.505859 23.862848 39.489791 23.732019 39.486328 23.597656 z M 8.71875 23.701172 C 8.7168424 23.80098 8.703125 23.897782 8.703125 23.998047 C 8.703125 26.317371 9.242549 28.502665 10.162109 30.474609 C 10.208524 30.314096 10.254006 30.174566 10.300781 30 C 9.3571687 28.088627 8.7930676 25.958517 8.71875 23.701172 z "
       transform="translate(0,1004.3622)"
       id="path4201" />
    <path
       style="fill:#ffffff;fill-opacity:0.23529412;stroke:none"
       d="m 24.105469,1012.9622 c -8.505769,0 -15.402344,6.8925 -15.402344,15.3984 0,0.085 0.00642,0.1677 0.00781,0.252 0.080621,-8.4367 6.9388935,-15.25 15.3945315,-15.25 8.4385,0 15.282746,6.7862 15.390625,15.1992 8.74e-4,-0.068 0.0098,-0.1333 0.0098,-0.2012 C 39.505859,1019.8547 32.611239,1012.9622 24.105469,1012.9622 z m -13.875,22.4375 c -0.8670413,3.1133 -1.6723332,3.8171 -1.6699221,4.5937 0.00291,0.063 0.017648,0.1226 0.027344,0.1836 0.1313052,-0.7298 0.8999713,-1.5813 1.7128904,-4.6152 C 10.274796,1035.5092 10.255887,1035.4527 10.230469,1035.3997 Z"
       id="path4211"
       inkscape:connector-curvature="0" />
  </g>
</svg>
