<?xml version="1.0" encoding="UTF-8" standalone="no"?>
<!-- Created with Inkscape (http://www.inkscape.org/) -->

<svg
   xmlns:dc="http://purl.org/dc/elements/1.1/"
   xmlns:cc="http://creativecommons.org/ns#"
   xmlns:rdf="http://www.w3.org/1999/02/22-rdf-syntax-ns#"
   xmlns:svg="http://www.w3.org/2000/svg"
   xmlns="http://www.w3.org/2000/svg"
   xmlns:xlink="http://www.w3.org/1999/xlink"
   xmlns:sodipodi="http://sodipodi.sourceforge.net/DTD/sodipodi-0.dtd"
   xmlns:inkscape="http://www.inkscape.org/namespaces/inkscape"
   width="48"
   height="48"
   id="svg2"
   version="1.1"
   inkscape:version="0.91+devel r"
   sodipodi:docname="gbrainy.svg">
  <defs
     id="defs4">
    <linearGradient
       inkscape:collect="always"
       xlink:href="#linearGradient3176"
       id="linearGradient1098"
       gradientUnits="userSpaceOnUse"
       gradientTransform="translate(53.344927,-1.1022865)"
       x1="-29.303299"
       y1="-1051.3015"
       x2="-29.303299"
       y2="-1003.5718" />
    <style
       id="style2464"
       type="text/css" />
    <style
       type="text/css"
       id="style2464-7" />
    <linearGradient
       id="linearGradient4069">
      <stop
         id="stop4071"
         style="stop-color:#b9e2ff;stop-opacity:1"
         offset="0" />
      <stop
         id="stop4073"
         style="stop-color:#f5fcff;stop-opacity:1"
         offset="1" />
    </linearGradient>
    <linearGradient
       id="linearGradient3176">
      <stop
         offset="0"
         style="stop-color:#005c9e;stop-opacity:1"
         id="stop3178" />
      <stop
         offset="1"
         style="stop-color:#72d3ff;stop-opacity:1"
         id="stop3180" />
    </linearGradient>
    <linearGradient
       inkscape:collect="always"
       xlink:href="#linearGradient4069"
       id="linearGradient4223"
       x1="25"
       y1="1044.3622"
       x2="25"
       y2="1013.3622"
       gradientUnits="userSpaceOnUse" />
  </defs>
  <sodipodi:namedview
     id="base"
     pagecolor="#ffffff"
     bordercolor="#666666"
     borderopacity="1.0"
     inkscape:pageopacity="0.0"
     inkscape:pageshadow="2"
     inkscape:zoom="5.1491592"
     inkscape:cx="0.041100385"
     inkscape:cy="45.631826"
     inkscape:document-units="px"
     inkscape:current-layer="layer1"
     showgrid="true"
     inkscape:window-width="1366"
     inkscape:window-height="672"
     inkscape:window-x="-4"
     inkscape:window-y="25"
     inkscape:window-maximized="1"
     showguides="false">
    <inkscape:grid
       type="xygrid"
       id="grid3850"
       empspacing="5"
       visible="true"
       enabled="true"
       snapvisiblegridlinesonly="true" />
  </sodipodi:namedview>
  <metadata
     id="metadata7">
    <rdf:RDF>
      <cc:Work
         rdf:about="">
        <dc:format>image/svg+xml</dc:format>
        <dc:type
           rdf:resource="http://purl.org/dc/dcmitype/StillImage" />
        <dc:title />
      </cc:Work>
    </rdf:RDF>
  </metadata>
  <g
     inkscape:label="Capa 1"
     inkscape:groupmode="layer"
     id="layer1"
     transform="translate(0,-1004.3622)">
    <rect
       style="fill:url(#linearGradient1098);fill-opacity:1.0;stroke:none"
       id="rect2991-1-8"
       width="48"
       height="48"
       x="2.5853271e-06"
       y="-1052.3622"
       ry="1.9445436"
       transform="scale(1,-1)" />
    <path
       sodipodi:nodetypes="ssccsscsscscsssscsscssccssccssscccsscccsccccssssssscsssscssssssccssccccssscsssssssssscsssssss"
       inkscape:connector-curvature="0"
       id="path4231"
       d="m 29.911931,1044.4702 c 0.705583,-0.2651 1.303946,-0.551 1.329696,-0.6355 0.02575,-0.084 -0.357891,-0.9215 -0.852534,-1.86 -0.773415,-1.4675 -0.995772,-1.7526 -1.587903,-2.036 -0.378703,-0.1813 -0.802268,-0.3886 -0.941257,-0.4606 -0.138989,-0.072 -0.482875,-0.6663 -0.764191,-1.3207 -0.281316,-0.6543 -0.522352,-1.2087 -0.535636,-1.232 -0.06542,-0.1149 -2.836976,0.5424 -2.836976,0.6728 0,0.083 0.342833,0.8273 0.76185,1.6538 0.614044,1.2113 0.93966,1.6385 1.678342,2.2022 0.824892,0.6294 0.96732,0.8402 1.425058,2.1086 0.344274,0.9541 0.594517,1.4061 0.77462,1.3993 0.146329,-0.01 0.843347,-0.2269 1.548931,-0.4919 z m 6.307565,-4.8295 c 2.002797,-0.986 2.97495,-2.7072 2.769805,-4.9041 -0.08669,-0.9284 -0.05042,-1.1651 0.233945,-1.5266 0.726637,-0.9238 0.338666,-1.0477 -2.951174,-0.9427 -2.311286,0.074 -2.413855,0.093 -2.688435,0.4951 -0.854016,1.2516 -1.659937,1.7416 -4.52424,2.7507 l -1.807446,0.6368 0.01413,0.7004 c 0.0586,2.9041 5.363842,4.5575 8.953413,2.7904 z m -11.336587,-3.1 c 1.968901,-0.4157 5.33017,-1.5652 6.486086,-2.2182 2.237647,-1.2642 3.037435,-4.7333 1.582546,-6.8643 -0.423633,-0.6206 -0.895939,-1.0062 -1.951334,-1.5933 -0.76583,-0.4261 -1.719004,-1.0043 -2.118162,-1.2849 l -0.725743,-0.5103 -0.366107,0.4335 c -0.557003,0.6595 -1.118984,0.9408 -2.345689,1.1739 -0.722937,0.1374 -1.531982,0.4601 -2.286193,0.9118 -1.059106,0.6343 -1.281943,0.7009 -2.404214,0.7191 l -1.236916,0.02 -0.37085,0.6607 c -0.216299,0.3853 -0.78234,0.9339 -1.358238,1.3164 -1.02167,0.6784 -2.844834,2.8675 -2.843026,3.4135 0.0039,1.1841 1.006784,2.6584 2.19784,3.2311 2.025787,0.9741 4.888978,1.1927 7.74,0.5909 z m -9.663072,-4.968 c 0.879488,-1.2557 1.774461,-2.1974 2.574872,-2.7094 0.593975,-0.38 1.056999,-0.8385 1.271734,-1.2594 0.359281,-0.7043 0.835099,-0.9367 1.550048,-0.7573 0.428551,0.1076 0.42978,0.1047 0.132556,-0.3075 -0.532778,-0.7388 -0.704363,-1.2585 -0.715734,-2.1678 -0.01265,-1.0115 0.331649,-1.6108 1.295717,-2.2553 2.417364,-1.6162 3.685611,-4.4271 2.551893,-5.656 -0.2288,-0.248 -1.113157,-0.7956 -1.965239,-1.2169 -1.458369,-0.7211 -1.61027,-0.7602 -2.589758,-0.6654 -4.699199,0.4544 -9.3909972,3.7135 -11.2012803,7.7806 -0.5573408,1.2522 -1.1164715,3.8849 -0.9780124,4.605 0.3244726,1.6876 1.8372626,3.733 3.2761437,4.4295 1.118225,0.5413 1.820814,0.6635 3.300215,0.5739 0.984751,-0.06 1.325393,-0.1493 1.496845,-0.394 z m 25.600261,-0.161 c 0.25399,-1.6635 -0.427086,-6.7996 -1.027419,-7.748 l -0.249231,-0.3937 -0.711361,0.6089 c -1.028623,0.8804 -1.687452,0.8424 -2.868494,-0.1657 -0.499118,-0.4261 -1.053394,-0.7746 -1.23172,-0.7746 -0.178326,0 -0.588902,0.2323 -0.912392,0.5164 -0.726643,0.638 -1.084692,0.6451 -2.172296,0.043 -0.804749,-0.4455 -0.883242,-0.4578 -1.331884,-0.2098 -0.59844,0.3308 -0.890568,1.0683 -0.57415,1.4496 0.123512,0.1488 0.737169,0.5119 1.36368,0.8069 1.610695,0.7582 2.196535,1.2457 2.724638,2.2674 0.367135,0.7103 0.463506,1.1397 0.470869,2.098 0.0051,0.6628 -0.04491,1.3987 -0.111105,1.6353 l -0.120362,0.4304 3.326689,0.038 3.326691,0.038 z m -17.814806,-5.1107 c 0.578272,-0.6131 1.257076,-0.8878 2.611352,-1.0566 1.201402,-0.1497 1.643071,-0.3818 1.949477,-1.0244 0.328315,-0.6885 0.432498,-0.7138 1.023834,-0.2486 0.59126,0.4651 0.752613,0.4346 0.872483,-0.1648 0.06646,-0.3322 0.280138,-0.6012 0.615451,-0.7746 0.688543,-0.356 0.860134,-0.3384 1.600549,0.1648 0.849266,0.577 1.25304,0.5431 2.134735,-0.1793 0.707942,-0.5802 0.767217,-0.5977 1.223098,-0.3619 0.263505,0.1362 0.633659,0.4185 0.822563,0.6272 0.499097,0.5515 1.122485,0.8099 1.796936,0.7447 0.670415,-0.065 1.387612,-0.6461 1.387612,-1.1247 0,-0.6158 -0.86573,-2.0201 -1.8433,-2.9899 -3.56548,-3.5371 -9.039998,-5.7439 -14.265916,-5.7507 -1.143999,0 -2.13237,0.05 -2.196382,0.1137 -0.06401,0.064 0.678332,0.5094 1.649652,0.9898 1.846774,0.9133 2.540657,1.5839 2.540657,2.4553 0,0.4625 -0.850658,2.3321 -1.34614,2.9586 -0.177974,0.225 -0.855096,0.806 -1.504714,1.291 -1.476643,1.1025 -1.777528,1.7349 -1.472968,3.0958 0.410446,1.8341 1.370104,2.3275 2.401021,1.2346 z"
       style="fill:#000000;fill-opacity:0.05882353" />
    <path
       style="fill:#000000;fill-opacity:0.11764706"
       d="m 29.911931,1044.0702 c 0.705583,-0.2651 1.303946,-0.551 1.329696,-0.6355 0.02575,-0.084 -0.357891,-0.9215 -0.852534,-1.86 -0.773415,-1.4675 -0.995772,-1.7526 -1.587903,-2.036 -0.378703,-0.1813 -0.802268,-0.3886 -0.941257,-0.4606 -0.138989,-0.072 -0.482875,-0.6663 -0.764191,-1.3207 -0.281316,-0.6543 -0.522352,-1.2087 -0.535636,-1.232 -0.06542,-0.1149 -2.836976,0.5424 -2.836976,0.6728 0,0.083 0.342833,0.8273 0.76185,1.6538 0.614044,1.2113 0.93966,1.6385 1.678342,2.2022 0.824892,0.6294 0.96732,0.8402 1.425058,2.1086 0.344274,0.9541 0.594517,1.4061 0.77462,1.3993 0.146329,-0.01 0.843347,-0.2269 1.548931,-0.4919 z m 6.307565,-4.8295 c 2.002797,-0.986 2.97495,-2.7072 2.769805,-4.9041 -0.08669,-0.9284 -0.05042,-1.1651 0.233945,-1.5266 0.726637,-0.9238 0.338666,-1.0477 -2.951174,-0.9427 -2.311286,0.074 -2.413855,0.093 -2.688435,0.4951 -0.854016,1.2516 -1.659937,1.7416 -4.52424,2.7507 l -1.807446,0.6368 0.01413,0.7004 c 0.0586,2.9041 5.363842,4.5575 8.953413,2.7904 z m -11.336587,-3.1 c 1.968901,-0.4157 5.33017,-1.5652 6.486086,-2.2182 2.237647,-1.2642 3.037435,-4.7333 1.582546,-6.8643 -0.423633,-0.6206 -0.895939,-1.0062 -1.951334,-1.5933 -0.76583,-0.4261 -1.719004,-1.0043 -2.118162,-1.2849 l -0.725743,-0.5103 -0.366107,0.4335 c -0.557003,0.6595 -1.118984,0.9408 -2.345689,1.1739 -0.722937,0.1374 -1.531982,0.4601 -2.286193,0.9118 -1.059106,0.6343 -1.281943,0.7009 -2.404214,0.7191 l -1.236916,0.02 -0.37085,0.6607 c -0.216299,0.3853 -0.78234,0.9339 -1.358238,1.3164 -1.02167,0.6784 -2.844834,2.8675 -2.843026,3.4135 0.0039,1.1841 1.006784,2.6584 2.19784,3.2311 2.025787,0.9741 4.888978,1.1927 7.74,0.5909 z m -9.663072,-4.968 c 0.879488,-1.2557 1.774461,-2.1974 2.574872,-2.7094 0.593975,-0.38 1.056999,-0.8385 1.271734,-1.2594 0.359281,-0.7043 0.835099,-0.9367 1.550048,-0.7573 0.428551,0.1076 0.42978,0.1047 0.132556,-0.3075 -0.532778,-0.7388 -0.704363,-1.2585 -0.715734,-2.1678 -0.01265,-1.0115 0.331649,-1.6108 1.295717,-2.2553 2.417364,-1.6162 3.685611,-4.4271 2.551893,-5.656 -0.2288,-0.248 -1.113157,-0.7956 -1.965239,-1.2169 -1.458369,-0.7211 -1.61027,-0.7602 -2.589758,-0.6654 -4.699199,0.4544 -9.3909972,3.7135 -11.2012803,7.7806 -0.5573408,1.2522 -1.1164715,3.8849 -0.9780124,4.605 0.3244726,1.6876 1.8372626,3.733 3.2761437,4.4295 1.118225,0.5413 1.820814,0.6635 3.300215,0.5739 0.984751,-0.06 1.325393,-0.1493 1.496845,-0.394 z m 25.600261,-0.161 c 0.25399,-1.6635 -0.427086,-6.7996 -1.027419,-7.748 l -0.249231,-0.3937 -0.711361,0.6089 c -1.028623,0.8804 -1.687452,0.8424 -2.868494,-0.1657 -0.499118,-0.4261 -1.053394,-0.7746 -1.23172,-0.7746 -0.178326,0 -0.588902,0.2323 -0.912392,0.5164 -0.726643,0.638 -1.084692,0.6451 -2.172296,0.043 -0.804749,-0.4455 -0.883242,-0.4578 -1.331884,-0.2098 -0.59844,0.3308 -0.890568,1.0683 -0.57415,1.4496 0.123512,0.1488 0.737169,0.5119 1.36368,0.8069 1.610695,0.7582 2.196535,1.2457 2.724638,2.2674 0.367135,0.7103 0.463506,1.1397 0.470869,2.098 0.0051,0.6628 -0.04491,1.3987 -0.111105,1.6353 l -0.120362,0.4304 3.326689,0.038 3.326691,0.038 z m -17.814806,-5.1107 c 0.578272,-0.6131 1.257076,-0.8878 2.611352,-1.0566 1.201402,-0.1497 1.643071,-0.3818 1.949477,-1.0244 0.328315,-0.6885 0.432498,-0.7138 1.023834,-0.2486 0.59126,0.4651 0.752613,0.4346 0.872483,-0.1648 0.06646,-0.3322 0.280138,-0.6012 0.615451,-0.7746 0.688543,-0.356 0.860134,-0.3384 1.600549,0.1648 0.849266,0.577 1.25304,0.5431 2.134735,-0.1793 0.707942,-0.5802 0.767217,-0.5977 1.223098,-0.3619 0.263505,0.1362 0.633659,0.4185 0.822563,0.6272 0.499097,0.5515 1.122485,0.8099 1.796936,0.7447 0.670415,-0.065 1.387612,-0.6461 1.387612,-1.1247 0,-0.6158 -0.86573,-2.0201 -1.8433,-2.9899 -3.56548,-3.5371 -9.039998,-5.7439 -14.265916,-5.7507 -1.143999,0 -2.13237,0.05 -2.196382,0.1137 -0.06401,0.064 0.678332,0.5094 1.649652,0.9898 1.846774,0.9133 2.540657,1.5839 2.540657,2.4553 0,0.4625 -0.850658,2.3321 -1.34614,2.9586 -0.177974,0.225 -0.855096,0.806 -1.504714,1.291 -1.476643,1.1025 -1.777528,1.7349 -1.472968,3.0958 0.410446,1.8341 1.370104,2.3275 2.401021,1.2346 z"
       id="path4229"
       inkscape:connector-curvature="0"
       sodipodi:nodetypes="ssccsscsscscsssscsscssccssccssscccsscccsccccssssssscsssscssssssccssccccssscsssssssssscsssssss" />
    <path
       inkscape:connector-curvature="0"
       style="fill:#000000;fill-opacity:1;stroke:none"
       d="m -2.5853271e-6,1049.3622 0,1.0625 c 0,1.0773 0.8602229953271,1.9375 1.9374999853271,1.9375 l 44.1249996,0 c 1.077277,0 1.9375,-0.8602 1.9375,-1.9375 l 0,-1.0625 c 0,1.0773 -0.860223,1.9375 -1.9375,1.9375 l -44.1249996,0 c -1.07727699,0 -1.9374999853271,-0.8602 -1.9374999853271,-1.9375 z"
       id="rect846-2" />
    <path
       inkscape:connector-curvature="0"
       style="fill:#ffffff;fill-opacity:0.5372549;stroke:none"
       d="m 2.5312474,1005.0185 c -0.917088,0 -1.67114599,0.6395 -1.84374999,1.5 0.33561199,-0.2799 0.77451299,-0.4375 1.24999999,-0.4375 l 44.1249996,0 c 0.475488,0 0.914388,0.1576 1.25,0.4375 -0.172603,-0.8605 -0.926662,-1.5 -1.84375,-1.5 l -42.9374996,0 z"
       id="path7515-0" />
    <path
       inkscape:connector-curvature="0"
       style="fill:#000000;fill-opacity:0.39215686;stroke:none"
       d="m 1.9374974,1004.3622 c -1.07727699,0 -1.9374999853271,0.8602 -1.9374999853271,1.9375 l 0,43.0625 c 0,0.7934 0.4800239953271,1.449 1.1562499853271,1.75 -0.30934099,-0.3333 -0.49999999,-0.7824 -0.49999999,-1.2812 l 0,-42.9375 c 0,-1.0482 0.82689899,-1.875 1.87499999,-1.875 l 42.9374996,0 c 1.048101,0 1.875,0.8268 1.875,1.875 l 0,42.9375 c 0,0.4988 -0.190658,0.9479 -0.5,1.2812 0.676226,-0.301 1.15625,-0.9566 1.15625,-1.75 l 0,-43.0625 c 0,-1.0773 -0.860223,-1.9375 -1.9375,-1.9375 l -44.1249996,0 z"
       id="rect4280-2" />
    <path
       sodipodi:nodetypes="ssccsscsscscsssscsscssccssccssscccsscccsccccssssssscsssscssssssccssccccssscsssssssssscsssssss"
       inkscape:connector-curvature="0"
       id="path4225"
       d="m 29.911931,1043.6702 c 0.705583,-0.2651 1.303946,-0.551 1.329696,-0.6355 0.02575,-0.084 -0.357891,-0.9215 -0.852534,-1.86 -0.773415,-1.4675 -0.995772,-1.7526 -1.587903,-2.036 -0.378703,-0.1813 -0.802268,-0.3886 -0.941257,-0.4606 -0.138989,-0.072 -0.482875,-0.6663 -0.764191,-1.3207 -0.281316,-0.6543 -0.522352,-1.2087 -0.535636,-1.232 -0.06542,-0.1149 -2.836976,0.5424 -2.836976,0.6728 0,0.083 0.342833,0.8273 0.76185,1.6538 0.614044,1.2113 0.93966,1.6385 1.678342,2.2022 0.824892,0.6294 0.96732,0.8402 1.425058,2.1086 0.344274,0.9541 0.594517,1.4061 0.77462,1.3993 0.146329,-0.01 0.843347,-0.2269 1.548931,-0.4919 z m 6.307565,-4.8295 c 2.002797,-0.986 2.97495,-2.7072 2.769805,-4.9041 -0.08669,-0.9284 -0.05042,-1.1651 0.233945,-1.5266 0.726637,-0.9238 0.338666,-1.0477 -2.951174,-0.9427 -2.311286,0.074 -2.413855,0.093 -2.688435,0.4951 -0.854016,1.2516 -1.659937,1.7416 -4.52424,2.7507 l -1.807446,0.6368 0.01413,0.7004 c 0.0586,2.9041 5.363842,4.5575 8.953413,2.7904 z m -11.336587,-3.1 c 1.968901,-0.4157 5.33017,-1.5652 6.486086,-2.2182 2.237647,-1.2642 3.037435,-4.7333 1.582546,-6.8643 -0.423633,-0.6206 -0.895939,-1.0062 -1.951334,-1.5933 -0.76583,-0.4261 -1.719004,-1.0043 -2.118162,-1.2849 l -0.725743,-0.5103 -0.366107,0.4335 c -0.557003,0.6595 -1.118984,0.9408 -2.345689,1.1739 -0.722937,0.1374 -1.531982,0.4601 -2.286193,0.9118 -1.059106,0.6343 -1.281943,0.7009 -2.404214,0.7191 l -1.236916,0.02 -0.37085,0.6607 c -0.216299,0.3853 -0.78234,0.9339 -1.358238,1.3164 -1.02167,0.6784 -2.844834,2.8675 -2.843026,3.4135 0.0039,1.1841 1.006784,2.6584 2.19784,3.2311 2.025787,0.9741 4.888978,1.1927 7.74,0.5909 z m -9.663072,-4.968 c 0.879488,-1.2557 1.774461,-2.1974 2.574872,-2.7094 0.593975,-0.38 1.056999,-0.8385 1.271734,-1.2594 0.359281,-0.7043 0.835099,-0.9367 1.550048,-0.7573 0.428551,0.1076 0.42978,0.1047 0.132556,-0.3075 -0.532778,-0.7388 -0.704363,-1.2585 -0.715734,-2.1678 -0.01265,-1.0115 0.331649,-1.6108 1.295717,-2.2553 2.417364,-1.6162 3.685611,-4.4271 2.551893,-5.656 -0.2288,-0.248 -1.113157,-0.7956 -1.965239,-1.2169 -1.458369,-0.7211 -1.61027,-0.7602 -2.589758,-0.6654 -4.699199,0.4544 -9.3909972,3.7135 -11.2012803,7.7806 -0.5573408,1.2522 -1.1164715,3.8849 -0.9780124,4.605 0.3244726,1.6876 1.8372626,3.733 3.2761437,4.4295 1.118225,0.5413 1.820814,0.6635 3.300215,0.5739 0.984751,-0.06 1.325393,-0.1493 1.496845,-0.394 z m 25.600261,-0.161 c 0.25399,-1.6635 -0.427086,-6.7996 -1.027419,-7.748 l -0.249231,-0.3937 -0.711361,0.6089 c -1.028623,0.8804 -1.687452,0.8424 -2.868494,-0.1657 -0.499118,-0.4261 -1.053394,-0.7746 -1.23172,-0.7746 -0.178326,0 -0.588902,0.2323 -0.912392,0.5164 -0.726643,0.638 -1.084692,0.6451 -2.172296,0.043 -0.804749,-0.4455 -0.883242,-0.4578 -1.331884,-0.2098 -0.59844,0.3308 -0.890568,1.0683 -0.57415,1.4496 0.123512,0.1488 0.737169,0.5119 1.36368,0.8069 1.610695,0.7582 2.196535,1.2457 2.724638,2.2674 0.367135,0.7103 0.463506,1.1397 0.470869,2.098 0.0051,0.6628 -0.04491,1.3987 -0.111105,1.6353 l -0.120362,0.4304 3.326689,0.038 3.326691,0.038 z m -17.814806,-5.1107 c 0.578272,-0.6131 1.257076,-0.8878 2.611352,-1.0566 1.201402,-0.1497 1.643071,-0.3818 1.949477,-1.0244 0.328315,-0.6885 0.432498,-0.7138 1.023834,-0.2486 0.59126,0.4651 0.752613,0.4346 0.872483,-0.1648 0.06646,-0.3322 0.280138,-0.6012 0.615451,-0.7746 0.688543,-0.356 0.860134,-0.3384 1.600549,0.1648 0.849266,0.577 1.25304,0.5431 2.134735,-0.1793 0.707942,-0.5802 0.767217,-0.5977 1.223098,-0.3619 0.263505,0.1362 0.633659,0.4185 0.822563,0.6272 0.499097,0.5515 1.122485,0.8099 1.796936,0.7447 0.670415,-0.065 1.387612,-0.6461 1.387612,-1.1247 0,-0.6158 -0.86573,-2.0201 -1.8433,-2.9899 -3.56548,-3.5371 -9.039998,-5.7439 -14.265916,-5.7507 -1.143999,0 -2.13237,0.05 -2.196382,0.1137 -0.06401,0.064 0.678332,0.5094 1.649652,0.9898 1.846774,0.9133 2.540657,1.5839 2.540657,2.4553 0,0.4625 -0.850658,2.3321 -1.34614,2.9586 -0.177974,0.225 -0.855096,0.806 -1.504714,1.291 -1.476643,1.1025 -1.777528,1.7349 -1.472968,3.0958 0.410446,1.8341 1.370104,2.3275 2.401021,1.2346 z"
       style="fill:#000000;fill-opacity:0.23529412" />
    <path
       style="fill:url(#linearGradient4223);fill-opacity:1.0"
       d="m 29.911931,1043.2702 c 0.705583,-0.2651 1.303946,-0.551 1.329696,-0.6355 0.02575,-0.084 -0.357891,-0.9215 -0.852534,-1.86 -0.773415,-1.4675 -0.995772,-1.7526 -1.587903,-2.036 -0.378703,-0.1813 -0.802268,-0.3886 -0.941257,-0.4606 -0.138989,-0.072 -0.482875,-0.6663 -0.764191,-1.3207 -0.281316,-0.6543 -0.522352,-1.2087 -0.535636,-1.232 -0.06542,-0.1149 -2.836976,0.5424 -2.836976,0.6728 0,0.083 0.342833,0.8273 0.76185,1.6538 0.614044,1.2113 0.93966,1.6385 1.678342,2.2022 0.824892,0.6294 0.96732,0.8402 1.425058,2.1086 0.344274,0.9541 0.594517,1.4061 0.77462,1.3993 0.146329,-0.01 0.843347,-0.2269 1.548931,-0.4919 z m 6.307565,-4.8295 c 2.002797,-0.986 2.97495,-2.7072 2.769805,-4.9041 -0.08669,-0.9284 -0.05042,-1.1651 0.233945,-1.5266 0.726637,-0.9238 0.338666,-1.0477 -2.951174,-0.9427 -2.311286,0.074 -2.413855,0.093 -2.688435,0.4951 -0.854016,1.2516 -1.659937,1.7416 -4.52424,2.7507 l -1.807446,0.6368 0.01413,0.7004 c 0.0586,2.9041 5.363842,4.5575 8.953413,2.7904 z m -11.336587,-3.1 c 1.968901,-0.4157 5.33017,-1.5652 6.486086,-2.2182 2.237647,-1.2642 3.037435,-4.7333 1.582546,-6.8643 -0.423633,-0.6206 -0.895939,-1.0062 -1.951334,-1.5933 -0.76583,-0.4261 -1.719004,-1.0043 -2.118162,-1.2849 l -0.725743,-0.5103 -0.366107,0.4335 c -0.557003,0.6595 -1.118984,0.9408 -2.345689,1.1739 -0.722937,0.1374 -1.531982,0.4601 -2.286193,0.9118 -1.059106,0.6343 -1.281943,0.7009 -2.404214,0.7191 l -1.236916,0.02 -0.37085,0.6607 c -0.216299,0.3853 -0.78234,0.9339 -1.358238,1.3164 -1.02167,0.6784 -2.844834,2.8675 -2.843026,3.4135 0.0039,1.1841 1.006784,2.6584 2.19784,3.2311 2.025787,0.9741 4.888978,1.1927 7.74,0.5909 z m -9.663072,-4.968 c 0.879488,-1.2557 1.774461,-2.1974 2.574872,-2.7094 0.593975,-0.38 1.056999,-0.8385 1.271734,-1.2594 0.359281,-0.7043 0.835099,-0.9367 1.550048,-0.7573 0.428551,0.1076 0.42978,0.1047 0.132556,-0.3075 -0.532778,-0.7388 -0.704363,-1.2585 -0.715734,-2.1678 -0.01265,-1.0115 0.331649,-1.6108 1.295717,-2.2553 2.417364,-1.6162 3.685611,-4.4271 2.551893,-5.656 -0.2288,-0.248 -1.113157,-0.7956 -1.965239,-1.2169 -1.458369,-0.7211 -1.61027,-0.7602 -2.589758,-0.6654 -4.699199,0.4544 -9.3909972,3.7135 -11.2012803,7.7806 -0.5573408,1.2522 -1.1164715,3.8849 -0.9780124,4.605 0.3244726,1.6876 1.8372626,3.733 3.2761437,4.4295 1.118225,0.5413 1.820814,0.6635 3.300215,0.5739 0.984751,-0.06 1.325393,-0.1493 1.496845,-0.394 z m 25.600261,-0.161 c 0.25399,-1.6635 -0.427086,-6.7996 -1.027419,-7.748 l -0.249231,-0.3937 -0.711361,0.6089 c -1.028623,0.8804 -1.687452,0.8424 -2.868494,-0.1657 -0.499118,-0.4261 -1.053394,-0.7746 -1.23172,-0.7746 -0.178326,0 -0.588902,0.2323 -0.912392,0.5164 -0.726643,0.638 -1.084692,0.6451 -2.172296,0.043 -0.804749,-0.4455 -0.883242,-0.4578 -1.331884,-0.2098 -0.59844,0.3308 -0.890568,1.0683 -0.57415,1.4496 0.123512,0.1488 0.737169,0.5119 1.36368,0.8069 1.610695,0.7582 2.196535,1.2457 2.724638,2.2674 0.367135,0.7103 0.463506,1.1397 0.470869,2.098 0.0051,0.6628 -0.04491,1.3987 -0.111105,1.6353 l -0.120362,0.4304 3.326689,0.038 3.326691,0.038 z m -17.814806,-5.1107 c 0.578272,-0.6131 1.257076,-0.8878 2.611352,-1.0566 1.201402,-0.1497 1.643071,-0.3818 1.949477,-1.0244 0.328315,-0.6885 0.432498,-0.7138 1.023834,-0.2486 0.59126,0.4651 0.752613,0.4346 0.872483,-0.1648 0.06646,-0.3322 0.280138,-0.6012 0.615451,-0.7746 0.688543,-0.356 0.860134,-0.3384 1.600549,0.1648 0.849266,0.577 1.25304,0.5431 2.134735,-0.1793 0.707942,-0.5802 0.767217,-0.5977 1.223098,-0.3619 0.263505,0.1362 0.633659,0.4185 0.822563,0.6272 0.499097,0.5515 1.122485,0.8099 1.796936,0.7447 0.670415,-0.065 1.387612,-0.6461 1.387612,-1.1247 0,-0.6158 -0.86573,-2.0201 -1.8433,-2.9899 -3.56548,-3.5371 -9.039998,-5.7439 -14.265916,-5.7507 -1.143999,0 -2.13237,0.05 -2.196382,0.1137 -0.06401,0.064 0.678332,0.5094 1.649652,0.9898 1.846774,0.9133 2.540657,1.5839 2.540657,2.4553 0,0.4625 -0.850658,2.3321 -1.34614,2.9586 -0.177974,0.225 -0.855096,0.806 -1.504714,1.291 -1.476643,1.1025 -1.777528,1.7349 -1.472968,3.0958 0.410446,1.8341 1.370104,2.3275 2.401021,1.2346 z"
       id="path4172"
       inkscape:connector-curvature="0"
       sodipodi:nodetypes="ssccsscsscscsssscsscssccssccssscccsscccsccccssssssscsssscssssssccssccccssscsssssssssscsssssss" />
    <path
       style="fill:#0965a5;fill-opacity:0.3137255"
       d="M 21.863281 8.6230469 C 21.71035 8.6281182 21.530912 8.6298249 21.404297 8.6367188 C 21.567219 8.7142234 21.704745 8.7763953 21.916016 8.8808594 C 22.768098 9.3021594 23.652059 9.8496562 23.880859 10.097656 C 24.077394 10.310691 24.197164 10.573534 24.255859 10.867188 C 24.559893 11.140457 24.750678 11.410012 24.845703 11.693359 C 24.878571 11.573151 24.927734 11.427291 24.927734 11.359375 C 24.927734 10.487975 24.233493 9.8175969 22.386719 8.9042969 C 22.177173 8.8006585 22.045717 8.7199493 21.863281 8.6230469 z M 24.251953 11.65625 C 24.075402 12.991344 22.982336 14.647935 21.328125 15.753906 C 20.364057 16.398406 20.020553 16.998266 20.033203 18.009766 C 20.035326 18.179555 20.049849 18.324119 20.064453 18.470703 C 20.110682 17.934365 20.285338 17.505411 20.650391 17.121094 C 20.861715 16.631611 21.307743 16.184562 22.078125 15.609375 C 22.651491 15.181304 23.193162 14.714123 23.447266 14.447266 C 24.104817 13.462543 24.414253 12.441316 24.251953 11.65625 z M 34.519531 16.167969 C 34.359235 16.215394 34.166471 16.36615 33.8125 16.65625 C 32.930805 17.37865 32.527 17.410984 31.677734 16.833984 C 30.937319 16.330784 30.766668 16.313922 30.078125 16.669922 C 29.742812 16.843322 29.529351 17.113113 29.462891 17.445312 C 29.343021 18.044713 29.181104 18.074475 28.589844 17.609375 C 27.998508 17.144175 27.894721 17.168922 27.566406 17.857422 C 27.26 18.500022 26.81859 18.733112 25.617188 18.882812 C 24.262912 19.051613 23.584131 19.326353 23.005859 19.939453 C 21.974942 21.032353 21.013962 20.539178 20.603516 18.705078 C 20.57229 18.565549 20.553039 18.438005 20.535156 18.3125 C 20.473471 18.656968 20.49877 19.035857 20.603516 19.503906 C 20.683482 19.86124 20.790077 20.152513 20.908203 20.40625 C 20.916448 20.419389 20.915769 20.424518 20.921875 20.435547 C 21.01421 20.628597 21.115329 20.794698 21.226562 20.923828 C 21.948615 20.882867 22.277589 20.753964 23.158203 20.226562 C 23.912414 19.774862 24.722375 19.451853 25.445312 19.314453 C 26.672017 19.081353 27.234013 18.800125 27.791016 18.140625 L 28.15625 17.707031 L 28.882812 18.21875 C 28.976351 18.284506 29.234061 18.426877 29.378906 18.519531 C 29.409405 18.444501 29.438857 18.364318 29.462891 18.244141 C 29.493654 18.09037 29.559078 17.951599 29.650391 17.828125 C 29.713201 17.491551 29.942602 17.13133 30.314453 16.925781 C 30.763095 16.677781 30.841735 16.691219 31.646484 17.136719 C 32.734088 17.738819 33.093669 17.73175 33.820312 17.09375 C 34.143802 16.80965 34.554096 16.576172 34.732422 16.576172 C 34.910748 16.576172 35.463773 16.925462 35.962891 17.351562 C 37.143933 18.359663 37.803408 18.397978 38.832031 17.517578 L 39.042969 17.337891 C 39.042657 17.214306 38.999169 17.053856 38.935547 16.876953 C 38.713333 17.25729 38.173325 17.615883 37.65625 17.666016 C 36.981799 17.731216 36.358472 17.471422 35.859375 16.919922 C 35.670471 16.711222 35.300614 16.429169 35.037109 16.292969 C 34.809169 16.175069 34.679828 16.120544 34.519531 16.167969 z M 29.730469 18.357422 C 29.678683 18.465969 29.654532 18.570401 29.640625 18.677734 C 30.090594 18.957711 30.508235 19.22834 31 19.501953 C 32.055395 20.089053 32.527539 20.475103 32.951172 21.095703 C 32.9525 21.097648 32.953754 21.099616 32.955078 21.101562 C 33.318892 21.424835 33.586173 21.778126 33.830078 22.25 C 34.147639 22.864388 34.257082 23.287735 34.287109 24.005859 C 34.291452 23.850093 34.301975 23.703923 34.300781 23.548828 C 34.293418 22.590528 34.197213 22.159519 33.830078 21.449219 C 33.301975 20.427519 32.716164 19.939841 31.105469 19.181641 C 30.478958 18.886641 29.863746 18.5238 29.740234 18.375 C 29.735863 18.369732 29.734609 18.362824 29.730469 18.357422 z M 20.123047 20.427734 C 19.670763 20.450427 19.335867 20.713962 19.066406 21.242188 C 18.851671 21.663087 18.388897 22.121953 17.794922 22.501953 C 16.994511 23.013953 16.100191 23.955238 15.220703 25.210938 C 15.049251 25.455637 14.707407 25.545469 13.722656 25.605469 C 12.243255 25.695069 11.5401 25.57255 10.421875 25.03125 C 8.9927894 24.339492 7.4945248 22.31759 7.15625 20.636719 C 7.1231263 20.962998 7.1147542 21.235368 7.1464844 21.400391 C 7.470957 23.087991 8.9829939 25.133578 10.421875 25.830078 C 11.5401 26.371378 12.243255 26.493897 13.722656 26.404297 C 14.408917 26.362484 14.772772 26.302403 14.994141 26.189453 C 15.233179 25.472062 16.844449 23.570593 17.789062 22.943359 C 18.36496 22.560859 18.930185 22.012253 19.146484 21.626953 L 19.517578 20.964844 L 20.730469 20.945312 C 20.60918 20.775161 20.503113 20.616047 20.417969 20.460938 C 20.318324 20.446654 20.213006 20.423221 20.123047 20.427734 z M 33.650391 24.078125 C 33.516658 25.655177 32.708692 27.204133 31.369141 27.960938 C 30.213225 28.613938 26.851713 29.762034 24.882812 30.177734 C 22.03179 30.779534 19.168365 30.561991 17.142578 29.587891 C 16.130231 29.10112 15.260179 27.963898 15.017578 26.90625 C 14.97466 27.005853 14.945107 27.094321 14.945312 27.15625 C 14.949212 28.34035 15.951522 29.814019 17.142578 30.386719 C 18.9494 31.255529 21.422633 31.519871 23.958984 31.140625 C 24.497717 30.934655 26.263596 30.522147 26.486328 30.568359 C 26.741236 30.495334 26.999189 30.409435 27.261719 30.328125 L 27.251953 29.787109 L 29.058594 29.150391 C 31.16352 28.408821 32.155381 27.946978 32.873047 27.257812 C 33.452873 26.321824 33.72545 25.181826 33.650391 24.078125 z M 40.859375 24.466797 C 40.851202 24.67899 40.844263 24.891967 40.820312 25.048828 L 40.722656 25.689453 L 37.396484 25.652344 L 34.234375 25.615234 C 34.219246 25.746989 34.207966 25.916252 34.189453 25.982422 L 34.175781 26.027344 C 34.525901 25.96422 35.124907 25.941007 36.271484 25.904297 C 39.043361 25.815828 39.742079 25.896551 39.462891 26.474609 L 40.722656 26.490234 L 40.820312 25.849609 C 40.87132 25.515536 40.875564 25.018931 40.859375 24.466797 z M 39.259766 26.794922 C 39.245328 26.813863 39.238121 26.827996 39.222656 26.847656 C 38.963417 27.177215 38.918232 27.429178 38.976562 28.169922 C 39.013133 27.967281 39.087693 27.82001 39.222656 27.648438 C 39.583477 27.189713 39.667444 26.92909 39.259766 26.794922 z M 38.994141 29.326172 C 38.871224 31.067457 37.921255 32.441134 36.21875 33.279297 C 32.667248 35.027656 27.444654 33.424937 27.277344 30.578125 L 27.251953 30.587891 L 27.265625 31.289062 C 27.28211 32.106029 27.724112 32.817967 28.416016 33.388672 C 28.563185 33.460392 28.646142 33.50214 28.800781 33.576172 C 29.04027 33.690794 29.219002 33.826236 29.398438 34.019531 C 31.28392 34.960954 34.058361 35.141657 36.21875 34.078125 C 38.173921 33.115572 39.139828 31.448601 38.994141 29.326172 z M 24.011719 31.917969 C 23.883103 31.96296 23.722656 32.013423 23.722656 32.035156 C 23.722656 32.118156 24.065358 32.862953 24.484375 33.689453 C 25.098419 34.900753 25.425381 35.328878 26.164062 35.892578 C 26.988954 36.521978 27.130153 36.7316 27.587891 38 C 27.932165 38.9541 28.183178 39.407191 28.363281 39.400391 C 28.50961 39.390391 29.206525 39.173203 29.912109 38.908203 C 30.617692 38.643103 31.216438 38.357938 31.242188 38.273438 C 31.255441 38.230202 31.15516 37.978501 30.992188 37.625 C 30.76169 37.754745 30.402672 37.923109 29.912109 38.107422 C 29.206525 38.372422 28.50961 38.589609 28.363281 38.599609 C 28.183178 38.606409 27.932165 38.155272 27.587891 37.201172 C 27.130153 35.932772 26.988954 35.721197 26.164062 35.091797 C 25.425381 34.528097 25.098419 34.101925 24.484375 32.890625 C 24.300295 32.527531 24.143784 32.200234 24.011719 31.917969 z "
       transform="translate(0,1004.3622)"
       id="path4233" />
    <path
       style="fill:#ffffff;fill-opacity:0.23529412"
       d="M 22.933594 8.5996094 C 21.789595 8.5996094 20.802293 8.6491906 20.738281 8.7128906 C 20.70587 8.7452966 20.883346 8.8775401 21.189453 9.0605469 C 21.583547 9.0261828 22.161856 9 22.933594 9 C 28.159512 9.0068 33.633739 11.2129 37.199219 14.75 C 38.077097 15.620901 38.860193 16.837437 39.011719 17.523438 C 39.032639 17.461618 39.042969 17.399669 39.042969 17.339844 C 39.042969 16.724044 38.176789 15.321363 37.199219 14.351562 C 33.633739 10.814462 28.159512 8.6064094 22.933594 8.5996094 z M 19.939453 8.9785156 C 19.764685 8.9769141 19.571044 8.991925 19.326172 9.015625 C 14.626973 9.470025 9.9352831 12.729775 8.125 16.796875 C 7.5930704 17.991983 7.065849 20.424297 7.1386719 21.271484 C 7.203351 20.21359 7.6621019 18.235324 8.125 17.195312 C 9.9352831 13.128212 14.626973 9.8704156 19.326172 9.4160156 C 20.30566 9.3212156 20.457647 9.3589781 21.916016 10.080078 C 22.768098 10.501378 23.652059 11.048875 23.880859 11.296875 C 24.112799 11.548288 24.239648 11.868451 24.28125 12.228516 C 24.305253 11.774595 24.220133 11.366854 23.990234 11.044922 C 23.598788 10.749742 23.073149 10.442981 22.386719 10.103516 C 21.531084 9.6803318 20.888801 9.3000478 20.783203 9.1679688 C 20.468101 9.0475583 20.21514 8.981042 19.939453 8.9785156 z M 24.898438 12.277344 C 24.817354 12.848122 24.05164 14.523402 23.582031 15.117188 C 23.404057 15.342188 22.727743 15.923203 22.078125 16.408203 C 20.846472 17.327787 20.43835 17.925713 20.511719 18.886719 C 20.576248 18.144784 21.025866 17.594238 22.078125 16.808594 C 22.727743 16.323594 23.404057 15.742578 23.582031 15.517578 C 24.077513 14.891078 24.927734 13.021094 24.927734 12.558594 C 24.927734 12.462367 24.915978 12.369271 24.898438 12.277344 z M 34.732422 17.376953 C 34.554096 17.376953 34.143802 17.608478 33.820312 17.892578 C 33.520885 18.155479 33.28234 18.305305 33.03125 18.355469 C 32.599338 18.521469 32.232447 18.412034 31.677734 18.035156 C 30.994612 17.570893 30.780341 17.534103 30.212891 17.808594 C 29.761123 18.11758 29.513555 18.648436 29.652344 19.019531 C 29.717646 18.685222 29.945543 18.330876 30.314453 18.126953 C 30.763095 17.878953 30.841735 17.890437 31.646484 18.335938 C 32.734088 18.938037 33.093669 18.930969 33.820312 18.292969 C 34.143802 18.008869 34.554096 17.777344 34.732422 17.777344 C 34.910748 17.777344 35.463773 18.124681 35.962891 18.550781 C 37.143933 19.558881 37.803408 19.597197 38.832031 18.716797 L 39.542969 18.107422 L 39.792969 18.501953 C 40.295574 19.295964 40.84749 23.004529 40.867188 25.173828 C 40.921854 23.097045 40.327565 18.946112 39.792969 18.101562 L 39.542969 17.707031 L 38.832031 18.316406 C 38.103823 18.939681 37.558798 19.092992 36.884766 18.777344 C 36.509432 18.664636 36.160363 18.453684 35.859375 18.121094 C 35.779152 18.032464 35.656753 17.928429 35.533203 17.830078 C 35.482335 17.793293 35.42976 17.751924 35.380859 17.71875 C 35.274515 17.642513 35.169712 17.569577 35.074219 17.517578 C 35.052237 17.505348 35.028406 17.493095 35.007812 17.482422 C 34.950197 17.453015 34.904542 17.43561 34.857422 17.416016 C 34.811922 17.399551 34.760716 17.376953 34.732422 17.376953 z M 28.134766 18.535156 L 27.791016 18.941406 C 27.655571 19.101774 27.518566 19.237035 27.373047 19.357422 C 27.065209 19.769628 26.599819 19.959591 25.617188 20.082031 C 25.576731 20.087074 25.549032 20.094372 25.509766 20.099609 C 25.485693 20.104326 25.469915 20.110559 25.445312 20.115234 C 24.722375 20.252634 23.912414 20.575644 23.158203 21.027344 C 23.130313 21.044047 23.114652 21.050481 23.087891 21.066406 C 23.061551 21.092515 23.031744 21.111228 23.005859 21.138672 C 22.551794 21.620038 22.114095 21.777179 21.728516 21.664062 C 21.466513 21.713486 21.18049 21.739176 20.753906 21.746094 L 19.669922 21.763672 C 19.575901 21.815276 19.486645 21.882972 19.404297 21.966797 L 19.146484 22.425781 C 18.991019 22.702716 18.636711 23.049699 18.246094 23.373047 C 18.225818 23.389396 18.206323 23.405679 18.185547 23.421875 C 18.051132 23.530204 17.929589 23.648853 17.789062 23.742188 C 16.767392 24.420588 14.943505 26.61025 14.945312 27.15625 C 14.945629 27.252201 14.963559 27.352044 14.976562 27.451172 C 15.135694 26.788253 16.816375 24.788453 17.789062 24.142578 C 18.36496 23.760078 18.930185 23.211472 19.146484 22.826172 L 19.517578 22.166016 L 20.753906 22.146484 C 21.876177 22.128284 22.099097 22.060081 23.158203 21.425781 C 23.912414 20.974081 24.722375 20.653025 25.445312 20.515625 C 26.672017 20.282525 27.234013 20.001297 27.791016 19.341797 L 28.15625 18.908203 L 28.882812 19.417969 C 29.281971 19.698569 30.23417 20.277025 31 20.703125 C 32.055395 21.290225 32.527539 21.676275 32.951172 22.296875 C 33.442056 23.015881 33.657106 23.887812 33.666016 24.775391 C 33.732978 23.752138 33.515942 22.723712 32.951172 21.896484 C 32.577271 21.348739 32.141385 20.977825 31.324219 20.496094 C 31.244284 20.457219 31.191044 20.423095 31.105469 20.382812 C 30.478958 20.087812 29.863746 19.724972 29.740234 19.576172 C 29.725593 19.558528 29.719097 19.536671 29.707031 19.517578 C 29.45393 19.361041 29.115632 19.170852 28.960938 19.064453 C 28.960642 19.06425 28.95928 19.064656 28.958984 19.064453 C 28.956808 19.063298 28.953368 19.05978 28.951172 19.058594 C 28.937201 19.04896 28.89566 19.02661 28.882812 19.017578 L 28.220703 18.552734 C 28.187166 18.535237 28.164214 18.544574 28.134766 18.535156 z M 20.048828 19.041016 C 20.046877 19.099837 20.03243 19.147191 20.033203 19.208984 C 20.04418 20.086802 20.212705 20.605409 20.703125 21.304688 C 21.025463 21.382724 21.020849 21.352185 20.75 20.976562 C 20.267226 20.307102 20.087987 19.803564 20.048828 19.041016 z M 34.292969 24.576172 C 34.286574 25.169754 34.247918 25.773452 34.189453 25.982422 L 34.068359 26.414062 L 34.179688 26.416016 L 34.189453 26.382812 C 34.255648 26.146213 34.305881 25.410847 34.300781 24.748047 C 34.300281 24.682963 34.294347 24.63663 34.292969 24.576172 z M 34.298828 26.816406 C 33.866324 26.878897 33.733583 26.982097 33.583984 27.201172 C 33.141518 27.849627 32.705695 28.291289 31.996094 28.708984 C 31.800613 28.877571 31.594671 29.032739 31.369141 29.160156 C 30.608919 29.589621 28.898486 30.221478 27.253906 30.730469 L 27.259766 30.986328 L 29.058594 30.351562 C 31.922897 29.342463 32.729968 28.851209 33.583984 27.599609 C 33.858564 27.197509 33.960198 27.179469 36.271484 27.105469 C 38.283942 27.041238 39.203313 27.064951 39.453125 27.302734 C 39.554627 27.109337 39.542968 26.97051 39.402344 26.873047 L 37.396484 26.851562 L 34.298828 26.816406 z M 38.960938 28.748047 C 38.947363 28.951418 38.955108 29.198036 38.990234 29.574219 C 39.005433 29.736986 39.001572 29.891389 39.003906 30.048828 C 39.019743 29.76582 39.018399 29.47544 38.990234 29.173828 C 38.974275 29.002915 38.967782 28.87717 38.960938 28.748047 z M 26.560547 31.363281 C 26.495127 31.248381 23.722656 31.904756 23.722656 32.035156 C 23.722656 32.061148 23.804231 32.241 23.863281 32.378906 C 24.242904 32.188454 26.500426 31.65808 26.560547 31.763672 C 26.573831 31.786972 26.814387 32.341794 27.095703 32.996094 C 27.377019 33.650494 27.720386 34.244406 27.859375 34.316406 C 27.998364 34.388406 28.422078 34.596044 28.800781 34.777344 C 29.392912 35.060744 29.615257 35.345 30.388672 36.8125 C 30.75181 37.501492 30.99372 38.025714 31.119141 38.347656 C 31.147057 38.326749 31.238336 38.286077 31.242188 38.273438 C 31.267937 38.189437 30.883315 37.350609 30.388672 36.412109 C 29.615257 34.944609 29.392912 34.660353 28.800781 34.376953 C 28.422078 34.195653 27.998364 33.988016 27.859375 33.916016 C 27.720386 33.844016 27.377019 33.250103 27.095703 32.595703 C 26.814387 31.941403 26.573831 31.386581 26.560547 31.363281 z "
       transform="translate(0,1004.3622)"
       id="path4238" />
  </g>
</svg>
