<?xml version="1.0" encoding="UTF-8" standalone="no"?>
<!-- Created with Inkscape (http://www.inkscape.org/) -->

<svg
   xmlns:dc="http://purl.org/dc/elements/1.1/"
   xmlns:cc="http://creativecommons.org/ns#"
   xmlns:rdf="http://www.w3.org/1999/02/22-rdf-syntax-ns#"
   xmlns:svg="http://www.w3.org/2000/svg"
   xmlns="http://www.w3.org/2000/svg"
   xmlns:xlink="http://www.w3.org/1999/xlink"
   xmlns:sodipodi="http://sodipodi.sourceforge.net/DTD/sodipodi-0.dtd"
   xmlns:inkscape="http://www.inkscape.org/namespaces/inkscape"
   width="48"
   height="48"
   id="svg2"
   version="1.1"
   inkscape:version="0.48+devel r12669"
   sodipodi:docname="gnash.svg"
   inkscape:export-filename="/home/uri/workspace/NitruxforAndroid/res/drawable-xhdpi/flash_settings.png"
   inkscape:export-xdpi="180"
   inkscape:export-ydpi="180">
  <defs
     id="defs4">
    <linearGradient
       id="linearGradient868">
      <stop
         style="stop-color:#aa0000;stop-opacity:1"
         offset="0"
         id="stop870" />
      <stop
         style="stop-color:#ff5555;stop-opacity:1"
         offset="1"
         id="stop872" />
    </linearGradient>
    <linearGradient
       inkscape:collect="always"
       xlink:href="#linearGradient868"
       id="linearGradient1403"
       x1="91.081619"
       y1="-1057.2456"
       x2="91.081619"
       y2="-1009.2728"
       gradientUnits="userSpaceOnUse" />
    <linearGradient
       id="linearGradient4053">
      <stop
         id="stop4055"
         offset="0"
         style="stop-color:#ffcdcd;stop-opacity:1" />
      <stop
         id="stop4057"
         offset="1"
         style="stop-color:#fff5f5;stop-opacity:1" />
    </linearGradient>
    <linearGradient
       inkscape:collect="always"
       xlink:href="#linearGradient4053"
       id="linearGradient4092"
       x1="-20.403162"
       y1="1037.4948"
       x2="-20.403162"
       y2="1006.811"
       gradientUnits="userSpaceOnUse"
       gradientTransform="translate(17.714834,6.2114)" />
  </defs>
  <sodipodi:namedview
     id="base"
     pagecolor="#ffffff"
     bordercolor="#666666"
     borderopacity="1.0"
     inkscape:pageopacity="0.0"
     inkscape:pageshadow="2"
     inkscape:zoom="6.3225496"
     inkscape:cx="58.81806"
     inkscape:cy="34.116846"
     inkscape:document-units="px"
     inkscape:current-layer="layer1"
     showgrid="false"
     inkscape:window-width="1366"
     inkscape:window-height="718"
     inkscape:window-x="0"
     inkscape:window-y="30"
     inkscape:window-maximized="1" />
  <metadata
     id="metadata7">
    <rdf:RDF>
      <cc:Work
         rdf:about="">
        <dc:format>image/svg+xml</dc:format>
        <dc:type
           rdf:resource="http://purl.org/dc/dcmitype/StillImage" />
        <dc:title></dc:title>
      </cc:Work>
    </rdf:RDF>
  </metadata>
  <g
     inkscape:label="Capa 1"
     inkscape:groupmode="layer"
     id="layer1"
     transform="translate(0,-1004.3622)">
    <g
       id="g1405"
       transform="translate(-67.039993,-4.9080818)">
      <rect
         transform="scale(1,-1)"
         ry="1.9445436"
         y="-1057.2703"
         x="67.039993"
         height="48"
         width="48"
         id="rect2991-1"
         style="fill:url(#linearGradient1403);fill-opacity:1;stroke:none" />
      <path
         id="rect846"
         d="m 67.039994,1054.2703 0,1.0625 c 0,1.0773 0.860223,1.9375 1.9375,1.9375 l 44.124996,0 c 1.07728,0 1.9375,-0.8602 1.9375,-1.9375 l 0,-1.0625 c 0,1.0773 -0.86022,1.9375 -1.9375,1.9375 l -44.124996,0 C 67.900217,1056.2078 67.039994,1055.3476 67.039994,1054.2703 Z"
         style="fill:#000000;fill-opacity:1;stroke:none"
         inkscape:connector-curvature="0" />
      <path
         id="path7515"
         d="m 69.571244,1009.9266 c -0.917088,0 -1.671147,0.6395 -1.84375,1.5 0.335612,-0.2799 0.774512,-0.4375 1.25,-0.4375 l 44.124996,0 c 0.47549,0 0.91439,0.1576 1.25,0.4375 -0.1726,-0.8605 -0.92666,-1.5 -1.84375,-1.5 L 69.571244,1009.9266 Z"
         style="fill:#ffffff;fill-opacity:0.5372549;stroke:none"
         inkscape:connector-curvature="0" />
      <path
         id="rect4280-0"
         d="m 68.977494,1009.2703 c -1.077277,0 -1.9375,0.8602 -1.9375,1.9375 l 0,43.0625 c 0,0.7934 0.480024,1.449 1.15625,1.75 -0.309342,-0.3333 -0.5,-0.7824 -0.5,-1.2812 l 0,-42.9375 c 0,-1.0482 0.826899,-1.875 1.875,-1.875 l 42.937496,0 c 1.04811,0 1.875,0.8268 1.875,1.875 l 0,42.9375 c 0,0.4988 -0.19065,0.9479 -0.5,1.2812 0.67623,-0.301 1.15625,-0.9566 1.15625,-1.75 l 0,-43.0625 c 0,-1.0773 -0.86022,-1.9375 -1.9375,-1.9375 L 68.977494,1009.2703 Z"
         style="fill:#000000;fill-opacity:0.39215686;stroke:none"
         inkscape:connector-curvature="0" />
    </g>
    <g
       id="g4113"
       transform="translate(33.847105,1.9128789e-5)">
      <path
         inkscape:connector-curvature="0"
         id="path4101"
         style="font-size:47.60432816px;font-style:normal;font-variant:normal;font-weight:normal;font-stretch:normal;text-align:start;line-height:125%;letter-spacing:0px;word-spacing:0px;writing-mode:lr-tb;text-anchor:start;fill:#000000;fill-opacity:0.05882353;stroke:none;font-family:Black Rose;-inkscape-font-specification:Black Rose"
         d="m 2.9775009,1025.2064 q -2.61823801,2.8086 -8.949614,5.9981 -3.903555,13.7577 -11.4726429,13.7577 -5.093663,0 -4.665224,-4.6177 0.238022,-2.6658 3.52272,-5.046 2.332612,-1.6662 7.426276,-3.9512 0.571252,-1.7137 0.904482,-3.1895 -3.808346,4.0464 -7.902319,3.9988 -2.808655,-0.048 -3.903555,-2.2374 -0.761669,-1.6186 -0.571251,-3.9512 0.428438,-4.9984 3.998763,-8.3783 3.570325,-3.4275 8.568779,-3.4275 2.2850079,0 4.3795979,0.6188 2.094591,0.5713 2.52303,1.3329 -0.666461,4.4748 -2.189799,12.6152 5.37928899,-2.5706 7.569088,-4.7604 l 0.761669,1.2377 z m -12.9959819,-4.8557 q 0.04761,-0.8569 -0.33323,-1.3329 -0.33323,-0.5236 -1.237712,-0.476 -1.904173,0.095 -3.617929,2.761 -1.42813,2.285 -1.523339,3.9988 -0.09521,1.7613 1.570943,1.7613 1.666152,0 3.379907,-2.523 1.618547,-2.3326 1.76136,-4.1892 z m -2.570633,14.0433 q -4.189181,2.047 -4.28439,3.2847 -0.0476,0.6665 0.714065,0.6665 1.380526,0 3.570325,-3.9512 z" />
      <path
         d="m 2.9775009,1024.8064 q -2.61823801,2.8086 -8.949614,5.9981 -3.903555,13.7577 -11.4726429,13.7577 -5.093663,0 -4.665224,-4.6177 0.238022,-2.6658 3.52272,-5.046 2.332612,-1.6662 7.426276,-3.9512 0.571252,-1.7137 0.904482,-3.1895 -3.808346,4.0464 -7.902319,3.9988 -2.808655,-0.048 -3.903555,-2.2374 -0.761669,-1.6186 -0.571251,-3.9512 0.428438,-4.9984 3.998763,-8.3783 3.570325,-3.4275 8.568779,-3.4275 2.2850079,0 4.3795979,0.6188 2.094591,0.5713 2.52303,1.3329 -0.666461,4.4748 -2.189799,12.6152 5.37928899,-2.5706 7.569088,-4.7604 l 0.761669,1.2377 z m -12.9959819,-4.8557 q 0.04761,-0.8569 -0.33323,-1.3329 -0.33323,-0.5236 -1.237712,-0.476 -1.904173,0.095 -3.617929,2.761 -1.42813,2.285 -1.523339,3.9988 -0.09521,1.7613 1.570943,1.7613 1.666152,0 3.379907,-2.523 1.618547,-2.3326 1.76136,-4.1892 z m -2.570633,14.0433 q -4.189181,2.047 -4.28439,3.2847 -0.0476,0.6665 0.714065,0.6665 1.380526,0 3.570325,-3.9512 z"
         style="font-size:47.60432816px;font-style:normal;font-variant:normal;font-weight:normal;font-stretch:normal;text-align:start;line-height:125%;letter-spacing:0px;word-spacing:0px;writing-mode:lr-tb;text-anchor:start;fill:#000000;fill-opacity:0.11764706;stroke:none;font-family:Black Rose;-inkscape-font-specification:Black Rose"
         id="path4099"
         inkscape:connector-curvature="0" />
      <path
         inkscape:connector-curvature="0"
         id="path4094"
         style="font-size:47.60432816px;font-style:normal;font-variant:normal;font-weight:normal;font-stretch:normal;text-align:start;line-height:125%;letter-spacing:0px;word-spacing:0px;writing-mode:lr-tb;text-anchor:start;fill:#000000;fill-opacity:0.23529412;stroke:none;font-family:Black Rose;-inkscape-font-specification:Black Rose"
         d="m 2.9775009,1024.4064 q -2.61823801,2.8086 -8.949614,5.9981 -3.903555,13.7577 -11.4726429,13.7577 -5.093663,0 -4.665224,-4.6177 0.238022,-2.6658 3.52272,-5.046 2.332612,-1.6662 7.426276,-3.9512 0.571252,-1.7137 0.904482,-3.1895 -3.808346,4.0464 -7.902319,3.9988 -2.808655,-0.048 -3.903555,-2.2374 -0.761669,-1.6186 -0.571251,-3.9512 0.428438,-4.9984 3.998763,-8.3783 3.570325,-3.4275 8.568779,-3.4275 2.2850079,0 4.3795979,0.6188 2.094591,0.5713 2.52303,1.3329 -0.666461,4.4748 -2.189799,12.6152 5.37928899,-2.5706 7.569088,-4.7604 l 0.761669,1.2377 z m -12.9959819,-4.8557 q 0.04761,-0.8569 -0.33323,-1.3329 -0.33323,-0.5236 -1.237712,-0.476 -1.904173,0.095 -3.617929,2.761 -1.42813,2.285 -1.523339,3.9988 -0.09521,1.7613 1.570943,1.7613 1.666152,0 3.379907,-2.523 1.618547,-2.3326 1.76136,-4.1892 z m -2.570633,14.0433 q -4.189181,2.047 -4.28439,3.2847 -0.0476,0.6665 0.714065,0.6665 1.380526,0 3.570325,-3.9512 z" />
      <path
         d="m 2.9775009,1024.0064 q -2.61823801,2.8086 -8.949614,5.9981 -3.903555,13.7577 -11.4726429,13.7577 -5.093663,0 -4.665224,-4.6177 0.238022,-2.6658 3.52272,-5.046 2.332612,-1.6662 7.426276,-3.9512 0.571252,-1.7137 0.904482,-3.1895 -3.808346,4.0464 -7.902319,3.9988 -2.808655,-0.048 -3.903555,-2.2374 -0.761669,-1.6186 -0.571251,-3.9512 0.428438,-4.9984 3.998763,-8.3783 3.570325,-3.4275 8.568779,-3.4275 2.2850079,0 4.3795979,0.6188 2.094591,0.5713 2.52303,1.3329 -0.666461,4.4748 -2.189799,12.6152 5.37928899,-2.5706 7.569088,-4.7604 l 0.761669,1.2377 z m -12.9959819,-4.8557 q 0.04761,-0.8569 -0.33323,-1.3329 -0.33323,-0.5236 -1.237712,-0.476 -1.904173,0.095 -3.617929,2.761 -1.42813,2.285 -1.523339,3.9988 -0.09521,1.7613 1.570943,1.7613 1.666152,0 3.379907,-2.523 1.618547,-2.3326 1.76136,-4.1892 z m -2.570633,14.0433 q -4.189181,2.047 -4.28439,3.2847 -0.0476,0.6665 0.714065,0.6665 1.380526,0 3.570325,-3.9512 z"
         style="font-size:47.60432816px;font-style:normal;font-variant:normal;font-weight:normal;font-stretch:normal;text-align:start;line-height:125%;letter-spacing:0px;word-spacing:0px;writing-mode:lr-tb;text-anchor:start;fill:url(#linearGradient4092);fill-opacity:1;stroke:none;font-family:Black Rose;-inkscape-font-specification:Black Rose"
         id="path4083"
         inkscape:connector-curvature="0" />
      <path
         id="path4103"
         transform="translate(0,1004.3622)"
         d="m -3.2734375,10.423828 c -0.4499995,2.940096 -1.1278017,6.854593 -2.0800781,11.94336 0.057505,-0.02748 0.1031976,-0.05266 0.1601562,-0.08008 0.9211092,-4.957015 1.6120278,-8.93467 2.0292969,-11.736328 -0.024621,-0.04377 -0.0765,-0.08413 -0.109375,-0.126953 z m -8.3164065,1.75586 c -1.269448,0.06333 -2.474683,0.984385 -3.617187,2.761718 -0.952087,1.523334 -1.459965,2.855514 -1.523438,3.998047 -0.01173,0.216928 0.0029,0.407133 0.03125,0.583985 0.110285,-1.094893 0.597893,-2.352338 1.492188,-3.783204 1.142504,-1.777333 2.347739,-2.696432 3.617187,-2.759765 0.602988,-0.03173 1.016128,0.125542 1.238282,0.474609 0.156065,0.195061 0.250687,0.445321 0.298828,0.736328 0.0078,-0.06645 0.03011,-0.137561 0.03516,-0.203125 0.03174,-0.571266 -0.08009,-1.014698 -0.333984,-1.332031 -0.222154,-0.349067 -0.635294,-0.508296 -1.238282,-0.476562 z m 14.261719,6.96875 c -1.77752554,1.784846 -4.6500451,3.681093 -8.6445312,5.693359 -2.6023701,9.1718 -6.4265978,13.757812 -11.4726558,13.757812 -2.931553,0 -4.483985,-1.152956 -4.671876,-3.447265 -0.123145,2.821499 1.420915,4.248047 4.671876,4.248047 5.046058,0 8.8702857,-4.586013 11.4726558,-13.757813 4.2209173,-2.126333 7.2037267,-4.125647 8.9492187,-5.998047 L 2.671875,19.148438 Z m -25.322266,1.810546 c -0.04271,1.311964 0.142697,2.452369 0.587891,3.398438 0.729933,1.4596 2.03186,2.204328 3.904297,2.236328 2.63169,0.0306 5.174255,-1.219586 7.628906,-3.726562 0.09692,-0.362881 0.195867,-0.728723 0.273438,-1.072266 -2.538898,2.6976 -5.173029,4.031733 -7.902344,4 -1.872437,-0.032 -3.174364,-0.778681 -3.904297,-2.238281 -0.352272,-0.748602 -0.541105,-1.619962 -0.587891,-2.597657 z m 10.060547,7.072266 c -2.792787,1.364667 -4.21973,2.460023 -4.283203,3.285156 -0.01343,0.188072 0.03201,0.32708 0.115235,0.435547 0.341173,-0.687443 1.528907,-1.543383 3.458984,-2.544922 0.232619,-0.371722 0.460768,-0.727909 0.708984,-1.175781 z"
         style="font-size:47.60432816px;font-style:normal;font-variant:normal;font-weight:normal;font-stretch:normal;text-align:start;line-height:125%;letter-spacing:0px;word-spacing:0px;writing-mode:lr-tb;text-anchor:start;fill:#aa0000;fill-opacity:0.31372549;stroke:none;font-family:Black Rose;-inkscape-font-specification:Black Rose"
         inkscape:connector-curvature="0" />
      <path
         id="path4108"
         transform="translate(0,1004.3622)"
         d="m -10.066406,8.5996094 c -3.332303,0 -6.188143,1.1427343 -8.56836,3.4277346 -2.380216,2.253266 -3.712421,5.046639 -3.998046,8.378906 -0.03528,0.432138 -0.04108,0.840948 -0.02734,1.236328 0.0016,-0.273338 0.0037,-0.546059 0.02734,-0.835937 0.285625,-3.332267 1.61783,-6.12564 3.998046,-8.378907 C -16.254549,10.142734 -13.398709,9 -10.066406,9 c 1.5233384,0 2.9844658,0.2066073 4.3808591,0.6191406 1.3358608,0.3643563 2.1474886,0.7871164 2.4667969,1.2675784 0.014392,-0.09528 0.040849,-0.243025 0.054687,-0.335938 C -3.4496885,10.043048 -4.2891529,9.5996167 -5.6855469,9.21875 -7.0819402,8.8062167 -8.5430676,8.5996094 -10.066406,8.5996094 Z m 0.04492,6.2109376 c -0.100174,1.232549 -0.684848,2.621644 -1.757813,4.167969 -1.142503,1.682 -2.270091,2.521484 -3.380859,2.521484 -0.984424,0 -1.504288,-0.462493 -1.566406,-1.384766 -4.57e-4,0.0075 -0.0035,0.01592 -0.0039,0.02344 -0.06347,1.1742 0.459544,1.761719 1.570313,1.761719 1.110768,0 2.238356,-0.841438 3.380859,-2.523438 1.079031,-1.555067 1.66651,-2.949767 1.761719,-4.1875 0.0074,-0.133205 0.0042,-0.259508 -0.0039,-0.378906 z M 2.2167969,18.40625 c -1.44810001,1.448101 -3.9499446,3.020858 -7.4902344,4.71875 -0.0305,0.163556 -0.049044,0.275568 -0.080078,0.441406 3.5861926,-1.713733 6.11044647,-3.299899 7.5703125,-4.759765 l 0.6074219,0.990234 c 0.048668,-0.05047 0.105461,-0.102052 0.1523437,-0.152344 L 2.2167969,18.40625 Z m -12.4726559,4.589844 c -0.04525,0.04807 -0.09141,0.08756 -0.136719,0.134765 -0.206271,0.835214 -0.453119,1.710951 -0.767578,2.654297 -3.395776,1.523334 -5.87266,2.840372 -7.427735,3.951172 -2.189798,1.5868 -3.362803,3.269675 -3.521484,5.046875 -0.03734,0.402499 -0.03926,0.775126 -0.01367,1.125 -0.002,-0.236699 -0.0103,-0.468177 0.01367,-0.726562 0.158681,-1.7772 1.331686,-3.458122 3.521484,-5.044922 1.555075,-1.1108 4.031959,-2.427839 7.427735,-3.951172 0.380834,-1.142467 0.682143,-2.205587 0.904297,-3.189453 z m -2.333985,6.236328 c -0.134941,0.06594 -0.226899,0.122822 -0.355468,0.1875 -1.293673,2.204997 -2.372793,3.363281 -3.214844,3.363281 -0.378584,0 -0.606864,-0.124099 -0.685547,-0.371094 -0.007,0.03412 -0.02479,0.07027 -0.02734,0.103516 -0.03173,0.444333 0.205114,0.667969 0.712891,0.667969 0.92035,0 2.110446,-1.317039 3.570312,-3.951172 z"
         style="font-size:47.60432816px;font-style:normal;font-variant:normal;font-weight:normal;font-stretch:normal;text-align:start;line-height:125%;letter-spacing:0px;word-spacing:0px;writing-mode:lr-tb;text-anchor:start;fill:#ffffff;fill-opacity:0.23529412;stroke:none;font-family:Black Rose;-inkscape-font-specification:Black Rose"
         inkscape:connector-curvature="0" />
    </g>
  </g>
</svg>
