<?xml version="1.0" encoding="UTF-8" standalone="no"?>
<!-- Created with Inkscape (http://www.inkscape.org/) -->

<svg
   xmlns:dc="http://purl.org/dc/elements/1.1/"
   xmlns:cc="http://creativecommons.org/ns#"
   xmlns:rdf="http://www.w3.org/1999/02/22-rdf-syntax-ns#"
   xmlns:svg="http://www.w3.org/2000/svg"
   xmlns="http://www.w3.org/2000/svg"
   xmlns:xlink="http://www.w3.org/1999/xlink"
   xmlns:sodipodi="http://sodipodi.sourceforge.net/DTD/sodipodi-0.dtd"
   xmlns:inkscape="http://www.inkscape.org/namespaces/inkscape"
   width="48"
   height="48"
   id="svg2003"
   version="1.1"
   inkscape:version="0.48+devel r12686"
   sodipodi:docname="gnome-music.svg">
  <defs
     id="defs2005">
    <linearGradient
       inkscape:collect="always"
       id="linearGradient13231">
      <stop
         style="stop-color:#000000;stop-opacity:1;"
         offset="0"
         id="stop13233" />
      <stop
         style="stop-color:#000000;stop-opacity:0;"
         offset="1"
         id="stop13235" />
    </linearGradient>
    <linearGradient
       id="linearGradient13218"
       inkscape:collect="always">
      <stop
         id="stop13220"
         offset="0"
         style="stop-color:#000000;stop-opacity:0.12552302" />
      <stop
         id="stop13222"
         offset="1"
         style="stop-color:#000000;stop-opacity:0.52123553" />
    </linearGradient>
    <linearGradient
       id="linearGradient10126"
       inkscape:collect="always">
      <stop
         id="stop10128"
         offset="0"
         style="stop-color:#d0bca0;stop-opacity:1" />
      <stop
         id="stop10130"
         offset="1"
         style="stop-color:#d9d6b5;stop-opacity:1" />
    </linearGradient>
    <linearGradient
       inkscape:collect="always"
       id="linearGradient10114">
      <stop
         style="stop-color:#000000;stop-opacity:1;"
         offset="0"
         id="stop10116" />
      <stop
         style="stop-color:#000000;stop-opacity:0;"
         offset="1"
         id="stop10118" />
    </linearGradient>
    <linearGradient
       inkscape:collect="always"
       id="linearGradient10101">
      <stop
         style="stop-color:#000000;stop-opacity:1;"
         offset="0"
         id="stop10103" />
      <stop
         style="stop-color:#000000;stop-opacity:0;"
         offset="1"
         id="stop10105" />
    </linearGradient>
    <linearGradient
       id="linearGradient10090"
       inkscape:collect="always">
      <stop
         id="stop10092"
         offset="0"
         style="stop-color:#1a1a1a;stop-opacity:1" />
      <stop
         id="stop10094"
         offset="1"
         style="stop-color:#333333;stop-opacity:1" />
    </linearGradient>
    <linearGradient
       id="linearGradient10076"
       inkscape:collect="always">
      <stop
         id="stop10078"
         offset="0"
         style="stop-color:#3e2a1d;stop-opacity:1" />
      <stop
         id="stop10080"
         offset="1"
         style="stop-color:#402c1e;stop-opacity:1" />
    </linearGradient>
    <linearGradient
       inkscape:collect="always"
       id="linearGradient10061">
      <stop
         style="stop-color:#472f1b;stop-opacity:1"
         offset="0"
         id="stop10063" />
      <stop
         style="stop-color:#3a3023;stop-opacity:1"
         offset="1"
         id="stop10065" />
    </linearGradient>
    <linearGradient
       inkscape:collect="always"
       id="linearGradient6679">
      <stop
         style="stop-color:#1a1a1a;stop-opacity:1"
         offset="0"
         id="stop6681" />
      <stop
         style="stop-color:#333333;stop-opacity:1"
         offset="1"
         id="stop6683" />
    </linearGradient>
    <linearGradient
       inkscape:collect="always"
       xlink:href="#linearGradient6679"
       id="linearGradient6685"
       x1="24.218407"
       y1="-1053.0693"
       x2="24.218407"
       y2="-1005.1628"
       gradientUnits="userSpaceOnUse" />
    <linearGradient
       id="linearGradient1010">
      <stop
         id="stop1012"
         offset="0"
         style="stop-color:#1a1a1a;stop-opacity:1" />
      <stop
         style="stop-color:#868686;stop-opacity:1"
         offset="0.94398516"
         id="stop1016" />
      <stop
         id="stop1018"
         offset="0.96689731"
         style="stop-color:#ffffff;stop-opacity:1" />
      <stop
         style="stop-color:#b0b0b0;stop-opacity:1"
         offset="0.99013621"
         id="stop1020" />
      <stop
         id="stop1014"
         offset="1"
         style="stop-color:#6a6a6a;stop-opacity:1" />
    </linearGradient>
    <radialGradient
       inkscape:collect="always"
       xlink:href="#linearGradient1010"
       id="radialGradient7911"
       cx="24"
       cy="1028.3622"
       fx="24"
       fy="1028.3622"
       r="22.450001"
       gradientTransform="matrix(0.97707845,-1.9358755e-8,4.4999775e-8,2.3651109,0.55007144,-1403.8284)"
       gradientUnits="userSpaceOnUse" />
    <linearGradient
       y2="-0.30679664"
       x2="25.678078"
       y1="47.853172"
       x1="25.678078"
       gradientTransform="matrix(1.0476179,0,0,1.0476179,-0.72846592,-0.9456)"
       gradientUnits="userSpaceOnUse"
       id="linearGradient10042"
       xlink:href="#linearGradient10061"
       inkscape:collect="always" />
    <linearGradient
       inkscape:collect="always"
       xlink:href="#linearGradient10076"
       id="linearGradient10074"
       gradientUnits="userSpaceOnUse"
       x1="24.218407"
       y1="-1053.0693"
       x2="24.218407"
       y2="-1005.1628"
       gradientTransform="matrix(0.87499999,0,0,0.87499999,3,-128.54527)" />
    <linearGradient
       inkscape:collect="always"
       xlink:href="#linearGradient10090"
       id="linearGradient10084"
       gradientUnits="userSpaceOnUse"
       x1="24.218407"
       y1="-1017.512"
       x2="24.218407"
       y2="-1005.1628"
       gradientTransform="matrix(0.87499999,0,0,-0.87499999,3,-875.81693)" />
    <linearGradient
       inkscape:collect="always"
       xlink:href="#linearGradient10101"
       id="linearGradient10107"
       x1="24.8125"
       y1="3.0625"
       x2="24.8125"
       y2="4.3125"
       gradientUnits="userSpaceOnUse" />
    <linearGradient
       inkscape:collect="always"
       xlink:href="#linearGradient10114"
       id="linearGradient10120"
       x1="26.125"
       y1="15.53125"
       x2="26.125"
       y2="14.78125"
       gradientUnits="userSpaceOnUse" />
    <linearGradient
       inkscape:collect="always"
       xlink:href="#linearGradient10126"
       id="linearGradient10124"
       gradientUnits="userSpaceOnUse"
       x1="26.125"
       y1="15.53125"
       x2="26.125"
       y2="14.78125"
       gradientTransform="translate(0,1005.331)" />
    <linearGradient
       inkscape:collect="always"
       xlink:href="#linearGradient10114"
       id="linearGradient10134"
       gradientUnits="userSpaceOnUse"
       x1="26.125"
       y1="15.53125"
       x2="26.125"
       y2="14.78125"
       gradientTransform="matrix(1,0,0,-1,0,1036.331)" />
    <linearGradient
       x1="0"
       y1="0"
       x2="1"
       y2="0"
       gradientUnits="userSpaceOnUse"
       gradientTransform="matrix(13.526835,20.525875,20.525875,-13.526835,19.18986,1021.0543)"
       spreadMethod="pad"
       id="linearGradient6194">
      <stop
         style="stop-opacity:1;stop-color:#ffffff"
         offset="0"
         id="stop6196" />
      <stop
         style="stop-opacity:1;stop-color:#29282b"
         offset="0.168498"
         id="stop6198" />
      <stop
         style="stop-opacity:1;stop-color:#868c95"
         offset="0.263736"
         id="stop6200" />
      <stop
         style="stop-opacity:1;stop-color:#92979f"
         offset="0.395604"
         id="stop6202" />
      <stop
         style="stop-opacity:1;stop-color:#737881"
         offset="0.542125"
         id="stop6204" />
      <stop
         style="stop-opacity:1;stop-color:#70757e"
         offset="0.626374"
         id="stop6206" />
      <stop
         style="stop-opacity:1;stop-color:#e4e6e8"
         offset="0.717949"
         id="stop6208" />
      <stop
         style="stop-opacity:1;stop-color:#ffffff"
         offset="0.791209"
         id="stop6210" />
      <stop
         style="stop-opacity:1;stop-color:#1d191a"
         offset="1"
         id="stop6212" />
    </linearGradient>
    <radialGradient
       r="21"
       fy="-1034.1074"
       fx="24"
       cy="-1034.1074"
       cx="24"
       gradientTransform="matrix(0.92142256,2.0764604e-7,1.5962558e-7,-0.70833333,1.8860237,301.61469)"
       gradientUnits="userSpaceOnUse"
       id="radialGradient13193"
       xlink:href="#linearGradient13218"
       inkscape:collect="always" />
    <linearGradient
       inkscape:collect="always"
       xlink:href="#linearGradient13231"
       id="linearGradient13237"
       x1="2.2980971"
       y1="26.786797"
       x2="4.7287765"
       y2="26.786797"
       gradientUnits="userSpaceOnUse" />
    <linearGradient
       inkscape:collect="always"
       xlink:href="#linearGradient13231"
       id="linearGradient13241"
       gradientUnits="userSpaceOnUse"
       x1="2.2980971"
       y1="26.786797"
       x2="4.7287765"
       y2="26.786797"
       gradientTransform="matrix(-1,0,0,1,48,1004.3622)" />
    <linearGradient
       inkscape:collect="always"
       xlink:href="#linearGradient10101"
       id="linearGradient13245"
       gradientUnits="userSpaceOnUse"
       x1="24.8125"
       y1="3.0625"
       x2="24.8125"
       y2="4.3125"
       gradientTransform="matrix(1,0,0,-1,0,1052.3622)" />
    <linearGradient
       inkscape:collect="always"
       xlink:href="#linearGradient10126"
       id="linearGradient4168"
       x1="14.144834"
       y1="11.76724"
       x2="14.144834"
       y2="6.7132149"
       gradientUnits="userSpaceOnUse"
       gradientTransform="translate(22.38101,1004.3622)" />
    <linearGradient
       inkscape:collect="always"
       xlink:href="#linearGradient6194"
       id="linearGradient4180"
       x1="25.903835"
       y1="1012.7005"
       x2="46.169086"
       y2="1012.7005"
       gradientUnits="userSpaceOnUse"
       gradientTransform="translate(-0.59996,0)" />
  </defs>
  <sodipodi:namedview
     id="base"
     pagecolor="#ffffff"
     bordercolor="#666666"
     borderopacity="1.0"
     inkscape:pageopacity="0.0"
     inkscape:pageshadow="2"
     inkscape:zoom="16"
     inkscape:cx="32.033717"
     inkscape:cy="40.749973"
     inkscape:document-units="px"
     inkscape:current-layer="layer1"
     showgrid="false"
     width="0px"
     height="0px"
     fit-margin-top="0"
     fit-margin-left="0"
     fit-margin-right="0"
     fit-margin-bottom="0"
     inkscape:window-width="1366"
     inkscape:window-height="714"
     inkscape:window-x="0"
     inkscape:window-y="30"
     inkscape:window-maximized="1" />
  <metadata
     id="metadata2008">
    <rdf:RDF>
      <cc:Work
         rdf:about="">
        <dc:format>image/svg+xml</dc:format>
        <dc:type
           rdf:resource="http://purl.org/dc/dcmitype/StillImage" />
        <dc:title />
        <cc:license
           rdf:resource="" />
      </cc:Work>
    </rdf:RDF>
  </metadata>
  <g
     inkscape:label="Capa 1"
     inkscape:groupmode="layer"
     id="layer1"
     transform="translate(0,-1004.3622)">
    <rect
       style="fill:url(#linearGradient6685);fill-opacity:1;stroke:none"
       id="rect2991-1"
       width="48"
       height="48"
       x="2.0861816e-07"
       y="-1052.3622"
       ry="1.9445436"
       transform="scale(1,-1)" />
    <path
       inkscape:connector-curvature="0"
       style="fill:#000000;fill-opacity:1;stroke:none"
       d="m -2.0861817e-7,1049.3622 0,1.0625 c 0,1.0773 0.86022289861817,1.9375 1.93749950861817,1.9375 l 44.1249997,0 c 1.077277,0 1.9375,-0.8602 1.9375,-1.9375 l 0,-1.0625 c 0,1.0773 -0.860223,1.9375 -1.9375,1.9375 l -44.1249997,0 C 0.86022269,1051.2997 -2.0861817e-7,1050.4395 -2.0861817e-7,1049.3622 Z"
       id="rect846" />
    <path
       inkscape:connector-curvature="0"
       style="fill:#ffffff;fill-opacity:0.5372549;stroke:none"
       d="m 2.5312493,1005.0185 c -0.917088,0 -1.67114631,0.6395 -1.84374951,1.5 0.33561201,-0.2799 0.77451211,-0.4375 1.24999951,-0.4375 l 44.1249997,0 c 0.475488,0 0.914388,0.1576 1.25,0.4375 -0.172603,-0.8605 -0.926662,-1.5 -1.84375,-1.5 L 2.5312493,1005.0185 Z"
       id="path7515" />
    <path
       inkscape:connector-curvature="0"
       style="fill:#000000;fill-opacity:0.39215686;stroke:none"
       d="m 1.9374993,1004.3622 c -1.07727651,0 -1.93749950861817,0.8602 -1.93749950861817,1.9375 l 0,43.0625 c 0,0.7934 0.48002359861817,1.449 1.15624990861817,1.75 -0.30934161,-0.3333 -0.49999991,-0.7824 -0.49999991,-1.2812 l 0,-42.9375 c 0,-1.0482 0.82689891,-1.875 1.87499951,-1.875 l 42.9374997,0 c 1.048101,0 1.875,0.8268 1.875,1.875 l 0,42.9375 c 0,0.4988 -0.190658,0.9479 -0.5,1.2812 0.676226,-0.301 1.15625,-0.9566 1.15625,-1.75 l 0,-43.0625 c 0,-1.0773 -0.860223,-1.9375 -1.9375,-1.9375 L 1.9374993,1004.3622 Z"
       id="rect4280" />
    <rect
       transform="scale(1,-1)"
       ry="1.7014757"
       y="-1049.3622"
       x="3.0000002"
       height="42"
       width="42"
       id="rect10072"
       style="fill:url(#linearGradient10074);fill-opacity:1;stroke:none" />
    <path
       style="fill:url(#linearGradient10120);fill-opacity:1;stroke:none"
       d="M 3 14.40625 L 3 15.375 L 45 15.375 L 45 14.40625 L 3 14.40625 z "
       transform="translate(0,1004.3622)"
       id="path10109" />
    <path
       style="fill:url(#linearGradient10042);fill-opacity:1;stroke:none"
       d="M 4.59375 3 C 4.105915 3.0265866 3.6990152 3.2742278 3.40625 3.625 L 6.90625 9.6875 L 5.5625 12 L 3 7.5625 L 3 10.125 L 4.8125 13.28125 L 3.46875 15.625 L 3 14.8125 L 3 19.0625 L 3.46875 18.28125 L 4.8125 20.5625 L 3.46875 22.875 L 3 22.0625 L 3 26.3125 L 3.46875 25.5 L 4.8125 27.84375 L 3.46875 30.125 L 3 29.34375 L 3 33.59375 L 3.46875 32.78125 L 4.8125 35.09375 L 3.46875 37.40625 L 3 36.59375 L 3 40.84375 L 3.46875 40.03125 L 4.8125 42.34375 L 3.53125 44.53125 C 3.83607 44.820948 4.231832 45 4.6875 45 L 4.78125 45 L 5.5625 43.6875 L 6.34375 45 L 8.96875 45 L 9.75 43.6875 L 10.53125 45 L 13.15625 45 L 13.9375 43.6875 L 14.71875 45 L 17.375 45 L 18.125 43.6875 L 18.90625 45 L 21.5625 45 L 22.34375 43.6875 L 23.125 45 L 25.75 45 L 26.53125 43.6875 L 27.3125 45 L 29.9375 45 L 30.71875 43.6875 L 31.5 45 L 34.125 45 L 34.90625 43.6875 L 35.6875 45 L 38.3125 45 L 39.09375 43.6875 L 39.875 45 L 42.5 45 L 43.28125 43.6875 L 43.96875 44.875 C 44.416326 44.686319 44.75166 44.308302 44.90625 43.84375 L 44.03125 42.34375 L 45 40.6875 L 45 36.75 L 44.03125 35.09375 L 45 33.4375 L 45 29.5 L 44.03125 27.84375 L 45 26.15625 L 45 22.21875 L 44.03125 20.5625 L 45 18.90625 L 45 14.96875 L 44.03125 13.28125 L 45 11.59375 L 45 9.03125 L 43.28125 12 L 41.9375 9.6875 L 44.96875 4.40625 C 44.88254 3.8877626 44.566568 3.4654106 44.125 3.21875 L 41.1875 8.34375 L 39.84375 6.0625 L 41.625 3 L 40.09375 3 L 39.09375 4.71875 L 38.09375 3 L 35.90625 3 L 34.90625 4.71875 L 33.90625 3 L 31.71875 3 L 30.71875 4.71875 L 29.71875 3 L 27.53125 3 L 26.53125 4.71875 L 25.53125 3 L 23.34375 3 L 22.34375 4.71875 L 21.34375 3 L 19.125 3 L 18.125 4.71875 L 17.125 3 L 14.9375 3 L 13.9375 4.71875 L 12.9375 3 L 10.75 3 L 9.75 4.71875 L 8.75 3 L 7.21875 3 L 9 6.0625 L 7.65625 8.34375 L 4.59375 3 z M 11.84375 3.75 L 13.1875 6.0625 L 11.84375 8.34375 L 10.5 6.0625 L 11.84375 3.75 z M 16.03125 3.75 L 17.375 6.0625 L 16.03125 8.34375 L 14.6875 6.0625 L 16.03125 3.75 z M 20.25 3.75 L 21.5625 6.0625 L 20.25 8.34375 L 18.90625 6.0625 L 20.25 3.75 z M 24.4375 3.75 L 25.78125 6.0625 L 24.4375 8.34375 L 23.09375 6.0625 L 24.4375 3.75 z M 28.625 3.75 L 29.96875 6.0625 L 28.625 8.34375 L 27.28125 6.0625 L 28.625 3.75 z M 32.8125 3.75 L 34.15625 6.0625 L 32.8125 8.34375 L 31.46875 6.0625 L 32.8125 3.75 z M 37 3.75 L 38.34375 6.0625 L 37 8.34375 L 35.65625 6.0625 L 37 3.75 z M 9.75 7.375 L 11.09375 9.6875 L 9.75 12 L 8.40625 9.6875 L 9.75 7.375 z M 13.9375 7.375 L 15.28125 9.6875 L 13.9375 12 L 12.59375 9.6875 L 13.9375 7.375 z M 18.125 7.375 L 19.46875 9.6875 L 18.125 12 L 16.8125 9.6875 L 18.125 7.375 z M 22.34375 7.375 L 23.6875 9.6875 L 22.34375 12 L 21 9.6875 L 22.34375 7.375 z M 26.53125 7.375 L 27.875 9.6875 L 26.53125 12 L 25.1875 9.6875 L 26.53125 7.375 z M 30.71875 7.375 L 32.0625 9.6875 L 30.71875 12 L 29.375 9.6875 L 30.71875 7.375 z M 34.90625 7.375 L 36.25 9.6875 L 34.90625 12 L 33.5625 9.6875 L 34.90625 7.375 z M 39.09375 7.375 L 40.4375 9.6875 L 39.09375 12 L 37.75 9.6875 L 39.09375 7.375 z M 7.65625 11 L 9 13.28125 L 7.65625 15.625 L 6.3125 13.28125 L 7.65625 11 z M 11.84375 11 L 13.1875 13.28125 L 11.84375 15.625 L 10.5 13.28125 L 11.84375 11 z M 16.03125 11 L 17.375 13.28125 L 16.03125 15.625 L 14.6875 13.28125 L 16.03125 11 z M 20.25 11 L 21.5625 13.28125 L 20.25 15.625 L 18.90625 13.28125 L 20.25 11 z M 24.4375 11 L 25.78125 13.28125 L 24.4375 15.625 L 23.09375 13.28125 L 24.4375 11 z M 28.625 11 L 29.96875 13.28125 L 28.625 15.625 L 27.28125 13.28125 L 28.625 11 z M 32.8125 11 L 34.15625 13.28125 L 32.8125 15.625 L 31.46875 13.28125 L 32.8125 11 z M 37 11 L 38.34375 13.28125 L 37 15.625 L 35.65625 13.28125 L 37 11 z M 41.1875 11 L 42.53125 13.28125 L 41.1875 15.625 L 39.84375 13.28125 L 41.1875 11 z M 5.5625 14.625 L 6.90625 16.9375 L 5.5625 19.25 L 4.21875 16.9375 L 5.5625 14.625 z M 9.75 14.625 L 11.09375 16.9375 L 9.75 19.25 L 8.40625 16.9375 L 9.75 14.625 z M 13.9375 14.625 L 15.28125 16.9375 L 13.9375 19.25 L 12.59375 16.9375 L 13.9375 14.625 z M 18.125 14.625 L 19.46875 16.9375 L 18.125 19.25 L 16.8125 16.9375 L 18.125 14.625 z M 22.34375 14.625 L 23.6875 16.9375 L 22.34375 19.25 L 21 16.9375 L 22.34375 14.625 z M 26.53125 14.625 L 27.875 16.9375 L 26.53125 19.25 L 25.1875 16.9375 L 26.53125 14.625 z M 30.71875 14.625 L 32.0625 16.9375 L 30.71875 19.25 L 29.375 16.9375 L 30.71875 14.625 z M 34.90625 14.625 L 36.25 16.9375 L 34.90625 19.25 L 33.5625 16.9375 L 34.90625 14.625 z M 39.09375 14.625 L 40.4375 16.9375 L 39.09375 19.25 L 37.75 16.9375 L 39.09375 14.625 z M 43.28125 14.625 L 44.625 16.9375 L 43.28125 19.25 L 41.9375 16.9375 L 43.28125 14.625 z M 7.65625 18.28125 L 9 20.5625 L 7.65625 22.875 L 6.3125 20.5625 L 7.65625 18.28125 z M 11.84375 18.28125 L 13.1875 20.5625 L 11.84375 22.875 L 10.5 20.5625 L 11.84375 18.28125 z M 16.03125 18.28125 L 17.375 20.5625 L 16.03125 22.875 L 14.6875 20.5625 L 16.03125 18.28125 z M 20.25 18.28125 L 21.5625 20.5625 L 20.25 22.875 L 18.90625 20.5625 L 20.25 18.28125 z M 24.4375 18.28125 L 25.78125 20.5625 L 24.4375 22.875 L 23.09375 20.5625 L 24.4375 18.28125 z M 28.625 18.28125 L 29.96875 20.5625 L 28.625 22.875 L 27.28125 20.5625 L 28.625 18.28125 z M 32.8125 18.28125 L 34.15625 20.5625 L 32.8125 22.875 L 31.46875 20.5625 L 32.8125 18.28125 z M 37 18.28125 L 38.34375 20.5625 L 37 22.875 L 35.65625 20.5625 L 37 18.28125 z M 41.1875 18.28125 L 42.53125 20.5625 L 41.1875 22.875 L 39.84375 20.5625 L 41.1875 18.28125 z M 5.5625 21.875 L 6.90625 24.1875 L 5.5625 26.53125 L 4.21875 24.1875 L 5.5625 21.875 z M 9.75 21.875 L 11.09375 24.1875 L 9.75 26.53125 L 8.40625 24.1875 L 9.75 21.875 z M 13.9375 21.875 L 15.28125 24.1875 L 13.9375 26.53125 L 12.59375 24.1875 L 13.9375 21.875 z M 18.125 21.875 L 19.46875 24.1875 L 18.125 26.53125 L 16.8125 24.1875 L 18.125 21.875 z M 22.34375 21.875 L 23.6875 24.1875 L 22.34375 26.53125 L 21 24.1875 L 22.34375 21.875 z M 26.53125 21.875 L 27.875 24.1875 L 26.53125 26.53125 L 25.1875 24.1875 L 26.53125 21.875 z M 30.71875 21.875 L 32.0625 24.1875 L 30.71875 26.53125 L 29.375 24.1875 L 30.71875 21.875 z M 34.90625 21.875 L 36.25 24.1875 L 34.90625 26.53125 L 33.5625 24.1875 L 34.90625 21.875 z M 39.09375 21.875 L 40.4375 24.1875 L 39.09375 26.53125 L 37.75 24.1875 L 39.09375 21.875 z M 43.28125 21.875 L 44.625 24.1875 L 43.28125 26.53125 L 41.9375 24.1875 L 43.28125 21.875 z M 7.65625 25.5 L 9 27.84375 L 7.65625 30.125 L 6.3125 27.84375 L 7.65625 25.5 z M 11.84375 25.5 L 13.1875 27.84375 L 11.84375 30.125 L 10.5 27.84375 L 11.84375 25.5 z M 16.03125 25.5 L 17.375 27.84375 L 16.03125 30.125 L 14.6875 27.84375 L 16.03125 25.5 z M 20.25 25.5 L 21.5625 27.84375 L 20.25 30.125 L 18.90625 27.84375 L 20.25 25.5 z M 24.4375 25.5 L 25.78125 27.84375 L 24.4375 30.125 L 23.09375 27.84375 L 24.4375 25.5 z M 28.625 25.5 L 29.96875 27.84375 L 28.625 30.125 L 27.28125 27.84375 L 28.625 25.5 z M 32.8125 25.5 L 34.15625 27.84375 L 32.8125 30.125 L 31.46875 27.84375 L 32.8125 25.5 z M 37 25.5 L 38.34375 27.84375 L 37 30.125 L 35.65625 27.84375 L 37 25.5 z M 41.1875 25.5 L 42.53125 27.84375 L 41.1875 30.125 L 39.84375 27.84375 L 41.1875 25.5 z M 5.5625 29.15625 L 6.90625 31.46875 L 5.5625 33.75 L 4.21875 31.46875 L 5.5625 29.15625 z M 9.75 29.15625 L 11.09375 31.46875 L 9.75 33.75 L 8.40625 31.46875 L 9.75 29.15625 z M 13.9375 29.15625 L 15.28125 31.46875 L 13.9375 33.75 L 12.59375 31.46875 L 13.9375 29.15625 z M 18.125 29.15625 L 19.46875 31.46875 L 18.125 33.75 L 16.8125 31.46875 L 18.125 29.15625 z M 22.34375 29.15625 L 23.6875 31.46875 L 22.34375 33.75 L 21 31.46875 L 22.34375 29.15625 z M 26.53125 29.15625 L 27.875 31.46875 L 26.53125 33.75 L 25.1875 31.46875 L 26.53125 29.15625 z M 30.71875 29.15625 L 32.0625 31.46875 L 30.71875 33.75 L 29.375 31.46875 L 30.71875 29.15625 z M 34.90625 29.15625 L 36.25 31.46875 L 34.90625 33.75 L 33.5625 31.46875 L 34.90625 29.15625 z M 39.09375 29.15625 L 40.4375 31.46875 L 39.09375 33.75 L 37.75 31.46875 L 39.09375 29.15625 z M 43.28125 29.15625 L 44.625 31.46875 L 43.28125 33.75 L 41.9375 31.46875 L 43.28125 29.15625 z M 7.65625 32.78125 L 9 35.09375 L 7.65625 37.40625 L 6.3125 35.09375 L 7.65625 32.78125 z M 11.84375 32.78125 L 13.1875 35.09375 L 11.84375 37.40625 L 10.5 35.09375 L 11.84375 32.78125 z M 16.03125 32.78125 L 17.375 35.09375 L 16.03125 37.40625 L 14.6875 35.09375 L 16.03125 32.78125 z M 20.25 32.78125 L 21.5625 35.09375 L 20.25 37.40625 L 18.90625 35.09375 L 20.25 32.78125 z M 24.4375 32.78125 L 25.78125 35.09375 L 24.4375 37.40625 L 23.09375 35.09375 L 24.4375 32.78125 z M 28.625 32.78125 L 29.96875 35.09375 L 28.625 37.40625 L 27.28125 35.09375 L 28.625 32.78125 z M 32.8125 32.78125 L 34.15625 35.09375 L 32.8125 37.40625 L 31.46875 35.09375 L 32.8125 32.78125 z M 37 32.78125 L 38.34375 35.09375 L 37 37.40625 L 35.65625 35.09375 L 37 32.78125 z M 41.1875 32.78125 L 42.53125 35.09375 L 41.1875 37.40625 L 39.84375 35.09375 L 41.1875 32.78125 z M 5.5625 36.40625 L 6.90625 38.6875 L 5.5625 41.03125 L 4.21875 38.6875 L 5.5625 36.40625 z M 9.75 36.40625 L 11.09375 38.6875 L 9.75 41.03125 L 8.40625 38.6875 L 9.75 36.40625 z M 13.9375 36.40625 L 15.28125 38.6875 L 13.9375 41.03125 L 12.59375 38.6875 L 13.9375 36.40625 z M 18.125 36.40625 L 19.46875 38.6875 L 18.125 41.03125 L 16.8125 38.6875 L 18.125 36.40625 z M 22.34375 36.40625 L 23.6875 38.6875 L 22.34375 41.03125 L 21 38.6875 L 22.34375 36.40625 z M 26.53125 36.40625 L 27.875 38.6875 L 26.53125 41.03125 L 25.1875 38.6875 L 26.53125 36.40625 z M 30.71875 36.40625 L 32.0625 38.6875 L 30.71875 41.03125 L 29.375 38.6875 L 30.71875 36.40625 z M 34.90625 36.40625 L 36.25 38.6875 L 34.90625 41.03125 L 33.5625 38.6875 L 34.90625 36.40625 z M 39.09375 36.40625 L 40.4375 38.6875 L 39.09375 41.03125 L 37.75 38.6875 L 39.09375 36.40625 z M 43.28125 36.40625 L 44.625 38.6875 L 43.28125 41.03125 L 41.9375 38.6875 L 43.28125 36.40625 z M 7.65625 40.03125 L 9 42.34375 L 7.65625 44.65625 L 6.3125 42.34375 L 7.65625 40.03125 z M 11.84375 40.03125 L 13.1875 42.34375 L 11.84375 44.65625 L 10.5 42.34375 L 11.84375 40.03125 z M 16.03125 40.03125 L 17.375 42.34375 L 16.03125 44.65625 L 14.6875 42.34375 L 16.03125 40.03125 z M 20.25 40.03125 L 21.5625 42.34375 L 20.25 44.65625 L 18.90625 42.34375 L 20.25 40.03125 z M 24.4375 40.03125 L 25.78125 42.34375 L 24.4375 44.65625 L 23.09375 42.34375 L 24.4375 40.03125 z M 28.625 40.03125 L 29.96875 42.34375 L 28.625 44.65625 L 27.28125 42.34375 L 28.625 40.03125 z M 32.8125 40.03125 L 34.15625 42.34375 L 32.8125 44.65625 L 31.46875 42.34375 L 32.8125 40.03125 z M 37 40.03125 L 38.34375 42.34375 L 37 44.65625 L 35.65625 42.34375 L 37 40.03125 z M 41.1875 40.03125 L 42.53125 42.34375 L 41.1875 44.65625 L 39.84375 42.34375 L 41.1875 40.03125 z "
       transform="translate(0,1004.3622)"
       id="rect21055" />
    <path
       inkscape:connector-curvature="0"
       style="fill:url(#radialGradient13193);fill-opacity:1;stroke:none"
       d="m 3.0000001,1018.6747 0,29 c 0,0.9426 0.7448824,1.6875 1.6875,1.6875 l 38.6249999,0 c 0.942618,0 1.6875,-0.7449 1.6875,-1.6875 L 45,1018.6747 Z"
       id="rect21364"
       sodipodi:nodetypes="csssscc" />
    <path
       id="path10122"
       d="m 3,1019.7372 0,1.2188 42,0 L 45,1019.7372 Z"
       style="fill:url(#linearGradient10124);fill-opacity:1;stroke:none"
       inkscape:connector-curvature="0"
       sodipodi:nodetypes="ccccc" />
    <path
       style="fill:url(#linearGradient10084);fill-opacity:1;stroke:none"
       d="M 4.6875,3 C 3.7448824,3 3,3.7448824 3,4.6875 l 0,10.6875 42,0 0,-10.6875 C 45,3.7448824 44.255118,3 43.3125,3 Z"
       transform="translate(0,1004.3622)"
       id="rect10082"
       inkscape:connector-curvature="0"
       sodipodi:nodetypes="ssccsss" />
    <path
       inkscape:connector-curvature="0"
       id="path4188"
       d="m 39.972807,1011.7127 c -0.188486,0 -0.287109,0.068 -0.287109,0.2109 0,0.1433 0.142999,0.2715 0.316406,0.2715 0.120631,0 0.287109,-0.1137 0.287109,-0.2344 0,-0.1432 -0.173157,-0.248 -0.316406,-0.248 z m -2.189453,0.037 c -0.06785,0 -0.218542,0.136 -0.482422,0.3848 l -0.951172,0.8886 c -0.332697,0.3243 -0.337342,0.3498 -0.470703,0.4981 -0.01823,0.01 -0.03646,0.01 -0.05469,0.031 -0.467445,0.5353 -0.882247,0.8983 -1.24414,1.0567 -0.05278,0.023 -0.09093,0.029 -0.121094,0.029 -0.06785,0 -0.105741,-0.044 -0.113281,-0.1348 -0.01508,-0.1583 0.08381,-0.392 0.294922,-0.7012 0.105552,-0.1507 0.301391,-0.4011 0.58789,-0.748 0.218644,-0.2488 0.323946,-0.3981 0.316406,-0.4434 -0.01508,-0.1357 -0.105616,-0.205 -0.271484,-0.205 -0.120631,0 -0.37748,0.2423 -0.769531,0.7324 -0.444827,0.5654 -0.707262,0.8596 -0.767578,0.9199 -0.5353,0.5579 -0.821909,0.625 -0.919922,0.625 -0.05278,0 -0.08426,-0.03 -0.0918,-0.098 -0.02262,-0.2112 0.151505,-0.5649 0.505859,-1.0625 0.278959,-0.3996 0.520499,-0.6859 0.708985,-0.8593 0.03016,-0.03 0.04492,-0.062 0.04492,-0.1 0,-0.091 -0.06073,-0.1348 -0.173828,-0.1348 -0.150789,0 -0.301518,0.075 -0.429688,0.2266 l -0.841797,0.9882 c -0.482831,0.5502 -0.969798,0.8809 -1.214843,0.8809 -0.211105,0 -0.301915,-0.09 -0.279297,-0.2715 0.0377,-0.2639 0.219319,-0.6032 0.558594,-1.0254 0.324196,-0.4147 0.482421,-0.6252 0.482421,-0.6328 0,-0.098 -0.129368,-0.1894 -0.25,-0.1894 -0.203565,0 -0.542593,0.1813 -1.017578,0.5507 0,0.01 -0.278018,0.2416 -0.835937,0.709 0.01508,-0.053 0.120381,-0.2647 0.316406,-0.6191 0.196026,-0.3393 0.292969,-0.5282 0.292969,-0.5508 0,-0.1131 -0.127143,-0.1875 -0.240235,-0.1875 -0.196025,0 -0.602468,0.2864 -1.220703,0.8594 -0.39959,0.3695 -0.70909,0.6708 -0.927734,0.9121 0.0377,-0.1357 0.195104,-0.4288 0.458984,-0.8887 0.256341,-0.4298 0.384766,-0.6635 0.384766,-0.7012 0,-0.098 -0.05238,-0.1445 -0.150391,-0.1445 -0.09801,0 -0.181599,0.038 -0.234375,0.1133 -0.361893,0.5127 -0.61011,0.8517 -0.738281,1.0176 -0.173407,0.2186 -0.331633,0.3843 -0.482422,0.5351 -0.05278,0.053 -0.06055,0.09 -0.06055,0.1055 0,0.038 0.01449,0.053 0.03711,0.053 0.06031,0 0.188319,-0.1414 0.210937,-0.164 l 0.453125,-0.4766 c -0.07539,0.1659 -0.150895,0.3323 -0.21875,0.4981 -0.113091,0.2639 -0.173828,0.4304 -0.173828,0.5058 0,0.09 0.09894,0.2637 0.242188,0.2637 0.03016,0 0.141865,-0.1204 0.33789,-0.3692 0.27142,-0.3468 0.513232,-0.6349 0.716797,-0.8535 0.354354,-0.377 0.72459,-0.6848 1.101563,-0.9336 -0.165868,0.3392 -0.331906,0.6705 -0.490235,1.0098 -0.173407,0.3543 -0.287067,0.6703 -0.339844,0.9492 0,0.1357 0.06101,0.2051 0.181641,0.2051 0.06032,0 0.104335,-0.023 0.126953,-0.06 0.158329,-0.4222 0.453338,-0.8516 0.890625,-1.2813 0.369433,-0.3544 0.71682,-0.619 1.041016,-0.7773 -0.173407,0.2187 -0.333313,0.4671 -0.476563,0.7461 -0.143249,0.279 -0.225701,0.4979 -0.255859,0.6562 -0.0075,0.045 -0.01367,0.092 -0.01367,0.1367 0,0.3166 0.172444,0.4746 0.511719,0.4746 0.165868,0 0.399594,-0.1133 0.701172,-0.332 0.145461,-0.111 0.278151,-0.2259 0.404297,-0.3496 0.0024,0 0.0078,0 0.0098,0 0.226183,-0.2564 0.445312,-0.4531 0.445312,-0.4531 -0.263881,0.3694 -0.415197,0.7091 -0.392578,0.9277 0.02262,0.2564 0.136279,0.3848 0.339844,0.3848 0.203565,0 0.646761,-0.1805 1.355469,-1.0098 -0.02262,0.098 -0.05188,0.195 -0.08203,0.293 -0.0377,0.1282 -0.05273,0.2416 -0.05273,0.332 0,0.2187 0.195965,0.3535 0.429688,0.3535 0.0377,0 0.06777,2e-4 0.105468,-0.01 0.113092,-0.023 0.338186,-0.1724 0.669922,-0.4589 0.142279,-0.1254 0.217816,-0.2218 0.31836,-0.3223 0.0372,-0.01 0.0937,-0.045 0.177734,-0.1289 0.08293,0.3166 0.181284,0.5356 0.279297,0.6562 0.120631,0.1508 0.295301,0.2266 0.521484,0.2266 0.203565,0 0.376283,-0.046 0.519531,-0.1289 l 0.240235,-0.1582 c 0.256341,-0.053 0.454134,-0.1216 0.589844,-0.1895 0.156392,-0.083 0.31871,-0.2173 0.486328,-0.3769 -0.03524,0.099 -0.07754,0.2039 -0.0918,0.2871 -0.0075,0.045 -0.01563,0.092 -0.01563,0.1367 0,0.3695 0.166121,0.4981 0.384765,0.4981 0.595616,0 1.062208,-0.5291 1.431641,-0.8985 0.02024,-0.021 0.01448,-0.023 0.0332,-0.043 -0.05232,0.1352 -0.08789,0.268 -0.08789,0.3906 0,0.2714 0.158225,0.4505 0.482422,0.541 0.04524,0.015 0.09761,0.023 0.15039,0.023 0.26388,0 0.588418,-0.1428 0.980469,-0.4218 0.369433,-0.2639 0.693696,-0.5798 0.972656,-0.9493 0.05278,-0.068 0.05224,-0.1054 -0.01563,-0.1054 -0.0377,0 -0.06722,0.015 -0.08984,0.045 -0.196025,0.2639 -0.461506,0.5271 -0.800781,0.791 -0.40713,0.3242 -0.737799,0.4902 -0.994141,0.4902 -0.233723,0 -0.393165,-0.1803 -0.355468,-0.414 0.0377,-0.1885 0.08394,-0.3331 0.136718,-0.416 l 0.292969,-0.4297 c 0.09801,-0.1358 0.264052,-0.2855 0.490235,-0.459 0.248802,-0.1884 0.446593,-0.2955 0.589843,-0.3106 0.01508,0 0.02148,0.011 0.02148,0.016 0,0.01 -0.03762,0.069 -0.105469,0.1816 -0.06786,0.113 -0.09766,0.1953 -0.09766,0.2481 0,0.083 0.06715,0.121 0.195312,0.121 0.12817,0 0.23488,-0.067 0.302735,-0.1953 0.06032,-0.1056 0.08984,-0.2194 0.08984,-0.3476 0,-0.1809 -0.151316,-0.3242 -0.392578,-0.3242 -0.354354,0 -0.754392,0.2334 -1.199219,0.6933 -0.145921,0.1535 -0.256287,0.2997 -0.353515,0.4414 -0.03852,0.023 -0.08844,0.062 -0.154297,0.1485 -0.150789,0.1884 -0.310611,0.3382 -0.582031,0.5644 -0.105552,0.091 -0.602762,0.4668 -0.851563,0.4668 -0.113092,0 -0.1875,-0.067 -0.1875,-0.2402 0,-0.2036 0.187481,-0.551 0.564453,-1.041 0.384511,-0.4976 0.574219,-0.7458 0.574219,-0.7383 0,-0.091 -0.175152,-0.1817 -0.265625,-0.1817 -0.188486,0.01 -0.414399,0.241 -0.693359,0.6934 -0.08955,0.1448 -0.149105,0.2708 -0.212891,0.3984 -0.430592,0.4876 -0.799355,0.702 -1.191406,0.709 0.04524,-0.1659 0.127143,-0.5489 0.240234,-1.1445 0.0754,-0.3996 0.159527,-0.6796 0.25,-0.8379 0.0075,-0.01 0.05238,-0.074 0.150391,-0.1953 0.06785,-0.083 0.09766,-0.1506 0.09766,-0.2109 0,-0.1208 -0.0819,-0.1817 -0.240234,-0.1817 z m -0.408203,0.5586 -0.0293,0.2559 c -0.02262,0.3166 -0.07527,0.6496 -0.158203,1.0039 -0.09801,0.4147 -0.203316,0.7072 -0.316407,0.7675 -0.08293,0.06 -0.181557,0.084 -0.287109,0.084 -0.158329,0 -0.308783,-0.06 -0.421875,-0.1738 -0.128171,-0.1207 -0.173282,-0.3168 -0.158203,-0.4902 0.0075,-0.075 0.07478,-0.2179 0.414062,-0.5723 0.339275,-0.3543 0.72331,-0.7016 0.957032,-0.875 z"
       style="font-size:7.53944349px;font-style:normal;font-variant:normal;font-weight:normal;font-stretch:normal;text-align:start;line-height:125%;letter-spacing:0px;word-spacing:0px;writing-mode:lr-tb;text-anchor:start;fill:#000000;fill-opacity:0.04705882;stroke:none;font-family:Alex Brush;-inkscape-font-specification:Alex Brush" />
    <path
       style="font-size:7.53944349px;font-style:normal;font-variant:normal;font-weight:normal;font-stretch:normal;text-align:start;line-height:125%;letter-spacing:0px;word-spacing:0px;writing-mode:lr-tb;text-anchor:start;fill:#000000;fill-opacity:0.09803922;stroke:none;font-family:Alex Brush;-inkscape-font-specification:Alex Brush"
       d="m 39.972807,1011.5127 c -0.188486,0 -0.287109,0.068 -0.287109,0.2109 0,0.1433 0.142999,0.2715 0.316406,0.2715 0.120631,0 0.287109,-0.1137 0.287109,-0.2344 0,-0.1432 -0.173157,-0.248 -0.316406,-0.248 z m -2.189453,0.037 c -0.06785,0 -0.218542,0.136 -0.482422,0.3848 l -0.951172,0.8886 c -0.332697,0.3243 -0.337342,0.3498 -0.470703,0.4981 -0.01823,0.01 -0.03646,0.01 -0.05469,0.031 -0.467445,0.5353 -0.882247,0.8983 -1.24414,1.0567 -0.05278,0.023 -0.09093,0.029 -0.121094,0.029 -0.06785,0 -0.105741,-0.044 -0.113281,-0.1348 -0.01508,-0.1583 0.08381,-0.392 0.294922,-0.7012 0.105552,-0.1507 0.301391,-0.4011 0.58789,-0.748 0.218644,-0.2488 0.323946,-0.3981 0.316406,-0.4434 -0.01508,-0.1357 -0.105616,-0.205 -0.271484,-0.205 -0.120631,0 -0.37748,0.2423 -0.769531,0.7324 -0.444827,0.5654 -0.707262,0.8596 -0.767578,0.9199 -0.5353,0.5579 -0.821909,0.625 -0.919922,0.625 -0.05278,0 -0.08426,-0.03 -0.0918,-0.098 -0.02262,-0.2112 0.151505,-0.5649 0.505859,-1.0625 0.278959,-0.3996 0.520499,-0.6859 0.708985,-0.8593 0.03016,-0.03 0.04492,-0.062 0.04492,-0.1 0,-0.091 -0.06073,-0.1348 -0.173828,-0.1348 -0.150789,0 -0.301518,0.075 -0.429688,0.2266 l -0.841797,0.9882 c -0.482831,0.5502 -0.969798,0.8809 -1.214843,0.8809 -0.211105,0 -0.301915,-0.09 -0.279297,-0.2715 0.0377,-0.2639 0.219319,-0.6032 0.558594,-1.0254 0.324196,-0.4147 0.482421,-0.6252 0.482421,-0.6328 0,-0.098 -0.129368,-0.1894 -0.25,-0.1894 -0.203565,0 -0.542593,0.1813 -1.017578,0.5507 0,0.01 -0.278018,0.2416 -0.835937,0.709 0.01508,-0.053 0.120381,-0.2647 0.316406,-0.6191 0.196026,-0.3393 0.292969,-0.5282 0.292969,-0.5508 0,-0.1131 -0.127143,-0.1875 -0.240235,-0.1875 -0.196025,0 -0.602468,0.2864 -1.220703,0.8594 -0.39959,0.3695 -0.70909,0.6708 -0.927734,0.9121 0.0377,-0.1357 0.195104,-0.4288 0.458984,-0.8887 0.256341,-0.4298 0.384766,-0.6635 0.384766,-0.7012 0,-0.098 -0.05238,-0.1445 -0.150391,-0.1445 -0.09801,0 -0.181599,0.038 -0.234375,0.1133 -0.361893,0.5127 -0.61011,0.8517 -0.738281,1.0176 -0.173407,0.2186 -0.331633,0.3843 -0.482422,0.5351 -0.05278,0.053 -0.06055,0.09 -0.06055,0.1055 0,0.038 0.01449,0.053 0.03711,0.053 0.06031,0 0.188319,-0.1414 0.210937,-0.164 l 0.453125,-0.4766 c -0.07539,0.1659 -0.150895,0.3323 -0.21875,0.4981 -0.113091,0.2639 -0.173828,0.4304 -0.173828,0.5058 0,0.09 0.09894,0.2637 0.242188,0.2637 0.03016,0 0.141865,-0.1204 0.33789,-0.3692 0.27142,-0.3468 0.513232,-0.6349 0.716797,-0.8535 0.354354,-0.377 0.72459,-0.6848 1.101563,-0.9336 -0.165868,0.3392 -0.331906,0.6705 -0.490235,1.0098 -0.173407,0.3543 -0.287067,0.6703 -0.339844,0.9492 0,0.1357 0.06101,0.2051 0.181641,0.2051 0.06032,0 0.104335,-0.023 0.126953,-0.06 0.158329,-0.4222 0.453338,-0.8516 0.890625,-1.2813 0.369433,-0.3544 0.71682,-0.619 1.041016,-0.7773 -0.173407,0.2187 -0.333313,0.4671 -0.476563,0.7461 -0.143249,0.279 -0.225701,0.4979 -0.255859,0.6562 -0.0075,0.045 -0.01367,0.092 -0.01367,0.1367 0,0.3166 0.172444,0.4746 0.511719,0.4746 0.165868,0 0.399594,-0.1133 0.701172,-0.332 0.145461,-0.111 0.278151,-0.2259 0.404297,-0.3496 0.0024,0 0.0078,0 0.0098,0 0.226183,-0.2564 0.445312,-0.4531 0.445312,-0.4531 -0.263881,0.3694 -0.415197,0.7091 -0.392578,0.9277 0.02262,0.2564 0.136279,0.3848 0.339844,0.3848 0.203565,0 0.646761,-0.1805 1.355469,-1.0098 -0.02262,0.098 -0.05188,0.195 -0.08203,0.293 -0.0377,0.1282 -0.05273,0.2416 -0.05273,0.332 0,0.2187 0.195965,0.3535 0.429688,0.3535 0.0377,0 0.06777,2e-4 0.105468,-0.01 0.113092,-0.023 0.338186,-0.1724 0.669922,-0.4589 0.142279,-0.1254 0.217816,-0.2218 0.31836,-0.3223 0.0372,-0.01 0.0937,-0.045 0.177734,-0.1289 0.08293,0.3166 0.181284,0.5356 0.279297,0.6562 0.120631,0.1508 0.295301,0.2266 0.521484,0.2266 0.203565,0 0.376283,-0.046 0.519531,-0.1289 l 0.240235,-0.1582 c 0.256341,-0.053 0.454134,-0.1216 0.589844,-0.1895 0.156392,-0.083 0.31871,-0.2173 0.486328,-0.3769 -0.03524,0.099 -0.07754,0.2039 -0.0918,0.2871 -0.0075,0.045 -0.01563,0.092 -0.01563,0.1367 0,0.3695 0.166121,0.4981 0.384765,0.4981 0.595616,0 1.062208,-0.5291 1.431641,-0.8985 0.02024,-0.021 0.01448,-0.023 0.0332,-0.043 -0.05232,0.1352 -0.08789,0.268 -0.08789,0.3906 0,0.2714 0.158225,0.4505 0.482422,0.541 0.04524,0.015 0.09761,0.023 0.15039,0.023 0.26388,0 0.588418,-0.1428 0.980469,-0.4218 0.369433,-0.2639 0.693696,-0.5798 0.972656,-0.9493 0.05278,-0.068 0.05224,-0.1054 -0.01563,-0.1054 -0.0377,0 -0.06722,0.015 -0.08984,0.045 -0.196025,0.2639 -0.461506,0.5271 -0.800781,0.791 -0.40713,0.3242 -0.737799,0.4902 -0.994141,0.4902 -0.233723,0 -0.393165,-0.1803 -0.355468,-0.414 0.0377,-0.1885 0.08394,-0.3331 0.136718,-0.416 l 0.292969,-0.4297 c 0.09801,-0.1358 0.264052,-0.2855 0.490235,-0.459 0.248802,-0.1884 0.446593,-0.2955 0.589843,-0.3106 0.01508,0 0.02148,0.011 0.02148,0.016 0,0.01 -0.03762,0.069 -0.105469,0.1816 -0.06786,0.113 -0.09766,0.1953 -0.09766,0.2481 0,0.083 0.06715,0.121 0.195312,0.121 0.12817,0 0.23488,-0.067 0.302735,-0.1953 0.06032,-0.1056 0.08984,-0.2194 0.08984,-0.3476 0,-0.1809 -0.151316,-0.3242 -0.392578,-0.3242 -0.354354,0 -0.754392,0.2334 -1.199219,0.6933 -0.145921,0.1535 -0.256287,0.2997 -0.353515,0.4414 -0.03852,0.023 -0.08844,0.062 -0.154297,0.1485 -0.150789,0.1884 -0.310611,0.3382 -0.582031,0.5644 -0.105552,0.091 -0.602762,0.4668 -0.851563,0.4668 -0.113092,0 -0.1875,-0.067 -0.1875,-0.2402 0,-0.2036 0.187481,-0.551 0.564453,-1.041 0.384511,-0.4976 0.574219,-0.7458 0.574219,-0.7383 0,-0.091 -0.175152,-0.1817 -0.265625,-0.1817 -0.188486,0.01 -0.414399,0.241 -0.693359,0.6934 -0.08955,0.1448 -0.149105,0.2708 -0.212891,0.3984 -0.430592,0.4876 -0.799355,0.702 -1.191406,0.709 0.04524,-0.1659 0.127143,-0.5489 0.240234,-1.1445 0.0754,-0.3996 0.159527,-0.6796 0.25,-0.8379 0.0075,-0.01 0.05238,-0.074 0.150391,-0.1953 0.06785,-0.083 0.09766,-0.1506 0.09766,-0.2109 0,-0.1208 -0.0819,-0.1817 -0.240234,-0.1817 z m -0.408203,0.5586 -0.0293,0.2559 c -0.02262,0.3166 -0.07527,0.6496 -0.158203,1.0039 -0.09801,0.4147 -0.203316,0.7072 -0.316407,0.7675 -0.08293,0.06 -0.181557,0.084 -0.287109,0.084 -0.158329,0 -0.308783,-0.06 -0.421875,-0.1738 -0.128171,-0.1207 -0.173282,-0.3168 -0.158203,-0.4902 0.0075,-0.075 0.07478,-0.2179 0.414062,-0.5723 0.339275,-0.3543 0.72331,-0.7016 0.957032,-0.875 z"
       id="path4186"
       inkscape:connector-curvature="0" />
    <path
       inkscape:connector-curvature="0"
       id="path4182"
       d="m 39.972807,1011.3127 c -0.188486,0 -0.287109,0.068 -0.287109,0.2109 0,0.1433 0.142999,0.2715 0.316406,0.2715 0.120631,0 0.287109,-0.1137 0.287109,-0.2344 0,-0.1432 -0.173157,-0.248 -0.316406,-0.248 z m -2.189453,0.037 c -0.06785,0 -0.218542,0.136 -0.482422,0.3848 l -0.951172,0.8886 c -0.332697,0.3243 -0.337342,0.3498 -0.470703,0.4981 -0.01823,0.01 -0.03646,0.01 -0.05469,0.031 -0.467445,0.5353 -0.882247,0.8983 -1.24414,1.0567 -0.05278,0.023 -0.09093,0.029 -0.121094,0.029 -0.06785,0 -0.105741,-0.044 -0.113281,-0.1348 -0.01508,-0.1583 0.08381,-0.392 0.294922,-0.7012 0.105552,-0.1507 0.301391,-0.4011 0.58789,-0.748 0.218644,-0.2488 0.323946,-0.3981 0.316406,-0.4434 -0.01508,-0.1357 -0.105616,-0.205 -0.271484,-0.205 -0.120631,0 -0.37748,0.2423 -0.769531,0.7324 -0.444827,0.5654 -0.707262,0.8596 -0.767578,0.9199 -0.5353,0.5579 -0.821909,0.625 -0.919922,0.625 -0.05278,0 -0.08426,-0.03 -0.0918,-0.098 -0.02262,-0.2112 0.151505,-0.5649 0.505859,-1.0625 0.278959,-0.3996 0.520499,-0.6859 0.708985,-0.8593 0.03016,-0.03 0.04492,-0.062 0.04492,-0.1 0,-0.091 -0.06073,-0.1348 -0.173828,-0.1348 -0.150789,0 -0.301518,0.075 -0.429688,0.2266 l -0.841797,0.9882 c -0.482831,0.5502 -0.969798,0.8809 -1.214843,0.8809 -0.211105,0 -0.301915,-0.09 -0.279297,-0.2715 0.0377,-0.2639 0.219319,-0.6032 0.558594,-1.0254 0.324196,-0.4147 0.482421,-0.6252 0.482421,-0.6328 0,-0.098 -0.129368,-0.1894 -0.25,-0.1894 -0.203565,0 -0.542593,0.1813 -1.017578,0.5507 0,0.01 -0.278018,0.2416 -0.835937,0.709 0.01508,-0.053 0.120381,-0.2647 0.316406,-0.6191 0.196026,-0.3393 0.292969,-0.5282 0.292969,-0.5508 0,-0.1131 -0.127143,-0.1875 -0.240235,-0.1875 -0.196025,0 -0.602468,0.2864 -1.220703,0.8594 -0.39959,0.3695 -0.70909,0.6708 -0.927734,0.9121 0.0377,-0.1357 0.195104,-0.4288 0.458984,-0.8887 0.256341,-0.4298 0.384766,-0.6635 0.384766,-0.7012 0,-0.098 -0.05238,-0.1445 -0.150391,-0.1445 -0.09801,0 -0.181599,0.038 -0.234375,0.1133 -0.361893,0.5127 -0.61011,0.8517 -0.738281,1.0176 -0.173407,0.2186 -0.331633,0.3843 -0.482422,0.5351 -0.05278,0.053 -0.06055,0.09 -0.06055,0.1055 0,0.038 0.01449,0.053 0.03711,0.053 0.06031,0 0.188319,-0.1414 0.210937,-0.164 l 0.453125,-0.4766 c -0.07539,0.1659 -0.150895,0.3323 -0.21875,0.4981 -0.113091,0.2639 -0.173828,0.4304 -0.173828,0.5058 0,0.09 0.09894,0.2637 0.242188,0.2637 0.03016,0 0.141865,-0.1204 0.33789,-0.3692 0.27142,-0.3468 0.513232,-0.6349 0.716797,-0.8535 0.354354,-0.377 0.72459,-0.6848 1.101563,-0.9336 -0.165868,0.3392 -0.331906,0.6705 -0.490235,1.0098 -0.173407,0.3543 -0.287067,0.6703 -0.339844,0.9492 0,0.1357 0.06101,0.2051 0.181641,0.2051 0.06032,0 0.104335,-0.023 0.126953,-0.06 0.158329,-0.4222 0.453338,-0.8516 0.890625,-1.2813 0.369433,-0.3544 0.71682,-0.619 1.041016,-0.7773 -0.173407,0.2187 -0.333313,0.4671 -0.476563,0.7461 -0.143249,0.279 -0.225701,0.4979 -0.255859,0.6562 -0.0075,0.045 -0.01367,0.092 -0.01367,0.1367 0,0.3166 0.172444,0.4746 0.511719,0.4746 0.165868,0 0.399594,-0.1133 0.701172,-0.332 0.145461,-0.111 0.278151,-0.2259 0.404297,-0.3496 0.0024,0 0.0078,0 0.0098,0 0.226183,-0.2564 0.445312,-0.4531 0.445312,-0.4531 -0.263881,0.3694 -0.415197,0.7091 -0.392578,0.9277 0.02262,0.2564 0.136279,0.3848 0.339844,0.3848 0.203565,0 0.646761,-0.1805 1.355469,-1.0098 -0.02262,0.098 -0.05188,0.195 -0.08203,0.293 -0.0377,0.1282 -0.05273,0.2416 -0.05273,0.332 0,0.2187 0.195965,0.3535 0.429688,0.3535 0.0377,0 0.06777,2e-4 0.105468,-0.01 0.113092,-0.023 0.338186,-0.1724 0.669922,-0.4589 0.142279,-0.1254 0.217816,-0.2218 0.31836,-0.3223 0.0372,-0.01 0.0937,-0.045 0.177734,-0.1289 0.08293,0.3166 0.181284,0.5356 0.279297,0.6562 0.120631,0.1508 0.295301,0.2266 0.521484,0.2266 0.203565,0 0.376283,-0.046 0.519531,-0.1289 l 0.240235,-0.1582 c 0.256341,-0.053 0.454134,-0.1216 0.589844,-0.1895 0.156392,-0.083 0.31871,-0.2173 0.486328,-0.3769 -0.03524,0.099 -0.07754,0.2039 -0.0918,0.2871 -0.0075,0.045 -0.01563,0.092 -0.01563,0.1367 0,0.3695 0.166121,0.4981 0.384765,0.4981 0.595616,0 1.062208,-0.5291 1.431641,-0.8985 0.02024,-0.021 0.01448,-0.023 0.0332,-0.043 -0.05232,0.1352 -0.08789,0.268 -0.08789,0.3906 0,0.2714 0.158225,0.4505 0.482422,0.541 0.04524,0.015 0.09761,0.023 0.15039,0.023 0.26388,0 0.588418,-0.1428 0.980469,-0.4218 0.369433,-0.2639 0.693696,-0.5798 0.972656,-0.9493 0.05278,-0.068 0.05224,-0.1054 -0.01563,-0.1054 -0.0377,0 -0.06722,0.015 -0.08984,0.045 -0.196025,0.2639 -0.461506,0.5271 -0.800781,0.791 -0.40713,0.3242 -0.737799,0.4902 -0.994141,0.4902 -0.233723,0 -0.393165,-0.1803 -0.355468,-0.414 0.0377,-0.1885 0.08394,-0.3331 0.136718,-0.416 l 0.292969,-0.4297 c 0.09801,-0.1358 0.264052,-0.2855 0.490235,-0.459 0.248802,-0.1884 0.446593,-0.2955 0.589843,-0.3106 0.01508,0 0.02148,0.011 0.02148,0.016 0,0.01 -0.03762,0.069 -0.105469,0.1816 -0.06786,0.113 -0.09766,0.1953 -0.09766,0.2481 0,0.083 0.06715,0.121 0.195312,0.121 0.12817,0 0.23488,-0.067 0.302735,-0.1953 0.06032,-0.1056 0.08984,-0.2194 0.08984,-0.3476 0,-0.1809 -0.151316,-0.3242 -0.392578,-0.3242 -0.354354,0 -0.754392,0.2334 -1.199219,0.6933 -0.145921,0.1535 -0.256287,0.2997 -0.353515,0.4414 -0.03852,0.023 -0.08844,0.062 -0.154297,0.1485 -0.150789,0.1884 -0.310611,0.3382 -0.582031,0.5644 -0.105552,0.091 -0.602762,0.4668 -0.851563,0.4668 -0.113092,0 -0.1875,-0.067 -0.1875,-0.2402 0,-0.2036 0.187481,-0.551 0.564453,-1.041 0.384511,-0.4976 0.574219,-0.7458 0.574219,-0.7383 0,-0.091 -0.175152,-0.1817 -0.265625,-0.1817 -0.188486,0.01 -0.414399,0.241 -0.693359,0.6934 -0.08955,0.1448 -0.149105,0.2708 -0.212891,0.3984 -0.430592,0.4876 -0.799355,0.702 -1.191406,0.709 0.04524,-0.1659 0.127143,-0.5489 0.240234,-1.1445 0.0754,-0.3996 0.159527,-0.6796 0.25,-0.8379 0.0075,-0.01 0.05238,-0.074 0.150391,-0.1953 0.06785,-0.083 0.09766,-0.1506 0.09766,-0.2109 0,-0.1208 -0.0819,-0.1817 -0.240234,-0.1817 z m -0.408203,0.5586 -0.0293,0.2559 c -0.02262,0.3166 -0.07527,0.6496 -0.158203,1.0039 -0.09801,0.4147 -0.203316,0.7072 -0.316407,0.7675 -0.08293,0.06 -0.181557,0.084 -0.287109,0.084 -0.158329,0 -0.308783,-0.06 -0.421875,-0.1738 -0.128171,-0.1207 -0.173282,-0.3168 -0.158203,-0.4902 0.0075,-0.075 0.07478,-0.2179 0.414062,-0.5723 0.339275,-0.3543 0.72331,-0.7016 0.957032,-0.875 z"
       style="font-size:7.53944349px;font-style:normal;font-variant:normal;font-weight:normal;font-stretch:normal;text-align:start;line-height:125%;letter-spacing:0px;word-spacing:0px;writing-mode:lr-tb;text-anchor:start;fill:#000000;fill-opacity:0.19607843;stroke:none;font-family:Alex Brush;-inkscape-font-specification:Alex Brush" />
    <path
       id="path10132"
       d="m 3,1021.9247 0,-0.9687 42,0 0,0.9687 L 3,1021.9247 Z"
       style="fill:url(#linearGradient10134);fill-opacity:1;stroke:none"
       inkscape:connector-curvature="0" />
    <path
       style="fill:url(#linearGradient10107);fill-opacity:1;stroke:none"
       d="M 4.6875 3 C 3.7448824 3 3 3.7448824 3 4.6875 L 3 6.1875 C 3 5.2449 3.7448824 4.5 4.6875 4.5 L 43.3125 4.5 C 44.255118 4.5 45 5.2449 45 6.1875 L 45 4.6875 C 45 3.7448824 44.255118 3 43.3125 3 L 4.6875 3 z "
       transform="translate(0,1004.3622)"
       id="path10096" />
    <path
       style="fill:url(#linearGradient13237);fill-opacity:1;stroke:none"
       d="M 4.6875 3 C 3.7448824 3 3 3.7448824 3 4.6875 L 3 43.3125 C 3 44.255118 3.7448824 45 4.6875 45 L 6 45 L 6 3 L 4.6875 3 z "
       transform="translate(0,1004.3622)"
       id="rect13224" />
    <path
       id="path13239"
       d="m 43.3125,1007.3622 c 0.942618,0 1.6875,0.7449 1.6875,1.6875 l 0,38.625 c 0,0.9426 -0.744882,1.6875 -1.6875,1.6875 l -1.3125,0 0,-42 L 43.3125,1007.3622 Z"
       style="fill:url(#linearGradient13241);fill-opacity:1;stroke:none"
       inkscape:connector-curvature="0" />
    <path
       id="path13243"
       d="M 4.6875,1049.3622 C 3.7448824,1049.3622 3,1048.6173 3,1047.6747 l 0,-1.5 c 0,0.9426 0.7448824,1.6875 1.6875,1.6875 l 38.625,0 c 0.942618,0 1.6875,-0.7449 1.6875,-1.6875 l 0,1.5 c 0,0.9426 -0.744882,1.6875 -1.6875,1.6875 L 4.6875,1049.3622 Z"
       style="fill:url(#linearGradient13245);fill-opacity:1;stroke:none"
       inkscape:connector-curvature="0" />
    <path
       style="fill:url(#radialGradient7911);fill-opacity:1;stroke:none"
       d="M 4.6953128,1007.3622 C 3.7526947,1007.3622 3,1008.1149 3,1009.0575 l 0,38.6094 c 0,0.9426 0.7526947,1.6953 1.6953128,1.6953 l 38.6093782,0 c 0.942616,0 1.695309,-0.7527 1.695309,-1.6953 l 0,-38.6094 c 0,-0.9426 -0.752693,-1.6953 -1.695309,-1.6953 L 4.6953128,1007.3622 z m 0.5195306,0.5743 37.5703176,0 c 0.917083,0 1.640623,0.7235 1.640623,1.6405 l 0,37.5704 c 0,0.917 -0.72354,1.6405 -1.640623,1.6405 l -37.5703176,0 c -0.9170882,0 -1.6406247,-0.7235 -1.6406247,-1.6405 l 0,-37.5704 C 3.5742187,1008.66 4.2977552,1007.9365 5.2148434,1007.9365 Z"
       id="rect6698"
       inkscape:connector-curvature="0" />
    <path
       inkscape:connector-curvature="0"
       id="path4170"
       d="m 39.972807,1011.1122 c -0.188486,0 -0.287109,0.068 -0.287109,0.2109 0,0.1433 0.142999,0.2715 0.316406,0.2715 0.120631,0 0.287109,-0.1137 0.287109,-0.2344 0,-0.1432 -0.173157,-0.248 -0.316406,-0.248 z m -2.189453,0.037 c -0.06785,0 -0.218542,0.136 -0.482422,0.3848 l -0.951172,0.8886 c -0.332697,0.3243 -0.337342,0.3498 -0.470703,0.4981 -0.01823,0.01 -0.03646,0.01 -0.05469,0.031 -0.467445,0.5353 -0.882247,0.8983 -1.24414,1.0567 -0.05278,0.023 -0.09093,0.029 -0.121094,0.029 -0.06785,0 -0.105741,-0.044 -0.113281,-0.1348 -0.01508,-0.1583 0.08381,-0.392 0.294922,-0.7012 0.105552,-0.1507 0.301391,-0.4011 0.58789,-0.748 0.218644,-0.2488 0.323946,-0.3981 0.316406,-0.4434 -0.01508,-0.1357 -0.105616,-0.205 -0.271484,-0.205 -0.120631,0 -0.37748,0.2423 -0.769531,0.7324 -0.444827,0.5654 -0.707262,0.8596 -0.767578,0.9199 -0.5353,0.5579 -0.821909,0.625 -0.919922,0.625 -0.05278,0 -0.08426,-0.03 -0.0918,-0.098 -0.02262,-0.2112 0.151505,-0.5649 0.505859,-1.0625 0.278959,-0.3996 0.520499,-0.6859 0.708985,-0.8593 0.03016,-0.03 0.04492,-0.062 0.04492,-0.1 0,-0.091 -0.06073,-0.1348 -0.173828,-0.1348 -0.150789,0 -0.301518,0.075 -0.429688,0.2266 l -0.841797,0.9882 c -0.482831,0.5502 -0.969798,0.8809 -1.214843,0.8809 -0.211105,0 -0.301915,-0.09 -0.279297,-0.2715 0.0377,-0.2639 0.219319,-0.6032 0.558594,-1.0254 0.324196,-0.4147 0.482421,-0.6252 0.482421,-0.6328 0,-0.098 -0.129368,-0.1894 -0.25,-0.1894 -0.203565,0 -0.542593,0.1813 -1.017578,0.5507 0,0.01 -0.278018,0.2416 -0.835937,0.709 0.01508,-0.053 0.120381,-0.2647 0.316406,-0.6191 0.196026,-0.3393 0.292969,-0.5282 0.292969,-0.5508 0,-0.1131 -0.127143,-0.1875 -0.240235,-0.1875 -0.196025,0 -0.602468,0.2864 -1.220703,0.8594 -0.39959,0.3695 -0.70909,0.6708 -0.927734,0.9121 0.0377,-0.1357 0.195104,-0.4288 0.458984,-0.8887 0.256341,-0.4298 0.384766,-0.6635 0.384766,-0.7012 0,-0.098 -0.05238,-0.1445 -0.150391,-0.1445 -0.09801,0 -0.181599,0.038 -0.234375,0.1133 -0.361893,0.5127 -0.61011,0.8517 -0.738281,1.0176 -0.173407,0.2186 -0.331633,0.3843 -0.482422,0.5351 -0.05278,0.053 -0.06055,0.09 -0.06055,0.1055 0,0.038 0.01449,0.053 0.03711,0.053 0.06031,0 0.188319,-0.1414 0.210937,-0.164 l 0.453125,-0.4766 c -0.07539,0.1659 -0.150895,0.3323 -0.21875,0.4981 -0.113091,0.2639 -0.173828,0.4304 -0.173828,0.5058 0,0.09 0.09894,0.2637 0.242188,0.2637 0.03016,0 0.141865,-0.1204 0.33789,-0.3692 0.27142,-0.3468 0.513232,-0.6349 0.716797,-0.8535 0.354354,-0.377 0.72459,-0.6848 1.101563,-0.9336 -0.165868,0.3392 -0.331906,0.6705 -0.490235,1.0098 -0.173407,0.3543 -0.287067,0.6703 -0.339844,0.9492 0,0.1357 0.06101,0.2051 0.181641,0.2051 0.06032,0 0.104335,-0.023 0.126953,-0.06 0.158329,-0.4222 0.453338,-0.8516 0.890625,-1.2813 0.369433,-0.3544 0.71682,-0.619 1.041016,-0.7773 -0.173407,0.2187 -0.333313,0.4671 -0.476563,0.7461 -0.143249,0.279 -0.225701,0.4979 -0.255859,0.6562 -0.0075,0.045 -0.01367,0.092 -0.01367,0.1367 0,0.3166 0.172444,0.4746 0.511719,0.4746 0.165868,0 0.399594,-0.1133 0.701172,-0.332 0.145461,-0.111 0.278151,-0.2259 0.404297,-0.3496 0.0024,0 0.0078,0 0.0098,0 0.226183,-0.2564 0.445312,-0.4531 0.445312,-0.4531 -0.263881,0.3694 -0.415197,0.7091 -0.392578,0.9277 0.02262,0.2564 0.136279,0.3848 0.339844,0.3848 0.203565,0 0.646761,-0.1805 1.355469,-1.0098 -0.02262,0.098 -0.05188,0.195 -0.08203,0.293 -0.0377,0.1282 -0.05273,0.2416 -0.05273,0.332 0,0.2187 0.195965,0.3535 0.429688,0.3535 0.0377,0 0.06777,2e-4 0.105468,-0.01 0.113092,-0.023 0.338186,-0.1724 0.669922,-0.4589 0.142279,-0.1254 0.217816,-0.2218 0.31836,-0.3223 0.0372,-0.01 0.0937,-0.045 0.177734,-0.1289 0.08293,0.3166 0.181284,0.5356 0.279297,0.6562 0.120631,0.1508 0.295301,0.2266 0.521484,0.2266 0.203565,0 0.376283,-0.046 0.519531,-0.1289 l 0.240235,-0.1582 c 0.256341,-0.053 0.454134,-0.1216 0.589844,-0.1895 0.156392,-0.083 0.31871,-0.2173 0.486328,-0.3769 -0.03524,0.099 -0.07754,0.2039 -0.0918,0.2871 -0.0075,0.045 -0.01563,0.092 -0.01563,0.1367 0,0.3695 0.166121,0.4981 0.384765,0.4981 0.595616,0 1.062208,-0.5291 1.431641,-0.8985 0.02024,-0.021 0.01448,-0.023 0.0332,-0.043 -0.05232,0.1352 -0.08789,0.268 -0.08789,0.3906 0,0.2714 0.158225,0.4505 0.482422,0.541 0.04524,0.015 0.09761,0.023 0.15039,0.023 0.26388,0 0.588418,-0.1428 0.980469,-0.4218 0.369433,-0.2639 0.693696,-0.5798 0.972656,-0.9493 0.05278,-0.068 0.05224,-0.1054 -0.01563,-0.1054 -0.0377,0 -0.06722,0.015 -0.08984,0.045 -0.196025,0.2639 -0.461506,0.5271 -0.800781,0.791 -0.40713,0.3242 -0.737799,0.4902 -0.994141,0.4902 -0.233723,0 -0.393165,-0.1803 -0.355468,-0.414 0.0377,-0.1885 0.08394,-0.3331 0.136718,-0.416 l 0.292969,-0.4297 c 0.09801,-0.1358 0.264052,-0.2855 0.490235,-0.459 0.248802,-0.1884 0.446593,-0.2955 0.589843,-0.3106 0.01508,0 0.02148,0.011 0.02148,0.016 0,0.01 -0.03762,0.069 -0.105469,0.1816 -0.06786,0.113 -0.09766,0.1953 -0.09766,0.2481 0,0.083 0.06715,0.121 0.195312,0.121 0.12817,0 0.23488,-0.067 0.302735,-0.1953 0.06032,-0.1056 0.08984,-0.2194 0.08984,-0.3476 0,-0.1809 -0.151316,-0.3242 -0.392578,-0.3242 -0.354354,0 -0.754392,0.2334 -1.199219,0.6933 -0.145921,0.1535 -0.256287,0.2997 -0.353515,0.4414 -0.03852,0.023 -0.08844,0.062 -0.154297,0.1485 -0.150789,0.1884 -0.310611,0.3382 -0.582031,0.5644 -0.105552,0.091 -0.602762,0.4668 -0.851563,0.4668 -0.113092,0 -0.1875,-0.067 -0.1875,-0.2402 0,-0.2036 0.187481,-0.551 0.564453,-1.041 0.384511,-0.4976 0.574219,-0.7458 0.574219,-0.7383 0,-0.091 -0.175152,-0.1817 -0.265625,-0.1817 -0.188486,0.01 -0.414399,0.241 -0.693359,0.6934 -0.08955,0.1448 -0.149105,0.2708 -0.212891,0.3984 -0.430592,0.4876 -0.799355,0.702 -1.191406,0.709 0.04524,-0.1659 0.127143,-0.5489 0.240234,-1.1445 0.0754,-0.3996 0.159527,-0.6796 0.25,-0.8379 0.0075,-0.01 0.05238,-0.074 0.150391,-0.1953 0.06785,-0.083 0.09766,-0.1506 0.09766,-0.2109 0,-0.1208 -0.0819,-0.1817 -0.240234,-0.1817 z m -0.408203,0.5586 -0.0293,0.2559 c -0.02262,0.3166 -0.07527,0.6496 -0.158203,1.0039 -0.09801,0.4147 -0.203316,0.7072 -0.316407,0.7675 -0.08293,0.06 -0.181557,0.084 -0.287109,0.084 -0.158329,0 -0.308783,-0.06 -0.421875,-0.1738 -0.128171,-0.1207 -0.173282,-0.3168 -0.158203,-0.4902 0.0075,-0.075 0.07478,-0.2179 0.414062,-0.5723 0.339275,-0.3543 0.72331,-0.7016 0.957032,-0.875 z"
       style="font-size:7.53944349px;font-style:normal;font-variant:normal;font-weight:normal;font-stretch:normal;text-align:start;line-height:125%;letter-spacing:0px;word-spacing:0px;writing-mode:lr-tb;text-anchor:start;opacity:0.54500002;fill:url(#linearGradient4180);fill-opacity:1;stroke:none;font-family:Alex Brush;-inkscape-font-specification:Alex Brush" />
    <path
       style="font-size:7.53944349px;font-style:normal;font-variant:normal;font-weight:normal;font-stretch:normal;text-align:start;line-height:125%;letter-spacing:0px;word-spacing:0px;writing-mode:lr-tb;text-anchor:start;opacity:0.54500002;fill:url(#linearGradient4168);fill-opacity:1;stroke:none;font-family:Alex Brush;-inkscape-font-specification:Alex Brush"
       d="m 39.972807,1011.1122 c -0.188486,0 -0.287109,0.068 -0.287109,0.2109 0,0.1433 0.142999,0.2715 0.316406,0.2715 0.120631,0 0.287109,-0.1137 0.287109,-0.2344 0,-0.1432 -0.173157,-0.248 -0.316406,-0.248 z m -2.189453,0.037 c -0.06785,0 -0.218542,0.136 -0.482422,0.3848 l -0.951172,0.8886 c -0.332697,0.3243 -0.337342,0.3498 -0.470703,0.4981 -0.01823,0.01 -0.03646,0.01 -0.05469,0.031 -0.467445,0.5353 -0.882247,0.8983 -1.24414,1.0567 -0.05278,0.023 -0.09093,0.029 -0.121094,0.029 -0.06785,0 -0.105741,-0.044 -0.113281,-0.1348 -0.01508,-0.1583 0.08381,-0.392 0.294922,-0.7012 0.105552,-0.1507 0.301391,-0.4011 0.58789,-0.748 0.218644,-0.2488 0.323946,-0.3981 0.316406,-0.4434 -0.01508,-0.1357 -0.105616,-0.205 -0.271484,-0.205 -0.120631,0 -0.37748,0.2423 -0.769531,0.7324 -0.444827,0.5654 -0.707262,0.8596 -0.767578,0.9199 -0.5353,0.5579 -0.821909,0.625 -0.919922,0.625 -0.05278,0 -0.08426,-0.03 -0.0918,-0.098 -0.02262,-0.2112 0.151505,-0.5649 0.505859,-1.0625 0.278959,-0.3996 0.520499,-0.6859 0.708985,-0.8593 0.03016,-0.03 0.04492,-0.062 0.04492,-0.1 0,-0.091 -0.06073,-0.1348 -0.173828,-0.1348 -0.150789,0 -0.301518,0.075 -0.429688,0.2266 l -0.841797,0.9882 c -0.482831,0.5502 -0.969798,0.8809 -1.214843,0.8809 -0.211105,0 -0.301915,-0.09 -0.279297,-0.2715 0.0377,-0.2639 0.219319,-0.6032 0.558594,-1.0254 0.324196,-0.4147 0.482421,-0.6252 0.482421,-0.6328 0,-0.098 -0.129368,-0.1894 -0.25,-0.1894 -0.203565,0 -0.542593,0.1813 -1.017578,0.5507 0,0.01 -0.278018,0.2416 -0.835937,0.709 0.01508,-0.053 0.120381,-0.2647 0.316406,-0.6191 0.196026,-0.3393 0.292969,-0.5282 0.292969,-0.5508 0,-0.1131 -0.127143,-0.1875 -0.240235,-0.1875 -0.196025,0 -0.602468,0.2864 -1.220703,0.8594 -0.39959,0.3695 -0.70909,0.6708 -0.927734,0.9121 0.0377,-0.1357 0.195104,-0.4288 0.458984,-0.8887 0.256341,-0.4298 0.384766,-0.6635 0.384766,-0.7012 0,-0.098 -0.05238,-0.1445 -0.150391,-0.1445 -0.09801,0 -0.181599,0.038 -0.234375,0.1133 -0.361893,0.5127 -0.61011,0.8517 -0.738281,1.0176 -0.173407,0.2186 -0.331633,0.3843 -0.482422,0.5351 -0.05278,0.053 -0.06055,0.09 -0.06055,0.1055 0,0.038 0.01449,0.053 0.03711,0.053 0.06031,0 0.188319,-0.1414 0.210937,-0.164 l 0.453125,-0.4766 c -0.07539,0.1659 -0.150895,0.3323 -0.21875,0.4981 -0.113091,0.2639 -0.173828,0.4304 -0.173828,0.5058 0,0.09 0.09894,0.2637 0.242188,0.2637 0.03016,0 0.141865,-0.1204 0.33789,-0.3692 0.27142,-0.3468 0.513232,-0.6349 0.716797,-0.8535 0.354354,-0.377 0.72459,-0.6848 1.101563,-0.9336 -0.165868,0.3392 -0.331906,0.6705 -0.490235,1.0098 -0.173407,0.3543 -0.287067,0.6703 -0.339844,0.9492 0,0.1357 0.06101,0.2051 0.181641,0.2051 0.06032,0 0.104335,-0.023 0.126953,-0.06 0.158329,-0.4222 0.453338,-0.8516 0.890625,-1.2813 0.369433,-0.3544 0.71682,-0.619 1.041016,-0.7773 -0.173407,0.2187 -0.333313,0.4671 -0.476563,0.7461 -0.143249,0.279 -0.225701,0.4979 -0.255859,0.6562 -0.0075,0.045 -0.01367,0.092 -0.01367,0.1367 0,0.3166 0.172444,0.4746 0.511719,0.4746 0.165868,0 0.399594,-0.1133 0.701172,-0.332 0.145461,-0.111 0.278151,-0.2259 0.404297,-0.3496 0.0024,0 0.0078,0 0.0098,0 0.226183,-0.2564 0.445312,-0.4531 0.445312,-0.4531 -0.263881,0.3694 -0.415197,0.7091 -0.392578,0.9277 0.02262,0.2564 0.136279,0.3848 0.339844,0.3848 0.203565,0 0.646761,-0.1805 1.355469,-1.0098 -0.02262,0.098 -0.05188,0.195 -0.08203,0.293 -0.0377,0.1282 -0.05273,0.2416 -0.05273,0.332 0,0.2187 0.195965,0.3535 0.429688,0.3535 0.0377,0 0.06777,2e-4 0.105468,-0.01 0.113092,-0.023 0.338186,-0.1724 0.669922,-0.4589 0.142279,-0.1254 0.217816,-0.2218 0.31836,-0.3223 0.0372,-0.01 0.0937,-0.045 0.177734,-0.1289 0.08293,0.3166 0.181284,0.5356 0.279297,0.6562 0.120631,0.1508 0.295301,0.2266 0.521484,0.2266 0.203565,0 0.376283,-0.046 0.519531,-0.1289 l 0.240235,-0.1582 c 0.256341,-0.053 0.454134,-0.1216 0.589844,-0.1895 0.156392,-0.083 0.31871,-0.2173 0.486328,-0.3769 -0.03524,0.099 -0.07754,0.2039 -0.0918,0.2871 -0.0075,0.045 -0.01563,0.092 -0.01563,0.1367 0,0.3695 0.166121,0.4981 0.384765,0.4981 0.595616,0 1.062208,-0.5291 1.431641,-0.8985 0.02024,-0.021 0.01448,-0.023 0.0332,-0.043 -0.05232,0.1352 -0.08789,0.268 -0.08789,0.3906 0,0.2714 0.158225,0.4505 0.482422,0.541 0.04524,0.015 0.09761,0.023 0.15039,0.023 0.26388,0 0.588418,-0.1428 0.980469,-0.4218 0.369433,-0.2639 0.693696,-0.5798 0.972656,-0.9493 0.05278,-0.068 0.05224,-0.1054 -0.01563,-0.1054 -0.0377,0 -0.06722,0.015 -0.08984,0.045 -0.196025,0.2639 -0.461506,0.5271 -0.800781,0.791 -0.40713,0.3242 -0.737799,0.4902 -0.994141,0.4902 -0.233723,0 -0.393165,-0.1803 -0.355468,-0.414 0.0377,-0.1885 0.08394,-0.3331 0.136718,-0.416 l 0.292969,-0.4297 c 0.09801,-0.1358 0.264052,-0.2855 0.490235,-0.459 0.248802,-0.1884 0.446593,-0.2955 0.589843,-0.3106 0.01508,0 0.02148,0.011 0.02148,0.016 0,0.01 -0.03762,0.069 -0.105469,0.1816 -0.06786,0.113 -0.09766,0.1953 -0.09766,0.2481 0,0.083 0.06715,0.121 0.195312,0.121 0.12817,0 0.23488,-0.067 0.302735,-0.1953 0.06032,-0.1056 0.08984,-0.2194 0.08984,-0.3476 0,-0.1809 -0.151316,-0.3242 -0.392578,-0.3242 -0.354354,0 -0.754392,0.2334 -1.199219,0.6933 -0.145921,0.1535 -0.256287,0.2997 -0.353515,0.4414 -0.03852,0.023 -0.08844,0.062 -0.154297,0.1485 -0.150789,0.1884 -0.310611,0.3382 -0.582031,0.5644 -0.105552,0.091 -0.602762,0.4668 -0.851563,0.4668 -0.113092,0 -0.1875,-0.067 -0.1875,-0.2402 0,-0.2036 0.187481,-0.551 0.564453,-1.041 0.384511,-0.4976 0.574219,-0.7458 0.574219,-0.7383 0,-0.091 -0.175152,-0.1817 -0.265625,-0.1817 -0.188486,0.01 -0.414399,0.241 -0.693359,0.6934 -0.08955,0.1448 -0.149105,0.2708 -0.212891,0.3984 -0.430592,0.4876 -0.799355,0.702 -1.191406,0.709 0.04524,-0.1659 0.127143,-0.5489 0.240234,-1.1445 0.0754,-0.3996 0.159527,-0.6796 0.25,-0.8379 0.0075,-0.01 0.05238,-0.074 0.150391,-0.1953 0.06785,-0.083 0.09766,-0.1506 0.09766,-0.2109 0,-0.1208 -0.0819,-0.1817 -0.240234,-0.1817 z m -0.408203,0.5586 -0.0293,0.2559 c -0.02262,0.3166 -0.07527,0.6496 -0.158203,1.0039 -0.09801,0.4147 -0.203316,0.7072 -0.316407,0.7675 -0.08293,0.06 -0.181557,0.084 -0.287109,0.084 -0.158329,0 -0.308783,-0.06 -0.421875,-0.1738 -0.128171,-0.1207 -0.173282,-0.3168 -0.158203,-0.4902 0.0075,-0.075 0.07478,-0.2179 0.414062,-0.5723 0.339275,-0.3543 0.72331,-0.7016 0.957032,-0.875 z"
       id="path4146"
       inkscape:connector-curvature="0" />
  </g>
</svg>
