<?xml version="1.0" encoding="UTF-8" standalone="no"?>
<!-- Created with Inkscape (http://www.inkscape.org/) -->

<svg
   xmlns:dc="http://purl.org/dc/elements/1.1/"
   xmlns:cc="http://creativecommons.org/ns#"
   xmlns:rdf="http://www.w3.org/1999/02/22-rdf-syntax-ns#"
   xmlns:svg="http://www.w3.org/2000/svg"
   xmlns="http://www.w3.org/2000/svg"
   xmlns:xlink="http://www.w3.org/1999/xlink"
   xmlns:sodipodi="http://sodipodi.sourceforge.net/DTD/sodipodi-0.dtd"
   xmlns:inkscape="http://www.inkscape.org/namespaces/inkscape"
   width="48"
   height="48"
   id="svg2"
   version="1.1"
   inkscape:version="0.48+devel r12487"
   sodipodi:docname="kmplayer.svg"
   inkscape:export-filename="/home/uri/Iconos/NITRUX/apps/16/gnome-mplayer.png"
   inkscape:export-xdpi="30"
   inkscape:export-ydpi="30">
  <defs
     id="defs4">
    <linearGradient
       id="linearGradient4112"
       inkscape:collect="always">
      <stop
         id="stop4114"
         offset="0"
         style="stop-color:#777671;stop-opacity:1" />
      <stop
         id="stop4116"
         offset="1"
         style="stop-color:#cccccb;stop-opacity:1" />
    </linearGradient>
    <linearGradient
       inkscape:collect="always"
       id="linearGradient4072">
      <stop
         style="stop-color:#000000;stop-opacity:1;"
         offset="0"
         id="stop4074" />
      <stop
         style="stop-color:#000000;stop-opacity:0;"
         offset="1"
         id="stop4076" />
    </linearGradient>
    <linearGradient
       inkscape:collect="always"
       id="linearGradient3989">
      <stop
         style="stop-color:#777671;stop-opacity:1"
         offset="0"
         id="stop3991" />
      <stop
         style="stop-color:#babab8;stop-opacity:1"
         offset="1"
         id="stop3993" />
    </linearGradient>
    <linearGradient
       inkscape:collect="always"
       id="linearGradient849">
      <stop
         style="stop-color:#c0885f;stop-opacity:1"
         offset="0"
         id="stop851" />
      <stop
         id="stop857"
         offset="0.21651782"
         style="stop-color:#fada8e;stop-opacity:1" />
      <stop
         style="stop-color:#f0e4a9;stop-opacity:1"
         offset="0.53636128"
         id="stop859" />
      <stop
         id="stop861"
         offset="0.875"
         style="stop-color:#d3d2a0;stop-opacity:1" />
      <stop
         style="stop-color:#8aa089;stop-opacity:1"
         offset="1"
         id="stop853" />
    </linearGradient>
    <linearGradient
       inkscape:collect="always"
       xlink:href="#linearGradient849"
       id="linearGradient855"
       x1="23.472544"
       y1="-1052.3932"
       x2="23.472544"
       y2="-1004.2994"
       gradientUnits="userSpaceOnUse" />
    <linearGradient
       inkscape:collect="always"
       xlink:href="#linearGradient3989"
       id="linearGradient3995"
       x1="24.310848"
       y1="1033.9194"
       x2="24.310848"
       y2="1022.8818"
       gradientUnits="userSpaceOnUse"
       gradientTransform="matrix(0.99486401,0,0,0.99486401,0.1232638,-5.40208)" />
    <linearGradient
       inkscape:collect="always"
       xlink:href="#linearGradient4072"
       id="linearGradient4078"
       x1="22.75"
       y1="36.875"
       x2="22.75"
       y2="42.5"
       gradientUnits="userSpaceOnUse"
       gradientTransform="matrix(0.99486401,0,0,0.99486401,0.1232638,1002.9469)" />
    <linearGradient
       inkscape:collect="always"
       xlink:href="#linearGradient4072"
       id="linearGradient4084"
       gradientUnits="userSpaceOnUse"
       x1="24.5"
       y1="37.03125"
       x2="24.5"
       y2="38.0625"
       gradientTransform="matrix(0.99486401,0,0,0.99486401,0.1232638,1002.9469)" />
    <linearGradient
       inkscape:collect="always"
       xlink:href="#linearGradient4112"
       id="linearGradient4110"
       x1="36.98341"
       y1="42.500965"
       x2="36.98341"
       y2="37.567196"
       gradientUnits="userSpaceOnUse" />
    <linearGradient
       inkscape:collect="always"
       xlink:href="#linearGradient3989"
       id="linearGradient4123"
       gradientUnits="userSpaceOnUse"
       gradientTransform="matrix(0.99486401,0,0,0.99486401,0.1232638,-5.40208)"
       x1="24.310848"
       y1="1033.9194"
       x2="24.310848"
       y2="1022.8818" />
  </defs>
  <sodipodi:namedview
     id="base"
     pagecolor="#ffffff"
     bordercolor="#666666"
     borderopacity="1.0"
     inkscape:pageopacity="0.0"
     inkscape:pageshadow="2"
     inkscape:zoom="8.765625"
     inkscape:cx="27.526434"
     inkscape:cy="32.594902"
     inkscape:document-units="px"
     inkscape:current-layer="layer1"
     showgrid="false"
     inkscape:window-width="1366"
     inkscape:window-height="715"
     inkscape:window-x="0"
     inkscape:window-y="30"
     inkscape:window-maximized="1"
     width="0px"
     height="0px"
     fit-margin-top="0"
     fit-margin-left="0"
     fit-margin-right="0"
     fit-margin-bottom="0">
    <inkscape:grid
       type="xygrid"
       id="grid3850"
       empspacing="5"
       visible="true"
       enabled="true"
       snapvisiblegridlinesonly="true" />
  </sodipodi:namedview>
  <metadata
     id="metadata7">
    <rdf:RDF>
      <cc:Work
         rdf:about="">
        <dc:format>image/svg+xml</dc:format>
        <dc:type
           rdf:resource="http://purl.org/dc/dcmitype/StillImage" />
        <dc:title />
      </cc:Work>
    </rdf:RDF>
  </metadata>
  <g
     inkscape:label="Capa 1"
     inkscape:groupmode="layer"
     id="layer1"
     transform="translate(0,-1004.3622)">
    <rect
       style="fill:url(#linearGradient855);fill-opacity:1;stroke:none"
       id="rect2991-1"
       width="48"
       height="48"
       x="-2.979004e-06"
       y="-1052.3622"
       ry="1.9445436"
       transform="scale(1,-1)" />
    <path
       inkscape:connector-curvature="0"
       style="fill:#000000;fill-opacity:1;stroke:none"
       d="m -3e-6,1049.3622 0,1.0625 c 0,1.0773 0.860223,1.9375 1.9375,1.9375 l 44.124996,0 c 1.07728,0 1.93751,-0.8602 1.93751,-1.9375 l 0,-1.0625 c 0,1.0773 -0.86023,1.9375 -1.93751,1.9375 l -44.124996,0 C 0.86022,1051.2997 -3e-6,1050.4395 -3e-6,1049.3622 Z"
       id="rect846" />
    <path
       inkscape:connector-curvature="0"
       style="fill:#ffffff;fill-opacity:0.5372549;stroke:none"
       d="m 2.531247,1005.0185 c -0.917088,0 -1.671147,0.6395 -1.84375,1.5 0.335612,-0.2799 0.774512,-0.4375 1.25,-0.4375 l 44.124996,0 c 0.47549,0 0.91439,0.1576 1.25001,0.4375 -0.17261,-0.8605 -0.92667,-1.5 -1.84376,-1.5 L 2.531247,1005.0185 Z"
       id="path7515" />
    <path
       style="fill:url(#linearGradient3995);fill-opacity:1;stroke:none"
       d="m 5.6882844,1012.3622 c -1.0717443,0 -1.927549,0.8869 -1.927549,1.9586 l 0,6.7153 c 0,1.0718 0.8558047,1.9587 1.927549,1.9587 l 36.6234316,0 c 1.071744,0 1.927549,-0.8869 1.927549,-1.9587 l 0,-6.7153 c 0,-1.0717 -0.855805,-1.9586 -1.927549,-1.9586 l -36.6234316,0 z m 0.310895,0.5285 36.0016416,0 c 0.969465,0 1.741012,0.7716 1.741012,1.741 l 0,6.0935 c 0,0.9695 -0.771547,1.741 -1.741012,1.741 l -36.0016416,0 c -0.9694656,0 -1.741012,-0.7715 -1.741012,-1.741 l 0,-6.0935 c 0,-0.9694 0.7715464,-1.741 1.741012,-1.741 z"
       id="rect3983"
       inkscape:connector-curvature="0" />
    <path
       inkscape:connector-curvature="0"
       style="fill:#000000;fill-opacity:0.39215686;stroke:none"
       d="m 1.937497,1004.3622 c -1.077277,0 -1.9375,0.8602 -1.9375,1.9375 l 0,43.0625 c 0,0.7934 0.480024,1.449 1.15625,1.75 -0.309342,-0.3333 -0.5,-0.7824 -0.5,-1.2812 l 0,-42.9375 c 0,-1.0482 0.826899,-1.875 1.875,-1.875 l 42.937496,0 c 1.04811,0 1.87501,0.8268 1.87501,1.875 l 0,42.9375 c 0,0.4988 -0.19066,0.9479 -0.50001,1.2812 0.67623,-0.301 1.15626,-0.9566 1.15626,-1.75 l 0,-43.0625 c 0,-1.0773 -0.86023,-1.9375 -1.93751,-1.9375 L 1.937497,1004.3622 Z"
       id="rect4280-0" />
    <path
       inkscape:connector-curvature="0"
       style="fill:#000000;fill-opacity:0.23529412;stroke:none"
       d="m 5.6882844,1012.7625 c -1.0717443,0 -1.927549,0.8869 -1.927549,1.9586 l 0,6.7153 c 0,1.0718 0.8558047,1.9587 1.927549,1.9587 l 36.6234316,0 c 1.071744,0 1.927549,-0.8869 1.927549,-1.9587 l 0,-6.7153 c 0,-1.0717 -0.855805,-1.9586 -1.927549,-1.9586 l -36.6234316,0 z m 0.310895,0.5285 36.0016416,0 c 0.969465,0 1.741012,0.7716 1.741012,1.741 l 0,6.0935 c 0,0.9695 -0.771547,1.741 -1.741012,1.741 l -36.0016416,0 c -0.9694656,0 -1.741012,-0.7715 -1.741012,-1.741 l 0,-6.0935 c 0,-0.9694 0.7715464,-1.741 1.741012,-1.741 z"
       id="path4086" />
    <rect
       ry="1.7499379"
       y="1012.8773"
       x="4.2561393"
       height="9.6020632"
       width="39.487724"
       id="rect3997"
       style="fill:#000000;fill-opacity:0.84357539;stroke:none" />
    <path
       id="path4009"
       d="m 5.6882844,1012.3622 c -1.0717443,0 -1.927549,0.8869 -1.927549,1.9586 l 0,6.7153 c 0,1.0718 0.8558047,1.9587 1.927549,1.9587 l 36.6234316,0 c 1.071744,0 1.927549,-0.8869 1.927549,-1.9587 l 0,-6.7153 c 0,-1.0717 -0.855805,-1.9586 -1.927549,-1.9586 l -36.6234316,0 z m 0.310895,0.5285 36.0016416,0 c 0.969465,0 1.741012,0.7716 1.741012,1.741 l 0,6.0935 c 0,0.9695 -0.771547,1.741 -1.741012,1.741 l -36.0016416,0 c -0.9694656,0 -1.741012,-0.7715 -1.741012,-1.741 l 0,-6.0935 c 0,-0.9694 0.7715464,-1.741 1.741012,-1.741 z"
       style="fill:url(#linearGradient4123);fill-opacity:1;stroke:none"
       inkscape:connector-curvature="0" />
    <path
       style="fill:#ffffff;fill-opacity:0.17318438;stroke:none"
       d="m 5.9991794,1012.8907 c -0.9694656,0 -1.741012,0.7716 -1.741012,1.741 l 0,3.0624 39.4836656,0 0,-3.0624 c 0,-0.9694 -0.771547,-1.741 -1.741012,-1.741 z"
       id="rect4002"
       inkscape:connector-curvature="0"
       sodipodi:nodetypes="ssccsss" />
    <g
       id="g4064"
       transform="matrix(0.99486401,0,0,0.99486401,0.20005138,-5.40208)">
      <rect
         ry="0"
         y="1025.6063"
         x="21.935621"
         height="5.7982821"
         width="1.7704407"
         id="rect3985"
         style="fill:#ededed;fill-opacity:1;stroke:none" />
      <rect
         style="fill:#ededed;fill-opacity:1;stroke:none"
         id="rect4007"
         width="1.7704407"
         height="5.7982821"
         x="24.29394"
         y="1025.6063"
         ry="0" />
      <path
         inkscape:connector-curvature="0"
         id="path4037"
         d="m 21.935842,1025.6122 0,2.75 1.77,0 0,-2.75 -1.77,0 z"
         style="fill:#ffffff;fill-opacity:1;stroke:none" />
      <path
         inkscape:connector-curvature="0"
         id="rect4022"
         d="m 24.29416,1025.6122 0,2.75 1.77,0 0,-2.75 -1.77,0 z"
         style="fill:#ffffff;fill-opacity:1;stroke:none" />
    </g>
    <g
       id="g4048"
       transform="matrix(0.99486401,0,0,0.99486401,0.20005138,-5.40208)">
      <path
         inkscape:transform-center-x="-0.63324638"
         transform="translate(2.2097087,1004.3596)"
         d="m 31.656946,24.002563 -3.799478,2.19363 0,-4.387259 z"
         inkscape:randomized="0"
         inkscape:rounded="0"
         inkscape:flatsided="true"
         sodipodi:arg2="1.0471976"
         sodipodi:arg1="0"
         sodipodi:r2="1.2664928"
         sodipodi:r1="2.5329854"
         sodipodi:cy="24.002563"
         sodipodi:cx="29.12396"
         sodipodi:sides="3"
         id="path4030"
         style="fill:#ededed;fill-opacity:1;stroke:none"
         sodipodi:type="star" />
      <path
         id="path4039"
         transform="translate(0,1004.3622)"
         d="m 30.0625,21.8125 0,2.1875 3.8125,0 -3.8125,-2.1875 z"
         style="fill:#ffffff;fill-opacity:1;stroke:none"
         inkscape:connector-curvature="0" />
      <rect
         ry="0"
         y="1026.1145"
         x="34.012691"
         height="4.781816"
         width="1.7704407"
         id="rect4044"
         style="fill:#ededed;fill-opacity:1;stroke:none" />
      <path
         style="fill:#ffffff;fill-opacity:1;stroke:none"
         d="m 34.01291,1026.1194 0,2.2679 1.77,0 0,-2.2679 -1.77,0 z"
         id="path4046"
         inkscape:connector-curvature="0" />
    </g>
    <g
       id="g4054"
       transform="matrix(-0.99486401,0,0,0.99486401,47.799949,-5.40208)">
      <path
         sodipodi:type="star"
         style="fill:#ededed;fill-opacity:1;stroke:none"
         id="path4056"
         sodipodi:sides="3"
         sodipodi:cx="29.12396"
         sodipodi:cy="24.002563"
         sodipodi:r1="2.5329854"
         sodipodi:r2="1.2664928"
         sodipodi:arg1="0"
         sodipodi:arg2="1.0471976"
         inkscape:flatsided="true"
         inkscape:rounded="0"
         inkscape:randomized="0"
         d="m 31.656946,24.002563 -3.799478,2.19363 0,-4.387259 z"
         transform="translate(2.2097087,1004.3596)"
         inkscape:transform-center-x="-0.63324638" />
      <path
         style="fill:#ffffff;fill-opacity:1;stroke:none"
         d="m 30.0625,21.8125 0,2.1875 3.8125,0 -3.8125,-2.1875 z"
         transform="translate(0,1004.3622)"
         id="path4058"
         inkscape:connector-curvature="0" />
      <rect
         style="fill:#ededed;fill-opacity:1;stroke:none"
         id="rect4060"
         width="1.7704407"
         height="4.781816"
         x="34.012691"
         y="1026.1145"
         ry="0" />
      <path
         inkscape:connector-curvature="0"
         id="path4062"
         d="m 34.01291,1026.1194 0,2.2679 1.77,0 0,-2.2679 -1.77,0 z"
         style="fill:#ffffff;fill-opacity:1;stroke:none" />
    </g>
    <rect
       style="fill:url(#linearGradient4078);fill-opacity:1;stroke:none"
       id="rect4070"
       width="38.799698"
       height="4.1038141"
       x="4.9732261"
       y="1040.0055"
       ry="2.0519071" />
    <path
       style="fill:url(#linearGradient4084);fill-opacity:1;stroke:none"
       d="m 7.0251329,1040.0056 c -0.5683782,0 -1.0903243,0.2199 -1.4612065,0.5907 l 37.6182956,0 c -0.370882,-0.3708 -0.892827,-0.5907 -1.461206,-0.5907 l -34.6958831,0 z"
       id="rect4080"
       inkscape:connector-curvature="0" />
    <path
       style="fill:#000000;fill-opacity:1;stroke:none"
       d="m 5.0043154,1042.3062 c 0.1265852,1.0136 0.9718253,1.8032 2.0208175,1.8032 l 34.6958831,0 c 1.048992,0 1.894232,-0.7896 2.020817,-1.8032 -0.190707,0.9368 -1.026155,1.6478 -2.020817,1.6478 l -34.6958831,0 c -0.994662,0 -1.8301104,-0.711 -2.0208175,-1.6478 z"
       id="rect4087"
       inkscape:connector-curvature="0" />
    <path
       style="fill:#ffffff;fill-opacity:0.47486034;stroke:none"
       d="m 4.9732259,1042.1859 c -0.00264,0.043 0,0.081 0,0.1244 0,1.1367 0.9151505,2.0519 2.051907,2.0519 l 34.6958831,0 c 1.136756,0 2.051907,-0.9152 2.051907,-2.0519 0,-0.044 0.0027,-0.082 0,-0.1244 -0.06633,1.0761 -0.958615,1.9276 -2.051907,1.9276 l -34.6958831,0 c -1.0932923,0 -1.9855759,-0.8515 -2.051907,-1.9276 z"
       id="rect4095"
       inkscape:connector-curvature="0" />
    <path
       sodipodi:type="arc"
       style="fill:#000000;fill-opacity:0.47486034;stroke:none"
       id="path4100"
       sodipodi:cx="37.015625"
       sodipodi:cy="40.015625"
       sodipodi:rx="2.453125"
       sodipodi:ry="2.453125"
       d="m 39.46875,40.015625 a 2.453125,2.453125 0 1 1 -4.90625,0 2.453125,2.453125 0 1 1 4.90625,0 z"
       transform="matrix(0.7540689,0,0,0.7540689,9.6271459,1011.883)" />
    <path
       transform="matrix(0.68237718,0,0,0.68237718,12.280861,1014.7518)"
       d="m 39.46875,40.015625 a 2.453125,2.453125 0 1 1 -4.90625,0 2.453125,2.453125 0 1 1 4.90625,0 z"
       sodipodi:ry="2.453125"
       sodipodi:rx="2.453125"
       sodipodi:cy="40.015625"
       sodipodi:cx="37.015625"
       id="path4102"
       style="fill:url(#linearGradient4110);fill-opacity:1;stroke:none"
       sodipodi:type="arc" />
    <path
       style="fill:#ffffff;fill-opacity:0.5372549;stroke:none"
       d="m 37.555023,1040.3787 c -0.924501,0 -1.678833,0.7543 -1.678833,1.6788 0,0.042 -0.003,0.084 0,0.1244 0.04833,-0.8812 0.785591,-1.5856 1.678833,-1.5856 0.893241,0 1.599411,0.7044 1.647743,1.5856 0.003,-0.041 0,-0.083 0,-0.1244 0,-0.9245 -0.723243,-1.6788 -1.647743,-1.6788 z"
       id="path4118"
       inkscape:connector-curvature="0" />
  </g>
</svg>
