<?xml version="1.0" encoding="UTF-8" standalone="no"?>
<!-- Created with Inkscape (http://www.inkscape.org/) -->

<svg
   xmlns:dc="http://purl.org/dc/elements/1.1/"
   xmlns:cc="http://creativecommons.org/ns#"
   xmlns:rdf="http://www.w3.org/1999/02/22-rdf-syntax-ns#"
   xmlns:svg="http://www.w3.org/2000/svg"
   xmlns="http://www.w3.org/2000/svg"
   xmlns:xlink="http://www.w3.org/1999/xlink"
   xmlns:sodipodi="http://sodipodi.sourceforge.net/DTD/sodipodi-0.dtd"
   xmlns:inkscape="http://www.inkscape.org/namespaces/inkscape"
   width="48"
   height="48"
   id="svg5453"
   version="1.1"
   inkscape:version="0.48+devel r12923"
   sodipodi:docname="goa-account-owncloud.svg">
  <defs
     id="defs5455">
    <linearGradient
       inkscape:collect="always"
       id="linearGradient4165">
      <stop
         style="stop-color:#1a232a;stop-opacity:1"
         offset="0"
         id="stop4167" />
      <stop
         style="stop-color:#8ea0b2;stop-opacity:1"
         offset="1"
         id="stop4169" />
    </linearGradient>
    <linearGradient
       id="linearGradient4592"
       inkscape:collect="always">
      <stop
         id="stop4594"
         offset="0"
         style="stop-color:#d6dce2;stop-opacity:1" />
      <stop
         id="stop4596"
         offset="1"
         style="stop-color:#f9fafb;stop-opacity:1" />
    </linearGradient>
    <linearGradient
       gradientUnits="userSpaceOnUse"
       y2="-477.68445"
       x2="452.4895"
       y1="-549.64319"
       x1="380.53076"
       id="linearGradient4598"
       xlink:href="#linearGradient6390"
       inkscape:collect="always"
       gradientTransform="translate(-5.8251953e-6,-1.8183594e-5)" />
    <linearGradient
       inkscape:collect="always"
       id="linearGradient6390">
      <stop
         style="stop-color:#ffffff;stop-opacity:1"
         offset="0"
         id="stop6392" />
      <stop
         id="stop6414"
         offset="0.16451773"
         style="stop-color:#29282b;stop-opacity:1" />
      <stop
         style="stop-color:#868c95;stop-opacity:1"
         offset="0.26065826"
         id="stop6416" />
      <stop
         id="stop6418"
         offset="0.39485914"
         style="stop-color:#92979f;stop-opacity:1" />
      <stop
         style="stop-color:#737881;stop-opacity:1"
         offset="0.54328567"
         id="stop6420" />
      <stop
         id="stop6422"
         offset="0.62599665"
         style="stop-color:#70757e;stop-opacity:1" />
      <stop
         style="stop-color:#e4e6e8;stop-opacity:1"
         offset="0.72117096"
         id="stop6424" />
      <stop
         id="stop6426"
         offset="0.79481769"
         style="stop-color:#ffffff;stop-opacity:1" />
      <stop
         style="stop-color:#1d191a;stop-opacity:1"
         offset="1"
         id="stop6394" />
    </linearGradient>
    <linearGradient
       y2="-499.76947"
       x2="418.56787"
       y1="-547.77661"
       x1="418.56787"
       gradientUnits="userSpaceOnUse"
       id="linearGradient4163"
       xlink:href="#linearGradient4592"
       inkscape:collect="always"
       gradientTransform="translate(-5.8251953e-6,-1.8183594e-5)" />
    <linearGradient
       inkscape:collect="always"
       xlink:href="#linearGradient4592"
       id="linearGradient4355"
       gradientUnits="userSpaceOnUse"
       x1="409.33276"
       y1="534.39722"
       x2="409.33276"
       y2="513.31665"
       gradientTransform="matrix(0.94306393,0,0,0.94306393,23.262447,29.822995)" />
    <linearGradient
       inkscape:collect="always"
       xlink:href="#linearGradient4592"
       id="linearGradient4357"
       gradientUnits="userSpaceOnUse"
       x1="409.33276"
       y1="534.39722"
       x2="409.33276"
       y2="513.31665"
       gradientTransform="matrix(0.94306393,0,0,0.94306393,23.293519,29.822995)" />
    <linearGradient
       inkscape:collect="always"
       xlink:href="#linearGradient4592"
       id="linearGradient4359"
       gradientUnits="userSpaceOnUse"
       x1="409.33276"
       y1="534.39722"
       x2="409.33276"
       y2="513.31665"
       gradientTransform="matrix(0.94306393,0,0,0.94306393,23.262447,29.822995)" />
    <linearGradient
       inkscape:collect="always"
       xlink:href="#linearGradient4592"
       id="linearGradient4361"
       gradientUnits="userSpaceOnUse"
       x1="409.33276"
       y1="534.39722"
       x2="409.33276"
       y2="513.31665"
       gradientTransform="matrix(0.94306393,0,0,0.94306393,23.262447,29.822995)" />
    <linearGradient
       inkscape:collect="always"
       xlink:href="#linearGradient4592"
       id="linearGradient4363"
       gradientUnits="userSpaceOnUse"
       x1="409.33276"
       y1="534.39722"
       x2="409.33276"
       y2="513.31665"
       gradientTransform="matrix(0.94306393,0,0,0.94306393,23.262447,29.822995)" />
    <linearGradient
       inkscape:collect="always"
       xlink:href="#linearGradient4592"
       id="linearGradient4365"
       gradientUnits="userSpaceOnUse"
       x1="409.33276"
       y1="534.39722"
       x2="409.33276"
       y2="513.31665"
       gradientTransform="matrix(0.94306393,0,0,0.94306393,23.262447,29.822995)" />
    <linearGradient
       inkscape:collect="always"
       xlink:href="#linearGradient4592"
       id="linearGradient4367"
       gradientUnits="userSpaceOnUse"
       x1="409.33276"
       y1="534.39722"
       x2="409.33276"
       y2="513.31665"
       gradientTransform="matrix(0.94306393,0,0,0.94306393,23.262447,29.822995)" />
    <linearGradient
       inkscape:collect="always"
       xlink:href="#linearGradient4592"
       id="linearGradient4369"
       gradientUnits="userSpaceOnUse"
       x1="409.33276"
       y1="534.39722"
       x2="409.33276"
       y2="513.31665"
       gradientTransform="matrix(0.94306393,0,0,0.94306393,23.262447,29.822995)" />
    <linearGradient
       inkscape:collect="always"
       xlink:href="#linearGradient4592"
       id="linearGradient4371"
       gradientUnits="userSpaceOnUse"
       x1="409.33276"
       y1="534.39722"
       x2="409.33276"
       y2="513.31665"
       gradientTransform="matrix(0.94306393,0,0,0.94306393,23.231399,29.822995)" />
    <linearGradient
       inkscape:collect="always"
       xlink:href="#linearGradient4165"
       id="linearGradient4382"
       gradientUnits="userSpaceOnUse"
       x1="410.85675"
       y1="533.38611"
       x2="410.85675"
       y2="514.0611"
       gradientTransform="matrix(0.94306393,0,0,0.94306393,23.262447,29.822995)" />
    <linearGradient
       inkscape:collect="always"
       xlink:href="#linearGradient4165"
       id="linearGradient4384"
       gradientUnits="userSpaceOnUse"
       x1="410.85675"
       y1="533.38611"
       x2="410.85675"
       y2="514.0611"
       gradientTransform="matrix(0.94306393,0,0,0.94306393,23.293517,29.822995)" />
    <linearGradient
       inkscape:collect="always"
       xlink:href="#linearGradient4165"
       id="linearGradient4386"
       gradientUnits="userSpaceOnUse"
       x1="410.85675"
       y1="533.38611"
       x2="410.85675"
       y2="514.0611"
       gradientTransform="matrix(0.94306393,0,0,0.94306393,23.262447,29.822995)" />
    <linearGradient
       inkscape:collect="always"
       xlink:href="#linearGradient4165"
       id="linearGradient4388"
       gradientUnits="userSpaceOnUse"
       x1="410.85675"
       y1="533.38611"
       x2="410.85675"
       y2="514.0611"
       gradientTransform="matrix(0.94306393,0,0,0.94306393,23.262447,29.822995)" />
    <linearGradient
       inkscape:collect="always"
       xlink:href="#linearGradient4165"
       id="linearGradient4390"
       gradientUnits="userSpaceOnUse"
       x1="410.85675"
       y1="533.38611"
       x2="410.85675"
       y2="514.0611"
       gradientTransform="matrix(0.94306393,0,0,0.94306393,23.262447,29.822995)" />
    <linearGradient
       inkscape:collect="always"
       xlink:href="#linearGradient4165"
       id="linearGradient4392"
       gradientUnits="userSpaceOnUse"
       x1="410.85675"
       y1="533.38611"
       x2="410.85675"
       y2="514.0611"
       gradientTransform="matrix(0.94306393,0,0,0.94306393,23.262447,29.822995)" />
    <linearGradient
       inkscape:collect="always"
       xlink:href="#linearGradient4165"
       id="linearGradient4394"
       gradientUnits="userSpaceOnUse"
       x1="410.85675"
       y1="533.38611"
       x2="410.85675"
       y2="514.0611"
       gradientTransform="matrix(0.94306393,0,0,0.94306393,23.262447,29.822995)" />
    <linearGradient
       inkscape:collect="always"
       xlink:href="#linearGradient4165"
       id="linearGradient4396"
       gradientUnits="userSpaceOnUse"
       x1="410.85675"
       y1="533.38611"
       x2="410.85675"
       y2="514.0611"
       gradientTransform="matrix(0.94306393,0,0,0.94306393,23.262447,29.822995)" />
    <linearGradient
       inkscape:collect="always"
       xlink:href="#linearGradient4165"
       id="linearGradient4398"
       gradientUnits="userSpaceOnUse"
       x1="410.85675"
       y1="533.38611"
       x2="410.85675"
       y2="514.0611"
       gradientTransform="matrix(0.94306393,0,0,0.94306393,23.231402,29.822995)" />
  </defs>
  <sodipodi:namedview
     id="base"
     pagecolor="#ffffff"
     bordercolor="#666666"
     borderopacity="1.0"
     inkscape:pageopacity="0"
     inkscape:pageshadow="2"
     inkscape:zoom="8.399168"
     inkscape:cx="20.182571"
     inkscape:cy="37.5933"
     inkscape:document-units="px"
     inkscape:current-layer="layer1"
     showgrid="false"
     fit-margin-top="0"
     fit-margin-left="0"
     fit-margin-right="0"
     fit-margin-bottom="0"
     inkscape:window-width="1366"
     inkscape:window-height="669"
     inkscape:window-x="0"
     inkscape:window-y="26"
     inkscape:window-maximized="1"
     inkscape:showpageshadow="false"
     borderlayer="true" />
  <metadata
     id="metadata5458">
    <rdf:RDF>
      <cc:Work
         rdf:about="">
        <dc:format>image/svg+xml</dc:format>
        <dc:type
           rdf:resource="http://purl.org/dc/dcmitype/StillImage" />
        <dc:title />
      </cc:Work>
    </rdf:RDF>
  </metadata>
  <g
     inkscape:label="Capa 1"
     inkscape:groupmode="layer"
     id="layer1"
     transform="translate(-384.57143,-499.798)">
    <rect
       style="fill:url(#linearGradient4598);fill-opacity:1;stroke:none"
       id="rect2991-1-7-1"
       width="48"
       height="48"
       x="384.57144"
       y="-547.79797"
       ry="1.9445436"
       transform="scale(1,-1)" />
    <rect
       transform="scale(1,-1)"
       ry="1.9445436"
       y="-547.79797"
       x="384.57144"
       height="48"
       width="48"
       id="rect4161"
       style="opacity:0.5;fill:url(#linearGradient4163);fill-opacity:1.0;stroke:none" />
    <path
       style="fill:#000000;fill-opacity:0.05882353;stroke:none"
       d="m 406.80776,514.99801 c -1.9798,0 -3.68103,1.12248 -4.55469,2.75391 -0.44883,-0.29913 -0.9868,-0.47461 -1.56641,-0.47461 -1.56218,0 -2.82812,1.26553 -2.82812,2.82812 0,0.67188 0.2437,1.28035 0.63477,1.76563 -0.91511,0.59649 -1.62877,1.47144 -2.02149,2.50781 -0.23448,-0.0324 -0.47147,-0.0547 -0.71484,-0.0547 -2.86403,0 -5.18555,2.32268 -5.18555,5.1875 0,2.8648 2.32152,5.18555 5.18555,5.18555 1.02313,0 1.97138,-0.30486 2.77539,-0.81641 0.60441,0.67994 1.47578,1.11719 2.45703,1.11719 1.33665,0 2.4808,-0.7985 3,-1.94141 1.2232,1.01213 2.79227,1.6211 4.50391,1.6211 1.91495,0 3.64965,-0.76545 4.92382,-2.00196 0.94977,1.06775 2.31802,1.75391 3.85938,1.75391 1.23726,0 2.35808,-0.45253 3.25,-1.17578 0.59182,0.8853 1.59942,1.46875 2.74414,1.46875 1.82257,0 3.30078,-1.47578 3.30078,-3.29883 0,-1.82307 -1.47821,-3.30078 -3.30078,-3.30078 -0.31404,0 -0.61264,0.0567 -0.90039,0.13867 -0.44986,-2.34671 -2.48149,-4.12772 -4.94141,-4.19922 3e-5,-0.007 0.002,-0.0142 0.002,-0.0215 0,-2.86481 -2.32347,-5.1875 -5.1875,-5.1875 -0.14215,0 -0.28263,0.0103 -0.42188,0.0215 -0.58158,-2.22936 -2.60286,-3.87695 -5.01367,-3.87695 z"
       id="path4698"
       inkscape:connector-curvature="0" />
    <path
       inkscape:connector-curvature="0"
       style="fill:#000000;fill-opacity:1;stroke:none"
       d="m 384.57142,544.79801 0,1.0625 c 0,1.0773 0.86022,1.9375 1.9375,1.9375 l 44.125,0 c 1.07728,0 1.9375,-0.8602 1.9375,-1.9375 l 0,-1.0625 c 0,1.0773 -0.86022,1.9375 -1.9375,1.9375 l -44.125,0 c -1.07728,0 -1.9375,-0.8602 -1.9375,-1.9375 z"
       id="rect846-7" />
    <path
       inkscape:connector-curvature="0"
       style="fill:#ffffff;fill-opacity:0.5372549;stroke:none"
       d="m 387.10267,500.45431 c -0.91709,0 -1.67115,0.6395 -1.84375,1.5 0.33561,-0.2799 0.77451,-0.4375 1.25,-0.4375 l 44.125,0 c 0.47549,0 0.91439,0.1576 1.25,0.4375 -0.1726,-0.8605 -0.92666,-1.5 -1.84375,-1.5 l -42.9375,0 z"
       id="path7515-0" />
    <path
       inkscape:connector-curvature="0"
       style="fill:#000000;fill-opacity:0.39215686;stroke:none"
       d="m 386.50892,499.79801 c -1.07728,0 -1.9375,0.8602 -1.9375,1.9375 l 0,43.0625 c 0,0.7934 0.48002,1.449 1.15625,1.75 -0.30934,-0.3333 -0.5,-0.7824 -0.5,-1.2812 l 0,-42.9375 c 0,-1.0482 0.8269,-1.875 1.875,-1.875 l 42.9375,0 c 1.0481,0 1.875,0.8268 1.875,1.875 l 0,42.9375 c 0,0.4988 -0.19066,0.9479 -0.5,1.2812 0.67623,-0.301 1.15625,-0.9566 1.15625,-1.75 l 0,-43.0625 c 0,-1.0773 -0.86022,-1.9375 -1.9375,-1.9375 l -44.125,0 z"
       id="rect4280-4" />
    <path
       inkscape:connector-curvature="0"
       id="path4696"
       d="m 406.80776,514.59801 c -1.9798,0 -3.68103,1.12248 -4.55469,2.75391 -0.44883,-0.29913 -0.9868,-0.47461 -1.56641,-0.47461 -1.56218,0 -2.82812,1.26553 -2.82812,2.82812 0,0.67188 0.2437,1.28035 0.63477,1.76563 -0.91511,0.59649 -1.62877,1.47144 -2.02149,2.50781 -0.23448,-0.0324 -0.47147,-0.0547 -0.71484,-0.0547 -2.86403,0 -5.18555,2.32268 -5.18555,5.1875 0,2.8648 2.32152,5.18555 5.18555,5.18555 1.02313,0 1.97138,-0.30486 2.77539,-0.81641 0.60441,0.67994 1.47578,1.11719 2.45703,1.11719 1.33665,0 2.4808,-0.7985 3,-1.94141 1.2232,1.01213 2.79227,1.6211 4.50391,1.6211 1.91495,0 3.64965,-0.76545 4.92382,-2.00196 0.94977,1.06775 2.31802,1.75391 3.85938,1.75391 1.23726,0 2.35808,-0.45253 3.25,-1.17578 0.59182,0.8853 1.59942,1.46875 2.74414,1.46875 1.82257,0 3.30078,-1.47578 3.30078,-3.29883 0,-1.82307 -1.47821,-3.30078 -3.30078,-3.30078 -0.31404,0 -0.61264,0.0567 -0.90039,0.13867 -0.44986,-2.34671 -2.48149,-4.12772 -4.94141,-4.19922 3e-5,-0.007 0.002,-0.0142 0.002,-0.0215 0,-2.86481 -2.32347,-5.1875 -5.1875,-5.1875 -0.14215,0 -0.28263,0.0103 -0.42188,0.0215 -0.58158,-2.22936 -2.60286,-3.87695 -5.01367,-3.87695 z"
       style="fill:#000000;fill-opacity:0.11764706;stroke:none" />
    <path
       style="fill:#000000;fill-opacity:0.23529412;stroke:none"
       d="m 406.80776,514.19801 c -1.9798,0 -3.68103,1.12248 -4.55469,2.75391 -0.44883,-0.29913 -0.9868,-0.47461 -1.56641,-0.47461 -1.56218,0 -2.82812,1.26553 -2.82812,2.82812 0,0.67188 0.2437,1.28035 0.63477,1.76563 -0.91511,0.59649 -1.62877,1.47144 -2.02149,2.50781 -0.23448,-0.0324 -0.47147,-0.0547 -0.71484,-0.0547 -2.86403,0 -5.18555,2.32268 -5.18555,5.1875 0,2.8648 2.32152,5.18555 5.18555,5.18555 1.02313,0 1.97138,-0.30486 2.77539,-0.81641 0.60441,0.67994 1.47578,1.11719 2.45703,1.11719 1.33665,0 2.4808,-0.7985 3,-1.94141 1.2232,1.01213 2.79227,1.6211 4.50391,1.6211 1.91495,0 3.64965,-0.76545 4.92382,-2.00196 0.94977,1.06775 2.31802,1.75391 3.85938,1.75391 1.23726,0 2.35808,-0.45253 3.25,-1.17578 0.59182,0.8853 1.59942,1.46875 2.74414,1.46875 1.82257,0 3.30078,-1.47578 3.30078,-3.29883 0,-1.82307 -1.47821,-3.30078 -3.30078,-3.30078 -0.31404,0 -0.61264,0.0567 -0.90039,0.13867 -0.44986,-2.34671 -2.48149,-4.12772 -4.94141,-4.19922 3e-5,-0.007 0.002,-0.0142 0.002,-0.0215 0,-2.86481 -2.32347,-5.1875 -5.1875,-5.1875 -0.14215,0 -0.28263,0.0103 -0.42188,0.0215 -0.58158,-2.22936 -2.60286,-3.87695 -5.01367,-3.87695 z"
       id="path4675"
       inkscape:connector-curvature="0" />
    <path
       style="fill:url(#linearGradient4371);fill-opacity:1;stroke:none"
       inkscape:connector-curvature="0"
       d="m 426.57144,530.22283 c 0,1.82305 -1.47905,3.30071 -3.30162,3.30071 -1.82256,0 -3.29983,-1.47766 -3.29983,-3.30071 0,-1.82307 1.47726,-3.30074 3.29983,-3.30074 1.82257,0 3.30162,1.47767 3.30162,3.30074 z"
       id="path4217" />
    <path
       style="fill:url(#linearGradient4363);fill-opacity:1;stroke:none"
       inkscape:connector-curvature="0"
       d="m 403.51689,518.90566 c 0,1.56258 -1.26777,2.82919 -2.83,2.82919 -1.56218,0 -2.82839,-1.26661 -2.82839,-2.82919 0,-1.56259 1.26621,-2.8292 2.82839,-2.8292 1.56223,0 2.83,1.26661 2.83,2.8292 z"
       id="path4201" />
    <path
       id="path4219"
       d="m 425.62837,530.22283 c 0,1.30217 -1.05644,2.35765 -2.35831,2.35765 -1.30181,0 -2.35701,-1.05548 -2.35701,-2.35765 0,-1.3022 1.0552,-2.35767 2.35701,-2.35767 1.30186,0 2.35831,1.05547 2.35831,2.35767 z"
       inkscape:connector-curvature="0"
       style="fill:url(#linearGradient4398);fill-opacity:1;stroke:none" />
    <path
       style="fill:#1e2022;fill-opacity:0.3137255;stroke:none"
       d="m 398.79799,518.50503 c -0.0274,0.12965 -0.043,0.26259 -0.043,0.40039 0,0.61165 0.28933,1.15007 0.73243,1.50391 0.36586,-0.17552 0.75809,-0.30613 1.17382,-0.3711 -0.91856,-0.0121 -1.68067,-0.66618 -1.86328,-1.5332 z"
       id="path4734" />
    <path
       style="fill:#1e2022;fill-opacity:0.3137255;stroke:none"
       d="m 402.56166,518.50503 c -0.15697,0.73936 -0.72121,1.32655 -1.45898,1.48828 0.0721,-0.004 0.13979,-0.0215 0.21289,-0.0215 0.30427,0 0.59679,0.0393 0.88086,0.10351 0.19144,-0.24848 0.33971,-0.53352 0.39258,-0.85742 0.0196,0.35553 0.082,0.69863 0.18164,1.02539 0.1563,0.0593 0.30913,0.1279 0.45703,0.20313 -0.34427,-0.5446 -0.55259,-1.17494 -0.61719,-1.84961 -0.002,0.0261 -0.0117,0.05 -0.0137,0.0762 -0.007,-0.0577 -0.0232,-0.11191 -0.0352,-0.16797 z"
       id="path4732" />
    <path
       style="fill:#1e2022;fill-opacity:0.3137255;stroke:none"
       d="m 416.45229,522.48941 c -0.0272,0.21135 -0.0659,0.41994 -0.11914,0.62304 0.0444,-0.0101 0.09,-0.0164 0.13476,-0.0254 0.006,-0.0823 0.0195,-0.16191 0.0195,-0.24609 0,-0.1204 -0.0253,-0.2337 -0.0352,-0.35156 z"
       id="path4730" />
    <path
       style="fill:#1e2022;fill-opacity:0.3137255;stroke:none"
       d="m 421.48159,527.64175 c -0.0121,0.0991 -0.0131,0.20112 -0.0293,0.29883 0.0163,-0.02 0.0378,-0.0353 0.0547,-0.0547 -0.003,-0.0829 -0.0176,-0.16252 -0.0254,-0.24414 z"
       id="path4728" />
    <path
       id="path4203"
       d="m 402.62097,518.90566 c 0,1.06775 -0.8663,1.93327 -1.93384,1.93327 -1.06747,0 -1.93272,-0.86552 -1.93272,-1.93327 0,-1.06776 0.86525,-1.93329 1.93272,-1.93329 1.06754,0 1.93384,0.86553 1.93384,1.93329 z"
       inkscape:connector-curvature="0"
       style="fill:url(#linearGradient4390);fill-opacity:1;stroke:none" />
    <path
       id="path4197"
       d="m 406.5045,525.01369 c 0,2.8648 -2.32422,5.18684 -5.18825,5.18684 -2.86403,0 -5.18545,-2.32204 -5.18545,-5.18684 0,-2.86481 2.32142,-5.18686 5.18545,-5.18686 2.86403,0 5.18825,2.32205 5.18825,5.18686 z"
       inkscape:connector-curvature="0"
       style="fill:url(#linearGradient4361);fill-opacity:1;stroke:none" />
    <path
       style="fill:url(#linearGradient4388);fill-opacity:1;stroke:none"
       inkscape:connector-curvature="0"
       d="m 405.56144,525.01369 c 0,2.34392 -1.90162,4.24378 -4.24496,4.24378 -2.34328,0 -4.24262,-1.89985 -4.24262,-4.24378 0,-2.34394 1.89934,-4.2438 4.24262,-4.2438 2.34334,0 4.24496,1.89986 4.24496,4.2438 z"
       id="path4199" />
    <path
       style="fill:url(#linearGradient4367);fill-opacity:1;stroke:none"
       inkscape:connector-curvature="0"
       d="m 417.43117,522.84014 c 0,2.86482 -2.32422,5.18685 -5.18826,5.18685 -2.86402,0 -5.18544,-2.32203 -5.18544,-5.18685 0,-2.86481 2.32142,-5.18686 5.18544,-5.18686 2.86404,0 5.18826,2.32205 5.18826,5.18686 z"
       id="path4209" />
    <path
       id="path4211"
       d="m 416.48811,522.84014 c 0,2.34391 -1.90162,4.24378 -4.24495,4.24378 -2.34329,0 -4.24263,-1.89984 -4.24263,-4.24378 0,-2.34393 1.89934,-4.24379 4.24263,-4.24379 2.34333,0 4.24495,1.89986 4.24495,4.24379 z"
       inkscape:connector-curvature="0"
       style="fill:url(#linearGradient4394);fill-opacity:1;stroke:none" />
    <path
       id="path4205"
       d="m 411.99547,518.98486 c 0,2.86481 -2.32422,5.18684 -5.18825,5.18684 -2.86404,0 -5.18545,-2.32203 -5.18545,-5.18684 0,-2.86481 2.32141,-5.18686 5.18545,-5.18686 2.86403,0 5.18825,2.32205 5.18825,5.18686 z"
       inkscape:connector-curvature="0"
       style="fill:url(#linearGradient4365);fill-opacity:1;stroke:none" />
    <path
       style="fill:url(#linearGradient4392);fill-opacity:1;stroke:none"
       inkscape:connector-curvature="0"
       d="m 411.05241,518.98486 c 0,2.34392 -1.90163,4.24378 -4.24496,4.24378 -2.34328,0 -4.24262,-1.89984 -4.24262,-4.24378 0,-2.34394 1.89934,-4.2438 4.24262,-4.2438 2.34333,0 4.24496,1.89986 4.24496,4.2438 z"
       id="path4207" />
    <path
       style="fill:#1e2022;fill-opacity:0.3137255;stroke:none"
       d="M 36.146484 30.59375 C 36.199713 30.516051 36.295551 30.477714 36.34375 30.396484 C 36.34363 30.406484 36.341797 30.415781 36.341797 30.425781 C 36.341797 31.727951 37.397409 32.783203 38.699219 32.783203 C 40.001089 32.783203 41.056641 31.727951 41.056641 30.425781 C 41.056641 30.289131 41.037925 30.157664 41.015625 30.027344 C 40.824535 31.137584 39.863809 31.984375 38.699219 31.984375 C 37.561409 31.984375 36.73686 31.119411 36.515625 30.046875 C 36.419856 30.248186 36.271511 30.411421 36.146484 30.59375 z "
       id="path4745"
       transform="translate(384.57143,499.798)" />
    <path
       id="path4213"
       d="m 422.46532,528.04192 c 0,2.86481 -2.32422,5.18684 -5.18825,5.18684 -2.86403,0 -5.18545,-2.32203 -5.18545,-5.18684 0,-2.86482 2.32142,-5.18687 5.18545,-5.18687 2.86403,0 5.18825,2.32205 5.18825,5.18687 z"
       inkscape:connector-curvature="0"
       style="fill:url(#linearGradient4369);fill-opacity:1;stroke:none" />
    <path
       style="fill:url(#linearGradient4396);fill-opacity:1;stroke:none"
       inkscape:connector-curvature="0"
       d="m 421.52226,528.04192 c 0,2.34391 -1.90162,4.24377 -4.24495,4.24377 -2.34329,0 -4.24263,-1.89984 -4.24263,-4.24377 0,-2.34394 1.89934,-4.2438 4.24263,-4.2438 2.34333,0 4.24495,1.89986 4.24495,4.2438 z"
       id="path4215" />
    <path
       style="fill:#1e2022;fill-opacity:0.3137255;stroke:none"
       d="M 28.720703 29.521484 C 28.759278 29.641673 28.748145 29.781234 28.796875 29.896484 C 28.858201 30.041525 28.980181 30.144982 29.056641 30.28125 C 29.355515 30.814363 29.773788 31.2587 30.261719 31.619141 C 30.396403 31.716916 30.52785 31.816769 30.673828 31.898438 C 31.280962 32.240991 31.956257 32.488281 32.705078 32.488281 C 33.414251 32.488281 34.060116 32.270762 34.644531 31.960938 C 34.793442 31.882841 34.920747 31.776243 35.058594 31.681641 C 35.483407 31.384878 35.852935 31.022246 36.146484 30.59375 C 36.271511 30.411421 36.419856 30.248186 36.515625 30.046875 C 36.483737 29.892283 36.341797 29.790999 36.341797 29.626953 C 36.341797 29.616953 36.34375 29.607656 36.34375 29.597656 C 35.60406 30.844246 34.259178 31.689453 32.705078 31.689453 C 31.045968 31.689453 29.625174 30.727924 28.927734 29.339844 C 28.874187 29.415524 28.777526 29.448377 28.720703 29.521484 z "
       id="path4700"
       transform="translate(384.57143,499.798)" />
    <path
       id="path4187"
       d="m 415.56843,526.4043 c 0,3.90655 -3.16939,7.07297 -7.07488,7.07297 -3.90551,0 -7.07108,-3.16642 -7.07108,-7.07297 0,-3.90655 3.16558,-7.07299 7.07108,-7.07299 3.90549,0 7.07488,3.16644 7.07488,7.07299 z"
       inkscape:connector-curvature="0"
       style="fill:url(#linearGradient4355);fill-opacity:1;stroke:none" />
    <path
       style="fill:url(#linearGradient4382);fill-opacity:1;stroke:none"
       inkscape:connector-curvature="0"
       d="m 414.62537,526.4043 c 0,3.38567 -2.74681,6.12991 -6.13157,6.12991 -3.38476,0 -6.12826,-2.74424 -6.12826,-6.12991 0,-3.38567 2.7435,-6.12992 6.12826,-6.12992 3.38476,0 6.13157,2.74425 6.13157,6.12992 z"
       id="path4160" />
    <path
       style="fill:#1e2022;fill-opacity:0.3137255;stroke:none"
       d="M 28.720703 29.521484 C 27.598903 30.96476 25.890573 31.9375 23.921875 31.9375 C 21.442725 31.9375 19.312716 30.4619 18.347656 28.34375 C 18.303956 28.36165 18.255358 28.368366 18.210938 28.384766 C 18.558648 28.795466 18.775391 29.320191 18.775391 29.900391 C 18.775391 29.907391 18.773438 29.913222 18.773438 29.919922 C 19.863257 31.612182 21.759615 32.736328 23.921875 32.736328 C 25.990305 32.736328 27.817054 31.708432 28.927734 30.138672 C 28.957109 30.197134 29.024736 30.224341 29.056641 30.28125 C 28.980181 30.144982 28.858201 30.041525 28.796875 29.896484 C 28.748145 29.781234 28.759278 29.641673 28.720703 29.521484 z "
       id="path4743"
       transform="translate(384.57143,499.798)" />
    <path
       style="fill:#1e2022;fill-opacity:0.3137255;stroke:none"
       d="m 391.55581,527.91128 c -0.0127,0.13383 -0.041,0.26323 -0.041,0.40039 0,2.34393 1.89891,4.24219 4.24219,4.24219 1.18263,0 2.25152,-0.48496 3.02148,-1.26563 0.32608,0.91102 1.18799,1.56641 2.21094,1.56641 1.30185,0 2.35742,-1.05524 2.35742,-2.35742 0,-0.14439 -0.0135,-0.28526 -0.0391,-0.42188 -0.18161,1.12155 -1.14577,1.98047 -2.31836,1.98047 -1.02295,0 -1.88486,-0.65538 -2.21094,-1.5664 -0.76996,0.78067 -1.83885,1.26562 -3.02148,1.26562 -2.20652,0 -3.99712,-1.69027 -4.20117,-3.84375 z"
       id="path4726" />
    <path
       style="fill:url(#linearGradient4357);fill-opacity:1;stroke:none"
       inkscape:connector-curvature="0"
       d="m 400.94515,528.31084 c 0,2.8648 -2.32422,5.18684 -5.18826,5.18684 -2.86403,0 -5.18545,-2.32204 -5.18545,-5.18684 0,-2.86482 2.32142,-5.18686 5.18545,-5.18686 2.86404,0 5.18826,2.32204 5.18826,5.18686 z"
       id="path4189" />
    <path
       id="path4191"
       d="m 400.00208,528.31084 c 0,2.34391 -1.90162,4.24378 -4.24495,4.24378 -2.34328,0 -4.24262,-1.89985 -4.24262,-4.24378 0,-2.34395 1.89934,-4.2438 4.24262,-4.2438 2.34334,0 4.24495,1.89985 4.24495,4.2438 z"
       inkscape:connector-curvature="0"
       style="fill:url(#linearGradient4384);fill-opacity:1;stroke:none" />
    <path
       id="path4193"
       d="m 404.2905,530.49728 c 0,1.82306 -1.47904,3.30072 -3.30162,3.30072 -1.82257,0 -3.29983,-1.47766 -3.29983,-3.30072 0,-1.82307 1.47726,-3.30073 3.29983,-3.30073 1.82258,0 3.30162,1.47766 3.30162,3.30073 z"
       inkscape:connector-curvature="0"
       style="fill:url(#linearGradient4359);fill-opacity:1;stroke:none" />
    <path
       style="fill:url(#linearGradient4386);fill-opacity:1;stroke:none"
       inkscape:connector-curvature="0"
       d="m 403.34744,530.49728 c 0,1.30218 -1.05646,2.35766 -2.35831,2.35766 -1.30182,0 -2.35701,-1.05548 -2.35701,-2.35766 0,-1.3022 1.05519,-2.35766 2.35701,-2.35766 1.30185,0 2.35831,1.05546 2.35831,2.35766 z"
       id="path4195" />
  </g>
</svg>
