<?xml version="1.0" encoding="UTF-8" standalone="no"?>
<!-- Created with Inkscape (http://www.inkscape.org/) -->

<svg
   xmlns:dc="http://purl.org/dc/elements/1.1/"
   xmlns:cc="http://creativecommons.org/ns#"
   xmlns:rdf="http://www.w3.org/1999/02/22-rdf-syntax-ns#"
   xmlns:svg="http://www.w3.org/2000/svg"
   xmlns="http://www.w3.org/2000/svg"
   xmlns:xlink="http://www.w3.org/1999/xlink"
   xmlns:sodipodi="http://sodipodi.sourceforge.net/DTD/sodipodi-0.dtd"
   xmlns:inkscape="http://www.inkscape.org/namespaces/inkscape"
   width="48"
   height="48"
   id="svg5453"
   version="1.1"
   inkscape:version="0.49 r12742"
   sodipodi:docname="credentials-preferences.svg">
  <defs
     id="defs5455">
    <linearGradient
       id="linearGradient4165"
       inkscape:collect="always">
      <stop
         id="stop4167"
         offset="0"
         style="stop-color:#1a232a;stop-opacity:1" />
      <stop
         id="stop4169"
         offset="1"
         style="stop-color:#8ea0b2;stop-opacity:1" />
    </linearGradient>
    <linearGradient
       inkscape:collect="always"
       id="linearGradient4592">
      <stop
         style="stop-color:#d6dce2;stop-opacity:1"
         offset="0"
         id="stop4594" />
      <stop
         style="stop-color:#f9fafb;stop-opacity:1"
         offset="1"
         id="stop4596" />
    </linearGradient>
    <linearGradient
       inkscape:collect="always"
       xlink:href="#linearGradient6390"
       id="linearGradient4598"
       x1="427.05035"
       y1="-572.62469"
       x2="427.05035"
       y2="-460.90549"
       gradientUnits="userSpaceOnUse" />
    <linearGradient
       inkscape:collect="always"
       xlink:href="#linearGradient4592"
       id="linearGradient4093"
       x1="413.70792"
       y1="538.64093"
       x2="413.70792"
       y2="508.7937"
       gradientUnits="userSpaceOnUse" />
    <linearGradient
       id="linearGradient6390"
       inkscape:collect="always">
      <stop
         id="stop6392"
         offset="0"
         style="stop-color:#ffffff;stop-opacity:1" />
      <stop
         style="stop-color:#29282b;stop-opacity:1"
         offset="0.16451773"
         id="stop6414" />
      <stop
         id="stop6416"
         offset="0.26065826"
         style="stop-color:#868c95;stop-opacity:1" />
      <stop
         style="stop-color:#92979f;stop-opacity:1"
         offset="0.39485914"
         id="stop6418" />
      <stop
         id="stop6420"
         offset="0.54328567"
         style="stop-color:#737881;stop-opacity:1" />
      <stop
         style="stop-color:#70757e;stop-opacity:1"
         offset="0.62599665"
         id="stop6422" />
      <stop
         id="stop6424"
         offset="0.72117096"
         style="stop-color:#e4e6e8;stop-opacity:1" />
      <stop
         style="stop-color:#ffffff;stop-opacity:1"
         offset="0.79481769"
         id="stop6426" />
      <stop
         id="stop6394"
         offset="1"
         style="stop-color:#1d191a;stop-opacity:1" />
    </linearGradient>
    <linearGradient
       inkscape:collect="always"
       xlink:href="#linearGradient4165"
       id="linearGradient4163"
       gradientUnits="userSpaceOnUse"
       x1="418.56787"
       y1="-547.77661"
       x2="418.56787"
       y2="-499.76947"
       gradientTransform="translate(-2.1244141e-5,0)" />
  </defs>
  <sodipodi:namedview
     id="base"
     pagecolor="#ffffff"
     bordercolor="#666666"
     borderopacity="1.0"
     inkscape:pageopacity="0"
     inkscape:pageshadow="2"
     inkscape:zoom="3.0991164"
     inkscape:cx="-25.262695"
     inkscape:cy="32.836543"
     inkscape:document-units="px"
     inkscape:current-layer="layer1"
     showgrid="false"
     fit-margin-top="0"
     fit-margin-left="0"
     fit-margin-right="0"
     fit-margin-bottom="0"
     inkscape:window-width="1366"
     inkscape:window-height="718"
     inkscape:window-x="0"
     inkscape:window-y="23"
     inkscape:window-maximized="1" />
  <metadata
     id="metadata5458">
    <rdf:RDF>
      <cc:Work
         rdf:about="">
        <dc:format>image/svg+xml</dc:format>
        <dc:type
           rdf:resource="http://purl.org/dc/dcmitype/StillImage" />
        <dc:title />
      </cc:Work>
    </rdf:RDF>
  </metadata>
  <g
     inkscape:label="Capa 1"
     inkscape:groupmode="layer"
     id="layer1"
     transform="translate(-384.57143,-499.798)">
    <rect
       style="fill:url(#linearGradient4598);fill-opacity:1;stroke:none"
       id="rect2991-1-7"
       width="48"
       height="48"
       x="384.57144"
       y="-547.79797"
       ry="1.9445436"
       transform="scale(1,-1)" />
    <rect
       transform="scale(1,-1)"
       ry="1.9445436"
       y="-547.79797"
       x="384.57144"
       height="48"
       width="48"
       id="rect4161"
       style="opacity:0.5;fill:url(#linearGradient4163);fill-opacity:1;stroke:none" />
    <path
       inkscape:connector-curvature="0"
       id="path4175"
       d="m 413.57143,509.998 c -2.988,0 -5.56641,1.66561 -6.94141,4.09961 -0.352,-0.047 -0.70359,-0.0996 -1.05859,-0.0996 -3.03516,0 -5.67551,1.70255 -7.0293,4.20117 1.49109,-0.83424 3.19722,-1.32617 5.0293,-1.32617 3.8404,0 7.22308,2.16113 9.05273,5.39648 0.47775,-0.0657 0.94982,-0.14648 1.44727,-0.14648 4.7289,0 8.73741,3.1447 10.04688,7.45312 3.16414,-1.06656 5.45312,-4.05609 5.45312,-7.57812 0,-4.412 -3.59,-8 -8,-8 -0.379,0 -0.73756,0.0613 -1.10156,0.11133 -1.394,-2.465 -3.97244,-4.11133 -6.89844,-4.11133 z m -10,10 c -2.988,0 -5.56641,1.66561 -6.94141,4.09961 -0.352,-0.047 -0.70359,-0.0996 -1.05859,-0.0996 -4.41,0 -8,3.588 -8,8 0,4.414 3.59,8 8,8 l 16,0 c 4.41,0 8,-3.586 8,-8 0,-4.412 -3.59,-8 -8,-8 -0.379,0 -0.73756,0.0613 -1.10156,0.11133 -1.394,-2.465 -3.97244,-4.11133 -6.89844,-4.11133 z"
       style="fill:#000000;fill-opacity:0.11764706" />
    <path
       inkscape:connector-curvature="0"
       style="fill:#000000;fill-opacity:1;stroke:none"
       d="m 384.57143,544.79799 0,1.0625 c 0,1.0773 0.86022,1.9375 1.9375,1.9375 l 44.125,0 c 1.07728,0 1.9375,-0.8602 1.9375,-1.9375 l 0,-1.0625 c 0,1.0773 -0.86022,1.9375 -1.9375,1.9375 l -44.125,0 C 385.43165,546.73549 384.57143,545.87529 384.57143,544.79799 Z"
       id="rect846" />
    <path
       inkscape:connector-curvature="0"
       style="fill:#ffffff;fill-opacity:0.5372549;stroke:none"
       d="m 387.10268,500.45429 c -0.91709,0 -1.67115,0.6395 -1.84375,1.5 0.33561,-0.2799 0.77451,-0.4375 1.25,-0.4375 l 44.125,0 c 0.47549,0 0.91439,0.1576 1.25,0.4375 -0.1726,-0.8605 -0.92666,-1.5 -1.84375,-1.5 L 387.10268,500.45429 Z"
       id="path7515" />
    <path
       inkscape:connector-curvature="0"
       style="fill:#000000;fill-opacity:0.39215686;stroke:none"
       d="m 386.50893,499.79799 c -1.07728,0 -1.9375,0.8602 -1.9375,1.9375 l 0,43.0625 c 0,0.7934 0.48002,1.449 1.15625,1.75 -0.30934,-0.3333 -0.5,-0.7824 -0.5,-1.2812 l 0,-42.9375 c 0,-1.0482 0.8269,-1.875 1.875,-1.875 l 42.9375,0 c 1.0481,0 1.875,0.8268 1.875,1.875 l 0,42.9375 c 0,0.4988 -0.19066,0.9479 -0.5,1.2812 0.67623,-0.301 1.15625,-0.9566 1.15625,-1.75 l 0,-43.0625 c 0,-1.0773 -0.86022,-1.9375 -1.9375,-1.9375 L 386.50893,499.79799 Z"
       id="rect4280" />
    <path
       style="fill:#000000;fill-opacity:0.11764706"
       d="m 413.57143,509.598 c -2.988,0 -5.56641,1.66561 -6.94141,4.09961 -0.352,-0.047 -0.70359,-0.0996 -1.05859,-0.0996 -3.03516,0 -5.67551,1.70255 -7.0293,4.20117 1.49109,-0.83424 3.19722,-1.32617 5.0293,-1.32617 3.8404,0 7.22308,2.16113 9.05273,5.39648 0.47775,-0.0657 0.94982,-0.14648 1.44727,-0.14648 4.7289,0 8.73741,3.1447 10.04688,7.45312 3.16414,-1.06656 5.45312,-4.05609 5.45312,-7.57812 0,-4.412 -3.59,-8 -8,-8 -0.379,0 -0.73756,0.0613 -1.10156,0.11133 -1.394,-2.465 -3.97244,-4.11133 -6.89844,-4.11133 z m -10,10 c -2.988,0 -5.56641,1.66561 -6.94141,4.09961 -0.352,-0.047 -0.70359,-0.0996 -1.05859,-0.0996 -4.41,0 -8,3.588 -8,8 0,4.414 3.59,8 8,8 l 16,0 c 4.41,0 8,-3.586 8,-8 0,-4.412 -3.59,-8 -8,-8 -0.379,0 -0.73756,0.0613 -1.10156,0.11133 -1.394,-2.465 -3.97244,-4.11133 -6.89844,-4.11133 z"
       id="path4173"
       inkscape:connector-curvature="0" />
    <path
       inkscape:connector-curvature="0"
       id="path4171"
       d="m 413.57143,509.198 c -2.988,0 -5.56641,1.66561 -6.94141,4.09961 -0.352,-0.047 -0.70359,-0.0996 -1.05859,-0.0996 -3.03516,0 -5.67551,1.70255 -7.0293,4.20117 1.49109,-0.83424 3.19722,-1.32617 5.0293,-1.32617 3.8404,0 7.22308,2.16113 9.05273,5.39648 0.47775,-0.0657 0.94982,-0.14648 1.44727,-0.14648 4.7289,0 8.73741,3.1447 10.04688,7.45312 3.16414,-1.06656 5.45312,-4.05609 5.45312,-7.57812 0,-4.412 -3.59,-8 -8,-8 -0.379,0 -0.73756,0.0613 -1.10156,0.11133 -1.394,-2.465 -3.97244,-4.11133 -6.89844,-4.11133 z m -10,10 c -2.988,0 -5.56641,1.66561 -6.94141,4.09961 -0.352,-0.047 -0.70359,-0.0996 -1.05859,-0.0996 -4.41,0 -8,3.588 -8,8 0,4.414 3.59,8 8,8 l 16,0 c 4.41,0 8,-3.586 8,-8 0,-4.412 -3.59,-8 -8,-8 -0.379,0 -0.73756,0.0613 -1.10156,0.11133 -1.394,-2.465 -3.97244,-4.11133 -6.89844,-4.11133 z"
       style="fill:#000000;fill-opacity:0.23529412" />
    <path
       style="fill:url(#linearGradient4093);fill-opacity:1"
       d="m 413.57143,508.798 c -2.988,0 -5.56641,1.66561 -6.94141,4.09961 -0.352,-0.047 -0.70359,-0.0996 -1.05859,-0.0996 -3.03516,0 -5.67551,1.70255 -7.0293,4.20117 1.49109,-0.83424 3.19722,-1.32617 5.0293,-1.32617 3.8404,0 7.22308,2.16113 9.05273,5.39648 0.47775,-0.0657 0.94982,-0.14648 1.44727,-0.14648 4.7289,0 8.73741,3.1447 10.04688,7.45312 3.16414,-1.06656 5.45312,-4.05609 5.45312,-7.57812 0,-4.412 -3.59,-8 -8,-8 -0.379,0 -0.73756,0.0613 -1.10156,0.11133 -1.394,-2.465 -3.97244,-4.11133 -6.89844,-4.11133 z m -10,10 c -2.988,0 -5.56641,1.66561 -6.94141,4.09961 -0.352,-0.047 -0.70359,-0.0996 -1.05859,-0.0996 -4.41,0 -8,3.588 -8,8 0,4.414 3.59,8 8,8 l 16,0 c 4.41,0 8,-3.586 8,-8 0,-4.412 -3.59,-8 -8,-8 -0.379,0 -0.73756,0.0613 -1.10156,0.11133 -1.394,-2.465 -3.97244,-4.11133 -6.89844,-4.11133 z"
       id="path4072"
       inkscape:connector-curvature="0" />
    <path
       style="fill:#444e57;fill-opacity:0.3137255"
       d="M 19 15.074219 C 17.488411 15.074219 16.071324 15.424051 14.78125 16.009766 C 14.480892 16.384267 14.200993 16.776138 13.970703 17.201172 C 15.461793 16.366932 17.16792 15.875 19 15.875 C 22.8404 15.875 26.223084 18.036134 28.052734 21.271484 C 28.530484 21.205784 29.00255 21.125 29.5 21.125 C 34.2289 21.125 38.237405 24.269705 39.546875 28.578125 C 42.711015 27.511565 45 24.52203 45 21 C 45 20.877309 44.987915 20.758076 44.982422 20.636719 C 44.801477 23.966598 42.578791 26.755353 39.546875 27.777344 C 38.237405 23.468924 34.2289 20.324219 29.5 20.324219 C 29.00255 20.324219 28.530484 20.405003 28.052734 20.470703 C 26.223084 17.235353 22.8404 15.074219 19 15.074219 z M 3.0195312 30.599609 C 3.0128661 30.733208 3 30.864774 3 31 C 3 35.414 6.59 39 11 39 L 27 39 C 31.41 39 35 35.414 35 31 C 35 30.864774 34.987134 30.733208 34.980469 30.599609 C 34.770151 34.827057 31.275157 38.199219 27 38.199219 L 11 38.199219 C 6.7248433 38.199219 3.2298486 34.827057 3.0195312 30.599609 z "
       transform="translate(384.57143,499.798)"
       id="path4177" />
    <path
       style="fill:#ffffff;fill-opacity:0.23529412"
       d="M 29 9 C 26.012 9 23.433594 10.665609 22.058594 13.099609 C 21.706594 13.052609 21.355 13 21 13 C 17.96484 13 15.324493 14.702552 13.970703 17.201172 C 14.087699 17.135715 14.214384 17.086561 14.333984 17.025391 C 15.763715 14.849836 18.208156 13.400391 21 13.400391 C 21.355 13.400391 21.706594 13.453 22.058594 13.5 C 23.433594 11.066 26.012 9.4003906 29 9.4003906 C 31.926 9.4003906 34.504437 11.046719 35.898438 13.511719 C 36.262438 13.461689 36.621 13.400391 37 13.400391 C 41.348666 13.400391 44.892292 16.891241 44.990234 21.21875 C 44.992221 21.145624 45 21.073603 45 21 C 45 16.588 41.41 13 37 13 C 36.621 13 36.262438 13.061298 35.898438 13.111328 C 34.504437 10.646328 31.926 9 29 9 z M 19 19 C 16.012 19 13.433594 20.665609 12.058594 23.099609 C 11.706594 23.052609 11.355 23 11 23 C 6.59 23 3 26.588 3 31 C 3 31.067315 3.0081056 31.132299 3.0097656 31.199219 C 3.1179839 26.880794 6.6579114 23.400391 11 23.400391 C 11.355 23.400391 11.706594 23.453 12.058594 23.5 C 13.433594 21.066 16.012 19.400391 19 19.400391 C 21.926 19.400391 24.504437 21.046719 25.898438 23.511719 C 26.262438 23.461689 26.621 23.400391 27 23.400391 C 31.342089 23.400391 34.882016 26.880794 34.990234 31.199219 C 34.991894 31.132299 35 31.067315 35 31 C 35 26.588 31.41 23 27 23 C 26.621 23 26.262438 23.061298 25.898438 23.111328 C 24.504437 20.646328 21.926 19 19 19 z "
       transform="translate(384.57143,499.798)"
       id="path4182" />
  </g>
</svg>
