<?xml version="1.0" encoding="UTF-8" standalone="no"?>
<!-- Created with Inkscape (http://www.inkscape.org/) -->

<svg
   xmlns:dc="http://purl.org/dc/elements/1.1/"
   xmlns:cc="http://creativecommons.org/ns#"
   xmlns:rdf="http://www.w3.org/1999/02/22-rdf-syntax-ns#"
   xmlns:svg="http://www.w3.org/2000/svg"
   xmlns="http://www.w3.org/2000/svg"
   xmlns:xlink="http://www.w3.org/1999/xlink"
   xmlns:sodipodi="http://sodipodi.sourceforge.net/DTD/sodipodi-0.dtd"
   xmlns:inkscape="http://www.inkscape.org/namespaces/inkscape"
   width="48"
   height="48"
   id="svg2"
   version="1.1"
   inkscape:version="0.48+devel r12923"
   sodipodi:docname="google-calendar.svg"
   inkscape:export-filename="/home/uri/workspace/NitruxforAndroid/res/drawable-xhdpi/calendar.png"
   inkscape:export-xdpi="180"
   inkscape:export-ydpi="180">
  <defs
     id="defs4">
    <linearGradient
       id="linearGradient4204">
      <stop
         id="stop4206"
         offset="0"
         style="stop-color:#bfd7f9;stop-opacity:1" />
      <stop
         id="stop4208"
         offset="1"
         style="stop-color:#f6f9fe;stop-opacity:1" />
    </linearGradient>
    <linearGradient
       id="linearGradient974">
      <stop
         style="stop-color:#1565d3;stop-opacity:1"
         offset="0"
         id="stop976" />
      <stop
         style="stop-color:#408cf4;stop-opacity:1"
         offset="1"
         id="stop978" />
    </linearGradient>
    <linearGradient
       inkscape:collect="always"
       xlink:href="#linearGradient974"
       id="linearGradient1607"
       x1="23.999996"
       y1="-1052.3622"
       x2="23.999996"
       y2="-1004.3206"
       gradientUnits="userSpaceOnUse" />
    <linearGradient
       id="linearGradient137480"
       inkscape:collect="always">
      <stop
         id="stop137482"
         offset="0"
         style="stop-color:#5a5a5a;stop-opacity:1" />
      <stop
         id="stop137484"
         offset="1"
         style="stop-color:#101010;stop-opacity:1" />
    </linearGradient>
    <linearGradient
       id="linearGradient6194"
       spreadMethod="pad"
       gradientTransform="matrix(13.526835,20.525875,20.525875,-13.526835,19.18986,1021.0543)"
       gradientUnits="userSpaceOnUse"
       y2="0"
       x2="1"
       y1="0"
       x1="0">
      <stop
         id="stop6196"
         offset="0"
         style="stop-opacity:1;stop-color:#ffffff" />
      <stop
         id="stop6198"
         offset="0.168498"
         style="stop-opacity:1;stop-color:#29282b" />
      <stop
         id="stop6200"
         offset="0.263736"
         style="stop-opacity:1;stop-color:#868c95" />
      <stop
         id="stop6202"
         offset="0.395604"
         style="stop-opacity:1;stop-color:#92979f" />
      <stop
         id="stop6204"
         offset="0.542125"
         style="stop-opacity:1;stop-color:#737881" />
      <stop
         id="stop6206"
         offset="0.626374"
         style="stop-opacity:1;stop-color:#70757e" />
      <stop
         id="stop6208"
         offset="0.717949"
         style="stop-opacity:1;stop-color:#e4e6e8" />
      <stop
         id="stop6210"
         offset="0.791209"
         style="stop-opacity:1;stop-color:#ffffff" />
      <stop
         id="stop6212"
         offset="1"
         style="stop-opacity:1;stop-color:#1d191a" />
    </linearGradient>
    <linearGradient
       inkscape:collect="always"
       xlink:href="#linearGradient6194"
       id="linearGradient4788"
       gradientUnits="userSpaceOnUse"
       gradientTransform="translate(0.50002588,22)"
       x1="1004.3131"
       y1="-34.624512"
       x2="1012.3622"
       y2="-34.624512" />
    <linearGradient
       inkscape:collect="always"
       xlink:href="#linearGradient6194"
       id="linearGradient4792"
       gradientUnits="userSpaceOnUse"
       gradientTransform="translate(0.50002588,20)"
       x1="1004.3131"
       y1="-34.624512"
       x2="1012.3622"
       y2="-34.624512" />
    <linearGradient
       inkscape:collect="always"
       xlink:href="#linearGradient137480"
       id="linearGradient4863"
       x1="1013.4686"
       y1="-13.205674"
       x2="1011.5395"
       y2="-13.205674"
       gradientUnits="userSpaceOnUse"
       gradientTransform="matrix(1.1578948,0,0,2.6595742,-159.62034,23.577133)" />
    <linearGradient
       inkscape:collect="always"
       xlink:href="#linearGradient137480"
       id="linearGradient4178"
       gradientUnits="userSpaceOnUse"
       gradientTransform="matrix(1.1578948,0,0,2.6595742,-159.62034,23.577133)"
       x1="1013.4686"
       y1="-13.205674"
       x2="1011.5395"
       y2="-13.205674" />
    <linearGradient
       inkscape:collect="always"
       xlink:href="#linearGradient6194"
       id="linearGradient4180"
       gradientUnits="userSpaceOnUse"
       gradientTransform="translate(0.50002588,22)"
       x1="1004.3131"
       y1="-34.624512"
       x2="1012.3622"
       y2="-34.624512" />
    <linearGradient
       inkscape:collect="always"
       xlink:href="#linearGradient6194"
       id="linearGradient4182"
       gradientUnits="userSpaceOnUse"
       gradientTransform="translate(0.50002588,20)"
       x1="1004.3131"
       y1="-34.624512"
       x2="1012.3622"
       y2="-34.624512" />
    <linearGradient
       inkscape:collect="always"
       xlink:href="#linearGradient4204"
       id="linearGradient4202"
       x1="29.040869"
       y1="1041.3625"
       x2="29.040869"
       y2="1019.3546"
       gradientUnits="userSpaceOnUse" />
  </defs>
  <sodipodi:namedview
     id="base"
     pagecolor="#ffffff"
     bordercolor="#666666"
     borderopacity="1.0"
     inkscape:pageopacity="0.0"
     inkscape:pageshadow="2"
     inkscape:zoom="5.6568543"
     inkscape:cx="28.953922"
     inkscape:cy="29.375594"
     inkscape:document-units="px"
     inkscape:current-layer="layer1"
     showgrid="false"
     inkscape:window-width="1366"
     inkscape:window-height="669"
     inkscape:window-x="0"
     inkscape:window-y="26"
     inkscape:window-maximized="1">
    <inkscape:grid
       type="xygrid"
       id="grid3850" />
  </sodipodi:namedview>
  <metadata
     id="metadata7">
    <rdf:RDF>
      <cc:Work
         rdf:about="">
        <dc:format>image/svg+xml</dc:format>
        <dc:type
           rdf:resource="http://purl.org/dc/dcmitype/StillImage" />
        <dc:title></dc:title>
      </cc:Work>
    </rdf:RDF>
  </metadata>
  <g
     inkscape:label="Capa 1"
     inkscape:groupmode="layer"
     id="layer1"
     transform="translate(0,-1004.3622)">
    <rect
       style="fill:url(#linearGradient1607);fill-opacity:1;stroke:none"
       id="rect2991-1"
       width="48"
       height="48"
       x="-2.9972077e-06"
       y="-1052.3622"
       ry="1.9445436"
       transform="scale(1,-1)" />
    <path
       inkscape:connector-curvature="0"
       id="path4216"
       d="m 16.360005,1020.5622 c -1.962049,0 -3.600945,0.4817 -4.887531,1.0924 l 0,2.3489 c 1.15793,-0.5792 2.700968,-1.1257 4.630849,-1.1257 3.280804,0 5.081368,1.221 5.081368,3.4732 0,2.219 -1.704722,3.4418 -4.824686,3.4418 l -2.442875,0 0,2.2199 2.347738,0 c 3.891914,0 6.01471,1.4473 6.01471,4.1161 0,2.6701 -2.091842,4.1178 -5.887267,4.1178 -2.283696,0 -4.116213,-0.6761 -5.434968,-1.4153 l 0,2.3787 c 1.447411,0.7408 3.377722,1.3522 5.725737,1.3522 5.821794,0 7.911933,-3.2807 7.911933,-6.3691 0,-3.9559 -3.859041,-5.4994 -3.859041,-5.4994 0,0 2.765935,-1.1261 2.765935,-4.3427 0,-2.7989 -1.866913,-5.7888 -7.141902,-5.7888 z m 18.044142,0.2891 -3.955956,2.5094 0,2.734 4.279032,-2.8316 0,19.043 2.315434,0 0,-21.4548 -2.63851,0 z"
       style="font-size:35px;font-style:normal;font-variant:normal;font-weight:normal;font-stretch:normal;line-height:125%;letter-spacing:0px;word-spacing:0px;fill:#000000;fill-opacity:0.05882353;stroke:none;font-family:Maven Pro;-inkscape-font-specification:Maven Pro" />
    <path
       style="font-size:35px;font-style:normal;font-variant:normal;font-weight:normal;font-stretch:normal;line-height:125%;letter-spacing:0px;word-spacing:0px;fill:#000000;fill-opacity:0.11764706;stroke:none;font-family:Maven Pro;-inkscape-font-specification:Maven Pro"
       d="m 16.360005,1020.1622 c -1.962049,0 -3.600945,0.4817 -4.887531,1.0924 l 0,2.3489 c 1.15793,-0.5792 2.700968,-1.1257 4.630849,-1.1257 3.280804,0 5.081368,1.221 5.081368,3.4732 0,2.219 -1.704722,3.4418 -4.824686,3.4418 l -2.442875,0 0,2.2199 2.347738,0 c 3.891914,0 6.01471,1.4473 6.01471,4.1161 0,2.6701 -2.091842,4.1178 -5.887267,4.1178 -2.283696,0 -4.116213,-0.6761 -5.434968,-1.4153 l 0,2.3787 c 1.447411,0.7408 3.377722,1.3522 5.725737,1.3522 5.821794,0 7.911933,-3.2807 7.911933,-6.3691 0,-3.9559 -3.859041,-5.4994 -3.859041,-5.4994 0,0 2.765935,-1.1261 2.765935,-4.3427 0,-2.7989 -1.866913,-5.7888 -7.141902,-5.7888 z m 18.044142,0.2891 -3.955956,2.5094 0,2.734 4.279032,-2.8316 0,19.043 2.315434,0 0,-21.4548 -2.63851,0 z"
       id="path4214"
       inkscape:connector-curvature="0" />
    <path
       inkscape:connector-curvature="0"
       id="path4210"
       d="m 16.360005,1019.7622 c -1.962049,0 -3.600945,0.4817 -4.887531,1.0924 l 0,2.3489 c 1.15793,-0.5792 2.700968,-1.1257 4.630849,-1.1257 3.280804,0 5.081368,1.221 5.081368,3.4732 0,2.219 -1.704722,3.4418 -4.824686,3.4418 l -2.442875,0 0,2.2199 2.347738,0 c 3.891914,0 6.01471,1.4473 6.01471,4.1161 0,2.6701 -2.091842,4.1178 -5.887267,4.1178 -2.283696,0 -4.116213,-0.6761 -5.434968,-1.4153 l 0,2.3787 c 1.447411,0.7408 3.377722,1.3522 5.725737,1.3522 5.821794,0 7.911933,-3.2807 7.911933,-6.3691 0,-3.9559 -3.859041,-5.4994 -3.859041,-5.4994 0,0 2.765935,-1.1261 2.765935,-4.3427 0,-2.7989 -1.866913,-5.7888 -7.141902,-5.7888 z m 18.044142,0.2891 -3.955956,2.5094 0,2.734 4.279032,-2.8316 0,19.043 2.315434,0 0,-21.4548 -2.63851,0 z"
       style="font-size:35px;font-style:normal;font-variant:normal;font-weight:normal;font-stretch:normal;line-height:125%;letter-spacing:0px;word-spacing:0px;fill:#000000;fill-opacity:0.23529412;stroke:none;font-family:Maven Pro;-inkscape-font-specification:Maven Pro" />
    <path
       inkscape:connector-curvature="0"
       style="fill:#000000;fill-opacity:1;stroke:none"
       d="m -2.5027924e-6,1049.3622 0,1.0625 c 0,1.0773 0.8602230027924,1.9375 1.9375000027924,1.9375 l 44.1250005,0 c 1.077277,0 1.937505,-0.8602 1.937505,-1.9375 l 0,-1.0625 c 0,1.0773 -0.860228,1.9375 -1.937505,1.9375 l -44.1250005,0 C 0.8602205,1051.2997 -2.5027924e-6,1050.4395 -2.5027924e-6,1049.3622 Z"
       id="rect846" />
    <path
       inkscape:connector-curvature="0"
       style="fill:#ffffff;fill-opacity:0.5372549;stroke:none"
       d="m 2.5312475,1005.0185 c -0.917088,0 -1.671147,0.6395 -1.84375,1.5 0.335612,-0.2799 0.774512,-0.4375 1.25,-0.4375 l 44.1250005,0 c 0.475488,0 0.914388,0.1576 1.250005,0.4375 -0.172608,-0.8605 -0.926667,-1.5 -1.843755,-1.5 L 2.5312475,1005.0185 Z"
       id="path7515" />
    <path
       inkscape:connector-curvature="0"
       style="fill:#000000;fill-opacity:0.39215686;stroke:none"
       d="m 1.9374975,1004.3622 c -1.077277,0 -1.9375000027924,0.8602 -1.9375000027924,1.9375 l 0,43.0625 c 0,0.7934 0.4800240027924,1.449 1.1562500027924,1.75 -0.309342,-0.3333 -0.5,-0.7824 -0.5,-1.2812 l 0,-42.9375 c 0,-1.0482 0.826899,-1.875 1.875,-1.875 l 42.9375005,0 c 1.048101,0 1.875005,0.8268 1.875005,1.875 l 0,42.9375 c 0,0.4988 -0.190663,0.9479 -0.500005,1.2812 0.676225,-0.301 1.156255,-0.9566 1.156255,-1.75 l 0,-43.0625 c 0,-1.0773 -0.860228,-1.9375 -1.937505,-1.9375 L 1.9374975,1004.3622 Z"
       id="rect4280-0" />
    <g
       id="g4138"
       transform="translate(-4.5000029,-0.49995135)">
      <rect
         style="font-size:24px;font-style:normal;font-variant:normal;font-weight:normal;font-stretch:normal;line-height:125%;letter-spacing:-0.03px;word-spacing:0px;fill:url(#linearGradient4863);fill-opacity:1;stroke:none;font-family:Derivia;-inkscape-font-specification:Derivia"
         id="rect4855"
         width="2.2"
         height="5"
         x="1011.6622"
         y="-12.5"
         ry="0.2596879"
         transform="matrix(0,1,-1,0,0,0)" />
      <rect
         style="font-size:24px;font-style:normal;font-variant:normal;font-weight:normal;font-stretch:normal;line-height:125%;letter-spacing:-0.03px;word-spacing:0px;fill:#000000;fill-opacity:0.23529412;stroke:none;font-family:Derivia;-inkscape-font-specification:Derivia"
         id="rect4847"
         width="5"
         height="1.48"
         x="1008.4622"
         y="-11.739998"
         ry="0.41771603"
         transform="matrix(0,1,-1,0,0,0)" />
      <rect
         transform="matrix(0,1,-1,0,0,0)"
         ry="0.33304384"
         y="-11.589996"
         x="1008.1622"
         height="1.1799999"
         width="5"
         id="rect4849"
         style="font-size:24px;font-style:normal;font-variant:normal;font-weight:normal;font-stretch:normal;line-height:125%;letter-spacing:-0.03px;word-spacing:0px;fill:#000000;fill-opacity:0.23529412;stroke:none;font-family:Derivia;-inkscape-font-specification:Derivia" />
      <rect
         transform="matrix(0,1,-1,0,0,0)"
         ry="0.41771603"
         y="-9.7399979"
         x="1008.4622"
         height="1.48"
         width="5"
         id="rect4851"
         style="font-size:24px;font-style:normal;font-variant:normal;font-weight:normal;font-stretch:normal;line-height:125%;letter-spacing:-0.03px;word-spacing:0px;fill:#000000;fill-opacity:0.23529412;stroke:none;font-family:Derivia;-inkscape-font-specification:Derivia" />
      <rect
         style="font-size:24px;font-style:normal;font-variant:normal;font-weight:normal;font-stretch:normal;line-height:125%;letter-spacing:-0.03px;word-spacing:0px;fill:#000000;fill-opacity:0.23529412;stroke:none;font-family:Derivia;-inkscape-font-specification:Derivia"
         id="rect4853"
         width="5"
         height="1.1799999"
         x="1008.1622"
         y="-9.5899963"
         ry="0.33304384"
         transform="matrix(0,1,-1,0,0,0)" />
      <g
         transform="translate(-3.6245125,1.2382812e-5)"
         id="g4865">
        <rect
           transform="matrix(0,1,-1,0,0,0)"
           ry="0.19756836"
           y="-12.97451"
           x="1007.8621"
           height="0.69999999"
           width="5"
           id="rect4786"
           style="font-size:24px;font-style:normal;font-variant:normal;font-weight:normal;font-stretch:normal;line-height:125%;letter-spacing:-0.03px;word-spacing:0px;fill:url(#linearGradient4788);fill-opacity:1;stroke:none;font-family:Derivia;-inkscape-font-specification:Derivia" />
        <rect
           style="font-size:24px;font-style:normal;font-variant:normal;font-weight:normal;font-stretch:normal;line-height:125%;letter-spacing:-0.03px;word-spacing:0px;fill:url(#linearGradient4792);fill-opacity:1;stroke:none;font-family:Derivia;-inkscape-font-specification:Derivia"
           id="rect4790"
           width="5"
           height="0.69999999"
           x="1007.8621"
           y="-14.97451"
           ry="0.19756836"
           transform="matrix(0,1,-1,0,0,0)" />
      </g>
      <path
         id="path4827"
         d="m 8.837497,1007.8622 c -0.109453,0 -0.1875,0.078 -0.1875,0.1875 l 0,4.625 c 0,0.1095 0.07805,0.1875 0.1875,0.1875 0.109454,0 0.21875,-0.078 0.21875,-0.1875 l 0,-4.625 c 0,-0.1095 -0.109296,-0.1875 -0.21875,-0.1875 z"
         style="font-size:24px;font-style:normal;font-variant:normal;font-weight:normal;font-stretch:normal;line-height:125%;letter-spacing:-0.03px;word-spacing:0px;fill:#000000;fill-opacity:0.23529412;stroke:none;font-family:Derivia;-inkscape-font-specification:Derivia"
         inkscape:connector-curvature="0" />
    </g>
    <g
       id="g4158"
       transform="translate(32.499997,-0.49995135)">
      <rect
         transform="matrix(0,1,-1,0,0,0)"
         ry="0.2596879"
         y="-12.5"
         x="1011.6622"
         height="5"
         width="2.2"
         id="rect4160"
         style="font-size:24px;font-style:normal;font-variant:normal;font-weight:normal;font-stretch:normal;line-height:125%;letter-spacing:-0.03px;word-spacing:0px;fill:url(#linearGradient4178);fill-opacity:1;stroke:none;font-family:Derivia;-inkscape-font-specification:Derivia" />
      <rect
         transform="matrix(0,1,-1,0,0,0)"
         ry="0.41771603"
         y="-11.739998"
         x="1008.4622"
         height="1.48"
         width="5"
         id="rect4162"
         style="font-size:24px;font-style:normal;font-variant:normal;font-weight:normal;font-stretch:normal;line-height:125%;letter-spacing:-0.03px;word-spacing:0px;fill:#000000;fill-opacity:0.23529412;stroke:none;font-family:Derivia;-inkscape-font-specification:Derivia" />
      <rect
         style="font-size:24px;font-style:normal;font-variant:normal;font-weight:normal;font-stretch:normal;line-height:125%;letter-spacing:-0.03px;word-spacing:0px;fill:#000000;fill-opacity:0.23529412;stroke:none;font-family:Derivia;-inkscape-font-specification:Derivia"
         id="rect4164"
         width="5"
         height="1.1799999"
         x="1008.1622"
         y="-11.589996"
         ry="0.33304384"
         transform="matrix(0,1,-1,0,0,0)" />
      <rect
         style="font-size:24px;font-style:normal;font-variant:normal;font-weight:normal;font-stretch:normal;line-height:125%;letter-spacing:-0.03px;word-spacing:0px;fill:#000000;fill-opacity:0.23529412;stroke:none;font-family:Derivia;-inkscape-font-specification:Derivia"
         id="rect4166"
         width="5"
         height="1.48"
         x="1008.4622"
         y="-9.7399979"
         ry="0.41771603"
         transform="matrix(0,1,-1,0,0,0)" />
      <rect
         transform="matrix(0,1,-1,0,0,0)"
         ry="0.33304384"
         y="-9.5899963"
         x="1008.1622"
         height="1.1799999"
         width="5"
         id="rect4168"
         style="font-size:24px;font-style:normal;font-variant:normal;font-weight:normal;font-stretch:normal;line-height:125%;letter-spacing:-0.03px;word-spacing:0px;fill:#000000;fill-opacity:0.23529412;stroke:none;font-family:Derivia;-inkscape-font-specification:Derivia" />
      <g
         id="g4170"
         transform="translate(-3.6245125,1.2382812e-5)">
        <rect
           style="font-size:24px;font-style:normal;font-variant:normal;font-weight:normal;font-stretch:normal;line-height:125%;letter-spacing:-0.03px;word-spacing:0px;fill:url(#linearGradient4180);fill-opacity:1;stroke:none;font-family:Derivia;-inkscape-font-specification:Derivia"
           id="rect4172"
           width="5"
           height="0.69999999"
           x="1007.8621"
           y="-12.97451"
           ry="0.19756836"
           transform="matrix(0,1,-1,0,0,0)" />
        <rect
           transform="matrix(0,1,-1,0,0,0)"
           ry="0.19756836"
           y="-14.97451"
           x="1007.8621"
           height="0.69999999"
           width="5"
           id="rect4174"
           style="font-size:24px;font-style:normal;font-variant:normal;font-weight:normal;font-stretch:normal;line-height:125%;letter-spacing:-0.03px;word-spacing:0px;fill:url(#linearGradient4182);fill-opacity:1;stroke:none;font-family:Derivia;-inkscape-font-specification:Derivia" />
      </g>
      <path
         inkscape:connector-curvature="0"
         style="font-size:24px;font-style:normal;font-variant:normal;font-weight:normal;font-stretch:normal;line-height:125%;letter-spacing:-0.03px;word-spacing:0px;fill:#000000;fill-opacity:0.23529412;stroke:none;font-family:Derivia;-inkscape-font-specification:Derivia"
         d="m 8.837497,1007.8622 c -0.109453,0 -0.1875,0.078 -0.1875,0.1875 l 0,4.625 c 0,0.1095 0.07805,0.1875 0.1875,0.1875 0.109454,0 0.21875,-0.078 0.21875,-0.1875 l 0,-4.625 c 0,-0.1095 -0.109296,-0.1875 -0.21875,-0.1875 z"
         id="path4176" />
    </g>
    <path
       style="font-size:35px;font-style:normal;font-variant:normal;font-weight:normal;font-stretch:normal;line-height:125%;letter-spacing:0px;word-spacing:0px;fill:url(#linearGradient4202);fill-opacity:1;stroke:none;font-family:Maven Pro;-inkscape-font-specification:Maven Pro"
       d="m 16.360005,1019.3622 c -1.962049,0 -3.600945,0.4817 -4.887531,1.0924 l 0,2.3489 c 1.15793,-0.5792 2.700968,-1.1257 4.630849,-1.1257 3.280804,0 5.081368,1.221 5.081368,3.4732 0,2.219 -1.704722,3.4418 -4.824686,3.4418 l -2.442875,0 0,2.2199 2.347738,0 c 3.891914,0 6.01471,1.4473 6.01471,4.1161 0,2.6701 -2.091842,4.1178 -5.887267,4.1178 -2.283696,0 -4.116213,-0.6761 -5.434968,-1.4153 l 0,2.3787 c 1.447411,0.7408 3.377722,1.3522 5.725737,1.3522 5.821794,0 7.911933,-3.2807 7.911933,-6.3691 0,-3.9559 -3.859041,-5.4994 -3.859041,-5.4994 0,0 2.765935,-1.1261 2.765935,-4.3427 0,-2.7989 -1.866913,-5.7888 -7.141902,-5.7888 z m 18.044142,0.2891 -3.955956,2.5094 0,2.734 4.279032,-2.8316 0,19.043 2.315434,0 0,-21.4548 -2.63851,0 z"
       id="path4189"
       inkscape:connector-curvature="0" />
    <path
       style="font-size:35px;font-style:normal;font-variant:normal;font-weight:normal;font-stretch:normal;line-height:125%;letter-spacing:0px;word-spacing:0px;fill:#1767d5;fill-opacity:0.3137255;stroke:none;font-family:Maven Pro;-inkscape-font-specification:Maven Pro"
       d="M 16.103516 16.916016 C 14.173635 16.916016 12.630586 17.461816 11.472656 18.041016 L 11.472656 18.441406 C 12.630586 17.862206 14.173635 17.316406 16.103516 17.316406 C 19.282762 17.316406 21.056338 18.471355 21.164062 20.591797 C 21.167621 20.522104 21.185547 20.460458 21.185547 20.388672 C 21.185547 18.136472 19.38432 16.916016 16.103516 16.916016 z M 34.726562 17.300781 L 30.447266 20.132812 L 30.447266 20.533203 L 34.726562 17.701172 L 34.726562 17.300781 z M 23.488281 20.634766 C 23.348824 23.658163 20.736328 24.732422 20.736328 24.732422 C 20.736328 24.732422 20.957767 24.843337 21.126953 24.927734 C 21.87621 24.495324 23.501953 23.278033 23.501953 20.789062 C 23.501953 20.73777 23.489545 20.686167 23.488281 20.634766 z M 13.917969 26.050781 L 13.917969 26.451172 L 16.265625 26.451172 C 20.06181 26.451172 22.16788 27.83059 22.269531 30.375 C 22.272541 30.305061 22.279297 30.237723 22.279297 30.166016 C 22.279297 27.497216 20.157539 26.050781 16.265625 26.050781 L 13.917969 26.050781 z M 24.585938 30.466797 C 24.481179 33.483914 22.357163 36.599609 16.683594 36.599609 C 14.335579 36.599609 12.404442 35.988847 10.957031 35.248047 L 10.957031 35.648438 C 12.404442 36.389238 14.335579 37 16.683594 37 C 22.505388 37 24.595703 33.719259 24.595703 30.630859 C 24.595703 30.573972 24.587511 30.522689 24.585938 30.466797 z M 34.726562 36.34375 L 34.726562 36.744141 L 37.042969 36.744141 L 37.042969 36.34375 L 34.726562 36.34375 z "
       transform="translate(0,1004.3622)"
       id="path4218" />
    <path
       style="font-size:35px;font-style:normal;font-variant:normal;font-weight:normal;font-stretch:normal;line-height:125%;letter-spacing:0px;word-spacing:0px;fill:#ffffff;fill-opacity:0.23529412;stroke:none;font-family:Maven Pro;-inkscape-font-specification:Maven Pro"
       d="M 16.359375 15 C 14.397326 15 12.759242 15.481097 11.472656 16.091797 L 11.472656 16.492188 C 12.759242 15.881488 14.397326 15.400391 16.359375 15.400391 C 21.537694 15.400391 23.420601 18.281725 23.488281 21.035156 C 23.492093 20.952514 23.501953 20.874646 23.501953 20.789062 C 23.501953 17.990162 21.634364 15 16.359375 15 z M 34.404297 15.289062 L 30.447266 17.798828 L 30.447266 18.199219 L 34.404297 15.689453 L 37.042969 15.689453 L 37.042969 15.289062 L 34.404297 15.289062 z M 21.164062 20.992188 C 21.057626 23.076802 19.378406 24.230469 16.359375 24.230469 L 13.917969 24.230469 L 13.917969 24.630859 L 16.359375 24.630859 C 19.479339 24.630859 21.185547 23.408453 21.185547 21.189453 C 21.185547 21.119736 21.167504 21.059922 21.164062 20.992188 z M 21.126953 25.326172 C 20.907841 25.452635 20.736328 25.53125 20.736328 25.53125 C 20.736328 25.53125 24.478402 27.036046 24.585938 30.867188 C 24.588674 30.788364 24.595703 30.709491 24.595703 30.630859 C 24.595703 27.314658 22.004016 25.763687 21.126953 25.326172 z M 22.269531 30.775391 C 22.160466 33.309732 20.086075 34.683594 16.392578 34.683594 C 14.108882 34.683594 12.275786 34.008731 10.957031 33.269531 L 10.957031 33.669922 C 12.275786 34.409122 14.108882 35.083984 16.392578 35.083984 C 20.188003 35.083984 22.279297 33.636897 22.279297 30.966797 C 22.279297 30.901153 22.272095 30.839553 22.269531 30.775391 z "
       transform="translate(0,1004.3622)"
       id="path4223" />
  </g>
</svg>
