<?xml version="1.0" encoding="UTF-8" standalone="no"?>
<!-- Created with Inkscape (http://www.inkscape.org/) -->

<svg
   xmlns:dc="http://purl.org/dc/elements/1.1/"
   xmlns:cc="http://creativecommons.org/ns#"
   xmlns:rdf="http://www.w3.org/1999/02/22-rdf-syntax-ns#"
   xmlns:svg="http://www.w3.org/2000/svg"
   xmlns="http://www.w3.org/2000/svg"
   xmlns:xlink="http://www.w3.org/1999/xlink"
   xmlns:sodipodi="http://sodipodi.sourceforge.net/DTD/sodipodi-0.dtd"
   xmlns:inkscape="http://www.inkscape.org/namespaces/inkscape"
   width="48"
   height="48"
   id="svg2"
   version="1.1"
   inkscape:version="0.48+devel r12487"
   sodipodi:docname="googleearth.svg">
  <defs
     id="defs4">
    <linearGradient
       id="linearGradient4471">
      <stop
         id="stop4473"
         offset="0"
         style="stop-color:#ffffff;stop-opacity:1;" />
      <stop
         style="stop-color:#f6f6f6;stop-opacity:1;"
         offset="0.5"
         id="stop4544" />
      <stop
         id="stop4475"
         offset="1"
         style="stop-color:#e1e1e1;stop-opacity:1;" />
    </linearGradient>
    <linearGradient
       id="linearGradient4463">
      <stop
         style="stop-color:#000000;stop-opacity:0;"
         offset="0"
         id="stop4465" />
      <stop
         id="stop4467"
         offset="0.91000003"
         style="stop-color:#000000;stop-opacity:0;" />
      <stop
         style="stop-color:#000000;stop-opacity:1;"
         offset="1"
         id="stop4469" />
    </linearGradient>
    <linearGradient
       id="linearGradient4326">
      <stop
         id="stop4328"
         offset="0"
         style="stop-color:#000000;stop-opacity:1;" />
      <stop
         style="stop-color:#000000;stop-opacity:1;"
         offset="0.91000003"
         id="stop4334" />
      <stop
         id="stop4330"
         offset="1"
         style="stop-color:#000000;stop-opacity:0;" />
    </linearGradient>
    <linearGradient
       id="linearGradient4224">
      <stop
         id="stop4226"
         offset="0"
         style="stop-color:#95d2f8;stop-opacity:1;" />
      <stop
         style="stop-color:#357bb5;stop-opacity:1;"
         offset="0.41"
         id="stop4240" />
      <stop
         id="stop4228"
         offset="1"
         style="stop-color:#13324e;stop-opacity:1;" />
    </linearGradient>
    <radialGradient
       r="20.607111"
       fy="-56.550789"
       fx="-54.952297"
       cy="-56.550789"
       cx="-54.952297"
       gradientTransform="matrix(1,0,0,0.9068628,0,-5.2669822)"
       gradientUnits="userSpaceOnUse"
       id="radialGradient4591"
       xlink:href="#linearGradient4326"
       inkscape:collect="always" />
    <radialGradient
       r="60.306107"
       fy="-33.92337"
       fx="46.972088"
       cy="-33.92337"
       cx="46.972088"
       gradientTransform="matrix(1.164251,0,0,1.1066309,-7.7152118,3.6172807)"
       gradientUnits="userSpaceOnUse"
       id="radialGradient4593"
       xlink:href="#linearGradient4224"
       inkscape:collect="always" />
    <radialGradient
       r="60.306107"
       fy="-19.960367"
       fx="65.260735"
       cy="-19.960367"
       cx="65.260735"
       gradientTransform="matrix(1.1373136,0,0,1.1082148,-5.9284,3.6296571)"
       gradientUnits="userSpaceOnUse"
       id="radialGradient4595"
       xlink:href="#linearGradient4463"
       inkscape:collect="always" />
    <radialGradient
       r="60.306107"
       fy="-33.92337"
       fx="46.972088"
       cy="-33.92337"
       cx="46.972088"
       gradientTransform="matrix(0.43437803,0,0,0.41288018,-68.161846,1048.7486)"
       gradientUnits="userSpaceOnUse"
       id="radialGradient4597"
       xlink:href="#linearGradient4471"
       inkscape:collect="always" />
    <radialGradient
       fx="0"
       fy="0"
       cx="0"
       cy="0"
       r="1"
       gradientUnits="userSpaceOnUse"
       gradientTransform="matrix(459.3295,0,0,-459.3295,1203.5497,345.83976)"
       spreadMethod="pad"
       id="radialGradient32">
      <stop
         style="stop-opacity:1;stop-color:#0090cf"
         offset="0"
         id="stop34" />
      <stop
         style="stop-opacity:1;stop-color:#005e88"
         offset="0.353932"
         id="stop36" />
      <stop
         style="stop-opacity:1;stop-color:#002635"
         offset="0.86393088"
         id="stop38" />
      <stop
         style="stop-opacity:1;stop-color:#002635"
         offset="0.898876"
         id="stop40" />
      <stop
         style="stop-opacity:1;stop-color:#002635"
         offset="1"
         id="stop42" />
    </radialGradient>
    <radialGradient
       r="1"
       fy="-0.76725018"
       fx="-0.42472309"
       cy="-0.76725018"
       cx="-0.42472309"
       spreadMethod="pad"
       gradientTransform="matrix(46.257071,0,0,46.257071,44.442067,44.546)"
       gradientUnits="userSpaceOnUse"
       id="radialGradient10594"
       xlink:href="#radialGradient32"
       inkscape:collect="always" />
  </defs>
  <sodipodi:namedview
     id="base"
     pagecolor="#ffffff"
     bordercolor="#666666"
     borderopacity="1.0"
     inkscape:pageopacity="0.0"
     inkscape:pageshadow="2"
     inkscape:zoom="1.4142136"
     inkscape:cx="-122.51192"
     inkscape:cy="3.5690348"
     inkscape:document-units="px"
     inkscape:current-layer="layer1"
     showgrid="false"
     inkscape:window-width="1366"
     inkscape:window-height="714"
     inkscape:window-x="0"
     inkscape:window-y="30"
     inkscape:window-maximized="1"
     showguides="false" />
  <metadata
     id="metadata7">
    <rdf:RDF>
      <cc:Work
         rdf:about="">
        <dc:format>image/svg+xml</dc:format>
        <dc:type
           rdf:resource="http://purl.org/dc/dcmitype/StillImage" />
        <dc:title />
      </cc:Work>
    </rdf:RDF>
  </metadata>
  <g
     inkscape:label="Capa 1"
     inkscape:groupmode="layer"
     id="layer1"
     transform="translate(0,-1004.3622)">
    <path
       style="fill:url(#radialGradient10594);stroke:none"
       d="M 1.9375 0 C 0.86022285 0 0 0.86022285 0 1.9375 L 0 46.0625 C 0 47.139777 0.86022285 48 1.9375 48 L 46.0625 48 C 47.139777 48 48 47.139777 48 46.0625 L 48 1.9375 C 48 0.86022285 47.139777 0 46.0625 0 L 1.9375 0 z "
       transform="translate(0,1004.3622)"
       id="path44" />
    <path
       style="fill:#ffffff;fill-opacity:1;stroke:none"
       d="M 11.75 0.59375 C 11.70937 0.59375 11.67157 0.61725 11.65625 0.65625 C 11.6357 0.71225 11.66485 0.793 11.71875 0.8125 C 11.77281 0.8355 11.823099 0.801 11.84375 0.75 C 11.8642 0.694 11.83526 0.61375 11.78125 0.59375 C 11.767763 0.58895 11.763551 0.59335 11.75 0.59375 z M 47.28125 1.125 C 47.25459 1.125 47.20844 1.13725 47.1875 1.15625 C 47.14539 1.19425 47.14828 1.23715 47.1875 1.28125 C 47.22718 1.32125 47.301881 1.32325 47.34375 1.28125 C 47.38577 1.24325 47.38324 1.19925 47.34375 1.15625 C 47.324149 1.13925 47.307947 1.1256 47.28125 1.125 z M 17.65625 1.1875 C 17.61559 1.1875 17.57783 1.211 17.5625 1.25 C 17.54194 1.306 17.57107 1.38755 17.625 1.40625 C 17.67899 1.42925 17.729338 1.40475 17.75 1.34375 C 17.77042 1.28775 17.74154 1.2067 17.6875 1.1875 C 17.674016 1.1827 17.669814 1.1871 17.65625 1.1875 z M 14.15625 1.4375 C 14.1156 1.4375 14.07789 1.49225 14.0625 1.53125 C 14.04195 1.58725 14.07111 1.63755 14.125 1.65625 C 14.17899 1.67925 14.229561 1.65475 14.25 1.59375 C 14.27055 1.53775 14.24152 1.48865 14.1875 1.46875 C 14.174034 1.46425 14.1698 1.4371 14.15625 1.4375 z M 36.15625 1.53125 C 36.11426 1.56925 36.11685 1.6438 36.15625 1.6875 C 36.19593 1.7275 36.239241 1.7295 36.28125 1.6875 C 36.32331 1.6495 36.32076 1.57495 36.28125 1.53125 C 36.261598 1.51525 36.245499 1.53185 36.21875 1.53125 C 36.19198 1.53125 36.17723 1.51125 36.15625 1.53125 z M 45.59375 3 C 45.56133 2.9995 45.52544 3.00725 45.5 3.03125 C 45.44922 3.07625 45.45213 3.16785 45.5 3.21875 C 45.54797 3.27275 45.636732 3.27375 45.6875 3.21875 C 45.73836 3.17475 45.73537 3.08245 45.6875 3.03125 C 45.663501 3.01185 45.626153 3.0007 45.59375 3 z M 6.96875 3.40625 C 6.904574 3.40625 6.836756 3.46665 6.8125 3.53125 C 6.780276 3.61825 6.821416 3.7178 6.90625 3.75 C 6.991144 3.782 7.0927732 3.71 7.125 3.625 C 7.15732 3.538 7.116162 3.4696 7.03125 3.4375 C 7.0100013 3.4299 6.9901412 3.40495 6.96875 3.40625 z M 39.65625 3.46875 C 39.62951 3.46795 39.58347 3.481 39.5625 3.5 C 39.5207 3.538 39.5231 3.61355 39.5625 3.65625 C 39.60197 3.69625 39.676741 3.69725 39.71875 3.65625 C 39.76063 3.61925 39.75825 3.5437 39.71875 3.5 C 39.698959 3.4811 39.682967 3.46935 39.65625 3.46875 z M 3.21875 3.59375 C 3.178052 3.59375 3.140418 3.61725 3.125 3.65625 C 3.104464 3.71225 3.133555 3.76205 3.1875 3.78125 C 3.241591 3.80425 3.3234148 3.77975 3.34375 3.71875 C 3.364398 3.66275 3.335095 3.61295 3.28125 3.59375 C 3.2677604 3.58935 3.2323182 3.59335 3.21875 3.59375 z M 9.4375 4 C 9.396824 4 9.359136 4.0245 9.34375 4.0625 C 9.323118 4.1185 9.352328 4.1671 9.40625 4.1875 C 9.460314 4.2105 9.5107186 4.186 9.53125 4.125 C 9.551882 4.069 9.522672 4.0192 9.46875 4 C 9.4552906 3.997 9.451065 3.9996 9.4375 4 z M 17.78125 4.0625 C 17.74062 4.0625 17.70293 4.086 17.6875 4.125 C 17.66686 4.181 17.696 4.2308 17.75 4.25 C 17.80399 4.273 17.885719 4.2485 17.90625 4.1875 C 17.92681 4.1315 17.89775 4.0817 17.84375 4.0625 C 17.83026 4.0603 17.794794 4.0622 17.78125 4.0625 z M 0.40625 4.375 C 0.3655956 4.375 0.3279134 4.3985 0.3125 4.4375 C 0.2920552 4.4935 0.3211546 4.57465 0.375 4.59375 C 0.4289727 4.61675 0.47945614 4.59225 0.5 4.53125 C 0.5204449 4.47525 0.4914482 4.3942 0.4375 4.375 C 0.42403133 4.3734 0.41980334 4.3746 0.40625 4.375 z M 11.59375 5.15625 C 11.5531 5.15625 11.51532 5.17975 11.5 5.21875 C 11.47937 5.27475 11.50855 5.356 11.5625 5.375 C 11.61641 5.398 11.666976 5.3735 11.6875 5.3125 C 11.70814 5.2565 11.67904 5.2075 11.625 5.1875 C 11.611468 5.186 11.607306 5.15585 11.59375 5.15625 z M 3.875 5.34375 C 3.834302 5.34375 3.796658 5.36725 3.78125 5.40625 C 3.760805 5.46225 3.789805 5.51235 3.84375 5.53125 C 3.897733 5.55425 3.9482125 5.52975 3.96875 5.46875 C 3.989195 5.41275 3.960095 5.36365 3.90625 5.34375 C 3.8927547 5.34215 3.8885672 5.34335 3.875 5.34375 z M 14.28125 5.46875 C 14.20235 5.46875 14.123586 5.5483 14.09375 5.625 C 14.054 5.7273 14.11428 5.8351 14.21875 5.875 C 14.323372 5.913 14.428976 5.857 14.46875 5.75 C 14.50865 5.6477 14.47954 5.5398 14.375 5.5 C 14.348854 5.4932 14.307538 5.46795 14.28125 5.46875 z M 45.21875 5.625 C 45.19205 5.6241 45.17719 5.63725 45.15625 5.65625 C 45.11415 5.69325 45.11675 5.7698 45.15625 5.8125 C 45.19584 5.8515 45.270487 5.8515 45.3125 5.8125 C 45.35438 5.7745 45.35198 5.731 45.3125 5.6875 C 45.292757 5.6695 45.245466 5.65685 45.21875 5.65625 L 45.21875 5.625 z M 41.125 5.9375 C 41.08285 5.9375 41.03305 5.93775 41 5.96875 C 40.93405 6.03075 40.93792 6.15245 41 6.21875 C 41.06251 6.28375 41.152784 6.28475 41.21875 6.21875 C 41.28492 6.15675 41.28142 6.0661 41.21875 6 C 41.18805 5.9773 41.167144 5.9384 41.125 5.9375 z M 46.65625 6.25 C 46.62949 6.25 46.58344 6.26025 46.5625 6.28125 C 46.5205 6.31925 46.52326 6.3936 46.5625 6.4375 C 46.6024 6.4775 46.676742 6.4795 46.71875 6.4375 C 46.76063 6.4005 46.75807 6.32525 46.71875 6.28125 C 46.69892 6.26535 46.682993 6.2506 46.65625 6.25 z M 38.9375 6.28125 C 38.91074 6.28065 38.89598 6.2935 38.875 6.3125 C 38.833 6.3505 38.8356 6.42495 38.875 6.46875 C 38.91467 6.50875 38.989387 6.50875 39.03125 6.46875 C 39.07325 6.43075 39.07076 6.3561 39.03125 6.3125 C 39.011661 6.2907 38.964235 6.28185 38.9375 6.28125 z M 20.34375 6.625 C 20.30308 6.625 20.26539 6.6485 20.25 6.6875 C 20.22945 6.7435 20.25861 6.82465 20.3125 6.84375 C 20.36649 6.86675 20.448403 6.84225 20.46875 6.78125 C 20.48938 6.72525 20.46026 6.6443 20.40625 6.625 C 20.392776 6.6166 20.357307 6.6246 20.34375 6.625 z M 47.65625 7.46875 C 47.60442 7.46875 47.571955 7.49425 47.53125 7.53125 C 47.44985 7.60525 47.42278 7.7312 47.5 7.8125 C 47.57683 7.8965 47.699985 7.91975 47.78125 7.84375 C 47.86264 7.76675 47.88949 7.61255 47.8125 7.53125 C 47.774047 7.48205 47.70809 7.46985 47.65625 7.46875 z M 35.40625 7.53125 C 35.36452 7.56925 35.36655 7.6437 35.40625 7.6875 C 35.44585 7.7265 35.489358 7.7285 35.53125 7.6875 C 35.57313 7.6495 35.6019 7.57515 35.5625 7.53125 C 35.542587 7.51255 35.495467 7.53185 35.46875 7.53125 C 35.44205 7.53125 35.42734 7.51325 35.40625 7.53125 z M 2.15625 8.6875 C 2.077361 8.6875 1.9985849 8.7366 1.96875 8.8125 C 1.928869 8.9147 1.9891605 9.0228 2.09375 9.0625 C 2.1982764 9.1005 2.3039716 9.0466 2.34375 8.9375 C 2.383528 8.8353 2.354538 8.7272 2.25 8.6875 C 2.2238503 8.6765 2.1825471 8.686 2.15625 8.6875 z M 40.5 9.03125 C 40.46588 9.06325 40.43681 9.12305 40.46875 9.15625 C 40.50097 9.18925 40.559704 9.19025 40.59375 9.15625 C 40.62787 9.12425 40.6257 9.06425 40.59375 9.03125 C 40.577654 9.01375 40.584209 9.03245 40.5625 9.03125 C 40.54075 9.03125 40.51701 9.00725 40.5 9.03125 z M 45.5 10.71875 C 45.44817 10.71875 45.41571 10.74425 45.375 10.78125 C 45.29375 10.85825 45.29801 10.9813 45.375 11.0625 C 45.45183 11.1465 45.574889 11.1385 45.65625 11.0625 C 45.73742 10.9865 45.73332 10.86275 45.65625 10.78125 C 45.617838 10.73465 45.551826 10.72065 45.5 10.71875 z M 34.59375 13.28125 C 34.567 13.28125 34.55222 13.2935 34.53125 13.3125 C 34.48925 13.3505 34.49201 13.3936 34.53125 13.4375 C 34.57101 13.4775 34.61424 13.49975 34.65625 13.46875 C 34.69823 13.43075 34.69564 13.3563 34.65625 13.3125 C 34.636412 13.2833 34.620473 13.28255 34.59375 13.28125 z M 46.03125 13.875 C 46.0045 13.875 45.98974 13.88725 45.96875 13.90625 C 45.92688 13.94425 45.92927 14.0186 45.96875 14.0625 C 46.00835 14.1025 46.083096 14.1025 46.125 14.0625 C 46.16688 14.0245 46.16442 13.95015 46.125 13.90625 C 46.105181 13.88465 46.057974 13.8763 46.03125 13.875 z M 41.40625 15.28125 C 41.37948 15.28125 41.3648 15.2945 41.34375 15.3125 C 41.30195 15.3505 41.30435 15.42505 41.34375 15.46875 C 41.38342 15.50775 41.457996 15.50975 41.5 15.46875 C 41.54188 15.43075 41.53932 15.3562 41.5 15.3125 C 41.480208 15.2944 41.432992 15.28185 41.40625 15.28125 z M 45.71875 15.59375 C 45.69205 15.59375 45.6459 15.606 45.625 15.625 C 45.58297 15.662 45.5856 15.74105 45.625 15.78125 C 45.66459 15.82125 45.739249 15.81225 45.78125 15.78125 C 45.82305 15.74325 45.82055 15.6688 45.78125 15.625 C 45.761289 15.5957 45.745466 15.59425 45.71875 15.59375 z M 29.1875 16.15625 C 29.169747 16.1735 29.15625 16.222 29.15625 16.25 C 29.156242 16.306 29.22704 16.34375 29.28125 16.34375 C 29.33543 16.34375 29.375 16.306 29.375 16.25 C 29.374994 16.195 29.335426 16.15625 29.28125 16.15625 C 29.25411 16.15625 29.205253 16.139 29.1875 16.15625 z M 43.34375 16.28125 C 43.29191 16.28125 43.259461 16.30775 43.21875 16.34375 C 43.13736 16.41975 43.11051 16.5437 43.1875 16.625 C 43.2644 16.709 43.387388 16.73225 43.46875 16.65625 C 43.55 16.58225 43.5769 16.42515 43.5 16.34375 C 43.461589 16.29735 43.395602 16.28315 43.34375 16.28125 z M 26.90625 16.625 C 26.87955 16.625 26.86483 16.63725 26.84375 16.65625 C 26.80195 16.69325 26.77318 16.7685 26.8125 16.8125 C 26.8521 16.8525 26.926964 16.8525 26.96875 16.8125 C 27.01085 16.7745 27.00825 16.70005 26.96875 16.65625 C 26.949005 16.63415 26.932967 16.6256 26.90625 16.625 z M 23.65625 16.65625 C 23.551178 16.65625 23.46875 16.74045 23.46875 16.84375 C 23.468737 16.94745 23.55118 17.03125 23.65625 17.03125 C 23.761396 17.03125 23.84375 16.94715 23.84375 16.84375 C 23.84375 16.73905 23.761382 16.65625 23.65625 16.65625 z M 22.1875 17.65625 C 22.16075 17.65625 22.14593 17.6685 22.125 17.6875 C 22.083 17.7255 22.08568 17.7687 22.125 17.8125 C 22.16467 17.8525 22.207998 17.87475 22.25 17.84375 C 22.29188 17.80575 22.32065 17.7323 22.28125 17.6875 C 22.261465 17.6604 22.214223 17.65675 22.1875 17.65625 z M 26.90625 17.65625 C 26.86151 17.66625 26.8125 17.706 26.8125 17.75 C 26.8125 17.806 26.85202 17.84375 26.90625 17.84375 C 26.96031 17.84375 27 17.806 27 17.75 C 27 17.694 26.96035 17.65625 26.90625 17.65625 z M 27.03125 18 C 26.94581 18 26.875 18.06905 26.875 18.15625 C 26.875 18.24325 26.945823 18.28125 27.03125 18.28125 C 27.11653 18.28125 27.1875 18.24265 27.1875 18.15625 C 27.187507 18.07215 27.116543 18 27.03125 18 z M 31.09375 18.6875 C 31.03946 18.6875 31 18.72525 31 18.78125 C 31 18.83725 31.03952 18.875 31.09375 18.875 C 31.14796 18.875 31.1875 18.83725 31.1875 18.78125 C 31.1875 18.73025 31.147933 18.6875 31.09375 18.6875 z M 25.40625 19.0625 C 25.3795 19.0625 25.36468 19.07275 25.34375 19.09375 C 25.30175 19.13175 25.273 19.2063 25.3125 19.25 C 25.35217 19.29 25.426862 19.281 25.46875 19.25 C 25.51074 19.212 25.5083 19.1688 25.46875 19.125 C 25.448773 19.1004 25.432973 19.0631 25.40625 19.0625 z M 15.84375 19.1875 C 15.81702 19.1875 15.80218 19.19975 15.78125 19.21875 C 15.73923 19.25675 15.74185 19.3314 15.78125 19.375 C 15.82085 19.415 15.864241 19.405 15.90625 19.375 C 15.94805 19.337 15.94564 19.26235 15.90625 19.21875 C 15.886406 19.18945 15.870467 19.1888 15.84375 19.1875 z M 26.65625 20 C 26.60197 20 26.5625 20.03775 26.5625 20.09375 C 26.562507 20.14975 26.60203 20.21875 26.65625 20.21875 C 26.71031 20.21875 26.75 20.14975 26.75 20.09375 C 26.74999 20.04095 26.71033 20 26.65625 20 z M 23.3125 20.3125 C 23.25822 20.3125 23.1875 20.3815 23.1875 20.4375 C 23.1875 20.4935 23.25825 20.53125 23.3125 20.53125 C 23.36657 20.53125 23.40625 20.4935 23.40625 20.4375 C 23.40629 20.3852 23.36658 20.3125 23.3125 20.3125 z M 45.78125 20.4375 C 45.077717 20.4235 44.226147 20.5797 43.65625 20.6875 C 44.18939 20.7898 45.030092 20.6031 45.78125 20.4375 z M 29.21875 20.90625 C 29.113744 20.90625 29.03125 20.99025 29.03125 21.09375 C 29.03125 21.19595 29.11372 21.28125 29.21875 21.28125 C 29.323768 21.28125 29.4375 21.19655 29.4375 21.09375 C 29.437513 20.98835 29.323793 20.90625 29.21875 20.90625 z M 24.4375 21.65625 C 24.38322 21.65625 24.34375 21.694 24.34375 21.75 C 24.34375 21.806 24.38322 21.84375 24.4375 21.84375 C 24.49167 21.84375 24.53125 21.806 24.53125 21.75 C 24.531254 21.6966 24.491677 21.65625 24.4375 21.65625 z M 1.3125 22.21875 C 1.2073646 22.21875 1.125 22.3342 1.125 22.4375 C 1.125 22.5411 1.2073642 22.625 1.3125 22.625 C 1.4176354 22.625 1.5 22.5408 1.5 22.4375 C 1.5 22.3325 1.4176359 22.21875 1.3125 22.21875 z M 44.625 22.40625 C 44.893481 22.50225 45.315153 22.5258 45.75 22.5 C 45.388566 22.4594 44.995597 22.41635 44.625 22.40625 z M 21.21875 22.9375 C 21.13332 22.9375 21.0625 23.00685 21.0625 23.09375 C 21.0625 23.18075 21.133323 23.25 21.21875 23.25 C 21.30418 23.25 21.375 23.18045 21.375 23.09375 C 21.375 23.00825 21.304144 22.9375 21.21875 22.9375 z M 16.5625 23.0625 C 16.50822 23.0625 16.46875 23.10025 16.46875 23.15625 C 16.46875 23.21225 16.50828 23.25 16.5625 23.25 C 16.61671 23.25 16.6875 23.21225 16.6875 23.15625 C 16.687477 23.10245 16.616689 23.0625 16.5625 23.0625 z M 18.84375 23.375 C 18.78954 23.375 18.75 23.41275 18.75 23.46875 C 18.75 23.52475 18.78955 23.5625 18.84375 23.5625 C 18.89803 23.5625 18.96875 23.52475 18.96875 23.46875 C 18.968751 23.41525 18.898022 23.375 18.84375 23.375 z M 14.0625 23.5 C 13.957354 23.5 13.875 23.5842 13.875 23.6875 C 13.875 23.7912 13.957362 23.875 14.0625 23.875 C 14.167656 23.875 14.25 23.7909 14.25 23.6875 C 14.250001 23.5811 14.167638 23.5 14.0625 23.5 z M 8.375 24.71875 C 8.32084 24.71875 8.28125 24.7565 8.28125 24.8125 C 8.28125 24.8685 8.320852 24.90625 8.375 24.90625 C 8.429204 24.90625 8.5 24.8685 8.5 24.8125 C 8.4999806 24.7582 8.4291882 24.71875 8.375 24.71875 z M 0.65625 26.03125 C 0.6019672 26.03125 0.5625 26.069 0.5625 26.125 C 0.5625 26.181 0.6019837 26.21875 0.65625 26.21875 C 0.7104316 26.21875 0.75 26.181 0.75 26.125 C 0.75000493 26.0709 0.71042948 26.03125 0.65625 26.03125 z M 11.5 26.09375 C 11.44572 26.09375 11.40625 26.1315 11.40625 26.1875 C 11.40625 26.2435 11.44578 26.3125 11.5 26.3125 C 11.55428 26.3125 11.59375 26.2435 11.59375 26.1875 C 11.593774 26.1339 11.554286 26.09375 11.5 26.09375 z M 1.53125 27.125 C 1.477075 27.125 1.4375 27.16275 1.4375 27.21875 C 1.4375 27.27475 1.477075 27.3125 1.53125 27.3125 C 1.585533 27.3125 1.625 27.27475 1.625 27.21875 C 1.6250044 27.16775 1.5855309 27.125 1.53125 27.125 z M 17.96875 27.125 C 17.91453 27.125 17.875 27.16275 17.875 27.21875 C 17.875 27.27475 17.91456 27.3125 17.96875 27.3125 C 18.02292 27.3125 18.0625 27.27475 18.0625 27.21875 C 18.062504 27.16775 18.022919 27.125 17.96875 27.125 z M 15.5625 27.1875 C 15.50829 27.1875 15.46875 27.22525 15.46875 27.28125 C 15.468743 27.33725 15.50829 27.375 15.5625 27.375 C 15.6168 27.375 15.65625 27.33725 15.65625 27.28125 C 15.656244 27.23005 15.616779 27.1875 15.5625 27.1875 z M 8.59375 27.875 C 8.53958 27.875 8.46875 27.91275 8.46875 27.96875 C 8.46875 28.02475 8.539592 28.0625 8.59375 28.0625 C 8.648036 28.0625 8.6875 28.02475 8.6875 27.96875 C 8.6874909 27.91715 8.6480356 27.875 8.59375 27.875 z M 12.5625 28.5625 C 12.50822 28.5625 12.46875 28.6315 12.46875 28.6875 C 12.46875 28.7435 12.50829 28.78125 12.5625 28.78125 C 12.61672 28.78125 12.6875 28.7435 12.6875 28.6875 C 12.68746 28.6364 12.616676 28.59375 12.5625 28.59375 L 12.5625 28.5625 z M 10.71875 28.78125 C 10.613604 28.78125 10.5 28.86545 10.5 28.96875 C 10.5 29.07235 10.613613 29.15625 10.71875 29.15625 C 10.823896 29.15625 10.90625 29.07225 10.90625 28.96875 C 10.906256 28.86515 10.823888 28.78125 10.71875 28.78125 z M 7.1875 28.84375 C 7.1697262 28.861 7.15625 28.9095 7.15625 28.9375 C 7.15625 28.9935 7.19584 29.03125 7.25 29.03125 C 7.304186 29.03125 7.34375 28.9935 7.34375 28.9375 C 7.3437528 28.8855 7.304181 28.84375 7.25 28.84375 C 7.222915 28.84375 7.2052738 28.8265 7.1875 28.84375 z M 11.25 30.875 C 11.232248 30.89225 11.21875 30.94075 11.21875 30.96875 C 11.21875 31.02475 11.25829 31.0625 11.3125 31.0625 C 11.36672 31.0625 11.40625 31.02475 11.40625 30.96875 C 11.40621 30.91675 11.366682 30.875 11.3125 30.875 C 11.28536 30.875 11.267752 30.85775 11.25 30.875 z M 5.625 31.1875 C 5.5199714 31.1875 5.4375 31.2716 5.4375 31.375 C 5.4375 31.4787 5.5199733 31.5625 5.625 31.5625 C 5.7301354 31.5625 5.8125 31.4778 5.8125 31.375 C 5.812501 31.271 5.7301359 31.1875 5.625 31.1875 z M 2.0625 32 C 1.9573646 32 1.875 32.0847 1.875 32.1875 C 1.875 32.2911 1.9573723 32.375 2.0625 32.375 C 2.1676354 32.375 2.25 32.2909 2.25 32.1875 C 2.25 32.0838 2.1676359 32 2.0625 32 z M 23.875 32.3125 C 23.560987 32.3975 23.299533 32.5417 23.03125 32.75 C 23.310811 32.5923 23.579924 32.4619 23.875 32.3125 z M 1.90625 33.65625 C 1.851967 33.65625 1.8125 33.694 1.8125 33.75 C 1.8125 33.806 1.851984 33.84375 1.90625 33.84375 C 1.960425 33.84375 2 33.806 2 33.75 C 2.0000044 33.6977 1.9604295 33.65625 1.90625 33.65625 z M 2.40625 35 C 2.3891031 35.01725 2.375 35.06575 2.375 35.09375 C 2.375 35.14975 2.445808 35.1875 2.5 35.1875 C 2.554283 35.1875 2.59375 35.14975 2.59375 35.09375 C 2.5937544 35.04195 2.5542816 35 2.5 35 C 2.4729125 35 2.4233969 34.98275 2.40625 35 z M 7.84375 35.71875 C 7.79974 35.71875 7.78125 35.7665 7.78125 35.8125 C 7.78125 35.8535 7.79974 35.90625 7.84375 35.90625 C 7.88784 35.90625 7.9375 35.8605 7.9375 35.8125 C 7.937498 35.7681 7.887857 35.71875 7.84375 35.71875 z M 0.5625 36.53125 C 0.4968387 36.53125 0.4375 36.5607 0.4375 36.625 C 0.4375 36.69 0.49683709 36.75 0.5625 36.75 C 0.6282687 36.75 0.65625 36.6891 0.65625 36.625 C 0.65624732 36.5602 0.62826085 36.53125 0.5625 36.53125 z M 14.65625 36.625 C 14.60197 36.625 14.5625 36.66275 14.5625 36.71875 C 14.5625 36.77475 14.60197 36.84375 14.65625 36.84375 C 14.71047 36.84375 14.78125 36.77475 14.78125 36.71875 C 14.78122 36.66615 14.710426 36.625 14.65625 36.625 z M 5.53125 37.34375 C 5.445747 37.34375 5.375 37.4132 5.375 37.5 C 5.375 37.587 5.4457452 37.65625 5.53125 37.65625 C 5.616649 37.65625 5.6875 37.5866 5.6875 37.5 C 5.6875 37.4147 5.6166394 37.34375 5.53125 37.34375 z M 7.1875 38.59375 C 7.13333 38.59375 7.09375 38.6315 7.09375 38.6875 C 7.09375 38.7435 7.13334 38.8125 7.1875 38.8125 C 7.241686 38.8125 7.28125 38.7435 7.28125 38.6875 C 7.2812446 38.6344 7.241681 38.59375 7.1875 38.59375 z M 22.09375 39.3125 C 22.03947 39.3125 22 39.35025 22 39.40625 C 22 39.46225 22.03953 39.5 22.09375 39.5 C 22.14796 39.5 22.1875 39.46225 22.1875 39.40625 C 22.187465 39.35285 22.147933 39.3125 22.09375 39.3125 z M 10.34375 40 C 10.28953 40 10.25 40.03775 10.25 40.09375 C 10.25 40.14975 10.28958 40.1875 10.34375 40.1875 C 10.39796 40.1875 10.46875 40.14975 10.46875 40.09375 C 10.468764 40.04075 10.397933 40 10.34375 40 z M 4.90625 40.0625 C 4.852058 40.0625 4.8125 40.10025 4.8125 40.15625 C 4.8125 40.21225 4.852058 40.25 4.90625 40.25 C 4.960516 40.25 5 40.21225 5 40.15625 C 4.9999997 40.10365 4.9605279 40.0625 4.90625 40.0625 z M 13.71875 43.375 C 13.68099 43.399 13.631516 43.4145 13.59375 43.4375 L 13.71875 43.53125 C 13.703716 43.47275 13.719044 43.4326 13.71875 43.375 z M 5.96875 43.625 C 5.914572 43.625 5.875 43.66275 5.875 43.71875 C 5.875 43.77475 5.914585 43.8125 5.96875 43.8125 C 6.023016 43.8125 6.0625 43.77475 6.0625 43.71875 C 6.0625081 43.66625 6.0230255 43.625 5.96875 43.625 z M 1.71875 44.875 C 1.664575 44.875 1.625 44.91275 1.625 44.96875 C 1.625 45.02475 1.664575 45.09375 1.71875 45.09375 C 1.773033 45.09375 1.8125 45.02475 1.8125 44.96875 C 1.8125034 44.91585 1.7730309 44.875 1.71875 44.875 z M 5.03125 46.84375 C 4.976967 46.84375 4.9375 46.8815 4.9375 46.9375 C 4.9375 46.9935 4.976967 47.03125 5.03125 47.03125 C 5.085425 47.03125 5.125 46.9935 5.125 46.9375 C 5.1249997 46.8849 5.0854305 46.84375 5.03125 46.84375 z "
       transform="translate(0,1004.3622)"
       id="rect2991-1" />
    <path
       inkscape:connector-curvature="0"
       style="fill:#000000;fill-opacity:1;stroke:none"
       d="m -1.2897644e-7,1049.3622 0,1.0625 c 0,1.0773 0.86022289897644,1.9375 1.93749992897644,1.9375 l 44.1250002,0 c 1.077277,0 1.9375,-0.8602 1.9375,-1.9375 l 0,-1.0625 c 0,1.0773 -0.860223,1.9375 -1.9375,1.9375 l -44.1250002,0 C 0.86022277,1051.2997 -1.2897644e-7,1050.4395 -1.2897644e-7,1049.3622 Z"
       id="rect846" />
    <path
       inkscape:connector-curvature="0"
       style="fill:#ffffff;fill-opacity:0.5372549;stroke:none"
       d="m 2.5312498,1005.0185 c -0.9170884,0 -1.67114673,0.6395 -1.84374993,1.5 0.33561203,-0.2799 0.77451213,-0.4375 1.24999993,-0.4375 l 44.1250002,0 c 0.475488,0 0.914388,0.1576 1.25,0.4375 -0.172603,-0.8605 -0.926662,-1.5 -1.84375,-1.5 L 2.5312498,1005.0185 Z"
       id="path7515" />
    <path
       inkscape:connector-curvature="0"
       style="fill:#000000;fill-opacity:0.39215686;stroke:none"
       d="m 1.9374998,1004.3622 c -1.07727693,0 -1.93749992897644,0.8602 -1.93749992897644,1.9375 l 0,43.0625 c 0,0.7934 0.48002359897644,1.449 1.15624992897644,1.75 -0.30934163,-0.3333 -0.49999993,-0.7824 -0.49999993,-1.2812 l 0,-42.9375 c 0,-1.0482 0.82689893,-1.875 1.87499993,-1.875 l 42.9375002,0 c 1.048101,0 1.875,0.8268 1.875,1.875 l 0,42.9375 c 0,0.4988 -0.190658,0.9479 -0.5,1.2812 0.676226,-0.301 1.15625,-0.9566 1.15625,-1.75 l 0,-43.0625 c 0,-1.0773 -0.860223,-1.9375 -1.9375,-1.9375 L 1.9374998,1004.3622 Z"
       id="rect4280" />
    <g
       id="g1495"
       transform="matrix(0.66666666,0,0,0.66666666,51.567445,334.31291)">
      <path
         transform="matrix(1.1646465,0,0,1.2842588,22.648832,1113.6998)"
         d="m -34.345186,-56.550789 c 0,10.320999 -9.226118,18.687822 -20.607111,18.687822 -11.380993,0 -20.607111,-8.366823 -20.607111,-18.687822 0,-10.320999 9.226118,-18.687822 20.607111,-18.687822 C -43.571304,-75.238611 -34.345186,-66.871788 -34.345186,-56.550789 Z"
         sodipodi:ry="18.687822"
         sodipodi:rx="20.607111"
         sodipodi:cy="-56.550789"
         sodipodi:cx="-54.952297"
         id="path4307"
         style="opacity:0.54828659;color:#000000;fill:url(#radialGradient4591);fill-opacity:1;fill-rule:evenodd;stroke:none;stroke-width:2;marker:none;visibility:visible;display:inline;overflow:visible;enable-background:accumulate"
         sodipodi:type="arc" />
      <path
         transform="matrix(0.37309654,0,0,0.37309654,-65.283328,1047.399)"
         d="m 124.45079,-16.952808 c 0,33.306143 -26.999963,60.306106 -60.306106,60.306106 -33.306143,0 -60.3061067,-26.999963 -60.3061067,-60.306106 0,-33.306143 26.9999637,-60.306107 60.3061067,-60.306107 C 97.450827,-77.258915 124.45079,-50.258951 124.45079,-16.952808 Z"
         sodipodi:ry="60.306107"
         sodipodi:rx="60.306107"
         sodipodi:cy="-16.952808"
         sodipodi:cx="64.144684"
         id="path3253"
         style="color:#000000;fill:url(#radialGradient4593);fill-opacity:1;fill-rule:evenodd;stroke:none;stroke-width:2;marker:none;visibility:visible;display:inline;overflow:visible;enable-background:accumulate"
         sodipodi:type="arc" />
      <path
         transform="matrix(0.37309654,0,0,0.37309654,-65.283328,1047.399)"
         d="m 124.45079,-16.952808 c 0,33.306143 -26.999963,60.306106 -60.306106,60.306106 -33.306143,0 -60.3061067,-26.999963 -60.3061067,-60.306106 0,-33.306143 26.9999637,-60.306107 60.3061067,-60.306107 C 97.450827,-77.258915 124.45079,-50.258951 124.45079,-16.952808 Z"
         sodipodi:ry="60.306107"
         sodipodi:rx="60.306107"
         sodipodi:cy="-16.952808"
         sodipodi:cx="64.144684"
         id="path4449"
         style="color:#000000;fill:url(#radialGradient4595);fill-opacity:1;fill-rule:evenodd;stroke:none;stroke-width:2;marker:none;visibility:visible;display:inline;overflow:visible;enable-background:accumulate"
         sodipodi:type="arc" />
      <path
         inkscape:connector-curvature="0"
         id="path4540"
         d="m -41.351169,1019.5115 c -2.688611,0 -5.254631,0.5059 -7.628906,1.4063 6.535717,0.1146 10.224161,0.7934 13.570312,2.625 0.278847,0.1526 0.556575,0.3114 0.832032,0.4804 0.826372,0.5069 1.648256,1.0917 2.496093,1.7578 3.654323,2.8713 3.974145,6.3654 7.078125,9.0352 1.889723,1.6254 1.63395,1.4883 2.507813,1.4883 0.956396,0 1.443266,-0.8645 1.675781,-1.8047 C -23.602835,1025.8105 -31.741948,1019.5115 -41.351169,1019.5115 z m -8.648437,3.9609 c -0.456972,0 -0.912368,0.049 -1.359375,0.1407 -0.149003,0.03 -0.297743,0.066 -0.445313,0.1054 -4.131967,1.107 -7.667651,5.6653 -8.824219,7.7578 -0.07357,0.1332 -0.156951,0.2896 -0.234375,0.4336 -0.614137,1.304 -1.108646,2.6708 -1.453125,4.1016 0.330841,-0.4233 0.652813,-0.8206 0.972657,-1.1953 2.238903,-2.6231 4.287813,-4.043 7.230468,-4.043 5.25063,0 5.91771,2.3393 15.539063,8.6133 4.735245,3.0878 11.920849,7.346 17.847656,7.9805 0.243128,-0.7972 0.43572,-1.6159 0.585938,-2.4492 -2.217417,-0.1601 -4.214944,-1.0054 -6.375,-2.4375 -0.308581,-0.2046 -0.621244,-0.4161 -0.9375,-0.6446 -2.530039,-1.8277 -5.341846,-4.4118 -9,-7.6172 C -39.238082,1031.778 -46.243486,1023.4724 -49.999606,1023.4724 z m -7.523438,24.6211 c -1.66482,0 -2.907108,0.8439 -3.046875,2.7422 2.333895,4.582 6.253628,8.2174 11.039063,10.1836 -0.06343,-0.089 -0.123649,-0.1822 -0.1875,-0.2812 -0.446956,-0.693 -0.878907,-1.6303 -0.878907,-2.7071 0,-1.2526 0.810094,-1.7461 1.722657,-1.7461 1.215352,0 5.22705,1.9102 11.941406,1.9102 3.358402,0 7.548307,-0.492 10.617187,-1.6758 1.212083,-1.1801 2.278601,-2.5014 3.1875,-3.9375 -1.961565,0.7952 -5.588887,1.9453 -10.3125,1.9453 -9.125336,0 -17.447253,-3.895 -19.851562,-5.1445 C -53.93033,1049.0512 -55.565053,1048.0935 -57.523044,1048.0935 Z"
         style="color:#000000;fill:url(#radialGradient4597);fill-opacity:1;fill-rule:evenodd;stroke:none;stroke-width:2;marker:none;visibility:visible;display:inline;overflow:visible;enable-background:accumulate" />
    </g>
  </g>
</svg>
