<?xml version="1.0" encoding="UTF-8" standalone="no"?>
<!-- Created with Inkscape (http://www.inkscape.org/) -->

<svg
   xmlns:dc="http://purl.org/dc/elements/1.1/"
   xmlns:cc="http://creativecommons.org/ns#"
   xmlns:rdf="http://www.w3.org/1999/02/22-rdf-syntax-ns#"
   xmlns:svg="http://www.w3.org/2000/svg"
   xmlns="http://www.w3.org/2000/svg"
   xmlns:xlink="http://www.w3.org/1999/xlink"
   xmlns:sodipodi="http://sodipodi.sourceforge.net/DTD/sodipodi-0.dtd"
   xmlns:inkscape="http://www.inkscape.org/namespaces/inkscape"
   width="48"
   height="48"
   id="svg2"
   version="1.1"
   inkscape:version="0.48+devel r12501"
   sodipodi:docname="googleplus.svg"
   inkscape:export-filename="/home/uri/workspace/NitruxforAndroid/res/drawable-xhdpi/google_plus.png"
   inkscape:export-xdpi="180"
   inkscape:export-ydpi="180">
  <defs
     id="defs4">
    <linearGradient
       id="linearGradient4120"
       inkscape:collect="always">
      <stop
         id="stop4122"
         offset="0"
         style="stop-color:#fbaca9;stop-opacity:1" />
      <stop
         id="stop4124"
         offset="1"
         style="stop-color:#fef7f6;stop-opacity:1" />
    </linearGradient>
    <linearGradient
       inkscape:collect="always"
       id="linearGradient5555">
      <stop
         style="stop-color:#ec4d39;stop-opacity:1"
         offset="0"
         id="stop5557" />
      <stop
         style="stop-color:#ef6858;stop-opacity:1"
         offset="1"
         id="stop5559" />
    </linearGradient>
    <linearGradient
       inkscape:collect="always"
       xlink:href="#linearGradient5555"
       id="linearGradient5561"
       x1="27.223612"
       y1="-1052.3843"
       x2="27.223612"
       y2="-1004.3317"
       gradientUnits="userSpaceOnUse" />
    <linearGradient
       inkscape:collect="always"
       xlink:href="#linearGradient4120"
       id="linearGradient4118"
       x1="30.865248"
       y1="1043.738"
       x2="30.865248"
       y2="1013.0998"
       gradientUnits="userSpaceOnUse"
       gradientTransform="matrix(0.99979712,0,0,1,0.00174476,0)" />
  </defs>
  <sodipodi:namedview
     id="base"
     pagecolor="#ffffff"
     bordercolor="#666666"
     borderopacity="1.0"
     inkscape:pageopacity="0.0"
     inkscape:pageshadow="2"
     inkscape:zoom="8.8780204"
     inkscape:cx="14.751732"
     inkscape:cy="23.250628"
     inkscape:document-units="px"
     inkscape:current-layer="layer1"
     showgrid="false"
     inkscape:window-width="1366"
     inkscape:window-height="718"
     inkscape:window-x="0"
     inkscape:window-y="30"
     inkscape:window-maximized="1"
     showguides="false" />
  <metadata
     id="metadata7">
    <rdf:RDF>
      <cc:Work
         rdf:about="">
        <dc:format>image/svg+xml</dc:format>
        <dc:type
           rdf:resource="http://purl.org/dc/dcmitype/StillImage" />
        <dc:title />
      </cc:Work>
    </rdf:RDF>
  </metadata>
  <g
     inkscape:label="Capa 1"
     inkscape:groupmode="layer"
     id="layer1"
     transform="translate(0,-1004.3622)">
    <rect
       style="fill:url(#linearGradient5561);fill-opacity:1;stroke:none"
       id="rect2991-1-7"
       width="48"
       height="48"
       x="5.7610227e-06"
       y="-1052.3622"
       ry="1.9445436"
       transform="scale(1,-1)" />
    <path
       style="fill:#000000;fill-opacity:0.11764706;stroke:none;display:inline"
       d="m 19.866804,1014.1622 c -0.364264,-2e-4 -1.199896,0.034 -2.218971,0.2186 -2.408666,0.4354 -5.745919,1.9994 -6.688166,5.3092 -1.4572529,5.1187 2.281477,7.1831 2.281477,7.1831 0,0 1.332434,0.7544 1.875187,0.9057 1.631175,0.4549 3.375337,0.2498 3.375337,0.2498 0,0 -0.699647,2.2866 0.687567,3.9038 0.331188,0.3861 0.09376,0.406 0.09376,0.406 0,0 -6.068042,-0.1403 -8.938391,2.9045 -2.8703485,3.0447 -1.31263,5.8401 -1.31263,5.8401 0,0 1.509627,3.6874 8.000797,3.8727 6.520004,0.186 10.52389,-3.6769 10.876083,-6.5897 0.17703,-1.4641 -0.01612,-2.8604 -0.750075,-4.06 -0.713876,-1.1666 -1.959047,-2.1752 -3.156565,-3.1543 -0.744087,-0.6083 -1.260337,-0.9306 -1.593908,-1.2805 -0.315134,-0.3304 -0.386185,-0.7424 -0.375037,-1.0618 0.01558,-0.446 0.279988,-0.9993 1.062606,-1.9051 1.427743,-1.6524 1.793877,-1.4176 2.656514,-2.6546 0.258609,-0.3709 0.453392,-0.9428 0.718821,-1.7489 0.15991,-0.4855 0.125004,-0.9686 0.125013,-1.4366 2.9e-5,-1.0116 -0.251839,-1.9981 -0.656316,-2.8108 -0.751675,-1.5103 -2.037996,-2.4869 -2.062704,-2.5609 l 2.250224,0 2.562755,-1.4991 -8.625859,-0.031 C 20.054293,1014.1621 19.98822,1014.1622 19.866804,1014.1622 z m -1.843933,1.4054 c 1.3183,0.01 3.28242,0.6895 4.469194,4.2473 2.036554,6.1052 -2.21897,7.0582 -2.21897,7.0582 0,0 -4.883438,0.745 -5.781826,-4.6846 -0.915163,-5.5309 1.315674,-5.825 2.187717,-6.3711 C 16.678986,1015.8174 17.231888,1015.5621 18.022871,1015.5676 z m 15.032746,8.7133 0,4.2162 -4.250423,0 0,2.1237 4.250423,0 0,4.2161 2.093959,0 0,-4.2161 4.250423,0 0,-2.1237 -4.250423,0 0,-4.2162 L 33.055617,1024.2809 z m -12.376232,9.3068 c 0,0 3.91574,2.3752 4.281676,4.1224 0.409996,1.9572 0.439392,3.3733 -2.531502,4.9345 -0.877027,0.4609 -2.405984,0.5269 -3.375336,0.5309 -2.382552,0.011 -4.204965,-0.8835 -5.094257,-1.3429 -0.462154,-0.2387 -2.994328,-3.1386 -1.093859,-5.7152 0.478043,-0.6482 1.00793,-0.9502 1.500149,-1.2805 1.047516,-0.7028 2.06191,-1.0179 4.000399,-1.1868 C 19.011409,1033.5941 19.835703,1033.6455 20.679385,1033.5877 Z"
       id="path4090"
       inkscape:connector-curvature="0" />
    <path
       inkscape:connector-curvature="0"
       id="path4088"
       d="m 19.866804,1013.7622 c -0.364264,-2e-4 -1.199896,0.034 -2.218971,0.2186 -2.408666,0.4354 -5.745919,1.9994 -6.688166,5.3092 -1.4572529,5.1187 2.281477,7.1831 2.281477,7.1831 0,0 1.332434,0.7544 1.875187,0.9057 1.631175,0.4549 3.375337,0.2498 3.375337,0.2498 0,0 -0.699647,2.2866 0.687567,3.9038 0.331188,0.3861 0.09376,0.406 0.09376,0.406 0,0 -6.068042,-0.1403 -8.938391,2.9045 -2.8703485,3.0447 -1.31263,5.8401 -1.31263,5.8401 0,0 1.509627,3.6874 8.000797,3.8727 6.520004,0.186 10.52389,-3.6769 10.876083,-6.5897 0.17703,-1.4641 -0.01612,-2.8604 -0.750075,-4.06 -0.713876,-1.1666 -1.959047,-2.1752 -3.156565,-3.1543 -0.744087,-0.6083 -1.260337,-0.9306 -1.593908,-1.2805 -0.315134,-0.3304 -0.386185,-0.7424 -0.375037,-1.0618 0.01558,-0.446 0.279988,-0.9993 1.062606,-1.9051 1.427743,-1.6524 1.793877,-1.4176 2.656514,-2.6546 0.258609,-0.3709 0.453392,-0.9428 0.718821,-1.7489 0.15991,-0.4855 0.125004,-0.9686 0.125013,-1.4366 2.9e-5,-1.0116 -0.251839,-1.9981 -0.656316,-2.8108 -0.751675,-1.5103 -2.037996,-2.4869 -2.062704,-2.5609 l 2.250224,0 2.562755,-1.4991 -8.625859,-0.031 C 20.054293,1013.7621 19.98822,1013.7622 19.866804,1013.7622 z m -1.843933,1.4054 c 1.3183,0.01 3.28242,0.6895 4.469194,4.2473 2.036554,6.1052 -2.21897,7.0582 -2.21897,7.0582 0,0 -4.883438,0.745 -5.781826,-4.6846 -0.915163,-5.5309 1.315674,-5.825 2.187717,-6.3711 C 16.678986,1015.4174 17.231888,1015.1621 18.022871,1015.1676 z m 15.032746,8.7133 0,4.2162 -4.250423,0 0,2.1237 4.250423,0 0,4.2161 2.093959,0 0,-4.2161 4.250423,0 0,-2.1237 -4.250423,0 0,-4.2162 L 33.055617,1023.8809 z m -12.376232,9.3068 c 0,0 3.91574,2.3752 4.281676,4.1224 0.409996,1.9572 0.439392,3.3733 -2.531502,4.9345 -0.877027,0.4609 -2.405984,0.5269 -3.375336,0.5309 -2.382552,0.011 -4.204965,-0.8835 -5.094257,-1.3429 -0.462154,-0.2387 -2.994328,-3.1386 -1.093859,-5.7152 0.478043,-0.6482 1.00793,-0.9502 1.500149,-1.2805 1.047516,-0.7028 2.06191,-1.0179 4.000399,-1.1868 C 19.011409,1033.1941 19.835703,1033.2455 20.679385,1033.1877 Z"
       style="fill:#000000;fill-opacity:0.11764706;stroke:none;display:inline" />
    <path
       style="fill:#000000;fill-opacity:0.23529412;stroke:none;display:inline"
       d="m 19.866804,1013.3622 c -0.364264,-2e-4 -1.199896,0.034 -2.218971,0.2186 -2.408666,0.4354 -5.745919,1.9994 -6.688166,5.3092 -1.4572529,5.1187 2.281477,7.1831 2.281477,7.1831 0,0 1.332434,0.7544 1.875187,0.9057 1.631175,0.4549 3.375337,0.2498 3.375337,0.2498 0,0 -0.699647,2.2866 0.687567,3.9038 0.331188,0.3861 0.09376,0.406 0.09376,0.406 0,0 -6.068042,-0.1403 -8.938391,2.9045 -2.8703485,3.0447 -1.31263,5.8401 -1.31263,5.8401 0,0 1.509627,3.6874 8.000797,3.8727 6.520004,0.186 10.52389,-3.6769 10.876083,-6.5897 0.17703,-1.4641 -0.01612,-2.8604 -0.750075,-4.06 -0.713876,-1.1666 -1.959047,-2.1752 -3.156565,-3.1543 -0.744087,-0.6083 -1.260337,-0.9306 -1.593908,-1.2805 -0.315134,-0.3304 -0.386185,-0.7424 -0.375037,-1.0618 0.01558,-0.446 0.279988,-0.9993 1.062606,-1.9051 1.427743,-1.6524 1.793877,-1.4176 2.656514,-2.6546 0.258609,-0.3709 0.453392,-0.9428 0.718821,-1.7489 0.15991,-0.4855 0.125004,-0.9686 0.125013,-1.4366 2.9e-5,-1.0116 -0.251839,-1.9981 -0.656316,-2.8108 -0.751675,-1.5103 -2.037996,-2.4869 -2.062704,-2.5609 l 2.250224,0 2.562755,-1.4991 -8.625859,-0.031 C 20.054293,1013.3621 19.98822,1013.3622 19.866804,1013.3622 z m -1.843933,1.4054 c 1.3183,0.01 3.28242,0.6895 4.469194,4.2473 2.036554,6.1052 -2.21897,7.0582 -2.21897,7.0582 0,0 -4.883438,0.745 -5.781826,-4.6846 -0.915163,-5.5309 1.315674,-5.825 2.187717,-6.3711 C 16.678986,1015.0174 17.231888,1014.7621 18.022871,1014.7676 z m 15.032746,8.7133 0,4.2162 -4.250423,0 0,2.1237 4.250423,0 0,4.2161 2.093959,0 0,-4.2161 4.250423,0 0,-2.1237 -4.250423,0 0,-4.2162 L 33.055617,1023.4809 z m -12.376232,9.3068 c 0,0 3.91574,2.3752 4.281676,4.1224 0.409996,1.9572 0.439392,3.3733 -2.531502,4.9345 -0.877027,0.4609 -2.405984,0.5269 -3.375336,0.5309 -2.382552,0.011 -4.204965,-0.8835 -5.094257,-1.3429 -0.462154,-0.2387 -2.994328,-3.1386 -1.093859,-5.7152 0.478043,-0.6482 1.00793,-0.9502 1.500149,-1.2805 1.047516,-0.7028 2.06191,-1.0179 4.000399,-1.1868 C 19.011409,1032.7941 19.835703,1032.8455 20.679385,1032.7877 Z"
       id="path4083"
       inkscape:connector-curvature="0" />
    <path
       inkscape:connector-curvature="0"
       style="fill:#000000;fill-opacity:1;stroke:none"
       d="m -5.761023e-6,1049.3622 0,1.0625 c 0,1.0773 0.860220001023,1.9375 1.937499961023,1.9375 l 44.1249998,0 c 1.07728,0 1.9375,-0.8602 1.9375,-1.9375 l 0,-1.0625 c 0,1.0773 -0.86022,1.9375 -1.9375,1.9375 l -44.1249998,0 C 0.86021424,1051.2997 -5.761023e-6,1050.4395 -5.761023e-6,1049.3622 Z"
       id="rect846" />
    <path
       inkscape:connector-curvature="0"
       style="fill:#ffffff;fill-opacity:0.5372549;stroke:none"
       d="m 2.5312442,1005.0185 c -0.91709,0 -1.67114996,0.6395 -1.84374996,1.5 0.33560996,-0.2799 0.77450996,-0.4375 1.24999996,-0.4375 l 44.1249998,0 c 0.47549,0 0.91439,0.1576 1.25,0.4375 -0.1726,-0.8605 -0.92666,-1.5 -1.84375,-1.5 L 2.5312442,1005.0185 Z"
       id="path7515" />
    <path
       inkscape:connector-curvature="0"
       style="fill:#000000;fill-opacity:0.39215686;stroke:none"
       d="m 1.9374942,1004.3622 c -1.07727996,0 -1.937499961023,0.8602 -1.937499961023,1.9375 l 0,43.0625 c 0,0.7934 0.480020001023,1.449 1.156249961023,1.75 -0.30933996,-0.3333 -0.49999996,-0.7824 -0.49999996,-1.2812 l 0,-42.9375 c 0,-1.0482 0.82689996,-1.875 1.87499996,-1.875 l 42.9374998,0 c 1.0481,0 1.875,0.8268 1.875,1.875 l 0,42.9375 c 0,0.4988 -0.19066,0.9479 -0.5,1.2812 0.67623,-0.301 1.15625,-0.9566 1.15625,-1.75 l 0,-43.0625 c 0,-1.0773 -0.86022,-1.9375 -1.9375,-1.9375 L 1.9374942,1004.3622 Z"
       id="rect4280" />
    <g
       id="g4209"
       transform="translate(4.8067657e-7,1.9508419e-5)">
      <path
         inkscape:connector-curvature="0"
         id="path4077"
         d="m 19.864518,1012.9622 c -0.364191,-2e-4 -1.199652,0.034 -2.218521,0.2186 -2.408177,0.4354 -5.744754,1.9993 -6.68681,5.3092 -1.4569571,5.1187 2.281014,7.1831 2.281014,7.1831 0,0 1.332164,0.7544 1.874807,0.9057 1.630845,0.4549 3.374652,0.2498 3.374652,0.2498 0,0 -0.699504,2.2866 0.687429,3.9038 0.33112,0.3861 0.09374,0.4061 0.09374,0.4061 0,0 -6.066812,-0.1404 -8.936578,2.9044 -2.8697673,3.0447 -1.3123647,5.8402 -1.3123647,5.8402 0,0 1.5093197,3.6873 7.9991737,3.8726 6.518682,0.1861 10.521757,-3.6769 10.873878,-6.5897 0.176994,-1.4641 -0.01612,-2.8604 -0.749923,-4.06 -0.713731,-1.1666 -1.95865,-2.1752 -3.155924,-3.1543 -0.743937,-0.6083 -1.260082,-0.9306 -1.593585,-1.2805 -0.31507,-0.3304 -0.386108,-0.7424 -0.374961,-1.0618 0.01558,-0.4461 0.27993,-0.9992 1.062389,-1.9051 1.427454,-1.6523 1.793513,-1.4176 2.655976,-2.6546 0.258557,-0.3709 0.4533,-0.9428 0.718676,-1.7489 0.159877,-0.4855 0.124978,-0.9686 0.124987,-1.4367 2.9e-5,-1.0115 -0.251788,-1.998 -0.656182,-2.8107 -0.751523,-1.5103 -2.037583,-2.4869 -2.062287,-2.5609 l 2.249768,0 2.562235,-1.4991 -8.62411,-0.031 C 20.051968,1012.9621 19.98591,1012.9622 19.864518,1012.9622 z m -1.84356,1.4053 c 1.318034,0.01 3.281755,0.6896 4.468289,4.2474 2.03614,6.1051 -2.218521,7.0582 -2.218521,7.0582 0,0 -4.882446,0.745 -5.780653,-4.6847 -0.914978,-5.5308 1.315407,-5.825 2.187274,-6.371 C 16.677347,1014.6174 17.230136,1014.362 18.020958,1014.3675 z m 15.029698,8.7135 0,4.2161 -4.249561,0 0,2.1236 4.249561,0 0,4.2162 2.093535,0 0,-4.2162 4.24956,0 0,-2.1236 -4.24956,0 0,-4.2161 L 33.050656,1023.081 z m -12.373722,9.3067 c 0,0 3.914946,2.3753 4.280808,4.1225 0.409913,1.9572 0.439303,3.3733 -2.530989,4.9344 -0.876849,0.4609 -2.405497,0.5269 -3.374651,0.5309 -2.38207,0.011 -4.204113,-0.8835 -5.093224,-1.3429 -0.462061,-0.2386 -2.993721,-3.1386 -1.093638,-5.7152 0.477947,-0.6482 1.007726,-0.9502 1.499846,-1.2805 1.047304,-0.7027 2.061492,-1.0178 3.999587,-1.1867 C 19.009296,1032.3941 19.833424,1032.4456 20.676934,1032.3877 Z"
         style="fill:url(#linearGradient4118);fill-opacity:1;stroke:none;display:inline" />
      <path
         inkscape:connector-curvature="0"
         id="path4169"
         d="m 27.371191,1012.9745 -1.249746,0.7187 -2.249544,0 c 0.01287,0.039 0.368627,0.3048 0.812335,0.7813 l 1.437209,0 2.56198,-1.5 L 27.371191,1012.9745 z m -9.341854,0.5937 c -0.790823,-0.01 -1.343478,0.25 -1.343478,0.25 -0.762884,0.4778 -2.579895,0.7623 -2.405762,4.5313 0.097,-3.0237 1.699959,-3.308 2.405762,-3.75 0,0 0.552655,-0.2555 1.343478,-0.25 1.318033,0.01 3.28131,0.6922 4.467843,4.25 0.339241,1.0171 0.461136,1.8744 0.499899,2.625 0.0673,-0.9086 -0.03321,-2.0382 -0.499899,-3.4375 C 21.310647,1014.2292 19.34737,1013.5782 18.029337,1013.5682 z m 8.560762,6.2813 c -0.0146,0.2106 -0.05496,0.4123 -0.124974,0.625 -0.265376,0.8061 -0.460048,1.3791 -0.718604,1.75 -0.862463,1.237 -1.228257,1.0039 -2.655711,2.6562 -0.78246,0.9059 -1.046708,1.4602 -1.062285,1.9063 -0.0046,0.1319 0.02765,0.2862 0.06249,0.4375 0.117599,-0.3863 0.412953,-0.8519 0.999798,-1.5313 1.427454,-1.6523 1.793248,-1.4192 2.655711,-2.6562 0.258556,-0.3709 0.453228,-0.9439 0.718604,-1.75 C 26.625001,1020.8015 26.59009,1020.3176 26.590099,1019.8495 z m -15.96551,0.4062 c -0.260576,3.8243 2.624468,5.4063 2.624468,5.4063 0,0 1.331976,0.7549 1.874619,0.9062 1.514451,0.4224 2.995733,0.2731 3.218097,0.25 0.04982,-0.4872 0.156218,-0.8125 0.156218,-0.8125 0,0 -1.74347,0.2049 -3.374315,-0.25 -0.542643,-0.1513 -1.874619,-0.9062 -1.874619,-0.9062 C 13.249057,1024.8495 10.768478,1023.5123 10.624589,1020.2557 z m 7.717184,7.5313 c -0.05268,0.701 0.0208,1.6655 0.562386,2.5312 0.09882,-3e-4 0.374924,0 0.374924,0 0,0 0.237389,-0.02 -0.09373,-0.4062 C 18.613372,1029.245 18.399445,1028.4743 18.341773,1027.787 z m 10.466626,0.8125 0,0.8125 4.249138,0 0,-0.8125 L 28.808399,1028.5995 z m 6.342463,0 0,0.8125 4.249138,0 0,-0.8125 L 35.150862,1028.5995 z m -14.465814,2.9687 c -0.843511,0.058 -1.667408,0.01 -2.312031,0.062 -1.938095,0.1689 -2.951885,0.4848 -3.999189,1.1875 -0.49212,0.3303 -1.021749,0.6331 -1.499695,1.2813 -0.593777,0.8051 -0.760754,1.6602 -0.687361,2.4375 0.06977,-0.5384 0.291164,-1.0878 0.687361,-1.625 0.477946,-0.6482 1.007575,-0.951 1.499695,-1.2813 1.047304,-0.7027 2.061094,-1.0186 3.999189,-1.1875 0.644623,-0.056 1.46852,0 2.312031,-0.062 0,0 3.914519,2.3778 4.280381,4.125 0.08148,0.389 0.125378,0.7421 0.156218,1.0938 0.06903,-0.591 -0.01017,-1.2089 -0.156218,-1.9063 C 24.599567,1033.946 20.685048,1031.5682 20.685048,1031.5682 z m 12.372489,1.25 0,0.8125 2.093325,0 0,-0.8125 L 33.057537,1032.8182 z m -5.12396,2.9375 c -0.01,0.1958 -0.0072,0.3951 -0.03124,0.5938 -0.35212,2.9128 -4.354111,6.7798 -10.872794,6.5937 -6.489854,-0.1853 -7.9983765,-3.875 -7.9983765,-3.875 0,0 -0.3234826,-0.5887 -0.4061676,-1.5 -0.1098375,1.3677 0.4061676,2.3125 0.4061676,2.3125 0,0 1.5085225,3.6897 7.9983765,3.875 6.518683,0.1861 10.520674,-3.6809 10.872794,-6.5937 C 27.960001,1036.6849 27.960388,1036.2139 27.933577,1035.7557 Z"
         style="fill:#ec4d39;fill-opacity:0.31372549;stroke:none;display:inline" />
      <path
         inkscape:connector-curvature="0"
         id="path4174"
         d="m 19.872713,1012.9623 c -0.364192,-2e-4 -1.199432,0.034 -2.2183,0.2188 -2.408178,0.4354 -5.744088,2.0026 -6.686144,5.3125 -0.22947,0.8062 -0.337042,1.5289 -0.34368,2.1875 0.03722,-0.5464 0.16156,-1.1414 0.34368,-1.7813 0.942056,-3.3099 4.277966,-4.8771 6.686144,-5.3125 1.018868,-0.1846 1.854108,-0.2189 2.2183,-0.2187 0.121391,0 0.187432,-3e-4 0.187461,0 l 7.93589,0.031 0.687361,-0.4062 -8.623251,-0.031 C 20.060145,1012.962 19.994104,1012.9623 19.872713,1012.9623 z m 3.999188,1.9375 c 0.0247,0.074 1.310558,1.0522 2.062082,2.5625 0.404394,0.8127 0.656145,1.801 0.656116,2.8125 -3.88e-4,-0.1344 -3e-6,-0.2739 0,-0.4062 2.9e-5,-1.0115 -0.251722,-1.9998 -0.656116,-2.8125 -0.547986,-1.1013 -1.235763,-1.7656 -1.655914,-2.1563 L 23.871901,1014.8998 z m -9.591804,4.25 c 0.0047,0.6363 0.07336,1.3714 0.218706,2.25 0.898207,5.4297 5.780077,4.6875 5.780077,4.6875 0,0 2.560217,-0.6028 2.718199,-3.7812 -0.337627,2.8436 -2.718199,3.375 -2.718199,3.375 0,0 -4.88187,0.7422 -5.780077,-4.6875 C 14.384431,1020.3022 14.304973,1019.6882 14.280097,1019.1498 z m 18.77744,3.9375 0,0.4063 2.093325,0 0,-0.4063 L 33.057537,1023.0873 z m -14.653276,4.1563 c -0.04999,0.2807 -0.111627,0.6968 -0.09373,1.1562 0.02672,-0.6707 0.187461,-1.1562 0.187461,-1.1562 C 18.497991,1027.2436 18.41051,1027.2429 18.404261,1027.2436 z m 10.404138,0.062 0,0.4062 4.249138,0 0,-0.4062 L 28.808399,1027.3061 z m 6.342463,0 0,0.4062 4.249138,0 0,-0.4062 L 35.150862,1027.3061 z m -13.091093,0.5625 c -0.0074,0.049 -0.02961,0.1095 -0.03124,0.1562 -0.01115,0.3194 0.05986,0.7321 0.374924,1.0625 0.333503,0.3499 0.84949,0.673 1.593427,1.2813 1.197274,0.9791 2.441878,1.9896 3.155609,3.1562 0.523585,0.856 0.777329,1.8031 0.812335,2.8125 0.02239,-1.1564 -0.220185,-2.2507 -0.812335,-3.2187 -0.713731,-1.1666 -1.958335,-2.1772 -3.155609,-3.1563 -0.743937,-0.6083 -1.259924,-0.9313 -1.593427,-1.2812 C 22.162576,1028.4285 22.087701,1028.1387 22.059769,1027.8686 z m -2.874417,3.2812 c -0.272493,0 -6.039384,-0.067 -8.841956,2.9063 -1.513562,1.6058 -1.7898342,3.1251 -1.7184011,4.2187 0.022889,-1.0512 0.3863995,-2.3993 1.7184011,-3.8125 2.869766,-3.0448 8.935687,-2.9062 8.935687,-2.9062 C 19.279083,1031.5561 19.516472,1031.5359 19.185352,1031.1498 z m -6.99858,5.9688 c -0.156797,1.976 1.425236,3.7226 1.780889,3.9062 0.889111,0.4594 2.710647,1.3548 5.092716,1.3438 0.969155,0 2.497467,-0.07 3.374316,-0.5313 2.31141,-1.2148 2.805522,-2.325 2.718198,-3.6875 -0.03769,1.1863 -0.638624,2.2196 -2.718198,3.3125 -0.876849,0.4609 -2.405161,0.5273 -3.374316,0.5313 -2.382069,0.011 -4.203605,-0.8844 -5.092716,-1.3438 C 13.636577,1040.4789 12.251255,1038.9243 12.186772,1037.1186 Z"
         style="fill:#ffffff;fill-opacity:0.23529412;stroke:none;display:inline" />
    </g>
  </g>
</svg>
