<?xml version="1.0" encoding="UTF-8" standalone="no"?>
<svg
   xmlns:dc="http://purl.org/dc/elements/1.1/"
   xmlns:cc="http://creativecommons.org/ns#"
   xmlns:rdf="http://www.w3.org/1999/02/22-rdf-syntax-ns#"
   xmlns:svg="http://www.w3.org/2000/svg"
   xmlns="http://www.w3.org/2000/svg"
   xmlns:xlink="http://www.w3.org/1999/xlink"
   xmlns:sodipodi="http://sodipodi.sourceforge.net/DTD/sodipodi-0.dtd"
   xmlns:inkscape="http://www.inkscape.org/namespaces/inkscape"
   width="48"
   viewBox="0 0 13.546667 13.546667"
   height="48"
   id="svg2"
   version="1.1"
   inkscape:version="0.48+devel r"
   sodipodi:docname="chrome-nckgahadagoaajjgafhacjanaoiihapd-Default.svg">
  <metadata
     id="metadata26">
    <rdf:RDF>
      <cc:Work
         rdf:about="">
        <dc:format>image/svg+xml</dc:format>
        <dc:type
           rdf:resource="http://purl.org/dc/dcmitype/StillImage" />
      </cc:Work>
    </rdf:RDF>
  </metadata>
  <sodipodi:namedview
     pagecolor="#ffffff"
     bordercolor="#666666"
     borderopacity="1"
     objecttolerance="10"
     gridtolerance="10"
     guidetolerance="10"
     inkscape:pageopacity="0"
     inkscape:pageshadow="2"
     inkscape:window-width="1366"
     inkscape:window-height="665"
     id="namedview24"
     showgrid="false"
     inkscape:zoom="2.2989508"
     inkscape:cx="-12.805848"
     inkscape:cy="-4.1239893"
     inkscape:window-x="-2"
     inkscape:window-y="26"
     inkscape:window-maximized="1"
     inkscape:current-layer="svg2" />
  <defs
     id="defs4">
    <linearGradient
       inkscape:collect="always"
       id="linearGradient4109">
      <stop
         style="stop-color:#c4f4cc;stop-opacity:1"
         offset="0"
         id="stop4111" />
      <stop
         style="stop-color:#f7fdf8;stop-opacity:1"
         offset="1"
         id="stop4113" />
    </linearGradient>
    <linearGradient
       id="linearGradient5555"
       inkscape:collect="always">
      <stop
         id="stop5557"
         offset="0"
         style="stop-color:#1a862b;stop-opacity:1" />
      <stop
         id="stop5559"
         offset="1"
         style="stop-color:#21a637;stop-opacity:1" />
    </linearGradient>
    <linearGradient
       gradientUnits="userSpaceOnUse"
       y2="-1004.3317"
       x2="27.223612"
       y1="-1052.3843"
       x1="27.223612"
       id="linearGradient5561"
       xlink:href="#linearGradient5555"
       inkscape:collect="always" />
    <linearGradient
       gradientTransform="matrix(0.9625,0,0,0.9625,49.840869,1005.469)"
       gradientUnits="userSpaceOnUse"
       y2="7.7842965"
       x2="-20.070896"
       y1="39.779808"
       x1="-20.070896"
       id="linearGradient4066"
       xlink:href="#linearGradient4109"
       inkscape:collect="always" />
    <linearGradient
       gradientUnits="userSpaceOnUse"
       y2="1018.8622"
       x2="24.36108"
       y1="1029.7997"
       x1="24.36108"
       id="linearGradient4119"
       xlink:href="#linearGradient5555"
       inkscape:collect="always" />
  </defs>
  <g
     transform="matrix(0.28222223,0,0,0.28222223,-1.9999963e-8,-283.45334)"
     id="layer1"
     inkscape:label="Capa 1">
    <rect
       transform="scale(1,-1)"
       ry="1.9445436"
       y="-1052.3622"
       x="5.7610227e-06"
       height="48"
       width="48"
       id="rect2991-1-7"
       style="fill:url(#linearGradient5561);fill-opacity:1;stroke:none" />
    <path
       style="fill:#000000;fill-opacity:0.05882353;stroke:none"
       d="m 24,1014.3622 c -8.505185,0 -15.4000004,5.1711 -15.4000004,11.55 0,6.2812 6.6894054,11.38 15.0146234,11.535 l 0,7.715 C 39.431633,1036.0303 39.4,1030.2739 39.4,1025.9122 c 0,-6.3789 -6.894815,-11.55 -15.4,-11.55 z"
       id="path4076"
       inkscape:connector-curvature="0" />
    <path
       inkscape:connector-curvature="0"
       id="path4074"
       d="m 24,1013.7622 c -8.505185,0 -15.4000004,5.1711 -15.4000004,11.55 0,6.2812 6.6894054,11.38 15.0146234,11.535 l 0,7.715 C 39.431633,1035.4303 39.4,1029.6739 39.4,1025.3122 c 0,-6.3789 -6.894815,-11.55 -15.4,-11.55 z"
       style="fill:#000000;fill-opacity:0.11764706;stroke:none" />
    <path
       style="fill:#000000;fill-opacity:0.23529412;stroke:none"
       d="m 24,1013.3622 c -8.505185,0 -15.4000004,5.1711 -15.4000004,11.55 0,6.2812 6.6894054,11.38 15.0146234,11.535 l 0,7.715 C 39.431633,1035.0303 39.4,1029.2739 39.4,1024.9122 c 0,-6.3789 -6.894815,-11.55 -15.4,-11.55 z"
       id="path4070"
       inkscape:connector-curvature="0" />
    <path
       id="rect846"
       d="m -5.761023e-6,1049.3622 0,1.0625 c 0,1.0773 0.860220001023,1.9375 1.937499961023,1.9375 l 44.1249998,0 c 1.07728,0 1.9375,-0.8602 1.9375,-1.9375 l 0,-1.0625 c 0,1.0773 -0.86022,1.9375 -1.9375,1.9375 l -44.1249998,0 c -1.07727996,0 -1.937499961023,-0.8602 -1.937499961023,-1.9375 z"
       style="fill:#000000;fill-opacity:1;stroke:none"
       inkscape:connector-curvature="0" />
    <path
       id="path7515"
       d="m 2.5312442,1005.0185 c -0.91709,0 -1.67114996,0.6395 -1.84374996,1.5 0.33560996,-0.2799 0.77450996,-0.4375 1.24999996,-0.4375 l 44.1249998,0 c 0.47549,0 0.91439,0.1576 1.25,0.4375 -0.1726,-0.8605 -0.92666,-1.5 -1.84375,-1.5 l -42.9374998,0 z"
       style="fill:#ffffff;fill-opacity:0.5372549;stroke:none"
       inkscape:connector-curvature="0" />
    <path
       id="rect4280"
       d="m 1.9374942,1004.3622 c -1.07727996,0 -1.937499961023,0.8602 -1.937499961023,1.9375 l 0,43.0625 c 0,0.7934 0.480020001023,1.449 1.156249961023,1.75 -0.30933996,-0.3333 -0.49999996,-0.7824 -0.49999996,-1.2812 l 0,-42.9375 c 0,-1.0482 0.82689996,-1.875 1.87499996,-1.875 l 42.9374998,0 c 1.0481,0 1.875,0.8268 1.875,1.875 l 0,42.9375 c 0,0.4988 -0.19066,0.9479 -0.5,1.2812 0.67623,-0.301 1.15625,-0.9566 1.15625,-1.75 l 0,-43.0625 c 0,-1.0773 -0.86022,-1.9375 -1.9375,-1.9375 l -44.1249998,0 z"
       style="fill:#000000;fill-opacity:0.39215686;stroke:none"
       inkscape:connector-curvature="0" />
    <path
       inkscape:connector-curvature="0"
       id="path4084"
       d="m 24,1012.9622 c -8.505185,0 -15.4000004,5.1711 -15.4000004,11.55 0,6.2812 6.6894054,11.38 15.0146234,11.535 l 0,7.715 C 39.431633,1034.6303 39.4,1028.8739 39.4,1024.5122 c 0,-6.3789 -6.894815,-11.55 -15.4,-11.55 z"
       style="fill:url(#linearGradient4066);fill-opacity:1;stroke:none" />
    <path
       id="path4080"
       transform="translate(0,1004.3622)"
       d="m 8.6269531,19.751953 c -0.00608,0.133329 -0.027344,0.263998 -0.027344,0.398438 0,6.2812 6.6904069,11.380156 15.0156249,11.535156 l 0,-0.800781 C 15.469871,30.733114 8.9074315,25.845755 8.6269531,19.751953 Z m 30.7617189,0.236328 c -0.03036,4.286106 -0.697016,9.907004 -15.773438,18.611328 l 0,0.800782 c 15.81701,-9.1319 15.785157,-14.8883 15.785157,-19.25 0,-0.05471 -0.01071,-0.107578 -0.01172,-0.16211 z"
       style="fill:#1a862b;fill-opacity:0.31372549;stroke:none"
       inkscape:connector-curvature="0" />
    <path
       id="path4085"
       transform="translate(0,1004.3622)"
       d="m 24,8.5996094 c -8.505185,0 -15.4003906,5.1718816 -15.4003906,11.5507816 0,0.06796 0.012112,0.133491 0.013672,0.201171 C 8.7564817,14.065504 15.584441,9 24,9 c 8.469148,0 15.336446,5.129094 15.394531,11.470703 1.71e-4,-0.103988 0.0059,-0.217888 0.0059,-0.320312 0,-6.3789 -6.895206,-11.5507816 -15.400391,-11.5507816 z"
       style="fill:#ffffff;fill-opacity:0.23529412;stroke:none"
       inkscape:connector-curvature="0" />
    <path
       style="fill:#000000;fill-opacity:0.23529412;fill-rule:evenodd;stroke:none"
       d="m 16.798586,1019.2622 0,5.9347 4.200966,0 c 0.02011,0.139 0.03808,0.2791 0.03808,0.4239 0,1.4935 -1.107348,2.7169 -2.543431,2.9242 l 0,1.7172 c 2.37639,-0.2144 4.239051,-2.2092 4.239051,-4.6414 0,-0.1431 -0.0073,-0.2842 -0.01987,-0.4239 l 0.01987,0 0,-5.9347 -5.934672,0 z m 8.468168,0 0,5.9347 4.200966,0 c 0.02011,0.139 0.03808,0.2791 0.03808,0.4239 0,1.4935 -1.107348,2.7169 -2.543431,2.9242 l 0,1.7172 c 2.37639,-0.2144 4.239051,-2.2092 4.239051,-4.6414 0,-0.143 -0.0073,-0.2841 -0.01987,-0.4239 l 0.01987,0 0,-5.9347 -5.934672,0 z"
       id="path4111"
       inkscape:connector-curvature="0" />
    <path
       inkscape:connector-curvature="0"
       id="rect4090"
       d="m 16.798586,1018.8622 0,5.9347 4.200966,0 c 0.02011,0.139 0.03808,0.2791 0.03808,0.4239 0,1.4935 -1.107348,2.7169 -2.543431,2.9242 l 0,1.7172 c 2.37639,-0.2144 4.239051,-2.2092 4.239051,-4.6414 0,-0.1431 -0.0073,-0.2842 -0.01987,-0.4239 l 0.01987,0 0,-5.9347 -5.934672,0 z m 8.468168,0 0,5.9347 4.200966,0 c 0.02011,0.139 0.03808,0.2791 0.03808,0.4239 0,1.4935 -1.107348,2.7169 -2.543431,2.9242 l 0,1.7172 c 2.37639,-0.2144 4.239051,-2.2092 4.239051,-4.6414 0,-0.143 -0.0073,-0.2841 -0.01987,-0.4239 l 0.01987,0 0,-5.9347 -5.934672,0 z"
       style="fill:url(#linearGradient4119);fill-opacity:1;fill-rule:evenodd;stroke:none" />
    <path
       transform="translate(0,1004.3622)"
       id="path4125"
       d="m 16.798828,19.634766 0,0.800781 4.201172,0 c 5.6e-4,0.0039 0.0014,0.0078 0.002,0.01172 0.01693,-0.127868 0.03516,-0.25602 0.03516,-0.388672 0,-0.1448 -0.017,-0.284828 -0.03711,-0.423828 l -4.201172,0 z m 5.914063,0 c 0.01257,0.1397 0.01953,0.280728 0.01953,0.423828 l 0,-0.423828 -0.01953,0 z m 0.01953,0.423828 c 0,2.4322 -1.861891,4.426225 -4.238281,4.640625 l 0,0.800781 c 2.37639,-0.2144 4.238281,-2.208425 4.238281,-4.640625 0,-0.1431 -0.007,-0.284128 -0.01953,-0.423828 l 0.01953,0 0,-0.376953 z m 2.535156,-0.423828 0,0.800781 4.199219,0 c 0.001,0.007 9.47e-4,0.01443 0.002,0.02148 0.01778,-0.130974 0.03711,-0.262419 0.03711,-0.398437 0,-0.1448 -0.01895,-0.284828 -0.03906,-0.423828 l -4.199219,0 z m 5.914063,0 c 0.01257,0.1398 0.01953,0.280828 0.01953,0.423828 l 0,-0.423828 -0.01953,0 z m 0.01953,0.423828 c 0,2.4322 -1.861891,4.426225 -4.238281,4.640625 l 0,0.800781 c 2.37639,-0.2144 4.238281,-2.208425 4.238281,-4.640625 0,-0.143 -0.007,-0.284028 -0.01953,-0.423828 l 0.01953,0 0,-0.376953 z"
       style="fill:#0d4315;fill-opacity:0.31372549;fill-rule:evenodd;stroke:none"
       inkscape:connector-curvature="0" />
    <path
       id="path4149"
       transform="translate(0,1004.3622)"
       d="m 16.798828,14.5 0,0.800781 5.933594,0 0,-0.800781 -5.933594,0 z m 8.46875,0 0,0.800781 5.933594,0 0,-0.800781 -5.933594,0 z m -4.265625,6.746094 c -0.173421,1.312031 -1.199097,2.348195 -2.507812,2.537109 l 0,0.798828 c 1.436083,-0.2073 2.542968,-1.430328 2.542968,-2.923828 0,-0.140769 -0.01573,-0.276917 -0.03516,-0.412109 z m 8.466797,0.0098 c -0.177257,1.307388 -1.200393,2.338899 -2.505859,2.527344 l 0,0.798828 c 1.436083,-0.2073 2.542968,-1.430328 2.542968,-2.923828 0,-0.137461 -0.01826,-0.270274 -0.03711,-0.402344 z"
       style="fill:#ffffff;fill-opacity:0.23529412;fill-rule:evenodd;stroke:none"
       inkscape:connector-curvature="0" />
  </g>
</svg>
