<?xml version="1.0" encoding="UTF-8" standalone="no"?>
<!-- Created with Inkscape (http://www.inkscape.org/) -->

<svg
   xmlns:dc="http://purl.org/dc/elements/1.1/"
   xmlns:cc="http://creativecommons.org/ns#"
   xmlns:rdf="http://www.w3.org/1999/02/22-rdf-syntax-ns#"
   xmlns:svg="http://www.w3.org/2000/svg"
   xmlns="http://www.w3.org/2000/svg"
   xmlns:xlink="http://www.w3.org/1999/xlink"
   xmlns:sodipodi="http://sodipodi.sourceforge.net/DTD/sodipodi-0.dtd"
   xmlns:inkscape="http://www.inkscape.org/namespaces/inkscape"
   width="48"
   height="48"
   id="svg2"
   version="1.1"
   inkscape:version="0.48+devel r12510"
   sodipodi:docname="google-docs.svg"
   inkscape:export-filename="/home/uri/workspace/NitruxforAndroid/res/drawable-xhdpi/google_search.png"
   inkscape:export-xdpi="180"
   inkscape:export-ydpi="180">
  <defs
     id="defs4">
    <linearGradient
       id="linearGradient4102"
       inkscape:collect="always">
      <stop
         id="stop4104"
         offset="0"
         style="stop-color:#afcdf5;stop-opacity:1" />
      <stop
         id="stop4106"
         offset="1"
         style="stop-color:#f6f9fe;stop-opacity:1" />
    </linearGradient>
    <linearGradient
       inkscape:collect="always"
       id="linearGradient5555">
      <stop
         style="stop-color:#2d7ce6;stop-opacity:1"
         offset="0"
         id="stop5557" />
      <stop
         style="stop-color:#4990f1;stop-opacity:1"
         offset="1"
         id="stop5559" />
    </linearGradient>
    <linearGradient
       gradientUnits="userSpaceOnUse"
       y2="-1004.3317"
       x2="27.223612"
       y1="-1052.3843"
       x1="27.223612"
       id="linearGradient5561-0"
       xlink:href="#linearGradient5555"
       inkscape:collect="always"
       gradientTransform="translate(-3.1091309e-7,-8.691406e-6)" />
    <linearGradient
       inkscape:collect="always"
       xlink:href="#linearGradient4102"
       id="linearGradient4062"
       x1="61.3526"
       y1="39.3974"
       x2="61.3526"
       y2="8.5923328"
       gradientUnits="userSpaceOnUse"
       gradientTransform="matrix(0.99997461,0,0,0.99997462,-37.281647,1004.3632)" />
  </defs>
  <sodipodi:namedview
     id="base"
     pagecolor="#ffffff"
     bordercolor="#666666"
     borderopacity="1.0"
     inkscape:pageopacity="0.0"
     inkscape:pageshadow="2"
     inkscape:zoom="5.6568543"
     inkscape:cx="50.554678"
     inkscape:cy="9.2275565"
     inkscape:document-units="px"
     inkscape:current-layer="layer1"
     showgrid="false"
     inkscape:window-width="1366"
     inkscape:window-height="718"
     inkscape:window-x="0"
     inkscape:window-y="30"
     inkscape:window-maximized="1"
     showguides="false" />
  <metadata
     id="metadata7">
    <rdf:RDF>
      <cc:Work
         rdf:about="">
        <dc:format>image/svg+xml</dc:format>
        <dc:type
           rdf:resource="http://purl.org/dc/dcmitype/StillImage" />
        <dc:title></dc:title>
      </cc:Work>
    </rdf:RDF>
  </metadata>
  <g
     inkscape:label="Capa 1"
     inkscape:groupmode="layer"
     id="layer1"
     transform="translate(0,-1004.3622)">
    <rect
       style="fill:url(#linearGradient5561-0);fill-opacity:1;stroke:none"
       id="rect2991-1-7-2"
       width="48"
       height="48"
       x="6.3109132e-06"
       y="-1052.3622"
       ry="1.9445436"
       transform="scale(1,-1)" />
    <path
       inkscape:connector-curvature="0"
       id="path4089"
       d="m 8.6,1014.1622 0,6.9998 30.8,0 0,-6.9998 -30.8,0 z m 0,11.9001 0,6.9998 30.8,0 0,-6.9998 -30.8,0 z m 0,11.9001 0,6.9998 30.8,0 0,-6.9998 -30.8,0 z"
       style="fill:#000000;fill-opacity:0.05882353;fill-rule:evenodd;stroke:none" />
    <path
       style="fill:#000000;fill-opacity:0.11764706;fill-rule:evenodd;stroke:none"
       d="m 8.6,1013.7622 0,6.9998 30.8,0 0,-6.9998 -30.8,0 z m 0,11.9001 0,6.9998 30.8,0 0,-6.9998 -30.8,0 z m 0,11.9001 0,6.9998 30.8,0 0,-6.9998 -30.8,0 z"
       id="path4087"
       inkscape:connector-curvature="0" />
    <path
       inkscape:connector-curvature="0"
       id="path4083"
       d="m 8.6,1013.3622 0,6.9998 30.8,0 0,-6.9998 -30.8,0 z m 0,11.9001 0,6.9998 30.8,0 0,-6.9998 -30.8,0 z m 0,11.9001 0,6.9998 30.8,0 0,-6.9998 -30.8,0 z"
       style="fill:#000000;fill-opacity:0.23529412;fill-rule:evenodd;stroke:none" />
    <path
       inkscape:connector-curvature="0"
       style="fill:#000000;fill-opacity:1;stroke:none"
       d="m -6.3109131e-6,1049.3622 0,1.0625 c 0,1.0773 0.8602200009131,1.9375 1.9375000109131,1.9375 l 44.1249993,0 c 1.07728,0 1.9375,-0.8602 1.9375,-1.9375 l 0,-1.0625 c 0,1.0773 -0.86022,1.9375 -1.9375,1.9375 l -44.1249993,0 C 0.86021369,1051.2997 -6.3109131e-6,1050.4395 -6.3109131e-6,1049.3622 Z"
       id="rect846-3" />
    <path
       inkscape:connector-curvature="0"
       style="fill:#ffffff;fill-opacity:0.5372549;stroke:none"
       d="m 2.5312437,1005.0185 c -0.91709,0 -1.67115001,0.6395 -1.84375001,1.5 0.33561001,-0.2799 0.77451001,-0.4375 1.25000001,-0.4375 l 44.1249993,0 c 0.47549,0 0.91439,0.1576 1.25,0.4375 -0.1726,-0.8605 -0.92666,-1.5 -1.84375,-1.5 L 2.5312437,1005.0185 Z"
       id="path7515-3" />
    <path
       inkscape:connector-curvature="0"
       style="fill:#000000;fill-opacity:0.39215686;stroke:none"
       d="m 1.9374937,1004.3622 c -1.07728001,0 -1.9375000109131,0.8602 -1.9375000109131,1.9375 l 0,43.0625 c 0,0.7934 0.4800200009131,1.449 1.1562500109131,1.75 -0.30934001,-0.3333 -0.50000001,-0.7824 -0.50000001,-1.2812 l 0,-42.9375 c 0,-1.0482 0.82690001,-1.875 1.87500001,-1.875 l 42.9374993,0 c 1.0481,0 1.875,0.8268 1.875,1.875 l 0,42.9375 c 0,0.4988 -0.19066,0.9479 -0.5,1.2812 0.67623,-0.301 1.15625,-0.9566 1.15625,-1.75 l 0,-43.0625 c 0,-1.0773 -0.86022,-1.9375 -1.9375,-1.9375 L 1.9374937,1004.3622 Z"
       id="rect4280-2" />
    <path
       style="fill:url(#linearGradient4062);fill-opacity:1;fill-rule:evenodd;stroke:none"
       d="m 8.6,1012.9626 0,6.9998 30.8,0 0,-6.9998 -30.8,0 z m 0,11.9001 0,6.9998 30.8,0 0,-6.9998 -30.8,0 z m 0,11.9001 0,6.9998 30.8,0 0,-6.9998 -30.8,0 z"
       id="rect3249"
       inkscape:connector-curvature="0" />
    <path
       style="fill:#2d7ce6;fill-opacity:0.31372549;fill-rule:evenodd;stroke:none"
       d="m 8.6,1019.163 0,0.7988 30.8,0 0,-0.7988 -30.8,0 z m 0,11.9004 0,0.7988 30.8,0 0,-0.7988 -30.8,0 z m 0,11.8984 0,0.8008 30.8,0 0,-0.8008 -30.8,0 z"
       id="path4073"
       inkscape:connector-curvature="0" />
    <path
       style="fill:#ffffff;fill-opacity:0.23529412;fill-rule:evenodd;stroke:none"
       d="m 8.6,1012.9626 0,0.4004 30.8,0 0,-0.4004 -30.8,0 z m 0,11.8998 0,0.4004 30.8,0 0,-0.4004 -30.8,0 z m 0,11.8998 0,0.4004 30.8,0 0,-0.4004 -30.8,0 z"
       id="path4078"
       inkscape:connector-curvature="0" />
  </g>
</svg>
