<?xml version="1.0" encoding="UTF-8" standalone="no"?>
<!-- Created with Inkscape (http://www.inkscape.org/) -->

<svg
   xmlns:dc="http://purl.org/dc/elements/1.1/"
   xmlns:cc="http://creativecommons.org/ns#"
   xmlns:rdf="http://www.w3.org/1999/02/22-rdf-syntax-ns#"
   xmlns:svg="http://www.w3.org/2000/svg"
   xmlns="http://www.w3.org/2000/svg"
   xmlns:xlink="http://www.w3.org/1999/xlink"
   xmlns:sodipodi="http://sodipodi.sourceforge.net/DTD/sodipodi-0.dtd"
   xmlns:inkscape="http://www.inkscape.org/namespaces/inkscape"
   width="48"
   height="48"
   id="svg2"
   version="1.1"
   inkscape:version="0.48+devel r12487"
   sodipodi:docname="unison.svg">
  <defs
     id="defs4">
    <linearGradient
       inkscape:collect="always"
       id="linearGradient4172">
      <stop
         style="stop-color:#1c8eff;stop-opacity:1;"
         offset="0"
         id="stop4174" />
      <stop
         style="stop-color:#44d2ff;stop-opacity:1"
         offset="1"
         id="stop4176" />
    </linearGradient>
    <linearGradient
       id="linearGradient827">
      <stop
         id="stop829"
         offset="0"
         style="stop-color:#a5e1ff;stop-opacity:1" />
      <stop
         id="stop831"
         offset="1"
         style="stop-color:#f5fcff;stop-opacity:1" />
    </linearGradient>
    <linearGradient
       inkscape:collect="always"
       xlink:href="#linearGradient4172"
       id="linearGradient1427"
       x1="25.455843"
       y1="-1052.3833"
       x2="25.455843"
       y2="-1004.3481"
       gradientUnits="userSpaceOnUse" />
    <linearGradient
       inkscape:collect="always"
       xlink:href="#linearGradient827"
       id="linearGradient4126"
       x1="31.055349"
       y1="40.088562"
       x2="31.055349"
       y2="8.088563"
       gradientUnits="userSpaceOnUse" />
    <linearGradient
       inkscape:collect="always"
       xlink:href="#linearGradient4172"
       id="linearGradient4178"
       x1="33.732384"
       y1="1039.6708"
       x2="33.732384"
       y2="1021.4687"
       gradientUnits="userSpaceOnUse"
       gradientTransform="matrix(1.0232555,0,0,1.0042842,-0.55813467,-4.2499778)" />
  </defs>
  <sodipodi:namedview
     id="base"
     pagecolor="#ffffff"
     bordercolor="#666666"
     borderopacity="1.0"
     inkscape:pageopacity="0.0"
     inkscape:pageshadow="2"
     inkscape:zoom="5.9883109"
     inkscape:cx="34.674389"
     inkscape:cy="29.893074"
     inkscape:document-units="px"
     inkscape:current-layer="layer1"
     showgrid="false"
     inkscape:window-width="1366"
     inkscape:window-height="718"
     inkscape:window-x="0"
     inkscape:window-y="30"
     inkscape:window-maximized="1">
    <inkscape:grid
       type="xygrid"
       id="grid3850" />
  </sodipodi:namedview>
  <metadata
     id="metadata7">
    <rdf:RDF>
      <cc:Work
         rdf:about="">
        <dc:format>image/svg+xml</dc:format>
        <dc:type
           rdf:resource="http://purl.org/dc/dcmitype/StillImage" />
        <dc:title />
      </cc:Work>
    </rdf:RDF>
  </metadata>
  <g
     inkscape:label="Capa 1"
     inkscape:groupmode="layer"
     id="layer1"
     transform="translate(0,-1004.3622)">
    <rect
       style="fill:url(#linearGradient1427);fill-opacity:1.0;stroke:none"
       id="rect2991-1"
       width="48"
       height="48"
       x="-8.5906983e-08"
       y="-1052.3622"
       ry="1.9445436"
       transform="scale(1,-1)" />
    <path
       id="path4192"
       d="m 25.623047,1013.5622 c -5.768461,0 -10.645137,3.8127 -12.251953,9.0547 C 7.55006,1023.1854 3,1028.0899 3,1034.0602 c 0,6.3522 5.149758,11.502 11.501953,11.502 0.13782,0 0.271556,-0.015 0.408203,-0.019 0.0678,0 0.132134,0.019 0.201172,0.019 l 20.53125,0 c 0.0543,0 0.10466,-0.013 0.158203,-0.016 0.107772,0 0.213547,0.016 0.322266,0.016 4.902448,0 8.876953,-3.9745 8.876953,-8.877 0,-4.147 -2.84757,-7.6188 -6.691406,-8.5937 0.07541,-0.5624 0.128906,-1.1318 0.128906,-1.7148 C 38.4375,1019.2996 32.700117,1013.5622 25.623047,1013.5622 Z"
       style="fill:#000000;fill-opacity:0.05882353;stroke:none"
       inkscape:connector-curvature="0" />
    <path
       inkscape:connector-curvature="0"
       style="fill:#000000;fill-opacity:0.11764706;stroke:none"
       d="m 25.623047,1013.1622 c -5.768461,0 -10.645137,3.8127 -12.251953,9.0547 C 7.55006,1022.7854 3,1027.6899 3,1033.6602 c 0,6.3522 5.149758,11.502 11.501953,11.502 0.13782,0 0.271556,-0.015 0.408203,-0.019 0.0678,0 0.132134,0.019 0.201172,0.019 l 20.53125,0 c 0.0543,0 0.10466,-0.013 0.158203,-0.016 0.107772,0 0.213547,0.016 0.322266,0.016 4.902448,0 8.876953,-3.9745 8.876953,-8.877 0,-4.147 -2.84757,-7.6188 -6.691406,-8.5937 0.07541,-0.5624 0.128906,-1.1318 0.128906,-1.7148 C 38.4375,1018.8996 32.700117,1013.1622 25.623047,1013.1622 Z"
       id="path4190" />
    <path
       id="path4188"
       d="m 25.623047,1012.7622 c -5.768461,0 -10.645137,3.8127 -12.251953,9.0547 C 7.55006,1022.3854 3,1027.2899 3,1033.2602 c 0,6.3522 5.149758,11.502 11.501953,11.502 0.13782,0 0.271556,-0.015 0.408203,-0.019 0.0678,0 0.132134,0.019 0.201172,0.019 l 20.53125,0 c 0.0543,0 0.10466,-0.013 0.158203,-0.016 0.107772,0 0.213547,0.016 0.322266,0.016 4.902448,0 8.876953,-3.9745 8.876953,-8.877 0,-4.147 -2.84757,-7.6188 -6.691406,-8.5937 0.07541,-0.5624 0.128906,-1.1318 0.128906,-1.7148 C 38.4375,1018.4996 32.700117,1012.7622 25.623047,1012.7622 Z"
       style="fill:#000000;fill-opacity:0.23529412;stroke:none"
       inkscape:connector-curvature="0" />
    <path
       inkscape:connector-curvature="0"
       style="fill:#000000;fill-opacity:1;stroke:none"
       d="m -1.4093018e-8,1049.3622 0,1.0625 c 0,1.0773 0.860222904093018,1.9375 1.937500114093018,1.9375 l 44.1249999,0 c 1.077277,0 1.9375,-0.8602 1.9375,-1.9375 l 0,-1.0625 c 0,1.0773 -0.860223,1.9375 -1.9375,1.9375 l -44.1249999,0 C 0.86022289,1051.2997 -1.4093018e-8,1050.4395 -1.4093018e-8,1049.3622 Z"
       id="rect846" />
    <path
       inkscape:connector-curvature="0"
       style="fill:#ffffff;fill-opacity:0.5372549;stroke:none"
       d="m 2.5312501,1005.0185 c -0.917089,0 -1.67114691,0.6395 -1.84375011,1.5 0.33561201,-0.2799 0.77451211,-0.4375 1.25000011,-0.4375 l 44.1249999,0 c 0.475488,0 0.914388,0.1576 1.25,0.4375 -0.172603,-0.8605 -0.926662,-1.5 -1.84375,-1.5 L 2.5312501,1005.0185 Z"
       id="path7515" />
    <path
       inkscape:connector-curvature="0"
       style="fill:#000000;fill-opacity:0.39215686;stroke:none"
       d="m 1.9375001,1004.3622 c -1.07727711,0 -1.937500114093017,0.8602 -1.937500114093017,1.9375 l 0,43.0625 c 0,0.7934 0.480023604093017,1.449 1.156249914093017,1.75 -0.30934161,-0.3333 -0.49999991,-0.7824 -0.49999991,-1.2812 l 0,-42.9375 c 0,-1.0482 0.82689911,-1.875 1.87500011,-1.875 l 42.9374999,0 c 1.048101,0 1.875,0.8268 1.875,1.875 l 0,42.9375 c 0,0.4988 -0.190658,0.9479 -0.5,1.2812 0.676226,-0.301 1.15625,-0.9566 1.15625,-1.75 l 0,-43.0625 c 0,-1.0773 -0.860223,-1.9375 -1.9375,-1.9375 L 1.9375001,1004.3622 Z"
       id="rect4280" />
    <path
       style="fill:url(#linearGradient4126);fill-opacity:1.0;stroke:none"
       d="M 25.623047 8 C 19.854586 8 14.97791 11.812683 13.371094 17.054688 C 7.55006 17.623168 3 22.527702 3 28.498047 C 3 34.850242 8.149758 40 14.501953 40 C 14.639773 40 14.773509 39.985276 14.910156 39.980469 C 14.977953 39.985191 15.04229 40 15.111328 40 L 35.642578 40 C 35.696879 40 35.747238 39.987307 35.800781 39.984375 C 35.908553 39.988251 36.014328 40 36.123047 40 C 41.025495 40 45 36.025495 45 31.123047 C 45 26.97604 42.15243 23.50419 38.308594 22.529297 C 38.384006 21.966929 38.4375 21.397467 38.4375 20.814453 C 38.4375 13.737383 32.700117 8 25.623047 8 z "
       transform="translate(0,1004.3622)"
       id="path4056" />
    <path
       inkscape:connector-curvature="0"
       id="path4186"
       d="m 23.977074,1022.6685 c -1.8612,0 -3.675419,0.553 -5.233018,1.624 -0.497933,0.3418 -0.61875,1.015 -0.270415,1.5035 0.3476,0.4888 1.034778,0.6069 1.531977,0.2644 1.2034,-0.827 2.606403,-1.2455 4.045935,-1.2326 0.206801,0 0.410211,0.012 0.611876,0.029 0.0616,0.01 0.124026,0.015 0.185625,0.023 0.165736,0.019 0.33023,0.043 0.491564,0.074 0.07189,0.015 0.141166,0.032 0.210832,0.048 0.159134,0.037 0.318496,0.071 0.473228,0.1183 0.04912,0.016 0.09754,0.034 0.146667,0.049 0.176733,0.058 0.350488,0.1181 0.521354,0.1877 0.0176,0.01 0.03583,0.015 0.05272,0.023 1.025199,0.4326 1.92445,1.0987 2.626249,1.9322 0.0044,0.01 0.0083,0.012 0.01261,0.016 0.987066,1.1794 1.58166,2.6883 1.582396,4.3304 l -1.833336,0 2.933335,4.3184 2.93333,-4.3184 -1.833331,0 c -6.59e-4,-1.8872 -0.598081,-3.6383 -1.61448,-5.0863 -0.01469,-0.027 -0.02554,-0.049 -0.04239,-0.072 -0.126132,-0.1771 -0.263908,-0.3416 -0.40104,-0.5073 -0.01611,-0.019 -0.03009,-0.039 -0.04699,-0.059 -0.929868,-1.1077 -2.097791,-1.9646 -3.421458,-2.5237 -0.03669,-0.016 -0.07331,-0.034 -0.11,-0.048 -0.2112,-0.085 -0.427305,-0.1604 -0.645104,-0.2317 -0.07847,-0.027 -0.154962,-0.052 -0.234896,-0.076 -0.189932,-0.058 -0.38202,-0.1023 -0.576355,-0.1462 -0.107065,-0.026 -0.214589,-0.049 -0.323125,-0.071 -0.05351,-0.01 -0.104177,-0.026 -0.156977,-0.036 -0.1452,-0.026 -0.290217,-0.037 -0.435417,-0.054 -0.100461,-0.013 -0.199007,-0.027 -0.300207,-0.037 -0.243467,-0.023 -0.485604,-0.032 -0.727605,-0.038 -0.044,0 -0.08663,-0.01 -0.130624,-0.01 L 23.977074,1022.6685 z m -8.043747,4.6762 -2.93333,4.3183 1.833332,0 c 0,1.893 0.600968,3.648 1.622497,5.099 0.01248,0.019 0.02161,0.04 0.03552,0.06 0.105601,0.1482 0.223209,0.2847 0.336874,0.4252 0.04252,0.052 0.08205,0.1078 0.126044,0.1596 0.1672,0.1993 0.344481,0.3863 0.527082,0.5691 0.0176,0.017 0.03355,0.038 0.05043,0.052 0.613066,0.6023 1.306341,1.1099 2.060207,1.5158 0.0198,0.012 0.03945,0.024 0.06073,0.035 0.217067,0.1144 0.440274,0.2181 0.666874,0.3159 0.05649,0.025 0.111239,0.049 0.168439,0.073 0.1936,0.079 0.392195,0.1472 0.592395,0.2125 0.0946,0.031 0.188101,0.064 0.284165,0.093 0.175269,0.049 0.354707,0.093 0.535106,0.1351 0.119534,0.027 0.238058,0.058 0.359791,0.08 0.0506,0.01 0.09794,0.027 0.147814,0.034 0.170132,0.027 0.340907,0.048 0.511039,0.067 0.0616,0.01 0.121735,0.016 0.183334,0.025 0.305801,0.027 0.611188,0.048 0.915521,0.048 1.8634,0 3.681241,-0.5593 5.241039,-1.6318 0.497202,-0.3426 0.61875,-1.0148 0.270417,-1.5036 -0.349068,-0.4893 -1.035513,-0.6069 -1.531978,-0.2642 -1.2122,0.8334 -2.630512,1.2508 -4.080312,1.2315 -0.1914,0 -0.381748,-0.012 -0.569479,-0.027 -0.077,-0.01 -0.153312,-0.017 -0.230312,-0.028 -0.148134,-0.018 -0.29668,-0.037 -0.441146,-0.067 -0.08872,-0.017 -0.176275,-0.039 -0.263541,-0.06 -0.141534,-0.032 -0.282654,-0.065 -0.420522,-0.1057 -0.06672,-0.019 -0.13108,-0.042 -0.197081,-0.063 -0.159134,-0.051 -0.31694,-0.1063 -0.47094,-0.1698 -0.0352,-0.015 -0.0698,-0.03 -0.104268,-0.048 -0.180401,-0.078 -0.358188,-0.1593 -0.530523,-0.2506 -0.0082,-0.01 -0.01485,-0.01 -0.02293,-0.013 -0.582999,-0.3145 -1.116822,-0.7064 -1.584687,-1.1651 -0.0071,-0.01 -0.01485,-0.016 -0.02293,-0.025 -0.1452,-0.1431 -0.283939,-0.2924 -0.415938,-0.4486 -0.02788,-0.034 -0.05462,-0.07 -0.08251,-0.1034 -0.9526,-1.1697 -1.52625,-2.65 -1.52625,-4.26 l 1.833331,0 L 15.933327,1027.3447 Z"
       style="fill:#000000;fill-opacity:0.05882353;fill-rule:nonzero;stroke:none" />
    <path
       style="fill:#000000;fill-opacity:0.11764706;fill-rule:nonzero;stroke:none"
       d="m 23.977074,1022.2685 c -1.8612,0 -3.675419,0.553 -5.233018,1.624 -0.497933,0.3418 -0.61875,1.015 -0.270415,1.5035 0.3476,0.4888 1.034778,0.6069 1.531977,0.2644 1.2034,-0.827 2.606403,-1.2455 4.045935,-1.2326 0.206801,0 0.410211,0.012 0.611876,0.029 0.0616,0.01 0.124026,0.015 0.185625,0.023 0.165736,0.019 0.33023,0.043 0.491564,0.074 0.07189,0.015 0.141166,0.032 0.210832,0.048 0.159134,0.037 0.318496,0.071 0.473228,0.1183 0.04912,0.016 0.09754,0.034 0.146667,0.049 0.176733,0.058 0.350488,0.1181 0.521354,0.1877 0.0176,0.01 0.03583,0.015 0.05272,0.023 1.025199,0.4326 1.92445,1.0987 2.626249,1.9322 0.0044,0.01 0.0083,0.012 0.01261,0.016 0.987066,1.1794 1.58166,2.6883 1.582396,4.3304 l -1.833336,0 2.933335,4.3184 2.93333,-4.3184 -1.833331,0 c -6.59e-4,-1.8872 -0.598081,-3.6383 -1.61448,-5.0863 -0.01469,-0.027 -0.02554,-0.049 -0.04239,-0.072 -0.126132,-0.1771 -0.263908,-0.3416 -0.40104,-0.5073 -0.01611,-0.019 -0.03009,-0.039 -0.04699,-0.059 -0.929868,-1.1077 -2.097791,-1.9646 -3.421458,-2.5237 -0.03669,-0.016 -0.07331,-0.034 -0.11,-0.048 -0.2112,-0.085 -0.427305,-0.1604 -0.645104,-0.2317 -0.07847,-0.027 -0.154962,-0.052 -0.234896,-0.076 -0.189932,-0.058 -0.38202,-0.1023 -0.576355,-0.1462 -0.107065,-0.026 -0.214589,-0.049 -0.323125,-0.071 -0.05351,-0.01 -0.104177,-0.026 -0.156977,-0.036 -0.1452,-0.026 -0.290217,-0.037 -0.435417,-0.054 -0.100461,-0.013 -0.199007,-0.027 -0.300207,-0.037 -0.243467,-0.023 -0.485604,-0.032 -0.727605,-0.038 -0.044,0 -0.08663,-0.01 -0.130624,-0.01 L 23.977074,1022.2685 z m -8.043747,4.6762 -2.93333,4.3183 1.833332,0 c 0,1.893 0.600968,3.648 1.622497,5.099 0.01248,0.019 0.02161,0.04 0.03552,0.06 0.105601,0.1482 0.223209,0.2847 0.336874,0.4252 0.04252,0.052 0.08205,0.1078 0.126044,0.1596 0.1672,0.1993 0.344481,0.3863 0.527082,0.5691 0.0176,0.017 0.03355,0.038 0.05043,0.052 0.613066,0.6023 1.306341,1.1099 2.060207,1.5158 0.0198,0.012 0.03945,0.024 0.06073,0.035 0.217067,0.1144 0.440274,0.2181 0.666874,0.3159 0.05649,0.025 0.111239,0.049 0.168439,0.073 0.1936,0.079 0.392195,0.1472 0.592395,0.2125 0.0946,0.031 0.188101,0.064 0.284165,0.093 0.175269,0.049 0.354707,0.093 0.535106,0.1351 0.119534,0.027 0.238058,0.058 0.359791,0.08 0.0506,0.01 0.09794,0.027 0.147814,0.034 0.170132,0.027 0.340907,0.048 0.511039,0.067 0.0616,0.01 0.121735,0.016 0.183334,0.025 0.305801,0.027 0.611188,0.048 0.915521,0.048 1.8634,0 3.681241,-0.5593 5.241039,-1.6318 0.497202,-0.3426 0.61875,-1.0148 0.270417,-1.5036 -0.349068,-0.4893 -1.035513,-0.6069 -1.531978,-0.2642 -1.2122,0.8334 -2.630512,1.2508 -4.080312,1.2315 -0.1914,0 -0.381748,-0.012 -0.569479,-0.027 -0.077,-0.01 -0.153312,-0.017 -0.230312,-0.028 -0.148134,-0.018 -0.29668,-0.037 -0.441146,-0.067 -0.08872,-0.017 -0.176275,-0.039 -0.263541,-0.06 -0.141534,-0.032 -0.282654,-0.065 -0.420522,-0.1057 -0.06672,-0.019 -0.13108,-0.042 -0.197081,-0.063 -0.159134,-0.051 -0.31694,-0.1063 -0.47094,-0.1698 -0.0352,-0.015 -0.0698,-0.03 -0.104268,-0.048 -0.180401,-0.078 -0.358188,-0.1593 -0.530523,-0.2506 -0.0082,-0.01 -0.01485,-0.01 -0.02293,-0.013 -0.582999,-0.3145 -1.116822,-0.7064 -1.584687,-1.1651 -0.0071,-0.01 -0.01485,-0.016 -0.02293,-0.025 -0.1452,-0.1431 -0.283939,-0.2924 -0.415938,-0.4486 -0.02788,-0.034 -0.05462,-0.07 -0.08251,-0.1034 -0.9526,-1.1697 -1.52625,-2.65 -1.52625,-4.26 l 1.833331,0 L 15.933327,1026.9447 Z"
       id="path4184"
       inkscape:connector-curvature="0" />
    <path
       inkscape:connector-curvature="0"
       id="path4180"
       d="m 23.977074,1021.8685 c -1.8612,0 -3.675419,0.553 -5.233018,1.624 -0.497933,0.3418 -0.61875,1.015 -0.270415,1.5035 0.3476,0.4888 1.034778,0.6069 1.531977,0.2644 1.2034,-0.827 2.606403,-1.2455 4.045935,-1.2326 0.206801,0 0.410211,0.012 0.611876,0.029 0.0616,0.01 0.124026,0.015 0.185625,0.023 0.165736,0.019 0.33023,0.043 0.491564,0.074 0.07189,0.015 0.141166,0.032 0.210832,0.048 0.159134,0.037 0.318496,0.071 0.473228,0.1183 0.04912,0.016 0.09754,0.034 0.146667,0.049 0.176733,0.058 0.350488,0.1181 0.521354,0.1877 0.0176,0.01 0.03583,0.015 0.05272,0.023 1.025199,0.4326 1.92445,1.0987 2.626249,1.9322 0.0044,0.01 0.0083,0.012 0.01261,0.016 0.987066,1.1794 1.58166,2.6883 1.582396,4.3304 l -1.833336,0 2.933335,4.3184 2.93333,-4.3184 -1.833331,0 c -6.59e-4,-1.8872 -0.598081,-3.6383 -1.61448,-5.0863 -0.01469,-0.027 -0.02554,-0.049 -0.04239,-0.072 -0.126132,-0.1771 -0.263908,-0.3416 -0.40104,-0.5073 -0.01611,-0.019 -0.03009,-0.039 -0.04699,-0.059 -0.929868,-1.1077 -2.097791,-1.9646 -3.421458,-2.5237 -0.03669,-0.016 -0.07331,-0.034 -0.11,-0.048 -0.2112,-0.085 -0.427305,-0.1604 -0.645104,-0.2317 -0.07847,-0.027 -0.154962,-0.052 -0.234896,-0.076 -0.189932,-0.058 -0.38202,-0.1023 -0.576355,-0.1462 -0.107065,-0.026 -0.214589,-0.049 -0.323125,-0.071 -0.05351,-0.01 -0.104177,-0.026 -0.156977,-0.036 -0.1452,-0.026 -0.290217,-0.037 -0.435417,-0.054 -0.100461,-0.013 -0.199007,-0.027 -0.300207,-0.037 -0.243467,-0.023 -0.485604,-0.032 -0.727605,-0.038 -0.044,0 -0.08663,-0.01 -0.130624,-0.01 L 23.977074,1021.8685 z m -8.043747,4.6762 -2.93333,4.3183 1.833332,0 c 0,1.893 0.600968,3.648 1.622497,5.099 0.01248,0.019 0.02161,0.04 0.03552,0.06 0.105601,0.1482 0.223209,0.2847 0.336874,0.4252 0.04252,0.052 0.08205,0.1078 0.126044,0.1596 0.1672,0.1993 0.344481,0.3863 0.527082,0.5691 0.0176,0.017 0.03355,0.038 0.05043,0.052 0.613066,0.6023 1.306341,1.1099 2.060207,1.5158 0.0198,0.012 0.03945,0.024 0.06073,0.035 0.217067,0.1144 0.440274,0.2181 0.666874,0.3159 0.05649,0.025 0.111239,0.049 0.168439,0.073 0.1936,0.079 0.392195,0.1472 0.592395,0.2125 0.0946,0.031 0.188101,0.064 0.284165,0.093 0.175269,0.049 0.354707,0.093 0.535106,0.1351 0.119534,0.027 0.238058,0.058 0.359791,0.08 0.0506,0.01 0.09794,0.027 0.147814,0.034 0.170132,0.027 0.340907,0.048 0.511039,0.067 0.0616,0.01 0.121735,0.016 0.183334,0.025 0.305801,0.027 0.611188,0.048 0.915521,0.048 1.8634,0 3.681241,-0.5593 5.241039,-1.6318 0.497202,-0.3426 0.61875,-1.0148 0.270417,-1.5036 -0.349068,-0.4893 -1.035513,-0.6069 -1.531978,-0.2642 -1.2122,0.8334 -2.630512,1.2508 -4.080312,1.2315 -0.1914,0 -0.381748,-0.012 -0.569479,-0.027 -0.077,-0.01 -0.153312,-0.017 -0.230312,-0.028 -0.148134,-0.018 -0.29668,-0.037 -0.441146,-0.067 -0.08872,-0.017 -0.176275,-0.039 -0.263541,-0.06 -0.141534,-0.032 -0.282654,-0.065 -0.420522,-0.1057 -0.06672,-0.019 -0.13108,-0.042 -0.197081,-0.063 -0.159134,-0.051 -0.31694,-0.1063 -0.47094,-0.1698 -0.0352,-0.015 -0.0698,-0.03 -0.104268,-0.048 -0.180401,-0.078 -0.358188,-0.1593 -0.530523,-0.2506 -0.0082,-0.01 -0.01485,-0.01 -0.02293,-0.013 -0.582999,-0.3145 -1.116822,-0.7064 -1.584687,-1.1651 -0.0071,-0.01 -0.01485,-0.016 -0.02293,-0.025 -0.1452,-0.1431 -0.283939,-0.2924 -0.415938,-0.4486 -0.02788,-0.034 -0.05462,-0.07 -0.08251,-0.1034 -0.9526,-1.1697 -1.52625,-2.65 -1.52625,-4.26 l 1.833331,0 L 15.933327,1026.5447 Z"
       style="fill:#000000;fill-opacity:0.23529412;fill-rule:nonzero;stroke:none" />
    <path
       style="fill:url(#linearGradient4178);fill-opacity:1;fill-rule:nonzero;stroke:none"
       d="m 23.977074,1021.4685 c -1.8612,0 -3.675419,0.553 -5.233018,1.624 -0.497933,0.3418 -0.61875,1.015 -0.270415,1.5035 0.3476,0.4888 1.034778,0.6069 1.531977,0.2644 1.2034,-0.827 2.606403,-1.2455 4.045935,-1.2326 0.206801,0 0.410211,0.012 0.611876,0.029 0.0616,0.01 0.124026,0.015 0.185625,0.023 0.165736,0.019 0.33023,0.043 0.491564,0.074 0.07189,0.015 0.141166,0.032 0.210832,0.048 0.159134,0.037 0.318496,0.071 0.473228,0.1183 0.04912,0.016 0.09754,0.034 0.146667,0.049 0.176733,0.058 0.350488,0.1181 0.521354,0.1877 0.0176,0.01 0.03583,0.015 0.05272,0.023 1.025199,0.4326 1.92445,1.0987 2.626249,1.9322 0.0044,0.01 0.0083,0.012 0.01261,0.016 0.987066,1.1794 1.58166,2.6883 1.582396,4.3304 l -1.833336,0 2.933335,4.3184 2.93333,-4.3184 -1.833331,0 c -6.59e-4,-1.8872 -0.598081,-3.6383 -1.61448,-5.0863 -0.01469,-0.027 -0.02554,-0.049 -0.04239,-0.072 -0.126132,-0.1771 -0.263908,-0.3416 -0.40104,-0.5073 -0.01611,-0.019 -0.03009,-0.039 -0.04699,-0.059 -0.929868,-1.1077 -2.097791,-1.9646 -3.421458,-2.5237 -0.03669,-0.016 -0.07331,-0.034 -0.11,-0.048 -0.2112,-0.085 -0.427305,-0.1604 -0.645104,-0.2317 -0.07847,-0.027 -0.154962,-0.052 -0.234896,-0.076 -0.189932,-0.058 -0.38202,-0.1023 -0.576355,-0.1462 -0.107065,-0.026 -0.214589,-0.049 -0.323125,-0.071 -0.05351,-0.01 -0.104177,-0.026 -0.156977,-0.036 -0.1452,-0.026 -0.290217,-0.037 -0.435417,-0.054 -0.100461,-0.013 -0.199007,-0.027 -0.300207,-0.037 -0.243467,-0.023 -0.485604,-0.032 -0.727605,-0.038 -0.044,0 -0.08663,-0.01 -0.130624,-0.01 L 23.977074,1021.4685 z m -8.043747,4.6762 -2.93333,4.3183 1.833332,0 c 0,1.893 0.600968,3.648 1.622497,5.099 0.01248,0.019 0.02161,0.04 0.03552,0.06 0.105601,0.1482 0.223209,0.2847 0.336874,0.4252 0.04252,0.052 0.08205,0.1078 0.126044,0.1596 0.1672,0.1993 0.344481,0.3863 0.527082,0.5691 0.0176,0.017 0.03355,0.038 0.05043,0.052 0.613066,0.6023 1.306341,1.1099 2.060207,1.5158 0.0198,0.012 0.03945,0.024 0.06073,0.035 0.217067,0.1144 0.440274,0.2181 0.666874,0.3159 0.05649,0.025 0.111239,0.049 0.168439,0.073 0.1936,0.079 0.392195,0.1472 0.592395,0.2125 0.0946,0.031 0.188101,0.064 0.284165,0.093 0.175269,0.049 0.354707,0.093 0.535106,0.1351 0.119534,0.027 0.238058,0.058 0.359791,0.08 0.0506,0.01 0.09794,0.027 0.147814,0.034 0.170132,0.027 0.340907,0.048 0.511039,0.067 0.0616,0.01 0.121735,0.016 0.183334,0.025 0.305801,0.027 0.611188,0.048 0.915521,0.048 1.8634,0 3.681241,-0.5593 5.241039,-1.6318 0.497202,-0.3426 0.61875,-1.0148 0.270417,-1.5036 -0.349068,-0.4893 -1.035513,-0.6069 -1.531978,-0.2642 -1.2122,0.8334 -2.630512,1.2508 -4.080312,1.2315 -0.1914,0 -0.381748,-0.012 -0.569479,-0.027 -0.077,-0.01 -0.153312,-0.017 -0.230312,-0.028 -0.148134,-0.018 -0.29668,-0.037 -0.441146,-0.067 -0.08872,-0.017 -0.176275,-0.039 -0.263541,-0.06 -0.141534,-0.032 -0.282654,-0.065 -0.420522,-0.1057 -0.06672,-0.019 -0.13108,-0.042 -0.197081,-0.063 -0.159134,-0.051 -0.31694,-0.1063 -0.47094,-0.1698 -0.0352,-0.015 -0.0698,-0.03 -0.104268,-0.048 -0.180401,-0.078 -0.358188,-0.1593 -0.530523,-0.2506 -0.0082,-0.01 -0.01485,-0.01 -0.02293,-0.013 -0.582999,-0.3145 -1.116822,-0.7064 -1.584687,-1.1651 -0.0071,-0.01 -0.01485,-0.016 -0.02293,-0.025 -0.1452,-0.1431 -0.283939,-0.2924 -0.415938,-0.4486 -0.02788,-0.034 -0.05462,-0.07 -0.08251,-0.1034 -0.9526,-1.1697 -1.52625,-2.65 -1.52625,-4.26 l 1.833331,0 L 15.933327,1026.1447 Z"
       id="path24"
       inkscape:connector-curvature="0" />
    <path
       style="fill:#1d8fff;fill-opacity:0.3137255;stroke:none"
       d="M 38.410156 20.265625 C 38.387842 20.623716 38.355662 20.979047 38.308594 21.330078 C 38.34432 21.339139 38.37851 21.351837 38.414062 21.361328 C 38.423751 21.179583 38.4375 20.998701 38.4375 20.814453 C 38.4375 20.629229 38.417938 20.448935 38.410156 20.265625 z M 3.0292969 27.884766 C 3.0184931 28.089078 3 28.291036 3 28.498047 C 3 34.850242 8.1497581 40 14.501953 40 C 14.639773 40 14.773509 39.985276 14.910156 39.980469 C 14.977953 39.985191 15.04229 40 15.111328 40 L 35.642578 40 C 35.696879 40 35.747238 39.987307 35.800781 39.984375 C 35.908553 39.988251 36.014328 40 36.123047 40 C 41.025495 40 45 36.025495 45 31.123047 C 45 30.907281 44.987813 30.694276 44.972656 30.482422 C 44.682583 35.122975 40.83664 38.800781 36.123047 38.800781 C 36.014328 38.800781 35.908553 38.783203 35.800781 38.783203 C 35.747238 38.786203 35.696878 38.800781 35.642578 38.800781 L 15.111328 38.800781 C 15.04229 38.800781 14.977956 38.78125 14.910156 38.78125 C 14.773509 38.78525 14.639773 38.800781 14.501953 38.800781 C 8.3476064 38.800781 3.3363885 33.962839 3.0292969 27.884766 z "
       transform="translate(0,1004.3622)"
       id="path4194" />
    <path
       style="fill:#ffffff;fill-opacity:0.23529412;stroke:none"
       d="M 25.623047 8 C 19.854586 8 14.97791 11.812683 13.371094 17.054688 C 7.5500597 17.623168 3 22.527702 3 28.498047 C 3 28.563996 3.0086599 28.627674 3.0097656 28.693359 C 3.1134379 22.816979 7.6174328 18.016998 13.371094 17.455078 C 14.97791 12.213078 19.854586 8.4003906 25.623047 8.4003906 C 32.638145 8.4003906 38.328467 14.039714 38.427734 21.03125 C 38.429352 20.958615 38.4375 20.887501 38.4375 20.814453 C 38.4375 13.737383 32.700117 8 25.623047 8 z M 38.349609 22.541016 C 38.335035 22.670433 38.325838 22.801081 38.308594 22.929688 C 42.08596 23.887729 44.893997 27.258743 44.990234 31.310547 C 44.991552 31.247597 45 31.186312 45 31.123047 C 45 26.990986 42.172413 23.530305 38.349609 22.541016 z "
       transform="translate(0,1004.3622)"
       id="path4199" />
  </g>
</svg>
