<?xml version="1.0" encoding="UTF-8" standalone="no"?>
<!-- Created with Inkscape (http://www.inkscape.org/) -->

<svg
   xmlns:dc="http://purl.org/dc/elements/1.1/"
   xmlns:cc="http://creativecommons.org/ns#"
   xmlns:rdf="http://www.w3.org/1999/02/22-rdf-syntax-ns#"
   xmlns:svg="http://www.w3.org/2000/svg"
   xmlns="http://www.w3.org/2000/svg"
   xmlns:xlink="http://www.w3.org/1999/xlink"
   xmlns:sodipodi="http://sodipodi.sourceforge.net/DTD/sodipodi-0.dtd"
   xmlns:inkscape="http://www.inkscape.org/namespaces/inkscape"
   width="48"
   height="48"
   id="svg2"
   version="1.1"
   inkscape:version="0.49 r12742"
   sodipodi:docname="gtick.svg"
   inkscape:export-filename="/home/uri/workspace/NitruxforAndroid/res/drawable-xhdpi/downloads.png"
   inkscape:export-xdpi="180"
   inkscape:export-ydpi="180">
  <defs
     id="defs4">
    <linearGradient
       id="linearGradient4122"
       inkscape:collect="always">
      <stop
         id="stop4124"
         offset="0"
         style="stop-color:#d8dce0;stop-opacity:1" />
      <stop
         id="stop4126"
         offset="1"
         style="stop-color:#f9fafb;stop-opacity:1" />
    </linearGradient>
    <linearGradient
       id="linearGradient4111"
       inkscape:collect="always">
      <stop
         id="stop4113"
         offset="0"
         style="stop-color:#202428;stop-opacity:1" />
      <stop
         id="stop4115"
         offset="1"
         style="stop-color:#384046;stop-opacity:1" />
    </linearGradient>
    <linearGradient
       inkscape:collect="always"
       id="linearGradient4064">
      <stop
         style="stop-color:#dc0666;stop-opacity:1"
         offset="0"
         id="stop4066" />
      <stop
         style="stop-color:#e34b9a;stop-opacity:1"
         offset="1"
         id="stop4068" />
    </linearGradient>
    <linearGradient
       inkscape:collect="always"
       id="linearGradient845">
      <stop
         style="stop-color:#353c42;stop-opacity:1"
         offset="0"
         id="stop847" />
      <stop
         style="stop-color:#505b64;stop-opacity:1"
         offset="1"
         id="stop849" />
    </linearGradient>
    <linearGradient
       inkscape:collect="always"
       xlink:href="#linearGradient845"
       id="linearGradient851"
       x1="23.5"
       y1="-1052.4247"
       x2="23.5"
       y2="-1004.6122"
       gradientUnits="userSpaceOnUse" />
    <linearGradient
       inkscape:collect="always"
       xlink:href="#linearGradient4064"
       id="linearGradient4070"
       x1="22.667751"
       y1="1043.8921"
       x2="22.667751"
       y2="1012.8348"
       gradientUnits="userSpaceOnUse" />
    <linearGradient
       inkscape:collect="always"
       xlink:href="#linearGradient4111"
       id="linearGradient4078"
       x1="36.57663"
       y1="1043.6891"
       x2="36.57663"
       y2="1013.1159"
       gradientUnits="userSpaceOnUse" />
    <linearGradient
       inkscape:collect="always"
       xlink:href="#linearGradient4122"
       id="linearGradient4120"
       x1="28.441204"
       y1="1031.6129"
       x2="28.441204"
       y2="1025.2477"
       gradientUnits="userSpaceOnUse" />
    <linearGradient
       inkscape:collect="always"
       xlink:href="#linearGradient4122"
       id="linearGradient4136"
       gradientUnits="userSpaceOnUse"
       x1="28.441204"
       y1="1031.6129"
       x2="28.441204"
       y2="1025.2477" />
    <linearGradient
       inkscape:collect="always"
       xlink:href="#linearGradient4122"
       id="linearGradient4138"
       gradientUnits="userSpaceOnUse"
       x1="28.441204"
       y1="1031.6129"
       x2="28.441204"
       y2="1025.2477" />
    <linearGradient
       inkscape:collect="always"
       xlink:href="#linearGradient4122"
       id="linearGradient4140"
       gradientUnits="userSpaceOnUse"
       x1="28.441204"
       y1="1031.6129"
       x2="28.441204"
       y2="1025.2477" />
  </defs>
  <sodipodi:namedview
     id="base"
     pagecolor="#ffffff"
     bordercolor="#666666"
     borderopacity="1.0"
     inkscape:pageopacity="0.0"
     inkscape:pageshadow="2"
     inkscape:zoom="5.6568543"
     inkscape:cx="26.274896"
     inkscape:cy="12.263178"
     inkscape:document-units="px"
     inkscape:current-layer="layer1"
     showgrid="false"
     inkscape:window-width="1366"
     inkscape:window-height="718"
     inkscape:window-x="-2"
     inkscape:window-y="23"
     inkscape:window-maximized="1">
    <inkscape:grid
       type="xygrid"
       id="grid3850" />
  </sodipodi:namedview>
  <metadata
     id="metadata7">
    <rdf:RDF>
      <cc:Work
         rdf:about="">
        <dc:format>image/svg+xml</dc:format>
        <dc:type
           rdf:resource="http://purl.org/dc/dcmitype/StillImage" />
        <dc:title></dc:title>
      </cc:Work>
    </rdf:RDF>
  </metadata>
  <g
     inkscape:label="Capa 1"
     inkscape:groupmode="layer"
     id="layer1"
     transform="translate(0,-1004.3622)">
    <rect
       style="fill:url(#linearGradient851);fill-opacity:1;stroke:none"
       id="rect2991-1"
       width="48"
       height="48"
       x="2e-07"
       y="-1052.3622"
       ry="1.9445436"
       transform="scale(1,-1)" />
    <g
       transform="matrix(0.99636923,0,0,0.99173554,-3.8085666,8.8251227)"
       id="g4142"
       style="font-size:7.5px;font-style:normal;font-variant:normal;font-weight:normal;font-stretch:normal;line-height:125%;letter-spacing:0px;word-spacing:0px;fill:#000000;fill-opacity:0.23529412;stroke:none;font-family:GreatLakesNF;-inkscape-font-specification:GreatLakesNF">
      <path
         style="fill:#000000;fill-opacity:0.23529412"
         inkscape:connector-curvature="0"
         id="path4144"
         d="m 24.754393,1031.0428 q 0,0.2175 -0.18,0.3975 -0.18,0.1725 -0.3975,0.1725 l -3.2925,0 0,-6.3525 3.2925,0 q 0.225,0 0.3975,0.1725 0.18,0.1725 0.18,0.3975 l 0,1.7775 q 0,0.2475 -0.4125,0.6225 0.4125,0.315 0.4125,0.6 l 0,2.2125 z m -1.5375,-3.36 0,-1.275 -0.6375,0 0,1.275 0.6375,0 z m 0,2.7825 0,-1.635 -0.6375,0 0,1.635 0.6375,0 z" />
      <path
         style="fill:#000000;fill-opacity:0.23529412"
         inkscape:connector-curvature="0"
         id="path4146"
         d="m 28.899901,1028.5753 q 0,0.2175 -0.18,0.3975 -0.18,0.1725 -0.3975,0.1725 l -1.5975,0 0,2.4675 -1.695,0 0,-6.3525 3.2925,0 q 0.2175,0 0.3975,0.18 0.18,0.1725 0.18,0.39 l 0,2.745 z m -1.5375,-0.585 0,-1.5825 -0.6375,0 0,1.5825 0.6375,0 z" />
      <path
         style="fill:#000000;fill-opacity:0.23529412"
         inkscape:connector-curvature="0"
         id="path4148"
         d="m 34.935409,1031.6128 -1.6875,0 0,-5.16 -0.345,0 0,5.16 -1.6875,0 0,-5.16 -0.345,0 0,5.16 -1.695,0 0,-6.3525 1.695,0 0,0.42 q 0.06,-0.1725 0.2175,-0.2925 0.1575,-0.1275 0.33,-0.1275 l 0.9075,0 q 0.1875,0 0.345,0.135 0.165,0.135 0.2175,0.315 0.045,-0.18 0.21,-0.315 0.165,-0.135 0.3525,-0.135 l 0.9075,0 q 0.2175,0 0.3975,0.18 0.18,0.1725 0.18,0.39 l 0,5.7825 z" />
    </g>
    <g
       style="font-size:7.5px;font-style:normal;font-variant:normal;font-weight:normal;font-stretch:normal;line-height:125%;letter-spacing:0px;word-spacing:0px;fill:url(#linearGradient4120);fill-opacity:1;stroke:none;font-family:GreatLakesNF;-inkscape-font-specification:GreatLakesNF"
       id="text4102"
       transform="matrix(0.99636923,0,0,0.99173554,-3.8085666,8.4251227)">
      <path
         d="m 24.754393,1031.0428 q 0,0.2175 -0.18,0.3975 -0.18,0.1725 -0.3975,0.1725 l -3.2925,0 0,-6.3525 3.2925,0 q 0.225,0 0.3975,0.1725 0.18,0.1725 0.18,0.3975 l 0,1.7775 q 0,0.2475 -0.4125,0.6225 0.4125,0.315 0.4125,0.6 l 0,2.2125 z m -1.5375,-3.36 0,-1.275 -0.6375,0 0,1.275 0.6375,0 z m 0,2.7825 0,-1.635 -0.6375,0 0,1.635 0.6375,0 z"
         id="path4107"
         inkscape:connector-curvature="0"
         style="fill:url(#linearGradient4136);fill-opacity:1" />
      <path
         d="m 28.899901,1028.5753 q 0,0.2175 -0.18,0.3975 -0.18,0.1725 -0.3975,0.1725 l -1.5975,0 0,2.4675 -1.695,0 0,-6.3525 3.2925,0 q 0.2175,0 0.3975,0.18 0.18,0.1725 0.18,0.39 l 0,2.745 z m -1.5375,-0.585 0,-1.5825 -0.6375,0 0,1.5825 0.6375,0 z"
         id="path4109"
         inkscape:connector-curvature="0"
         style="fill:url(#linearGradient4138);fill-opacity:1" />
      <path
         d="m 34.935409,1031.6128 -1.6875,0 0,-5.16 -0.345,0 0,5.16 -1.6875,0 0,-5.16 -0.345,0 0,5.16 -1.695,0 0,-6.3525 1.695,0 0,0.42 q 0.06,-0.1725 0.2175,-0.2925 0.1575,-0.1275 0.33,-0.1275 l 0.9075,0 q 0.1875,0 0.345,0.135 0.165,0.135 0.2175,0.315 0.045,-0.18 0.21,-0.315 0.165,-0.135 0.3525,-0.135 l 0.9075,0 q 0.2175,0 0.3975,0.18 0.18,0.1725 0.18,0.39 l 0,5.7825 z"
         id="path4111"
         inkscape:connector-curvature="0"
         style="fill:url(#linearGradient4140);fill-opacity:1" />
    </g>
    <path
       style="fill:#000000;fill-opacity:0.05882353;stroke:none"
       d="m 23.999609,1014.1626 c -8.504979,0 -15.3999996,6.895 -15.3999996,15.4 0,8.505 6.8950206,15.4 15.3999996,15.4 8.504978,0 15.4,-6.895 15.4,-15.4 0,-8.505 -6.895022,-15.4 -15.4,-15.4 z m 0,2.8886 c 6.910295,0 12.511402,5.6012 12.511402,12.5114 0,6.9103 -5.601107,12.5114 -12.511402,12.5114 -6.910295,0 -12.511401,-5.6011 -12.511401,-12.5114 0,-6.9102 5.601106,-12.5114 12.511401,-12.5114 z"
       id="path4062"
       inkscape:connector-curvature="0" />
    <path
       inkscape:connector-curvature="0"
       id="path4060"
       d="m 23.999609,1013.7626 c -8.504979,0 -15.3999996,6.895 -15.3999996,15.4 0,8.505 6.8950206,15.4 15.3999996,15.4 8.504978,0 15.4,-6.895 15.4,-15.4 0,-8.505 -6.895022,-15.4 -15.4,-15.4 z m 0,2.8886 c 6.910295,0 12.511402,5.6012 12.511402,12.5114 0,6.9103 -5.601107,12.5114 -12.511402,12.5114 -6.910295,0 -12.511401,-5.6011 -12.511401,-12.5114 0,-6.9102 5.601106,-12.5114 12.511401,-12.5114 z"
       style="fill:#000000;fill-opacity:0.11764706;stroke:none" />
    <path
       style="fill:#000000;fill-opacity:0.23529412;stroke:none"
       d="m 23.999609,1013.3626 c -8.504979,0 -15.3999996,6.895 -15.3999996,15.4 0,8.505 6.8950206,15.4 15.3999996,15.4 8.504978,0 15.4,-6.895 15.4,-15.4 0,-8.505 -6.895022,-15.4 -15.4,-15.4 z m 0,2.8886 c 6.910295,0 12.511402,5.6012 12.511402,12.5114 0,6.9103 -5.601107,12.5114 -12.511402,12.5114 -6.910295,0 -12.511401,-5.6011 -12.511401,-12.5114 0,-6.9102 5.601106,-12.5114 12.511401,-12.5114 z"
       id="path4055"
       inkscape:connector-curvature="0" />
    <path
       inkscape:connector-curvature="0"
       style="fill:#000000;fill-opacity:1;stroke:none"
       d="m -2e-7,1049.3622 0,1.0625 c 0,1.0773 0.8602234,1.9375 1.9375004,1.9375 l 44.1249998,0 c 1.077277,0 1.9375,-0.8602 1.9375,-1.9375 l 0,-1.0625 c 0,1.0773 -0.860223,1.9375 -1.9375,1.9375 l -44.1249998,0 C 0.8602232,1051.2997 -2e-7,1050.4395 -2e-7,1049.3622 Z"
       id="rect846" />
    <path
       inkscape:connector-curvature="0"
       style="fill:#ffffff;fill-opacity:0.5372549;stroke:none"
       d="m 2.5312502,1005.0185 c -0.917089,0 -1.671147,0.6395 -1.84375,1.5 0.335612,-0.2799 0.774512,-0.4375 1.25,-0.4375 l 44.1249998,0 c 0.475488,0 0.914388,0.1576 1.25,0.4375 -0.172603,-0.8605 -0.926662,-1.5 -1.84375,-1.5 L 2.5312502,1005.0185 Z"
       id="path7515" />
    <path
       inkscape:connector-curvature="0"
       style="fill:#000000;fill-opacity:0.39215686;stroke:none"
       d="m 1.9375002,1004.3622 c -1.077277,0 -1.9375004,0.8602 -1.9375004,1.9375 l 0,43.0625 c 0,0.7934 0.4800236,1.449 1.1562504,1.75 -0.309342,-0.3333 -0.5,-0.7824 -0.5,-1.2812 l 0,-42.9375 c 0,-1.0482 0.826899,-1.875 1.875,-1.875 l 42.9374998,0 c 1.048101,0 1.875,0.8268 1.875,1.875 l 0,42.9375 c 0,0.4988 -0.190658,0.9479 -0.5,1.2812 0.676226,-0.301 1.15625,-0.9566 1.15625,-1.75 l 0,-43.0625 c 0,-1.0773 -0.860223,-1.9375 -1.9375,-1.9375 L 1.9375002,1004.3622 Z"
       id="rect4280" />
    <path
       style="fill:url(#linearGradient4078);fill-opacity:1.0;stroke:none"
       d="m 24.000001,1043.7622 c 8.505194,0 15.400016,-6.8948 15.400016,-15.4 0,-8.5052 -6.894822,-15.4 -15.400016,-15.4 l 0,2.8875 c 6.91047,0 12.512513,5.6021 12.512513,12.5125 0,6.9105 -5.602043,12.5125 -12.512513,12.5125 l 0,2.8875 z"
       id="path863"
       inkscape:connector-curvature="0" />
    <path
       style="fill:url(#linearGradient4070);fill-opacity:1;stroke:none"
       d="m 8.5999834,1028.3622 c 0,8.5052 6.8948226,15.4 15.4000176,15.4 l 0,-2.8875 c -6.910471,0 -12.512514,-5.602 -12.512514,-12.5125 0,-6.9104 5.602043,-12.5125 12.512514,-12.5125 l 0,-2.8875 c -8.505195,0 -15.4000176,6.8948 -15.4000176,15.4 z"
       id="path858"
       inkscape:connector-curvature="0" />
    <path
       style="fill:#000000;fill-opacity:0.3137255;stroke:none"
       d="M 24 10.689453 C 17.089705 10.689453 11.488281 16.289019 11.488281 23.199219 C 11.488281 23.334381 11.503559 23.465481 11.507812 23.599609 C 11.721027 16.876385 17.224867 11.488281 24 11.488281 C 30.775133 11.488281 36.278973 16.876385 36.492188 23.599609 C 36.496441 23.465481 36.511719 23.334381 36.511719 23.199219 C 36.511719 16.289019 30.910295 10.689453 24 10.689453 z M 8.6191406 23.599609 C 8.6156779 23.733959 8.5996094 23.864815 8.5996094 24 C 8.5996094 32.505 15.495021 39.400391 24 39.400391 C 32.504978 39.400391 39.400391 32.505 39.400391 24 C 39.400391 23.864815 39.384322 23.733959 39.380859 23.599609 C 39.166728 31.917975 32.369961 38.599609 24 38.599609 C 15.630038 38.599609 8.8332724 31.917975 8.6191406 23.599609 z "
       transform="translate(0,1004.3622)"
       id="path4117" />
    <path
       style="fill:#ffffff;fill-opacity:0.23529412;stroke:none"
       d="M 24 8.5996094 C 15.495021 8.5996094 8.5996094 15.495 8.5996094 24 C 8.5996094 24.067263 8.6085151 24.132159 8.609375 24.199219 C 8.7182888 15.787984 15.562942 9 24 9 C 32.437057 9 39.281711 15.787984 39.390625 24.199219 C 39.391485 24.132159 39.400391 24.067263 39.400391 24 C 39.400391 15.495 32.504978 8.5996094 24 8.5996094 z M 11.498047 24.199219 C 11.496969 24.266871 11.488281 24.332482 11.488281 24.400391 C 11.488281 31.310691 17.089705 36.912109 24 36.912109 C 30.910295 36.912109 36.511719 31.310691 36.511719 24.400391 C 36.511719 24.332482 36.503031 24.266871 36.501953 24.199219 C 36.394395 31.016629 30.843043 36.511719 24 36.511719 C 17.156957 36.511719 11.605605 31.016629 11.498047 24.199219 z "
       transform="translate(0,1004.3622)"
       id="path4122" />
    <path
       style="font-size:7.5px;font-style:normal;font-variant:normal;font-weight:normal;font-stretch:normal;line-height:125%;letter-spacing:0px;word-spacing:0px;fill:#394047;fill-opacity:0.3137255;stroke:none;font-family:GreatLakesNF;-inkscape-font-specification:GreatLakesNF"
       d="M 18.689453 21.587891 L 18.689453 21.988281 L 19.324219 21.988281 L 19.324219 21.587891 L 18.689453 21.587891 z M 22.818359 21.587891 L 22.818359 21.988281 L 23.455078 21.988281 L 23.455078 21.587891 L 22.818359 21.587891 z M 26.949219 21.632812 L 26.949219 22.033203 L 27.292969 22.033203 L 27.292969 21.632812 L 26.949219 21.632812 z M 28.974609 21.632812 L 28.974609 22.033203 L 29.318359 22.033203 L 29.318359 21.632812 L 28.974609 21.632812 z M 20.855469 22.777344 C 20.855469 22.941044 20.719314 23.146631 20.445312 23.394531 C 20.530123 23.459005 20.578271 23.521331 20.636719 23.583984 C 20.766828 23.431101 20.855469 23.290647 20.855469 23.177734 L 20.855469 22.777344 z M 24.986328 23.738281 C 24.986328 23.881981 24.926205 24.011859 24.806641 24.130859 C 24.687077 24.244659 24.55463 24.302734 24.410156 24.302734 L 22.818359 24.302734 L 22.818359 24.703125 L 24.410156 24.703125 C 24.55463 24.703125 24.687077 24.64505 24.806641 24.53125 C 24.926205 24.41225 24.986328 24.280519 24.986328 24.136719 L 24.986328 23.738281 z M 18.689453 23.990234 L 18.689453 24.390625 L 19.324219 24.390625 L 19.324219 23.990234 L 18.689453 23.990234 z M 20.855469 26.185547 C 20.855469 26.329347 20.795346 26.459225 20.675781 26.578125 C 20.556217 26.692025 20.425723 26.75 20.28125 26.75 L 17 26.75 L 17 27.150391 L 20.28125 27.150391 C 20.425723 27.150391 20.556217 27.092416 20.675781 26.978516 C 20.795346 26.859616 20.855469 26.727684 20.855469 26.583984 L 20.855469 26.185547 z M 21.130859 26.75 L 21.130859 27.150391 L 22.818359 27.150391 L 22.818359 26.75 L 21.130859 26.75 z M 25.261719 26.75 L 25.261719 27.150391 L 26.949219 27.150391 L 26.949219 26.75 L 25.261719 26.75 z M 27.292969 26.75 L 27.292969 27.150391 L 28.974609 27.150391 L 28.974609 26.75 L 27.292969 26.75 z M 29.318359 26.75 L 29.318359 27.150391 L 31 27.150391 L 31 26.75 L 29.318359 26.75 z "
       transform="translate(0,1004.3622)"
       id="path4160" />
    <path
       style="font-size:7.5px;font-style:normal;font-variant:normal;font-weight:normal;font-stretch:normal;line-height:125%;letter-spacing:0px;word-spacing:0px;fill:#ffffff;fill-opacity:0.23529412;stroke:none;font-family:GreatLakesNF;-inkscape-font-specification:GreatLakesNF"
       d="M 17 20.849609 L 17 21.25 L 20.28125 21.25 C 20.430705 21.25 20.561199 21.307875 20.675781 21.421875 C 20.795349 21.535875 20.855469 21.665653 20.855469 21.814453 L 20.855469 21.416016 C 20.855469 21.267216 20.795349 21.135484 20.675781 21.021484 C 20.561199 20.907584 20.430705 20.849609 20.28125 20.849609 L 17 20.849609 z M 21.130859 20.849609 L 21.130859 21.25 L 24.410156 21.25 C 24.55463 21.25 24.687077 21.308734 24.806641 21.427734 C 24.926208 21.541734 24.986328 21.670653 24.986328 21.814453 L 24.986328 21.416016 C 24.986328 21.272216 24.926208 21.143197 24.806641 21.029297 C 24.687077 20.910297 24.55463 20.849609 24.410156 20.849609 L 21.130859 20.849609 z M 25.261719 20.849609 L 25.261719 21.25 L 26.949219 21.25 L 26.949219 20.849609 L 25.261719 20.849609 z M 27.496094 20.849609 C 27.381512 20.849609 27.270635 20.892662 27.166016 20.976562 C 27.061396 21.055562 26.989072 21.151625 26.949219 21.265625 L 26.949219 21.666016 C 26.989072 21.552116 27.061396 21.455953 27.166016 21.376953 C 27.270635 21.293053 27.381512 21.25 27.496094 21.25 L 28.400391 21.25 C 28.524937 21.25 28.639522 21.295766 28.744141 21.384766 C 28.853741 21.474066 28.924114 21.578266 28.958984 21.697266 C 28.988878 21.578266 29.060323 21.473766 29.169922 21.384766 C 29.279522 21.295066 29.394985 21.25 29.519531 21.25 L 30.423828 21.25 C 30.568301 21.25 30.700748 21.308734 30.820312 21.427734 C 30.93988 21.541734 31 21.670653 31 21.814453 L 31 21.416016 C 31 21.272216 30.93988 21.143297 30.820312 21.029297 C 30.700748 20.910297 30.568301 20.849609 30.423828 20.849609 L 29.519531 20.849609 C 29.394985 20.849609 29.279522 20.894675 29.169922 20.984375 C 29.060323 21.073375 28.988878 21.177875 28.958984 21.296875 C 28.924114 21.177875 28.853741 21.073675 28.744141 20.984375 C 28.639522 20.895375 28.524937 20.849609 28.400391 20.849609 L 27.496094 20.849609 z M 18.689453 23.251953 L 18.689453 23.652344 L 19.324219 23.652344 L 19.324219 23.251953 L 18.689453 23.251953 z M 22.818359 23.556641 L 22.818359 23.957031 L 23.455078 23.957031 L 23.455078 23.556641 L 22.818359 23.556641 z M 20.636719 23.984375 C 20.578196 24.053141 20.530321 24.118402 20.445312 24.195312 C 20.719315 24.403613 20.855469 24.602616 20.855469 24.791016 L 20.855469 24.390625 C 20.855469 24.26054 20.767101 24.12414 20.636719 23.984375 z M 18.689453 26.011719 L 18.689453 26.412109 L 19.324219 26.412109 L 19.324219 26.011719 L 18.689453 26.011719 z "
       transform="translate(0,1004.3622)"
       id="path4185" />
  </g>
</svg>
