<?xml version="1.0" encoding="UTF-8" standalone="no"?>
<!-- Created with Inkscape (http://www.inkscape.org/) -->

<svg
   xmlns:dc="http://purl.org/dc/elements/1.1/"
   xmlns:cc="http://creativecommons.org/ns#"
   xmlns:rdf="http://www.w3.org/1999/02/22-rdf-syntax-ns#"
   xmlns:svg="http://www.w3.org/2000/svg"
   xmlns="http://www.w3.org/2000/svg"
   xmlns:xlink="http://www.w3.org/1999/xlink"
   xmlns:sodipodi="http://sodipodi.sourceforge.net/DTD/sodipodi-0.dtd"
   xmlns:inkscape="http://www.inkscape.org/namespaces/inkscape"
   width="48"
   height="48"
   id="svg2"
   version="1.1"
   inkscape:version="0.48+devel r12877"
   sodipodi:docname="gnome-info.svg">
  <defs
     id="defs4">
    <linearGradient
       id="linearGradient4091">
      <stop
         id="stop4093"
         offset="0"
         style="stop-color:#b9ddff;stop-opacity:1" />
      <stop
         id="stop4095"
         offset="1"
         style="stop-color:#f5fcff;stop-opacity:1" />
    </linearGradient>
    <linearGradient
       id="linearGradient908">
      <stop
         style="stop-color:#0062bf;stop-opacity:1"
         offset="0"
         id="stop910" />
      <stop
         style="stop-color:#0095d4;stop-opacity:1"
         offset="1"
         id="stop912" />
    </linearGradient>
    <linearGradient
       inkscape:collect="always"
       xlink:href="#linearGradient908"
       id="linearGradient848"
       x1="-25.667843"
       y1="-1036.7864"
       x2="-25.667843"
       y2="-988.80719"
       gradientUnits="userSpaceOnUse"
       gradientTransform="translate(50.007065,-15.575966)" />
    <linearGradient
       inkscape:collect="always"
       xlink:href="#linearGradient4091"
       id="linearGradient4089"
       gradientUnits="userSpaceOnUse"
       x1="31.224005"
       y1="1044.3646"
       x2="31.224005"
       y2="1012.3594"
       gradientTransform="matrix(0.96251017,0,0,0.96251017,0.89975583,38.553094)" />
  </defs>
  <sodipodi:namedview
     id="base"
     pagecolor="#ffffff"
     bordercolor="#666666"
     borderopacity="1.0"
     inkscape:pageopacity="0.0"
     inkscape:pageshadow="2"
     inkscape:zoom="5.7231455"
     inkscape:cx="9.5244413"
     inkscape:cy="32.322536"
     inkscape:document-units="px"
     inkscape:current-layer="layer1"
     showgrid="false"
     inkscape:window-width="1366"
     inkscape:window-height="671"
     inkscape:window-x="0"
     inkscape:window-y="24"
     inkscape:window-maximized="1">
    <inkscape:grid
       type="xygrid"
       id="grid3850"
       empspacing="5"
       visible="true"
       enabled="true"
       snapvisiblegridlinesonly="true" />
  </sodipodi:namedview>
  <metadata
     id="metadata7">
    <rdf:RDF>
      <cc:Work
         rdf:about="">
        <dc:format>image/svg+xml</dc:format>
        <dc:type
           rdf:resource="http://purl.org/dc/dcmitype/StillImage" />
        <dc:title></dc:title>
      </cc:Work>
    </rdf:RDF>
  </metadata>
  <g
     inkscape:label="Capa 1"
     inkscape:groupmode="layer"
     id="layer1"
     transform="translate(0,-1004.3622)">
    <rect
       style="fill:url(#linearGradient848);fill-opacity:1;stroke:none"
       id="rect2991-1-8"
       width="48"
       height="48"
       x="5.9033204e-07"
       y="-1052.3622"
       ry="1.9445436"
       transform="scale(1,-1)" />
    <path
       inkscape:connector-curvature="0"
       id="path4118"
       d="m 26.868291,1014.1619 c -2.254857,0 -4.084888,1.7237 -4.084888,3.8495 0,2.1252 1.830031,3.8495 4.084888,3.8495 2.25375,0 4.084887,-1.7243 4.084887,-3.8495 0,-2.1258 -1.831137,-3.8495 -4.084887,-3.8495 z m -3.378686,9.236 c -1.025514,0.01 -2.317724,0.1842 -3.891028,0.6785 0,0 -1.966284,0.5611 -2.478627,1.4678 0,0 -0.366116,0.6508 0.540036,0.5816 0,0 3.86278,-0.3102 3.863334,1.3847 -0.0061,0.098 -0.01385,0.2044 -0.01385,0.3046 0,0.1313 0.0038,0.2587 0.01385,0.3877 0,0 -0.01329,1.0989 -0.526189,3.2541 0,0 -1.863816,6.6023 -2.03552,7.8651 -0.11133,0.3983 -0.166164,0.8336 -0.166164,1.274 0,1.4605 0.658012,2.7345 1.647802,3.4479 0,0 0.03766,0.029 0.124623,0.083 0.187766,0.1224 0.388272,0.2243 0.595424,0.3046 1.032438,0.4398 3.175411,0.9648 6.466584,-0.069 0,0 1.967392,-0.5611 2.478626,-1.4678 0,0 0.365563,-0.6508 -0.540035,-0.5816 0,0 -3.862781,0.3107 -3.863334,-1.3847 0.0072,-0.1113 0.01385,-0.2327 0.01385,-0.3462 0,-0.044 0.0012,-0.08 0,-0.1246 -0.0044,-0.5024 0.03933,-2.4111 0.872367,-4.9988 0,0 1.363105,-4.0012 1.786272,-6.5634 0.06813,-0.3081 0.102468,-0.6238 0.110776,-0.9555 0.01108,-0.1784 0.0094,-0.3418 0,-0.4847 -0.0016,-0.031 -0.0038,-0.057 -0.01385,-0.083 -0.124624,-1.4368 -0.852426,-2.6597 -1.869356,-3.2956 0,0 -0.04818,-0.041 -0.152318,-0.097 -0.209921,-0.1158 -0.435352,-0.1994 -0.664659,-0.2631 -0.513172,-0.1645 -1.2731,-0.3266 -2.298614,-0.3185 z"
       style="fill:#000000;fill-opacity:0.05882353;fill-rule:nonzero;stroke:none" />
    <path
       style="fill:#000000;fill-opacity:0.11764706;fill-rule:nonzero;stroke:none"
       d="m 26.868291,1013.7619 c -2.254857,0 -4.084888,1.7237 -4.084888,3.8495 0,2.1252 1.830031,3.8495 4.084888,3.8495 2.25375,0 4.084887,-1.7243 4.084887,-3.8495 0,-2.1258 -1.831137,-3.8495 -4.084887,-3.8495 z m -3.378686,9.236 c -1.025514,0.01 -2.317724,0.1842 -3.891028,0.6785 0,0 -1.966284,0.5611 -2.478627,1.4678 0,0 -0.366116,0.6508 0.540036,0.5816 0,0 3.86278,-0.3102 3.863334,1.3847 -0.0061,0.098 -0.01385,0.2044 -0.01385,0.3046 0,0.1313 0.0038,0.2587 0.01385,0.3877 0,0 -0.01329,1.0989 -0.526189,3.2541 0,0 -1.863816,6.6023 -2.03552,7.8651 -0.11133,0.3983 -0.166164,0.8336 -0.166164,1.274 0,1.4605 0.658012,2.7345 1.647802,3.4479 0,0 0.03766,0.029 0.124623,0.083 0.187766,0.1224 0.388272,0.2243 0.595424,0.3046 1.032438,0.4398 3.175411,0.9648 6.466584,-0.069 0,0 1.967392,-0.5611 2.478626,-1.4678 0,0 0.365563,-0.6508 -0.540035,-0.5816 0,0 -3.862781,0.3107 -3.863334,-1.3847 0.0072,-0.1113 0.01385,-0.2327 0.01385,-0.3462 0,-0.044 0.0012,-0.08 0,-0.1246 -0.0044,-0.5024 0.03933,-2.4111 0.872367,-4.9988 0,0 1.363105,-4.0012 1.786272,-6.5634 0.06813,-0.3081 0.102468,-0.6238 0.110776,-0.9555 0.01108,-0.1784 0.0094,-0.3418 0,-0.4847 -0.0016,-0.031 -0.0038,-0.057 -0.01385,-0.083 -0.124624,-1.4368 -0.852426,-2.6597 -1.869356,-3.2956 0,0 -0.04818,-0.041 -0.152318,-0.097 -0.209921,-0.1158 -0.435352,-0.1994 -0.664659,-0.2631 -0.513172,-0.1645 -1.2731,-0.3266 -2.298614,-0.3185 z"
       id="path4116"
       inkscape:connector-curvature="0" />
    <path
       inkscape:connector-curvature="0"
       id="path4110"
       d="m 26.868291,1013.3619 c -2.254857,0 -4.084888,1.7237 -4.084888,3.8495 0,2.1252 1.830031,3.8495 4.084888,3.8495 2.25375,0 4.084887,-1.7243 4.084887,-3.8495 0,-2.1258 -1.831137,-3.8495 -4.084887,-3.8495 z m -3.378686,9.236 c -1.025514,0.01 -2.317724,0.1842 -3.891028,0.6785 0,0 -1.966284,0.5611 -2.478627,1.4678 0,0 -0.366116,0.6508 0.540036,0.5816 0,0 3.86278,-0.3102 3.863334,1.3847 -0.0061,0.098 -0.01385,0.2044 -0.01385,0.3046 0,0.1313 0.0038,0.2587 0.01385,0.3877 0,0 -0.01329,1.0989 -0.526189,3.2541 0,0 -1.863816,6.6023 -2.03552,7.8651 -0.11133,0.3983 -0.166164,0.8336 -0.166164,1.274 0,1.4605 0.658012,2.7345 1.647802,3.4479 0,0 0.03766,0.029 0.124623,0.083 0.187766,0.1224 0.388272,0.2243 0.595424,0.3046 1.032438,0.4398 3.175411,0.9648 6.466584,-0.069 0,0 1.967392,-0.5611 2.478626,-1.4678 0,0 0.365563,-0.6508 -0.540035,-0.5816 0,0 -3.862781,0.3107 -3.863334,-1.3847 0.0072,-0.1113 0.01385,-0.2327 0.01385,-0.3462 0,-0.044 0.0012,-0.08 0,-0.1246 -0.0044,-0.5024 0.03933,-2.4111 0.872367,-4.9988 0,0 1.363105,-4.0012 1.786272,-6.5634 0.06813,-0.3081 0.102468,-0.6238 0.110776,-0.9555 0.01108,-0.1784 0.0094,-0.3418 0,-0.4847 -0.0016,-0.031 -0.0038,-0.057 -0.01385,-0.083 -0.124624,-1.4368 -0.852426,-2.6597 -1.869356,-3.2956 0,0 -0.04818,-0.041 -0.152318,-0.097 -0.209921,-0.1158 -0.435352,-0.1994 -0.664659,-0.2631 -0.513172,-0.1645 -1.2731,-0.3266 -2.298614,-0.3185 z"
       style="fill:#000000;fill-opacity:0.23529412;fill-rule:nonzero;stroke:none" />
    <path
       inkscape:connector-curvature="0"
       style="fill:#000000;fill-opacity:1;stroke:none"
       d="m -5.9033203e-7,1049.3622 0,1.0625 c 0,1.0773 0.86022300033203,1.9375 1.93749999033203,1.9375 l 44.1249996,0 c 1.077277,0 1.9375,-0.8602 1.9375,-1.9375 l 0,-1.0625 c 0,1.0773 -0.860223,1.9375 -1.9375,1.9375 l -44.1249996,0 C 0.86022241,1051.2997 -5.9033203e-7,1050.4395 -5.9033203e-7,1049.3622 Z"
       id="rect846" />
    <path
       inkscape:connector-curvature="0"
       style="fill:#ffffff;fill-opacity:0.5372549;stroke:none"
       d="m 2.5312494,1005.0185 c -0.917089,0 -1.67114699,0.6395 -1.84374999,1.5 0.33561199,-0.2799 0.77451199,-0.4375 1.24999999,-0.4375 l 44.1249996,0 c 0.475488,0 0.914388,0.1576 1.25,0.4375 -0.172603,-0.8605 -0.926662,-1.5 -1.84375,-1.5 L 2.5312494,1005.0185 Z"
       id="path7515" />
    <path
       inkscape:connector-curvature="0"
       style="fill:#000000;fill-opacity:0.39215686;stroke:none"
       d="m 1.9374994,1004.3622 c -1.07727699,0 -1.93749999033203,0.8602 -1.93749999033203,1.9375 l 0,43.0625 c 0,0.7934 0.48002400033203,1.449 1.15624999033203,1.75 -0.30934199,-0.3333 -0.49999999,-0.7824 -0.49999999,-1.2812 l 0,-42.9375 c 0,-1.0482 0.82689899,-1.875 1.87499999,-1.875 l 42.9374996,0 c 1.048101,0 1.875,0.8268 1.875,1.875 l 0,42.9375 c 0,0.4988 -0.190658,0.9479 -0.5,1.2812 0.676226,-0.301 1.15625,-0.9566 1.15625,-1.75 l 0,-43.0625 c 0,-1.0773 -0.860223,-1.9375 -1.9375,-1.9375 L 1.9374994,1004.3622 Z"
       id="rect4280" />
    <path
       style="fill:url(#linearGradient4089);fill-opacity:1;fill-rule:nonzero;stroke:none"
       d="m 26.868291,1012.9622 c -2.254857,0 -4.084888,1.7237 -4.084888,3.8495 0,2.1252 1.830031,3.8495 4.084888,3.8495 2.25375,0 4.084887,-1.7243 4.084887,-3.8495 0,-2.1258 -1.831137,-3.8495 -4.084887,-3.8495 z m -3.378686,9.236 c -1.025514,0.01 -2.317724,0.1842 -3.891028,0.6785 0,0 -1.966284,0.5611 -2.478627,1.4678 0,0 -0.366116,0.6508 0.540036,0.5816 0,0 3.86278,-0.3102 3.863334,1.3847 -0.0061,0.098 -0.01385,0.2044 -0.01385,0.3046 0,0.1313 0.0038,0.2587 0.01385,0.3877 0,0 -0.01329,1.0989 -0.526189,3.2541 0,0 -1.863816,6.6023 -2.03552,7.8651 -0.11133,0.3983 -0.166164,0.8336 -0.166164,1.274 0,1.4605 0.658012,2.7345 1.647802,3.4479 0,0 0.03766,0.029 0.124623,0.083 0.187766,0.1224 0.388272,0.2243 0.595424,0.3046 1.032438,0.4398 3.175411,0.9648 6.466584,-0.069 0,0 1.967392,-0.5611 2.478626,-1.4678 0,0 0.365563,-0.6508 -0.540035,-0.5816 0,0 -3.862781,0.3107 -3.863334,-1.3847 0.0072,-0.1113 0.01385,-0.2327 0.01385,-0.3462 0,-0.044 0.0012,-0.08 0,-0.1246 -0.0044,-0.5024 0.03933,-2.4111 0.872367,-4.9988 0,0 1.363105,-4.0012 1.786272,-6.5634 0.06813,-0.3081 0.102468,-0.6238 0.110776,-0.9555 0.01108,-0.1784 0.0094,-0.3418 0,-0.4847 -0.0016,-0.031 -0.0038,-0.057 -0.01385,-0.083 -0.124624,-1.4368 -0.852426,-2.6597 -1.869356,-3.2956 0,0 -0.04818,-0.041 -0.152318,-0.097 -0.209921,-0.1158 -0.435352,-0.1994 -0.664659,-0.2631 -0.513172,-0.1645 -1.2731,-0.3266 -2.298614,-0.3185 z"
       id="path1640"
       inkscape:connector-curvature="0" />
    <path
       style="fill:#0068c1;fill-opacity:0.3137255;fill-rule:nonzero;stroke:none"
       d="M 22.826172 12.048828 C 22.811304 12.182322 22.783203 12.31202 22.783203 12.449219 C 22.783203 14.574419 24.614284 16.298828 26.869141 16.298828 C 29.122891 16.298828 30.953125 14.574419 30.953125 12.449219 C 30.953125 12.31202 30.925032 12.182322 30.910156 12.048828 C 30.695022 13.983792 28.977795 15.498047 26.869141 15.498047 C 24.75945 15.498047 23.041186 13.983792 22.826172 12.048828 z M 17.310547 19.738281 C 17.239372 19.817353 17.167386 19.897041 17.119141 19.982422 C 17.119141 19.982422 16.754004 20.633653 17.660156 20.564453 C 17.660156 20.564453 21.454101 20.26208 21.517578 21.910156 C 21.51766 21.906326 21.523438 21.841797 21.523438 21.841797 C 21.513388 21.712797 21.509766 21.584425 21.509766 21.453125 C 21.509766 21.352925 21.517338 21.246437 21.523438 21.148438 C 21.522883 19.453537 17.660156 19.763672 17.660156 19.763672 C 17.50596 19.775447 17.399135 19.761453 17.310547 19.738281 z M 28.466797 21.757812 C 28.451875 22.022488 28.432261 22.28317 28.376953 22.533203 C 27.953786 25.095403 26.591797 29.097656 26.591797 29.097656 C 25.75876 31.685356 25.71435 33.593203 25.71875 34.095703 C 25.71995 34.140303 25.71875 34.176703 25.71875 34.220703 C 25.71875 34.334203 25.712278 34.455206 25.705078 34.566406 C 25.705093 34.613449 25.718812 34.653262 25.724609 34.697266 C 25.731812 34.034181 25.824529 32.279883 26.591797 29.896484 C 26.591797 29.896484 27.953786 25.896184 28.376953 23.333984 C 28.445083 23.025884 28.479973 22.710606 28.488281 22.378906 C 28.499361 22.200506 28.497681 22.035478 28.488281 21.892578 C 28.486681 21.861578 28.484659 21.836547 28.474609 21.810547 C 28.47305 21.792569 28.468545 21.775723 28.466797 21.757812 z M 18.818359 34.648438 C 18.808781 34.776595 18.794922 34.903341 18.794922 35.033203 C 18.794922 36.493703 19.453569 37.769022 20.443359 38.482422 C 20.443359 38.482422 20.481396 38.510453 20.568359 38.564453 C 20.756125 38.686853 20.956911 38.788841 21.164062 38.869141 C 22.1965 39.308941 24.337733 39.834581 27.628906 38.800781 C 27.628906 38.800781 29.598141 38.238731 30.109375 37.332031 C 30.109375 37.332031 30.35009 36.888277 29.917969 36.775391 C 29.234107 37.536209 27.628906 38 27.628906 38 C 24.337733 39.0338 22.1965 38.510012 21.164062 38.070312 C 20.956911 37.990013 20.756125 37.888125 20.568359 37.765625 C 20.481396 37.711625 20.443359 37.681641 20.443359 37.681641 C 19.54894 37.03689 18.930209 35.93258 18.818359 34.648438 z "
       transform="translate(0,1004.3622)"
       id="path4097" />
    <path
       style="fill:#ffffff;fill-opacity:0.23529412;fill-rule:nonzero;stroke:none"
       d="M 26.869141 8.5996094 C 24.614284 8.5996094 22.783203 10.323419 22.783203 12.449219 C 22.783203 12.517468 22.800959 12.581059 22.804688 12.648438 C 22.918089 10.618143 24.687398 9 26.869141 9 C 29.049812 9 30.818173 10.618143 30.931641 12.648438 C 30.935371 12.581059 30.953125 12.517468 30.953125 12.449219 C 30.953125 10.323419 29.122891 8.5996094 26.869141 8.5996094 z M 23.490234 17.835938 C 22.46472 17.845937 21.17096 18.019372 19.597656 18.513672 C 19.597656 18.513672 17.631484 19.075722 17.119141 19.982422 C 17.119141 19.982422 16.975108 20.246115 17.103516 20.419922 C 17.108511 20.409811 17.119141 20.382812 17.119141 20.382812 C 17.631484 19.476112 19.597656 18.914062 19.597656 18.914062 C 21.17096 18.419763 22.46472 18.246328 23.490234 18.236328 C 24.515748 18.228228 25.27589 18.390188 25.789062 18.554688 C 26.018369 18.618388 26.243204 18.702559 26.453125 18.818359 C 26.557263 18.874359 26.605469 18.914062 26.605469 18.914062 C 27.622399 19.549962 28.349985 20.774138 28.474609 22.210938 C 28.484659 22.236938 28.486681 22.261969 28.488281 22.292969 C 28.49382 22.150599 28.49602 22.010227 28.488281 21.892578 C 28.486681 21.861578 28.484659 21.836547 28.474609 21.810547 C 28.349985 20.373747 27.622399 19.151525 26.605469 18.515625 C 26.605469 18.515625 26.557263 18.473969 26.453125 18.417969 C 26.243204 18.302169 26.018369 18.217997 25.789062 18.154297 C 25.27589 17.989797 24.515748 17.827837 23.490234 17.835938 z M 21.509766 22.253906 C 21.509766 22.329503 21.514591 22.402502 21.517578 22.476562 C 21.520038 22.433198 21.520857 22.389119 21.523438 22.347656 C 21.523426 22.313762 21.512804 22.286215 21.509766 22.253906 z M 21.513672 22.757812 C 21.509592 22.903674 21.474231 23.893607 20.998047 25.894531 C 20.998047 25.894531 19.132641 32.496966 18.960938 33.759766 C 18.849608 34.158066 18.794922 34.592803 18.794922 35.033203 C 18.794922 35.103971 18.803588 35.172338 18.806641 35.242188 C 18.820399 34.868253 18.865939 34.500029 18.960938 34.160156 C 19.132641 32.897356 20.998047 26.294922 20.998047 26.294922 C 21.510946 24.139722 21.523438 23.041016 21.523438 23.041016 C 21.516115 22.947023 21.515306 22.852234 21.513672 22.757812 z M 25.716797 35.453125 C 25.715692 35.556938 25.711586 35.665023 25.705078 35.765625 C 25.705631 37.461025 29.568359 37.150391 29.568359 37.150391 C 29.895355 37.125404 30.05242 37.196695 30.125 37.294922 C 30.173761 37.196063 30.389929 36.689174 29.568359 36.751953 C 29.568359 36.751953 25.852766 37.046797 25.716797 35.453125 z "
       transform="translate(0,1004.3622)"
       id="path4105" />
  </g>
</svg>
