<?xml version="1.0" encoding="UTF-8" standalone="no"?>
<!-- Created with Inkscape (http://www.inkscape.org/) -->

<svg
   xmlns:dc="http://purl.org/dc/elements/1.1/"
   xmlns:cc="http://creativecommons.org/ns#"
   xmlns:rdf="http://www.w3.org/1999/02/22-rdf-syntax-ns#"
   xmlns:svg="http://www.w3.org/2000/svg"
   xmlns="http://www.w3.org/2000/svg"
   xmlns:xlink="http://www.w3.org/1999/xlink"
   xmlns:sodipodi="http://sodipodi.sourceforge.net/DTD/sodipodi-0.dtd"
   xmlns:inkscape="http://www.inkscape.org/namespaces/inkscape"
   width="48"
   height="48"
   id="svg2"
   version="1.1"
   inkscape:version="0.48+devel r12923"
   sodipodi:docname="haguichi.svg">
  <defs
     id="defs4">
    <linearGradient
       id="linearGradient4089">
      <stop
         id="stop4091"
         offset="0"
         style="stop-color:#f9e9bf;stop-opacity:1" />
      <stop
         id="stop4093"
         offset="1"
         style="stop-color:#fffcf5;stop-opacity:1" />
    </linearGradient>
    <linearGradient
       gradientUnits="userSpaceOnUse"
       y2="-1004.6325"
       x2="26.162949"
       y1="-1052.7157"
       x1="26.162949"
       id="linearGradient941"
       xlink:href="#linearGradient1726-5"
       inkscape:collect="always"
       gradientTransform="translate(2.4880984e-7,-8.6914063e-6)" />
    <linearGradient
       id="linearGradient1726-5">
      <stop
         style="stop-color:#e9b01e;stop-opacity:1"
         offset="0"
         id="stop1728-9" />
      <stop
         style="stop-color:#fbc63a;stop-opacity:1"
         offset="1"
         id="stop1730-9" />
    </linearGradient>
    <linearGradient
       inkscape:collect="always"
       xlink:href="#linearGradient4089"
       id="linearGradient4214"
       x1="30.971888"
       y1="1041.3099"
       x2="30.971888"
       y2="1015.4786"
       gradientUnits="userSpaceOnUse"
       gradientTransform="matrix(1.1846151,0,0,1.1846151,-4.4307609,-189.85096)" />
  </defs>
  <sodipodi:namedview
     id="base"
     pagecolor="#ffffff"
     bordercolor="#666666"
     borderopacity="1.0"
     inkscape:pageopacity="0.0"
     inkscape:pageshadow="2"
     inkscape:zoom="3.890625"
     inkscape:cx="44.134967"
     inkscape:cy="38.645308"
     inkscape:document-units="px"
     inkscape:current-layer="layer1"
     showgrid="false"
     inkscape:window-width="1366"
     inkscape:window-height="669"
     inkscape:window-x="0"
     inkscape:window-y="26"
     inkscape:window-maximized="1">
    <inkscape:grid
       type="xygrid"
       id="grid3850"
       empspacing="5"
       visible="true"
       enabled="true"
       snapvisiblegridlinesonly="true" />
  </sodipodi:namedview>
  <metadata
     id="metadata7">
    <rdf:RDF>
      <cc:Work
         rdf:about="">
        <dc:format>image/svg+xml</dc:format>
        <dc:type
           rdf:resource="http://purl.org/dc/dcmitype/StillImage" />
        <dc:title></dc:title>
      </cc:Work>
    </rdf:RDF>
  </metadata>
  <g
     inkscape:label="Capa 1"
     inkscape:groupmode="layer"
     id="layer1"
     transform="translate(0,-1004.3622)">
    <rect
       style="fill:url(#linearGradient941);fill-opacity:1;stroke:none"
       id="rect2991-1"
       width="48"
       height="48"
       x="-3.2488099e-06"
       y="-1052.3622"
       ry="1.9445436"
       transform="scale(1,-1)" />
    <path
       inkscape:connector-curvature="0"
       id="path4226"
       d="m 30.059584,1014.1642 a 4.7386053,4.7441756 0 0 0 -4.874969,4.7419 4.7386053,4.7441756 0 0 0 0.333174,1.733 l -5.22434,4.7558 a 4.7386053,4.7441756 0 0 0 -6.954984,4.1859 4.7386053,4.7441756 0 0 0 7.841132,3.5765 l 4.560308,4.8694 a 4.7386053,4.7441756 0 0 0 -0.555289,2.2285 4.7386053,4.7441756 0 0 0 9.476919,0 4.7386053,4.7441756 0 0 0 -7.410786,-3.9125 l -4.710696,-5.1891 a 4.7386053,4.7441756 0 0 0 0.275332,-1.5728 4.7386053,4.7441756 0 0 0 -0.772776,-2.5875 l 4.78936,-4.4965 a 4.7386053,4.7441756 0 0 0 7.829566,-3.5907 4.7386053,4.7441756 0 0 0 -4.601951,-4.7419 z"
       style="fill:#000000;fill-opacity:0.05882353" />
    <path
       style="fill:#000000;fill-opacity:0.11764706"
       d="m 30.059584,1013.7642 a 4.7386053,4.7441756 0 0 0 -4.874969,4.7419 4.7386053,4.7441756 0 0 0 0.333174,1.733 l -5.22434,4.7558 a 4.7386053,4.7441756 0 0 0 -6.954984,4.1859 4.7386053,4.7441756 0 0 0 7.841132,3.5765 l 4.560308,4.8694 a 4.7386053,4.7441756 0 0 0 -0.555289,2.2285 4.7386053,4.7441756 0 0 0 9.476919,0 4.7386053,4.7441756 0 0 0 -7.410786,-3.9125 l -4.710696,-5.1891 a 4.7386053,4.7441756 0 0 0 0.275332,-1.5728 4.7386053,4.7441756 0 0 0 -0.772776,-2.5875 l 4.78936,-4.4965 a 4.7386053,4.7441756 0 0 0 7.829566,-3.5907 4.7386053,4.7441756 0 0 0 -4.601951,-4.7419 z"
       id="path4224"
       inkscape:connector-curvature="0" />
    <path
       inkscape:connector-curvature="0"
       id="path4220"
       d="m 30.059584,1013.3642 a 4.7386053,4.7441756 0 0 0 -4.874969,4.7419 4.7386053,4.7441756 0 0 0 0.333174,1.733 l -5.22434,4.7558 a 4.7386053,4.7441756 0 0 0 -6.954984,4.1859 4.7386053,4.7441756 0 0 0 7.841132,3.5765 l 4.560308,4.8694 a 4.7386053,4.7441756 0 0 0 -0.555289,2.2285 4.7386053,4.7441756 0 0 0 9.476919,0 4.7386053,4.7441756 0 0 0 -7.410786,-3.9125 l -4.710696,-5.1891 a 4.7386053,4.7441756 0 0 0 0.275332,-1.5728 4.7386053,4.7441756 0 0 0 -0.772776,-2.5875 l 4.78936,-4.4965 a 4.7386053,4.7441756 0 0 0 7.829566,-3.5907 4.7386053,4.7441756 0 0 0 -4.601951,-4.7419 z"
       style="fill:#000000;fill-opacity:0.23529412" />
    <path
       inkscape:connector-curvature="0"
       style="fill:#000000;fill-opacity:1;stroke:none"
       d="m -2.2535706e-6,1049.3622 0,1.0625 c 0,1.0773 0.8602230035706,1.9375 1.9374999535706,1.9375 l 44.1250003,0 c 1.077277,0 1.937505,-0.8602 1.937505,-1.9375 l 0,-1.0625 c 0,1.0773 -0.860228,1.9375 -1.937505,1.9375 l -44.1250003,0 c -1.07727695,0 -1.9374999535706,-0.8602 -1.9374999535706,-1.9375 z"
       id="rect846-8" />
    <path
       inkscape:connector-curvature="0"
       style="fill:#ffffff;fill-opacity:0.5372549;stroke:none"
       d="m 2.5312477,1005.0185 c -0.917088,0 -1.67114695,0.6395 -1.84374995,1.5 0.33561195,-0.2799 0.77451195,-0.4375 1.24999995,-0.4375 l 44.1250003,0 c 0.475488,0 0.914388,0.1576 1.250005,0.4375 -0.172608,-0.8605 -0.926667,-1.5 -1.843755,-1.5 l -42.9375003,0 z"
       id="path7515-9" />
    <path
       inkscape:connector-curvature="0"
       style="fill:#000000;fill-opacity:0.39215686;stroke:none"
       d="m 1.9374975,1004.3622 c -1.077277,0 -1.9375000023804,0.8602 -1.9375000023804,1.9375 l 0,43.0625 c 0,0.7934 0.4800240023804,1.449 1.1562500023804,1.75 -0.309342,-0.3333 -0.5,-0.7824 -0.5,-1.2812 l 0,-42.9375 c 0,-1.0482 0.826899,-1.875 1.875,-1.875 l 42.9375005,0 c 1.048101,0 1.875005,0.8268 1.875005,1.875 l 0,42.9375 c 0,0.4988 -0.190663,0.9479 -0.500005,1.2812 0.676225,-0.301 1.156255,-0.9566 1.156255,-1.75 l 0,-43.0625 c 0,-1.0773 -0.860228,-1.9375 -1.937505,-1.9375 l -44.1250005,0 z"
       id="rect4280-0" />
    <g
       style="font-size:15.97661114px;font-style:normal;font-variant:normal;font-weight:bold;font-stretch:normal;line-height:125%;letter-spacing:0px;word-spacing:0px;fill:#000000;fill-opacity:1;stroke:none;font-family:Vemana2000;-inkscape-font-specification:Vemana2000 Bold"
       id="text966"
       transform="translate(-5.4411298,0.4462607)" />
    <path
       style="fill:url(#linearGradient4214);fill-opacity:1"
       d="m 30.059584,1012.9642 a 4.7386053,4.7441756 0 0 0 -4.874969,4.7419 4.7386053,4.7441756 0 0 0 0.333174,1.733 l -5.22434,4.7558 a 4.7386053,4.7441756 0 0 0 -6.954984,4.1859 4.7386053,4.7441756 0 0 0 7.841132,3.5765 l 4.560308,4.8694 a 4.7386053,4.7441756 0 0 0 -0.555289,2.2285 4.7386053,4.7441756 0 0 0 9.476919,0 4.7386053,4.7441756 0 0 0 -7.410786,-3.9125 l -4.710696,-5.1891 a 4.7386053,4.7441756 0 0 0 0.275332,-1.5728 4.7386053,4.7441756 0 0 0 -0.772776,-2.5875 l 4.78936,-4.4965 a 4.7386053,4.7441756 0 0 0 7.829566,-3.5907 4.7386053,4.7441756 0 0 0 -4.601951,-4.7419 z"
       id="path4149"
       inkscape:connector-curvature="0" />
    <path
       style="fill:#cc9711;fill-opacity:0.3137255"
       d="M 25.205078 12.945312 A 4.7386053 4.7441756 0 0 0 25.185547 13.34375 A 4.7386053 4.7441756 0 0 0 25.324219 14.453125 L 25.517578 14.277344 A 4.7386053 4.7441756 0 0 1 25.205078 12.945312 z M 34.642578 12.953125 A 4.7386053 4.7441756 0 0 1 26.832031 16.134766 L 22.042969 20.630859 A 4.7386053 4.7441756 0 0 1 22.333984 21.158203 L 26.832031 16.935547 A 4.7386053 4.7441756 0 0 0 34.662109 13.34375 A 4.7386053 4.7441756 0 0 0 34.642578 12.953125 z M 22.792969 23.589844 A 4.7386053 4.7441756 0 0 1 22.541016 24.791016 L 22.707031 24.974609 A 4.7386053 4.7441756 0 0 0 22.814453 24.019531 A 4.7386053 4.7441756 0 0 0 22.792969 23.589844 z M 13.359375 23.623047 A 4.7386053 4.7441756 0 0 0 13.337891 24.019531 A 4.7386053 4.7441756 0 0 0 21.179688 27.595703 L 25.498047 32.207031 A 4.7386053 4.7441756 0 0 1 25.740234 31.664062 L 21.179688 26.794922 A 4.7386053 4.7441756 0 0 1 13.359375 23.623047 z M 25.207031 34.25 A 4.7386053 4.7441756 0 0 0 25.185547 34.693359 A 4.7386053 4.7441756 0 0 0 34.662109 34.693359 A 4.7386053 4.7441756 0 0 0 34.638672 34.253906 A 4.7386053 4.7441756 0 0 1 25.207031 34.25 z "
       transform="translate(0,1004.3622)"
       id="path4228" />
    <path
       style="fill:#ffffff;fill-opacity:0.23529412"
       d="M 30.060547 8.6015625 A 4.7386053 4.7441756 0 0 0 25.185547 13.34375 A 4.7386053 4.7441756 0 0 0 25.195312 13.544922 A 4.7386053 4.7441756 0 0 1 30.060547 9.0019531 A 4.7386053 4.7441756 0 0 1 34.652344 13.5625 A 4.7386053 4.7441756 0 0 0 34.662109 13.34375 A 4.7386053 4.7441756 0 0 0 30.060547 8.6015625 z M 25.410156 15.173828 L 20.292969 19.832031 A 4.7386053 4.7441756 0 0 0 13.337891 24.019531 A 4.7386053 4.7441756 0 0 0 13.345703 24.152344 A 4.7386053 4.7441756 0 0 1 20.292969 20.232422 L 25.517578 15.476562 A 4.7386053 4.7441756 0 0 1 25.410156 15.173828 z M 22.195312 21.6875 L 22.042969 21.832031 A 4.7386053 4.7441756 0 0 1 22.806641 24.248047 A 4.7386053 4.7441756 0 0 0 22.814453 24.019531 A 4.7386053 4.7441756 0 0 0 22.195312 21.6875 z M 22.630859 25.689453 A 4.7386053 4.7441756 0 0 1 22.541016 25.992188 L 27.25 31.179688 A 4.7386053 4.7441756 0 0 1 34.652344 34.896484 A 4.7386053 4.7441756 0 0 0 34.662109 34.693359 A 4.7386053 4.7441756 0 0 0 27.25 30.78125 L 22.630859 25.689453 z M 25.615234 32.732422 A 4.7386053 4.7441756 0 0 0 25.185547 34.693359 A 4.7386053 4.7441756 0 0 0 25.195312 34.861328 A 4.7386053 4.7441756 0 0 1 25.740234 32.865234 L 25.615234 32.732422 z "
       transform="translate(0,1004.3622)"
       id="path4233" />
  </g>
</svg>
