<?xml version="1.0" encoding="UTF-8" standalone="no"?>
<!-- Created with Inkscape (http://www.inkscape.org/) -->

<svg
   xmlns:dc="http://purl.org/dc/elements/1.1/"
   xmlns:cc="http://creativecommons.org/ns#"
   xmlns:rdf="http://www.w3.org/1999/02/22-rdf-syntax-ns#"
   xmlns:svg="http://www.w3.org/2000/svg"
   xmlns="http://www.w3.org/2000/svg"
   xmlns:xlink="http://www.w3.org/1999/xlink"
   xmlns:sodipodi="http://sodipodi.sourceforge.net/DTD/sodipodi-0.dtd"
   xmlns:inkscape="http://www.inkscape.org/namespaces/inkscape"
   width="48"
   height="48"
   id="svg2"
   version="1.1"
   inkscape:version="0.48+devel r12923"
   sodipodi:docname="half-life-2.svg">
  <defs
     id="defs4">
    <linearGradient
       inkscape:collect="always"
       id="linearGradient5569">
      <stop
         style="stop-color:#f19b3a;stop-opacity:1;"
         offset="0"
         id="stop5571" />
      <stop
         style="stop-color:#f2a44c;stop-opacity:1"
         offset="1"
         id="stop5573" />
    </linearGradient>
    <linearGradient
       inkscape:collect="always"
       id="linearGradient829">
      <stop
         style="stop-color:#1f272a;stop-opacity:1"
         offset="0"
         id="stop831" />
      <stop
         style="stop-color:#344344;stop-opacity:1"
         offset="1"
         id="stop833" />
    </linearGradient>
    <linearGradient
       inkscape:collect="always"
       xlink:href="#linearGradient829"
       id="linearGradient835"
       x1="-31.112698"
       y1="-1050.9148"
       x2="-31.112698"
       y2="-1002.9058"
       gradientUnits="userSpaceOnUse"
       gradientTransform="translate(55.996581,-1.455814)" />
    <linearGradient
       gradientTransform="matrix(1.0058652,0,0,0.994169,119.23086,972.70405)"
       gradientUnits="userSpaceOnUse"
       id="ButtonShadow"
       y2="7.0165396"
       x2="45.447727"
       y1="92.539597"
       x1="45.447727">
      <stop
         offset="0"
         style="stop-color:#000000;stop-opacity:1"
         id="stop3750" />
      <stop
         offset="1"
         style="stop-color:#000000;stop-opacity:0.58823532"
         id="stop3752" />
    </linearGradient>
    <filter
       id="filter3174"
       color-interpolation-filters="sRGB">
      <feGaussianBlur
         stdDeviation="1.71"
         id="feGaussianBlur3176" />
    </filter>
    <linearGradient
       inkscape:collect="always"
       xlink:href="#linearGradient5569"
       id="linearGradient5645"
       x1="-2.2718289"
       y1="1043.8201"
       x2="-2.2718289"
       y2="1013.0141"
       gradientUnits="userSpaceOnUse"
       gradientTransform="translate(33.623069,2.6479815e-4)" />
  </defs>
  <sodipodi:namedview
     id="base"
     pagecolor="#ffffff"
     bordercolor="#666666"
     borderopacity="1.0"
     inkscape:pageopacity="0.0"
     inkscape:pageshadow="2"
     inkscape:zoom="7.7812502"
     inkscape:cx="19.81787"
     inkscape:cy="24.518049"
     inkscape:document-units="px"
     inkscape:current-layer="layer1"
     showgrid="false"
     inkscape:window-width="1366"
     inkscape:window-height="669"
     inkscape:window-x="0"
     inkscape:window-y="26"
     inkscape:window-maximized="1">
    <inkscape:grid
       type="xygrid"
       id="grid3850" />
  </sodipodi:namedview>
  <metadata
     id="metadata7">
    <rdf:RDF>
      <cc:Work
         rdf:about="">
        <dc:format>image/svg+xml</dc:format>
        <dc:type
           rdf:resource="http://purl.org/dc/dcmitype/StillImage" />
        <dc:title></dc:title>
      </cc:Work>
    </rdf:RDF>
  </metadata>
  <g
     inkscape:label="Capa 1"
     inkscape:groupmode="layer"
     id="layer1"
     transform="translate(0,-1004.3622)">
    <rect
       style="fill:url(#linearGradient835);fill-opacity:1;stroke:none"
       id="rect2991-1"
       width="48"
       height="48"
       x="-8.65625e-07"
       y="-1052.3622"
       ry="1.9445436"
       transform="scale(1,-1)" />
    <path
       id="path5663"
       d="m 34.868222,1014.1625 c -1.646895,0 -3.408053,0.112 -4.927189,0.112 -3.390299,0 -6.715226,-0.1162 -9.657506,0.098 -4.54581,0.3319 -7.91533,2.2898 -10.245381,4.7661 -2.3801761,2.5303 -4.2381461,6.112 -4.2381461,10.5062 0,4.581 1.804203,8.0068 4.2381461,10.5086 2.315492,2.3797 5.740023,4.4808 10.048511,4.7661 7.946404,0.5258 13.237429,-3.8668 15.56904,-9.4365 1.513986,-3.617 3.341932,-7.9666 4.924454,-11.7718 0.478177,-1.1497 1.419817,-2.6117 1.577684,-3.9895 0.314486,-2.746 -1.172376,-4.3275 -3.054201,-5.0587 -1.056348,-0.4107 -2.588518,-0.5059 -4.235412,-0.5006 z m 1.605027,1.7474 c 1.049953,0.043 2.074201,0.7899 1.941345,2.1575 -0.160467,1.652 -1.833427,2.8094 -2.562028,3.8939 l 2.562028,0 c 0.153915,0.223 0.153915,0.9418 0,1.1648 -1.285714,-0.1246 -2.723068,-0.099 -4.139714,-0.095 -0.603077,-2.1838 3.136511,-3.65 2.758899,-5.447 -0.178148,-0.8475 -1.403247,-0.875 -1.181213,0.3884 l -1.47925,0 c -0.0273,-1.4452 1.04998,-2.1055 2.099933,-2.0618 z m -14.989369,1.2934 c 3.794453,0.014 6.531651,1.4934 8.457153,3.1993 2.416369,2.1408 4.652435,6.5018 3.841676,11.285 -0.661941,3.9048 -2.882734,7.0093 -6.502138,8.9498 -3.938571,2.112 -8.8836,1.7985 -12.413671,-0.2898 -3.406627,-2.0153 -6.6145841,-5.9208 -6.1111341,-12.0643 0.267688,-3.2666 1.7063851,-5.5353 3.5491061,-7.394 1.716989,-1.732 4.128318,-3.244 7.486482,-3.5985 0.585958,-0.062 1.150459,-0.09 1.692526,-0.087 z m -4.352988,3.2978 0,2.625 2.266724,0 c 0.217458,0.7581 0.617128,1.3363 0.787475,2.1411 -1.943909,3.2759 -4.173017,6.8503 -6.1084,10.0217 -0.250424,0.4103 -0.621493,0.8998 -0.590606,1.3617 l 3.349503,0 c 1.705861,-2.4016 3.173385,-5.0396 4.927187,-7.3939 0.974141,2.735 2.134557,5.286 3.054202,8.0748 1.865184,-0.4606 3.749844,-0.9033 5.320925,-1.6544 -0.443131,-0.7299 -0.51566,-1.8274 -0.987078,-2.5293 -0.74337,0.3037 -1.510379,0.583 -2.362425,0.7793 -1.592505,-4.5889 -3.531448,-8.8373 -5.124057,-13.426 l -4.53345,0 z"
       style="fill:#000000;fill-opacity:0.05882353"
       inkscape:connector-curvature="0" />
    <path
       inkscape:connector-curvature="0"
       style="fill:#000000;fill-opacity:0.11764706"
       d="m 34.868222,1013.7627 c -1.646895,0 -3.408053,0.112 -4.927189,0.112 -3.390299,0 -6.715226,-0.1162 -9.657506,0.098 -4.54581,0.3319 -7.91533,2.2898 -10.245381,4.7661 -2.3801761,2.5303 -4.2381461,6.112 -4.2381461,10.5062 0,4.581 1.804203,8.0068 4.2381461,10.5086 2.315492,2.3797 5.740023,4.4808 10.048511,4.7661 7.946404,0.5258 13.237429,-3.8668 15.56904,-9.4365 1.513986,-3.617 3.341932,-7.9666 4.924454,-11.7718 0.478177,-1.1497 1.419817,-2.6117 1.577684,-3.9895 0.314486,-2.746 -1.172376,-4.3275 -3.054201,-5.0587 -1.056348,-0.4107 -2.588518,-0.5059 -4.235412,-0.5006 z m 1.605027,1.7474 c 1.049953,0.043 2.074201,0.7899 1.941345,2.1575 -0.160467,1.652 -1.833427,2.8094 -2.562028,3.8939 l 2.562028,0 c 0.153915,0.223 0.153915,0.9418 0,1.1648 -1.285714,-0.1246 -2.723068,-0.099 -4.139714,-0.095 -0.603077,-2.1838 3.136511,-3.65 2.758899,-5.447 -0.178148,-0.8475 -1.403247,-0.875 -1.181213,0.3884 l -1.47925,0 c -0.0273,-1.4452 1.04998,-2.1055 2.099933,-2.0618 z m -14.989369,1.2934 c 3.794453,0.014 6.531651,1.4934 8.457153,3.1993 2.416369,2.1408 4.652435,6.5018 3.841676,11.285 -0.661941,3.9048 -2.882734,7.0093 -6.502138,8.9498 -3.938571,2.112 -8.8836,1.7985 -12.413671,-0.2898 -3.406627,-2.0153 -6.6145841,-5.9208 -6.1111341,-12.0643 0.267688,-3.2666 1.7063851,-5.5353 3.5491061,-7.394 1.716989,-1.732 4.128318,-3.244 7.486482,-3.5985 0.585958,-0.062 1.150459,-0.09 1.692526,-0.087 z m -4.352988,3.2978 0,2.625 2.266724,0 c 0.217458,0.7581 0.617128,1.3363 0.787475,2.1411 -1.943909,3.2759 -4.173017,6.8503 -6.1084,10.0217 -0.250424,0.4103 -0.621493,0.8998 -0.590606,1.3617 l 3.349503,0 c 1.705861,-2.4016 3.173385,-5.0396 4.927187,-7.3939 0.974141,2.735 2.134557,5.286 3.054202,8.0748 1.865184,-0.4606 3.749844,-0.9033 5.320925,-1.6544 -0.443131,-0.7299 -0.51566,-1.8274 -0.987078,-2.5293 -0.74337,0.3037 -1.510379,0.583 -2.362425,0.7793 -1.592505,-4.5889 -3.531448,-8.8373 -5.124057,-13.426 l -4.53345,0 z"
       id="path5661" />
    <path
       id="path5657"
       d="m 34.868222,1013.3627 c -1.646895,0 -3.408053,0.112 -4.927189,0.112 -3.390299,0 -6.715226,-0.1162 -9.657506,0.098 -4.54581,0.3319 -7.91533,2.2898 -10.245381,4.7661 -2.3801761,2.5303 -4.2381461,6.112 -4.2381461,10.5062 0,4.581 1.804203,8.0068 4.2381461,10.5086 2.315492,2.3797 5.740023,4.4808 10.048511,4.7661 7.946404,0.5258 13.237429,-3.8668 15.56904,-9.4365 1.513986,-3.617 3.341932,-7.9666 4.924454,-11.7718 0.478177,-1.1497 1.419817,-2.6117 1.577684,-3.9895 0.314486,-2.746 -1.172376,-4.3275 -3.054201,-5.0587 -1.056348,-0.4107 -2.588518,-0.5059 -4.235412,-0.5006 z m 1.605027,1.7474 c 1.049953,0.043 2.074201,0.7899 1.941345,2.1575 -0.160467,1.652 -1.833427,2.8094 -2.562028,3.8939 l 2.562028,0 c 0.153915,0.223 0.153915,0.9418 0,1.1648 -1.285714,-0.1246 -2.723068,-0.099 -4.139714,-0.095 -0.603077,-2.1838 3.136511,-3.65 2.758899,-5.447 -0.178148,-0.8475 -1.403247,-0.875 -1.181213,0.3884 l -1.47925,0 c -0.0273,-1.4452 1.04998,-2.1055 2.099933,-2.0618 z m -14.989369,1.2934 c 3.794453,0.014 6.531651,1.4934 8.457153,3.1993 2.416369,2.1408 4.652435,6.5018 3.841676,11.285 -0.661941,3.9048 -2.882734,7.0093 -6.502138,8.9498 -3.938571,2.112 -8.8836,1.7985 -12.413671,-0.2898 -3.406627,-2.0153 -6.6145841,-5.9208 -6.1111341,-12.0643 0.267688,-3.2666 1.7063851,-5.5353 3.5491061,-7.394 1.716989,-1.732 4.128318,-3.244 7.486482,-3.5985 0.585958,-0.062 1.150459,-0.09 1.692526,-0.087 z m -4.352988,3.2978 0,2.625 2.266724,0 c 0.217458,0.7581 0.617128,1.3363 0.787475,2.1411 -1.943909,3.2759 -4.173017,6.8503 -6.1084,10.0217 -0.250424,0.4103 -0.621493,0.8998 -0.590606,1.3617 l 3.349503,0 c 1.705861,-2.4016 3.173385,-5.0396 4.927187,-7.3939 0.974141,2.735 2.134557,5.286 3.054202,8.0748 1.865184,-0.4606 3.749844,-0.9033 5.320925,-1.6544 -0.443131,-0.7299 -0.51566,-1.8274 -0.987078,-2.5293 -0.74337,0.3037 -1.510379,0.583 -2.362425,0.7793 -1.592505,-4.5889 -3.531448,-8.8373 -5.124057,-13.426 l -4.53345,0 z"
       style="fill:#000000;fill-opacity:0.23529412"
       inkscape:connector-curvature="0" />
    <path
       inkscape:connector-curvature="0"
       style="fill:#000000;fill-opacity:1;stroke:none"
       d="m 1.165625e-6,1049.3622 0,1.0625 c 0,1.0773 0.860222004375,1.9375 1.937499034375,1.9375 l 44.1250008,0 c 1.077277,0 1.9375,-0.8602 1.9375,-1.9375 l 0,-1.0625 c 0,1.0773 -0.860223,1.9375 -1.9375,1.9375 l -44.1250008,0 C 0.86022317,1051.2997 1.165625e-6,1050.4395 1.165625e-6,1049.3622 Z"
       id="rect846" />
    <path
       inkscape:connector-curvature="0"
       style="fill:#ffffff;fill-opacity:0.5372549;stroke:none"
       d="m 2.5312502,1005.0185 c -0.917088,0 -1.67114603,0.6395 -1.84374903,1.5 0.33561203,-0.2799 0.77451203,-0.4375 1.24999903,-0.4375 l 44.1250008,0 c 0.475488,0 0.914388,0.1576 1.25,0.4375 -0.172603,-0.8605 -0.926662,-1.5 -1.84375,-1.5 L 2.5312502,1005.0185 Z"
       id="path7515" />
    <path
       inkscape:connector-curvature="0"
       style="fill:#000000;fill-opacity:0.39215686;stroke:none"
       d="m 1.9375002,1004.3622 c -1.07727603,0 -1.937499034375,0.8602 -1.937499034375,1.9375 l 0,43.0625 c 0,0.7934 0.480023004375,1.449 1.156249034375,1.75 -0.30934103,-0.3333 -0.49999903,-0.7824 -0.49999903,-1.2812 l 0,-42.9375 c 0,-1.0482 0.82689803,-1.875 1.87499903,-1.875 l 42.9375008,0 c 1.048101,0 1.875,0.8268 1.875,1.875 l 0,42.9375 c 0,0.4988 -0.190658,0.9479 -0.5,1.2812 0.676226,-0.301 1.15625,-0.9566 1.15625,-1.75 l 0,-43.0625 c 0,-1.0773 -0.860223,-1.9375 -1.9375,-1.9375 L 1.9375002,1004.3622 Z"
       id="rect4280" />
    <rect
       style="opacity:0.9;fill:url(#ButtonShadow);fill-opacity:1;fill-rule:nonzero;stroke:none;display:none;filter:url(#filter3174)"
       id="rect3745"
       y="979.70404"
       x="124.23086"
       ry="6"
       rx="6"
       height="85"
       width="86" />
    <path
       inkscape:connector-curvature="0"
       style="fill:url(#linearGradient5645);fill-opacity:1"
       d="m 34.868222,1012.9627 c -1.646895,0 -3.408053,0.112 -4.927189,0.112 -3.390299,0 -6.715226,-0.1162 -9.657506,0.098 -4.54581,0.3319 -7.91533,2.2898 -10.245381,4.7661 -2.3801761,2.5303 -4.2381461,6.112 -4.2381461,10.5062 0,4.581 1.804203,8.0068 4.2381461,10.5086 2.315492,2.3797 5.740023,4.4808 10.048511,4.7661 7.946404,0.5258 13.237429,-3.8668 15.56904,-9.4365 1.513986,-3.617 3.341932,-7.9666 4.924454,-11.7718 0.478177,-1.1497 1.419817,-2.6117 1.577684,-3.9895 0.314486,-2.746 -1.172376,-4.3275 -3.054201,-5.0587 -1.056348,-0.4107 -2.588518,-0.5059 -4.235412,-0.5006 z m 1.605027,1.7474 c 1.049953,0.043 2.074201,0.7899 1.941345,2.1575 -0.160467,1.652 -1.833427,2.8094 -2.562028,3.8939 l 2.562028,0 c 0.153915,0.223 0.153915,0.9418 0,1.1648 -1.285714,-0.1246 -2.723068,-0.099 -4.139714,-0.095 -0.603077,-2.1838 3.136511,-3.65 2.758899,-5.447 -0.178148,-0.8475 -1.403247,-0.875 -1.181213,0.3884 l -1.47925,0 c -0.0273,-1.4452 1.04998,-2.1055 2.099933,-2.0618 z m -14.989369,1.2934 c 3.794453,0.014 6.531651,1.4934 8.457153,3.1993 2.416369,2.1408 4.652435,6.5018 3.841676,11.285 -0.661941,3.9048 -2.882734,7.0093 -6.502138,8.9498 -3.938571,2.112 -8.8836,1.7985 -12.413671,-0.2898 -3.406627,-2.0153 -6.6145841,-5.9208 -6.1111341,-12.0643 0.267688,-3.2666 1.7063851,-5.5353 3.5491061,-7.394 1.716989,-1.732 4.128318,-3.244 7.486482,-3.5985 0.585958,-0.062 1.150459,-0.09 1.692526,-0.087 z m -4.352988,3.2978 0,2.625 2.266724,0 c 0.217458,0.7581 0.617128,1.3363 0.787475,2.1411 -1.943909,3.2759 -4.173017,6.8503 -6.1084,10.0217 -0.250424,0.4103 -0.621493,0.8998 -0.590606,1.3617 l 3.349503,0 c 1.705861,-2.4016 3.173385,-5.0396 4.927187,-7.3939 0.974141,2.735 2.134557,5.286 3.054202,8.0748 1.865184,-0.4606 3.749844,-0.9033 5.320925,-1.6544 -0.443131,-0.7299 -0.51566,-1.8274 -0.987078,-2.5293 -0.74337,0.3037 -1.510379,0.583 -2.362425,0.7793 -1.592505,-4.5889 -3.531448,-8.8373 -5.124057,-13.426 l -4.53345,0 z"
       id="path3780-9" />
    <path
       style="fill:#9c580b;fill-opacity:0.31372549"
       d="m 36.472678,1013.9093 0,0 c -1.049953,-0.042 -2.126909,0.6173 -2.099609,2.0625 l 0.128906,0 c 0.305932,-0.8831 1.141704,-1.2962 1.970703,-1.2617 0.873385,0.036 1.719652,0.5653 1.90625,1.5273 0.0094,-0.057 0.02946,-0.1112 0.03516,-0.1699 0.132856,-1.3676 -0.891453,-2.1152 -1.941406,-2.1582 z m -14.988281,1.2949 c -0.542067,0 -1.107401,0.024 -1.693359,0.086 -3.358164,0.3545 -5.769339,1.8676 -7.486328,3.5996 -1.842721,1.8587 -3.2811411,4.1279 -3.5488291,7.3945 -0.04594,0.5606 -0.05226,1.0955 -0.03906,1.6191 0.0079,-0.2702 0.01616,-0.5408 0.03906,-0.8203 0.267688,-3.2666 1.7061081,-5.5358 3.5488291,-7.3945 1.716989,-1.732 4.128164,-3.2432 7.486328,-3.5977 0.585958,-0.062 1.151292,-0.091 1.693359,-0.088 3.794453,0.014 6.531529,1.4934 8.457031,3.1993 2.005327,1.7766 3.879482,5.0854 3.998047,8.8925 0.144026,-4.1413 -1.853185,-7.7911 -3.998047,-9.6914 -1.925502,-1.7059 -4.662578,-3.1852 -8.457031,-3.1992 z m 15.503906,1.0664 c -0.470834,1.4821 -3.14934,2.8212 -2.726562,4.6778 0.389468,-1.72 3.095851,-3.0209 2.771484,-4.5645 -0.0091,-0.043 -0.03073,-0.074 -0.04492,-0.1133 z m 5.181641,1.1035 c -0.007,0.1176 0.0023,0.2255 -0.01172,0.3477 -0.157867,1.3778 -1.099948,2.8405 -1.578125,3.9902 -1.582522,3.8052 -3.409842,8.1545 -4.923828,11.7715 -2.331611,5.5697 -7.623908,9.9614 -15.570312,9.4356 -4.308488,-0.2853 -7.731383,-2.386 -10.046875,-4.7657 -2.3589603,-2.4247 -4.1120903,-5.7265 -4.2187503,-10.0976 -0.0033,0.1311 -0.01953,0.256 -0.01953,0.3886 0,4.581 1.804339,8.008 4.2382823,10.5098 2.315492,2.3797 5.738387,4.4803 10.046875,4.7656 7.946404,0.5258 13.238701,-3.8678 15.570312,-9.4375 1.513986,-3.617 3.341306,-7.9662 4.923828,-11.7714 0.478177,-1.1497 1.420258,-2.6105 1.578125,-3.9883 0.04707,-0.411 0.04064,-0.7886 0.01172,-1.1485 z m -5.660156,2.5879 c -0.249708,0.2746 -0.481376,0.5386 -0.65625,0.7989 l 2.560546,0 c 0.02875,0.042 0.0484,0.1138 0.06641,0.1835 0.07856,-0.3037 0.05883,-0.8009 -0.06641,-0.9824 l -1.904296,0 z m -19.378907,1.1641 0,0.8008 2.267579,0 c 0.165534,0.5771 0.435683,1.0497 0.630859,1.5976 0.04998,-0.084 0.106627,-0.1742 0.15625,-0.2578 -0.170347,-0.8048 -0.569651,-1.3825 -0.787109,-2.1406 l -2.267579,0 z m 4.632813,6.1308 c -1.753802,2.3543 -3.221873,4.993 -4.927734,7.3946 l -3.09961,0 c -0.148804,0.2637 -0.26777,0.5331 -0.25,0.7988 l 3.34961,0 c 1.705861,-2.4016 3.173932,-5.0383 4.927734,-7.3926 0.974141,2.735 2.133089,5.2854 3.052734,8.0742 1.865184,-0.4606 3.751185,-0.9031 5.322266,-1.6542 -0.122683,-0.2021 -0.214675,-0.4355 -0.296875,-0.6778 -1.510843,0.6721 -3.272502,1.0984 -5.025391,1.5313 -0.919645,-2.7888 -2.078593,-5.3393 -3.052734,-8.0743 z"
       id="path5647"
       inkscape:connector-curvature="0" />
    <path
       style="fill:#ffffff;fill-opacity:0.23529412"
       d="m 34.869163,1012.962 c -1.646895,0 -3.408599,0.1133 -4.927735,0.1133 -3.390299,0 -6.715923,-0.1165 -9.658203,0.098 -4.54581,0.3319 -7.914089,2.2893 -10.24414,4.7656 -2.3801761,2.5303 -4.2382821,6.1116 -4.2382821,10.5058 0,0.071 0.0089,0.1351 0.0098,0.2051 0.05521,-4.3032 1.884443,-7.8186 4.2285161,-10.3105 2.330051,-2.4763 5.69833,-4.4337 10.24414,-4.7656 2.94228,-0.2142 6.267904,-0.1 9.658203,-0.1 1.519136,0 3.28084,-0.1113 4.927735,-0.1113 1.646894,-0.01 3.178027,0.089 4.234375,0.5 1.623378,0.6308 2.945468,1.9 3.078125,3.9981 0.01763,-2.3347 -1.355782,-3.7273 -3.078125,-4.3965 -1.056348,-0.4107 -2.587481,-0.5073 -4.234375,-0.502 z m 1.423828,2.8242 c -0.28731,0.043 -0.519028,0.3363 -0.44336,0.9122 0.133166,-0.7527 1.03223,-0.6342 1.183594,0.086 0.0036,0.017 10e-4,0.034 0.0039,0.051 0.02216,-0.1485 0.02817,-0.2986 -0.0039,-0.4512 -0.08907,-0.4237 -0.439445,-0.6428 -0.740234,-0.5977 z m -1.888672,0.9864 c -0.01783,0.1277 -0.03395,0.2574 -0.03125,0.4004 l 1.480469,0 c -0.02684,-0.1528 -0.03253,-0.2846 -0.02148,-0.4004 l -1.427735,0 z m 4.007812,0.1035 c -0.165186,1.6476 -1.831196,2.802 -2.558593,3.8848 l 0.328125,0 c 0.809487,-0.9751 2.091213,-2.0404 2.232421,-3.4942 0.01345,-0.1384 0.0071,-0.265 -0.002,-0.3906 z m -21.28125,2.4258 0,0.4004 4.533204,0 c 1.592609,4.5887 3.532494,8.8368 5.124999,13.4257 0.852046,-0.1963 1.617959,-0.4756 2.361329,-0.7793 0.405746,0.6042 0.530556,1.4878 0.835937,2.1915 0.04908,-0.023 0.10385,-0.039 0.152344,-0.062 -0.443131,-0.7299 -0.516863,-1.8274 -0.988281,-2.5293 -0.74337,0.3037 -1.509283,0.583 -2.361329,0.7793 -1.592505,-4.5889 -3.53239,-8.8371 -5.124999,-13.4258 l -4.533204,0 z m 21.382813,2.2422 c -0.01605,0.1579 -0.04547,0.3043 -0.09961,0.3828 -1.285714,-0.1246 -2.722026,-0.1 -4.138672,-0.096 -0.02683,-0.097 -0.03454,-0.1908 -0.04492,-0.2852 -0.02602,0.2214 -0.02052,0.4486 0.04492,0.6856 1.416646,0 2.852958,-0.029 4.138672,0.096 0.09964,-0.1444 0.128977,-0.4923 0.09961,-0.7832 z m -18.40625,2.6523 c -1.926192,3.2415 -4.12057,6.7617 -6.03125,9.8926 -0.250424,0.4103 -0.620731,0.8994 -0.589844,1.3613 l 0.06445,0 c 0.111663,-0.3347 0.34668,-0.6681 0.525391,-0.9609 1.935383,-3.1714 4.165466,-6.7456 6.109375,-10.0215 -0.02034,-0.096 -0.05195,-0.1812 -0.07813,-0.2715 z m -11.3964841,4.2598 c -0.106532,5.5837 2.9336991,9.1854 6.1562501,11.0918 3.530071,2.0883 8.475491,2.401 12.414062,0.289 3.619404,-1.9405 5.840012,-5.0444 6.501953,-8.9492 0.119647,-0.7059 0.164005,-1.4003 0.160156,-2.082 -0.01515,0.553 -0.06388,1.1136 -0.160156,1.6816 -0.661941,3.9048 -2.882549,7.0107 -6.501953,8.9512 -3.938571,2.112 -8.883991,1.7973 -12.414062,-0.291 -3.144844,-1.8605 -6.1135871,-5.3357 -6.1562501,-10.6914 z"
       id="path5652"
       inkscape:connector-curvature="0" />
  </g>
</svg>
