<?xml version="1.0" encoding="UTF-8" standalone="no"?>
<!-- Created with Inkscape (http://www.inkscape.org/) -->

<svg
   xmlns:dc="http://purl.org/dc/elements/1.1/"
   xmlns:cc="http://creativecommons.org/ns#"
   xmlns:rdf="http://www.w3.org/1999/02/22-rdf-syntax-ns#"
   xmlns:svg="http://www.w3.org/2000/svg"
   xmlns="http://www.w3.org/2000/svg"
   xmlns:xlink="http://www.w3.org/1999/xlink"
   xmlns:sodipodi="http://sodipodi.sourceforge.net/DTD/sodipodi-0.dtd"
   xmlns:inkscape="http://www.inkscape.org/namespaces/inkscape"
   width="48"
   height="48"
   id="svg2"
   version="1.1"
   inkscape:version="0.48+devel r12877"
   sodipodi:docname="gnome-help.svg">
  <defs
     id="defs4">
    <linearGradient
       id="linearGradient4090">
      <stop
         id="stop4092"
         offset="0"
         style="stop-color:#b9ddff;stop-opacity:1" />
      <stop
         id="stop4094"
         offset="1"
         style="stop-color:#f5fcff;stop-opacity:1" />
    </linearGradient>
    <linearGradient
       id="linearGradient908">
      <stop
         style="stop-color:#0062bf;stop-opacity:1"
         offset="0"
         id="stop910" />
      <stop
         style="stop-color:#0095d4;stop-opacity:1"
         offset="1"
         id="stop912" />
    </linearGradient>
    <linearGradient
       inkscape:collect="always"
       xlink:href="#linearGradient908"
       id="linearGradient848"
       x1="-25.667843"
       y1="-1036.7864"
       x2="-25.667843"
       y2="-988.80719"
       gradientUnits="userSpaceOnUse"
       gradientTransform="translate(50.007065,-15.575966)" />
    <linearGradient
       inkscape:collect="always"
       xlink:href="#linearGradient4090"
       id="linearGradient4130"
       x1="31.700001"
       y1="1043.7632"
       x2="31.700001"
       y2="1012.9651"
       gradientUnits="userSpaceOnUse" />
  </defs>
  <sodipodi:namedview
     id="base"
     pagecolor="#ffffff"
     bordercolor="#666666"
     borderopacity="1.0"
     inkscape:pageopacity="0.0"
     inkscape:pageshadow="2"
     inkscape:zoom="5.6568543"
     inkscape:cx="-28.471648"
     inkscape:cy="17.057849"
     inkscape:document-units="px"
     inkscape:current-layer="layer1"
     showgrid="false"
     inkscape:window-width="1366"
     inkscape:window-height="671"
     inkscape:window-x="0"
     inkscape:window-y="24"
     inkscape:window-maximized="1">
    <inkscape:grid
       type="xygrid"
       id="grid3850"
       empspacing="5"
       visible="true"
       enabled="true"
       snapvisiblegridlinesonly="true" />
  </sodipodi:namedview>
  <metadata
     id="metadata7">
    <rdf:RDF>
      <cc:Work
         rdf:about="">
        <dc:format>image/svg+xml</dc:format>
        <dc:type
           rdf:resource="http://purl.org/dc/dcmitype/StillImage" />
        <dc:title></dc:title>
      </cc:Work>
    </rdf:RDF>
  </metadata>
  <g
     inkscape:label="Capa 1"
     inkscape:groupmode="layer"
     id="layer1"
     transform="translate(0,-1004.3622)">
    <rect
       style="fill:url(#linearGradient848);fill-opacity:1;stroke:none"
       id="rect2991-1-8"
       width="48"
       height="48"
       x="5.9033204e-07"
       y="-1052.3622"
       ry="1.9445436"
       transform="scale(1,-1)" />
    <path
       inkscape:connector-curvature="0"
       style="fill:#000000;fill-opacity:1;stroke:none"
       d="m -5.9033203e-7,1049.3622 0,1.0625 c 0,1.0773 0.86022300033203,1.9375 1.93749999033203,1.9375 l 44.1249996,0 c 1.077277,0 1.9375,-0.8602 1.9375,-1.9375 l 0,-1.0625 c 0,1.0773 -0.860223,1.9375 -1.9375,1.9375 l -44.1249996,0 C 0.86022241,1051.2997 -5.9033203e-7,1050.4395 -5.9033203e-7,1049.3622 Z"
       id="rect846" />
    <path
       inkscape:connector-curvature="0"
       style="fill:#ffffff;fill-opacity:0.5372549;stroke:none"
       d="m 2.5312494,1005.0185 c -0.917089,0 -1.67114699,0.6395 -1.84374999,1.5 0.33561199,-0.2799 0.77451199,-0.4375 1.24999999,-0.4375 l 44.1249996,0 c 0.475488,0 0.914388,0.1576 1.25,0.4375 -0.172603,-0.8605 -0.926662,-1.5 -1.84375,-1.5 L 2.5312494,1005.0185 Z"
       id="path7515" />
    <path
       inkscape:connector-curvature="0"
       style="fill:#000000;fill-opacity:0.39215686;stroke:none"
       d="m 1.9374994,1004.3622 c -1.07727699,0 -1.93749999033203,0.8602 -1.93749999033203,1.9375 l 0,43.0625 c 0,0.7934 0.48002400033203,1.449 1.15624999033203,1.75 -0.30934199,-0.3333 -0.49999999,-0.7824 -0.49999999,-1.2812 l 0,-42.9375 c 0,-1.0482 0.82689899,-1.875 1.87499999,-1.875 l 42.9374996,0 c 1.048101,0 1.875,0.8268 1.875,1.875 l 0,42.9375 c 0,0.4988 -0.190658,0.9479 -0.5,1.2812 0.676226,-0.301 1.15625,-0.9566 1.15625,-1.75 l 0,-43.0625 c 0,-1.0773 -0.860223,-1.9375 -1.9375,-1.9375 L 1.9374994,1004.3622 Z"
       id="rect4280" />
    <g
       style="fill:#000000;fill-opacity:0.05882353"
       transform="matrix(0.9625,0,0,0.9625,0.9,39.763583)"
       inkscape:label="Capa 1"
       id="g4093">
      <path
         inkscape:connector-curvature="0"
         style="fill:#000000;fill-opacity:0.05882353;stroke:none"
         d="m 24,8 c -2.071744,-3e-4 -4.115001,0.77005 -5.625,2.28125 -1.513992,1.512 -2.375,3.4883 -2.375,5.625 l 4,0 c 0,-1.0709 0.429501,-2.02685 1.1875,-2.78125 1.557991,-1.5618 4.128507,-1.5589 5.6875,0 0.756,0.7544 1.125,1.71115 1.125,2.78125 0,1.0659 -0.369998,2.1169 -1.125,2.875 l -6.75,6.625 c -0.945001,0.7808 -1.4375,2.07025 -1.4375,3.40625 0,1.336 0.492499,2.5824 1.4375,3.6875 0.944995,0.9459 2.226502,1.46875 3.5625,1.46875 1.335992,0 2.556003,-0.52285 3.5,-1.46875 0.944995,-1.1051 1.5,-2.3515 1.5,-3.6875 l -4,0 c 0,0.1562 -0.05849,0.4292 -0.3125,0.6875 -0.390998,0.3909 -1.015255,0.3909 -1.40625,0 -0.388998,-0.3912 -0.388998,-0.9837 0,-1.375 L 29.625,21.59375 c 1.511992,-1.5107 2.375,-3.5504 2.375,-5.6875 0,-2.141 -0.864007,-4.118 -2.375,-5.625 C 28.113001,8.77155 26.071744,8.0003 24,8 Z m -0.375,28 c -1.104994,0 -2,0.8911 -2,2 0,1.1021 0.895006,2 2,2 1.104996,0 2,-0.8979 2,-2 0,-1.1089 -0.895004,-2 -2,-2 z"
         transform="translate(0,1004.3622)"
         id="path4095" />
    </g>
    <g
       id="g4089"
       inkscape:label="Capa 1"
       transform="matrix(0.9625,0,0,0.9625,0.9,39.363583)"
       style="fill:#000000;fill-opacity:0.11764706">
      <path
         id="path4091"
         transform="translate(0,1004.3622)"
         d="m 24,8 c -2.071744,-3e-4 -4.115001,0.77005 -5.625,2.28125 -1.513992,1.512 -2.375,3.4883 -2.375,5.625 l 4,0 c 0,-1.0709 0.429501,-2.02685 1.1875,-2.78125 1.557991,-1.5618 4.128507,-1.5589 5.6875,0 0.756,0.7544 1.125,1.71115 1.125,2.78125 0,1.0659 -0.369998,2.1169 -1.125,2.875 l -6.75,6.625 c -0.945001,0.7808 -1.4375,2.07025 -1.4375,3.40625 0,1.336 0.492499,2.5824 1.4375,3.6875 0.944995,0.9459 2.226502,1.46875 3.5625,1.46875 1.335992,0 2.556003,-0.52285 3.5,-1.46875 0.944995,-1.1051 1.5,-2.3515 1.5,-3.6875 l -4,0 c 0,0.1562 -0.05849,0.4292 -0.3125,0.6875 -0.390998,0.3909 -1.015255,0.3909 -1.40625,0 -0.388998,-0.3912 -0.388998,-0.9837 0,-1.375 L 29.625,21.59375 c 1.511992,-1.5107 2.375,-3.5504 2.375,-5.6875 0,-2.141 -0.864007,-4.118 -2.375,-5.625 C 28.113001,8.77155 26.071744,8.0003 24,8 Z m -0.375,28 c -1.104994,0 -2,0.8911 -2,2 0,1.1021 0.895006,2 2,2 1.104996,0 2,-0.8979 2,-2 0,-1.1089 -0.895004,-2 -2,-2 z"
         style="fill:#000000;fill-opacity:0.11764706;stroke:none"
         inkscape:connector-curvature="0" />
    </g>
    <g
       style="fill:#000000;fill-opacity:0.23529412"
       transform="matrix(0.9625,0,0,0.9625,0.9,38.963583)"
       inkscape:label="Capa 1"
       id="g4081">
      <path
         inkscape:connector-curvature="0"
         style="fill:#000000;fill-opacity:0.23529412;stroke:none"
         d="m 24,8 c -2.071744,-3e-4 -4.115001,0.77005 -5.625,2.28125 -1.513992,1.512 -2.375,3.4883 -2.375,5.625 l 4,0 c 0,-1.0709 0.429501,-2.02685 1.1875,-2.78125 1.557991,-1.5618 4.128507,-1.5589 5.6875,0 0.756,0.7544 1.125,1.71115 1.125,2.78125 0,1.0659 -0.369998,2.1169 -1.125,2.875 l -6.75,6.625 c -0.945001,0.7808 -1.4375,2.07025 -1.4375,3.40625 0,1.336 0.492499,2.5824 1.4375,3.6875 0.944995,0.9459 2.226502,1.46875 3.5625,1.46875 1.335992,0 2.556003,-0.52285 3.5,-1.46875 0.944995,-1.1051 1.5,-2.3515 1.5,-3.6875 l -4,0 c 0,0.1562 -0.05849,0.4292 -0.3125,0.6875 -0.390998,0.3909 -1.015255,0.3909 -1.40625,0 -0.388998,-0.3912 -0.388998,-0.9837 0,-1.375 L 29.625,21.59375 c 1.511992,-1.5107 2.375,-3.5504 2.375,-5.6875 0,-2.141 -0.864007,-4.118 -2.375,-5.625 C 28.113001,8.77155 26.071744,8.0003 24,8 Z m -0.375,28 c -1.104994,0 -2,0.8911 -2,2 0,1.1021 0.895006,2 2,2 1.104996,0 2,-0.8979 2,-2 0,-1.1089 -0.895004,-2 -2,-2 z"
         transform="translate(0,1004.3622)"
         id="path4083" />
    </g>
    <path
       inkscape:connector-curvature="0"
       style="fill:url(#linearGradient4130);fill-opacity:1;stroke:none"
       d="m 24,1012.9622 c -1.994054,-3e-4 -3.960688,0.7412 -5.414063,2.1957 C 17.12872,1016.6132 16.3,1018.5154 16.3,1020.572 l 3.85,0 c 0,-1.0308 0.413395,-1.9509 1.142969,-2.677 1.499566,-1.5032 3.973688,-1.5004 5.474218,0 0.72765,0.7261 1.082813,1.647 1.082813,2.677 0,1.0259 -0.356123,2.0375 -1.082813,2.7672 l -6.496875,6.3765 c -0.909563,0.7515 -1.383593,1.9926 -1.383593,3.2785 0,1.2859 0.47403,2.4856 1.383593,3.5493 0.909558,0.9104 2.143009,1.4136 3.428907,1.4136 1.285892,0 2.460153,-0.5032 3.36875,-1.4136 0.909557,-1.0637 1.44375,-2.2634 1.44375,-3.5493 l -3.85,0 c 0,0.1504 -0.0563,0.4131 -0.300782,0.6618 -0.376335,0.3762 -0.977182,0.3762 -1.353515,0 -0.374411,-0.3766 -0.374411,-0.9469 0,-1.3235 l 6.40664,-6.2863 c 1.455293,-1.4541 2.285938,-3.4173 2.285938,-5.4742 0,-2.0607 -0.831607,-3.9636 -2.285938,-5.4141 -1.455299,-1.4531 -3.420008,-2.1954 -5.414062,-2.1957 z m -0.360938,26.95 c -1.063556,0 -1.925,0.8577 -1.925,1.925 0,1.0608 0.861444,1.925 1.925,1.925 1.063559,0 1.925,-0.8642 1.925,-1.925 0,-1.0673 -0.861441,-1.925 -1.925,-1.925 z"
       id="path825" />
    <path
       style="fill:#0067c1;fill-opacity:0.3137255;stroke:none"
       d="M 24.029297 11.607422 C 23.035754 11.607072 22.042752 11.980822 21.292969 12.732422 C 20.563395 13.458522 20.150391 14.379356 20.150391 15.410156 L 16.34375 15.410156 C 16.315663 15.674046 16.300781 15.939116 16.300781 16.208984 L 20.150391 16.208984 C 20.150391 15.178184 20.563395 14.259303 21.292969 13.533203 C 22.792535 12.030003 25.267048 12.032803 26.767578 13.533203 C 27.39906 14.16334 27.732719 14.944954 27.814453 15.8125 C 27.826907 15.678141 27.849609 15.54563 27.849609 15.410156 C 27.849609 14.380156 27.495228 13.458522 26.767578 12.732422 C 26.017313 11.982222 25.022839 11.607772 24.029297 11.607422 z M 31.679688 15.810547 C 31.57901 17.719877 30.774222 19.525721 29.414062 20.884766 L 23.007812 27.169922 C 22.711672 27.467794 22.659706 27.883885 22.832031 28.232422 C 22.877577 28.140303 22.929542 28.049431 23.007812 27.970703 L 29.414062 21.683594 C 30.869356 20.229494 31.699219 18.265884 31.699219 16.208984 C 31.699219 16.074588 31.686704 15.943519 31.679688 15.810547 z M 18.923828 28.232422 C 18.91333 28.366507 18.886719 28.49721 18.886719 28.632812 C 18.886719 29.918713 19.359968 31.117941 20.269531 32.181641 C 21.179089 33.092041 22.413321 33.595703 23.699219 33.595703 C 24.985111 33.595703 26.159762 33.092041 27.068359 32.181641 C 27.977916 31.117941 28.511719 29.918712 28.511719 28.632812 L 28.429688 28.632812 C 28.257217 29.616481 27.785703 30.541947 27.068359 31.380859 C 26.159762 32.291259 24.985111 32.794922 23.699219 32.794922 C 22.413321 32.794922 21.179089 32.291259 20.269531 31.380859 C 19.456081 30.42956 19.013038 29.365652 18.923828 28.232422 z M 21.757812 37.074219 C 21.730523 37.20361 21.714844 37.336839 21.714844 37.474609 C 21.714844 38.535409 22.575116 39.400391 23.638672 39.400391 C 24.702231 39.400391 25.564453 38.535409 25.564453 37.474609 C 25.564453 37.336846 25.548771 37.203605 25.521484 37.074219 C 25.337372 37.944205 24.56495 38.599609 23.638672 38.599609 C 22.712403 38.599609 21.941932 37.944196 21.757812 37.074219 z "
       transform="translate(0,1004.3622)"
       id="path4099" />
    <path
       style="fill:#ffffff;fill-opacity:0.23529412;stroke:none"
       d="M 24 8.5996094 C 22.005946 8.5993094 20.039312 9.3404219 18.585938 10.794922 C 17.128721 12.250222 16.300781 14.152384 16.300781 16.208984 L 16.320312 16.208984 C 16.421015 14.307255 17.224223 12.555236 18.585938 11.195312 C 20.039312 9.7408125 22.005946 8.9997 24 9 C 25.994054 9.0003 27.958763 9.7422125 29.414062 11.195312 C 30.820969 12.598513 31.6372 14.426913 31.689453 16.410156 C 31.691229 16.342986 31.699219 16.276371 31.699219 16.208984 C 31.699219 14.148284 30.868394 12.245422 29.414062 10.794922 C 27.958763 9.3418219 25.994054 8.5999094 24 8.5996094 z M 27.832031 16.410156 C 27.788154 17.365648 27.446409 18.29492 26.767578 18.976562 L 20.269531 25.353516 C 19.359968 26.105016 18.886719 27.346913 18.886719 28.632812 C 18.886719 28.700393 18.901684 28.764934 18.904297 28.832031 C 18.951313 27.619187 19.407673 26.465991 20.269531 25.753906 L 26.767578 19.376953 C 27.494268 18.647253 27.849609 17.635275 27.849609 16.609375 C 27.849609 16.540978 27.835169 16.477566 27.832031 16.410156 z M 24.662109 28.632812 C 24.662109 28.783212 24.60581 29.044269 24.361328 29.292969 C 23.984993 29.669169 23.384145 29.669169 23.007812 29.292969 C 22.874282 29.158658 22.805864 28.998043 22.767578 28.832031 C 22.698513 29.131508 22.766932 29.45107 23.007812 29.693359 C 23.384145 30.069559 23.984993 30.069559 24.361328 29.693359 C 24.60581 29.444659 24.662109 29.18165 24.662109 29.03125 L 28.470703 29.03125 C 28.482332 28.897998 28.511719 28.768029 28.511719 28.632812 L 24.662109 28.632812 z M 23.638672 35.550781 C 22.575116 35.550781 21.714844 36.407309 21.714844 37.474609 C 21.714844 37.542898 21.727411 37.607347 21.734375 37.673828 C 21.836019 36.703452 22.643903 35.949219 23.638672 35.949219 C 24.633444 35.949219 25.443278 36.703452 25.544922 37.673828 C 25.551886 37.607347 25.564453 37.542898 25.564453 37.474609 C 25.564453 36.407309 24.702231 35.550781 23.638672 35.550781 z "
       transform="translate(0,1004.3622)"
       id="path4098" />
  </g>
</svg>
