<?xml version="1.0" encoding="UTF-8" standalone="no"?>
<!-- Created with Inkscape (http://www.inkscape.org/) -->

<svg
   xmlns:dc="http://purl.org/dc/elements/1.1/"
   xmlns:cc="http://creativecommons.org/ns#"
   xmlns:rdf="http://www.w3.org/1999/02/22-rdf-syntax-ns#"
   xmlns:svg="http://www.w3.org/2000/svg"
   xmlns="http://www.w3.org/2000/svg"
   xmlns:xlink="http://www.w3.org/1999/xlink"
   xmlns:sodipodi="http://sodipodi.sourceforge.net/DTD/sodipodi-0.dtd"
   xmlns:inkscape="http://www.inkscape.org/namespaces/inkscape"
   width="48"
   height="48"
   id="svg2"
   version="1.1"
   inkscape:version="0.48+devel r12830"
   sodipodi:docname="hi64-app-photolayoutseditor.svg"
   inkscape:export-filename="/home/uri/workspace/NitruxforAndroid/res/drawable-xhdpi/gallery.png"
   inkscape:export-xdpi="180"
   inkscape:export-ydpi="180">
  <defs
     id="defs4">
    <linearGradient
       inkscape:collect="always"
       id="linearGradient4992">
      <stop
         style="stop-color:#414910;stop-opacity:1"
         offset="0"
         id="stop4994" />
      <stop
         style="stop-color:#4f520c;stop-opacity:1"
         offset="1"
         id="stop4996" />
    </linearGradient>
    <linearGradient
       inkscape:collect="always"
       id="linearGradient4973">
      <stop
         style="stop-color:#696d68;stop-opacity:1"
         offset="0"
         id="stop4975" />
      <stop
         id="stop4981"
         offset="0.92055535"
         style="stop-color:#636a64;stop-opacity:1;" />
      <stop
         style="stop-color:#8e753a;stop-opacity:1"
         offset="1"
         id="stop4977" />
    </linearGradient>
    <linearGradient
       inkscape:collect="always"
       id="linearGradient4952">
      <stop
         style="stop-color:#fae081;stop-opacity:1"
         offset="0"
         id="stop4954" />
      <stop
         id="stop4964"
         offset="0.18454427"
         style="stop-color:#fce58c;stop-opacity:1" />
      <stop
         style="stop-color:#5d6967;stop-opacity:1"
         offset="0.59227216"
         id="stop4108" />
      <stop
         style="stop-color:#1d303b;stop-opacity:1"
         offset="1"
         id="stop4956" />
    </linearGradient>
    <linearGradient
       id="linearGradient4086"
       inkscape:collect="always">
      <stop
         id="stop4088"
         offset="0"
         style="stop-color:#f7f9f7;stop-opacity:1" />
      <stop
         id="stop4090"
         offset="1"
         style="stop-color:#f9faf8;stop-opacity:1" />
    </linearGradient>
    <linearGradient
       inkscape:collect="always"
       id="linearGradient5847">
      <stop
         style="stop-color:#222222;stop-opacity:1"
         offset="0"
         id="stop5849" />
      <stop
         style="stop-color:#3d3d3d;stop-opacity:1"
         offset="1"
         id="stop5855" />
    </linearGradient>
    <linearGradient
       inkscape:collect="always"
       xlink:href="#linearGradient5847"
       id="linearGradient7123"
       gradientUnits="userSpaceOnUse"
       gradientTransform="translate(-380.74999,-495.88916)"
       x1="405.49875"
       y1="-556.64368"
       x2="405.49875"
       y2="-508.47202"
       spreadMethod="pad" />
    <linearGradient
       inkscape:collect="always"
       xlink:href="#linearGradient4086"
       id="linearGradient4084"
       x1="24.148518"
       y1="-1048.3508"
       x2="24.148518"
       y2="-1008.371"
       gradientUnits="userSpaceOnUse" />
    <linearGradient
       inkscape:collect="always"
       xlink:href="#linearGradient4952"
       id="linearGradient4958"
       x1="25.455845"
       y1="-1042.2859"
       x2="25.455845"
       y2="-1014.1784"
       gradientUnits="userSpaceOnUse"
       gradientTransform="matrix(1.0714286,0,0,1.0714286,-1.7142865,73.454476)" />
    <linearGradient
       inkscape:collect="always"
       xlink:href="#linearGradient4973"
       id="linearGradient4979"
       x1="27.75"
       y1="39"
       x2="27.75"
       y2="28.022524"
       gradientUnits="userSpaceOnUse"
       gradientTransform="matrix(1,0,0,0.8181818,0,1011.4527)" />
    <linearGradient
       inkscape:collect="always"
       xlink:href="#linearGradient4992"
       id="linearGradient4998"
       x1="28.637825"
       y1="39.017536"
       x2="28.637825"
       y2="32.885593"
       gradientUnits="userSpaceOnUse" />
    <linearGradient
       y2="1021.369"
       x2="19.765862"
       y1="1005.2745"
       x1="19.9375"
       gradientTransform="matrix(0.85390419,0,0,0.85390419,16.302896,154.65422)"
       gradientUnits="userSpaceOnUse"
       id="linearGradient4167-2"
       xlink:href="#linearGradient896-3"
       inkscape:collect="always" />
    <linearGradient
       id="linearGradient896-3"
       inkscape:collect="always">
      <stop
         id="stop898-2"
         offset="0"
         style="stop-color:#ffffff;stop-opacity:1;" />
      <stop
         id="stop900-4"
         offset="1"
         style="stop-color:#ffffff;stop-opacity:0;" />
    </linearGradient>
    <linearGradient
       y2="1022.0047"
       x2="13.513748"
       y1="1002.9973"
       x1="8.9985619"
       gradientTransform="matrix(0.85390419,0,0,0.85390419,5.4311288,149.26252)"
       gradientUnits="userSpaceOnUse"
       id="linearGradient4167-2-4"
       xlink:href="#linearGradient896-3-8"
       inkscape:collect="always" />
    <linearGradient
       id="linearGradient896-3-8"
       inkscape:collect="always">
      <stop
         id="stop898-2-4"
         offset="0"
         style="stop-color:#ffffff;stop-opacity:1;" />
      <stop
         id="stop900-4-1"
         offset="1"
         style="stop-color:#ffffff;stop-opacity:0;" />
    </linearGradient>
  </defs>
  <sodipodi:namedview
     id="base"
     pagecolor="#ffffff"
     bordercolor="#666666"
     borderopacity="1.0"
     inkscape:pageopacity="0.0"
     inkscape:pageshadow="2"
     inkscape:zoom="8"
     inkscape:cx="28.622355"
     inkscape:cy="25.098758"
     inkscape:document-units="px"
     inkscape:current-layer="layer1"
     showgrid="false"
     inkscape:window-width="1366"
     inkscape:window-height="673"
     inkscape:window-x="0"
     inkscape:window-y="24"
     inkscape:window-maximized="1"
     showguides="true"
     inkscape:guide-bbox="true" />
  <metadata
     id="metadata7">
    <rdf:RDF>
      <cc:Work
         rdf:about="">
        <dc:format>image/svg+xml</dc:format>
        <dc:type
           rdf:resource="http://purl.org/dc/dcmitype/StillImage" />
        <dc:title></dc:title>
      </cc:Work>
    </rdf:RDF>
  </metadata>
  <g
     inkscape:label="Capa 1"
     inkscape:groupmode="layer"
     id="layer1"
     transform="translate(0,-1004.3622)">
    <rect
       style="fill:url(#linearGradient7123);fill-opacity:1;stroke:none"
       id="rect7121"
       width="48"
       height="48"
       x="0"
       y="-1052.3622"
       ry="1.9445436"
       transform="scale(1,-1)" />
    <path
       style="fill:#ffffff;fill-opacity:0.1834061;stroke:none"
       d="M 0.5625 0.5625 C 0.5023435 0.6225 0.45810526 0.6824 0.40625 0.75 L 3.3417969 3.6855469 C 3.3906515 3.6201652 3.4404567 3.5556371 3.4980469 3.4980469 L 0.5625 0.5625 z "
       transform="translate(0,1004.3622)"
       id="rect7303" />
    <path
       style="fill:#1a1a1a;fill-opacity:1;stroke:none"
       d="M 0.75 0.40625 C 0.6823661 0.45825 0.62265651 0.5023 0.5625 0.5625 L 3.4980469 3.4980469 C 3.5556371 3.4404567 3.6201652 3.3906515 3.6855469 3.3417969 L 0.75 0.40625 z "
       transform="translate(0,1004.3622)"
       id="path7532" />
    <path
       style="fill:#ffffff;fill-opacity:0.1834061;stroke:none"
       d="M 47.4375 0.5625 L 44.501953 3.4980469 C 44.559543 3.5556371 44.609348 3.6201652 44.658203 3.6855469 L 47.59375 0.75 C 47.54189 0.682 47.49766 0.6227 47.4375 0.5625 z "
       transform="translate(0,1004.3622)"
       id="path7540" />
    <path
       style="fill:#1a1a1a;fill-opacity:1;stroke:none"
       d="M 47.25 0.40625 L 44.314453 3.3417969 C 44.379835 3.3906515 44.444363 3.4404567 44.501953 3.4980469 L 47.4375 0.5625 C 47.37734 0.5025 47.317634 0.45805 47.25 0.40625 z "
       transform="translate(0,1004.3622)"
       id="path7542" />
    <path
       style="fill:#ffffff;fill-opacity:0.1834061;stroke:none"
       d="M 3.3417969 44.314453 L 0.40625 47.25 C 0.4581053 47.318 0.5023435 47.3773 0.5625 47.4375 L 3.4980469 44.501953 C 3.4404567 44.444363 3.3906515 44.379835 3.3417969 44.314453 z "
       transform="translate(0,1004.3622)"
       id="path7546" />
    <path
       style="fill:#1a1a1a;fill-opacity:1;stroke:none"
       d="M 3.4980469 44.501953 L 0.5625 47.4375 C 0.6226565 47.4975 0.68236606 47.54185 0.75 47.59375 L 3.6855469 44.658203 C 3.6201652 44.609348 3.5556371 44.559543 3.4980469 44.501953 z "
       transform="translate(0,1004.3622)"
       id="path7548" />
    <path
       style="fill:#ffffff;fill-opacity:0.1834061;stroke:none"
       d="M 44.658203 44.314453 C 44.609348 44.379835 44.559543 44.444363 44.501953 44.501953 L 47.4375 47.4375 C 47.49766 47.3775 47.541895 47.3176 47.59375 47.25 L 44.658203 44.314453 z "
       transform="translate(0,1004.3622)"
       id="path7552" />
    <path
       style="fill:#1a1a1a;fill-opacity:1;stroke:none"
       d="M 44.501953 44.501953 C 44.444363 44.559543 44.379835 44.609348 44.314453 44.658203 L 47.25 47.59375 C 47.31763 47.54175 47.377343 47.4978 47.4375 47.4375 L 44.501953 44.501953 z "
       transform="translate(0,1004.3622)"
       id="path7554" />
    <rect
       style="fill:#000000;fill-opacity:0.23529412;stroke:none"
       id="rect2991-1"
       width="42"
       height="42"
       x="3"
       y="-1049.3622"
       ry="1.7014757"
       transform="scale(1,-1)" />
    <rect
       style="fill:url(#linearGradient4084);fill-opacity:1;stroke:none"
       id="rect2991-1-9"
       width="40"
       height="40"
       x="4.0000114"
       y="-1048.3627"
       ry="1.6204531"
       transform="scale(1,-1)" />
    <g
       style="font-size:15.97661114px;font-style:normal;font-variant:normal;font-weight:bold;font-stretch:normal;line-height:125%;letter-spacing:0px;word-spacing:0px;fill:#000000;fill-opacity:1;stroke:none;font-family:Vemana2000;-inkscape-font-specification:Vemana2000 Bold"
       id="text966"
       transform="translate(-71.228232,-3.5881245)" />
    <path
       inkscape:connector-curvature="0"
       style="fill:#000000;fill-opacity:0.39215686;stroke:none"
       d="m 1.9374973,1004.3622 c -1.07727697,0 -1.9374999694885,0.8602 -1.9374999694885,1.9375 l 0,43.0625 c 0,0.7934 0.4800239994885,1.449 1.1562499694885,1.75 -0.30934197,-0.3333 -0.49999997,-0.7824 -0.49999997,-1.2812 l 0,-42.9375 c 0,-1.0482 0.82689897,-1.875 1.87499997,-1.875 l 42.9375007,0 c 1.048101,0 1.875005,0.8268 1.875005,1.875 l 0,42.9375 c 0,0.4988 -0.190663,0.9479 -0.500005,1.2812 0.676225,-0.301 1.156255,-0.9566 1.156255,-1.75 l 0,-43.0625 c 0,-1.0773 -0.860228,-1.9375 -1.937505,-1.9375 L 1.9374973,1004.3622 Z"
       id="rect4280-0" />
    <path
       inkscape:connector-curvature="0"
       style="fill:#ffffff;fill-opacity:0.5372549;stroke:none"
       d="m 2.5312473,1005.0185 c -0.917088,0 -1.67114697,0.6395 -1.84374997,1.5 0.33561197,-0.2799 0.77451197,-0.4375 1.24999997,-0.4375 l 44.1250007,0 c 0.475488,0 0.914388,0.1576 1.250005,0.4375 -0.172608,-0.8605 -0.926667,-1.5 -1.843755,-1.5 L 2.5312473,1005.0185 Z"
       id="path7515" />
    <path
       inkscape:connector-curvature="0"
       style="fill:#000000;fill-opacity:1;stroke:none"
       d="m -2.6694885e-6,1049.3622 0,1.0625 c 0,1.0773 0.8602229994885,1.9375 1.9374999694885,1.9375 l 44.1250007,0 c 1.077277,0 1.937505,-0.8602 1.937505,-1.9375 l 0,-1.0625 c 0,1.0773 -0.860228,1.9375 -1.937505,1.9375 l -44.1250007,0 C 0.86022033,1051.2997 -2.6694885e-6,1050.4395 -2.6694885e-6,1049.3622 Z"
       id="rect846" />
    <rect
       style="fill:#000000;fill-opacity:0.23529412;stroke:none"
       id="rect4960"
       width="30.999998"
       height="30.999998"
       x="8.500001"
       y="-1043.8622"
       ry="1.2558514"
       transform="scale(1,-1)" />
    <rect
       transform="scale(1,-1)"
       ry="1.2153398"
       y="-1043.3627"
       x="9.0000114"
       height="30"
       width="30"
       id="rect4092"
       style="fill:url(#linearGradient4958);fill-opacity:1;stroke:none" />
    <path
       style="fill:url(#linearGradient4979);fill-opacity:1;stroke:none"
       d="m 9,1034.3622 0,8.0055 c 0,0.551 0.5415455,0.9945 1.214844,0.9945 l 27.570312,0 c 0.673298,0 1.214844,-0.4435 1.214844,-0.9945 l 0,-8.0055 z"
       id="rect4966"
       inkscape:connector-curvature="0"
       sodipodi:nodetypes="csssscc" />
    <path
       style="fill:#ffffff;fill-opacity:0.11764706;stroke:none"
       d="M 26.208984 32.769531 C 25.936914 32.761131 25.580499 32.788234 25.072266 32.865234 C 23.039334 33.173334 22.774086 33.248344 21.271484 33.152344 C 19.768882 33.056344 17.38239 32.980303 16.763672 33.095703 C 16.144953 33.211703 15.481808 33.288434 14.376953 33.115234 C 13.612876 32.995386 10.964742 32.89355 9 32.925781 L 9 33.083984 C 9.6539609 33.062952 10.373255 33.059671 11.195312 33.132812 C 13.414109 33.330013 16.347199 33.563294 18.335938 33.121094 C 23.861476 33.595694 19.909685 33.357416 21.050781 33.478516 C 22.248372 33.605616 23.304118 33.306806 26.353516 32.941406 C 27.956354 33.488806 29.047153 33.546641 29.535156 33.556641 C 29.977098 33.594941 31.229477 32.986031 33.660156 33.082031 C 34.901694 33.131231 36.030358 33.464497 36.84375 33.779297 L 36.84375 33.457031 C 34.565254 33.121331 34.556583 32.734206 32.761719 32.941406 C 30.596204 33.191106 29.713538 33.421147 28.210938 33.248047 C 27.083985 33.118247 27.025196 32.793531 26.208984 32.769531 z "
       transform="translate(0,1004.3622)"
       id="path5014" />
    <path
       style="fill:#ffffff;fill-opacity:0.11764706;stroke:none"
       d="M 33.615234 32.050781 C 33.343164 32.042381 32.986749 32.069484 32.478516 32.146484 C 30.445584 32.454584 30.180336 32.529594 28.677734 32.433594 C 27.175132 32.337594 24.78864 32.261553 24.169922 32.376953 C 23.551203 32.492953 22.888058 32.569684 21.783203 32.396484 C 20.678349 32.223184 15.553346 32.068691 14.404297 32.337891 C 14.357237 32.348891 14.30011 32.355234 14.25 32.365234 L 14.25 32.472656 C 15.305381 32.439656 16.723492 32.246963 18.601562 32.414062 C 20.820358 32.611263 23.753449 32.844544 25.742188 32.402344 C 31.267726 32.876944 27.315935 32.638666 28.457031 32.759766 C 29.654622 32.886866 30.710368 32.588056 33.759766 32.222656 C 35.362604 32.770056 36.453403 32.827891 36.941406 32.837891 C 37.230639 32.862956 37.913405 32.620947 39 32.470703 L 39 32.367188 C 37.713659 32.536613 36.772054 32.662338 35.617188 32.529297 C 34.490236 32.399497 34.431446 32.074781 33.615234 32.050781 z "
       transform="translate(0,1004.3622)"
       id="path5012" />
    <path
       style="fill:url(#linearGradient4998);fill-opacity:1;stroke:none"
       d="m 27.460938,32.90625 c -1.320313,-6.3e-5 -3.272518,-0.40533 -4.428768,-0.12408 -2.3125,0.5625 -0.84835,0.923636 -4.47335,-0.01386 C 15.550646,31.99033 13.54621,32.020945 9,33.818359 l 0,4.1875 C 9,38.556859 9.5415453,39 10.214844,39 l 27.570312,0 C 38.458454,39 39,38.556859 39,38.005859 l 0,-4.901231 c -1.097665,-0.06937 -2.312502,0.02168 -3.661612,-0.275123 C 32.213388,32.142005 32.25,33.6875 30.75,33.25 30,33.031 28.78125,32.906313 27.460938,32.90625 Z"
       transform="translate(0,1004.3622)"
       id="path4985"
       inkscape:connector-curvature="0"
       sodipodi:nodetypes="ssscsssscscs" />
    <path
       style="fill:#000000;fill-opacity:0.11764706;stroke:none"
       d="M 15.410156 32.285156 C 13.688932 32.262165 11.841381 32.694976 9 33.818359 L 9 34.996094 C 12.681198 32.495314 15.59305 32.819788 16 33.125 C 16.5 33.5 20.5 34.25 21.5625 33.875 C 22.097551 33.686159 23.441734 33.103241 24.962891 32.728516 C 24.24684 32.675932 23.553907 32.654117 23.03125 32.78125 C 20.71875 33.34375 22.183594 33.705074 18.558594 32.767578 C 17.430529 32.475836 16.442891 32.298951 15.410156 32.285156 z M 33.513672 32.666016 C 32.135297 32.790139 31.875 33.578125 30.75 33.25 C 30.508387 33.179449 30.205537 33.122227 29.878906 33.072266 C 31.777085 34.055178 31.896258 34.242079 33.4375 33.5 C 34.129623 33.166755 34.652735 32.924636 35.167969 32.802734 C 34.480387 32.665669 33.935325 32.628045 33.513672 32.666016 z M 37.460938 33.058594 C 37.577758 33.101216 37.68572 33.135996 37.8125 33.1875 C 38.230437 33.357287 38.62622 33.664809 39 34.021484 L 39 33.105469 C 38.51352 33.074724 37.994937 33.074047 37.460938 33.058594 z "
       transform="translate(0,1004.3622)"
       id="path5000" />
    <path
       style="fill:#ffffff;fill-opacity:0.05882353;stroke:none"
       d="m 19.634766,1035.4756 c -0.816212,0.024 -0.875002,0.3495 -2.001954,0.4793 -1.502601,0.1731 -2.385266,-0.058 -4.550781,-0.3077 -1.794864,-0.2072 -1.803535,0.1794 -4.082031,0.5151 l 0,0.3229 c 0.8133916,-0.3148 1.942056,-0.6477 3.183594,-0.6969 2.430679,-0.096 3.683058,0.5126 4.125,0.4743 0.488003,-0.01 1.578802,-0.068 3.18164,-0.6154 3.049398,0.3654 4.105144,0.6651 5.302735,0.538 1.141096,-0.1211 -2.810695,0.116 2.714843,-0.3586 1.988738,0.4422 4.92183,0.2102 7.140626,0.013 1.878071,-0.1671 3.296181,0.025 4.351562,0.058 l 0,-0.1071 c -0.05011,-0.01 -0.107237,-0.017 -0.154297,-0.028 -1.149049,-0.2692 -6.274052,-0.1153 -7.378906,0.058 -1.104855,0.1732 -1.768,0.097 -2.386719,-0.019 -0.618718,-0.1154 -3.00521,-0.039 -4.507812,0.057 -1.502602,0.096 -1.76785,0.02 -3.800782,-0.2881 -0.508233,-0.077 -0.864648,-0.1024 -1.136718,-0.094 z"
       id="path5007"
       inkscape:connector-curvature="0" />
    <path
       style="fill:#000000;stroke:none;stroke-width:1px;stroke-linecap:butt;stroke-linejoin:miter;stroke-opacity:1;fill-opacity:0.15686275"
       d="M 33.464844 35.257812 C 32.729744 35.221905 31.997095 35.269232 31.275391 35.367188 C 32.026491 35.324222 32.830082 35.295479 33.699219 35.283203 C 33.621055 35.277513 33.542947 35.261628 33.464844 35.257812 z M 33.699219 35.283203 C 34.341337 35.329947 34.984247 35.429988 35.625 35.625 C 37.567706 36.216258 38.555108 35.895973 39 35.625 L 39 35.365234 C 37.014392 35.282218 35.270434 35.261012 33.699219 35.283203 z M 31.275391 35.367188 C 26.787601 35.623905 24.30098 36.405863 23.25 37.625 C 22.037793 39.031161 21.094998 38.678427 20.730469 39 L 22.523438 39 C 22.586028 38.952999 22.621086 38.924195 22.6875 38.875 C 24.375 37.625 24.6875 37.0625 27.25 36.3125 C 28.517566 35.941505 29.877262 35.556953 31.275391 35.367188 z "
       transform="translate(0,1004.3622)"
       id="path5022" />
    <path
       style="fill:#ffffff;fill-opacity:0.11764706;stroke:none"
       d="M 15.410156 32.285156 C 13.688932 32.262165 11.841381 32.694976 9 33.818359 L 9 36.5625 C 14.54031 33.969768 16.887351 36.082887 20.25 35 C 23.9375 33.8125 21.875 32.9375 26.5625 33.75 C 31.25 34.5625 32 33.8115 34.6875 33.6875 C 36.673268 33.595139 38.008332 33.675795 39 34.050781 L 39 33.105469 C 37.902335 33.036099 36.687001 33.126881 35.337891 32.830078 C 32.212891 32.142578 32.25 33.6875 30.75 33.25 C 30 33.031 28.78125 32.906313 27.460938 32.90625 C 26.140625 32.906187 24.1875 32.5 23.03125 32.78125 C 20.71875 33.34375 22.183594 33.705074 18.558594 32.767578 C 17.430529 32.475836 16.442891 32.298951 15.410156 32.285156 z "
       transform="translate(0,1004.3622)"
       id="path5029" />
    <path
       style="fill:#000000;fill-opacity:0.11764706;stroke:none"
       d="m 27.816406,36.90625 c -3.04301,0.187074 -2.188384,1.526726 -17.68164,2.080078 0.02793,0.0016 0.05165,0.01367 0.08008,0.01367 l 27.570312,0 C 38.458454,39 39,38.556859 39,38.005859 l 0,-1.4375 c -0.257468,0.229787 -0.53021,0.422755 -0.816406,0.560547 -2.386485,1.1491 -5.303737,0.142663 -9.634766,-0.210937 -0.270689,-0.02209 -0.511235,-0.02532 -0.732422,-0.01172 z"
       transform="translate(0,1004.3622)"
       id="path5036"
       inkscape:connector-curvature="0"
       sodipodi:nodetypes="scssscccs" />
    <path
       style="fill:url(#linearGradient4167-2);fill-opacity:1;stroke:none"
       d="m 28.982117,1022.7693 c -1.574351,0 -2.95365,0.7864 -3.797203,1.9819 -0.33059,-0.1323 -0.696554,-0.2036 -1.074329,-0.2036 -1.591404,0 -2.871056,1.298 -2.871056,2.8894 0,0.2736 0.04042,0.5277 0.111138,0.778 l 15.281423,0 c 0.07162,-0.2503 0.111138,-0.5044 0.111138,-0.778 0,-1.5914 -1.298174,-2.8894 -2.889578,-2.8894 -0.37714,0 -0.725674,0.073 -1.055807,0.2036 -0.843416,-1.1966 -2.240514,-1.9819 -3.815726,-1.9819 z"
       id="path4133-5"
       inkscape:connector-curvature="0" />
    <path
       style="fill:url(#linearGradient4167-2-4);fill-opacity:1;stroke:none"
       d="m 18.11035,1017.3776 c -1.574351,0 -2.95365,0.7864 -3.797203,1.9819 -0.33059,-0.1323 -0.696554,-0.2036 -1.074329,-0.2036 -1.591404,0 -2.871056,1.298 -2.871056,2.8894 0,0.2736 0.04042,0.5277 0.111138,0.778 l 15.281423,0 c 0.07162,-0.2503 0.111138,-0.5044 0.111138,-0.778 0,-1.5914 -1.298174,-2.8894 -2.889578,-2.8894 -0.37714,0 -0.725674,0.073 -1.055807,0.2036 -0.843416,-1.1966 -2.240514,-1.9819 -3.815726,-1.9819 z"
       id="path4133-5-5"
       inkscape:connector-curvature="0" />
  </g>
</svg>
