<?xml version="1.0" encoding="UTF-8" standalone="no"?>
<!-- Created with Inkscape (http://www.inkscape.org/) -->

<svg
   xmlns:dc="http://purl.org/dc/elements/1.1/"
   xmlns:cc="http://creativecommons.org/ns#"
   xmlns:rdf="http://www.w3.org/1999/02/22-rdf-syntax-ns#"
   xmlns:svg="http://www.w3.org/2000/svg"
   xmlns="http://www.w3.org/2000/svg"
   xmlns:xlink="http://www.w3.org/1999/xlink"
   xmlns:sodipodi="http://sodipodi.sourceforge.net/DTD/sodipodi-0.dtd"
   xmlns:inkscape="http://www.inkscape.org/namespaces/inkscape"
   width="48"
   height="48"
   id="svg2"
   version="1.1"
   inkscape:version="0.48+devel r12487"
   sodipodi:docname="hotot.svg">
  <defs
     id="defs4">
    <linearGradient
       id="linearGradient4077"
       inkscape:collect="always">
      <stop
         id="stop4079"
         offset="0"
         style="stop-color:#b6cfee;stop-opacity:1" />
      <stop
         id="stop4081"
         offset="1"
         style="stop-color:#f7fcfd;stop-opacity:1" />
    </linearGradient>
    <linearGradient
       inkscape:collect="always"
       id="linearGradient850">
      <stop
         style="stop-color:#3378cf;stop-opacity:1"
         offset="0"
         id="stop852" />
      <stop
         style="stop-color:#41afc6;stop-opacity:1"
         offset="1"
         id="stop854" />
    </linearGradient>
    <linearGradient
       inkscape:collect="always"
       xlink:href="#linearGradient850"
       id="linearGradient856"
       x1="25.876543"
       y1="-1052.5597"
       x2="25.876543"
       y2="-1004.9548"
       gradientUnits="userSpaceOnUse" />
    <linearGradient
       inkscape:collect="always"
       xlink:href="#linearGradient4077"
       id="linearGradient1076"
       x1="26.82683"
       y1="39.224621"
       x2="26.82683"
       y2="9.3340816"
       gradientUnits="userSpaceOnUse"
       gradientTransform="matrix(1.0245209,0,0,1.0245209,-0.52445932,1003.7737)" />
  </defs>
  <sodipodi:namedview
     id="base"
     pagecolor="#ffffff"
     bordercolor="#666666"
     borderopacity="1.0"
     inkscape:pageopacity="0.0"
     inkscape:pageshadow="2"
     inkscape:zoom="8"
     inkscape:cx="41.568955"
     inkscape:cy="35.138768"
     inkscape:document-units="px"
     inkscape:current-layer="layer1"
     showgrid="false"
     inkscape:window-width="1366"
     inkscape:window-height="718"
     inkscape:window-x="0"
     inkscape:window-y="30"
     inkscape:window-maximized="1">
    <inkscape:grid
       type="xygrid"
       id="grid3850" />
  </sodipodi:namedview>
  <metadata
     id="metadata7">
    <rdf:RDF>
      <cc:Work
         rdf:about="">
        <dc:format>image/svg+xml</dc:format>
        <dc:type
           rdf:resource="http://purl.org/dc/dcmitype/StillImage" />
        <dc:title />
      </cc:Work>
    </rdf:RDF>
  </metadata>
  <g
     inkscape:label="Capa 1"
     inkscape:groupmode="layer"
     id="layer1"
     transform="translate(0,-1004.3622)"
     style="display:inline;opacity:1">
    <rect
       style="fill:url(#linearGradient856);fill-opacity:1;stroke:none"
       id="rect2991-1"
       width="48"
       height="48"
       x="0"
       y="-1052.3622"
       ry="1.9445436"
       transform="scale(1,-1)" />
    <path
       inkscape:connector-curvature="0"
       id="path4064"
       d="m 24.000008,1014.1626 -13.254739,13.2868 -0.06404,0 0,0.064 -2.7533995,2.7853 2.017025,3.3937 1.6968625,-0.8964 3.681872,12.1662 8.676411,0 8.67641,0 3.681873,-12.1662 1.696861,0.8964 2.017026,-3.3937 -2.753399,-2.7853 0,-0.064 -0.06404,0 L 24.000008,1014.1626 z m 0,10.9494 c 2.58749,0.035 4.674377,2.1423 4.674376,4.7385 0,2.5957 -2.086887,4.7666 -4.674376,4.8025 -2.587489,-0.036 -4.674376,-2.2068 -4.674376,-4.8025 C 19.325631,1027.2543 21.412518,1025.1466 24.000008,1025.112 z m 0,12.9028 c 0.76117,0.041 1.3767,0.6706 1.3767,1.4407 0,0.7699 -0.615863,1.3678 -1.3767,1.4087 -0.760838,-0.041 -1.376701,-0.6388 -1.376701,-1.4087 C 22.623307,1038.6854 23.238837,1038.055 24.000008,1038.0148 Z"
       style="fill:#000000;fill-opacity:0.05882353" />
    <path
       style="fill:#000000;fill-opacity:0.11764706"
       d="m 24.000008,1013.7626 -13.254739,13.2868 -0.06404,0 0,0.064 -2.7533995,2.7853 2.017025,3.3937 1.6968625,-0.8964 3.681872,12.1662 8.676411,0 8.67641,0 3.681873,-12.1662 1.696861,0.8964 2.017026,-3.3937 -2.753399,-2.7853 0,-0.064 -0.06404,0 L 24.000008,1013.7626 z m 0,10.9494 c 2.58749,0.035 4.674377,2.1423 4.674376,4.7385 0,2.5957 -2.086887,4.7666 -4.674376,4.8025 -2.587489,-0.036 -4.674376,-2.2068 -4.674376,-4.8025 C 19.325631,1026.8543 21.412518,1024.7466 24.000008,1024.712 z m 0,12.9028 c 0.76117,0.041 1.3767,0.6706 1.3767,1.4407 0,0.7699 -0.615863,1.3678 -1.3767,1.4087 -0.760838,-0.041 -1.376701,-0.6388 -1.376701,-1.4087 C 22.623307,1038.2854 23.238837,1037.655 24.000008,1037.6148 Z"
       id="path4062"
       inkscape:connector-curvature="0" />
    <path
       inkscape:connector-curvature="0"
       id="path4058"
       d="m 24.000008,1013.3626 -13.254739,13.2868 -0.06404,0 0,0.064 -2.7533995,2.7853 2.017025,3.3937 1.6968625,-0.8964 3.681872,12.1662 8.676411,0 8.67641,0 3.681873,-12.1662 1.696861,0.8964 2.017026,-3.3937 -2.753399,-2.7853 0,-0.064 -0.06404,0 L 24.000008,1013.3626 z m 0,10.9494 c 2.58749,0.035 4.674377,2.1423 4.674376,4.7385 0,2.5957 -2.086887,4.7666 -4.674376,4.8025 -2.587489,-0.036 -4.674376,-2.2068 -4.674376,-4.8025 C 19.325631,1026.4543 21.412518,1024.3466 24.000008,1024.312 z m 0,12.9028 c 0.76117,0.041 1.3767,0.6706 1.3767,1.4407 0,0.7699 -0.615863,1.3678 -1.3767,1.4087 -0.760838,-0.041 -1.376701,-0.6388 -1.376701,-1.4087 C 22.623307,1037.8854 23.238837,1037.255 24.000008,1037.2148 Z"
       style="fill:#000000;fill-opacity:0.23529412" />
    <path
       style="fill:url(#linearGradient1076);fill-opacity:1"
       d="m 24.000008,1012.9624 -13.254739,13.2868 c 0,0 -0.0427,0.043 -0.06404,0.064 l -2.7533995,2.7853 2.017025,3.3937 1.6968625,-0.8964 3.681872,12.1662 8.676411,0 8.67641,0 3.681873,-12.1662 1.696861,0.8964 2.017026,-3.3937 -2.753399,-2.7853 C 37.318771,1026.3132 37.276089,1026.2705 37.254731,1026.2492 z m 0,10.9494 c 2.58749,0.035 4.674377,2.1423 4.674376,4.7385 0,2.5957 -2.086887,4.7666 -4.674376,4.8025 -2.587489,-0.036 -4.674376,-2.2068 -4.674376,-4.8025 C 19.325631,1026.0541 21.412518,1023.9464 24.000008,1023.9118 z m 0,12.9028 c 0.76117,0.041 1.3767,0.6706 1.3767,1.4407 0,0.7699 -0.615863,1.3678 -1.3767,1.4087 -0.760838,-0.041 -1.376701,-0.6388 -1.376701,-1.4087 C 22.623307,1037.4852 23.238837,1036.8548 24.000008,1036.8146 Z"
       id="path1057"
       inkscape:connector-curvature="0"
       sodipodi:nodetypes="ccccccccccccccccscsccscsc" />
    <path
       inkscape:connector-curvature="0"
       style="fill:#ffffff;fill-opacity:0.5372549;stroke:none"
       d="m 2.531251,1005.0185 c -0.917088,0 -1.671147,0.6395 -1.84375,1.5 0.335612,-0.2799 0.774512,-0.4375 1.25,-0.4375 l 44.124997,0 c 0.47549,0 0.91439,0.1576 1.25,0.4375 -0.1726,-0.8605 -0.92666,-1.5 -1.84375,-1.5 L 2.531251,1005.0185 Z"
       id="path7515" />
    <path
       inkscape:connector-curvature="0"
       style="fill:#000000;fill-opacity:0.39215686;stroke:none"
       d="m 1.937501,1004.3622 c -1.077277,0 -1.9375,0.8602 -1.9375,1.9375 l 0,43.0625 c 0,0.7934 0.480024,1.449 1.15625,1.75 -0.309341,-0.3333 -0.5,-0.7824 -0.5,-1.2812 l 0,-42.9375 c 0,-1.0482 0.826899,-1.875 1.875,-1.875 l 42.937497,0 c 1.0481,0 1.875,0.8268 1.875,1.875 l 0,42.9375 c 0,0.4988 -0.19065,0.9479 -0.5,1.2812 0.67623,-0.301 1.15625,-0.9566 1.15625,-1.75 l 0,-43.0625 c 0,-1.0773 -0.86022,-1.9375 -1.9375,-1.9375 L 1.937501,1004.3622 Z"
       id="rect4280" />
    <path
       inkscape:connector-curvature="0"
       style="fill:#000000;fill-opacity:1;stroke:none"
       d="m 1e-6,1049.3622 0,1.0625 c 0,1.0773 0.860223,1.9375 1.9375,1.9375 l 44.124997,0 c 1.07728,0 1.9375,-0.8602 1.9375,-1.9375 l 0,-1.0625 c 0,1.0773 -0.86022,1.9375 -1.9375,1.9375 l -44.124997,0 C 0.860224,1051.2997 10e-7,1050.4395 10e-7,1049.3622 Z"
       id="rect846" />
    <path
       style="fill:#3379ce;fill-opacity:0.3137255"
       d="m 24,1023.1116 c -2.58749,0.035 -4.673829,2.1421 -4.673828,4.7383 0,0.1368 0.02769,0.2661 0.03906,0.4004 0.204264,-2.4064 2.183689,-4.3071 4.634766,-4.3399 2.451077,0.033 4.430502,1.9336 4.634766,4.3399 0.01137,-0.1343 0.03906,-0.2636 0.03906,-0.4004 C 28.673829,1025.2537 26.58749,1023.1466 24,1023.1116 z m -15.7753906,5.6856 -0.296875,0.3007 2.0175781,3.3946 1.6972655,-0.8965 3.681641,12.166 8.675781,0 8.675781,0 3.681641,-12.166 1.697266,0.8965 2.017578,-3.3946 -0.296875,-0.3007 -1.720703,2.8945 -1.697266,-0.8965 -3.681641,12.166 -8.675781,0 -8.675781,0 -3.681641,-12.166 -1.6972655,0.8965 L 8.2246094,1028.7972 Z M 24,1036.014 c -0.761171,0.04 -1.376953,0.6713 -1.376953,1.4414 0,0.1404 0.02634,0.2718 0.06445,0.3984 0.170537,-0.5762 0.689855,-1.0062 1.3125,-1.0391 0.622644,0.034 1.141963,0.4631 1.3125,1.0391 0.03812,-0.1266 0.06445,-0.258 0.06445,-0.3984 C 25.376953,1036.6853 24.76117,1036.055 24,1036.014 Z"
       id="path4083"
       inkscape:connector-curvature="0" />
    <path
       style="fill:#ffffff;fill-opacity:0.23529412"
       d="m 24,1012.9624 -13.253906,13.2871 c 0,0 -0.04282,0.043 -0.06445,0.065 l -2.7539066,2.7851 0.1484375,0.25 2.6054691,-2.6347 c 0,0 0.04312,-0.043 0.06445,-0.065 L 24,1013.3628 l 13.253906,13.2871 c 0.06861,0.069 0.04282,0.043 0.06445,0.065 l 2.605469,2.6347 0.148438,-0.25 -2.753907,-2.7851 C 37.318356,1026.3145 37.275236,1026.271 37.253906,1026.2495 z m -4.654297,15.8887 c -0.0029,0.067 -0.01953,0.1309 -0.01953,0.1992 0,2.5957 2.086339,4.7667 4.673828,4.8027 2.587489,-0.036 4.673828,-2.207 4.673828,-4.8027 0,-0.068 -0.01668,-0.1317 -0.01953,-0.1992 -0.105554,2.5047 -2.134685,4.5666 -4.654297,4.6015 C 21.480388,1033.4176 19.451257,1031.3558 19.345703,1028.8511 z m 3.296875,9.6054 c -0.0093,0.066 -0.01953,0.1311 -0.01953,0.1993 0,0.7699 0.616115,1.3672 1.376953,1.4082 0.760837,-0.041 1.376953,-0.6383 1.376953,-1.4082 0,-0.068 -0.0102,-0.1336 -0.01953,-0.1993 -0.09685,0.6703 -0.66461,1.1718 -1.357422,1.209 C 23.307187,1039.6282 22.739431,1039.1268 22.642578,1038.4565 Z"
       id="path4088"
       inkscape:connector-curvature="0"
       sodipodi:nodetypes="ccccccccccccccccscsccccscsccc" />
  </g>
  <g
     inkscape:groupmode="layer"
     id="layer2"
     inkscape:label="Capa" />
</svg>
