<?xml version="1.0" encoding="UTF-8" standalone="no"?>
<!-- Created with Inkscape (http://www.inkscape.org/) -->

<svg
   xmlns:dc="http://purl.org/dc/elements/1.1/"
   xmlns:cc="http://creativecommons.org/ns#"
   xmlns:rdf="http://www.w3.org/1999/02/22-rdf-syntax-ns#"
   xmlns:svg="http://www.w3.org/2000/svg"
   xmlns="http://www.w3.org/2000/svg"
   xmlns:xlink="http://www.w3.org/1999/xlink"
   xmlns:sodipodi="http://sodipodi.sourceforge.net/DTD/sodipodi-0.dtd"
   xmlns:inkscape="http://www.inkscape.org/namespaces/inkscape"
   width="48"
   height="48"
   id="svg5453"
   version="1.1"
   inkscape:version="0.48+devel r12487"
   sodipodi:docname="hp_logo.svg">
  <defs
     id="defs5455">
    <linearGradient
       id="linearGradient4124"
       inkscape:collect="always">
      <stop
         id="stop4126"
         offset="0"
         style="stop-color:#bae9fe;stop-opacity:1" />
      <stop
         id="stop4128"
         offset="1"
         style="stop-color:#f5fcff;stop-opacity:1" />
    </linearGradient>
    <linearGradient
       inkscape:collect="always"
       id="linearGradient3308">
      <stop
         style="stop-color:#0383bb;stop-opacity:1"
         offset="0"
         id="stop3310" />
      <stop
         style="stop-color:#0397d7;stop-opacity:1"
         offset="1"
         id="stop3312" />
    </linearGradient>
    <linearGradient
       inkscape:collect="always"
       xlink:href="#linearGradient3308"
       id="linearGradient3314"
       x1="425.75186"
       y1="-547.79291"
       x2="425.75186"
       y2="-499.80569"
       gradientUnits="userSpaceOnUse" />
    <linearGradient
       inkscape:collect="always"
       xlink:href="#linearGradient4124"
       id="linearGradient4122"
       x1="417.75348"
       y1="539.1748"
       x2="417.75348"
       y2="508.42117"
       gradientUnits="userSpaceOnUse" />
  </defs>
  <sodipodi:namedview
     id="base"
     pagecolor="#ffffff"
     bordercolor="#666666"
     borderopacity="1.0"
     inkscape:pageopacity="0"
     inkscape:pageshadow="2"
     inkscape:zoom="5.9505188"
     inkscape:cx="37.727958"
     inkscape:cy="18.442179"
     inkscape:document-units="px"
     inkscape:current-layer="layer1"
     showgrid="false"
     fit-margin-top="0"
     fit-margin-left="0"
     fit-margin-right="0"
     fit-margin-bottom="0"
     inkscape:window-width="1366"
     inkscape:window-height="716"
     inkscape:window-x="0"
     inkscape:window-y="28"
     inkscape:window-maximized="1" />
  <metadata
     id="metadata5458">
    <rdf:RDF>
      <cc:Work
         rdf:about="">
        <dc:format>image/svg+xml</dc:format>
        <dc:type
           rdf:resource="http://purl.org/dc/dcmitype/StillImage" />
        <dc:title></dc:title>
      </cc:Work>
    </rdf:RDF>
  </metadata>
  <g
     inkscape:label="Capa 1"
     inkscape:groupmode="layer"
     id="layer1"
     transform="translate(-384.57143,-499.798)">
    <rect
       style="fill:url(#linearGradient3314);fill-opacity:1;stroke:none"
       id="rect2991-1-7"
       width="48"
       height="48"
       x="384.57144"
       y="-547.79797"
       ry="1.9445436"
       transform="scale(1,-1)" />
    <path
       inkscape:connector-curvature="0"
       id="path4136"
       d="m 409.55369,509.60585 c -0.34094,-0.0103 -0.68291,0.0513 -1.0259,0.0513 -1.0831,3.10092 -2.20646,6.18726 -3.29818,9.28449 0.79381,0.0103 1.58865,-0.0103 2.38206,0.0103 0.58021,0.0205 1.18815,0.26488 1.50845,0.77205 0.36661,0.57287 0.34607,1.30775 0.11501,1.92899 -1.0796,3.03686 -2.16907,6.07043 -3.24601,9.10903 -0.95299,0.0103 -1.90608,-0.002 -2.85927,0.007 -0.13247,-0.003 -0.27111,0.0103 -0.39742,-0.0411 1.21033,-3.33777 2.39335,-6.68776 3.58613,-10.0317 -0.56891,-0.009 -1.13722,0.004 -1.70593,-0.006 -0.0924,0.18171 -0.14993,0.3737 -0.21566,0.56466 -1.09706,3.08511 -2.2045,6.16745 -3.29808,9.25431 -0.0513,0.0821 -0.0411,0.25153 -0.16225,0.25256 -0.9078,0.003 -1.81602,-0.003 -2.72351,10e-4 -0.16328,-10e-4 -0.32964,0.0205 -0.48881,-0.0308 2.48998,-6.90551 4.92277,-13.83054 7.41369,-20.73513 -4.86589,1.04062 -9.05237,4.68033 -10.8613,9.30369 -0.74144,1.83033 -1.064,3.80788 -1.10528,5.77599 0.0513,0.94452 0.11707,1.89192 0.29986,2.8229 0.58535,3.1 2.16795,6.00041 4.44732,8.18083 1.89221,1.82869 4.26596,3.15195 6.81294,3.81281 2.47941,-6.9318 4.94506,-13.86976 7.41492,-20.80505 0.0205,-0.0513 0.0719,-0.15092 0.1027,-0.20122 1.52446,0.0103 3.04945,0.003 4.57485,0.007 0.50012,0.009 1.01358,-0.0513 1.50024,0.10369 0.55968,0.15092 1.08146,0.5544 1.25347,1.12419 0.12734,0.44968 0.0411,0.92708 -0.12118,1.35591 -0.97353,2.84118 -2.00384,5.66182 -3.00879,8.49068 -0.24954,0.73714 -0.9992,1.19935 -1.75811,1.22573 -1.18825,0.0205 -2.37723,-0.008 -3.56559,0.0103 -1.09182,3.04127 -2.17338,6.08573 -3.25556,9.12957 0.28241,0.12012 0.5833,0.0308 0.87803,0.0513 0.44362,0.0308 0.88418,-0.0513 1.32617,-0.0821 2.89809,-0.26591 5.70745,-1.38784 7.99637,-3.18213 1.83696,-1.43199 3.3447,-3.28531 4.36372,-5.3798 0.89342,-1.8023 1.39467,-3.78694 1.53864,-5.78841 -0.0719,-0.69505 -0.0513,-1.39677 -0.0103,-2.09346 -0.19614,-2.63236 -1.06791,-5.21533 -2.53969,-7.409 -1.44284,-2.1567 -3.43149,-3.95623 -5.7433,-5.13986 -1.78706,-0.94042 -3.76718,-1.49318 -5.77626,-1.6713 -0.11296,-0.0205 -0.22798,-0.0308 -0.34197,-0.0411 z m 5.48142,11.06401 c -0.0719,-5.2e-4 -0.13452,0.01 -0.18278,0.0616 -1.04173,2.90955 -2.07388,5.82321 -3.11571,8.73194 0.57098,0.003 1.14647,0.0308 1.71692,-0.0103 1.00947,-2.93409 2.08425,-5.84497 3.11026,-8.77301 -0.44055,-0.01 -0.88111,0.001 -1.32196,-0.007 -0.0616,0.009 -0.13761,-0.002 -0.20745,-0.003 z"
       style="fill:#000000;fill-opacity:0.05882353" />
    <path
       style="fill:#000000;fill-opacity:0.11764706"
       d="m 409.55369,509.20585 c -0.34094,-0.0103 -0.68291,0.0513 -1.0259,0.0513 -1.0831,3.10092 -2.20646,6.18726 -3.29818,9.28449 0.79381,0.0103 1.58865,-0.0103 2.38206,0.0103 0.58021,0.0205 1.18815,0.26488 1.50845,0.77205 0.36661,0.57287 0.34607,1.30775 0.11501,1.92899 -1.0796,3.03686 -2.16907,6.07043 -3.24601,9.10903 -0.95299,0.0103 -1.90608,-0.002 -2.85927,0.007 -0.13247,-0.003 -0.27111,0.0103 -0.39742,-0.0411 1.21033,-3.33777 2.39335,-6.68776 3.58613,-10.0317 -0.56891,-0.009 -1.13722,0.004 -1.70593,-0.006 -0.0924,0.18171 -0.14993,0.3737 -0.21566,0.56466 -1.09706,3.08511 -2.2045,6.16745 -3.29808,9.25431 -0.0513,0.0821 -0.0411,0.25153 -0.16225,0.25256 -0.9078,0.003 -1.81602,-0.003 -2.72351,10e-4 -0.16328,-10e-4 -0.32964,0.0205 -0.48881,-0.0308 2.48998,-6.90551 4.92277,-13.83054 7.41369,-20.73513 -4.86589,1.04062 -9.05237,4.68033 -10.8613,9.30369 -0.74144,1.83033 -1.064,3.80788 -1.10528,5.77599 0.0513,0.94452 0.11707,1.89192 0.29986,2.8229 0.58535,3.1 2.16795,6.00041 4.44732,8.18083 1.89221,1.82869 4.26596,3.15195 6.81294,3.81281 2.47941,-6.9318 4.94506,-13.86976 7.41492,-20.80505 0.0205,-0.0513 0.0719,-0.15092 0.1027,-0.20122 1.52446,0.0103 3.04945,0.003 4.57485,0.007 0.50012,0.009 1.01358,-0.0513 1.50024,0.10369 0.55968,0.15092 1.08146,0.5544 1.25347,1.12419 0.12734,0.44968 0.0411,0.92708 -0.12118,1.35591 -0.97353,2.84118 -2.00384,5.66182 -3.00879,8.49068 -0.24954,0.73714 -0.9992,1.19935 -1.75811,1.22573 -1.18825,0.0205 -2.37723,-0.008 -3.56559,0.0103 -1.09182,3.04127 -2.17338,6.08573 -3.25556,9.12957 0.28241,0.12012 0.5833,0.0308 0.87803,0.0513 0.44362,0.0308 0.88418,-0.0513 1.32617,-0.0821 2.89809,-0.26591 5.70745,-1.38784 7.99637,-3.18213 1.83696,-1.43199 3.3447,-3.28531 4.36372,-5.3798 0.89342,-1.8023 1.39467,-3.78694 1.53864,-5.78841 -0.0719,-0.69505 -0.0513,-1.39677 -0.0103,-2.09346 -0.19614,-2.63236 -1.06791,-5.21533 -2.53969,-7.409 -1.44284,-2.1567 -3.43149,-3.95623 -5.7433,-5.13986 -1.78706,-0.94042 -3.76718,-1.49318 -5.77626,-1.6713 -0.11296,-0.0205 -0.22798,-0.0308 -0.34197,-0.0411 z m 5.48142,11.06401 c -0.0719,-5.2e-4 -0.13452,0.01 -0.18278,0.0616 -1.04173,2.90955 -2.07388,5.82321 -3.11571,8.73194 0.57098,0.003 1.14647,0.0308 1.71692,-0.0103 1.00947,-2.93409 2.08425,-5.84497 3.11026,-8.77301 -0.44055,-0.01 -0.88111,10e-4 -1.32196,-0.007 -0.0616,0.009 -0.13761,-0.002 -0.20745,-0.003 z"
       id="path4134"
       inkscape:connector-curvature="0" />
    <path
       inkscape:connector-curvature="0"
       id="path4130"
       d="m 409.55369,508.80585 c -0.34094,-0.0103 -0.68291,0.0513 -1.0259,0.0513 -1.0831,3.10092 -2.20646,6.18726 -3.29818,9.28449 0.79381,0.0103 1.58865,-0.0103 2.38206,0.0103 0.58021,0.0205 1.18815,0.26488 1.50845,0.77205 0.36661,0.57287 0.34607,1.30775 0.11501,1.92899 -1.0796,3.03686 -2.16907,6.07043 -3.24601,9.10903 -0.95299,0.0103 -1.90608,-0.002 -2.85927,0.007 -0.13247,-0.003 -0.27111,0.0103 -0.39742,-0.0411 1.21033,-3.33777 2.39335,-6.68776 3.58613,-10.0317 -0.56891,-0.009 -1.13722,0.004 -1.70593,-0.006 -0.0924,0.18171 -0.14993,0.3737 -0.21566,0.56466 -1.09706,3.08511 -2.2045,6.16745 -3.29808,9.25431 -0.0513,0.0821 -0.0411,0.25153 -0.16225,0.25256 -0.9078,0.003 -1.81602,-0.003 -2.72351,0.001 -0.16328,-0.001 -0.32964,0.0205 -0.48881,-0.0308 2.48998,-6.90551 4.92277,-13.83054 7.41369,-20.73513 -4.86589,1.04062 -9.05237,4.68033 -10.8613,9.30369 -0.74144,1.83033 -1.064,3.80788 -1.10528,5.77599 0.0513,0.94452 0.11707,1.89192 0.29986,2.8229 0.58535,3.1 2.16795,6.00041 4.44732,8.18083 1.89221,1.82869 4.26596,3.15195 6.81294,3.81281 2.47941,-6.9318 4.94506,-13.86976 7.41492,-20.80505 0.0205,-0.0513 0.0719,-0.15092 0.1027,-0.20122 1.52446,0.0103 3.04945,0.003 4.57485,0.007 0.50012,0.009 1.01358,-0.0513 1.50024,0.10369 0.55968,0.15092 1.08146,0.5544 1.25347,1.12419 0.12734,0.44968 0.0411,0.92708 -0.12118,1.35591 -0.97353,2.84118 -2.00384,5.66182 -3.00879,8.49068 -0.24954,0.73714 -0.9992,1.19935 -1.75811,1.22573 -1.18825,0.0205 -2.37723,-0.008 -3.56559,0.0103 -1.09182,3.04127 -2.17338,6.08573 -3.25556,9.12957 0.28241,0.12012 0.5833,0.0308 0.87803,0.0513 0.44362,0.0308 0.88418,-0.0513 1.32617,-0.0821 2.89809,-0.26591 5.70745,-1.38784 7.99637,-3.18213 1.83696,-1.43199 3.3447,-3.28531 4.36372,-5.3798 0.89342,-1.8023 1.39467,-3.78694 1.53864,-5.78841 -0.0719,-0.69505 -0.0513,-1.39677 -0.0103,-2.09346 -0.19614,-2.63236 -1.06791,-5.21533 -2.53969,-7.409 -1.44284,-2.1567 -3.43149,-3.95623 -5.7433,-5.13986 -1.78706,-0.94042 -3.76718,-1.49318 -5.77626,-1.6713 -0.11296,-0.0205 -0.22798,-0.0308 -0.34197,-0.0411 z m 5.48142,11.06401 c -0.0719,-5.2e-4 -0.13452,0.01 -0.18278,0.0616 -1.04173,2.90955 -2.07388,5.82321 -3.11571,8.73194 0.57098,0.003 1.14647,0.0308 1.71692,-0.0103 1.00947,-2.93409 2.08425,-5.84497 3.11026,-8.77301 -0.44055,-0.01 -0.88111,10e-4 -1.32196,-0.007 -0.0616,0.009 -0.13761,-0.002 -0.20745,-0.003 z"
       style="fill:#000000;fill-opacity:0.23529412" />
    <path
       inkscape:connector-curvature="0"
       style="fill:#000000;fill-opacity:1;stroke:none"
       d="m 384.57143,544.79799 0,1.0625 c 0,1.0773 0.86022,1.9375 1.9375,1.9375 l 44.125,0 c 1.07728,0 1.9375,-0.8602 1.9375,-1.9375 l 0,-1.0625 c 0,1.0773 -0.86022,1.9375 -1.9375,1.9375 l -44.125,0 C 385.43165,546.73549 384.57143,545.87529 384.57143,544.79799 Z"
       id="rect846" />
    <path
       inkscape:connector-curvature="0"
       style="fill:#ffffff;fill-opacity:0.5372549;stroke:none"
       d="m 387.10268,500.45429 c -0.91709,0 -1.67115,0.6395 -1.84375,1.5 0.33561,-0.2799 0.77451,-0.4375 1.25,-0.4375 l 44.125,0 c 0.47549,0 0.91439,0.1576 1.25,0.4375 -0.1726,-0.8605 -0.92666,-1.5 -1.84375,-1.5 L 387.10268,500.45429 Z"
       id="path7515" />
    <path
       inkscape:connector-curvature="0"
       style="fill:#000000;fill-opacity:0.39215686;stroke:none"
       d="m 386.50893,499.79799 c -1.07728,0 -1.9375,0.8602 -1.9375,1.9375 l 0,43.0625 c 0,0.7934 0.48002,1.449 1.15625,1.75 -0.30934,-0.3333 -0.5,-0.7824 -0.5,-1.2812 l 0,-42.9375 c 0,-1.0482 0.8269,-1.875 1.875,-1.875 l 42.9375,0 c 1.0481,0 1.875,0.8268 1.875,1.875 l 0,42.9375 c 0,0.4988 -0.19066,0.9479 -0.5,1.2812 0.67623,-0.301 1.15625,-0.9566 1.15625,-1.75 l 0,-43.0625 c 0,-1.0773 -0.86022,-1.9375 -1.9375,-1.9375 L 386.50893,499.79799 Z"
       id="rect4280" />
    <path
       style="fill:url(#linearGradient4122);fill-opacity:1"
       d="m 409.55369,508.40586 c -0.34094,-0.0103 -0.68291,0.0513 -1.0259,0.0513 -1.0831,3.10092 -2.20646,6.18726 -3.29818,9.28449 0.79381,0.0103 1.58865,-0.0103 2.38206,0.0103 0.58021,0.0205 1.18815,0.26488 1.50845,0.77205 0.36661,0.57287 0.34607,1.30775 0.11501,1.92899 -1.0796,3.03686 -2.16907,6.07043 -3.24601,9.10903 -0.95299,0.0103 -1.90608,-0.002 -2.85927,0.007 -0.13247,-0.003 -0.27111,0.0103 -0.39742,-0.0411 1.21033,-3.33777 2.39335,-6.68776 3.58613,-10.0317 -0.56891,-0.009 -1.13722,0.004 -1.70593,-0.006 -0.0924,0.18171 -0.14993,0.3737 -0.21566,0.56466 -1.09706,3.08511 -2.2045,6.16745 -3.29808,9.25431 -0.0513,0.0821 -0.0411,0.25153 -0.16225,0.25256 -0.9078,0.003 -1.81602,-0.003 -2.72351,0.001 -0.16328,-0.001 -0.32964,0.0205 -0.48881,-0.0308 2.48998,-6.90551 4.92277,-13.83054 7.41369,-20.73513 -4.86589,1.04062 -9.05237,4.68033 -10.8613,9.30369 -0.74144,1.83033 -1.064,3.80788 -1.10528,5.77599 0.0513,0.94452 0.11707,1.89192 0.29986,2.8229 0.58535,3.1 2.16795,6.00041 4.44732,8.18083 1.89221,1.82869 4.26596,3.15195 6.81294,3.81281 2.47941,-6.9318 4.94506,-13.86976 7.41492,-20.80505 0.0205,-0.0513 0.0719,-0.15092 0.1027,-0.20122 1.52446,0.0103 3.04945,0.003 4.57485,0.007 0.50012,0.009 1.01358,-0.0513 1.50024,0.10369 0.55968,0.15092 1.08146,0.5544 1.25347,1.12419 0.12734,0.44968 0.0411,0.92708 -0.12118,1.35591 -0.97353,2.84118 -2.00384,5.66182 -3.00879,8.49068 -0.24954,0.73714 -0.9992,1.19935 -1.75811,1.22573 -1.18825,0.0205 -2.37723,-0.008 -3.56559,0.0103 -1.09182,3.04127 -2.17338,6.08573 -3.25556,9.12957 0.28241,0.12012 0.5833,0.0308 0.87803,0.0513 0.44362,0.0308 0.88418,-0.0513 1.32617,-0.0821 2.89809,-0.26591 5.70745,-1.38784 7.99637,-3.18213 1.83696,-1.43199 3.3447,-3.28531 4.36372,-5.3798 0.89342,-1.8023 1.39467,-3.78694 1.53864,-5.78841 -0.0719,-0.69505 -0.0513,-1.39677 -0.0103,-2.09346 -0.19614,-2.63236 -1.06791,-5.21533 -2.53969,-7.409 -1.44284,-2.1567 -3.43149,-3.95623 -5.7433,-5.13986 -1.78706,-0.94042 -3.76718,-1.49318 -5.77626,-1.6713 -0.11296,-0.0205 -0.22798,-0.0308 -0.34197,-0.0411 z m 5.48142,11.06401 c -0.0719,-5.2e-4 -0.13452,0.01 -0.18278,0.0616 -1.04173,2.90955 -2.07388,5.82321 -3.11571,8.73194 0.57098,0.003 1.14647,0.0308 1.71692,-0.0103 1.00947,-2.93409 2.08425,-5.84497 3.11026,-8.77301 -0.44055,-0.01 -0.88111,10e-4 -1.32196,-0.007 -0.0616,0.009 -0.13761,-0.002 -0.20745,-0.003 z"
       id="path5"
       inkscape:connector-curvature="0" />
    <path
       style="fill:#0383bb;fill-opacity:0.3137255"
       d="M 20.566406 8.9980469 C 20.460707 9.0206518 20.356994 9.0511307 20.251953 9.0761719 C 17.870932 15.69023 15.536977 22.320243 13.152344 28.933594 C 13.241401 28.962297 13.334021 28.968935 13.425781 28.96875 C 15.819923 22.316837 18.167444 15.647738 20.566406 8.9980469 z M 27.677734 17.087891 C 27.646934 17.138191 27.594719 17.237763 27.574219 17.289062 C 25.104359 24.224353 22.639566 31.163903 20.160156 38.095703 C 17.613176 37.434843 15.239866 36.10994 13.347656 34.28125 C 11.068286 32.10083 9.4857406 29.201563 8.9003906 26.101562 C 8.7406689 25.288073 8.6744444 24.462406 8.625 23.636719 C 8.6187031 23.784035 8.6026984 23.930849 8.5996094 24.078125 C 8.6509094 25.022645 8.7176006 25.971364 8.9003906 26.902344 C 9.4857406 30.002344 11.068286 32.901611 13.347656 35.082031 C 15.239866 36.910721 17.613176 38.233671 20.160156 38.894531 C 22.639566 31.962731 25.104359 25.025134 27.574219 18.089844 C 27.594719 18.038544 27.646934 17.938972 27.677734 17.888672 C 29.202194 17.898972 30.726553 17.892484 32.251953 17.896484 C 32.752073 17.905484 33.265293 17.84501 33.751953 18 C 34.311633 18.15092 34.833849 18.553257 35.005859 19.123047 C 35.010222 19.138452 35.009805 19.154455 35.013672 19.169922 C 35.066045 18.888162 35.08476 18.602842 35.005859 18.324219 C 34.833849 17.754429 34.311633 17.350139 33.751953 17.199219 C 33.265293 17.044229 32.752073 17.104703 32.251953 17.095703 C 30.726553 17.091703 29.202194 17.098191 27.677734 17.087891 z M 20.941406 17.146484 C 20.847288 17.412161 20.751901 17.677538 20.658203 17.943359 C 21.452013 17.953659 22.247606 17.932525 23.041016 17.953125 C 23.621226 17.973625 24.228528 18.219392 24.548828 18.726562 C 24.680999 18.933094 24.747302 19.162708 24.787109 19.398438 C 24.880293 18.894462 24.82898 18.36355 24.548828 17.925781 C 24.228528 17.418611 23.621226 17.174797 23.041016 17.154297 C 22.341905 17.136145 21.641054 17.149985 20.941406 17.146484 z M 31.708984 19.679688 C 30.76901 22.339112 29.800548 24.98684 28.882812 27.654297 C 28.406571 27.688609 27.926929 27.677131 27.449219 27.669922 C 27.354521 27.934794 27.260859 28.200046 27.166016 28.464844 C 27.736996 28.467844 28.312363 28.496178 28.882812 28.455078 C 29.892283 25.520988 30.966178 22.609681 31.992188 19.681641 C 31.897829 19.679499 31.803346 19.680296 31.708984 19.679688 z M 21.462891 19.695312 C 20.366082 22.774377 19.274333 25.857082 18.160156 28.929688 C 18.246609 28.964868 18.339567 28.968217 18.431641 28.96875 C 19.546484 25.88267 20.645788 22.78743 21.748047 19.697266 C 21.65301 19.695762 21.557898 19.695798 21.462891 19.695312 z M 39.369141 22.654297 C 39.359977 22.924675 39.359946 23.194629 39.367188 23.464844 C 39.373889 23.263458 39.378806 23.062158 39.390625 22.861328 C 39.38547 22.792149 39.375227 22.723402 39.369141 22.654297 z M 39.373047 24.382812 C 39.208277 26.306368 38.720624 28.209898 37.861328 29.943359 C 36.842308 32.037849 35.335007 33.890276 33.498047 35.322266 C 31.209127 37.116556 28.400043 38.239949 25.501953 38.505859 C 25.059963 38.536659 24.619401 38.618691 24.175781 38.587891 C 23.971689 38.573695 23.764318 38.608635 23.5625 38.59375 C 23.474486 38.84132 23.384892 39.088374 23.296875 39.335938 C 23.579285 39.456058 23.881051 39.366219 24.175781 39.386719 C 24.619401 39.417519 25.059963 39.335487 25.501953 39.304688 C 28.400043 39.038778 31.209127 37.917337 33.498047 36.123047 C 35.335007 34.691057 36.842308 32.836678 37.861328 30.742188 C 38.754748 28.939888 39.256421 26.956548 39.400391 24.955078 C 39.380738 24.765096 39.38035 24.573552 39.373047 24.382812 z "
       transform="translate(384.57143,499.798)"
       id="path4138" />
    <path
       style="fill:#ffffff;fill-opacity:0.23529412"
       d="M 24.988281 8.5996094 L 24.982422 8.6074219 C 24.641482 8.5971219 24.300021 8.6582031 23.957031 8.6582031 C 22.873931 11.759123 21.749923 14.846129 20.658203 17.943359 C 20.75255 17.944584 20.847034 17.94484 20.941406 17.945312 C 21.943713 15.116022 22.967091 12.293187 23.957031 9.4589844 C 24.300021 9.4589844 24.641482 9.3979031 24.982422 9.4082031 L 24.988281 9.4003906 C 25.102271 9.4106906 25.217118 9.4209062 25.330078 9.4414062 C 27.339158 9.6195262 29.320362 10.172861 31.107422 11.113281 C 33.419232 12.296911 35.406769 14.095253 36.849609 16.251953 C 38.282711 18.387973 39.143628 20.894654 39.369141 23.455078 C 39.375842 23.256975 39.378999 23.058889 39.390625 22.861328 C 39.194485 20.228968 38.321389 17.646795 36.849609 15.453125 C 35.406769 13.296425 33.419232 11.49613 31.107422 10.3125 C 29.320362 9.37208 27.339158 8.818745 25.330078 8.640625 C 25.217118 8.620125 25.102271 8.6099094 24.988281 8.5996094 z M 20.566406 8.9980469 C 15.700516 10.038667 11.514008 13.679374 9.7050781 18.302734 C 8.9636381 20.133064 8.6408894 22.110015 8.5996094 24.078125 C 8.6061187 24.197972 8.6178153 24.3176 8.625 24.4375 C 8.7028058 22.615976 9.0190478 20.795107 9.7050781 19.101562 C 11.474694 14.578685 15.521491 11.00473 20.251953 9.8769531 C 20.357338 9.5842106 20.460821 9.290719 20.566406 8.9980469 z M 30.462891 19.671875 C 30.390991 19.671355 30.32951 19.682775 30.28125 19.734375 C 29.23952 22.643925 28.207846 25.556114 27.166016 28.464844 C 27.260962 28.465343 27.35602 28.46731 27.451172 28.46875 C 28.396437 25.824798 29.334616 23.17715 30.28125 20.533203 C 30.32951 20.481603 30.390991 20.472136 30.462891 20.472656 C 30.532731 20.473656 30.608322 20.483609 30.669922 20.474609 C 31.01635 20.480896 31.362779 20.478238 31.708984 20.480469 C 31.803129 20.214113 31.898765 19.948251 31.992188 19.681641 C 31.551638 19.671641 31.110772 19.683781 30.669922 19.675781 C 30.608322 19.684781 30.532731 19.672875 30.462891 19.671875 z M 20.041016 19.691406 C 19.948616 19.873116 19.891902 20.066852 19.826172 20.257812 C 18.729112 23.342922 17.620924 26.424859 16.527344 29.511719 C 16.476044 29.593819 16.486384 29.762642 16.365234 29.763672 C 15.457434 29.766672 14.550068 29.761625 13.642578 29.765625 C 13.570657 29.765185 13.49802 29.767432 13.425781 29.767578 C 13.334 30.022583 13.244275 30.278249 13.152344 30.533203 C 13.311514 30.584503 13.479298 30.563453 13.642578 30.564453 C 14.550068 30.560453 15.457434 30.567453 16.365234 30.564453 C 16.486384 30.563423 16.476044 30.392647 16.527344 30.310547 C 17.620924 27.223687 18.729112 24.141751 19.826172 21.056641 C 19.891902 20.865681 19.948616 20.673897 20.041016 20.492188 C 20.514723 20.500517 20.989161 20.493674 21.462891 20.496094 C 21.557734 20.22984 21.653099 19.963451 21.748047 19.697266 C 21.179137 19.688266 20.609726 19.701406 20.041016 19.691406 z M 35.013672 19.970703 C 34.981505 20.143198 34.946328 20.317789 34.884766 20.480469 C 33.911236 23.321649 32.881903 26.141843 31.876953 28.970703 C 31.627413 29.707843 30.878051 30.168932 30.119141 30.195312 C 28.930891 30.215812 27.741094 30.188731 26.552734 30.207031 C 25.460914 33.248301 24.379055 36.292098 23.296875 39.335938 C 23.383727 39.372879 23.472869 39.387921 23.5625 39.394531 C 24.556654 36.598139 25.549698 33.799822 26.552734 31.005859 C 27.741094 30.987559 28.930891 31.016594 30.119141 30.996094 C 30.878051 30.969714 31.627413 30.506671 31.876953 29.769531 C 32.881903 26.940671 33.911236 24.120477 34.884766 21.279297 C 35.041486 20.865158 35.122673 20.406726 35.013672 19.970703 z M 24.787109 20.199219 C 24.758352 20.354715 24.718541 20.507822 24.664062 20.654297 C 23.584462 23.691157 22.494909 26.725072 21.417969 29.763672 C 20.464979 29.773972 19.511784 29.762484 18.558594 29.771484 C 18.516793 29.770538 18.474089 29.769777 18.431641 29.769531 C 18.340278 30.022438 18.251816 30.276522 18.160156 30.529297 C 18.286466 30.580697 18.426124 30.567312 18.558594 30.570312 C 19.511784 30.561313 20.464979 30.574753 21.417969 30.564453 C 22.494909 27.525853 23.584462 24.491938 24.664062 21.455078 C 24.811821 21.057808 24.857718 20.617348 24.787109 20.199219 z M 39.367188 24.263672 C 39.356952 24.570241 39.361354 24.875418 39.373047 25.181641 C 39.379536 25.105799 39.394931 25.030978 39.400391 24.955078 C 39.376646 24.725541 39.373353 24.494242 39.367188 24.263672 z "
       transform="translate(384.57143,499.798)"
       id="path4143" />
  </g>
</svg>
