<?xml version="1.0" encoding="UTF-8" standalone="no"?>
<!-- Created with Inkscape (http://www.inkscape.org/) -->

<svg
   xmlns:dc="http://purl.org/dc/elements/1.1/"
   xmlns:cc="http://creativecommons.org/ns#"
   xmlns:rdf="http://www.w3.org/1999/02/22-rdf-syntax-ns#"
   xmlns:svg="http://www.w3.org/2000/svg"
   xmlns="http://www.w3.org/2000/svg"
   xmlns:xlink="http://www.w3.org/1999/xlink"
   xmlns:sodipodi="http://sodipodi.sourceforge.net/DTD/sodipodi-0.dtd"
   xmlns:inkscape="http://www.inkscape.org/namespaces/inkscape"
   width="48"
   height="48"
   id="svg2"
   version="1.1"
   inkscape:version="0.48+devel r12487"
   sodipodi:docname="inkscape.svg">
  <defs
     id="defs4">
    <linearGradient
       inkscape:collect="always"
       id="linearGradient4605">
      <stop
         style="stop-color:#4ca1f4;stop-opacity:1"
         offset="0"
         id="stop4607" />
      <stop
         style="stop-color:#165cb2;stop-opacity:1"
         offset="1"
         id="stop4609" />
    </linearGradient>
    <radialGradient
       inkscape:collect="always"
       xlink:href="#linearGradient4605"
       id="radialGradient4611"
       cx="23.999997"
       cy="-1028.3622"
       fx="23.999997"
       fy="-1028.3622"
       r="24"
       gradientUnits="userSpaceOnUse"
       gradientTransform="translate(3.1093255e-6,-1.7382813e-5)" />
    <linearGradient
       inkscape:collect="always"
       xlink:href="#linearGradient4605"
       id="linearGradient5019"
       x1="23.8125"
       y1="-1052.5497"
       x2="23.8125"
       y2="-1004.3622"
       gradientUnits="userSpaceOnUse"
       gradientTransform="translate(0,2056.7244)" />
  </defs>
  <sodipodi:namedview
     id="base"
     pagecolor="#ffffff"
     bordercolor="#666666"
     borderopacity="1.0"
     inkscape:pageopacity="0.0"
     inkscape:pageshadow="2"
     inkscape:zoom="2.8284271"
     inkscape:cx="14.406974"
     inkscape:cy="1.1907044"
     inkscape:document-units="px"
     inkscape:current-layer="layer1"
     showgrid="false"
     inkscape:window-width="1366"
     inkscape:window-height="717"
     inkscape:window-x="0"
     inkscape:window-y="28"
     inkscape:window-maximized="1">
    <inkscape:grid
       type="xygrid"
       id="grid3850" />
  </sodipodi:namedview>
  <metadata
     id="metadata7">
    <rdf:RDF>
      <cc:Work
         rdf:about="">
        <dc:format>image/svg+xml</dc:format>
        <dc:type
           rdf:resource="http://purl.org/dc/dcmitype/StillImage" />
        <dc:title />
      </cc:Work>
    </rdf:RDF>
  </metadata>
  <g
     inkscape:label="Capa 1"
     inkscape:groupmode="layer"
     id="layer1"
     transform="translate(0,-1004.3622)">
    <rect
       style="fill:url(#radialGradient4611);fill-opacity:1;stroke:none"
       id="rect2991-1"
       width="48"
       height="48"
       x="0"
       y="-1052.3622"
       ry="1.9445436"
       transform="scale(1,-1)" />
    <rect
       ry="1.9445436"
       y="1004.3622"
       x="0"
       height="48"
       width="48"
       id="rect5017"
       style="fill:url(#linearGradient5019);fill-opacity:1;stroke:none;opacity:0.307" />
    <path
       style="fill:#ffffff;fill-opacity:1;stroke:none"
       d="M 9.2857144,1012.3622 C 8.5675294,1012.3622 8,1012.9296 8,1013.6478 l 0,29.4288 c 0,0.7182 0.5675294,1.2856 1.2857144,1.2856 l 29.4285706,0 c 0.718187,0 1.285715,-0.5674 1.285715,-1.2856 l 0,-29.4288 c 0,-0.7182 -0.567528,-1.2856 -1.285715,-1.2856 L 9.2857144,1012.3622 z m 0.1904761,0.1905 29.0476195,0 c 0.709636,0 1.285715,0.5761 1.285715,1.2855 l 0,29.048 c 0,0.7094 -0.576079,1.2855 -1.285715,1.2855 l -29.0476195,0 c -0.709635,0 -1.2857145,-0.5761 -1.2857145,-1.2855 l 0,-29.048 C 8.190476,1013.1288 8.7665555,1012.5527 9.4761905,1012.5527 Z"
       id="rect4613"
       inkscape:connector-curvature="0" />
    <path
       style="fill:#ffffff;fill-opacity:0.34061136;stroke:none"
       d="m 9.3055556,1012.3622 0,32 0.111111,0 0,-32 L 9.3055556,1012.3622 z m 0.4166666,0 0,32 0.083334,0 0,-32 L 9.7222222,1012.3622 z m 0.4166668,0 0,32 0.08333,0 0,-32 L 10.138889,1012.3622 z m 0.416667,0 0,32 0.08333,0 0,-32 L 10.555556,1012.3622 z m 0.388888,0 0,32 0.08333,0 0,-32 L 10.944444,1012.3622 z m 0.416668,0 0,32 0.08333,0 0,-32 L 11.361112,1012.3622 z m 0.416666,0 0,32 0.08333,0 0,-32 L 11.777778,1012.3622 z m 0.388888,0 0,32 0.111112,0 0,-32 L 12.166666,1012.3622 z m 0.416668,0 0,32 0.08333,0 0,-32 L 12.583334,1012.3622 z m 0.416666,0 0,32 0.08333,0 0,-32 L 13,1012.3622 z m 0.416666,0 0,32 0.08333,0 0,-32 L 13.416666,1012.3622 z m 0.38889,0 0,32 0.08333,0 0,-32 L 13.805556,1012.3622 z m 1.11111,0 0,32 0.08333,0 0,-32 L 14.916666,1012.3622 z m 0.416668,0 0,32 0.08333,0 0,-32 L 15.333334,1012.3622 z m 0.388888,0 0,32 0.111112,0 0,-32 L 15.722222,1012.3622 z m 0.416666,0 0,32 0.08333,0 0,-32 L 16.138888,1012.3622 z m 0.416668,0 0,32 0.08333,0 0,-32 L 16.555556,1012.3622 z m 0.416666,0 0,32 0.08333,0 0,-32 L 16.972222,1012.3622 z m 0.38889,0 0,32 0.08333,0 0,-32 L 17.361112,1012.3622 z m 0.416666,0 0,32 0.08333,0 0,-32 L 17.777778,1012.3622 z m 0.416666,0 0,32 0.08333,0 0,-32 L 18.194444,1012.3622 z m 0.38889,0 0,32 0.11111,0 0,-32 L 18.583334,1012.3622 z m 0.416666,0 0,32 0.08333,0 0,-32 L 19,1012.3622 z m 0.416666,0 0,32 0.08333,0 0,-32 L 19.416666,1012.3622 z m 0.416668,0 0,32 0.08333,0 0,-32 L 19.833334,1012.3622 z m 0.388888,0 0,32 0.08333,0 0,-32 L 20.222222,1012.3622 z m 1.083334,0 0,32 0.08333,0 0,-32 L 21.305556,1012.3622 z m 0.416666,0 0,32 0.08333,0 0,-32 L 21.722222,1012.3622 z m 0.38889,0 0,32 0.11111,0 0,-32 L 22.111112,1012.3622 z m 0.416666,0 0,32 0.08333,0 0,-32 L 22.527778,1012.3622 z m 0.416666,0 0,32 0.08333,0 0,-32 L 22.944444,1012.3622 z m 0.416668,0 0,32 0.08333,0 0,-32 L 23.361112,1012.3622 z m 0.388888,0 0,32 0.08333,0 0,-32 L 23.75,1012.3622 z m 0.416666,0 0,32 0.08333,0 0,-32 L 24.166666,1012.3622 z m 0.416668,0 0,32 0.08333,0 0,-32 L 24.583334,1012.3622 z m 0.388888,0 0,32 0.111112,0 0,-32 L 24.972222,1012.3622 z m 0.416666,0 0,32 0.08333,0 0,-32 L 25.388888,1012.3622 z m 0.416668,0 0,32 0.08333,0 0,-32 L 25.805556,1012.3622 z m 0.416666,0 0,32 0.08333,0 0,-32 L 26.222222,1012.3622 z m 0.38889,0 0,32 0.08333,0 0,-32 L 26.611112,1012.3622 z m 1.083332,0 0,32 0.08333,0 0,-32 L 27.694444,1012.3622 z m 0.416668,0 0,32 0.08333,0 0,-32 L 28.111112,1012.3622 z m 0.388888,0 0,32 0.111112,0 0,-32 L 28.5,1012.3622 z m 0.416666,0 0,32 0.08333,0 0,-32 L 28.916666,1012.3622 z m 0.416668,0 0,32 0.08333,0 0,-32 L 29.333334,1012.3622 z m 0.416666,0 0,32 0.08333,0 0,-32 L 29.75,1012.3622 z m 0.388888,0 0,32 0.08333,0 0,-32 L 30.138888,1012.3622 z m 0.416668,0 0,32 0.08333,0 0,-32 L 30.555556,1012.3622 z m 0.416666,0 0,32 0.08333,0 0,-32 L 30.972222,1012.3622 z m 0.38889,0 0,32 0.11111,0 0,-32 L 31.361112,1012.3622 z m 0.416666,0 0,32 0.08333,0 0,-32 L 31.777778,1012.3622 z m 0.416666,0 0,32 0.08333,0 0,-32 L 32.194444,1012.3622 z m 0.416668,0 0,32 0.08333,0 0,-32 L 32.611112,1012.3622 z m 0.388888,0 0,32 0.08333,0 0,-32 L 33,1012.3622 z m 1.111112,0 0,32 0.08333,0 0,-32 L 34.111112,1012.3622 z m 0.416666,0 0,32 0.08333,0 0,-32 L 34.527778,1012.3622 z m 0.388888,0 0,32 0.111112,0 0,-32 L 34.916666,1012.3622 z m 0.416668,0 0,32 0.08333,0 0,-32 L 35.333334,1012.3622 z m 0.416666,0 0,32 0.08333,0 0,-32 L 35.75,1012.3622 z m 0.416666,0 0,32 0.08333,0 0,-32 L 36.166666,1012.3622 z m 0.38889,0 0,32 0.08333,0 0,-32 L 36.555556,1012.3622 z m 0.416666,0 0,32 0.08333,0 0,-32 L 36.972222,1012.3622 z m 0.416666,0 0,32 0.08333,0 0,-32 L 37.388888,1012.3622 z m 0.38889,0 0,32 0.11111,0 0,-32 L 37.777778,1012.3622 z m 0.416666,0 0,32 0.08333,0 0,-32 L 38.194444,1012.3622 z m 0.416668,0 0,32 0.08333,0 0,-32 L 38.611112,1012.3622 Z M 9,1012.3895 c -0.027975,0.01 -0.056086,0.02 -0.083334,0.027 l 0,31.8889 c 0.027248,0.01 0.055358,0.022 0.083334,0.027 L 9,1012.39 z m 30.027778,0.027 0,31.8889 c 0.02769,-0.01 0.0564,-0.019 0.08333,-0.028 l 0,-31.8334 C 39.084171,1012.4368 39.055469,1012.4248 39.027778,1012.4177 z m -30.4444446,0.1667 c -0.031634,0.022 -0.053785,0.059 -0.083334,0.084 l 0,31.3888 c 0.029549,0.024 0.0517,0.062 0.083334,0.084 L 8.5833334,1012.5844 z m 30.8333326,0 0,31.5555 c 0.03163,-0.022 0.05379,-0.059 0.08333,-0.084 l 0,-31.3888 C 39.470451,1012.6438 39.4483,1012.6058 39.416666,1012.5844 Z"
       id="rect4660"
       inkscape:connector-curvature="0" />
    <path
       style="fill:#ffffff;fill-opacity:0.34061136;stroke:none"
       d="m 8.3055556,1012.8622 c -0.023976,0.029 -0.061997,0.052 -0.083334,0.083 l 31.5555561,0 c -0.02134,-0.032 -0.05936,-0.054 -0.08333,-0.083 L 8.3055556,1012.8622 z m -0.25,0.4167 c -0.00805,0.027 -0.021498,0.055 -0.027778,0.084 l 31.9444443,0 c -0.0063,-0.028 -0.01974,-0.057 -0.02777,-0.084 L 8.0555556,1013.2789 Z M 8,1013.6678 l 0,0.1111 32,0 0,-0.1111 L 8,1013.6678 z m 0,0.4167 0,0.084 32,0 0,-0.084 L 8,1014.0845 z m 0,0.4166 0,0.083 32,0 0,-0.083 L 8,1014.5011 z m 0,0.4167 0,0.084 32,0 0,-0.084 L 8,1014.9178 z m 0,0.3889 0,0.084 32,0 0,-0.084 L 8,1015.3067 z m 0,0.4166 0,0.083 32,0 0,-0.083 L 8,1015.7233 z m 0,0.4167 0,0.084 32,0 0,-0.084 L 8,1016.14 z m 0,0.3889 0,0.111 32,0 0,-0.111 L 8,1016.5289 z m 0,0.4166 0,0.084 32,0 0,-0.084 L 8,1016.9455 z m 0,0.4167 0,0.083 32,0 0,-0.083 L 8,1017.3622 z m 0,0.4167 0,0.084 32,0 0,-0.084 L 8,1017.7789 z m 0,0.3889 0,0.083 32,0 0,-0.083 L 8,1018.1678 z m 0,1.1111 0,0.084 32,0 0,-0.084 L 8,1019.2789 z m 0,0.4167 0,0.083 32,0 0,-0.083 L 8,1019.6956 z m 0,0.3889 0,0.111 32,0 0,-0.111 L 8,1020.0845 z m 0,0.4166 0,0.083 32,0 0,-0.083 L 8,1020.5011 z m 0,0.4167 0,0.084 32,0 0,-0.084 L 8,1020.9178 z m 0,0.4166 0,0.083 32,0 0,-0.083 L 8,1021.3344 z m 0,0.3889 0,0.083 32,0 0,-0.083 L 8,1021.7233 z m 0,0.4167 0,0.084 32,0 0,-0.084 L 8,1022.14 z m 0,0.4166 0,0.083 32,0 0,-0.083 L 8,1022.5566 z m 0,0.3889 0,0.1111 32,0 0,-0.1111 L 8,1022.9455 z m 0,0.4167 0,0.083 32,0 0,-0.083 L 8,1023.3622 z m 0,0.4167 0,0.084 32,0 0,-0.084 L 8,1023.7789 z m 0,0.4166 0,0.084 32,0 0,-0.084 L 8,1024.1955 z m 0,0.3889 0,0.084 32,0 0,-0.084 L 8,1024.5844 z m 0,1.0834 0,0.084 32,0 0,-0.084 L 8,1025.6678 z m 0,0.4167 0,0.084 32,0 0,-0.084 L 8,1026.0845 z m 0,0.3889 0,0.111 32,0 0,-0.111 L 8,1026.4734 z m 0,0.4166 0,0.084 32,0 0,-0.084 L 8,1026.89 z m 0,0.4167 0,0.083 32,0 0,-0.083 L 8,1027.3067 z m 0,0.4166 0,0.084 32,0 0,-0.084 L 8,1027.7233 z m 0,0.3889 0,0.083 32,0 0,-0.083 L 8,1028.1122 z m 0,0.4167 0,0.084 32,0 0,-0.084 L 8,1028.5289 z m 0,0.4166 0,0.084 32,0 0,-0.084 L 8,1028.9455 z m 0,0.3889 0,0.1111 32,0 0,-0.1111 L 8,1029.3344 z m 0,0.4167 0,0.084 32,0 0,-0.084 L 8,1029.7511 z m 0,0.4167 0,0.083 32,0 0,-0.083 L 8,1030.1678 z m 0,0.4166 0,0.084 32,0 0,-0.084 L 8,1030.5844 z m 0,0.3889 0,0.083 32,0 0,-0.083 L 8,1030.9733 z m 0,1.0833 0,0.084 32,0 0,-0.084 L 8,1032.0566 z m 0,0.4168 0,0.084 32,0 0,-0.084 L 8,1032.4734 z m 0,0.3888 0,0.1111 32,0 0,-0.1111 L 8,1032.8622 z m 0,0.4167 0,0.084 32,0 0,-0.084 L 8,1033.2789 z m 0,0.4167 0,0.084 32,0 0,-0.084 L 8,1033.6956 z m 0,0.4166 0,0.083 32,0 0,-0.083 L 8,1034.1122 z m 0,0.3889 0,0.084 32,0 0,-0.084 L 8,1034.5011 z m 0,0.4167 0,0.083 32,0 0,-0.083 L 8,1034.9178 z m 0,0.4166 0,0.084 32,0 0,-0.084 L 8,1035.3344 z m 0,0.3889 0,0.1111 32,0 0,-0.1111 L 8,1035.7233 z m 0,0.4167 0,0.084 32,0 0,-0.084 L 8,1036.14 z m 0,0.4166 0,0.084 32,0 0,-0.084 L 8,1036.5566 z m 0,0.4167 0,0.083 32,0 0,-0.083 L 8,1036.9733 z m 0,0.3889 0,0.084 32,0 0,-0.084 L 8,1037.3622 z m 0,1.1112 0,0.084 32,0 0,-0.084 L 8,1038.4734 z m 0,0.4166 0,0.084 32,0 0,-0.084 L 8,1038.89 z m 0,0.3889 0,0.1111 32,0 0,-0.1111 L 8,1039.2789 z m 0,0.4167 0,0.084 32,0 0,-0.084 L 8,1039.6956 z m 0,0.4166 0,0.083 32,0 0,-0.083 L 8,1040.1122 z m 0,0.4167 0,0.084 32,0 0,-0.084 L 8,1040.5289 z m 0,0.3889 0,0.083 32,0 0,-0.083 L 8,1040.9178 z m 0,0.4166 0,0.084 32,0 0,-0.084 L 8,1041.3344 z m 0,0.4167 0,0.084 32,0 0,-0.084 L 8,1041.7511 z m 0,0.3889 0,0.111 32,0 0,-0.111 L 8,1042.14 z m 0,0.4166 0,0.084 32,0 0,-0.084 L 8,1042.5566 z m 0,0.4167 0,0.083 32,0 0,-0.083 L 8,1042.9733 z m 0.055556,0.4167 c 0.00699,0.027 0.019042,0.056 0.027778,0.084 l 31.8333334,0 c 0.0088,-0.027 0.02078,-0.055 0.02777,-0.084 L 8.0555556,1043.39 z m 0.1666666,0.3889 c 0.021337,0.032 0.059357,0.054 0.083334,0.084 l 31.388889,0 c 0.02398,-0.029 0.06199,-0.052 0.08333,-0.084 L 8.2222222,1043.7789 Z"
       id="path4698"
       inkscape:connector-curvature="0" />
    <path
       style="fill:#ffffff;stroke:none"
       d="M 14.71875 14.71875 L 14.71875 20.65625 L 20.65625 14.71875 L 14.71875 14.71875 z M 14.96875 14.96875 L 20 14.96875 L 14.96875 20 L 14.96875 14.96875 z "
       transform="translate(0,1004.3622)"
       id="path4727" />
    <path
       sodipodi:type="arc"
       style="fill:#ffffff;fill-opacity:1;stroke:none"
       id="path4735"
       sodipodi:cx="14.606174"
       sodipodi:cy="14.666544"
       sodipodi:rx="0.35355338"
       sodipodi:ry="0.35355338"
       d="m 14.959728,14.666544 a 0.35355338,0.35355338 0 1 1 -0.707107,0 A 0.35355338,0.35355338 0 1 1 14.959728,14.666544 Z"
       transform="translate(0.2541165,1004.5058)" />
    <path
       transform="translate(0.2541165,1010.1848)"
       d="m 14.959728,14.666544 a 0.35355338,0.35355338 0 1 1 -0.707107,0 A 0.35355338,0.35355338 0 1 1 14.959728,14.666544 Z"
       sodipodi:ry="0.35355338"
       sodipodi:rx="0.35355338"
       sodipodi:cy="14.666544"
       sodipodi:cx="14.606174"
       id="path4737"
       style="fill:#ffffff;fill-opacity:1;stroke:none"
       sodipodi:type="arc" />
    <path
       transform="translate(5.8446785,1004.5058)"
       d="m 14.959728,14.666544 a 0.35355338,0.35355338 0 1 1 -0.707107,0 A 0.35355338,0.35355338 0 1 1 14.959728,14.666544 Z"
       sodipodi:ry="0.35355338"
       sodipodi:rx="0.35355338"
       sodipodi:cy="14.666544"
       sodipodi:cx="14.606174"
       id="path4741"
       style="fill:#ffffff;fill-opacity:1;stroke:none"
       sodipodi:type="arc" />
    <path
       id="path4743"
       d="m 27.276625,1031.8846 0,-13.3755 -13.375543,13.3755 L 27.276625,1031.8846 z m -0.56318,-0.5632 -11.334011,0 11.334011,-11.334 L 26.713445,1031.3214 Z"
       style="fill:#ffffff;stroke:none"
       inkscape:connector-curvature="0" />
    <path
       transform="matrix(-2.252723,0,0,-2.252723,59.861434,1064.7184)"
       d="m 14.959728,14.666544 a 0.35355338,0.35355338 0 1 1 -0.707107,0 A 0.35355338,0.35355338 0 1 1 14.959728,14.666544 Z"
       sodipodi:ry="0.35355338"
       sodipodi:rx="0.35355338"
       sodipodi:cy="14.666544"
       sodipodi:cx="14.606174"
       id="path4745"
       style="fill:#ffffff;fill-opacity:1;stroke:none"
       sodipodi:type="arc" />
    <path
       sodipodi:type="arc"
       style="fill:#ffffff;fill-opacity:1;stroke:none"
       id="path4747"
       sodipodi:cx="14.606174"
       sodipodi:cy="14.666544"
       sodipodi:rx="0.35355338"
       sodipodi:ry="0.35355338"
       d="m 14.959728,14.666544 a 0.35355338,0.35355338 0 1 1 -0.707107,0 A 0.35355338,0.35355338 0 1 1 14.959728,14.666544 Z"
       transform="matrix(-2.252723,0,0,-2.252723,59.861434,1051.9252)" />
    <path
       sodipodi:type="arc"
       style="fill:#ffffff;fill-opacity:1;stroke:none"
       id="path4749"
       sodipodi:cx="14.606174"
       sodipodi:cy="14.666544"
       sodipodi:rx="0.35355338"
       sodipodi:ry="0.35355338"
       d="m 14.959728,14.666544 a 0.35355338,0.35355338 0 1 1 -0.707107,0 A 0.35355338,0.35355338 0 1 1 14.959728,14.666544 Z"
       transform="matrix(-2.252723,0,0,-2.252723,47.267446,1064.7184)" />
    <path
       style="fill:#ffffff;fill-opacity:0.5372549;stroke:none"
       d="m 23.554648,1028.1043 0,3.5079 0.256048,0 0,-3.2518 3.251804,0 0,-0.2561 L 23.554648,1028.1043 Z"
       id="rect4751"
       inkscape:connector-curvature="0" />
    <g
       id="g4764"
       transform="translate(0,0.6519165)">
      <rect
         y="1020.5645"
         x="13.899068"
         height="0.37565047"
         width="1.9224465"
         id="rect4756"
         style="fill:#ffffff;fill-opacity:0.5372549;stroke:none" />
      <rect
         style="fill:#ffffff;fill-opacity:0.5372549;stroke:none"
         id="rect4758"
         width="1.9224465"
         height="0.37565047"
         x="13.899068"
         y="1021.3378" />
    </g>
    <g
       id="g4768"
       transform="translate(0.29830933,0)">
      <rect
         transform="matrix(0,-1,1,0,0,0)"
         style="fill:#ffffff;fill-opacity:0.5372549;stroke:none"
         id="rect4760"
         width="1.9224465"
         height="0.37565047"
         x="-1020.1335"
         y="16.78278" />
      <rect
         transform="matrix(0,-1,1,0,0,0)"
         y="17.556095"
         x="-1020.1335"
         height="0.37565047"
         width="1.9224465"
         id="rect4762"
         style="fill:#ffffff;fill-opacity:0.5372549;stroke:none" />
    </g>
    <path
       inkscape:connector-curvature="0"
       id="path5022"
       style="font-size:1.92365324px;font-style:normal;font-variant:normal;font-weight:bold;font-stretch:normal;text-align:start;line-height:125%;letter-spacing:0px;word-spacing:0px;writing-mode:lr-tb;text-anchor:start;fill:#ffffff;fill-opacity:1;stroke:none;font-family:Helvetica;-inkscape-font-specification:Helvetica Bold"
       d="m 23.822036,1025.967 q 0,0.1424 0.06156,0.202 0.05001,0.048 0.140427,0.048 0.07887,0 0.134655,-0.054 0.06541,-0.063 0.06541,-0.175 0,-0.1193 -0.05386,-0.1847 -0.05194,-0.067 -0.153892,-0.067 -0.07502,0 -0.123114,0.04 Q 23.822036,1025.8362 23.822036,1025.967 z m -0.240457,0.5983 0.267388,0 q 0.01154,0.069 0.05194,0.1038 0.04232,0.033 0.105801,0.033 0.09426,0 0.153892,-0.083 0.07118,-0.1 0.07118,-0.2981 l -0.0058,0 q -0.04232,0.063 -0.115419,0.092 -0.06156,0.023 -0.14235,0.023 -0.188518,0 -0.302014,-0.1231 -0.111572,-0.125 -0.111572,-0.3039 0,-0.2424 0.130809,-0.3713 0.12119,-0.1193 0.332792,-0.1193 0.240456,0 0.359723,0.1712 0.12119,0.1693 0.12119,0.531 0,0.3674 -0.153892,0.5482 -0.128885,0.152 -0.340487,0.152 -0.175052,0 -0.290471,-0.094 Q 23.598892,1026.7288 23.581579,1026.5653 Z" />
    <path
       inkscape:connector-curvature="0"
       id="path5024"
       style="font-size:1.92365324px;font-style:normal;font-variant:normal;font-weight:bold;font-stretch:normal;text-align:start;line-height:125%;letter-spacing:0px;word-spacing:0px;writing-mode:lr-tb;text-anchor:start;fill:#ffffff;fill-opacity:1;stroke:none;font-family:Helvetica;-inkscape-font-specification:Helvetica Bold"
       d="m 24.629279,1026.2152 q 0,-0.3598 0.113496,-0.5291 0.115419,-0.1712 0.357799,-0.1712 0.24238,0 0.3578,0.1712 0.117343,0.1693 0.117343,0.5291 0,0.3597 -0.11542,0.5309 -0.115419,0.1712 -0.357799,0.1712 -0.240457,0 -0.3578,-0.1712 Q 24.629279,1026.573 24.629279,1026.2152 z m 0.277006,0 q 0,0.2693 0.0404,0.3789 0.04232,0.1077 0.155816,0.1077 0.113495,0 0.153892,-0.1077 0.04232,-0.1077 0.04232,-0.3789 0,-0.2694 -0.04232,-0.3771 -0.04232,-0.1077 -0.155816,-0.1077 -0.111572,0 -0.153892,0.1077 Q 24.906285,1025.9458 24.906285,1026.2152 Z" />
    <path
       inkscape:connector-curvature="0"
       id="path5026"
       style="font-size:1.92365324px;font-style:normal;font-variant:normal;font-weight:bold;font-stretch:normal;text-align:start;line-height:125%;letter-spacing:0px;word-spacing:0px;writing-mode:lr-tb;text-anchor:start;fill:#ffffff;fill-opacity:1;stroke:none;font-family:Helvetica;-inkscape-font-specification:Helvetica Bold"
       d="m 25.771238,1026.0209 0.0019,-0.5213 0.188518,0 -0.0019,0.5213 L 25.771238,1026.0209 Z" />
    <path
       style="fill:#ffffff;fill-opacity:1;stroke:none"
       d="M 36.8125 27 C 35.052092 27 33.625 28.427092 33.625 30.1875 C 33.625 31.947908 35.052092 33.375 36.8125 33.375 C 38.572908 33.375 40 31.947908 40 30.1875 C 40 28.427092 38.572908 27 36.8125 27 z M 36.8125 27.34375 C 38.386739 27.34375 39.65625 28.613261 39.65625 30.1875 C 39.65625 31.761739 38.386739 33.03125 36.8125 33.03125 C 35.238261 33.03125 33.96875 31.761739 33.96875 30.1875 C 33.96875 28.613261 35.238261 27.34375 36.8125 27.34375 z "
       id="path4776"
       transform="translate(0,1004.3622)" />
    <path
       id="path4781"
       d="m 33.630519,1031.3622 c -3.517767,0 -6.36948,2.8517 -6.36948,6.3695 0,3.5177 2.851713,6.3695 6.36948,6.3695 3.517768,0 6.369481,-2.8518 6.369481,-6.3695 C 40,1034.2139 37.148287,1031.3622 33.630519,1031.3622 z m 0,0.6869 c 3.145753,0 5.682576,2.5368 5.682576,5.6826 0,3.1457 -2.536823,5.6826 -5.682576,5.6826 -3.145752,0 -5.682575,-2.5369 -5.682575,-5.6826 C 27.947944,1034.5859 30.484767,1032.0491 33.630519,1032.0491 Z"
       style="fill:#ffffff;fill-opacity:1;stroke:none"
       inkscape:connector-curvature="0" />
    <path
       style="fill:#ffffff;fill-opacity:0.34061136;stroke:none"
       d="M 2.09375 0 L 2.09375 8.09375 L 0 8.09375 L 0 8.40625 L 2.09375 8.40625 L 2.09375 14.375 L 0 14.375 L 0 14.71875 L 2.09375 14.71875 L 2.09375 20.65625 L 0 20.65625 L 0 21.03125 L 2.09375 21.03125 L 2.09375 26.96875 L 0 26.96875 L 0 27.34375 L 2.09375 27.34375 L 2.09375 33.28125 L 0 33.28125 L 0 33.625 L 2.09375 33.625 L 2.09375 39.59375 L 0 39.59375 L 0 39.90625 L 2.09375 39.90625 L 2.09375 48 L 2.40625 48 L 2.40625 39.90625 L 8.375 39.90625 L 8.375 48 L 8.71875 48 L 8.71875 39.90625 L 14.65625 39.90625 L 14.65625 48 L 15.03125 48 L 15.03125 39.90625 L 20.96875 39.90625 L 20.96875 48 L 21.34375 48 L 21.34375 39.90625 L 27.28125 39.90625 L 27.28125 48 L 27.625 48 L 27.625 39.90625 L 31.28125 39.90625 L 33.59375 39.90625 L 33.59375 48 L 33.90625 48 L 33.90625 39.90625 L 39.375 39.90625 L 39.375 48 L 39.6875 48 L 39.6875 39.90625 L 42 39.90625 L 45.65625 39.90625 L 45.65625 48 L 46 48 L 46 39.90625 L 48 39.90625 L 48 39.59375 L 46 39.59375 L 46 33.625 L 48 33.625 L 48 33.28125 L 46 33.28125 L 46 27.34375 L 48 27.34375 L 48 26.96875 L 46 26.96875 L 46 21.03125 L 48 21.03125 L 48 20.65625 L 46 20.65625 L 46 14.71875 L 48 14.71875 L 48 14.375 L 46 14.375 L 46 8.40625 L 48 8.40625 L 48 8.09375 L 46 8.09375 L 46 0 L 45.65625 0 L 45.65625 8.09375 L 42 8.09375 L 39.6875 8.09375 L 39.6875 0 L 39.375 0 L 39.375 8.09375 L 33.90625 8.09375 L 33.90625 0 L 33.59375 0 L 33.59375 8.09375 L 31.28125 8.09375 L 27.625 8.09375 L 27.625 0 L 27.28125 0 L 27.28125 8.09375 L 21.34375 8.09375 L 21.34375 0 L 20.96875 0 L 20.96875 8.09375 L 15.03125 8.09375 L 15.03125 0 L 14.65625 0 L 14.65625 8.09375 L 8.71875 8.09375 L 8.71875 0 L 8.375 0 L 8.375 8.09375 L 2.40625 8.09375 L 2.40625 0 L 2.09375 0 z M 2.40625 8.40625 L 8.375 8.40625 L 8.375 14.375 L 2.40625 14.375 L 2.40625 8.40625 z M 8.71875 8.40625 L 14.65625 8.40625 L 14.65625 14.375 L 8.71875 14.375 L 8.71875 8.40625 z M 15.03125 8.40625 L 20.96875 8.40625 L 20.96875 14.375 L 15.03125 14.375 L 15.03125 8.40625 z M 21.34375 8.40625 L 27.28125 8.40625 L 27.28125 14.375 L 21.34375 14.375 L 21.34375 8.40625 z M 27.625 8.40625 L 31.28125 8.40625 L 33.59375 8.40625 L 33.59375 14.375 L 31.28125 14.375 L 27.625 14.375 L 27.625 8.40625 z M 33.90625 8.40625 L 39.375 8.40625 L 39.375 14.375 L 33.90625 14.375 L 33.90625 8.40625 z M 39.6875 8.40625 L 42 8.40625 L 45.65625 8.40625 L 45.65625 14.375 L 42 14.375 L 39.6875 14.375 L 39.6875 8.40625 z M 2.40625 14.71875 L 8.375 14.71875 L 8.375 20.65625 L 2.40625 20.65625 L 2.40625 14.71875 z M 8.71875 14.71875 L 14.65625 14.71875 L 14.65625 20.65625 L 8.71875 20.65625 L 8.71875 14.71875 z M 15.03125 14.71875 L 20.96875 14.71875 L 20.96875 20.65625 L 15.03125 20.65625 L 15.03125 14.71875 z M 21.34375 14.71875 L 27.28125 14.71875 L 27.28125 20.65625 L 21.34375 20.65625 L 21.34375 14.71875 z M 27.625 14.71875 L 31.28125 14.71875 L 33.59375 14.71875 L 33.59375 20.65625 L 31.28125 20.65625 L 27.625 20.65625 L 27.625 14.71875 z M 33.90625 14.71875 L 39.375 14.71875 L 39.375 20.65625 L 33.90625 20.65625 L 33.90625 14.71875 z M 39.6875 14.71875 L 42 14.71875 L 45.65625 14.71875 L 45.65625 20.65625 L 42 20.65625 L 39.6875 20.65625 L 39.6875 14.71875 z M 2.40625 21.03125 L 8.375 21.03125 L 8.375 26.96875 L 2.40625 26.96875 L 2.40625 21.03125 z M 8.71875 21.03125 L 14.65625 21.03125 L 14.65625 26.96875 L 8.71875 26.96875 L 8.71875 21.03125 z M 15.03125 21.03125 L 20.96875 21.03125 L 20.96875 26.96875 L 15.03125 26.96875 L 15.03125 21.03125 z M 21.34375 21.03125 L 27.28125 21.03125 L 27.28125 26.96875 L 21.34375 26.96875 L 21.34375 21.03125 z M 27.625 21.03125 L 31.28125 21.03125 L 33.59375 21.03125 L 33.59375 26.96875 L 31.28125 26.96875 L 27.625 26.96875 L 27.625 21.03125 z M 33.90625 21.03125 L 39.375 21.03125 L 39.375 26.96875 L 33.90625 26.96875 L 33.90625 21.03125 z M 39.6875 21.03125 L 42 21.03125 L 45.65625 21.03125 L 45.65625 26.96875 L 42 26.96875 L 39.6875 26.96875 L 39.6875 21.03125 z M 2.40625 27.34375 L 8.375 27.34375 L 8.375 33.28125 L 2.40625 33.28125 L 2.40625 27.34375 z M 8.71875 27.34375 L 14.65625 27.34375 L 14.65625 33.28125 L 8.71875 33.28125 L 8.71875 27.34375 z M 15.03125 27.34375 L 20.96875 27.34375 L 20.96875 33.28125 L 15.03125 33.28125 L 15.03125 27.34375 z M 21.34375 27.34375 L 27.28125 27.34375 L 27.28125 33.28125 L 21.34375 33.28125 L 21.34375 27.34375 z M 27.625 27.34375 L 31.28125 27.34375 L 33.59375 27.34375 L 33.59375 33.28125 L 31.28125 33.28125 L 27.625 33.28125 L 27.625 27.34375 z M 33.90625 27.34375 L 39.375 27.34375 L 39.375 33.28125 L 33.90625 33.28125 L 33.90625 27.34375 z M 39.6875 27.34375 L 42 27.34375 L 45.65625 27.34375 L 45.65625 33.28125 L 42 33.28125 L 39.6875 33.28125 L 39.6875 27.34375 z M 2.40625 33.625 L 8.375 33.625 L 8.375 39.59375 L 2.40625 39.59375 L 2.40625 33.625 z M 8.71875 33.625 L 14.65625 33.625 L 14.65625 39.59375 L 8.71875 39.59375 L 8.71875 33.625 z M 15.03125 33.625 L 20.96875 33.625 L 20.96875 39.59375 L 15.03125 39.59375 L 15.03125 33.625 z M 21.34375 33.625 L 27.28125 33.625 L 27.28125 39.59375 L 21.34375 39.59375 L 21.34375 33.625 z M 27.625 33.625 L 31.28125 33.625 L 33.59375 33.625 L 33.59375 39.59375 L 31.28125 39.59375 L 27.625 39.59375 L 27.625 33.625 z M 33.90625 33.625 L 39.375 33.625 L 39.375 39.59375 L 33.90625 39.59375 L 33.90625 33.625 z M 39.6875 33.625 L 42 33.625 L 45.65625 33.625 L 45.65625 39.59375 L 42 39.59375 L 39.6875 39.59375 L 39.6875 33.625 z "
       transform="translate(0,1004.3622)"
       id="path4783" />
    <path
       inkscape:connector-curvature="0"
       style="fill:#000000;fill-opacity:1;stroke:none"
       d="m -2.6906746e-6,1049.3622 0,1.0625 c 0,1.0773 0.8602229806746,1.9375 1.9374999906746,1.9375 l 44.1250007,0 c 1.077277,0 1.937505,-0.8602 1.937505,-1.9375 l 0,-1.0625 c 0,1.0773 -0.860228,1.9375 -1.937505,1.9375 l -44.1250007,0 C 0.86022029,1051.2997 -2.6906746e-6,1050.4395 -2.6906746e-6,1049.3622 Z"
       id="rect846" />
    <path
       inkscape:connector-curvature="0"
       style="fill:#000000;fill-opacity:0.39215686;stroke:none"
       d="m 1.9374973,1004.3622 c -1.07727701,0 -1.9374999906746,0.8602 -1.9374999906746,1.9375 l 0,43.0625 c 0,0.7934 0.4800240006746,1.449 1.1562499906746,1.75 -0.30934201,-0.3333 -0.50000001,-0.7824 -0.50000001,-1.2812 l 0,-42.9375 c 0,-1.0482 0.82689901,-1.875 1.87500001,-1.875 l 42.9375007,0 c 1.048101,0 1.875005,0.8268 1.875005,1.875 l 0,42.9375 c 0,0.4988 -0.190663,0.9479 -0.500005,1.2812 0.676225,-0.301 1.156255,-0.9566 1.156255,-1.75 l 0,-43.0625 c 0,-1.0773 -0.860228,-1.9375 -1.937505,-1.9375 L 1.9374973,1004.3622 Z"
       id="rect4280-0" />
    <path
       inkscape:connector-curvature="0"
       style="fill:#ffffff;fill-opacity:0.5372549;stroke:none"
       d="m 2.5312473,1005.0185 c -0.917088,0 -1.67114701,0.6395 -1.84375001,1.5 0.33561201,-0.2799 0.77451201,-0.4375 1.25000001,-0.4375 l 44.1250007,0 c 0.475488,0 0.914388,0.1576 1.250005,0.4375 -0.172608,-0.8605 -0.926667,-1.5 -1.843755,-1.5 L 2.5312473,1005.0185 Z"
       id="path7515" />
  </g>
</svg>
