<?xml version="1.0" encoding="UTF-8" standalone="no"?>
<!-- Created with Inkscape (http://www.inkscape.org/) -->

<svg
   xmlns:dc="http://purl.org/dc/elements/1.1/"
   xmlns:cc="http://creativecommons.org/ns#"
   xmlns:rdf="http://www.w3.org/1999/02/22-rdf-syntax-ns#"
   xmlns:svg="http://www.w3.org/2000/svg"
   xmlns="http://www.w3.org/2000/svg"
   xmlns:xlink="http://www.w3.org/1999/xlink"
   xmlns:sodipodi="http://sodipodi.sourceforge.net/DTD/sodipodi-0.dtd"
   xmlns:inkscape="http://www.inkscape.org/namespaces/inkscape"
   width="48"
   height="48"
   id="svg2"
   version="1.1"
   inkscape:version="0.48+devel r12487"
   sodipodi:docname="kde-gtk-config.svg">
  <defs
     id="defs4">
    <linearGradient
       id="linearGradient865"
       inkscape:collect="always">
      <stop
         id="stop867"
         offset="0"
         style="stop-color:#000000;stop-opacity:1" />
      <stop
         id="stop869"
         offset="1"
         style="stop-color:#4d4d4d;stop-opacity:1" />
    </linearGradient>
    <linearGradient
       id="linearGradient873"
       inkscape:collect="always">
      <stop
         id="stop875"
         offset="0"
         style="stop-color:#8b8b8b;stop-opacity:1" />
      <stop
         id="stop877"
         offset="1"
         style="stop-color:#e1e1e1;stop-opacity:1" />
    </linearGradient>
    <linearGradient
       id="linearGradient886"
       inkscape:collect="always">
      <stop
         id="stop888"
         offset="0"
         style="stop-color:#535353;stop-opacity:1" />
      <stop
         id="stop890"
         offset="1"
         style="stop-color:#f0f0f0;stop-opacity:1" />
    </linearGradient>
    <linearGradient
       inkscape:collect="always"
       xlink:href="#linearGradient865"
       id="linearGradient3230"
       gradientUnits="userSpaceOnUse"
       x1="24.748737"
       y1="-1052.7157"
       x2="24.748737"
       y2="-1004.6325"
       gradientTransform="translate(2.8405762e-7,-4.41125e-5)" />
    <linearGradient
       inkscape:collect="always"
       xlink:href="#linearGradient873"
       id="linearGradient3071"
       gradientUnits="userSpaceOnUse"
       gradientTransform="matrix(0.4690437,0.12567988,-0.12567988,0.4690437,150.56991,541.39593)"
       x1="28.387375"
       y1="1046.0605"
       x2="28.387375"
       y2="1011.8457" />
    <linearGradient
       inkscape:collect="always"
       xlink:href="#linearGradient886"
       id="linearGradient3073"
       gradientUnits="userSpaceOnUse"
       gradientTransform="matrix(0.4803317,0.1287045,-0.1287045,0.4803317,50.725325,1018.0099)"
       x1="-27.5"
       y1="16.875"
       x2="-27.5"
       y2="37" />
    <linearGradient
       inkscape:collect="always"
       xlink:href="#linearGradient873"
       id="linearGradient3075"
       gradientUnits="userSpaceOnUse"
       x1="28.387375"
       y1="1046.0605"
       x2="28.387375"
       y2="1011.8457" />
    <linearGradient
       inkscape:collect="always"
       xlink:href="#linearGradient873"
       id="linearGradient3077"
       gradientUnits="userSpaceOnUse"
       x1="28.387375"
       y1="1046.0605"
       x2="28.387375"
       y2="1011.8457" />
    <linearGradient
       inkscape:collect="always"
       xlink:href="#linearGradient886"
       id="linearGradient3079"
       gradientUnits="userSpaceOnUse"
       gradientTransform="matrix(0.94674517,0,0,0.94674517,53.053242,1003.3326)"
       x1="-27.5"
       y1="16.875"
       x2="-27.5"
       y2="37" />
    <linearGradient
       inkscape:collect="always"
       xlink:href="#linearGradient873"
       id="linearGradient3081"
       gradientUnits="userSpaceOnUse"
       x1="19.255661"
       y1="1035.7218"
       x2="19.255661"
       y2="1011.7572" />
    <linearGradient
       inkscape:collect="always"
       xlink:href="#linearGradient873"
       id="linearGradient3083"
       gradientUnits="userSpaceOnUse"
       gradientTransform="matrix(0.87433674,0,0,0.87433674,1.9788937,129.16511)"
       x1="17.537415"
       y1="1019.8555"
       x2="17.537415"
       y2="1035.4093" />
  </defs>
  <sodipodi:namedview
     id="base"
     pagecolor="#ffffff"
     bordercolor="#666666"
     borderopacity="1.0"
     inkscape:pageopacity="0.0"
     inkscape:pageshadow="2"
     inkscape:zoom="5.6568542"
     inkscape:cx="9.8883202"
     inkscape:cy="31.781907"
     inkscape:document-units="px"
     inkscape:current-layer="layer1"
     showgrid="false"
     inkscape:window-width="1366"
     inkscape:window-height="719"
     inkscape:window-x="-4"
     inkscape:window-y="24"
     inkscape:window-maximized="1" />
  <metadata
     id="metadata7">
    <rdf:RDF>
      <cc:Work
         rdf:about="">
        <dc:format>image/svg+xml</dc:format>
        <dc:type
           rdf:resource="http://purl.org/dc/dcmitype/StillImage" />
        <dc:title />
      </cc:Work>
    </rdf:RDF>
  </metadata>
  <g
     inkscape:label="Capa 1"
     inkscape:groupmode="layer"
     id="layer1"
     transform="translate(0,-1004.3622)">
    <rect
       style="fill:url(#linearGradient3230);fill-opacity:1;stroke:none"
       id="rect2991-1-1"
       width="48"
       height="48"
       x="-1.2840576e-06"
       y="-1052.3622"
       ry="1.9445436"
       transform="scale(1,-1)" />
    <path
       inkscape:connector-curvature="0"
       style="color:#000000;fill:#000000;fill-opacity:0.15686275;fill-rule:nonzero;stroke:none;stroke-width:0.2;marker:none;visibility:visible;display:inline;overflow:visible;enable-background:accumulate"
       d="m 9.0000003,1005.1122 c -1.794925,0 -3.25,1.4551 -3.25,3.25 0,1.7949 1.455075,3.25 3.25,3.25 1.7949247,0 3.2499997,-1.4551 3.2499997,-3.25 0,-1.7949 -1.455075,-3.25 -3.2499997,-3.25 z m 9.9999997,0 c -1.794925,0 -3.25,1.4551 -3.25,3.25 0,1.7949 1.455075,3.25 3.25,3.25 1.794925,0 3.25,-1.4551 3.25,-3.25 0,-1.7949 -1.455075,-3.25 -3.25,-3.25 z m 10,0 c -1.794925,0 -3.25,1.4551 -3.25,3.25 0,1.7949 1.455075,3.25 3.25,3.25 1.794925,0 3.25,-1.4551 3.25,-3.25 0,-1.7949 -1.455075,-3.25 -3.25,-3.25 z m 10,0 c -1.794925,0 -3.25,1.4551 -3.25,3.25 0,1.7949 1.455075,3.25 3.25,3.25 1.794925,0 3.25,-1.4551 3.25,-3.25 0,-1.7949 -1.455075,-3.25 -3.25,-3.25 z m -38.74999972,0.25 c -0.153255,0.2783 -0.24999999594238,0.5961 -0.24999999594238,0.9375 l 0,5.1563 C 1.3003733,1011.0311 2.2500003,1009.8044 2.2500003,1008.3622 c 0,-1.3462 -0.833526,-2.5066 -2.00000002,-3 z m 47.49999972,0 c -1.166474,0.4934 -2,1.6538 -2,3 0,1.4422 0.949627,2.6689 2.25,3.0938 l 0,-5.1563 c 0,-0.3414 -0.09675,-0.6592 -0.25,-0.9375 z m -38.7499997,9.75 c -1.794925,0 -3.25,1.4551 -3.25,3.25 0,1.7949 1.455075,3.25 3.25,3.25 1.7949247,0 3.2499997,-1.4551 3.2499997,-3.25 0,-1.7949 -1.455075,-3.25 -3.2499997,-3.25 z m 9.9999997,0 c -1.794925,0 -3.25,1.4551 -3.25,3.25 0,1.7949 1.455075,3.25 3.25,3.25 1.794925,0 3.25,-1.4551 3.25,-3.25 0,-1.7949 -1.455075,-3.25 -3.25,-3.25 z m 10,0 c -1.794925,0 -3.25,1.4551 -3.25,3.25 0,1.7949 1.455075,3.25 3.25,3.25 1.794925,0 3.25,-1.4551 3.25,-3.25 0,-1.7949 -1.455075,-3.25 -3.25,-3.25 z m 10,0 c -1.794925,0 -3.25,1.4551 -3.25,3.25 0,1.7949 1.455075,3.25 3.25,3.25 1.794925,0 3.25,-1.4551 3.25,-3.25 0,-1.7949 -1.455075,-3.25 -3.25,-3.25 z M 2.8405762e-7,1015.2685 l 0,6.1875 C 1.3003733,1021.0311 2.2500003,1019.8044 2.2500003,1018.3622 c 0,-1.4422 -0.949627,-2.6689 -2.25000001594238,-3.0937 z M 48,1015.2685 c -1.300373,0.4248 -2.25,1.6515 -2.25,3.0937 0,1.4422 0.949627,2.6689 2.25,3.0938 l 0,-6.1875 z m -38.9999997,9.8437 c -1.794925,0 -3.25,1.4551 -3.25,3.25 0,1.7949 1.455075,3.25 3.25,3.25 1.7949247,0 3.2499997,-1.4551 3.2499997,-3.25 0,-1.7949 -1.455075,-3.25 -3.2499997,-3.25 z m 9.9999997,0 c -1.794925,0 -3.25,1.4551 -3.25,3.25 0,1.7949 1.455075,3.25 3.25,3.25 1.794925,0 3.25,-1.4551 3.25,-3.25 0,-1.7949 -1.455075,-3.25 -3.25,-3.25 z m 10,0 c -1.794925,0 -3.25,1.4551 -3.25,3.25 0,1.7949 1.455075,3.25 3.25,3.25 1.794925,0 3.25,-1.4551 3.25,-3.25 0,-1.7949 -1.455075,-3.25 -3.25,-3.25 z m 10,0 c -1.794925,0 -3.25,1.4551 -3.25,3.25 0,1.7949 1.455075,3.25 3.25,3.25 1.794925,0 3.25,-1.4551 3.25,-3.25 0,-1.7949 -1.455075,-3.25 -3.25,-3.25 z M 2.8405762e-7,1025.2685 l 0,6.1875 C 1.3003733,1031.0311 2.2500003,1029.8045 2.2500003,1028.3622 c 0,-1.4422 -0.949627,-2.6689 -2.25000001594238,-3.0937 z M 48,1025.2685 c -1.300373,0.4248 -2.25,1.6515 -2.25,3.0937 0,1.4423 0.949627,2.6689 2.25,3.0938 l 0,-6.1875 z m -38.9999997,9.8437 c -1.794925,0 -3.25,1.4551 -3.25,3.25 0,1.7949 1.455075,3.25 3.25,3.25 1.7949247,0 3.2499997,-1.4551 3.2499997,-3.25 0,-1.7949 -1.455075,-3.25 -3.2499997,-3.25 z m 9.9999997,0 c -1.794925,0 -3.25,1.4551 -3.25,3.25 0,1.7949 1.455075,3.25 3.25,3.25 1.794925,0 3.25,-1.4551 3.25,-3.25 0,-1.7949 -1.455075,-3.25 -3.25,-3.25 z m 10,0 c -1.794925,0 -3.25,1.4551 -3.25,3.25 0,1.7949 1.455075,3.25 3.25,3.25 1.794925,0 3.25,-1.4551 3.25,-3.25 0,-1.7949 -1.455075,-3.25 -3.25,-3.25 z m 10,0 c -1.794925,0 -3.25,1.4551 -3.25,3.25 0,1.7949 1.455075,3.25 3.25,3.25 1.794925,0 3.25,-1.4551 3.25,-3.25 0,-1.7949 -1.455075,-3.25 -3.25,-3.25 z M 2.8405762e-7,1035.2685 l 0,6.1875 C 1.3003733,1041.0311 2.2500003,1039.8045 2.2500003,1038.3622 c 0,-1.4422 -0.949627,-2.6689 -2.25000001594238,-3.0937 z M 48,1035.2685 c -1.300373,0.4248 -2.25,1.6515 -2.25,3.0937 0,1.4423 0.949627,2.6689 2.25,3.0938 l 0,-6.1875 z m -38.9999997,9.8437 c -1.794925,0 -3.25,1.4551 -3.25,3.25 0,1.7949 1.455075,3.25 3.25,3.25 1.7949247,0 3.2499997,-1.4551 3.2499997,-3.25 0,-1.7949 -1.455075,-3.25 -3.2499997,-3.25 z m 9.9999997,0 c -1.794925,0 -3.25,1.4551 -3.25,3.25 0,1.7949 1.455075,3.25 3.25,3.25 1.794925,0 3.25,-1.4551 3.25,-3.25 0,-1.7949 -1.455075,-3.25 -3.25,-3.25 z m 10,0 c -1.794925,0 -3.25,1.4551 -3.25,3.25 0,1.7949 1.455075,3.25 3.25,3.25 1.794925,0 3.25,-1.4551 3.25,-3.25 0,-1.7949 -1.455075,-3.25 -3.25,-3.25 z m 10,0 c -1.794925,0 -3.25,1.4551 -3.25,3.25 0,1.7949 1.455075,3.25 3.25,3.25 1.794925,0 3.25,-1.4551 3.25,-3.25 0,-1.7949 -1.455075,-3.25 -3.25,-3.25 z M 2.8405762e-7,1045.2685 l 0,5.1562 c 0,0.3414 0.0967399959424,0.6592 0.24999999594238,0.9375 1.16647402,-0.4934 2.00000002,-1.6538 2.00000002,-3 0,-1.4422 -0.949627,-2.6689 -2.25000001594238,-3.0937 z M 48,1045.2685 c -1.300373,0.4248 -2.25,1.6515 -2.25,3.0937 0,1.3462 0.833526,2.5066 2,3 0.153255,-0.2783 0.25,-0.5961 0.25,-0.9375 l 0,-5.1562 z"
       id="path918" />
    <path
       inkscape:connector-curvature="0"
       style="color:#000000;fill:#ffffff;fill-opacity:0.07692309;fill-rule:nonzero;stroke:none;stroke-width:0.2;marker:none;visibility:visible;display:inline;overflow:visible;enable-background:accumulate"
       d="m 2.2187503,1008.6122 c -0.103448,1.3345 -0.995008,2.4463 -2.21875001594238,2.8438 l 0,0.5 C 1.3003733,1011.5311 2.2500003,1010.3044 2.2500003,1008.8622 c 0,-0.086 -0.02474,-0.166 -0.03125,-0.25 z m 3.5625,0 c -0.0065,0.084 -0.03125,0.1643 -0.03125,0.25 0,1.7949 1.455075,3.25 3.25,3.25 1.7949247,0 3.2499997,-1.4551 3.2499997,-3.25 0,-0.086 -0.02473,-0.166 -0.03125,-0.25 -0.12991,1.6758 -1.509538,3 -3.2187497,3 -1.709213,0 -3.08884,-1.3242 -3.21875,-3 z m 9.9999997,0 c -0.0065,0.084 -0.03125,0.1643 -0.03125,0.25 0,1.7949 1.455075,3.25 3.25,3.25 1.794925,0 3.25,-1.4551 3.25,-3.25 0,-0.086 -0.02473,-0.166 -0.03125,-0.25 -0.12991,1.6758 -1.509538,3 -3.21875,3 -1.709212,0 -3.08884,-1.3242 -3.21875,-3 z m 10,0 c -0.0065,0.084 -0.03125,0.1643 -0.03125,0.25 0,1.7949 1.455075,3.25 3.25,3.25 1.794925,0 3.25,-1.4551 3.25,-3.25 0,-0.086 -0.02473,-0.166 -0.03125,-0.25 -0.12991,1.6758 -1.509538,3 -3.21875,3 -1.709212,0 -3.08884,-1.3242 -3.21875,-3 z m 10,0 c -0.0065,0.084 -0.03125,0.1643 -0.03125,0.25 0,1.7949 1.455075,3.25 3.25,3.25 1.794925,0 3.25,-1.4551 3.25,-3.25 0,-0.086 -0.02473,-0.166 -0.03125,-0.25 -0.12991,1.6758 -1.509538,3 -3.21875,3 -1.709212,0 -3.08884,-1.3242 -3.21875,-3 z m 10,0 c -0.0065,0.084 -0.03125,0.1643 -0.03125,0.25 0,1.4422 0.949627,2.6689 2.25,3.0938 l 0,-0.5 c -1.223741,-0.3975 -2.115302,-1.5093 -2.21875,-2.8438 z m -43.5624997,10 c -0.103448,1.3345 -0.995008,2.4463 -2.21875001594238,2.8438 l 0,0.5 C 1.3003733,1021.5311 2.2500003,1020.3044 2.2500003,1018.8622 c 0,-0.086 -0.02474,-0.166 -0.03125,-0.25 z m 3.5625,0 c -0.0065,0.084 -0.03125,0.1643 -0.03125,0.25 0,1.7949 1.455075,3.25 3.25,3.25 1.7949247,0 3.2499997,-1.4551 3.2499997,-3.25 0,-0.086 -0.02473,-0.166 -0.03125,-0.25 -0.12991,1.6758 -1.509538,3 -3.2187497,3 -1.709213,0 -3.08884,-1.3242 -3.21875,-3 z m 9.9999997,0 c -0.0065,0.084 -0.03125,0.1643 -0.03125,0.25 0,1.7949 1.455075,3.25 3.25,3.25 1.794925,0 3.25,-1.4551 3.25,-3.25 0,-0.086 -0.02473,-0.166 -0.03125,-0.25 -0.12991,1.6758 -1.509538,3 -3.21875,3 -1.709212,0 -3.08884,-1.3242 -3.21875,-3 z m 10,0 c -0.0065,0.084 -0.03125,0.1643 -0.03125,0.25 0,1.7949 1.455075,3.25 3.25,3.25 1.794925,0 3.25,-1.4551 3.25,-3.25 0,-0.086 -0.02473,-0.166 -0.03125,-0.25 -0.12991,1.6758 -1.509538,3 -3.21875,3 -1.709212,0 -3.08884,-1.3242 -3.21875,-3 z m 10,0 c -0.0065,0.084 -0.03125,0.1643 -0.03125,0.25 0,1.7949 1.455075,3.25 3.25,3.25 1.794925,0 3.25,-1.4551 3.25,-3.25 0,-0.086 -0.02473,-0.166 -0.03125,-0.25 -0.12991,1.6758 -1.509538,3 -3.21875,3 -1.709212,0 -3.08884,-1.3242 -3.21875,-3 z m 10,0 c -0.0065,0.084 -0.03125,0.1643 -0.03125,0.25 0,1.4422 0.949627,2.6689 2.25,3.0938 l 0,-0.5 c -1.223741,-0.3975 -2.115302,-1.5093 -2.21875,-2.8438 z m -43.5624997,10 c -0.103448,1.3345 -0.995008,2.4463 -2.21875001594238,2.8438 l 0,0.5 C 1.3003733,1031.5311 2.2500003,1030.3045 2.2500003,1028.8622 c 0,-0.086 -0.02474,-0.166 -0.03125,-0.25 z m 3.5625,0 c -0.0065,0.084 -0.03125,0.1643 -0.03125,0.25 0,1.7949 1.455075,3.25 3.25,3.25 1.7949247,0 3.2499997,-1.4551 3.2499997,-3.25 0,-0.086 -0.02473,-0.166 -0.03125,-0.25 -0.12991,1.6758 -1.509538,3 -3.2187497,3 -1.709213,0 -3.08884,-1.3242 -3.21875,-3 z m 9.9999997,0 c -0.0065,0.084 -0.03125,0.1643 -0.03125,0.25 0,1.7949 1.455075,3.25 3.25,3.25 1.794925,0 3.25,-1.4551 3.25,-3.25 0,-0.086 -0.02473,-0.166 -0.03125,-0.25 -0.12991,1.6758 -1.509538,3 -3.21875,3 -1.709212,0 -3.08884,-1.3242 -3.21875,-3 z m 10,0 c -0.0065,0.084 -0.03125,0.1643 -0.03125,0.25 0,1.7949 1.455075,3.25 3.25,3.25 1.794925,0 3.25,-1.4551 3.25,-3.25 0,-0.086 -0.02473,-0.166 -0.03125,-0.25 -0.12991,1.6758 -1.509538,3 -3.21875,3 -1.709212,0 -3.08884,-1.3242 -3.21875,-3 z m 10,0 c -0.0065,0.084 -0.03125,0.1643 -0.03125,0.25 0,1.7949 1.455075,3.25 3.25,3.25 1.794925,0 3.25,-1.4551 3.25,-3.25 0,-0.086 -0.02473,-0.166 -0.03125,-0.25 -0.12991,1.6758 -1.509538,3 -3.21875,3 -1.709212,0 -3.08884,-1.3242 -3.21875,-3 z m 10,0 c -0.0065,0.084 -0.03125,0.1643 -0.03125,0.25 0,1.4423 0.949627,2.6689 2.25,3.0938 l 0,-0.5 c -1.223741,-0.3975 -2.115302,-1.5093 -2.21875,-2.8438 z m -43.5624997,10 c -0.103448,1.3345 -0.995008,2.4463 -2.21875001594238,2.8438 l 0,0.5 C 1.3003733,1041.5311 2.2500003,1040.3045 2.2500003,1038.8622 c 0,-0.086 -0.02474,-0.166 -0.03125,-0.25 z m 3.5625,0 c -0.0065,0.084 -0.03125,0.1643 -0.03125,0.25 0,1.7949 1.455075,3.25 3.25,3.25 1.7949247,0 3.2499997,-1.4551 3.2499997,-3.25 0,-0.086 -0.02473,-0.166 -0.03125,-0.25 -0.12991,1.6758 -1.509538,3 -3.2187497,3 -1.709213,0 -3.08884,-1.3242 -3.21875,-3 z m 9.9999997,0 c -0.0065,0.084 -0.03125,0.1643 -0.03125,0.25 0,1.7949 1.455075,3.25 3.25,3.25 1.794925,0 3.25,-1.4551 3.25,-3.25 0,-0.086 -0.02473,-0.166 -0.03125,-0.25 -0.12991,1.6758 -1.509538,3 -3.21875,3 -1.709212,0 -3.08884,-1.3242 -3.21875,-3 z m 10,0 c -0.0065,0.084 -0.03125,0.1643 -0.03125,0.25 0,1.7949 1.455075,3.25 3.25,3.25 1.794925,0 3.25,-1.4551 3.25,-3.25 0,-0.086 -0.02473,-0.166 -0.03125,-0.25 -0.12991,1.6758 -1.509538,3 -3.21875,3 -1.709212,0 -3.08884,-1.3242 -3.21875,-3 z m 10,0 c -0.0065,0.084 -0.03125,0.1643 -0.03125,0.25 0,1.7949 1.455075,3.25 3.25,3.25 1.794925,0 3.25,-1.4551 3.25,-3.25 0,-0.086 -0.02473,-0.166 -0.03125,-0.25 -0.12991,1.6758 -1.509538,3 -3.21875,3 -1.709212,0 -3.08884,-1.3242 -3.21875,-3 z m 10,0 c -0.0065,0.084 -0.03125,0.1643 -0.03125,0.25 0,1.4423 0.949627,2.6689 2.25,3.0938 l 0,-0.5 c -1.223741,-0.3975 -2.115302,-1.5093 -2.21875,-2.8438 z m -43.5624997,10 c -0.09629,1.2421 -0.873966,2.2903 -1.96875002,2.75 0.07368,0.1338 0.148049,0.2629 0.25,0.375 1.03312502,-0.5442 1.75000002,-1.6262 1.75000002,-2.875 0,-0.086 -0.02474,-0.166 -0.03125,-0.25 z m 3.5625,0 c -0.0065,0.084 -0.03125,0.1643 -0.03125,0.25 0,1.7949 1.455075,3.25 3.25,3.25 1.7949247,0 3.2499997,-1.4551 3.2499997,-3.25 0,-0.086 -0.02473,-0.166 -0.03125,-0.25 -0.12991,1.6758 -1.509538,3 -3.2187497,3 -1.709213,0 -3.08884,-1.3242 -3.21875,-3 z m 9.9999997,0 c -0.0065,0.084 -0.03125,0.1643 -0.03125,0.25 0,1.7949 1.455075,3.25 3.25,3.25 1.794925,0 3.25,-1.4551 3.25,-3.25 0,-0.086 -0.02473,-0.166 -0.03125,-0.25 -0.12991,1.6758 -1.509538,3 -3.21875,3 -1.709212,0 -3.08884,-1.3242 -3.21875,-3 z m 10,0 c -0.0065,0.084 -0.03125,0.1643 -0.03125,0.25 0,1.7949 1.455075,3.25 3.25,3.25 1.794925,0 3.25,-1.4551 3.25,-3.25 0,-0.086 -0.02473,-0.166 -0.03125,-0.25 -0.12991,1.6758 -1.509538,3 -3.21875,3 -1.709212,0 -3.08884,-1.3242 -3.21875,-3 z m 10,0 c -0.0065,0.084 -0.03125,0.1643 -0.03125,0.25 0,1.7949 1.455075,3.25 3.25,3.25 1.794925,0 3.25,-1.4551 3.25,-3.25 0,-0.086 -0.02473,-0.166 -0.03125,-0.25 -0.12991,1.6758 -1.509538,3 -3.21875,3 -1.709212,0 -3.08884,-1.3242 -3.21875,-3 z m 10,0 c -0.0065,0.084 -0.03125,0.1643 -0.03125,0.25 0,1.2488 0.716875,2.3308 1.75,2.875 0.101951,-0.1121 0.176317,-0.2412 0.25,-0.375 -1.094783,-0.4597 -1.872459,-1.5079 -1.96875,-2.75 z"
       id="path954" />
    <path
       inkscape:connector-curvature="0"
       style="fill:#ffffff;fill-opacity:0.5372549;stroke:none"
       d="m 2.5312513,1005.0186 c -0.917089,0 -1.67114702,0.6395 -1.84375002,1.5 0.33561202,-0.2799 0.77451202,-0.4375 1.25000002,-0.4375 l 44.1249997,0 c 0.475488,0 0.914388,0.1576 1.25,0.4375 -0.172603,-0.8605 -0.926662,-1.5 -1.84375,-1.5 l -42.9374997,0 z"
       id="path7515-1" />
    <path
       inkscape:connector-curvature="0"
       style="fill:#000000;fill-opacity:1;stroke:none"
       d="m 1.2840576e-6,1049.3622 0,1.0625 c 0,1.0773 0.8602229959424,1.9375 1.9375000159424,1.9375 l 44.1249997,0 c 1.077277,0 1.9375,-0.8602 1.9375,-1.9375 l 0,-1.0625 c 0,1.0773 -0.860223,1.9375 -1.9375,1.9375 l -44.1249997,0 c -1.07727702,0 -1.9375000159424,-0.8602 -1.9375000159424,-1.9375 z"
       id="rect846-1" />
    <path
       inkscape:connector-curvature="0"
       style="fill:#000000;fill-opacity:0.39215686;stroke:none"
       d="m 1.9375013,1004.3623 c -1.07727702,0 -1.9375000159424,0.8602 -1.9375000159424,1.9375 l 0,43.0624 c 0,0.7934 0.4800229959424,1.449 1.1562500159424,1.75 -0.30934202,-0.3333 -0.50000002,-0.7824 -0.50000002,-1.2812 l 0,-42.9374 c 0,-1.0482 0.82689902,-1.875 1.87500002,-1.875 l 42.9374997,0 c 1.048101,0 1.875,0.8268 1.875,1.875 l 0,42.9374 c 0,0.4988 -0.190658,0.9479 -0.5,1.2812 0.676226,-0.301 1.15625,-0.9566 1.15625,-1.75 l 0,-43.0624 c 0,-1.0773 -0.860223,-1.9375 -1.9375,-1.9375 l -44.1249997,0 z"
       id="rect4280" />
    <g
       id="layer2"
       inkscape:label="Dark background"
       style="display:none"
       transform="translate(-4.2197642,1012.916)">
      <rect
         y="0"
         x="0"
         height="22"
         width="22"
         id="rect4898"
         style="fill:#333333;fill-opacity:1;fill-rule:nonzero;stroke:none;display:inline" />
    </g>
    <g
       id="layer3"
       inkscape:label="Pale darkground"
       style="display:none"
       transform="translate(-4.2197642,1012.916)">
      <rect
         style="fill:#efebe7;fill-opacity:1;fill-rule:nonzero;stroke:none"
         id="rect4126"
         width="22"
         height="22"
         x="0"
         y="0" />
    </g>
    <g
       id="g3036"
       transform="matrix(0.9521209,0,0,0.9521209,1.1523765,49.48995)">
      <path
         style="fill:#000000;fill-opacity:0.5372549"
         d="m 28.277575,1034.2353 c 0.04191,-0.1564 1.404658,-1.0641 1.864131,-1.2417 0.249991,-0.097 0.584152,-0.141 0.742528,-0.099 0.394311,0.1056 0.924338,0.8006 1.351236,1.7716 0.405969,0.9234 0.388344,0.9165 1.756438,0.6974 0.686373,-0.1099 0.78661,-0.1591 0.792347,-0.3895 0.01711,-0.689 0.290846,-1.8804 0.524912,-2.2847 0.405015,-0.6995 0.66649,-0.7268 2.204468,-0.2308 1.484941,0.479 1.305189,0.5294 2.10763,-0.5903 l 0.451107,-0.6296 -0.633704,-0.8915 c -0.757501,-1.0657 -0.970608,-1.6615 -0.74809,-2.091 0.149097,-0.2878 1.631052,-1.192 2.308775,-1.4087 0.285148,-0.091 0.295926,-0.1152 0.258915,-0.5787 -0.02124,-0.266 -0.08408,-0.7358 -0.139722,-1.0438 l -0.101101,-0.5601 -1.430891,-0.3834 c -1.892579,-0.5071 -1.844044,-0.4208 -1.333391,-2.3386 l 0.387328,-1.4547 -0.828546,-0.6254 -0.828545,-0.6255 -0.445799,0.3387 c -0.245218,0.1864 -0.778298,0.5291 -1.184724,0.762 -0.616373,0.3529 -0.804693,0.4055 -1.13577,0.3168 -0.331057,-0.089 -0.476669,-0.2374 -0.877955,-0.8961 -0.26462,-0.4342 -0.550565,-0.9915 -0.635494,-1.2381 -0.179394,-0.5213 -0.244046,-0.5348 -1.563145,-0.3237 -0.591559,0.095 -0.856091,0.1906 -0.843976,0.306 0.0097,0.092 -0.07308,0.6342 -0.183997,1.2041 -0.157718,0.8104 -0.263059,1.1154 -0.483544,1.4 -0.359072,0.4636 -0.576097,0.4598 -2.150085,-0.037 l -1.238811,-0.3912 -0.551132,0.7157 c -0.303112,0.3935 -0.569931,0.7857 -0.59291,0.8715 -0.02303,0.086 0.198528,0.4816 0.492284,0.8796 0.647363,0.8769 0.961082,1.6439 0.846891,2.0701 -0.09745,0.3637 -0.863179,0.8959 -1.90381,1.3233 -0.358654,0.1473 -0.670226,0.3356 -0.692422,0.4184 -0.02218,0.083 0.01411,0.5586 0.08066,1.0573 l 0.121005,0.9067 1.271485,0.2688 c 2.065847,0.4364 2.213916,0.6967 1.53635,2.6986 l -0.377708,1.1159 0.402579,0.3629 c 0.739042,0.6669 1.355932,1.0477 1.4042,0.8675 z m 2.051491,-4.9279 c -1.045609,-0.9269 -1.367247,-2.045 -0.990363,-3.4433 0.249739,-0.9267 0.773493,-1.5685 1.655584,-2.0287 0.882226,-0.4604 1.3915,-0.5157 2.387279,-0.2593 0.69454,0.1792 0.918905,0.2914 1.374728,0.6896 1.00786,0.8809 1.361932,2.057 1.015581,3.3729 -0.64392,2.4465 -3.557459,3.3398 -5.442809,1.6688 z"
         id="path980"
         inkscape:connector-curvature="0"
         sodipodi:nodetypes="ssssssssscsssscccsccccssccsssssccssscsscssccsssscsss" />
      <path
         sodipodi:nodetypes="ssssssssscsssscccsccccssccsssssccssscsscssccsssscsss"
         inkscape:connector-curvature="0"
         id="path984"
         d="m 28.506838,1033.8372 c 0.03968,-0.1481 1.329853,-1.0075 1.764857,-1.1756 0.236678,-0.091 0.553043,-0.1335 0.702985,-0.093 0.373312,0.1 0.875113,0.758 1.279276,1.6773 0.384349,0.8743 0.367663,0.8677 1.662899,0.6603 0.64982,-0.1041 0.74472,-0.1507 0.750151,-0.3689 0.0162,-0.6523 0.275357,-1.7802 0.496958,-2.1629 0.383446,-0.6623 0.630996,-0.6882 2.08707,-0.2185 1.40586,0.4535 1.235681,0.5012 1.995388,-0.5589 l 0.427083,-0.5961 -0.599955,-0.844 c -0.717162,-1.009 -0.918919,-1.5731 -0.708252,-1.9797 0.141157,-0.2724 1.544191,-1.1285 2.185822,-1.3336 0.269962,-0.086 0.280167,-0.1091 0.245127,-0.5479 -0.02011,-0.2518 -0.07961,-0.6966 -0.132282,-0.9882 l -0.09572,-0.5303 -1.354689,-0.363 c -1.791791,-0.4801 -1.745841,-0.3983 -1.262382,-2.2141 l 0.3667,-1.3771 -0.784421,-0.5922 -0.784421,-0.5921 -0.422058,0.3206 c -0.23216,0.1765 -0.736851,0.501 -1.121632,0.7214 -0.583549,0.3341 -0.761839,0.3839 -1.075285,0.2999 -0.313426,-0.084 -0.451284,-0.2247 -0.831199,-0.8483 -0.250528,-0.4111 -0.521245,-0.9387 -0.601651,-1.1722 -0.169841,-0.4936 -0.23105,-0.5063 -1.4799,-0.3065 -0.560056,0.09 -0.8105,0.1805 -0.79903,0.2898 0.0092,0.088 -0.06919,0.6004 -0.174199,1.14 -0.149319,0.7672 -0.24905,1.0559 -0.457793,1.3254 -0.339949,0.4388 -0.545416,0.4353 -2.035582,-0.035 l -1.172839,-0.3704 -0.521781,0.6775 c -0.28697,0.3726 -0.539579,0.744 -0.561334,0.8252 -0.02181,0.081 0.187955,0.456 0.466067,0.8327 0.612887,0.8302 0.9099,1.5564 0.80179,1.9599 -0.09226,0.3443 -0.817211,0.8482 -1.802423,1.2528 -0.339554,0.1395 -0.634534,0.3177 -0.655548,0.3961 -0.021,0.078 0.01336,0.5288 0.07637,1.001 l 0.114561,0.8584 1.203772,0.2545 c 1.955831,0.4132 2.096014,0.6597 1.454532,2.5549 l -0.357594,1.0565 0.38114,0.3435 c 0.699685,0.6314 1.283723,0.9919 1.32942,0.8214 z m 1.94224,-4.6656 c -0.989926,-0.8774 -1.294435,-1.936 -0.937622,-3.2598 0.236439,-0.8773 0.732301,-1.485 1.567416,-1.9207 0.835243,-0.4359 1.317396,-0.4882 2.260145,-0.2455 0.657552,0.1697 0.869969,0.2759 1.301517,0.6528 0.954187,0.8341 1.289403,1.9475 0.961496,3.1934 -0.609628,2.3162 -3.368006,3.1619 -5.152952,1.5798 z"
         style="fill:url(#linearGradient3071);fill-opacity:1" />
      <path
         style="color:#000000;fill:url(#linearGradient3073);fill-opacity:1;fill-rule:nonzero;stroke:none;stroke-width:0.2;marker:none;visibility:visible;display:inline;overflow:visible;enable-background:accumulate"
         d="m 33.845425,1022.0458 c -2.603059,-0.6975 -5.278673,0.8473 -5.976162,3.4503 -0.697489,2.6031 0.847288,5.2787 3.450347,5.9762 2.603058,0.6975 5.278674,-0.8473 5.976162,-3.4503 0.697489,-2.6031 -0.847288,-5.2787 -3.450347,-5.9762 z m -0.25741,0.9607 c 2.072499,0.5553 3.302412,2.6856 2.747094,4.758 -0.555319,2.0725 -2.685603,3.3025 -4.758102,2.7472 -2.0725,-0.5554 -3.302399,-2.6857 -2.747081,-4.7582 0.555318,-2.0724 2.68559,-3.3024 4.758089,-2.747 z"
         id="path986"
         inkscape:connector-curvature="0" />
      <path
         style="color:#000000;fill:#ffffff;fill-opacity:1;fill-rule:nonzero;stroke:none;stroke-width:0.2;marker:none;visibility:visible;display:inline;overflow:visible;enable-background:accumulate"
         d="m 33.845425,1022.0458 c -2.603059,-0.6975 -5.278673,0.8473 -5.976162,3.4503 -0.697489,2.6031 0.847288,5.2787 3.450347,5.9762 2.603058,0.6975 5.278674,-0.8473 5.976162,-3.4503 0.697489,-2.6031 -0.847288,-5.2787 -3.450347,-5.9762 z m -0.05228,0.1951 c 2.495289,0.6686 3.976111,3.2335 3.307496,5.7288 -0.668614,2.4953 -3.233468,3.9761 -5.728757,3.3075 -2.495288,-0.6686 -3.976097,-3.2335 -3.307483,-5.7288 0.668615,-2.4953 3.233456,-3.9761 5.728744,-3.3075 z"
         id="path988"
         inkscape:connector-curvature="0" />
      <path
         style="fill:#ffffff;fill-opacity:0.5372549"
         d="m 36.743238,1019.6368 -0.42381,0.3208 c -0.232167,0.1765 -0.724197,0.496 -1.108978,0.7164 -0.479128,0.2744 -0.693478,0.357 -0.925332,0.3313 0.04717,0.021 0.08994,0.04 0.146024,0.055 0.313446,0.084 0.495917,0.028 1.079461,-0.306 0.384781,-0.2205 0.876812,-0.5399 1.108978,-0.7164 l 0.324628,-0.2509 -0.200971,-0.1506 z m -4.373113,-1.0913 c -0.192699,-0.04 -0.53087,0.01 -1.155293,0.1087 -0.560056,0.09 -0.811632,0.1751 -0.800155,0.2843 0.0092,0.088 -0.07255,0.6035 -0.177553,1.143 -0.14931,0.7672 -0.243299,1.0573 -0.452041,1.3268 -0.244866,0.3161 -0.427666,0.3981 -1.063365,0.246 0.859823,0.2407 1.087363,0.191 1.363573,-0.1656 0.208741,-0.2694 0.30273,-0.5596 0.45204,-1.3267 0.105007,-0.5396 0.186731,-1.0555 0.177553,-1.143 -0.01147,-0.1092 0.240099,-0.1947 0.800155,-0.2844 0.468311,-0.075 0.77948,-0.1219 0.982132,-0.1229 -0.03729,-0.027 -0.0708,-0.054 -0.127073,-0.066 z m -5.789793,2.4546 -0.520331,0.681 c -0.286984,0.3726 -0.538818,0.75 -0.560569,0.8312 -0.02181,0.081 0.175364,0.4526 0.453463,0.8294 0.612883,0.8302 0.91958,1.5515 0.811491,1.9549 -0.09226,0.3443 -0.815111,0.8505 -1.800325,1.2551 -0.339543,0.1395 -0.63413,0.3252 -0.655147,0.4037 -0.02099,0.078 0.01089,0.5129 0.0739,0.985 l 0.106068,0.865 0.304286,0.065 -0.110092,-0.85 c -0.06301,-0.4722 -0.09489,-0.9068 -0.0739,-0.9851 0.02102,-0.078 0.315603,-0.2642 0.655147,-0.4036 0.985214,-0.4047 1.70806,-0.9108 1.800325,-1.2552 0.108089,-0.4034 -0.198608,-1.1246 -0.811491,-1.9549 -0.278099,-0.3768 -0.475269,-0.748 -0.453464,-0.8294 0.02175,-0.081 0.273585,-0.4585 0.56057,-0.8312 l 0.516252,-0.6658 -0.296129,-0.096 z m 6.956698,2.7971 c 0.497955,0.141 0.72788,0.2696 1.109391,0.6029 0.954192,0.834 1.292061,1.9406 0.964167,3.1864 -0.457219,1.7372 -2.123115,2.649 -3.680509,2.328 1.636673,0.5112 3.494193,-0.3991 3.980716,-2.2476 0.327896,-1.2458 -0.01,-2.3523 -0.964167,-3.1863 -0.43154,-0.377 -0.646935,-0.4858 -1.304525,-0.6553 -0.03909,-0.01 -0.06777,-0.018 -0.105073,-0.028 z m -6.892543,5.4893 c -0.04864,-0.013 -0.11695,-0.017 -0.169193,-0.029 1.184732,0.3414 1.212886,0.7567 0.672879,2.3521 l -0.34963,1.0647 0.374969,0.3418 c 0.66606,0.601 1.228482,0.9508 1.320331,0.8364 -0.245521,-0.1314 -0.609729,-0.3856 -1.020124,-0.756 l -0.374969,-0.3418 0.34963,-1.0646 c 0.561344,-1.6585 0.524419,-2.0537 -0.803893,-2.4036 z m 9.951872,2.6666 c 0.19622,0.052 0.380822,0.1195 0.652436,0.2069 0.42805,0.1381 0.700996,0.2324 0.907611,0.2753 -0.170424,-0.052 -0.340459,-0.1086 -0.607404,-0.1948 -0.406944,-0.1314 -0.705084,-0.2368 -0.952643,-0.2874 z m -5.319209,0.6983 c -0.03749,-0.01 -0.08423,-0.023 -0.139172,-0.021 0.349501,0.2117 0.761354,0.8212 1.111195,1.6169 0.252705,0.5748 0.34795,0.7712 0.740817,0.7777 -0.167074,-0.099 -0.267384,-0.3033 -0.44061,-0.6972 -0.404109,-0.9195 -0.898918,-1.5764 -1.27223,-1.6765 z"
         id="path990"
         inkscape:connector-curvature="0" />
      <g
         id="g998"
         transform="matrix(0,-0.35693574,0.35693574,0,-339.17494,1047.7633)">
        <g
           id="g1000"
           inkscape:label="Capa 1"
           transform="matrix(0.97649957,0,0,0.97649957,0.56401169,24.166997)"
           style="fill:#000000;fill-opacity:0.5372549">
          <path
             sodipodi:nodetypes="ssssssssscsssscccsccccssccsssssccssscsscssccsssscsss"
             inkscape:connector-curvature="0"
             id="path1002"
             d="m 19.665365,1044.6142 c 0,-0.3157 2.108324,-2.7129 2.884039,-3.2791 0.422068,-0.308 1.028953,-0.5603 1.34863,-0.5603 0.7959,0 2.14478,1.0414 3.438711,2.6546 1.230518,1.5342 1.193845,1.5301 3.659737,0.4271 1.237132,-0.5534 1.401061,-0.6967 1.295599,-1.1335 -0.315449,-1.3062 -0.401135,-3.688 -0.164318,-4.5674 0.409769,-1.5217 0.888375,-1.7052 4.035084,-1.5471 3.038234,0.1528 2.725143,0.3384 3.671293,-2.1753 l 0.531875,-1.4132 -1.643301,-1.3592 c -1.96435,-1.6248 -2.666331,-2.6393 -2.463996,-3.5604 0.135568,-0.6172 2.470169,-3.0679 3.637163,-3.8179 0.491021,-0.3155 0.499165,-0.3663 0.195578,-1.2205 -0.174229,-0.4902 -0.529657,-1.3433 -0.789842,-1.8952 l -0.473061,-1.0039 -2.888194,0 c -3.820093,0 -3.685096,0.1382 -3.691193,-3.7313 l -0.0046,-2.9349 -1.875973,-0.7598 -1.875971,-0.7598 -0.66864,0.8628 c -0.367741,0.4748 -1.198728,1.3892 -1.846629,2.0328 -0.982686,0.9757 -1.310819,1.1697 -1.979085,1.1697 -0.668224,0 -1.01744,-0.2064 -2.10555,-1.2444 -0.717456,-0.6842 -1.537171,-1.5894 -1.821592,-2.0111 -0.600896,-0.8912 -0.729437,-0.8839 -3.107126,0.1792 -1.066279,0.4768 -1.516036,0.791 -1.434991,1.0022 0.06493,0.1693 0.182418,1.2313 0.261103,2.3605 0.111898,1.6057 0.06741,2.2332 -0.204186,2.8805 -0.442299,1.0542 -0.852917,1.1566 -4.067942,1.0148 l -2.5303924,-0.1116 -0.6768044,1.6258 c -0.372246,0.8941 -0.676808,1.7674 -0.676808,1.9405 0,0.1735 0.616929,0.8069 1.3709532,1.4081 1.6616536,1.3248 2.6395196,2.611 2.6395196,3.4712 0,0.7341 -1.173516,2.1227 -2.9176124,3.4527 -0.6010736,0.4585 -1.0928604,0.9702 -1.0928604,1.1374 0,0.1671 0.30844,1.0448 0.6854236,1.9504 l 0.6854214,1.6465 2.5301598,-0.1354 c 4.110716,-0.2206 4.520947,0.195 4.255089,4.3069 l -0.148196,2.2922 0.941258,0.4802 c 1.728325,0.883 3.082227,1.2888 3.082227,0.9252 z m 1.376739,-10.3158 c -2.436828,-1.2178 -3.606799,-3.1613 -3.602602,-5.9847 0.0027,-1.8712 0.665187,-3.3442 2.094155,-4.656 1.429133,-1.3122 2.360325,-1.6733 4.364986,-1.693 1.398416,-0.013 1.877547,0.085 2.936913,0.6049 2.342573,1.1504 3.602851,3.1866 3.614624,5.8396 0.02188,4.9323 -5.014266,8.0848 -9.408076,5.8892 z"
             style="fill:#000000;fill-opacity:0.5372549" />
        </g>
        <g
           style="fill:url(#linearGradient3077);fill-opacity:1"
           transform="matrix(0.92449625,0,0,0.92449625,1.8120913,77.645244)"
           inkscape:label="Capa 1"
           id="g1004">
          <path
             style="fill:url(#linearGradient3075);fill-opacity:1"
             d="m 19.665365,1044.6142 c 0,-0.3157 2.108324,-2.7129 2.884039,-3.2791 0.422068,-0.308 1.028953,-0.5603 1.34863,-0.5603 0.7959,0 2.14478,1.0414 3.438711,2.6546 1.230518,1.5342 1.193845,1.5301 3.659737,0.4271 1.237132,-0.5534 1.401061,-0.6967 1.295599,-1.1335 -0.315449,-1.3062 -0.401135,-3.688 -0.164318,-4.5674 0.409769,-1.5217 0.888375,-1.7052 4.035084,-1.5471 3.038234,0.1528 2.725143,0.3384 3.671293,-2.1753 l 0.531875,-1.4132 -1.643301,-1.3592 c -1.96435,-1.6248 -2.666331,-2.6393 -2.463996,-3.5604 0.135568,-0.6172 2.470169,-3.0679 3.637163,-3.8179 0.491021,-0.3155 0.499165,-0.3663 0.195578,-1.2205 -0.174229,-0.4902 -0.529657,-1.3433 -0.789842,-1.8952 l -0.473061,-1.0039 -2.888194,0 c -3.820093,0 -3.685096,0.1382 -3.691193,-3.7313 l -0.0046,-2.9349 -1.875973,-0.7598 -1.875971,-0.7598 -0.66864,0.8628 c -0.367741,0.4748 -1.198728,1.3892 -1.846629,2.0328 -0.982686,0.9757 -1.310819,1.1697 -1.979085,1.1697 -0.668224,0 -1.01744,-0.2064 -2.10555,-1.2444 -0.717456,-0.6842 -1.537171,-1.5894 -1.821592,-2.0111 -0.600896,-0.8912 -0.729437,-0.8839 -3.107126,0.1792 -1.066279,0.4768 -1.516036,0.791 -1.434991,1.0022 0.06493,0.1693 0.182418,1.2313 0.261103,2.3605 0.111898,1.6057 0.06741,2.2332 -0.204186,2.8805 -0.442299,1.0542 -0.852917,1.1566 -4.067942,1.0148 l -2.5303924,-0.1116 -0.6768044,1.6258 c -0.372246,0.8941 -0.676808,1.7674 -0.676808,1.9405 0,0.1735 0.616929,0.8069 1.3709532,1.4081 1.6616536,1.3248 2.6395196,2.611 2.6395196,3.4712 0,0.7341 -1.173516,2.1227 -2.9176124,3.4527 -0.6010736,0.4585 -1.0928604,0.9702 -1.0928604,1.1374 0,0.1671 0.30844,1.0448 0.6854236,1.9504 l 0.6854214,1.6465 2.5301598,-0.1354 c 4.110716,-0.2206 4.520947,0.195 4.255089,4.3069 l -0.148196,2.2922 0.941258,0.4802 c 1.728325,0.883 3.082227,1.2888 3.082227,0.9252 z m 1.376739,-10.3158 c -2.436828,-1.2178 -3.606799,-3.1613 -3.602602,-5.9847 0.0027,-1.8712 0.665187,-3.3442 2.094155,-4.656 1.429133,-1.3122 2.360325,-1.6733 4.364986,-1.693 1.398416,-0.013 1.877547,0.085 2.936913,0.6049 2.342573,1.1504 3.602851,3.1866 3.614624,5.8396 0.02188,4.9323 -5.014266,8.0848 -9.408076,5.8892 z"
             id="path1006"
             inkscape:connector-curvature="0"
             sodipodi:nodetypes="ssssssssscsssscccsccccssccsssssccssscsscssccsssscsss" />
        </g>
        <path
           style="color:#000000;fill:url(#linearGradient3079);fill-opacity:1;fill-rule:nonzero;stroke:none;stroke-width:0.2;marker:none;visibility:visible;display:inline;overflow:visible;enable-background:accumulate"
           d="m 24,1019.0723 c -5.130691,0 -9.289937,4.1592 -9.289937,9.2899 0,5.1307 4.159246,9.2899 9.289937,9.2899 5.13069,0 9.289937,-4.1592 9.289937,-9.2899 0,-5.1307 -4.159247,-9.2899 -9.289937,-9.2899 z m 0,1.8935 c 4.084945,0 7.396446,3.3115 7.396446,7.3964 0,4.0849 -3.311501,7.3965 -7.396446,7.3965 -4.084945,0 -7.396447,-3.3116 -7.396447,-7.3965 0,-4.0849 3.311502,-7.3964 7.396447,-7.3964 z"
           id="path1008"
           inkscape:connector-curvature="0" />
        <path
           style="color:#000000;fill:#ffffff;fill-opacity:1;fill-rule:nonzero;stroke:none;stroke-width:0.2;marker:none;visibility:visible;display:inline;overflow:visible;enable-background:accumulate"
           d="m 24,1019.0723 c -5.130691,0 -9.289937,4.1592 -9.289937,9.2899 0,5.1307 4.159246,9.2899 9.289937,9.2899 5.13069,0 9.289937,-4.1592 9.289937,-9.2899 0,-5.1307 -4.159247,-9.2899 -9.289937,-9.2899 z m 0,0.3846 c 4.918273,0 8.905321,3.987 8.905321,8.9053 0,4.9183 -3.987048,8.9054 -8.905321,8.9054 -4.918273,0 -8.905322,-3.9871 -8.905322,-8.9054 0,-4.9183 3.987049,-8.9053 8.905322,-8.9053 z"
           id="path1010"
           inkscape:connector-curvature="0" />
        <path
           style="fill:#ffffff;fill-opacity:0.5372549"
           d="m 28.14201,1013.2143 -0.621302,0.7988 c -0.339975,0.439 -1.087408,1.2689 -1.68639,1.8639 -0.74593,0.7406 -1.099421,0.9981 -1.53846,1.0651 0.09726,0.016 0.185317,0.03 0.295857,0.03 0.617809,0 0.925829,-0.1927 1.834319,-1.0947 0.598982,-0.595 1.346415,-1.4249 1.68639,-1.8639 l 0.473373,-0.6213 -0.443787,-0.1779 z m -8.579878,0.1479 c -0.37392,0.022 -0.971923,0.2778 -2.071005,0.7692 -0.985771,0.4408 -1.406286,0.722 -1.331361,0.9172 0.06002,0.1565 0.163943,1.1455 0.236687,2.1894 0.10345,1.4844 0.07358,2.0643 -0.177515,2.6627 -0.294536,0.702 -0.590291,0.9429 -1.834319,0.9763 1.699823,0.019 2.093808,-0.1844 2.426035,-0.9763 0.251093,-0.5984 0.280964,-1.1783 0.177514,-2.6627 -0.07274,-1.0439 -0.176662,-2.0329 -0.236686,-2.1894 -0.07492,-0.1952 0.34559,-0.4764 1.33136,-0.9172 0.824313,-0.3685 1.37338,-0.6083 1.745562,-0.71 -0.08207,-0.032 -0.156972,-0.065 -0.266272,-0.059 z m -9.437866,7.3669 -0.6213014,1.5088 c -0.34414,0.8267 -0.6213015,1.6448 -0.6213015,1.8048 0,0.1604 0.5455105,0.7459 1.2426029,1.3018 1.536192,1.2248 2.45562,2.4001 2.45562,3.1952 0,0.6787 -1.079896,1.9657 -2.6923062,3.1953 -0.5556903,0.4238 -1.0059167,0.9105 -1.0059167,1.0651 0,0.1544 0.2727816,0.9379 0.6213015,1.7751 l 0.6213014,1.5385 0.591716,-0.03 -0.621302,-1.5089 c -0.3485196,-0.8372 -0.6213012,-1.6207 -0.6213012,-1.7751 0,-0.1546 0.4502265,-0.6413 1.0059172,-1.0651 1.61241,-1.2296 2.692306,-2.5166 2.692306,-3.1953 0,-0.7951 -0.919428,-1.9704 -2.45562,-3.1952 -0.697093,-0.5559 -1.2426032,-1.1414 -1.2426032,-1.3018 0,-0.16 0.2771614,-0.9781 0.6213012,-1.8048 l 0.621302,-1.4788 -0.591716,-0.03 z m 14.171592,1.7159 c 0.985231,0.014 1.47143,0.1372 2.337277,0.5622 2.165699,1.0635 3.33231,2.932 3.343194,5.3846 0.01517,3.4199 -2.599094,5.9176 -5.6213,6.0947 3.261747,0.1337 6.229161,-2.4556 6.213015,-6.0947 -0.01088,-2.4526 -1.177494,-4.3211 -3.343194,-5.3846 -0.97938,-0.4807 -1.429061,-0.5745 -2.721892,-0.5622 -0.07683,8e-4 -0.133579,0 -0.2071,0 z m -9.97041,13.4912 c -0.09577,4e-4 -0.223277,0.027 -0.325444,0.03 2.346924,0.044 2.603352,0.7939 2.396449,3.994 l -0.118344,2.1302 0.857988,0.4438 c 1.521018,0.777 2.727661,1.1431 2.840236,0.8876 -0.516296,-0.1208 -1.311327,-0.4088 -2.24852,-0.8876 l -0.857988,-0.4438 0.118343,-2.1302 c 0.215062,-3.3266 -0.04756,-4.0351 -2.66272,-4.024 z m 19.615376,0 c 0.386566,-7e-4 0.759184,0.032 1.301775,0.059 0.855219,0.043 1.403652,0.082 1.804733,0.059 -0.339125,-0.012 -0.679627,-0.032 -1.213018,-0.059 -0.813082,-0.041 -1.413317,-0.088 -1.89349,-0.059 z m -9.437866,3.9053 c -0.07389,0 -0.166015,0 -0.266272,0.03 0.747074,0.2172 1.804796,1.1351 2.840236,2.426 0.747978,0.9326 1.019871,1.2467 1.745561,1.0651 -0.355833,-0.099 -0.641139,-0.4259 -1.153846,-1.0651 -1.196234,-1.4918 -2.429872,-2.456 -3.165679,-2.456 z"
           id="path1012"
           inkscape:connector-curvature="0" />
      </g>
      <path
         style="fill:#000000;fill-opacity:0.5372549;stroke:none"
         d="m 23.914023,1011.2998 c -0.922121,0.041 -1.978581,0.4697 -2.830883,1.1678 -1.044292,0.8576 -1.892534,3.0313 -1.66523,4.2467 0.117285,0.6248 0.58902,1.387 1.040767,1.6251 0.841254,0.4402 2.374522,-0.2957 3.788397,-1.7921 1.527331,-1.6214 2.22873,-3.4041 1.706857,-4.4135 -0.32073,-0.6216 -1.117783,-0.8926 -2.039908,-0.834 z m -7.535149,0.9577 c -1.282842,0 -1.961568,0.9055 -1.956646,2.6265 0.0023,1.1771 0.417264,2.2364 0.957501,2.4972 0.401668,0.1945 0.411713,0.1744 0.915875,0 0.835102,-0.295 1.619674,-2.2398 1.457079,-3.5414 -0.133,-1.0636 -0.591235,-1.5827 -1.373809,-1.5823 z m -5.078953,1.7492 c -0.240036,0.023 -0.480785,0.1901 -0.707717,0.4151 -0.45742,0.4621 -0.463524,0.7098 -0.457941,1.582 0.0044,1.0315 0.258307,1.5973 0.957508,2.3356 0.523014,0.5474 0.900172,0.583 1.373813,0.055 0.513069,-0.5425 0.672378,-1.3957 0.499566,-2.3312 -0.26355,-1.4266 -0.945119,-2.1855 -1.665229,-2.0814 z m -3.580247,3.1217 c -0.249031,0.027 -0.473528,0.1847 -0.707692,0.4199 -0.614607,0.6115 -0.184746,2.3064 0.790957,3.1595 1.1645713,1.0252 2.1049563,0.058 1.7068653,-1.7062 -0.28329,-1.2753 -1.042962,-1.9944 -1.7901303,-1.8732 z m 10.699102,2.2502 c -0.8247,-0.01 -1.748896,0.036 -2.705998,0.2474 -2.465547,0.5029 -4.438381,1.4343 -5.703408,2.7072 -0.7285527,0.7365 -1.1454167,1.4134 -1.4987037,2.4542 -0.8551483,2.532 0.728571,6.1224 3.7467647,8.5808 1.124475,0.9134 1.810636,1.3223 2.955782,1.706 0.593802,0.1966 1.064623,0.2434 2.164795,0.2085 1.261191,-0.028 1.517689,-0.066 2.331313,-0.499 1.192357,-0.5914 2.543875,-1.9464 3.122311,-3.122 0.352874,-0.7177 0.409403,-1.0261 0.374674,-1.6259 -0.05954,-1.0265 -0.456486,-1.3004 -1.74849,-1.2924 -1.844438,0.011 -2.618743,0.4486 -2.997415,1.7497 -0.286004,0.9845 -0.602194,1.3344 -1.248914,1.3344 -1.024942,0 -2.081537,-0.8142 -2.081537,-1.6684 0,-0.5876 0.952928,-1.4701 3.330451,-3.078 3.349264,-2.2687 4.500769,-3.6442 4.329594,-5.1615 -0.176822,-1.5741 -1.897119,-2.4971 -4.371219,-2.541 z"
         id="path4116"
         inkscape:connector-curvature="0" />
      <path
         inkscape:connector-curvature="0"
         id="path4123"
         d="m 23.914023,1012.456 c -0.922121,0.041 -1.978581,0.4697 -2.830883,1.1678 -1.044292,0.8576 -1.892534,3.0313 -1.66523,4.2467 0.117285,0.6248 0.58902,1.387 1.040767,1.6251 0.841254,0.4402 2.374522,-0.2957 3.788397,-1.7921 1.527331,-1.6214 2.22873,-3.4041 1.706857,-4.4135 -0.32073,-0.6216 -1.117783,-0.8926 -2.039908,-0.834 z m -7.535149,0.9577 c -1.282842,0 -1.961568,0.9055 -1.956646,2.6265 0.0023,1.1771 0.417264,2.2364 0.957501,2.4972 0.401668,0.1945 0.411713,0.1744 0.915875,0 0.835102,-0.295 1.619674,-2.2398 1.457079,-3.5414 -0.133,-1.0636 -0.591235,-1.5827 -1.373809,-1.5823 z m -5.078953,1.7492 c -0.240036,0.023 -0.480785,0.1901 -0.707717,0.4151 -0.45742,0.4621 -0.463524,0.7098 -0.457941,1.582 0.0044,1.0315 0.258307,1.5973 0.957508,2.3356 0.523014,0.5474 0.900172,0.583 1.373813,0.055 0.513069,-0.5425 0.672378,-1.3957 0.499566,-2.3312 -0.26355,-1.4266 -0.945119,-2.1855 -1.665229,-2.0814 z m -3.580247,3.1217 c -0.249031,0.027 -0.473528,0.1847 -0.707692,0.4199 -0.614607,0.6115 -0.184746,2.3064 0.790957,3.1595 1.1645713,1.0252 2.1049563,0.058 1.7068653,-1.7062 -0.28329,-1.2753 -1.042962,-1.9944 -1.7901303,-1.8732 z m 10.699102,2.2502 c -0.8247,-0.01 -1.748896,0.036 -2.705998,0.2474 -2.465547,0.5029 -4.438381,1.4343 -5.703408,2.7072 -0.7285527,0.7365 -1.1454167,1.4134 -1.4987037,2.4542 -0.8551483,2.532 0.728571,6.1224 3.7467647,8.5808 1.124475,0.9134 1.810636,1.3223 2.955782,1.706 0.593802,0.1966 1.064623,0.2434 2.164795,0.2085 1.261191,-0.028 1.517689,-0.066 2.331313,-0.499 1.192357,-0.5914 2.543875,-1.9464 3.122311,-3.122 0.352874,-0.7177 0.409403,-1.0261 0.374674,-1.6259 -0.05954,-1.0265 -0.456486,-1.3004 -1.74849,-1.2924 -1.844438,0.011 -2.618743,0.4486 -2.997415,1.7497 -0.286004,0.9845 -0.602194,1.3344 -1.248914,1.3344 -1.024942,0 -2.081537,-0.8142 -2.081537,-1.6684 0,-0.5876 0.952928,-1.4701 3.330451,-3.078 3.349264,-2.2687 4.500769,-3.6442 4.329594,-5.1615 -0.176822,-1.5741 -1.897119,-2.4971 -4.371219,-2.541 z"
         style="fill:#000000;fill-opacity:0.5372549;stroke:none" />
      <path
         style="fill:url(#linearGradient3081);fill-opacity:1;stroke:none"
         d="m 23.914023,1011.831 c -0.922121,0.041 -1.978581,0.4697 -2.830883,1.1678 -1.044292,0.8576 -1.892534,3.0313 -1.66523,4.2467 0.117285,0.6248 0.58902,1.387 1.040767,1.6251 0.841254,0.4402 2.374522,-0.2957 3.788397,-1.7921 1.527331,-1.6214 2.22873,-3.4041 1.706857,-4.4135 -0.32073,-0.6216 -1.117783,-0.8926 -2.039908,-0.834 z m -7.535149,0.9577 c -1.282842,0 -1.961568,0.9055 -1.956646,2.6265 0.0023,1.1771 0.417264,2.2364 0.957501,2.4972 0.401668,0.1945 0.411713,0.1744 0.915875,0 0.835102,-0.295 1.619674,-2.2398 1.457079,-3.5414 -0.133,-1.0636 -0.591235,-1.5827 -1.373809,-1.5823 z m -5.078953,1.7492 c -0.240036,0.023 -0.480785,0.1901 -0.707717,0.4151 -0.45742,0.4621 -0.463524,0.7098 -0.457941,1.582 0.0044,1.0315 0.258307,1.5973 0.957508,2.3356 0.523014,0.5474 0.900172,0.583 1.373813,0.055 0.513069,-0.5425 0.672378,-1.3957 0.499566,-2.3312 -0.26355,-1.4266 -0.945119,-2.1855 -1.665229,-2.0814 z m -3.580247,3.1217 c -0.249031,0.027 -0.473528,0.1847 -0.707692,0.4199 -0.614607,0.6115 -0.184746,2.3064 0.790957,3.1595 1.1645713,1.0252 2.1049563,0.058 1.7068653,-1.7062 -0.28329,-1.2753 -1.042962,-1.9944 -1.7901303,-1.8732 z m 10.699102,2.2502 c -0.8247,-0.01 -1.748896,0.036 -2.705998,0.2474 -2.465547,0.5029 -4.438381,1.4343 -5.703408,2.7072 -0.7285527,0.7365 -1.1454167,1.4134 -1.4987037,2.4542 -0.8551483,2.532 0.728571,6.1224 3.7467647,8.5808 1.124475,0.9134 1.810636,1.3223 2.955782,1.706 0.593802,0.1966 1.064623,0.2434 2.164795,0.2085 1.261191,-0.028 1.517689,-0.066 2.331313,-0.499 1.192357,-0.5914 2.543875,-1.9464 3.122311,-3.122 0.352874,-0.7177 0.409403,-1.0261 0.374674,-1.6259 -0.05954,-1.0265 -0.456486,-1.3004 -1.74849,-1.2924 -1.844438,0.011 -2.618743,0.4486 -2.997415,1.7497 -0.286004,0.9845 -0.602194,1.3344 -1.248914,1.3344 -1.024942,0 -2.081537,-0.8142 -2.081537,-1.6684 0,-0.5876 0.952928,-1.4701 3.330451,-3.078 3.349264,-2.2687 4.500769,-3.6442 4.329594,-5.1615 -0.176822,-1.5741 -1.897119,-2.4971 -4.371219,-2.541 z"
         id="path4909"
         inkscape:connector-curvature="0" />
      <path
         id="path4118"
         transform="translate(0,1004.3622)"
         d="m 23.90625,7.46875 c -0.922121,0.041 -1.960198,0.45815 -2.8125,1.15625 -1.044292,0.8576 -1.914804,3.0346 -1.6875,4.25 0.117285,0.6248 0.610753,1.3869 1.0625,1.625 0.202225,0.105817 0.447821,0.149331 0.71875,0.125 -0.125197,-0.01908 -0.238593,-0.06997 -0.34375,-0.125 -0.451747,-0.2381 -0.913965,-1.0002 -1.03125,-1.625 -0.227304,-1.2154 0.611958,-3.3924 1.65625,-4.25 0.824974,-0.6757167 1.849444,-1.0926177 2.75,-1.15625 -0.105411,-0.00237 -0.202972,-0.00696 -0.3125,0 z M 16.375,8.4375 c -1.282842,0 -1.942422,0.904 -1.9375,2.625 0.0023,1.1771 0.397263,2.2392 0.9375,2.5 0.282501,0.136796 0.421787,0.117033 0.625,0.0625 -0.05845,-0.02252 -0.133464,-0.0212 -0.21875,-0.0625 -0.540237,-0.2608 -0.96645,-1.3229 -0.96875,-2.5 -0.0048,-1.6638872 0.64233,-2.5669907 1.84375,-2.625 -0.08768,-0.016233 -0.183428,-5e-5 -0.28125,0 z m -5.0625,1.71875 0,0.03125 c -0.240036,0.023 -0.491818,0.18125 -0.71875,0.40625 -0.45742,0.4621 -0.474333,0.72155 -0.46875,1.59375 0.0044,1.0315 0.269549,1.5742 0.96875,2.3125 0.352675,0.369118 0.643163,0.487191 0.9375,0.375 C 11.859284,14.81894 11.701379,14.710769 11.5,14.5 10.800799,13.7617 10.53565,13.219 10.53125,12.1875 10.525667,11.3153 10.54258,11.05585 11,10.59375 c 0.226932,-0.225 0.447464,-0.38325 0.6875,-0.40625 -0.129809,-0.03987 -0.239979,-0.05077 -0.375,-0.03125 z M 8,13.28125 C 7.9071681,13.270696 7.812146,13.29735 7.71875,13.3125 7.469719,13.3395 7.234164,13.48355 7,13.71875 6.385393,14.33025 6.836797,16.0219 7.8125,16.875 8.2229637,17.236341 8.6002757,17.33134 8.90625,17.25 8.6846192,17.203904 8.44225,17.099263 8.1875,16.875 7.211797,16.0219 6.791643,14.33025 7.40625,13.71875 7.640414,13.48355 7.875969,13.3395 8.125,13.3125 8.0851358,13.303249 8.0402272,13.285824 8,13.28125 z m 9.125,2.3125 c -0.453774,0.03668 -0.927699,0.0818 -1.40625,0.1875 C 13.253203,16.28415 11.265027,17.2271 10,18.5 c -0.7285527,0.7365 -1.146713,1.42795 -1.5,2.46875 -0.8551483,2.532 0.7318063,6.1041 3.75,8.5625 1.124475,0.9134 1.823604,1.33505 2.96875,1.71875 0.39104,0.129468 0.782019,0.168511 1.28125,0.1875 -0.329452,-0.03191 -0.578099,-0.0892 -0.875,-0.1875 -1.145146,-0.3837 -1.844275,-0.80535 -2.96875,-1.71875 -3.0181941,-2.4584 -4.6051483,-6.0305 -3.75,-8.5625 0.353287,-1.0408 0.7714469,-1.73225 1.5,-2.46875 1.265027,-1.2729 3.253203,-2.21585 5.71875,-2.71875 0.478551,-0.1057 0.921226,-0.150825 1.375,-0.1875 -0.129693,0.0063 -0.242267,-0.01073 -0.375,0 z m 4.34375,9.3125 c -1.844438,0.011 -2.621328,0.4489 -3,1.75 -0.263686,0.907675 -0.574621,1.260554 -1.125,1.3125 0.08551,0.01093 0.164294,0.03125 0.25,0.03125 0.64672,0 0.963996,-0.35925 1.25,-1.34375 0.362146,-1.244319 1.105403,-1.703075 2.78125,-1.75 -0.05772,-9.57e-4 -0.0945,-3.82e-4 -0.15625,0 z"
         style="fill:#ffffff;fill-opacity:0.5372549;stroke:none"
         inkscape:connector-curvature="0" />
      <path
         inkscape:connector-curvature="0"
         id="path4125"
         d="m 18.083106,1020.9097 c -0.721065,-0.012 -1.529125,0.031 -2.365952,0.2164 -2.15572,0.4396 -3.88064,1.254 -4.986701,2.3669 -0.637,0.644 -1.0014791,1.2358 -1.3103712,2.1458 -0.7476874,2.2139 0.6370162,5.353 3.2759342,7.5025 0.983169,0.7986 1.583105,1.1561 2.584349,1.4916 0.519183,0.1719 0.930838,0.2128 1.89276,0.1823 1.102705,-0.023 1.326971,-0.058 2.038353,-0.4363 1.04252,-0.517 2.224203,-1.7018 2.729949,-2.7297 0.308532,-0.6275 0.357958,-0.897 0.327593,-1.4215 -0.05206,-0.8976 -0.399122,-1.137 -1.528769,-1.13 -1.61266,0.012 -2.289664,0.3923 -2.620751,1.5299 -0.250063,0.8608 -0.52652,1.1666 -1.091971,1.1666 -0.896145,0 -1.819964,-0.7119 -1.819964,-1.4587 0,-0.5138 0.83318,-1.2853 2.911935,-2.6913 2.928385,-1.9836 3.935189,-3.1862 3.785524,-4.5129 -0.154603,-1.3763 -1.65872,-2.1832 -3.821918,-2.2216 z"
         style="fill:url(#linearGradient3083);fill-opacity:1;stroke:none" />
      <path
         id="path4139"
         transform="translate(0,1004.3622)"
         d="m 18.09375,16.5625 c -0.721065,-0.012 -1.538173,0.0021 -2.375,0.1875 -2.15572,0.4396 -3.893939,1.2621 -5,2.375 -0.637,0.644 -1.0036079,1.24625 -1.3125,2.15625 -0.7476874,2.2139 0.642332,5.3505 3.28125,7.5 0.983169,0.7986 1.592506,1.1645 2.59375,1.5 0.519183,0.1719 0.944328,0.18675 1.90625,0.15625 1.102705,-0.023 1.319868,-0.02795 2.03125,-0.40625 1.04252,-0.517 2.213004,-1.7221 2.71875,-2.75 0.308532,-0.6275 0.374115,-0.88175 0.34375,-1.40625 -0.03905,-0.6732 -0.267129,-0.987297 -0.84375,-1.09375 0.341678,0.143959 0.469906,0.450389 0.5,0.96875 0.02884,0.4986 -0.01949,0.74775 -0.3125,1.34375 -0.480309,0.9761 -1.603666,2.10265 -2.59375,2.59375 -0.6756,0.3566 -0.890255,0.38325 -1.9375,0.40625 -0.913539,0.0284 -1.288184,0.0066 -1.78125,-0.15625 C 14.361619,29.6188 13.777472,29.2587 12.84375,28.5 10.33757,26.4583 9.0399202,23.4776 9.75,21.375 c 0.293355,-0.8645 0.613795,-1.41945 1.21875,-2.03125 1.050426,-1.0569 2.702712,-1.8321 4.75,-2.25 0.794734,-0.1742 1.565202,-0.1995 2.25,-0.1875 2.054391,0.0363 3.478169,0.78675 3.625,2.09375 0.142135,1.2602 -0.812656,2.39715 -3.59375,4.28125 -1.854146,1.254099 -2.658256,1.98085 -2.75,2.46875 0.204345,-0.51042 1.082074,-1.256075 2.875,-2.46875 2.928385,-1.9836 3.930915,-3.1733 3.78125,-4.5 -0.154603,-1.3763 -1.649302,-2.18035 -3.8125,-2.21875 z"
         style="fill:#ffffff;fill-opacity:0.54117647;stroke:none"
         inkscape:connector-curvature="0" />
    </g>
  </g>
</svg>
