<?xml version="1.0" encoding="UTF-8" standalone="no"?>
<!-- Created with Inkscape (http://www.inkscape.org/) -->

<svg
   xmlns:dc="http://purl.org/dc/elements/1.1/"
   xmlns:cc="http://creativecommons.org/ns#"
   xmlns:rdf="http://www.w3.org/1999/02/22-rdf-syntax-ns#"
   xmlns:svg="http://www.w3.org/2000/svg"
   xmlns="http://www.w3.org/2000/svg"
   xmlns:xlink="http://www.w3.org/1999/xlink"
   xmlns:sodipodi="http://sodipodi.sourceforge.net/DTD/sodipodi-0.dtd"
   xmlns:inkscape="http://www.inkscape.org/namespaces/inkscape"
   width="48"
   height="48"
   id="svg2"
   version="1.1"
   inkscape:version="0.49 r12742"
   sodipodi:docname="ktnef.svg">
  <defs
     id="defs4">
    <linearGradient
       id="linearGradient4167">
      <stop
         id="stop4169"
         offset="0"
         style="stop-color:#afc2dc;stop-opacity:1" />
      <stop
         id="stop4171"
         offset="1"
         style="stop-color:#fefeff;stop-opacity:1" />
    </linearGradient>
    <linearGradient
       id="linearGradient4142">
      <stop
         id="stop4144"
         offset="0"
         style="stop-color:#0a79d6;stop-opacity:0.99803919" />
      <stop
         id="stop4146"
         offset="1"
         style="stop-color:#2995ed;stop-opacity:1" />
    </linearGradient>
    <linearGradient
       inkscape:collect="always"
       xlink:href="#linearGradient4142"
       id="linearGradient1997"
       x1="82.499847"
       y1="-1037.5035"
       x2="82.499847"
       y2="-989.51056"
       gradientUnits="userSpaceOnUse"
       gradientTransform="translate(-57.640627,-14.867202)" />
    <linearGradient
       inkscape:collect="always"
       id="linearGradient4169">
      <stop
         style="stop-color:#e2f4c4;stop-opacity:1"
         offset="0"
         id="stop4171-0" />
      <stop
         style="stop-color:#fdfff5;stop-opacity:1"
         offset="1"
         id="stop4173" />
    </linearGradient>
    <linearGradient
       inkscape:collect="always"
       xlink:href="#linearGradient4169"
       id="linearGradient4181"
       gradientUnits="userSpaceOnUse"
       x1="10.409504"
       y1="13.990603"
       x2="10.409504"
       y2="2.0118454"
       gradientTransform="matrix(2.5666667,0,0,2.5666667,5.740773,990.50509)" />
    <linearGradient
       inkscape:collect="always"
       xlink:href="#linearGradient4169"
       id="linearGradient4185"
       gradientUnits="userSpaceOnUse"
       x1="10.409504"
       y1="13.990603"
       x2="10.409504"
       y2="2.0118454"
       gradientTransform="matrix(2.5666667,0,0,2.5666667,5.740773,990.50509)" />
    <linearGradient
       inkscape:collect="always"
       xlink:href="#linearGradient4167"
       id="linearGradient4646"
       x1="-12.625"
       y1="1043.7372"
       x2="-12.625"
       y2="1012.9872"
       gradientUnits="userSpaceOnUse"
       gradientTransform="translate(45.625,-1.25e-5)" />
  </defs>
  <sodipodi:namedview
     id="base"
     pagecolor="#ffffff"
     bordercolor="#666666"
     borderopacity="1.0"
     inkscape:pageopacity="0.0"
     inkscape:pageshadow="2"
     inkscape:zoom="8"
     inkscape:cx="19.860018"
     inkscape:cy="27.028497"
     inkscape:document-units="px"
     inkscape:current-layer="layer1"
     showgrid="false"
     inkscape:window-width="1366"
     inkscape:window-height="718"
     inkscape:window-x="-2"
     inkscape:window-y="23"
     inkscape:window-maximized="1" />
  <metadata
     id="metadata7">
    <rdf:RDF>
      <cc:Work
         rdf:about="">
        <dc:format>image/svg+xml</dc:format>
        <dc:type
           rdf:resource="http://purl.org/dc/dcmitype/StillImage" />
        <dc:title></dc:title>
      </cc:Work>
    </rdf:RDF>
  </metadata>
  <g
     inkscape:label="Capa 1"
     inkscape:groupmode="layer"
     id="layer1"
     transform="translate(0,-1004.3622)">
    <rect
       style="fill:url(#linearGradient1997);fill-opacity:1.0;stroke:none"
       id="rect2991-1"
       width="48"
       height="48"
       x="-2.4999999e-06"
       y="-1052.3622"
       ry="1.9445436"
       transform="scale(1,-1)" />
    <path
       inkscape:connector-curvature="0"
       style="fill:#000000;fill-opacity:1;stroke:none"
       d="m -2.5e-6,1049.3622 0,1.0625 c 0,1.0773 0.860223,1.9375 1.9375,1.9375 l 44.1250055,0 c 1.07727,0 1.9375,-0.8602 1.9375,-1.9375 l 0,-1.0625 c 0,1.0773 -0.86023,1.9375 -1.9375,1.9375 l -44.1250055,0 C 0.8602205,1051.2997 -2.5e-6,1050.4395 -2.5e-6,1049.3622 Z"
       id="rect846" />
    <path
       inkscape:connector-curvature="0"
       style="fill:#ffffff;fill-opacity:0.5372549;stroke:none"
       d="m 2.5312475,1005.0185 c -0.917088,0 -1.671146,0.6395 -1.84375,1.5 0.335612,-0.2799 0.774513,-0.4375 1.25,-0.4375 l 44.1250055,0 c 0.47548,0 0.91438,0.1576 1.25,0.4375 -0.17261,-0.8605 -0.92667,-1.5 -1.84375,-1.5 L 2.5312475,1005.0185 Z"
       id="path7515" />
    <path
       inkscape:connector-curvature="0"
       style="fill:#000000;fill-opacity:0.39215686;stroke:none"
       d="m 1.9374975,1004.3622 c -1.077277,0 -1.9375,0.8602 -1.9375,1.9375 l 0,43.0625 c 0,0.7934 0.480024,1.449 1.15625,1.75 -0.309341,-0.3333 -0.5,-0.7824 -0.5,-1.2812 l 0,-42.9375 c 0,-1.0482 0.826899,-1.875 1.875,-1.875 l 42.9375055,0 c 1.0481,0 1.875,0.8268 1.875,1.875 l 0,42.9375 c 0,0.4988 -0.19066,0.9479 -0.5,1.2812 0.67622,-0.301 1.15625,-0.9566 1.15625,-1.75 l 0,-43.0625 c 0,-1.0773 -0.86023,-1.9375 -1.9375,-1.9375 L 1.9374975,1004.3622 Z"
       id="rect4280-8" />
    <path
       style="fill:#000000;fill-opacity:0.39215686;stroke:none"
       d="m 41.263291,1039.8622 -1.588973,0.1572 0,6.4955 1.571512,-0.227 0,-2.7763 2.095349,3.0732 1.641356,-0.5239 -2.147732,-2.9509 2.165194,-2.7938 -1.676279,-0.3842 -2.077888,2.7938 L 41.263291,1039.8622 z m -3.579554,1.5889 c -0.01781,0 -0.03901,0.01 -0.05239,0.018 l -0.611143,0.6286 c -0.02603,0.027 -0.03663,0.073 -0.01747,0.1048 l 0.715911,1.1874 c -0.128512,0.2161 -0.223223,0.4527 -0.296841,0.6983 l -1.327055,0.2795 c -0.03701,0.01 -0.06984,0.032 -0.06984,0.07 l 0,0.8731 c 0,0.037 0.03419,0.078 0.06984,0.087 l 1.292132,0.3143 c 0.06885,0.2847 0.173293,0.5553 0.314302,0.8031 l -0.750833,1.1352 c -0.02085,0.032 -0.0095,0.078 0.01747,0.1048 l 0.611144,0.611 c 0.02603,0.025 0.07303,0.038 0.104768,0.018 l 1.169902,-0.7158 c 0.230034,0.1327 0.471177,0.2434 0.733373,0.3142 l 0.279379,1.3096 c 0.0077,0.038 0.03211,0.07 0.06984,0.07 l 0.873063,0 c 0.0368,0 0.07852,-0.034 0.08731,-0.07 l 0.314303,-1.3096 c 0.270276,-0.073 0.532658,-0.1929 0.768295,-0.3317 l 1.152441,0.7683 c 0.03173,0.02 0.07783,0.01 0.104767,-0.018 l 0.611146,-0.6112 c 0.02618,-0.027 0.0367,-0.073 0.01747,-0.1047 l -0.419071,-0.6983 -0.139689,0.052 c -0.01989,0.01 -0.04069,0 -0.05239,-0.018 0,0 -0.2641,-0.4001 -0.611144,-0.9081 -0.414869,0.812 -1.26033,1.3621 -2.235039,1.3621 -1.38481,0 -2.514418,-1.1121 -2.514418,-2.497 0,-1.0187 0.611881,-1.8949 1.484205,-2.2874 l 0,-0.6461 c -0.158762,0.056 -0.308214,0.1126 -0.453992,0.1922 -1.11e-4,0 -0.01706,0 -0.01747,0 l -1.169903,-0.7684 C 37.720201,1041.4583 37.701538,1041.4492 37.683737,1041.4511 Z"
       id="path5692_2_"
       inkscape:connector-curvature="0" />
    <rect
       style="fill:url(#linearGradient4181);fill-opacity:1;fill-rule:nonzero;stroke:none;display:none"
       id="rect4898"
       width="56.466667"
       height="56.466667"
       x="5.7407603"
       y="990.50513" />
    <rect
       y="990.50513"
       x="5.7407603"
       height="56.466667"
       width="56.466667"
       id="rect4126"
       style="fill:url(#linearGradient4185);fill-opacity:1;fill-rule:nonzero;stroke:none;display:none" />
    <path
       inkscape:connector-curvature="0"
       id="path4673"
       d="m 11.14786,1030.1522 c -3.39716,3.3967 -3.39716,8.8657 0,12.2625 3.39716,3.3966 8.86696,3.3966 12.26412,0 l 1.26001,-1.2599 -2.68802,-2.6877 -1.26001,1.2599 c -1.908,1.9077 -4.98008,1.9077 -6.88807,0 -1.908,-1.9078 -1.908,-4.9795 0,-6.8871 l 13.44013,-13.4384 c 1.90799,-1.9078 4.98007,-1.9078 6.88807,0 1.90799,1.9077 1.90799,4.9794 0,6.8871 l -3.0995,3.0991 -2.30116,2.3009 -1.31941,1.3192 c -0.60497,0.6049 -1.57905,0.6049 -2.18402,0 -0.60497,-0.6049 -0.60497,-1.5788 0,-2.1837 l 3.62057,-3.6201 2.12496,-2.1247 -2.68803,-2.6876 -5.74553,5.7447 c -2.09414,2.0939 -2.09414,5.4652 0,7.5591 2.06555,2.0653 5.37297,2.0919 7.47247,0.083 3e-5,0 3.1e-4,0 3.3e-4,0 l 0.0873,-0.087 6.72007,-6.7192 c 3.39716,-3.3967 3.39716,-8.8658 0,-12.2625 -3.39716,-3.3967 -8.86696,-3.3967 -12.26412,0 l -13.44013,13.4384 z"
       style="fill:#000000;fill-opacity:0.05882353;stroke:none" />
    <path
       style="fill:#000000;fill-opacity:0.23529412;stroke:none"
       d="m 11.14786,1029.7522 c -3.39716,3.3967 -3.39716,8.8657 0,12.2625 3.39716,3.3966 8.86696,3.3966 12.26412,0 l 1.26001,-1.2599 -2.68802,-2.6877 -1.26001,1.2599 c -1.908,1.9077 -4.98008,1.9077 -6.88807,0 -1.908,-1.9078 -1.908,-4.9795 0,-6.8871 l 13.44013,-13.4384 c 1.90799,-1.9078 4.98007,-1.9078 6.88807,0 1.90799,1.9077 1.90799,4.9794 0,6.8871 l -3.0995,3.0991 -2.30116,2.3009 -1.31941,1.3192 c -0.60497,0.6049 -1.57905,0.6049 -2.18402,0 -0.60497,-0.6049 -0.60497,-1.5788 0,-2.1837 l 3.62057,-3.6201 2.12496,-2.1247 -2.68803,-2.6876 -5.74553,5.7447 c -2.09414,2.0939 -2.09414,5.4652 0,7.5591 2.06555,2.0653 5.37297,2.0919 7.47247,0.083 3e-5,0 3.1e-4,0 3.3e-4,0 l 0.0873,-0.087 6.72007,-6.7192 c 3.39716,-3.3967 3.39716,-8.8658 0,-12.2625 -3.39716,-3.3967 -8.86696,-3.3967 -12.26412,0 l -13.44013,13.4384 z"
       id="path4671"
       inkscape:connector-curvature="0" />
    <path
       inkscape:connector-curvature="0"
       id="path4667"
       d="m 11.14786,1029.3522 c -3.39716,3.3967 -3.39716,8.8657 0,12.2625 3.39716,3.3966 8.86696,3.3966 12.26412,0 l 1.26001,-1.2599 -2.68802,-2.6877 -1.26001,1.2599 c -1.908,1.9077 -4.98008,1.9077 -6.88807,0 -1.908,-1.9078 -1.908,-4.9795 0,-6.8871 l 13.44013,-13.4384 c 1.90799,-1.9078 4.98007,-1.9078 6.88807,0 1.90799,1.9077 1.90799,4.9794 0,6.8871 l -3.0995,3.0991 -2.30116,2.3009 -1.31941,1.3192 c -0.60497,0.6049 -1.57905,0.6049 -2.18402,0 -0.60497,-0.6049 -0.60497,-1.5788 0,-2.1837 l 3.62057,-3.6201 2.12496,-2.1247 -2.68803,-2.6876 -5.74553,5.7447 c -2.09414,2.0939 -2.09414,5.4652 0,7.5591 2.06555,2.0653 5.37297,2.0919 7.47247,0.083 3e-5,0 3.1e-4,0 3.3e-4,0 l 0.0873,-0.087 6.72007,-6.7192 c 3.39716,-3.3967 3.39716,-8.8658 0,-12.2625 -3.39716,-3.3967 -8.86696,-3.3967 -12.26412,0 l -13.44013,13.4384 z"
       style="fill:#000000;fill-opacity:0.23529412;stroke:none" />
    <path
       style="fill:url(#linearGradient4646);fill-opacity:1;stroke:none"
       d="m 11.14786,1028.9522 c -3.39716,3.3967 -3.39716,8.8657 0,12.2625 3.39716,3.3966 8.86696,3.3966 12.26412,0 l 1.26001,-1.2599 -2.68802,-2.6877 -1.26001,1.2599 c -1.908,1.9077 -4.98008,1.9077 -6.88807,0 -1.908,-1.9078 -1.908,-4.9795 0,-6.8871 l 13.44013,-13.4384 c 1.90799,-1.9078 4.98007,-1.9078 6.88807,0 1.90799,1.9077 1.90799,4.9794 0,6.8871 l -3.0995,3.0991 -2.30116,2.3009 -1.31941,1.3192 c -0.60497,0.6049 -1.57905,0.6049 -2.18402,0 -0.60497,-0.6049 -0.60497,-1.5788 0,-2.1837 l 3.62057,-3.6201 2.12496,-2.1247 -2.68803,-2.6876 -5.74553,5.7447 c -2.09414,2.0939 -2.09414,5.4652 0,7.5591 2.06555,2.0653 5.37297,2.0919 7.47247,0.083 3e-5,0 3.1e-4,0 3.3e-4,0 l 0.0873,-0.087 6.72007,-6.7192 c 3.39716,-3.3967 3.39716,-8.8658 0,-12.2625 -3.39716,-3.3967 -8.86696,-3.3967 -12.26412,0 l -13.44013,13.4384 z"
       id="rect4617"
       inkscape:connector-curvature="0" />
    <path
       style="fill:#0b7ad7;fill-opacity:0.3137255;stroke:none"
       d="M 30.720703 11.609375 C 29.475684 11.609375 28.229386 12.085163 27.275391 13.039062 L 13.835938 26.478516 C 12.779496 27.534735 12.329918 28.945499 12.443359 30.320312 C 12.535191 29.212812 12.984876 28.128227 13.835938 27.277344 L 27.275391 13.839844 C 29.183381 11.932044 32.256062 11.932044 34.164062 13.839844 C 35.015334 14.690985 35.464978 15.775016 35.556641 16.882812 C 35.670426 15.507657 35.220781 14.095621 34.164062 13.039062 C 33.210062 12.085163 31.965722 11.609375 30.720703 11.609375 z M 39.380859 16.878906 C 39.284623 18.959975 38.447731 21.013422 36.851562 22.609375 L 30.132812 29.330078 L 30.044922 29.416016 C 27.945422 31.424916 24.637816 31.399284 22.572266 29.333984 C 21.627517 28.38939 21.133338 27.183142 21.041016 25.953125 C 20.9281 27.450209 21.422377 28.983056 22.572266 30.132812 C 24.637816 32.198112 27.945422 32.225697 30.044922 30.216797 L 30.132812 30.128906 L 36.851562 23.410156 C 38.652554 21.609409 39.489445 19.226994 39.380859 16.878906 z M 30.605469 19.117188 L 28.880859 20.841797 L 25.259766 24.460938 C 24.853903 24.866753 24.726527 25.437989 24.865234 25.953125 C 24.933336 25.700655 25.060832 25.460629 25.259766 25.261719 L 28.880859 21.642578 L 31.005859 19.517578 L 30.605469 19.117188 z M 8.6191406 30.320312 C 8.5105548 32.668386 9.3474463 35.050762 11.148438 36.851562 C 14.545597 40.248163 20.014949 40.248163 23.412109 36.851562 L 24.671875 35.591797 L 24.273438 35.191406 L 23.412109 36.052734 C 20.014949 39.449234 14.545597 39.449234 11.148438 36.052734 C 9.5517703 34.456236 8.7149388 32.402015 8.6191406 30.320312 z "
       transform="translate(0,1004.3622)"
       id="path4675" />
    <path
       style="fill:#ffffff;fill-opacity:0.23529412;stroke:none"
       d="M 30.720703 8.5996094 C 28.503963 8.5996094 26.286471 9.4500875 24.587891 11.148438 L 11.148438 24.585938 L 11.148438 24.589844 C 9.3984027 26.339642 8.5563615 28.638784 8.609375 30.921875 C 8.6588028 28.772382 9.5008139 26.637635 11.148438 24.990234 L 11.148438 24.986328 L 24.587891 11.546875 C 27.985051 8.150175 33.454403 8.150175 36.851562 11.546875 C 38.499186 13.194275 39.341197 15.330963 39.390625 17.480469 C 39.443638 15.197366 38.601597 12.898235 36.851562 11.148438 C 35.152983 9.4500875 32.937443 8.5996094 30.720703 8.5996094 z M 28.318359 16.830078 L 22.572266 22.574219 C 21.473538 23.672821 20.967278 25.121796 21.021484 26.554688 C 21.070146 25.255871 21.576357 23.970404 22.572266 22.974609 L 28.318359 17.230469 L 30.804688 19.71875 L 31.005859 19.517578 L 28.318359 16.830078 z M 35.576172 17.484375 C 35.527354 18.661074 35.066447 19.824315 34.164062 20.726562 L 31.064453 23.826172 L 28.763672 26.126953 L 27.443359 27.445312 C 26.838389 28.050213 25.864736 28.050213 25.259766 27.445312 C 25.008884 27.19446 24.868972 26.879826 24.826172 26.554688 C 24.76643 27.012996 24.906174 27.492152 25.259766 27.845703 C 25.864736 28.450603 26.838389 28.450603 27.443359 27.845703 L 28.763672 26.527344 L 31.064453 24.224609 L 34.164062 21.126953 C 35.169171 20.121997 35.630024 18.795042 35.576172 17.484375 z M 12.423828 30.921875 C 12.369976 32.232539 12.830824 33.559444 13.835938 34.564453 C 15.743927 36.472153 18.816609 36.472153 20.724609 34.564453 L 21.984375 33.304688 L 24.472656 35.792969 L 24.671875 35.591797 L 21.984375 32.904297 L 20.724609 34.164062 C 18.816609 36.071762 15.743927 36.071762 13.835938 34.164062 C 12.933548 33.261768 12.472646 32.098577 12.423828 30.921875 z "
       transform="translate(0,1004.3622)"
       id="path4680" />
  </g>
</svg>
