<?xml version="1.0" encoding="UTF-8" standalone="no"?>
<!-- Created with Inkscape (http://www.inkscape.org/) -->

<svg
   xmlns:dc="http://purl.org/dc/elements/1.1/"
   xmlns:cc="http://creativecommons.org/ns#"
   xmlns:rdf="http://www.w3.org/1999/02/22-rdf-syntax-ns#"
   xmlns:svg="http://www.w3.org/2000/svg"
   xmlns="http://www.w3.org/2000/svg"
   xmlns:xlink="http://www.w3.org/1999/xlink"
   xmlns:sodipodi="http://sodipodi.sourceforge.net/DTD/sodipodi-0.dtd"
   xmlns:inkscape="http://www.inkscape.org/namespaces/inkscape"
   width="48"
   height="48"
   id="svg5453"
   version="1.1"
   inkscape:version="0.49 r12742"
   sodipodi:docname="kuaipan4uk.svg">
  <defs
     id="defs5455">
    <linearGradient
       id="linearGradient4181">
      <stop
         style="stop-color:#d5ffb9;stop-opacity:1"
         offset="0"
         id="stop4183" />
      <stop
         style="stop-color:#fcfff5;stop-opacity:1"
         offset="1"
         id="stop4185" />
    </linearGradient>
    <linearGradient
       gradientTransform="translate(384.57143,504.56416)"
       inkscape:collect="always"
       xlink:href="#linearGradient855"
       id="linearGradient864"
       x1="26.25"
       y1="-1052.3622"
       x2="26.25"
       y2="-1004.3622"
       gradientUnits="userSpaceOnUse" />
    <linearGradient
       id="linearGradient855">
      <stop
         id="stop857"
         offset="0"
         style="stop-color:#45ac00;stop-opacity:1" />
      <stop
         id="stop859"
         offset="1"
         style="stop-color:#91d400;stop-opacity:1" />
    </linearGradient>
    <linearGradient
       inkscape:collect="always"
       xlink:href="#linearGradient4181"
       id="linearGradient4168"
       gradientUnits="userSpaceOnUse"
       x1="-20.908819"
       y1="4.4148378"
       x2="-18.380444"
       y2="1.8958093"
       gradientTransform="matrix(6.1044672,-6.1272827,6.1271175,6.1046318,513.57274,384.1348)" />
  </defs>
  <sodipodi:namedview
     id="base"
     pagecolor="#ffffff"
     bordercolor="#666666"
     borderopacity="1.0"
     inkscape:pageopacity="0"
     inkscape:pageshadow="2"
     inkscape:zoom="8.6352893"
     inkscape:cx="12.848912"
     inkscape:cy="29.71599"
     inkscape:document-units="px"
     inkscape:current-layer="layer1"
     showgrid="false"
     fit-margin-top="0"
     fit-margin-left="0"
     fit-margin-right="0"
     fit-margin-bottom="0"
     inkscape:window-width="1366"
     inkscape:window-height="718"
     inkscape:window-x="-2"
     inkscape:window-y="23"
     inkscape:window-maximized="1"
     inkscape:showpageshadow="false"
     borderlayer="true" />
  <metadata
     id="metadata5458">
    <rdf:RDF>
      <cc:Work
         rdf:about="">
        <dc:format>image/svg+xml</dc:format>
        <dc:type
           rdf:resource="http://purl.org/dc/dcmitype/StillImage" />
        <dc:title />
      </cc:Work>
    </rdf:RDF>
  </metadata>
  <g
     inkscape:label="Capa 1"
     inkscape:groupmode="layer"
     id="layer1"
     transform="translate(-384.57143,-499.798)">
    <rect
       style="fill:url(#linearGradient864);fill-opacity:1;stroke:none"
       id="rect2991-1"
       width="48"
       height="48"
       x="384.57144"
       y="-547.79797"
       ry="1.9445436"
       transform="scale(1,-1)" />
    <path
       id="path4193"
       d="m 408.48549,509.59868 c -0.39045,-0.009 -0.77718,0.13154 -1.06836,0.42381 l -4.95898,4.9803 c -0.58236,0.58453 -0.55775,1.54795 0.0566,2.16008 l 8.22852,8.19893 c 0.61439,0.61214 1.57779,0.63337 2.16015,0.0488 l 4.96094,-4.97835 c 0.58236,-0.58453 0.5558,-1.54794 -0.0586,-2.16007 l -8.22852,-8.19894 c -0.3072,-0.30607 -0.70134,-0.46559 -1.0918,-0.47459 z m -9.26953,8.92352 c -0.25304,0.008 -0.5078,0.1149 -0.70508,0.31639 l -5.28711,5.39825 c -0.39455,0.40299 -0.40446,1.03218 -0.0234,1.41011 l 3.24414,3.21864 c 0.38102,0.37793 1.00583,0.35806 1.40039,-0.0449 l 5.28711,-5.4002 c 0.39455,-0.40299 0.40446,-1.03219 0.0234,-1.41011 l -3.24414,-3.21669 c -0.19051,-0.18896 -0.44226,-0.27965 -0.69531,-0.27147 z m 21.44922,3.03309 c -0.27182,-0.0167 -0.53688,0.0723 -0.72852,0.26757 l -7.56835,7.71263 c -0.38328,0.39055 -0.33074,1.06199 0.11914,1.50385 l 2.40429,2.36124 c 0.44988,0.44187 1.12064,0.48236 1.50391,0.0918 l 7.57031,-7.71457 c 0.38327,-0.39057 0.32878,-1.06005 -0.12109,-1.50191 l -2.4043,-2.36124 c -0.22494,-0.22093 -0.50357,-0.34263 -0.77539,-0.35937 z m -15.58789,5.3299 c -0.32717,-0.008 -0.65059,0.10826 -0.89453,0.35155 l -4.1543,4.14243 c -0.48788,0.48657 -0.46605,1.28907 0.0488,1.79877 l 6.89453,6.82593 c 0.51488,0.5097 1.32071,0.52758 1.80859,0.041 l 4.1543,-4.14243 c 0.48789,-0.48657 0.46606,-1.28908 -0.0488,-1.79877 l -6.89257,-6.82399 c -0.25745,-0.25485 -0.58885,-0.38696 -0.91602,-0.39451 z"
       style="color:#000000;fill:#000000;fill-opacity:0.05882353;fill-rule:nonzero;stroke:none;enable-background:accumulate"
       inkscape:connector-curvature="0" />
    <path
       inkscape:connector-curvature="0"
       style="color:#000000;fill:#000000;fill-opacity:0.11764706;fill-rule:nonzero;stroke:none;enable-background:accumulate"
       d="m 408.48549,509.19869 c -0.39045,-0.009 -0.77718,0.13155 -1.06836,0.42382 l -4.95898,4.98029 c -0.58236,0.58453 -0.55775,1.54795 0.0566,2.16008 l 8.22852,8.19893 c 0.61439,0.61214 1.57779,0.63337 2.16015,0.0488 l 4.96094,-4.97834 c 0.58236,-0.58453 0.5558,-1.54795 -0.0586,-2.16008 l -8.22852,-8.19894 c -0.3072,-0.30606 -0.70134,-0.46559 -1.0918,-0.47459 z m -9.26953,8.92352 c -0.25304,0.008 -0.5078,0.11491 -0.70508,0.31639 l -5.28711,5.39825 c -0.39455,0.40299 -0.40446,1.03219 -0.0234,1.41011 l 3.24414,3.21864 c 0.38102,0.37793 1.00583,0.35806 1.40039,-0.0449 l 5.28711,-5.4002 c 0.39455,-0.40298 0.40446,-1.03218 0.0234,-1.41011 l -3.24414,-3.21669 c -0.19051,-0.18896 -0.44226,-0.27965 -0.69531,-0.27147 z m 21.44922,3.0331 c -0.27182,-0.0167 -0.53688,0.0723 -0.72852,0.26757 l -7.56835,7.71262 c -0.38328,0.39056 -0.33074,1.06199 0.11914,1.50386 l 2.40429,2.36124 c 0.44988,0.44186 1.12064,0.48235 1.50391,0.0918 l 7.57031,-7.71457 c 0.38327,-0.39057 0.32878,-1.06004 -0.12109,-1.50191 l -2.4043,-2.36124 c -0.22494,-0.22093 -0.50357,-0.34262 -0.77539,-0.35936 z m -15.58789,5.32989 c -0.32717,-0.008 -0.65059,0.10827 -0.89453,0.35155 l -4.1543,4.14244 c -0.48788,0.48656 -0.46605,1.28906 0.0488,1.79876 l 6.89453,6.82594 c 0.51488,0.50969 1.32071,0.52757 1.80859,0.041 l 4.1543,-4.14244 c 0.48789,-0.48656 0.46606,-1.28908 -0.0488,-1.79877 l -6.89257,-6.82398 c -0.25745,-0.25485 -0.58885,-0.38697 -0.91602,-0.39452 z"
       id="path4191" />
    <path
       id="path4187"
       d="m 408.48549,508.7987 c -0.39045,-0.009 -0.77718,0.13155 -1.06836,0.42382 l -4.95898,4.9803 c -0.58236,0.58453 -0.55775,1.54794 0.0566,2.16007 l 8.22852,8.19894 c 0.61439,0.61214 1.57779,0.63337 2.16015,0.0488 l 4.96094,-4.97835 c 0.58236,-0.58453 0.5558,-1.54795 -0.0586,-2.16008 l -8.22852,-8.19893 c -0.3072,-0.30607 -0.70134,-0.4656 -1.0918,-0.4746 z m -9.26953,8.92353 c -0.25304,0.008 -0.5078,0.1149 -0.70508,0.31638 l -5.28711,5.39826 c -0.39455,0.40298 -0.40446,1.03218 -0.0234,1.41011 l 3.24414,3.21864 c 0.38102,0.37792 1.00583,0.35805 1.40039,-0.0449 l 5.28711,-5.4002 c 0.39455,-0.40299 0.40446,-1.03219 0.0234,-1.41012 l -3.24414,-3.21668 c -0.19051,-0.18897 -0.44226,-0.27965 -0.69531,-0.27147 z m 21.44922,3.03309 c -0.27182,-0.0167 -0.53688,0.0723 -0.72852,0.26757 l -7.56835,7.71262 c -0.38328,0.39056 -0.33074,1.062 0.11914,1.50386 l 2.40429,2.36124 c 0.44988,0.44186 1.12064,0.48235 1.50391,0.0918 l 7.57031,-7.71458 c 0.38327,-0.39056 0.32878,-1.06004 -0.12109,-1.5019 l -2.4043,-2.36124 c -0.22494,-0.22093 -0.50357,-0.34263 -0.77539,-0.35937 z m -15.58789,5.3299 c -0.32717,-0.008 -0.65059,0.10826 -0.89453,0.35154 l -4.1543,4.14244 c -0.48788,0.48656 -0.46605,1.28907 0.0488,1.79877 l 6.89453,6.82593 c 0.51488,0.50969 1.32071,0.52757 1.80859,0.041 l 4.1543,-4.14244 c 0.48789,-0.48656 0.46606,-1.28907 -0.0488,-1.79876 l -6.89257,-6.82399 c -0.25745,-0.25485 -0.58885,-0.38696 -0.91602,-0.39451 z"
       style="color:#000000;fill:#000000;fill-opacity:0.23529412;fill-rule:nonzero;stroke:none;enable-background:accumulate"
       inkscape:connector-curvature="0" />
    <path
       inkscape:connector-curvature="0"
       style="fill:#000000;fill-opacity:1;stroke:none"
       d="m 384.57143,544.79799 0,1.0625 c 0,1.0773 0.86022,1.9375 1.9375,1.9375 l 44.125,0 c 1.07728,0 1.9375,-0.8602 1.9375,-1.9375 l 0,-1.0625 c 0,1.0773 -0.86022,1.9375 -1.9375,1.9375 l -44.125,0 C 385.43165,546.73549 384.57143,545.87529 384.57143,544.79799 Z"
       id="rect846" />
    <path
       inkscape:connector-curvature="0"
       style="fill:#ffffff;fill-opacity:0.5372549;stroke:none"
       d="m 387.10268,500.45429 c -0.91709,0 -1.67115,0.6395 -1.84375,1.5 0.33561,-0.2799 0.77451,-0.4375 1.25,-0.4375 l 44.125,0 c 0.47549,0 0.91439,0.1576 1.25,0.4375 -0.1726,-0.8605 -0.92666,-1.5 -1.84375,-1.5 L 387.10268,500.45429 Z"
       id="path7515" />
    <path
       inkscape:connector-curvature="0"
       style="fill:#000000;fill-opacity:0.39215686;stroke:none"
       d="m 386.50893,499.79799 c -1.07728,0 -1.9375,0.8602 -1.9375,1.9375 l 0,43.0625 c 0,0.7934 0.48002,1.449 1.15625,1.75 -0.30934,-0.3333 -0.5,-0.7824 -0.5,-1.2812 l 0,-42.9375 c 0,-1.0482 0.8269,-1.875 1.875,-1.875 l 42.9375,0 c 1.0481,0 1.875,0.8268 1.875,1.875 l 0,42.9375 c 0,0.4988 -0.19066,0.9479 -0.5,1.2812 0.67623,-0.301 1.15625,-0.9566 1.15625,-1.75 l 0,-43.0625 c 0,-1.0773 -0.86022,-1.9375 -1.9375,-1.9375 L 386.50893,499.79799 Z"
       id="rect4280" />
    <path
       style="color:#000000;fill:url(#linearGradient4168);fill-opacity:1;fill-rule:nonzero;stroke:none;enable-background:accumulate"
       d="m 408.48549,508.39871 c -0.39045,-0.009 -0.77718,0.13154 -1.06836,0.42381 l -4.95898,4.98029 c -0.58236,0.58454 -0.55775,1.54795 0.0566,2.16008 l 8.22852,8.19893 c 0.61439,0.61213 1.57779,0.63336 2.16015,0.0488 l 4.96094,-4.97833 c 0.58236,-0.58454 0.5558,-1.54795 -0.0586,-2.16008 l -8.22852,-8.19893 c -0.3072,-0.30607 -0.70134,-0.46559 -1.0918,-0.47459 z m -9.26953,8.92351 c -0.25304,0.008 -0.5078,0.1149 -0.70508,0.31639 l -5.28711,5.39825 c -0.39455,0.40298 -0.40446,1.03218 -0.0234,1.4101 l 3.24414,3.21864 c 0.38102,0.37792 1.00583,0.35806 1.40039,-0.0449 l 5.28711,-5.4002 c 0.39455,-0.40298 0.40446,-1.03218 0.0234,-1.4101 l -3.24414,-3.21669 c -0.19051,-0.18896 -0.44226,-0.27965 -0.69531,-0.27147 z m 21.44922,3.03309 c -0.27182,-0.0167 -0.53688,0.0723 -0.72852,0.26757 l -7.56835,7.71262 c -0.38328,0.39056 -0.33074,1.06199 0.11914,1.50385 l 2.40429,2.36124 c 0.44988,0.44187 1.12064,0.48236 1.50391,0.0918 l 7.57031,-7.71457 c 0.38327,-0.39056 0.32878,-1.06004 -0.12109,-1.5019 l -2.4043,-2.36124 c -0.22494,-0.22094 -0.50357,-0.34263 -0.77539,-0.35937 z m -15.58789,5.32989 c -0.32717,-0.008 -0.65059,0.10827 -0.89453,0.35155 l -4.1543,4.14243 c -0.48788,0.48656 -0.46605,1.28907 0.0488,1.79877 l 6.89453,6.82592 c 0.51488,0.5097 1.32071,0.52758 1.80859,0.041 l 4.1543,-4.14243 c 0.48789,-0.48656 0.46606,-1.28907 -0.0488,-1.79877 l -6.89257,-6.82397 c -0.25745,-0.25485 -0.58885,-0.38697 -0.91602,-0.39452 z"
       id="rect4082"
       inkscape:connector-curvature="0" />
    <path
       style="color:#000000;fill:#47ad00;fill-opacity:0.3137255;fill-rule:nonzero;stroke:none;enable-background:accumulate"
       d="M 17.525391 14.640625 C 17.383839 15.156724 17.520471 15.742711 17.943359 16.164062 L 26.171875 24.363281 C 26.786266 24.975439 27.749672 24.996666 28.332031 24.412109 L 33.292969 19.433594 C 33.675404 19.049716 33.789136 18.503883 33.652344 18 C 33.588278 18.232581 33.473707 18.451394 33.292969 18.632812 L 28.332031 23.611328 C 27.749671 24.195918 26.786265 24.17466 26.171875 23.5625 L 17.943359 15.363281 C 17.733054 15.153726 17.596788 14.903219 17.525391 14.640625 z M 18.775391 21.300781 C 18.725132 21.41621 18.654689 21.524938 18.560547 21.621094 L 13.273438 27.021484 C 12.878877 27.424454 12.254067 27.444346 11.873047 27.066406 L 8.6289062 23.847656 C 8.5440628 23.763507 8.4856029 23.664339 8.4394531 23.560547 C 8.2785772 23.929079 8.3385594 24.360442 8.6289062 24.648438 L 11.873047 27.867188 C 12.254072 28.245126 12.87888 28.225261 13.273438 27.822266 L 18.560547 22.421875 C 18.866564 22.109313 18.935078 21.66273 18.775391 21.300781 z M 39.554688 23.714844 C 39.512884 23.808988 39.469635 23.90198 39.394531 23.978516 L 31.824219 31.693359 C 31.440949 32.083929 30.770193 32.043442 30.320312 31.601562 L 27.916016 29.240234 C 27.783444 29.11002 27.697344 28.959759 27.634766 28.802734 C 27.463069 29.189453 27.55446 29.685885 27.916016 30.041016 L 30.320312 32.402344 C 30.770187 32.844224 31.440947 32.884714 31.824219 32.494141 L 39.394531 24.779297 C 39.664881 24.503797 39.705082 24.090126 39.554688 23.714844 z M 15.181641 30.814453 C 15.016201 31.265535 15.125 31.802652 15.505859 32.179688 L 22.400391 39.005859 C 22.915274 39.515573 23.721099 39.533453 24.208984 39.046875 L 28.363281 34.904297 C 28.694451 34.574014 28.771994 34.100963 28.638672 33.669922 C 28.580453 33.828658 28.490279 33.976859 28.363281 34.103516 L 24.208984 38.246094 C 23.721104 38.732684 22.915271 38.714788 22.400391 38.205078 L 15.505859 31.378906 C 15.340482 31.215177 15.244726 31.01843 15.181641 30.814453 z "
       transform="translate(384.57143,499.798)"
       id="path4195" />
    <path
       style="color:#000000;fill:#ffffff;fill-opacity:0.23529412;fill-rule:nonzero;stroke:none;enable-background:accumulate"
       d="M 23.914062 8.6015625 C 23.523613 8.5925625 23.136883 8.7331206 22.845703 9.0253906 L 17.886719 14.003906 C 17.55962 14.33223 17.43155 14.780755 17.484375 15.21875 C 17.527845 14.918764 17.659547 14.63232 17.886719 14.404297 L 22.845703 9.4238281 C 23.136883 9.1315581 23.523613 8.991 23.914062 9 C 24.304522 9.009 24.698659 9.1685394 25.005859 9.4746094 L 33.234375 17.673828 C 33.502889 17.94135 33.651159 18.276425 33.693359 18.617188 C 33.759359 18.149242 33.608084 17.645766 33.234375 17.273438 L 25.005859 9.0761719 C 24.698659 8.7701019 24.304522 8.6105625 23.914062 8.6015625 z M 14.644531 17.523438 C 14.391491 17.531438 14.136733 17.638354 13.939453 17.839844 L 8.6523438 23.238281 C 8.3982245 23.49783 8.3219788 23.848313 8.3886719 24.167969 C 8.4277668 23.9774 8.5036525 23.79054 8.6523438 23.638672 L 13.939453 18.240234 C 14.136733 18.038744 14.391491 17.931828 14.644531 17.923828 C 14.897581 17.915648 15.149334 18.006353 15.339844 18.195312 L 18.583984 21.412109 C 18.719614 21.546621 18.787363 21.715931 18.824219 21.892578 C 18.888135 21.578033 18.820964 21.246745 18.583984 21.011719 L 15.339844 17.794922 C 15.149334 17.605962 14.897581 17.515258 14.644531 17.523438 z M 36.09375 20.556641 C 35.82193 20.539941 35.556874 20.628949 35.365234 20.824219 L 27.796875 28.537109 C 27.577183 28.760974 27.516736 29.076375 27.576172 29.388672 C 27.610525 29.221806 27.673521 29.063197 27.796875 28.9375 L 35.365234 21.224609 C 35.556874 21.029339 35.82193 20.940331 36.09375 20.957031 C 36.36557 20.973771 36.644201 21.095466 36.869141 21.316406 L 39.273438 23.677734 C 39.465202 23.866084 39.568483 24.09629 39.613281 24.328125 C 39.684285 23.977516 39.577991 23.576475 39.273438 23.277344 L 36.869141 20.916016 C 36.644201 20.695076 36.36557 20.573381 36.09375 20.556641 z M 20.505859 25.886719 C 20.178689 25.878719 19.855268 25.995001 19.611328 26.238281 L 15.457031 30.380859 C 15.169425 30.667687 15.081296 31.061649 15.144531 31.443359 C 15.183619 31.200578 15.271605 30.966175 15.457031 30.78125 L 19.611328 26.638672 C 19.855268 26.395392 20.178689 26.279109 20.505859 26.287109 C 20.833029 26.294659 21.164425 26.426791 21.421875 26.681641 L 28.314453 33.505859 C 28.525803 33.715091 28.631747 33.976384 28.675781 34.242188 C 28.739539 33.846181 28.633632 33.421449 28.314453 33.105469 L 21.421875 26.28125 C 21.164425 26.0264 20.833029 25.894269 20.505859 25.886719 z "
       transform="translate(384.57143,499.798)"
       id="path4200" />
  </g>
</svg>
