<?xml version="1.0" encoding="UTF-8" standalone="no"?>
<!-- Created with Inkscape (http://www.inkscape.org/) -->

<svg
   xmlns:dc="http://purl.org/dc/elements/1.1/"
   xmlns:cc="http://creativecommons.org/ns#"
   xmlns:rdf="http://www.w3.org/1999/02/22-rdf-syntax-ns#"
   xmlns:svg="http://www.w3.org/2000/svg"
   xmlns="http://www.w3.org/2000/svg"
   xmlns:xlink="http://www.w3.org/1999/xlink"
   xmlns:sodipodi="http://sodipodi.sourceforge.net/DTD/sodipodi-0.dtd"
   xmlns:inkscape="http://www.inkscape.org/namespaces/inkscape"
   width="48"
   height="48"
   id="svg2"
   version="1.1"
   inkscape:version="0.49 r12742"
   sodipodi:docname="lastpass.svg">
  <defs
     id="defs4">
    <linearGradient
       id="linearGradient4130">
      <stop
         offset="0"
         style="stop-color:#ffb9b9;stop-opacity:1"
         id="stop4132" />
      <stop
         offset="1"
         style="stop-color:#fff6f5;stop-opacity:1"
         id="stop4134" />
    </linearGradient>
    <linearGradient
       id="linearGradient10016">
      <stop
         id="stop10018"
         style="stop-color:#be0000;stop-opacity:1"
         offset="0" />
      <stop
         id="stop10020"
         style="stop-color:#fa4a31;stop-opacity:1"
         offset="1" />
    </linearGradient>
    <linearGradient
       y2="-1004.3615"
       x2="23.102119"
       y1="-1052.3683"
       x1="23.102119"
       gradientTransform="translate(1.1564465e-5,3.425e-6)"
       gradientUnits="userSpaceOnUse"
       id="linearGradient859"
       xlink:href="#linearGradient10016"
       inkscape:collect="always" />
    <linearGradient
       inkscape:collect="always"
       xlink:href="#linearGradient4130"
       id="linearGradient4128"
       x1="25.5"
       y1="1043.7528"
       x2="25.5"
       y2="1012.9637"
       gradientUnits="userSpaceOnUse" />
  </defs>
  <sodipodi:namedview
     id="base"
     pagecolor="#ffffff"
     bordercolor="#666666"
     borderopacity="1.0"
     inkscape:pageopacity="0.0"
     inkscape:pageshadow="2"
     inkscape:zoom="8"
     inkscape:cx="25.00405"
     inkscape:cy="15.775601"
     inkscape:document-units="px"
     inkscape:current-layer="layer1"
     showgrid="false"
     inkscape:window-width="1366"
     inkscape:window-height="718"
     inkscape:window-x="0"
     inkscape:window-y="23"
     inkscape:window-maximized="1"
     showguides="false"
     inkscape:showpageshadow="false"
     borderlayer="true" />
  <metadata
     id="metadata7">
    <rdf:RDF>
      <cc:Work
         rdf:about="">
        <dc:format>image/svg+xml</dc:format>
        <dc:type
           rdf:resource="http://purl.org/dc/dcmitype/StillImage" />
        <dc:title></dc:title>
      </cc:Work>
    </rdf:RDF>
  </metadata>
  <g
     inkscape:label="Capa 1"
     inkscape:groupmode="layer"
     id="layer1"
     transform="translate(0,-1004.3622)">
    <rect
       style="fill:url(#linearGradient859);fill-opacity:1;stroke:none"
       id="rect2991-1-7"
       width="48"
       height="48"
       x="0"
       y="-1052.3622"
       ry="1.9445436"
       transform="scale(1,-1)" />
    <path
       inkscape:connector-curvature="0"
       id="path4110"
       d="m 19.254126,1014.1622 c -0.137764,0 -5.552403,3.2118 -5.76223,3.4193 -0.112135,0.1112 -0.08778,0.1963 0.171317,0.6229 2.860361,4.7103 4.765176,7.9627 4.700012,8.0206 -0.04494,0.04 -1.768642,0.02 -3.829109,-0.044 -2.060469,-0.064 -4.22297,-0.1218 -4.8056657,-0.1257 l -1.0593559,0 -0.051388,3.4398 c -0.031669,2.021 -0.020107,3.4736 0.028671,3.5246 0.078194,0.083 6.0902516,-0.053 8.5605346,-0.193 0.85163,-0.048 1.034045,-0.034 1.076492,0.078 0.0291,0.078 -0.356972,0.818 -0.896601,1.72 -0.521372,0.8713 -1.636933,2.7356 -2.478502,4.1418 -0.841562,1.4064 -1.510614,2.6069 -1.487666,2.6676 0.05915,0.157 5.548645,3.3752 5.767934,3.3816 0.168965,0 1.420301,-2.2667 4.277413,-7.7633 0.214072,-0.4118 0.4496,-0.7487 0.522539,-0.7487 0.08111,0 0.922806,1.5096 2.167261,3.8845 2.572298,4.9089 2.501186,4.7736 2.549885,4.7736 0.02269,0 0.626469,-0.3528 1.342046,-0.7808 0.715578,-0.4283 2.029056,-1.21 2.921089,-1.7405 0.892031,-0.5305 1.621876,-1.0036 1.621876,-1.0502 0,-0.047 -0.84989,-1.5048 -1.890283,-3.2409 -1.040392,-1.7363 -2.168017,-3.6195 -2.507055,-4.1858 -0.346445,-0.5787 -0.584034,-1.066 -0.539675,-1.1115 0.04442,-0.046 2.1508,-0.02 4.817087,0.058 2.604963,0.078 4.771735,0.1112 4.814228,0.07 0.103354,-0.099 0.164642,-6.9088 0.06283,-6.9733 -0.04382,-0.028 -2.027012,0.013 -4.405907,0.091 -5.169356,0.1679 -5.285372,0.1691 -5.285372,0.044 0,-0.054 0.830831,-1.4754 1.844598,-3.159 3.026945,-5.0272 3.177518,-5.2857 3.135247,-5.3558 -0.02225,-0.038 -0.545316,-0.3611 -1.162155,-0.7226 -0.616834,-0.3615 -1.909815,-1.1271 -2.875403,-1.6993 -0.965581,-0.5721 -1.794205,-1.0383 -1.841739,-1.0383 -0.07707,0 -1.919728,3.4043 -3.909064,7.2277 -0.470638,0.9045 -0.763887,1.3725 -0.850915,1.3572 -0.07306,-0.013 -1.142109,-1.9483 -2.375705,-4.3027 -1.277249,-2.4379 -2.295687,-4.2817 -2.367137,-4.2822 z"
       style="fill:#000000;fill-opacity:0.05882353;stroke:none" />
    <path
       style="fill:#000000;fill-opacity:0.11764706;stroke:none"
       d="m 19.254126,1013.7622 c -0.137764,0 -5.552403,3.2118 -5.76223,3.4193 -0.112135,0.1112 -0.08778,0.1963 0.171317,0.6229 2.860361,4.7103 4.765176,7.9627 4.700012,8.0206 -0.04494,0.04 -1.768642,0.02 -3.829109,-0.044 -2.060469,-0.064 -4.22297,-0.1218 -4.8056657,-0.1257 l -1.0593559,0 -0.051388,3.4398 c -0.031669,2.021 -0.020107,3.4736 0.028671,3.5246 0.078194,0.083 6.0902516,-0.053 8.5605346,-0.193 0.85163,-0.048 1.034045,-0.034 1.076492,0.078 0.0291,0.078 -0.356972,0.818 -0.896601,1.72 -0.521372,0.8713 -1.636933,2.7356 -2.478502,4.1418 -0.841562,1.4064 -1.510614,2.6069 -1.487666,2.6676 0.05915,0.157 5.548645,3.3752 5.767934,3.3816 0.168965,0 1.420301,-2.2667 4.277413,-7.7633 0.214072,-0.4118 0.4496,-0.7487 0.522539,-0.7487 0.08111,0 0.922806,1.5096 2.167261,3.8845 2.572298,4.9089 2.501186,4.7736 2.549885,4.7736 0.02269,0 0.626469,-0.3528 1.342046,-0.7808 0.715578,-0.4283 2.029056,-1.21 2.921089,-1.7405 0.892031,-0.5305 1.621876,-1.0036 1.621876,-1.0502 0,-0.047 -0.84989,-1.5048 -1.890283,-3.2409 -1.040392,-1.7363 -2.168017,-3.6195 -2.507055,-4.1858 -0.346445,-0.5787 -0.584034,-1.066 -0.539675,-1.1115 0.04442,-0.046 2.1508,-0.02 4.817087,0.058 2.604963,0.078 4.771735,0.1112 4.814228,0.07 0.103354,-0.099 0.164642,-6.9088 0.06283,-6.9733 -0.04382,-0.028 -2.027012,0.013 -4.405907,0.091 -5.169356,0.1679 -5.285372,0.1691 -5.285372,0.044 0,-0.054 0.830831,-1.4754 1.844598,-3.159 3.026945,-5.0272 3.177518,-5.2857 3.135247,-5.3558 -0.02225,-0.038 -0.545316,-0.3611 -1.162155,-0.7226 -0.616834,-0.3615 -1.909815,-1.1271 -2.875403,-1.6993 -0.965581,-0.5721 -1.794205,-1.0383 -1.841739,-1.0383 -0.07707,0 -1.919728,3.4043 -3.909064,7.2277 -0.470638,0.9045 -0.763887,1.3725 -0.850915,1.3572 -0.07306,-0.013 -1.142109,-1.9483 -2.375705,-4.3027 -1.277249,-2.4379 -2.295687,-4.2817 -2.367137,-4.2822 z"
       id="path4108"
       inkscape:connector-curvature="0" />
    <path
       inkscape:connector-curvature="0"
       style="fill:#000000;fill-opacity:1;stroke:none"
       d="m -2.2444153e-7,1049.3622 0,1.0625 c 0,1.0773 0.86022290444153,1.9375 1.93749992444153,1.9375 l 44.1250003,0 c 1.077277,0 1.9375,-0.8602 1.9375,-1.9375 l 0,-1.0625 c 0,1.0773 -0.860223,1.9375 -1.9375,1.9375 l -44.1250003,0 C 0.86022268,1051.2997 -2.2444153e-7,1050.4395 -2.2444153e-7,1049.3622 Z"
       id="rect846" />
    <path
       inkscape:connector-curvature="0"
       style="fill:#ffffff;fill-opacity:0.5372549;stroke:none"
       d="m 2.5312497,1005.0185 c -0.9170884,0 -1.67114672,0.6395 -1.84374992,1.5 0.33561202,-0.2799 0.77451212,-0.4375 1.24999992,-0.4375 l 44.1250003,0 c 0.475488,0 0.914388,0.1576 1.25,0.4375 -0.172603,-0.8605 -0.926662,-1.5 -1.84375,-1.5 L 2.5312497,1005.0185 Z"
       id="path7515" />
    <path
       inkscape:connector-curvature="0"
       style="fill:#000000;fill-opacity:0.39215686;stroke:none"
       d="m 1.9374997,1004.3622 c -1.07727692,0 -1.93749992444153,0.8602 -1.93749992444153,1.9375 l 0,43.0625 c 0,0.7934 0.48002360444153,1.449 1.15624992444153,1.75 -0.30934162,-0.3333 -0.49999992,-0.7824 -0.49999992,-1.2812 l 0,-42.9375 c 0,-1.0482 0.82689892,-1.875 1.87499992,-1.875 l 42.9375003,0 c 1.048101,0 1.875,0.8268 1.875,1.875 l 0,42.9375 c 0,0.4988 -0.190658,0.9479 -0.5,1.2812 0.676226,-0.301 1.15625,-0.9566 1.15625,-1.75 l 0,-43.0625 c 0,-1.0773 -0.860223,-1.9375 -1.9375,-1.9375 L 1.9374997,1004.3622 Z"
       id="rect4280" />
    <path
       inkscape:connector-curvature="0"
       id="path4106"
       d="m 19.254126,1013.3622 c -0.137764,0 -5.552403,3.2118 -5.76223,3.4193 -0.112135,0.1112 -0.08778,0.1963 0.171317,0.6229 2.860361,4.7103 4.765176,7.9627 4.700012,8.0206 -0.04494,0.04 -1.768642,0.02 -3.829109,-0.044 -2.060469,-0.064 -4.22297,-0.1218 -4.8056657,-0.1257 l -1.0593559,0 -0.051388,3.4398 c -0.031669,2.021 -0.020107,3.4736 0.028671,3.5246 0.078194,0.083 6.0902516,-0.053 8.5605346,-0.193 0.85163,-0.048 1.034045,-0.034 1.076492,0.078 0.0291,0.078 -0.356972,0.818 -0.896601,1.72 -0.521372,0.8713 -1.636933,2.7356 -2.478502,4.1418 -0.841562,1.4064 -1.510614,2.6069 -1.487666,2.6676 0.05915,0.157 5.548645,3.3752 5.767934,3.3816 0.168965,0 1.420301,-2.2667 4.277413,-7.7633 0.214072,-0.4118 0.4496,-0.7487 0.522539,-0.7487 0.08111,0 0.922806,1.5096 2.167261,3.8845 2.572298,4.9089 2.501186,4.7736 2.549885,4.7736 0.02269,0 0.626469,-0.3528 1.342046,-0.7808 0.715578,-0.4283 2.029056,-1.21 2.921089,-1.7405 0.892031,-0.5305 1.621876,-1.0036 1.621876,-1.0502 0,-0.047 -0.84989,-1.5048 -1.890283,-3.2409 -1.040392,-1.7363 -2.168017,-3.6195 -2.507055,-4.1858 -0.346445,-0.5787 -0.584034,-1.066 -0.539675,-1.1115 0.04442,-0.046 2.1508,-0.02 4.817087,0.058 2.604963,0.078 4.771735,0.1112 4.814228,0.07 0.103354,-0.099 0.164642,-6.9088 0.06283,-6.9733 -0.04382,-0.028 -2.027012,0.013 -4.405907,0.091 -5.169356,0.1679 -5.285372,0.1691 -5.285372,0.044 0,-0.054 0.830831,-1.4754 1.844598,-3.159 3.026945,-5.0272 3.177518,-5.2857 3.135247,-5.3558 -0.02225,-0.038 -0.545316,-0.3611 -1.162155,-0.7226 -0.616834,-0.3615 -1.909815,-1.1271 -2.875403,-1.6993 -0.965581,-0.5721 -1.794205,-1.0383 -1.841739,-1.0383 -0.07707,0 -1.919728,3.4043 -3.909064,7.2277 -0.470638,0.9045 -0.763887,1.3725 -0.850915,1.3572 -0.07306,-0.013 -1.142109,-1.9483 -2.375705,-4.3027 -1.277249,-2.4379 -2.295687,-4.2817 -2.367137,-4.2822 z"
       style="fill:#000000;fill-opacity:0.23529412;stroke:none" />
    <path
       style="fill:url(#linearGradient4128);fill-opacity:1;stroke:none"
       d="m 19.254126,1012.9619 c -0.137764,0 -5.552403,3.2118 -5.76223,3.4193 -0.112135,0.1112 -0.08778,0.1963 0.171317,0.6229 2.860361,4.7103 4.765176,7.9627 4.700012,8.0206 -0.04494,0.04 -1.768642,0.02 -3.829109,-0.044 -2.060469,-0.064 -4.22297,-0.1218 -4.8056657,-0.1257 l -1.0593559,0 -0.051388,3.4398 c -0.031669,2.021 -0.020107,3.4736 0.028671,3.5246 0.078194,0.083 6.0902516,-0.053 8.5605346,-0.193 0.85163,-0.048 1.034045,-0.034 1.076492,0.078 0.0291,0.078 -0.356972,0.818 -0.896601,1.72 -0.521372,0.8713 -1.636933,2.7356 -2.478502,4.1418 -0.841562,1.4064 -1.510614,2.6069 -1.487666,2.6676 0.05915,0.157 5.548645,3.3752 5.767934,3.3816 0.168965,0 1.420301,-2.2667 4.277413,-7.7633 0.214072,-0.4118 0.4496,-0.7487 0.522539,-0.7487 0.08111,0 0.922806,1.5096 2.167261,3.8845 2.572298,4.9089 2.501186,4.7736 2.549885,4.7736 0.02269,0 0.626469,-0.3528 1.342046,-0.7808 0.715578,-0.4283 2.029056,-1.21 2.921089,-1.7405 0.892031,-0.5305 1.621876,-1.0036 1.621876,-1.0502 0,-0.047 -0.84989,-1.5048 -1.890283,-3.2409 -1.040392,-1.7363 -2.168017,-3.6195 -2.507055,-4.1858 -0.346445,-0.5787 -0.584034,-1.066 -0.539675,-1.1115 0.04442,-0.046 2.1508,-0.02 4.817087,0.058 2.604963,0.078 4.771735,0.1112 4.814228,0.07 0.103354,-0.099 0.164642,-6.9088 0.06283,-6.9733 -0.04382,-0.028 -2.027012,0.013 -4.405907,0.091 -5.169356,0.1679 -5.285372,0.1691 -5.285372,0.044 0,-0.054 0.830831,-1.4754 1.844598,-3.159 3.026945,-5.0272 3.177518,-5.2857 3.135247,-5.3558 -0.02225,-0.038 -0.545316,-0.3611 -1.162155,-0.7226 -0.616834,-0.3615 -1.909815,-1.1271 -2.875403,-1.6993 -0.965581,-0.5721 -1.794205,-1.0383 -1.841739,-1.0383 -0.07707,0 -1.919728,3.4043 -3.909064,7.2277 -0.470638,0.9045 -0.763887,1.3725 -0.850915,1.3572 -0.07306,-0.013 -1.142109,-1.9483 -2.375705,-4.3027 -1.277249,-2.4379 -2.295687,-4.2817 -2.367137,-4.2822 z"
       id="rect3036"
       inkscape:connector-curvature="0" />
    <path
       style="fill:#c00302;fill-opacity:0.3137255;stroke:none"
       d="M 34.166016 11.771484 C 33.748542 12.483435 32.986092 13.755821 31.501953 16.220703 C 30.488186 17.904303 29.65625 19.324906 29.65625 19.378906 C 29.65625 19.438631 29.716501 19.467089 30.306641 19.464844 C 30.633852 18.894493 30.845814 18.509596 31.501953 17.419922 C 34.528898 12.392722 34.67899 12.134553 34.636719 12.064453 C 34.627704 12.049058 34.31237 11.864067 34.166016 11.771484 z M 13.865234 11.779297 C 13.75784 11.849458 13.512395 11.999548 13.492188 12.019531 C 13.380052 12.130731 13.404966 12.215978 13.664062 12.642578 C 15.560567 15.765647 16.967824 18.13757 17.728516 19.472656 C 17.965342 19.470377 18.350966 19.473852 18.363281 19.462891 C 18.426535 19.406688 16.586538 16.267129 13.865234 11.779297 z M 39.394531 21.523438 C 39.392497 23.544072 39.349859 26.156773 39.285156 26.21875 C 39.242663 26.25995 37.075666 26.226437 34.470703 26.148438 C 31.804416 26.070438 29.698717 26.043844 29.654297 26.089844 C 29.609938 26.135344 29.846914 26.622472 30.193359 27.201172 C 30.199876 27.212057 30.235094 27.269402 30.242188 27.28125 C 30.902248 27.267661 32.35487 27.285759 34.470703 27.347656 C 37.075666 27.425656 39.242663 27.459169 39.285156 27.417969 C 39.36322 27.343194 39.416615 23.456948 39.394531 21.523438 z M 8.6074219 25.382812 C 8.6023808 26.53388 8.6118524 27.420822 8.6464844 27.457031 C 8.7246784 27.540031 14.736748 27.403672 17.207031 27.263672 C 17.47279 27.248693 17.580918 27.253763 17.732422 27.251953 C 18.058634 26.673304 18.304702 26.200203 18.283203 26.142578 C 18.240756 26.030578 18.058661 26.016453 17.207031 26.064453 C 14.736748 26.204453 8.7246784 26.340813 8.6464844 26.257812 C 8.625632 26.23601 8.6142017 25.851811 8.6074219 25.382812 z M 23.988281 29.541016 C 23.915342 29.541016 23.680869 29.879216 23.466797 30.291016 C 20.609685 35.787616 19.358418 38.052734 19.189453 38.052734 C 18.998252 38.047154 14.99033 35.707467 13.878906 34.976562 C 13.591533 35.490049 13.408032 35.839645 13.419922 35.871094 C 13.479072 36.028094 18.970164 39.247506 19.189453 39.253906 C 19.358418 39.253906 20.609685 36.986834 23.466797 31.490234 C 23.680869 31.078434 23.915342 30.740234 23.988281 30.740234 C 24.069391 30.740234 24.911795 32.2501 26.15625 34.625 C 28.728548 39.5339 28.656379 39.398438 28.705078 39.398438 C 28.727768 39.398438 29.331298 39.047141 30.046875 38.619141 C 30.762453 38.190841 32.076717 37.409406 32.96875 36.878906 C 33.860781 36.348406 34.589844 35.874725 34.589844 35.828125 C 34.589844 35.815868 34.201559 35.166482 34.097656 34.982422 C 33.804719 35.171851 33.408652 35.41612 32.96875 35.677734 C 32.076717 36.208234 30.762453 36.989669 30.046875 37.417969 C 29.331298 37.845969 28.727768 38.199219 28.705078 38.199219 C 28.656379 38.199219 28.728548 38.334681 26.15625 33.425781 C 24.911795 31.050881 24.069391 29.541016 23.988281 29.541016 z "
       transform="translate(0,1004.3622)"
       id="path4112" />
    <path
       style="fill:#ffffff;fill-opacity:0.23529412;stroke:none"
       d="M 19.253906 8.5996094 C 19.116142 8.5996094 13.702014 11.812031 13.492188 12.019531 C 13.412423 12.098631 13.43948 12.209535 13.533203 12.394531 C 13.847531 12.127634 19.117584 9 19.253906 9 L 19.253906 9.0039062 C 19.325356 9.0044062 20.343845 10.849209 21.621094 13.287109 C 22.85469 15.641509 23.924987 17.576844 23.998047 17.589844 C 24.085075 17.605144 24.377018 17.136922 24.847656 16.232422 C 26.836992 12.409022 28.680743 9.0039062 28.757812 9.0039062 C 28.805346 9.0039062 29.634028 9.4708688 30.599609 10.042969 C 31.565197 10.615169 32.857775 11.380688 33.474609 11.742188 C 34.019873 12.06174 34.38439 12.291719 34.501953 12.380859 C 34.605195 12.187578 34.649794 12.086136 34.636719 12.064453 C 34.614469 12.026453 34.091448 11.703297 33.474609 11.341797 C 32.857775 10.980297 31.565197 10.214778 30.599609 9.6425781 C 29.634028 9.0704781 28.805346 8.6035156 28.757812 8.6035156 C 28.680743 8.6035156 26.836992 12.008631 24.847656 15.832031 C 24.377018 16.736531 24.085075 17.204753 23.998047 17.189453 C 23.924987 17.176453 22.85469 15.241119 21.621094 12.886719 C 20.343845 10.448819 19.325356 8.6040156 19.253906 8.6035156 L 19.253906 8.5996094 z M 39.347656 20.443359 C 39.303836 20.415359 37.320301 20.457156 34.941406 20.535156 C 31.26039 20.654715 30.186671 20.687253 29.847656 20.652344 C 29.830478 20.686178 29.65625 20.974864 29.65625 20.980469 C 29.65625 21.105569 29.77205 21.103447 34.941406 20.935547 C 37.320301 20.857547 39.303836 20.81575 39.347656 20.84375 C 39.372929 20.859761 39.387507 21.29798 39.394531 21.939453 C 39.389567 21.10811 39.377323 20.462154 39.347656 20.443359 z M 8.6699219 20.492188 L 8.6171875 23.931641 C 8.6005675 24.992268 8.5971918 25.857274 8.6035156 26.484375 C 8.6016195 25.891707 8.6035656 25.20133 8.6171875 24.332031 L 8.6699219 20.892578 L 9.7285156 20.892578 C 10.311211 20.896478 12.472734 20.955531 14.533203 21.019531 C 16.59367 21.083531 18.318341 21.1025 18.363281 21.0625 C 18.373789 21.053163 18.253709 20.834212 18.166016 20.666016 C 17.872213 20.693366 16.418188 20.67769 14.533203 20.619141 C 12.472734 20.555141 10.311211 20.496088 9.7285156 20.492188 L 8.6699219 20.492188 z M 18.146484 27.662109 C 18.011532 27.960532 17.769361 28.422906 17.386719 29.0625 C 16.865347 29.9338 15.749772 31.796925 14.908203 33.203125 C 14.066641 34.609525 13.396974 35.810394 13.419922 35.871094 C 13.42244 35.877777 13.550892 35.955362 13.572266 35.972656 C 13.744405 35.610508 14.218647 34.755887 14.908203 33.603516 C 15.749772 32.197316 16.865347 30.334191 17.386719 29.462891 C 17.926348 28.560891 18.312303 27.820187 18.283203 27.742188 C 18.268152 27.702474 18.220328 27.678785 18.146484 27.662109 z M 29.800781 27.6875 C 29.787788 27.689488 29.656582 27.687087 29.654297 27.689453 C 29.609938 27.734953 29.846914 28.222081 30.193359 28.800781 C 30.532397 29.367081 31.66078 31.250028 32.701172 32.986328 C 33.651282 34.571774 34.295613 35.688529 34.425781 35.947266 C 34.466316 35.91573 34.589844 35.836165 34.589844 35.828125 C 34.589844 35.781125 33.741565 34.322038 32.701172 32.585938 C 31.66078 30.849637 30.532397 28.966691 30.193359 28.400391 C 30.029964 28.127455 29.89759 27.883013 29.800781 27.6875 z "
       transform="translate(0,1004.3622)"
       id="path4117" />
  </g>
</svg>
