<?xml version="1.0" encoding="UTF-8" standalone="no"?>
<!-- Created with Inkscape (http://www.inkscape.org/) -->

<svg
   xmlns:dc="http://purl.org/dc/elements/1.1/"
   xmlns:cc="http://creativecommons.org/ns#"
   xmlns:rdf="http://www.w3.org/1999/02/22-rdf-syntax-ns#"
   xmlns:svg="http://www.w3.org/2000/svg"
   xmlns="http://www.w3.org/2000/svg"
   xmlns:xlink="http://www.w3.org/1999/xlink"
   xmlns:sodipodi="http://sodipodi.sourceforge.net/DTD/sodipodi-0.dtd"
   xmlns:inkscape="http://www.inkscape.org/namespaces/inkscape"
   width="48"
   height="48"
   id="svg2"
   version="1.1"
   inkscape:version="0.48+devel r12501"
   sodipodi:docname="logviewer.svg">
  <defs
     id="defs4">
    <linearGradient
       inkscape:collect="always"
       id="linearGradient1206">
      <stop
         style="stop-color:#ffffff;stop-opacity:1;"
         offset="0"
         id="stop1208" />
      <stop
         style="stop-color:#ffffff;stop-opacity:0;"
         offset="1"
         id="stop1210" />
    </linearGradient>
    <linearGradient
       inkscape:collect="always"
       id="linearGradient1178">
      <stop
         style="stop-color:#000000;stop-opacity:1;"
         offset="0"
         id="stop1180" />
      <stop
         style="stop-color:#000000;stop-opacity:0;"
         offset="1"
         id="stop1182" />
    </linearGradient>
    <linearGradient
       inkscape:collect="always"
       id="linearGradient1165">
      <stop
         style="stop-color:#ffffff;stop-opacity:1;"
         offset="0"
         id="stop1167" />
      <stop
         style="stop-color:#ffffff;stop-opacity:0;"
         offset="1"
         id="stop1169" />
    </linearGradient>
    <linearGradient
       inkscape:collect="always"
       id="linearGradient1039">
      <stop
         style="stop-color:#ffffff;stop-opacity:1;"
         offset="0"
         id="stop1041" />
      <stop
         style="stop-color:#ffffff;stop-opacity:0;"
         offset="1"
         id="stop1043" />
    </linearGradient>
    <linearGradient
       id="linearGradient943"
       inkscape:collect="always">
      <stop
         id="stop945"
         offset="0"
         style="stop-color:#000000;stop-opacity:1" />
      <stop
         id="stop947"
         offset="1"
         style="stop-color:#333333;stop-opacity:1" />
    </linearGradient>
    <linearGradient
       id="linearGradient930"
       inkscape:collect="always">
      <stop
         id="stop932"
         offset="0"
         style="stop-color:#b2b5ae;stop-opacity:1" />
      <stop
         id="stop934"
         offset="1"
         style="stop-color:#646567;stop-opacity:1" />
    </linearGradient>
    <linearGradient
       inkscape:collect="always"
       id="linearGradient910">
      <stop
         style="stop-color:#9da198;stop-opacity:1"
         offset="0"
         id="stop912" />
      <stop
         style="stop-color:#c9ccc1;stop-opacity:1"
         offset="1"
         id="stop914" />
    </linearGradient>
    <linearGradient
       inkscape:collect="always"
       xlink:href="#linearGradient910"
       id="linearGradient916"
       x1="24.249998"
       y1="-1052.3622"
       x2="24.249998"
       y2="-1005.6122"
       gradientUnits="userSpaceOnUse" />
    <radialGradient
       inkscape:collect="always"
       xlink:href="#linearGradient930"
       id="radialGradient928"
       cx="24"
       cy="10.388194"
       fx="24"
       fy="10.388194"
       r="24"
       gradientUnits="userSpaceOnUse"
       gradientTransform="matrix(1.4640388,0,0,1,-11.136932,0)" />
    <linearGradient
       inkscape:collect="always"
       xlink:href="#linearGradient943"
       id="linearGradient941"
       gradientUnits="userSpaceOnUse"
       x1="24.249998"
       y1="-1052.3622"
       x2="24.249998"
       y2="-1004.4"
       gradientTransform="matrix(0.83333334,0,0,0.83333334,3.9999996,-171.39368)" />
    <radialGradient
       inkscape:collect="always"
       xlink:href="#linearGradient930"
       id="radialGradient951"
       gradientUnits="userSpaceOnUse"
       gradientTransform="matrix(1.4640388,0,0,-1,-11.136932,1052.3622)"
       cx="24"
       cy="10.388194"
       fx="24"
       fy="10.388194"
       r="24" />
    <linearGradient
       inkscape:collect="always"
       xlink:href="#linearGradient1039"
       id="linearGradient1045"
       x1="24.125"
       y1="31.25"
       x2="24.125"
       y2="5.25"
       gradientUnits="userSpaceOnUse"
       gradientTransform="matrix(0.95238097,0,0,0.7290016,1.1428567,1006.1752)" />
    <linearGradient
       inkscape:collect="always"
       xlink:href="#linearGradient1165"
       id="linearGradient1171"
       x1="24.875"
       y1="6.125"
       x2="24.875"
       y2="38.625"
       gradientUnits="userSpaceOnUse"
       gradientTransform="matrix(0.95238097,0,0,0.95238097,1.1428567,1005.5051)" />
    <linearGradient
       inkscape:collect="always"
       xlink:href="#linearGradient1178"
       id="linearGradient1184"
       x1="25.41165"
       y1="1.9496709"
       x2="25.41165"
       y2="4.7339039"
       gradientUnits="userSpaceOnUse"
       gradientTransform="matrix(0.95238097,0,0,0.95238097,1.1428567,1005.5051)" />
    <linearGradient
       inkscape:collect="always"
       xlink:href="#linearGradient1178"
       id="linearGradient1188"
       gradientUnits="userSpaceOnUse"
       x1="25.41165"
       y1="1.9496709"
       x2="25.41165"
       y2="4.7339039"
       gradientTransform="matrix(0.95238097,0,0,-0.95238097,1.1428567,1051.2193)" />
    <linearGradient
       inkscape:collect="always"
       xlink:href="#linearGradient1178"
       id="linearGradient1192"
       gradientUnits="userSpaceOnUse"
       gradientTransform="matrix(0,-0.95238097,-0.95238097,0,46.857143,1051.2193)"
       x1="25.41165"
       y1="1.9496709"
       x2="25.41165"
       y2="4.7339039" />
    <linearGradient
       inkscape:collect="always"
       xlink:href="#linearGradient1178"
       id="linearGradient1196"
       gradientUnits="userSpaceOnUse"
       gradientTransform="matrix(0,-0.95238097,0.95238097,0,1.1428567,1051.2193)"
       x1="25.41165"
       y1="1.9496709"
       x2="25.41165"
       y2="4.7339039" />
    <linearGradient
       inkscape:collect="always"
       xlink:href="#linearGradient1206"
       id="linearGradient1212"
       x1="14.672465"
       y1="1001.8304"
       x2="14.672465"
       y2="1033.6239"
       gradientUnits="userSpaceOnUse"
       gradientTransform="matrix(0.95238097,0,0,0.95238097,1.1428567,48.969608)" />
  </defs>
  <sodipodi:namedview
     id="base"
     pagecolor="#ffffff"
     bordercolor="#666666"
     borderopacity="1.0"
     inkscape:pageopacity="0.0"
     inkscape:pageshadow="2"
     inkscape:zoom="4.0297398"
     inkscape:cx="15.856179"
     inkscape:cy="7.0757589"
     inkscape:document-units="px"
     inkscape:current-layer="layer1"
     showgrid="false"
     inkscape:window-width="1366"
     inkscape:window-height="714"
     inkscape:window-x="0"
     inkscape:window-y="30"
     inkscape:window-maximized="1">
    <inkscape:grid
       type="xygrid"
       id="grid3850" />
  </sodipodi:namedview>
  <metadata
     id="metadata7">
    <rdf:RDF>
      <cc:Work
         rdf:about="">
        <dc:format>image/svg+xml</dc:format>
        <dc:type
           rdf:resource="http://purl.org/dc/dcmitype/StillImage" />
        <dc:title />
      </cc:Work>
    </rdf:RDF>
  </metadata>
  <g
     inkscape:label="Capa 1"
     inkscape:groupmode="layer"
     id="layer1"
     transform="translate(0,-1004.3622)">
    <g
       id="layer1-6"
       inkscape:label="Capa 1"
       transform="matrix(1.0941053,0,0,1.0941053,-2.2585272,-96.999107)" />
    <rect
       style="fill:url(#linearGradient916);fill-opacity:1;stroke:none"
       id="rect2991-1"
       width="48"
       height="48"
       x="1.62323e-07"
       y="-1052.3622"
       ry="1.9445436"
       transform="scale(1,-1)" />
    <path
       id="path949"
       d="m 1.9375,1052.3622 c -0.6235777,0 -1.1446305,-0.2963 -1.5,-0.75 l 4.8125,-8.3438 37.5,0 4.8125,8.3438 c -0.35537,0.4537 -0.876422,0.75 -1.5,0.75 L 1.9375,1052.3622 Z"
       style="fill:url(#radialGradient951);fill-opacity:1;stroke:none;opacity:0.389"
       inkscape:connector-curvature="0" />
    <path
       inkscape:connector-curvature="0"
       style="fill:#000000;fill-opacity:1;stroke:none"
       d="m -1.62323e-7,1049.3623 0,1.0625 c 0,1.0773 0.860223002323,1.9375 1.937499962323,1.9375 l 44.1250002,0 c 1.077277,0 1.9375,-0.8602 1.9375,-1.9375 l 0,-1.0625 c 0,1.0773 -0.860223,1.9375 -1.9375,1.9375 l -44.1250002,0 C 0.86022284,1051.2998 -1.62323e-7,1050.4396 -1.62323e-7,1049.3623 Z"
       id="rect846" />
    <path
       style="fill:url(#radialGradient928);fill-opacity:1;stroke:none"
       d="M 1.9375 0 C 1.3139223 0 0.7928695 0.29629709 0.4375 0.75 L 5.25 9.09375 L 42.75 9.09375 L 47.5625 0.75 C 47.20713 0.29629709 46.686078 0 46.0625 0 L 1.9375 0 z "
       transform="translate(0,1004.3622)"
       id="rect920" />
    <rect
       transform="scale(1,-1)"
       ry="1.7014757"
       y="-1049.3622"
       x="3"
       height="42"
       width="42"
       id="rect3288"
       style="fill:#000000;fill-opacity:0.23529412;stroke:none" />
    <path
       inkscape:connector-curvature="0"
       style="fill:#ffffff;fill-opacity:0.5372549;stroke:none"
       d="m 2.5312498,1005.0186 c -0.917088,0 -1.67114696,0.6395 -1.84374996,1.5 0.33561196,-0.2799 0.77451196,-0.4375 1.24999996,-0.4375 l 44.1250002,0 c 0.475488,0 0.914388,0.1576 1.25,0.4375 -0.172603,-0.8605 -0.926662,-1.5 -1.84375,-1.5 L 2.5312498,1005.0186 Z"
       id="path7515" />
    <path
       inkscape:connector-curvature="0"
       style="fill:#000000;fill-opacity:0.39215686;stroke:none"
       d="m 1.9374998,1004.3623 c -1.07727696,0 -1.937499962323,0.8602 -1.937499962323,1.9375 l 0,43.0625 c 0,0.7934 0.480024002323,1.449 1.156249962323,1.75 -0.30934196,-0.3333 -0.49999996,-0.7824 -0.49999996,-1.2812 l 0,-42.9375 c 0,-1.0482 0.82689896,-1.875 1.87499996,-1.875 l 42.9375002,0 c 1.048101,0 1.875,0.8268 1.875,1.875 l 0,42.9375 c 0,0.4988 -0.190658,0.9479 -0.5,1.2812 0.676226,-0.301 1.15625,-0.9566 1.15625,-1.75 l 0,-43.0625 c 0,-1.0773 -0.860223,-1.9375 -1.9375,-1.9375 L 1.9374998,1004.3623 Z"
       id="rect4280" />
    <rect
       transform="scale(1,-1)"
       ry="1.6204531"
       y="-1048.3622"
       x="3.9999995"
       height="40"
       width="40"
       id="rect939"
       style="fill:url(#linearGradient941);fill-opacity:1;stroke:none" />
    <text
       xml:space="preserve"
       style="font-size:1.66666675px;font-style:normal;font-weight:normal;line-height:125%;letter-spacing:0px;word-spacing:0px;fill:url(#linearGradient1212);fill-opacity:1;stroke:none;font-family:Sans"
       x="5.3664312"
       y="1012.9666"
       id="text6211-5"
       sodipodi:linespacing="125%"><tspan
         sodipodi:role="line"
         x="5.3664312"
         y="1012.9666"
         id="tspan6219-5"
         style="fill:url(#linearGradient1212);fill-opacity:1">void setup()</tspan><tspan
         sodipodi:role="line"
         x="5.3664312"
         y="1015.0499"
         id="tspan6362"
         style="fill:url(#linearGradient1212);fill-opacity:1">{</tspan><tspan
         sodipodi:role="line"
         x="5.3664312"
         y="1017.1332"
         id="tspan6364"
         style="fill:url(#linearGradient1212);fill-opacity:1">  pinMode(ledPin, OUTPUT);</tspan><tspan
         sodipodi:role="line"
         x="5.3664312"
         y="1019.2166"
         id="tspan6368"
         style="fill:url(#linearGradient1212);fill-opacity:1">// sets the digital pin</tspan><tspan
         sodipodi:role="line"
         x="5.3664312"
         y="1021.2999"
         id="tspan6370"
         style="fill:url(#linearGradient1212);fill-opacity:1">as output</tspan><tspan
         sodipodi:role="line"
         x="5.3664312"
         y="1023.3832"
         id="tspan6366"
         style="fill:url(#linearGradient1212);fill-opacity:1">}</tspan><tspan
         sodipodi:role="line"
         x="5.3664312"
         y="1025.4666"
         id="tspan6391"
         style="fill:url(#linearGradient1212);fill-opacity:1">void loop()</tspan><tspan
         sodipodi:role="line"
         x="5.3664312"
         y="1027.5499"
         id="tspan6397"
         style="fill:url(#linearGradient1212);fill-opacity:1">{</tspan><tspan
         sodipodi:role="line"
         x="5.3664312"
         y="1029.6332"
         id="tspan6393"
         style="fill:url(#linearGradient1212);fill-opacity:1">digitalWrite(ledPin, HIGH);</tspan><tspan
         sodipodi:role="line"
         x="5.3664312"
         y="1031.7166"
         id="tspan6395"
         style="fill:url(#linearGradient1212);fill-opacity:1">digitalWrite(ledPin, LOW);</tspan><tspan
         sodipodi:role="line"
         x="5.3664312"
         y="1033.7999"
         id="tspan6399"
         style="fill:url(#linearGradient1212);fill-opacity:1">}</tspan></text>
    <path
       style="opacity:0.128;fill:url(#linearGradient1045);fill-opacity:1;stroke:none"
       d="m 5.6071425,1008.3622 c -0.8977311,0 -1.6071429,0.543 -1.6071429,1.2302 l 0,9.8643 c 5.0540029,2.0106 12.1345124,3.2805 20.0000004,3.2805 7.865488,0 14.945997,-1.2699 20,-3.2805 l 0,-9.8643 c 0,-0.6872 -0.709411,-1.2302 -1.607142,-1.2302 l -36.7857155,0 z"
       id="rect1029"
       inkscape:connector-curvature="0" />
    <path
       style="opacity:0.23000004;fill:url(#linearGradient1171);fill-opacity:1;stroke:none"
       d="m 4.7142853,1008.6301 c -0.1380429,0.093 -0.2539956,0.2269 -0.3571428,0.3571 l 39.2857155,0 c -0.103148,-0.1302 -0.2191,-0.264 -0.357143,-0.3571 l -38.5714297,0 z m -0.625,0.7738 c -0.042515,0.1138 -0.043426,0.2326 -0.059524,0.3571 l 39.9404775,0 c -0.0161,-0.1245 -0.01701,-0.2433 -0.05952,-0.3571 l -39.8214297,0 z m -0.089286,0.744 0,0.3572 40.0000004,0 0,-0.3572 -40.0000004,0 z m 0,0.7738 0,0.3572 40.0000004,0 0,-0.3572 -40.0000004,0 z m 0,0.7738 0,0.3572 40.0000004,0 0,-0.3572 -40.0000004,0 z m 0,0.7738 0,0.3572 40.0000004,0 0,-0.3572 -40.0000004,0 z m 0,0.7441 0,0.3571 40.0000004,0 0,-0.3571 -40.0000004,0 z m 0,0.7738 0,0.3571 40.0000004,0 0,-0.3571 -40.0000004,0 z m 0,0.7738 0,0.3572 40.0000004,0 0,-0.3572 -40.0000004,0 z m 0,0.7738 0,0.3572 40.0000004,0 0,-0.3572 -40.0000004,0 z m 0,0.7441 0,0.3571 40.0000004,0 0,-0.3571 -40.0000004,0 z m 0,0.7738 0,0.3571 40.0000004,0 0,-0.3571 -40.0000004,0 z m 0,0.7738 0,0.3571 40.0000004,0 0,-0.3571 -40.0000004,0 z m 0,0.7738 0,0.3571 40.0000004,0 0,-0.3571 -40.0000004,0 z m 0,0.744 0,0.3572 40.0000004,0 0,-0.3572 -40.0000004,0 z m 0,0.7739 0,0.3571 40.0000004,0 0,-0.3571 -40.0000004,0 z m 0,0.7738 0,0.3571 40.0000004,0 0,-0.3571 -40.0000004,0 z m 0,0.7738 0,0.3571 40.0000004,0 0,-0.3571 -40.0000004,0 z m 0,0.7738 0,0.3571 40.0000004,0 0,-0.3571 -40.0000004,0 z m 0,0.744 0,0.3572 40.0000004,0 0,-0.3572 -40.0000004,0 z m 0,0.7738 0,0.3572 40.0000004,0 0,-0.3572 -40.0000004,0 z m 0,0.7738 0,0.3572 40.0000004,0 0,-0.3572 -40.0000004,0 z m 0,0.7739 0,0.3571 40.0000004,0 0,-0.3571 -40.0000004,0 z m 0,0.744 0,0.3571 40.0000004,0 0,-0.3571 -40.0000004,0 z m 0,0.7738 0,0.3572 40.0000004,0 0,-0.3572 -40.0000004,0 z m 0,0.7738 0,0.3572 40.0000004,0 0,-0.3572 -40.0000004,0 z m 0,0.7738 0,0.3572 40.0000004,0 0,-0.3572 -40.0000004,0 z m 0,0.7441 0,0.3571 40.0000004,0 0,-0.3571 -40.0000004,0 z m 0,0.7738 0,0.3571 40.0000004,0 0,-0.3571 -40.0000004,0 z m 0,0.7738 0,0.3571 40.0000004,0 0,-0.3571 -40.0000004,0 z m 0,0.7738 0,0.3572 40.0000004,0 0,-0.3572 -40.0000004,0 z m 0,0.7441 0,0.3571 40.0000004,0 0,-0.3571 -40.0000004,0 z m 0,0.7738 0,0.3571 40.0000004,0 0,-0.3571 -40.0000004,0 z m 0,0.7738 0,0.3571 40.0000004,0 0,-0.3571 -40.0000004,0 z m 0,0.7738 0,0.3571 40.0000004,0 0,-0.3571 -40.0000004,0 z m 0,0.744 0,0.3869 40.0000004,0 0,-0.3869 -40.0000004,0 z m 0,0.7738 0,0.3572 40.0000004,0 0,-0.3572 -40.0000004,0 z m 0,0.7739 0,0.3571 40.0000004,0 0,-0.3571 -40.0000004,0 z m 0,0.7738 0,0.3571 40.0000004,0 0,-0.3571 -40.0000004,0 z m 0,0.7738 0,0.3571 40.0000004,0 0,-0.3571 -40.0000004,0 z m 0,0.744 0,0.3572 40.0000004,0 0,-0.3572 -40.0000004,0 z m 0,0.7738 0,0.3572 40.0000004,0 0,-0.3572 -40.0000004,0 z m 0,0.7738 0,0.3572 40.0000004,0 0,-0.3572 -40.0000004,0 z m 0,0.7738 0,0.3572 40.0000004,0 0,-0.3572 -40.0000004,0 z m 0,0.7441 0,0.3571 40.0000004,0 0,-0.3571 -40.0000004,0 z m 0,0.7738 0,0.3571 40.0000004,0 0,-0.3571 -40.0000004,0 z m 0,0.7738 0,0.3572 40.0000004,0 0,-0.3572 -40.0000004,0 z m 0,0.7738 0,0.3572 40.0000004,0 0,-0.3572 -40.0000004,0 z m 0,0.7441 0,0.3571 40.0000004,0 0,-0.3571 -40.0000004,0 z m 0,0.7738 0,0.3571 40.0000004,0 0,-0.3571 -40.0000004,0 z m 0.029762,0.7738 c 0.016098,0.1245 0.017009,0.2433 0.059524,0.3571 l 39.8214297,0 c 0.04251,-0.1138 0.04342,-0.2326 0.05952,-0.3571 l -39.9404775,0 z m 0.327381,0.7738 c 0.1031472,0.1302 0.2190999,0.264 0.3571428,0.3571 l 38.5714297,0 c 0.138043,-0.093 0.253995,-0.2269 0.357143,-0.3571 l -39.2857155,0 z"
       id="rect1047"
       inkscape:connector-curvature="0" />
    <path
       style="fill:url(#linearGradient1184);fill-opacity:1;stroke:none"
       d="m 5.6071425,1008.3622 c -0.8977311,0 -1.6071429,0.7094 -1.6071429,1.6071 l 0,1.1905 c 0,-0.8977 0.7094118,-1.6071 1.6071429,-1.6071 l 36.7857155,0 c 0.897731,0 1.607142,0.7094 1.607142,1.6071 l 0,-1.1905 c 0,-0.8977 -0.709411,-1.6071 -1.607142,-1.6071 l -36.7857155,0 z"
       id="rect1173"
       inkscape:connector-curvature="0" />
    <path
       id="path1186"
       d="m 5.6071425,1048.3622 c -0.8977311,0 -1.6071429,-0.7094 -1.6071429,-1.6071 l 0,-1.1905 c 0,0.8977 0.7094118,1.6071 1.6071429,1.6071 l 36.7857155,0 c 0.897731,0 1.607142,-0.7094 1.607142,-1.6071 l 0,1.1905 c 0,0.8977 -0.709411,1.6071 -1.607142,1.6071 l -36.7857155,0 z"
       style="fill:url(#linearGradient1188);fill-opacity:1;stroke:none"
       inkscape:connector-curvature="0" />
    <path
       inkscape:connector-curvature="0"
       style="fill:url(#linearGradient1192);fill-opacity:1;stroke:none"
       d="m 44,1046.7551 c 0,0.8977 -0.709428,1.6071 -1.607142,1.6071 l -1.190477,0 c 0.897715,0 1.607143,-0.7094 1.607143,-1.6071 l 0,-36.7858 c 0,-0.8978 -0.709428,-1.6071 -1.607143,-1.6071 l 1.190477,0 c 0.897714,0 1.607142,0.7093 1.607142,1.6071 l 0,36.7858 z"
       id="path1190" />
    <path
       id="path1194"
       d="m 3.9999996,1046.7551 c 0,0.8977 0.7094286,1.6071 1.6071429,1.6071 l 1.1904762,0 c -0.8977143,0 -1.6071429,-0.7094 -1.6071429,-1.6071 l 0,-36.7858 c 0,-0.8978 0.7094286,-1.6071 1.6071429,-1.6071 l -1.1904762,0 c -0.8977143,0 -1.6071429,0.7093 -1.6071429,1.6071 l 0,36.7858 z"
       style="fill:url(#linearGradient1196);fill-opacity:1;stroke:none"
       inkscape:connector-curvature="0" />
  </g>
</svg>
