<?xml version="1.0" encoding="UTF-8" standalone="no"?>
<!-- Created with Inkscape (http://www.inkscape.org/) -->

<svg
   xmlns:dc="http://purl.org/dc/elements/1.1/"
   xmlns:cc="http://creativecommons.org/ns#"
   xmlns:rdf="http://www.w3.org/1999/02/22-rdf-syntax-ns#"
   xmlns:svg="http://www.w3.org/2000/svg"
   xmlns="http://www.w3.org/2000/svg"
   xmlns:xlink="http://www.w3.org/1999/xlink"
   xmlns:sodipodi="http://sodipodi.sourceforge.net/DTD/sodipodi-0.dtd"
   xmlns:inkscape="http://www.inkscape.org/namespaces/inkscape"
   width="48"
   height="48"
   id="svg5453"
   version="1.1"
   inkscape:version="0.48+devel r12669"
   sodipodi:docname="mahjongg.svg"
   viewBox="0 0 48 48">
  <defs
     id="defs5455">
    <linearGradient
       inkscape:collect="always"
       id="linearGradient4238">
      <stop
         style="stop-color:#ffffff;stop-opacity:0.67724866"
         offset="0"
         id="stop4240" />
      <stop
         style="stop-color:#ffffff;stop-opacity:0;"
         offset="1"
         id="stop4242" />
    </linearGradient>
    <linearGradient
       inkscape:collect="always"
       id="linearGradient4209">
      <stop
         style="stop-color:#d7d4c8;stop-opacity:1"
         offset="0"
         id="stop4211" />
      <stop
         style="stop-color:#f9f9f6;stop-opacity:1"
         offset="1"
         id="stop4213" />
    </linearGradient>
    <linearGradient
       inkscape:collect="always"
       id="linearGradient4197">
      <stop
         style="stop-color:#93c918;stop-opacity:1"
         offset="0"
         id="stop4199" />
      <stop
         style="stop-color:#97ce17;stop-opacity:1"
         offset="1"
         id="stop4201" />
    </linearGradient>
    <linearGradient
       inkscape:collect="always"
       xlink:href="#linearGradient4197"
       id="linearGradient4203"
       x1="26.428116"
       y1="48.012714"
       x2="26.428116"
       y2="36.995422"
       gradientUnits="userSpaceOnUse" />
    <linearGradient
       inkscape:collect="always"
       xlink:href="#linearGradient4209"
       id="linearGradient4215"
       x1="412.14859"
       y1="-547.79797"
       x2="412.14859"
       y2="-500.0683"
       gradientUnits="userSpaceOnUse" />
    <linearGradient
       inkscape:collect="always"
       xlink:href="#linearGradient4238"
       id="linearGradient4244"
       x1="-0.17677669"
       y1="24.046759"
       x2="5.2149124"
       y2="24.046759"
       gradientUnits="userSpaceOnUse" />
    <linearGradient
       inkscape:collect="always"
       xlink:href="#linearGradient4238"
       id="linearGradient4248"
       gradientUnits="userSpaceOnUse"
       x1="-0.17677669"
       y1="24.046759"
       x2="5.2149124"
       y2="24.046759"
       gradientTransform="matrix(-1,0,0,1,432.57144,499.798)" />
  </defs>
  <sodipodi:namedview
     id="base"
     pagecolor="#ffffff"
     bordercolor="#666666"
     borderopacity="1.0"
     inkscape:pageopacity="0"
     inkscape:pageshadow="2"
     inkscape:zoom="4"
     inkscape:cx="20.585249"
     inkscape:cy="44.059755"
     inkscape:document-units="px"
     inkscape:current-layer="layer1"
     showgrid="false"
     fit-margin-top="0"
     fit-margin-left="0"
     fit-margin-right="0"
     fit-margin-bottom="0"
     inkscape:window-width="1366"
     inkscape:window-height="716"
     inkscape:window-x="0"
     inkscape:window-y="28"
     inkscape:window-maximized="1"
     inkscape:showpageshadow="false"
     borderlayer="true" />
  <metadata
     id="metadata5458">
    <rdf:RDF>
      <cc:Work
         rdf:about="">
        <dc:format>image/svg+xml</dc:format>
        <dc:type
           rdf:resource="http://purl.org/dc/dcmitype/StillImage" />
        <dc:title></dc:title>
      </cc:Work>
    </rdf:RDF>
  </metadata>
  <g
     inkscape:label="Capa 1"
     inkscape:groupmode="layer"
     id="layer1"
     transform="translate(-384.57143,-499.798)">
    <rect
       style="fill:url(#linearGradient4215);fill-opacity:1;stroke:none"
       id="rect2991-1-7"
       width="48"
       height="48"
       x="384.57144"
       y="-547.79797"
       ry="1.9445436"
       transform="scale(1,-1)" />
    <path
       inkscape:connector-curvature="0"
       id="path4221"
       d="m 413.96951,510.69807 -1.12714,1.09542 c -0.61994,0.60244 -1.19542,1.07248 -1.27882,1.04468 -0.0834,-0.0278 -0.39858,-0.51657 -0.70062,-1.08616 l -0.5492,-1.03545 -0.73061,0.32783 c -0.40188,0.18033 -0.77948,0.37173 -0.83906,0.42527 -0.24862,0.22342 1.98759,3.23936 3.26975,4.40988 l 0.80432,0.73436 -2.06614,-0.0625 -2.06614,-0.0622 -0.0447,1.54992 c -0.0409,1.42112 -0.0741,1.60016 -0.39928,2.15334 -0.19507,0.33184 -0.56927,0.76025 -0.83156,0.95224 -0.26229,0.192 -0.52704,0.39081 -0.58819,0.44176 -0.0611,0.051 0.11561,0.20829 0.39254,0.34957 0.27694,0.14128 0.57854,0.34757 0.6704,0.45825 0.28273,0.34067 0.60543,0.22684 1.15288,-0.40653 0.80969,-0.93677 1.28294,-1.99735 1.37351,-3.0776 l 0.0772,-0.92026 1.1199,0 1.1199,0 0.045,1.65961 c 0.0394,1.45919 0.076,1.69098 0.30309,1.91797 0.35158,0.35145 1.44969,0.53327 2.95266,0.48899 l 1.24683,-0.0367 0.14393,-0.70362 c 0.0791,-0.38699 0.21963,-0.84174 0.31233,-1.01046 0.16581,-0.30178 0.16155,-0.30521 -0.26186,-0.21788 -0.81108,0.16728 -2.47358,0.22299 -2.66932,0.0894 -0.14073,-0.096 -0.20391,-0.44309 -0.23712,-1.30205 -0.0249,-0.64417 0.004,-1.14724 0.064,-1.11765 1.3128,0.64642 2.76188,1.3218 3.24425,1.51194 l 0.61617,0.24287 0.21189,-0.53721 c 0.11656,-0.29556 0.37801,-0.74645 0.58094,-1.00197 0.41413,-0.52145 0.38466,-0.62219 -0.18365,-0.62491 -0.83788,-0.004 -3.78472,-0.91466 -3.78472,-1.16963 0,-0.18659 1.84752,-1.53253 2.20057,-1.60314 0.71025,-0.14205 0.62608,-0.29944 -0.74435,-1.39 l -0.39904,-0.31733 -1.17562,1.15363 c -0.64672,0.63453 -1.27597,1.15363 -1.39825,1.15363 -0.12228,0 -0.43648,-0.21929 -0.69813,-0.48723 l -0.47574,-0.48724 0.80157,-0.63716 c 1.16434,-0.92577 1.54277,-1.17539 1.92997,-1.27257 0.53671,-0.1347 0.51861,-0.26379 -0.0957,-0.67839 -0.31313,-0.21133 -0.73126,-0.50349 -0.92901,-0.6494 l -0.35955,-0.26536 z m -15.03194,0.95924 0,0.83155 -2.5e-4,0.83155 3.08134,-0.0365 3.0811,-0.0365 -0.29309,0.52147 c -0.16118,0.28677 -0.55992,0.81927 -0.88602,1.18337 l -0.59294,0.66189 -0.43601,-0.50448 c -0.23982,-0.27749 -0.6168,-0.70519 -0.8378,-0.95049 l -0.40179,-0.44601 -0.71761,0.61317 c -0.67932,0.58036 -0.86825,0.84905 -0.59693,0.84905 0.0663,0 0.4754,0.32841 0.90901,0.72985 l 0.78833,0.72986 -0.30134,0.24412 c -0.58565,0.47449 -2.57654,1.37147 -4.07532,1.83602 -0.14453,0.0448 -0.0934,0.14431 0.20664,0.40278 0.21913,0.18875 0.55759,0.55995 0.75235,0.82506 l 0.35431,0.48199 0.97448,-0.52947 c 0.536,-0.2912 1.44389,-0.8391 2.01766,-1.21759 1.0394,-0.68563 1.04702,-0.68813 2.05041,-0.68813 l 1.00721,0 -0.0905,0.99146 c -0.0496,0.54531 -0.0942,1.06972 -0.0992,1.16538 -0.007,0.1418 -0.44514,0.16527 -2.36898,0.12718 l -2.35999,-0.0467 -0.0839,0.83231 c -0.0767,0.76096 -0.47546,3.3262 -0.63666,4.09455 l -0.0672,0.31983 2.52365,0 2.52365,0 -0.0328,0.70362 c -0.0709,1.52502 -0.26209,2.35062 -0.61792,2.66632 -0.3119,0.27672 -0.4285,0.29618 -1.53243,0.25586 -0.65713,-0.024 -1.19467,-0.0271 -1.19461,-0.007 5e-5,0.0204 0.11514,0.26287 0.25586,0.53872 0.14073,0.27584 0.25659,0.63345 0.25762,0.79457 10e-4,0.16112 0.0373,0.42546 0.0807,0.58768 0.0742,0.27703 0.12269,0.28991 0.79782,0.21214 1.0636,-0.12252 2.0721,-0.40069 2.44045,-0.67339 0.85485,-0.63287 1.05251,-1.28022 1.35077,-4.42163 0.10598,-1.11619 0.22431,-2.08047 0.26286,-2.14285 0.0399,-0.0645 -1.04112,-0.11344 -2.50615,-0.11344 l -2.57637,0 0.0672,-0.35181 c 0.037,-0.1935 0.10552,-0.66074 0.15217,-1.03844 l 0.085,-0.68688 2.40746,0.0517 2.40721,0.052 0.0765,-1.09216 c 0.12229,-1.74691 0.34268,-3.99367 0.40853,-4.16527 0.0465,-0.12114 -0.21317,-0.14237 -1.1149,-0.091 l -1.17587,0.0672 0.79607,-0.94624 c 0.4378,-0.52041 1.01336,-1.32044 1.27906,-1.7778 0.45753,-0.78752 1.02839,-1.98595 1.02846,-2.15909 1e-5,-0.0438 -1.98615,-0.0797 -4.41364,-0.0797 l -4.41363,0 z m 14.81906,11.03008 c -0.5622,10e-6 -1.17803,0.003 -1.82178,0.007 l -4.68173,0.0352 -2.6e-4,0.79632 0,0.79658 3.3582,-0.074 c 1.8471,-0.0407 3.38026,-0.0575 3.40692,-0.037 0.0777,0.0596 -0.81889,1.87279 -1.08717,2.19857 l -0.24437,0.29659 -1.8515,-0.90426 c -1.01837,-0.49734 -1.92272,-0.90427 -2.00968,-0.90427 -0.087,0 -0.3617,0.30224 -0.61067,0.67164 l -0.45275,0.67164 0.35331,0.15317 c 0.19433,0.0842 0.90854,0.39001 1.58715,0.67963 1.84529,0.78756 1.84632,0.7888 0.93474,1.24809 -0.90296,0.45495 -2.47018,0.95829 -3.67427,1.17986 l -0.86604,0.15942 0.48624,0.52872 c 0.26741,0.29081 0.56409,0.71726 0.65914,0.94774 0.14069,0.3411 0.2232,0.40355 0.44377,0.33557 0.42501,-0.13099 4.30537,-2.0375 4.89238,-2.40372 l 0.52746,-0.32907 0.81582,0.52547 c 0.44864,0.28907 1.28665,0.8926 1.86225,1.34103 0.5756,0.44843 1.06896,0.81531 1.09641,0.81531 0.0655,0 1.37501,-1.63501 1.37501,-1.71683 0,-0.0983 -3.1,-1.82735 -3.93564,-2.19507 -0.0185,-0.008 0.22439,-0.39993 0.53996,-0.87053 0.81716,-1.2186 1.95195,-3.66547 1.80803,-3.89866 -0.021,-0.034 -1.22434,-0.0543 -2.91094,-0.0542 z"
       style="fill:#000000;fill-opacity:0.05882353" />
    <path
       style="fill:#000000;fill-opacity:0.11764706"
       d="m 413.96951,510.29807 -1.12714,1.09542 c -0.61994,0.60244 -1.19542,1.07248 -1.27882,1.04468 -0.0834,-0.0278 -0.39858,-0.51657 -0.70062,-1.08616 l -0.5492,-1.03545 -0.73061,0.32783 c -0.40188,0.18033 -0.77948,0.37173 -0.83906,0.42527 -0.24862,0.22342 1.98759,3.23936 3.26975,4.40988 l 0.80432,0.73436 -2.06614,-0.0625 -2.06614,-0.0622 -0.0447,1.54992 c -0.0409,1.42112 -0.0741,1.60016 -0.39928,2.15334 -0.19507,0.33184 -0.56927,0.76025 -0.83156,0.95224 -0.26229,0.192 -0.52704,0.39081 -0.58819,0.44176 -0.0611,0.051 0.11561,0.20829 0.39254,0.34957 0.27694,0.14128 0.57854,0.34757 0.6704,0.45825 0.28273,0.34067 0.60543,0.22684 1.15288,-0.40653 0.80969,-0.93677 1.28294,-1.99735 1.37351,-3.0776 l 0.0772,-0.92026 1.1199,0 1.1199,0 0.045,1.65961 c 0.0394,1.45919 0.076,1.69098 0.30309,1.91797 0.35158,0.35145 1.44969,0.53327 2.95266,0.48899 l 1.24683,-0.0367 0.14393,-0.70362 c 0.0791,-0.38699 0.21963,-0.84174 0.31233,-1.01046 0.16581,-0.30178 0.16155,-0.30521 -0.26186,-0.21788 -0.81108,0.16728 -2.47358,0.22299 -2.66932,0.0894 -0.14073,-0.096 -0.20391,-0.44309 -0.23712,-1.30205 -0.0249,-0.64417 0.004,-1.14724 0.064,-1.11765 1.3128,0.64642 2.76188,1.3218 3.24425,1.51194 l 0.61617,0.24287 0.21189,-0.53721 c 0.11656,-0.29556 0.37801,-0.74645 0.58094,-1.00197 0.41413,-0.52145 0.38466,-0.62219 -0.18365,-0.62491 -0.83788,-0.004 -3.78472,-0.91466 -3.78472,-1.16963 0,-0.18659 1.84752,-1.53253 2.20057,-1.60314 0.71025,-0.14205 0.62608,-0.29944 -0.74435,-1.39 l -0.39904,-0.31733 -1.17562,1.15363 c -0.64672,0.63453 -1.27597,1.15363 -1.39825,1.15363 -0.12228,0 -0.43648,-0.21929 -0.69813,-0.48723 l -0.47574,-0.48724 0.80157,-0.63716 c 1.16434,-0.92577 1.54277,-1.17539 1.92997,-1.27257 0.53671,-0.1347 0.51861,-0.26379 -0.0957,-0.67839 -0.31313,-0.21133 -0.73126,-0.50349 -0.92901,-0.6494 l -0.35955,-0.26536 z m -15.03194,0.95924 0,0.83155 -2.5e-4,0.83155 3.08134,-0.0365 3.0811,-0.0365 -0.29309,0.52147 c -0.16118,0.28677 -0.55992,0.81927 -0.88602,1.18337 l -0.59294,0.66189 -0.43601,-0.50448 c -0.23982,-0.27749 -0.6168,-0.70519 -0.8378,-0.95049 l -0.40179,-0.44601 -0.71761,0.61317 c -0.67932,0.58036 -0.86825,0.84905 -0.59693,0.84905 0.0663,0 0.4754,0.32841 0.90901,0.72985 l 0.78833,0.72986 -0.30134,0.24412 c -0.58565,0.47449 -2.57654,1.37147 -4.07532,1.83602 -0.14453,0.0448 -0.0934,0.14431 0.20664,0.40278 0.21913,0.18875 0.55759,0.55995 0.75235,0.82506 l 0.35431,0.48199 0.97448,-0.52947 c 0.536,-0.2912 1.44389,-0.8391 2.01766,-1.21759 1.0394,-0.68563 1.04702,-0.68813 2.05041,-0.68813 l 1.00721,0 -0.0905,0.99146 c -0.0496,0.54531 -0.0942,1.06972 -0.0992,1.16538 -0.007,0.1418 -0.44514,0.16527 -2.36898,0.12718 l -2.35999,-0.0467 -0.0839,0.83231 c -0.0767,0.76096 -0.47546,3.3262 -0.63666,4.09455 l -0.0672,0.31983 2.52365,0 2.52365,0 -0.0328,0.70362 c -0.0709,1.52502 -0.26209,2.35062 -0.61792,2.66632 -0.3119,0.27672 -0.4285,0.29618 -1.53243,0.25586 -0.65713,-0.024 -1.19467,-0.0271 -1.19461,-0.007 5e-5,0.0204 0.11514,0.26287 0.25586,0.53872 0.14073,0.27584 0.25659,0.63345 0.25762,0.79457 10e-4,0.16112 0.0373,0.42546 0.0807,0.58768 0.0742,0.27703 0.12269,0.28991 0.79782,0.21214 1.0636,-0.12252 2.0721,-0.40069 2.44045,-0.67339 0.85485,-0.63287 1.05251,-1.28022 1.35077,-4.42163 0.10598,-1.11619 0.22431,-2.08047 0.26286,-2.14285 0.0399,-0.0645 -1.04112,-0.11344 -2.50615,-0.11344 l -2.57637,0 0.0672,-0.35181 c 0.037,-0.1935 0.10552,-0.66074 0.15217,-1.03844 l 0.085,-0.68688 2.40746,0.0517 2.40721,0.052 0.0765,-1.09216 c 0.12229,-1.74691 0.34268,-3.99367 0.40853,-4.16527 0.0465,-0.12114 -0.21317,-0.14237 -1.1149,-0.091 l -1.17587,0.0672 0.79607,-0.94624 c 0.4378,-0.52041 1.01336,-1.32044 1.27906,-1.7778 0.45753,-0.78752 1.02839,-1.98595 1.02846,-2.15909 1e-5,-0.0438 -1.98615,-0.0797 -4.41364,-0.0797 l -4.41363,0 z m 14.81906,11.03008 c -0.5622,1e-5 -1.17803,0.003 -1.82178,0.007 l -4.68173,0.0352 -2.6e-4,0.79632 0,0.79658 3.3582,-0.074 c 1.8471,-0.0407 3.38026,-0.0575 3.40692,-0.037 0.0777,0.0596 -0.81889,1.87279 -1.08717,2.19857 l -0.24437,0.29659 -1.8515,-0.90426 c -1.01837,-0.49734 -1.92272,-0.90427 -2.00968,-0.90427 -0.087,0 -0.3617,0.30224 -0.61067,0.67164 l -0.45275,0.67164 0.35331,0.15317 c 0.19433,0.0842 0.90854,0.39001 1.58715,0.67963 1.84529,0.78756 1.84632,0.7888 0.93474,1.24809 -0.90296,0.45495 -2.47018,0.95829 -3.67427,1.17986 l -0.86604,0.15942 0.48624,0.52872 c 0.26741,0.29081 0.56409,0.71726 0.65914,0.94774 0.14069,0.3411 0.2232,0.40355 0.44377,0.33557 0.42501,-0.13099 4.30537,-2.0375 4.89238,-2.40372 l 0.52746,-0.32907 0.81582,0.52547 c 0.44864,0.28907 1.28665,0.8926 1.86225,1.34103 0.5756,0.44843 1.06896,0.81531 1.09641,0.81531 0.0655,0 1.37501,-1.63501 1.37501,-1.71683 0,-0.0983 -3.1,-1.82735 -3.93564,-2.19507 -0.0185,-0.008 0.22439,-0.39993 0.53996,-0.87053 0.81716,-1.2186 1.95195,-3.66547 1.80803,-3.89866 -0.021,-0.034 -1.22434,-0.0543 -2.91094,-0.0542 z"
       id="path4219"
       inkscape:connector-curvature="0" />
    <path
       inkscape:connector-curvature="0"
       id="path4217"
       d="m 413.96951,509.89807 -1.12714,1.09542 c -0.61994,0.60244 -1.19542,1.07248 -1.27882,1.04468 -0.0834,-0.0278 -0.39858,-0.51657 -0.70062,-1.08616 l -0.5492,-1.03545 -0.73061,0.32783 c -0.40188,0.18033 -0.77948,0.37173 -0.83906,0.42527 -0.24862,0.22342 1.98759,3.23936 3.26975,4.40988 l 0.80432,0.73436 -2.06614,-0.0625 -2.06614,-0.0622 -0.0447,1.54992 c -0.0409,1.42112 -0.0741,1.60016 -0.39928,2.15334 -0.19507,0.33184 -0.56927,0.76025 -0.83156,0.95224 -0.26229,0.192 -0.52704,0.39081 -0.58819,0.44176 -0.0611,0.051 0.11561,0.20829 0.39254,0.34957 0.27694,0.14128 0.57854,0.34757 0.6704,0.45825 0.28273,0.34067 0.60543,0.22684 1.15288,-0.40653 0.80969,-0.93677 1.28294,-1.99735 1.37351,-3.0776 l 0.0772,-0.92026 1.1199,0 1.1199,0 0.045,1.65961 c 0.0394,1.45919 0.076,1.69098 0.30309,1.91797 0.35158,0.35145 1.44969,0.53327 2.95266,0.48899 l 1.24683,-0.0367 0.14393,-0.70362 c 0.0791,-0.38699 0.21963,-0.84174 0.31233,-1.01046 0.16581,-0.30178 0.16155,-0.30521 -0.26186,-0.21788 -0.81108,0.16728 -2.47358,0.22299 -2.66932,0.0894 -0.14073,-0.096 -0.20391,-0.44309 -0.23712,-1.30205 -0.0249,-0.64417 0.004,-1.14724 0.064,-1.11765 1.3128,0.64642 2.76188,1.3218 3.24425,1.51194 l 0.61617,0.24287 0.21189,-0.53721 c 0.11656,-0.29556 0.37801,-0.74645 0.58094,-1.00197 0.41413,-0.52145 0.38466,-0.62219 -0.18365,-0.62491 -0.83788,-0.004 -3.78472,-0.91466 -3.78472,-1.16963 0,-0.18659 1.84752,-1.53253 2.20057,-1.60314 0.71025,-0.14205 0.62608,-0.29944 -0.74435,-1.39 l -0.39904,-0.31733 -1.17562,1.15363 c -0.64672,0.63453 -1.27597,1.15363 -1.39825,1.15363 -0.12228,0 -0.43648,-0.21929 -0.69813,-0.48723 l -0.47574,-0.48724 0.80157,-0.63716 c 1.16434,-0.92577 1.54277,-1.17539 1.92997,-1.27257 0.53671,-0.1347 0.51861,-0.26379 -0.0957,-0.67839 -0.31313,-0.21133 -0.73126,-0.50349 -0.92901,-0.6494 l -0.35955,-0.26536 z m -15.03194,0.95924 0,0.83155 -2.5e-4,0.83155 3.08134,-0.0365 3.0811,-0.0365 -0.29309,0.52147 c -0.16118,0.28677 -0.55992,0.81927 -0.88602,1.18337 l -0.59294,0.66189 -0.43601,-0.50448 c -0.23982,-0.27749 -0.6168,-0.70519 -0.8378,-0.95049 l -0.40179,-0.44601 -0.71761,0.61317 c -0.67932,0.58036 -0.86825,0.84905 -0.59693,0.84905 0.0663,0 0.4754,0.32841 0.90901,0.72985 l 0.78833,0.72986 -0.30134,0.24412 c -0.58565,0.47449 -2.57654,1.37147 -4.07532,1.83602 -0.14453,0.0448 -0.0934,0.14431 0.20664,0.40278 0.21913,0.18875 0.55759,0.55995 0.75235,0.82506 l 0.35431,0.48199 0.97448,-0.52947 c 0.536,-0.2912 1.44389,-0.8391 2.01766,-1.21759 1.0394,-0.68563 1.04702,-0.68813 2.05041,-0.68813 l 1.00721,0 -0.0905,0.99146 c -0.0496,0.54531 -0.0942,1.06972 -0.0992,1.16538 -0.007,0.1418 -0.44514,0.16527 -2.36898,0.12718 l -2.35999,-0.0467 -0.0839,0.83231 c -0.0767,0.76096 -0.47546,3.3262 -0.63666,4.09455 l -0.0672,0.31983 2.52365,0 2.52365,0 -0.0328,0.70362 c -0.0709,1.52502 -0.26209,2.35062 -0.61792,2.66632 -0.3119,0.27672 -0.4285,0.29618 -1.53243,0.25586 -0.65713,-0.024 -1.19467,-0.0271 -1.19461,-0.007 5e-5,0.0204 0.11514,0.26287 0.25586,0.53872 0.14073,0.27584 0.25659,0.63345 0.25762,0.79457 10e-4,0.16112 0.0373,0.42546 0.0807,0.58768 0.0742,0.27703 0.12269,0.28991 0.79782,0.21214 1.0636,-0.12252 2.0721,-0.40069 2.44045,-0.67339 0.85485,-0.63287 1.05251,-1.28022 1.35077,-4.42163 0.10598,-1.11619 0.22431,-2.08047 0.26286,-2.14285 0.0399,-0.0645 -1.04112,-0.11344 -2.50615,-0.11344 l -2.57637,0 0.0672,-0.35181 c 0.037,-0.1935 0.10552,-0.66074 0.15217,-1.03844 l 0.085,-0.68688 2.40746,0.0517 2.40721,0.052 0.0765,-1.09216 c 0.12229,-1.74691 0.34268,-3.99367 0.40853,-4.16527 0.0465,-0.12114 -0.21317,-0.14237 -1.1149,-0.091 l -1.17587,0.0672 0.79607,-0.94624 c 0.4378,-0.52041 1.01336,-1.32044 1.27906,-1.7778 0.45753,-0.78752 1.02839,-1.98595 1.02846,-2.15909 1e-5,-0.0438 -1.98615,-0.0797 -4.41364,-0.0797 l -4.41363,0 z m 14.81906,11.03008 c -0.5622,10e-6 -1.17803,0.003 -1.82178,0.007 l -4.68173,0.0352 -2.6e-4,0.79632 0,0.79658 3.3582,-0.074 c 1.8471,-0.0407 3.38026,-0.0575 3.40692,-0.037 0.0777,0.0596 -0.81889,1.87279 -1.08717,2.19857 l -0.24437,0.29659 -1.8515,-0.90426 c -1.01837,-0.49734 -1.92272,-0.90427 -2.00968,-0.90427 -0.087,0 -0.3617,0.30224 -0.61067,0.67164 l -0.45275,0.67164 0.35331,0.15317 c 0.19433,0.0842 0.90854,0.39001 1.58715,0.67963 1.84529,0.78756 1.84632,0.7888 0.93474,1.24809 -0.90296,0.45495 -2.47018,0.95829 -3.67427,1.17986 l -0.86604,0.15942 0.48624,0.52872 c 0.26741,0.29081 0.56409,0.71726 0.65914,0.94774 0.14069,0.3411 0.2232,0.40355 0.44377,0.33557 0.42501,-0.13099 4.30537,-2.0375 4.89238,-2.40372 l 0.52746,-0.32907 0.81582,0.52547 c 0.44864,0.28907 1.28665,0.8926 1.86225,1.34103 0.5756,0.44843 1.06896,0.81531 1.09641,0.81531 0.0655,0 1.37501,-1.63501 1.37501,-1.71683 0,-0.0983 -3.1,-1.82735 -3.93564,-2.19507 -0.0185,-0.008 0.22439,-0.39993 0.53996,-0.87053 0.81716,-1.2186 1.95195,-3.66547 1.80803,-3.89866 -0.021,-0.034 -1.22434,-0.0543 -2.91094,-0.0542 z"
       style="fill:#000000;fill-opacity:0.23529412" />
    <path
       style="fill:url(#linearGradient4203);fill-opacity:1;fill-rule:evenodd;stroke:none"
       d="M 0 37 L 0 46.054688 C 0 47.131965 0.86803535 48 1.9453125 48 L 46.054688 48 C 47.131965 48 48 47.131965 48 46.054688 L 48 37 L 0 37 z "
       transform="translate(384.57143,499.798)"
       id="rect3368" />
    <path
       inkscape:connector-curvature="0"
       style="fill:#ffffff;fill-opacity:0.5372549;stroke:none"
       d="m 387.10268,500.45429 c -0.91709,0 -1.67115,0.6395 -1.84375,1.5 0.33561,-0.2799 0.77451,-0.4375 1.25,-0.4375 l 44.125,0 c 0.47549,0 0.91439,0.1576 1.25,0.4375 -0.1726,-0.8605 -0.92666,-1.5 -1.84375,-1.5 l -42.9375,0 z"
       id="path7515" />
    <rect
       style="fill:#ade728;fill-opacity:1;fill-rule:evenodd;stroke:none;opacity:0.5"
       id="rect4205"
       width="48"
       height="1"
       x="384.57144"
       y="536.79797"
       ry="0" />
    <rect
       ry="0"
       y="535.79797"
       x="384.57144"
       height="1"
       width="48"
       id="rect4207"
       style="fill:#5c9208;fill-opacity:1;fill-rule:evenodd;stroke:none;opacity:0.75" />
    <path
       style="fill:url(#linearGradient4244);fill-opacity:1;fill-rule:evenodd;stroke:none;opacity:0.6"
       d="M 1.9453125 0 C 0.86803535 0 0 0.86803535 0 1.9453125 L 0 46.054688 C 0 47.131965 0.86803535 48 1.9453125 48 L 11 48 L 11 0 L 1.9453125 0 z "
       transform="translate(384.57143,499.798)"
       id="rect4233" />
    <path
       style="fill:#3f493e;fill-opacity:1"
       d="m 413.96951,509.39805 -1.12714,1.09542 c -0.61994,0.60244 -1.19542,1.07248 -1.27882,1.04468 -0.0834,-0.0278 -0.39858,-0.51657 -0.70062,-1.08616 l -0.5492,-1.03545 -0.73061,0.32783 c -0.40188,0.18033 -0.77948,0.37173 -0.83906,0.42527 -0.24862,0.22342 1.98759,3.23936 3.26975,4.40988 l 0.80432,0.73436 -2.06614,-0.0625 -2.06614,-0.0622 -0.0447,1.54992 c -0.0409,1.42112 -0.0741,1.60016 -0.39928,2.15334 -0.19507,0.33184 -0.56927,0.76025 -0.83156,0.95224 -0.26229,0.192 -0.52704,0.39081 -0.58819,0.44176 -0.0611,0.051 0.11561,0.20829 0.39254,0.34957 0.27694,0.14128 0.57854,0.34757 0.6704,0.45825 0.28273,0.34067 0.60543,0.22684 1.15288,-0.40653 0.80969,-0.93677 1.28294,-1.99735 1.37351,-3.0776 l 0.0772,-0.92026 1.1199,0 1.1199,0 0.045,1.65961 c 0.0394,1.45919 0.076,1.69098 0.30309,1.91797 0.35158,0.35145 1.44969,0.53327 2.95266,0.48899 l 1.24683,-0.0367 0.14393,-0.70362 c 0.0791,-0.38699 0.21963,-0.84174 0.31233,-1.01046 0.16581,-0.30178 0.16155,-0.30521 -0.26186,-0.21788 -0.81108,0.16728 -2.47358,0.22299 -2.66932,0.0894 -0.14073,-0.096 -0.20391,-0.44309 -0.23712,-1.30205 -0.0249,-0.64417 0.004,-1.14724 0.064,-1.11765 1.3128,0.64642 2.76188,1.3218 3.24425,1.51194 l 0.61617,0.24287 0.21189,-0.53721 c 0.11656,-0.29556 0.37801,-0.74645 0.58094,-1.00197 0.41413,-0.52145 0.38466,-0.62219 -0.18365,-0.62491 -0.83788,-0.004 -3.78472,-0.91466 -3.78472,-1.16963 0,-0.18659 1.84752,-1.53253 2.20057,-1.60314 0.71025,-0.14205 0.62608,-0.29944 -0.74435,-1.39 l -0.39904,-0.31733 -1.17562,1.15363 c -0.64672,0.63453 -1.27597,1.15363 -1.39825,1.15363 -0.12228,0 -0.43648,-0.21929 -0.69813,-0.48723 l -0.47574,-0.48724 0.80157,-0.63716 c 1.16434,-0.92577 1.54277,-1.17539 1.92997,-1.27257 0.53671,-0.1347 0.51861,-0.26379 -0.0957,-0.67839 -0.31313,-0.21133 -0.73126,-0.50349 -0.92901,-0.6494 l -0.35955,-0.26536 z m -15.03194,0.95924 0,0.83155 -2.5e-4,0.83155 3.08134,-0.0365 3.0811,-0.0365 -0.29309,0.52147 c -0.16118,0.28677 -0.55992,0.81927 -0.88602,1.18337 l -0.59294,0.66189 -0.43601,-0.50448 c -0.23982,-0.27749 -0.6168,-0.70519 -0.8378,-0.95049 l -0.40179,-0.44601 -0.71761,0.61317 c -0.67932,0.58036 -0.86825,0.84905 -0.59693,0.84905 0.0663,0 0.4754,0.32841 0.90901,0.72985 l 0.78833,0.72986 -0.30134,0.24412 c -0.58565,0.47449 -2.57654,1.37147 -4.07532,1.83602 -0.14453,0.0448 -0.0934,0.14431 0.20664,0.40278 0.21913,0.18875 0.55759,0.55995 0.75235,0.82506 l 0.35431,0.48199 0.97448,-0.52947 c 0.536,-0.2912 1.44389,-0.8391 2.01766,-1.21759 1.0394,-0.68563 1.04702,-0.68813 2.05041,-0.68813 l 1.00721,0 -0.0905,0.99146 c -0.0496,0.54531 -0.0942,1.06972 -0.0992,1.16538 -0.007,0.1418 -0.44514,0.16527 -2.36898,0.12718 l -2.35999,-0.0467 -0.0839,0.83231 c -0.0767,0.76096 -0.47546,3.3262 -0.63666,4.09455 l -0.0672,0.31983 2.52365,0 2.52365,0 -0.0328,0.70362 c -0.0709,1.52502 -0.26209,2.35062 -0.61792,2.66632 -0.3119,0.27672 -0.4285,0.29618 -1.53243,0.25586 -0.65713,-0.024 -1.19467,-0.0271 -1.19461,-0.007 5e-5,0.0204 0.11514,0.26287 0.25586,0.53872 0.14073,0.27584 0.25659,0.63345 0.25762,0.79457 10e-4,0.16112 0.0373,0.42546 0.0807,0.58768 0.0742,0.27703 0.12269,0.28991 0.79782,0.21214 1.0636,-0.12252 2.0721,-0.40069 2.44045,-0.67339 0.85485,-0.63287 1.05251,-1.28022 1.35077,-4.42163 0.10598,-1.11619 0.22431,-2.08047 0.26286,-2.14285 0.0399,-0.0645 -1.04112,-0.11344 -2.50615,-0.11344 l -2.57637,0 0.0672,-0.35181 c 0.037,-0.1935 0.10552,-0.66074 0.15217,-1.03844 l 0.085,-0.68688 2.40746,0.0517 2.40721,0.052 0.0765,-1.09216 c 0.12229,-1.74691 0.34268,-3.99367 0.40853,-4.16527 0.0465,-0.12114 -0.21317,-0.14237 -1.1149,-0.091 l -1.17587,0.0672 0.79607,-0.94624 c 0.4378,-0.52041 1.01336,-1.32044 1.27906,-1.7778 0.45753,-0.78752 1.02839,-1.98595 1.02846,-2.15909 1e-5,-0.0438 -1.98615,-0.0797 -4.41364,-0.0797 l -4.41363,0 z m 14.81906,11.03008 c -0.5622,10e-6 -1.17803,0.003 -1.82178,0.007 l -4.68173,0.0352 -2.6e-4,0.79632 0,0.79658 3.3582,-0.074 c 1.8471,-0.0407 3.38026,-0.0575 3.40692,-0.037 0.0777,0.0596 -0.81889,1.87279 -1.08717,2.19857 l -0.24437,0.29659 -1.8515,-0.90426 c -1.01837,-0.49734 -1.92272,-0.90427 -2.00968,-0.90427 -0.087,0 -0.3617,0.30224 -0.61067,0.67164 l -0.45275,0.67164 0.35331,0.15317 c 0.19433,0.0842 0.90854,0.39001 1.58715,0.67963 1.84529,0.78756 1.84632,0.7888 0.93474,1.24809 -0.90296,0.45495 -2.47018,0.95829 -3.67427,1.17986 l -0.86604,0.15942 0.48624,0.52872 c 0.26741,0.29081 0.56409,0.71726 0.65914,0.94774 0.14069,0.3411 0.2232,0.40355 0.44377,0.33557 0.42501,-0.13099 4.30537,-2.0375 4.89238,-2.40372 l 0.52746,-0.32907 0.81582,0.52547 c 0.44864,0.28907 1.28665,0.8926 1.86225,1.34103 0.5756,0.44843 1.06896,0.81531 1.09641,0.81531 0.0655,0 1.37501,-1.63501 1.37501,-1.71683 0,-0.0983 -3.1,-1.82735 -3.93564,-2.19507 -0.0185,-0.008 0.22439,-0.39993 0.53996,-0.87053 0.81716,-1.2186 1.95195,-3.66547 1.80803,-3.89866 -0.021,-0.034 -1.22434,-0.0543 -2.91094,-0.0542 z"
       id="path3361"
       inkscape:connector-curvature="0" />
    <path
       style="fill:#000000;fill-opacity:0.3137255"
       d="M 24.431641 10.240234 C 24.361097 10.278745 24.190297 10.35454 24.171875 10.371094 C 23.928195 10.590074 26.062955 13.472103 27.355469 14.689453 L 28.246094 14.716797 L 27.441406 13.982422 C 26.492844 13.116453 25.032082 11.2483 24.431641 10.240234 z M 30.603516 10.457031 C 30.26106 10.588109 29.843273 10.877504 28.851562 11.666016 L 28.050781 12.302734 L 28.490234 12.753906 L 28.851562 12.464844 C 30.015902 11.539074 30.396003 11.290539 30.783203 11.193359 C 31.319913 11.058659 31.30181 10.930225 30.6875 10.515625 C 30.659238 10.496551 30.633249 10.477255 30.603516 10.457031 z M 22.876953 10.625 C 22.671855 11.062412 22.409679 11.575281 22.164062 11.998047 C 21.898362 12.455407 21.324519 13.254981 20.886719 13.775391 L 20.089844 14.722656 L 20.798828 14.681641 L 20.886719 14.576172 C 21.324519 14.055762 21.898362 13.254235 22.164062 12.796875 C 22.621593 12.009355 23.193289 10.811812 23.193359 10.638672 C 23.193361 10.633329 22.933258 10.630057 22.876953 10.625 z M 20.529297 11.349609 L 17.447266 11.386719 L 14.365234 11.421875 L 14.365234 12.222656 L 16.634766 12.195312 L 17.080078 11.814453 L 17.414062 12.185547 L 17.447266 12.185547 L 20.042969 12.154297 C 20.108655 12.057634 20.193823 11.943243 20.234375 11.871094 L 20.529297 11.349609 z M 32.923828 12.6875 C 32.547382 12.780203 30.742188 14.096353 30.742188 14.28125 C 30.742188 14.34758 30.949914 14.458365 31.259766 14.585938 C 31.833345 14.126651 32.706081 13.523628 32.941406 13.476562 C 33.489386 13.366967 33.547504 13.236882 32.923828 12.6875 z M 16.087891 13.498047 C 15.713005 13.85453 15.551308 14.078125 15.765625 14.078125 C 15.831925 14.078125 16.242171 14.405201 16.675781 14.806641 L 16.984375 15.091797 C 17.034679 15.057074 17.123485 15.011762 17.162109 14.980469 L 17.462891 14.736328 L 16.675781 14.007812 C 16.461255 13.809202 16.251873 13.629979 16.087891 13.498047 z M 22.292969 15.458984 C 22.197626 16.232352 22.065733 17.580551 21.972656 18.910156 L 21.896484 20.003906 L 19.488281 19.951172 L 17.080078 19.898438 L 16.996094 20.585938 C 16.949444 20.963638 16.88075 21.4315 16.84375 21.625 L 16.777344 21.976562 L 16.910156 21.976562 C 16.94101 21.770678 16.969567 21.601494 16.996094 21.386719 L 17.080078 20.699219 L 19.488281 20.751953 L 21.896484 20.802734 L 21.972656 19.710938 C 22.094946 17.964028 22.315009 15.716522 22.380859 15.544922 C 22.396544 15.504062 22.35984 15.478159 22.292969 15.458984 z M 30.056641 15.859375 C 29.997074 15.829999 29.968239 16.327376 29.992188 16.964844 C 30.0038 16.762254 30.026641 16.645361 30.056641 16.660156 C 31.369441 17.306576 32.818411 17.981735 33.300781 18.171875 L 33.916016 18.414062 L 34.128906 17.876953 C 34.245466 17.581393 34.506054 17.13052 34.708984 16.875 C 35.102756 16.379184 35.080063 16.26835 34.589844 16.255859 C 34.412698 16.513119 34.223767 16.835636 34.128906 17.076172 L 33.916016 17.615234 L 33.300781 17.371094 C 32.818411 17.180954 31.369441 16.505795 30.056641 15.859375 z M 19.443359 16.091797 C 18.439969 16.091797 18.431978 16.093667 17.392578 16.779297 C 16.818808 17.157787 15.911 17.706847 15.375 17.998047 L 14.400391 18.527344 L 14.044922 18.044922 C 13.911209 17.862911 13.719217 17.649587 13.535156 17.460938 C 13.386336 17.511839 13.22757 17.573288 13.085938 17.617188 C 12.941408 17.661988 12.992929 17.761061 13.292969 18.019531 C 13.512099 18.208281 13.850162 18.580593 14.044922 18.845703 L 14.400391 19.326172 L 15.375 18.796875 C 15.405709 18.780191 15.457216 18.744852 15.490234 18.726562 L 15.53125 18.330078 L 16.130859 18.341797 C 16.578441 18.076758 17.033666 17.816836 17.392578 17.580078 C 18.431978 16.894448 18.439969 16.892578 19.443359 16.892578 L 20.376953 16.892578 L 20.449219 16.091797 L 19.443359 16.091797 z M 25.917969 16.091797 L 25.839844 17.011719 C 25.749274 18.091969 25.276487 19.153074 24.466797 20.089844 C 23.919347 20.723214 23.597183 20.836764 23.314453 20.496094 C 23.235912 20.401461 22.998453 20.241449 22.759766 20.107422 C 22.535943 20.272381 22.302817 20.444274 22.25 20.488281 C 22.1889 20.539281 22.365648 20.696611 22.642578 20.837891 C 22.655991 20.844733 22.668139 20.854199 22.681641 20.861328 L 22.681641 20.832031 L 24.521484 20.818359 C 25.294471 19.899052 25.75154 18.865721 25.839844 17.8125 L 25.917969 16.892578 L 27.037109 16.892578 L 28.15625 16.892578 L 28.201172 18.550781 C 28.240572 20.009971 28.278769 20.24176 28.505859 20.46875 C 28.64168 20.60452 28.916914 20.707179 29.255859 20.789062 C 30.8977 20.78964 32.075058 20.810325 32.095703 20.84375 C 32.105082 20.858946 32.09479 20.906408 32.09375 20.939453 L 32.705078 20.921875 L 32.847656 20.21875 C 32.926756 19.83176 33.067456 19.375751 33.160156 19.207031 C 33.311246 18.932043 33.28073 18.920974 32.960938 18.984375 C 32.920371 19.128232 32.876932 19.274738 32.847656 19.417969 L 32.705078 20.121094 L 31.457031 20.158203 C 29.954061 20.202483 28.857439 20.021372 28.505859 19.669922 C 28.278769 19.442932 28.240572 19.211143 28.201172 17.751953 L 28.15625 16.091797 L 27.037109 16.091797 L 25.917969 16.091797 z M 31.882812 21.632812 C 31.540518 22.512712 30.852317 23.902227 30.289062 24.742188 C 29.973493 25.212787 29.729547 25.605281 29.748047 25.613281 C 29.816764 25.64352 30.026689 25.763561 30.123047 25.810547 C 30.200868 25.689566 30.191998 25.687718 30.289062 25.542969 C 31.106223 24.324369 32.239623 21.875768 32.095703 21.642578 C 32.09301 21.638218 31.922913 21.636708 31.882812 21.632812 z M 29.447266 22.314453 C 29.420606 22.293953 27.886163 22.308909 26.039062 22.349609 L 22.681641 22.423828 L 22.681641 22.427734 L 22.681641 23.224609 L 24.011719 23.195312 C 24.121068 23.075446 24.210787 23 24.253906 23 C 24.283398 23 24.509139 23.098428 24.699219 23.179688 L 26.039062 23.150391 C 27.711506 23.113539 28.852554 23.104904 29.125 23.117188 C 29.322773 22.703814 29.480491 22.339939 29.447266 22.314453 z M 21.763672 22.865234 C 21.709926 23.258911 21.663328 23.520194 21.595703 24.232422 C 21.297443 27.373832 21.100944 28.021427 20.246094 28.654297 C 19.877744 28.926997 18.868288 29.205605 17.804688 29.328125 C 17.129557 29.405895 17.082013 29.392264 17.007812 29.115234 C 16.964413 28.953014 16.926781 28.688464 16.925781 28.527344 C 16.925058 28.414153 16.85827 28.206757 16.775391 27.996094 C 16.68783 27.997981 16.412091 27.988032 16.412109 27.994141 C 16.412159 28.014541 16.527249 28.257353 16.667969 28.533203 C 16.808699 28.809043 16.924751 29.167005 16.925781 29.328125 C 16.926781 29.489245 16.964413 29.753796 17.007812 29.916016 C 17.082013 30.193046 17.129557 30.204723 17.804688 30.126953 C 18.868288 30.004433 19.877744 29.727778 20.246094 29.455078 C 21.100944 28.822208 21.297443 28.174613 21.595703 25.033203 C 21.701683 23.917013 21.820825 22.953005 21.859375 22.890625 C 21.864994 22.881541 21.800461 22.873608 21.763672 22.865234 z M 14.892578 23.576172 C 14.868073 23.709712 14.829431 23.96663 14.810547 24.056641 L 14.744141 24.375 L 17.267578 24.375 L 19.75 24.375 C 19.751805 24.339831 19.756141 24.315241 19.757812 24.279297 L 19.791016 23.576172 L 17.267578 23.576172 L 14.892578 23.576172 z M 23.607422 24.523438 L 23.189453 25.142578 L 23.542969 25.296875 C 23.737299 25.381075 24.452249 25.686942 25.130859 25.976562 C 25.556382 26.158173 25.860757 26.291054 26.101562 26.404297 C 26.965156 25.9686 26.943604 25.949451 25.130859 25.175781 C 24.479757 24.897901 23.833437 24.621087 23.607422 24.523438 z M 28.535156 26.84375 L 28.005859 27.171875 C 27.418849 27.538095 23.540244 29.445182 23.115234 29.576172 C 22.894664 29.644152 22.810612 29.581334 22.669922 29.240234 C 22.589989 29.046412 22.364515 28.724959 22.136719 28.451172 L 21.525391 28.564453 L 22.011719 29.091797 C 22.279129 29.382607 22.574872 29.808583 22.669922 30.039062 C 22.810612 30.380162 22.894664 30.44298 23.115234 30.375 C 23.540244 30.24401 27.418849 28.338876 28.005859 27.972656 L 28.535156 27.642578 L 29.349609 28.167969 C 29.798249 28.457039 30.637291 29.061336 31.212891 29.509766 C 31.788491 29.958196 32.281144 30.324219 32.308594 30.324219 C 32.374094 30.324219 33.683594 28.689242 33.683594 28.607422 C 33.683594 28.587762 33.490241 28.46798 33.285156 28.341797 C 32.895969 28.850588 32.354423 29.525391 32.308594 29.525391 C 32.281144 29.525391 31.788491 29.157414 31.212891 28.708984 C 30.637291 28.260554 29.798249 27.658211 29.349609 27.369141 L 28.535156 26.84375 z "
       transform="translate(384.57143,499.798)"
       id="path4223" />
    <path
       style="fill:#ffffff;fill-opacity:0.23529412"
       d="M 29.398438 9.5996094 L 28.271484 10.695312 C 27.651544 11.297753 27.075587 11.768034 26.992188 11.740234 C 26.908788 11.712434 26.593056 11.223887 26.291016 10.654297 L 25.742188 9.6191406 L 25.011719 9.9472656 C 24.609839 10.127596 24.231455 10.317554 24.171875 10.371094 C 24.129753 10.408946 24.179867 10.548997 24.263672 10.724609 C 24.375598 10.651642 24.65383 10.506294 25.011719 10.345703 L 25.742188 10.019531 L 26.291016 11.054688 C 26.593056 11.624278 26.908788 12.112825 26.992188 12.140625 C 27.075587 12.168425 27.651544 11.698143 28.271484 11.095703 L 29.398438 10 L 29.757812 10.265625 C 29.955562 10.411535 30.37437 10.702733 30.6875 10.914062 C 30.812093 10.99815 30.894815 11.063925 30.970703 11.126953 C 31.274332 11.008898 31.204847 10.864784 30.6875 10.515625 C 30.37437 10.304295 29.955562 10.011144 29.757812 9.8652344 L 29.398438 9.5996094 z M 14.365234 10.558594 L 14.365234 10.958984 L 18.779297 10.958984 C 21.058688 10.958984 22.813001 10.991125 23.035156 11.03125 C 23.087693 10.899457 23.193343 10.678683 23.193359 10.638672 C 23.193369 10.594872 21.206787 10.558594 18.779297 10.558594 L 14.365234 10.558594 z M 31.798828 11.769531 L 30.623047 12.923828 C 29.976327 13.558358 29.346889 14.078125 29.224609 14.078125 C 29.102329 14.078125 28.788994 13.857784 28.527344 13.589844 L 28.269531 13.328125 L 28.050781 13.501953 L 28.527344 13.990234 C 28.788994 14.258174 29.102329 14.476562 29.224609 14.476562 C 29.346889 14.476562 29.976327 13.958749 30.623047 13.324219 L 31.798828 12.169922 L 32.197266 12.488281 C 32.751678 12.929471 33.046941 13.192164 33.212891 13.388672 C 33.547884 13.243288 33.321143 12.982249 32.197266 12.087891 L 31.798828 11.769531 z M 20.529297 12.548828 L 20.300781 12.550781 L 20.234375 12.669922 C 20.073195 12.956692 19.675709 13.489416 19.349609 13.853516 L 18.755859 14.515625 L 18.320312 14.011719 C 18.080492 13.734229 17.703422 13.305847 17.482422 13.060547 L 17.080078 12.615234 L 16.363281 13.228516 C 15.683961 13.808876 15.494305 14.078125 15.765625 14.078125 C 15.774195 14.078125 15.828319 14.12239 15.847656 14.132812 C 15.964926 13.998323 16.095854 13.857376 16.363281 13.628906 L 17.080078 13.015625 L 17.482422 13.460938 C 17.703422 13.706237 18.080492 14.134619 18.320312 14.412109 L 18.755859 14.916016 L 19.349609 14.253906 C 19.675709 13.889806 20.073195 13.357083 20.234375 13.070312 L 20.529297 12.548828 z M 30.957031 15.246094 C 30.853036 15.34354 30.742188 15.446188 30.742188 15.480469 C 30.742188 15.735439 33.687511 16.646391 34.525391 16.650391 C 34.666627 16.651067 34.775424 16.658044 34.851562 16.675781 C 35.080876 16.341245 35.00426 16.252292 34.525391 16.25 C 33.818905 16.246627 31.631493 15.602082 30.957031 15.246094 z M 24.115234 15.390625 L 24.070312 16.941406 C 24.029412 18.362526 23.995102 18.54057 23.669922 19.09375 C 23.474852 19.42559 23.102134 19.854885 22.839844 20.046875 C 22.577554 20.238875 22.31115 20.437331 22.25 20.488281 C 22.205403 20.525507 22.313458 20.621687 22.46875 20.724609 C 22.584394 20.636948 22.674904 20.568004 22.839844 20.447266 C 23.102134 20.255276 23.474852 19.825981 23.669922 19.494141 C 23.995102 18.940961 24.029412 18.762917 24.070312 17.341797 L 24.115234 15.791016 L 26.179688 15.853516 L 28.246094 15.916016 L 27.792969 15.501953 L 26.179688 15.453125 L 24.115234 15.390625 z M 22.179688 15.435547 C 22.007866 15.421518 21.71649 15.429393 21.265625 15.455078 L 20.443359 15.501953 L 20.089844 15.921875 L 21.265625 15.855469 C 21.92687 15.817799 22.238623 15.819915 22.341797 15.871094 C 22.352351 15.806168 22.373665 15.563669 22.380859 15.544922 C 22.404109 15.484352 22.351509 15.449576 22.179688 15.435547 z M 17.232422 15.724609 L 17.162109 15.78125 C 16.576459 16.25574 14.584717 17.152638 13.085938 17.617188 C 12.955762 17.657538 13.014055 17.757606 13.240234 17.962891 C 14.719295 17.48711 16.595508 16.640698 17.162109 16.181641 L 17.462891 15.9375 L 17.232422 15.724609 z M 20.412109 17.291016 L 20.359375 17.882812 C 20.309775 18.428122 20.264766 18.953168 20.259766 19.048828 C 20.252766 19.190628 19.814465 19.213871 17.890625 19.175781 L 15.53125 19.128906 L 15.447266 19.960938 C 15.370566 20.721897 14.971747 23.288291 14.810547 24.056641 L 14.744141 24.375 L 14.824219 24.375 C 14.991163 23.554154 15.372065 21.107417 15.447266 20.361328 L 15.53125 19.529297 L 17.890625 19.576172 C 19.814465 19.614262 20.252766 19.591019 20.259766 19.449219 C 20.264766 19.353559 20.309775 18.828513 20.359375 18.283203 L 20.449219 17.291016 L 20.412109 17.291016 z M 29.992188 17.777344 C 29.99213 17.913074 29.986052 18.019015 29.992188 18.177734 C 30.025397 19.036694 30.089739 19.382516 30.230469 19.478516 C 30.426209 19.612106 32.087357 19.557905 32.898438 19.390625 C 33.019595 19.365636 33.041256 19.374403 33.099609 19.369141 C 33.12004 19.318522 33.142454 19.239251 33.160156 19.207031 C 33.325966 18.905251 33.321847 18.902904 32.898438 18.990234 C 32.087357 19.157514 30.426209 19.213668 30.230469 19.080078 C 30.089739 18.984078 30.025397 18.636304 29.992188 17.777344 z M 29.185547 21.589844 C 28.623347 21.589854 28.007031 21.591703 27.363281 21.595703 L 24.142578 21.619141 C 23.784305 21.9396 23.535521 21.961684 23.314453 21.695312 C 23.300011 21.677911 23.254369 21.648457 23.230469 21.626953 L 22.681641 21.630859 L 22.681641 22.03125 L 27.363281 21.996094 C 28.007031 21.992094 28.623347 21.990244 29.185547 21.990234 C 30.804646 21.990138 31.919361 22.007486 32.029297 22.039062 C 32.090118 21.842683 32.124504 21.689243 32.095703 21.642578 C 32.074703 21.608578 30.872147 21.589744 29.185547 21.589844 z M 16.851562 22.777344 C 16.849761 22.787205 16.845427 22.815448 16.84375 22.824219 L 16.777344 23.175781 L 19.353516 23.175781 C 20.717868 23.175781 21.709425 23.219415 21.8125 23.277344 C 21.824111 23.211757 21.852419 22.901882 21.859375 22.890625 C 21.899275 22.826125 20.818546 22.777344 19.353516 22.777344 L 16.851562 22.777344 z M 29.447266 23.513672 C 29.446196 23.512849 29.316388 23.516328 29.310547 23.515625 C 29.064315 24.082434 28.552662 25.077786 28.359375 25.3125 L 28.115234 25.609375 L 26.263672 24.705078 C 25.245302 24.207738 24.340866 23.800781 24.253906 23.800781 C 24.166906 23.800781 23.891548 24.103256 23.642578 24.472656 L 23.189453 25.142578 L 23.398438 25.234375 L 23.642578 24.871094 C 23.891548 24.501694 24.166906 24.199219 24.253906 24.199219 C 24.340866 24.199219 25.245302 24.606176 26.263672 25.103516 L 28.115234 26.007812 L 28.359375 25.712891 C 28.627655 25.387111 29.524966 23.573272 29.447266 23.513672 z M 19.771484 24.775391 L 19.757812 25.080078 C 19.686913 26.605098 19.496455 27.430394 19.140625 27.746094 C 18.828725 28.022814 18.711352 28.042273 17.607422 28.001953 C 16.950292 27.977953 16.412049 27.974041 16.412109 27.994141 C 16.412147 28.009373 16.51242 28.212177 16.603516 28.396484 C 16.739068 28.385794 17.055521 28.382187 17.607422 28.402344 C 18.711352 28.442664 18.828725 28.423204 19.140625 28.146484 C 19.496455 27.830784 19.686913 27.005489 19.757812 25.480469 L 19.791016 24.775391 L 19.771484 24.775391 z M 29.935547 26.509766 C 29.88683 26.592359 29.741622 26.809722 29.748047 26.8125 C 30.500123 27.143448 32.974654 28.519924 33.484375 28.875 C 33.534999 28.803185 33.683594 28.619737 33.683594 28.607422 C 33.683594 28.513154 30.906383 26.964664 29.935547 26.509766 z M 26.476562 26.994141 C 26.374377 27.060752 26.254174 27.130004 26.066406 27.224609 C 25.163446 27.679559 23.594715 28.182727 22.390625 28.404297 L 21.525391 28.564453 L 21.839844 28.90625 L 22.390625 28.804688 C 23.594715 28.583118 25.163446 28.07995 26.066406 27.625 C 26.637045 27.33749 26.849693 27.227912 26.476562 26.994141 z "
       transform="translate(384.57143,499.798)"
       id="path4228" />
    <path
       inkscape:connector-curvature="0"
       style="fill:#000000;fill-opacity:1;stroke:none"
       d="m 384.57143,544.79799 0,1.0625 c 0,1.0773 0.86022,1.9375 1.9375,1.9375 l 44.125,0 c 1.07728,0 1.9375,-0.8602 1.9375,-1.9375 l 0,-1.0625 c 0,1.0773 -0.86022,1.9375 -1.9375,1.9375 l -44.125,0 c -1.07728,0 -1.9375,-0.8602 -1.9375,-1.9375 z"
       id="rect846" />
    <path
       id="path4246"
       d="m 430.62613,499.798 c 1.07727,0 1.94531,0.86804 1.94531,1.94531 l 0,44.10938 c 0,1.07728 -0.86804,1.94531 -1.94531,1.94531 l -9.05469,0 0,-48 9.05469,0 z"
       style="opacity:0.6;fill:url(#linearGradient4248);fill-opacity:1;fill-rule:evenodd;stroke:none"
       inkscape:connector-curvature="0" />
    <path
       inkscape:connector-curvature="0"
       style="fill:#000000;fill-opacity:0.39215686;stroke:none"
       d="m 386.50893,499.79799 c -1.07728,0 -1.9375,0.8602 -1.9375,1.9375 l 0,43.0625 c 0,0.7934 0.48002,1.449 1.15625,1.75 -0.30934,-0.3333 -0.5,-0.7824 -0.5,-1.2812 l 0,-42.9375 c 0,-1.0482 0.8269,-1.875 1.875,-1.875 l 42.9375,0 c 1.0481,0 1.875,0.8268 1.875,1.875 l 0,42.9375 c 0,0.4988 -0.19066,0.9479 -0.5,1.2812 0.67623,-0.301 1.15625,-0.9566 1.15625,-1.75 l 0,-43.0625 c 0,-1.0773 -0.86022,-1.9375 -1.9375,-1.9375 l -44.125,0 z"
       id="rect4280" />
  </g>
</svg>
