<?xml version="1.0" encoding="UTF-8" standalone="no"?>
<!-- Created with Inkscape (http://www.inkscape.org/) -->

<svg
   xmlns:dc="http://purl.org/dc/elements/1.1/"
   xmlns:cc="http://creativecommons.org/ns#"
   xmlns:rdf="http://www.w3.org/1999/02/22-rdf-syntax-ns#"
   xmlns:svg="http://www.w3.org/2000/svg"
   xmlns="http://www.w3.org/2000/svg"
   xmlns:xlink="http://www.w3.org/1999/xlink"
   xmlns:sodipodi="http://sodipodi.sourceforge.net/DTD/sodipodi-0.dtd"
   xmlns:inkscape="http://www.inkscape.org/namespaces/inkscape"
   width="48"
   height="48"
   id="svg2"
   version="1.1"
   inkscape:version="0.48+devel r12923"
   sodipodi:docname="mailru-mail.ru.svg">
  <defs
     id="defs4">
    <linearGradient
       id="linearGradient4675"
       inkscape:collect="always">
      <stop
         id="stop4677"
         offset="0"
         style="stop-color:#fe761d;stop-opacity:1" />
      <stop
         id="stop4679"
         offset="1"
         style="stop-color:#fcab09;stop-opacity:1" />
    </linearGradient>
    <linearGradient
       id="linearGradient25140"
       inkscape:collect="always">
      <stop
         id="stop25142"
         offset="0"
         style="stop-color:#243c52;stop-opacity:1" />
      <stop
         id="stop25144"
         offset="1"
         style="stop-color:#517ca7;stop-opacity:1" />
    </linearGradient>
    <linearGradient
       inkscape:collect="always"
       xlink:href="#linearGradient25140"
       id="linearGradient25138"
       gradientUnits="userSpaceOnUse"
       gradientTransform="translate(-1.4191304e-6,-4.1451426e-5)"
       x1="23.157747"
       y1="-1052.0176"
       x2="23.157747"
       y2="-1004.4557" />
    <linearGradient
       gradientTransform="scale(1.0058652,0.994169)"
       gradientUnits="userSpaceOnUse"
       id="ButtonShadow"
       y2="7.0165396"
       x2="45.447727"
       y1="92.539597"
       x1="45.447727">
      <stop
         offset="0"
         style="stop-color:#000000;stop-opacity:1"
         id="stop3750" />
      <stop
         offset="1"
         style="stop-color:#000000;stop-opacity:0.58823532"
         id="stop3752" />
    </linearGradient>
    <filter
       id="filter3174"
       color-interpolation-filters="sRGB">
      <feGaussianBlur
         stdDeviation="1.71"
         id="feGaussianBlur3176" />
    </filter>
    <style
       type="text/css"
       id="style2464" />
    <style
       id="style2464-7"
       type="text/css" />
    <linearGradient
       inkscape:collect="always"
       xlink:href="#linearGradient4675"
       id="linearGradient4673"
       x1="33.265034"
       y1="1044.4419"
       x2="33.265034"
       y2="1012.3954"
       gradientUnits="userSpaceOnUse"
       gradientTransform="matrix(0.96855584,0,0,0.96855584,0.75447706,32.336096)" />
  </defs>
  <sodipodi:namedview
     id="base"
     pagecolor="#ffffff"
     bordercolor="#666666"
     borderopacity="1.0"
     inkscape:pageopacity="0.0"
     inkscape:pageshadow="2"
     inkscape:zoom="5.803095"
     inkscape:cx="36.1987"
     inkscape:cy="22.575119"
     inkscape:document-units="px"
     inkscape:current-layer="layer1"
     showgrid="false"
     inkscape:window-width="1366"
     inkscape:window-height="669"
     inkscape:window-x="0"
     inkscape:window-y="26"
     inkscape:window-maximized="1"
     showguides="false"
     inkscape:snap-global="false">
    <inkscape:grid
       type="xygrid"
       id="grid3850" />
  </sodipodi:namedview>
  <metadata
     id="metadata7">
    <rdf:RDF>
      <cc:Work
         rdf:about="">
        <dc:format>image/svg+xml</dc:format>
        <dc:type
           rdf:resource="http://purl.org/dc/dcmitype/StillImage" />
        <dc:title></dc:title>
      </cc:Work>
    </rdf:RDF>
  </metadata>
  <g
     inkscape:label="Capa 1"
     inkscape:groupmode="layer"
     id="layer1"
     transform="translate(0,-1004.3622)">
    <rect
       style="fill:url(#linearGradient25138);fill-opacity:1;stroke:none"
       id="rect25136"
       width="48"
       height="48"
       x="2.4424907e-15"
       y="-1052.3622"
       ry="1.9445436"
       transform="scale(1,-1)" />
    <path
       inkscape:connector-curvature="0"
       style="fill:#000000;fill-opacity:0.05882353;fill-rule:evenodd"
       d="m 29.319121,1029.4097 c -0.175094,-3.5491 -2.703021,-5.6832 -5.755323,-5.6832 l -0.115442,0 c -3.5226,0 -5.476289,2.8869 -5.476289,6.1671 0,3.6722 2.363563,5.992 5.462859,5.992 3.455258,0 5.727319,-2.6377 5.891894,-5.7591 l -0.0075,-0.7168 z m -5.85333,-8.8599 c 2.35394,0 4.567299,1.0849 6.191887,2.7829 l 0,0.012 c 0,-0.8147 0.52626,-1.4296 1.257252,-1.4296 l 0.184669,-9e-4 c 1.142752,0 1.377518,1.1261 1.377518,1.4836 l 0.0058,12.6739 c -0.08066,0.8301 0.821343,1.2585 1.321721,0.7263 1.952712,-2.0914 4.288268,-10.7517 -1.213933,-15.7694 -5.128109,-4.6782 -12.008784,-3.9073 -15.66807,-1.2784 -3.889941,2.7964 -6.3793,8.986 -3.96109,14.7998 2.635715,6.3407 10.178233,8.2314 14.660791,6.3446 2.270135,-0.9543 3.318521,2.2439 0.960941,3.2887 -3.56211,1.581 -13.476662,1.4215 -18.108397,-6.9406 -3.1290584,-5.6464 -2.9627264,-15.5812 5.336821,-20.7284 6.348755,-3.9377 14.719489,-2.8483 19.766871,2.6461 5.27606,5.7446 4.968209,16.5003 -0.17817,20.6817 -2.331543,1.8991 -5.794497,0.049 -5.77259,-2.717 l -0.02403,-0.9057 c -1.623769,1.6794 -3.784032,2.6588 -6.137966,2.6588 -4.65098,0 -8.74303,-4.2643 -8.74303,-9.1113 0,-4.8958 4.09205,-9.2107 8.74303,-9.2107 l 0,0"
       id="path4708" />
    <path
       id="path4706"
       d="m 29.319121,1029.0097 c -0.175094,-3.5491 -2.703021,-5.6832 -5.755323,-5.6832 l -0.115442,0 c -3.5226,0 -5.476289,2.8869 -5.476289,6.1671 0,3.6722 2.363563,5.992 5.462859,5.992 3.455258,0 5.727319,-2.6377 5.891894,-5.7591 l -0.0075,-0.7168 z m -5.85333,-8.8599 c 2.35394,0 4.567299,1.0849 6.191887,2.7829 l 0,0.012 c 0,-0.8147 0.52626,-1.4296 1.257252,-1.4296 l 0.184669,-9e-4 c 1.142752,0 1.377518,1.1261 1.377518,1.4836 l 0.0058,12.6739 c -0.08066,0.8301 0.821343,1.2585 1.321721,0.7263 1.952712,-2.0914 4.288268,-10.7517 -1.213933,-15.7694 -5.128109,-4.6782 -12.008784,-3.9073 -15.66807,-1.2784 -3.889941,2.7964 -6.3793,8.986 -3.96109,14.7998 2.635715,6.3407 10.178233,8.2314 14.660791,6.3446 2.270135,-0.9543 3.318521,2.2439 0.960941,3.2887 -3.56211,1.581 -13.476662,1.4215 -18.108397,-6.9406 -3.1290584,-5.6464 -2.9627264,-15.5812 5.336821,-20.7284 6.348755,-3.9377 14.719489,-2.8483 19.766871,2.6461 5.27606,5.7446 4.968209,16.5003 -0.17817,20.6817 -2.331543,1.8991 -5.794497,0.049 -5.77259,-2.717 l -0.02403,-0.9057 c -1.623769,1.6794 -3.784032,2.6588 -6.137966,2.6588 -4.65098,0 -8.74303,-4.2643 -8.74303,-9.1113 0,-4.8958 4.09205,-9.2107 8.74303,-9.2107 l 0,0"
       style="fill:#000000;fill-opacity:0.11764706;fill-rule:evenodd"
       inkscape:connector-curvature="0" />
    <path
       inkscape:connector-curvature="0"
       style="fill:#000000;fill-opacity:0.23529412;fill-rule:evenodd"
       d="m 29.319121,1028.6097 c -0.175094,-3.5491 -2.703021,-5.6832 -5.755323,-5.6832 l -0.115442,0 c -3.5226,0 -5.476289,2.8869 -5.476289,6.1671 0,3.6722 2.363563,5.992 5.462859,5.992 3.455258,0 5.727319,-2.6377 5.891894,-5.7591 l -0.0075,-0.7168 z m -5.85333,-8.8599 c 2.35394,0 4.567299,1.0849 6.191887,2.7829 l 0,0.012 c 0,-0.8147 0.52626,-1.4296 1.257252,-1.4296 l 0.184669,-9e-4 c 1.142752,0 1.377518,1.1261 1.377518,1.4836 l 0.0058,12.6739 c -0.08066,0.8301 0.821343,1.2585 1.321721,0.7263 1.952712,-2.0914 4.288268,-10.7517 -1.213933,-15.7694 -5.128109,-4.6782 -12.008784,-3.9073 -15.66807,-1.2784 -3.889941,2.7964 -6.3793,8.986 -3.96109,14.7998 2.635715,6.3407 10.178233,8.2314 14.660791,6.3446 2.270135,-0.9543 3.318521,2.2439 0.960941,3.2887 -3.56211,1.581 -13.476662,1.4215 -18.108397,-6.9406 -3.1290584,-5.6464 -2.9627264,-15.5812 5.336821,-20.7284 6.348755,-3.9377 14.719489,-2.8483 19.766871,2.6461 5.27606,5.7446 4.968209,16.5003 -0.17817,20.6817 -2.331543,1.8991 -5.794497,0.049 -5.77259,-2.717 l -0.02403,-0.9057 c -1.623769,1.6794 -3.784032,2.6588 -6.137966,2.6588 -4.65098,0 -8.74303,-4.2643 -8.74303,-9.1113 0,-4.8958 4.09205,-9.2107 8.74303,-9.2107 l 0,0"
       id="path4702" />
    <path
       inkscape:connector-curvature="0"
       style="fill:#000000;fill-opacity:1;stroke:none"
       d="m 5.3674317e-8,1049.3622 0,1.0625 c 0,1.0773 0.860222896325683,1.9375 1.937499946325683,1.9375 l 44.125,0 c 1.077277,0 1.9375,-0.8602 1.9375,-1.9375 l 0,-1.0625 c 0,1.0773 -0.860223,1.9375 -1.9375,1.9375 l -44.125,0 C 0.86022295,1051.2997 5.3674317e-8,1050.4395 5.3674317e-8,1049.3622 Z"
       id="rect846" />
    <path
       inkscape:connector-curvature="0"
       style="fill:#ffffff;fill-opacity:0.5372549;stroke:none"
       d="m 2.53125,1005.0185 c -0.9170884,0 -1.67114675,0.6395 -1.84374995,1.5 0.33561205,-0.2799 0.77451215,-0.4375 1.24999995,-0.4375 l 44.125,0 c 0.475488,0 0.914388,0.1576 1.25,0.4375 -0.172603,-0.8605 -0.926662,-1.5 -1.84375,-1.5 L 2.53125,1005.0185 Z"
       id="path7515" />
    <path
       inkscape:connector-curvature="0"
       style="fill:#000000;fill-opacity:0.39215686;stroke:none"
       d="m 1.9375,1004.3622 c -1.07727695,0 -1.937499946325683,0.8602 -1.937499946325683,1.9375 l 0,43.0625 c 0,0.7934 0.480023596325683,1.449 1.156249946325683,1.75 -0.30934165,-0.3333 -0.49999995,-0.7824 -0.49999995,-1.2812 l 0,-42.9375 c 0,-1.0482 0.82689895,-1.875 1.87499995,-1.875 l 42.9375,0 c 1.048101,0 1.875,0.8268 1.875,1.875 l 0,42.9375 c 0,0.4988 -0.190658,0.9479 -0.5,1.2812 0.676226,-0.301 1.15625,-0.9566 1.15625,-1.75 l 0,-43.0625 c 0,-1.0773 -0.860223,-1.9375 -1.9375,-1.9375 L 1.9375,1004.3622 Z"
       id="rect4280" />
    <g
       id="layer2"
       style="display:none"
       transform="matrix(0.25,0,0,0.25,-100.55791,1025.0116)">
      <rect
         width="86"
         height="85"
         rx="6"
         ry="6"
         x="5"
         y="7"
         id="rect3745"
         style="opacity:0.9;fill:url(#ButtonShadow);fill-opacity:1;fill-rule:nonzero;stroke:none;filter:url(#filter3174)" />
    </g>
    <path
       id="path4161"
       d="m 29.319121,1028.2097 c -0.175094,-3.5491 -2.703021,-5.6832 -5.755323,-5.6832 l -0.115442,0 c -3.5226,0 -5.476289,2.8869 -5.476289,6.1671 0,3.6722 2.363563,5.992 5.462859,5.992 3.455258,0 5.727319,-2.6377 5.891894,-5.7591 l -0.0075,-0.7168 z m -5.85333,-8.8599 c 2.35394,0 4.567299,1.0849 6.191887,2.7829 l 0,0.012 c 0,-0.8147 0.52626,-1.4296 1.257252,-1.4296 l 0.184669,-9e-4 c 1.142752,0 1.377518,1.1261 1.377518,1.4836 l 0.0058,12.6739 c -0.08066,0.8301 0.821343,1.2585 1.321721,0.7263 1.952712,-2.0914 4.288268,-10.7517 -1.213933,-15.7694 -5.128109,-4.6782 -12.008784,-3.9073 -15.66807,-1.2784 -3.889941,2.7964 -6.3793,8.986 -3.96109,14.7998 2.635715,6.3407 10.178233,8.2314 14.660791,6.3446 2.270135,-0.9543 3.318521,2.2439 0.960941,3.2887 -3.56211,1.581 -13.476662,1.4215 -18.108397,-6.9406 -3.1290584,-5.6464 -2.9627264,-15.5812 5.336821,-20.7284 6.348755,-3.9377 14.719489,-2.8483 19.766871,2.6461 5.27606,5.7446 4.968209,16.5003 -0.17817,20.6817 -2.331543,1.8991 -5.794497,0.049 -5.77259,-2.717 l -0.02403,-0.9057 c -1.623769,1.6794 -3.784032,2.6588 -6.137966,2.6588 -4.65098,0 -8.74303,-4.2643 -8.74303,-9.1113 0,-4.8958 4.09205,-9.2107 8.74303,-9.2107 l 0,0"
       style="fill:url(#linearGradient4673);fill-opacity:1;fill-rule:evenodd"
       inkscape:connector-curvature="0" />
    <path
       style="fill:#ae4801;fill-opacity:0.3137255;fill-rule:evenodd"
       d="M 24.205078 11.287109 C 21.386485 11.223672 18.751518 12.074222 16.921875 13.388672 C 13.981679 15.502319 11.84699 19.554749 12.021484 23.917969 C 12.119545 19.864792 14.162515 16.171148 16.921875 14.1875 C 20.581161 11.5586 27.461735 10.788597 32.589844 15.466797 C 34.982821 17.649058 35.891871 20.520016 35.996094 23.240234 C 36.049866 20.292428 35.219947 17.064523 32.589844 14.666016 C 30.025789 12.326916 27.023671 11.350547 24.205078 11.287109 z M 23.449219 17.365234 C 19.926619 17.365234 17.972656 20.25105 17.972656 23.53125 C 17.972656 23.708061 17.983364 23.878396 17.994141 24.048828 C 18.105067 20.889319 20.029942 18.164062 23.449219 18.164062 L 23.564453 18.164062 C 26.611574 18.164062 29.133641 20.2918 29.316406 23.830078 C 29.317823 23.807465 29.324977 23.786337 29.326172 23.763672 L 29.318359 23.046875 C 29.143265 19.497775 26.616755 17.365234 23.564453 17.365234 L 23.449219 17.365234 z M 8.6171875 23.632812 C 8.5440851 26.608811 9.2513164 29.47225 10.474609 31.679688 C 15.106344 40.041787 25.021874 40.202094 28.583984 38.621094 C 29.69498 38.128738 30.0423 37.159955 29.869141 36.371094 C 29.738584 36.936851 29.334668 37.487635 28.583984 37.820312 C 25.021874 39.401312 15.106344 39.242959 10.474609 30.880859 C 9.3616196 28.872464 8.6786075 26.317895 8.6171875 23.632812 z M 14.744141 23.802734 C 14.737967 23.937047 14.722656 24.0698 14.722656 24.205078 C 14.722656 29.052078 18.813864 33.316406 23.464844 33.316406 C 25.818778 33.316406 27.979747 32.33565 29.603516 30.65625 L 29.626953 31.5625 C 29.605046 34.3285 33.068848 36.178397 35.400391 34.279297 C 38.092815 32.09172 39.447739 28.104022 39.384766 23.976562 C 39.270485 27.812765 37.918193 31.434771 35.400391 33.480469 C 33.068848 35.379569 29.605046 33.529672 29.626953 30.763672 L 29.603516 29.857422 C 27.979747 31.536822 25.818778 32.515625 23.464844 32.515625 C 18.942232 32.515625 14.961172 28.481951 14.744141 23.802734 z "
       transform="translate(0,1004.3622)"
       id="path4710" />
    <path
       style="fill:#ffffff;fill-opacity:0.23529412;fill-rule:evenodd"
       d="M 23.525391 8.609375 C 20.857809 8.7049467 18.193283 9.4745344 15.8125 10.951172 C 10.544826 14.21807 8.5593072 19.413192 8.6074219 24.216797 C 8.6716777 19.527147 10.691086 14.527753 15.8125 11.351562 C 22.161255 7.4138625 30.530743 8.5036469 35.578125 13.998047 C 38.154812 16.803557 39.390736 20.803982 39.390625 24.650391 C 39.480191 20.683068 38.244377 16.500685 35.578125 13.597656 C 32.423511 10.163656 27.971361 8.4500889 23.525391 8.609375 z M 23.464844 14.988281 L 23.464844 14.994141 C 18.813864 14.994141 14.722656 19.309278 14.722656 24.205078 C 14.722656 24.272095 14.730867 24.337513 14.732422 24.404297 C 14.843237 19.592647 18.878104 15.394531 23.464844 15.394531 L 23.464844 15.386719 C 25.818784 15.386719 28.033615 16.471922 29.658203 18.169922 L 29.658203 18.181641 C 29.658203 17.366941 30.18307 16.751953 30.914062 16.751953 L 31.099609 16.751953 C 32.242361 16.751953 32.476562 17.878828 32.476562 18.236328 L 32.476562 17.835938 C 32.476562 17.478437 32.242361 16.351562 31.099609 16.351562 L 30.914062 16.353516 C 30.18307 16.353516 29.658203 16.968503 29.658203 17.783203 L 29.658203 17.769531 C 28.033615 16.071531 25.818784 14.988281 23.464844 14.988281 z M 35.998047 23.666016 C 36.024491 27.034505 34.863434 30.102386 33.804688 31.236328 C 33.30431 31.768528 32.401762 31.339866 32.482422 30.509766 L 32.482422 30.910156 C 32.401762 31.740256 33.30431 32.168919 33.804688 31.636719 C 34.905514 30.457708 36.126686 27.190794 35.998047 23.666016 z M 17.982422 24.589844 C 17.981592 24.637498 17.972656 24.68264 17.972656 24.730469 C 17.972656 28.402669 20.336251 30.722656 23.435547 30.722656 C 26.890805 30.722656 29.161597 28.086244 29.326172 24.964844 L 29.322266 24.59375 C 29.14477 27.702042 26.879738 30.324219 23.435547 30.324219 C 20.410571 30.324219 18.092146 28.110137 17.982422 24.589844 z M 12.017578 24.666016 C 12.023277 26.218187 12.307196 27.816964 12.960938 29.388672 C 15.596652 35.729372 23.140489 37.619222 27.623047 35.732422 C 28.898311 35.196337 29.787334 35.970642 29.904297 36.9375 C 30.016999 35.803885 29.070882 34.723403 27.623047 35.332031 C 23.140489 37.218831 15.596652 35.328981 12.960938 28.988281 C 12.363441 27.551794 12.068765 26.091535 12.017578 24.666016 z "
       transform="translate(0,1004.3622)"
       id="path4715" />
  </g>
</svg>
