<?xml version="1.0" encoding="UTF-8" standalone="no"?>
<!-- Created with Inkscape (http://www.inkscape.org/) -->

<svg
   xmlns:dc="http://purl.org/dc/elements/1.1/"
   xmlns:cc="http://creativecommons.org/ns#"
   xmlns:rdf="http://www.w3.org/1999/02/22-rdf-syntax-ns#"
   xmlns:svg="http://www.w3.org/2000/svg"
   xmlns="http://www.w3.org/2000/svg"
   xmlns:xlink="http://www.w3.org/1999/xlink"
   xmlns:sodipodi="http://sodipodi.sourceforge.net/DTD/sodipodi-0.dtd"
   xmlns:inkscape="http://www.inkscape.org/namespaces/inkscape"
   width="48"
   height="48"
   id="svg5453"
   version="1.1"
   inkscape:version="0.48+devel r12877"
   sodipodi:docname="matlab.svg"
   viewBox="0 0 48 48">
  <defs
     id="defs5455">
    <linearGradient
       inkscape:collect="always"
       id="linearGradient4842">
      <stop
         style="stop-color:#a0240f;stop-opacity:1"
         offset="0"
         id="stop4844" />
      <stop
         style="stop-color:#bc4a0f;stop-opacity:0"
         offset="1"
         id="stop4846" />
    </linearGradient>
    <linearGradient
       inkscape:collect="always"
       id="linearGradient4802">
      <stop
         style="stop-color:#af270f;stop-opacity:1"
         offset="0"
         id="stop4804" />
      <stop
         style="stop-color:#d86c3b;stop-opacity:0;"
         offset="1"
         id="stop4806" />
    </linearGradient>
    <linearGradient
       id="linearGradient4791"
       inkscape:collect="always">
      <stop
         id="stop4793"
         offset="0"
         style="stop-color:#771a0f;stop-opacity:1" />
      <stop
         id="stop4795"
         offset="1"
         style="stop-color:#92280f;stop-opacity:0" />
    </linearGradient>
    <linearGradient
       inkscape:collect="always"
       id="linearGradient4776">
      <stop
         style="stop-color:#fff80f;stop-opacity:1;"
         offset="0"
         id="stop4778" />
      <stop
         style="stop-color:#fff80f;stop-opacity:0"
         offset="1"
         id="stop4780" />
    </linearGradient>
    <linearGradient
       inkscape:collect="always"
       id="linearGradient4750">
      <stop
         style="stop-color:#6d9990;stop-opacity:1"
         offset="0"
         id="stop4752" />
      <stop
         style="stop-color:#6dcec5;stop-opacity:1"
         offset="1"
         id="stop4754" />
    </linearGradient>
    <linearGradient
       inkscape:collect="always"
       id="linearGradient4737">
      <stop
         style="stop-color:#4a2834;stop-opacity:1"
         offset="0"
         id="stop4739" />
      <stop
         style="stop-color:#512531;stop-opacity:0"
         offset="1"
         id="stop4741" />
    </linearGradient>
    <linearGradient
       inkscape:collect="always"
       id="linearGradient4638">
      <stop
         style="stop-color:#0d0d0d;stop-opacity:1"
         offset="0"
         id="stop4640" />
      <stop
         style="stop-color:#262626;stop-opacity:1"
         offset="1"
         id="stop4642" />
    </linearGradient>
    <linearGradient
       inkscape:collect="always"
       xlink:href="#linearGradient4638"
       id="linearGradient4644"
       x1="422.9812"
       y1="-547.79797"
       x2="422.9812"
       y2="-499.8136"
       gradientUnits="userSpaceOnUse" />
    <linearGradient
       inkscape:collect="always"
       xlink:href="#linearGradient4737"
       id="linearGradient4743"
       x1="20.61565"
       y1="25.814503"
       x2="19.831141"
       y2="21.262672"
       gradientUnits="userSpaceOnUse" />
    <linearGradient
       inkscape:collect="always"
       xlink:href="#linearGradient4750"
       id="linearGradient4756"
       x1="20.625715"
       y1="24.225323"
       x2="18.224628"
       y2="21.824236"
       gradientUnits="userSpaceOnUse" />
    <linearGradient
       inkscape:collect="always"
       xlink:href="#linearGradient4776"
       id="linearGradient4782"
       x1="22.857664"
       y1="43.732384"
       x2="22.274063"
       y2="36.824707"
       gradientUnits="userSpaceOnUse" />
    <linearGradient
       inkscape:collect="always"
       xlink:href="#linearGradient4791"
       id="linearGradient4789"
       x1="21.824289"
       y1="22.848804"
       x2="27.72184"
       y2="24.063473"
       gradientUnits="userSpaceOnUse" />
    <linearGradient
       inkscape:collect="always"
       xlink:href="#linearGradient4802"
       id="linearGradient4808"
       x1="37.971004"
       y1="24.451498"
       x2="35.117786"
       y2="25.030712"
       gradientUnits="userSpaceOnUse" />
    <linearGradient
       inkscape:collect="always"
       xlink:href="#linearGradient4776"
       id="linearGradient4835"
       x1="375.80402"
       y1="522.2865"
       x2="382.67584"
       y2="549.46741"
       gradientUnits="userSpaceOnUse"
       gradientTransform="matrix(0.99989961,-0.01416967,0.01416967,0.99989961,-354.39459,-522.57321)" />
    <linearGradient
       inkscape:collect="always"
       xlink:href="#linearGradient4842"
       id="linearGradient4848"
       x1="31.507151"
       y1="4.1349211"
       x2="31.507151"
       y2="22.616148"
       gradientUnits="userSpaceOnUse" />
    <linearGradient
       inkscape:collect="always"
       xlink:href="#linearGradient4791"
       id="linearGradient4868"
       x1="36.213085"
       y1="8.6379509"
       x2="33.719147"
       y2="17.945459"
       gradientUnits="userSpaceOnUse" />
  </defs>
  <sodipodi:namedview
     id="base"
     pagecolor="#ffffff"
     bordercolor="#666666"
     borderopacity="1.0"
     inkscape:pageopacity="0"
     inkscape:pageshadow="2"
     inkscape:zoom="3.1756477"
     inkscape:cx="4.0378504"
     inkscape:cy="45.64681"
     inkscape:document-units="px"
     inkscape:current-layer="layer1"
     showgrid="false"
     fit-margin-top="0"
     fit-margin-left="0"
     fit-margin-right="0"
     fit-margin-bottom="0"
     inkscape:window-width="1366"
     inkscape:window-height="671"
     inkscape:window-x="0"
     inkscape:window-y="24"
     inkscape:window-maximized="1" />
  <metadata
     id="metadata5458">
    <rdf:RDF>
      <cc:Work
         rdf:about="">
        <dc:format>image/svg+xml</dc:format>
        <dc:type
           rdf:resource="http://purl.org/dc/dcmitype/StillImage" />
        <dc:title></dc:title>
      </cc:Work>
    </rdf:RDF>
  </metadata>
  <g
     inkscape:label="Capa 1"
     inkscape:groupmode="layer"
     id="layer1"
     transform="translate(-384.57143,-499.798)">
    <rect
       style="fill:url(#linearGradient4644);fill-opacity:1;stroke:none"
       id="rect2991-1-7"
       width="48"
       height="48"
       x="384.57144"
       y="-547.79797"
       ry="1.9445436"
       transform="scale(1,-1)" />
    <path
       style="fill:#000000;fill-opacity:0.05882353"
       d="m 414.57534,508.99992 c -0.19004,-0.0118 -0.38718,0.0133 -0.56446,0.0742 -0.25585,0.0879 -0.37596,0.14857 -0.48047,0.24805 -0.0306,0.0291 -0.14909,0.1322 -0.26562,0.22851 -0.16819,0.13901 -0.38198,0.40007 -0.625,0.73438 -0.28703,0.39484 -0.61974,0.90332 -1.02344,1.58789 -0.22676,0.38455 -0.53928,0.89695 -0.69531,1.13867 -0.15602,0.24171 -0.33525,0.52805 -0.39844,0.63672 -0.25587,0.43998 -1.10478,1.59813 -1.77344,2.41992 -0.56608,0.69572 -1.63945,1.69261 -2.04492,1.89844 -0.0769,0.039 -0.21289,0.11863 -0.30078,0.17773 -0.19717,0.13255 -0.56168,0.2763 -1.05078,0.41602 -0.41354,0.11814 -1.18907,0.50158 -1.52148,0.75195 -0.5688,0.42841 -1.841,1.79946 -2.3711,2.55469 -0.0825,0.11748 -0.20899,0.27686 -0.28125,0.35547 -0.0722,0.0786 -0.16593,0.19089 -0.20898,0.24805 -0.0482,0.064 -0.20892,0.15717 -0.41797,0.24218 -0.18678,0.076 -0.50145,0.20947 -0.69922,0.29688 -0.19777,0.0874 -0.74631,0.30681 -1.21875,0.48828 -0.47244,0.18147 -1.04857,0.4174 -1.2793,0.52344 -0.23073,0.10603 -0.56248,0.24578 -0.73828,0.31054 -0.48852,0.17997 -1.53113,0.59916 -1.69336,0.68164 -0.0795,0.0404 -0.70161,0.29384 -1.38281,0.56055 -0.68119,0.26671 -1.37425,0.54609 -1.53906,0.62305 -0.1648,0.077 -0.51563,0.22678 -0.7793,0.33203 -0.63327,0.2528 -0.63764,0.28003 -0.11914,0.62109 0.18054,0.11876 0.81348,0.57272 1.43359,1.0293 0.12945,0.0953 0.35478,0.25608 0.5,0.35547 0.14523,0.0994 0.43382,0.30544 0.64258,0.45898 0.20875,0.15353 0.45616,0.32864 0.54883,0.38868 0.15312,0.0992 0.78192,0.55026 1.38477,0.99414 0.12945,0.0953 0.35478,0.25593 0.5,0.35546 0.24605,0.16863 0.78388,0.55558 1.33789,0.9629 0.44963,0.33058 0.907,0.63281 0.95703,0.63281 0.0513,0 0.6965,-0.25063 0.81836,-0.31836 0.15157,-0.0842 0.48279,-0.16912 0.74609,-0.18945 0.0426,-0.003 0.0896,0.0142 0.12891,0.0137 0.15683,-0.002 0.29327,1.7e-4 0.51172,0.0547 0.57011,0.14237 0.7406,0.25052 1.26171,0.79102 0.40401,0.41905 0.5213,0.57429 0.94727,1.26172 0.53356,0.86106 0.74595,1.26352 0.94531,1.78125 0.0725,0.18836 0.26196,0.6118 0.41992,0.94141 0.15795,0.32962 0.36389,0.80589 0.45899,1.05859 0.0951,0.2527 0.25797,0.64818 0.36133,0.87891 0.10336,0.23072 0.31077,0.72592 0.46093,1.10156 0.15016,0.37563 0.33545,0.82005 0.41211,0.98828 0.099,0.21734 0.16159,0.3068 0.21289,0.30664 0.0928,-3.2e-4 0.67823,-0.1409 0.99415,-0.23828 0.23781,-0.0733 0.96771,-0.42924 1.57421,-0.76758 0.16481,-0.0919 0.47983,-0.30863 0.69922,-0.48242 0.45723,-0.36218 1.70306,-1.47113 1.83203,-1.63086 0.0476,-0.0589 0.32835,-0.37513 0.625,-0.70313 0.29665,-0.328 0.7644,-0.8559 1.03907,-1.17187 0.27468,-0.31596 0.63517,-0.72789 0.80078,-0.91602 0.1656,-0.18813 0.48314,-0.55662 0.70508,-0.82031 0.5509,-0.65455 1.74393,-1.82367 2.22851,-2.18164 0.88348,-0.65262 1.46029,-0.93644 2.16992,-1.07227 0.52891,-0.10124 0.95935,-0.0629 1.56641,0.14258 0.49495,0.16757 0.64565,0.2417 1.01953,0.49414 0.15382,0.10386 0.32932,0.21878 0.39063,0.25586 0.29195,0.17653 1.19708,0.94835 1.82812,1.56055 1.37645,1.33536 2.74442,2.4841 2.8418,2.38672 0.0422,-0.0422 -0.10497,-0.40925 -0.54688,-1.36719 -0.14699,-0.31862 -0.34492,-0.78636 -0.43945,-1.03906 -0.0945,-0.2527 -0.30104,-0.76511 -0.45898,-1.13867 -0.15794,-0.37356 -0.36424,-0.89452 -0.45899,-1.15821 -0.0947,-0.26369 -0.30141,-0.78464 -0.45898,-1.1582 -0.15758,-0.37356 -0.38294,-0.93064 -0.5,-1.23828 -0.11706,-0.30763 -0.33713,-0.88376 -0.49024,-1.2793 -0.31996,-0.82651 -1.04004,-2.88985 -2.14648,-6.15234 -1.10211,-3.24976 -1.63986,-4.76231 -2.26953,-6.39258 -0.53585,-1.38737 -1.53608,-3.44493 -2.07227,-4.26172 -0.37685,-0.57407 -1.10635,-1.3333 -1.46484,-1.52539 -0.15232,-0.0816 -0.33535,-0.13078 -0.52539,-0.14258 z"
       id="path4810"
       inkscape:connector-curvature="0" />
    <path
       inkscape:connector-curvature="0"
       id="path4815"
       d="m 414.57534,508.59992 c -0.19004,-0.0118 -0.38718,0.0133 -0.56446,0.0742 -0.25585,0.0879 -0.37596,0.14857 -0.48047,0.24805 -0.0306,0.0291 -0.14909,0.1322 -0.26562,0.22851 -0.16819,0.13901 -0.38198,0.40007 -0.625,0.73438 -0.28703,0.39484 -0.61974,0.90332 -1.02344,1.58789 -0.22676,0.38455 -0.53928,0.89695 -0.69531,1.13867 -0.15602,0.24171 -0.33525,0.52805 -0.39844,0.63672 -0.25587,0.43998 -1.10478,1.59813 -1.77344,2.41992 -0.56608,0.69572 -1.63945,1.69261 -2.04492,1.89844 -0.0769,0.039 -0.21289,0.11863 -0.30078,0.17773 -0.19717,0.13255 -0.56168,0.2763 -1.05078,0.41602 -0.41354,0.11814 -1.18907,0.50158 -1.52148,0.75195 -0.5688,0.42841 -1.841,1.79946 -2.3711,2.55469 -0.0825,0.11748 -0.20899,0.27686 -0.28125,0.35547 -0.0722,0.0786 -0.16593,0.19089 -0.20898,0.24805 -0.0482,0.064 -0.20892,0.15717 -0.41797,0.24218 -0.18678,0.076 -0.50145,0.20947 -0.69922,0.29688 -0.19777,0.0874 -0.74631,0.30681 -1.21875,0.48828 -0.47244,0.18147 -1.04857,0.4174 -1.2793,0.52344 -0.23073,0.10603 -0.56248,0.24578 -0.73828,0.31054 -0.48852,0.17997 -1.53113,0.59916 -1.69336,0.68164 -0.0795,0.0404 -0.70161,0.29384 -1.38281,0.56055 -0.68119,0.26671 -1.37425,0.54609 -1.53906,0.62305 -0.1648,0.077 -0.51563,0.22678 -0.7793,0.33203 -0.63327,0.2528 -0.63764,0.28003 -0.11914,0.62109 0.18054,0.11876 0.81348,0.57272 1.43359,1.0293 0.12945,0.0953 0.35478,0.25608 0.5,0.35547 0.14523,0.0994 0.43382,0.30544 0.64258,0.45898 0.20875,0.15353 0.45616,0.32864 0.54883,0.38868 0.15312,0.0992 0.78192,0.55026 1.38477,0.99414 0.12945,0.0953 0.35478,0.25593 0.5,0.35546 0.24605,0.16863 0.78388,0.55558 1.33789,0.9629 0.44963,0.33058 0.907,0.63281 0.95703,0.63281 0.0513,0 0.6965,-0.25063 0.81836,-0.31836 0.15157,-0.0842 0.48279,-0.16912 0.74609,-0.18945 0.0426,-0.003 0.0896,0.0142 0.12891,0.0137 0.15683,-0.002 0.29327,1.7e-4 0.51172,0.0547 0.57011,0.14237 0.7406,0.25052 1.26171,0.79102 0.40401,0.41905 0.5213,0.57429 0.94727,1.26172 0.53356,0.86106 0.74595,1.26352 0.94531,1.78125 0.0725,0.18836 0.26196,0.6118 0.41992,0.94141 0.15795,0.32962 0.36389,0.80589 0.45899,1.05859 0.0951,0.2527 0.25797,0.64818 0.36133,0.87891 0.10336,0.23072 0.31077,0.72592 0.46093,1.10156 0.15016,0.37563 0.33545,0.82005 0.41211,0.98828 0.099,0.21734 0.16159,0.3068 0.21289,0.30664 0.0928,-3.2e-4 0.67823,-0.1409 0.99415,-0.23828 0.23781,-0.0733 0.96771,-0.42924 1.57421,-0.76758 0.16481,-0.0919 0.47983,-0.30863 0.69922,-0.48242 0.45723,-0.36218 1.70306,-1.47113 1.83203,-1.63086 0.0476,-0.0589 0.32835,-0.37513 0.625,-0.70313 0.29665,-0.328 0.7644,-0.8559 1.03907,-1.17187 0.27468,-0.31596 0.63517,-0.72789 0.80078,-0.91602 0.1656,-0.18813 0.48314,-0.55662 0.70508,-0.82031 0.5509,-0.65455 1.74393,-1.82367 2.22851,-2.18164 0.88348,-0.65262 1.46029,-0.93644 2.16992,-1.07227 0.52891,-0.10124 0.95935,-0.0629 1.56641,0.14258 0.49495,0.16757 0.64565,0.2417 1.01953,0.49414 0.15382,0.10386 0.32932,0.21878 0.39063,0.25586 0.29195,0.17653 1.19708,0.94835 1.82812,1.56055 1.37645,1.33536 2.74442,2.4841 2.8418,2.38672 0.0422,-0.0422 -0.10497,-0.40925 -0.54688,-1.36719 -0.14699,-0.31862 -0.34492,-0.78636 -0.43945,-1.03906 -0.0945,-0.2527 -0.30104,-0.76511 -0.45898,-1.13867 -0.15794,-0.37356 -0.36424,-0.89452 -0.45899,-1.15821 -0.0947,-0.26369 -0.30141,-0.78464 -0.45898,-1.1582 -0.15758,-0.37356 -0.38294,-0.93064 -0.5,-1.23828 -0.11706,-0.30763 -0.33713,-0.88376 -0.49024,-1.2793 -0.31996,-0.82651 -1.04004,-2.88985 -2.14648,-6.15234 -1.10211,-3.24976 -1.63986,-4.76231 -2.26953,-6.39258 -0.53585,-1.38737 -1.53608,-3.44493 -2.07227,-4.26172 -0.37685,-0.57407 -1.10635,-1.3333 -1.46484,-1.52539 -0.15232,-0.0816 -0.33535,-0.13078 -0.52539,-0.14258 z"
       style="fill:#000000;fill-opacity:0.11764706" />
    <path
       style="fill:#000000;fill-opacity:0.23529412"
       d="m 414.57534,508.19992 c -0.19004,-0.0118 -0.38718,0.0133 -0.56446,0.0742 -0.25585,0.0879 -0.37596,0.14857 -0.48047,0.24805 -0.0306,0.0291 -0.14909,0.1322 -0.26562,0.22851 -0.16819,0.13901 -0.38198,0.40007 -0.625,0.73438 -0.28703,0.39484 -0.61974,0.90332 -1.02344,1.58789 -0.22676,0.38455 -0.53928,0.89695 -0.69531,1.13867 -0.15602,0.24171 -0.33525,0.52805 -0.39844,0.63672 -0.25587,0.43998 -1.10478,1.59813 -1.77344,2.41992 -0.56608,0.69572 -1.63945,1.69261 -2.04492,1.89844 -0.0769,0.039 -0.21289,0.11863 -0.30078,0.17773 -0.19717,0.13255 -0.56168,0.2763 -1.05078,0.41602 -0.41354,0.11814 -1.18907,0.50158 -1.52148,0.75195 -0.5688,0.42841 -1.841,1.79946 -2.3711,2.55469 -0.0825,0.11748 -0.20899,0.27686 -0.28125,0.35547 -0.0722,0.0786 -0.16593,0.19089 -0.20898,0.24805 -0.0482,0.064 -0.20892,0.15717 -0.41797,0.24218 -0.18678,0.076 -0.50145,0.20947 -0.69922,0.29688 -0.19777,0.0874 -0.74631,0.30681 -1.21875,0.48828 -0.47244,0.18147 -1.04857,0.4174 -1.2793,0.52344 -0.23073,0.10603 -0.56248,0.24578 -0.73828,0.31054 -0.48852,0.17997 -1.53113,0.59916 -1.69336,0.68164 -0.0795,0.0404 -0.70161,0.29384 -1.38281,0.56055 -0.68119,0.26671 -1.37425,0.54609 -1.53906,0.62305 -0.1648,0.077 -0.51563,0.22678 -0.7793,0.33203 -0.63327,0.2528 -0.63764,0.28003 -0.11914,0.62109 0.18054,0.11876 0.81348,0.57272 1.43359,1.0293 0.12945,0.0953 0.35478,0.25608 0.5,0.35547 0.14523,0.0994 0.43382,0.30544 0.64258,0.45898 0.20875,0.15353 0.45616,0.32864 0.54883,0.38868 0.15312,0.0992 0.78192,0.55026 1.38477,0.99414 0.12945,0.0953 0.35478,0.25593 0.5,0.35546 0.24605,0.16863 0.78388,0.55558 1.33789,0.9629 0.44963,0.33058 0.907,0.63281 0.95703,0.63281 0.0513,0 0.6965,-0.25063 0.81836,-0.31836 0.15157,-0.0842 0.48279,-0.16912 0.74609,-0.18945 0.0426,-0.003 0.0896,0.0142 0.12891,0.0137 0.15683,-0.002 0.29327,1.7e-4 0.51172,0.0547 0.57011,0.14237 0.7406,0.25052 1.26171,0.79102 0.40401,0.41905 0.5213,0.57429 0.94727,1.26172 0.53356,0.86106 0.74595,1.26352 0.94531,1.78125 0.0725,0.18836 0.26196,0.6118 0.41992,0.94141 0.15795,0.32962 0.36389,0.80589 0.45899,1.05859 0.0951,0.2527 0.25797,0.64818 0.36133,0.87891 0.10336,0.23072 0.31077,0.72592 0.46093,1.10156 0.15016,0.37563 0.33545,0.82005 0.41211,0.98828 0.099,0.21734 0.16159,0.3068 0.21289,0.30664 0.0928,-3.2e-4 0.67823,-0.1409 0.99415,-0.23828 0.23781,-0.0733 0.96771,-0.42924 1.57421,-0.76758 0.16481,-0.0919 0.47983,-0.30863 0.69922,-0.48242 0.45723,-0.36218 1.70306,-1.47113 1.83203,-1.63086 0.0476,-0.0589 0.32835,-0.37513 0.625,-0.70313 0.29665,-0.328 0.7644,-0.8559 1.03907,-1.17187 0.27468,-0.31596 0.63517,-0.72789 0.80078,-0.91602 0.1656,-0.18813 0.48314,-0.55662 0.70508,-0.82031 0.5509,-0.65455 1.74393,-1.82367 2.22851,-2.18164 0.88348,-0.65262 1.46029,-0.93644 2.16992,-1.07227 0.52891,-0.10124 0.95935,-0.0629 1.56641,0.14258 0.49495,0.16757 0.64565,0.2417 1.01953,0.49414 0.15382,0.10386 0.32932,0.21878 0.39063,0.25586 0.29195,0.17653 1.19708,0.94835 1.82812,1.56055 1.37645,1.33536 2.74442,2.4841 2.8418,2.38672 0.0422,-0.0422 -0.10497,-0.40925 -0.54688,-1.36719 -0.14699,-0.31862 -0.34492,-0.78636 -0.43945,-1.03906 -0.0945,-0.2527 -0.30104,-0.76511 -0.45898,-1.13867 -0.15794,-0.37356 -0.36424,-0.89452 -0.45899,-1.15821 -0.0947,-0.26369 -0.30141,-0.78464 -0.45898,-1.1582 -0.15758,-0.37356 -0.38294,-0.93064 -0.5,-1.23828 -0.11706,-0.30763 -0.33713,-0.88376 -0.49024,-1.2793 -0.31996,-0.82651 -1.04004,-2.88985 -2.14648,-6.15234 -1.10211,-3.24976 -1.63986,-4.76231 -2.26953,-6.39258 -0.53585,-1.38737 -1.53608,-3.44493 -2.07227,-4.26172 -0.37685,-0.57407 -1.10635,-1.3333 -1.46484,-1.52539 -0.15232,-0.0816 -0.33535,-0.13078 -0.52539,-0.14258 z"
       id="path4817"
       inkscape:connector-curvature="0" />
    <path
       inkscape:connector-curvature="0"
       style="fill:#000000;fill-opacity:1;stroke:none"
       d="m 384.57143,544.79799 0,1.0625 c 0,1.0773 0.86022,1.9375 1.9375,1.9375 l 44.125,0 c 1.07728,0 1.9375,-0.8602 1.9375,-1.9375 l 0,-1.0625 c 0,1.0773 -0.86022,1.9375 -1.9375,1.9375 l -44.125,0 c -1.07728,0 -1.9375,-0.8602 -1.9375,-1.9375 z"
       id="rect846" />
    <path
       inkscape:connector-curvature="0"
       style="fill:#ffffff;fill-opacity:0.5372549;stroke:none"
       d="m 387.10268,500.45429 c -0.91709,0 -1.67115,0.6395 -1.84375,1.5 0.33561,-0.2799 0.77451,-0.4375 1.25,-0.4375 l 44.125,0 c 0.47549,0 0.91439,0.1576 1.25,0.4375 -0.1726,-0.8605 -0.92666,-1.5 -1.84375,-1.5 l -42.9375,0 z"
       id="path7515" />
    <path
       inkscape:connector-curvature="0"
       style="fill:#000000;fill-opacity:0.39215686;stroke:none"
       d="m 386.50893,499.79799 c -1.07728,0 -1.9375,0.8602 -1.9375,1.9375 l 0,43.0625 c 0,0.7934 0.48002,1.449 1.15625,1.75 -0.30934,-0.3333 -0.5,-0.7824 -0.5,-1.2812 l 0,-42.9375 c 0,-1.0482 0.8269,-1.875 1.875,-1.875 l 42.9375,0 c 1.0481,0 1.875,0.8268 1.875,1.875 l 0,42.9375 c 0,0.4988 -0.19066,0.9479 -0.5,1.2812 0.67623,-0.301 1.15625,-0.9566 1.15625,-1.75 l 0,-43.0625 c 0,-1.0773 -0.86022,-1.9375 -1.9375,-1.9375 l -44.125,0 z"
       id="rect4280" />
    <path
       style="fill:#d5600f;fill-opacity:1"
       d="m 400.10023,530.63465 c 0.15683,-0.002 0.29281,-10e-6 0.51126,0.0545 0.57011,0.14237 0.74183,0.24986 1.26294,0.79036 0.40401,0.41905 0.52043,0.5736 0.9464,1.26103 0.53356,0.86106 0.74705,1.26345 0.94641,1.78118 0.0725,0.18836 0.26133,0.61235 0.41929,0.94196 0.15795,0.32962 0.36478,0.80599 0.45988,1.05869 0.0951,0.2527 0.25757,0.64844 0.36093,0.87917 0.10336,0.23072 0.31099,0.72681 0.46115,1.10245 0.15016,0.37563 0.33565,0.82004 0.41231,0.98827 0.099,0.21734 0.15993,0.3059 0.21123,0.30574 0.0928,-3.2e-4 0.67996,-0.14049 0.99588,-0.23787 0.23781,-0.0733 0.96725,-0.42919 1.57375,-0.76753 0.16481,-0.0919 0.479,-0.30893 0.69839,-0.48272 0.45723,-0.36218 1.70295,-1.47174 1.83192,-1.63147 0.0476,-0.0589 0.32943,-0.37546 0.62608,-0.70346 0.29665,-0.328 0.76371,-0.85436 1.03838,-1.17033 0.27468,-0.31596 0.63491,-0.72846 0.80052,-0.91659 0.1656,-0.18813 0.48279,-0.55776 0.70473,-0.82145 0.5509,-0.65455 1.74505,-1.82219 2.22963,-2.18016 0.88348,-0.65262 1.45912,-0.93744 2.16875,-1.07327 0.52891,-0.10124 0.96098,-0.0615 1.56804,0.14399 0.49495,0.16757 0.64484,0.23979 1.01872,0.49223 0.15382,0.10386 0.32943,0.21919 0.39074,0.25627 0.29195,0.17653 1.19644,0.9495 1.82748,1.5617 1.37645,1.33536 2.74438,2.48433 2.84176,2.38695 0.0422,-0.0422 -0.10487,-0.41029 -0.54678,-1.36823 -0.14699,-0.31862 -0.34442,-0.78632 -0.43895,-1.03902 -0.0945,-0.2527 -0.30131,-0.76505 -0.45925,-1.13861 -0.15794,-0.37356 -0.3645,-0.89458 -0.45925,-1.15827 -0.0947,-0.26369 -0.30104,-0.78534 -0.45861,-1.1589 -0.15758,-0.37356 -0.38279,-0.93056 -0.49985,-1.2382 -0.11706,-0.30763 -0.33785,-0.88325 -0.49096,-1.27879 -0.31996,-0.82651 -1.04011,-2.89042 -2.14655,-6.15291 -1.10211,-3.24976 -1.63866,-4.76179 -2.26833,-6.39206 -0.53585,-1.38737 -1.53614,-3.44458 -2.07233,-4.26137 -0.37685,-0.57407 -1.10616,-1.33409 -1.46465,-1.52618 -0.30464,-0.16323 -0.73521,-0.18969 -1.08976,-0.0679 -0.25585,0.0879 -0.37567,0.14981 -0.48018,0.24929 -0.0306,0.0291 -0.15052,0.13141 -0.26705,0.22772 -0.16819,0.13901 -0.38242,0.3996 -0.62544,0.73391 -0.0982,0.36851 -0.15266,0.73406 -0.25944,1.10245 -0.50122,1.72929 -1.09783,3.45468 -1.79069,5.15069 -0.69286,1.69601 -1.48218,3.36261 -2.36919,4.97498 -0.4435,0.80619 -0.91124,1.59907 -1.40375,2.3749 -0.49251,0.77583 -1.00971,1.53485 -1.55155,2.27404 -0.54184,0.73919 -1.10851,1.45854 -1.69998,2.15479 -0.59148,0.69625 -1.20762,1.36886 -1.84905,2.01587 -0.51799,0.5225 -1.06423,1.01539 -1.61498,1.50208 z"
       id="path4722"
       inkscape:connector-curvature="0" />
    <path
       style="fill:#6dd6cd;fill-opacity:1"
       d="m 400.10023,530.63465 c 0.55075,-0.48669 1.09699,-0.97958 1.61498,-1.50208 0.64143,-0.64701 1.25757,-1.31962 1.84905,-2.01587 0.59147,-0.69625 1.15814,-1.4156 1.69998,-2.15479 0.54184,-0.73919 1.05904,-1.49821 1.55155,-2.27404 0.49251,-0.77583 0.96025,-1.56871 1.40375,-2.3749 0.88701,-1.61237 1.67633,-3.27897 2.36919,-4.97498 0.69286,-1.69601 1.28947,-3.4214 1.79069,-5.15069 0.10678,-0.36839 0.16129,-0.73394 0.25944,-1.10245 -0.28703,0.39484 -0.61883,0.90313 -1.02253,1.5877 -0.22676,0.38455 -0.53982,0.89753 -0.69585,1.13925 -0.15602,0.24171 -0.33516,0.52818 -0.39835,0.63685 -0.25587,0.43998 -1.10427,1.59751 -1.77293,2.4193 -0.56608,0.69572 -1.63958,1.69206 -2.04505,1.89789 -0.0769,0.039 -0.21214,0.11915 -0.30003,0.17825 -0.19717,0.13255 -0.56261,0.27766 -1.05171,0.41738 -0.41354,0.11814 -1.18869,0.5013 -1.5211,0.75167 -0.5688,0.42841 -1.841,1.79855 -2.3711,2.55378 -0.0825,0.11748 -0.20938,0.27788 -0.28164,0.35649 -0.0722,0.0786 -0.16627,0.19022 -0.20932,0.24738 -0.0482,0.064 -0.20897,0.15667 -0.41802,0.24168 -0.18678,0.076 -0.50125,0.20945 -0.69902,0.29686 -0.19777,0.0874 -0.74609,0.30759 -1.21853,0.48906 -0.47244,0.18147 -1.04806,0.41665 -1.27879,0.52269 -0.23073,0.10603 -0.56319,0.24605 -0.73899,0.31081 -0.48852,0.17997 -1.53141,0.60005 -1.69364,0.68253 -0.0795,0.0404 -0.70162,0.29213 -1.38282,0.55884 -0.68119,0.26671 -1.37342,0.54785 -1.53823,0.62481 -0.1648,0.077 -0.51527,0.22586 -0.77894,0.33111 -0.63327,0.2528 -0.63839,0.27931 -0.11989,0.62037 0.18054,0.11876 0.81346,0.57419 1.43357,1.03077 0.12945,0.0953 0.35462,0.25456 0.49984,0.35395 0.14523,0.0994 0.43445,0.30635 0.64321,0.45989 0.20875,0.15353 0.45538,0.32816 0.54805,0.3882 0.15312,0.0992 0.78251,0.55137 1.38536,0.99525 0.12945,0.0953 0.35462,0.25442 0.49984,0.35395 0.24605,0.16863 0.78504,0.55685 1.33905,0.96417 0.44963,0.33058 0.90653,0.63305 0.95656,0.63305 0.0513,0 0.69578,-0.25197 0.81764,-0.3197 0.15157,-0.0842 0.4833,-0.16806 0.7466,-0.18839 0.0426,-0.003 0.0888,0.0145 0.12813,0.014 z"
       id="path4717"
       inkscape:connector-curvature="0" />
    <path
       style="fill:url(#linearGradient4756);fill-opacity:1;stroke:none"
       d="M 27.017578 12.875 C 25.698762 14.362985 21.05711 21.852723 18.421875 21.785156 C 15.351635 21.706456 7.1640625 25.798828 7.1640625 25.798828 C 7.1640625 25.798828 7.900948 26.713419 8.9023438 27.849609 C 8.9780637 27.904259 9.0407963 27.947092 9.1074219 27.996094 C 9.3161719 28.149624 9.56358 28.324726 9.65625 28.384766 C 9.80937 28.483966 10.438166 28.935026 11.041016 29.378906 C 11.170466 29.474206 11.395796 29.634845 11.541016 29.734375 C 11.787066 29.903005 12.324896 30.289946 12.878906 30.697266 C 13.328536 31.027846 13.785907 31.330078 13.835938 31.330078 C 13.887238 31.330078 14.532437 31.079449 14.654297 31.011719 C 14.805867 30.927519 15.137091 30.842596 15.400391 30.822266 C 15.442991 30.819266 15.489967 30.836437 15.529297 30.835938 C 16.080047 30.349248 16.626541 29.856484 17.144531 29.333984 C 17.785961 28.686974 18.400708 28.014609 18.992188 27.318359 C 19.583658 26.622109 20.151519 25.903253 20.693359 25.164062 C 21.235199 24.424872 21.751631 23.666455 22.244141 22.890625 C 22.736651 22.114795 23.204937 21.321815 23.648438 20.515625 C 24.535447 18.903255 25.324718 17.235073 26.017578 15.539062 C 26.377637 14.657696 26.709385 13.768659 27.017578 12.875 z "
       transform="translate(384.57143,499.798)"
       id="path4745" />
    <path
       style="fill:url(#linearGradient4743);stroke:none;fill-opacity:1"
       d="M 24.638672 18.582031 C 22.883738 19.393387 18.881933 21.113411 16.232422 21.568359 C 16.155564 21.617245 16.106592 21.663556 15.980469 21.714844 C 15.955499 21.725004 15.915669 21.741936 15.886719 21.753906 C 18.430362 22.577684 20.010122 23.691869 20.947266 24.792969 C 21.393838 24.1692 21.832101 23.539693 22.244141 22.890625 C 22.736651 22.114795 23.204935 21.321815 23.648438 20.515625 C 23.997487 19.881136 24.319802 19.231803 24.638672 18.582031 z "
       transform="translate(384.57143,499.798)"
       id="path4726" />
    <path
       style="fill:url(#linearGradient4789);fill-opacity:1"
       d="m 30.003906,8.0019531 c -0.190041,-0.011795 -0.387178,0.013324 -0.564453,0.074219 -0.25585,0.0879 -0.375959,0.1485669 -0.480469,0.2480469 -0.0306,0.0291 -0.149095,0.1322056 -0.265625,0.2285156 -0.16819,0.13901 -0.38198,0.400065 -0.625,0.734375 -0.0982,0.36851 -0.152985,0.7331724 -0.259765,1.1015624 -0.50122,1.72929 -1.098156,3.45438 -1.791016,5.15039 -0.69286,1.696011 -1.482131,3.364193 -2.36914,4.976563 -0.4435,0.80619 -0.911787,1.59917 -1.404297,2.375 -0.49251,0.77583 -1.008942,1.534247 -1.550782,2.273437 -0.54184,0.739191 -1.109702,1.458047 -1.701171,2.154297 -0.59148,0.69625 -1.206227,1.368615 -1.847657,2.015625 -0.51799,0.5225 -1.064484,1.015264 -1.615234,1.501954 0.15683,-0.002 0.293269,1.77e-4 0.511719,0.05469 0.57011,0.14237 0.740608,0.250516 1.261718,0.791016 0.40401,0.41905 0.521296,0.574288 0.947266,1.261718 0.53356,0.86106 0.745952,1.26352 0.945312,1.78125 0.0725,0.18836 0.261962,0.611797 0.419922,0.941407 0.04575,0.09546 0.08277,0.195556 0.132813,0.30664 C 27.501762,30.379662 29.019722,18.55117 30.564502,10.91917 30.334187,10.47899 30.193883,9.9256058 30.026039,9.6699251 29.649189,9.0958551 30.887787,8.3366245 30.529297,8.1445344 30.376977,8.0629194 30.193948,8.0137513 30.003906,8.0019531 Z"
       id="path4784"
       transform="translate(384.57143,499.798)"
       inkscape:connector-curvature="0"
       sodipodi:nodetypes="scccccssssssccssccccscs" />
    <path
       style="fill:#000000;fill-opacity:0.23529412"
       d="M 29.804688 8.0078125 C 29.679726 8.016365 29.555234 8.0364004 29.439453 8.0761719 C 29.183603 8.1640719 29.063494 8.2247388 28.958984 8.3242188 C 28.928384 8.3533188 28.809889 8.4564244 28.693359 8.5527344 C 28.525169 8.6917444 28.311379 8.9527994 28.068359 9.2871094 C 27.970159 9.6556194 27.915374 10.020282 27.808594 10.388672 C 27.307374 12.117962 26.710438 13.843052 26.017578 15.539062 C 25.324718 17.235073 24.535447 18.903255 23.648438 20.515625 C 23.204938 21.321815 22.736651 22.114795 22.244141 22.890625 C 21.751631 23.666455 21.235199 24.424872 20.693359 25.164062 C 20.151519 25.903253 19.583657 26.622109 18.992188 27.318359 C 18.400708 28.014609 17.785961 28.686974 17.144531 29.333984 C 16.626541 29.856484 16.080047 30.349248 15.529297 30.835938 C 15.686127 30.833938 15.822566 30.836115 16.041016 30.890625 C 16.416364 30.984358 16.621857 31.074462 16.865234 31.271484 C 16.996526 31.144835 17.131279 31.022183 17.259766 30.892578 C 17.981376 30.164688 18.674424 29.40828 19.339844 28.625 C 20.005234 27.84172 20.642393 27.030809 21.251953 26.199219 C 21.861533 25.367629 22.443957 24.515388 22.998047 23.642578 C 23.552117 22.769768 24.077232 21.877673 24.576172 20.970703 C 25.574062 19.156793 26.462728 17.281067 27.242188 15.373047 C 28.021667 13.465037 28.693953 11.523575 29.257812 9.578125 C 29.377952 9.163675 29.438348 8.7524706 29.548828 8.3378906 C 29.640161 8.2122492 29.721307 8.1129362 29.804688 8.0078125 z M 38.337891 31.873047 C 38.563555 32.074386 38.795086 32.275638 38.994141 32.46875 C 40.370591 33.80411 41.738557 34.952849 41.835938 34.855469 C 41.863376 34.828031 41.769031 34.582566 41.607422 34.207031 C 40.921822 33.561914 40.080973 32.840979 39.785156 32.662109 C 39.716176 32.620389 39.518743 32.489887 39.345703 32.373047 C 38.971682 32.12051 38.76352 32.022922 38.337891 31.873047 z "
       id="path4758"
       transform="translate(384.57143,499.798)" />
    <path
       style="fill:url(#linearGradient4782);stroke:none;stroke-width:1px;stroke-linecap:butt;stroke-linejoin:miter;stroke-opacity:1;fill-opacity:1"
       d="M 23.513672 34.919922 C 22.381106 34.887154 21.0539 35.052963 19.521484 35.455078 C 19.5583 35.534648 19.579862 35.592205 19.615234 35.666016 C 19.773184 35.995636 19.979119 36.471909 20.074219 36.724609 C 20.169319 36.977309 20.332187 37.372786 20.435547 37.603516 C 20.538907 37.834236 20.746324 38.329438 20.896484 38.705078 C 21.046644 39.080708 21.231934 39.525129 21.308594 39.693359 C 21.407594 39.910699 21.470184 40.00016 21.521484 40 C 21.614284 39.99968 22.199705 39.859099 22.515625 39.761719 C 22.753435 39.688419 23.483344 39.332481 24.089844 38.994141 C 24.254654 38.902241 24.569672 38.685509 24.789062 38.511719 C 25.246292 38.149539 26.492124 37.040589 26.621094 36.880859 C 26.668694 36.821959 26.949444 36.505734 27.246094 36.177734 C 27.272822 36.148182 27.310614 36.10474 27.339844 36.072266 C 26.386211 35.412859 25.145127 34.967124 23.513672 34.919922 z "
       transform="translate(384.57143,499.798)"
       id="path4771" />
    <path
       style="fill:url(#linearGradient4848);fill-opacity:1.0"
       d="M 30.003906 8.0019531 C 29.813865 7.9901581 29.616728 8.0152769 29.439453 8.0761719 C 29.183603 8.1640719 29.063494 8.2247388 28.958984 8.3242188 C 28.928384 8.3533188 28.809889 8.4564244 28.693359 8.5527344 C 28.525169 8.6917444 28.311379 8.9527994 28.068359 9.2871094 C 27.970159 9.6556194 27.915374 10.020282 27.808594 10.388672 C 27.307374 12.117962 26.710438 13.843052 26.017578 15.539062 C 25.324718 17.235073 24.535447 18.903255 23.648438 20.515625 C 23.204938 21.321815 22.736651 22.114795 22.244141 22.890625 C 21.751631 23.666455 21.235199 24.424872 20.693359 25.164062 C 20.151519 25.903253 19.583657 26.622109 18.992188 27.318359 C 18.88932 27.439448 18.782097 27.556133 18.677734 27.675781 C 27.541048 24.505308 33.834676 24.510269 38.291016 25.927734 C 37.93467 24.974166 37.34368 23.295686 36.335938 20.324219 C 35.233828 17.074459 34.696076 15.561911 34.066406 13.931641 C 33.530556 12.544271 32.530331 10.486712 31.994141 9.6699219 C 31.617291 9.0958519 30.887787 8.3366213 30.529297 8.1445312 C 30.376977 8.0629163 30.193948 8.0137481 30.003906 8.0019531 z "
       transform="translate(384.57143,499.798)"
       id="path4837" />
    <path
       style="fill:url(#linearGradient4868);fill-opacity:1"
       d="M 30.003906 8.0019531 C 29.813865 7.9901581 29.616728 8.0152769 29.439453 8.0761719 C 29.183603 8.1640719 29.063494 8.2247388 28.958984 8.3242188 C 28.928384 8.3533188 28.809889 8.4564244 28.693359 8.5527344 C 28.525169 8.6917444 28.311379 8.9527994 28.068359 9.2871094 C 27.970159 9.6556194 27.915374 10.020282 27.808594 10.388672 C 27.307374 12.117962 26.710438 13.843052 26.017578 15.539062 C 25.324718 17.235073 24.535447 18.903255 23.648438 20.515625 C 23.204938 21.321815 22.736651 22.114795 22.244141 22.890625 C 22.11888 23.087943 21.978063 23.273657 21.849609 23.46875 C 37.278453 13.702347 33.600324 28.316065 38.537109 26.619141 C 38.518599 26.571198 38.499488 26.520651 38.482422 26.476562 C 38.162462 25.650053 37.442377 23.586709 36.335938 20.324219 C 35.233828 17.074459 34.696076 15.561911 34.066406 13.931641 C 33.530556 12.544271 32.530331 10.486712 31.994141 9.6699219 C 31.617291 9.0958519 30.887787 8.3366213 30.529297 8.1445312 C 30.376977 8.0629163 30.193948 8.0137481 30.003906 8.0019531 z "
       transform="translate(384.57143,499.798)"
       id="path4857" />
    <path
       style="fill:url(#linearGradient4808);fill-opacity:1"
       d="M 30.003906 8.0019531 C 29.813865 7.9901581 29.616728 8.0152769 29.439453 8.0761719 C 29.21636 8.1528178 29.102133 8.2117524 29.005859 8.2910156 C 35.077578 16.614381 35.966914 24.311218 35.273438 30.025391 C 35.42511 30.05764 35.581828 30.099294 35.755859 30.158203 C 36.250809 30.325773 36.401511 30.399904 36.775391 30.652344 C 36.929211 30.756204 37.104706 30.871123 37.166016 30.908203 C 37.457966 31.084733 38.363101 31.85655 38.994141 32.46875 C 40.370591 33.80411 41.738557 34.952849 41.835938 34.855469 C 41.878137 34.813269 41.730973 34.446221 41.289062 33.488281 C 41.142072 33.169661 40.944139 32.701919 40.849609 32.449219 C 40.755109 32.196519 40.548565 31.684107 40.390625 31.310547 C 40.232685 30.936987 40.026391 30.416034 39.931641 30.152344 C 39.836941 29.888654 39.630226 29.367701 39.472656 28.994141 C 39.315076 28.620581 39.089716 28.063499 38.972656 27.755859 C 38.855596 27.448229 38.635532 26.872102 38.482422 26.476562 C 38.162462 25.650053 37.442377 23.586709 36.335938 20.324219 C 35.233828 17.074459 34.696076 15.561911 34.066406 13.931641 C 33.530556 12.544271 32.530331 10.486712 31.994141 9.6699219 C 31.617291 9.0958519 30.887787 8.3366213 30.529297 8.1445312 C 30.376977 8.0629163 30.193948 8.0137481 30.003906 8.0019531 z "
       transform="translate(384.57143,499.798)"
       id="path4797" />
    <path
       style="fill:#0f0f0f;fill-opacity:0.3137255"
       d="M 6.7324219 25.496094 C 6.7030266 25.508034 6.6781704 25.520161 6.6503906 25.53125 C 6.0171206 25.78405 6.01275 25.811284 6.53125 26.152344 C 6.71179 26.271104 7.3447337 26.725061 7.9648438 27.181641 C 8.0942938 27.276941 8.3196238 27.437719 8.4648438 27.537109 C 8.6100737 27.636509 8.8986619 27.842554 9.1074219 27.996094 C 9.3161719 28.149624 9.56358 28.324726 9.65625 28.384766 C 9.80937 28.483966 10.438166 28.935026 11.041016 29.378906 C 11.170466 29.474206 11.395796 29.634845 11.541016 29.734375 C 11.787066 29.903005 12.324896 30.289946 12.878906 30.697266 C 13.328536 31.027846 13.785907 31.330078 13.835938 31.330078 C 13.887237 31.330078 14.532437 31.079449 14.654297 31.011719 C 14.805867 30.927519 15.137091 30.842596 15.400391 30.822266 C 15.442991 30.819266 15.489967 30.836437 15.529297 30.835938 C 15.686127 30.833938 15.822566 30.836115 16.041016 30.890625 C 16.611126 31.032995 16.781624 31.141141 17.302734 31.681641 C 17.706744 32.100691 17.82403 32.255929 18.25 32.943359 C 18.78356 33.804419 18.995952 34.206879 19.195312 34.724609 C 19.267812 34.912969 19.457274 35.336406 19.615234 35.666016 C 19.773184 35.995636 19.979119 36.471909 20.074219 36.724609 C 20.169319 36.977309 20.332187 37.372786 20.435547 37.603516 C 20.538907 37.834236 20.746324 38.329438 20.896484 38.705078 C 21.046644 39.080708 21.231934 39.525129 21.308594 39.693359 C 21.407594 39.910699 21.470184 40.00016 21.521484 40 C 21.614284 39.99968 22.199705 39.859099 22.515625 39.761719 C 22.753435 39.688419 23.483344 39.332481 24.089844 38.994141 C 24.254654 38.902241 24.569673 38.685509 24.789062 38.511719 C 25.246292 38.149539 26.492124 37.040589 26.621094 36.880859 C 26.668694 36.821959 26.949444 36.505734 27.246094 36.177734 C 27.542744 35.849734 28.010486 35.321829 28.285156 35.005859 C 28.559836 34.689899 28.920327 34.277974 29.085938 34.089844 C 29.251537 33.901714 29.569076 33.533221 29.791016 33.269531 C 30.341916 32.614981 31.534951 31.445861 32.019531 31.087891 C 32.903011 30.435271 33.479823 30.151455 34.189453 30.015625 C 34.718363 29.914385 35.148799 29.952713 35.755859 30.158203 C 36.250809 30.325773 36.401511 30.399904 36.775391 30.652344 C 36.929211 30.756204 37.104706 30.871123 37.166016 30.908203 C 37.457966 31.084733 38.363101 31.85655 38.994141 32.46875 C 40.370591 33.80411 41.738557 34.952849 41.835938 34.855469 C 41.871124 34.820281 41.728682 34.471222 41.439453 33.830078 C 40.922278 33.449088 39.971002 32.615669 38.994141 31.667969 C 38.363101 31.055769 37.457966 30.283952 37.166016 30.107422 C 37.104706 30.070342 36.929211 29.955423 36.775391 29.851562 C 36.401511 29.599123 36.250809 29.524992 35.755859 29.357422 C 35.148799 29.151942 34.718363 29.113614 34.189453 29.214844 C 33.479823 29.350684 32.903011 29.634489 32.019531 30.287109 C 31.534951 30.645079 30.341916 31.8142 29.791016 32.46875 C 29.569076 32.73244 29.251537 33.100932 29.085938 33.289062 C 28.920328 33.477193 28.559836 33.889118 28.285156 34.205078 C 28.010486 34.521048 27.542744 35.048953 27.246094 35.376953 C 26.949444 35.704953 26.668694 36.021178 26.621094 36.080078 C 26.492124 36.239808 25.246292 37.348758 24.789062 37.710938 C 24.569672 37.884728 24.254654 38.101459 24.089844 38.193359 C 23.483344 38.531699 22.753435 38.887637 22.515625 38.960938 C 22.199705 39.058318 21.614284 39.198899 21.521484 39.199219 C 21.470184 39.199379 21.407594 39.109918 21.308594 38.892578 C 21.231934 38.724348 21.046644 38.279927 20.896484 37.904297 C 20.746324 37.528657 20.538907 37.033454 20.435547 36.802734 C 20.332187 36.572004 20.169319 36.176528 20.074219 35.923828 C 19.979119 35.671128 19.773184 35.194854 19.615234 34.865234 C 19.457274 34.535634 19.267812 34.112188 19.195312 33.923828 C 18.995952 33.406098 18.78356 33.003638 18.25 32.142578 C 17.82403 31.455148 17.706744 31.299909 17.302734 30.880859 C 16.781624 30.340359 16.611126 30.232214 16.041016 30.089844 C 15.822566 30.035314 15.686127 30.033156 15.529297 30.035156 C 15.489987 30.035656 15.442991 30.018484 15.400391 30.021484 C 15.137091 30.041814 14.805867 30.126737 14.654297 30.210938 C 14.532437 30.278667 13.887238 30.529297 13.835938 30.529297 C 13.785908 30.529297 13.328536 30.227064 12.878906 29.896484 C 12.324896 29.489164 11.787066 29.102224 11.541016 28.933594 C 11.395796 28.834074 11.170466 28.673425 11.041016 28.578125 C 10.438166 28.134245 9.80937 27.683184 9.65625 27.583984 C 9.56358 27.523944 9.3161719 27.348843 9.1074219 27.195312 C 8.8986619 27.041772 8.6100738 26.835728 8.4648438 26.736328 C 8.3196238 26.636938 8.0942938 26.476159 7.9648438 26.380859 C 7.431771 25.988364 6.9889138 25.673439 6.7324219 25.496094 z "
       transform="translate(384.57143,499.798)"
       id="path4819" />
    <path
       style="fill:url(#linearGradient4835);fill-opacity:1;stroke:none"
       d="m 29.728516,10.357422 c 0,7.731584 -1.556771,14.452071 -5.115235,20.388672 -1.804566,1.476748 -1.736435,0.645256 -1.373047,2.289062 0.363399,1.643816 8.855066,-5.403342 9.335938,-5.410156 0.433367,-0.0061 1.520969,0.592397 1.964844,-0.496094 0.573736,-7.669192 -1.864351,-13.09554 -4.8125,-16.771484 z"
       transform="translate(384.57143,499.798)"
       id="path4827"
       inkscape:connector-curvature="0"
       sodipodi:nodetypes="ccsscc" />
  </g>
</svg>
