<?xml version="1.0" encoding="UTF-8" standalone="no"?>
<!-- Created with Inkscape (http://www.inkscape.org/) -->

<svg
   xmlns:dc="http://purl.org/dc/elements/1.1/"
   xmlns:cc="http://creativecommons.org/ns#"
   xmlns:rdf="http://www.w3.org/1999/02/22-rdf-syntax-ns#"
   xmlns:svg="http://www.w3.org/2000/svg"
   xmlns="http://www.w3.org/2000/svg"
   xmlns:xlink="http://www.w3.org/1999/xlink"
   xmlns:sodipodi="http://sodipodi.sourceforge.net/DTD/sodipodi-0.dtd"
   xmlns:inkscape="http://www.inkscape.org/namespaces/inkscape"
   width="48"
   height="48"
   id="svg2"
   version="1.1"
   inkscape:version="0.48+devel r12487"
   sodipodi:docname="mediainfo.svg">
  <defs
     id="defs4">
    <linearGradient
       id="linearGradient4087">
      <stop
         id="stop4089"
         offset="0"
         style="stop-color:#b9f1ff;stop-opacity:1" />
      <stop
         id="stop4091"
         offset="1"
         style="stop-color:#f5fdff;stop-opacity:1" />
    </linearGradient>
    <linearGradient
       id="linearGradient890">
      <stop
         id="stop892"
         offset="0"
         style="stop-color:#aad400;stop-opacity:1" />
      <stop
         id="stop894"
         offset="1"
         style="stop-color:#cdde87;stop-opacity:1" />
    </linearGradient>
    <linearGradient
       id="linearGradient873">
      <stop
         style="stop-color:#009ac0;stop-opacity:1"
         offset="0"
         id="stop875" />
      <stop
         style="stop-color:#2ad4ff;stop-opacity:1"
         offset="1"
         id="stop877" />
    </linearGradient>
    <linearGradient
       inkscape:collect="always"
       xlink:href="#linearGradient890"
       id="linearGradient830"
       x1="24.056538"
       y1="-1052.3057"
       x2="24.056538"
       y2="-1004.7297"
       gradientUnits="userSpaceOnUse" />
    <linearGradient
       inkscape:collect="always"
       xlink:href="#linearGradient873"
       id="linearGradient843"
       x1="23.320379"
       y1="1044.5359"
       x2="23.320379"
       y2="1012.451"
       gradientUnits="userSpaceOnUse"
       gradientTransform="matrix(0.93333325,0,0,0.93333325,1.6000022,68.557547)" />
    <linearGradient
       inkscape:collect="always"
       xlink:href="#linearGradient4087"
       id="linearGradient4085"
       x1="29.3125"
       y1="1034.1747"
       x2="29.3125"
       y2="1018.2372"
       gradientUnits="userSpaceOnUse" />
  </defs>
  <sodipodi:namedview
     id="base"
     pagecolor="#ffffff"
     bordercolor="#666666"
     borderopacity="1.0"
     inkscape:pageopacity="0.0"
     inkscape:pageshadow="2"
     inkscape:zoom="5.6568542"
     inkscape:cx="31.521143"
     inkscape:cy="35.042754"
     inkscape:document-units="px"
     inkscape:current-layer="layer1"
     showgrid="false"
     inkscape:window-width="1366"
     inkscape:window-height="715"
     inkscape:window-x="0"
     inkscape:window-y="30"
     inkscape:window-maximized="1"
     width="0px"
     height="0px"
     fit-margin-top="0"
     fit-margin-left="0"
     fit-margin-right="0"
     fit-margin-bottom="0">
    <inkscape:grid
       type="xygrid"
       id="grid3850"
       empspacing="5"
       visible="true"
       enabled="true"
       snapvisiblegridlinesonly="true" />
  </sodipodi:namedview>
  <metadata
     id="metadata7">
    <rdf:RDF>
      <cc:Work
         rdf:about="">
        <dc:format>image/svg+xml</dc:format>
        <dc:type
           rdf:resource="http://purl.org/dc/dcmitype/StillImage" />
        <dc:title />
      </cc:Work>
    </rdf:RDF>
  </metadata>
  <g
     inkscape:label="Capa 1"
     inkscape:groupmode="layer"
     id="layer1"
     transform="translate(0,-1004.3622)">
    <rect
       style="fill:url(#linearGradient830);fill-opacity:1;stroke:none"
       id="rect2991-1"
       width="48"
       height="48"
       x="1.0992431e-07"
       y="-1052.3622"
       ry="1.9445436"
       transform="scale(1,-1)" />
    <path
       style="fill:#000000;fill-opacity:0.05882353;stroke:none"
       d="m 10.83975,1014.1622 c -0.9591368,0 -1.7528458,0.766 -1.7528458,1.725 l 0,21.5068 c 0,0.9591 0.793709,1.753 1.7528458,1.753 l 9.793677,0 3.366573,5.8152 3.366581,-5.8152 9.79367,0 c 0.959136,0 1.752845,-0.7939 1.752845,-1.753 l 0,-21.5068 c 0,-0.959 -0.793708,-1.725 -1.752845,-1.725 l -26.320501,0 z"
       id="path4056"
       inkscape:connector-curvature="0" />
    <path
       inkscape:connector-curvature="0"
       id="path4054"
       d="m 10.83975,1013.7622 c -0.9591368,0 -1.7528458,0.766 -1.7528458,1.725 l 0,21.5068 c 0,0.9591 0.793709,1.753 1.7528458,1.753 l 9.793677,0 3.366573,5.8152 3.366581,-5.8152 9.79367,0 c 0.959136,0 1.752845,-0.7939 1.752845,-1.753 l 0,-21.5068 c 0,-0.959 -0.793708,-1.725 -1.752845,-1.725 l -26.320501,0 z"
       style="fill:#000000;fill-opacity:0.11764706;stroke:none" />
    <path
       style="fill:#000000;fill-opacity:0.05439331;stroke:none"
       d="M 5.1875 0 L 0 8.96875 L 0 18.84375 L 10.875 0 L 5.1875 0 z M 17.1875 0 L 0 29.75 L 0 39.625 L 22.875 0 L 17.1875 0 z M 29.1875 0 L 1.5 47.9375 C 1.6470818 47.972835 1.7792749 48 1.9375 48 L 7.15625 48 L 34.875 0 L 29.1875 0 z M 41.1875 0 L 13.46875 48 L 19.15625 48 L 46.8125 0.15625 C 46.579702 0.058111315 46.331819 0 46.0625 0 L 41.1875 0 z M 48 8.96875 L 25.46875 48 L 31.15625 48 L 48 18.84375 L 48 8.96875 z M 48 29.75 L 37.46875 48 L 43.15625 48 L 48 39.625 L 48 29.75 z "
       transform="translate(0,1004.3622)"
       id="rect2399" />
    <path
       style="fill:#000000;fill-opacity:0.23529412;stroke:none"
       d="m 10.83975,1013.3622 c -0.9591368,0 -1.7528458,0.766 -1.7528458,1.725 l 0,21.5068 c 0,0.9591 0.793709,1.753 1.7528458,1.753 l 9.793677,0 3.366573,5.8152 3.366581,-5.8152 9.79367,0 c 0.959136,0 1.752845,-0.7939 1.752845,-1.753 l 0,-21.5068 c 0,-0.959 -0.793708,-1.725 -1.752845,-1.725 l -26.320501,0 z"
       id="path4052"
       inkscape:connector-curvature="0" />
    <path
       inkscape:connector-curvature="0"
       style="fill:#000000;fill-opacity:1;stroke:none"
       d="m -1.0992432e-7,1049.3622 0,1.0625 c 0,1.0773 0.86022299992432,1.9375 1.93750000992432,1.9375 l 44.1250001,0 c 1.077277,0 1.9375,-0.8602 1.9375,-1.9375 l 0,-1.0625 c 0,1.0773 -0.860223,1.9375 -1.9375,1.9375 l -44.1250001,0 C 0.86022289,1051.2997 -1.0992432e-7,1050.4395 -1.0992432e-7,1049.3622 Z"
       id="rect846" />
    <path
       inkscape:connector-curvature="0"
       style="fill:#ffffff;fill-opacity:0.5372549;stroke:none"
       d="m 2.5312499,1005.0185 c -0.917088,0 -1.67114701,0.6395 -1.84375001,1.5 0.33561201,-0.2799 0.77451201,-0.4375 1.25000001,-0.4375 l 44.1250001,0 c 0.475488,0 0.914388,0.1576 1.25,0.4375 -0.172603,-0.8605 -0.926662,-1.5 -1.84375,-1.5 L 2.5312499,1005.0185 Z"
       id="path7515" />
    <path
       inkscape:connector-curvature="0"
       style="fill:#000000;fill-opacity:0.39215686;stroke:none"
       d="m 1.9374999,1004.3622 c -1.07727701,0 -1.93750000992432,0.8602 -1.93750000992432,1.9375 l 0,43.0625 c 0,0.7934 0.48002399992432,1.449 1.15625000992432,1.75 -0.30934201,-0.3333 -0.50000001,-0.7824 -0.50000001,-1.2812 l 0,-42.9375 c 0,-1.0482 0.82689901,-1.875 1.87500001,-1.875 l 42.9375001,0 c 1.048101,0 1.875,0.8268 1.875,1.875 l 0,42.9375 c 0,0.4988 -0.190658,0.9479 -0.5,1.2812 0.676226,-0.301 1.15625,-0.9566 1.15625,-1.75 l 0,-43.0625 c 0,-1.0773 -0.860223,-1.9375 -1.9375,-1.9375 L 1.9374999,1004.3622 Z"
       id="rect4280" />
    <path
       inkscape:connector-curvature="0"
       id="path855"
       d="m 10.83975,1012.9622 c -0.9591368,0 -1.7528458,0.766 -1.7528458,1.725 l 0,21.5068 c 0,0.9591 0.793709,1.753 1.7528458,1.753 l 9.793677,0 3.366573,5.8152 3.366581,-5.8152 9.79367,0 c 0.959136,0 1.752845,-0.7939 1.752845,-1.753 l 0,-21.5068 c 0,-0.959 -0.793708,-1.725 -1.752845,-1.725 l -26.320501,0 z"
       style="fill:#ffffff;fill-opacity:1;stroke:none" />
    <path
       style="fill:url(#linearGradient843);fill-opacity:1;stroke:none"
       d="m 11.238544,1013.4289 c -0.930072,0 -1.6997289,0.7426 -1.6997289,1.6727 l 0,20.6256 c 0,0.9301 0.7696809,1.7063 1.6997289,1.6996 l 9.694837,0 3.066619,5.4407 3.066621,-5.4407 9.694835,0 c 0.930071,0 1.69973,-0.7695 1.69973,-1.6996 l 0,-20.6256 c 0,-0.9301 -0.769658,-1.6727 -1.69973,-1.6727 z"
       id="rect832"
       inkscape:connector-curvature="0"
       sodipodi:nodetypes="sssscccsssss" />
    <path
       inkscape:connector-curvature="0"
       style="fill:#000000;fill-opacity:0.05882353"
       d="m 24,1019.3482 c -4.418,0 -8,3.582 -8,8 0,4.418 3.582,8 8,8 4.418,0 8,-3.582 8,-8 0,-4.418 -3.582,-8 -8,-8 z m -3,12 0,-8 8.004,4 -8.004,4 z"
       id="path4109" />
    <path
       id="path4107"
       d="m 24,1018.9482 c -4.418,0 -8,3.582 -8,8 0,4.418 3.582,8 8,8 4.418,0 8,-3.582 8,-8 0,-4.418 -3.582,-8 -8,-8 z m -3,12 0,-8 8.004,4 -8.004,4 z"
       style="fill:#000000;fill-opacity:0.11764706"
       inkscape:connector-curvature="0" />
    <path
       inkscape:connector-curvature="0"
       style="fill:#000000;fill-opacity:0.23529412"
       d="m 24,1018.5482 c -4.418,0 -8,3.582 -8,8 0,4.418 3.582,8 8,8 4.418,0 8,-3.582 8,-8 0,-4.418 -3.582,-8 -8,-8 z m -3,12 0,-8 8.004,4 -8.004,4 z"
       id="path4103" />
    <path
       id="path4062"
       d="m 24,1018.1482 c -4.418,0 -8,3.582 -8,8 0,4.418 3.582,8 8,8 4.418,0 8,-3.582 8,-8 0,-4.418 -3.582,-8 -8,-8 z m -3,12 0,-8 8.004,4 -8.004,4 z"
       style="fill:url(#linearGradient4085);fill-opacity:1"
       inkscape:connector-curvature="0" />
    <path
       style="fill:#029ec4;fill-opacity:0.3137255"
       d="M 21 16.986328 L 21 17.785156 L 28.205078 21.386719 L 29.003906 20.986328 L 21 16.986328 z M 16.019531 21.386719 C 16.012945 21.519837 16 21.650405 16 21.785156 C 16 26.203156 19.582 29.785156 24 29.785156 C 28.418 29.785156 32 26.203156 32 21.785156 C 32 21.650405 31.987055 21.519837 31.980469 21.386719 C 31.770604 25.617581 28.282912 28.986328 24 28.986328 C 19.717088 28.986328 16.229396 25.617581 16.019531 21.386719 z "
       transform="translate(0,1004.3622)"
       id="path4093" />
    <path
       style="fill:#ffffff;fill-opacity:0.23529412"
       d="M 24 13.785156 C 19.582 13.785156 16 17.367156 16 21.785156 C 16 21.852372 16.008117 21.917556 16.009766 21.984375 C 16.117495 17.660178 19.649873 14.185547 24 14.185547 C 28.350127 14.185547 31.882505 17.660178 31.990234 21.984375 C 31.991883 21.917556 32 21.852372 32 21.785156 C 32 17.367156 28.418 13.785156 24 13.785156 z M 28.603516 21.984375 L 21 25.785156 L 21 26.185547 L 29.003906 22.185547 L 28.603516 21.984375 z "
       transform="translate(0,1004.3622)"
       id="path4098" />
  </g>
</svg>
