<?xml version="1.0" encoding="UTF-8" standalone="no"?>
<!-- Created with Inkscape (http://www.inkscape.org/) -->

<svg
   xmlns:dc="http://purl.org/dc/elements/1.1/"
   xmlns:cc="http://creativecommons.org/ns#"
   xmlns:rdf="http://www.w3.org/1999/02/22-rdf-syntax-ns#"
   xmlns:svg="http://www.w3.org/2000/svg"
   xmlns="http://www.w3.org/2000/svg"
   xmlns:xlink="http://www.w3.org/1999/xlink"
   xmlns:sodipodi="http://sodipodi.sourceforge.net/DTD/sodipodi-0.dtd"
   xmlns:inkscape="http://www.inkscape.org/namespaces/inkscape"
   width="48"
   height="48"
   id="svg2"
   version="1.1"
   inkscape:version="0.48+devel r12923"
   sodipodi:docname="mendeleydesktop.svg">
  <defs
     id="defs4">
    <linearGradient
       id="linearGradient4085">
      <stop
         id="stop4087"
         offset="0"
         style="stop-color:#f1c7c7;stop-opacity:1" />
      <stop
         id="stop4089"
         offset="1"
         style="stop-color:#fef6f6;stop-opacity:1" />
    </linearGradient>
    <linearGradient
       id="linearGradient3795">
      <stop
         style="stop-color:#ce3c3c;stop-opacity:1"
         offset="0"
         id="stop3797" />
      <stop
         style="stop-color:#ea5252;stop-opacity:1"
         offset="1"
         id="stop3799" />
    </linearGradient>
    <linearGradient
       inkscape:collect="always"
       xlink:href="#linearGradient3795"
       id="linearGradient848"
       x1="24.04163"
       y1="-1053.0693"
       x2="24.04163"
       y2="-1004.6325"
       gradientUnits="userSpaceOnUse" />
    <linearGradient
       inkscape:collect="always"
       xlink:href="#linearGradient4085"
       id="linearGradient4194"
       x1="92.536186"
       y1="1033.5442"
       x2="92.536186"
       y2="1016.6253"
       gradientUnits="userSpaceOnUse"
       gradientTransform="translate(-59.032813,3.5348575)" />
  </defs>
  <sodipodi:namedview
     id="base"
     pagecolor="#ffffff"
     bordercolor="#666666"
     borderopacity="1.0"
     inkscape:pageopacity="0.0"
     inkscape:pageshadow="2"
     inkscape:zoom="4.0957947"
     inkscape:cx="-6.9040345"
     inkscape:cy="34.83409"
     inkscape:document-units="px"
     inkscape:current-layer="layer1"
     showgrid="false"
     inkscape:window-width="1366"
     inkscape:window-height="669"
     inkscape:window-x="0"
     inkscape:window-y="26"
     inkscape:window-maximized="1" />
  <metadata
     id="metadata7">
    <rdf:RDF>
      <cc:Work
         rdf:about="">
        <dc:format>image/svg+xml</dc:format>
        <dc:type
           rdf:resource="http://purl.org/dc/dcmitype/StillImage" />
        <dc:title></dc:title>
      </cc:Work>
    </rdf:RDF>
  </metadata>
  <g
     inkscape:label="Capa 1"
     inkscape:groupmode="layer"
     id="layer1"
     transform="translate(0,-1004.3622)">
    <rect
       style="fill:url(#linearGradient848);fill-opacity:1.0;stroke:none"
       id="rect2991-1"
       width="48"
       height="48"
       x="-1.604248e-06"
       y="-1052.3622"
       ry="1.9445436"
       transform="scale(1,-1)" />
    <path
       style="fill:#000000;fill-opacity:0.05882353"
       d="m 11.585505,1038.0058 c 1.276455,-0.2313 2.244804,-1.1894 2.46994,-2.4439 0.09952,-0.5547 6.85e-4,-1.1508 -0.312523,-1.8844 -0.186882,-0.4379 -0.226629,-0.6218 -0.230152,-1.0654 -0.0035,-0.455 0.0251,-0.5932 0.190244,-0.9141 0.478126,-0.9295 1.715211,-1.5301 3.376305,-1.6397 1.452259,-0.096 2.986689,0.3428 3.649181,1.043 0.667538,0.7053 0.735242,1.4642 0.226562,2.5398 -0.137397,0.2904 -0.276308,0.713 -0.308702,0.9392 -0.26493,1.849 1.270024,3.4266 3.334164,3.4266 1.630109,0 2.880525,-0.8247 3.322848,-2.1917 0.249339,-0.7706 0.169325,-1.4174 -0.28848,-2.3318 -0.20896,-0.4174 -0.234964,-0.5319 -0.235795,-1.0387 -9.77e-4,-0.6563 0.128181,-0.9616 0.596008,-1.4082 0.99386,-0.9488 3.366288,-1.2736 5.126721,-0.7021 1.314208,0.4266 1.954695,1.0997 2.01861,2.1208 0.02947,0.4712 0.0078,0.5806 -0.265044,1.3349 -0.283996,0.7855 -0.295942,0.8503 -0.269719,1.4638 0.02341,0.5471 0.05999,0.7083 0.247404,1.0898 0.274059,0.5576 0.69291,0.9975 1.243407,1.3055 1.094712,0.6124 2.403088,0.4948 3.463577,-0.3111 0.648837,-0.4933 0.989787,-1.2 1.051261,-2.1793 0.05971,-0.9513 -0.187542,-1.6861 -0.77075,-2.29 -0.56425,-0.5844 -1.155647,-0.8125 -2.218991,-0.8566 -1.143408,-0.047 -1.638917,-0.2677 -1.98815,-0.8832 -0.21368,-0.3765 -0.337759,-0.9418 -0.337759,-1.5387 0,-0.6237 0.205242,-2.0134 0.36513,-2.4719 0.204743,-0.5873 0.253064,-1.9305 0.09398,-2.6131 -0.364609,-1.5644 -1.56214,-2.7597 -3.26737,-3.2609 -0.737443,-0.2171 -1.788054,-0.2174 -2.527421,-9e-4 -1.039789,0.3045 -1.781057,0.8172 -2.524285,1.746 -0.223687,0.2795 -0.661312,0.7575 -0.972498,1.0622 -0.714821,0.6998 -1.096795,0.8854 -1.824135,0.8865 -0.570901,5e-4 -0.88423,-0.1144 -1.400847,-0.5142 -0.303166,-0.2349 -1.168983,-1.143 -1.65589,-1.7375 -0.844051,-1.0299 -2.453433,-1.7184 -3.773227,-1.614 -1.348798,0.1072 -2.541575,0.6857 -3.376591,1.6395 -0.329469,0.3764 -0.778424,1.2423 -0.911143,1.7576 -0.135148,0.5246 -0.113644,1.9407 0.03663,2.4125 0.268645,0.8435 0.349658,1.4328 0.354771,2.5804 0.0047,1.0532 -0.007,1.1643 -0.156652,1.4743 -0.382258,0.7919 -0.995942,1.0794 -2.340526,1.0962 -0.750591,0.013 -1.4090428,0.3142 -2.1099238,0.9771 -0.731042,0.6913 -0.896118,2.0264 -0.405356,3.2784 0.311464,0.7944 1.34249,1.5557 2.3146168,1.709 0.53746,0.084 0.566126,0.084 0.990552,0.013 z m 11.568804,-6.1943 c -0.834778,-0.2199 -1.592493,-0.8476 -1.986001,-1.6456 -0.200319,-0.406 -0.214958,-0.4878 -0.216398,-1.2063 -0.0015,-0.7296 0.01056,-0.7947 0.223216,-1.2236 0.312183,-0.629 0.832317,-1.1337 1.486406,-1.4425 0.521167,-0.2458 0.539331,-0.2491 1.374262,-0.2491 0.815133,0 0.863509,0.013 1.321052,0.2218 1.580235,0.7376 2.227673,2.5136 1.45939,4.0034 -0.231826,0.4496 -0.789609,1.0262 -1.231795,1.2736 -0.606692,0.3393 -1.701137,0.46 -2.430132,0.2683 z"
       id="path4204"
       inkscape:connector-curvature="0"
       sodipodi:nodetypes="cssssssssssssssssssssssssssssssssssssssssssssccssssssssss" />
    <path
       sodipodi:nodetypes="cssssssssssssssssssssssssssssssssssssssssssssccssssssssss"
       inkscape:connector-curvature="0"
       id="path4202"
       d="m 11.585505,1037.6058 c 1.276455,-0.2313 2.244804,-1.1894 2.46994,-2.4439 0.09952,-0.5547 6.85e-4,-1.1508 -0.312523,-1.8844 -0.186882,-0.4379 -0.226629,-0.6218 -0.230152,-1.0654 -0.0035,-0.455 0.0251,-0.5932 0.190244,-0.9141 0.478126,-0.9295 1.715211,-1.5301 3.376305,-1.6397 1.452259,-0.096 2.986689,0.3428 3.649181,1.043 0.667538,0.7053 0.735242,1.4642 0.226562,2.5398 -0.137397,0.2904 -0.276308,0.713 -0.308702,0.9392 -0.26493,1.849 1.270024,3.4266 3.334164,3.4266 1.630109,0 2.880525,-0.8247 3.322848,-2.1917 0.249339,-0.7706 0.169325,-1.4174 -0.28848,-2.3318 -0.20896,-0.4174 -0.234964,-0.5319 -0.235795,-1.0387 -9.77e-4,-0.6563 0.128181,-0.9616 0.596008,-1.4082 0.99386,-0.9488 3.366288,-1.2736 5.126721,-0.7021 1.314208,0.4266 1.954695,1.0997 2.01861,2.1208 0.02947,0.4712 0.0078,0.5806 -0.265044,1.3349 -0.283996,0.7855 -0.295942,0.8503 -0.269719,1.4638 0.02341,0.5471 0.05999,0.7083 0.247404,1.0898 0.274059,0.5576 0.69291,0.9975 1.243407,1.3055 1.094712,0.6124 2.403088,0.4948 3.463577,-0.3111 0.648837,-0.4933 0.989787,-1.2 1.051261,-2.1793 0.05971,-0.9513 -0.187542,-1.6861 -0.77075,-2.29 -0.56425,-0.5844 -1.155647,-0.8125 -2.218991,-0.8566 -1.143408,-0.047 -1.638917,-0.2677 -1.98815,-0.8832 -0.21368,-0.3765 -0.337759,-0.9418 -0.337759,-1.5387 0,-0.6237 0.205242,-2.0134 0.36513,-2.4719 0.204743,-0.5873 0.253064,-1.9305 0.09398,-2.6131 -0.364609,-1.5644 -1.56214,-2.7597 -3.26737,-3.2609 -0.737443,-0.2171 -1.788054,-0.2174 -2.527421,-9e-4 -1.039789,0.3045 -1.781057,0.8172 -2.524285,1.746 -0.223687,0.2795 -0.661312,0.7575 -0.972498,1.0622 -0.714821,0.6998 -1.096795,0.8854 -1.824135,0.8865 -0.570901,5e-4 -0.88423,-0.1144 -1.400847,-0.5142 -0.303166,-0.2349 -1.168983,-1.143 -1.65589,-1.7375 -0.844051,-1.0299 -2.453433,-1.7184 -3.773227,-1.614 -1.348798,0.1072 -2.541575,0.6857 -3.376591,1.6395 -0.329469,0.3764 -0.778424,1.2423 -0.911143,1.7576 -0.135148,0.5246 -0.113644,1.9407 0.03663,2.4125 0.268645,0.8435 0.349658,1.4328 0.354771,2.5804 0.0047,1.0532 -0.007,1.1643 -0.156652,1.4743 -0.382258,0.7919 -0.995942,1.0794 -2.340526,1.0962 -0.750591,0.013 -1.4090428,0.3142 -2.1099238,0.9771 -0.731042,0.6913 -0.896118,2.0264 -0.405356,3.2784 0.311464,0.7944 1.34249,1.5557 2.3146168,1.709 0.53746,0.084 0.566126,0.084 0.990552,0.013 z m 11.568804,-6.1943 c -0.834778,-0.2199 -1.592493,-0.8476 -1.986001,-1.6456 -0.200319,-0.406 -0.214958,-0.4878 -0.216398,-1.2063 -0.0015,-0.7296 0.01056,-0.7947 0.223216,-1.2236 0.312183,-0.629 0.832317,-1.1337 1.486406,-1.4425 0.521167,-0.2458 0.539331,-0.2491 1.374262,-0.2491 0.815133,0 0.863509,0.013 1.321052,0.2218 1.580235,0.7376 2.227673,2.5136 1.45939,4.0034 -0.231826,0.4496 -0.789609,1.0262 -1.231795,1.2736 -0.606692,0.3393 -1.701137,0.46 -2.430132,0.2683 z"
       style="fill:#000000;fill-opacity:0.11764706" />
    <path
       style="fill:#000000;fill-opacity:0.23529412"
       d="m 11.585505,1037.2058 c 1.276455,-0.2313 2.244804,-1.1894 2.46994,-2.4439 0.09952,-0.5547 6.85e-4,-1.1508 -0.312523,-1.8844 -0.186882,-0.4379 -0.226629,-0.6218 -0.230152,-1.0654 -0.0035,-0.455 0.0251,-0.5932 0.190244,-0.9141 0.478126,-0.9295 1.715211,-1.5301 3.376305,-1.6397 1.452259,-0.096 2.986689,0.3428 3.649181,1.043 0.667538,0.7053 0.735242,1.4642 0.226562,2.5398 -0.137397,0.2904 -0.276308,0.713 -0.308702,0.9392 -0.26493,1.849 1.270024,3.4266 3.334164,3.4266 1.630109,0 2.880525,-0.8247 3.322848,-2.1917 0.249339,-0.7706 0.169325,-1.4174 -0.28848,-2.3318 -0.20896,-0.4174 -0.234964,-0.5319 -0.235795,-1.0387 -9.77e-4,-0.6563 0.128181,-0.9616 0.596008,-1.4082 0.99386,-0.9488 3.366288,-1.2736 5.126721,-0.7021 1.314208,0.4266 1.954695,1.0997 2.01861,2.1208 0.02947,0.4712 0.0078,0.5806 -0.265044,1.3349 -0.283996,0.7855 -0.295942,0.8503 -0.269719,1.4638 0.02341,0.5471 0.05999,0.7083 0.247404,1.0898 0.274059,0.5576 0.69291,0.9975 1.243407,1.3055 1.094712,0.6124 2.403088,0.4948 3.463577,-0.3111 0.648837,-0.4933 0.989787,-1.2 1.051261,-2.1793 0.05971,-0.9513 -0.187542,-1.6861 -0.77075,-2.29 -0.56425,-0.5844 -1.155647,-0.8125 -2.218991,-0.8566 -1.143408,-0.047 -1.638917,-0.2677 -1.98815,-0.8832 -0.21368,-0.3765 -0.337759,-0.9418 -0.337759,-1.5387 0,-0.6237 0.205242,-2.0134 0.36513,-2.4719 0.204743,-0.5873 0.253064,-1.9305 0.09398,-2.6131 -0.364609,-1.5644 -1.56214,-2.7597 -3.26737,-3.2609 -0.737443,-0.2171 -1.788054,-0.2174 -2.527421,-9e-4 -1.039789,0.3045 -1.781057,0.8172 -2.524285,1.746 -0.223687,0.2795 -0.661312,0.7575 -0.972498,1.0622 -0.714821,0.6998 -1.096795,0.8854 -1.824135,0.8865 -0.570901,5e-4 -0.88423,-0.1144 -1.400847,-0.5142 -0.303166,-0.2349 -1.168983,-1.143 -1.65589,-1.7375 -0.844051,-1.0299 -2.453433,-1.7184 -3.773227,-1.614 -1.348798,0.1072 -2.541575,0.6857 -3.376591,1.6395 -0.329469,0.3764 -0.778424,1.2423 -0.911143,1.7576 -0.135148,0.5246 -0.113644,1.9407 0.03663,2.4125 0.268645,0.8435 0.349658,1.4328 0.354771,2.5804 0.0047,1.0532 -0.007,1.1643 -0.156652,1.4743 -0.382258,0.7919 -0.995942,1.0794 -2.340526,1.0962 -0.750591,0.013 -1.4090428,0.3142 -2.1099238,0.9771 -0.731042,0.6913 -0.896118,2.0264 -0.405356,3.2784 0.311464,0.7944 1.34249,1.5557 2.3146168,1.709 0.53746,0.084 0.566126,0.084 0.990552,0.013 z m 11.568804,-6.1943 c -0.834778,-0.2199 -1.592493,-0.8476 -1.986001,-1.6456 -0.200319,-0.406 -0.214958,-0.4878 -0.216398,-1.2063 -0.0015,-0.7296 0.01056,-0.7947 0.223216,-1.2236 0.312183,-0.629 0.832317,-1.1337 1.486406,-1.4425 0.521167,-0.2458 0.539331,-0.2491 1.374262,-0.2491 0.815133,0 0.863509,0.013 1.321052,0.2218 1.580235,0.7376 2.227673,2.5136 1.45939,4.0034 -0.231826,0.4496 -0.789609,1.0262 -1.231795,1.2736 -0.606692,0.3393 -1.701137,0.46 -2.430132,0.2683 z"
       id="path4196"
       inkscape:connector-curvature="0"
       sodipodi:nodetypes="cssssssssssssssssssssssssssssssssssssssssssssccssssssssss" />
    <path
       inkscape:connector-curvature="0"
       style="fill:#000000;fill-opacity:1;stroke:none"
       d="m 1.604248e-6,1049.3622 0,1.0625 c 0,1.0773 0.860199995752,1.9375 1.937499995752,1.9375 l 44.1250004,0 c 1.0773,0 1.9375,-0.8602 1.9375,-1.9375 l 0,-1.0625 c 0,1.0773 -0.8602,1.9375 -1.9375,1.9375 l -44.1250004,0 C 0.8602016,1051.2997 1.604248e-6,1050.4395 1.604248e-6,1049.3622 Z"
       id="rect846" />
    <path
       inkscape:connector-curvature="0"
       style="fill:#ffffff;fill-opacity:0.5372549;stroke:none"
       d="m 2.5312016,1005.0185 c -0.917,0 -1.6711,0.6395 -1.8437,1.5 0.3356,-0.2799 0.7745,-0.4375 1.25,-0.4375 l 44.1250004,0 c 0.4755,0 0.9144,0.1576 1.25,0.4375 -0.1726,-0.8605 -0.9267,-1.5 -1.8437,-1.5 L 2.5312016,1005.0185 Z"
       id="path7515" />
    <path
       inkscape:connector-curvature="0"
       style="fill:#000000;fill-opacity:0.39215686;stroke:none"
       d="m 1.9375016,1004.3622 c -1.0773,0 -1.937499995752,0.8602 -1.937499995752,1.9375 l 0,43.0625 c 0,0.7934 0.479999995752,1.449 1.156199995752,1.75 -0.3093,-0.3333 -0.5,-0.7824 -0.5,-1.2812 l 0,-42.9375 c 0,-1.0482 0.8269,-1.875 1.875,-1.875 l 42.9376004,0 c 1.0481,0 1.875,0.8268 1.875,1.875 l 0,42.9375 c 0,0.4988 -0.1907,0.9479 -0.5,1.2812 0.6762,-0.301 1.1562,-0.9566 1.1562,-1.75 l 0,-43.0625 c 0,-1.0773 -0.8602,-1.9375 -1.9375,-1.9375 L 1.9375016,1004.3622 Z"
       id="rect4280-7" />
    <rect
       style="fill:none;stroke:none"
       id="rect1526"
       width="48"
       height="48"
       x="-1.604248e-06"
       y="1004.3622"
       ry="0" />
    <path
       sodipodi:nodetypes="cssssssssssssssssssssssssssssssssssssssssssssccssssssssss"
       inkscape:connector-curvature="0"
       id="path4025"
       d="m 11.585505,1036.8059 c 1.276455,-0.2313 2.244804,-1.1894 2.46994,-2.4439 0.09952,-0.5547 6.85e-4,-1.1508 -0.312523,-1.8844 -0.186882,-0.4379 -0.226629,-0.6218 -0.230152,-1.0654 -0.0035,-0.455 0.0251,-0.5932 0.190244,-0.9141 0.478126,-0.9295 1.715211,-1.5301 3.376305,-1.6397 1.452259,-0.096 2.986689,0.3428 3.649181,1.043 0.667538,0.7053 0.735242,1.4642 0.226562,2.5398 -0.137397,0.2904 -0.276308,0.713 -0.308702,0.9392 -0.26493,1.849 1.270024,3.4266 3.334164,3.4266 1.630109,0 2.880525,-0.8247 3.322848,-2.1917 0.249339,-0.7706 0.169325,-1.4174 -0.28848,-2.3318 -0.20896,-0.4174 -0.234964,-0.5319 -0.235795,-1.0387 -9.77e-4,-0.6563 0.128181,-0.9616 0.596008,-1.4082 0.99386,-0.9488 3.366288,-1.2736 5.126721,-0.7021 1.314208,0.4266 1.954695,1.0997 2.01861,2.1208 0.02947,0.4712 0.0078,0.5806 -0.265044,1.3349 -0.283996,0.7855 -0.295942,0.8503 -0.269719,1.4638 0.02341,0.5471 0.05999,0.7083 0.247404,1.0898 0.274059,0.5576 0.69291,0.9975 1.243407,1.3055 1.094712,0.6124 2.403088,0.4948 3.463577,-0.3111 0.648837,-0.4933 0.989787,-1.2 1.051261,-2.1793 0.05971,-0.9513 -0.187542,-1.6861 -0.77075,-2.29 -0.56425,-0.5844 -1.155647,-0.8125 -2.218991,-0.8566 -1.143408,-0.047 -1.638917,-0.2677 -1.98815,-0.8832 -0.21368,-0.3765 -0.337759,-0.9418 -0.337759,-1.5387 0,-0.6237 0.205242,-2.0134 0.36513,-2.4719 0.204743,-0.5873 0.253064,-1.9305 0.09398,-2.6131 -0.364609,-1.5644 -1.56214,-2.7597 -3.26737,-3.2609 -0.737443,-0.2171 -1.788054,-0.2174 -2.527421,-9e-4 -1.039789,0.3045 -1.781057,0.8172 -2.524285,1.746 -0.223687,0.2795 -0.661312,0.7575 -0.972498,1.0622 -0.714821,0.6998 -1.096795,0.8854 -1.824135,0.8865 -0.570901,5e-4 -0.88423,-0.1144 -1.400847,-0.5142 -0.303166,-0.2349 -1.168983,-1.143 -1.65589,-1.7375 -0.844051,-1.0299 -2.453433,-1.7184 -3.773227,-1.614 -1.348798,0.1072 -2.541575,0.6857 -3.376591,1.6395 -0.329469,0.3764 -0.778424,1.2423 -0.911143,1.7576 -0.135148,0.5246 -0.113644,1.9407 0.03663,2.4125 0.268645,0.8435 0.349658,1.4328 0.354771,2.5804 0.0047,1.0532 -0.007,1.1643 -0.156652,1.4743 -0.382258,0.7919 -0.995942,1.0794 -2.340526,1.0962 -0.750591,0.013 -1.4090428,0.3142 -2.1099238,0.9771 -0.731042,0.6913 -0.896118,2.0264 -0.405356,3.2784 0.311464,0.7944 1.34249,1.5557 2.3146168,1.709 0.53746,0.084 0.566126,0.084 0.990552,0.013 z m 11.568804,-6.1943 c -0.834778,-0.2199 -1.592493,-0.8476 -1.986001,-1.6456 -0.200319,-0.406 -0.214958,-0.4878 -0.216398,-1.2063 -0.0015,-0.7296 0.01056,-0.7947 0.223216,-1.2236 0.312183,-0.629 0.832317,-1.1337 1.486406,-1.4425 0.521167,-0.2458 0.539331,-0.2491 1.374262,-0.2491 0.815133,0 0.863509,0.013 1.321052,0.2218 1.580235,0.7376 2.227673,2.5136 1.45939,4.0034 -0.231826,0.4496 -0.789609,1.0262 -1.231795,1.2736 -0.606692,0.3393 -1.701137,0.46 -2.430132,0.2683 z"
       style="fill:url(#linearGradient4194);fill-opacity:1" />
    <path
       style="fill:#d54141;fill-opacity:0.3137255"
       d="M 12.826172 19.568359 C 12.794715 20.195802 12.831778 20.988388 12.9375 21.320312 C 13.185037 22.097538 13.264913 22.698472 13.28125 23.679688 C 13.285413 23.50601 13.294311 23.400373 13.292969 23.099609 C 13.287856 21.952009 13.206145 21.363031 12.9375 20.519531 C 12.875246 20.32408 12.842245 19.95741 12.826172 19.568359 z M 35.216797 19.576172 C 35.194762 20.037291 35.1369 20.480818 35.041016 20.755859 C 34.881128 21.214359 34.675781 22.604816 34.675781 23.228516 C 34.675781 23.362665 34.702701 23.482155 34.714844 23.611328 C 34.764706 22.918014 34.90677 21.941608 35.041016 21.556641 C 35.193201 21.120101 35.258393 20.26626 35.216797 19.576172 z M 24.035156 19.681641 C 23.200225 19.681641 23.183276 19.685841 22.662109 19.931641 C 22.00802 20.240441 21.487964 20.744047 21.175781 21.373047 C 20.963125 21.801947 20.949672 21.868056 20.951172 22.597656 C 20.951546 22.784566 20.963553 22.855005 20.96875 22.972656 C 20.984717 22.670451 21.025599 22.476727 21.175781 22.173828 C 21.487964 21.544828 22.00802 21.039269 22.662109 20.730469 C 23.183276 20.484669 23.200225 20.482422 24.035156 20.482422 C 24.850289 20.482422 24.899879 20.494325 25.357422 20.703125 C 26.335297 21.159564 26.952522 22.015295 27.101562 22.953125 C 27.260427 21.72411 26.60916 20.488566 25.357422 19.904297 C 24.899879 19.695497 24.850289 19.681641 24.035156 19.681641 z M 30.367188 23.693359 C 29.154996 23.73238 27.996163 24.080828 27.375 24.673828 C 26.907173 25.120428 26.77832 25.425731 26.779297 26.082031 C 26.77958 26.254867 26.794244 26.349826 26.806641 26.458984 C 26.863376 26.070495 27.021506 25.812064 27.375 25.474609 C 28.36886 24.525809 30.74152 24.199984 32.501953 24.771484 C 33.724473 25.168322 34.357453 25.782349 34.492188 26.6875 C 34.532961 26.495882 34.534894 26.339394 34.519531 26.09375 C 34.455616 25.07265 33.816161 24.399256 32.501953 23.972656 C 31.841791 23.758344 31.094502 23.669947 30.367188 23.693359 z M 17.080078 23.695312 C 15.418984 23.804913 14.181251 24.406438 13.703125 25.335938 C 13.537981 25.656837 13.510172 25.795 13.513672 26.25 C 13.514784 26.390074 13.531141 26.483432 13.542969 26.587891 C 13.568798 26.440975 13.613257 26.311347 13.703125 26.136719 C 14.181251 25.207219 15.418984 24.605694 17.080078 24.496094 C 18.532337 24.400094 20.066024 24.838863 20.728516 25.539062 C 20.999441 25.825314 21.167304 26.121861 21.242188 26.443359 C 21.373617 25.783131 21.208426 25.24534 20.728516 24.738281 C 20.066024 24.038081 18.532337 23.599312 17.080078 23.695312 z M 8.0253906 28.876953 C 7.9540866 29.453641 8.035869 30.100563 8.28125 30.726562 C 8.592714 31.520962 9.6235763 32.282247 10.595703 32.435547 C 11.133163 32.519547 11.161512 32.520219 11.585938 32.449219 L 11.585938 32.443359 C 12.862393 32.212059 13.829552 31.2545 14.054688 30 C 14.102281 29.734726 14.103481 29.458784 14.058594 29.164062 C 14.056705 29.175573 14.056746 29.187745 14.054688 29.199219 C 13.829552 30.453719 12.862393 31.413231 11.585938 31.644531 L 11.585938 31.648438 C 11.161512 31.719438 11.133163 31.718766 10.595703 31.634766 C 9.6235763 31.481466 8.592714 30.720181 8.28125 29.925781 C 8.1445208 29.576967 8.0622494 29.222949 8.0253906 28.876953 z M 39.976562 28.910156 C 39.895412 29.827399 39.56144 30.503677 38.939453 30.976562 C 37.878964 31.782462 36.571275 31.899509 35.476562 31.287109 C 34.926065 30.979109 34.506481 30.540022 34.232422 29.982422 C 34.070111 29.652021 34.029375 29.448396 34.003906 29.054688 C 33.97374 29.235244 33.97383 29.398997 33.986328 29.691406 C 34.009738 30.238506 34.045008 30.39975 34.232422 30.78125 C 34.506481 31.33885 34.926065 31.779891 35.476562 32.087891 C 36.571275 32.700291 37.878964 32.581291 38.939453 31.775391 C 39.58829 31.282091 39.930714 30.576956 39.992188 29.597656 C 40.007404 29.355233 40.001695 29.125877 39.976562 28.910156 z M 20.650391 29 C 20.649676 29.004573 20.647118 29.013153 20.646484 29.017578 C 20.381554 30.866578 21.916329 32.445312 23.980469 32.445312 C 25.610578 32.445312 26.860411 31.620906 27.302734 30.253906 C 27.439594 29.830932 27.468043 29.440447 27.398438 29.027344 C 27.375174 29.16748 27.350101 29.306736 27.302734 29.453125 C 26.860411 30.820125 25.610578 31.644531 23.980469 31.644531 C 22.216232 31.644531 20.848054 30.489381 20.650391 29 z "
       transform="translate(0,1004.3622)"
       id="path4206" />
    <path
       style="fill:#ffffff;fill-opacity:0.23529412"
       d="M 17.695312 15.507812 C 17.523349 15.496966 17.354427 15.496716 17.189453 15.509766 C 15.840655 15.616966 14.647516 16.196591 13.8125 17.150391 C 13.483031 17.526791 13.035063 18.392903 12.902344 18.908203 C 12.828995 19.192917 12.803881 19.733573 12.818359 20.25 C 12.824288 19.874629 12.84857 19.515375 12.902344 19.306641 C 13.035063 18.791341 13.483031 17.925228 13.8125 17.548828 C 14.647516 16.595028 15.840655 16.017356 17.189453 15.910156 C 18.509247 15.805756 20.11884 16.493538 20.962891 17.523438 C 21.449798 18.117937 22.315975 19.026819 22.619141 19.261719 C 23.135758 19.661519 23.44863 19.775891 24.019531 19.775391 C 24.746871 19.774291 25.128929 19.588472 25.84375 18.888672 C 26.154936 18.583972 26.592719 18.107625 26.816406 17.828125 C 27.559634 16.899325 28.300055 16.386531 29.339844 16.082031 C 30.079211 15.865531 31.129745 15.864931 31.867188 16.082031 C 33.572418 16.583231 34.770157 17.77935 35.134766 19.34375 C 35.194902 19.601784 35.217088 19.959765 35.220703 20.330078 C 35.242011 19.820873 35.216821 19.295444 35.134766 18.943359 C 34.770157 17.378959 33.572418 16.182841 31.867188 15.681641 C 31.129745 15.464541 30.079211 15.465141 29.339844 15.681641 C 28.300055 15.986141 27.559634 16.498934 26.816406 17.427734 C 26.592719 17.707234 26.154936 18.185534 25.84375 18.490234 C 25.128929 19.190034 24.746871 19.375853 24.019531 19.376953 C 23.44863 19.377453 23.135758 19.261128 22.619141 18.861328 C 22.315975 18.626428 21.449798 17.7195 20.962891 17.125 C 20.224346 16.223838 18.899057 15.583737 17.695312 15.507812 z M 20.960938 23.585938 C 20.960004 23.667156 20.950954 23.690665 20.951172 23.796875 C 20.952612 24.515375 20.96765 24.597906 21.167969 25.003906 C 21.561477 25.801906 22.319519 26.428537 23.154297 26.648438 C 23.883292 26.840138 24.977292 26.720159 25.583984 26.380859 C 26.02617 26.133459 26.58458 25.557022 26.816406 25.107422 C 27.061213 24.63271 27.148146 24.1306 27.121094 23.640625 C 27.089206 24.000477 26.994623 24.361446 26.816406 24.707031 C 26.58458 25.156631 26.02617 25.733069 25.583984 25.980469 C 24.977292 26.319769 23.883292 26.4417 23.154297 26.25 C 22.319519 26.0301 21.561477 25.401516 21.167969 24.603516 C 20.993782 24.25048 20.967737 24.080475 20.960938 23.585938 z M 13.287109 24.191406 C 13.284973 24.882514 13.264931 25.109413 13.136719 25.375 C 12.754461 26.1669 12.139506 26.453903 10.794922 26.470703 C 10.044331 26.483703 9.3864279 26.784366 8.6855469 27.447266 C 8.1935457 27.91252 7.965571 28.671166 8.0136719 29.498047 C 8.0509194 28.831579 8.2745479 28.236312 8.6855469 27.847656 C 9.3864279 27.184756 10.044331 26.884094 10.794922 26.871094 C 12.139506 26.854294 12.754461 26.567291 13.136719 25.775391 C 13.286371 25.465391 13.297669 25.353981 13.292969 24.300781 C 13.29277 24.256095 13.287545 24.234447 13.287109 24.191406 z M 34.695312 24.21875 C 34.692779 24.278052 34.675781 24.377488 34.675781 24.427734 C 34.675781 25.024634 34.799992 25.590297 35.013672 25.966797 C 35.362905 26.582297 35.858545 26.802609 37.001953 26.849609 C 38.065297 26.893709 38.656453 27.122631 39.220703 27.707031 C 39.72826 28.232596 39.96661 28.86621 39.984375 29.646484 C 39.985654 29.629135 39.991088 29.615179 39.992188 29.597656 C 40.051898 28.646356 39.803911 27.910541 39.220703 27.306641 C 38.656453 26.722241 38.065297 26.493319 37.001953 26.449219 C 35.858545 26.402219 35.362905 26.181906 35.013672 25.566406 C 34.823949 25.232118 34.719631 24.740681 34.695312 24.21875 z M 21.275391 27.03125 C 21.242477 27.348034 21.137767 27.69183 20.955078 28.078125 C 20.817681 28.368525 20.678878 28.791378 20.646484 29.017578 C 20.611128 29.264341 20.612934 29.506244 20.638672 29.740234 C 20.641968 29.63253 20.630738 29.527865 20.646484 29.417969 C 20.678878 29.191769 20.817681 28.768916 20.955078 28.478516 C 21.217702 27.923199 21.323265 27.45394 21.275391 27.03125 z M 26.792969 27.070312 C 26.78882 27.140932 26.779177 27.202998 26.779297 27.283203 C 26.780128 27.790003 26.806665 27.902912 27.015625 28.320312 C 27.278215 28.844798 27.402636 29.280859 27.425781 29.703125 C 27.490081 29.14927 27.361335 28.612381 27.015625 27.921875 C 26.842113 27.575282 26.804521 27.397232 26.792969 27.070312 z M 13.527344 27.21875 C 13.523576 27.295416 13.512875 27.345586 13.513672 27.449219 C 13.517195 27.892819 13.555305 28.077725 13.742188 28.515625 C 13.941338 28.982078 14.04429 29.389555 14.074219 29.769531 C 14.11361 29.278671 14.013021 28.749584 13.742188 28.115234 C 13.584734 27.746291 13.542241 27.534317 13.527344 27.21875 z M 34.509766 27.21875 C 34.497697 27.46446 34.449601 27.692901 34.255859 28.228516 C 33.971863 29.014016 33.960105 29.077906 33.986328 29.691406 C 33.987908 29.72832 33.992399 29.739851 33.994141 29.773438 C 33.998138 29.450414 34.039538 29.225274 34.255859 28.626953 C 34.528703 27.872653 34.549001 27.764169 34.519531 27.292969 C 34.517918 27.267193 34.512115 27.244084 34.509766 27.21875 z "
       transform="translate(0,1004.3622)"
       id="path4211" />
  </g>
</svg>
