<?xml version="1.0" encoding="UTF-8" standalone="no"?>
<!-- Created with Inkscape (http://www.inkscape.org/) -->

<svg
   xmlns:dc="http://purl.org/dc/elements/1.1/"
   xmlns:cc="http://creativecommons.org/ns#"
   xmlns:rdf="http://www.w3.org/1999/02/22-rdf-syntax-ns#"
   xmlns:svg="http://www.w3.org/2000/svg"
   xmlns="http://www.w3.org/2000/svg"
   xmlns:xlink="http://www.w3.org/1999/xlink"
   xmlns:sodipodi="http://sodipodi.sourceforge.net/DTD/sodipodi-0.dtd"
   xmlns:inkscape="http://www.inkscape.org/namespaces/inkscape"
   width="48"
   height="48"
   id="svg2"
   version="1.1"
   inkscape:version="0.48+devel r12487"
   sodipodi:docname="miro.svg">
  <defs
     id="defs4">
    <linearGradient
       id="linearGradient2329">
      <stop
         id="stop2331"
         offset="0"
         style="stop-color:#cccccc;stop-opacity:1" />
      <stop
         id="stop2333"
         offset="1"
         style="stop-color:#222222;stop-opacity:1" />
    </linearGradient>
    <linearGradient
       id="linearGradient2314">
      <stop
         id="stop2316"
         offset="0"
         style="stop-color:#e8d8ff;stop-opacity:0.43881857" />
      <stop
         id="stop2318"
         offset="1"
         style="stop-color:#0055d4;stop-opacity:0.73417723" />
    </linearGradient>
    <linearGradient
       id="linearGradient853">
      <stop
         style="stop-color:#4d4d4d;stop-opacity:1"
         offset="0"
         id="stop855" />
      <stop
         style="stop-color:#1a1a1a;stop-opacity:1"
         offset="1"
         id="stop857" />
    </linearGradient>
    <linearGradient
       id="linearGradient850">
      <stop
         id="stop852"
         offset="0"
         style="stop-color:#ff5555;stop-opacity:1" />
      <stop
         id="stop854"
         offset="1"
         style="stop-color:#d40000;stop-opacity:1" />
    </linearGradient>
    <linearGradient
       inkscape:collect="always"
       xlink:href="#linearGradient850"
       id="linearGradient846"
       x1="26.374998"
       y1="-1004.6122"
       x2="26.374998"
       y2="-1052.2372"
       gradientUnits="userSpaceOnUse" />
    <linearGradient
       inkscape:collect="always"
       xlink:href="#linearGradient2329"
       id="linearGradient851"
       gradientUnits="userSpaceOnUse"
       x1="26.374998"
       y1="-1004.6122"
       x2="26.374998"
       y2="-1052.2372"
       gradientTransform="matrix(0.91666666,0,0,-0.91666666,2,-918.66535)" />
    <linearGradient
       inkscape:collect="always"
       xlink:href="#linearGradient2314"
       id="linearGradient2312"
       gradientUnits="userSpaceOnUse"
       gradientTransform="matrix(0.83333332,0,0,0.83333332,4,-171.39369)"
       x1="26.374998"
       y1="-1004.6122"
       x2="26.374998"
       y2="-1052.2372" />
    <linearGradient
       inkscape:collect="always"
       xlink:href="#linearGradient853"
       id="linearGradient2327"
       gradientUnits="userSpaceOnUse"
       gradientTransform="matrix(0.87499999,0,0,-0.87499999,3,128.54527)"
       x1="26.374998"
       y1="-1004.6122"
       x2="26.374998"
       y2="-1052.2372" />
    <linearGradient
       inkscape:collect="always"
       xlink:href="#linearGradient850"
       id="linearGradient2343"
       x1="25.124998"
       y1="13.875003"
       x2="25.124998"
       y2="34.375"
       gradientUnits="userSpaceOnUse" />
  </defs>
  <sodipodi:namedview
     id="base"
     pagecolor="#ffffff"
     bordercolor="#666666"
     borderopacity="1.0"
     inkscape:pageopacity="0.0"
     inkscape:pageshadow="2"
     inkscape:zoom="5.6568545"
     inkscape:cx="-8.9553082"
     inkscape:cy="27.703892"
     inkscape:document-units="px"
     inkscape:current-layer="layer1"
     showgrid="false"
     inkscape:window-width="1366"
     inkscape:window-height="714"
     inkscape:window-x="0"
     inkscape:window-y="30"
     inkscape:window-maximized="1"
     showguides="true">
    <inkscape:grid
       type="xygrid"
       id="grid3850" />
  </sodipodi:namedview>
  <metadata
     id="metadata7">
    <rdf:RDF>
      <cc:Work
         rdf:about="">
        <dc:format>image/svg+xml</dc:format>
        <dc:type
           rdf:resource="http://purl.org/dc/dcmitype/StillImage" />
        <dc:title />
      </cc:Work>
    </rdf:RDF>
  </metadata>
  <g
     inkscape:label="Capa 1"
     inkscape:groupmode="layer"
     id="layer1"
     transform="translate(0,-1004.3622)">
    <rect
       style="fill:url(#linearGradient846);fill-opacity:1;stroke:none"
       id="rect2991-1"
       width="48"
       height="48"
       x="8.4744258e-08"
       y="-1052.3622"
       ry="1.9445436"
       transform="scale(1,-1)" />
    <path
       inkscape:connector-curvature="0"
       style="fill:#000000;fill-opacity:1;stroke:none"
       d="m -8.4744264e-8,1049.3622 0,1.0625 c 0,1.0773 0.860222904744264,1.9375 1.937499884744264,1.9375 l 44.1250002,0 c 1.077277,0 1.9375,-0.8602 1.9375,-1.9375 l 0,-1.0625 c 0,1.0773 -0.860223,1.9375 -1.9375,1.9375 l -44.1250002,0 C 0.86022282,1051.2997 -8.4744264e-8,1050.4395 -8.4744264e-8,1049.3622 Z"
       id="rect846" />
    <path
       inkscape:connector-curvature="0"
       style="fill:#ffffff;fill-opacity:0.5372549;stroke:none"
       d="m 2.5312495,1005.0185 c -0.9170881,0 -1.67114638,0.6395 -1.84374958,1.5 0.33561198,-0.2799 0.77451208,-0.4375 1.24999988,-0.4375 l 44.1250002,0 c 0.475488,0 0.914388,0.1576 1.25,0.4375 -0.172603,-0.8605 -0.926662,-1.5 -1.84375,-1.5 L 2.5312495,1005.0185 Z"
       id="path7515" />
    <path
       inkscape:connector-curvature="0"
       style="fill:#000000;fill-opacity:0.39215686;stroke:none"
       d="m 1.9374998,1004.3622 c -1.07727688,0 -1.937499884744264,0.8602 -1.937499884744264,1.9375 l 0,43.0625 c 0,0.7934 0.480023604744264,1.449 1.156249884744264,1.75 -0.30934158,-0.3333 -0.49999988,-0.7824 -0.49999988,-1.2812 l 0,-42.9375 c 0,-1.0482 0.82689888,-1.875 1.87499958,-1.875 l 42.9375005,0 c 1.048101,0 1.875,0.8268 1.875,1.875 l 0,42.9375 c 0,0.4988 -0.190658,0.9479 -0.5,1.2812 0.676226,-0.301 1.15625,-0.9566 1.15625,-1.75 l 0,-43.0625 c 0,-1.0773 -0.860223,-1.9375 -1.9375,-1.9375 L 1.9374998,1004.3622 Z"
       id="rect4280" />
    <path
       style="fill:url(#linearGradient851);fill-opacity:1;stroke:none"
       d="M 3.78125 2 C 2.7937459 2 2 2.7937459 2 3.78125 L 2 44.21875 C 2 45.206254 2.7937459 46 3.78125 46 L 44.21875 46 C 45.206254 46 46 45.206254 46 44.21875 L 46 3.78125 C 46 2.7937459 45.206254 2 44.21875 2 L 3.78125 2 z M 5.625 4 L 42.375 4 C 43.272731 4 44 4.727269 44 5.625 L 44 42.375 C 44 43.272731 43.272731 44 42.375 44 L 5.625 44 C 4.727269 44 4 43.272731 4 42.375 L 4 5.625 C 4 4.727269 4.727269 4 5.625 4 z "
       transform="translate(0,1004.3622)"
       id="rect848" />
    <path
       style="fill:#f49057;fill-opacity:1;stroke:none"
       d="M 27.1875 4 L 27.1875 9.90625 L 38.03125 9.90625 L 38.03125 4 L 27.1875 4 z "
       transform="translate(0,1004.3622)"
       id="rect5354" />
    <path
       style="fill:#ce2025;fill-opacity:1;stroke:none"
       d="M 38.03125 4 L 38.03125 9.90625 L 44 9.90625 L 44 5.625 C 44 4.727269 43.272731 4 42.375 4 L 38.03125 4 z "
       transform="translate(0,1004.3622)"
       id="rect5358" />
    <path
       style="fill:#df4341;fill-opacity:1;stroke:none"
       d="M 16.375 4 L 16.375 9.90625 L 27.1875 9.90625 L 27.1875 4 L 16.375 4 z "
       transform="translate(0,1004.3622)"
       id="rect5364" />
    <path
       style="fill:#e47d57;fill-opacity:1;stroke:none"
       d="M 5.53125 4 L 5.53125 9.90625 L 16.375 9.90625 L 16.375 4 L 5.625 4 C 5.5946464 4 5.5611823 3.9983687 5.53125 4 z "
       transform="translate(0,1004.3622)"
       id="rect5366" />
    <path
       style="fill:#f48e55;fill-opacity:1;stroke:none"
       d="M 5.625 4 C 4.727269 4 4 4.727269 4 5.625 L 4 9.90625 L 9.03125 9.90625 L 9.03125 4 L 5.625 4 z "
       transform="translate(0,1004.3622)"
       id="rect5368" />
    <rect
       width="10.827731"
       height="8.1207981"
       x="27.201193"
       y="1014.272"
       id="rect5398"
       style="fill:#df4341;fill-opacity:1;stroke:none" />
    <path
       style="fill:#a9192a;fill-opacity:1;stroke:none"
       d="M 38.03125 9.90625 L 38.03125 18.03125 L 44 18.03125 L 44 9.90625 L 38.03125 9.90625 z "
       id="rect5400"
       transform="translate(0,1004.3622)" />
    <rect
       width="10.827731"
       height="8.1207981"
       x="16.373461"
       y="1014.272"
       id="rect5406"
       style="fill:#df4341;fill-opacity:1;stroke:none" />
    <rect
       width="10.827731"
       height="8.1207981"
       x="5.5457296"
       y="1014.272"
       id="rect5408"
       style="fill:#e47d57;fill-opacity:1;stroke:none" />
    <path
       style="fill:#e06842;fill-opacity:1;stroke:none"
       d="m 4,9.90625 0,8.125 5.0312498,0 L 9.0312498,9.90625 Z"
       id="rect5410"
       inkscape:connector-curvature="0"
       sodipodi:nodetypes="ccccc"
       transform="translate(0,1004.3622)" />
    <rect
       width="10.827731"
       height="8.1207981"
       x="27.201193"
       y="1022.3928"
       id="rect5414"
       style="fill:#a9192a;fill-opacity:1;stroke:none" />
    <path
       style="fill:#9d1014;fill-opacity:1;stroke:none"
       d="M 38.03125 18.03125 L 38.03125 26.15625 L 44 26.15625 L 44 18.03125 L 38.03125 18.03125 z "
       id="rect5416"
       transform="translate(0,1004.3622)" />
    <rect
       width="10.827731"
       height="8.1207981"
       x="16.373461"
       y="1022.3928"
       id="rect5422"
       style="fill:#e70c0d;fill-opacity:1;stroke:none" />
    <rect
       width="10.827731"
       height="8.1207981"
       x="5.5457296"
       y="1022.3928"
       id="rect5424"
       style="fill:#df6842;fill-opacity:1;stroke:none" />
    <path
       style="fill:#cb0c2e;fill-opacity:1;stroke:none"
       d="m 4,18.03125 0,8.125 5.0312498,0 L 9.0312498,18.03125 Z"
       id="rect5426"
       inkscape:connector-curvature="0"
       sodipodi:nodetypes="ccccc"
       transform="translate(0,1004.3622)" />
    <rect
       width="10.827731"
       height="7.2184877"
       x="27.201193"
       y="1030.5135"
       id="rect5430"
       style="fill:#cb2e2e;fill-opacity:1;stroke:none" />
    <path
       style="fill:#a01418;fill-opacity:1;stroke:none"
       d="M 38.03125 26.15625 L 38.03125 33.375 L 44 33.375 L 44 26.15625 L 38.03125 26.15625 z "
       id="rect5432"
       transform="translate(0,1004.3622)" />
    <rect
       width="10.827731"
       height="7.2184877"
       x="16.373461"
       y="1030.5135"
       id="rect5438"
       style="fill:#7f1c3d;fill-opacity:1;stroke:none" />
    <rect
       width="10.827731"
       height="7.2184877"
       x="5.5457296"
       y="1030.5135"
       id="rect5440"
       style="fill:#cd0b2d;fill-opacity:1;stroke:none" />
    <path
       style="fill:#e04e42;fill-opacity:1;stroke:none"
       d="m 4,26.15625 0,7.21875 5.0312498,0 L 9.0312498,26.15625 Z"
       id="rect5442"
       inkscape:connector-curvature="0"
       sodipodi:nodetypes="ccccc"
       transform="translate(0,1004.3622)" />
    <rect
       width="10.827731"
       height="7.6696429"
       x="27.201193"
       y="1037.7321"
       id="rect5448"
       style="fill:#7f1c3d;fill-opacity:1;stroke:none" />
    <path
       style="fill:#a70d1e;fill-opacity:1;stroke:none"
       d="M 38.03125 33.375 L 38.03125 41.03125 L 44 41.03125 L 44 33.375 L 38.03125 33.375 z "
       transform="translate(0,1004.3622)"
       id="rect5450" />
    <rect
       width="10.827731"
       height="7.6696429"
       x="16.373461"
       y="1037.7321"
       id="rect5456"
       style="fill:#c6262e;fill-opacity:1;stroke:none" />
    <rect
       width="10.827731"
       height="7.6696429"
       x="5.5457296"
       y="1037.7321"
       id="rect5458"
       style="fill:#ab1629;fill-opacity:1;stroke:none" />
    <path
       style="fill:#891c2f;fill-opacity:1;stroke:none"
       d="m 4,33.375 0,7.65625 5.0312498,0 L 9.0312498,33.375 Z"
       transform="translate(0,1004.3622)"
       id="rect5460"
       inkscape:connector-curvature="0"
       sodipodi:nodetypes="ccccc" />
    <path
       style="fill:#a9192a;fill-opacity:1;stroke:none"
       d="M 27.1875 41.03125 L 27.1875 44 L 38.03125 44 L 38.03125 41.03125 L 27.1875 41.03125 z "
       transform="translate(0,1004.3622)"
       id="rect5466" />
    <path
       style="fill:#891c2f;fill-opacity:1;stroke:none"
       d="M 38.03125 41.03125 L 38.03125 44 L 42.375 44 C 43.272731 44 44 43.272731 44 42.375 L 44 41.03125 L 38.03125 41.03125 z "
       transform="translate(0,1004.3622)"
       id="rect5468" />
    <path
       style="fill:#7f1c3d;fill-opacity:1;stroke:none"
       d="M 16.375 41.03125 L 16.375 44 L 27.1875 44 L 27.1875 41.03125 L 16.375 41.03125 z "
       transform="translate(0,1004.3622)"
       id="rect5474" />
    <path
       style="fill:#891c2f;fill-opacity:1;stroke:none"
       d="M 5.53125 41.03125 L 5.53125 44 C 5.5611823 44.001631 5.5946464 44 5.625 44 L 16.375 44 L 16.375 41.03125 L 5.53125 41.03125 z "
       transform="translate(0,1004.3622)"
       id="rect5476" />
    <path
       style="fill:#ac1729;fill-opacity:1;stroke:none"
       d="M 4 41.03125 L 4 42.375 C 4 43.272731 4.727269 44 5.625 44 L 9.03125 44 L 9.03125 41.03125 L 4 41.03125 z "
       transform="translate(0,1004.3622)"
       id="rect5478" />
    <rect
       style="fill:url(#linearGradient2312);fill-opacity:1;stroke:none;opacity:1"
       id="rect2310"
       width="40"
       height="40"
       x="4"
       y="-1048.3622"
       ry="1.6204531"
       transform="scale(1,-1)" />
    <path
       id="path2325"
       d="M 4.7002841,1007.3622 C 3.7576665,1007.3622 3,1008.1199 3,1009.0625 l 0,38.5994 c 0,0.9426 0.7576665,1.7003 1.7002841,1.7003 l 38.5994319,0 c 0.942617,0 1.700284,-0.7577 1.700284,-1.7003 l 0,-38.5994 c 0,-0.9426 -0.757667,-1.7003 -1.700284,-1.7003 L 4.7002841,1007.3622 z m 1.7599432,1.9091 35.0795457,0 c 0.856925,0 1.551136,0.6942 1.551136,1.5511 l 0,35.0796 c 0,0.8569 -0.694211,1.5511 -1.551136,1.5511 l -35.0795457,0 c -0.8569251,0 -1.5511364,-0.6942 -1.5511364,-1.5511 l 0,-35.0796 C 4.9090909,1009.9655 5.6033022,1009.2713 6.4602273,1009.2713 Z"
       style="fill:url(#linearGradient2327);fill-opacity:1;stroke:none"
       inkscape:connector-curvature="0" />
    <g
       id="g2436"
       transform="matrix(1.5192892,0,0,1.5192892,-12.273029,-534.25476)">
      <rect
         style="color:#000000;fill:#000000;fill-opacity:0.48101268;fill-rule:nonzero;stroke:none;stroke-width:0.2;marker:none;visibility:visible;display:inline;overflow:visible;enable-background:accumulate"
         id="rect2345"
         width="22.999998"
         height="20.249998"
         x="12.374999"
         y="1018.7997"
         ry="1.6204531" />
      <rect
         ry="1.6204531"
         transform="translate(0,1004.3622)"
         y="13.625002"
         x="12.374999"
         height="20.249998"
         width="22.999998"
         id="rect2335"
         style="color:#000000;fill:url(#linearGradient2343);fill-opacity:1;fill-rule:nonzero;stroke:none;stroke-width:0.2;marker:none;visibility:visible;display:inline;overflow:visible;enable-background:accumulate" />
      <path
         id="rect2349"
         transform="translate(0,1004.3622)"
         d="m 14,13.625 c -0.897731,0 -1.625,0.727269 -1.625,1.625 l 0,0.75 c 0,-0.897731 0.727269,-1.625 1.625,-1.625 l 19.75,0 c 0.897731,0 1.625,0.727269 1.625,1.625 l 0,-0.75 c 0,-0.897731 -0.727269,-1.625 -1.625,-1.625 L 14,13.625 Z"
         style="color:#000000;fill:#ffffff;fill-opacity:0.24894517;fill-rule:nonzero;stroke:none;stroke-width:0.2;marker:none;visibility:visible;display:inline;overflow:visible;enable-background:accumulate"
         inkscape:connector-curvature="0" />
      <path
         inkscape:connector-curvature="0"
         id="path2354"
         d="m 20.5625,1025.332 c -0.521683,0 -0.9375,0.4543 -0.9375,1 l 0,0.625 c 0,-0.5457 0.415817,-1 0.9375,-1 l 0.75,0 c 0.521685,0 0.9375,0.4543 0.9375,1 l 0,-0.625 c 0,-0.5457 -0.415815,-1 -0.9375,-1 L 20.5625,1025.332 z m 6.125,0 c -0.521685,0 -0.9375,0.4543 -0.9375,1 l 0,0.625 c 0,-0.5457 0.415815,-1 0.9375,-1 l 0.75,0 c 0.521683,0 0.9375,0.4543 0.9375,1 l 0,-0.625 c 0,-0.5457 -0.415817,-1 -0.9375,-1 L 26.6875,1025.332 z m -10.65625,8.5 0,0.625 3.59375,0 0,-0.625 L 16.03125,1033.832 z m 6.21875,0 0,0.625 3.5,0 0,-0.625 L 22.25,1033.832 z m 6.125,0 0,0.625 3.59375,0 0,-0.625 L 28.375,1033.832 Z"
         style="fill:#000000;fill-opacity:0.3248945;stroke:none" />
      <path
         sodipodi:nodetypes="cssccssssccssssccc"
         inkscape:connector-curvature="0"
         id="path5756"
         d="m 16.02515,1022.8267 12.665939,0 c 1.819205,0 3.283761,1.4646 3.283761,3.2838 l 0,7.7871 -3.612137,0 0,-7.5059 c 0,-0.5457 -0.416535,-0.9849 -0.938218,-0.9849 l -0.750574,0 c -0.521685,0 -0.938217,0.4392 -0.938217,0.9849 l 0,7.5059 -3.471407,0 0,-7.5059 c 0,-0.5457 -0.416533,-0.9849 -0.938218,-0.9849 l -0.750574,0 c -0.521683,0 -0.938217,0.4392 -0.938217,0.9849 l 0,7.5059 L 16.02515,1033.8976 Z"
         style="fill:#ffffff;fill-opacity:1;stroke:none" />
    </g>
  </g>
</svg>
