<?xml version="1.0" encoding="UTF-8" standalone="no"?>
<!-- Created with Inkscape (http://www.inkscape.org/) -->

<svg
   xmlns:dc="http://purl.org/dc/elements/1.1/"
   xmlns:cc="http://creativecommons.org/ns#"
   xmlns:rdf="http://www.w3.org/1999/02/22-rdf-syntax-ns#"
   xmlns:svg="http://www.w3.org/2000/svg"
   xmlns="http://www.w3.org/2000/svg"
   xmlns:xlink="http://www.w3.org/1999/xlink"
   xmlns:sodipodi="http://sodipodi.sourceforge.net/DTD/sodipodi-0.dtd"
   xmlns:inkscape="http://www.inkscape.org/namespaces/inkscape"
   width="48"
   height="48"
   id="svg5453"
   version="1.1"
   inkscape:version="0.48+devel r12923"
   sodipodi:docname="modelio.svg">
  <defs
     id="defs5455">
    <linearGradient
       id="linearGradient4460">
      <stop
         id="stop4068"
         style="stop-color:#891410"
         offset="0" />
      <stop
         id="stop4070"
         style="stop-color:#b81b1a"
         offset="1" />
    </linearGradient>
    <linearGradient
       inkscape:collect="always"
       xlink:href="#linearGradient4460"
       id="linearGradient4237"
       x1="-421.08786"
       y1="-547.79797"
       x2="-421.08786"
       y2="-499.78995"
       gradientUnits="userSpaceOnUse" />
    <linearGradient
       id="linearGradient4166"
       inkscape:collect="always">
      <stop
         id="stop4168"
         offset="0"
         style="stop-color:#efefef;stop-opacity:1" />
      <stop
         id="stop4170"
         offset="1"
         style="stop-color:#fbfbfb;stop-opacity:1" />
    </linearGradient>
    <linearGradient
       inkscape:collect="always"
       xlink:href="#linearGradient4166"
       id="linearGradient4323"
       x1="400.50894"
       y1="539.23547"
       x2="400.50894"
       y2="508.423"
       gradientUnits="userSpaceOnUse" />
    <linearGradient
       inkscape:collect="always"
       xlink:href="#linearGradient4166"
       id="linearGradient4327"
       gradientUnits="userSpaceOnUse"
       x1="400.50894"
       y1="539.23547"
       x2="400.50894"
       y2="508.423"
       gradientTransform="translate(20,0)" />
    <linearGradient
       inkscape:collect="always"
       xlink:href="#linearGradient908"
       id="linearGradient4335"
       x1="409.19644"
       y1="539.29797"
       x2="409.19644"
       y2="519.42297"
       gradientUnits="userSpaceOnUse" />
    <linearGradient
       inkscape:collect="always"
       id="linearGradient908">
      <stop
         style="stop-color:#adadad;stop-opacity:1"
         offset="0"
         id="stop910" />
      <stop
         style="stop-color:#cacaca;stop-opacity:1"
         offset="1"
         id="stop912" />
    </linearGradient>
  </defs>
  <sodipodi:namedview
     id="base"
     pagecolor="#ffffff"
     bordercolor="#666666"
     borderopacity="1.0"
     inkscape:pageopacity="0"
     inkscape:pageshadow="2"
     inkscape:zoom="3.8797719"
     inkscape:cx="-10.18958"
     inkscape:cy="7.706318"
     inkscape:document-units="px"
     inkscape:current-layer="layer1"
     showgrid="false"
     fit-margin-top="0"
     fit-margin-left="0"
     fit-margin-right="0"
     fit-margin-bottom="0"
     inkscape:window-width="1366"
     inkscape:window-height="669"
     inkscape:window-x="0"
     inkscape:window-y="26"
     inkscape:window-maximized="1"
     inkscape:showpageshadow="false"
     borderlayer="true" />
  <metadata
     id="metadata5458">
    <rdf:RDF>
      <cc:Work
         rdf:about="">
        <dc:format>image/svg+xml</dc:format>
        <dc:type
           rdf:resource="http://purl.org/dc/dcmitype/StillImage" />
        <dc:title />
      </cc:Work>
    </rdf:RDF>
  </metadata>
  <g
     inkscape:label="Capa 1"
     inkscape:groupmode="layer"
     id="layer1"
     transform="translate(-384.57143,-499.798)">
    <rect
       style="fill:url(#linearGradient4237);fill-opacity:1.0;stroke:none"
       id="rect2991-1-7"
       width="48"
       height="48"
       x="-432.57144"
       y="-547.79797"
       ry="1.9445436"
       transform="scale(-1,-1)" />
    <path
       style="fill:#000000;fill-opacity:0.05882353;stroke:none"
       d="m 398.5519,509.598 c -1.374,0 -2.48047,1.10643 -2.48047,2.48041 l 0,25.83918 c 0,1.37397 1.10647,2.48041 2.48047,2.48041 l 0.0391,0 c 1.374,0 2.48047,-1.10644 2.48047,-2.48041 l 0,-25.83918 c 0,-1.37398 -1.10647,-2.48041 -2.48047,-2.48041 l -0.0391,0 z m 20,0 c -1.374,0 -2.48047,1.10643 -2.48047,2.48041 l 0,25.83918 c 0,1.37397 1.10647,2.48041 2.48047,2.48041 l 0.0391,0 c 1.374,0 2.48047,-1.10644 2.48047,-2.48041 l 0,-25.83918 c 0,-1.37398 -1.10647,-2.48041 -2.48047,-2.48041 l -0.0391,0 z m -9.98047,10.80051 c -1.385,0 -2.5,1.11497 -2.5,2.49993 l 0,14.99962 c 0,1.38497 1.115,2.49994 2.5,2.49994 1.385,0 2.5,-1.11497 2.5,-2.49994 l 0,-14.99962 c 0,-1.38496 -1.115,-2.49993 -2.5,-2.49993 z"
       id="path4439"
       inkscape:connector-curvature="0" />
    <path
       inkscape:connector-curvature="0"
       id="path4437"
       d="m 398.5519,509.198 c -1.374,0 -2.48047,1.10643 -2.48047,2.48041 l 0,25.83918 c 0,1.37397 1.10647,2.48041 2.48047,2.48041 l 0.0391,0 c 1.374,0 2.48047,-1.10644 2.48047,-2.48041 l 0,-25.83918 c 0,-1.37398 -1.10647,-2.48041 -2.48047,-2.48041 l -0.0391,0 z m 20,0 c -1.374,0 -2.48047,1.10643 -2.48047,2.48041 l 0,25.83918 c 0,1.37397 1.10647,2.48041 2.48047,2.48041 l 0.0391,0 c 1.374,0 2.48047,-1.10644 2.48047,-2.48041 l 0,-25.83918 c 0,-1.37398 -1.10647,-2.48041 -2.48047,-2.48041 l -0.0391,0 z m -9.98047,10.80051 c -1.385,0 -2.5,1.11497 -2.5,2.49993 l 0,14.99962 c 0,1.38497 1.115,2.49994 2.5,2.49994 1.385,0 2.5,-1.11497 2.5,-2.49994 l 0,-14.99962 c 0,-1.38496 -1.115,-2.49993 -2.5,-2.49993 z"
       style="fill:#000000;fill-opacity:0.11764706;stroke:none" />
    <path
       style="fill:#000000;fill-opacity:0.23529412;stroke:none"
       d="m 398.5519,508.798 c -1.374,0 -2.48047,1.10643 -2.48047,2.48041 l 0,25.83918 c 0,1.37397 1.10647,2.48041 2.48047,2.48041 l 0.0391,0 c 1.374,0 2.48047,-1.10644 2.48047,-2.48041 l 0,-25.83918 c 0,-1.37398 -1.10647,-2.48041 -2.48047,-2.48041 l -0.0391,0 z m 20,0 c -1.374,0 -2.48047,1.10643 -2.48047,2.48041 l 0,25.83918 c 0,1.37397 1.10647,2.48041 2.48047,2.48041 l 0.0391,0 c 1.374,0 2.48047,-1.10644 2.48047,-2.48041 l 0,-25.83918 c 0,-1.37398 -1.10647,-2.48041 -2.48047,-2.48041 l -0.0391,0 z m -9.98047,10.80051 c -1.385,0 -2.5,1.11497 -2.5,2.49993 l 0,14.99962 c 0,1.38497 1.115,2.49994 2.5,2.49994 1.385,0 2.5,-1.11497 2.5,-2.49994 l 0,-14.99962 c 0,-1.38496 -1.115,-2.49993 -2.5,-2.49993 z"
       id="rect4428"
       inkscape:connector-curvature="0" />
    <path
       inkscape:connector-curvature="0"
       style="fill:#000000;fill-opacity:1;stroke:none"
       d="m 384.57143,544.79799 0,1.0625 c 0,1.0773 0.86022,1.9375 1.9375,1.9375 l 44.125,0 c 1.07728,0 1.9375,-0.8602 1.9375,-1.9375 l 0,-1.0625 c 0,1.0773 -0.86022,1.9375 -1.9375,1.9375 l -44.125,0 C 385.43165,546.73549 384.57143,545.87529 384.57143,544.79799 Z"
       id="rect846" />
    <path
       inkscape:connector-curvature="0"
       style="fill:#ffffff;fill-opacity:0.5372549;stroke:none"
       d="m 387.10268,500.45429 c -0.91709,0 -1.67115,0.6395 -1.84375,1.5 0.33561,-0.2799 0.77451,-0.4375 1.25,-0.4375 l 44.125,0 c 0.47549,0 0.91439,0.1576 1.25,0.4375 -0.1726,-0.8605 -0.92666,-1.5 -1.84375,-1.5 L 387.10268,500.45429 Z"
       id="path7515" />
    <path
       inkscape:connector-curvature="0"
       style="fill:#000000;fill-opacity:0.39215686;stroke:none"
       d="m 386.50893,499.79799 c -1.07728,0 -1.9375,0.8602 -1.9375,1.9375 l 0,43.0625 c 0,0.7934 0.48002,1.449 1.15625,1.75 -0.30934,-0.3333 -0.5,-0.7824 -0.5,-1.2812 l 0,-42.9375 c 0,-1.0482 0.8269,-1.875 1.875,-1.875 l 42.9375,0 c 1.0481,0 1.875,0.8268 1.875,1.875 l 0,42.9375 c 0,0.4988 -0.19066,0.9479 -0.5,1.2812 0.67623,-0.301 1.15625,-0.9566 1.15625,-1.75 l 0,-43.0625 c 0,-1.0773 -0.86022,-1.9375 -1.9375,-1.9375 L 386.50893,499.79799 Z"
       id="rect4280" />
    <rect
       ry="2.4801497"
       y="508.39801"
       x="416.07144"
       height="30.799999"
       width="5"
       id="rect4325"
       style="fill:url(#linearGradient4327);fill-opacity:1;stroke:none" />
    <rect
       style="fill:url(#linearGradient4323);fill-opacity:1;stroke:none"
       id="rect4262"
       width="5"
       height="30.799999"
       x="396.07144"
       y="508.39801"
       ry="2.4801497" />
    <rect
       ry="2.5"
       y="519.198"
       x="406.07144"
       height="20"
       width="5"
       id="rect4264"
       style="fill:url(#linearGradient4335);fill-opacity:1;stroke:none" />
    <path
       style="fill:#8f1511;fill-opacity:0.3137255;stroke:none"
       d="M 21.5 36.099609 L 21.5 36.900391 C 21.5 38.285361 22.615 39.400391 24 39.400391 C 25.385 39.400391 26.5 38.285361 26.5 36.900391 L 26.5 36.099609 C 26.5 37.484579 25.385 38.599609 24 38.599609 C 22.615 38.599609 21.5 37.484579 21.5 36.099609 z M 11.5 36.119141 L 11.5 36.919922 C 11.5 38.293892 12.606469 39.400391 13.980469 39.400391 L 14.019531 39.400391 C 15.393531 39.400391 16.5 38.293892 16.5 36.919922 L 16.5 36.119141 C 16.5 37.493111 15.393531 38.599609 14.019531 38.599609 L 13.980469 38.599609 C 12.606469 38.599609 11.5 37.493111 11.5 36.119141 z M 31.5 36.119141 L 31.5 36.919922 C 31.5 38.293892 32.606469 39.400391 33.980469 39.400391 L 34.019531 39.400391 C 35.393531 39.400391 36.5 38.293892 36.5 36.919922 L 36.5 36.119141 C 36.5 37.493111 35.393531 38.599609 34.019531 38.599609 L 33.980469 38.599609 C 32.606469 38.599609 31.5 37.493111 31.5 36.119141 z "
       transform="translate(384.57143,499.798)"
       id="rect4441" />
    <path
       style="fill:#ffffff;fill-opacity:0.23529412;stroke:none"
       d="M 13.980469 8.5996094 C 12.606466 8.5996094 11.5 9.7060753 11.5 11.080078 L 11.5 11.480469 C 11.5 10.106469 12.606469 9 13.980469 9 L 14.019531 9 C 15.393531 9 16.5 10.106469 16.5 11.480469 L 16.5 11.080078 C 16.5 9.7060753 15.393534 8.5996094 14.019531 8.5996094 L 13.980469 8.5996094 z M 33.980469 8.5996094 C 32.606466 8.5996094 31.5 9.7060753 31.5 11.080078 L 31.5 11.480469 C 31.5 10.106469 32.606469 9 33.980469 9 L 34.019531 9 C 35.393531 9 36.5 10.106469 36.5 11.480469 L 36.5 11.080078 C 36.5 9.7060753 35.393534 8.5996094 34.019531 8.5996094 L 33.980469 8.5996094 z M 24 19.400391 C 22.615 19.400391 21.5 20.515391 21.5 21.900391 L 21.5 22.300781 C 21.5 20.915781 22.615 19.800781 24 19.800781 C 25.385 19.800781 26.5 20.915781 26.5 22.300781 L 26.5 21.900391 C 26.5 20.515391 25.385 19.400391 24 19.400391 z "
       transform="translate(384.57143,499.798)"
       id="rect4453" />
  </g>
</svg>
