<?xml version="1.0" encoding="UTF-8" standalone="no"?>
<svg
   xmlns:dc="http://purl.org/dc/elements/1.1/"
   xmlns:cc="http://creativecommons.org/ns#"
   xmlns:rdf="http://www.w3.org/1999/02/22-rdf-syntax-ns#"
   xmlns:svg="http://www.w3.org/2000/svg"
   xmlns="http://www.w3.org/2000/svg"
   xmlns:xlink="http://www.w3.org/1999/xlink"
   xmlns:sodipodi="http://sodipodi.sourceforge.net/DTD/sodipodi-0.dtd"
   xmlns:inkscape="http://www.inkscape.org/namespaces/inkscape"
   width="48"
   viewBox="0 0 13.546667 13.546667"
   height="48"
   id="svg2"
   version="1.1"
   inkscape:version="0.48+devel r"
   sodipodi:docname="ms-excel.svg">
  <metadata
     id="metadata20">
    <rdf:RDF>
      <cc:Work
         rdf:about="">
        <dc:format>image/svg+xml</dc:format>
        <dc:type
           rdf:resource="http://purl.org/dc/dcmitype/StillImage" />
        <dc:title></dc:title>
      </cc:Work>
    </rdf:RDF>
  </metadata>
  <sodipodi:namedview
     pagecolor="#ffffff"
     bordercolor="#666666"
     borderopacity="1"
     objecttolerance="10"
     gridtolerance="10"
     guidetolerance="10"
     inkscape:pageopacity="0"
     inkscape:pageshadow="2"
     inkscape:window-width="1366"
     inkscape:window-height="666"
     id="namedview18"
     showgrid="false"
     inkscape:showpageshadow="false"
     borderlayer="true"
     inkscape:zoom="8"
     inkscape:cx="27.362268"
     inkscape:cy="26.847297"
     inkscape:window-x="-2"
     inkscape:window-y="25"
     inkscape:window-maximized="1"
     inkscape:current-layer="svg2" />
  <defs
     id="defs4">
    <linearGradient
       id="linearGradient4294"
       inkscape:collect="always">
      <stop
         id="stop4296"
         offset="0"
         style="stop-color:#d0f3c5;stop-opacity:1" />
      <stop
         id="stop4298"
         offset="1"
         style="stop-color:#f9fdf7;stop-opacity:1" />
    </linearGradient>
    <linearGradient
       gradientTransform="matrix(0.28222223,0,0,0.28222223,-108.53461,141.0541)"
       inkscape:collect="always"
       xlink:href="#linearGradient947"
       id="linearGradient4644"
       x1="415.79291"
       y1="-547.80017"
       x2="415.79291"
       y2="-499.7926"
       gradientUnits="userSpaceOnUse" />
    <linearGradient
       gradientUnits="userSpaceOnUse"
       y2="2.3968701"
       x2="7.3208833"
       y1="11.096162"
       x1="7.3208833"
       id="linearGradient4400"
       xlink:href="#linearGradient4294"
       inkscape:collect="always"
       gradientTransform="matrix(3.543307,0,0,3.543307,6.1568928e-6,-3.6253799e-6)" />
    <linearGradient
       inkscape:collect="always"
       id="linearGradient947">
      <stop
         style="stop-color:#3a931d;stop-opacity:1"
         offset="0"
         id="stop949" />
      <stop
         style="stop-color:#57ae30;stop-opacity:1"
         offset="1"
         id="stop951" />
    </linearGradient>
  </defs>
  <rect
     style="fill:url(#linearGradient4644);fill-opacity:1.0;stroke:none"
     id="rect2991-1-7"
     width="13.546667"
     height="13.546667"
     x="1.5945001e-06"
     y="-13.546665"
     ry="0.54879344"
     transform="scale(1,-1)" />
  <path
     id="path4317"
     d="m 7.4766844,2.7656674 -5.1665411,0.91171 0,6.8802666 5.1665411,0.900686 0,-8.6926626 z m 0.2160761,0.9999045 c -0.010851,0 -0.019292,0.00845 -0.019292,0.019293 l 0,0.5120789 c 0,-0.00306 0.00248,-0.00551 0.00551,-0.00551 l 1.3444142,0 c 0.00302,0 0.00551,0.00246 0.00551,0.00551 l 0,0.8990322 c 0,0.00306 -0.00259,0.00551 -0.00551,0.00551 l -1.3444142,0 c -0.00304,0 -0.00551,-0.00245 -0.00551,-0.00551 l 0,0.2783637 c 0,-0.00305 0.00248,-0.00551 0.00551,-0.00551 l 1.3444142,0 c 0.00302,0 0.00551,0.00246 0.00551,0.00551 l 0,0.8990319 c 0,0.00306 -0.00259,0.00551 -0.00551,0.00551 l -1.3444142,0 c -0.00304,0 -0.00551,-0.00246 -0.00551,-0.00551 l 0,0.278364 c 0,-0.00306 0.00248,-0.00551 0.00551,-0.00551 l 1.3444142,0 c 0.00302,0 0.00551,0.00246 0.00551,0.00551 l 0,0.8990322 c 0,0.00306 -0.00259,0.00551 -0.00551,0.00551 l -1.3444142,0 c -0.00304,0 -0.00551,-0.00246 -0.00551,-0.00551 l 0,0.2783636 c 0,-0.00306 0.00248,-0.00551 0.00551,-0.00551 l 1.3444142,0 c 0.00302,0 0.00551,0.00246 0.00551,0.00551 l 0,0.8984808 c 0,0.00306 -0.00259,0.00551 -0.00551,0.00551 l -1.3444142,0 c -0.00304,0 -0.00551,-0.00247 -0.00551,-0.00551 l 0,0.2789151 c 0,-0.00306 0.00248,-0.00551 0.00551,-0.00551 l 1.3444142,0 c 0.00302,0 0.00551,0.00247 0.00551,0.00551 l 0,0.8984807 c 0,0.00308 -0.00259,0.00551 -0.00551,0.00551 l -1.3444142,0 c -0.00304,0 -0.00551,-0.00244 -0.00551,-0.00551 l 0,0.512078 c 0,0.01084 0.00841,0.01984 0.019292,0.01984 l 3.5641585,0 c 0.01085,0 0.01984,-0.009 0.01984,-0.01984 l 0,-6.6322211 c 0,-0.010846 -0.009,-0.019293 -0.01984,-0.019293 l -3.5641585,0 z m 1.5737197,0.5258593 1.4519008,0 c 0.0031,0 0.0055,0.00246 0.0055,0.00551 l 0,0.8990322 c 0,0.00306 -0.0024,0.00551 -0.0055,0.00551 l -1.4519008,0 c -0.00302,0 -0.00551,-0.00245 -0.00551,-0.00551 l 0,-0.8990322 c 0,-0.00306 0.00248,-0.00551 0.00551,-0.00551 z m 0,1.1773958 1.4519008,0 c 0.0031,0 0.0055,0.00245 0.0055,0.00551 l 0,0.8990319 c 0,0.00306 -0.0024,0.00551 -0.0055,0.00551 l -1.4519008,0 c -0.00302,0 -0.00551,-0.00246 -0.00551,-0.00551 l 0,-0.8990319 c 0,-0.00306 0.00248,-0.00551 0.00551,-0.00551 z m -5.4862458,0.1593015 0.4266407,0 0.6057855,1.0428992 c 0.040005,0.068973 0.075485,0.1382835 0.1058334,0.207257 l 0.00827,0 C 4.970907,6.7872397 5.009411,6.7151794 5.0425194,6.6627594 l 0.6311415,-1.0346309 0.3996309,0 -0.9332073,1.4711935 0.9453341,1.4965494 -0.4238845,0 L 4.9785765,7.4598168 C 4.9578846,7.4253301 4.9350562,7.3760979 4.910226,7.3126425 l -0.00827,0 C 4.888161,7.3443705 4.864508,7.3936025 4.8314,7.4598168 l -0.7033508,1.1360546 -0.4260893,0 L 4.6947008,7.1037317 3.7802344,5.6281285 Z m 5.4862458,1.0180944 1.4519008,0 c 0.0031,0 0.0055,0.00246 0.0055,0.00551 l 0,0.8990322 c 0,0.00306 -0.0024,0.00551 -0.0055,0.00551 l -1.4519008,0 c -0.00302,0 -0.00551,-0.00246 -0.00551,-0.00551 l 0,-0.8990322 c 0,-0.00306 0.00248,-0.00551 0.00551,-0.00551 z m 0,1.1773959 1.4519008,0 c 0.0031,0 0.0055,0.00246 0.0055,0.00551 l 0,0.8984808 c 0,0.00306 -0.0024,0.00551 -0.0055,0.00551 l -1.4519008,0 c -0.00302,0 -0.00551,-0.00247 -0.00551,-0.00551 l 0,-0.8984808 c 0,-0.00306 0.00248,-0.00551 0.00551,-0.00551 z m 0,1.1773958 1.4519008,0 c 0.0031,0 0.0055,0.00246 0.0055,0.00551 l 0,0.8984807 c 0,0.00308 -0.0024,0.00551 -0.0055,0.00551 l -1.4519008,0 c -0.00302,0 -0.00551,-0.00249 -0.00551,-0.00551 l 0,-0.8984807 c 0,-0.00306 0.00248,-0.00551 0.00551,-0.00551 z"
     style="fill:#000000;fill-opacity:0.05882353;fill-rule:evenodd;stroke:none;stroke-width:0.28222224px;stroke-linecap:butt;stroke-linejoin:miter;stroke-opacity:1"
     inkscape:connector-curvature="0" />
  <path
     inkscape:connector-curvature="0"
     style="fill:#000000;fill-opacity:0.11764706;fill-rule:evenodd;stroke:none;stroke-width:0.28222224px;stroke-linecap:butt;stroke-linejoin:miter;stroke-opacity:1"
     d="m 7.4766844,2.6527786 -5.1665411,0.91171 0,6.8802674 5.1665411,0.900686 0,-8.6926634 z m 0.2160761,0.9999045 c -0.010851,0 -0.019292,0.00845 -0.019292,0.019293 l 0,0.5120789 c 0,-0.00306 0.00248,-0.00551 0.00551,-0.00551 l 1.3444142,0 c 0.00302,0 0.00551,0.00246 0.00551,0.00551 l 0,0.8990322 c 0,0.00306 -0.00259,0.00551 -0.00551,0.00551 l -1.3444142,0 c -0.00304,0 -0.00551,-0.00245 -0.00551,-0.00551 l 0,0.2783637 c 0,-0.00305 0.00248,-0.00551 0.00551,-0.00551 l 1.3444142,0 c 0.00302,0 0.00551,0.00246 0.00551,0.00551 l 0,0.8990319 c 0,0.00306 -0.00259,0.00551 -0.00551,0.00551 l -1.3444142,0 c -0.00304,0 -0.00551,-0.00246 -0.00551,-0.00551 l 0,0.278364 c 0,-0.00306 0.00248,-0.00551 0.00551,-0.00551 l 1.3444142,0 c 0.00302,0 0.00551,0.00246 0.00551,0.00551 l 0,0.8990322 c 0,0.00306 -0.00259,0.00551 -0.00551,0.00551 l -1.3444142,0 c -0.00304,0 -0.00551,-0.00246 -0.00551,-0.00551 l 0,0.2783636 c 0,-0.00306 0.00248,-0.00551 0.00551,-0.00551 l 1.3444142,0 c 0.00302,0 0.00551,0.00246 0.00551,0.00551 l 0,0.8984808 c 0,0.00306 -0.00259,0.00551 -0.00551,0.00551 l -1.3444142,0 c -0.00304,0 -0.00551,-0.00247 -0.00551,-0.00551 l 0,0.2789151 c 0,-0.00306 0.00248,-0.00551 0.00551,-0.00551 l 1.3444142,0 c 0.00302,0 0.00551,0.00247 0.00551,0.00551 l 0,0.8984807 c 0,0.00308 -0.00259,0.00551 -0.00551,0.00551 l -1.3444142,0 c -0.00304,0 -0.00551,-0.00244 -0.00551,-0.00551 l 0,0.5120788 c 0,0.01084 0.00841,0.01984 0.019292,0.01984 l 3.5641585,0 c 0.01085,0 0.01984,-0.009 0.01984,-0.01984 l 0,-6.6322219 c 0,-0.010846 -0.009,-0.019293 -0.01984,-0.019293 l -3.5641585,0 z m 1.5737197,0.5258593 1.4519008,0 c 0.0031,0 0.0055,0.00246 0.0055,0.00551 l 0,0.8990322 c 0,0.00306 -0.0024,0.00551 -0.0055,0.00551 l -1.4519008,0 c -0.00302,0 -0.00551,-0.00245 -0.00551,-0.00551 l 0,-0.8990322 c 0,-0.00306 0.00248,-0.00551 0.00551,-0.00551 z m 0,1.1773958 1.4519008,0 c 0.0031,0 0.0055,0.00245 0.0055,0.00551 l 0,0.8990319 c 0,0.00306 -0.0024,0.00551 -0.0055,0.00551 l -1.4519008,0 c -0.00302,0 -0.00551,-0.00246 -0.00551,-0.00551 l 0,-0.8990319 c 0,-0.00306 0.00248,-0.00551 0.00551,-0.00551 z m -5.4862458,0.1593015 0.4266407,0 0.6057855,1.0428992 c 0.040005,0.068973 0.075485,0.1382835 0.1058334,0.207257 l 0.00827,0 C 4.970907,6.6743509 5.009411,6.6022906 5.0425194,6.5498706 l 0.6311415,-1.0346309 0.3996309,0 -0.9332073,1.4711935 0.9453341,1.4965494 -0.4238845,0 L 4.9785765,7.346928 C 4.9578846,7.3124413 4.9350562,7.2632091 4.910226,7.1997537 l -0.00827,0 C 4.888161,7.2314817 4.864508,7.2807137 4.8314,7.346928 l -0.7033508,1.1360546 -0.4260893,0 L 4.6947008,6.9908429 3.7802344,5.5152397 Z m 5.4862458,1.0180944 1.4519008,0 c 0.0031,0 0.0055,0.00246 0.0055,0.00551 l 0,0.8990322 c 0,0.00306 -0.0024,0.00551 -0.0055,0.00551 l -1.4519008,0 c -0.00302,0 -0.00551,-0.00246 -0.00551,-0.00551 l 0,-0.8990322 c 0,-0.00306 0.00248,-0.00551 0.00551,-0.00551 z m 0,1.1773959 1.4519008,0 c 0.0031,0 0.0055,0.00246 0.0055,0.00551 l 0,0.8984808 c 0,0.00306 -0.0024,0.00551 -0.0055,0.00551 l -1.4519008,0 c -0.00302,0 -0.00551,-0.00247 -0.00551,-0.00551 l 0,-0.8984808 c 0,-0.00306 0.00248,-0.00551 0.00551,-0.00551 z m 0,1.1773958 1.4519008,0 c 0.0031,0 0.0055,0.00246 0.0055,0.00551 l 0,0.8984807 c 0,0.00308 -0.0024,0.00551 -0.0055,0.00551 l -1.4519008,0 c -0.00302,0 -0.00551,-0.00249 -0.00551,-0.00551 l 0,-0.8984807 c 0,-0.00306 0.00248,-0.00551 0.00551,-0.00551 z"
     id="path4315" />
  <path
     id="path4300"
     d="m 7.4766844,2.5398898 -5.1665411,0.91171 0,6.8802682 5.1665411,0.900686 0,-8.6926642 z m 0.2160761,0.9999045 c -0.010851,0 -0.019292,0.00845 -0.019292,0.019293 l 0,0.5120789 c 0,-0.00306 0.00248,-0.00551 0.00551,-0.00551 l 1.3444142,0 c 0.00302,0 0.00551,0.00246 0.00551,0.00551 l 0,0.8990322 c 0,0.00306 -0.00259,0.00551 -0.00551,0.00551 l -1.3444142,0 c -0.00304,0 -0.00551,-0.00245 -0.00551,-0.00551 l 0,0.2783637 c 0,-0.00305 0.00248,-0.00551 0.00551,-0.00551 l 1.3444142,0 c 0.00302,0 0.00551,0.00246 0.00551,0.00551 l 0,0.8990319 c 0,0.00306 -0.00259,0.00551 -0.00551,0.00551 l -1.3444142,0 c -0.00304,0 -0.00551,-0.00246 -0.00551,-0.00551 l 0,0.278364 c 0,-0.00306 0.00248,-0.00551 0.00551,-0.00551 l 1.3444142,0 c 0.00302,0 0.00551,0.00246 0.00551,0.00551 l 0,0.8990322 c 0,0.00306 -0.00259,0.00551 -0.00551,0.00551 l -1.3444142,0 c -0.00304,0 -0.00551,-0.00246 -0.00551,-0.00551 l 0,0.2783636 c 0,-0.00306 0.00248,-0.00551 0.00551,-0.00551 l 1.3444142,0 c 0.00302,0 0.00551,0.00246 0.00551,0.00551 l 0,0.8984808 c 0,0.00306 -0.00259,0.00551 -0.00551,0.00551 l -1.3444142,0 c -0.00304,0 -0.00551,-0.00247 -0.00551,-0.00551 l 0,0.2789151 c 0,-0.00306 0.00248,-0.00551 0.00551,-0.00551 l 1.3444142,0 c 0.00302,0 0.00551,0.00247 0.00551,0.00551 l 0,0.8984807 c 0,0.00308 -0.00259,0.00551 -0.00551,0.00551 l -1.3444142,0 c -0.00304,0 -0.00551,-0.00244 -0.00551,-0.00551 l 0,0.5120796 c 0,0.01084 0.00841,0.01984 0.019292,0.01984 l 3.5641585,0 c 0.01085,0 0.01984,-0.009 0.01984,-0.01984 l 0,-6.6322227 c 0,-0.010846 -0.009,-0.019293 -0.01984,-0.019293 l -3.5641585,0 z m 1.5737197,0.5258593 1.4519008,0 c 0.0031,0 0.0055,0.00246 0.0055,0.00551 l 0,0.8990322 c 0,0.00306 -0.0024,0.00551 -0.0055,0.00551 l -1.4519008,0 c -0.00302,0 -0.00551,-0.00245 -0.00551,-0.00551 l 0,-0.8990322 c 0,-0.00306 0.00248,-0.00551 0.00551,-0.00551 z m 0,1.1773958 1.4519008,0 c 0.0031,0 0.0055,0.00245 0.0055,0.00551 l 0,0.8990319 c 0,0.00306 -0.0024,0.00551 -0.0055,0.00551 l -1.4519008,0 c -0.00302,0 -0.00551,-0.00246 -0.00551,-0.00551 l 0,-0.8990319 c 0,-0.00306 0.00248,-0.00551 0.00551,-0.00551 z m -5.4862458,0.1593015 0.4266407,0 0.6057855,1.0428992 c 0.040005,0.068973 0.075485,0.1382835 0.1058334,0.207257 l 0.00827,0 C 4.970907,6.5614621 5.009411,6.4894018 5.0425194,6.4369818 l 0.6311415,-1.0346309 0.3996309,0 -0.9332073,1.4711935 0.9453341,1.4965494 -0.4238845,0 L 4.9785765,7.2340392 C 4.9578846,7.1995525 4.9350562,7.1503203 4.910226,7.0868649 l -0.00827,0 C 4.888161,7.1185929 4.864508,7.1678249 4.8314,7.2340392 l -0.7033508,1.1360546 -0.4260893,0 L 4.6947008,6.8779541 3.7802344,5.4023509 Z m 5.4862458,1.0180944 1.4519008,0 c 0.0031,0 0.0055,0.00246 0.0055,0.00551 l 0,0.8990322 c 0,0.00306 -0.0024,0.00551 -0.0055,0.00551 l -1.4519008,0 c -0.00302,0 -0.00551,-0.00246 -0.00551,-0.00551 l 0,-0.8990322 c 0,-0.00306 0.00248,-0.00551 0.00551,-0.00551 z m 0,1.1773959 1.4519008,0 c 0.0031,0 0.0055,0.00246 0.0055,0.00551 l 0,0.8984808 c 0,0.00306 -0.0024,0.00551 -0.0055,0.00551 l -1.4519008,0 c -0.00302,0 -0.00551,-0.00247 -0.00551,-0.00551 l 0,-0.8984808 c 0,-0.00306 0.00248,-0.00551 0.00551,-0.00551 z m 0,1.1773958 1.4519008,0 c 0.0031,0 0.0055,0.00246 0.0055,0.00551 l 0,0.8984807 c 0,0.00308 -0.0024,0.00551 -0.0055,0.00551 l -1.4519008,0 c -0.00302,0 -0.00551,-0.00249 -0.00551,-0.00551 l 0,-0.8984807 c 0,-0.00306 0.00248,-0.00551 0.00551,-0.00551 z"
     style="fill:#000000;fill-opacity:0.23529412;fill-rule:evenodd;stroke:none;stroke-width:0.28222224px;stroke-linecap:butt;stroke-linejoin:miter;stroke-opacity:1"
     inkscape:connector-curvature="0" />
  <path
     inkscape:connector-curvature="0"
     style="fill:#000000;fill-opacity:1;stroke:none"
     d="m -1.6934991e-6,12.700003 0,0.299861 c 0,0.304038 0.2427732134991,0.546805 0.5468055734991,0.546805 l 12.45305612,0 c 0.304032,0 0.546806,-0.242767 0.546806,-0.546805 l 0,-0.299861 c 0,0.304038 -0.242774,0.546805 -0.546806,0.546805 l -12.45305612,0 c -0.30403236,0 -0.5468055734991,-0.242767 -0.5468055734991,-0.546805 z"
     id="rect846" />
  <path
     inkscape:connector-curvature="0"
     style="fill:#ffffff;fill-opacity:0.5372549;stroke:none"
     d="m 0.71437333,0.18522472 c -0.25882319,0 -0.47163568,0.18048111 -0.52034724,0.42333334 0.0947166,-0.078994 0.21858394,-0.12347222 0.35277779,-0.12347222 l 12.45305612,0 c 0.134194,0 0.258061,0.0444782 0.352778,0.12347222 -0.04871,-0.24285223 -0.261524,-0.42333334 -0.520347,-0.42333334 l -12.11791767,0 z"
     id="path7515" />
  <path
     inkscape:connector-curvature="0"
     style="fill:#000000;fill-opacity:0.39215686;stroke:none"
     d="M 0.54680388,2.2641549e-6 C 0.24277152,2.2641549e-6 -1.6934991e-6,0.24276983 -1.6934991e-6,0.54680784 l 0,12.15319516 c 0,0.223915 0.1354723134991,0.40894 0.3263194534991,0.493889 -0.0873026,-0.09406 -0.14111111,-0.220811 -0.14111111,-0.361584 l 0,-12.1179166 c 0,-0.29582534 0.23336956,-0.52916668 0.52916668,-0.52916668 l 12.11791767,0 c 0.295797,0 0.529166,0.23334134 0.529166,0.52916668 l 0,12.1179166 c 0,0.140773 -0.05381,0.267519 -0.141111,0.361584 0.190847,-0.08495 0.32632,-0.269974 0.32632,-0.493889 l 0,-12.15319516 C 13.546666,0.24276983 13.303892,2.2641549e-6 12.99986,2.2641549e-6 l -12.45305612,0 z"
     id="rect4280" />
  <path
     style="fill:url(#linearGradient4400);fill-opacity:1.0;fill-rule:evenodd;stroke:none;stroke-width:0.28222224px;stroke-linecap:butt;stroke-linejoin:miter;stroke-opacity:1"
     d="M 26.492188 8.5996094 L 8.1855469 11.830078 L 8.1855469 36.208984 L 26.492188 39.400391 L 26.492188 8.5996094 z M 27.257812 12.142578 C 27.219364 12.142578 27.189453 12.172525 27.189453 12.210938 L 27.189453 14.025391 C 27.189453 14.014548 27.198248 14.005859 27.208984 14.005859 L 31.972656 14.005859 C 31.983357 14.005859 31.992188 14.014584 31.992188 14.025391 L 31.992188 17.210938 C 31.992188 17.22178 31.983003 17.230469 31.972656 17.230469 L 27.208984 17.230469 C 27.198213 17.230469 27.189453 17.22178 27.189453 17.210938 L 27.189453 18.197266 C 27.189453 18.186459 27.198248 18.177734 27.208984 18.177734 L 31.972656 18.177734 C 31.983357 18.177734 31.992188 18.186459 31.992188 18.197266 L 31.992188 21.382812 C 31.992188 21.393655 31.983003 21.402344 31.972656 21.402344 L 27.208984 21.402344 C 27.198213 21.402344 27.189453 21.39362 27.189453 21.382812 L 27.189453 22.369141 C 27.189453 22.358298 27.198248 22.349609 27.208984 22.349609 L 31.972656 22.349609 C 31.983357 22.349609 31.992188 22.358334 31.992188 22.369141 L 31.992188 25.554688 C 31.992188 25.56553 31.983003 25.574219 31.972656 25.574219 L 27.208984 25.574219 C 27.198213 25.574219 27.189453 25.565495 27.189453 25.554688 L 27.189453 26.541016 C 27.189453 26.530173 27.198248 26.521484 27.208984 26.521484 L 31.972656 26.521484 C 31.983357 26.521484 31.992188 26.530209 31.992188 26.541016 L 31.992188 29.724609 C 31.992188 29.735452 31.983003 29.744141 31.972656 29.744141 L 27.208984 29.744141 C 27.198213 29.744141 27.189453 29.735381 27.189453 29.724609 L 27.189453 30.712891 C 27.189453 30.702048 27.198248 30.693359 27.208984 30.693359 L 31.972656 30.693359 C 31.983357 30.693359 31.992188 30.702119 31.992188 30.712891 L 31.992188 33.896484 C 31.992188 33.907398 31.983003 33.916016 31.972656 33.916016 L 27.208984 33.916016 C 27.198213 33.916016 27.189453 33.907362 27.189453 33.896484 L 27.189453 35.710938 C 27.189453 35.749347 27.219265 35.78125 27.257812 35.78125 L 39.886719 35.78125 C 39.925164 35.78125 39.957031 35.749489 39.957031 35.710938 L 39.957031 12.210938 C 39.957031 12.172507 39.92527 12.142578 39.886719 12.142578 L 27.257812 12.142578 z M 32.833984 14.005859 L 37.978516 14.005859 C 37.9895 14.005859 37.998047 14.014584 37.998047 14.025391 L 37.998047 17.210938 C 37.998047 17.22178 37.9895 17.230469 37.978516 17.230469 L 32.833984 17.230469 C 32.823284 17.230469 32.814453 17.22178 32.814453 17.210938 L 32.814453 14.025391 C 32.814453 14.014548 32.823248 14.005859 32.833984 14.005859 z M 32.833984 18.177734 L 37.978516 18.177734 C 37.9895 18.177734 37.998047 18.186423 37.998047 18.197266 L 37.998047 21.382812 C 37.998047 21.393655 37.9895 21.402344 37.978516 21.402344 L 32.833984 21.402344 C 32.823284 21.402344 32.814453 21.39362 32.814453 21.382812 L 32.814453 18.197266 C 32.814453 18.186423 32.823248 18.177734 32.833984 18.177734 z M 13.394531 18.742188 L 14.90625 18.742188 L 17.052734 22.4375 C 17.194483 22.681894 17.320201 22.927481 17.427734 23.171875 L 17.457031 23.171875 C 17.613442 22.849275 17.749876 22.593943 17.867188 22.408203 L 20.103516 18.742188 L 21.519531 18.742188 L 18.212891 23.955078 L 21.5625 29.257812 L 20.060547 29.257812 L 17.640625 25.232422 C 17.567307 25.110225 17.486419 24.93578 17.398438 24.710938 L 17.369141 24.710938 C 17.320262 24.82336 17.23645 24.997805 17.119141 25.232422 L 14.626953 29.257812 L 13.117188 29.257812 L 16.634766 23.970703 L 13.394531 18.742188 z M 32.833984 22.349609 L 37.978516 22.349609 C 37.9895 22.349609 37.998047 22.358334 37.998047 22.369141 L 37.998047 25.554688 C 37.998047 25.56553 37.9895 25.574219 37.978516 25.574219 L 32.833984 25.574219 C 32.823284 25.574219 32.814453 25.565495 32.814453 25.554688 L 32.814453 22.369141 C 32.814453 22.358298 32.823248 22.349609 32.833984 22.349609 z M 32.833984 26.521484 L 37.978516 26.521484 C 37.9895 26.521484 37.998047 26.530209 37.998047 26.541016 L 37.998047 29.724609 C 37.998047 29.735452 37.9895 29.744141 37.978516 29.744141 L 32.833984 29.744141 C 32.823284 29.744141 32.814453 29.735381 32.814453 29.724609 L 32.814453 26.541016 C 32.814453 26.530173 32.823248 26.521484 32.833984 26.521484 z M 32.833984 30.693359 L 37.978516 30.693359 C 37.9895 30.693359 37.998047 30.702084 37.998047 30.712891 L 37.998047 33.896484 C 37.998047 33.907398 37.9895 33.916016 37.978516 33.916016 L 32.833984 33.916016 C 32.823284 33.916016 32.814453 33.907185 32.814453 33.896484 L 32.814453 30.712891 C 32.814453 30.702048 32.823248 30.693359 32.833984 30.693359 z "
     id="path4281"
     transform="scale(0.28222223,0.28222223)" />
  <path
     style="fill:#3c941e;fill-opacity:0.3137255;fill-rule:evenodd;stroke:none;stroke-width:0.28222224px;stroke-linecap:butt;stroke-linejoin:miter;stroke-opacity:1"
     d="M 27.208984 13.205078 C 27.198248 13.205078 27.189453 13.213767 27.189453 13.224609 L 27.189453 14.025391 C 27.189453 14.014548 27.198248 14.005859 27.208984 14.005859 L 31.972656 14.005859 C 31.983357 14.005859 31.992188 14.014584 31.992188 14.025391 L 31.992188 13.224609 C 31.992187 13.213802 31.983357 13.205078 31.972656 13.205078 L 27.208984 13.205078 z M 32.833984 13.205078 C 32.823248 13.205078 32.814453 13.213767 32.814453 13.224609 L 32.814453 14.025391 C 32.814453 14.014548 32.823248 14.005859 32.833984 14.005859 L 37.978516 14.005859 C 37.9895 14.005859 37.998047 14.014584 37.998047 14.025391 L 37.998047 13.224609 C 37.998047 13.213802 37.9895 13.205078 37.978516 13.205078 L 32.833984 13.205078 z M 27.208984 17.376953 C 27.198248 17.376953 27.189453 17.385677 27.189453 17.396484 L 27.189453 18.197266 C 27.189453 18.186459 27.198248 18.177734 27.208984 18.177734 L 31.972656 18.177734 C 31.983357 18.177734 31.992188 18.186459 31.992188 18.197266 L 31.992188 17.396484 C 31.992187 17.385677 31.983357 17.376953 31.972656 17.376953 L 27.208984 17.376953 z M 32.833984 17.376953 C 32.823248 17.376953 32.814453 17.385642 32.814453 17.396484 L 32.814453 18.197266 C 32.814453 18.186423 32.823248 18.177734 32.833984 18.177734 L 37.978516 18.177734 C 37.9895 18.177734 37.998047 18.186423 37.998047 18.197266 L 37.998047 17.396484 C 37.998047 17.385642 37.9895 17.376953 37.978516 17.376953 L 32.833984 17.376953 z M 13.394531 17.941406 L 13.890625 18.742188 L 14.90625 18.742188 L 17.052734 22.4375 C 17.194483 22.681894 17.320201 22.927481 17.427734 23.171875 L 17.457031 23.171875 C 17.613442 22.849275 17.749875 22.593943 17.867188 22.408203 L 20.103516 18.742188 L 21.011719 18.742188 L 21.519531 17.941406 L 20.103516 17.941406 L 17.867188 21.607422 C 17.749874 21.793162 17.613443 22.048493 17.457031 22.371094 L 17.427734 22.371094 C 17.320201 22.1267 17.194484 21.881111 17.052734 21.636719 L 14.90625 17.941406 L 13.394531 17.941406 z M 27.208984 21.548828 C 27.198248 21.548828 27.189453 21.557517 27.189453 21.568359 L 27.189453 22.369141 C 27.189453 22.358298 27.198248 22.349609 27.208984 22.349609 L 31.972656 22.349609 C 31.983357 22.349609 31.992188 22.358334 31.992188 22.369141 L 31.992188 21.568359 C 31.992187 21.557552 31.983357 21.548828 31.972656 21.548828 L 27.208984 21.548828 z M 32.833984 21.548828 C 32.823248 21.548828 32.814453 21.557517 32.814453 21.568359 L 32.814453 22.369141 C 32.814453 22.358298 32.823248 22.349609 32.833984 22.349609 L 37.978516 22.349609 C 37.9895 22.349609 37.998047 22.358334 37.998047 22.369141 L 37.998047 21.568359 C 37.998047 21.557552 37.9895 21.548828 37.978516 21.548828 L 32.833984 21.548828 z M 18.466797 23.554688 L 18.212891 23.955078 L 21.056641 28.457031 L 21.5625 28.457031 L 18.466797 23.554688 z M 16.376953 23.556641 L 13.117188 28.457031 L 13.650391 28.457031 L 16.634766 23.970703 L 16.376953 23.556641 z M 27.208984 25.720703 C 27.198248 25.720703 27.189453 25.729392 27.189453 25.740234 L 27.189453 26.541016 C 27.189453 26.530173 27.198248 26.521484 27.208984 26.521484 L 31.972656 26.521484 C 31.983357 26.521484 31.992188 26.530209 31.992188 26.541016 L 31.992188 25.740234 C 31.992187 25.729427 31.983357 25.720703 31.972656 25.720703 L 27.208984 25.720703 z M 32.833984 25.720703 C 32.823248 25.720703 32.814453 25.729392 32.814453 25.740234 L 32.814453 26.541016 C 32.814453 26.530173 32.823248 26.521484 32.833984 26.521484 L 37.978516 26.521484 C 37.9895 26.521484 37.998047 26.530209 37.998047 26.541016 L 37.998047 25.740234 C 37.998047 25.729427 37.9895 25.720703 37.978516 25.720703 L 32.833984 25.720703 z M 27.208984 29.892578 C 27.198248 29.892578 27.189453 29.901267 27.189453 29.912109 L 27.189453 30.712891 C 27.189453 30.702048 27.198248 30.693359 27.208984 30.693359 L 31.972656 30.693359 C 31.983357 30.693359 31.992188 30.702119 31.992188 30.712891 L 31.992188 29.912109 C 31.992187 29.901338 31.983357 29.892578 31.972656 29.892578 L 27.208984 29.892578 z M 32.833984 29.892578 C 32.823248 29.892578 32.814453 29.901267 32.814453 29.912109 L 32.814453 30.712891 C 32.814453 30.702048 32.823248 30.693359 32.833984 30.693359 L 37.978516 30.693359 C 37.9895 30.693359 37.998047 30.702084 37.998047 30.712891 L 37.998047 29.912109 C 37.998047 29.901302 37.9895 29.892578 37.978516 29.892578 L 32.833984 29.892578 z M 27.189453 34.910156 L 27.189453 35.710938 C 27.189453 35.749347 27.219265 35.78125 27.257812 35.78125 L 39.886719 35.78125 C 39.925164 35.78125 39.957031 35.749489 39.957031 35.710938 L 39.957031 34.910156 C 39.957031 34.948566 39.925164 34.980469 39.886719 34.980469 L 27.257812 34.980469 C 27.219254 34.980469 27.189453 34.948566 27.189453 34.910156 z M 8.1855469 35.408203 L 8.1855469 36.208984 L 26.492188 39.400391 L 26.492188 38.599609 L 8.1855469 35.408203 z "
     transform="scale(0.28222223,0.28222223)"
     id="path4319" />
  <path
     style="fill:#ffffff;fill-opacity:0.23529412;fill-rule:evenodd;stroke:none;stroke-width:0.28222224px;stroke-linecap:butt;stroke-linejoin:miter;stroke-opacity:1"
     d="M 26.492188 8.5996094 L 8.1855469 11.830078 L 8.1855469 12.230469 L 26.492188 9 L 26.492188 8.5996094 z M 27.257812 12.142578 C 27.219364 12.142578 27.189453 12.172524 27.189453 12.210938 L 27.189453 12.611328 C 27.189453 12.572908 27.219364 12.542969 27.257812 12.542969 L 39.886719 12.542969 C 39.925128 12.542969 39.957031 12.572897 39.957031 12.611328 L 39.957031 12.210938 C 39.957031 12.172506 39.92527 12.142578 39.886719 12.142578 L 27.257812 12.142578 z M 27.189453 17.210938 L 27.189453 17.611328 C 27.189453 17.622171 27.198213 17.630859 27.208984 17.630859 L 31.972656 17.630859 C 31.983003 17.630859 31.992188 17.622171 31.992188 17.611328 L 31.992188 17.210938 C 31.992188 17.22178 31.983003 17.230469 31.972656 17.230469 L 27.208984 17.230469 C 27.198213 17.230469 27.189453 17.22178 27.189453 17.210938 z M 32.814453 17.210938 L 32.814453 17.611328 C 32.814453 17.622171 32.823284 17.630859 32.833984 17.630859 L 37.978516 17.630859 C 37.9895 17.630859 37.998047 17.622171 37.998047 17.611328 L 37.998047 17.210938 C 37.998047 17.22178 37.9895 17.230469 37.978516 17.230469 L 32.833984 17.230469 C 32.823284 17.230469 32.814453 17.22178 32.814453 17.210938 z M 13.394531 19.142578 L 16.505859 24.164062 L 16.634766 23.970703 L 13.642578 19.142578 L 13.394531 19.142578 z M 21.265625 19.142578 L 18.212891 23.955078 L 18.339844 24.15625 L 21.519531 19.142578 L 21.265625 19.142578 z M 27.189453 21.382812 L 27.189453 21.783203 C 27.189453 21.79401 27.198213 21.802734 27.208984 21.802734 L 31.972656 21.802734 C 31.983003 21.802734 31.992188 21.794046 31.992188 21.783203 L 31.992188 21.382812 C 31.992188 21.393656 31.983003 21.402344 31.972656 21.402344 L 27.208984 21.402344 C 27.198213 21.402344 27.189453 21.393621 27.189453 21.382812 z M 32.814453 21.382812 L 32.814453 21.783203 C 32.814453 21.79401 32.823284 21.802734 32.833984 21.802734 L 37.978516 21.802734 C 37.9895 21.802734 37.998047 21.794046 37.998047 21.783203 L 37.998047 21.382812 C 37.998047 21.393656 37.9895 21.402344 37.978516 21.402344 L 32.833984 21.402344 C 32.823284 21.402344 32.814453 21.393621 32.814453 21.382812 z M 17.369141 24.710938 C 17.320262 24.82336 17.23645 24.997805 17.119141 25.232422 L 14.626953 29.257812 L 13.382812 29.257812 L 13.117188 29.658203 L 14.626953 29.658203 L 17.119141 25.632812 C 17.236452 25.398195 17.320261 25.22375 17.369141 25.111328 L 17.398438 25.111328 C 17.486419 25.33617 17.567307 25.510616 17.640625 25.632812 L 20.060547 29.658203 L 21.5625 29.658203 L 21.310547 29.257812 L 20.060547 29.257812 L 17.640625 25.232422 C 17.567307 25.110225 17.486419 24.93578 17.398438 24.710938 L 17.369141 24.710938 z M 27.189453 25.554688 L 27.189453 25.955078 C 27.189453 25.965885 27.198213 25.974609 27.208984 25.974609 L 31.972656 25.974609 C 31.983003 25.974609 31.992188 25.965921 31.992188 25.955078 L 31.992188 25.554688 C 31.992188 25.56553 31.983003 25.574219 31.972656 25.574219 L 27.208984 25.574219 C 27.198213 25.574219 27.189453 25.565495 27.189453 25.554688 z M 32.814453 25.554688 L 32.814453 25.955078 C 32.814453 25.965885 32.823284 25.974609 32.833984 25.974609 L 37.978516 25.974609 C 37.9895 25.974609 37.998047 25.965921 37.998047 25.955078 L 37.998047 25.554688 C 37.998047 25.56553 37.9895 25.574219 37.978516 25.574219 L 32.833984 25.574219 C 32.823284 25.574219 32.814453 25.565495 32.814453 25.554688 z M 27.189453 29.724609 L 27.189453 30.125 C 27.189453 30.135772 27.198213 30.144531 27.208984 30.144531 L 31.972656 30.144531 C 31.983003 30.144531 31.992188 30.135843 31.992188 30.125 L 31.992188 29.724609 C 31.992188 29.735452 31.983003 29.744141 31.972656 29.744141 L 27.208984 29.744141 C 27.198213 29.744141 27.189453 29.735381 27.189453 29.724609 z M 32.814453 29.724609 L 32.814453 30.125 C 32.814453 30.135772 32.823284 30.144531 32.833984 30.144531 L 37.978516 30.144531 C 37.9895 30.144531 37.998047 30.135843 37.998047 30.125 L 37.998047 29.724609 C 37.998047 29.735452 37.9895 29.744141 37.978516 29.744141 L 32.833984 29.744141 C 32.823284 29.744141 32.814453 29.735381 32.814453 29.724609 z M 27.189453 33.896484 L 27.189453 34.296875 C 27.189453 34.307753 27.198213 34.316406 27.208984 34.316406 L 31.972656 34.316406 C 31.983003 34.316406 31.992188 34.307788 31.992188 34.296875 L 31.992188 33.896484 C 31.992188 33.907398 31.983003 33.916016 31.972656 33.916016 L 27.208984 33.916016 C 27.198213 33.916016 27.189453 33.907362 27.189453 33.896484 z M 32.814453 33.896484 L 32.814453 34.296875 C 32.814453 34.307576 32.823284 34.316406 32.833984 34.316406 L 37.978516 34.316406 C 37.9895 34.316406 37.998047 34.307788 37.998047 34.296875 L 37.998047 33.896484 C 37.998047 33.907398 37.9895 33.916016 37.978516 33.916016 L 32.833984 33.916016 C 32.823284 33.916016 32.814453 33.907185 32.814453 33.896484 z "
     transform="scale(0.28222223,0.28222223)"
     id="path4324" />
</svg>
