<?xml version="1.0" encoding="UTF-8" standalone="no"?>
<svg
   xmlns:dc="http://purl.org/dc/elements/1.1/"
   xmlns:cc="http://creativecommons.org/ns#"
   xmlns:rdf="http://www.w3.org/1999/02/22-rdf-syntax-ns#"
   xmlns:svg="http://www.w3.org/2000/svg"
   xmlns="http://www.w3.org/2000/svg"
   xmlns:xlink="http://www.w3.org/1999/xlink"
   xmlns:sodipodi="http://sodipodi.sourceforge.net/DTD/sodipodi-0.dtd"
   xmlns:inkscape="http://www.inkscape.org/namespaces/inkscape"
   width="48"
   viewBox="0 0 13.546667 13.546667"
   height="48"
   id="svg2"
   version="1.1"
   inkscape:version="0.48+devel r"
   sodipodi:docname="ms-powerpoint.svg">
  <metadata
     id="metadata94">
    <rdf:RDF>
      <cc:Work
         rdf:about="">
        <dc:format>image/svg+xml</dc:format>
        <dc:type
           rdf:resource="http://purl.org/dc/dcmitype/StillImage" />
        <dc:title />
      </cc:Work>
    </rdf:RDF>
  </metadata>
  <sodipodi:namedview
     pagecolor="#ffffff"
     bordercolor="#666666"
     borderopacity="1"
     objecttolerance="10"
     gridtolerance="10"
     guidetolerance="10"
     inkscape:pageopacity="0"
     inkscape:pageshadow="2"
     inkscape:window-width="1366"
     inkscape:window-height="666"
     id="namedview92"
     showgrid="false"
     inkscape:showpageshadow="false"
     borderlayer="true"
     inkscape:zoom="13.233479"
     inkscape:cx="18.012979"
     inkscape:cy="25.431194"
     inkscape:window-x="-2"
     inkscape:window-y="25"
     inkscape:window-maximized="1"
     inkscape:current-layer="svg2" />
  <defs
     id="defs4">
    <linearGradient
       id="linearGradient4423"
       inkscape:collect="always">
      <stop
         id="stop4425"
         offset="0"
         style="stop-color:#f9d3bf;stop-opacity:1" />
      <stop
         id="stop4427"
         offset="1"
         style="stop-color:#fffbf5;stop-opacity:1" />
    </linearGradient>
    <linearGradient
       gradientUnits="userSpaceOnUse"
       y2="-499.7926"
       x2="415.79291"
       y1="-547.80017"
       x1="415.79291"
       id="linearGradient4644"
       xlink:href="#linearGradient4100"
       inkscape:collect="always"
       gradientTransform="matrix(0.28222223,0,0,0.28222223,-108.53461,141.0541)" />
    <linearGradient
       inkscape:collect="always"
       id="linearGradient4100">
      <stop
         style="stop-color:#eb641e;stop-opacity:1"
         offset="0"
         id="stop4102" />
      <stop
         style="stop-color:#f5a41d;stop-opacity:1"
         offset="1"
         id="stop4104" />
    </linearGradient>
    <linearGradient
       inkscape:collect="always"
       xlink:href="#linearGradient4423"
       id="linearGradient4391"
       gradientUnits="userSpaceOnUse"
       gradientTransform="matrix(3.543307,0,0,3.543307,6.1568928e-6,-3.6253799e-6)"
       x1="7.3208833"
       y1="11.096162"
       x2="7.3208833"
       y2="2.3968701" />
  </defs>
  <rect
     style="fill:url(#linearGradient4644);fill-opacity:1.0;stroke:none"
     id="rect2991-1-7"
     width="13.546667"
     height="13.546667"
     x="1.5945001e-06"
     y="-13.546665"
     ry="0.54879344"
     transform="scale(1,-1)" />
  <path
     id="path4435"
     d="m 7.4766844,2.7656674 -5.1665411,0.91171 0,6.8802666 5.1665411,0.900686 z m 0.1967837,0.9999045 0,0.019293 0,0.5120789 0,0.4211284 C 7.9325947,4.4949905 8.2630979,4.3721762 8.6050218,4.3719088 l 0,1.4298524 1.4293012,0 C 10.034317,6.3799567 9.6860138,6.9012154 9.1518274,7.1224729 8.6534579,7.3280344 8.0818292,7.2357469 7.6734681,6.8837967 l 0,0.6669708 0,0.2783636 0,0.3599435 2.9611289,0 0,0.2811198 -2.9611289,0 0,0.2574175 0,0.2789151 0,0.1355988 2.9611289,0 0,0.2811198 -2.9611289,0 0,0.4817621 0,0.5120773 0,0.01984 0.019292,0 1.4259941,0 0.6928776,0 1.4452872,0 c 0.01085,0 0.01984,-0.009 0.01984,-0.01984 l 0,-6.6322204 c 0,-0.010847 -0.009,-0.019293 -0.01984,-0.019293 l -1.4452872,0 -0.6928776,0 -1.4259941,0 z m 1.1525913,0.6256294 c 0.6238704,0.098387 1.1092416,0.594514 1.1939326,1.2203907 l -1.1939326,0 z m -4.9646616,0.9974438 0.9273953,0 c 0.3608265,0 0.6397759,0.087889 0.8374458,0.2635957 0.1992388,0.1757067 0.299191,0.4236109 0.299191,0.7436479 0,0.3200373 -0.1106976,0.5820319 -0.3318998,0.7859775 -0.2196333,0.2039451 -0.516855,0.3059249 -0.8918005,0.3059249 l -0.4449382,0 0,1.2756497 -0.3953936,0 z m 0.3953936,0.3578743 0,1.3838781 0.4141533,0 c 0.2729728,0 0.4811137,-0.062217 0.6238754,-0.1861524 0.1443306,-0.1255049 0.2164564,-0.3021194 0.2164564,-0.5295967 0,-0.4455417 -0.2837205,-0.5241203 -0.7907873,-0.668129 z"
     style="fill:#000000;fill-opacity:0.05882353;fill-rule:evenodd;stroke:none;stroke-width:0.28222224px;stroke-linecap:butt;stroke-linejoin:miter;stroke-opacity:1"
     inkscape:connector-curvature="0"
     sodipodi:nodetypes="ccccccccccccccccccccccccccccccccsssscccccccccscscsccccccscssc" />
  <path
     inkscape:connector-curvature="0"
     style="fill:#000000;fill-opacity:0.11764706;fill-rule:evenodd;stroke:none;stroke-width:0.28222224px;stroke-linecap:butt;stroke-linejoin:miter;stroke-opacity:1"
     d="m 7.4766844,2.6527786 -5.1665411,0.91171 0,6.8802674 5.1665411,0.900686 z m 0.1967837,0.9999045 0,0.019293 0,0.5120789 0,0.4211284 C 7.9325947,4.3821017 8.2630979,4.2592874 8.6050218,4.25902 l 0,1.4298524 1.4293012,0 C 10.034317,6.2670679 9.6860138,6.7883266 9.1518274,7.0095841 8.6534579,7.2151456 8.0818292,7.1228581 7.6734681,6.7709079 l 0,0.6669708 0,0.2783636 0,0.3599435 2.9611289,0 0,0.2811198 -2.9611289,0 0,0.2574175 0,0.2789151 0,0.1355988 2.9611289,0 0,0.2811198 -2.9611289,0 0,0.4817621 0,0.5120781 0,0.01984 0.019292,0 1.4259941,0 0.6928776,0 1.4452872,0 c 0.01085,0 0.01984,-0.009 0.01984,-0.01984 l 0,-6.6322212 c 0,-0.010847 -0.009,-0.019293 -0.01984,-0.019293 l -1.4452872,0 -0.6928776,0 -1.4259941,0 z m 1.1525913,0.6256294 c 0.6238704,0.098387 1.1092416,0.594514 1.1939326,1.2203907 l -1.1939326,0 z m -4.9646616,1.0118209 0.9273953,0 c 0.3608265,0 0.6397759,0.087889 0.8374458,0.2635958 0.1992388,0.1757067 0.299191,0.4236109 0.299191,0.7436479 0,0.3200372 -0.1106976,0.5820318 -0.3318998,0.7859774 -0.2196333,0.2039452 -0.516855,0.305925 -0.8918005,0.305925 l -0.4449382,0 0,1.2756496 -0.3953936,0 z m 0.3953936,0.3578744 0,1.3838781 0.4141533,0 c 0.2729728,0 0.4811137,-0.062217 0.6238754,-0.1861524 0.1443306,-0.125505 0.2164564,-0.3021195 0.2164564,-0.5295968 0,-0.4455416 -0.2872813,-0.512126 -0.7907873,-0.6681289 z"
     id="path4433"
     sodipodi:nodetypes="ccccccccccccccccccccccccccccccccsssscccccccccscscsccccccscssc" />
  <path
     id="path4429"
     d="m 7.4766844,2.5398898 -5.1665411,0.91171 0,6.8802682 5.1665411,0.900686 z m 0.1967837,0.9999045 0,0.019293 0,0.5120789 0,0.4211284 C 7.9325947,4.2692129 8.2630979,4.1463986 8.6050218,4.1461312 l 0,1.4298524 1.4293012,0 C 10.034317,6.1541791 9.6860138,6.6754378 9.1518274,6.8966953 8.6534579,7.1022568 8.0818292,7.0099693 7.6734681,6.6580191 l 0,0.6669708 0,0.2783636 0,0.3599435 2.9611289,0 0,0.2811198 -2.9611289,0 0,0.2574175 0,0.2789151 0,0.1355988 2.9611289,0 0,0.2811198 -2.9611289,0 0,0.4817621 0,0.5120789 0,0.01984 0.019292,0 1.4259941,0 0.6928776,0 1.4452872,0 c 0.01085,0 0.01984,-0.009 0.01984,-0.01984 l 0,-6.632222 c 0,-0.010847 -0.009,-0.019293 -0.01984,-0.019293 l -1.4452872,0 -0.6928776,0 -1.4259941,0 z m 1.1525913,0.6256294 c 0.6238704,0.098387 1.1092416,0.594514 1.1939326,1.2203907 l -1.1939326,0 z m -4.9646616,1.0261981 0.9273953,0 c 0.3608265,0 0.6397759,0.087889 0.8374458,0.2635957 0.1992388,0.1757067 0.299191,0.423611 0.299191,0.7436479 0,0.3200373 -0.1106976,0.5820319 -0.3318998,0.7859775 -0.2196333,0.2039452 -0.516855,0.305925 -0.8918005,0.305925 l -0.4449382,0 0,1.2756496 -0.3953936,0 z m 0.3953936,0.3578744 0,1.383878 0.4141533,0 c 0.2729728,0 0.4811137,-0.062217 0.6238754,-0.1861524 0.1443306,-0.1255049 0.2164564,-0.3021194 0.2164564,-0.5295967 0,-0.4455417 -0.2636676,-0.6681289 -0.7907873,-0.6681289 z"
     style="fill:#000000;fill-opacity:0.23529412;fill-rule:evenodd;stroke:none;stroke-width:0.28222224px;stroke-linecap:butt;stroke-linejoin:miter;stroke-opacity:1"
     inkscape:connector-curvature="0"
     sodipodi:nodetypes="ccccccccccccccccccccccccccccccccsssscccccccccscscsccccccscssc" />
  <path
     inkscape:connector-curvature="0"
     style="fill:#000000;fill-opacity:1;stroke:none"
     d="m -1.6934991e-6,12.700003 0,0.299861 c 0,0.304038 0.2427732134991,0.546805 0.5468055734991,0.546805 l 12.45305612,0 c 0.304032,0 0.546806,-0.242767 0.546806,-0.546805 l 0,-0.299861 c 0,0.304038 -0.242774,0.546805 -0.546806,0.546805 l -12.45305612,0 c -0.30403236,0 -0.5468055734991,-0.242767 -0.5468055734991,-0.546805 z"
     id="rect846" />
  <path
     inkscape:connector-curvature="0"
     style="fill:#ffffff;fill-opacity:0.5372549;stroke:none"
     d="m 0.71437333,0.18522472 c -0.25882319,0 -0.47163568,0.18048111 -0.52034724,0.42333334 0.0947166,-0.078994 0.21858394,-0.12347222 0.35277779,-0.12347222 l 12.45305612,0 c 0.134194,0 0.258061,0.0444782 0.352778,0.12347222 -0.04871,-0.24285223 -0.261524,-0.42333334 -0.520347,-0.42333334 l -12.11791767,0 z"
     id="path7515" />
  <path
     inkscape:connector-curvature="0"
     style="fill:#000000;fill-opacity:0.39215686;stroke:none"
     d="M 0.54680388,2.2641549e-6 C 0.24277152,2.2641549e-6 -1.6934991e-6,0.24276983 -1.6934991e-6,0.54680784 l 0,12.15319516 c 0,0.223915 0.1354723134991,0.40894 0.3263194534991,0.493889 -0.0873026,-0.09406 -0.14111111,-0.220811 -0.14111111,-0.361584 l 0,-12.1179166 c 0,-0.29582534 0.23336956,-0.52916668 0.52916668,-0.52916668 l 12.11791767,0 c 0.295797,0 0.529166,0.23334134 0.529166,0.52916668 l 0,12.1179166 c 0,0.140773 -0.05381,0.267519 -0.141111,0.361584 0.190847,-0.08495 0.32632,-0.269974 0.32632,-0.493889 l 0,-12.15319516 C 13.546666,0.24276983 13.303892,2.2641549e-6 12.99986,2.2641549e-6 l -12.45305612,0 z"
     id="rect4280" />
  <path
     style="fill:url(#linearGradient4391);fill-opacity:1;fill-rule:evenodd;stroke:none;stroke-width:0.28222224px;stroke-linecap:butt;stroke-linejoin:miter;stroke-opacity:1"
     d="m 26.492188,8.5996094 -18.3066411,3.2304686 0,24.378906 18.3066411,3.191407 z m 0.697265,3.5429686 0,0.06836 0,1.814453 0,1.492187 c 0.918165,-0.790447 2.08924,-1.225615 3.300781,-1.226562 l 0,5.066406 5.064454,0 c -2e-5,2.048725 -1.234167,3.895704 -3.126954,4.679687 -1.765876,0.728368 -3.791332,0.401365 -5.238281,-0.845703 l 0,2.363282 0,0.986328 0,1.27539 10.492188,0 0,0.996094 -10.492188,0 0,0.912109 0,0.988282 0,0.480468 10.492188,0 0,0.996094 -10.492188,0 0,1.707031 0,1.814454 0,0.07031 0.06836,0 5.052735,0 2.455078,0 5.121094,0 c 0.03845,0 0.07031,-0.0319 0.07031,-0.07031 l 0,-23.5 c 0,-0.03843 -0.0319,-0.06836 -0.07031,-0.06836 l -5.121094,0 -2.455078,0 -5.052735,0 z m 4.083985,2.216797 c 2.210564,0.348615 3.930382,2.106546 4.230468,4.324219 l -4.230468,0 z m -17.59132,3.687078 3.286046,0 c 1.278519,0 2.266923,0.311417 2.967328,0.934 0.705964,0.622583 1.060125,1.500984 1.060125,2.634973 0,1.133991 -0.392236,2.062318 -1.176023,2.78496 -0.778228,0.72264 -1.831376,1.083986 -3.159923,1.083986 l -1.576552,0 0,4.520018 -1.401001,0 z m 1.401001,1.268059 0,4.903504 1.467472,0 c 0.967226,0 1.704734,-0.220452 2.210582,-0.659595 0.511408,-0.444702 0.766972,-1.070502 0.766972,-1.876524 0,-1.578691 -0.934256,-2.367385 -2.802003,-2.367385 z"
     transform="scale(0.28222223,0.28222223)"
     id="path4381"
     inkscape:connector-curvature="0"
     sodipodi:nodetypes="ccccccccccccccccccccccccccccccccsssscccccccccscscsccccccscssc" />
  <path
     style="fill:#eb671e;fill-opacity:0.31372549;fill-rule:evenodd;stroke:none;stroke-width:0.28222224px;stroke-linecap:butt;stroke-linejoin:miter;stroke-opacity:1"
     d="m 30.439453,13.490234 c -1.194045,0.01299 -2.345111,0.447404 -3.25,1.226563 l 0,0.800781 c 0.918165,-0.790447 2.08924,-1.225615 3.300781,-1.226562 l 0,-0.800782 c -0.01693,-8.5e-5 -0.03385,-8.5e-5 -0.05078,0 z m 0.833985,0.06836 0,0.800781 c 1.912827,0.30347 3.485169,1.671118 4.050781,3.523437 l 0.179687,0 C 35.203819,15.66514 33.484001,13.907209 31.273438,13.558594 Z m -17.59132,3.789062 0,0.698797 3.286046,0 c 1.27852,0 2.266923,0.311417 2.967328,0.934 0.625766,0.551857 0.958148,1.316544 1.029446,2.270236 0.0083,-0.112166 0.03068,-0.217551 0.03068,-0.334059 0,-1.133989 -0.354161,-2.01239 -1.060125,-2.634973 -0.700405,-0.622583 -1.688808,-0.934001 -2.967328,-0.934001 z m 16.808116,1.208985 0,0.800781 4.994141,0 c 0.04462,-0.264643 0.06813,-0.532413 0.07031,-0.800781 l -0.07227,0 c 0.0077,0.04223 0.01486,0.08455 0.02148,0.126953 l -4.230468,0 0,-0.126953 z M 19.49917,21.323978 c -0.06491,0.639917 -0.302927,1.157326 -0.737997,1.535646 -0.505848,0.439142 -1.243356,0.659596 -2.210582,0.659596 l -1.467472,0 0,0.698796 1.467472,0 c 0.967226,0 1.704734,-0.220452 2.210582,-0.659595 0.511408,-0.444702 0.766972,-1.070502 0.766972,-1.876524 0,-0.12713 -0.01686,-0.241034 -0.02897,-0.357919 z m 7.690283,5.691647 0,0.800781 10.492188,0 0,-0.800781 z m 0,3.376953 0,0.320313 0,0.480468 10.492188,0 0,-0.800781 z m 12.767578,4.517578 c 0,0.03841 -0.03187,0.07031 -0.07031,0.07031 l -5.121094,0 -2.455078,0 -5.052735,0 -0.06836,0 0,0.730469 0,0.07031 0.06836,0 5.052735,0 2.455078,0 5.121094,0 c 0.03845,0 0.07031,-0.0319 0.07031,-0.07031 z m -31.7714841,0.498047 0,0.800781 18.3066411,3.191407 0,-0.800782 z"
     transform="scale(0.28222223,0.28222223)"
     id="path4437"
     inkscape:connector-curvature="0"
     sodipodi:nodetypes="cccccccccccccsccscsccccccccccccsccscscccccccccccccscccccccccsscccccc" />
  <path
     style="fill:#ffffff;fill-opacity:0.23529412;fill-rule:evenodd;stroke:none;stroke-width:0.28222224px;stroke-linecap:butt;stroke-linejoin:miter;stroke-opacity:1"
     d="m 26.492188,8.5996094 -18.3066411,3.2304686 0,0.400391 L 26.492188,9 Z m 0.697265,3.5429686 0,0.06836 0,0.332031 0.06836,0 5.052735,0 2.455078,0 5.121094,0 c 0.03841,0 0.07031,0.02993 0.07031,0.06836 l 0,-0.40039 c 0,-0.03844 -0.0319,-0.06836 -0.07031,-0.06836 l -5.121094,0 -2.455078,0 -5.052735,0 z m -12.106334,7.171934 0,0.349398 1.643023,0 c 1.792572,0 2.716189,0.734308 2.788368,2.188426 0.0028,-0.05813 0.01363,-0.110306 0.01363,-0.170439 0,-1.578691 -0.934256,-2.367385 -2.802003,-2.367385 z m 16.190319,-0.630918 0,0.40039 4.230468,0 c -0.01807,-0.13435 -0.04153,-0.267921 -0.07031,-0.40039 z m 4.261718,1.074218 c -0.149833,1.896858 -1.350076,3.549739 -3.107422,4.279297 -1.765876,0.728368 -3.791332,0.401365 -5.238281,-0.845703 l 0,0.400391 c 1.446949,1.247068 3.472405,1.574071 5.238281,0.845703 1.892787,-0.783983 3.126934,-2.630963 3.126954,-4.679688 z m -14.554878,2.024644 c -0.0383,1.055531 -0.417244,1.932487 -1.160684,2.61793 -0.778228,0.72264 -1.831376,1.083986 -3.159923,1.083986 l -1.576552,0 0,0.349398 1.576552,0 c 1.328547,0 2.381695,-0.361346 3.159923,-1.083987 0.783787,-0.722642 1.176023,-1.650968 1.176023,-2.784958 0,-0.06441 -0.01305,-0.119607 -0.01534,-0.182369 z m 6.209175,7.030044 0,0.400391 10.492188,0 0,-0.400391 z m -13.507335,1.19189 0,0.349399 1.401001,0 0,-0.349399 z m 13.507335,2.185063 0,0.400391 10.492188,0 0,-0.400391 z"
     transform="scale(0.28222223,0.28222223)"
     id="path4442"
     inkscape:connector-curvature="0"
     sodipodi:nodetypes="cccccccccccscssccccccscsscccccccccccccccsccscscccccccccccccccc" />
</svg>
