<?xml version="1.0" encoding="UTF-8" standalone="no"?>
<!-- Created with Inkscape (http://www.inkscape.org/) -->

<svg
   xmlns:dc="http://purl.org/dc/elements/1.1/"
   xmlns:cc="http://creativecommons.org/ns#"
   xmlns:rdf="http://www.w3.org/1999/02/22-rdf-syntax-ns#"
   xmlns:svg="http://www.w3.org/2000/svg"
   xmlns="http://www.w3.org/2000/svg"
   xmlns:xlink="http://www.w3.org/1999/xlink"
   xmlns:sodipodi="http://sodipodi.sourceforge.net/DTD/sodipodi-0.dtd"
   xmlns:inkscape="http://www.inkscape.org/namespaces/inkscape"
   width="48"
   height="48"
   id="svg5453"
   version="1.1"
   inkscape:version="0.48+devel r12923"
   sodipodi:docname="musescore.svg">
  <defs
     id="defs5455">
    <linearGradient
       id="linearGradient4093"
       inkscape:collect="always">
      <stop
         id="stop4095"
         offset="0"
         style="stop-color:#d6b0f4;stop-opacity:1" />
      <stop
         id="stop4097"
         offset="1"
         style="stop-color:#fdf7fd;stop-opacity:1" />
    </linearGradient>
    <linearGradient
       inkscape:collect="always"
       id="linearGradient4087">
      <stop
         style="stop-color:#8b28cc;stop-opacity:1"
         offset="0"
         id="stop4089" />
      <stop
         style="stop-color:#c753c5;stop-opacity:1"
         offset="1"
         id="stop4091" />
    </linearGradient>
    <linearGradient
       gradientUnits="userSpaceOnUse"
       y2="-1026.8595"
       x2="84.145706"
       y1="-1074.8636"
       x1="84.145706"
       id="linearGradient850"
       xlink:href="#linearGradient4087"
       inkscape:collect="always"
       gradientTransform="translate(325.07144,527.62586)" />
    <linearGradient
       inkscape:collect="always"
       xlink:href="#linearGradient4093"
       id="linearGradient4170"
       x1="409.33578"
       y1="539.34479"
       x2="409.33578"
       y2="508.4191"
       gradientUnits="userSpaceOnUse" />
  </defs>
  <sodipodi:namedview
     id="base"
     pagecolor="#ffffff"
     bordercolor="#666666"
     borderopacity="1.0"
     inkscape:pageopacity="0"
     inkscape:pageshadow="2"
     inkscape:zoom="5.9391087"
     inkscape:cx="34.752346"
     inkscape:cy="29.038138"
     inkscape:document-units="px"
     inkscape:current-layer="layer1"
     showgrid="false"
     fit-margin-top="0"
     fit-margin-left="0"
     fit-margin-right="0"
     fit-margin-bottom="0"
     inkscape:window-width="1366"
     inkscape:window-height="669"
     inkscape:window-x="0"
     inkscape:window-y="26"
     inkscape:window-maximized="1"
     inkscape:showpageshadow="false"
     borderlayer="true" />
  <metadata
     id="metadata5458">
    <rdf:RDF>
      <cc:Work
         rdf:about="">
        <dc:format>image/svg+xml</dc:format>
        <dc:type
           rdf:resource="http://purl.org/dc/dcmitype/StillImage" />
        <dc:title />
      </cc:Work>
    </rdf:RDF>
  </metadata>
  <g
     inkscape:label="Capa 1"
     inkscape:groupmode="layer"
     id="layer1"
     transform="translate(-384.57143,-499.798)">
    <rect
       style="fill:url(#linearGradient850);fill-opacity:1;stroke:none"
       id="rect2991-1"
       width="48"
       height="48"
       x="384.57144"
       y="-547.23633"
       ry="1.9445436"
       transform="scale(1,-1)" />
    <path
       style="fill:#000000;fill-opacity:0.05882353"
       inkscape:connector-curvature="0"
       id="path4178"
       d="m 420.43229,509.598 c -4.2479,0 -8.54756,2.5212 -8.54756,7.33553 l 0.72799,0 c 0,-4.36967 3.93425,-6.65612 7.81957,-6.65612 1.97249,0 3.79295,0.58221 5.12073,1.63838 1.49745,1.19156 2.28691,2.92667 2.28691,5.01774 l 0.73153,0 c 0,-2.29462 -0.88187,-4.21033 -2.54616,-5.53438 -1.46005,-1.16158 -3.44644,-1.80115 -5.59301,-1.80115 z m 0.0425,6.13947 c -0.48417,0 -0.87713,0.36515 -0.87713,0.81388 0,0.44843 0.39011,0.81035 0.87713,0.81035 0.48386,0 0.87358,-0.36192 0.87358,-0.81035 0,-0.44873 -0.38972,-0.81388 -0.87358,-0.81388 z m -24.78687,5.6193 c -0.76568,0 -1.49136,0.12918 -2.18037,0.38926 -0.66327,0.23674 -1.27416,0.58043 -1.83593,1.02973 -0.56146,0.44932 -1.03455,0.96911 -1.41692,1.56053 -0.383,0.59082 -0.66285,1.24041 -0.84161,1.94977 l -0.0782,0 0,-4.50465 -0.76349,0 0,18.22735 0.76349,0 0,-10.31858 c 0,-1.01743 0.14181,-1.9862 0.4226,-2.90873 0.30601,-0.9219 0.7285,-1.72459 1.26419,-2.40978 0.56147,-0.70963 1.23624,-1.26778 2.02769,-1.67023 0.79051,-0.42571 1.66856,-0.63694 2.63848,-0.63694 1.09654,0 1.9927,0.16415 2.6811,0.49541 0.68934,0.3305 1.22179,0.78125 1.60511,1.3482 0.38207,0.56785 0.63948,1.22833 0.76704,1.98516 0.15365,0.75681 0.23083,1.56157 0.23083,2.41332 l 0,11.70217 0.7635,0 0,-11.56062 c 0,-0.85145 0.14201,-1.65356 0.42258,-2.40979 0.28058,-0.77982 0.6862,-1.46863 1.22157,-2.05947 0.53602,-0.59083 1.18744,-1.05249 1.95314,-1.38359 0.76506,-0.35467 1.61944,-0.53079 2.5639,-0.53079 1.0714,0 1.95332,0.14041 2.64204,0.42462 0.71447,0.28362 1.27509,0.68659 1.68323,1.20667 0.43358,0.52007 0.72705,1.14636 0.88068,1.879 0.17782,0.73353 0.26633,1.55038 0.26633,2.44871 l 0.0249,6.70212 c 0.0427,0.72945 0.10454,1.37712 0.34799,1.98515 0.35756,0.80368 0.84068,1.49193 1.45243,2.05947 0.63812,0.54396 1.37802,0.95489 2.21945,1.23852 0.86779,0.26004 1.81298,0.38924 2.8338,0.38924 1.9392,0 3.50659,-0.45785 4.70524,-1.38006 1.22442,-0.92162 2.01552,-2.09454 2.37215,-3.51382 l 0.0782,0 0,4.50464 0.7564,0 0.007,0 0,-18.22735 -0.76352,0 0,10.31856 c 0,1.01686 -0.15199,1.98653 -0.45809,2.90874 -0.3057,0.92251 -0.76579,1.73935 -1.37784,2.44871 -0.5866,0.68575 -1.32651,1.24124 -2.21944,1.66667 -0.89292,0.40214 -1.92662,0.60158 -3.10013,0.60158 -0.84204,0 -1.64553,-0.10508 -2.41121,-0.31849 -0.73962,-0.23674 -1.40529,-0.59192 -1.9922,-1.06512 -0.56114,-0.49618 -1.00699,-1.11037 -1.33877,-1.84359 -0.3318,-0.75683 -0.36221,-1.69284 -0.36221,-2.75659 l -0.007,-5.71838 c 0,-0.99297 -0.10527,-1.89271 -0.30895,-2.69641 -0.20422,-0.82816 -0.54858,-1.52321 -1.03338,-2.09132 -0.48448,-0.59055 -1.11937,-1.05251 -1.91051,-1.38359 -0.79082,-0.3311 -1.78754,-0.49541 -2.9865,-0.49541 -1.53139,0 -2.85853,0.38705 -3.98081,1.16775 -1.12231,0.7804 -1.87551,1.8126 -2.25851,3.08919 l -0.0746,0 c -0.33211,-1.34735 -1.02018,-2.40345 -2.06675,-3.15997 -1.02018,-0.7804 -2.29739,-1.14471 -3.82813,-1.09697 z" />
    <path
       d="m 420.43229,509.198 c -4.2479,0 -8.54756,2.5212 -8.54756,7.33553 l 0.72799,0 c 0,-4.36967 3.93425,-6.65612 7.81957,-6.65612 1.97249,0 3.79295,0.58221 5.12073,1.63838 1.49745,1.19156 2.28691,2.92667 2.28691,5.01774 l 0.73153,0 c 0,-2.29462 -0.88187,-4.21033 -2.54616,-5.53438 -1.46005,-1.16158 -3.44644,-1.80115 -5.59301,-1.80115 z m 0.0425,6.13947 c -0.48417,0 -0.87713,0.36515 -0.87713,0.81388 0,0.44843 0.39011,0.81035 0.87713,0.81035 0.48386,0 0.87358,-0.36192 0.87358,-0.81035 0,-0.44873 -0.38972,-0.81388 -0.87358,-0.81388 z m -24.78687,5.6193 c -0.76568,0 -1.49136,0.12918 -2.18037,0.38926 -0.66327,0.23674 -1.27416,0.58043 -1.83593,1.02973 -0.56146,0.44932 -1.03455,0.96911 -1.41692,1.56053 -0.383,0.59082 -0.66285,1.24041 -0.84161,1.94977 l -0.0782,0 0,-4.50465 -0.76349,0 0,18.22735 0.76349,0 0,-10.31858 c 0,-1.01743 0.14181,-1.9862 0.4226,-2.90873 0.30601,-0.9219 0.7285,-1.72459 1.26419,-2.40978 0.56147,-0.70963 1.23624,-1.26778 2.02769,-1.67023 0.79051,-0.42571 1.66856,-0.63694 2.63848,-0.63694 1.09654,0 1.9927,0.16415 2.6811,0.49541 0.68934,0.3305 1.22179,0.78125 1.60511,1.3482 0.38207,0.56785 0.63948,1.22833 0.76704,1.98516 0.15365,0.75681 0.23083,1.56157 0.23083,2.41332 l 0,11.70217 0.7635,0 0,-11.56062 c 0,-0.85145 0.14201,-1.65356 0.42258,-2.40979 0.28058,-0.77982 0.6862,-1.46863 1.22157,-2.05947 0.53602,-0.59083 1.18744,-1.05249 1.95314,-1.38359 0.76506,-0.35467 1.61944,-0.53079 2.5639,-0.53079 1.0714,0 1.95332,0.14041 2.64204,0.42462 0.71447,0.28362 1.27509,0.68659 1.68323,1.20667 0.43358,0.52007 0.72705,1.14636 0.88068,1.879 0.17782,0.73353 0.26633,1.55038 0.26633,2.44871 l 0.0249,6.70212 c 0.0427,0.72945 0.10454,1.37712 0.34799,1.98515 0.35756,0.80368 0.84068,1.49193 1.45243,2.05947 0.63812,0.54396 1.37802,0.95489 2.21945,1.23852 0.86779,0.26004 1.81298,0.38924 2.8338,0.38924 1.9392,0 3.50659,-0.45785 4.70524,-1.38006 1.22442,-0.92162 2.01552,-2.09454 2.37215,-3.51382 l 0.0782,0 0,4.50464 0.7564,0 0.007,0 0,-18.22735 -0.76352,0 0,10.31856 c 0,1.01686 -0.15199,1.98653 -0.45809,2.90874 -0.3057,0.92251 -0.76579,1.73935 -1.37784,2.44871 -0.5866,0.68575 -1.32651,1.24124 -2.21944,1.66667 -0.89292,0.40214 -1.92662,0.60158 -3.10013,0.60158 -0.84204,0 -1.64553,-0.10508 -2.41121,-0.31849 -0.73962,-0.23674 -1.40529,-0.59192 -1.9922,-1.06512 -0.56114,-0.49618 -1.00699,-1.11037 -1.33877,-1.84359 -0.3318,-0.75683 -0.36221,-1.69284 -0.36221,-2.75659 l -0.007,-5.71838 c 0,-0.99297 -0.10527,-1.89271 -0.30895,-2.69641 -0.20422,-0.82816 -0.54858,-1.52321 -1.03338,-2.09132 -0.48448,-0.59055 -1.11937,-1.05251 -1.91051,-1.38359 -0.79082,-0.3311 -1.78754,-0.49541 -2.9865,-0.49541 -1.53139,0 -2.85853,0.38705 -3.98081,1.16775 -1.12231,0.7804 -1.87551,1.8126 -2.25851,3.08919 l -0.0746,0 c -0.33211,-1.34735 -1.02018,-2.40345 -2.06675,-3.15997 -1.02018,-0.7804 -2.29739,-1.14471 -3.82813,-1.09697 z"
       id="path4176"
       inkscape:connector-curvature="0"
       style="fill:#000000;fill-opacity:0.11764706" />
    <path
       style="fill:#000000;fill-opacity:0.23529412"
       inkscape:connector-curvature="0"
       id="path4172"
       d="m 420.43229,508.798 c -4.2479,0 -8.54756,2.5212 -8.54756,7.33553 l 0.72799,0 c 0,-4.36967 3.93425,-6.65612 7.81957,-6.65612 1.97249,0 3.79295,0.58221 5.12073,1.63838 1.49745,1.19156 2.28691,2.92667 2.28691,5.01774 l 0.73153,0 c 0,-2.29462 -0.88187,-4.21033 -2.54616,-5.53438 -1.46005,-1.16158 -3.44644,-1.80115 -5.59301,-1.80115 z m 0.0425,6.13947 c -0.48417,0 -0.87713,0.36515 -0.87713,0.81388 0,0.44843 0.39011,0.81035 0.87713,0.81035 0.48386,0 0.87358,-0.36192 0.87358,-0.81035 0,-0.44873 -0.38972,-0.81388 -0.87358,-0.81388 z m -24.78687,5.6193 c -0.76568,0 -1.49136,0.12918 -2.18037,0.38926 -0.66327,0.23674 -1.27416,0.58043 -1.83593,1.02973 -0.56146,0.44932 -1.03455,0.96911 -1.41692,1.56053 -0.383,0.59082 -0.66285,1.24041 -0.84161,1.94977 l -0.0782,0 0,-4.50465 -0.76349,0 0,18.22735 0.76349,0 0,-10.31858 c 0,-1.01743 0.14181,-1.9862 0.4226,-2.90873 0.30601,-0.9219 0.7285,-1.72459 1.26419,-2.40978 0.56147,-0.70963 1.23624,-1.26778 2.02769,-1.67023 0.79051,-0.42571 1.66856,-0.63694 2.63848,-0.63694 1.09654,0 1.9927,0.16415 2.6811,0.49541 0.68934,0.3305 1.22179,0.78125 1.60511,1.3482 0.38207,0.56785 0.63948,1.22833 0.76704,1.98516 0.15365,0.75681 0.23083,1.56157 0.23083,2.41332 l 0,11.70217 0.7635,0 0,-11.56062 c 0,-0.85145 0.14201,-1.65356 0.42258,-2.40979 0.28058,-0.77982 0.6862,-1.46863 1.22157,-2.05947 0.53602,-0.59083 1.18744,-1.05249 1.95314,-1.38359 0.76506,-0.35467 1.61944,-0.53079 2.5639,-0.53079 1.0714,0 1.95332,0.14041 2.64204,0.42462 0.71447,0.28362 1.27509,0.68659 1.68323,1.20667 0.43358,0.52007 0.72705,1.14636 0.88068,1.879 0.17782,0.73353 0.26633,1.55038 0.26633,2.44871 l 0.0249,6.70212 c 0.0427,0.72945 0.10454,1.37712 0.34799,1.98515 0.35756,0.80368 0.84068,1.49193 1.45243,2.05947 0.63812,0.54396 1.37802,0.95489 2.21945,1.23852 0.86779,0.26004 1.81298,0.38924 2.8338,0.38924 1.9392,0 3.50659,-0.45785 4.70524,-1.38006 1.22442,-0.92162 2.01552,-2.09454 2.37215,-3.51382 l 0.0782,0 0,4.50464 0.7564,0 0.007,0 0,-18.22735 -0.76352,0 0,10.31856 c 0,1.01686 -0.15199,1.98653 -0.45809,2.90874 -0.3057,0.92251 -0.76579,1.73935 -1.37784,2.44871 -0.5866,0.68575 -1.32651,1.24124 -2.21944,1.66667 -0.89292,0.40214 -1.92662,0.60158 -3.10013,0.60158 -0.84204,0 -1.64553,-0.10508 -2.41121,-0.31849 -0.73962,-0.23674 -1.40529,-0.59192 -1.9922,-1.06512 -0.56114,-0.49618 -1.00699,-1.11037 -1.33877,-1.84359 -0.3318,-0.75683 -0.36221,-1.69284 -0.36221,-2.75659 l -0.007,-5.71838 c 0,-0.99297 -0.10527,-1.89271 -0.30895,-2.69641 -0.20422,-0.82816 -0.54858,-1.52321 -1.03338,-2.09132 -0.48448,-0.59055 -1.11937,-1.05251 -1.91051,-1.38359 -0.79082,-0.3311 -1.78754,-0.49541 -2.9865,-0.49541 -1.53139,0 -2.85853,0.38705 -3.98081,1.16775 -1.12231,0.7804 -1.87551,1.8126 -2.25851,3.08919 l -0.0746,0 c -0.33211,-1.34735 -1.02018,-2.40345 -2.06675,-3.15997 -1.02018,-0.7804 -2.29739,-1.14471 -3.82813,-1.09697 z" />
    <path
       inkscape:connector-curvature="0"
       style="fill:#000000;fill-opacity:1;stroke:none"
       d="m 384.57143,544.79799 0,1.0625 c 0,1.0773 0.86022,1.9375 1.9375,1.9375 l 44.125,0 c 1.07728,0 1.9375,-0.8602 1.9375,-1.9375 l 0,-1.0625 c 0,1.0773 -0.86022,1.9375 -1.9375,1.9375 l -44.125,0 C 385.43165,546.73549 384.57143,545.87529 384.57143,544.79799 Z"
       id="rect846" />
    <path
       inkscape:connector-curvature="0"
       style="fill:#ffffff;fill-opacity:0.5372549;stroke:none"
       d="m 387.10268,500.45429 c -0.91709,0 -1.67115,0.6395 -1.84375,1.5 0.33561,-0.2799 0.77451,-0.4375 1.25,-0.4375 l 44.125,0 c 0.47549,0 0.91439,0.1576 1.25,0.4375 -0.1726,-0.8605 -0.92666,-1.5 -1.84375,-1.5 L 387.10268,500.45429 Z"
       id="path7515" />
    <path
       inkscape:connector-curvature="0"
       style="fill:#000000;fill-opacity:0.39215686;stroke:none"
       d="m 386.50893,499.79799 c -1.07728,0 -1.9375,0.8602 -1.9375,1.9375 l 0,43.0625 c 0,0.7934 0.48002,1.449 1.15625,1.75 -0.30934,-0.3333 -0.5,-0.7824 -0.5,-1.2812 l 0,-42.9375 c 0,-1.0482 0.8269,-1.875 1.875,-1.875 l 42.9375,0 c 1.0481,0 1.875,0.8268 1.875,1.875 l 0,42.9375 c 0,0.4988 -0.19066,0.9479 -0.5,1.2812 0.67623,-0.301 1.15625,-0.9566 1.15625,-1.75 l 0,-43.0625 c 0,-1.0773 -0.86022,-1.9375 -1.9375,-1.9375 L 386.50893,499.79799 Z"
       id="rect4280" />
    <path
       d="m 420.43229,508.398 c -4.2479,0 -8.54756,2.5212 -8.54756,7.33553 l 0.72799,0 c 0,-4.36967 3.93425,-6.65612 7.81957,-6.65612 1.97249,0 3.79295,0.58221 5.12073,1.63838 1.49745,1.19156 2.28691,2.92667 2.28691,5.01774 l 0.73153,0 c 0,-2.29462 -0.88187,-4.21033 -2.54616,-5.53438 -1.46005,-1.16158 -3.44644,-1.80115 -5.59301,-1.80115 z m 0.0425,6.13947 c -0.48417,0 -0.87713,0.36515 -0.87713,0.81388 0,0.44843 0.39011,0.81035 0.87713,0.81035 0.48386,0 0.87358,-0.36192 0.87358,-0.81035 0,-0.44873 -0.38972,-0.81388 -0.87358,-0.81388 z m -24.78687,5.6193 c -0.76568,0 -1.49136,0.12918 -2.18037,0.38926 -0.66327,0.23674 -1.27416,0.58043 -1.83593,1.02973 -0.56146,0.44932 -1.03455,0.96911 -1.41692,1.56053 -0.383,0.59082 -0.66285,1.24041 -0.84161,1.94977 l -0.0782,0 0,-4.50465 -0.76349,0 0,18.22735 0.76349,0 0,-10.31858 c 0,-1.01743 0.14181,-1.9862 0.4226,-2.90873 0.30601,-0.9219 0.7285,-1.72459 1.26419,-2.40978 0.56147,-0.70963 1.23624,-1.26778 2.02769,-1.67023 0.79051,-0.42571 1.66856,-0.63694 2.63848,-0.63694 1.09654,0 1.9927,0.16415 2.6811,0.49541 0.68934,0.3305 1.22179,0.78125 1.60511,1.3482 0.38207,0.56785 0.63948,1.22833 0.76704,1.98516 0.15365,0.75681 0.23083,1.56157 0.23083,2.41332 l 0,11.70217 0.7635,0 0,-11.56062 c 0,-0.85145 0.14201,-1.65356 0.42258,-2.40979 0.28058,-0.77982 0.6862,-1.46863 1.22157,-2.05947 0.53602,-0.59083 1.18744,-1.05249 1.95314,-1.38359 0.76506,-0.35467 1.61944,-0.53079 2.5639,-0.53079 1.0714,0 1.95332,0.14041 2.64204,0.42462 0.71447,0.28362 1.27509,0.68659 1.68323,1.20667 0.43358,0.52007 0.72705,1.14636 0.88068,1.879 0.17782,0.73353 0.26633,1.55038 0.26633,2.44871 l 0.0249,6.70212 c 0.0427,0.72945 0.10454,1.37712 0.34799,1.98515 0.35756,0.80368 0.84068,1.49193 1.45243,2.05947 0.63812,0.54396 1.37802,0.95489 2.21945,1.23852 0.86779,0.26004 1.81298,0.38924 2.8338,0.38924 1.9392,0 3.50659,-0.45785 4.70524,-1.38006 1.22442,-0.92162 2.01552,-2.09454 2.37215,-3.51382 l 0.0782,0 0,4.50464 0.7564,0 0.007,0 0,-18.22735 -0.76352,0 0,10.31856 c 0,1.01686 -0.15199,1.98653 -0.45809,2.90874 -0.3057,0.92251 -0.76579,1.73935 -1.37784,2.44871 -0.5866,0.68575 -1.32651,1.24124 -2.21944,1.66667 -0.89292,0.40214 -1.92662,0.60158 -3.10013,0.60158 -0.84204,0 -1.64553,-0.10508 -2.41121,-0.31849 -0.73962,-0.23674 -1.40529,-0.59192 -1.9922,-1.06512 -0.56114,-0.49618 -1.00699,-1.11037 -1.33877,-1.84359 -0.3318,-0.75683 -0.36221,-1.69284 -0.36221,-2.75659 l -0.007,-5.71838 c 0,-0.99297 -0.10527,-1.89271 -0.30895,-2.69641 -0.20422,-0.82816 -0.54858,-1.52321 -1.03338,-2.09132 -0.48448,-0.59055 -1.11937,-1.05251 -1.91051,-1.38359 -0.79082,-0.3311 -1.78754,-0.49541 -2.9865,-0.49541 -1.53139,0 -2.85853,0.38705 -3.98081,1.16775 -1.12231,0.7804 -1.87551,1.8126 -2.25851,3.08919 l -0.0746,0 c -0.33211,-1.34735 -1.02018,-2.40345 -2.06675,-3.15997 -1.02018,-0.7804 -2.29739,-1.14471 -3.82813,-1.09697 z"
       id="path22"
       inkscape:connector-curvature="0"
       style="fill-opacity:1;fill:url(#linearGradient4170)" />
    <path
       id="path4185"
       transform="translate(384.57143,499.798)"
       d="M 35.861328 8.5996094 C 34.268366 8.5996094 32.667113 8.9552834 31.289062 9.6523438 C 31.204985 9.6948728 31.127293 9.7459393 31.044922 9.7910156 C 29.276321 10.895692 28.041016 12.687277 28.041016 15.134766 L 27.359375 15.134766 C 27.332053 15.395098 27.3125 15.660166 27.3125 15.935547 L 28.041016 15.935547 C 28.041016 11.565877 31.976008 9.2792969 35.861328 9.2792969 C 37.833818 9.2792969 39.654642 9.8617987 40.982422 10.917969 C 42.479872 12.109529 43.267578 13.844477 43.267578 15.935547 L 44 15.935547 C 44 15.662694 43.985709 15.396546 43.960938 15.134766 L 43.267578 15.134766 C 43.267578 13.043696 42.479872 11.308747 40.982422 10.117188 C 40.816449 9.9851662 40.641641 9.8611392 40.460938 9.7441406 C 40.398011 9.7033982 40.330229 9.6677924 40.265625 9.6289062 C 40.261786 9.6268896 40.25775 9.6250579 40.253906 9.6230469 C 38.981027 8.9570051 37.466409 8.5996094 35.861328 8.5996094 z M 35.15625 15.152344 C 35.081005 15.272396 35.025391 15.404118 35.025391 15.552734 C 35.025391 16.001164 35.417277 16.363281 35.904297 16.363281 C 36.388157 16.363281 36.777344 16.001164 36.777344 15.552734 C 36.777344 15.404118 36.723196 15.272396 36.648438 15.152344 C 36.497472 15.393728 36.227905 15.564453 35.904297 15.564453 C 35.578718 15.564453 35.307611 15.393552 35.15625 15.152344 z M 11.117188 20.359375 C 10.351508 20.359375 9.6245569 20.487967 8.9355469 20.748047 C 8.626841 20.858233 8.3332159 20.99791 8.046875 21.154297 C 8.0010982 21.182533 7.9511572 21.204978 7.90625 21.234375 C 7.3562591 21.594402 6.8722744 22.041996 6.4511719 22.574219 C 5.9154819 23.259409 5.4915569 24.062475 5.1855469 24.984375 C 4.9047569 25.906905 4.7636719 26.875148 4.7636719 27.892578 L 4.7636719 28.691406 C 4.7636719 27.673976 4.9047569 26.705733 5.1855469 25.783203 C 5.4915569 24.861303 5.9154819 24.058237 6.4511719 23.373047 C 7.0126419 22.663417 7.6870656 22.105575 8.4785156 21.703125 C 9.2690256 21.277415 10.147267 21.066406 11.117188 21.066406 C 12.213728 21.066406 13.108475 21.23124 13.796875 21.5625 C 14.486215 21.893 15.019024 22.343206 15.402344 22.910156 C 15.784414 23.478006 16.042362 24.137701 16.169922 24.894531 C 16.323572 25.651341 16.400391 26.456844 16.400391 27.308594 L 16.400391 26.507812 C 16.400391 25.656062 16.323572 24.852513 16.169922 24.095703 C 16.042362 23.338873 15.784414 22.677225 15.402344 22.109375 C 15.138759 21.71952 14.799716 21.389978 14.392578 21.111328 C 13.473192 20.580555 12.388122 20.319738 11.117188 20.359375 z M 23.326172 20.359375 C 22.343976 20.359375 21.454618 20.537245 20.640625 20.857422 C 19.92881 21.18389 19.315194 21.623239 18.808594 22.181641 C 18.273224 22.772481 17.866517 23.460414 17.585938 24.240234 C 17.305368 24.996464 17.164062 25.798941 17.164062 26.650391 L 17.164062 27.449219 C 17.164062 26.597769 17.305368 25.797246 17.585938 25.041016 C 17.866517 24.261196 18.273224 23.571309 18.808594 22.980469 C 19.344614 22.389639 19.996019 21.928756 20.761719 21.597656 C 21.526779 21.242986 22.379759 21.066406 23.324219 21.066406 C 24.395619 21.066406 25.278077 21.206024 25.966797 21.490234 C 26.681267 21.773854 27.242251 22.177186 27.650391 22.697266 C 28.083971 23.217336 28.37762 23.843532 28.53125 24.576172 C 28.70907 25.309702 28.796875 26.127061 28.796875 27.025391 L 28.822266 33.728516 C 28.864966 34.457966 28.926472 35.104861 29.169922 35.712891 C 29.527482 36.516571 30.011297 37.203944 30.623047 37.771484 C 31.261167 38.315444 32.000367 38.728089 32.841797 39.011719 C 33.709587 39.271759 34.654961 39.400391 35.675781 39.400391 C 37.614981 39.400391 39.182209 38.941741 40.380859 38.019531 C 41.605279 37.097911 42.397276 35.925139 42.753906 34.505859 L 42.832031 34.505859 L 42.832031 33.707031 L 42.753906 33.707031 C 42.397276 35.126311 41.605279 36.299083 40.380859 37.220703 C 39.962364 37.542683 39.496805 37.804624 38.988281 38.013672 C 38.916505 38.050648 38.849262 38.091758 38.775391 38.126953 C 37.882471 38.529093 36.849291 38.728516 35.675781 38.728516 C 34.833741 38.728516 34.031305 38.623566 33.265625 38.410156 C 32.904906 38.294696 32.56131 38.148318 32.236328 37.976562 C 32.22773 37.972791 32.219512 37.968646 32.210938 37.964844 C 31.625966 37.705449 31.096203 37.375994 30.623047 36.972656 C 30.011297 36.405116 29.527482 35.715789 29.169922 34.912109 C 28.926472 34.304079 28.864966 33.657184 28.822266 32.927734 L 28.796875 26.224609 C 28.796875 25.326279 28.70907 24.510874 28.53125 23.777344 C 28.37762 23.044704 28.083971 22.418508 27.650391 21.898438 C 27.355268 21.522372 26.978529 21.207832 26.523438 20.955078 C 26.452135 20.921805 26.386534 20.884498 26.3125 20.853516 C 25.52168 20.522416 24.525132 20.359375 23.326172 20.359375 z M 4 38.210938 L 4 39.011719 L 4.7636719 39.011719 L 4.7636719 38.210938 L 4 38.210938 z M 16.400391 38.210938 L 16.400391 39.011719 L 17.164062 39.011719 L 17.164062 38.210938 L 16.400391 38.210938 z M 42.832031 38.210938 L 42.832031 39.011719 L 43.587891 39.011719 L 43.595703 39.011719 L 43.595703 38.210938 L 43.587891 38.210938 L 42.832031 38.210938 z "
       style="fill-opacity:0.3137255;fill:#8e2acc" />
    <path
       style="fill-opacity:0.23529412;fill:#ffffff"
       d="M 35.861328 8.5996094 C 31.613428 8.5996094 27.3125 11.121217 27.3125 15.935547 L 27.335938 15.935547 C 27.570888 11.385924 31.734649 9 35.861328 9 C 38.007898 9 39.993075 9.6392012 41.453125 10.800781 C 43.018465 12.04611 43.882171 13.820438 43.980469 15.935547 L 44 15.935547 C 44 13.640927 43.117415 11.724441 41.453125 10.400391 C 39.993075 9.2388106 38.007898 8.5996094 35.861328 8.5996094 z M 35.904297 14.740234 C 35.420127 14.740234 35.025391 15.104004 35.025391 15.552734 C 35.025391 15.624029 35.051769 15.688092 35.070312 15.753906 C 35.1683 15.403927 35.496392 15.138672 35.904297 15.138672 C 36.311999 15.138672 36.637174 15.403851 36.734375 15.753906 C 36.752863 15.688135 36.777344 15.623976 36.777344 15.552734 C 36.777344 15.104004 36.388157 14.740234 35.904297 14.740234 z M 11.117188 20.359375 C 10.351508 20.359375 9.6245569 20.487967 8.9355469 20.748047 C 8.2722769 20.984787 7.6613794 21.328044 7.0996094 21.777344 C 6.5381494 22.226664 6.0659637 22.746471 5.6835938 23.337891 C 5.3005938 23.928711 5.0205569 24.577749 4.8417969 25.287109 L 4.7636719 25.287109 L 4.7636719 25.6875 L 4.8417969 25.6875 C 5.0205569 24.97814 5.3005938 24.329101 5.6835938 23.738281 C 6.0659637 23.146861 6.5381494 22.627054 7.0996094 22.177734 C 7.6613794 21.728434 8.2722769 21.385178 8.9355469 21.148438 C 9.6245569 20.888357 10.351508 20.757812 11.117188 20.757812 C 12.647927 20.710073 13.925133 21.075069 14.945312 21.855469 C 15.991883 22.611989 16.679609 23.668275 17.011719 25.015625 L 17.085938 25.015625 C 17.468937 23.739035 18.22144 22.706181 19.34375 21.925781 C 20.46603 21.145081 21.794782 20.757812 23.326172 20.757812 C 24.525132 20.757812 25.52168 20.922806 26.3125 21.253906 C 27.10364 21.584986 27.738176 22.048122 28.222656 22.638672 C 28.707456 23.206782 29.051639 23.900356 29.255859 24.728516 C 29.459539 25.532216 29.564453 26.432811 29.564453 27.425781 L 29.564453 27.025391 C 29.564453 26.032421 29.459539 25.131825 29.255859 24.328125 C 29.051639 23.499965 28.707456 22.806391 28.222656 22.238281 C 27.738176 21.647731 27.10364 21.184596 26.3125 20.853516 C 25.52168 20.522416 24.525132 20.359375 23.326172 20.359375 C 21.794782 20.359375 20.46603 20.746644 19.34375 21.527344 C 18.22144 22.307744 17.468937 23.338644 17.085938 24.615234 L 17.011719 24.615234 C 16.679609 23.267884 15.991883 22.211598 14.945312 21.455078 C 13.925133 20.674678 12.647927 20.311635 11.117188 20.359375 z M 4 20.783203 L 4 21.183594 L 4.7636719 21.183594 L 4.7636719 20.783203 L 4 20.783203 z M 42.832031 20.783203 L 42.832031 21.183594 L 43.595703 21.183594 L 43.595703 20.783203 L 42.832031 20.783203 z M 42.832031 31.101562 C 42.832031 32.118422 42.679147 33.087556 42.373047 34.009766 C 42.067347 34.932276 41.608144 35.749624 40.996094 36.458984 C 40.409494 37.144734 39.668321 37.701523 38.775391 38.126953 C 37.882471 38.529093 36.849291 38.728516 35.675781 38.728516 C 34.833741 38.728516 34.031305 38.623566 33.265625 38.410156 C 32.526005 38.173416 31.860348 37.81695 31.273438 37.34375 C 30.712297 36.84757 30.265374 36.23322 29.933594 35.5 C 29.601794 34.74317 29.572266 33.807891 29.572266 32.744141 L 29.572266 33.144531 C 29.572266 34.208281 29.601794 35.143561 29.933594 35.900391 C 30.265374 36.633611 30.712297 37.247961 31.273438 37.744141 C 31.860348 38.217341 32.526005 38.571854 33.265625 38.808594 C 34.031305 39.022004 34.833741 39.126953 35.675781 39.126953 C 36.849291 39.126953 37.882471 38.927531 38.775391 38.525391 C 39.668321 38.099961 40.409494 37.545125 40.996094 36.859375 C 41.608144 36.150015 42.067347 35.332666 42.373047 34.410156 C 42.679147 33.487946 42.832031 32.518813 42.832031 31.501953 L 42.832031 31.101562 z "
       transform="translate(384.57143,499.798)"
       id="path4187" />
  </g>
</svg>
