<?xml version="1.0" encoding="UTF-8" standalone="no"?>
<!-- Created with Inkscape (http://www.inkscape.org/) -->

<svg
   xmlns:dc="http://purl.org/dc/elements/1.1/"
   xmlns:cc="http://creativecommons.org/ns#"
   xmlns:rdf="http://www.w3.org/1999/02/22-rdf-syntax-ns#"
   xmlns:svg="http://www.w3.org/2000/svg"
   xmlns="http://www.w3.org/2000/svg"
   xmlns:xlink="http://www.w3.org/1999/xlink"
   xmlns:sodipodi="http://sodipodi.sourceforge.net/DTD/sodipodi-0.dtd"
   xmlns:inkscape="http://www.inkscape.org/namespaces/inkscape"
   width="48"
   height="48"
   id="svg5453"
   version="1.1"
   inkscape:version="0.91+devel r"
   sodipodi:docname="nemiver.svg"
   viewBox="0 0 48 48">
  <defs
     id="defs5455">
    <linearGradient
       id="linearGradient5261"
       inkscape:collect="always">
      <stop
         id="stop5263"
         offset="0"
         style="stop-color:#1e6ccd;stop-opacity:1" />
      <stop
         id="stop5265"
         offset="1"
         style="stop-color:#2faff9;stop-opacity:1" />
    </linearGradient>
    <linearGradient
       gradientTransform="translate(384.57139,504.56412)"
       gradientUnits="userSpaceOnUse"
       y2="-1004.6837"
       x2="26.25"
       y1="-1052.5408"
       x1="26.25"
       id="linearGradient867-1"
       xlink:href="#linearGradient1373-2"
       inkscape:collect="always" />
    <linearGradient
       id="linearGradient1373-2"
       inkscape:collect="always">
      <stop
         id="stop1375-3"
         offset="0"
         style="stop-color:#282827;stop-opacity:1" />
      <stop
         id="stop1377-7"
         offset="1"
         style="stop-color:#292929;stop-opacity:1" />
    </linearGradient>
    <linearGradient
       inkscape:collect="always"
       xlink:href="#linearGradient5261"
       id="linearGradient4227"
       x1="409.23767"
       y1="539.22852"
       x2="409.23767"
       y2="508.30887"
       gradientUnits="userSpaceOnUse" />
  </defs>
  <sodipodi:namedview
     id="base"
     pagecolor="#ffffff"
     bordercolor="#666666"
     borderopacity="1.0"
     inkscape:pageopacity="0"
     inkscape:pageshadow="2"
     inkscape:zoom="6.1060716"
     inkscape:cx="3.6321806"
     inkscape:cy="18.821498"
     inkscape:document-units="px"
     inkscape:current-layer="layer1"
     showgrid="false"
     fit-margin-top="0"
     fit-margin-left="0"
     fit-margin-right="0"
     fit-margin-bottom="0"
     inkscape:window-width="1366"
     inkscape:window-height="670"
     inkscape:window-x="-4"
     inkscape:window-y="29"
     inkscape:window-maximized="1"
     inkscape:showpageshadow="false"
     borderlayer="true" />
  <metadata
     id="metadata5458">
    <rdf:RDF>
      <cc:Work
         rdf:about="">
        <dc:format>image/svg+xml</dc:format>
        <dc:type
           rdf:resource="http://purl.org/dc/dcmitype/StillImage" />
        <dc:title />
      </cc:Work>
    </rdf:RDF>
  </metadata>
  <g
     inkscape:label="Capa 1"
     inkscape:groupmode="layer"
     id="layer1"
     transform="translate(-384.57143,-499.798)">
    <rect
       transform="scale(1,-1)"
       ry="1.9445436"
       y="-547.79797"
       x="384.57144"
       height="48"
       width="48"
       id="rect2991-1-0"
       style="fill:url(#linearGradient867-1);fill-opacity:1;stroke:none" />
    <path
       d="m 417.50143,535.118 q 0.44,0.44 0.396,0.968 -0.044,0.528 -0.396,0.88 -1.408,1.408 -3.3,2.42 -1.892,1.012 -4.884,1.012 -2.156,0 -4.004,-0.748 -1.848,-0.792 -3.212,-2.156 -1.32,-1.408 -2.112,-3.344 -0.748,-1.98 -0.748,-4.312 l 0,-9.68 q 0,-2.288 0.748,-4.224 0.792,-1.98 2.112,-3.344 1.364,-1.408 3.212,-2.2 1.848,-0.792 4.004,-0.792 1.452,0 2.64,0.308 1.188,0.264 2.156,0.704 0.968,0.44 1.672,1.012 0.748,0.528 1.232,1.012 0.924,0.924 0,1.848 l -1.012,1.012 q -0.44,0.44 -0.836,0.484 -0.396,0 -0.924,-0.484 -0.572,-0.528 -1.76,-1.232 -1.144,-0.704 -3.168,-0.704 -1.408,0 -2.508,0.528 -1.056,0.484 -1.848,1.408 -0.748,0.88 -1.144,2.112 -0.396,1.188 -0.396,2.552 l 0,9.68 q 0,2.948 1.54,4.796 1.584,1.804 4.356,1.804 1.936,0 3.256,-0.704 1.364,-0.748 2.2,-1.496 0.396,-0.352 0.88,-0.396 0.528,-0.044 0.968,0.396 l 0.88,0.88 z"
       style="font-style:normal;font-variant:normal;font-weight:normal;font-stretch:normal;font-size:medium;line-height:125%;font-family:SciFly;-inkscape-font-specification:SciFly;letter-spacing:0px;word-spacing:0px;fill:#000000;fill-opacity:0.05882353;stroke:none;stroke-width:1.10000002px;stroke-linecap:butt;stroke-linejoin:miter;stroke-opacity:1"
       id="path4237"
       inkscape:connector-curvature="0" />
    <path
       inkscape:connector-curvature="0"
       style="fill:#000000;fill-opacity:1;stroke:none"
       d="m 384.57143,544.79799 0,1.0625 c 0,1.0773 0.86022,1.9375 1.9375,1.9375 l 44.125,0 c 1.07728,0 1.9375,-0.8602 1.9375,-1.9375 l 0,-1.0625 c 0,1.0773 -0.86022,1.9375 -1.9375,1.9375 l -44.125,0 c -1.07728,0 -1.9375,-0.8602 -1.9375,-1.9375 z"
       id="rect846" />
    <path
       inkscape:connector-curvature="0"
       style="fill:#ffffff;fill-opacity:0.5372549;stroke:none"
       d="m 387.10268,500.45429 c -0.91709,0 -1.67115,0.6395 -1.84375,1.5 0.33561,-0.2799 0.77451,-0.4375 1.25,-0.4375 l 44.125,0 c 0.47549,0 0.91439,0.1576 1.25,0.4375 -0.1726,-0.8605 -0.92666,-1.5 -1.84375,-1.5 l -42.9375,0 z"
       id="path7515" />
    <path
       inkscape:connector-curvature="0"
       style="fill:#000000;fill-opacity:0.39215686;stroke:none"
       d="m 386.50893,499.79799 c -1.07728,0 -1.9375,0.8602 -1.9375,1.9375 l 0,43.0625 c 0,0.7934 0.48002,1.449 1.15625,1.75 -0.30934,-0.3333 -0.5,-0.7824 -0.5,-1.2812 l 0,-42.9375 c 0,-1.0482 0.8269,-1.875 1.875,-1.875 l 42.9375,0 c 1.0481,0 1.875,0.8268 1.875,1.875 l 0,42.9375 c 0,0.4988 -0.19066,0.9479 -0.5,1.2812 0.67623,-0.301 1.15625,-0.9566 1.15625,-1.75 l 0,-43.0625 c 0,-1.0773 -0.86022,-1.9375 -1.9375,-1.9375 l -44.125,0 z"
       id="rect4280" />
    <path
       inkscape:connector-curvature="0"
       id="path4233"
       style="font-style:normal;font-variant:normal;font-weight:normal;font-stretch:normal;font-size:medium;line-height:125%;font-family:SciFly;-inkscape-font-specification:SciFly;letter-spacing:0px;word-spacing:0px;fill:#000000;fill-opacity:0.11764706;stroke:none;stroke-width:1.10000002px;stroke-linecap:butt;stroke-linejoin:miter;stroke-opacity:1"
       d="m 417.50143,534.718 q 0.44,0.44 0.396,0.968 -0.044,0.528 -0.396,0.88 -1.408,1.408 -3.3,2.42 -1.892,1.012 -4.884,1.012 -2.156,0 -4.004,-0.748 -1.848,-0.792 -3.212,-2.156 -1.32,-1.408 -2.112,-3.344 -0.748,-1.98 -0.748,-4.312 l 0,-9.68 q 0,-2.288 0.748,-4.224 0.792,-1.98 2.112,-3.344 1.364,-1.408 3.212,-2.2 1.848,-0.792 4.004,-0.792 1.452,0 2.64,0.308 1.188,0.264 2.156,0.704 0.968,0.44 1.672,1.012 0.748,0.528 1.232,1.012 0.924,0.924 0,1.848 l -1.012,1.012 q -0.44,0.44 -0.836,0.484 -0.396,0 -0.924,-0.484 -0.572,-0.528 -1.76,-1.232 -1.144,-0.704 -3.168,-0.704 -1.408,0 -2.508,0.528 -1.056,0.484 -1.848,1.408 -0.748,0.88 -1.144,2.112 -0.396,1.188 -0.396,2.552 l 0,9.68 q 0,2.948 1.54,4.796 1.584,1.804 4.356,1.804 1.936,0 3.256,-0.704 1.364,-0.748 2.2,-1.496 0.396,-0.352 0.88,-0.396 0.528,-0.044 0.968,0.396 l 0.88,0.88 z" />
    <path
       d="m 417.50143,534.318 q 0.44,0.44 0.396,0.968 -0.044,0.528 -0.396,0.88 -1.408,1.408 -3.3,2.42 -1.892,1.012 -4.884,1.012 -2.156,0 -4.004,-0.748 -1.848,-0.792 -3.212,-2.156 -1.32,-1.408 -2.112,-3.344 -0.748,-1.98 -0.748,-4.312 l 0,-9.68 q 0,-2.288 0.748,-4.224 0.792,-1.98 2.112,-3.344 1.364,-1.408 3.212,-2.2 1.848,-0.792 4.004,-0.792 1.452,0 2.64,0.308 1.188,0.264 2.156,0.704 0.968,0.44 1.672,1.012 0.748,0.528 1.232,1.012 0.924,0.924 0,1.848 l -1.012,1.012 q -0.44,0.44 -0.836,0.484 -0.396,0 -0.924,-0.484 -0.572,-0.528 -1.76,-1.232 -1.144,-0.704 -3.168,-0.704 -1.408,0 -2.508,0.528 -1.056,0.484 -1.848,1.408 -0.748,0.88 -1.144,2.112 -0.396,1.188 -0.396,2.552 l 0,9.68 q 0,2.948 1.54,4.796 1.584,1.804 4.356,1.804 1.936,0 3.256,-0.704 1.364,-0.748 2.2,-1.496 0.396,-0.352 0.88,-0.396 0.528,-0.044 0.968,0.396 l 0.88,0.88 z"
       style="font-style:normal;font-variant:normal;font-weight:normal;font-stretch:normal;font-size:medium;line-height:125%;font-family:SciFly;-inkscape-font-specification:SciFly;letter-spacing:0px;word-spacing:0px;fill:#000000;fill-opacity:0.23529412;stroke:none;stroke-width:1.10000002px;stroke-linecap:butt;stroke-linejoin:miter;stroke-opacity:1"
       id="path4229"
       inkscape:connector-curvature="0" />
    <path
       inkscape:connector-curvature="0"
       id="path4218"
       style="font-style:normal;font-variant:normal;font-weight:normal;font-stretch:normal;font-size:medium;line-height:125%;font-family:SciFly;-inkscape-font-specification:SciFly;letter-spacing:0px;word-spacing:0px;fill:url(#linearGradient4227);fill-opacity:1;stroke:none;stroke-width:1.10000002px;stroke-linecap:butt;stroke-linejoin:miter;stroke-opacity:1"
       d="m 417.50143,533.918 q 0.44,0.44 0.396,0.968 -0.044,0.528 -0.396,0.88 -1.408,1.408 -3.3,2.42 -1.892,1.012 -4.884,1.012 -2.156,0 -4.004,-0.748 -1.848,-0.792 -3.212,-2.156 -1.32,-1.408 -2.112,-3.344 -0.748,-1.98 -0.748,-4.312 l 0,-9.68 q 0,-2.288 0.748,-4.224 0.792,-1.98 2.112,-3.344 1.364,-1.408 3.212,-2.2 1.848,-0.792 4.004,-0.792 1.452,0 2.64,0.308 1.188,0.264 2.156,0.704 0.968,0.44 1.672,1.012 0.748,0.528 1.232,1.012 0.924,0.924 0,1.848 l -1.012,1.012 q -0.44,0.44 -0.836,0.484 -0.396,0 -0.924,-0.484 -0.572,-0.528 -1.76,-1.232 -1.144,-0.704 -3.168,-0.704 -1.408,0 -2.508,0.528 -1.056,0.484 -1.848,1.408 -0.748,0.88 -1.144,2.112 -0.396,1.188 -0.396,2.552 l 0,9.68 q 0,2.948 1.54,4.796 1.584,1.804 4.356,1.804 1.936,0 3.256,-0.704 1.364,-0.748 2.2,-1.496 0.396,-0.352 0.88,-0.396 0.528,-0.044 0.968,0.396 l 0.88,0.88 z" />
    <path
       style="font-style:normal;font-variant:normal;font-weight:normal;font-stretch:normal;font-size:medium;line-height:125%;font-family:SciFly;-inkscape-font-specification:SciFly;letter-spacing:0px;word-spacing:0px;fill:#0d305a;fill-opacity:0.3137255;stroke:none;stroke-width:1.10000002px;stroke-linecap:butt;stroke-linejoin:miter;stroke-opacity:1"
       d="M 24.746094 11.759766 C 23.807427 11.759766 22.971615 11.935109 22.238281 12.287109 C 21.534281 12.609776 20.918625 13.079313 20.390625 13.695312 C 19.891958 14.281979 19.510094 14.98726 19.246094 15.808594 C 18.982094 16.600594 18.849609 17.450042 18.849609 18.359375 L 18.849609 19.160156 C 18.849609 18.250823 18.982094 17.399422 19.246094 16.607422 C 19.510094 15.786089 19.891958 15.08276 20.390625 14.496094 C 20.918625 13.880094 21.534281 13.410557 22.238281 13.087891 C 22.971615 12.735891 23.807427 12.560547 24.746094 12.560547 C 26.095427 12.560547 27.151396 12.794339 27.914062 13.263672 C 28.706062 13.733005 29.292495 14.144094 29.673828 14.496094 C 30.025828 14.81876 30.333656 14.980469 30.597656 14.980469 C 30.861656 14.951135 31.14026 14.789427 31.433594 14.496094 L 32.445312 13.484375 C 32.886417 13.043271 33.007032 12.60126 32.816406 12.160156 C 32.740803 12.334898 32.620054 12.508852 32.445312 12.683594 L 31.433594 13.695312 C 31.14026 13.988646 30.861656 14.150354 30.597656 14.179688 C 30.333656 14.179688 30.025828 14.017979 29.673828 13.695312 C 29.292495 13.343312 28.706062 12.934177 27.914062 12.464844 C 27.151396 11.99551 26.095427 11.759766 24.746094 11.759766 z M 14.669922 28.039062 L 14.669922 28.839844 C 14.669922 30.39451 14.919302 31.832344 15.417969 33.152344 C 15.945969 34.44301 16.649297 35.557427 17.529297 36.496094 C 18.43863 37.405427 19.510187 38.124344 20.742188 38.652344 C 21.974188 39.15101 23.30876 39.400391 24.746094 39.400391 C 26.74076 39.400391 28.369526 39.063339 29.630859 38.388672 C 30.892193 37.714005 31.991021 36.907417 32.929688 35.96875 C 33.164354 35.734083 33.296839 35.439891 33.326172 35.087891 C 33.34061 34.914638 33.31373 34.748884 33.25 34.589844 C 33.185713 34.806588 33.090993 35.006663 32.929688 35.167969 C 31.991021 36.106635 30.892193 36.913224 29.630859 37.587891 C 28.369526 38.262557 26.74076 38.599609 24.746094 38.599609 C 23.30876 38.599609 21.974188 38.350229 20.742188 37.851562 C 19.510187 37.323562 18.43863 36.604646 17.529297 35.695312 C 16.649297 34.756646 15.945969 33.642229 15.417969 32.351562 C 14.919302 31.031562 14.669922 29.593729 14.669922 28.039062 z "
       transform="translate(384.57143,499.798)"
       id="path4241" />
    <path
       style="font-style:normal;font-variant:normal;font-weight:normal;font-stretch:normal;font-size:medium;line-height:125%;font-family:SciFly;-inkscape-font-specification:SciFly;letter-spacing:0px;word-spacing:0px;fill:#ffffff;fill-opacity:0.23529412;stroke:none;stroke-width:1.10000002px;stroke-linecap:butt;stroke-linejoin:miter;stroke-opacity:1"
       d="M 24.746094 8.5996094 C 23.30876 8.5996094 21.974188 8.8645781 20.742188 9.3925781 C 19.510187 9.9205781 18.43863 10.65313 17.529297 11.591797 C 16.649297 12.50113 15.945969 13.615547 15.417969 14.935547 C 14.919302 16.226214 14.669922 17.634823 14.669922 19.160156 L 14.669922 19.560547 C 14.669922 18.035214 14.919302 16.626604 15.417969 15.335938 C 15.945969 14.015937 16.649297 12.901521 17.529297 11.992188 C 18.43863 11.053521 19.510187 10.320969 20.742188 9.7929688 C 21.974188 9.2649688 23.30876 9 24.746094 9 C 25.714094 9 26.594719 9.1032604 27.386719 9.3085938 C 28.178719 9.4845938 28.897635 9.7183854 29.542969 10.011719 C 30.188302 10.305052 30.74551 10.642104 31.214844 11.023438 C 31.71351 11.375438 32.122646 11.71249 32.445312 12.035156 C 32.686664 12.276508 32.830586 12.518414 32.882812 12.759766 C 32.963759 12.385204 32.819875 12.011281 32.445312 11.636719 C 32.122646 11.314052 31.71351 10.975047 31.214844 10.623047 C 30.74551 10.241714 30.188302 9.9046615 29.542969 9.6113281 C 28.897635 9.3179948 28.178719 9.0842031 27.386719 8.9082031 C 26.594719 8.7028698 25.714094 8.5996094 24.746094 8.5996094 z M 18.849609 28.839844 L 18.849609 29.240234 C 18.849609 31.205568 19.363958 32.803156 20.390625 34.035156 C 21.446625 35.237823 22.898094 35.839844 24.746094 35.839844 C 26.03676 35.839844 27.121953 35.606052 28.001953 35.136719 C 28.911286 34.638052 29.643839 34.139292 30.201172 33.640625 C 30.465172 33.405958 30.759365 33.273474 31.082031 33.244141 C 31.434031 33.214807 31.757448 33.347292 32.050781 33.640625 L 32.929688 34.519531 C 33.134044 34.723888 33.254984 34.944903 33.302734 35.177734 C 33.307237 35.14602 33.323444 35.120619 33.326172 35.087891 C 33.355505 34.735891 33.223021 34.412474 32.929688 34.119141 L 32.050781 33.240234 C 31.757448 32.946901 31.434031 32.814417 31.082031 32.84375 C 30.759365 32.873083 30.465172 33.005568 30.201172 33.240234 C 29.643839 33.738901 28.911286 34.237661 28.001953 34.736328 C 27.121953 35.205661 26.03676 35.439453 24.746094 35.439453 C 22.898094 35.439453 21.446625 34.839385 20.390625 33.636719 C 19.363958 32.404719 18.849609 30.805177 18.849609 28.839844 z "
       transform="translate(384.57143,499.798)"
       id="path4246" />
  </g>
</svg>
