<?xml version="1.0" encoding="UTF-8" standalone="no"?>
<svg
   xmlns:dc="http://purl.org/dc/elements/1.1/"
   xmlns:cc="http://creativecommons.org/ns#"
   xmlns:rdf="http://www.w3.org/1999/02/22-rdf-syntax-ns#"
   xmlns:svg="http://www.w3.org/2000/svg"
   xmlns="http://www.w3.org/2000/svg"
   xmlns:xlink="http://www.w3.org/1999/xlink"
   xmlns:sodipodi="http://sodipodi.sourceforge.net/DTD/sodipodi-0.dtd"
   xmlns:inkscape="http://www.inkscape.org/namespaces/inkscape"
   width="48"
   viewBox="0 0 13.546667 13.546667"
   height="48"
   id="svg2"
   version="1.1"
   inkscape:version="0.48+devel r12923"
   sodipodi:docname="newsblur.svg">
  <metadata
     id="metadata399">
    <rdf:RDF>
      <cc:Work
         rdf:about="">
        <dc:format>image/svg+xml</dc:format>
        <dc:type
           rdf:resource="http://purl.org/dc/dcmitype/StillImage" />
      </cc:Work>
    </rdf:RDF>
  </metadata>
  <sodipodi:namedview
     pagecolor="#ffffff"
     bordercolor="#666666"
     borderopacity="1"
     objecttolerance="10"
     gridtolerance="10"
     guidetolerance="10"
     inkscape:pageopacity="0"
     inkscape:pageshadow="2"
     inkscape:window-width="1366"
     inkscape:window-height="669"
     id="namedview397"
     showgrid="false"
     inkscape:zoom="5.7455879"
     inkscape:cx="17.104533"
     inkscape:cy="16.962795"
     inkscape:window-x="0"
     inkscape:window-y="26"
     inkscape:window-maximized="1"
     inkscape:current-layer="svg2" />
  <defs
     id="defs4">
    <linearGradient
       id="linearGradient4504"
       inkscape:collect="always">
      <stop
         id="stop4506"
         offset="0"
         style="stop-color:#fbe25e;stop-opacity:1" />
      <stop
         id="stop4508"
         offset="1"
         style="stop-color:#f8e59c;stop-opacity:1" />
    </linearGradient>
    <linearGradient
       inkscape:collect="always"
       id="linearGradient4494">
      <stop
         style="stop-color:#c35e24;stop-opacity:1"
         offset="0"
         id="stop4496" />
      <stop
         style="stop-color:#e8a740;stop-opacity:1"
         offset="1"
         id="stop4498" />
    </linearGradient>
    <clipPath
       id="clipPath4199"
       clipPathUnits="userSpaceOnUse">
      <path
         style="opacity:.5;fill:#fff"
         d="m 144,48 -23.59375,55.0625 -55.59375,-22.25 22.25,55.59375 L 32,160 l 55.0625,23.59375 -22.25,55.59375 55.59375,-22.25 L 144,272 l 23.59375,-55.0625 55.59375,22.25 -22.25,-55.59375 L 256,160 200.9375,136.40625 223.1875,80.8125 167.59375,103.0625 144,48 z m -23.1875,56 46.375,0 32.8125,32.8125 0,46.375 L 167.1875,216 120.8125,216 88,183.1875 88,136.8125 120.8125,104 z"
         id="path121" />
    </clipPath>
    <linearGradient
       inkscape:collect="always"
       xlink:href="#linearGradient4494"
       id="linearGradient4500"
       x1="414.0556"
       y1="-547.81042"
       x2="414.0556"
       y2="-499.80508"
       gradientUnits="userSpaceOnUse" />
    <linearGradient
       inkscape:collect="always"
       xlink:href="#linearGradient4504"
       id="linearGradient4606"
       gradientUnits="userSpaceOnUse"
       x1="177.72963"
       y1="266.54865"
       x2="177.72963"
       y2="42.845806"
       gradientTransform="matrix(0.03880458,0,0,0.03880458,1.1854747,0.60340594)" />
  </defs>
  <g
     transform="matrix(0.28222223,0,0,0.28222223,-108.53461,-141.0541)"
     id="layer1"
     inkscape:label="Capa 1">
    <rect
       transform="scale(1,-1)"
       ry="1.9445436"
       y="-547.79797"
       x="384.57144"
       height="48"
       width="48"
       id="rect2991-1-7"
       style="fill:url(#linearGradient4500);fill-opacity:1;stroke:none" />
    <path
       id="rect846"
       d="m 384.57143,544.79799 0,1.0625 c 0,1.0773 0.86022,1.9375 1.9375,1.9375 l 44.125,0 c 1.07728,0 1.9375,-0.8602 1.9375,-1.9375 l 0,-1.0625 c 0,1.0773 -0.86022,1.9375 -1.9375,1.9375 l -44.125,0 c -1.07728,0 -1.9375,-0.8602 -1.9375,-1.9375 z"
       style="fill:#000000;fill-opacity:1;stroke:none"
       inkscape:connector-curvature="0" />
    <path
       id="path7515"
       d="m 387.10268,500.45429 c -0.91709,0 -1.67115,0.6395 -1.84375,1.5 0.33561,-0.2799 0.77451,-0.4375 1.25,-0.4375 l 44.125,0 c 0.47549,0 0.91439,0.1576 1.25,0.4375 -0.1726,-0.8605 -0.92666,-1.5 -1.84375,-1.5 l -42.9375,0 z"
       style="fill:#ffffff;fill-opacity:0.5372549;stroke:none"
       inkscape:connector-curvature="0" />
    <path
       id="rect4280"
       d="m 386.50893,499.79799 c -1.07728,0 -1.9375,0.8602 -1.9375,1.9375 l 0,43.0625 c 0,0.7934 0.48002,1.449 1.15625,1.75 -0.30934,-0.3333 -0.5,-0.7824 -0.5,-1.2812 l 0,-42.9375 c 0,-1.0482 0.8269,-1.875 1.875,-1.875 l 42.9375,0 c 1.0481,0 1.875,0.8268 1.875,1.875 l 0,42.9375 c 0,0.4988 -0.19066,0.9479 -0.5,1.2812 0.67623,-0.301 1.15625,-0.9566 1.15625,-1.75 l 0,-43.0625 c 0,-1.0773 -0.86022,-1.9375 -1.9375,-1.9375 l -44.125,0 z"
       style="fill:#000000;fill-opacity:0.39215686;stroke:none"
       inkscape:connector-curvature="0" />
  </g>
  <path
     inkscape:connector-curvature="0"
     id="path4092"
     d="m 6.7733333,2.7657775 -0.238119,0.5550598 c 0.079186,-0.0049 0.1576784,-0.011575 0.238119,-0.011575 0.080441,0 0.1589328,0.00668 0.2381189,0.011575 L 6.7733333,2.7657775 Z m 0,0.7760915 c -0.1147218,0 -0.2281152,0.00702 -0.3400911,0.017638 L 6.2552039,3.9756646 c 0.168934,-0.027631 0.3412797,-0.04575 0.5181294,-0.04575 0.1768498,0 0.3491951,0.018119 0.5181294,0.04575 L 7.1134245,3.5595074 C 7.0014486,3.5488877 6.8880552,3.5418689 6.7733333,3.5418689 Z m -3.0712935,0.4977347 -0.0011,0.0011 0.2226854,0.5561621 C 4.0281504,4.478489 4.1398278,4.3668117 4.2582046,4.2622866 L 3.7020398,4.0396037 Z m 6.1425871,0 -0.5561621,0.2226855 C 9.4068415,4.3668143 9.518519,4.4784916 9.623044,4.5968684 l 0.2226856,-0.5561621 -0.0011,-0.0011 z M 6.7733333,4.2793765 c -0.2364417,0 -0.4651866,0.031868 -0.6851431,0.085987 L 5.8881039,4.8316802 c 0.2751392,-0.1048071 0.572821,-0.164258 0.8852294,-0.164258 0.3124085,0 0.6100903,0.059451 0.8852294,0.164258 L 7.4584764,4.3653638 C 7.23852,4.3112451 7.0097751,4.279377 6.7733333,4.279377 Z M 4.5018327,4.3598514 C 4.3267637,4.5045677 4.1659011,4.6654304 4.0211852,4.8404993 l 0.1675652,0.418362 C 4.3911477,4.9768764 4.6382098,4.7298143 4.9201946,4.527417 L 4.5018327,4.3598518 Z m 4.5430012,0 L 8.6264721,4.527417 C 8.9084567,4.7298143 9.1555189,4.9768764 9.3579162,5.2588613 L 9.5254814,4.8404993 C 9.3807656,4.6654304 9.2199029,4.5045677 9.0448339,4.3598518 Z M 5.3109962,4.683958 C 4.9160559,4.9189839 4.5826249,5.2449315 4.3392283,5.6342294 L 4.5249831,6.0988919 C 4.7807236,5.5520816 5.2278912,5.114044 5.7828245,4.8730201 L 5.3109962,4.683958 Z m 2.9246743,0 -0.4718283,0.1890621 C 8.3187755,5.114044 8.765943,5.5520816 9.0216836,6.0988919 L 9.2074382,5.6342294 C 8.9640415,5.2449315 8.6306108,4.9189839 8.2356705,4.683958 Z M 6.7733333,4.9777484 c -1.2001458,0 -2.1728356,0.9726897 -2.1728356,2.1728358 0,1.2001459 0.9726898,2.1733868 2.1728356,2.1733868 1.2001461,0 2.1728357,-0.9732409 2.1728357,-2.1733868 0,-1.2001461 -0.9726896,-2.1728358 -2.1728357,-2.1728358 z M 4.4643509,6.2394483 3.9941764,6.4406369 c -0.058233,0.227635 -0.092602,0.4643948 -0.092602,0.7099473 0,0.21402 0.025404,0.4220876 0.070002,0.6228574 l 0.4591512,0.196779 C 4.3411849,7.7134709 4.2896201,7.4382714 4.2896201,7.1505842 c 0,-0.3223308 0.063496,-0.6288155 0.1747306,-0.9111359 z m 4.6179648,0 c 0.1112343,0.2823204 0.1747307,0.5888051 0.1747307,0.9111359 0,0.2876872 -0.051565,0.5628867 -0.1411076,0.8196364 l 0.4591506,-0.196779 c 0.044598,-0.2007698 0.070002,-0.4088374 0.070002,-0.6228574 0,-0.2455525 -0.034369,-0.4823123 -0.092602,-0.7099473 L 9.0823157,6.2394483 Z M 3.6369979,6.5938707 3.2208408,6.7719088 C 3.2102208,6.8838847 3.2032018,6.9972782 3.2032018,7.112 c 0,0.1147219 0.00702,0.2281153 0.017639,0.3400912 L 3.6369979,7.6301294 C 3.6093669,7.4611952 3.5912479,7.2888498 3.5912479,7.112 c 0,-0.1768498 0.018118,-0.3491951 0.04575,-0.5181293 z m 6.2726708,0 c 0.027631,0.1689342 0.04575,0.3412795 0.04575,0.5181293 0,0.1768498 -0.018119,0.3491952 -0.04575,0.5181294 L 10.325826,7.4520912 c 0.01062,-0.1119759 0.01764,-0.2253693 0.01764,-0.3400912 0,-0.1147218 -0.007,-0.2281153 -0.01764,-0.3400912 L 9.9096687,6.5938707 Z M 2.9821706,6.8738811 2.427111,7.112 2.9821706,7.350119 C 2.9772706,7.270933 2.9705956,7.1924407 2.9705956,7.112 c 0,-0.080441 0.00668,-0.1589327 0.011575,-0.2381189 z m 7.5823254,0 c 0.0049,0.079186 0.01158,0.1576784 0.01158,0.2381189 0,0.080441 -0.0067,0.1589329 -0.01158,0.238119 L 11.119556,7.112 10.564496,6.8738811 Z M 4.5078958,8.1675505 4.3204876,8.6360718 C 4.5498593,9.0134566 4.8624389,9.3335849 5.2343793,9.5709093 L 5.6951837,9.3862569 C 5.1694346,9.1327385 4.7472459,8.7012798 4.5078958,8.1675505 Z m 4.530875,0 C 8.7994208,8.7012798 8.3772321,9.1327385 7.8514829,9.3862569 L 8.3122874,9.5709094 C 8.6842275,9.3335849 8.9968073,9.0134566 9.2261791,8.6360718 L 9.0387707,8.1675505 Z M 4.1887504,8.9651388 4.0211852,9.3835007 C 4.1659011,9.5585698 4.3267637,9.7194323 4.5018327,9.8641484 L 4.9201946,9.6965831 C 4.6382098,9.4941857 4.3911477,9.2471236 4.1887504,8.9651388 Z m 5.1691658,0 C 9.1555189,9.2471236 8.9084567,9.4941857 8.6264721,9.6965831 L 9.0448339,9.8641484 C 9.2199029,9.7194323 9.3807656,9.5585698 9.5254814,9.3835007 L 9.3579162,8.9651388 Z M 5.9277904,9.4843707 6.1256717,9.9457262 c 0.2084717,0.048292 0.4246981,0.076617 0.6476616,0.076617 0.2229634,0 0.4391898,-0.028324 0.6476616,-0.076617 L 7.6188762,9.4843707 c -0.2641508,0.095487 -0.5480188,0.1499267 -0.8455429,0.1499267 -0.2975241,0 -0.5813921,-0.05444 -0.8455429,-0.1499267 z m -2.0041679,0.142761 -0.2226854,0.5561613 0.0011,0.0011 0.5561621,-0.2226846 C 4.1398251,9.8571859 4.0281477,9.7455085 3.9236225,9.6271317 Z m 5.6994215,0 C 9.518519,9.7455085 9.4068415,9.8571859 9.2884647,9.961711 l 0.5561621,0.222684 0.0011,-0.0011 L 9.623044,9.6271317 Z M 6.2552039,10.248334 6.4332422,10.66449 c 0.1119759,0.01062 0.2253693,0.01764 0.3400911,0.01764 0.1147219,0 0.2281153,-0.007 0.3400912,-0.01764 l 0.1780382,-0.416156 c -0.1689343,0.02763 -0.3412796,0.04575 -0.5181294,0.04575 -0.1768497,0 -0.3491954,-0.01812 -0.5181294,-0.04575 z m 0.2800104,0.654826 0.238119,0.55506 0.2381189,-0.55506 c -0.079186,0.0049 -0.1576783,0.01158 -0.2381189,0.01158 -0.080441,0 -0.1589328,-0.0067 -0.238119,-0.01158 z"
     style="color:#bebebe;fill:#000000;fill-opacity:0.05882353" />
  <path
     style="color:#bebebe;fill:#000000;fill-opacity:0.11764706"
     d="m 6.7733333,2.6528887 -0.238119,0.5550598 c 0.079186,-0.0049 0.1576784,-0.011575 0.238119,-0.011575 0.080441,0 0.1589328,0.00668 0.2381189,0.011575 L 6.7733333,2.6528887 Z m 0,0.7760915 c -0.1147218,0 -0.2281152,0.00702 -0.3400911,0.017638 L 6.2552039,3.8627758 c 0.168934,-0.027631 0.3412797,-0.04575 0.5181294,-0.04575 0.1768498,0 0.3491951,0.018119 0.5181294,0.04575 L 7.1134245,3.4466186 C 7.0014486,3.4359989 6.8880552,3.4289801 6.7733333,3.4289801 Z m -3.0712935,0.4977347 -0.0011,0.0011 0.2226854,0.5561621 C 4.0281504,4.3656002 4.1398278,4.2539229 4.2582046,4.1493978 L 3.7020398,3.9267149 Z m 6.1425871,0 -0.5561621,0.2226855 C 9.4068415,4.2539255 9.518519,4.3656028 9.623044,4.4839796 l 0.2226856,-0.5561621 -0.0011,-0.0011 z M 6.7733333,4.1664877 c -0.2364417,0 -0.4651866,0.031868 -0.6851431,0.085987 L 5.8881039,4.7187914 c 0.2751392,-0.1048071 0.572821,-0.164258 0.8852294,-0.164258 0.3124085,0 0.6100903,0.059451 0.8852294,0.164258 L 7.4584764,4.252475 C 7.23852,4.1983563 7.0097751,4.1664882 6.7733333,4.1664882 Z M 4.5018327,4.2469626 C 4.3267637,4.3916789 4.1659011,4.5525416 4.0211852,4.7276105 l 0.1675652,0.418362 C 4.3911477,4.8639876 4.6382098,4.6169255 4.9201946,4.4145282 L 4.5018327,4.246963 Z m 4.5430012,0 -0.4183618,0.1675656 C 8.9084567,4.6169255 9.1555189,4.8639876 9.3579162,5.1459725 L 9.5254814,4.7276105 C 9.3807656,4.5525416 9.2199029,4.3916789 9.0448339,4.246963 Z M 5.3109962,4.5710692 C 4.9160559,4.8060951 4.5826249,5.1320427 4.3392283,5.5213406 L 4.5249831,5.9860031 C 4.7807236,5.4391928 5.2278912,5.0011552 5.7828245,4.7601313 L 5.3109962,4.5710692 Z m 2.9246743,0 -0.4718283,0.1890621 C 8.3187755,5.0011552 8.765943,5.4391928 9.0216836,5.9860031 L 9.2074382,5.5213406 C 8.9640415,5.1320427 8.6306108,4.8060951 8.2356705,4.5710692 Z M 6.7733333,4.8648596 c -1.2001458,0 -2.1728356,0.9726897 -2.1728356,2.1728358 0,1.2001459 0.9726898,2.1733868 2.1728356,2.1733868 1.2001461,0 2.1728357,-0.9732409 2.1728357,-2.1733868 0,-1.2001461 -0.9726896,-2.1728358 -2.1728357,-2.1728358 z M 4.4643509,6.1265595 3.9941764,6.3277481 c -0.058233,0.227635 -0.092602,0.4643948 -0.092602,0.7099473 0,0.21402 0.025404,0.4220876 0.070002,0.6228574 l 0.4591512,0.196779 C 4.3411849,7.6005821 4.2896201,7.3253826 4.2896201,7.0376954 c 0,-0.3223308 0.063496,-0.6288155 0.1747306,-0.9111359 z m 4.6179648,0 c 0.1112343,0.2823204 0.1747307,0.5888051 0.1747307,0.9111359 0,0.2876872 -0.051565,0.5628867 -0.1411076,0.8196364 l 0.4591506,-0.196779 c 0.044598,-0.2007698 0.070002,-0.4088374 0.070002,-0.6228574 0,-0.2455525 -0.034369,-0.4823123 -0.092602,-0.7099473 L 9.0823157,6.1265595 Z M 3.6369979,6.4809819 3.2208408,6.65902 c -0.01062,0.1119759 -0.017639,0.2253694 -0.017639,0.3400912 0,0.1147219 0.00702,0.2281153 0.017639,0.3400912 l 0.4161571,0.1780382 c -0.027631,-0.1689342 -0.04575,-0.3412796 -0.04575,-0.5181294 0,-0.1768498 0.018118,-0.3491951 0.04575,-0.5181293 z m 6.2726708,0 c 0.027631,0.1689342 0.04575,0.3412795 0.04575,0.5181293 0,0.1768498 -0.018119,0.3491952 -0.04575,0.5181294 L 10.325826,7.3392024 c 0.01062,-0.1119759 0.01764,-0.2253693 0.01764,-0.3400912 0,-0.1147218 -0.007,-0.2281153 -0.01764,-0.3400912 L 9.9096687,6.4809819 Z M 2.9821706,6.7609923 2.427111,6.9991112 2.9821706,7.2372302 c -0.0049,-0.079186 -0.011575,-0.1576783 -0.011575,-0.238119 0,-0.080441 0.00668,-0.1589327 0.011575,-0.2381189 z m 7.5823254,0 c 0.0049,0.079186 0.01158,0.1576784 0.01158,0.2381189 0,0.080441 -0.0067,0.1589329 -0.01158,0.238119 l 0.55506,-0.238119 -0.55506,-0.2381189 z M 4.5078958,8.0546617 4.3204876,8.523183 C 4.5498593,8.9005678 4.8624389,9.2206961 5.2343793,9.4580205 L 5.6951837,9.2733681 C 5.1694346,9.0198497 4.7472459,8.588391 4.5078958,8.0546617 Z m 4.530875,0 C 8.7994208,8.588391 8.3772321,9.0198497 7.8514829,9.2733681 L 8.3122874,9.4580206 C 8.6842275,9.2206961 8.9968073,8.9005678 9.2261791,8.523183 L 9.0387707,8.0546617 Z M 4.1887504,8.85225 4.0211852,9.2706119 C 4.1659011,9.445681 4.3267637,9.6065435 4.5018327,9.7512596 L 4.9201946,9.5836943 C 4.6382098,9.3812969 4.3911477,9.1342348 4.1887504,8.85225 Z m 5.1691658,0 C 9.1555189,9.1342348 8.9084567,9.3812969 8.6264721,9.5836943 L 9.0448339,9.7512596 C 9.2199029,9.6065435 9.3807656,9.445681 9.5254814,9.2706119 L 9.3579162,8.85225 Z M 5.9277904,9.3714819 6.1256717,9.8328374 c 0.2084717,0.048292 0.4246981,0.076617 0.6476616,0.076617 0.2229634,0 0.4391898,-0.028324 0.6476616,-0.076617 L 7.6188762,9.3714819 c -0.2641508,0.095487 -0.5480188,0.1499267 -0.8455429,0.1499267 -0.2975241,0 -0.5813921,-0.05444 -0.8455429,-0.1499267 z m -2.0041679,0.142761 -0.2226854,0.5561621 0.0011,0.0011 0.5561621,-0.2226854 C 4.1398251,9.7442971 4.0281477,9.6326197 3.9236225,9.5142429 Z m 5.6994215,0 C 9.518519,9.6326197 9.4068415,9.7442971 9.2884647,9.8488222 l 0.5561621,0.2226848 0.0011,-0.0011 L 9.623044,9.5142429 Z m -3.3678401,0.6212031 0.1780383,0.416156 c 0.1119759,0.01062 0.2253693,0.01764 0.3400911,0.01764 0.1147219,0 0.2281153,-0.007 0.3400912,-0.01764 l 0.1780382,-0.416156 c -0.1689343,0.02763 -0.3412796,0.04575 -0.5181294,0.04575 -0.1768497,0 -0.3491954,-0.01812 -0.5181294,-0.04575 z m 0.2800104,0.654826 0.238119,0.55506 0.2381189,-0.55506 c -0.079186,0.0049 -0.1576783,0.01158 -0.2381189,0.01158 -0.080441,0 -0.1589328,-0.0067 -0.238119,-0.01158 z"
     id="path4090"
     inkscape:connector-curvature="0" />
  <path
     inkscape:connector-curvature="0"
     id="path4088"
     d="m 6.7733333,2.5399999 -0.238119,0.5550598 c 0.079186,-0.0049 0.1576784,-0.011575 0.238119,-0.011575 0.080441,0 0.1589328,0.00668 0.2381189,0.011575 L 6.7733333,2.5399999 Z m 0,0.7760915 c -0.1147218,0 -0.2281152,0.00702 -0.3400911,0.017638 L 6.2552039,3.749887 c 0.168934,-0.027631 0.3412797,-0.04575 0.5181294,-0.04575 0.1768498,0 0.3491951,0.018119 0.5181294,0.04575 L 7.1134245,3.3337298 C 7.0014486,3.3231101 6.8880552,3.3160913 6.7733333,3.3160913 Z m -3.0712935,0.4977347 -0.0011,0.0011 0.2226854,0.5561621 C 4.0281504,4.2527114 4.1398278,4.1410341 4.2582046,4.036509 L 3.7020398,3.8138261 Z m 6.1425871,0 -0.5561621,0.2226855 C 9.4068415,4.1410367 9.518519,4.252714 9.623044,4.3710908 l 0.2226856,-0.5561621 -0.0011,-0.0011 z M 6.7733333,4.0535989 c -0.2364417,0 -0.4651866,0.031868 -0.6851431,0.085987 L 5.8881039,4.6059026 c 0.2751392,-0.1048071 0.572821,-0.164258 0.8852294,-0.164258 0.3124085,0 0.6100903,0.059451 0.8852294,0.164258 L 7.4584764,4.1395862 C 7.23852,4.0854675 7.0097751,4.0535994 6.7733333,4.0535994 Z M 4.5018327,4.1340738 C 4.3267637,4.2787901 4.1659011,4.4396528 4.0211852,4.6147217 l 0.1675652,0.418362 C 4.3911477,4.7510988 4.6382098,4.5040367 4.9201946,4.3016394 L 4.5018327,4.1340742 Z m 4.5430012,0 -0.4183618,0.1675656 C 8.9084567,4.5040367 9.1555189,4.7510988 9.3579162,5.0330837 L 9.5254814,4.6147217 C 9.3807656,4.4396528 9.2199029,4.2787901 9.0448339,4.1340742 Z M 5.3109962,4.4581804 C 4.9160559,4.6932063 4.5826249,5.0191539 4.3392283,5.4084518 L 4.5249831,5.8731143 C 4.7807236,5.326304 5.2278912,4.8882664 5.7828245,4.6472425 L 5.3109962,4.4581804 Z m 2.9246743,0 -0.4718283,0.1890621 C 8.3187755,4.8882664 8.765943,5.326304 9.0216836,5.8731143 L 9.2074382,5.4084518 C 8.9640415,5.0191539 8.6306108,4.6932063 8.2356705,4.4581804 Z M 6.7733333,4.7519708 c -1.2001458,0 -2.1728356,0.9726897 -2.1728356,2.1728358 0,1.2001459 0.9726898,2.1733868 2.1728356,2.1733868 1.2001461,0 2.1728357,-0.9732409 2.1728357,-2.1733868 0,-1.2001461 -0.9726896,-2.1728358 -2.1728357,-2.1728358 z M 4.4643509,6.0136707 3.9941764,6.2148593 c -0.058233,0.227635 -0.092602,0.4643948 -0.092602,0.7099473 0,0.21402 0.025404,0.4220876 0.070002,0.6228574 L 4.4307276,7.744443 C 4.3411849,7.4876933 4.2896201,7.2124938 4.2896201,6.9248066 c 0,-0.3223308 0.063496,-0.6288155 0.1747306,-0.9111359 z m 4.6179648,0 c 0.1112343,0.2823204 0.1747307,0.5888051 0.1747307,0.9111359 0,0.2876872 -0.051565,0.5628867 -0.1411076,0.8196364 L 9.5750894,7.547664 c 0.044598,-0.2007698 0.070002,-0.4088374 0.070002,-0.6228574 0,-0.2455525 -0.034369,-0.4823123 -0.092602,-0.7099473 L 9.0823157,6.0136707 Z M 3.6369979,6.3680931 3.2208408,6.5461312 c -0.01062,0.1119759 -0.017639,0.2253694 -0.017639,0.3400912 0,0.1147219 0.00702,0.2281153 0.017639,0.3400912 l 0.4161571,0.1780382 c -0.027631,-0.1689342 -0.04575,-0.3412796 -0.04575,-0.5181294 0,-0.1768498 0.018118,-0.3491951 0.04575,-0.5181293 z m 6.2726708,0 c 0.027631,0.1689342 0.04575,0.3412795 0.04575,0.5181293 0,0.1768498 -0.018119,0.3491952 -0.04575,0.5181294 L 10.325826,7.2263136 c 0.01062,-0.1119759 0.01764,-0.2253693 0.01764,-0.3400912 0,-0.1147218 -0.007,-0.2281153 -0.01764,-0.3400912 L 9.9096687,6.3680931 Z M 2.9821706,6.6481035 2.427111,6.8862224 2.9821706,7.1243414 c -0.0049,-0.079186 -0.011575,-0.1576783 -0.011575,-0.238119 0,-0.080441 0.00668,-0.1589327 0.011575,-0.2381189 z m 7.5823254,0 c 0.0049,0.079186 0.01158,0.1576784 0.01158,0.2381189 0,0.080441 -0.0067,0.1589329 -0.01158,0.238119 l 0.55506,-0.238119 -0.55506,-0.2381189 z M 4.5078958,7.9417729 4.3204876,8.4102942 C 4.5498593,8.787679 4.8624389,9.1078073 5.2343793,9.3451317 L 5.6951837,9.1604793 C 5.1694346,8.9069609 4.7472459,8.4755022 4.5078958,7.9417729 Z m 4.530875,0 C 8.7994208,8.4755022 8.3772321,8.9069609 7.8514829,9.1604793 L 8.3122874,9.3451318 C 8.6842275,9.1078073 8.9968073,8.787679 9.2261791,8.4102942 L 9.0387707,7.9417729 Z M 4.1887504,8.7393612 4.0211852,9.1577231 C 4.1659011,9.3327922 4.3267637,9.4936547 4.5018327,9.6383708 L 4.9201946,9.4708055 C 4.6382098,9.2684081 4.3911477,9.021346 4.1887504,8.7393612 Z m 5.1691658,0 C 9.1555189,9.021346 8.9084567,9.2684081 8.6264721,9.4708055 L 9.0448339,9.6383708 C 9.2199029,9.4936547 9.3807656,9.3327922 9.5254814,9.1577231 L 9.3579162,8.7393612 Z M 5.9277904,9.2585931 6.1256717,9.7199486 c 0.2084717,0.048292 0.4246981,0.076617 0.6476616,0.076617 0.2229634,0 0.4391898,-0.028324 0.6476616,-0.076617 L 7.6188762,9.2585931 c -0.2641508,0.095487 -0.5480188,0.1499267 -0.8455429,0.1499267 -0.2975241,0 -0.5813921,-0.05444 -0.8455429,-0.1499267 z m -2.0041679,0.142761 -0.2226854,0.5561621 0.0011,0.0011 0.5561621,-0.2226854 C 4.1398251,9.6314083 4.0281477,9.5197309 3.9236225,9.4013541 Z m 5.6994215,0 C 9.518519,9.5197309 9.4068415,9.6314083 9.2884647,9.7359334 l 0.5561621,0.2226853 0.0011,-0.0011 L 9.623044,9.4013541 Z m -3.3678401,0.6212039 0.1780383,0.416156 c 0.1119759,0.01062 0.2253693,0.01764 0.3400911,0.01764 0.1147219,0 0.2281153,-0.007 0.3400912,-0.01764 l 0.1780382,-0.416156 c -0.1689343,0.02763 -0.3412796,0.04575 -0.5181294,0.04575 -0.1768497,0 -0.3491954,-0.01812 -0.5181294,-0.04575 z m 0.2800104,0.654826 0.238119,0.55506 0.2381189,-0.55506 c -0.079186,0.0049 -0.1576783,0.01158 -0.2381189,0.01158 -0.080441,0 -0.1589328,-0.0067 -0.238119,-0.01158 z"
     style="color:#bebebe;fill:#000000;fill-opacity:0.23529412" />
  <g
     style="color:#bebebe;fill:#000000;fill-opacity:0.11764706"
     transform="matrix(0.03880556,0,0,0.03880556,1.1853329,0.98424948)"
     id="g4522" />
  <g
     id="g4510"
     transform="matrix(0.03880556,0,0,0.03880556,1.1853329,0.87136058)"
     style="color:#bebebe;fill:#000000;fill-opacity:0.23529412" />
  <path
     style="color:#bebebe;fill:url(#linearGradient4606);fill-opacity:1"
     d="m 6.7733333,2.427111 -0.238119,0.5550598 c 0.079186,-0.0049 0.1576784,-0.011575 0.238119,-0.011575 0.080441,0 0.1589328,0.00668 0.2381189,0.011575 L 6.7733333,2.427111 Z m 0,0.7760915 c -0.1147218,0 -0.2281152,0.00702 -0.3400911,0.017638 L 6.2552039,3.6369981 c 0.168934,-0.027631 0.3412797,-0.04575 0.5181294,-0.04575 0.1768498,0 0.3491951,0.018119 0.5181294,0.04575 L 7.1134245,3.2208409 C 7.0014486,3.2102212 6.8880552,3.2032024 6.7733333,3.2032024 Z m -3.0712935,0.4977347 -0.0011,0.0011 0.2226854,0.5561621 C 4.0281504,4.1398225 4.1398278,4.0281452 4.2582046,3.9236201 L 3.7020398,3.7009372 Z m 6.1425871,0 -0.5561621,0.2226855 C 9.4068415,4.0281478 9.518519,4.1398251 9.623044,4.2582019 l 0.2226856,-0.5561621 -0.0011,-0.0011 z M 6.7733333,3.94071 c -0.2364417,0 -0.4651866,0.031868 -0.6851431,0.085987 L 5.8881039,4.4930137 c 0.2751392,-0.1048071 0.572821,-0.164258 0.8852294,-0.164258 0.3124085,0 0.6100903,0.059451 0.8852294,0.164258 L 7.4584764,4.0266973 C 7.23852,3.9725786 7.0097751,3.9407105 6.7733333,3.9407105 Z M 4.5018327,4.0211849 C 4.3267637,4.1659012 4.1659011,4.3267639 4.0211852,4.5018328 L 4.1887504,4.9201947 C 4.3911477,4.6382099 4.6382098,4.3911478 4.9201946,4.1887505 L 4.5018327,4.0211853 Z m 4.5430012,0 -0.4183618,0.1675656 C 8.9084567,4.3911478 9.1555189,4.6382099 9.3579162,4.9201947 L 9.5254814,4.5018328 C 9.3807656,4.3267639 9.2199029,4.1659012 9.0448339,4.0211853 Z M 5.3109962,4.3452915 C 4.9160559,4.5803174 4.5826249,4.9062649 4.3392283,5.2955628 L 4.5249831,5.7602253 C 4.7807236,5.213415 5.2278912,4.7753774 5.7828245,4.5343536 L 5.3109962,4.3452915 Z m 2.9246743,0 -0.4718283,0.1890621 C 8.3187755,4.7753774 8.765943,5.213415 9.0216836,5.7602253 L 9.2074382,5.2955628 C 8.9640415,4.9062649 8.6306108,4.5803174 8.2356705,4.3452915 Z M 6.7733333,4.6390819 c -1.2001458,0 -2.1728356,0.9726896 -2.1728356,2.1728357 0,1.2001459 0.9726898,2.1733868 2.1728356,2.1733868 1.2001461,0 2.1728357,-0.9732409 2.1728357,-2.1733868 0,-1.2001461 -0.9726896,-2.1728357 -2.1728357,-2.1728357 z M 4.4643509,5.9007817 3.9941764,6.1019703 c -0.058233,0.227635 -0.092602,0.4643948 -0.092602,0.7099473 0,0.21402 0.025404,0.4220876 0.070002,0.6228574 L 4.4307276,7.631554 C 4.3411849,7.3748043 4.2896201,7.0996048 4.2896201,6.8119176 c 0,-0.3223308 0.063496,-0.6288155 0.1747306,-0.9111359 z m 4.6179648,0 c 0.1112343,0.2823204 0.1747307,0.5888051 0.1747307,0.9111359 0,0.2876872 -0.051565,0.5628867 -0.1411076,0.8196364 L 9.5750894,7.434775 c 0.044598,-0.2007698 0.070002,-0.4088374 0.070002,-0.6228574 0,-0.2455525 -0.034369,-0.4823123 -0.092602,-0.7099473 L 9.0823157,5.9007817 Z M 3.6369979,6.2552041 3.2208408,6.4332422 c -0.01062,0.1119759 -0.017639,0.2253694 -0.017639,0.3400912 0,0.1147219 0.00702,0.2281153 0.017639,0.3400912 l 0.4161571,0.1780382 c -0.027631,-0.1689342 -0.04575,-0.3412796 -0.04575,-0.5181294 0,-0.1768498 0.018118,-0.3491951 0.04575,-0.5181293 z m 6.2726708,0 c 0.027631,0.1689342 0.04575,0.3412795 0.04575,0.5181293 0,0.1768498 -0.018119,0.3491952 -0.04575,0.5181294 L 10.325826,7.1134246 c 0.01062,-0.1119759 0.01764,-0.2253693 0.01764,-0.3400912 0,-0.1147218 -0.007,-0.2281153 -0.01764,-0.3400912 L 9.9096687,6.2552041 Z M 2.9821706,6.5352145 2.427111,6.7733334 2.9821706,7.0114524 c -0.0049,-0.079186 -0.011575,-0.1576783 -0.011575,-0.238119 0,-0.080441 0.00668,-0.1589327 0.011575,-0.2381189 z m 7.5823254,0 c 0.0049,0.079186 0.01158,0.1576784 0.01158,0.2381189 0,0.080441 -0.0067,0.1589329 -0.01158,0.238119 l 0.55506,-0.238119 -0.55506,-0.2381189 z M 4.5078958,7.8288839 4.3204876,8.2974052 C 4.5498593,8.67479 4.8624389,8.9949183 5.2343793,9.2322426 L 5.6951837,9.0475902 C 5.1694346,8.7940719 4.7472459,8.3626132 4.5078958,7.8288839 Z m 4.530875,0 C 8.7994208,8.3626132 8.3772321,8.7940719 7.8514829,9.0475902 L 8.3122874,9.2322427 C 8.6842275,8.9949183 8.9968073,8.67479 9.2261791,8.2974052 L 9.0387707,7.8288839 Z M 4.1887504,8.6264722 4.0211852,9.044834 C 4.1659011,9.2199031 4.3267637,9.3807656 4.5018327,9.5254817 L 4.9201946,9.3579164 C 4.6382098,9.155519 4.3911477,8.908457 4.1887504,8.6264722 Z m 5.1691658,0 C 9.1555189,8.908457 8.9084567,9.155519 8.6264721,9.3579164 L 9.0448339,9.5254817 C 9.2199029,9.3807656 9.3807656,9.2199031 9.5254814,9.044834 L 9.3579162,8.6264722 Z M 5.9277904,9.145704 6.1256717,9.6070595 c 0.2084717,0.048292 0.4246981,0.076617 0.6476616,0.076617 0.2229634,0 0.4391898,-0.028324 0.6476616,-0.076617 L 7.6188762,9.145704 C 7.3547254,9.241191 7.0708574,9.2956307 6.7733333,9.2956307 c -0.2975241,0 -0.5813921,-0.05444 -0.8455429,-0.1499267 z m -2.0041679,0.142761 -0.2226854,0.5561621 0.0011,0.0011 0.5561621,-0.2226854 C 4.1398251,9.5185192 4.0281477,9.4068418 3.9236225,9.288465 Z m 5.6994215,0 C 9.518519,9.4068418 9.4068415,9.5185192 9.2884647,9.6230443 l 0.5561621,0.2226853 0.0011,-0.0011 L 9.623044,9.288465 Z M 6.2552039,9.9096691 6.4332422,10.325826 c 0.1119759,0.01062 0.2253693,0.01764 0.3400911,0.01764 0.1147219,0 0.2281153,-0.007 0.3400912,-0.01764 L 7.2914627,9.9096689 c -0.1689343,0.027631 -0.3412796,0.04575 -0.5181294,0.04575 -0.1768497,0 -0.3491954,-0.018118 -0.5181294,-0.04575 z m 0.2800104,0.6548269 0.238119,0.55506 0.2381189,-0.55506 c -0.079186,0.0049 -0.1576783,0.01158 -0.2381189,0.01158 -0.080441,0 -0.1589328,-0.0067 -0.238119,-0.01158 z"
     id="path393"
     inkscape:connector-curvature="0" />
  <path
     style="color:#bebebe;fill:#c66426;fill-opacity:0.3137255"
     clip-path="none"
     d="M 16.320312 23.738281 C 16.313495 23.871124 16.300781 24.00218 16.300781 24.136719 C 16.300781 28.389312 19.747407 31.837891 24 31.837891 C 28.252594 31.837891 31.699219 28.389312 31.699219 24.136719 C 31.699219 24.00218 31.686505 23.871124 31.679688 23.738281 C 31.470045 27.803524 28.117398 31.037109 24 31.037109 C 19.882603 31.037109 16.529955 27.803524 16.320312 23.738281 z "
     transform="scale(0.28222223,0.28222223)"
     id="path4554" />
  <path
     style="line-height:normal;color:#bebebe;fill:#c66426;fill-opacity:0.3137255"
     clip-path="none"
     d="M 24 9.8242188 C 23.818567 9.8242188 23.641144 9.8381653 23.462891 9.8496094 L 23.15625 10.566406 C 23.436838 10.549051 23.714967 10.525391 24 10.525391 C 24.285033 10.525391 24.563162 10.549051 24.84375 10.566406 L 24.537109 9.8496094 C 24.358857 9.8381647 24.181434 9.8242188 24 9.8242188 z M 24 12.023438 C 23.48318 12.023438 22.979701 12.0743 22.482422 12.144531 L 22.164062 12.886719 C 22.762662 12.788809 23.373351 12.724609 24 12.724609 C 24.626649 12.724609 25.237337 12.788809 25.835938 12.886719 L 25.517578 12.144531 C 25.020299 12.0743 24.51682 12.023438 24 12.023438 z M 13.117188 13.113281 L 13.113281 13.117188 L 13.902344 15.087891 C 14.272718 14.668435 14.668435 14.272718 15.087891 13.902344 L 14.564453 13.693359 C 14.336456 13.917334 14.114076 14.146928 13.902344 14.386719 L 13.445312 13.244141 L 13.117188 13.113281 z M 34.882812 13.113281 L 34.554688 13.244141 L 34.097656 14.386719 C 33.885924 14.146928 33.663544 13.917334 33.435547 13.693359 L 32.912109 13.902344 C 33.331565 14.272718 33.727282 14.668435 34.097656 15.087891 L 34.886719 13.117188 L 34.882812 13.113281 z M 16.839844 14.603516 C 16.085869 15.224621 15.41264 15.937109 14.841797 16.732422 L 14.443359 15.736328 C 14.379968 15.809551 14.309791 15.876477 14.248047 15.951172 L 14.841797 17.433594 C 15.558971 16.43441 16.43441 15.558971 17.433594 14.841797 L 16.839844 14.603516 z M 31.160156 14.603516 L 30.566406 14.841797 C 31.56559 15.558971 32.441029 16.43441 33.158203 17.433594 L 33.751953 15.951172 C 33.690209 15.876477 33.620032 15.809551 33.556641 15.736328 L 33.158203 16.732422 C 32.58736 15.937109 31.914131 15.224621 31.160156 14.603516 z M 24 14.636719 C 23.022684 14.636719 22.089802 14.809491 21.212891 15.103516 L 20.863281 15.919922 C 21.838208 15.548549 22.893013 15.337891 24 15.337891 C 25.106987 15.337891 26.161792 15.548549 27.136719 15.919922 L 26.787109 15.103516 C 25.910198 14.809491 24.977316 14.636719 24 14.636719 z M 19.712891 15.753906 C 18.107748 16.650836 16.816394 18.034408 16.033203 19.708984 L 15.554688 18.511719 C 15.497239 18.597668 15.42989 18.675879 15.375 18.763672 L 16.033203 20.410156 C 16.939393 18.47259 18.523885 16.920449 20.490234 16.066406 L 19.712891 15.753906 z M 28.287109 15.753906 L 27.509766 16.066406 C 29.476115 16.920449 31.060607 18.47259 31.966797 20.410156 L 32.625 18.763672 C 32.57011 18.675879 32.502761 18.597668 32.445312 18.511719 L 31.966797 19.708984 C 31.183606 18.034408 29.892253 16.650836 28.287109 15.753906 z M 15.818359 20.908203 L 15.542969 21.027344 C 15.322905 21.793053 15.199219 22.597788 15.199219 23.435547 C 15.199219 23.559341 15.209541 23.680283 15.214844 23.802734 C 15.254391 22.783594 15.463123 21.809818 15.818359 20.908203 z M 32.181641 20.908203 C 32.536877 21.809818 32.745609 22.783594 32.785156 23.802734 C 32.790459 23.680283 32.800781 23.559341 32.800781 23.435547 C 32.800781 22.597788 32.677095 21.793053 32.457031 21.027344 L 32.181641 20.908203 z M 12.886719 22.164062 L 12.791016 22.205078 C 12.752414 22.565316 12.724609 22.928226 12.724609 23.298828 C 12.724609 23.417322 12.737803 23.533012 12.742188 23.650391 C 12.760945 23.146596 12.807259 22.649864 12.886719 22.164062 z M 35.113281 22.164062 C 35.192741 22.649864 35.239055 23.146596 35.257812 23.650391 C 35.262197 23.533012 35.275391 23.417322 35.275391 23.298828 C 35.275391 22.928226 35.247586 22.565316 35.208984 22.205078 L 35.113281 22.164062 z M 10.566406 23.15625 L 10.53125 23.171875 C 10.530281 23.214476 10.525391 23.255946 10.525391 23.298828 C 10.525391 23.416942 10.536977 23.532029 10.542969 23.648438 C 10.551435 23.484584 10.556283 23.319918 10.566406 23.15625 z M 37.433594 23.15625 C 37.443717 23.319918 37.448565 23.484584 37.457031 23.648438 C 37.463036 23.532029 37.474609 23.416942 37.474609 23.298828 C 37.474609 23.255946 37.469719 23.214476 37.46875 23.171875 L 37.433594 23.15625 z M 9.4160156 23.648438 L 8.5996094 24 L 10.566406 24.84375 C 10.551662 24.605375 10.536722 24.36752 10.53125 24.126953 L 9.4160156 23.648438 z M 11.367188 23.648438 C 11.363256 23.766209 11.349609 23.88142 11.349609 24 C 11.349609 24.406505 11.374479 24.808303 11.412109 25.205078 L 12.886719 25.835938 C 12.846713 25.591351 12.817686 25.342637 12.791016 25.09375 L 11.412109 24.503906 C 11.385398 24.222231 11.376708 23.935062 11.367188 23.648438 z M 36.632812 23.648438 C 36.623291 23.935062 36.614604 24.222231 36.587891 24.503906 L 35.208984 25.09375 C 35.182314 25.342637 35.153287 25.591351 35.113281 25.835938 L 36.587891 25.205078 C 36.625521 24.808303 36.650391 24.406505 36.650391 24 C 36.650391 23.88142 36.636744 23.766209 36.632812 23.648438 z M 38.583984 23.648438 L 37.46875 24.126953 C 37.463278 24.36752 37.448338 24.605375 37.433594 24.84375 L 39.400391 24 L 38.583984 23.648438 z M 13.845703 23.8125 C 13.84188 23.921582 13.824219 24.026637 13.824219 24.136719 C 13.824219 24.895077 13.914237 25.632343 14.072266 26.34375 L 15.699219 27.041016 C 15.607803 26.778896 15.530813 26.51075 15.462891 26.238281 L 14.072266 25.642578 C 13.940804 25.050769 13.870364 24.437356 13.845703 23.8125 z M 34.154297 23.8125 C 34.129636 24.437356 34.059196 25.050769 33.927734 25.642578 L 32.537109 26.238281 C 32.469187 26.51075 32.392197 26.778896 32.300781 27.041016 L 33.927734 26.34375 C 34.085763 25.632343 34.175781 24.895077 34.175781 24.136719 C 34.175781 24.026637 34.15812 23.921582 34.154297 23.8125 z M 15.486328 28.957031 L 15.308594 29.400391 C 16.121349 30.737615 17.228943 31.871956 18.546875 32.712891 L 20.179688 32.058594 C 19.925488 31.936017 19.679275 31.799671 19.439453 31.654297 L 18.546875 32.011719 C 17.31703 31.22699 16.281187 30.179195 15.486328 28.957031 z M 32.513672 28.957031 C 31.718813 30.179195 30.68297 31.22699 29.453125 32.011719 L 28.560547 31.654297 C 28.320725 31.799671 28.074512 31.936017 27.820312 32.058594 L 29.453125 32.712891 C 30.771057 31.871956 31.878651 30.737615 32.691406 29.400391 L 32.513672 28.957031 z M 14.443359 31.5625 L 14.248047 32.048828 C 14.760833 32.669167 15.330833 33.239167 15.951172 33.751953 L 17.433594 33.158203 C 17.229456 33.011681 17.033357 32.854752 16.839844 32.695312 L 15.951172 33.050781 C 15.405528 32.59974 14.906433 32.097393 14.443359 31.5625 z M 33.556641 31.5625 C 33.093568 32.097393 32.594472 32.59974 32.048828 33.050781 L 31.160156 32.695312 C 30.966643 32.854752 30.770544 33.011681 30.566406 33.158203 L 32.048828 33.751953 C 32.669167 33.239167 33.239167 32.669167 33.751953 32.048828 L 33.556641 31.5625 z M 21.003906 32.40625 L 21.705078 34.041016 C 22.443776 34.212134 23.209952 34.3125 24 34.3125 C 24.790048 34.3125 25.556224 34.212134 26.294922 34.041016 L 26.996094 32.40625 C 26.882368 32.447361 26.764188 32.478894 26.648438 32.515625 L 26.294922 33.339844 C 25.556224 33.510961 24.790048 33.611328 24 33.611328 C 23.209952 33.611328 22.443776 33.510961 21.705078 33.339844 L 21.351562 32.515625 C 21.235812 32.478894 21.117632 32.447361 21.003906 32.40625 z M 14.564453 33.605469 L 13.445312 34.054688 L 13.113281 34.882812 L 13.117188 34.886719 L 15.087891 34.097656 C 14.908225 33.939014 14.735282 33.773284 14.564453 33.605469 z M 33.435547 33.605469 C 33.264718 33.773284 33.091775 33.939014 32.912109 34.097656 L 34.882812 34.886719 L 34.886719 34.882812 L 34.554688 34.054688 L 33.435547 33.605469 z M 22.164062 35.113281 L 22.794922 36.587891 C 23.191697 36.625521 23.593495 36.650391 24 36.650391 C 24.406505 36.650391 24.808303 36.625521 25.205078 36.587891 L 25.835938 35.113281 C 25.731024 35.130441 25.623255 35.139372 25.517578 35.154297 L 25.205078 35.886719 C 24.808303 35.92442 24.406505 35.949219 24 35.949219 C 23.593495 35.949219 23.191697 35.924349 22.794922 35.886719 L 22.482422 35.154297 C 22.376745 35.139372 22.268976 35.130441 22.164062 35.113281 z M 23.15625 37.433594 L 24 39.400391 L 24.84375 37.433594 C 24.741765 37.439902 24.638894 37.442684 24.537109 37.449219 L 24 38.699219 L 23.462891 37.449219 C 23.361106 37.442684 23.258235 37.439902 23.15625 37.433594 z "
     id="path4578"
     transform="scale(0.28222223,0.28222223)" />
  <path
     style="line-height:normal;color:#bebebe;fill:#ffffff;fill-opacity:0.23529412"
     clip-path="none"
     d="M 24 8.5996094 L 23.15625 10.566406 C 23.214694 10.562791 23.273716 10.562485 23.332031 10.558594 L 24 9 L 24.667969 10.558594 C 24.726284 10.562485 24.785306 10.562791 24.84375 10.566406 L 24 8.5996094 z M 24 11.349609 C 23.593495 11.349609 23.191697 11.374479 22.794922 11.412109 L 22.164062 12.886719 C 22.223922 12.876928 22.285598 12.872368 22.345703 12.863281 L 22.794922 11.8125 C 23.191697 11.774874 23.593495 11.75 24 11.75 C 24.406505 11.75 24.808303 11.77487 25.205078 11.8125 L 25.654297 12.863281 C 25.714403 12.872368 25.776077 12.876928 25.835938 12.886719 L 25.205078 11.412109 C 24.808303 11.374479 24.406505 11.349609 24 11.349609 z M 13.117188 13.113281 L 13.113281 13.117188 L 13.300781 13.587891 L 14.789062 14.183594 C 14.888813 14.089976 14.985276 13.992951 15.087891 13.902344 L 13.117188 13.113281 z M 34.882812 13.113281 L 32.912109 13.902344 C 33.014724 13.992951 33.111187 14.089976 33.210938 14.183594 L 34.699219 13.587891 L 34.886719 13.117188 L 34.882812 13.113281 z M 24 13.962891 C 23.162193 13.962891 22.351659 14.075813 21.572266 14.267578 L 20.863281 15.919922 C 20.928953 15.894906 20.998065 15.877058 21.064453 15.853516 L 21.572266 14.667969 C 22.351659 14.476205 23.162193 14.363281 24 14.363281 C 24.837807 14.363281 25.648341 14.476204 26.427734 14.667969 L 26.935547 15.853516 C 27.001935 15.877058 27.071047 15.894906 27.136719 15.919922 L 26.427734 14.267578 C 25.648341 14.075813 24.837807 13.962891 24 13.962891 z M 15.951172 14.248047 C 15.330833 14.760833 14.760833 15.330833 14.248047 15.951172 L 14.359375 16.228516 C 14.844176 15.657346 15.373521 15.125937 15.951172 14.648438 L 17.09375 15.105469 C 17.206953 15.017499 17.316964 14.925509 17.433594 14.841797 L 15.951172 14.248047 z M 32.048828 14.248047 L 30.566406 14.841797 C 30.683036 14.925509 30.793047 15.017499 30.90625 15.105469 L 32.048828 14.648438 C 32.62648 15.125937 33.155824 15.657346 33.640625 16.228516 L 33.751953 15.951172 C 33.239167 15.330833 32.669167 14.760833 32.048828 14.248047 z M 18.818359 15.396484 C 17.418929 16.229274 16.237451 17.384235 15.375 18.763672 L 15.476562 19.019531 C 16.329904 17.705963 17.469702 16.59945 18.818359 15.796875 L 20.041016 16.287109 C 20.189957 16.211943 20.336482 16.133186 20.490234 16.066406 L 18.818359 15.396484 z M 29.181641 15.396484 L 27.509766 16.066406 C 27.663518 16.133186 27.810043 16.211943 27.958984 16.287109 L 29.181641 15.796875 C 30.530298 16.59945 31.670096 17.705963 32.523438 19.019531 L 32.625 18.763672 C 31.762549 17.384235 30.581071 16.229274 29.181641 15.396484 z M 15.818359 20.908203 L 14.152344 21.621094 C 13.946002 22.427695 13.824219 23.266629 13.824219 24.136719 C 13.824219 24.209371 13.834304 24.279301 13.835938 24.351562 C 13.85209 23.548546 13.960917 22.769784 14.152344 22.021484 L 15.65625 21.376953 C 15.708472 21.219857 15.758004 21.06139 15.818359 20.908203 z M 32.181641 20.908203 C 32.241996 21.06139 32.291528 21.219857 32.34375 21.376953 L 33.847656 22.021484 C 34.039083 22.769784 34.14791 23.548546 34.164062 24.351562 C 34.165696 24.279301 34.175781 24.209371 34.175781 24.136719 C 34.175781 23.266629 34.053998 22.427695 33.847656 21.621094 L 32.181641 20.908203 z M 12.886719 22.164062 L 11.412109 22.794922 C 11.374479 23.191697 11.349609 23.593495 11.349609 24 C 11.349609 24.067192 11.358071 24.132285 11.359375 24.199219 C 11.36601 23.861879 11.38076 23.525863 11.412109 23.195312 L 12.832031 22.587891 C 12.850819 22.446852 12.863873 22.303736 12.886719 22.164062 z M 35.113281 22.164062 C 35.136127 22.303736 35.149181 22.446852 35.167969 22.587891 L 36.587891 23.195312 C 36.619299 23.525863 36.634004 23.861879 36.640625 24.199219 C 36.641929 24.132285 36.650391 24.067192 36.650391 24 C 36.650391 23.593495 36.625521 23.191697 36.587891 22.794922 L 35.113281 22.164062 z M 10.566406 23.15625 L 8.5996094 24 L 9.0664062 24.199219 L 10.546875 23.564453 C 10.554829 23.428802 10.55801 23.291992 10.566406 23.15625 z M 37.433594 23.15625 C 37.44199 23.291992 37.445171 23.428802 37.453125 23.564453 L 38.933594 24.199219 L 39.400391 24 L 37.433594 23.15625 z M 10.535156 24.199219 C 10.532872 24.26652 10.525391 24.332431 10.525391 24.400391 C 10.525391 24.547531 10.538388 24.691189 10.546875 24.835938 L 10.566406 24.84375 C 10.553149 24.629413 10.542415 24.414859 10.535156 24.199219 z M 12.734375 24.199219 C 12.732911 24.26665 12.724609 24.332591 12.724609 24.400391 C 12.724609 24.880822 12.7703 25.349086 12.832031 25.8125 L 12.886719 25.835938 C 12.799321 25.30161 12.746367 24.755564 12.734375 24.199219 z M 35.265625 24.199219 C 35.253633 24.755564 35.200679 25.30161 35.113281 25.835938 L 35.167969 25.8125 C 35.229699 25.349086 35.275391 24.880822 35.275391 24.400391 C 35.275391 24.332591 35.267089 24.26665 35.265625 24.199219 z M 37.464844 24.199219 C 37.457585 24.414859 37.446851 24.629413 37.433594 24.84375 L 37.453125 24.835938 C 37.461625 24.691189 37.474609 24.547531 37.474609 24.400391 C 37.474609 24.332432 37.467128 24.26652 37.464844 24.199219 z M 15.208984 24.347656 C 15.207582 24.411274 15.199219 24.473134 15.199219 24.537109 C 15.199219 25.387608 15.332182 26.203843 15.558594 26.980469 L 15.699219 27.041016 C 15.40407 26.194728 15.232485 25.290079 15.208984 24.347656 z M 32.791016 24.347656 C 32.767515 25.290079 32.59593 26.194728 32.300781 27.041016 L 32.441406 26.980469 C 32.667818 26.203843 32.800781 25.387608 32.800781 24.537109 C 32.800781 24.473134 32.792418 24.411274 32.791016 24.347656 z M 15.972656 27.740234 L 15.308594 29.400391 C 15.339558 29.451336 15.378341 29.496524 15.410156 29.546875 L 15.972656 28.140625 C 16.754476 29.884013 18.09105 31.311063 19.753906 32.228516 L 20.179688 32.058594 C 18.31675 31.160278 16.820768 29.631449 15.972656 27.740234 z M 32.027344 27.740234 C 31.179232 29.631449 29.68325 31.160278 27.820312 32.058594 L 28.246094 32.228516 C 29.90895 31.311063 31.245525 29.884013 32.027344 28.140625 L 32.589844 29.546875 C 32.621659 29.496524 32.660442 29.451336 32.691406 29.400391 L 32.027344 27.740234 z M 14.841797 30.566406 L 14.248047 32.048828 C 14.283333 32.091516 14.323549 32.129666 14.359375 32.171875 L 14.841797 30.966797 C 15.475433 31.849594 16.23879 32.627171 17.095703 33.292969 L 17.433594 33.158203 C 16.43441 32.441029 15.558971 31.56559 14.841797 30.566406 z M 33.158203 30.566406 C 32.441029 31.56559 31.56559 32.441029 30.566406 33.158203 L 30.904297 33.292969 C 31.76121 32.627171 32.524567 31.849594 33.158203 30.966797 L 33.640625 32.171875 C 33.676451 32.129666 33.716667 32.091516 33.751953 32.048828 L 33.158203 30.566406 z M 21.003906 32.40625 L 21.203125 32.869141 C 22.082872 33.164852 23.019196 33.337891 24 33.337891 C 24.980805 33.337891 25.917129 33.164853 26.796875 32.869141 L 26.996094 32.40625 C 26.060103 32.7446 25.054246 32.9375 24 32.9375 C 22.945754 32.9375 21.939897 32.7446 21.003906 32.40625 z M 13.902344 32.912109 L 13.113281 34.882812 L 13.117188 34.886719 L 13.300781 34.8125 L 13.902344 33.3125 C 14.18211 33.629341 14.481067 33.927737 14.789062 34.216797 L 15.087891 34.097656 C 14.668435 33.727282 14.272718 33.331565 13.902344 32.912109 z M 34.097656 32.912109 C 33.727282 33.331565 33.331565 33.727282 32.912109 34.097656 L 33.210938 34.216797 C 33.518933 33.927737 33.81789 33.629341 34.097656 33.3125 L 34.699219 34.8125 L 34.882812 34.886719 L 34.886719 34.882812 L 34.097656 32.912109 z M 22.164062 35.113281 L 22.345703 35.537109 C 22.886653 35.618881 23.436016 35.675781 24 35.675781 C 24.563984 35.675781 25.113346 35.618881 25.654297 35.537109 L 25.835938 35.113281 C 25.237337 35.211191 24.626649 35.275391 24 35.275391 C 23.373351 35.275391 22.762662 35.211191 22.164062 35.113281 z M 23.15625 37.433594 L 23.332031 37.841797 C 23.553686 37.856577 23.774336 37.875 24 37.875 C 24.225663 37.875 24.446314 37.856593 24.667969 37.841797 L 24.84375 37.433594 C 24.563162 37.450949 24.285033 37.474609 24 37.474609 C 23.714967 37.474609 23.436838 37.450949 23.15625 37.433594 z "
     transform="scale(0.28222223,0.28222223)"
     id="path4591" />
  <path
     style="color:#bebebe;fill:#ffffff;fill-opacity:0.23529412"
     d="M 24 16.4375 C 19.747407 16.4375 16.300781 19.884125 16.300781 24.136719 C 16.300781 24.203988 16.308832 24.269082 16.310547 24.335938 C 16.418256 20.177246 19.815334 16.837891 24 16.837891 C 28.184667 16.837891 31.581744 20.177246 31.689453 24.335938 C 31.691168 24.269082 31.699219 24.203988 31.699219 24.136719 C 31.699219 19.884125 28.252594 16.4375 24 16.4375 z "
     transform="scale(0.28222223,0.28222223)"
     id="path4612" />
</svg>
