<?xml version="1.0" encoding="UTF-8" standalone="no"?>
<!-- Created with Inkscape (http://www.inkscape.org/) -->

<svg
   xmlns:dc="http://purl.org/dc/elements/1.1/"
   xmlns:cc="http://creativecommons.org/ns#"
   xmlns:rdf="http://www.w3.org/1999/02/22-rdf-syntax-ns#"
   xmlns:svg="http://www.w3.org/2000/svg"
   xmlns="http://www.w3.org/2000/svg"
   xmlns:xlink="http://www.w3.org/1999/xlink"
   xmlns:sodipodi="http://sodipodi.sourceforge.net/DTD/sodipodi-0.dtd"
   xmlns:inkscape="http://www.inkscape.org/namespaces/inkscape"
   width="48"
   height="48"
   id="svg2"
   version="1.1"
   inkscape:version="0.48+devel r12487"
   sodipodi:docname="okular.svg">
  <defs
     id="defs4">
    <linearGradient
       id="linearGradient1028"
       inkscape:collect="always">
      <stop
         id="stop1030"
         offset="0"
         style="stop-color:#247cb4;stop-opacity:1" />
      <stop
         id="stop1032"
         offset="1"
         style="stop-color:#3395d2;stop-opacity:1" />
    </linearGradient>
    <linearGradient
       inkscape:collect="always"
       id="linearGradient4032">
      <stop
         style="stop-color:#502d16;stop-opacity:1"
         offset="0"
         id="stop4034" />
      <stop
         style="stop-color:#a05a2c;stop-opacity:1"
         offset="1"
         id="stop4036" />
    </linearGradient>
    <linearGradient
       id="linearGradient3694">
      <stop
         id="stop3696"
         style="stop-color:#e6e6e6;stop-opacity:1"
         offset="0" />
      <stop
         id="stop3698"
         style="stop-color:#f5f5f5;stop-opacity:1"
         offset="1" />
    </linearGradient>
    <linearGradient
       id="linearGradient1514"
       inkscape:collect="always">
      <stop
         id="stop1516"
         offset="0"
         style="stop-color:#e6e6e6;stop-opacity:1" />
      <stop
         id="stop1518"
         offset="1"
         style="stop-color:#ffffff;stop-opacity:1" />
    </linearGradient>
    <linearGradient
       gradientTransform="scale(1,-1)"
       gradientUnits="userSpaceOnUse"
       y2="-1004.6122"
       x2="24.124998"
       y1="-1052.8622"
       x1="24.124998"
       id="linearGradient1431"
       xlink:href="#linearGradient3694"
       inkscape:collect="always" />
    <linearGradient
       gradientTransform="scale(1,-1)"
       y2="-1004.6122"
       x2="24.124998"
       y1="-1052.8622"
       x1="24.124998"
       gradientUnits="userSpaceOnUse"
       id="linearGradient1437"
       xlink:href="#linearGradient4032"
       inkscape:collect="always" />
    <linearGradient
       gradientUnits="userSpaceOnUse"
       y2="38.875"
       x2="24.3125"
       y1="48.0625"
       x1="24.3125"
       id="linearGradient1520"
       xlink:href="#linearGradient1514"
       inkscape:collect="always"
       gradientTransform="translate(0,1004.3622)" />
    <linearGradient
       gradientTransform="translate(0,0.140625)"
       gradientUnits="userSpaceOnUse"
       y2="1042.9716"
       x2="13.765625"
       y1="1051.1434"
       x1="13.765625"
       id="linearGradient1577"
       xlink:href="#linearGradient1028"
       inkscape:collect="always" />
    <linearGradient
       inkscape:collect="always"
       xlink:href="#linearGradient1028"
       id="linearGradient4208"
       x1="57.75"
       y1="1041.1122"
       x2="57.75"
       y2="1010.3622"
       gradientUnits="userSpaceOnUse" />
    <linearGradient
       inkscape:collect="always"
       xlink:href="#linearGradient1028"
       id="linearGradient4213"
       gradientUnits="userSpaceOnUse"
       x1="57.75"
       y1="1041.1122"
       x2="57.75"
       y2="1010.3622" />
  </defs>
  <sodipodi:namedview
     id="base"
     pagecolor="#ffffff"
     bordercolor="#666666"
     borderopacity="1.0"
     inkscape:pageopacity="0.0"
     inkscape:pageshadow="2"
     inkscape:zoom="2.8284271"
     inkscape:cx="40.534733"
     inkscape:cy="53.036889"
     inkscape:document-units="px"
     inkscape:current-layer="layer1"
     showgrid="false"
     inkscape:window-width="1366"
     inkscape:window-height="714"
     inkscape:window-x="0"
     inkscape:window-y="30"
     inkscape:window-maximized="1" />
  <metadata
     id="metadata7">
    <rdf:RDF>
      <cc:Work
         rdf:about="">
        <dc:format>image/svg+xml</dc:format>
        <dc:type
           rdf:resource="http://purl.org/dc/dcmitype/StillImage" />
        <dc:title />
      </cc:Work>
    </rdf:RDF>
  </metadata>
  <g
     inkscape:label="Capa 1"
     inkscape:groupmode="layer"
     id="layer1"
     transform="translate(0,-1004.3622)">
    <path
       inkscape:connector-curvature="0"
       style="fill:url(#linearGradient1520);fill-opacity:1;stroke:none"
       d="m 5.6875,1043.2372 c -2.5276247,0 -4.5625,2.0349 -4.5625,4.5625 0,2.5276 2.0348753,4.5625 4.5625,4.5625 l 42.3125,0 0,-9.125 L 5.6875,1043.2372 Z"
       id="rect1448" />
    <path
       inkscape:connector-curvature="0"
       style="fill:#000000;fill-opacity:0.32960893;stroke:none"
       d="m 0.65625,1044.6747 0,0.375 c 0.34124177,0.3021 0.7850811,0.5 1.28125,0.5 l 44.125,0 c 0.496169,0 0.940008,-0.1979 1.28125,-0.5 l 0,-0.375 c -0.341242,0.3021 -0.785081,0.5 -1.28125,0.5 l -44.125,0 C 1.4413311,1045.1747 0.99749177,1044.9768 0.65625,1044.6747 z m 0,1.25 0,0.375 c 0.34124177,0.3021 0.7850811,0.5 1.28125,0.5 l 44.125,0 c 0.496169,0 0.940008,-0.1979 1.28125,-0.5 l 0,-0.375 c -0.341242,0.3021 -0.785081,0.5 -1.28125,0.5 l -44.125,0 C 1.4413311,1046.4247 0.99749177,1046.2268 0.65625,1045.9247 z m 0,1.25 0,0.375 c 0.34124177,0.3021 0.7850811,0.5 1.28125,0.5 l 44.125,0 c 0.496169,0 0.940008,-0.1979 1.28125,-0.5 l 0,-0.375 c -0.341242,0.3021 -0.785081,0.5 -1.28125,0.5 l -44.125,0 C 1.4413311,1047.6747 0.99749177,1047.4768 0.65625,1047.1747 z m 0,1.25 0,0.375 c 0.34124177,0.3021 0.7850811,0.5 1.28125,0.5 l 44.125,0 c 0.496169,0 0.940008,-0.1979 1.28125,-0.5 l 0,-0.375 c -0.341242,0.3021 -0.785081,0.5 -1.28125,0.5 l -44.125,0 C 1.4413311,1048.9247 0.99749177,1048.7268 0.65625,1048.4247 z m 0,1.25 0,0.1563 c 0,0.083 0.0209214,0.1696 0.03125,0.25 0.3368066,0.2842 0.7704046,0.4687 1.25,0.4687 l 44.125,0 c 0.479595,0 0.913193,-0.1845 1.25,-0.4687 0.01033,-0.08 0.03125,-0.1666 0.03125,-0.25 l 0,-0.1563 c -0.341242,0.3021 -0.785081,0.5 -1.28125,0.5 l -44.125,0 C 1.4413311,1050.1747 0.99749177,1049.9768 0.65625,1049.6747 Z"
       id="path1497" />
    <path
       style="fill:url(#linearGradient1577);fill-opacity:1.0;stroke:none"
       d="m 9.78125,1043.2215 0,8.0313 4.03125,-2.0313 4,2 0,-8 L 9.78125,1043.2215 Z"
       id="rect1566"
       inkscape:connector-curvature="0" />
    <path
       style="fill:url(#linearGradient1431);fill-opacity:1;stroke:none"
       d="m 1.9375,1004.3622 c -1.07727715,0 -1.9375,0.8602 -1.9375,1.9375 l 0,35 c 0,1.0773 0.86022298,1.9375 1.9375,1.9375 l 2.625,0 41.5,0 c 1.077277,0 1.9375,-0.8602 1.9375,-1.9375 l 0,-35 C 48,1005.2224 47.139777,1004.3622 46.0625,1004.3622 z m -1.9375,38 0,5.4375 c 0,-1.4336 0.65973457,-2.696 1.6875,-3.5312 C 0.72786097,1044.1494 0,1043.3563 0,1042.3622 z m 0,5.4375 0,2.625 c 0,1.0773 0.86022285,1.9375 1.9375,1.9375 l 2.625,0 C 2.0348753,1052.3622 0,1050.3273 0,1047.7997 Z"
       id="rect2991-1"
       inkscape:connector-curvature="0"
       sodipodi:nodetypes="sssscssssscccccsscc" />
    <path
       style="fill:#000000;fill-opacity:0.21229051;stroke:none"
       d="m 13.8125,1049.2063 -4.03125,2.0312 0,0.1875 4.03125,-2.0312 4,2 0,-0.1875 L 13.8125,1049.2063 Z"
       id="path1579"
       inkscape:connector-curvature="0" />
    <path
       inkscape:connector-curvature="0"
       style="fill:url(#linearGradient1437);fill-opacity:1;stroke:none"
       d="m 1.9375,1004.3622 c -1.07727715,0 -1.9375,0.8602 -1.9375,1.9375 l 0,44.125 c 0,1.0773 0.86022285,1.9375 1.9375,1.9375 l 3.75,0 c -2.5276247,0 -4.5625,-2.0349 -4.5625,-4.5625 0,-2.5276 2.0348753,-4.5625 4.5625,-4.5625 l 4.5625,0 0,-38.875 L 1.9375,1004.3622 Z"
       id="rect1433" />
    <path
       inkscape:connector-curvature="0"
       style="fill:#000000;fill-opacity:0.12849163;stroke:none"
       d="m 9.75,1004.3622 0,38.875 0.5,0 0,-38.875 L 9.75,1004.3622 Z"
       id="rect1469" />
    <path
       inkscape:connector-curvature="0"
       style="fill:#ffffff;fill-opacity:0.12941176;stroke:none"
       d="m 10.25,1004.3622 0,38.875 0.5,0 0,-38.875 L 10.25,1004.3622 Z"
       id="rect1471" />
    <path
       inkscape:connector-curvature="0"
       style="fill:#000000;fill-opacity:0.39106146;stroke:none"
       d="m 48,1041.2997 c 0,1.0773 -0.860223,1.9375 -1.9375,1.9375 l -35.8125,0 -4.5625,0 c -2.5276247,0 -4.5625,2.0349 -4.5625,4.5625 0,0.066 0.021322,0.1255 0.03125,0.1875 0.1340071,-2.4056 2.090977,-4.3125 4.53125,-4.3125 l 4.5625,0 35.8125,0 c 1.077277,0 1.9375,-0.8602 1.9375,-1.9375 L 48,1041.2997 Z"
       id="path1480" />
    <path
       id="path1493"
       d="m 48,1041.7384 c 0,1.0773 -0.860223,1.9375 -1.9375,1.9375 l -35.8125,0 -4.5625,0 c -2.5276247,0 -4.5625,2.0349 -4.5625,4.5625 0,0.066 0.021322,0.1255 0.03125,0.1875 0.1340071,-2.4056 2.090977,-4.3125 4.53125,-4.3125 l 4.5625,0 35.8125,0 c 1.077277,0 1.9375,-0.8602 1.9375,-1.9375 L 48,1041.7384 Z"
       style="fill:#000000;fill-opacity:0.22905028;stroke:none"
       inkscape:connector-curvature="0" />
    <path
       inkscape:connector-curvature="0"
       style="fill:#000000;fill-opacity:0.12849163;stroke:none"
       d="m 48,1042.1751 c 0,1.0773 -0.860223,1.9375 -1.9375,1.9375 l -35.8125,0 -4.5625,0 c -2.5276247,0 -4.5625,2.0349 -4.5625,4.5625 0,0.066 0.021322,0.1255 0.03125,0.1875 0.1340071,-2.4056 2.090977,-4.3125 4.53125,-4.3125 l 4.5625,0 35.8125,0 c 1.077277,0 1.9375,-0.8602 1.9375,-1.9375 L 48,1042.1751 Z"
       id="path1495" />
    <path
       style="fill:#000000;fill-opacity:0.15642461;stroke:none"
       d="m 48,1040.3622 c 0,1.0773 -0.860223,1.9375 -1.9375,1.9375 l -35.8125,0 -4.5625,0 c -2.5276247,0 -4.5625,2.0349 -4.5625,4.5625 0,0.1639 0.045804,0.3094 0.0625,0.4688 0.2407529,-2.2979 2.1362992,-4.0938 4.5,-4.0938 l 4.5625,0 35.8125,0 C 47.139777,1043.2372 48,1042.377 48,1041.2997 Z"
       id="path1522"
       inkscape:connector-curvature="0"
       sodipodi:nodetypes="cscsscscssc" />
    <path
       inkscape:connector-curvature="0"
       style="fill:#000000;fill-opacity:1;stroke:none"
       d="m -2.4158142e-6,1049.3622 0,1.0625 c 0,1.0773 0.8602229958142,1.9375 1.9375000158142,1.9375 l 44.1250004,0 c 1.077277,0 1.937505,-0.8602 1.937505,-1.9375 l 0,-1.0625 c 0,1.0773 -0.860228,1.9375 -1.937505,1.9375 l -44.1250004,0 C 0.86022058,1051.2997 -2.4158142e-6,1050.4395 -2.4158142e-6,1049.3622 Z"
       id="rect846" />
    <path
       inkscape:connector-curvature="0"
       style="fill:#000000;fill-opacity:0.39215686;stroke:none"
       d="m 1.9374976,1004.3622 c -1.07727702,0 -1.9375000158142,0.8602 -1.9375000158142,1.9375 l 0,43.0625 c 0,0.7934 0.4800239958142,1.449 1.1562500158142,1.75 -0.30934202,-0.3333 -0.50000002,-0.7824 -0.50000002,-1.2812 l 0,-42.9375 c 0,-1.0482 0.82689902,-1.875 1.87500002,-1.875 l 42.9375004,0 c 1.048101,0 1.875005,0.8268 1.875005,1.875 l 0,42.9375 c 0,0.4988 -0.190663,0.9479 -0.500005,1.2812 0.676225,-0.301 1.156255,-0.9566 1.156255,-1.75 l 0,-43.0625 c 0,-1.0773 -0.860228,-1.9375 -1.937505,-1.9375 L 1.9374976,1004.3622 Z"
       id="rect4280-0" />
    <path
       inkscape:connector-curvature="0"
       style="fill:#ffffff;fill-opacity:0.5372549;stroke:none"
       d="m 2.5312476,1005.0185 c -0.917088,0 -1.67114702,0.6395 -1.84375002,1.5 0.33561202,-0.2799 0.77451202,-0.4375 1.25000002,-0.4375 l 44.1250004,0 c 0.475488,0 0.914388,0.1576 1.250005,0.4375 -0.172608,-0.8605 -0.926667,-1.5 -1.843755,-1.5 L 2.5312476,1005.0185 Z"
       id="path7515" />
    <g
       id="g4332"
       transform="matrix(1.022907,0,0,1.022907,-0.9392501,-22.093409)">
      <g
         transform="matrix(0.58417198,0,0,0.58417198,-2.2943927,423.78092)"
         id="text1037"
         style="font-size:44.13499832px;font-style:normal;font-variant:normal;font-weight:normal;font-stretch:normal;text-align:start;line-height:125%;letter-spacing:0px;word-spacing:0px;writing-mode:lr-tb;text-anchor:start;fill:url(#linearGradient4208);fill-opacity:1;stroke:none;font-family:Alex Brush;-inkscape-font-specification:Alex Brush">
        <path
           inkscape:connector-curvature="0"
           id="path4211"
           style="fill:url(#linearGradient4213);fill-opacity:1"
           d="m 69.439743,1019.1087 c 0.485485,-1.0151 0.750295,-2.0302 0.750295,-3.0012 0,-1.7212 -0.750295,-3.1335 -2.250885,-4.2369 -1.58886,-1.1917 -3.839745,-1.7654 -6.752655,-1.7654 -0.573755,0 -1.191645,0.044 -1.7654,0.088 -4.898985,0.3972 -9.7097,2.2508 -14.432145,5.6492 -4.236959,3.0454 -7.105734,6.2231 -8.650459,9.6215 -1.191645,2.6481 -1.809535,5.0314 -1.809535,7.194 0,4.899 3.17772,7.856 7.811895,8.0767 0.662025,0.044 1.279915,0.044 1.85367,0.044 7.194004,0 13.681849,-2.604 19.463534,-7.7677 3.751475,-3.3543 5.64928,-6.8851 5.64928,-10.5483 0,-0.8386 -0.132405,-1.6771 -0.35308,-2.4274 L 69.439743,1019.1087 z m -1.05924,-0.3972 c -1.23578,-2.2509 -3.398395,-3.7515 -6.487845,-4.5018 -1.67713,-0.3972 -3.08945,-0.5737 -4.23696,-0.5737 -1.279915,0 -2.603965,0.2207 -3.97215,0.662 -0.04414,0.044 -0.08827,0.088 -0.08827,0.1324 0,0.088 0.79443,0.1766 2.339155,0.2207 1.85367,0.044 3.221855,0.1765 4.06042,0.3972 1.632995,0.4855 3.045315,1.2358 4.23696,2.295 1.368185,1.1917 2.162615,2.604 2.38329,4.237 -1.015105,1.2358 -2.55983,2.7364 -4.634175,4.5459 l -2.47156,2.0302 c -1.015105,0.8386 -1.41232,1.2358 -1.14751,1.2358 0.04414,0 0.17654,-0.044 0.35308,-0.088 3.751475,-2.295 6.399575,-4.2811 7.9443,-6.0023 -0.308945,3.0453 -2.339155,6.223 -6.09063,9.5772 -5.605145,4.9873 -11.56337,7.3265 -17.786404,6.9734 -3.928015,-0.2207 -5.869955,-2.295 -5.869955,-6.1348 0,-2.3833 0.79443,-5.1196 2.427425,-8.165 2.20675,-4.1928 5.20793,-7.5912 9.003539,-10.2393 4.104555,-2.8688 8.341515,-4.2811 12.79915,-4.2811 3.221855,0 5.428605,0.8827 6.70852,2.6481 0.662025,0.9269 0.97097,1.8537 0.97097,2.8688 C 68.821853,1017.2551 68.689448,1017.9612 68.380503,1018.7115 Z" />
      </g>
      <path
         inkscape:connector-curvature="0"
         id="path4217"
         d="m 33.41297,1013.9343 c -2.604025,0 -5.055674,0.8186 -7.45344,2.4945 -2.217288,1.5469 -3.970363,3.5315 -5.259485,5.9808 -0.95395,1.779 -1.442601,3.3863 -1.442601,4.7786 0,0.076 0.02746,0.1369 0.03005,0.2104 0.03735,-1.3504 0.498619,-2.894 1.412547,-4.5983 1.289122,-2.4494 3.042197,-4.4338 5.259485,-5.9808 2.397766,-1.6759 4.849415,-2.4945 7.45344,-2.4945 1.882117,0 3.18941,0.5014 3.9371,1.5328 0.351931,0.4927 0.511224,1.0012 0.540976,1.5327 0.0059,-0.079 0.03005,-0.1619 0.03005,-0.2404 0,-0.593 -0.184293,-1.1416 -0.57103,-1.6831 C 36.60238,1014.4358 35.295087,1013.9343 33.41297,1013.9343 z m -3.456232,2.0737 c -0.292978,0.061 -0.601371,0.1136 -0.901626,0.2104 -0.02578,0.026 -0.03005,0.064 -0.03005,0.09 0,0.052 0.450054,0.094 1.352439,0.1203 1.082861,0.026 1.884415,0.1115 2.374281,0.2404 0.95395,0.2836 1.768318,0.7337 2.464444,1.3525 0.711549,0.6197 1.142131,1.3398 1.322385,2.1639 0.02371,-0.028 0.06737,-0.062 0.09016,-0.09 -0.128911,-0.954 -0.613292,-1.7683 -1.412547,-2.4645 -0.696126,-0.6187 -1.510494,-1.0687 -2.464444,-1.3524 -0.489866,-0.1289 -1.29142,-0.2144 -2.374281,-0.2404 C 30.191574,1016.0328 30.105223,1016.0153 29.956738,1016.008 z m 8.715717,1.1421 c -0.03755,0.4918 -0.147768,0.9948 -0.390705,1.5027 l -0.300542,0.541 c 0.02525,0.086 0.03901,0.1811 0.06011,0.2705 l 0.240433,-0.4208 c 0.283607,-0.593 0.420759,-1.1759 0.420759,-1.7431 C 38.702509,1017.2475 38.674876,1017.202 38.672455,1017.1501 z m -0.510921,3.6666 c -0.06984,2.0654 -1.155782,4.0551 -3.275908,5.9507 -3.377498,3.0166 -7.157951,4.5382 -11.360486,4.5382 -0.335172,0 -0.695215,0 -1.081951,-0.03 -2.657776,-0.1264 -4.502082,-1.7992 -4.568238,-4.5682 -0.0028,0.08 0,0.1619 0,0.2404 0,2.8619 1.861082,4.5896 4.568238,4.7186 0.386736,0.026 0.746779,0.03 1.081951,0.03 4.202535,0 7.982988,-1.5217 11.360486,-4.5381 2.191507,-1.9597 3.305962,-4.0213 3.305962,-6.1613 C 38.191588,1020.9354 38.163932,1020.8782 38.161534,1020.8167 z m -1.50271,0.2705 c -0.809844,0.9024 -2.179143,1.9554 -4.027263,3.1257 l -0.150271,0.1202 c -0.592995,0.4899 -0.845941,0.7213 -0.691246,0.7213 0.02578,0 0.10725,-0.036 0.210379,-0.06 2.130632,-1.3034 3.656105,-2.4402 4.568238,-3.4261 C 36.599666,1021.4118 36.643094,1021.2423 36.658824,1021.0872 Z"
         style="font-size:44.13499832px;font-style:normal;font-variant:normal;font-weight:normal;font-stretch:normal;text-align:start;line-height:125%;letter-spacing:0px;word-spacing:0px;writing-mode:lr-tb;text-anchor:start;fill:#ffffff;fill-opacity:0.24096386;stroke:none;font-family:Alex Brush;-inkscape-font-specification:Alex Brush" />
      <path
         inkscape:connector-curvature="0"
         id="path4228"
         d="m 33.443025,1014.0145 c -0.335172,0 -0.686671,0.035 -1.021843,0.06 -2.861849,0.232 -5.68651,1.2906 -8.445229,3.276 -2.475113,1.779 -4.146721,3.6349 -5.049105,5.6201 -0.554598,1.2324 -0.875708,2.3771 -0.991789,3.4262 0.13415,-0.9971 0.469695,-2.0556 0.991789,-3.2158 0.902384,-1.9852 2.573992,-3.8411 5.049105,-5.6202 2.758719,-1.9852 5.58338,-3.0739 8.445229,-3.3059 0.335172,-0.025 0.686671,-0.06 1.021843,-0.06 1.70164,0 3.008932,0.3557 3.937099,1.0519 0.858621,0.6313 1.304772,1.4267 1.322385,2.4043 0.0016,-0.041 0,-0.08 0,-0.1202 0,-1.0055 -0.445782,-1.85 -1.322385,-2.4945 C 36.451957,1014.3402 35.144665,1014.0145 33.443025,1014.0145 z m -2.043686,2.0738 c -0.74769,0 -1.544972,0.1028 -2.344227,0.3606 -0.02578,0.026 -0.03005,0.064 -0.03005,0.09 0,0.024 0.109987,0.039 0.300542,0.06 0.01839,0 0.0099,0 0.03005,0 0.69494,-0.198 1.388357,-0.3306 2.043685,-0.3306 0.670343,0 1.484712,0.098 2.464444,0.3306 1.804771,0.4383 3.064921,1.3299 3.786829,2.6448 0.180477,-0.4383 0.270491,-0.85 0.270488,-1.2623 0,-0.029 8.74e-4,-0.061 0,-0.09 -0.01343,0.3737 -0.107045,0.7452 -0.270488,1.1421 -0.721908,-1.3149 -1.982058,-2.1765 -3.786829,-2.6147 C 32.884051,1016.1868 32.069682,1016.0883 31.399339,1016.0883 z m 6.611924,3.8469 -0.03005,0.06 c 0.06446,0.2192 0.114821,0.4528 0.150271,0.6913 C 38.102235,1020.4276 38.075487,1020.175 38.011263,1019.9352 z m 0.120216,0.7514 c 0.03122,0.21 0.05609,0.4455 0.06011,0.6612 7.52e-4,-0.039 0,-0.081 0,-0.1203 C 38.191588,1021.0434 38.151964,1020.8679 38.131479,1020.6866 z m -1.532764,0.06 c -0.593224,0.7165 -1.478575,1.5712 -2.674823,2.6147 l -1.442602,1.2022 c -0.592995,0.4899 -0.845941,0.7213 -0.691246,0.7213 0.0068,0 0.04658,0 0.06011,0 0.0087,0 0.0189,-0.027 0.03005,-0.03 0.116084,-0.1191 0.319702,-0.2784 0.601084,-0.5109 l 1.442602,-1.1721 c 1.211773,-1.0571 2.111882,-1.953 2.704877,-2.6748 C 36.621867,1020.8459 36.607539,1020.797 36.598715,1020.7467 z m 0.06011,1.1721 c -0.0085,0.01 -0.02143,0.021 -0.03006,0.03 -0.25567,1.7088 -1.449384,3.5048 -3.546395,5.3797 -3.274368,2.9135 -6.76343,4.2637 -10.398752,4.0574 -2.007807,-0.1129 -3.117562,-1.0587 -3.36607,-2.7951 0.191155,1.8611 1.284306,2.8884 3.36607,3.0054 3.635322,0.2063 7.124384,-1.1739 10.398752,-4.0873 C 35.273881,1025.5494 36.478347,1023.6978 36.658824,1021.9188 Z"
         style="font-size:44.13499832px;font-style:normal;font-variant:normal;font-weight:normal;font-stretch:normal;text-align:start;line-height:125%;letter-spacing:0px;word-spacing:0px;writing-mode:lr-tb;text-anchor:start;fill:#000000;fill-opacity:0.56626503;stroke:none;font-family:Alex Brush;-inkscape-font-specification:Alex Brush" />
    </g>
  </g>
</svg>
