<?xml version="1.0" encoding="UTF-8" standalone="no"?>
<!-- Created with Inkscape (http://www.inkscape.org/) -->

<svg
   xmlns:dc="http://purl.org/dc/elements/1.1/"
   xmlns:cc="http://creativecommons.org/ns#"
   xmlns:rdf="http://www.w3.org/1999/02/22-rdf-syntax-ns#"
   xmlns:svg="http://www.w3.org/2000/svg"
   xmlns="http://www.w3.org/2000/svg"
   xmlns:xlink="http://www.w3.org/1999/xlink"
   xmlns:sodipodi="http://sodipodi.sourceforge.net/DTD/sodipodi-0.dtd"
   xmlns:inkscape="http://www.inkscape.org/namespaces/inkscape"
   width="48"
   height="48"
   id="svg2"
   version="1.1"
   inkscape:version="0.49 r12742"
   sodipodi:docname="omgchrome.svg"
   inkscape:export-filename="/home/uri/workspace/NitruxforAndroid/res/drawable-xhdpi/omg_ubuntu.png"
   inkscape:export-xdpi="180"
   inkscape:export-ydpi="180">
  <defs
     id="defs4">
    <linearGradient
       gradientTransform="matrix(0.90339348,0,0,0.90343247,2.3185562,99.30648)"
       gradientUnits="userSpaceOnUse"
       y2="1012.2994"
       x2="30.405592"
       y1="1044.3625"
       x1="30.405592"
       id="linearGradient1424"
       xlink:href="#linearGradient1418"
       inkscape:collect="always" />
    <linearGradient
       id="linearGradient1418"
       inkscape:collect="always">
      <stop
         id="stop1420"
         offset="0"
         style="stop-color:#389aee;stop-opacity:1" />
      <stop
         id="stop1422"
         offset="1"
         style="stop-color:#339df5;stop-opacity:1" />
    </linearGradient>
    <linearGradient
       inkscape:collect="always"
       xlink:href="#linearGradient4081"
       id="linearGradient4087"
       x1="24.248386"
       y1="3.3583653"
       x2="24.248386"
       y2="18.361063"
       gradientUnits="userSpaceOnUse"
       gradientTransform="matrix(1.1234814,0,0,1.0584721,-2.8695926,1002.1599)" />
    <linearGradient
       inkscape:collect="always"
       id="linearGradient4081">
      <stop
         style="stop-color:#ffffff;stop-opacity:1;"
         offset="0"
         id="stop4083" />
      <stop
         style="stop-color:#ffffff;stop-opacity:0;"
         offset="1"
         id="stop4085" />
    </linearGradient>
    <linearGradient
       y2="-1012.941"
       x2="85.913475"
       y1="-1061.0243"
       x1="85.913475"
       gradientTransform="translate(-59.968935,8.2669176)"
       gradientUnits="userSpaceOnUse"
       id="linearGradient4156"
       xlink:href="#linearGradient5277"
       inkscape:collect="always" />
    <linearGradient
       inkscape:collect="always"
       id="linearGradient5277">
      <stop
         style="stop-color:#144786;stop-opacity:1"
         offset="0"
         id="stop5279" />
      <stop
         style="stop-color:#068edc;stop-opacity:1"
         offset="1"
         id="stop5281" />
    </linearGradient>
  </defs>
  <sodipodi:namedview
     id="base"
     pagecolor="#ffffff"
     bordercolor="#666666"
     borderopacity="1.0"
     inkscape:pageopacity="0.0"
     inkscape:pageshadow="2"
     inkscape:zoom="4.5086408"
     inkscape:cx="6.9462223"
     inkscape:cy="30.446665"
     inkscape:document-units="px"
     inkscape:current-layer="layer1"
     showgrid="false"
     inkscape:window-width="1366"
     inkscape:window-height="718"
     inkscape:window-x="0"
     inkscape:window-y="23"
     inkscape:window-maximized="1" />
  <metadata
     id="metadata7">
    <rdf:RDF>
      <cc:Work
         rdf:about="">
        <dc:format>image/svg+xml</dc:format>
        <dc:type
           rdf:resource="http://purl.org/dc/dcmitype/StillImage" />
        <dc:title />
      </cc:Work>
    </rdf:RDF>
  </metadata>
  <g
     inkscape:label="Capa 1"
     inkscape:groupmode="layer"
     id="layer1"
     transform="translate(0,-1004.3622)">
    <rect
       style="fill:url(#linearGradient4156);fill-opacity:1.0;stroke:none"
       id="rect2991-1"
       width="48"
       height="48"
       x="3.4727782e-07"
       y="-1052.3622"
       ry="1.9445436"
       transform="scale(1,-1)" />
    <path
       inkscape:connector-curvature="0"
       style="fill:#000000;fill-opacity:0.05882353;stroke:none"
       d="m 24.000001,1014.1622 c -8.535141,0 -15.4499669,6.6749 -15.4499669,14.9188 0,8.2439 6.9148259,14.9187 15.4499669,14.9187 2.443381,0 4.759089,-0.5446 6.813181,-1.5198 l 6.737198,2.4823 -2.330158,-5.623 c 2.623508,-2.6752 4.229744,-6.2826 4.229744,-10.2582 0,-8.2439 -6.914824,-14.9188 -15.449965,-14.9188 z"
       id="path4192" />
    <path
       id="path4190"
       d="m 24.000001,1013.7622 c -8.535141,0 -15.4499669,6.6749 -15.4499669,14.9188 0,8.2439 6.9148259,14.9187 15.4499669,14.9187 2.443381,0 4.759089,-0.5446 6.813181,-1.5198 l 6.737198,2.4823 -2.330158,-5.623 c 2.623508,-2.6752 4.229744,-6.2826 4.229744,-10.2582 0,-8.2439 -6.914824,-14.9188 -15.449965,-14.9188 z"
       style="fill:#000000;fill-opacity:0.11764706;stroke:none"
       inkscape:connector-curvature="0" />
    <g
       transform="matrix(1.9350978,-0.10494996,0.10866101,1.8690084,3.2660175,929.54502)"
       style="font-size:2.16666675px;font-style:normal;font-weight:normal;fill:#ffffff;fill-opacity:1;stroke:none;font-family:monospace;-inkscape-font-specification:monospace"
       id="text3204" />
    <path
       inkscape:connector-curvature="0"
       style="fill:#000000;fill-opacity:0.23529412;stroke:none"
       d="m 24.000001,1013.3622 c -8.535141,0 -15.4499669,6.6749 -15.4499669,14.9188 0,8.2439 6.9148259,14.9187 15.4499669,14.9187 2.443381,0 4.759089,-0.5446 6.813181,-1.5198 l 6.737198,2.4823 -2.330158,-5.623 c 2.623508,-2.6752 4.229744,-6.2826 4.229744,-10.2582 0,-8.2439 -6.914824,-14.9188 -15.449965,-14.9188 z"
       id="path4188" />
    <path
       id="path4061"
       d="m 24.000001,1014.2741 c -8.016288,0 -14.5107592,6.269 -14.5107592,14.0118 0,7.7429 6.4944712,14.0118 14.5107592,14.0118 2.294848,0 4.469783,-0.5114 6.399006,-1.4274 l 6.327642,2.3314 -2.188508,-5.2812 c 2.464025,-2.5126 3.972617,-5.9006 3.972617,-9.6346 0,-7.7428 -6.49447,-14.0118 -14.510757,-14.0118 z"
       style="fill:#000000;fill-opacity:0.23529412;stroke:none"
       inkscape:connector-curvature="0" />
    <path
       inkscape:connector-curvature="0"
       style="fill:#000000;fill-opacity:1;stroke:none"
       d="m -3.4727783e-7,1049.3622 0,1.0625 c 0,1.0773 0.86022302727783,1.9375 1.93750004727783,1.9375 l 44.1249993,0 c 1.07728,0 1.9375,-0.8602 1.9375,-1.9375 l 0,-1.0625 c 0,1.0773 -0.86022,1.9375 -1.9375,1.9375 l -44.1249993,0 C 0.86022268,1051.2997 -3.4727783e-7,1050.4395 -3.4727783e-7,1049.3622 Z"
       id="rect846" />
    <path
       inkscape:connector-curvature="0"
       style="fill:#ffffff;fill-opacity:0.5372549;stroke:none"
       d="m 2.5312497,1005.0185 c -0.917088,0 -1.67114702,0.6395 -1.84375002,1.5 0.33561202,-0.2799 0.77451202,-0.4375 1.25000002,-0.4375 l 44.1249993,0 c 0.47549,0 0.91439,0.1576 1.25,0.4375 -0.1726,-0.8605 -0.92666,-1.5 -1.84375,-1.5 L 2.5312497,1005.0185 Z"
       id="path7515" />
    <path
       inkscape:connector-curvature="0"
       style="fill:#000000;fill-opacity:0.39215686;stroke:none"
       d="m 1.9374997,1004.3622 c -1.07727702,0 -1.93750004727783,0.8602 -1.93750004727783,1.9375 l 0,43.0625 c 0,0.7934 0.48002402727783,1.449 1.15625004727783,1.75 -0.30934202,-0.3333 -0.50000002,-0.7824 -0.50000002,-1.2812 l 0,-42.9375 c 0,-1.0482 0.82689902,-1.875 1.87500002,-1.875 l 42.9374993,0 c 1.0481,0 1.875,0.8268 1.875,1.875 l 0,42.9375 c 0,0.4988 -0.19066,0.9479 -0.5,1.2812 0.67622,-0.301 1.15625,-0.9566 1.15625,-1.75 l 0,-43.0625 c 0,-1.0773 -0.86022,-1.9375 -1.9375,-1.9375 L 1.9374997,1004.3622 Z"
       id="rect4280-8" />
    <path
       id="path4182"
       d="m 24.000001,1012.9622 c -8.535141,0 -15.4499669,6.6749 -15.4499669,14.9188 0,8.2439 6.9148259,14.9187 15.4499669,14.9187 2.443381,0 4.759089,-0.5446 6.813181,-1.5198 l 6.737198,2.4823 -2.330158,-5.623 c 2.623508,-2.6752 4.229744,-6.2826 4.229744,-10.2582 0,-8.2439 -6.914824,-14.9188 -15.449965,-14.9188 z"
       style="fill:#ffffff;fill-opacity:1;stroke:none"
       inkscape:connector-curvature="0" />
    <path
       inkscape:connector-curvature="0"
       style="fill:url(#linearGradient1424);fill-opacity:1;stroke:none"
       d="m 24.000001,1013.8984 c -8.016288,0 -14.5107592,6.269 -14.5107592,14.0119 0,7.7428 6.4944712,14.0117 14.5107592,14.0117 2.294848,0 4.469783,-0.5114 6.399006,-1.4274 l 6.327642,2.3314 -2.188508,-5.2812 c 2.464025,-2.5125 3.972617,-5.9006 3.972617,-9.6345 0,-7.7429 -6.49447,-14.0119 -14.510757,-14.0119 z"
       id="path3194-0" />
    <g
       transform="matrix(1.9350978,-0.10494996,0.10866101,1.8690084,-48.841477,928.61951)"
       style="font-size:2.16666675px;font-style:normal;font-weight:normal;fill:#ffffff;fill-opacity:1;stroke:none;font-family:monospace;-inkscape-font-specification:monospace"
       id="text3204-2" />
    <path
       style="fill:#000000;fill-opacity:0.23529412;stroke:none"
       d="m 9.5303319,1027.5345 c -0.00356,0.1278 -0.02935,0.253 -0.02935,0.3816 0,7.7428 6.4827301,14 14.4990181,14 2.294848,0 4.469129,-0.5221 6.398352,-1.4381 l 6.339652,2.348 -0.381553,-0.9099 -5.958099,-2.1719 c -1.929223,0.9161 -4.103504,1.4088 -6.398352,1.4088 -7.883169,0 -14.2589035,-6.0537 -14.4696679,-13.6185 z m 28.9393361,0 c -0.100213,3.5809 -1.554224,6.8198 -3.932932,9.2453 l 0.205451,0.5284 c 2.337002,-2.4884 3.756831,-5.7676 3.756831,-9.3921 0,-0.1286 -0.02579,-0.2538 -0.02935,-0.3816 z"
       id="path4069"
       inkscape:connector-curvature="0" />
    <path
       style="fill:#ffffff;fill-opacity:0.23529412;stroke:none"
       d="m 24,1013.8984 c -8.016288,0 -14.4990183,6.2866 -14.4990183,14.0294 C 9.699231,1020.3522 16.10875,1014.28 24,1014.28 c 7.89125,0 14.300769,6.0722 14.499018,13.6478 0,-7.7428 -6.482731,-14.0294 -14.499018,-14.0294 z m 10.654137,23.9205 c -0.03789,0.039 -0.07905,0.078 -0.117401,0.1174 l 2.025166,4.8427 0.176102,0.058 -2.083867,-5.0184 z"
       id="path4074"
       inkscape:connector-curvature="0" />
    <path
       style="font-size:1.00904107px;font-style:normal;font-variant:normal;font-weight:bold;font-stretch:normal;fill:#000000;fill-opacity:0.23529412;stroke:none;font-family:Arial Black;-inkscape-font-specification:'Arial Black, Bold'"
       d="m 33.53023,1023.617 -1.663901,0.087 0.08757,1.2259 0.437869,2.4522 1.028991,-0.066 0.175147,-2.4739 -0.06569,-1.2261 z m -4.400579,0.1313 c -0.638275,0.035 -1.143255,0.1564 -1.510647,0.3502 -0.470817,0.251 -0.825199,0.6022 -1.050885,1.0509 -0.225827,0.4465 -0.318404,0.9673 -0.284615,1.5544 0.0321,0.5577 0.185136,1.0487 0.43787,1.467 0.255267,0.4181 0.601076,0.724 1.028992,0.9196 0.430443,0.1954 0.959043,0.2765 1.620112,0.2408 0.536956,-0.028 0.996126,-0.1221 1.379285,-0.2627 0.385543,-0.1435 0.823794,-0.404 1.313607,-0.7663 l -0.13136,-2.2769 -2.649106,0.1313 0.06569,1.1166 1.138459,-0.045 0.04379,0.5035 c -0.217962,0.1418 -0.41946,0.2436 -0.591123,0.3066 -0.171671,0.064 -0.354844,0.099 -0.547335,0.1093 -0.405256,0.023 -0.721,-0.091 -0.963312,-0.3283 -0.239786,-0.2375 -0.382465,-0.6438 -0.415975,-1.226 -0.03154,-0.5479 0.05433,-0.9621 0.262722,-1.226 0.210775,-0.2667 0.498344,-0.3956 0.875737,-0.416 0.25328,-0.014 0.466609,0.01 0.634909,0.1094 0.170826,0.099 0.314003,0.2605 0.394082,0.4598 l 1.642007,-0.3721 c -0.121312,-0.342 -0.287975,-0.6179 -0.503549,-0.832 -0.213192,-0.2169 -0.475502,-0.3905 -0.788163,-0.4817 -0.310148,-0.093 -0.785716,-0.1192 -1.401187,-0.086 z m -3.152653,0.2627 -2.255024,0.1313 -0.678695,3.3278 -1.072778,-3.2402 -2.255024,0.1315 0.306508,5.3857 1.401179,-0.087 -0.218934,-4.0941 1.313605,4.0284 1.26982,-0.065 0.853843,-4.1599 0.240828,4.1161 1.401178,-0.087 -0.306506,-5.3866 z m -9.217133,0.4161 c -0.90422,0.049 -1.601473,0.3372 -2.079875,0.8537 -0.478405,0.5165 -0.685458,1.2016 -0.63491,2.08 0.0362,0.6286 0.201763,1.1498 0.481654,1.5544 0.279891,0.4044 0.629443,0.6824 1.050886,0.8537 0.42397,0.1711 0.948183,0.2526 1.576327,0.2192 0.618005,-0.034 1.110605,-0.1713 1.510645,-0.4163 0.402426,-0.2472 0.702894,-0.5939 0.897631,-1.0069 0.197116,-0.4156 0.277006,-0.9258 0.240828,-1.5546 -0.04984,-0.8658 -0.324754,-1.5178 -0.853843,-1.9704 -0.529243,-0.4549 -1.262333,-0.6626 -2.189343,-0.6128 z m 0.06569,1.2477 c 0.362192,-0.019 0.651993,0.084 0.875738,0.3065 0.226129,0.2211 0.364931,0.5884 0.394082,1.0947 0.03462,0.6018 -0.05159,1.0267 -0.240828,1.2699 -0.189253,0.2434 -0.462162,0.3744 -0.831951,0.394 -0.359664,0.019 -0.651858,-0.081 -0.875736,-0.3064 -0.221351,-0.2262 -0.340936,-0.6173 -0.372189,-1.1603 -0.03154,-0.5479 0.04426,-0.9338 0.240828,-1.1824 0.196562,-0.2485 0.463053,-0.3971 0.810052,-0.416 z m 16.879834,2.0142 -1.532541,0.066 0.06569,1.3355 1.554433,-0.087 -0.08758,-1.3134 z"
       id="path4203"
       inkscape:connector-curvature="0" />
    <path
       inkscape:connector-curvature="0"
       id="path1477"
       d="m 33.53023,1023.3008 -1.663901,0.087 0.08757,1.2261 0.437869,2.452 1.028991,-0.065 0.175147,-2.474 -0.06569,-1.226 z m -4.400579,0.1313 c -0.638275,0.035 -1.143255,0.1564 -1.510647,0.3503 -0.470817,0.2511 -0.825199,0.6021 -1.050885,1.0509 -0.225827,0.4465 -0.318404,0.9674 -0.284615,1.5544 0.0321,0.5578 0.185136,1.0485 0.43787,1.4669 0.255267,0.4181 0.601076,0.724 1.028992,0.9195 0.430443,0.1957 0.959043,0.2765 1.620112,0.2408 0.536956,-0.028 0.996126,-0.1219 1.379285,-0.2626 0.385543,-0.1436 0.823794,-0.404 1.313607,-0.7663 l -0.13136,-2.2768 -2.649106,0.1313 0.06569,1.1165 1.138459,-0.045 0.04379,0.5034 c -0.217962,0.1419 -0.41946,0.2436 -0.591123,0.3066 -0.171671,0.064 -0.354844,0.099 -0.547335,0.1094 -0.405256,0.023 -0.721,-0.091 -0.963312,-0.3283 -0.239786,-0.2375 -0.382465,-0.6438 -0.415975,-1.226 -0.03154,-0.548 0.05433,-0.9622 0.262722,-1.2261 0.210775,-0.2666 0.498344,-0.3957 0.875737,-0.4159 0.25328,-0.014 0.466609,0.01 0.634909,0.1093 0.170826,0.099 0.314003,0.2605 0.394082,0.4598 l 1.642007,-0.3721 c -0.121312,-0.342 -0.287975,-0.6178 -0.503549,-0.8319 -0.213192,-0.2169 -0.475502,-0.3906 -0.788163,-0.4818 -0.310148,-0.093 -0.785716,-0.1192 -1.401187,-0.086 z m -3.152653,0.2628 -2.255024,0.1314 -0.678695,3.3276 -1.072778,-3.2402 -2.255024,0.1314 0.306508,5.3859 1.401179,-0.087 -0.218934,-4.0943 1.313605,4.0285 1.26982,-0.065 0.853843,-4.1598 0.240828,4.1161 1.401178,-0.087 -0.306506,-5.3866 z m -9.217133,0.416 c -0.90422,0.049 -1.601473,0.3372 -2.079875,0.8537 -0.478405,0.5166 -0.685458,1.2017 -0.63491,2.08 0.0362,0.6286 0.201763,1.1498 0.481654,1.5545 0.279891,0.4045 0.629443,0.6824 1.050886,0.8537 0.42397,0.1709 0.948183,0.2525 1.576327,0.219 0.618005,-0.034 1.110605,-0.1713 1.510645,-0.416 0.402426,-0.2473 0.702894,-0.5942 0.897631,-1.0072 0.197116,-0.4154 0.277006,-0.9255 0.240828,-1.5544 -0.04984,-0.8659 -0.324754,-1.5179 -0.853843,-1.9703 -0.529243,-0.4551 -1.262333,-0.6628 -2.189343,-0.613 z m 0.06569,1.2477 c 0.362192,-0.019 0.651993,0.084 0.875738,0.3067 0.226129,0.2209 0.364931,0.5882 0.394082,1.0946 0.03462,0.6019 -0.05159,1.0266 -0.240828,1.2697 -0.189253,0.2435 -0.462162,0.3745 -0.831951,0.3942 -0.359664,0.019 -0.651858,-0.081 -0.875736,-0.3065 -0.221351,-0.2262 -0.340936,-0.6173 -0.372189,-1.1603 -0.03154,-0.548 0.04426,-0.9338 0.240828,-1.1822 0.196562,-0.2487 0.463053,-0.3972 0.810052,-0.4162 z m 16.879834,2.0143 -1.532541,0.065 0.06569,1.3355 1.554433,-0.087 -0.08758,-1.3134 z"
       style="font-size:1.00904107px;font-style:normal;font-variant:normal;font-weight:bold;font-stretch:normal;fill:#ffffff;fill-opacity:1;stroke:none;font-family:Arial Black;-inkscape-font-specification:'Arial Black, Bold'" />
    <path
       inkscape:connector-curvature="0"
       id="path4139"
       d="m 33.846566,1029.4603 -0.913415,0.042 0.03175,0.7027 0.23868,1.4005 0.566229,-0.025 0.108555,-1.419 -0.0318,-0.701 z m -0.947144,0.046 -2.549835,0.1195 0.144461,3.079 2.597017,-0.1213 -0.03359,-0.6978 -1.643146,0.076 -0.02782,-0.6066 1.481375,-0.07 -0.03059,-0.6269 -1.479693,0.07 -0.02446,-0.4905 1.597648,-0.075 -0.03139,-0.6574 z m -2.67961,0.1259 -1.247096,0.057 -0.39341,1.897 -0.5706,-1.851 -1.252191,0.059 0.144462,3.0789 0.778595,-0.036 -0.110129,-2.3492 0.711769,2.3213 0.702778,-0.034 0.493193,-2.3772 0.110128,2.3492 0.776964,-0.038 -0.144463,-3.0789 z m -4.73998,0.1971 c -0.114239,-0.012 -0.236816,-0.014 -0.364949,-0.01 -0.499926,0.024 -0.882913,0.1818 -1.149817,0.4749 -0.130636,0.1436 -0.224654,0.313 -0.285686,0.5068 -7.5e-5,0 2.31e-4,0 1.45e-4,-0.01 -0.0092,-0.196 -0.06419,-0.3599 -0.165805,-0.4912 -0.101671,-0.1327 -0.231704,-0.2207 -0.389519,-0.2637 -0.157816,-0.043 -0.382865,-0.058 -0.67694,-0.045 l -1.585875,0.075 0.14446,3.0789 -9.7e-5,0 0.95555,-0.045 -0.05791,-1.2505 0.08264,-0.01 c 0.08683,0 0.16637,0.016 0.23722,0.061 0.05213,0.036 0.113373,0.1104 0.183518,0.229 l 0.552317,0.9166 1.075236,-0.051 -0.501459,-0.8713 c -0.02451,-0.044 -0.07165,-0.1047 -0.14275,-0.1842 -0.06969,-0.079 -0.124246,-0.131 -0.160444,-0.1544 -0.05359,-0.035 -0.137658,-0.069 -0.252862,-0.1017 0.139944,-0.038 0.249951,-0.085 0.328843,-0.1385 0.12381,-0.083 0.219767,-0.1865 0.286792,-0.3131 0.0069,-0.013 0.0086,-0.029 0.01472,-0.044 -0.0069,0.092 -0.01137,0.1851 -0.0066,0.2859 0.01693,0.3599 0.102522,0.6565 0.255217,0.8893 0.152696,0.2328 0.344146,0.3997 0.576205,0.4998 0.233456,0.1 0.524246,0.1409 0.871535,0.1247 0.341687,-0.016 0.622582,-0.093 0.844849,-0.2314 0.223601,-0.1396 0.391376,-0.3257 0.501005,-0.561 0.110963,-0.2368 0.157411,-0.5364 0.140488,-0.8963 -0.02331,-0.4958 -0.180068,-0.8732 -0.470244,-1.1345 -0.217678,-0.1972 -0.497043,-0.3137 -0.839762,-0.3493 z m -4.795403,0.2511 -0.955552,0.045 0.05112,1.0786 -1.039825,0.049 -0.05112,-1.0788 -0.950506,0.046 0.09633,2.0713 -0.835361,-0.2111 c -0.03285,0.1965 -0.09421,0.349 -0.183229,0.4557 -0.08762,0.1066 -0.223495,0.1632 -0.405539,0.1717 -0.187647,0.01 -0.334931,-0.046 -0.444483,-0.1677 -0.10962,-0.1226 -0.172364,-0.3556 -0.188432,-0.6972 -0.01298,-0.276 0.01952,-0.4802 0.100282,-0.6131 0.106658,-0.1787 0.268872,-0.2734 0.484534,-0.2838 0.09523,-0.01 0.182354,0.01 0.2612,0.046 0.07886,0.035 0.145752,0.088 0.202388,0.1589 0.03424,0.042 0.06804,0.1092 0.101854,0.2016 l 0.832931,-0.2266 c -0.123103,-0.3198 -0.300004,-0.5522 -0.530033,-0.6986 -0.228636,-0.1463 -0.537229,-0.2099 -0.925121,-0.1918 -0.495725,0.023 -0.872262,0.178 -1.131027,0.4652 -0.257429,0.2857 -0.375042,0.6834 -0.351073,1.1931 0.01798,0.3825 0.110343,0.6925 0.275905,0.9304 0.165561,0.2377 0.35544,0.3997 0.571503,0.4878 0.217396,0.086 0.493574,0.1238 0.828252,0.1081 0.275872,-0.013 0.501843,-0.064 0.675932,-0.1519 0.175492,-0.088 0.318625,-0.2137 0.431681,-0.3762 0.108173,-0.1554 0.184431,-0.3475 0.230319,-0.5707 l 0.04559,0.9793 0.952188,-0.045 -0.0597,-1.2471 1.039825,-0.049 0.05973,1.2454 0.955552,-0.045 -0.146144,-3.0792 z m 4.463496,0.4563 c 0.200252,-0.01 0.360318,0.05 0.482866,0.1789 0.123885,0.1275 0.193718,0.3356 0.207349,0.6253 0.01619,0.3445 -0.02973,0.5865 -0.135505,0.7249 -0.105776,0.1383 -0.259779,0.2125 -0.46423,0.2221 -0.198852,0.01 -0.360152,-0.052 -0.482768,-0.1823 -0.121216,-0.1305 -0.188292,-0.3515 -0.202911,-0.6623 -0.01476,-0.3137 0.03284,-0.5412 0.142693,-0.6826 0.10985,-0.1415 0.260665,-0.2152 0.452506,-0.224 z m -2.883978,0.093 c 0.173643,-0.01 0.292811,0.012 0.358341,0.064 0.06551,0.05 0.101538,0.1259 0.106214,0.2252 0.0032,0.067 -0.01423,0.1284 -0.05242,0.1819 -0.03678,0.054 -0.08701,0.088 -0.149424,0.1035 -0.12324,0.032 -0.207151,0.049 -0.250631,0.054 l -0.401094,0.019 -0.02895,-0.6254 0.417957,-0.02 z m 11.661432,1.1585 -0.85278,0.041 0.03701,0.7533 0.852732,-0.039 -0.03697,-0.7551 z"
       style="font-size:5px;font-style:normal;font-variant:normal;font-weight:normal;font-stretch:normal;line-height:125%;letter-spacing:-0.55000001px;word-spacing:0px;fill:#000000;fill-opacity:0.23529412;stroke:none;font-family:Arial Black;-inkscape-font-specification:'Arial Black, Black,'" />
    <path
       style="font-size:5px;font-style:normal;font-variant:normal;font-weight:normal;font-stretch:normal;line-height:125%;letter-spacing:-0.55000001px;word-spacing:0px;fill:#ffffff;fill-opacity:1;stroke:none;font-family:Arial Black;-inkscape-font-specification:'Arial Black, Black,'"
       d="m 33.846566,1029.1443 -0.913415,0.042 0.03175,0.7028 0.23868,1.4004 0.566229,-0.025 0.108555,-1.419 -0.0318,-0.701 z m -0.947144,0.044 -2.549835,0.1195 0.144461,3.0791 2.597017,-0.1214 -0.03359,-0.6978 -1.643146,0.076 -0.02782,-0.6067 1.481375,-0.07 -0.03059,-0.627 -1.479693,0.069 -0.02446,-0.4904 1.597648,-0.075 -0.03139,-0.6572 z m -2.67961,0.1259 -1.247096,0.057 -0.39341,1.897 -0.5706,-1.851 -1.252191,0.059 0.144462,3.079 0.778595,-0.036 -0.110129,-2.3493 0.711769,2.3214 0.702778,-0.035 0.493193,-2.3772 0.110128,2.3492 0.776964,-0.038 -0.144463,-3.079 z m -4.73998,0.1971 c -0.114239,-0.012 -0.236816,-0.014 -0.364949,-0.01 -0.499926,0.024 -0.882913,0.1817 -1.149817,0.4748 -0.130636,0.1436 -0.224654,0.313 -0.285686,0.5068 -7.5e-5,0 2.31e-4,0 1.45e-4,-0.01 -0.0092,-0.196 -0.06419,-0.3598 -0.165805,-0.4911 -0.101671,-0.1327 -0.231704,-0.2207 -0.389519,-0.2638 -0.157816,-0.043 -0.382865,-0.058 -0.67694,-0.045 l -1.585875,0.075 0.14446,3.079 -9.7e-5,0 0.95555,-0.046 -0.05791,-1.2504 0.08264,-0.01 c 0.08683,0 0.16637,0.016 0.23722,0.061 0.05213,0.034 0.113373,0.1103 0.183518,0.2291 l 0.552317,0.9164 1.075236,-0.051 -0.501459,-0.8713 c -0.02451,-0.045 -0.07165,-0.1047 -0.14275,-0.1842 -0.06969,-0.079 -0.124246,-0.131 -0.160444,-0.1544 -0.05359,-0.036 -0.137658,-0.069 -0.252862,-0.1017 0.139944,-0.038 0.249951,-0.085 0.328843,-0.1384 0.12381,-0.083 0.219767,-0.1865 0.286792,-0.3132 0.0069,-0.013 0.0086,-0.029 0.01472,-0.044 -0.0069,0.092 -0.01137,0.1852 -0.0066,0.2859 0.01693,0.3598 0.102522,0.6565 0.255217,0.8893 0.152696,0.2328 0.344146,0.3999 0.576205,0.4998 0.233456,0.1 0.524246,0.1411 0.871535,0.1246 0.341687,-0.016 0.622582,-0.093 0.844849,-0.2313 0.223601,-0.1396 0.391376,-0.3257 0.501005,-0.561 0.110963,-0.2369 0.157411,-0.5365 0.140488,-0.8964 -0.02331,-0.4956 -0.180068,-0.8731 -0.470244,-1.1344 -0.217678,-0.1972 -0.497043,-0.3136 -0.839762,-0.3492 z m -4.795403,0.2511 -0.955552,0.045 0.05112,1.0785 -1.039825,0.049 -0.05112,-1.0786 -0.950506,0.045 0.09633,2.0711 -0.835361,-0.211 c -0.03285,0.1966 -0.09421,0.3491 -0.183229,0.4558 -0.08762,0.1066 -0.223495,0.1631 -0.405539,0.1717 -0.187647,0.01 -0.334931,-0.046 -0.444483,-0.1678 -0.10962,-0.1226 -0.172364,-0.3556 -0.188432,-0.6972 -0.01298,-0.276 0.01952,-0.4802 0.100282,-0.6131 0.106658,-0.1787 0.268872,-0.2734 0.484534,-0.2838 0.09523,-0.01 0.182354,0.01 0.2612,0.046 0.07886,0.036 0.145752,0.088 0.202388,0.1591 0.03424,0.042 0.06804,0.1091 0.101854,0.2015 l 0.832931,-0.2265 c -0.123103,-0.3198 -0.300004,-0.5524 -0.530033,-0.6987 -0.228636,-0.1463 -0.537229,-0.2098 -0.925121,-0.1918 -0.495725,0.023 -0.872262,0.1781 -1.131027,0.4653 -0.257429,0.2857 -0.375042,0.6833 -0.351073,1.193 0.01798,0.3824 0.110343,0.6925 0.275905,0.9303 0.165561,0.2377 0.35544,0.3998 0.571503,0.4879 0.217396,0.086 0.493574,0.1237 0.828252,0.1082 0.275872,-0.013 0.501843,-0.065 0.675932,-0.1521 0.175492,-0.088 0.318625,-0.2137 0.431681,-0.3762 0.108173,-0.1554 0.184431,-0.3473 0.230319,-0.5704 l 0.04559,0.9791 0.952188,-0.046 -0.0597,-1.2471 1.039825,-0.049 0.05973,1.2455 0.955552,-0.045 -0.146144,-3.0791 z m 4.463496,0.4562 c 0.200252,-0.01 0.360318,0.05 0.482866,0.179 0.123885,0.1275 0.193718,0.3356 0.207349,0.6254 0.01619,0.3444 -0.02973,0.5864 -0.135505,0.7248 -0.105776,0.1383 -0.259779,0.2126 -0.46423,0.2222 -0.198852,0.01 -0.360152,-0.052 -0.482768,-0.1824 -0.121216,-0.1305 -0.188292,-0.3515 -0.202911,-0.6624 -0.01476,-0.3136 0.03284,-0.5411 0.142693,-0.6824 0.10985,-0.1415 0.260665,-0.2153 0.452506,-0.2242 z m -2.883978,0.093 c 0.173643,-0.01 0.292811,0.012 0.358341,0.064 0.06551,0.05 0.101538,0.1257 0.106214,0.2251 0.0032,0.067 -0.01423,0.1285 -0.05242,0.182 -0.03678,0.054 -0.08701,0.088 -0.149424,0.1033 -0.12324,0.032 -0.207151,0.049 -0.250631,0.054 l -0.401094,0.019 -0.02895,-0.6253 0.417957,-0.02 z m 11.661432,1.1584 -0.85278,0.041 0.03701,0.7533 0.852732,-0.039 -0.03697,-0.7552 z"
       id="path4117"
       inkscape:connector-curvature="0" />
    <path
       style="fill:#43964e;fill-opacity:1;stroke:none"
       d="m 11.425257,1020.9366 c -1.224643,2.055 -1.9352815,4.4317 -1.9352817,6.9743 0,7.7429 6.4937367,14.0111 14.5100247,14.0111 0.668689,0 1.323086,-0.055 1.9683,-0.1394 0.244582,-0.9114 0.269851,-1.0105 0.498954,-1.8656 -0.800342,0.1527 -1.621143,0.2495 -2.467254,0.2495 -6.978581,0 -12.63161,-5.458 -12.63161,-12.1987 0,-2.087 0.545054,-4.0484 1.500532,-5.7655 l -1.443665,-1.2657 z"
       id="path4141"
       inkscape:connector-curvature="0" />
    <path
       style="fill:#cf3326;fill-opacity:1;stroke:none"
       d="m 24,1013.898 c -5.444324,0 -10.180121,2.8969 -12.662794,7.178 l 1.451003,1.2877 c 2.102309,-3.9151 6.327806,-6.5928 11.211791,-6.5928 3.858302,0 7.306425,1.6726 9.62321,4.3035 l 2.034338,-0.4861 C 33.014534,1016.1413 28.784591,1013.898 24,1013.898 Z"
       id="path4159"
       inkscape:connector-curvature="0" />
    <path
       style="fill:#fdd901;fill-opacity:1;stroke:none"
       d="m 35.501625,1019.3884 -1.852734,0.7154 c 1.858247,2.1236 2.982718,4.864 2.982718,7.864 0,3.2506 -1.312767,6.2013 -3.457825,8.3887 -1.568314,1.4657 -1.350487,1.3332 -3.602742,2.5681 -1.062056,0.5043 -2.21753,0.8466 -3.422972,1.0456 l -0.67689,1.8766 c 1.752695,-0.1696 3.41564,-0.6343 4.927172,-1.3519 l 6.328645,2.3315 -2.188427,-5.2812 c 2.464025,-2.5126 3.971455,-5.9003 3.971455,-9.6343 0,-3.2113 -1.128834,-6.1603 -3.0084,-8.5225 z"
       id="path4166"
       inkscape:connector-curvature="0" />
    <ellipse
       style="fill:url(#linearGradient4087);fill-opacity:1;stroke:none"
       id="path4079"
       cx="24.000002"
       cy="1019.249"
       rx="9.1892481"
       ry="5.3506413"
       d="m 33.18925,1019.249 a 9.1892481,5.3506413 0 0 1 -9.189248,5.3507 9.1892481,5.3506413 0 0 1 -9.189248,-5.3507 9.1892481,5.3506413 0 0 1 9.189248,-5.3506 9.1892481,5.3506413 0 0 1 9.189248,5.3506 z" />
  </g>
</svg>
