<?xml version="1.0" encoding="UTF-8" standalone="no"?>
<!-- Created with Inkscape (http://www.inkscape.org/) -->

<svg
   xmlns:dc="http://purl.org/dc/elements/1.1/"
   xmlns:cc="http://creativecommons.org/ns#"
   xmlns:rdf="http://www.w3.org/1999/02/22-rdf-syntax-ns#"
   xmlns:svg="http://www.w3.org/2000/svg"
   xmlns="http://www.w3.org/2000/svg"
   xmlns:xlink="http://www.w3.org/1999/xlink"
   xmlns:sodipodi="http://sodipodi.sourceforge.net/DTD/sodipodi-0.dtd"
   xmlns:inkscape="http://www.inkscape.org/namespaces/inkscape"
   width="48"
   height="48"
   id="svg2"
   version="1.1"
   inkscape:version="0.48+devel r12923"
   sodipodi:docname="omgubuntu.svg"
   inkscape:export-filename="/home/uri/workspace/NitruxforAndroid/res/drawable-xhdpi/omg_ubuntu.png"
   inkscape:export-xdpi="180"
   inkscape:export-ydpi="180">
  <defs
     id="defs4">
    <linearGradient
       id="linearGradient4081-6"
       inkscape:collect="always">
      <stop
         id="stop4083-1"
         offset="0"
         style="stop-color:#ffffff;stop-opacity:1;" />
      <stop
         id="stop4085-7"
         offset="1"
         style="stop-color:#ffffff;stop-opacity:0;" />
    </linearGradient>
    <linearGradient
       inkscape:collect="always"
       id="linearGradient1418-6">
      <stop
         style="stop-color:#f05112;stop-opacity:1"
         offset="0"
         id="stop1420-0" />
      <stop
         style="stop-color:#f48254;stop-opacity:1"
         offset="1"
         id="stop1422-7" />
    </linearGradient>
    <linearGradient
       inkscape:collect="always"
       id="linearGradient1404-9">
      <stop
         style="stop-color:#592041;stop-opacity:1;"
         offset="0"
         id="stop1406-6" />
      <stop
         style="stop-color:#bd498c;stop-opacity:1"
         offset="1"
         id="stop1408-3" />
    </linearGradient>
    <linearGradient
       inkscape:collect="always"
       xlink:href="#linearGradient1404-9"
       id="linearGradient1402"
       x1="85.913475"
       y1="-1061.0243"
       x2="85.913475"
       y2="-1012.941"
       gradientUnits="userSpaceOnUse"
       gradientTransform="translate(-59.968939,8.2669231)" />
    <linearGradient
       inkscape:collect="always"
       xlink:href="#linearGradient1418-6"
       id="linearGradient1424-7"
       x1="30.405592"
       y1="1044.9376"
       x2="30.405592"
       y2="1012.7642"
       gradientUnits="userSpaceOnUse"
       gradientTransform="matrix(0.96186768,0,0,0.96190919,0.91517502,39.17122)" />
    <linearGradient
       gradientUnits="userSpaceOnUse"
       y2="18.361063"
       x2="24.248386"
       y1="3.3583653"
       x1="24.248386"
       id="linearGradient4087-6"
       xlink:href="#linearGradient4081-6"
       inkscape:collect="always"
       gradientTransform="matrix(1.1962013,0,0,1.1269841,-4.608789,1000.4639)" />
  </defs>
  <sodipodi:namedview
     id="base"
     pagecolor="#ffffff"
     bordercolor="#666666"
     borderopacity="1.0"
     inkscape:pageopacity="0.0"
     inkscape:pageshadow="2"
     inkscape:zoom="4.5086407"
     inkscape:cx="10.304492"
     inkscape:cy="17.137128"
     inkscape:document-units="px"
     inkscape:current-layer="layer1"
     showgrid="false"
     inkscape:window-width="1366"
     inkscape:window-height="669"
     inkscape:window-x="0"
     inkscape:window-y="26"
     inkscape:window-maximized="1" />
  <metadata
     id="metadata7">
    <rdf:RDF>
      <cc:Work
         rdf:about="">
        <dc:format>image/svg+xml</dc:format>
        <dc:type
           rdf:resource="http://purl.org/dc/dcmitype/StillImage" />
        <dc:title></dc:title>
      </cc:Work>
    </rdf:RDF>
  </metadata>
  <g
     inkscape:label="Capa 1"
     inkscape:groupmode="layer"
     id="layer1"
     transform="translate(0,-1004.3622)">
    <g
       transform="matrix(1.9350978,-0.10494996,0.10866101,1.8690084,64.732339,933.77491)"
       style="font-size:2.16666675px;font-style:normal;font-weight:normal;fill:#ffffff;fill-opacity:1;stroke:none;font-family:monospace;-inkscape-font-specification:monospace"
       id="text3204" />
    <g
       transform="matrix(1.9350978,-0.10494996,0.10866101,1.8690084,12.624844,932.8494)"
       style="font-size:2.16666675px;font-style:normal;font-weight:normal;fill:#ffffff;fill-opacity:1;stroke:none;font-family:monospace;-inkscape-font-specification:monospace"
       id="text3204-2" />
    <rect
       style="fill:url(#linearGradient1402);fill-opacity:1;stroke:none"
       id="rect2991-1-5"
       width="48"
       height="48"
       x="9.810791e-07"
       y="-1052.3622"
       ry="1.9445436"
       transform="scale(1,-1)" />
    <path
       id="path4067"
       d="m 24,1014.1622 c -8.53516,0 -15.450001,6.6748 -15.450001,14.9188 0,8.244 6.914841,14.9187 15.450001,14.9187 2.443387,0 4.7591,-0.5445 6.813196,-1.5198 l 6.737213,2.4823 -2.330164,-5.623 c 2.623515,-2.6752 4.229754,-6.2826 4.229754,-10.2582 0,-8.244 -6.914839,-14.9188 -15.449999,-14.9188 z"
       style="fill:#000000;fill-opacity:0.05882353;stroke:none"
       inkscape:connector-curvature="0" />
    <path
       inkscape:connector-curvature="0"
       style="fill:#000000;fill-opacity:0.11764706;stroke:none"
       d="m 24,1013.7622 c -8.53516,0 -15.450001,6.6748 -15.450001,14.9188 0,8.244 6.914841,14.9187 15.450001,14.9187 2.443387,0 4.7591,-0.5445 6.813196,-1.5198 l 6.737213,2.4823 -2.330164,-5.623 c 2.623515,-2.6752 4.229754,-6.2826 4.229754,-10.2582 0,-8.244 -6.914839,-14.9188 -15.449999,-14.9188 z"
       id="path4065" />
    <path
       id="path4061-5"
       d="m 24,1013.3622 c -8.53516,0 -15.450001,6.6748 -15.450001,14.9188 0,8.244 6.914841,14.9187 15.450001,14.9187 2.443387,0 4.7591,-0.5445 6.813196,-1.5198 l 6.737213,2.4823 -2.330164,-5.623 c 2.623515,-2.6752 4.229754,-6.2826 4.229754,-10.2582 0,-8.244 -6.914839,-14.9188 -15.449999,-14.9188 z"
       style="fill:#000000;fill-opacity:0.23529412;stroke:none"
       inkscape:connector-curvature="0" />
    <path
       inkscape:connector-curvature="0"
       style="fill:#000000;fill-opacity:1;stroke:none"
       d="m -9.810791e-7,1049.3622 0,1.0625 c 0,1.0773 0.8602230010791,1.9375 1.9374999810791,1.9375 l 44.124999,0 c 1.07728,0 1.9375,-0.8602 1.9375,-1.9375 l 0,-1.0625 c 0,1.0773 -0.86022,1.9375 -1.9375,1.9375 l -44.124999,0 c -1.07727698,0 -1.9374999810791,-0.8602 -1.9374999810791,-1.9375 z"
       id="rect846-5" />
    <path
       inkscape:connector-curvature="0"
       style="fill:#ffffff;fill-opacity:0.5372549;stroke:none"
       d="m 2.531249,1005.0185 c -0.917088,0 -1.67114698,0.6395 -1.84374998,1.5 0.33561198,-0.2799 0.77451198,-0.4375 1.24999998,-0.4375 l 44.124999,0 c 0.47549,0 0.91439,0.1576 1.25,0.4375 -0.1726,-0.8605 -0.92666,-1.5 -1.84375,-1.5 l -42.937499,0 z"
       id="path7515-6" />
    <path
       inkscape:connector-curvature="0"
       style="fill:#000000;fill-opacity:0.39215686;stroke:none"
       d="m 1.937499,1004.3622 c -1.07727698,0 -1.9374999810791,0.8602 -1.9374999810791,1.9375 l 0,43.0625 c 0,0.7934 0.4800240010791,1.449 1.1562499810791,1.75 -0.30934198,-0.3333 -0.49999998,-0.7824 -0.49999998,-1.2812 l 0,-42.9375 c 0,-1.0482 0.82689898,-1.875 1.87499998,-1.875 l 42.937499,0 c 1.0481,0 1.875,0.8268 1.875,1.875 l 0,42.9375 c 0,0.4988 -0.19066,0.9479 -0.5,1.2812 0.67622,-0.301 1.15625,-0.9566 1.15625,-1.75 l 0,-43.0625 c 0,-1.0773 -0.86022,-1.9375 -1.9375,-1.9375 l -44.124999,0 z"
       id="rect4280-8-4" />
    <path
       inkscape:connector-curvature="0"
       style="fill:url(#linearGradient1424-7);fill-opacity:1;stroke:none"
       d="m 24,1012.9622 c -8.53516,0 -15.450001,6.6748 -15.450001,14.9188 0,8.244 6.914841,14.9187 15.450001,14.9187 2.443387,0 4.7591,-0.5445 6.813196,-1.5198 l 6.737213,2.4823 -2.330164,-5.623 c 2.623515,-2.6752 4.229754,-6.2826 4.229754,-10.2582 0,-8.244 -6.914839,-14.9188 -15.449999,-14.9188 z"
       id="path3194-0-8" />
    <g
       transform="matrix(1.9350978,-0.10494996,0.10866101,1.8690084,-48.841479,928.61949)"
       style="font-size:2.16666675px;font-style:normal;font-weight:normal;fill:#ffffff;fill-opacity:1;stroke:none;font-family:monospace;-inkscape-font-specification:monospace"
       id="text3204-5" />
    <g
       id="g4256"
       transform="translate(61.547021,6.2587408)">
      <path
         transform="translate(0,1004.3622)"
         id="path4093"
         d="m -25.724609,14.019531 -2.046875,0.107422 0.107422,1.507813 0.539062,2.988281 1.265625,-0.05469 0.214844,-3.041015 -0.08008,-1.507813 z m -4.408203,0.15625 c -0.288383,-0.01754 -0.625406,-0.01434 -1.003907,0.0059 -0.785047,0.042 -1.405546,0.190987 -1.857422,0.429687 -0.579081,0.3087 -0.986089,0.740969 -1.263671,1.292969 -0.277761,0.5493 -0.418516,1.188056 -0.376954,1.910156 0.03949,0.686 0.226258,1.290188 0.53711,1.804688 0.313966,0.5143 0.73931,0.890559 1.265625,1.130859 0.529427,0.2406 1.179102,0.338822 1.992187,0.294922 0.660427,-0.035 1.251389,-0.149166 1.722656,-0.322266 0.474199,-0.1763 1.012789,-0.497559 1.615235,-0.943359 l -0.162109,-2.798828 -3.283204,0.162109 0.08008,1.373047 1.427735,-0.08008 0.02539,0.644531 c -0.268084,0.1742 -0.515427,0.299353 -0.726563,0.376953 -0.211147,0.078 -0.43512,0.121866 -0.671875,0.134766 -0.498443,0.027 -0.887515,-0.112397 -1.185547,-0.404297 -0.294923,-0.292 -0.470501,-0.789759 -0.511719,-1.505859 -0.03879,-0.674 0.06791,-1.183113 0.324219,-1.507813 0.259244,-0.3278 0.63934,-0.514262 1.103516,-0.539062 0.31152,-0.017 0.546906,0.04071 0.753906,0.162109 0.210108,0.1215 0.385879,0.319153 0.484375,0.564453 l 2.019531,-0.457031 c -0.149208,-0.4204 -0.353993,-0.785328 -0.61914,-1.048828 -0.262216,-0.2666 -0.586145,-0.454307 -0.970703,-0.566407 -0.190727,-0.05835 -0.430368,-0.09574 -0.71875,-0.113281 z m -4.878907,0.328125 -2.773437,0.16211 -0.833985,4.064453 -1.318359,-3.957031 -2.773438,0.162109 0.376954,6.59375 1.722656,-0.08008 -0.296875,-5.033203 1.642578,4.953125 1.5625,-0.08008 1.048828,-5.115234 0.296875,5.035156 1.722656,-0.08008 -0.376953,-6.625 z m -11.332031,0.511719 c -1.112149,0.059 -1.970181,0.388037 -2.558594,1.023437 -0.588416,0.6351 -0.841467,1.503885 -0.779297,2.583985 0.04451,0.7733 0.2202,1.412456 0.564453,1.910156 0.344254,0.4975 0.772662,0.840081 1.291016,1.050781 0.521463,0.2104 1.19421,0.310832 1.966797,0.269532 0.760117,-0.041 1.365391,-0.210819 1.857422,-0.511719 0.494964,-0.3042 0.863997,-0.730481 1.103515,-1.238281 0.242445,-0.511 0.339421,-1.13891 0.294922,-1.91211 -0.06131,-1.0653 -0.398072,-1.892519 -1.048828,-2.449218 -0.650941,-0.559601 -1.551231,-0.787663 -2.691406,-0.726563 z m 0.08008,1.535156 c 0.445478,-0.024 0.800977,0.102053 1.076172,0.376953 0.278129,0.2717 0.448523,0.722803 0.484375,1.345704 0.0426,0.740199 -0.06216,1.261146 -0.294922,1.560546 -0.232772,0.2991 -0.568616,0.459475 -1.023437,0.484375 -0.44237,0.024 -0.800812,-0.09915 -1.076172,-0.376953 -0.272253,-0.2781 -0.445931,-0.757681 -0.484375,-1.425781 -0.03879,-0.674 0.08049,-1.174769 0.322265,-1.480469 0.241781,-0.3058 0.569301,-0.461075 0.996094,-0.484375 z M -25.509766,19 l -1.884765,0.107422 0.08008,1.615234 1.912109,-0.08008 L -25.509766,19 Z"
         style="font-size:1.00904107px;font-style:normal;font-variant:normal;font-weight:bold;font-stretch:normal;fill:#000000;fill-opacity:0.23529412;stroke:none;font-family:Arial Black;-inkscape-font-specification:'Arial Black, Bold'"
         inkscape:connector-curvature="0" />
      <path
         sodipodi:nodetypes="ccccccccccscccccccccccccsccccccccccccccccccccccccscccccsccccscccsccccccccc"
         inkscape:connector-curvature="0"
         id="path2848"
         d="m -25.725455,1017.9821 -2.045775,0.1076 0.107672,1.5075 0.538362,2.9878 1.26515,-0.054 0.215345,-3.0419 z m -5.410537,0.1614 c -0.785047,0.042 -1.405472,0.1921 -1.857348,0.4308 -0.579081,0.3087 -0.987567,0.7399 -1.26515,1.2919 -0.27776,0.5493 -0.418416,1.1891 -0.376854,1.9112 0.03949,0.686 0.22751,1.2891 0.538362,1.8036 0.313966,0.5143 0.738835,0.8902 1.26515,1.1305 0.529427,0.2406 1.178854,0.34 1.991939,0.2961 0.660427,-0.035 1.25149,-0.1499 1.722758,-0.323 0.474199,-0.1763 1.012639,-0.4964 1.615085,-0.9422 l -0.161508,-2.7993 -3.284007,0.1615 0.08075,1.3727 1.426659,-0.08 0.02692,0.646 c -0.268084,0.1742 -0.515652,0.2992 -0.726788,0.3768 -0.211147,0.078 -0.436197,0.1217 -0.672952,0.1346 -0.498443,0.027 -0.886364,-0.112 -1.184396,-0.4039 -0.294923,-0.292 -0.470227,-0.7912 -0.511445,-1.5073 -0.03879,-0.674 0.06671,-1.1828 0.323018,-1.5075 0.259244,-0.3278 0.639466,-0.5134 1.103642,-0.5382 0.31152,-0.017 0.546706,0.04 0.753706,0.1614 0.210108,0.1215 0.38603,0.32 0.484526,0.5653 l 2.018856,-0.4577 c -0.149208,-0.4204 -0.353968,-0.7862 -0.619115,-1.0497 -0.262216,-0.2666 -0.584493,-0.4532 -0.969052,-0.5653 -0.381453,-0.1167 -0.965755,-0.1487 -1.722756,-0.1083 z m -3.876205,0.323 -2.772563,0.1616 -0.834462,4.0646 -1.318985,-3.9571 -2.772564,0.1616 0.376852,6.595 1.722759,-0.08 -0.296099,-5.0337 1.642004,4.953 1.561249,-0.08 1.049806,-5.1144 0.296098,5.0336 1.722758,-0.08 z m -11.332516,0.5114 c -1.112149,0.059 -1.968806,0.3877 -2.557219,1.0231 -0.588416,0.6351 -0.842795,1.5039 -0.780625,2.584 0.04451,0.7733 0.221026,1.4135 0.56528,1.9112 0.344253,0.4975 0.773715,0.8391 1.292069,1.0498 0.521463,0.2104 1.192433,0.3105 1.96502,0.2692 0.760117,-0.041 1.365317,-0.2105 1.857348,-0.5114 0.494964,-0.3042 0.864125,-0.7304 1.103643,-1.2382 0.242445,-0.511 0.340598,-1.138 0.296099,-1.9112 -0.06131,-1.0653 -0.399049,-1.8929 -1.049805,-2.4496 -0.650941,-0.5596 -1.551635,-0.788 -2.69181,-0.7269 z m 0.08074,1.5344 c 0.445478,-0.024 0.801529,0.102 1.076724,0.3769 0.278129,0.2717 0.448674,0.723 0.484526,1.3459 0.0426,0.7402 -0.06334,1.2619 -0.296099,1.5613 -0.232772,0.2991 -0.568066,0.4595 -1.022887,0.4844 -0.44237,0.024 -0.801364,-0.099 -1.076724,-0.3768 -0.272253,-0.2781 -0.446083,-0.7586 -0.484527,-1.4267 -0.03879,-0.674 0.08124,-1.1747 0.323017,-1.4804 0.241781,-0.3058 0.569191,-0.4613 0.995984,-0.4846 z m 20.753849,2.4496 -1.884267,0.1078 0.08075,1.615 1.911185,-0.08 -0.107654,-1.6428 z"
         style="font-size:1.00904107px;font-style:normal;font-variant:normal;font-weight:bold;font-stretch:normal;fill:#ffffff;fill-opacity:1;stroke:none;font-family:Arial Black;-inkscape-font-specification:'Arial Black, Bold'" />
    </g>
    <path
       style="fill:#000000;fill-opacity:0.23529412;stroke:none"
       d="m 8.593749,1027.4809 c -0.0038,0.1361 -0.03125,0.2694 -0.03125,0.4063 0,8.244 6.90234,14.9062 15.4375,14.9062 2.443387,0 4.758404,-0.5559 6.8125,-1.5312 l 6.75,2.5 -0.40625,-0.9688 -6.34375,-2.3125 c -2.054096,0.9754 -4.369113,1.5 -6.8125,1.5 -8.393425,0 -15.181843,-6.4455 -15.40625,-14.5 z m 30.8125,0 c -0.106699,3.8127 -1.654824,7.2612 -4.1875,9.8438 l 0.21875,0.5625 c 2.488269,-2.6494 4,-6.1409 4,-10 0,-0.1369 -0.02746,-0.2702 -0.03125,-0.4063 z"
       id="path4069-8"
       inkscape:connector-curvature="0" />
    <path
       style="fill:#ffffff;fill-opacity:0.23529412;stroke:none"
       d="m 23.999999,1012.9622 c -8.53516,0 -15.4375,6.6935 -15.4375,14.9375 0.211082,-8.066 7.035471,-14.5312 15.4375,-14.5312 8.402029,0 15.226419,6.4652 15.4375,14.5312 0,-8.244 -6.90234,-14.9375 -15.4375,-14.9375 z m 11.34375,25.4688 c -0.04034,0.042 -0.08417,0.083 -0.125,0.125 l 2.15625,5.1562 0.1875,0.062 -2.21875,-5.3432 z"
       id="path4074-3"
       inkscape:connector-curvature="0" />
    <ellipse
       ry="5.6969738"
       rx="9.7840433"
       cy="1018.6592"
       cx="24.000002"
       style="fill:url(#linearGradient4087-6);fill-opacity:1;stroke:none"
       id="path4079-8" />
  </g>
</svg>
