<?xml version="1.0" encoding="UTF-8" standalone="no"?>
<!-- Created with Inkscape (http://www.inkscape.org/) -->

<svg
   xmlns:dc="http://purl.org/dc/elements/1.1/"
   xmlns:cc="http://creativecommons.org/ns#"
   xmlns:rdf="http://www.w3.org/1999/02/22-rdf-syntax-ns#"
   xmlns:svg="http://www.w3.org/2000/svg"
   xmlns="http://www.w3.org/2000/svg"
   xmlns:xlink="http://www.w3.org/1999/xlink"
   xmlns:sodipodi="http://sodipodi.sourceforge.net/DTD/sodipodi-0.dtd"
   xmlns:inkscape="http://www.inkscape.org/namespaces/inkscape"
   width="48"
   height="48"
   id="svg2"
   version="1.1"
   inkscape:version="0.48+devel r12487"
   sodipodi:docname="omgwords.svg">
  <defs
     id="defs4">
    <linearGradient
       inkscape:collect="always"
       id="linearGradient4081">
      <stop
         style="stop-color:#ffffff;stop-opacity:1;"
         offset="0"
         id="stop4083" />
      <stop
         style="stop-color:#ffffff;stop-opacity:0;"
         offset="1"
         id="stop4085" />
    </linearGradient>
    <linearGradient
       id="linearGradient1418"
       inkscape:collect="always">
      <stop
         id="stop1420"
         offset="0"
         style="stop-color:#f05112;stop-opacity:1" />
      <stop
         id="stop1422"
         offset="1"
         style="stop-color:#f48254;stop-opacity:1" />
    </linearGradient>
    <linearGradient
       id="linearGradient1404"
       inkscape:collect="always">
      <stop
         id="stop1406"
         offset="0"
         style="stop-color:#592041;stop-opacity:1;" />
      <stop
         id="stop1408"
         offset="1"
         style="stop-color:#bd498c;stop-opacity:1" />
    </linearGradient>
    <linearGradient
       gradientTransform="translate(-59.968935,8.2669036)"
       gradientUnits="userSpaceOnUse"
       y2="-1012.941"
       x2="85.913475"
       y1="-1061.0243"
       x1="85.913475"
       id="linearGradient1402"
       xlink:href="#linearGradient1404"
       inkscape:collect="always" />
    <linearGradient
       gradientTransform="matrix(0.96186768,0,0,0.96190919,0.91517578,39.17124)"
       gradientUnits="userSpaceOnUse"
       y2="1012.7642"
       x2="30.405592"
       y1="1044.9376"
       x1="30.405592"
       id="linearGradient1424"
       xlink:href="#linearGradient1418"
       inkscape:collect="always" />
    <linearGradient
       inkscape:collect="always"
       xlink:href="#linearGradient4081"
       id="linearGradient4087"
       x1="24.248386"
       y1="3.3583653"
       x2="24.248386"
       y2="18.361063"
       gradientUnits="userSpaceOnUse" />
  </defs>
  <sodipodi:namedview
     id="base"
     pagecolor="#ffffff"
     bordercolor="#666666"
     borderopacity="1.0"
     inkscape:pageopacity="0.0"
     inkscape:pageshadow="2"
     inkscape:zoom="4.40625"
     inkscape:cx="12.414286"
     inkscape:cy="22.937889"
     inkscape:document-units="px"
     inkscape:current-layer="layer1"
     showgrid="false"
     inkscape:window-width="1366"
     inkscape:window-height="718"
     inkscape:window-x="0"
     inkscape:window-y="30"
     inkscape:window-maximized="1">
    <inkscape:grid
       type="xygrid"
       id="grid3850" />
  </sodipodi:namedview>
  <metadata
     id="metadata7">
    <rdf:RDF>
      <cc:Work
         rdf:about="">
        <dc:format>image/svg+xml</dc:format>
        <dc:type
           rdf:resource="http://purl.org/dc/dcmitype/StillImage" />
        <dc:title />
      </cc:Work>
    </rdf:RDF>
  </metadata>
  <g
     inkscape:label="Capa 1"
     inkscape:groupmode="layer"
     id="layer1"
     transform="translate(0,-1004.3622)">
    <rect
       style="fill:url(#linearGradient1402);fill-opacity:1;stroke:none"
       id="rect2991-1"
       width="48"
       height="48"
       x="3.2287596e-07"
       y="-1052.3622"
       ry="1.9445436"
       transform="scale(1,-1)" />
    <path
       id="path4067"
       d="m 24.000001,1014.1622 c -8.53516,0 -15.4500008,6.6748 -15.4500008,14.9188 0,8.244 6.9148408,14.9187 15.4500008,14.9187 2.443387,0 4.7591,-0.5445 6.813196,-1.5198 l 6.737213,2.4823 -2.330164,-5.623 C 37.843761,1036.664 39.45,1033.0566 39.45,1029.081 39.45,1020.837 32.535161,1014.1622 24.000001,1014.1622 Z"
       style="fill:#000000;fill-opacity:0.05882353;stroke:none"
       inkscape:connector-curvature="0" />
    <path
       inkscape:connector-curvature="0"
       style="fill:#000000;fill-opacity:0.11764706;stroke:none"
       d="m 24.000001,1013.7622 c -8.53516,0 -15.4500008,6.6748 -15.4500008,14.9188 0,8.244 6.9148408,14.9187 15.4500008,14.9187 2.443387,0 4.7591,-0.5445 6.813196,-1.5198 l 6.737213,2.4823 -2.330164,-5.623 C 37.843761,1036.264 39.45,1032.6566 39.45,1028.681 39.45,1020.437 32.535161,1013.7622 24.000001,1013.7622 Z"
       id="path4065" />
    <path
       id="path4061"
       d="m 24.000001,1013.3622 c -8.53516,0 -15.4500008,6.6748 -15.4500008,14.9188 0,8.244 6.9148408,14.9187 15.4500008,14.9187 2.443387,0 4.7591,-0.5445 6.813196,-1.5198 l 6.737213,2.4823 -2.330164,-5.623 C 37.843761,1035.864 39.45,1032.2566 39.45,1028.281 39.45,1020.037 32.535161,1013.3622 24.000001,1013.3622 Z"
       style="fill:#000000;fill-opacity:0.23529412;stroke:none"
       inkscape:connector-curvature="0" />
    <path
       inkscape:connector-curvature="0"
       style="fill:#000000;fill-opacity:1;stroke:none"
       d="m -3.2287598e-7,1049.3622 0,1.0625 c 0,1.0773 0.86022300287598,1.9375 1.93750002287598,1.9375 l 44.1249993,0 c 1.07728,0 1.9375,-0.8602 1.9375,-1.9375 l 0,-1.0625 c 0,1.0773 -0.86022,1.9375 -1.9375,1.9375 l -44.1249993,0 C 0.86022268,1051.2997 -3.2287598e-7,1050.4395 -3.2287598e-7,1049.3622 Z"
       id="rect846" />
    <path
       inkscape:connector-curvature="0"
       style="fill:#ffffff;fill-opacity:0.5372549;stroke:none"
       d="m 2.5312497,1005.0185 c -0.917088,0 -1.67114702,0.6395 -1.84375002,1.5 0.33561202,-0.2799 0.77451202,-0.4375 1.25000002,-0.4375 l 44.1249993,0 c 0.47549,0 0.91439,0.1576 1.25,0.4375 -0.1726,-0.8605 -0.92666,-1.5 -1.84375,-1.5 L 2.5312497,1005.0185 Z"
       id="path7515" />
    <path
       inkscape:connector-curvature="0"
       style="fill:#000000;fill-opacity:0.39215686;stroke:none"
       d="m 1.9374997,1004.3622 c -1.07727702,0 -1.93750002287598,0.8602 -1.93750002287598,1.9375 l 0,43.0625 c 0,0.7934 0.48002400287598,1.449 1.15625002287598,1.75 -0.30934202,-0.3333 -0.50000002,-0.7824 -0.50000002,-1.2812 l 0,-42.9375 c 0,-1.0482 0.82689902,-1.875 1.87500002,-1.875 l 42.9374993,0 c 1.0481,0 1.875,0.8268 1.875,1.875 l 0,42.9375 c 0,0.4988 -0.19066,0.9479 -0.5,1.2812 0.67622,-0.301 1.15625,-0.9566 1.15625,-1.75 l 0,-43.0625 c 0,-1.0773 -0.86022,-1.9375 -1.9375,-1.9375 L 1.9374997,1004.3622 Z"
       id="rect4280-8" />
    <path
       inkscape:connector-curvature="0"
       style="fill:url(#linearGradient1424);fill-opacity:1;stroke:none"
       d="m 24.000001,1012.9622 c -8.53516,0 -15.4500008,6.6748 -15.4500008,14.9188 0,8.244 6.9148408,14.9187 15.4500008,14.9187 2.443387,0 4.7591,-0.5445 6.813196,-1.5198 l 6.737213,2.4823 -2.330164,-5.623 C 37.843761,1035.464 39.45,1031.8566 39.45,1027.881 39.45,1019.637 32.535161,1012.9622 24.000001,1012.9622 Z"
       id="path3194-0" />
    <g
       transform="matrix(1.9350978,-0.10494996,0.10866101,1.8690084,-48.841477,928.61951)"
       style="font-size:2.16666675px;font-style:normal;font-weight:normal;fill:#ffffff;fill-opacity:1;stroke:none;font-family:monospace;-inkscape-font-specification:monospace"
       id="text3204" />
    <path
       inkscape:connector-curvature="0"
       id="path4093"
       d="m 35.740867,1022.6118 -2.045775,0.1076 0.107672,1.5075 0.538362,2.9878 1.26515,-0.054 0.215345,-3.0419 L 35.740867,1022.6118 z m -5.410537,0.1614 c -0.785047,0.042 -1.405472,0.1921 -1.857348,0.4308 -0.579081,0.3087 -0.987567,0.7399 -1.26515,1.2919 -0.27776,0.5493 -0.418416,1.1891 -0.376854,1.9112 0.03949,0.686 0.22751,1.2891 0.538362,1.8036 0.313966,0.5143 0.738835,0.8902 1.26515,1.1305 0.529427,0.2406 1.178854,0.34 1.991939,0.2961 0.660427,-0.035 1.25149,-0.1499 1.722758,-0.323 0.474199,-0.1763 1.012639,-0.4964 1.615085,-0.9422 l -0.161508,-2.7993 -3.284007,0.1615 0.08075,1.3727 1.426659,-0.08 0.02692,0.646 c -0.268084,0.1742 -0.515652,0.2992 -0.726788,0.3768 -0.211147,0.078 -0.436197,0.1217 -0.672952,0.1346 -0.498443,0.027 -0.886364,-0.112 -1.184396,-0.4039 -0.294923,-0.292 -0.470227,-0.7912 -0.511445,-1.5073 -0.03879,-0.674 0.06671,-1.1828 0.323018,-1.5075 0.259244,-0.3278 0.639466,-0.5134 1.103642,-0.5382 0.31152,-0.017 0.546706,0.04 0.753706,0.1614 0.210108,0.1215 0.38603,0.32 0.484526,0.5653 l 2.018856,-0.4577 c -0.149208,-0.4204 -0.353968,-0.7862 -0.619115,-1.0497 -0.262216,-0.2666 -0.584493,-0.4532 -0.969052,-0.5653 C 31.671633,1022.7648 31.087331,1022.7328 30.33033,1022.7732 z m -3.876205,0.323 -2.772563,0.1616 -0.834462,4.0646 -1.318985,-3.9571 -2.772564,0.1616 0.376852,6.595 1.722759,-0.08 -0.296099,-5.0337 1.642004,4.953 1.561249,-0.08 1.049806,-5.1144 0.296098,5.0336 1.722758,-0.08 L 26.454125,1023.0962 z m -11.332516,0.5114 c -1.112149,0.059 -1.968806,0.3877 -2.557219,1.0231 -0.588416,0.6351 -0.842795,1.5039 -0.780625,2.584 0.04451,0.7733 0.221026,1.4135 0.56528,1.9112 0.344253,0.4975 0.773715,0.8391 1.292069,1.0498 0.521463,0.2104 1.192433,0.3105 1.96502,0.2692 0.760117,-0.041 1.365317,-0.2105 1.857348,-0.5114 0.494964,-0.3042 0.864125,-0.7304 1.103643,-1.2382 0.242445,-0.511 0.340598,-1.138 0.296099,-1.9112 -0.06131,-1.0653 -0.399049,-1.8929 -1.049805,-2.4496 C 17.162478,1023.7749 16.261784,1023.5465 15.121609,1023.6076 z m 0.08074,1.5344 c 0.445478,-0.024 0.801529,0.102 1.076724,0.3769 0.278129,0.2717 0.448674,0.723 0.484526,1.3459 0.0426,0.7402 -0.06334,1.2619 -0.296099,1.5613 -0.232772,0.2991 -0.568066,0.4595 -1.022887,0.4844 -0.44237,0.024 -0.801364,-0.099 -1.076724,-0.3768 -0.272253,-0.2781 -0.446083,-0.7586 -0.484527,-1.4267 -0.03879,-0.674 0.08124,-1.1747 0.323017,-1.4804 C 14.44816,1025.3208 14.77557,1025.1653 15.202363,1025.142 z m 20.753849,2.4496 -1.884267,0.1078 0.08075,1.615 1.911185,-0.08 L 35.956212,1027.5916 z m 0.08074,1.9111 -1.29207,0.08 0.05385,0.9421 0.349937,1.8841 0.807542,-0.027 0.134591,-1.9381 L 36.036966,1029.5027 z m -3.176336,0.1078 c -0.44916,0.024 -0.824208,0.091 -1.076722,0.2154 -0.250666,0.1218 -0.42004,0.286 -0.538363,0.4844 -0.116477,0.1963 -0.173955,0.4051 -0.161508,0.6191 0.01894,0.3259 0.167405,0.5838 0.430689,0.7808 0.261321,0.1967 0.673273,0.3353 1.26515,0.4305 0.361377,0.056 0.596842,0.1353 0.699872,0.2154 0.103021,0.08 0.155305,0.1613 0.161507,0.2692 0.0066,0.1134 -0.03571,0.2302 -0.13459,0.323 -0.09704,0.091 -0.240436,0.1243 -0.43069,0.1346 -0.254982,0.014 -0.445094,-0.055 -0.592198,-0.2154 -0.0904,-0.099 -0.149406,-0.2332 -0.188426,-0.4305 l -1.265151,0.1344 c 0.06171,0.4187 0.240062,0.7655 0.538362,1.023 0.2983,0.2575 0.800768,0.3625 1.534331,0.323 0.417774,-0.022 0.755007,-0.1117 1.022888,-0.2424 0.267762,-0.1324 0.479231,-0.3045 0.619115,-0.5383 0.13987,-0.2337 0.20395,-0.4867 0.188428,-0.7537 -0.01323,-0.2274 -0.08894,-0.4416 -0.215345,-0.6192 -0.124448,-0.1775 -0.305105,-0.3215 -0.56528,-0.4306 -0.258329,-0.1115 -0.675571,-0.2065 -1.26515,-0.2962 -0.238123,-0.034 -0.391652,-0.082 -0.457607,-0.1345 -0.06781,-0.049 -0.103797,-0.095 -0.107673,-0.1615 -0.0053,-0.091 0.0059,-0.1751 0.08074,-0.2422 0.07471,-0.067 0.194983,-0.1 0.349935,-0.1077 0.188293,-0.01 0.346739,0.029 0.457608,0.1077 0.112829,0.079 0.198014,0.218 0.242263,0.4037 l 1.238232,-0.1615 c -0.08004,-0.4289 -0.263542,-0.7339 -0.565279,-0.9152 C 33.825889,1029.6422 33.411779,1029.5804 32.86063,1029.6104 z m -4.09155,0.2961 -1.991938,0.1077 0.242263,4.1454 1.991939,-0.1079 c 0.237326,-0.013 0.492779,-0.042 0.780624,-0.1344 0.210593,-0.066 0.388526,-0.2018 0.56528,-0.3769 0.176637,-0.1768 0.314021,-0.396 0.403772,-0.6459 0.0916,-0.2522 0.133548,-0.5776 0.107673,-1.0229 -0.01652,-0.2841 -0.07614,-0.5577 -0.16151,-0.8077 -0.08538,-0.25 -0.208821,-0.463 -0.376853,-0.6459 -0.168038,-0.1829 -0.37192,-0.3415 -0.619116,-0.4307 C 29.465973,1029.898 29.159396,1029.8859 28.769081,1029.9065 z m -4.091549,0.2153 -2.234202,0.1077 0.242263,4.1724 1.345905,-0.054 -0.107672,-1.6959 0.13459,-0.027 c 0.121604,-0.01 0.223161,0.021 0.323017,0.08 0.07347,0.045 0.169372,0.1633 0.26918,0.3233 l 0.780626,1.238 1.507412,-0.08 -0.726788,-1.1844 c -0.03491,-0.059 -0.08778,-0.1357 -0.188427,-0.2423 -0.09868,-0.1069 -0.191252,-0.1844 -0.242263,-0.2154 -0.07555,-0.047 -0.188091,-0.092 -0.349934,-0.1346 0.195564,-0.055 0.347698,-0.116 0.457606,-0.1884 0.172427,-0.1138 0.311469,-0.2583 0.403772,-0.4306 0.09219,-0.1742 0.121102,-0.361 0.107673,-0.5923 -0.01542,-0.2651 -0.09822,-0.4964 -0.242263,-0.6728 -0.144172,-0.1785 -0.316686,-0.2933 -0.538362,-0.35 C 25.397983,1030.1162 25.089421,1030.0995 24.677531,1030.1219 z m -4.683749,0.1884 c -0.700218,0.038 -1.244834,0.2459 -1.615085,0.646 -0.37025,0.4003 -0.524071,0.935 -0.484525,1.6151 0.02831,0.487 0.159919,0.8981 0.376853,1.2114 0.216933,0.313 0.481095,0.54 0.807543,0.6729 0.328406,0.1321 0.724886,0.1873 1.211314,0.1615 0.478576,-0.026 0.874707,-0.1333 1.184396,-0.3231 0.311532,-0.1917 0.549249,-0.4608 0.69987,-0.7806 0.15247,-0.3218 0.216731,-0.7246 0.188428,-1.2114 -0.039,-0.6706 -0.263016,-1.184 -0.672953,-1.5343 C 21.279566,1030.4158 20.71165,1030.2716 19.993782,1030.3103 z m -1.965019,0.1615 -1.265151,0.08 -0.323018,2.3418 -0.780624,-2.2879 -1.26515,0.08 -0.538362,2.3421 -0.592198,-2.2881 -1.26515,0.054 0,0.027 1.211313,4.0915 1.292069,-0.054 0.592198,-2.6649 0.915216,2.584 1.318985,-0.08 L 18.028763,1030.4718 z m 10.471136,0.3768 c 0.345203,-0.018 0.595168,0.06 0.753707,0.2153 0.158535,0.1551 0.243512,0.4469 0.269181,0.8884 0.01938,0.3334 0.0042,0.5735 -0.05384,0.7268 -0.05811,0.1514 -0.1281,0.2567 -0.242263,0.3231 -0.114273,0.065 -0.313683,0.1191 -0.592198,0.1345 l -0.349934,0.027 -0.107673,-2.288 L 28.499899,1030.8486 z m -4.091549,0.1346 c 0.24321,-0.013 0.418993,0.014 0.511444,0.08 0.09245,0.067 0.15367,0.1617 0.161508,0.2962 0.0053,0.091 -0.02795,0.169 -0.08075,0.2423 -0.05084,0.073 -0.128075,0.14 -0.215344,0.1613 -0.172364,0.047 -0.28913,0.054 -0.349936,0.054 l -0.538361,0.027 -0.05384,-0.8344 L 24.408351,1030.9832 z m -4.360731,0.2962 c 0.280477,-0.015 0.499579,0.069 0.672952,0.2422 0.175216,0.1711 0.273299,0.4424 0.296099,0.8345 0.02709,0.4661 -0.01507,0.8073 -0.161508,0.996 -0.146452,0.1886 -0.359675,0.2806 -0.646034,0.2962 -0.27852,0.015 -0.526393,-0.068 -0.69987,-0.2422 -0.171518,-0.1754 -0.271654,-0.4678 -0.2961,-0.8884 -0.02466,-0.4245 0.03631,-0.7496 0.188427,-0.9422 C 19.553695,1031.3829 19.778907,1031.294 20.047619,1031.2794 z m 16.123937,1.3727 -1.184396,0.054 0.05385,1.023 1.184395,-0.054 L 36.171557,1032.6521 Z"
       style="font-size:1.00904107px;font-style:normal;font-variant:normal;font-weight:bold;font-stretch:normal;fill:#000000;fill-opacity:0.23529412;stroke:none;font-family:Arial Black;-inkscape-font-specification:'Arial Black, Bold'" />
    <path
       style="font-size:1.00904107px;font-style:normal;font-variant:normal;font-weight:bold;font-stretch:normal;fill:#ffffff;fill-opacity:1;stroke:none;font-family:Arial Black;-inkscape-font-specification:'Arial Black, Bold'"
       d="m 35.740867,1022.212 -2.045775,0.1076 0.107672,1.5075 0.538362,2.9878 1.26515,-0.054 0.215345,-3.0419 L 35.740867,1022.212 z m -5.410537,0.1614 c -0.785047,0.042 -1.405472,0.1921 -1.857348,0.4308 -0.579081,0.3087 -0.987567,0.7399 -1.26515,1.2919 -0.27776,0.5493 -0.418416,1.1891 -0.376854,1.9112 0.03949,0.686 0.22751,1.2891 0.538362,1.8036 0.313966,0.5143 0.738835,0.8902 1.26515,1.1305 0.529427,0.2406 1.178854,0.34 1.991939,0.2961 0.660427,-0.035 1.25149,-0.1499 1.722758,-0.323 0.474199,-0.1763 1.012639,-0.4964 1.615085,-0.9422 l -0.161508,-2.7993 -3.284007,0.1615 0.08075,1.3727 1.426659,-0.08 0.02692,0.646 c -0.268084,0.1742 -0.515652,0.2992 -0.726788,0.3768 -0.211147,0.078 -0.436197,0.1217 -0.672952,0.1346 -0.498443,0.027 -0.886364,-0.112 -1.184396,-0.4039 -0.294923,-0.292 -0.470227,-0.7912 -0.511445,-1.5073 -0.03879,-0.674 0.06671,-1.1828 0.323018,-1.5075 0.259244,-0.3278 0.639466,-0.5134 1.103642,-0.5382 0.31152,-0.017 0.546706,0.04 0.753706,0.1614 0.210108,0.1215 0.38603,0.32 0.484526,0.5653 l 2.018856,-0.4577 c -0.149208,-0.4204 -0.353968,-0.7862 -0.619115,-1.0497 -0.262216,-0.2666 -0.584493,-0.4532 -0.969052,-0.5653 C 31.671633,1022.365 31.087331,1022.333 30.33033,1022.3734 z m -3.876205,0.323 -2.772563,0.1616 -0.834462,4.0646 -1.318985,-3.9571 -2.772564,0.1616 0.376852,6.595 1.722759,-0.08 -0.296099,-5.0337 1.642004,4.953 1.561249,-0.08 1.049806,-5.1144 0.296098,5.0336 1.722758,-0.08 L 26.454125,1022.6964 z m -11.332516,0.5114 c -1.112149,0.059 -1.968806,0.3877 -2.557219,1.0231 -0.588416,0.6351 -0.842795,1.5039 -0.780625,2.584 0.04451,0.7733 0.221026,1.4135 0.56528,1.9112 0.344253,0.4975 0.773715,0.8391 1.292069,1.0498 0.521463,0.2104 1.192433,0.3105 1.96502,0.2692 0.760117,-0.041 1.365317,-0.2105 1.857348,-0.5114 0.494964,-0.3042 0.864125,-0.7304 1.103643,-1.2382 0.242445,-0.511 0.340598,-1.138 0.296099,-1.9112 -0.06131,-1.0653 -0.399049,-1.8929 -1.049805,-2.4496 C 17.162478,1023.3751 16.261784,1023.1467 15.121609,1023.2078 z m 0.08074,1.5344 c 0.445478,-0.024 0.801529,0.102 1.076724,0.3769 0.278129,0.2717 0.448674,0.723 0.484526,1.3459 0.0426,0.7402 -0.06334,1.2619 -0.296099,1.5613 -0.232772,0.2991 -0.568066,0.4595 -1.022887,0.4844 -0.44237,0.024 -0.801364,-0.099 -1.076724,-0.3768 -0.272253,-0.2781 -0.446083,-0.7586 -0.484527,-1.4267 -0.03879,-0.674 0.08124,-1.1747 0.323017,-1.4804 C 14.44816,1024.921 14.77557,1024.7655 15.202363,1024.7422 z m 20.753849,2.4496 -1.884267,0.1078 0.08075,1.615 1.911185,-0.08 L 35.956212,1027.1918 z m 0.08074,1.9111 -1.29207,0.08 0.05385,0.9421 0.349937,1.8841 0.807542,-0.027 0.134591,-1.9381 L 36.036966,1029.1029 z m -3.176336,0.1078 c -0.44916,0.024 -0.824208,0.091 -1.076722,0.2154 -0.250666,0.1218 -0.42004,0.286 -0.538363,0.4844 -0.116477,0.1963 -0.173955,0.4051 -0.161508,0.6191 0.01894,0.3259 0.167405,0.5838 0.430689,0.7808 0.261321,0.1967 0.673273,0.3353 1.26515,0.4305 0.361377,0.056 0.596842,0.1353 0.699872,0.2154 0.103021,0.08 0.155305,0.1613 0.161507,0.2692 0.0066,0.1134 -0.03571,0.2302 -0.13459,0.323 -0.09704,0.091 -0.240436,0.1243 -0.43069,0.1346 -0.254982,0.014 -0.445094,-0.055 -0.592198,-0.2154 -0.0904,-0.099 -0.149406,-0.2332 -0.188426,-0.4305 l -1.265151,0.1344 c 0.06171,0.4187 0.240062,0.7655 0.538362,1.023 0.2983,0.2575 0.800768,0.3625 1.534331,0.323 0.417774,-0.022 0.755007,-0.1117 1.022888,-0.2424 0.267762,-0.1324 0.479231,-0.3045 0.619115,-0.5383 0.13987,-0.2337 0.20395,-0.4867 0.188428,-0.7537 -0.01323,-0.2274 -0.08894,-0.4416 -0.215345,-0.6192 -0.124448,-0.1775 -0.305105,-0.3215 -0.56528,-0.4306 -0.258329,-0.1115 -0.675571,-0.2065 -1.26515,-0.2962 -0.238123,-0.034 -0.391652,-0.082 -0.457607,-0.1345 -0.06781,-0.049 -0.103797,-0.095 -0.107673,-0.1615 -0.0053,-0.091 0.0059,-0.1751 0.08074,-0.2422 0.07471,-0.067 0.194983,-0.1 0.349935,-0.1077 0.188293,-0.01 0.346739,0.029 0.457608,0.1077 0.112829,0.079 0.198014,0.218 0.242263,0.4037 l 1.238232,-0.1615 c -0.08004,-0.4289 -0.263542,-0.7339 -0.565279,-0.9152 C 33.825889,1029.2424 33.411779,1029.1806 32.86063,1029.2106 z m -4.09155,0.2961 -1.991938,0.1077 0.242263,4.1454 1.991939,-0.1079 c 0.237326,-0.013 0.492779,-0.042 0.780624,-0.1344 0.210593,-0.066 0.388526,-0.2018 0.56528,-0.3769 0.176637,-0.1768 0.314021,-0.396 0.403772,-0.6459 0.0916,-0.2522 0.133548,-0.5776 0.107673,-1.0229 -0.01652,-0.2841 -0.07614,-0.5577 -0.16151,-0.8077 -0.08538,-0.25 -0.208821,-0.463 -0.376853,-0.6459 -0.168038,-0.1829 -0.37192,-0.3415 -0.619116,-0.4307 C 29.465973,1029.4982 29.159396,1029.4861 28.769081,1029.5067 z m -4.091549,0.2153 -2.234202,0.1077 0.242263,4.1724 1.345905,-0.054 -0.107672,-1.6959 0.13459,-0.027 c 0.121604,-0.01 0.223161,0.021 0.323017,0.08 0.07347,0.045 0.169372,0.1633 0.26918,0.3233 l 0.780626,1.238 1.507412,-0.08 -0.726788,-1.1844 c -0.03491,-0.059 -0.08778,-0.1357 -0.188427,-0.2423 -0.09868,-0.1069 -0.191252,-0.1844 -0.242263,-0.2154 -0.07555,-0.047 -0.188091,-0.092 -0.349934,-0.1346 0.195564,-0.055 0.347698,-0.116 0.457606,-0.1884 0.172427,-0.1138 0.311469,-0.2583 0.403772,-0.4306 0.09219,-0.1742 0.121102,-0.361 0.107673,-0.5923 -0.01542,-0.2651 -0.09822,-0.4964 -0.242263,-0.6728 -0.144172,-0.1785 -0.316686,-0.2933 -0.538362,-0.35 C 25.397983,1029.7164 25.089421,1029.6997 24.677531,1029.7221 z m -4.683749,0.1884 c -0.700218,0.038 -1.244834,0.2459 -1.615085,0.646 -0.37025,0.4003 -0.524071,0.935 -0.484525,1.6151 0.02831,0.487 0.159919,0.8981 0.376853,1.2114 0.216933,0.313 0.481095,0.54 0.807543,0.6729 0.328406,0.1321 0.724886,0.1873 1.211314,0.1615 0.478576,-0.026 0.874707,-0.1333 1.184396,-0.3231 0.311532,-0.1917 0.549249,-0.4608 0.69987,-0.7806 0.15247,-0.3218 0.216731,-0.7246 0.188428,-1.2114 -0.039,-0.6706 -0.263016,-1.184 -0.672953,-1.5343 C 21.279566,1030.016 20.71165,1029.8718 19.993782,1029.9105 z m -1.965019,0.1615 -1.265151,0.08 -0.323018,2.3418 -0.780624,-2.2879 -1.26515,0.08 -0.538362,2.3421 -0.592198,-2.2881 -1.26515,0.054 0,0.027 1.211313,4.0915 1.292069,-0.054 0.592198,-2.6649 0.915216,2.584 1.318985,-0.08 L 18.028763,1030.072 z m 10.471136,0.3768 c 0.345203,-0.018 0.595168,0.06 0.753707,0.2153 0.158535,0.1551 0.243512,0.4469 0.269181,0.8884 0.01938,0.3334 0.0042,0.5735 -0.05384,0.7268 -0.05811,0.1514 -0.1281,0.2567 -0.242263,0.3231 -0.114273,0.065 -0.313683,0.1191 -0.592198,0.1345 l -0.349934,0.027 -0.107673,-2.288 L 28.499899,1030.4488 z m -4.091549,0.1346 c 0.24321,-0.013 0.418993,0.014 0.511444,0.08 0.09245,0.067 0.15367,0.1617 0.161508,0.2962 0.0053,0.091 -0.02795,0.169 -0.08075,0.2423 -0.05084,0.073 -0.128075,0.14 -0.215344,0.1613 -0.172364,0.047 -0.28913,0.054 -0.349936,0.054 l -0.538361,0.027 -0.05384,-0.8344 L 24.408351,1030.5834 z m -4.360731,0.2962 c 0.280477,-0.015 0.499579,0.069 0.672952,0.2422 0.175216,0.1711 0.273299,0.4424 0.296099,0.8345 0.02709,0.4661 -0.01507,0.8073 -0.161508,0.996 -0.146452,0.1886 -0.359675,0.2806 -0.646034,0.2962 -0.27852,0.015 -0.526393,-0.068 -0.69987,-0.2422 -0.171518,-0.1754 -0.271654,-0.4678 -0.2961,-0.8884 -0.02466,-0.4245 0.03631,-0.7496 0.188427,-0.9422 C 19.553695,1030.9831 19.778907,1030.8942 20.047619,1030.8796 z m 16.123937,1.3727 -1.184396,0.054 0.05385,1.023 1.184395,-0.054 L 36.171557,1032.2523 Z"
       id="path2848"
       inkscape:connector-curvature="0" />
    <path
       style="fill:#000000;fill-opacity:0.23529412;stroke:none"
       d="m 8.59375,1027.4809 c -0.00379,0.1361 -0.03125,0.2694 -0.03125,0.4063 0,8.244 6.90234,14.9062 15.4375,14.9062 2.443387,0 4.758404,-0.5559 6.8125,-1.5312 l 6.75,2.5 -0.40625,-0.9688 -6.34375,-2.3125 c -2.054096,0.9754 -4.369113,1.5 -6.8125,1.5 C 15.606575,1041.9809 8.8181566,1035.5354 8.59375,1027.4809 z m 30.8125,0 c -0.106699,3.8127 -1.654824,7.2612 -4.1875,9.8438 l 0.21875,0.5625 c 2.488269,-2.6494 4,-6.1409 4,-10 C 39.4375,1027.7503 39.410039,1027.617 39.40625,1027.4809 Z"
       id="path4069"
       inkscape:connector-curvature="0" />
    <path
       style="fill:#ffffff;fill-opacity:0.23529412;stroke:none"
       d="m 24,1012.9622 c -8.53516,0 -15.4375,6.6935 -15.4375,14.9375 0.2110815,-8.066 7.035471,-14.5312 15.4375,-14.5312 8.402029,0 15.226419,6.4652 15.4375,14.5312 C 39.4375,1019.6557 32.53516,1012.9622 24,1012.9622 z m 11.34375,25.4688 c -0.04034,0.042 -0.08417,0.083 -0.125,0.125 l 2.15625,5.1562 0.1875,0.062 L 35.34375,1038.431 Z"
       id="path4074"
       inkscape:connector-curvature="0" />
    <path
       sodipodi:type="arc"
       style="fill:url(#linearGradient4087);fill-opacity:1;stroke:none"
       id="path4079"
       sodipodi:cx="23.916367"
       sodipodi:cy="16.14509"
       sodipodi:rx="8.1792612"
       sodipodi:ry="5.0550613"
       d="m 32.095628,16.14509 a 8.1792612,5.0550613 0 1 1 -16.358523,0 A 8.1792612,5.0550613 0 1 1 32.095628,16.14509 Z"
       transform="matrix(1.1962013,0,0,1.1269841,-4.6087878,1000.4639)" />
  </g>
</svg>
