<?xml version="1.0" encoding="UTF-8" standalone="no"?>
<!-- Created with Inkscape (http://www.inkscape.org/) -->

<svg
   xmlns:dc="http://purl.org/dc/elements/1.1/"
   xmlns:cc="http://creativecommons.org/ns#"
   xmlns:rdf="http://www.w3.org/1999/02/22-rdf-syntax-ns#"
   xmlns:svg="http://www.w3.org/2000/svg"
   xmlns="http://www.w3.org/2000/svg"
   xmlns:xlink="http://www.w3.org/1999/xlink"
   xmlns:sodipodi="http://sodipodi.sourceforge.net/DTD/sodipodi-0.dtd"
   xmlns:inkscape="http://www.inkscape.org/namespaces/inkscape"
   width="48"
   height="48"
   id="svg5453"
   version="1.1"
   inkscape:version="0.48+devel r12923"
   sodipodi:docname="openarena.svg">
  <defs
     id="defs5455">
    <linearGradient
       id="linearGradient4172">
      <stop
         style="stop-color:#b9e8ff;stop-opacity:1"
         offset="0"
         id="stop4174" />
      <stop
         style="stop-color:#f5feff;stop-opacity:1"
         offset="1"
         id="stop4176" />
    </linearGradient>
    <linearGradient
       id="linearGradient1157">
      <stop
         id="stop1159"
         offset="0"
         style="stop-color:#018ed2;stop-opacity:1" />
      <stop
         id="stop1161"
         offset="1"
         style="stop-color:#02d7ef;stop-opacity:1" />
    </linearGradient>
    <linearGradient
       inkscape:collect="always"
       xlink:href="#linearGradient1157"
       id="linearGradient4129"
       x1="420.16177"
       y1="-547.81903"
       x2="420.16177"
       y2="-499.79614"
       gradientUnits="userSpaceOnUse" />
    <linearGradient
       inkscape:collect="always"
       xlink:href="#linearGradient4172"
       id="linearGradient4170"
       x1="409.57144"
       y1="539.29797"
       x2="409.57144"
       y2="508.298"
       gradientUnits="userSpaceOnUse" />
  </defs>
  <sodipodi:namedview
     id="base"
     pagecolor="#ffffff"
     bordercolor="#666666"
     borderopacity="1.0"
     inkscape:pageopacity="0"
     inkscape:pageshadow="2"
     inkscape:zoom="11.878217"
     inkscape:cx="21.944196"
     inkscape:cy="29.17633"
     inkscape:document-units="px"
     inkscape:current-layer="layer1"
     showgrid="false"
     fit-margin-top="0"
     fit-margin-left="0"
     fit-margin-right="0"
     fit-margin-bottom="0"
     inkscape:window-width="1366"
     inkscape:window-height="669"
     inkscape:window-x="0"
     inkscape:window-y="26"
     inkscape:window-maximized="1"
     inkscape:showpageshadow="false"
     borderlayer="true" />
  <metadata
     id="metadata5458">
    <rdf:RDF>
      <cc:Work
         rdf:about="">
        <dc:format>image/svg+xml</dc:format>
        <dc:type
           rdf:resource="http://purl.org/dc/dcmitype/StillImage" />
        <dc:title></dc:title>
      </cc:Work>
    </rdf:RDF>
  </metadata>
  <g
     inkscape:label="Capa 1"
     inkscape:groupmode="layer"
     id="layer1"
     transform="translate(-384.57143,-499.798)">
    <rect
       style="fill:url(#linearGradient4129);fill-opacity:1;stroke:none"
       id="rect2991-1-7"
       width="48"
       height="48"
       x="384.57144"
       y="-547.79797"
       ry="1.9445436"
       transform="scale(1,-1)" />
    <path
       inkscape:connector-curvature="0"
       d="m 406.49024,537.24321 -2.04458,-3.2628 1.93794,-3.19282 c 1.06582,-1.75603 1.99289,-3.28808 2.06022,-3.40443 0.0814,-0.14014 0.81286,0.92514 2.16863,3.15678 1.12543,1.85263 2.04633,3.40203 2.04633,3.44321 0,0.0902 -3.8611,6.25662 -4.01552,6.413 -0.0598,0.0602 -1.02847,-1.35847 -2.15302,-3.15294 z m -10.68224,1.70772 -2.53938,-1.24447 1.06319,-1.97359 c 0.58477,-1.08547 0.99978,-2.02403 0.92223,-2.08567 -0.0777,-0.0618 -0.70403,-0.52131 -1.39225,-1.02139 -7.51218,-5.45848 -6.95311,-14.35373 1.22503,-19.48983 6.78919,-4.26373 17.40377,-4.72943 24.9298,-1.09376 3.70885,1.79166 6.20182,4.10528 7.58399,7.03811 0.70518,1.49643 0.96128,2.58556 0.97063,4.12722 0.024,3.92758 -2.24737,7.59278 -6.37566,10.28919 l -0.40015,0.26138 0.97024,1.83849 c 0.53362,1.01119 0.99356,1.89548 1.02198,1.96509 0.0494,0.12036 -4.99066,2.64626 -5.28021,2.64626 -0.0761,0 -2.31405,-4.08949 -4.97321,-9.08782 -2.65915,-4.99826 -4.88078,-9.08775 -4.93699,-9.08775 -0.0561,0 -2.27682,4.07095 -4.93476,9.04669 -2.824,5.28662 -4.93284,9.06121 -5.07385,9.08149 -0.13265,0.0195 -1.38401,-0.52517 -2.78064,-1.20965 z m 6.82765,-18.42378 c 2.48093,-4.55141 4.48278,-8.30236 4.44864,-8.33541 -0.0342,-0.0336 -0.74042,0.024 -1.56951,0.12622 -10.89979,1.34766 -16.38219,8.43304 -10.89733,14.08365 1.08296,1.11568 3.24742,2.64908 3.45699,2.44917 0.0279,-0.0261 2.08037,-3.77215 4.56121,-8.32363 z m 18.56617,7.05703 c 1.82616,-1.30597 3.10323,-3.17295 3.39,-4.9557 0.76875,-4.77903 -4.55735,-9.14205 -12.51342,-10.2509 -1.02061,-0.14231 -1.89279,-0.22264 -1.9382,-0.17863 -0.0681,0.066 6.52105,12.34902 8.45227,15.75614 l 0.55954,0.98703 0.51319,-0.31293 c 0.28221,-0.17216 0.97369,-0.6424 1.53663,-1.04499 z"
       id="path4184"
       style="fill:#000000;fill-opacity:0.05882353" />
    <path
       style="fill:#000000;fill-opacity:0.11764706"
       id="path4182"
       d="m 406.49024,536.84321 -2.04458,-3.2628 1.93794,-3.19282 c 1.06582,-1.75603 1.99289,-3.28808 2.06022,-3.40443 0.0814,-0.14014 0.81286,0.92514 2.16863,3.15678 1.12543,1.85263 2.04633,3.40203 2.04633,3.44321 0,0.0902 -3.8611,6.25662 -4.01552,6.413 -0.0598,0.0602 -1.02847,-1.35847 -2.15302,-3.15294 z m -10.68224,1.70772 -2.53938,-1.24447 1.06319,-1.97359 c 0.58477,-1.08547 0.99978,-2.02403 0.92223,-2.08567 -0.0777,-0.0618 -0.70403,-0.52131 -1.39225,-1.02139 -7.51218,-5.45848 -6.95311,-14.35373 1.22503,-19.48983 6.78919,-4.26373 17.40377,-4.72943 24.9298,-1.09376 3.70885,1.79166 6.20182,4.10528 7.58399,7.03811 0.70518,1.49643 0.96128,2.58556 0.97063,4.12722 0.024,3.92758 -2.24737,7.59278 -6.37566,10.28919 l -0.40015,0.26138 0.97024,1.83849 c 0.53362,1.01119 0.99356,1.89548 1.02198,1.96509 0.0494,0.12036 -4.99066,2.64626 -5.28021,2.64626 -0.0761,0 -2.31405,-4.08949 -4.97321,-9.08782 -2.65915,-4.99826 -4.88078,-9.08775 -4.93699,-9.08775 -0.0561,0 -2.27682,4.07095 -4.93476,9.04669 -2.824,5.28662 -4.93284,9.06121 -5.07385,9.08149 -0.13265,0.0195 -1.38401,-0.52517 -2.78064,-1.20965 z m 6.82765,-18.42378 c 2.48093,-4.55141 4.48278,-8.30236 4.44864,-8.33541 -0.0342,-0.0336 -0.74042,0.024 -1.56951,0.12622 -10.89979,1.34766 -16.38219,8.43304 -10.89733,14.08365 1.08296,1.11568 3.24742,2.64908 3.45699,2.44917 0.0279,-0.0261 2.08037,-3.77215 4.56121,-8.32363 z m 18.56617,7.05703 c 1.82616,-1.30597 3.10323,-3.17295 3.39,-4.9557 0.76875,-4.77903 -4.55735,-9.14205 -12.51342,-10.2509 -1.02061,-0.14231 -1.89279,-0.22264 -1.9382,-0.17863 -0.0681,0.066 6.52105,12.34902 8.45227,15.75614 l 0.55954,0.98703 0.51319,-0.31293 c 0.28221,-0.17216 0.97369,-0.6424 1.53663,-1.04499 z"
       inkscape:connector-curvature="0" />
    <path
       inkscape:connector-curvature="0"
       d="m 406.49024,536.44321 -2.04458,-3.2628 1.93794,-3.19282 c 1.06582,-1.75603 1.99289,-3.28808 2.06022,-3.40443 0.0814,-0.14014 0.81286,0.92514 2.16863,3.15678 1.12543,1.85263 2.04633,3.40203 2.04633,3.44321 0,0.0902 -3.8611,6.25662 -4.01552,6.413 -0.0598,0.0602 -1.02847,-1.35847 -2.15302,-3.15294 z m -10.68224,1.70772 -2.53938,-1.24447 1.06319,-1.97359 c 0.58477,-1.08547 0.99978,-2.02403 0.92223,-2.08567 -0.0777,-0.0618 -0.70403,-0.52131 -1.39225,-1.02139 -7.51218,-5.45848 -6.95311,-14.35373 1.22503,-19.48983 6.78919,-4.26373 17.40377,-4.72943 24.9298,-1.09376 3.70885,1.79166 6.20182,4.10528 7.58399,7.03811 0.70518,1.49643 0.96128,2.58556 0.97063,4.12722 0.024,3.92758 -2.24737,7.59278 -6.37566,10.28919 l -0.40015,0.26138 0.97024,1.83849 c 0.53362,1.01119 0.99356,1.89548 1.02198,1.96509 0.0494,0.12036 -4.99066,2.64626 -5.28021,2.64626 -0.0761,0 -2.31405,-4.08949 -4.97321,-9.08782 -2.65915,-4.99826 -4.88078,-9.08775 -4.93699,-9.08775 -0.0561,0 -2.27682,4.07095 -4.93476,9.04669 -2.824,5.28662 -4.93284,9.06121 -5.07385,9.08149 -0.13265,0.0195 -1.38401,-0.52517 -2.78064,-1.20965 z m 6.82765,-18.42378 c 2.48093,-4.55141 4.48278,-8.30236 4.44864,-8.33541 -0.0342,-0.0336 -0.74042,0.024 -1.56951,0.12622 -10.89979,1.34766 -16.38219,8.43304 -10.89733,14.08365 1.08296,1.11568 3.24742,2.64908 3.45699,2.44917 0.0279,-0.0261 2.08037,-3.77215 4.56121,-8.32363 z m 18.56617,7.05703 c 1.82616,-1.30597 3.10323,-3.17295 3.39,-4.9557 0.76875,-4.77903 -4.55735,-9.14205 -12.51342,-10.2509 -1.02061,-0.14231 -1.89279,-0.22264 -1.9382,-0.17863 -0.0681,0.066 6.52105,12.34902 8.45227,15.75614 l 0.55954,0.98703 0.51319,-0.31293 c 0.28221,-0.17216 0.97369,-0.6424 1.53663,-1.04499 z"
       id="path4178"
       style="fill:#000000;fill-opacity:0.23529412" />
    <path
       inkscape:connector-curvature="0"
       style="fill:#000000;fill-opacity:1;stroke:none"
       d="m 384.57143,544.79799 0,1.0625 c 0,1.0773 0.86022,1.9375 1.9375,1.9375 l 44.125,0 c 1.07728,0 1.9375,-0.8602 1.9375,-1.9375 l 0,-1.0625 c 0,1.0773 -0.86022,1.9375 -1.9375,1.9375 l -44.125,0 C 385.43165,546.73549 384.57143,545.87529 384.57143,544.79799 Z"
       id="rect846" />
    <path
       inkscape:connector-curvature="0"
       style="fill:#ffffff;fill-opacity:0.5372549;stroke:none"
       d="m 387.10268,500.45429 c -0.91709,0 -1.67115,0.6395 -1.84375,1.5 0.33561,-0.2799 0.77451,-0.4375 1.25,-0.4375 l 44.125,0 c 0.47549,0 0.91439,0.1576 1.25,0.4375 -0.1726,-0.8605 -0.92666,-1.5 -1.84375,-1.5 L 387.10268,500.45429 Z"
       id="path7515" />
    <path
       inkscape:connector-curvature="0"
       style="fill:#000000;fill-opacity:0.39215686;stroke:none"
       d="m 386.50893,499.79799 c -1.07728,0 -1.9375,0.8602 -1.9375,1.9375 l 0,43.0625 c 0,0.7934 0.48002,1.449 1.15625,1.75 -0.30934,-0.3333 -0.5,-0.7824 -0.5,-1.2812 l 0,-42.9375 c 0,-1.0482 0.8269,-1.875 1.875,-1.875 l 42.9375,0 c 1.0481,0 1.875,0.8268 1.875,1.875 l 0,42.9375 c 0,0.4988 -0.19066,0.9479 -0.5,1.2812 0.67623,-0.301 1.15625,-0.9566 1.15625,-1.75 l 0,-43.0625 c 0,-1.0773 -0.86022,-1.9375 -1.9375,-1.9375 L 386.50893,499.79799 Z"
       id="rect4280" />
    <path
       style="fill:url(#linearGradient4170);fill-opacity:1"
       id="path3017"
       d="m 406.49024,536.04321 -2.04458,-3.2628 1.93794,-3.19282 c 1.06582,-1.75603 1.99289,-3.28808 2.06022,-3.40443 0.0814,-0.14014 0.81286,0.92514 2.16863,3.15678 1.12543,1.85263 2.04633,3.40203 2.04633,3.44321 0,0.0902 -3.8611,6.25662 -4.01552,6.413 -0.0598,0.0602 -1.02847,-1.35847 -2.15302,-3.15294 z m -10.68224,1.70772 -2.53938,-1.24447 1.06319,-1.97359 c 0.58477,-1.08547 0.99978,-2.02403 0.92223,-2.08567 -0.0777,-0.0618 -0.70403,-0.52131 -1.39225,-1.02139 -7.51218,-5.45848 -6.95311,-14.35373 1.22503,-19.48983 6.78919,-4.26373 17.40377,-4.72943 24.9298,-1.09376 3.70885,1.79166 6.20182,4.10528 7.58399,7.03811 0.70518,1.49643 0.96128,2.58556 0.97063,4.12722 0.024,3.92758 -2.24737,7.59278 -6.37566,10.28919 l -0.40015,0.26138 0.97024,1.83849 c 0.53362,1.01119 0.99356,1.89548 1.02198,1.96509 0.0494,0.12036 -4.99066,2.64626 -5.28021,2.64626 -0.0761,0 -2.31405,-4.08949 -4.97321,-9.08782 -2.65915,-4.99826 -4.88078,-9.08775 -4.93699,-9.08775 -0.0561,0 -2.27682,4.07095 -4.93476,9.04669 -2.824,5.28662 -4.93284,9.06121 -5.07385,9.08149 -0.13265,0.0195 -1.38401,-0.52517 -2.78064,-1.20965 z m 6.82765,-18.42378 c 2.48093,-4.55141 4.48278,-8.30236 4.44864,-8.33541 -0.0342,-0.0336 -0.74042,0.024 -1.56951,0.12622 -10.89979,1.34766 -16.38219,8.43304 -10.89733,14.08365 1.08296,1.11568 3.24742,2.64908 3.45699,2.44917 0.0279,-0.0261 2.08037,-3.77215 4.56121,-8.32363 z m 18.56617,7.05703 c 1.82616,-1.30597 3.10323,-3.17295 3.39,-4.9557 0.76875,-4.77903 -4.55735,-9.14205 -12.51342,-10.2509 -1.02061,-0.14231 -1.89279,-0.22264 -1.9382,-0.17863 -0.0681,0.066 6.52105,12.34902 8.45227,15.75614 l 0.55954,0.98703 0.51319,-0.31293 c 0.28221,-0.17216 0.97369,-0.6424 1.53663,-1.04499 z"
       inkscape:connector-curvature="0" />
    <path
       id="path4080"
       transform="translate(384.57143,499.798)"
       d="M 22.513672 10.394531 C 22.479472 10.360931 21.772449 10.417311 20.943359 10.519531 C 12.716905 11.536658 7.5808223 15.822712 7.9121094 20.292969 C 8.2085946 16.121541 13.209427 12.276543 20.943359 11.320312 C 21.415947 11.262046 21.802708 11.22377 22.09375 11.203125 C 22.190315 11.011509 22.519257 10.399938 22.513672 10.394531 z M 25.568359 10.400391 C 25.561465 10.407072 25.864592 10.979615 25.982422 11.214844 C 26.332463 11.237154 26.837322 11.285416 27.507812 11.378906 C 34.725201 12.384805 39.760295 16.071403 40.0625 20.314453 C 40.382691 15.740947 35.175998 11.648805 27.507812 10.580078 C 26.487203 10.437768 25.613769 10.356381 25.568359 10.400391 z M 24.025391 20.234375 C 23.969291 20.234375 21.749737 24.30551 19.091797 29.28125 C 16.267797 34.56787 14.158588 38.343001 14.017578 38.363281 C 13.884928 38.382781 12.632958 37.836824 11.236328 37.152344 L 9.0390625 36.076172 L 8.6972656 36.708984 L 11.236328 37.953125 C 12.632958 38.637605 13.884928 39.181609 14.017578 39.162109 C 14.158588 39.141829 16.267797 35.368651 19.091797 30.082031 C 21.749737 25.106291 23.969291 21.035156 24.025391 21.035156 C 24.081601 21.035156 26.303741 25.124787 28.962891 30.123047 C 31.622051 35.121377 33.859447 39.208984 33.935547 39.208984 C 34.225097 39.208984 39.266197 36.684813 39.216797 36.564453 C 39.208018 36.54295 38.980976 36.11374 38.900391 35.957031 C 38.093471 36.464527 34.195073 38.410156 33.935547 38.410156 C 33.859447 38.410156 31.622051 34.320596 28.962891 29.322266 C 26.303741 24.324006 24.081601 20.234375 24.025391 20.234375 z M 4.0234375 21.728516 C 3.7874384 25.287472 5.5231934 28.889188 9.2910156 31.626953 C 9.8767124 32.052537 10.278569 32.349404 10.474609 32.496094 C 10.637634 32.125947 10.719932 31.880045 10.681641 31.849609 C 10.603941 31.787809 9.9792356 31.328205 9.2910156 30.828125 C 5.8051864 28.295261 4.0786751 25.022413 4.0234375 21.728516 z M 43.984375 21.90625 C 43.822 25.645079 41.578529 29.116955 37.625 31.699219 L 37.224609 31.960938 L 37.537109 32.554688 L 37.625 32.498047 C 41.75329 29.801637 44.024 26.136564 44 22.208984 C 43.999347 22.10135 43.987502 22.009766 43.984375 21.90625 z M 20.121094 32.576172 L 19.875 32.982422 L 21.917969 36.246094 C 23.042519 38.040564 24.012466 39.458638 24.072266 39.398438 C 24.226686 39.242057 28.087891 33.074575 28.087891 32.984375 C 28.087891 32.979523 27.872052 32.622879 27.847656 32.578125 C 27.427875 33.322743 24.217164 38.450918 24.072266 38.597656 C 24.012466 38.657856 23.042519 37.239782 21.917969 35.445312 L 20.121094 32.576172 z "
       style="fill:#01638b;fill-opacity:0.3137255" />
    <path
       style="fill:#ffffff;fill-opacity:0.23529412"
       d="M 24.373047 8.6015625 C 19.363906 8.5424818 14.334544 9.7403237 10.515625 12.138672 C 6.2794452 14.799111 4.1062472 18.46695 4.0214844 22.144531 C 4.2505985 18.602394 6.4333111 15.100916 10.515625 12.537109 C 17.304815 8.2733794 27.919283 7.8076894 35.445312 11.443359 C 39.154162 13.235019 41.647127 15.549592 43.029297 18.482422 C 43.709702 19.926277 43.966196 20.999192 43.992188 22.457031 C 43.993723 22.37436 44.000507 22.291896 44 22.208984 C 43.99065 20.667324 43.734477 19.578461 43.029297 18.082031 C 41.647127 15.149201 39.154162 12.836582 35.445312 11.044922 C 32.152674 9.4543162 28.269046 8.6475142 24.373047 8.6015625 z M 22.513672 11.59375 C 22.506352 11.586559 22.368187 11.598902 22.304688 11.599609 C 22.039206 12.171516 20.342017 15.350974 18.064453 19.529297 C 15.583613 24.080777 13.531806 27.827416 13.503906 27.853516 C 13.294336 28.053426 11.129835 26.519977 10.046875 25.404297 C 8.6156999 23.929872 7.9367408 22.356828 7.9003906 20.814453 C 7.8184417 22.484035 8.4914906 24.200347 10.046875 25.802734 C 11.129835 26.918414 13.294336 28.451863 13.503906 28.251953 C 13.531806 28.225853 15.583613 24.481167 18.064453 19.929688 C 20.545383 15.378277 22.547812 11.6268 22.513672 11.59375 z M 25.568359 11.601562 C 25.500259 11.667562 32.090264 23.950302 34.021484 27.357422 L 34.580078 28.34375 L 35.09375 28.03125 C 35.37596 27.85909 36.067919 27.388918 36.630859 26.986328 C 38.457019 25.680358 39.732761 23.814 40.019531 22.03125 C 40.079242 21.660051 40.090331 21.292584 40.078125 20.927734 C 40.069455 21.161175 40.057463 21.395052 40.019531 21.630859 C 39.732761 23.413609 38.457019 25.279967 36.630859 26.585938 C 36.067919 26.988528 35.37596 27.458699 35.09375 27.630859 L 34.580078 27.943359 L 34.021484 26.957031 C 32.187911 23.722183 26.32244 12.791858 25.775391 11.607422 C 25.722391 11.60797 25.576147 11.594015 25.568359 11.601562 z M 23.873047 26.384766 C 23.805717 26.501116 22.87832 28.033032 21.8125 29.789062 L 19.875 32.982422 L 19.998047 33.179688 L 21.8125 30.189453 C 22.87832 28.433423 23.805717 26.901506 23.873047 26.785156 C 23.954447 26.645016 24.685246 27.709766 26.041016 29.941406 C 27.100006 31.684667 27.866835 32.979281 27.966797 33.181641 C 27.973997 33.167519 28.087891 32.987172 28.087891 32.984375 C 28.087891 32.943195 27.166446 31.393646 26.041016 29.541016 C 24.685246 27.309376 23.954447 26.244626 23.873047 26.384766 z M 10.597656 32.988281 C 10.456471 33.363015 10.153673 34.00319 9.7597656 34.734375 L 8.6972656 36.708984 L 8.8671875 36.792969 L 9.7597656 35.134766 C 10.344536 34.049296 10.759191 33.110468 10.681641 33.048828 C 10.676979 33.04512 10.606163 32.994776 10.597656 32.988281 z M 37.380859 33.056641 L 37.224609 33.160156 L 38.193359 34.998047 C 38.644704 35.853328 38.929201 36.402622 39.058594 36.660156 C 39.081945 36.641719 39.219354 36.570683 39.216797 36.564453 C 39.188377 36.494843 38.726979 35.608846 38.193359 34.597656 L 37.380859 33.056641 z "
       transform="translate(384.57143,499.798)"
       id="path4082" />
  </g>
</svg>
