<?xml version="1.0" encoding="UTF-8" standalone="no"?>
<!-- Created with Inkscape (http://www.inkscape.org/) -->

<svg
   xmlns:dc="http://purl.org/dc/elements/1.1/"
   xmlns:cc="http://creativecommons.org/ns#"
   xmlns:rdf="http://www.w3.org/1999/02/22-rdf-syntax-ns#"
   xmlns:svg="http://www.w3.org/2000/svg"
   xmlns="http://www.w3.org/2000/svg"
   xmlns:xlink="http://www.w3.org/1999/xlink"
   xmlns:sodipodi="http://sodipodi.sourceforge.net/DTD/sodipodi-0.dtd"
   xmlns:inkscape="http://www.inkscape.org/namespaces/inkscape"
   width="48"
   height="48"
   id="svg2"
   version="1.1"
   inkscape:version="0.91+devel r"
   sodipodi:docname="opera-beta.svg"
   viewBox="0 0 48 48">
  <defs
     id="defs4">
    <linearGradient
       inkscape:collect="always"
       id="linearGradient4258">
      <stop
         style="stop-color:#ffffff;stop-opacity:1"
         offset="0"
         id="stop4260" />
      <stop
         style="stop-color:#f9f9f9;stop-opacity:0"
         offset="1"
         id="stop4262" />
    </linearGradient>
    <linearGradient
       inkscape:collect="always"
       xlink:href="#linearGradient1351"
       id="linearGradient837"
       x1="97.580727"
       y1="-1050.7296"
       x2="97.580727"
       y2="-1002.8647"
       gradientUnits="userSpaceOnUse"
       gradientTransform="translate(-73.403954,-1.4557652)" />
    <linearGradient
       inkscape:collect="always"
       xlink:href="#linearGradient4258"
       id="linearGradient4237"
       x1="25.64539"
       y1="8.5106401"
       x2="25.64539"
       y2="26.212767"
       gradientUnits="userSpaceOnUse" />
    <linearGradient
       inkscape:collect="always"
       xlink:href="#linearGradient6390-9"
       id="linearGradient4256"
       x1="32.737537"
       y1="1047.9418"
       x2="32.737537"
       y2="1006.045"
       gradientUnits="userSpaceOnUse" />
    <linearGradient
       inkscape:collect="always"
       id="linearGradient6390-9">
      <stop
         style="stop-color:#ffffff;stop-opacity:1"
         offset="0"
         id="stop6392-0" />
      <stop
         id="stop6414-1"
         offset="0.10333734"
         style="stop-color:#29282b;stop-opacity:1" />
      <stop
         style="stop-color:#868c95;stop-opacity:1"
         offset="0.26065826"
         id="stop6416-7" />
      <stop
         id="stop6418-7"
         offset="0.39485914"
         style="stop-color:#92979f;stop-opacity:1" />
      <stop
         style="stop-color:#737881;stop-opacity:1"
         offset="0.54328567"
         id="stop6420-8" />
      <stop
         id="stop6422-6"
         offset="0.62599665"
         style="stop-color:#70757e;stop-opacity:1" />
      <stop
         style="stop-color:#e4e6e8;stop-opacity:1"
         offset="0.72117096"
         id="stop6424-2" />
      <stop
         id="stop6426-0"
         offset="0.79481769"
         style="stop-color:#ffffff;stop-opacity:1" />
      <stop
         style="stop-color:#1d191a;stop-opacity:1"
         offset="1"
         id="stop6394-4" />
    </linearGradient>
    <linearGradient
       id="linearGradient1351"
       inkscape:collect="always">
      <stop
         id="stop1353"
         offset="0"
         style="stop-color:#1c1e24;stop-opacity:1" />
      <stop
         id="stop1355"
         offset="1"
         style="stop-color:#34363e;stop-opacity:1" />
    </linearGradient>
  </defs>
  <sodipodi:namedview
     id="base"
     pagecolor="#ffffff"
     bordercolor="#666666"
     borderopacity="1.0"
     inkscape:pageopacity="0.0"
     inkscape:pageshadow="2"
     inkscape:zoom="5.6568542"
     inkscape:cx="5.0104226"
     inkscape:cy="25.703875"
     inkscape:document-units="px"
     inkscape:current-layer="layer1"
     showgrid="false"
     inkscape:window-width="1366"
     inkscape:window-height="670"
     inkscape:window-x="-4"
     inkscape:window-y="29"
     inkscape:window-maximized="1" />
  <metadata
     id="metadata7">
    <rdf:RDF>
      <cc:Work
         rdf:about="">
        <dc:format>image/svg+xml</dc:format>
        <dc:type
           rdf:resource="http://purl.org/dc/dcmitype/StillImage" />
        <dc:title />
      </cc:Work>
    </rdf:RDF>
  </metadata>
  <g
     inkscape:label="Capa 1"
     inkscape:groupmode="layer"
     id="layer1"
     transform="translate(0,-1004.3622)">
    <rect
       style="fill:url(#linearGradient837);fill-opacity:1;stroke:none"
       id="rect2991-1"
       width="48"
       height="48"
       x="-4.4775391e-07"
       y="-1052.3622"
       ry="1.9445436"
       transform="scale(1,-1)" />
    <path
       inkscape:connector-curvature="0"
       style="fill:#000000;fill-opacity:1;stroke:none"
       d="m 1e-6,1049.3622 0,1.0625 c 0,1.0773 0.860223,1.9375 1.9375,1.9375 l 44.124995,0 c 1.07728,0 1.9375,-0.8602 1.9375,-1.9375 l 0,-1.0625 c 0,1.0773 -0.86022,1.9375 -1.9375,1.9375 l -44.124995,0 c -1.077277,0 -1.9375,-0.8602 -1.9375,-1.9375 z"
       id="rect846" />
    <path
       inkscape:connector-curvature="0"
       style="fill:#ffffff;fill-opacity:0.5372549;stroke:none"
       d="m 2.531251,1005.0185 c -0.917089,0 -1.671147,0.6395 -1.84375,1.5 0.335612,-0.2799 0.774512,-0.4375 1.25,-0.4375 l 44.124995,0 c 0.47549,0 0.91439,0.1576 1.25,0.4375 -0.1726,-0.8605 -0.92666,-1.5 -1.84375,-1.5 l -42.937495,0 z"
       id="path7515" />
    <path
       inkscape:connector-curvature="0"
       style="fill:#000000;fill-opacity:0.39215686;stroke:none"
       d="m 1.937501,1004.3622 c -1.077277,0 -1.9375,0.8602 -1.9375,1.9375 l 0,43.0625 c 0,0.7934 0.480023,1.449 1.15625,1.75 -0.309342,-0.3333 -0.5,-0.7824 -0.5,-1.2812 l 0,-42.9375 c 0,-1.0482 0.826899,-1.875 1.875,-1.875 l 42.937495,0 c 1.04811,0 1.875,0.8268 1.875,1.875 l 0,42.9375 c 0,0.4988 -0.19065,0.9479 -0.5,1.2812 0.67623,-0.301 1.15625,-0.9566 1.15625,-1.75 l 0,-43.0625 c 0,-1.0773 -0.86022,-1.9375 -1.9375,-1.9375 l -44.124995,0 z"
       id="rect4280-9" />
    <path
       inkscape:connector-curvature="0"
       style="fill:#000000;fill-opacity:0.05882353"
       d="m 32.202816,1016.5835 c -2.256697,-1.5602 -5.048703,-2.4213 -8.19771,-2.4213 -2.880176,0 -5.461474,0.7195 -7.607811,2.0354 -4.135381,2.5077 -6.6809395,7.2021 -6.6809395,13.2175 0,8.1368 5.7126345,15.5471 14.2830575,15.5471 8.572778,0 14.284232,-7.4103 14.284232,-15.5471 -10e-7,-5.7189 -2.301471,-10.2443 -6.081614,-12.8313 z m -8.198888,0.2996 c 4.597835,0 5.532954,6.4158 5.532954,12.2418 0,5.3962 -0.520188,12.6214 -5.476595,12.6214 -4.956604,0 -5.597363,-7.2956 -5.597363,-12.6921 7.84e-4,-5.8242 0.943366,-12.1701 5.54179,-12.1701 z"
       id="path4421" />
    <path
       id="path4419"
       d="m 32.202816,1016.1835 c -2.256697,-1.5602 -5.048703,-2.4213 -8.19771,-2.4213 -2.880176,0 -5.461474,0.7195 -7.607811,2.0354 -4.135381,2.5077 -6.6809395,7.2021 -6.6809395,13.2175 0,8.1368 5.7126345,15.5471 14.2830575,15.5471 8.572778,0 14.284232,-7.4103 14.284232,-15.5471 -10e-7,-5.7189 -2.301471,-10.2443 -6.081614,-12.8313 z m -8.198888,0.2996 c 4.597835,0 5.532954,6.4158 5.532954,12.2418 0,5.3962 -0.520188,12.6214 -5.476595,12.6214 -4.956604,0 -5.597363,-7.2956 -5.597363,-12.6921 7.84e-4,-5.8242 0.943366,-12.1701 5.54179,-12.1701 z"
       style="fill:#000000;fill-opacity:0.11764706"
       inkscape:connector-curvature="0" />
    <path
       inkscape:connector-curvature="0"
       style="fill:#000000;fill-opacity:0.23529412"
       d="m 32.202816,1015.7835 c -2.256697,-1.5602 -5.048703,-2.4213 -8.19771,-2.4213 -2.880176,0 -5.461474,0.7195 -7.607811,2.0354 -4.135381,2.5077 -6.6809395,7.2021 -6.6809395,13.2175 0,8.1368 5.7126345,15.5471 14.2830575,15.5471 8.572778,0 14.284232,-7.4103 14.284232,-15.5471 -10e-7,-5.7189 -2.301471,-10.2443 -6.081614,-12.8313 z m -8.198888,0.2996 c 4.597835,0 5.532954,6.4158 5.532954,12.2418 0,5.3962 -0.520188,12.6214 -5.476595,12.6214 -4.956604,0 -5.597363,-7.2956 -5.597363,-12.6921 7.84e-4,-5.8242 0.943366,-12.1701 5.54179,-12.1701 z"
       id="path4415" />
    <path
       id="path4222"
       d="m 32.202816,1015.3835 c -2.256697,-1.5602 -5.048703,-2.4213 -8.19771,-2.4213 -2.880176,0 -5.461474,0.7195 -7.607811,2.0354 -4.135381,2.5077 -6.6809395,7.2021 -6.6809395,13.2175 0,8.1368 5.7126345,15.5471 14.2830575,15.5471 8.572778,0 14.284232,-7.4103 14.284232,-15.5471 -10e-7,-5.7189 -2.301471,-10.2443 -6.081614,-12.8313 z m -8.198888,0.2996 c 4.597835,0 5.532954,6.4158 5.532954,12.2418 0,5.3962 -0.520188,12.6214 -5.476595,12.6214 -4.956604,0 -5.597363,-7.2956 -5.597363,-12.6921 7.84e-4,-5.8242 0.943366,-12.1701 5.54179,-12.1701 z"
       style="fill:url(#linearGradient4256);fill-opacity:1"
       inkscape:connector-curvature="0" />
    <path
       style="fill:#000000;fill-opacity:0.05882353;fill-rule:nonzero;stroke:none"
       d="m 12.953125,15.033203 0,0.0039 c -0.03995,0 -0.07909,-2.34e-4 -0.117187,0.0098 -0.186721,0.026 -0.307735,0.157397 -0.458985,0.216797 -0.183438,0.072 -0.501054,0.170825 -0.25,0.328125 0.248633,-0.01 0.457461,-0.117494 0.675781,-0.121094 0.02313,0.1337 -0.07297,0.244091 -0.121093,0.337891 -0.03547,0.069 -0.02512,0.115878 -0.06445,0.142578 -0.156213,0.1053 -0.432579,-0.09049 -0.63086,-0.121094 -0.112188,-0.018 -0.204883,0.0292 -0.30664,0.0332 -0.04481,0 -0.08694,-0.0092 -0.128907,-0.01563 -0.08707,0.166352 -0.166774,0.338555 -0.248047,0.509766 0.03479,-0.0065 0.06654,-0.01502 0.09961,-0.01758 l 0,0.0059 c 0.113614,-0.01 0.208399,0.01251 0.234375,0.132813 -0.0443,0.063 -0.115977,0.03197 -0.185547,0.04297 -0.08604,0.01473 -0.175135,0.04845 -0.261719,0.07422 -0.901721,1.991031 -1.4028386,4.302098 -1.4531249,6.853516 0.022409,0.976675 0.123251,1.942008 0.3046879,2.882812 0.06721,-0.03134 0.132592,-0.0665 0.203125,-0.06836 0.267031,-0.01 0.38203,0.338312 0.597656,0.445312 0.05414,0.027 0.125468,0.02697 0.195312,0.04297 0.05664,0.012 0.100115,0.03764 0.154297,0.05664 0.115234,0.039 0.255548,0.03322 0.347656,0.07422 0.138869,0.062 0.240001,0.322779 0.359376,0.392579 0.0058,0.07 -0.01167,0.16625 0.01172,0.21875 0.05637,0.076 0.135586,0.05762 0.228516,0.107421 0.111093,0.06 0.144648,0.214419 0.25,0.261719 0.03598,0.016 0.128087,0.0152 0.185547,0.0332 0.144376,0.043 0.190703,0.210429 0.314453,0.173828 0.08113,-0.024 0.07496,-0.105993 0.08789,-0.183593 0.05363,-0.058 0.111719,-0.149844 0.195313,-0.152344 0.135312,-0.01 0.148048,0.139984 0.197266,0.271484 0.02778,0.074 0.100195,0.138497 0.11914,0.216797 0.03328,0.1353 0.01606,0.540194 -0.01172,0.621094 -0.0341,0.099 -0.167186,0.141953 -0.25,0.251953 -0.03875,0.051 -0.05622,0.125811 -0.08594,0.162109 -0.05305,0.065 -0.135899,0.08298 -0.175781,0.142579 -0.02254,0.034 -0.04273,0.106643 -0.06445,0.152343 -0.06574,0.1386 -0.152614,0.235944 -0.09766,0.402344 0.02258,0.069 0.130585,0.114713 0.13086,0.195313 2.34e-4,0.095 -0.203085,0.179303 -0.21875,0.283203 -0.01183,0.077 0.06344,0.215706 0.08789,0.316406 0.01844,0.076 0.162188,0.123228 0.207032,0.173828 0.07644,0.086 0.137187,0.208606 0.207031,0.316406 0.138047,0.212 0.246406,0.470382 0.380859,0.675782 0.0707,0.1076 0.169492,0.202753 0.216797,0.314453 0.02418,0.056 0.02238,0.123228 0.04492,0.173828 0.07785,0.1757 0.420273,0.360067 0.597656,0.447265 0.08305,0.041 0.175781,0.05566 0.251953,0.09766 0.115469,0.064 0.344063,0.23669 0.402344,0.33789 0.05227,0.091 0.0841,0.312432 0.109375,0.457032 0.03355,0.1912 0.0013,0.337821 0.0098,0.544921 0.0049,0.111901 0.04159,0.225591 0.04297,0.337891 5.49e-4,0.04 -0.02012,0.06947 -0.02149,0.109375 -0.005,0.1358 0.03305,0.287128 0.02149,0.423828 -0.0063,0.074 -0.027,0.135166 -0.02149,0.197266 0.0028,0.03255 0.01206,0.05906 0.02149,0.08789 0.882944,0.738735 1.846723,1.379717 2.904296,1.876954 0.02861,-0.0095 0.07286,-0.01319 0.0918,-0.02539 0.07121,-0.047 0.174452,-0.182206 0.16211,-0.316406 -0.0061,-0.064 -0.04871,-0.08598 -0.09766,-0.142578 -0.04098,-0.048 -0.05622,-0.107244 -0.08594,-0.152344 -0.05086,-0.076 -0.129766,-0.06503 -0.152344,-0.173828 0.156211,-0.03 0.393086,0.128353 0.619141,0.06445 0.107226,-0.03 0.254922,-0.258775 0.304687,-0.359375 0.01594,-0.032 0.01558,-0.08044 0.0332,-0.119141 0.01899,-0.042 0.06012,-0.07566 0.06641,-0.09766 0.0168,-0.059 0.008,-0.105178 0.02148,-0.142578 0.03961,-0.1106 0.141562,-0.146916 0.207031,-0.228516 0.04949,-0.062 0.07211,-0.133712 0.119141,-0.195312 0.05117,-0.067 0.09703,-0.126447 0.130859,-0.185547 0.03219,-0.1988 -0.07969,-0.337619 -0.0332,-0.511719 0.05226,-0.1955 0.322265,-0.314144 0.511719,-0.402344 0.0652,-0.031 0.132461,-0.07966 0.185547,-0.09766 0.07179,-0.02518 0.148098,-0.03141 0.226562,-0.03711 -0.889875,-1.311292 -1.385742,-3.15355 -1.669922,-5.126953 -0.02605,-0.03061 -0.05752,-0.05967 -0.07031,-0.0957 -0.02254,-0.063 -0.01339,-0.138612 -0.0332,-0.195312 -0.02832,-0.081 -0.107306,-0.129566 -0.195313,-0.197266 -0.157579,-0.1212 -0.298202,-0.233918 -0.523437,-0.261718 -0.09898,-0.012 -0.194843,0.03044 -0.314453,0.02344 -0.126757,-0.01 -0.28797,-0.120217 -0.382813,-0.228515 -0.09215,-0.105901 -0.136484,-0.201354 -0.216797,-0.251954 -0.07617,-0.048 -0.176562,-0.04766 -0.228515,-0.09766 -0.02308,-0.022 -0.01821,-0.05652 -0.04297,-0.107422 -0.03821,-0.079 -0.102303,-0.12395 -0.05469,-0.21875 -0.08691,-0.044 -0.09063,0.08045 -0.185547,0.06445 -0.08469,-0.1202 -0.155429,-0.175825 -0.347656,-0.140625 -0.08773,0.016 -0.137656,0.12806 -0.240234,0.13086 -0.08414,0 -0.150625,-0.09347 -0.261719,-0.109375 -0.08387,-0.012 -0.180546,0.02372 -0.240234,0.01172 -0.09293,-0.018 -0.122071,-0.09694 -0.207031,-0.152344 -0.06215,-0.041 -0.181875,-0.109375 -0.216797,-0.109375 -0.109414,0.01 -0.186914,0.232344 -0.337891,0.152343 -0.07367,-0.093 0.120112,-0.141615 0.0332,-0.228515 -0.06602,-0.066 -0.121055,0.02845 -0.173828,0.06445 -0.06023,0.041 -0.11875,0.08448 -0.185547,0.109375 -0.149609,0.056 -0.242461,0.02689 -0.359375,0.08789 -0.10832,0.056 -0.1125,0.148365 -0.173828,0.259765 -0.05031,0.091 -0.164883,0.224969 -0.240234,0.230469 -0.09129,0.01 -0.178945,-0.128363 -0.261719,-0.164062 -0.249414,-0.108101 -0.369063,0.09466 -0.576172,0.09766 -0.192227,0 -0.468631,-0.309535 -0.458984,-0.490235 0.0061,-0.1103 0.06297,-0.277662 0.07617,-0.414062 0.0107,-0.1084 0.08684,-0.172384 0.08789,-0.271485 0.0017,-0.1322 -0.175899,-0.234199 -0.261719,-0.25 -0.203476,-0.038 -0.485547,0.08128 -0.71875,-0.01172 -0.04457,-0.074 0.05117,-0.125566 0.07617,-0.197266 0.01402,-0.041 0.0044,-0.09542 0.02149,-0.140625 0.02586,-0.069 0.09836,-0.121912 0.130859,-0.195312 0.02445,-0.056 0.02996,-0.137432 0.05469,-0.207032 0.02832,-0.079 0.08184,-0.130047 0.08789,-0.185547 0.008,-0.074 -0.01871,-0.158631 -0.07617,-0.207031 -0.180937,0.01 -0.301446,0.01845 -0.404297,0.06445 -0.235664,0.1072 -0.188399,0.426654 -0.423828,0.501954 -0.08141,0.026 -0.193554,0.02697 -0.283203,0.04297 -0.07726,0.014 -0.170273,0.05669 -0.25,0.05469 -0.09434,0 -0.260312,-0.09204 -0.316406,-0.152344 -0.05004,-0.054 -0.171797,-0.321641 -0.185547,-0.369141 -0.0927,-0.3209 0.0087,-0.616843 0.130859,-0.839843 0.02586,-0.048 0.06864,-0.09052 0.08789,-0.140625 0.02914,-0.076 0.01039,-0.191738 0.0332,-0.273438 0.04176,-0.1518 0.240313,-0.241253 0.380859,-0.314453 0.159221,-0.083 0.293125,-0.216316 0.478516,-0.228516 0.09238,-0.01 0.227617,0.02497 0.316406,0.04297 0.08199,0.017 0.14586,0.07117 0.216797,0.07617 0.201289,0.015 0.249844,-0.140816 0.414063,-0.228516 0.169649,0.024 0.282344,-0.03067 0.435547,-0.01367 0.104492,0.012 0.180311,0.124559 0.261718,0.130859 0.06848,0.01 0.129063,-0.06469 0.195313,-0.05469 0.06434,0.01 0.175077,0.149816 0.185547,0.228516 0.01293,0.098 -0.07101,0.187322 -0.04297,0.294922 0.102578,0.1044 0.288984,0.125347 0.435547,0.185547 0.09543,-0.079 0.01293,-0.223991 0,-0.337891 -0.0055,-0.05 0.0052,-0.09598 0,-0.142578 -0.0085,-0.078 -0.0427,-0.149697 -0.04297,-0.216797 -0.0017,-0.3099 0.249141,-0.453772 0.457031,-0.576172 0.08992,-0.053 0.160196,-0.146447 0.238282,-0.185547 0.110273,-0.055 0.191914,-0.06999 0.283203,-0.121093 0.165,-0.093 0.306563,-0.166385 0.435547,-0.271485 0.05965,-0.1405 0.0046,-0.32985 0.01172,-0.46875 0.05969,-0.037 0.110584,0.01772 0.173829,0.01172 0.09957,-0.021 0.107656,-0.16265 0.164062,-0.21875 0.03242,-0.032 0.121405,-0.05394 0.162109,-0.08594 0.0993,-0.078 0.132109,-0.195015 0.21875,-0.228515 0.03106,-0.013 0.103398,-0.01144 0.152344,-0.02344 0.06488,-0.017 0.15668,-0.09251 0.261719,-0.128906 0.0682,-0.023 0.223867,-0.02964 0.25,-0.05664 0.03214,-0.033 0.0013,-0.124628 0.01172,-0.173828 0.05281,-0.2459 0.423672,-0.298059 0.642578,-0.380859 0.153438,-0.058 0.309921,-0.163559 0.478515,-0.130859 -0.03301,0.1168 -0.190703,0.07705 -0.164062,0.21875 0.03715,0.1969 0.301524,-0.05889 0.371094,-0.08789 0.132852,-0.056 0.358867,-0.08954 0.533203,-0.152344 0.15289,-0.056 0.427304,-0.141606 0.283203,-0.316406 -0.120196,-0.01 -0.178438,0.140747 -0.283203,0.185547 -0.07234,0.011 -0.05758,-0.05945 -0.119141,-0.06445 -0.05832,-0.01 -0.09211,0.05397 -0.152344,0.04297 -0.05992,-0.01 -0.142968,-0.103729 -0.152343,-0.173829 -0.0239,-0.1818 0.153202,-0.256978 0.228515,-0.392578 -0.04977,-0.1645 -0.276562,-0.03366 -0.414062,-0.09766 0.0132,-0.098 0.114101,-0.166847 0.228515,-0.185547 0.09375,-0.015 0.303555,-3.1e-5 0.359375,0.04297 0.03274,0.028 0.0041,0.09698 0.05469,0.142578 0.05555,0.05 0.123281,0.04325 0.195312,0.03125 0.02614,-0.124 -0.160978,-0.09153 -0.140625,-0.173828 0.106583,-0.06955 0.25754,-0.05312 0.402344,-0.04687 0.04662,-0.601143 0.110366,-1.186789 0.191406,-1.763672 -0.05891,0.05182 -0.113395,0.101427 -0.179687,0.132812 -0.07922,0.037 -0.193946,0.08141 -0.273438,0.06641 -0.05168,-0.01 -0.154142,-0.08555 -0.162109,-0.185547 -0.0088,-0.1144 0.07649,-0.118135 0.09766,-0.240234 -0.01816,-0.072 -0.0934,-0.05548 -0.164062,-0.109376 -0.08004,-0.061 -0.143555,-0.190178 -0.25,-0.205078 -0.05305,-0.01 -0.121015,0.03997 -0.173828,0.04297 -0.161992,0.011 -0.302579,-0.104172 -0.425782,-0.07617 -0.14711,0.034 -0.141016,0.260988 -0.283203,0.304688 0.01926,0.1065 -0.124687,0.175665 -0.140625,0.259765 -0.01075,0.057 0.01817,0.124282 0.02148,0.175782 0.03274,0.5208 -0.396915,0.764 -0.904297,0.75 -0.09953,0.095 -0.07668,0.273797 -0.13086,0.404296 -0.04563,0.1098 -0.206679,0.226097 -0.316406,0.216797 -0.08113,-0.01 -0.173553,-0.119712 -0.173828,-0.195312 -2.73e-4,-0.093 0.135274,-0.1435 0.05469,-0.25 0.01157,-0.072 0.172149,-0.113316 0.152344,-0.228516 -0.02035,-0.1199 -0.188281,-0.05817 -0.33789,-0.07617 -0.108906,-0.014 -0.251133,-0.07706 -0.347657,-0.130859 -0.127578,-0.071 -0.235976,-0.209869 -0.402343,-0.230469 -0.09461,-0.012 -0.183946,0.03152 -0.228516,-0.02148 -0.0489,-0.058 0.01871,-0.145347 0.02148,-0.185547 -0.0031,-0.066 -0.125311,-0.08754 -0.130859,-0.152344 -0.0041,-0.045 0.117578,-0.188415 0.164063,-0.228515 0.08605,-0.075 0.242265,-0.153416 0.380859,-0.228516 0.135586,-0.073 0.292382,-0.151312 0.423828,-0.195313 0.05613,-0.019 0.119922,-0.0142 0.173828,-0.0332 0.137773,-0.051 0.229023,-0.147246 0.359375,-0.185547 0.06793,-0.02 0.142852,-0.0152 0.21875,-0.0332 0.180664,-0.04 0.315039,-0.169212 0.46875,-0.195312 -0.0341,0.1253 -0.174297,0.144384 -0.207031,0.271484 0.131718,0.2398 0.357188,-0.05569 0.511719,-0.05469 0.140274,0 0.280585,0.19962 0.36914,0.01172 -0.03215,-0.1014 -0.126328,-0.160548 -0.216797,-0.21875 -0.08359,-0.054 -0.215821,-0.100196 -0.207031,-0.216796 0.100391,-0.045 0.138555,0.07517 0.228516,0.07617 0.04894,3e-4 0.113476,-0.05817 0.164062,-0.07617 0.11332,-0.039 0.301211,-0.05196 0.390625,-0.13086 0.05387,-0.048 0.0461,-0.124247 0.08789,-0.185547 0.03574,-0.052 0.12414,-0.06644 0.162109,-0.11914 0.04621,-0.064 0.0073,-0.118544 0.06641,-0.152344 0.127069,-0.057 0.283047,0.013 0.423828,0 0.06656,-0.01 0.113085,-0.05969 0.175781,-0.05469 0.121836,0.01 0.18621,0.206118 0.271484,0.261718 0.06242,0.041 0.174805,0.03904 0.185547,0.119141 0.02117,0.159 -0.208788,0.1697 -0.349609,0.25 -0.07012,0.04 -0.09778,0.131362 -0.183594,0.164062 -0.23043,0.088 -0.580586,-0.09706 -0.654297,0.152344 0.106446,0.1567 0.301055,-0.0098 0.435547,-0.0098 0.09598,0 0.212656,0.08904 0.271484,0.152343 0.0509,0.054 0.06898,0.159513 0.13086,0.195313 0.04125,0.024 0.114023,0.0182 0.164062,0.0332 0.118018,0.03546 0.22691,0.07583 0.34375,0.08789 0.09275,-0.573502 0.188274,-1.143459 0.324219,-1.671876 -0.01469,-0.0018 -0.03373,-2.95e-4 -0.04687,-0.0059 -0.191406,-0.071 -0.156445,-0.229987 -0.283203,-0.304687 -0.164453,0.021 -0.307539,-0.05924 -0.425781,0.0098 -0.147148,-0.081 -0.367383,0.019 -0.554688,0 -0.05441,-0.01 -0.109882,-0.03797 -0.164062,-0.04297 -0.284922,-0.026 -0.681328,0.155904 -0.794922,0.283204 -0.02117,0.024 -0.103832,0.165215 -0.08594,0.228515 0.03273,0.1163 0.247227,0.02952 0.304688,0.140625 -0.0132,0.135 -0.159024,0.203719 -0.273438,0.261719 -0.10668,0.054 -0.242187,0.190194 -0.357422,0.121094 -0.04508,-0.1174 0.128559,-0.11845 0.08594,-0.21875 -0.03164,-0.075 -0.168009,-0.02565 -0.228516,-0.09766 -0.08469,-0.100298 0.0155,-0.243178 -0.01172,-0.392578 0.122109,-0.2227 0.592501,-0.09605 0.71875,-0.314453 -0.01789,-0.07 -0.08699,-0.03169 -0.140624,-0.05469 -0.05969,-0.025 -0.07063,-0.07417 -0.13086,-0.07617 -0.055,0 -0.128203,0.06094 -0.195312,0.08594 -0.07699,0.029 -0.153673,0.05289 -0.207032,0.08789 -0.12125,0.079 -0.169844,0.274881 -0.316406,0.238281 -0.0327,-0.1183 0.136718,-0.180103 0.119141,-0.283203 -0.03574,-0.069 -0.133635,-0.03925 -0.207031,-0.03125 -0.206564,0.02 -0.355508,0.06253 -0.435547,0.173828 -0.07148,-0.01 -0.169493,-0.04728 -0.216797,0.01172 0.04731,0.083 0.143008,0.210716 0.25,0.228516 0.0759,0.013 0.15371,-0.059 0.228515,0 0.01871,0.1166 -0.13539,0.114415 -0.140625,0.228515 -0.003,0.068 0.0855,0.106628 0.07617,0.173828 -0.01293,0.092 -0.25746,0.207644 -0.349609,0.152344 0.0016,-0.107 0.144228,-0.07453 0.142578,-0.173828 -8e-4,-0.041 -0.0716,-0.101175 -0.121094,-0.109375 -0.09047,-0.015 -0.231366,0.04847 -0.292969,0.109375 -0.05117,0.051 -0.04832,0.143747 -0.109374,0.185547 -0.09649,0.066 -0.225664,0.0302 -0.337891,0.0332 -0.218867,0 -0.344649,0.01655 -0.5,-0.06445 -0.04594,-0.024 -0.138827,-0.06798 -0.130859,-0.142578 0.171327,-0.01 0.335234,0.08097 0.533203,0.04297 0.07125,-0.014 0.09695,-0.07848 0.164062,-0.109376 0.07344,-0.034 0.162461,-1.71e-4 0.185547,-0.07617 -0.0055,-0.1323 -0.162811,-0.09151 -0.175781,-0.195313 -0.0074,-0.058 0.08403,-0.184934 0.142578,-0.240234 0.06602,-0.062 0.184766,-0.07404 0.207031,-0.152344 -0.05445,-0.1125 -0.172891,0.01144 -0.261719,0.02344 -0.05305,0.01 -0.103944,-0.011 -0.152343,0 -0.111367,0.025 -0.167892,0.123109 -0.240235,0.162109 -0.07754,-0.014 -0.08539,-0.09362 -0.162109,-0.107422 -0.09766,0.074 -0.185273,0.023 -0.283203,0 -0.05141,-0.012 -0.114102,-0.01244 -0.152344,-0.02344 -0.08855,-0.026 -0.144961,-0.12991 -0.251953,-0.16211 -0.06105,-0.018 -0.16586,-7.19e-4 -0.271484,-0.01172 -0.135702,-0.0233 -0.262947,-0.05911 -0.382813,-0.06641 z m 17.970703,0.589844 c -0.05531,0.01 -0.101054,0.02925 -0.142578,0.03125 -0.03246,0 -0.09633,-0.01277 -0.119141,-0.0098 -0.06465,0.01 -0.126836,0.07166 -0.195312,0.09766 -0.114688,0.044 -0.247617,0.02769 -0.371094,0.05469 -0.118242,0.026 -0.217852,0.157028 -0.326172,0.173828 -0.07922,0.013 -0.214805,-0.0428 -0.25,0.0332 -0.02117,0.079 0.06235,0.09854 0.03125,0.152344 -0.07012,0.1218 -0.24332,0.165503 -0.33789,0.283203 -0.02586,0.032 -0.0291,0.08404 -0.05469,0.119141 -0.03133,0.04252 -0.0779,0.06824 -0.109375,0.101562 0.106267,0.565497 0.202397,1.140735 0.269531,1.740235 0.04237,0.0016 0.08245,0.03644 0.146485,0.0293 0.07754,-0.01 0.145547,-0.121544 0.216797,-0.152344 0.139414,-0.061 0.251172,-0.02798 0.273437,-0.142578 0.01215,-0.063 -0.03992,-0.157816 -0.02344,-0.228516 0.03688,-0.1562 0.329064,-0.131853 0.316406,-0.314453 -0.0074,-0.1084 -0.235859,-0.137035 -0.261719,-0.240235 -0.01649,-0.067 0.02292,-0.178349 0.04492,-0.21875 0.09871,-0.182099 0.414102,-0.198856 0.511719,-0.347656 0.04566,-0.07 0.04402,-0.139128 0.07617,-0.173828 0.04483,-0.0534 0.135127,-0.08134 0.226562,-0.08594 l 0,0.0039 c 0.09144,0 0.18373,0.01359 0.230469,0.05859 0,0.2453 -0.490975,0.281915 -0.501953,0.478515 -0.0025,0.043 0.035,0.115947 0.04492,0.185547 0.0091,0.063 -0.0015,0.108978 0.0098,0.142578 0.03574,0.1061 0.183516,0.188113 0.294922,0.195313 0.260977,0.017 0.650936,-0.250488 0.88086,-0.05469 -0.100664,0.22 -0.459689,0.04006 -0.71875,0.13086 -0.05168,0.019 -0.08465,0.06989 -0.13086,0.08789 -0.06215,0.024 -0.173553,-3.43e-4 -0.173828,0.09766 0.05113,0.102001 0.134532,-0.02144 0.197266,-0.02344 0.07039,0 0.171444,0.07646 0.162109,0.164063 -0.02144,0.201299 -0.196758,-0.01 -0.314453,0 -0.171328,0.01 -0.208789,0.252146 -0.175781,0.435546 -0.07781,0.043 -0.166407,0.164028 -0.271485,0.173828 -0.0657,0.01 -0.118476,-0.05545 -0.207031,-0.06445 -0.196055,-0.02 -0.379413,0.157644 -0.566406,0.152344 -0.07534,0 -0.157364,-0.0785 -0.271485,-0.08984 0.06247,0.594604 0.111387,1.200445 0.142578,1.810547 0.01338,0.02038 0.02826,0.03755 0.05273,0.05469 0.04344,0.03 0.103672,0.02369 0.152344,0.05469 0.05719,0.036 0.08773,0.129094 0.152343,0.183594 0.09133,0.077 0.252189,0.135966 0.38086,0.197266 0.120469,0.057 0.314257,0.134381 0.33789,0.238281 0.0132,0.059 -0.01746,0.122928 -0.0098,0.173828 0.0096,0.065 0.05485,0.132881 0.08594,0.175781 0.08414,0.116 0.202227,0.218675 0.294922,0.359375 -0.0027,0.1915 0.0684,0.309103 0.283203,0.283203 0.07754,-0.041 0.03688,-0.09956 0.09766,-0.164062 0.05719,-0.061 0.184446,-0.05152 0.185546,-0.140625 0.0016,-0.1367 -0.326132,-0.158075 -0.283203,-0.359375 0.01266,-0.064 0.08343,-0.0332 0.140625,-0.0332 0.09297,-0.1073 0.287032,-0.242972 0.414063,-0.07617 0.05473,0.328 0.159414,0.617322 0.392578,0.794922 0.165274,-0.059 0.234961,0.09345 0.390625,0.06445 0.07563,-0.014 0.112148,-0.108041 0.185547,-0.119141 0.133125,-0.02 0.224219,0.125025 0.349609,0.140625 0.204063,0.025 0.353673,-0.207037 0.554688,-0.08594 0.0099,0.1653 0.06074,0.25224 0.05469,0.36914 -0.0044,0.091 -0.07984,0.174222 -0.119141,0.294922 -0.05668,0.1735 -0.02024,0.344344 -0.185546,0.402344 -0.224648,0.079 -0.35797,-0.08917 -0.566407,-0.07617 -0.108359,0.01 -0.190858,0.114159 -0.304687,0.13086 -0.179296,0.027 -0.369414,-0.128844 -0.578125,-0.152344 -0.0484,-0.01 -0.102656,0.01 -0.140625,0 -0.05031,-0.013 -0.09036,-0.06894 -0.142578,-0.08594 -0.09051,-0.029 -0.158828,-0.0112 -0.238282,-0.0332 -0.107265,-0.189 -0.650819,-0.202228 -0.697265,0.07617 -0.02067,0.1226 0.06125,0.295106 -0.121094,0.316406 -0.115781,0.014 -0.231953,-0.117944 -0.390625,-0.152343 -0.06488,-0.014 -0.156445,-0.01144 -0.207031,-0.02344 -0.118789,-0.041 -0.104765,-0.156416 -0.207031,-0.228516 -0.04999,-0.0345 -0.164724,-0.07272 -0.25586,-0.0918 -0.0021,0.1102 -0.0052,0.22166 -0.0059,0.330078 -4e-6,6.41e-4 4e-6,0.0013 0,0.002 0.0035,0.110874 0.0078,0.222079 0.0078,0.332031 0,2.140387 -0.08804,4.563966 -0.496093,6.714844 0.14871,0.178706 0.217514,0.390429 0.324218,0.623047 0.04015,0.087 0.119169,0.222653 0.121094,0.314453 0.0014,0.068 -0.03953,0.128765 -0.0332,0.197265 0.01375,0.146 0.103751,0.209491 0.119141,0.337891 0.03574,0.3028 -0.237422,0.393678 -0.292969,0.642578 -0.01315,0.059 6.31e-4,0.120428 -0.01172,0.173828 -0.01871,0.081 -0.07411,0.140297 -0.08594,0.216797 -0.01183,0.078 -0.03087,0.225488 -0.02344,0.304688 0.01102,0.1166 0.135977,0.225325 0.197266,0.328125 0.0652,0.1095 0.118593,0.294446 0.195312,0.435546 0.04262,0.078 0.113283,0.143232 0.13086,0.207032 0.02282,0.083 -1.32e-4,0.19267 0.01172,0.292968 0.0096,0.081 0.05343,0.153352 0.06445,0.21875 0.03383,0.2005 0.04223,0.399207 0.142579,0.566407 0.0498,0.084 0.139374,0.132381 0.207031,0.238281 0.06379,0.1 0.08883,0.237775 0.152344,0.359375 0.06629,0.1265 0.151243,0.213603 0.152343,0.283203 8e-4,0.059 -0.05634,0.121147 -0.05469,0.185547 0.0044,0.1675 0.185078,0.335391 0.326172,0.337891 0.06352,0 0.126835,-0.05345 0.195312,-0.06445 0.04015,-0.01 0.08176,0.01 0.121094,0 0.06766,-0.011 0.122695,-0.05941 0.173828,-0.06641 0.08303,-0.01248 0.163928,-2.01e-4 0.246094,0.0078 0.635167,-0.413763 1.23997,-0.870284 1.796875,-1.38086 0.013,-0.04116 0.03581,-0.08865 0.03711,-0.107421 0.005,-0.066 -0.03495,-0.113329 -0.02148,-0.173829 0.04457,-0.1994 0.442578,-0.161309 0.521484,-0.349609 0.07289,-0.1744 0.03285,-0.405606 -0.0098,-0.566406 -0.01598,-0.061 -0.07301,-0.154097 -0.06641,-0.216797 0.01129,-0.1084 0.188009,-0.209206 0.316407,-0.316406 0.07758,-0.065 0.142031,-0.161197 0.21875,-0.216797 0.110273,-0.08 0.266289,-0.09746 0.36914,-0.164063 0.09461,-0.061 0.253672,-0.229672 0.294922,-0.326172 0.04676,-0.1095 -1.79e-4,-0.197806 -0.01172,-0.316406 -0.01817,-0.1867 0.01348,-0.400794 0,-0.621094 -0.111914,-0.098 -0.155195,-0.265062 -0.216796,-0.414062 0.01898,-0.1238 0.0436,-0.219938 0.0098,-0.335938 -0.0198,-0.068 -0.07766,-0.109881 -0.08594,-0.175781 -0.02172,-0.1725 0.102148,-0.256259 0.162109,-0.380859 0.05332,-0.1108 0.08438,-0.221603 0.130859,-0.283203 0.05883,-0.078 0.169258,-0.115813 0.240235,-0.195313 0.0495,-0.055 0.07156,-0.131766 0.11914,-0.197265 0.123203,-0.169101 0.304141,-0.350916 0.478516,-0.478516 0.08801,-0.064 0.183633,-0.100463 0.261719,-0.164063 0.07863,-0.064 0.144766,-0.136196 0.21875,-0.216797 0.131172,-0.143299 0.299999,-0.315534 0.380859,-0.490234 0.02558,-0.055 0.02125,-0.120528 0.04297,-0.173828 0.0707,-0.1744 0.224648,-0.317819 0.283203,-0.511719 0.01047,-0.035 0.01047,-0.07899 0.02148,-0.121093 0.0316,-0.118901 0.111914,-0.25796 0,-0.38086 -0.102305,-0.032 -0.193047,0.08161 -0.326171,0.09961 -0.140781,0.019 -0.269493,0.0102 -0.38086,0.0332 -0.06574,0.014 -0.115821,0.06422 -0.173828,0.07422 -0.03715,0.01 -0.08656,-0.01 -0.130859,0 -0.0877,0.013 -0.161289,0.07141 -0.21875,0.06641 -0.14,-0.014 -0.221094,-0.174519 -0.304688,-0.261719 0.01262,-0.065 0.06331,-0.08811 0.04492,-0.162109 -0.01433,-0.057 -0.09598,-0.06789 -0.154297,-0.121094 -0.09898,-0.091 -0.184766,-0.218335 -0.304687,-0.302735 -0.133633,-0.094 -0.315704,-0.155221 -0.38086,-0.294921 -0.04457,-0.095 -0.04559,-0.237491 -0.109375,-0.337891 -0.0784,-0.1229 -0.267304,-0.198072 -0.304687,-0.326172 -0.03906,-0.1334 -0.0023,-0.226075 -0.03125,-0.359375 -0.04289,-0.1991 -0.259649,-0.253081 -0.328125,-0.425781 -0.01871,-0.047 -0.01421,-0.106944 -0.03125,-0.152344 -0.04566,-0.1226 -0.140507,-0.239056 -0.207032,-0.347656 -0.07289,-0.1193 -0.141249,-0.23836 -0.185546,-0.38086 0.04429,-0.057 0.139687,-0.06513 0.228515,-0.07813 0.170508,0.1422 0.327187,0.321338 0.435547,0.523438 0.02696,0.05 0.03281,0.117062 0.06445,0.164062 0.04754,0.071 0.134257,0.103944 0.175781,0.152344 0.055,0.063 0.109415,0.147916 0.13086,0.228516 0.01292,0.049 -0.0037,0.09956 0.0098,0.164062 0.04976,0.2357 0.305742,0.332585 0.435546,0.521485 0.03847,0.056 0.05465,0.125128 0.08789,0.173828 0.06797,0.1 0.179219,0.155737 0.207031,0.273437 -0.0071,0.058 -0.09258,0.03947 -0.08789,0.109375 0.03383,0.087 0.126523,0.112213 0.173828,0.195313 0.09269,0.1628 0.106094,0.392772 0.185547,0.576172 0.168594,0.099 0.32246,-0.07054 0.490234,-0.119141 0.05277,-0.015 0.110469,-0.0095 0.164063,-0.02148 0.06793,-0.017 0.134453,-0.06889 0.207031,-0.08789 0.03551,-0.01 0.07493,2.34e-4 0.107422,-0.0098 0.08027,-0.029 0.13582,-0.110343 0.228515,-0.152343 0.144336,-0.066 0.314766,-0.06596 0.414063,-0.13086 0.09543,-0.062 0.09519,-0.177415 0.173828,-0.228515 0.120156,-0.078 0.259375,-0.05598 0.404297,-0.109375 0.07367,-0.027 0.116836,-0.100044 0.185547,-0.152344 0.05613,-0.043 0.124179,-0.08502 0.183593,-0.140625 0.01879,-0.01733 0.03478,-0.03305 0.05859,-0.05078 0.05288,-0.33603 0.107494,-0.670859 0.140625,-1.011719 -0.06203,-0.01163 -0.122102,-0.01049 -0.166015,-0.02734 -0.07781,-0.031 -0.143711,-0.09649 -0.185547,-0.183594 -0.04094,-0.085 -0.0017,-0.153668 -0.119141,-0.230468 -0.202109,0.1752 -0.332773,0.424409 -0.785156,0.349609 -0.09843,-0.043 -0.05555,-0.226872 -0.09766,-0.326172 -0.04812,-0.051 -0.138515,0.0093 -0.183594,-0.01172 -0.06738,-0.2313 -0.291954,-0.29665 -0.414063,-0.46875 -0.03711,-0.053 -0.129883,-0.1808 -0.121093,-0.25 0.01293,-0.099 0.1525,-0.152343 0.240234,-0.152343 0.251328,0 0.281717,0.336465 0.447266,0.447265 0.06766,0.045 0.154295,0.07702 0.25,0.140625 0.134765,0.09 0.300625,0.17646 0.5,0.13086 0.09406,-0.022 0.151055,-0.09917 0.251953,-0.07617 0.085,0.02 0.104218,0.162531 0.152343,0.207031 0.05186,0.04848 0.150796,0.07361 0.251954,0.0918 0.02557,-0.33488 0.05248,-0.669633 0.05859,-1.007813 -0.06712,-2.851618 -0.710225,-5.394395 -1.832031,-7.53125 -0.128557,-0.0097 -0.259057,-0.01366 -0.384766,-0.02344 -0.05063,0.064 0.113357,0.113794 0.04297,0.183594 -0.0418,0.042 -0.146249,-0.03897 -0.207031,-0.04297 -0.08609,0 -0.157774,0.05141 -0.261719,0.06641 -0.04375,0.01 -0.09902,-0.01 -0.152344,0 -0.06629,0.01 -0.116719,0.03725 -0.162109,0.03125 -0.08332,-0.011 -0.131563,-0.08594 -0.197266,-0.08594 -0.05281,-3e-4 -0.119218,0.05045 -0.183593,0.06445 -0.05059,0.011 -0.106288,7.19e-4 -0.142579,0.01172 -0.04949,0.013 -0.102461,0.06194 -0.164062,0.08594 -0.05195,0.02 -0.111641,0.02297 -0.152344,0.04297 -0.100664,0.051 -0.121562,0.146645 -0.228515,0.152343 -0.04703,0 -0.135312,-0.01066 -0.173829,-0.09766 -0.0066,-0.065 0.05863,-0.05746 0.04297,-0.130859 -0.03137,-0.062 -0.233515,-0.08972 -0.271484,-0.01172 -0.07617,0.1122 0.06762,0.175222 0.05469,0.294922 -0.01926,0.01 -0.03309,0.02397 -0.04297,0.04297 -0.198281,-0.085 -0.360704,0.03057 -0.490235,0.109375 -0.01539,0.061 -0.0065,0.145909 -0.06641,0.162109 -0.153437,0.022 -0.283945,-0.11285 -0.392578,-0.03125 -0.01761,0.1119 0.142539,0.04651 0.121094,0.162109 -0.243086,0.03 -0.508984,-0.155943 -0.511719,-0.402343 0.17875,-0.057 0.404844,0.04297 0.576172,0.04297 0.102578,0 0.343945,-0.04245 0.33789,-0.185547 -0.005,-0.121 -0.274726,-0.173597 -0.402343,-0.216797 -0.152617,-0.051 -0.324844,-0.133344 -0.480469,-0.152344 -0.05008,-0.01 -0.101993,0 -0.152344,0 -0.141329,-0.014 -0.252657,-0.08961 -0.359375,-0.09961 -0.07207,-0.01 -0.134922,0.017 -0.183594,0 -0.0968,-0.034 -0.08895,-0.119644 -0.164062,-0.152344 -0.143242,-0.063 -0.306368,-0.0088 -0.478516,-0.0098 -0.103985,0 -0.203203,-0.02948 -0.283203,-0.02148 z m -11.539062,0.01172 c -0.128643,0.414268 -0.244602,0.844482 -0.341797,1.294922 0.09793,-0.449957 0.212431,-0.88111 0.341797,-1.294922 z m 15.091796,0.238281 0,0.002 c -0.04699,0 -0.0959,0.02108 -0.08008,0.08008 0.02226,0.041 0.117422,0.04472 0.152344,0.01172 0.01953,-0.0577 -0.02527,-0.08995 -0.07227,-0.09375 z m -21.630859,0.05859 0,0.0039 c 0.05645,-0.01 0.123515,0.03642 0.173828,0.107422 0.177383,0.019 0.381797,-0.0228 0.501953,0.0332 0.02668,0.054 -0.03008,0.08452 -0.06641,0.107422 -0.209258,-0.153 -0.516094,0.08783 -0.71875,-0.07617 0.0071,-0.118 0.05293,-0.170381 0.109375,-0.175781 z m 5.447266,0.130859 0,0.0039 c -0.105453,-0.014 -0.248017,0.07499 -0.230469,0.150391 0.02942,0.1252 0.339219,3.44e-4 0.316406,-0.09766 -0.01974,-0.0346 -0.05079,-0.05204 -0.08594,-0.05664 z m 0.591797,0.269531 0,0.0039 c 0.01277,-2e-4 0.02501,-2.82e-4 0.03711,0.01172 0.0077,0.055 -0.02258,0.07145 -0.07617,0.06445 -0.03221,-0.0433 7.72e-4,-0.07938 0.03906,-0.08008 z m 10.048828,0.519531 c 0.05204,0.235172 0.08753,0.485401 0.126953,0.732422 -0.04407,-0.24316 -0.07497,-0.497421 -0.126953,-0.732422 z m -12.515625,0.16211 0,0.0039 c -0.02093,0 -0.04017,0.01158 -0.05469,0.01758 -0.04261,0.026 -0.0468,0.06594 -0.04297,0.08594 0.02336,0.1158 0.240457,0.01603 0.238282,-0.04297 -0.0016,-0.0485 -0.07782,-0.07105 -0.140625,-0.06445 z m -4.91211,0.115234 0,0.0039 c 0.06023,0 0.113164,0.05766 0.164063,0.09766 -0.01571,0.066 -0.102188,0.05517 -0.164063,0.07617 -0.104218,0.036 -0.255234,0.109271 -0.423828,0.07617 0.0088,-0.081 0.136367,-0.09398 0.228516,-0.142578 0.07918,-0.0457 0.116406,-0.114128 0.195312,-0.111328 z m 7.359375,0.865235 c -0.06391,0.398143 -0.128086,0.791798 -0.173828,1.205078 0.04703,-0.411236 0.10788,-0.809909 0.173828,-1.205078 z m 10.363282,0.621093 c 0.06697,0.496575 0.116216,1.002979 0.158203,1.515625 -0.04161,-0.513081 -0.0897,-1.019745 -0.15625,-1.515625 -5.76e-4,2.47e-4 -0.0014,-2.46e-4 -0.002,0 z M 12.595703,18.75 c 0.02547,-0.0059 0.04549,-0.0052 0.0625,0 0.119096,0.037 0.04383,0.312606 -0.0625,0.316406 -0.169414,0.01 -0.136445,-0.284606 0,-0.316406 z m 1.302735,0.951172 c 0.02416,0 0.04629,-2.34e-4 0.06836,0.0098 0.09871,0.026 0.35957,0.311896 0.142578,0.404296 -0.02058,0.01 -0.319649,0.04025 -0.371094,0.03125 -0.07531,-0.013 -0.11914,-0.117359 -0.195312,-0.130859 -0.15043,-0.026 -0.353907,0.182419 -0.457031,0.01172 0.02609,-0.097 0.135078,-0.10006 0.25,-0.13086 0.178549,-0.0508 0.393371,-0.191912 0.5625,-0.195312 z m 22.291015,0.373047 c 0.05646,0 0.119052,0.01234 0.189453,0.02734 0.07012,0.041 0.118054,0.214585 0.04297,0.271485 -0.178203,-0.01 -0.332345,0.06455 -0.335937,0.185547 -0.0041,0.1472 0.300351,0.307359 0.423828,0.380859 0.01129,0.068 0.01714,0.141428 0.06445,0.173828 0.163868,-0.062 0.328951,0.03446 0.328125,0.164063 -0.03793,0.087 -0.146992,2.03e-4 -0.21875,0.0332 -0.02035,0 -0.0062,0.0362 -0.03125,0.0332 0.05387,0.2692 0.34746,0.298181 0.292968,0.675781 -0.06957,0.072 -0.201601,0.110722 -0.326171,0.107422 -0.116875,0 -0.22543,-0.09003 -0.337891,-0.140625 -0.11332,-0.051 -0.237539,-0.05453 -0.261719,-0.173828 -0.01129,-0.056 0.01285,-0.209137 0.0332,-0.273438 0.02035,-0.066 0.07918,-0.07803 0.07617,-0.140624 -0.0038,-0.074 -0.185078,-0.211038 -0.25,-0.273438 -0.09184,-0.088 -0.214141,-0.154766 -0.261718,-0.259766 -0.01731,-0.039 -0.01367,-0.09698 -0.0332,-0.142578 -0.03821,-0.089 -0.13375,-0.128012 -0.140625,-0.195312 -0.005,-0.047 0.05367,-0.139728 0.09766,-0.173828 0.04785,-0.037 0.142968,-0.08098 0.228515,-0.142578 0.133631,-0.0973 0.250538,-0.145019 0.419922,-0.136719 z m -2.554687,0.0059 0,0.0039 c 0.05381,-0.01 0.105313,6.6e-5 0.142578,0.0098 0.08633,0.1801 -0.133035,0.214106 -0.13086,0.316406 0.002,0.094 0.292423,0.181716 0.369141,0.228516 0.132305,0.081 0.267539,0.139331 0.380859,0.207031 0.14957,0.089 0.285311,0.339178 -0.0098,0.392578 -0.103398,0.018 -0.281329,0.02349 -0.38086,0.02148 -0.301133,-0.01 -0.524608,-0.23305 -0.871093,-0.21875 -0.07922,0 -0.149844,0.02392 -0.207032,0.04492 -0.09351,0.035 -0.158554,0.112959 -0.240234,0.130859 -0.101211,0.022 -0.258165,-0.026 -0.337891,0 -0.0993,0.033 -0.109726,0.268322 -0.304687,0.107422 -0.01075,-0.1015 0.123672,-0.05702 0.130859,-0.140625 -0.0072,-0.081 -0.108945,-0.12445 -0.11914,-0.21875 -0.01125,-0.107 0.09348,-0.150485 0.130859,-0.271485 0.01185,-0.039 -0.0015,-0.08248 0.0098,-0.109375 0.01898,-0.044 0.07473,-0.06954 0.109375,-0.11914 0.06543,-0.094 0.133554,-0.280822 0.261718,-0.294922 0.122109,-0.013 0.189258,0.09189 0.292969,0.08789 0.07176,0.098 0.106874,0.262304 0.240234,0.283204 0.111953,0.018 0.240938,-0.08289 0.347657,-0.121094 -0.02586,-0.099 -0.138321,-0.04603 -0.152344,-0.140625 -0.01837,-0.1266 0.176452,-0.190719 0.337891,-0.199219 z m -19.253907,0.152344 0,0.002 c 0.05086,0.01 0.112226,0.06141 0.173829,0.06641 0.05828,0 0.106835,-0.03148 0.142578,-0.02148 0.09101,0.024 0.128511,0.161115 0.04297,0.228515 -0.07121,0.01 -0.09871,-0.03148 -0.152343,-0.02148 -0.14793,0.025 -0.203908,0.314288 -0.314453,0.304688 -0.104258,-0.01 -0.160545,-0.262291 -0.05469,-0.337891 0.0041,-0.066 -0.04824,-0.07593 -0.04492,-0.140625 0.03192,-0.0444 0.120156,-0.08748 0.207031,-0.08008 z m -0.490234,0.0332 0,0.0039 c 0.03033,0 0.05514,0.0095 0.06641,0.01953 -0.01457,0.1161 -0.107616,0.109863 -0.197265,0.164063 -0.154844,0.094 -0.243711,0.235947 -0.292969,0.435547 -0.0143,0.059 -0.166523,0.210712 -0.240235,0.195312 -0.172693,-0.036 0.04856,-0.353943 0.08789,-0.402343 0.04344,-0.054 0.100938,-0.102163 0.152344,-0.164063 0.04977,-0.06 0.08274,-0.140528 0.130859,-0.173828 0.05259,-0.0386 0.201978,-0.08162 0.292969,-0.07813 z m 23.730469,0.06445 0,0.0039 c 0.132801,-0.033 0.307382,0.249103 0.130859,0.283204 -0.120195,0.02 -0.304413,-0.24361 -0.130859,-0.28711 z m -22.439453,0.328125 0,0.0039 c 0.05527,0 0.102305,0.0083 0.125,0.0293 -0.03547,0.1438 -0.343711,0.108241 -0.457032,0.05664 0.0074,-0.054 0.09282,-0.07013 0.164063,-0.07813 0.05047,-0.0078 0.112696,-0.01282 0.167969,-0.01172 z m 14.310547,0.109375 c 0.0064,0.151212 0.005,0.301758 0.0098,0.453125 0.0052,0.0018 0.01053,0.0036 0.01563,0.0059 0.141367,0.064 0.421094,0.275463 0.425781,0.414063 0.0024,0.069 -0.06543,0.121747 -0.05469,0.185547 0.106953,0.017 0.225779,-0.100031 0.228516,-0.207031 0.0017,-0.067 -0.06766,-0.103129 -0.05469,-0.173829 0.05004,-0.107798 0.197071,3.2e-5 0.261719,-0.04297 -0.01238,-0.1218 -0.179258,-0.134066 -0.283203,-0.197266 -0.05609,-0.034 -0.09406,-0.105006 -0.152344,-0.128906 C 29.804262,21.042172 29.71418,21.051 29.648438,21 c -0.0616,-0.047 -0.09156,-0.158069 -0.152344,-0.230469 -8.94e-4,-0.0011 -0.003,-9.28e-4 -0.0039,-0.002 z m -0.04883,0.03711 c 0.008,0.09897 0.01575,0.197861 0.02344,0.296874 -0.0054,-0.10022 -0.01728,-0.196918 -0.02344,-0.296874 z m -14.96875,0.117187 0,0.0039 c 0.03716,0 0.07458,5.78e-4 0.113282,0.01758 -0.100352,0.084 -0.208712,0.131047 -0.38086,0.185547 -0.08277,0.026 -0.226211,0.0598 -0.240234,-0.0332 -0.01731,-0.1133 0.121642,-0.08961 0.197265,-0.09961 0.0951,-0.0152 0.199075,-0.07062 0.310547,-0.07422 z m 15.09375,0.904297 0,0.0039 c -0.02069,0 -0.03581,0.0056 -0.05273,0.0098 0.0011,0.06323 0.005,0.126285 0.0059,0.189453 0.06897,0.02628 0.14583,0.04403 0.226563,0.05859 0.06434,-0.048 0.06825,-0.156935 0.09766,-0.240235 -0.07824,-0.0023 -0.18041,-0.01778 -0.277344,-0.02148 z m 3.601563,0.552734 0,0.0039 c -0.05692,0.01 -0.108866,0.03899 -0.111328,0.08398 0.04207,0.1042 0.236563,0.04403 0.25,-0.04297 -0.02008,-0.0434 -0.08175,-0.05442 -0.138672,-0.04492 z m -23.4531251,1.47461 c 0,0.439712 0.020415,0.877056 0.056641,1.310546 -0.032918,-0.434427 -0.056641,-0.870819 -0.056641,-1.310546 z m 4.9941411,3.623046 0,0.0039 c 0.07362,0.01 0.08314,0.159575 0.0078,0.171875 -0.08141,0.013 -0.121922,-0.127463 -0.04297,-0.164063 0.01305,-0.0092 0.02464,-0.01252 0.03516,-0.01172 z m 18.773437,2.013672 0,0.0039 c 0.07591,0 0.138628,0.03859 0.150391,0.117187 0.0143,0.095 -0.07254,0.1744 -0.109375,0.25 -0.03356,0.069 -0.02422,0.131663 -0.09766,0.164063 -0.132813,0.01 -0.240313,-0.01089 -0.283203,-0.08789 0.03988,-0.1023 -0.0085,-0.182303 0.02148,-0.283203 0.02767,-0.0966 0.191844,-0.171863 0.318359,-0.164063 z m -0.808594,1.001954 0.0332,0 c 0.08996,0.054 0.04496,0.172837 0.06641,0.273437 0.0184,0.086 0.129105,0.136797 0.08594,0.216797 -0.151903,-0.01934 -0.263046,-0.311571 -0.185547,-0.490234 z m 0.980469,1.285156 0.02148,0 c 0.113594,0.054 0.05035,0.279275 0,0.359375 -0.121496,-0.05285 -0.06996,-0.268118 -0.02148,-0.359375 z m -18.214844,4.617187 c 10e-6,7.09e-4 -9e-6,0.0012 0,0.002 0.0055,0.0044 0.0121,0.0073 0.01758,0.01172 -0.0058,-0.0047 -0.01181,-0.009 -0.01758,-0.01367 z m 0.990235,0.72461 c 0.02186,0.01449 0.04251,0.03055 0.06445,0.04492 -0.02188,-0.01447 -0.04266,-0.03033 -0.06445,-0.04492 z"
       transform="translate(0,1004.3622)"
       id="path34"
       inkscape:connector-curvature="0" />
    <path
       style="fill:url(#linearGradient4237);fill-opacity:1"
       d="m 24.005859,8.5996094 c -2.880176,0 -5.463038,0.7192562 -7.609375,2.0351566 -3.979851,2.413386 -6.4791366,6.85647 -6.662109,12.548828 2.485691,1.368231 5.481962,2.381119 8.798828,2.919922 -0.04439,-0.892688 -0.07031,-1.775585 -0.07031,-2.611328 7.84e-4,-5.824201 0.942591,-12.169922 5.541015,-12.169922 l 0,-0.002 c 4.597835,0 5.533203,6.416188 5.533203,12.242188 0,0.81443 -0.02143,1.672435 -0.05859,2.539062 3.313265,-0.539461 6.305841,-1.552651 8.789062,-2.919921 C 38.093498,17.782294 35.832561,13.505996 32.203125,11.021484 29.946428,9.4612844 27.154866,8.5996094 24.005859,8.5996094 Z"
       id="path4226"
       inkscape:connector-curvature="0"
       transform="translate(0,1004.3622)" />
    <path
       style="fill:#000000;fill-opacity:0.31372549"
       d="m 24.003906,1014.8833 c -4.598424,0 -5.540231,6.3457 -5.541015,12.1699 0,0.1434 0.0068,0.2995 0.0078,0.4453 0.03921,-5.7242 1.027852,-11.8144 5.533203,-11.8144 l 0,0 c 4.510552,0 5.489597,6.1733 5.525391,11.9082 8.88e-4,-0.1526 0.0078,-0.3148 0.0078,-0.4648 2.4e-5,-5.828 -0.935344,-12.2442 -5.533179,-12.2442 z m 14.267578,12.8144 c -0.131446,8.0242 -5.798812,15.2637 -14.271484,15.2637 -8.464113,0 -14.1300012,-7.229 -14.2695312,-15.2461 -0.00399,0.1668 -0.013672,0.3312 -0.013672,0.5 0,8.1368 5.7127802,15.5469 14.2832032,15.5469 8.572778,0 14.283203,-7.4101 14.283203,-15.5469 0,-0.1747 -0.0074,-0.345 -0.01172,-0.5176 z"
       id="path4245"
       inkscape:connector-curvature="0" />
    <path
       style="fill:#ffffff;fill-opacity:0.23529412"
       d="m 24.005859,8.5996094 c -2.880176,0 -5.463038,0.7192562 -7.609375,2.0351566 -4.135381,2.5077 -6.6796871,7.20335 -6.6796871,13.21875 0,0.05045 0.00542,0.1 0.00586,0.15039 C 9.7924978,18.10892 12.318787,13.507877 16.396484,11.035156 18.542821,9.7192563 21.125683,9 24.005859,9 c 3.149007,0 5.940569,0.861675 8.197266,2.421875 3.721732,2.547692 6.005294,6.97724 6.074219,12.572266 3.83e-4,-0.04713 0.0059,-0.09344 0.0059,-0.140625 -10e-7,-5.718244 -2.300708,-10.244884 -6.080078,-12.832032 C 29.946428,9.4612844 27.154866,8.5996094 24.005859,8.5996094 Z M 18.466797,23.714844 c -2.04e-4,0.05904 -0.0039,0.118793 -0.0039,0.177734 0,5.3965 0.641052,12.691406 5.597656,12.691406 4.956407,0 5.476562,-7.224893 5.476562,-12.621093 0,-0.05498 -0.0037,-0.110941 -0.0039,-0.166016 -0.01512,5.369386 -0.585667,12.386719 -5.472656,12.386719 -4.890717,0 -5.576301,-7.09577 -5.59375,-12.46875 z"
       transform="translate(0,1004.3622)"
       id="path4410"
       inkscape:connector-curvature="0" />
  </g>
</svg>
