<?xml version="1.0" encoding="UTF-8" standalone="no"?>
<!-- Created with Inkscape (http://www.inkscape.org/) -->

<svg
   xmlns:dc="http://purl.org/dc/elements/1.1/"
   xmlns:cc="http://creativecommons.org/ns#"
   xmlns:rdf="http://www.w3.org/1999/02/22-rdf-syntax-ns#"
   xmlns:svg="http://www.w3.org/2000/svg"
   xmlns="http://www.w3.org/2000/svg"
   xmlns:xlink="http://www.w3.org/1999/xlink"
   xmlns:sodipodi="http://sodipodi.sourceforge.net/DTD/sodipodi-0.dtd"
   xmlns:inkscape="http://www.inkscape.org/namespaces/inkscape"
   width="48"
   height="48"
   id="svg2"
   version="1.1"
   inkscape:version="0.48+devel r12487"
   sodipodi:docname="opera.svg">
  <defs
     id="defs4">
    <linearGradient
       inkscape:collect="always"
       id="linearGradient4258">
      <stop
         style="stop-color:#e3223a;stop-opacity:1"
         offset="0"
         id="stop4260" />
      <stop
         style="stop-color:#f45826;stop-opacity:0"
         offset="1"
         id="stop4262" />
    </linearGradient>
    <linearGradient
       id="linearGradient3795">
      <stop
         style="stop-color:#981424;stop-opacity:1;"
         offset="0"
         id="stop3797" />
      <stop
         style="stop-color:#e31532;stop-opacity:1;"
         offset="1"
         id="stop3799" />
    </linearGradient>
    <linearGradient
       inkscape:collect="always"
       xlink:href="#linearGradient825"
       id="linearGradient837"
       x1="97.580727"
       y1="-1050.7296"
       x2="97.580727"
       y2="-1002.8647"
       gradientUnits="userSpaceOnUse"
       gradientTransform="translate(-73.403954,-1.455814)" />
    <linearGradient
       id="linearGradient825">
      <stop
         id="stop827"
         offset="0"
         style="stop-color:#cad8e6;stop-opacity:0.99607843" />
      <stop
         id="stop829"
         offset="1"
         style="stop-color:#fcfdfe;stop-opacity:0.99803919" />
    </linearGradient>
    <linearGradient
       inkscape:collect="always"
       xlink:href="#linearGradient4258"
       id="linearGradient4237"
       x1="25.64539"
       y1="8.5106401"
       x2="25.64539"
       y2="26.212767"
       gradientUnits="userSpaceOnUse" />
    <linearGradient
       inkscape:collect="always"
       xlink:href="#linearGradient3795"
       id="linearGradient4256"
       x1="32.737537"
       y1="1043.8168"
       x2="32.737537"
       y2="1013.045"
       gradientUnits="userSpaceOnUse" />
  </defs>
  <sodipodi:namedview
     id="base"
     pagecolor="#ffffff"
     bordercolor="#666666"
     borderopacity="1.0"
     inkscape:pageopacity="0.0"
     inkscape:pageshadow="2"
     inkscape:zoom="2"
     inkscape:cx="63.12893"
     inkscape:cy="-4.1516431"
     inkscape:document-units="px"
     inkscape:current-layer="layer1"
     showgrid="false"
     inkscape:window-width="1366"
     inkscape:window-height="718"
     inkscape:window-x="0"
     inkscape:window-y="30"
     inkscape:window-maximized="1" />
  <metadata
     id="metadata7">
    <rdf:RDF>
      <cc:Work
         rdf:about="">
        <dc:format>image/svg+xml</dc:format>
        <dc:type
           rdf:resource="http://purl.org/dc/dcmitype/StillImage" />
        <dc:title />
      </cc:Work>
    </rdf:RDF>
  </metadata>
  <g
     inkscape:label="Capa 1"
     inkscape:groupmode="layer"
     id="layer1"
     transform="translate(0,-1004.3622)">
    <rect
       style="fill:url(#linearGradient837);fill-opacity:1;stroke:none"
       id="rect2991-1"
       width="48"
       height="48"
       x="-4.4775391e-07"
       y="-1052.3622"
       ry="1.9445436"
       transform="scale(1,-1)" />
    <path
       inkscape:connector-curvature="0"
       style="fill:#000000;fill-opacity:1;stroke:none"
       d="m 1e-6,1049.3622 0,1.0625 c 0,1.0773 0.860223,1.9375 1.9375,1.9375 l 44.124995,0 c 1.07728,0 1.9375,-0.8602 1.9375,-1.9375 l 0,-1.0625 c 0,1.0773 -0.86022,1.9375 -1.9375,1.9375 l -44.124995,0 C 0.860224,1051.2997 10e-7,1050.4395 10e-7,1049.3622 Z"
       id="rect846" />
    <path
       inkscape:connector-curvature="0"
       style="fill:#ffffff;fill-opacity:0.5372549;stroke:none"
       d="m 2.531251,1005.0185 c -0.917089,0 -1.671147,0.6395 -1.84375,1.5 0.335612,-0.2799 0.774512,-0.4375 1.25,-0.4375 l 44.124995,0 c 0.47549,0 0.91439,0.1576 1.25,0.4375 -0.1726,-0.8605 -0.92666,-1.5 -1.84375,-1.5 L 2.531251,1005.0185 Z"
       id="path7515" />
    <path
       inkscape:connector-curvature="0"
       style="fill:#000000;fill-opacity:0.39215686;stroke:none"
       d="m 1.937501,1004.3622 c -1.077277,0 -1.9375,0.8602 -1.9375,1.9375 l 0,43.0625 c 0,0.7934 0.480023,1.449 1.15625,1.75 -0.309342,-0.3333 -0.5,-0.7824 -0.5,-1.2812 l 0,-42.9375 c 0,-1.0482 0.826899,-1.875 1.875,-1.875 l 42.937495,0 c 1.04811,0 1.875,0.8268 1.875,1.875 l 0,42.9375 c 0,0.4988 -0.19065,0.9479 -0.5,1.2812 0.67623,-0.301 1.15625,-0.9566 1.15625,-1.75 l 0,-43.0625 c 0,-1.0773 -0.86022,-1.9375 -1.9375,-1.9375 L 1.937501,1004.3622 Z"
       id="rect4280-9" />
    <path
       inkscape:connector-curvature="0"
       style="fill:#000000;fill-opacity:0.05882353"
       d="m 32.202816,1016.5835 c -2.256697,-1.5602 -5.048703,-2.4213 -8.19771,-2.4213 -2.880176,0 -5.461474,0.7195 -7.607811,2.0354 -4.135381,2.5077 -6.6809395,7.2021 -6.6809395,13.2175 0,8.1368 5.7126345,15.5471 14.2830575,15.5471 8.572778,0 14.284232,-7.4103 14.284232,-15.5471 C 38.283644,1023.6962 35.982174,1019.1708 32.202031,1016.5838 z m -8.198888,0.2996 c 4.597835,0 5.532954,6.4158 5.532954,12.2418 0,5.3962 -0.520188,12.6214 -5.476595,12.6214 -4.956604,0 -5.597363,-7.2956 -5.597363,-12.6921 C 18.463708,1023.23 19.40629,1016.8841 24.004714,1016.8841 Z"
       id="path4421" />
    <path
       id="path4419"
       d="m 32.202816,1016.1835 c -2.256697,-1.5602 -5.048703,-2.4213 -8.19771,-2.4213 -2.880176,0 -5.461474,0.7195 -7.607811,2.0354 -4.135381,2.5077 -6.6809395,7.2021 -6.6809395,13.2175 0,8.1368 5.7126345,15.5471 14.2830575,15.5471 8.572778,0 14.284232,-7.4103 14.284232,-15.5471 C 38.283644,1023.2962 35.982174,1018.7708 32.202031,1016.1838 z m -8.198888,0.2996 c 4.597835,0 5.532954,6.4158 5.532954,12.2418 0,5.3962 -0.520188,12.6214 -5.476595,12.6214 -4.956604,0 -5.597363,-7.2956 -5.597363,-12.6921 C 18.463708,1022.83 19.40629,1016.4841 24.004714,1016.4841 Z"
       style="fill:#000000;fill-opacity:0.11764706"
       inkscape:connector-curvature="0" />
    <path
       inkscape:connector-curvature="0"
       style="fill:#000000;fill-opacity:0.23529412"
       d="m 32.202816,1015.7835 c -2.256697,-1.5602 -5.048703,-2.4213 -8.19771,-2.4213 -2.880176,0 -5.461474,0.7195 -7.607811,2.0354 -4.135381,2.5077 -6.6809395,7.2021 -6.6809395,13.2175 0,8.1368 5.7126345,15.5471 14.2830575,15.5471 8.572778,0 14.284232,-7.4103 14.284232,-15.5471 C 38.283644,1022.8962 35.982174,1018.3708 32.202031,1015.7838 z m -8.198888,0.2996 c 4.597835,0 5.532954,6.4158 5.532954,12.2418 0,5.3962 -0.520188,12.6214 -5.476595,12.6214 -4.956604,0 -5.597363,-7.2956 -5.597363,-12.6921 C 18.463708,1022.43 19.40629,1016.0841 24.004714,1016.0841 Z"
       id="path4415" />
    <path
       id="path4222"
       d="m 32.202816,1015.3835 c -2.256697,-1.5602 -5.048703,-2.4213 -8.19771,-2.4213 -2.880176,0 -5.461474,0.7195 -7.607811,2.0354 -4.135381,2.5077 -6.6809395,7.2021 -6.6809395,13.2175 0,8.1368 5.7126345,15.5471 14.2830575,15.5471 8.572778,0 14.284232,-7.4103 14.284232,-15.5471 C 38.283644,1022.4962 35.982174,1017.9708 32.202031,1015.3838 z m -8.198888,0.2996 c 4.597835,0 5.532954,6.4158 5.532954,12.2418 0,5.3962 -0.520188,12.6214 -5.476595,12.6214 -4.956604,0 -5.597363,-7.2956 -5.597363,-12.6921 C 18.463708,1022.03 19.40629,1015.6841 24.004714,1015.6841 Z"
       style="fill:url(#linearGradient4256);fill-opacity:1"
       inkscape:connector-curvature="0" />
    <path
       style="fill:#000000;fill-opacity:0.05882353;fill-rule:nonzero;stroke:none"
       d="M 12.953125 15.033203 L 12.953125 15.037109 C 12.913175 15.037109 12.874035 15.036875 12.835938 15.046875 C 12.649217 15.072875 12.528203 15.204272 12.376953 15.263672 C 12.193515 15.335672 11.875899 15.434497 12.126953 15.591797 C 12.375586 15.581797 12.584414 15.474303 12.802734 15.470703 C 12.825864 15.604403 12.729768 15.714794 12.681641 15.808594 C 12.646171 15.877594 12.656517 15.924472 12.617188 15.951172 C 12.460975 16.056472 12.184609 15.860678 11.986328 15.830078 C 11.87414 15.812078 11.781445 15.859281 11.679688 15.863281 C 11.634882 15.863281 11.59275 15.854085 11.550781 15.847656 C 11.463712 16.014008 11.384007 16.186211 11.302734 16.357422 C 11.337528 16.350941 11.369271 16.342405 11.402344 16.339844 L 11.402344 16.345703 C 11.515958 16.335703 11.610743 16.358216 11.636719 16.478516 C 11.592419 16.541516 11.520742 16.510484 11.451172 16.521484 C 11.365133 16.536216 11.276037 16.569936 11.189453 16.595703 C 10.287732 18.586734 9.7866144 20.897801 9.7363281 23.449219 C 9.7587366 24.425894 9.8595791 25.391227 10.041016 26.332031 C 10.108226 26.300692 10.173608 26.265531 10.244141 26.263672 C 10.511172 26.253672 10.626171 26.601984 10.841797 26.708984 C 10.895937 26.735984 10.967265 26.735953 11.037109 26.751953 C 11.093749 26.763953 11.137224 26.789594 11.191406 26.808594 C 11.30664 26.847594 11.446954 26.841813 11.539062 26.882812 C 11.677931 26.944812 11.779063 27.205591 11.898438 27.275391 C 11.904237 27.345391 11.886766 27.441641 11.910156 27.494141 C 11.966526 27.570141 12.045742 27.551762 12.138672 27.601562 C 12.249765 27.661562 12.28332 27.815981 12.388672 27.863281 C 12.424652 27.879281 12.516759 27.878484 12.574219 27.896484 C 12.718595 27.939484 12.764922 28.106913 12.888672 28.070312 C 12.969802 28.046314 12.963633 27.964319 12.976562 27.886719 C 13.030194 27.828719 13.088281 27.736875 13.171875 27.734375 C 13.307187 27.724375 13.319923 27.874359 13.369141 28.005859 C 13.396921 28.079859 13.469336 28.144356 13.488281 28.222656 C 13.521561 28.357956 13.504343 28.76285 13.476562 28.84375 C 13.442463 28.94275 13.309376 28.985703 13.226562 29.095703 C 13.187812 29.146703 13.170345 29.221514 13.140625 29.257812 C 13.087575 29.322813 13.004726 29.340791 12.964844 29.400391 C 12.942304 29.434391 12.922111 29.507034 12.900391 29.552734 C 12.834651 29.691334 12.747777 29.788678 12.802734 29.955078 C 12.825314 30.024078 12.933319 30.069791 12.933594 30.150391 C 12.933828 30.245391 12.730509 30.329694 12.714844 30.433594 C 12.703014 30.510594 12.778284 30.6493 12.802734 30.75 C 12.821174 30.826 12.964922 30.873228 13.009766 30.923828 C 13.086206 31.009828 13.146953 31.132434 13.216797 31.240234 C 13.354844 31.452234 13.463203 31.710616 13.597656 31.916016 C 13.668356 32.023616 13.767148 32.118769 13.814453 32.230469 C 13.838633 32.286469 13.836835 32.353697 13.859375 32.404297 C 13.937225 32.579997 14.279648 32.764364 14.457031 32.851562 C 14.540081 32.892562 14.632812 32.907219 14.708984 32.949219 C 14.824453 33.013219 15.053047 33.185909 15.111328 33.287109 C 15.163598 33.378109 15.195426 33.599541 15.220703 33.744141 C 15.254253 33.935341 15.222029 34.081962 15.230469 34.289062 C 15.235369 34.400963 15.272057 34.514653 15.273438 34.626953 C 15.273987 34.666953 15.253323 34.696428 15.251953 34.736328 C 15.246953 34.872128 15.285008 35.023456 15.273438 35.160156 C 15.267137 35.234156 15.246443 35.295322 15.251953 35.357422 C 15.25473 35.389973 15.264013 35.416486 15.273438 35.445312 C 16.156382 36.184047 17.120161 36.825029 18.177734 37.322266 C 18.206349 37.312767 18.250592 37.309076 18.269531 37.296875 C 18.340741 37.249875 18.443983 37.114669 18.431641 36.980469 C 18.425541 36.916469 18.382934 36.894491 18.333984 36.837891 C 18.293004 36.789891 18.277767 36.730647 18.248047 36.685547 C 18.197187 36.609547 18.118281 36.620519 18.095703 36.511719 C 18.251914 36.481719 18.488789 36.640072 18.714844 36.576172 C 18.82207 36.546172 18.969766 36.317397 19.019531 36.216797 C 19.035471 36.184797 19.035114 36.136356 19.052734 36.097656 C 19.071724 36.055656 19.112851 36.022 19.119141 36 C 19.135941 35.941 19.127155 35.894822 19.140625 35.857422 C 19.180235 35.746822 19.282187 35.710506 19.347656 35.628906 C 19.397146 35.566906 19.41977 35.495194 19.466797 35.433594 C 19.517967 35.366594 19.563825 35.307147 19.597656 35.248047 C 19.629846 35.049247 19.517963 34.910428 19.564453 34.736328 C 19.616713 34.540828 19.886718 34.422184 20.076172 34.333984 C 20.141372 34.302984 20.208633 34.254328 20.261719 34.236328 C 20.333509 34.211145 20.409817 34.204921 20.488281 34.199219 C 19.598406 32.887927 19.102539 31.045669 18.818359 29.072266 C 18.792307 29.041653 18.760836 29.012598 18.748047 28.976562 C 18.725507 28.913562 18.734654 28.83795 18.714844 28.78125 C 18.686524 28.70025 18.607538 28.651684 18.519531 28.583984 C 18.361952 28.462784 18.221329 28.350066 17.996094 28.322266 C 17.897114 28.310266 17.801251 28.352703 17.681641 28.345703 C 17.554884 28.335703 17.393671 28.225486 17.298828 28.117188 C 17.206678 28.011287 17.162344 27.915834 17.082031 27.865234 C 17.005861 27.817234 16.905469 27.817578 16.853516 27.767578 C 16.830436 27.745578 16.835307 27.711056 16.810547 27.660156 C 16.772337 27.581156 16.708244 27.536206 16.755859 27.441406 C 16.668949 27.397406 16.66523 27.521859 16.570312 27.505859 C 16.485623 27.385659 16.414883 27.330034 16.222656 27.365234 C 16.134926 27.381234 16.085 27.493294 15.982422 27.496094 C 15.898282 27.496094 15.831797 27.402619 15.720703 27.386719 C 15.636833 27.374719 15.540157 27.410437 15.480469 27.398438 C 15.387539 27.380437 15.358398 27.301494 15.273438 27.246094 C 15.211286 27.205094 15.091563 27.136719 15.056641 27.136719 C 14.947227 27.146719 14.869727 27.369063 14.71875 27.289062 C 14.64508 27.196063 14.838862 27.147447 14.751953 27.060547 C 14.685933 26.994547 14.630898 27.089 14.578125 27.125 C 14.517895 27.166 14.459375 27.209475 14.392578 27.234375 C 14.242969 27.290375 14.150117 27.261266 14.033203 27.322266 C 13.924883 27.378266 13.920703 27.470631 13.859375 27.582031 C 13.809065 27.673031 13.694492 27.807 13.619141 27.8125 C 13.527851 27.8225 13.440196 27.684137 13.357422 27.648438 C 13.108008 27.540337 12.988359 27.743094 12.78125 27.746094 C 12.589023 27.746094 12.312619 27.436559 12.322266 27.255859 C 12.328366 27.145559 12.385236 26.978197 12.398438 26.841797 C 12.409136 26.733397 12.485278 26.669413 12.486328 26.570312 C 12.488028 26.438112 12.310429 26.336113 12.224609 26.320312 C 12.021133 26.282312 11.739062 26.401594 11.505859 26.308594 C 11.461289 26.234594 11.557031 26.183028 11.582031 26.111328 C 11.596051 26.070328 11.586436 26.015903 11.603516 25.970703 C 11.629376 25.901703 11.701876 25.848791 11.734375 25.775391 C 11.758825 25.719391 11.764334 25.637959 11.789062 25.568359 C 11.817384 25.489359 11.870903 25.438312 11.876953 25.382812 C 11.884953 25.308812 11.858241 25.224181 11.800781 25.175781 C 11.619844 25.185781 11.499335 25.194234 11.396484 25.240234 C 11.16082 25.347434 11.208085 25.666888 10.972656 25.742188 C 10.891246 25.768187 10.779102 25.769156 10.689453 25.785156 C 10.612193 25.799156 10.51918 25.841844 10.439453 25.839844 C 10.345113 25.839844 10.179141 25.7478 10.123047 25.6875 C 10.073007 25.6335 9.95125 25.365859 9.9375 25.318359 C 9.8448 24.997459 9.9462011 24.701516 10.068359 24.478516 C 10.094219 24.430516 10.137 24.387991 10.15625 24.337891 C 10.18539 24.261891 10.166643 24.146153 10.189453 24.064453 C 10.231213 23.912653 10.429766 23.8232 10.570312 23.75 C 10.729533 23.667 10.863437 23.533684 11.048828 23.521484 C 11.141208 23.511484 11.276445 23.546453 11.365234 23.564453 C 11.447224 23.581453 11.511094 23.635625 11.582031 23.640625 C 11.78332 23.655625 11.831875 23.499809 11.996094 23.412109 C 12.165743 23.436109 12.278438 23.381436 12.431641 23.398438 C 12.536133 23.410437 12.611952 23.522997 12.693359 23.529297 C 12.761839 23.539297 12.822422 23.464609 12.888672 23.474609 C 12.953012 23.484609 13.063749 23.624425 13.074219 23.703125 C 13.087149 23.801125 13.00321 23.890447 13.03125 23.998047 C 13.133828 24.102447 13.320234 24.123394 13.466797 24.183594 C 13.562227 24.104594 13.479727 23.959603 13.466797 23.845703 C 13.461297 23.795703 13.471997 23.749725 13.466797 23.703125 C 13.458297 23.625125 13.424098 23.553428 13.423828 23.486328 C 13.422128 23.176428 13.672969 23.032556 13.880859 22.910156 C 13.970779 22.857156 14.041055 22.763709 14.119141 22.724609 C 14.229414 22.669609 14.311055 22.654616 14.402344 22.603516 C 14.567344 22.510516 14.708907 22.437131 14.837891 22.332031 C 14.897541 22.191531 14.842469 22.002181 14.849609 21.863281 C 14.909299 21.826281 14.960193 21.881 15.023438 21.875 C 15.123006 21.854 15.131094 21.71235 15.1875 21.65625 C 15.21992 21.62425 15.308905 21.602312 15.349609 21.570312 C 15.448909 21.492313 15.481718 21.375297 15.568359 21.341797 C 15.599419 21.328797 15.671757 21.330359 15.720703 21.318359 C 15.785583 21.301359 15.877383 21.225853 15.982422 21.189453 C 16.050622 21.166453 16.206289 21.159813 16.232422 21.132812 C 16.264562 21.099813 16.233713 21.008184 16.244141 20.958984 C 16.296951 20.713084 16.667813 20.660925 16.886719 20.578125 C 17.040157 20.520125 17.19664 20.414566 17.365234 20.447266 C 17.332224 20.564066 17.174531 20.524316 17.201172 20.666016 C 17.238322 20.862916 17.502696 20.607125 17.572266 20.578125 C 17.705118 20.522125 17.931133 20.488581 18.105469 20.425781 C 18.258359 20.369781 18.532773 20.284175 18.388672 20.109375 C 18.268476 20.099375 18.210234 20.250122 18.105469 20.294922 C 18.033129 20.305922 18.047887 20.235469 17.986328 20.230469 C 17.928008 20.220469 17.894218 20.284438 17.833984 20.273438 C 17.774064 20.263438 17.691016 20.169709 17.681641 20.099609 C 17.657741 19.917809 17.834843 19.842631 17.910156 19.707031 C 17.860386 19.542531 17.633594 19.673375 17.496094 19.609375 C 17.509294 19.511375 17.610195 19.442528 17.724609 19.423828 C 17.818359 19.408828 18.028164 19.423797 18.083984 19.466797 C 18.116724 19.494797 18.088072 19.563775 18.138672 19.609375 C 18.194222 19.659375 18.261953 19.652625 18.333984 19.640625 C 18.360124 19.516625 18.173006 19.549097 18.193359 19.466797 C 18.299942 19.397243 18.450899 19.413674 18.595703 19.419922 C 18.642322 18.818779 18.706069 18.233133 18.787109 17.65625 C 18.728198 17.708071 18.673714 17.757677 18.607422 17.789062 C 18.528202 17.826064 18.413476 17.870469 18.333984 17.855469 C 18.282304 17.845469 18.179842 17.769922 18.171875 17.669922 C 18.163075 17.555522 18.248361 17.551787 18.269531 17.429688 C 18.251371 17.357686 18.176133 17.374212 18.105469 17.320312 C 18.025429 17.259313 17.961914 17.130134 17.855469 17.115234 C 17.802419 17.105234 17.734454 17.155203 17.681641 17.158203 C 17.519649 17.169203 17.379062 17.054031 17.255859 17.082031 C 17.108749 17.116031 17.114843 17.343019 16.972656 17.386719 C 16.991916 17.493219 16.847969 17.562384 16.832031 17.646484 C 16.821281 17.703484 16.850206 17.770766 16.853516 17.822266 C 16.886256 18.343066 16.456601 18.586266 15.949219 18.572266 C 15.849689 18.667266 15.87254 18.846063 15.818359 18.976562 C 15.772729 19.086362 15.61168 19.202659 15.501953 19.193359 C 15.420823 19.183359 15.3284 19.073647 15.328125 18.998047 C 15.327852 18.905047 15.463399 18.854547 15.382812 18.748047 C 15.394383 18.676047 15.554961 18.634731 15.535156 18.519531 C 15.514806 18.399631 15.346875 18.461359 15.197266 18.443359 C 15.08836 18.429359 14.946133 18.3663 14.849609 18.3125 C 14.722031 18.2415 14.613633 18.102631 14.447266 18.082031 C 14.352656 18.070031 14.26332 18.113547 14.21875 18.060547 C 14.16985 18.002547 14.237464 17.9152 14.240234 17.875 C 14.237134 17.809 14.114923 17.787456 14.109375 17.722656 C 14.105275 17.677656 14.226953 17.534241 14.273438 17.494141 C 14.359488 17.419141 14.515703 17.340725 14.654297 17.265625 C 14.789883 17.192625 14.946679 17.114313 15.078125 17.070312 C 15.134255 17.051312 15.198047 17.056109 15.251953 17.037109 C 15.389726 16.986109 15.480976 16.889863 15.611328 16.851562 C 15.679258 16.831563 15.75418 16.836359 15.830078 16.818359 C 16.010742 16.778359 16.145117 16.649147 16.298828 16.623047 C 16.264728 16.748347 16.124531 16.767431 16.091797 16.894531 C 16.223515 17.134331 16.448985 16.838844 16.603516 16.839844 C 16.74379 16.839844 16.884101 17.039464 16.972656 16.851562 C 16.940506 16.750162 16.846328 16.691014 16.755859 16.632812 C 16.672269 16.578813 16.540038 16.532616 16.548828 16.416016 C 16.649219 16.371016 16.687383 16.491188 16.777344 16.492188 C 16.826284 16.492488 16.89082 16.434016 16.941406 16.416016 C 17.054726 16.377016 17.242617 16.364056 17.332031 16.285156 C 17.385901 16.237156 17.378132 16.160909 17.419922 16.099609 C 17.455662 16.047609 17.544062 16.033169 17.582031 15.980469 C 17.628241 15.916469 17.589307 15.861925 17.648438 15.828125 C 17.775507 15.771125 17.931485 15.841125 18.072266 15.828125 C 18.138826 15.818125 18.185351 15.768437 18.248047 15.773438 C 18.369883 15.783436 18.434257 15.979556 18.519531 16.035156 C 18.581951 16.076156 18.694336 16.074197 18.705078 16.154297 C 18.726248 16.313297 18.49629 16.323997 18.355469 16.404297 C 18.285349 16.444297 18.257693 16.535659 18.171875 16.568359 C 17.941445 16.656359 17.591289 16.471303 17.517578 16.720703 C 17.624024 16.877403 17.818633 16.710938 17.953125 16.710938 C 18.049105 16.710938 18.165781 16.799981 18.224609 16.863281 C 18.275509 16.917281 18.29359 17.022794 18.355469 17.058594 C 18.396719 17.082594 18.469492 17.076797 18.519531 17.091797 C 18.637549 17.127254 18.746441 17.167631 18.863281 17.179688 C 18.956026 16.606186 19.051555 16.036229 19.1875 15.507812 C 19.172815 15.506026 19.153774 15.507517 19.140625 15.501953 C 18.949219 15.430953 18.98418 15.271966 18.857422 15.197266 C 18.692969 15.218266 18.549883 15.138031 18.431641 15.207031 C 18.284493 15.126031 18.064258 15.226031 17.876953 15.207031 C 17.822543 15.197031 17.767071 15.169063 17.712891 15.164062 C 17.427969 15.138064 17.031563 15.319966 16.917969 15.447266 C 16.896799 15.471266 16.814137 15.612481 16.832031 15.675781 C 16.864761 15.792081 17.079258 15.705306 17.136719 15.816406 C 17.123519 15.951406 16.977695 16.020125 16.863281 16.078125 C 16.756601 16.132125 16.621094 16.268319 16.505859 16.199219 C 16.460779 16.081819 16.634418 16.080769 16.591797 15.980469 C 16.560157 15.905469 16.423788 15.954814 16.363281 15.882812 C 16.278591 15.782514 16.378783 15.639634 16.351562 15.490234 C 16.473671 15.267534 16.944063 15.394181 17.070312 15.175781 C 17.052422 15.105781 16.983319 15.144094 16.929688 15.121094 C 16.869998 15.096094 16.859059 15.046922 16.798828 15.044922 C 16.743828 15.044922 16.670625 15.105859 16.603516 15.130859 C 16.526526 15.159859 16.449843 15.18375 16.396484 15.21875 C 16.275234 15.29775 16.22664 15.493631 16.080078 15.457031 C 16.047378 15.338731 16.216796 15.276928 16.199219 15.173828 C 16.163479 15.104828 16.065584 15.134578 15.992188 15.142578 C 15.785624 15.162578 15.63668 15.205106 15.556641 15.316406 C 15.485161 15.306406 15.387148 15.269125 15.339844 15.328125 C 15.387154 15.411125 15.482852 15.538841 15.589844 15.556641 C 15.665744 15.569641 15.743554 15.497641 15.818359 15.556641 C 15.837069 15.673241 15.682969 15.671056 15.677734 15.785156 C 15.674734 15.853156 15.763236 15.891784 15.753906 15.958984 C 15.740976 16.050984 15.496446 16.166628 15.404297 16.111328 C 15.405897 16.004328 15.548525 16.0368 15.546875 15.9375 C 15.546075 15.8965 15.475278 15.836325 15.425781 15.828125 C 15.335311 15.813125 15.194415 15.8766 15.132812 15.9375 C 15.081643 15.9885 15.084492 16.081247 15.023438 16.123047 C 14.926947 16.189047 14.797774 16.15325 14.685547 16.15625 C 14.46668 16.15625 14.340898 16.172797 14.185547 16.091797 C 14.139607 16.067797 14.04672 16.023819 14.054688 15.949219 C 14.226015 15.939219 14.389922 16.030187 14.587891 15.992188 C 14.659141 15.978186 14.684839 15.913713 14.751953 15.882812 C 14.825393 15.848814 14.914414 15.882641 14.9375 15.806641 C 14.932 15.674341 14.774689 15.715128 14.761719 15.611328 C 14.754319 15.553328 14.845745 15.426394 14.904297 15.371094 C 14.970317 15.309094 15.089063 15.29705 15.111328 15.21875 C 15.056878 15.10625 14.938437 15.230187 14.849609 15.242188 C 14.796559 15.252186 14.745665 15.231187 14.697266 15.242188 C 14.585899 15.267186 14.529374 15.365297 14.457031 15.404297 C 14.379491 15.390297 14.371637 15.310675 14.294922 15.296875 C 14.197262 15.370875 14.109649 15.319875 14.011719 15.296875 C 13.960309 15.284875 13.897617 15.284438 13.859375 15.273438 C 13.770825 15.247438 13.714414 15.143528 13.607422 15.111328 C 13.546372 15.093328 13.441562 15.110609 13.335938 15.099609 C 13.200236 15.076309 13.072991 15.040503 12.953125 15.033203 z M 30.923828 15.623047 C 30.868518 15.633047 30.822774 15.652297 30.78125 15.654297 C 30.74879 15.654297 30.684918 15.641531 30.662109 15.644531 C 30.597459 15.654531 30.535273 15.716187 30.466797 15.742188 C 30.352109 15.786186 30.21918 15.769875 30.095703 15.796875 C 29.977461 15.822875 29.877851 15.953903 29.769531 15.970703 C 29.690311 15.983703 29.554726 15.927906 29.519531 16.003906 C 29.498361 16.082906 29.581881 16.10245 29.550781 16.15625 C 29.480661 16.27805 29.307461 16.321753 29.212891 16.439453 C 29.187031 16.471453 29.183793 16.523494 29.158203 16.558594 C 29.126877 16.60111 29.080304 16.62683 29.048828 16.660156 C 29.155095 17.225653 29.251225 17.800891 29.318359 18.400391 C 29.360729 18.401973 29.400807 18.436827 29.464844 18.429688 C 29.542384 18.419688 29.610391 18.308144 29.681641 18.277344 C 29.821055 18.216344 29.932813 18.249366 29.955078 18.134766 C 29.967228 18.071766 29.915161 17.97695 29.931641 17.90625 C 29.968521 17.75005 30.260705 17.774397 30.248047 17.591797 C 30.240647 17.483397 30.012188 17.454762 29.986328 17.351562 C 29.969838 17.284562 30.00925 17.173213 30.03125 17.132812 C 30.12996 16.950713 30.445352 16.933956 30.542969 16.785156 C 30.588629 16.715156 30.586991 16.646028 30.619141 16.611328 C 30.66397 16.557928 30.754268 16.529991 30.845703 16.525391 L 30.845703 16.529297 C 30.937143 16.529297 31.029433 16.542891 31.076172 16.587891 C 31.076172 16.833191 30.585197 16.869806 30.574219 17.066406 C 30.571719 17.109406 30.609221 17.182353 30.619141 17.251953 C 30.628241 17.314953 30.617616 17.360931 30.628906 17.394531 C 30.664646 17.500631 30.812422 17.582644 30.923828 17.589844 C 31.184805 17.606844 31.574764 17.339356 31.804688 17.535156 C 31.704024 17.755156 31.344999 17.575216 31.085938 17.666016 C 31.034257 17.685016 31.001288 17.735906 30.955078 17.753906 C 30.892928 17.777906 30.781525 17.753563 30.78125 17.851562 C 30.83238 17.953563 30.915782 17.830125 30.978516 17.828125 C 31.048906 17.828125 31.14996 17.904588 31.140625 17.992188 C 31.119185 18.193487 30.943867 17.982188 30.826172 17.992188 C 30.654844 18.002187 30.617383 18.244334 30.650391 18.427734 C 30.572581 18.470734 30.483984 18.591762 30.378906 18.601562 C 30.313206 18.611562 30.26043 18.546109 30.171875 18.537109 C 29.97582 18.517109 29.792462 18.694753 29.605469 18.689453 C 29.530126 18.689453 29.448105 18.610948 29.333984 18.599609 C 29.396454 19.194213 29.445371 19.800054 29.476562 20.410156 C 29.489944 20.430538 29.504819 20.447703 29.529297 20.464844 C 29.572737 20.494844 29.632969 20.488531 29.681641 20.519531 C 29.738831 20.555531 29.76937 20.648625 29.833984 20.703125 C 29.925314 20.780125 30.086173 20.839091 30.214844 20.900391 C 30.335313 20.957391 30.529101 21.034772 30.552734 21.138672 C 30.565934 21.197672 30.535279 21.2616 30.542969 21.3125 C 30.552569 21.3775 30.597816 21.445381 30.628906 21.488281 C 30.713046 21.604281 30.831133 21.706956 30.923828 21.847656 C 30.921128 22.039156 30.992228 22.156759 31.207031 22.130859 C 31.284571 22.089859 31.243907 22.031297 31.304688 21.966797 C 31.361877 21.905797 31.489134 21.915272 31.490234 21.826172 C 31.491834 21.689472 31.164102 21.668097 31.207031 21.466797 C 31.219691 21.402797 31.290464 21.433594 31.347656 21.433594 C 31.440626 21.326294 31.634688 21.190622 31.761719 21.357422 C 31.816449 21.685422 31.921133 21.974744 32.154297 22.152344 C 32.319571 22.093344 32.389258 22.245797 32.544922 22.216797 C 32.620552 22.202797 32.65707 22.108756 32.730469 22.097656 C 32.863594 22.077656 32.954688 22.222681 33.080078 22.238281 C 33.284141 22.263281 33.433751 22.031244 33.634766 22.152344 C 33.644666 22.317644 33.695503 22.404584 33.689453 22.521484 C 33.685053 22.612484 33.609612 22.695706 33.570312 22.816406 C 33.513632 22.989906 33.550075 23.16075 33.384766 23.21875 C 33.160118 23.29775 33.026796 23.129578 32.818359 23.142578 C 32.71 23.152578 32.627501 23.256737 32.513672 23.273438 C 32.334376 23.300438 32.144258 23.144594 31.935547 23.121094 C 31.887147 23.111094 31.832891 23.131094 31.794922 23.121094 C 31.744612 23.108094 31.704565 23.052156 31.652344 23.035156 C 31.561834 23.006156 31.493516 23.023953 31.414062 23.001953 C 31.306797 22.812953 30.763243 22.799725 30.716797 23.078125 C 30.696127 23.200725 30.77805 23.373231 30.595703 23.394531 C 30.479922 23.408531 30.36375 23.276587 30.205078 23.242188 C 30.140198 23.228188 30.048633 23.23075 29.998047 23.21875 C 29.879258 23.17775 29.893282 23.062334 29.791016 22.990234 C 29.741028 22.955738 29.626292 22.917511 29.535156 22.898438 C 29.533101 23.008638 29.529963 23.120098 29.529297 23.228516 C 29.529293 23.229157 29.529301 23.229828 29.529297 23.230469 C 29.532822 23.341343 29.537109 23.452548 29.537109 23.5625 C 29.537109 25.702887 29.449073 28.126466 29.041016 30.277344 C 29.189726 30.45605 29.25853 30.667773 29.365234 30.900391 C 29.405384 30.987391 29.484403 31.123044 29.486328 31.214844 C 29.487728 31.282844 29.446795 31.343609 29.453125 31.412109 C 29.466875 31.558109 29.556876 31.6216 29.572266 31.75 C 29.608006 32.0528 29.334844 32.143678 29.279297 32.392578 C 29.266147 32.451578 29.279928 32.513006 29.267578 32.566406 C 29.248868 32.647406 29.193471 32.706703 29.181641 32.783203 C 29.169811 32.861203 29.150773 33.008691 29.158203 33.087891 C 29.169223 33.204491 29.29418 33.313216 29.355469 33.416016 C 29.420669 33.525516 29.474062 33.710462 29.550781 33.851562 C 29.593401 33.929562 29.664064 33.994794 29.681641 34.058594 C 29.704461 34.141594 29.681509 34.251264 29.693359 34.351562 C 29.702959 34.432562 29.746793 34.504914 29.757812 34.570312 C 29.791642 34.770812 29.80004 34.969519 29.900391 35.136719 C 29.950191 35.220719 30.039765 35.2691 30.107422 35.375 C 30.171212 35.475 30.196253 35.612775 30.259766 35.734375 C 30.326056 35.860875 30.411009 35.947978 30.412109 36.017578 C 30.412909 36.076578 30.355772 36.138725 30.357422 36.203125 C 30.361822 36.370625 30.5425 36.538516 30.683594 36.541016 C 30.747114 36.541016 30.810429 36.487562 30.878906 36.476562 C 30.919056 36.466563 30.960661 36.486562 31 36.476562 C 31.06766 36.465564 31.122695 36.417156 31.173828 36.410156 C 31.256858 36.397674 31.337756 36.409955 31.419922 36.417969 C 32.055089 36.004206 32.659892 35.547685 33.216797 35.037109 C 33.229796 34.995954 33.252607 34.948461 33.253906 34.929688 C 33.258906 34.863687 33.218952 34.816359 33.232422 34.755859 C 33.276992 34.556459 33.675 34.59455 33.753906 34.40625 C 33.826796 34.23185 33.786751 34.000644 33.744141 33.839844 C 33.728161 33.778844 33.671134 33.685747 33.677734 33.623047 C 33.689024 33.514647 33.865743 33.413841 33.994141 33.306641 C 34.071721 33.241641 34.136172 33.145444 34.212891 33.089844 C 34.323164 33.009844 34.47918 32.992381 34.582031 32.925781 C 34.676641 32.864781 34.835703 32.696109 34.876953 32.599609 C 34.923713 32.490109 34.876774 32.401803 34.865234 32.283203 C 34.847064 32.096503 34.878714 31.882409 34.865234 31.662109 C 34.75332 31.564109 34.710039 31.397047 34.648438 31.248047 C 34.667417 31.124247 34.692033 31.028109 34.658203 30.912109 C 34.638403 30.844109 34.580546 30.802228 34.572266 30.736328 C 34.550546 30.563828 34.674414 30.480069 34.734375 30.355469 C 34.787695 30.244669 34.818755 30.133866 34.865234 30.072266 C 34.924064 29.994266 35.034492 29.956453 35.105469 29.876953 C 35.154969 29.821953 35.177032 29.745187 35.224609 29.679688 C 35.347812 29.510587 35.52875 29.328772 35.703125 29.201172 C 35.791135 29.137172 35.886758 29.100709 35.964844 29.037109 C 36.043474 28.973109 36.10961 28.900913 36.183594 28.820312 C 36.314766 28.677013 36.483593 28.504778 36.564453 28.330078 C 36.590033 28.275078 36.585702 28.20955 36.607422 28.15625 C 36.678122 27.98185 36.83207 27.838431 36.890625 27.644531 C 36.901095 27.609531 36.901099 27.565538 36.912109 27.523438 C 36.943709 27.404537 37.024023 27.265478 36.912109 27.142578 C 36.809804 27.110578 36.719062 27.224186 36.585938 27.242188 C 36.445157 27.261188 36.316445 27.252391 36.205078 27.275391 C 36.139338 27.289391 36.089257 27.339609 36.03125 27.349609 C 35.9941 27.359609 35.944692 27.339609 35.900391 27.349609 C 35.812691 27.362609 35.739102 27.421016 35.681641 27.416016 C 35.541641 27.402016 35.460547 27.241497 35.376953 27.154297 C 35.389573 27.089297 35.440265 27.066187 35.421875 26.992188 C 35.407545 26.935187 35.3259 26.924294 35.267578 26.871094 C 35.168598 26.780094 35.082812 26.652759 34.962891 26.568359 C 34.829258 26.474359 34.647187 26.413138 34.582031 26.273438 C 34.537461 26.178437 34.536443 26.035947 34.472656 25.935547 C 34.394256 25.812647 34.205352 25.737475 34.167969 25.609375 C 34.128909 25.475975 34.165639 25.3833 34.136719 25.25 C 34.093829 25.0509 33.87707 24.996919 33.808594 24.824219 C 33.789884 24.777219 33.794384 24.717275 33.777344 24.671875 C 33.731684 24.549275 33.636837 24.432819 33.570312 24.324219 C 33.497422 24.204919 33.429063 24.085859 33.384766 23.943359 C 33.429056 23.886359 33.524453 23.878234 33.613281 23.865234 C 33.783789 24.007434 33.940468 24.186572 34.048828 24.388672 C 34.075788 24.438672 34.081641 24.505734 34.113281 24.552734 C 34.160821 24.623734 34.247538 24.656678 34.289062 24.705078 C 34.344062 24.768078 34.398477 24.852994 34.419922 24.933594 C 34.432842 24.982594 34.416246 25.033156 34.429688 25.097656 C 34.479447 25.333356 34.73543 25.430241 34.865234 25.619141 C 34.903704 25.675141 34.919885 25.744269 34.953125 25.792969 C 35.021095 25.892969 35.132344 25.948706 35.160156 26.066406 C 35.153056 26.124406 35.067576 26.105881 35.072266 26.175781 C 35.106096 26.262781 35.198789 26.287994 35.246094 26.371094 C 35.338784 26.533894 35.352188 26.763866 35.431641 26.947266 C 35.600235 27.046266 35.754101 26.876725 35.921875 26.828125 C 35.974645 26.813125 36.032344 26.818641 36.085938 26.806641 C 36.153866 26.789641 36.220391 26.73775 36.292969 26.71875 C 36.328479 26.70875 36.367894 26.718984 36.400391 26.708984 C 36.480661 26.679984 36.536211 26.598641 36.628906 26.556641 C 36.773242 26.490641 36.943672 26.490681 37.042969 26.425781 C 37.138399 26.363781 37.138161 26.248366 37.216797 26.197266 C 37.336953 26.119266 37.476172 26.141291 37.621094 26.087891 C 37.694764 26.060891 37.73793 25.987847 37.806641 25.935547 C 37.862771 25.892547 37.93082 25.850522 37.990234 25.794922 C 38.009024 25.777589 38.025017 25.761877 38.048828 25.744141 C 38.101706 25.408111 38.156322 25.073282 38.189453 24.732422 C 38.127423 24.720792 38.067351 24.721929 38.023438 24.705078 C 37.945628 24.674078 37.879727 24.608584 37.837891 24.521484 C 37.796951 24.436484 37.836167 24.367816 37.71875 24.291016 C 37.516641 24.466216 37.385977 24.715425 36.933594 24.640625 C 36.835164 24.597625 36.878048 24.413753 36.835938 24.314453 C 36.787818 24.263453 36.697423 24.323734 36.652344 24.302734 C 36.584964 24.071434 36.36039 24.006084 36.238281 23.833984 C 36.201171 23.780984 36.108398 23.653184 36.117188 23.583984 C 36.130116 23.484984 36.269688 23.431641 36.357422 23.431641 C 36.60875 23.431641 36.639139 23.768106 36.804688 23.878906 C 36.872346 23.923906 36.958983 23.955931 37.054688 24.019531 C 37.189453 24.109531 37.355313 24.195991 37.554688 24.150391 C 37.648747 24.128391 37.705743 24.051219 37.806641 24.074219 C 37.891641 24.094219 37.910859 24.23675 37.958984 24.28125 C 38.010844 24.329729 38.10978 24.354855 38.210938 24.373047 C 38.23651 24.038167 38.263418 23.703414 38.269531 23.365234 C 38.202415 20.513616 37.559306 17.970839 36.4375 15.833984 C 36.308943 15.824303 36.178443 15.820322 36.052734 15.810547 C 36.002104 15.874547 36.166091 15.924341 36.095703 15.994141 C 36.053903 16.036141 35.949454 15.955172 35.888672 15.951172 C 35.802582 15.951172 35.730898 16.002578 35.626953 16.017578 C 35.583203 16.027578 35.527933 16.007578 35.474609 16.017578 C 35.408319 16.027578 35.35789 16.054828 35.3125 16.048828 C 35.22918 16.037828 35.180937 15.962891 35.115234 15.962891 C 35.062424 15.962591 34.996016 16.013344 34.931641 16.027344 C 34.881051 16.038344 34.825353 16.028063 34.789062 16.039062 C 34.739573 16.052063 34.686601 16.101 34.625 16.125 C 34.57305 16.145 34.513359 16.147969 34.472656 16.167969 C 34.371992 16.218969 34.351094 16.314614 34.244141 16.320312 C 34.197111 16.320312 34.108829 16.309656 34.070312 16.222656 C 34.063713 16.157656 34.128941 16.165197 34.113281 16.091797 C 34.081911 16.029797 33.879766 16.002078 33.841797 16.080078 C 33.765627 16.192278 33.909414 16.2553 33.896484 16.375 C 33.877224 16.385 33.863396 16.398969 33.853516 16.417969 C 33.655235 16.332969 33.492812 16.448544 33.363281 16.527344 C 33.347891 16.588344 33.356805 16.673253 33.296875 16.689453 C 33.143438 16.711453 33.01293 16.576603 32.904297 16.658203 C 32.886687 16.770103 33.046836 16.704714 33.025391 16.820312 C 32.782305 16.850312 32.516407 16.664369 32.513672 16.417969 C 32.692422 16.360969 32.918516 16.460938 33.089844 16.460938 C 33.192422 16.460938 33.433789 16.418491 33.427734 16.275391 C 33.422734 16.154391 33.153008 16.101794 33.025391 16.058594 C 32.872774 16.007594 32.700547 15.92525 32.544922 15.90625 C 32.494842 15.89625 32.442929 15.90625 32.392578 15.90625 C 32.251249 15.89225 32.139921 15.816641 32.033203 15.806641 C 31.961133 15.796641 31.898281 15.823641 31.849609 15.806641 C 31.752809 15.772641 31.760663 15.686997 31.685547 15.654297 C 31.542305 15.591297 31.379179 15.645531 31.207031 15.644531 C 31.103046 15.644531 31.003828 15.615047 30.923828 15.623047 z M 19.384766 15.634766 C 19.256123 16.049034 19.140164 16.479248 19.042969 16.929688 C 19.140896 16.479731 19.2554 16.048578 19.384766 15.634766 z M 34.476562 15.873047 L 34.476562 15.875 C 34.429572 15.875 34.380664 15.896078 34.396484 15.955078 C 34.418744 15.996078 34.513906 15.999797 34.548828 15.966797 C 34.568357 15.909097 34.523556 15.876847 34.476562 15.873047 z M 12.845703 15.931641 L 12.845703 15.935547 C 12.902153 15.925547 12.969218 15.971969 13.019531 16.042969 C 13.196914 16.061969 13.401328 16.020172 13.521484 16.076172 C 13.548164 16.130172 13.491408 16.160694 13.455078 16.183594 C 13.24582 16.030594 12.938984 16.271422 12.736328 16.107422 C 12.743475 15.989422 12.789258 15.937041 12.845703 15.931641 z M 18.292969 16.0625 L 18.292969 16.066406 C 18.187516 16.052406 18.044952 16.141397 18.0625 16.216797 C 18.09192 16.341997 18.401719 16.217141 18.378906 16.119141 C 18.35917 16.084541 18.328121 16.0671 18.292969 16.0625 z M 18.884766 16.332031 L 18.884766 16.335938 C 18.897536 16.335738 18.909775 16.335656 18.921875 16.347656 C 18.929575 16.402656 18.899293 16.419109 18.845703 16.412109 C 18.813498 16.368809 18.846475 16.332731 18.884766 16.332031 z M 28.933594 16.851562 C 28.985634 17.086734 29.021124 17.336963 29.060547 17.583984 C 29.016473 17.340824 28.985579 17.086563 28.933594 16.851562 z M 16.417969 17.013672 L 16.417969 17.017578 C 16.397039 17.017578 16.377801 17.029156 16.363281 17.035156 C 16.320671 17.061156 16.316484 17.101094 16.320312 17.121094 C 16.343673 17.236894 16.560769 17.137125 16.558594 17.078125 C 16.556961 17.029625 16.480771 17.007072 16.417969 17.013672 z M 11.505859 17.128906 L 11.505859 17.132812 C 11.566089 17.132812 11.619023 17.190469 11.669922 17.230469 C 11.654212 17.296469 11.567734 17.285641 11.505859 17.306641 C 11.401641 17.342641 11.250625 17.415912 11.082031 17.382812 C 11.090831 17.301813 11.218398 17.288834 11.310547 17.240234 C 11.389726 17.194534 11.426953 17.126106 11.505859 17.128906 z M 18.865234 17.994141 C 18.801327 18.392284 18.737148 18.785939 18.691406 19.199219 C 18.738433 18.787983 18.799286 18.38931 18.865234 17.994141 z M 29.228516 18.615234 C 29.295482 19.111809 29.344732 19.618213 29.386719 20.130859 C 29.345113 19.617778 29.297017 19.111114 29.230469 18.615234 C 29.229893 18.615481 29.229092 18.614988 29.228516 18.615234 z M 12.595703 18.75 C 12.621175 18.7441 12.641189 18.7448 12.658203 18.75 C 12.777299 18.787 12.702033 19.062606 12.595703 19.066406 C 12.426289 19.076406 12.459258 18.7818 12.595703 18.75 z M 13.898438 19.701172 C 13.922598 19.701172 13.944727 19.700938 13.966797 19.710938 C 14.065507 19.736937 14.326367 20.022834 14.109375 20.115234 C 14.088795 20.125234 13.789726 20.155484 13.738281 20.146484 C 13.662971 20.133484 13.619141 20.029125 13.542969 20.015625 C 13.392539 19.989625 13.189062 20.198044 13.085938 20.027344 C 13.112026 19.930344 13.221016 19.927284 13.335938 19.896484 C 13.514487 19.845684 13.729309 19.704572 13.898438 19.701172 z M 36.189453 20.074219 C 36.245913 20.074219 36.308505 20.086562 36.378906 20.101562 C 36.449026 20.142563 36.49696 20.316147 36.421875 20.373047 C 36.243672 20.363047 36.08953 20.437594 36.085938 20.558594 C 36.081837 20.705794 36.386289 20.865953 36.509766 20.939453 C 36.521056 21.007453 36.526909 21.080881 36.574219 21.113281 C 36.738087 21.051281 36.90317 21.147744 36.902344 21.277344 C 36.864414 21.364344 36.755352 21.277547 36.683594 21.310547 C 36.663244 21.310547 36.677374 21.34675 36.652344 21.34375 C 36.706214 21.61295 36.999804 21.641931 36.945312 22.019531 C 36.875743 22.091531 36.743711 22.130253 36.619141 22.126953 C 36.502266 22.126953 36.393711 22.036928 36.28125 21.986328 C 36.16793 21.935328 36.043711 21.9318 36.019531 21.8125 C 36.008241 21.7565 36.032384 21.603363 36.052734 21.539062 C 36.073084 21.473062 36.131916 21.461037 36.128906 21.398438 C 36.125106 21.324437 35.943828 21.1874 35.878906 21.125 C 35.787066 21.037 35.664765 20.970234 35.617188 20.865234 C 35.599877 20.826234 35.603514 20.768256 35.583984 20.722656 C 35.545774 20.633656 35.450234 20.594644 35.443359 20.527344 C 35.438359 20.480344 35.497026 20.387616 35.541016 20.353516 C 35.588866 20.316516 35.683984 20.272537 35.769531 20.210938 C 35.903162 20.113638 36.020069 20.065919 36.189453 20.074219 z M 33.634766 20.080078 L 33.634766 20.083984 C 33.688576 20.073984 33.740079 20.08405 33.777344 20.09375 C 33.863674 20.27385 33.644309 20.307856 33.646484 20.410156 C 33.648484 20.504156 33.938907 20.591872 34.015625 20.638672 C 34.14793 20.719672 34.283164 20.778003 34.396484 20.845703 C 34.546054 20.934703 34.681795 21.184881 34.386719 21.238281 C 34.283321 21.256281 34.10539 21.261766 34.005859 21.259766 C 33.704726 21.249766 33.481251 21.026716 33.134766 21.041016 C 33.055546 21.041016 32.984922 21.064937 32.927734 21.085938 C 32.834224 21.120938 32.76918 21.198897 32.6875 21.216797 C 32.586289 21.238797 32.429335 21.190797 32.349609 21.216797 C 32.250309 21.249797 32.239883 21.485119 32.044922 21.324219 C 32.034172 21.222719 32.168594 21.267194 32.175781 21.183594 C 32.168581 21.102594 32.066836 21.059144 32.056641 20.964844 C 32.045391 20.857844 32.15012 20.814359 32.1875 20.693359 C 32.19935 20.654359 32.185976 20.610884 32.197266 20.583984 C 32.216246 20.539984 32.271994 20.514444 32.306641 20.464844 C 32.372071 20.370844 32.440195 20.184022 32.568359 20.169922 C 32.690468 20.156922 32.757617 20.261812 32.861328 20.257812 C 32.933088 20.355812 32.968202 20.520116 33.101562 20.541016 C 33.213515 20.559016 33.3425 20.458122 33.449219 20.419922 C 33.423359 20.320922 33.310898 20.373897 33.296875 20.279297 C 33.278506 20.152697 33.473327 20.088578 33.634766 20.080078 z M 14.380859 20.232422 L 14.380859 20.234375 C 14.431719 20.244375 14.493085 20.295781 14.554688 20.300781 C 14.612966 20.300781 14.661523 20.269297 14.697266 20.279297 C 14.788276 20.303297 14.825777 20.440412 14.740234 20.507812 C 14.669024 20.517812 14.641525 20.476328 14.587891 20.486328 C 14.439961 20.511328 14.383983 20.800616 14.273438 20.791016 C 14.16918 20.781016 14.112893 20.528725 14.21875 20.453125 C 14.22285 20.387125 14.170508 20.3772 14.173828 20.3125 C 14.205745 20.2681 14.293984 20.225022 14.380859 20.232422 z M 13.890625 20.265625 L 13.890625 20.269531 C 13.920955 20.269531 13.945761 20.279063 13.957031 20.289062 C 13.942461 20.405162 13.849415 20.398925 13.759766 20.453125 C 13.604922 20.547125 13.516055 20.689072 13.466797 20.888672 C 13.452497 20.947672 13.300274 21.099384 13.226562 21.083984 C 13.053869 21.047984 13.275123 20.730041 13.314453 20.681641 C 13.357893 20.627641 13.415391 20.579478 13.466797 20.517578 C 13.516567 20.457578 13.549535 20.37705 13.597656 20.34375 C 13.650245 20.30515 13.799634 20.262125 13.890625 20.265625 z M 37.621094 20.330078 L 37.621094 20.333984 C 37.753895 20.300984 37.928476 20.583087 37.751953 20.617188 C 37.631758 20.637187 37.44754 20.373578 37.621094 20.330078 z M 15.181641 20.658203 L 15.181641 20.662109 C 15.236911 20.662109 15.283946 20.670406 15.306641 20.691406 C 15.271171 20.835206 14.96293 20.799647 14.849609 20.748047 C 14.857009 20.694047 14.942427 20.677922 15.013672 20.669922 C 15.06414 20.662122 15.126368 20.657103 15.181641 20.658203 z M 29.492188 20.767578 C 29.498564 20.91879 29.497181 21.069336 29.501953 21.220703 C 29.507193 21.222457 29.512481 21.224256 29.517578 21.226562 C 29.658945 21.290563 29.938672 21.502025 29.943359 21.640625 C 29.945759 21.709625 29.877932 21.762372 29.888672 21.826172 C 29.995625 21.843172 30.114451 21.726141 30.117188 21.619141 C 30.118887 21.552141 30.04953 21.516012 30.0625 21.445312 C 30.11254 21.337514 30.259571 21.445344 30.324219 21.402344 C 30.311839 21.280544 30.144961 21.268278 30.041016 21.205078 C 29.984926 21.171078 29.946956 21.100072 29.888672 21.076172 C 29.804262 21.042172 29.71418 21.051 29.648438 21 C 29.586838 20.953 29.556876 20.841931 29.496094 20.769531 C 29.4952 20.768465 29.493133 20.768603 29.492188 20.767578 z M 29.443359 20.804688 C 29.451322 20.903662 29.459108 21.002549 29.466797 21.101562 C 29.461426 21.001342 29.449513 20.904644 29.443359 20.804688 z M 14.474609 20.921875 L 14.474609 20.925781 C 14.511769 20.925781 14.549191 20.926359 14.587891 20.943359 C 14.487539 21.027359 14.379179 21.074406 14.207031 21.128906 C 14.124261 21.154906 13.98082 21.188703 13.966797 21.095703 C 13.949487 20.982403 14.088439 21.006094 14.164062 20.996094 C 14.259161 20.980894 14.363137 20.925475 14.474609 20.921875 z M 29.568359 21.826172 L 29.568359 21.830078 C 29.547674 21.830078 29.532551 21.835704 29.515625 21.839844 C 29.516766 21.903071 29.52059 21.966129 29.521484 22.029297 C 29.590458 22.055578 29.667314 22.073325 29.748047 22.087891 C 29.812387 22.039891 29.816293 21.930956 29.845703 21.847656 C 29.767465 21.845356 29.665293 21.829872 29.568359 21.826172 z M 33.169922 22.378906 L 33.169922 22.382812 C 33.113002 22.392812 33.061056 22.421797 33.058594 22.466797 C 33.100664 22.570997 33.295157 22.510828 33.308594 22.423828 C 33.288516 22.380428 33.226846 22.369406 33.169922 22.378906 z M 9.7167969 23.853516 C 9.7167969 24.293228 9.7372122 24.730572 9.7734375 25.164062 C 9.7405196 24.729635 9.7167969 24.293243 9.7167969 23.853516 z M 14.710938 27.476562 L 14.710938 27.480469 C 14.784558 27.490469 14.79408 27.640044 14.71875 27.652344 C 14.63734 27.665344 14.596828 27.524881 14.675781 27.488281 C 14.688836 27.479081 14.700419 27.475762 14.710938 27.476562 z M 33.484375 29.490234 L 33.484375 29.494141 C 33.560285 29.494141 33.623003 29.532728 33.634766 29.611328 C 33.649066 29.706328 33.562228 29.785728 33.525391 29.861328 C 33.491831 29.930328 33.501174 29.992991 33.427734 30.025391 C 33.294921 30.035391 33.187421 30.0145 33.144531 29.9375 C 33.184411 29.8352 33.136046 29.755197 33.166016 29.654297 C 33.193683 29.557697 33.35786 29.482434 33.484375 29.490234 z M 32.675781 30.492188 L 32.708984 30.492188 C 32.798944 30.546188 32.753941 30.665025 32.775391 30.765625 C 32.793791 30.851625 32.904496 30.902422 32.861328 30.982422 C 32.709425 30.963083 32.598282 30.670851 32.675781 30.492188 z M 33.65625 31.777344 L 33.677734 31.777344 C 33.791328 31.831344 33.728084 32.056619 33.677734 32.136719 C 33.556238 32.083866 33.607779 31.868601 33.65625 31.777344 z M 15.441406 36.394531 C 15.441416 36.39524 15.441397 36.395776 15.441406 36.396484 C 15.446879 36.400907 15.453504 36.403789 15.458984 36.408203 C 15.45321 36.403551 15.447173 36.399193 15.441406 36.394531 z M 16.431641 37.119141 C 16.453496 37.133631 16.474147 37.149695 16.496094 37.164062 C 16.474211 37.14959 16.453433 37.133736 16.431641 37.119141 z "
       transform="translate(0,1004.3622)"
       id="path34" />
    <path
       style="fill:url(#linearGradient4237);fill-opacity:1"
       d="M 24.005859 8.5996094 C 21.125683 8.5996094 18.542821 9.3188656 16.396484 10.634766 C 12.416633 13.048152 9.9173474 17.491236 9.734375 23.183594 C 12.220066 24.551825 15.216337 25.564713 18.533203 26.103516 C 18.488817 25.210828 18.462891 24.327931 18.462891 23.492188 C 18.463675 17.667987 19.405482 11.322266 24.003906 11.322266 L 24.003906 11.320312 C 28.601741 11.320312 29.537109 17.7365 29.537109 23.5625 C 29.537109 24.37693 29.515677 25.234935 29.478516 26.101562 C 32.791781 25.562101 35.784357 24.548911 38.267578 23.181641 C 38.093498 17.782294 35.832561 13.505996 32.203125 11.021484 C 29.946428 9.4612844 27.154866 8.5996094 24.005859 8.5996094 z "
       transform="translate(0,1004.3622)"
       id="path4226" />
    <path
       style="fill:#000000;fill-opacity:0.3137255"
       d="m 24.003906,1014.8833 c -4.598424,0 -5.540231,6.3457 -5.541015,12.1699 0,0.1434 0.0068,0.2995 0.0078,0.4453 0.03921,-5.7242 1.027852,-11.8144 5.533203,-11.8144 l 0,-0 c 4.510552,0 5.489597,6.1733 5.525391,11.9082 8.88e-4,-0.1526 0.0078,-0.3148 0.0078,-0.4648 C 29.537109,1021.2995 28.601741,1014.8833 24.003906,1014.8833 z m 14.267578,12.8144 c -0.131446,8.0242 -5.798812,15.2637 -14.271484,15.2637 -8.464113,0 -14.1300012,-7.229 -14.2695312,-15.2461 -0.00399,0.1668 -0.013672,0.3312 -0.013672,0.5 0,8.1368 5.7127801,15.5469 14.2832031,15.5469 8.572778,0 14.283203,-7.4101 14.283203,-15.5469 C 38.283203,1028.0406 38.275759,1027.8703 38.271484,1027.6977 Z"
       id="path4245"
       inkscape:connector-curvature="0" />
    <path
       style="fill:#ffffff;fill-opacity:0.23529412"
       d="M 24.005859 8.5996094 C 21.125683 8.5996094 18.542821 9.3188656 16.396484 10.634766 C 12.261103 13.142466 9.7167969 17.838116 9.7167969 23.853516 C 9.7167969 23.903967 9.7222177 23.953513 9.7226562 24.003906 C 9.7924978 18.10892 12.318787 13.507877 16.396484 11.035156 C 18.542821 9.7192563 21.125683 9 24.005859 9 C 27.154866 9 29.946428 9.861675 32.203125 11.421875 C 35.924857 13.969567 38.208419 18.399115 38.277344 23.994141 C 38.277727 23.94701 38.283203 23.900696 38.283203 23.853516 C 38.283202 18.135272 35.982495 13.608632 32.203125 11.021484 C 29.946428 9.4612844 27.154866 8.5996094 24.005859 8.5996094 z M 18.466797 23.714844 C 18.466593 23.773885 18.462899 23.833637 18.462891 23.892578 C 18.462891 29.289078 19.103943 36.583984 24.060547 36.583984 C 29.016954 36.583984 29.537109 29.359091 29.537109 23.962891 C 29.537109 23.907915 29.533372 23.85195 29.533203 23.796875 C 29.518079 29.166261 28.947536 36.183594 24.060547 36.183594 C 19.16983 36.183594 18.484246 29.087824 18.466797 23.714844 z "
       transform="translate(0,1004.3622)"
       id="path4410" />
  </g>
</svg>
