<?xml version="1.0" encoding="UTF-8" standalone="no"?>
<!-- Created with Inkscape (http://www.inkscape.org/) -->

<svg
   xmlns:dc="http://purl.org/dc/elements/1.1/"
   xmlns:cc="http://creativecommons.org/ns#"
   xmlns:rdf="http://www.w3.org/1999/02/22-rdf-syntax-ns#"
   xmlns:svg="http://www.w3.org/2000/svg"
   xmlns="http://www.w3.org/2000/svg"
   xmlns:xlink="http://www.w3.org/1999/xlink"
   xmlns:sodipodi="http://sodipodi.sourceforge.net/DTD/sodipodi-0.dtd"
   xmlns:inkscape="http://www.inkscape.org/namespaces/inkscape"
   width="48"
   height="48"
   id="svg2"
   version="1.1"
   inkscape:version="0.48+devel r12487"
   sodipodi:docname="opera-next-browser.svg"
   inkscape:export-filename="/home/uri/Iconos/NITRUX/apps/512/opera-next-browser.png"
   inkscape:export-xdpi="960"
   inkscape:export-ydpi="960">
  <defs
     id="defs4">
    <linearGradient
       inkscape:collect="always"
       id="linearGradient4104">
      <stop
         style="stop-color:#9ec6f1;stop-opacity:1"
         offset="0"
         id="stop4106" />
      <stop
         style="stop-color:#f7fbfd;stop-opacity:1"
         offset="1"
         id="stop4108" />
    </linearGradient>
    <linearGradient
       id="linearGradient4098"
       inkscape:collect="always">
      <stop
         id="stop4100"
         offset="0"
         style="stop-color:#185ea8;stop-opacity:1" />
      <stop
         id="stop4102"
         offset="1"
         style="stop-color:#46adda;stop-opacity:1" />
    </linearGradient>
    <linearGradient
       gradientTransform="translate(44.5,-19.250009)"
       gradientUnits="userSpaceOnUse"
       y2="-985.11591"
       x2="-12.953899"
       y1="-1033.1511"
       x1="-12.953899"
       id="linearGradient977"
       xlink:href="#linearGradient4098"
       inkscape:collect="always" />
    <linearGradient
       gradientTransform="translate(-9.9999995e-8,1.87e-5)"
       y2="1013.045"
       x2="32.737537"
       y1="1043.8168"
       x1="32.737537"
       gradientUnits="userSpaceOnUse"
       id="linearGradient4457"
       xlink:href="#linearGradient4104"
       inkscape:collect="always" />
  </defs>
  <sodipodi:namedview
     id="base"
     pagecolor="#ffffff"
     bordercolor="#666666"
     borderopacity="1.0"
     inkscape:pageopacity="0.0"
     inkscape:pageshadow="2"
     inkscape:zoom="2.3786059"
     inkscape:cx="25.760098"
     inkscape:cy="-17.36536"
     inkscape:document-units="px"
     inkscape:current-layer="layer1"
     showgrid="false"
     inkscape:window-width="1366"
     inkscape:window-height="718"
     inkscape:window-x="0"
     inkscape:window-y="30"
     inkscape:window-maximized="1" />
  <metadata
     id="metadata7">
    <rdf:RDF>
      <cc:Work
         rdf:about="">
        <dc:format>image/svg+xml</dc:format>
        <dc:type
           rdf:resource="http://purl.org/dc/dcmitype/StillImage" />
        <dc:title />
      </cc:Work>
    </rdf:RDF>
  </metadata>
  <g
     inkscape:label="Capa 1"
     inkscape:groupmode="layer"
     id="layer1"
     transform="translate(0,-1004.3622)">
    <g
       inkscape:label="Capa 1"
       id="layer1-9"
       transform="translate(0,8.691406e-6)">
      <rect
         style="fill:url(#linearGradient977);fill-opacity:1;stroke:none"
         id="rect2991-1"
         width="48"
         height="48"
         x="5e-07"
         y="-1052.3622"
         ry="1.9445436"
         transform="scale(1,-1)" />
      <path
         inkscape:connector-curvature="0"
         style="fill:#000000;fill-opacity:1;stroke:none"
         d="m -5e-7,1049.3622 0,1.0625 c 0,1.0773 0.860223,1.9375 1.9375,1.9375 l 44.1250005,0 c 1.077277,0 1.9375,-0.8602 1.9375,-1.9375 l 0,-1.0625 c 0,1.0773 -0.860223,1.9375 -1.9375,1.9375 l -44.1250005,0 C 0.8602225,1051.2997 -5e-7,1050.4395 -5e-7,1049.3622 Z"
         id="rect846-2" />
      <path
         inkscape:connector-curvature="0"
         style="fill:#ffffff;fill-opacity:0.5372549;stroke:none"
         d="m 2.5312495,1005.0185 c -0.917089,0 -1.671147,0.6395 -1.84375,1.5 0.335612,-0.2799 0.774512,-0.4375 1.25,-0.4375 l 44.1250005,0 c 0.475487,0 0.914388,0.1576 1.25,0.4375 -0.172604,-0.8605 -0.926663,-1.5 -1.843751,-1.5 L 2.5312495,1005.0185 Z"
         id="path7515" />
      <path
         inkscape:connector-curvature="0"
         style="fill:#000000;fill-opacity:0.39215686;stroke:none"
         d="m 1.9374995,1004.3622 c -1.077277,0 -1.9375,0.8602 -1.9375,1.9375 l 0,43.0625 c 0,0.7934 0.480024,1.449 1.15625,1.75 -0.309342,-0.3333 -0.5,-0.7824 -0.5,-1.2812 l 0,-42.9375 c 0,-1.0482 0.826899,-1.875 1.875,-1.875 l 42.9374995,0 c 1.048101,0 1.875001,0.8268 1.875001,1.875 l 0,42.9375 c 0,0.4988 -0.190659,0.9479 -0.5,1.2812 0.676225,-0.301 1.15625,-0.9566 1.15625,-1.75 l 0,-43.0625 c 0,-1.0773 -0.860224,-1.9375 -1.9375,-1.9375 L 1.9374995,1004.3622 Z"
         id="rect4280-1" />
      <path
         style="color:#000000;fill:#ffffff;fill-opacity:0.11764706;fill-rule:nonzero;stroke:none;stroke-width:0.5;marker:none;visibility:visible;display:inline;overflow:visible;enable-background:accumulate"
         d="M 1.9375,0 C 1.7018456,0 1.4899259,0.04887973 1.28125,0.125 l 0.34375,0 0,1.5 -1.5,0 0,-0.34375 C 0.04887973,1.4899259 0,1.7018456 0,1.9375 l 0,44.125 c 0,0.235654 0.04887973,0.447574 0.125,0.65625 l 0,-0.34375 1.5,0 0,1.5 -0.34375,0 C 1.4899259,47.95112 1.7018456,48 1.9375,48 l 44.125,0 c 0.235654,0 0.447574,-0.04888 0.65625,-0.125 l -0.34375,0 0,-1.5 1.5,0 0,0.34375 C 47.95112,46.510074 48,46.298154 48,46.0625 L 48,1.9375 C 48,1.7018456 47.95112,1.4899259 47.875,1.28125 l 0,0.34375 -1.5,0 0,-1.5 0.34375,0 C 46.510074,0.04887973 46.298154,0 46.0625,0 L 1.9375,0 Z M 2,0.125 l 1.46875,0 0,1.5 L 2,1.625 2,0.125 z m 1.8125,0 1.5,0 0,1.5 -1.5,0 L 3.8125,0.125 z m 1.875,0 1.4375,0 0,1.5 -1.4375,0 L 5.6875,0.125 z m 1.84375,0 1.5,0 0,1.5 -1.5,0 L 7.53125,0.125 z m 1.84375,0 1.46875,0 0,1.5 -1.46875,0 L 9.375,0.125 z m 1.875,0 1.5,0 0,1.5 -1.5,0 L 11.25,0.125 z m 1.84375,0 1.5,0 0,1.5 -1.5,0 L 13.09375,0.125 z m 1.84375,0 1.46875,0 0,1.5 -1.46875,0 L 14.9375,0.125 z m 1.84375,0 1.5,0 0,1.5 -1.5,0 L 16.78125,0.125 z m 1.84375,0 1.46875,0 0,1.5 -1.46875,0 L 18.625,0.125 z m 1.8125,0 1.5,0 0,1.5 -1.5,0 L 20.4375,0.125 z m 1.90625,0 1.5,0 0,1.5 -1.5,0 L 22.34375,0.125 z m 1.84375,0 1.46875,0 0,1.5 -1.46875,0 L 24.1875,0.125 z m 1.875,0 1.5,0 0,1.5 -1.5,0 L 26.0625,0.125 z m 1.84375,0 1.46875,0 0,1.5 -1.46875,0 L 27.90625,0.125 z m 1.8125,0 1.5,0 0,1.5 -1.5,0 L 29.71875,0.125 z m 1.875,0 1.46875,0 0,1.5 -1.46875,0 L 31.59375,0.125 z m 1.8125,0 1.5,0 0,1.5 -1.5,0 L 33.40625,0.125 z m 1.84375,0 1.5,0 0,1.5 -1.5,0 L 35.25,0.125 z m 1.90625,0 1.46875,0 0,1.5 -1.46875,0 L 37.15625,0.125 z m 1.8125,0 1.5,0 0,1.5 -1.5,0 L 38.96875,0.125 z m 1.90625,0 1.4375,0 0,1.5 -1.4375,0 L 40.875,0.125 z m 1.8125,0 1.5,0 0,1.5 -1.5,0 L 42.6875,0.125 z m 1.84375,0 1.46875,0 0,1.5 -1.46875,0 L 44.53125,0.125 Z M 0.125,2 l 1.5,0 0,1.46875 -1.5,0 L 0.125,2 Z M 2,2 l 1.46875,0 0,1.46875 L 2,3.46875 2,2 z m 1.8125,0 1.5,0 0,1.46875 -1.5,0 L 3.8125,2 z m 1.875,0 1.4375,0 0,1.46875 -1.4375,0 L 5.6875,2 z m 1.84375,0 1.5,0 0,1.46875 -1.5,0 L 7.53125,2 z m 1.84375,0 1.46875,0 0,1.46875 -1.46875,0 L 9.375,2 z m 1.875,0 1.5,0 0,1.46875 -1.5,0 L 11.25,2 z m 1.84375,0 1.5,0 0,1.46875 -1.5,0 L 13.09375,2 z m 1.84375,0 1.46875,0 0,1.46875 -1.46875,0 L 14.9375,2 z m 1.84375,0 1.5,0 0,1.46875 -1.5,0 L 16.78125,2 z m 1.84375,0 1.46875,0 0,1.46875 -1.46875,0 L 18.625,2 z m 1.8125,0 1.5,0 0,1.46875 -1.5,0 L 20.4375,2 z m 1.90625,0 1.5,0 0,1.46875 -1.5,0 L 22.34375,2 z m 1.84375,0 1.46875,0 0,1.46875 -1.46875,0 L 24.1875,2 z m 1.875,0 1.5,0 0,1.46875 -1.5,0 L 26.0625,2 z m 1.84375,0 1.46875,0 0,1.46875 -1.46875,0 L 27.90625,2 z m 1.8125,0 1.5,0 0,1.46875 -1.5,0 L 29.71875,2 z m 1.875,0 1.46875,0 0,1.46875 -1.46875,0 L 31.59375,2 z m 1.8125,0 1.5,0 0,1.46875 -1.5,0 L 33.40625,2 z m 1.84375,0 1.5,0 0,1.46875 -1.5,0 L 35.25,2 z m 1.90625,0 1.46875,0 0,1.46875 -1.46875,0 L 37.15625,2 z m 1.8125,0 1.5,0 0,1.46875 -1.5,0 L 38.96875,2 z m 1.90625,0 1.4375,0 0,1.46875 -1.4375,0 L 40.875,2 z m 1.8125,0 1.5,0 0,1.46875 -1.5,0 L 42.6875,2 Z M 44.53125,2 46,2 l 0,1.46875 -1.46875,0 L 44.53125,2 z m 1.84375,0 1.5,0 0,1.46875 -1.5,0 L 46.375,2 z m -46.25,1.8125 1.5,0 0,1.5 -1.5,0 L 0.125,3.8125 z m 1.875,0 1.46875,0 0,1.5 L 2,5.3125 2,3.8125 z m 1.8125,0 1.5,0 0,1.5 -1.5,0 L 3.8125,3.8125 z m 1.875,0 1.4375,0 0,1.5 -1.4375,0 L 5.6875,3.8125 z m 1.84375,0 1.5,0 0,1.5 -1.5,0 L 7.53125,3.8125 z m 1.84375,0 1.46875,0 0,1.5 -1.46875,0 L 9.375,3.8125 z m 1.875,0 1.5,0 0,1.5 -1.5,0 L 11.25,3.8125 z m 1.84375,0 1.5,0 0,1.5 -1.5,0 L 13.09375,3.8125 z m 1.84375,0 1.46875,0 0,1.5 -1.46875,0 L 14.9375,3.8125 z m 1.84375,0 1.5,0 0,1.5 -1.5,0 L 16.78125,3.8125 z m 1.84375,0 1.46875,0 0,1.5 -1.46875,0 L 18.625,3.8125 z m 1.8125,0 1.5,0 0,1.5 -1.5,0 L 20.4375,3.8125 z m 1.90625,0 1.5,0 0,1.5 -1.5,0 L 22.34375,3.8125 z m 1.84375,0 1.46875,0 0,1.5 -1.46875,0 L 24.1875,3.8125 z m 1.875,0 1.5,0 0,1.5 -1.5,0 L 26.0625,3.8125 z m 1.84375,0 1.46875,0 0,1.5 -1.46875,0 L 27.90625,3.8125 z m 1.8125,0 1.5,0 0,1.5 -1.5,0 L 29.71875,3.8125 z m 1.875,0 1.46875,0 0,1.5 -1.46875,0 L 31.59375,3.8125 z m 1.8125,0 1.5,0 0,1.5 -1.5,0 L 33.40625,3.8125 z m 1.84375,0 1.5,0 0,1.5 -1.5,0 L 35.25,3.8125 z m 1.90625,0 1.46875,0 0,1.5 -1.46875,0 L 37.15625,3.8125 z m 1.8125,0 1.5,0 0,1.5 -1.5,0 L 38.96875,3.8125 z m 1.90625,0 1.4375,0 0,1.5 -1.4375,0 L 40.875,3.8125 z m 1.8125,0 1.5,0 0,1.5 -1.5,0 L 42.6875,3.8125 z m 1.84375,0 1.46875,0 0,1.5 -1.46875,0 L 44.53125,3.8125 z m 1.84375,0 1.5,0 0,1.5 -1.5,0 L 46.375,3.8125 z m -46.25,1.875 1.5,0 0,1.4375 -1.5,0 L 0.125,5.6875 z m 1.875,0 1.46875,0 0,1.4375 L 2,7.125 2,5.6875 z m 1.8125,0 1.5,0 0,1.4375 -1.5,0 L 3.8125,5.6875 z m 1.875,0 1.4375,0 0,1.4375 -1.4375,0 L 5.6875,5.6875 z m 1.84375,0 1.5,0 0,1.4375 -1.5,0 L 7.53125,5.6875 z m 1.84375,0 1.46875,0 0,1.4375 -1.46875,0 L 9.375,5.6875 z m 1.875,0 1.5,0 0,1.4375 -1.5,0 L 11.25,5.6875 z m 1.84375,0 1.5,0 0,1.4375 -1.5,0 L 13.09375,5.6875 z m 1.84375,0 1.46875,0 0,1.4375 -1.46875,0 L 14.9375,5.6875 z m 1.84375,0 1.5,0 0,1.4375 -1.5,0 L 16.78125,5.6875 z m 1.84375,0 1.46875,0 0,1.4375 -1.46875,0 L 18.625,5.6875 z m 1.8125,0 1.5,0 0,1.4375 -1.5,0 L 20.4375,5.6875 z m 1.90625,0 1.5,0 0,1.4375 -1.5,0 L 22.34375,5.6875 z m 1.84375,0 1.46875,0 0,1.4375 -1.46875,0 L 24.1875,5.6875 z m 1.875,0 1.5,0 0,1.4375 -1.5,0 L 26.0625,5.6875 z m 1.84375,0 1.46875,0 0,1.4375 -1.46875,0 L 27.90625,5.6875 z m 1.8125,0 1.5,0 0,1.4375 -1.5,0 L 29.71875,5.6875 z m 1.875,0 1.46875,0 0,1.4375 -1.46875,0 L 31.59375,5.6875 z m 1.8125,0 1.5,0 0,1.4375 -1.5,0 L 33.40625,5.6875 z m 1.84375,0 1.5,0 0,1.4375 -1.5,0 L 35.25,5.6875 z m 1.90625,0 1.46875,0 0,1.4375 -1.46875,0 L 37.15625,5.6875 z m 1.8125,0 1.5,0 0,1.4375 -1.5,0 L 38.96875,5.6875 z m 1.90625,0 1.4375,0 0,1.4375 -1.4375,0 L 40.875,5.6875 z m 1.8125,0 1.5,0 0,1.4375 -1.5,0 L 42.6875,5.6875 z m 1.84375,0 1.46875,0 0,1.4375 -1.46875,0 L 44.53125,5.6875 z m 1.84375,0 1.5,0 0,1.4375 -1.5,0 L 46.375,5.6875 z m -46.25,1.84375 1.5,0 0,1.5 -1.5,0 L 0.125,7.53125 z m 1.875,0 1.46875,0 0,1.5 L 2,9.03125 2,7.53125 z m 1.8125,0 1.5,0 0,1.5 -1.5,0 L 3.8125,7.53125 z m 1.875,0 1.4375,0 0,1.5 -1.4375,0 L 5.6875,7.53125 z m 1.84375,0 1.5,0 0,1.5 -1.5,0 L 7.53125,7.53125 z m 1.84375,0 1.46875,0 0,1.5 -1.46875,0 L 9.375,7.53125 z m 1.875,0 1.5,0 0,1.5 -1.5,0 L 11.25,7.53125 z m 1.84375,0 1.5,0 0,1.5 -1.5,0 L 13.09375,7.53125 z m 1.84375,0 1.46875,0 0,1.5 -1.46875,0 L 14.9375,7.53125 z m 1.84375,0 1.5,0 0,1.5 -1.5,0 L 16.78125,7.53125 z m 1.84375,0 1.46875,0 0,1.5 -1.46875,0 L 18.625,7.53125 z m 1.8125,0 1.5,0 0,1.5 -1.5,0 L 20.4375,7.53125 z m 1.90625,0 1.5,0 0,1.5 -1.5,0 L 22.34375,7.53125 z m 1.84375,0 1.46875,0 0,1.5 -1.46875,0 L 24.1875,7.53125 z m 1.875,0 1.5,0 0,1.5 -1.5,0 L 26.0625,7.53125 z m 1.84375,0 1.46875,0 0,1.5 -1.46875,0 L 27.90625,7.53125 z m 1.8125,0 1.5,0 0,1.5 -1.5,0 L 29.71875,7.53125 z m 1.875,0 1.46875,0 0,1.5 -1.46875,0 L 31.59375,7.53125 z m 1.8125,0 1.5,0 0,1.5 -1.5,0 L 33.40625,7.53125 z m 1.84375,0 1.5,0 0,1.5 -1.5,0 L 35.25,7.53125 z m 1.90625,0 1.46875,0 0,1.5 -1.46875,0 L 37.15625,7.53125 z m 1.8125,0 1.5,0 0,1.5 -1.5,0 L 38.96875,7.53125 z m 1.90625,0 1.4375,0 0,1.5 -1.4375,0 L 40.875,7.53125 z m 1.8125,0 1.5,0 0,1.5 -1.5,0 L 42.6875,7.53125 z m 1.84375,0 1.46875,0 0,1.5 -1.46875,0 L 44.53125,7.53125 z m 1.84375,0 1.5,0 0,1.5 -1.5,0 L 46.375,7.53125 Z M 0.125,9.375 l 1.5,0 0,1.46875 -1.5,0 L 0.125,9.375 z m 1.875,0 1.46875,0 0,1.46875 L 2,10.84375 2,9.375 z m 1.8125,0 1.5,0 0,1.46875 -1.5,0 L 3.8125,9.375 z m 1.875,0 1.4375,0 0,1.46875 -1.4375,0 L 5.6875,9.375 z m 1.84375,0 1.5,0 0,1.46875 -1.5,0 L 7.53125,9.375 z m 1.84375,0 1.46875,0 0,1.46875 -1.46875,0 L 9.375,9.375 z m 1.875,0 1.5,0 0,1.46875 -1.5,0 L 11.25,9.375 z m 1.84375,0 1.5,0 0,1.46875 -1.5,0 L 13.09375,9.375 z m 1.84375,0 1.46875,0 0,1.46875 -1.46875,0 L 14.9375,9.375 z m 1.84375,0 1.5,0 0,1.46875 -1.5,0 L 16.78125,9.375 z m 1.84375,0 1.46875,0 0,1.46875 -1.46875,0 L 18.625,9.375 z m 1.8125,0 1.5,0 0,1.46875 -1.5,0 L 20.4375,9.375 z m 1.90625,0 1.5,0 0,1.46875 -1.5,0 L 22.34375,9.375 z m 1.84375,0 1.46875,0 0,1.46875 -1.46875,0 L 24.1875,9.375 z m 1.875,0 1.5,0 0,1.46875 -1.5,0 L 26.0625,9.375 z m 1.84375,0 1.46875,0 0,1.46875 -1.46875,0 L 27.90625,9.375 z m 1.8125,0 1.5,0 0,1.46875 -1.5,0 L 29.71875,9.375 z m 1.875,0 1.46875,0 0,1.46875 -1.46875,0 L 31.59375,9.375 z m 1.8125,0 1.5,0 0,1.46875 -1.5,0 L 33.40625,9.375 z m 1.84375,0 1.5,0 0,1.46875 -1.5,0 L 35.25,9.375 z m 1.90625,0 1.46875,0 0,1.46875 -1.46875,0 L 37.15625,9.375 z m 1.8125,0 1.5,0 0,1.46875 -1.5,0 L 38.96875,9.375 z m 1.90625,0 1.4375,0 0,1.46875 -1.4375,0 L 40.875,9.375 z m 1.8125,0 1.5,0 0,1.46875 -1.5,0 L 42.6875,9.375 z m 1.84375,0 1.46875,0 0,1.46875 -1.46875,0 L 44.53125,9.375 z m 1.84375,0 1.5,0 0,1.46875 -1.5,0 L 46.375,9.375 z m -46.25,1.875 1.5,0 0,1.5 -1.5,0 L 0.125,11.25 z m 1.875,0 1.46875,0 0,1.5 L 2,12.75 2,11.25 z m 1.8125,0 1.5,0 0,1.5 -1.5,0 L 3.8125,11.25 z m 1.875,0 1.4375,0 0,1.5 -1.4375,0 L 5.6875,11.25 z m 1.84375,0 1.5,0 0,1.5 -1.5,0 L 7.53125,11.25 z m 1.84375,0 1.46875,0 0,1.5 -1.46875,0 L 9.375,11.25 z m 1.875,0 1.5,0 0,1.5 -1.5,0 L 11.25,11.25 z m 1.84375,0 1.5,0 0,1.5 -1.5,0 L 13.09375,11.25 z m 1.84375,0 1.46875,0 0,1.5 -1.46875,0 L 14.9375,11.25 z m 1.84375,0 1.5,0 0,1.5 -1.5,0 L 16.78125,11.25 z m 1.84375,0 1.46875,0 0,1.5 -1.46875,0 L 18.625,11.25 z m 1.8125,0 1.5,0 0,1.5 -1.5,0 L 20.4375,11.25 z m 1.90625,0 1.5,0 0,1.5 -1.5,0 L 22.34375,11.25 z m 1.84375,0 1.46875,0 0,1.5 -1.46875,0 L 24.1875,11.25 z m 1.875,0 1.5,0 0,1.5 -1.5,0 L 26.0625,11.25 z m 1.84375,0 1.46875,0 0,1.5 -1.46875,0 L 27.90625,11.25 z m 1.8125,0 1.5,0 0,1.5 -1.5,0 L 29.71875,11.25 z m 1.875,0 1.46875,0 0,1.5 -1.46875,0 L 31.59375,11.25 z m 1.8125,0 1.5,0 0,1.5 -1.5,0 L 33.40625,11.25 z m 1.84375,0 1.5,0 0,1.5 -1.5,0 L 35.25,11.25 z m 1.90625,0 1.46875,0 0,1.5 -1.46875,0 L 37.15625,11.25 z m 1.8125,0 1.5,0 0,1.5 -1.5,0 L 38.96875,11.25 z m 1.90625,0 1.4375,0 0,1.5 -1.4375,0 L 40.875,11.25 z m 1.8125,0 1.5,0 0,1.5 -1.5,0 L 42.6875,11.25 z m 1.84375,0 1.46875,0 0,1.5 -1.46875,0 L 44.53125,11.25 z m 1.84375,0 1.5,0 0,1.5 -1.5,0 L 46.375,11.25 z m -46.25,1.84375 1.5,0 0,1.5 -1.5,0 L 0.125,13.09375 z m 1.875,0 1.46875,0 0,1.5 L 2,14.59375 2,13.09375 z m 1.8125,0 1.5,0 0,1.5 -1.5,0 L 3.8125,13.09375 z m 1.875,0 1.4375,0 0,1.5 -1.4375,0 L 5.6875,13.09375 z m 1.84375,0 1.5,0 0,1.5 -1.5,0 L 7.53125,13.09375 z m 1.84375,0 1.46875,0 0,1.5 -1.46875,0 L 9.375,13.09375 z m 1.875,0 1.5,0 0,1.5 -1.5,0 L 11.25,13.09375 z m 1.84375,0 1.5,0 0,1.5 -1.5,0 L 13.09375,13.09375 z m 1.84375,0 1.46875,0 0,1.5 -1.46875,0 L 14.9375,13.09375 z m 1.84375,0 1.5,0 0,1.5 -1.5,0 L 16.78125,13.09375 z m 1.84375,0 1.46875,0 0,1.5 -1.46875,0 L 18.625,13.09375 z m 1.8125,0 1.5,0 0,1.5 -1.5,0 L 20.4375,13.09375 z m 1.90625,0 1.5,0 0,1.5 -1.5,0 L 22.34375,13.09375 z m 1.84375,0 1.46875,0 0,1.5 -1.46875,0 L 24.1875,13.09375 z m 1.875,0 1.5,0 0,1.5 -1.5,0 L 26.0625,13.09375 z m 1.84375,0 1.46875,0 0,1.5 -1.46875,0 L 27.90625,13.09375 z m 1.8125,0 1.5,0 0,1.5 -1.5,0 L 29.71875,13.09375 z m 1.875,0 1.46875,0 0,1.5 -1.46875,0 L 31.59375,13.09375 z m 1.8125,0 1.5,0 0,1.5 -1.5,0 L 33.40625,13.09375 z m 1.84375,0 1.5,0 0,1.5 -1.5,0 L 35.25,13.09375 z m 1.90625,0 1.46875,0 0,1.5 -1.46875,0 L 37.15625,13.09375 z m 1.8125,0 1.5,0 0,1.5 -1.5,0 L 38.96875,13.09375 z m 1.90625,0 1.4375,0 0,1.5 -1.4375,0 L 40.875,13.09375 z m 1.8125,0 1.5,0 0,1.5 -1.5,0 L 42.6875,13.09375 z m 1.84375,0 1.46875,0 0,1.5 -1.46875,0 L 44.53125,13.09375 z m 1.84375,0 1.5,0 0,1.5 -1.5,0 L 46.375,13.09375 z m -46.25,1.84375 1.5,0 0,1.46875 -1.5,0 L 0.125,14.9375 z m 1.875,0 1.46875,0 0,1.46875 L 2,16.40625 2,14.9375 z m 1.8125,0 1.5,0 0,1.46875 -1.5,0 L 3.8125,14.9375 z m 1.875,0 1.4375,0 0,1.46875 -1.4375,0 L 5.6875,14.9375 z m 1.84375,0 1.5,0 0,1.46875 -1.5,0 L 7.53125,14.9375 z m 1.84375,0 1.46875,0 0,1.46875 -1.46875,0 L 9.375,14.9375 z m 1.875,0 1.5,0 0,1.46875 -1.5,0 L 11.25,14.9375 z m 1.84375,0 1.5,0 0,1.46875 -1.5,0 L 13.09375,14.9375 z m 1.84375,0 1.46875,0 0,1.46875 -1.46875,0 L 14.9375,14.9375 z m 1.84375,0 1.5,0 0,1.46875 -1.5,0 L 16.78125,14.9375 z m 1.84375,0 1.46875,0 0,1.46875 -1.46875,0 L 18.625,14.9375 z m 1.8125,0 1.5,0 0,1.46875 -1.5,0 L 20.4375,14.9375 z m 1.90625,0 1.5,0 0,1.46875 -1.5,0 L 22.34375,14.9375 z m 1.84375,0 1.46875,0 0,1.46875 -1.46875,0 L 24.1875,14.9375 z m 1.875,0 1.5,0 0,1.46875 -1.5,0 L 26.0625,14.9375 z m 1.84375,0 1.46875,0 0,1.46875 -1.46875,0 L 27.90625,14.9375 z m 1.8125,0 1.5,0 0,1.46875 -1.5,0 L 29.71875,14.9375 z m 1.875,0 1.46875,0 0,1.46875 -1.46875,0 L 31.59375,14.9375 z m 1.8125,0 1.5,0 0,1.46875 -1.5,0 L 33.40625,14.9375 z m 1.84375,0 1.5,0 0,1.46875 -1.5,0 L 35.25,14.9375 z m 1.90625,0 1.46875,0 0,1.46875 -1.46875,0 L 37.15625,14.9375 z m 1.8125,0 1.5,0 0,1.46875 -1.5,0 L 38.96875,14.9375 z m 1.90625,0 1.4375,0 0,1.46875 -1.4375,0 L 40.875,14.9375 z m 1.8125,0 1.5,0 0,1.46875 -1.5,0 L 42.6875,14.9375 z m 1.84375,0 1.46875,0 0,1.46875 -1.46875,0 L 44.53125,14.9375 z m 1.84375,0 1.5,0 0,1.46875 -1.5,0 L 46.375,14.9375 z m -46.25,1.84375 1.5,0 0,1.5 -1.5,0 L 0.125,16.78125 z m 1.875,0 1.46875,0 0,1.5 L 2,18.28125 2,16.78125 z m 1.8125,0 1.5,0 0,1.5 -1.5,0 L 3.8125,16.78125 z m 1.875,0 1.4375,0 0,1.5 -1.4375,0 L 5.6875,16.78125 z m 1.84375,0 1.5,0 0,1.5 -1.5,0 L 7.53125,16.78125 z m 1.84375,0 1.46875,0 0,1.5 -1.46875,0 L 9.375,16.78125 z m 1.875,0 1.5,0 0,1.5 -1.5,0 L 11.25,16.78125 z m 1.84375,0 1.5,0 0,1.5 -1.5,0 L 13.09375,16.78125 z m 1.84375,0 1.46875,0 0,1.5 -1.46875,0 L 14.9375,16.78125 z m 1.84375,0 1.5,0 0,1.5 -1.5,0 L 16.78125,16.78125 z m 1.84375,0 1.46875,0 0,1.5 -1.46875,0 L 18.625,16.78125 z m 1.8125,0 1.5,0 0,1.5 -1.5,0 L 20.4375,16.78125 z m 1.90625,0 1.5,0 0,1.5 -1.5,0 L 22.34375,16.78125 z m 1.84375,0 1.46875,0 0,1.5 -1.46875,0 L 24.1875,16.78125 z m 1.875,0 1.5,0 0,1.5 -1.5,0 L 26.0625,16.78125 z m 1.84375,0 1.46875,0 0,1.5 -1.46875,0 L 27.90625,16.78125 z m 1.8125,0 1.5,0 0,1.5 -1.5,0 L 29.71875,16.78125 z m 1.875,0 1.46875,0 0,1.5 -1.46875,0 L 31.59375,16.78125 z m 1.8125,0 1.5,0 0,1.5 -1.5,0 L 33.40625,16.78125 z m 1.84375,0 1.5,0 0,1.5 -1.5,0 L 35.25,16.78125 z m 1.90625,0 1.46875,0 0,1.5 -1.46875,0 L 37.15625,16.78125 z m 1.8125,0 1.5,0 0,1.5 -1.5,0 L 38.96875,16.78125 z m 1.90625,0 1.4375,0 0,1.5 -1.4375,0 L 40.875,16.78125 z m 1.8125,0 1.5,0 0,1.5 -1.5,0 L 42.6875,16.78125 z m 1.84375,0 1.46875,0 0,1.5 -1.46875,0 L 44.53125,16.78125 z m 1.84375,0 1.5,0 0,1.5 -1.5,0 L 46.375,16.78125 z m -46.25,1.84375 1.5,0 0,1.46875 -1.5,0 L 0.125,18.625 z m 1.875,0 1.46875,0 0,1.46875 L 2,20.09375 2,18.625 z m 1.8125,0 1.5,0 0,1.46875 -1.5,0 L 3.8125,18.625 z m 1.875,0 1.4375,0 0,1.46875 -1.4375,0 L 5.6875,18.625 z m 1.84375,0 1.5,0 0,1.46875 -1.5,0 L 7.53125,18.625 z m 1.84375,0 1.46875,0 0,1.46875 -1.46875,0 L 9.375,18.625 z m 1.875,0 1.5,0 0,1.46875 -1.5,0 L 11.25,18.625 z m 1.84375,0 1.5,0 0,1.46875 -1.5,0 L 13.09375,18.625 z m 1.84375,0 1.46875,0 0,1.46875 -1.46875,0 L 14.9375,18.625 z m 1.84375,0 1.5,0 0,1.46875 -1.5,0 L 16.78125,18.625 z m 1.84375,0 1.46875,0 0,1.46875 -1.46875,0 L 18.625,18.625 z m 1.8125,0 1.5,0 0,1.46875 -1.5,0 L 20.4375,18.625 z m 1.90625,0 1.5,0 0,1.46875 -1.5,0 L 22.34375,18.625 z m 1.84375,0 1.46875,0 0,1.46875 -1.46875,0 L 24.1875,18.625 z m 1.875,0 1.5,0 0,1.46875 -1.5,0 L 26.0625,18.625 z m 1.84375,0 1.46875,0 0,1.46875 -1.46875,0 L 27.90625,18.625 z m 1.8125,0 1.5,0 0,1.46875 -1.5,0 L 29.71875,18.625 z m 1.875,0 1.46875,0 0,1.46875 -1.46875,0 L 31.59375,18.625 z m 1.8125,0 1.5,0 0,1.46875 -1.5,0 L 33.40625,18.625 z m 1.84375,0 1.5,0 0,1.46875 -1.5,0 L 35.25,18.625 z m 1.90625,0 1.46875,0 0,1.46875 -1.46875,0 L 37.15625,18.625 z m 1.8125,0 1.5,0 0,1.46875 -1.5,0 L 38.96875,18.625 z m 1.90625,0 1.4375,0 0,1.46875 -1.4375,0 L 40.875,18.625 z m 1.8125,0 1.5,0 0,1.46875 -1.5,0 L 42.6875,18.625 z m 1.84375,0 1.46875,0 0,1.46875 -1.46875,0 L 44.53125,18.625 z m 1.84375,0 1.5,0 0,1.46875 -1.5,0 L 46.375,18.625 z m -46.25,1.8125 1.5,0 0,1.5 -1.5,0 L 0.125,20.4375 z m 1.875,0 1.46875,0 0,1.5 L 2,21.9375 2,20.4375 z m 1.8125,0 1.5,0 0,1.5 -1.5,0 L 3.8125,20.4375 z m 1.875,0 1.4375,0 0,1.5 -1.4375,0 L 5.6875,20.4375 z m 1.84375,0 1.5,0 0,1.5 -1.5,0 L 7.53125,20.4375 z m 1.84375,0 1.46875,0 0,1.5 -1.46875,0 L 9.375,20.4375 z m 1.875,0 1.5,0 0,1.5 -1.5,0 L 11.25,20.4375 z m 1.84375,0 1.5,0 0,1.5 -1.5,0 L 13.09375,20.4375 z m 1.84375,0 1.46875,0 0,1.5 -1.46875,0 L 14.9375,20.4375 z m 1.84375,0 1.5,0 0,1.5 -1.5,0 L 16.78125,20.4375 z m 1.84375,0 1.46875,0 0,1.5 -1.46875,0 L 18.625,20.4375 z m 1.8125,0 1.5,0 0,1.5 -1.5,0 L 20.4375,20.4375 z m 1.90625,0 1.5,0 0,1.5 -1.5,0 L 22.34375,20.4375 z m 1.84375,0 1.46875,0 0,1.5 -1.46875,0 L 24.1875,20.4375 z m 1.875,0 1.5,0 0,1.5 -1.5,0 L 26.0625,20.4375 z m 1.84375,0 1.46875,0 0,1.5 -1.46875,0 L 27.90625,20.4375 z m 1.8125,0 1.5,0 0,1.5 -1.5,0 L 29.71875,20.4375 z m 1.875,0 1.46875,0 0,1.5 -1.46875,0 L 31.59375,20.4375 z m 1.8125,0 1.5,0 0,1.5 -1.5,0 L 33.40625,20.4375 z m 1.84375,0 1.5,0 0,1.5 -1.5,0 L 35.25,20.4375 z m 1.90625,0 1.46875,0 0,1.5 -1.46875,0 L 37.15625,20.4375 z m 1.8125,0 1.5,0 0,1.5 -1.5,0 L 38.96875,20.4375 z m 1.90625,0 1.4375,0 0,1.5 -1.4375,0 L 40.875,20.4375 z m 1.8125,0 1.5,0 0,1.5 -1.5,0 L 42.6875,20.4375 z m 1.84375,0 1.46875,0 0,1.5 -1.46875,0 L 44.53125,20.4375 z m 1.84375,0 1.5,0 0,1.5 -1.5,0 L 46.375,20.4375 z m -46.25,1.90625 1.5,0 0,1.5 -1.5,0 L 0.125,22.34375 z m 1.875,0 1.46875,0 0,1.5 L 2,23.84375 2,22.34375 z m 1.8125,0 1.5,0 0,1.5 -1.5,0 L 3.8125,22.34375 z m 1.875,0 1.4375,0 0,1.5 -1.4375,0 L 5.6875,22.34375 z m 1.84375,0 1.5,0 0,1.5 -1.5,0 L 7.53125,22.34375 z m 1.84375,0 1.46875,0 0,1.5 -1.46875,0 L 9.375,22.34375 z m 1.875,0 1.5,0 0,1.5 -1.5,0 L 11.25,22.34375 z m 1.84375,0 1.5,0 0,1.5 -1.5,0 L 13.09375,22.34375 z m 1.84375,0 1.46875,0 0,1.5 -1.46875,0 L 14.9375,22.34375 z m 1.84375,0 1.5,0 0,1.5 -1.5,0 L 16.78125,22.34375 z m 1.84375,0 1.46875,0 0,1.5 -1.46875,0 L 18.625,22.34375 z m 1.8125,0 1.5,0 0,1.5 -1.5,0 L 20.4375,22.34375 z m 1.90625,0 1.5,0 0,1.5 -1.5,0 L 22.34375,22.34375 z m 1.84375,0 1.46875,0 0,1.5 -1.46875,0 L 24.1875,22.34375 z m 1.875,0 1.5,0 0,1.5 -1.5,0 L 26.0625,22.34375 z m 1.84375,0 1.46875,0 0,1.5 -1.46875,0 L 27.90625,22.34375 z m 1.8125,0 1.5,0 0,1.5 -1.5,0 L 29.71875,22.34375 z m 1.875,0 1.46875,0 0,1.5 -1.46875,0 L 31.59375,22.34375 z m 1.8125,0 1.5,0 0,1.5 -1.5,0 L 33.40625,22.34375 z m 1.84375,0 1.5,0 0,1.5 -1.5,0 L 35.25,22.34375 z m 1.90625,0 1.46875,0 0,1.5 -1.46875,0 L 37.15625,22.34375 z m 1.8125,0 1.5,0 0,1.5 -1.5,0 L 38.96875,22.34375 z m 1.90625,0 1.4375,0 0,1.5 -1.4375,0 L 40.875,22.34375 z m 1.8125,0 1.5,0 0,1.5 -1.5,0 L 42.6875,22.34375 z m 1.84375,0 1.46875,0 0,1.5 -1.46875,0 L 44.53125,22.34375 z m 1.84375,0 1.5,0 0,1.5 -1.5,0 L 46.375,22.34375 z m -46.25,1.84375 1.5,0 0,1.46875 -1.5,0 L 0.125,24.1875 z m 1.875,0 1.46875,0 0,1.46875 L 2,25.65625 2,24.1875 z m 1.8125,0 1.5,0 0,1.46875 -1.5,0 L 3.8125,24.1875 z m 1.875,0 1.4375,0 0,1.46875 -1.4375,0 L 5.6875,24.1875 z m 1.84375,0 1.5,0 0,1.46875 -1.5,0 L 7.53125,24.1875 z m 1.84375,0 1.46875,0 0,1.46875 -1.46875,0 L 9.375,24.1875 z m 1.875,0 1.5,0 0,1.46875 -1.5,0 L 11.25,24.1875 z m 1.84375,0 1.5,0 0,1.46875 -1.5,0 L 13.09375,24.1875 z m 1.84375,0 1.46875,0 0,1.46875 -1.46875,0 L 14.9375,24.1875 z m 1.84375,0 1.5,0 0,1.46875 -1.5,0 L 16.78125,24.1875 z m 1.84375,0 1.46875,0 0,1.46875 -1.46875,0 L 18.625,24.1875 z m 1.8125,0 1.5,0 0,1.46875 -1.5,0 L 20.4375,24.1875 z m 1.90625,0 1.5,0 0,1.46875 -1.5,0 L 22.34375,24.1875 z m 1.84375,0 1.46875,0 0,1.46875 -1.46875,0 L 24.1875,24.1875 z m 1.875,0 1.5,0 0,1.46875 -1.5,0 L 26.0625,24.1875 z m 1.84375,0 1.46875,0 0,1.46875 -1.46875,0 L 27.90625,24.1875 z m 1.8125,0 1.5,0 0,1.46875 -1.5,0 L 29.71875,24.1875 z m 1.875,0 1.46875,0 0,1.46875 -1.46875,0 L 31.59375,24.1875 z m 1.8125,0 1.5,0 0,1.46875 -1.5,0 L 33.40625,24.1875 z m 1.84375,0 1.5,0 0,1.46875 -1.5,0 L 35.25,24.1875 z m 1.90625,0 1.46875,0 0,1.46875 -1.46875,0 L 37.15625,24.1875 z m 1.8125,0 1.5,0 0,1.46875 -1.5,0 L 38.96875,24.1875 z m 1.90625,0 1.4375,0 0,1.46875 -1.4375,0 L 40.875,24.1875 z m 1.8125,0 1.5,0 0,1.46875 -1.5,0 L 42.6875,24.1875 z m 1.84375,0 1.46875,0 0,1.46875 -1.46875,0 L 44.53125,24.1875 z m 1.84375,0 1.5,0 0,1.46875 -1.5,0 L 46.375,24.1875 z m -46.25,1.875 1.5,0 0,1.5 -1.5,0 L 0.125,26.0625 z m 1.875,0 1.46875,0 0,1.5 L 2,27.5625 2,26.0625 z m 1.8125,0 1.5,0 0,1.5 -1.5,0 L 3.8125,26.0625 z m 1.875,0 1.4375,0 0,1.5 -1.4375,0 L 5.6875,26.0625 z m 1.84375,0 1.5,0 0,1.5 -1.5,0 L 7.53125,26.0625 z m 1.84375,0 1.46875,0 0,1.5 -1.46875,0 L 9.375,26.0625 z m 1.875,0 1.5,0 0,1.5 -1.5,0 L 11.25,26.0625 z m 1.84375,0 1.5,0 0,1.5 -1.5,0 L 13.09375,26.0625 z m 1.84375,0 1.46875,0 0,1.5 -1.46875,0 L 14.9375,26.0625 z m 1.84375,0 1.5,0 0,1.5 -1.5,0 L 16.78125,26.0625 z m 1.84375,0 1.46875,0 0,1.5 -1.46875,0 L 18.625,26.0625 z m 1.8125,0 1.5,0 0,1.5 -1.5,0 L 20.4375,26.0625 z m 1.90625,0 1.5,0 0,1.5 -1.5,0 L 22.34375,26.0625 z m 1.84375,0 1.46875,0 0,1.5 -1.46875,0 L 24.1875,26.0625 z m 1.875,0 1.5,0 0,1.5 -1.5,0 L 26.0625,26.0625 z m 1.84375,0 1.46875,0 0,1.5 -1.46875,0 L 27.90625,26.0625 z m 1.8125,0 1.5,0 0,1.5 -1.5,0 L 29.71875,26.0625 z m 1.875,0 1.46875,0 0,1.5 -1.46875,0 L 31.59375,26.0625 z m 1.8125,0 1.5,0 0,1.5 -1.5,0 L 33.40625,26.0625 z m 1.84375,0 1.5,0 0,1.5 -1.5,0 L 35.25,26.0625 z m 1.90625,0 1.46875,0 0,1.5 -1.46875,0 L 37.15625,26.0625 z m 1.8125,0 1.5,0 0,1.5 -1.5,0 L 38.96875,26.0625 z m 1.90625,0 1.4375,0 0,1.5 -1.4375,0 L 40.875,26.0625 z m 1.8125,0 1.5,0 0,1.5 -1.5,0 L 42.6875,26.0625 z m 1.84375,0 1.46875,0 0,1.5 -1.46875,0 L 44.53125,26.0625 z m 1.84375,0 1.5,0 0,1.5 -1.5,0 L 46.375,26.0625 z m -46.25,1.84375 1.5,0 0,1.46875 -1.5,0 L 0.125,27.90625 z m 1.875,0 1.46875,0 0,1.46875 L 2,29.375 2,27.90625 z m 1.8125,0 1.5,0 0,1.46875 -1.5,0 L 3.8125,27.90625 z m 1.875,0 1.4375,0 0,1.46875 -1.4375,0 L 5.6875,27.90625 z m 1.84375,0 1.5,0 0,1.46875 -1.5,0 L 7.53125,27.90625 z m 1.84375,0 1.46875,0 0,1.46875 -1.46875,0 L 9.375,27.90625 z m 1.875,0 1.5,0 0,1.46875 -1.5,0 L 11.25,27.90625 z m 1.84375,0 1.5,0 0,1.46875 -1.5,0 L 13.09375,27.90625 z m 1.84375,0 1.46875,0 0,1.46875 -1.46875,0 L 14.9375,27.90625 z m 1.84375,0 1.5,0 0,1.46875 -1.5,0 L 16.78125,27.90625 z m 1.84375,0 1.46875,0 0,1.46875 -1.46875,0 L 18.625,27.90625 z m 1.8125,0 1.5,0 0,1.46875 -1.5,0 L 20.4375,27.90625 z m 1.90625,0 1.5,0 0,1.46875 -1.5,0 L 22.34375,27.90625 z m 1.84375,0 1.46875,0 0,1.46875 -1.46875,0 L 24.1875,27.90625 z m 1.875,0 1.5,0 0,1.46875 -1.5,0 L 26.0625,27.90625 z m 1.84375,0 1.46875,0 0,1.46875 -1.46875,0 L 27.90625,27.90625 z m 1.8125,0 1.5,0 0,1.46875 -1.5,0 L 29.71875,27.90625 z m 1.875,0 1.46875,0 0,1.46875 -1.46875,0 L 31.59375,27.90625 z m 1.8125,0 1.5,0 0,1.46875 -1.5,0 L 33.40625,27.90625 z m 1.84375,0 1.5,0 0,1.46875 -1.5,0 L 35.25,27.90625 z m 1.90625,0 1.46875,0 0,1.46875 -1.46875,0 L 37.15625,27.90625 z m 1.8125,0 1.5,0 0,1.46875 -1.5,0 L 38.96875,27.90625 z m 1.90625,0 1.4375,0 0,1.46875 -1.4375,0 L 40.875,27.90625 z m 1.8125,0 1.5,0 0,1.46875 -1.5,0 L 42.6875,27.90625 z m 1.84375,0 1.46875,0 0,1.46875 -1.46875,0 L 44.53125,27.90625 z m 1.84375,0 1.5,0 0,1.46875 -1.5,0 L 46.375,27.90625 z m -46.25,1.8125 1.5,0 0,1.5 -1.5,0 L 0.125,29.71875 z m 1.875,0 1.46875,0 0,1.5 L 2,31.21875 2,29.71875 z m 1.8125,0 1.5,0 0,1.5 -1.5,0 L 3.8125,29.71875 z m 1.875,0 1.4375,0 0,1.5 -1.4375,0 L 5.6875,29.71875 z m 1.84375,0 1.5,0 0,1.5 -1.5,0 L 7.53125,29.71875 z m 1.84375,0 1.46875,0 0,1.5 -1.46875,0 L 9.375,29.71875 z m 1.875,0 1.5,0 0,1.5 -1.5,0 L 11.25,29.71875 z m 1.84375,0 1.5,0 0,1.5 -1.5,0 L 13.09375,29.71875 z m 1.84375,0 1.46875,0 0,1.5 -1.46875,0 L 14.9375,29.71875 z m 1.84375,0 1.5,0 0,1.5 -1.5,0 L 16.78125,29.71875 z m 1.84375,0 1.46875,0 0,1.5 -1.46875,0 L 18.625,29.71875 z m 1.8125,0 1.5,0 0,1.5 -1.5,0 L 20.4375,29.71875 z m 1.90625,0 1.5,0 0,1.5 -1.5,0 L 22.34375,29.71875 z m 1.84375,0 1.46875,0 0,1.5 -1.46875,0 L 24.1875,29.71875 z m 1.875,0 1.5,0 0,1.5 -1.5,0 L 26.0625,29.71875 z m 1.84375,0 1.46875,0 0,1.5 -1.46875,0 L 27.90625,29.71875 z m 1.8125,0 1.5,0 0,1.5 -1.5,0 L 29.71875,29.71875 z m 1.875,0 1.46875,0 0,1.5 -1.46875,0 L 31.59375,29.71875 z m 1.8125,0 1.5,0 0,1.5 -1.5,0 L 33.40625,29.71875 z m 1.84375,0 1.5,0 0,1.5 -1.5,0 L 35.25,29.71875 z m 1.90625,0 1.46875,0 0,1.5 -1.46875,0 L 37.15625,29.71875 z m 1.8125,0 1.5,0 0,1.5 -1.5,0 L 38.96875,29.71875 z m 1.90625,0 1.4375,0 0,1.5 -1.4375,0 L 40.875,29.71875 z m 1.8125,0 1.5,0 0,1.5 -1.5,0 L 42.6875,29.71875 z m 1.84375,0 1.46875,0 0,1.5 -1.46875,0 L 44.53125,29.71875 z m 1.84375,0 1.5,0 0,1.5 -1.5,0 L 46.375,29.71875 z m -46.25,1.875 1.5,0 0,1.46875 -1.5,0 L 0.125,31.59375 z m 1.875,0 1.46875,0 0,1.46875 L 2,33.0625 2,31.59375 z m 1.8125,0 1.5,0 0,1.46875 -1.5,0 L 3.8125,31.59375 z m 1.875,0 1.4375,0 0,1.46875 -1.4375,0 L 5.6875,31.59375 z m 1.84375,0 1.5,0 0,1.46875 -1.5,0 L 7.53125,31.59375 z m 1.84375,0 1.46875,0 0,1.46875 -1.46875,0 L 9.375,31.59375 z m 1.875,0 1.5,0 0,1.46875 -1.5,0 L 11.25,31.59375 z m 1.84375,0 1.5,0 0,1.46875 -1.5,0 L 13.09375,31.59375 z m 1.84375,0 1.46875,0 0,1.46875 -1.46875,0 L 14.9375,31.59375 z m 1.84375,0 1.5,0 0,1.46875 -1.5,0 L 16.78125,31.59375 z m 1.84375,0 1.46875,0 0,1.46875 -1.46875,0 L 18.625,31.59375 z m 1.8125,0 1.5,0 0,1.46875 -1.5,0 L 20.4375,31.59375 z m 1.90625,0 1.5,0 0,1.46875 -1.5,0 L 22.34375,31.59375 z m 1.84375,0 1.46875,0 0,1.46875 -1.46875,0 L 24.1875,31.59375 z m 1.875,0 1.5,0 0,1.46875 -1.5,0 L 26.0625,31.59375 z m 1.84375,0 1.46875,0 0,1.46875 -1.46875,0 L 27.90625,31.59375 z m 1.8125,0 1.5,0 0,1.46875 -1.5,0 L 29.71875,31.59375 z m 1.875,0 1.46875,0 0,1.46875 -1.46875,0 L 31.59375,31.59375 z m 1.8125,0 1.5,0 0,1.46875 -1.5,0 L 33.40625,31.59375 z m 1.84375,0 1.5,0 0,1.46875 -1.5,0 L 35.25,31.59375 z m 1.90625,0 1.46875,0 0,1.46875 -1.46875,0 L 37.15625,31.59375 z m 1.8125,0 1.5,0 0,1.46875 -1.5,0 L 38.96875,31.59375 z m 1.90625,0 1.4375,0 0,1.46875 -1.4375,0 L 40.875,31.59375 z m 1.8125,0 1.5,0 0,1.46875 -1.5,0 L 42.6875,31.59375 z m 1.84375,0 1.46875,0 0,1.46875 -1.46875,0 L 44.53125,31.59375 z m 1.84375,0 1.5,0 0,1.46875 -1.5,0 L 46.375,31.59375 z m -46.25,1.8125 1.5,0 0,1.5 -1.5,0 L 0.125,33.40625 z m 1.875,0 1.46875,0 0,1.5 L 2,34.90625 2,33.40625 z m 1.8125,0 1.5,0 0,1.5 -1.5,0 L 3.8125,33.40625 z m 1.875,0 1.4375,0 0,1.5 -1.4375,0 L 5.6875,33.40625 z m 1.84375,0 1.5,0 0,1.5 -1.5,0 L 7.53125,33.40625 z m 1.84375,0 1.46875,0 0,1.5 -1.46875,0 L 9.375,33.40625 z m 1.875,0 1.5,0 0,1.5 -1.5,0 L 11.25,33.40625 z m 1.84375,0 1.5,0 0,1.5 -1.5,0 L 13.09375,33.40625 z m 1.84375,0 1.46875,0 0,1.5 -1.46875,0 L 14.9375,33.40625 z m 1.84375,0 1.5,0 0,1.5 -1.5,0 L 16.78125,33.40625 z m 1.84375,0 1.46875,0 0,1.5 -1.46875,0 L 18.625,33.40625 z m 1.8125,0 1.5,0 0,1.5 -1.5,0 L 20.4375,33.40625 z m 1.90625,0 1.5,0 0,1.5 -1.5,0 L 22.34375,33.40625 z m 1.84375,0 1.46875,0 0,1.5 -1.46875,0 L 24.1875,33.40625 z m 1.875,0 1.5,0 0,1.5 -1.5,0 L 26.0625,33.40625 z m 1.84375,0 1.46875,0 0,1.5 -1.46875,0 L 27.90625,33.40625 z m 1.8125,0 1.5,0 0,1.5 -1.5,0 L 29.71875,33.40625 z m 1.875,0 1.46875,0 0,1.5 -1.46875,0 L 31.59375,33.40625 z m 1.8125,0 1.5,0 0,1.5 -1.5,0 L 33.40625,33.40625 z m 1.84375,0 1.5,0 0,1.5 -1.5,0 L 35.25,33.40625 z m 1.90625,0 1.46875,0 0,1.5 -1.46875,0 L 37.15625,33.40625 z m 1.8125,0 1.5,0 0,1.5 -1.5,0 L 38.96875,33.40625 z m 1.90625,0 1.4375,0 0,1.5 -1.4375,0 L 40.875,33.40625 z m 1.8125,0 1.5,0 0,1.5 -1.5,0 L 42.6875,33.40625 z m 1.84375,0 1.46875,0 0,1.5 -1.46875,0 L 44.53125,33.40625 z m 1.84375,0 1.5,0 0,1.5 -1.5,0 L 46.375,33.40625 Z M 0.125,35.25 l 1.5,0 0,1.5 -1.5,0 L 0.125,35.25 z m 1.875,0 1.46875,0 0,1.5 L 2,36.75 2,35.25 z m 1.8125,0 1.5,0 0,1.5 -1.5,0 L 3.8125,35.25 z m 1.875,0 1.4375,0 0,1.5 -1.4375,0 L 5.6875,35.25 z m 1.84375,0 1.5,0 0,1.5 -1.5,0 L 7.53125,35.25 z m 1.84375,0 1.46875,0 0,1.5 -1.46875,0 L 9.375,35.25 z m 1.875,0 1.5,0 0,1.5 -1.5,0 L 11.25,35.25 z m 1.84375,0 1.5,0 0,1.5 -1.5,0 L 13.09375,35.25 z m 1.84375,0 1.46875,0 0,1.5 -1.46875,0 L 14.9375,35.25 z m 1.84375,0 1.5,0 0,1.5 -1.5,0 L 16.78125,35.25 z m 1.84375,0 1.46875,0 0,1.5 -1.46875,0 L 18.625,35.25 z m 1.8125,0 1.5,0 0,1.5 -1.5,0 L 20.4375,35.25 z m 1.90625,0 1.5,0 0,1.5 -1.5,0 L 22.34375,35.25 z m 1.84375,0 1.46875,0 0,1.5 -1.46875,0 L 24.1875,35.25 z m 1.875,0 1.5,0 0,1.5 -1.5,0 L 26.0625,35.25 z m 1.84375,0 1.46875,0 0,1.5 -1.46875,0 L 27.90625,35.25 z m 1.8125,0 1.5,0 0,1.5 -1.5,0 L 29.71875,35.25 z m 1.875,0 1.46875,0 0,1.5 -1.46875,0 L 31.59375,35.25 z m 1.8125,0 1.5,0 0,1.5 -1.5,0 L 33.40625,35.25 z m 1.84375,0 1.5,0 0,1.5 -1.5,0 L 35.25,35.25 z m 1.90625,0 1.46875,0 0,1.5 -1.46875,0 L 37.15625,35.25 z m 1.8125,0 1.5,0 0,1.5 -1.5,0 L 38.96875,35.25 z m 1.90625,0 1.4375,0 0,1.5 -1.4375,0 L 40.875,35.25 z m 1.8125,0 1.5,0 0,1.5 -1.5,0 L 42.6875,35.25 z m 1.84375,0 1.46875,0 0,1.5 -1.46875,0 L 44.53125,35.25 z m 1.84375,0 1.5,0 0,1.5 -1.5,0 L 46.375,35.25 z m -46.25,1.90625 1.5,0 0,1.46875 -1.5,0 L 0.125,37.15625 z m 1.875,0 1.46875,0 0,1.46875 L 2,38.625 2,37.15625 z m 1.8125,0 1.5,0 0,1.46875 -1.5,0 L 3.8125,37.15625 z m 1.875,0 1.4375,0 0,1.46875 -1.4375,0 L 5.6875,37.15625 z m 1.84375,0 1.5,0 0,1.46875 -1.5,0 L 7.53125,37.15625 z m 1.84375,0 1.46875,0 0,1.46875 -1.46875,0 L 9.375,37.15625 z m 1.875,0 1.5,0 0,1.46875 -1.5,0 L 11.25,37.15625 z m 1.84375,0 1.5,0 0,1.46875 -1.5,0 L 13.09375,37.15625 z m 1.84375,0 1.46875,0 0,1.46875 -1.46875,0 L 14.9375,37.15625 z m 1.84375,0 1.5,0 0,1.46875 -1.5,0 L 16.78125,37.15625 z m 1.84375,0 1.46875,0 0,1.46875 -1.46875,0 L 18.625,37.15625 z m 1.8125,0 1.5,0 0,1.46875 -1.5,0 L 20.4375,37.15625 z m 1.90625,0 1.5,0 0,1.46875 -1.5,0 L 22.34375,37.15625 z m 1.84375,0 1.46875,0 0,1.46875 -1.46875,0 L 24.1875,37.15625 z m 1.875,0 1.5,0 0,1.46875 -1.5,0 L 26.0625,37.15625 z m 1.84375,0 1.46875,0 0,1.46875 -1.46875,0 L 27.90625,37.15625 z m 1.8125,0 1.5,0 0,1.46875 -1.5,0 L 29.71875,37.15625 z m 1.875,0 1.46875,0 0,1.46875 -1.46875,0 L 31.59375,37.15625 z m 1.8125,0 1.5,0 0,1.46875 -1.5,0 L 33.40625,37.15625 z m 1.84375,0 1.5,0 0,1.46875 -1.5,0 L 35.25,37.15625 z m 1.90625,0 1.46875,0 0,1.46875 -1.46875,0 L 37.15625,37.15625 z m 1.8125,0 1.5,0 0,1.46875 -1.5,0 L 38.96875,37.15625 z m 1.90625,0 1.4375,0 0,1.46875 -1.4375,0 L 40.875,37.15625 z m 1.8125,0 1.5,0 0,1.46875 -1.5,0 L 42.6875,37.15625 z m 1.84375,0 1.46875,0 0,1.46875 -1.46875,0 L 44.53125,37.15625 z m 1.84375,0 1.5,0 0,1.46875 -1.5,0 L 46.375,37.15625 z m -46.25,1.8125 1.5,0 0,1.5 -1.5,0 L 0.125,38.96875 z m 1.875,0 1.46875,0 0,1.5 L 2,40.46875 2,38.96875 z m 1.8125,0 1.5,0 0,1.5 -1.5,0 L 3.8125,38.96875 z m 1.875,0 1.4375,0 0,1.5 -1.4375,0 L 5.6875,38.96875 z m 1.84375,0 1.5,0 0,1.5 -1.5,0 L 7.53125,38.96875 z m 1.84375,0 1.46875,0 0,1.5 -1.46875,0 L 9.375,38.96875 z m 1.875,0 1.5,0 0,1.5 -1.5,0 L 11.25,38.96875 z m 1.84375,0 1.5,0 0,1.5 -1.5,0 L 13.09375,38.96875 z m 1.84375,0 1.46875,0 0,1.5 -1.46875,0 L 14.9375,38.96875 z m 1.84375,0 1.5,0 0,1.5 -1.5,0 L 16.78125,38.96875 z m 1.84375,0 1.46875,0 0,1.5 -1.46875,0 L 18.625,38.96875 z m 1.8125,0 1.5,0 0,1.5 -1.5,0 L 20.4375,38.96875 z m 1.90625,0 1.5,0 0,1.5 -1.5,0 L 22.34375,38.96875 z m 1.84375,0 1.46875,0 0,1.5 -1.46875,0 L 24.1875,38.96875 z m 1.875,0 1.5,0 0,1.5 -1.5,0 L 26.0625,38.96875 z m 1.84375,0 1.46875,0 0,1.5 -1.46875,0 L 27.90625,38.96875 z m 1.8125,0 1.5,0 0,1.5 -1.5,0 L 29.71875,38.96875 z m 1.875,0 1.46875,0 0,1.5 -1.46875,0 L 31.59375,38.96875 z m 1.8125,0 1.5,0 0,1.5 -1.5,0 L 33.40625,38.96875 z m 1.84375,0 1.5,0 0,1.5 -1.5,0 L 35.25,38.96875 z m 1.90625,0 1.46875,0 0,1.5 -1.46875,0 L 37.15625,38.96875 z m 1.8125,0 1.5,0 0,1.5 -1.5,0 L 38.96875,38.96875 z m 1.90625,0 1.4375,0 0,1.5 -1.4375,0 L 40.875,38.96875 z m 1.8125,0 1.5,0 0,1.5 -1.5,0 L 42.6875,38.96875 z m 1.84375,0 1.46875,0 0,1.5 -1.46875,0 L 44.53125,38.96875 z m 1.84375,0 1.5,0 0,1.5 -1.5,0 L 46.375,38.96875 z m -46.25,1.90625 1.5,0 0,1.4375 -1.5,0 L 0.125,40.875 z m 1.875,0 1.46875,0 0,1.4375 L 2,42.3125 2,40.875 z m 1.8125,0 1.5,0 0,1.4375 -1.5,0 L 3.8125,40.875 z m 1.875,0 1.4375,0 0,1.4375 -1.4375,0 L 5.6875,40.875 z m 1.84375,0 1.5,0 0,1.4375 -1.5,0 L 7.53125,40.875 z m 1.84375,0 1.46875,0 0,1.4375 -1.46875,0 L 9.375,40.875 z m 1.875,0 1.5,0 0,1.4375 -1.5,0 L 11.25,40.875 z m 1.84375,0 1.5,0 0,1.4375 -1.5,0 L 13.09375,40.875 z m 1.84375,0 1.46875,0 0,1.4375 -1.46875,0 L 14.9375,40.875 z m 1.84375,0 1.5,0 0,1.4375 -1.5,0 L 16.78125,40.875 z m 1.84375,0 1.46875,0 0,1.4375 -1.46875,0 L 18.625,40.875 z m 1.8125,0 1.5,0 0,1.4375 -1.5,0 L 20.4375,40.875 z m 1.90625,0 1.5,0 0,1.4375 -1.5,0 L 22.34375,40.875 z m 1.84375,0 1.46875,0 0,1.4375 -1.46875,0 L 24.1875,40.875 z m 1.875,0 1.5,0 0,1.4375 -1.5,0 L 26.0625,40.875 z m 1.84375,0 1.46875,0 0,1.4375 -1.46875,0 L 27.90625,40.875 z m 1.8125,0 1.5,0 0,1.4375 -1.5,0 L 29.71875,40.875 z m 1.875,0 1.46875,0 0,1.4375 -1.46875,0 L 31.59375,40.875 z m 1.8125,0 1.5,0 0,1.4375 -1.5,0 L 33.40625,40.875 z m 1.84375,0 1.5,0 0,1.4375 -1.5,0 L 35.25,40.875 z m 1.90625,0 1.46875,0 0,1.4375 -1.46875,0 L 37.15625,40.875 z m 1.8125,0 1.5,0 0,1.4375 -1.5,0 L 38.96875,40.875 z m 1.90625,0 1.4375,0 0,1.4375 -1.4375,0 L 40.875,40.875 z m 1.8125,0 1.5,0 0,1.4375 -1.5,0 L 42.6875,40.875 z m 1.84375,0 1.46875,0 0,1.4375 -1.46875,0 L 44.53125,40.875 z m 1.84375,0 1.5,0 0,1.4375 -1.5,0 L 46.375,40.875 z m -46.25,1.8125 1.5,0 0,1.5 -1.5,0 L 0.125,42.6875 z m 1.875,0 1.46875,0 0,1.5 L 2,44.1875 2,42.6875 z m 1.8125,0 1.5,0 0,1.5 -1.5,0 L 3.8125,42.6875 z m 1.875,0 1.4375,0 0,1.5 -1.4375,0 L 5.6875,42.6875 z m 1.84375,0 1.5,0 0,1.5 -1.5,0 L 7.53125,42.6875 z m 1.84375,0 1.46875,0 0,1.5 -1.46875,0 L 9.375,42.6875 z m 1.875,0 1.5,0 0,1.5 -1.5,0 L 11.25,42.6875 z m 1.84375,0 1.5,0 0,1.5 -1.5,0 L 13.09375,42.6875 z m 1.84375,0 1.46875,0 0,1.5 -1.46875,0 L 14.9375,42.6875 z m 1.84375,0 1.5,0 0,1.5 -1.5,0 L 16.78125,42.6875 z m 1.84375,0 1.46875,0 0,1.5 -1.46875,0 L 18.625,42.6875 z m 1.8125,0 1.5,0 0,1.5 -1.5,0 L 20.4375,42.6875 z m 1.90625,0 1.5,0 0,1.5 -1.5,0 L 22.34375,42.6875 z m 1.84375,0 1.46875,0 0,1.5 -1.46875,0 L 24.1875,42.6875 z m 1.875,0 1.5,0 0,1.5 -1.5,0 L 26.0625,42.6875 z m 1.84375,0 1.46875,0 0,1.5 -1.46875,0 L 27.90625,42.6875 z m 1.8125,0 1.5,0 0,1.5 -1.5,0 L 29.71875,42.6875 z m 1.875,0 1.46875,0 0,1.5 -1.46875,0 L 31.59375,42.6875 z m 1.8125,0 1.5,0 0,1.5 -1.5,0 L 33.40625,42.6875 z m 1.84375,0 1.5,0 0,1.5 -1.5,0 L 35.25,42.6875 z m 1.90625,0 1.46875,0 0,1.5 -1.46875,0 L 37.15625,42.6875 z m 1.8125,0 1.5,0 0,1.5 -1.5,0 L 38.96875,42.6875 z m 1.90625,0 1.4375,0 0,1.5 -1.4375,0 L 40.875,42.6875 z m 1.8125,0 1.5,0 0,1.5 -1.5,0 L 42.6875,42.6875 z m 1.84375,0 1.46875,0 0,1.5 -1.46875,0 L 44.53125,42.6875 z m 1.84375,0 1.5,0 0,1.5 -1.5,0 L 46.375,42.6875 z m -46.25,1.84375 1.5,0 0,1.46875 -1.5,0 L 0.125,44.53125 z m 1.875,0 1.46875,0 0,1.46875 L 2,46 2,44.53125 z m 1.8125,0 1.5,0 0,1.46875 -1.5,0 L 3.8125,44.53125 z m 1.875,0 1.4375,0 L 7.125,46 5.6875,46 5.6875,44.53125 z m 1.84375,0 1.5,0 0,1.46875 -1.5,0 L 7.53125,44.53125 z m 1.84375,0 1.46875,0 0,1.46875 L 9.375,46 9.375,44.53125 z m 1.875,0 1.5,0 0,1.46875 -1.5,0 L 11.25,44.53125 z m 1.84375,0 1.5,0 0,1.46875 -1.5,0 L 13.09375,44.53125 z m 1.84375,0 1.46875,0 0,1.46875 L 14.9375,46 14.9375,44.53125 z m 1.84375,0 1.5,0 0,1.46875 -1.5,0 L 16.78125,44.53125 z m 1.84375,0 1.46875,0 0,1.46875 L 18.625,46 18.625,44.53125 z m 1.8125,0 1.5,0 0,1.46875 -1.5,0 L 20.4375,44.53125 z m 1.90625,0 1.5,0 0,1.46875 -1.5,0 L 22.34375,44.53125 z m 1.84375,0 1.46875,0 0,1.46875 L 24.1875,46 24.1875,44.53125 z m 1.875,0 1.5,0 0,1.46875 -1.5,0 L 26.0625,44.53125 z m 1.84375,0 1.46875,0 0,1.46875 -1.46875,0 L 27.90625,44.53125 z m 1.8125,0 1.5,0 0,1.46875 -1.5,0 L 29.71875,44.53125 z m 1.875,0 1.46875,0 0,1.46875 -1.46875,0 L 31.59375,44.53125 z m 1.8125,0 1.5,0 0,1.46875 -1.5,0 L 33.40625,44.53125 z m 1.84375,0 1.5,0 0,1.46875 -1.5,0 L 35.25,44.53125 z m 1.90625,0 1.46875,0 0,1.46875 -1.46875,0 L 37.15625,44.53125 z m 1.8125,0 1.5,0 0,1.46875 -1.5,0 L 38.96875,44.53125 z m 1.90625,0 1.4375,0 0,1.46875 L 40.875,46 40.875,44.53125 z m 1.8125,0 1.5,0 0,1.46875 -1.5,0 L 42.6875,44.53125 z m 1.84375,0 1.46875,0 L 46,46 44.53125,46 44.53125,44.53125 z m 1.84375,0 1.5,0 0,1.46875 -1.5,0 L 46.375,44.53125 Z M 2,46.375 l 1.46875,0 0,1.5 L 2,47.875 2,46.375 z m 1.8125,0 1.5,0 0,1.5 -1.5,0 L 3.8125,46.375 z m 1.875,0 1.4375,0 0,1.5 -1.4375,0 L 5.6875,46.375 z m 1.84375,0 1.5,0 0,1.5 -1.5,0 L 7.53125,46.375 z m 1.84375,0 1.46875,0 0,1.5 -1.46875,0 L 9.375,46.375 z m 1.875,0 1.5,0 0,1.5 -1.5,0 L 11.25,46.375 z m 1.84375,0 1.5,0 0,1.5 -1.5,0 L 13.09375,46.375 z m 1.84375,0 1.46875,0 0,1.5 -1.46875,0 L 14.9375,46.375 z m 1.84375,0 1.5,0 0,1.5 -1.5,0 L 16.78125,46.375 z m 1.84375,0 1.46875,0 0,1.5 -1.46875,0 L 18.625,46.375 z m 1.8125,0 1.5,0 0,1.5 -1.5,0 L 20.4375,46.375 z m 1.90625,0 1.5,0 0,1.5 -1.5,0 L 22.34375,46.375 z m 1.84375,0 1.46875,0 0,1.5 -1.46875,0 L 24.1875,46.375 z m 1.875,0 1.5,0 0,1.5 -1.5,0 L 26.0625,46.375 z m 1.84375,0 1.46875,0 0,1.5 -1.46875,0 L 27.90625,46.375 z m 1.8125,0 1.5,0 0,1.5 -1.5,0 L 29.71875,46.375 z m 1.875,0 1.46875,0 0,1.5 -1.46875,0 L 31.59375,46.375 z m 1.8125,0 1.5,0 0,1.5 -1.5,0 L 33.40625,46.375 z m 1.84375,0 1.5,0 0,1.5 -1.5,0 L 35.25,46.375 z m 1.90625,0 1.46875,0 0,1.5 -1.46875,0 L 37.15625,46.375 z m 1.8125,0 1.5,0 0,1.5 -1.5,0 L 38.96875,46.375 z m 1.90625,0 1.4375,0 0,1.5 -1.4375,0 L 40.875,46.375 z m 1.8125,0 1.5,0 0,1.5 -1.5,0 L 42.6875,46.375 z m 1.84375,0 1.46875,0 0,1.5 -1.46875,0 L 44.53125,46.375 Z"
         transform="translate(0,1004.3622)"
         id="path970"
         inkscape:connector-curvature="0" />
    </g>
    <path
       inkscape:connector-curvature="0"
       style="fill:#000000;fill-opacity:0.05882353"
       d="m 32.202815,1016.5835 c -2.256696,-1.5602 -5.048702,-2.4213 -8.197709,-2.4213 -2.880175,0 -5.461474,0.7195 -7.607811,2.0354 -4.135381,2.5077 -6.6809395,7.2021 -6.6809395,13.2175 0,8.1368 5.7126345,15.5471 14.2830575,15.5471 8.572778,0 14.284231,-7.4103 14.284231,-15.5471 C 38.283645,1023.6962 35.982174,1019.1708 32.202031,1016.5838 z m -8.198886,0.2996 c 4.597834,0 5.532953,6.4158 5.532953,12.2418 0,5.3962 -0.520188,12.6214 -5.476594,12.6214 -4.956605,0 -5.597364,-7.2956 -5.597364,-12.6921 C 18.463708,1023.23 19.40629,1016.8841 24.004715,1016.8841 Z"
       id="path4278" />
    <path
       id="path4276"
       d="m 32.202815,1016.1835 c -2.256696,-1.5602 -5.048702,-2.4213 -8.197709,-2.4213 -2.880175,0 -5.461474,0.7195 -7.607811,2.0354 -4.135381,2.5077 -6.6809395,7.2021 -6.6809395,13.2175 0,8.1368 5.7126345,15.5471 14.2830575,15.5471 8.572778,0 14.284231,-7.4103 14.284231,-15.5471 C 38.283645,1023.2962 35.982174,1018.7708 32.202031,1016.1838 z m -8.198886,0.2996 c 4.597834,0 5.532953,6.4158 5.532953,12.2418 0,5.3962 -0.520188,12.6214 -5.476594,12.6214 -4.956605,0 -5.597364,-7.2956 -5.597364,-12.6921 C 18.463708,1022.83 19.40629,1016.4841 24.004715,1016.4841 Z"
       style="fill:#000000;fill-opacity:0.11764706"
       inkscape:connector-curvature="0" />
    <path
       inkscape:connector-curvature="0"
       style="fill:#000000;fill-opacity:0.23529412"
       d="m 32.202815,1015.7835 c -2.256696,-1.5602 -5.048702,-2.4213 -8.197709,-2.4213 -2.880175,0 -5.461474,0.7195 -7.607811,2.0354 -4.135381,2.5077 -6.6809395,7.2021 -6.6809395,13.2175 0,8.1368 5.7126345,15.5471 14.2830575,15.5471 8.572778,0 14.284231,-7.4103 14.284231,-15.5471 C 38.283645,1022.8962 35.982174,1018.3708 32.202031,1015.7838 z m -8.198886,0.2996 c 4.597834,0 5.532953,6.4158 5.532953,12.2418 0,5.3962 -0.520188,12.6214 -5.476594,12.6214 -4.956605,0 -5.597364,-7.2956 -5.597364,-12.6921 C 18.463708,1022.43 19.40629,1016.0841 24.004715,1016.0841 Z"
       id="path4272" />
    <path
       id="path4222"
       d="m 32.202815,1015.3835 c -2.256696,-1.5602 -5.048702,-2.4213 -8.197709,-2.4213 -2.880175,0 -5.461474,0.7195 -7.607811,2.0354 -4.135381,2.5077 -6.6809395,7.2021 -6.6809395,13.2175 0,8.1368 5.7126345,15.5471 14.2830575,15.5471 8.572778,0 14.284231,-7.4103 14.284231,-15.5471 C 38.283645,1022.4962 35.982174,1017.9708 32.202031,1015.3838 z m -8.198886,0.2996 c 4.597834,0 5.532953,6.4158 5.532953,12.2418 0,5.3962 -0.520188,12.6214 -5.476594,12.6214 -4.956605,0 -5.597364,-7.2956 -5.597364,-12.6921 C 18.463708,1022.03 19.40629,1015.6841 24.004715,1015.6841 Z"
       style="fill:url(#linearGradient4457);fill-opacity:1"
       inkscape:connector-curvature="0" />
    <path
       style="fill:#ffffff;fill-opacity:0.23529412"
       d="m 24.005859,1012.9622 c -2.880175,0 -5.463038,0.7193 -7.609375,2.0352 -4.135381,2.5077 -6.6796871,7.2033 -6.6796871,13.2187 0,0.05 0.00542,0.1 0.00586,0.1504 0.069842,-5.895 2.5961308,-10.496 6.6738278,-12.9688 2.146337,-1.3159 4.7292,-2.0351 7.609375,-2.0351 3.149007,0 5.94057,0.8617 8.197266,2.4219 3.721732,2.5477 6.005296,6.9772 6.074219,12.5722 3.83e-4,-0.047 0.0059,-0.093 0.0059,-0.1406 10e-7,-5.7182 -2.300708,-10.2449 -6.080078,-12.832 C 29.946429,1013.8239 27.154866,1012.9622 24.005859,1012.9622 z m -5.539062,15.1152 c -2.04e-4,0.059 -0.0039,0.1188 -0.0039,0.1778 0,5.3965 0.641051,12.6914 5.597656,12.6914 4.956406,0 5.476562,-7.2249 5.476562,-12.6211 0,-0.055 -0.0037,-0.111 -0.0039,-0.166 -0.01512,5.3694 -0.585668,12.3867 -5.472656,12.3867 C 19.169829,1040.5462 18.484246,1033.4504 18.466797,1028.0774 Z"
       id="path4252"
       inkscape:connector-curvature="0" />
    <path
       style="fill:#1960a9;fill-opacity:0.3137255"
       d="m 24.003906,1014.8833 c -4.598425,0 -5.540231,6.3457 -5.541015,12.1699 0,0.1434 0.0068,0.2995 0.0078,0.4453 0.03921,-5.7242 1.027851,-11.8144 5.533203,-11.8144 l 0,-0 c 4.510551,0 5.489597,6.1733 5.525391,11.9082 8.88e-4,-0.1526 0.0078,-0.3148 0.0078,-0.4648 C 29.537109,1021.2995 28.60174,1014.8833 24.003906,1014.8833 z m 14.267578,12.8144 c -0.131446,8.0242 -5.798812,15.2637 -14.271484,15.2637 -8.464113,0 -14.1300012,-7.229 -14.2695312,-15.2461 -0.00399,0.1668 -0.013672,0.3312 -0.013672,0.5 0,8.1368 5.7127801,15.5469 14.2832031,15.5469 8.572778,0 14.283203,-7.4101 14.283203,-15.5469 C 38.283203,1028.0406 38.275759,1027.8703 38.271484,1027.6977 Z"
       id="path4257"
       inkscape:connector-curvature="0" />
  </g>
</svg>
