<?xml version="1.0" encoding="UTF-8" standalone="no"?>
<!-- Created with Inkscape (http://www.inkscape.org/) -->

<svg
   xmlns:dc="http://purl.org/dc/elements/1.1/"
   xmlns:cc="http://creativecommons.org/ns#"
   xmlns:rdf="http://www.w3.org/1999/02/22-rdf-syntax-ns#"
   xmlns:svg="http://www.w3.org/2000/svg"
   xmlns="http://www.w3.org/2000/svg"
   xmlns:xlink="http://www.w3.org/1999/xlink"
   xmlns:sodipodi="http://sodipodi.sourceforge.net/DTD/sodipodi-0.dtd"
   xmlns:inkscape="http://www.inkscape.org/namespaces/inkscape"
   width="48"
   height="48"
   id="svg2"
   version="1.1"
   inkscape:version="0.49 r12742"
   sodipodi:docname="pxlr-touch-up.svg">
  <defs
     id="defs4">
    <linearGradient
       inkscape:collect="always"
       id="linearGradient848">
      <stop
         style="stop-color:#3a3e3f;stop-opacity:1"
         offset="0"
         id="stop850" />
      <stop
         style="stop-color:#494d4f;stop-opacity:1"
         offset="1"
         id="stop852" />
    </linearGradient>
    <linearGradient
       inkscape:collect="always"
       xlink:href="#linearGradient848"
       id="linearGradient854"
       x1="27.577164"
       y1="-1052.3691"
       x2="27.577164"
       y2="-1004.363"
       gradientUnits="userSpaceOnUse" />
    <linearGradient
       inkscape:collect="always"
       id="linearGradient4188">
      <stop
         style="stop-color:#272933;stop-opacity:1"
         offset="0"
         id="stop4190" />
      <stop
         style="stop-color:#52566b;stop-opacity:1"
         offset="1"
         id="stop4192" />
    </linearGradient>
    <linearGradient
       id="linearGradient4589"
       inkscape:collect="always">
      <stop
         id="stop4591"
         offset="0"
         style="stop-color:#000000;stop-opacity:1;" />
      <stop
         id="stop4593"
         offset="1"
         style="stop-color:#000000;stop-opacity:0;" />
    </linearGradient>
    <linearGradient
       inkscape:collect="always"
       id="linearGradient2133">
      <stop
         style="stop-color:#000000;stop-opacity:1;"
         offset="0"
         id="stop2135" />
      <stop
         style="stop-color:#000000;stop-opacity:0;"
         offset="1"
         id="stop2137" />
    </linearGradient>
    <linearGradient
       inkscape:collect="always"
       id="linearGradient1919">
      <stop
         style="stop-color:#f2f2f2;stop-opacity:1;"
         offset="0"
         id="stop1921" />
      <stop
         style="stop-color:#f2f2f2;stop-opacity:0;"
         offset="1"
         id="stop1923" />
    </linearGradient>
    <linearGradient
       inkscape:collect="always"
       id="linearGradient1642">
      <stop
         style="stop-color:#2a2a2a;stop-opacity:0.4509804"
         offset="0"
         id="stop1644" />
      <stop
         style="stop-color:#ffffff;stop-opacity:0.33755276"
         offset="1"
         id="stop1646" />
    </linearGradient>
    <linearGradient
       id="linearGradient1550"
       inkscape:collect="always">
      <stop
         id="stop1552"
         offset="0"
         style="stop-color:#4b84fa;stop-opacity:1" />
      <stop
         id="stop1554"
         offset="1"
         style="stop-color:#cd87de;stop-opacity:0;" />
    </linearGradient>
    <linearGradient
       inkscape:collect="always"
       id="linearGradient1510">
      <stop
         style="stop-color:#cd87de;stop-opacity:1;"
         offset="0"
         id="stop1512" />
      <stop
         style="stop-color:#cd87de;stop-opacity:0;"
         offset="1"
         id="stop1514" />
    </linearGradient>
    <linearGradient
       id="linearGradient1473"
       inkscape:collect="always">
      <stop
         id="stop1475"
         offset="0"
         style="stop-color:#0e0e0e;stop-opacity:1" />
      <stop
         id="stop1477"
         offset="1"
         style="stop-color:#363434;stop-opacity:1" />
    </linearGradient>
    <linearGradient
       inkscape:collect="always"
       id="linearGradient1411">
      <stop
         style="stop-color:#f5f5f5;stop-opacity:1"
         offset="0"
         id="stop1413" />
      <stop
         style="stop-color:#9b9b9b;stop-opacity:1"
         offset="1"
         id="stop1415" />
    </linearGradient>
    <linearGradient
       gradientTransform="matrix(1.2459645,0,0,1.2459645,-153.31141,1000.8093)"
       inkscape:collect="always"
       xlink:href="#linearGradient1411"
       id="linearGradient1463"
       x1="142.12846"
       y1="24.968523"
       x2="142.93658"
       y2="40.524868"
       gradientUnits="userSpaceOnUse" />
    <linearGradient
       inkscape:collect="always"
       xlink:href="#linearGradient1411"
       id="linearGradient1467"
       gradientUnits="userSpaceOnUse"
       x1="142.12846"
       y1="24.968523"
       x2="142.93658"
       y2="40.524868" />
    <linearGradient
       inkscape:collect="always"
       xlink:href="#linearGradient4188"
       id="linearGradient1471"
       gradientUnits="userSpaceOnUse"
       x1="142.12846"
       y1="11.107129"
       x2="142.12846"
       y2="33.107807" />
    <linearGradient
       inkscape:collect="always"
       xlink:href="#linearGradient1473"
       id="linearGradient1489"
       gradientUnits="userSpaceOnUse"
       x1="142.12846"
       y1="11.107129"
       x2="142.12846"
       y2="33.107807" />
    <linearGradient
       inkscape:collect="always"
       xlink:href="#linearGradient1510"
       id="linearGradient1516"
       x1="138.99699"
       y1="30.221315"
       x2="138.99699"
       y2="26.180704"
       gradientUnits="userSpaceOnUse"
       gradientTransform="translate(270.28559,500.71298)" />
    <linearGradient
       gradientTransform="matrix(1,0,0,-1,270.28559,550.86702)"
       inkscape:collect="always"
       xlink:href="#linearGradient1550"
       id="linearGradient1548"
       gradientUnits="userSpaceOnUse"
       x1="138.99699"
       y1="30.221315"
       x2="138.99699"
       y2="26.180704" />
    <linearGradient
       gradientTransform="matrix(0.82299123,0,0,-0.82299123,294.76258,546.00204)"
       inkscape:collect="always"
       xlink:href="#linearGradient1550"
       id="linearGradient1563"
       gradientUnits="userSpaceOnUse"
       x1="138.99699"
       y1="30.221315"
       x2="138.99699"
       y2="26.180704" />
    <linearGradient
       gradientTransform="matrix(0.82299123,0,0,0.82299123,294.76258,505.57795)"
       inkscape:collect="always"
       xlink:href="#linearGradient1510"
       id="linearGradient1599"
       gradientUnits="userSpaceOnUse"
       x1="138.99699"
       y1="30.221315"
       x2="138.99699"
       y2="26.180704" />
    <radialGradient
       inkscape:collect="always"
       xlink:href="#linearGradient1642"
       id="radialGradient1648"
       cx="138.28125"
       cy="22.609375"
       fx="138.28125"
       fy="22.609375"
       r="4.875"
       gradientTransform="matrix(1,0,0,0.59294872,270.28559,509.92076)"
       gradientUnits="userSpaceOnUse" />
    <linearGradient
       inkscape:collect="always"
       xlink:href="#linearGradient1919"
       id="linearGradient1925"
       x1="142.69623"
       y1="9.6972828"
       x2="142.69623"
       y2="18.394844"
       gradientUnits="userSpaceOnUse" />
    <radialGradient
       gradientTransform="matrix(0.85506396,0,0,0.79811844,-97.72365,1021.5816)"
       gradientUnits="userSpaceOnUse"
       r="11.818785"
       fy="20.710129"
       fx="142.36353"
       cy="20.710129"
       cx="142.36353"
       id="radialGradient4541"
       xlink:href="#linearGradient2133"
       inkscape:collect="always" />
    <radialGradient
       gradientTransform="matrix(0.24364985,1.2219093,-1.0937573,0.21809623,-32.65148,850.23213)"
       gradientUnits="userSpaceOnUse"
       r="11.818785"
       fy="22.914078"
       fx="143.27745"
       cy="22.914078"
       cx="143.27745"
       id="radialGradient4595"
       xlink:href="#linearGradient4589"
       inkscape:collect="always" />
  </defs>
  <sodipodi:namedview
     id="base"
     pagecolor="#ffffff"
     bordercolor="#666666"
     borderopacity="1.0"
     inkscape:pageopacity="0.0"
     inkscape:pageshadow="2"
     inkscape:zoom="5.6568542"
     inkscape:cx="27.536948"
     inkscape:cy="28.479651"
     inkscape:document-units="px"
     inkscape:current-layer="layer1"
     showgrid="false"
     inkscape:window-width="1366"
     inkscape:window-height="718"
     inkscape:window-x="0"
     inkscape:window-y="23"
     inkscape:window-maximized="1"
     width="0px"
     height="0px"
     fit-margin-top="0"
     fit-margin-left="0"
     fit-margin-right="0"
     fit-margin-bottom="0">
    <inkscape:grid
       type="xygrid"
       id="grid3850"
       empspacing="5"
       visible="true"
       enabled="true"
       snapvisiblegridlinesonly="true" />
  </sodipodi:namedview>
  <metadata
     id="metadata7">
    <rdf:RDF>
      <cc:Work
         rdf:about="">
        <dc:format>image/svg+xml</dc:format>
        <dc:type
           rdf:resource="http://purl.org/dc/dcmitype/StillImage" />
        <dc:title></dc:title>
      </cc:Work>
    </rdf:RDF>
  </metadata>
  <g
     inkscape:label="Capa 1"
     inkscape:groupmode="layer"
     id="layer1"
     transform="translate(0,-1004.3622)">
    <rect
       style="fill:url(#linearGradient854);fill-opacity:1;stroke:none"
       id="rect2991-1"
       width="48"
       height="48"
       x="-3.8174438e-08"
       y="-1052.3622"
       ry="1.9445436"
       transform="scale(1,-1)" />
    <path
       inkscape:connector-curvature="0"
       style="fill:#000000;fill-opacity:1;stroke:none"
       d="m -2e-7,1049.3622 0,1.0625 c 0,1.0773 0.8602229,1.9375 1.9374999,1.9375 l 44.1250003,0 c 1.077277,0 1.9375,-0.8602 1.9375,-1.9375 l 0,-1.0625 c 0,1.0773 -0.860223,1.9375 -1.9375,1.9375 l -44.1250003,0 C 0.8602227,1051.2997 -2e-7,1050.4395 -2e-7,1049.3622 Z"
       id="rect846" />
    <path
       inkscape:connector-curvature="0"
       style="fill:#ffffff;fill-opacity:0.5372549;stroke:none"
       d="m 2.5312497,1005.0185 c -0.9170884,0 -1.6711467,0.6395 -1.8437499,1.5 0.335612,-0.2799 0.7745121,-0.4375 1.2499999,-0.4375 l 44.1250003,0 c 0.475488,0 0.914388,0.1576 1.25,0.4375 -0.172603,-0.8605 -0.926662,-1.5 -1.84375,-1.5 L 2.5312497,1005.0185 Z"
       id="path7515" />
    <path
       inkscape:connector-curvature="0"
       style="fill:#000000;fill-opacity:0.39215686;stroke:none"
       d="m 1.9374997,1004.3622 c -1.0772769,0 -1.9374999,0.8602 -1.9374999,1.9375 l 0,43.0625 c 0,0.7934 0.4800236,1.449 1.1562499,1.75 -0.3093416,-0.3333 -0.4999999,-0.7824 -0.4999999,-1.2812 l 0,-42.9375 c 0,-1.0482 0.8268989,-1.875 1.8749999,-1.875 l 42.9375003,0 c 1.048101,0 1.875,0.8268 1.875,1.875 l 0,42.9375 c 0,0.4988 -0.190658,0.9479 -0.5,1.2812 0.676226,-0.301 1.15625,-0.9566 1.15625,-1.75 l 0,-43.0625 c 0,-1.0773 -0.860223,-1.9375 -1.9375,-1.9375 L 1.9374997,1004.3622 Z"
       id="rect4280" />
    <circle
       style="color:#000000;fill:url(#radialGradient4595);fill-opacity:1;fill-rule:nonzero;stroke:none;stroke-width:1.39999998;marker:none;visibility:visible;display:inline;overflow:visible;enable-background:accumulate"
       id="path1927"
       cx="-24.361866"
       cy="1029.2114"
       r="14.725786"
       transform="scale(-1,1)" />
    <ellipse
       id="path1977"
       style="opacity:0.78800001;color:#000000;fill:url(#radialGradient4541);fill-opacity:1;fill-rule:nonzero;stroke:none;stroke-width:1.39999998;marker:none;visibility:visible;display:inline;overflow:visible;enable-background:accumulate"
       cx="23.718891"
       cy="1039.1714"
       rx="10.105817"
       ry="9.4327898" />
    <circle
       id="path1447"
       style="color:#000000;fill:url(#linearGradient1463);fill-opacity:1;fill-rule:nonzero;stroke:none;stroke-width:1.39999998;marker:none;visibility:visible;display:inline;overflow:visible;enable-background:accumulate"
       cx="23.649769"
       cy="1028.2693"
       r="14.725786" />
    <g
       id="g4607"
       transform="matrix(1.2459645,0,0,1.2459645,-485.41572,373.53539)">
      <path
         style="color:#000000;fill:#000000;fill-opacity:0.2953587;fill-rule:nonzero;stroke:none;stroke-width:1.39999998;marker:none;visibility:visible;display:inline;overflow:visible;enable-background:accumulate"
         d="m 396.7745,524.86482 c -0.0102,0.20144 -0.0312,0.38977 -0.0312,0.59375 0,6.52733 5.28517,11.84375 11.8125,11.84375 6.52733,0 11.84375,-5.31642 11.84375,-11.84375 0,-0.20398 -0.021,-0.39231 -0.0312,-0.59375 -0.31654,6.24469 -5.48914,11.21875 -11.8125,11.21875 -6.32346,0 -11.46481,-4.97406 -11.78135,-11.21875 z"
         id="path1450"
         inkscape:connector-curvature="0" />
      <circle
         transform="matrix(0.91538893,0,0,-0.91538893,278.56106,545.65786)"
         id="path1465"
         style="color:#000000;fill:url(#linearGradient1467);fill-opacity:1;fill-rule:nonzero;stroke:none;stroke-width:1.39999998;marker:none;visibility:visible;display:inline;overflow:visible;enable-background:accumulate"
         cx="142.02745"
         cy="22.03908"
         r="11.818785"
         d="M 153.84624,22.03908 A 11.818785,11.818785 0 0 1 142.02745,33.857864 11.818785,11.818785 0 0 1 130.20867,22.03908 11.818785,11.818785 0 0 1 142.02745,10.220295 11.818785,11.818785 0 0 1 153.84624,22.03908 Z" />
      <circle
         style="color:#000000;fill:url(#linearGradient1471);fill-opacity:1;fill-rule:nonzero;stroke:none;stroke-width:1.39999998;marker:none;visibility:visible;display:inline;overflow:visible;enable-background:accumulate"
         id="path1469"
         transform="matrix(0.83077786,0,0,-0.83077786,290.57816,543.79311)"
         cx="142.02745"
         cy="22.03908"
         r="11.818785"
         d="M 153.84624,22.03908 A 11.818785,11.818785 0 0 1 142.02745,33.857864 11.818785,11.818785 0 0 1 130.20867,22.03908 11.818785,11.818785 0 0 1 142.02745,10.220295 11.818785,11.818785 0 0 1 153.84624,22.03908 Z" />
      <circle
         style="color:#000000;fill:#ffffff;fill-opacity:0.32067512;fill-rule:nonzero;stroke:none;stroke-width:1.39999998;marker:none;visibility:visible;display:inline;overflow:visible;enable-background:accumulate"
         id="path1497"
         transform="matrix(0.66580449,0,0,0.66580449,314.00891,510.80981)"
         cx="142.02745"
         cy="22.03908"
         r="11.818785"
         d="M 153.84624,22.03908 A 11.818785,11.818785 0 0 1 142.02745,33.857864 11.818785,11.818785 0 0 1 130.20867,22.03908 11.818785,11.818785 0 0 1 142.02745,10.220295 11.818785,11.818785 0 0 1 153.84624,22.03908 Z" />
      <circle
         transform="matrix(0.63617242,0,0,0.63617242,318.21747,511.46288)"
         id="path1479"
         style="color:#000000;fill:#000000;fill-opacity:0.7805907;fill-rule:nonzero;stroke:none;stroke-width:1.39999998;marker:none;visibility:visible;display:inline;overflow:visible;enable-background:accumulate"
         cx="142.02745"
         cy="22.03908"
         r="11.818785"
         d="M 153.84624,22.03908 A 11.818785,11.818785 0 0 1 142.02745,33.857864 11.818785,11.818785 0 0 1 130.20867,22.03908 11.818785,11.818785 0 0 1 142.02745,10.220295 11.818785,11.818785 0 0 1 153.84624,22.03908 Z" />
      <circle
         style="color:#000000;fill:url(#linearGradient1489);fill-opacity:1;fill-rule:nonzero;stroke:none;stroke-width:1.39999998;marker:none;visibility:visible;display:inline;overflow:visible;enable-background:accumulate"
         id="path1487"
         transform="matrix(0.59386692,0,0,0.59386692,324.22601,512.39525)"
         cx="142.02745"
         cy="22.03908"
         r="11.818785"
         d="M 153.84624,22.03908 A 11.818785,11.818785 0 0 1 142.02745,33.857864 11.818785,11.818785 0 0 1 130.20867,22.03908 11.818785,11.818785 0 0 1 142.02745,10.220295 11.818785,11.818785 0 0 1 153.84624,22.03908 Z" />
      <circle
         style="color:#000000;fill:#000000;fill-opacity:0.32067512;fill-rule:nonzero;stroke:none;stroke-width:1.39999998;marker:none;visibility:visible;display:inline;overflow:visible;enable-background:accumulate"
         id="path1491"
         transform="matrix(0.45850739,0,0,0.45850739,343.45078,515.37845)"
         cx="142.02745"
         cy="22.03908"
         r="11.818785"
         d="M 153.84624,22.03908 A 11.818785,11.818785 0 0 1 142.02745,33.857864 11.818785,11.818785 0 0 1 130.20867,22.03908 11.818785,11.818785 0 0 1 142.02745,10.220295 11.818785,11.818785 0 0 1 153.84624,22.03908 Z" />
      <circle
         transform="matrix(0.42704912,0,0,0.42704912,347.91872,516.07176)"
         id="path1493"
         style="color:#000000;fill:#0c0c0c;fill-opacity:1;fill-rule:nonzero;stroke:none;stroke-width:1.39999998;marker:none;visibility:visible;display:inline;overflow:visible;enable-background:accumulate"
         cx="142.02745"
         cy="22.03908"
         r="11.818785"
         d="M 153.84624,22.03908 A 11.818785,11.818785 0 0 1 142.02745,33.857864 11.818785,11.818785 0 0 1 130.20867,22.03908 11.818785,11.818785 0 0 1 142.02745,10.220295 11.818785,11.818785 0 0 1 153.84624,22.03908 Z" />
      <path
         inkscape:connector-curvature="0"
         style="opacity:0.52399998;color:#000000;fill:url(#linearGradient1516);fill-opacity:1;fill-rule:nonzero;stroke:none;stroke-width:1.39999998;marker:none;visibility:visible;display:inline;overflow:visible;enable-background:accumulate"
         d="m 403.53559,525.86923 c 0.19829,2.60604 2.37442,4.65625 5.03125,4.65625 2.63497,0 4.80239,-2.01828 5.03125,-4.59375 -1.08673,1.60856 -2.94389,2.65625 -5.03125,2.65625 -2.11199,0 -3.94977,-1.07813 -5.03125,-2.71875 z"
         id="path1505" />
      <path
         id="path1546"
         d="m 403.53559,525.71077 c 0.19829,-2.60604 2.37442,-4.65625 5.03125,-4.65625 2.63497,0 4.80239,2.01828 5.03125,4.59375 -1.08673,-1.60857 -2.94389,-2.65625 -5.03125,-2.65625 -2.11199,0 -3.94977,1.07812 -5.03125,2.71875 z"
         style="opacity:0.52399998;color:#000000;fill:url(#linearGradient1548);fill-opacity:1;fill-rule:nonzero;stroke:none;stroke-width:1.39999998;marker:none;visibility:visible;display:inline;overflow:visible;enable-background:accumulate"
         inkscape:connector-curvature="0" />
      <path
         style="opacity:0.13300003;color:#000000;fill:#ffffff;fill-opacity:1;fill-rule:nonzero;stroke:none;stroke-width:1.39999998;marker:none;visibility:visible;display:inline;overflow:visible;enable-background:accumulate"
         d="m 409.06775,521.73249 c -0.73415,0 -1.38865,0.19885 -1.83812,0.51141 0.43149,-0.23121 0.9914,-0.38123 1.61026,-0.38123 1.03206,0 1.91576,0.39609 2.27866,0.94842 0.14865,0.0872 0.27941,0.18355 0.39497,0.28825 -0.11126,-0.76632 -1.16487,-1.36685 -2.44577,-1.36685 z m -2.23309,1.21808 c -0.0672,0.0396 -0.13656,0.0775 -0.19748,0.12087 -0.003,0.0161 -0.0132,0.0302 -0.0152,0.0465 0.0635,-0.0589 0.13888,-0.11358 0.21265,-0.16736 z"
         id="path1556"
         inkscape:connector-curvature="0" />
      <path
         inkscape:connector-curvature="0"
         style="opacity:0.694;color:#000000;fill:url(#linearGradient1563);fill-opacity:1;fill-rule:nonzero;stroke:none;stroke-width:1.39999998;marker:none;visibility:visible;display:inline;overflow:visible;enable-background:accumulate"
         d="m 404.42616,525.29867 c 0.16319,-2.14475 1.95413,-3.83206 4.14068,-3.83206 2.16855,0 3.95232,1.66103 4.14067,3.78062 -0.89437,-1.32384 -2.4228,-2.18607 -4.14067,-2.18607 -1.73815,0 -3.25063,0.88729 -4.14068,2.23751 z"
         id="path1561" />
      <path
         id="path1597"
         d="m 404.42616,526.28132 c 0.16319,2.14475 1.95413,3.83206 4.14068,3.83206 2.16855,0 3.95232,-1.66103 4.14067,-3.78062 -0.89437,1.32384 -2.4228,2.18607 -4.14067,2.18607 -1.73815,0 -3.25063,-0.88729 -4.14068,-2.23751 z"
         style="opacity:0.28500001;color:#000000;fill:url(#linearGradient1599);fill-opacity:1;fill-rule:nonzero;stroke:none;stroke-width:1.39999998;marker:none;visibility:visible;display:inline;overflow:visible;enable-background:accumulate"
         inkscape:connector-curvature="0" />
      <path
         style="opacity:0.12700004;color:#000000;fill:#00ffff;fill-opacity:1;fill-rule:nonzero;stroke:none;stroke-width:1.39999998;marker:none;visibility:visible;display:inline;overflow:visible;enable-background:accumulate"
         d="m 407.14167,526.27548 c 0.26326,0.73477 0.70926,1.25 1.42756,1.25 0.71831,0 1.08364,-0.51523 1.34689,-1.25 -0.44178,0.41774 -0.73683,0.6875 -1.34689,0.6875 -0.60702,0 -0.9868,-0.2735 -1.42756,-0.6875 z"
         id="path1810"
         inkscape:connector-curvature="0"
         sodipodi:nodetypes="cscsc" />
      <path
         style="opacity:0.12700004;color:#000000;fill:#00ffff;fill-opacity:1;fill-rule:nonzero;stroke:none;stroke-width:1.39999998;marker:none;visibility:visible;display:inline;overflow:visible;enable-background:accumulate"
         d="m 407.69184,526.10606 c 0.1464,0.34613 0.4838,0.58884 0.88326,0.58884 0.39947,0 0.75159,-0.24271 0.89799,-0.58884 -0.24568,0.19679 -0.55872,0.32386 -0.89799,0.32386 -0.33757,0 -0.63815,-0.12884 -0.88326,-0.32386 z"
         id="path1877"
         inkscape:connector-curvature="0" />
      <circle
         style="opacity:0.62424245;color:#000000;fill:#a9e3e3;fill-opacity:1;fill-rule:nonzero;stroke:none;stroke-width:1.39999998;marker:none;visibility:visible;display:inline;overflow:visible;enable-background:accumulate"
         id="path1650"
         transform="matrix(0.04327748,0,0,0.03723383,401.38911,524.05579)"
         cx="142.02745"
         cy="22.03908"
         r="11.818785"
         d="M 153.84624,22.03908 A 11.818785,11.818785 0 0 1 142.02745,33.857864 11.818785,11.818785 0 0 1 130.20867,22.03908 11.818785,11.818785 0 0 1 142.02745,10.220295 11.818785,11.818785 0 0 1 153.84624,22.03908 Z" />
      <path
         id="path1891"
         d="m 407.23096,525.54281 c 0.26325,-0.73477 0.61997,-1.25 1.33827,-1.25 0.71831,0 1.10149,0.51523 1.36475,1.25 -0.44179,-0.41774 -0.75469,-0.6875 -1.36475,-0.6875 -0.60702,0 -0.89751,0.2735 -1.33827,0.6875 z"
         style="opacity:0.12099998;color:#000000;fill:#00ffff;fill-opacity:1;fill-rule:nonzero;stroke:none;stroke-width:1.39999998;marker:none;visibility:visible;display:inline;overflow:visible;enable-background:accumulate"
         inkscape:connector-curvature="0"
         sodipodi:nodetypes="cscsc" />
      <circle
         transform="matrix(0.04327748,0,0,0.03723383,401.38911,524.05579)"
         id="path1744"
         style="opacity:0.75400002;color:#000000;fill:#a9e3e3;fill-opacity:1;fill-rule:nonzero;stroke:none;stroke-width:1.39999998;marker:none;visibility:visible;display:inline;overflow:visible;enable-background:accumulate"
         cx="142.02745"
         cy="22.03908"
         r="11.818785"
         d="M 153.84624,22.03908 A 11.818785,11.818785 0 0 1 142.02745,33.857864 11.818785,11.818785 0 0 1 130.20867,22.03908 11.818785,11.818785 0 0 1 142.02745,10.220295 11.818785,11.818785 0 0 1 153.84624,22.03908 Z" />
      <path
         style="opacity:0.35499998;color:#000000;fill:url(#radialGradient1648);fill-opacity:1;fill-rule:nonzero;stroke:none;stroke-width:1.39999998;marker:none;visibility:visible;display:inline;overflow:visible;enable-background:accumulate"
         d="m 408.56684,520.43633 c -2.35807,0 -4.3208,1.62676 -4.875,3.8125 1.12533,1.19711 2.88934,1.96875 4.875,1.96875 1.98566,0 3.74967,-0.77164 4.875,-1.96875 -0.5542,-2.18574 -2.51693,-3.8125 -4.875,-3.8125 z"
         id="path1637"
         inkscape:connector-curvature="0" />
      <circle
         style="opacity:0.75400002;color:#000000;fill:#a9e3e3;fill-opacity:1;fill-rule:nonzero;stroke:none;stroke-width:1.39999998;marker:none;visibility:visible;display:inline;overflow:visible;enable-background:accumulate"
         id="path1893"
         transform="matrix(0.01683652,0,0,0.01448532,407.44802,526.23692)"
         cx="142.02745"
         cy="22.03908"
         r="11.818785"
         d="M 153.84624,22.03908 A 11.818785,11.818785 0 0 1 142.02745,33.857864 11.818785,11.818785 0 0 1 130.20867,22.03908 11.818785,11.818785 0 0 1 142.02745,10.220295 11.818785,11.818785 0 0 1 153.84624,22.03908 Z" />
      <circle
         style="color:#000000;fill:url(#linearGradient1925);fill-opacity:1;fill-rule:nonzero;stroke:none;stroke-width:1.39999998;marker:none;visibility:visible;display:inline;overflow:visible;enable-background:accumulate"
         id="path1915"
         transform="matrix(0.21352456,0,0,0.21352456,378.24507,520.49193)"
         cx="142.02745"
         cy="22.03908"
         r="11.818785"
         d="M 153.84624,22.03908 A 11.818785,11.818785 0 0 1 142.02745,33.857864 11.818785,11.818785 0 0 1 130.20867,22.03908 11.818785,11.818785 0 0 1 142.02745,10.220295 11.818785,11.818785 0 0 1 153.84624,22.03908 Z" />
    </g>
  </g>
</svg>
