<?xml version="1.0" encoding="UTF-8" standalone="no"?>
<!-- Created with Inkscape (http://www.inkscape.org/) -->

<svg
   xmlns:dc="http://purl.org/dc/elements/1.1/"
   xmlns:cc="http://creativecommons.org/ns#"
   xmlns:rdf="http://www.w3.org/1999/02/22-rdf-syntax-ns#"
   xmlns:svg="http://www.w3.org/2000/svg"
   xmlns="http://www.w3.org/2000/svg"
   xmlns:xlink="http://www.w3.org/1999/xlink"
   xmlns:sodipodi="http://sodipodi.sourceforge.net/DTD/sodipodi-0.dtd"
   xmlns:inkscape="http://www.inkscape.org/namespaces/inkscape"
   width="48"
   height="48"
   id="svg2"
   version="1.1"
   inkscape:version="0.48+devel r12487"
   sodipodi:docname="xscreensaver.svg">
  <defs
     id="defs4">
    <linearGradient
       inkscape:collect="always"
       id="linearGradient1420">
      <stop
         style="stop-color:#9034ca;stop-opacity:1"
         offset="0"
         id="stop1422" />
      <stop
         style="stop-color:#e18baf;stop-opacity:1"
         offset="1"
         id="stop1424" />
    </linearGradient>
    <linearGradient
       y2="-1004.6122"
       x2="26.374998"
       y1="-1052.6122"
       x1="26.374998"
       gradientUnits="userSpaceOnUse"
       id="linearGradient7530"
       xlink:href="#linearGradient1420"
       inkscape:collect="always"
       gradientTransform="translate(0,-1.14e-5)" />
  </defs>
  <sodipodi:namedview
     id="base"
     pagecolor="#ffffff"
     bordercolor="#666666"
     borderopacity="1.0"
     inkscape:pageopacity="0.0"
     inkscape:pageshadow="2"
     inkscape:zoom="6.1982332"
     inkscape:cx="38.852308"
     inkscape:cy="21.56867"
     inkscape:document-units="px"
     inkscape:current-layer="layer1"
     showgrid="false"
     inkscape:window-width="1366"
     inkscape:window-height="715"
     inkscape:window-x="0"
     inkscape:window-y="30"
     inkscape:window-maximized="1"
     width="0px"
     height="0px"
     fit-margin-top="0"
     fit-margin-left="0"
     fit-margin-right="0"
     fit-margin-bottom="0">
    <inkscape:grid
       type="xygrid"
       id="grid3850"
       empspacing="5"
       visible="true"
       enabled="true"
       snapvisiblegridlinesonly="true" />
  </sodipodi:namedview>
  <metadata
     id="metadata7">
    <rdf:RDF>
      <cc:Work
         rdf:about="">
        <dc:format>image/svg+xml</dc:format>
        <dc:type
           rdf:resource="http://purl.org/dc/dcmitype/StillImage" />
        <dc:title />
      </cc:Work>
    </rdf:RDF>
  </metadata>
  <g
     inkscape:label="Capa 1"
     inkscape:groupmode="layer"
     id="layer1"
     transform="translate(0,-1004.3622)">
    <rect
       style="fill:url(#linearGradient7530);fill-opacity:1;stroke:none"
       id="rect2991-1"
       width="48"
       height="48"
       x="1.1450196e-07"
       y="-1052.3621"
       ry="1.9445436"
       transform="scale(1,-1)" />
    <path
       id="path4057"
       d="m 23.999999,1014.1622 c -8.497734,0 -15.3999647,6.9021 -15.3999647,15.4 0,8.4978 6.9022307,15.4 15.3999647,15.4 8.497737,0 15.399967,-6.9022 15.399967,-15.4 0,-8.4979 -6.90223,-15.4 -15.399967,-15.4 z m 0,1.0161 c 7.937062,0 14.383886,6.4468 14.383886,14.3839 0,7.937 -6.446824,14.3839 -14.383886,14.3839 -7.93706,0 -14.3838845,-6.4469 -14.3838845,-14.3839 0,-7.9371 6.4468245,-14.3839 14.3838845,-14.3839 z m 0.06351,4.8264 c -2.326569,0 -4.191331,1.8649 -4.191331,4.1913 l 0,3.5245 0.698555,0 0,-3.5245 c 0,-1.9284 1.564244,-3.4927 3.492776,-3.4927 1.928532,0 3.492775,1.5643 3.492775,3.4927 l 0,3.5245 0.698556,0 0,-3.5245 c -1e-6,-2.3264 -1.864763,-4.1913 -4.191332,-4.1913 z m -5.905967,9.2083 0,7.5887 11.811933,0 0,-7.5887 -11.811934,0 z m 5.842461,1.143 c 0.718995,0 1.301853,0.5829 1.301853,1.3017 0,0.4257 -0.223933,0.7786 -0.539792,1.0162 l 0,1.9686 c 0,0.3984 -0.331982,0.7305 -0.730307,0.7305 l -0.06351,0 c -0.398326,0 -0.730306,-0.3321 -0.730306,-0.7305 l 0,-1.9686 c -0.31586,-0.2376 -0.539793,-0.5905 -0.539793,-1.0162 0,-0.7188 0.582858,-1.3017 1.301851,-1.3017 z"
       style="fill:#000000;fill-opacity:0.05882353;stroke:none"
       inkscape:connector-curvature="0" />
    <path
       inkscape:connector-curvature="0"
       style="fill:#000000;fill-opacity:0.11764706;stroke:none"
       d="m 23.999999,1013.7622 c -8.497734,0 -15.3999647,6.9021 -15.3999647,15.4 0,8.4978 6.9022307,15.4 15.3999647,15.4 8.497737,0 15.399967,-6.9022 15.399967,-15.4 0,-8.4979 -6.90223,-15.4 -15.399967,-15.4 z m 0,1.0161 c 7.937062,0 14.383886,6.4468 14.383886,14.3839 0,7.937 -6.446824,14.3839 -14.383886,14.3839 -7.93706,0 -14.3838845,-6.4469 -14.3838845,-14.3839 0,-7.9371 6.4468245,-14.3839 14.3838845,-14.3839 z m 0.06351,4.8264 c -2.326569,0 -4.191331,1.8649 -4.191331,4.1913 l 0,3.5245 0.698555,0 0,-3.5245 c 0,-1.9284 1.564244,-3.4927 3.492776,-3.4927 1.928532,0 3.492775,1.5643 3.492775,3.4927 l 0,3.5245 0.698556,0 0,-3.5245 c -1e-6,-2.3264 -1.864763,-4.1913 -4.191332,-4.1913 z m -5.905967,9.2083 0,7.5887 11.811933,0 0,-7.5887 -11.811934,0 z m 5.842461,1.143 c 0.718995,0 1.301853,0.5829 1.301853,1.3017 0,0.4257 -0.223933,0.7786 -0.539792,1.0162 l 0,1.9686 c 0,0.3984 -0.331982,0.7305 -0.730307,0.7305 l -0.06351,0 c -0.398326,0 -0.730306,-0.3321 -0.730306,-0.7305 l 0,-1.9686 c -0.31586,-0.2376 -0.539793,-0.5905 -0.539793,-1.0162 0,-0.7188 0.582858,-1.3017 1.301851,-1.3017 z"
       id="path4055" />
    <path
       id="path4053"
       d="m 23.999999,1013.3622 c -8.497734,0 -15.3999647,6.9021 -15.3999647,15.4 0,8.4978 6.9022307,15.4 15.3999647,15.4 8.497737,0 15.399967,-6.9022 15.399967,-15.4 0,-8.4979 -6.90223,-15.4 -15.399967,-15.4 z m 0,1.0161 c 7.937062,0 14.383886,6.4468 14.383886,14.3839 0,7.937 -6.446824,14.3839 -14.383886,14.3839 -7.93706,0 -14.3838845,-6.4469 -14.3838845,-14.3839 0,-7.9371 6.4468245,-14.3839 14.3838845,-14.3839 z m 0.06351,4.8264 c -2.326569,0 -4.191331,1.8649 -4.191331,4.1913 l 0,3.5245 0.698555,0 0,-3.5245 c 0,-1.9284 1.564244,-3.4927 3.492776,-3.4927 1.928532,0 3.492775,1.5643 3.492775,3.4927 l 0,3.5245 0.698556,0 0,-3.5245 c -1e-6,-2.3264 -1.864763,-4.1913 -4.191332,-4.1913 z m -5.905967,9.2083 0,7.5887 11.811933,0 0,-7.5887 -11.811934,0 z m 5.842461,1.143 c 0.718995,0 1.301853,0.5829 1.301853,1.3017 0,0.4257 -0.223933,0.7786 -0.539792,1.0162 l 0,1.9686 c 0,0.3984 -0.331982,0.7305 -0.730307,0.7305 l -0.06351,0 c -0.398326,0 -0.730306,-0.3321 -0.730306,-0.7305 l 0,-1.9686 c -0.31586,-0.2376 -0.539793,-0.5905 -0.539793,-1.0162 0,-0.7188 0.582858,-1.3017 1.301851,-1.3017 z"
       style="fill:#000000;fill-opacity:0.23529412;stroke:none"
       inkscape:connector-curvature="0" />
    <path
       inkscape:connector-curvature="0"
       style="fill:#000000;fill-opacity:1;stroke:none"
       d="m 0,1049.3622 0,1.0625 c 0,1.0773 0.860223,1.9375 1.9375,1.9375 l 44.125,0 c 1.077277,0 1.9375,-0.8602 1.9375,-1.9375 l 0,-1.0625 c 0,1.0773 -0.860223,1.9375 -1.9375,1.9375 l -44.125,0 C 0.860223,1051.2997 0,1050.4395 0,1049.3622 Z"
       id="rect846" />
    <path
       inkscape:connector-curvature="0"
       style="fill:#ffffff;fill-opacity:0.5372549;stroke:none"
       d="m 2.53125,1005.0185 c -0.917088,0 -1.671146,0.6395 -1.84375,1.5 0.335612,-0.2799 0.774512,-0.4375 1.25,-0.4375 l 44.125,0 c 0.475488,0 0.914388,0.1576 1.25,0.4375 -0.172603,-0.8605 -0.926662,-1.5 -1.84375,-1.5 L 2.53125,1005.0185 Z"
       id="path7515" />
    <path
       inkscape:connector-curvature="0"
       style="fill:#000000;fill-opacity:0.39215686;stroke:none"
       d="m 1.9375,1004.3622 c -1.077277,0 -1.9375,0.8602 -1.9375,1.9375 l 0,43.0625 c 0,0.7934 0.480024,1.449 1.15625,1.75 -0.309341,-0.3333 -0.5,-0.7824 -0.5,-1.2812 l 0,-42.9375 c 0,-1.0482 0.826899,-1.875 1.875,-1.875 l 42.9375,0 c 1.048101,0 1.875,0.8268 1.875,1.875 l 0,42.9375 c 0,0.4988 -0.190658,0.9479 -0.5,1.2812 0.676226,-0.301 1.15625,-0.9566 1.15625,-1.75 l 0,-43.0625 c 0,-1.0773 -0.860223,-1.9375 -1.9375,-1.9375 L 1.9375,1004.3622 Z"
       id="rect4280" />
    <path
       inkscape:connector-curvature="0"
       style="fill:#2d3e7b;fill-opacity:1;stroke:none"
       d="m 23.999999,1012.9622 c -8.497734,0 -15.3999647,6.9021 -15.3999647,15.4 0,8.4978 6.9022307,15.4 15.3999647,15.4 8.497737,0 15.399967,-6.9022 15.399967,-15.4 0,-8.4979 -6.90223,-15.4 -15.399967,-15.4 z m 0,1.0161 c 7.937062,0 14.383886,6.4468 14.383886,14.3839 0,7.937 -6.446824,14.3839 -14.383886,14.3839 -7.93706,0 -14.3838845,-6.4469 -14.3838845,-14.3839 0,-7.9371 6.4468245,-14.3839 14.3838845,-14.3839 z m 0.06351,4.8264 c -2.326569,0 -4.191331,1.8649 -4.191331,4.1913 l 0,3.5245 0.698555,0 0,-3.5245 c 0,-1.9284 1.564244,-3.4927 3.492776,-3.4927 1.928532,0 3.492775,1.5643 3.492775,3.4927 l 0,3.5245 0.698556,0 0,-3.5245 c -1e-6,-2.3264 -1.864763,-4.1913 -4.191332,-4.1913 z m -5.905967,9.2083 0,7.5887 11.811933,0 0,-7.5887 -11.811934,0 z m 5.842461,1.143 c 0.718995,0 1.301853,0.5829 1.301853,1.3017 0,0.4257 -0.223933,0.7786 -0.539792,1.0162 l 0,1.9686 c 0,0.3984 -0.331982,0.7305 -0.730307,0.7305 l -0.06351,0 c -0.398326,0 -0.730306,-0.3321 -0.730306,-0.7305 l 0,-1.9686 c -0.31586,-0.2376 -0.539793,-0.5905 -0.539793,-1.0162 0,-0.7188 0.582858,-1.3017 1.301851,-1.3017 z"
       id="rect1433" />
  </g>
</svg>
