<?xml version="1.0" encoding="UTF-8" standalone="no"?>
<!-- Created with Inkscape (http://www.inkscape.org/) -->

<svg
   xmlns:dc="http://purl.org/dc/elements/1.1/"
   xmlns:cc="http://creativecommons.org/ns#"
   xmlns:rdf="http://www.w3.org/1999/02/22-rdf-syntax-ns#"
   xmlns:svg="http://www.w3.org/2000/svg"
   xmlns="http://www.w3.org/2000/svg"
   xmlns:xlink="http://www.w3.org/1999/xlink"
   xmlns:sodipodi="http://sodipodi.sourceforge.net/DTD/sodipodi-0.dtd"
   xmlns:inkscape="http://www.inkscape.org/namespaces/inkscape"
   width="48"
   height="48"
   id="svg2"
   version="1.1"
   inkscape:version="0.48+devel r12487"
   sodipodi:docname="pyneighborhood_48x48.svg">
  <defs
     id="defs4">
    <linearGradient
       id="linearGradient4494"
       inkscape:collect="always">
      <stop
         id="stop4496"
         offset="0"
         style="stop-color:#e1a800;stop-opacity:1" />
      <stop
         style="stop-color:#ffcc56;stop-opacity:1"
         offset="0.25"
         id="stop4502" />
      <stop
         style="stop-color:#553000;stop-opacity:1"
         offset="0.67970502"
         id="stop4500" />
      <stop
         id="stop4498"
         offset="1"
         style="stop-color:#6d4000;stop-opacity:1" />
    </linearGradient>
    <linearGradient
       inkscape:collect="always"
       id="linearGradient4148">
      <stop
         style="stop-color:#1a1a1a;stop-opacity:1"
         offset="0"
         id="stop4150" />
      <stop
         style="stop-color:#000000;stop-opacity:1"
         offset="1"
         id="stop4152" />
    </linearGradient>
    <linearGradient
       id="linearGradient4142"
       inkscape:collect="always">
      <stop
         id="stop4144"
         offset="0"
         style="stop-color:#161723;stop-opacity:1" />
      <stop
         id="stop4146"
         offset="1"
         style="stop-color:#141622;stop-opacity:1" />
    </linearGradient>
    <linearGradient
       id="linearGradient2026"
       inkscape:collect="always">
      <stop
         id="stop2028"
         offset="0"
         style="stop-color:#4e5362;stop-opacity:1" />
      <stop
         id="stop2030"
         offset="1"
         style="stop-color:#ecf2f9;stop-opacity:1" />
    </linearGradient>
    <linearGradient
       inkscape:collect="always"
       xlink:href="#linearGradient2026"
       id="linearGradient25097"
       gradientUnits="userSpaceOnUse"
       gradientTransform="translate(-1.9073486e-6,-5.4691406e-5)"
       x1="23.157747"
       y1="-1052.3441"
       x2="23.157747"
       y2="-1004.3665" />
    <linearGradient
       inkscape:collect="always"
       xlink:href="#linearGradient4142"
       id="linearGradient4125"
       gradientUnits="userSpaceOnUse"
       gradientTransform="matrix(0.62499998,0,0,-0.62499998,8.999999,385.63584)"
       x1="23.157747"
       y1="-1052.3441"
       x2="23.157747"
       y2="-1004.3665" />
    <radialGradient
       inkscape:collect="always"
       xlink:href="#linearGradient4148"
       id="radialGradient4154"
       cx="23.999994"
       cy="1028.3621"
       fx="23.999994"
       fy="1028.3621"
       r="14"
       gradientTransform="matrix(1.2158987,1.9419814e-6,-2.2293414e-6,1.3958184,-5.1792752,-407.04471)"
       gradientUnits="userSpaceOnUse" />
    <linearGradient
       inkscape:collect="always"
       xlink:href="#linearGradient4494"
       id="linearGradient4468"
       gradientUnits="userSpaceOnUse"
       gradientTransform="matrix(0.99179435,0,0,0.43024038,4.9043,1012.6408)"
       x1="10.5"
       y1="4.0000019"
       x2="10.5"
       y2="38.75" />
    <linearGradient
       inkscape:collect="always"
       xlink:href="#linearGradient4494"
       id="linearGradient4480"
       gradientUnits="userSpaceOnUse"
       gradientTransform="matrix(0.99179435,0,0,0.43024038,12.9043,1012.6408)"
       x1="10.5"
       y1="4.0000019"
       x2="10.5"
       y2="38.75" />
    <linearGradient
       inkscape:collect="always"
       xlink:href="#linearGradient4494"
       id="linearGradient4492"
       gradientUnits="userSpaceOnUse"
       gradientTransform="matrix(0.99179435,0,0,0.43024038,20.9043,1012.6408)"
       x1="10.5"
       y1="4.0000019"
       x2="10.5"
       y2="38.75" />
  </defs>
  <sodipodi:namedview
     id="base"
     pagecolor="#ffffff"
     bordercolor="#666666"
     borderopacity="1.0"
     inkscape:pageopacity="0.0"
     inkscape:pageshadow="2"
     inkscape:zoom="2.9775826"
     inkscape:cx="25.656726"
     inkscape:cy="10.108001"
     inkscape:document-units="px"
     inkscape:current-layer="layer1"
     showgrid="false"
     inkscape:window-width="1366"
     inkscape:window-height="715"
     inkscape:window-x="0"
     inkscape:window-y="30"
     inkscape:window-maximized="1">
    <inkscape:grid
       type="xygrid"
       id="grid3850" />
  </sodipodi:namedview>
  <metadata
     id="metadata7">
    <rdf:RDF>
      <cc:Work
         rdf:about="">
        <dc:format>image/svg+xml</dc:format>
        <dc:type
           rdf:resource="http://purl.org/dc/dcmitype/StillImage" />
        <dc:title />
      </cc:Work>
    </rdf:RDF>
  </metadata>
  <g
     inkscape:label="Capa 1"
     inkscape:groupmode="layer"
     id="layer1"
     transform="translate(0,-1004.3622)">
    <rect
       transform="scale(1,-1)"
       ry="1.9445436"
       y="-1052.3622"
       x="9.0734864e-07"
       height="48"
       width="48"
       id="rect25063"
       style="fill:url(#linearGradient25097);fill-opacity:1;stroke:none" />
    <path
       sodipodi:nodetypes="ccssssccssssssccssssc"
       inkscape:connector-curvature="0"
       id="path4156"
       d="m 14.696182,1044.3622 c 5.802424,0 12.805212,0 18.607637,0 0.179546,0 0.350342,-0.036 0.505541,-0.1016 0.155199,-0.065 0.294801,-0.1601 0.41196,-0.2773 0.117159,-0.1171 0.211874,-0.2567 0.2773,-0.4119 0.06543,-0.1552 0.101562,-0.326 0.101562,-0.5056 l 0,-6.0036 5.399819,0 0,-23.4037 c 0,-0.359 -0.144545,-0.6831 -0.378862,-0.9174 -0.234318,-0.2343 -0.558409,-0.3789 -0.917501,-0.3789 l -29.4072744,0 c -0.3590925,0 -0.6831831,0.1446 -0.9175006,0.3789 -0.2343176,0.2343 -0.378862,0.5584 -0.378862,0.9174 l 0,23.4037 5.399818,0 0,6.0036 c 0,0.1796 0.03614,0.3504 0.101562,0.5056 0.06543,0.1552 0.160141,0.2948 0.2773,0.4119 0.117159,0.1172 0.256761,0.2119 0.41196,0.2773 0.155199,0.065 0.325994,0.1016 0.505541,0.1016 z"
       style="fill:#000000;fill-opacity:0.23529412;stroke:none" />
    <path
       inkscape:connector-curvature="0"
       style="fill:#000000;fill-opacity:1;stroke:none"
       d="m -9.0734863e-7,1049.3622 0,1.0625 c 0,1.0773 0.86022299734863,1.9375 1.93750000734863,1.9375 l 44.1249999,0 c 1.077277,0 1.9375,-0.8602 1.9375,-1.9375 l 0,-1.0625 c 0,1.0773 -0.860223,1.9375 -1.9375,1.9375 l -44.1249999,0 C 0.86022209,1051.2997 -9.0734863e-7,1050.4395 -9.0734863e-7,1049.3622 Z"
       id="rect846-6" />
    <path
       inkscape:connector-curvature="0"
       style="fill:#ffffff;fill-opacity:0.5372549;stroke:none"
       d="m 2.5312491,1005.0185 c -0.917088,0 -1.67114701,0.6395 -1.84375001,1.5 0.33561201,-0.2799 0.77451201,-0.4375 1.25000001,-0.4375 l 44.1249999,0 c 0.475488,0 0.914388,0.1576 1.25,0.4375 -0.172603,-0.8605 -0.926662,-1.5 -1.84375,-1.5 L 2.5312491,1005.0185 Z"
       id="path7515-2" />
    <path
       inkscape:connector-curvature="0"
       style="fill:#000000;fill-opacity:0.39215686;stroke:none"
       d="m 1.9374991,1004.3622 c -1.07727701,0 -1.93750000734863,0.8602 -1.93750000734863,1.9375 l 0,43.0625 c 0,0.7934 0.48002399734863,1.449 1.15625000734863,1.75 -0.30934201,-0.3333 -0.50000001,-0.7824 -0.50000001,-1.2812 l 0,-42.9375 c 0,-1.0482 0.82689901,-1.875 1.87500001,-1.875 l 42.9374999,0 c 1.048101,0 1.875,0.8268 1.875,1.875 l 0,42.9375 c 0,0.4988 -0.190658,0.9479 -0.5,1.2812 0.676226,-0.301 1.15625,-0.9566 1.15625,-1.75 l 0,-43.0625 c 0,-1.0773 -0.860223,-1.9375 -1.9375,-1.9375 L 1.9374991,1004.3622 Z"
       id="rect4280-9" />
    <path
       style="fill:url(#linearGradient4125);fill-opacity:1;stroke:none"
       d="m 15.840341,1043.3622 6.28466,0 10.03466,0 c 0.168324,0 0.328445,-0.034 0.473944,-0.095 0.145499,-0.061 0.276376,-0.1501 0.386213,-0.26 0.109836,-0.1098 0.198632,-0.2407 0.259969,-0.3862 0.06134,-0.1455 0.09521,-0.3056 0.09521,-0.474 l 0,-6.2846 5.625,0 0,-21.2847 c 0,-0.3366 -0.135511,-0.6404 -0.355183,-0.8601 -0.219673,-0.2196 -0.523509,-0.3552 -0.860157,-0.3552 l -27.56932,0 c -0.3366493,0 -0.6404842,0.1356 -0.8601569,0.3552 -0.2196727,0.2197 -0.3551831,0.5235 -0.3551831,0.8601 l 0,21.2847 5.625,0 0,6.2846 c 0,0.1684 0.03388,0.3285 0.09521,0.474 0.06134,0.1455 0.150133,0.2764 0.259969,0.3862 0.109837,0.1099 0.240714,0.1986 0.386213,0.26 0.145499,0.061 0.305619,0.095 0.473944,0.095 z"
       id="rect4123"
       inkscape:connector-curvature="0"
       sodipodi:nodetypes="scsssssccssssssccsssss" />
    <path
       sodipodi:nodetypes="ccssssccssssssccsssssc"
       inkscape:connector-curvature="0"
       id="path4138"
       d="m 17.484162,1042.3622 c 5.077122,0 7.954561,0 13.031682,0 0.157103,0 0.306549,-0.032 0.442348,-0.089 0.135799,-0.057 0.257951,-0.1401 0.360466,-0.2426 0.102513,-0.1025 0.185389,-0.2247 0.242637,-0.3605 0.05725,-0.1358 0.08667,-0.2852 0.08886,-0.4424 l 0,-7.1655 6.349839,0 0,-18.5658 c 0,-0.3142 -0.126477,-0.5977 -0.331504,-0.8028 -0.205028,-0.2049 -0.488609,-0.3315 -0.802813,-0.3315 l -25.731366,0 c -0.314206,0 -0.597785,0.1266 -0.802813,0.3315 -0.205028,0.2051 -0.331504,0.4886 -0.331504,0.8028 l 0,18.5658 6.349844,0 0,7.1655 c 0,0.1572 0.03162,0.3066 0.08886,0.4424 0.05725,0.1358 0.140124,0.258 0.242637,0.3605 0.102515,0.1025 0.224667,0.1853 0.360466,0.2426 0.135799,0.057 0.285244,0.089 0.442348,0.089 z"
       style="fill:url(#radialGradient4154);fill-opacity:1;stroke:none" />
    <rect
       style="fill:url(#linearGradient4468);fill-opacity:1.0;stroke:none"
       id="rect4458"
       width="3.5952542"
       height="14.897079"
       x="14.202372"
       y="1014.3621"
       ry="0" />
    <rect
       ry="0"
       y="1014.3621"
       x="17.797626"
       height="14.897079"
       width="0.70237333"
       id="rect4460"
       style="fill:#000000;fill-opacity:0.48178136;stroke:none" />
    <rect
       style="fill:#000000;fill-opacity:0.48178136;stroke:none"
       id="rect4462"
       width="0.70237333"
       height="14.897079"
       x="13.5"
       y="1014.3621"
       ry="0" />
    <path
       id="path4464"
       d="m 14.202372,1014.3621 0,0.4197 3.595254,0 0,-0.4197 -3.595254,0 z"
       style="fill:#000000;fill-opacity:0.48178136;stroke:none"
       inkscape:connector-curvature="0" />
    <path
       inkscape:connector-curvature="0"
       id="path4466"
       d="m 14.202372,1014.3621 0,0.4194 3.595254,0 0,-0.4194 -3.595254,0 z"
       style="fill:#000000;fill-opacity:0.48178136;stroke:none" />
    <rect
       ry="0"
       y="1014.3621"
       x="22.202372"
       height="14.897079"
       width="3.5952542"
       id="rect4470"
       style="fill:url(#linearGradient4480);fill-opacity:1.0;stroke:none" />
    <rect
       style="fill:#000000;fill-opacity:0.48178136;stroke:none"
       id="rect4472"
       width="0.70237333"
       height="14.897079"
       x="25.797626"
       y="1014.3621"
       ry="0" />
    <rect
       ry="0"
       y="1014.3621"
       x="21.5"
       height="14.897079"
       width="0.70237333"
       id="rect4474"
       style="fill:#000000;fill-opacity:0.48178136;stroke:none" />
    <path
       inkscape:connector-curvature="0"
       style="fill:#000000;fill-opacity:0.48178136;stroke:none"
       d="m 22.202372,1014.3621 0,0.4197 3.595254,0 0,-0.4197 -3.595254,0 z"
       id="path4476" />
    <path
       style="fill:#000000;fill-opacity:0.48178136;stroke:none"
       d="m 22.202372,1014.3621 0,0.4194 3.595254,0 0,-0.4194 -3.595254,0 z"
       id="path4478"
       inkscape:connector-curvature="0" />
    <rect
       style="fill:url(#linearGradient4492);fill-opacity:1;stroke:none"
       id="rect4482"
       width="3.5952542"
       height="14.897079"
       x="30.202372"
       y="1014.3621"
       ry="0" />
    <rect
       ry="0"
       y="1014.3621"
       x="33.797626"
       height="14.897079"
       width="0.70237333"
       id="rect4484"
       style="fill:#000000;fill-opacity:0.48178136;stroke:none" />
    <rect
       style="fill:#000000;fill-opacity:0.48178136;stroke:none"
       id="rect4486"
       width="0.70237333"
       height="14.897079"
       x="29.5"
       y="1014.3621"
       ry="0" />
    <path
       id="path4488"
       d="m 30.202372,1014.3621 0,0.4197 3.595254,0 0,-0.4197 -3.595254,0 z"
       style="fill:#000000;fill-opacity:0.48178136;stroke:none"
       inkscape:connector-curvature="0" />
    <path
       inkscape:connector-curvature="0"
       id="path4490"
       d="m 30.202372,1014.3621 0,0.4194 3.595254,0 0,-0.4194 -3.595254,0 z"
       style="fill:#000000;fill-opacity:0.48178136;stroke:none" />
  </g>
</svg>
