<?xml version="1.0" encoding="UTF-8" standalone="no"?>
<!-- Created with Inkscape (http://www.inkscape.org/) -->

<svg
   xmlns:dc="http://purl.org/dc/elements/1.1/"
   xmlns:cc="http://creativecommons.org/ns#"
   xmlns:rdf="http://www.w3.org/1999/02/22-rdf-syntax-ns#"
   xmlns:svg="http://www.w3.org/2000/svg"
   xmlns="http://www.w3.org/2000/svg"
   xmlns:xlink="http://www.w3.org/1999/xlink"
   xmlns:sodipodi="http://sodipodi.sourceforge.net/DTD/sodipodi-0.dtd"
   xmlns:inkscape="http://www.inkscape.org/namespaces/inkscape"
   width="48"
   height="48"
   id="svg2"
   version="1.1"
   inkscape:version="0.48+devel r12913"
   sodipodi:docname="preferences-desktop-launch-feedback.svg">
  <defs
     id="defs4">
    <linearGradient
       id="linearGradient4322">
      <stop
         style="stop-color:#074e8b;stop-opacity:0.99607843"
         offset="0"
         id="stop4324" />
      <stop
         style="stop-color:#2995ed;stop-opacity:0"
         offset="1"
         id="stop4326" />
    </linearGradient>
    <linearGradient
       inkscape:collect="always"
       id="linearGradient3037">
      <stop
         style="stop-color:#ffffff;stop-opacity:1;"
         offset="0"
         id="stop3039" />
      <stop
         style="stop-color:#ffffff;stop-opacity:0;"
         offset="1"
         id="stop3041" />
    </linearGradient>
    <linearGradient
       inkscape:collect="always"
       id="linearGradient1386">
      <stop
         style="stop-color:#f7ab00;stop-opacity:1"
         offset="0"
         id="stop1388" />
      <stop
         style="stop-color:#c03d01;stop-opacity:0.14225942"
         offset="1"
         id="stop1390" />
    </linearGradient>
    <linearGradient
       id="linearGradient1360"
       inkscape:collect="always">
      <stop
         id="stop1362"
         offset="0"
         style="stop-color:#e1b901;stop-opacity:1" />
      <stop
         id="stop1364"
         offset="1"
         style="stop-color:#f9ad02;stop-opacity:0" />
    </linearGradient>
    <linearGradient
       id="linearGradient1338"
       inkscape:collect="always">
      <stop
         id="stop1340"
         offset="0"
         style="stop-color:#f7ab00;stop-opacity:1" />
      <stop
         id="stop1342"
         offset="1"
         style="stop-color:#c03d01;stop-opacity:1" />
    </linearGradient>
    <linearGradient
       inkscape:collect="always"
       id="linearGradient1330">
      <stop
         style="stop-color:#bb2700;stop-opacity:1;"
         offset="0"
         id="stop1332" />
      <stop
         style="stop-color:#c24002;stop-opacity:1"
         offset="1"
         id="stop1334" />
    </linearGradient>
    <linearGradient
       inkscape:collect="always"
       id="linearGradient1261">
      <stop
         style="stop-color:#000000;stop-opacity:1;"
         offset="0"
         id="stop1263" />
      <stop
         style="stop-color:#000000;stop-opacity:0;"
         offset="1"
         id="stop1265" />
    </linearGradient>
    <linearGradient
       inkscape:collect="always"
       id="linearGradient1088">
      <stop
         style="stop-color:#ffffff;stop-opacity:1;"
         offset="0"
         id="stop1090" />
      <stop
         style="stop-color:#ffffff;stop-opacity:0;"
         offset="1"
         id="stop1092" />
    </linearGradient>
    <linearGradient
       id="linearGradient1032"
       inkscape:collect="always">
      <stop
         id="stop1034"
         offset="0"
         style="stop-color:#333333;stop-opacity:1" />
      <stop
         id="stop1036"
         offset="1"
         style="stop-color:#f2f2f2;stop-opacity:1" />
    </linearGradient>
    <linearGradient
       id="linearGradient900"
       inkscape:collect="always">
      <stop
         id="stop902"
         offset="0"
         style="stop-color:#e1ddda;stop-opacity:1" />
      <stop
         id="stop904"
         offset="1"
         style="stop-color:#5c5c5c;stop-opacity:1" />
    </linearGradient>
    <linearGradient
       inkscape:collect="always"
       id="linearGradient888">
      <stop
         style="stop-color:#000000;stop-opacity:1;"
         offset="0"
         id="stop890" />
      <stop
         style="stop-color:#000000;stop-opacity:0;"
         offset="1"
         id="stop892" />
    </linearGradient>
    <linearGradient
       id="linearGradient877"
       inkscape:collect="always">
      <stop
         id="stop879"
         offset="0"
         style="stop-color:#fdfae9;stop-opacity:1" />
      <stop
         id="stop881"
         offset="1"
         style="stop-color:#bee3f3;stop-opacity:1" />
    </linearGradient>
    <linearGradient
       inkscape:collect="always"
       id="linearGradient865">
      <stop
         style="stop-color:#b9dee7;stop-opacity:1"
         offset="0"
         id="stop867" />
      <stop
         style="stop-color:#bee3f3;stop-opacity:1"
         offset="1"
         id="stop869" />
    </linearGradient>
    <linearGradient
       inkscape:collect="always"
       id="linearGradient855">
      <stop
         style="stop-color:#010b17;stop-opacity:1"
         offset="0"
         id="stop857" />
      <stop
         style="stop-color:#2d4563;stop-opacity:1"
         offset="1"
         id="stop859" />
    </linearGradient>
    <linearGradient
       inkscape:collect="always"
       xlink:href="#linearGradient855"
       id="linearGradient861"
       x1="25.63262"
       y1="-1052.3983"
       x2="25.63262"
       y2="-1004.3673"
       gradientUnits="userSpaceOnUse" />
    <linearGradient
       inkscape:collect="always"
       xlink:href="#linearGradient865"
       id="linearGradient871"
       x1="-45.785164"
       y1="11.318836"
       x2="-45.785164"
       y2="-5.6517267"
       gradientUnits="userSpaceOnUse" />
    <linearGradient
       inkscape:collect="always"
       xlink:href="#linearGradient877"
       id="linearGradient875"
       gradientUnits="userSpaceOnUse"
       x1="-45.785164"
       y1="11.318836"
       x2="-45.785164"
       y2="-5.6517267" />
    <linearGradient
       inkscape:collect="always"
       xlink:href="#linearGradient888"
       id="linearGradient894"
       x1="-45.6875"
       y1="1015.6747"
       x2="-45.6875"
       y2="1010.2997"
       gradientUnits="userSpaceOnUse"
       gradientTransform="matrix(0.95238095,0,0,0.95238095,-2.5843071,48.357357)" />
    <linearGradient
       inkscape:collect="always"
       xlink:href="#linearGradient900"
       id="linearGradient898"
       gradientUnits="userSpaceOnUse"
       x1="-45.785164"
       y1="11.318836"
       x2="-45.785164"
       y2="-5.6517267" />
    <linearGradient
       inkscape:collect="always"
       xlink:href="#linearGradient1032"
       id="linearGradient1030"
       x1="-40.25"
       y1="1026.1122"
       x2="-40.25"
       y2="987.23718"
       gradientUnits="userSpaceOnUse" />
    <linearGradient
       inkscape:collect="always"
       xlink:href="#linearGradient1032"
       id="linearGradient1055"
       x1="-40.216698"
       y1="20.246059"
       x2="-40.216698"
       y2="-0.87875611"
       gradientUnits="userSpaceOnUse" />
    <linearGradient
       inkscape:collect="always"
       xlink:href="#linearGradient1088"
       id="linearGradient1081"
       x1="-38.332733"
       y1="-16.323381"
       x2="-38.332733"
       y2="18.743458"
       gradientUnits="userSpaceOnUse" />
    <linearGradient
       inkscape:collect="always"
       xlink:href="#linearGradient1261"
       id="linearGradient1109"
       x1="-40.747028"
       y1="27.317127"
       x2="-40.747028"
       y2="16.533749"
       gradientUnits="userSpaceOnUse" />
    <linearGradient
       inkscape:collect="always"
       xlink:href="#linearGradient1088"
       id="linearGradient1119"
       x1="-39.59798"
       y1="1004.2789"
       x2="-39.59798"
       y2="1020.1129"
       gradientUnits="userSpaceOnUse"
       gradientTransform="matrix(1.0547009,0,0,1.0547009,2.2119658,-55.573659)" />
    <linearGradient
       inkscape:collect="always"
       xlink:href="#linearGradient1088"
       id="linearGradient1143"
       gradientUnits="userSpaceOnUse"
       x1="-47.906483"
       y1="-17.053823"
       x2="-47.906483"
       y2="18.920235"
       gradientTransform="matrix(-1,0,0,1,-80.88142,1004.3622)" />
    <linearGradient
       inkscape:collect="always"
       xlink:href="#linearGradient1088"
       id="linearGradient1187"
       x1="-62.357979"
       y1="10.744311"
       x2="-56.391766"
       y2="12.909826"
       gradientUnits="userSpaceOnUse"
       gradientTransform="translate(-5.65e-4,1004.3622)" />
    <linearGradient
       inkscape:collect="always"
       xlink:href="#linearGradient1088"
       id="linearGradient1191"
       gradientUnits="userSpaceOnUse"
       x1="-62.357979"
       y1="10.744311"
       x2="-56.391766"
       y2="12.909826"
       gradientTransform="matrix(-1,0,0,1,-80.874775,1004.3622)" />
    <linearGradient
       inkscape:collect="always"
       xlink:href="#linearGradient1088"
       id="linearGradient1219"
       x1="-47.552933"
       y1="-17.672543"
       x2="-47.552933"
       y2="18.743458"
       gradientUnits="userSpaceOnUse" />
    <linearGradient
       inkscape:collect="always"
       xlink:href="#linearGradient4142"
       id="linearGradient1267"
       x1="-39.421204"
       y1="1038.3085"
       x2="-39.421204"
       y2="1023.6802"
       gradientUnits="userSpaceOnUse"
       gradientTransform="translate(0,-1004.3622)" />
    <linearGradient
       inkscape:collect="always"
       xlink:href="#linearGradient1261"
       id="linearGradient1275"
       x1="-39.421204"
       y1="1019.0398"
       x2="-39.421204"
       y2="1022.6637"
       gradientUnits="userSpaceOnUse" />
    <linearGradient
       inkscape:collect="always"
       xlink:href="#linearGradient4322"
       id="linearGradient1303"
       x1="-54.022663"
       y1="25.036413"
       x2="-35.974056"
       y2="26.256466"
       gradientUnits="userSpaceOnUse" />
    <linearGradient
       inkscape:collect="always"
       xlink:href="#linearGradient1261"
       id="linearGradient1313"
       gradientUnits="userSpaceOnUse"
       x1="-39.421204"
       y1="1019.0398"
       x2="-39.421204"
       y2="1022.6637"
       gradientTransform="matrix(1,0,0,-1,0,2055.8493)" />
    <linearGradient
       inkscape:collect="always"
       xlink:href="#linearGradient1338"
       id="linearGradient1323"
       gradientUnits="userSpaceOnUse"
       gradientTransform="matrix(0.49378268,0,0,-0.49378268,-20.470247,1540.8718)"
       x1="-40.25"
       y1="1026.1122"
       x2="-40.25"
       y2="987.23718" />
    <linearGradient
       inkscape:collect="always"
       xlink:href="#linearGradient1330"
       id="linearGradient1336"
       x1="-40.039921"
       y1="56.131729"
       x2="-40.039921"
       y2="42.07798"
       gradientUnits="userSpaceOnUse"
       gradientTransform="matrix(0.76729713,0,0,0.76729713,-9.409962,1010.7833)" />
    <linearGradient
       inkscape:collect="always"
       xlink:href="#linearGradient1330"
       id="linearGradient1350"
       gradientUnits="userSpaceOnUse"
       x1="-40.039921"
       y1="56.131729"
       x2="-40.039921"
       y2="42.07798"
       gradientTransform="matrix(0.52511916,0,0,0.52511916,-19.203074,1021.2615)" />
    <linearGradient
       inkscape:collect="always"
       xlink:href="#linearGradient1360"
       id="linearGradient1358"
       x1="-40.658638"
       y1="1056.163"
       x2="-40.658638"
       y2="1038.9271"
       gradientUnits="userSpaceOnUse"
       gradientTransform="matrix(0.76729713,0,0,0.76729713,-9.409962,240.13913)" />
    <linearGradient
       inkscape:collect="always"
       xlink:href="#linearGradient1386"
       id="linearGradient1384"
       gradientUnits="userSpaceOnUse"
       gradientTransform="matrix(0.53274523,0,0,-0.53274523,-18.894693,1580.0795)"
       x1="-41.774353"
       y1="977.83417"
       x2="-41.774353"
       y2="1024.6818" />
    <linearGradient
       inkscape:collect="always"
       xlink:href="#linearGradient1386"
       id="linearGradient1394"
       gradientUnits="userSpaceOnUse"
       gradientTransform="matrix(0.61067042,0,0,-0.61067042,-15.743581,1658.495)"
       x1="-41.774353"
       y1="977.83417"
       x2="-41.774353"
       y2="1009.1328" />
    <radialGradient
       inkscape:collect="always"
       xlink:href="#linearGradient3037"
       id="radialGradient3043"
       cx="35.421631"
       cy="42.055885"
       fx="35.421631"
       fy="42.055885"
       r="0.72920388"
       gradientUnits="userSpaceOnUse" />
    <radialGradient
       inkscape:collect="always"
       xlink:href="#linearGradient3037"
       id="radialGradient3047"
       gradientUnits="userSpaceOnUse"
       cx="35.421631"
       cy="42.055885"
       fx="35.421631"
       fy="42.055885"
       r="0.72920388" />
    <radialGradient
       inkscape:collect="always"
       xlink:href="#linearGradient3037"
       id="radialGradient3051"
       gradientUnits="userSpaceOnUse"
       cx="35.421631"
       cy="42.055885"
       fx="35.421631"
       fy="42.055885"
       r="0.72920388" />
    <radialGradient
       inkscape:collect="always"
       xlink:href="#linearGradient3037"
       id="radialGradient3055"
       gradientUnits="userSpaceOnUse"
       cx="35.421631"
       cy="42.055885"
       fx="35.421631"
       fy="42.055885"
       r="0.72920388" />
    <radialGradient
       inkscape:collect="always"
       xlink:href="#linearGradient3037"
       id="radialGradient3059"
       gradientUnits="userSpaceOnUse"
       cx="35.421631"
       cy="42.055885"
       fx="35.421631"
       fy="42.055885"
       r="0.72920388" />
    <radialGradient
       inkscape:collect="always"
       xlink:href="#linearGradient3037"
       id="radialGradient3063"
       gradientUnits="userSpaceOnUse"
       cx="35.421631"
       cy="42.055885"
       fx="35.421631"
       fy="42.055885"
       r="0.72920388" />
    <radialGradient
       inkscape:collect="always"
       xlink:href="#linearGradient3037"
       id="radialGradient3067"
       gradientUnits="userSpaceOnUse"
       cx="35.421631"
       cy="42.055885"
       fx="35.421631"
       fy="42.055885"
       r="0.72920388" />
    <radialGradient
       inkscape:collect="always"
       xlink:href="#linearGradient3037"
       id="radialGradient3083"
       gradientUnits="userSpaceOnUse"
       cx="35.421631"
       cy="42.055885"
       fx="35.421631"
       fy="42.055885"
       r="0.72920388" />
    <radialGradient
       inkscape:collect="always"
       xlink:href="#linearGradient3037"
       id="radialGradient3095"
       gradientUnits="userSpaceOnUse"
       cx="35.421631"
       cy="42.055885"
       fx="35.421631"
       fy="42.055885"
       r="0.72920388" />
    <radialGradient
       inkscape:collect="always"
       xlink:href="#linearGradient3037"
       id="radialGradient3099"
       gradientUnits="userSpaceOnUse"
       cx="35.421631"
       cy="42.055885"
       fx="35.421631"
       fy="42.055885"
       r="0.72920388" />
    <radialGradient
       inkscape:collect="always"
       xlink:href="#linearGradient3037"
       id="radialGradient3103"
       gradientUnits="userSpaceOnUse"
       cx="35.421631"
       cy="42.055885"
       fx="35.421631"
       fy="42.055885"
       r="0.72920388" />
    <radialGradient
       inkscape:collect="always"
       xlink:href="#linearGradient3037"
       id="radialGradient3107"
       gradientUnits="userSpaceOnUse"
       cx="35.421631"
       cy="42.055885"
       fx="35.421631"
       fy="42.055885"
       r="0.72920388" />
    <radialGradient
       inkscape:collect="always"
       xlink:href="#linearGradient3037"
       id="radialGradient3111"
       gradientUnits="userSpaceOnUse"
       cx="35.421631"
       cy="42.055885"
       fx="35.421631"
       fy="42.055885"
       r="0.72920388" />
    <radialGradient
       inkscape:collect="always"
       xlink:href="#linearGradient3037"
       id="radialGradient3115"
       gradientUnits="userSpaceOnUse"
       cx="35.421631"
       cy="42.055885"
       fx="35.421631"
       fy="42.055885"
       r="0.72920388" />
    <radialGradient
       inkscape:collect="always"
       xlink:href="#linearGradient3037"
       id="radialGradient3119"
       gradientUnits="userSpaceOnUse"
       cx="35.421631"
       cy="42.055885"
       fx="35.421631"
       fy="42.055885"
       r="0.72920388" />
    <radialGradient
       inkscape:collect="always"
       xlink:href="#linearGradient3037"
       id="radialGradient3123"
       gradientUnits="userSpaceOnUse"
       cx="35.421631"
       cy="42.055885"
       fx="35.421631"
       fy="42.055885"
       r="0.72920388" />
    <linearGradient
       id="linearGradient4142">
      <stop
         id="stop4144"
         offset="0"
         style="stop-color:#0a79d6;stop-opacity:0.99803919" />
      <stop
         id="stop4146"
         offset="1"
         style="stop-color:#2995ed;stop-opacity:1" />
    </linearGradient>
  </defs>
  <sodipodi:namedview
     id="base"
     pagecolor="#ffffff"
     bordercolor="#666666"
     borderopacity="1.0"
     inkscape:pageopacity="0.0"
     inkscape:pageshadow="2"
     inkscape:zoom="2.8615729"
     inkscape:cx="13.217608"
     inkscape:cy="5.9937476"
     inkscape:document-units="px"
     inkscape:current-layer="layer1"
     showgrid="false"
     inkscape:window-width="1366"
     inkscape:window-height="671"
     inkscape:window-x="0"
     inkscape:window-y="24"
     inkscape:window-maximized="1"
     showguides="true"
     inkscape:guide-bbox="true" />
  <metadata
     id="metadata7">
    <rdf:RDF>
      <cc:Work
         rdf:about="">
        <dc:format>image/svg+xml</dc:format>
        <dc:type
           rdf:resource="http://purl.org/dc/dcmitype/StillImage" />
        <dc:title />
      </cc:Work>
    </rdf:RDF>
  </metadata>
  <g
     inkscape:label="Capa 1"
     inkscape:groupmode="layer"
     id="layer1"
     transform="translate(0,-1004.3622)">
    <rect
       style="fill:url(#linearGradient861);fill-opacity:1;stroke:none"
       id="rect2991-1"
       width="48"
       height="48"
       x="4.8852542e-07"
       y="-1052.3622"
       ry="1.9445436"
       transform="scale(1,-1)" />
    <path
       inkscape:connector-curvature="0"
       style="fill:#000000;fill-opacity:1;stroke:none"
       d="m -4.8852539e-7,1049.3622 0,1.0625 c 0,1.0773 0.86022299852539,1.9375 1.93749998852539,1.9375 l 44.1250005,0 c 1.077277,0 1.9375,-0.8602 1.9375,-1.9375 l 0,-1.0625 c 0,1.0773 -0.860223,1.9375 -1.9375,1.9375 l -44.1250005,0 C 0.86022251,1051.2997 -4.8852539e-7,1050.4395 -4.8852539e-7,1049.3622 Z"
       id="rect846" />
    <path
       inkscape:connector-curvature="0"
       style="fill:#ffffff;fill-opacity:0.5372549;stroke:none"
       d="m 2.5312495,1005.0186 c -0.917088,0 -1.67114599,0.6395 -1.84374999,1.5 0.33561199,-0.2799 0.77451299,-0.4375 1.24999999,-0.4375 l 44.1250005,0 c 0.475488,0 0.914388,0.1576 1.25,0.4375 -0.172603,-0.8605 -0.926662,-1.5 -1.84375,-1.5 L 2.5312495,1005.0186 Z"
       id="path7515" />
    <path
       inkscape:connector-curvature="0"
       style="fill:#000000;fill-opacity:0.39215686;stroke:none"
       d="m 1.9374995,1004.3623 c -1.07727699,0 -1.93749998852539,0.8602 -1.93749998852539,1.9375 l 0,43.0624 c 0,0.7934 0.48002399852539,1.449 1.15624998852539,1.75 -0.30934099,-0.3333 -0.49999999,-0.7824 -0.49999999,-1.2812 l 0,-42.9374 c 0,-1.0482 0.82689899,-1.875 1.87499999,-1.875 l 42.9375005,0 c 1.048101,0 1.875,0.8268 1.875,1.875 l 0,42.9374 c 0,0.4988 -0.190658,0.9479 -0.5,1.2812 0.676226,-0.301 1.15625,-0.9566 1.15625,-1.75 l 0,-43.0624 c 0,-1.0773 -0.860223,-1.9375 -1.9375,-1.9375 L 1.9374995,1004.3623 Z"
       id="rect4280" />
    <path
       sodipodi:type="arc"
       style="fill:url(#radialGradient3043);fill-opacity:1;stroke:none;opacity:0.69"
       id="path1601"
       sodipodi:cx="35.421631"
       sodipodi:cy="42.055885"
       sodipodi:rx="0.72920388"
       sodipodi:ry="0.72920388"
       d="m 36.150835,42.055885 a 0.72920388,0.72920388 0 0 1 -0.729204,0.729204 0.72920388,0.72920388 0 0 1 -0.729204,-0.729204 0.72920388,0.72920388 0 0 1 0.729204,-0.729204 0.72920388,0.72920388 0 0 1 0.729204,0.729204 z"
       transform="translate(0,1004.3622)" />
    <path
       transform="translate(4,1002.3622)"
       d="m 36.150835,42.055885 a 0.72920388,0.72920388 0 0 1 -0.729204,0.729204 0.72920388,0.72920388 0 0 1 -0.729204,-0.729204 0.72920388,0.72920388 0 0 1 0.729204,-0.729204 0.72920388,0.72920388 0 0 1 0.729204,0.729204 z"
       sodipodi:ry="0.72920388"
       sodipodi:rx="0.72920388"
       sodipodi:cy="42.055885"
       sodipodi:cx="35.421631"
       id="path3045"
       style="opacity:0.68999999;fill:url(#radialGradient3047);fill-opacity:1;stroke:none"
       sodipodi:type="arc" />
    <path
       sodipodi:type="arc"
       style="opacity:0.68999999;fill:url(#radialGradient3051);fill-opacity:1;stroke:none"
       id="path3049"
       sodipodi:cx="35.421631"
       sodipodi:cy="42.055885"
       sodipodi:rx="0.72920388"
       sodipodi:ry="0.72920388"
       d="m 36.150835,42.055885 a 0.72920388,0.72920388 0 0 1 -0.729204,0.729204 0.72920388,0.72920388 0 0 1 -0.729204,-0.729204 0.72920388,0.72920388 0 0 1 0.729204,-0.729204 0.72920388,0.72920388 0 0 1 0.729204,0.729204 z"
       transform="translate(6,1006.3622)" />
    <path
       transform="translate(-6,1006.3622)"
       d="m 36.150835,42.055885 a 0.72920388,0.72920388 0 0 1 -0.729204,0.729204 0.72920388,0.72920388 0 0 1 -0.729204,-0.729204 0.72920388,0.72920388 0 0 1 0.729204,-0.729204 0.72920388,0.72920388 0 0 1 0.729204,0.729204 z"
       sodipodi:ry="0.72920388"
       sodipodi:rx="0.72920388"
       sodipodi:cy="42.055885"
       sodipodi:cx="35.421631"
       id="path3053"
       style="opacity:0.68999999;fill:url(#radialGradient3055);fill-opacity:1;stroke:none"
       sodipodi:type="arc" />
    <path
       sodipodi:type="arc"
       style="opacity:0.68999999;fill:url(#radialGradient3059);fill-opacity:1;stroke:none"
       id="path3057"
       sodipodi:cx="35.421631"
       sodipodi:cy="42.055885"
       sodipodi:rx="0.72920388"
       sodipodi:ry="0.72920388"
       d="m 36.150835,42.055885 a 0.72920388,0.72920388 0 0 1 -0.729204,0.729204 0.72920388,0.72920388 0 0 1 -0.729204,-0.729204 0.72920388,0.72920388 0 0 1 0.729204,-0.729204 0.72920388,0.72920388 0 0 1 0.729204,0.729204 z"
       transform="translate(-6.8125,1005.1435)" />
    <path
       transform="translate(2,992.3622)"
       d="m 36.150835,42.055885 a 0.72920388,0.72920388 0 0 1 -0.729204,0.729204 0.72920388,0.72920388 0 0 1 -0.729204,-0.729204 0.72920388,0.72920388 0 0 1 0.729204,-0.729204 0.72920388,0.72920388 0 0 1 0.729204,0.729204 z"
       sodipodi:ry="0.72920388"
       sodipodi:rx="0.72920388"
       sodipodi:cy="42.055885"
       sodipodi:cx="35.421631"
       id="path3061"
       style="opacity:0.68999999;fill:url(#radialGradient3063);fill-opacity:1;stroke:none"
       sodipodi:type="arc" />
    <path
       sodipodi:type="arc"
       style="opacity:0.68999999;fill:url(#radialGradient3067);fill-opacity:1;stroke:none"
       id="path3065"
       sodipodi:cx="35.421631"
       sodipodi:cy="42.055885"
       sodipodi:rx="0.72920388"
       sodipodi:ry="0.72920388"
       d="m 36.150835,42.055885 a 0.72920388,0.72920388 0 0 1 -0.729204,0.729204 0.72920388,0.72920388 0 0 1 -0.729204,-0.729204 0.72920388,0.72920388 0 0 1 0.729204,-0.729204 0.72920388,0.72920388 0 0 1 0.729204,0.729204 z"
       transform="translate(6,986.3622)" />
    <path
       sodipodi:type="arc"
       style="opacity:0.68999999;fill:url(#radialGradient3083);fill-opacity:1;stroke:none"
       id="path3081"
       sodipodi:cx="35.421631"
       sodipodi:cy="42.055885"
       sodipodi:rx="0.72920388"
       sodipodi:ry="0.72920388"
       d="m 36.150835,42.055885 a 0.72920388,0.72920388 0 0 1 -0.729204,0.729204 0.72920388,0.72920388 0 0 1 -0.729204,-0.729204 0.72920388,0.72920388 0 0 1 0.729204,-0.729204 0.72920388,0.72920388 0 0 1 0.729204,0.729204 z"
       transform="translate(-30,996.3622)" />
    <path
       transform="translate(-20,972.3622)"
       d="m 36.150835,42.055885 a 0.72920388,0.72920388 0 0 1 -0.729204,0.729204 0.72920388,0.72920388 0 0 1 -0.729204,-0.729204 0.72920388,0.72920388 0 0 1 0.729204,-0.729204 0.72920388,0.72920388 0 0 1 0.729204,0.729204 z"
       sodipodi:ry="0.72920388"
       sodipodi:rx="0.72920388"
       sodipodi:cy="42.055885"
       sodipodi:cx="35.421631"
       id="path3093"
       style="opacity:0.68999999;fill:url(#radialGradient3095);fill-opacity:1;stroke:none"
       sodipodi:type="arc" />
    <path
       sodipodi:type="arc"
       style="opacity:0.68999999;fill:url(#radialGradient3099);fill-opacity:1;stroke:none"
       id="path3097"
       sodipodi:cx="35.421631"
       sodipodi:cy="42.055885"
       sodipodi:rx="0.72920388"
       sodipodi:ry="0.72920388"
       d="m 36.150835,42.055885 a 0.72920388,0.72920388 0 0 1 -0.729204,0.729204 0.72920388,0.72920388 0 0 1 -0.729204,-0.729204 0.72920388,0.72920388 0 0 1 0.729204,-0.729204 0.72920388,0.72920388 0 0 1 0.729204,0.729204 z"
       transform="translate(-16,966.3622)" />
    <path
       transform="translate(-8,966.3622)"
       d="m 36.150835,42.055885 a 0.72920388,0.72920388 0 0 1 -0.729204,0.729204 0.72920388,0.72920388 0 0 1 -0.729204,-0.729204 0.72920388,0.72920388 0 0 1 0.729204,-0.729204 0.72920388,0.72920388 0 0 1 0.729204,0.729204 z"
       sodipodi:ry="0.72920388"
       sodipodi:rx="0.72920388"
       sodipodi:cy="42.055885"
       sodipodi:cx="35.421631"
       id="path3101"
       style="opacity:0.68999999;fill:url(#radialGradient3103);fill-opacity:1;stroke:none"
       sodipodi:type="arc" />
    <path
       sodipodi:type="arc"
       style="opacity:0.68999999;fill:url(#radialGradient3107);fill-opacity:1;stroke:none"
       id="path3105"
       sodipodi:cx="35.421631"
       sodipodi:cy="42.055885"
       sodipodi:rx="0.72920388"
       sodipodi:ry="0.72920388"
       d="m 36.150835,42.055885 a 0.72920388,0.72920388 0 0 1 -0.729204,0.729204 0.72920388,0.72920388 0 0 1 -0.729204,-0.729204 0.72920388,0.72920388 0 0 1 0.729204,-0.729204 0.72920388,0.72920388 0 0 1 0.729204,0.729204 z"
       transform="translate(-10,969.1122)" />
    <path
       transform="translate(-32,966.3622)"
       d="m 36.150835,42.055885 a 0.72920388,0.72920388 0 0 1 -0.729204,0.729204 0.72920388,0.72920388 0 0 1 -0.729204,-0.729204 0.72920388,0.72920388 0 0 1 0.729204,-0.729204 0.72920388,0.72920388 0 0 1 0.729204,0.729204 z"
       sodipodi:ry="0.72920388"
       sodipodi:rx="0.72920388"
       sodipodi:cy="42.055885"
       sodipodi:cx="35.421631"
       id="path3109"
       style="opacity:0.68999999;fill:url(#radialGradient3111);fill-opacity:1;stroke:none"
       sodipodi:type="arc" />
    <path
       sodipodi:type="arc"
       style="opacity:0.68999999;fill:url(#radialGradient3115);fill-opacity:1;stroke:none"
       id="path3113"
       sodipodi:cx="35.421631"
       sodipodi:cy="42.055885"
       sodipodi:rx="0.72920388"
       sodipodi:ry="0.72920388"
       d="m 36.150835,42.055885 a 0.72920388,0.72920388 0 0 1 -0.729204,0.729204 0.72920388,0.72920388 0 0 1 -0.729204,-0.729204 0.72920388,0.72920388 0 0 1 0.729204,-0.729204 0.72920388,0.72920388 0 0 1 0.729204,0.729204 z"
       transform="translate(-30,1006.3622)" />
    <path
       transform="translate(-26.507806,1006.3622)"
       d="m 36.150835,42.055885 a 0.72920388,0.72920388 0 0 1 -0.729204,0.729204 0.72920388,0.72920388 0 0 1 -0.729204,-0.729204 0.72920388,0.72920388 0 0 1 0.729204,-0.729204 0.72920388,0.72920388 0 0 1 0.729204,0.729204 z"
       sodipodi:ry="0.72920388"
       sodipodi:rx="0.72920388"
       sodipodi:cy="42.055885"
       sodipodi:cx="35.421631"
       id="path3117"
       style="opacity:0.68999999;fill:url(#radialGradient3119);fill-opacity:1;stroke:none"
       sodipodi:type="arc" />
    <path
       sodipodi:type="arc"
       style="opacity:0.68999999;fill:url(#radialGradient3123);fill-opacity:1;stroke:none"
       id="path3121"
       sodipodi:cx="35.421631"
       sodipodi:cy="42.055885"
       sodipodi:rx="0.72920388"
       sodipodi:ry="0.72920388"
       d="m 36.150835,42.055885 a 0.72920388,0.72920388 0 0 1 -0.729204,0.729204 0.72920388,0.72920388 0 0 1 -0.729204,-0.729204 0.72920388,0.72920388 0 0 1 0.729204,-0.729204 0.72920388,0.72920388 0 0 1 0.729204,0.729204 z"
       transform="translate(8,968.3622)" />
    <path
       transform="translate(8,968.3622)"
       d="m 36.150835,42.055885 a 0.72920388,0.72920388 0 0 1 -0.729204,0.729204 0.72920388,0.72920388 0 0 1 -0.729204,-0.729204 0.72920388,0.72920388 0 0 1 0.729204,-0.729204 0.72920388,0.72920388 0 0 1 0.729204,0.729204 z"
       sodipodi:ry="0.72920388"
       sodipodi:rx="0.72920388"
       sodipodi:cy="42.055885"
       sodipodi:cx="35.421631"
       id="path3125"
       style="opacity:0.68999999;fill:url(#radialGradient3123);fill-opacity:1;stroke:none"
       sodipodi:type="arc" />
    <g
       id="g3162"
       transform="matrix(0.70710678,0.70710678,-0.70710678,0.70710678,734.61401,284.21159)">
      <g
         transform="matrix(0.60760679,0,0,0.60760679,48.803476,408.31233)"
         id="g1396">
        <path
           style="fill:url(#linearGradient1394);fill-opacity:1;stroke:none"
           d="m -48.811488,1042.7013 c 0,0 6.13e-4,11.2877 8.46512,13.3068 8.221367,-2.0191 8.282516,-13.3068 8.282516,-13.3068 l 0,-9.3193 C -35.964907,1031.512 -45.017152,1031.4496 -48.811488,1033.382 Z"
           id="path1392"
           inkscape:connector-curvature="0"
           sodipodi:nodetypes="cccccc" />
        <path
           sodipodi:nodetypes="cccccc"
           inkscape:connector-curvature="0"
           id="path1382"
           d="m -47.74294,1042.8648 c 0,0 5.35e-4,9.8472 7.384922,11.6087 7.17227,-1.7615 7.225618,-11.6087 7.225618,-11.6087 l 0,-8.1301 C -36.535657,1033.1032 -44.432783,1033.0489 -47.74294,1034.7347 Z"
           style="fill:url(#linearGradient1384);fill-opacity:1;stroke:none" />
        <path
           style="fill:url(#linearGradient1323);fill-opacity:1;stroke:none"
           d="m -47.208666,1042.9465 c 0,0 4.96e-4,9.127 6.844822,10.7597 6.647724,-1.6327 6.69717,-10.7597 6.69717,-10.7597 l 0,-7.5356 C -36.821033,1033.8988 -44.140599,1033.8485 -47.208666,1035.4109 Z"
           id="path1321"
           inkscape:connector-curvature="0"
           sodipodi:nodetypes="cccccc" />
        <path
           style="fill:url(#linearGradient1030);fill-opacity:1;stroke:none"
           d="m -54.15017,1008.389 c 0,0 0.001,-18.48355 13.862011,-21.78984 13.462854,3.30629 13.562989,21.78984 13.562989,21.78984 l 0,15.2621 C -33.113318,1026.7131 -47.936774,1026.8144 -54.15017,1023.6511 Z"
           id="rect1011"
           inkscape:connector-curvature="0"
           sodipodi:nodetypes="cccccc" />
        <path
           style="fill:url(#linearGradient1055);fill-opacity:1;stroke:none"
           d="M -53.65625,-0.78125 -60.71875,21.072852 -53.03125,19.757812 z m 26.4375,0 -0.625,20.539062 L -20.15625,21.072852 Z"
           transform="translate(0,1004.3622)"
           id="path1038"
           inkscape:connector-curvature="0"
           sodipodi:nodetypes="cccccccc" />
        <path
           inkscape:connector-curvature="0"
           style="fill:url(#linearGradient1109);fill-opacity:1;stroke:none"
           d="m -26.71875,16.6875 c -4.022587,1.195808 -8.707154,1.90625 -13.75,1.90625 -5.013339,0 -9.683834,-0.692672 -13.6875,-1.875 l 0,2.5625 c 6.213396,3.1633 21.049352,3.062 27.4375,0 L -26.71875,16.6875 Z"
           transform="translate(0,1004.3622)"
           id="path1098" />
        <path
           sodipodi:nodetypes="cccccccc"
           style="opacity:0.34000017;fill:url(#linearGradient1119);fill-opacity:1;stroke:none"
           d="M -54.906677,1009.0015 -59.71875,1024.9166 -54.906677,1022.9104 z m 28.938354,0 0,13.9089 L -21.15625,1024.9166 Z"
           id="path1111"
           inkscape:connector-curvature="0" />
        <path
           sodipodi:nodetypes="ccccc"
           inkscape:connector-curvature="0"
           style="fill:url(#linearGradient1187);fill-opacity:1;stroke:none"
           d="m -55.094315,1007.3622 -5.625,18.0729 3.90625,-2.2916 C -56.356232,1020.1454 -55.758462,1016.8869 -54.906815,1013.9247 Z"
           id="path1163" />
        <path
           sodipodi:nodetypes="ccccc"
           id="path1189"
           d="m -25.781025,1007.3622 5.625,18.0729 -3.90625,1 C -24.519108,1023.437 -25.116878,1016.8869 -25.968525,1013.9247 Z"
           style="fill:url(#linearGradient1191);fill-opacity:1;stroke:none"
           inkscape:connector-curvature="0" />
        <path
           inkscape:connector-curvature="0"
           style="fill:url(#linearGradient1219);fill-opacity:1;stroke:none"
           d="m -40.6875,-17.65625 c -0.510489,0.135264 -0.996224,0.293375 -1.46875,0.46875 -0.02992,0.01302 -0.06399,0.01807 -0.09375,0.03125 -0.273803,0.103593 -0.55115,0.227587 -0.8125,0.34375 -0.363603,0.161986 -0.722352,0.346558 -1.0625,0.53125 -0.312992,0.169947 -0.612481,0.343625 -0.90625,0.53125 -0.05096,0.03256 -0.105857,0.06068 -0.15625,0.09375 -0.01199,0.0079 -0.01929,0.02336 -0.03125,0.03125 -0.288311,0.190406 -0.573752,0.387611 -0.84375,0.59375 -0.119974,0.09156 -0.227305,0.186791 -0.34375,0.28125 -0.180509,0.146452 -0.359062,0.284477 -0.53125,0.4375 -0.133104,0.118289 -0.246764,0.253038 -0.375,0.375 -0.128741,0.122444 -0.282324,0.217828 -0.40625,0.34375 -0.0051,0.0052 0.0051,0.02602 0,0.03125 -0.241661,0.246247 -0.494926,0.491775 -0.71875,0.75 -0.01444,0.01665 -0.01688,0.0458 -0.03125,0.0625 -0.212713,0.247401 -0.427914,0.493252 -0.625,0.75 -0.0226,0.02941 -0.0401,0.06422 -0.0625,0.09375 -0.186142,0.245661 -0.358712,0.497288 -0.53125,0.75 -0.02928,0.04282 -0.06485,0.082 -0.09375,0.125 -0.16253,0.242196 -0.318073,0.502693 -0.46875,0.75 -0.295964,0.4869179 -0.559817,0.9996501 -0.8125,1.5 -0.153544,0.3044181 -0.298948,0.5993626 -0.4375,0.90625 -0.141908,0.3137019 -0.279209,0.6231562 -0.40625,0.9375 -0.09694,0.2402091 -0.19256,0.4792149 -0.28125,0.71875 -0.128279,0.346117 -0.26302,0.6887895 -0.375,1.03125 -0.120096,0.3672258 -0.209832,0.7339446 -0.3125,1.09375 -0.06304,0.2208142 -0.130612,0.4392303 -0.1875,0.65625 -0.0245,0.09343 -0.07035,0.188626 -0.09375,0.28125 -0.108061,0.428948 -0.195199,0.8421294 -0.28125,1.25 -0.0757,0.3578293 -0.126936,0.6939557 -0.1875,1.03125 -0.03481,0.19431449 -0.09477,0.40734843 -0.125,0.59375 -0.01469,0.0907691 -0.01759,0.19250666 -0.03125,0.28125 -0.0613,0.39925281 -0.113719,0.80320268 -0.15625,1.15625 -0.0792,0.6604573 -0.125578,1.1387055 -0.15625,1.59375 -0.0097,0.1437406 -0.02491,0.3802923 -0.03125,0.5 -0.02605,0.4953869 -0.03125,0.78125 -0.03125,0.78125 l 0,15.25 c 0.244817,0.124639 0.541992,0.229229 0.8125,0.34375 0.18303,0.07885 0.341511,0.178506 0.53125,0.25 l 0,-16.25 C -52.8125,3.625 -52.819361,-13.292917 -40.6875,-17.65625 Z"
           transform="translate(0,1004.3622)"
           id="path1197" />
        <path
           id="path1141"
           d="m -38.72517,987.1747 c 11.987884,4.44483 12,21.2188 12,21.2188 l 0,15.25 c -0.244817,0.1246 -0.541992,0.2292 -0.8125,0.3437 l 0,-15.9062 C -27.53767,1008.081 -27.528398,992.04765 -38.72517,987.1747 Z"
           style="fill:url(#linearGradient1143);fill-opacity:1;stroke:none"
           inkscape:connector-curvature="0" />
        <path
           inkscape:connector-curvature="0"
           style="opacity:0.45500004;fill:url(#linearGradient1081);fill-opacity:1;stroke:none"
           d="m -40.3125,-17.75 c -6.757188,8.3203952 -6.725806,29.094621 -6.28125,39.03125 6.478436,0.796411 14.439358,0.198635 19.0625,-1.65625 l 0,-15.90625 c 0,0 0.0093,-16.0333 -11.1875,-20.90625 4.495457,1.666811 7.304333,5.056602 9.0625,8.65625 -1.951174,-4.070433 -5.184121,-7.882546 -10.625,-9.21875 C -40.291105,-17.747649 -40.302659,-17.752366 -40.3125,-17.75 z m 10.65625,9.21875 c 0.293028,0.5999413 0.543812,1.2086056 0.78125,1.8125 C -29.109676,-7.3262959 -29.366962,-7.9277538 -29.65625,-8.53125 z m 0.78125,1.8125 c 0.228889,0.582151 0.44244,1.1771433 0.625,1.75 C -28.430607,-5.5446644 -28.648899,-6.1334034 -28.875,-6.71875 Z"
           id="path1057"
           transform="translate(0,1004.3622)" />
        <path
           sodipodi:type="arc"
           style="fill:#000000;fill-opacity:0.07949793;stroke:none"
           id="path937"
           sodipodi:cx="-45.917747"
           sodipodi:cy="2.7893605"
           sodipodi:rx="8.3526983"
           sodipodi:ry="8.3526983"
           d="m -37.565049,2.7893605 a 8.3526983,8.3526983 0 0 1 -8.352698,8.3526985 8.3526983,8.3526983 0 0 1 -8.352699,-8.3526985 8.3526983,8.3526983 0 0 1 8.352699,-8.3526983 8.3526983,8.3526983 0 0 1 8.352698,8.3526983 z"
           transform="matrix(1.2072146,0,0,1.2072146,14.994905,1003.7842)" />
        <path
           transform="matrix(1.1832761,0,0,1.1832761,13.895703,1003.851)"
           d="m -37.565049,2.7893605 a 8.3526983,8.3526983 0 0 1 -8.352698,8.3526985 8.3526983,8.3526983 0 0 1 -8.352699,-8.3526985 8.3526983,8.3526983 0 0 1 8.352699,-8.3526983 8.3526983,8.3526983 0 0 1 8.352698,8.3526983 z"
           sodipodi:ry="8.3526983"
           sodipodi:rx="8.3526983"
           sodipodi:cy="2.7893605"
           sodipodi:cx="-45.917747"
           id="path896"
           style="fill:url(#linearGradient898);fill-opacity:1;stroke:none"
           sodipodi:type="arc" />
        <path
           transform="matrix(0.96777101,0,0,0.96777101,4.000195,1004.452)"
           d="m -37.565049,2.7893605 a 8.3526983,8.3526983 0 0 1 -8.352698,8.3526985 8.3526983,8.3526983 0 0 1 -8.352699,-8.3526985 8.3526983,8.3526983 0 0 1 8.352699,-8.3526983 8.3526983,8.3526983 0 0 1 8.352698,8.3526983 z"
           sodipodi:ry="8.3526983"
           sodipodi:rx="8.3526983"
           sodipodi:cy="2.7893605"
           sodipodi:cx="-45.917747"
           id="path941"
           style="fill:#000000;fill-opacity:0.1589958;stroke:none"
           sodipodi:type="arc" />
        <g
           id="g906"
           transform="translate(5.8778247,-0.39772604)">
          <path
             transform="matrix(0.95238095,0,0,0.95238095,-2.5843071,1004.8928)"
             d="m -37.565049,2.7893605 a 8.3526983,8.3526983 0 0 1 -8.352698,8.3526985 8.3526983,8.3526983 0 0 1 -8.352699,-8.3526985 8.3526983,8.3526983 0 0 1 8.352699,-8.3526983 8.3526983,8.3526983 0 0 1 8.352698,8.3526983 z"
             sodipodi:ry="8.3526983"
             sodipodi:rx="8.3526983"
             sodipodi:cy="2.7893605"
             sodipodi:cx="-45.917747"
             id="path863"
             style="fill:url(#linearGradient871);fill-opacity:1;stroke:none"
             sodipodi:type="arc" />
          <path
             sodipodi:type="arc"
             style="fill:url(#linearGradient875);fill-opacity:1;stroke:none"
             id="path873"
             sodipodi:cx="-45.917747"
             sodipodi:cy="2.7893605"
             sodipodi:rx="8.3526983"
             sodipodi:ry="8.3526983"
             d="m -37.565049,2.7893605 a 8.3526983,8.3526983 0 0 1 -8.352698,8.3526985 8.3526983,8.3526983 0 0 1 -8.352699,-8.3526985 8.3526983,8.3526983 0 0 1 8.352699,-8.3526983 8.3526983,8.3526983 0 0 1 8.352698,8.3526983 z"
             transform="matrix(0.8383602,0,0,0.8383602,-7.8198836,1005.2108)" />
          <path
             inkscape:connector-curvature="0"
             id="path883"
             d="m -53.298593,1007.7107 c -0.0021,0.071 -0.02976,0.1375 -0.02976,0.2084 0,3.8675 3.156398,7.0238 7.023809,7.0238 3.867412,0 6.994049,-3.1563 6.994049,-7.0238 0,-0.07 0.0021,-0.1385 0,-0.2084 -0.09571,3.7841 -3.18696,6.8452 -6.994049,6.8452 C -50.111113,1014.5559 -53.20208,1011.494 -53.298593,1007.7107 Z"
             style="opacity:0.172;fill:url(#linearGradient894);fill-opacity:1;stroke:none" />
        </g>
        <g
           id="g1242">
          <path
             sodipodi:nodetypes="cccccccccccccc"
             inkscape:connector-curvature="0"
             id="path1226"
             transform="translate(0,1004.3622)"
             d="m -60.53125,21.104102 -0.1875,0.46875 0.125,0.03125 0.0625,-0.15625 7.5,-1.354102 L -53.03125,19.75 z m 40.1875,0 -7.5,-1.354102 0,0.34375 7.5,1.354102 0.0625,0.15625 L -20.15625,21.572852 Z"
             style="fill:#000000;fill-opacity:0.23614735;stroke:none" />
          <path
             sodipodi:nodetypes="cccccccccccccc"
             inkscape:connector-curvature="0"
             style="fill:#000000;fill-opacity:0.11820493;stroke:none"
             d="m -60.53125,1025.8088 -0.1875,0.4688 0.125,0.031 0.0625,-0.1562 7.5,-1.3541 L -53.03125,1024.4545 z m 40.1875,0 -7.5,-1.3541 0,0.3438 7.5,1.3541 0.0625,0.1562 L -20.15625,1026.2778 Z"
             id="path1238" />
          <path
             sodipodi:nodetypes="cccccccccccccc"
             id="path1240"
             d="m -60.53125,1026.1527 -0.1875,0.4688 0.125,0.031 0.0625,-0.1562 7.5,-1.3541 L -53.03125,1024.7984 z m 40.1875,0 -7.5,-1.3541 0,0.3438 7.5,1.3541 0.0625,0.1562 L -20.15625,1026.6217 Z"
             style="fill:#000000;fill-opacity:0.05882353;stroke:none"
             inkscape:connector-curvature="0" />
        </g>
        <path
           inkscape:connector-curvature="0"
           style="fill:url(#linearGradient1275);fill-opacity:1;stroke:none"
           d="m -40.5,1020.8935 c -3.571386,-0.01 -7.136063,0.3448 -10.03125,1.0625 3.106421,0.6297 6.490924,1 10.0625,1 3.532289,0 6.892404,-0.349 9.96875,-0.9688 C -33.420055,1021.2871 -36.95739,1020.9019 -40.5,1020.8935 Z"
           id="path1259" />
        <path
           style="fill:url(#linearGradient1267);fill-opacity:1.0;stroke:none"
           d="m -54.03125,19.34375 2.71875,12.375 c 3.312555,0.73222 6.97348,1.125 10.84375,1.125 3.89305,0 7.579981,-0.413008 10.90625,-1.15625 l 2.71875,-12.34375 C -33.255223,22.33025 -47.788719,22.42595 -54.03125,19.34375 Z"
           transform="translate(0,1004.3622)"
           id="path1247"
           inkscape:connector-curvature="0"
           sodipodi:nodetypes="ccsccc" />
        <path
           inkscape:connector-curvature="0"
           style="fill:url(#linearGradient1303);fill-opacity:1;stroke:none"
           d="m -54.03125,19.34375 2.71875,12.375 c 3.312555,0.73222 6.97348,1.125 10.84375,1.125 3.89305,0 7.579981,-0.413008 10.90625,-1.15625 l 2.71875,-12.34375 C -33.255223,22.33025 -47.788719,22.42595 -54.03125,19.34375 z m 1.5625,1.34375 c 5.324089,2.6287 17.719325,2.5472 23.1875,0 l -2.3125,10.53125 c -2.836887,0.6338 -5.99222,1 -9.3125,1 -3.300852,0 -6.424809,-0.34435 -9.25,-0.96875 L -52.46875,20.6875 Z"
           transform="translate(0,1004.3622)"
           id="path1292" />
        <path
           id="path1311"
           d="m -40.5,1034.9558 c -3.571386,0.01 -7.136063,-0.3448 -10.03125,-1.0625 3.106421,-0.6297 6.490924,-1 10.0625,-1 3.532289,0 6.892404,0.349 9.96875,0.9688 C -33.420055,1034.5622 -36.95739,1034.9474 -40.5,1034.9558 Z"
           style="fill:url(#linearGradient1313);fill-opacity:1;stroke:none"
           inkscape:connector-curvature="0" />
        <path
           style="fill:url(#linearGradient1336);fill-opacity:1;stroke:none"
           d="m -47.199346,1042.9379 c 0,0 -0.01058,9.1335 6.833741,10.7661 6.647723,-1.6326 6.689871,-10.7661 6.689871,-10.7661 -0.125203,1.9355 -0.985499,8.8137 -6.689871,10.2146 C -46.238682,1051.7516 -47.080975,1044.8734 -47.199346,1042.9379 Z"
           id="path1325"
           inkscape:connector-curvature="0" />
        <path
           sodipodi:nodetypes="cccccc"
           inkscape:connector-curvature="0"
           id="path1344"
           d="m -45.071571,1043.2733 c 0,0 3.38e-4,6.2464 4.684426,7.3637 4.549537,-1.1173 4.583376,-7.3637 4.583376,-7.3637 l 0,-5.1572 C -37.962533,1037.0813 -42.971862,1037.0469 -45.071571,1038.1161 Z"
           style="fill:url(#linearGradient1358);fill-opacity:1;stroke:none" />
        <path
           id="path1346"
           d="m -45.065194,1043.2675 c 0,0 -0.0072,6.2507 4.676843,7.368 4.549537,-1.1173 4.578383,-7.368 4.578383,-7.368 -0.08569,1.3246 -0.674451,6.0318 -4.578383,6.9905 C -44.407739,1049.2993 -44.984183,1044.5921 -45.065194,1043.2675 Z"
           style="fill:url(#linearGradient1350);fill-opacity:1;stroke:none"
           inkscape:connector-curvature="0" />
      </g>
      <g
         id="g3156">
        <g
           style="font-size:6.09137344px;font-style:normal;font-variant:normal;font-weight:900;font-stretch:condensed;text-align:start;line-height:125%;letter-spacing:0px;word-spacing:0px;writing-mode:lr-tb;text-anchor:start;fill:#000000;fill-opacity:0.35983264;stroke:none;font-family:Helvetica Neue;-inkscape-font-specification:Helvetica Neue Heavy Condensed"
           id="text3127" />
      </g>
    </g>
  </g>
</svg>
