<?xml version="1.0" encoding="UTF-8" standalone="no"?>
<!-- Created with Inkscape (http://www.inkscape.org/) -->

<svg
   xmlns:dc="http://purl.org/dc/elements/1.1/"
   xmlns:cc="http://creativecommons.org/ns#"
   xmlns:rdf="http://www.w3.org/1999/02/22-rdf-syntax-ns#"
   xmlns:svg="http://www.w3.org/2000/svg"
   xmlns="http://www.w3.org/2000/svg"
   xmlns:xlink="http://www.w3.org/1999/xlink"
   xmlns:sodipodi="http://sodipodi.sourceforge.net/DTD/sodipodi-0.dtd"
   xmlns:inkscape="http://www.inkscape.org/namespaces/inkscape"
   width="48"
   height="48"
   id="svg2"
   version="1.1"
   inkscape:version="0.48+devel r12487"
   sodipodi:docname="xfce4-backdrop.svg">
  <defs
     id="defs4">
    <linearGradient
       inkscape:collect="always"
       id="linearGradient8511">
      <stop
         style="stop-color:#ffffff;stop-opacity:1;"
         offset="0"
         id="stop8513" />
      <stop
         style="stop-color:#ffffff;stop-opacity:0;"
         offset="1"
         id="stop8515" />
    </linearGradient>
    <linearGradient
       inkscape:collect="always"
       id="linearGradient8496">
      <stop
         style="stop-color:#585a60;stop-opacity:1"
         offset="0"
         id="stop8498" />
      <stop
         style="stop-color:#787d85;stop-opacity:0"
         offset="1"
         id="stop8500" />
    </linearGradient>
    <linearGradient
       id="linearGradient8483"
       inkscape:collect="always">
      <stop
         id="stop8485"
         offset="0"
         style="stop-color:#868c95;stop-opacity:1" />
      <stop
         id="stop8487"
         offset="1"
         style="stop-color:#c8c8c8;stop-opacity:1" />
    </linearGradient>
    <linearGradient
       id="linearGradient6957"
       inkscape:collect="always">
      <stop
         id="stop6959"
         offset="0"
         style="stop-color:#1a1a1a;stop-opacity:1" />
      <stop
         id="stop6961"
         offset="1"
         style="stop-color:#333333;stop-opacity:1" />
    </linearGradient>
    <linearGradient
       inkscape:collect="always"
       id="linearGradient6923">
      <stop
         style="stop-color:#ffffff;stop-opacity:1;"
         offset="0"
         id="stop6925" />
      <stop
         style="stop-color:#ffffff;stop-opacity:0;"
         offset="1"
         id="stop6927" />
    </linearGradient>
    <linearGradient
       inkscape:collect="always"
       id="linearGradient6899">
      <stop
         style="stop-color:#ffffff;stop-opacity:1;"
         offset="0"
         id="stop6901" />
      <stop
         style="stop-color:#ffffff;stop-opacity:0;"
         offset="1"
         id="stop6903" />
    </linearGradient>
    <linearGradient
       inkscape:collect="always"
       id="linearGradient6891">
      <stop
         style="stop-color:#000000;stop-opacity:1;"
         offset="0"
         id="stop6893" />
      <stop
         style="stop-color:#000000;stop-opacity:0;"
         offset="1"
         id="stop6895" />
    </linearGradient>
    <linearGradient
       id="linearGradient4180"
       inkscape:collect="always">
      <stop
         id="stop4182"
         offset="0"
         style="stop-color:#03a5fe;stop-opacity:1" />
      <stop
         id="stop4186"
         offset="1"
         style="stop-color:#0251a1;stop-opacity:1" />
    </linearGradient>
    <linearGradient
       inkscape:collect="always"
       xlink:href="#linearGradient6957"
       id="linearGradient880"
       x1="19.499998"
       y1="-1052.3934"
       x2="19.499998"
       y2="-1004.3622"
       gradientUnits="userSpaceOnUse" />
    <linearGradient
       inkscape:collect="always"
       xlink:href="#linearGradient4180"
       id="linearGradient5086"
       x1="24"
       y1="35.43816"
       x2="24"
       y2="0.085409269"
       gradientUnits="userSpaceOnUse" />
    <linearGradient
       inkscape:collect="always"
       xlink:href="#linearGradient8483"
       id="linearGradient5113"
       x1="15.58744"
       y1="22.321722"
       x2="28.878336"
       y2="7.3226414"
       gradientUnits="userSpaceOnUse"
       gradientTransform="translate(0,1004.8916)" />
    <linearGradient
       inkscape:collect="always"
       id="linearGradient1126">
      <stop
         style="stop-color:#b3b3b3;stop-opacity:1"
         offset="0"
         id="stop1128" />
      <stop
         style="stop-color:#e6e6e6;stop-opacity:1"
         offset="1"
         id="stop1130" />
    </linearGradient>
    <linearGradient
       inkscape:collect="always"
       xlink:href="#linearGradient6891"
       id="linearGradient6897"
       x1="44.046967"
       y1="8.7039871"
       x2="36.236076"
       y2="16.514875"
       gradientUnits="userSpaceOnUse"
       gradientTransform="translate(0,1004.8916)" />
    <linearGradient
       inkscape:collect="always"
       xlink:href="#linearGradient6899"
       id="linearGradient6905"
       x1="29.864374"
       y1="7.0498805"
       x2="25.564398"
       y2="11.855893"
       gradientUnits="userSpaceOnUse"
       gradientTransform="translate(0,1004.8916)" />
    <linearGradient
       inkscape:collect="always"
       xlink:href="#linearGradient6923"
       id="linearGradient6929"
       x1="19.131672"
       y1="33.879005"
       x2="19.131672"
       y2="28.185053"
       gradientUnits="userSpaceOnUse" />
    <linearGradient
       inkscape:collect="always"
       xlink:href="#linearGradient6899"
       id="linearGradient6935"
       gradientUnits="userSpaceOnUse"
       x1="0.50019109"
       y1="31.180216"
       x2="3.1011589"
       y2="21.473272" />
    <linearGradient
       inkscape:collect="always"
       xlink:href="#linearGradient6891"
       id="linearGradient6942"
       gradientUnits="userSpaceOnUse"
       x1="19.291573"
       y1="19.905983"
       x2="31.213551"
       y2="5.2290015"
       gradientTransform="translate(0,1004.8916)" />
    <linearGradient
       inkscape:collect="always"
       xlink:href="#linearGradient1126"
       id="linearGradient6953"
       gradientUnits="userSpaceOnUse"
       x1="19.499998"
       y1="-1052.3934"
       x2="19.499998"
       y2="-1004.3622"
       gradientTransform="matrix(1,0,0,-1,0,-1004.3622)" />
    <linearGradient
       inkscape:collect="always"
       xlink:href="#linearGradient8496"
       id="linearGradient8493"
       gradientUnits="userSpaceOnUse"
       x1="20.037651"
       y1="19.071287"
       x2="23.164642"
       y2="15.944296"
       gradientTransform="translate(0,1004.8916)" />
    <linearGradient
       inkscape:collect="always"
       xlink:href="#linearGradient8511"
       id="linearGradient8517"
       x1="-0.80524611"
       y1="1000.8264"
       x2="18.601189"
       y2="1024.4202"
       gradientUnits="userSpaceOnUse" />
  </defs>
  <sodipodi:namedview
     id="base"
     pagecolor="#ffffff"
     bordercolor="#666666"
     borderopacity="1.0"
     inkscape:pageopacity="0.0"
     inkscape:pageshadow="2"
     inkscape:zoom="1.5523204"
     inkscape:cx="-58.946186"
     inkscape:cy="-6.6667797"
     inkscape:document-units="px"
     inkscape:current-layer="layer1"
     showgrid="false"
     inkscape:window-width="1366"
     inkscape:window-height="718"
     inkscape:window-x="0"
     inkscape:window-y="30"
     inkscape:window-maximized="1"
     showguides="true"
     inkscape:guide-bbox="true">
    <inkscape:grid
       type="xygrid"
       id="grid3850" />
  </sodipodi:namedview>
  <metadata
     id="metadata7">
    <rdf:RDF>
      <cc:Work
         rdf:about="">
        <dc:format>image/svg+xml</dc:format>
        <dc:type
           rdf:resource="http://purl.org/dc/dcmitype/StillImage" />
        <dc:title />
      </cc:Work>
    </rdf:RDF>
  </metadata>
  <g
     inkscape:label="Capa 1"
     inkscape:groupmode="layer"
     id="layer1"
     transform="translate(0,-1004.3622)">
    <rect
       style="fill:url(#linearGradient880);fill-opacity:1.0;stroke:none"
       id="rect2991-1"
       width="48"
       height="48"
       x="0"
       y="-1052.3622"
       ry="1.9445436"
       transform="scale(1,-1)" />
    <path
       style="fill:url(#linearGradient6953);fill-opacity:1;stroke:none"
       d="M 8.15625,25.4375 C 5.2961896,25.547941 2.4097258,27.365694 0,30.375 L 0,46.0625 C 0,47.139777 0.86022285,48 1.9375,48 l 44.125,0 C 47.139777,48 48,47.139777 48,46.0625 l 0,-13.625 c -2.249297,1.095045 -4.836652,2.043145 -6.09375,1.78125 -2.733096,-0.569395 -1.700178,-3.525912 -3.75,-6.03125 -2.049822,-2.505338 -9.360098,0.0095 -13.6875,4.90625 -4.327402,4.896797 -4.667815,1.359209 -9.90625,-4.5625 C 12.58534,26.296199 10.380741,25.351602 8.15625,25.4375 Z"
       transform="translate(0,1004.3622)"
       id="rect6951"
       inkscape:connector-curvature="0"
       sodipodi:nodetypes="scsssscsssss" />
    <path
       style="fill:url(#linearGradient6942);fill-opacity:1;stroke:none"
       d="m 7.53125,1004.8916 c -0.06206,0.011 -0.125797,0.02 -0.1875,0.031 6.544243,0.743 11.71875,11.7377 11.71875,18.375 l 0,1.5937 c 18.251416,-4.8904 28.394195,1.7773 28.9375,12.4063 l 0,-1.375 0,-7.5938 c -2.481267,-12.8347 -17.327284,-21.52 -30.40625,-23.4375 L 7.53125,1004.8916 Z"
       id="path6940"
       inkscape:connector-curvature="0" />
    <path
       style="fill:url(#linearGradient5086);fill-opacity:1;stroke:none"
       d="M 1.9375 0 C 0.86022285 0 0 0.86022285 0 1.9375 L 0 30.375 C 4.283957 25.025122 10.043277 23.422563 14.5625 28.53125 C 19.800935 34.452959 20.141348 37.990547 24.46875 33.09375 C 28.796152 28.196952 36.106428 25.682162 38.15625 28.1875 C 40.206072 30.692838 39.173154 33.649355 41.90625 34.21875 C 43.197902 34.487844 45.709063 33.476187 48 32.34375 C 47.443778 22.192201 38.09223 15.665211 21.28125 19.4375 C 20.551591 19.601231 19.820216 19.796971 19.0625 20 L 19.0625 18.40625 C 19.0625 17.972907 19.04305 17.528926 19 17.0625 C 18.96055 16.630786 18.887078 16.203388 18.8125 15.75 C 18.8077 15.72056 18.8175 15.68576 18.8125 15.65625 C 18.73869 15.220312 18.635741 14.762136 18.53125 14.3125 C 18.5194 14.2616 18.51224 14.207282 18.5 14.15625 C 18.396812 13.725312 18.285997 13.281518 18.15625 12.84375 C 18.13514 12.77275 18.11554 12.696106 18.09375 12.625 C 17.96298 12.197378 17.810872 11.772409 17.65625 11.34375 C 17.62588 11.25957 17.59376 11.177865 17.5625 11.09375 C 17.551138 11.063178 17.542729 11.03056 17.53125 11 C 17.350199 10.517996 17.146765 10.03804 16.9375 9.5625 C 16.784728 9.2153366 16.635774 8.8719367 16.46875 8.53125 C 16.448497 8.489924 16.426707 8.4474604 16.40625 8.40625 C 16.206308 8.0034787 16.000077 7.6081264 15.78125 7.21875 C 15.740208 7.1457732 15.697933 7.0724143 15.65625 7 C 15.584066 6.8745051 15.511577 6.7487001 15.4375 6.625 C 15.235964 6.2886609 15.027531 5.9772442 14.8125 5.65625 C 14.727278 5.5285878 14.649765 5.4061904 14.5625 5.28125 C 14.511284 5.2081376 14.458155 5.1346212 14.40625 5.0625 C 14.161167 4.7219637 13.884836 4.3785764 13.625 4.0625 C 13.610483 4.0448585 13.608311 4.0175589 13.59375 4 C 13.384997 3.7479635 13.186351 3.5152041 12.96875 3.28125 C 12.938085 3.2482368 12.905835 3.220132 12.875 3.1875 C 12.623102 2.9209214 12.356514 2.6769263 12.09375 2.4375 C 12.039279 2.388002 11.992418 2.3295001 11.9375 2.28125 C 11.897762 2.2462184 11.852469 2.2218669 11.8125 2.1875 C 11.583901 1.9909402 11.329597 1.8299321 11.09375 1.65625 C 11.004569 1.5908809 10.933919 1.4994036 10.84375 1.4375 C 10.678937 1.3236402 10.511735 1.2268037 10.34375 1.125 C 10.136967 1.0001925 9.9300708 0.85544748 9.71875 0.75 C 9.1429038 0.46147081 8.5738986 0.2533854 7.96875 0.125 C 7.7695488 0.08299393 7.5456939 0.05417697 7.34375 0.03125 C 7.1122453 0.00496695 6.8910457 0 6.65625 0 L 1.9375 0 z "
       transform="translate(0,1004.3622)"
       id="rect4188" />
    <path
       sodipodi:nodetypes="cscccc"
       inkscape:connector-curvature="0"
       id="path5251"
       d="m 7.34375,1006.1226 c 6.544243,0.743 11.71875,11.7377 11.71875,18.375 l 0,1.5937 c 18.251416,-4.8904 28.394195,1.7773 28.9375,12.4063 l 0,-1.375 C 46.035834,1021.6173 18.769349,1007.4882 7.34375,1006.1226 Z"
       style="fill:#000000;fill-opacity:0.05882353;stroke:none" />
    <path
       style="fill:#000000;fill-opacity:0.11764706;stroke:none"
       d="m 7.34375,1005.7226 c 6.544243,0.743 11.71875,11.7377 11.71875,18.375 l 0,1.5937 c 18.251416,-4.8904 28.394195,1.7773 28.9375,12.4063 l 0,-1.375 C 46.035834,1021.2173 18.769349,1007.0882 7.34375,1005.7226 Z"
       id="path5247"
       inkscape:connector-curvature="0"
       sodipodi:nodetypes="cscccc" />
    <path
       sodipodi:nodetypes="cscccc"
       inkscape:connector-curvature="0"
       id="path5245"
       d="m 7.34375,1005.3226 c 6.544243,0.743 11.71875,11.7377 11.71875,18.375 l 0,1.5937 c 18.251416,-4.8904 28.394195,1.7773 28.9375,12.4063 l 0,-1.375 C 46.035834,1020.8173 18.769349,1006.6882 7.34375,1005.3226 Z"
       style="fill:#000000;fill-opacity:0.23529412;stroke:none" />
    <path
       style="fill:url(#linearGradient6929);fill-opacity:1;stroke:none"
       d="M 8.15625 17.71875 C 5.2961896 17.829192 2.4097258 19.678181 0 22.6875 L 0 28.375 C 4.283957 23.0251 10.043277 21.42255 14.5625 26.53125 C 19.800935 32.45295 20.141348 35.99045 24.46875 31.09375 C 28.796152 26.19695 36.106428 23.6822 38.15625 26.1875 C 40.206072 28.6928 39.173154 31.64935 41.90625 32.21875 C 43.162832 32.480446 45.573163 31.531941 47.8125 30.4375 C 47.509605 28.651946 46.893065 26.994399 46 25.53125 C 44.362175 26.220384 42.826602 26.722994 41.90625 26.53125 C 39.173154 25.96185 40.206072 23.0053 38.15625 20.5 C 36.106428 17.9947 28.796152 20.50945 24.46875 25.40625 C 20.141348 30.30305 19.800935 26.76555 14.5625 20.84375 C 12.58534 18.608738 10.380741 17.63285 8.15625 17.71875 z "
       transform="translate(0,1004.3622)"
       id="path6907" />
    <path
       style="fill:url(#linearGradient5113);fill-opacity:1;stroke:none"
       d="m 7.34375,1004.9229 c 6.544243,0.743 11.71875,11.7377 11.71875,18.375 l 0,1.5937 c 18.251416,-4.8904 28.394195,1.7773 28.9375,12.4063 l 0,-1.375 C 46.035834,1020.4176 18.769349,1006.2885 7.34375,1004.9229 Z"
       id="rect5094"
       inkscape:connector-curvature="0"
       sodipodi:nodetypes="cscccc" />
    <path
       style="fill:#02427d;fill-opacity:0.3137255;stroke:none"
       d="M 8.15625 24.625 C 5.2961896 24.735442 2.4097258 26.553181 0 29.5625 L 0 30.375 C 4.283957 25.025122 10.043277 23.422563 14.5625 28.53125 C 19.800935 34.452959 20.141348 37.990547 24.46875 33.09375 C 28.796152 28.196952 36.106428 25.682162 38.15625 28.1875 C 40.206072 30.692838 39.173154 33.649355 41.90625 34.21875 C 43.197902 34.487844 45.709063 33.476187 48 32.34375 C 47.985502 32.079153 47.963925 31.822054 47.9375 31.5625 C 45.663464 32.682488 43.186212 33.672915 41.90625 33.40625 C 39.173154 32.83685 40.206072 29.8803 38.15625 27.375 C 36.106428 24.8697 28.796152 27.38445 24.46875 32.28125 C 20.141348 37.17805 19.800935 33.64055 14.5625 27.71875 C 12.58534 25.483738 10.380741 24.5391 8.15625 24.625 z "
       transform="translate(0,1004.3622)"
       id="path5262" />
    <path
       style="fill:url(#linearGradient8493);fill-opacity:1;stroke:none"
       d="m 17.59375,1016.0791 c 0.930633,2.5314 1.46875,5.1003 1.46875,7.2188 l 0,1.5937 c 4.536326,-1.2155 8.582143,-1.7208 12.09375,-1.625 C 28.455,1020.4276 24.22389,1017.6413 17.59375,1016.0791 Z"
       id="path8489"
       inkscape:connector-curvature="0" />
    <path
       style="fill:url(#linearGradient6905);fill-opacity:1;stroke:none"
       d="m 7.96875,1005.0166 c 2.074272,0.4401 -1.1970647,-1.8043 0.4435053,0.174 7.0859417,3.4087 20.0932557,12.0087 21.8377447,18.076 1.868215,-0 3.572274,0.1613 5.15625,0.4688 0.524117,0.1017 1.038719,0.2104 1.53125,0.3437 -1.591107,-3.0783 -6.469677,-9.6551 -14.9375,-14.1875 -0.01241,-0.01 -0.01884,-0.025 -0.03125,-0.031 -0.15042,-0.073 -0.36252,-0.1723 -0.53125,-0.25 -0.380865,-0.1811 -0.747463,-0.3279 -1.125,-0.5 -2.339978,-0.9982 -5.536181,-2.1768 -8.5,-3.2188 C 10.414257,1005.494 9.1225469,1005.1908 7.96875,1005.0166 Z"
       id="path6862"
       inkscape:connector-curvature="0"
       sodipodi:nodetypes="cccsccccccc" />
    <path
       style="fill:url(#linearGradient8517);fill-opacity:1;stroke:none"
       d="m 7.34375,1004.9229 c 6.544243,0.743 11.71875,11.7377 11.71875,18.375 l 0,1.5937 c 0.275281,-0.074 0.540913,-0.1502 0.8125,-0.2187 l 0,-1.375 c 0,-6.3096 -4.69762,-16.5526 -10.78125,-18.1875 C 8.5069549,1005.0479 7.9158931,1004.9715 7.34375,1004.9229 Z"
       id="path5121"
       inkscape:connector-curvature="0"
       sodipodi:nodetypes="csccscc" />
    <path
       style="fill:url(#linearGradient6935);fill-opacity:1;stroke:none"
       d="M 4.84375 18.59375 C 3.1312374 19.434362 1.4715292 20.849822 0 22.6875 L 0 28.375 C 2.2711597 25.538726 4.9603711 23.788141 7.65625 23.5 L 4.84375 18.59375 z "
       transform="translate(0,1004.3622)"
       id="path6931" />
    <path
       style="fill:url(#linearGradient6897);fill-opacity:1;stroke:none"
       d="m 26.21875,1012.0791 c 4.834973,4.0792 7.697809,8.2111 9.40625,11.6875 7.767178,1.5863 12.028538,6.7532 12.375,13.5313 l 0,-1.375 c -0.563796,-4.4507 -3.208549,-8.7954 -6.96875,-12.75 -0.328552,-0.3455 -0.686467,-0.6919 -1.03125,-1.0313 -0.188671,-0.1855 -0.369255,-0.3788 -0.5625,-0.5625 -0.243648,-0.2317 -0.499473,-0.4589 -0.75,-0.6875 -0.05366,-0.049 -0.102285,-0.1074 -0.15625,-0.1562 -0.401657,-0.3629 -0.832496,-0.7079 -1.25,-1.0625 -0.433954,-0.3686 -0.863321,-0.7347 -1.3125,-1.0938 -0.04059,-0.032 -0.0843,-0.061 -0.125,-0.094 -0.491627,-0.3909 -0.992855,-0.7775 -1.5,-1.1563 -0.507145,-0.3788 -1.042349,-0.7589 -1.5625,-1.125 -0.201079,-0.1415 -0.390988,-0.2979 -0.59375,-0.4375 -0.414358,-0.2848 -0.829493,-0.5673 -1.25,-0.8437 -0.239967,-0.1579 -0.477111,-0.3138 -0.71875,-0.4688 -0.664393,-0.4258 -1.326058,-0.8152 -2,-1.2187 -0.485158,-0.2905 -0.980752,-0.5654 -1.46875,-0.8438 C 26.571022,1012.2895 26.397932,1012.1796 26.21875,1012.0791 Z"
       id="path6873"
       inkscape:connector-curvature="0" />
    <path
       id="path6938"
       d="m 8.15625,1029.7877 c -2.8600604,0.1104 -5.7465242,1.9282 -8.15625,4.9375 l 0,0.8125 c 4.283957,-5.3499 10.043277,-6.9524 14.5625,-1.8438 5.238435,5.9218 5.578848,9.4593 9.90625,4.5625 4.327402,-4.8968 11.637678,-7.4115 13.6875,-4.9062 2.049822,2.5053 1.016904,5.4618 3.75,6.0312 1.291652,0.2691 3.802813,-0.7425 6.09375,-1.875 -0.0145,-0.2646 -0.03607,-0.5217 -0.0625,-0.7812 -2.274036,1.12 -4.751288,2.1104 -6.03125,1.8437 -2.733096,-0.5694 -1.700178,-3.5259 -3.75,-6.0312 -2.049822,-2.5053 -9.360098,0.01 -13.6875,4.9062 -4.327402,4.8968 -4.667815,1.3593 -9.90625,-4.5625 C 12.58534,1030.6464 10.380741,1029.7018 8.15625,1029.7877 Z"
       style="fill:#000000;fill-opacity:0.23529412;stroke:none"
       inkscape:connector-curvature="0" />
    <g
       id="g1251">
      <path
         id="path7515"
         d="m 2.53125,1005.0185 c -0.917088,0 -1.671147,0.6395 -1.84375,1.5 0.335612,-0.2799 0.774512,-0.4375 1.25,-0.4375 l 44.125,0 c 0.475488,0 0.914388,0.1576 1.25,0.4375 -0.172603,-0.8605 -0.926662,-1.5 -1.84375,-1.5 L 2.53125,1005.0185 Z"
         style="fill:#ffffff;fill-opacity:0.5372549;stroke:none"
         inkscape:connector-curvature="0" />
      <path
         id="rect4280"
         d="m 1.9375,1004.3622 c -1.077277,0 -1.9375,0.8602 -1.9375,1.9375 l 0,43.0625 c 0,0.7934 0.480024,1.449 1.15625,1.75 -0.309341,-0.3333 -0.5,-0.7824 -0.5,-1.2812 l 0,-42.9375 c 0,-1.0482 0.826899,-1.875 1.875,-1.875 l 42.9375,0 c 1.048101,0 1.875,0.8268 1.875,1.875 l 0,42.9375 c 0,0.4988 -0.190658,0.9479 -0.5,1.2812 0.676226,-0.301 1.15625,-0.9566 1.15625,-1.75 l 0,-43.0625 c 0,-1.0773 -0.860223,-1.9375 -1.9375,-1.9375 L 1.9375,1004.3622 Z"
         style="fill:#000000;fill-opacity:0.39215686;stroke:none"
         inkscape:connector-curvature="0" />
      <path
         id="rect846"
         d="m 0,1049.3622 0,1.0625 c 0,1.0773 0.860223,1.9375 1.9375,1.9375 l 44.125,0 c 1.077277,0 1.9375,-0.8602 1.9375,-1.9375 l 0,-1.0625 c 0,1.0773 -0.860223,1.9375 -1.9375,1.9375 l -44.125,0 C 0.860223,1051.2997 0,1050.4395 0,1049.3622 Z"
         style="fill:#000000;fill-opacity:1;stroke:none"
         inkscape:connector-curvature="0" />
    </g>
    <path
       inkscape:connector-curvature="0"
       style="fill:#000000;fill-opacity:0.11764706;stroke:none"
       d="m 8.15625,1030.5877 c -2.8600604,0.1104 -5.7465242,1.9282 -8.15625,4.9375 l 0,0.8125 c 4.283957,-5.3499 10.043277,-6.9524 14.5625,-1.8438 5.238435,5.9218 5.578848,9.4593 9.90625,4.5625 4.327402,-4.8968 11.637678,-7.4115 13.6875,-4.9062 2.049822,2.5053 1.016904,5.4618 3.75,6.0312 1.291652,0.2691 3.802813,-0.7425 6.09375,-1.875 -0.0145,-0.2646 -0.03607,-0.5217 -0.0625,-0.7812 -2.274036,1.12 -4.751288,2.1104 -6.03125,1.8437 -2.733096,-0.5694 -1.700178,-3.5259 -3.75,-6.0312 -2.049822,-2.5053 -9.360098,0.01 -13.6875,4.9062 -4.327402,4.8968 -4.667815,1.3593 -9.90625,-4.5625 C 12.58534,1031.4464 10.380741,1030.5018 8.15625,1030.5877 Z"
       id="path6963" />
  </g>
</svg>
