<?xml version="1.0" encoding="UTF-8" standalone="no"?>
<!-- Created with Inkscape (http://www.inkscape.org/) -->

<svg
   xmlns:dc="http://purl.org/dc/elements/1.1/"
   xmlns:cc="http://creativecommons.org/ns#"
   xmlns:rdf="http://www.w3.org/1999/02/22-rdf-syntax-ns#"
   xmlns:svg="http://www.w3.org/2000/svg"
   xmlns="http://www.w3.org/2000/svg"
   xmlns:xlink="http://www.w3.org/1999/xlink"
   xmlns:sodipodi="http://sodipodi.sourceforge.net/DTD/sodipodi-0.dtd"
   xmlns:inkscape="http://www.inkscape.org/namespaces/inkscape"
   width="48"
   height="48"
   id="svg2"
   version="1.1"
   inkscape:version="0.48+devel r12851"
   sodipodi:docname="preferences-plugin.svg">
  <defs
     id="defs4">
    <linearGradient
       y2="-1004.3641"
       x2="22.490341"
       y1="-1052.3704"
       x1="22.490341"
       gradientUnits="userSpaceOnUse"
       id="linearGradient1711"
       xlink:href="#linearGradient6589"
       inkscape:collect="always"
       gradientTransform="translate(-3.8085936e-8,-2.5343751e-6)" />
    <linearGradient
       id="linearGradient4169"
       inkscape:collect="always">
      <stop
         id="stop4171"
         offset="0"
         style="stop-color:#e2f4c4;stop-opacity:1" />
      <stop
         id="stop4173"
         offset="1"
         style="stop-color:#fdfff5;stop-opacity:1" />
    </linearGradient>
    <linearGradient
       inkscape:collect="always"
       id="linearGradient6589">
      <stop
         style="stop-color:#88c425;stop-opacity:1"
         offset="0"
         id="stop6591" />
      <stop
         style="stop-color:#bef202;stop-opacity:1"
         offset="1"
         id="stop6593" />
    </linearGradient>
    <linearGradient
       gradientTransform="matrix(2.5666667,0,0,2.5666667,-55.35834,990.61949)"
       y2="2.0118454"
       x2="10.409504"
       y1="13.990603"
       x1="10.409504"
       gradientUnits="userSpaceOnUse"
       id="linearGradient4181"
       xlink:href="#linearGradient4169"
       inkscape:collect="always" />
    <linearGradient
       gradientTransform="matrix(2.5666667,0,0,2.5666667,-55.35834,990.61949)"
       y2="2.0118454"
       x2="10.409504"
       y1="13.990603"
       x1="10.409504"
       gradientUnits="userSpaceOnUse"
       id="linearGradient4185"
       xlink:href="#linearGradient4169"
       inkscape:collect="always" />
    <linearGradient
       inkscape:collect="always"
       xlink:href="#linearGradient4169"
       id="linearGradient4156"
       x1="24.085938"
       y1="1052.37"
       x2="24.085938"
       y2="1004.3557"
       gradientUnits="userSpaceOnUse"
       gradientTransform="matrix(1.0095774,0,0,1.0389475,-0.2298576,-38.751931)" />
  </defs>
  <sodipodi:namedview
     id="base"
     pagecolor="#ffffff"
     bordercolor="#666666"
     borderopacity="1.0"
     inkscape:pageopacity="0.0"
     inkscape:pageshadow="2"
     inkscape:zoom="7.9999999"
     inkscape:cx="16.496607"
     inkscape:cy="21.637681"
     inkscape:document-units="px"
     inkscape:current-layer="layer1"
     showgrid="false"
     inkscape:window-width="1366"
     inkscape:window-height="673"
     inkscape:window-x="0"
     inkscape:window-y="24"
     inkscape:window-maximized="1">
    <inkscape:grid
       type="xygrid"
       id="grid3850" />
  </sodipodi:namedview>
  <metadata
     id="metadata7">
    <rdf:RDF>
      <cc:Work
         rdf:about="">
        <dc:format>image/svg+xml</dc:format>
        <dc:type
           rdf:resource="http://purl.org/dc/dcmitype/StillImage" />
        <dc:title />
      </cc:Work>
    </rdf:RDF>
  </metadata>
  <g
     inkscape:label="Capa 1"
     inkscape:groupmode="layer"
     id="layer1"
     transform="translate(0,-1004.3622)">
    <rect
       style="fill:url(#linearGradient1711);fill-opacity:1.0;stroke:none"
       id="rect2991-1"
       width="48"
       height="48"
       x="3.8085936e-08"
       y="-1052.3622"
       ry="1.9445436"
       transform="scale(1,-1)" />
    <path
       inkscape:connector-curvature="0"
       style="fill:#000000;fill-opacity:1;stroke:none"
       d="m -3.8085936e-8,1049.3622 0,1.0625 c 0,1.0773 0.860222898085936,1.9375 1.937499938085936,1.9375 l 44.1250001,0 c 1.077277,0 1.9375,-0.8602 1.9375,-1.9375 l 0,-1.0625 c 0,1.0773 -0.860223,1.9375 -1.9375,1.9375 l -44.1250001,0 C 0.86022286,1051.2997 -3.8085936e-8,1050.4395 -3.8085936e-8,1049.3622 Z"
       id="rect846" />
    <path
       inkscape:connector-curvature="0"
       style="fill:#ffffff;fill-opacity:0.5372549;stroke:none"
       d="m 2.5312499,1005.0185 c -0.9170884,0 -1.67114674,0.6395 -1.84374994,1.5 0.33561204,-0.2799 0.77451214,-0.4375 1.24999994,-0.4375 l 44.1250001,0 c 0.475488,0 0.914388,0.1576 1.25,0.4375 -0.172603,-0.8605 -0.926662,-1.5 -1.84375,-1.5 L 2.5312499,1005.0185 Z"
       id="path7515" />
    <path
       inkscape:connector-curvature="0"
       style="fill:#000000;fill-opacity:0.39215686;stroke:none"
       d="m 1.9374999,1004.3622 c -1.07727694,0 -1.937499938085938,0.8602 -1.937499938085938,1.9375 l 0,43.0625 c 0,0.7934 0.480023998085938,1.449 1.156249938085938,1.75 -0.30934164,-0.3333 -0.49999994,-0.7824 -0.49999994,-1.2812 l 0,-42.9375 c 0,-1.0482 0.82689894,-1.875 1.87499994,-1.875 l 42.9375001,0 c 1.048101,0 1.875,0.8268 1.875,1.875 l 0,42.9375 c 0,0.4988 -0.190658,0.9479 -0.5,1.2812 0.676226,-0.301 1.15625,-0.9566 1.15625,-1.75 l 0,-43.0625 c 0,-1.0773 -0.860223,-1.9375 -1.9375,-1.9375 L 1.9374999,1004.3622 Z"
       id="rect4280" />
    <rect
       style="fill:url(#linearGradient4181);fill-opacity:1;fill-rule:nonzero;stroke:none;display:none"
       id="rect4898"
       width="56.466667"
       height="56.466667"
       x="-55.358353"
       y="990.61951" />
    <rect
       y="990.61951"
       x="-55.358353"
       height="56.466667"
       width="56.466667"
       id="rect4126"
       style="fill:url(#linearGradient4185);fill-opacity:1;fill-rule:nonzero;stroke:none;display:none" />
    <g
       id="g4126"
       transform="translate(0,-0.6763)">
      <path
         style="fill:#000000;fill-opacity:0.05882353;stroke:none"
         d="m 19.961842,1014.909 c -0.699106,0 -1.261924,0.5793 -1.261924,1.2987 l 0,4.8843 c 0,0.7195 0.562818,1.2987 1.261924,1.2987 0.699106,0 1.261924,-0.5792 1.261924,-1.2987 l 0,-4.8843 c 0,-0.7194 -0.562818,-1.2987 -1.261924,-1.2987 z m 8.076316,0 c -0.699106,0 -1.261924,0.5793 -1.261924,1.2987 l 0,4.8843 c 0,0.7195 0.562818,1.2987 1.261924,1.2987 0.699106,0 1.261924,-0.5792 1.261924,-1.2987 l 0,-4.8843 c 0,-0.7194 -0.562818,-1.2987 -1.261924,-1.2987 z m -14.537763,10.8055 c 0,5.5456 4.021426,10.0835 9.237681,10.7223 l 0,9.161 c 0.417502,0.034 0.835554,0.064 1.261924,0.064 0.42637,0 0.844422,-0.031 1.261924,-0.064 l 0,-9.161 c 5.216255,-0.6388 9.237681,-5.1767 9.237681,-10.7223 z"
         id="path4164"
         inkscape:connector-curvature="0"
         sodipodi:nodetypes="sssssssssssssscccscccc" />
      <path
         sodipodi:nodetypes="sssssssssssssscccscccc"
         inkscape:connector-curvature="0"
         id="path4162"
         d="m 19.961842,1014.4935 c -0.699106,0 -1.261924,0.5792 -1.261924,1.2986 l 0,4.8843 c 0,0.7195 0.562818,1.2987 1.261924,1.2987 0.699106,0 1.261924,-0.5792 1.261924,-1.2987 l 0,-4.8843 c 0,-0.7194 -0.562818,-1.2986 -1.261924,-1.2986 z m 8.076316,0 c -0.699106,0 -1.261924,0.5792 -1.261924,1.2986 l 0,4.8843 c 0,0.7195 0.562818,1.2987 1.261924,1.2987 0.699106,0 1.261924,-0.5792 1.261924,-1.2987 l 0,-4.8843 c 0,-0.7194 -0.562818,-1.2986 -1.261924,-1.2986 z m -14.537763,10.8054 c 0,5.5456 4.021426,10.0835 9.237681,10.7223 l 0,9.161 c 0.417502,0.034 0.835554,0.064 1.261924,0.064 0.42637,0 0.844422,-0.031 1.261924,-0.064 l 0,-9.161 c 5.216255,-0.6388 9.237681,-5.1767 9.237681,-10.7223 z"
         style="fill:#000000;fill-opacity:0.11764706;stroke:none" />
      <path
         style="fill:#000000;fill-opacity:0.23529412;stroke:none"
         d="m 19.961842,1014.0779 c -0.699106,0 -1.261924,0.5792 -1.261924,1.2987 l 0,4.8843 c 0,0.7194 0.562818,1.2987 1.261924,1.2987 0.699106,0 1.261924,-0.5793 1.261924,-1.2987 l 0,-4.8843 c 0,-0.7195 -0.562818,-1.2987 -1.261924,-1.2987 z m 8.076316,0 c -0.699106,0 -1.261924,0.5792 -1.261924,1.2987 l 0,4.8843 c 0,0.7194 0.562818,1.2987 1.261924,1.2987 0.699106,0 1.261924,-0.5793 1.261924,-1.2987 l 0,-4.8843 c 0,-0.7195 -0.562818,-1.2987 -1.261924,-1.2987 z m -14.537763,10.8055 c 0,5.5455 4.021426,10.0835 9.237681,10.7222 l 0,9.161 c 0.417502,0.034 0.835554,0.064 1.261924,0.064 0.42637,0 0.844422,-0.031 1.261924,-0.064 l 0,-9.161 c 5.216255,-0.6387 9.237681,-5.1767 9.237681,-10.7222 z"
         id="path4158"
         inkscape:connector-curvature="0"
         sodipodi:nodetypes="sssssssssssssscccscccc" />
      <path
         sodipodi:nodetypes="sssssssssssssscccscccc"
         inkscape:connector-curvature="0"
         id="rect4111"
         d="m 19.961842,1013.6623 c -0.699106,0 -1.261924,0.5792 -1.261924,1.2987 l 0,4.8843 c 0,0.7195 0.562818,1.2987 1.261924,1.2987 0.699106,0 1.261924,-0.5792 1.261924,-1.2987 l 0,-4.8843 c 0,-0.7195 -0.562818,-1.2987 -1.261924,-1.2987 z m 8.076316,0 c -0.699106,0 -1.261924,0.5792 -1.261924,1.2987 l 0,4.8843 c 0,0.7195 0.562818,1.2987 1.261924,1.2987 0.699106,0 1.261924,-0.5792 1.261924,-1.2987 l 0,-4.8843 c 0,-0.7195 -0.562818,-1.2987 -1.261924,-1.2987 z m -14.537763,10.8055 c 0,5.5456 4.021426,10.0835 9.237681,10.7222 l 0,9.161 c 0.417502,0.034 0.835554,0.064 1.261924,0.064 0.42637,0 0.844422,-0.031 1.261924,-0.064 l 0,-9.161 c 5.216255,-0.6387 9.237681,-5.1766 9.237681,-10.7222 z"
         style="fill:url(#linearGradient4156);fill-opacity:1;stroke:none" />
      <path
         sodipodi:nodetypes="cssscsccssscscccccccccccccsccsc"
         inkscape:connector-curvature="0"
         id="path4166"
         d="m 18.699719,1019.0132 0,0.832 c 0,0.7195 0.562865,1.2987 1.261971,1.2987 0.699107,0 1.261972,-0.5792 1.261972,-1.2987 l 0,-0.832 c 0,0.7195 -0.562865,1.2987 -1.261972,1.2987 -0.699106,0 -1.261971,-0.5792 -1.261971,-1.2987 z m 8.076619,0 0,0.832 c 0,0.7195 0.562865,1.2987 1.261972,1.2987 0.699106,0 1.261971,-0.5792 1.261971,-1.2987 l 0,-0.832 c 0,0.7195 -0.562865,1.2987 -1.261971,1.2987 -0.699107,0 -1.261972,-0.5792 -1.261972,-1.2987 z M 13.5,1024.4677 c 0,5.5456 4.021774,10.0835 9.238028,10.7222 l 0,-0.832 c -4.952624,-0.6064 -8.821475,-4.7286 -9.200562,-9.8902 z m 20.962534,0 c -0.379087,5.1616 -4.247938,9.2838 -9.200562,9.8902 l 0,0.832 C 30.478226,1034.5512 34.5,1030.0133 34.5,1024.4677 Z m -11.724506,19.0516 0,0.8319 c 0.417503,0.034 0.835602,0.064 1.261972,0.064 0.42637,0 0.844469,-0.032 1.261972,-0.064 l 0,-0.8319 c -0.417503,0.033 -0.835602,0.064 -1.261972,0.064 -0.42637,0 -0.844469,-0.031 -1.261972,-0.064 z"
         style="fill:#3b5410;fill-opacity:0.31372549;stroke:none" />
      <path
         sodipodi:nodetypes="sscscsssscscssccccc"
         inkscape:connector-curvature="0"
         id="path4171"
         d="m 19.96169,1013.6622 c -0.699106,0 -1.261971,0.5792 -1.261971,1.2987 l 0,0.3125 c 0,-0.7195 0.562865,-1.2987 1.261971,-1.2987 0.699107,0 1.261972,0.5792 1.261972,1.2987 l 0,-0.3125 c 0,-0.7195 -0.562865,-1.2987 -1.261972,-1.2987 z m 8.07662,0 c -0.699107,0 -1.261972,0.5792 -1.261972,1.2987 l 0,0.3125 c 0,-0.7195 0.562865,-1.2987 1.261972,-1.2987 0.699106,0 1.261971,0.5792 1.261971,1.2987 l 0,-0.3125 c 0,-0.7195 -0.562865,-1.2987 -1.261971,-1.2987 z M 13.5,1024.4677 c 0,0.1054 0.01091,0.2078 0.0138,0.3125 l 20.972394,0 c 0.0029,-0.1047 0.0138,-0.2071 0.0138,-0.3125 z"
         style="fill:#ffffff;fill-opacity:0.23529412;stroke:none" />
    </g>
  </g>
</svg>
