<?xml version="1.0" encoding="UTF-8" standalone="no"?>
<!-- Created with Inkscape (http://www.inkscape.org/) -->

<svg
   xmlns:dc="http://purl.org/dc/elements/1.1/"
   xmlns:cc="http://creativecommons.org/ns#"
   xmlns:rdf="http://www.w3.org/1999/02/22-rdf-syntax-ns#"
   xmlns:svg="http://www.w3.org/2000/svg"
   xmlns="http://www.w3.org/2000/svg"
   xmlns:xlink="http://www.w3.org/1999/xlink"
   xmlns:sodipodi="http://sodipodi.sourceforge.net/DTD/sodipodi-0.dtd"
   xmlns:inkscape="http://www.inkscape.org/namespaces/inkscape"
   width="48"
   height="48"
   id="svg5453"
   version="1.1"
   inkscape:version="0.48+devel r12487"
   sodipodi:docname="psensor.svg">
  <defs
     id="defs5455">
    <linearGradient
       inkscape:collect="always"
       id="linearGradient4200">
      <stop
         style="stop-color:#ffd3a5;stop-opacity:1"
         offset="0"
         id="stop4202" />
      <stop
         style="stop-color:#fffcf5;stop-opacity:1"
         offset="1"
         id="stop4204" />
    </linearGradient>
    <linearGradient
       id="linearGradient4194"
       inkscape:collect="always">
      <stop
         id="stop4196"
         offset="0"
         style="stop-color:#a5dbff;stop-opacity:1" />
      <stop
         id="stop4198"
         offset="1"
         style="stop-color:#f6fcfe;stop-opacity:1" />
    </linearGradient>
    <linearGradient
       id="linearGradient4140"
       inkscape:collect="always">
      <stop
         id="stop4142"
         offset="0"
         style="stop-color:#fe8100;stop-opacity:1" />
      <stop
         id="stop4144"
         offset="1"
         style="stop-color:#f9d054;stop-opacity:1" />
    </linearGradient>
    <linearGradient
       inkscape:collect="always"
       id="linearGradient4128">
      <stop
         style="stop-color:#007dcf;stop-opacity:1"
         offset="0"
         id="stop4130" />
      <stop
         style="stop-color:#4fcdf4;stop-opacity:1"
         offset="1"
         id="stop4132" />
    </linearGradient>
    <linearGradient
       inkscape:collect="always"
       xlink:href="#linearGradient6390"
       id="linearGradient4542"
       x1="407.66895"
       y1="-555.92798"
       x2="407.66895"
       y2="-495.71448"
       gradientUnits="userSpaceOnUse" />
    <linearGradient
       inkscape:collect="always"
       xlink:href="#linearGradient4128"
       id="linearGradient4134"
       x1="40.28001"
       y1="48.015945"
       x2="40.28001"
       y2="-0.023081783"
       gradientUnits="userSpaceOnUse" />
    <linearGradient
       inkscape:collect="always"
       xlink:href="#linearGradient4140"
       id="linearGradient4138"
       gradientUnits="userSpaceOnUse"
       x1="40.28001"
       y1="48.015945"
       x2="40.28001"
       y2="-0.023081783"
       gradientTransform="matrix(-1,0,0,1,48.00001,0)" />
    <linearGradient
       inkscape:collect="always"
       xlink:href="#linearGradient4200"
       id="linearGradient4184"
       x1="401.44644"
       y1="532.67297"
       x2="401.44644"
       y2="514.92297"
       gradientUnits="userSpaceOnUse"
       gradientTransform="matrix(0.8958335,0,0,0.8958335,42.934193,54.624704)" />
    <linearGradient
       inkscape:collect="always"
       xlink:href="#linearGradient4194"
       id="linearGradient4192"
       x1="421.57144"
       y1="532.67297"
       x2="421.57144"
       y2="514.79797"
       gradientUnits="userSpaceOnUse"
       gradientTransform="matrix(0.8958335,0,0,0.8958335,41.104278,54.624705)" />
    <linearGradient
       id="linearGradient6390"
       inkscape:collect="always">
      <stop
         id="stop6392"
         offset="0"
         style="stop-color:#ffffff;stop-opacity:1" />
      <stop
         style="stop-color:#29282b;stop-opacity:1"
         offset="0.16451773"
         id="stop6414" />
      <stop
         id="stop6416"
         offset="0.26065826"
         style="stop-color:#868c95;stop-opacity:1" />
      <stop
         style="stop-color:#92979f;stop-opacity:1"
         offset="0.39485914"
         id="stop6418" />
      <stop
         id="stop6420"
         offset="0.54328567"
         style="stop-color:#737881;stop-opacity:1" />
      <stop
         style="stop-color:#70757e;stop-opacity:1"
         offset="0.62599665"
         id="stop6422" />
      <stop
         id="stop6424"
         offset="0.72117096"
         style="stop-color:#e4e6e8;stop-opacity:1" />
      <stop
         style="stop-color:#ffffff;stop-opacity:1"
         offset="0.79481769"
         id="stop6426" />
      <stop
         id="stop6394"
         offset="1"
         style="stop-color:#1d191a;stop-opacity:1" />
    </linearGradient>
    <linearGradient
       id="linearGradient3698-2">
      <stop
         style="stop-color:#b3b3b3;stop-opacity:1"
         offset="0"
         id="stop3700-0" />
      <stop
         style="stop-color:#e6e6e6;stop-opacity:1"
         offset="1"
         id="stop3702-6" />
    </linearGradient>
    <linearGradient
       y2="20.531212"
       x2="15.455017"
       y1="24.457449"
       x1="15.455017"
       gradientUnits="userSpaceOnUse"
       id="linearGradient1112"
       xlink:href="#linearGradient3698-2"
       inkscape:collect="always" />
    <linearGradient
       id="linearGradient1552"
       inkscape:collect="always">
      <stop
         id="stop1554"
         offset="0"
         style="stop-color:#ec020b;stop-opacity:1" />
      <stop
         id="stop1556"
         offset="1"
         style="stop-color:#e10505;stop-opacity:1" />
    </linearGradient>
    <linearGradient
       inkscape:collect="always"
       xlink:href="#linearGradient1552"
       id="linearGradient5349"
       x1="406.01126"
       y1="542.2583"
       x2="407.36197"
       y2="540.88831"
       gradientUnits="userSpaceOnUse" />
  </defs>
  <sodipodi:namedview
     id="base"
     pagecolor="#ffffff"
     bordercolor="#666666"
     borderopacity="1.0"
     inkscape:pageopacity="0"
     inkscape:pageshadow="2"
     inkscape:zoom="17.625"
     inkscape:cx="21.088069"
     inkscape:cy="16.466108"
     inkscape:document-units="px"
     inkscape:current-layer="layer1"
     showgrid="false"
     fit-margin-top="0"
     fit-margin-left="0"
     fit-margin-right="0"
     fit-margin-bottom="0"
     inkscape:window-width="1366"
     inkscape:window-height="718"
     inkscape:window-x="0"
     inkscape:window-y="30"
     inkscape:window-maximized="1" />
  <metadata
     id="metadata5458">
    <rdf:RDF>
      <cc:Work
         rdf:about="">
        <dc:format>image/svg+xml</dc:format>
        <dc:type
           rdf:resource="http://purl.org/dc/dcmitype/StillImage" />
        <dc:title />
      </cc:Work>
    </rdf:RDF>
  </metadata>
  <g
     inkscape:label="Capa 1"
     inkscape:groupmode="layer"
     id="layer1"
     transform="translate(-384.57143,-499.798)">
    <rect
       style="fill:url(#linearGradient4542);fill-opacity:1;stroke:none"
       id="rect2991-1-7"
       width="48"
       height="48"
       x="384.57144"
       y="-547.79797"
       ry="1.9445436"
       transform="scale(1,-1)" />
    <rect
       transform="scale(1,-1)"
       ry="1.7014757"
       y="-544.79797"
       x="387.57144"
       height="42"
       width="42"
       id="rect4384"
       style="fill:#000000;fill-opacity:0.3137255;stroke:none" />
    <path
       style="fill:url(#linearGradient4134);fill-opacity:1;stroke:none"
       d="M 24.75 4 L 24.75 44 L 42.375 44 C 43.272731 44 44 43.272731 44 42.375 L 44 5.625 C 44 4.727269 43.272731 4 42.375 4 L 24.75 4 z "
       id="rect4116"
       transform="translate(384.57143,499.798)" />
    <path
       style="fill:url(#linearGradient4138);fill-opacity:1;stroke:none"
       d="M 5.625 4 C 4.727269 4 4 4.727269 4 5.625 L 4 42.375 C 4 43.272731 4.727269 44 5.625 44 L 23.25 44 L 23.25 4 L 5.625 4 z "
       transform="translate(384.57143,499.798)"
       id="path4136" />
    <path
       style="fill:#000000;fill-opacity:0.11764706"
       id="path4218"
       d="m 396.61152,516.87306 c 0,0 6.01435,4.03123 5.30774,9.57417 0,0 2.01859,-0.50389 1.47632,-3.83836 0,0 2.91218,2.80984 2.86299,5.35008 -0.0404,2.06386 -2.62287,5.03904 -7.47982,5.03904 0,0 4.37961,-3.91709 -1.4074,-8.87344 0,0 -5.35298,5.28117 -1.82074,8.87344 0,0 -7.12255,-1.81191 -5.03312,-6.34901 C 392.60686,522.11089 397.1774,521.71034 396.61152,516.87306 Z"
       inkscape:connector-curvature="0" />
    <path
       inkscape:connector-curvature="0"
       d="m 396.61152,516.51473 c 0,0 6.01435,4.03123 5.30774,9.57417 0,0 2.01859,-0.5039 1.47632,-3.83837 0,0 2.91218,2.80985 2.86299,5.35009 -0.0404,2.06386 -2.62287,5.03904 -7.47982,5.03904 0,0 4.37961,-3.9171 -1.4074,-8.87344 0,0 -5.35298,5.28117 -1.82074,8.87344 0,0 -7.12255,-1.81192 -5.03312,-6.34902 C 392.60686,521.75256 397.1774,521.35201 396.61152,516.51473 Z"
       id="path4214"
       style="fill:#000000;fill-opacity:0.11764706" />
    <path
       style="fill:#000000;fill-opacity:0.11764706;stroke-width:0.2;stroke-linejoin:round"
       inkscape:connector-curvature="0"
       d="m 419.44373,521.3372 0.77492,-0.77484 0.69097,0.69099 -1.46589,1.46589 0,1.3699 1.20764,-0.69718 0.53656,-2.00248 0.94396,0.25293 -0.28361,1.05849 1.2607,-0.72784 0.45986,-1.71619 2.35992,0.63235 -0.63234,2.35993 -1.66874,-0.44711 -1.31205,0.75748 1.05851,0.28364 -0.25296,0.94395 -2.00243,-0.53656 -1.18637,0.68495 1.18637,0.68495 2.00249,-0.53656 0.2529,0.94396 -1.05851,0.28364 1.31205,0.75747 1.66874,-0.44711 0.63234,2.35994 -2.35992,0.63234 -0.45987,-1.71618 -1.26069,-0.72785 0.2836,1.05849 -0.94396,0.25292 -0.53656,-2.00247 -1.20763,-0.69718 0,1.3699 1.46589,1.46589 -0.69097,0.69099 -0.77492,-0.77484 0,1.51499 1.22158,1.22162 -1.72757,1.72759 -1.72761,-1.72759 1.25636,-1.2563 0,-1.45576 -0.77491,0.77488 -0.691,-0.69103 1.46591,-1.46593 0,-1.39441 -1.18638,0.68493 -0.53656,2.00247 -0.94396,-0.25292 0.28364,-1.05853 -1.31209,0.75755 -0.44711,1.6687 -2.35993,-0.63234 0.63234,-2.35991 1.71614,0.45982 1.2607,-0.72789 -1.05845,-0.28359 0.25292,-0.944 2.00249,0.53656 1.2076,-0.69721 -1.2076,-0.6972 -2.00249,0.53656 -0.25292,-0.94401 1.05845,-0.28359 -1.2607,-0.72788 -1.71614,0.4598 -0.63234,-2.35989 2.35993,-0.63234 0.44711,1.66869 1.31209,0.75756 -0.28364,-1.05853 0.94396,-0.25292 0.53656,2.00248 1.18638,0.68491 0,-1.39441 -1.46591,-1.46592 0.691,-0.69104 0.77491,0.77489 0,-1.45577 -1.25636,-1.2563 1.72761,-1.72759 1.72757,1.72759 -1.22158,1.22162 L 419.44373,521.3372 z m -1.17966,-2.75395 0.69102,0.69104 0.69104,-0.69104 -0.69104,-0.69104 L 418.26407,518.58325 z m 0,12.7045 0.69102,0.69103 0.69104,-0.69103 -0.69104,-0.691 L 418.26407,531.28774 z m -5.15574,-8.92996 0.944,-0.25292 -0.25296,-0.94396 -0.94396,0.25292 L 413.10834,522.35779 z m 11.00249,6.35229 0.94396,-0.25293 -0.25292,-0.94395 -0.94397,0.25292 L 424.11083,528.71008 z m 0,-7.54917 -0.25293,0.94396 0.94397,0.25292 0.25292,-0.94396 L 424.11083,521.16091 z m -11.00249,6.35229 -0.25291,0.94395 0.94395,0.25293 0.25296,-0.94396 L 413.10834,527.5132 Z"
       id="path4220" />
    <path
       inkscape:connector-curvature="0"
       style="fill:#000000;fill-opacity:1;stroke:none"
       d="m 384.57143,544.79799 0,1.0625 c 0,1.0773 0.86022,1.9375 1.9375,1.9375 l 44.125,0 c 1.07728,0 1.9375,-0.8602 1.9375,-1.9375 l 0,-1.0625 c 0,1.0773 -0.86022,1.9375 -1.9375,1.9375 l -44.125,0 C 385.43165,546.73549 384.57143,545.87529 384.57143,544.79799 Z"
       id="rect846" />
    <path
       inkscape:connector-curvature="0"
       style="fill:#ffffff;fill-opacity:0.5372549;stroke:none"
       d="m 387.10268,500.45429 c -0.91709,0 -1.67115,0.6395 -1.84375,1.5 0.33561,-0.2799 0.77451,-0.4375 1.25,-0.4375 l 44.125,0 c 0.47549,0 0.91439,0.1576 1.25,0.4375 -0.1726,-0.8605 -0.92666,-1.5 -1.84375,-1.5 L 387.10268,500.45429 Z"
       id="path7515" />
    <path
       inkscape:transform-center-x="4.1387294"
       inkscape:transform-center-y="-4.1401256"
       id="path5022"
       d="m 398.98437,533.85036 6.79902,10.47728 0.0719,0.0719 c 0.0679,0.0679 0.13824,0.12014 0.21574,0.1678 0.45731,0.28133 3.16611,0.22829 3.56228,-0.16788 0.46334,-0.46334 -0.43847,-1.06783 -0.19993,-1.67818 l -0.0719,-0.0719 L 405.62561,539.43669 Z"
       style="fill:#000000;fill-opacity:0.31372549;stroke:none"
       inkscape:connector-curvature="0"
       sodipodi:nodetypes="ccscssccc" />
    <path
       inkscape:connector-curvature="0"
       style="fill:#000000;fill-opacity:0.39215686;stroke:none"
       d="m 386.50893,499.79799 c -1.07728,0 -1.9375,0.8602 -1.9375,1.9375 l 0,43.0625 c 0,0.7934 0.48002,1.449 1.15625,1.75 -0.30934,-0.3333 -0.5,-0.7824 -0.5,-1.2812 l 0,-42.9375 c 0,-1.0482 0.8269,-1.875 1.875,-1.875 l 42.9375,0 c 1.0481,0 1.875,0.8268 1.875,1.875 l 0,42.9375 c 0,0.4988 -0.19066,0.9479 -0.5,1.2812 0.67623,-0.301 1.15625,-0.9566 1.15625,-1.75 l 0,-43.0625 c 0,-1.0773 -0.86022,-1.9375 -1.9375,-1.9375 L 386.50893,499.79799 Z"
       id="rect4280" />
    <path
       id="path4216"
       d="m 419.44373,520.97886 0.77492,-0.77483 0.69097,0.69098 -1.46589,1.4659 0,1.3699 1.20764,-0.69718 0.53656,-2.00248 0.94396,0.25292 -0.28361,1.05849 1.2607,-0.72784 0.45986,-1.71618 2.35992,0.63234 -0.63234,2.35993 -1.66874,-0.4471 -1.31205,0.75747 1.05851,0.28364 -0.25296,0.94396 -2.00243,-0.53656 -1.18637,0.68495 1.18637,0.68495 2.00249,-0.53656 0.2529,0.94396 -1.05851,0.28364 1.31205,0.75747 1.66874,-0.44711 0.63234,2.35994 -2.35992,0.63234 -0.45987,-1.71619 -1.26069,-0.72784 0.2836,1.05849 -0.94396,0.25292 -0.53656,-2.00248 -1.20763,-0.69717 0,1.3699 1.46589,1.46589 -0.69097,0.69099 -0.77492,-0.77484 0,1.51499 1.22158,1.22162 -1.72757,1.72759 -1.72761,-1.72759 1.25636,-1.2563 0,-1.45577 -0.77491,0.77489 -0.691,-0.69104 1.46591,-1.46592 0,-1.39441 -1.18638,0.68493 -0.53656,2.00246 -0.94396,-0.25292 0.28364,-1.05852 -1.31209,0.75755 -0.44711,1.6687 -2.35993,-0.63235 0.63234,-2.3599 1.71614,0.45981 1.2607,-0.72788 -1.05845,-0.28359 0.25292,-0.94401 2.00249,0.53656 1.2076,-0.6972 -1.2076,-0.69721 -2.00249,0.53656 -0.25292,-0.94401 1.05845,-0.28358 -1.2607,-0.72788 -1.71614,0.4598 -0.63234,-2.35989 2.35993,-0.63235 0.44711,1.6687 1.31209,0.75755 -0.28364,-1.05852 0.94396,-0.25292 0.53656,2.00248 1.18638,0.68491 0,-1.39441 -1.46591,-1.46593 0.691,-0.69103 0.77491,0.77488 0,-1.45576 -1.25636,-1.2563 1.72761,-1.7276 1.72757,1.7276 -1.22158,1.22161 L 419.44373,520.97886 z m -1.17966,-2.75394 0.69102,0.69103 0.69104,-0.69103 -0.69104,-0.69104 L 418.26407,518.22492 z m 0,12.70449 0.69102,0.69104 0.69104,-0.69104 -0.69104,-0.69099 L 418.26407,530.9294 z m -5.15574,-8.92995 0.944,-0.25292 -0.25296,-0.94396 -0.94396,0.25292 L 413.10834,521.99946 z m 11.00249,6.35228 0.94396,-0.25292 -0.25292,-0.94396 -0.94397,0.25292 L 424.11083,528.35174 z m 0,-7.54916 -0.25293,0.94396 0.94397,0.25292 0.25292,-0.94396 L 424.11083,520.80258 z m -11.00249,6.35228 -0.25291,0.94396 0.94395,0.25293 0.25296,-0.94397 L 413.10834,527.15486 Z"
       inkscape:connector-curvature="0"
       style="fill:#000000;fill-opacity:0.11764706;stroke-width:0.2;stroke-linejoin:round" />
    <path
       style="fill:#000000;fill-opacity:0.23529412"
       id="path4206"
       d="m 396.61152,516.15639 c 0,0 6.01435,4.03123 5.30774,9.57418 0,0 2.01859,-0.5039 1.47632,-3.83837 0,0 2.91218,2.80984 2.86299,5.35009 -0.0404,2.06385 -2.62287,5.03903 -7.47982,5.03903 0,0 4.37961,-3.91709 -1.4074,-8.87343 0,0 -5.35298,5.28117 -1.82074,8.87343 0,0 -7.12255,-1.81191 -5.03312,-6.34901 C 392.60686,521.39422 397.1774,520.99368 396.61152,516.15639 Z"
       inkscape:connector-curvature="0" />
    <path
       inkscape:connector-curvature="0"
       d="m 396.61152,515.79803 c 0,0 6.01435,4.03123 5.30774,9.57418 0,0 2.01859,-0.5039 1.47632,-3.83837 0,0 2.91218,2.80984 2.86299,5.35009 -0.0404,2.06385 -2.62287,5.03903 -7.47982,5.03903 0,0 4.37961,-3.91709 -1.4074,-8.87343 0,0 -5.35298,5.28117 -1.82074,8.87343 0,0 -7.12255,-1.81191 -5.03312,-6.34901 C 392.60686,521.03586 397.1774,520.63532 396.61152,515.79803 Z"
       id="path4149"
       style="fill:url(#linearGradient4184);fill-opacity:1" />
    <path
       style="fill:#000000;fill-opacity:0.23529412;stroke-width:0.2;stroke-linejoin:round"
       inkscape:connector-curvature="0"
       d="m 419.44373,520.62053 0.77492,-0.77483 0.69097,0.69098 -1.46589,1.4659 0,1.3699 1.20764,-0.69719 0.53656,-2.00247 0.94396,0.25292 -0.28361,1.05849 1.2607,-0.72784 0.45986,-1.71618 2.35992,0.63234 -0.63234,2.35993 -1.66874,-0.4471 -1.31205,0.75747 1.05851,0.28364 -0.25296,0.94396 -2.00243,-0.53656 -1.18637,0.68494 1.18637,0.68496 2.00249,-0.53656 0.2529,0.94395 -1.05851,0.28364 1.31205,0.75748 1.66874,-0.44712 0.63234,2.35994 -2.35992,0.63235 -0.45987,-1.71619 -1.26069,-0.72785 0.2836,1.05849 -0.94396,0.25293 -0.53656,-2.00248 -1.20763,-0.69717 0,1.3699 1.46589,1.46589 -0.69097,0.69099 -0.77492,-0.77484 0,1.51498 1.22158,1.22163 -1.72757,1.72758 -1.72761,-1.72758 1.25636,-1.2563 0,-1.45577 -0.77491,0.77489 -0.691,-0.69104 1.46591,-1.46592 0,-1.39441 -1.18638,0.68492 -0.53656,2.00247 -0.94396,-0.25292 0.28364,-1.05853 -1.31209,0.75756 -0.44711,1.66869 -2.35993,-0.63234 0.63234,-2.3599 1.71614,0.45981 1.2607,-0.72788 -1.05845,-0.2836 0.25292,-0.944 2.00249,0.53656 1.2076,-0.69721 -1.2076,-0.6972 -2.00249,0.53656 -0.25292,-0.94401 1.05845,-0.28359 -1.2607,-0.72788 -1.71614,0.45981 -0.63234,-2.3599 2.35993,-0.63234 0.44711,1.6687 1.31209,0.75755 -0.28364,-1.05853 0.94396,-0.25292 0.53656,2.00249 1.18638,0.68491 0,-1.39441 -1.46591,-1.46593 0.691,-0.69104 0.77491,0.77489 0,-1.45576 -1.25636,-1.2563 1.72761,-1.7276 1.72757,1.7276 -1.22158,1.22161 L 419.44373,520.62053 z m -1.17966,-2.75395 0.69102,0.69104 0.69104,-0.69104 -0.69104,-0.69103 L 418.26407,517.86658 z m 0,12.7045 0.69102,0.69104 0.69104,-0.69104 -0.69104,-0.69099 L 418.26407,530.57107 z m -5.15574,-8.92996 0.944,-0.25292 -0.25296,-0.94395 -0.94396,0.25292 L 413.10834,521.64112 z m 11.00249,6.35229 0.94396,-0.25292 -0.25292,-0.94396 -0.94397,0.25292 L 424.11083,527.99341 z m 0,-7.54916 -0.25293,0.94395 0.94397,0.25292 0.25292,-0.94395 L 424.11083,520.44425 z m -11.00249,6.35228 -0.25291,0.94396 0.94395,0.25293 0.25296,-0.94397 L 413.10834,526.79653 Z"
       id="path4208" />
    <path
       id="path4163"
       d="m 419.44373,520.26217 0.77492,-0.77484 0.69097,0.69099 -1.46589,1.4659 0,1.36989 1.20764,-0.69718 0.53656,-2.00247 0.94396,0.25292 -0.28361,1.05849 1.2607,-0.72784 0.45986,-1.71618 2.35992,0.63234 -0.63234,2.35993 -1.66874,-0.4471 -1.31205,0.75747 1.05851,0.28364 -0.25296,0.94396 -2.00243,-0.53656 -1.18637,0.68494 1.18637,0.68496 2.00249,-0.53656 0.2529,0.94395 -1.05851,0.28364 1.31205,0.75747 1.66874,-0.44711 0.63234,2.35994 -2.35992,0.63235 -0.45987,-1.71619 -1.26069,-0.72785 0.2836,1.05849 -0.94396,0.25293 -0.53656,-2.00248 -1.20763,-0.69717 0,1.3699 1.46589,1.46588 -0.69097,0.691 -0.77492,-0.77485 0,1.51499 1.22158,1.22162 -1.72757,1.72759 -1.72761,-1.72759 1.25636,-1.25629 0,-1.45577 -0.77491,0.77489 -0.691,-0.69104 1.46591,-1.46592 0,-1.39441 -1.18638,0.68492 -0.53656,2.00247 -0.94396,-0.25292 0.28364,-1.05853 -1.31209,0.75756 -0.44711,1.66869 -2.35993,-0.63234 0.63234,-2.3599 1.71614,0.45981 1.2607,-0.72788 -1.05845,-0.2836 0.25292,-0.944 2.00249,0.53656 1.2076,-0.69721 -1.2076,-0.6972 -2.00249,0.53656 -0.25292,-0.94401 1.05845,-0.28359 -1.2607,-0.72788 -1.71614,0.45981 -0.63234,-2.3599 2.35993,-0.63234 0.44711,1.6687 1.31209,0.75755 -0.28364,-1.05853 0.94396,-0.25292 0.53656,2.00249 1.18638,0.6849 0,-1.3944 -1.46591,-1.46593 0.691,-0.69104 0.77491,0.77489 0,-1.45576 -1.25636,-1.2563 1.72761,-1.7276 1.72757,1.7276 -1.22158,1.22161 L 419.44373,520.26217 z m -1.17966,-2.75395 0.69102,0.69104 0.69104,-0.69104 -0.69104,-0.69103 L 418.26407,517.50822 z m 0,12.7045 0.69102,0.69104 0.69104,-0.69104 -0.69104,-0.69099 L 418.26407,530.21271 z m -5.15574,-8.92996 0.944,-0.25292 -0.25296,-0.94395 -0.94396,0.25292 L 413.10834,521.28276 z m 11.00249,6.35229 0.94396,-0.25292 -0.25292,-0.94396 -0.94397,0.25292 L 424.11083,527.63505 z m 0,-7.54916 -0.25293,0.94395 0.94397,0.25292 0.25292,-0.94395 L 424.11083,520.08589 z m -11.00249,6.35228 -0.25291,0.94396 0.94395,0.25293 0.25296,-0.94397 L 413.10834,526.43817 Z"
       inkscape:connector-curvature="0"
       style="fill:url(#linearGradient4192);fill-opacity:1;stroke-width:0.2;stroke-linejoin:round" />
    <path
       style="fill:#fd8302;fill-opacity:0.31372549"
       d="m 396.59855,515.79796 c 0.0194,0.16574 0.0203,0.32025 0.028,0.47591 0.0107,-0.1471 0.029,-0.29101 0.0279,-0.44792 C 396.64852,515.82184 396.59855,515.79796 396.59855,515.79796 z m 6.80274,5.73893 c 0.0428,0.2631 0.0428,0.49888 0.056,0.72787 0.0155,-0.19654 0.01,-0.4146 0,-0.64388 C 403.44916,521.6129 403.40129,521.53689 403.40129,521.53689 z m -6.01889,0.78386 c 0,0 -3.27706,3.23217 -3.02343,6.35482 0.22708,-2.87945 3.02343,-5.62696 3.02343,-5.62696 2.15641,1.84687 2.88173,3.54571 2.96745,4.95508 C 400.49184,526.47412 399.91422,524.48915 397.3824,522.32075 z m 4.56316,1.76367 c -0.009,0.18865 -0.004,0.36749 -0.0279,0.5599 0,0 0.0251,-0.0272 0.0279,-0.028 C 401.94903,524.43794 401.95501,524.25914 401.94556,524.08442 z m 4.2832,2.49154 c -0.31895,1.93147 -2.67361,4.36216 -6.83073,4.59114 -0.33445,0.47466 -0.61589,0.75586 -0.61589,0.75586 4.85695,0 7.43421,-2.9752 7.47462,-5.03906 C 406.25875,526.78098 406.2361,526.67956 406.22876,526.57596 z m -16.06901,0.19596 c -0.44006,3.64476 5.375,5.15104 5.375,5.15104 -0.3014,-0.30652 -0.51901,-0.62504 -0.69987,-0.95182 C 393.44121,530.49435 390.40271,529.19751 390.15975,526.77192 Z"
       id="path4222"
       inkscape:connector-curvature="0" />
    <path
       style="fill:#027fd0;fill-opacity:0.31372549;stroke-width:0.2;stroke-linejoin:round"
       d="m 418.96043,516.10591 -0.69987,0.67188 0.36393,0.36393 0.33594,-0.33594 0.33594,0.33594 0.36393,-0.36393 L 418.96043,516.10591 z m -1.37174,1.06381 -0.36394,0.36393 1.23178,1.25976 0,-0.72786 L 417.58869,517.16972 z m 2.71549,0 -0.86784,0.86783 0,0.69987 1.23178,-1.20377 L 420.30418,517.16972 z m -6.49479,2.21158 -0.95182,0.25196 0.16797,0.64388 0.78385,-0.19597 0.0839,0.27995 0.16797,-0.056 L 413.80939,519.3813 z m 10.30209,0 -0.25196,0.92383 0.16797,0.056 0.0839,-0.27995 0.78385,0.19597 0.16797,-0.64388 L 424.11148,519.3813 z m 1.65169,0.36394 -0.47591,1.70768 -1.65171,-0.44792 -1.31574,0.75586 0.86784,0.22396 0.4479,-0.25195 1.65171,0.44791 0.64388,-2.37955 L 425.76317,519.74524 z m -13.60548,0.056 -0.19597,0.056 0.64389,2.35156 1.70769,-0.47591 0.41992,0.25195 0.83983,-0.22396 -1.25976,-0.72786 -1.70769,0.44791 L 412.1577,519.80123 z m 5.20703,0 -0.36393,0.36393 1.45573,1.45573 0,-0.72787 L 417.36473,519.80123 z m 3.19141,0.0279 -1.1198,1.09179 0,0.72787 1.48373,-1.48373 L 420.55614,519.82922 z m 1.39974,0.67187 -0.11198,0.41992 0.22395,-0.11198 0.056,-0.25195 L 421.95588,520.5011 z m -5.99088,0.028 -0.16798,0.056 0.056,0.19596 0.22396,0.13998 L 415.96499,520.52909 z m 0.81184,1.90365 -2.01562,0.55989 -0.0839,-0.27994 -0.16797,0.056 0.19597,0.72787 0.056,-0.19596 0.75586,0.19596 1.25976,-0.33594 0.58789,0.33594 0.61589,-0.36393 L 416.77684,522.43274 z m 4.33919,0.028 -1.17578,0.67187 0.61589,0.36393 0.55989,-0.30794 1.23177,0.33594 0.78386,-0.22396 0.056,0.19596 0.19596,-0.72786 -0.16797,-0.056 -0.0839,0.27995 L 421.11603,522.46073 z m -2.6595,1.53971 -1.17579,0.67188 -0.5319,2.01562 -0.78384,-0.19596 -0.16798,0.64388 0.95182,0.25195 0.5319,-1.98763 1.17579,-0.69987 L 418.45653,524.00045 z m 0.97981,0 0,0.69987 1.20378,0.69987 0.5599,2.01563 0.92382,-0.25196 -0.16796,-0.67187 -0.75586,0.19596 -0.5599,-1.98763 L 419.43634,524.00045 z m 3.7793,0.27995 -0.89583,0.25195 0.83984,0.47591 0.22396,-0.056 L 423.21564,524.28039 z m -8.53841,0.028 -0.16797,0.64388 0.22396,0.056 0.83984,-0.47591 L 414.67723,524.30839 z m 1.39974,1.0638 -1.31576,0.75586 -0.44791,1.65169 -0.50391,-0.13997 -0.95182,-0.25195 -0.72787,-0.16797 -0.16797,0.64388 2.35157,0.64388 0.44791,-1.67969 1.0918,-0.64388 L 416.07697,525.37219 z m 5.76693,0 0.22395,0.86784 1.03581,0.58789 0.47591,1.70768 2.35157,-0.61588 -0.19597,-0.67188 -2.1556,0.58789 -0.47591,-1.73567 L 421.8439,525.37219 z m -8.73438,0.33594 -0.25195,0.95182 0.16797,0.056 0.0839,-0.27995 0.78384,0.19597 0.16798,-0.64388 L 413.10952,525.70813 z m 11.70182,0 -0.95182,0.27995 0.16798,0.64388 0.78384,-0.19597 0.0839,0.27995 0.16797,-0.056 L 424.81134,525.70813 z m -5.375,1.03581 0,0.72786 0.78386,0.75586 0.69987,-0.67187 -0.36393,-0.36394 -0.33594,0.33594 L 419.43634,526.74394 z m -0.97981,0.028 -0.75585,0.75586 -0.33594,-0.33594 -0.36393,0.36393 0.69987,0.69987 0.75585,-0.78385 L 418.45653,526.77193 z m 0.5039,2.04362 -0.69987,0.67187 0.36393,0.36393 0.33594,-0.33593 0.33594,0.33593 0.36393,-0.36393 L 418.96043,528.81555 z m -1.39974,1.00781 -0.33594,0.36393 1.70769,1.73568 1.73568,-1.73568 -0.36394,-0.33594 -1.37174,1.34375 L 417.56069,529.82336 Z"
       id="path4224"
       inkscape:connector-curvature="0" />
    <path
       style="fill:#ffffff;fill-opacity:0.23529412"
       d="m 396.58773,515.79803 c 0.016,0.1366 0.0201,0.26221 0.028,0.39193 0.15916,0.10787 5.17538,3.51349 5.34701,8.37044 C 402.02129,519.44747 396.58773,515.79803 396.58773,515.79803 z m 0.056,1.03581 c -0.16045,3.88878 -4.20094,4.54261 -6.13086,8.73438 -0.29269,0.63556 -0.38788,1.20454 -0.36393,1.73567 0.0304,-0.43009 0.13673,-0.87838 0.36393,-1.37174 C 392.49765,521.62122 396.71094,521.02747 396.64372,516.83384 z m 6.74675,4.70313 c 0.0226,0.13862 0.014,0.26291 0.0279,0.39192 0.0833,0.0809 2.73266,2.67509 2.82747,5.12305 0.004,-0.0563 -8.9e-4,-0.11296 0,-0.16797 C 406.29513,524.34373 403.39047,521.53697 403.39047,521.53697 z m 0.0839,1.28776 c -0.0931,2.12936 -1.47764,2.53099 -1.53972,2.54752 -0.009,0.12038 -0.0125,0.24207 -0.028,0.36393 C 401.90674,525.73618 403.53492,525.322 403.47445,522.82473 z m -3.13542,5.8789 c -0.18255,1.96659 -1.56771,3.2194 -1.56771,3.2194 0.10761,0 0.20258,0.003 0.30794,0 C 399.53294,531.39634 400.31737,530.27134 400.33903,528.70363 z m -5.99089,0.47591 c -0.0424,0.89253 0.15989,1.79991 0.78386,2.63152 0.24124,0.076 0.39192,0.11197 0.39192,0.11197 C 394.69022,531.07516 394.3791,530.12394 394.34815,529.17954 Z"
       id="path4298"
       inkscape:connector-curvature="0" />
    <path
       style="fill:#ffffff;fill-opacity:0.23529412;stroke-width:0.2;stroke-linejoin:round"
       d="m 418.93248,515.79797 -1.70769,1.73568 0.16797,0.19596 1.53972,-1.56771 1.53971,1.53972 0.19596,-0.16797 L 418.93248,515.79797 z m -0.50391,1.90365 -0.16797,0.16796 0.69987,0.69987 0.69987,-0.69987 -0.16797,-0.16796 -0.5319,0.5039 L 418.42857,517.70162 z m 5.15104,1.48372 -0.47591,1.70768 -1.14779,0.67188 -0.11198,0.41992 1.25977,-0.72786 0.47591,-1.70769 2.26758,0.58789 0.0839,-0.33593 L 423.57961,519.18534 z m -9.26628,0.028 -2.35156,0.64388 0.0839,0.30794 2.26758,-0.58789 0.44792,1.6517 1.31575,0.75586 -0.11198,-0.39193 -1.20377,-0.69987 L 414.31333,519.21334 z m 3.38737,0.25195 -0.69987,0.69987 0.16797,0.16797 0.5319,-0.5039 0.75586,0.75586 0,-0.33594 L 417.7007,519.46529 z m 2.51954,0.028 -0.78386,0.75586 0,0.36394 0.78386,-0.75586 0.5039,0.5039 0.19597,-0.19596 L 420.22024,519.49328 z m 0.97981,0.81185 -0.55989,2.01563 -1.20378,0.69987 0,0.36393 1.20378,-0.69987 0.55989,-2.01562 0.83985,0.22395 0.0839,-0.33593 L 421.20005,520.30513 z m -4.45117,0.028 -0.95182,0.25196 0.0839,0.33593 0.86784,-0.22395 0.5319,1.98763 1.17578,0.69987 0,-0.36394 -1.17578,-0.69987 L 416.74888,520.33313 z m -3.80729,0.33594 -0.0839,0.0279 0.25195,0.95182 0.95183,-0.25195 -0.0839,-0.33594 -0.86784,0.22396 L 412.94159,520.66906 z m 12.03776,0 -0.16797,0.61589 -0.86784,-0.22396 -0.0839,0.33593 0.95183,0.25196 0.25195,-0.95182 L 424.97935,520.66906 z m -9.82617,1.90365 -0.64388,0.19596 0.0839,0.30794 0.97982,-0.25195 L 415.15318,522.57271 z m 7.61458,0.028 -0.44791,0.25195 0.97981,0.25195 0.0839,-0.33593 L 422.76776,522.60071 z m -7.95052,1.42773 -0.056,0.0279 -0.25195,0.89583 0.0839,0.028 0.16797,-0.58789 2.01562,0.5319 1.20378,-0.69986 -0.30795,-0.19597 -0.89583,0.5319 L 414.81724,524.02844 z m 5.43099,0 -0.30794,0.19596 1.17578,0.67188 2.01563,-0.5319 0.16796,0.61588 0.0839,-0.028 -0.25195,-0.89583 -0.11198,-0.0279 -1.90365,0.50391 L 420.24823,524.02844 z m -5.06706,1.45573 -0.86784,0.50391 -1.70768,-0.47591 -0.64388,2.35156 0.0839,0.0279 0.5599,-2.01563 1.70768,0.44792 1.25977,-0.72787 L 415.18117,525.48417 z m 7.58659,0 -0.44791,0.11198 1.31575,0.75586 1.65169,-0.44792 0.5599,2.04362 0.0839,-0.028 -0.64388,-2.37956 -1.65169,0.44792 L 422.76776,525.48417 z m -3.33138,0.58789 0,0.36393 1.31576,1.28776 0.16797,-0.16796 L 419.43638,526.07206 z m -0.97982,0.028 -1.45573,1.45573 0.19597,0.16797 1.25976,-1.25977 L 418.45656,526.10006 z m -2.37955,0.33594 -0.11198,0.056 -0.16797,0.64388 0.0839,0.028 L 416.07701,526.43599 z m 5.76692,0.0279 0.19597,0.72786 0.0839,-0.028 -0.16797,-0.64388 L 421.84393,526.46399 z m -7.86653,0.55989 -0.16797,0.61589 -0.86784,-0.22396 -0.0839,0.33594 0.95182,0.25195 0.25196,-0.95182 L 413.9774,527.02388 z m 9.96614,0 -0.0839,0.028 0.25196,0.95183 0.95182,-0.25196 -0.0839,-0.33593 -0.86784,0.22396 L 423.94354,527.02388 z m -5.48698,1.90365 -1.23177,1.25977 0.16797,0.16797 1.0638,-1.06381 L 418.45656,528.92753 z m 0.97982,0.056 0,0.33594 1.0638,1.03581 0.16797,-0.16797 L 419.43638,528.98352 z m -1.00781,1.42774 -0.16797,0.16796 0.69987,0.67188 0.69987,-0.67188 -0.16797,-0.16796 -0.5319,0.5039 L 418.42857,530.41125 Z"
       id="path4303"
       inkscape:connector-curvature="0" />
    <rect
       style="fill:#000000;fill-opacity:0.31372549;stroke:none"
       id="rect4374"
       width="0.80000007"
       height="42.000015"
       x="408.17142"
       y="502.798"
       ry="0" />
    <path
       inkscape:connector-curvature="0"
       style="fill:url(#linearGradient5349);fill-opacity:1;stroke:none"
       d="m 398.98437,533.85036 8.79902,10.47728 0.0719,0.0719 c 0.0679,0.0679 0.13824,0.12014 0.21574,0.1678 0.45731,0.28133 1.06628,0.22829 1.46245,-0.16788 0.46334,-0.46334 0.46344,-1.21481 7e-5,-1.67818 l -0.0719,-0.0719 -3.83604,-3.21269 L 398.98437,533.85036 Z"
       id="path1047"
       inkscape:transform-center-y="-4.1401256"
       inkscape:transform-center-x="4.1387294" />
    <path
       inkscape:connector-curvature="0"
       style="fill:#ffffff;fill-opacity:0.23483468;stroke:none"
       d="m 398.98437,533.85036 10.54912,10.54911 c 0.46334,-0.46334 0.46345,-1.21482 8e-5,-1.67819 l -0.0719,-0.0719 -3.83605,-3.21268 L 398.98437,533.85036 Z"
       id="rect1093"
       inkscape:transform-center-x="4.1387254"
       inkscape:transform-center-y="-4.3124975" />
    <path
       sodipodi:type="arc"
       style="fill:url(#linearGradient1112);fill-opacity:1;stroke:none"
       id="path1100"
       sodipodi:cx="15.423767"
       sodipodi:cy="22.499962"
       sodipodi:rx="1.9887378"
       sodipodi:ry="1.9887378"
       d="m 17.412505,22.499962 c 0,1.098349 -0.890388,1.988738 -1.988738,1.988738 -1.098349,0 -1.988738,-0.890389 -1.988738,-1.988738 0,-1.09835 0.890389,-1.988738 1.988738,-1.988738 C 16.522117,20.511224 17.412505,21.401612 17.412505,22.499962 Z"
       transform="matrix(0.12192541,-0.12192541,0.12192541,0.12192541,403.96004,542.58712)"
       inkscape:transform-center-y="0.012470623"
       inkscape:transform-center-x="-0.012477558" />
  </g>
</svg>
