<?xml version="1.0" encoding="UTF-8" standalone="no"?>
<!-- Created with Inkscape (http://www.inkscape.org/) -->

<svg
   xmlns:dc="http://purl.org/dc/elements/1.1/"
   xmlns:cc="http://creativecommons.org/ns#"
   xmlns:rdf="http://www.w3.org/1999/02/22-rdf-syntax-ns#"
   xmlns:svg="http://www.w3.org/2000/svg"
   xmlns="http://www.w3.org/2000/svg"
   xmlns:xlink="http://www.w3.org/1999/xlink"
   xmlns:sodipodi="http://sodipodi.sourceforge.net/DTD/sodipodi-0.dtd"
   xmlns:inkscape="http://www.inkscape.org/namespaces/inkscape"
   width="48"
   height="48"
   id="svg2"
   version="1.1"
   inkscape:version="0.48+devel r12501"
   sodipodi:docname="qreator.svg"
   inkscape:export-filename="/home/uri/workspace/NitruxforAndroid/res/drawable-xhdpi/qr_droid.png"
   inkscape:export-xdpi="180"
   inkscape:export-ydpi="180">
  <defs
     id="defs4">
    <linearGradient
       inkscape:collect="always"
       id="linearGradient1050">
      <stop
         style="stop-color:#ff0000;stop-opacity:1;"
         offset="0"
         id="stop1052" />
      <stop
         style="stop-color:#ff0000;stop-opacity:0;"
         offset="1"
         id="stop1054" />
    </linearGradient>
    <linearGradient
       inkscape:collect="always"
       id="linearGradient1026">
      <stop
         style="stop-color:#ffffff;stop-opacity:1;"
         offset="0"
         id="stop1028" />
      <stop
         style="stop-color:#ffffff;stop-opacity:0;"
         offset="1"
         id="stop1030" />
    </linearGradient>
    <linearGradient
       inkscape:collect="always"
       id="linearGradient1004">
      <stop
         style="stop-color:#000000;stop-opacity:1;"
         offset="0"
         id="stop1006" />
      <stop
         style="stop-color:#000000;stop-opacity:0;"
         offset="1"
         id="stop1008" />
    </linearGradient>
    <linearGradient
       id="linearGradient3373">
      <stop
         id="stop3375"
         offset="0"
         style="stop-color:#000000;stop-opacity:1" />
      <stop
         id="stop3377"
         offset="1"
         style="stop-color:#333333;stop-opacity:1" />
    </linearGradient>
    <linearGradient
       gradientUnits="userSpaceOnUse"
       y2="-1004.6325"
       x2="26.516504"
       y1="-1052.7157"
       x1="26.516504"
       id="linearGradient1608"
       xlink:href="#linearGradient3373"
       inkscape:collect="always"
       gradientTransform="translate(-2.3515625e-6,-7.6065625e-5)" />
    <linearGradient
       inkscape:collect="always"
       xlink:href="#linearGradient1004"
       id="linearGradient1010"
       x1="-0.7470817"
       y1="30.07004"
       x2="5.4630351"
       y2="30.07004"
       gradientUnits="userSpaceOnUse"
       gradientTransform="matrix(0.95238097,0,0,0.95238097,1.1428567,1005.5051)" />
    <linearGradient
       inkscape:collect="always"
       xlink:href="#linearGradient1004"
       id="linearGradient1014"
       gradientUnits="userSpaceOnUse"
       x1="-0.7470817"
       y1="30.07004"
       x2="5.4630351"
       y2="30.07004"
       gradientTransform="matrix(-0.95238097,0,0,0.95238097,46.857143,1005.5051)" />
    <linearGradient
       inkscape:collect="always"
       xlink:href="#linearGradient1004"
       id="linearGradient1020"
       gradientUnits="userSpaceOnUse"
       x1="-0.7470817"
       y1="30.07004"
       x2="5.4630351"
       y2="30.07004"
       gradientTransform="matrix(0,-0.95238097,0.95238097,0,1.1428567,1051.2193)" />
    <linearGradient
       inkscape:collect="always"
       xlink:href="#linearGradient1004"
       id="linearGradient1022"
       gradientUnits="userSpaceOnUse"
       gradientTransform="matrix(0,0.95238097,0.95238097,0,1.1428567,1005.5051)"
       x1="-0.7470817"
       y1="30.07004"
       x2="5.4630351"
       y2="30.07004" />
    <linearGradient
       inkscape:collect="always"
       xlink:href="#linearGradient1026"
       id="linearGradient1032"
       x1="24.300261"
       y1="-1005.8748"
       x2="24.300261"
       y2="-1034.137"
       gradientUnits="userSpaceOnUse"
       gradientTransform="matrix(0.95238097,0,0,0.95238097,1.1428567,-48.969608)" />
    <linearGradient
       inkscape:collect="always"
       xlink:href="#linearGradient1050"
       id="linearGradient1056"
       x1="24.432327"
       y1="20.92634"
       x2="24.432327"
       y2="41.396667"
       gradientUnits="userSpaceOnUse"
       gradientTransform="matrix(0.95238097,0,0,0.95238097,1.1428567,1005.5051)" />
  </defs>
  <sodipodi:namedview
     id="base"
     pagecolor="#ffffff"
     bordercolor="#666666"
     borderopacity="1.0"
     inkscape:pageopacity="0.0"
     inkscape:pageshadow="2"
     inkscape:zoom="5.7095056"
     inkscape:cx="-2.0228052"
     inkscape:cy="25.137605"
     inkscape:document-units="px"
     inkscape:current-layer="layer1"
     showgrid="false"
     inkscape:window-width="1366"
     inkscape:window-height="716"
     inkscape:window-x="0"
     inkscape:window-y="28"
     inkscape:window-maximized="1" />
  <metadata
     id="metadata7">
    <rdf:RDF>
      <cc:Work
         rdf:about="">
        <dc:format>image/svg+xml</dc:format>
        <dc:type
           rdf:resource="http://purl.org/dc/dcmitype/StillImage" />
        <dc:title />
      </cc:Work>
    </rdf:RDF>
  </metadata>
  <g
     inkscape:label="Capa 1"
     inkscape:groupmode="layer"
     id="layer1"
     transform="translate(0,-1004.3622)">
    <rect
       style="fill:url(#linearGradient1608);fill-opacity:1;stroke:none"
       id="rect2991-1-9"
       width="48"
       height="48"
       x="0"
       y="-1052.3622"
       ry="1.9445436"
       transform="scale(1,-1)" />
    <rect
       transform="scale(1,-1)"
       ry="1.7014757"
       y="-1049.3622"
       x="3"
       height="42"
       width="42"
       id="rect3264"
       style="fill:#000000;fill-opacity:0.23529412;stroke:none" />
    <g
       id="text6110-1-8-2"
       style="font-size:220.81851196px;font-style:normal;font-weight:normal;line-height:125%;letter-spacing:0px;word-spacing:0px;fill:#fff8c1;fill-opacity:1;stroke:none;font-family:Sans"
       transform="matrix(0.04171372,0,0,0.04113493,-48.809893,998.2314)" />
    <rect
       style="fill:#ffffff;fill-opacity:1;stroke:none"
       id="rect2991-1"
       width="40"
       height="40"
       x="3.9999995"
       y="-1048.3622"
       ry="1.6204531"
       transform="scale(1,-1)" />
    <path
       inkscape:connector-curvature="0"
       style="fill:#000000;fill-opacity:1;stroke:none"
       d="m -4.9999998e-8,1049.3622 0,1.0625 c 0,1.0773 0.860222899999998,1.9375 1.937499949999998,1.9375 l 44.1250001,0 c 1.077277,0 1.9375,-0.8602 1.9375,-1.9375 l 0,-1.0625 c 0,1.0773 -0.860223,1.9375 -1.9375,1.9375 l -44.1250002,0 C 0.86022285,1051.2997 -4.9999998e-8,1050.4395 -4.9999998e-8,1049.3622 Z"
       id="rect846" />
    <path
       inkscape:connector-curvature="0"
       style="fill:#ffffff;fill-opacity:0.5372549;stroke:none"
       d="m 2.5312499,1005.0185 c -0.9170884,0 -1.67114675,0.6395 -1.84374995,1.5 0.33561205,-0.2799 0.77451215,-0.4375 1.24999995,-0.4375 l 44.1250001,0 c 0.475488,0 0.914388,0.1576 1.25,0.4375 -0.172603,-0.8605 -0.926662,-1.5 -1.84375,-1.5 L 2.5312499,1005.0185 Z"
       id="path7515" />
    <path
       inkscape:connector-curvature="0"
       style="fill:#000000;fill-opacity:0.39215686;stroke:none"
       d="m 1.9374999,1004.3622 c -1.07727695,0 -1.937499949999998,0.8602 -1.937499949999998,1.9375 l 0,43.0625 c 0,0.7934 0.480023599999998,1.449 1.156249949999998,1.75 -0.30934165,-0.3333 -0.49999995,-0.7824 -0.49999995,-1.2812 l 0,-42.9375 c 0,-1.0482 0.82689895,-1.875 1.87499995,-1.875 l 42.9375001,0 c 1.048101,0 1.875,0.8268 1.875,1.875 l 0,42.9375 c 0,0.4988 -0.190658,0.9479 -0.5,1.2812 0.676226,-0.301 1.15625,-0.9566 1.15625,-1.75 l 0,-43.0625 c 0,-1.0773 -0.860223,-1.9375 -1.9375,-1.9375 L 1.9374999,1004.3622 Z"
       id="rect4280" />
    <path
       style="fill:#000000"
       d="m 4.9091009,1042.845 0,-4.6081 4.6081465,0 4.6081476,0 0,4.6081 0,4.6082 -4.6081476,0 -4.6081465,0 0,-4.6082 z m 7.8996821,0 0,-3.2917 -3.2915356,0 -3.2915346,0 0,3.2917 0,3.2915 3.2915346,0 3.2915356,0 -10e-7,-3.2915 z m -5.2664565,0 0,-1.975 1.9749209,0 1.9749216,0 0,1.975 0,1.9748 -1.9749216,0 -1.9749209,0 0,-1.9748 z m 7.8996835,3.9499 0,-0.6584 0.658307,0 0.658307,0 0,-0.6582 0,-0.6585 0.658305,0 0.658308,0 0,-0.6583 0,-0.6583 0.658308,0 0.658305,0 0,0.6583 0,0.6583 0.658306,0 0.658309,0 0,-1.3166 0,-1.3165 0.658306,0 0.658308,0 0,-0.6583 0,-0.6584 -1.316614,0 -1.316615,0 0,-1.3167 0,-1.3164 -0.658305,0 -0.658308,0 0,-0.6584 0,-0.6583 -0.658307,0 -0.658306,0 0,0.6583 0,0.6584 -0.658307,0 -0.658307,0 0,-0.6584 0,-0.6583 -1.97492,0 -1.974921,0 0,-0.6583 0,-0.6584 -0.658308,0 -0.658306,0 0,-0.6583 0,-0.6582 -0.6583076,0 -0.6583064,0 0,-0.6583 0,-0.6583 -0.6583072,0 -0.6583073,0 0,-1.3167 0,-1.3166 0.6583073,0 0.6583072,0 0,-0.6582 0,-0.6584 0.6583064,0 0.6583076,0 0,-0.6583 0,-0.6583 0.658306,0 0.658308,0 0,1.3166 0,1.3166 -0.658308,0 -0.658306,0 0,0.6583 0,0.6583 1.316614,0 1.316614,0 0,-0.6583 0,-0.6583 0.658307,0 0.658306,0 0,0.6583 0,0.6583 -0.658306,0 -0.658307,0 0,0.6583 0,0.6584 0.658307,0 0.658306,0 0,0.6583 0,0.6583 0.658308,0 0.658306,0 0,-0.6583 0,-0.6583 1.316615,0 1.316613,0 0,-1.3167 0,-1.3166 -0.658308,0 -0.658305,0 0,0.6583 0,0.6583 -0.658308,0 -0.658307,0 0,-0.6583 0,-0.6583 0.658307,0 0.658308,0 0,-1.3166 0,-1.3166 -0.658308,0 -0.658307,0 0,-1.3166 0,-1.3166 -0.658306,0 -0.658308,0 0,0.6584 0,0.6582 -1.316613,0 -1.316614,0 0,-0.6582 0,-0.6584 -0.658308,0 -0.658306,0 0,0.6584 0,0.6582 -0.6583076,0 -0.6583064,0 0,0.6582 0,0.6584 -0.6583072,0 -0.6583073,0 0,0.6583 0,0.6583 -0.6583064,0 -0.6583073,0 0,1.3166 0,1.3166 -0.6583063,0 -0.6583056,0 0,-1.3166 0,-1.3166 0.6583056,0 0.6583063,0 0,-0.6583 0,-0.6583 0.6583073,0 0.6583064,0 0,-0.6584 0,-0.6582 -0.6583064,0 -0.6583073,0 0,-0.6582 0,-0.6584 -0.6583063,0 -0.6583056,0 0,-1.3167 0,-1.3166 1.3166119,0 1.3166137,0 0,-0.6582 0,-0.6583 1.3166145,0 1.316614,0 0,1.3165 0,1.3166 0.658306,0 0.658308,0 0,-1.3166 0,-1.3165 0.658307,0 0.658307,0 0,-0.6584 0,-0.6583 0.658307,0 0.658306,0 0,0.6583 0,0.6584 -0.658306,0 -0.658307,0 0,0.6583 0,0.6582 2.633227,0 2.633228,0 0,-0.6582 0,-0.6583 -1.316613,0 -1.316615,0 0,-1.975 0,-1.9749 0.658307,0 0.658308,0 0,-1.3166 0,-1.3167 -0.658308,0 -0.658307,0 0,-1.9748 0,-1.975 0.658307,0 0.658308,0 0,0.6583 0,0.6583 0.658305,0 0.658308,0 0,-0.6583 0,-0.6583 0.658308,0 0.658305,0 0,-0.6584 0,-0.6583 0.658306,0 0.658309,0 0,0.6583 0,0.6584 1.974922,0 1.97492,0 0,-0.6584 0,-0.6583 1.316613,0 1.316613,0 0,1.3167 0,1.3166 -0.658305,0 -0.658308,0 0,0.6584 0,0.6583 1.316613,0 1.316616,0 0,0.6582 0,0.6583 1.97492,0 1.97492,0 0,2.6333 0,2.6332 1.316614,0 1.316614,0 0,0.6583 0,0.6584 1.316614,0 1.316614,0 0,-0.6584 0,-0.6583 1.974921,0 1.974921,0 0,1.3167 0,1.3165 -1.316615,0 -1.316614,0 0,-0.6582 0,-0.6583 -0.658306,0 -0.658307,0 0,1.9748 0,1.975 -0.658308,0 -0.658306,0 0,0.6584 0,0.6582 0.658306,0 0.658308,0 0,1.3166 0,1.3166 -1.316614,0 -1.316614,0 0,0.6584 0,0.6582 -0.658307,0 -0.658307,0 0,-0.6582 0,-0.6584 0.658307,0 0.658307,0 0,-0.6583 0,-0.6583 -2.633228,0 -2.633227,0 0,-1.3166 0,-1.3166 -0.658308,0 -0.658305,0 0,-0.6583 0,-0.6584 -0.658306,0 -0.65831,0 0,1.3167 0,1.3166 -0.658305,0 -0.658308,0 0,0.6582 0,0.6584 0.658308,0 0.658305,0 0,0.6583 0,0.6583 -1.316613,0 -1.316613,0 0,-1.3166 0,-1.3166 0.658305,0 0.658308,0 0,-0.6582 0,-0.6584 -0.658308,0 -0.658305,0 0,-0.6583 0,-0.6584 -0.658308,0 -0.658307,0 0,1.3167 0,1.3166 -0.658305,0 -0.658308,0 0,0.6582 0,0.6584 -0.658308,0 -0.658306,0 0,0.6583 0,0.6583 0.658306,0 0.658308,0 0,1.3166 0,1.3166 2.633228,0 2.633226,0 0,-0.6583 0,-0.6583 0.65831,0 0.658306,0 0,-0.6582 0,-0.6584 1.316613,0 1.316613,0 0,2.6332 0,2.6333 -1.974921,0 -1.974921,0 0,0.6582 0,0.6583 0.65831,0 0.658306,0 0,0.6584 0,0.6583 -0.658306,0 -0.65831,0 0,-0.6583 0,-0.6584 -1.316613,0 -1.316613,0 0,0.6584 0,0.6583 0.658305,0 0.658308,0 0,0.6583 0,0.6584 1.974923,0 1.974919,0 0,-0.6584 0,-0.6583 0.658307,0 0.658306,0 0,-0.6583 0,-0.6584 1.316614,0 1.316614,0 0,-0.6583 0,-0.6582 0.658307,0 0.658307,0 0,-0.6583 0,-0.6583 -0.658307,0 -0.658307,0 0,-0.6584 0,-0.6583 2.633228,0 2.633227,0 0,-2.6332 0,-2.6332 1.316614,0 1.316615,0 0,-0.6582 0,-0.6584 0.658306,0 0.658305,0 0,1.3166 0,1.3166 -1.316611,0 -1.316615,0 0,1.975 0,1.9748 1.316615,0 1.316611,0 0,1.3167 0,1.3166 -0.658305,0 -0.658306,0 0,-0.6583 0,-0.6583 -2.633229,0 -2.633227,0 0,0.6583 0,0.6583 0.658306,0 0.658308,0 0,1.3165 0,1.3167 0.658307,0 0.658306,0 0,-0.6583 0,-0.6584 1.974921,0 1.974919,0 0,0.6584 0,0.6583 -1.974919,0 -1.974921,0 0,0.6583 0,0.6584 0.658308,0 0.658306,0 0,0.6583 0,0.6581 -0.658306,0 -0.658308,0 0,1.9751 0,1.9748 -0.658306,0 -0.658307,0 0,0.6583 0,0.6583 1.316613,0 1.316614,0 0,-0.6583 0,-0.6583 0.658307,0 0.658307,0 0,-0.6582 0,-0.6583 -0.658307,0 -0.658307,0 0,-0.6583 0,-0.6584 0.658307,0 0.658307,0 0,-0.6583 0,-0.6584 0.658306,0 0.658305,0 0,1.9751 0,1.9748 -0.658305,0 -0.658306,0 0,0.6583 0,0.6583 0.658306,0 0.658305,0 0,0.6585 0,0.6582 -0.658305,0 -0.658306,0 0,-0.6582 0,-0.6585 -0.658307,0 -0.658307,0 0,1.3167 0,1.3167 -0.658306,0 -0.658308,0 0,-0.6583 0,-0.6584 -0.658306,0 -0.658307,0 0,0.6584 0,0.6583 -1.974921,0 -1.974921,0 0,-0.6583 0,-0.6584 -0.658307,0 -0.658306,0 0,-0.6582 0,-0.6585 -0.658307,0 -0.658308,0 0,-0.6583 0,-0.6583 -0.658306,0 -0.658307,0 0,-1.3165 0,-1.3167 -0.658308,0 -0.658305,0 0,-0.6583 0,-0.6584 -1.316616,0 -1.316613,0 0,0.6584 0,0.6583 0.658308,0 0.658305,0 0,1.3167 0,1.3165 -0.658305,0 -0.658308,0 0,1.3166 0,1.3167 -2.633228,0 -2.633227,0 0,0.6584 0,0.6583 -1.316615,0 -1.316613,0 0,-0.6583 0,-0.6584 -0.658308,0 -0.658305,0 0,0.6584 0,0.6583 -0.658308,0 -0.658307,0 -10e-7,-0.6583 z m 3.949841,-1.3166 0,-0.6585 -0.658305,0 -0.658308,0 0,0.6585 0,0.6582 0.658308,0 0.658305,0 -10e-7,-0.6582 z m 14.482753,-1.3168 0,-0.6583 0.658307,0 0.658306,0 0,-0.6582 0,-0.6583 -1.316613,0 -1.316614,0 0,1.3165 0,1.3166 0.658307,0 0.658307,0 0,-0.6583 z m -10.532911,-1.3165 0,-0.6583 -0.658305,0 -0.658308,0 0,0.6583 0,0.6582 0.658308,0 0.658305,0 -1e-6,-0.6582 z m 14.482753,0 0,-0.6583 -0.658308,0 -0.658306,0 0,0.6583 0,0.6582 0.658306,0 0.658308,0 0,-0.6582 z m -14.482753,-2.6333 0,-0.6584 0.658307,0 0.658307,0 0,-0.6581 0,-0.6583 -0.658307,0 -0.658307,0 0,-1.3167 0,-1.3167 0.658307,0 0.658307,0 0,-1.3165 0,-1.3166 -1.316615,0 -1.316613,0 0,-0.6584 0,-0.6583 -0.658308,0 -0.658306,0 0,-1.3166 0,-1.3166 -0.658309,0 -0.658306,0 0,-0.6583 0,-0.6583 -0.658305,0 -0.658308,0 0,1.3166 0,1.3166 0.658308,0 0.658305,0 0,1.9749 0,1.975 -0.658305,0 -0.658308,0 0,0.6582 0,0.6583 0.658308,0 0.658305,0 0,1.3167 0,1.3167 0.658306,0 0.658309,0 0,0.6583 0,0.6581 0.658306,0 0.658308,0 0,0.6584 0,0.6583 0.658308,0 0.658305,0 0,-0.6583 z m -3.949842,-5.2665 0,-0.6582 0.658306,0 0.658309,0 0,-0.6583 0,-0.6583 0.658306,0 0.658308,0 0,0.6583 0,0.6583 0.658308,0 0.658305,0 0,0.6582 0,0.6583 -0.658305,0 -0.658308,0 0,-0.6583 0,-0.6582 -0.658308,0 -0.658306,0 0,0.6582 0,0.6583 -0.658309,0 -0.658306,0 -10e-7,-0.6583 z m 11.849524,5.2665 0,-0.6584 -0.658305,0 -0.658307,0 0,0.6584 0,0.6583 0.658307,0 0.658305,0 0,-0.6583 z m 5.266456,-1.3165 0,-1.975 -1.97492,0 -1.974921,0 0,1.975 0,1.9748 1.974921,0 1.97492,0 0,-1.9748 z m -2.633228,0 0,-0.6583 0.658308,0 0.658306,0 0,0.6583 0,0.6581 -0.658306,0 -0.658308,0 10e-7,-0.6581 z m -17.115979,-3.2917 0,-1.3165 -0.658308,0 -0.658307,0 0,1.3165 0,1.3167 0.658307,0 0.658308,0 0,-1.3167 z m -2.633229,-0.6583 0,-0.6582 -1.316613,0 -1.316614,0 0,0.6582 0,0.6583 1.316614,0 1.316613,0 0,-0.6583 z m 13.166138,-1.3165 0,-0.6583 0.65831,0 0.658306,0 0,-0.6584 0,-0.6583 0.658305,0 0.658308,0 0,-0.6583 0,-0.6583 -0.658308,0 -0.658305,0 0,0.6583 0,0.6583 -0.658306,0 -0.65831,0 0,0.6583 0,0.6584 -0.658305,0 -0.658308,0 0,0.6583 0,0.6583 0.658308,0 0.658305,0 0,-0.6583 z m -17.115978,-1.3167 0,-0.6583 -0.6583076,0 -0.6583064,0 0,0.6583 0,0.6584 0.6583064,0 0.6583076,0 0,-0.6584 z m -1.316614,-6.5829 0,-0.6584 0.6583064,0 0.6583076,0 0,-0.6583 0,-0.6584 -0.6583076,0 -0.6583064,0 0,-0.6583 0,-0.6583 -0.6583072,0 -0.6583073,0 0,0.6583 0,0.6583 -0.6583064,0 -0.6583073,0 0,0.6584 0,0.6583 0.6583073,0 0.6583064,0 0,0.6584 0,0.6582 0.6583073,0 0.6583072,0 0,-0.6582 z m 9.216296,0 0,-0.6584 -0.658308,0 -0.658305,0 0,-0.6583 0,-0.6584 -0.658308,0 -0.658307,0 0,0.6584 0,0.6583 0.658307,0 0.658308,0 0,0.6584 0,0.6582 0.658305,0 0.658308,0 0,-0.6582 z m 2.633228,0 0,-0.6584 0.658306,0 0.658308,0 0,-0.6583 0,-0.6584 -0.658308,0 -0.658306,0 0,-0.6583 0,-0.6583 0.658306,0 0.658308,0 0,-0.6582 0,-0.6583 0.658308,0 0.658305,0 0,0.6583 0,0.6582 1.316615,0 1.316613,0 0,-0.6582 0,-0.6583 0.658308,0 0.658305,0 0,-0.6584 0,-0.6583 0.65831,0 0.658306,0 0,0.6583 0,0.6584 1.316613,0 1.316613,0 0,0.6583 0,0.6582 -1.316613,0 -1.316613,0 0,0.6583 0,0.6583 0.658305,0 0.658308,0 0,0.6584 0,0.6583 0.658307,0 0.658306,0 0,-0.6583 0,-0.6584 0.658308,0 0.658307,0 0,1.3167 0,1.3166 0.658306,0 0.658307,0 0,-1.9749 0,-1.975 0.658307,0 0.658307,0 0,-0.6582 0,-0.6583 -1.316614,0 -1.316613,0 0,-0.6584 0,-0.6583 -0.658307,0 -0.658308,0 0,-1.975 0,-1.9748 -0.658306,0 -0.658307,0 0,1.3167 0,1.3164 -0.658308,0 -0.658305,0 0,-1.9748 0,-1.975 -0.658306,0 -0.65831,0 0,0.6584 0,0.6583 -0.658305,0 -0.658308,0 0,0.6583 0,0.6583 -0.658308,0 -0.658305,0 0,-1.3166 0,-1.3167 0.658305,0 0.658308,0 0,-0.6583 0,-0.6582 -0.658308,0 -0.658305,0 0,-0.6583 0,-0.6584 0.658305,0 0.658308,0 0,-0.6583 0,-0.6583 -0.658308,0 -0.658305,0 0,0.6583 0,0.6583 -0.658308,0 -0.658307,0 0,0.6584 0,0.6583 -0.658305,0 -0.658308,0 0,3.9499 0,3.9498 -0.658308,0 -0.658306,0 0,-0.6584 0,-0.6583 -0.658309,0 -0.658306,0 0,-0.6583 0,-0.6584 0.658306,0 0.658309,0 0,-0.6583 0,-0.6582 -0.658309,0 -0.658306,0 0,0.6582 0,0.6583 -0.658305,0 -0.658308,0 0,-0.6583 0,-0.6582 -0.658308,0 -0.658305,0 0,0.6582 0,0.6583 0.658305,0 0.658308,0 0,1.3167 0,1.3167 1.316613,0 1.316615,0 0,0.6583 0,0.6582 -1.316615,0 -1.316613,0 0,0.6583 0,0.6583 1.316613,0 1.316615,0 0,0.6584 0,0.6583 -0.658309,0 -0.658306,0 0,0.6584 0,0.6582 0.658306,0 0.658309,0 0,-0.6582 z m 2.633227,-7.2416 0,-1.3164 0.658307,0 0.658308,0 0,0.6581 0,0.6583 0.658305,0 0.658308,0 0,-0.6583 0,-0.6581 0.658308,0 0.658305,0 0,1.3164 0,1.3167 -1.974921,0 -1.97492,0 0,-1.3167 z m -9.216297,5.9249 0,-0.6584 -1.316613,0 -1.316614,0 0,0.6584 0,0.6583 1.316614,0 1.316613,0 0,-0.6583 z m 22.382436,0 0,-0.6584 -0.658307,0 -0.658307,0 0,0.6584 0,0.6583 0.658307,0 0.658307,0 0,-0.6583 z m -17.115981,-9.2163 0,-0.6584 0.658306,0 0.658309,0 0,-0.6583 0,-0.6582 -0.658309,0 -0.658306,0 0,0.6582 0,0.6583 -0.658305,0 -0.658308,0 0,0.6584 0,0.6583 0.658308,0 0.658305,0 0,-0.6583 z m 7.899683,31.5988 0,-0.6584 0.65831,0 0.658306,0 0,-0.6582 0,-0.6585 0.658305,0 0.658308,0 0,0.6585 0,0.6582 0.658307,0 0.658306,0 0,0.6584 0,0.6583 -1.974921,0 -1.974921,0 0,-0.6583 z m -10.532909,-5.2665 0,-0.6584 0.658305,0 0.658308,0 0,0.6584 0,0.6583 -0.658308,0 -0.658305,0 0,-0.6583 z m -10.5329112,-5.9249 0,-1.3165 0.6583073,0 0.6583064,0 0,1.3165 0,1.3167 -0.6583064,0 -0.6583073,0 0,-1.3167 z m 35.5485742,-5.9246 0,-0.6584 0.658306,0 0.658305,0 0,0.6584 0,0.6582 -0.658305,0 -0.658306,0 0,-0.6582 z m -28.965505,-1.3167 0,-0.6583 0.658307,0 0.658306,0 0,0.6583 0,0.6583 -0.658306,0 -0.658307,0 0,-0.6583 z m -7.8996811,-7.8997 0,-0.6583 0.6583056,0 0.6583063,0 0,0.6583 0,0.6584 -0.6583063,0 -0.6583056,0 0,-0.6584 z m 0,-6.5831 0,-4.6082 4.6081465,0 4.6081476,0 0,4.6082 0,4.6081 -4.6081476,0 -4.6081465,0 0,-4.6081 z m 7.8996811,0 0,-3.2915 -3.2915346,0 -3.2915346,0 0,3.2915 0,3.2917 3.2915346,0 3.2915346,0 0,-3.2917 z m -5.2664555,0 0,-1.9748 1.9749209,0 1.9749206,0 0,1.9748 0,1.975 -1.9749206,0 -1.9749209,0 0,-1.975 z m 26.3322765,0 0,-4.6082 4.608149,0 4.608146,0 0,4.6082 0,4.6081 -4.608146,0 -4.608149,0 10e-7,-4.6081 z m 7.899684,0 0,-3.2915 -3.291535,0 -3.291535,0 0,3.2915 0,3.2917 3.291535,0 3.291535,0 0,-3.2917 z m -5.266456,0 0,-1.9748 1.974921,0 1.97492,0 0,1.9748 0,1.975 -1.97492,0 -1.974921,0 0,-1.975 z m -6.583069,-1.3165 0,-0.6583 -0.658308,0 -0.658305,0 0,-1.3167 0,-1.3167 0.658305,0 0.658308,0 0,1.3167 0,1.3167 1.316613,0 1.316615,0 0,0.6583 0,0.6583 -1.316615,0 -1.316613,0 10e-7,-0.6583 z"
       id="path849"
       inkscape:connector-curvature="0" />
    <rect
       transform="scale(1,-1)"
       ry="1.6204531"
       y="-1048.3622"
       x="3.9999995"
       height="40"
       width="40"
       id="rect1024"
       style="opacity:0.67900002;fill:url(#linearGradient1032);fill-opacity:1;stroke:none" />
    <path
       style="fill:url(#linearGradient1056);fill-opacity:1;stroke:none"
       d="m 3.9999996,1028.8384 0,17.9167 c 0.048733,0.4462 0.2285663,0.8407 0.5059524,1.1309 0.068958,0.067 0.1282531,0.1543 0.2083333,0.2083 0.247444,0.1803 0.5482636,0.2679 0.8928572,0.2679 l 36.7857155,0 c 0.448865,0 0.823702,-0.186 1.10119,-0.4762 0.277488,-0.2902 0.457627,-0.6847 0.505952,-1.1309 l 0,-17.9167 -40.0000004,0 z"
       id="rect1034"
       inkscape:connector-curvature="0" />
    <path
       style="fill:#ff0000;fill-opacity:1;stroke:none"
       d="m 3.9999996,1028.3655 0,0.4729 40.0000004,0 0,-0.4729 -40.0000004,0 z"
       id="rect1058"
       inkscape:connector-curvature="0" />
    <path
       inkscape:connector-curvature="0"
       id="path1063"
       d="m 3.9999996,1028.6485 0,0.1899 40.0000004,0 0,-0.1899 -40.0000004,0 z"
       style="fill:#aa0000;fill-opacity:1;stroke:none" />
    <path
       inkscape:connector-curvature="0"
       id="path1065"
       d="m 3.9999996,1028.3655 0,0.1427 40.0000004,0 0,-0.1427 -40.0000004,0 z"
       style="fill:#ffaaaa;fill-opacity:1;stroke:none" />
    <path
       style="fill:url(#linearGradient1010);fill-opacity:1;stroke:none"
       d="m 5.6071425,1008.3622 c -0.8977311,0 -1.6071429,0.7094 -1.6071429,1.6071 l 0,36.7858 c 0,0.8977 0.7094118,1.6071 1.6071429,1.6071 l 3.0059524,0 0,-40 -3.0059524,0 z"
       id="rect999"
       inkscape:connector-curvature="0" />
    <path
       inkscape:connector-curvature="0"
       style="fill:url(#linearGradient1022);fill-opacity:1;stroke:none"
       d="m 3.9999996,1009.9693 c 0,-0.8977 0.7094286,-1.6071 1.6071429,-1.6071 l 36.7857155,0 c 0.897714,0 1.607142,0.7094 1.607142,1.6071 l 0,3.006 -40.0000004,0 0,-3.006 z"
       id="path1018" />
    <path
       id="path1012"
       d="m 42.392858,1008.3622 c 0.897731,0 1.607142,0.7094 1.607142,1.6071 l 0,36.7858 c 0,0.8977 -0.709411,1.6071 -1.607142,1.6071 l -3.005953,0 0,-40 3.005953,0 z"
       style="fill:url(#linearGradient1014);fill-opacity:1;stroke:none"
       inkscape:connector-curvature="0" />
    <path
       id="path1016"
       d="m 3.9999996,1046.7551 c 0,0.8977 0.7094118,1.6071 1.6071429,1.6071 l 36.7857155,0 c 0.897731,0 1.607142,-0.7094 1.607142,-1.6071 l 0,-3.0059 -40.0000004,0 0,3.0059 z"
       style="fill:url(#linearGradient1020);fill-opacity:1;stroke:none"
       inkscape:connector-curvature="0" />
  </g>
</svg>
