<?xml version="1.0" encoding="UTF-8" standalone="no"?>
<!-- Created with Inkscape (http://www.inkscape.org/) -->

<svg
   xmlns:dc="http://purl.org/dc/elements/1.1/"
   xmlns:cc="http://creativecommons.org/ns#"
   xmlns:rdf="http://www.w3.org/1999/02/22-rdf-syntax-ns#"
   xmlns:svg="http://www.w3.org/2000/svg"
   xmlns="http://www.w3.org/2000/svg"
   xmlns:xlink="http://www.w3.org/1999/xlink"
   xmlns:sodipodi="http://sodipodi.sourceforge.net/DTD/sodipodi-0.dtd"
   xmlns:inkscape="http://www.inkscape.org/namespaces/inkscape"
   width="48"
   height="48"
   id="svg5453"
   version="1.1"
   inkscape:version="0.48+devel r12923"
   sodipodi:docname="quodlibet.svg">
  <defs
     id="defs5455">
    <linearGradient
       id="linearGradient4774">
      <stop
         style="stop-color:#badeea;stop-opacity:1"
         offset="0"
         id="stop4776" />
      <stop
         style="stop-color:#f8fcfc;stop-opacity:1"
         offset="1"
         id="stop4778" />
    </linearGradient>
    <linearGradient
       gradientUnits="userSpaceOnUse"
       y2="-1004.6325"
       x2="26.162949"
       y1="-1052.7157"
       x1="26.162949"
       id="linearGradient941"
       xlink:href="#linearGradient1726-5"
       inkscape:collect="always"
       gradientTransform="translate(384.57143,504.56416)" />
    <linearGradient
       id="linearGradient1726-5">
      <stop
         style="stop-color:#008ac3;stop-opacity:1"
         offset="0"
         id="stop1728-9" />
      <stop
         style="stop-color:#00b3e4;stop-opacity:1"
         offset="1"
         id="stop1730-9" />
    </linearGradient>
    <linearGradient
       inkscape:collect="always"
       xlink:href="#linearGradient4774"
       id="linearGradient4124"
       x1="410.33289"
       y1="508.38513"
       x2="410.33289"
       y2="539.19788"
       gradientUnits="userSpaceOnUse"
       gradientTransform="matrix(0.99966803,0,0,-1,0.135638,1047.596)" />
  </defs>
  <sodipodi:namedview
     id="base"
     pagecolor="#ffffff"
     bordercolor="#666666"
     borderopacity="1.0"
     inkscape:pageopacity="0"
     inkscape:pageshadow="2"
     inkscape:zoom="2.9695544"
     inkscape:cx="-14.193583"
     inkscape:cy="22.019119"
     inkscape:document-units="px"
     inkscape:current-layer="layer1"
     showgrid="false"
     fit-margin-top="0"
     fit-margin-left="0"
     fit-margin-right="0"
     fit-margin-bottom="0"
     inkscape:window-width="1366"
     inkscape:window-height="669"
     inkscape:window-x="0"
     inkscape:window-y="26"
     inkscape:window-maximized="1"
     inkscape:showpageshadow="false"
     borderlayer="true" />
  <metadata
     id="metadata5458">
    <rdf:RDF>
      <cc:Work
         rdf:about="">
        <dc:format>image/svg+xml</dc:format>
        <dc:type
           rdf:resource="http://purl.org/dc/dcmitype/StillImage" />
        <dc:title />
      </cc:Work>
    </rdf:RDF>
  </metadata>
  <g
     inkscape:label="Capa 1"
     inkscape:groupmode="layer"
     id="layer1"
     transform="translate(-384.57143,-499.798)">
    <rect
       style="fill:url(#linearGradient941);fill-opacity:1;stroke:none"
       id="rect2991-1"
       width="48"
       height="48"
       x="384.57144"
       y="-547.79797"
       ry="1.9445436"
       transform="scale(1,-1)" />
    <path
       d="m 411.51587,540.39795 -2.62729,0 0,-21.41254 c -1.45101,0.55788 -3.33096,0.56801 -5.18454,-0.1014 -3.3259,-1.21719 -5.30422,-4.15874 -4.42306,-6.57285 0.88116,-2.42426 4.2882,-3.40817 7.61004,-2.19098 2.81992,1.02448 4.66742,3.30672 4.6218,5.44698 l 0.003,17.51752 c 4.58325,-0.73032 4.89759,-6.52215 4.34699,-8.14508 -0.20991,-0.61874 0.15717,-1.07521 0.85174,0 4.94021,7.68861 -5.19873,11.0765 -5.19873,15.4584"
       style="fill:#000000;fill-opacity:0.05882353;fill-rule:nonzero;stroke:none"
       id="path4132"
       inkscape:connector-curvature="0" />
    <path
       inkscape:connector-curvature="0"
       id="path4130"
       style="fill:#000000;fill-opacity:0.11764706;fill-rule:nonzero;stroke:none"
       d="m 411.51587,539.99795 -2.62729,0 0,-21.41254 c -1.45101,0.55788 -3.33096,0.56801 -5.18454,-0.1014 -3.3259,-1.21719 -5.30422,-4.15874 -4.42306,-6.57285 0.88116,-2.42426 4.2882,-3.40817 7.61004,-2.19098 2.81992,1.02448 4.66742,3.30672 4.6218,5.44698 l 0.003,17.51752 c 4.58325,-0.73032 4.89759,-6.52215 4.34699,-8.14508 -0.20991,-0.61874 0.15717,-1.07521 0.85174,0 4.94021,7.68861 -5.19873,11.0765 -5.19873,15.4584" />
    <path
       d="m 411.51587,539.59795 -2.62729,0 0,-21.41254 c -1.45101,0.55788 -3.33096,0.56801 -5.18454,-0.1014 -3.3259,-1.21719 -5.30422,-4.15874 -4.42306,-6.57285 0.88116,-2.42426 4.2882,-3.40817 7.61004,-2.19098 2.81992,1.02448 4.66742,3.30672 4.6218,5.44698 l 0.003,17.51752 c 4.58325,-0.73032 4.89759,-6.52215 4.34699,-8.14508 -0.20991,-0.61874 0.15717,-1.07521 0.85174,0 4.94021,7.68861 -5.19873,11.0765 -5.19873,15.4584"
       style="fill:#000000;fill-opacity:0.23529412;fill-rule:nonzero;stroke:none"
       id="path4126"
       inkscape:connector-curvature="0" />
    <path
       inkscape:connector-curvature="0"
       style="fill:#000000;fill-opacity:1;stroke:none"
       d="m 384.57143,544.79799 0,1.0625 c 0,1.0773 0.86022,1.9375 1.9375,1.9375 l 44.125,0 c 1.07728,0 1.9375,-0.8602 1.9375,-1.9375 l 0,-1.0625 c 0,1.0773 -0.86022,1.9375 -1.9375,1.9375 l -44.125,0 C 385.43165,546.73549 384.57143,545.87529 384.57143,544.79799 Z"
       id="rect846" />
    <path
       inkscape:connector-curvature="0"
       style="fill:#ffffff;fill-opacity:0.5372549;stroke:none"
       d="m 387.10268,500.45429 c -0.91709,0 -1.67115,0.6395 -1.84375,1.5 0.33561,-0.2799 0.77451,-0.4375 1.25,-0.4375 l 44.125,0 c 0.47549,0 0.91439,0.1576 1.25,0.4375 -0.1726,-0.8605 -0.92666,-1.5 -1.84375,-1.5 L 387.10268,500.45429 Z"
       id="path7515" />
    <path
       inkscape:connector-curvature="0"
       style="fill:#000000;fill-opacity:0.39215686;stroke:none"
       d="m 386.50893,499.79799 c -1.07728,0 -1.9375,0.8602 -1.9375,1.9375 l 0,43.0625 c 0,0.7934 0.48002,1.449 1.15625,1.75 -0.30934,-0.3333 -0.5,-0.7824 -0.5,-1.2812 l 0,-42.9375 c 0,-1.0482 0.8269,-1.875 1.875,-1.875 l 42.9375,0 c 1.0481,0 1.875,0.8268 1.875,1.875 l 0,42.9375 c 0,0.4988 -0.19066,0.9479 -0.5,1.2812 0.67623,-0.301 1.15625,-0.9566 1.15625,-1.75 l 0,-43.0625 c 0,-1.0773 -0.86022,-1.9375 -1.9375,-1.9375 L 386.50893,499.79799 Z"
       id="rect4280" />
    <path
       inkscape:connector-curvature="0"
       id="path84"
       style="fill:url(#linearGradient4124);fill-opacity:1;fill-rule:nonzero;stroke:none"
       d="m 411.51587,539.19795 -2.62729,0 0,-21.41254 c -1.45101,0.55788 -3.33096,0.56801 -5.18454,-0.1014 -3.3259,-1.21719 -5.30422,-4.15874 -4.42306,-6.57285 0.88116,-2.42426 4.2882,-3.40817 7.61004,-2.19098 2.81992,1.02448 4.66742,3.30672 4.6218,5.44698 l 0.003,17.51752 c 4.58325,-0.73032 4.89759,-6.52215 4.34699,-8.14508 -0.20991,-0.61874 0.15717,-1.07521 0.85174,0 4.94021,7.68861 -5.19873,11.0765 -5.19873,15.4584" />
    <g
       style="font-size:15.97661114px;font-style:normal;font-variant:normal;font-weight:bold;font-stretch:normal;line-height:125%;letter-spacing:0px;word-spacing:0px;fill:#000000;fill-opacity:1;stroke:none;font-family:Vemana2000;-inkscape-font-specification:Vemana2000 Bold"
       id="text966"
       transform="translate(441.03394,-501.81215)" />
    <path
       style="fill:#008fc7;fill-opacity:0.3137255;fill-rule:nonzero;stroke:none"
       d="M 14.529297 12.109375 C 14.277129 14.341498 16.165205 16.800654 19.132812 17.886719 C 20.986393 18.556129 22.865396 18.546161 24.316406 17.988281 L 24.316406 17.1875 C 22.865396 17.74538 20.986393 17.755347 19.132812 17.085938 C 16.516952 16.128603 14.742332 14.104507 14.529297 12.109375 z M 31.332031 23.345703 C 31.223459 23.439317 31.199045 23.67031 31.291016 23.941406 C 31.390669 24.235142 31.445945 24.694893 31.46875 25.207031 C 31.509043 24.442152 31.449129 23.795419 31.332031 23.345703 z M 33.482422 27.644531 C 33.114971 32.367287 26.945312 35.181023 26.945312 38.599609 L 24.316406 38.599609 L 24.316406 39.400391 L 26.945312 39.400391 C 26.945312 35.793563 33.807381 32.857215 33.482422 27.644531 z "
       transform="translate(384.57143,499.798)"
       id="path4134" />
    <path
       style="fill:#ffffff;fill-opacity:0;fill-rule:nonzero;stroke:none"
       d="M 19.853516 8.609375 C 17.45258 8.4862348 15.369854 9.494305 14.708984 11.3125 C 14.540597 11.77383 14.479858 12.254143 14.509766 12.738281 C 14.526323 12.390523 14.587234 12.04645 14.708984 11.712891 C 15.590144 9.2886306 18.998472 8.3042944 22.320312 9.5214844 C 25.140233 10.545964 26.987026 12.82849 26.941406 14.96875 L 26.941406 14.568359 C 26.987026 12.428099 25.140233 10.147527 22.320312 9.1230469 C 21.489852 8.8187494 20.653828 8.6504217 19.853516 8.609375 z M 31.378906 23.306641 C 31.249296 23.355182 31.222147 23.568717 31.275391 23.818359 C 31.380536 23.596395 31.689534 23.640475 32.142578 24.341797 C 33.045143 25.746488 33.440522 27.006373 33.490234 28.15625 C 33.524171 26.899903 33.151277 25.511277 32.142578 23.941406 C 31.795293 23.403801 31.531259 23.249582 31.378906 23.306641 z M 31.478516 25.902344 C 31.381354 28.245425 30.33413 31.545945 26.945312 32.085938 L 26.945312 32.486328 C 30.539846 31.913556 31.493428 28.248928 31.478516 25.902344 z "
       transform="translate(384.57143,499.798)"
       id="path4139" />
  </g>
</svg>
