<?xml version="1.0" encoding="UTF-8" standalone="no"?>
<!-- Created with Inkscape (http://www.inkscape.org/) -->

<svg
   xmlns:dc="http://purl.org/dc/elements/1.1/"
   xmlns:cc="http://creativecommons.org/ns#"
   xmlns:rdf="http://www.w3.org/1999/02/22-rdf-syntax-ns#"
   xmlns:svg="http://www.w3.org/2000/svg"
   xmlns="http://www.w3.org/2000/svg"
   xmlns:xlink="http://www.w3.org/1999/xlink"
   xmlns:sodipodi="http://sodipodi.sourceforge.net/DTD/sodipodi-0.dtd"
   xmlns:inkscape="http://www.inkscape.org/namespaces/inkscape"
   width="48"
   height="48"
   id="svg5453"
   version="1.1"
   inkscape:version="0.48+devel r12923"
   sodipodi:docname="reddit.svg">
  <defs
     id="defs5455">
    <linearGradient
       id="linearGradient4603">
      <stop
         id="stop4605"
         style="stop-color:#fcbcbc;stop-opacity:1"
         offset="0" />
      <stop
         id="stop4607"
         style="stop-color:#fff6f5;stop-opacity:1"
         offset="1" />
    </linearGradient>
    <linearGradient
       id="linearGradient4589">
      <stop
         offset="0"
         style="stop-color:#f63e3f;stop-opacity:1"
         id="stop4591" />
      <stop
         offset="1"
         style="stop-color:#fd4124;stop-opacity:1"
         id="stop4593" />
    </linearGradient>
    <linearGradient
       inkscape:collect="always"
       xlink:href="#linearGradient4589"
       id="linearGradient4554"
       x1="425.99179"
       y1="-547.79797"
       x2="425.99179"
       y2="-499.80319"
       gradientUnits="userSpaceOnUse" />
    <linearGradient
       inkscape:collect="always"
       xlink:href="#linearGradient4603"
       id="linearGradient4601"
       x1="423.72748"
       y1="539.2243"
       x2="423.72748"
       y2="508.46518"
       gradientUnits="userSpaceOnUse" />
  </defs>
  <sodipodi:namedview
     id="base"
     pagecolor="#ffffff"
     bordercolor="#666666"
     borderopacity="1.0"
     inkscape:pageopacity="0"
     inkscape:pageshadow="2"
     inkscape:zoom="2.8284271"
     inkscape:cx="-8.5288829"
     inkscape:cy="41.447634"
     inkscape:document-units="px"
     inkscape:current-layer="layer1"
     showgrid="false"
     fit-margin-top="0"
     fit-margin-left="0"
     fit-margin-right="0"
     fit-margin-bottom="0"
     inkscape:window-width="1366"
     inkscape:window-height="669"
     inkscape:window-x="0"
     inkscape:window-y="26"
     inkscape:window-maximized="1"
     inkscape:showpageshadow="false"
     borderlayer="true"
     showguides="false" />
  <metadata
     id="metadata5458">
    <rdf:RDF>
      <cc:Work
         rdf:about="">
        <dc:format>image/svg+xml</dc:format>
        <dc:type
           rdf:resource="http://purl.org/dc/dcmitype/StillImage" />
        <dc:title />
      </cc:Work>
    </rdf:RDF>
  </metadata>
  <g
     inkscape:label="Capa 1"
     inkscape:groupmode="layer"
     id="layer1"
     transform="translate(-384.57143,-499.798)">
    <rect
       style="fill:url(#linearGradient4554);fill-opacity:1.0;stroke:none"
       id="rect2991-1-7"
       width="48"
       height="48"
       x="384.57144"
       y="-547.79797"
       ry="1.9445436"
       transform="scale(1,-1)" />
    <path
       inkscape:connector-curvature="0"
       id="path4615"
       d="m 410.94894,509.61127 c -0.2374,0.0914 -0.95304,1.89439 -1.70161,4.28717 -0.71055,2.27114 -1.34129,4.27825 -1.40179,4.461 -0.0604,0.18277 -0.71784,0.40943 -1.46019,0.50196 -2.74319,0.34193 -6.10544,1.28654 -7.98824,2.24612 l -1.93719,0.9883 -0.90532,-0.5547 c -1.73632,-1.06203 -4.27741,-0.36332 -5.17883,1.42385 -0.74075,1.4686 -0.0462,4.20287 1.18763,4.67781 0.30871,0.11883 0.41852,0.61748 0.42054,1.89064 0.008,4.82549 4.4796,8.94113 11.36809,10.465 2.67051,0.59075 7.99624,0.5153 10.77234,-0.15235 4.55847,-1.09628 8.71036,-3.93137 10.16101,-6.9376 0.44438,-0.92089 0.65539,-1.87132 0.66585,-3.00786 0.014,-1.53517 0.0963,-1.74206 1.06886,-2.72074 0.94254,-0.94853 1.05134,-1.2118 1.05134,-2.50589 0,-1.24115 -0.1292,-1.58647 -0.92089,-2.45316 -1.21629,-1.33142 -3.02647,-1.6142 -4.55581,-0.70899 l -1.0124,0.59961 -2.29932,-1.11524 c -2.49088,-1.20764 -5.25007,-1.97194 -7.14133,-1.97855 -0.65619,-0.003 -1.19346,-0.13327 -1.19346,-0.29102 0,-0.28528 1.93818,-6.45567 2.13188,-6.78721 0.0889,-0.15222 6.58576,1.30898 6.69548,1.50588 0.0232,0.0418 0.19363,0.43125 0.37965,0.86525 0.20218,0.47174 0.74393,0.95888 1.34533,1.21096 2.47607,1.03787 4.93826,-1.55042 3.73031,-3.91997 -0.84967,-1.66676 -2.97287,-2.12787 -4.34554,-0.94338 l -0.7632,0.65821 -3.88217,-0.93165 c -2.1353,-0.51233 -4.06569,-0.8602 -4.29102,-0.77345 z m -8.4555,14.83615 a 2.9904779,3.0000422 0 0 1 2.99048,3.00003 2.9904779,3.0000422 0 0 1 -2.99048,3.00005 2.9904779,3.0000422 0 0 1 -2.99048,-3.00005 2.9904779,3.0000422 0 0 1 2.99048,-3.00003 z m 12.1566,0 a 2.9904779,3.0000422 0 0 1 2.99048,3.00003 2.9904779,3.0000422 0 0 1 -2.99048,3.00005 2.9904779,3.0000422 0 0 1 -2.99047,-3.00005 2.9904779,3.0000422 0 0 1 2.99047,-3.00003 z m -0.13628,9.34583 c 0.32843,0.0375 0.48673,0.31971 0.48673,0.84571 0,1.83638 -5.42288,3.19002 -9.26736,2.31449 l 0,0.002 c -2.08175,-0.47409 -3.64465,-1.46303 -3.64465,-2.30471 0,-0.9902 0.74009,-1.06906 2.02675,-0.21486 2.78863,1.02322 6.20373,1.01952 8.8955,-0.0254 0.67611,-0.44884 1.1746,-0.65467 1.50303,-0.61719 z"
       style="fill:#000000;fill-opacity:0.05882353" />
    <path
       style="fill:#000000;fill-opacity:0.11764706"
       d="m 410.94894,509.21127 c -0.2374,0.0914 -0.95304,1.89439 -1.70161,4.28717 -0.71055,2.27114 -1.34129,4.27825 -1.40179,4.461 -0.0604,0.18277 -0.71784,0.40943 -1.46019,0.50196 -2.74319,0.34193 -6.10544,1.28654 -7.98824,2.24612 l -1.93719,0.9883 -0.90532,-0.5547 c -1.73632,-1.06203 -4.27741,-0.36332 -5.17883,1.42385 -0.74075,1.4686 -0.0462,4.20287 1.18763,4.67781 0.30871,0.11883 0.41852,0.61748 0.42054,1.89064 0.008,4.82549 4.4796,8.94113 11.36809,10.465 2.67051,0.59075 7.99624,0.5153 10.77234,-0.15235 4.55847,-1.09628 8.71036,-3.93137 10.16101,-6.9376 0.44438,-0.92089 0.65539,-1.87132 0.66585,-3.00786 0.014,-1.53517 0.0963,-1.74206 1.06886,-2.72074 0.94254,-0.94853 1.05134,-1.2118 1.05134,-2.50589 0,-1.24115 -0.1292,-1.58647 -0.92089,-2.45316 -1.21629,-1.33142 -3.02647,-1.6142 -4.55581,-0.70899 l -1.0124,0.59961 -2.29932,-1.11524 c -2.49088,-1.20764 -5.25007,-1.97194 -7.14133,-1.97855 -0.65619,-0.003 -1.19346,-0.13327 -1.19346,-0.29102 0,-0.28528 1.93818,-6.45567 2.13188,-6.78721 0.0889,-0.15222 6.58576,1.30898 6.69548,1.50588 0.0232,0.0418 0.19363,0.43125 0.37965,0.86525 0.20218,0.47174 0.74393,0.95888 1.34533,1.21096 2.47607,1.03787 4.93826,-1.55042 3.73031,-3.91997 -0.84967,-1.66676 -2.97287,-2.12787 -4.34554,-0.94338 l -0.7632,0.65821 -3.88217,-0.93165 c -2.1353,-0.51233 -4.06569,-0.8602 -4.29102,-0.77345 z m -8.4555,14.83615 a 2.9904779,3.0000422 0 0 1 2.99048,3.00003 2.9904779,3.0000422 0 0 1 -2.99048,3.00005 2.9904779,3.0000422 0 0 1 -2.99048,-3.00005 2.9904779,3.0000422 0 0 1 2.99048,-3.00003 z m 12.1566,0 a 2.9904779,3.0000422 0 0 1 2.99048,3.00003 2.9904779,3.0000422 0 0 1 -2.99048,3.00005 2.9904779,3.0000422 0 0 1 -2.99047,-3.00005 2.9904779,3.0000422 0 0 1 2.99047,-3.00003 z m -0.13628,9.34583 c 0.32843,0.0375 0.48673,0.31971 0.48673,0.84571 0,1.83638 -5.42288,3.19002 -9.26736,2.31449 l 0,0.002 c -2.08175,-0.47409 -3.64465,-1.46303 -3.64465,-2.30471 0,-0.9902 0.74009,-1.06906 2.02675,-0.21486 2.78863,1.02322 6.20373,1.01952 8.8955,-0.0254 0.67611,-0.44884 1.1746,-0.65467 1.50303,-0.61719 z"
       id="path4613"
       inkscape:connector-curvature="0" />
    <path
       inkscape:connector-curvature="0"
       id="path4609"
       d="m 410.94894,508.81127 c -0.2374,0.0914 -0.95304,1.89439 -1.70161,4.28717 -0.71055,2.27114 -1.34129,4.27825 -1.40179,4.461 -0.0604,0.18277 -0.71784,0.40943 -1.46019,0.50196 -2.74319,0.34193 -6.10544,1.28654 -7.98824,2.24612 l -1.93719,0.9883 -0.90532,-0.5547 c -1.73632,-1.06203 -4.27741,-0.36332 -5.17883,1.42385 -0.74075,1.4686 -0.0462,4.20287 1.18763,4.67781 0.30871,0.11883 0.41852,0.61748 0.42054,1.89064 0.008,4.82549 4.4796,8.94113 11.36809,10.465 2.67051,0.59075 7.99624,0.5153 10.77234,-0.15235 4.55847,-1.09628 8.71036,-3.93137 10.16101,-6.9376 0.44438,-0.92089 0.65539,-1.87132 0.66585,-3.00786 0.014,-1.53517 0.0963,-1.74206 1.06886,-2.72074 0.94254,-0.94853 1.05134,-1.2118 1.05134,-2.50589 0,-1.24115 -0.1292,-1.58647 -0.92089,-2.45316 -1.21629,-1.33142 -3.02647,-1.6142 -4.55581,-0.70899 l -1.0124,0.59961 -2.29932,-1.11524 c -2.49088,-1.20764 -5.25007,-1.97194 -7.14133,-1.97855 -0.65619,-0.003 -1.19346,-0.13327 -1.19346,-0.29102 0,-0.28528 1.93818,-6.45567 2.13188,-6.78721 0.0889,-0.15222 6.58576,1.30898 6.69548,1.50588 0.0232,0.0418 0.19363,0.43125 0.37965,0.86525 0.20218,0.47174 0.74393,0.95888 1.34533,1.21096 2.47607,1.03787 4.93826,-1.55042 3.73031,-3.91997 -0.84967,-1.66676 -2.97287,-2.12787 -4.34554,-0.94338 l -0.7632,0.65821 -3.88217,-0.93165 c -2.1353,-0.51233 -4.06569,-0.8602 -4.29102,-0.77345 z m -8.4555,14.83615 a 2.9904779,3.0000422 0 0 1 2.99048,3.00003 2.9904779,3.0000422 0 0 1 -2.99048,3.00005 2.9904779,3.0000422 0 0 1 -2.99048,-3.00005 2.9904779,3.0000422 0 0 1 2.99048,-3.00003 z m 12.1566,0 a 2.9904779,3.0000422 0 0 1 2.99048,3.00003 2.9904779,3.0000422 0 0 1 -2.99048,3.00005 2.9904779,3.0000422 0 0 1 -2.99047,-3.00005 2.9904779,3.0000422 0 0 1 2.99047,-3.00003 z m -0.13628,9.34583 c 0.32843,0.0375 0.48673,0.31971 0.48673,0.84571 0,1.83638 -5.42288,3.19002 -9.26736,2.31449 l 0,0.002 c -2.08175,-0.47409 -3.64465,-1.46303 -3.64465,-2.30471 0,-0.9902 0.74009,-1.06906 2.02675,-0.21486 2.78863,1.02322 6.20373,1.01952 8.8955,-0.0254 0.67611,-0.44884 1.1746,-0.65467 1.50303,-0.61719 z"
       style="fill:#000000;fill-opacity:0.23529412" />
    <path
       inkscape:connector-curvature="0"
       style="fill:#000000;fill-opacity:1;stroke:none"
       d="m 384.57143,544.79799 0,1.0625 c 0,1.0773 0.86022,1.9375 1.9375,1.9375 l 44.125,0 c 1.07728,0 1.9375,-0.8602 1.9375,-1.9375 l 0,-1.0625 c 0,1.0773 -0.86022,1.9375 -1.9375,1.9375 l -44.125,0 C 385.43165,546.73549 384.57143,545.87529 384.57143,544.79799 Z"
       id="rect846" />
    <path
       inkscape:connector-curvature="0"
       style="fill:#ffffff;fill-opacity:0.5372549;stroke:none"
       d="m 387.10268,500.45429 c -0.91709,0 -1.67115,0.6395 -1.84375,1.5 0.33561,-0.2799 0.77451,-0.4375 1.25,-0.4375 l 44.125,0 c 0.47549,0 0.91439,0.1576 1.25,0.4375 -0.1726,-0.8605 -0.92666,-1.5 -1.84375,-1.5 L 387.10268,500.45429 Z"
       id="path7515" />
    <path
       inkscape:connector-curvature="0"
       style="fill:#000000;fill-opacity:0.39215686;stroke:none"
       d="m 386.50893,499.79799 c -1.07728,0 -1.9375,0.8602 -1.9375,1.9375 l 0,43.0625 c 0,0.7934 0.48002,1.449 1.15625,1.75 -0.30934,-0.3333 -0.5,-0.7824 -0.5,-1.2812 l 0,-42.9375 c 0,-1.0482 0.8269,-1.875 1.875,-1.875 l 42.9375,0 c 1.0481,0 1.875,0.8268 1.875,1.875 l 0,42.9375 c 0,0.4988 -0.19066,0.9479 -0.5,1.2812 0.67623,-0.301 1.15625,-0.9566 1.15625,-1.75 l 0,-43.0625 c 0,-1.0773 -0.86022,-1.9375 -1.9375,-1.9375 L 386.50893,499.79799 Z"
       id="rect4280" />
    <path
       style="fill:url(#linearGradient4601);fill-opacity:1"
       d="m 410.94894,508.41127 c -0.2374,0.0914 -0.95304,1.89439 -1.70161,4.28717 -0.71055,2.27114 -1.34129,4.27825 -1.40179,4.461 -0.0604,0.18277 -0.71784,0.40943 -1.46019,0.50196 -2.74319,0.34193 -6.10544,1.28654 -7.98824,2.24612 l -1.93719,0.9883 -0.90532,-0.5547 c -1.73632,-1.06203 -4.27741,-0.36332 -5.17883,1.42385 -0.74075,1.4686 -0.0462,4.20287 1.18763,4.67781 0.30871,0.11883 0.41852,0.61748 0.42054,1.89064 0.008,4.82549 4.4796,8.94113 11.36809,10.465 2.67051,0.59075 7.99624,0.5153 10.77234,-0.15235 4.55847,-1.09628 8.71036,-3.93137 10.16101,-6.9376 0.44438,-0.92089 0.65539,-1.87132 0.66585,-3.00786 0.014,-1.53517 0.0963,-1.74206 1.06886,-2.72074 0.94254,-0.94853 1.05134,-1.2118 1.05134,-2.50589 0,-1.24115 -0.1292,-1.58647 -0.92089,-2.45316 -1.21629,-1.33142 -3.02647,-1.6142 -4.55581,-0.70899 l -1.0124,0.59961 -2.29932,-1.11524 c -2.49088,-1.20764 -5.25007,-1.97194 -7.14133,-1.97855 -0.65619,-0.003 -1.19346,-0.13327 -1.19346,-0.29102 0,-0.28528 1.93818,-6.45567 2.13188,-6.78721 0.0889,-0.15222 6.58576,1.30898 6.69548,1.50588 0.0232,0.0418 0.19363,0.43125 0.37965,0.86525 0.20218,0.47174 0.74393,0.95888 1.34533,1.21096 2.47607,1.03787 4.93826,-1.55042 3.73031,-3.91997 -0.84967,-1.66676 -2.97287,-2.12787 -4.34554,-0.94338 l -0.7632,0.65821 -3.88217,-0.93165 c -2.1353,-0.51233 -4.06569,-0.8602 -4.29102,-0.77345 z m -8.4555,14.83615 a 2.9904779,3.0000422 0 0 1 2.99048,3.00003 2.9904779,3.0000422 0 0 1 -2.99048,3.00005 2.9904779,3.0000422 0 0 1 -2.99048,-3.00005 2.9904779,3.0000422 0 0 1 2.99048,-3.00003 z m 12.1566,0 a 2.9904779,3.0000422 0 0 1 2.99048,3.00003 2.9904779,3.0000422 0 0 1 -2.99048,3.00005 2.9904779,3.0000422 0 0 1 -2.99047,-3.00005 2.9904779,3.0000422 0 0 1 2.99047,-3.00003 z m -0.13628,9.34583 c 0.32843,0.0375 0.48673,0.31971 0.48673,0.84571 0,1.83638 -5.42288,3.19002 -9.26736,2.31449 l 0,0.002 c -2.08175,-0.47409 -3.64465,-1.46303 -3.64465,-2.30471 0,-0.9902 0.74009,-1.06906 2.02675,-0.21486 2.78863,1.02322 6.20373,1.01952 8.8955,-0.0254 0.67611,-0.44884 1.1746,-0.65467 1.50303,-0.61719 z"
       id="path4587"
       inkscape:connector-curvature="0" />
    <path
       style="fill:#e20c09;fill-opacity:0.3137255"
       d="M 27.507812 10.140625 C 27.314112 10.472165 25.376953 16.642454 25.376953 16.927734 C 25.376953 16.980076 25.451671 17.027667 25.554688 17.070312 C 25.969061 15.577931 27.342199 11.224872 27.507812 10.941406 C 27.596713 10.789186 34.095358 12.250366 34.205078 12.447266 C 34.228278 12.489066 34.397964 12.8785 34.583984 13.3125 C 34.786164 13.78424 35.328287 14.271358 35.929688 14.523438 C 38.102988 15.434398 40.263781 13.550908 39.943359 11.474609 C 39.693803 13.196428 37.818573 14.514402 35.929688 13.722656 C 35.328287 13.470576 34.786164 12.983459 34.583984 12.511719 C 34.397964 12.077719 34.228278 11.688284 34.205078 11.646484 C 34.095358 11.449584 27.596713 9.988405 27.507812 10.140625 z M 17.921875 22.650391 A 2.9904779 3.0000422 0 0 0 14.931641 25.650391 A 2.9904779 3.0000422 0 0 0 14.960938 26.050781 A 2.9904779 3.0000422 0 0 1 17.921875 23.449219 A 2.9904779 3.0000422 0 0 1 20.882812 26.052734 A 2.9904779 3.0000422 0 0 0 20.912109 25.650391 A 2.9904779 3.0000422 0 0 0 17.921875 22.650391 z M 30.078125 22.650391 A 2.9904779 3.0000422 0 0 0 27.087891 25.650391 A 2.9904779 3.0000422 0 0 0 27.119141 26.052734 A 2.9904779 3.0000422 0 0 1 30.078125 23.449219 A 2.9904779 3.0000422 0 0 1 33.039062 26.050781 A 2.9904779 3.0000422 0 0 0 33.068359 25.650391 A 2.9904779 3.0000422 0 0 0 30.078125 22.650391 z M 5.5253906 23.078125 C 5.4030483 24.526661 6.027836 26.273322 6.9921875 26.644531 C 7.3008975 26.763361 7.4100894 27.261996 7.4121094 28.535156 C 7.4201094 33.360646 11.89276 37.47613 18.78125 39 C 21.45176 39.59075 26.776634 39.515306 29.552734 38.847656 C 34.111204 37.751376 38.264194 34.916386 39.714844 31.910156 C 40.159224 30.989266 40.368446 30.038884 40.378906 28.902344 C 40.392906 27.367174 40.476659 27.160321 41.449219 26.181641 C 42.391759 25.233111 42.5 24.969871 42.5 23.675781 C 42.5 23.524506 42.489179 23.420194 42.484375 23.292969 C 42.449245 24.211982 42.269648 24.557169 41.449219 25.382812 C 40.476659 26.361492 40.392906 26.568346 40.378906 28.103516 C 40.368446 29.240056 40.159224 30.190438 39.714844 31.111328 C 38.264194 34.117558 34.111204 36.952548 29.552734 38.048828 C 26.776634 38.716478 21.45176 38.791922 18.78125 38.201172 C 11.89276 36.677302 7.4201094 32.561818 7.4121094 27.736328 C 7.4100894 26.463168 7.3008975 25.964533 6.9921875 25.845703 C 6.2017071 25.541422 5.6375376 24.310166 5.5253906 23.078125 z M 29.941406 31.996094 C 29.612976 31.958614 29.115563 32.164441 28.439453 32.613281 C 25.747683 33.658201 22.331599 33.661892 19.542969 32.638672 C 18.256309 31.784472 17.517578 31.863316 17.517578 32.853516 C 17.517578 32.966832 17.549407 33.08218 17.603516 33.199219 C 17.825288 32.677396 18.500226 32.745234 19.542969 33.4375 C 22.331599 34.46072 25.747683 34.457029 28.439453 33.412109 C 29.115563 32.963269 29.612976 32.757442 29.941406 32.794922 C 30.154659 32.819271 30.288291 32.959015 30.361328 33.189453 C 30.40447 33.075621 30.429688 32.960103 30.429688 32.841797 C 30.429688 32.315797 30.269836 32.033594 29.941406 31.996094 z "
       transform="translate(384.57143,499.798)"
       id="path4617" />
    <path
       style="fill:#ffffff;fill-opacity:0.23529412"
       d="M 26.376953 8.6132812 C 26.139553 8.7046813 25.424351 10.507611 24.675781 12.900391 C 23.965231 15.171531 23.333937 17.178578 23.273438 17.361328 C 23.213037 17.544098 22.556803 17.770751 21.814453 17.863281 C 19.071263 18.205211 15.708972 19.149795 13.826172 20.109375 L 11.888672 21.097656 L 10.982422 20.542969 C 9.2461019 19.480939 6.7061075 20.179627 5.8046875 21.966797 C 5.5788772 22.414485 5.5000601 22.98139 5.515625 23.564453 C 5.5431759 23.126984 5.6312178 22.711106 5.8046875 22.367188 C 6.7061075 20.580017 9.2461019 19.881329 10.982422 20.943359 L 11.888672 21.498047 L 13.826172 20.509766 C 15.708972 19.550186 19.071263 18.605602 21.814453 18.263672 C 22.556803 18.171142 23.213037 17.944489 23.273438 17.761719 C 23.333937 17.578969 23.965231 15.571921 24.675781 13.300781 C 25.424351 10.908001 26.139553 9.1050719 26.376953 9.0136719 C 26.602283 8.9269219 28.532669 9.2747794 30.667969 9.7871094 L 34.550781 10.71875 L 35.314453 10.060547 C 36.687123 8.8760569 38.810486 9.3371462 39.660156 11.003906 C 39.84538 11.367246 39.935119 11.733986 39.960938 12.09375 C 39.998363 11.610631 39.914907 11.103242 39.660156 10.603516 C 38.810486 8.9367556 36.687123 8.4756663 35.314453 9.6601562 L 34.550781 10.318359 L 30.667969 9.3867188 C 28.532669 8.8743887 26.602283 8.5265313 26.376953 8.6132812 z M 25.458984 17.826172 C 25.442828 17.894099 25.376953 18.109876 25.376953 18.128906 C 25.376953 18.286656 25.914123 18.416922 26.570312 18.419922 C 28.461572 18.426532 31.220057 19.190798 33.710938 20.398438 L 36.011719 21.513672 L 37.023438 20.914062 C 38.552777 20.008852 40.363788 20.291627 41.580078 21.623047 C 42.323521 22.436919 42.47554 22.816843 42.492188 23.884766 C 42.493303 23.808969 42.5 23.759798 42.5 23.675781 C 42.5 22.434631 42.371768 22.089346 41.580078 21.222656 C 40.363788 19.891236 38.552777 19.608462 37.023438 20.513672 L 36.011719 21.113281 L 33.710938 19.998047 C 31.220057 18.790407 28.461572 18.026141 26.570312 18.019531 C 26.057875 18.017188 25.627136 17.936221 25.458984 17.826172 z M 33.060547 26.621094 A 2.9904779 3.0000422 0 0 1 30.078125 29.449219 A 2.9904779 3.0000422 0 0 1 27.097656 26.673828 A 2.9904779 3.0000422 0 0 0 27.087891 26.849609 A 2.9904779 3.0000422 0 0 0 30.078125 29.849609 A 2.9904779 3.0000422 0 0 0 33.068359 26.849609 A 2.9904779 3.0000422 0 0 0 33.060547 26.621094 z M 20.904297 26.636719 A 2.9904779 3.0000422 0 0 1 17.921875 29.449219 A 2.9904779 3.0000422 0 0 1 14.941406 26.673828 A 2.9904779 3.0000422 0 0 0 14.931641 26.849609 A 2.9904779 3.0000422 0 0 0 17.921875 29.849609 A 2.9904779 3.0000422 0 0 0 20.912109 26.849609 A 2.9904779 3.0000422 0 0 0 20.904297 26.636719 z M 30.40625 33.771484 C 30.154337 35.539684 24.913631 36.809438 21.162109 35.955078 L 21.162109 35.957031 C 19.18281 35.506273 17.688779 34.591811 17.544922 33.779297 C 17.529083 33.862633 17.517578 33.949601 17.517578 34.052734 C 17.517578 34.894414 19.080359 35.883332 21.162109 36.357422 L 21.162109 36.355469 C 25.006589 37.230999 30.429688 35.877396 30.429688 34.041016 C 30.429688 33.939658 30.418091 33.854731 30.40625 33.771484 z "
       transform="translate(384.57143,499.798)"
       id="path4622" />
  </g>
</svg>
