<?xml version="1.0" encoding="UTF-8" standalone="no"?>
<!-- Created with Inkscape (http://www.inkscape.org/) -->

<svg
   xmlns:dc="http://purl.org/dc/elements/1.1/"
   xmlns:cc="http://creativecommons.org/ns#"
   xmlns:rdf="http://www.w3.org/1999/02/22-rdf-syntax-ns#"
   xmlns:svg="http://www.w3.org/2000/svg"
   xmlns="http://www.w3.org/2000/svg"
   xmlns:xlink="http://www.w3.org/1999/xlink"
   xmlns:sodipodi="http://sodipodi.sourceforge.net/DTD/sodipodi-0.dtd"
   xmlns:inkscape="http://www.inkscape.org/namespaces/inkscape"
   width="48"
   height="48"
   id="svg5453"
   version="1.1"
   inkscape:version="0.91+devel r"
   sodipodi:docname="rstudio.svg"
   viewBox="0 0 48 48">
  <defs
     id="defs5455">
    <linearGradient
       gradientTransform="translate(384.57139,504.56412)"
       gradientUnits="userSpaceOnUse"
       y2="-1004.6837"
       x2="26.25"
       y1="-1052.5408"
       x1="26.25"
       id="linearGradient867-1"
       xlink:href="#linearGradient4173"
       inkscape:collect="always" />
    <linearGradient
       inkscape:collect="always"
       xlink:href="#linearGradient4167"
       id="linearGradient4165"
       gradientUnits="userSpaceOnUse"
       x1="407.71259"
       y1="531.39435"
       x2="407.71259"
       y2="504.29324"
       gradientTransform="matrix(1.1323529,0,0,1.1323529,-53.015906,-62.613223)" />
    <linearGradient
       inkscape:collect="always"
       id="linearGradient1577">
      <stop
         style="stop-color:#ffffff;stop-opacity:0.49803922"
         offset="0"
         id="stop1579" />
      <stop
         style="stop-color:#ffffff;stop-opacity:0;"
         offset="1"
         id="stop1581" />
    </linearGradient>
    <style
       id="style874"
       type="text/css"><![CDATA[
    .fil0 {fill:#1F1A17}
   ]]></style>
    <linearGradient
       id="linearGradient4173">
      <stop
         style="stop-color:#1482cf;stop-opacity:1"
         offset="0"
         id="stop4175" />
      <stop
         style="stop-color:#74bef2;stop-opacity:1"
         offset="1"
         id="stop4177" />
    </linearGradient>
    <linearGradient
       id="linearGradient4167">
      <stop
         style="stop-color:#bfe1f9;stop-opacity:1"
         offset="0"
         id="stop4169" />
      <stop
         style="stop-color:#f6fbfe;stop-opacity:1"
         offset="1"
         id="stop4171" />
    </linearGradient>
    <linearGradient
       inkscape:collect="always"
       xlink:href="#linearGradient1577"
       id="linearGradient1583-8"
       x1="28.769722"
       y1="47.028889"
       x2="28.769722"
       y2="0.88182634"
       gradientUnits="userSpaceOnUse"
       gradientTransform="matrix(1.0482791,0,0,1.0482791,383.41273,498.6236)" />
  </defs>
  <sodipodi:namedview
     id="base"
     pagecolor="#ffffff"
     bordercolor="#666666"
     borderopacity="1.0"
     inkscape:pageopacity="0"
     inkscape:pageshadow="2"
     inkscape:zoom="3.0530358"
     inkscape:cx="12.070704"
     inkscape:cy="30.981737"
     inkscape:document-units="px"
     inkscape:current-layer="layer1"
     showgrid="false"
     fit-margin-top="0"
     fit-margin-left="0"
     fit-margin-right="0"
     fit-margin-bottom="0"
     inkscape:window-width="1366"
     inkscape:window-height="670"
     inkscape:window-x="-4"
     inkscape:window-y="29"
     inkscape:window-maximized="1"
     inkscape:showpageshadow="false"
     borderlayer="true" />
  <metadata
     id="metadata5458">
    <rdf:RDF>
      <cc:Work
         rdf:about="">
        <dc:format>image/svg+xml</dc:format>
        <dc:type
           rdf:resource="http://purl.org/dc/dcmitype/StillImage" />
        <dc:title />
      </cc:Work>
    </rdf:RDF>
  </metadata>
  <g
     inkscape:label="Capa 1"
     inkscape:groupmode="layer"
     id="layer1"
     transform="translate(-384.57143,-499.798)">
    <rect
       transform="scale(1,-1)"
       ry="1.9445436"
       y="-547.79797"
       x="384.57144"
       height="48"
       width="48"
       id="rect2991-1-0"
       style="fill:url(#linearGradient867-1);fill-opacity:1;stroke:none" />
    <path
       id="rect1510-6"
       d="m 387.32143,499.798 0,2.8928 -2.75,0 0,0.2502 2.75,0 0,3.9283 -2.75,0 0,0.2861 2.75,0 0,3.9282 -2.75,0 0,0.2503 2.75,0 0,3.9287 -2.75,0 0,0.2498 2.75,0 0,3.9286 -2.75,0 0,0.2857 2.75,0 0,3.9287 -2.75,0 0,0.2499 2.75,0 0,3.9286 -2.75,0 0,0.2857 2.75,0 0,3.9286 -2.75,0 0,0.2499 2.75,0 0,3.9286 -2.75,0 0,0.25 2.75,0 0,3.9643 -2.75,0 0,0.25 2.75,0 0,3.9286 -2.75,0 0,0.2499 2.75,0 0,2.9285 0.25,0 0,-2.9285 3.92857,0 0,2.9285 0.25,0 0,-2.9285 3.96429,0 0,2.9285 0.25,0 0,-2.9285 3.92857,0 0,2.9285 0.25,0 0,-2.9285 3.92857,0 0,2.9285 0.28571,0 0,-2.9285 3.92857,0 0,2.9285 0.25001,0 0,-2.9285 3.92857,0 0,2.9285 0.25,0 0,-2.9285 3.96428,0 0,2.9285 0.25,0 0,-2.9285 3.92857,0 0,2.9285 0.25,0 0,-2.9285 3.92858,0 0,2.9285 0.28571,0 0,-2.9285 3.92857,0 0,2.9285 0.25,0 0,-2.9285 3.07143,0 0,-0.2499 -3.07143,0 0,-3.9286 3.07143,0 0,-0.25 -3.07143,0 0,-3.9643 3.07143,0 0,-0.25 -3.07143,0 0,-3.9286 3.07143,0 0,-0.2499 -3.07143,0 0,-3.9286 3.07143,0 0,-0.2857 -3.07143,0 0,-3.9286 3.07143,0 0,-0.2499 -3.07143,0 0,-3.9287 3.07143,0 0,-0.2857 -3.07143,0 0,-3.9286 3.07143,0 0,-0.2498 -3.07143,0 0,-3.9287 3.07143,0 0,-0.2503 -3.07143,0 0,-3.9282 3.07143,0 0,-0.2861 -3.07143,0 0,-3.9283 3.07143,0 0,-0.2502 -3.07143,0 0,-2.8928 -0.25,0 0,2.8928 -3.92857,0 0,-2.8928 -0.28571,0 0,2.8928 -3.92858,0 0,-2.8928 -0.25,0 0,2.8928 -3.92857,0 0,-2.8928 -0.25,0 0,2.8928 -3.96428,0 0,-2.8928 -0.25,0 0,2.8928 -3.92857,0 0,-2.8928 -0.25001,0 0,2.8928 -3.92857,0 0,-2.8928 -0.28571,0 0,2.8928 -3.92857,0 0,-2.8928 -0.25,0 0,2.8928 -3.92857,0 0,-2.8928 -0.25,0 0,2.8928 -3.96429,0 0,-2.8928 -0.25,0 0,2.8928 -3.92857,0 0,-2.8928 -0.25,0 z m 0.25,3.143 3.92857,0 0,3.9283 -3.92857,0 0,-3.9283 z m 4.17857,0 3.96429,0 0,3.9283 -3.96429,0 0,-3.9283 z m 4.21429,0 3.92857,0 0,3.9283 -3.92857,0 0,-3.9283 z m 4.17857,0 3.92857,0 0,3.9283 -3.92857,0 0,-3.9283 z m 4.21428,0 3.92857,0 0,3.9283 -3.92857,0 0,-3.9283 z m 4.17858,0 3.92857,0 0,3.9283 -3.92857,0 0,-3.9283 z m 4.17857,0 3.96428,0 0,3.9283 -3.96428,0 0,-3.9283 z m 4.21428,0 3.92857,0 0,3.9283 -3.92857,0 0,-3.9283 z m 4.17857,0 3.92858,0 0,3.9283 -3.92858,0 0,-3.9283 z m 4.21429,0 3.92857,0 0,3.9283 -3.92857,0 0,-3.9283 z m -37.75,4.2144 3.92857,0 0,3.9282 -3.92857,0 0,-3.9282 z m 4.17857,0 3.96429,0 0,3.9282 -3.96429,0 0,-3.9282 z m 4.21429,0 3.92857,0 0,3.9282 -3.92857,0 0,-3.9282 z m 4.17857,0 3.92857,0 0,3.9282 -3.92857,0 0,-3.9282 z m 4.21428,0 3.92857,0 0,3.9282 -3.92857,0 0,-3.9282 z m 4.17857,0 3.92858,0 0,3.9282 -3.92858,0 0,-3.9282 z m 4.17858,0 3.96428,0 0,3.9282 -3.96428,0 0,-3.9282 z m 4.21428,0 3.92857,0 0,3.9282 -3.92857,0 0,-3.9282 z m 4.17857,0 3.92857,0 0,3.9282 -3.92857,0 0,-3.9282 z m 4.21429,0 3.92857,0 0,3.9282 -3.92857,0 0,-3.9282 z m -37.75,4.1785 3.92857,0 0,3.9287 -3.92857,0 0,-3.9287 z m 4.17857,0 3.96429,0 0,3.9287 -3.96429,0 0,-3.9287 z m 4.21429,0 3.92857,0 0,3.9287 -3.92857,0 0,-3.9287 z m 4.17857,0 3.92857,0 0,3.9287 -3.92857,0 0,-3.9287 z m 4.21428,0 3.92857,0 0,3.9287 -3.92857,0 0,-3.9287 z m 4.17857,0 3.92858,0 0,3.9287 -3.92858,0 0,-3.9287 z m 4.17858,0 3.96428,0 0,3.9287 -3.96428,0 0,-3.9287 z m 4.21428,0 3.92857,0 0,3.9287 -3.92857,0 0,-3.9287 z m 4.17857,0 3.92857,0 0,3.9287 -3.92857,0 0,-3.9287 z m 4.21429,0 3.92857,0 0,3.9287 -3.92857,0 0,-3.9287 z m -37.75,4.1785 3.92857,0 0,3.9286 -3.92857,0 0,-3.9286 z m 4.17857,0 3.96429,0 0,3.9286 -3.96429,0 0,-3.9286 z m 4.21429,0 3.92857,0 0,3.9286 -3.92857,0 0,-3.9286 z m 4.17857,0 3.92857,0 0,3.9286 -3.92857,0 0,-3.9286 z m 4.21428,0 3.92857,0 0,3.9286 -3.92857,0 0,-3.9286 z m 4.17857,0 3.92857,0 0,3.9286 -3.92857,0 0,-3.9286 z m 4.17858,0 3.96428,0 0,3.9286 -3.96428,0 0,-3.9286 z m 4.21428,0 3.92857,0 0,3.9286 -3.92857,0 0,-3.9286 z m 4.17857,0 3.92857,0 0,3.9286 -3.92857,0 0,-3.9286 z m 4.21429,0 3.92857,0 0,3.9286 -3.92857,0 0,-3.9286 z m -37.75,4.2143 3.92857,0 0,3.9287 -3.92857,0 0,-3.9287 z m 4.17857,0 3.96429,0 0,3.9287 -3.96429,0 0,-3.9287 z m 4.21429,0 3.92857,0 0,3.9287 -3.92857,0 0,-3.9287 z m 4.17857,0 3.92857,0 0,3.9287 -3.92857,0 0,-3.9287 z m 4.21428,0 3.92857,0 0,3.9287 -3.92857,0 0,-3.9287 z m 4.17857,0 3.92857,0 0,3.9287 -3.92857,0 0,-3.9287 z m 4.17858,0 3.96428,0 0,3.9287 -3.96428,0 0,-3.9287 z m 4.21428,0 3.92857,0 0,3.9287 -3.92857,0 0,-3.9287 z m 4.17857,0 3.92857,0 0,3.9287 -3.92857,0 0,-3.9287 z m 4.21429,0 3.92857,0 0,3.9287 -3.92857,0 0,-3.9287 z m -37.75,4.1786 3.92857,0 0,3.9286 -3.92857,0 0,-3.9286 z m 4.17857,0 3.96429,0 0,3.9286 -3.96429,0 0,-3.9286 z m 4.21429,0 3.92857,0 0,3.9286 -3.92857,0 0,-3.9286 z m 4.17857,0 3.92857,0 0,3.9286 -3.92857,0 0,-3.9286 z m 4.21428,0 3.92857,0 0,3.9286 -3.92857,0 0,-3.9286 z m 4.17857,0 3.92857,0 0,3.9286 -3.92857,0 0,-3.9286 z m 4.17858,0 3.96428,0 0,3.9286 -3.96428,0 0,-3.9286 z m 4.21428,0 3.92857,0 0,3.9286 -3.92857,0 0,-3.9286 z m 4.17857,0 3.92857,0 0,3.9286 -3.92857,0 0,-3.9286 z m 4.21429,0 3.92857,0 0,3.9286 -3.92857,0 0,-3.9286 z m -37.75,4.2143 3.92857,0 0,3.9286 -3.92857,0 0,-3.9286 z m 4.17857,0 3.96429,0 0,3.9286 -3.96429,0 0,-3.9286 z m 4.21429,0 3.92857,0 0,3.9286 -3.92857,0 0,-3.9286 z m 4.17857,0 3.92857,0 0,3.9286 -3.92857,0 0,-3.9286 z m 4.21428,0 3.92857,0 0,3.9286 -3.92857,0 0,-3.9286 z m 4.17857,0 3.92857,0 0,3.9286 -3.92857,0 0,-3.9286 z m 4.17858,0 3.96428,0 0,3.9286 -3.96428,0 0,-3.9286 z m 4.21428,0 3.92857,0 0,3.9286 -3.92857,0 0,-3.9286 z m 4.17857,0 3.92857,0 0,3.9286 -3.92857,0 0,-3.9286 z m 4.21429,0 3.92857,0 0,3.9286 -3.92857,0 0,-3.9286 z m -37.75,4.1785 3.92857,0 0,3.9286 -3.92857,0 0,-3.9286 z m 4.17857,0 3.96429,0 0,3.9286 -3.96429,0 0,-3.9286 z m 4.21429,0 3.92857,0 0,3.9286 -3.92857,0 0,-3.9286 z m 4.17857,0 3.92857,0 0,3.9286 -3.92857,0 0,-3.9286 z m 4.21428,0 3.92857,0 0,3.9286 -3.92857,0 0,-3.9286 z m 4.17857,0 3.92857,0 0,3.9286 -3.92857,0 0,-3.9286 z m 4.17858,0 3.96428,0 0,3.9286 -3.96428,0 0,-3.9286 z m 4.21428,0 3.92857,0 0,3.9286 -3.92857,0 0,-3.9286 z m 4.17857,0 3.92857,0 0,3.9286 -3.92857,0 0,-3.9286 z m 4.21429,0 3.92857,0 0,3.9286 -3.92857,0 0,-3.9286 z m -37.75,4.1786 3.92857,0 0,3.9643 -3.92857,0 0,-3.9643 z m 4.17857,0 3.96429,0 0,3.9643 -3.96429,0 0,-3.9643 z m 4.21429,0 3.92857,0 0,3.9643 -3.92857,0 0,-3.9643 z m 4.17857,0 3.92857,0 0,3.9643 -3.92857,0 0,-3.9643 z m 4.21428,0 3.92857,0 0,3.9643 -3.92857,0 0,-3.9643 z m 4.17857,0 3.92857,0 0,3.9643 -3.92857,0 0,-3.9643 z m 4.17858,0 3.96428,0 0,3.9643 -3.96428,0 0,-3.9643 z m 4.21428,0 3.92857,0 0,3.9643 -3.92857,0 0,-3.9643 z m 4.17857,0 3.92857,0 0,3.9643 -3.92857,0 0,-3.9643 z m 4.21429,0 3.92857,0 0,3.9643 -3.92857,0 0,-3.9643 z m -37.75,4.2143 3.92857,0 0,3.9286 -3.92857,0 0,-3.9286 z m 4.17857,0 3.96429,0 0,3.9286 -3.96429,0 0,-3.9286 z m 4.21429,0 3.92857,0 0,3.9286 -3.92857,0 0,-3.9286 z m 4.17857,0 3.92857,0 0,3.9286 -3.92857,0 0,-3.9286 z m 4.21428,0 3.92857,0 0,3.9286 -3.92857,0 0,-3.9286 z m 4.17857,0 3.92857,0 0,3.9286 -3.92857,0 0,-3.9286 z m 4.17858,0 3.96428,0 0,3.9286 -3.96428,0 0,-3.9286 z m 4.21428,0 3.92857,0 0,3.9286 -3.92857,0 0,-3.9286 z m 4.17857,0 3.92857,0 0,3.9286 -3.92857,0 0,-3.9286 z m 4.21429,0 3.92857,0 0,3.9286 -3.92857,0 0,-3.9286 z"
       style="opacity:0.38500001;fill:url(#linearGradient1583-8);fill-opacity:1;stroke:none"
       inkscape:connector-curvature="0" />
    <path
       inkscape:connector-curvature="0"
       style="fill:#000000;fill-opacity:1;stroke:none"
       d="m 384.57143,544.79799 0,1.0625 c 0,1.0773 0.86022,1.9375 1.9375,1.9375 l 44.125,0 c 1.07728,0 1.9375,-0.8602 1.9375,-1.9375 l 0,-1.0625 c 0,1.0773 -0.86022,1.9375 -1.9375,1.9375 l -44.125,0 c -1.07728,0 -1.9375,-0.8602 -1.9375,-1.9375 z"
       id="rect846" />
    <path
       inkscape:connector-curvature="0"
       style="fill:#ffffff;fill-opacity:0.5372549;stroke:none"
       d="m 387.10268,500.45429 c -0.91709,0 -1.67115,0.6395 -1.84375,1.5 0.33561,-0.2799 0.77451,-0.4375 1.25,-0.4375 l 44.125,0 c 0.47549,0 0.91439,0.1576 1.25,0.4375 -0.1726,-0.8605 -0.92666,-1.5 -1.84375,-1.5 l -42.9375,0 z"
       id="path7515" />
    <path
       inkscape:connector-curvature="0"
       style="fill:#000000;fill-opacity:0.39215686;stroke:none"
       d="m 386.50893,499.79799 c -1.07728,0 -1.9375,0.8602 -1.9375,1.9375 l 0,43.0625 c 0,0.7934 0.48002,1.449 1.15625,1.75 -0.30934,-0.3333 -0.5,-0.7824 -0.5,-1.2812 l 0,-42.9375 c 0,-1.0482 0.8269,-1.875 1.875,-1.875 l 42.9375,0 c 1.0481,0 1.875,0.8268 1.875,1.875 l 0,42.9375 c 0,0.4988 -0.19066,0.9479 -0.5,1.2812 0.67623,-0.301 1.15625,-0.9566 1.15625,-1.75 l 0,-43.0625 c 0,-1.0773 -0.86022,-1.9375 -1.9375,-1.9375 l -44.125,0 z"
       id="rect4280" />
    <path
       d="m 415.50666,540.398 q -1.13236,0 -1.67589,-1.22294 l -5.3447,-11.50471 q -0.27177,-0.63412 -0.95118,-0.63412 l -4.30294,0 q -0.45294,0 -0.45294,0.45295 l 0,11.55 q 0,0.63411 -0.36235,0.99647 -0.36236,0.36235 -0.99647,0.36235 l -1.5853,0 q -0.63412,0 -0.99647,-0.36235 -0.36235,-0.36236 -0.36235,-0.99647 l 0,-28.08236 q 0,-0.63411 0.36235,-0.99647 0.36235,-0.36235 0.99647,-0.36235 l 9.2853,0 q 1.81176,0 3.39705,0.67941 1.5853,0.63412 2.71765,1.81177 1.17765,1.13235 1.81177,2.71764 0.67941,1.5853 0.67941,3.39706 0,2.58177 -1.26824,4.57471 -1.22294,1.99294 -3.12529,3.0347 -0.72471,0.40765 -0.31706,1.31353 l 5.48059,11.64059 q 0.31706,0.67941 0.0453,1.17765 -0.27176,0.45294 -0.95117,0.45294 l -2.08353,0 z m -6.70353,-17.43824 q 0.90588,0 1.72117,-0.31705 0.86059,-0.36236 1.49471,-0.99647 0.63412,-0.63412 0.99647,-1.49471 0.40765,-0.90588 0.40765,-1.94765 0,-1.04176 -0.40765,-1.85706 -0.36235,-0.86058 -0.99647,-1.44941 -0.63412,-0.58882 -1.49471,-0.90588 -0.81529,-0.31706 -1.72117,-0.31706 l -5.57118,0 q -0.45294,0 -0.45294,0.45294 l 0,8.37941 q 0,0.45294 0.45294,0.45294 l 5.57118,0 z"
       id="path4174"
       inkscape:connector-curvature="0"
       style="font-style:normal;font-variant:normal;font-weight:normal;font-stretch:normal;font-size:medium;line-height:125%;font-family:SciFly;-inkscape-font-specification:SciFly;letter-spacing:0px;word-spacing:0px;fill:#000000;fill-opacity:0.05882353;stroke:none;stroke-width:1.13235295px;stroke-linecap:butt;stroke-linejoin:miter;stroke-opacity:1" />
    <path
       style="font-style:normal;font-variant:normal;font-weight:normal;font-stretch:normal;font-size:medium;line-height:125%;font-family:SciFly;-inkscape-font-specification:SciFly;letter-spacing:0px;word-spacing:0px;fill:#000000;fill-opacity:0.11764706;stroke:none;stroke-width:1.13235295px;stroke-linecap:butt;stroke-linejoin:miter;stroke-opacity:1"
       inkscape:connector-curvature="0"
       id="path4172"
       d="m 415.50666,539.998 q -1.13236,0 -1.67589,-1.22294 l -5.3447,-11.50471 q -0.27177,-0.63412 -0.95118,-0.63412 l -4.30294,0 q -0.45294,0 -0.45294,0.45295 l 0,11.55 q 0,0.63411 -0.36235,0.99647 -0.36236,0.36235 -0.99647,0.36235 l -1.5853,0 q -0.63412,0 -0.99647,-0.36235 -0.36235,-0.36236 -0.36235,-0.99647 l 0,-28.08236 q 0,-0.63411 0.36235,-0.99647 0.36235,-0.36235 0.99647,-0.36235 l 9.2853,0 q 1.81176,0 3.39705,0.67941 1.5853,0.63412 2.71765,1.81177 1.17765,1.13235 1.81177,2.71764 0.67941,1.5853 0.67941,3.39706 0,2.58177 -1.26824,4.57471 -1.22294,1.99294 -3.12529,3.0347 -0.72471,0.40765 -0.31706,1.31353 l 5.48059,11.64059 q 0.31706,0.67941 0.0453,1.17765 -0.27176,0.45294 -0.95117,0.45294 l -2.08353,0 z m -6.70353,-17.43824 q 0.90588,0 1.72117,-0.31705 0.86059,-0.36236 1.49471,-0.99647 0.63412,-0.63412 0.99647,-1.49471 0.40765,-0.90588 0.40765,-1.94765 0,-1.04176 -0.40765,-1.85706 -0.36235,-0.86058 -0.99647,-1.44941 -0.63412,-0.58882 -1.49471,-0.90588 -0.81529,-0.31706 -1.72117,-0.31706 l -5.57118,0 q -0.45294,0 -0.45294,0.45294 l 0,8.37941 q 0,0.45294 0.45294,0.45294 l 5.57118,0 z" />
    <path
       d="m 415.50666,539.598 q -1.13236,0 -1.67589,-1.22294 l -5.3447,-11.50471 q -0.27177,-0.63412 -0.95118,-0.63412 l -4.30294,0 q -0.45294,0 -0.45294,0.45295 l 0,11.55 q 0,0.63411 -0.36235,0.99647 -0.36236,0.36235 -0.99647,0.36235 l -1.5853,0 q -0.63412,0 -0.99647,-0.36235 -0.36235,-0.36236 -0.36235,-0.99647 l 0,-28.08236 q 0,-0.63411 0.36235,-0.99647 0.36235,-0.36235 0.99647,-0.36235 l 9.2853,0 q 1.81176,0 3.39705,0.67941 1.5853,0.63412 2.71765,1.81177 1.17765,1.13235 1.81177,2.71764 0.67941,1.5853 0.67941,3.39706 0,2.58177 -1.26824,4.57471 -1.22294,1.99294 -3.12529,3.0347 -0.72471,0.40765 -0.31706,1.31353 l 5.48059,11.64059 q 0.31706,0.67941 0.0453,1.17765 -0.27176,0.45294 -0.95117,0.45294 l -2.08353,0 z m -6.70353,-17.43824 q 0.90588,0 1.72117,-0.31705 0.86059,-0.36236 1.49471,-0.99647 0.63412,-0.63412 0.99647,-1.49471 0.40765,-0.90588 0.40765,-1.94765 0,-1.04176 -0.40765,-1.85706 -0.36235,-0.86058 -0.99647,-1.44941 -0.63412,-0.58882 -1.49471,-0.90588 -0.81529,-0.31706 -1.72117,-0.31706 l -5.57118,0 q -0.45294,0 -0.45294,0.45294 l 0,8.37941 q 0,0.45294 0.45294,0.45294 l 5.57118,0 z"
       id="path4168"
       inkscape:connector-curvature="0"
       style="font-style:normal;font-variant:normal;font-weight:normal;font-stretch:normal;font-size:medium;line-height:125%;font-family:SciFly;-inkscape-font-specification:SciFly;letter-spacing:0px;word-spacing:0px;fill:#000000;fill-opacity:0.23529412;stroke:none;stroke-width:1.13235295px;stroke-linecap:butt;stroke-linejoin:miter;stroke-opacity:1" />
    <path
       style="font-style:normal;font-variant:normal;font-weight:normal;font-stretch:normal;font-size:medium;line-height:125%;font-family:SciFly;-inkscape-font-specification:SciFly;letter-spacing:0px;word-spacing:0px;fill:url(#linearGradient4165);fill-opacity:1;stroke:none;stroke-width:1.13235295px;stroke-linecap:butt;stroke-linejoin:miter;stroke-opacity:1"
       inkscape:connector-curvature="0"
       id="path4161"
       d="m 415.50666,539.198 q -1.13236,0 -1.67589,-1.22294 l -5.3447,-11.50471 q -0.27177,-0.63412 -0.95118,-0.63412 l -4.30294,0 q -0.45294,0 -0.45294,0.45295 l 0,11.55 q 0,0.63411 -0.36235,0.99647 -0.36236,0.36235 -0.99647,0.36235 l -1.5853,0 q -0.63412,0 -0.99647,-0.36235 -0.36235,-0.36236 -0.36235,-0.99647 l 0,-28.08236 q 0,-0.63411 0.36235,-0.99647 0.36235,-0.36235 0.99647,-0.36235 l 9.2853,0 q 1.81176,0 3.39705,0.67941 1.5853,0.63412 2.71765,1.81177 1.17765,1.13235 1.81177,2.71764 0.67941,1.5853 0.67941,3.39706 0,2.58177 -1.26824,4.57471 -1.22294,1.99294 -3.12529,3.0347 -0.72471,0.40765 -0.31706,1.31353 l 5.48059,11.64059 q 0.31706,0.67941 0.0453,1.17765 -0.27176,0.45294 -0.95117,0.45294 l -2.08353,0 z m -6.70353,-17.43824 q 0.90588,0 1.72117,-0.31705 0.86059,-0.36236 1.49471,-0.99647 0.63412,-0.63412 0.99647,-1.49471 0.40765,-0.90588 0.40765,-1.94765 0,-1.04176 -0.40765,-1.85706 -0.36235,-0.86058 -0.99647,-1.44941 -0.63412,-0.58882 -1.49471,-0.90588 -0.81529,-0.31706 -1.72117,-0.31706 l -5.57118,0 q -0.45294,0 -0.45294,0.45294 l 0,8.37941 q 0,0.45294 0.45294,0.45294 l 5.57118,0 z" />
    <path
       style="font-style:normal;font-variant:normal;font-weight:normal;font-stretch:normal;font-size:medium;line-height:125%;font-family:SciFly;-inkscape-font-specification:SciFly;letter-spacing:0px;word-spacing:0px;fill:#1a85d1;fill-opacity:0.3137255;stroke:none;stroke-width:1.13235295px;stroke-linecap:butt;stroke-linejoin:miter;stroke-opacity:1"
       d="M 18.660156 11.876953 C 18.358196 11.876953 18.207031 12.028118 18.207031 12.330078 L 18.207031 13.128906 C 18.207031 12.826946 18.358196 12.675781 18.660156 12.675781 L 24.232422 12.675781 C 24.836342 12.675781 25.409598 12.782767 25.953125 12.994141 C 26.526852 13.205514 27.024519 13.505891 27.447266 13.898438 C 27.870012 14.290991 28.201793 14.775889 28.443359 15.349609 C 28.661877 15.786645 28.789216 16.273952 28.832031 16.808594 C 28.842531 16.675584 28.851562 16.54276 28.851562 16.40625 C 28.851562 15.711743 28.715126 15.092361 28.443359 14.548828 C 28.201793 13.975108 27.870012 13.492163 27.447266 13.099609 C 27.024519 12.707063 26.526852 12.404733 25.953125 12.193359 C 25.409598 11.981986 24.836342 11.876953 24.232422 11.876953 L 18.660156 11.876953 z M 33.132812 16.753906 C 33.078271 18.330464 32.673609 19.743932 31.886719 20.980469 C 31.071425 22.309095 30.029952 23.321118 28.761719 24.015625 C 28.318225 24.265091 28.207789 24.66011 28.400391 25.189453 C 28.476064 25.045262 28.584673 24.914041 28.761719 24.814453 C 30.029952 24.119946 31.071425 23.109877 31.886719 21.78125 C 32.732212 20.452623 33.154297 18.926258 33.154297 17.205078 C 33.154297 17.052116 33.140077 16.904447 33.132812 16.753906 z M 18.660156 25.238281 C 18.358196 25.238281 18.207031 25.38944 18.207031 25.691406 L 18.207031 26.490234 C 18.207031 26.188268 18.358196 26.039062 18.660156 26.039062 L 22.962891 26.039062 C 23.415831 26.039062 23.732882 26.249128 23.914062 26.671875 L 29.259766 38.177734 C 29.622119 38.993028 30.18064 39.400391 30.935547 39.400391 L 33.019531 39.400391 C 33.472471 39.400391 33.78953 39.249226 33.970703 38.947266 C 34.117131 38.678808 34.127569 38.368838 34.017578 38.021484 C 34.001467 38.063178 33.992492 38.106538 33.970703 38.146484 C 33.78953 38.448444 33.472471 38.599609 33.019531 38.599609 L 30.935547 38.599609 C 30.18064 38.599609 29.622119 38.192246 29.259766 37.376953 L 23.914062 25.873047 C 23.732882 25.4503 23.415831 25.238281 22.962891 25.238281 L 18.660156 25.238281 z M 13.904297 37.240234 L 13.904297 38.041016 C 13.904297 38.463756 14.026011 38.795536 14.267578 39.037109 C 14.509145 39.278676 14.840925 39.400391 15.263672 39.400391 L 16.849609 39.400391 C 17.272349 39.400391 17.60413 39.278676 17.845703 39.037109 C 18.08727 38.795536 18.207031 38.463756 18.207031 38.041016 L 18.207031 37.240234 C 18.207031 37.662974 18.08727 37.996708 17.845703 38.238281 C 17.60413 38.479848 17.272349 38.599609 16.849609 38.599609 L 15.263672 38.599609 C 14.840925 38.599609 14.509145 38.479848 14.267578 38.238281 C 14.026011 37.996708 13.904297 37.662974 13.904297 37.240234 z "
       transform="translate(384.57143,499.798)"
       id="path4176" />
    <path
       style="font-style:normal;font-variant:normal;font-weight:normal;font-stretch:normal;font-size:medium;line-height:125%;font-family:SciFly;-inkscape-font-specification:SciFly;letter-spacing:0px;word-spacing:0px;fill:#ffffff;fill-opacity:0.23529412;stroke:none;stroke-width:1.13235295px;stroke-linecap:butt;stroke-linejoin:miter;stroke-opacity:1"
       d="M 15.263672 8.5996094 C 14.840925 8.5996094 14.509145 8.721324 14.267578 8.9628906 C 14.026011 9.204464 13.904297 9.5362444 13.904297 9.9589844 L 13.904297 10.359375 C 13.904297 9.936635 14.026011 9.6048546 14.267578 9.3632812 C 14.509145 9.1217146 14.840925 9 15.263672 9 L 24.548828 9 C 25.756668 9 26.888453 9.2267475 27.945312 9.6796875 C 29.002179 10.102434 29.909163 10.705134 30.664062 11.490234 C 31.449163 12.245134 32.051863 13.152124 32.474609 14.208984 C 32.898987 15.199205 33.115817 16.258106 33.142578 17.380859 C 33.143614 17.321096 33.154297 17.265323 33.154297 17.205078 C 33.154297 15.997238 32.927549 14.86546 32.474609 13.808594 C 32.051863 12.751734 31.449163 11.846697 30.664062 11.091797 C 29.909163 10.306697 29.002179 9.7020435 27.945312 9.2792969 C 26.888453 8.8263569 25.756668 8.5996094 24.548828 8.5996094 L 15.263672 8.5996094 z M 28.841797 17.40625 C 28.817795 18.024766 28.688519 18.609503 28.443359 19.154297 C 28.201793 19.728024 27.870012 20.225691 27.447266 20.648438 C 27.024519 21.071178 26.526852 21.402958 25.953125 21.644531 C 25.409598 21.855898 24.836342 21.960938 24.232422 21.960938 L 18.660156 21.960938 C 18.358196 21.960938 18.207031 21.811726 18.207031 21.509766 L 18.207031 21.908203 C 18.207031 22.210163 18.358196 22.361328 18.660156 22.361328 L 24.232422 22.361328 C 24.836342 22.361328 25.409598 22.256289 25.953125 22.044922 C 26.526852 21.803349 27.024519 21.471568 27.447266 21.048828 C 27.870012 20.626081 28.201793 20.126461 28.443359 19.552734 C 28.715126 18.948814 28.851562 18.299982 28.851562 17.605469 C 28.851562 17.537095 28.844431 17.473161 28.841797 17.40625 z M 28.322266 25.744141 C 28.267825 25.963953 28.306582 26.22535 28.443359 26.529297 L 33.923828 38.169922 C 34.004086 38.341902 34.046648 38.501683 34.070312 38.65625 C 34.1225 38.392054 34.076541 38.096772 33.923828 37.769531 L 28.443359 26.128906 C 28.381396 25.991211 28.344985 25.864569 28.322266 25.744141 z "
       transform="translate(384.57143,499.798)"
       id="path4181" />
  </g>
</svg>
