<?xml version="1.0" encoding="UTF-8" standalone="no"?>
<!-- Created with Inkscape (http://www.inkscape.org/) -->

<svg
   xmlns:dc="http://purl.org/dc/elements/1.1/"
   xmlns:cc="http://creativecommons.org/ns#"
   xmlns:rdf="http://www.w3.org/1999/02/22-rdf-syntax-ns#"
   xmlns:svg="http://www.w3.org/2000/svg"
   xmlns="http://www.w3.org/2000/svg"
   xmlns:xlink="http://www.w3.org/1999/xlink"
   xmlns:sodipodi="http://sodipodi.sourceforge.net/DTD/sodipodi-0.dtd"
   xmlns:inkscape="http://www.inkscape.org/namespaces/inkscape"
   width="48"
   height="48"
   id="svg2"
   version="1.1"
   inkscape:version="0.48+devel r12923"
   sodipodi:docname="security-low.svg"
   inkscape:export-filename="/home/uri/workspace/NitruxforAndroid/res/drawable-xhdpi/android_firewall.png"
   inkscape:export-xdpi="180"
   inkscape:export-ydpi="180">
  <defs
     id="defs4">
    <linearGradient
       inkscape:collect="always"
       id="linearGradient4102">
      <stop
         style="stop-color:#1a1a1a;stop-opacity:1;"
         offset="0"
         id="stop4104" />
      <stop
         style="stop-color:#1a1a1a;stop-opacity:0;"
         offset="1"
         id="stop4106" />
    </linearGradient>
    <linearGradient
       x1="0"
       y1="0"
       x2="1"
       y2="0"
       gradientUnits="userSpaceOnUse"
       gradientTransform="matrix(13.526835,20.525875,20.525875,-13.526835,19.18986,1021.0543)"
       spreadMethod="pad"
       id="linearGradient6194">
      <stop
         style="stop-opacity:1;stop-color:#ffffff"
         offset="0"
         id="stop6196" />
      <stop
         style="stop-opacity:1;stop-color:#29282b"
         offset="0.0527472"
         id="stop6198" />
      <stop
         style="stop-opacity:1;stop-color:#868c95"
         offset="0.263736"
         id="stop6200" />
      <stop
         style="stop-opacity:1;stop-color:#92979f"
         offset="0.395604"
         id="stop6202" />
      <stop
         style="stop-opacity:1;stop-color:#737881"
         offset="0.542125"
         id="stop6204" />
      <stop
         style="stop-opacity:1;stop-color:#70757e"
         offset="0.626374"
         id="stop6206" />
      <stop
         style="stop-opacity:1;stop-color:#e4e6e8"
         offset="0.717949"
         id="stop6208" />
      <stop
         style="stop-opacity:1;stop-color:#ffffff"
         offset="0.791209"
         id="stop6210" />
      <stop
         style="stop-opacity:1;stop-color:#1d191a"
         offset="1"
         id="stop6212" />
    </linearGradient>
    <linearGradient
       inkscape:collect="always"
       xlink:href="#linearGradient1867"
       id="linearGradient1873"
       x1="46.499996"
       y1="1044.4872"
       x2="46.499996"
       y2="1012.7372"
       gradientUnits="userSpaceOnUse"
       gradientTransform="translate(0,-1004.3622)" />
    <linearGradient
       inkscape:collect="always"
       id="linearGradient1867">
      <stop
         style="stop-color:#ffc922;stop-opacity:1"
         offset="0"
         id="stop1869" />
      <stop
         id="stop1875"
         offset="0.5"
         style="stop-color:#ffa300;stop-opacity:1" />
      <stop
         style="stop-color:#ffbd00;stop-opacity:1"
         offset="1"
         id="stop1871" />
    </linearGradient>
    <linearGradient
       inkscape:collect="always"
       xlink:href="#linearGradient1881"
       id="linearGradient1879"
       gradientUnits="userSpaceOnUse"
       x1="2.6698656"
       y1="1114.3445"
       x2="51.572697"
       y2="993.66492"
       gradientTransform="matrix(0.5259336,-0.91094372,0.21312344,0.12304688,-230.2905,-80.674099)" />
    <linearGradient
       id="linearGradient1881"
       inkscape:collect="always">
      <stop
         id="stop1883"
         offset="0"
         style="stop-color:#322b2e;stop-opacity:1" />
      <stop
         style="stop-color:#2c262a;stop-opacity:1"
         offset="0.45535713"
         id="stop1885" />
      <stop
         id="stop1887"
         offset="1"
         style="stop-color:#2f2a2b;stop-opacity:1" />
    </linearGradient>
    <linearGradient
       inkscape:collect="always"
       xlink:href="#linearGradient1939"
       id="linearGradient1945"
       x1="-5.126524"
       y1="26.963573"
       x2="3.7123106"
       y2="26.963573"
       gradientUnits="userSpaceOnUse" />
    <linearGradient
       inkscape:collect="always"
       id="linearGradient1939">
      <stop
         style="stop-color:#ffffff;stop-opacity:1;"
         offset="0"
         id="stop1941" />
      <stop
         style="stop-color:#ffffff;stop-opacity:0;"
         offset="1"
         id="stop1943" />
    </linearGradient>
    <linearGradient
       inkscape:collect="always"
       xlink:href="#linearGradient1939"
       id="linearGradient1949"
       gradientUnits="userSpaceOnUse"
       x1="-5.126524"
       y1="26.963573"
       x2="3.7123106"
       y2="26.963573"
       gradientTransform="matrix(-1,0,0,1,48,1004.3622)" />
    <linearGradient
       y2="-1034.3622"
       x2="64.75"
       y1="-1034.3622"
       x1="1.3933717e-07"
       gradientUnits="userSpaceOnUse"
       id="linearGradient900"
       xlink:href="#linearGradient6194"
       inkscape:collect="always"
       gradientTransform="translate(-3.4744264e-8,-1.8631406e-5)" />
    <linearGradient
       inkscape:collect="always"
       xlink:href="#linearGradient4102"
       id="linearGradient4108"
       x1="38.632851"
       y1="1035.7794"
       x2="38.632851"
       y2="1037.4513"
       gradientUnits="userSpaceOnUse"
       gradientTransform="translate(0,6.5)" />
    <linearGradient
       inkscape:collect="always"
       xlink:href="#linearGradient4102"
       id="linearGradient4112"
       gradientUnits="userSpaceOnUse"
       x1="38.632851"
       y1="1035.7794"
       x2="38.632851"
       y2="1037.4513"
       gradientTransform="translate(0,-2050.2244)" />
    <radialGradient
       inkscape:collect="always"
       xlink:href="#linearGradient1939"
       id="radialGradient4141"
       cx="24"
       cy="1028.3622"
       fx="24"
       fy="1028.3622"
       r="24"
       gradientTransform="matrix(0.90947401,-1.5195558e-7,8.118326e-8,0.48589243,2.1725403,528.68879)"
       gradientUnits="userSpaceOnUse" />
  </defs>
  <sodipodi:namedview
     id="base"
     pagecolor="#ffffff"
     bordercolor="#666666"
     borderopacity="1.0"
     inkscape:pageopacity="0"
     inkscape:pageshadow="2"
     inkscape:zoom="2.7664281"
     inkscape:cx="-47.820893"
     inkscape:cy="9.7543844"
     inkscape:document-units="px"
     inkscape:current-layer="layer1"
     showgrid="false"
     inkscape:window-width="1366"
     inkscape:window-height="669"
     inkscape:window-x="0"
     inkscape:window-y="26"
     inkscape:window-maximized="1">
    <inkscape:grid
       type="xygrid"
       id="grid3850" />
  </sodipodi:namedview>
  <metadata
     id="metadata7">
    <rdf:RDF>
      <cc:Work
         rdf:about="">
        <dc:format>image/svg+xml</dc:format>
        <dc:type
           rdf:resource="http://purl.org/dc/dcmitype/StillImage" />
        <dc:title></dc:title>
      </cc:Work>
    </rdf:RDF>
  </metadata>
  <g
     inkscape:label="Capa 1"
     inkscape:groupmode="layer"
     id="layer1"
     transform="translate(0,-1004.3622)">
    <rect
       style="fill:url(#linearGradient900);fill-opacity:1;stroke:none"
       id="rect2991-1"
       width="48"
       height="48"
       x="3.4744261e-08"
       y="-1052.3622"
       ry="1.9445436"
       transform="scale(1,-1)" />
    <g
       id="g1951"
       transform="matrix(1,0,0,0.98461538,-3.4744264e-8,15.574808)">
      <path
         inkscape:connector-curvature="0"
         id="rect1865"
         transform="translate(0,1004.3622)"
         d="M 0,8 0,40 48,40 48,8 0,8 Z"
         style="fill:url(#linearGradient1873);fill-opacity:1;stroke:none" />
      <path
         inkscape:connector-curvature="0"
         id="rect1877"
         transform="translate(0,1004.3622)"
         d="M 6.1875,8 0,18.71875 0,34.46875 15.28125,8 6.1875,8 z m 14,0 L 1.71875,40 10.8125,40 29.28125,8 20.1875,8 z m 14,0 L 15.71875,40 24.8125,40 43.28125,8 34.1875,8 Z M 48,8.34375 29.71875,40 38.8125,40 48,24.0625 48,8.34375 Z"
         style="fill:url(#linearGradient1879);fill-opacity:1;stroke:none" />
      <path
         inkscape:connector-curvature="0"
         id="path1923"
         transform="translate(0,1004.3622)"
         d="m 0,8 0,0.78125 48,0 L 48,8 0,8 Z"
         style="fill:#ffffff;fill-opacity:0.46153846;stroke:none" />
      <path
         inkscape:connector-curvature="0"
         style="fill:#000000;fill-opacity:0.46153846;stroke:none"
         d="m 0,1043.8622 0,0.5 48,0 0,-0.5 L 0,1043.8622 Z"
         id="path1928" />
      <path
         id="path1930"
         d="m 0,1044.3622 0,0.5 48,0 0,-0.5 L 0,1044.3622 Z"
         style="fill:#ffffff;fill-opacity:0.46153846;stroke:none"
         inkscape:connector-curvature="0" />
      <path
         inkscape:connector-curvature="0"
         id="path1932"
         transform="translate(0,1004.3622)"
         d="m 0,8 0,32 7.96875,0 0,-32 L 0,8 Z"
         style="fill:url(#linearGradient1945);fill-opacity:1;stroke:none" />
      <path
         inkscape:connector-curvature="0"
         style="fill:url(#linearGradient1949);fill-opacity:1;stroke:none"
         d="m 48,1012.3622 0,32 -7.96875,0 0,-32 L 48,1012.3622 Z"
         id="path1947" />
    </g>
    <path
       inkscape:connector-curvature="0"
       style="fill:#000000;fill-opacity:1;stroke:none"
       d="m -3.4744264e-8,1049.3622 0,1.0625 c 0,1.0773 0.860222904744264,1.9375 1.937499934744264,1.9375 l 44.1249991,0 c 1.077277,0 1.9375,-0.8602 1.9375,-1.9375 l 0,-1.0625 c 0,1.0773 -0.860223,1.9375 -1.9375,1.9375 l -44.1249991,0 C 0.86022287,1051.2997 -3.4744264e-8,1050.4395 -3.4744264e-8,1049.3622 Z"
       id="rect846" />
    <path
       inkscape:connector-curvature="0"
       style="fill:#ffffff;fill-opacity:0.5372549;stroke:none"
       d="m 2.5312499,1005.0185 c -0.9170884,0 -1.67114673,0.6395 -1.84374993,1.5 0.33561203,-0.2799 0.77451213,-0.4375 1.24999993,-0.4375 l 44.1249991,0 c 0.475488,0 0.914388,0.1576 1.25,0.4375 -0.172603,-0.8605 -0.926662,-1.5 -1.84375,-1.5 L 2.5312499,1005.0185 Z"
       id="path7515" />
    <path
       inkscape:connector-curvature="0"
       style="fill:#000000;fill-opacity:0.39215686;stroke:none"
       d="m 1.9374999,1004.3622 c -1.07727693,0 -1.937499934744264,0.8602 -1.937499934744264,1.9375 l 0,43.0625 c 0,0.7934 0.480023604744264,1.449 1.156249934744264,1.75 -0.30934163,-0.3333 -0.49999993,-0.7824 -0.49999993,-1.2812 l 0,-42.9375 c 0,-1.0482 0.82689893,-1.875 1.87499993,-1.875 l 42.9374991,0 c 1.048101,0 1.875,0.8268 1.875,1.875 l 0,42.9375 c 0,0.4988 -0.190658,0.9479 -0.5,1.2812 0.676226,-0.301 1.15625,-0.9566 1.15625,-1.75 l 0,-43.0625 c 0,-1.0773 -0.860223,-1.9375 -1.9375,-1.9375 L 1.9374999,1004.3622 Z"
       id="rect4280" />
    <rect
       style="fill:#1a1a1a;fill-opacity:1;stroke:none"
       id="rect4098"
       width="48"
       height="27.500002"
       x="0"
       y="1014.6122"
       ry="0" />
    <rect
       ry="0"
       y="1041.8622"
       x="0"
       height="4"
       width="48"
       id="rect4100"
       style="fill:url(#linearGradient4108);fill-opacity:1;stroke:none" />
    <rect
       style="fill:url(#linearGradient4112);fill-opacity:1;stroke:none"
       id="rect4110"
       width="48"
       height="4"
       x="0"
       y="-1014.8622"
       ry="0"
       transform="scale(1,-1)" />
    <rect
       ry="0"
       y="1018.3622"
       x="0"
       height="20"
       width="48"
       id="rect4133"
       style="fill:url(#radialGradient4141);fill-opacity:1;stroke:none;opacity:0.3" />
  </g>
</svg>
