<?xml version="1.0" encoding="UTF-8" standalone="no"?>
<!-- Created with Inkscape (http://www.inkscape.org/) -->

<svg
   xmlns:dc="http://purl.org/dc/elements/1.1/"
   xmlns:cc="http://creativecommons.org/ns#"
   xmlns:rdf="http://www.w3.org/1999/02/22-rdf-syntax-ns#"
   xmlns:svg="http://www.w3.org/2000/svg"
   xmlns="http://www.w3.org/2000/svg"
   xmlns:xlink="http://www.w3.org/1999/xlink"
   xmlns:sodipodi="http://sodipodi.sourceforge.net/DTD/sodipodi-0.dtd"
   xmlns:inkscape="http://www.inkscape.org/namespaces/inkscape"
   width="48"
   height="48"
   id="svg2"
   version="1.1"
   inkscape:version="0.48+devel r12501"
   sodipodi:docname="preferences-system-session.svg"
   inkscape:export-filename="/home/uri/workspace/NitruxforAndroid/res/drawable-xhdpi/rom_manager.png"
   inkscape:export-xdpi="180"
   inkscape:export-ydpi="180">
  <defs
     id="defs4">
    <linearGradient
       id="linearGradient4206"
       inkscape:collect="always">
      <stop
         id="stop4208"
         offset="0"
         style="stop-color:#d7d8e1;stop-opacity:1" />
      <stop
         id="stop4210"
         offset="1"
         style="stop-color:#f9fafb;stop-opacity:1" />
    </linearGradient>
    <linearGradient
       inkscape:collect="always"
       id="linearGradient4142">
      <stop
         style="stop-color:#333645;stop-opacity:1"
         offset="0"
         id="stop4144" />
      <stop
         style="stop-color:#3d5260;stop-opacity:1"
         offset="1"
         id="stop4146" />
    </linearGradient>
    <linearGradient
       inkscape:collect="always"
       xlink:href="#linearGradient4142"
       id="linearGradient4148"
       x1="31.715117"
       y1="-1052.3608"
       x2="31.715117"
       y2="-1004.3634"
       gradientUnits="userSpaceOnUse" />
    <linearGradient
       inkscape:collect="always"
       xlink:href="#linearGradient4142"
       id="linearGradient4202"
       x1="9.3591585"
       y1="1028.3622"
       x2="38.640842"
       y2="1028.3622"
       gradientUnits="userSpaceOnUse" />
    <linearGradient
       inkscape:collect="always"
       xlink:href="#linearGradient4206"
       id="linearGradient4204"
       gradientUnits="userSpaceOnUse"
       x1="18.151779"
       y1="-17.403521"
       x2="18.151779"
       y2="39.160564"
       gradientTransform="translate(-60.196639,-1.0338007e-5)" />
    <linearGradient
       inkscape:collect="always"
       xlink:href="#linearGradient4142"
       id="linearGradient4212"
       gradientUnits="userSpaceOnUse"
       x1="9.3591585"
       y1="1028.3622"
       x2="38.640842"
       y2="1028.3622" />
  </defs>
  <sodipodi:namedview
     id="base"
     pagecolor="#ffffff"
     bordercolor="#666666"
     borderopacity="1.0"
     inkscape:pageopacity="0.0"
     inkscape:pageshadow="2"
     inkscape:zoom="8.0594796"
     inkscape:cx="6.2781015"
     inkscape:cy="29.47001"
     inkscape:document-units="px"
     inkscape:current-layer="layer1"
     showgrid="false"
     inkscape:window-width="1366"
     inkscape:window-height="715"
     inkscape:window-x="0"
     inkscape:window-y="30"
     inkscape:window-maximized="1">
    <inkscape:grid
       type="xygrid"
       id="grid3850" />
  </sodipodi:namedview>
  <metadata
     id="metadata7">
    <rdf:RDF>
      <cc:Work
         rdf:about="">
        <dc:format>image/svg+xml</dc:format>
        <dc:type
           rdf:resource="http://purl.org/dc/dcmitype/StillImage" />
        <dc:title />
      </cc:Work>
    </rdf:RDF>
  </metadata>
  <g
     inkscape:label="Capa 1"
     inkscape:groupmode="layer"
     id="layer1"
     transform="translate(0,-1004.3622)">
    <rect
       transform="scale(1,-1)"
       ry="1.9445436"
       y="-1052.3622"
       x="0"
       height="48"
       width="48"
       id="rect4125"
       style="fill:url(#linearGradient4148);fill-opacity:1;stroke:none" />
    <path
       inkscape:connector-curvature="0"
       style="fill:#000000;fill-opacity:0.39215686;stroke:none"
       d="m 1.9374998,1004.3622 c -1.07727685,0 -1.937499850286865,0.8602 -1.937499850286865,1.9375 l 0,43.0625 c 0,0.7934 0.480023600286865,1.449 1.156249850286865,1.75 -0.30934155,-0.3333 -0.49999985,-0.7824 -0.49999985,-1.2812 l 0,-42.9375 c 0,-1.0482 0.82689885,-1.875 1.87499985,-1.875 l 42.9375002,0 c 1.048101,0 1.875,0.8268 1.875,1.875 l 0,42.9375 c 0,0.4988 -0.190658,0.9479 -0.5,1.2812 0.676226,-0.301 1.15625,-0.9566 1.15625,-1.75 l 0,-43.0625 c 0,-1.0773 -0.860223,-1.9375 -1.9375,-1.9375 L 1.9374998,1004.3622 Z"
       id="rect4280" />
    <g
       style="fill:#000000;fill-opacity:0.05882353"
       inkscape:label="Capa 1"
       id="g4220"
       transform="matrix(1.0266667,0,0,1.0266667,-0.64000075,-26.223056)">
      <g
         id="g4222"
         transform="matrix(0.53927737,0,0,-0.53927737,24.005932,1034.3687)"
         style="fill:#000000;fill-opacity:0.05882353">
        <path
           d="m 0,0 c -5.752,0 -10.414,4.774 -10.414,10.669 0,5.889 4.662,10.667 10.414,10.667 5.751,0 10.415,-4.778 10.415,-10.667 C 10.415,4.774 5.751,0 0,0 m 26.015,3.195 c 0.731,2.515 1.123,5.18 1.123,7.941 0,0.233 -0.003,0.461 -0.007,0.691 l -6.071,3.211 c -0.223,1.184 -0.542,2.33 -0.948,3.438 l 3.762,5.896 c -1.373,2.59 -3.133,4.937 -5.208,6.951 L 11.83,29.095 c -0.814,0.551 -1.663,1.042 -2.547,1.472 L 7.816,37.78 c -2.476,0.764 -5.102,1.173 -7.826,1.173 -0.239,0 -0.476,-0.006 -0.712,-0.01 l -3.374,-6.682 c -0.87,-0.183 -1.716,-0.414 -2.538,-0.696 l -6.149,4.118 c -2.561,-1.397 -4.882,-3.207 -6.872,-5.343 l 2.206,-7.103 c -0.516,-0.767 -0.993,-1.574 -1.413,-2.413 l -7.109,-1.52 c -0.776,-2.585 -1.189,-5.324 -1.189,-8.168 0,-0.188 0,-0.369 0.008,-0.554 l 6.2,-3.292 c 0.176,-1.101 0.435,-2.18 0.766,-3.218 l -3.815,-5.968 c 0.001,-0.001 0.002,-0.003 0.003,-0.005 l -0.003,0.004 c 1.181,-2.275 2.661,-4.365 4.388,-6.209 0.246,-0.263 0.498,-0.521 0.755,-0.775 l 6.354,2.069 c 1.015,-0.767 2.093,-1.436 3.236,-2.008 l 1.358,-6.66 c 2.501,-0.778 5.153,-1.197 7.9,-1.197 0.173,0 0.338,0 0.504,0.006 l 2.978,5.899 c 1.364,0.215 2.695,0.572 3.961,1.046 l 5.419,-3.63 c 2.511,1.381 4.782,3.16 6.741,5.251 l -1.985,6.398 c 0.756,1.104 1.416,2.283 1.966,3.52 l 6.441,1.382 z"
           style="fill:#000000;fill-opacity:0.05882353;fill-rule:nonzero;stroke:none"
           id="path4224"
           inkscape:connector-curvature="0" />
      </g>
    </g>
    <g
       transform="matrix(1.0266667,0,0,1.0266667,-0.64000075,-26.623056)"
       id="g4214"
       inkscape:label="Capa 1"
       style="fill:#000000;fill-opacity:0.11764706">
      <g
         style="fill:#000000;fill-opacity:0.11764706"
         transform="matrix(0.53927737,0,0,-0.53927737,24.005932,1034.3687)"
         id="g4216">
        <path
           inkscape:connector-curvature="0"
           id="path4218"
           style="fill:#000000;fill-opacity:0.11764706;fill-rule:nonzero;stroke:none"
           d="m 0,0 c -5.752,0 -10.414,4.774 -10.414,10.669 0,5.889 4.662,10.667 10.414,10.667 5.751,0 10.415,-4.778 10.415,-10.667 C 10.415,4.774 5.751,0 0,0 m 26.015,3.195 c 0.731,2.515 1.123,5.18 1.123,7.941 0,0.233 -0.003,0.461 -0.007,0.691 l -6.071,3.211 c -0.223,1.184 -0.542,2.33 -0.948,3.438 l 3.762,5.896 c -1.373,2.59 -3.133,4.937 -5.208,6.951 L 11.83,29.095 c -0.814,0.551 -1.663,1.042 -2.547,1.472 L 7.816,37.78 c -2.476,0.764 -5.102,1.173 -7.826,1.173 -0.239,0 -0.476,-0.006 -0.712,-0.01 l -3.374,-6.682 c -0.87,-0.183 -1.716,-0.414 -2.538,-0.696 l -6.149,4.118 c -2.561,-1.397 -4.882,-3.207 -6.872,-5.343 l 2.206,-7.103 c -0.516,-0.767 -0.993,-1.574 -1.413,-2.413 l -7.109,-1.52 c -0.776,-2.585 -1.189,-5.324 -1.189,-8.168 0,-0.188 0,-0.369 0.008,-0.554 l 6.2,-3.292 c 0.176,-1.101 0.435,-2.18 0.766,-3.218 l -3.815,-5.968 c 0.001,-0.001 0.002,-0.003 0.003,-0.005 l -0.003,0.004 c 1.181,-2.275 2.661,-4.365 4.388,-6.209 0.246,-0.263 0.498,-0.521 0.755,-0.775 l 6.354,2.069 c 1.015,-0.767 2.093,-1.436 3.236,-2.008 l 1.358,-6.66 c 2.501,-0.778 5.153,-1.197 7.9,-1.197 0.173,0 0.338,0 0.504,0.006 l 2.978,5.899 c 1.364,0.215 2.695,0.572 3.961,1.046 l 5.419,-3.63 c 2.511,1.381 4.782,3.16 6.741,5.251 l -1.985,6.398 c 0.756,1.104 1.416,2.283 1.966,3.52 l 6.441,1.382 z" />
      </g>
    </g>
    <g
       style="fill:#000000;fill-opacity:0.23529412"
       inkscape:label="Capa 1"
       id="layer1-7"
       transform="matrix(1.0266667,0,0,1.0266667,-0.64000075,-27.023056)">
      <g
         id="g1252"
         transform="matrix(0.53927737,0,0,-0.53927737,24.005932,1034.3687)"
         style="fill:#000000;fill-opacity:0.23529412">
        <path
           d="m 0,0 c -5.752,0 -10.414,4.774 -10.414,10.669 0,5.889 4.662,10.667 10.414,10.667 5.751,0 10.415,-4.778 10.415,-10.667 C 10.415,4.774 5.751,0 0,0 m 26.015,3.195 c 0.731,2.515 1.123,5.18 1.123,7.941 0,0.233 -0.003,0.461 -0.007,0.691 l -6.071,3.211 c -0.223,1.184 -0.542,2.33 -0.948,3.438 l 3.762,5.896 c -1.373,2.59 -3.133,4.937 -5.208,6.951 L 11.83,29.095 c -0.814,0.551 -1.663,1.042 -2.547,1.472 L 7.816,37.78 c -2.476,0.764 -5.102,1.173 -7.826,1.173 -0.239,0 -0.476,-0.006 -0.712,-0.01 l -3.374,-6.682 c -0.87,-0.183 -1.716,-0.414 -2.538,-0.696 l -6.149,4.118 c -2.561,-1.397 -4.882,-3.207 -6.872,-5.343 l 2.206,-7.103 c -0.516,-0.767 -0.993,-1.574 -1.413,-2.413 l -7.109,-1.52 c -0.776,-2.585 -1.189,-5.324 -1.189,-8.168 0,-0.188 0,-0.369 0.008,-0.554 l 6.2,-3.292 c 0.176,-1.101 0.435,-2.18 0.766,-3.218 l -3.815,-5.968 c 0.001,-0.001 0.002,-0.003 0.003,-0.005 l -0.003,0.004 c 1.181,-2.275 2.661,-4.365 4.388,-6.209 0.246,-0.263 0.498,-0.521 0.755,-0.775 l 6.354,2.069 c 1.015,-0.767 2.093,-1.436 3.236,-2.008 l 1.358,-6.66 c 2.501,-0.778 5.153,-1.197 7.9,-1.197 0.173,0 0.338,0 0.504,0.006 l 2.978,5.899 c 1.364,0.215 2.695,0.572 3.961,1.046 l 5.419,-3.63 c 2.511,1.381 4.782,3.16 6.741,5.251 l -1.985,6.398 c 0.756,1.104 1.416,2.283 1.966,3.52 l 6.441,1.382 z"
           style="fill:#000000;fill-opacity:0.23529412;fill-rule:nonzero;stroke:none"
           id="path1254"
           inkscape:connector-curvature="0" />
      </g>
    </g>
    <path
       inkscape:connector-curvature="0"
       style="fill:#ffffff;fill-opacity:0.5372549;stroke:none"
       d="m 2.5312498,1005.0185 c -0.9170884,0 -1.67114665,0.6395 -1.84374985,1.5 0.33561195,-0.2799 0.77451205,-0.4375 1.24999985,-0.4375 l 44.1250002,0 c 0.475488,0 0.914388,0.1576 1.25,0.4375 -0.172603,-0.8605 -0.926662,-1.5 -1.84375,-1.5 L 2.5312498,1005.0185 Z"
       id="path7515" />
    <path
       inkscape:connector-curvature="0"
       style="fill:#000000;fill-opacity:1;stroke:none"
       d="m -5.0286866e-8,1049.3622 0,1.0625 c 0,1.0773 0.860222900286866,1.9375 1.937499850286866,1.9375 l 44.1250002,0 c 1.077277,0 1.9375,-0.8602 1.9375,-1.9375 l 0,-1.0625 c 0,1.0773 -0.860223,1.9375 -1.9375,1.9375 l -44.1250002,0 C 0.86022285,1051.2997 -5.0286866e-8,1050.4395 -5.0286866e-8,1049.3622 Z"
       id="rect846" />
    <g
       transform="matrix(1.0266667,0,0,1.0266667,32.688357,-27.423054)"
       id="g4178"
       inkscape:label="Capa 1"
       style="fill:url(#linearGradient4202);fill-opacity:1">
      <g
         style="fill:url(#linearGradient4212);fill-opacity:1"
         transform="matrix(0.53927737,0,0,-0.53927737,24.005932,1034.3687)"
         id="g4180">
        <path
           inkscape:connector-curvature="0"
           id="path4182"
           style="fill:url(#linearGradient4204);fill-opacity:1;fill-rule:nonzero;stroke:none"
           d="m -60.196639,-1.0338007e-5 c -5.752,0 -10.414,4.774000038007 -10.414,10.669000338007 0,5.889 4.662,10.667 10.414,10.667 5.751,0 10.415,-4.778 10.415,-10.667 0,-5.8950003 -4.664,-10.669000338007 -10.415,-10.669000338007 M -34.181639,3.1949897 c 0.731,2.515 1.123,5.18 1.123,7.9410003 0,0.233 -0.003,0.461 -0.007,0.691 l -6.071,3.211 c -0.223,1.184 -0.542,2.33 -0.948,3.438 l 3.762,5.896 c -1.373,2.59 -3.133,4.937 -5.208,6.951 l -6.836,-2.228 c -0.814,0.551 -1.663,1.042 -2.547,1.472 l -1.467,7.213 c -2.476,0.764 -5.102,1.173 -7.826,1.173 -0.239,0 -0.476,-0.006 -0.712,-0.01 l -3.374,-6.682 c -0.87,-0.183 -1.716,-0.414 -2.538,-0.696 l -6.149,4.118 c -2.561,-1.397 -4.882,-3.207 -6.872,-5.343 l 2.206,-7.103 c -0.516,-0.767 -0.993,-1.574 -1.413,-2.413 l -7.109,-1.52 c -0.776,-2.585 -1.189,-5.324 -1.189,-8.168 0,-0.188 0,-0.369 0.008,-0.554 l 6.2,-3.2920003 c 0.176,-1.101 0.435,-2.18 0.766,-3.218 l -3.815,-5.968 c 10e-4,-0.001 0.002,-0.003 0.003,-0.005 l -0.003,0.004 c 1.181,-2.275 2.661,-4.365 4.388,-6.209 0.246,-0.263 0.498,-0.521 0.755,-0.775 l 6.354,2.069 c 1.015,-0.767 2.093,-1.436 3.236,-2.008 l 1.358,-6.6599997 c 2.501,-0.778 5.153,-1.197 7.9,-1.197 0.173,0 0.338,0 0.504,0.006 l 2.978,5.899 c 1.364,0.215 2.695,0.572 3.961,1.0459997 l 5.419,-3.6299997 c 2.511,1.381 4.782,3.16 6.741,5.2509997 l -1.985,6.398 c 0.756,1.10399996 1.416,2.28299996 1.966,3.52 l 6.441,1.382 z" />
      </g>
    </g>
    <path
       style="fill:#333645;fill-opacity:0.31372549;fill-rule:nonzero;stroke:none"
       d="m 13.3125,1017.5435 c -0.06172,0.064 -0.128837,0.1224 -0.189453,0.1875 l 1.056641,3.3964 c 0.05584,-0.087 0.108334,-0.1779 0.166015,-0.2636 l -1.033203,-3.3203 z m 23.669922,3.0683 -1.841797,2.8828 c 0.06407,0.1749 0.115745,0.3549 0.171875,0.5332 l 1.912109,-2.998 c -0.07568,-0.1428 -0.162296,-0.2779 -0.242187,-0.418 z m -12.976563,1.3008 c -3.184641,0 -5.765625,2.6438 -5.765625,5.9043 0,0.1349 0.01085,0.2678 0.01953,0.4004 0.201919,-3.0731 2.693503,-5.5059 5.746093,-5.5059 3.052061,0 5.544091,2.4328 5.746094,5.5059 0.0087,-0.1326 0.01953,-0.2655 0.01953,-0.4004 0,-3.2605 -2.581537,-5.9043 -5.765625,-5.9043 z m -15.0195309,5.9648 c -0.00491,0.1624 -0.017578,0.3227 -0.017578,0.4864 0,0.1041 -5.237e-4,0.2042 0.00391,0.3066 l 3.4335938,1.8223 c 0.06653,0.4162 0.162102,0.8231 0.269531,1.2246 l 0.154297,-0.2422 c -0.183261,-0.5747 -0.326388,-1.1736 -0.423828,-1.7832 l -3.4199219,-1.8145 z m 30.0292969,0.094 c -0.03556,1.3811 -0.23743,2.7181 -0.605469,3.9844 l 0,0.01 -3.566406,0.7637 c -0.304512,0.6849 -0.671278,1.338 -1.089844,1.9492 l 0.166016,0.5332 c 0.346428,-0.5348 0.662321,-1.0935 0.923828,-1.6817 l 3.566406,-0.7656 0,-0.01 c 0.404724,-1.3925 0.621094,-2.8678 0.621094,-4.3964 0,-0.129 -0.0017,-0.2555 -0.0039,-0.3828 l -0.01172,-0.01 z m -28.058594,7.2324 -0.240234,0.375 c 0.653871,1.2596 1.47352,2.4165 2.429687,3.4375 0.1362,0.1456 0.275679,0.2891 0.417969,0.4297 l 3.519531,-1.1465 c 0.561963,0.4247 1.158184,0.7966 1.791016,1.1133 l 0.751953,3.6855 c 1.384699,0.4308 2.852149,0.6641 4.373047,0.6641 l 0.279297,0 1.648437,-3.2656 c 0.75519,-0.119 1.492429,-0.3177 2.19336,-0.5801 l 3,2.0098 c 1.390236,-0.7646 2.647805,-1.7486 3.732422,-2.9063 l -0.189454,-0.6133 c -1.041993,1.0744 -2.23064,1.999 -3.542968,2.7207 l -3,-2.0097 c -0.700931,0.2624 -1.43817,0.4591 -2.19336,0.5781 l -1.648437,3.2656 -0.279297,0 c -1.520898,0 -2.988348,-0.2313 -4.373047,-0.6621 L 18.875,1038.6118 c -0.632832,-0.3167 -1.229053,-0.6866 -1.791016,-1.1113 l -3.519531,1.1445 c -0.14229,-0.1406 -0.281769,-0.2821 -0.417969,-0.4277 -0.846184,-0.9036 -1.577428,-1.9202 -2.189453,-3.0137 z"
       id="path4230"
       inkscape:connector-curvature="0" />
    <path
       style="fill:#ffffff;fill-opacity:0.23529412;fill-rule:nonzero;stroke:none"
       d="m 24,1012.9622 c -0.132324,0 -0.263868,-2e-4 -0.394531,0.01 l -1.867188,3.6992 c -0.481682,0.1014 -0.94919,0.2306 -1.404297,0.3867 l -3.40625,-2.2812 c -1.417918,0.7735 -2.702908,1.7763 -3.804687,2.9589 l 0.0957,0.3067 c 1.081154,-1.1402 2.33023,-2.1131 3.708984,-2.8652 l 3.40625,2.2812 c 0.455107,-0.1561 0.922615,-0.2853 1.404297,-0.3867 l 1.867188,-3.6992 c 0.130663,-0.01 0.262207,-0.01 0.394531,-0.01 1.508165,0 2.963126,0.2254 4.333984,0.6484 l 0.8125,3.9942 c 0.489434,0.2381 0.959479,0.5094 1.410157,0.8144 l 3.783203,-1.2324 c 1.091652,1.0595 2.021164,2.289 2.763672,3.6387 l 0.121093,-0.1914 c -0.760173,-1.4339 -1.735924,-2.7327 -2.884765,-3.8477 l -3.783203,1.2344 c -0.450678,-0.305 -0.920723,-0.5783 -1.410157,-0.8164 l -0.8125,-3.9922 c -1.370858,-0.423 -2.825819,-0.6504 -4.333984,-0.6504 z m -9.738281,8.8379 c -0.252899,0.3858 -0.490112,0.7874 -0.699219,1.2051 l -3.9355469,0.8398 c -0.4296387,1.4312 -0.6582031,2.9489 -0.6582031,4.5235 0,0.1007 -1.139e-4,0.1978 0.00391,0.2968 0.00988,-1.5372 0.2341623,-3.0203 0.6542969,-4.4199 l 3.9355469,-0.8418 c 0.232536,-0.4645 0.497516,-0.9113 0.783203,-1.3359 l -0.08398,-0.2676 z m 20.964843,2.7656 -0.08594,0.1348 c 0.224785,0.6135 0.401925,1.2468 0.525391,1.9023 l 3.361328,1.7774 c 4.15e-4,0.024 -3.72e-4,0.048 0,0.072 1.62e-4,-0.029 0.0039,-0.058 0.0039,-0.088 0,-0.129 -0.0017,-0.2556 -0.0039,-0.3829 l -3.361328,-1.7793 c -0.105928,-0.5623 -0.258425,-1.1052 -0.439454,-1.6367 z M 18.25,1028.8235 c -0.0022,0.067 -0.0098,0.132 -0.0098,0.1993 0,3.2638 2.580984,5.9062 5.765625,5.9062 3.184088,0 5.765625,-2.6424 5.765625,-5.9062 0,-0.067 -0.0076,-0.1325 -0.0098,-0.1993 -0.104511,3.1697 -2.638107,5.7051 -5.75586,5.7051 -3.118294,0 -5.651392,-2.5354 -5.755859,-5.7051 z m -5.498047,3.5762 -2.035156,3.1836 c 0.03753,0.072 0.08052,0.1413 0.119141,0.2129 l 1.99414,-3.1172 c -0.02919,-0.091 -0.05098,-0.1866 -0.07813,-0.2793 z m 21.083985,3.3496 c -0.02878,0.043 -0.05273,0.09 -0.08203,0.1328 l 1.00586,3.2364 c 0.03054,-0.032 0.06348,-0.062 0.09375,-0.094 l -1.017578,-3.2754 z"
       id="path4249"
       inkscape:connector-curvature="0" />
  </g>
</svg>
