<?xml version="1.0" encoding="UTF-8" standalone="no"?>
<!-- Created with Inkscape (http://www.inkscape.org/) -->

<svg
   xmlns:dc="http://purl.org/dc/elements/1.1/"
   xmlns:cc="http://creativecommons.org/ns#"
   xmlns:rdf="http://www.w3.org/1999/02/22-rdf-syntax-ns#"
   xmlns:svg="http://www.w3.org/2000/svg"
   xmlns="http://www.w3.org/2000/svg"
   xmlns:xlink="http://www.w3.org/1999/xlink"
   xmlns:sodipodi="http://sodipodi.sourceforge.net/DTD/sodipodi-0.dtd"
   xmlns:inkscape="http://www.inkscape.org/namespaces/inkscape"
   width="48"
   height="48"
   id="svg2"
   version="1.1"
   inkscape:version="0.48+devel r12903"
   sodipodi:docname="internet-chat.svg">
  <defs
     id="defs4">
    <linearGradient
       inkscape:collect="always"
       id="linearGradient4121">
      <stop
         style="stop-color:#597c90;stop-opacity:1"
         offset="0"
         id="stop4123" />
      <stop
         style="stop-color:#82bad1;stop-opacity:1"
         offset="1"
         id="stop4125" />
    </linearGradient>
    <linearGradient
       id="linearGradient4087"
       inkscape:collect="always">
      <stop
         id="stop4089"
         offset="0"
         style="stop-color:#57a4c0;stop-opacity:1" />
      <stop
         id="stop4091"
         offset="1"
         style="stop-color:#8bd5ef;stop-opacity:1" />
    </linearGradient>
    <linearGradient
       id="linearGradient4079"
       inkscape:collect="always">
      <stop
         id="stop4081"
         offset="0"
         style="stop-color:#8ad6f1;stop-opacity:1" />
      <stop
         id="stop4083"
         offset="1"
         style="stop-color:#c3eaf7;stop-opacity:1" />
    </linearGradient>
    <linearGradient
       inkscape:collect="always"
       id="linearGradient855">
      <stop
         style="stop-color:#e8f7ff;stop-opacity:1"
         offset="0"
         id="stop857" />
      <stop
         style="stop-color:#feffff;stop-opacity:1"
         offset="1"
         id="stop859" />
    </linearGradient>
    <linearGradient
       inkscape:collect="always"
       xlink:href="#linearGradient855"
       id="linearGradient864"
       x1="26.25"
       y1="-1052.3622"
       x2="26.25"
       y2="-1004.3622"
       gradientUnits="userSpaceOnUse" />
    <linearGradient
       inkscape:collect="always"
       xlink:href="#linearGradient4079"
       id="linearGradient4077"
       x1="29.25"
       y1="1042.6122"
       x2="29.25"
       y2="1014.1122"
       gradientUnits="userSpaceOnUse"
       gradientTransform="matrix(1.0999269,0,0,1.0999269,-2.397572,-101.66103)" />
    <linearGradient
       inkscape:collect="always"
       xlink:href="#linearGradient4087"
       id="linearGradient4085"
       x1="28.37266"
       y1="1043.4349"
       x2="28.37266"
       y2="1013.2946"
       gradientUnits="userSpaceOnUse"
       gradientTransform="matrix(1.0998881,0,0,1.1000019,-2.3973149,-101.73812)" />
    <linearGradient
       inkscape:collect="always"
       xlink:href="#linearGradient4121"
       id="linearGradient4119"
       x1="26.428116"
       y1="1022.3986"
       x2="26.428116"
       y2="1032.519"
       gradientUnits="userSpaceOnUse"
       gradientTransform="matrix(1.1000019,0,0,1.1000019,-2.398185,-102.83814)" />
  </defs>
  <sodipodi:namedview
     id="base"
     pagecolor="#ffffff"
     bordercolor="#666666"
     borderopacity="1.0"
     inkscape:pageopacity="0.0"
     inkscape:pageshadow="2"
     inkscape:zoom="8"
     inkscape:cx="10.597641"
     inkscape:cy="35.370235"
     inkscape:document-units="px"
     inkscape:current-layer="g4190"
     showgrid="false"
     inkscape:window-width="1366"
     inkscape:window-height="671"
     inkscape:window-x="0"
     inkscape:window-y="24"
     inkscape:window-maximized="1"
     showguides="false" />
  <metadata
     id="metadata7">
    <rdf:RDF>
      <cc:Work
         rdf:about="">
        <dc:format>image/svg+xml</dc:format>
        <dc:type
           rdf:resource="http://purl.org/dc/dcmitype/StillImage" />
        <dc:title />
      </cc:Work>
    </rdf:RDF>
  </metadata>
  <g
     inkscape:label="Capa 1"
     inkscape:groupmode="layer"
     id="layer1"
     transform="translate(0,-1004.3622)">
    <rect
       style="fill:url(#linearGradient864);fill-opacity:1;stroke:none"
       id="rect2991-1"
       width="48"
       height="48"
       x="0"
       y="-1052.3622"
       ry="1.9445436"
       transform="scale(1,-1)" />
    <path
       sodipodi:nodetypes="ssccccsss"
       inkscape:connector-curvature="0"
       id="path4113"
       d="m 24.002337,1014.1623 c -9.933148,0 -17.9873682,6.5407 -17.9873682,14.6083 0,3.9727 1.9610609,7.57 5.1292302,10.2034 l -1.8213149,5.4408 c -0.145743,0.2525 0.09099,0.6485 0.556407,0.5237 l 7.2871899,-2.6632 c 2.108855,0.705 4.413925,1.1037 6.835856,1.1037 9.933149,0 17.982694,-6.5408 17.982694,-14.6084 C 41.985031,1020.703 33.935486,1014.1623 24.002337,1014.1623 Z"
       style="fill:#000000;fill-opacity:0.05882353;stroke:none" />
    <path
       style="fill:#000000;fill-opacity:0.11764706;stroke:none"
       d="m 24.002337,1013.3623 c -9.933148,0 -17.9873682,6.5407 -17.9873682,14.6083 0,3.9727 1.9610609,7.57 5.1292302,10.2034 l -1.8213149,5.4408 c -0.145743,0.2525 0.09099,0.6485 0.556407,0.5237 l 7.2871899,-2.6632 c 2.108855,0.705 4.413925,1.1037 6.835856,1.1037 9.933149,0 17.982694,-6.5408 17.982694,-14.6084 C 41.985031,1019.903 33.935486,1013.3623 24.002337,1013.3623 Z"
       id="path4111"
       inkscape:connector-curvature="0"
       sodipodi:nodetypes="ssccccsss" />
    <path
       sodipodi:nodetypes="ssccccsss"
       inkscape:connector-curvature="0"
       id="path4107"
       d="m 24.002337,1013.7623 c -9.933148,0 -17.9873682,6.5407 -17.9873682,14.6083 0,3.9727 1.9610609,7.57 5.1292302,10.2034 l -1.8213149,5.4408 c -0.145743,0.2525 0.09099,0.6485 0.556407,0.5237 l 7.2871899,-2.6632 c 2.108855,0.705 4.413925,1.1037 6.835856,1.1037 9.933149,0 17.982694,-6.5408 17.982694,-14.6084 C 41.985031,1020.303 33.935486,1013.7623 24.002337,1013.7623 Z"
       style="fill:#000000;fill-opacity:0.23529412;stroke:none" />
    <path
       inkscape:connector-curvature="0"
       style="fill:#000000;fill-opacity:1;stroke:none"
       d="m 0,1049.3622 0,1.0625 c 0,1.0773 0.860222,1.9375 1.937499,1.9375 l 44.125001,0 c 1.077277,0 1.9375,-0.8602 1.9375,-1.9375 l 0,-1.0625 c 0,1.0773 -0.860223,1.9375 -1.9375,1.9375 l -44.125001,0 C 0.860222,1051.2997 0,1050.4395 0,1049.3622 Z"
       id="rect846" />
    <path
       inkscape:connector-curvature="0"
       style="fill:#ffffff;fill-opacity:0.5372549;stroke:none"
       d="m 2.531249,1005.0185 c -0.917088,0 -1.671146,0.6395 -1.843749,1.5 0.335612,-0.2799 0.774512,-0.4375 1.249999,-0.4375 l 44.125001,0 c 0.475488,0 0.914388,0.1576 1.25,0.4375 -0.172603,-0.8605 -0.926662,-1.5 -1.84375,-1.5 L 2.531249,1005.0185 Z"
       id="path7515" />
    <path
       inkscape:connector-curvature="0"
       style="fill:#000000;fill-opacity:0.39215686;stroke:none"
       d="M 1.937499,1004.3622 C 0.860223,1004.3622 0,1005.2224 0,1006.2997 l 0,43.0625 c 0,0.7934 0.480023,1.449 1.156249,1.75 -0.309341,-0.3333 -0.499999,-0.7824 -0.499999,-1.2812 l 0,-42.9375 c 0,-1.0482 0.826898,-1.875 1.874999,-1.875 l 42.937501,0 c 1.048101,0 1.875,0.8268 1.875,1.875 l 0,42.9375 c 0,0.4988 -0.190658,0.9479 -0.5,1.2812 0.676226,-0.301 1.15625,-0.9566 1.15625,-1.75 l 0,-43.0625 c 0,-1.0773 -0.860223,-1.9375 -1.9375,-1.9375 L 1.937499,1004.3622 Z"
       id="rect4280-1" />
    <g
       id="g4190"
       transform="translate(9.9999994e-8,3.6215946e-5)">
      <path
         sodipodi:nodetypes="ssccccsss"
         inkscape:connector-curvature="0"
         id="path4064"
         d="m 24.002337,1012.9622 c -9.933148,0 -17.9873682,6.5407 -17.9873682,14.6083 0,3.9727 1.9610609,7.57 5.1292302,10.2034 l -1.8213147,5.4408 c -0.145743,0.2525 0.09099,0.6485 0.556407,0.5237 l 7.2871897,-2.6632 c 2.108855,0.705 4.413925,1.1037 6.835856,1.1037 9.93315,0 17.982694,-6.5408 17.982694,-14.6084 C 41.985031,1019.5029 33.935487,1012.9622 24.002337,1012.9622 Z"
         style="fill:url(#linearGradient4085);fill-opacity:1;stroke:none" />
      <path
         sodipodi:nodetypes="ssccccsss"
         inkscape:connector-curvature="0"
         id="path4071"
         d="m 24.110667,1013.4022 c -9.611575,0 -17.5135151,6.4503 -17.5135151,14.1359 0,3.946 1.9602464,7.3903 5.2772721,10.2493 l -1.650264,4.5473 c -0.145749,0.2527 0.08632,0.6485 0.551749,0.5239 l 6.135339,-2.4443 c 1.900527,0.8361 4.667956,1.2588 7.089427,1.2588 9.611572,0 17.403521,-6.4495 17.403521,-14.135 C 41.404196,1019.8525 33.722238,1013.4022 24.110667,1013.4022 Z"
         style="fill:url(#linearGradient4077);fill-opacity:1;stroke:none" />
      <path
         inkscape:connector-curvature="0"
         id="path4097"
         d="m 24.11143,1013.4022 c -9.611574,0 -17.5140918,6.4489 -17.5140918,14.1345 0,0.076 0.011454,0.1482 0.012891,0.2234 0.1484455,-7.5886 7.9811168,-13.9175 17.5012008,-13.9175 9.517365,0 17.131348,6.3253 17.279914,13.9112 0.0014,-0.073 0.01289,-0.144 0.01289,-0.2171 C 41.404233,1019.8511 33.723001,1013.4022 24.11143,1013.4022 z m -12.357834,24.7135 -1.52969,4.2195 c -0.06494,0.1126 -0.04436,0.2481 0.02793,0.3588 l 1.622073,-4.4666 C 11.831701,1038.191 11.795365,1038.1522 11.753596,1038.1157 Z"
         style="fill:#ffffff;fill-opacity:0.23529412;stroke:none" />
      <path
         inkscape:connector-curvature="0"
         id="path4102"
         d="m 41.376304,1027.0924 c -0.288995,7.4912 -7.948058,13.7007 -17.376592,13.7007 -2.421472,0 -5.187181,-0.423 -7.087707,-1.259 l -6.135949,2.4449 c -0.17337,0.046 -0.300613,0.01 -0.401759,-0.056 l -0.150391,0.4125 c -0.145749,0.2527 0.08672,0.6467 0.55215,0.5221 l 6.135949,-2.4428 c 1.900526,0.836 4.666235,1.259 7.087707,1.259 9.611571,0 17.404521,-6.4512 17.404521,-14.1367 C 41.404233,1027.3872 41.382112,1027.2415 41.376304,1027.0924 z m -34.751036,0.011 c -0.00569,0.1454 -0.02793,0.2876 -0.02793,0.434 0,3.8461 1.8724473,7.2113 5.038094,10.0268 l 0.238477,-0.6575 C 8.6834813,1034.1566 6.7683403,1030.8617 6.625268,1027.1032 Z"
         style="fill:#5daac6;fill-opacity:0.31372549;stroke:none" />
      <g
         style="font-size:12.51424217px;font-style:normal;font-variant:normal;font-weight:normal;font-stretch:normal;text-align:start;line-height:125%;letter-spacing:0px;word-spacing:0px;writing-mode:lr-tb;text-anchor:start;fill:#ffffff;fill-opacity:0.23529412;stroke:none;font-family:BlackJack;-inkscape-font-specification:BlackJack"
         id="text4127">
        <path
           d="m 17.33698,1029.5079 q -0.300342,0.1627 -0.650741,0.4755 -0.350398,0.3004 -0.663254,0.6758 -0.300342,0.3629 -0.50057,0.7633 -0.200228,0.4005 -0.200228,0.7634 0,0.1001 0.07508,0.1752 0.0876,0.075 0.187714,0.075 0.125143,0 0.225256,-0.063 0.112629,-0.062 0.200228,-0.1501 0.137657,-0.1377 0.350399,-0.5006 0.212742,-0.3754 0.425484,-0.8009 0.212742,-0.4255 0.362913,-0.826 0.162686,-0.4004 0.187714,-0.5881 z m 6.957919,-1.2515 q -0.325371,0 -0.638227,-0.1251 -0.312856,-0.1377 -0.663255,-0.1377 -0.23777,0 -0.475541,0.025 -0.225256,0.012 -0.463027,0.037 -0.150171,0.3004 -0.262799,0.6883 -0.112628,0.3754 -0.200228,0.7759 -0.07509,0.3879 -0.125142,0.7884 -0.03754,0.3879 -0.03754,0.7258 0,0.1877 0.03754,0.3504 0.05006,0.1627 0.100114,0.3003 0.06257,0.1252 0.100114,0.2128 0.05006,0.088 0.05006,0.1251 0,0.1001 -0.100114,0.1627 -0.0876,0.075 -0.1752,0.075 -0.137656,0 -0.262799,-0.1126 -0.125142,-0.1127 -0.187713,-0.2253 -0.150171,-0.2503 -0.200228,-0.5882 -0.03754,-0.3378 -0.03754,-0.6257 0,-0.6382 0.125143,-1.2764 0.125142,-0.6508 0.337884,-1.2514 -0.713312,0.1376 -1.414109,0.3629 -0.688284,0.2127 -1.364053,0.5131 -0.0876,0.2878 -0.225256,0.7258 -0.125142,0.4255 -0.300342,0.901 -0.175199,0.4755 -0.400456,0.9511 -0.225256,0.463 -0.500569,0.8384 -0.262799,0.3755 -0.600684,0.6007 -0.32537,0.2378 -0.700797,0.2378 -0.538113,0 -0.813426,-0.3254 -0.262799,-0.3128 -0.262799,-0.8259 0,-0.4255 0.175199,-0.826 0.175199,-0.4129 0.450513,-0.7758 0.287827,-0.3755 0.625712,-0.6883 0.337884,-0.3254 0.65074,-0.5632 0.212743,-0.1626 0.450513,-0.3003 0.237771,-0.1377 0.450513,-0.3003 0.02503,-0.025 0.07509,-0.2628 0.05006,-0.2503 0.100114,-0.6258 0.06257,-0.3754 0.125143,-0.8134 0.07509,-0.438 0.125142,-0.8384 0.05006,-0.4005 0.07509,-0.7008 0.03754,-0.3004 0.03754,-0.388 0,-0.1877 -0.03754,-0.4505 -0.02503,-0.2753 -0.112629,-0.5256 -0.07509,-0.2503 -0.23777,-0.4255 -0.150171,-0.1877 -0.400456,-0.1877 -0.112628,0 -0.212742,0.05 -0.0876,0.038 -0.200228,0.038 -0.07508,0 -0.175199,-0.063 -0.0876,-0.075 -0.0876,-0.1626 0,-0.1127 0.162685,-0.2003 0.162685,-0.088 0.362913,-0.1501 0.212742,-0.075 0.41297,-0.1127 0.212742,-0.038 0.300342,-0.038 0.41297,0 0.675769,0.2002 0.262799,0.2002 0.41297,0.5006 0.150171,0.3003 0.200228,0.6632 0.06257,0.363 0.06257,0.6883 0,0.8635 -0.150171,1.7145 -0.150171,0.8509 -0.362913,1.6769 0.700798,-0.2253 1.401595,-0.413 0.700798,-0.2002 1.426624,-0.2753 0.437998,-1.1513 1.001139,-2.24 0.575655,-1.0888 1.288967,-2.1024 0.06257,-0.1002 0.1752,-0.2503 0.125142,-0.1627 0.250284,-0.3129 0.137657,-0.1627 0.275314,-0.2753 0.150171,-0.1126 0.275313,-0.1126 0.162685,0 0.162685,0.1376 0,0.1252 -0.06257,0.2503 -0.06257,0.1126 -0.162685,0.2253 -0.0876,0.1126 -0.187714,0.2127 -0.100114,0.1001 -0.162685,0.2002 -0.312856,0.4506 -0.613198,0.9636 -0.287827,0.5131 -0.550626,1.0512 -0.262799,0.5382 -0.488056,1.0888 -0.225256,0.5506 -0.400456,1.0637 0.312856,-0.025 0.613198,-0.025 0.300342,0 0.613198,0 0.187714,0 0.375427,0.012 0.187714,0 0.375428,0.05 0.175199,0.038 0.300342,0.1127 0.125142,0.062 0.125142,0.2753 0,0.1376 -0.100114,0.2377 -0.0876,0.088 -0.225256,0.088 z"
           style="fill:#ffffff"
           id="path4108" />
        <path
           d="m 29.062043,1024.8025 q 0,-0.3379 -0.03754,-0.7008 -0.02503,-0.3629 -0.150171,-0.6632 -0.125142,-0.3129 -0.375427,-0.5131 -0.250285,-0.2002 -0.688284,-0.2002 -0.425484,0 -0.875997,0.2502 -0.450512,0.2503 -0.850968,0.6257 -0.387942,0.3755 -0.713312,0.8135 -0.312856,0.4255 -0.475541,0.7884 -0.200228,0.438 -0.337885,0.901 -0.125142,0.463 -0.125142,0.9386 0,0.1251 0.01251,0.3253 0.01252,0.1877 0.06257,0.3755 0.05006,0.1752 0.150171,0.3128 0.100114,0.1252 0.275314,0.1252 0.250285,0 0.250285,-0.2754 0,-0.1001 -0.03754,-0.1877 -0.03754,-0.088 -0.0876,-0.1877 -0.03754,-0.1001 -0.07509,-0.2252 -0.03754,-0.1377 -0.03754,-0.3254 0,-0.4005 0.112628,-0.8635 0.112628,-0.463 0.287828,-0.8134 0.112628,-0.2128 0.337884,-0.5131 0.237771,-0.3003 0.513084,-0.5757 0.287828,-0.2753 0.58817,-0.463 0.300341,-0.2002 0.56314,-0.2002 0.1752,0 0.275314,0.1126 0.112628,0.1126 0.162685,0.2753 0.06257,0.1502 0.07509,0.3254 0.02503,0.1752 0.02503,0.3003 0,0.388 -0.0876,1.1013 -0.07508,0.7133 -0.23777,1.5643 -0.150171,0.8384 -0.400456,1.7144 -0.237771,0.876 -0.563141,1.6019 -0.32537,0.7133 -0.750855,1.1763 -0.41297,0.4505 -0.913539,0.4505 -0.212742,0 -0.350399,-0.05 -0.137657,-0.062 -0.237771,-0.1376 -0.0876,-0.075 -0.162685,-0.1252 -0.07509,-0.062 -0.175199,-0.062 -0.06257,0 -0.137657,0.05 -0.07509,0.05 -0.07509,0.1252 0,0.1752 0.125142,0.3003 0.125143,0.1252 0.300342,0.2128 0.187714,0.088 0.375427,0.1251 0.200228,0.037 0.337885,0.037 0.763368,0 1.364052,-0.4254 0.613198,-0.413 1.063711,-1.0888 0.463027,-0.6883 0.788397,-1.5392 0.32537,-0.8635 0.525598,-1.727 0.200228,-0.876 0.287828,-1.6769 0.100114,-0.8134 0.100114,-1.3891 z"
           style="fill:#ffffff"
           id="path4110" />
        <path
           d="m 32.429351,1022.4373 q -0.187713,0 -0.32537,0.075 -0.125142,0.075 -0.212742,0.2002 -0.07509,0.1127 -0.125143,0.2753 -0.03754,0.1502 -0.07509,0.3129 -0.07508,0.3629 -0.112628,0.8385 -0.02503,0.4755 -0.05006,0.8509 -0.06257,0.7133 -0.100114,1.4141 -0.03754,0.6883 -0.0876,1.4016 -0.02503,0.3254 -0.05006,0.6508 -0.01251,0.3128 -0.03754,0.6382 0,0.05 -0.01252,0.088 0,0.038 0,0.088 0,0.088 0.02503,0.2378 0.02503,0.1376 0.162685,0.1376 0.212742,0 0.275313,-0.1376 0.07509,-0.1502 0.100114,-0.3254 0.100114,-0.4881 0.200228,-0.9761 0.100114,-0.4881 0.200228,-0.9761 0.175199,-0.8385 0.350399,-1.6644 0.187713,-0.826 0.375427,-1.6644 0.03754,-0.1877 0.07509,-0.3754 0.03754,-0.1878 0.03754,-0.388 0,-0.3379 -0.125142,-0.5131 -0.125143,-0.1877 -0.488056,-0.1877 z m -1.176338,9.7236 q 0.300341,0 0.375427,-0.1877 0.0876,-0.2003 0.0876,-0.4505 0,-0.2128 -0.1752,-0.3504 -0.162685,-0.1502 -0.362913,-0.1502 -0.250285,0 -0.350399,0.2127 -0.0876,0.2128 -0.0876,0.4255 0,0.2253 0.150171,0.3629 0.15017,0.1377 0.362913,0.1377 z"
           style="fill:#ffffff"
           id="path4112" />
      </g>
      <g
         style="font-size:12.51424217px;font-style:normal;font-variant:normal;font-weight:normal;font-stretch:normal;text-align:start;line-height:125%;letter-spacing:0px;word-spacing:0px;writing-mode:lr-tb;text-anchor:start;fill:#000000;fill-opacity:0.23529412;stroke:none;font-family:BlackJack;-inkscape-font-specification:BlackJack"
         id="text4133">
        <path
           d="m 17.33698,1028.5179 q -0.300342,0.1627 -0.650741,0.4755 -0.350398,0.3004 -0.663254,0.6758 -0.300342,0.3629 -0.50057,0.7634 -0.200228,0.4004 -0.200228,0.7633 0,0.1001 0.07508,0.1752 0.0876,0.075 0.187714,0.075 0.125143,0 0.225256,-0.063 0.112629,-0.062 0.200228,-0.1501 0.137657,-0.1377 0.350399,-0.5006 0.212742,-0.3754 0.425484,-0.8009 0.212742,-0.4255 0.362913,-0.826 0.162686,-0.4004 0.187714,-0.5881 z m 6.957919,-1.2514 q -0.325371,0 -0.638227,-0.1252 -0.312856,-0.1376 -0.663255,-0.1376 -0.23777,0 -0.475541,0.025 -0.225256,0.012 -0.463027,0.037 -0.150171,0.3004 -0.262799,0.6883 -0.112628,0.3754 -0.200228,0.7759 -0.07509,0.3879 -0.125142,0.7884 -0.03754,0.3879 -0.03754,0.7258 0,0.1877 0.03754,0.3504 0.05006,0.1627 0.100114,0.3004 0.06257,0.1251 0.100114,0.2127 0.05006,0.088 0.05006,0.1251 0,0.1002 -0.100114,0.1627 -0.0876,0.075 -0.1752,0.075 -0.137656,0 -0.262799,-0.1126 -0.125142,-0.1126 -0.187713,-0.2253 -0.150171,-0.2503 -0.200228,-0.5881 -0.03754,-0.3379 -0.03754,-0.6258 0,-0.6382 0.125143,-1.2764 0.125142,-0.6507 0.337884,-1.2514 -0.713312,0.1376 -1.414109,0.3629 -0.688284,0.2127 -1.364053,0.5131 -0.0876,0.2878 -0.225256,0.7258 -0.125142,0.4255 -0.300342,0.901 -0.175199,0.4756 -0.400456,0.9511 -0.225256,0.463 -0.500569,0.8385 -0.262799,0.3754 -0.600684,0.6006 -0.32537,0.2378 -0.700797,0.2378 -0.538113,0 -0.813426,-0.3254 -0.262799,-0.3128 -0.262799,-0.8259 0,-0.4255 0.175199,-0.8259 0.175199,-0.413 0.450513,-0.7759 0.287827,-0.3755 0.625712,-0.6883 0.337884,-0.3254 0.65074,-0.5631 0.212743,-0.1627 0.450513,-0.3004 0.237771,-0.1376 0.450513,-0.3003 0.02503,-0.025 0.07509,-0.2628 0.05006,-0.2503 0.100114,-0.6257 0.06257,-0.3755 0.125143,-0.8135 0.07509,-0.438 0.125142,-0.8384 0.05006,-0.4005 0.07509,-0.7008 0.03754,-0.3004 0.03754,-0.388 0,-0.1877 -0.03754,-0.4505 -0.02503,-0.2753 -0.112629,-0.5256 -0.07509,-0.2503 -0.23777,-0.4255 -0.150171,-0.1877 -0.400456,-0.1877 -0.112628,0 -0.212742,0.05 -0.0876,0.038 -0.200228,0.038 -0.07508,0 -0.175199,-0.062 -0.0876,-0.075 -0.0876,-0.1627 0,-0.1127 0.162685,-0.2003 0.162685,-0.088 0.362913,-0.1501 0.212742,-0.075 0.41297,-0.1127 0.212742,-0.037 0.300342,-0.037 0.41297,0 0.675769,0.2002 0.262799,0.2003 0.41297,0.5006 0.150171,0.3003 0.200228,0.6633 0.06257,0.3629 0.06257,0.6882 0,0.8635 -0.150171,1.7145 -0.150171,0.851 -0.362913,1.6769 0.700798,-0.2253 1.401595,-0.413 0.700798,-0.2002 1.426624,-0.2753 0.437998,-1.1513 1.001139,-2.24 0.575655,-1.0888 1.288967,-2.1024 0.06257,-0.1001 0.1752,-0.2503 0.125142,-0.1627 0.250284,-0.3129 0.137657,-0.1627 0.275314,-0.2753 0.150171,-0.1126 0.275313,-0.1126 0.162685,0 0.162685,0.1376 0,0.1252 -0.06257,0.2503 -0.06257,0.1127 -0.162685,0.2253 -0.0876,0.1126 -0.187714,0.2127 -0.100114,0.1001 -0.162685,0.2003 -0.312856,0.4505 -0.613198,0.9636 -0.287827,0.513 -0.550626,1.0512 -0.262799,0.5381 -0.488056,1.0887 -0.225256,0.5506 -0.400456,1.0637 0.312856,-0.025 0.613198,-0.025 0.300342,0 0.613198,0 0.187714,0 0.375427,0.012 0.187714,0 0.375428,0.05 0.175199,0.038 0.300342,0.1127 0.125142,0.062 0.125142,0.2753 0,0.1376 -0.100114,0.2378 -0.0876,0.088 -0.225256,0.088 z"
           style="fill:#000000"
           id="path4101" />
        <path
           d="m 29.062043,1023.8125 q 0,-0.3379 -0.03754,-0.7008 -0.02503,-0.3629 -0.150171,-0.6632 -0.125142,-0.3129 -0.375427,-0.5131 -0.250285,-0.2002 -0.688284,-0.2002 -0.425484,0 -0.875997,0.2502 -0.450512,0.2503 -0.850968,0.6258 -0.387942,0.3754 -0.713312,0.8134 -0.312856,0.4255 -0.475541,0.7884 -0.200228,0.438 -0.337885,0.901 -0.125142,0.463 -0.125142,0.9386 0,0.1251 0.01251,0.3253 0.01252,0.1878 0.06257,0.3755 0.05006,0.1752 0.150171,0.3128 0.100114,0.1252 0.275314,0.1252 0.250285,0 0.250285,-0.2753 0,-0.1002 -0.03754,-0.1878 -0.03754,-0.088 -0.0876,-0.1877 -0.03754,-0.1001 -0.07509,-0.2252 -0.03754,-0.1377 -0.03754,-0.3254 0,-0.4005 0.112628,-0.8635 0.112628,-0.463 0.287828,-0.8134 0.112628,-0.2127 0.337884,-0.5131 0.237771,-0.3003 0.513084,-0.5756 0.287828,-0.2754 0.58817,-0.4631 0.300341,-0.2002 0.56314,-0.2002 0.1752,0 0.275314,0.1126 0.112628,0.1127 0.162685,0.2753 0.06257,0.1502 0.07509,0.3254 0.02503,0.1752 0.02503,0.3004 0,0.3879 -0.0876,1.1012 -0.07508,0.7133 -0.23777,1.5643 -0.150171,0.8384 -0.400456,1.7144 -0.237771,0.876 -0.563141,1.6019 -0.32537,0.7133 -0.750855,1.1763 -0.41297,0.4505 -0.913539,0.4505 -0.212742,0 -0.350399,-0.05 -0.137657,-0.063 -0.237771,-0.1377 -0.0876,-0.075 -0.162685,-0.1251 -0.07509,-0.063 -0.175199,-0.063 -0.06257,0 -0.137657,0.05 -0.07509,0.05 -0.07509,0.1252 0,0.1752 0.125142,0.3003 0.125143,0.1252 0.300342,0.2128 0.187714,0.088 0.375427,0.1251 0.200228,0.038 0.337885,0.038 0.763368,0 1.364052,-0.4255 0.613198,-0.413 1.063711,-1.0888 0.463027,-0.6883 0.788397,-1.5392 0.32537,-0.8635 0.525598,-1.727 0.200228,-0.876 0.287828,-1.6769 0.100114,-0.8134 0.100114,-1.3891 z"
           style="fill:#000000"
           id="path4103" />
        <path
           d="m 32.429351,1021.4473 q -0.187713,0 -0.32537,0.075 -0.125142,0.075 -0.212742,0.2002 -0.07509,0.1127 -0.125143,0.2754 -0.03754,0.1501 -0.07509,0.3128 -0.07508,0.3629 -0.112628,0.8385 -0.02503,0.4755 -0.05006,0.8509 -0.06257,0.7133 -0.100114,1.4141 -0.03754,0.6883 -0.0876,1.4016 -0.02503,0.3254 -0.05006,0.6508 -0.01251,0.3128 -0.03754,0.6382 0,0.05 -0.01252,0.088 0,0.038 0,0.088 0,0.088 0.02503,0.2378 0.02503,0.1376 0.162685,0.1376 0.212742,0 0.275313,-0.1376 0.07509,-0.1502 0.100114,-0.3254 0.100114,-0.488 0.200228,-0.9761 0.100114,-0.4881 0.200228,-0.9761 0.175199,-0.8385 0.350399,-1.6644 0.187713,-0.8259 0.375427,-1.6644 0.03754,-0.1877 0.07509,-0.3754 0.03754,-0.1877 0.03754,-0.388 0,-0.3379 -0.125142,-0.5131 -0.125143,-0.1877 -0.488056,-0.1877 z m -1.176338,9.7236 q 0.300341,0 0.375427,-0.1877 0.0876,-0.2002 0.0876,-0.4505 0,-0.2128 -0.1752,-0.3504 -0.162685,-0.1502 -0.362913,-0.1502 -0.250285,0 -0.350399,0.2127 -0.0876,0.2128 -0.0876,0.4255 0,0.2253 0.150171,0.3629 0.15017,0.1377 0.362913,0.1377 z"
           style="fill:#000000"
           id="path4105" />
      </g>
      <g
         style="font-size:12.51424217px;font-style:normal;font-variant:normal;font-weight:normal;font-stretch:normal;text-align:start;line-height:125%;letter-spacing:0px;word-spacing:0px;writing-mode:lr-tb;text-anchor:start;fill:url(#linearGradient4119);fill-opacity:1;stroke:none;font-family:BlackJack;-inkscape-font-specification:BlackJack"
         id="text4115">
        <path
           d="m 17.33698,1029.0682 q -0.300342,0.1627 -0.650741,0.4755 -0.350398,0.3004 -0.663254,0.6758 -0.300342,0.3629 -0.50057,0.7634 -0.200228,0.4004 -0.200228,0.7633 0,0.1001 0.07508,0.1752 0.0876,0.075 0.187714,0.075 0.125143,0 0.225256,-0.063 0.112629,-0.062 0.200228,-0.1501 0.137657,-0.1377 0.350399,-0.5006 0.212742,-0.3754 0.425484,-0.8009 0.212742,-0.4255 0.362913,-0.826 0.162686,-0.4004 0.187714,-0.5881 z m 6.957919,-1.2515 q -0.325371,0 -0.638227,-0.1251 -0.312856,-0.1377 -0.663255,-0.1377 -0.23777,0 -0.475541,0.025 -0.225256,0.013 -0.463027,0.038 -0.150171,0.3004 -0.262799,0.6883 -0.112628,0.3754 -0.200228,0.7759 -0.07509,0.3879 -0.125142,0.7884 -0.03754,0.3879 -0.03754,0.7258 0,0.1877 0.03754,0.3504 0.05006,0.1627 0.100114,0.3004 0.06257,0.1251 0.100114,0.2127 0.05006,0.088 0.05006,0.1251 0,0.1001 -0.100114,0.1627 -0.0876,0.075 -0.1752,0.075 -0.137656,0 -0.262799,-0.1126 -0.125142,-0.1127 -0.187713,-0.2253 -0.150171,-0.2503 -0.200228,-0.5881 -0.03754,-0.3379 -0.03754,-0.6258 0,-0.6382 0.125143,-1.2764 0.125142,-0.6508 0.337884,-1.2514 -0.713312,0.1376 -1.414109,0.3629 -0.688284,0.2127 -1.364053,0.5131 -0.0876,0.2878 -0.225256,0.7258 -0.125142,0.4255 -0.300342,0.901 -0.175199,0.4756 -0.400456,0.9511 -0.225256,0.463 -0.500569,0.8384 -0.262799,0.3755 -0.600684,0.6007 -0.32537,0.2378 -0.700797,0.2378 -0.538113,0 -0.813426,-0.3254 -0.262799,-0.3128 -0.262799,-0.8259 0,-0.4255 0.175199,-0.8259 0.175199,-0.413 0.450513,-0.7759 0.287827,-0.3755 0.625712,-0.6883 0.337884,-0.3254 0.65074,-0.5632 0.212743,-0.1626 0.450513,-0.3003 0.237771,-0.1377 0.450513,-0.3003 0.02503,-0.025 0.07509,-0.2628 0.05006,-0.2503 0.100114,-0.6258 0.06257,-0.3754 0.125143,-0.8134 0.07509,-0.438 0.125142,-0.8384 0.05006,-0.4005 0.07509,-0.7008 0.03754,-0.3004 0.03754,-0.388 0,-0.1877 -0.03754,-0.4505 -0.02503,-0.2753 -0.112629,-0.5256 -0.07509,-0.2503 -0.23777,-0.4255 -0.150171,-0.1877 -0.400456,-0.1877 -0.112628,0 -0.212742,0.05 -0.0876,0.038 -0.200228,0.038 -0.07508,0 -0.175199,-0.062 -0.0876,-0.075 -0.0876,-0.1627 0,-0.1127 0.162685,-0.2003 0.162685,-0.088 0.362913,-0.1501 0.212742,-0.075 0.41297,-0.1127 0.212742,-0.037 0.300342,-0.037 0.41297,0 0.675769,0.2002 0.262799,0.2003 0.41297,0.5006 0.150171,0.3003 0.200228,0.6632 0.06257,0.363 0.06257,0.6883 0,0.8635 -0.150171,1.7145 -0.150171,0.851 -0.362913,1.6769 0.700798,-0.2253 1.401595,-0.413 0.700798,-0.2002 1.426624,-0.2753 0.437998,-1.1513 1.001139,-2.24 0.575655,-1.0888 1.288967,-2.1024 0.06257,-0.1001 0.1752,-0.2503 0.125142,-0.1627 0.250284,-0.3129 0.137657,-0.1627 0.275314,-0.2753 0.150171,-0.1126 0.275313,-0.1126 0.162685,0 0.162685,0.1376 0,0.1252 -0.06257,0.2503 -0.06257,0.1127 -0.162685,0.2253 -0.0876,0.1126 -0.187714,0.2127 -0.100114,0.1001 -0.162685,0.2003 -0.312856,0.4505 -0.613198,0.9635 -0.287827,0.5131 -0.550626,1.0512 -0.262799,0.5382 -0.488056,1.0888 -0.225256,0.5506 -0.400456,1.0637 0.312856,-0.025 0.613198,-0.025 0.300342,0 0.613198,0 0.187714,0 0.375427,0.013 0.187714,0 0.375428,0.05 0.175199,0.038 0.300342,0.1127 0.125142,0.062 0.125142,0.2753 0,0.1376 -0.100114,0.2377 -0.0876,0.088 -0.225256,0.088 z"
           style=""
           id="path4094" />
        <path
           d="m 29.062043,1024.3628 q 0,-0.3379 -0.03754,-0.7008 -0.02503,-0.3629 -0.150171,-0.6632 -0.125142,-0.3129 -0.375427,-0.5131 -0.250285,-0.2002 -0.688284,-0.2002 -0.425484,0 -0.875997,0.2502 -0.450512,0.2503 -0.850968,0.6257 -0.387942,0.3755 -0.713312,0.8135 -0.312856,0.4255 -0.475541,0.7884 -0.200228,0.438 -0.337885,0.901 -0.125142,0.463 -0.125142,0.9386 0,0.1251 0.01251,0.3253 0.01252,0.1878 0.06257,0.3755 0.05006,0.1752 0.150171,0.3128 0.100114,0.1252 0.275314,0.1252 0.250285,0 0.250285,-0.2754 0,-0.1001 -0.03754,-0.1877 -0.03754,-0.088 -0.0876,-0.1877 -0.03754,-0.1001 -0.07509,-0.2252 -0.03754,-0.1377 -0.03754,-0.3254 0,-0.4005 0.112628,-0.8635 0.112628,-0.463 0.287828,-0.8134 0.112628,-0.2128 0.337884,-0.5131 0.237771,-0.3003 0.513084,-0.5757 0.287828,-0.2753 0.58817,-0.463 0.300341,-0.2002 0.56314,-0.2002 0.1752,0 0.275314,0.1126 0.112628,0.1126 0.162685,0.2753 0.06257,0.1502 0.07509,0.3254 0.02503,0.1752 0.02503,0.3003 0,0.388 -0.0876,1.1013 -0.07508,0.7133 -0.23777,1.5643 -0.150171,0.8384 -0.400456,1.7144 -0.237771,0.876 -0.563141,1.6019 -0.32537,0.7133 -0.750855,1.1763 -0.41297,0.4505 -0.913539,0.4505 -0.212742,0 -0.350399,-0.05 -0.137657,-0.062 -0.237771,-0.1376 -0.0876,-0.075 -0.162685,-0.1252 -0.07509,-0.062 -0.175199,-0.062 -0.06257,0 -0.137657,0.05 -0.07509,0.05 -0.07509,0.1252 0,0.1752 0.125142,0.3003 0.125143,0.1252 0.300342,0.2128 0.187714,0.088 0.375427,0.1251 0.200228,0.037 0.337885,0.037 0.763368,0 1.364052,-0.4254 0.613198,-0.413 1.063711,-1.0888 0.463027,-0.6883 0.788397,-1.5392 0.32537,-0.8635 0.525598,-1.727 0.200228,-0.876 0.287828,-1.6769 0.100114,-0.8134 0.100114,-1.3891 z"
           style=""
           id="path4096" />
        <path
           d="m 32.429351,1021.9976 q -0.187713,0 -0.32537,0.075 -0.125142,0.075 -0.212742,0.2002 -0.07509,0.1127 -0.125143,0.2754 -0.03754,0.1501 -0.07509,0.3128 -0.07508,0.3629 -0.112628,0.8385 -0.02503,0.4755 -0.05006,0.8509 -0.06257,0.7133 -0.100114,1.4141 -0.03754,0.6883 -0.0876,1.4016 -0.02503,0.3254 -0.05006,0.6508 -0.01251,0.3128 -0.03754,0.6382 0,0.05 -0.01252,0.088 0,0.037 0,0.088 0,0.088 0.02503,0.2378 0.02503,0.1376 0.162685,0.1376 0.212742,0 0.275313,-0.1376 0.07509,-0.1502 0.100114,-0.3254 0.100114,-0.4881 0.200228,-0.9761 0.100114,-0.4881 0.200228,-0.9761 0.175199,-0.8385 0.350399,-1.6644 0.187713,-0.826 0.375427,-1.6644 0.03754,-0.1877 0.07509,-0.3754 0.03754,-0.1877 0.03754,-0.388 0,-0.3379 -0.125142,-0.5131 -0.125143,-0.1877 -0.488056,-0.1877 z m -1.176338,9.7236 q 0.300341,0 0.375427,-0.1877 0.0876,-0.2003 0.0876,-0.4505 0,-0.2128 -0.1752,-0.3504 -0.162685,-0.1502 -0.362913,-0.1502 -0.250285,0 -0.350399,0.2127 -0.0876,0.2128 -0.0876,0.4255 0,0.2253 0.150171,0.3629 0.15017,0.1377 0.362913,0.1377 z"
           style=""
           id="path4098" />
      </g>
    </g>
  </g>
</svg>
