<?xml version="1.0" encoding="UTF-8" standalone="no"?>
<svg
   xmlns:dc="http://purl.org/dc/elements/1.1/"
   xmlns:cc="http://creativecommons.org/ns#"
   xmlns:rdf="http://www.w3.org/1999/02/22-rdf-syntax-ns#"
   xmlns:svg="http://www.w3.org/2000/svg"
   xmlns="http://www.w3.org/2000/svg"
   xmlns:xlink="http://www.w3.org/1999/xlink"
   xmlns:sodipodi="http://sodipodi.sourceforge.net/DTD/sodipodi-0.dtd"
   xmlns:inkscape="http://www.inkscape.org/namespaces/inkscape"
   width="48"
   viewBox="0 0 13.546667 13.546667"
   height="48"
   id="svg2"
   version="1.1"
   inkscape:version="0.48+devel r"
   sodipodi:docname="web-soundcloud.svg">
  <metadata
     id="metadata20">
    <rdf:RDF>
      <cc:Work
         rdf:about="">
        <dc:format>image/svg+xml</dc:format>
        <dc:type
           rdf:resource="http://purl.org/dc/dcmitype/StillImage" />
      </cc:Work>
    </rdf:RDF>
  </metadata>
  <sodipodi:namedview
     pagecolor="#ffffff"
     bordercolor="#666666"
     borderopacity="1"
     objecttolerance="10"
     gridtolerance="10"
     guidetolerance="10"
     inkscape:pageopacity="0"
     inkscape:pageshadow="2"
     inkscape:window-width="1366"
     inkscape:window-height="666"
     id="namedview18"
     showgrid="false"
     inkscape:zoom="4.6067607"
     inkscape:cx="22.961376"
     inkscape:cy="21.698"
     inkscape:window-x="-2"
     inkscape:window-y="25"
     inkscape:window-maximized="1"
     inkscape:current-layer="svg2" />
  <defs
     id="defs4">
    <linearGradient
       id="linearGradient4210">
      <stop
         id="stop4212"
         offset="0"
         style="stop-color:#ffd2b9;stop-opacity:1" />
      <stop
         id="stop4214"
         offset="1"
         style="stop-color:#fffbf5;stop-opacity:1" />
    </linearGradient>
    <linearGradient
       id="linearGradient4081">
      <stop
         style="stop-color:#e85200;stop-opacity:1"
         offset="0"
         id="stop4083" />
      <stop
         style="stop-color:#f68800;stop-opacity:1"
         offset="1"
         id="stop4085" />
    </linearGradient>
    <linearGradient
       gradientTransform="matrix(0.28222223,0,0,0.28222223,4.9081421e-7,-297.00001)"
       gradientUnits="userSpaceOnUse"
       y2="1052.376"
       x2="38.369778"
       y1="1004.3583"
       x1="38.369778"
       id="linearGradient3801"
       xlink:href="#linearGradient4081"
       inkscape:collect="always" />
    <linearGradient
       inkscape:collect="always"
       xlink:href="#linearGradient4210"
       id="linearGradient4208"
       x1="6.9839387"
       y1="8.7681828"
       x2="6.9839387"
       y2="4.7554812"
       gradientUnits="userSpaceOnUse" />
  </defs>
  <rect
     style="fill:url(#linearGradient3801);fill-opacity:1;stroke:none"
     id="rect2991"
     width="13.546667"
     height="13.546667"
     x="-1.6360474e-07"
     y="-13.546664"
     ry="0.54879344"
     transform="scale(1,-1)" />
  <path
     style="fill:#000000;fill-opacity:0.05882353"
     inkscape:connector-curvature="0"
     id="path4222"
     d="m 2.5255529,7.505276 c -0.018125,0 -0.032577,0.014857 -0.034828,0.036137 l -0.063614,0.5132034 0.063614,0.5043524 c 0.00237,0.021276 0.016703,0.036012 0.034828,0.036012 0.017532,0 0.031866,-0.014737 0.034709,-0.035882 l 0,0 0,-1.007e-4 c 0,0 0,0 0,1.007e-4 L 2.6356033,8.0545452 2.560262,7.541241 C 2.557892,7.520087 2.543085,7.50523 2.525553,7.50523 Z M 2.8830214,7.2248833 c -0.00355,-0.022035 -0.017888,-0.03727 -0.036131,-0.03727 -0.018362,0 -0.033643,0.015739 -0.036131,0.03727 0,2.015e-4 -0.085411,0.8297705 -0.085411,0.8297705 l 0.085412,0.8113755 c 0.00237,0.021785 0.017651,0.037517 0.036131,0.037517 0.018243,0 0.033051,-0.015234 0.036131,-0.037268 L 2.9802784,8.0547018 Z M 4.2295344,6.459504 c -0.035064,0 -0.064088,0.030471 -0.065746,0.069251 l -0.068115,1.526591 0.068115,0.9865564 c 0.00118,0.038524 0.030682,0.069004 0.065746,0.069004 0.034828,0 0.063732,-0.030468 0.065864,-0.069122 l 0,3.032e-4 0.076881,-0.9866573 -0.076881,-1.526591 c -0.00237,-0.038781 -0.030918,-0.069251 -0.065864,-0.069251 z M 3.5326271,6.9900958 c -0.026891,0 -0.048925,0.022916 -0.051057,0.053387 l -0.076644,1.0114988 0.076644,0.9786116 c 0.00237,0.03035 0.024166,0.05313 0.051057,0.05313 0.026654,0 0.048569,-0.022792 0.050938,-0.05313 L 3.6707529,8.0549815 3.5835654,7.0432939 c -0.00237,-0.030345 -0.024284,-0.053135 -0.050938,-0.053135 z m 1.4051276,2.1206673 c 0.043475,0 0.078777,-0.037268 0.080554,-0.084984 L 5.085002,8.0558055 5.0183083,6.023377 c -0.00118,-0.047721 -0.037078,-0.08499 -0.080554,-0.08499 -0.043831,0 -0.07925,0.037396 -0.080672,0.085117 0,8.82e-5 -0.059231,2.0322272 -0.059231,2.0322272 l 0.059231,0.970364 c 0.00118,0.047349 0.036842,0.084617 0.080554,0.084617 z m 1.449906,0.00509 c 0.059823,0 0.1092212,-0.052384 0.1102874,-0.1167198 l 0,6.918e-4 0,-6.918e-4 0.046555,-0.9421475 -0.046555,-2.3473209 c -0.00103,-0.064341 -0.050465,-0.1167198 -0.1102874,-0.1167198 -0.059941,0 -0.1093397,0.052379 -0.1102874,0.1168466 l -0.04158,2.3464271 c 0,0.00126 0.04158,0.9435326 0.04158,0.9435326 9.358e-4,0.063839 0.050464,0.1162223 0.1102874,0.1162223 z m -0.7304674,-0.00379 c 0.052123,0 0.094058,-0.044447 0.09548,-0.1011066 l 0,7.049e-4 0.056624,-0.955267 -0.056743,-2.0471475 c -0.00118,-0.05666 -0.043357,-0.1009811 -0.09548,-0.1009811 -0.052478,0 -0.094414,0.044321 -0.095598,0.1009811 l -0.050346,2.0472482 0.050464,0.9550656 c 0.00113,0.056032 0.04312,0.1004788 0.09548,0.1004788 z m -1.777463,-0.00877 c 0.030918,0 0.056032,-0.02631 0.058283,-0.061067 l 0.082094,-0.9867508 -0.082094,-0.938659 c -0.00237,-0.034626 -0.027246,-0.060816 -0.058283,-0.060816 -0.031392,0 -0.056506,0.026315 -0.058401,0.061193 l -0.072261,0.9382686 0.072261,0.9866569 c 0.00237,0.034757 0.027009,0.061067 0.058401,0.061067 z M 3.1883315,9.0492817 c 0.022626,0 0.040987,-0.019013 0.043594,-0.045205 L 3.324088,8.0553825 3.2320437,7.0709042 c -0.00237,-0.026316 -0.021086,-0.045328 -0.043712,-0.045328 -0.022863,0 -0.041225,0.019139 -0.043594,0.045328 0,1.007e-4 -0.081146,0.9844783 -0.081146,0.9844783 l 0.081146,0.948493 c 0.00237,0.02631 0.020612,0.045454 0.043594,0.045454 z M 6.0210232,5.9754373 c -0.056506,0 -0.1018766,0.047847 -0.1030612,0.10904 L 5.871999,8.0568962 5.917962,9.0059941 c 0.00111,0.060439 0.046318,0.1081551 0.1030612,0.1081551 0.056506,0 0.1015213,-0.047716 0.1028244,-0.1089133 l 0,7.925e-4 0.051649,-0.9490968 -0.051649,-1.9727211 C 6.1226629,6.0231437 6.0775292,5.9754228 6.0210232,5.9754228 Z M 4.5823356,9.1133704 c 0.039092,0 0.071314,-0.033868 0.073209,-0.077059 l 0.071788,-0.979996 -0.071788,-1.8757441 c -0.00237,-0.043313 -0.034117,-0.077058 -0.073209,-0.077058 -0.039448,0 -0.071669,0.03387 -0.073328,0.077058 0,8.82e-5 -0.063614,1.8757441 -0.063614,1.8757441 l 0.063614,0.9803988 c 0.00118,0.042812 0.033761,0.07668 0.073209,0.07668 z m 0.801698,-0.092542 0,-5.034e-4 0.061718,-0.9638034 -0.061718,-2.1008993 c -0.00118,-0.052128 -0.040158,-0.093049 -0.088017,-0.093049 -0.048095,0 -0.086714,0.040796 -0.088017,0.093049 l -0.054729,2.1007985 0.054847,0.964307 c 0.00118,0.051625 0.04004,0.092542 0.088017,0.092542 0.047858,0 0.086358,-0.040798 0.088017,-0.092791 l 0,4.027e-4 z M 10.050473,6.8455031 c -0.1464869,0 -0.2862429,0.031478 -0.4135649,0.088264 -0.08507,-1.024216 -0.8931263,-1.8276583 -1.8788005,-1.8276583 -0.2411835,0 -0.4762899,0.050491 -0.6839169,0.1358334 -0.080672,0.03324 -0.102232,0.067363 -0.1029427,0.1336428 l 0,3.6068158 c 8.41e-4,0.069501 0.051649,0.1274856 0.1154996,0.134335 0.00237,3.021e-4 2.9445844,0.0013 2.9636544,0.0013 0.590433,0 1.069154,-0.5088347 1.069154,-1.1364917 0,-0.6276698 -0.478628,-1.1366047 -1.06906,-1.1366047 z M 6.7527107,5.3722819 c -0.064206,0 -0.1169212,0.056031 -0.1178689,0.1249043 l -0.048214,2.5600362 0.048332,0.929128 c 8.411e-4,0.067866 0.053544,0.1237706 0.1177504,0.1237706 0.064087,0 0.1168028,-0.055902 0.1177505,-0.1247775 l 0,0.00108 0.052478,-0.929229 -0.052478,-2.5602376 C 6.8695253,5.4283369 6.8167977,5.372307 6.7527107,5.372307 Z" />
  <path
     d="m 2.5255529,7.3923871 c -0.018125,0 -0.032577,0.014857 -0.034828,0.036137 l -0.063614,0.5132034 0.063614,0.5043524 c 0.00237,0.021276 0.016703,0.036012 0.034828,0.036012 0.017532,0 0.031866,-0.014737 0.034709,-0.035882 l 0,0 0,-1.007e-4 c 0,0 0,0 0,1.007e-4 L 2.6356033,7.9416563 2.560262,7.4283521 C 2.557892,7.4071981 2.543085,7.3923411 2.525553,7.3923411 Z M 2.8830214,7.1119944 c -0.00355,-0.022035 -0.017888,-0.03727 -0.036131,-0.03727 -0.018362,0 -0.033643,0.015739 -0.036131,0.03727 0,2.015e-4 -0.085411,0.8297705 -0.085411,0.8297705 l 0.085412,0.8113755 c 0.00237,0.021785 0.017651,0.037517 0.036131,0.037517 0.018243,0 0.033051,-0.015234 0.036131,-0.037268 l 0.097256,-0.8115765 z m 1.346513,-0.7653793 c -0.035064,0 -0.064088,0.030471 -0.065746,0.069251 l -0.068115,1.526591 0.068115,0.9865564 c 0.00118,0.038524 0.030682,0.069004 0.065746,0.069004 0.034828,0 0.063732,-0.030468 0.065864,-0.069122 l 0,3.032e-4 0.076881,-0.9866573 -0.076881,-1.526591 c -0.00237,-0.038781 -0.030918,-0.069251 -0.065864,-0.069251 z M 3.5326271,6.8772069 c -0.026891,0 -0.048925,0.022916 -0.051057,0.053387 l -0.076644,1.0114988 0.076644,0.9786116 c 0.00237,0.03035 0.024166,0.05313 0.051057,0.05313 0.026654,0 0.048569,-0.022792 0.050938,-0.05313 L 3.6707529,7.9420926 3.5835654,6.930405 C 3.5811954,6.90006 3.5592814,6.87727 3.5326274,6.87727 Z m 1.4051276,2.1206673 c 0.043475,0 0.078777,-0.037268 0.080554,-0.084984 L 5.085002,7.9429166 5.0183083,5.9104881 c -0.00118,-0.047721 -0.037078,-0.08499 -0.080554,-0.08499 -0.043831,0 -0.07925,0.037396 -0.080672,0.085117 0,8.82e-5 -0.059231,2.0322272 -0.059231,2.0322272 l 0.059231,0.970364 c 0.00118,0.047349 0.036842,0.084617 0.080554,0.084617 z m 1.449906,0.00509 c 0.059823,0 0.1092212,-0.052384 0.1102874,-0.1167198 l 0,6.918e-4 0,-6.918e-4 L 6.5445031,7.9440969 6.4979481,5.596776 C 6.4969181,5.532435 6.4474831,5.4800562 6.3876607,5.4800562 c -0.059941,0 -0.1093397,0.052379 -0.1102874,0.1168466 l -0.04158,2.3464271 c 0,0.00126 0.04158,0.9435326 0.04158,0.9435326 9.358e-4,0.063839 0.050464,0.1162223 0.1102874,0.1162223 z m -0.7304674,-0.00379 c 0.052123,0 0.094058,-0.044447 0.09548,-0.1011066 l 0,7.049e-4 0.056624,-0.955267 -0.056743,-2.0471475 c -0.00118,-0.05666 -0.043357,-0.1009811 -0.09548,-0.1009811 -0.052478,0 -0.094414,0.044321 -0.095598,0.1009811 l -0.050346,2.0472482 0.050464,0.9550656 c 0.00113,0.056032 0.04312,0.1004788 0.09548,0.1004788 z m -1.777463,-0.00877 c 0.030918,0 0.056032,-0.02631 0.058283,-0.061067 l 0.082094,-0.9867508 -0.082094,-0.938659 c -0.00237,-0.034626 -0.027246,-0.060816 -0.058283,-0.060816 -0.031392,0 -0.056506,0.026315 -0.058401,0.061193 l -0.072261,0.9382686 0.072261,0.9866569 c 0.00237,0.034757 0.027009,0.061067 0.058401,0.061067 z M 3.1883315,8.9363928 c 0.022626,0 0.040987,-0.019013 0.043594,-0.045205 L 3.324088,7.9424936 3.2320437,6.9580153 c -0.00237,-0.026316 -0.021086,-0.045328 -0.043712,-0.045328 -0.022863,0 -0.041225,0.019139 -0.043594,0.045328 0,1.007e-4 -0.081146,0.9844783 -0.081146,0.9844783 l 0.081146,0.948493 c 0.00237,0.02631 0.020612,0.045454 0.043594,0.045454 z M 6.0210232,5.8625484 c -0.056506,0 -0.1018766,0.047847 -0.1030612,0.10904 L 5.871999,7.9440073 5.917962,8.8931052 c 0.00111,0.060439 0.046318,0.1081551 0.1030612,0.1081551 0.056506,0 0.1015213,-0.047716 0.1028244,-0.1089133 l 0,7.925e-4 0.051649,-0.9490968 -0.051649,-1.9727211 C 6.1226629,5.9102548 6.0775292,5.8625339 6.0210232,5.8625339 Z M 4.5823356,9.0004815 c 0.039092,0 0.071314,-0.033868 0.073209,-0.077059 l 0.071788,-0.979996 -0.071788,-1.8757441 c -0.00237,-0.043313 -0.034117,-0.077058 -0.073209,-0.077058 -0.039448,0 -0.071669,0.03387 -0.073328,0.077058 0,8.82e-5 -0.063614,1.8757441 -0.063614,1.8757441 l 0.063614,0.9803988 c 0.00118,0.042812 0.033761,0.07668 0.073209,0.07668 z m 0.801698,-0.092542 0,-5.034e-4 0.061718,-0.9638034 -0.061718,-2.1008993 c -0.00118,-0.052128 -0.040158,-0.093049 -0.088017,-0.093049 -0.048095,0 -0.086714,0.040796 -0.088017,0.093049 l -0.054729,2.1007985 0.054847,0.964307 c 0.00118,0.051625 0.04004,0.092542 0.088017,0.092542 0.047858,0 0.086358,-0.040798 0.088017,-0.092791 l 0,4.027e-4 z M 10.050473,6.7326142 c -0.1464869,0 -0.2862429,0.031478 -0.4135649,0.088264 -0.08507,-1.024216 -0.8931263,-1.8276583 -1.8788005,-1.8276583 -0.2411835,0 -0.4762899,0.050491 -0.6839169,0.1358334 -0.080672,0.03324 -0.102232,0.067363 -0.1029427,0.1336428 l 0,3.6068158 c 8.41e-4,0.069501 0.051649,0.1274856 0.1154996,0.134335 0.00237,3.021e-4 2.9445844,0.0013 2.9636544,0.0013 0.590433,0 1.069154,-0.5088347 1.069154,-1.1364917 0,-0.6276698 -0.478628,-1.1366047 -1.06906,-1.1366047 z M 6.7527107,5.259393 c -0.064206,0 -0.1169212,0.056031 -0.1178689,0.1249043 l -0.048214,2.5600362 0.048332,0.929128 c 8.411e-4,0.067866 0.053544,0.1237706 0.1177504,0.1237706 0.064087,0 0.1168028,-0.055902 0.1177505,-0.1247775 l 0,0.00108 0.052478,-0.929229 L 6.8704607,5.384068 C 6.8695253,5.315448 6.8167977,5.2594181 6.7527107,5.2594181 Z"
     id="path4220"
     inkscape:connector-curvature="0"
     style="fill:#000000;fill-opacity:0.11764706" />
  <path
     style="fill:#000000;fill-opacity:0.23529412"
     inkscape:connector-curvature="0"
     id="path4216"
     d="m 2.5255529,7.2794982 c -0.018125,0 -0.032577,0.014857 -0.034828,0.036137 l -0.063614,0.5132034 0.063614,0.5043524 c 0.00237,0.021276 0.016703,0.036012 0.034828,0.036012 0.017532,0 0.031866,-0.014737 0.034709,-0.035882 l 0,0 0,-1.007e-4 c 0,0 0,0 0,1.007e-4 L 2.6356033,7.8287674 2.560262,7.3154632 C 2.557892,7.2943092 2.543085,7.2794522 2.525553,7.2794522 Z M 2.8830214,6.9991055 c -0.00355,-0.022035 -0.017888,-0.03727 -0.036131,-0.03727 -0.018362,0 -0.033643,0.015739 -0.036131,0.03727 0,2.015e-4 -0.085411,0.8297705 -0.085411,0.8297705 l 0.085412,0.8113755 c 0.00237,0.021785 0.017651,0.037517 0.036131,0.037517 0.018243,0 0.033051,-0.015234 0.036131,-0.037268 L 2.9802784,7.828924 Z m 1.346513,-0.7653793 c -0.035064,0 -0.064088,0.030471 -0.065746,0.069251 l -0.068115,1.526591 0.068115,0.9865564 c 0.00118,0.038524 0.030682,0.069004 0.065746,0.069004 0.034828,0 0.063732,-0.030468 0.065864,-0.069122 l 0,3.032e-4 0.076881,-0.9866573 -0.076881,-1.526591 c -0.00237,-0.038781 -0.030918,-0.069251 -0.065864,-0.069251 z M 3.5326271,6.764318 c -0.026891,0 -0.048925,0.022916 -0.051057,0.053387 l -0.076644,1.0114988 0.076644,0.9786116 c 0.00237,0.03035 0.024166,0.05313 0.051057,0.05313 0.026654,0 0.048569,-0.022792 0.050938,-0.05313 L 3.6707529,7.8292037 3.5835654,6.8175161 c -0.00237,-0.030345 -0.024284,-0.053135 -0.050938,-0.053135 z m 1.4051276,2.1206673 c 0.043475,0 0.078777,-0.037268 0.080554,-0.084984 L 5.085002,7.8300277 5.0183083,5.7975992 c -0.00118,-0.047721 -0.037078,-0.08499 -0.080554,-0.08499 -0.043831,0 -0.07925,0.037396 -0.080672,0.085117 0,8.82e-5 -0.059231,2.0322272 -0.059231,2.0322272 l 0.059231,0.970364 c 0.00118,0.047349 0.036842,0.084617 0.080554,0.084617 z m 1.449906,0.00509 c 0.059823,0 0.1092212,-0.052384 0.1102874,-0.1167198 l 0,6.918e-4 0,-6.918e-4 0.046555,-0.9421475 -0.046555,-2.3473209 c -0.00103,-0.064341 -0.050465,-0.1167198 -0.1102874,-0.1167198 -0.059941,0 -0.1093397,0.052379 -0.1102874,0.1168466 l -0.04158,2.3464271 c 0,0.00126 0.04158,0.9435326 0.04158,0.9435326 9.358e-4,0.063839 0.050464,0.1162223 0.1102874,0.1162223 z m -0.7304674,-0.00379 c 0.052123,0 0.094058,-0.044447 0.09548,-0.1011066 l 0,7.049e-4 0.056624,-0.955267 -0.056743,-2.0471475 c -0.00118,-0.05666 -0.043357,-0.1009811 -0.09548,-0.1009811 -0.052478,0 -0.094414,0.044321 -0.095598,0.1009811 l -0.050346,2.0472482 0.050464,0.9550656 c 0.00113,0.056032 0.04312,0.1004788 0.09548,0.1004788 z m -1.777463,-0.00877 c 0.030918,0 0.056032,-0.02631 0.058283,-0.061067 l 0.082094,-0.9867508 -0.082094,-0.938659 c -0.00237,-0.034626 -0.027246,-0.060816 -0.058283,-0.060816 -0.031392,0 -0.056506,0.026315 -0.058401,0.061193 l -0.072261,0.9382686 0.072261,0.9866569 c 0.00237,0.034757 0.027009,0.061067 0.058401,0.061067 z M 3.1883315,8.8235039 c 0.022626,0 0.040987,-0.019013 0.043594,-0.045205 L 3.324088,7.8296047 3.2320437,6.8451264 c -0.00237,-0.026316 -0.021086,-0.045328 -0.043712,-0.045328 -0.022863,0 -0.041225,0.019139 -0.043594,0.045328 0,1.007e-4 -0.081146,0.9844783 -0.081146,0.9844783 l 0.081146,0.948493 c 0.00237,0.02631 0.020612,0.045454 0.043594,0.045454 z M 6.0210232,5.7496595 c -0.056506,0 -0.1018766,0.047847 -0.1030612,0.10904 L 5.871999,7.8311184 5.917962,8.7802163 c 0.00111,0.060439 0.046318,0.1081551 0.1030612,0.1081551 0.056506,0 0.1015213,-0.047716 0.1028244,-0.1089133 l 0,7.925e-4 0.051649,-0.9490968 -0.051649,-1.9727211 C 6.1226629,5.7973659 6.0775292,5.749645 6.0210232,5.749645 Z M 4.5823356,8.8875926 c 0.039092,0 0.071314,-0.033868 0.073209,-0.077059 l 0.071788,-0.979996 -0.071788,-1.8757441 c -0.00237,-0.043313 -0.034117,-0.077058 -0.073209,-0.077058 -0.039448,0 -0.071669,0.03387 -0.073328,0.077058 0,8.82e-5 -0.063614,1.8757441 -0.063614,1.8757441 l 0.063614,0.9803988 c 0.00118,0.042812 0.033761,0.07668 0.073209,0.07668 z m 0.801698,-0.092542 0,-5.034e-4 0.061718,-0.9638034 -0.061718,-2.1008993 c -0.00118,-0.052128 -0.040158,-0.093049 -0.088017,-0.093049 -0.048095,0 -0.086714,0.040796 -0.088017,0.093049 L 5.1532706,7.830643 5.2081176,8.79495 c 0.00118,0.051625 0.04004,0.092542 0.088017,0.092542 0.047858,0 0.086358,-0.040798 0.088017,-0.092791 l 0,4.027e-4 z M 10.050473,6.6197253 c -0.1464869,0 -0.2862429,0.031478 -0.4135649,0.088264 C 9.5518381,5.6837733 8.7437818,4.880331 7.7581076,4.880331 c -0.2411835,0 -0.4762899,0.050491 -0.6839169,0.1358334 -0.080672,0.03324 -0.102232,0.067363 -0.1029427,0.1336428 l 0,3.6068158 c 8.41e-4,0.069501 0.051649,0.1274856 0.1154996,0.134335 0.00237,3.021e-4 2.9445844,0.0013 2.9636544,0.0013 0.590433,0 1.069154,-0.5088347 1.069154,-1.1364917 0,-0.6276698 -0.478628,-1.1366047 -1.06906,-1.1366047 z M 6.7527107,5.1465041 c -0.064206,0 -0.1169212,0.056031 -0.1178689,0.1249043 l -0.048214,2.5600362 0.048332,0.929128 c 8.411e-4,0.067866 0.053544,0.1237706 0.1177504,0.1237706 0.064087,0 0.1168028,-0.055902 0.1177505,-0.1247775 l 0,0.00108 0.052478,-0.929229 -0.052478,-2.5602376 c -9.354e-4,-0.06862 -0.053663,-0.1246499 -0.11775,-0.1246499 z" />
  <path
     d="m 2.5255529,7.1665372 c -0.018125,0 -0.032577,0.014857 -0.034828,0.036137 L 2.4271109,7.7158776 2.4907249,8.22023 c 0.00237,0.021276 0.016703,0.036012 0.034828,0.036012 0.017532,0 0.031866,-0.014737 0.034709,-0.035882 l 0,0 0,-1.007e-4 c 0,0 0,0 0,1.007e-4 L 2.6356033,7.7158064 2.560262,7.2025022 c -0.00237,-0.021154 -0.017177,-0.036011 -0.034709,-0.036011 z M 2.8830214,6.8861445 c -0.00355,-0.022035 -0.017888,-0.03727 -0.036131,-0.03727 -0.018362,0 -0.033643,0.015739 -0.036131,0.03727 0,2.015e-4 -0.085411,0.8297705 -0.085411,0.8297705 l 0.085412,0.8113755 c 0.00237,0.021785 0.017651,0.037517 0.036131,0.037517 0.018243,0 0.033051,-0.015234 0.036131,-0.037268 L 2.9802781,7.715963 Z m 1.346513,-0.7653793 c -0.035064,0 -0.064088,0.030471 -0.065746,0.069251 l -0.068115,1.526591 0.068115,0.9865564 c 0.00118,0.038524 0.030682,0.069004 0.065746,0.069004 0.034828,0 0.063732,-0.030468 0.065864,-0.069122 l 0,3.032e-4 0.076881,-0.9866573 -0.076881,-1.526591 c -0.00237,-0.038781 -0.030918,-0.069251 -0.065864,-0.069251 z M 3.5326271,6.651357 c -0.026891,0 -0.048925,0.022916 -0.051057,0.053387 l -0.076644,1.0114988 0.076644,0.9786116 c 0.00237,0.03035 0.024166,0.05313 0.051057,0.05313 0.026654,0 0.048569,-0.022792 0.050938,-0.05313 L 3.6707529,7.7162427 3.5835654,6.7045551 C 3.5811962,6.67421 3.5592809,6.6514205 3.5326271,6.6514205 Z m 1.4051276,2.1206673 c 0.043475,0 0.078777,-0.037268 0.080554,-0.084984 L 5.085002,7.7170667 5.0183083,5.6846382 c -0.00118,-0.047721 -0.037078,-0.08499 -0.080554,-0.08499 -0.043831,0 -0.07925,0.037396 -0.080672,0.085117 0,8.82e-5 -0.059231,2.0322272 -0.059231,2.0322272 l 0.059231,0.970364 c 0.00118,0.047349 0.036842,0.084617 0.080554,0.084617 z m 1.449906,0.00509 c 0.059823,0 0.1092212,-0.052384 0.1102874,-0.1167198 l 0,6.918e-4 0,-6.918e-4 0.046555,-0.9421475 -0.046555,-2.3473209 c -0.00103,-0.064341 -0.050465,-0.1167198 -0.1102874,-0.1167198 -0.059941,0 -0.1093397,0.052379 -0.1102874,0.1168466 L 6.2357933,7.71748 c 0,0.00126 0.04158,0.9435326 0.04158,0.9435326 9.358e-4,0.063839 0.050464,0.1162223 0.1102874,0.1162223 z m -0.7304674,-0.00379 c 0.052123,0 0.094058,-0.044447 0.09548,-0.1011066 l 0,7.049e-4 0.056624,-0.955267 -0.056743,-2.0471475 c -0.00118,-0.05666 -0.043357,-0.1009811 -0.09548,-0.1009811 -0.052478,0 -0.094414,0.044321 -0.095598,0.1009811 l -0.050346,2.0472482 0.050464,0.9550656 c 0.00113,0.056032 0.04312,0.1004788 0.09548,0.1004788 z m -1.777463,-0.00877 c 0.030918,0 0.056032,-0.02631 0.058283,-0.061067 l 0.082094,-0.9867508 -0.082094,-0.938659 c -0.00237,-0.034626 -0.027246,-0.060816 -0.058283,-0.060816 -0.031392,0 -0.056506,0.026315 -0.058401,0.061193 L 3.7490682,7.7167231 3.8213292,8.70338 c 0.00237,0.034757 0.027009,0.061067 0.058401,0.061067 z M 3.1883315,8.7105429 c 0.022626,0 0.040987,-0.019013 0.043594,-0.045205 L 3.324088,7.7166437 3.2320437,6.7321654 c -0.00237,-0.026316 -0.021086,-0.045328 -0.043712,-0.045328 -0.022863,0 -0.041225,0.019139 -0.043594,0.045328 0,1.007e-4 -0.081146,0.9844783 -0.081146,0.9844783 l 0.081146,0.948493 c 0.00237,0.02631 0.020612,0.045454 0.043594,0.045454 z M 6.0210232,5.6366985 c -0.056506,0 -0.1018766,0.047847 -0.1030612,0.10904 L 5.871999,7.7181574 5.917962,8.6672553 c 0.00111,0.060439 0.046318,0.1081551 0.1030612,0.1081551 0.056506,0 0.1015213,-0.047716 0.1028244,-0.1089133 l 0,7.925e-4 0.051649,-0.9490968 -0.051649,-1.9727211 C 6.1226629,5.6844049 6.0775292,5.636684 6.0210232,5.636684 Z M 4.5823356,8.7746316 c 0.039092,0 0.071314,-0.033868 0.073209,-0.077059 l 0.071788,-0.979996 -0.071788,-1.8757441 c -0.00237,-0.043313 -0.034117,-0.077058 -0.073209,-0.077058 -0.039448,0 -0.071669,0.03387 -0.073328,0.077058 0,8.82e-5 -0.063614,1.8757441 -0.063614,1.8757441 l 0.063614,0.9803988 c 0.00118,0.042812 0.033761,0.07668 0.073209,0.07668 z m 0.801698,-0.092542 0,-5.034e-4 0.061718,-0.9638034 -0.061718,-2.1008993 c -0.00118,-0.052128 -0.040158,-0.093049 -0.088017,-0.093049 -0.048095,0 -0.086714,0.040796 -0.088017,0.093049 l -0.054729,2.1007985 0.054847,0.964307 c 0.00118,0.051625 0.04004,0.092542 0.088017,0.092542 0.047858,0 0.086358,-0.040798 0.088017,-0.092791 l 0,4.027e-4 z M 10.050473,6.5067643 c -0.1464869,0 -0.2862429,0.031478 -0.4135649,0.088264 C 9.5518381,5.5708123 8.7437818,4.76737 7.7581076,4.76737 c -0.2411835,0 -0.4762899,0.050491 -0.6839169,0.1358334 -0.080672,0.03324 -0.102232,0.067363 -0.1029427,0.1336428 l 0,3.6068158 c 8.41e-4,0.069501 0.051649,0.1274856 0.1154996,0.134335 0.00237,3.021e-4 2.9445844,0.0013 2.9636544,0.0013 0.590433,0 1.069154,-0.5088347 1.069154,-1.1364917 0,-0.6276698 -0.478628,-1.1366047 -1.06906,-1.1366047 z M 6.7527107,5.0335431 c -0.064206,0 -0.1169212,0.056031 -0.1178689,0.1249043 l -0.048214,2.5600362 0.048332,0.929128 c 8.411e-4,0.067866 0.053544,0.1237706 0.1177504,0.1237706 0.064087,0 0.1168028,-0.055902 0.1177505,-0.1247775 l 0,0.00108 0.052478,-0.929229 -0.052478,-2.5602376 c -9.354e-4,-0.06862 -0.053663,-0.1246499 -0.11775,-0.1246499 z"
     id="path16"
     inkscape:connector-curvature="0"
     style="fill:url(#linearGradient4208);fill-opacity:1" />
  <path
     inkscape:connector-curvature="0"
     style="fill:#000000;fill-opacity:1;stroke:none"
     d="m 4.9081421e-7,12.700003 0,0.299861 c 0,0.304038 0.24277299918579,0.546806 0.54680599918579,0.546806 l 12.45305551,0 c 0.304032,0 0.546805,-0.242768 0.546805,-0.546806 l 0,-0.299861 c 0,0.304038 -0.242773,0.546806 -0.546805,0.546806 l -12.45305551,0 C 0.24277349,13.246809 4.9081421e-7,13.004041 4.9081421e-7,12.700003 Z"
     id="rect846" />
  <path
     inkscape:connector-curvature="0"
     style="fill:#ffffff;fill-opacity:0.5372549;stroke:none"
     d="m 0.71437549,0.18522547 c -0.258823,0 -0.471636,0.18048112 -0.520347,0.42333335 0.09472,-0.078994 0.218584,-0.12347223 0.352778,-0.12347223 l 12.45305551,0 c 0.134194,0 0.258061,0.0444782 0.352778,0.12347223 C 13.30393,0.36570659 13.091116,0.18522547 12.832292,0.18522547 l -12.11791651,0 z"
     id="path7515" />
  <path
     inkscape:connector-curvature="0"
     style="fill:#000000;fill-opacity:0.39215686;stroke:none"
     d="M 0.54680649,3.022677e-6 C 0.24277349,3.022677e-6 4.9081421e-7,0.24277058 4.9081421e-7,0.54680859 l 0,12.15319441 c 0,0.223915 0.13547199918579,0.40894 0.32631899918579,0.493889 -0.0873,-0.09406 -0.141111,-0.220811 -0.141111,-0.361583 l 0,-12.11791689 c 0,-0.2958253 0.23337,-0.52916664 0.529167,-0.52916664 l 12.11791651,0 c 0.295797,0 0.529167,0.23334134 0.529167,0.52916664 l 0,12.11791689 c 0,0.140772 -0.05381,0.267518 -0.141111,0.361583 0.190847,-0.08495 0.326319,-0.269974 0.326319,-0.493889 l 0,-12.15319441 C 13.546667,0.24277058 13.303894,3.022677e-6 12.999862,3.022677e-6 l -12.45305551,0 z"
     id="rect4280" />
  <path
     style="fill:#eb5c00;fill-opacity:0.3137255"
     d="M 39.361328 26.679688 C 39.170262 28.713526 37.574843 30.308594 35.611328 30.308594 C 35.543757 30.308594 25.119726 30.303805 25.111328 30.302734 C 24.885086 30.278465 24.704152 30.074388 24.701172 29.828125 L 24.701172 30.626953 C 24.704152 30.873217 24.885086 31.079246 25.111328 31.103516 C 25.119726 31.104586 35.543757 31.107422 35.611328 31.107422 C 37.703414 31.107422 39.400391 29.30406 39.400391 27.080078 C 39.400391 26.942736 39.373957 26.813495 39.361328 26.679688 z M 23.349609 26.761719 L 23.337891 27.349609 L 23.509766 30.640625 C 23.512746 30.881095 23.700231 31.080078 23.927734 31.080078 C 24.154814 31.080078 24.340392 30.880766 24.34375 30.636719 L 24.529297 27.349609 L 24.517578 26.761719 L 24.34375 29.837891 C 24.340392 30.081938 24.154814 30.279297 23.927734 30.279297 C 23.700231 30.279297 23.512746 30.082267 23.509766 29.841797 L 23.349609 26.761719 z M 22.105469 26.775391 L 22.095703 27.345703 C 22.095703 27.350168 22.242188 30.689453 22.242188 30.689453 C 22.245503 30.915654 22.42084 31.099609 22.632812 31.099609 C 22.844784 31.099609 23.01966 30.913508 23.023438 30.685547 L 23.189453 27.347656 L 23.177734 26.777344 L 23.023438 29.886719 C 23.018669 30.113761 22.844161 30.300781 22.632812 30.300781 C 22.42084 30.300781 22.245503 30.114873 22.242188 29.888672 C 22.242188 29.888672 22.123074 27.177964 22.105469 26.775391 z M 18.273438 26.798828 L 18.259766 27.345703 L 18.453125 30.763672 C 18.457306 30.946595 18.595628 31.091797 18.765625 31.091797 C 18.934595 31.091797 19.07134 30.945004 19.078125 30.761719 L 19.296875 27.345703 L 19.28125 26.798828 L 19.078125 29.960938 L 19.078125 29.962891 C 19.072247 30.147118 18.935201 30.291016 18.765625 30.291016 C 18.595628 30.291016 18.457306 30.145814 18.453125 29.962891 L 18.273438 26.798828 z M 19.541016 26.798828 L 19.527344 27.345703 L 19.707031 30.730469 C 19.711035 30.929007 19.859394 31.085937 20.044922 31.085938 C 20.228995 31.085938 20.37684 30.928322 20.382812 30.728516 L 20.583984 27.345703 L 20.568359 26.800781 L 20.382812 29.927734 C 20.377774 30.128497 20.22961 30.287109 20.044922 30.287109 C 19.859394 30.287109 19.711035 30.130179 19.707031 29.931641 L 19.541016 26.798828 z M 17.015625 26.802734 L 17 27.34375 L 17.210938 30.78125 C 17.215119 30.949022 17.341209 31.082031 17.496094 31.082031 C 17.650139 31.082031 17.774954 30.950322 17.78125 30.78125 L 18.017578 27.34375 L 18 26.802734 L 17.78125 29.980469 C 17.774954 30.149541 17.650139 30.283203 17.496094 30.283203 L 17.496094 30.28125 C 17.341209 30.28125 17.215119 30.150194 17.210938 29.982422 L 17.015625 26.802734 z M 20.818359 26.808594 L 20.806641 27.347656 L 20.96875 30.710938 C 20.972683 30.925091 21.132926 31.09375 21.333984 31.09375 C 21.533579 31.09375 21.693656 30.924853 21.699219 30.708984 L 21.880859 27.347656 L 21.867188 26.808594 L 21.699219 29.908203 C 21.693667 30.124083 21.533587 30.294922 21.333984 30.294922 C 21.132926 30.294922 20.972683 30.12431 20.96875 29.910156 L 20.818359 26.808594 z M 15.769531 26.820312 C 15.766937 26.896802 15.751953 27.345703 15.751953 27.345703 L 15.976562 30.820312 C 15.980744 30.972009 16.096552 31.091797 16.236328 31.091797 C 16.374843 31.091797 16.489379 30.971398 16.496094 30.818359 L 16.75 27.345703 L 16.730469 26.820312 L 16.496094 30.017578 C 16.489379 30.170617 16.374843 30.291016 16.236328 30.291016 C 16.096552 30.291016 15.980744 30.171227 15.976562 30.019531 L 15.769531 26.820312 z M 14.533203 26.857422 L 14.511719 27.341797 L 14.753906 30.837891 C 14.758087 30.974393 14.862086 31.082031 14.986328 31.082031 C 15.109734 31.082031 15.213149 30.974854 15.220703 30.837891 L 15.492188 27.341797 L 15.46875 26.857422 L 15.220703 30.037109 C 15.212289 30.173145 15.109148 30.283203 14.986328 30.283203 C 14.862086 30.283203 14.758087 30.175565 14.753906 30.039062 L 14.533203 26.857422 z M 8.6503906 26.935547 L 8.5996094 27.339844 L 8.8261719 29.126953 C 8.8345695 29.202341 8.8849963 29.253906 8.9492188 29.253906 C 9.01134 29.253906 9.062192 29.201876 9.0722656 29.126953 L 9.3378906 27.339844 L 9.2792969 26.935547 L 9.0722656 28.328125 C 9.062192 28.403048 9.01134 28.455078 8.9492188 28.455078 C 8.8849963 28.455078 8.8345695 28.401559 8.8261719 28.326172 L 8.6503906 26.935547 z M 9.6972656 26.935547 C 9.687393 27.031438 9.65625 27.339844 9.65625 27.339844 L 9.9589844 30.214844 C 9.967382 30.292035 10.02241 30.347656 10.087891 30.347656 C 10.152531 30.347656 10.20393 30.292917 10.214844 30.214844 L 10.560547 27.339844 L 10.513672 26.935547 L 10.214844 29.416016 C 10.20393 29.494089 10.152531 29.548828 10.087891 29.548828 C 10.02241 29.548828 9.967382 29.493207 9.9589844 29.416016 L 9.6972656 26.935547 z M 10.888672 26.935547 C 10.881781 27.019137 10.855469 27.341797 10.855469 27.341797 L 11.142578 30.703125 C 11.150976 30.796349 11.215443 30.865234 11.296875 30.865234 L 11.296875 30.863281 C 11.377046 30.863281 11.441934 30.795931 11.451172 30.703125 L 11.777344 27.341797 L 11.740234 26.935547 L 11.451172 29.904297 C 11.441934 29.997103 11.377046 30.064453 11.296875 30.064453 C 11.215443 30.064453 11.150976 29.997521 11.142578 29.904297 L 10.888672 26.935547 z M 12.095703 26.935547 L 12.064453 27.341797 L 12.335938 30.808594 C 12.344335 30.916133 12.422295 30.996094 12.517578 30.996094 C 12.612021 30.996094 12.688872 30.916091 12.697266 30.808594 L 13.005859 27.341797 L 12.970703 26.935547 L 12.697266 30.009766 C 12.688872 30.117262 12.612021 30.197266 12.517578 30.197266 C 12.422295 30.197266 12.344335 30.117305 12.335938 30.009766 L 12.095703 26.935547 z M 13.3125 26.953125 L 13.283203 27.341797 L 13.541016 30.837891 C 13.549413 30.961045 13.636815 31.054688 13.748047 31.054688 C 13.857599 31.054688 13.945149 30.962998 13.953125 30.839844 L 14.244141 27.341797 L 14.210938 26.953125 L 13.953125 30.039062 C 13.945149 30.162217 13.857599 30.255859 13.748047 30.255859 C 13.636815 30.255859 13.549413 30.162217 13.541016 30.039062 L 13.3125 26.953125 z "
     transform="scale(0.28222223,0.28222223)"
     id="path4224" />
  <path
     style="fill:#ffffff;fill-opacity:0.23529412"
     d="M 27.490234 16.892578 C 26.635647 16.892578 25.802092 17.070653 25.066406 17.373047 C 24.780561 17.490826 24.70369 17.612807 24.701172 17.847656 L 24.701172 18.248047 C 24.70369 18.013197 24.780561 17.891217 25.066406 17.773438 C 25.802092 17.471043 26.635647 17.292969 27.490234 17.292969 C 30.982781 17.292969 33.845055 20.138466 34.146484 23.767578 C 34.597625 23.566368 35.09228 23.455078 35.611328 23.455078 L 35.611328 23.453125 C 37.639125 23.453125 39.281028 25.151889 39.380859 27.28125 C 39.384071 27.21326 39.400391 27.148915 39.400391 27.080078 C 39.400391 24.856051 37.70341 23.052734 35.611328 23.052734 L 35.611328 23.054688 C 35.09228 23.054688 34.597625 23.16793 34.146484 23.369141 C 33.845055 19.740029 30.982781 16.892578 27.490234 16.892578 z M 23.927734 17.835938 C 23.700233 17.835938 23.513124 18.033305 23.509766 18.277344 L 23.337891 27.349609 L 23.34375 27.457031 L 23.509766 18.677734 C 23.513124 18.433695 23.700233 18.236328 23.927734 18.236328 C 24.154814 18.236328 24.340436 18.434593 24.34375 18.677734 L 24.523438 27.457031 L 24.529297 27.349609 L 24.34375 18.277344 C 24.340436 18.034202 24.154814 17.835937 23.927734 17.835938 z M 22.632812 18.617188 C 22.420423 18.617188 22.245545 18.802822 22.242188 19.03125 L 22.095703 27.345703 C 22.095703 27.345857 22.101224 27.453132 22.101562 27.460938 L 22.242188 19.431641 C 22.245545 19.203212 22.420423 19.017578 22.632812 19.017578 C 22.844782 19.017578 23.019788 19.203661 23.023438 19.431641 L 23.183594 27.462891 L 23.189453 27.347656 L 23.023438 19.03125 C 23.019788 18.80327 22.844782 18.617188 22.632812 18.617188 z M 18.765625 19.572266 C 18.59521 19.572266 18.457742 19.717195 18.453125 19.902344 L 18.259766 27.345703 L 18.267578 27.472656 L 18.453125 20.302734 C 18.457742 20.117586 18.59521 19.972656 18.765625 19.972656 C 18.935204 19.972656 19.073944 20.118029 19.078125 20.302734 L 19.289062 27.470703 L 19.296875 27.345703 L 19.078125 19.902344 C 19.073944 19.717638 18.935204 19.572266 18.765625 19.572266 z M 20.044922 19.734375 C 19.858976 19.734375 19.709273 19.891033 19.705078 20.091797 L 19.527344 27.345703 L 19.533203 27.472656 L 19.705078 20.492188 C 19.709273 20.291423 19.858976 20.134766 20.044922 20.134766 C 20.22961 20.134766 20.378631 20.291424 20.382812 20.492188 L 20.576172 27.472656 L 20.583984 27.345703 L 20.382812 20.091797 C 20.378631 19.891033 20.22961 19.734375 20.044922 19.734375 z M 17.496094 19.841797 C 17.340787 19.841797 17.215976 19.973488 17.210938 20.142578 L 17 27.34375 L 17.007812 27.472656 L 17.210938 20.542969 C 17.215976 20.373879 17.340787 20.242188 17.496094 20.242188 C 17.650143 20.242187 17.777069 20.373879 17.78125 20.542969 L 18.007812 27.472656 L 18.017578 27.34375 L 17.78125 20.142578 C 17.777069 19.973488 17.650143 19.841797 17.496094 19.841797 z M 21.333984 19.972656 C 21.133766 19.972656 20.972947 20.142549 20.96875 20.359375 L 20.806641 27.347656 L 20.8125 27.478516 L 20.96875 20.759766 C 20.972947 20.54294 21.133766 20.373047 21.333984 20.373047 C 21.534202 20.373047 21.695021 20.541434 21.699219 20.757812 L 21.873047 27.478516 L 21.880859 27.347656 L 21.699219 20.357422 C 21.695021 20.141043 21.534202 19.972656 21.333984 19.972656 z M 16.236328 20.425781 C 16.096552 20.425781 15.982441 20.54619 15.976562 20.699219 C 15.976562 20.699531 15.751953 27.345703 15.751953 27.345703 L 15.761719 27.482422 C 15.778214 26.996073 15.976562 21.099909 15.976562 21.099609 C 15.982441 20.946581 16.096552 20.826172 16.236328 20.826172 C 16.374843 20.826172 16.487696 20.946138 16.496094 21.099609 L 16.740234 27.482422 L 16.75 27.345703 L 16.496094 20.699219 C 16.487696 20.545747 16.374843 20.425781 16.236328 20.425781 z M 14.986328 21.6875 C 14.862086 21.6875 14.759781 21.796184 14.753906 21.933594 L 14.511719 27.341797 L 14.523438 27.498047 L 14.753906 22.333984 C 14.759781 22.196575 14.862086 22.087891 14.986328 22.087891 C 15.110153 22.087891 15.212305 22.196571 15.220703 22.333984 L 15.480469 27.498047 L 15.492188 27.341797 L 15.220703 21.933594 C 15.212305 21.796181 15.110153 21.6875 14.986328 21.6875 z M 12.517578 23.568359 C 12.422295 23.568359 12.343492 23.649844 12.335938 23.757812 L 12.064453 27.341797 L 12.080078 27.539062 L 12.335938 24.15625 C 12.343492 24.048282 12.422295 23.96875 12.517578 23.96875 C 12.612021 23.96875 12.688868 24.048728 12.697266 24.15625 L 12.988281 27.539062 L 13.005859 27.341797 L 12.697266 23.755859 C 12.688871 23.648337 12.612021 23.568359 12.517578 23.568359 z M 11.296875 23.693359 C 11.215864 23.693359 11.150972 23.76072 11.142578 23.853516 C 11.142578 23.853872 10.855469 27.341797 10.855469 27.341797 L 10.873047 27.539062 C 10.902755 27.178671 11.142578 24.254242 11.142578 24.253906 C 11.150972 24.161111 11.215864 24.09375 11.296875 24.09375 C 11.377046 24.09375 11.442774 24.160661 11.451172 24.253906 L 11.757812 27.539062 L 11.777344 27.341797 L 11.451172 23.853516 C 11.442774 23.76027 11.377046 23.693359 11.296875 23.693359 z M 13.748047 23.800781 C 13.636815 23.800781 13.54773 23.893995 13.541016 24.017578 L 13.283203 27.341797 L 13.298828 27.546875 L 13.541016 24.417969 C 13.54773 24.294385 13.636815 24.201172 13.748047 24.201172 C 13.85802 24.201172 13.944727 24.295278 13.953125 24.417969 L 14.226562 27.546875 L 14.244141 27.341797 L 13.953125 24.017578 C 13.944727 23.894888 13.85802 23.800781 13.748047 23.800781 z M 10.087891 24.267578 C 10.022828 24.267578 9.9678001 24.3241 9.9589844 24.400391 C 9.9589844 24.401105 9.65625 27.339844 9.65625 27.339844 L 9.6777344 27.537109 C 9.7139885 27.184982 9.9589844 24.801446 9.9589844 24.800781 C 9.9678001 24.72449 10.022828 24.667969 10.087891 24.667969 C 10.152531 24.667969 10.202265 24.722704 10.214844 24.800781 L 10.537109 27.537109 L 10.560547 27.339844 L 10.214844 24.400391 C 10.202265 24.322314 10.152531 24.267578 10.087891 24.267578 z M 8.9492188 25.392578 C 8.8849963 25.392578 8.8341479 25.446083 8.8261719 25.521484 L 8.5996094 27.339844 L 8.625 27.539062 L 8.8261719 25.921875 C 8.8341479 25.846473 8.8849963 25.792969 8.9492188 25.792969 C 9.01134 25.792969 9.063868 25.84692 9.0722656 25.921875 L 9.3085938 27.539062 L 9.3378906 27.339844 L 9.0722656 25.521484 C 9.063868 25.446529 9.01134 25.392578 8.9492188 25.392578 z "
     transform="scale(0.28222223,0.28222223)"
     id="path4229" />
</svg>
