<?xml version="1.0" encoding="UTF-8" standalone="no"?>
<!-- Created with Inkscape (http://www.inkscape.org/) -->

<svg
   xmlns:dc="http://purl.org/dc/elements/1.1/"
   xmlns:cc="http://creativecommons.org/ns#"
   xmlns:rdf="http://www.w3.org/1999/02/22-rdf-syntax-ns#"
   xmlns:svg="http://www.w3.org/2000/svg"
   xmlns="http://www.w3.org/2000/svg"
   xmlns:xlink="http://www.w3.org/1999/xlink"
   xmlns:sodipodi="http://sodipodi.sourceforge.net/DTD/sodipodi-0.dtd"
   xmlns:inkscape="http://www.inkscape.org/namespaces/inkscape"
   width="48"
   height="48"
   id="svg2"
   version="1.1"
   inkscape:version="0.48+devel r12487"
   sodipodi:docname="stellarium.svg">
  <defs
     id="defs4">
    <linearGradient
       inkscape:collect="always"
       id="linearGradient856">
      <stop
         style="stop-color:#162431;stop-opacity:1"
         offset="0"
         id="stop858" />
      <stop
         style="stop-color:#334e66;stop-opacity:1"
         offset="1"
         id="stop860" />
    </linearGradient>
    <linearGradient
       inkscape:collect="always"
       xlink:href="#linearGradient856"
       id="linearGradient862"
       x1="26.693279"
       y1="-1052.3671"
       x2="26.693279"
       y2="-1004.3784"
       gradientUnits="userSpaceOnUse" />
  </defs>
  <sodipodi:namedview
     id="base"
     pagecolor="#ffffff"
     bordercolor="#666666"
     borderopacity="1.0"
     inkscape:pageopacity="0.0"
     inkscape:pageshadow="2"
     inkscape:zoom="11.313709"
     inkscape:cx="14.446121"
     inkscape:cy="23.724985"
     inkscape:document-units="px"
     inkscape:current-layer="layer1"
     showgrid="false"
     inkscape:window-width="1366"
     inkscape:window-height="716"
     inkscape:window-x="0"
     inkscape:window-y="28"
     inkscape:window-maximized="1">
    <inkscape:grid
       type="xygrid"
       id="grid3850" />
  </sodipodi:namedview>
  <metadata
     id="metadata7">
    <rdf:RDF>
      <cc:Work
         rdf:about="">
        <dc:format>image/svg+xml</dc:format>
        <dc:type
           rdf:resource="http://purl.org/dc/dcmitype/StillImage" />
        <dc:title />
      </cc:Work>
    </rdf:RDF>
  </metadata>
  <g
     inkscape:label="Capa 1"
     inkscape:groupmode="layer"
     id="layer1"
     transform="translate(0,-1004.3622)">
    <rect
       style="fill:url(#linearGradient862);fill-opacity:1;stroke:none"
       id="rect2991-1"
       width="48"
       height="48"
       x="2.0968628e-07"
       y="-1052.3622"
       ry="1.9445436"
       transform="scale(1,-1)" />
    <g
       id="g1043">
      <path
         sodipodi:type="star"
         style="fill:#ffffff;fill-opacity:0.58995816;stroke:none"
         id="path916"
         sodipodi:sides="4"
         sodipodi:cx="-26.693281"
         sodipodi:cy="5.3968167"
         sodipodi:r1="6.4134712"
         sodipodi:r2="2.2890234"
         sodipodi:arg1="1.0471976"
         sodipodi:arg2="1.8325958"
         inkscape:flatsided="false"
         inkscape:rounded="0"
         inkscape:randomized="0"
         d="M -23.486546,10.951046 -27.285724,7.6078435 -32.24751,8.6035521 -28.904308,4.8043737 -29.900017,-0.15741243 -26.100838,3.18579 -21.139052,2.1900814 -24.482254,5.9892598 Z"
         transform="matrix(0.25,0,0,0.25,32.867494,1026.6524)"
         inkscape:transform-center-x="0.38669891" />
      <path
         inkscape:transform-center-y="-0.23130956"
         inkscape:transform-center-x="0.30992123"
         transform="matrix(0.2003633,0.14951438,-0.14951438,0.2003633,30.426207,1024.68)"
         d="M -23.486546,10.951046 -27.285724,7.6078435 -32.24751,8.6035521 -28.904308,4.8043737 -29.900017,-0.15741243 -26.100838,3.18579 -21.139052,2.1900814 -24.482254,5.9892598 Z"
         inkscape:randomized="0"
         inkscape:rounded="0"
         inkscape:flatsided="false"
         sodipodi:arg2="1.8325958"
         sodipodi:arg1="1.0471976"
         sodipodi:r2="2.2890234"
         sodipodi:r1="6.4134712"
         sodipodi:cy="5.3968167"
         sodipodi:cx="-26.693281"
         sodipodi:sides="4"
         id="path918"
         style="fill:#ffffff;fill-opacity:0.58995816;stroke:none"
         sodipodi:type="star" />
      <g
         transform="translate(0,1.5957192)"
         id="g928">
        <path
           inkscape:transform-center-x="0.38060787"
           transform="matrix(0.24606237,0.04419628,-0.04419628,0.24606237,25.006996,1016.3475)"
           d="M -23.486546,10.951046 -27.285724,7.6078435 -32.24751,8.6035521 -28.904308,4.8043737 -29.900017,-0.15741243 -26.100838,3.18579 -21.139052,2.1900814 -24.482254,5.9892598 Z"
           inkscape:randomized="0"
           inkscape:rounded="0"
           inkscape:flatsided="false"
           sodipodi:arg2="1.8325958"
           sodipodi:arg1="1.0471976"
           sodipodi:r2="2.2890234"
           sodipodi:r1="6.4134712"
           sodipodi:cy="5.3968167"
           sodipodi:cx="-26.693281"
           sodipodi:sides="4"
           id="path920"
           style="fill:#ffffff;fill-opacity:0.29411765;stroke:none"
           sodipodi:type="star"
           inkscape:transform-center-y="-0.068394396" />
        <path
           sodipodi:type="star"
           style="fill:#ffffff;fill-opacity:0.29411765;stroke:none"
           id="path922"
           sodipodi:sides="4"
           sodipodi:cx="-26.693281"
           sodipodi:cy="5.3968167"
           sodipodi:r1="6.4134712"
           sodipodi:r2="2.2890234"
           sodipodi:arg1="1.0471976"
           sodipodi:arg2="1.8325958"
           inkscape:flatsided="false"
           inkscape:rounded="0"
           inkscape:randomized="0"
           d="M -23.486546,10.951046 -27.285724,7.6078435 -32.24751,8.6035521 -28.904308,4.8043737 -29.900017,-0.15741243 -26.100838,3.18579 -21.139052,2.1900814 -24.482254,5.9892598 Z"
           transform="matrix(0.18349693,0.16979069,-0.16979069,0.18349693,22.111505,1015.8434)"
           inkscape:transform-center-x="0.283832"
           inkscape:transform-center-y="-0.26267551" />
        <path
           inkscape:transform-center-x="0.33433435"
           transform="matrix(0.21614614,0.12562184,-0.12562184,0.21614614,28.694146,1012.5566)"
           d="M -23.486546,10.951046 -27.285724,7.6078435 -32.24751,8.6035521 -28.904308,4.8043737 -29.900017,-0.15741243 -26.100838,3.18579 -21.139052,2.1900814 -24.482254,5.9892598 Z"
           inkscape:randomized="0"
           inkscape:rounded="0"
           inkscape:flatsided="false"
           sodipodi:arg2="1.8325958"
           sodipodi:arg1="1.0471976"
           sodipodi:r2="2.2890234"
           sodipodi:r1="6.4134712"
           sodipodi:cy="5.3968167"
           sodipodi:cx="-26.693281"
           sodipodi:sides="4"
           id="path924"
           style="fill:#ffffff;fill-opacity:0.29411765;stroke:none"
           sodipodi:type="star"
           inkscape:transform-center-y="-0.19426217" />
        <path
           sodipodi:type="star"
           style="fill:#ffffff;fill-opacity:0.29411765;stroke:none"
           id="path926"
           sodipodi:sides="4"
           sodipodi:cx="-26.693281"
           sodipodi:cy="5.3968167"
           sodipodi:r1="6.4134712"
           sodipodi:r2="2.2890234"
           sodipodi:arg1="1.0471976"
           sodipodi:arg2="1.8325958"
           inkscape:flatsided="false"
           inkscape:rounded="0"
           inkscape:randomized="0"
           d="M -23.486546,10.951046 -27.285724,7.6078435 -32.24751,8.6035521 -28.904308,4.8043737 -29.900017,-0.15741243 -26.100838,3.18579 -21.139052,2.1900814 -24.482254,5.9892598 Z"
           transform="matrix(0.125,0.21650635,-0.21650635,0.125,14.892628,1015.3339)"
           inkscape:transform-center-x="0.19334986"
           inkscape:transform-center-y="-0.33486697" />
      </g>
      <path
         inkscape:connector-curvature="0"
         id="path880"
         d="m 8.4974619,1010.3622 c -1.8501979,0 -3.5094732,0.7669 -4.6903553,2.0102 C 2.8212605,1011.3391 1.4813014,1010.6267 0,1010.4231 l 0,16.7208 16.598985,0 0.243655,0 0,-0.03 c 2.757108,-0.1299 4.93401,-2.3574 4.93401,-5.1472 0,-2.873 -2.30486,-5.2082 -5.177665,-5.2082 -0.570068,0 -1.100928,0.1043 -1.614213,0.2742 0.0023,-0.065 0,-0.1164 0,-0.1828 C 14.984772,1013.2702 12.076829,1010.3622 8.4974619,1010.3622 Z"
         style="fill:#a6bece;fill-opacity:1;stroke:none" />
      <g
         transform="matrix(0.49044585,0,0,0.49044585,13.819983,512.71514)"
         id="g1035">
        <path
           style="fill:#000000;fill-opacity:0.23529412;stroke:none"
           d="m 14.615956,1024.3908 c -1.951168,0 -3.53125,1.5801 -3.53125,3.5313 0,0.038 -0.0013,0.057 0,0.094 -0.282049,-0.095 -0.592593,-0.1562 -0.90625,-0.1562 -1.566008,0 -2.8437495,1.2777 -2.8437495,2.8437 0,0.076 0.025385,0.1443 0.03125,0.2188 0.1240584,-1.451 1.3290824,-2.5938 2.8124995,-2.5938 0.313657,0 0.624201,0.061 0.90625,0.1563 -0.0013,-0.037 0,-0.087 0,-0.125 0,-1.9512 1.580082,-3.5313 3.53125,-3.5313 1.004217,0 1.888028,0.4214 2.53125,1.0938 0.643716,-0.6778 1.55393,-1.0938 2.5625,-1.0938 1.951168,0 3.53125,1.5802 3.53125,3.5313 0,0.037 0.0013,0.088 0,0.125 0.279801,-0.093 0.564246,-0.1563 0.875,-0.1563 1.483418,0 2.688442,1.1427 2.8125,2.5938 0.0056,-0.073 0.03125,-0.1446 0.03125,-0.2188 0,-1.5661 -1.277741,-2.8437 -2.84375,-2.8437 -0.310754,0 -0.595199,0.063 -0.875,0.1562 0.0013,-0.037 0,-0.057 0,-0.094 0,-1.9511 -1.580082,-3.5313 -3.53125,-3.5313 -1.00857,0 -1.918784,0.416 -2.5625,1.0938 C 16.503984,1024.8122 15.620173,1024.3908 14.615956,1024.3908 Z"
           id="path1037"
           inkscape:connector-curvature="0" />
        <path
           inkscape:connector-curvature="0"
           id="path1039"
           d="m 14.615956,1023.9572 c -1.951168,0 -3.53125,1.5801 -3.53125,3.5313 0,0.038 -0.0013,0.057 0,0.094 -0.282049,-0.095 -0.592593,-0.1562 -0.90625,-0.1562 -1.566008,0 -2.8437495,1.2777 -2.8437495,2.8437 0,0.076 0.025385,0.1443 0.03125,0.2188 0.1240584,-1.451 1.3290824,-2.5938 2.8124995,-2.5938 0.313657,0 0.624201,0.061 0.90625,0.1563 -0.0013,-0.037 0,-0.087 0,-0.125 0,-1.9512 1.580082,-3.5313 3.53125,-3.5313 1.004217,0 1.888028,0.4214 2.53125,1.0938 0.643716,-0.6778 1.55393,-1.0938 2.5625,-1.0938 1.951168,0 3.53125,1.5802 3.53125,3.5313 0,0.037 0.0013,0.088 0,0.125 0.279801,-0.093 0.564246,-0.1563 0.875,-0.1563 1.483418,0 2.688442,1.1427 2.8125,2.5938 0.0056,-0.073 0.03125,-0.1446 0.03125,-0.2188 0,-1.5661 -1.277741,-2.8437 -2.84375,-2.8437 -0.310754,0 -0.595199,0.063 -0.875,0.1562 0.0013,-0.037 0,-0.057 0,-0.094 0,-1.9511 -1.580082,-3.5313 -3.53125,-3.5313 -1.00857,0 -1.918784,0.416 -2.5625,1.0938 C 16.503984,1024.3786 15.620173,1023.9572 14.615956,1023.9572 Z"
           style="fill:#000000;fill-opacity:0.11689226;stroke:none" />
        <path
           style="fill:#000000;fill-opacity:0.05882353;stroke:none"
           d="m 14.615956,1023.5236 c -1.951168,0 -3.53125,1.5801 -3.53125,3.5313 0,0.038 -0.0013,0.057 0,0.094 -0.282049,-0.095 -0.592593,-0.1562 -0.90625,-0.1562 -1.566008,0 -2.8437495,1.2777 -2.8437495,2.8437 0,0.076 0.025385,0.1443 0.03125,0.2188 0.1240584,-1.451 1.3290824,-2.5938 2.8124995,-2.5938 0.313657,0 0.624201,0.061 0.90625,0.1563 -0.0013,-0.037 0,-0.087 0,-0.125 0,-1.9512 1.580082,-3.5313 3.53125,-3.5313 1.004217,0 1.888028,0.4214 2.53125,1.0938 0.643716,-0.6778 1.55393,-1.0938 2.5625,-1.0938 1.951168,0 3.53125,1.5802 3.53125,3.5313 0,0.037 0.0013,0.088 0,0.125 0.279801,-0.093 0.564246,-0.1563 0.875,-0.1563 1.483418,0 2.688442,1.1427 2.8125,2.5938 0.0056,-0.073 0.03125,-0.1446 0.03125,-0.2188 0,-1.5661 -1.277741,-2.8437 -2.84375,-2.8437 -0.310754,0 -0.595199,0.063 -0.875,0.1562 0.0013,-0.037 0,-0.057 0,-0.094 0,-1.9511 -1.580082,-3.5313 -3.53125,-3.5313 -1.00857,0 -1.918784,0.416 -2.5625,1.0938 C 16.503984,1023.945 15.620173,1023.5236 14.615956,1023.5236 Z"
           id="path1041"
           inkscape:connector-curvature="0" />
      </g>
      <g
         transform="matrix(1.3057324,0,0,1.3057324,-9.118985,-320.72665)"
         id="g1022">
        <path
           style="fill:#000000;fill-opacity:0.23529412;stroke:none"
           d="m 14.615956,1024.3908 c -1.951168,0 -3.53125,1.5801 -3.53125,3.5313 0,0.038 -0.0013,0.057 0,0.094 -0.282049,-0.095 -0.592593,-0.1562 -0.90625,-0.1562 -1.566008,0 -2.8437495,1.2777 -2.8437495,2.8437 0,0.076 0.025385,0.1443 0.03125,0.2188 0.1240584,-1.451 1.3290824,-2.5938 2.8124995,-2.5938 0.313657,0 0.624201,0.061 0.90625,0.1563 -0.0013,-0.037 0,-0.087 0,-0.125 0,-1.9512 1.580082,-3.5313 3.53125,-3.5313 1.004217,0 1.888028,0.4214 2.53125,1.0938 0.643716,-0.6778 1.55393,-1.0938 2.5625,-1.0938 1.951168,0 3.53125,1.5802 3.53125,3.5313 0,0.037 0.0013,0.088 0,0.125 0.279801,-0.093 0.564246,-0.1563 0.875,-0.1563 1.483418,0 2.688442,1.1427 2.8125,2.5938 0.0056,-0.073 0.03125,-0.1446 0.03125,-0.2188 0,-1.5661 -1.277741,-2.8437 -2.84375,-2.8437 -0.310754,0 -0.595199,0.063 -0.875,0.1562 0.0013,-0.037 0,-0.057 0,-0.094 0,-1.9511 -1.580082,-3.5313 -3.53125,-3.5313 -1.00857,0 -1.918784,0.416 -2.5625,1.0938 C 16.503984,1024.8122 15.620173,1024.3908 14.615956,1024.3908 Z"
           id="path1024"
           inkscape:connector-curvature="0" />
        <path
           inkscape:connector-curvature="0"
           id="path1026"
           d="m 14.615956,1023.9572 c -1.951168,0 -3.53125,1.5801 -3.53125,3.5313 0,0.038 -0.0013,0.057 0,0.094 -0.282049,-0.095 -0.592593,-0.1562 -0.90625,-0.1562 -1.566008,0 -2.8437495,1.2777 -2.8437495,2.8437 0,0.076 0.025385,0.1443 0.03125,0.2188 0.1240584,-1.451 1.3290824,-2.5938 2.8124995,-2.5938 0.313657,0 0.624201,0.061 0.90625,0.1563 -0.0013,-0.037 0,-0.087 0,-0.125 0,-1.9512 1.580082,-3.5313 3.53125,-3.5313 1.004217,0 1.888028,0.4214 2.53125,1.0938 0.643716,-0.6778 1.55393,-1.0938 2.5625,-1.0938 1.951168,0 3.53125,1.5802 3.53125,3.5313 0,0.037 0.0013,0.088 0,0.125 0.279801,-0.093 0.564246,-0.1563 0.875,-0.1563 1.483418,0 2.688442,1.1427 2.8125,2.5938 0.0056,-0.073 0.03125,-0.1446 0.03125,-0.2188 0,-1.5661 -1.277741,-2.8437 -2.84375,-2.8437 -0.310754,0 -0.595199,0.063 -0.875,0.1562 0.0013,-0.037 0,-0.057 0,-0.094 0,-1.9511 -1.580082,-3.5313 -3.53125,-3.5313 -1.00857,0 -1.918784,0.416 -2.5625,1.0938 C 16.503984,1024.3786 15.620173,1023.9572 14.615956,1023.9572 Z"
           style="fill:#000000;fill-opacity:0.11689226;stroke:none" />
        <path
           style="fill:#000000;fill-opacity:0.05882353;stroke:none"
           d="m 14.615956,1023.5236 c -1.951168,0 -3.53125,1.5801 -3.53125,3.5313 0,0.038 -0.0013,0.057 0,0.094 -0.282049,-0.095 -0.592593,-0.1562 -0.90625,-0.1562 -1.566008,0 -2.8437495,1.2777 -2.8437495,2.8437 0,0.076 0.025385,0.1443 0.03125,0.2188 0.1240584,-1.451 1.3290824,-2.5938 2.8124995,-2.5938 0.313657,0 0.624201,0.061 0.90625,0.1563 -0.0013,-0.037 0,-0.087 0,-0.125 0,-1.9512 1.580082,-3.5313 3.53125,-3.5313 1.004217,0 1.888028,0.4214 2.53125,1.0938 0.643716,-0.6778 1.55393,-1.0938 2.5625,-1.0938 1.951168,0 3.53125,1.5802 3.53125,3.5313 0,0.037 0.0013,0.088 0,0.125 0.279801,-0.093 0.564246,-0.1563 0.875,-0.1563 1.483418,0 2.688442,1.1427 2.8125,2.5938 0.0056,-0.073 0.03125,-0.1446 0.03125,-0.2188 0,-1.5661 -1.277741,-2.8437 -2.84375,-2.8437 -0.310754,0 -0.595199,0.063 -0.875,0.1562 0.0013,-0.037 0,-0.057 0,-0.094 0,-1.9511 -1.580082,-3.5313 -3.53125,-3.5313 -1.00857,0 -1.918784,0.416 -2.5625,1.0938 C 16.503984,1023.945 15.620173,1023.5236 14.615956,1023.5236 Z"
           id="path1028"
           inkscape:connector-curvature="0" />
      </g>
      <path
         style="fill:#d2e0e9;fill-opacity:1;stroke:none"
         d="m 21.001378,1015.3582 c -0.939971,0 -1.700838,0.7608 -1.700838,1.7009 0,0.019 -6.11e-4,0.035 0,0.053 -0.135877,-0.046 -0.279356,-0.073 -0.430459,-0.073 -0.754422,0 -1.364871,0.6104 -1.364871,1.3647 0,0.751 0.6049,1.3592 1.354371,1.365 0.0036,1e-4 0.0069,0 0.0105,0 l 6.719361,0 0.06299,0 0,-0.011 c 0.724039,-0.034 1.301876,-0.6218 1.301876,-1.3544 0,-0.7545 -0.610449,-1.3649 -1.364871,-1.3649 -0.149704,0 -0.285166,0.029 -0.419959,0.074 6.1e-4,-0.018 0,-0.035 0,-0.053 0,-0.9399 -0.760868,-1.7008 -1.700838,-1.7008 -0.485877,0 -0.928775,0.1985 -1.238884,0.525 C 21.919891,1015.559 21.485158,1015.3582 21.001378,1015.3582 Z"
         id="path876"
         inkscape:connector-curvature="0" />
      <path
         inkscape:connector-curvature="0"
         id="path878"
         d="m 9.936921,1017.4257 c -2.551035,0 -4.6159876,2.0647 -4.6159876,4.6159 0,0.051 -0.00169,0.096 0,0.1429 -0.3687612,-0.1244 -0.758158,-0.1985 -1.1682434,-0.1985 -2.047461,0 -3.70418755,1.6566 -3.70418755,3.704 0,2.038 1.64166545,3.6887 3.67569235,3.7043 0.00978,3e-4 0.01878,0 0.028488,0 l 18.2359991,0 0.170951,0 0,-0.029 c 1.965004,-0.093 3.533223,-1.6876 3.533223,-3.6759 0,-2.0476 -1.656726,-3.7041 -3.704188,-3.7041 -0.406289,0 -0.773926,0.08 -1.139747,0.2009 0.0017,-0.047 0,-0.096 0,-0.1427 0,-2.551 -2.064957,-4.616 -4.615988,-4.616 -1.318644,0 -2.520644,0.5386 -3.362264,1.4247 C 12.429715,1017.9706 11.249874,1017.4257 9.936921,1017.4257 Z"
         style="fill:#90aabe;fill-opacity:1;stroke:none" />
      <path
         inkscape:connector-curvature="0"
         id="path864"
         d="m 14.59736,1024.8515 c -1.951168,0 -3.530558,1.5794 -3.530558,3.5306 0,0.038 -0.0013,0.072 0,0.1089 -0.282049,-0.094 -0.57988,-0.1525 -0.893537,-0.1525 -1.5660083,0 -2.8331635,1.2671 -2.8331635,2.8331 0,1.5586 1.2556358,2.8213 2.8113705,2.8332 0.0074,10e-5 0.01437,0 0.02179,0 l 13.947885,0 0.130763,0 0,-0.023 c 1.50294,-0.071 2.702401,-1.2908 2.702401,-2.8114 0,-1.5662 -1.267154,-2.8333 -2.833164,-2.8333 -0.310753,0 -0.591942,0.061 -0.871742,0.1528 0.0013,-0.037 0,-0.072 0,-0.1091 0,-1.9512 -1.57939,-3.5306 -3.530559,-3.5306 -1.00857,0 -1.927925,0.4119 -2.571642,1.0898 C 16.503985,1025.2685 15.601577,1024.8515 14.59736,1024.8515 Z"
         style="fill:#d2e0e9;fill-opacity:1;stroke:none" />
      <g
         id="g1017">
        <path
           inkscape:connector-curvature="0"
           id="path1011"
           d="m 14.615956,1024.3908 c -1.951168,0 -3.53125,1.5801 -3.53125,3.5313 0,0.038 -0.0013,0.057 0,0.094 -0.282049,-0.095 -0.592593,-0.1562 -0.90625,-0.1562 -1.566008,0 -2.8437495,1.2777 -2.8437495,2.8437 0,0.076 0.025385,0.1443 0.03125,0.2188 0.1240584,-1.451 1.3290824,-2.5938 2.8124995,-2.5938 0.313657,0 0.624201,0.061 0.90625,0.1563 -0.0013,-0.037 0,-0.087 0,-0.125 0,-1.9512 1.580082,-3.5313 3.53125,-3.5313 1.004217,0 1.888028,0.4214 2.53125,1.0938 0.643716,-0.6778 1.55393,-1.0938 2.5625,-1.0938 1.951168,0 3.53125,1.5802 3.53125,3.5313 0,0.037 0.0013,0.088 0,0.125 0.279801,-0.093 0.564246,-0.1563 0.875,-0.1563 1.483418,0 2.688442,1.1427 2.8125,2.5938 0.0056,-0.073 0.03125,-0.1446 0.03125,-0.2188 0,-1.5661 -1.277741,-2.8437 -2.84375,-2.8437 -0.310754,0 -0.595199,0.063 -0.875,0.1562 0.0013,-0.037 0,-0.057 0,-0.094 0,-1.9511 -1.580082,-3.5313 -3.53125,-3.5313 -1.00857,0 -1.918784,0.416 -2.5625,1.0938 C 16.503984,1024.8122 15.620173,1024.3908 14.615956,1024.3908 Z"
           style="fill:#000000;fill-opacity:0.23529412;stroke:none" />
        <path
           style="fill:#000000;fill-opacity:0.11689226;stroke:none"
           d="m 14.615956,1023.9572 c -1.951168,0 -3.53125,1.5801 -3.53125,3.5313 0,0.038 -0.0013,0.057 0,0.094 -0.282049,-0.095 -0.592593,-0.1562 -0.90625,-0.1562 -1.566008,0 -2.8437495,1.2777 -2.8437495,2.8437 0,0.076 0.025385,0.1443 0.03125,0.2188 0.1240584,-1.451 1.3290824,-2.5938 2.8124995,-2.5938 0.313657,0 0.624201,0.061 0.90625,0.1563 -0.0013,-0.037 0,-0.087 0,-0.125 0,-1.9512 1.580082,-3.5313 3.53125,-3.5313 1.004217,0 1.888028,0.4214 2.53125,1.0938 0.643716,-0.6778 1.55393,-1.0938 2.5625,-1.0938 1.951168,0 3.53125,1.5802 3.53125,3.5313 0,0.037 0.0013,0.088 0,0.125 0.279801,-0.093 0.564246,-0.1563 0.875,-0.1563 1.483418,0 2.688442,1.1427 2.8125,2.5938 0.0056,-0.073 0.03125,-0.1446 0.03125,-0.2188 0,-1.5661 -1.277741,-2.8437 -2.84375,-2.8437 -0.310754,0 -0.595199,0.063 -0.875,0.1562 0.0013,-0.037 0,-0.057 0,-0.094 0,-1.9511 -1.580082,-3.5313 -3.53125,-3.5313 -1.00857,0 -1.918784,0.416 -2.5625,1.0938 C 16.503984,1024.3786 15.620173,1023.9572 14.615956,1023.9572 Z"
           id="path1013"
           inkscape:connector-curvature="0" />
        <path
           inkscape:connector-curvature="0"
           id="path1015"
           d="m 14.615956,1023.5236 c -1.951168,0 -3.53125,1.5801 -3.53125,3.5313 0,0.038 -0.0013,0.057 0,0.094 -0.282049,-0.095 -0.592593,-0.1562 -0.90625,-0.1562 -1.566008,0 -2.8437495,1.2777 -2.8437495,2.8437 0,0.076 0.025385,0.1443 0.03125,0.2188 0.1240584,-1.451 1.3290824,-2.5938 2.8124995,-2.5938 0.313657,0 0.624201,0.061 0.90625,0.1563 -0.0013,-0.037 0,-0.087 0,-0.125 0,-1.9512 1.580082,-3.5313 3.53125,-3.5313 1.004217,0 1.888028,0.4214 2.53125,1.0938 0.643716,-0.6778 1.55393,-1.0938 2.5625,-1.0938 1.951168,0 3.53125,1.5802 3.53125,3.5313 0,0.037 0.0013,0.088 0,0.125 0.279801,-0.093 0.564246,-0.1563 0.875,-0.1563 1.483418,0 2.688442,1.1427 2.8125,2.5938 0.0056,-0.073 0.03125,-0.1446 0.03125,-0.2188 0,-1.5661 -1.277741,-2.8437 -2.84375,-2.8437 -0.310754,0 -0.595199,0.063 -0.875,0.1562 0.0013,-0.037 0,-0.057 0,-0.094 0,-1.9511 -1.580082,-3.5313 -3.53125,-3.5313 -1.00857,0 -1.918784,0.416 -2.5625,1.0938 C 16.503984,1023.945 15.620173,1023.5236 14.615956,1023.5236 Z"
           style="fill:#000000;fill-opacity:0.05882353;stroke:none" />
      </g>
      <path
         inkscape:connector-curvature="0"
         id="path882"
         d="m 0,1025.2556 0,25.2183 c 0,1.0499 0.83838978,1.8883 1.8883249,1.8883 l 13.9796951,0 c 3.430189,-1.0945 5.90863,-4.2725 5.90863,-8.0711 0,-4.7162 -3.811844,-8.5279 -8.527919,-8.5279 -0.935838,0 -1.776667,0.178 -2.619289,0.4569 0.0038,-0.1072 0,-0.2261 0,-0.3351 C 10.629442,1030.0092 5.8759846,1025.2556 0,1025.2556 Z"
         style="fill:#a6bece;fill-opacity:1;stroke:none" />
      <path
         inkscape:connector-curvature="0"
         id="path997"
         d="m 7.8125,1040.0185 c -2.5784199,0 -4.6875,2.109 -4.6875,4.6875 0,0.051 -0.0017,0.077 0,0.125 -0.372719,-0.1258 -0.773011,-0.1875 -1.1875,-0.1875 -0.716442,0 -1.368821,0.2143 -1.9375,0.5625 l 0,0.5625 c 0.568679,-0.3482 1.221058,-0.5625 1.9375,-0.5625 0.414489,0 0.814781,0.062 1.1875,0.1875 -0.0017,-0.048 0,-0.074 0,-0.125 0,-2.5785 2.1090801,-4.6875 4.6875,-4.6875 1.327047,0 2.493768,0.5777 3.34375,1.4687 0.850654,-0.8956 2.073449,-1.4375 3.40625,-1.4375 2.578415,0 4.65625,2.078 4.65625,4.6563 0,0.048 0.0016,0.1092 0,0.1562 0.369747,-0.1228 0.745599,-0.2187 1.15625,-0.2187 1.983214,0 3.587306,1.5506 3.71875,3.5 0.0089,-0.1053 0.03125,-0.2047 0.03125,-0.3125 0,-2.0694 -1.680559,-3.75 -3.75,-3.75 -0.410651,0 -0.786503,0.096 -1.15625,0.2187 0.0016,-0.047 0,-0.1083 0,-0.1562 0,-2.5783 -2.077835,-4.6563 -4.65625,-4.6563 -1.332801,0 -2.555596,0.5419 -3.40625,1.4375 C 10.306268,1040.5962 9.139547,1040.0185 7.8125,1040.0185 Z"
         style="fill:#000000;fill-opacity:0;stroke:none" />
      <path
         style="fill:#d2e0e9;fill-opacity:1;stroke:none"
         d="m 8.3932613,1039.6685 c -1.9511683,0 -3.5305583,1.5793 -3.5305583,3.5305 0,0.038 -0.00127,0.072 0,0.109 -0.282049,-0.095 -0.57988,-0.1525 -0.8935369,-0.1525 -1.5660085,0 -2.8331636,1.2671 -2.8331636,2.8331 0,1.5586 1.2556357,2.8212 2.8113702,2.8331 0.00741,10e-5 0.014366,0 0.021793,0 l 13.9478843,0 0.130763,0 0,-0.022 c 1.502939,-0.071 2.702401,-1.2909 2.702401,-2.8115 0,-1.5661 -1.267155,-2.8332 -2.833164,-2.8332 -0.310754,0 -0.591942,0.06 -0.871743,0.1527 0.0013,-0.037 0,-0.072 0,-0.1091 0,-1.9511 -1.57939,-3.5305 -3.530558,-3.5305 -1.00857,0 -1.927926,0.4119 -2.571642,1.0897 C 10.299886,1040.0854 9.3974779,1039.6685 8.3932613,1039.6685 Z"
         id="path886"
         inkscape:connector-curvature="0" />
      <path
         inkscape:connector-curvature="0"
         id="path897"
         d="m 24.529511,1044.6647 c -1.253427,0 -2.268024,1.0145 -2.268024,2.268 0,0.024 -8.14e-4,0.046 0,0.07 -0.181188,-0.061 -0.372513,-0.098 -0.574006,-0.098 -1.006001,0 -1.820019,0.814 -1.820019,1.82 0,1.0013 0.806618,1.8124 1.806018,1.82 0.0048,1e-4 0.0093,0 0.014,0 l 8.960093,0 0.084,0 0,-0.015 c 0.965486,-0.046 1.736017,-0.8292 1.736017,-1.8061 0,-1.0061 -0.814018,-1.82 -1.820019,-1.82 -0.199627,0 -0.380262,0.039 -0.560005,0.098 8.13e-4,-0.023 0,-0.046 0,-0.07 0,-1.2533 -1.014598,-2.2679 -2.268024,-2.2679 -0.647903,0 -1.238496,0.2645 -1.652018,0.6999 C 25.754323,1044.9325 25.174617,1044.6647 24.529511,1044.6647 Z"
         style="fill:#d2e0e9;fill-opacity:1;stroke:none" />
      <path
         id="path899"
         transform="translate(0,1004.3622)"
         d="M 43.40625 14.71875 C 38.280619 14.71875 34.125 18.874369 34.125 24 C 34.125 29.125631 38.280619 33.28125 43.40625 33.28125 C 45.087155 33.28125 46.640156 32.812665 48 32.03125 L 48 15.96875 C 46.640156 15.187335 45.087155 14.71875 43.40625 14.71875 z "
         style="fill:#ffffff;fill-opacity:1;stroke:none" />
      <path
         inkscape:transform-center-y="-0.11624058"
         inkscape:transform-center-x="0.36881015"
         transform="matrix(0.23843491,0.07515846,-0.07515846,0.23843491,50.982289,1014.6048)"
         d="m -23.486546,10.951046 -3.799178,-3.3432025 -4.961786,0.9957086 3.343202,-3.7991783 -0.995709,-4.96178623 3.799179,3.34320233 4.961786,-0.9957085 L -24.482254,5.9892597 Z"
         inkscape:randomized="0"
         inkscape:rounded="0"
         inkscape:flatsided="false"
         sodipodi:arg2="1.8325958"
         sodipodi:arg1="1.0471976"
         sodipodi:r2="2.2890234"
         sodipodi:r1="6.4134712"
         sodipodi:cy="5.3968167"
         sodipodi:cx="-26.693281"
         sodipodi:sides="4"
         id="path904"
         style="fill:#ffffff;fill-opacity:0.58995816;stroke:none"
         sodipodi:type="star" />
      <path
         inkscape:transform-center-y="-0.32187668"
         sodipodi:type="star"
         style="fill:#ffffff;fill-opacity:0.58995816;stroke:none"
         id="path906"
         sodipodi:sides="4"
         sodipodi:cx="-26.693281"
         sodipodi:cy="5.3968167"
         sodipodi:r1="6.4134712"
         sodipodi:r2="2.2890234"
         sodipodi:arg1="1.0471976"
         sodipodi:arg2="1.8325958"
         inkscape:flatsided="false"
         inkscape:rounded="0"
         inkscape:randomized="0"
         d="M -23.486546,10.951046 -27.285724,7.6078435 -32.24751,8.6035521 -28.904308,4.8043737 -29.900017,-0.15741243 -26.100838,3.18579 -21.139052,2.1900814 -24.482254,5.9892598 Z"
         transform="matrix(0.13856125,0.2080884,-0.2080884,0.13856125,39.188216,1024.4865)"
         inkscape:transform-center-x="0.21432598" />
      <path
         inkscape:transform-center-x="0.38669891"
         transform="matrix(0.25,0,0,0.25,38.867494,1026.6524)"
         d="M -23.486546,10.951046 -27.285724,7.6078435 -32.24751,8.6035521 -28.904308,4.8043737 -29.900017,-0.15741243 -26.100838,3.18579 -21.139052,2.1900814 -24.482254,5.9892598 Z"
         inkscape:randomized="0"
         inkscape:rounded="0"
         inkscape:flatsided="false"
         sodipodi:arg2="1.8325958"
         sodipodi:arg1="1.0471976"
         sodipodi:r2="2.2890234"
         sodipodi:r1="6.4134712"
         sodipodi:cy="5.3968167"
         sodipodi:cx="-26.693281"
         sodipodi:sides="4"
         id="path908"
         style="fill:#ffffff;fill-opacity:0.58995816;stroke:none"
         sodipodi:type="star" />
      <path
         inkscape:transform-center-y="-0.16997377"
         sodipodi:type="star"
         style="fill:#ffffff;fill-opacity:0.58995816;stroke:none"
         id="path910"
         sodipodi:sides="4"
         sodipodi:cx="-26.693281"
         sodipodi:cy="5.3968167"
         sodipodi:r1="6.4134712"
         sodipodi:r2="2.2890234"
         sodipodi:arg1="1.0471976"
         sodipodi:arg2="1.8325958"
         inkscape:flatsided="false"
         inkscape:rounded="0"
         inkscape:randomized="0"
         d="M -23.486546,10.951046 -27.285724,7.6078435 -32.24751,8.6035521 -28.904308,4.8043737 -29.900017,-0.15741243 -26.100838,3.18579 -21.139052,2.1900814 -24.482254,5.9892598 Z"
         transform="matrix(0.22456635,0.10986334,-0.10986334,0.22456635,42.820839,1041.5523)"
         inkscape:transform-center-x="0.34735865" />
      <path
         inkscape:transform-center-y="0.10984316"
         inkscape:transform-center-x="0.3707583"
         transform="matrix(0.23969456,-0.07103884,0.07103884,0.23969456,48.224965,1042.9216)"
         d="M -23.486546,10.951046 -27.285724,7.6078435 -32.24751,8.6035521 -28.904308,4.8043737 -29.900017,-0.15741243 -26.100838,3.18579 -21.139052,2.1900814 -24.482254,5.9892598 Z"
         inkscape:randomized="0"
         inkscape:rounded="0"
         inkscape:flatsided="false"
         sodipodi:arg2="1.8325958"
         sodipodi:arg1="1.0471976"
         sodipodi:r2="2.2890234"
         sodipodi:r1="6.4134712"
         sodipodi:cy="5.3968167"
         sodipodi:cx="-26.693281"
         sodipodi:sides="4"
         id="path912"
         style="fill:#ffffff;fill-opacity:0.58995816;stroke:none"
         sodipodi:type="star" />
      <path
         inkscape:transform-center-y="-0.32187668"
         inkscape:transform-center-x="0.21432598"
         transform="matrix(0.13856125,0.2080884,-0.2080884,0.13856125,35.188216,1040.4865)"
         d="M -23.486546,10.951046 -27.285724,7.6078435 -32.24751,8.6035521 -28.904308,4.8043737 -29.900017,-0.15741243 -26.100838,3.18579 -21.139052,2.1900814 -24.482254,5.9892598 Z"
         inkscape:randomized="0"
         inkscape:rounded="0"
         inkscape:flatsided="false"
         sodipodi:arg2="1.8325958"
         sodipodi:arg1="1.0471976"
         sodipodi:r2="2.2890234"
         sodipodi:r1="6.4134712"
         sodipodi:cy="5.3968167"
         sodipodi:cx="-26.693281"
         sodipodi:sides="4"
         id="path914"
         style="fill:#ffffff;fill-opacity:0.58995816;stroke:none"
         sodipodi:type="star" />
      <path
         id="path958"
         transform="translate(0,1004.3622)"
         d="M 34.84375 20.375 C 34.374073 21.485381 34.125 22.718592 34.125 24 C 34.125 29.125631 38.280619 33.28125 43.40625 33.28125 C 45.087155 33.28125 46.640156 32.812665 48 32.03125 L 48 29.96875 C 46.79288 30.553894 45.464963 30.90625 44.03125 30.90625 C 38.905619 30.90625 34.75 26.7506 34.75 21.625 C 34.75 21.205584 34.789847 20.77968 34.84375 20.375 z "
         style="fill:#000000;fill-opacity:0.20502092;stroke:none" />
      <path
         inkscape:connector-curvature="0"
         id="path964"
         d="m 34.15625,1028.8708 c -0.0091,0.1686 -0.03125,0.3292 -0.03125,0.5 0,5.1257 4.155619,9.2813 9.28125,9.2813 1.680905,0 3.233906,-0.4686 4.59375,-1.25 l 0,-1 c -1.359844,0.7814 -2.912845,1.25 -4.59375,1.25 C 38.451426,1037.6521 34.420565,1033.7597 34.15625,1028.8708 Z"
         style="fill:#000000;fill-opacity:0.23457216;stroke:none" />
      <path
         style="fill:#000000;fill-opacity:0.11741734;stroke:none"
         d="m 34.15625,1029.8708 c -0.0091,0.1686 -0.03125,0.3292 -0.03125,0.5 0,5.1257 4.155619,9.2813 9.28125,9.2813 1.680905,0 3.233906,-0.4686 4.59375,-1.25 l 0,-1 c -1.359844,0.7814 -2.912845,1.25 -4.59375,1.25 C 38.451426,1038.6521 34.420565,1034.7597 34.15625,1029.8708 Z"
         id="path969"
         inkscape:connector-curvature="0" />
      <path
         inkscape:connector-curvature="0"
         id="path971"
         d="m 34.15625,1030.8747 c -0.0091,0.1686 -0.03125,0.3292 -0.03125,0.5 0,5.1257 4.155619,9.2813 9.28125,9.2813 1.680905,0 3.233906,-0.4686 4.59375,-1.25 l 0,-1 c -1.359844,0.7814 -2.912845,1.25 -4.59375,1.25 C 38.451426,1039.656 34.420565,1035.7636 34.15625,1030.8747 Z"
         style="fill:#000000;fill-opacity:0.05910246;stroke:none" />
      <path
         style="fill:#000000;fill-opacity:0.02745098;stroke:none"
         d="m 34.15625,1031.8669 c -0.0091,0.1686 -0.03125,0.3292 -0.03125,0.5 0,5.1257 4.155619,9.2813 9.28125,9.2813 1.680905,0 3.233906,-0.4686 4.59375,-1.25 l 0,-1 c -1.359844,0.7814 -2.912845,1.25 -4.59375,1.25 C 38.451426,1040.6482 34.420565,1036.7558 34.15625,1031.8669 Z"
         id="path973"
         inkscape:connector-curvature="0" />
      <path
         inkscape:connector-curvature="0"
         id="path975"
         d="m 8.40625,1039.2272 c -1.9511683,0 -3.53125,1.5801 -3.53125,3.5313 0,0.038 -0.00127,0.057 0,0.094 -0.282049,-0.095 -0.5925931,-0.1562 -0.90625,-0.1562 -1.5660085,0 -2.84375,1.2777 -2.84375,2.8437 0,0.076 0.025385,0.1443 0.03125,0.2188 0.1240584,-1.451 1.3290824,-2.5938 2.8125,-2.5938 0.3136569,0 0.624201,0.061 0.90625,0.1563 -0.00127,-0.037 0,-0.087 0,-0.125 0,-1.9512 1.5800817,-3.5313 3.53125,-3.5313 1.0042166,0 1.888028,0.4214 2.53125,1.0938 0.643716,-0.6778 1.55393,-1.0938 2.5625,-1.0938 1.951168,0 3.53125,1.5802 3.53125,3.5313 0,0.037 0.0013,0.088 0,0.125 0.279801,-0.093 0.564246,-0.1563 0.875,-0.1563 1.483418,0 2.688442,1.1427 2.8125,2.5938 0.0056,-0.073 0.03125,-0.1446 0.03125,-0.2188 0,-1.5661 -1.277741,-2.8437 -2.84375,-2.8437 -0.310754,0 -0.595199,0.063 -0.875,0.1562 0.0013,-0.037 0,-0.057 0,-0.094 0,-1.9511 -1.580082,-3.5313 -3.53125,-3.5313 -1.00857,0 -1.918784,0.416 -2.5625,1.0938 C 10.294278,1039.6486 9.4104666,1039.2272 8.40625,1039.2272 Z"
         style="fill:#000000;fill-opacity:0.23529412;stroke:none" />
      <path
         style="fill:#000000;fill-opacity:0.11689226;stroke:none"
         d="m 8.40625,1038.7936 c -1.9511683,0 -3.53125,1.5801 -3.53125,3.5313 0,0.038 -0.00127,0.057 0,0.094 -0.282049,-0.095 -0.5925931,-0.1562 -0.90625,-0.1562 -1.5660085,0 -2.84375,1.2777 -2.84375,2.8437 0,0.076 0.025385,0.1443 0.03125,0.2188 0.1240584,-1.451 1.3290824,-2.5938 2.8125,-2.5938 0.3136569,0 0.624201,0.061 0.90625,0.1563 -0.00127,-0.037 0,-0.087 0,-0.125 0,-1.9512 1.5800817,-3.5313 3.53125,-3.5313 1.0042166,0 1.888028,0.4214 2.53125,1.0938 0.643716,-0.6778 1.55393,-1.0938 2.5625,-1.0938 1.951168,0 3.53125,1.5802 3.53125,3.5313 0,0.037 0.0013,0.088 0,0.125 0.279801,-0.093 0.564246,-0.1563 0.875,-0.1563 1.483418,0 2.688442,1.1427 2.8125,2.5938 0.0056,-0.073 0.03125,-0.1446 0.03125,-0.2188 0,-1.5661 -1.277741,-2.8437 -2.84375,-2.8437 -0.310754,0 -0.595199,0.063 -0.875,0.1562 0.0013,-0.037 0,-0.057 0,-0.094 0,-1.9511 -1.580082,-3.5313 -3.53125,-3.5313 -1.00857,0 -1.918784,0.416 -2.5625,1.0938 C 10.294278,1039.215 9.4104666,1038.7936 8.40625,1038.7936 Z"
         id="path980"
         inkscape:connector-curvature="0" />
      <path
         inkscape:connector-curvature="0"
         id="path982"
         d="m 8.40625,1038.36 c -1.9511683,0 -3.53125,1.5801 -3.53125,3.5313 0,0.038 -0.00127,0.057 0,0.094 -0.282049,-0.095 -0.5925931,-0.1562 -0.90625,-0.1562 -1.5660085,0 -2.84375,1.2777 -2.84375,2.8437 0,0.076 0.025385,0.1443 0.03125,0.2188 0.1240584,-1.451 1.3290824,-2.5938 2.8125,-2.5938 0.3136569,0 0.624201,0.061 0.90625,0.1563 -0.00127,-0.037 0,-0.087 0,-0.125 0,-1.9512 1.5800817,-3.5313 3.53125,-3.5313 1.0042166,0 1.888028,0.4214 2.53125,1.0938 0.643716,-0.6778 1.55393,-1.0938 2.5625,-1.0938 1.951168,0 3.53125,1.5802 3.53125,3.5313 0,0.037 0.0013,0.088 0,0.125 0.279801,-0.093 0.564246,-0.1563 0.875,-0.1563 1.483418,0 2.688442,1.1427 2.8125,2.5938 0.0056,-0.073 0.03125,-0.1446 0.03125,-0.2188 0,-1.5661 -1.277741,-2.8437 -2.84375,-2.8437 -0.310754,0 -0.595199,0.063 -0.875,0.1562 0.0013,-0.037 0,-0.057 0,-0.094 0,-1.9511 -1.580082,-3.5313 -3.53125,-3.5313 -1.00857,0 -1.918784,0.416 -2.5625,1.0938 C 10.294278,1038.7814 9.4104666,1038.36 8.40625,1038.36 Z"
         style="fill:#000000;fill-opacity:0.05882353;stroke:none" />
      <path
         inkscape:connector-curvature="0"
         id="path984"
         d="m 24.656298,1044.5927 c -0.519376,0 -0.99283,0.1755 -1.375,0.4688 0.361955,-0.2445 0.779965,-0.4063 1.25,-0.4063 0.645106,0 1.243049,0.2877 1.65625,0.7188 0.02947,-0.031 0.06252,-0.064 0.09375,-0.094 C 25.868097,1044.8491 25.301404,1044.5927 24.656298,1044.5927 z m 3.28125,0 c -0.363331,0 -0.693834,0.1002 -1,0.25 0.272925,-0.1131 0.561745,-0.1875 0.875,-0.1875 1.253426,0 2.28125,1.028 2.28125,2.2813 0,0.024 8.13e-4,0.04 0,0.062 0.179743,-0.059 0.362873,-0.094 0.5625,-0.094 1.006001,0 1.8125,0.8064 1.8125,1.8125 0,0.6106 -0.288544,1.1422 -0.75,1.4688 0.52513,-0.3158 0.875,-0.8719 0.875,-1.5313 0,-1.0061 -0.806499,-1.8437 -1.8125,-1.8437 -0.199627,0 -0.382757,0.035 -0.5625,0.094 8.13e-4,-0.023 0,-0.039 0,-0.062 C 30.218798,1045.5894 29.190974,1044.5927 27.937548,1044.5927 z m -6.125,2.2188 c -0.29174,0 -0.568222,0.097 -0.8125,0.2187 0.217783,-0.092 0.436,-0.125 0.6875,-0.125 0.201493,0 0.412562,0.033 0.59375,0.094 -8.14e-4,-0.024 0,-0.038 0,-0.062 0,-0.021 -5.55e-4,-0.042 0,-0.062 C 22.128149,1046.8305 21.979669,1046.8115 21.812548,1046.8115 z m -0.8125,0.2187 c -0.113529,0.057 -0.214022,0.1094 -0.3125,0.1875 C 20.784366,1047.1523 20.891156,1047.0762 21.000048,1047.0302 Z"
         style="fill:#000000;fill-opacity:0.23534334;stroke:none" />
      <path
         style="fill:#000000;fill-opacity:0.11689228;stroke:none"
         d="m 24.773485,1044.5029 c -0.519376,0 -0.99283,0.1755 -1.375,0.4688 0.361956,-0.2445 0.779965,-0.4063 1.25,-0.4063 0.645106,0 1.243049,0.2877 1.65625,0.7188 0.02947,-0.031 0.06252,-0.064 0.09375,-0.094 C 25.985284,1044.7593 25.418591,1044.5029 24.773485,1044.5029 z m 3.28125,0 c -0.36333,0 -0.693833,0.1002 -1,0.25 0.272925,-0.1131 0.561745,-0.1875 0.875,-0.1875 1.253427,0 2.28125,1.028 2.28125,2.2813 0,0.024 8.13e-4,0.04 0,0.062 0.179743,-0.059 0.362873,-0.094 0.5625,-0.094 1.006002,0 1.8125,0.8064 1.8125,1.8125 0,0.6106 -0.288544,1.1422 -0.75,1.4688 0.52513,-0.3158 0.875,-0.8719 0.875,-1.5313 0,-1.0061 -0.806498,-1.8437 -1.8125,-1.8437 -0.199627,0 -0.382757,0.035 -0.5625,0.094 8.13e-4,-0.023 0,-0.039 0,-0.062 C 30.335985,1045.4996 29.308162,1044.5029 28.054735,1044.5029 z m -6.125,2.2188 c -0.29174,0 -0.568221,0.097 -0.8125,0.2187 0.217783,-0.092 0.436,-0.125 0.6875,-0.125 0.201493,0 0.412563,0.033 0.59375,0.094 -8.13e-4,-0.024 0,-0.038 0,-0.062 0,-0.021 -5.54e-4,-0.042 0,-0.062 C 22.245336,1046.7407 22.096856,1046.7217 21.929735,1046.7217 z m -0.8125,0.2187 c -0.113529,0.057 -0.214022,0.1094 -0.3125,0.1875 C 20.901553,1047.0625 21.008343,1046.9864 21.117235,1046.9404 Z"
         id="path989"
         inkscape:connector-curvature="0" />
      <path
         inkscape:connector-curvature="0"
         id="path991"
         d="m 24.890673,1044.4092 c -0.519376,0 -0.99283,0.1755 -1.375,0.4688 0.361956,-0.2445 0.779965,-0.4063 1.25,-0.4063 0.645106,0 1.243049,0.2877 1.65625,0.7188 0.02947,-0.031 0.06252,-0.064 0.09375,-0.094 C 26.102472,1044.6656 25.535779,1044.4092 24.890673,1044.4092 z m 3.28125,0 c -0.36333,0 -0.693833,0.1002 -1,0.25 0.272925,-0.1131 0.561745,-0.1875 0.875,-0.1875 1.253427,0 2.28125,1.028 2.28125,2.2813 0,0.024 8.13e-4,0.04 0,0.062 0.179743,-0.059 0.362873,-0.094 0.5625,-0.094 1.006002,0 1.8125,0.8064 1.8125,1.8125 0,0.6106 -0.288544,1.1422 -0.75,1.4688 0.525129,-0.3158 0.875,-0.8719 0.875,-1.5313 0,-1.0061 -0.806498,-1.8437 -1.8125,-1.8437 -0.199627,0 -0.382757,0.035 -0.5625,0.094 8.13e-4,-0.023 0,-0.039 0,-0.062 C 30.453173,1045.4059 29.42535,1044.4092 28.171923,1044.4092 z m -6.125,2.2188 c -0.29174,0 -0.568221,0.097 -0.8125,0.2187 0.217783,-0.092 0.436,-0.125 0.6875,-0.125 0.201493,0 0.412563,0.033 0.59375,0.094 -8.13e-4,-0.024 0,-0.038 0,-0.062 0,-0.021 -5.54e-4,-0.042 0,-0.062 C 22.362524,1046.647 22.214044,1046.628 22.046923,1046.628 z m -0.8125,0.2187 c -0.113529,0.057 -0.214022,0.1094 -0.3125,0.1875 C 21.018741,1046.9688 21.125531,1046.8927 21.234423,1046.8467 Z"
         style="fill:#000000;fill-opacity:0.05882353;stroke:none" />
      <path
         inkscape:connector-curvature="0"
         id="path1002"
         d="m 0,1024.5282 0,0.75 c 5.8759846,0 10.625,4.7492 10.625,10.625 0,0.109 0.0038,0.2053 0,0.3125 0.842622,-0.2789 1.689162,-0.4375 2.625,-0.4375 4.621065,0 8.350664,3.6657 8.5,8.25 0.0089,-0.1597 0.03125,-0.3067 0.03125,-0.4688 0,-4.7162 -3.815175,-8.5312 -8.53125,-8.5312 -0.935838,0 -1.782378,0.1586 -2.625,0.4375 0.0038,-0.1072 0,-0.2035 0,-0.3125 C 10.625,1029.2774 5.8759846,1024.5282 0,1024.5282 Z"
         style="fill:#000000;fill-opacity:0.23534334;stroke:none" />
      <path
         style="fill:#000000;fill-opacity:0.11794241;stroke:none"
         d="m 0,1023.7769 0,0.75 c 5.8759846,0 10.625,4.7492 10.625,10.625 0,0.109 0.0038,0.2053 0,0.3125 0.842622,-0.2789 1.689162,-0.4375 2.625,-0.4375 4.621065,0 8.350664,3.6657 8.5,8.25 0.0089,-0.1597 0.03125,-0.3067 0.03125,-0.4688 0,-4.7162 -3.815175,-8.5312 -8.53125,-8.5312 -0.935838,0 -1.782378,0.1586 -2.625,0.4375 0.0038,-0.1072 0,-0.2035 0,-0.3125 C 10.625,1028.5261 5.8759846,1023.7769 0,1023.7769 Z"
         id="path1007"
         inkscape:connector-curvature="0" />
      <path
         inkscape:connector-curvature="0"
         id="path1009"
         d="m 0,1023.0366 0,0.75 c 5.8759846,0 10.625,4.7492 10.625,10.625 0,0.109 0.0038,0.2053 0,0.3125 0.842622,-0.2789 1.689162,-0.4375 2.625,-0.4375 4.621065,0 8.350664,3.6657 8.5,8.25 0.0089,-0.1597 0.03125,-0.3067 0.03125,-0.4688 0,-4.7162 -3.815175,-8.5312 -8.53125,-8.5312 -0.935838,0 -1.782378,0.1586 -2.625,0.4375 0.0038,-0.1072 0,-0.2035 0,-0.3125 C 10.625,1027.7858 5.8759846,1023.0366 0,1023.0366 Z"
         style="fill:#000000;fill-opacity:0.05857741;stroke:none" />
      <path
         id="path1030"
         transform="translate(0,1004.3622)"
         d="M 8.5 6 C 6.6498021 6 4.9933821 6.7567 3.8125 8 C 2.8266539 6.9667 1.4813014 6.2661 0 6.0625 L 0 6.84375 C 1.4813014 7.04735 2.8266539 7.74795 3.8125 8.78125 C 4.9933821 7.53795 6.6498021 6.78125 8.5 6.78125 C 12.079367 6.78125 15 9.6703 15 13.25 C 15 13.3164 15.0023 13.3725 15 13.4375 C 15.513285 13.2676 16.023682 13.15625 16.59375 13.15625 C 19.287005 13.15625 21.48626 15.219918 21.75 17.84375 C 21.753754 17.762399 21.78125 17.676121 21.78125 17.59375 C 21.78125 14.72075 19.466555 12.40625 16.59375 12.40625 C 16.023682 12.40625 15.513285 12.48635 15 12.65625 C 15.0023 12.59125 15 12.5664 15 12.5 C 15 8.9203 12.079367 6 8.5 6 z "
         style="fill:#ffffff;fill-opacity:0.39748955;stroke:none" />
    </g>
    <path
       inkscape:connector-curvature="0"
       style="fill:#000000;fill-opacity:1;stroke:none"
       d="m -2.0968628e-7,1049.3622 0,1.0625 c 0,1.0773 0.86022299968628,1.9375 1.93750000968628,1.9375 l 44.1250002,0 c 1.077277,0 1.9375,-0.8602 1.9375,-1.9375 l 0,-1.0625 c 0,1.0773 -0.860223,1.9375 -1.9375,1.9375 l -44.1250002,0 C 0.86022279,1051.2997 -2.0968628e-7,1050.4395 -2.0968628e-7,1049.3622 Z"
       id="rect846" />
    <path
       inkscape:connector-curvature="0"
       style="fill:#ffffff;fill-opacity:0.5372549;stroke:none"
       d="m 2.5312498,1005.0185 c -0.917088,0 -1.67114701,0.6395 -1.84375001,1.5 0.33561201,-0.2799 0.77451201,-0.4375 1.25000001,-0.4375 l 44.1250002,0 c 0.475488,0 0.914388,0.1576 1.25,0.4375 -0.172603,-0.8605 -0.926662,-1.5 -1.84375,-1.5 L 2.5312498,1005.0185 Z"
       id="path7515" />
    <path
       inkscape:connector-curvature="0"
       style="fill:#000000;fill-opacity:0.39215686;stroke:none"
       d="m 1.9374998,1004.3622 c -1.07727701,0 -1.93750000968628,0.8602 -1.93750000968628,1.9375 l 0,43.0625 c 0,0.7934 0.48002399968628,1.449 1.15625000968628,1.75 -0.30934201,-0.3333 -0.50000001,-0.7824 -0.50000001,-1.2812 l 0,-42.9375 c 0,-1.0482 0.82689901,-1.875 1.87500001,-1.875 l 42.9375002,0 c 1.048101,0 1.875,0.8268 1.875,1.875 l 0,42.9375 c 0,0.4988 -0.190658,0.9479 -0.5,1.2812 0.676226,-0.301 1.15625,-0.9566 1.15625,-1.75 l 0,-43.0625 c 0,-1.0773 -0.860223,-1.9375 -1.9375,-1.9375 L 1.9374998,1004.3622 Z"
       id="rect4280" />
  </g>
</svg>
