<?xml version="1.0" encoding="UTF-8" standalone="no"?>
<!-- Created with Inkscape (http://www.inkscape.org/) -->

<svg
   xmlns:dc="http://purl.org/dc/elements/1.1/"
   xmlns:cc="http://creativecommons.org/ns#"
   xmlns:rdf="http://www.w3.org/1999/02/22-rdf-syntax-ns#"
   xmlns:svg="http://www.w3.org/2000/svg"
   xmlns="http://www.w3.org/2000/svg"
   xmlns:xlink="http://www.w3.org/1999/xlink"
   xmlns:sodipodi="http://sodipodi.sourceforge.net/DTD/sodipodi-0.dtd"
   xmlns:inkscape="http://www.inkscape.org/namespaces/inkscape"
   width="48"
   height="48"
   id="svg2"
   version="1.1"
   inkscape:version="0.48+devel r12923"
   sodipodi:docname="stormcloud.svg">
  <defs
     id="defs4">
    <linearGradient
       id="linearGradient4172"
       inkscape:collect="always">
      <stop
         id="stop4174"
         offset="0"
         style="stop-color:#1c8eff;stop-opacity:1;" />
      <stop
         id="stop4176"
         offset="1"
         style="stop-color:#44d2ff;stop-opacity:1" />
    </linearGradient>
    <linearGradient
       id="linearGradient827">
      <stop
         style="stop-color:#a5e1ff;stop-opacity:1"
         offset="0"
         id="stop829" />
      <stop
         style="stop-color:#f5fcff;stop-opacity:1"
         offset="1"
         id="stop831" />
    </linearGradient>
    <linearGradient
       gradientUnits="userSpaceOnUse"
       y2="-1004.3481"
       x2="25.455843"
       y1="-1052.3833"
       x1="25.455843"
       id="linearGradient1427"
       xlink:href="#linearGradient4172"
       inkscape:collect="always"
       gradientTransform="translate(4.2953495e-8,-8.6914063e-6)" />
    <linearGradient
       gradientUnits="userSpaceOnUse"
       y2="8.088563"
       x2="31.055349"
       y1="40.088562"
       x1="31.055349"
       id="linearGradient4126"
       xlink:href="#linearGradient827"
       inkscape:collect="always"
       gradientTransform="translate(4.2953495e-8,1004.3622)" />
    <linearGradient
       inkscape:collect="always"
       xlink:href="#linearGradient4172"
       id="linearGradient4323"
       x1="11.368813"
       y1="1032.7826"
       x2="11.368813"
       y2="1023.8499"
       gradientUnits="userSpaceOnUse"
       gradientTransform="matrix(2.0207992,0,0,2.0454547,2.4641629,-1072.9162)" />
  </defs>
  <sodipodi:namedview
     id="base"
     pagecolor="#ffffff"
     bordercolor="#666666"
     borderopacity="1.0"
     inkscape:pageopacity="0.0"
     inkscape:pageshadow="2"
     inkscape:zoom="5.5414759"
     inkscape:cx="18.295158"
     inkscape:cy="36.711071"
     inkscape:document-units="px"
     inkscape:current-layer="layer1"
     showgrid="false"
     inkscape:window-width="1366"
     inkscape:window-height="669"
     inkscape:window-x="0"
     inkscape:window-y="26"
     inkscape:window-maximized="1"
     showguides="true"
     inkscape:guide-bbox="true" />
  <metadata
     id="metadata7">
    <rdf:RDF>
      <cc:Work
         rdf:about="">
        <dc:format>image/svg+xml</dc:format>
        <dc:type
           rdf:resource="http://purl.org/dc/dcmitype/StillImage" />
        <dc:title></dc:title>
      </cc:Work>
    </rdf:RDF>
  </metadata>
  <g
     inkscape:label="Capa 1"
     inkscape:groupmode="layer"
     id="layer1"
     transform="translate(0,-1004.3622)">
    <g
       style="font-size:15.97661114px;font-style:normal;font-variant:normal;font-weight:bold;font-stretch:normal;line-height:125%;letter-spacing:0px;word-spacing:0px;fill:#000000;fill-opacity:1;stroke:none;font-family:Vemana2000;-inkscape-font-specification:Vemana2000 Bold"
       id="text966"
       transform="translate(-5.44113,0.44625201)" />
    <rect
       style="fill:url(#linearGradient1427);fill-opacity:1;stroke:none"
       id="rect2991-1-9"
       width="48"
       height="48"
       x="-4.2953488e-08"
       y="-1052.3622"
       ry="1.9445436"
       transform="scale(1,-1)" />
    <path
       id="path4192"
       d="m 25.623047,1013.5622 c -5.768461,0 -10.645137,3.8127 -12.251953,9.0547 C 7.55006,1023.1854 3,1028.0899 3,1034.0602 c 0,6.3522 5.149758,11.502 11.501953,11.502 0.13782,0 0.271556,-0.015 0.408203,-0.019 0.0678,0 0.132134,0.019 0.201172,0.019 l 20.53125,0 c 0.0543,0 0.10466,-0.013 0.158203,-0.016 0.107772,0 0.213547,0.016 0.322266,0.016 4.902448,0 8.876953,-3.9745 8.876953,-8.877 0,-4.147 -2.84757,-7.6188 -6.691406,-8.5937 0.07541,-0.5624 0.128906,-1.1318 0.128906,-1.7148 0,-7.0771 -5.737383,-12.8145 -12.814453,-12.8145 z"
       style="fill:#000000;fill-opacity:0.05882353;stroke:none"
       inkscape:connector-curvature="0" />
    <path
       inkscape:connector-curvature="0"
       style="fill:#000000;fill-opacity:0.11764706;stroke:none"
       d="m 25.623047,1013.1622 c -5.768461,0 -10.645137,3.8127 -12.251953,9.0547 C 7.55006,1022.7854 3,1027.6899 3,1033.6602 c 0,6.3522 5.149758,11.502 11.501953,11.502 0.13782,0 0.271556,-0.015 0.408203,-0.019 0.0678,0 0.132134,0.019 0.201172,0.019 l 20.53125,0 c 0.0543,0 0.10466,-0.013 0.158203,-0.016 0.107772,0 0.213547,0.016 0.322266,0.016 4.902448,0 8.876953,-3.9745 8.876953,-8.877 0,-4.147 -2.84757,-7.6188 -6.691406,-8.5937 0.07541,-0.5624 0.128906,-1.1318 0.128906,-1.7148 0,-7.0771 -5.737383,-12.8145 -12.814453,-12.8145 z"
       id="path4190" />
    <path
       id="path4188"
       d="m 25.623047,1012.7622 c -5.768461,0 -10.645137,3.8127 -12.251953,9.0547 C 7.55006,1022.3854 3,1027.2899 3,1033.2602 c 0,6.3522 5.149758,11.502 11.501953,11.502 0.13782,0 0.271556,-0.015 0.408203,-0.019 0.0678,0 0.132134,0.019 0.201172,0.019 l 20.53125,0 c 0.0543,0 0.10466,-0.013 0.158203,-0.016 0.107772,0 0.213547,0.016 0.322266,0.016 4.902448,0 8.876953,-3.9745 8.876953,-8.877 0,-4.147 -2.84757,-7.6188 -6.691406,-8.5937 0.07541,-0.5624 0.128906,-1.1318 0.128906,-1.7148 0,-7.0771 -5.737383,-12.8145 -12.814453,-12.8145 z"
       style="fill:#000000;fill-opacity:0.23529412;stroke:none"
       inkscape:connector-curvature="0" />
    <path
       inkscape:connector-curvature="0"
       style="fill:#000000;fill-opacity:1;stroke:none"
       d="m 2.8860477e-8,1049.3622 0,1.0625 c 0,1.0773 0.860222901139523,1.9375 1.937500071139523,1.9375 l 44.1249999,0 c 1.077277,0 1.9375,-0.8602 1.9375,-1.9375 l 0,-1.0625 c 0,1.0773 -0.860223,1.9375 -1.9375,1.9375 l -44.1249999,0 C 0.86022293,1051.2997 2.8860483e-8,1050.4395 2.8860483e-8,1049.3622 Z"
       id="rect846-6" />
    <path
       inkscape:connector-curvature="0"
       style="fill:#ffffff;fill-opacity:0.5372549;stroke:none"
       d="m 2.5312501,1005.0185 c -0.917089,0 -1.67114687,0.6395 -1.84375007,1.5 0.33561197,-0.2799 0.77451207,-0.4375 1.25000007,-0.4375 l 44.1249999,0 c 0.475488,0 0.914388,0.1576 1.25,0.4375 -0.172603,-0.8605 -0.926662,-1.5 -1.84375,-1.5 l -42.9374999,0 z"
       id="path7515-6" />
    <path
       inkscape:connector-curvature="0"
       style="fill:#000000;fill-opacity:0.39215686;stroke:none"
       d="m 1.9375001,1004.3622 c -1.07727707,0 -1.937500071139522,0.8602 -1.937500071139522,1.9375 l 0,43.0625 c 0,0.7934 0.480023601139522,1.449 1.156249871139522,1.75 -0.30934157,-0.3333 -0.49999987,-0.7824 -0.49999987,-1.2812 l 0,-42.9375 c 0,-1.0482 0.82689907,-1.875 1.87500007,-1.875 l 42.9374999,0 c 1.048101,0 1.875,0.8268 1.875,1.875 l 0,42.9375 c 0,0.4988 -0.190658,0.9479 -0.5,1.2812 0.676226,-0.301 1.15625,-0.9566 1.15625,-1.75 l 0,-43.0625 c 0,-1.0773 -0.860223,-1.9375 -1.9375,-1.9375 l -44.1249999,0 z"
       id="rect4280-1" />
    <path
       inkscape:connector-curvature="0"
       style="fill:url(#linearGradient4126);fill-opacity:1;stroke:none"
       d="m 25.623047,1012.3622 c -5.768461,0 -10.645137,3.8127 -12.251953,9.0547 C 7.55006,1021.9854 3,1026.8899 3,1032.8602 c 0,6.3522 5.149758,11.502 11.501953,11.502 0.13782,0 0.271556,-0.015 0.408203,-0.02 0.0678,0 0.132134,0.02 0.201172,0.02 l 20.53125,0 c 0.0543,0 0.10466,-0.013 0.158203,-0.016 0.107772,0 0.213547,0.016 0.322266,0.016 4.902448,0 8.876953,-3.9745 8.876953,-8.877 0,-4.147 -2.84757,-7.6188 -6.691406,-8.5937 0.07541,-0.5624 0.128906,-1.1318 0.128906,-1.7148 0,-7.0771 -5.737383,-12.8145 -12.814453,-12.8145 z"
       id="path4056" />
    <path
       inkscape:connector-curvature="0"
       style="fill:#1d8fff;fill-opacity:0.31372549;stroke:none"
       d="m 38.410156,1024.6278 c -0.02231,0.3581 -0.05449,0.7134 -0.101562,1.0645 0.03573,0.01 0.06992,0.022 0.105468,0.031 0.0097,-0.1817 0.02344,-0.3626 0.02344,-0.5468 0,-0.1853 -0.01956,-0.3656 -0.02734,-0.5489 z M 3.0292969,1032.247 C 3.0184931,1032.4513 3,1032.6532 3,1032.8602 c 0,6.3522 5.1497581,11.502 11.501953,11.502 0.13782,0 0.271556,-0.015 0.408203,-0.02 0.0678,0 0.132134,0.02 0.201172,0.02 l 20.53125,0 c 0.0543,0 0.10466,-0.013 0.158203,-0.016 0.107772,0 0.213547,0.016 0.322266,0.016 4.902448,0 8.876953,-3.9745 8.876953,-8.877 0,-0.2157 -0.01219,-0.4287 -0.02734,-0.6406 -0.290073,4.6406 -4.136016,8.3184 -8.849609,8.3184 -0.108719,0 -0.214494,-0.018 -0.322266,-0.018 -0.05354,0 -0.103903,0.018 -0.158203,0.018 l -20.53125,0 c -0.06904,0 -0.133372,-0.02 -0.201172,-0.02 -0.136647,0 -0.270383,0.02 -0.408203,0.02 -6.1543466,0 -11.1655645,-4.838 -11.4726561,-10.916 z"
       id="path4194" />
    <path
       inkscape:connector-curvature="0"
       style="fill:#ffffff;fill-opacity:0.23529412;stroke:none"
       d="m 25.623047,1012.3622 c -5.768461,0 -10.645137,3.8127 -12.251953,9.0547 C 7.5500597,1021.9854 3,1026.8899 3,1032.8602 c 0,0.066 0.00866,0.1297 0.00977,0.1954 0.1036723,-5.8764 4.6076672,-10.6764 10.361328,-11.2383 1.606816,-5.242 6.483492,-9.0547 12.251953,-9.0547 7.015098,0 12.70542,5.6393 12.804687,12.6309 0.0016,-0.073 0.0098,-0.1438 0.0098,-0.2168 -3.8e-5,-7.0771 -5.737421,-12.8145 -12.814491,-12.8145 z m 12.726562,14.541 c -0.01457,0.1294 -0.02377,0.2601 -0.04102,0.3887 3.777366,0.958 6.585403,4.329 6.68164,8.3808 0.0013,-0.063 0.0098,-0.1242 0.0098,-0.1875 0,-4.132 -2.827587,-7.5927 -6.650391,-8.582 z"
       id="path4199" />
    <path
       style="fill:#000000;fill-opacity:0.05882353"
       inkscape:connector-curvature="0"
       d="m 25.267782,1029.4366 2.437756,-6.7744 -6.852395,0 -1.853143,9.8717 3.426941,0 -1.797571,8.1283 1.139599,0 L 29,1029.4366 l -3.732218,0 z"
       id="path4350" />
    <path
       id="path4348"
       d="m 25.267782,1029.0366 2.437756,-6.7744 -6.852395,0 -1.853143,9.8717 3.426941,0 -1.797571,8.1283 1.139599,0 L 29,1029.0366 l -3.732218,0 z"
       inkscape:connector-curvature="0"
       style="fill:#000000;fill-opacity:0.11764706" />
    <path
       style="fill:#000000;fill-opacity:0.23529412"
       inkscape:connector-curvature="0"
       d="m 25.267782,1028.6366 2.437756,-6.7744 -6.852395,0 -1.853143,9.8717 3.426941,0 -1.797571,8.1283 1.139599,0 L 29,1028.6366 l -3.732218,0 z"
       id="path4344" />
    <path
       id="path467"
       d="m 25.267782,1028.2366 2.437756,-6.7744 -6.852395,0 -1.853143,9.8717 3.426941,0 -1.797571,8.1283 1.139599,0 L 29,1028.2366 l -3.732218,0 z"
       inkscape:connector-curvature="0"
       style="fill:url(#linearGradient4323);fill-opacity:1" />
    <path
       style="fill:#003d78;fill-opacity:0.3137255"
       d="M 27.417969 17.099609 L 25.267578 23.074219 L 25.556641 23.074219 L 27.705078 17.099609 L 27.417969 17.099609 z M 28.484375 23.875 L 21.769531 34.300781 L 20.806641 34.300781 L 20.628906 35.099609 L 21.769531 35.099609 L 29 23.875 L 28.484375 23.875 z M 19.150391 26.171875 L 19 26.972656 L 22.25 26.972656 L 22.427734 26.171875 L 19.150391 26.171875 z "
       transform="translate(0,1004.3622)"
       id="path4352" />
    <path
       style="fill:#ffffff;fill-opacity:0.23529412"
       d="M 20.853516 17.099609 L 19 26.972656 L 19.074219 26.972656 L 20.853516 17.5 L 27.560547 17.5 L 27.705078 17.099609 L 20.853516 17.099609 z M 25.410156 23.875 L 25.267578 24.273438 L 28.744141 24.273438 L 29 23.875 L 25.410156 23.875 z M 22.339844 27.371094 L 20.628906 35.099609 L 20.716797 35.099609 L 22.427734 27.371094 L 22.339844 27.371094 z "
       transform="translate(0,1004.3622)"
       id="path4357" />
  </g>
</svg>
