<?xml version="1.0" encoding="UTF-8" standalone="no"?>
<!-- Created with Inkscape (http://www.inkscape.org/) -->

<svg
   xmlns:dc="http://purl.org/dc/elements/1.1/"
   xmlns:cc="http://creativecommons.org/ns#"
   xmlns:rdf="http://www.w3.org/1999/02/22-rdf-syntax-ns#"
   xmlns:svg="http://www.w3.org/2000/svg"
   xmlns="http://www.w3.org/2000/svg"
   xmlns:xlink="http://www.w3.org/1999/xlink"
   xmlns:sodipodi="http://sodipodi.sourceforge.net/DTD/sodipodi-0.dtd"
   xmlns:inkscape="http://www.inkscape.org/namespaces/inkscape"
   width="48"
   height="48"
   id="svg2"
   version="1.1"
   inkscape:version="0.48+devel r12487"
   sodipodi:docname="sublime_text.svg">
  <defs
     id="defs4">
    <linearGradient
       id="linearGradient4186">
      <stop
         style="stop-color:#444444;stop-opacity:1"
         offset="0"
         id="stop4188" />
      <stop
         style="stop-color:#1a1a1a;stop-opacity:1"
         offset="1"
         id="stop4190" />
    </linearGradient>
    <linearGradient
       inkscape:collect="always"
       id="linearGradient4159">
      <stop
         style="stop-color:#fe8d10;stop-opacity:1"
         offset="0"
         id="stop4161" />
      <stop
         style="stop-color:#ffb715;stop-opacity:0.99607843"
         offset="1"
         id="stop4163" />
    </linearGradient>
    <linearGradient
       inkscape:collect="always"
       id="linearGradient4135">
      <stop
         style="stop-color:#ffffff;stop-opacity:0.90196079"
         offset="0"
         id="stop4137" />
      <stop
         style="stop-color:#ffffff;stop-opacity:0"
         offset="1"
         id="stop4139" />
    </linearGradient>
    <linearGradient
       id="linearGradient4127"
       inkscape:collect="always">
      <stop
         id="stop4129"
         offset="0"
         style="stop-color:#ffffff;stop-opacity:0.53725493" />
      <stop
         id="stop4131"
         offset="1"
         style="stop-color:#ffffff;stop-opacity:0" />
    </linearGradient>
    <linearGradient
       inkscape:collect="always"
       id="linearGradient4112">
      <stop
         style="stop-color:#ffffff;stop-opacity:0.23529412"
         offset="0"
         id="stop4114" />
      <stop
         style="stop-color:#ffffff;stop-opacity:0"
         offset="1"
         id="stop4116" />
    </linearGradient>
    <linearGradient
       inkscape:collect="always"
       xlink:href="#linearGradient4112"
       id="linearGradient4118"
       x1="24.983957"
       y1="-1004.3337"
       x2="24.983957"
       y2="-1052.4763"
       gradientUnits="userSpaceOnUse" />
    <linearGradient
       inkscape:collect="always"
       xlink:href="#linearGradient4127"
       id="linearGradient4124"
       gradientUnits="userSpaceOnUse"
       x1="25.007128"
       y1="-1008.4787"
       x2="25.007128"
       y2="-1033.3245"
       gradientTransform="matrix(1,0,0,-1,0,-1004.3622)" />
    <linearGradient
       inkscape:collect="always"
       xlink:href="#linearGradient4135"
       id="linearGradient4133"
       x1="26.695187"
       y1="4.0784316"
       x2="26.695187"
       y2="48.114082"
       gradientUnits="userSpaceOnUse" />
    <linearGradient
       inkscape:collect="always"
       xlink:href="#linearGradient4159"
       id="linearGradient4167"
       x1="26.375"
       y1="1038.7372"
       x2="26.375"
       y2="1018.0069"
       gradientUnits="userSpaceOnUse" />
    <radialGradient
       inkscape:collect="always"
       xlink:href="#linearGradient4186"
       id="radialGradient4184"
       cx="24"
       cy="-1028.3622"
       fx="24"
       fy="-1028.3622"
       r="20"
       gradientUnits="userSpaceOnUse" />
    <linearGradient
       id="linearGradient6390-0"
       inkscape:collect="always">
      <stop
         id="stop6392-9"
         offset="0"
         style="stop-color:#ffffff;stop-opacity:1" />
      <stop
         style="stop-color:#29282b;stop-opacity:1"
         offset="0.16451773"
         id="stop6414-4" />
      <stop
         id="stop6416-4"
         offset="0.26065826"
         style="stop-color:#868c95;stop-opacity:1" />
      <stop
         style="stop-color:#92979f;stop-opacity:1"
         offset="0.39485914"
         id="stop6418-8" />
      <stop
         id="stop6420-0"
         offset="0.54328567"
         style="stop-color:#737881;stop-opacity:1" />
      <stop
         style="stop-color:#70757e;stop-opacity:1"
         offset="0.62599665"
         id="stop6422-3" />
      <stop
         id="stop6424-7"
         offset="0.72117096"
         style="stop-color:#e4e6e8;stop-opacity:1" />
      <stop
         style="stop-color:#ffffff;stop-opacity:1"
         offset="0.79481769"
         id="stop6426-2" />
      <stop
         id="stop6394-3"
         offset="1"
         style="stop-color:#1d191a;stop-opacity:1" />
    </linearGradient>
    <linearGradient
       gradientTransform="translate(-384.57144,-504.5642)"
       y2="-495.71448"
       x2="407.66895"
       y1="-555.92798"
       x1="407.66895"
       gradientUnits="userSpaceOnUse"
       id="linearGradient3334"
       xlink:href="#linearGradient6390-0"
       inkscape:collect="always" />
  </defs>
  <sodipodi:namedview
     id="base"
     pagecolor="#ffffff"
     bordercolor="#666666"
     borderopacity="1.0"
     inkscape:pageopacity="0.0"
     inkscape:pageshadow="2"
     inkscape:zoom="4.0148837"
     inkscape:cx="-3.4165514"
     inkscape:cy="24.854913"
     inkscape:document-units="px"
     inkscape:current-layer="layer1"
     showgrid="false"
     inkscape:window-width="1366"
     inkscape:window-height="715"
     inkscape:window-x="0"
     inkscape:window-y="30"
     inkscape:window-maximized="1">
    <inkscape:grid
       type="xygrid"
       id="grid3850" />
  </sodipodi:namedview>
  <metadata
     id="metadata7">
    <rdf:RDF>
      <cc:Work
         rdf:about="">
        <dc:format>image/svg+xml</dc:format>
        <dc:type
           rdf:resource="http://purl.org/dc/dcmitype/StillImage" />
        <dc:title />
      </cc:Work>
    </rdf:RDF>
  </metadata>
  <g
     inkscape:label="Capa 1"
     inkscape:groupmode="layer"
     id="layer1"
     transform="translate(0,-1004.3622)">
    <rect
       style="fill:url(#linearGradient3334);fill-opacity:1;stroke:none"
       id="rect2991-1-7"
       width="48"
       height="48"
       x="0"
       y="-1052.3622"
       ry="1.9445436"
       transform="scale(1,-1)" />
    <rect
       style="fill:#000000;fill-opacity:0.23529412;stroke:none"
       id="rect4079"
       width="41"
       height="41"
       x="3.5"
       y="-1048.8622"
       ry="1.6609644"
       transform="scale(1,-1)" />
    <rect
       transform="scale(1,-1)"
       ry="1.7014757"
       y="-1049.3622"
       x="3"
       height="42"
       width="42"
       id="rect875"
       style="fill:#000000;fill-opacity:0.23529412;stroke:none" />
    <path
       inkscape:connector-curvature="0"
       style="fill:#ffffff;fill-opacity:0.5372549;stroke:none"
       d="m 2.5312495,1005.0185 c -0.917089,0 -1.671147,0.6395 -1.84375,1.5 0.335612,-0.2799 0.774512,-0.4375 1.25,-0.4375 l 44.1250005,0 c 0.475488,0 0.914388,0.1576 1.25,0.4375 -0.172603,-0.8605 -0.926662,-1.5 -1.84375,-1.5 L 2.5312495,1005.0185 Z"
       id="path7515" />
    <path
       inkscape:connector-curvature="0"
       style="fill:#000000;fill-opacity:1;stroke:none"
       d="m -4.9621582e-7,1049.3622 0,1.0625 c 0,1.0773 0.86022299621582,1.9375 1.93749999621582,1.9375 l 44.1250005,0 c 1.077277,0 1.9375,-0.8602 1.9375,-1.9375 l 0,-1.0625 c 0,1.0773 -0.860223,1.9375 -1.9375,1.9375 l -44.1250005,0 C 0.8602225,1051.2997 -4.9621582e-7,1050.4395 -4.9621582e-7,1049.3622 Z"
       id="rect846" />
    <path
       inkscape:connector-curvature="0"
       style="fill:#000000;fill-opacity:0.39215686;stroke:none"
       d="m 1.9374995,1004.3622 c -1.077277,0 -1.93749999621582,0.8602 -1.93749999621582,1.9375 l 0,43.0625 c 0,0.7934 0.48002299621582,1.449 1.15624999621582,1.75 -0.309342,-0.3333 -0.5,-0.7824 -0.5,-1.2812 l 0,-42.9375 c 0,-1.0482 0.826899,-1.875 1.875,-1.875 l 42.9375005,0 c 1.048101,0 1.875,0.8268 1.875,1.875 l 0,42.9375 c 0,0.4988 -0.190658,0.9479 -0.5,1.2812 0.676226,-0.301 1.15625,-0.9566 1.15625,-1.75 l 0,-43.0625 c 0,-1.0773 -0.860223,-1.9375 -1.9375,-1.9375 L 1.9374995,1004.3622 Z"
       id="rect4280-2" />
    <rect
       style="fill:url(#radialGradient4184);fill-opacity:1;stroke:none"
       id="rect4180"
       width="40"
       height="40"
       x="4"
       y="-1048.3622"
       ry="1.6204531"
       transform="scale(1,-1)" />
    <path
       inkscape:connector-curvature="0"
       id="path4194"
       style="font-size:35px;font-style:normal;font-variant:normal;font-weight:500;font-stretch:normal;text-align:start;line-height:125%;letter-spacing:0px;word-spacing:0px;writing-mode:lr-tb;text-anchor:start;fill:#000000;fill-opacity:0.05882353;stroke:none;font-family:gazetteweather;-inkscape-font-specification:gazetteweather Medium"
       d="m 31.980312,1033.8607 q 0,1.3583 -0.536191,2.4307 -0.518318,1.0545 -1.519209,1.7873 -1.00089,0.7149 -2.466479,1.1082 -1.447716,0.3753 -3.324386,0.3753 -1.680065,0 -3.038416,-0.2682 -1.340479,-0.2501 -2.359242,-0.8221 -1.018763,-0.5719 -1.715812,-1.5014 -0.679175,-0.9472 -1.00089,-2.3056 l 2.841813,-0.554 q 0.411081,1.555 1.697939,2.2878 1.286859,0.7149 3.574608,0.7149 1.036637,0 1.894543,-0.1431 0.87578,-0.1429 1.501335,-0.4825 0.625558,-0.3575 0.965144,-0.9294 0.357461,-0.5898 0.357461,-1.4477 0,-0.8758 -0.411079,-1.4298 -0.41108,-0.572 -1.143876,-0.9473 -0.732793,-0.3754 -1.787303,-0.6434 -1.036637,-0.2861 -2.28775,-0.6257 -1.161748,-0.3038 -2.305622,-0.6791 -1.143875,-0.3754 -2.073273,-0.983 -0.911525,-0.6256 -1.483462,-1.537 -0.571937,-0.9116 -0.571937,-2.2878 0,-2.6452 1.87667,-4.0215 1.894542,-1.3941 5.504897,-1.3941 3.199273,0 5.075942,1.126 1.894543,1.126 2.394988,3.6103 l -2.895432,0.3575 q -0.160858,-0.7506 -0.58981,-1.2511 -0.428953,-0.5183 -1.036637,-0.8221 -0.607684,-0.3217 -1.376224,-0.4468 -0.750667,-0.1431 -1.572827,-0.1431 -2.180511,0 -3.217148,0.6614 -1.036636,0.6613 -1.036636,2.0017 0,0.7865 0.375333,1.3048 0.393206,0.5004 1.072383,0.8579 0.697047,0.3396 1.662192,0.6077 0.965144,0.2502 2.126891,0.5362 0.768541,0.1965 1.572829,0.4289 0.804286,0.2145 1.554955,0.5362 0.76854,0.3038 1.429843,0.7328 0.679175,0.4111 1.179621,1.0009 0.500445,0.5898 0.786413,1.3762 0.303842,0.7864 0.303842,1.8231 z" />
    <path
       style="fill:url(#linearGradient4133);fill-opacity:1;stroke:none"
       d="M 5.6210938 4 C 4.7233627 4 4 4.7233627 4 5.6210938 L 4 42.378906 C 4 43.276637 4.7233627 44 5.6210938 44 L 42.378906 44 C 43.276637 44 44 43.276637 44 42.378906 L 44 5.6210938 C 44 4.7233627 43.276637 4 42.378906 4 L 5.6210938 4 z M 5.8964844 4.3007812 L 42.103516 4.3007812 C 42.987781 4.3007812 43.699219 5.0122192 43.699219 5.8964844 L 43.699219 42.103516 C 43.699219 42.987781 42.987781 43.699219 42.103516 43.699219 L 5.8964844 43.699219 C 5.0122192 43.699219 4.3007812 42.987781 4.3007812 42.103516 L 4.3007812 5.8964844 C 4.3007812 5.0122192 5.0122192 4.3007812 5.8964844 4.3007812 z "
       transform="translate(0,1004.3622)"
       id="rect4101" />
    <rect
       style="fill:url(#linearGradient4118);fill-opacity:1;stroke:none"
       id="rect4108"
       width="39.399979"
       height="39.399979"
       x="4.3000107"
       y="-1048.0621"
       ry="1.5961457"
       transform="scale(1,-1)" />
    <path
       d="m 31.980312,1033.4607 q 0,1.3583 -0.536191,2.4307 -0.518318,1.0545 -1.519209,1.7873 -1.00089,0.7149 -2.466479,1.1082 -1.447716,0.3753 -3.324386,0.3753 -1.680065,0 -3.038416,-0.2682 -1.340479,-0.2501 -2.359242,-0.8221 -1.018763,-0.5719 -1.715812,-1.5014 -0.679175,-0.9472 -1.00089,-2.3056 l 2.841813,-0.554 q 0.411081,1.555 1.697939,2.2878 1.286859,0.7149 3.574608,0.7149 1.036637,0 1.894543,-0.1431 0.87578,-0.1429 1.501335,-0.4825 0.625558,-0.3575 0.965144,-0.9294 0.357461,-0.5898 0.357461,-1.4477 0,-0.8758 -0.411079,-1.4298 -0.41108,-0.572 -1.143876,-0.9473 -0.732793,-0.3754 -1.787303,-0.6434 -1.036637,-0.2861 -2.28775,-0.6257 -1.161748,-0.3038 -2.305622,-0.6791 -1.143875,-0.3754 -2.073273,-0.983 -0.911525,-0.6256 -1.483462,-1.537 -0.571937,-0.9116 -0.571937,-2.2878 0,-2.6452 1.87667,-4.0215 1.894542,-1.3941 5.504897,-1.3941 3.199273,0 5.075942,1.126 1.894543,1.126 2.394988,3.6103 l -2.895432,0.3575 q -0.160858,-0.7506 -0.58981,-1.2511 -0.428953,-0.5183 -1.036637,-0.8221 -0.607684,-0.3217 -1.376224,-0.4468 -0.750667,-0.1431 -1.572827,-0.1431 -2.180511,0 -3.217148,0.6614 -1.036636,0.6613 -1.036636,2.0017 0,0.7865 0.375333,1.3048 0.393206,0.5004 1.072383,0.8579 0.697047,0.3396 1.662192,0.6077 0.965144,0.2502 2.126891,0.5362 0.768541,0.1965 1.572829,0.4289 0.804286,0.2145 1.554955,0.5362 0.76854,0.3038 1.429843,0.7328 0.679175,0.4111 1.179621,1.0009 0.500445,0.5898 0.786413,1.3762 0.303842,0.7864 0.303842,1.8231 z"
       style="font-size:35px;font-style:normal;font-variant:normal;font-weight:500;font-stretch:normal;text-align:start;line-height:125%;letter-spacing:0px;word-spacing:0px;writing-mode:lr-tb;text-anchor:start;fill:#000000;fill-opacity:0.11764706;stroke:none;font-family:gazetteweather;-inkscape-font-specification:gazetteweather Medium"
       id="path4192"
       inkscape:connector-curvature="0" />
    <path
       inkscape:connector-curvature="0"
       id="path4176"
       style="font-size:35px;font-style:normal;font-variant:normal;font-weight:500;font-stretch:normal;text-align:start;line-height:125%;letter-spacing:0px;word-spacing:0px;writing-mode:lr-tb;text-anchor:start;fill:#000000;fill-opacity:0.23529412;stroke:none;font-family:gazetteweather;-inkscape-font-specification:gazetteweather Medium"
       d="m 31.980312,1033.0607 q 0,1.3583 -0.536191,2.4307 -0.518318,1.0545 -1.519209,1.7873 -1.00089,0.7149 -2.466479,1.1082 -1.447716,0.3753 -3.324386,0.3753 -1.680065,0 -3.038416,-0.2682 -1.340479,-0.2501 -2.359242,-0.8221 -1.018763,-0.5719 -1.715812,-1.5014 -0.679175,-0.9472 -1.00089,-2.3056 l 2.841813,-0.554 q 0.411081,1.555 1.697939,2.2878 1.286859,0.7149 3.574608,0.7149 1.036637,0 1.894543,-0.1431 0.87578,-0.1429 1.501335,-0.4825 0.625558,-0.3575 0.965144,-0.9294 0.357461,-0.5898 0.357461,-1.4477 0,-0.8758 -0.411079,-1.4298 -0.41108,-0.572 -1.143876,-0.9473 -0.732793,-0.3754 -1.787303,-0.6434 -1.036637,-0.2861 -2.28775,-0.6257 -1.161748,-0.3038 -2.305622,-0.6791 -1.143875,-0.3754 -2.073273,-0.983 -0.911525,-0.6256 -1.483462,-1.537 -0.571937,-0.9116 -0.571937,-2.2878 0,-2.6452 1.87667,-4.0215 1.894542,-1.3941 5.504897,-1.3941 3.199273,0 5.075942,1.126 1.894543,1.126 2.394988,3.6103 l -2.895432,0.3575 q -0.160858,-0.7506 -0.58981,-1.2511 -0.428953,-0.5183 -1.036637,-0.8221 -0.607684,-0.3217 -1.376224,-0.4468 -0.750667,-0.1431 -1.572827,-0.1431 -2.180511,0 -3.217148,0.6614 -1.036636,0.6613 -1.036636,2.0017 0,0.7865 0.375333,1.3048 0.393206,0.5004 1.072383,0.8579 0.697047,0.3396 1.662192,0.6077 0.965144,0.2502 2.126891,0.5362 0.768541,0.1965 1.572829,0.4289 0.804286,0.2145 1.554955,0.5362 0.76854,0.3038 1.429843,0.7328 0.679175,0.4111 1.179621,1.0009 0.500445,0.5898 0.786413,1.3762 0.303842,0.7864 0.303842,1.8231 z" />
    <path
       d="m 31.980312,1032.6607 q 0,1.3583 -0.536191,2.4307 -0.518318,1.0545 -1.519209,1.7873 -1.00089,0.7149 -2.466479,1.1082 -1.447716,0.3753 -3.324386,0.3753 -1.680065,0 -3.038416,-0.2682 -1.340479,-0.2501 -2.359242,-0.8221 -1.018763,-0.5719 -1.715812,-1.5014 -0.679175,-0.9472 -1.00089,-2.3056 l 2.841813,-0.554 q 0.411081,1.555 1.697939,2.2878 1.286859,0.7149 3.574608,0.7149 1.036637,0 1.894543,-0.1431 0.87578,-0.1429 1.501335,-0.4825 0.625558,-0.3575 0.965144,-0.9294 0.357461,-0.5898 0.357461,-1.4477 0,-0.8758 -0.411079,-1.4298 -0.41108,-0.572 -1.143876,-0.9473 -0.732793,-0.3754 -1.787303,-0.6434 -1.036637,-0.2861 -2.28775,-0.6257 -1.161748,-0.3038 -2.305622,-0.6791 -1.143875,-0.3754 -2.073273,-0.983 -0.911525,-0.6256 -1.483462,-1.537 -0.571937,-0.9116 -0.571937,-2.2878 0,-2.6452 1.87667,-4.0215 1.894542,-1.3941 5.504897,-1.3941 3.199273,0 5.075942,1.126 1.894543,1.126 2.394988,3.6103 l -2.895432,0.3575 q -0.160858,-0.7506 -0.58981,-1.2511 -0.428953,-0.5183 -1.036637,-0.8221 -0.607684,-0.3217 -1.376224,-0.4468 -0.750667,-0.1431 -1.572827,-0.1431 -2.180511,0 -3.217148,0.6614 -1.036636,0.6613 -1.036636,2.0017 0,0.7865 0.375333,1.3048 0.393206,0.5004 1.072383,0.8579 0.697047,0.3396 1.662192,0.6077 0.965144,0.2502 2.126891,0.5362 0.768541,0.1965 1.572829,0.4289 0.804286,0.2145 1.554955,0.5362 0.76854,0.3038 1.429843,0.7328 0.679175,0.4111 1.179621,1.0009 0.500445,0.5898 0.786413,1.3762 0.303842,0.7864 0.303842,1.8231 z"
       style="font-size:35px;font-style:normal;font-variant:normal;font-weight:500;font-stretch:normal;text-align:start;line-height:125%;letter-spacing:0px;word-spacing:0px;writing-mode:lr-tb;text-anchor:start;fill:url(#linearGradient4167);fill-opacity:1;stroke:none;font-family:gazetteweather;-inkscape-font-specification:gazetteweather Medium"
       id="path4157"
       inkscape:connector-curvature="0" />
    <path
       style="font-size:35px;font-style:normal;font-variant:normal;font-weight:500;font-stretch:normal;text-align:start;line-height:125%;letter-spacing:0px;word-spacing:0px;writing-mode:lr-tb;text-anchor:start;fill:#ffffff;fill-opacity:0.3137255;stroke:none;font-family:gazetteweather;-inkscape-font-specification:gazetteweather Medium"
       d="M 24.169922 14 C 21.763019 14 19.927091 14.465131 18.664062 15.394531 C 17.412949 16.312065 16.789062 17.652549 16.789062 19.416016 C 16.789062 19.479993 16.796974 19.537139 16.798828 19.599609 C 16.849365 17.944682 17.465711 16.673761 18.664062 15.794922 C 19.927091 14.865522 21.763019 14.400391 24.169922 14.400391 C 26.302771 14.400391 27.994981 14.774724 29.246094 15.525391 C 30.406739 16.215207 31.169105 17.293556 31.544922 18.748047 L 31.640625 18.736328 C 31.306995 17.080128 30.509122 15.87762 29.246094 15.126953 C 27.994981 14.376286 26.302771 14 24.169922 14 z M 19.931641 19.34375 C 19.92917 19.395561 19.916016 19.440711 19.916016 19.494141 C 19.916016 20.018474 20.040794 20.453295 20.291016 20.798828 C 20.553153 21.132428 20.910497 21.417917 21.363281 21.65625 C 21.827979 21.88265 22.381961 22.084939 23.025391 22.263672 C 23.66882 22.430472 24.377846 22.610115 25.152344 22.800781 C 25.664704 22.931781 26.190371 23.073582 26.726562 23.228516 C 27.262753 23.371516 27.780804 23.551158 28.28125 23.765625 C 28.79361 23.968158 29.270069 24.212047 29.710938 24.498047 C 30.163721 24.772114 30.556994 25.1068 30.890625 25.5 C 31.224255 25.8932 31.485136 26.350733 31.675781 26.875 C 31.862109 27.357252 31.953818 27.919524 31.96875 28.542969 C 31.971805 28.460886 31.980469 28.38254 31.980469 28.298828 C 31.980469 27.607695 31.878343 26.998876 31.675781 26.474609 C 31.485136 25.950343 31.224255 25.492809 30.890625 25.099609 C 30.556994 24.706409 30.163721 24.371723 29.710938 24.097656 C 29.270069 23.811656 28.79361 23.567768 28.28125 23.365234 C 27.780804 23.150768 27.262753 22.973078 26.726562 22.830078 C 26.190371 22.675145 25.664704 22.531391 25.152344 22.400391 C 24.377846 22.209724 23.66882 22.030081 23.025391 21.863281 C 22.381961 21.684548 21.827979 21.482259 21.363281 21.255859 C 20.910497 21.017526 20.553153 20.732037 20.291016 20.398438 C 20.082282 20.110196 19.96625 19.756415 19.931641 19.34375 z M 18.861328 28.548828 L 16.019531 29.103516 C 16.050501 29.234283 16.089061 29.355417 16.125 29.480469 L 18.861328 28.949219 C 19.135382 29.985885 19.700688 30.747795 20.558594 31.236328 C 21.4165 31.712928 22.6096 31.951172 24.134766 31.951172 C 24.825857 31.951172 25.45736 31.903994 26.029297 31.808594 C 26.61315 31.713327 27.11226 31.552572 27.529297 31.326172 C 27.946336 31.087839 28.26775 30.777751 28.494141 30.396484 C 28.732448 30.003284 28.851563 29.521152 28.851562 28.949219 C 28.851562 28.858504 28.842553 28.774989 28.835938 28.689453 C 28.816638 29.196073 28.711265 29.637845 28.494141 29.996094 C 28.26775 30.37736 27.946336 30.687448 27.529297 30.925781 C 27.11226 31.152181 26.61315 31.312936 26.029297 31.408203 C 25.45736 31.503603 24.825857 31.550781 24.134766 31.550781 C 22.6096 31.550781 21.4165 31.312537 20.558594 30.835938 C 19.700688 30.347404 19.135382 29.585495 18.861328 28.548828 z "
       id="path4169"
       transform="translate(0,1004.3622)" />
    <path
       style="fill:url(#linearGradient4124);fill-opacity:1;stroke:none"
       d="M 5.8964844 4.3007812 C 5.0122196 4.3007812 4.3007813 5.0122196 4.3007812 5.8964844 L 4.3007812 29.757812 C 16.269561 21.932135 33.03437 18.985014 43.699219 17.875 L 43.699219 5.8964844 C 43.699219 5.0122196 42.98778 4.3007812 42.103516 4.3007812 L 5.8964844 4.3007812 z "
       transform="translate(0,1004.3622)"
       id="rect4120" />
  </g>
</svg>
