<?xml version="1.0" encoding="UTF-8" standalone="no"?>
<!-- Created with Inkscape (http://www.inkscape.org/) -->

<svg
   xmlns:dc="http://purl.org/dc/elements/1.1/"
   xmlns:cc="http://creativecommons.org/ns#"
   xmlns:rdf="http://www.w3.org/1999/02/22-rdf-syntax-ns#"
   xmlns:svg="http://www.w3.org/2000/svg"
   xmlns="http://www.w3.org/2000/svg"
   xmlns:xlink="http://www.w3.org/1999/xlink"
   xmlns:sodipodi="http://sodipodi.sourceforge.net/DTD/sodipodi-0.dtd"
   xmlns:inkscape="http://www.inkscape.org/namespaces/inkscape"
   width="48"
   height="48"
   id="svg5453"
   version="1.1"
   inkscape:version="0.49 r12742"
   sodipodi:docname="supertuxkart_64.svg">
  <defs
     id="defs5455">
    <linearGradient
       inkscape:collect="always"
       id="linearGradient4097">
      <stop
         style="stop-color:#f5f9ff;stop-opacity:1"
         offset="0"
         id="stop4099" />
      <stop
         style="stop-color:#f4f8ff;stop-opacity:1"
         offset="0.19678172"
         id="stop4675" />
      <stop
         id="stop4677"
         offset="0.48540968"
         style="stop-color:#9da4b1;stop-opacity:1" />
      <stop
         style="stop-color:#fefdff;stop-opacity:1"
         offset="0.69595402"
         id="stop4679" />
      <stop
         style="stop-color:#b2b6be;stop-opacity:1"
         offset="1"
         id="stop4101" />
    </linearGradient>
    <linearGradient
       inkscape:collect="always"
       xlink:href="#linearGradient4656"
       id="linearGradient4654"
       gradientUnits="userSpaceOnUse"
       x1="25.748747"
       y1="1010.5966"
       x2="25.748747"
       y2="1046.0013"
       gradientTransform="matrix(1.1304349,0,0,1.1304349,381.44098,-638.6984)" />
    <linearGradient
       id="linearGradient4656"
       inkscape:collect="always">
      <stop
         id="stop4658"
         offset="0"
         style="stop-color:#333333;stop-opacity:1" />
      <stop
         style="stop-color:#191919;stop-opacity:1;"
         offset="0.5"
         id="stop4709" />
      <stop
         id="stop4711"
         offset="0.75"
         style="stop-color:#1f1f1f;stop-opacity:1;" />
      <stop
         id="stop4660"
         offset="1"
         style="stop-color:#262626;stop-opacity:1" />
    </linearGradient>
    <linearGradient
       inkscape:collect="always"
       xlink:href="#linearGradient4715"
       id="linearGradient4713"
       gradientUnits="userSpaceOnUse"
       gradientTransform="matrix(1.0869566,0,0,1.0869566,-2.08697,-1093.785)"
       x1="25.748747"
       y1="1009.1478"
       x2="25.748747"
       y2="1051.2168" />
    <linearGradient
       inkscape:collect="always"
       id="linearGradient4715">
      <stop
         style="stop-color:#333333;stop-opacity:1"
         offset="0"
         id="stop4717" />
      <stop
         id="stop4719"
         offset="0.24398349"
         style="stop-color:#191919;stop-opacity:1;" />
      <stop
         style="stop-color:#191919;stop-opacity:1"
         offset="0.75"
         id="stop4721" />
      <stop
         style="stop-color:#262626;stop-opacity:1"
         offset="1"
         id="stop4723" />
    </linearGradient>
    <radialGradient
       inkscape:collect="always"
       xlink:href="#linearGradient5269"
       id="radialGradient5275"
       cx="4.8465848"
       cy="18.947426"
       fx="4.8465848"
       fy="18.947426"
       r="6.1240497"
       gradientTransform="matrix(0,1.7731959,-3.0721655,0,60.99892,-4.99974)"
       gradientUnits="userSpaceOnUse" />
    <linearGradient
       inkscape:collect="always"
       id="linearGradient5269">
      <stop
         style="stop-color:#000000;stop-opacity:1;"
         offset="0"
         id="stop5271" />
      <stop
         style="stop-color:#000000;stop-opacity:0;"
         offset="1"
         id="stop5273" />
    </linearGradient>
    <radialGradient
       inkscape:collect="always"
       xlink:href="#linearGradient5572"
       id="radialGradient5578"
       cx="26.125017"
       cy="41.738743"
       fx="26.125017"
       fy="41.738743"
       r="10.500018"
       gradientTransform="matrix(1,0,0,0.28603597,381.89533,523.06628)"
       gradientUnits="userSpaceOnUse" />
    <linearGradient
       inkscape:collect="always"
       id="linearGradient5572">
      <stop
         style="stop-color:#000000;stop-opacity:1;"
         offset="0"
         id="stop5574" />
      <stop
         style="stop-color:#000000;stop-opacity:0;"
         offset="1"
         id="stop5576" />
    </linearGradient>
    <radialGradient
       inkscape:collect="always"
       xlink:href="#linearGradient5572"
       id="radialGradient5582"
       gradientUnits="userSpaceOnUse"
       gradientTransform="matrix(1,0,0,-0.28603597,382.52033,524.84308)"
       cx="26.125017"
       cy="41.738743"
       fx="26.125017"
       fy="41.738743"
       r="10.500018" />
    <linearGradient
       gradientTransform="matrix(0.93930385,0,0,0.99179842,386.02406,-496.29261)"
       inkscape:collect="always"
       xlink:href="#linearGradient5411"
       id="linearGradient5409"
       x1="23.589624"
       y1="1049.0072"
       x2="23.589624"
       y2="1008.7905"
       gradientUnits="userSpaceOnUse" />
    <linearGradient
       id="linearGradient5411"
       inkscape:collect="always">
      <stop
         id="stop5413"
         offset="0"
         style="stop-color:#550000;stop-opacity:1" />
      <stop
         id="stop5415"
         offset="0.19678172"
         style="stop-color:#aa0000;stop-opacity:1" />
      <stop
         style="stop-color:#800000;stop-opacity:1"
         offset="0.48540968"
         id="stop5417" />
      <stop
         id="stop5419"
         offset="0.80251962"
         style="stop-color:#d40000;stop-opacity:1" />
      <stop
         id="stop5421"
         offset="1"
         style="stop-color:#550000;stop-opacity:1" />
    </linearGradient>
    <linearGradient
       gradientTransform="matrix(0.10827119,0,0,0.12711047,394.71248,447.28982)"
       inkscape:collect="always"
       xlink:href="#linearGradient4097"
       id="linearGradient11568"
       x1="181.77745"
       y1="524.94629"
       x2="235.79942"
       y2="636.09967"
       gradientUnits="userSpaceOnUse" />
    <radialGradient
       inkscape:collect="always"
       xlink:href="#linearGradient11576"
       id="radialGradient5344"
       cx="375"
       cy="461.86218"
       fx="375"
       fy="461.86218"
       r="99.550003"
       gradientTransform="matrix(0.10827119,0,0,0.10813846,367.9695,473.90495)"
       gradientUnits="userSpaceOnUse" />
    <linearGradient
       inkscape:collect="always"
       id="linearGradient11576">
      <stop
         style="stop-color:#686868;stop-opacity:1"
         offset="0"
         id="stop11578" />
      <stop
         style="stop-color:#2d2d2d;stop-opacity:1"
         offset="1"
         id="stop11580" />
    </linearGradient>
    <linearGradient
       inkscape:collect="always"
       xlink:href="#linearGradient4097"
       id="linearGradient5399"
       x1="16.75"
       y1="20.160715"
       x2="31.316965"
       y2="27.839285"
       gradientUnits="userSpaceOnUse"
       gradientTransform="matrix(0.85671483,0,0,0.85671483,388.01275,503.23158)" />
    <linearGradient
       id="linearGradient3192"
       inkscape:collect="always">
      <stop
         id="stop3194"
         offset="0"
         style="stop-color:#000000;stop-opacity:1;" />
      <stop
         id="stop3196"
         offset="1"
         style="stop-color:#000000;stop-opacity:0;" />
    </linearGradient>
    <linearGradient
       y2="4.0782442"
       x2="21.964504"
       y1="3.0103312"
       x1="21.964504"
       gradientTransform="matrix(0,0.95238097,0.95238097,0,385.71429,500.94091)"
       gradientUnits="userSpaceOnUse"
       id="linearGradient3218"
       xlink:href="#linearGradient3192"
       inkscape:collect="always" />
    <linearGradient
       y2="4.0782442"
       x2="21.964504"
       y1="3.0103312"
       x1="21.964504"
       gradientTransform="matrix(0,0.95238097,-0.95238097,0,431.42857,500.94091)"
       gradientUnits="userSpaceOnUse"
       id="linearGradient3252"
       xlink:href="#linearGradient3192"
       inkscape:collect="always" />
    <linearGradient
       y2="4.0782442"
       x2="21.964504"
       y1="3.0103312"
       x1="21.964504"
       gradientTransform="matrix(0.95238097,0,0,-0.95238097,385.71429,546.65511)"
       gradientUnits="userSpaceOnUse"
       id="linearGradient3258"
       xlink:href="#linearGradient3192"
       inkscape:collect="always" />
    <linearGradient
       y2="4.0782442"
       x2="21.964504"
       y1="3.0103312"
       x1="21.964504"
       gradientTransform="matrix(0.95238097,0,0,0.95238097,385.71429,500.94091)"
       gradientUnits="userSpaceOnUse"
       id="linearGradient3260"
       xlink:href="#linearGradient3192"
       inkscape:collect="always" />
    <linearGradient
       inkscape:collect="always"
       id="linearGradient6390-2">
      <stop
         style="stop-color:#ffffff;stop-opacity:1"
         offset="0"
         id="stop6392-3" />
      <stop
         id="stop6414-7"
         offset="0.16451773"
         style="stop-color:#29282b;stop-opacity:1" />
      <stop
         style="stop-color:#868c95;stop-opacity:1"
         offset="0.26065826"
         id="stop6416-9" />
      <stop
         id="stop6418-3"
         offset="0.39485914"
         style="stop-color:#92979f;stop-opacity:1" />
      <stop
         style="stop-color:#737881;stop-opacity:1"
         offset="0.54328567"
         id="stop6420-5" />
      <stop
         id="stop6422-7"
         offset="0.62599665"
         style="stop-color:#70757e;stop-opacity:1" />
      <stop
         style="stop-color:#e4e6e8;stop-opacity:1"
         offset="0.72117096"
         id="stop6424-3" />
      <stop
         id="stop6426-4"
         offset="0.79481769"
         style="stop-color:#ffffff;stop-opacity:1" />
      <stop
         style="stop-color:#1d191a;stop-opacity:1"
         offset="1"
         id="stop6394-4" />
    </linearGradient>
    <linearGradient
       inkscape:collect="always"
       xlink:href="#linearGradient6390-2"
       id="linearGradient3310"
       gradientUnits="userSpaceOnUse"
       x1="407.66895"
       y1="-555.92798"
       x2="407.66895"
       y2="-495.71448"
       gradientTransform="translate(-10e-6,-2e-5)" />
    <radialGradient
       inkscape:collect="always"
       xlink:href="#linearGradient5269"
       id="radialGradient4653"
       gradientUnits="userSpaceOnUse"
       gradientTransform="matrix(0,1.7731959,3.0721655,0,371.57251,494.79826)"
       cx="4.8465848"
       cy="18.947426"
       fx="4.8465848"
       fy="18.947426"
       r="6.1240497" />
    <radialGradient
       inkscape:collect="always"
       xlink:href="#linearGradient5269"
       id="radialGradient4659"
       gradientUnits="userSpaceOnUse"
       gradientTransform="matrix(0,-1.7731959,-3.0721655,0,445.57035,552.79774)"
       cx="4.8465848"
       cy="18.947426"
       fx="4.8465848"
       fy="18.947426"
       r="6.1240497" />
    <radialGradient
       inkscape:collect="always"
       xlink:href="#linearGradient5269"
       id="radialGradient4661"
       gradientUnits="userSpaceOnUse"
       gradientTransform="matrix(0,-1.7731959,3.0721655,0,371.57251,552.79774)"
       cx="4.8465848"
       cy="18.947426"
       fx="4.8465848"
       fy="18.947426"
       r="6.1240497" />
  </defs>
  <sodipodi:namedview
     id="base"
     pagecolor="#ffffff"
     bordercolor="#666666"
     borderopacity="1.0"
     inkscape:pageopacity="0"
     inkscape:pageshadow="2"
     inkscape:zoom="8.6352893"
     inkscape:cx="26.399133"
     inkscape:cy="15.012418"
     inkscape:document-units="px"
     inkscape:current-layer="layer1"
     showgrid="false"
     fit-margin-top="0"
     fit-margin-left="0"
     fit-margin-right="0"
     fit-margin-bottom="0"
     inkscape:window-width="1366"
     inkscape:window-height="718"
     inkscape:window-x="-2"
     inkscape:window-y="23"
     inkscape:window-maximized="1"
     inkscape:showpageshadow="false"
     borderlayer="true" />
  <metadata
     id="metadata5458">
    <rdf:RDF>
      <cc:Work
         rdf:about="">
        <dc:format>image/svg+xml</dc:format>
        <dc:type
           rdf:resource="http://purl.org/dc/dcmitype/StillImage" />
        <dc:title />
      </cc:Work>
    </rdf:RDF>
  </metadata>
  <g
     inkscape:label="Capa 1"
     inkscape:groupmode="layer"
     id="layer1"
     transform="translate(-384.57143,-499.798)">
    <rect
       style="fill:url(#linearGradient3310);fill-opacity:1;stroke:none"
       id="rect2991-1-7"
       width="48"
       height="48"
       x="384.57144"
       y="-547.79797"
       ry="1.9445436"
       transform="scale(1,-1)" />
    <rect
       style="fill:#000000;fill-opacity:0.23529412;stroke:none"
       id="rect3291"
       width="42"
       height="42"
       x="387.57144"
       y="-544.79797"
       ry="1.7014757"
       transform="scale(1,-1)" />
    <path
       style="color:#000000;fill:url(#linearGradient4654);fill-opacity:1;fill-rule:nonzero;stroke:none;stroke-width:1;marker:none;visibility:visible;display:inline;overflow:visible;enable-background:accumulate"
       d="m 390.19252,503.798 c -0.89773,0 -1.62109,0.72336 -1.62109,1.6211 l 0,36.75781 c 0,0.89773 0.72336,1.62109 1.62109,1.62109 l 36.75782,0 c 0.89773,0 1.62109,-0.72336 1.62109,-1.62109 l 0,-36.75781 c 0,-0.89774 -0.72336,-1.6211 -1.62109,-1.6211 l -36.75782,0 z"
       id="path4652"
       inkscape:connector-curvature="0" />
    <g
       id="g11205"
       transform="matrix(0.11415569,0.00145205,-0.00153508,0.12068332,431.48662,467.82901)"
       style="fill:#2d2d2d" />
    <path
       style="color:#000000;fill:url(#linearGradient4713);fill-opacity:1;fill-rule:nonzero;stroke:none;stroke-width:1;marker:none;visibility:visible;display:inline;overflow:visible;enable-background:accumulate;opacity:0.5"
       d="M 5.6210938 4 C 4.7233627 4 4 4.7233627 4 5.6210938 L 4 42.378906 C 4 43.276637 4.7233627 44 5.6210938 44 L 42.378906 44 C 43.276637 44 44 43.276637 44 42.378906 L 44 5.6210938 C 44 4.7233627 43.276637 4 42.378906 4 L 5.6210938 4 z "
       transform="translate(384.57143,499.798)"
       id="path4681" />
    <path
       inkscape:connector-curvature="0"
       style="fill:#000000;fill-opacity:1;stroke:none"
       d="m 384.57143,544.79801 0,1.0625 c 0,1.0773 0.86022,1.9375 1.9375,1.9375 l 44.125,0 c 1.07728,0 1.9375,-0.8602 1.9375,-1.9375 l 0,-1.0625 c 0,1.0773 -0.86022,1.9375 -1.9375,1.9375 l -44.125,0 c -1.07728,0 -1.9375,-0.8602 -1.9375,-1.9375 z"
       id="rect846" />
    <path
       inkscape:connector-curvature="0"
       style="fill:#ffffff;fill-opacity:0.5372549;stroke:none"
       d="m 387.10268,500.45431 c -0.91709,0 -1.67115,0.6395 -1.84375,1.5 0.33561,-0.2799 0.77451,-0.4375 1.25,-0.4375 l 44.125,0 c 0.47549,0 0.91439,0.1576 1.25,0.4375 -0.1726,-0.8605 -0.92666,-1.5 -1.84375,-1.5 l -42.9375,0 z"
       id="path7515" />
    <path
       inkscape:connector-curvature="0"
       style="fill:#000000;fill-opacity:0.39215686;stroke:none"
       d="m 386.50893,499.79801 c -1.07728,0 -1.9375,0.8602 -1.9375,1.9375 l 0,43.0625 c 0,0.7934 0.48002,1.449 1.15625,1.75 -0.30934,-0.3333 -0.5,-0.7824 -0.5,-1.2812 l 0,-42.9375 c 0,-1.0482 0.8269,-1.875 1.875,-1.875 l 42.9375,0 c 1.0481,0 1.875,0.8268 1.875,1.875 l 0,42.9375 c 0,0.4988 -0.19066,0.9479 -0.5,1.2812 0.67623,-0.301 1.15625,-0.9566 1.15625,-1.75 l 0,-43.0625 c 0,-1.0773 -0.86022,-1.9375 -1.9375,-1.9375 l -44.125,0 z"
       id="rect4280-0" />
    <path
       id="path3250"
       d="m 428.57143,505.40511 c 0,-0.8977 -0.70943,-1.6071 -1.60714,-1.6071 l -2.26191,0 c 0.89772,0 1.60715,0.7094 1.60715,1.6071 l 0,36.7858 c 0,0.8977 -0.70943,1.6071 -1.60715,1.6071 l 2.26191,0 c 0.89771,0 1.60714,-0.7094 1.60714,-1.6071 l 0,-36.7858 z"
       style="opacity:0.29300005;fill:url(#linearGradient3252);fill-opacity:1;stroke:none"
       inkscape:connector-curvature="0" />
    <path
       id="path3254"
       d="m 390.17857,543.79801 c -0.89771,0 -1.60714,-0.7094 -1.60714,-1.6071 l 0,-2.2619 c 0,0.8977 0.70943,1.6071 1.60714,1.6071 l 36.78572,0 c 0.89771,0 1.60714,-0.7094 1.60714,-1.6071 l 0,2.2619 c 0,0.8977 -0.70943,1.6071 -1.60714,1.6071 l -36.78572,0 z"
       style="opacity:0.29300005;fill:url(#linearGradient3258);fill-opacity:1;stroke:none"
       inkscape:connector-curvature="0" />
    <path
       inkscape:connector-curvature="0"
       style="opacity:0.29300005;fill:url(#linearGradient3260);fill-opacity:1;stroke:none"
       d="m 390.17857,503.79801 c -0.89771,0 -1.60714,0.7094 -1.60714,1.6071 l 0,2.2619 c 0,-0.8977 0.70943,-1.6071 1.60714,-1.6071 l 36.78572,0 c 0.89771,0 1.60714,0.7094 1.60714,1.6071 l 0,-2.2619 c 0,-0.8977 -0.70943,-1.6071 -1.60714,-1.6071 l -36.78572,0 z"
       id="path3256" />
    <path
       style="fill:url(#radialGradient5275);fill-opacity:1;stroke:none"
       d="M 5.6210938 4 C 4.7233627 4 4 4.7233627 4 5.6210938 L 4 23.636719 L 23.806641 4.5253906 L 22.955078 4 L 5.6210938 4 z "
       transform="translate(384.57143,499.798)"
       id="path5267" />
    <path
       inkscape:connector-curvature="0"
       style="opacity:0.29300005;fill:url(#linearGradient3218);fill-opacity:1;stroke:none"
       d="m 388.57143,505.40511 c 0,-0.8977 0.70943,-1.6071 1.60714,-1.6071 l 2.26191,0 c -0.89772,0 -1.60715,0.7094 -1.60715,1.6071 l 0,36.7858 c 0,0.8977 0.70943,1.6071 1.60715,1.6071 l -2.26191,0 c -0.89771,0 -1.60714,-0.7094 -1.60714,-1.6071 l 0,-36.7858 z"
       id="path3214" />
    <path
       id="path4651"
       d="m 426.95034,503.798 c 0.89773,0 1.62109,0.72336 1.62109,1.62109 l 0,18.01563 -19.80664,-19.11133 0.85156,-0.52539 17.33399,0 z"
       style="fill:url(#radialGradient4653);fill-opacity:1;stroke:none"
       inkscape:connector-curvature="0" />
    <path
       id="path4655"
       d="m 390.19252,543.798 c -0.89773,0 -1.62109,-0.72336 -1.62109,-1.62109 l 0,-18.01563 19.80664,19.11133 -0.85156,0.52539 -17.33399,0 z"
       style="fill:url(#radialGradient4659);fill-opacity:1;stroke:none"
       inkscape:connector-curvature="0" />
    <path
       inkscape:connector-curvature="0"
       style="fill:url(#radialGradient4661);fill-opacity:1;stroke:none"
       d="m 426.95034,543.798 c 0.89773,0 1.62109,-0.72336 1.62109,-1.62109 l 0,-18.01563 -19.80664,19.11133 0.85156,0.52539 17.33399,0 z"
       id="path4657" />
    <path
       style="opacity:0.63899997;fill:url(#radialGradient5578);fill-opacity:1;stroke:none"
       d="m 397.52033,536.62348 c 4.01786,-1.6072 3.30357,-4.1072 6.51786,-2.4107 3.21428,1.6964 7.05357,1.5178 8.03571,0.4464 0.98215,-1.0714 3.83929,-0.4464 5.26786,-2.2322 1.42857,-1.7857 1.60714,2.5893 0.26786,3.2143 -1.33929,0.625 -4.01786,1.6965 -4.91072,2.2322 -0.89285,0.5357 -6.875,-0.7143 -10.71428,-0.4465 -3.83929,0.2679 -4.46429,-0.8035 -4.46429,-0.8035 z"
       id="path5570"
       inkscape:connector-curvature="0" />
    <g
       id="g5539"
       transform="translate(384.5739,-503.28901)">
      <rect
         style="opacity:0.28200001;color:#000000;fill:#ffffff;fill-opacity:1;fill-rule:nonzero;stroke:none;stroke-width:1.39999998;marker:none;visibility:visible;display:inline;overflow:visible;enable-background:accumulate"
         id="rect5130"
         width="0.42213586"
         height="1.0431933"
         x="25.570839"
         y="1042.7434"
         ry="0" />
      <rect
         ry="0"
         y="1044.3937"
         x="25.570839"
         height="1.0431933"
         width="0.42213586"
         id="rect5134"
         style="opacity:0.28200001;color:#000000;fill:#ffffff;fill-opacity:1;fill-rule:nonzero;stroke:none;stroke-width:1.39999998;marker:none;visibility:visible;display:inline;overflow:visible;enable-background:accumulate" />
      <rect
         style="opacity:0.28200001;color:#000000;fill:#ffffff;fill-opacity:1;fill-rule:nonzero;stroke:none;stroke-width:1.39999998;marker:none;visibility:visible;display:inline;overflow:visible;enable-background:accumulate"
         id="rect5138"
         width="0.42213586"
         height="1.0431933"
         x="25.570839"
         y="1046.0438"
         ry="0" />
      <rect
         ry="0"
         y="1041.0933"
         x="25.570839"
         height="1.0431933"
         width="0.42213586"
         id="rect5502"
         style="opacity:0.28200001;color:#000000;fill:#ffffff;fill-opacity:1;fill-rule:nonzero;stroke:none;stroke-width:1.39999998;marker:none;visibility:visible;display:inline;overflow:visible;enable-background:accumulate" />
    </g>
    <g
       id="g5532"
       transform="translate(384.5739,-503.28901)">
      <rect
         ry="0"
         y="1042.7434"
         x="22.007025"
         height="1.0431933"
         width="0.42213586"
         id="rect5128"
         style="opacity:0.28200001;color:#000000;fill:#ffffff;fill-opacity:1;fill-rule:nonzero;stroke:none;stroke-width:1.39999998;marker:none;visibility:visible;display:inline;overflow:visible;enable-background:accumulate" />
      <rect
         style="opacity:0.28200001;color:#000000;fill:#ffffff;fill-opacity:1;fill-rule:nonzero;stroke:none;stroke-width:1.39999998;marker:none;visibility:visible;display:inline;overflow:visible;enable-background:accumulate"
         id="rect5132"
         width="0.42213586"
         height="1.0431933"
         x="22.007025"
         y="1044.3937"
         ry="0" />
      <rect
         ry="0"
         y="1046.0438"
         x="22.007025"
         height="1.0431933"
         width="0.42213586"
         id="rect5136"
         style="opacity:0.28200001;color:#000000;fill:#ffffff;fill-opacity:1;fill-rule:nonzero;stroke:none;stroke-width:1.39999998;marker:none;visibility:visible;display:inline;overflow:visible;enable-background:accumulate" />
      <rect
         style="opacity:0.28200001;color:#000000;fill:#ffffff;fill-opacity:1;fill-rule:nonzero;stroke:none;stroke-width:1.39999998;marker:none;visibility:visible;display:inline;overflow:visible;enable-background:accumulate"
         id="rect5504"
         width="0.42213586"
         height="1.0431933"
         x="22.007025"
         y="1041.0933"
         ry="0" />
    </g>
    <g
       id="g5546"
       transform="translate(384.5739,-505.75811)">
      <g
         id="g5176"
         transform="translate(0.62119303,-35.219762)"
         style="opacity:0.28200001">
        <rect
           ry="0"
           y="1044.7759"
           x="24.949646"
           height="1.0431933"
           width="0.42213586"
           id="rect5180"
           style="color:#000000;fill:#ffffff;fill-opacity:1;fill-rule:nonzero;stroke:none;stroke-width:1.39999998;marker:none;visibility:visible;display:inline;overflow:visible;enable-background:accumulate" />
        <rect
           style="color:#000000;fill:#ffffff;fill-opacity:1;fill-rule:nonzero;stroke:none;stroke-width:1.39999998;marker:none;visibility:visible;display:inline;overflow:visible;enable-background:accumulate"
           id="rect5182"
           width="0.42213586"
           height="1.0431933"
           x="24.949646"
           y="1046.3448"
           ry="0" />
        <rect
           ry="0"
           y="1047.9137"
           x="24.949646"
           height="1.0431933"
           width="0.42213586"
           id="rect5184"
           style="color:#000000;fill:#ffffff;fill-opacity:1;fill-rule:nonzero;stroke:none;stroke-width:1.39999998;marker:none;visibility:visible;display:inline;overflow:visible;enable-background:accumulate" />
      </g>
      <rect
         style="opacity:0.28200001;color:#000000;fill:#ffffff;fill-opacity:1;fill-rule:nonzero;stroke:none;stroke-width:1.39999998;marker:none;visibility:visible;display:inline;overflow:visible;enable-background:accumulate"
         id="rect5506"
         width="0.42213586"
         height="1.0431933"
         x="25.570839"
         y="1014.4505"
         ry="0" />
    </g>
    <g
       id="g5554"
       transform="translate(384.5739,-505.75811)">
      <g
         id="g5166"
         transform="translate(-0.62119257,-34.435338)"
         style="opacity:0.28200001">
        <rect
           style="color:#000000;fill:#ffffff;fill-opacity:1;fill-rule:nonzero;stroke:none;stroke-width:1.39999998;marker:none;visibility:visible;display:inline;overflow:visible;enable-background:accumulate"
           id="rect5170"
           width="0.42213586"
           height="1.0431933"
           x="22.628218"
           y="1043.9915"
           ry="0" />
        <rect
           ry="0"
           y="1045.5604"
           x="22.628218"
           height="1.0431933"
           width="0.42213586"
           id="rect5172"
           style="color:#000000;fill:#ffffff;fill-opacity:1;fill-rule:nonzero;stroke:none;stroke-width:1.39999998;marker:none;visibility:visible;display:inline;overflow:visible;enable-background:accumulate" />
        <rect
           style="color:#000000;fill:#ffffff;fill-opacity:1;fill-rule:nonzero;stroke:none;stroke-width:1.39999998;marker:none;visibility:visible;display:inline;overflow:visible;enable-background:accumulate"
           id="rect5174"
           width="0.42213586"
           height="1.0431933"
           x="22.628218"
           y="1047.1293"
           ry="0" />
      </g>
      <rect
         ry="0"
         y="1014.4505"
         x="22.007025"
         height="1.0431933"
         width="0.42213586"
         id="rect5508"
         style="opacity:0.28200001;color:#000000;fill:#ffffff;fill-opacity:1;fill-rule:nonzero;stroke:none;stroke-width:1.39999998;marker:none;visibility:visible;display:inline;overflow:visible;enable-background:accumulate" />
    </g>
    <path
       inkscape:connector-curvature="0"
       id="path5580"
       d="m 398.14533,511.28588 c 4.01786,1.6072 3.30357,4.1072 6.51786,2.4107 3.21428,-1.6964 7.05357,-1.5178 8.03571,-0.4464 0.98215,1.0714 3.83929,0.4464 5.26786,2.2322 1.42857,1.7857 1.60714,-2.5893 0.26786,-3.2143 -1.33929,-0.625 -4.01786,-1.6965 -4.91072,-2.2322 -0.89285,-0.5357 -6.875,0.7143 -10.71428,0.4465 -3.83929,-0.2679 -4.46429,0.8035 -4.46429,0.8035 z"
       style="opacity:0.63899997;fill:url(#radialGradient5582);fill-opacity:1;stroke:none" />
    <rect
       style="color:#000000;fill:url(#linearGradient5409);fill-opacity:1;fill-rule:nonzero;stroke:none;stroke-width:1.39999998;marker:none;visibility:visible;display:inline;overflow:visible;enable-background:accumulate"
       id="rect5401"
       width="1"
       height="40"
       x="408.07144"
       y="503.798" />
    <g
       transform="matrix(0.09263449,0.0011783,-0.00125893,0.09897248,398.05379,464.65933)"
       style="fill:#ffffff;fill-opacity:1"
       id="g11331">
      <g
         style="font-size:25.98058701px;font-style:normal;font-variant:normal;font-weight:bold;font-stretch:normal;text-align:start;line-height:125%;letter-spacing:0px;word-spacing:0px;writing-mode:lr-tb;text-anchor:start;fill:#ffffff;fill-opacity:1;stroke:none;font-family:Arial;-inkscape-font-specification:Arial Bold"
         id="g11333">
        <path
           inkscape:connector-curvature="0"
           d="m 84.22131,559.36218 -3.564719,0 0,-13.4343 c -1.302417,1.21786 -2.837402,2.11855 -4.604957,2.70209 l 0,-3.23489 c 0.930291,-0.30445 1.940928,-0.88165 3.031914,-1.73162 1.090975,-0.84993 1.839439,-1.84154 2.245392,-2.97482 l 2.89237,0 z"
           style="fill:#ffffff;fill-opacity:1"
           id="path11335" />
      </g>
      <g
         style="font-size:25.98058701px;font-style:normal;font-variant:normal;font-weight:bold;font-stretch:normal;text-align:start;line-height:125%;letter-spacing:0px;word-spacing:0px;writing-mode:lr-tb;text-anchor:start;fill:#ffffff;fill-opacity:1;stroke:none;font-family:Arial;-inkscape-font-specification:Arial Bold"
         id="g11337">
        <path
           inkscape:connector-curvature="0"
           d="m 88.139052,647.05118 0,3.311 -12.495546,0 c 0.135315,-1.25167 0.541261,-2.43779 1.21784,-3.55837 0.676575,-1.12058 2.012815,-2.60694 4.008724,-4.45907 1.606864,-1.49692 2.59213,-2.51179 2.955799,-3.0446 0.490509,-0.73577 0.735769,-1.46309 0.735778,-2.18197 -9e-6,-0.79496 -0.213554,-1.406 -0.640635,-1.8331 -0.427098,-0.42707 -1.016988,-0.64062 -1.769673,-0.64064 -0.744242,2e-5 -1.336247,0.22414 -1.776017,0.67235 -0.43978,0.44825 -0.693497,1.19249 -0.76115,2.23271 l -3.552033,-0.3552 c 0.211429,-1.96206 0.87532,-3.37019 1.991675,-4.22439 1.11635,-0.85416 2.51179,-1.28125 4.186326,-1.28126 1.835208,1e-5 3.277163,0.49476 4.325869,1.48424 1.048683,0.98951 1.57303,2.22003 1.573043,3.69158 -1.3e-5,0.83727 -0.150129,1.63437 -0.450347,2.39128 -0.300244,0.75693 -0.775962,1.54979 -1.427156,2.37859 -0.431329,0.54973 -1.209393,1.34048 -2.334194,2.37225 -1.124818,1.03179 -1.837338,1.71682 -2.137563,2.05511 -0.300237,0.33829 -0.543382,0.66812 -0.729435,0.98949 z"
           style="fill:#ffffff;fill-opacity:1"
           id="path11339" />
      </g>
      <g
         style="font-size:25.98058701px;font-style:normal;font-variant:normal;font-weight:bold;font-stretch:normal;text-align:start;line-height:125%;letter-spacing:0px;word-spacing:0px;writing-mode:lr-tb;text-anchor:start;fill:#ffffff;fill-opacity:1;stroke:none;font-family:Arial;-inkscape-font-specification:Arial Bold"
         id="g11341">
        <path
           inkscape:connector-curvature="0"
           d="m 153.15093,554.57962 3.55204,-0.36789 c 0.10148,0.80344 0.40171,1.43985 0.90069,1.90922 0.49897,0.46938 1.07406,0.70407 1.72527,0.70407 0.74423,0 1.37429,-0.30235 1.89019,-0.90704 0.51588,-0.60469 0.77383,-1.51595 0.77384,-2.7338 -1e-5,-1.14172 -0.25584,-1.99801 -0.7675,-2.56888 -0.51167,-0.57085 -1.17767,-0.85628 -1.99801,-0.85629 -1.02333,10e-6 -1.94094,0.45247 -2.75283,1.35738 l -2.89237,-0.41863 1.82676,-9.67929 9.42557,0 0,3.33637 -6.72349,0 -0.55817,3.15877 c 0.79497,-0.39747 1.60686,-0.59622 2.43568,-0.59623 1.58149,10e-6 2.92196,0.5751 4.02141,1.72527 1.09942,1.1502 1.64914,2.64289 1.64915,4.4781 -1e-5,1.53076 -0.44401,2.8966 -1.33201,4.09753 -1.20939,1.6407 -2.88815,2.46105 -5.03627,2.46105 -1.71683,0 -3.1165,-0.46092 -4.19902,-1.38276 -1.08252,-0.92183 -1.7295,-2.16081 -1.94093,-3.71695 z"
           style="fill:#ffffff;fill-opacity:1"
           id="path11343" />
      </g>
      <g
         style="font-size:25.98058701px;font-style:normal;font-variant:normal;font-weight:bold;font-stretch:normal;text-align:start;line-height:125%;letter-spacing:0px;word-spacing:0px;writing-mode:lr-tb;text-anchor:start;fill:#ffffff;fill-opacity:1;stroke:none;font-family:Arial;-inkscape-font-specification:Arial Bold"
         id="g11345">
        <path
           inkscape:connector-curvature="0"
           d="m 113.97334,554.42739 3.45054,-0.41863 c 0.10994,0.87956 0.40595,1.5519 0.88801,2.01705 0.48206,0.46515 1.06561,0.69772 1.75065,0.69772 0.73577,0 1.35526,-0.27909 1.85847,-0.83727 0.5032,-0.55817 0.7548,-1.31086 0.75481,-2.25807 -1e-5,-0.89646 -0.24104,-1.60687 -0.72309,-2.13122 -0.48207,-0.52434 -1.06985,-0.78652 -1.76333,-0.78653 -0.4567,1e-5 -1.00219,0.0888 -1.63648,0.26641 l 0.39326,-2.90506 c 0.96412,0.0254 1.6999,-0.18393 2.20734,-0.62795 0.50742,-0.44399 0.76114,-1.03388 0.76115,-1.76967 -1e-5,-0.62582 -0.18607,-1.1248 -0.55818,-1.49693 -0.37212,-0.3721 -0.86687,-0.55816 -1.48424,-0.55818 -0.60893,2e-5 -1.12904,0.21145 -1.56036,0.63429 -0.43132,0.42288 -0.69349,1.04026 -0.78652,1.85214 l -3.28563,-0.55818 c 0.22834,-1.1248 0.57298,-2.02337 1.0339,-2.69574 0.46091,-0.67233 1.10366,-1.20091 1.92824,-1.58573 0.82458,-0.38478 1.74853,-0.57719 2.77186,-0.5772 1.75063,1e-5 3.15453,0.55819 4.21169,1.67453 0.87109,0.91339 1.30663,1.94517 1.30664,3.09534 -1e-5,1.63226 -0.89224,2.93467 -2.67671,3.90724 1.0656,0.22835 1.91767,0.74001 2.5562,1.53498 0.63851,0.79499 0.95777,1.75488 0.95778,2.87969 -1e-5,1.63224 -0.59625,3.02346 -1.7887,4.17364 -1.19248,1.15018 -2.67672,1.72527 -4.45273,1.72527 -1.68299,0 -3.07843,-0.48418 -4.18633,-1.45253 -1.10789,-0.96835 -1.75064,-2.23482 -1.92824,-3.79941 z"
           style="fill:#ffffff;fill-opacity:1"
           id="path11347" />
      </g>
      <g
         style="font-size:25.98058701px;font-style:normal;font-variant:normal;font-weight:bold;font-stretch:normal;text-align:start;line-height:125%;letter-spacing:0px;word-spacing:0px;writing-mode:lr-tb;text-anchor:start;fill:#ffffff;fill-opacity:1;stroke:none;font-family:Arial;-inkscape-font-specification:Arial Bold"
         id="g11349">
        <path
           inkscape:connector-curvature="0"
           d="m 122.09009,649.36218 0,-3.74232 -7.6115,0 0,-3.12071 8.06819,-11.81051 2.99386,0 0,11.79782 2.30882,0 0,3.1334 -2.30882,0 0,3.74232 z m 0,-6.87572 0,-6.3556 -4.27513,6.3556 z"
           style="fill:#ffffff;fill-opacity:1"
           id="path11351" />
      </g>
      <g
         style="font-size:23.18659019px;font-style:normal;font-variant:normal;font-weight:bold;font-stretch:normal;text-align:start;line-height:125%;letter-spacing:0px;word-spacing:0px;writing-mode:lr-tb;text-anchor:start;fill:#ffffff;fill-opacity:1;stroke:none;font-family:Arial;-inkscape-font-specification:Arial Bold"
         id="g11353">
        <path
           inkscape:connector-curvature="0"
           d="m 155.79844,647.36218 0,-16.59743 7.05334,0 c 1.77371,2e-5 3.06248,0.14908 3.86632,0.4472 0.80382,0.29815 1.44726,0.82838 1.93033,1.59068 0.48304,0.76234 0.72457,1.6341 0.72458,2.61529 -1e-5,1.24538 -0.36608,2.27376 -1.09819,3.08513 -0.73214,0.81139 -1.82656,1.32274 -3.28326,1.53407 0.72457,0.42268 1.32273,0.88687 1.79447,1.39256 0.47172,0.5057 1.10762,1.40388 1.90769,2.69453 l 2.02656,3.23797 -4.00784,0 -2.42282,-3.61158 c -0.86045,-1.29066 -1.44917,-2.10392 -1.76616,-2.4398 -0.31701,-0.33587 -0.65289,-0.56607 -1.00762,-0.69062 -0.35475,-0.12453 -0.91706,-0.1868 -1.68692,-0.1868 l -0.67929,0 0,6.9288 z m 3.35119,-9.57805 2.47942,0 c 1.60766,10e-6 2.6115,-0.0679 3.01154,-0.20379 0.40002,-0.13585 0.71325,-0.36983 0.93969,-0.70194 0.22642,-0.33209 0.33964,-0.74721 0.33965,-1.24537 -1e-5,-0.55852 -0.14908,-1.0095 -0.4472,-1.35293 -0.29815,-0.34341 -0.71893,-0.5604 -1.26236,-0.65099 -0.27172,-0.0377 -1.08688,-0.0566 -2.44546,-0.0566 l -2.61528,0 z"
           style="fill:#ffffff;fill-opacity:1"
           id="path11355" />
      </g>
    </g>
    <ellipse
       ry="11.884829"
       rx="11.909831"
       cy="523.79285"
       cx="408.5712"
       style="fill:url(#linearGradient11568);fill-opacity:1;stroke:#ece5e5;stroke-width:0;stroke-linecap:round;stroke-linejoin:round;stroke-miterlimit:4;stroke-opacity:1;stroke-dasharray:none;stroke-dashoffset:0"
       id="path11138" />
    <ellipse
       ry="10.702229"
       rx="10.718848"
       cy="523.85004"
       cx="408.5712"
       style="fill:url(#radialGradient5344);fill-opacity:1;stroke:#645757;stroke-width:0.12245612;stroke-linecap:round;stroke-linejoin:round;stroke-miterlimit:4;stroke-opacity:1;stroke-dasharray:none;stroke-dashoffset:0"
       id="path10546" />
    <path
       style="font-style:normal;font-variant:normal;font-weight:normal;font-stretch:normal;text-indent:0;text-align:start;text-decoration:none;line-height:normal;letter-spacing:normal;word-spacing:normal;text-transform:none;direction:ltr;block-progression:tb;writing-mode:lr-tb;text-anchor:start;baseline-shift:baseline;opacity:0.74634148;color:#000000;fill:url(#linearGradient5399);fill-opacity:1;stroke:none;stroke-width:4.51399994;marker:none;visibility:visible;display:inline;overflow:visible;enable-background:accumulate;font-family:Sans;-inkscape-font-specification:Sans"
       d="m 404.6116,518.35808 c -0.039,0.1116 -0.0853,0.2114 -0.18741,0.2945 -0.10213,0.083 -0.20793,0.1582 -0.2945,0.1874 l 0,0.2945 c 0.16448,-0.055 0.30618,-0.122 0.42836,-0.241 l -0.0268,1.3118 0.34804,0 0.0268,-1.8472 -0.29449,0 z m 3.58749,0.054 c -0.0948,-8e-4 -0.16408,0.017 -0.24095,0.053 -0.0769,0.037 -0.14387,0.095 -0.18741,0.1607 -0.0435,0.066 -0.0845,0.1567 -0.10708,0.2677 l 0.29449,0.053 c 0.01,-0.08 0.0398,-0.1462 0.0803,-0.1874 0.0405,-0.042 0.10423,-0.054 0.16063,-0.053 0.0572,0 0.0999,0.017 0.13387,0.053 0.034,0.037 0.0543,0.072 0.0535,0.1339 -9.3e-4,0.073 -0.0328,0.1437 -0.0803,0.1874 -0.0476,0.043 -0.1249,0.054 -0.21418,0.054 l -0.0268,0.2944 c 0.059,-0.017 0.0915,-0.028 0.13386,-0.027 0.0642,8e-4 0.1434,0.028 0.1874,0.08 0.044,0.053 0.0547,0.1254 0.0535,0.2142 -10e-4,0.094 -0.033,0.1593 -0.0803,0.2141 -0.0473,0.055 -0.0925,0.081 -0.16064,0.08 -0.0635,-8e-4 -0.11656,-0.01 -0.16063,-0.053 -0.0441,-0.047 -0.0712,-0.127 -0.0803,-0.2142 l -0.32127,0.027 c 0.0145,0.1551 0.0592,0.3042 0.16063,0.4016 0.10141,0.097 0.24569,0.1339 0.40159,0.1339 0.16452,0 0.28967,-0.048 0.40158,-0.1607 0.11192,-0.1125 0.18535,-0.2401 0.18741,-0.4016 0.001,-0.1113 -0.049,-0.2147 -0.10709,-0.2945 -0.0582,-0.079 -0.11575,-0.1366 -0.21418,-0.1605 0.16653,-0.094 0.2389,-0.2133 0.24095,-0.3749 0.002,-0.1138 -0.0276,-0.2298 -0.10709,-0.3212 -0.0965,-0.1113 -0.23941,-0.1604 -0.40158,-0.1604 z m 3.293,0.08 -0.18741,0.937 0.26773,0.054 c 0.0764,-0.089 0.17292,-0.1338 0.26772,-0.1338 0.076,0 0.11395,0.023 0.16063,0.08 0.0467,0.057 0.0818,0.1548 0.0803,0.2678 -0.002,0.1205 -0.0318,0.2086 -0.0803,0.2677 -0.0485,0.059 -0.0917,0.081 -0.16063,0.08 -0.0603,-10e-4 -0.11501,-0.01 -0.16063,-0.054 -0.0456,-0.047 -0.0719,-0.1077 -0.0803,-0.1873 l -0.34805,0.027 c 0.0176,0.1543 0.0883,0.2831 0.18741,0.3747 0.0991,0.092 0.21578,0.1339 0.37481,0.1339 0.19899,0 0.36781,-0.08 0.48191,-0.2409 0.0838,-0.1179 0.13189,-0.2501 0.13386,-0.4016 0.002,-0.1818 -0.0602,-0.3401 -0.16064,-0.4552 -0.10039,-0.1147 -0.22831,-0.1606 -0.37481,-0.1606 -0.0768,-9e-4 -0.14004,0.015 -0.21418,0.054 l 0.0535,-0.3213 0.61577,0 0,-0.3213 -0.85672,-3e-4 z m -6.80017,2.0883 a 0.25769598,0.27243153 0.01271935 0 0 -0.0268,0.027 0.25769598,0.27243153 0.01271935 0 0 -0.16064,0.2678 l -0.0268,5.8631 a 0.25866105,0.27345177 0.01271935 1 0 0.50868,0 l 0,-2.356 3.13236,0 0,2.4095 a 0.25866105,0.27345177 0.01271935 0 0 0.4819,0.1339 0.25866105,0.27345177 0.01271935 0 0 0.0268,-0.1339 l 0,-2.4362 3.37332,0 0,2.4898 a 0.25866105,0.27345177 0.01271935 0 0 0.0535,0.1606 0.25866105,0.27345177 0.01271935 0 0 0.0535,0.054 0.25866105,0.27345177 0.01271935 0 0 0.26772,0.027 0.25866105,0.27345177 0.01271935 0 0 0.13386,-0.2409 l 0,-2.6504 a 0.2586795,0.27347128 0.01271935 0 0 0,-0.1875 0.2586795,0.27347128 0.01271935 0 0 0,-0.053 l 0.0268,-2.9986 a 0.25769598,0.27243153 0.01271935 0 0 -0.21418,-0.2677 0.25769598,0.27243153 0.01271935 0 0 -0.0535,0 0.25769598,0.27243153 0.01271935 0 0 -0.24095,0.2677 l 0,2.8647 -3.37332,0 0,-2.9182 a 0.25769598,0.27243153 0.01271935 0 0 -0.21417,-0.2677 0.25769598,0.27243153 0.01271935 0 0 -0.0535,0 0.25769598,0.27243153 0.01271935 0 0 -0.24096,0.2677 l 0,2.945 -3.15913,0 0.0268,-2.9717 a 0.25769598,0.27243153 0.01271935 0 0 0,-0.08 0.25769598,0.27243153 0.01271935 0 0 -0.2945,-0.2142 0.25769598,0.27243153 0.01271935 0 0 -0.0268,0 z m 3.64103,6.7466 -0.77639,1.1512 0,0.3213 0.72285,0 -0.0268,0.3748 0.32127,0 0.0268,-0.3748 0.21418,0 0,-0.3213 -0.21418,0 0,-1.1512 -0.26773,-2e-4 z m 3.07882,0.027 -0.0268,1.6599 0.32127,0 0,-0.696 0.0535,0 c 0.0713,9e-4 0.12793,0.014 0.16064,0.027 0.0327,0.013 0.0781,0.047 0.10709,0.08 0.0289,0.033 0.0825,0.1121 0.16063,0.241 l 0.21418,0.348 0.37481,0.027 -0.18741,-0.348 c -0.0725,-0.1287 -0.14434,-0.2172 -0.1874,-0.2677 -0.0431,-0.051 -0.094,-0.091 -0.16064,-0.1339 0.13521,-0.019 0.25243,-0.055 0.32127,-0.1338 0.0688,-0.079 0.10555,-0.1981 0.10709,-0.3213 10e-4,-0.097 -0.0365,-0.1647 -0.0803,-0.241 -0.0438,-0.076 -0.0865,-0.1298 -0.16063,-0.1606 -0.0741,-0.031 -0.21051,-0.053 -0.37481,-0.053 l -0.64255,-0.028 z m -6.82694,0.027 c -0.15512,0 -0.27033,0.024 -0.37482,0.1071 -0.10448,0.083 -0.16534,0.2344 -0.1874,0.4284 l 0.32126,0.027 c 0.008,-0.1029 0.039,-0.1706 0.0803,-0.2142 0.0413,-0.043 0.0917,-0.053 0.16064,-0.053 0.0697,8e-4 0.12161,0.011 0.16063,0.053 0.039,0.042 0.0546,0.1086 0.0535,0.1874 -9e-4,0.071 -0.034,0.1422 -0.0803,0.2141 -0.0344,0.053 -0.11698,0.1483 -0.26772,0.2946 -0.18722,0.1809 -0.31073,0.3182 -0.37481,0.4283 -0.0641,0.1101 -0.093,0.2243 -0.10709,0.3481 l 1.15121,0.027 0,-0.3212 -0.64254,-0.027 c 0.0176,-0.031 0.0253,-0.047 0.0535,-0.08 0.0282,-0.033 0.10868,-0.1134 0.21418,-0.2141 0.10549,-0.1008 0.17353,-0.1602 0.21418,-0.2142 0.0614,-0.081 0.10509,-0.1664 0.13386,-0.241 0.0288,-0.075 0.0525,-0.1578 0.0535,-0.2409 0.002,-0.1457 -0.0647,-0.2756 -0.16063,-0.3748 -0.0959,-0.1002 -0.23156,-0.1353 -0.40156,-0.1353 z m 7.12144,0.2678 0.24095,0 c 0.12585,0 0.21582,0 0.24095,0 0.0502,0.01 0.0799,0.046 0.10709,0.08 0.0272,0.034 0.0542,0.078 0.0535,0.1338 -6.3e-4,0.049 -0.0322,0.075 -0.0535,0.1071 -0.0214,0.032 -0.0431,0.067 -0.0803,0.08 -0.0372,0.017 -0.1188,0.027 -0.26772,0.027 l -0.24096,0 0,-0.4286 z m -3.42686,0.2141 0,0.6158 -0.40159,0 0.40159,-0.6165 z"
       id="path11164"
       inkscape:connector-curvature="0" />
    <path
       inkscape:connector-curvature="0"
       id="path5124"
       d="m 410.8028,515.16728 c -4.58383,-1.2968 -9.24012,1.3573 -10.40011,5.9279 -0.18502,0.729 -0.26904,1.4611 -0.26246,2.1848 0.0362,-0.2034 0.0806,-0.406 0.13208,-0.6089 1.16,-4.5707 5.81629,-7.2247 10.40011,-5.928 3.85272,1.0899 6.42783,4.6229 6.46254,8.4363 0.77824,-4.3764 -1.95203,-8.773 -6.33216,-10.0121 z"
       style="opacity:0.26100003;fill:#666666;fill-opacity:1;stroke:#ece5e5;stroke-width:0;stroke-linecap:round;stroke-linejoin:round;stroke-miterlimit:4;stroke-opacity:1;stroke-dasharray:none;stroke-dashoffset:0" />
    <path
       style="opacity:0.26100003;fill:#666666;fill-opacity:1;stroke:#ece5e5;stroke-width:0;stroke-linecap:round;stroke-linejoin:round;stroke-miterlimit:4;stroke-opacity:1;stroke-dasharray:none;stroke-dashoffset:0"
       d="m 406.60417,532.63948 c 4.58383,1.2967 9.24012,-1.3573 10.40011,-5.928 0.18502,-0.7289 0.26904,-1.4611 0.26246,-2.1848 -0.0362,0.2034 -0.0806,0.406 -0.13208,0.609 -1.16,4.5706 -5.81628,7.2246 -10.40011,5.9279 -3.85272,-1.0899 -6.42783,-4.6228 -6.46254,-8.4363 -0.77824,4.3764 1.95203,8.7731 6.33216,10.0122 z"
       id="path5397"
       inkscape:connector-curvature="0" />
    <path
       style="fill:#000000;fill-opacity:0.1814346;stroke:#ece5e5;stroke-width:0;stroke-linecap:round;stroke-linejoin:round;stroke-miterlimit:4;stroke-opacity:1;stroke-dasharray:none;stroke-dashoffset:0"
       d="m 408.5739,511.90598 c -6.57761,0 -11.91369,5.3231 -11.91369,11.8869 0,0.146 0.0215,0.2836 0.0268,0.4283 0.22993,-6.3618 5.45559,-11.4586 11.88692,-11.4586 6.43149,0 11.65723,5.0966 11.88692,11.4586 0.005,-0.1446 0.0268,-0.2825 0.0268,-0.4283 1e-5,-6.5638 -5.33607,-11.8869 -11.91369,-11.8869 z"
       id="path5467"
       inkscape:connector-curvature="0" />
    <path
       id="path5472"
       d="m 408.5739,535.64118 c -6.57761,0 -11.91369,-5.3231 -11.91369,-11.8869 0,-0.146 0.0215,-0.2837 0.0268,-0.4284 0.22993,6.3619 5.45559,11.4586 11.88692,11.4586 6.43149,0 11.65723,-5.0966 11.88692,-11.4586 0.005,0.1446 0.0268,0.2826 0.0268,0.4284 1e-5,6.5638 -5.33607,11.8869 -11.91369,11.8869 z"
       style="fill:#000000;fill-opacity:0.1814346;stroke:#ece5e5;stroke-width:0;stroke-linecap:round;stroke-linejoin:round;stroke-miterlimit:4;stroke-opacity:1;stroke-dasharray:none;stroke-dashoffset:0"
       inkscape:connector-curvature="0" />
  </g>
</svg>
