<?xml version="1.0" encoding="UTF-8" standalone="no"?>
<!-- Created with Inkscape (http://www.inkscape.org/) -->

<svg
   xmlns:dc="http://purl.org/dc/elements/1.1/"
   xmlns:cc="http://creativecommons.org/ns#"
   xmlns:rdf="http://www.w3.org/1999/02/22-rdf-syntax-ns#"
   xmlns:svg="http://www.w3.org/2000/svg"
   xmlns="http://www.w3.org/2000/svg"
   xmlns:xlink="http://www.w3.org/1999/xlink"
   xmlns:sodipodi="http://sodipodi.sourceforge.net/DTD/sodipodi-0.dtd"
   xmlns:inkscape="http://www.inkscape.org/namespaces/inkscape"
   width="48"
   height="48"
   id="svg2"
   version="1.1"
   inkscape:version="0.49 r12742"
   sodipodi:docname="system-suspend.svg">
  <defs
     id="defs4">
    <filter
       style="color-interpolation-filters:sRGB"
       id="filter3174-9">
      <feGaussianBlur
         stdDeviation="1.71"
         id="feGaussianBlur3176-8" />
    </filter>
    <filter
       style="color-interpolation-filters:sRGB"
       id="filter3794-9"
       height="1.3839999"
       width="1.3839999"
       y="-0.192"
       x="-0.192">
      <feGaussianBlur
         stdDeviation="5.28"
         id="feGaussianBlur3796-4" />
    </filter>
    <linearGradient
       inkscape:collect="always"
       xlink:href="#linearGradient839"
       id="linearGradient859"
       gradientUnits="userSpaceOnUse"
       gradientTransform="translate(1.1676686e-5,-5.2664063e-6)"
       x1="23.102119"
       y1="-1052.3849"
       x2="23.102119"
       y2="-1004.3615" />
    <linearGradient
       id="linearGradient4052">
      <stop
         id="stop4054"
         offset="0"
         style="stop-color:#ffe7b9;stop-opacity:1" />
      <stop
         id="stop4056"
         offset="1"
         style="stop-color:#fffcf5;stop-opacity:1" />
    </linearGradient>
    <linearGradient
       id="linearGradient839">
      <stop
         style="stop-color:#ffa700;stop-opacity:1"
         offset="0"
         id="stop841" />
      <stop
         style="stop-color:#ffce58;stop-opacity:1"
         offset="1"
         id="stop843" />
    </linearGradient>
    <linearGradient
       inkscape:collect="always"
       xlink:href="#linearGradient4052"
       id="linearGradient4221"
       x1="24"
       y1="39.400005"
       x2="24"
       y2="8.5999832"
       gradientUnits="userSpaceOnUse"
       gradientTransform="matrix(0.99997462,0,0,0.99997403,2.1822484e-4,1004.3632)" />
  </defs>
  <sodipodi:namedview
     id="base"
     pagecolor="#ffffff"
     bordercolor="#666666"
     borderopacity="1.0"
     inkscape:pageopacity="0.0"
     inkscape:pageshadow="2"
     inkscape:zoom="5.6568543"
     inkscape:cx="22.886496"
     inkscape:cy="8.2573536"
     inkscape:document-units="px"
     inkscape:current-layer="layer1"
     showgrid="false"
     inkscape:window-width="1366"
     inkscape:window-height="718"
     inkscape:window-x="0"
     inkscape:window-y="23"
     inkscape:window-maximized="1">
    <sodipodi:guide
       position="11.6,11.600018"
       orientation="-24.799999,0"
       id="guide3364" />
    <sodipodi:guide
       position="11.6,36.400017"
       orientation="0,24.799999"
       id="guide3366" />
    <sodipodi:guide
       position="36.4,36.400017"
       orientation="24.799999,0"
       id="guide3368" />
    <sodipodi:guide
       position="36.4,11.600018"
       orientation="0,-24.799999"
       id="guide3370" />
    <sodipodi:guide
       position="8.6000004,8.6000178"
       orientation="-30.799999,0"
       id="guide3374" />
    <sodipodi:guide
       position="8.6000004,39.400017"
       orientation="0,30.799999"
       id="guide3376" />
    <sodipodi:guide
       position="39.4,39.400017"
       orientation="30.799999,0"
       id="guide3378" />
    <sodipodi:guide
       position="39.4,8.6000178"
       orientation="0,-30.799999"
       id="guide3380" />
    <sodipodi:guide
       position="11.6,26.599993"
       orientation="18,0"
       id="guide3387" />
    <sodipodi:guide
       position="11.6,8.599993"
       orientation="0,24.800001"
       id="guide3389" />
    <sodipodi:guide
       position="36.400002,8.599993"
       orientation="-18,0"
       id="guide3391" />
    <sodipodi:guide
       position="8.6000004,24.000017"
       orientation="15.400024,0"
       id="guide4108" />
    <sodipodi:guide
       position="8.6000004,8.599993"
       orientation="0,30.800001"
       id="guide4110" />
    <sodipodi:guide
       position="39.400002,8.599993"
       orientation="-15.400024,0"
       id="guide4112" />
    <sodipodi:guide
       position="39.400002,24.000017"
       orientation="0,-30.800001"
       id="guide4114" />
    <sodipodi:guide
       position="8.5996599,39.3996"
       orientation="0,11"
       id="guide4187" />
    <sodipodi:guide
       position="19.59966,39.3996"
       orientation="11,0"
       id="guide4189" />
    <sodipodi:guide
       position="19.59966,28.3996"
       orientation="0,-11"
       id="guide4191" />
    <sodipodi:guide
       position="8.5996599,28.3996"
       orientation="-11,0"
       id="guide4193" />
    <sodipodi:guide
       position="24,39.399615"
       orientation="30.799622,0"
       id="guide4221" />
    <sodipodi:guide
       position="24,8.599993"
       orientation="0,15.400002"
       id="guide4223" />
    <sodipodi:guide
       position="39.400002,8.599993"
       orientation="-30.799622,0"
       id="guide4225" />
    <sodipodi:guide
       position="39.400002,39.399615"
       orientation="0,-15.400002"
       id="guide4227" />
  </sodipodi:namedview>
  <metadata
     id="metadata7">
    <rdf:RDF>
      <cc:Work
         rdf:about="">
        <dc:format>image/svg+xml</dc:format>
        <dc:type
           rdf:resource="http://purl.org/dc/dcmitype/StillImage" />
        <dc:title></dc:title>
      </cc:Work>
    </rdf:RDF>
  </metadata>
  <g
     inkscape:label="Capa 1"
     inkscape:groupmode="layer"
     id="layer1"
     transform="translate(0,-1004.3622)">
    <g
       id="layer5"
       style="display:none"
       transform="translate(-121.93813,968.5619)">
      <rect
         width="66"
         height="66"
         rx="12"
         ry="12"
         x="15"
         y="15"
         clip-path="url(#clipPath3613-0)"
         id="rect3171"
         style="opacity:0.1;fill:url(#linearGradient3613-6);fill-opacity:1;fill-rule:nonzero;stroke:#ffffff;stroke-width:0.5;stroke-linecap:round;stroke-linejoin:miter;stroke-miterlimit:4;stroke-opacity:1;stroke-dasharray:none;stroke-dashoffset:0;filter:url(#filter3794-9)" />
    </g>
    <rect
       style="fill:url(#linearGradient859);fill-opacity:1.0;stroke:none"
       id="rect2991-1-7"
       width="48"
       height="48"
       x="1.1222076e-07"
       y="-1052.3622"
       ry="1.9445436"
       transform="scale(1,-1)" />
    <path
       inkscape:connector-curvature="0"
       style="fill:#000000;fill-opacity:1;stroke:none"
       d="m -1.1222077e-7,1049.3622 0,1.0625 c 0,1.0773 0.86022290222077,1.9375 1.93749991222077,1.9375 l 44.1250002,0 c 1.077277,0 1.9375,-0.8602 1.9375,-1.9375 l 0,-1.0625 c 0,1.0773 -0.860223,1.9375 -1.9375,1.9375 l -44.1250002,0 c -1.07727701,0 -1.93749991222077,-0.8602 -1.93749991222077,-1.9375 z"
       id="rect846" />
    <path
       inkscape:connector-curvature="0"
       style="fill:#ffffff;fill-opacity:0.5372549;stroke:none"
       d="m 2.5312498,1005.0185 c -0.9170884,0 -1.67114671,0.6395 -1.84374991,1.5 0.33561201,-0.2799 0.77451211,-0.4375 1.24999991,-0.4375 l 44.1250002,0 c 0.475488,0 0.914388,0.1576 1.25,0.4375 -0.172603,-0.8605 -0.926662,-1.5 -1.84375,-1.5 l -42.9375002,0 z"
       id="path7515" />
    <path
       inkscape:connector-curvature="0"
       style="fill:#000000;fill-opacity:0.39215686;stroke:none"
       d="m 1.9374998,1004.3622 c -1.07727691,0 -1.93749991222077,0.8602 -1.93749991222077,1.9375 l 0,43.0625 c 0,0.7934 0.48002360222077,1.449 1.15624991222077,1.75 -0.30934161,-0.3333 -0.49999991,-0.7824 -0.49999991,-1.2812 l 0,-42.9375 c 0,-1.0482 0.82689891,-1.875 1.87499991,-1.875 l 42.9375002,0 c 1.048101,0 1.875,0.8268 1.875,1.875 l 0,42.9375 c 0,0.4988 -0.190658,0.9479 -0.5,1.2812 0.676226,-0.301 1.15625,-0.9566 1.15625,-1.75 l 0,-43.0625 c 0,-1.0773 -0.860223,-1.9375 -1.9375,-1.9375 l -44.1250002,0 z"
       id="rect4280" />
    <path
       inkscape:connector-curvature="0"
       id="path4229"
       d="m 24.021093,1014.2622 c -4.037291,-10e-5 -8.049226,1.6612 -10.90402,4.5116 -2.854798,2.8505 -4.5175662,6.8571 -4.5174636,10.8884 -1.026e-4,4.0313 1.6626666,8.0379 4.5174636,10.8884 2.854793,2.8504 6.866729,4.5117 10.90402,4.5116 4.037291,10e-5 8.049223,-1.6612 10.90402,-4.5116 0.348339,-0.3478 0.887929,-0.9661 1.171845,-1.3886 1.091687,-1.4797 -1.023855,-3.2376 -2.400329,-1.6992 -0.199526,0.2394 -0.673446,0.7461 -0.894509,0.9668 -2.29869,2.2952 -5.530188,3.6328 -8.781027,3.6327 -3.25084,10e-5 -6.480385,-1.3375 -8.779074,-3.6327 -2.298692,-2.2954 -3.638689,-5.5214 -3.638579,-8.7674 -1.1e-4,-3.246 1.339888,-6.4719 3.638579,-8.7674 2.29869,-2.2951 5.528234,-3.6328 8.779074,-3.6327 3.250839,-1e-4 6.482337,1.3376 8.781027,3.6327 0.221063,0.2208 0.694983,0.7274 0.894509,0.9668 1.376474,1.5384 3.492016,-0.2194 2.400329,-1.6992 -0.283916,-0.4225 -0.823506,-1.0408 -1.171845,-1.3886 -2.854797,-2.8504 -6.866729,-4.5117 -10.90402,-4.5116 z m 1.478478,13.9 c -0.830879,0 -1.499962,0.669 -1.499962,1.5 0,0.831 0.669083,1.5 1.499962,1.5 l 12.400076,0 c 0.830879,0 1.499962,-0.669 1.499962,-1.5 0,-0.831 -0.669083,-1.5 -1.499962,-1.5 l -12.400076,0 z"
       style="fill:#000000;fill-opacity:0.05882353" />
    <path
       style="fill:#000000;fill-opacity:0.11764706"
       d="m 24.021093,1013.7622 c -4.037291,-10e-5 -8.049226,1.6612 -10.90402,4.5116 -2.854798,2.8505 -4.5175662,6.8571 -4.5174636,10.8884 -1.026e-4,4.0313 1.6626666,8.0379 4.5174636,10.8884 2.854793,2.8504 6.866729,4.5117 10.90402,4.5116 4.037291,10e-5 8.049223,-1.6612 10.90402,-4.5116 0.348339,-0.3478 0.887929,-0.9661 1.171845,-1.3886 1.091687,-1.4797 -1.023855,-3.2376 -2.400329,-1.6992 -0.199526,0.2394 -0.673446,0.7461 -0.894509,0.9668 -2.29869,2.2952 -5.530188,3.6328 -8.781027,3.6327 -3.25084,10e-5 -6.480385,-1.3375 -8.779074,-3.6327 -2.298692,-2.2954 -3.638689,-5.5214 -3.638579,-8.7674 -1.1e-4,-3.246 1.339888,-6.4719 3.638579,-8.7674 2.29869,-2.2951 5.528234,-3.6328 8.779074,-3.6327 3.250839,-1e-4 6.482337,1.3376 8.781027,3.6327 0.221063,0.2208 0.694983,0.7274 0.894509,0.9668 1.376474,1.5384 3.492016,-0.2194 2.400329,-1.6992 -0.283916,-0.4225 -0.823506,-1.0408 -1.171845,-1.3886 -2.854797,-2.8504 -6.866729,-4.5117 -10.90402,-4.5116 z m 1.478478,13.9 c -0.830879,0 -1.499962,0.669 -1.499962,1.5 0,0.831 0.669083,1.5 1.499962,1.5 l 12.400076,0 c 0.830879,0 1.499962,-0.669 1.499962,-1.5 0,-0.831 -0.669083,-1.5 -1.499962,-1.5 l -12.400076,0 z"
       id="path4227"
       inkscape:connector-curvature="0" />
    <path
       inkscape:connector-curvature="0"
       id="path4223"
       d="m 24.021093,1013.3622 c -4.037291,-10e-5 -8.049226,1.6612 -10.90402,4.5116 -2.854798,2.8505 -4.5175662,6.8571 -4.5174636,10.8884 -1.026e-4,4.0313 1.6626666,8.0379 4.5174636,10.8884 2.854793,2.8504 6.866729,4.5117 10.90402,4.5116 4.037291,10e-5 8.049223,-1.6612 10.90402,-4.5116 0.348339,-0.3478 0.887929,-0.9661 1.171845,-1.3886 1.091687,-1.4797 -1.023855,-3.2376 -2.400329,-1.6992 -0.199526,0.2394 -0.673446,0.7461 -0.894509,0.9668 -2.29869,2.2952 -5.530188,3.6328 -8.781027,3.6327 -3.25084,10e-5 -6.480385,-1.3375 -8.779074,-3.6327 -2.298692,-2.2954 -3.638689,-5.5214 -3.638579,-8.7674 -1.1e-4,-3.246 1.339888,-6.4719 3.638579,-8.7674 2.29869,-2.2951 5.528234,-3.6328 8.779074,-3.6327 3.250839,-1e-4 6.482337,1.3376 8.781027,3.6327 0.221063,0.2208 0.694983,0.7274 0.894509,0.9668 1.376474,1.5384 3.492016,-0.2194 2.400329,-1.6992 -0.283916,-0.4225 -0.823506,-1.0408 -1.171845,-1.3886 -2.854797,-2.8504 -6.866729,-4.5117 -10.90402,-4.5116 z m 1.478478,13.9 c -0.830879,0 -1.499962,0.669 -1.499962,1.5 0,0.831 0.669083,1.5 1.499962,1.5 l 12.400076,0 c 0.830879,0 1.499962,-0.669 1.499962,-1.5 0,-0.831 -0.669083,-1.5 -1.499962,-1.5 l -12.400076,0 z"
       style="fill:#000000;fill-opacity:0.23529412" />
    <path
       style="fill:url(#linearGradient4221);fill-opacity:1"
       d="m 24.021093,1012.9626 c -4.037291,-10e-5 -8.049226,1.6612 -10.90402,4.5116 -2.854798,2.8505 -4.5175662,6.8571 -4.5174636,10.8884 -1.026e-4,4.0313 1.6626666,8.0379 4.5174636,10.8884 2.854793,2.8504 6.866729,4.5117 10.90402,4.5116 4.037291,10e-5 8.049223,-1.6612 10.90402,-4.5116 0.348339,-0.3478 0.887929,-0.9661 1.171845,-1.3886 1.091687,-1.4797 -1.023855,-3.2376 -2.400329,-1.6992 -0.199526,0.2394 -0.673446,0.7461 -0.894509,0.9668 -2.29869,2.2952 -5.530188,3.6328 -8.781027,3.6327 -3.25084,10e-5 -6.480385,-1.3375 -8.779074,-3.6327 -2.298692,-2.2954 -3.638689,-5.5214 -3.638579,-8.7674 -1.1e-4,-3.246 1.339888,-6.4719 3.638579,-8.7674 2.29869,-2.2951 5.528234,-3.6328 8.779074,-3.6327 3.250839,-10e-5 6.482337,1.3376 8.781027,3.6327 0.221063,0.2208 0.694983,0.7274 0.894509,0.9668 1.376474,1.5384 3.492016,-0.2194 2.400329,-1.6992 -0.283916,-0.4225 -0.823506,-1.0408 -1.171845,-1.3886 -2.854797,-2.8504 -6.866729,-4.5117 -10.90402,-4.5116 z m 1.478478,13.9 c -0.830879,0 -1.499962,0.669 -1.499962,1.5 0,0.831 0.669083,1.5 1.499962,1.5 l 12.400076,0 c 0.830879,0 1.499962,-0.669 1.499962,-1.5 0,-0.831 -0.669083,-1.5 -1.499962,-1.5 l -12.400076,0 z"
       id="path4136"
       inkscape:connector-curvature="0" />
    <path
       style="fill:#ffa803;fill-opacity:0.3137255"
       d="M 24.021484 10.800781 C 20.770644 10.800681 17.540878 12.138494 15.242188 14.433594 C 12.943497 16.729094 11.603406 19.955172 11.603516 23.201172 C 11.603511 23.334478 11.620511 23.466434 11.625 23.599609 C 11.730155 20.490422 13.038208 17.433342 15.242188 15.232422 C 17.540878 12.937322 20.770644 11.599509 24.021484 11.599609 C 27.272323 11.599509 30.504044 12.937322 32.802734 15.232422 C 33.023797 15.453222 33.49774 15.959819 33.697266 16.199219 C 34.931485 17.578629 36.75233 16.309004 36.330078 14.964844 C 36.02282 15.919215 34.676073 16.494343 33.697266 15.400391 C 33.49774 15.160991 33.023797 14.654394 32.802734 14.433594 C 30.504044 12.138494 27.272323 10.800681 24.021484 10.800781 z M 8.6191406 23.601562 C 8.615533 23.734616 8.599606 23.866852 8.5996094 24 C 8.5995068 28.0313 10.262391 32.038172 13.117188 34.888672 C 15.971981 37.739072 19.984193 39.400491 24.021484 39.400391 C 28.058775 39.400491 32.070984 37.739072 34.925781 34.888672 C 35.27412 34.540872 35.81374 33.9225 36.097656 33.5 C 36.413047 33.072511 36.45491 32.624065 36.330078 32.236328 C 36.28141 32.391248 36.210479 32.548249 36.097656 32.701172 C 35.81374 33.123672 35.27412 33.740091 34.925781 34.087891 C 32.070984 36.938291 28.058775 38.599709 24.021484 38.599609 C 19.984193 38.599709 15.971981 36.938291 13.117188 34.087891 C 10.357141 31.331999 8.7252581 27.496273 8.6191406 23.601562 z M 24.058594 23.601562 C 24.023451 23.729253 24 23.860843 24 24 C 24 24.831 24.669121 25.5 25.5 25.5 L 37.900391 25.5 C 38.73127 25.5 39.400391 24.831 39.400391 24 C 39.400391 23.860843 39.374986 23.729253 39.339844 23.601562 C 39.164524 24.23547 38.591476 24.701172 37.900391 24.701172 L 25.5 24.701172 C 24.808915 24.701172 24.233914 24.23547 24.058594 23.601562 z "
       transform="translate(0,1004.3622)"
       id="path4231" />
    <path
       style="fill:#ffffff;fill-opacity:0.23529412"
       d="M 24.021484 8.5996094 C 19.984193 8.5995094 15.971982 10.260928 13.117188 13.111328 C 10.262389 15.961828 8.5995068 19.9687 8.5996094 24 C 8.5996077 24.066574 8.6084718 24.132663 8.609375 24.199219 C 8.6636799 20.236263 10.309996 16.314684 13.117188 13.511719 C 15.971982 10.661319 19.984193 8.9999 24.021484 9 C 28.058775 8.9999 32.070984 10.661319 34.925781 13.511719 C 35.27412 13.859519 35.81374 14.477891 36.097656 14.900391 C 36.264389 15.1264 36.34774 15.357739 36.378906 15.583984 C 36.437852 15.241106 36.364643 14.861905 36.097656 14.5 C 35.81374 14.0775 35.27412 13.459128 34.925781 13.111328 C 32.070984 10.260928 28.058775 8.5995094 24.021484 8.5996094 z M 25.5 22.5 C 24.669121 22.5 24 23.169 24 24 C 24 24.068365 24.010757 24.133329 24.019531 24.199219 C 24.118246 23.465133 24.73814 22.900391 25.5 22.900391 L 37.900391 22.900391 C 38.662228 22.900391 39.280163 23.465166 39.378906 24.199219 C 39.387687 24.133307 39.400391 24.068389 39.400391 24 C 39.400391 23.169 38.73127 22.5 37.900391 22.5 L 25.5 22.5 z M 11.613281 24.199219 C 11.612139 24.266374 11.603513 24.333211 11.603516 24.400391 C 11.603406 27.646391 12.943495 30.872569 15.242188 33.167969 C 17.540876 35.463169 20.770644 36.800881 24.021484 36.800781 C 27.272323 36.800881 30.504044 35.463169 32.802734 33.167969 C 33.023797 32.947269 33.49774 32.440572 33.697266 32.201172 C 34.736534 31.039645 36.195528 31.758253 36.378906 32.816406 C 36.551802 31.561346 34.863511 30.497341 33.697266 31.800781 C 33.49774 32.040181 33.023797 32.546878 32.802734 32.767578 C 30.504044 35.062778 27.272323 36.400491 24.021484 36.400391 C 20.770644 36.400491 17.540876 35.062778 15.242188 32.767578 C 12.990609 30.519224 11.666824 27.377512 11.613281 24.199219 z "
       transform="translate(0,1004.3622)"
       id="path4236" />
  </g>
</svg>
