<?xml version="1.0" encoding="UTF-8" standalone="no"?>
<!-- Created with Inkscape (http://www.inkscape.org/) -->

<svg
   xmlns:dc="http://purl.org/dc/elements/1.1/"
   xmlns:cc="http://creativecommons.org/ns#"
   xmlns:rdf="http://www.w3.org/1999/02/22-rdf-syntax-ns#"
   xmlns:svg="http://www.w3.org/2000/svg"
   xmlns="http://www.w3.org/2000/svg"
   xmlns:xlink="http://www.w3.org/1999/xlink"
   xmlns:sodipodi="http://sodipodi.sourceforge.net/DTD/sodipodi-0.dtd"
   xmlns:inkscape="http://www.inkscape.org/namespaces/inkscape"
   width="48"
   height="48"
   id="svg2"
   version="1.1"
   inkscape:version="0.49 r12742"
   sodipodi:docname="system-restart.svg">
  <defs
     id="defs4">
    <linearGradient
       inkscape:collect="always"
       xlink:href="#linearGradient4172"
       id="linearGradient859"
       gradientUnits="userSpaceOnUse"
       gradientTransform="translate(1.1676686e-5,-5.2664063e-6)"
       x1="23.102119"
       y1="-1052.3849"
       x2="23.102119"
       y2="-1004.3615" />
    <linearGradient
       inkscape:collect="always"
       xlink:href="#linearGradient827"
       id="linearGradient4182"
       gradientUnits="userSpaceOnUse"
       gradientTransform="matrix(0,-0.99993891,0.99994865,0,4.781334e-4,1046.4619)"
       x1="2.6998863"
       y1="26.288914"
       x2="33.500668"
       y2="26.288914" />
    <linearGradient
       inkscape:collect="always"
       id="linearGradient4172">
      <stop
         style="stop-color:#1c8eff;stop-opacity:1;"
         offset="0"
         id="stop4174" />
      <stop
         style="stop-color:#44d2ff;stop-opacity:1"
         offset="1"
         id="stop4176" />
    </linearGradient>
    <linearGradient
       id="linearGradient827">
      <stop
         id="stop829"
         offset="0"
         style="stop-color:#a5e1ff;stop-opacity:1" />
      <stop
         id="stop831"
         offset="1"
         style="stop-color:#f5fcff;stop-opacity:1" />
    </linearGradient>
  </defs>
  <sodipodi:namedview
     id="base"
     pagecolor="#ffffff"
     bordercolor="#666666"
     borderopacity="1.0"
     inkscape:pageopacity="0.0"
     inkscape:pageshadow="2"
     inkscape:zoom="8"
     inkscape:cx="22.300492"
     inkscape:cy="33.959265"
     inkscape:document-units="px"
     inkscape:current-layer="layer1"
     showgrid="false"
     inkscape:window-width="1366"
     inkscape:window-height="718"
     inkscape:window-x="0"
     inkscape:window-y="23"
     inkscape:window-maximized="1">
    <sodipodi:guide
       position="11.6,11.600018"
       orientation="-24.799999,0"
       id="guide3364" />
    <sodipodi:guide
       position="11.6,36.400017"
       orientation="0,24.799999"
       id="guide3366" />
    <sodipodi:guide
       position="36.4,36.400017"
       orientation="24.799999,0"
       id="guide3368" />
    <sodipodi:guide
       position="36.4,11.600018"
       orientation="0,-24.799999"
       id="guide3370" />
    <sodipodi:guide
       position="8.6000004,8.6000178"
       orientation="-30.799999,0"
       id="guide3374" />
    <sodipodi:guide
       position="8.6000004,39.400017"
       orientation="0,30.799999"
       id="guide3376" />
    <sodipodi:guide
       position="39.4,39.400017"
       orientation="30.799999,0"
       id="guide3378" />
    <sodipodi:guide
       position="39.4,8.6000178"
       orientation="0,-30.799999"
       id="guide3380" />
    <sodipodi:guide
       position="11.6,26.599993"
       orientation="18,0"
       id="guide3387" />
    <sodipodi:guide
       position="11.6,8.599993"
       orientation="0,24.800001"
       id="guide3389" />
    <sodipodi:guide
       position="36.400002,8.599993"
       orientation="-18,0"
       id="guide3391" />
    <sodipodi:guide
       position="8.6000004,24.000017"
       orientation="15.400024,0"
       id="guide4108" />
    <sodipodi:guide
       position="8.6000004,8.599993"
       orientation="0,30.800001"
       id="guide4110" />
    <sodipodi:guide
       position="39.400002,8.599993"
       orientation="-15.400024,0"
       id="guide4112" />
    <sodipodi:guide
       position="39.400002,24.000017"
       orientation="0,-30.800001"
       id="guide4114" />
    <sodipodi:guide
       position="8.5996599,39.3996"
       orientation="0,11"
       id="guide4187" />
    <sodipodi:guide
       position="19.59966,39.3996"
       orientation="11,0"
       id="guide4189" />
    <sodipodi:guide
       position="19.59966,28.3996"
       orientation="0,-11"
       id="guide4191" />
    <sodipodi:guide
       position="8.5996599,28.3996"
       orientation="-11,0"
       id="guide4193" />
  </sodipodi:namedview>
  <metadata
     id="metadata7">
    <rdf:RDF>
      <cc:Work
         rdf:about="">
        <dc:format>image/svg+xml</dc:format>
        <dc:type
           rdf:resource="http://purl.org/dc/dcmitype/StillImage" />
        <dc:title></dc:title>
      </cc:Work>
    </rdf:RDF>
  </metadata>
  <g
     inkscape:label="Capa 1"
     inkscape:groupmode="layer"
     id="layer1"
     transform="translate(0,-1004.3622)">
    <g
       id="layer5"
       style="display:none"
       transform="translate(-121.93813,968.5619)">
      <rect
         width="66"
         height="66"
         rx="12"
         ry="12"
         x="15"
         y="15"
         clip-path="url(#clipPath3613-0)"
         id="rect3171"
         style="opacity:0.1;fill:url(#linearGradient3613-6);fill-opacity:1;fill-rule:nonzero;stroke:#ffffff;stroke-width:0.5;stroke-linecap:round;stroke-linejoin:miter;stroke-miterlimit:4;stroke-opacity:1;stroke-dasharray:none;stroke-dashoffset:0;filter:url(#filter3794-9)" />
    </g>
    <rect
       style="fill:url(#linearGradient859);fill-opacity:1.0;stroke:none"
       id="rect2991-1-7"
       width="48"
       height="48"
       x="1.1222076e-07"
       y="-1052.3622"
       ry="1.9445436"
       transform="scale(1,-1)" />
    <path
       inkscape:connector-curvature="0"
       style="fill:#000000;fill-opacity:1;stroke:none"
       d="m -1.1222077e-7,1049.3622 0,1.0625 c 0,1.0773 0.86022290222077,1.9375 1.93749991222077,1.9375 l 44.1250002,0 c 1.077277,0 1.9375,-0.8602 1.9375,-1.9375 l 0,-1.0625 c 0,1.0773 -0.860223,1.9375 -1.9375,1.9375 l -44.1250002,0 c -1.07727701,0 -1.93749991222077,-0.8602 -1.93749991222077,-1.9375 z"
       id="rect846" />
    <path
       inkscape:connector-curvature="0"
       style="fill:#ffffff;fill-opacity:0.5372549;stroke:none"
       d="m 2.5312498,1005.0185 c -0.9170884,0 -1.67114671,0.6395 -1.84374991,1.5 0.33561201,-0.2799 0.77451211,-0.4375 1.24999991,-0.4375 l 44.1250002,0 c 0.475488,0 0.914388,0.1576 1.25,0.4375 -0.172603,-0.8605 -0.926662,-1.5 -1.84375,-1.5 l -42.9375002,0 z"
       id="path7515" />
    <path
       inkscape:connector-curvature="0"
       style="fill:#000000;fill-opacity:0.39215686;stroke:none"
       d="m 1.9374998,1004.3622 c -1.07727691,0 -1.93749991222077,0.8602 -1.93749991222077,1.9375 l 0,43.0625 c 0,0.7934 0.48002360222077,1.449 1.15624991222077,1.75 -0.30934161,-0.3333 -0.49999991,-0.7824 -0.49999991,-1.2812 l 0,-42.9375 c 0,-1.0482 0.82689891,-1.875 1.87499991,-1.875 l 42.9375002,0 c 1.048101,0 1.875,0.8268 1.875,1.875 l 0,42.9375 c 0,0.4988 -0.190658,0.9479 -0.5,1.2812 0.676226,-0.301 1.15625,-0.9566 1.15625,-1.75 l 0,-43.0625 c 0,-1.0773 -0.860223,-1.9375 -1.9375,-1.9375 l -44.1250002,0 z"
       id="rect4280" />
    <path
       inkscape:connector-curvature="0"
       id="path4267"
       d="m 10.099571,1014.1625 c -0.8309783,0 -1.4999616,0.669 -1.4999616,1.4999 l 0,7.9998 c 0,0.8309 0.6689833,1.4999 1.4999616,1.4999 l 7.999797,0 c 0.830979,0 1.499962,-0.669 1.499962,-1.4999 0,-0.831 -0.668983,-1.5 -1.499962,-1.5 l -4.119036,0 c 0.08813,-0.065 0.174107,-0.1399 0.257806,-0.2285 2.313541,-2.9422 6.00936,-4.7662 9.757565,-4.7713 3.247018,-1e-4 6.47542,1.3354 8.771262,3.6308 2.296041,2.2953 3.632821,5.5231 3.632721,8.7691 10e-5,3.2461 -1.33668,6.4739 -3.632721,8.7692 -2.295842,2.2954 -5.524244,3.6309 -8.771262,3.6308 -3.748205,-0.01 -7.444024,-1.8291 -9.757565,-4.7713 -1.136271,-1.2031 -2.763689,-0.1182 -2.630792,1.1405 0.031,0.2905 0.154887,0.5901 0.40038,0.8731 2.876429,3.5627 7.403994,5.751 11.987977,5.7576 4.032498,10e-5 8.040974,-1.6589 10.892302,-4.5096 2.851428,-2.8506 4.511704,-6.8589 4.511604,-10.8903 1e-4,-4.0313 -1.660176,-8.0396 -4.511604,-10.8902 -2.851328,-2.8507 -6.859804,-4.5097 -10.892302,-4.5096 -4.583983,0.01 -9.11155,2.1949 -11.987977,5.7576 -0.238011,0.2744 -0.35133,0.5625 -0.384756,0.8418 -0.01105,-0.01 -0.01237,-0.01 -0.02344,-0.014 l 0,-5.0858 c 0,-0.8309 -0.668983,-1.4999 -1.499962,-1.4999 z"
       style="fill:#000000;fill-opacity:0.05882353" />
    <path
       style="fill:#000000;fill-opacity:0.11764706"
       d="m 10.099571,1013.7625 c -0.8309783,0 -1.4999616,0.669 -1.4999616,1.4999 l 0,7.9998 c 0,0.8309 0.6689833,1.4999 1.4999616,1.4999 l 7.999797,0 c 0.830979,0 1.499962,-0.669 1.499962,-1.4999 0,-0.831 -0.668983,-1.5 -1.499962,-1.5 l -4.119036,0 c 0.08813,-0.065 0.174107,-0.1399 0.257806,-0.2285 2.313541,-2.9422 6.00936,-4.7662 9.757565,-4.7713 3.247018,-10e-5 6.47542,1.3354 8.771262,3.6308 2.296041,2.2953 3.632821,5.5231 3.632721,8.7691 10e-5,3.2461 -1.33668,6.4739 -3.632721,8.7692 -2.295842,2.2954 -5.524244,3.6309 -8.771262,3.6308 -3.748205,-0.01 -7.444024,-1.8291 -9.757565,-4.7713 -1.136271,-1.2031 -2.763689,-0.1182 -2.630792,1.1405 0.031,0.2905 0.154887,0.5901 0.40038,0.8731 2.876429,3.5627 7.403994,5.751 11.987977,5.7576 4.032498,10e-5 8.040974,-1.6589 10.892302,-4.5096 2.851428,-2.8506 4.511704,-6.8589 4.511604,-10.8903 1e-4,-4.0313 -1.660176,-8.0396 -4.511604,-10.8902 -2.851328,-2.8507 -6.859804,-4.5097 -10.892302,-4.5096 -4.583983,0.01 -9.11155,2.1949 -11.987977,5.7576 -0.238011,0.2744 -0.35133,0.5625 -0.384756,0.8418 -0.01105,-0.01 -0.01237,-0.01 -0.02344,-0.014 l 0,-5.0858 c 0,-0.8309 -0.668983,-1.4999 -1.499962,-1.4999 z"
       id="path4265"
       inkscape:connector-curvature="0" />
    <path
       inkscape:connector-curvature="0"
       id="path4261"
       d="m 10.099571,1013.3625 c -0.8309783,0 -1.4999616,0.669 -1.4999616,1.4999 l 0,7.9998 c 0,0.8309 0.6689833,1.4999 1.4999616,1.4999 l 7.999797,0 c 0.830979,0 1.499962,-0.669 1.499962,-1.4999 0,-0.831 -0.668983,-1.5 -1.499962,-1.5 l -4.119036,0 c 0.08813,-0.065 0.174107,-0.1399 0.257806,-0.2285 2.313541,-2.9422 6.00936,-4.7662 9.757565,-4.7713 3.247018,-10e-5 6.47542,1.3354 8.771262,3.6308 2.296041,2.2953 3.632821,5.5231 3.632721,8.7691 10e-5,3.2461 -1.33668,6.4739 -3.632721,8.7692 -2.295842,2.2954 -5.524244,3.6309 -8.771262,3.6308 -3.748205,-0.01 -7.444024,-1.8291 -9.757565,-4.7713 -1.136271,-1.2031 -2.763689,-0.1182 -2.630792,1.1405 0.031,0.2905 0.154887,0.5901 0.40038,0.8731 2.876429,3.5627 7.403994,5.751 11.987977,5.7576 4.032498,10e-5 8.040974,-1.6589 10.892302,-4.5096 2.851428,-2.8506 4.511704,-6.8589 4.511604,-10.8903 1e-4,-4.0313 -1.660176,-8.0396 -4.511604,-10.8902 -2.851328,-2.8507 -6.859804,-4.5097 -10.892302,-4.5096 -4.583983,0.01 -9.11155,2.1949 -11.987977,5.7576 -0.238011,0.2744 -0.35133,0.5625 -0.384756,0.8418 -0.01105,-0.01 -0.01237,-0.01 -0.02344,-0.014 l 0,-5.0858 c 0,-0.8309 -0.668983,-1.4999 -1.499962,-1.4999 z"
       style="fill:#000000;fill-opacity:0.23529412" />
    <path
       style="fill:url(#linearGradient4182);fill-opacity:1"
       d="m 10.099571,1012.9629 c -0.8309783,0 -1.4999616,0.669 -1.4999616,1.4999 l 0,7.9998 c 0,0.8309 0.6689833,1.4999 1.4999616,1.4999 l 7.999797,0 c 0.830979,0 1.499962,-0.669 1.499962,-1.4999 0,-0.831 -0.668983,-1.5 -1.499962,-1.5 l -4.119036,0 c 0.08813,-0.065 0.174107,-0.1399 0.257806,-0.2285 2.313541,-2.9422 6.00936,-4.7662 9.757565,-4.7713 3.247018,-10e-5 6.47542,1.3354 8.771262,3.6308 2.296041,2.2953 3.632821,5.5231 3.632721,8.7691 10e-5,3.2461 -1.33668,6.4739 -3.632721,8.7692 -2.295842,2.2954 -5.524244,3.6309 -8.771262,3.6308 -3.748205,-0.01 -7.444024,-1.8291 -9.757565,-4.7713 -1.136271,-1.2031 -2.763689,-0.1182 -2.630792,1.1405 0.031,0.2905 0.154887,0.5901 0.40038,0.8731 2.876429,3.5627 7.403994,5.751 11.987977,5.7576 4.032498,10e-5 8.040974,-1.6589 10.892302,-4.5096 2.851428,-2.8506 4.511704,-6.8589 4.511604,-10.8903 1e-4,-4.0313 -1.660176,-8.0396 -4.511604,-10.8902 -2.851328,-2.8507 -6.859804,-4.5097 -10.892302,-4.5096 -4.583983,0.01 -9.11155,2.1949 -11.987977,5.7576 -0.238011,0.2744 -0.35133,0.5625 -0.384756,0.8418 -0.01105,-0.01 -0.01237,-0.01 -0.02344,-0.014 l 0,-5.0858 c 0,-0.8309 -0.668983,-1.4999 -1.499962,-1.4999 z"
       id="path4180"
       inkscape:connector-curvature="0" />
    <path
       style="fill:#1d90ff;fill-opacity:0.3137255"
       d="M 23.996094 10.400391 C 20.247889 10.405491 16.551822 12.229675 14.238281 15.171875 C 14.154582 15.260475 14.068599 15.335391 13.980469 15.400391 L 15.099609 15.400391 C 17.412564 13.035912 20.681712 11.606072 23.996094 11.601562 C 27.243112 11.601463 30.471736 12.935069 32.767578 15.230469 C 34.921957 17.384153 36.215795 20.360036 36.369141 23.400391 C 36.379224 23.200466 36.400397 23.00106 36.400391 22.800781 C 36.400491 19.554781 35.063619 16.32655 32.767578 14.03125 C 30.471736 11.73585 27.243112 10.400291 23.996094 10.400391 z M 8.5996094 16.900391 L 8.5996094 18.099609 C 8.5996094 18.930509 9.2686311 19.599609 10.099609 19.599609 L 18.099609 19.599609 C 18.930588 19.599609 19.599609 18.930509 19.599609 18.099609 C 19.599609 17.885627 19.554668 17.683842 19.474609 17.5 C 19.243759 18.03007 18.716612 18.400391 18.099609 18.400391 L 10.099609 18.400391 C 9.2686311 18.400391 8.5996094 17.731291 8.5996094 16.900391 z M 39.369141 23.400391 C 39.213471 27.226546 37.598357 30.980555 34.888672 33.689453 C 32.037344 36.540153 28.028592 38.199319 23.996094 38.199219 C 19.412111 38.192619 14.884241 36.006059 12.007812 32.443359 C 11.892762 32.310731 11.80873 32.172431 11.744141 32.035156 C 11.640872 32.261973 11.579926 32.509111 11.607422 32.769531 C 11.638422 33.060031 11.76232 33.359578 12.007812 33.642578 C 14.884241 37.205278 19.412111 39.393791 23.996094 39.400391 C 28.028592 39.400491 32.037344 37.741325 34.888672 34.890625 C 37.7401 32.040025 39.400491 28.0314 39.400391 24 C 39.400396 23.799607 39.377284 23.600531 39.369141 23.400391 z "
       transform="translate(0,1004.3622)"
       id="path4269" />
    <path
       style="fill:#ffffff;fill-opacity:0.23529412"
       d="M 10.099609 8.5996094 L 10.099609 8.6015625 C 9.2686311 8.6015625 8.5996094 9.2706625 8.5996094 10.101562 L 8.5996094 10.5 C 8.5996094 9.6691 9.2686311 9 10.099609 9 C 10.930588 9 11.599609 9.6691 11.599609 10.5 L 11.599609 10.099609 C 11.599609 9.2687094 10.930588 8.5996094 10.099609 8.5996094 z M 23.996094 8.6015625 C 19.412111 8.6115625 14.88424 10.794722 12.007812 14.357422 C 11.769801 14.631822 11.656473 14.919919 11.623047 15.199219 C 11.611997 15.189219 11.610679 15.189547 11.599609 15.185547 L 11.599609 15.585938 C 11.610679 15.589938 11.611997 15.589609 11.623047 15.599609 C 11.656473 15.320309 11.769801 15.032213 12.007812 14.757812 C 14.88424 11.195112 19.412111 9.01 23.996094 9 C 28.028592 8.9999 32.037344 10.659066 34.888672 13.509766 C 37.693014 16.313293 39.336919 20.237493 39.390625 24.201172 C 39.391542 24.134054 39.400392 24.067135 39.400391 24 C 39.400491 19.9687 37.7401 15.959975 34.888672 13.109375 C 32.037344 10.258675 28.028592 8.6014625 23.996094 8.6015625 z M 14.390625 16.599609 C 14.342086 16.658932 14.285671 16.711217 14.238281 16.771484 C 14.154582 16.860084 14.068599 16.935 13.980469 17 L 18.099609 17 C 18.862201 17 19.480227 17.565791 19.578125 18.300781 C 19.586961 18.234669 19.599609 18.168215 19.599609 18.099609 C 19.599609 17.268609 18.930588 16.599609 18.099609 16.599609 L 14.390625 16.599609 z M 36.390625 24.199219 C 36.337201 27.377676 35.01656 30.521275 32.767578 32.769531 C 30.471736 35.064931 27.243112 36.400491 23.996094 36.400391 C 20.247889 36.390391 16.551822 34.571106 14.238281 31.628906 C 13.10201 30.425806 11.474525 31.510831 11.607422 32.769531 C 11.60997 32.793412 11.623133 32.817808 11.626953 32.841797 C 11.776054 31.739237 13.203549 30.933708 14.238281 32.029297 C 16.551822 34.971497 20.247889 36.790781 23.996094 36.800781 C 27.243112 36.800881 30.471736 35.465322 32.767578 33.169922 C 35.063619 30.874622 36.400491 27.646491 36.400391 24.400391 C 36.400393 24.333211 36.391765 24.266375 36.390625 24.199219 z "
       transform="translate(0,1004.3622)"
       id="path4274" />
  </g>
</svg>
