<?xml version="1.0" encoding="UTF-8" standalone="no"?>
<!-- Created with Inkscape (http://www.inkscape.org/) -->

<svg
   xmlns:dc="http://purl.org/dc/elements/1.1/"
   xmlns:cc="http://creativecommons.org/ns#"
   xmlns:rdf="http://www.w3.org/1999/02/22-rdf-syntax-ns#"
   xmlns:svg="http://www.w3.org/2000/svg"
   xmlns="http://www.w3.org/2000/svg"
   xmlns:xlink="http://www.w3.org/1999/xlink"
   xmlns:sodipodi="http://sodipodi.sourceforge.net/DTD/sodipodi-0.dtd"
   xmlns:inkscape="http://www.inkscape.org/namespaces/inkscape"
   width="48"
   height="48"
   id="svg2"
   version="1.1"
   inkscape:version="0.49 r12742"
   sodipodi:docname="system-hibernate.svg">
  <defs
     id="defs4">
    <filter
       style="color-interpolation-filters:sRGB"
       id="filter3174-9">
      <feGaussianBlur
         stdDeviation="1.71"
         id="feGaussianBlur3176-8" />
    </filter>
    <filter
       style="color-interpolation-filters:sRGB"
       id="filter3794-9"
       height="1.3839999"
       width="1.3839999"
       y="-0.192"
       x="-0.192">
      <feGaussianBlur
         stdDeviation="5.28"
         id="feGaussianBlur3796-4" />
    </filter>
    <filter
       x="-0.192"
       y="-0.192"
       width="1.3839999"
       height="1.3839999"
       id="filter3794-9-5"
       style="color-interpolation-filters:sRGB">
      <feGaussianBlur
         id="feGaussianBlur3796-4-6"
         stdDeviation="5.28" />
    </filter>
    <linearGradient
       x1="48"
       y1="20.220806"
       x2="48"
       y2="138.66119"
       id="linearGradient3613-6-7"
       gradientUnits="userSpaceOnUse" />
    <clipPath
       id="clipPath3613-0-8">
      <rect
         width="84"
         height="84"
         rx="6"
         ry="6"
         x="6"
         y="6"
         id="rect3615-1-4"
         style="fill:#ffffff;fill-opacity:1;fill-rule:nonzero;stroke:none" />
    </clipPath>
    <filter
       id="filter3174-9-7"
       style="color-interpolation-filters:sRGB">
      <feGaussianBlur
         id="feGaussianBlur3176-8-3"
         stdDeviation="1.71" />
    </filter>
    <filter
       x="-0.192"
       y="-0.192"
       width="1.3839999"
       height="1.3839999"
       id="filter3794-9-54"
       style="color-interpolation-filters:sRGB">
      <feGaussianBlur
         id="feGaussianBlur3796-4-2"
         stdDeviation="5.28" />
    </filter>
    <linearGradient
       x1="48"
       y1="20.220806"
       x2="48"
       y2="138.66119"
       id="linearGradient3613-6-1"
       gradientUnits="userSpaceOnUse" />
    <clipPath
       id="clipPath3613-0-9">
      <rect
         width="84"
         height="84"
         rx="6"
         ry="6"
         x="6"
         y="6"
         id="rect3615-1-6"
         style="fill:#ffffff;fill-opacity:1;fill-rule:nonzero;stroke:none" />
    </clipPath>
    <linearGradient
       inkscape:collect="always"
       xlink:href="#linearGradient839"
       id="linearGradient859"
       gradientUnits="userSpaceOnUse"
       gradientTransform="translate(1.1676686e-5,-5.2664063e-6)"
       x1="23.102119"
       y1="-1052.3683"
       x2="23.102119"
       y2="-1004.3615" />
    <linearGradient
       gradientUnits="userSpaceOnUse"
       y2="1012.9247"
       x2="32.5"
       y1="1043.7997"
       x1="32.5"
       id="linearGradient4174"
       xlink:href="#linearGradient4294"
       inkscape:collect="always"
       gradientTransform="translate(1.1222077e-7,8.6914063e-6)" />
    <linearGradient
       id="linearGradient4294">
      <stop
         id="stop4296"
         offset="0"
         style="stop-color:#f2c6f0;stop-opacity:1" />
      <stop
         id="stop4298"
         offset="1"
         style="stop-color:#fdf7fd;stop-opacity:1" />
    </linearGradient>
    <filter
       style="color-interpolation-filters:sRGB"
       id="filter3794-9-6"
       height="1.3839999"
       width="1.3839999"
       y="-0.192"
       x="-0.192">
      <feGaussianBlur
         stdDeviation="5.28"
         id="feGaussianBlur3796-4-1" />
    </filter>
    <filter
       style="color-interpolation-filters:sRGB"
       id="filter3794-9-2"
       height="1.3839999"
       width="1.3839999"
       y="-0.192"
       x="-0.192">
      <feGaussianBlur
         stdDeviation="5.28"
         id="feGaussianBlur3796-4-2-3" />
    </filter>
    <linearGradient
       id="linearGradient839">
      <stop
         style="stop-color:#871e82;stop-opacity:1"
         offset="0"
         id="stop841" />
      <stop
         style="stop-color:#d535d9;stop-opacity:1"
         offset="1"
         id="stop843" />
    </linearGradient>
    <linearGradient
       inkscape:collect="always"
       id="linearGradient4274"
       gradientUnits="userSpaceOnUse"
       x1="48"
       y1="20.220806"
       x2="48"
       y2="138.66119" />
  </defs>
  <sodipodi:namedview
     id="base"
     pagecolor="#ffffff"
     bordercolor="#666666"
     borderopacity="1.0"
     inkscape:pageopacity="0.0"
     inkscape:pageshadow="2"
     inkscape:zoom="8.7656249"
     inkscape:cx="28.081253"
     inkscape:cy="27.132584"
     inkscape:document-units="px"
     inkscape:current-layer="layer1"
     showgrid="false"
     inkscape:window-width="1366"
     inkscape:window-height="718"
     inkscape:window-x="0"
     inkscape:window-y="23"
     inkscape:window-maximized="1"
     showguides="false" />
  <metadata
     id="metadata7">
    <rdf:RDF>
      <cc:Work
         rdf:about="">
        <dc:format>image/svg+xml</dc:format>
        <dc:type
           rdf:resource="http://purl.org/dc/dcmitype/StillImage" />
        <dc:title />
      </cc:Work>
    </rdf:RDF>
  </metadata>
  <g
     inkscape:label="Capa 1"
     inkscape:groupmode="layer"
     id="layer1"
     transform="translate(0,-1004.3622)">
    <g
       id="layer5"
       style="display:none"
       transform="translate(-121.93813,968.5619)">
      <rect
         width="66"
         height="66"
         rx="12"
         ry="12"
         x="15"
         y="15"
         clip-path="url(#clipPath3613-0)"
         id="rect3171"
         style="opacity:0.1;fill:url(#linearGradient3613-6);fill-opacity:1;fill-rule:nonzero;stroke:#ffffff;stroke-width:0.5;stroke-linecap:round;stroke-linejoin:miter;stroke-miterlimit:4;stroke-opacity:1;stroke-dasharray:none;stroke-dashoffset:0;filter:url(#filter3794-9)" />
    </g>
    <g
       id="layer5-1"
       style="display:none"
       transform="translate(-121.93813,968.56191)">
      <rect
         width="66"
         height="66"
         rx="12"
         ry="12"
         x="15"
         y="15"
         clip-path="url(#clipPath3613-0-8)"
         id="rect3171-0"
         style="opacity:0.1;fill:url(#linearGradient3613-6-7);fill-opacity:1;fill-rule:nonzero;stroke:#ffffff;stroke-width:0.5;stroke-linecap:round;stroke-linejoin:miter;stroke-miterlimit:4;stroke-opacity:1;stroke-dasharray:none;stroke-dashoffset:0;filter:url(#filter3794-9-5)" />
    </g>
    <g
       id="layer5-0"
       style="display:none"
       transform="translate(-171.1457,967.87745)">
      <rect
         width="66"
         height="66"
         rx="12"
         ry="12"
         x="15"
         y="15"
         clip-path="url(#clipPath3613-0-9)"
         id="rect3171-3"
         style="opacity:0.1;fill:url(#linearGradient3613-6-1);fill-opacity:1;fill-rule:nonzero;stroke:#ffffff;stroke-width:0.5;stroke-linecap:round;stroke-linejoin:miter;stroke-miterlimit:4;stroke-opacity:1;stroke-dasharray:none;stroke-dashoffset:0;filter:url(#filter3794-9-54)" />
    </g>
    <rect
       style="fill:url(#linearGradient859);fill-opacity:1.0;stroke:none"
       id="rect2991-1-7"
       width="48"
       height="48"
       x="1.1222077e-07"
       y="-1052.3622"
       ry="1.9445436"
       transform="scale(1,-1)" />
    <path
       inkscape:connector-curvature="0"
       style="fill:#000000;fill-opacity:1;stroke:none"
       d="m -1.1222076e-7,1049.3622 0,1.0625 c 0,1.0773 0.86022290222076,1.9375 1.93749991222076,1.9375 l 44.1250002,0 c 1.077277,0 1.9375,-0.8602 1.9375,-1.9375 l 0,-1.0625 c 0,1.0773 -0.860223,1.9375 -1.9375,1.9375 l -44.1250002,0 c -1.07727701,0 -1.93749991222076,-0.8602 -1.93749991222076,-1.9375 z"
       id="rect846" />
    <path
       inkscape:connector-curvature="0"
       style="fill:#ffffff;fill-opacity:0.5372549;stroke:none"
       d="m 2.5312498,1005.0185 c -0.9170884,0 -1.67114671,0.6395 -1.84374991,1.5 0.33561201,-0.2799 0.77451211,-0.4375 1.24999991,-0.4375 l 44.1250002,0 c 0.475488,0 0.914388,0.1576 1.25,0.4375 -0.172603,-0.8605 -0.926662,-1.5 -1.84375,-1.5 l -42.9375002,0 z"
       id="path7515" />
    <path
       inkscape:connector-curvature="0"
       style="fill:#000000;fill-opacity:0.39215686;stroke:none"
       d="m 1.9374998,1004.3622 c -1.07727691,0 -1.93749991222076,0.8602 -1.93749991222076,1.9375 l 0,43.0625 c 0,0.7934 0.48002360222076,1.449 1.15624991222076,1.75 -0.30934161,-0.3333 -0.49999991,-0.7824 -0.49999991,-1.2812 l 0,-42.9375 c 0,-1.0482 0.82689891,-1.875 1.87499991,-1.875 l 42.9375002,0 c 1.048101,0 1.875,0.8268 1.875,1.875 l 0,42.9375 c 0,0.4988 -0.190658,0.9479 -0.5,1.2812 0.676226,-0.301 1.15625,-0.9566 1.15625,-1.75 l 0,-43.0625 c 0,-1.0773 -0.860223,-1.9375 -1.9375,-1.9375 l -44.1250002,0 z"
       id="rect4280" />
    <path
       inkscape:connector-curvature="0"
       id="path3367"
       d="m 24,1014.1622 a 15.399609,15.3996 0 0 0 -15.3999997,15.4 15.399609,15.3996 0 0 0 15.3999997,15.4 15.399609,15.3996 0 0 0 15.4,-15.4 15.399609,15.3996 0 0 0 -15.4,-15.4 z m 0,2.9999 A 12.399685,12.399678 0 0 1 36.400077,1029.5622 12.399685,12.399678 0 0 1 24,1041.9623 12.399685,12.399678 0 0 1 11.599924,1029.5622 12.399685,12.399678 0 0 1 24,1017.1621 Z m 0,5.4003 c -0.830979,0 -1.499962,0.669 -1.499962,1.4999 l 0,10.9998 c 0,0.8309 0.668983,1.4999 1.499962,1.4999 0.830979,0 1.499962,-0.669 1.499962,-1.4999 l 0,-10.9998 c 0,-0.8309 -0.668983,-1.4999 -1.499962,-1.4999 z"
       style="fill:#000000;fill-opacity:0.05882353" />
    <path
       style="fill:#000000;fill-opacity:0.11764706"
       d="m 24,1013.7622 a 15.399609,15.3996 0 0 0 -15.3999997,15.4 15.399609,15.3996 0 0 0 15.3999997,15.4 15.399609,15.3996 0 0 0 15.4,-15.4 15.399609,15.3996 0 0 0 -15.4,-15.4 z m 0,2.9999 A 12.399685,12.399678 0 0 1 36.400077,1029.1622 12.399685,12.399678 0 0 1 24,1041.5623 12.399685,12.399678 0 0 1 11.599924,1029.1622 12.399685,12.399678 0 0 1 24,1016.7621 Z m 0,5.4003 c -0.830979,0 -1.499962,0.669 -1.499962,1.4999 l 0,10.9998 c 0,0.8309 0.668983,1.4999 1.499962,1.4999 0.830979,0 1.499962,-0.669 1.499962,-1.4999 l 0,-10.9998 c 0,-0.8309 -0.668983,-1.4999 -1.499962,-1.4999 z"
       id="path3365"
       inkscape:connector-curvature="0" />
    <path
       inkscape:connector-curvature="0"
       id="path3363"
       d="m 24,1013.3622 a 15.399609,15.3996 0 0 0 -15.3999997,15.4 15.399609,15.3996 0 0 0 15.3999997,15.4 15.399609,15.3996 0 0 0 15.4,-15.4 15.399609,15.3996 0 0 0 -15.4,-15.4 z m 0,2.9999 A 12.399685,12.399678 0 0 1 36.400077,1028.7622 12.399685,12.399678 0 0 1 24,1041.1623 12.399685,12.399678 0 0 1 11.599924,1028.7622 12.399685,12.399678 0 0 1 24,1016.3621 Z m 0,5.4003 c -0.830979,0 -1.499962,0.669 -1.499962,1.4999 l 0,10.9998 c 0,0.8309 0.668983,1.4999 1.499962,1.4999 0.830979,0 1.499962,-0.669 1.499962,-1.4999 l 0,-10.9998 c 0,-0.8309 -0.668983,-1.4999 -1.499962,-1.4999 z"
       style="fill:#000000;fill-opacity:0.23529412" />
    <path
       style="fill:url(#linearGradient4174);fill-opacity:1.0"
       d="m 24,1012.9622 a 15.399609,15.3996 0 0 0 -15.3999997,15.4 15.399609,15.3996 0 0 0 15.3999997,15.4 15.399609,15.3996 0 0 0 15.4,-15.4 15.399609,15.3996 0 0 0 -15.4,-15.4 z m 0,2.9999 A 12.399685,12.399678 0 0 1 36.400077,1028.3622 12.399685,12.399678 0 0 1 24,1040.7623 12.399685,12.399678 0 0 1 11.599924,1028.3622 12.399685,12.399678 0 0 1 24,1015.9621 Z m 0,5.4003 c -0.830979,0 -1.499962,0.669 -1.499962,1.4999 l 0,10.9998 c 0,0.8309 0.668983,1.4999 1.499962,1.4999 0.830979,0 1.499962,-0.669 1.499962,-1.4999 l 0,-10.9998 c 0,-0.8309 -0.668983,-1.4999 -1.499962,-1.4999 z"
       id="path3342"
       inkscape:connector-curvature="0" />
    <path
       inkscape:connector-curvature="0"
       style="fill:#671763;fill-opacity:0.3137255"
       d="m 24,1014.7626 a 12.399685,12.399678 0 0 0 -12.400391,12.4004 12.399685,12.399678 0 0 0 0.02539,0.7031 12.399685,12.399678 0 0 1 12.375,-11.9043 12.399685,12.399678 0 0 1 12.375,11.6973 12.399685,12.399678 0 0 0 0.02539,-0.4961 A 12.399685,12.399678 0 0 0 24,1014.7626 Z m -15.3749999,12.8965 a 15.399609,15.3996 0 0 0 -0.025391,0.7031 A 15.399609,15.3996 0 0 0 24,1043.7626 15.399609,15.3996 0 0 0 39.400391,1028.3622 15.399609,15.3996 0 0 0 39.375,1027.8661 15.399609,15.3996 0 0 1 24,1042.5614 15.399609,15.3996 0 0 1 8.6250001,1027.6591 Z M 22.5,1032.663 l 0,1.1992 c 0,0.8309 0.669021,1.5 1.5,1.5 0.830979,0 1.5,-0.6691 1.5,-1.5 l 0,-1.1992 c 0,0.8309 -0.669021,1.498 -1.5,1.498 -0.830979,0 -1.5,-0.6671 -1.5,-1.498 z"
       id="path4169" />
    <path
       inkscape:connector-curvature="0"
       style="fill:#ffffff;fill-opacity:0.23529412"
       d="m 24,1012.9618 a 15.399609,15.3996 0 0 0 -15.4003905,15.4004 15.399609,15.3996 0 0 0 0.00781,0.166 A 15.399609,15.3996 0 0 1 24,1013.3622 a 15.399609,15.3996 0 0 1 15.392578,15.2344 15.399609,15.3996 0 0 0 0.0078,-0.2344 A 15.399609,15.3996 0 0 0 24,1012.9618 Z m 0,8.4004 c -0.830979,0 -1.5,0.6691 -1.5,1.5 l 0,0.4004 c 0,-0.8309 0.669021,-1.5 1.5,-1.5 0.830979,0 1.5,0.6691 1.5,1.5 l 0,-0.4004 c 0,-0.8309 -0.669021,-1.5 -1.5,-1.5 z m 12.392578,7.166 A 12.399685,12.399678 0 0 1 24,1040.7626 a 12.399685,12.399678 0 0 1 -12.392578,-12.166 12.399685,12.399678 0 0 0 -0.0078,0.166 A 12.399685,12.399678 0 0 0 24,1041.163 a 12.399685,12.399678 0 0 0 12.400391,-12.4004 12.399685,12.399678 0 0 0 -0.0078,-0.2344 z"
       id="path4076" />
    <g
       id="layer5-7"
       style="display:none"
       transform="translate(-123.2391,965.17974)">
      <rect
         width="66"
         height="66"
         rx="12"
         ry="12"
         x="15"
         y="15"
         clip-path="url(#clipPath3613-0)"
         id="rect3171-00"
         style="opacity:0.1;fill:url(#linearGradient4274);fill-opacity:1;fill-rule:nonzero;stroke:#ffffff;stroke-width:0.5;stroke-linecap:round;stroke-linejoin:miter;stroke-miterlimit:4;stroke-opacity:1;stroke-dasharray:none;stroke-dashoffset:0;filter:url(#filter3794-9-6)" />
    </g>
    <g
       id="layer5-0-1"
       style="display:none"
       transform="translate(-69.49527,964.67305)">
      <rect
         width="66"
         height="66"
         rx="12"
         ry="12"
         x="15"
         y="15"
         clip-path="url(#clipPath3613-0-1)"
         id="rect3171-6"
         style="opacity:0.1;fill:url(#linearGradient3613-6-8);fill-opacity:1;fill-rule:nonzero;stroke:#ffffff;stroke-width:0.5;stroke-linecap:round;stroke-linejoin:miter;stroke-miterlimit:4;stroke-opacity:1;stroke-dasharray:none;stroke-dashoffset:0;filter:url(#filter3794-9-2)" />
    </g>
  </g>
</svg>
