<?xml version="1.0" encoding="UTF-8" standalone="no"?>
<!-- Created with Inkscape (http://www.inkscape.org/) -->

<svg
   xmlns:dc="http://purl.org/dc/elements/1.1/"
   xmlns:cc="http://creativecommons.org/ns#"
   xmlns:rdf="http://www.w3.org/1999/02/22-rdf-syntax-ns#"
   xmlns:svg="http://www.w3.org/2000/svg"
   xmlns="http://www.w3.org/2000/svg"
   xmlns:xlink="http://www.w3.org/1999/xlink"
   xmlns:sodipodi="http://sodipodi.sourceforge.net/DTD/sodipodi-0.dtd"
   xmlns:inkscape="http://www.inkscape.org/namespaces/inkscape"
   width="48"
   height="48"
   id="svg2"
   version="1.1"
   inkscape:version="0.48+devel r12487"
   sodipodi:docname="turpial.svg">
  <defs
     id="defs4">
    <linearGradient
       id="linearGradient4052">
      <stop
         style="stop-color:#ffe7b9;stop-opacity:1"
         offset="0"
         id="stop4054" />
      <stop
         style="stop-color:#fffcf5;stop-opacity:1"
         offset="1"
         id="stop4056" />
    </linearGradient>
    <linearGradient
       id="linearGradient839">
      <stop
         id="stop841"
         offset="0"
         style="stop-color:#ffa700;stop-opacity:1" />
      <stop
         id="stop843"
         offset="1"
         style="stop-color:#ffce58;stop-opacity:1" />
    </linearGradient>
    <linearGradient
       inkscape:collect="always"
       xlink:href="#linearGradient839"
       id="linearGradient837"
       x1="73.72438"
       y1="-1049.6484"
       x2="73.72438"
       y2="-1001.6555"
       gradientUnits="userSpaceOnUse"
       gradientTransform="translate(-52.117671,-2.7051588)" />
    <linearGradient
       inkscape:collect="always"
       xlink:href="#linearGradient4052"
       id="linearGradient4050"
       x1="32.920113"
       y1="1043.7968"
       x2="32.920113"
       y2="1012.9406"
       gradientUnits="userSpaceOnUse" />
  </defs>
  <sodipodi:namedview
     id="base"
     pagecolor="#ffffff"
     bordercolor="#666666"
     borderopacity="1.0"
     inkscape:pageopacity="0.0"
     inkscape:pageshadow="2"
     inkscape:zoom="6.8519528"
     inkscape:cx="16.02658"
     inkscape:cy="24.253544"
     inkscape:document-units="px"
     inkscape:current-layer="layer1"
     showgrid="false"
     inkscape:window-width="1366"
     inkscape:window-height="715"
     inkscape:window-x="0"
     inkscape:window-y="30"
     inkscape:window-maximized="1" />
  <metadata
     id="metadata7">
    <rdf:RDF>
      <cc:Work
         rdf:about="">
        <dc:format>image/svg+xml</dc:format>
        <dc:type
           rdf:resource="http://purl.org/dc/dcmitype/StillImage" />
        <dc:title />
      </cc:Work>
    </rdf:RDF>
  </metadata>
  <g
     inkscape:label="Capa 1"
     inkscape:groupmode="layer"
     id="layer1"
     transform="translate(0,-1004.3622)">
    <rect
       style="fill:url(#linearGradient837);fill-opacity:1;stroke:none"
       id="rect2991-1"
       width="48"
       height="48"
       x="4.8327638e-07"
       y="-1052.3622"
       ry="1.9445436"
       transform="scale(1,-1)" />
    <path
       inkscape:connector-curvature="0"
       id="path4074"
       d="m 29.09551,1014.1634 c -9.82259,0.1377 -16.850377,11.8296 -22.6216281,18.9584 2.0189549,1.1132 5.6768571,2.3263 9.7917091,2.3263 2.690462,0 5.57059,-0.5162 8.350731,-1.8922 3.392865,-1.6789 5.08744,-4.7547 5.086828,-7.5349 -6.7e-4,-1.5947 -0.551178,-3.0927 -1.649313,-4.1839 -1.099387,-1.0894 -2.752986,-1.8056 -5.052105,-1.8056 -0.766375,0 -1.611143,0.086 -2.517372,0.2604 l -0.156251,-0.7985 c 0.95201,-0.1838 1.850179,-0.2778 2.673623,-0.2778 2.467196,0 4.358189,0.7892 5.625025,2.0485 1.267466,1.2588 1.892981,2.976 1.89237,4.7569 -6.71e-4,3.107 -1.881326,6.4541 -5.538219,8.2641 -2.910589,1.4405 -5.922632,1.9792 -8.715317,1.9792 -4.31289,0 -8.096378,-1.2558 -10.2431004,-2.4479 l 0.2604178,-0.4688 c -0.3361832,0.4112 -0.678959,0.8224 -1.0069489,1.198 3.7227445,2.3284 7.3455575,3.8631 10.7465755,4.7047 1.468576,0.3634 2.891815,0.5964 4.270852,0.7118 l 0.902782,5.0001 0.798614,-0.1389 -0.86806,-4.809 c 0.701607,0.035 1.392778,0.027 2.065982,0 l 0.902781,4.9479 0.798617,-0.1389 -0.868061,-4.8438 c 8.922113,-0.7018 15.057212,-6.812 15.399374,-15.3126 0.0439,-1.0868 -0.0083,-2.2109 -0.156249,-3.368 l 3.454873,-1.7882 -3.802097,-0.2431 3.24654,-2.6215 -4.39238,0.3125 c -3.124476,-2.0086 -6.002559,-2.8328 -8.680593,-2.7952 z m 3.211818,3.6285 c 0.250861,0 0.475374,0.071 0.71181,0.1909 0.236435,0.1207 0.482073,0.298 0.729168,0.5036 0.493568,0.4114 1.013525,0.9818 1.527786,1.6667 l -0.642364,0.4861 c -0.721845,-0.9665 -1.481848,-1.6776 -1.979176,-1.9271 -0.16306,-0.084 -0.287645,-0.1054 -0.347224,-0.1054 l -0.05208,0 -0.03471,0.035 c -0.03762,0.051 -0.106047,0.231 -0.104157,0.5208 -0.0013,0.4352 0.114576,1.1122 0.399307,2.0487 l -0.763893,0.2429 c -0.297267,-0.9827 -0.450168,-1.7221 -0.45139,-2.2916 6.72e-4,-0.2847 0.03687,-0.5296 0.12153,-0.7465 0.08216,-0.2152 0.242549,-0.4131 0.45139,-0.5208 0.137953,-0.073 0.288514,-0.1033 0.43401,-0.1033 z m -7.100724,3.3507 -0.208335,1.8229 c -5.27892,1.9393 -8.770591,6.5023 -9.965322,10.5209 l -1.805563,0.3125 0.243056,-0.7813 c 1.329019,-4.4703 4.991653,-9.3892 10.95491,-11.5798 l 0.781254,-0.2952 z"
       style="fill:#000000;fill-opacity:0.05882353;fill-rule:nonzero;stroke:none" />
    <path
       style="fill:#000000;fill-opacity:0.11764706;fill-rule:nonzero;stroke:none"
       d="m 29.09551,1013.7634 c -9.82259,0.1377 -16.850377,11.8296 -22.6216281,18.9584 2.0189549,1.1132 5.6768571,2.3263 9.7917091,2.3263 2.690462,0 5.57059,-0.5162 8.350731,-1.8922 3.392865,-1.6789 5.08744,-4.7547 5.086828,-7.5349 -6.7e-4,-1.5947 -0.551178,-3.0927 -1.649313,-4.1839 -1.099387,-1.0894 -2.752986,-1.8056 -5.052105,-1.8056 -0.766375,0 -1.611143,0.086 -2.517372,0.2604 l -0.156251,-0.7985 c 0.95201,-0.1838 1.850179,-0.2778 2.673623,-0.2778 2.467196,0 4.358189,0.7892 5.625025,2.0485 1.267466,1.2588 1.892981,2.976 1.89237,4.7569 -6.71e-4,3.107 -1.881326,6.4541 -5.538219,8.2641 -2.910589,1.4405 -5.922632,1.9792 -8.715317,1.9792 -4.31289,0 -8.096378,-1.2558 -10.2431004,-2.4479 l 0.2604178,-0.4688 c -0.3361832,0.4112 -0.678959,0.8224 -1.0069489,1.198 3.7227445,2.3284 7.3455575,3.8631 10.7465755,4.7047 1.468576,0.3634 2.891815,0.5964 4.270852,0.7118 l 0.902782,5.0001 0.798614,-0.1389 -0.86806,-4.809 c 0.701607,0.035 1.392778,0.027 2.065982,0 l 0.902781,4.9479 0.798617,-0.1389 -0.868061,-4.8438 c 8.922113,-0.7018 15.057212,-6.812 15.399374,-15.3126 0.0439,-1.0868 -0.0083,-2.2109 -0.156249,-3.368 l 3.454873,-1.7882 -3.802097,-0.2431 3.24654,-2.6215 -4.39238,0.3125 c -3.124476,-2.0086 -6.002559,-2.8328 -8.680593,-2.7952 z m 3.211818,3.6285 c 0.250861,0 0.475374,0.071 0.71181,0.1909 0.236435,0.1207 0.482073,0.298 0.729168,0.5036 0.493568,0.4114 1.013525,0.9818 1.527786,1.6667 l -0.642364,0.4861 c -0.721845,-0.9665 -1.481848,-1.6776 -1.979176,-1.9271 -0.16306,-0.084 -0.287645,-0.1054 -0.347224,-0.1054 l -0.05208,0 -0.03471,0.035 c -0.03762,0.051 -0.106047,0.231 -0.104157,0.5208 -0.0013,0.4352 0.114576,1.1122 0.399307,2.0487 l -0.763893,0.2429 c -0.297267,-0.9827 -0.450168,-1.7221 -0.45139,-2.2916 6.72e-4,-0.2847 0.03687,-0.5296 0.12153,-0.7465 0.08216,-0.2152 0.242549,-0.4131 0.45139,-0.5208 0.137953,-0.073 0.288514,-0.1033 0.43401,-0.1033 z m -7.100724,3.3507 -0.208335,1.8229 c -5.27892,1.9393 -8.770591,6.5023 -9.965322,10.5209 l -1.805563,0.3125 0.243056,-0.7813 c 1.329019,-4.4703 4.991653,-9.3892 10.95491,-11.5798 l 0.781254,-0.2952 z"
       id="path4072"
       inkscape:connector-curvature="0" />
    <path
       inkscape:connector-curvature="0"
       id="path4068"
       d="m 29.09551,1013.3634 c -9.82259,0.1377 -16.850377,11.8296 -22.6216281,18.9584 2.0189549,1.1132 5.6768571,2.3263 9.7917091,2.3263 2.690462,0 5.57059,-0.5162 8.350731,-1.8922 3.392865,-1.6789 5.08744,-4.7547 5.086828,-7.5349 -6.7e-4,-1.5947 -0.551178,-3.0927 -1.649313,-4.1839 -1.099387,-1.0894 -2.752986,-1.8056 -5.052105,-1.8056 -0.766375,0 -1.611143,0.086 -2.517372,0.2604 l -0.156251,-0.7985 c 0.95201,-0.1838 1.850179,-0.2778 2.673623,-0.2778 2.467196,0 4.358189,0.7892 5.625025,2.0485 1.267466,1.2588 1.892981,2.976 1.89237,4.7569 -6.71e-4,3.107 -1.881326,6.4541 -5.538219,8.2641 -2.910589,1.4405 -5.922632,1.9792 -8.715317,1.9792 -4.31289,0 -8.096378,-1.2558 -10.2431004,-2.4479 l 0.2604178,-0.4688 c -0.3361832,0.4112 -0.678959,0.8224 -1.0069489,1.198 3.7227445,2.3284 7.3455575,3.8631 10.7465755,4.7047 1.468576,0.3634 2.891815,0.5964 4.270852,0.7118 l 0.902782,5.0001 0.798614,-0.1389 -0.86806,-4.809 c 0.701607,0.035 1.392778,0.027 2.065982,0 l 0.902781,4.9479 0.798617,-0.1389 -0.868061,-4.8438 c 8.922113,-0.7018 15.057212,-6.812 15.399374,-15.3126 0.0439,-1.0868 -0.0083,-2.2109 -0.156249,-3.368 l 3.454873,-1.7882 -3.802097,-0.2431 3.24654,-2.6215 -4.39238,0.3125 c -3.124476,-2.0086 -6.002559,-2.8328 -8.680593,-2.7952 z m 3.211818,3.6285 c 0.250861,0 0.475374,0.071 0.71181,0.1909 0.236435,0.1207 0.482073,0.298 0.729168,0.5036 0.493568,0.4114 1.013525,0.9818 1.527786,1.6667 l -0.642364,0.4861 c -0.721845,-0.9665 -1.481848,-1.6776 -1.979176,-1.9271 -0.16306,-0.084 -0.287645,-0.1054 -0.347224,-0.1054 l -0.05208,0 -0.03471,0.035 c -0.03762,0.051 -0.106047,0.231 -0.104157,0.5208 -0.0013,0.4352 0.114576,1.1122 0.399307,2.0487 l -0.763893,0.2429 c -0.297267,-0.9827 -0.450168,-1.7221 -0.45139,-2.2916 6.72e-4,-0.2847 0.03687,-0.5296 0.12153,-0.7465 0.08216,-0.2152 0.242549,-0.4131 0.45139,-0.5208 0.137953,-0.073 0.288514,-0.1033 0.43401,-0.1033 z m -7.100724,3.3507 -0.208335,1.8229 c -5.27892,1.9393 -8.770591,6.5023 -9.965322,10.5209 l -1.805563,0.3125 0.243056,-0.7813 c 1.329019,-4.4703 4.991653,-9.3892 10.95491,-11.5798 l 0.781254,-0.2952 z"
       style="fill:#000000;fill-opacity:0.23529412;fill-rule:nonzero;stroke:none" />
    <path
       inkscape:connector-curvature="0"
       style="fill:#000000;fill-opacity:1;stroke:none"
       d="m -4.8327637e-7,1049.3623 0,1.0625 c 0,1.0773 0.86022300327637,1.9375 1.93749998327637,1.9375 l 44.1250005,0 c 1.077277,0 1.937499,-0.8602 1.937499,-1.9375 l 0,-1.0625 c 0,1.0773 -0.860222,1.9375 -1.937499,1.9375 l -44.1250005,0 C 0.86022252,1051.2998 -4.8327637e-7,1050.4396 -4.8327637e-7,1049.3623 Z"
       id="rect846" />
    <path
       inkscape:connector-curvature="0"
       style="fill:#ffffff;fill-opacity:0.5372549;stroke:none"
       d="m 2.5312495,1005.0186 c -0.917088,0 -1.67114598,0.6395 -1.84374998,1.5 0.33561198,-0.2799 0.77451298,-0.4375 1.24999998,-0.4375 l 44.1250005,0 c 0.475488,0 0.914388,0.1576 1.25,0.4375 -0.172603,-0.8605 -0.926662,-1.5 -1.84375,-1.5 L 2.5312495,1005.0186 Z"
       id="path7515" />
    <path
       inkscape:connector-curvature="0"
       style="fill:#000000;fill-opacity:0.39215686;stroke:none"
       d="m 1.9374995,1004.3623 c -1.07727698,0 -1.93749998327637,0.8602 -1.93749998327637,1.9375 l 0,43.0625 c 0,0.7934 0.48002400327637,1.449 1.15624998327637,1.75 -0.30934098,-0.3333 -0.49999998,-0.7824 -0.49999998,-1.2812 l 0,-42.9375 c 0,-1.0482 0.82689898,-1.875 1.87499998,-1.875 l 42.9375005,0 c 1.048101,0 1.875,0.8268 1.875,1.875 l 0,42.9375 c 0,0.4988 -0.190658,0.9479 -0.5,1.2812 0.676226,-0.301 1.156249,-0.9566 1.156249,-1.75 l 0,-43.0625 c 0,-1.0773 -0.860222,-1.9375 -1.937499,-1.9375 L 1.9374995,1004.3623 Z"
       id="rect4280-9" />
    <path
       style="fill:url(#linearGradient4050);fill-opacity:1;fill-rule:nonzero;stroke:none"
       d="m 29.09551,1012.9634 c -9.82259,0.1377 -16.850377,11.8296 -22.6216281,18.9584 2.0189549,1.1132 5.6768571,2.3263 9.7917091,2.3263 2.690462,0 5.57059,-0.5162 8.350731,-1.8922 3.392865,-1.6789 5.08744,-4.7547 5.086828,-7.5349 -6.7e-4,-1.5947 -0.551178,-3.0927 -1.649313,-4.1839 -1.099387,-1.0894 -2.752986,-1.8056 -5.052105,-1.8056 -0.766375,0 -1.611143,0.086 -2.517372,0.2604 l -0.156251,-0.7985 c 0.95201,-0.1838 1.850179,-0.2778 2.673623,-0.2778 2.467196,0 4.358189,0.7892 5.625025,2.0485 1.267466,1.2588 1.892981,2.976 1.89237,4.7569 -6.71e-4,3.107 -1.881326,6.4541 -5.538219,8.2641 -2.910589,1.4405 -5.922632,1.9792 -8.715317,1.9792 -4.31289,0 -8.096378,-1.2558 -10.2431004,-2.4479 l 0.2604178,-0.4688 c -0.3361832,0.4112 -0.678959,0.8224 -1.0069489,1.198 3.7227445,2.3284 7.3455575,3.8631 10.7465755,4.7047 1.468576,0.3634 2.891815,0.5964 4.270852,0.7118 l 0.902782,5.0001 0.798614,-0.1389 -0.86806,-4.809 c 0.701607,0.035 1.392778,0.027 2.065982,0 l 0.902781,4.9479 0.798617,-0.1389 -0.868061,-4.8438 c 8.922113,-0.7018 15.057212,-6.812 15.399374,-15.3126 0.0439,-1.0868 -0.0083,-2.2109 -0.156249,-3.368 l 3.454873,-1.7882 -3.802097,-0.2431 3.24654,-2.6215 -4.39238,0.3125 c -3.124476,-2.0086 -6.002559,-2.8328 -8.680593,-2.7952 z m 3.211818,3.6285 c 0.250861,0 0.475374,0.071 0.71181,0.1909 0.236435,0.1207 0.482073,0.298 0.729168,0.5036 0.493568,0.4114 1.013525,0.9818 1.527786,1.6667 l -0.642364,0.4861 c -0.721845,-0.9665 -1.481848,-1.6776 -1.979176,-1.9271 -0.16306,-0.084 -0.287645,-0.1054 -0.347224,-0.1054 l -0.05208,0 -0.03471,0.035 c -0.03762,0.051 -0.106047,0.231 -0.104157,0.5208 -0.0013,0.4352 0.114576,1.1122 0.399307,2.0487 l -0.763893,0.2429 c -0.297267,-0.9827 -0.450168,-1.7221 -0.45139,-2.2916 6.72e-4,-0.2847 0.03687,-0.5296 0.12153,-0.7465 0.08216,-0.2152 0.242549,-0.4131 0.45139,-0.5208 0.137953,-0.073 0.288514,-0.1033 0.43401,-0.1033 z m -7.100724,3.3507 -0.208335,1.8229 c -5.27892,1.9393 -8.770591,6.5023 -9.965322,10.5209 l -1.805563,0.3125 0.243056,-0.7813 c 1.329019,-4.4703 4.991653,-9.3892 10.95491,-11.5798 l 0.781254,-0.2952 z"
       id="path5988"
       inkscape:connector-curvature="0" />
    <path
       style="fill:#ffa802;fill-opacity:0.3137255;fill-rule:nonzero;stroke:none"
       d="M 42.167969 11.083984 L 41.082031 11.162109 L 38.921875 12.90625 L 39.837891 12.964844 L 42.167969 11.083984 z M 32.306641 11.429688 C 32.161145 11.429688 32.011 11.460203 31.873047 11.533203 C 31.664206 11.640903 31.504035 11.839488 31.421875 12.054688 C 31.337215 12.271588 31.301453 12.516081 31.300781 12.800781 C 31.301001 12.902988 31.331849 13.042675 31.341797 13.15625 C 31.361352 13.05021 31.38501 12.947963 31.421875 12.853516 C 31.504035 12.638316 31.664206 12.439731 31.873047 12.332031 C 32.011 12.259031 32.161145 12.230469 32.306641 12.230469 C 32.557502 12.230469 32.783095 12.300022 33.019531 12.419922 C 33.255966 12.540622 33.500952 12.718228 33.748047 12.923828 C 34.111589 13.226849 34.489786 13.639896 34.869141 14.097656 L 35.275391 13.791016 C 34.76113 13.106116 34.241615 12.5364 33.748047 12.125 C 33.500952 11.9194 33.255966 11.741794 33.019531 11.621094 C 32.783095 11.501194 32.557502 11.429688 32.306641 11.429688 z M 23.001953 12.853516 C 22.178509 12.853516 21.280135 12.947059 20.328125 13.130859 L 20.480469 13.908203 C 21.374429 13.743869 22.223824 13.654297 23.001953 13.654297 C 25.469149 13.654297 27.360117 14.441872 28.626953 15.701172 C 29.774204 16.840579 30.390964 18.357242 30.498047 19.955078 C 30.501821 19.856448 30.51951 19.756409 30.519531 19.658203 C 30.520142 17.877303 29.894419 16.161144 28.626953 14.902344 C 27.360117 13.643044 25.469149 12.853516 23.001953 12.853516 z M 32.164062 13.226562 C 32.138201 13.316836 32.116111 13.434548 32.117188 13.599609 C 32.116285 13.90179 32.198741 14.366943 32.328125 14.908203 L 32.515625 14.849609 C 32.303409 14.151618 32.210076 13.643577 32.164062 13.226562 z M 41.349609 13.861328 L 39.269531 14.9375 C 39.302584 15.196006 39.312446 15.446008 39.335938 15.701172 L 42.724609 13.949219 L 41.349609 13.861328 z M 25.207031 14.78125 L 24.425781 15.076172 C 18.462524 17.266772 14.799722 22.18595 13.470703 26.65625 L 13.226562 27.4375 L 13.494141 27.390625 C 14.838976 22.937461 18.49097 18.055151 24.425781 15.875 L 25.111328 15.617188 L 25.207031 14.78125 z M 39.423828 18.337891 C 39.066808 26.820913 32.935693 32.916316 24.025391 33.617188 L 24.166016 34.400391 C 33.010491 33.644762 39.085454 27.560498 39.425781 19.105469 C 39.435942 18.853931 39.423959 18.593371 39.423828 18.337891 z M 29.681641 19.947266 C 29.570069 22.649869 27.89383 25.57197 24.617188 27.193359 C 21.837046 28.569359 18.956087 29.085938 16.265625 29.085938 C 12.427995 29.085938 9.0057646 28.031527 6.921875 26.986328 C 6.7752664 27.170938 6.6196073 27.381442 6.4746094 27.560547 C 8.4935643 28.673747 12.150773 29.886719 16.265625 29.886719 C 18.956087 29.886719 21.837046 29.370141 24.617188 27.994141 C 28.010053 26.315241 29.703737 23.239184 29.703125 20.458984 C 29.703053 20.287193 29.694472 20.116425 29.681641 19.947266 z M 5.7226562 28.451172 C 5.5729736 28.628977 5.421111 28.817502 5.2753906 28.984375 C 8.9981351 31.312775 12.62242 32.8459 16.023438 33.6875 C 17.492013 34.0509 18.913932 34.284991 20.292969 34.400391 L 21.195312 39.400391 L 21.994141 39.261719 L 21.853516 38.484375 L 21.195312 38.599609 L 20.292969 33.599609 C 18.913932 33.484209 17.492013 33.252072 16.023438 32.888672 C 12.758839 32.08083 9.288193 30.625213 5.7226562 28.451172 z M 21.126953 33.652344 L 21.271484 34.455078 C 21.923093 34.482214 22.566805 34.476301 23.193359 34.451172 L 24.095703 39.400391 L 24.894531 39.261719 L 24.755859 38.484375 L 24.095703 38.599609 L 23.193359 33.652344 C 22.520155 33.679344 21.82856 33.687344 21.126953 33.652344 z "
       transform="translate(0,1004.3622)"
       id="path4058" />
    <path
       style="fill:#ffffff;fill-opacity:0.23529412;fill-rule:nonzero;stroke:none"
       d="M 29.095703 8.6015625 C 19.273113 8.7392625 12.24586 20.431747 6.4746094 27.560547 C 6.5422078 27.597819 6.626037 27.634428 6.6972656 27.671875 C 12.427481 20.521956 19.396354 9.1379254 29.095703 9.0019531 C 31.773737 8.9643531 34.650915 9.788275 37.775391 11.796875 L 41.625 11.523438 L 42.167969 11.083984 L 37.775391 11.396484 C 34.650915 9.3878844 31.773737 8.5639625 29.095703 8.6015625 z M 32.255859 13.044922 L 32.220703 13.080078 C 32.183083 13.131078 32.115298 13.309809 32.117188 13.599609 C 32.117034 13.650836 32.135494 13.73892 32.138672 13.796875 C 32.160262 13.63767 32.194011 13.516654 32.220703 13.480469 L 32.255859 13.445312 L 32.306641 13.445312 C 32.36622 13.445312 32.491237 13.466781 32.654297 13.550781 C 33.151625 13.800281 33.910967 14.510063 34.632812 15.476562 L 35.275391 14.990234 C 35.207728 14.90012 35.140053 14.830189 35.072266 14.744141 L 34.632812 15.076172 C 33.910967 14.109672 33.151625 13.399891 32.654297 13.150391 C 32.491237 13.066391 32.36622 13.044922 32.306641 13.044922 L 32.255859 13.044922 z M 39.380859 13.734375 L 38.921875 14.105469 L 42.039062 14.304688 L 42.724609 13.949219 L 39.380859 13.734375 z M 31.318359 13.753906 C 31.310997 13.834573 31.300989 13.912091 31.300781 14 C 31.302003 14.5695 31.454686 15.308316 31.751953 16.291016 L 32.515625 16.048828 C 32.472069 15.90557 32.457713 15.808911 32.421875 15.677734 L 31.751953 15.892578 C 31.477795 14.986269 31.341194 14.303906 31.318359 13.753906 z M 20.404297 14.320312 C 20.378184 14.325234 20.35432 14.326974 20.328125 14.332031 L 20.484375 15.128906 C 21.390604 14.954506 22.235578 14.869141 23.001953 14.869141 C 25.301072 14.869141 26.9553 15.586381 28.054688 16.675781 C 29.093664 17.708196 29.634728 19.105435 29.691406 20.603516 C 29.692395 20.55562 29.703136 20.506715 29.703125 20.458984 C 29.702455 18.864284 29.152823 17.366591 28.054688 16.275391 C 26.9553 15.185991 25.301072 14.46875 23.001953 14.46875 C 22.235578 14.46875 21.390604 14.556069 20.484375 14.730469 L 20.404297 14.320312 z M 25.207031 15.980469 L 25.158203 15.998047 L 24.998047 17.402344 C 19.719127 19.341644 16.227934 23.905228 15.033203 27.923828 L 13.359375 28.212891 L 13.226562 28.636719 L 15.033203 28.324219 C 16.227934 24.305619 19.719127 19.742034 24.998047 17.802734 L 25.207031 15.980469 z M 39.302734 16.119141 L 39.269531 16.136719 C 39.400382 17.160097 39.443014 18.152317 39.423828 19.121094 C 39.424047 19.115771 39.425567 19.110793 39.425781 19.105469 C 39.464771 18.140239 39.415105 17.140202 39.302734 16.119141 z M 30.507812 20.607422 C 30.448571 23.672259 28.579444 26.941323 24.980469 28.722656 C 22.06988 30.163156 19.05831 30.701172 16.265625 30.701172 C 12.059218 30.701172 8.3691546 29.506748 6.1972656 28.341797 L 6.0234375 28.654297 C 8.1701599 29.846397 11.952735 31.101562 16.265625 31.101562 C 19.05831 31.101562 22.06988 30.563547 24.980469 29.123047 C 28.637362 27.313047 30.51886 23.966375 30.519531 20.859375 C 30.51956 20.774904 30.510602 20.691564 30.507812 20.607422 z M 6.2832031 27.785156 C 5.9470199 28.196356 5.6033805 28.608775 5.2753906 28.984375 C 5.3496689 29.030833 5.4238491 29.071361 5.4980469 29.117188 C 5.7184024 28.859742 5.9410978 28.597548 6.1640625 28.326172 C 6.1197355 28.302241 6.0664587 28.277796 6.0234375 28.253906 L 6.2832031 27.785156 z M 24.095703 34.808594 C 24.071863 34.81055 24.04927 34.814528 24.025391 34.816406 L 24.826172 39.273438 L 24.894531 39.261719 L 24.095703 34.808594 z M 21.126953 34.851562 L 21.923828 39.273438 L 21.994141 39.261719 L 21.199219 34.853516 C 21.174935 34.852405 21.151262 34.852775 21.126953 34.851562 z "
       transform="translate(0,1004.3622)"
       id="path4063" />
  </g>
</svg>
