<?xml version="1.0" encoding="UTF-8" standalone="no"?>
<!-- Created with Inkscape (http://www.inkscape.org/) -->

<svg
   xmlns:dc="http://purl.org/dc/elements/1.1/"
   xmlns:cc="http://creativecommons.org/ns#"
   xmlns:rdf="http://www.w3.org/1999/02/22-rdf-syntax-ns#"
   xmlns:svg="http://www.w3.org/2000/svg"
   xmlns="http://www.w3.org/2000/svg"
   xmlns:xlink="http://www.w3.org/1999/xlink"
   xmlns:sodipodi="http://sodipodi.sourceforge.net/DTD/sodipodi-0.dtd"
   xmlns:inkscape="http://www.inkscape.org/namespaces/inkscape"
   width="48"
   height="48"
   id="svg2"
   version="1.1"
   inkscape:version="0.49 r12742"
   sodipodi:docname="tweetdeck.svg"
   inkscape:export-filename="/home/uri/workspace/NitruxforAndroid/res/drawable-xhdpi/twitter.png"
   inkscape:export-xdpi="180"
   inkscape:export-ydpi="180">
  <defs
     id="defs4">
    <linearGradient
       inkscape:collect="always"
       xlink:href="#linearGradient1373"
       id="linearGradient1169"
       x1="29.999998"
       y1="-1052.6122"
       x2="29.999998"
       y2="-1004.2372"
       gradientUnits="userSpaceOnUse"
       gradientTransform="translate(1.4348145e-6,0)" />
    <linearGradient
       id="linearGradient5261"
       inkscape:collect="always">
      <stop
         id="stop5263"
         offset="0"
         style="stop-color:#1e6ccd;stop-opacity:1" />
      <stop
         id="stop5265"
         offset="1"
         style="stop-color:#2faff9;stop-opacity:1" />
    </linearGradient>
    <linearGradient
       id="linearGradient1373"
       inkscape:collect="always">
      <stop
         id="stop1375"
         offset="0"
         style="stop-color:#282827;stop-opacity:1" />
      <stop
         id="stop1377"
         offset="1"
         style="stop-color:#292929;stop-opacity:1" />
    </linearGradient>
    <linearGradient
       inkscape:collect="always"
       xlink:href="#linearGradient5261"
       id="linearGradient4288"
       x1="25.455845"
       y1="1043.7622"
       x2="25.455845"
       y2="1012.9622"
       gradientUnits="userSpaceOnUse" />
  </defs>
  <sodipodi:namedview
     id="base"
     pagecolor="#ffffff"
     bordercolor="#666666"
     borderopacity="1.0"
     inkscape:pageopacity="0.0"
     inkscape:pageshadow="2"
     inkscape:zoom="8"
     inkscape:cx="33.953873"
     inkscape:cy="36.329521"
     inkscape:document-units="px"
     inkscape:current-layer="layer1"
     showgrid="false"
     inkscape:window-width="1366"
     inkscape:window-height="718"
     inkscape:window-x="0"
     inkscape:window-y="23"
     inkscape:window-maximized="1">
    <inkscape:grid
       type="xygrid"
       id="grid3850"
       empspacing="5"
       visible="true"
       enabled="true"
       snapvisiblegridlinesonly="true" />
    <sodipodi:guide
       position="8.5999985,8.599993"
       orientation="-30.799988,0"
       id="guide4189" />
    <sodipodi:guide
       position="8.5999985,39.399981"
       orientation="0,30.800003"
       id="guide4191" />
    <sodipodi:guide
       position="39.400002,39.399981"
       orientation="30.799988,0"
       id="guide4193" />
    <sodipodi:guide
       position="39.400002,8.599993"
       orientation="0,-30.800003"
       id="guide4195" />
    <sodipodi:guide
       position="8.5999985,15.599993"
       orientation="7,0"
       id="guide4203" />
    <sodipodi:guide
       position="8.5999985,8.599993"
       orientation="0,30.800003"
       id="guide4205" />
    <sodipodi:guide
       position="39.400002,8.599993"
       orientation="-7,0"
       id="guide4207" />
    <sodipodi:guide
       position="39.400002,15.599993"
       orientation="0,-30.800003"
       id="guide4209" />
  </sodipodi:namedview>
  <metadata
     id="metadata7">
    <rdf:RDF>
      <cc:Work
         rdf:about="">
        <dc:format>image/svg+xml</dc:format>
        <dc:type
           rdf:resource="http://purl.org/dc/dcmitype/StillImage" />
        <dc:title></dc:title>
      </cc:Work>
    </rdf:RDF>
  </metadata>
  <g
     inkscape:label="Capa 1"
     inkscape:groupmode="layer"
     id="layer1"
     transform="translate(0,-1004.3622)">
    <rect
       style="fill:url(#linearGradient1169);fill-opacity:1.0;stroke:none"
       id="rect2991-1"
       width="48"
       height="48"
       x="0"
       y="-1052.3622"
       ry="1.9445436"
       transform="scale(1,-1)" />
    <path
       sodipodi:nodetypes="sssscccccssssscccccccsscsccscsccsccscc"
       inkscape:connector-curvature="0"
       id="path4296"
       d="m 10.273396,1014.1626 c -0.92659,0 -1.6737866,0.7472 -1.6737866,1.6738 l 0,20.4526 c 0,0.9266 0.7471966,1.6738 1.6737866,1.6738 l 8.501737,0 2.837818,3.4999 2.837819,3.4999 2.839772,-3.4999 2.837818,-3.4999 7.597463,0 c 0.926588,0 1.673786,-0.7472 1.673786,-1.6738 l 0,-20.4526 c 0,-0.9266 -0.747198,-1.6738 -1.673786,-1.6738 z m 17.754848,3.3858 c 1.236253,0 2.353646,0.5236 3.137594,1.3588 0.979097,-0.1928 1.899423,-0.55 2.72999,-1.0428 -0.320961,1.0039 -1.002279,1.8475 -1.889507,2.3793 0.869321,-0.1035 1.696983,-0.3373 2.467733,-0.6793 l 0,0 c -0.576228,0.8616 -1.305556,1.6183 -2.145442,2.2243 0.0079,0.1845 0.01262,0.3699 0.01262,0.5562 0,5.6797 -4.322272,12.2312 -12.228081,12.2312 -2.427247,0 -4.685886,-0.7144 -6.587997,-1.9338 0.33622,0.039 0.676806,0.06 1.023746,0.06 2.013779,0 3.868923,-0.6892 5.339912,-1.8421 -1.880831,-0.034 -3.469039,-1.2751 -4.015993,-2.9827 0.262482,0.052 0.531919,0.076 0.808886,0.076 0.391999,0 0.770564,-0.049 1.131176,-0.1488 -1.966194,-0.3951 -3.447244,-2.1328 -3.447244,-4.2151 0,-0.018 -4.19e-4,-0.039 0,-0.057 0.579442,0.3219 1.241811,0.5177 1.946383,0.5403 -1.153363,-0.7705 -1.911626,-2.0885 -1.911626,-3.5798 0,-0.7878 0.211367,-1.5266 0.581387,-2.1613 2.119832,2.6005 5.287688,4.3138 8.85983,4.493 -0.07334,-0.3147 -0.110593,-0.6428 -0.110593,-0.9794 0,-2.3738 1.923574,-4.3005 4.297207,-4.3005 z"
       style="fill:#000000;fill-opacity:0.05882353;stroke:none" />
    <path
       style="fill:#000000;fill-opacity:0.11764706;stroke:none"
       d="m 10.273396,1013.7626 c -0.92659,0 -1.6737866,0.7472 -1.6737866,1.6738 l 0,20.4526 c 0,0.9266 0.7471966,1.6738 1.6737866,1.6738 l 8.501737,0 2.837818,3.4999 2.837819,3.4999 2.839772,-3.4999 2.837818,-3.4999 7.597463,0 c 0.926588,0 1.673786,-0.7472 1.673786,-1.6738 l 0,-20.4526 c 0,-0.9266 -0.747198,-1.6738 -1.673786,-1.6738 z m 17.754848,3.3858 c 1.236253,0 2.353646,0.5236 3.137594,1.3588 0.979097,-0.1928 1.899423,-0.55 2.72999,-1.0428 -0.320961,1.0039 -1.002279,1.8475 -1.889507,2.3793 0.869321,-0.1035 1.696983,-0.3373 2.467733,-0.6793 l 0,0 c -0.576228,0.8616 -1.305556,1.6183 -2.145442,2.2243 0.0079,0.1845 0.01262,0.3699 0.01262,0.5562 0,5.6797 -4.322272,12.2312 -12.228081,12.2312 -2.427247,0 -4.685886,-0.7144 -6.587997,-1.9338 0.33622,0.039 0.676806,0.06 1.023746,0.06 2.013779,0 3.868923,-0.6892 5.339912,-1.8421 -1.880831,-0.034 -3.469039,-1.2751 -4.015993,-2.9827 0.262482,0.052 0.531919,0.076 0.808886,0.076 0.391999,0 0.770564,-0.049 1.131176,-0.1488 -1.966194,-0.3951 -3.447244,-2.1328 -3.447244,-4.2151 0,-0.018 -4.19e-4,-0.039 0,-0.057 0.579442,0.3219 1.241811,0.5177 1.946383,0.5403 -1.153363,-0.7705 -1.911626,-2.0885 -1.911626,-3.5798 0,-0.7878 0.211367,-1.5266 0.581387,-2.1613 2.119832,2.6005 5.287688,4.3138 8.85983,4.493 -0.07334,-0.3147 -0.110593,-0.6428 -0.110593,-0.9794 0,-2.3738 1.923574,-4.3005 4.297207,-4.3005 z"
       id="path4294"
       inkscape:connector-curvature="0"
       sodipodi:nodetypes="sssscccccssssscccccccsscsccscsccsccscc" />
    <path
       sodipodi:nodetypes="sssscccccssssscccccccsscsccscsccsccscc"
       inkscape:connector-curvature="0"
       id="path4290"
       d="m 10.273396,1013.3626 c -0.92659,0 -1.6737866,0.7472 -1.6737866,1.6738 l 0,20.4526 c 0,0.9266 0.7471966,1.6738 1.6737866,1.6738 l 8.501737,0 2.837818,3.4999 2.837819,3.4999 2.839772,-3.4999 2.837818,-3.4999 7.597463,0 c 0.926588,0 1.673786,-0.7472 1.673786,-1.6738 l 0,-20.4526 c 0,-0.9266 -0.747198,-1.6738 -1.673786,-1.6738 z m 17.754848,3.3858 c 1.236253,0 2.353646,0.5236 3.137594,1.3588 0.979097,-0.1928 1.899423,-0.55 2.72999,-1.0428 -0.320961,1.0039 -1.002279,1.8475 -1.889507,2.3793 0.869321,-0.1035 1.696983,-0.3373 2.467733,-0.6793 l 0,0 c -0.576228,0.8616 -1.305556,1.6183 -2.145442,2.2243 0.0079,0.1845 0.01262,0.3699 0.01262,0.5562 0,5.6797 -4.322272,12.2312 -12.228081,12.2312 -2.427247,0 -4.685886,-0.7144 -6.587997,-1.9338 0.33622,0.039 0.676806,0.06 1.023746,0.06 2.013779,0 3.868923,-0.6892 5.339912,-1.8421 -1.880831,-0.034 -3.469039,-1.2751 -4.015993,-2.9827 0.262482,0.052 0.531919,0.076 0.808886,0.076 0.391999,0 0.770564,-0.049 1.131176,-0.1488 -1.966194,-0.3951 -3.447244,-2.1328 -3.447244,-4.2151 0,-0.018 -4.19e-4,-0.039 0,-0.057 0.579442,0.3219 1.241811,0.5177 1.946383,0.5403 -1.153363,-0.7705 -1.911626,-2.0885 -1.911626,-3.5798 0,-0.7878 0.211367,-1.5266 0.581387,-2.1613 2.119832,2.6005 5.287688,4.3138 8.85983,4.493 -0.07334,-0.3147 -0.110593,-0.6428 -0.110593,-0.9794 0,-2.3738 1.923574,-4.3005 4.297207,-4.3005 z"
       style="fill:#000000;fill-opacity:0.23529412;stroke:none" />
    <path
       style="fill:url(#linearGradient4288);fill-opacity:1;stroke:none"
       d="m 10.273396,1012.9626 c -0.92659,0 -1.6737866,0.7472 -1.6737866,1.6738 l 0,20.4526 c 0,0.9266 0.7471966,1.6738 1.6737866,1.6738 l 8.501737,0 2.837818,3.4999 2.837819,3.4999 2.839772,-3.4999 2.837818,-3.4999 7.597463,0 c 0.926588,0 1.673786,-0.7472 1.673786,-1.6738 l 0,-20.4526 c 0,-0.9266 -0.747198,-1.6738 -1.673786,-1.6738 z m 17.754848,3.3858 c 1.236253,0 2.353646,0.5236 3.137594,1.3588 0.979097,-0.1928 1.899423,-0.55 2.72999,-1.0428 -0.320961,1.0039 -1.002279,1.8475 -1.889507,2.3793 0.869321,-0.1035 1.696983,-0.3373 2.467733,-0.6793 l 0,0 c -0.576228,0.8616 -1.305556,1.6183 -2.145442,2.2243 0.0079,0.1845 0.01262,0.3699 0.01262,0.5562 0,5.6797 -4.322272,12.2312 -12.228081,12.2312 -2.427247,0 -4.685886,-0.7144 -6.587997,-1.9338 0.33622,0.039 0.676806,0.06 1.023746,0.06 2.013779,0 3.868923,-0.6892 5.339912,-1.8421 -1.880831,-0.034 -3.469039,-1.2751 -4.015993,-2.9827 0.262482,0.052 0.531919,0.076 0.808886,0.076 0.391999,0 0.770564,-0.049 1.131176,-0.1488 -1.966194,-0.3951 -3.447244,-2.1328 -3.447244,-4.2151 0,-0.018 -4.19e-4,-0.039 0,-0.057 0.579442,0.3219 1.241811,0.5177 1.946383,0.5403 -1.153363,-0.7705 -1.911626,-2.0885 -1.911626,-3.5798 0,-0.7878 0.211367,-1.5266 0.581387,-2.1613 2.119832,2.6005 5.287688,4.3138 8.85983,4.493 -0.07334,-0.3147 -0.110593,-0.6428 -0.110593,-0.9794 0,-2.3738 1.923574,-4.3005 4.297207,-4.3005 z"
       id="rect4197"
       inkscape:connector-curvature="0"
       sodipodi:nodetypes="sssscccccssssscccccccsscsccscsccsccscc" />
    <path
       inkscape:connector-curvature="0"
       style="fill:#000000;fill-opacity:1;stroke:none"
       d="m -1.2897644e-7,1049.3622 0,1.0625 c 0,1.0773 0.86022289897644,1.9375 1.93749992897644,1.9375 l 44.1250002,0 c 1.077277,0 1.9375,-0.8602 1.9375,-1.9375 l 0,-1.0625 c 0,1.0773 -0.860223,1.9375 -1.9375,1.9375 l -44.1250002,0 C 0.86022277,1051.2997 -1.2897644e-7,1050.4395 -1.2897644e-7,1049.3622 Z"
       id="rect846" />
    <path
       inkscape:connector-curvature="0"
       style="fill:#ffffff;fill-opacity:0.5372549;stroke:none"
       d="m 2.5312498,1005.0185 c -0.9170884,0 -1.67114673,0.6395 -1.84374993,1.5 0.33561203,-0.2799 0.77451213,-0.4375 1.24999993,-0.4375 l 44.1250002,0 c 0.475488,0 0.914388,0.1576 1.25,0.4375 -0.172603,-0.8605 -0.926662,-1.5 -1.84375,-1.5 L 2.5312498,1005.0185 Z"
       id="path7515" />
    <path
       inkscape:connector-curvature="0"
       style="fill:#000000;fill-opacity:0.39215686;stroke:none"
       d="m 1.9374998,1004.3622 c -1.07727693,0 -1.93749992897644,0.8602 -1.93749992897644,1.9375 l 0,43.0625 c 0,0.7934 0.48002359897644,1.449 1.15624992897644,1.75 -0.30934163,-0.3333 -0.49999993,-0.7824 -0.49999993,-1.2812 l 0,-42.9375 c 0,-1.0482 0.82689893,-1.875 1.87499993,-1.875 l 42.9375002,0 c 1.048101,0 1.875,0.8268 1.875,1.875 l 0,42.9375 c 0,0.4988 -0.190658,0.9479 -0.5,1.2812 0.676226,-0.301 1.15625,-0.9566 1.15625,-1.75 l 0,-43.0625 c 0,-1.0773 -0.860223,-1.9375 -1.9375,-1.9375 L 1.9374998,1004.3622 Z"
       id="rect4280" />
    <path
       style="fill:#12407a;fill-opacity:0.3137255;stroke:none"
       d="M 28.027344 10.783203 C 25.653711 10.783203 23.730469 12.708231 23.730469 15.082031 C 23.730469 15.304111 23.753059 15.521102 23.785156 15.734375 C 24.056895 13.621994 25.841458 11.982422 28.027344 11.982422 L 28.027344 11.986328 C 29.263597 11.986328 30.382068 12.510503 31.166016 13.345703 C 31.736868 13.233293 32.283839 13.058317 32.808594 12.839844 C 33.297123 12.357955 33.68251 11.770829 33.896484 11.101562 C 33.065917 11.594363 32.145113 11.951731 31.166016 12.144531 C 30.382068 11.309331 29.263597 10.785156 28.027344 10.785156 L 28.027344 10.783203 z M 14.982422 11.568359 C 14.612402 12.203059 14.400391 12.942669 14.400391 13.730469 C 14.400391 13.93265 14.41639 14.131294 14.443359 14.326172 C 14.52214 13.765195 14.708774 13.238923 14.982422 12.769531 C 17.102254 15.370031 20.269655 17.082519 23.841797 17.261719 C 23.768457 16.947019 23.730469 16.619803 23.730469 16.283203 C 23.730469 16.204341 23.749714 16.130555 23.753906 16.052734 C 20.218227 15.849737 17.084604 14.147207 14.982422 11.568359 z M 34.474609 12.802734 C 34.163386 12.940831 33.83659 13.047079 33.507812 13.148438 C 33.141387 13.776204 32.628349 14.308523 32.005859 14.681641 C 32.345699 14.64118 32.673804 14.565294 33 14.486328 C 33.560037 13.990654 34.058334 13.425167 34.474609 12.802734 z M 14.365234 16.769531 C 14.364815 16.787531 14.365234 16.808172 14.365234 16.826172 C 14.365234 17.259105 14.443408 17.672235 14.5625 18.066406 C 15.094051 18.327757 15.685355 18.489649 16.3125 18.509766 C 15.749859 18.133895 15.283606 17.626215 14.951172 17.033203 C 14.749025 16.957331 14.551582 16.873054 14.365234 16.769531 z M 15.978516 21.373047 C 16.120728 21.733504 16.303835 22.071943 16.533203 22.376953 C 16.583534 22.378595 16.630806 22.390625 16.681641 22.390625 C 17.07364 22.390625 17.451888 22.341987 17.8125 22.242188 C 17.125839 22.104205 16.504417 21.796018 15.978516 21.373047 z M 18.4375 25.011719 C 17.267188 25.601427 15.947907 25.939453 14.548828 25.939453 C 14.201888 25.939453 13.861611 25.917906 13.525391 25.878906 C 14.247689 26.341955 15.021108 26.731167 15.835938 27.037109 C 17.349343 26.810852 18.737643 26.200956 19.888672 25.298828 C 19.377111 25.289581 18.890704 25.18466 18.4375 25.011719 z M 8.5996094 29.527344 L 8.5996094 30.726562 C 8.5996094 31.653163 9.3468475 32.400391 10.273438 32.400391 L 18.775391 32.400391 L 21.613281 35.900391 L 24.451172 39.400391 L 27.291016 35.900391 L 30.128906 32.400391 L 37.726562 32.400391 C 38.653151 32.400391 39.400391 31.653163 39.400391 30.726562 L 39.400391 29.527344 C 39.400391 30.453944 38.653151 31.201172 37.726562 31.201172 L 30.128906 31.201172 L 27.291016 34.699219 L 24.451172 38.199219 L 21.613281 34.699219 L 18.775391 31.201172 L 10.273438 31.201172 C 9.3468475 31.201172 8.5996094 30.453944 8.5996094 29.527344 z "
       transform="translate(0,1004.3622)"
       id="path4298" />
    <path
       style="fill:#ffffff;fill-opacity:0.23529412;stroke:none"
       d="M 10.273438 8.5996094 C 9.3468475 8.5996094 8.5996094 9.3468375 8.5996094 10.273438 L 8.5996094 10.673828 C 8.5996094 9.7472281 9.3468475 9 10.273438 9 L 37.726562 9 C 38.653151 9 39.400391 9.7472281 39.400391 10.673828 L 39.400391 10.273438 C 39.400391 9.3468375 38.653151 8.5996094 37.726562 8.5996094 L 10.273438 8.5996094 z M 33.896484 12.701172 C 33.825608 12.743225 33.749899 12.778299 33.677734 12.818359 C 33.312395 13.591733 32.734467 14.244917 32.005859 14.681641 C 32.246895 14.652943 32.476632 14.591229 32.710938 14.542969 C 33.249558 14.045264 33.667821 13.416383 33.896484 12.701172 z M 34.474609 14.402344 C 34.346337 14.459261 34.207527 14.4941 34.076172 14.544922 C 33.574264 15.182847 32.986287 15.751681 32.328125 16.226562 C 32.333697 16.356685 32.336023 16.488123 32.337891 16.619141 C 33.173511 16.014372 33.900699 15.260478 34.474609 14.402344 z M 14.414062 15.136719 C 14.411156 15.201671 14.400391 15.264413 14.400391 15.330078 C 14.400391 16.561201 14.922744 17.668743 15.751953 18.453125 C 15.935567 18.483655 16.121904 18.503652 16.3125 18.509766 C 15.213017 17.77526 14.480843 16.542137 14.414062 15.136719 z M 23.746094 16.537109 C 23.744391 16.586846 23.730469 16.633445 23.730469 16.683594 C 23.730469 16.877171 23.747064 17.066883 23.771484 17.253906 C 23.795246 17.255236 23.817999 17.260525 23.841797 17.261719 C 23.787154 17.027249 23.760189 16.784429 23.746094 16.537109 z M 32.335938 16.919922 C 32.267659 22.567683 27.956102 29.013672 20.113281 29.013672 C 17.997212 29.013672 16.008697 28.470624 14.273438 27.523438 C 14.022245 27.515336 13.771142 27.508975 13.525391 27.480469 C 15.427502 28.699869 17.686034 29.414062 20.113281 29.414062 C 28.01909 29.414062 32.341797 22.861341 32.341797 17.181641 C 32.341797 17.093743 32.337877 17.007418 32.335938 16.919922 z M 14.365234 18.369141 C 14.364815 18.387141 14.365234 18.409734 14.365234 18.427734 C 14.365234 20.199932 15.443004 21.713335 16.974609 22.371094 C 17.261969 22.352466 17.543274 22.316696 17.8125 22.242188 C 15.961315 21.870198 14.556404 20.304095 14.396484 18.384766 C 14.386305 18.379216 14.375363 18.374768 14.365234 18.369141 z M 15.873047 22.714844 C 16.371768 24.271861 17.739738 25.428568 19.402344 25.648438 C 19.567963 25.536144 19.731544 25.421979 19.888672 25.298828 C 18.166325 25.267693 16.699659 24.217373 16.042969 22.730469 C 15.987202 22.721978 15.928195 22.725769 15.873047 22.714844 z "
       transform="translate(0,1004.3622)"
       id="path4303" />
  </g>
</svg>
