<?xml version="1.0" encoding="UTF-8" standalone="no"?>
<!-- Created with Inkscape (http://www.inkscape.org/) -->

<svg
   xmlns:dc="http://purl.org/dc/elements/1.1/"
   xmlns:cc="http://creativecommons.org/ns#"
   xmlns:rdf="http://www.w3.org/1999/02/22-rdf-syntax-ns#"
   xmlns:svg="http://www.w3.org/2000/svg"
   xmlns="http://www.w3.org/2000/svg"
   xmlns:xlink="http://www.w3.org/1999/xlink"
   xmlns:sodipodi="http://sodipodi.sourceforge.net/DTD/sodipodi-0.dtd"
   xmlns:inkscape="http://www.inkscape.org/namespaces/inkscape"
   width="48"
   height="48"
   id="svg2"
   version="1.1"
   inkscape:version="0.49 r12742"
   sodipodi:docname="twitter.svg"
   inkscape:export-filename="/home/uri/workspace/NitruxforAndroid/res/drawable-xhdpi/twitter.png"
   inkscape:export-xdpi="180"
   inkscape:export-ydpi="180">
  <defs
     id="defs4">
    <linearGradient
       id="linearGradient4074"
       inkscape:collect="always">
      <stop
         id="stop4076"
         offset="0"
         style="stop-color:#a5dcff;stop-opacity:1" />
      <stop
         id="stop4078"
         offset="1"
         style="stop-color:#f5fdff;stop-opacity:1" />
    </linearGradient>
    <linearGradient
       inkscape:collect="always"
       id="linearGradient1163">
      <stop
         style="stop-color:#009dea;stop-opacity:1"
         offset="0"
         id="stop1165" />
      <stop
         style="stop-color:#00b6f0;stop-opacity:1"
         offset="1"
         id="stop1167" />
    </linearGradient>
    <linearGradient
       inkscape:collect="always"
       xlink:href="#linearGradient1163"
       id="linearGradient1169"
       x1="29.999998"
       y1="-1052.6122"
       x2="29.999998"
       y2="-1004.2372"
       gradientUnits="userSpaceOnUse" />
    <linearGradient
       inkscape:collect="always"
       xlink:href="#linearGradient4074"
       id="linearGradient4106"
       x1="-6.4680848"
       y1="1043.3811"
       x2="-6.4680848"
       y2="1013.3267"
       gradientUnits="userSpaceOnUse"
       gradientTransform="matrix(1.0239498,0,0,1.0239498,38.6984,-24.628955)" />
  </defs>
  <sodipodi:namedview
     id="base"
     pagecolor="#ffffff"
     bordercolor="#666666"
     borderopacity="1.0"
     inkscape:pageopacity="0.0"
     inkscape:pageshadow="2"
     inkscape:zoom="8"
     inkscape:cx="33.953873"
     inkscape:cy="36.329521"
     inkscape:document-units="px"
     inkscape:current-layer="layer1"
     showgrid="false"
     inkscape:window-width="1366"
     inkscape:window-height="718"
     inkscape:window-x="0"
     inkscape:window-y="23"
     inkscape:window-maximized="1">
    <inkscape:grid
       type="xygrid"
       id="grid3850"
       empspacing="5"
       visible="true"
       enabled="true"
       snapvisiblegridlinesonly="true" />
  </sodipodi:namedview>
  <metadata
     id="metadata7">
    <rdf:RDF>
      <cc:Work
         rdf:about="">
        <dc:format>image/svg+xml</dc:format>
        <dc:type
           rdf:resource="http://purl.org/dc/dcmitype/StillImage" />
        <dc:title></dc:title>
      </cc:Work>
    </rdf:RDF>
  </metadata>
  <g
     inkscape:label="Capa 1"
     inkscape:groupmode="layer"
     id="layer1"
     transform="translate(0,-1004.3622)">
    <rect
       style="fill:url(#linearGradient1169);fill-opacity:1;stroke:none"
       id="rect2991-1"
       width="48"
       height="48"
       x="1.2897644e-07"
       y="-1052.3622"
       ry="1.9445436"
       transform="scale(1,-1)" />
    <path
       d="m 42.949906,1017.8084 c -1.394333,0.6184 -2.893078,1.0363 -4.465732,1.2243 1.605052,-0.9623 2.838123,-2.486 3.418753,-4.3018 -1.502543,0.8912 -3.166534,1.5382 -4.937782,1.8868 -1.418212,-1.5112 -3.439028,-2.4553 -5.675488,-2.4553 -4.294046,0 -7.77568,3.4813 -7.77568,7.7754 0,0.6094 0.06871,1.2029 0.20135,1.7719 -6.462219,-0.3242 -12.191761,-3.4199 -16.026668,-8.1241 -0.6693867,1.1483 -1.0528252,2.4841 -1.0528252,3.9091 0,2.6977 1.3726764,5.0777 3.4591792,6.472 -1.2746131,-0.04 -2.4736275,-0.3902 -3.5218757,-0.9725 -7.577e-4,0.033 -7.577e-4,0.064 -7.577e-4,0.097 0,3.7673 2.680291,6.9098 6.2372574,7.6244 -0.652369,0.1776 -1.339296,0.2727 -2.048443,0.2727 -0.501049,0 -0.9881419,-0.049 -1.4629883,-0.1395 0.9894733,3.089 3.8610383,5.3372 7.2635723,5.3997 -2.661113,2.0857 -6.01377,3.3287 -9.6568194,3.3287 -0.6276403,0 -1.2466179,-0.037 -1.8548646,-0.1087 3.4410345,2.2062 7.528222,3.4937 11.919257,3.4937 14.30209,0 22.123285,-11.8482 22.123285,-22.1236 0,-0.3369 -0.0082,-0.6723 -0.02273,-1.0057 1.519409,-1.0964 2.83756,-2.4659 3.879992,-4.0252"
       style="fill:#000000;fill-opacity:0.05882353;fill-rule:nonzero;stroke:none"
       id="path4118"
       inkscape:connector-curvature="0" />
    <path
       inkscape:connector-curvature="0"
       id="path4116"
       style="fill:#000000;fill-opacity:0.11764706;fill-rule:nonzero;stroke:none"
       d="m 42.949906,1017.4084 c -1.394333,0.6184 -2.893078,1.0363 -4.465732,1.2243 1.605052,-0.9623 2.838123,-2.486 3.418753,-4.3018 -1.502543,0.8912 -3.166534,1.5382 -4.937782,1.8868 -1.418212,-1.5112 -3.439028,-2.4553 -5.675488,-2.4553 -4.294046,0 -7.77568,3.4813 -7.77568,7.7754 0,0.6094 0.06871,1.2029 0.20135,1.7719 -6.462219,-0.3242 -12.191761,-3.4199 -16.026668,-8.1241 -0.6693867,1.1483 -1.0528252,2.4841 -1.0528252,3.9091 0,2.6977 1.3726764,5.0777 3.4591792,6.472 -1.2746131,-0.04 -2.4736275,-0.3902 -3.5218757,-0.9725 -7.577e-4,0.033 -7.577e-4,0.064 -7.577e-4,0.097 0,3.7673 2.680291,6.9098 6.2372574,7.6244 -0.652369,0.1776 -1.339296,0.2727 -2.048443,0.2727 -0.501049,0 -0.9881419,-0.049 -1.4629883,-0.1395 0.9894733,3.089 3.8610383,5.3372 7.2635723,5.3997 -2.661113,2.0857 -6.01377,3.3287 -9.6568194,3.3287 -0.6276403,0 -1.2466179,-0.037 -1.8548646,-0.1087 3.4410345,2.2062 7.528222,3.4937 11.919257,3.4937 14.30209,0 22.123285,-11.8482 22.123285,-22.1236 0,-0.3369 -0.0082,-0.6723 -0.02273,-1.0057 1.519409,-1.0964 2.83756,-2.4659 3.879992,-4.0252" />
    <path
       d="m 42.949906,1017.0084 c -1.394333,0.6184 -2.893078,1.0363 -4.465732,1.2243 1.605052,-0.9623 2.838123,-2.486 3.418753,-4.3018 -1.502543,0.8912 -3.166534,1.5382 -4.937782,1.8868 -1.418212,-1.5112 -3.439028,-2.4553 -5.675488,-2.4553 -4.294046,0 -7.77568,3.4813 -7.77568,7.7754 0,0.6094 0.06871,1.2029 0.20135,1.7719 -6.462219,-0.3242 -12.191761,-3.4199 -16.026668,-8.1241 -0.6693867,1.1483 -1.0528252,2.4841 -1.0528252,3.9091 0,2.6977 1.3726764,5.0777 3.4591792,6.472 -1.2746131,-0.04 -2.4736275,-0.3902 -3.5218757,-0.9725 -7.577e-4,0.033 -7.577e-4,0.064 -7.577e-4,0.097 0,3.7673 2.680291,6.9098 6.2372574,7.6244 -0.652369,0.1776 -1.339296,0.2727 -2.048443,0.2727 -0.501049,0 -0.9881419,-0.049 -1.4629883,-0.1395 0.9894733,3.089 3.8610383,5.3372 7.2635723,5.3997 -2.661113,2.0857 -6.01377,3.3287 -9.6568194,3.3287 -0.6276403,0 -1.2466179,-0.037 -1.8548646,-0.1087 3.4410345,2.2062 7.528222,3.4937 11.919257,3.4937 14.30209,0 22.123285,-11.8482 22.123285,-22.1236 0,-0.3369 -0.0082,-0.6723 -0.02273,-1.0057 1.519409,-1.0964 2.83756,-2.4659 3.879992,-4.0252"
       style="fill:#000000;fill-opacity:0.23529412;fill-rule:nonzero;stroke:none"
       id="path4110"
       inkscape:connector-curvature="0" />
    <path
       inkscape:connector-curvature="0"
       style="fill:#000000;fill-opacity:1;stroke:none"
       d="m -1.2897644e-7,1049.3622 0,1.0625 c 0,1.0773 0.86022289897644,1.9375 1.93749992897644,1.9375 l 44.1250002,0 c 1.077277,0 1.9375,-0.8602 1.9375,-1.9375 l 0,-1.0625 c 0,1.0773 -0.860223,1.9375 -1.9375,1.9375 l -44.1250002,0 C 0.86022277,1051.2997 -1.2897644e-7,1050.4395 -1.2897644e-7,1049.3622 Z"
       id="rect846" />
    <path
       inkscape:connector-curvature="0"
       style="fill:#ffffff;fill-opacity:0.5372549;stroke:none"
       d="m 2.5312498,1005.0185 c -0.9170884,0 -1.67114673,0.6395 -1.84374993,1.5 0.33561203,-0.2799 0.77451213,-0.4375 1.24999993,-0.4375 l 44.1250002,0 c 0.475488,0 0.914388,0.1576 1.25,0.4375 -0.172603,-0.8605 -0.926662,-1.5 -1.84375,-1.5 L 2.5312498,1005.0185 Z"
       id="path7515" />
    <path
       inkscape:connector-curvature="0"
       style="fill:#000000;fill-opacity:0.39215686;stroke:none"
       d="m 1.9374998,1004.3622 c -1.07727693,0 -1.93749992897644,0.8602 -1.93749992897644,1.9375 l 0,43.0625 c 0,0.7934 0.48002359897644,1.449 1.15624992897644,1.75 -0.30934163,-0.3333 -0.49999993,-0.7824 -0.49999993,-1.2812 l 0,-42.9375 c 0,-1.0482 0.82689893,-1.875 1.87499993,-1.875 l 42.9375002,0 c 1.048101,0 1.875,0.8268 1.875,1.875 l 0,42.9375 c 0,0.4988 -0.190658,0.9479 -0.5,1.2812 0.676226,-0.301 1.15625,-0.9566 1.15625,-1.75 l 0,-43.0625 c 0,-1.0773 -0.860223,-1.9375 -1.9375,-1.9375 L 1.9374998,1004.3622 Z"
       id="rect4280" />
    <path
       inkscape:connector-curvature="0"
       id="path14"
       style="fill:url(#linearGradient4106);fill-opacity:1;fill-rule:nonzero;stroke:none"
       d="m 42.949906,1016.6083 c -1.394333,0.6184 -2.893078,1.0363 -4.465732,1.2243 1.605052,-0.9623 2.838123,-2.486 3.418753,-4.3018 -1.502543,0.8912 -3.166534,1.5382 -4.937782,1.8868 -1.418212,-1.5112 -3.439028,-2.4553 -5.675488,-2.4553 -4.294046,0 -7.77568,3.4813 -7.77568,7.7754 0,0.6094 0.06871,1.2029 0.20135,1.7719 -6.462219,-0.3242 -12.191761,-3.4199 -16.026668,-8.1241 -0.6693867,1.1483 -1.0528252,2.4841 -1.0528252,3.9091 0,2.6977 1.3726764,5.0777 3.4591792,6.472 -1.2746131,-0.04 -2.4736275,-0.3902 -3.5218757,-0.9725 -7.577e-4,0.033 -7.577e-4,0.064 -7.577e-4,0.097 0,3.7673 2.680291,6.9098 6.2372574,7.6244 -0.652369,0.1776 -1.339296,0.2727 -2.048443,0.2727 -0.501049,0 -0.9881419,-0.049 -1.4629883,-0.1395 0.9894733,3.089 3.8610383,5.3372 7.2635723,5.3997 -2.661113,2.0857 -6.01377,3.3287 -9.6568194,3.3287 -0.6276403,0 -1.2466179,-0.037 -1.8548646,-0.1087 3.4410345,2.2062 7.528222,3.4937 11.919257,3.4937 14.30209,0 22.123285,-11.8482 22.123285,-22.1236 0,-0.3369 -0.0082,-0.6723 -0.02273,-1.0057 1.519409,-1.0964 2.83756,-2.4659 3.879992,-4.0252" />
    <path
       style="fill:#009dea;fill-opacity:0.3137255;fill-rule:nonzero;stroke:none"
       d="m 41.90625,1013.5121 c -0.139722,0.083 -0.295029,0.1401 -0.4375,0.2187 -0.663656,1.3618 -1.707933,2.5066 -3,3.2813 0.447127,-0.053 0.909273,-0.098 1.34375,-0.1875 C 40.768377,1015.9303 41.497995,1014.7888 41.90625,1013.5121 z m 1.03125,3.0937 c -0.266765,0.1184 -0.538305,0.2091 -0.8125,0.3125 -0.881728,1.0944 -1.922943,2.084 -3.0625,2.9063 0.01136,0.2605 0.02852,0.5185 0.03125,0.7812 C 40.598112,1019.5138 41.90324,1018.1529 42.9375,1016.6058 z m -36.28125,1.3438 c -0.00497,0.1141 -0.03125,0.2285 -0.03125,0.3437 0,2.1839 0.925414,4.1495 2.375,5.5625 0.3582368,0.063 0.720675,0.082 1.09375,0.094 C 8.1295349,1022.637 6.8055914,1020.452 6.65625,1017.9496 z m 16.875,2.4062 c -0.0062,0.1274 -0.03125,0.2462 -0.03125,0.375 0,0.3258 0.02396,0.6534 0.0625,0.9688 0.05138,0 0.104774,-0 0.15625,0 C 23.618132,1021.268 23.556205,1020.8119 23.53125,1020.3558 z m 15.5625,0.7813 c -0.155601,10.202 -7.966748,21.8125 -22.125,21.8125 -3.743291,0 -7.2541572,-0.9509 -10.34375,-2.5937 -0.5312457,-0.01 -1.0454903,-0.033 -1.5625,-0.094 3.4410345,2.2062 7.515215,3.5 11.90625,3.5 14.30209,0 22.125,-11.8496 22.125,-22.125 C 39.09375,1021.4688 39.097609,1021.3046 39.09375,1021.1371 z m -32.53125,2.6562 c -7.577e-4,0.033 0,0.061 0,0.094 0,3.1427 1.8791476,5.8361 4.5625,7.0625 0.577041,-0.027 1.15042,-0.1038 1.6875,-0.25 -3.334656,-0.6699 -5.9112584,-3.4542 -6.21875,-6.9063 C 6.5854218,1023.7888 6.5708093,1023.798 6.5625,1023.7933 z m 2.75,7.8438 c 0.890435,2.7798 3.295865,4.8746 6.25,5.3125 0.340702,-0.2265 0.678749,-0.467 1,-0.7187 -3.08407,-0.057 -5.700778,-1.916 -6.90625,-4.5625 C 9.5418659,1031.6516 9.4254746,1031.6586 9.3125,1031.6371 Z"
       id="path4120"
       inkscape:connector-curvature="0" />
    <path
       style="fill:#ffffff;fill-opacity:0.23529412;fill-rule:nonzero;stroke:none"
       d="m 31.28125,1012.9623 c -4.294046,0 -7.78125,3.4872 -7.78125,7.7813 0,0.073 -0.002,0.146 0,0.2187 0.09787,-4.209 3.548773,-7.5937 7.78125,-7.5937 2.23646,0 4.269288,0.9575 5.6875,2.4687 1.700658,-0.3347 3.295065,-0.9756 4.75,-1.8125 0.06363,-0.1606 0.134523,-0.3343 0.1875,-0.5 -1.502543,0.8912 -3.166252,1.5576 -4.9375,1.9063 C 35.550538,1013.9198 33.51771,1012.9623 31.28125,1012.9623 z m -23.59375,1.4375 c -0.6693867,1.1483 -1.0625,2.4813 -1.0625,3.9063 0,0.084 -0.00264,0.1666 0,0.25 0.026831,-1.3667 0.417533,-2.6436 1.0625,-3.75 3.834907,4.7042 9.569031,7.8007 16.03125,8.125 -0.03066,-0.1316 -0.03873,-0.2723 -0.0625,-0.4063 C 17.219287,1022.184 11.510188,1019.089 7.6875,1014.3998 z m 35.25,2.2188 c -1.173878,0.5206 -2.415063,0.8748 -3.71875,1.0937 -0.237964,0.1829 -0.49158,0.3763 -0.75,0.5313 1.422213,-0.1701 2.783737,-0.5382 4.0625,-1.0625 C 42.670025,1016.9922 42.807196,1016.8135 42.9375,1016.6186 z m -36.375,7.1875 c -7.577e-4,0.033 0,0.061 0,0.094 0,0.1068 -0.00427,0.2067 0,0.3125 1.0482482,0.5823 2.2566369,0.9288 3.53125,0.9688 -0.217344,-0.1453 -0.4238917,-0.3029 -0.625,-0.4688 C 8.429312,1024.5946 7.4360402,1024.2913 6.5625,1023.8061 z m 2.75,7.8437 c 0.047584,0.1485 0.1001115,0.293 0.15625,0.4375 0.4251819,0.072 0.835149,0.094 1.28125,0.094 0.709147,0 1.410131,-0.072 2.0625,-0.25 -0.311928,-0.063 -0.609023,-0.1513 -0.90625,-0.25 -0.37331,0.055 -0.767557,0.125 -1.15625,0.125 C 10.248951,1031.8061 9.7873464,1031.7403 9.3125,1031.6498 z m 6.71875,5.7813 c -2.572508,1.8506 -5.714154,2.9375 -9.125,2.9375 -0.6276403,0 -1.2355033,-0.022 -1.84375,-0.094 0.2565652,0.1645 0.5176424,0.3146 0.78125,0.4688 0.3509183,0.024 0.7055992,0.031 1.0625,0.031 3.643049,0 6.995137,-1.2268 9.65625,-3.3125 C 16.381661,1037.459 16.208887,1037.4465 16.03125,1037.4311 Z"
       id="path4125"
       inkscape:connector-curvature="0" />
  </g>
</svg>
