<?xml version="1.0" encoding="UTF-8" standalone="no"?>
<!-- Created with Inkscape (http://www.inkscape.org/) -->

<svg
   xmlns:dc="http://purl.org/dc/elements/1.1/"
   xmlns:cc="http://creativecommons.org/ns#"
   xmlns:rdf="http://www.w3.org/1999/02/22-rdf-syntax-ns#"
   xmlns:svg="http://www.w3.org/2000/svg"
   xmlns="http://www.w3.org/2000/svg"
   xmlns:xlink="http://www.w3.org/1999/xlink"
   xmlns:sodipodi="http://sodipodi.sourceforge.net/DTD/sodipodi-0.dtd"
   xmlns:inkscape="http://www.inkscape.org/namespaces/inkscape"
   width="48"
   height="48"
   id="svg4490"
   version="1.1"
   inkscape:version="0.91pre2 r"
   viewBox="0 0 48 48"
   sodipodi:docname="typer.svg">
  <defs
     id="defs4492">
    <linearGradient
       inkscape:collect="always"
       id="linearGradient4181">
      <stop
         style="stop-color:#1abc9c;stop-opacity:1"
         offset="0"
         id="stop4183" />
      <stop
         style="stop-color:#1ae4b3;stop-opacity:1"
         offset="1"
         id="stop4185" />
    </linearGradient>
    <linearGradient
       gradientTransform="translate(213.14285,507.42848)"
       inkscape:collect="always"
       xlink:href="#linearGradient1373"
       id="linearGradient1711"
       gradientUnits="userSpaceOnUse"
       x1="22.490341"
       y1="-1052.3704"
       x2="22.490341"
       y2="-1004.3641" />
    <linearGradient
       id="linearGradient1373"
       inkscape:collect="always">
      <stop
         id="stop1375"
         offset="0"
         style="stop-color:#2c3e50;stop-opacity:1" />
      <stop
         id="stop1377"
         offset="1"
         style="stop-color:#3c5064;stop-opacity:1" />
    </linearGradient>
    <linearGradient
       inkscape:collect="always"
       xlink:href="#linearGradient4181"
       id="linearGradient4179"
       x1="243.5"
       y1="536.36218"
       x2="243.5"
       y2="505.55862"
       gradientUnits="userSpaceOnUse" />
  </defs>
  <sodipodi:namedview
     id="base"
     pagecolor="#ffffff"
     bordercolor="#666666"
     borderopacity="1.0"
     inkscape:pageopacity="0.0"
     inkscape:pageshadow="2"
     inkscape:zoom="3.959798"
     inkscape:cx="42.48207"
     inkscape:cy="35.235361"
     inkscape:document-units="px"
     inkscape:current-layer="layer1"
     showgrid="false"
     inkscape:showpageshadow="false"
     borderlayer="true"
     fit-margin-top="0"
     fit-margin-left="0"
     fit-margin-right="0"
     fit-margin-bottom="0"
     inkscape:window-width="1366"
     inkscape:window-height="673"
     inkscape:window-x="-4"
     inkscape:window-y="24"
     inkscape:window-maximized="1" />
  <metadata
     id="metadata4495">
    <rdf:RDF>
      <cc:Work
         rdf:about="">
        <dc:format>image/svg+xml</dc:format>
        <dc:type
           rdf:resource="http://purl.org/dc/dcmitype/StillImage" />
        <dc:title />
      </cc:Work>
    </rdf:RDF>
  </metadata>
  <g
     inkscape:label="Capa 1"
     inkscape:groupmode="layer"
     id="layer1"
     transform="translate(-213.14285,-496.93362)">
    <rect
       style="fill:url(#linearGradient1711);fill-opacity:1;stroke:none"
       id="rect2991-1"
       width="48"
       height="48"
       x="213.14285"
       y="-544.93359"
       ry="1.9445436"
       transform="scale(1,-1)" />
    <g
       transform="translate(-171.42859,-2.8643563)"
       id="g4245">
      <path
         id="rect846"
         d="m 384.57143,544.79799 0,1.0625 c 0,1.0773 0.86022,1.9375 1.9375,1.9375 l 44.125,0 c 1.07728,0 1.9375,-0.8602 1.9375,-1.9375 l 0,-1.0625 c 0,1.0773 -0.86022,1.9375 -1.9375,1.9375 l -44.125,0 c -1.07728,0 -1.9375,-0.8602 -1.9375,-1.9375 z"
         style="fill:#000000;fill-opacity:1;stroke:none"
         inkscape:connector-curvature="0" />
      <path
         id="path7515"
         d="m 387.10268,500.45429 c -0.91709,0 -1.67115,0.6395 -1.84375,1.5 0.33561,-0.2799 0.77451,-0.4375 1.25,-0.4375 l 44.125,0 c 0.47549,0 0.91439,0.1576 1.25,0.4375 -0.1726,-0.8605 -0.92666,-1.5 -1.84375,-1.5 l -42.9375,0 z"
         style="fill:#ffffff;fill-opacity:0.5372549;stroke:none"
         inkscape:connector-curvature="0" />
      <path
         id="rect4280"
         d="m 386.50893,499.79799 c -1.07728,0 -1.9375,0.8602 -1.9375,1.9375 l 0,43.0625 c 0,0.7934 0.48002,1.449 1.15625,1.75 -0.30934,-0.3333 -0.5,-0.7824 -0.5,-1.2812 l 0,-42.9375 c 0,-1.0482 0.8269,-1.875 1.875,-1.875 l 42.9375,0 c 1.0481,0 1.875,0.8268 1.875,1.875 l 0,42.9375 c 0,0.4988 -0.19066,0.9479 -0.5,1.2812 0.67623,-0.301 1.15625,-0.9566 1.15625,-1.75 l 0,-43.0625 c 0,-1.0773 -0.86022,-1.9375 -1.9375,-1.9375 l -44.125,0 z"
         style="fill:#000000;fill-opacity:0.39215686;stroke:none"
         inkscape:connector-curvature="0" />
    </g>
    <path
       inkscape:connector-curvature="0"
       id="path4193"
       d="m 237.1348,506.73362 c -4.03202,1.8e-4 -8.03669,1.24564 -10.88565,3.38374 -2.84897,2.13812 -4.5063,5.14198 -4.5063,8.16545 0,3.02347 1.65733,6.02895 4.5063,8.16706 2.75969,2.07112 6.60577,3.29386 10.50878,3.36925 l 0,7.7145 c 15.81713,-9.13198 15.78492,-14.88911 15.78492,-19.25081 0,-3.0238 -1.66175,-6.02893 -4.51435,-8.16705 -2.8526,-2.13812 -6.86168,-3.38232 -10.8937,-3.38214 z m -5.26969,7.16208 2.35621,0 0,1.67818 -2.35621,0 0,-1.67818 z m 7.15563,2.03089 c 0.72915,0 1.25108,0.30712 1.56706,0.92284 0.32409,-0.61572 0.89854,-0.92284 1.72489,-0.92284 0.46183,0 0.83576,0.12449 1.11933,0.37525 0.32406,0.29183 0.48639,0.72331 0.48639,1.29005 l 0,5.07964 -2.35945,0 0,-4.35168 c 0,-0.42969 -0.15275,-0.64421 -0.46061,-0.64421 -0.31596,0 -0.47351,0.21452 -0.47351,0.64421 l 0,4.35168 -2.35783,0 0,-4.35168 c 0,-0.42969 -0.15435,-0.64421 -0.46222,-0.64421 -0.31596,0 -0.47351,0.21452 -0.47351,0.64421 l 0,4.35168 -2.35621,0 0,-6.57584 2.28374,0 0,0.75374 0.0242,0 c 0.34025,-0.61572 0.91952,-0.92284 1.73778,-0.92284 z m -7.15563,0.1691 2.35621,0 0,6.57584 -1.30614,0 c 0.38026,-0.32892 0.6265,-0.79815 0.6265,-1.30453 0,-0.95768 -0.74027,-1.70685 -1.67657,-1.78931 l 0,-3.482 z m -0.16106,3.92974 c 0.75183,0 1.36413,0.58393 1.36413,1.33513 0,0.6963 -0.6123,1.31097 -1.36413,1.31097 -0.72397,0 -1.33675,-0.61467 -1.33675,-1.31097 0,-0.7512 0.61278,-1.33513 1.33675,-1.33513 z"
       style="fill:#000000;fill-opacity:0.05882353;stroke:none" />
    <path
       style="fill:#000000;fill-opacity:0.11764706;stroke:none"
       d="m 237.1348,506.33362 c -4.03202,1.8e-4 -8.03669,1.24564 -10.88565,3.38374 -2.84897,2.13812 -4.5063,5.14198 -4.5063,8.16545 0,3.02347 1.65733,6.02895 4.5063,8.16706 2.75969,2.07112 6.60577,3.29386 10.50878,3.36925 l 0,7.7145 c 15.81713,-9.13198 15.78492,-14.88911 15.78492,-19.25081 0,-3.0238 -1.66175,-6.02893 -4.51435,-8.16705 -2.8526,-2.13812 -6.86168,-3.38232 -10.8937,-3.38214 z m -5.26969,7.16208 2.35621,0 0,1.67818 -2.35621,0 0,-1.67818 z m 7.15563,2.03089 c 0.72915,0 1.25108,0.30712 1.56706,0.92284 0.32409,-0.61572 0.89854,-0.92284 1.72489,-0.92284 0.46183,0 0.83576,0.12449 1.11933,0.37525 0.32406,0.29183 0.48639,0.72331 0.48639,1.29005 l 0,5.07964 -2.35945,0 0,-4.35168 c 0,-0.42969 -0.15275,-0.64421 -0.46061,-0.64421 -0.31596,0 -0.47351,0.21452 -0.47351,0.64421 l 0,4.35168 -2.35783,0 0,-4.35168 c 0,-0.42969 -0.15435,-0.64421 -0.46222,-0.64421 -0.31596,0 -0.47351,0.21452 -0.47351,0.64421 l 0,4.35168 -2.35621,0 0,-6.57584 2.28374,0 0,0.75374 0.0242,0 c 0.34025,-0.61572 0.91952,-0.92284 1.73778,-0.92284 z m -7.15563,0.1691 2.35621,0 0,6.57584 -1.30614,0 c 0.38026,-0.32892 0.6265,-0.79815 0.6265,-1.30453 0,-0.95768 -0.74027,-1.70685 -1.67657,-1.78931 l 0,-3.482 z m -0.16106,3.92974 c 0.75183,0 1.36413,0.58393 1.36413,1.33513 0,0.6963 -0.6123,1.31097 -1.36413,1.31097 -0.72397,0 -1.33675,-0.61467 -1.33675,-1.31097 0,-0.7512 0.61278,-1.33513 1.33675,-1.33513 z"
       id="path4191"
       inkscape:connector-curvature="0" />
    <path
       inkscape:connector-curvature="0"
       id="path4187"
       d="m 237.1348,505.93362 c -4.03202,1.8e-4 -8.03669,1.24564 -10.88565,3.38374 -2.84897,2.13812 -4.5063,5.14198 -4.5063,8.16545 0,3.02347 1.65733,6.02895 4.5063,8.16706 2.75969,2.07112 6.60577,3.29386 10.50878,3.36925 l 0,7.7145 c 15.81713,-9.13198 15.78492,-14.88911 15.78492,-19.25081 0,-3.0238 -1.66175,-6.02893 -4.51435,-8.16705 -2.8526,-2.13812 -6.86168,-3.38232 -10.8937,-3.38214 z m -5.26969,7.16208 2.35621,0 0,1.67818 -2.35621,0 0,-1.67818 z m 7.15563,2.03089 c 0.72915,0 1.25108,0.30712 1.56706,0.92284 0.32409,-0.61572 0.89854,-0.92284 1.72489,-0.92284 0.46183,0 0.83576,0.12449 1.11933,0.37525 0.32406,0.29183 0.48639,0.72331 0.48639,1.29005 l 0,5.07964 -2.35945,0 0,-4.35168 c 0,-0.42969 -0.15275,-0.64421 -0.46061,-0.64421 -0.31596,0 -0.47351,0.21452 -0.47351,0.64421 l 0,4.35168 -2.35783,0 0,-4.35168 c 0,-0.42969 -0.15435,-0.64421 -0.46222,-0.64421 -0.31596,0 -0.47351,0.21452 -0.47351,0.64421 l 0,4.35168 -2.35621,0 0,-6.57584 2.28374,0 0,0.75374 0.0242,0 c 0.34025,-0.61572 0.91952,-0.92284 1.73778,-0.92284 z m -7.15563,0.1691 2.35621,0 0,6.57584 -1.30614,0 c 0.38026,-0.32892 0.6265,-0.79815 0.6265,-1.30453 0,-0.95768 -0.74027,-1.70685 -1.67657,-1.78931 l 0,-3.482 z m -0.16106,3.92974 c 0.75183,0 1.36413,0.58393 1.36413,1.33513 0,0.6963 -0.6123,1.31097 -1.36413,1.31097 -0.72397,0 -1.33675,-0.61467 -1.33675,-1.31097 0,-0.7512 0.61278,-1.33513 1.33675,-1.33513 z"
       style="fill:#000000;fill-opacity:0.23529412;stroke:none" />
    <path
       style="fill:url(#linearGradient4179);fill-opacity:1;stroke:none"
       d="m 237.1348,505.53362 c -4.03202,1.8e-4 -8.03669,1.24564 -10.88565,3.38374 -2.84897,2.13812 -4.5063,5.14198 -4.5063,8.16545 0,3.02347 1.65733,6.02895 4.5063,8.16706 2.75969,2.07112 6.60577,3.29386 10.50878,3.36925 l 0,7.7145 c 15.81713,-9.13198 15.78492,-14.88911 15.78492,-19.25081 0,-3.0238 -1.66175,-6.02893 -4.51435,-8.16705 -2.8526,-2.13812 -6.86168,-3.38232 -10.8937,-3.38214 z m -5.26969,7.16208 2.35621,0 0,1.67818 -2.35621,0 0,-1.67818 z m 7.15563,2.03089 c 0.72915,0 1.25108,0.30712 1.56706,0.92284 0.32409,-0.61572 0.89854,-0.92284 1.72489,-0.92284 0.46183,0 0.83576,0.12449 1.11933,0.37525 0.32406,0.29183 0.48639,0.72331 0.48639,1.29005 l 0,5.07964 -2.35945,0 0,-4.35168 c 0,-0.42969 -0.15275,-0.64421 -0.46061,-0.64421 -0.31596,0 -0.47351,0.21452 -0.47351,0.64421 l 0,4.35168 -2.35783,0 0,-4.35168 c 0,-0.42969 -0.15435,-0.64421 -0.46222,-0.64421 -0.31596,0 -0.47351,0.21452 -0.47351,0.64421 l 0,4.35168 -2.35621,0 0,-6.57584 2.28374,0 0,0.75374 0.0242,0 c 0.34025,-0.61572 0.91952,-0.92284 1.73778,-0.92284 z m -7.15563,0.1691 2.35621,0 0,6.57584 -1.30614,0 c 0.38026,-0.32892 0.6265,-0.79815 0.6265,-1.30453 0,-0.95768 -0.74027,-1.70685 -1.67657,-1.78931 l 0,-3.482 z m -0.16106,3.92974 c 0.75183,0 1.36413,0.58393 1.36413,1.33513 0,0.6963 -0.6123,1.31097 -1.36413,1.31097 -0.72397,0 -1.33675,-0.61467 -1.33675,-1.31097 0,-0.7512 0.61278,-1.33513 1.33675,-1.33513 z"
       id="path4084"
       inkscape:connector-curvature="0" />
    <path
       style="fill:#138f75;fill-opacity:1;stroke:none"
       d="M 18.722656 14.962891 L 18.722656 15.761719 L 21.078125 15.761719 L 21.078125 14.962891 L 18.722656 14.962891 z M 25.876953 16.992188 C 25.059791 16.992707 24.480587 17.300817 24.140625 17.916016 L 24.115234 17.916016 L 24.115234 17.162109 L 21.832031 17.162109 L 21.832031 17.962891 L 24.115234 17.962891 L 24.115234 18.714844 L 24.140625 18.714844 C 24.480587 18.099646 25.059792 17.793489 25.876953 17.792969 L 25.878906 17.792969 C 26.606975 17.793549 27.129631 18.099706 27.445312 18.714844 C 27.769403 18.099124 28.343572 17.792969 29.169922 17.792969 C 29.631752 17.792969 30.005493 17.917209 30.289062 18.167969 C 30.613123 18.459799 30.775391 18.892244 30.775391 19.458984 L 30.775391 18.658203 C 30.775391 18.091463 30.613123 17.660971 30.289062 17.369141 C 30.005493 17.118381 29.631752 16.992188 29.169922 16.992188 C 28.343572 16.992188 27.769403 17.300296 27.445312 17.916016 C 27.129631 17.300878 26.606976 16.992768 25.878906 16.992188 L 25.876953 16.992188 z M 18.722656 17.439453 L 18.722656 17.962891 L 21.078125 17.962891 L 21.078125 17.439453 L 18.722656 17.439453 z M 8.6269531 19.75 C 8.620564 19.883005 8.5996094 20.015284 8.5996094 20.148438 C 8.5996094 23.171907 10.256499 26.178296 13.105469 28.316406 C 15.865159 30.387526 19.712224 31.610157 23.615234 31.685547 L 23.615234 30.884766 C 19.712224 30.809376 15.865159 29.586745 13.105469 27.515625 C 10.38258 25.472137 8.7662797 22.636555 8.6269531 19.75 z M 39.388672 19.990234 C 39.35817 24.276164 38.689507 29.896516 23.615234 38.599609 L 23.615234 39.400391 C 39.432364 30.268411 39.400391 24.510138 39.400391 20.148438 C 39.400391 20.095542 39.389686 20.043114 39.388672 19.990234 z M 18.560547 21.091797 C 17.836577 21.091797 17.224609 21.676534 17.224609 22.427734 C 17.224609 22.562401 17.252709 22.691703 17.294922 22.816406 C 17.470579 22.274561 17.976129 21.892578 18.560547 21.892578 C 19.167454 21.892578 19.679097 22.274561 19.855469 22.816406 C 19.897854 22.691703 19.925781 22.562401 19.925781 22.427734 C 19.925781 22.253095 19.890324 22.088823 19.830078 21.9375 C 19.535657 21.663522 19.151968 21.481169 18.722656 21.443359 L 18.722656 21.107422 C 18.669049 21.101268 18.615852 21.091797 18.560547 21.091797 z M 20.347656 22.824219 C 20.265398 23.147333 20.080539 23.436778 19.835938 23.669922 C 19.826901 23.692979 19.81895 23.715778 19.808594 23.738281 L 20.306641 23.738281 C 20.360741 23.576532 20.398438 23.407277 20.398438 23.232422 C 20.398438 23.090424 20.378432 22.955555 20.347656 22.824219 z "
       transform="translate(213.14285,496.93362)"
       id="path4195" />
    <path
       style="fill:#ffffff;fill-opacity:0.23529412;stroke:none"
       d="M 23.992188 8.5996094 C 19.960168 8.5997894 15.954429 9.846275 13.105469 11.984375 C 10.256499 14.122495 8.5996094 17.124968 8.5996094 20.148438 C 8.5996094 20.215549 8.6116532 20.282525 8.6132812 20.349609 C 8.6844421 17.393962 10.319233 14.473851 13.105469 12.382812 C 15.954429 10.244712 19.960168 9.00018 23.992188 9 C 28.024207 8.99982 32.032166 10.244692 34.884766 12.382812 C 37.712109 14.502002 39.365402 17.472116 39.394531 20.46875 C 39.394701 20.364761 39.400391 20.250862 39.400391 20.148438 C 39.400391 17.124637 37.737366 14.120542 34.884766 11.982422 C 32.032166 9.8443019 28.024207 8.5994294 23.992188 8.5996094 z M 18.722656 17.439453 L 18.722656 17.839844 L 21.078125 17.839844 L 21.078125 17.439453 L 18.722656 17.439453 z M 24.662109 19.542969 C 24.346149 19.542969 24.1875 19.755857 24.1875 20.185547 L 24.1875 20.585938 C 24.1875 20.156247 24.346149 19.941406 24.662109 19.941406 C 24.969979 19.941406 25.125 20.156247 25.125 20.585938 L 25.125 20.185547 C 25.125 19.755857 24.969979 19.542969 24.662109 19.542969 z M 27.955078 19.542969 C 27.639118 19.542969 27.482422 19.755857 27.482422 20.185547 L 27.482422 20.585938 C 27.482422 20.156247 27.639118 19.941406 27.955078 19.941406 C 28.262938 19.941406 28.416016 20.156247 28.416016 20.585938 L 28.416016 20.185547 C 28.416016 19.755857 28.262938 19.542969 27.955078 19.542969 z M 18.722656 21.443359 L 18.722656 21.84375 C 19.583993 21.919608 20.271116 22.562569 20.376953 23.410156 C 20.383751 23.351067 20.398438 23.29274 20.398438 23.232422 C 20.398438 22.274742 19.658956 21.525819 18.722656 21.443359 z M 17.246094 23.419922 C 17.235534 23.487692 17.224609 23.555831 17.224609 23.626953 C 17.224609 24.323253 17.836577 24.9375 18.560547 24.9375 C 19.312377 24.9375 19.925781 24.323253 19.925781 23.626953 C 19.925781 23.555831 19.914873 23.487692 19.904297 23.419922 C 19.803324 24.032134 19.241323 24.537109 18.560547 24.537109 C 17.904998 24.537109 17.346916 24.032134 17.246094 23.419922 z M 20.111328 24.537109 C 20.015552 24.683259 19.905413 24.821654 19.771484 24.9375 L 21.078125 24.9375 L 21.078125 24.537109 L 20.111328 24.537109 z M 21.832031 24.537109 L 21.832031 24.9375 L 24.1875 24.9375 L 24.1875 24.537109 L 21.832031 24.537109 z M 25.125 24.537109 L 25.125 24.9375 L 27.482422 24.9375 L 27.482422 24.537109 L 25.125 24.537109 z M 28.416016 24.537109 L 28.416016 24.9375 L 30.775391 24.9375 L 30.775391 24.537109 L 28.416016 24.537109 z "
       transform="translate(213.14285,496.93362)"
       id="path4200" />
  </g>
</svg>
