<?xml version="1.0" encoding="UTF-8" standalone="no"?>
<!-- Created with Inkscape (http://www.inkscape.org/) -->

<svg
   xmlns:dc="http://purl.org/dc/elements/1.1/"
   xmlns:cc="http://creativecommons.org/ns#"
   xmlns:rdf="http://www.w3.org/1999/02/22-rdf-syntax-ns#"
   xmlns:svg="http://www.w3.org/2000/svg"
   xmlns="http://www.w3.org/2000/svg"
   xmlns:xlink="http://www.w3.org/1999/xlink"
   xmlns:sodipodi="http://sodipodi.sourceforge.net/DTD/sodipodi-0.dtd"
   xmlns:inkscape="http://www.inkscape.org/namespaces/inkscape"
   width="48"
   height="48"
   id="svg5453"
   version="1.1"
   inkscape:version="0.48+devel r12501"
   sodipodi:docname="unity-tweak-tool.svg"
   inkscape:export-filename="/home/uri/workspace/NitruxforAndroid/res/drawable-xhdpi/cwm.png"
   inkscape:export-xdpi="180"
   inkscape:export-ydpi="180">
  <defs
     id="defs5455">
    <linearGradient
       inkscape:collect="always"
       id="linearGradient1539">
      <stop
         style="stop-color:#20282f;stop-opacity:1"
         offset="0"
         id="stop1541" />
      <stop
         style="stop-color:#3f4951;stop-opacity:1"
         offset="1"
         id="stop1543" />
    </linearGradient>
    <linearGradient
       id="linearGradient4215">
      <stop
         style="stop-color:#dcdcdc;stop-opacity:1;"
         offset="0"
         id="stop4217" />
      <stop
         style="stop-color:#f0f0f0;stop-opacity:1;"
         offset="1"
         id="stop4219" />
    </linearGradient>
    <linearGradient
       y2="1012.5406"
       x2="23.73313"
       y1="1045.156"
       x1="23.73313"
       gradientUnits="userSpaceOnUse"
       id="linearGradient1138"
       xlink:href="#linearGradient4215"
       inkscape:collect="always"
       gradientTransform="matrix(-0.64669072,-0.64437569,-0.64437569,0.64669072,1086.6597,-125.84883)" />
    <linearGradient
       inkscape:collect="always"
       xlink:href="#linearGradient1539"
       id="linearGradient1545"
       x1="410.05835"
       y1="-547.63873"
       x2="410.05835"
       y2="-500.32861"
       gradientUnits="userSpaceOnUse"
       gradientTransform="matrix(0.83333335,0,0,0.83333335,68.095229,-87.29965)" />
    <linearGradient
       id="linearGradient1001">
      <stop
         id="stop1003"
         offset="0"
         style="stop-color:#e4ff7e;stop-opacity:1" />
      <stop
         id="stop1005"
         offset="1"
         style="stop-color:#69a043;stop-opacity:1" />
    </linearGradient>
    <linearGradient
       id="linearGradient995">
      <stop
         id="stop997"
         offset="0"
         style="stop-color:#ffe35c;stop-opacity:1" />
      <stop
         id="stop999"
         offset="1"
         style="stop-color:#fdac43;stop-opacity:1" />
    </linearGradient>
    <linearGradient
       id="linearGradient1239">
      <stop
         style="stop-color:#ff5c5c;stop-opacity:1"
         offset="0"
         id="stop1241" />
      <stop
         style="stop-color:#ac0000;stop-opacity:1"
         offset="1"
         id="stop1243" />
    </linearGradient>
    <radialGradient
       gradientUnits="userSpaceOnUse"
       r="1.2153398"
       fy="2.2456543"
       fx="2.5853591"
       cy="2.2456543"
       cx="2.5853591"
       id="radialGradient985"
       xlink:href="#linearGradient1239"
       inkscape:collect="always" />
    <radialGradient
       r="1.2153398"
       fy="2.2456543"
       fx="2.5853591"
       cy="2.2456543"
       cx="2.5853591"
       gradientUnits="userSpaceOnUse"
       id="radialGradient989"
       xlink:href="#linearGradient995"
       inkscape:collect="always" />
    <radialGradient
       r="1.2153398"
       fy="2.2456543"
       fx="2.5853591"
       cy="2.2456543"
       cx="2.5853591"
       gradientUnits="userSpaceOnUse"
       id="radialGradient993"
       xlink:href="#linearGradient1001"
       inkscape:collect="always" />
    <linearGradient
       x1="45.447727"
       y1="92.539597"
       x2="45.447727"
       y2="7.0165396"
       id="ButtonShadow"
       gradientUnits="userSpaceOnUse"
       gradientTransform="scale(1.0058652,0.994169)">
      <stop
         id="stop3750"
         style="stop-color:#000000;stop-opacity:1"
         offset="0" />
      <stop
         id="stop3752-8"
         style="stop-color:#000000;stop-opacity:0.58823532"
         offset="1" />
    </linearGradient>
    <filter
       color-interpolation-filters="sRGB"
       id="filter3174">
      <feGaussianBlur
         id="feGaussianBlur3176"
         stdDeviation="1.71" />
    </filter>
    <linearGradient
       id="linearGradient3737-6">
      <stop
         id="stop3739-73"
         style="stop-color:#ffffff;stop-opacity:1"
         offset="0" />
      <stop
         id="stop3741-6"
         style="stop-color:#ffffff;stop-opacity:0"
         offset="1" />
    </linearGradient>
    <clipPath
       id="clipPath3613">
      <rect
         width="84"
         height="84"
         rx="6"
         ry="6"
         x="6"
         y="6"
         id="rect3615"
         style="fill:#ffffff;fill-opacity:1;fill-rule:nonzero;stroke:none" />
    </clipPath>
    <filter
       x="-0.192"
       y="-0.192"
       width="1.3839999"
       height="1.3839999"
       color-interpolation-filters="sRGB"
       id="filter3794">
      <feGaussianBlur
         id="feGaussianBlur3796"
         stdDeviation="5.28" />
    </filter>
    <linearGradient
       x1="48"
       y1="20.220806"
       x2="48"
       y2="138.66119"
       id="linearGradient2885"
       xlink:href="#linearGradient3737-6"
       gradientUnits="userSpaceOnUse" />
    <linearGradient
       inkscape:collect="always"
       id="linearGradient1475">
      <stop
         style="stop-color:#000000;stop-opacity:1;"
         offset="0"
         id="stop1477" />
      <stop
         style="stop-color:#000000;stop-opacity:0;"
         offset="1"
         id="stop1479" />
    </linearGradient>
    <linearGradient
       gradientTransform="matrix(0.95204142,0,0,0.93804915,385.71531,500.99219)"
       inkscape:collect="always"
       xlink:href="#linearGradient1475"
       id="linearGradient1464"
       x1="21.374998"
       y1="45.8125"
       x2="21.374998"
       y2="43.375"
       gradientUnits="userSpaceOnUse" />
    <linearGradient
       inkscape:collect="always"
       xlink:href="#linearGradient1475"
       id="linearGradient1468"
       gradientUnits="userSpaceOnUse"
       x1="21.374998"
       y1="45.8125"
       x2="21.374998"
       y2="43.375"
       gradientTransform="matrix(0.95204142,0,0,-0.93804915,385.71531,546.01855)" />
    <linearGradient
       y2="15.826643"
       x2="3.844893"
       y1="15.826643"
       x1="1.7677668"
       gradientTransform="matrix(0.95204142,0,0,-0.93804915,385.71531,546.01855)"
       gradientUnits="userSpaceOnUse"
       id="linearGradient963"
       xlink:href="#linearGradient1475"
       inkscape:collect="always" />
    <linearGradient
       y2="15.826643"
       x2="3.844893"
       y1="15.826643"
       x1="1.7677668"
       gradientTransform="matrix(-0.95204142,0,0,-0.93804915,431.4133,546.01855)"
       gradientUnits="userSpaceOnUse"
       id="linearGradient965"
       xlink:href="#linearGradient1475"
       inkscape:collect="always" />
    <linearGradient
       id="linearGradient6390-2"
       inkscape:collect="always">
      <stop
         id="stop6392-3"
         offset="0"
         style="stop-color:#ffffff;stop-opacity:1" />
      <stop
         style="stop-color:#29282b;stop-opacity:1"
         offset="0.16451773"
         id="stop6414-0" />
      <stop
         id="stop6416-5"
         offset="0.26065826"
         style="stop-color:#868c95;stop-opacity:1" />
      <stop
         style="stop-color:#92979f;stop-opacity:1"
         offset="0.39485914"
         id="stop6418-7" />
      <stop
         id="stop6420-9"
         offset="0.54328567"
         style="stop-color:#737881;stop-opacity:1" />
      <stop
         style="stop-color:#70757e;stop-opacity:1"
         offset="0.62599665"
         id="stop6422-4" />
      <stop
         id="stop6424-8"
         offset="0.72117096"
         style="stop-color:#e4e6e8;stop-opacity:1" />
      <stop
         style="stop-color:#ffffff;stop-opacity:1"
         offset="0.79481769"
         id="stop6426-6" />
      <stop
         id="stop6394-2"
         offset="1"
         style="stop-color:#1d191a;stop-opacity:1" />
    </linearGradient>
    <linearGradient
       gradientTransform="translate(-3.2484375e-5,-3.4049219e-5)"
       y2="-495.71448"
       x2="407.66895"
       y1="-555.92798"
       x1="407.66895"
       gradientUnits="userSpaceOnUse"
       id="linearGradient3406"
       xlink:href="#linearGradient6390-2"
       inkscape:collect="always" />
  </defs>
  <sodipodi:namedview
     id="base"
     pagecolor="#ffffff"
     bordercolor="#666666"
     borderopacity="1.0"
     inkscape:pageopacity="0"
     inkscape:pageshadow="2"
     inkscape:zoom="5.7201179"
     inkscape:cx="23.034308"
     inkscape:cy="27.149092"
     inkscape:document-units="px"
     inkscape:current-layer="layer1"
     showgrid="false"
     fit-margin-top="0"
     fit-margin-left="0"
     fit-margin-right="0"
     fit-margin-bottom="0"
     inkscape:window-width="1366"
     inkscape:window-height="718"
     inkscape:window-x="0"
     inkscape:window-y="30"
     inkscape:window-maximized="1" />
  <metadata
     id="metadata5458">
    <rdf:RDF>
      <cc:Work
         rdf:about="">
        <dc:format>image/svg+xml</dc:format>
        <dc:type
           rdf:resource="http://purl.org/dc/dcmitype/StillImage" />
        <dc:title />
      </cc:Work>
    </rdf:RDF>
  </metadata>
  <g
     inkscape:label="Capa 1"
     inkscape:groupmode="layer"
     id="layer1"
     transform="translate(-384.57143,-499.798)">
    <rect
       style="fill:url(#linearGradient3406);fill-opacity:1;stroke:none"
       id="rect2991-1-7-1"
       width="48"
       height="48"
       x="384.57144"
       y="-547.79797"
       ry="1.9445436"
       transform="scale(1,-1)" />
    <rect
       transform="scale(1,-1)"
       ry="1.7014757"
       y="-544.79797"
       x="387.57144"
       height="42"
       width="42"
       id="rect4219"
       style="fill:#000000;fill-opacity:0.23529412;stroke:none" />
    <rect
       style="fill:url(#linearGradient1545);fill-opacity:1;stroke:none"
       id="rect2991-1-7"
       width="40"
       height="40"
       x="388.57144"
       y="-543.79797"
       ry="1.6204531"
       transform="scale(1,-1)" />
    <g
       id="g4251"
       transform="matrix(0.95238098,0,0,0.95238098,19.45577,24.942746)">
      <path
         style="fill:#000000;fill-opacity:0.23529412;stroke:none"
         d="m 412.81755,508.79806 -1.93671,1.93671 c -2.56061,2.56163 -2.36833,2.55812 -4.90426,0.0312 l -1.90548,-1.90548 -0.99959,0.37485 c -0.53742,0.1939 -1.34098,0.50867 -1.78053,0.71846 -0.76582,0.36557 -0.77353,0.40313 -0.65598,0.93712 0.27918,1.26924 0.19284,4.43659 -0.12495,4.9355 -0.4743,0.74462 -1.58965,0.97168 -3.96714,0.74969 l -1.99919,-0.18742 -0.59351,1.28073 c -1.03268,2.29258 -1.11826,1.96506 0.99959,3.87343 2.19337,1.97661 2.38889,2.40598 1.65558,3.686 -0.42379,0.73972 -2.05133,2.27888 -3.12373,2.93631 -0.35859,0.21983 -0.33067,0.40785 0.12495,1.5931 0.9082,2.36248 0.88719,2.32744 2.71765,2.12414 1.92479,-0.21378 3.50126,0.005 4.02961,0.53104 0.21221,0.21146 0.45447,0.76606 0.53104,1.24949 0.14086,0.88857 -0.0413,3.88274 -0.2499,4.09209 -0.24026,0.24115 0.92449,0.87916 2.65517,1.43691 l 0.93712,0.28114 1.40568,-1.5931 c 2.54017,-2.90217 3.10207,-2.92781 5.68519,-0.0625 l 1.5931,1.78053 1.53063,-0.65598 c 0.84857,-0.35108 1.63884,-0.73258 1.74929,-0.84341 0.11046,-0.11088 0.1273,-0.76656 0.0312,-1.46816 -0.27908,-2.0355 -0.14136,-3.73032 0.34361,-4.21703 0.56835,-0.57045 2.05122,-0.78295 4.02962,-0.56228 0.8977,0.10019 1.72843,0.0838 1.843,-0.0312 0.11433,-0.11476 0.49979,-0.87897 0.84341,-1.71806 l 0.62474,-1.53062 -1.74929,-1.59311 c -2.22798,-2.03259 -2.4333,-2.38209 -2.03042,-3.37363 0.24738,-0.60884 0.6141,-1.03971 1.74929,-2.03043 0.79825,-0.69665 1.59435,-1.3364 1.74929,-1.40567 0.19332,-0.0864 0.0804,-0.57164 -0.31238,-1.59311 -0.87602,-2.27771 -0.94899,-2.38009 -1.93671,-2.18661 -0.46745,0.0915 -1.60191,0.14584 -2.53022,0.12495 -1.40814,-0.0315 -1.77427,-0.12025 -2.21785,-0.56227 -0.44355,-0.44202 -0.52304,-0.79598 -0.53104,-2.0929 -0.005,-0.85534 0.024,-2.00336 0.0937,-2.56146 l 0.12495,-1.03084 -1.74929,-0.71845 -1.74924,-0.74967 z m -4.24827,8.40284 c 3.85515,0 6.99716,3.142 6.99716,6.99716 0,3.85514 -3.14201,6.96592 -6.99716,6.96592 -3.85517,0 -6.96593,-3.11078 -6.96593,-6.96592 0,-3.85516 3.11076,-6.99716 6.96593,-6.99716 z"
         id="path4243"
         inkscape:connector-curvature="0" />
      <path
         inkscape:connector-curvature="0"
         id="path4247"
         d="m 412.81755,509.19806 -1.93671,1.93671 c -2.56061,2.56163 -2.36833,2.55812 -4.90426,0.0312 l -1.90548,-1.90548 -0.99959,0.37485 c -0.53742,0.1939 -1.34098,0.50867 -1.78053,0.71846 -0.76582,0.36557 -0.77353,0.40313 -0.65598,0.93712 0.27918,1.26924 0.19284,4.43659 -0.12495,4.9355 -0.4743,0.74462 -1.58965,0.97168 -3.96714,0.74969 l -1.99919,-0.18742 -0.59351,1.28073 c -1.03268,2.29258 -1.11826,1.96506 0.99959,3.87343 2.19337,1.97661 2.38889,2.40598 1.65558,3.686 -0.42379,0.73972 -2.05133,2.27888 -3.12373,2.93631 -0.35859,0.21983 -0.33067,0.40785 0.12495,1.5931 0.9082,2.36248 0.88719,2.32744 2.71765,2.12414 1.92479,-0.21378 3.50126,0.005 4.02961,0.53104 0.21221,0.21146 0.45447,0.76606 0.53104,1.24949 0.14086,0.88857 -0.0413,3.88274 -0.2499,4.09209 -0.24026,0.24115 0.92449,0.87916 2.65517,1.43691 l 0.93712,0.28114 1.40568,-1.5931 c 2.54017,-2.90217 3.10207,-2.92781 5.68519,-0.0625 l 1.5931,1.78053 1.53063,-0.65598 c 0.84857,-0.35108 1.63884,-0.73258 1.74929,-0.84341 0.11046,-0.11088 0.1273,-0.76656 0.0312,-1.46816 -0.27908,-2.0355 -0.14136,-3.73032 0.34361,-4.21703 0.56835,-0.57045 2.05122,-0.78295 4.02962,-0.56228 0.8977,0.10019 1.72843,0.0838 1.843,-0.0312 0.11433,-0.11476 0.49979,-0.87897 0.84341,-1.71806 l 0.62474,-1.53062 -1.74929,-1.59311 c -2.22798,-2.03259 -2.4333,-2.38209 -2.03042,-3.37363 0.24738,-0.60884 0.6141,-1.03971 1.74929,-2.03043 0.79825,-0.69665 1.59435,-1.3364 1.74929,-1.40567 0.19332,-0.0864 0.0804,-0.57164 -0.31238,-1.59311 -0.87602,-2.27771 -0.94899,-2.38009 -1.93671,-2.18661 -0.46745,0.0915 -1.60191,0.14584 -2.53022,0.12495 -1.40814,-0.0315 -1.77427,-0.12025 -2.21785,-0.56227 -0.44355,-0.44202 -0.52304,-0.79598 -0.53104,-2.0929 -0.005,-0.85534 0.024,-2.00336 0.0937,-2.56146 l 0.12495,-1.03084 -1.74929,-0.71845 -1.74924,-0.74967 z m -4.24827,8.40284 c 3.85515,0 6.99716,3.142 6.99716,6.99716 0,3.85514 -3.14201,6.96592 -6.99716,6.96592 -3.85517,0 -6.96593,-3.11078 -6.96593,-6.96592 0,-3.85516 3.11076,-6.99716 6.96593,-6.99716 z"
         style="fill:#000000;fill-opacity:0.11764706;stroke:none" />
      <path
         style="fill:#000000;fill-opacity:0.05882353;stroke:none"
         d="m 412.81755,509.59806 -1.93671,1.93671 c -2.56061,2.56163 -2.36833,2.55812 -4.90426,0.0312 l -1.90548,-1.90548 -0.99959,0.37485 c -0.53742,0.1939 -1.34098,0.50867 -1.78053,0.71846 -0.76582,0.36557 -0.77353,0.40313 -0.65598,0.93712 0.27918,1.26924 0.19284,4.43659 -0.12495,4.9355 -0.4743,0.74462 -1.58965,0.97168 -3.96714,0.74969 l -1.99919,-0.18742 -0.59351,1.28073 c -1.03268,2.29258 -1.11826,1.96506 0.99959,3.87343 2.19337,1.97661 2.38889,2.40598 1.65558,3.686 -0.42379,0.73972 -2.05133,2.27888 -3.12373,2.93631 -0.35859,0.21983 -0.33067,0.40785 0.12495,1.5931 0.9082,2.36248 0.88719,2.32744 2.71765,2.12414 1.92479,-0.21378 3.50126,0.005 4.02961,0.53104 0.21221,0.21146 0.45447,0.76606 0.53104,1.24949 0.14086,0.88857 -0.0413,3.88274 -0.2499,4.09209 -0.24026,0.24115 0.92449,0.87916 2.65517,1.43691 l 0.93712,0.28114 1.40568,-1.5931 c 2.54017,-2.90217 3.10207,-2.92781 5.68519,-0.0625 l 1.5931,1.78053 1.53063,-0.65598 c 0.84857,-0.35108 1.63884,-0.73258 1.74929,-0.84341 0.11046,-0.11088 0.1273,-0.76656 0.0312,-1.46816 -0.27908,-2.0355 -0.14136,-3.73032 0.34361,-4.21703 0.56835,-0.57045 2.05122,-0.78295 4.02962,-0.56228 0.8977,0.10019 1.72843,0.0838 1.843,-0.0312 0.11433,-0.11476 0.49979,-0.87897 0.84341,-1.71806 l 0.62474,-1.53062 -1.74929,-1.59311 c -2.22798,-2.03259 -2.4333,-2.38209 -2.03042,-3.37363 0.24738,-0.60884 0.6141,-1.03971 1.74929,-2.03043 0.79825,-0.69665 1.59435,-1.3364 1.74929,-1.40567 0.19332,-0.0864 0.0804,-0.57164 -0.31238,-1.59311 -0.87602,-2.27771 -0.94899,-2.38009 -1.93671,-2.18661 -0.46745,0.0915 -1.60191,0.14584 -2.53022,0.12495 -1.40814,-0.0315 -1.77427,-0.12025 -2.21785,-0.56227 -0.44355,-0.44202 -0.52304,-0.79598 -0.53104,-2.0929 -0.005,-0.85534 0.024,-2.00336 0.0937,-2.56146 l 0.12495,-1.03084 -1.74929,-0.71845 -1.74924,-0.74967 z m -4.24827,8.40284 c 3.85515,0 6.99716,3.142 6.99716,6.99716 0,3.85514 -3.14201,6.96592 -6.99716,6.96592 -3.85517,0 -6.96593,-3.11078 -6.96593,-6.96592 0,-3.85516 3.11076,-6.99716 6.96593,-6.99716 z"
         id="path4249"
         inkscape:connector-curvature="0" />
    </g>
    <path
       inkscape:connector-curvature="0"
       style="fill:#000000;fill-opacity:1;stroke:none"
       d="m 384.57143,544.79799 0,1.0625 c 0,1.0773 0.86022,1.9375 1.9375,1.9375 l 44.125,0 c 1.07728,0 1.9375,-0.8602 1.9375,-1.9375 l 0,-1.0625 c 0,1.0773 -0.86022,1.9375 -1.9375,1.9375 l -44.125,0 C 385.43165,546.73549 384.57143,545.87529 384.57143,544.79799 Z"
       id="rect846" />
    <path
       inkscape:connector-curvature="0"
       style="fill:#ffffff;fill-opacity:0.5372549;stroke:none"
       d="m 387.10268,500.45429 c -0.91709,0 -1.67115,0.6395 -1.84375,1.5 0.33561,-0.2799 0.77451,-0.4375 1.25,-0.4375 l 44.125,0 c 0.47549,0 0.91439,0.1576 1.25,0.4375 -0.1726,-0.8605 -0.92666,-1.5 -1.84375,-1.5 L 387.10268,500.45429 Z"
       id="path7515" />
    <path
       inkscape:connector-curvature="0"
       style="fill:#000000;fill-opacity:0.39215686;stroke:none"
       d="m 386.50893,499.79799 c -1.07728,0 -1.9375,0.8602 -1.9375,1.9375 l 0,43.0625 c 0,0.7934 0.48002,1.449 1.15625,1.75 -0.30934,-0.3333 -0.5,-0.7824 -0.5,-1.2812 l 0,-42.9375 c 0,-1.0482 0.8269,-1.875 1.875,-1.875 l 42.9375,0 c 1.0481,0 1.875,0.8268 1.875,1.875 l 0,42.9375 c 0,0.4988 -0.19066,0.9479 -0.5,1.2812 0.67623,-0.301 1.15625,-0.9566 1.15625,-1.75 l 0,-43.0625 c 0,-1.0773 -0.86022,-1.9375 -1.9375,-1.9375 L 386.50893,499.79799 Z"
       id="rect4280" />
    <g
       id="g1060"
       transform="matrix(0.95238098,0,0,0.95238098,416.56576,-452.50476)">
      <path
         transform="matrix(0.80825794,0,0,0.80825794,1.0679561,1004.8992)"
         d="m 3.8006989,2.723069 c 0,0.6712136 -0.5441262,1.2153397 -1.2153398,1.2153397 -0.6712136,0 -1.2153398,-0.5441261 -1.2153398,-1.2153397 0,-0.6712137 0.5441262,-1.2153398 1.2153398,-1.2153398 0.6712136,0 1.2153398,0.5441261 1.2153398,1.2153398 z"
         sodipodi:ry="1.2153398"
         sodipodi:rx="1.2153398"
         sodipodi:cy="2.723069"
         sodipodi:cx="2.5853591"
         id="path963"
         style="fill:#20282f;fill-opacity:1;stroke:none"
         sodipodi:type="arc" />
      <path
         sodipodi:type="arc"
         style="fill:#20282f;fill-opacity:1;stroke:none"
         id="path965"
         sodipodi:cx="2.5853591"
         sodipodi:cy="2.723069"
         sodipodi:rx="1.2153398"
         sodipodi:ry="1.2153398"
         d="m 3.8006989,2.723069 c 0,0.6712136 -0.5441262,1.2153397 -1.2153398,1.2153397 -0.6712136,0 -1.2153398,-0.5441261 -1.2153398,-1.2153397 0,-0.6712137 0.5441262,-1.2153398 1.2153398,-1.2153398 0.6712136,0 1.2153398,0.5441261 1.2153398,1.2153398 z"
         transform="matrix(0.80825794,0,0,0.80825794,4.3009878,1004.8992)" />
      <path
         transform="matrix(0.80825794,0,0,0.80825794,7.5340198,1004.8992)"
         d="m 3.8006989,2.723069 c 0,0.6712136 -0.5441262,1.2153397 -1.2153398,1.2153397 -0.6712136,0 -1.2153398,-0.5441261 -1.2153398,-1.2153397 0,-0.6712137 0.5441262,-1.2153398 1.2153398,-1.2153398 0.6712136,0 1.2153398,0.5441261 1.2153398,1.2153398 z"
         sodipodi:ry="1.2153398"
         sodipodi:rx="1.2153398"
         sodipodi:cy="2.723069"
         sodipodi:cx="2.5853591"
         id="path967"
         style="fill:#20282f;fill-opacity:1;stroke:none"
         sodipodi:type="arc" />
      <path
         sodipodi:type="arc"
         style="fill:url(#radialGradient985);fill-opacity:1;stroke:none"
         id="path977"
         sodipodi:cx="2.5853591"
         sodipodi:cy="2.723069"
         sodipodi:rx="1.2153398"
         sodipodi:ry="1.2153398"
         d="m 3.8006989,2.723069 c 0,0.6712136 -0.5441262,1.2153397 -1.2153398,1.2153397 -0.6712136,0 -1.2153398,-0.5441261 -1.2153398,-1.2153397 0,-0.6712137 0.5441262,-1.2153398 1.2153398,-1.2153398 0.6712136,0 1.2153398,0.5441261 1.2153398,1.2153398 z"
         transform="matrix(0.62183888,0,0,0.62183888,1.5499163,1005.4068)" />
      <path
         transform="matrix(0.62183888,0,0,0.62183888,4.782948,1005.4068)"
         d="m 3.8006989,2.723069 c 0,0.6712136 -0.5441262,1.2153397 -1.2153398,1.2153397 -0.6712136,0 -1.2153398,-0.5441261 -1.2153398,-1.2153397 0,-0.6712137 0.5441262,-1.2153398 1.2153398,-1.2153398 0.6712136,0 1.2153398,0.5441261 1.2153398,1.2153398 z"
         sodipodi:ry="1.2153398"
         sodipodi:rx="1.2153398"
         sodipodi:cy="2.723069"
         sodipodi:cx="2.5853591"
         id="path987"
         style="fill:url(#radialGradient989);fill-opacity:1;stroke:none"
         sodipodi:type="arc" />
      <path
         sodipodi:type="arc"
         style="fill:url(#radialGradient993);fill-opacity:1;stroke:none"
         id="path991"
         sodipodi:cx="2.5853591"
         sodipodi:cy="2.723069"
         sodipodi:rx="1.2153398"
         sodipodi:ry="1.2153398"
         d="m 3.8006989,2.723069 c 0,0.6712136 -0.5441262,1.2153397 -1.2153398,1.2153397 -0.6712136,0 -1.2153398,-0.5441261 -1.2153398,-1.2153397 0,-0.6712137 0.5441262,-1.2153398 1.2153398,-1.2153398 0.6712136,0 1.2153398,0.5441261 1.2153398,1.2153398 z"
         transform="matrix(0.62183888,0,0,0.62183888,8.01598,1005.4068)" />
    </g>
    <path
       style="fill:url(#linearGradient1138);fill-opacity:1;stroke:none"
       d="m 412.61535,509.13136 -1.84448,1.84449 c -2.43868,2.43964 -2.25555,2.4363 -4.67073,0.0297 l -1.81474,-1.81474 -0.95199,0.357 c -0.51183,0.18466 -1.27712,0.48445 -1.69574,0.68425 -0.72935,0.34816 -0.7367,0.38393 -0.62474,0.89249 0.26588,1.2088 0.18365,4.22532 -0.119,4.70048 -0.45172,0.70916 -1.51396,0.92541 -3.77823,0.71399 l -1.90399,-0.1785 -0.56525,1.21975 c -0.98351,2.1834 -1.06501,1.87148 0.95199,3.68898 2.08892,1.88248 2.27513,2.29141 1.57674,3.51047 -0.40361,0.7045 -1.95365,2.17036 -2.97498,2.79649 -0.34151,0.20936 -0.31492,0.38843 0.119,1.51724 0.86495,2.24998 0.84494,2.21661 2.58824,2.02299 1.83313,-0.2036 3.33453,0.005 3.83772,0.50575 0.20211,0.20139 0.43283,0.72958 0.50576,1.18999 0.13415,0.84626 -0.0393,3.69785 -0.238,3.89723 -0.22882,0.22967 0.88046,0.83729 2.52873,1.36848 l 0.89249,0.26776 1.33875,-1.51724 c 2.41921,-2.76397 2.95435,-2.78839 5.41446,-0.0595 l 1.51724,1.69574 1.45774,-0.62474 c 0.80817,-0.33437 1.5608,-0.6977 1.666,-0.80325 0.1052,-0.1056 0.12123,-0.73006 0.0297,-1.39825 -0.26579,-1.93857 -0.13463,-3.55269 0.32725,-4.01622 0.54128,-0.54329 1.95354,-0.74567 3.83773,-0.5355 0.85495,0.0954 1.64612,0.0798 1.75524,-0.0297 0.10888,-0.10929 0.47599,-0.83711 0.80325,-1.63625 l 0.59499,-1.45773 -1.66599,-1.51725 c -2.12189,-1.9358 -2.31743,-2.26865 -1.93374,-3.21298 0.2356,-0.57985 0.58486,-0.9902 1.66599,-1.93374 0.76024,-0.66348 1.51843,-1.27276 1.66599,-1.33873 0.18412,-0.0823 0.0766,-0.54442 -0.2975,-1.51725 -0.83431,-2.16925 -0.9038,-2.26675 -1.84449,-2.08249 -0.44519,0.0871 -1.52563,0.1389 -2.40973,0.119 -1.34109,-0.03 -1.68978,-0.11452 -2.11224,-0.53549 -0.42243,-0.42097 -0.49813,-0.75808 -0.50575,-1.99324 -0.005,-0.81461 0.0229,-1.90796 0.0892,-2.43949 l 0.119,-0.98175 -1.66599,-0.68424 -1.66595,-0.71397 z m -4.04597,8.00271 c 3.67157,0 6.66396,2.99238 6.66396,6.66396 0,3.67156 -2.99239,6.63421 -6.66396,6.63421 -3.67159,0 -6.63422,-2.96265 -6.63422,-6.63421 0,-3.67158 2.96263,-6.66396 6.63422,-6.66396 z"
       id="path866"
       inkscape:connector-curvature="0" />
    <path
       style="fill:#000000;fill-opacity:0.04255317;stroke:none"
       d="m 412.61905,509.12538 -1.84524,1.84524 c -2.43967,2.44064 -2.25647,2.43728 -4.67262,0.0298 l -1.81547,-1.81548 -0.56548,0.20834 2.94643,7.58928 c 0.22243,-0.0628 0.42398,-0.10792 0.65476,-0.14881 0.0865,-0.0169 0.18034,-0.0755 0.26786,-0.0893 0.3206,-0.0446 0.64918,-0.0595 0.98214,-0.0595 0.24482,0 0.50551,0.006 0.74405,0.0298 0.24401,0.0258 0.47826,0.0986 0.71428,0.14881 0.0521,0.0109 0.0971,0.0178 0.14881,0.0298 0.18104,0.0423 0.39,0.0929 0.56548,0.14881 0.22677,0.0733 0.43849,0.17291 0.65476,0.26785 0.2174,0.0947 0.41949,0.18243 0.625,0.29762 0.20452,0.11522 0.4335,0.22301 0.625,0.35715 0.0559,0.0391 0.0941,0.0784 0.14881,0.11904 0.32046,0.23817 0.61648,0.51681 0.89286,0.80357 l 2.79762,-2.73809 c -0.0808,-0.057 -0.15912,-0.12963 -0.2381,-0.20833 -0.4226,-0.42115 -0.49833,-0.75838 -0.50595,-1.99405 -0.005,-0.81493 0.0229,-1.90873 0.0893,-2.44048 l 0.11904,-0.98214 -1.66666,-0.68452 -1.66667,-0.71429 z m -17.41072,7.23214 -0.56547,1.22024 c -0.98391,2.1843 -1.06544,1.87225 0.95238,3.69048 2.08977,1.88325 2.27606,2.29234 1.57738,3.5119 -0.40377,0.70478 -1.95445,2.17124 -2.97619,2.79762 -0.23771,0.14573 -0.28085,0.29746 -0.14881,0.74405 l 7.7381,-2.58929 c -0.0472,-0.16576 -0.0823,-0.3369 -0.11905,-0.50595 -0.0108,-0.0526 -0.0499,-0.0958 -0.0595,-0.14881 -0.0266,-0.13601 -0.0409,-0.27809 -0.0595,-0.41667 -0.0337,-0.28062 -0.0595,-0.57321 -0.0595,-0.86309 0,-0.21296 0.0115,-0.41675 0.0298,-0.625 0.003,-0.0324 -0.003,-0.057 0,-0.0893 0.005,-0.0439 0.0245,-0.10517 0.0298,-0.14881 0.0235,-0.19537 0.08,-0.37537 0.11905,-0.56547 0.0278,-0.13663 0.0537,-0.283 0.0893,-0.41667 0.0257,-0.0963 0.0299,-0.17321 0.0595,-0.26786 0.0143,-0.046 0.0443,-0.10318 0.0595,-0.14881 0.0478,-0.14243 0.0924,-0.24862 0.14881,-0.3869 0.11397,-0.28187 0.23924,-0.57073 0.38691,-0.83333 0.17884,-0.31809 0.37135,-0.60755 0.59523,-0.89286 0.0234,-0.0297 0.0654,-0.0598 0.0893,-0.0893 l -4.07738,-2.73809 c -0.51338,0.0286 -1.14005,0.0119 -1.90476,-0.0595 l -1.90477,-0.17857 z m 27.05358,1.16072 -7.41072,2.97619 c 0.12971,0.2465 0.25546,0.51102 0.35715,0.77381 0.009,0.0224 0.0215,0.0371 0.0298,0.0595 0.0881,0.23692 0.14562,0.49605 0.20833,0.74405 0.003,0.01 -0.003,0.02 0,0.0298 0.003,0.01 -0.003,0.0199 0,0.0298 0.0669,0.26686 0.14311,0.49633 0.17857,0.77381 0.0365,0.29095 0.0595,0.59223 0.0595,0.89286 0,0.30065 -0.0232,0.60218 -0.0595,0.89286 -0.0229,0.1825 -0.0529,0.35805 -0.0893,0.53571 -0.0444,0.21614 -0.11475,0.41668 -0.17858,0.625 -0.0596,0.19463 -0.10273,0.40803 -0.17857,0.59524 -0.0757,0.18806 -0.17689,0.35606 -0.26785,0.53571 -0.0426,0.0839 -0.0733,0.15604 -0.11905,0.2381 l 5.56547,3.89881 c 0.70835,0.0553 1.33485,0.0346 1.42858,-0.0595 0.10893,-0.10933 0.47618,-0.83744 0.80357,-1.6369 l 0.59524,-1.45833 -1.66667,-1.51786 c -2.12275,-1.93659 -2.31837,-2.26958 -1.93452,-3.21429 0.23569,-0.58008 0.58509,-0.9906 1.66666,-1.93452 0.76055,-0.66375 1.51905,-1.27329 1.66667,-1.33929 0.18419,-0.0823 0.0766,-0.54463 -0.29762,-1.51785 -0.15001,-0.39003 -0.24706,-0.65609 -0.35714,-0.92262 z m -8.86905,11.48809 c -0.10041,0.0927 -0.22173,0.18109 -0.32738,0.26786 -0.0631,0.0519 -0.11365,0.0991 -0.17857,0.14881 -0.11477,0.0877 -0.23702,0.15733 -0.35715,0.23809 -0.18616,0.12487 -0.3674,0.25016 -0.56547,0.35715 -0.20373,0.11005 -0.40988,0.20759 -0.625,0.29762 -0.12821,0.054 -0.25501,0.10224 -0.38691,0.14881 -0.11454,0.0404 -0.23998,0.0845 -0.35714,0.11904 -0.19244,0.0567 -0.39643,0.10833 -0.59524,0.14881 -0.19002,0.0383 -0.37028,0.0663 -0.56547,0.0893 -0.0435,0.005 -0.0752,0.0255 -0.11905,0.0298 -0.23854,0.0241 -0.49923,0.0298 -0.74405,0.0298 -0.26637,0 -0.54492,-9e-4 -0.80357,-0.0298 -0.1512,-0.0172 -0.29833,-0.0625 -0.44643,-0.0893 -0.10783,-0.019 -0.19154,-0.0358 -0.29762,-0.0595 -0.18326,-0.0418 -0.35813,-0.0932 -0.53571,-0.14881 -0.0404,-0.0126 -0.10871,-0.0165 -0.14881,-0.0298 -0.13075,-0.0435 -0.22985,-0.0981 -0.35715,-0.14881 -0.0742,-0.0293 -0.16519,-0.0576 -0.23809,-0.0893 -0.052,-0.0228 -0.0974,-0.0356 -0.14881,-0.0595 -1.17402,2.47273 -2.14503,4.4679 -3.48214,7.29167 0.40487,0.18073 0.8671,0.38453 1.42857,0.56547 l 0.89286,0.26786 1.33928,-1.51786 c 2.42019,-2.76509 2.95555,-2.78952 5.41667,-0.0595 l 1.51786,1.69643 1.45833,-0.625 c 0.80848,-0.3345 1.56143,-0.69797 1.66667,-0.80357 0.10523,-0.10564 0.12128,-0.73035 0.0298,-1.39881 -0.19942,-1.45452 -0.18961,-2.71169 0.0298,-3.45238 l -2.5,-3.18453 z"
       id="path4004"
       inkscape:connector-curvature="0" />
    <path
       style="fill:#000000;fill-opacity:0.04787233;stroke:none"
       d="m 412.61905,509.12538 -1.84524,1.84524 c -2.43967,2.44064 -2.25647,2.43728 -4.67262,0.0298 l -0.53571,-0.53571 1.75595,6.36904 c 0.40246,-0.0713 0.82694,-0.14881 1.25,-0.14881 0.22803,0 0.43273,0.008 0.65476,0.0298 0.0208,0.002 0.0685,-0.002 0.0893,0 0.0738,0.008 0.13526,0.0197 0.20833,0.0298 0.28093,0.0377 0.56368,0.13863 0.83333,0.20833 0.0617,0.0164 0.11751,0.0118 0.17858,0.0298 0.20934,0.0602 0.39422,0.1299 0.59523,0.20834 0.1992,0.0796 0.43503,0.17106 0.625,0.26785 0.38605,0.19348 0.72924,0.39698 1.07143,0.65477 0.085,0.0643 0.15601,0.14046 0.2381,0.20833 0.0792,0.0654 0.16182,0.13962 0.23809,0.20833 l 2.58929,-3.15476 c -0.10725,-0.30471 -0.14435,-0.70472 -0.14881,-1.42857 -0.005,-0.81493 0.0229,-1.90873 0.0893,-2.44048 l 0.11904,-0.98214 -1.66666,-0.68452 -1.66667,-0.71429 z m -17.41072,7.23214 -0.56547,1.22024 c -0.98391,2.1843 -1.06544,1.87225 0.95238,3.69048 2.08977,1.88325 2.27606,2.29234 1.57738,3.5119 -0.36387,0.63514 -1.64857,1.85952 -2.64881,2.55953 l 7.17262,-1.90477 c -0.0123,-0.0524 -0.0187,-0.12577 -0.0298,-0.17857 -0.0435,-0.20845 -0.0942,-0.41019 -0.11905,-0.625 -0.0312,-0.27058 -0.0595,-0.55424 -0.0595,-0.83333 0,-0.2791 0.0282,-0.56251 0.0595,-0.83333 0.0231,-0.20461 0.0791,-0.39618 0.11905,-0.59524 0.0451,-0.22106 0.0838,-0.44164 0.14881,-0.65476 0.003,-0.01 -0.003,-0.02 0,-0.0298 0.0374,-0.12075 0.0755,-0.23921 0.11905,-0.35714 0.0364,-0.0991 0.0784,-0.20063 0.11904,-0.29762 0.0813,-0.19426 0.16999,-0.3805 0.26786,-0.56547 0.0517,-0.098 0.0927,-0.17262 0.14881,-0.26786 0.0623,-0.10551 0.14075,-0.22552 0.20833,-0.32738 l -6.07143,-3.39286 -1.39881,-0.11905 z m 27.64882,2.82738 -7.67858,2.05358 c 0.0785,0.201 0.14817,0.3859 0.20834,0.59523 0.0183,0.0611 0.013,0.11688 0.0298,0.17858 0.0296,0.11451 0.0951,0.24048 0.11905,0.35714 0.008,0.0327 0.0231,0.0564 0.0298,0.0893 0.0241,0.12631 0.0423,0.25835 0.0595,0.38691 0.0462,0.31172 0.0595,0.62869 0.0595,0.95238 0,0.48965 -0.0539,0.96716 -0.14881,1.42857 -0.01,0.0429 -0.0494,0.0765 -0.0595,0.11905 -0.0593,0.26293 -0.12055,0.52291 -0.20833,0.77381 -0.0831,0.23759 -0.19058,0.45928 -0.29762,0.68452 l 6.875,4.16667 c 0.13704,-0.19011 0.44349,-0.81368 0.74405,-1.54762 l 0.59524,-1.45833 -1.66667,-1.51786 c -2.12275,-1.93659 -2.31837,-2.26958 -1.93452,-3.21429 0.23569,-0.58008 0.58509,-0.9906 1.66666,-1.93452 0.76055,-0.66375 1.51905,-1.27329 1.66667,-1.33929 0.12204,-0.0545 0.0673,-0.34753 -0.0595,-0.77381 z m -10.20834,10.38691 c -0.29567,0.20703 -0.59634,0.37483 -0.92262,0.53571 -0.3192,0.15738 -0.63818,0.30789 -0.98214,0.41667 -0.23517,0.0744 -0.49907,0.1584 -0.74405,0.20833 -0.0731,0.0149 -0.13453,0.0171 -0.20833,0.0298 -0.0334,0.006 -0.0854,0.0243 -0.11905,0.0298 -0.0207,0.003 -0.0389,-0.003 -0.0595,0 -0.34256,0.0506 -0.6852,0.0893 -1.04167,0.0893 -0.22358,0 -0.43654,-0.01 -0.65476,-0.0298 -0.0207,-0.002 -0.0686,0.002 -0.0893,0 -0.0753,-0.008 -0.13372,-0.0199 -0.20833,-0.0298 -0.15866,-0.0235 -0.32114,-0.0552 -0.47619,-0.0893 -0.39653,-0.081 -0.76175,-0.2131 -1.13095,-0.35714 -1.01675,2.51697 -1.84353,4.61344 -3.00596,7.5 0.17989,0.0648 0.33915,0.14499 0.53572,0.20833 l 0.89286,0.26786 1.33928,-1.51786 c 2.42019,-2.76509 2.95555,-2.78952 5.41667,-0.0595 l 1.51786,1.69643 1.45833,-0.625 c 0.80848,-0.3345 1.56143,-0.69797 1.66667,-0.80357 0.10523,-0.10564 0.12128,-0.73035 0.0298,-1.39881 -0.0404,-0.29473 -0.0372,-0.5565 -0.0595,-0.83334 l -3.15476,-5.23809 z"
       id="path4004-0"
       inkscape:connector-curvature="0" />
    <path
       style="fill:#000000;fill-opacity:0.05851063;stroke:none"
       d="m 412.61905,509.12538 -1.84524,1.84524 c -1.96279,1.96357 -2.25481,2.34026 -3.54167,1.16071 l 0.77381,4.58334 c 0.18781,-0.015 0.37378,-0.0298 0.56548,-0.0298 0.3457,0 0.67925,0.0413 1.01191,0.0893 0.0408,0.006 0.0785,-0.007 0.11904,0 0.0637,0.0104 0.14518,0.0475 0.20834,0.0595 0.66396,0.12179 1.28958,0.33181 1.875,0.625 0.0208,0.0106 0.0388,0.019 0.0595,0.0298 0.29834,0.15329 0.59154,0.31186 0.8631,0.50595 l 3.03571,-4.22619 c -2.8e-4,-0.79184 0.0273,-1.7656 0.0893,-2.26191 l 0.11904,-0.98214 -1.66666,-0.68452 -1.66667,-0.71429 z m -17.64881,7.7381 -0.32738,0.71428 c -0.98391,2.1843 -1.06544,1.87225 0.95238,3.69048 2.08977,1.88325 2.27606,2.29234 1.57738,3.5119 -0.17023,0.29714 -0.55954,0.74261 -1.0119,1.19048 l 5.3869,-1.25 c -8.4e-4,-0.0103 8.6e-4,-0.0195 0,-0.0298 -0.0362,-0.29068 -0.0595,-0.59221 -0.0595,-0.89286 0,-0.30064 0.0233,-0.60191 0.0595,-0.89286 0.0184,-0.14027 0.0331,-0.27905 0.0595,-0.41666 0.0177,-0.0953 0.0679,-0.17391 0.0893,-0.26786 0.0256,-0.10824 0.0587,-0.22109 0.0893,-0.32738 0.0816,-0.29555 0.15043,-0.58428 0.26785,-0.8631 0.12001,-0.28503 0.26204,-0.53888 0.41667,-0.80357 l -7.5,-3.36309 z m 26.51786,4.22619 -6.04167,1.04166 c 0.0657,0.26967 0.13946,0.52282 0.17857,0.80357 0.0339,0.2809 0.0595,0.57323 0.0595,0.8631 0,0.22761 -0.007,0.46323 -0.0298,0.68452 -0.002,0.0208 0.002,0.0389 0,0.0595 -0.0228,0.20009 -0.0495,0.40073 -0.0893,0.59524 -0.007,0.0325 -0.0232,0.057 -0.0298,0.0893 -0.0866,0.39428 -0.2123,0.79184 -0.35715,1.16072 l 7.17262,3.57142 c 0.0822,-0.18239 0.15625,-0.33585 0.2381,-0.53571 l 0.59524,-1.45833 -1.66667,-1.51786 c -2.12275,-1.93659 -2.31837,-2.26958 -1.93452,-3.21429 0.23569,-0.58008 0.58509,-0.9906 1.66666,-1.93452 0.0862,-0.0753 0.1528,-0.13518 0.2381,-0.20833 z m -9.70238,9.01785 c -0.14227,0.0716 -0.29891,0.14622 -0.44643,0.20834 -0.0982,0.0412 -0.19715,0.0821 -0.29762,0.11904 -0.0544,0.0201 -0.0939,0.0409 -0.14881,0.0595 -0.11226,0.0383 -0.24241,0.0564 -0.35714,0.0893 -0.17654,0.0506 -0.35393,0.11168 -0.53572,0.14881 -0.0851,0.0173 -0.18176,0.0452 -0.26786,0.0595 -0.10512,0.0175 -0.19107,0.017 -0.29761,0.0298 -0.2809,0.0337 -0.57323,0.0595 -0.8631,0.0595 -0.34569,0 -0.6796,-0.0416 -1.0119,-0.0893 -0.11768,-0.0169 -0.24144,-0.0371 -0.35715,-0.0595 -0.0204,-0.004 -0.0391,0.004 -0.0595,0 -0.23071,-0.047 -0.43289,-0.10968 -0.65476,-0.17857 -0.0416,-0.0129 -0.10747,-0.0161 -0.14881,-0.0298 l -2.58929,7.61905 0.68453,0.20833 1.33928,-1.51786 c 2.42019,-2.76509 2.95555,-2.78952 5.41667,-0.0595 l 1.51786,1.69643 1.45833,-0.625 c 0.27389,-0.11332 0.50593,-0.21857 0.74405,-0.32738 l -3.125,-7.41072 z"
       id="path3893-7"
       inkscape:connector-curvature="0" />
    <path
       style="fill:#000000;fill-opacity:0.06382979;stroke:none"
       d="m 412.61905,509.12538 -1.84524,1.84524 c -1.13139,1.13184 -1.70807,1.73089 -2.23214,1.81547 l 0.14881,3.89881 c 0.0742,8.6e-4 0.16459,-0.004 0.23809,0 0.16044,0.008 0.31854,0.0412 0.47619,0.0595 0.20391,0.0238 0.39676,0.0783 0.59524,0.11905 0.21507,0.0442 0.41736,0.0857 0.625,0.1488 0.0193,0.006 0.0403,-0.006 0.0595,0 0.50388,0.1578 0.98049,0.36549 1.42857,0.625 l 3.77976,-6.72619 0.0595,-0.3869 -1.66666,-0.68452 -1.66667,-0.71429 z m -18.09524,8.75 c -0.82198,1.79395 -0.82752,1.68174 1.07143,3.39286 2.08977,1.88325 2.27606,2.29234 1.57738,3.5119 -0.0312,0.0545 -0.10467,0.1455 -0.14881,0.20834 l 4.49405,-0.74405 c -0.01,-0.14689 -0.0298,-0.29723 -0.0298,-0.44643 0,-0.28987 0.0259,-0.5822 0.0595,-0.8631 0.0247,-0.19914 0.0779,-0.37161 0.11905,-0.56547 0.0147,-0.0722 0.0129,-0.13697 0.0298,-0.20834 0.0158,-0.064 0.0421,-0.14497 0.0595,-0.20833 0.0546,-0.2054 0.10651,-0.39756 0.17858,-0.59524 0.0402,-0.10876 0.074,-0.22118 0.11904,-0.32738 0.0584,-0.13867 0.14156,-0.25286 0.20834,-0.3869 l -7.7381,-2.76786 z m 25.50595,4.6131 -4.43452,0.26785 c 0.051,0.34256 0.0893,0.6852 0.0893,1.04167 0,0.35646 -0.0383,0.69949 -0.0893,1.04167 -0.0509,0.34168 -0.14009,0.65833 -0.2381,0.98214 l 7.47024,2.97619 0.35715,-0.83333 -1.66667,-1.51786 c -2.12275,-1.93659 -2.31837,-2.26958 -1.93452,-3.21429 0.1055,-0.25966 0.23988,-0.48928 0.44642,-0.74404 z m -9.40476,8.06547 c -0.32525,0.0977 -0.66899,0.18747 -1.0119,0.2381 -0.34256,0.0506 -0.6852,0.0893 -1.04167,0.0893 -0.32219,0 -0.64171,-0.018 -0.95238,-0.0595 -0.0882,-0.0126 -0.18071,-0.0438 -0.26786,-0.0595 -0.17331,-0.0297 -0.33722,-0.0473 -0.50595,-0.0893 -0.0427,-0.0108 -0.0766,-0.0481 -0.11905,-0.0595 l -1.99405,7.41071 1.04167,-1.19048 c 2.42019,-2.76509 2.95555,-2.78952 5.41667,-0.0595 l 1.27976,1.42857 -1.84524,-7.64881 z"
       id="path3893-7-5"
       inkscape:connector-curvature="0" />
    <path
       style="fill:#000000;fill-opacity:0.10106381;stroke:none"
       d="m 412.61905,509.12538 -1.84524,1.84524 c -0.29366,0.29378 -0.54704,0.55078 -0.77381,0.77381 l -0.44643,5 c 0.15103,0.021 0.29857,0.0887 0.44643,0.11905 0.20181,0.0415 0.39975,0.0607 0.59524,0.11904 0.0312,0.01 0.0582,0.0202 0.0893,0.0298 0.14146,0.0444 0.27922,0.096 0.41666,0.14881 0.0764,0.0293 0.163,0.0575 0.2381,0.0893 0.0829,0.0351 0.15703,0.081 0.23809,0.11905 l 3.30357,-7.29167 -0.59523,-0.23809 -1.66667,-0.71429 z m -18.60119,10 c -0.14148,0.66112 0.25762,0.95364 1.57738,2.14286 1.58568,1.42898 2.06599,2.00852 1.90476,2.73809 l 3.9881,-0.35714 c 0.005,-0.19602 0.009,-0.37327 0.0298,-0.56548 0.002,-0.0209 -0.002,-0.0387 0,-0.0595 0.0247,-0.21295 0.10556,-0.4477 0.14881,-0.65476 0.0734,-0.36051 0.17192,-0.70314 0.29762,-1.04167 0.0184,-0.0493 0.0103,-0.1 0.0298,-0.14881 l -7.97619,-2.05357 z m 21.6369,4.28571 c 0.007,0.12632 0.0298,0.25896 0.0298,0.38691 0,0.47887 -0.058,0.94685 -0.14881,1.39881 l 6.90476,2.08333 -0.92262,-0.83333 c -1.85741,-1.69452 -2.24426,-2.16381 -2.05357,-2.88691 l -3.80953,-0.14881 z m -8.39285,7.3512 -1.22024,5.77381 c 1.67142,-1.86967 2.43645,-2.25678 3.75,-1.16072 l -0.35714,-4.55357 c -0.2809,0.0337 -0.57323,0.0595 -0.8631,0.0595 -0.22357,0 -0.43654,-0.01 -0.65476,-0.0298 -0.0212,-0.002 -0.0681,0.002 -0.0893,0 -0.0982,-0.01 -0.1709,-0.0457 -0.26785,-0.0595 -0.0956,-0.0144 -0.20329,-0.0123 -0.29762,-0.0298 z"
       id="path3893"
       inkscape:connector-curvature="0" />
    <path
       style="fill:#000000;fill-opacity:0.0851064;stroke:none"
       d="m 412.61905,509.12538 -1.07143,1.07143 -1.33928,6.72619 c 0.26897,0.0643 0.54733,0.11429 0.80357,0.20833 l 2.64881,-7.55952 -1.04167,-0.44643 z m -17.7381,11.4881 c 0.21837,0.1988 0.39638,0.3683 0.71429,0.65476 0.88344,0.79613 1.4164,1.31411 1.69643,1.75595 l 4.25595,-0.0893 c 0.0504,-0.42058 0.1474,-0.82536 0.26786,-1.22023 l -6.93453,-1.10119 z m 20.80358,3.18452 c 0,0.30065 -0.0232,0.60218 -0.0595,0.89286 l 5.35714,1.25 c -0.83877,-0.7867 -1.3364,-1.30101 -1.48809,-1.69643 l -3.80952,-0.44643 z m -8.00596,7.02381 -0.625,4.70238 c 0.71557,-0.65007 1.26938,-0.89446 1.875,-0.68452 l -0.0298,-3.95834 c -0.10512,0.005 -0.22113,0 -0.32738,0 -0.30068,0 -0.60217,-0.0233 -0.89286,-0.0595 z"
       id="path3893-9"
       inkscape:connector-curvature="0" />
    <path
       inkscape:connector-curvature="0"
       style="fill:#1a1a1a;fill-opacity:0.39215686;stroke:none"
       d="m 408.57142,515.22657 c -4.73389,0 -8.57144,3.83755 -8.57144,8.57144 0,4.73386 3.83755,8.57142 8.57144,8.57142 4.73388,0 8.57145,-3.83756 8.57145,-8.57142 0,-4.7339 -3.83757,-8.57144 -8.57145,-8.57144 z m 0,2.37475 c 3.42232,0 6.19667,2.77436 6.19667,6.19669 0,3.4223 -2.77434,6.19666 -6.19667,6.19666 -3.42234,0 -6.19667,-2.77436 -6.19667,-6.19666 0,-3.42234 2.77433,-6.19669 6.19667,-6.19669 z"
       id="path851" />
    <g
       id="layer2"
       style="display:none"
       transform="translate(41.18487,476.18478)">
      <rect
         width="86"
         height="85"
         rx="6"
         ry="6"
         x="5"
         y="7"
         id="rect3745"
         style="opacity:0.9;fill:url(#ButtonShadow);fill-opacity:1;fill-rule:nonzero;stroke:none;filter:url(#filter3174)" />
    </g>
    <g
       id="layer4"
       style="display:none"
       transform="translate(41.18487,476.18478)">
      <rect
         width="66"
         height="66"
         rx="12"
         ry="12"
         x="15"
         y="15"
         clip-path="url(#clipPath3613)"
         id="rect3171"
         style="opacity:0.15;fill:url(#linearGradient2885);fill-opacity:1;fill-rule:nonzero;stroke:#ffffff;stroke-width:0.5;stroke-linecap:round;stroke-linejoin:miter;stroke-miterlimit:4;stroke-opacity:1;stroke-dasharray:none;stroke-dashoffset:0;filter:url(#filter3794)" />
    </g>
    <path
       style="fill:url(#linearGradient963);fill-opacity:1;stroke:none"
       d="m 390.19226,503.798 c -0.89741,0 -1.60657,0.69875 -1.60657,1.58296 l 0,17.17802 0,1.8761 0,17.17802 c 0,0.88421 0.70916,1.58297 1.60657,1.58297 l 0.68428,0 c -0.89742,0 -1.60657,-0.69876 -1.60657,-1.58297 l 0,-17.17802 0,-1.8761 0,-17.17802 c 0,-0.88421 0.70915,-1.58296 1.60657,-1.58296 l -0.68428,0 z"
       id="path1470"
       inkscape:connector-curvature="0" />
    <path
       style="fill:url(#linearGradient965);fill-opacity:1;stroke:none"
       d="m 426.28058,503.798 c 0.89741,0 1.60657,0.69875 1.60657,1.58296 l 0,17.17802 0,1.8761 0,17.17802 c 0,0.88421 -0.70916,1.58297 -1.60657,1.58297 l 0.68428,0 c 0.89742,0 1.60657,-0.69876 1.60657,-1.58297 l 0,-17.17802 0,-1.8761 0,-17.17802 c 0,-0.88421 -0.70915,-1.58296 -1.60657,-1.58296 l -0.68428,0 z"
       id="path1483"
       inkscape:connector-curvature="0" />
    <path
       inkscape:connector-curvature="0"
       style="fill:url(#linearGradient1464);fill-opacity:1;stroke:none"
       d="m 388.57143,540.88864 0,0.73281 c 0,0.8842 0.70915,1.58295 1.60657,1.58295 l 36.7726,0 c 0.89741,0 1.60657,-0.69875 1.60657,-1.58295 l 0,-0.73281 c 0,0.88421 -0.70916,1.58296 -1.60657,1.58296 l -36.7726,0 c -0.89742,0 -1.60657,-0.69875 -1.60657,-1.58296 z"
       id="path1453" />
    <path
       id="path1466"
       d="m 388.57143,506.1221 0,-0.73281 c 0,-0.88429 0.70915,-1.58295 1.60657,-1.58295 l 36.7726,0 c 0.89741,0 1.60657,0.69866 1.60657,1.58295 l 0,0.73281 c 0,-0.88421 -0.70916,-1.58296 -1.60657,-1.58296 l -36.7726,0 c -0.89742,0 -1.60657,0.69875 -1.60657,1.58296 z"
       style="fill:url(#linearGradient1468);fill-opacity:1;stroke:none"
       inkscape:connector-curvature="0" />
    <path
       style="fill:#ffffff;fill-opacity:0.23474181;stroke:none"
       d="m 388.57143,541.62876 0,0.58628 c 0,0.8843 0.70915,1.58296 1.60657,1.58296 l 36.7726,0 c 0.89741,0 1.60657,-0.69866 1.60657,-1.58296 l 0,-0.58628 c 0,0.8842 -0.70916,1.58296 -1.60657,1.58296 l -36.7726,0 c -0.89742,0 -1.60657,-0.69876 -1.60657,-1.58296 z"
       id="path1487"
       inkscape:connector-curvature="0" />
    <path
       style="fill:#20282f;fill-opacity:0.31372549;stroke:none"
       d="m 415.8631,510.49443 -0.0298,0.26785 c -0.0524,0.41932 -0.082,1.16908 -0.0893,1.875 0.0146,-0.4416 0.0561,-0.86519 0.0893,-1.13095 l 0.11904,-0.98214 -0.0893,-0.0298 z m -14.82143,0.0893 c -0.10284,0.12223 -0.09,0.26199 -0.0298,0.53572 0.0665,0.3022 0.12385,0.73026 0.14881,1.19047 -0.006,-0.66035 -0.0398,-1.26606 -0.11905,-1.72619 z m 7.52976,5.77381 c -3.67159,0 -6.6369,2.99509 -6.6369,6.66667 0,0.12989 0.0224,0.25889 0.0298,0.3869 0.19948,-3.49254 3.06544,-6.27976 6.60714,-6.27976 3.54168,0 6.43546,2.78722 6.63691,6.27976 0.007,-0.12801 0.0298,-0.25701 0.0298,-0.3869 0,-3.67158 -2.9951,-6.66667 -6.66667,-6.66667 z m -14.49405,2.61905 c -0.24134,0.78073 0.0992,1.01328 1.51786,2.29167 1.1315,1.01968 1.69822,1.59517 1.875,2.11309 0.24669,-0.79185 -0.20015,-1.37757 -1.875,-2.8869 -0.86862,-0.78271 -1.33205,-1.15563 -1.51786,-1.51786 z m 28.77977,0.2381 c -0.19021,0.1068 -0.87944,0.67444 -1.60715,1.30952 -1.08113,0.94354 -1.43106,1.35468 -1.66666,1.93452 -0.15637,0.38485 -0.2165,0.68029 -0.0893,1.01191 0.0243,-0.0777 0.0543,-0.15194 0.0893,-0.2381 0.2356,-0.57984 0.58553,-0.99098 1.66666,-1.93452 0.76024,-0.66348 1.51911,-1.27332 1.66667,-1.33929 0.11974,-0.0535 0.0605,-0.3332 -0.0595,-0.74404 z m -28.75001,8.45238 c -0.21776,0.18996 -0.17135,0.44086 0.20834,1.42857 0.86495,2.24998 0.84599,2.21743 2.58928,2.02381 1.83314,-0.2036 3.3361,0.005 3.83929,0.50595 0.2021,0.20139 0.43303,0.73007 0.50595,1.19048 0.0216,0.13636 0.0229,0.37422 0.0298,0.59523 0.0132,-0.55539 0.015,-1.08688 -0.0298,-1.36904 -0.0729,-0.46041 -0.30385,-0.98909 -0.50595,-1.19048 -0.50319,-0.50099 -2.00615,-0.70955 -3.83929,-0.50595 -1.74329,0.19362 -1.72433,0.22617 -2.58928,-2.02381 -0.10281,-0.26745 -0.15074,-0.48091 -0.20834,-0.65476 z m 28.83929,0.0893 -0.35714,0.89286 c -0.32726,0.79913 -0.69469,1.52761 -0.80357,1.6369 -0.10912,0.10953 -0.901,0.12519 -1.75596,0.0298 -1.88419,-0.21017 -3.298,-0.008 -3.83928,0.53571 -0.306,0.30709 -0.45,1.15528 -0.44643,2.23214 0.0573,-0.70379 0.21549,-1.22656 0.44643,-1.45833 0.54128,-0.54329 1.95509,-0.74588 3.83928,-0.53571 0.85496,0.0954 1.64684,0.0798 1.75596,-0.0298 0.10888,-0.10929 0.47631,-0.83777 0.80357,-1.6369 l 0.59524,-1.45833 -0.2381,-0.20834 z m -14.49405,6.22024 c -0.7437,0.0105 -1.46896,0.70135 -2.67857,2.08333 l -1.33928,1.51786 -0.89286,-0.26786 c -1.17992,-0.38025 -2.07634,-0.77952 -2.41072,-1.07142 -0.038,0.24755 -0.0757,0.43269 -0.11904,0.47619 -0.22882,0.22966 0.88149,0.83785 2.52976,1.36904 l 0.89286,0.26786 1.33928,-1.51786 c 2.41921,-2.76397 2.95655,-2.78839 5.41667,-0.0595 l 1.51786,1.69643 1.45833,-0.625 c 0.80816,-0.33436 1.56147,-0.69802 1.66667,-0.80357 0.0771,-0.0774 0.0855,-0.47443 0.0595,-0.92262 -0.0149,0.0838 -0.0332,0.12241 -0.0595,0.14881 -0.1052,0.10555 -0.85851,0.46921 -1.66667,0.80357 l -1.45833,0.625 -1.51786,-1.69643 c -1.23006,-1.36443 -1.9944,-2.0343 -2.7381,-2.02381 z"
       id="path4256"
       inkscape:connector-curvature="0" />
    <path
       style="fill:#ffffff;fill-opacity:0.23529412;stroke:none"
       d="m 412.61905,509.13136 -1.84524,1.84524 c -2.43867,2.43965 -2.25745,2.43635 -4.67262,0.0297 l -1.81547,-1.81547 -0.95239,0.35714 c -0.51182,0.18467 -1.2778,0.48472 -1.69642,0.68452 -0.69429,0.33143 -0.71933,0.39078 -0.625,0.83334 0.0595,-0.1393 0.21216,-0.24936 0.625,-0.44643 0.41862,-0.1998 1.1846,-0.49986 1.69642,-0.68453 l 0.95239,-0.35714 1.81547,1.81548 c 2.41517,2.40659 2.23395,2.40988 4.67262,-0.0297 l 1.84524,-1.84523 1.66667,0.71428 1.60714,0.65476 0.0595,-0.35714 -1.66666,-0.68452 -1.66667,-0.71429 z m -11.45833,4.6131 c -0.0252,0.96462 -0.11654,1.84576 -0.26786,2.08333 -0.45172,0.70916 -1.51549,0.9257 -3.77976,0.71429 l -1.90477,-0.17858 -0.56547,1.22024 c -0.49175,1.09171 -0.76357,1.57192 -0.65476,1.99405 0.0594,-0.35743 0.29459,-0.80754 0.65476,-1.60714 l 0.56547,-1.22024 1.90477,0.17857 c 2.26427,0.21142 3.32804,-0.005 3.77976,-0.71429 0.17182,-0.26975 0.26148,-1.3581 0.26786,-2.47023 z m 14.61309,0.98214 c 0.0254,0.8973 0.10665,1.23887 0.47619,1.60714 0.42246,0.42097 0.77201,0.50572 2.1131,0.53572 0.8841,0.0199 1.96552,-0.0319 2.41071,-0.11905 0.94069,-0.18427 1.01093,-0.0859 1.84524,2.08333 0.18247,0.47453 0.30442,0.82474 0.35714,1.07143 0.0886,-0.16444 -0.0354,-0.6217 -0.35714,-1.45833 -0.83431,-2.16925 -0.90455,-2.2676 -1.84524,-2.08334 -0.44519,0.0871 -1.52661,0.13895 -2.41071,0.11905 -1.34109,-0.03 -1.69064,-0.11474 -2.1131,-0.53571 -0.31682,-0.31574 -0.43188,-0.58461 -0.47619,-1.22024 z m -13.83928,9.25595 c -0.002,0.0692 0,0.13863 0,0.20834 0,3.67156 2.96531,6.6369 6.6369,6.6369 3.67157,0 6.66667,-2.96534 6.66667,-6.6369 0,-0.0697 0.002,-0.13914 0,-0.20834 -0.0952,3.58853 -3.05485,6.45834 -6.66667,6.45834 -3.61184,0 -6.54264,-2.86981 -6.6369,-6.45834 z m -4.40477,0.0297 c -0.0511,0.23217 -0.18839,0.47925 -0.35714,0.77381 -0.40361,0.70449 -1.95486,2.17149 -2.97619,2.79761 -0.20781,0.1274 -0.25219,0.26948 -0.17857,0.59524 0.0348,-0.0851 0.0751,-0.1449 0.17857,-0.20833 1.02133,-0.62612 2.57258,-2.09312 2.97619,-2.79762 0.2619,-0.4571 0.39773,-0.81094 0.35714,-1.16067 z m 21.90477,0.0297 c -0.13246,0.67224 0.30829,1.17825 2.08333,2.79762 l 1.54762,1.39881 0.11905,-0.26786 -1.66667,-1.51786 c -1.4333,-1.3075 -1.99273,-1.88329 -2.08333,-2.41061 z m -18.125,9.94048 c -0.0165,1.14393 -0.15784,2.59781 -0.29762,2.73809 -0.053,0.0532 -0.0211,0.12023 0.0595,0.20834 0.12943,-0.49074 0.25001,-1.93558 0.2381,-2.94634 z m 14.43452,0.26785 c 0.003,0.5435 0.0305,1.13953 0.11905,1.78572 0.035,0.25574 0.0252,0.46823 0.0297,0.68452 0.0243,-0.26733 0.0286,-0.64559 -0.0297,-1.07143 -0.0664,-0.48455 -0.10118,-0.96753 -0.11905,-1.39871 z"
       id="path4261"
       inkscape:connector-curvature="0" />
    <path
       style="fill:#000000;fill-opacity:0.31372549;stroke:none"
       d="m 408.57143,516.83371 c -3.42234,0 -6.19048,2.76814 -6.19048,6.19048 0,0.12657 0.0223,0.26221 0.0298,0.3869 0.20358,-3.23841 2.87096,-5.80357 6.16071,-5.80357 3.28973,0 5.95713,2.56517 6.16071,5.80357 0.007,-0.12469 0.0298,-0.26033 0.0298,-0.3869 0,-3.42233 -2.76816,-6.19048 -6.19048,-6.19048 z M 400,523.41109 c -0.006,0.13101 0,0.25444 0,0.38691 0,4.73386 3.83754,8.57143 8.57143,8.57143 4.73388,0 8.57143,-3.83757 8.57143,-8.57143 0,-0.13247 0.006,-0.2559 0,-0.38691 -0.19993,4.55652 -3.96562,8.18453 -8.57143,8.18453 -4.60582,0 -8.3715,-3.62801 -8.57143,-8.18453 z"
       id="path4266"
       inkscape:connector-curvature="0" />
    <path
       style="fill:#ffffff;fill-opacity:0.23529412;stroke:none"
       d="m 408.57143,515.22657 c -4.5603,0 -8.27436,3.57231 -8.54167,8.06548 0.43895,-4.32221 4.10365,-7.67857 8.54167,-7.67857 4.43801,0 8.10272,3.35635 8.54167,7.67857 -0.26731,-4.49318 -3.98138,-8.06548 -8.54167,-8.06548 z m -6.19048,8.75 c -0.002,0.0706 0,0.1372 0,0.20833 0,3.42231 2.76814,6.19048 6.19048,6.19048 3.42233,0 6.19048,-2.76817 6.19048,-6.19048 0,-0.0711 0.002,-0.13777 0,-0.20833 -0.0964,3.33799 -2.82912,6.01191 -6.19048,6.01191 -3.36137,0 -6.09404,-2.67392 -6.19048,-6.01191 z"
       id="path4271"
       inkscape:connector-curvature="0" />
  </g>
</svg>
