<?xml version="1.0" encoding="UTF-8" standalone="no"?>
<!-- Created with Inkscape (http://www.inkscape.org/) -->

<svg
   xmlns:dc="http://purl.org/dc/elements/1.1/"
   xmlns:cc="http://creativecommons.org/ns#"
   xmlns:rdf="http://www.w3.org/1999/02/22-rdf-syntax-ns#"
   xmlns:svg="http://www.w3.org/2000/svg"
   xmlns="http://www.w3.org/2000/svg"
   xmlns:xlink="http://www.w3.org/1999/xlink"
   xmlns:sodipodi="http://sodipodi.sourceforge.net/DTD/sodipodi-0.dtd"
   xmlns:inkscape="http://www.inkscape.org/namespaces/inkscape"
   width="48"
   height="48"
   id="svg5453"
   version="1.1"
   inkscape:version="0.48+devel r12503"
   sodipodi:docname="unsettings.svg"
   inkscape:export-filename="/home/uri/workspace/NitruxforAndroid/res/drawable-xhdpi/cwm.png"
   inkscape:export-xdpi="180"
   inkscape:export-ydpi="180">
  <defs
     id="defs5455">
    <linearGradient
       inkscape:collect="always"
       id="linearGradient1443">
      <stop
         style="stop-color:#aa9ad5;stop-opacity:1"
         offset="0"
         id="stop1445" />
      <stop
         style="stop-color:#f2edf9;stop-opacity:1"
         offset="1"
         id="stop1447" />
    </linearGradient>
    <linearGradient
       inkscape:collect="always"
       id="linearGradient1435">
      <stop
         style="stop-color:#6135b4;stop-opacity:1"
         offset="0"
         id="stop1437" />
      <stop
         style="stop-color:#8e4fcf;stop-opacity:1"
         offset="1"
         id="stop1439" />
    </linearGradient>
    <linearGradient
       inkscape:collect="always"
       xlink:href="#linearGradient1435"
       id="linearGradient1441"
       x1="407.54944"
       y1="-547.81915"
       x2="407.54944"
       y2="-499.79965"
       gradientUnits="userSpaceOnUse" />
    <linearGradient
       inkscape:collect="always"
       xlink:href="#linearGradient1443"
       id="linearGradient4164"
       gradientUnits="userSpaceOnUse"
       gradientTransform="matrix(0.47098333,0,0,-0.47098333,412.39815,514.12162)"
       x1="-3.9152865"
       y1="-53.170017"
       x2="-3.9152865"
       y2="12.152496" />
  </defs>
  <sodipodi:namedview
     id="base"
     pagecolor="#ffffff"
     bordercolor="#666666"
     borderopacity="1.0"
     inkscape:pageopacity="0"
     inkscape:pageshadow="2"
     inkscape:zoom="8.8616403"
     inkscape:cx="9.5696611"
     inkscape:cy="26.2711"
     inkscape:document-units="px"
     inkscape:current-layer="layer1"
     showgrid="false"
     fit-margin-top="0"
     fit-margin-left="0"
     fit-margin-right="0"
     fit-margin-bottom="0"
     inkscape:window-width="1366"
     inkscape:window-height="718"
     inkscape:window-x="0"
     inkscape:window-y="30"
     inkscape:window-maximized="1" />
  <metadata
     id="metadata5458">
    <rdf:RDF>
      <cc:Work
         rdf:about="">
        <dc:format>image/svg+xml</dc:format>
        <dc:type
           rdf:resource="http://purl.org/dc/dcmitype/StillImage" />
        <dc:title />
      </cc:Work>
    </rdf:RDF>
  </metadata>
  <g
     inkscape:label="Capa 1"
     inkscape:groupmode="layer"
     id="layer1"
     transform="translate(-384.57143,-499.798)">
    <rect
       style="fill:url(#linearGradient1441);fill-opacity:1;stroke:none"
       id="rect2991-1-7"
       width="48"
       height="48"
       x="384.57144"
       y="-547.79797"
       ry="1.9445436"
       transform="scale(1,-1)" />
    <path
       inkscape:connector-curvature="0"
       style="fill:#000000;fill-opacity:0.05882353;fill-rule:nonzero;stroke:none"
       d="m 406.45201,509.598 -1.12808,3.82863 c -0.88815,0.24829 -1.73729,0.59103 -2.52963,1.02553 l -3.55517,-1.91432 -3.00821,3.00822 1.91432,3.48679 c -0.45185,0.79259 -0.83045,1.63742 -1.0939,2.52963 l -3.897,1.16227 0,4.23884 3.82863,1.12808 c 0.25256,0.93974 0.59986,1.83256 1.05972,2.66637 l -1.91432,3.58935 2.97403,2.97403 3.52097,-1.91432 c 0.83229,0.47448 1.725,0.86208 2.66638,1.12808 l 1.16226,3.86282 4.23884,0 1.16227,-3.86282 c 0.94135,-0.266 1.83408,-0.6536 2.66637,-1.12808 l 3.52098,1.91432 2.97403,-3.00821 -1.91432,-3.55517 c 0.45987,-0.83381 0.80713,-1.72663 1.05971,-2.66637 l 3.82863,-1.12808 0,-4.23884 -3.897,-1.16227 c -0.26346,-0.89221 -0.64203,-1.73704 -1.09389,-2.52963 l 1.91431,-3.48679 -3.00821,-3.00822 -3.55516,1.91432 c -0.79234,-0.4345 -1.64152,-0.77724 -2.52964,-1.02553 L 410.69085,509.598 406.45201,509.598 z m 2.25616,9.50322 c 3.1796,0 5.74295,2.56335 5.74295,5.74295 0,3.17915 -2.56335,5.77714 -5.74295,5.77714 -3.17914,0 -5.77714,-2.59799 -5.77714,-5.77714 C 402.93103,521.66457 405.52903,519.10122 408.70817,519.10122 Z"
       id="path4188" />
    <path
       id="path4186"
       d="m 406.45201,509.198 -1.12808,3.82863 c -0.88815,0.24829 -1.73729,0.59103 -2.52963,1.02553 l -3.55517,-1.91432 -3.00821,3.00822 1.91432,3.48679 c -0.45185,0.79259 -0.83045,1.63742 -1.0939,2.52963 l -3.897,1.16227 0,4.23884 3.82863,1.12808 c 0.25256,0.93974 0.59986,1.83256 1.05972,2.66637 l -1.91432,3.58935 2.97403,2.97403 3.52097,-1.91432 c 0.83229,0.47448 1.725,0.86208 2.66638,1.12808 l 1.16226,3.86282 4.23884,0 1.16227,-3.86282 c 0.94135,-0.266 1.83408,-0.6536 2.66637,-1.12808 l 3.52098,1.91432 2.97403,-3.00821 -1.91432,-3.55517 c 0.45987,-0.83381 0.80713,-1.72663 1.05971,-2.66637 l 3.82863,-1.12808 0,-4.23884 -3.897,-1.16227 c -0.26346,-0.89221 -0.64203,-1.73704 -1.09389,-2.52963 l 1.91431,-3.48679 -3.00821,-3.00822 -3.55516,1.91432 c -0.79234,-0.4345 -1.64152,-0.77724 -2.52964,-1.02553 L 410.69085,509.198 406.45201,509.198 z m 2.25616,9.50322 c 3.1796,0 5.74295,2.56335 5.74295,5.74295 0,3.17915 -2.56335,5.77714 -5.74295,5.77714 -3.17914,0 -5.77714,-2.59799 -5.77714,-5.77714 C 402.93103,521.26457 405.52903,518.70122 408.70817,518.70122 Z"
       style="fill:#000000;fill-opacity:0.11764706;fill-rule:nonzero;stroke:none"
       inkscape:connector-curvature="0" />
    <path
       inkscape:connector-curvature="0"
       style="fill:#000000;fill-opacity:0.23529412;fill-rule:nonzero;stroke:none"
       d="m 406.45201,508.798 -1.12808,3.82863 c -0.88815,0.24829 -1.73729,0.59103 -2.52963,1.02553 l -3.55517,-1.91432 -3.00821,3.00822 1.91432,3.48679 c -0.45185,0.79259 -0.83045,1.63742 -1.0939,2.52963 l -3.897,1.16227 0,4.23884 3.82863,1.12808 c 0.25256,0.93974 0.59986,1.83256 1.05972,2.66637 l -1.91432,3.58935 2.97403,2.97403 3.52097,-1.91432 c 0.83229,0.47448 1.725,0.86208 2.66638,1.12808 l 1.16226,3.86282 4.23884,0 1.16227,-3.86282 c 0.94135,-0.266 1.83408,-0.6536 2.66637,-1.12808 l 3.52098,1.91432 2.97403,-3.00821 -1.91432,-3.55517 c 0.45987,-0.83381 0.80713,-1.72663 1.05971,-2.66637 l 3.82863,-1.12808 0,-4.23884 -3.897,-1.16227 c -0.26346,-0.89221 -0.64203,-1.73704 -1.09389,-2.52963 l 1.91431,-3.48679 -3.00821,-3.00822 -3.55516,1.91432 c -0.79234,-0.4345 -1.64152,-0.77724 -2.52964,-1.02553 L 410.69085,508.798 406.45201,508.798 z m 2.25616,9.50322 c 3.1796,0 5.74295,2.56335 5.74295,5.74295 0,3.17915 -2.56335,5.77714 -5.74295,5.77714 -3.17914,0 -5.77714,-2.59799 -5.77714,-5.77714 C 402.93103,520.86457 405.52903,518.30122 408.70817,518.30122 Z"
       id="path4184" />
    <path
       inkscape:connector-curvature="0"
       style="fill:#000000;fill-opacity:1;stroke:none"
       d="m 384.57143,544.79799 0,1.0625 c 0,1.0773 0.86022,1.9375 1.9375,1.9375 l 44.125,0 c 1.07728,0 1.9375,-0.8602 1.9375,-1.9375 l 0,-1.0625 c 0,1.0773 -0.86022,1.9375 -1.9375,1.9375 l -44.125,0 C 385.43165,546.73549 384.57143,545.87529 384.57143,544.79799 Z"
       id="rect846" />
    <path
       inkscape:connector-curvature="0"
       style="fill:#ffffff;fill-opacity:0.5372549;stroke:none"
       d="m 387.10268,500.45429 c -0.91709,0 -1.67115,0.6395 -1.84375,1.5 0.33561,-0.2799 0.77451,-0.4375 1.25,-0.4375 l 44.125,0 c 0.47549,0 0.91439,0.1576 1.25,0.4375 -0.1726,-0.8605 -0.92666,-1.5 -1.84375,-1.5 L 387.10268,500.45429 Z"
       id="path7515" />
    <path
       inkscape:connector-curvature="0"
       style="fill:#000000;fill-opacity:0.39215686;stroke:none"
       d="m 386.50893,499.79799 c -1.07728,0 -1.9375,0.8602 -1.9375,1.9375 l 0,43.0625 c 0,0.7934 0.48002,1.449 1.15625,1.75 -0.30934,-0.3333 -0.5,-0.7824 -0.5,-1.2812 l 0,-42.9375 c 0,-1.0482 0.8269,-1.875 1.875,-1.875 l 42.9375,0 c 1.0481,0 1.875,0.8268 1.875,1.875 l 0,42.9375 c 0,0.4988 -0.19066,0.9479 -0.5,1.2812 0.67623,-0.301 1.15625,-0.9566 1.15625,-1.75 l 0,-43.0625 c 0,-1.0773 -0.86022,-1.9375 -1.9375,-1.9375 L 386.50893,499.79799 Z"
       id="rect4280" />
    <path
       inkscape:connector-curvature="0"
       style="fill:none;stroke:none"
       d="m 406.63393,509.7355 -1.03125,3.5 c -0.81191,0.22697 -1.58817,0.54029 -2.3125,0.9375 l -3.25,-1.75 -2.75,2.75 1.75,3.1875 c -0.41306,0.72456 -0.75917,1.49687 -1,2.3125 l -3.5625,1.0625 0,3.875 3.5,1.03125 c 0.23088,0.85907 0.54837,1.67526 0.96875,2.4375 l -1.75,3.28125 2.71875,2.71875 3.21875,-1.75 c 0.76085,0.43375 1.57693,0.78808 2.4375,1.03125 l 1.0625,3.53125 3.875,0 1.0625,-3.53125 c 0.86055,-0.24317 1.67665,-0.5975 2.4375,-1.03125 l 3.21875,1.75 2.71875,-2.75 -1.75,-3.25 c 0.4204,-0.76224 0.73785,-1.57843 0.96875,-2.4375 l 3.5,-1.03125 0,-3.875 -3.5625,-1.0625 c -0.24085,-0.81563 -0.58692,-1.58794 -1,-2.3125 l 1.75,-3.1875 -2.75,-2.75 -3.25,1.75 c -0.72433,-0.39721 -1.50062,-0.71053 -2.3125,-0.9375 l -1.03125,-3.5 L 406.63393,509.7355 z m 2.0625,8.6875 c 2.90668,0 5.25,2.34332 5.25,5.25 0,2.90626 -2.34332,5.28125 -5.25,5.28125 -2.90625,0 -5.28125,-2.37499 -5.28125,-5.28125 C 403.41518,520.76632 405.79018,518.423 408.69643,518.423 Z"
       id="path1455" />
    <path
       inkscape:connector-curvature="0"
       style="fill:none;stroke:none"
       d="m 406.63393,509.7355 -1.03125,3.5 c -0.81191,0.22697 -1.58817,0.54029 -2.3125,0.9375 l -3.25,-1.75 -2.75,2.75 1.75,3.1875 c -0.41306,0.72456 -0.75917,1.49687 -1,2.3125 l -3.5625,1.0625 0,3.875 3.5,1.03125 c 0.23088,0.85907 0.54837,1.67526 0.96875,2.4375 l -1.75,3.28125 2.71875,2.71875 3.21875,-1.75 c 0.76085,0.43375 1.57693,0.78808 2.4375,1.03125 l 1.0625,3.53125 3.875,0 1.0625,-3.53125 c 0.86055,-0.24317 1.67665,-0.5975 2.4375,-1.03125 l 3.21875,1.75 2.71875,-2.75 -1.75,-3.25 c 0.4204,-0.76224 0.73785,-1.57843 0.96875,-2.4375 l 3.5,-1.03125 0,-3.875 -3.5625,-1.0625 c -0.24085,-0.81563 -0.58692,-1.58794 -1,-2.3125 l 1.75,-3.1875 -2.75,-2.75 -3.25,1.75 c -0.72433,-0.39721 -1.50062,-0.71053 -2.3125,-0.9375 l -1.03125,-3.5 L 406.63393,509.7355 z m 2.0625,8.6875 c 2.90668,0 5.25,2.34332 5.25,5.25 0,2.90626 -2.34332,5.28125 -5.25,5.28125 -2.90625,0 -5.28125,-2.37499 -5.28125,-5.28125 C 403.41518,520.76632 405.79018,518.423 408.69643,518.423 Z"
       id="path1493" />
    <g
       style="fill:#6a6f72;fill-opacity:1"
       transform="matrix(0.46910911,0.09794096,-0.09794096,0.46910911,543.27277,38.29986)"
       inkscape:label="Capa 1"
       id="g854" />
    <path
       id="path4162"
       d="m 406.45201,508.398 -1.12808,3.82863 c -0.88815,0.24829 -1.73729,0.59103 -2.52963,1.02553 l -3.55517,-1.91432 -3.00821,3.00822 1.91432,3.48679 c -0.45185,0.79259 -0.83045,1.63742 -1.0939,2.52963 l -3.897,1.16227 0,4.23884 3.82863,1.12808 c 0.25256,0.93974 0.59986,1.83256 1.05972,2.66637 l -1.91432,3.58935 2.97403,2.97403 3.52097,-1.91432 c 0.83229,0.47448 1.725,0.86208 2.66638,1.12808 l 1.16226,3.86282 4.23884,0 1.16227,-3.86282 c 0.94135,-0.266 1.83408,-0.6536 2.66637,-1.12808 l 3.52098,1.91432 2.97403,-3.00821 -1.91432,-3.55517 c 0.45987,-0.83381 0.80713,-1.72663 1.05971,-2.66637 l 3.82863,-1.12808 0,-4.23884 -3.897,-1.16227 c -0.26346,-0.89221 -0.64203,-1.73704 -1.09389,-2.52963 l 1.91431,-3.48679 -3.00821,-3.00822 -3.55516,1.91432 c -0.79234,-0.4345 -1.64152,-0.77724 -2.52964,-1.02553 L 410.69085,508.398 406.45201,508.398 z m 2.25616,9.50322 c 3.1796,0 5.74295,2.56335 5.74295,5.74295 0,3.17915 -2.56335,5.77714 -5.74295,5.77714 -3.17914,0 -5.77714,-2.59799 -5.77714,-5.77714 C 402.93103,520.46457 405.52903,517.90122 408.70817,517.90122 Z"
       style="fill:url(#linearGradient4164);fill-opacity:1;fill-rule:nonzero;stroke:none"
       inkscape:connector-curvature="0" />
    <path
       style="fill:#6236b5;fill-opacity:0.3137255;fill-rule:nonzero;stroke:none"
       d="m 396.50893,514.073 -0.28125,0.28125 1.71875,3.09375 c 0.0704,-0.13359 0.11295,-0.27548 0.1875,-0.40625 L 396.50893,514.073 z m 24.125,0 -1.625,2.96875 c 0.0745,0.13077 0.11713,0.27266 0.1875,0.40625 l 1.71875,-3.09375 L 420.63393,514.073 z m -11.9375,3.03125 c -3.17914,0 -5.75,2.53915 -5.75,5.71875 0,0.0732 -0.003,0.14619 0,0.21875 0.29707,-2.90153 2.76956,-5.15625 5.75,-5.15625 3.04346,0 5.51205,2.35422 5.71875,5.34375 0.009,-0.13383 0.0312,-0.27013 0.0312,-0.40625 C 414.44643,519.6434 411.87603,517.10425 408.69643,517.10425 z m -15.53125,7.84375 0,0.8125 3.8125,1.125 c 0.21255,0.79086 0.51763,1.53281 0.875,2.25 l 0.1875,-0.375 c -0.45986,-0.83381 -0.80994,-1.74776 -1.0625,-2.6875 L 393.16518,524.948 z m 30.8125,0 -3.8125,1.125 c -0.25258,0.93974 -0.60263,1.85369 -1.0625,2.6875 l 0.1875,0.375 c 0.35737,-0.71719 0.66244,-1.45914 0.875,-2.25 l 3.8125,-1.125 L 423.97768,524.948 z m -3.25,7.625 -2.6875,2.75 -3.53125,-1.9375 c -0.83229,0.47448 -1.7149,0.89025 -2.65625,1.15625 l -1.15625,3.84375 -4.25,0 -1.15625,-3.84375 c -0.94138,-0.266 -1.82396,-0.68177 -2.65625,-1.15625 l -3.53125,1.9375 -2.6875,-2.6875 -0.28125,0.5 2.96875,2.96875 3.53125,-1.90625 c 0.83229,0.47448 1.71487,0.859 2.65625,1.125 l 1.15625,3.875 4.25,0 1.15625,-3.875 c 0.94135,-0.266 1.82396,-0.65052 2.65625,-1.125 l 3.53125,1.90625 2.96875,-3 L 420.72768,532.573 Z"
       id="path4172"
       inkscape:connector-curvature="0" />
    <path
       style="fill:#ffffff;fill-opacity:0.23529412;fill-rule:nonzero;stroke:none"
       d="m 406.44643,508.398 -1.125,3.84375 c -0.88815,0.24829 -1.73891,0.59675 -2.53125,1.03125 l -3.5625,-1.9375 -3,3.03125 0.125,0.25 2.875,-2.875 3.5625,1.90625 c 0.79234,-0.4345 1.6431,-0.75171 2.53125,-1 l 1.125,-3.84375 4.25,0 1.125,3.84375 c 0.88812,0.24829 1.73891,0.5655 2.53125,1 l 3.5625,-1.90625 2.875,2.875 0.125,-0.25 -3,-3.03125 -3.5625,1.9375 c -0.79234,-0.4345 -1.64313,-0.78296 -2.53125,-1.03125 L 410.69643,508.398 406.44643,508.398 z m -8.40625,9.65625 c -0.40022,0.73142 -0.75965,1.49851 -1,2.3125 l -3.875,1.15625 0,0.40625 3.875,-1.15625 c 0.26345,-0.89221 0.6419,-1.73866 1.09375,-2.53125 L 398.04018,518.05425 z m 21.0625,0 -0.0937,0.1875 c 0.45186,0.79259 0.83029,1.63904 1.09375,2.53125 l 3.875,1.15625 0,-0.40625 -3.875,-1.15625 C 419.86232,519.55276 419.50291,518.78567 419.10268,518.05425 z m -4.65625,5.8125 c -0.11402,3.07903 -2.64341,5.5625 -5.75,5.5625 -2.98044,0 -5.45293,-2.28254 -5.75,-5.1875 0.0998,3.09315 2.63361,5.59375 5.75,5.59375 3.1796,0 5.75,-2.6021 5.75,-5.78125 C 414.44643,523.99167 414.4484,523.92884 414.44643,523.86675 z m -16.5,5.875 -1.8125,3.40625 0.15625,0.15625 1.75,-3.34375 C 398.00145,529.89027 397.98358,529.81281 397.94643,529.74175 z m 21.25,0 c -0.0371,0.0711 -0.055,0.14852 -0.0937,0.21875 l 1.75,3.3125 0.15625,-0.15625 L 419.19643,529.74175 Z"
       id="path4179"
       inkscape:connector-curvature="0" />
  </g>
</svg>
