<?xml version="1.0" encoding="UTF-8" standalone="no"?>
<!-- Created with Inkscape (http://www.inkscape.org/) -->

<svg
   xmlns:dc="http://purl.org/dc/elements/1.1/"
   xmlns:cc="http://creativecommons.org/ns#"
   xmlns:rdf="http://www.w3.org/1999/02/22-rdf-syntax-ns#"
   xmlns:svg="http://www.w3.org/2000/svg"
   xmlns="http://www.w3.org/2000/svg"
   xmlns:xlink="http://www.w3.org/1999/xlink"
   xmlns:sodipodi="http://sodipodi.sourceforge.net/DTD/sodipodi-0.dtd"
   xmlns:inkscape="http://www.inkscape.org/namespaces/inkscape"
   width="48"
   height="48"
   id="svg2"
   version="1.1"
   inkscape:version="0.48+devel r12487"
   sodipodi:docname="wallch.svg"
   inkscape:export-filename="/home/uri/Iconos/NITRUX/apps/512/wallch.png"
   inkscape:export-xdpi="960"
   inkscape:export-ydpi="960">
  <defs
     id="defs4">
    <linearGradient
       inkscape:collect="always"
       id="linearGradient4146">
      <stop
         style="stop-color:#1a1a1a;stop-opacity:1"
         offset="0"
         id="stop4148" />
      <stop
         style="stop-color:#333333;stop-opacity:1"
         offset="1"
         id="stop4150" />
    </linearGradient>
    <linearGradient
       inkscape:collect="always"
       xlink:href="#linearGradient4146"
       id="linearGradient2736"
       x1="25.986174"
       y1="-1052.1854"
       x2="25.986174"
       y2="-1004.3816"
       gradientUnits="userSpaceOnUse" />
    <linearGradient
       id="linearGradient4678"
       inkscape:collect="always">
      <stop
         id="stop4680"
         offset="0"
         style="stop-color:#0a7fe7;stop-opacity:1" />
      <stop
         id="stop4682"
         offset="1"
         style="stop-color:#50bffc;stop-opacity:1" />
    </linearGradient>
    <linearGradient
       inkscape:collect="always"
       xlink:href="#linearGradient4678"
       id="linearGradient4143"
       gradientUnits="userSpaceOnUse"
       x1="25.986174"
       y1="-1052.1854"
       x2="25.986174"
       y2="-1004.3816"
       gradientTransform="matrix(1,0,0,-1,0,-1004.3622)" />
    <linearGradient
       inkscape:collect="always"
       xlink:href="#linearGradient4678"
       id="linearGradient4159"
       gradientUnits="userSpaceOnUse"
       x1="33.691269"
       y1="-1016.2567"
       x2="47.700691"
       y2="-1008.1684"
       gradientTransform="matrix(-1,0,0,1,70.34375,1029.9872)" />
  </defs>
  <sodipodi:namedview
     id="base"
     pagecolor="#ffffff"
     bordercolor="#666666"
     borderopacity="1.0"
     inkscape:pageopacity="0.0"
     inkscape:pageshadow="2"
     inkscape:zoom="6.2313785"
     inkscape:cx="41.932897"
     inkscape:cy="31.865232"
     inkscape:document-units="px"
     inkscape:current-layer="layer1"
     showgrid="false"
     inkscape:window-width="1366"
     inkscape:window-height="718"
     inkscape:window-x="0"
     inkscape:window-y="30"
     inkscape:window-maximized="1" />
  <metadata
     id="metadata7">
    <rdf:RDF>
      <cc:Work
         rdf:about="">
        <dc:format>image/svg+xml</dc:format>
        <dc:type
           rdf:resource="http://purl.org/dc/dcmitype/StillImage" />
        <dc:title />
      </cc:Work>
    </rdf:RDF>
  </metadata>
  <g
     inkscape:label="Capa 1"
     inkscape:groupmode="layer"
     id="layer1"
     transform="translate(0,-1004.3622)">
    <rect
       style="fill:url(#linearGradient2736);fill-opacity:1.0;stroke:none"
       id="rect2991-1-7"
       width="48"
       height="48"
       x="5.6866456e-06"
       y="-1052.3622"
       ry="1.9445436"
       transform="scale(1,-1)" />
    <path
       style="fill:url(#linearGradient4143);fill-opacity:1;stroke:none"
       d="M 1.9375 0 C 0.86022285 0 0 0.86022285 0 1.9375 L 0 46.0625 C 0 47.139777 0.86022285 48 1.9375 48 L 46.0625 48 C 47.139777 48 48 47.139777 48 46.0625 L 48 25.625 L 22.34375 0 L 1.9375 0 z "
       transform="translate(0,1004.3622)"
       id="rect4139" />
    <path
       sodipodi:nodetypes="cccc"
       inkscape:connector-curvature="0"
       id="path4170"
       d="m 22.34375,1004.7622 2.5e-4,22.925 C 29.506,1023.5522 42.278937,1024.6661 48,1030.3872 Z"
       style="fill:#000000;fill-opacity:0.23529412;stroke:none" />
    <path
       sodipodi:nodetypes="cccc"
       inkscape:connector-curvature="0"
       id="path4174"
       d="m 22.34375,1005.5622 2.5e-4,22.925 C 29.506,1024.3522 42.278937,1025.4661 48,1031.1872 Z"
       style="fill:#000000;fill-opacity:0.05882353;stroke:none" />
    <path
       style="fill:#000000;fill-opacity:0.11764706;stroke:none"
       d="m 22.34375,1005.1622 2.5e-4,22.925 C 29.506,1023.9522 42.278937,1025.0661 48,1030.7872 Z"
       id="path4172"
       inkscape:connector-curvature="0"
       sodipodi:nodetypes="cccc" />
    <path
       style="fill:url(#linearGradient4159);fill-opacity:1;stroke:none"
       d="M 22.34375,0 22.344,22.925 C 29.506,18.790017 42.278937,19.903937 48,25.625 Z"
       transform="translate(0,1004.3622)"
       id="rect4152"
       inkscape:connector-curvature="0"
       sodipodi:nodetypes="cccc" />
    <path
       style="fill:#0c81e7;fill-opacity:0.3137255;stroke:none"
       d="M 32.09375 19.65625 C 28.497689 19.764462 25.0295 20.574375 22.34375 22.125 L 22.34375 22.9375 C 29.50575 18.802517 42.278937 19.903937 48 25.625 L 44.90625 22.53125 C 41.328986 20.508722 36.614156 19.520223 32.09375 19.65625 z "
       transform="translate(0,1004.3622)"
       id="path4165" />
    <path
       style="fill:#ffffff;fill-opacity:0.23529412;stroke:none"
       d="M 22.34375 0 L 22.34375 22.9375 C 22.601213 22.788854 22.884873 22.66636 23.15625 22.53125 L 23.15625 0.8125 L 22.34375 0 z M 33.90625 20.46875 C 39.333154 20.657171 44.781902 22.406902 48 25.625 L 45.71875 23.34375 C 42.398943 21.457726 38.128495 20.493324 33.90625 20.46875 z "
       transform="translate(0,1004.3622)"
       id="path4176" />
    <g
       id="g4181">
      <path
         id="rect846"
         d="m -5.6866455e-6,1049.3622 0,1.0625 c 0,1.0773 0.8602199966455,1.9375 1.9374999866455,1.9375 l 44.1249997,0 c 1.07728,0 1.9375,-0.8602 1.9375,-1.9375 l 0,-1.0625 c 0,1.0773 -0.86022,1.9375 -1.9375,1.9375 l -44.1249997,0 C 0.86021431,1051.2997 -5.6866455e-6,1050.4395 -5.6866455e-6,1049.3622 Z"
         style="fill:#000000;fill-opacity:1;stroke:none"
         inkscape:connector-curvature="0" />
      <path
         id="path7515"
         d="m 2.5312443,1005.0185 c -0.91709,0 -1.67114999,0.6395 -1.84374999,1.5 0.33560999,-0.2799 0.77450999,-0.4375 1.24999999,-0.4375 l 44.1249997,0 c 0.47549,0 0.91439,0.1576 1.25,0.4375 -0.1726,-0.8605 -0.92666,-1.5 -1.84375,-1.5 L 2.5312443,1005.0185 Z"
         style="fill:#ffffff;fill-opacity:0.5372549;stroke:none"
         inkscape:connector-curvature="0" />
      <path
         id="rect4280"
         d="m 1.9374943,1004.3622 c -1.07727999,0 -1.9374999866455,0.8602 -1.9374999866455,1.9375 l 0,43.0625 c 0,0.7934 0.4800199966455,1.449 1.1562499866455,1.75 -0.30933999,-0.3333 -0.49999999,-0.7824 -0.49999999,-1.2812 l 0,-42.9375 c 0,-1.0482 0.82689999,-1.875 1.87499999,-1.875 l 42.9374997,0 c 1.0481,0 1.875,0.8268 1.875,1.875 l 0,42.9375 c 0,0.4988 -0.19066,0.9479 -0.5,1.2812 0.67623,-0.301 1.15625,-0.9566 1.15625,-1.75 l 0,-43.0625 c 0,-1.0773 -0.86022,-1.9375 -1.9375,-1.9375 L 1.9374943,1004.3622 Z"
         style="fill:#000000;fill-opacity:0.39215686;stroke:none"
         inkscape:connector-curvature="0" />
    </g>
  </g>
</svg>
