<?xml version="1.0" encoding="UTF-8" standalone="no"?>
<!-- Created with Inkscape (http://www.inkscape.org/) -->

<svg
   xmlns:dc="http://purl.org/dc/elements/1.1/"
   xmlns:cc="http://creativecommons.org/ns#"
   xmlns:rdf="http://www.w3.org/1999/02/22-rdf-syntax-ns#"
   xmlns:svg="http://www.w3.org/2000/svg"
   xmlns="http://www.w3.org/2000/svg"
   xmlns:xlink="http://www.w3.org/1999/xlink"
   xmlns:sodipodi="http://sodipodi.sourceforge.net/DTD/sodipodi-0.dtd"
   xmlns:inkscape="http://www.inkscape.org/namespaces/inkscape"
   width="48"
   height="48"
   id="svg5453"
   version="1.1"
   inkscape:version="0.49 r12742"
   sodipodi:docname="wave-accounting.svg"
   viewBox="0 0 48 48">
  <defs
     id="defs5455">
    <linearGradient
       inkscape:collect="always"
       id="linearGradient4716">
      <stop
         style="stop-color:#4accc7;stop-opacity:1;"
         offset="0"
         id="stop4718" />
      <stop
         style="stop-color:#7cdad7;stop-opacity:1"
         offset="1"
         id="stop4720" />
    </linearGradient>
    <linearGradient
       inkscape:collect="always"
       id="linearGradient4708">
      <stop
         style="stop-color:#00959e;stop-opacity:1;"
         offset="0"
         id="stop4710" />
      <stop
         style="stop-color:#00c6d2;stop-opacity:1"
         offset="1"
         id="stop4712" />
    </linearGradient>
    <linearGradient
       inkscape:collect="always"
       id="linearGradient4645">
      <stop
         style="stop-color:#0e2732;stop-opacity:1"
         offset="0"
         id="stop4647" />
      <stop
         style="stop-color:#113547;stop-opacity:1"
         offset="1"
         id="stop4649" />
    </linearGradient>
    <linearGradient
       inkscape:collect="always"
       xlink:href="#linearGradient4645"
       id="linearGradient4651"
       x1="411.46689"
       y1="-547.82697"
       x2="411.46689"
       y2="-499.79349"
       gradientUnits="userSpaceOnUse" />
    <linearGradient
       inkscape:collect="always"
       xlink:href="#linearGradient4708"
       id="linearGradient4714"
       x1="416.56802"
       y1="539.20087"
       x2="416.56802"
       y2="518.32465"
       gradientUnits="userSpaceOnUse" />
    <linearGradient
       inkscape:collect="always"
       xlink:href="#linearGradient4716"
       id="linearGradient4722"
       x1="409.1434"
       y1="539.40112"
       x2="409.1434"
       y2="508.40442"
       gradientUnits="userSpaceOnUse" />
  </defs>
  <sodipodi:namedview
     id="base"
     pagecolor="#ffffff"
     bordercolor="#666666"
     borderopacity="1.0"
     inkscape:pageopacity="0"
     inkscape:pageshadow="2"
     inkscape:zoom="5.6568543"
     inkscape:cx="14.415613"
     inkscape:cy="23.254785"
     inkscape:document-units="px"
     inkscape:current-layer="layer1"
     showgrid="false"
     fit-margin-top="0"
     fit-margin-left="0"
     fit-margin-right="0"
     fit-margin-bottom="0"
     inkscape:window-width="1366"
     inkscape:window-height="718"
     inkscape:window-x="0"
     inkscape:window-y="23"
     inkscape:window-maximized="1"
     inkscape:showpageshadow="false"
     borderlayer="true" />
  <metadata
     id="metadata5458">
    <rdf:RDF>
      <cc:Work
         rdf:about="">
        <dc:format>image/svg+xml</dc:format>
        <dc:type
           rdf:resource="http://purl.org/dc/dcmitype/StillImage" />
        <dc:title></dc:title>
      </cc:Work>
    </rdf:RDF>
  </metadata>
  <g
     inkscape:label="Capa 1"
     inkscape:groupmode="layer"
     id="layer1"
     transform="translate(-384.57143,-499.798)">
    <rect
       style="fill:url(#linearGradient4651);fill-opacity:1;stroke:none"
       id="rect2991-1-7"
       width="48"
       height="48"
       x="384.57144"
       y="-547.79797"
       ry="1.9445436"
       transform="scale(1,-1)" />
    <path
       inkscape:connector-curvature="0"
       style="fill:#000000;fill-opacity:1;stroke:none"
       d="m 384.57143,544.79799 0,1.0625 c 0,1.0773 0.86022,1.9375 1.9375,1.9375 l 44.125,0 c 1.07728,0 1.9375,-0.8602 1.9375,-1.9375 l 0,-1.0625 c 0,1.0773 -0.86022,1.9375 -1.9375,1.9375 l -44.125,0 c -1.07728,0 -1.9375,-0.8602 -1.9375,-1.9375 z"
       id="rect846" />
    <path
       inkscape:connector-curvature="0"
       style="fill:#ffffff;fill-opacity:0.5372549;stroke:none"
       d="m 387.10268,500.45429 c -0.91709,0 -1.67115,0.6395 -1.84375,1.5 0.33561,-0.2799 0.77451,-0.4375 1.25,-0.4375 l 44.125,0 c 0.47549,0 0.91439,0.1576 1.25,0.4375 -0.1726,-0.8605 -0.92666,-1.5 -1.84375,-1.5 l -42.9375,0 z"
       id="path7515" />
    <path
       inkscape:connector-curvature="0"
       style="fill:#000000;fill-opacity:0.39215686;stroke:none"
       d="m 386.50893,499.79799 c -1.07728,0 -1.9375,0.8602 -1.9375,1.9375 l 0,43.0625 c 0,0.7934 0.48002,1.449 1.15625,1.75 -0.30934,-0.3333 -0.5,-0.7824 -0.5,-1.2812 l 0,-42.9375 c 0,-1.0482 0.8269,-1.875 1.875,-1.875 l 42.9375,0 c 1.0481,0 1.875,0.8268 1.875,1.875 l 0,42.9375 c 0,0.4988 -0.19066,0.9479 -0.5,1.2812 0.67623,-0.301 1.15625,-0.9566 1.15625,-1.75 l 0,-43.0625 c 0,-1.0773 -0.86022,-1.9375 -1.9375,-1.9375 l -44.125,0 z"
       id="rect4280" />
    <path
       style="fill:#000000;fill-opacity:0.05882353;stroke:none"
       d="m 408.57143,509.598 a 15.149367,15.143513 0 0 0 -15.15,15.14415 15.149367,15.143513 0 0 0 0.3341,3.08 11.184345,11.180023 0 0 1 11.15638,-10.6013 11.184345,11.180023 0 0 1 11.18372,11.17941 11.184345,11.180023 0 0 1 -1.71155,5.91391 c 1.77909,0.16854 4.06041,0.12599 6.23076,-0.40624 a 15.149367,15.143513 0 0 0 3.10659,-9.16578 15.149367,15.143513 0 0 0 -15.15,-15.14415 z m -3.09487,9.93334 c -3.39426,0.0694 -6.05894,1.42636 -8.14942,3.94326 -1.34968,1.75601 -2.08164,3.8395 -2.08474,5.92563 5e-5,2.87932 1.42075,5.73923 3.86077,7.7752 2.43998,2.03598 5.86913,3.22262 9.31977,3.22257 2.10495,-10e-4 4.20714,-0.43144 6.07446,-1.24216 1.86731,-0.81074 3.49564,-2.00163 4.70482,-3.43936 -2.10861,0.24976 -4.30125,-0.0518 -6.21122,-0.85545 -1.90996,-0.80353 -3.52919,-2.105 -4.58369,-3.68545 -1.35897,-1.66296 -2.04459,-3.71869 -1.91671,-5.744 0.12785,-2.02532 1.06941,-4.00689 2.62986,-5.53501 -1.29956,-0.26794 -2.51248,-0.38837 -3.6439,-0.36523 z"
       id="path4686"
       inkscape:connector-curvature="0" />
    <path
       inkscape:connector-curvature="0"
       id="path4684"
       d="m 408.57143,509.198 a 15.149367,15.143513 0 0 0 -15.15,15.14415 15.149367,15.143513 0 0 0 0.3341,3.08 11.184345,11.180023 0 0 1 11.15638,-10.6013 11.184345,11.180023 0 0 1 11.18372,11.17941 11.184345,11.180023 0 0 1 -1.71155,5.91391 c 1.77909,0.16854 4.06041,0.12599 6.23076,-0.40624 a 15.149367,15.143513 0 0 0 3.10659,-9.16578 15.149367,15.143513 0 0 0 -15.15,-15.14415 z m -3.09487,9.93334 c -3.39426,0.0694 -6.05894,1.42636 -8.14942,3.94326 -1.34968,1.75601 -2.08164,3.8395 -2.08474,5.92563 5e-5,2.87932 1.42075,5.73923 3.86077,7.7752 2.43998,2.03598 5.86913,3.22262 9.31977,3.22257 2.10495,-0.001 4.20714,-0.43144 6.07446,-1.24216 1.86731,-0.81074 3.49564,-2.00163 4.70482,-3.43936 -2.10861,0.24976 -4.30125,-0.0518 -6.21122,-0.85545 -1.90996,-0.80353 -3.52919,-2.105 -4.58369,-3.68545 -1.35897,-1.66296 -2.04459,-3.71869 -1.91671,-5.744 0.12785,-2.02532 1.06941,-4.00689 2.62986,-5.53501 -1.29956,-0.26794 -2.51248,-0.38837 -3.6439,-0.36523 z"
       style="fill:#000000;fill-opacity:0.11764706;stroke:none" />
    <path
       style="fill:#000000;fill-opacity:0.23529412;stroke:none"
       d="m 408.57143,508.798 a 15.149367,15.143513 0 0 0 -15.15,15.14415 15.149367,15.143513 0 0 0 0.3341,3.08 11.184345,11.180023 0 0 1 11.15638,-10.6013 11.184345,11.180023 0 0 1 11.18372,11.17941 11.184345,11.180023 0 0 1 -1.71155,5.91391 c 1.77909,0.16854 4.06041,0.12599 6.23076,-0.40624 a 15.149367,15.143513 0 0 0 3.10659,-9.16578 15.149367,15.143513 0 0 0 -15.15,-15.14415 z m -3.09487,9.93334 c -3.39426,0.0694 -6.05894,1.42636 -8.14942,3.94326 -1.34968,1.75601 -2.08164,3.8395 -2.08474,5.92563 5e-5,2.87932 1.42075,5.73923 3.86077,7.7752 2.43998,2.03598 5.86913,3.22262 9.31977,3.22257 2.10495,-10e-4 4.20714,-0.43144 6.07446,-1.24216 1.86731,-0.81074 3.49564,-2.00163 4.70482,-3.43936 -2.10861,0.24976 -4.30125,-0.0518 -6.21122,-0.85545 -1.90996,-0.80353 -3.52919,-2.105 -4.58369,-3.68545 -1.35897,-1.66296 -2.04459,-3.71869 -1.91671,-5.744 0.12785,-2.02532 1.06941,-4.00689 2.62986,-5.53501 -1.29956,-0.26794 -2.51248,-0.38837 -3.6439,-0.36523 z"
       id="path4677"
       inkscape:connector-curvature="0" />
    <path
       id="path4104-1"
       d="m 408.57143,508.398 a 15.143897,15.143897 0 0 0 -15.14394,15.14394 15.143897,15.143897 0 0 0 0.33406,3.07989 11.180307,11.180307 0 0 1 11.15118,-10.60154 11.180307,11.180307 0 0 1 11.18035,11.18035 11.180307,11.180307 0 0 1 -1.71115,5.91292 c 1.77845,0.16854 4.05928,0.12732 6.22884,-0.40492 a 15.143897,15.143897 0 0 0 3.1046,-9.1667 15.143897,15.143897 0 0 0 -15.14394,-15.14394 z"
       style="fill:url(#linearGradient4722);fill-opacity:1;stroke:none"
       inkscape:connector-curvature="0" />
    <path
       sodipodi:nodetypes="ccscscscscc"
       inkscape:connector-curvature="0"
       id="path4123-9"
       d="m 397.33196,522.27552 c -1.34919,1.75605 -2.08185,3.83788 -2.08495,5.92407 5e-5,2.87939 1.42006,5.74108 3.8592,7.7771 2.4391,2.03604 5.86726,3.22136 9.31665,3.22131 2.10419,-10e-4 4.20626,-0.43095 6.07291,-1.24169 1.86664,-0.81077 3.49466,-2.00109 4.7034,-3.43886 -2.10785,0.24977 -4.30083,-0.0524 -6.21011,-0.85606 -1.90927,-0.80355 -3.52698,-2.10497 -4.5811,-3.68546 -1.35848,-1.663 -2.04465,-3.71953 -1.91682,-5.74489 0.12781,-2.02538 1.06885,-4.00674 2.62873,-5.5349 -5.19635,-1.07178 -9.0016,0.22342 -11.78791,3.57938 z"
       style="fill:url(#linearGradient4714);fill-opacity:1;stroke:none" />
    <path
       style="fill:#006d74;fill-opacity:0.3137255;stroke:none"
       d="M 23.908203 18.798828 C 22.734592 20.209177 22.029037 21.903684 21.919922 23.632812 C 21.901718 23.92124 21.905519 24.209582 21.919922 24.498047 C 21.921094 24.476567 21.918567 24.455067 21.919922 24.433594 C 22.047732 22.408214 22.988948 20.426597 24.548828 18.898438 C 24.328014 18.852893 24.124021 18.835848 23.908203 18.798828 z M 10.697266 27.939453 C 10.689117 28.09341 10.67601 28.24821 10.675781 28.402344 C 10.675831 31.281734 12.096016 34.141714 14.535156 36.177734 C 16.974256 38.213774 20.402173 39.400441 23.851562 39.400391 C 25.955753 39.399391 28.057178 38.968943 29.923828 38.158203 C 31.790468 37.347433 33.418213 36.15652 34.626953 34.71875 C 34.351853 34.751348 34.076008 34.773202 33.798828 34.787109 C 32.711626 35.835046 31.397208 36.717464 29.923828 37.357422 C 28.057178 38.168162 25.955753 38.598609 23.851562 38.599609 C 20.402173 38.599659 16.974256 37.414946 14.535156 35.378906 C 12.191583 33.422659 10.803632 30.703503 10.697266 27.939453 z "
       transform="translate(384.57143,499.798)"
       id="path4690" />
    <path
       style="fill:#247c79;fill-opacity:0.3137255;stroke:none"
       d="M 20.341797 15.421875 A 11.180307 11.180307 0 0 0 9.1894531 26.023438 A 15.143897 15.143897 0 0 1 8.8730469 23.259766 A 15.143897 15.143897 0 0 0 8.8554688 23.744141 A 15.143897 15.143897 0 0 0 9.1894531 26.824219 A 11.180307 11.180307 0 0 1 20.341797 16.222656 A 11.180307 11.180307 0 0 1 31.503906 26.919922 A 11.180307 11.180307 0 0 0 31.521484 26.603516 A 11.180307 11.180307 0 0 0 20.341797 15.421875 z M 39.130859 23.457031 A 15.143897 15.143897 0 0 1 36.039062 32.111328 C 34.035364 32.602879 31.954258 32.665533 30.244141 32.541016 A 11.180307 11.180307 0 0 1 29.810547 33.316406 C 31.588997 33.484946 33.869503 33.442396 36.039062 32.910156 A 15.143897 15.143897 0 0 0 39.144531 23.744141 A 15.143897 15.143897 0 0 0 39.130859 23.457031 z "
       transform="translate(384.57143,499.798)"
       id="path4695" />
    <path
       style="fill:#ffffff;fill-opacity:0.23529412;stroke:none"
       d="M 24 8.5996094 A 15.143897 15.143513 0 0 0 8.8554688 23.744141 A 15.143897 15.143513 0 0 0 8.8632812 23.898438 A 15.143897 15.143513 0 0 1 24 9 A 15.143897 15.143513 0 0 1 39.138672 24.009766 A 15.143897 15.143513 0 0 0 39.144531 23.744141 A 15.143897 15.143513 0 0 0 24 8.5996094 z M 20.90625 18.533203 C 17.51321 18.602603 14.849496 19.959663 12.759766 22.476562 C 11.410576 24.232572 10.678881 26.316214 10.675781 28.402344 C 10.675782 28.459055 10.684447 28.515575 10.685547 28.572266 C 10.740134 26.563665 11.460321 24.568218 12.759766 22.876953 C 14.849496 20.360053 17.51321 19.002994 20.90625 18.933594 C 21.939376 18.912456 23.049655 19.026592 24.222656 19.248047 C 24.330623 19.130901 24.434089 19.01084 24.548828 18.898438 C 23.249738 18.630498 22.03726 18.510063 20.90625 18.533203 z M 21.914062 25.246094 C 21.897098 27.136113 22.569567 29.027919 23.835938 30.578125 C 24.890057 32.158575 26.508699 33.460142 28.417969 34.263672 C 30.202059 35.014627 32.232477 35.320319 34.210938 35.154297 C 34.348023 35.007837 34.499039 34.870897 34.626953 34.71875 C 32.519103 34.96851 30.327249 34.666931 28.417969 33.863281 C 26.508699 33.059751 24.890057 31.758184 23.835938 30.177734 C 22.659073 28.737096 21.989518 27.001133 21.914062 25.246094 z M 31.513672 27.5625 A 11.180307 11.180023 0 0 1 29.810547 33.316406 C 29.881597 33.32314 29.964496 33.324036 30.037109 33.330078 A 11.180307 11.180023 0 0 0 31.521484 27.802734 A 11.180307 11.180023 0 0 0 31.513672 27.5625 z "
       transform="translate(384.57143,499.798)"
       id="path4700" />
  </g>
</svg>
