<?xml version="1.0" encoding="UTF-8" standalone="no"?>
<svg
   xmlns:dc="http://purl.org/dc/elements/1.1/"
   xmlns:cc="http://creativecommons.org/ns#"
   xmlns:rdf="http://www.w3.org/1999/02/22-rdf-syntax-ns#"
   xmlns:svg="http://www.w3.org/2000/svg"
   xmlns="http://www.w3.org/2000/svg"
   xmlns:xlink="http://www.w3.org/1999/xlink"
   xmlns:sodipodi="http://sodipodi.sourceforge.net/DTD/sodipodi-0.dtd"
   xmlns:inkscape="http://www.inkscape.org/namespaces/inkscape"
   width="48"
   height="48"
   id="svg2"
   version="1.1"
   inkscape:version="0.48+devel r"
   sodipodi:docname="chrome-bebigdkelppomhhjaaianniiifjbgocn-Default.svg">
  <metadata
     id="metadata30">
    <rdf:RDF>
      <cc:Work
         rdf:about="">
        <dc:format>image/svg+xml</dc:format>
        <dc:type
           rdf:resource="http://purl.org/dc/dcmitype/StillImage" />
        <dc:title></dc:title>
      </cc:Work>
    </rdf:RDF>
  </metadata>
  <sodipodi:namedview
     pagecolor="#ffffff"
     bordercolor="#666666"
     borderopacity="1"
     objecttolerance="10"
     gridtolerance="10"
     guidetolerance="10"
     inkscape:pageopacity="0"
     inkscape:pageshadow="2"
     inkscape:window-width="1366"
     inkscape:window-height="666"
     id="namedview28"
     showgrid="true"
     inkscape:showpageshadow="false"
     borderlayer="true"
     inkscape:zoom="5.2083333"
     inkscape:cx="37.0217"
     inkscape:cy="33.295847"
     inkscape:window-x="-2"
     inkscape:window-y="25"
     inkscape:window-maximized="1"
     inkscape:current-layer="svg2">
    <inkscape:grid
       type="xygrid"
       id="grid4211" />
    <sodipodi:guide
       position="8,40"
       orientation="32,0"
       id="guide4217" />
    <sodipodi:guide
       position="8,8"
       orientation="0,32"
       id="guide4219" />
    <sodipodi:guide
       position="40,8"
       orientation="-32,0"
       id="guide4221" />
    <sodipodi:guide
       position="40,40"
       orientation="0,-32"
       id="guide4223" />
  </sodipodi:namedview>
  <defs
     id="defs4">
    <linearGradient
       inkscape:collect="always"
       id="linearGradient4247">
      <stop
         style="stop-color:#c0d8f8;stop-opacity:1"
         offset="0"
         id="stop4249" />
      <stop
         style="stop-color:#f6f9fe;stop-opacity:1"
         offset="1"
         id="stop4251" />
    </linearGradient>
    <linearGradient
       id="linearGradient5555"
       inkscape:collect="always">
      <stop
         id="stop5557"
         offset="0"
         style="stop-color:#2d7ce6;stop-opacity:1" />
      <stop
         id="stop5559"
         offset="1"
         style="stop-color:#4990f1;stop-opacity:1" />
    </linearGradient>
    <linearGradient
       gradientTransform="translate(-3.1091309e-7,1004.3622)"
       inkscape:collect="always"
       xlink:href="#linearGradient5555"
       id="linearGradient5561-0"
       x1="27.223612"
       y1="-1052.3843"
       x2="27.223612"
       y2="-1004.3317"
       gradientUnits="userSpaceOnUse" />
    <linearGradient
       inkscape:collect="always"
       xlink:href="#linearGradient4247"
       id="linearGradient4245"
       x1="25"
       y1="40"
       x2="25"
       y2="7.9598985"
       gradientUnits="userSpaceOnUse"
       gradientTransform="matrix(0.9625,0,0,0.9625,0.9,0.9)" />
  </defs>
  <rect
     style="fill:url(#linearGradient5561-0);fill-opacity:1;stroke:none"
     id="rect2991-1-7-2"
     width="48"
     height="48"
     x="6.3109132e-06"
     y="-47.999981"
     ry="1.9445436"
     transform="scale(1,-1)" />
  <path
     inkscape:connector-curvature="0"
     id="path4269"
     d="m 8.6,9.8 0,24.0625 12.753125,0 8.421875,6.7375 0,-6.7375 9.625,0 0,-24.0625 -30.8,0 z m 14.211914,4.8125 1.558423,0 -1.000098,3.804883 2.808545,0 1.009497,-3.804883 1.539624,0 -0.990698,3.804883 3.000293,0 0,1.411792 -3.376269,0 -0.787672,3.060449 3.058569,0 0,1.402393 -3.434545,0 -1.000097,3.795483 -1.539625,0 0.990698,-3.795483 -2.817944,0 -0.990698,3.795483 -1.547144,0 1.000099,-3.795483 -3.030372,0 0,-1.402393 3.385669,0 0.80835,-3.060449 -3.098047,0 0,-1.411792 3.472143,0 0.981299,-3.804883 z m 0.203027,5.216675 -0.808349,3.060449 2.817944,0 0.787671,-3.060449 -2.797266,0 z"
     style="opacity:1;fill:#000000;fill-opacity:0.05882353;stroke:none;stroke-width:2.79999995;stroke-miterlimit:4;stroke-dasharray:none;stroke-opacity:0.55026455" />
  <path
     style="opacity:1;fill:#000000;fill-opacity:0.11764706;stroke:none;stroke-width:2.79999995;stroke-miterlimit:4;stroke-dasharray:none;stroke-opacity:0.55026455"
     d="m 8.6,9.4 0,24.0625 12.753125,0 8.421875,6.7375 0,-6.7375 9.625,0 0,-24.0625 -30.8,0 z m 14.211914,4.8125 1.558423,0 -1.000098,3.804883 2.808545,0 1.009497,-3.804883 1.539624,0 -0.990698,3.804883 3.000293,0 0,1.411792 -3.376269,0 -0.787672,3.060449 3.058569,0 0,1.402393 -3.434545,0 -1.000097,3.795483 -1.539625,0 0.990698,-3.795483 -2.817944,0 -0.990698,3.795483 -1.547144,0 1.000099,-3.795483 -3.030372,0 0,-1.402393 3.385669,0 0.80835,-3.060449 -3.098047,0 0,-1.411792 3.472143,0 0.981299,-3.804883 z m 0.203027,5.216675 -0.808349,3.060449 2.817944,0 0.787671,-3.060449 -2.797266,0 z"
     id="path4267"
     inkscape:connector-curvature="0" />
  <path
     inkscape:connector-curvature="0"
     id="path4263"
     d="m 8.6,9 0,24.0625 12.753125,0 8.421875,6.7375 0,-6.7375 9.625,0 L 39.4,9 8.6,9 Z m 14.211914,4.8125 1.558423,0 -1.000098,3.804883 2.808545,0 1.009497,-3.804883 1.539624,0 -0.990698,3.804883 3.000293,0 0,1.411792 -3.376269,0 -0.787672,3.060449 3.058569,0 0,1.402393 -3.434545,0 -1.000097,3.795483 -1.539625,0 0.990698,-3.795483 -2.817944,0 -0.990698,3.795483 -1.547144,0 1.000099,-3.795483 -3.030372,0 0,-1.402393 3.385669,0 0.80835,-3.060449 -3.098047,0 0,-1.411792 3.472143,0 0.981299,-3.804883 z m 0.203027,5.216675 -0.808349,3.060449 2.817944,0 0.787671,-3.060449 -2.797266,0 z"
     style="opacity:1;fill:#000000;fill-opacity:0.23529412;stroke:none;stroke-width:2.79999995;stroke-miterlimit:4;stroke-dasharray:none;stroke-opacity:0.55026455" />
  <path
     inkscape:connector-curvature="0"
     style="fill:#000000;fill-opacity:1;stroke:none"
     d="m -6.3109131e-6,45 0,1.0625 C -6.3109131e-6,47.1398 0.86021369,48 1.9374937,48 l 44.1249993,0 c 1.07728,0 1.9375,-0.8602 1.9375,-1.9375 l 0,-1.0625 c 0,1.0773 -0.86022,1.9375 -1.9375,1.9375 l -44.1249993,0 C 0.86021369,46.9375 -6.3109131e-6,46.0773 -6.3109131e-6,45 Z"
     id="rect846-3" />
  <path
     inkscape:connector-curvature="0"
     style="fill:#ffffff;fill-opacity:0.5372549;stroke:none"
     d="m 2.5312437,0.6563 c -0.91709,0 -1.67115001,0.6395 -1.84375001,1.5 C 1.0231037,1.8764 1.4620037,1.7188 1.9374937,1.7188 l 44.1249993,0 c 0.47549,0 0.91439,0.1576 1.25,0.4375 -0.1726,-0.8605 -0.92666,-1.5 -1.84375,-1.5 l -42.9374993,0 z"
     id="path7515-3" />
  <path
     inkscape:connector-curvature="0"
     style="fill:#000000;fill-opacity:0.39215686;stroke:none"
     d="M 1.9374937,0 C 0.86021369,0 -6.3109131e-6,0.8602 -6.3109131e-6,1.9375 l 0,43.0625 c 0,0.7934 0.4800200009131,1.449 1.1562500109131,1.75 C 0.84690369,46.4167 0.65624369,45.9676 0.65624369,45.4688 l 0,-42.9375 c 0,-1.0482 0.82690001,-1.875 1.87500001,-1.875 l 42.9374993,0 c 1.0481,0 1.875,0.8268 1.875,1.875 l 0,42.9375 c 0,0.4988 -0.19066,0.9479 -0.5,1.2812 0.67623,-0.301 1.15625,-0.9566 1.15625,-1.75 l 0,-43.0625 C 47.999993,0.8602 47.139773,0 46.062493,0 L 1.9374937,0 Z"
     id="rect4280-2" />
  <path
     style="opacity:1;fill:url(#linearGradient4245);fill-opacity:1;stroke:none;stroke-width:2.79999995;stroke-miterlimit:4;stroke-dasharray:none;stroke-opacity:0.55026455"
     d="m 8.6,8.6 0,24.0625 12.753125,0 8.421875,6.7375 0,-6.7375 9.625,0 0,-24.0625 -30.8,0 z m 14.211914,4.8125 1.558423,0 -1.000098,3.804883 2.808545,0 1.009497,-3.804883 1.539624,0 -0.990698,3.804883 3.000293,0 0,1.411792 -3.376269,0 -0.787672,3.060449 3.058569,0 0,1.402393 -3.434545,0 -1.000097,3.795483 -1.539625,0 0.990698,-3.795483 -2.817944,0 -0.990698,3.795483 -1.547144,0 1.000099,-3.795483 -3.030372,0 0,-1.402393 3.385669,0 0.80835,-3.060449 -3.098047,0 0,-1.411792 3.472143,0 0.981299,-3.804883 z m 0.203027,5.216675 -0.808349,3.060449 2.817944,0 0.787671,-3.060449 -2.797266,0 z"
     id="rect4225"
     inkscape:connector-curvature="0" />
  <path
     style="opacity:1;fill:#2f7ee7;fill-opacity:0.3137255;stroke:none;stroke-width:2.79999995;stroke-miterlimit:4;stroke-dasharray:none;stroke-opacity:0.55026455"
     d="M 22.8125 12.613281 L 21.830078 16.417969 L 18.359375 16.417969 L 18.359375 17.216797 L 21.830078 17.216797 L 22.8125 13.412109 L 24.162109 13.412109 L 24.371094 12.613281 L 22.8125 12.613281 z M 27.1875 12.613281 L 26.179688 16.417969 L 23.580078 16.417969 L 23.371094 17.216797 L 26.179688 17.216797 L 27.1875 13.412109 L 28.519531 13.412109 L 28.728516 12.613281 L 27.1875 12.613281 z M 27.945312 16.417969 L 27.736328 17.216797 L 30.738281 17.216797 L 30.738281 16.417969 L 27.945312 16.417969 z M 21.246094 18.628906 L 20.648438 20.888672 L 17.261719 20.888672 L 17.261719 21.689453 L 20.648438 21.689453 L 21.457031 18.628906 L 21.246094 18.628906 z M 25.607422 18.628906 L 25.025391 20.888672 L 22.417969 20.888672 L 22.207031 21.689453 L 25.025391 21.689453 L 25.8125 18.628906 L 25.607422 18.628906 z M 26.779297 20.888672 L 26.574219 21.689453 L 29.632812 21.689453 L 29.632812 20.888672 L 26.779297 20.888672 z M 20.082031 23.091797 L 19.292969 26.087891 L 19.503906 26.087891 L 20.292969 23.091797 L 20.082031 23.091797 z M 24.439453 23.091797 L 23.658203 26.087891 L 23.867188 26.087891 L 24.648438 23.091797 L 24.439453 23.091797 z M 8.5996094 31.863281 L 8.5996094 32.662109 L 21.353516 32.662109 L 29.775391 39.400391 L 29.775391 38.599609 L 21.353516 31.863281 L 8.5996094 31.863281 z M 29.775391 31.863281 L 29.775391 32.662109 L 39.400391 32.662109 L 39.400391 31.863281 L 29.775391 31.863281 z "
     id="path4271" />
  <path
     style="opacity:1;fill:#ffffff;fill-opacity:0.23529412;stroke:none;stroke-width:2.79999995;stroke-miterlimit:4;stroke-dasharray:none;stroke-opacity:0.55026455"
     d="M 8.5996094 8.5996094 L 8.5996094 9 L 39.400391 9 L 39.400391 8.5996094 L 8.5996094 8.5996094 z M 24.265625 13.8125 L 23.371094 17.216797 L 23.476562 17.216797 L 24.371094 13.8125 L 24.265625 13.8125 z M 28.625 13.8125 L 27.736328 17.216797 L 27.839844 17.216797 L 28.728516 13.8125 L 28.625 13.8125 z M 18.359375 18.628906 L 18.359375 19.029297 L 21.351562 19.029297 L 21.457031 18.628906 L 18.359375 18.628906 z M 23.015625 18.628906 L 22.207031 21.689453 L 22.3125 21.689453 L 23.015625 19.029297 L 25.708984 19.029297 L 25.8125 18.628906 L 23.015625 18.628906 z M 27.361328 18.628906 L 26.574219 21.689453 L 26.677734 21.689453 L 27.361328 19.029297 L 30.738281 19.029297 L 30.738281 18.628906 L 27.361328 18.628906 z M 17.261719 23.091797 L 17.261719 23.492188 L 20.1875 23.492188 L 20.292969 23.091797 L 17.261719 23.091797 z M 21.830078 23.091797 L 20.839844 26.886719 L 19.398438 26.886719 L 19.292969 27.287109 L 20.839844 27.287109 L 21.830078 23.492188 L 24.544922 23.492188 L 24.648438 23.091797 L 21.830078 23.091797 z M 26.197266 23.091797 L 25.197266 26.886719 L 23.761719 26.886719 L 23.658203 27.287109 L 25.197266 27.287109 L 26.197266 23.492188 L 29.632812 23.492188 L 29.632812 23.091797 L 26.197266 23.091797 z "
     id="path4276" />
</svg>
