<?xml version="1.0" encoding="UTF-8" standalone="no"?>
<svg
   xmlns:dc="http://purl.org/dc/elements/1.1/"
   xmlns:cc="http://creativecommons.org/ns#"
   xmlns:rdf="http://www.w3.org/1999/02/22-rdf-syntax-ns#"
   xmlns:svg="http://www.w3.org/2000/svg"
   xmlns="http://www.w3.org/2000/svg"
   xmlns:xlink="http://www.w3.org/1999/xlink"
   xmlns:sodipodi="http://sodipodi.sourceforge.net/DTD/sodipodi-0.dtd"
   xmlns:inkscape="http://www.inkscape.org/namespaces/inkscape"
   viewBox="0 0 48 48"
   width="48"
   height="48"
   id="svg2"
   version="1.1"
   inkscape:version="0.48+devel r"
   sodipodi:docname="chrome-jhknlonaankphkkbnmjdlpehkinifeeg-Default.svg">
  <metadata
     id="metadata30">
    <rdf:RDF>
      <cc:Work
         rdf:about="">
        <dc:format>image/svg+xml</dc:format>
        <dc:type
           rdf:resource="http://purl.org/dc/dcmitype/StillImage" />
        <dc:title></dc:title>
      </cc:Work>
    </rdf:RDF>
  </metadata>
  <sodipodi:namedview
     pagecolor="#ffffff"
     bordercolor="#666666"
     borderopacity="1"
     objecttolerance="10"
     gridtolerance="10"
     guidetolerance="10"
     inkscape:pageopacity="0"
     inkscape:pageshadow="2"
     inkscape:window-width="1366"
     inkscape:window-height="666"
     id="namedview28"
     showgrid="false"
     inkscape:showpageshadow="false"
     borderlayer="true"
     inkscape:zoom="3.2574717"
     inkscape:cx="-0.33879957"
     inkscape:cy="18.999163"
     inkscape:window-x="-2"
     inkscape:window-y="25"
     inkscape:window-maximized="1"
     inkscape:current-layer="svg2" />
  <defs
     id="defs4">
    <linearGradient
       gradientTransform="translate(-3.1091309e-7,1004.3622)"
       inkscape:collect="always"
       xlink:href="#linearGradient5555-1"
       id="linearGradient5561-0"
       x1="27.223612"
       y1="-1052.3843"
       x2="27.223612"
       y2="-1004.3317"
       gradientUnits="userSpaceOnUse" />
    <linearGradient
       gradientTransform="matrix(0.99997461,0,0,0.99997462,-37.281647,0.001)"
       gradientUnits="userSpaceOnUse"
       y2="8.5923328"
       x2="61.3526"
       y1="39.3974"
       x1="61.3526"
       id="linearGradient4062"
       xlink:href="#linearGradient4088"
       inkscape:collect="always" />
    <linearGradient
       inkscape:collect="always"
       id="linearGradient4088">
      <stop
         style="stop-color:#befade;stop-opacity:1"
         offset="0"
         id="stop4090" />
      <stop
         style="stop-color:#f6fefa;stop-opacity:1"
         offset="1"
         id="stop4092" />
    </linearGradient>
    <linearGradient
       id="linearGradient5555-1"
       inkscape:collect="always">
      <stop
         id="stop5557-9"
         offset="0"
         style="stop-color:#0a874c;stop-opacity:1" />
      <stop
         id="stop5559-0"
         offset="1"
         style="stop-color:#0aa35b;stop-opacity:1" />
    </linearGradient>
  </defs>
  <rect
     style="fill:url(#linearGradient5561-0);fill-opacity:1.0;stroke:none"
     id="rect2991-1-7-2"
     width="48"
     height="48"
     x="6.3109132e-06"
     y="-47.999981"
     ry="1.9445436"
     transform="scale(1,-1)" />
  <path
     style="fill:#000000;fill-opacity:0.05882353;fill-rule:evenodd;stroke:none"
     d="M 8.5996094 9.8007812 L 8.5996094 16.798828 L 15.962891 16.798828 L 15.962891 9.8007812 L 8.5996094 9.8007812 z M 17.958984 9.8007812 L 17.958984 16.798828 L 39.400391 16.798828 L 39.400391 9.8007812 L 17.958984 9.8007812 z M 8.5996094 21.699219 L 8.5996094 28.699219 L 15.962891 28.699219 L 15.962891 21.699219 L 8.5996094 21.699219 z M 17.958984 21.699219 L 17.958984 28.699219 L 39.400391 28.699219 L 39.400391 21.699219 L 17.958984 21.699219 z M 8.5996094 33.599609 L 8.5996094 40.599609 L 15.962891 40.599609 L 15.962891 33.599609 L 8.5996094 33.599609 z M 17.958984 33.599609 L 17.958984 40.599609 L 39.400391 40.599609 L 39.400391 33.599609 L 17.958984 33.599609 z "
     id="path4089" />
  <path
     style="fill:#000000;fill-opacity:0.11764706;fill-rule:evenodd;stroke:none"
     d="M 8.5996094 9.4003906 L 8.5996094 16.400391 L 15.962891 16.400391 L 15.962891 9.4003906 L 8.5996094 9.4003906 z M 17.958984 9.4003906 L 17.958984 16.400391 L 39.400391 16.400391 L 39.400391 9.4003906 L 17.958984 9.4003906 z M 8.5996094 21.300781 L 8.5996094 28.300781 L 15.962891 28.300781 L 15.962891 21.300781 L 8.5996094 21.300781 z M 17.958984 21.300781 L 17.958984 28.300781 L 39.400391 28.300781 L 39.400391 21.300781 L 17.958984 21.300781 z M 8.5996094 33.201172 L 8.5996094 40.199219 L 15.962891 40.199219 L 15.962891 33.201172 L 8.5996094 33.201172 z M 17.958984 33.201172 L 17.958984 40.199219 L 39.400391 40.199219 L 39.400391 33.201172 L 17.958984 33.201172 z "
     id="path4087" />
  <path
     style="fill:#000000;fill-opacity:0.23529412;fill-rule:evenodd;stroke:none"
     d="M 8.5996094 9 L 8.5996094 16 L 15.962891 16 L 15.962891 9 L 8.5996094 9 z M 17.958984 9 L 17.958984 16 L 39.400391 16 L 39.400391 9 L 17.958984 9 z M 8.5996094 20.900391 L 8.5996094 27.900391 L 15.962891 27.900391 L 15.962891 20.900391 L 8.5996094 20.900391 z M 17.958984 20.900391 L 17.958984 27.900391 L 39.400391 27.900391 L 39.400391 20.900391 L 17.958984 20.900391 z M 8.5996094 32.800781 L 8.5996094 39.800781 L 15.962891 39.800781 L 15.962891 32.800781 L 8.5996094 32.800781 z M 17.958984 32.800781 L 17.958984 39.800781 L 39.400391 39.800781 L 39.400391 32.800781 L 17.958984 32.800781 z "
     id="path4083" />
  <path
     inkscape:connector-curvature="0"
     style="fill:#000000;fill-opacity:1;stroke:none"
     d="m -6.3109131e-6,45 0,1.0625 C -6.3109131e-6,47.1398 0.86021369,48 1.9374937,48 l 44.1249993,0 c 1.07728,0 1.9375,-0.8602 1.9375,-1.9375 l 0,-1.0625 c 0,1.0773 -0.86022,1.9375 -1.9375,1.9375 l -44.1249993,0 C 0.86021369,46.9375 -6.3109131e-6,46.0773 -6.3109131e-6,45 Z"
     id="rect846-3" />
  <path
     inkscape:connector-curvature="0"
     style="fill:#ffffff;fill-opacity:0.5372549;stroke:none"
     d="m 2.5312437,0.6563 c -0.91709,0 -1.67115001,0.6395 -1.84375001,1.5 C 1.0231037,1.8764 1.4620037,1.7188 1.9374937,1.7188 l 44.1249993,0 c 0.47549,0 0.91439,0.1576 1.25,0.4375 -0.1726,-0.8605 -0.92666,-1.5 -1.84375,-1.5 l -42.9374993,0 z"
     id="path7515-3" />
  <path
     inkscape:connector-curvature="0"
     style="fill:#000000;fill-opacity:0.39215686;stroke:none"
     d="M 1.9374937,0 C 0.86021369,0 -6.3109131e-6,0.8602 -6.3109131e-6,1.9375 l 0,43.0625 c 0,0.7934 0.4800200009131,1.449 1.1562500109131,1.75 C 0.84690369,46.4167 0.65624369,45.9676 0.65624369,45.4688 l 0,-42.9375 c 0,-1.0482 0.82690001,-1.875 1.87500001,-1.875 l 42.9374993,0 c 1.0481,0 1.875,0.8268 1.875,1.875 l 0,42.9375 c 0,0.4988 -0.19066,0.9479 -0.5,1.2812 0.67623,-0.301 1.15625,-0.9566 1.15625,-1.75 l 0,-43.0625 C 47.999993,0.8602 47.139773,0 46.062493,0 L 1.9374937,0 Z"
     id="rect4280-2" />
  <path
     style="fill:url(#linearGradient4062);fill-opacity:1.0;fill-rule:evenodd;stroke:none"
     d="M 8.5996094 8.5996094 L 8.5996094 15.599609 L 15.962891 15.599609 L 15.962891 8.5996094 L 8.5996094 8.5996094 z M 17.958984 8.5996094 L 17.958984 15.599609 L 39.400391 15.599609 L 39.400391 8.5996094 L 17.958984 8.5996094 z M 8.5996094 20.5 L 8.5996094 27.5 L 15.962891 27.5 L 15.962891 20.5 L 8.5996094 20.5 z M 17.958984 20.5 L 17.958984 27.5 L 39.400391 27.5 L 39.400391 20.5 L 17.958984 20.5 z M 8.5996094 32.400391 L 8.5996094 39.400391 L 15.962891 39.400391 L 15.962891 32.400391 L 8.5996094 32.400391 z M 17.958984 32.400391 L 17.958984 39.400391 L 39.400391 39.400391 L 39.400391 32.400391 L 17.958984 32.400391 z "
     id="rect3249" />
  <path
     style="fill:#0a884c;fill-opacity:0.19607843;fill-rule:evenodd;stroke:none"
     d="M 8.5996094 14.800781 L 8.5996094 15.599609 L 15.962891 15.599609 L 15.962891 14.800781 L 8.5996094 14.800781 z M 17.958984 14.800781 L 17.958984 15.599609 L 39.400391 15.599609 L 39.400391 14.800781 L 17.958984 14.800781 z M 8.5996094 26.701172 L 8.5996094 27.5 L 15.962891 27.5 L 15.962891 26.701172 L 8.5996094 26.701172 z M 17.958984 26.701172 L 17.958984 27.5 L 39.400391 27.5 L 39.400391 26.701172 L 17.958984 26.701172 z M 8.5996094 38.599609 L 8.5996094 39.400391 L 15.962891 39.400391 L 15.962891 38.599609 L 8.5996094 38.599609 z M 17.958984 38.599609 L 17.958984 39.400391 L 39.400391 39.400391 L 39.400391 38.599609 L 17.958984 38.599609 z "
     id="path4073" />
  <path
     style="fill:#ffffff;fill-opacity:0.23529412;fill-rule:evenodd;stroke:none"
     d="M 8.5996094 8.5996094 L 8.5996094 9 L 15.962891 9 L 15.962891 8.5996094 L 8.5996094 8.5996094 z M 17.958984 8.5996094 L 17.958984 9 L 39.400391 9 L 39.400391 8.5996094 L 17.958984 8.5996094 z M 8.5996094 20.5 L 8.5996094 20.900391 L 15.962891 20.900391 L 15.962891 20.5 L 8.5996094 20.5 z M 17.958984 20.5 L 17.958984 20.900391 L 39.400391 20.900391 L 39.400391 20.5 L 17.958984 20.5 z M 8.5996094 32.400391 L 8.5996094 32.800781 L 15.962891 32.800781 L 15.962891 32.400391 L 8.5996094 32.400391 z M 17.958984 32.400391 L 17.958984 32.800781 L 39.400391 32.800781 L 39.400391 32.400391 L 17.958984 32.400391 z "
     id="path4078" />
</svg>
