<?xml version="1.0" encoding="UTF-8" standalone="no"?>
<!-- Created with Inkscape (http://www.inkscape.org/) -->

<svg
   xmlns:dc="http://purl.org/dc/elements/1.1/"
   xmlns:cc="http://creativecommons.org/ns#"
   xmlns:rdf="http://www.w3.org/1999/02/22-rdf-syntax-ns#"
   xmlns:svg="http://www.w3.org/2000/svg"
   xmlns="http://www.w3.org/2000/svg"
   xmlns:sodipodi="http://sodipodi.sourceforge.net/DTD/sodipodi-0.dtd"
   xmlns:inkscape="http://www.inkscape.org/namespaces/inkscape"
   width="48"
   height="48"
   id="svg2"
   version="1.1"
   inkscape:version="0.48+devel r12487"
   sodipodi:docname="wine.svg">
  <defs
     id="defs4" />
  <sodipodi:namedview
     id="base"
     pagecolor="#ffffff"
     bordercolor="#666666"
     borderopacity="1.0"
     inkscape:pageopacity="0.0"
     inkscape:pageshadow="2"
     inkscape:zoom="5.6568546"
     inkscape:cx="26.992344"
     inkscape:cy="23.620021"
     inkscape:document-units="px"
     inkscape:current-layer="layer1"
     showgrid="false"
     inkscape:window-width="1366"
     inkscape:window-height="716"
     inkscape:window-x="0"
     inkscape:window-y="28"
     inkscape:window-maximized="1">
    <inkscape:grid
       type="xygrid"
       id="grid3783" />
  </sodipodi:namedview>
  <metadata
     id="metadata7">
    <rdf:RDF>
      <cc:Work
         rdf:about="">
        <dc:format>image/svg+xml</dc:format>
        <dc:type
           rdf:resource="http://purl.org/dc/dcmitype/StillImage" />
        <dc:title />
      </cc:Work>
    </rdf:RDF>
  </metadata>
  <g
     inkscape:label="Capa 1"
     inkscape:groupmode="layer"
     id="layer1"
     transform="translate(0,-1004.3622)">
    <rect
       style="fill:#f0005f;fill-opacity:1;stroke:none"
       id="rect2991-1"
       width="48"
       height="48"
       x="1.272705e-06"
       y="-1052.3622"
       ry="1.9445436"
       transform="scale(1,-1)" />
    <path
       inkscape:connector-curvature="0"
       style="fill:#000000;fill-opacity:1;stroke:none"
       d="m -1.2727051e-6,1049.3622 0,1.0625 c 0,1.0773 0.8602230027051,1.9375 1.9375009727051,1.9375 l 44.1250003,0 c 1.07728,0 1.9375,-0.8602 1.9375,-1.9375 l 0,-1.0625 c 0,1.0773 -0.86022,1.9375 -1.9375,1.9375 l -44.1250003,0 C 0.86022173,1051.2997 -1.2727051e-6,1050.4395 -1.2727051e-6,1049.3622 Z"
       id="rect846" />
    <path
       inkscape:connector-curvature="0"
       style="fill:#ffffff;fill-opacity:0.5372549;stroke:none"
       d="m 2.5312497,1005.0185 c -0.91709,0 -1.67114797,0.6395 -1.84375097,1.5 0.33561197,-0.2799 0.77451097,-0.4375 1.25000097,-0.4375 l 44.1250003,0 c 0.47549,0 0.91439,0.1576 1.25,0.4375 -0.1726,-0.8605 -0.92666,-1.5 -1.84375,-1.5 L 2.5312497,1005.0185 Z"
       id="path7515" />
    <path
       inkscape:connector-curvature="0"
       style="fill:#000000;fill-opacity:0.39215686;stroke:none"
       d="m 1.9374997,1004.3622 c -1.07727797,0 -1.9375009727051,0.8602 -1.9375009727051,1.9375 l 0,43.0625 c 0,0.7934 0.4800230027051,1.449 1.1562499727051,1.75 -0.30934197,-0.3333 -0.49999997,-0.7824 -0.49999997,-1.2812 l 0,-42.9375 c 0,-1.0482 0.82690097,-1.875 1.87500097,-1.875 l 42.9375003,0 c 1.0481,0 1.875,0.8268 1.875,1.875 l 0,42.9375 c 0,0.4988 -0.19066,0.9479 -0.5,1.2812 0.67622,-0.301 1.15625,-0.9566 1.15625,-1.75 l 0,-43.0625 c 0,-1.0773 -0.86022,-1.9375 -1.9375,-1.9375 L 1.9374997,1004.3622 Z"
       id="rect4280-7" />
    <path
       style="fill:#ffffff;fill-opacity:1"
       d="m 38.575434,1040.3192 c 0.01003,-2.2248 0.01745,-5.6198 0.01745,-7.5449 l 0,-3.5001 -0.08502,0 c -0.04673,0 -3.7273,-0.041 -8.179006,-0.091 -4.451696,-0.05 -8.255817,-0.091 -8.453594,-0.091 l -0.359583,0 0,5.9494 c 0,3.2724 0.003,5.95 0.007,5.9504 0.004,0 3.819481,0.7581 8.479744,1.684 4.660261,0.926 8.491855,1.6848 8.514645,1.6862 C 38.554158,1044.3636 38.559643,1043.9871 38.575434,1040.3192 z m -18.516425,-5.4276 c 0.009,-3.196 0.01394,-5.8129 0.01083,-5.8153 -0.006,0 -10.1384772,-0.1178 -10.4598286,-0.1166 l -0.2026705,0 0,4.8115 0,4.8114 0.058854,0.015 c 0.04602,0.011 10.4994621,2.0924 10.5610641,2.1023 C 20.035668,1040.7016 20.049965,1038.0876 20.059009,1034.8916 z m -5.107462,-7.1604 c 2.409238,-0.028 4.548128,-0.051 4.753095,-0.052 l 0.372665,0 0,-5.8218 0,-5.822 -0.07188,0.013 c -0.03951,0.01 -2.440219,0.4824 -5.334799,1.0557 l -5.26288,1.0423 -2.106e-4,4.8185 -4.211e-4,4.8185 0.5818844,0 C 10.309251,1027.7829 12.542298,1027.7595 14.951547,1027.7312 z m 15.427766,-0.1702 c 4.508224,-0.05 8.200563,-0.095 8.205196,-0.1003 0.005,0 0.005,-3.4038 0.002,-7.5534 l -0.007,-7.5451 -7.754033,1.5387 c -4.264718,0.8463 -8.101203,1.607 -8.525514,1.6906 l -0.771481,0.1519 -0.007,5.9547 -0.007,5.9547 0.333485,0 C 22.032468,1027.6527 25.871088,1027.6115 30.379313,1027.561 Z"
       id="path858"
       inkscape:connector-curvature="0"
       sodipodi:nodetypes="ssccsccssscsscccccscssccccssccccsssscssccccs" />
  </g>
</svg>
