<?xml version="1.0" encoding="UTF-8" standalone="no"?>
<!-- Created with Inkscape (http://www.inkscape.org/) -->

<svg
   xmlns:dc="http://purl.org/dc/elements/1.1/"
   xmlns:cc="http://creativecommons.org/ns#"
   xmlns:rdf="http://www.w3.org/1999/02/22-rdf-syntax-ns#"
   xmlns:svg="http://www.w3.org/2000/svg"
   xmlns="http://www.w3.org/2000/svg"
   xmlns:sodipodi="http://sodipodi.sourceforge.net/DTD/sodipodi-0.dtd"
   xmlns:inkscape="http://www.inkscape.org/namespaces/inkscape"
   width="48"
   height="48"
   id="svg2"
   version="1.1"
   inkscape:version="0.48+devel r12487"
   sodipodi:docname="wine-winetricks.svg">
  <defs
     id="defs4" />
  <sodipodi:namedview
     id="base"
     pagecolor="#ffffff"
     bordercolor="#666666"
     borderopacity="1.0"
     inkscape:pageopacity="0.0"
     inkscape:pageshadow="2"
     inkscape:zoom="8.0000005"
     inkscape:cx="21.257902"
     inkscape:cy="21.313816"
     inkscape:document-units="px"
     inkscape:current-layer="layer1"
     showgrid="false"
     inkscape:window-width="1366"
     inkscape:window-height="716"
     inkscape:window-x="0"
     inkscape:window-y="28"
     inkscape:window-maximized="1">
    <inkscape:grid
       type="xygrid"
       id="grid3850" />
  </sodipodi:namedview>
  <metadata
     id="metadata7">
    <rdf:RDF>
      <cc:Work
         rdf:about="">
        <dc:format>image/svg+xml</dc:format>
        <dc:type
           rdf:resource="http://purl.org/dc/dcmitype/StillImage" />
        <dc:title />
      </cc:Work>
    </rdf:RDF>
  </metadata>
  <g
     inkscape:label="Capa 1"
     inkscape:groupmode="layer"
     id="layer1"
     transform="translate(0,-1004.3622)">
    <rect
       style="fill:#e54f3a;fill-opacity:1;stroke:none"
       id="rect2991-1-7"
       width="48"
       height="48"
       x="5.9468384e-06"
       y="-1052.3622"
       ry="1.9445436"
       transform="scale(1,-1)" />
    <path
       inkscape:connector-curvature="0"
       style="fill:#000000;fill-opacity:1;stroke:none"
       d="m -5.9468384e-6,1049.3622 0,1.0625 c 0,1.0773 0.8602199968384,1.9375 1.9375000468384,1.9375 l 44.1249999,0 c 1.07728,0 1.9375,-0.8602 1.9375,-1.9375 l 0,-1.0625 c 0,1.0773 -0.86022,1.9375 -1.9375,1.9375 l -44.1249999,0 C 0.86021405,1051.2997 -5.9468384e-6,1050.4395 -5.9468384e-6,1049.3622 Z"
       id="rect846" />
    <path
       inkscape:connector-curvature="0"
       style="fill:#ffffff;fill-opacity:0.5372549;stroke:none"
       d="m 2.5312441,1005.0185 c -0.91709,0 -1.67115005,0.6395 -1.84375005,1.5 0.33561005,-0.2799 0.77451005,-0.4375 1.25000005,-0.4375 l 44.1249999,0 c 0.47549,0 0.91439,0.1576 1.25,0.4375 -0.1726,-0.8605 -0.92666,-1.5 -1.84375,-1.5 L 2.5312441,1005.0185 Z"
       id="path7515" />
    <path
       inkscape:connector-curvature="0"
       style="fill:#000000;fill-opacity:0.39215686;stroke:none"
       d="m 1.9374941,1004.3622 c -1.07728005,0 -1.9375000468384,0.8602 -1.9375000468384,1.9375 l 0,43.0625 c 0,0.7934 0.4800199968384,1.449 1.1562500468384,1.75 -0.30934005,-0.3333 -0.50000005,-0.7824 -0.50000005,-1.2812 l 0,-42.9375 c 0,-1.0482 0.82690005,-1.875 1.87500005,-1.875 l 42.9374999,0 c 1.0481,0 1.875,0.8268 1.875,1.875 l 0,42.9375 c 0,0.4988 -0.19066,0.9479 -0.5,1.2812 0.67623,-0.301 1.15625,-0.9566 1.15625,-1.75 l 0,-43.0625 c 0,-1.0773 -0.86022,-1.9375 -1.9375,-1.9375 L 1.9374941,1004.3622 Z"
       id="rect4280" />
    <g
       transform="matrix(0.43232143,0,0,0.43232143,-183.69716,793.36589)"
       id="_x32__action_settings"
       style="fill:#ffffff">
      <path
         style="fill:#ffffff"
         inkscape:connector-curvature="0"
         d="m 464.538,530.565 c -2.811,0 -5.121,2.3 -5.121,5.121 l 0,15.765 c 0,2.82 2.311,5.121 5.121,5.121 l 1.76,0 c 2.811,0 5.122,-2.301 5.122,-5.121 l 0,-15.765 c 0,-2.821 -2.312,-5.121 -5.122,-5.121 L 464.538,530.565 z m 30.009,24.007 c -2.811,0 -5.121,2.299 -5.121,5.121 l 0,15.764 c 0,2.822 2.311,5.121 5.121,5.121 l 1.761,0 c 2.81,0 5.122,-2.299 5.122,-5.121 l 0,-15.764 c 0,-2.822 -2.313,-5.121 -5.122,-5.121 L 494.547,554.572 z m 0,-48.013 c -2.811,0 -5.121,2.301 -5.121,5.121 l 0,15.765 c 0,2.821 2.311,5.122 5.121,5.122 l 1.761,0 c 2.821,0 5.122,-2.301 5.122,-5.122 l 0,-15.765 c 0,-2.82 -2.301,-5.121 -5.122,-5.121 L 494.547,506.559 z m -8.122,11.003 -42.013,0 0,4.001 42.013,0 L 486.425,517.562 z m 30.009,4.001 0,-4.001 -12.004,0 0,4.001 L 516.434,521.563 z m -60.019,20.005 -12.003,0 0,4 12.003,0 L 456.415,541.568 z m 60.019,4 0,-4 -42.013,0 0,4 L 516.434,545.568 z m -30.009,20.006 -42.013,0 0,4.002 42.013,0 L 486.425,565.574 z m 30.009,4.002 0,-4.002 -12.004,0 0,4.002 L 516.434,569.576 Z"
         id="path1128" />
    </g>
  </g>
</svg>
