<?xml version="1.0" encoding="UTF-8" standalone="no"?>
<!-- Created with Inkscape (http://www.inkscape.org/) -->

<svg
   xmlns:dc="http://purl.org/dc/elements/1.1/"
   xmlns:cc="http://creativecommons.org/ns#"
   xmlns:rdf="http://www.w3.org/1999/02/22-rdf-syntax-ns#"
   xmlns:svg="http://www.w3.org/2000/svg"
   xmlns="http://www.w3.org/2000/svg"
   xmlns:xlink="http://www.w3.org/1999/xlink"
   xmlns:sodipodi="http://sodipodi.sourceforge.net/DTD/sodipodi-0.dtd"
   xmlns:inkscape="http://www.inkscape.org/namespaces/inkscape"
   width="48"
   height="48"
   id="svg2"
   version="1.1"
   inkscape:version="0.48+devel r12487"
   sodipodi:docname="winusbgui-icon.svg">
  <defs
     id="defs4">
    <linearGradient
       inkscape:collect="always"
       id="linearGradient3282">
      <stop
         style="stop-color:#000000;stop-opacity:1;"
         offset="0"
         id="stop3284" />
      <stop
         style="stop-color:#000000;stop-opacity:0;"
         offset="1"
         id="stop3286" />
    </linearGradient>
    <linearGradient
       id="linearGradient3244"
       inkscape:collect="always">
      <stop
         id="stop3246"
         offset="0"
         style="stop-color:#7d7b85;stop-opacity:1" />
      <stop
         id="stop3248"
         offset="1"
         style="stop-color:#9fa1aa;stop-opacity:1" />
    </linearGradient>
    <linearGradient
       inkscape:collect="always"
       id="linearGradient3225">
      <stop
         style="stop-color:#dbdedd;stop-opacity:1"
         offset="0"
         id="stop3227" />
      <stop
         style="stop-color:#e0e2e1;stop-opacity:1"
         offset="1"
         id="stop3229" />
    </linearGradient>
    <linearGradient
       inkscape:collect="always"
       xlink:href="#linearGradient3225"
       id="linearGradient3231"
       x1="25.455843"
       y1="-1052.3827"
       x2="25.455843"
       y2="-1004.3513"
       gradientUnits="userSpaceOnUse" />
    <linearGradient
       inkscape:collect="always"
       xlink:href="#linearGradient3244"
       id="linearGradient3241"
       gradientUnits="userSpaceOnUse"
       x1="25.455843"
       y1="-1033.114"
       x2="25.455843"
       y2="-1004.3513"
       gradientTransform="matrix(1,0,0,-1,0,-1004.3622)" />
    <linearGradient
       inkscape:collect="always"
       xlink:href="#linearGradient3282"
       id="linearGradient3288"
       x1="24.125"
       y1="7.5"
       x2="24.125"
       y2="11.25"
       gradientUnits="userSpaceOnUse" />
    <linearGradient
       inkscape:collect="always"
       xlink:href="#linearGradient3282"
       id="linearGradient3292"
       gradientUnits="userSpaceOnUse"
       x1="24.125"
       y1="7.5"
       x2="24.125"
       y2="11.25"
       gradientTransform="matrix(1,0,0,-1,0,1033.0885)" />
  </defs>
  <sodipodi:namedview
     id="base"
     pagecolor="#ffffff"
     bordercolor="#666666"
     borderopacity="1.0"
     inkscape:pageopacity="0.0"
     inkscape:pageshadow="2"
     inkscape:zoom="11.313708"
     inkscape:cx="26.096032"
     inkscape:cy="26.215178"
     inkscape:document-units="px"
     inkscape:current-layer="layer1"
     showgrid="false"
     inkscape:window-width="1366"
     inkscape:window-height="716"
     inkscape:window-x="0"
     inkscape:window-y="28"
     inkscape:window-maximized="1"
     showguides="false">
    <inkscape:grid
       type="xygrid"
       id="grid3803" />
  </sodipodi:namedview>
  <metadata
     id="metadata7">
    <rdf:RDF>
      <cc:Work
         rdf:about="">
        <dc:format>image/svg+xml</dc:format>
        <dc:type
           rdf:resource="http://purl.org/dc/dcmitype/StillImage" />
        <dc:title />
      </cc:Work>
    </rdf:RDF>
  </metadata>
  <g
     inkscape:label="Capa 1"
     inkscape:groupmode="layer"
     id="layer1"
     transform="translate(0,-1004.3622)">
    <rect
       style="fill:url(#linearGradient3231);fill-opacity:1;stroke:none"
       id="rect2991-1-7"
       width="48"
       height="48"
       x="5.3146973e-06"
       y="-1052.3622"
       ry="1.9445436"
       transform="scale(1,-1)" />
    <path
       style="fill:url(#linearGradient3241);fill-opacity:1;stroke:none"
       d="M 1.9375 0 C 0.86022285 0 0 0.86022285 0 1.9375 L 0 28.71875 L 48 28.71875 L 48 1.9375 C 48 0.86022285 47.139777 0 46.0625 0 L 1.9375 0 z "
       id="rect3237"
       transform="translate(0,1004.3622)" />
    <path
       style="fill:#ffffff;fill-opacity:1"
       d="M 0 28.71875 L 0 29.15625 L 48 29.15625 L 48 28.71875 L 0 28.71875 z "
       transform="translate(0,1004.3622)"
       id="rect3257" />
    <path
       inkscape:connector-curvature="0"
       style="fill:#000000;fill-opacity:0.39215686;stroke:none"
       d="m 1.9374947,1004.3622 c -1.07728001,0 -1.9375000146973,0.8602 -1.9375000146973,1.9375 l 0,43.0625 c 0,0.7934 0.4800200046973,1.449 1.1562500146973,1.75 -0.30934001,-0.3333 -0.50000001,-0.7824 -0.50000001,-1.2812 l 0,-42.9375 c 0,-1.0482 0.82690001,-1.875 1.87500001,-1.875 l 42.9375003,0 c 1.0481,0 1.875,0.8268 1.875,1.875 l 0,42.9375 c 0,0.4988 -0.19066,0.9479 -0.5,1.2812 0.67623,-0.301 1.15625,-0.9566 1.15625,-1.75 l 0,-43.0625 c 0,-1.0773 -0.86022,-1.9375 -1.9375,-1.9375 L 1.9374947,1004.3622 Z"
       id="rect4280-8" />
    <path
       inkscape:connector-curvature="0"
       style="fill:#ffffff;fill-opacity:0.5372549;stroke:none"
       d="m 2.5312447,1005.0185 c -0.91709,0 -1.67115001,0.6395 -1.84375001,1.5 0.33561001,-0.2799 0.77451001,-0.4375 1.25000001,-0.4375 l 44.1250003,0 c 0.47549,0 0.91439,0.1576 1.25,0.4375 -0.1726,-0.8605 -0.92666,-1.5 -1.84375,-1.5 L 2.5312447,1005.0185 Z"
       id="path7515" />
    <path
       inkscape:connector-curvature="0"
       style="fill:#000000;fill-opacity:1;stroke:none"
       d="m -5.3146973e-6,1049.3622 0,1.0625 c 0,1.0773 0.8602200046973,1.9375 1.9375000146973,1.9375 l 44.1250003,0 c 1.07728,0 1.9375,-0.8602 1.9375,-1.9375 l 0,-1.0625 c 0,1.0773 -0.86022,1.9375 -1.9375,1.9375 l -44.1250003,0 C 0.86021469,1051.2997 -5.3146973e-6,1050.4395 -5.3146973e-6,1049.3622 Z"
       id="rect846" />
    <rect
       style="fill:#464a4e;fill-opacity:1"
       id="rect3262"
       width="9.8111067"
       height="9.8111067"
       x="8.1342916"
       y="1013.816"
       ry="1.237437" />
    <rect
       ry="1.237437"
       y="1013.816"
       x="30.054602"
       height="9.8111067"
       width="9.8111067"
       id="rect3264"
       style="fill:#464a4e;fill-opacity:1" />
    <g
       id="g4139"
       transform="matrix(1,0,0,0.64657082,2.4852052,358.69211)">
      <g
         id="g4135">
        <path
           style="fill:#e3d83f;fill-opacity:1"
           d="m 9.5546396,1013.2997 0,15.0313 1.0000004,0 0,-15.0313 L 9.5546396,1013.2997 Z"
           id="path4121"
           inkscape:connector-curvature="0" />
        <path
           style="fill:#e19805;fill-opacity:1"
           d="m 8.5546396,1013.2997 0,15.0313 1,0 0,-15.0313 L 8.5546396,1013.2997 Z"
           id="path4125"
           inkscape:connector-curvature="0" />
      </g>
      <g
         transform="translate(-0.09375,0)"
         id="g4131">
        <path
           inkscape:connector-curvature="0"
           id="path4127"
           d="m 11.64839,1013.2997 0,15.0313 1,0 0,-15.0313 L 11.64839,1013.2997 Z"
           style="fill:#e3d83f;fill-opacity:1" />
        <path
           inkscape:connector-curvature="0"
           id="path4129"
           d="m 10.64839,1013.2997 0,15.0313 1,0 0,-15.0313 L 10.64839,1013.2997 Z"
           style="fill:#e19805;fill-opacity:1" />
      </g>
    </g>
    <g
       transform="matrix(1,0,0,0.64657082,24.405515,358.69211)"
       id="g4147">
      <g
         id="g4149">
        <path
           inkscape:connector-curvature="0"
           id="path4151"
           d="m 9.5546396,1013.2997 0,15.0313 1.0000004,0 0,-15.0313 L 9.5546396,1013.2997 Z"
           style="fill:#e3d83f;fill-opacity:1" />
        <path
           inkscape:connector-curvature="0"
           id="path4153"
           d="m 8.5546396,1013.2997 0,15.0313 1,0 0,-15.0313 L 8.5546396,1013.2997 Z"
           style="fill:#e19805;fill-opacity:1" />
      </g>
      <g
         id="g4155"
         transform="translate(-0.09375,0)">
        <path
           style="fill:#e3d83f;fill-opacity:1"
           d="m 11.64839,1013.2997 0,15.0313 1,0 0,-15.0313 L 11.64839,1013.2997 Z"
           id="path4157"
           inkscape:connector-curvature="0" />
        <path
           style="fill:#e19805;fill-opacity:1"
           d="m 10.64839,1013.2997 0,15.0313 1,0 0,-15.0313 L 10.64839,1013.2997 Z"
           id="path4159"
           inkscape:connector-curvature="0" />
      </g>
    </g>
    <path
       style="fill:url(#linearGradient3288);fill-opacity:1"
       d="M 9.125 9.46875 C 8.5601052 9.5837591 8.125 10.087652 8.125 10.6875 L 8.125 12.1875 C 8.125 11.5877 8.5601052 11.08385 9.125 10.96875 C 9.2056993 10.95235 9.2893075 10.96875 9.375 10.96875 L 16.71875 10.96875 C 17.40429 10.96875 17.9375 11.502 17.9375 12.1875 L 17.9375 10.6875 C 17.9375 10.00196 17.40429 9.46875 16.71875 9.46875 L 9.375 9.46875 C 9.2893075 9.46875 9.2056993 9.4523201 9.125 9.46875 z M 31.03125 9.46875 C 30.466355 9.5837591 30.0625 10.087652 30.0625 10.6875 L 30.0625 12.1875 C 30.0625 11.5877 30.466355 11.08385 31.03125 10.96875 C 31.111949 10.95235 31.195557 10.96875 31.28125 10.96875 L 38.625 10.96875 C 39.31054 10.96875 39.875 11.502 39.875 12.1875 L 39.875 10.6875 C 39.875 10.00196 39.31054 9.46875 38.625 9.46875 L 31.28125 9.46875 C 31.195557 9.46875 31.111949 9.4523201 31.03125 9.46875 z "
       transform="translate(0,1004.3622)"
       id="rect3272" />
    <path
       id="path3290"
       d="m 9.125,1023.6198 c -0.5648948,-0.115 -1,-0.6189 -1,-1.2188 l 0,-1.5 c 0,0.5998 0.4351052,1.1037 1,1.2188 0.080699,0.016 0.1643075,0 0.25,0 l 7.34375,0 c 0.68554,0 1.21875,-0.5333 1.21875,-1.2188 l 0,1.5 c 0,0.6856 -0.53321,1.2188 -1.21875,1.2188 l -7.34375,0 C 9.2893075,1023.6198 9.2056993,1023.6362 9.125,1023.6198 z m 21.90625,0 c -0.564895,-0.115 -0.96875,-0.6189 -0.96875,-1.2188 l 0,-1.5 c 0,0.5998 0.403855,1.1037 0.96875,1.2188 0.0807,0.016 0.164307,0 0.25,0 l 7.34375,0 c 0.68554,0 1.25,-0.5333 1.25,-1.2188 l 0,1.5 c 0,0.6856 -0.56446,1.2188 -1.25,1.2188 l -7.34375,0 C 31.195557,1023.6198 31.111949,1023.6362 31.03125,1023.6198 Z"
       style="fill:url(#linearGradient3292);fill-opacity:1"
       inkscape:connector-curvature="0" />
    <path
       style="fill:#ffffff;fill-opacity:0.53725493"
       d="m 8.125,1022.4014 0,0.3125 c 0,0.6855 0.5644599,1.2187 1.25,1.2187 l 7.34375,0 c 0.68554,0 1.21875,-0.5332 1.21875,-1.2187 l 0,-0.3125 c 0,0.6855 -0.53321,1.2187 -1.21875,1.2187 l -7.34375,0 C 8.6894599,1023.6201 8.125,1023.0869 8.125,1022.4014 z m 21.9375,0 0,0.3125 c 0,0.6855 0.53321,1.2187 1.21875,1.2187 l 7.34375,0 c 0.68554,0 1.25,-0.5332 1.25,-1.2187 l 0,-0.3125 c 0,0.6855 -0.56446,1.2187 -1.25,1.2187 l -7.34375,0 C 30.59571,1023.6201 30.0625,1023.0869 30.0625,1022.4014 Z"
       id="rect3296"
       inkscape:connector-curvature="0" />
    <path
       id="path4106"
       d="m 8.125,1015.0399 0,-0.3125 c 0,-0.6855 0.5644599,-1.2187 1.25,-1.2187 l 7.34375,0 c 0.68554,0 1.21875,0.5332 1.21875,1.2187 l 0,0.3125 c 0,-0.6855 -0.53321,-1.2187 -1.21875,-1.2187 l -7.34375,0 C 8.6894599,1013.8212 8.125,1014.3544 8.125,1015.0399 z m 21.9375,0 0,-0.3125 c 0,-0.6855 0.53321,-1.2187 1.21875,-1.2187 l 7.34375,0 c 0.68554,0 1.25,0.5332 1.25,1.2187 l 0,0.3125 c 0,-0.6855 -0.56446,-1.2187 -1.25,-1.2187 l -7.34375,0 C 30.59571,1013.8212 30.0625,1014.3544 30.0625,1015.0399 Z"
       style="fill:#000000;fill-opacity:0.81176472"
       inkscape:connector-curvature="0" />
    <path
       style="fill:#000000;fill-opacity:0.5372549"
       d="m 30.37676,1047.5929 c 0.0044,-0.9734 0.0076,-2.4587 0.0076,-3.3009 l 0,-1.5313 -0.0372,0 c -0.02044,0 -1.630691,-0.018 -3.578309,-0.039 -1.947614,-0.022 -3.611914,-0.04 -3.698441,-0.04 l -0.157318,0 0,2.6027 c 0,1.4318 0.0013,2.6032 0.0031,2.6033 0.0018,0 1.67102,0.3318 3.709881,0.7368 2.038861,0.4051 3.715181,0.7371 3.725151,0.7377 C 30.367451,1049.3623 30.369851,1049.1975 30.37676,1047.5929 z m -8.100923,-2.3747 c 0.0039,-1.3982 0.0061,-2.5431 0.0047,-2.5441 -0.0026,0 -4.435576,-0.052 -4.576166,-0.051 l -0.08867,0 0,2.1051 0,2.105 0.02574,0.01 c 0.02013,0.01 4.593508,0.9155 4.620458,0.9197 C 22.265626,1047.7602 22.271881,1046.6166 22.275837,1045.2182 z m -2.23451,-3.1325 c 1.05404,-0.012 1.989801,-0.022 2.079476,-0.023 l 0.16304,0 0,-2.547 0,-2.5472 -0.03145,0.01 c -0.01728,0.01 -1.067594,0.211 -2.33397,0.4619 l -2.302506,0.456 -9.2e-5,2.1081 -1.84e-4,2.108 0.254574,0 C 18.010326,1042.1083 18.987282,1042.0981 20.041327,1042.0857 z m 6.749636,-0.074 c 1.972344,-0.022 3.58774,-0.041 3.589766,-0.044 0.0022,0 0.0022,-1.4891 8.75e-4,-3.3046 l -0.0031,-3.3009 -3.392383,0.6732 c -1.865811,0.3702 -3.54427,0.703 -3.729906,0.7397 l -0.337522,0.066 -0.0031,2.6052 -0.0031,2.6051 0.1459,0 C 23.139225,1042.0514 24.818618,1042.0333 26.790963,1042.0112 Z"
       id="path858"
       inkscape:connector-curvature="0"
       sodipodi:nodetypes="ssccsccssscsscccccscssccccssccccsssscssccccs" />
    <path
       style="fill:#ffffff;fill-opacity:0.23529412"
       d="m 30.374971,1041.9675 c -0.002,0 -1.590156,0.01 -3.5625,0.031 -1.972345,0.022 -3.669167,0.062 -3.75,0.062 l -0.15625,0 0,0.2813 0.15625,0 c 0.08083,0 1.777655,-0.01 3.75,-0.031 1.972344,-0.022 3.560474,-0.06 3.5625,-0.062 C 30.37516,1042.2487 30.374814,1041.9886 30.374971,1041.9675 z m -8.25,0.094 c -0.08967,10e-4 -1.00846,0.019 -2.0625,0.031 -1.054045,0.012 -2.047389,0.027 -2.1875,0.031 l -0.25,0 0,0.2813 0.25,0 c 0.140111,0 1.133455,-0.019 2.1875,-0.031 1.05404,-0.012 1.972826,-0.03 2.0625,-0.031 l 0.15625,0 0,-0.2813 L 22.124971,1042.0612 z m -4.5,4.7813 0,0.2812 0.03125,0 c 0.02013,0.01 4.598049,0.9333 4.625,0.9375 4.54e-4,-3e-4 -5.21e-4,-0.2798 0,-0.3125 -0.02695,0 -4.60487,-0.8962 -4.625,-0.9062 L 17.624971,1046.8425 z m 5.3125,1.0312 c 2.01e-4,0.032 -2.17e-4,0.3125 0,0.3125 0.0018,0 1.648639,0.3138 3.6875,0.7188 2.038861,0.4051 3.70878,0.7494 3.71875,0.75 0.0028,0 -0.0021,-0.2955 0,-0.3125 -0.01,-6e-4 -1.679889,-0.3137 -3.71875,-0.7188 C 24.58611,1048.2187 22.939271,1047.8737 22.937471,1047.8737 Z"
       id="path857"
       inkscape:connector-curvature="0" />
    <path
       style="fill:#000000;fill-opacity:0.5372549"
       d="m 30.359375,1035.3622 -3.375,0.6875 c -1.865811,0.3702 -3.564364,0.6821 -3.75,0.7188 l -0.3125,0.062 0,0.4062 0.3125,-0.062 c 0.185636,-0.037 1.884189,-0.3485 3.75,-0.7187 l 3.375,-0.6875 L 30.359375,1035.3622 z m -8.09375,1.5938 -0.03125,0.031 c -0.01728,0.01 -1.046124,0.2179 -2.3125,0.4688 l -2.3125,0.4375 0,0.4062 2.3125,-0.4375 c 1.266376,-0.2509 2.29522,-0.4587 2.3125,-0.4687 l 0.03125,-0.031 L 22.265625,1036.956 z m -4.65625,5.6562 0,0.4063 0.09375,0 c 0.14059,-10e-4 4.5599,0.062 4.5625,0.062 -4.7e-5,-0.055 2.25e-4,-0.4061 0,-0.4063 -0.0026,0 -4.42191,-0.063 -4.5625,-0.062 L 17.609375,1042.6122 z m 5.28125,0.062 0,0.4063 0.15625,0 c 0.08653,0 1.771136,0.041 3.71875,0.062 1.947618,0.021 3.54206,0.031 3.5625,0.031 l 0.0625,0 0,-0.4062 -0.0625,0 c -0.02044,0 -1.614882,-0.01 -3.5625,-0.031 -1.947614,-0.022 -3.632223,-0.062 -3.71875,-0.062 L 22.890625,1042.6747 Z"
       id="path862"
       inkscape:connector-curvature="0" />
  </g>
</svg>
