<?xml version="1.0" encoding="UTF-8" standalone="no"?>
<svg
   xmlns:dc="http://purl.org/dc/elements/1.1/"
   xmlns:cc="http://creativecommons.org/ns#"
   xmlns:rdf="http://www.w3.org/1999/02/22-rdf-syntax-ns#"
   xmlns:svg="http://www.w3.org/2000/svg"
   xmlns="http://www.w3.org/2000/svg"
   xmlns:xlink="http://www.w3.org/1999/xlink"
   xmlns:sodipodi="http://sodipodi.sourceforge.net/DTD/sodipodi-0.dtd"
   xmlns:inkscape="http://www.inkscape.org/namespaces/inkscape"
   width="48"
   viewBox="0 0 13.546667 13.546667"
   height="48"
   id="svg2"
   version="1.1"
   inkscape:version="0.48+devel r"
   sodipodi:docname="chrome-khjnjifipfkgglficmipimgjpbmlbemd-Default.svg">
  <metadata
     id="metadata270">
    <rdf:RDF>
      <cc:Work
         rdf:about="">
        <dc:format>image/svg+xml</dc:format>
        <dc:type
           rdf:resource="http://purl.org/dc/dcmitype/StillImage" />
        <dc:title></dc:title>
      </cc:Work>
    </rdf:RDF>
  </metadata>
  <sodipodi:namedview
     pagecolor="#ffffff"
     bordercolor="#666666"
     borderopacity="1"
     objecttolerance="10"
     gridtolerance="10"
     guidetolerance="10"
     inkscape:pageopacity="0"
     inkscape:pageshadow="2"
     inkscape:window-width="1366"
     inkscape:window-height="666"
     id="namedview268"
     showgrid="false"
     inkscape:showpageshadow="false"
     borderlayer="true"
     inkscape:zoom="5.2083333"
     inkscape:cx="-22.610371"
     inkscape:cy="34.521515"
     inkscape:window-x="-2"
     inkscape:window-y="25"
     inkscape:window-maximized="1"
     inkscape:current-layer="svg2" />
  <defs
     id="defs4">
    <linearGradient
       inkscape:collect="always"
       id="linearGradient4459">
      <stop
         style="stop-color:#c2d9f6;stop-opacity:1"
         offset="0"
         id="stop4461" />
      <stop
         style="stop-color:#f5fbff;stop-opacity:1"
         offset="1"
         id="stop4463" />
    </linearGradient>
    <linearGradient
       id="linearGradient5277"
       inkscape:collect="always">
      <stop
         id="stop5279"
         offset="0"
         style="stop-color:#144786;stop-opacity:1" />
      <stop
         id="stop5281"
         offset="1"
         style="stop-color:#068edc;stop-opacity:1" />
    </linearGradient>
    <linearGradient
       gradientUnits="userSpaceOnUse"
       y2="-499.7912"
       x2="419.08624"
       y1="-547.79797"
       x1="419.08624"
       id="linearGradient4172"
       xlink:href="#linearGradient5277"
       inkscape:collect="always"
       gradientTransform="matrix(0.28222223,0,0,0.28222223,-108.53461,141.0541)" />
    <linearGradient
       inkscape:collect="always"
       xlink:href="#linearGradient4459"
       id="linearGradient4457"
       x1="6.7577972"
       y1="11.120791"
       x2="6.7577972"
       y2="2.4352887"
       gradientUnits="userSpaceOnUse" />
  </defs>
  <rect
     style="fill:url(#linearGradient4172);fill-opacity:1;stroke:none"
     id="rect2991-1-7"
     width="13.546667"
     height="13.546667"
     x="1.5080261e-06"
     y="-13.546665"
     ry="0.54879344"
     transform="scale(1,-1)" />
  <path
     inkscape:connector-curvature="0"
     style="fill:#000000;fill-opacity:0.05882353"
     id="path4471"
     d="m 6.7733333,3.3751549 c 0.9751846,0 1.8625375,0.3730507 2.5280534,0.9851437 -0.3259673,-0.00906 -0.6510269,0.1847142 -0.6655158,0.629297 -0.027162,0.8973133 1.0738802,1.0883657 0.4808008,2.8929538 L 8.6259117,9.3765628 7.2894469,5.4405157 c -0.020824,-0.060666 0.00358,-0.095076 0.078778,-0.095076 l 0.3775792,0 c 0.01992,0 0.03531,-0.017206 0.03531,-0.038029 l 0,-0.2236491 c 0,-0.019923 -0.01539,-0.03803 -0.03531,-0.037125 -0.7153159,0.031692 -1.4261046,0.031692 -2.1332706,0 -0.01992,-9.024e-4 -0.03531,0.017205 -0.03531,0.037125 l 0,0.2236491 c 0,0.020828 0.01539,0.038029 0.03531,0.038029 l 0.3793884,0 c 0.085108,0 0.1086557,0.028068 0.1285753,0.082397 L 6.6692076,6.9290968 5.8434238,9.4227421 4.4861345,5.4242178 c -0.016294,-0.049803 0.00358,-0.078778 0.052515,-0.078778 l 0.4319063,0 c 0.01992,0 0.036224,-0.017206 0.036224,-0.038031 l 0,-0.2236491 c 0,-0.019923 -0.016294,-0.038029 -0.036224,-0.037126 -0.4536374,0.02445 -0.909085,0.028978 -1.3337464,0.033506 C 4.30323,4.054251 5.4585996,3.375154 6.7733324,3.375154 Z M 10.060167,5.332766 c 0.287032,0.52879 0.450014,1.1354503 0.450014,1.7792344 0,1.4134274 -0.7850371,2.6439511 -1.9431252,3.2795846 L 9.7323869,7.0902689 C 9.9134794,6.5786825 10.080989,5.8887198 10.060167,5.332766 Z m -2.0354835,5.301485 c -0.3911598,0.139436 -0.8121997,0.215495 -1.2513502,0.215495 -0.3784825,0 -0.7424789,-0.05706 -1.0865554,-0.161171 L 6.8376219,7.389072 Z M 5.1742867,10.490278 C 3.9102607,9.8908663 3.0364885,8.6032981 3.0364885,7.1120004 c 0,-0.5532378 0.1195218,-1.0775011 0.3350216,-1.5501529 z M 6.7733333,3.023835 c -2.2573182,0 -4.0881653,1.8308462 -4.0881653,4.0881654 0,2.2573187 1.8308471,4.0881626 4.0881653,4.0881626 2.2573197,0 4.0881627,-1.8308439 4.0881627,-4.0881626 0,-2.2573192 -1.830843,-4.0881654 -4.0881627,-4.0881654 z m 0,-0.2580566 c 2.4003838,0 4.3462217,1.9458394 4.3462217,4.346222 0,2.4003827 -1.9467446,4.3462206 -4.3462217,4.3462206 -2.4003812,0 -4.3462218,-1.9458379 -4.3462218,-4.3462206 0,-2.4003826 1.9458406,-4.346222 4.3462218,-4.346222 z" />
  <path
     d="m 6.7733333,3.2622661 c 0.9751846,0 1.8625375,0.3730507 2.5280534,0.9851437 C 8.9754194,4.2383498 8.6503598,4.432124 8.6358709,4.8767068 8.6087089,5.7740201 9.7097511,5.9650725 9.1166717,7.7696606 L 8.6259117,9.263674 7.2894469,5.3276269 c -0.020824,-0.060666 0.00358,-0.095076 0.078778,-0.095076 l 0.3775792,0 c 0.01992,0 0.03531,-0.017206 0.03531,-0.038029 l 0,-0.2236491 c 0,-0.019923 -0.01539,-0.03803 -0.03531,-0.037125 -0.7153159,0.031692 -1.4261046,0.031692 -2.1332706,0 -0.01992,-9.024e-4 -0.03531,0.017205 -0.03531,0.037125 l 0,0.2236491 c 0,0.020828 0.01539,0.038029 0.03531,0.038029 l 0.3793884,0 c 0.085108,0 0.1086557,0.028068 0.1285753,0.082397 L 6.6692076,6.816208 5.8434238,9.3098533 4.4861345,5.311329 c -0.016294,-0.049803 0.00358,-0.078778 0.052515,-0.078778 l 0.4319063,0 c 0.01992,0 0.036224,-0.017206 0.036224,-0.038031 l 0,-0.2236491 c 0,-0.019923 -0.016294,-0.038029 -0.036224,-0.037126 -0.4536374,0.02445 -0.909085,0.028978 -1.3337464,0.033506 C 4.30323,3.9413622 5.4585996,3.2622652 6.7733324,3.2622652 Z m 3.2868337,1.9576111 c 0.287032,0.52879 0.450014,1.1354503 0.450014,1.7792344 0,1.4134274 -0.7850371,2.6439511 -1.9431252,3.2795854 L 9.7323869,6.9773801 C 9.9134794,6.4657937 10.080989,5.775831 10.060167,5.2198772 Z M 8.0246835,10.521363 c -0.3911598,0.139436 -0.8121997,0.215495 -1.2513502,0.215495 -0.3784825,0 -0.7424789,-0.05706 -1.0865554,-0.161171 L 6.8376219,7.2761832 Z M 5.1742867,10.37739 C 3.9102607,9.7779775 3.0364885,8.4904093 3.0364885,6.9991116 c 0,-0.5532378 0.1195218,-1.0775011 0.3350216,-1.5501529 z M 6.7733333,2.9109462 c -2.2573182,0 -4.0881653,1.8308462 -4.0881653,4.0881654 0,2.2573187 1.8308471,4.0881634 4.0881653,4.0881634 2.2573197,0 4.0881627,-1.8308447 4.0881627,-4.0881634 0,-2.2573192 -1.830843,-4.0881654 -4.0881627,-4.0881654 z m 0,-0.2580566 c 2.4003838,0 4.3462217,1.9458394 4.3462217,4.346222 0,2.4003827 -1.9467446,4.3462214 -4.3462217,4.3462214 -2.4003812,0 -4.3462218,-1.9458387 -4.3462218,-4.3462214 0,-2.4003826 1.9458406,-4.346222 4.3462218,-4.346222 z"
     id="path4469"
     style="fill:#000000;fill-opacity:0.11764706"
     inkscape:connector-curvature="0" />
  <path
     inkscape:connector-curvature="0"
     style="fill:#000000;fill-opacity:0.23529412"
     id="path4465"
     d="m 6.7733333,3.1493773 c 0.9751846,0 1.8625375,0.3730507 2.5280534,0.9851437 C 8.9754194,4.125461 8.6503598,4.3192352 8.6358709,4.763818 8.6087089,5.6611313 9.7097511,5.8521837 9.1166717,7.6567718 L 8.6259117,9.1507852 7.2894469,5.2147381 c -0.020824,-0.060666 0.00358,-0.095076 0.078778,-0.095076 l 0.3775792,0 c 0.01992,0 0.03531,-0.017206 0.03531,-0.038029 l 0,-0.2236491 c 0,-0.019923 -0.01539,-0.03803 -0.03531,-0.037125 -0.7153159,0.031692 -1.4261046,0.031692 -2.1332706,0 -0.01992,-9.024e-4 -0.03531,0.017205 -0.03531,0.037125 l 0,0.2236491 c 0,0.020828 0.01539,0.038029 0.03531,0.038029 l 0.3793884,0 c 0.085108,0 0.1086557,0.028068 0.1285753,0.082397 L 6.6692076,6.7033192 5.8434238,9.1969645 4.4861345,5.1984402 c -0.016294,-0.049803 0.00358,-0.078778 0.052515,-0.078778 l 0.4319063,0 c 0.01992,0 0.036224,-0.017206 0.036224,-0.038031 l 0,-0.2236491 c 0,-0.019923 -0.016294,-0.038029 -0.036224,-0.037126 -0.4536374,0.02445 -0.909085,0.028978 -1.3337464,0.033506 C 4.30323,3.8284734 5.4585996,3.1493764 6.7733324,3.1493764 Z m 3.2868337,1.9576111 c 0.287032,0.52879 0.450014,1.1354503 0.450014,1.7792344 0,1.4134274 -0.7850371,2.6439511 -1.9431252,3.2795862 L 9.7323869,6.8644913 C 9.9134794,6.3529049 10.080989,5.6629422 10.060167,5.1069884 Z M 8.0246835,10.408475 c -0.3911598,0.139436 -0.8121997,0.215495 -1.2513502,0.215495 -0.3784825,0 -0.7424789,-0.05706 -1.0865554,-0.161171 L 6.8376219,7.1632944 Z M 5.1742867,10.264502 C 3.9102607,9.6650887 3.0364885,8.3775205 3.0364885,6.8862228 c 0,-0.5532378 0.1195218,-1.0775011 0.3350216,-1.5501529 z M 6.7733333,2.7980574 c -2.2573182,0 -4.0881653,1.8308462 -4.0881653,4.0881654 0,2.2573187 1.8308471,4.0881642 4.0881653,4.0881642 2.2573197,0 4.0881627,-1.8308455 4.0881627,-4.0881642 0,-2.2573192 -1.830843,-4.0881654 -4.0881627,-4.0881654 z m 0,-0.2580566 c 2.4003838,0 4.3462217,1.9458394 4.3462217,4.346222 0,2.4003827 -1.9467446,4.3462222 -4.3462217,4.3462222 -2.4003812,0 -4.3462218,-1.9458395 -4.3462218,-4.3462222 0,-2.4003826 1.9458406,-4.346222 4.3462218,-4.346222 z" />
  <path
     inkscape:connector-curvature="0"
     style="fill:#000000;fill-opacity:1;stroke:none"
     d="m -1.6070251e-6,12.700003 0,0.299861 c 0,0.304038 0.2427729970251,0.546805 0.5468049970251,0.546805 l 12.45305561,0 c 0.304033,0 0.546806,-0.242767 0.546806,-0.546805 l 0,-0.299861 c 0,0.304038 -0.242773,0.546805 -0.546806,0.546805 l -12.45305561,0 c -0.304032,0 -0.5468049970251,-0.242767 -0.5468049970251,-0.546805 z"
     id="rect846" />
  <path
     inkscape:connector-curvature="0"
     style="fill:#ffffff;fill-opacity:0.5372549;stroke:none"
     d="m 0.71437339,0.18522484 c -0.258824,0 -0.471636,0.1804812 -0.520348,0.4233334 0.09472,-0.078994 0.218584,-0.1234722 0.352778,-0.1234722 l 12.45305561,0 c 0.134194,0 0.258062,0.044478 0.352778,0.1234722 -0.04871,-0.2428522 -0.261524,-0.4233334 -0.520347,-0.4233334 l -12.11791661,0 z"
     id="path7515" />
  <path
     inkscape:connector-curvature="0"
     style="fill:#000000;fill-opacity:0.39215686;stroke:none"
     d="M 0.54680339,2.4413269e-6 C 0.24277139,2.4413269e-6 -1.6070251e-6,0.24276994 -1.6070251e-6,0.54680804 l 0,12.15319496 c 0,0.223915 0.1354719970251,0.40894 0.3263189970251,0.493889 -0.0873,-0.09406 -0.141111,-0.220811 -0.141111,-0.361584 l 0,-12.11791646 c 0,-0.2958253 0.233369,-0.5291667 0.529167,-0.5291667 l 12.11791661,0 c 0.295797,0 0.529167,0.2333414 0.529167,0.5291667 l 0,12.11791646 c 0,0.140773 -0.05381,0.267519 -0.141111,0.361584 0.190847,-0.08495 0.326319,-0.269974 0.326319,-0.493889 l 0,-12.15319496 c 0,-0.3040381 -0.242773,-0.5468055986731 -0.546806,-0.5468055986731 l -12.45305561,0 z"
     id="rect4280" />
  <path
     d="m 6.7733333,3.0364877 c 0.9751846,0 1.8625375,0.3730507 2.5280534,0.9851437 C 8.9754194,4.012572 8.6503598,4.2063456 8.6358709,4.6509284 8.6087086,5.5482417 9.7097511,5.7392941 9.1166717,7.5438822 L 8.6259117,9.0378956 7.2894469,5.1018485 c -0.020824,-0.060666 0.00358,-0.095076 0.078778,-0.095076 l 0.3775792,0 c 0.01992,0 0.03531,-0.017206 0.03531,-0.038029 l 0,-0.2236491 c 0,-0.019923 -0.01539,-0.03803 -0.03531,-0.037125 -0.7153159,0.031692 -1.4261046,0.031692 -2.1332706,0 -0.01992,-9.024e-4 -0.03531,0.017205 -0.03531,0.037125 l 0,0.2236491 c 0,0.020828 0.01539,0.038029 0.03531,0.038029 l 0.3793884,0 c 0.085108,0 0.1086557,0.028068 0.1285753,0.082397 L 6.6692076,6.5904296 5.8434238,9.0840749 4.4861345,5.0855506 c -0.016294,-0.049803 0.00358,-0.078778 0.052515,-0.078778 l 0.4319063,0 c 0.01992,0 0.036224,-0.017206 0.036224,-0.038031 l 0,-0.2236491 c 0,-0.019923 -0.016294,-0.038029 -0.036224,-0.037126 -0.4536374,0.02445 -0.909085,0.028978 -1.3337464,0.033506 C 4.30323,3.7155838 5.4585996,3.0364868 6.7733324,3.0364868 Z m 3.2868337,1.9576111 c 0.287032,0.52879 0.450014,1.1354503 0.450014,1.7792344 0,1.4134274 -0.7850371,2.6439511 -1.9431252,3.2795868 L 9.7323869,6.7516017 C 9.9134794,6.2400153 10.080989,5.5500526 10.060167,4.9940988 Z M 8.0246835,10.295586 c -0.3911598,0.139436 -0.8121997,0.215495 -1.2513502,0.215495 -0.3784825,0 -0.7424789,-0.05706 -1.0865554,-0.161171 L 6.8376219,7.0504048 Z M 5.1742867,10.151613 C 3.9102607,9.5521991 3.0364885,8.2646309 3.0364885,6.7733332 c 0,-0.5532378 0.1195218,-1.0775011 0.3350216,-1.5501529 z M 6.7733333,2.6851678 c -2.2573182,0 -4.0881653,1.8308462 -4.0881653,4.0881654 0,2.2573187 1.8308471,4.0881648 4.0881653,4.0881648 2.2573197,0 4.0881627,-1.8308461 4.0881627,-4.0881648 0,-2.2573192 -1.830843,-4.0881654 -4.0881627,-4.0881654 z m 0,-0.2580566 c 2.4003838,0 4.3462217,1.9458394 4.3462217,4.346222 0,2.4003827 -1.9467446,4.3462228 -4.3462217,4.3462228 -2.4003812,0 -4.3462218,-1.9458401 -4.3462218,-4.3462228 0,-2.4003826 1.9458406,-4.346222 4.3462218,-4.346222 z"
     id="path266"
     style="fill:url(#linearGradient4457);fill-opacity:1"
     inkscape:connector-curvature="0" />
  <path
     style="fill:#134a8a;fill-opacity:0.3137255"
     d="M 24 8.7148438 C 16.001629 8.7148438 9.5136719 15.200844 9.5136719 23.199219 C 9.5136719 23.334253 9.5314821 23.46546 9.5351562 23.599609 C 9.7493838 15.788072 16.136841 9.5136719 24 9.5136719 C 31.863165 9.5136719 38.250617 15.788072 38.464844 23.599609 C 38.468518 23.46546 38.486328 23.334253 38.486328 23.199219 C 38.486328 15.200844 31.998377 8.7148437 24 8.7148438 z M 32.132812 13.556641 C 31.308616 13.804301 30.638476 14.487096 30.599609 15.679688 C 30.593482 15.88211 30.603254 16.073556 30.626953 16.257812 C 30.778618 14.84696 31.860384 14.219522 32.957031 14.25 C 32.69287 14.007044 32.416034 13.777672 32.132812 13.556641 z M 17.611328 15.880859 C 16.211286 15.956318 14.819781 15.97719 13.486328 15.992188 C 13.282711 16.258983 13.070006 16.518629 12.886719 16.800781 C 14.391424 16.784737 16.003952 16.768274 17.611328 16.681641 C 17.681039 16.678482 17.736825 16.741033 17.738281 16.810547 C 17.738335 16.808967 17.740234 16.808233 17.740234 16.806641 L 17.740234 16.013672 C 17.740234 15.943079 17.681946 15.87766 17.611328 15.880859 z M 19.886719 15.880859 C 19.816136 15.877662 19.761719 15.943089 19.761719 16.013672 L 19.761719 16.806641 C 19.761719 16.808233 19.763621 16.808967 19.763672 16.810547 C 19.765048 16.741043 19.817042 16.678484 19.886719 16.681641 C 22.392425 16.793935 24.910729 16.793935 27.445312 16.681641 C 27.51499 16.678475 27.566984 16.741032 27.568359 16.810547 C 27.56841 16.808959 27.570312 16.808241 27.570312 16.806641 L 27.570312 16.013672 C 27.570312 15.943079 27.515895 15.877653 27.445312 15.880859 C 24.910729 15.993154 22.392425 15.993154 19.886719 15.880859 z M 16.074219 17.744141 C 15.909235 17.748624 15.840043 17.847018 15.896484 18.019531 L 20.705078 32.1875 L 23.630859 23.351562 L 23.492188 22.972656 L 20.705078 31.386719 L 16.074219 17.744141 z M 25.990234 17.755859 C 25.822517 17.790528 25.767346 17.901059 25.828125 18.078125 L 30.564453 32.023438 L 32.302734 26.730469 C 32.815638 25.169835 32.967029 23.954067 32.910156 22.955078 C 32.865701 23.791112 32.686229 24.762812 32.302734 25.929688 L 30.564453 31.224609 L 25.990234 17.755859 z M 37.228516 23.576172 C 37.096454 28.277333 34.515556 32.361964 30.712891 34.607422 L 30.355469 35.621094 C 34.45893 33.368841 37.240234 29.008207 37.240234 24 C 37.240234 23.857767 37.232973 23.717347 37.228516 23.576172 z M 8.6191406 23.599609 C 8.6156781 23.733964 8.5996094 23.864811 8.5996094 24 C 8.5996094 32.505293 15.494712 39.400391 24 39.400391 C 32.502084 39.400391 39.400391 32.505293 39.400391 24 C 39.400391 23.864811 39.384322 23.733964 39.380859 23.599609 C 39.166639 31.918245 32.367113 38.599609 24 38.599609 C 15.629735 38.599609 8.833263 31.918245 8.6191406 23.599609 z M 10.777344 23.679688 C 10.774771 23.787371 10.759766 23.891676 10.759766 24 C 10.759766 29.284126 13.855152 33.846796 18.333984 35.970703 L 17.972656 34.982422 C 13.826591 32.856795 10.954126 28.614019 10.777344 23.679688 z M 28.169922 35.761719 C 26.85804 36.198611 25.45912 36.443359 24 36.443359 C 22.751302 36.443359 21.550404 36.261395 20.40625 35.939453 L 20.150391 36.673828 C 21.369559 37.042725 22.65892 37.244141 24 37.244141 C 25.556045 37.244141 27.047594 36.974533 28.433594 36.480469 L 28.169922 35.761719 z "
     transform="scale(0.28222223,0.28222223)"
     id="path4473" />
  <path
     style="fill:#ffffff;fill-opacity:0.23529412"
     d="M 24 8.5996094 C 15.494712 8.5996094 8.5996094 15.494708 8.5996094 24 C 8.5996094 24.067266 8.6085151 24.132157 8.609375 24.199219 C 8.718284 15.787703 15.562636 9 24 9 C 32.437373 9 39.281716 15.787703 39.390625 24.199219 C 39.391485 24.132157 39.400391 24.067266 39.400391 24 C 39.400391 15.494708 32.505297 8.5996094 24 8.5996094 z M 24 10.759766 C 19.341498 10.759766 15.248052 13.165743 12.886719 16.800781 C 12.983448 16.79975 13.087947 16.797925 13.185547 16.796875 C 15.582741 13.395802 19.521912 11.160156 24 11.160156 C 27.24562 11.160156 30.206793 12.336452 32.509766 14.275391 C 32.657682 14.254807 32.806581 14.245819 32.957031 14.25 C 30.598904 12.081167 27.455378 10.759766 24 10.759766 z M 30.613281 16.773438 C 30.610791 16.810277 30.600843 16.841042 30.599609 16.878906 C 30.524127 19.372502 32.896035 20.338413 32.914062 23.71875 C 33.088867 20.14835 30.731471 19.142923 30.613281 16.773438 z M 17.740234 17.605469 C 17.740234 17.679258 17.681911 17.740234 17.611328 17.740234 L 16.082031 17.740234 C 15.90864 17.740234 15.83875 17.843064 15.896484 18.019531 L 15.955078 18.193359 C 15.989525 18.168968 16.020728 18.140625 16.082031 18.140625 L 17.611328 18.140625 C 17.681911 18.140625 17.740234 18.079649 17.740234 18.005859 L 17.740234 17.605469 z M 19.761719 17.605469 L 19.761719 18.005859 C 19.761719 18.079659 19.816136 18.140625 19.886719 18.140625 L 21.230469 18.140625 C 21.532033 18.140625 21.616919 18.239136 21.6875 18.431641 L 23.560547 23.5625 L 23.630859 23.351562 L 21.6875 18.033203 C 21.616919 17.840699 21.532033 17.740234 21.230469 17.740234 L 19.886719 17.740234 C 19.816136 17.740234 19.761719 17.679269 19.761719 17.605469 z M 27.570312 17.605469 C 27.570313 17.679251 27.515895 17.740234 27.445312 17.740234 L 26.107422 17.740234 C 25.840972 17.740234 25.754339 17.863167 25.828125 18.078125 L 25.871094 18.207031 C 25.920918 18.165797 25.995009 18.140625 26.107422 18.140625 L 27.445312 18.140625 C 27.515895 18.140625 27.570313 18.079642 27.570312 18.005859 L 27.570312 17.605469 z M 35.646484 17.695312 C 35.720263 19.665227 35.126041 22.11112 34.484375 23.923828 L 30.355469 35.621094 C 30.416426 35.587636 30.474787 35.550008 30.535156 35.515625 L 34.484375 24.322266 C 35.126041 22.509558 35.720263 20.065618 35.646484 18.095703 C 36.631965 19.911224 37.199774 21.987163 37.234375 24.189453 C 37.235271 24.126019 37.240234 24.063647 37.240234 24 C 37.240234 21.718875 36.663527 19.568978 35.646484 17.695312 z M 11.947266 18.507812 C 11.183684 20.182563 10.759766 22.039709 10.759766 24 C 10.759766 24.080749 10.766138 24.159828 10.767578 24.240234 C 10.790265 22.339661 11.204774 20.536696 11.947266 18.908203 L 18.152344 35.876953 C 18.213548 35.90715 18.272251 35.941428 18.333984 35.970703 L 11.947266 18.507812 z M 9.5234375 24.199219 C 9.522505 24.266916 9.5136719 24.332473 9.5136719 24.400391 C 9.5136719 32.398764 16.001629 38.884766 24 38.884766 C 31.998377 38.884766 38.486328 32.398764 38.486328 24.400391 C 38.486328 24.332473 38.477495 24.266916 38.476562 24.199219 C 38.368723 32.104782 31.931116 38.486328 24 38.486328 C 16.068889 38.486328 9.6312768 32.104782 9.5234375 24.199219 z M 24.228516 24.982422 L 20.150391 36.673828 C 20.192082 36.686443 20.235488 36.694807 20.277344 36.707031 L 24.228516 25.380859 L 28.302734 36.521484 C 28.345811 36.506632 28.390719 36.495752 28.433594 36.480469 L 24.228516 24.982422 z "
     transform="scale(0.28222223,0.28222223)"
     id="path4478" />
</svg>
