<?xml version="1.0" encoding="UTF-8" standalone="no"?>
<!-- Created with Inkscape (http://www.inkscape.org/) -->

<svg
   xmlns:dc="http://purl.org/dc/elements/1.1/"
   xmlns:cc="http://creativecommons.org/ns#"
   xmlns:rdf="http://www.w3.org/1999/02/22-rdf-syntax-ns#"
   xmlns:svg="http://www.w3.org/2000/svg"
   xmlns="http://www.w3.org/2000/svg"
   xmlns:xlink="http://www.w3.org/1999/xlink"
   xmlns:sodipodi="http://sodipodi.sourceforge.net/DTD/sodipodi-0.dtd"
   xmlns:inkscape="http://www.inkscape.org/namespaces/inkscape"
   width="48"
   height="48"
   id="svg5453"
   version="1.1"
   inkscape:version="0.48+devel r12487"
   sodipodi:docname="wps-office-etmain.svg">
  <defs
     id="defs5455">
    <linearGradient
       id="linearGradient1006"
       inkscape:collect="always">
      <stop
         id="stop1008"
         offset="0"
         style="stop-color:#afcca1;stop-opacity:1" />
      <stop
         id="stop1010"
         offset="1"
         style="stop-color:#ffffff;stop-opacity:0" />
    </linearGradient>
    <linearGradient
       inkscape:collect="always"
       id="linearGradient947">
      <stop
         style="stop-color:#3a931d;stop-opacity:1"
         offset="0"
         id="stop949" />
      <stop
         style="stop-color:#57ae30;stop-opacity:1"
         offset="1"
         id="stop951" />
    </linearGradient>
    <radialGradient
       gradientTransform="matrix(0.91666666,0,0,0.91666666,34.047599,-43.649865)"
       gradientUnits="userSpaceOnUse"
       r="24"
       fy="-523.79797"
       fx="408.57144"
       cy="-523.79797"
       cx="408.57144"
       id="radialGradient4697"
       xlink:href="#linearGradient4691"
       inkscape:collect="always" />
    <linearGradient
       id="linearGradient4691"
       inkscape:collect="always">
      <stop
         id="stop4693"
         offset="0"
         style="stop-color:#ffffff;stop-opacity:1;" />
      <stop
         id="stop4695"
         offset="1"
         style="stop-color:#ffffff;stop-opacity:0;" />
    </linearGradient>
    <linearGradient
       inkscape:collect="always"
       xlink:href="#linearGradient947"
       id="linearGradient912"
       gradientUnits="userSpaceOnUse"
       x1="411.07144"
       y1="-547.8136"
       x2="411.07144"
       y2="-499.78238"
       gradientTransform="translate(9.1738281e-7,-1.5616641e-5)" />
    <linearGradient
       inkscape:collect="always"
       xlink:href="#linearGradient1006"
       id="linearGradient990"
       gradientUnits="userSpaceOnUse"
       x1="18.031223"
       y1="25.54936"
       x2="20.329319"
       y2="25.54936"
       gradientTransform="matrix(-1,0,0,1,430.88819,500.82591)" />
    <linearGradient
       gradientTransform="translate(381.38819,500.82591)"
       y2="25.54936"
       x2="25.544233"
       y1="25.54936"
       x1="18.031223"
       gradientUnits="userSpaceOnUse"
       id="linearGradient1180"
       xlink:href="#linearGradient1006"
       inkscape:collect="always" />
  </defs>
  <sodipodi:namedview
     id="base"
     pagecolor="#ffffff"
     bordercolor="#666666"
     borderopacity="1.0"
     inkscape:pageopacity="0"
     inkscape:pageshadow="2"
     inkscape:zoom="5.6568543"
     inkscape:cx="41.794782"
     inkscape:cy="28.562439"
     inkscape:document-units="px"
     inkscape:current-layer="layer1"
     showgrid="false"
     fit-margin-top="0"
     fit-margin-left="0"
     fit-margin-right="0"
     fit-margin-bottom="0"
     inkscape:window-width="1366"
     inkscape:window-height="718"
     inkscape:window-x="0"
     inkscape:window-y="30"
     inkscape:window-maximized="1"
     showguides="true"
     inkscape:guide-bbox="true" />
  <metadata
     id="metadata5458">
    <rdf:RDF>
      <cc:Work
         rdf:about="">
        <dc:format>image/svg+xml</dc:format>
        <dc:type
           rdf:resource="http://purl.org/dc/dcmitype/StillImage" />
        <dc:title />
      </cc:Work>
    </rdf:RDF>
  </metadata>
  <g
     inkscape:label="Capa 1"
     inkscape:groupmode="layer"
     id="layer1"
     transform="translate(-384.57143,-499.798)">
    <rect
       style="fill:url(#linearGradient912);fill-opacity:1;stroke:none"
       id="rect2991-1-7"
       width="48"
       height="48"
       x="384.57144"
       y="-547.79797"
       ry="1.9445436"
       transform="scale(1,-1)" />
    <path
       style="fill:#000000;fill-opacity:0.05882353;stroke:none"
       d="m 394.45815,509.598 0,7.20099 0,11.76728 7.20117,0 0,-11.76728 13.82422,0 7.20117,0 0,-7.20099 -7.20117,0 -10.83398,0 -2.99024,0 L 394.45815,509.598 z m 7.20508,11.76728 0,7.20099 4.11523,0 9.70508,0 0,1.64058 0,2.99016 -10.83398,0 -10.19141,0 0,7.20099 2.99023,0 18.03516,0 0.0312,0 7.16992,0 0,-2.99016 0,-16.04061 -7.19726,0 0,-0.002 -9.70899,0 -3.69726,0 L 401.66323,521.36528 Z"
       id="path4103"
       inkscape:connector-curvature="0" />
    <path
       inkscape:connector-curvature="0"
       id="path4101"
       d="m 394.45815,509.198 0,7.20099 0,11.76728 7.20117,0 0,-11.76728 13.82422,0 7.20117,0 0,-7.20099 -7.20117,0 -10.83398,0 -2.99024,0 L 394.45815,509.198 z m 7.20508,11.76728 0,7.20099 4.11523,0 9.70508,0 0,1.64058 0,2.99016 -10.83398,0 -10.19141,0 0,7.20099 2.99023,0 18.03516,0 0.0312,0 7.16992,0 0,-2.99016 0,-16.04061 -7.19726,0 0,-0.002 -9.70899,0 -3.69726,0 L 401.66323,520.96528 Z"
       style="fill:#000000;fill-opacity:0.11764706;stroke:none" />
    <path
       style="fill:#000000;fill-opacity:0.23529412;stroke:none"
       d="m 394.45815,508.798 0,7.20099 0,11.76728 7.20117,0 0,-11.76728 13.82422,0 7.20117,0 0,-7.20099 -7.20117,0 -10.83398,0 -2.99024,0 L 394.45815,508.798 z m 7.20508,11.76728 0,7.20099 4.11523,0 9.70508,0 0,1.64058 0,2.99016 -10.83398,0 -10.19141,0 0,7.20099 2.99023,0 18.03516,0 0.0312,0 7.16992,0 0,-2.99016 0,-16.04061 -7.19726,0 0,-0.002 -9.70899,0 -3.69726,0 L 401.66323,520.56528 Z"
       id="path4082"
       inkscape:connector-curvature="0" />
    <rect
       transform="scale(1,-1)"
       ry="1.7824984"
       y="-545.79797"
       x="386.57144"
       height="44"
       width="44"
       id="rect4687"
       style="opacity:0.23999999;fill:url(#radialGradient4697);fill-opacity:1;stroke:none" />
    <path
       inkscape:connector-curvature="0"
       style="fill:#000000;fill-opacity:1;stroke:none"
       d="m 384.57142,544.79804 0,1.0625 c 0,1.0773 0.86022,1.9375 1.9375,1.9375 l 44.125,0 c 1.07728,0 1.9375,-0.8602 1.9375,-1.9375 l 0,-1.0625 c 0,1.0773 -0.86022,1.9375 -1.9375,1.9375 l -44.125,0 C 385.43164,546.73554 384.57142,545.87534 384.57142,544.79804 Z"
       id="rect846" />
    <path
       inkscape:connector-curvature="0"
       style="fill:#ffffff;fill-opacity:0.5372549;stroke:none"
       d="m 387.10267,500.45434 c -0.91709,0 -1.67115,0.6395 -1.84375,1.5 0.33561,-0.2799 0.77451,-0.4375 1.25,-0.4375 l 44.125,0 c 0.47549,0 0.91439,0.1576 1.25,0.4375 -0.1726,-0.8605 -0.92666,-1.5 -1.84375,-1.5 L 387.10267,500.45434 Z"
       id="path7515" />
    <path
       inkscape:connector-curvature="0"
       style="fill:#000000;fill-opacity:0.39215686;stroke:none"
       d="m 386.50892,499.79804 c -1.07728,0 -1.9375,0.8602 -1.9375,1.9375 l 0,43.0625 c 0,0.7934 0.48002,1.449 1.15625,1.75 -0.30934,-0.3333 -0.5,-0.7824 -0.5,-1.2812 l 0,-42.9375 c 0,-1.0482 0.8269,-1.875 1.875,-1.875 l 42.9375,0 c 1.0481,0 1.875,0.8268 1.875,1.875 l 0,42.9375 c 0,0.4988 -0.19066,0.9479 -0.5,1.2812 0.67623,-0.301 1.15625,-0.9566 1.15625,-1.75 l 0,-43.0625 c 0,-1.0773 -0.86022,-1.9375 -1.9375,-1.9375 L 386.50892,499.79804 Z"
       id="rect4280" />
    <path
       inkscape:connector-curvature="0"
       style="fill:#ffffff;fill-opacity:1;stroke:none"
       d="m 401.66298,520.16537 0,7.20131 13.82394,0 0,-7.20131 -13.40601,0 L 401.66298,520.16537 Z"
       id="path973" />
    <path
       style="fill:#ffffff;fill-opacity:1;stroke:none"
       d="m 394.45815,508.398 0,7.20167 0,11.76701 7.20131,0 0,-11.76701 13.82394,0 7.20131,0 0,-7.20167 -7.20131,0 -10.83411,0 -2.98983,0 L 394.45815,508.398 Z"
       id="path1051"
       inkscape:connector-curvature="0" />
    <path
       style="fill:#ffffff;fill-opacity:1;stroke:none"
       d="m 415.4834,520.16682 0,8.83953 0,2.98998 -10.83411,0 -10.19114,0 0,7.20167 2.98983,0 18.03542,0 0.0321,0 7.16916,0 0,-2.98998 L 422.68466,520.16682 Z"
       id="rect4639"
       inkscape:connector-curvature="0"
       sodipodi:nodetypes="ccccccccccccc" />
    <g
       id="g1012"
       transform="matrix(1.0287585,0,0,1.0287585,-9.2431565,-17.053241)">
      <path
         style="fill:url(#linearGradient1180);fill-opacity:1;stroke:none"
         d="m 399.41944,522.20091 0,7 13.4375,0 0,-7 -13.03125,0 L 399.41944,522.20091 Z"
         id="path978"
         inkscape:connector-curvature="0" />
      <path
         sodipodi:nodetypes="cccccc"
         inkscape:connector-curvature="0"
         id="path988"
         d="m 412.85694,522.20091 0,7 -9.4375,0 0,-7 L 412.45069,522.20091 Z"
         style="opacity:0.6;fill:url(#linearGradient990);fill-opacity:1;stroke:none" />
    </g>
  </g>
</svg>
