<?xml version="1.0" encoding="UTF-8" standalone="no"?>
<!-- Created with Inkscape (http://www.inkscape.org/) -->

<svg
   xmlns:dc="http://purl.org/dc/elements/1.1/"
   xmlns:cc="http://creativecommons.org/ns#"
   xmlns:rdf="http://www.w3.org/1999/02/22-rdf-syntax-ns#"
   xmlns:svg="http://www.w3.org/2000/svg"
   xmlns="http://www.w3.org/2000/svg"
   xmlns:xlink="http://www.w3.org/1999/xlink"
   xmlns:sodipodi="http://sodipodi.sourceforge.net/DTD/sodipodi-0.dtd"
   xmlns:inkscape="http://www.inkscape.org/namespaces/inkscape"
   width="48"
   height="48"
   id="svg5453"
   version="1.1"
   inkscape:version="0.48+devel r12686"
   sodipodi:docname="xdiagnose.svg"
   viewBox="0 0 48 48">
  <defs
     id="defs5455">
    <linearGradient
       id="linearGradient4195"
       inkscape:collect="always">
      <stop
         id="stop4197"
         offset="0"
         style="stop-color:#dee4e4;stop-opacity:1" />
      <stop
         id="stop4199"
         offset="1"
         style="stop-color:#f2f2f0;stop-opacity:1" />
    </linearGradient>
    <linearGradient
       id="linearGradient3323"
       inkscape:collect="always">
      <stop
         id="stop3325"
         offset="0"
         style="stop-color:#f31a69;stop-opacity:1" />
      <stop
         id="stop3327"
         offset="1"
         style="stop-color:#fe6d45;stop-opacity:1" />
    </linearGradient>
    <linearGradient
       inkscape:collect="always"
       id="linearGradient3306">
      <stop
         style="stop-color:#0ed2e4;stop-opacity:1"
         offset="0"
         id="stop3308" />
      <stop
         style="stop-color:#c7f5f9;stop-opacity:1"
         offset="1"
         id="stop3310" />
    </linearGradient>
    <linearGradient
       inkscape:collect="always"
       xlink:href="#linearGradient3306"
       id="linearGradient3312"
       x1="417.61804"
       y1="-547.80786"
       x2="417.61804"
       y2="-499.79941"
       gradientUnits="userSpaceOnUse" />
    <linearGradient
       inkscape:collect="always"
       xlink:href="#linearGradient3323"
       id="linearGradient3320"
       gradientUnits="userSpaceOnUse"
       x1="409.71216"
       y1="-546.8493"
       x2="426.77899"
       y2="-517.2887"
       gradientTransform="matrix(1,0,0,-1,-384.57143,-499.798)" />
    <linearGradient
       inkscape:collect="always"
       xlink:href="#linearGradient3323"
       id="linearGradient3337"
       gradientUnits="userSpaceOnUse"
       gradientTransform="matrix(1,0,0,-1,-384.57143,-499.798)"
       x1="381.40909"
       y1="-494.98669"
       x2="407.81473"
       y2="-521.39233" />
    <linearGradient
       inkscape:collect="always"
       xlink:href="#linearGradient3306"
       id="linearGradient3344"
       gradientUnits="userSpaceOnUse"
       x1="419.98981"
       y1="-554.12268"
       x2="423.9259"
       y2="-539.43292"
       gradientTransform="matrix(1,0,0,-1,-384.57143,-499.798)" />
    <linearGradient
       inkscape:collect="always"
       xlink:href="#linearGradient4195"
       id="linearGradient4182"
       x1="416.77158"
       y1="544.22021"
       x2="416.77158"
       y2="503.29916"
       gradientUnits="userSpaceOnUse" />
  </defs>
  <sodipodi:namedview
     id="base"
     pagecolor="#ffffff"
     bordercolor="#666666"
     borderopacity="1.0"
     inkscape:pageopacity="0"
     inkscape:pageshadow="2"
     inkscape:zoom="6.3244028"
     inkscape:cx="14.260599"
     inkscape:cy="19.221543"
     inkscape:document-units="px"
     inkscape:current-layer="layer1"
     showgrid="false"
     fit-margin-top="0"
     fit-margin-left="0"
     fit-margin-right="0"
     fit-margin-bottom="0"
     inkscape:window-width="1366"
     inkscape:window-height="716"
     inkscape:window-x="0"
     inkscape:window-y="28"
     inkscape:window-maximized="1"
     inkscape:showpageshadow="false"
     borderlayer="true" />
  <metadata
     id="metadata5458">
    <rdf:RDF>
      <cc:Work
         rdf:about="">
        <dc:format>image/svg+xml</dc:format>
        <dc:type
           rdf:resource="http://purl.org/dc/dcmitype/StillImage" />
        <dc:title></dc:title>
      </cc:Work>
    </rdf:RDF>
  </metadata>
  <g
     inkscape:label="Capa 1"
     inkscape:groupmode="layer"
     id="layer1"
     transform="translate(-384.57143,-499.798)">
    <rect
       style="fill:url(#linearGradient3312);fill-opacity:1;stroke:none"
       id="rect2991-1-7"
       width="48"
       height="48"
       x="384.57144"
       y="-547.79797"
       ry="1.9445436"
       transform="scale(1,-1)" />
    <path
       style="fill:url(#linearGradient3320);fill-opacity:1;stroke:none"
       d="M 1.9453125 0 C 0.86803535 0 0 0.86803535 0 1.9453125 L 0 46.054688 C 0 46.857004 0.48128907 47.542014 1.171875 47.839844 C 31.07332 42.037551 43.057299 17.467174 47.777344 1.0566406 C 47.455055 0.43045961 46.810033 0 46.054688 0 L 1.9453125 0 z "
       transform="translate(384.57143,499.798)"
       id="rect3314" />
    <path
       style="fill:url(#linearGradient3337);fill-opacity:1;stroke:none"
       d="M 1.9453125 0 C 0.86803535 0 0 0.86803535 0 1.9453125 L 0 29.919922 C 24.241166 23.869882 38.920289 11.436461 47.501953 0.66015625 C 47.148153 0.2574164 46.635859 1.1389595e-16 46.054688 0 L 1.9453125 0 z "
       transform="translate(384.57143,499.798)"
       id="path3335" />
    <path
       style="fill:url(#linearGradient3344);fill-opacity:1;stroke:none"
       d="M 48 30.664062 C 42.910956 38.202414 31.71426 46.33821 7.1972656 48 L 46.054688 48 C 47.131965 48 48 47.131965 48 46.054688 L 48 30.664062 z "
       transform="translate(384.57143,499.798)"
       id="rect3340" />
    <path
       style="fill:#000000;fill-opacity:0.05882353"
       inkscape:connector-curvature="0"
       id="path4207"
       d="m 389.34273,545.3843 14.85141,-19.41775 -15.28981,-21.35032 9.82736,0.009 12.18327,16.78782 -18.21651,23.97208 -3.35572,0 z m 29.06829,0.0137 -12.09917,-16.81665 18.36819,-23.98335 3.27273,0 -14.91205,19.50937 15.19781,21.29063 -9.82751,0 z" />
    <path
       d="m 389.34273,544.9843 14.85141,-19.41775 -15.28981,-21.35032 9.82736,0.009 12.18327,16.78782 -18.21651,23.97208 -3.35572,0 z m 29.06829,0.0137 -12.09917,-16.81665 18.36819,-23.98335 3.27273,0 -14.91205,19.50937 15.19781,21.29063 -9.82751,0 z"
       id="path4205"
       inkscape:connector-curvature="0"
       style="fill:#000000;fill-opacity:0.11764706" />
    <path
       inkscape:connector-curvature="0"
       style="fill:#000000;fill-opacity:0.39215686;stroke:none"
       d="m 386.50893,499.79799 c -1.07728,0 -1.9375,0.8602 -1.9375,1.9375 l 0,43.0625 c 0,0.7934 0.48002,1.449 1.15625,1.75 -0.30934,-0.3333 -0.5,-0.7824 -0.5,-1.2812 l 0,-42.9375 c 0,-1.0482 0.8269,-1.875 1.875,-1.875 l 42.9375,0 c 1.0481,0 1.875,0.8268 1.875,1.875 l 0,42.9375 c 0,0.4988 -0.19066,0.9479 -0.5,1.2812 0.67623,-0.301 1.15625,-0.9566 1.15625,-1.75 l 0,-43.0625 c 0,-1.0773 -0.86022,-1.9375 -1.9375,-1.9375 l -44.125,0 z"
       id="rect4280" />
    <path
       inkscape:connector-curvature="0"
       style="fill:#ffffff;fill-opacity:0.5372549;stroke:none"
       d="m 387.10268,500.45429 c -0.91709,0 -1.67115,0.6395 -1.84375,1.5 0.33561,-0.2799 0.77451,-0.4375 1.25,-0.4375 l 44.125,0 c 0.47549,0 0.91439,0.1576 1.25,0.4375 -0.1726,-0.8605 -0.92666,-1.5 -1.84375,-1.5 l -42.9375,0 z"
       id="path7515" />
    <path
       inkscape:connector-curvature="0"
       style="fill:#000000;fill-opacity:1;stroke:none"
       d="m 384.57143,544.79799 0,1.0625 c 0,1.0773 0.86022,1.9375 1.9375,1.9375 l 44.125,0 c 1.07728,0 1.9375,-0.8602 1.9375,-1.9375 l 0,-1.0625 c 0,1.0773 -0.86022,1.9375 -1.9375,1.9375 l -44.125,0 c -1.07728,0 -1.9375,-0.8602 -1.9375,-1.9375 z"
       id="rect846" />
    <path
       style="fill:#000000;fill-opacity:0.23529412"
       inkscape:connector-curvature="0"
       id="path4201"
       d="m 389.34273,544.5843 14.85141,-19.41775 -15.28981,-21.35032 9.82736,0.009 12.18327,16.78782 -18.21651,23.97208 -3.35572,0 z m 29.06829,0.0137 -12.09917,-16.81665 18.36819,-23.98335 3.27273,0 -14.91205,19.50937 15.19781,21.29063 -9.82751,0 z" />
    <path
       d="m 389.34273,544.1843 14.85141,-19.41775 -15.28981,-21.35032 9.82736,0.009 12.18327,16.78782 -18.21651,23.97208 -3.35572,0 z m 29.06829,0.0137 -12.09917,-16.81665 18.36819,-23.98335 3.27273,0 -14.91205,19.50937 15.19781,21.29063 -9.82751,0 z"
       id="path17"
       inkscape:connector-curvature="0"
       style="fill:url(#linearGradient4182);fill-opacity:1" />
    <path
       style="fill:#000000;fill-opacity:0.3137255"
       d="M 42.769531 3.5996094 L 28.46875 22.308594 L 28.763672 22.722656 L 43.380859 3.5996094 L 42.769531 3.5996094 z M 4.3320312 3.6191406 L 19.326172 24.554688 L 19.623047 24.167969 L 4.90625 3.6191406 L 4.3320312 3.6191406 z M 26.046875 20.005859 L 8.1269531 43.587891 L 5.3828125 43.587891 L 4.7714844 44.386719 L 8.1269531 44.386719 L 26.34375 20.416016 L 26.046875 20.005859 z M 22.037109 27.195312 L 21.740234 27.583984 L 33.839844 44.400391 L 43.667969 44.400391 L 43.095703 43.599609 L 33.839844 43.599609 L 22.037109 27.195312 z "
       transform="translate(384.57143,499.798)"
       id="path4209" />
    <path
       style="fill:#ffffff;fill-opacity:0.23529412"
       d="M 40.109375 3.5996094 L 21.740234 27.583984 L 21.888672 27.789062 L 40.109375 4 L 43.074219 4 L 43.380859 3.5996094 L 40.109375 3.5996094 z M 4.3320312 3.6191406 L 4.6171875 4.0175781 L 14.160156 4.0273438 L 26.195312 20.611328 L 26.34375 20.416016 L 14.160156 3.6269531 L 4.3320312 3.6191406 z M 28.617188 23.316406 L 28.46875 23.509766 L 43.382812 44.400391 L 43.667969 44.400391 L 28.617188 23.316406 z M 19.474609 25.162109 L 4.7714844 44.386719 L 5.078125 44.386719 L 19.623047 25.369141 L 19.474609 25.162109 z "
       transform="translate(384.57143,499.798)"
       id="path4214" />
  </g>
</svg>
