<?xml version="1.0" encoding="UTF-8" standalone="no"?>
<!-- Created with Inkscape (http://www.inkscape.org/) -->

<svg
   xmlns:dc="http://purl.org/dc/elements/1.1/"
   xmlns:cc="http://creativecommons.org/ns#"
   xmlns:rdf="http://www.w3.org/1999/02/22-rdf-syntax-ns#"
   xmlns:svg="http://www.w3.org/2000/svg"
   xmlns="http://www.w3.org/2000/svg"
   xmlns:xlink="http://www.w3.org/1999/xlink"
   xmlns:sodipodi="http://sodipodi.sourceforge.net/DTD/sodipodi-0.dtd"
   xmlns:inkscape="http://www.inkscape.org/namespaces/inkscape"
   width="48"
   height="48"
   id="svg5453"
   version="1.1"
   inkscape:version="0.91+devel r"
   sodipodi:docname="xonotic.svg">
  <defs
     id="defs5455">
    <linearGradient
       gradientUnits="userSpaceOnUse"
       y2="-1004.2372"
       x2="29.999998"
       y1="-1052.6122"
       x1="29.999998"
       id="linearGradient1169"
       xlink:href="#linearGradient4077"
       inkscape:collect="always"
       gradientTransform="translate(384.57143,504.56419)" />
    <radialGradient
       inkscape:collect="always"
       xlink:href="#linearGradient3700"
       id="radialGradient3715"
       gradientUnits="userSpaceOnUse"
       cx="1024"
       cy="494"
       fx="1024"
       fy="494"
       r="256"
       gradientTransform="matrix(0.125,0,0,0.125,-104.00001,-39.75)" />
    <linearGradient
       id="linearGradient3700">
      <stop
         style="stop-color:#000000;stop-opacity:0;"
         offset="0"
         id="stop3705" />
      <stop
         id="stop3707"
         offset="0.31"
         style="stop-color:#000000;stop-opacity:0;" />
      <stop
         style="stop-color:#000000;stop-opacity:0.18431373;"
         offset="0.44"
         id="stop3709" />
      <stop
         id="stop3711"
         offset="0.85000002"
         style="stop-color:#000000;stop-opacity:0;" />
      <stop
         id="stop3713"
         offset="1"
         style="stop-color:#000000;stop-opacity:0;" />
    </linearGradient>
    <radialGradient
       inkscape:collect="always"
       xlink:href="#linearGradient3681"
       id="radialGradient3687"
       cx="1024"
       cy="494"
       fx="1024"
       fy="494"
       r="256"
       gradientUnits="userSpaceOnUse"
       gradientTransform="matrix(0.125,0,0,0.125,-104.00001,-39.75)" />
    <linearGradient
       id="linearGradient3681">
      <stop
         id="stop3691"
         offset="0"
         style="stop-color:#1f7fff;stop-opacity:0;" />
      <stop
         style="stop-color:#1f7fff;stop-opacity:0;"
         offset="0.31"
         id="stop3695" />
      <stop
         id="stop3689"
         offset="0.44"
         style="stop-color:#1f7fff;stop-opacity:0.18431373;" />
      <stop
         style="stop-color:#1f7fff;stop-opacity:0;"
         offset="0.85000002"
         id="stop3704" />
      <stop
         style="stop-color:#1f7fff;stop-opacity:0;"
         offset="1"
         id="stop3685" />
    </linearGradient>
    <linearGradient
       inkscape:collect="always"
       xlink:href="#linearGradient3699"
       id="linearGradient3836"
       x1="1024"
       y1="640"
       x2="1024"
       y2="384"
       gradientUnits="userSpaceOnUse"
       gradientTransform="matrix(0.125,0,0,0.125,-104.00001,-39.75)" />
    <linearGradient
       id="linearGradient3699">
      <stop
         id="stop3701"
         offset="0"
         style="stop-color:#3f0f00;stop-opacity:0.56078434;" />
      <stop
         style="stop-color:#ff7f2f;stop-opacity:0.56078434;"
         offset="0.75"
         id="stop3673" />
      <stop
         id="stop3703"
         offset="1"
         style="stop-color:#ff9f5f;stop-opacity:0.56078434;" />
    </linearGradient>
    <linearGradient
       inkscape:collect="always"
       xlink:href="#linearGradient3674"
       id="linearGradient3680"
       x1="1024"
       y1="592"
       x2="1024"
       y2="384"
       gradientUnits="userSpaceOnUse"
       gradientTransform="matrix(0.125,0,0,0.125,-104.00001,-39.75)" />
    <linearGradient
       id="linearGradient3674">
      <stop
         style="stop-color:#000000;stop-opacity:1;"
         offset="0"
         id="stop3676" />
      <stop
         style="stop-color:#3f0b00;stop-opacity:1;"
         offset="1"
         id="stop3678" />
    </linearGradient>
    <linearGradient
       inkscape:collect="always"
       xlink:href="#linearGradient3699"
       id="linearGradient3672"
       x1="1024"
       y1="592"
       x2="1024"
       y2="384"
       gradientUnits="userSpaceOnUse"
       gradientTransform="matrix(0.125,0,0,0.125,-104.00001,-39.75)" />
    <linearGradient
       inkscape:collect="always"
       xlink:href="#linearGradient3699"
       id="linearGradient4214"
       x1="1024"
       y1="640"
       x2="1024"
       y2="440"
       gradientUnits="userSpaceOnUse"
       gradientTransform="matrix(0.125,0,0,0.125,280.57142,460.048)" />
    <linearGradient
       inkscape:collect="always"
       xlink:href="#linearGradient3674"
       id="linearGradient4196"
       x1="1024"
       y1="640"
       x2="1024"
       y2="440"
       gradientUnits="userSpaceOnUse"
       gradientTransform="matrix(0.125,0,0,0.125,280.57142,460.048)" />
    <linearGradient
       id="linearGradient3606">
      <stop
         style="stop-color:#bfdfff;stop-opacity:1;"
         offset="0"
         id="stop3608" />
      <stop
         id="stop3616"
         offset="0.2"
         style="stop-color:#5fafff;stop-opacity:1;" />
      <stop
         id="stop3614"
         offset="0.80000001"
         style="stop-color:#5fafff;stop-opacity:1;" />
      <stop
         style="stop-color:#bfdfff;stop-opacity:1;"
         offset="1"
         id="stop3610" />
    </linearGradient>
    <linearGradient
       id="linearGradient3698">
      <stop
         style="stop-color:#000000;stop-opacity:1;"
         offset="0"
         id="stop3700" />
      <stop
         id="stop3706"
         offset="0.5"
         style="stop-color:#0f3f6f;stop-opacity:1;" />
      <stop
         style="stop-color:#000000;stop-opacity:1;"
         offset="1"
         id="stop3702" />
    </linearGradient>
    <linearGradient
       inkscape:collect="always"
       xlink:href="#linearGradient3606"
       id="linearGradient3689"
       gradientUnits="userSpaceOnUse"
       gradientTransform="matrix(0.125,0,0,0.125,280.57142,332.048)"
       x1="1024"
       y1="1664"
       x2="1024"
       y2="1480" />
    <linearGradient
       inkscape:collect="always"
       xlink:href="#linearGradient3698"
       id="linearGradient3686"
       gradientUnits="userSpaceOnUse"
       x1="1024"
       y1="640"
       x2="1024"
       y2="384"
       gradientTransform="matrix(0.125,0,0,0.125,280.57142,460.048)" />
    <linearGradient
       inkscape:collect="always"
       xlink:href="#linearGradient3699"
       id="linearGradient4745"
       gradientUnits="userSpaceOnUse"
       x1="1024"
       y1="640"
       x2="1024"
       y2="440" />
    <linearGradient
       id="linearGradient4077">
      <stop
         id="stop4079"
         offset="0"
         style="stop-color:#000000;stop-opacity:1" />
      <stop
         id="stop4081"
         offset="1"
         style="stop-color:#1a1a1a;stop-opacity:1" />
    </linearGradient>
    <style
       type="text/css"
       id="style874"><![CDATA[
    .fil0 {fill:#1F1A17}
   ]]></style>
    <linearGradient
       inkscape:collect="always"
       xlink:href="#linearGradient3699"
       id="linearGradient5027"
       gradientUnits="userSpaceOnUse"
       gradientTransform="matrix(0.125,0,0,0.125,280.57142,460.548)"
       x1="1024"
       y1="640"
       x2="1024"
       y2="384" />
    <linearGradient
       inkscape:collect="always"
       xlink:href="#linearGradient3699"
       id="linearGradient5031"
       gradientUnits="userSpaceOnUse"
       gradientTransform="matrix(0.125,0,0,0.125,280.57142,460.948)"
       x1="1024"
       y1="640"
       x2="1024"
       y2="384" />
    <linearGradient
       inkscape:collect="always"
       xlink:href="#linearGradient3699"
       id="linearGradient5035"
       gradientUnits="userSpaceOnUse"
       gradientTransform="matrix(0.125,0,0,0.125,280.57142,461.448)"
       x1="1024"
       y1="640"
       x2="1024"
       y2="384" />
  </defs>
  <sodipodi:namedview
     id="base"
     pagecolor="#ffffff"
     bordercolor="#666666"
     borderopacity="1.0"
     inkscape:pageopacity="0"
     inkscape:pageshadow="2"
     inkscape:zoom="8"
     inkscape:cx="40.393857"
     inkscape:cy="37.138431"
     inkscape:document-units="px"
     inkscape:current-layer="layer1"
     showgrid="false"
     fit-margin-top="0"
     fit-margin-left="0"
     fit-margin-right="0"
     fit-margin-bottom="0"
     inkscape:window-width="1366"
     inkscape:window-height="670"
     inkscape:window-x="-4"
     inkscape:window-y="29"
     inkscape:window-maximized="1"
     inkscape:showpageshadow="false"
     borderlayer="true"
     showguides="false">
    <inkscape:grid
       type="xygrid"
       id="grid4167" />
    <sodipodi:guide
       position="1.1650391e-05,24.000209"
       orientation="24,0"
       id="guide4171" />
    <sodipodi:guide
       position="1.1650391e-05,0.00020947266"
       orientation="0,24"
       id="guide4173" />
    <sodipodi:guide
       position="24.000012,0.00020947266"
       orientation="-24,0"
       id="guide4175" />
    <sodipodi:guide
       position="24.000012,24.000209"
       orientation="0,-24"
       id="guide4177" />
  </sodipodi:namedview>
  <metadata
     id="metadata5458">
    <rdf:RDF>
      <cc:Work
         rdf:about="">
        <dc:format>image/svg+xml</dc:format>
        <dc:type
           rdf:resource="http://purl.org/dc/dcmitype/StillImage" />
        <dc:title />
      </cc:Work>
    </rdf:RDF>
  </metadata>
  <g
     inkscape:label="Capa 1"
     inkscape:groupmode="layer"
     id="layer1"
     transform="translate(-384.57143,-499.798)">
    <rect
       style="fill:url(#linearGradient1169);fill-opacity:1;stroke:none"
       id="rect2991-1"
       width="48"
       height="48"
       x="384.57144"
       y="-547.79797"
       ry="1.9445436"
       transform="scale(1,-1)" />
    <path
       style="fill:url(#radialGradient3715);fill-opacity:1;stroke:none"
       d="M 1.9453125 0 C 0.86803535 0 0 0.86803535 0 1.9453125 L 0 43.154297 C 1.5957501 44.963255 3.3922087 46.589622 5.3554688 48 L 42.644531 48 C 44.607791 46.589622 46.40425 44.963255 48 43.154297 L 48 1.9453125 C 48 0.86803535 47.131965 0 46.054688 0 L 1.9453125 0 z "
       transform="translate(384.57143,499.798)"
       id="BackgroundShadow" />
    <path
       style="fill:url(#radialGradient3687);fill-opacity:1;stroke:none"
       d="M 1.9453125 0 C 0.86803535 0 0 0.86803535 0 1.9453125 L 0 43.154297 C 1.5957501 44.963255 3.3922087 46.589622 5.3554688 48 L 42.644531 48 C 44.607791 46.589622 46.40425 44.963255 48 43.154297 L 48 1.9453125 C 48 0.86803535 47.131965 0 46.054688 0 L 1.9453125 0 z "
       transform="translate(384.57143,499.798)"
       id="BackgroundGlow" />
    <path
       id="path5033"
       d="m 387.69838,507.56519 c -1.03461,-0.003 -2.0789,0.0415 -3.12695,0.10156 l 0,5.71875 c 0.66539,0.26304 1.35303,0.55537 2.09766,0.92188 -0.20814,-3.76048 6.52358,-3.65135 5.87109,0.91406 -0.32101,2.24613 -3.54712,2.51562 -7.96875,2.53711 l 0,3.03125 c 1.44033,-1.1022 4.37721,-1.02116 4.73438,1.91211 0.27035,2.22026 -1.73728,2.94887 -4.73438,3.55664 l 0,5.6875 c 0.17811,-0.0291 0.35483,-0.0523 0.53516,-0.0879 -1.73758,-1.91799 2.72018,-4.3375 4.15234,-1.46485 1.50439,3.01755 -1.76738,3.47715 -4.6875,5.13086 l 0,3.69531 c 1.71871,-0.50666 3.28472,-0.22974 4.44141,-0.18945 -0.0299,-3.10176 3.30501,-3.82168 4.4375,-0.66015 0.7152,1.99647 4.52346,1.76912 8.76562,2.57812 -6.27707,-2.57771 -10.61231,-8.84879 -10.38672,-16.02734 0.19855,-6.31742 3.87706,-11.71055 9.13672,-14.39844 -4.3012,-2.22912 -8.71971,-2.9442 -13.26758,-2.95703 z m 41.7461,0 c -4.54787,0.0128 -8.96639,0.72791 -13.26758,2.95703 5.25966,2.68789 8.93817,8.08103 9.13672,14.39844 0.22557,7.17855 -4.10965,13.44962 -10.38672,16.02734 4.24216,-0.80901 8.05042,-0.58166 8.76562,-2.57812 1.13249,-3.16153 4.46739,-2.44161 4.4375,0.66015 1.15669,-0.0403 2.72271,-0.31721 4.44141,0.18945 l 0,-3.69531 c -2.92012,-1.65371 -6.19189,-2.11332 -4.6875,-5.13086 1.43216,-2.87266 5.88992,-0.45313 4.15234,1.46485 0.18033,0.0356 0.35705,0.0588 0.53516,0.0879 l 0,-5.6875 c -2.9971,-0.60777 -5.00474,-1.33638 -4.73437,-3.55664 0.35715,-2.93326 3.29404,-3.01431 4.73437,-1.91211 l 0,-3.03125 c -4.42163,-0.0215 -7.64775,-0.29098 -7.96875,-2.53711 -0.65251,-4.56541 6.07923,-4.67455 5.87109,-0.91406 0.74463,-0.36651 1.43227,-0.65884 2.09766,-0.92188 l 0,-5.71875 c -1.04805,-0.0601 -2.09234,-0.10448 -3.12695,-0.10156 z"
       style="opacity:0.15;fill:url(#linearGradient5035);fill-opacity:1;fill-rule:evenodd;stroke:none"
       inkscape:connector-curvature="0" />
    <path
       inkscape:connector-curvature="0"
       style="opacity:0.3;fill:url(#linearGradient5031);fill-opacity:1;fill-rule:evenodd;stroke:none"
       d="m 387.69838,507.06519 c -1.03461,-0.003 -2.0789,0.0415 -3.12695,0.10156 l 0,5.71875 c 0.66539,0.26304 1.35303,0.55537 2.09766,0.92188 -0.20814,-3.76048 6.52358,-3.65135 5.87109,0.91406 -0.32101,2.24613 -3.54712,2.51562 -7.96875,2.53711 l 0,3.03125 c 1.44033,-1.1022 4.37721,-1.02116 4.73438,1.91211 0.27035,2.22026 -1.73728,2.94887 -4.73438,3.55664 l 0,5.6875 c 0.17811,-0.0291 0.35483,-0.0523 0.53516,-0.0879 -1.73758,-1.91799 2.72018,-4.3375 4.15234,-1.46485 1.50439,3.01755 -1.76738,3.47715 -4.6875,5.13086 l 0,3.69531 c 1.71871,-0.50666 3.28472,-0.22974 4.44141,-0.18945 -0.0299,-3.10176 3.30501,-3.82168 4.4375,-0.66015 0.7152,1.99647 4.52346,1.76912 8.76562,2.57812 -6.27707,-2.57771 -10.61231,-8.84879 -10.38672,-16.02734 0.19855,-6.31742 3.87706,-11.71055 9.13672,-14.39844 -4.3012,-2.22912 -8.71971,-2.9442 -13.26758,-2.95703 z m 41.7461,0 c -4.54787,0.0128 -8.96639,0.72791 -13.26758,2.95703 5.25966,2.68789 8.93817,8.08103 9.13672,14.39844 0.22557,7.17855 -4.10965,13.44962 -10.38672,16.02734 4.24216,-0.80901 8.05042,-0.58166 8.76562,-2.57812 1.13249,-3.16153 4.46739,-2.44161 4.4375,0.66015 1.15669,-0.0403 2.72271,-0.31721 4.44141,0.18945 l 0,-3.69531 c -2.92012,-1.65371 -6.19189,-2.11332 -4.6875,-5.13086 1.43216,-2.87266 5.88992,-0.45313 4.15234,1.46485 0.18033,0.0356 0.35705,0.0588 0.53516,0.0879 l 0,-5.6875 c -2.9971,-0.60777 -5.00474,-1.33638 -4.73437,-3.55664 0.35715,-2.93326 3.29404,-3.01431 4.73437,-1.91211 l 0,-3.03125 c -4.42163,-0.0215 -7.64775,-0.29098 -7.96875,-2.53711 -0.65251,-4.56541 6.07923,-4.67455 5.87109,-0.91406 0.74463,-0.36651 1.43227,-0.65884 2.09766,-0.92188 l 0,-5.71875 c -1.04805,-0.0601 -2.09234,-0.10448 -3.12695,-0.10156 z"
       id="path5029" />
    <path
       id="path5025"
       d="m 387.69838,506.66519 c -1.03461,-0.003 -2.0789,0.0415 -3.12695,0.10156 l 0,5.71875 c 0.66539,0.26304 1.35303,0.55537 2.09766,0.92188 -0.20814,-3.76048 6.52358,-3.65135 5.87109,0.91406 -0.32101,2.24613 -3.54712,2.51562 -7.96875,2.53711 l 0,3.03125 c 1.44033,-1.1022 4.37721,-1.02116 4.73438,1.91211 0.27035,2.22026 -1.73728,2.94887 -4.73438,3.55664 l 0,5.6875 c 0.17811,-0.0291 0.35483,-0.0523 0.53516,-0.0879 -1.73758,-1.91799 2.72018,-4.3375 4.15234,-1.46485 1.50439,3.01755 -1.76738,3.47715 -4.6875,5.13086 l 0,3.69531 c 1.71871,-0.50666 3.28472,-0.22974 4.44141,-0.18945 -0.0299,-3.10176 3.30501,-3.82168 4.4375,-0.66015 0.7152,1.99647 4.52346,1.76912 8.76562,2.57812 -6.27707,-2.57771 -10.61231,-8.84879 -10.38672,-16.02734 0.19855,-6.31742 3.87706,-11.71055 9.13672,-14.39844 -4.3012,-2.22912 -8.71971,-2.9442 -13.26758,-2.95703 z m 41.7461,0 c -4.54787,0.0128 -8.96639,0.72791 -13.26758,2.95703 5.25966,2.68789 8.93817,8.08103 9.13672,14.39844 0.22557,7.17855 -4.10965,13.44962 -10.38672,16.02734 4.24216,-0.80901 8.05042,-0.58166 8.76562,-2.57812 1.13249,-3.16153 4.46739,-2.44161 4.4375,0.66015 1.15669,-0.0403 2.72271,-0.31721 4.44141,0.18945 l 0,-3.69531 c -2.92012,-1.65371 -6.19189,-2.11332 -4.6875,-5.13086 1.43216,-2.87266 5.88992,-0.45313 4.15234,1.46485 0.18033,0.0356 0.35705,0.0588 0.53516,0.0879 l 0,-5.6875 c -2.9971,-0.60777 -5.00474,-1.33638 -4.73437,-3.55664 0.35715,-2.93326 3.29404,-3.01431 4.73437,-1.91211 l 0,-3.03125 c -4.42163,-0.0215 -7.64775,-0.29098 -7.96875,-2.53711 -0.65251,-4.56541 6.07923,-4.67455 5.87109,-0.91406 0.74463,-0.36651 1.43227,-0.65884 2.09766,-0.92188 l 0,-5.71875 c -1.04805,-0.0601 -2.09234,-0.10448 -3.12695,-0.10156 z"
       style="fill:url(#linearGradient5027);fill-opacity:1;fill-rule:evenodd;stroke:none;opacity:0.6"
       inkscape:connector-curvature="0" />
    <path
       style="fill:#000000;fill-opacity:0.52577317;fill-rule:evenodd;stroke:#000000;stroke-width:1;stroke-linejoin:round;stroke-miterlimit:4;stroke-dasharray:none;stroke-opacity:0.11764706"
       d="m 412.70814,516.21284 c -4.25017,0.68555 -9.68903,5.99315 -14.98828,10.25782 l 6.51562,-3.00782 -3.76562,4.00391 3.2539,-1.52344 c -1.0681,2.10535 -0.95374,5.74709 -4.46875,6.46485 1.83023,1.81133 4.18227,3.09756 6.81251,3.60156 1.2539,0.23828 2.1289,3.73828 2.5039,3.73828 0.375,0 1.25,-3.5 2.5039,-3.73828 2.73102,-0.52331 5.16132,-1.89004 7.01954,-3.8125 -9.29905,0.1162 -8.71147,-9.31852 -0.49609,-11.38281 -0.63363,-0.59038 -2.74244,-0.47976 -4.46875,-0.20703 0.30084,-2.01181 3.15357,-2.97532 5.26171,-2.71485 -1.2048,-1.22226 -2.67168,-2.10532 -5.10546,-1.08984 l -0.57813,-0.58985 z m -1.16797,1.69532 0.63281,0.625 c -0.82622,0.6997 -1.56034,0.74621 -2.25781,0.12109 l 1.625,-0.74609 z"
       id="path5023"
       sodipodi:nodetypes="cccccccsccccccccccc"
       inkscape:connector-curvature="0" />
    <path
       inkscape:connector-curvature="0"
       sodipodi:nodetypes="cccccccsccccccccccc"
       id="path5019"
       d="m 412.70814,515.61284 c -4.25017,0.68555 -9.68903,5.99315 -14.98828,10.25782 l 6.51562,-3.00782 -3.76562,4.00391 3.2539,-1.52344 c -1.0681,2.10535 -0.95374,5.74709 -4.46875,6.46485 1.83023,1.81133 4.18227,3.09756 6.81251,3.60156 1.2539,0.23828 2.1289,3.73828 2.5039,3.73828 0.375,0 1.25,-3.5 2.5039,-3.73828 2.73102,-0.52331 5.16132,-1.89004 7.01954,-3.8125 -9.29905,0.1162 -8.71147,-9.31852 -0.49609,-11.38281 -0.63363,-0.59038 -2.74244,-0.47976 -4.46875,-0.20703 0.30084,-2.01181 3.15357,-2.97532 5.26171,-2.71485 -1.2048,-1.22226 -2.67168,-2.10532 -5.10546,-1.08984 l -0.57813,-0.58985 z m -1.16797,1.69532 0.63281,0.625 c -0.82622,0.6997 -1.56034,0.74621 -2.25781,0.12109 l 1.625,-0.74609 z"
       style="fill:#000000;fill-opacity:0.52577317;fill-rule:evenodd;stroke:#000000;stroke-width:1;stroke-linejoin:round;stroke-miterlimit:4;stroke-dasharray:none;stroke-opacity:0.23529412" />
    <path
       inkscape:connector-curvature="0"
       style="fill:#000000;fill-opacity:1;stroke:none;stroke-width:8;stroke-miterlimit:4;stroke-dasharray:none;stroke-opacity:1"
       d="m 367.70903,421.8292 c -43.3003,20.5296 -73.28127,64.6413 -73.28127,115.7188 0,70.656 57.34397,128 128.00007,128 70.656,0 128,-57.344 128,-128 0,-51.0775 -29.9809,-95.1892 -73.2812,-115.7188 34.1753,19.1854 57.2812,55.7626 57.2812,97.7188 0,54.5462 -39.0631,100.0173 -90.7188,109.9688 -6.8922,1.3277 -15.2812,32.0312 -21.2812,32.0312 -6,0 -14.3892,-30.7034 -21.2814,-32.0312 -51.6555,-9.9516 -90.71867,-55.4226 -90.71867,-109.9688 0,-41.9562 23.10587,-78.5334 57.28127,-97.7188 z"
       id="RingShadow"
       transform="matrix(0.125,0,0,0.125,355.76795,456.8545)" />
    <path
       style="fill:url(#linearGradient3836);fill-opacity:1;fill-rule:evenodd;stroke:none"
       d="M 3.1269531 6.3671875 C 2.0923406 6.3642683 1.0480537 6.4086464 0 6.46875 L 0 12.1875 C 0.66538506 12.450538 1.3530339 12.742865 2.0976562 13.109375 C 1.8895187 9.3489 8.6212375 9.458025 7.96875 14.023438 C 7.6477364 16.269566 4.4216267 16.539059 0 16.560547 L 0 19.591797 C 1.4403258 18.489601 4.3772062 18.570644 4.734375 21.503906 C 5.0047311 23.724168 2.9970994 24.452781 0 25.060547 L 0 30.748047 C 0.17811175 30.718984 0.35482928 30.69575 0.53515625 30.660156 C -1.2024188 28.742169 3.2553375 26.322663 4.6875 29.195312 C 6.1918926 32.212862 2.9201156 32.672456 0 34.326172 L 0 38.021484 C 1.7187053 37.514821 3.2847238 37.791744 4.4414062 37.832031 C 4.4115187 34.730269 7.7464188 34.01035 8.8789062 37.171875 C 9.5941062 39.16835 13.402369 38.941 17.644531 39.75 C 11.367456 37.172287 7.032225 30.901206 7.2578125 23.722656 C 7.4563625 17.405239 11.134869 12.012106 16.394531 9.3242188 C 12.093333 7.0950969 7.6748214 6.3800194 3.1269531 6.3671875 z M 44.873047 6.3671875 C 40.325177 6.3800209 35.906658 7.0950969 31.605469 9.3242188 C 36.865131 12.012106 40.543638 17.405251 40.742188 23.722656 C 40.967762 30.901206 36.632544 37.172275 30.355469 39.75 C 34.597631 38.940988 38.405894 39.168338 39.121094 37.171875 C 40.253581 34.01035 43.588481 34.730269 43.558594 37.832031 C 44.715276 37.791744 46.281295 37.514821 48 38.021484 L 48 34.326172 C 45.079884 32.672457 41.808107 32.212854 43.3125 29.195312 C 44.744663 26.32265 49.202419 28.742181 47.464844 30.660156 C 47.645171 30.69575 47.821888 30.718984 48 30.748047 L 48 25.060547 C 45.002903 24.452779 42.995264 23.724168 43.265625 21.503906 C 43.622778 18.570652 46.55967 18.489604 48 19.591797 L 48 16.560547 C 43.578372 16.53906 40.352254 16.269566 40.03125 14.023438 C 39.378737 9.458025 46.110481 9.3488875 45.902344 13.109375 C 46.646966 12.742865 47.334615 12.450538 48 12.1875 L 48 6.46875 C 46.951946 6.4086467 45.90766 6.364268 44.873047 6.3671875 z "
       transform="translate(384.57143,499.798)"
       id="PhoenixWingsGlow" />
    <path
       style="fill:url(#linearGradient3680);fill-opacity:1;fill-rule:evenodd;stroke:url(#linearGradient3672);stroke-width:0.25;stroke-linejoin:round;stroke-miterlimit:4;stroke-dasharray:none"
       d="M 3.1269531 6.3671875 C 2.0923405 6.3642682 1.0480538 6.4086465 0 6.46875 L 0 12.1875 C 0.6653847 12.450538 1.3530343 12.742865 2.0976562 13.109375 C 1.8895263 9.348895 8.62124 9.4580275 7.96875 14.023438 C 7.6477364 16.269565 4.4216258 16.539059 0 16.560547 L 0 19.591797 C 1.4403266 18.489601 4.3772046 18.570643 4.734375 21.503906 C 5.004733 23.724168 2.9970998 24.452781 0 25.060547 L 0 30.748047 C 0.17811152 30.718984 0.35482953 30.69575 0.53515625 30.660156 C -1.2024138 28.742166 3.25534 26.322662 4.6875 29.195312 C 6.1918941 32.212862 2.9201186 32.672455 0 34.326172 L 0 38.021484 C 1.7187043 37.514822 3.2847238 37.791744 4.4414062 37.832031 C 4.4115263 34.730261 7.7464263 34.010355 8.8789062 37.171875 C 9.5941062 39.168355 13.402371 38.941 17.644531 39.75 C 11.367451 37.17229 7.0322225 30.901206 7.2578125 23.722656 C 7.4563625 17.405236 11.134871 12.012099 16.394531 9.3242188 C 12.093334 7.095095 7.6748218 6.3800199 3.1269531 6.3671875 z M 44.873047 6.3671875 C 40.325177 6.3800212 35.906659 7.095095 31.605469 9.3242188 C 36.865139 12.012099 40.543637 17.405246 40.742188 23.722656 C 40.967767 30.901206 36.632549 37.17228 30.355469 39.75 C 34.597629 38.94099 38.405894 39.168345 39.121094 37.171875 C 40.253574 34.010355 43.588474 34.730271 43.558594 37.832031 C 44.715276 37.791744 46.281296 37.51482 48 38.021484 L 48 34.326172 C 45.079881 32.672456 41.808106 32.212856 43.3125 29.195312 C 44.74466 26.322653 49.202414 28.742176 47.464844 30.660156 C 47.64517 30.69575 47.821888 30.718984 48 30.748047 L 48 25.060547 C 45.002903 24.45278 42.995267 23.724168 43.265625 21.503906 C 43.622783 18.570649 46.55967 18.489603 48 19.591797 L 48 16.560547 C 43.578372 16.53906 40.352256 16.269565 40.03125 14.023438 C 39.37874 9.4580275 46.110484 9.348885 45.902344 13.109375 C 46.646967 12.742865 47.334615 12.450538 48 12.1875 L 48 6.46875 C 46.951946 6.4086467 45.90766 6.3642679 44.873047 6.3671875 z "
       id="PhoenixWingsFill"
       transform="translate(384.57143,499.798)" />
    <path
       style="fill:#000000;fill-opacity:1;fill-rule:evenodd;stroke:#000000;stroke-width:8;stroke-linejoin:round;stroke-miterlimit:4;stroke-dasharray:none;stroke-opacity:1;"
       d="m 1057.0938,439.71875 c -34.0014,5.48439 -77.51225,47.9452 -119.9063,82.0625 l 52.125,-24.0625 -30.125,32.03125 26.03125,-12.1875 c -8.54487,16.84277 -7.62992,45.97673 -35.75,51.71875 14.64181,14.49069 33.4581,24.78052 54.50005,28.8125 C 1014,600 1021,628 1024,628 c 3,0 10,-28 20.0312,-29.90625 21.8482,-4.18648 41.2906,-15.12031 56.1563,-30.5 -74.3924,0.92961 -69.6917,-74.54814 -3.9687,-91.0625 -5.069,-4.72305 -21.9395,-3.83806 -35.75,-1.65625 2.4067,-16.09443 25.2286,-23.80249 42.0937,-21.71875 -9.6384,-9.77813 -21.3735,-16.84255 -40.8437,-8.71875 l -4.625,-4.71875 z m -9.3438,13.5625 5.0625,5 c -6.6098,5.59761 -12.4827,5.96968 -18.0625,0.96875 l 13,-5.96875 z"
       id="PhoenixHeadShadow"
       sodipodi:nodetypes="cccccccsccccccccccc"
       inkscape:connector-curvature="0"
       transform="matrix(0.125,0,0,0.125,280.57142,460.048)" />
    <path
       sodipodi:nodetypes="cccccccsccccccccccc"
       id="PhoenixHeadGlow"
       d="m 1057.0938,439.71875 c -34.0014,5.48439 -77.51225,47.9452 -119.9063,82.0625 l 52.125,-24.0625 -30.125,32.03125 26.03125,-12.1875 c -8.54487,16.84277 -7.62992,45.97673 -35.75,51.71875 14.64181,14.49069 33.4581,24.78052 54.50005,28.8125 C 1014,600 1021,628 1024,628 c 3,0 10,-28 20.0312,-29.90625 21.8482,-4.18648 41.2906,-15.12031 56.1563,-30.5 -74.3924,0.92961 -69.6917,-74.54814 -3.9687,-91.0625 -5.069,-4.72305 -21.9395,-3.83806 -35.75,-1.65625 2.4067,-16.09443 25.2286,-23.80249 42.0937,-21.71875 -9.6384,-9.77813 -21.3735,-16.84255 -40.8437,-8.71875 l -4.625,-4.71875 z m -9.3438,13.5625 5.0625,5 c -6.6098,5.59761 -12.4827,5.96968 -18.0625,0.96875 l 13,-5.96875 z"
       style="fill:url(#linearGradient4745);fill-opacity:1;fill-rule:evenodd;stroke:none;"
       inkscape:connector-curvature="0"
       transform="matrix(0.125,0,0,0.125,280.57142,460.048)" />
    <path
       style="fill:url(#linearGradient4196);fill-opacity:1;fill-rule:evenodd;stroke:url(#linearGradient4214);stroke-width:0.25;stroke-linejoin:round;stroke-miterlimit:4;stroke-dasharray:none;stroke-opacity:1;"
       d="m 412.70814,515.01284 c -4.25017,0.68555 -9.68903,5.99315 -14.98828,10.25782 l 6.51562,-3.00782 -3.76562,4.00391 3.2539,-1.52344 c -1.0681,2.10535 -0.95374,5.74709 -4.46875,6.46485 1.83023,1.81133 4.18227,3.09756 6.81251,3.60156 1.2539,0.23828 2.1289,3.73828 2.5039,3.73828 0.375,0 1.25,-3.5 2.5039,-3.73828 2.73102,-0.52331 5.16132,-1.89004 7.01954,-3.8125 -9.29905,0.1162 -8.71147,-9.31852 -0.49609,-11.38281 -0.63363,-0.59038 -2.74244,-0.47976 -4.46875,-0.20704 0.30084,-2.0118 3.15357,-2.97531 5.26171,-2.71484 -1.2048,-1.22226 -2.67168,-2.10532 -5.10546,-1.08984 l -0.57813,-0.58985 z m -1.16797,1.69532 0.63281,0.625 c -0.82622,0.6997 -1.56034,0.74621 -2.25781,0.12109 l 1.625,-0.74609 z"
       id="PhoenixHeadFill"
       sodipodi:nodetypes="cccccccsccccccccccc"
       inkscape:connector-curvature="0" />
    <path
       id="RingGlow"
       d="M 969.28125,396.2812 C 925.981,416.8108 896,460.9225 896,512 c 0,70.656 57.344,128 128.0001,128 70.656,0 128,-57.344 128,-128 0,-51.0775 -29.9809,-95.1892 -73.2812,-115.7188 34.1753,19.1854 57.2812,55.7626 57.2812,97.7188 0,54.5462 -39.0631,100.0173 -90.7188,109.9688 -6.8922,1.3277 -15.2812,32.0312 -21.2812,32.0312 -6,0 -14.3892,-30.7034 -21.2814,-32.0312 C 951.06315,594.0172 912,548.5462 912,494 c 0,-41.9562 23.1059,-78.5334 57.28125,-97.7188 z"
       style="fill:#1f7fff;fill-opacity:1;stroke:none;"
       inkscape:connector-curvature="0"
       transform="matrix(0.125,0,0,0.125,280.57142,460.048)" />
    <path
       style="fill:url(#linearGradient3689);fill-opacity:1;stroke:none;"
       d="m 401.73158,509.58315 c -5.41254,2.5662 -9.16016,8.08016 -9.16016,14.46485 0,8.832 7.168,16 16.00001,16 8.832,0 16,-7.168 16,-16 0,-6.38469 -3.74761,-11.89865 -9.16015,-14.46485 4.27191,2.39818 7.16015,6.97033 7.16015,12.21485 0,6.81827 -4.88289,12.50216 -11.33985,13.7461 -0.86152,0.16596 -1.91015,4.0039 -2.66015,4.0039 -0.75,0 -1.79865,-3.83793 -2.66017,-4.0039 -6.45695,-1.24395 -11.33984,-6.92783 -11.33984,-13.7461 0,-5.24452 2.88824,-9.81668 7.16016,-12.21485 z"
       id="RingBorder"
       inkscape:connector-curvature="0" />
    <path
       style="fill:url(#linearGradient3686);fill-opacity:1;stroke:#00001f;stroke-width:0.1875;stroke-linejoin:miter;stroke-miterlimit:4;stroke-dasharray:none;stroke-opacity:1;"
       d="m 396.12611,514.59878 c -1.99527,2.62397 -3.17969,5.89847 -3.17969,9.44922 0,8.46189 6.72732,15.36059 15.125,15.625 -1,-0.875 -1.75,-3.625 -2.25,-3.75 -6.62923,-1.27875 -11.625,-7.12244 -11.625,-14.125 0,-2.6226 0.70287,-5.0825 1.92969,-7.19922 z m 24.89062,0 c 1.22681,2.11672 1.92969,4.57662 1.92969,7.19922 0,7.00256 -4.99576,12.84625 -11.625,14.125 -0.5,0.125 -1.25,2.875 -2.25,3.75 8.39769,-0.26441 15.125,-7.16311 15.125,-15.625 0,-3.55075 -1.18441,-6.82525 -3.17969,-9.44922 z"
       id="RingFill"
       sodipodi:nodetypes="csccsccsccsc"
       inkscape:connector-curvature="0" />
    <path
       inkscape:connector-curvature="0"
       style="fill:#000000;fill-opacity:1;stroke:none"
       d="m 384.57143,544.79801 0,1.0625 c 0,1.0773 0.86022,1.9375 1.9375,1.9375 l 44.125,0 c 1.07728,0 1.9375,-0.8602 1.9375,-1.9375 l 0,-1.0625 c 0,1.0773 -0.86022,1.9375 -1.9375,1.9375 l -44.125,0 c -1.07728,0 -1.9375,-0.8602 -1.9375,-1.9375 z"
       id="rect846-5" />
    <g
       id="g5041">
      <path
         id="path7515-7"
         d="m 387.10268,500.45431 c -0.91709,0 -1.67115,0.6395 -1.84375,1.5 0.33561,-0.2799 0.77451,-0.4375 1.25,-0.4375 l 44.125,0 c 0.47549,0 0.91439,0.1576 1.25,0.4375 -0.1726,-0.8605 -0.92666,-1.5 -1.84375,-1.5 l -42.9375,0 z"
         style="fill:#ffffff;fill-opacity:0.5372549;stroke:none"
         inkscape:connector-curvature="0" />
      <path
         id="rect4280-7"
         d="m 386.50893,499.79801 c -1.07728,0 -1.9375,0.8602 -1.9375,1.9375 l 0,43.0625 c 0,0.7934 0.48002,1.449 1.15625,1.75 -0.30934,-0.3333 -0.5,-0.7824 -0.5,-1.2812 l 0,-42.9375 c 0,-1.0482 0.8269,-1.875 1.875,-1.875 l 42.9375,0 c 1.0481,0 1.875,0.8268 1.875,1.875 l 0,42.9375 c 0,0.4988 -0.19066,0.9479 -0.5,1.2812 0.67623,-0.301 1.15625,-0.9566 1.15625,-1.75 l 0,-43.0625 c 0,-1.0773 -0.86022,-1.9375 -1.9375,-1.9375 l -44.125,0 z"
         style="fill:#000000;fill-opacity:0.39215686;stroke:none"
         inkscape:connector-curvature="0" />
    </g>
  </g>
</svg>
