<?xml version="1.0" encoding="UTF-8" standalone="no"?>
<svg
   xmlns:dc="http://purl.org/dc/elements/1.1/"
   xmlns:cc="http://creativecommons.org/ns#"
   xmlns:rdf="http://www.w3.org/1999/02/22-rdf-syntax-ns#"
   xmlns:svg="http://www.w3.org/2000/svg"
   xmlns="http://www.w3.org/2000/svg"
   xmlns:xlink="http://www.w3.org/1999/xlink"
   xmlns:sodipodi="http://sodipodi.sourceforge.net/DTD/sodipodi-0.dtd"
   xmlns:inkscape="http://www.inkscape.org/namespaces/inkscape"
   width="48"
   viewBox="0 0 13.546667 13.546667"
   height="48"
   id="svg2"
   version="1.1"
   inkscape:version="0.48+devel r"
   sodipodi:docname="yast.svg">
  <metadata
     id="metadata28">
    <rdf:RDF>
      <cc:Work
         rdf:about="">
        <dc:format>image/svg+xml</dc:format>
        <dc:type
           rdf:resource="http://purl.org/dc/dcmitype/StillImage" />
      </cc:Work>
    </rdf:RDF>
  </metadata>
  <sodipodi:namedview
     pagecolor="#ffffff"
     bordercolor="#666666"
     borderopacity="1"
     objecttolerance="10"
     gridtolerance="10"
     guidetolerance="10"
     inkscape:pageopacity="0"
     inkscape:pageshadow="2"
     inkscape:window-width="1366"
     inkscape:window-height="665"
     id="namedview26"
     showgrid="false"
     inkscape:zoom="3.2512074"
     inkscape:cx="8.8341681"
     inkscape:cy="-3.1415471"
     inkscape:window-x="-2"
     inkscape:window-y="26"
     inkscape:window-maximized="1"
     inkscape:current-layer="svg2" />
  <defs
     id="defs4">
    <linearGradient
       inkscape:collect="always"
       id="linearGradient4269">
      <stop
         style="stop-color:#618814;stop-opacity:1"
         offset="0"
         id="stop4271" />
      <stop
         style="stop-color:#a3be17;stop-opacity:1"
         offset="1"
         id="stop4273" />
    </linearGradient>
    <linearGradient
       inkscape:collect="always"
       id="linearGradient5287">
      <stop
         style="stop-color:#d7d7d7;stop-opacity:1"
         offset="0"
         id="stop5289" />
      <stop
         style="stop-color:#f9f9f9;stop-opacity:1"
         offset="1"
         id="stop5291" />
    </linearGradient>
    <linearGradient
       gradientUnits="userSpaceOnUse"
       y2="-1004.6837"
       x2="26.25"
       y1="-1052.5408"
       x1="26.25"
       id="linearGradient867"
       xlink:href="#linearGradient1373"
       inkscape:collect="always" />
    <linearGradient
       id="linearGradient1373"
       inkscape:collect="always">
      <stop
         id="stop1375"
         offset="0"
         style="stop-color:#282827;stop-opacity:1" />
      <stop
         id="stop1377"
         offset="1"
         style="stop-color:#292929;stop-opacity:1" />
    </linearGradient>
    <linearGradient
       gradientTransform="translate(0,1.7382813e-5)"
       gradientUnits="userSpaceOnUse"
       y2="1020.873"
       x2="26.390236"
       y1="1035.8683"
       x1="26.390236"
       id="linearGradient5267"
       xlink:href="#linearGradient4269"
       inkscape:collect="always" />
    <linearGradient
       gradientTransform="matrix(0.96874983,0,0,0.93333333,0.75000235,68.557556)"
       y2="1020.873"
       x2="26.390236"
       y1="1035.8683"
       x1="26.390236"
       gradientUnits="userSpaceOnUse"
       id="linearGradient5275"
       xlink:href="#linearGradient4093"
       inkscape:collect="always" />
    <linearGradient
       y2="1020.873"
       x2="26.390236"
       y1="1035.8683"
       x1="26.390236"
       gradientTransform="matrix(0.37499996,0,0,0.8,23,205.67249)"
       gradientUnits="userSpaceOnUse"
       id="linearGradient5285"
       xlink:href="#linearGradient5287"
       inkscape:collect="always" />
    <linearGradient
       y2="1020.873"
       x2="26.390236"
       y1="1035.8683"
       x1="26.390236"
       gradientTransform="matrix(0.12499999,0,0,0.26666667,29,-1302.5921)"
       gradientUnits="userSpaceOnUse"
       id="linearGradient5301"
       xlink:href="#linearGradient5287"
       inkscape:collect="always" />
    <linearGradient
       gradientTransform="matrix(0.25,0,0,0.25,9.920504,771.27163)"
       inkscape:collect="always"
       xlink:href="#linearGradient5287"
       id="linearGradient4080"
       x1="26.516504"
       y1="1043.7886"
       x2="26.516504"
       y2="1012.941"
       gradientUnits="userSpaceOnUse" />
    <linearGradient
       id="linearGradient4093"
       inkscape:collect="always">
      <stop
         id="stop4095"
         offset="0"
         style="stop-color:#94cf1f;stop-opacity:1" />
      <stop
         id="stop4097"
         offset="1"
         style="stop-color:#c8e62f;stop-opacity:1" />
    </linearGradient>
  </defs>
  <g
     transform="matrix(0.28222223,0,0,0.28222223,-7.6444445e-8,-283.45334)"
     id="layer1"
     inkscape:label="Capa 1">
    <rect
       transform="scale(1,-1)"
       ry="1.9445436"
       y="-1052.3622"
       x="1.2041992e-06"
       height="48"
       width="48"
       id="rect2991-1"
       style="fill:url(#linearGradient867);fill-opacity:1;stroke:none" />
    <path
       id="rect846"
       d="m -2.6e-6,1049.3622 0,1.0625 c 0,1.0773 0.860223,1.9375 1.9375,1.9375 l 44.1250006,0 c 1.077277,0 1.937505,-0.8602 1.937505,-1.9375 l 0,-1.0625 c 0,1.0773 -0.860228,1.9375 -1.937505,1.9375 l -44.1250006,0 c -1.077277,0 -1.9375,-0.8602 -1.9375,-1.9375 z"
       style="fill:#000000;fill-opacity:1;stroke:none"
       inkscape:connector-curvature="0" />
    <path
       id="path7515"
       d="m 2.5312474,1005.0185 c -0.917088,0 -1.671147,0.6395 -1.84375,1.5 0.335612,-0.2799 0.774512,-0.4375 1.25,-0.4375 l 44.1250006,0 c 0.475488,0 0.914388,0.1576 1.250005,0.4375 -0.172608,-0.8605 -0.926667,-1.5 -1.843755,-1.5 l -42.9375006,0 z"
       style="fill:#ffffff;fill-opacity:0.5372549;stroke:none"
       inkscape:connector-curvature="0" />
    <path
       id="rect4280-0"
       d="m 1.9374974,1004.3622 c -1.077277,0 -1.9375,0.8602 -1.9375,1.9375 l 0,43.0625 c 0,0.7934 0.480024,1.449 1.15625,1.75 -0.309342,-0.3333 -0.5,-0.7824 -0.5,-1.2812 l 0,-42.9375 c 0,-1.0482 0.826899,-1.875 1.875,-1.875 l 42.9375006,0 c 1.048101,0 1.875005,0.8268 1.875005,1.875 l 0,42.9375 c 0,0.4988 -0.190663,0.9479 -0.500005,1.2812 0.676225,-0.301 1.156255,-0.9566 1.156255,-1.75 l 0,-43.0625 c 0,-1.0773 -0.860228,-1.9375 -1.937505,-1.9375 l -44.1250006,0 z"
       style="fill:#000000;fill-opacity:0.39215686;stroke:none"
       inkscape:connector-curvature="0" />
    <rect
       ry="7.5"
       y="1020.8622"
       x="8"
       height="15"
       width="32"
       id="rect5259"
       style="fill:url(#linearGradient5267);fill-opacity:1;stroke:none" />
    <rect
       style="fill:url(#linearGradient5275);fill-opacity:1;stroke:none"
       id="rect5273"
       width="30.999998"
       height="14"
       x="8.500001"
       y="1021.3622"
       ry="7" />
    <rect
       ry="6.5"
       y="1021.8622"
       x="25.5"
       height="13"
       width="13"
       id="rect5297"
       style="fill:#000000;fill-opacity:0.11764706;stroke:none" />
    <rect
       style="fill:#000000;fill-opacity:0.23529412;stroke:none"
       id="rect5293"
       width="12.5"
       height="12.5"
       x="25.75"
       y="1022.1122"
       ry="6.25" />
    <rect
       ry="6"
       y="1022.3622"
       x="26"
       height="12"
       width="12"
       id="rect5283"
       style="fill:url(#linearGradient5285);fill-opacity:1;stroke:none" />
    <rect
       transform="scale(1,-1)"
       style="fill:url(#linearGradient5301);fill-opacity:1;stroke:none"
       id="rect5299"
       width="4"
       height="4"
       x="30"
       y="-1030.3622"
       ry="2" />
    <path
       sodipodi:nodetypes="ccccccc"
       inkscape:connector-curvature="0"
       id="path5401"
       transform="translate(0,1004.3622)"
       d="m 19.222656,20.159836 c -0.511766,0.123598 -0.689532,0.21633 -1.150112,0.486328 -1.21832,1.868566 -2.138934,3.474263 -2.853794,4.986836 l -1.675008,-0.989149 -0.521485,0.904297 c 1.188142,0.951967 2.125245,1.699102 3.188743,2.701852 0.802322,-2.889254 1.68987,-5.209826 3.011656,-8.090164 z"
       style="fill:#000000;fill-opacity:0.23529412;stroke:none" />
    <path
       sodipodi:nodetypes="ccccccc"
       inkscape:connector-curvature="0"
       id="rect4062"
       d="m 18.998231,1024.5122 c -1.289647,2.6558 -2.184141,5.0856 -2.910145,7.7 -0.964319,-0.9092 -1.992786,-1.7613 -3.086316,-2.6267 l 0.325749,-0.5635 2.052559,0.7155 c 0.708538,-1.4992 1.404588,-2.966 2.896849,-5.0317 z"
       style="fill:url(#linearGradient4080);fill-opacity:1;stroke:none" />
  </g>
</svg>
