<?xml version="1.0" encoding="UTF-8" standalone="no"?>
<!-- Created with Inkscape (http://www.inkscape.org/) -->

<svg
   xmlns:dc="http://purl.org/dc/elements/1.1/"
   xmlns:cc="http://creativecommons.org/ns#"
   xmlns:rdf="http://www.w3.org/1999/02/22-rdf-syntax-ns#"
   xmlns:svg="http://www.w3.org/2000/svg"
   xmlns="http://www.w3.org/2000/svg"
   xmlns:xlink="http://www.w3.org/1999/xlink"
   xmlns:sodipodi="http://sodipodi.sourceforge.net/DTD/sodipodi-0.dtd"
   xmlns:inkscape="http://www.inkscape.org/namespaces/inkscape"
   width="48"
   height="48"
   id="svg5453"
   version="1.1"
   inkscape:version="0.48+devel r12877"
   sodipodi:docname="younited.svg"
   viewBox="0 0 48 48">
  <defs
     id="defs5455">
    <linearGradient
       id="linearGradient4097"
       inkscape:collect="always">
      <stop
         id="stop4099"
         offset="0"
         style="stop-color:#009eb3;stop-opacity:1" />
      <stop
         id="stop4101"
         offset="1"
         style="stop-color:#00d8ff;stop-opacity:0" />
    </linearGradient>
    <linearGradient
       inkscape:collect="always"
       id="linearGradient4084">
      <stop
         style="stop-color:#b20055;stop-opacity:1"
         offset="0"
         id="stop4086" />
      <stop
         style="stop-color:#ff0078;stop-opacity:0;"
         offset="1"
         id="stop4088" />
    </linearGradient>
    <linearGradient
       inkscape:collect="always"
       id="linearGradient4707">
      <stop
         style="stop-color:#ffffff;stop-opacity:1;"
         offset="0"
         id="stop4709" />
      <stop
         style="stop-color:#ffffff;stop-opacity:0;"
         offset="1"
         id="stop4711" />
    </linearGradient>
    <linearGradient
       inkscape:collect="always"
       id="linearGradient4654">
      <stop
         style="stop-color:#1a1a1a;stop-opacity:1"
         offset="0"
         id="stop4656" />
      <stop
         style="stop-color:#333333;stop-opacity:1"
         offset="1"
         id="stop4658" />
    </linearGradient>
    <linearGradient
       inkscape:collect="always"
       xlink:href="#linearGradient4654"
       id="linearGradient4660"
       x1="419.36749"
       y1="-547.7926"
       x2="419.36749"
       y2="-499.7894"
       gradientUnits="userSpaceOnUse" />
    <linearGradient
       inkscape:collect="always"
       xlink:href="#linearGradient4707"
       id="linearGradient4713"
       x1="23.9375"
       y1="14.75"
       x2="23.9375"
       y2="21.375"
       gradientUnits="userSpaceOnUse" />
    <linearGradient
       inkscape:collect="always"
       xlink:href="#linearGradient4084"
       id="linearGradient4090"
       x1="13.972253"
       y1="30.966099"
       x2="14.445416"
       y2="27.932283"
       gradientUnits="userSpaceOnUse" />
    <linearGradient
       inkscape:collect="always"
       xlink:href="#linearGradient4097"
       id="linearGradient4094"
       gradientUnits="userSpaceOnUse"
       x1="13.972253"
       y1="30.966099"
       x2="14.445416"
       y2="27.932283"
       gradientTransform="matrix(-1,0,0,1,432.57052,499.798)" />
  </defs>
  <sodipodi:namedview
     id="base"
     pagecolor="#ffffff"
     bordercolor="#666666"
     borderopacity="1.0"
     inkscape:pageopacity="0"
     inkscape:pageshadow="2"
     inkscape:zoom="4.491044"
     inkscape:cx="19.250152"
     inkscape:cy="27.554725"
     inkscape:document-units="px"
     inkscape:current-layer="layer1"
     showgrid="false"
     fit-margin-top="0"
     fit-margin-left="0"
     fit-margin-right="0"
     fit-margin-bottom="0"
     inkscape:window-width="1366"
     inkscape:window-height="671"
     inkscape:window-x="0"
     inkscape:window-y="24"
     inkscape:window-maximized="1" />
  <metadata
     id="metadata5458">
    <rdf:RDF>
      <cc:Work
         rdf:about="">
        <dc:format>image/svg+xml</dc:format>
        <dc:type
           rdf:resource="http://purl.org/dc/dcmitype/StillImage" />
        <dc:title></dc:title>
      </cc:Work>
    </rdf:RDF>
  </metadata>
  <g
     inkscape:label="Capa 1"
     inkscape:groupmode="layer"
     id="layer1"
     transform="translate(-384.57143,-499.798)">
    <rect
       style="fill:url(#linearGradient4660);fill-opacity:1;stroke:none"
       id="rect2991-1-7"
       width="48"
       height="48"
       x="384.57144"
       y="-547.79797"
       ry="1.9445436"
       transform="scale(1,-1)" />
    <path
       style="fill:#000000;fill-opacity:0.23529412;stroke:none"
       d="m 403.60073,516.60966 c -3.03456,0 -5.49902,2.32997 -5.72461,5.30468 -2.9747,0.22587 -5.30469,2.6903 -5.30469,5.72461 0,3.18414 2.5639,5.74805 5.74805,5.74805 l 5.28125,0 c 2.13007,0 3.97777,-1.15053 4.9707,-2.86328 0.99293,1.71275 2.84063,2.86328 4.9707,2.86328 l 5.28125,0 c 3.18415,0 5.74805,-2.56391 5.74805,-5.74805 0,-3.03423 -2.32832,-5.4986 -5.30273,-5.72461 -0.22578,-2.97473 -2.69201,-5.30468 -5.72657,-5.30468 -2.13007,0 -3.97777,1.15053 -4.9707,2.86328 -0.99293,-1.71275 -2.84063,-2.86328 -4.9707,-2.86328 z"
       id="path4695"
       inkscape:connector-curvature="0" />
    <path
       inkscape:connector-curvature="0"
       id="path4693"
       d="m 403.60073,516.20966 c -3.03456,0 -5.49902,2.32997 -5.72461,5.30468 -2.9747,0.22587 -5.30469,2.6903 -5.30469,5.72461 0,3.18414 2.5639,5.74805 5.74805,5.74805 l 5.28125,0 c 2.13007,0 3.97777,-1.15053 4.9707,-2.86328 0.99293,1.71275 2.84063,2.86328 4.9707,2.86328 l 5.28125,0 c 3.18415,0 5.74805,-2.56391 5.74805,-5.74805 0,-3.03423 -2.32832,-5.4986 -5.30273,-5.72461 -0.22578,-2.97473 -2.69201,-5.30468 -5.72657,-5.30468 -2.13007,0 -3.97777,1.15053 -4.9707,2.86328 -0.99293,-1.71275 -2.84063,-2.86328 -4.9707,-2.86328 z"
       style="fill:#000000;fill-opacity:0.23529412;stroke:none" />
    <path
       style="fill:#000000;fill-opacity:0.23529412;stroke:none"
       d="m 403.60073,515.80966 c -3.03456,0 -5.49902,2.32997 -5.72461,5.30468 -2.9747,0.22587 -5.30469,2.6903 -5.30469,5.72461 0,3.18414 2.5639,5.74805 5.74805,5.74805 l 5.28125,0 c 2.13007,0 3.97777,-1.15053 4.9707,-2.86328 0.99293,1.71275 2.84063,2.86328 4.9707,2.86328 l 5.28125,0 c 3.18415,0 5.74805,-2.56391 5.74805,-5.74805 0,-3.03423 -2.32832,-5.4986 -5.30273,-5.72461 -0.22578,-2.97473 -2.69201,-5.30468 -5.72657,-5.30468 -2.13007,0 -3.97777,1.15053 -4.9707,2.86328 -0.99293,-1.71275 -2.84063,-2.86328 -4.9707,-2.86328 z"
       id="path4688"
       inkscape:connector-curvature="0" />
    <path
       inkscape:connector-curvature="0"
       style="fill:#000000;fill-opacity:1;stroke:none"
       d="m 384.57143,544.79799 0,1.0625 c 0,1.0773 0.86022,1.9375 1.9375,1.9375 l 44.125,0 c 1.07728,0 1.9375,-0.8602 1.9375,-1.9375 l 0,-1.0625 c 0,1.0773 -0.86022,1.9375 -1.9375,1.9375 l -44.125,0 c -1.07728,0 -1.9375,-0.8602 -1.9375,-1.9375 z"
       id="rect846" />
    <path
       inkscape:connector-curvature="0"
       style="fill:#ffffff;fill-opacity:0.5372549;stroke:none"
       d="m 387.10268,500.45429 c -0.91709,0 -1.67115,0.6395 -1.84375,1.5 0.33561,-0.2799 0.77451,-0.4375 1.25,-0.4375 l 44.125,0 c 0.47549,0 0.91439,0.1576 1.25,0.4375 -0.1726,-0.8605 -0.92666,-1.5 -1.84375,-1.5 l -42.9375,0 z"
       id="path7515" />
    <path
       inkscape:connector-curvature="0"
       style="fill:#000000;fill-opacity:0.39215686;stroke:none"
       d="m 386.50893,499.79799 c -1.07728,0 -1.9375,0.8602 -1.9375,1.9375 l 0,43.0625 c 0,0.7934 0.48002,1.449 1.15625,1.75 -0.30934,-0.3333 -0.5,-0.7824 -0.5,-1.2812 l 0,-42.9375 c 0,-1.0482 0.8269,-1.875 1.875,-1.875 l 42.9375,0 c 1.0481,0 1.875,0.8268 1.875,1.875 l 0,42.9375 c 0,0.4988 -0.19066,0.9479 -0.5,1.2812 0.67623,-0.301 1.15625,-0.9566 1.15625,-1.75 l 0,-43.0625 c 0,-1.0773 -0.86022,-1.9375 -1.9375,-1.9375 l -44.125,0 z"
       id="rect4280" />
    <path
       style="fill:#ffffff;fill-opacity:1;stroke:none"
       d="m 403.60066,515.4096 c -3.03456,0 -5.49897,2.32998 -5.72456,5.30469 -2.9747,0.22587 -5.30467,2.69023 -5.30467,5.72454 0,3.18414 2.56342,5.74758 5.74757,5.74758 l 5.28166,0 c 3.18414,0 5.74756,-2.56344 5.74756,-5.74758 l 0,-5.28165 c 0,-3.18414 -2.56342,-5.74758 -5.74756,-5.74758 z"
       id="rect4662"
       inkscape:connector-curvature="0" />
    <path
       style="fill:#ff0078;fill-opacity:1;stroke:none"
       d="m 403.60066,517.27385 c -2.32383,0 -4.19425,1.87042 -4.19425,4.19395 l 0,0.77681 -0.77677,0 c -2.32358,0 -4.19401,1.87068 -4.19401,4.19421 0,2.32358 1.87043,4.19428 4.19401,4.19428 l 4.66039,0 c 1.24096,0 2.34979,-0.53692 3.11625,-1.38837 0.85173,-0.76675 1.38836,-1.87532 1.38836,-3.11654 l 0,-4.66039 c 0,-2.32353 -1.87042,-4.19395 -4.19398,-4.19395 z"
       id="rect4670"
       inkscape:connector-curvature="0" />
    <path
       style="fill:#ffffff;fill-opacity:1;stroke:none"
       d="m 413.5422,515.4096 c -3.18414,0 -5.74756,2.56344 -5.74756,5.74758 l 0,5.28165 c 0,3.18414 2.56342,5.74758 5.74756,5.74758 l 5.28166,0 c 3.18415,0 5.74757,-2.56344 5.74757,-5.74758 0,-3.03423 -2.32894,-5.49853 -5.30335,-5.72454 -0.22578,-2.97473 -2.69132,-5.3047 -5.72588,-5.3047 z"
       id="rect4676"
       inkscape:connector-curvature="0" />
    <path
       style="fill:#000000;fill-opacity:0.23529412;stroke:none"
       d="M 8.0097656,26.4375 C 8.0067656,26.50538 8,26.572125 8,26.640625 c 0,3.18414 2.563897,5.748047 5.748047,5.748047 l 5.28125,0 c 2.12937,0 3.977389,-1.149384 4.970703,-2.861328 0.993313,1.711943 2.841333,2.861328 4.970703,2.861328 l 5.28125,0 c 3.18415,0 5.748047,-2.563907 5.748047,-5.748047 0,-0.06848 -0.0074,-0.135246 -0.0098,-0.203125 -0.104091,3.091348 -2.620686,5.550781 -5.738281,5.550781 l -5.28125,0 c -2.034181,0 -3.808994,-1.050661 -4.830078,-2.636719 -0.04656,0.0045 -0.09356,0.0071 -0.140625,0.0078 -0.04707,-6.65e-4 -0.09407,-0.0033 -0.140625,-0.0078 -1.021085,1.586059 -2.795897,2.636719 -4.830078,2.636719 l -5.28125,0 c -3.11759,0 -5.6341914,-2.459431 -5.7382814,-5.550781 z"
       transform="translate(384.57143,499.798)"
       id="path4103"
       inkscape:connector-curvature="0"
       sodipodi:nodetypes="cssscssscsscccssc" />
    <path
       style="fill:#00d8ff;fill-opacity:1;stroke:none"
       d="m 413.5422,517.27385 c -2.32356,0 -4.19398,1.87042 -4.19398,4.19395 l 0,4.66039 c 0,1.24136 0.53789,2.34978 1.3895,3.11654 0.76671,0.85129 1.87425,1.38837 3.11511,1.38837 l 4.66039,0 c 2.32358,0 4.19401,-1.8707 4.19401,-4.19428 0,-2.32353 -1.87043,-4.19421 -4.19401,-4.19421 l -0.77677,0 0,-0.77681 c 0,-2.32353 -1.87042,-4.19395 -4.19425,-4.19395 z"
       id="rect4678"
       inkscape:connector-curvature="0" />
    <path
       inkscape:connector-curvature="0"
       id="path4697"
       d="m 403.60066,517.27385 c -2.32383,0 -4.19425,1.87042 -4.19425,4.19395 l 0,0.77681 -0.77677,0 c -2.32358,0 -4.19401,1.87068 -4.19401,4.19421 0,2.32358 1.87043,4.19428 4.19401,4.19428 l 4.66039,0 c 1.24096,0 2.34979,-0.53692 3.11625,-1.38837 0.85173,-0.76675 1.38836,-1.87532 1.38836,-3.11654 l 0,-4.66039 c 0,-2.32353 -1.87042,-4.19395 -4.19398,-4.19395 z"
       style="fill:#ff0078;fill-opacity:1;stroke:none" />
    <path
       style="fill:url(#linearGradient4713);stroke:none;stroke-width:1px;stroke-linecap:butt;stroke-linejoin:miter;stroke-opacity:1;fill-opacity:1"
       d="M 19.029297 15.611328 C 15.994737 15.611328 13.530277 17.941306 13.304688 20.916016 C 10.329987 21.141886 8 23.606315 8 26.640625 C 8 27.472276 8.1789648 28.260259 8.4941406 28.972656 C 16.994933 15.427639 16.171334 26.768876 19.751953 24.367188 C 23.561553 21.811918 24 17.9375 27.6875 23.125 C 30.542696 27.141632 36.678893 25.724247 39.339844 24.009766 C 38.449727 22.289508 36.735582 21.070897 34.697266 20.916016 C 34.471486 17.941286 32.005263 15.611328 28.970703 15.611328 C 26.840626 15.611328 24.992928 16.76186 24 18.474609 C 23.007072 16.76186 21.159374 15.611328 19.029297 15.611328 z "
       transform="translate(384.57143,499.798)"
       id="path4699" />
    <path
       style="fill:url(#linearGradient4090);fill-opacity:1;stroke:none"
       d="M 9.9941406 25.646484 C 9.9165518 25.966403 9.8632812 26.296185 9.8632812 26.640625 C 9.8632812 28.964205 11.735014 30.835938 14.058594 30.835938 L 18.71875 30.835938 C 19.95971 30.835938 21.067524 30.298716 21.833984 29.447266 C 21.997886 29.299717 22.138357 29.128406 22.277344 28.957031 A 18 9 0 0 1 9.9941406 25.646484 z "
       transform="translate(384.57143,499.798)"
       id="path4731" />
    <path
       id="path4092"
       d="m 422.57637,525.44448 c 0.0776,0.31992 0.13086,0.64971 0.13086,0.99414 0,2.32358 -1.87173,4.19532 -4.19531,4.19532 l -4.66015,0 c -1.24096,0 -2.34878,-0.53722 -3.11524,-1.38867 -0.1639,-0.14755 -0.30437,-0.31886 -0.44336,-0.49024 a 18,9 0 0 0 12.2832,-3.31055 z"
       style="fill:url(#linearGradient4094);fill-opacity:1;stroke:none"
       inkscape:connector-curvature="0" />
  </g>
</svg>
