<?xml version="1.0" encoding="UTF-8" standalone="no"?>
<!-- Created with Inkscape (http://www.inkscape.org/) -->

<svg
   xmlns:dc="http://purl.org/dc/elements/1.1/"
   xmlns:cc="http://creativecommons.org/ns#"
   xmlns:rdf="http://www.w3.org/1999/02/22-rdf-syntax-ns#"
   xmlns:svg="http://www.w3.org/2000/svg"
   xmlns="http://www.w3.org/2000/svg"
   xmlns:xlink="http://www.w3.org/1999/xlink"
   xmlns:sodipodi="http://sodipodi.sourceforge.net/DTD/sodipodi-0.dtd"
   xmlns:inkscape="http://www.inkscape.org/namespaces/inkscape"
   width="48"
   height="48"
   id="svg2"
   version="1.1"
   inkscape:version="0.48+devel r12487"
   sodipodi:docname="zsnes.svg">
  <defs
     id="defs4">
    <linearGradient
       id="linearGradient1051"
       inkscape:collect="always">
      <stop
         id="stop1053"
         offset="0"
         style="stop-color:#8b8b8b;stop-opacity:1" />
      <stop
         id="stop1055"
         offset="1"
         style="stop-color:#eaeaea;stop-opacity:1" />
    </linearGradient>
    <linearGradient
       inkscape:collect="always"
       id="linearGradient1027">
      <stop
         style="stop-color:#4b0000;stop-opacity:1"
         offset="0"
         id="stop1029" />
      <stop
         style="stop-color:#ff0000;stop-opacity:1"
         offset="1"
         id="stop1031" />
    </linearGradient>
    <linearGradient
       id="linearGradient893"
       inkscape:collect="always">
      <stop
         id="stop895"
         offset="0"
         style="stop-color:#000000;stop-opacity:1" />
      <stop
         id="stop897"
         offset="1"
         style="stop-color:#353535;stop-opacity:1" />
    </linearGradient>
    <linearGradient
       inkscape:collect="always"
       id="linearGradient881">
      <stop
         style="stop-color:#dbdbdb;stop-opacity:1"
         offset="0"
         id="stop883" />
      <stop
         style="stop-color:#eaeaea;stop-opacity:1"
         offset="1"
         id="stop885" />
    </linearGradient>
    <linearGradient
       inkscape:collect="always"
       xlink:href="#linearGradient881"
       id="linearGradient887"
       x1="30.71875"
       y1="-1052.3934"
       x2="30.71875"
       y2="-1004.3934"
       gradientUnits="userSpaceOnUse" />
    <linearGradient
       inkscape:collect="always"
       xlink:href="#linearGradient893"
       id="linearGradient891"
       gradientUnits="userSpaceOnUse"
       x1="30.71875"
       y1="-1052.3934"
       x2="30.71875"
       y2="-1004.3934"
       gradientTransform="matrix(0.83333336,0,0,0.83333336,3.9999998,-171.39367)" />
    <linearGradient
       inkscape:collect="always"
       xlink:href="#linearGradient1027"
       id="linearGradient1033"
       x1="360.54108"
       y1="508.53903"
       x2="360.54108"
       y2="499.48203"
       gradientUnits="userSpaceOnUse" />
    <linearGradient
       inkscape:collect="always"
       xlink:href="#linearGradient1027"
       id="linearGradient1037"
       gradientUnits="userSpaceOnUse"
       x1="360.54108"
       y1="508.53903"
       x2="360.54108"
       y2="499.48203" />
    <linearGradient
       inkscape:collect="always"
       xlink:href="#linearGradient1051"
       id="linearGradient1049"
       x1="23.71875"
       y1="1037.6434"
       x2="23.71875"
       y2="1042.9559"
       gradientUnits="userSpaceOnUse"
       gradientTransform="matrix(0.90909094,0,0,0.90909094,2.1818176,93.487435)" />
  </defs>
  <sodipodi:namedview
     id="base"
     pagecolor="#ffffff"
     bordercolor="#666666"
     borderopacity="1.0"
     inkscape:pageopacity="0.0"
     inkscape:pageshadow="2"
     inkscape:zoom="5.6568543"
     inkscape:cx="32.969953"
     inkscape:cy="27.899635"
     inkscape:document-units="px"
     inkscape:current-layer="layer1"
     showgrid="false"
     inkscape:window-width="1366"
     inkscape:window-height="716"
     inkscape:window-x="0"
     inkscape:window-y="28"
     inkscape:window-maximized="1">
    <inkscape:grid
       type="xygrid"
       id="grid3850" />
  </sodipodi:namedview>
  <metadata
     id="metadata7">
    <rdf:RDF>
      <cc:Work
         rdf:about="">
        <dc:format>image/svg+xml</dc:format>
        <dc:type
           rdf:resource="http://purl.org/dc/dcmitype/StillImage" />
        <dc:title />
      </cc:Work>
    </rdf:RDF>
  </metadata>
  <g
     inkscape:label="Capa 1"
     inkscape:groupmode="layer"
     id="layer1"
     transform="translate(0,-1004.3622)">
    <rect
       style="fill:url(#linearGradient887);fill-opacity:1;stroke:none"
       id="rect2991-1-7"
       width="48"
       height="48"
       x="5.5653077e-06"
       y="-1052.3622"
       ry="1.9445436"
       transform="scale(1,-1)" />
    <rect
       transform="scale(1,-1)"
       ry="1.7014757"
       y="-1049.3622"
       x="3.0000057"
       height="42"
       width="42"
       id="rect3302"
       style="fill:#000000;fill-opacity:0.23529412;stroke:none" />
    <path
       inkscape:connector-curvature="0"
       style="fill:#000000;fill-opacity:1;stroke:none"
       d="m -5.5653076e-6,1049.3623 0,1.0625 c 0,1.0773 0.8602199953076,1.9375 1.9374999653076,1.9375 l 44.1249996,0 c 1.07728,0 1.9375,-0.8602 1.9375,-1.9375 l 0,-1.0625 c 0,1.0773 -0.86022,1.9375 -1.9375,1.9375 l -44.1249996,0 C 0.86021443,1051.2998 -5.5653076e-6,1050.4396 -5.5653076e-6,1049.3623 Z"
       id="rect846" />
    <path
       inkscape:connector-curvature="0"
       style="fill:#ffffff;fill-opacity:0.5372549;stroke:none"
       d="m 2.5312444,1005.0185 c -0.91709,0 -1.67114997,0.6395 -1.84374997,1.5 0.33560997,-0.2799 0.77450997,-0.4375 1.24999997,-0.4375 l 44.1249996,0 c 0.47549,0 0.91439,0.1576 1.25,0.4375 -0.1726,-0.8605 -0.92666,-1.5 -1.84375,-1.5 L 2.5312444,1005.0185 Z"
       id="path7515" />
    <path
       inkscape:connector-curvature="0"
       style="fill:#000000;fill-opacity:0.39215686;stroke:none"
       d="m 1.9374944,1004.3622 c -1.07727997,0 -1.9374999653076,0.8602 -1.9374999653076,1.9375 l 0,43.0626 c 0,0.7934 0.4800199953076,1.449 1.1562499653076,1.75 -0.30933997,-0.3333 -0.49999997,-0.7824 -0.49999997,-1.2812 l 0,-42.9376 c 0,-1.0482 0.82689997,-1.875 1.87499997,-1.875 l 42.9374996,0 c 1.0481,0 1.875,0.8268 1.875,1.875 l 0,42.9376 c 0,0.4988 -0.19066,0.9479 -0.5,1.2812 0.67623,-0.301 1.15625,-0.9566 1.15625,-1.75 l 0,-43.0626 c 0,-1.0773 -0.86022,-1.9375 -1.9375,-1.9375 L 1.9374944,1004.3622 Z"
       id="rect4280" />
    <rect
       transform="scale(1,-1)"
       ry="1.6204531"
       y="-1048.3622"
       x="4.0000048"
       height="40"
       width="40"
       id="rect889"
       style="fill:url(#linearGradient891);fill-opacity:1;stroke:none" />
    <path
       style="fill:#000000;fill-opacity:0.23529412;stroke:none"
       d="m 5.6193177,1008.3622 c -0.897731,0 -1.6193183,0.7216 -1.6193183,1.6193 l 0,0.9659 c 0,-0.8977 0.7215873,-1.6193 1.6193183,-1.6193 l 36.7613643,0 c 0.897732,0 1.619319,0.7216 1.619319,1.6193 l 0,-0.9659 c 0,-0.8977 -0.721587,-1.6193 -1.619319,-1.6193 l -36.7613643,0 z"
       id="rect899"
       inkscape:connector-curvature="0" />
    <path
       style="fill:#ffffff;fill-opacity:0.23529412;stroke:none"
       d="m 3.9999994,1046.7508 0,0.4546 c 0,0.8977 0.7215873,1.6193 1.6193183,1.6193 l 36.7613643,0 c 0.897732,0 1.619319,-0.7216 1.619319,-1.6193 l 0,-0.4546 c 0,0.8978 -0.721587,1.6193 -1.619319,1.6193 l -36.7613643,0 c -0.897731,0 -1.6193183,-0.7215 -1.6193183,-1.6193 z"
       id="rect904"
       inkscape:connector-curvature="0" />
    <rect
       style="fill:#cacaca;fill-opacity:1;stroke:none"
       id="rect913"
       width="15"
       height="3.0140162"
       x="16.500006"
       y="1016.559"
       ry="0" />
    <rect
       ry="0"
       y="1009.2863"
       x="16.500006"
       height="3.0140162"
       width="15"
       id="rect927"
       style="fill:#cacaca;fill-opacity:1;stroke:none" />
    <rect
       style="fill:#cacaca;fill-opacity:1;stroke:none"
       id="rect929"
       width="15"
       height="3.0140162"
       x="16.500006"
       y="1012.9227"
       ry="0" />
    <rect
       ry="0"
       y="1044.8937"
       x="16.500006"
       height="3.0140162"
       width="15"
       id="rect931"
       style="fill:#cacaca;fill-opacity:1;stroke:none" />
    <rect
       style="fill:#dddddd;fill-opacity:1;fill-rule:nonzero;stroke:none;display:inline"
       id="rect12199"
       width="16.10078"
       height="5.3116789"
       x="15.94961"
       y="1036.5751"
       ry="1.0086595" />
    <rect
       ry="0.82625824"
       y="1037.0817"
       x="16.60931"
       height="4.3511395"
       width="14.784124"
       id="rect12207"
       style="fill:url(#linearGradient1049);fill-opacity:1;stroke:none;display:inline" />
    <rect
       ry="0.89112163"
       y="1038.4366"
       x="17.802971"
       height="1.7822433"
       width="4.5222034"
       id="rect4247"
       style="fill:#000000;fill-opacity:1;fill-rule:nonzero;stroke:none;display:inline" />
    <rect
       style="fill:#000000;fill-opacity:1;fill-rule:nonzero;stroke:none;display:inline"
       id="rect5332"
       width="4.5222034"
       height="1.7822433"
       x="25.631062"
       y="1038.4366"
       ry="0.89112163" />
    <path
       style="fill:#ffffff;fill-opacity:0.65294118;fill-rule:nonzero;stroke:none;display:inline"
       d="m 17.806818,1039.2429 c -0.0028,0.03 0,0.055 0,0.086 0,0.4937 0.387,0.8806 0.880682,0.8806 l 2.755682,0 c 0.493682,0 0.880682,-0.3869 0.880682,-0.8806 0,-0.031 -0.02529,-0.054 -0.02841,-0.086 -0.04541,0.4482 -0.39028,0.7954 -0.852272,0.7954 l -2.755682,0 c -0.463661,0 -0.83745,-0.3449 -0.880682,-0.7954 z m 7.84091,0 c -0.0033,0.03 -0.02841,0.053 -0.02841,0.086 0,0.4937 0.41541,0.8806 0.909092,0.8806 l 2.727272,0 c 0.493682,0 0.909092,-0.3869 0.909092,-0.8806 0,-0.031 -0.02512,-0.054 -0.02841,-0.086 -0.04829,0.4484 -0.41846,0.7954 -0.880682,0.7954 l -2.727272,0 c -0.462222,0 -0.832395,-0.347 -0.880682,-0.7954 z"
       id="rect1057"
       inkscape:connector-curvature="0" />
    <g
       id="g1417"
       transform="matrix(0.90909094,0,0,0.90909094,2.1818176,93.487435)">
      <g
         transform="translate(-1.1919627,0)"
         id="g1078">
        <rect
           style="fill:#dddddd;fill-opacity:1;fill-rule:nonzero;stroke:none;display:inline"
           id="rect11997"
           width="5.7534456"
           height="5.7534456"
           x="32.094521"
           y="1027.8326"
           ry="0.91186041" />
        <path
           sodipodi:type="arc"
           style="fill:#ff0000;fill-opacity:1;fill-rule:nonzero;stroke:none;display:inline"
           id="path12001"
           sodipodi:cx="360.53571"
           sodipodi:cy="503.96933"
           sodipodi:rx="4.4642859"
           sodipodi:ry="4.4642859"
           d="m 364.99999,503.96933 c 0,2.46556 -1.99873,4.46429 -4.46428,4.46429 -2.46556,0 -4.46429,-1.99873 -4.46429,-4.46429 0,-2.46556 1.99873,-4.46429 4.46429,-4.46429 2.46555,0 4.46428,1.99873 4.46428,4.46429 z"
           transform="matrix(0.52818522,0,0,0.52818522,-155.45838,764.54381)" />
        <rect
           ry="0.91186041"
           y="1027.8326"
           x="38.630474"
           height="5.7534456"
           width="5.7534456"
           id="rect12003"
           style="fill:#dddddd;fill-opacity:1;fill-rule:nonzero;stroke:none;display:inline" />
        <path
           transform="matrix(0.52818522,0,0,0.52818522,-148.92242,764.54381)"
           d="m 364.99999,503.96933 c 0,2.46556 -1.99873,4.46429 -4.46428,4.46429 -2.46556,0 -4.46429,-1.99873 -4.46429,-4.46429 0,-2.46556 1.99873,-4.46429 4.46429,-4.46429 2.46555,0 4.46428,1.99873 4.46428,4.46429 z"
           sodipodi:ry="4.4642859"
           sodipodi:rx="4.4642859"
           sodipodi:cy="503.96933"
           sodipodi:cx="360.53571"
           id="path12005"
           style="fill:#ff0000;fill-opacity:1;fill-rule:nonzero;stroke:none;display:inline"
           sodipodi:type="arc" />
        <path
           inkscape:connector-curvature="0"
           style="font-size:20.06056023px;font-style:normal;font-weight:normal;fill:#ff0000;fill-opacity:1;stroke:none;display:inline;font-family:Pretendo"
           d="m 36.592072,1034.0242 0.36287,0 c 0.463708,-0.014 0.692468,0.064 0.68628,0.2218 0.03404,0.1562 -0.0681,0.238 -0.306389,0.2451 0.209415,0.014 0.320056,0.097 0.33192,0.2497 5.45e-4,0.224 -0.222571,0.3271 -0.669259,0.3096 l -0.210447,0 -0.08512,0 -0.08432,0 -0.02553,0 0,-1.0262 m 0.50523,0.084 c -0.08666,0 -0.131017,0.014 -0.133068,0.039 l 0,0.2412 c 0.0043,0.032 0.05003,0.049 0.137724,0.046 0.08563,0 0.125606,-0.056 0.119932,-0.1598 l 0,-0.065 c 0.0018,-0.062 -0.03998,-0.095 -0.124573,-0.1008 m 0.0085,0.4605 c -0.09697,0 -0.14649,0.018 -0.148551,0.049 l 0,0.295 c 0.0046,0.038 0.05571,0.057 0.153194,0.057 0.09646,-0.014 0.14107,-0.069 0.133854,-0.1964 l 0,-0.082 c 0.0018,-0.076 -0.0446,-0.1161 -0.138496,-0.1222"
           id="text2276" />
        <path
           inkscape:connector-curvature="0"
           style="font-size:20.16228485px;font-style:normal;font-weight:normal;fill:#ff0000;fill-opacity:1;stroke:none;display:inline;font-family:Pretendo"
           d="m 43.117172,1035.0756 c -0.01702,-0.7076 0.182078,-1.0478 0.597302,-1.0204 0.432245,-0.031 0.633925,0.3103 0.605042,1.0216 l -0.414709,0 -0.0018,-0.3542 -0.375249,0 -7.28e-4,0.3536 -0.410064,0 0,0 m 0.597304,-0.9312 c -0.129986,-0.014 -0.191366,0.1426 -0.184144,0.4539 l 0.191879,0 0.07661,0 0.11219,0 c 0.0066,-0.3051 -0.05879,-0.4565 -0.19652,-0.4539"
           id="text2280" />
        <g
           id="g1065"
           transform="translate(2,1.1078957)">
          <path
             inkscape:connector-curvature="0"
             id="path6991"
             class="ps02"
             d="m 32.927365,1020.5631 0,1.3054 -0.415673,0 -0.531411,-0.8842 c -0.02934,-0.058 -0.02934,0 -0.02934,0 l 0,0.8853 -0.425454,0 0,-1.3054 0.425454,0 c 0,0 0.506959,0.8361 0.53467,0.8755 0.02609,0.039 0.02609,0 0.02609,0 l 0,-0.8755 0.415673,0"
             style="fill:#fe0016;fill-opacity:1;fill-rule:nonzero;stroke:none;display:inline" />
          <path
             inkscape:connector-curvature="0"
             id="path6995"
             class="ps02 ps10"
             d="m 33.139276,1021.8696 0.389591,0 0,-0.2378 -0.389591,0 0,0.2378 z"
             style="fill:#fe0016;fill-opacity:1;fill-rule:nonzero;stroke:none;display:inline" />
          <path
             inkscape:connector-curvature="0"
             id="path6999"
             class="ps02 ps10"
             d="m 35.599083,1020.758 0,0.1412 0.174421,0 0.0065,0.085 -0.18094,0 0,0.8854 -0.40589,0 0,-0.8854 -0.18257,0 0.0049,-0.085 0.17768,0 0,-0.1412 0.405892,0"
             style="fill:#fe0016;fill-opacity:1;fill-rule:nonzero;stroke:none;display:inline" />
          <path
             inkscape:connector-curvature="0"
             id="path7003"
             class="ps02 ps10"
             d="m 34.828051,1021.0277 c 0.0978,0.077 0.132036,0.2284 0.132036,0.2284 l 0,0.6135 -0.409154,0 0,-0.6033 c 0,0 -0.03096,-0.1426 -0.19072,-0.1412 -0.158119,0 -0.189091,0.131 -0.189091,0.131 l 0,0.6135 -0.399373,0 0,-0.8854 0.399373,0 c 0.04075,0.076 0.136924,-0.017 0.220065,-0.03 0.151597,-0.05 0.316237,0 0.436862,0.072"
             style="fill:#fe0016;fill-opacity:1;fill-rule:nonzero;stroke:none;display:inline" />
          <path
             inkscape:connector-curvature="0"
             id="path7007"
             class="ps02 ps10"
             d="m 33.139276,1021.8696 0.389591,0 0,-0.8854 -0.389591,0 0,0.8854 z"
             style="fill:#fe0016;fill-opacity:1;fill-rule:nonzero;stroke:none;display:inline" />
          <path
             inkscape:connector-curvature="0"
             id="path7011"
             class="ps02 ps10"
             d="m 36.539646,1021.6921 c 0,0 -0.03584,0.1222 -0.16464,0.1222 -0.128777,0 -0.158118,-0.1368 -0.158118,-0.1368 l 0.0049,-0.2684 0.741692,0 c -0.0017,-0.2477 -0.105943,-0.3438 -0.190721,-0.4046 -0.249404,-0.1368 -0.603133,-0.134 -0.846018,0.059 -0.08476,0.072 -0.145086,0.2066 -0.138554,0.3341 0,0.1149 0.04727,0.2306 0.127148,0.3096 0.158119,0.1338 0.394482,0.1942 0.625954,0.1458 0.151598,-0.049 0.34558,-0.1208 0.387961,-0.2915 l -0.387961,0 -0.0016,0.1306 z m -0.309716,-0.5609 c 0,0 0.02608,-0.1186 0.158118,-0.1186 0.130406,0 0.146709,0.1282 0.146709,0.1282 l 0.0032,0.1192 -0.308088,0 0,-0.131"
             style="fill:#fe0016;fill-opacity:1;fill-rule:nonzero;stroke:none;display:inline" />
          <path
             inkscape:connector-curvature="0"
             id="path7015"
             class="ps02 ps10"
             d="m 39.180396,1020.5397 0,0.4541 c -0.133666,-0.072 -0.35699,-0.1174 -0.49718,-0.027 -0.176049,0.084 -0.236363,0.2855 -0.242882,0.4615 0.0064,0.1339 0.08476,0.2852 0.2005,0.3643 0.145072,0.089 0.33906,0.102 0.502068,0.033 0.01469,0 0.03097,-0.014 0.04401,-0.02 0.0131,0.014 0.02934,0.019 0.04727,0.025 0.115734,0.039 0.321127,0.017 0.321127,0.017 l 0,-1.3055 -0.374913,0 z m 0,1.1474 c 0,0 -0.04075,0.085 -0.15649,0.088 -0.09128,0 -0.153228,-0.065 -0.153228,-0.065 l 0,-0.582 c 0,0 0.02608,-0.082 0.143443,-0.082 0.11737,0 0.16627,0.082 0.16627,0.082 l 0,0.5604"
             style="fill:#fe0016;fill-opacity:1;fill-rule:nonzero;stroke:none;display:inline" />
          <path
             inkscape:connector-curvature="0"
             id="path7019"
             class="ps02 ps10"
             d="m 38.186039,1021.0274 c 0.09618,0.078 0.132037,0.2284 0.132037,0.2284 l 0,0.6135 -0.410783,0 0,-0.6032 c 0,0 -0.03096,-0.1426 -0.18909,-0.141 -0.159749,0 -0.189089,0.1308 -0.189089,0.1308 l 0,0.6137 -0.401005,0 0,-0.8856 0.401005,0 c 0.03913,0.076 0.135295,-0.014 0.218432,-0.028 0.151598,-0.05 0.316237,0 0.438493,0.072"
             style="fill:#fe0016;fill-opacity:1;fill-rule:nonzero;stroke:none;display:inline" />
          <path
             inkscape:connector-curvature="0"
             id="path7023"
             class="ps02 ps10"
             d="m 40.31983,1020.9036 c -0.329278,0 -0.594983,0.2162 -0.594983,0.483 0,0.2667 0.265705,0.483 0.594983,0.483 0.327647,-10e-5 0.593353,-0.2163 0.593353,-0.483 0,-0.2667 -0.265706,-0.483 -0.593353,-0.483 z m 0.159746,0.7707 c 0,0 -0.04075,0.085 -0.158115,0.088 -0.08966,0 -0.151601,-0.065 -0.151601,-0.065 l 0,-0.582 c 0,0 0.02444,-0.082 0.141813,-0.079 0.11737,0 0.167897,0.079 0.167897,0.079 l 0,0.5604"
             style="fill:#fe0016;fill-opacity:1;fill-rule:nonzero;stroke:none;display:inline" />
          <path
             inkscape:connector-curvature="0"
             id="path7027"
             class="ps02 ps10"
             d="m 40.931113,1021.8696 c 0.05705,0 0.110851,-0.021 0.151599,-0.063 0.04075,-0.04 0.06357,-0.095 0.06357,-0.1516 0,-0.057 -0.02282,-0.1103 -0.06357,-0.1516 -0.04075,-0.04 -0.09454,-0.063 -0.151599,-0.063 -0.118999,0 -0.21517,0.096 -0.21517,0.2147 0,0.058 0.02282,0.1102 0.06357,0.1515 0.04075,0.04 0.09455,0.063 0.1516,0.063 z m -0.172788,-0.2144 c 0,-0.046 0.01792,-0.089 0.05053,-0.1222 0.0326,-0.032 0.07662,-0.05 0.122258,-0.05 0.04565,0 0.08966,0.019 0.12226,0.05 0.03096,0.033 0.04889,0.076 0.04889,0.1222 0,0.095 -0.07662,0.1718 -0.171159,0.1718 -0.04565,0 -0.08966,-0.018 -0.122259,-0.05 -0.03261,-0.032 -0.05053,-0.076 -0.05053,-0.1223"
             style="fill:#fe0016;fill-opacity:1;fill-rule:nonzero;stroke:none;display:inline" />
          <path
             inkscape:connector-curvature="0"
             id="path7029"
             class="ps02 ps10"
             d="m 40.885469,1021.6594 0.07336,0 c 0.0097,0 0.01794,0 0.02444,0.014 0.0097,0 0.0163,0.017 0.0163,0.032 0,0.014 -0.0047,0.025 -0.0131,0.03 -0.0082,0.014 -0.01792,0.014 -0.0326,0.014 l -0.06846,0 6e-5,-0.09 z m 0,0.1922 0,-0.092 0.06848,0 c 0.01138,0 0.02118,0 0.02608,0.014 0.0097,0 0.01469,0.014 0.0163,0.027 l 0.0017,0.037 c 0,0.014 0,0.014 0.0017,0.018 0,0 0,0.014 0.0017,0.014 l 0.03587,0 0,-0.014 c -0.0049,0 -0.0065,0 -0.0082,-0.014 -0.0015,-0.014 -0.0032,-0.014 -0.0032,-0.019 l -0.0017,-0.03 c 0,-0.014 -0.0018,-0.021 -0.0064,-0.027 -0.0032,-0.014 -0.0097,-0.014 -0.01957,-0.014 0.0097,0 0.01795,-0.014 0.02283,-0.02 0.0065,-0.014 0.0082,-0.019 0.0082,-0.032 0,-0.025 -0.0097,-0.043 -0.03096,-0.052 -0.0097,0 -0.02444,0 -0.04075,0 l -0.101061,0 0,0.2178 0.02935,0"
             style="fill:#fe0016;fill-opacity:1;fill-rule:nonzero;stroke:none;display:inline" />
        </g>
        <path
           style="fill:#550000;fill-opacity:1;fill-rule:nonzero;stroke:none;display:inline"
           d="m 32.65625,1030.5497 c -0.0052,0.064 -0.03125,0.1221 -0.03125,0.1875 0,1.3023 1.041479,2.3438 2.34375,2.3438 1.302271,0 2.375,-1.0415 2.375,-2.3438 0,-0.065 -0.02595,-0.1234 -0.03125,-0.1875 -0.115281,1.195 -1.11754,2.125 -2.34375,2.125 -1.22621,0 -2.200456,-0.93 -2.3125,-2.125 z m 6.53125,0 c -0.0052,0.064 -0.03125,0.1221 -0.03125,0.1875 0,1.3023 1.041479,2.3438 2.34375,2.3438 1.302271,0 2.375,-1.0415 2.375,-2.3438 0,-0.065 -0.02595,-0.1234 -0.03125,-0.1875 -0.115281,1.195 -1.11754,2.125 -2.34375,2.125 -1.22621,0 -2.200456,-0.93 -2.3125,-2.125 z"
           id="path1017"
           inkscape:connector-curvature="0" />
        <path
           sodipodi:type="arc"
           style="fill:url(#linearGradient1033);fill-opacity:1;fill-rule:nonzero;stroke:none;display:inline"
           id="path1025"
           sodipodi:cx="360.53571"
           sodipodi:cy="503.96933"
           sodipodi:rx="4.4642859"
           sodipodi:ry="4.4642859"
           d="m 364.99999,503.96933 c 0,2.46556 -1.99873,4.46429 -4.46428,4.46429 -2.46556,0 -4.46429,-1.99873 -4.46429,-4.46429 0,-2.46556 1.99873,-4.46429 4.46429,-4.46429 2.46555,0 4.46428,1.99873 4.46428,4.46429 z"
           transform="matrix(0.44403952,0,0,-0.40691642,-118.58489,1235.6406)" />
        <path
           transform="matrix(0.44403952,0,0,-0.40691642,-125.12085,1235.6406)"
           d="m 364.99999,503.96933 c 0,2.46556 -1.99873,4.46429 -4.46428,4.46429 -2.46556,0 -4.46429,-1.99873 -4.46429,-4.46429 0,-2.46556 1.99873,-4.46429 4.46429,-4.46429 2.46555,0 4.46428,1.99873 4.46428,4.46429 z"
           sodipodi:ry="4.4642859"
           sodipodi:rx="4.4642859"
           sodipodi:cy="503.96933"
           sodipodi:cx="360.53571"
           id="path1035"
           style="fill:url(#linearGradient1037);fill-opacity:1;fill-rule:nonzero;stroke:none;display:inline"
           sodipodi:type="arc" />
      </g>
      <g
         id="g1400">
        <g
           id="g924"
           transform="translate(-0.3213947,-2.9635674)">
          <path
             id="rect2235"
             d="m 10.284255,1024.8177 c -0.3064802,0 -0.5378527,0.2529 -0.5378527,0.5594 l 0,3.851 -3.8510527,0 c -0.3064825,0 -0.559375,0.2529 -0.559375,0.5594 l 0,3.0981 c 0,0.3064 0.252885,0.5593 0.559375,0.5593 l 3.8510527,0 0,3.8511 c 5e-6,0.3065 0.2313725,0.5378 0.5378527,0.5378 l 3.119572,0 c 0.306475,0 0.537855,-0.2313 0.537855,-0.5378 l 0,-3.8511 3.851053,0 c 0.306482,0 0.559367,-0.2529 0.559367,-0.5593 l 0,-3.0981 c 8e-6,-0.3065 -0.252877,-0.5594 -0.559367,-0.5594 l -3.851053,0 0,-3.851 c 0,-0.3065 -0.23137,-0.5594 -0.537855,-0.5594 l -3.119572,0 z"
             style="fill:#000000;fill-opacity:1;fill-rule:nonzero;stroke:#ffffff;stroke-width:0.41307381;stroke-linecap:round;stroke-linejoin:miter;stroke-miterlimit:4;stroke-opacity:1;stroke-dasharray:none;display:inline"
             inkscape:connector-curvature="0" />
        </g>
        <g
           id="g1386">
          <path
             id="path1269"
             d="m 15.212985,1027.2039 -0.605429,0.4739 0,1.3688 0.579106,0.4738 1.868933,0 0,-2.3165 -1.84261,0 z"
             style="fill:#242424;fill-opacity:0.77647059;stroke:none"
             inkscape:connector-curvature="0" />
          <path
             id="path1261"
             d="m 14.607556,1028.7834 0,0.2632 0.579106,0.4738 1.868933,0 0,-0.2632 -1.868933,0 -0.579106,-0.4738 z"
             style="fill:#000000;fill-opacity:1;stroke:none"
             inkscape:connector-curvature="0" />
          <path
             id="path1253"
             d="m 15.212985,1027.2039 -0.605429,0.4739 0,0.1579 0.605429,-0.4737 1.84261,0 0,-0.1581 -1.84261,0 z"
             style="fill:#ffffff;fill-opacity:0.19607843;stroke:none"
             inkscape:connector-curvature="0" />
          <path
             inkscape:connector-curvature="0"
             style="fill:#242424;fill-opacity:0.77647059;stroke:none"
             d="m 7.8323023,1027.2039 0.6054289,0.4739 0,1.3688 -0.5791053,0.4738 -1.8689328,0 0,-2.3165 1.8426092,0 z"
             id="path1297" />
          <path
             inkscape:connector-curvature="0"
             style="fill:#000000;fill-opacity:1;stroke:none"
             d="m 8.4377312,1028.7834 0,0.2632 -0.5791053,0.4738 -1.8689328,0 0,-0.2632 1.8689328,0 0.5791053,-0.4738 z"
             id="path1299" />
          <path
             inkscape:connector-curvature="0"
             style="fill:#ffffff;fill-opacity:0.19607843;stroke:none"
             d="m 7.8323023,1027.2039 0.6054289,0.4739 0,0.1579 -0.6054289,-0.4737 -1.8426092,0 0,-0.1581 1.8426092,0 z"
             id="path1301" />
          <path
             inkscape:connector-curvature="0"
             style="fill:#242424;fill-opacity:0.77647059;stroke:none"
             d="m 10.36444,1024.6719 0.473894,0.6054 1.368784,0 0.47381,-0.5791 0,-1.8689 -2.316488,0 0,1.8426 z"
             id="path1317" />
          <path
             id="path1325"
             d="m 10.36444,1032.0525 0.473894,-0.6054 1.368784,0 0.47381,0.5791 0,1.8689 -2.316488,0 0,-1.8426 z"
             style="fill:#242424;fill-opacity:0.77647059;stroke:none"
             inkscape:connector-curvature="0" />
          <path
             inkscape:connector-curvature="0"
             id="path1352"
             d="m 10.84375,1031.456 -0.46875,0.5937 0,0.1563 0.46875,-0.625 1.375,0 0.46875,0.5937 0,-0.1562 -0.46875,-0.5625 -1.375,0 z"
             style="fill:#ffffff;fill-opacity:0.19607843;stroke:none" />
          <path
             id="path1357"
             transform="translate(0,1004.3622)"
             d="m 10.375,29.375 0,0.15625 2.3125,0 0,-0.15625 -2.3125,0 z"
             style="fill:#000000;fill-opacity:0.77647059;stroke:none"
             inkscape:connector-curvature="0" />
          <path
             style="fill:#000000;fill-opacity:1;stroke:none"
             d="m 10.84375,1025.272 -0.46875,-0.5936 0,-0.1564 0.46875,0.625 1.375,0 0.46875,-0.5936 0,0.1561 -0.46875,0.5625 -1.375,0 z"
             id="path1376"
             inkscape:connector-curvature="0" />
          <path
             inkscape:connector-curvature="0"
             style="fill:#ffffff;fill-opacity:0.19607843;stroke:none"
             d="m 10.375,1022.9909 0,-0.1563 2.3125,0 0,0.1563 -2.3125,0 z"
             id="path1378" />
        </g>
      </g>
    </g>
  </g>
</svg>
