<?xml version="1.0" encoding="UTF-8" standalone="no"?>
<!-- Created with Inkscape (http://www.inkscape.org/) -->

<svg
   xmlns:dc="http://purl.org/dc/elements/1.1/"
   xmlns:cc="http://creativecommons.org/ns#"
   xmlns:rdf="http://www.w3.org/1999/02/22-rdf-syntax-ns#"
   xmlns:svg="http://www.w3.org/2000/svg"
   xmlns="http://www.w3.org/2000/svg"
   xmlns:sodipodi="http://sodipodi.sourceforge.net/DTD/sodipodi-0.dtd"
   xmlns:inkscape="http://www.inkscape.org/namespaces/inkscape"
   width="24"
   height="24"
   id="svg4359"
   version="1.1"
   inkscape:version="0.91pre2 r"
   sodipodi:docname="document-print.svg">
  <defs
     id="defs4361" />
  <sodipodi:namedview
     id="base"
     pagecolor="#ffffff"
     bordercolor="#666666"
     borderopacity="1.0"
     inkscape:pageopacity="0.0"
     inkscape:pageshadow="2"
     inkscape:zoom="22.681818"
     inkscape:cx="9.9256879"
     inkscape:cy="16.049625"
     inkscape:current-layer="layer1"
     showgrid="true"
     inkscape:grid-bbox="true"
     inkscape:document-units="px"
     inkscape:window-width="1366"
     inkscape:window-height="672"
     inkscape:window-x="-4"
     inkscape:window-y="25"
     inkscape:window-maximized="1"
     inkscape:showpageshadow="false"
     borderlayer="true"
     showguides="true">
    <inkscape:grid
       type="xygrid"
       id="grid4105" />
    <sodipodi:guide
       position="8.8817842e-16,24"
       orientation="24,0"
       id="guide4160" />
    <sodipodi:guide
       position="8.8817842e-16,0"
       orientation="0,24"
       id="guide4162" />
    <sodipodi:guide
       position="24,0"
       orientation="-24,0"
       id="guide4164" />
    <sodipodi:guide
       position="24,24"
       orientation="0,-24"
       id="guide4166" />
    <sodipodi:guide
       position="3,21"
       orientation="18,0"
       id="guide4168" />
    <sodipodi:guide
       position="3,3"
       orientation="0,18"
       id="guide4170" />
    <sodipodi:guide
       position="21,3"
       orientation="-18,0"
       id="guide4172" />
    <sodipodi:guide
       position="21,21"
       orientation="0,-18"
       id="guide4174" />
  </sodipodi:namedview>
  <metadata
     id="metadata4364">
    <rdf:RDF>
      <cc:Work
         rdf:about="">
        <dc:format>image/svg+xml</dc:format>
        <dc:type
           rdf:resource="http://purl.org/dc/dcmitype/StillImage" />
        <dc:title></dc:title>
      </cc:Work>
    </rdf:RDF>
  </metadata>
  <g
     id="layer1"
     inkscape:label="Layer 1"
     inkscape:groupmode="layer"
     transform="translate(0,-24)">
    <path
       style="opacity:1;fill:#424854;fill-opacity:1;stroke:none"
       d="m 6,27 0,1 0,4 -2,0 -1,0 0,1 0,8 0,1 1,0 3,0 0,3 1,0 8,0 1,0 0,-3 4,0 0,-1 0,-9 -3,0 0,-5 -11,0 z m 1,1 10,0 0,4 -10,0 z m 1,1 0,1 8,0 0,-1 z m -4,4 16,0 0,8 -4,0 0,-1 0,-1 -8,0 0,1 0,1 -4,0 z m 1,1 0,1 4,0 0,-1 z m 4,6 6,0 0,1 -6,0 z m -1,2 8,0 0,2 -8,0 z"
       id="rect4193"
       inkscape:connector-curvature="0"
       sodipodi:nodetypes="cccccccccccccccccccccccccccccccccccccccccccccccccccccccccc" />
  </g>
</svg>
