<?xml version="1.0" encoding="UTF-8" standalone="no"?>
<!-- Created with Inkscape (http://www.inkscape.org/) -->

<svg
   xmlns:dc="http://purl.org/dc/elements/1.1/"
   xmlns:cc="http://creativecommons.org/ns#"
   xmlns:rdf="http://www.w3.org/1999/02/22-rdf-syntax-ns#"
   xmlns:svg="http://www.w3.org/2000/svg"
   xmlns="http://www.w3.org/2000/svg"
   xmlns:sodipodi="http://sodipodi.sourceforge.net/DTD/sodipodi-0.dtd"
   xmlns:inkscape="http://www.inkscape.org/namespaces/inkscape"
   width="24"
   height="24"
   id="svg3813"
   version="1.1"
   inkscape:version="0.91+devel r"
   sodipodi:docname="distribute-horizontal-page.svg"
   viewBox="0 0 24 24">
  <defs
     id="defs3815" />
  <sodipodi:namedview
     id="base"
     pagecolor="#ffffff"
     bordercolor="#666666"
     borderopacity="1.0"
     inkscape:pageopacity="0.0"
     inkscape:pageshadow="2"
     inkscape:zoom="18.677739"
     inkscape:cx="-8.9343435"
     inkscape:cy="10.287463"
     inkscape:document-units="px"
     inkscape:current-layer="layer1"
     showgrid="true"
     fit-margin-top="0"
     fit-margin-left="0"
     fit-margin-right="0"
     fit-margin-bottom="0"
     inkscape:window-width="2560"
     inkscape:window-height="957"
     inkscape:window-x="-4"
     inkscape:window-y="29"
     inkscape:window-maximized="1"
     inkscape:showpageshadow="false">
    <inkscape:grid
       type="xygrid"
       id="grid4109"
       originx="0.99999278"
       originy="1.0000071" />
    <sodipodi:guide
       position="3,21"
       orientation="18,0"
       id="guide4115" />
    <sodipodi:guide
       position="3,3"
       orientation="0,18"
       id="guide4117" />
    <sodipodi:guide
       position="21,3"
       orientation="-18,0"
       id="guide4119" />
    <sodipodi:guide
       position="21,21"
       orientation="0,-18"
       id="guide4121" />
    <sodipodi:guide
       position="4,20"
       orientation="16,0"
       id="guide4123" />
    <sodipodi:guide
       position="4,4"
       orientation="0,16"
       id="guide4125" />
    <sodipodi:guide
       position="20,4"
       orientation="-16,0"
       id="guide4127" />
    <sodipodi:guide
       position="20,20"
       orientation="0,-16"
       id="guide4129" />
  </sodipodi:namedview>
  <metadata
     id="metadata3818">
    <rdf:RDF>
      <cc:Work
         rdf:about="">
        <dc:format>image/svg+xml</dc:format>
        <dc:type
           rdf:resource="http://purl.org/dc/dcmitype/StillImage" />
        <dc:title></dc:title>
      </cc:Work>
    </rdf:RDF>
  </metadata>
  <g
     inkscape:label="Capa 1"
     inkscape:groupmode="layer"
     id="layer1"
     transform="translate(-377.85715,-539.07648)">
    <path
       style="opacity:1;fill:#424854;fill-opacity:1;stroke:none"
       d="m 4,3 0,11 0.8046875,0.804688 -0.00391,0.002 3.2929688,3.292968 0.00391,-0.002 L 9,19 17,19 18,19 18,3 17,3 5,3 4,3 Z m 1,1 12,0 0,14 -7,0 0,-4 0,-1 -5,0 0,-9 z m 2,1 0,5 8,0 0,-5 -8,0 z m 1,1 6,0 0,3 -6,0 0,-3 z m -1,5 0,1 1,0 2,0 4,0 0,3 -3,0 0,1 4,0 0,-5 -8,0 z M 5.5,14 6,14 6.5,14 9,14 9,15 9,16 9,17 8.5,17 8,16.5 7.5,16 7,15.5 6.5,15 6,14.5 5.5,14 Z"
       transform="translate(378.85714,540.07647)"
       id="path4185"
       inkscape:connector-curvature="0" />
  </g>
</svg>
