<?xml version="1.0" encoding="UTF-8" standalone="no"?>
<!-- Created with Inkscape (http://www.inkscape.org/) -->

<svg
   xmlns:dc="http://purl.org/dc/elements/1.1/"
   xmlns:cc="http://creativecommons.org/ns#"
   xmlns:rdf="http://www.w3.org/1999/02/22-rdf-syntax-ns#"
   xmlns:svg="http://www.w3.org/2000/svg"
   xmlns="http://www.w3.org/2000/svg"
   xmlns:sodipodi="http://sodipodi.sourceforge.net/DTD/sodipodi-0.dtd"
   xmlns:inkscape="http://www.inkscape.org/namespaces/inkscape"
   width="24"
   height="24"
   id="svg4359"
   version="1.1"
   inkscape:version="0.91pre2 r"
   sodipodi:docname="document-page-setup.svg">
  <defs
     id="defs4361" />
  <sodipodi:namedview
     id="base"
     pagecolor="#ffffff"
     bordercolor="#666666"
     borderopacity="1.0"
     inkscape:pageopacity="0.0"
     inkscape:pageshadow="2"
     inkscape:zoom="16.503906"
     inkscape:cx="6.9631572"
     inkscape:cy="13.868363"
     inkscape:current-layer="layer1"
     showgrid="true"
     inkscape:grid-bbox="true"
     inkscape:document-units="px"
     inkscape:window-width="1366"
     inkscape:window-height="672"
     inkscape:window-x="-4"
     inkscape:window-y="25"
     inkscape:window-maximized="1"
     inkscape:showpageshadow="false"
     borderlayer="true"
     showguides="true"
     fit-margin-top="0"
     fit-margin-left="0"
     fit-margin-right="0"
     fit-margin-bottom="0">
    <inkscape:grid
       type="xygrid"
       id="grid4105"
       originx="1px"
       originy="1px" />
    <sodipodi:guide
       position="1,23"
       orientation="22,0"
       id="guide4111" />
    <sodipodi:guide
       position="1,1"
       orientation="0,22"
       id="guide4113" />
    <sodipodi:guide
       position="23,1"
       orientation="-22,0"
       id="guide4115" />
    <sodipodi:guide
       position="23,23"
       orientation="0,-22"
       id="guide4117" />
    <sodipodi:guide
       position="22,12"
       orientation="0,-20"
       id="guide4145" />
    <sodipodi:guide
       position="4,20"
       orientation="16,0"
       id="guide4130" />
    <sodipodi:guide
       position="4,4"
       orientation="0,16"
       id="guide4132" />
    <sodipodi:guide
       position="20,4"
       orientation="-16,0"
       id="guide4134" />
    <sodipodi:guide
       position="20,20"
       orientation="0,-16"
       id="guide4136" />
    <sodipodi:guide
       position="4,11.999989"
       orientation="8,0"
       id="guide4140" />
    <sodipodi:guide
       position="4,3.9999886"
       orientation="0,8"
       id="guide4142" />
    <sodipodi:guide
       position="12,3.9999886"
       orientation="-8,0"
       id="guide4144" />
    <sodipodi:guide
       position="4,23"
       orientation="19.000011,0"
       id="guide4152" />
    <sodipodi:guide
       position="4,3.9999886"
       orientation="0,4"
       id="guide4154" />
    <sodipodi:guide
       position="8,3.9999886"
       orientation="-19.000011,0"
       id="guide4156" />
    <sodipodi:guide
       position="8,23"
       orientation="0,-4"
       id="guide4158" />
    <sodipodi:guide
       position="16,23"
       orientation="19,0"
       id="guide4160" />
    <sodipodi:guide
       position="16,4"
       orientation="0,4.0000019"
       id="guide4162" />
    <sodipodi:guide
       position="20.000002,4"
       orientation="-19,0"
       id="guide4164" />
    <sodipodi:guide
       position="20.000002,23"
       orientation="0,-4.0000019"
       id="guide4166" />
    <sodipodi:guide
       position="5,10.999977"
       orientation="7,0"
       id="guide4161" />
    <sodipodi:guide
       position="5,3.9999771"
       orientation="0,7"
       id="guide4163" />
    <sodipodi:guide
       position="12,3.9999771"
       orientation="-7,0"
       id="guide4165" />
    <sodipodi:guide
       position="12,10.999977"
       orientation="0,-7"
       id="guide4167" />
  </sodipodi:namedview>
  <metadata
     id="metadata4364">
    <rdf:RDF>
      <cc:Work
         rdf:about="">
        <dc:format>image/svg+xml</dc:format>
        <dc:type
           rdf:resource="http://purl.org/dc/dcmitype/StillImage" />
        <dc:title></dc:title>
      </cc:Work>
    </rdf:RDF>
  </metadata>
  <g
     id="layer1"
     inkscape:label="Layer 1"
     inkscape:groupmode="layer"
     transform="translate(1,-25)">
    <path
       style="opacity:1;fill:#424854;fill-opacity:1;stroke:none;stroke-width:2.79999995;stroke-miterlimit:4;stroke-dasharray:none;stroke-opacity:0.55026455"
       d="m 4,3 0,9 1,0 0,-8 12,0 0,14 -6,0 0,1 6,0 1,0 L 18,3 17,3 5,3 4,3 Z m 5,8 0,1 0.5,0 0.5,0 0,-1 -1,0 z m 0.5,1 C 8.669,12 8,12.669 8,13.5 c 0,0.65424 0.4180774,1.202197 1,1.408203 L 9,19 l 1,0 0,-4.091797 C 10.581923,14.702197 11,14.15424 11,13.5 11,12.669 10.331,12 9.5,12 Z M 5,13 5,15.091797 C 4.4180774,15.297803 4,15.84576 4,16.5 c 0,0.65424 0.4180774,1.202197 1,1.408203 L 5,19 6,19 6,17.908203 C 6.5819226,17.702197 7,17.15424 7,16.5 7,15.84576 6.5819226,15.297803 6,15.091797 L 6,13 5,13 Z m 4.5,0 C 9.777,13 10,13.223 10,13.5 10,13.777 9.777,14 9.5,14 9.223,14 9,13.777 9,13.5 9,13.223 9.223,13 9.5,13 Z m -4,3 C 5.777,16 6,16.223 6,16.5 6,16.777 5.777,17 5.5,17 5.223,17 5,16.777 5,16.5 5,16.223 5.223,16 5.5,16 Z"
       transform="translate(0,26)"
       id="rect4162"
       inkscape:connector-curvature="0" />
  </g>
</svg>
