<?xml version="1.0" encoding="UTF-8" standalone="no"?>
<!-- Created with Inkscape (http://www.inkscape.org/) -->

<svg
   xmlns:dc="http://purl.org/dc/elements/1.1/"
   xmlns:cc="http://creativecommons.org/ns#"
   xmlns:rdf="http://www.w3.org/1999/02/22-rdf-syntax-ns#"
   xmlns:svg="http://www.w3.org/2000/svg"
   xmlns="http://www.w3.org/2000/svg"
   xmlns:sodipodi="http://sodipodi.sourceforge.net/DTD/sodipodi-0.dtd"
   xmlns:inkscape="http://www.inkscape.org/namespaces/inkscape"
   width="24"
   height="24"
   id="svg4359"
   version="1.1"
   inkscape:version="0.91pre2 r"
   sodipodi:docname="edit-cut.svg">
  <defs
     id="defs4361" />
  <sodipodi:namedview
     id="base"
     pagecolor="#ffffff"
     bordercolor="#666666"
     borderopacity="1.0"
     inkscape:pageopacity="0.0"
     inkscape:pageshadow="2"
     inkscape:zoom="11.313709"
     inkscape:cx="19.024744"
     inkscape:cy="16.43401"
     inkscape:current-layer="layer1"
     showgrid="true"
     inkscape:grid-bbox="true"
     inkscape:document-units="px"
     inkscape:window-width="1366"
     inkscape:window-height="672"
     inkscape:window-x="-4"
     inkscape:window-y="25"
     inkscape:window-maximized="1"
     inkscape:showpageshadow="false"
     borderlayer="true"
     showguides="true"
     fit-margin-top="0"
     fit-margin-left="0"
     fit-margin-right="0"
     fit-margin-bottom="0">
    <inkscape:grid
       type="xygrid"
       id="grid4105"
       originx="1px"
       originy="1px" />
    <sodipodi:guide
       position="1,23"
       orientation="22,0"
       id="guide4111" />
    <sodipodi:guide
       position="1,1"
       orientation="0,22"
       id="guide4113" />
    <sodipodi:guide
       position="23,1"
       orientation="-22,0"
       id="guide4115" />
    <sodipodi:guide
       position="23,23"
       orientation="0,-22"
       id="guide4117" />
    <sodipodi:guide
       position="22,12"
       orientation="0,-20"
       id="guide4145" />
    <sodipodi:guide
       position="4,20"
       orientation="16,0"
       id="guide4130" />
    <sodipodi:guide
       position="4,4"
       orientation="0,16"
       id="guide4132" />
    <sodipodi:guide
       position="20,4"
       orientation="-16,0"
       id="guide4134" />
    <sodipodi:guide
       position="20,20"
       orientation="0,-16"
       id="guide4136" />
    <sodipodi:guide
       position="4,11.999989"
       orientation="8,0"
       id="guide4140" />
    <sodipodi:guide
       position="4,3.9999886"
       orientation="0,8"
       id="guide4142" />
    <sodipodi:guide
       position="12,3.9999886"
       orientation="-8,0"
       id="guide4144" />
    <sodipodi:guide
       position="4,23"
       orientation="19.000011,0"
       id="guide4152" />
    <sodipodi:guide
       position="4,3.9999886"
       orientation="0,4"
       id="guide4154" />
    <sodipodi:guide
       position="8,3.9999886"
       orientation="-19.000011,0"
       id="guide4156" />
    <sodipodi:guide
       position="8,23"
       orientation="0,-4"
       id="guide4158" />
    <sodipodi:guide
       position="16,23"
       orientation="19,0"
       id="guide4160" />
    <sodipodi:guide
       position="16,4"
       orientation="0,4.0000019"
       id="guide4162" />
    <sodipodi:guide
       position="20.000002,4"
       orientation="-19,0"
       id="guide4164" />
    <sodipodi:guide
       position="20.000002,23"
       orientation="0,-4.0000019"
       id="guide4166" />
  </sodipodi:namedview>
  <metadata
     id="metadata4364">
    <rdf:RDF>
      <cc:Work
         rdf:about="">
        <dc:format>image/svg+xml</dc:format>
        <dc:type
           rdf:resource="http://purl.org/dc/dcmitype/StillImage" />
        <dc:title></dc:title>
      </cc:Work>
    </rdf:RDF>
  </metadata>
  <g
     id="layer1"
     inkscape:label="Layer 1"
     inkscape:groupmode="layer"
     transform="translate(1,-25)">
    <path
       style="opacity:1;fill:#424854;fill-opacity:1;stroke:none"
       d="M 4,3 4,4 4,8 5,8 5,4 17,4 17,8 18,8 18,4 18,3 17,3 5,3 4,3 Z M 6.2929688,8.6992188 4,10.992188 4.0078125,11 4,11 l 0,2 0,1 0.8046875,0.804688 -0.00391,0.002 3.2929688,3.292968 0.00391,-0.002 L 9,19 l 1,0 8,0 0,-1 0,-5 0,-2 -1.001953,0 0,0.0078 L 16.990234,11 15.40625,12.585938 14.111328,11.292969 11.814453,9 11.8125,9.0019531 11.511719,8.7011719 9.21875,10.992188 8.9042969,11.306641 8.5898438,10.992188 7.0039062,9.40625 6.2929688,8.6992188 Z m 0.00195,1.4140622 1.5859375,1.585938 1.0234375,1.021484 L 9.9257812,11.699219 11.513672,10.113281 13.402344,12 l 2.003906,2 0.707031,-0.707031 0.884766,-0.886719 0,0.59375 0,1 0.002,0 0,4 -7,0 0,-5 -5,0 0,-1.591797 1.2949219,-1.294922 z M 5.5,14 9,14 9,17 8.5,17 8,16.5 7.5,16 7,15.5 6.5,15 6,14.5 5.5,14 Z"
       transform="translate(0,26)"
       id="rect8613"
       inkscape:connector-curvature="0" />
  </g>
</svg>
