<?xml version="1.0" encoding="UTF-8" standalone="no"?>
<!-- Created with Inkscape (http://www.inkscape.org/) -->

<svg
   xmlns:dc="http://purl.org/dc/elements/1.1/"
   xmlns:cc="http://creativecommons.org/ns#"
   xmlns:rdf="http://www.w3.org/1999/02/22-rdf-syntax-ns#"
   xmlns:svg="http://www.w3.org/2000/svg"
   xmlns="http://www.w3.org/2000/svg"
   xmlns:sodipodi="http://sodipodi.sourceforge.net/DTD/sodipodi-0.dtd"
   xmlns:inkscape="http://www.inkscape.org/namespaces/inkscape"
   width="24"
   height="24"
   id="svg2"
   version="1.1"
   inkscape:version="0.91pre2 r"
   viewBox="0 0 24 24"
   sodipodi:docname="format-text-subscript.svg">
  <defs
     id="defs4" />
  <sodipodi:namedview
     id="base"
     pagecolor="#ffffff"
     bordercolor="#666666"
     borderopacity="1.0"
     inkscape:pageopacity="0.0"
     inkscape:pageshadow="2"
     inkscape:zoom="12.57828"
     inkscape:cx="8.4562077"
     inkscape:cy="12.995995"
     inkscape:document-units="px"
     inkscape:current-layer="layer1"
     showgrid="true"
     inkscape:showpageshadow="false"
     units="px"
     inkscape:window-width="1366"
     inkscape:window-height="672"
     inkscape:window-x="-4"
     inkscape:window-y="25"
     inkscape:window-maximized="1"
     showguides="true"
     fit-margin-top="0"
     fit-margin-left="0"
     fit-margin-right="0"
     fit-margin-bottom="0">
    <inkscape:grid
       type="xygrid"
       id="grid4120"
       originx="1px"
       originy="0.99998262px" />
    <sodipodi:guide
       position="3,21"
       orientation="18,0"
       id="guide4126" />
    <sodipodi:guide
       position="3,3"
       orientation="0,18"
       id="guide4128" />
    <sodipodi:guide
       position="21,3"
       orientation="-18,0"
       id="guide4130" />
    <sodipodi:guide
       position="21,21"
       orientation="0,-18"
       id="guide4132" />
    <sodipodi:guide
       position="4,20"
       orientation="16,0"
       id="guide4134" />
    <sodipodi:guide
       position="4,4"
       orientation="0,16"
       id="guide4136" />
    <sodipodi:guide
       position="20,4"
       orientation="-16,0"
       id="guide4138" />
    <sodipodi:guide
       position="20,20"
       orientation="0,-16"
       id="guide4140" />
    <sodipodi:guide
       position="20,14"
       orientation="-6,0"
       id="guide4199" />
    <sodipodi:guide
       position="20,20"
       orientation="0,-6.0000172"
       id="guide4201" />
  </sodipodi:namedview>
  <metadata
     id="metadata7">
    <rdf:RDF>
      <cc:Work
         rdf:about="">
        <dc:format>image/svg+xml</dc:format>
        <dc:type
           rdf:resource="http://purl.org/dc/dcmitype/StillImage" />
        <dc:title></dc:title>
      </cc:Work>
    </rdf:RDF>
  </metadata>
  <g
     inkscape:label="Capa 1"
     inkscape:groupmode="layer"
     id="layer1"
     transform="translate(1,-1029.3622)">
    <path
       style="font-style:normal;font-variant:normal;font-weight:normal;font-stretch:normal;font-size:medium;line-height:125%;font-family:serif;-inkscape-font-specification:serif;letter-spacing:0px;word-spacing:0px;fill:#424854;fill-opacity:1;stroke:none;stroke-width:1px;stroke-linecap:butt;stroke-linejoin:miter;stroke-opacity:1"
       d="m 3.0507812,3 0,0.7792969 1.1660157,0 3.171875,4.7519531 -3.1289063,4.564453 -1.2519531,0 0,0.771485 3.5957031,0 0,-0.771485 -1.4042968,0 2.65625,-3.8808592 2.5917972,3.8808592 -1.2968754,0 0,0.771485 4.3085934,0 0,-0.771485 -1.164062,0 -3.4277345,-5.1328124 2.8750005,-4.1835937 1.222656,0 0,-0.7792969 -3.558594,0 0,0.7792969 1.396484,0 -2.3945309,3.5 -2.328125,-3.5 1.28125,0 0,-0.7792969 -4.3105469,0 z m 10.4667968,8.818359 0,0.50586 0.574219,0 1.876953,4.607422 -0.330078,0.83789 c -0.116693,0.290134 -0.228706,0.483525 -0.335938,0.578125 -0.104078,0.0978 -0.244504,0.146485 -0.417968,0.146485 -0.189233,0 -0.32846,-0.04798 -0.419922,-0.142579 -0.08831,-0.09147 -0.141237,-0.244517 -0.160156,-0.458984 l -0.445313,0 0,0.960938 c 0.157694,0.0472 0.314209,0.08404 0.46875,0.109375 C 14.485819,18.988224 14.638877,19 14.787109,19 c 0.350081,0 0.620114,-0.07173 0.8125,-0.216797 0.192387,-0.141933 0.367697,-0.409714 0.525391,-0.800781 l 2.304688,-5.658203 0.5625,0 0,-0.50586 -1.888672,0 0,0.50586 0.753906,0 -1.416016,3.458984 -1.414062,-3.458984 0.804687,0 0,-0.50586 -2.314453,0 z"
       transform="translate(0,1030.3622)"
       id="path4153"
       inkscape:connector-curvature="0" />
  </g>
</svg>
