<?xml version="1.0" encoding="UTF-8" standalone="no"?>
<!-- Created with Inkscape (http://www.inkscape.org/) -->

<svg
   xmlns:dc="http://purl.org/dc/elements/1.1/"
   xmlns:cc="http://creativecommons.org/ns#"
   xmlns:rdf="http://www.w3.org/1999/02/22-rdf-syntax-ns#"
   xmlns:svg="http://www.w3.org/2000/svg"
   xmlns="http://www.w3.org/2000/svg"
   xmlns:sodipodi="http://sodipodi.sourceforge.net/DTD/sodipodi-0.dtd"
   xmlns:inkscape="http://www.inkscape.org/namespaces/inkscape"
   width="24"
   height="24"
   id="svg4359"
   version="1.1"
   inkscape:version="0.91pre2 r"
   sodipodi:docname="kdenlive-split-audio.svg">
  <defs
     id="defs4361" />
  <sodipodi:namedview
     id="base"
     pagecolor="#ffffff"
     bordercolor="#666666"
     borderopacity="1.0"
     inkscape:pageopacity="0.0"
     inkscape:pageshadow="2"
     inkscape:zoom="11.313709"
     inkscape:cx="14.321009"
     inkscape:cy="19.441386"
     inkscape:current-layer="layer1"
     showgrid="true"
     inkscape:grid-bbox="true"
     inkscape:document-units="px"
     inkscape:window-width="1366"
     inkscape:window-height="672"
     inkscape:window-x="-4"
     inkscape:window-y="25"
     inkscape:window-maximized="1"
     inkscape:showpageshadow="false"
     borderlayer="true"
     showguides="true"
     fit-margin-top="0"
     fit-margin-left="0"
     fit-margin-right="0"
     fit-margin-bottom="0">
    <inkscape:grid
       type="xygrid"
       id="grid4105"
       originx="1px"
       originy="1px" />
    <sodipodi:guide
       position="1,23"
       orientation="22,0"
       id="guide4111" />
    <sodipodi:guide
       position="1,1"
       orientation="0,22"
       id="guide4113" />
    <sodipodi:guide
       position="23,1"
       orientation="-22,0"
       id="guide4115" />
    <sodipodi:guide
       position="23,23"
       orientation="0,-22"
       id="guide4117" />
    <sodipodi:guide
       position="22,12"
       orientation="0,-20"
       id="guide4145" />
    <sodipodi:guide
       position="4,20"
       orientation="16,0"
       id="guide4130" />
    <sodipodi:guide
       position="4,4"
       orientation="0,16"
       id="guide4132" />
    <sodipodi:guide
       position="20,4"
       orientation="-16,0"
       id="guide4134" />
    <sodipodi:guide
       position="20,20"
       orientation="0,-16"
       id="guide4136" />
    <sodipodi:guide
       position="4,11.999989"
       orientation="8,0"
       id="guide4140" />
    <sodipodi:guide
       position="4,3.9999886"
       orientation="0,8"
       id="guide4142" />
    <sodipodi:guide
       position="12,3.9999886"
       orientation="-8,0"
       id="guide4144" />
    <sodipodi:guide
       position="4,23"
       orientation="19.000011,0"
       id="guide4152" />
    <sodipodi:guide
       position="4,3.9999886"
       orientation="0,4"
       id="guide4154" />
    <sodipodi:guide
       position="8,3.9999886"
       orientation="-19.000011,0"
       id="guide4156" />
    <sodipodi:guide
       position="8,23"
       orientation="0,-4"
       id="guide4158" />
    <sodipodi:guide
       position="16,23"
       orientation="19,0"
       id="guide4160" />
    <sodipodi:guide
       position="16,4"
       orientation="0,4.0000019"
       id="guide4162" />
    <sodipodi:guide
       position="20.000002,4"
       orientation="-19,0"
       id="guide4164" />
    <sodipodi:guide
       position="20.000002,23"
       orientation="0,-4.0000019"
       id="guide4166" />
  </sodipodi:namedview>
  <metadata
     id="metadata4364">
    <rdf:RDF>
      <cc:Work
         rdf:about="">
        <dc:format>image/svg+xml</dc:format>
        <dc:type
           rdf:resource="http://purl.org/dc/dcmitype/StillImage" />
        <dc:title></dc:title>
      </cc:Work>
    </rdf:RDF>
  </metadata>
  <g
     id="layer1"
     inkscape:label="Layer 1"
     inkscape:groupmode="layer"
     transform="translate(1,-25)">
    <path
       style="opacity:1;fill:#424854;fill-opacity:1;stroke:none"
       d="m 11.59375,3 -5,5 L 4,8 3,8 3,9 3,13 3,14 4,14 6.5859375,14 7.296875,13.289062 7.0078125,13 7,13.007812 7,13 7,8.9921875 7.0078125,9 12.007812,4 13,4 l 0,3.5859375 1,-1 L 14,3 l -2.400391,0 0,0.00586 L 11.59375,3 Z M 18.292969,3 3,18.292969 3.7070312,19 19,3.7070312 18.292969,3 Z m -0.97461,3.0957031 -0.71289,0.7128907 C 17.478126,7.9764385 18,9.4235776 18,11 c 0,1.939 -0.779672,3.689828 -2.044922,4.955078 l 0.707031,0.707031 C 18.108109,15.216109 19,13.216 19,11 19,9.1461445 18.368993,7.4493483 17.318359,6.0957031 Z m -1.427734,1.4277344 -0.71875,0.71875 C 15.693873,9.0323034 16,9.978168 16,11 c 0,1.385 -0.557185,2.635315 -1.460938,3.539062 l 0.707032,0.707032 C 16.330594,14.161594 17,12.662 17,11 17,9.7006822 16.587367,8.5035006 15.890625,7.5234375 Z M 4,9 5,9 5,13 4,13 4,9 Z M 14,9.4140625 13,10.414062 13,18 12.007812,18 8.7109375,14.703125 8.0039062,15.410156 11.59375,19 l 0.0059,-0.0059 0,0.0059 L 14,19 14,18 14,9.4140625 Z"
       transform="translate(0,26)"
       id="rect4120"
       inkscape:connector-curvature="0" />
  </g>
</svg>
