<?xml version="1.0" encoding="UTF-8" standalone="no"?>
<!-- Created with Inkscape (http://www.inkscape.org/) -->

<svg
   xmlns:dc="http://purl.org/dc/elements/1.1/"
   xmlns:cc="http://creativecommons.org/ns#"
   xmlns:rdf="http://www.w3.org/1999/02/22-rdf-syntax-ns#"
   xmlns:svg="http://www.w3.org/2000/svg"
   xmlns="http://www.w3.org/2000/svg"
   xmlns:sodipodi="http://sodipodi.sourceforge.net/DTD/sodipodi-0.dtd"
   xmlns:inkscape="http://www.inkscape.org/namespaces/inkscape"
   width="24"
   height="24"
   id="svg3760"
   version="1.1"
   inkscape:version="0.91pre2 r"
   sodipodi:docname="kdenlive-show-video.svg">
  <defs
     id="defs3762" />
  <sodipodi:namedview
     id="base"
     pagecolor="#ffffff"
     bordercolor="#666666"
     borderopacity="1.0"
     inkscape:pageopacity="0.0"
     inkscape:pageshadow="2"
     inkscape:zoom="16.3125"
     inkscape:cx="7.1535302"
     inkscape:cy="13.446146"
     inkscape:document-units="px"
     inkscape:current-layer="layer1"
     showgrid="true"
     fit-margin-top="0"
     fit-margin-left="0"
     fit-margin-right="0"
     fit-margin-bottom="0"
     inkscape:window-width="1366"
     inkscape:window-height="672"
     inkscape:window-x="-4"
     inkscape:window-y="25"
     inkscape:window-maximized="1"
     inkscape:showpageshadow="false"
     showguides="true">
    <sodipodi:guide
       position="1,23"
       orientation="22,0"
       id="guide4116" />
    <sodipodi:guide
       position="1,1"
       orientation="0,22"
       id="guide4118" />
    <sodipodi:guide
       position="23,1"
       orientation="-22,0"
       id="guide4120" />
    <sodipodi:guide
       position="23,23"
       orientation="0,-22"
       id="guide4122" />
    <sodipodi:guide
       position="3,21"
       orientation="18,0"
       id="guide4124" />
    <sodipodi:guide
       position="21,3"
       orientation="-18,0"
       id="guide4128" />
    <sodipodi:guide
       position="21,21"
       orientation="0,-18"
       id="guide4130" />
    <sodipodi:guide
       position="4,20"
       orientation="16,0"
       id="guide4132" />
    <sodipodi:guide
       position="4,4"
       orientation="0,16"
       id="guide4134" />
    <sodipodi:guide
       position="20,4"
       orientation="-16,0"
       id="guide4136" />
    <sodipodi:guide
       position="20,20"
       orientation="0,-16"
       id="guide4138" />
    <inkscape:grid
       type="xygrid"
       id="grid4140"
       originx="0.99999582px"
       originy="1.0000027px" />
  </sodipodi:namedview>
  <metadata
     id="metadata3765">
    <rdf:RDF>
      <cc:Work
         rdf:about="">
        <dc:format>image/svg+xml</dc:format>
        <dc:type
           rdf:resource="http://purl.org/dc/dcmitype/StillImage" />
        <dc:title></dc:title>
      </cc:Work>
    </rdf:RDF>
  </metadata>
  <g
     inkscape:label="Capa 1"
     inkscape:groupmode="layer"
     id="layer1"
     transform="translate(-552.72253,-582.11926)">
    <path
       style="color:#000000;text-decoration:none;text-decoration-line:none;text-decoration-style:solid;text-decoration-color:#000000;clip-rule:nonzero;display:inline;overflow:visible;visibility:visible;opacity:1;isolation:auto;mix-blend-mode:normal;color-interpolation:sRGB;color-interpolation-filters:linearRGB;solid-color:#000000;solid-opacity:1;fill:#424854;fill-opacity:1;fill-rule:nonzero;stroke:none;stroke-width:1;stroke-linecap:butt;stroke-linejoin:miter;stroke-miterlimit:4;stroke-dasharray:none;stroke-dashoffset:0;stroke-opacity:1;color-rendering:auto;image-rendering:auto;shape-rendering:auto;text-rendering:auto;enable-background:accumulate"
       d="m 3,3 0,1 0,14 0,1 16,0 0,-1 L 19,3 3,3 Z M 4,4 5,4 5,5 4,5 4,4 Z M 6,4 16,4 16,7 6,7 6,4 Z m 11,0 1,0 0,1 -1,0 0,-1 z M 4,6 5,6 5,7 4,7 4,6 Z m 13,0 1,0 0,1 -1,0 0,-1 z M 4,8 5,8 5,9 4,9 4,8 Z m 2,0 10,0 0,6 -10,0 0,-6 z m 11,0 1,0 0,1 -1,0 0,-1 z m -13,2 1,0 0,2 -1,0 0,-2 z m 13,0 1,0 0,2 -1,0 0,-2 z m -13,3 1,0 0,1 -1,0 0,-1 z m 13,0 1,0 0,1 -1,0 0,-1 z m -13,2 1,0 0,1 -1,0 0,-1 z m 2,0 10,0 0,3 -10,0 0,-3 z m 11,0 1,0 0,1 -1,0 0,-1 z m -13,2 1,0 0,1 -1,0 0,-1 z m 13,0 1,0 0,1 -1,0 0,-1 z"
       transform="translate(553.72253,583.11926)"
       id="rect4149"
       inkscape:connector-curvature="0" />
  </g>
</svg>
