<?xml version="1.0" encoding="UTF-8" standalone="no"?>
<!-- Created with Inkscape (http://www.inkscape.org/) -->

<svg
   xmlns:dc="http://purl.org/dc/elements/1.1/"
   xmlns:cc="http://creativecommons.org/ns#"
   xmlns:rdf="http://www.w3.org/1999/02/22-rdf-syntax-ns#"
   xmlns:svg="http://www.w3.org/2000/svg"
   xmlns="http://www.w3.org/2000/svg"
   xmlns:sodipodi="http://sodipodi.sourceforge.net/DTD/sodipodi-0.dtd"
   xmlns:inkscape="http://www.inkscape.org/namespaces/inkscape"
   width="24"
   height="24"
   id="svg4062"
   version="1.1"
   inkscape:version="0.91pre2 r"
   sodipodi:docname="media-optical-copy.svg">
  <defs
     id="defs4064">
    <linearGradient
       id="linearGradient3257">
      <stop
         offset="0"
         style="stop-color:#a50000;stop-opacity:1"
         id="stop3259" />
      <stop
         offset="1"
         style="stop-color:#e73800;stop-opacity:1"
         id="stop3261" />
    </linearGradient>
  </defs>
  <sodipodi:namedview
     id="base"
     pagecolor="#ffffff"
     bordercolor="#666666"
     borderopacity="1.0"
     inkscape:pageopacity="0.0"
     inkscape:pageshadow="2"
     inkscape:zoom="16.000001"
     inkscape:cx="11.593036"
     inkscape:cy="14.362428"
     inkscape:document-units="px"
     inkscape:current-layer="layer1"
     showgrid="true"
     inkscape:window-width="1366"
     inkscape:window-height="672"
     inkscape:window-x="-4"
     inkscape:window-y="25"
     inkscape:window-maximized="1"
     inkscape:showpageshadow="false"
     fit-margin-top="0"
     fit-margin-left="0"
     fit-margin-right="0"
     fit-margin-bottom="0">
    <inkscape:grid
       type="xygrid"
       id="grid4105"
       originx="1px"
       originy="0.99998262px" />
    <sodipodi:guide
       position="3,21"
       orientation="18,0"
       id="guide4111" />
    <sodipodi:guide
       position="3,3"
       orientation="0,18"
       id="guide4113" />
    <sodipodi:guide
       position="21,3"
       orientation="-18,0"
       id="guide4115" />
    <sodipodi:guide
       position="21,21"
       orientation="0,-18"
       id="guide4117" />
    <sodipodi:guide
       position="4,20"
       orientation="16,0"
       id="guide4119" />
    <sodipodi:guide
       position="4,4"
       orientation="0,16"
       id="guide4121" />
    <sodipodi:guide
       position="20,12.999983"
       orientation="-16,0"
       id="guide4123" />
    <sodipodi:guide
       position="20,20"
       orientation="0,-16"
       id="guide4125" />
    <sodipodi:guide
       position="5,5"
       orientation="-14,0"
       id="guide4128" />
    <sodipodi:guide
       position="5,19"
       orientation="0,14"
       id="guide4130" />
    <sodipodi:guide
       position="19,19"
       orientation="14,0"
       id="guide4132" />
    <sodipodi:guide
       position="4,10.999983"
       orientation="0,-14"
       id="guide4134" />
    <sodipodi:guide
       position="5,5"
       orientation="-14,0"
       id="guide4136" />
    <sodipodi:guide
       position="5,19"
       orientation="0,7"
       id="guide4138" />
    <sodipodi:guide
       position="12,19"
       orientation="14,0"
       id="guide4140" />
    <sodipodi:guide
       position="12,5"
       orientation="0,-7"
       id="guide4142" />
    <sodipodi:guide
       position="5,12"
       orientation="7,0"
       id="guide4146" />
    <sodipodi:guide
       position="5,5"
       orientation="0,14"
       id="guide4148" />
    <sodipodi:guide
       position="19,5"
       orientation="-7,0"
       id="guide4150" />
    <sodipodi:guide
       position="19,12"
       orientation="0,-14"
       id="guide4152" />
  </sodipodi:namedview>
  <metadata
     id="metadata4067">
    <rdf:RDF>
      <cc:Work
         rdf:about="">
        <dc:format>image/svg+xml</dc:format>
        <dc:type
           rdf:resource="http://purl.org/dc/dcmitype/StillImage" />
        <dc:title></dc:title>
      </cc:Work>
    </rdf:RDF>
  </metadata>
  <g
     inkscape:label="Capa 1"
     inkscape:groupmode="layer"
     id="layer1"
     transform="translate(1,-1029.3622)">
    <path
       style="color:#000000;text-decoration:none;text-decoration-line:none;text-decoration-style:solid;text-decoration-color:#000000;clip-rule:nonzero;display:inline;overflow:visible;visibility:visible;opacity:1;isolation:auto;mix-blend-mode:normal;color-interpolation:sRGB;color-interpolation-filters:linearRGB;solid-color:#000000;solid-opacity:1;fill:#424854;fill-opacity:1;fill-rule:nonzero;stroke:none;stroke-width:1;stroke-linecap:butt;stroke-linejoin:miter;stroke-miterlimit:4;stroke-dasharray:none;stroke-dashoffset:0;stroke-opacity:1;color-rendering:auto;image-rendering:auto;shape-rendering:auto;text-rendering:auto;enable-background:accumulate"
       d="M 11,3 C 6.5680095,3 3,6.5680095 3,11 l 1,0 c 0,-3.8779913 3.1220085,-7 7,-7 3.877992,0 7,3.1220087 7,7 0,3.877991 -3.122008,7 -7,7 l 0,1 c 4.43199,0 8,-3.56801 8,-8 0,-4.4319905 -3.56801,-8 -8,-8 z m 0,6 C 9.892,9 9,9.892 9,11 l 1,0 c 0,-0.554005 0.445995,-1 1,-1 0.554005,0 1,0.445995 1,1 0,0.554005 -0.445995,1 -1,1 l 0,1 c 1.108,0 2,-0.892 2,-2 C 13,9.892 12.108,9 11,9 Z M 6.5,12 C 4.561,12 3,13.561 3,15.5 3,17.439 4.561,19 6.5,19 8.439,19 10,17.439 10,15.5 10,13.561 8.439,12 6.5,12 Z m 0,1 C 7.885,13 9,14.115 9,15.5 9,16.885 7.885,18 6.5,18 5.115,18 4,16.885 4,15.5 4,14.115 5.115,13 6.5,13 Z m 0,2 C 6.223,15 6,15.223 6,15.5 6,15.777 6.223,16 6.5,16 6.777,16 7,15.777 7,15.5 7,15.223 6.777,15 6.5,15 Z"
       transform="translate(0,1030.3622)"
       id="rect4160"
       inkscape:connector-curvature="0" />
  </g>
</svg>
