<?xml version="1.0" encoding="UTF-8" standalone="no"?>
<!-- Created with Inkscape (http://www.inkscape.org/) -->

<svg
   xmlns:dc="http://purl.org/dc/elements/1.1/"
   xmlns:cc="http://creativecommons.org/ns#"
   xmlns:rdf="http://www.w3.org/1999/02/22-rdf-syntax-ns#"
   xmlns:svg="http://www.w3.org/2000/svg"
   xmlns="http://www.w3.org/2000/svg"
   xmlns:sodipodi="http://sodipodi.sourceforge.net/DTD/sodipodi-0.dtd"
   xmlns:inkscape="http://www.inkscape.org/namespaces/inkscape"
   width="24"
   height="24"
   id="svg4359"
   version="1.1"
   inkscape:version="0.91pre2 r"
   sodipodi:docname="user-group-properties.svg">
  <defs
     id="defs4361" />
  <sodipodi:namedview
     id="base"
     pagecolor="#ffffff"
     bordercolor="#666666"
     borderopacity="1.0"
     inkscape:pageopacity="0.0"
     inkscape:pageshadow="2"
     inkscape:zoom="16.503906"
     inkscape:cx="12.448323"
     inkscape:cy="12.846354"
     inkscape:current-layer="layer1"
     showgrid="true"
     inkscape:grid-bbox="true"
     inkscape:document-units="px"
     inkscape:window-width="1366"
     inkscape:window-height="672"
     inkscape:window-x="-4"
     inkscape:window-y="25"
     inkscape:window-maximized="1"
     inkscape:showpageshadow="false"
     borderlayer="true"
     showguides="true"
     fit-margin-top="0"
     fit-margin-left="0"
     fit-margin-right="0"
     fit-margin-bottom="0">
    <inkscape:grid
       type="xygrid"
       id="grid4105"
       originx="1px"
       originy="1px" />
    <sodipodi:guide
       position="1,23"
       orientation="22,0"
       id="guide4111" />
    <sodipodi:guide
       position="1,1"
       orientation="0,22"
       id="guide4113" />
    <sodipodi:guide
       position="23,1"
       orientation="-22,0"
       id="guide4115" />
    <sodipodi:guide
       position="23,23"
       orientation="0,-22"
       id="guide4117" />
    <sodipodi:guide
       position="4,20"
       orientation="16,0"
       id="guide4130" />
    <sodipodi:guide
       position="4,4"
       orientation="0,16"
       id="guide4132" />
    <sodipodi:guide
       position="20,4"
       orientation="-16,0"
       id="guide4134" />
    <sodipodi:guide
       position="20,20"
       orientation="0,-16"
       id="guide4136" />
    <sodipodi:guide
       position="4,11.999989"
       orientation="8,0"
       id="guide4140" />
    <sodipodi:guide
       position="4,3.9999886"
       orientation="0,8"
       id="guide4142" />
    <sodipodi:guide
       position="12,3.9999886"
       orientation="-8,0"
       id="guide4144" />
    <sodipodi:guide
       position="4,23"
       orientation="19.000011,0"
       id="guide4152" />
    <sodipodi:guide
       position="4,3.9999886"
       orientation="0,4"
       id="guide4154" />
    <sodipodi:guide
       position="8,3.9999886"
       orientation="-19.000011,0"
       id="guide4156" />
    <sodipodi:guide
       position="8,23"
       orientation="0,-4"
       id="guide4158" />
    <sodipodi:guide
       position="16,23"
       orientation="19,0"
       id="guide4160" />
    <sodipodi:guide
       position="16,4"
       orientation="0,4.0000019"
       id="guide4162" />
    <sodipodi:guide
       position="20.000002,4"
       orientation="-19,0"
       id="guide4164" />
    <sodipodi:guide
       position="20.000002,23"
       orientation="0,-4.0000019"
       id="guide4166" />
  </sodipodi:namedview>
  <metadata
     id="metadata4364">
    <rdf:RDF>
      <cc:Work
         rdf:about="">
        <dc:format>image/svg+xml</dc:format>
        <dc:type
           rdf:resource="http://purl.org/dc/dcmitype/StillImage" />
        <dc:title></dc:title>
      </cc:Work>
    </rdf:RDF>
  </metadata>
  <g
     id="layer1"
     inkscape:label="Layer 1"
     inkscape:groupmode="layer"
     transform="translate(1,-25)">
    <path
       style="opacity:1;fill:#424854;fill-opacity:0.94117647;stroke:none"
       d="m 14,3 0,5.0917969 C 13.418077,8.2978026 13,8.8457598 13,9.5 c 0,0.65424 0.418077,1.202197 1,1.408203 L 14,13 l 1,0 0,-2.091797 C 15.581923,10.702197 16,10.15424 16,9.5 16,8.8457598 15.581923,8.2978026 15,8.0917969 L 15,3 14,3 Z m 3,0 0,2.0917969 C 16.418077,5.2978026 16,5.8457596 16,6.5 c 0,0.6542404 0.418077,1.2021974 1,1.4082031 L 17,13 18,13 18,7.9082031 C 18.581923,7.7021974 19,7.1542404 19,6.5 19,5.8457596 18.581923,5.2978026 18,5.0917969 L 18,3 17,3 Z M 9,6 C 7.338,6 6,7.338 6,9 c 0,1.662 1.338,3 3,3 1.662,0 3,-1.338 3,-3 C 12,7.338 10.662,6 9,6 Z m 8.5,0 C 17.777,6 18,6.2229998 18,6.5 18,6.7770002 17.777,7 17.5,7 17.223,7 17,6.7770002 17,6.5 17,6.2229998 17.223,6 17.5,6 Z M 9,7 c 1.108,0 2,0.892 2,2 0,1.108 -0.892,2 -2,2 C 7.892,11 7,10.108 7,9 7,7.892 7.892,7 9,7 Z m 5.5,2 C 14.777,9 15,9.223 15,9.5 15,9.777 14.777,10 14.5,10 14.223,10 14,9.777 14,9.5 14,9.223 14.223,9 14.5,9 Z M 9,13 c -3.324,0 -6,2.676 -6,6 l 1,0 c 0,-2.77 2.23,-5 5,-5 2.77,0 5,2.23 5,5 l 1,0 c 0,-3.324 -2.676,-6 -6,-6 z"
       transform="translate(0,26)"
       id="rect8602"
       inkscape:connector-curvature="0" />
  </g>
</svg>
