<?xml version="1.0" encoding="UTF-8" standalone="no"?>
<!-- Created with Inkscape (http://www.inkscape.org/) -->

<svg
   xmlns:dc="http://purl.org/dc/elements/1.1/"
   xmlns:cc="http://creativecommons.org/ns#"
   xmlns:rdf="http://www.w3.org/1999/02/22-rdf-syntax-ns#"
   xmlns:svg="http://www.w3.org/2000/svg"
   xmlns="http://www.w3.org/2000/svg"
   xmlns:sodipodi="http://sodipodi.sourceforge.net/DTD/sodipodi-0.dtd"
   xmlns:inkscape="http://www.inkscape.org/namespaces/inkscape"
   width="24"
   height="24"
   id="svg4359"
   version="1.1"
   inkscape:version="0.91pre2 r"
   sodipodi:docname="view-media-visualization.svg">
  <defs
     id="defs4361" />
  <sodipodi:namedview
     id="base"
     pagecolor="#ffffff"
     bordercolor="#666666"
     borderopacity="1.0"
     inkscape:pageopacity="0.0"
     inkscape:pageshadow="2"
     inkscape:zoom="16.503906"
     inkscape:cx="12.121173"
     inkscape:cy="13.14617"
     inkscape:current-layer="layer1"
     showgrid="true"
     inkscape:grid-bbox="true"
     inkscape:document-units="px"
     inkscape:window-width="1366"
     inkscape:window-height="672"
     inkscape:window-x="-4"
     inkscape:window-y="25"
     inkscape:window-maximized="1"
     inkscape:showpageshadow="false"
     borderlayer="true"
     showguides="true"
     fit-margin-top="0"
     fit-margin-left="0"
     fit-margin-right="0"
     fit-margin-bottom="0">
    <inkscape:grid
       type="xygrid"
       id="grid4105"
       originx="1px"
       originy="1px" />
    <sodipodi:guide
       position="1,23"
       orientation="22,0"
       id="guide4111" />
    <sodipodi:guide
       position="1,1"
       orientation="0,22"
       id="guide4113" />
    <sodipodi:guide
       position="23,1"
       orientation="-22,0"
       id="guide4115" />
    <sodipodi:guide
       position="23,23"
       orientation="0,-22"
       id="guide4117" />
    <sodipodi:guide
       position="22,12"
       orientation="0,-20"
       id="guide4145" />
    <sodipodi:guide
       position="4,20"
       orientation="16,0"
       id="guide4130" />
    <sodipodi:guide
       position="4,4"
       orientation="0,16"
       id="guide4132" />
    <sodipodi:guide
       position="20,4"
       orientation="-16,0"
       id="guide4134" />
    <sodipodi:guide
       position="20,20"
       orientation="0,-16"
       id="guide4136" />
    <sodipodi:guide
       position="4,11.999989"
       orientation="8,0"
       id="guide4140" />
    <sodipodi:guide
       position="4,3.9999886"
       orientation="0,8"
       id="guide4142" />
    <sodipodi:guide
       position="12,3.9999886"
       orientation="-8,0"
       id="guide4144" />
    <sodipodi:guide
       position="4,23"
       orientation="19.000011,0"
       id="guide4152" />
    <sodipodi:guide
       position="4,3.9999886"
       orientation="0,4"
       id="guide4154" />
    <sodipodi:guide
       position="8,3.9999886"
       orientation="-19.000011,0"
       id="guide4156" />
    <sodipodi:guide
       position="8,23"
       orientation="0,-4"
       id="guide4158" />
    <sodipodi:guide
       position="16,23"
       orientation="19,0"
       id="guide4160" />
    <sodipodi:guide
       position="16,4"
       orientation="0,4.0000019"
       id="guide4162" />
    <sodipodi:guide
       position="20.000002,4"
       orientation="-19,0"
       id="guide4164" />
    <sodipodi:guide
       position="20.000002,23"
       orientation="0,-4.0000019"
       id="guide4166" />
    <sodipodi:guide
       position="5,3.9999771"
       orientation="0,7"
       id="guide4163" />
    <sodipodi:guide
       position="12,3.9999771"
       orientation="-7,0"
       id="guide4165" />
    <sodipodi:guide
       position="12,10.999977"
       orientation="0,-7"
       id="guide4167" />
  </sodipodi:namedview>
  <metadata
     id="metadata4364">
    <rdf:RDF>
      <cc:Work
         rdf:about="">
        <dc:format>image/svg+xml</dc:format>
        <dc:type
           rdf:resource="http://purl.org/dc/dcmitype/StillImage" />
        <dc:title></dc:title>
      </cc:Work>
    </rdf:RDF>
  </metadata>
  <g
     id="layer1"
     inkscape:label="Layer 1"
     inkscape:groupmode="layer"
     transform="translate(1,-25)">
    <path
       style="color:#000000;text-decoration:none;text-decoration-line:none;text-decoration-style:solid;text-decoration-color:#000000;clip-rule:nonzero;display:inline;overflow:visible;visibility:visible;opacity:1;isolation:auto;mix-blend-mode:normal;color-interpolation:sRGB;color-interpolation-filters:linearRGB;solid-color:#000000;solid-opacity:1;fill:#424854;fill-opacity:1;fill-rule:nonzero;stroke:none;stroke-width:1;stroke-linecap:butt;stroke-linejoin:miter;stroke-miterlimit:4;stroke-dasharray:none;stroke-dashoffset:0;stroke-opacity:1;color-rendering:auto;image-rendering:auto;shape-rendering:auto;text-rendering:auto;enable-background:accumulate"
       d="m 11,3 c -4.432,0 -8,3.568 -8,8 0,4.432 3.568,8 8,8 4.432,0 8,-3.568 8,-8 0,-4.432 -3.568,-8 -8,-8 z m 0,1 c 3.878,0 7,3.122 7,7 0,3.878 -3.122,7 -7,7 C 7.122,18 4,14.878 4,11 4,7.122 7.122,4 11,4 Z"
       transform="translate(0,26)"
       id="rect4185"
       inkscape:connector-curvature="0" />
    <path
       style="color:#000000;text-decoration:none;text-decoration-line:none;text-decoration-style:solid;text-decoration-color:#000000;clip-rule:nonzero;display:inline;overflow:visible;visibility:visible;opacity:1;isolation:auto;mix-blend-mode:normal;color-interpolation:sRGB;color-interpolation-filters:linearRGB;solid-color:#000000;solid-opacity:1;fill:#424854;fill-opacity:1;fill-rule:nonzero;stroke:none;stroke-width:1;stroke-linecap:butt;stroke-linejoin:miter;stroke-miterlimit:4;stroke-dasharray:none;stroke-dashoffset:0;stroke-opacity:1;color-rendering:auto;image-rendering:auto;shape-rendering:auto;text-rendering:auto;enable-background:accumulate"
       d="m 11,7 c -2.216,0 -4,1.784 -4,4 0,2.216 1.784,4 4,4 2.216,0 4,-1.784 4,-4 0,-2.216 -1.784,-4 -4,-4 z m 0,1 c 0.463992,0 0.897639,0.1123251 1.289062,0.2988281 C 12.470186,8.1151309 12.72045,8 13,8 13.554,8 14,8.446 14,9 14,9.2795501 13.884869,9.5298139 13.701172,9.7109375 13.887675,10.102361 14,10.536008 14,11 14,12.662 12.662,14 11,14 9.338,14 8,12.662 8,11 8,9.338 9.338,8 11,8 Z"
       transform="translate(0,26)"
       id="rect4225"
       inkscape:connector-curvature="0" />
    <path
       style="color:#000000;text-decoration:none;text-decoration-line:none;text-decoration-style:solid;text-decoration-color:#000000;clip-rule:nonzero;display:inline;overflow:visible;visibility:visible;opacity:1;isolation:auto;mix-blend-mode:normal;color-interpolation:sRGB;color-interpolation-filters:linearRGB;solid-color:#000000;solid-opacity:1;fill:#424854;fill-opacity:1;fill-rule:nonzero;stroke:none;stroke-width:1;stroke-linecap:butt;stroke-linejoin:miter;stroke-miterlimit:4;stroke-dasharray:none;stroke-dashoffset:0;stroke-opacity:1;color-rendering:auto;image-rendering:auto;shape-rendering:auto;text-rendering:auto;enable-background:accumulate"
       d="m 13,7 c -1.108,0 -2,0.892 -2,2 0,1.108 0.892,2 2,2 1.108,0 2,-0.892 2,-2 0,-1.108 -0.892,-2 -2,-2 z m 0,1 c 0.554,0 1,0.446 1,1 0,0.554 -0.446,1 -1,1 -0.554,0 -1,-0.446 -1,-1 0,-0.554 0.446,-1 1,-1 z"
       transform="translate(0,26)"
       id="rect4230"
       inkscape:connector-curvature="0" />
  </g>
</svg>
