<?xml version="1.0" encoding="UTF-8" standalone="no"?>
<!-- Created with Inkscape (http://www.inkscape.org/) -->

<svg
   xmlns:dc="http://purl.org/dc/elements/1.1/"
   xmlns:cc="http://creativecommons.org/ns#"
   xmlns:rdf="http://www.w3.org/1999/02/22-rdf-syntax-ns#"
   xmlns:svg="http://www.w3.org/2000/svg"
   xmlns="http://www.w3.org/2000/svg"
   xmlns:sodipodi="http://sodipodi.sourceforge.net/DTD/sodipodi-0.dtd"
   xmlns:inkscape="http://www.inkscape.org/namespaces/inkscape"
   id="svg7384"
   height="16"
   width="16"
   version="1.1"
   inkscape:version="0.48.3.1 r9886"
   sodipodi:docname="dialog-warning-symbolic.svg">
  <defs
     id="defs9" />
  <sodipodi:namedview
     pagecolor="#ffffff"
     bordercolor="#666666"
     borderopacity="1"
     objecttolerance="10"
     gridtolerance="10"
     guidetolerance="10"
     inkscape:pageopacity="0"
     inkscape:pageshadow="2"
     inkscape:window-width="1366"
     inkscape:window-height="716"
     id="namedview7"
     showgrid="false"
     inkscape:zoom="14.75"
     inkscape:cx="-0.23728814"
     inkscape:cy="8"
     inkscape:window-x="0"
     inkscape:window-y="28"
     inkscape:window-maximized="1"
     inkscape:current-layer="svg7384" />
  <metadata
     id="metadata90">
    <rdf:RDF>
      <cc:Work
         rdf:about="">
        <dc:format>image/svg+xml</dc:format>
        <dc:type
           rdf:resource="http://purl.org/dc/dcmitype/StillImage" />
        <dc:title>Gnome Symbolic Icon Theme</dc:title>
      </cc:Work>
    </rdf:RDF>
  </metadata>
  <title
     id="title9167">Gnome Symbolic Icon Theme</title>
  <g
     transform="matrix(0.375,0,0,0.375,-0.99999813,-377.63583)"
     id="layer1"
     inkscape:label="Capa 1"
     style="fill:#f57900;fill-opacity:1">
    <g
       style="fill:#f57900;fill-opacity:1"
       id="_x31_1_alerts_and_states_warning"
       transform="matrix(0.52495376,0,0,0.52495376,-127.33203,212.74148)">
      <path
         id="path336"
         d="M 322.214,1578.899 291.323,1525.4 c -1.673,-2.905 -4.416,-2.905 -6.093,0 l -30.889,53.499 c -1.678,2.905 -0.307,5.28 3.045,5.28 l 61.785,0 c 3.35,10e-4 4.718,-2.374 3.043,-5.28 z m -29.673,-3.205 -8.523,0 0,-8.249 8.523,0 0,8.249 z m 0,-13.47 -8.523,0 0,-19.525 8.523,0 0,19.525 z"
         inkscape:connector-curvature="0"
         style="fill:#f57900;fill-opacity:1" />
    </g>
  </g>
</svg>
