<?xml version="1.0" encoding="UTF-8" standalone="no"?>
<!-- Created with Inkscape (http://www.inkscape.org/) -->

<svg
   xmlns:dc="http://purl.org/dc/elements/1.1/"
   xmlns:cc="http://creativecommons.org/ns#"
   xmlns:rdf="http://www.w3.org/1999/02/22-rdf-syntax-ns#"
   xmlns:svg="http://www.w3.org/2000/svg"
   xmlns="http://www.w3.org/2000/svg"
   xmlns:sodipodi="http://sodipodi.sourceforge.net/DTD/sodipodi-0.dtd"
   xmlns:inkscape="http://www.inkscape.org/namespaces/inkscape"
   id="svg3239"
   height="16"
   width="16"
   version="1.0"
   inkscape:version="0.48+devel r12274"
   sodipodi:docname="gnome-do-symbolic.svg">
  <defs
     id="defs8" />
  <sodipodi:namedview
     pagecolor="#ffffff"
     bordercolor="#666666"
     borderopacity="1"
     objecttolerance="10"
     gridtolerance="10"
     guidetolerance="10"
     inkscape:pageopacity="0"
     inkscape:pageshadow="2"
     inkscape:window-width="1366"
     inkscape:window-height="716"
     id="namedview6"
     showgrid="false"
     inkscape:zoom="13.906433"
     inkscape:cx="2.7166423"
     inkscape:cy="18.2312"
     inkscape:window-x="0"
     inkscape:window-y="28"
     inkscape:window-maximized="1"
     inkscape:current-layer="svg3239" />
  <metadata
     id="metadata13">
    <rdf:RDF>
      <cc:Work
         rdf:about="">
        <dc:format>image/svg+xml</dc:format>
        <dc:type
           rdf:resource="http://purl.org/dc/dcmitype/StillImage" />
        <dc:title></dc:title>
      </cc:Work>
    </rdf:RDF>
  </metadata>
  <path
     inkscape:connector-curvature="0"
     id="path164"
     style="fill:#bebebe;fill-opacity:1;fill-rule:nonzero;stroke:none"
     d="M 7.0212809,10.418285 C 5.6857336,9.8777234 5.0409257,8.357475 5.581719,7.0213548 6.1225122,5.6852348 7.6432026,5.0414698 8.9787499,5.5820312 10.314418,6.1226417 10.959227,7.6428905 10.418434,8.9790107 9.8776409,10.315131 8.3569496,10.958895 7.0212809,10.418285 Z M 12.49143,9.8180534 c 0.28035,-0.6926549 0.929457,-1.069092 1.724846,-1.1859958 0.04019,-0.432108 0.03779,-0.8671566 -0.01,-1.2919376 C 13.409047,7.2368567 12.940122,6.7179399 12.647141,6.0317255 12.355816,5.3414191 12.441206,4.6986487 12.921785,4.0536428 12.649062,3.7238402 12.341471,3.4180798 12.00065,3.1465766 11.363834,3.6377211 10.511818,3.7889366 9.8181422,3.5081722 9.1247533,3.2275237 8.6176556,2.526208 8.5016934,1.7303774 8.0681399,1.6884532 7.6344709,1.6941891 7.209133,1.7414524 7.1056174,2.5390747 6.7200495,3.0603478 6.0305984,3.3536859 5.3428015,3.6429317 4.6446295,3.6894671 4.0001704,3.2092046 3.6703885,3.48117 3.3660601,3.7920681 3.094221,4.1304169 3.5845809,4.7677263 3.789117,5.4896741 3.5087656,6.182329 3.2284142,6.8749838 2.5262207,7.3825817 1.7306269,7.4994035 1.6905986,7.9315763 1.6930106,8.3666132 1.740779,8.7914071 2.5380193,8.8946701 3.0601909,9.2825014 3.3531749,9.9687065 3.644337,10.658947 3.5589408,11.30173 3.0785325,11.946789 c 0.2727211,0.329803 0.5819737,0.631458 0.9211347,0.907066 0.6368521,-0.491115 1.488832,-0.64236 2.182221,-0.361711 0.6936754,0.280765 1.2006454,0.982043 1.3165712,1.777844 0.4353778,0.03789 0.8673857,0.03626 1.2928895,-0.01094 0.1035091,-0.797608 0.4889167,-1.318962 1.1783696,-1.6123 0.6877915,-0.289233 1.3874605,-0.339939 2.0302645,0.144415 0.331437,-0.276056 0.634103,-0.582851 0.90578,-0.921265 -0.490155,-0.637227 -0.694686,-1.359187 -0.414334,-2.0518426" />
</svg>
