<?xml version="1.0" encoding="UTF-8" standalone="no"?>
<svg
   xmlns:dc="http://purl.org/dc/elements/1.1/"
   xmlns:cc="http://creativecommons.org/ns#"
   xmlns:rdf="http://www.w3.org/1999/02/22-rdf-syntax-ns#"
   xmlns:svg="http://www.w3.org/2000/svg"
   xmlns="http://www.w3.org/2000/svg"
   xmlns:sodipodi="http://sodipodi.sourceforge.net/DTD/sodipodi-0.dtd"
   xmlns:inkscape="http://www.inkscape.org/namespaces/inkscape"
   viewBox="0 0 16 16"
   style="enable-background:new"
   id="svg2"
   version="1.1"
   inkscape:version="0.91pre2 r"
   sodipodi:docname="network-wireless-signal-excellent-symbolic.svg">
  <metadata
     id="metadata12">
    <rdf:RDF>
      <cc:Work
         rdf:about="">
        <dc:format>image/svg+xml</dc:format>
        <dc:type
           rdf:resource="http://purl.org/dc/dcmitype/StillImage" />
        <dc:title></dc:title>
      </cc:Work>
    </rdf:RDF>
  </metadata>
  <defs
     id="defs10" />
  <sodipodi:namedview
     pagecolor="#ffffff"
     bordercolor="#666666"
     borderopacity="1"
     objecttolerance="10"
     gridtolerance="10"
     guidetolerance="10"
     inkscape:pageopacity="0"
     inkscape:pageshadow="2"
     inkscape:window-width="1366"
     inkscape:window-height="672"
     id="namedview8"
     showgrid="true"
     inkscape:showpageshadow="false"
     borderlayer="true"
     inkscape:zoom="29.5"
     inkscape:cx="8.850318"
     inkscape:cy="9.4715285"
     inkscape:window-x="-4"
     inkscape:window-y="25"
     inkscape:window-maximized="1"
     inkscape:current-layer="svg2">
    <inkscape:grid
       type="xygrid"
       id="grid4141" />
    <sodipodi:guide
       position="0,16"
       orientation="16,0"
       id="guide4147" />
    <sodipodi:guide
       position="0,0"
       orientation="0,16"
       id="guide4149" />
    <sodipodi:guide
       position="16,0"
       orientation="-16,0"
       id="guide4151" />
    <sodipodi:guide
       position="16,16"
       orientation="0,-16"
       id="guide4153" />
    <sodipodi:guide
       position="2,14"
       orientation="12,0"
       id="guide4155" />
    <sodipodi:guide
       position="2,2"
       orientation="0,12"
       id="guide4157" />
    <sodipodi:guide
       position="14,2"
       orientation="-12,0"
       id="guide4159" />
    <sodipodi:guide
       position="14,14"
       orientation="0,-12"
       id="guide4161" />
  </sodipodi:namedview>
  <path
     style="color:#000000;text-decoration:none;text-decoration-line:none;text-decoration-style:solid;text-decoration-color:#000000;clip-rule:nonzero;display:inline;overflow:visible;visibility:visible;opacity:1;isolation:auto;mix-blend-mode:normal;color-interpolation:sRGB;color-interpolation-filters:linearRGB;solid-color:#000000;solid-opacity:1;fill:#bebebe;fill-opacity:1;fill-rule:nonzero;stroke:none;stroke-width:1;stroke-linecap:butt;stroke-linejoin:miter;stroke-miterlimit:4;stroke-dasharray:none;stroke-dashoffset:0;stroke-opacity:1;color-rendering:auto;image-rendering:auto;shape-rendering:auto;text-rendering:auto;enable-background:accumulate"
     d="M 8 2 C 4.8471804 2 2.019551 3.3201732 0.017578125 5.4316406 L 0.7421875 6.1191406 C 2.5621714 4.1995299 5.1337197 3 8 3 C 10.86628 3 13.437829 4.1995299 15.257812 6.1191406 L 15.982422 5.4316406 C 13.980449 3.3201732 11.15282 2 8 2 z M 8 4 C 5.4201133 4 3.1067605 5.0806683 1.46875 6.8085938 L 2.1953125 7.4960938 C 3.6512836 5.9605824 5.7071264 5 8 5 C 10.292874 5 12.348715 5.9605823 13.804688 7.4960938 L 14.53125 6.8085938 C 12.89324 5.0806684 10.579887 4 8 4 z M 8 6 C 5.9936654 6 4.193904 6.8399386 2.9199219 8.1835938 L 3.6464844 8.8730469 C 4.7384931 7.7210778 6.2800596 7 8 7 C 9.7199404 7 11.261507 7.7210778 12.353516 8.8730469 L 13.080078 8.1835938 C 11.806096 6.8399386 10.006335 6 8 6 z M 8 8 C 6.5668625 8 5.2869448 8.6046509 4.3769531 9.5644531 L 5.1015625 10.251953 C 5.8295684 9.4839731 6.8533724 9 8 9 C 9.1466276 9 10.170431 9.4839731 10.898438 10.251953 L 11.623047 9.5644531 C 10.713055 8.6046509 9.4331375 8 8 8 z M 8 10 C 7.1398759 10 6.3721926 10.363288 5.8261719 10.939453 L 6.5507812 11.625 C 6.9147522 11.241362 7.4269857 11 8 11 C 8.5730143 11 9.0852477 11.241362 9.4492188 11.625 L 10.173828 10.939453 C 9.6278075 10.363288 8.8601241 10 8 10 z M 8 12 C 7.446 12 7 12.446 7 13 C 7 13.554 7.446 14 8 14 C 8.554 14 9 13.554 9 13 C 9 12.446 8.554 12 8 12 z "
     id="rect4163" />
</svg>
