<?xml version="1.0" encoding="UTF-8" standalone="no"?>
<svg
   xmlns:dc="http://purl.org/dc/elements/1.1/"
   xmlns:cc="http://creativecommons.org/ns#"
   xmlns:rdf="http://www.w3.org/1999/02/22-rdf-syntax-ns#"
   xmlns:svg="http://www.w3.org/2000/svg"
   xmlns="http://www.w3.org/2000/svg"
   xmlns:sodipodi="http://sodipodi.sourceforge.net/DTD/sodipodi-0.dtd"
   xmlns:inkscape="http://www.inkscape.org/namespaces/inkscape"
   viewBox="0 0 16 16"
   id="svg2"
   version="1.1"
   inkscape:version="0.91pre2 r"
   sodipodi:docname="emblem-system-symbolic.svg">
  <metadata
     id="metadata16">
    <rdf:RDF>
      <cc:Work
         rdf:about="">
        <dc:format>image/svg+xml</dc:format>
        <dc:type
           rdf:resource="http://purl.org/dc/dcmitype/StillImage" />
        <dc:title></dc:title>
      </cc:Work>
    </rdf:RDF>
  </metadata>
  <defs
     id="defs14" />
  <sodipodi:namedview
     pagecolor="#ffffff"
     bordercolor="#666666"
     borderopacity="1"
     objecttolerance="10"
     gridtolerance="10"
     guidetolerance="10"
     inkscape:pageopacity="0"
     inkscape:pageshadow="2"
     inkscape:window-width="1366"
     inkscape:window-height="672"
     id="namedview12"
     showgrid="true"
     inkscape:showpageshadow="false"
     inkscape:zoom="29.5"
     inkscape:cx="8.1490204"
     inkscape:cy="8.1845305"
     inkscape:window-x="-4"
     inkscape:window-y="25"
     inkscape:window-maximized="1"
     inkscape:current-layer="svg2">
    <inkscape:grid
       type="xygrid"
       id="grid4145" />
    <sodipodi:guide
       position="0,16"
       orientation="16,0"
       id="guide4151" />
    <sodipodi:guide
       position="0,0"
       orientation="0,16"
       id="guide4153" />
    <sodipodi:guide
       position="16,0"
       orientation="-16,0"
       id="guide4155" />
    <sodipodi:guide
       position="16,16"
       orientation="0,-16"
       id="guide4157" />
    <sodipodi:guide
       position="2,14"
       orientation="12,0"
       id="guide4159" />
    <sodipodi:guide
       position="14,2"
       orientation="-12,0"
       id="guide4163" />
    <sodipodi:guide
       position="14,14"
       orientation="0,-12"
       id="guide4165" />
  </sodipodi:namedview>
  <path
     id="rect4167"
     d="M 3,6 C 1.892,6 0.99999997,6.892 0.99999997,8 0.99999997,9.108 1.892,10 3,10 4.108,10 5.0000001,9.108 5.0000001,8 5.0000001,6.892 4.108,6 3,6 Z m 5.0000001,0 c -1.108,0 -2,0.892 -2,2 0,1.108 0.892,2 2,2 C 9.1080001,10 10,9.108 10,8 10,6.892 9.1080001,6 8.0000001,6 Z M 13,6 c -1.108,0 -2,0.892 -2,2 0,1.108 0.892,2 2,2 1.108,0 2,-0.892 2,-2 C 15,6.892 14.108,6 13,6 Z M 3,7 C 3.554,7 4,7.446 4,8 4,8.554 3.554,9 3,9 2.446,9 2,8.554 2,8 2,7.446 2.446,7 3,7 Z m 5.0000001,0 c 0.554,0 1,0.446 1,1 0,0.554 -0.446,1 -1,1 -0.554,0 -1,-0.446 -1,-1 0,-0.554 0.446,-1 1,-1 z M 13,7 c 0.554,0 1,0.446 1,1 0,0.554 -0.446,1 -1,1 -0.554,0 -1,-0.446 -1,-1 0,-0.554 0.446,-1 1,-1 z"
     style="color:#000000;text-decoration:none;text-decoration-line:none;text-decoration-style:solid;text-decoration-color:#000000;clip-rule:nonzero;display:inline;overflow:visible;visibility:visible;opacity:1;isolation:auto;mix-blend-mode:normal;color-interpolation:sRGB;color-interpolation-filters:linearRGB;solid-color:#000000;solid-opacity:1;fill:#bebebe;fill-opacity:1;fill-rule:nonzero;stroke:none;stroke-width:1;stroke-linecap:butt;stroke-linejoin:miter;stroke-miterlimit:4;stroke-dasharray:none;stroke-dashoffset:0;stroke-opacity:1;color-rendering:auto;image-rendering:auto;shape-rendering:auto;text-rendering:auto;enable-background:accumulate"
     inkscape:connector-curvature="0" />
</svg>
