<?xml version="1.0" encoding="UTF-8" standalone="no"?>
<svg
   xmlns:dc="http://purl.org/dc/elements/1.1/"
   xmlns:cc="http://creativecommons.org/ns#"
   xmlns:rdf="http://www.w3.org/1999/02/22-rdf-syntax-ns#"
   xmlns:svg="http://www.w3.org/2000/svg"
   xmlns="http://www.w3.org/2000/svg"
   xmlns:sodipodi="http://sodipodi.sourceforge.net/DTD/sodipodi-0.dtd"
   xmlns:inkscape="http://www.inkscape.org/namespaces/inkscape"
   width="24"
   height="24"
   viewBox="0 0 24 24"
   id="svg10121"
   version="1.1"
   inkscape:version="0.91pre2 r"
   sodipodi:docname="audio-volume-low-zero-panel.svg">
  <metadata
     id="metadata10169">
    <rdf:RDF>
      <cc:Work
         rdf:about="">
        <dc:format>image/svg+xml</dc:format>
        <dc:type
           rdf:resource="http://purl.org/dc/dcmitype/StillImage" />
        <dc:title></dc:title>
      </cc:Work>
    </rdf:RDF>
  </metadata>
  <sodipodi:namedview
     pagecolor="#ffffff"
     bordercolor="#666666"
     borderopacity="1"
     objecttolerance="10"
     gridtolerance="10"
     guidetolerance="10"
     inkscape:pageopacity="0"
     inkscape:pageshadow="2"
     inkscape:window-width="1366"
     inkscape:window-height="672"
     id="namedview10167"
     showgrid="true"
     inkscape:zoom="13.906434"
     inkscape:cx="12.765869"
     inkscape:cy="15.243408"
     inkscape:window-x="-4"
     inkscape:window-y="25"
     inkscape:window-maximized="1"
     inkscape:current-layer="svg10121"
     inkscape:showpageshadow="false"
     borderlayer="true"
     fit-margin-top="0"
     fit-margin-left="0"
     fit-margin-right="0"
     fit-margin-bottom="0">
    <inkscape:grid
       type="xygrid"
       id="grid4154"
       originx="1px"
       originy="1px" />
    <sodipodi:guide
       position="1,23"
       orientation="22,0"
       id="guide4160" />
    <sodipodi:guide
       position="1,1"
       orientation="0,22"
       id="guide4162" />
    <sodipodi:guide
       position="23,1"
       orientation="-22,0"
       id="guide4164" />
    <sodipodi:guide
       position="23,23"
       orientation="0,-22"
       id="guide4166" />
    <sodipodi:guide
       position="4,20"
       orientation="16,0"
       id="guide4168" />
    <sodipodi:guide
       position="4,4"
       orientation="0,16"
       id="guide4170" />
    <sodipodi:guide
       position="20,4"
       orientation="-16,0"
       id="guide4172" />
    <sodipodi:guide
       position="20,20"
       orientation="0,-16"
       id="guide4174" />
  </sodipodi:namedview>
  <defs
     id="defs10123">
    <clipPath
       id="clip1">
      <rect
         width="24"
         height="24"
         id="rect10126"
         x="0"
         y="0" />
    </clipPath>
    <filter
       width="1"
       x="0"
       y="0"
       height="1"
       filterUnits="objectBoundingBox"
       id="alpha"
       style="color-interpolation-filters:sRGB">
      <feColorMatrix
         values="0 0 0 0 1 0 0 0 0 1 0 0 0 0 1 0 0 0 1 0"
         in="SourceGraphic"
         type="matrix"
         id="feColorMatrix10129" />
    </filter>
    <g
       id="surface6"
       clip-path="url(#clip1)">
      <path
         style="fill:#000000;stroke:#000000;stroke-width:0.67400002"
         d="m 3.856491,1022.7489 2.389076,0 c 0.614014,0 1.105226,0.4964 1.105226,1.1043 l 0,9.0169 c 0,0.6079 -0.491212,1.1043 -1.105226,1.1043 l -2.389076,0 c -0.614015,0 -1.105226,-0.4964 -1.105226,-1.1043 l 0,-9.0169 c 0,-0.6079 0.491211,-1.1043 1.105226,-1.1043 z"
         transform="matrix(0.3499,0,0,0.38556,2.59202,-383.52637)"
         id="path10132"
         inkscape:connector-curvature="0" />
      <path
         style="fill:#000000;stroke:#000000;stroke-width:0.491;stroke-linecap:round;stroke-linejoin:round"
         d="m 6.893073,1023.2656 13.619963,-11.7828 0,14.9438 1.663422,2.4214 -1.663422,1.8135 0,14.579 -13.675782,-11.3775 z"
         transform="matrix(0.3499,0,0,0.38556,2.59202,-383.52637)"
         id="path10134"
         inkscape:connector-curvature="0" />
    </g>
    <mask
       id="mask0">
      <g
         style="filter:url(#alpha)"
         id="g10137">
        <rect
           width="24"
           x="0"
           y="0"
           height="24"
           style="fill:#000000;fill-opacity:0.30199998"
           id="rect10139" />
      </g>
    </mask>
  </defs>
  <path
     inkscape:connector-curvature="0"
     style="opacity:0.5;fill:#424854;fill-opacity:1;stroke:none"
     d="m 12.59375,4 -5,5 L 5,9 4,9 l 0,1 0,4 0,1 1,0 2.59375,0 5,5 0.0059,-0.0059 0,0.0059 2.40035,0 0,-1 0,-15 -2.400391,0 0,0.00586 L 12.59375,4 Z M 13.007812,5 14,5 14,19 13.007812,19 8.0078125,14 8,14.007812 8,14 8,9.9921875 8.0078125,10 13.007812,5 Z M 5,10 l 1,0 0,4 -1,0 0,-4 z"
     id="rect4120" />
  <path
     inkscape:connector-curvature="0"
     style="opacity:0.5;fill:#424854;fill-opacity:1;stroke:none"
     d="M 16.246094,7.7539062 15.539062,8.4609375 C 16.442813,9.3646875 17,10.615 17,12 c 0,1.385 -0.557188,2.635312 -1.460938,3.539062 l 0.707032,0.707032 C 17.330594,15.161594 18,13.662 18,12 18,10.338 17.330594,8.8384062 16.246094,7.7539062 Z"
     id="rect4180" />
  <path
     inkscape:connector-curvature="0"
     style="opacity:0.5;fill:#424854;fill-opacity:1;stroke:none"
     d="M 17.662109,6.3378906 16.955078,7.0449219 C 18.220328,8.3101719 19,10.061 19,12 c 0,1.939 -0.779672,3.689828 -2.044922,4.955078 l 0.707031,0.707031 C 19.108109,16.216109 20,14.216 20,12 20,9.784 19.108109,7.7838906 17.662109,6.3378906 Z"
     id="rect4192" />
</svg>
