<?xml version="1.0" encoding="UTF-8" standalone="no"?>
<svg
   xmlns:dc="http://purl.org/dc/elements/1.1/"
   xmlns:cc="http://creativecommons.org/ns#"
   xmlns:rdf="http://www.w3.org/1999/02/22-rdf-syntax-ns#"
   xmlns:svg="http://www.w3.org/2000/svg"
   xmlns="http://www.w3.org/2000/svg"
   xmlns:sodipodi="http://sodipodi.sourceforge.net/DTD/sodipodi-0.dtd"
   xmlns:inkscape="http://www.inkscape.org/namespaces/inkscape"
   width="24"
   height="24"
   viewBox="0 0 24 24"
   id="svg2"
   version="1.1"
   inkscape:version="0.91+devel r"
   sodipodi:docname="dialog-question.svg">
  <metadata
     id="metadata10">
    <rdf:RDF>
      <cc:Work
         rdf:about="">
        <dc:format>image/svg+xml</dc:format>
        <dc:type
           rdf:resource="http://purl.org/dc/dcmitype/StillImage" />
        <dc:title></dc:title>
      </cc:Work>
    </rdf:RDF>
  </metadata>
  <defs
     id="defs8" />
  <sodipodi:namedview
     pagecolor="#ffffff"
     bordercolor="#666666"
     borderopacity="1"
     objecttolerance="10"
     gridtolerance="10"
     guidetolerance="10"
     inkscape:pageopacity="0"
     inkscape:pageshadow="2"
     inkscape:window-width="1366"
     inkscape:window-height="670"
     id="namedview6"
     showgrid="true"
     inkscape:showpageshadow="false"
     borderlayer="true"
     inkscape:zoom="21.454545"
     inkscape:cx="11.414373"
     inkscape:cy="12.195908"
     inkscape:window-x="-4"
     inkscape:window-y="29"
     inkscape:window-maximized="1"
     inkscape:current-layer="svg2"
     fit-margin-top="0"
     fit-margin-left="0"
     fit-margin-right="0"
     fit-margin-bottom="0">
    <inkscape:grid
       type="xygrid"
       id="grid4158"
       originx="1"
       originy="1" />
    <sodipodi:guide
       position="1,23"
       orientation="22,0"
       id="guide4166" />
    <sodipodi:guide
       position="1,1"
       orientation="0,22"
       id="guide4168" />
    <sodipodi:guide
       position="23,1"
       orientation="-22,0"
       id="guide4170" />
    <sodipodi:guide
       position="23,23"
       orientation="0,-22"
       id="guide4172" />
    <sodipodi:guide
       position="4,20"
       orientation="16,0"
       id="guide4174" />
    <sodipodi:guide
       position="4,4"
       orientation="0,16"
       id="guide4176" />
    <sodipodi:guide
       position="20,4"
       orientation="-16,0"
       id="guide4178" />
    <sodipodi:guide
       position="20,20"
       orientation="0,-16"
       id="guide4180" />
  </sodipodi:namedview>
  <path
     style="font-style:normal;font-variant:normal;font-weight:normal;font-stretch:normal;font-size:medium;line-height:125%;font-family:'White Rabbit';-inkscape-font-specification:'White Rabbit';letter-spacing:0px;word-spacing:0px;fill:#424854;fill-opacity:1;stroke:none;stroke-width:1px;stroke-linecap:butt;stroke-linejoin:miter;stroke-opacity:1"
     d="m 12,4 c -4.432,0 -8,3.568 -8,8 0,4.432 3.568,8 8,8 4.432,0 8,-3.568 8,-8 0,-4.432 -3.568,-8 -8,-8 z m 0,1 c 3.878,0 7,3.122 7,7 0,3.878 -3.122,7 -7,7 C 8.122,19 5,15.878 5,12 5,8.122 8.122,5 12,5 Z m -1.523437,1.6660156 c -0.6095244,0 -1.142467,0.228404 -1.5996099,0.6855469 -0.4571429,0.4571429 -0.6855469,0.9920386 -0.6855469,1.6015625 0,0.2031745 0.076135,0.3808221 0.2285157,0.5332031 0.1523809,0.152381 0.3300285,0.2285157 0.5332031,0.2285157 0.2031746,-1e-7 0.3808221,-0.076135 0.5332031,-0.2285157 0.152381,-0.152381 0.2285157,-0.3300286 0.2285157,-0.5332031 0,-0.2031746 0.076135,-0.3808221 0.2285156,-0.5332031 C 10.09574,8.2675409 10.273388,8.1914062 10.476563,8.1914062 l 3.046875,0 c 0.203174,0 0.380821,0.076135 0.533203,0.2285157 0.15238,0.152381 0.228515,0.3300285 0.228515,0.5332031 l 0,1.1875 -2.818359,2.849609 c -0.152381,0.152381 -0.228516,0.330029 -0.228516,0.533204 0,0.203174 0.07613,0.380822 0.228516,0.533203 0.152381,0.152381 0.330028,0.228515 0.533203,0.228515 0.203175,0 0.380822,-0.07613 0.533203,-0.228515 l 3.046875,-3.046875 c 0.152381,-0.152381 0.228516,-0.330029 0.228516,-0.533203 l 0,-1.523438 c 0,-0.6095239 -0.228404,-1.1444196 -0.685547,-1.6015625 C 14.665904,6.8944196 14.132962,6.6660156 13.523438,6.6660156 l -3.046875,0 z M 12,15.808594 c -0.203175,0 -0.380822,0.07809 -0.533203,0.230468 -0.152381,0.152382 -0.228516,0.330029 -0.228516,0.533204 0,0.203174 0.07613,0.380822 0.228516,0.533203 0.152381,0.152381 0.330028,0.228515 0.533203,0.228515 0.203175,0 0.380822,-0.07613 0.533203,-0.228515 0.152381,-0.152381 0.228516,-0.330029 0.228516,-0.533203 0,-0.203175 -0.07613,-0.380822 -0.228516,-0.533204 C 12.380822,15.886682 12.203175,15.808594 12,15.808594 Z"
     id="path4171"
     inkscape:connector-curvature="0" />
</svg>
