<?xml version="1.0" encoding="UTF-8" standalone="no"?>
<!-- Created with Inkscape (http://www.inkscape.org/) -->

<svg
   xmlns:dc="http://purl.org/dc/elements/1.1/"
   xmlns:cc="http://creativecommons.org/ns#"
   xmlns:rdf="http://www.w3.org/1999/02/22-rdf-syntax-ns#"
   xmlns:svg="http://www.w3.org/2000/svg"
   xmlns="http://www.w3.org/2000/svg"
   xmlns:sodipodi="http://sodipodi.sourceforge.net/DTD/sodipodi-0.dtd"
   xmlns:inkscape="http://www.inkscape.org/namespaces/inkscape"
   width="24"
   height="24"
   id="svg3760"
   version="1.1"
   inkscape:version="0.91+devel r"
   sodipodi:docname="nm-device-wired-secure.svg">
  <defs
     id="defs3762" />
  <sodipodi:namedview
     id="base"
     pagecolor="#ffffff"
     bordercolor="#666666"
     borderopacity="1.0"
     inkscape:pageopacity="0.0"
     inkscape:pageshadow="2"
     inkscape:zoom="16.485508"
     inkscape:cx="7.4077006"
     inkscape:cy="12.878198"
     inkscape:document-units="px"
     inkscape:current-layer="layer1"
     showgrid="true"
     fit-margin-top="0"
     fit-margin-left="0"
     fit-margin-right="0"
     fit-margin-bottom="0"
     inkscape:window-width="1366"
     inkscape:window-height="670"
     inkscape:window-x="-4"
     inkscape:window-y="29"
     inkscape:window-maximized="1"
     inkscape:showpageshadow="false"
     showguides="false">
    <sodipodi:guide
       position="1,23"
       orientation="22,0"
       id="guide4116" />
    <sodipodi:guide
       position="1,1"
       orientation="0,22"
       id="guide4118" />
    <sodipodi:guide
       position="23,1"
       orientation="-22,0"
       id="guide4120" />
    <sodipodi:guide
       position="23,23"
       orientation="0,-22"
       id="guide4122" />
    <sodipodi:guide
       position="3,21"
       orientation="18,0"
       id="guide4124" />
    <sodipodi:guide
       position="3,3"
       orientation="0,18"
       id="guide4126" />
    <sodipodi:guide
       position="21,3"
       orientation="-18,0"
       id="guide4128" />
    <sodipodi:guide
       position="21,21"
       orientation="0,-18"
       id="guide4130" />
    <sodipodi:guide
       position="4,20"
       orientation="16,0"
       id="guide4132" />
    <sodipodi:guide
       position="4,4"
       orientation="0,16"
       id="guide4134" />
    <sodipodi:guide
       position="20,4"
       orientation="-16,0"
       id="guide4136" />
    <sodipodi:guide
       position="20,20"
       orientation="0,-16"
       id="guide4138" />
    <inkscape:grid
       type="xygrid"
       id="grid4140"
       originx="0.99999582"
       originy="1.0000027" />
  </sodipodi:namedview>
  <metadata
     id="metadata3765">
    <rdf:RDF>
      <cc:Work
         rdf:about="">
        <dc:format>image/svg+xml</dc:format>
        <dc:type
           rdf:resource="http://purl.org/dc/dcmitype/StillImage" />
        <dc:title></dc:title>
      </cc:Work>
    </rdf:RDF>
  </metadata>
  <g
     inkscape:label="Capa 1"
     inkscape:groupmode="layer"
     id="layer1"
     transform="translate(-552.72253,-582.11926)">
    <path
       id="rect4161"
       d="m 556.72253,586.11926 0,10 0,1 1,0 4,0 1,1 3,0 1,-1 0,-1 -9,0 0,-9 14,0 0,8 1,0 0,-9 -15,0 z m 11,11 0,2 -11,0 0,1 11,0 0,2 1,0 3,0 0,-1 -3,0 0,-3 3,0 0,-1 -3,0 z m 2,2 0,1 3,0 0,-1 z m -7,2 c -0.554,0 -1,0.446 -1,1 l 5,0 c 0,-0.554 -0.446,-1 -1,-1 z"
       style="opacity:1;fill:#424854;fill-opacity:1;stroke:none;stroke-width:0.1;stroke-miterlimit:4;stroke-dasharray:none;stroke-opacity:1"
       inkscape:connector-curvature="0"
       sodipodi:nodetypes="cccccccccccccccccccccccccccccccccccccsccss" />
    <path
       sodipodi:nodetypes="ssccccccssssccssccccc"
       inkscape:connector-curvature="0"
       style="color:#000000;text-decoration:none;text-decoration-line:none;text-decoration-style:solid;text-decoration-color:#000000;clip-rule:nonzero;display:inline;overflow:visible;visibility:visible;opacity:1;isolation:auto;mix-blend-mode:normal;color-interpolation:sRGB;color-interpolation-filters:linearRGB;solid-color:#000000;solid-opacity:1;fill:#f9832d;fill-opacity:1;fill-rule:nonzero;stroke:none;stroke-width:1;stroke-linecap:butt;stroke-linejoin:miter;stroke-miterlimit:4;stroke-dasharray:none;stroke-dashoffset:0;stroke-opacity:1;color-rendering:auto;image-rendering:auto;shape-rendering:auto;text-rendering:auto;enable-background:accumulate"
       d="m 564.72253,588.11926 c -1.108,0 -2,0.892 -2,2 l 0,2 -1,0 0,3 6,0 0,-3 -1,0 0,-2 c 0,-1.108 -0.892,-2 -2,-2 z m 0,1 c 0.554,0 1,0.446 1,1 l 0,2 -2,0 0,-2 c 0,-0.554 0.446,-1 1,-1 z m -2,4 4,0 0,1 -4,0 z"
       id="rect4177-0" />
  </g>
</svg>
