<?xml version="1.0" encoding="UTF-8" standalone="no"?>
<svg
   xmlns:dc="http://purl.org/dc/elements/1.1/"
   xmlns:cc="http://creativecommons.org/ns#"
   xmlns:rdf="http://www.w3.org/1999/02/22-rdf-syntax-ns#"
   xmlns:svg="http://www.w3.org/2000/svg"
   xmlns="http://www.w3.org/2000/svg"
   xmlns:sodipodi="http://sodipodi.sourceforge.net/DTD/sodipodi-0.dtd"
   xmlns:inkscape="http://www.inkscape.org/namespaces/inkscape"
   width="24"
   viewBox="0 0 24 24.000004"
   height="24.000004"
   id="svg2"
   version="1.1"
   inkscape:version="0.91+devel r"
   sodipodi:docname="steam_tray_mono.svg">
  <metadata
     id="metadata28">
    <rdf:RDF>
      <cc:Work
         rdf:about="">
        <dc:format>image/svg+xml</dc:format>
        <dc:type
           rdf:resource="http://purl.org/dc/dcmitype/StillImage" />
        <dc:title></dc:title>
      </cc:Work>
    </rdf:RDF>
  </metadata>
  <sodipodi:namedview
     pagecolor="#ffffff"
     bordercolor="#666666"
     borderopacity="1"
     objecttolerance="10"
     gridtolerance="10"
     guidetolerance="10"
     inkscape:pageopacity="0"
     inkscape:pageshadow="2"
     inkscape:window-width="1366"
     inkscape:window-height="670"
     id="namedview26"
     showgrid="true"
     inkscape:showpageshadow="false"
     borderlayer="true"
     inkscape:zoom="10.727273"
     inkscape:cx="0.55400909"
     inkscape:cy="15.666936"
     inkscape:window-x="-4"
     inkscape:window-y="29"
     inkscape:window-maximized="1"
     inkscape:current-layer="svg2"
     fit-margin-top="0"
     fit-margin-left="0"
     fit-margin-right="0"
     fit-margin-bottom="0">
    <inkscape:grid
       type="xygrid"
       id="grid4157"
       originx="0.99999982"
       originy="1.0000037" />
    <sodipodi:guide
       position="0.99999982,23.000004"
       orientation="22,0"
       id="guide4163" />
    <sodipodi:guide
       position="0.99999982,1.0000037"
       orientation="0,22"
       id="guide4165" />
    <sodipodi:guide
       position="23,1.0000037"
       orientation="-22,0"
       id="guide4167" />
    <sodipodi:guide
       position="23,23.000004"
       orientation="0,-22"
       id="guide4169" />
    <sodipodi:guide
       position="3.9999998,20.000004"
       orientation="16,0"
       id="guide4171" />
    <sodipodi:guide
       position="3.9999998,4.0000037"
       orientation="0,16"
       id="guide4173" />
    <sodipodi:guide
       position="20,4.0000037"
       orientation="-16,0"
       id="guide4175" />
    <sodipodi:guide
       position="20,20.000004"
       orientation="0,-16"
       id="guide4177" />
  </sodipodi:namedview>
  <defs
     id="defs4" />
  <path
     style="fill:#424854;fill-opacity:1"
     d="m 12.021755,3.9999802 c 0.9531,0 1.67951,0.11679 2.56556,0.41261 2.60974,0.8713 4.5196,2.94572 5.23338,5.6841198 0.16766,0.64327 0.17931,0.76684 0.17931,1.90718 0,1.14035 -0.0117,1.26392 -0.17931,1.90719 -0.59791,2.29389 -2.00944,4.10092 -4.05053,5.18534 -0.64474,0.34255 -1.65378,0.68574 -2.39562,0.81476 -0.6911,0.12019 -2.07928,0.11801 -2.75729,-0.004 -0.60916,-0.10989 -1.6405502,-0.4495 -2.1730002,-0.71549 -1.55587,-0.77725 -2.95065,-2.20216 -3.67576,-3.75525 -0.2626,-0.56247 -0.47742,-1.16805 -0.43088,-1.21456 0.0157,-0.0157 0.47689,0.15681 1.02485,0.38329 0.54797,0.22649 1.19718,0.4949 1.44264,0.59649 l 0.44623,0.18466 0.14118,0.38691 c 0.10731,0.29408 0.23279,0.47829 0.52358,0.76863 0.51973,0.51894 0.92384,0.6741 1.66526,0.63948 0.4563602,-0.0213 0.5876002,-0.0545 0.9241502,-0.2341 0.69052,-0.36854 1.10747,-0.99007 1.18324,-1.76356 l 0.0389,-0.39687 1.44078,-0.93796 c 1.38451,-0.90135 1.45924,-0.94109 1.91478,-1.01857 0.6622,-0.11262 1.31467,-0.43389 1.71435,-0.84406 0.5851,-0.60047 0.85379,-1.26609 0.85511,-2.1181298 0.003,-2.19767 -2.3223,-3.59495 -4.30913,-2.58886 -0.7982,0.4042 -1.4645,1.35713 -1.55165,2.21935 -0.0397,0.39293 -0.0626,0.43435 -1.00354,1.8133798 l -0.9629602,1.41134 -0.45533,0.0385 c -0.29403,0.0249 -0.59165,0.0996 -0.84006,0.21104 l -0.38473,0.17255 -2.07259,-0.83635 -2.07268,-0.83634 0.0395,-0.37519 c 0.0629,-0.59762 0.34245,-1.6416998 0.59876,-2.2358498 0.92083,-2.13464 2.63919,-3.72135 4.81794,-4.44876 0.8860502,-0.29582 1.6124602,-0.4126 2.5655502,-0.4126 z m 2.64172,3.77128 c 0.79777,-0.0196 1.59283,0.41844 1.98097,1.23117 0.13975,0.29261 0.16427,0.42786 0.16397,0.90669 -3e-4,0.4987598 -0.0214,0.6043698 -0.18518,0.9282898 -0.23002,0.45491 -0.68279,0.86931 -1.13397,1.038 -0.4534,0.16952 -1.12521,0.16836 -1.57052,-0.003 -0.43858,-0.16851 -0.90887,-0.62261 -1.12683,-1.08813 -0.14929,-0.31883 -0.1757,-0.45501 -0.1757,-0.9066898 0,-0.6764 0.18625,-1.09392 0.69565,-1.55916 0.39328,-0.35918 0.87295,-0.53568 1.35161,-0.54744 z m 0.0509,0.63674 c -0.24266,-6.6e-4 -0.48447,0.0452 -0.65899,0.13766 -1.10785,0.58715 -1.11782,2.1179698 -0.0174,2.6742598 0.68644,0.34701 1.54514,0.10608 1.9491,-0.54685 0.45507,-0.7355398 0.17524,-1.7118998 -0.60873,-2.1238898 -0.17781,-0.0934 -0.42131,-0.14053 -0.66398,-0.14118 z M 9.4561648,13.3186 c 0.9722202,-8.3e-4 1.6848602,0.71261 1.6881402,1.69008 0.002,0.67397 -0.31698,1.18113 -0.94487,1.50122 -0.5155602,0.26284 -1.2516702,0.19593 -1.7131702,-0.15583 -0.23387,-0.17826 -0.56755,-0.58361 -0.51976,-0.63137 0.0163,-0.0163 0.30644,0.083 0.64481,0.22062 0.68979,0.28047 0.99095,0.30879 1.38397,0.13043 0.4961902,-0.22517 0.7926902,-0.85087 0.6514602,-1.37498 -0.13845,-0.51381 -0.48276,-0.77075 -1.6035702,-1.19658 -0.26531,-0.1008 -0.0799,-0.18316 0.41299,-0.18359 z"
     id="path4154"
     inkscape:connector-curvature="0"
     sodipodi:nodetypes="sssssssssscscccsssccssssssscccccccssssscsssssssscssssccsscsssscc" />
</svg>
