<?xml version="1.0" encoding="UTF-8" standalone="no"?>
<svg
   xmlns:dc="http://purl.org/dc/elements/1.1/"
   xmlns:cc="http://creativecommons.org/ns#"
   xmlns:rdf="http://www.w3.org/1999/02/22-rdf-syntax-ns#"
   xmlns:svg="http://www.w3.org/2000/svg"
   xmlns="http://www.w3.org/2000/svg"
   xmlns:sodipodi="http://sodipodi.sourceforge.net/DTD/sodipodi-0.dtd"
   xmlns:inkscape="http://www.inkscape.org/namespaces/inkscape"
   width="24"
   viewBox="0 0 24 24"
   height="24"
   id="svg2"
   version="1.1"
   inkscape:version="0.91+devel r"
   sodipodi:docname="user-offline-panel.svg">
  <metadata
     id="metadata14">
    <rdf:RDF>
      <cc:Work
         rdf:about="">
        <dc:format>image/svg+xml</dc:format>
        <dc:type
           rdf:resource="http://purl.org/dc/dcmitype/StillImage" />
        <dc:title></dc:title>
      </cc:Work>
    </rdf:RDF>
  </metadata>
  <defs
     id="defs12" />
  <sodipodi:namedview
     pagecolor="#ffffff"
     bordercolor="#666666"
     borderopacity="1"
     objecttolerance="10"
     gridtolerance="10"
     guidetolerance="10"
     inkscape:pageopacity="0"
     inkscape:pageshadow="2"
     inkscape:window-width="1366"
     inkscape:window-height="670"
     id="namedview10"
     showgrid="true"
     inkscape:showpageshadow="false"
     borderlayer="true"
     showguides="true"
     inkscape:zoom="23.818182"
     inkscape:cx="12"
     inkscape:cy="12"
     inkscape:window-x="-4"
     inkscape:window-y="29"
     inkscape:window-maximized="1"
     inkscape:current-layer="svg2"
     fit-margin-top="0"
     fit-margin-left="0"
     fit-margin-right="0"
     fit-margin-bottom="0">
    <inkscape:grid
       type="xygrid"
       id="grid4143"
       originx="1"
       originy="1" />
    <sodipodi:guide
       position="1,23"
       orientation="22,0"
       id="guide4149" />
    <sodipodi:guide
       position="1,1"
       orientation="0,22"
       id="guide4151" />
    <sodipodi:guide
       position="23,1"
       orientation="-22,0"
       id="guide4153" />
    <sodipodi:guide
       position="23,23"
       orientation="0,-22"
       id="guide4155" />
    <sodipodi:guide
       position="4,20"
       orientation="16,0"
       id="guide4157" />
    <sodipodi:guide
       position="4,4"
       orientation="0,16"
       id="guide4159" />
    <sodipodi:guide
       position="20,4"
       orientation="-16,0"
       id="guide4161" />
    <sodipodi:guide
       position="20,20"
       orientation="0,-16"
       id="guide4163" />
  </sodipodi:namedview>
  <path
     style="opacity:1;fill:#f92d36;fill-opacity:1;stroke:none"
     d="m 4,4 0,1 0,9 0,1 0,1 8,0 0,3 0,1 0.04687,0 0.652344,0 0.01172,0 4,-4 L 20,16 20,15 20,13.492188 20,4 5,4 4,4 Z m 1,1 14,0 0,9 0,1 L 5,15 5,14 5,5 Z M 9.7070312,7 9,7.7070312 11.292969,10 9,12.292969 9.7070312,13 12,10.707031 14.292969,13 15,12.292969 12.707031,10 15,7.7070312 14.292969,7 12,9.2929688 9.7070312,7 Z M 13,16 15.292969,16 13,18.292969 13,16 Z"
     id="rect4162"
     inkscape:connector-curvature="0" />
</svg>
