<?xml version="1.0" encoding="UTF-8" standalone="no"?>
<svg
   xmlns:dc="http://purl.org/dc/elements/1.1/"
   xmlns:cc="http://creativecommons.org/ns#"
   xmlns:rdf="http://www.w3.org/1999/02/22-rdf-syntax-ns#"
   xmlns:svg="http://www.w3.org/2000/svg"
   xmlns="http://www.w3.org/2000/svg"
   xmlns:sodipodi="http://sodipodi.sourceforge.net/DTD/sodipodi-0.dtd"
   xmlns:inkscape="http://www.inkscape.org/namespaces/inkscape"
   viewBox="0 0 16 16.0176"
   id="svg2"
   version="1.1"
   inkscape:version="0.91pre2 r"
   sodipodi:docname="preferences-system-symbolic.svg">
  <metadata
     id="metadata14">
    <rdf:RDF>
      <cc:Work
         rdf:about="">
        <dc:format>image/svg+xml</dc:format>
        <dc:type
           rdf:resource="http://purl.org/dc/dcmitype/StillImage" />
        <dc:title></dc:title>
      </cc:Work>
    </rdf:RDF>
  </metadata>
  <defs
     id="defs12" />
  <sodipodi:namedview
     pagecolor="#ffffff"
     bordercolor="#666666"
     borderopacity="1"
     objecttolerance="10"
     gridtolerance="10000"
     guidetolerance="10"
     inkscape:pageopacity="0"
     inkscape:pageshadow="2"
     inkscape:window-width="1366"
     inkscape:window-height="672"
     id="namedview10"
     showgrid="true"
     inkscape:showpageshadow="false"
     borderlayer="true"
     inkscape:zoom="31.424419"
     inkscape:cx="13.764949"
     inkscape:cy="7.7962351"
     inkscape:window-x="-4"
     inkscape:window-y="25"
     inkscape:window-maximized="1"
     inkscape:current-layer="svg2">
    <inkscape:grid
       type="xygrid"
       id="grid4143" />
    <sodipodi:guide
       position="8.0550813e-15,16"
       orientation="15.999999,0"
       id="guide4149" />
    <sodipodi:guide
       position="8.0550813e-15,8.9416499e-07"
       orientation="0,16"
       id="guide4151" />
    <sodipodi:guide
       position="16,8.9416499e-07"
       orientation="-15.999999,0"
       id="guide4153" />
    <sodipodi:guide
       position="16,16"
       orientation="0,-16"
       id="guide4155" />
    <sodipodi:guide
       position="2,14"
       orientation="11.999999,0"
       id="guide4157" />
    <sodipodi:guide
       position="2,2.0000008"
       orientation="0,12"
       id="guide4159" />
    <sodipodi:guide
       position="14,2.0000008"
       orientation="-11.999999,0"
       id="guide4161" />
    <sodipodi:guide
       position="14,14"
       orientation="0,-12"
       id="guide4163" />
  </sodipodi:namedview>
  <path
     style="color:#000000;text-decoration:none;text-decoration-line:none;text-decoration-style:solid;text-decoration-color:#000000;clip-rule:nonzero;display:inline;overflow:visible;visibility:visible;opacity:1;isolation:auto;mix-blend-mode:normal;color-interpolation:sRGB;color-interpolation-filters:linearRGB;solid-color:#000000;solid-opacity:1;fill:#bebebe;fill-opacity:1;fill-rule:nonzero;stroke:none;stroke-width:1;stroke-linecap:butt;stroke-linejoin:miter;stroke-miterlimit:4;stroke-dasharray:none;stroke-dashoffset:0;stroke-opacity:1;color-rendering:auto;image-rendering:auto;shape-rendering:auto;text-rendering:auto;enable-background:accumulate"
     d="M 10.5 2.0175781 C 9.2861399 2.0175781 8.2809777 2.8735065 8.0507812 4.0175781 L 2 4.0175781 L 2 5.0175781 L 8.0507812 5.0175781 C 8.2809777 6.1616498 9.2861399 7.0175781 10.5 7.0175781 C 11.71386 7.0175781 12.719022 6.1616498 12.949219 5.0175781 L 14 5.0175781 L 14 4.0175781 L 12.949219 4.0175781 C 12.719022 2.8735065 11.71386 2.0175781 10.5 2.0175781 z M 10.5 3.0175781 C 11.331 3.0175781 12 3.6865781 12 4.5175781 C 12 5.3485781 11.331 6.0175781 10.5 6.0175781 C 9.6690002 6.0175781 9 5.3485781 9 4.5175781 C 9 3.6865781 9.6690002 3.0175781 10.5 3.0175781 z M 5.5 9.0175781 C 4.2861397 9.0175781 3.2809777 9.8735065 3.0507812 11.017578 L 2 11.017578 L 2 12.017578 L 3.0507812 12.017578 C 3.2809777 13.16165 4.2861397 14.017578 5.5 14.017578 C 6.7138607 14.017578 7.7190223 13.16165 7.9492188 12.017578 L 14 12.017578 L 14 11.017578 L 7.9492188 11.017578 C 7.7190223 9.8735065 6.7138607 9.0175781 5.5 9.0175781 z M 5.5 10.017578 C 6.3310004 10.017578 7 10.686578 7 11.517578 C 7 12.348578 6.3310004 13.017578 5.5 13.017578 C 4.669 13.017578 4 12.348578 4 11.517578 C 4 10.686578 4.669 10.017578 5.5 10.017578 z "
     id="rect4172" />
</svg>
