<?xml version="1.0" encoding="UTF-8" standalone="no"?>
<svg
   xmlns:dc="http://purl.org/dc/elements/1.1/"
   xmlns:cc="http://creativecommons.org/ns#"
   xmlns:rdf="http://www.w3.org/1999/02/22-rdf-syntax-ns#"
   xmlns:svg="http://www.w3.org/2000/svg"
   xmlns="http://www.w3.org/2000/svg"
   xmlns:sodipodi="http://sodipodi.sourceforge.net/DTD/sodipodi-0.dtd"
   xmlns:inkscape="http://www.inkscape.org/namespaces/inkscape"
   viewBox="0 0 16 16.0176"
   id="svg2"
   version="1.1"
   inkscape:version="0.91pre2 r"
   sodipodi:docname="document-properties.svg">
  <metadata
     id="metadata14">
    <rdf:RDF>
      <cc:Work
         rdf:about="">
        <dc:format>image/svg+xml</dc:format>
        <dc:type
           rdf:resource="http://purl.org/dc/dcmitype/StillImage" />
        <dc:title />
      </cc:Work>
    </rdf:RDF>
  </metadata>
  <defs
     id="defs12" />
  <sodipodi:namedview
     pagecolor="#ffffff"
     bordercolor="#666666"
     borderopacity="1"
     objecttolerance="10"
     gridtolerance="10"
     guidetolerance="10"
     inkscape:pageopacity="0"
     inkscape:pageshadow="2"
     inkscape:window-width="1366"
     inkscape:window-height="672"
     id="namedview10"
     showgrid="true"
     inkscape:showpageshadow="false"
     borderlayer="true"
     inkscape:zoom="29.467587"
     inkscape:cx="-1.5833415"
     inkscape:cy="8.6540311"
     inkscape:window-x="-4"
     inkscape:window-y="25"
     inkscape:window-maximized="1"
     inkscape:current-layer="svg2">
    <inkscape:grid
       type="xygrid"
       id="grid4143" />
    <sodipodi:guide
       position="8.0550813e-15,16"
       orientation="15.999999,0"
       id="guide4149" />
    <sodipodi:guide
       position="8.0550813e-15,8.9416499e-07"
       orientation="0,16"
       id="guide4151" />
    <sodipodi:guide
       position="16,8.9416499e-07"
       orientation="-15.999999,0"
       id="guide4153" />
    <sodipodi:guide
       position="16,16"
       orientation="0,-16"
       id="guide4155" />
    <sodipodi:guide
       position="2,14"
       orientation="11.999999,0"
       id="guide4157" />
    <sodipodi:guide
       position="2,2.0000008"
       orientation="0,12"
       id="guide4159" />
    <sodipodi:guide
       position="14,2.0000008"
       orientation="-11.999999,0"
       id="guide4161" />
    <sodipodi:guide
       position="14,14"
       orientation="0,-12"
       id="guide4163" />
  </sodipodi:namedview>
  <path
     style="color:#000000;text-decoration:none;text-decoration-line:none;text-decoration-style:solid;text-decoration-color:#000000;clip-rule:nonzero;display:inline;overflow:visible;visibility:visible;opacity:1;isolation:auto;mix-blend-mode:normal;color-interpolation:sRGB;color-interpolation-filters:linearRGB;solid-color:#000000;solid-opacity:1;fill:#424854;fill-opacity:1;fill-rule:nonzero;stroke:none;stroke-width:1;stroke-linecap:butt;stroke-linejoin:miter;stroke-miterlimit:4;stroke-dasharray:none;stroke-dashoffset:0;stroke-opacity:1;color-rendering:auto;image-rendering:auto;shape-rendering:auto;text-rendering:auto;enable-background:accumulate"
     d="M 3 2.0175781 L 3 4.109375 C 2.4180774 4.3153807 2 4.8633379 2 5.5175781 C 2 6.1718183 2.4180774 6.7197755 3 6.9257812 L 3 14.017578 L 4 14.017578 L 4 6.9257812 C 4.5819226 6.7197755 5 6.1718183 5 5.5175781 C 5 4.8633379 4.5819226 4.3153807 4 4.109375 L 4 2.0175781 L 3 2.0175781 z M 9 2.0175781 L 9 3.109375 C 8.4180774 3.3153807 8 3.8633379 8 4.5175781 C 8 5.1718183 8.4180774 5.7197755 9 5.9257812 L 9 8.0175781 L 10 8.0175781 L 10 5.9257812 C 10.581922 5.7197755 11 5.1718183 11 4.5175781 C 11 3.8633379 10.581922 3.3153807 10 3.109375 L 10 2.0175781 L 9 2.0175781 z M 12 2.0175781 L 12 8.109375 C 11.418077 8.3153807 11 8.8633382 11 9.5175781 C 11 10.171818 11.418077 10.719776 12 10.925781 L 12 14.017578 L 13 14.017578 L 13 10.925781 C 13.581923 10.719776 14 10.171818 14 9.5175781 C 14 8.8633382 13.581923 8.3153807 13 8.109375 L 13 2.0175781 L 12 2.0175781 z M 9.5 4.0175781 C 9.777 4.0175781 10 4.2405781 10 4.5175781 C 10 4.7945781 9.777 5.0175781 9.5 5.0175781 C 9.223 5.0175781 9 4.7945781 9 4.5175781 C 9 4.2405781 9.223 4.0175781 9.5 4.0175781 z M 3.5 5.0175781 C 3.777 5.0175781 4 5.2405781 4 5.5175781 C 4 5.7945781 3.777 6.0175781 3.5 6.0175781 C 3.223 6.0175781 3 5.7945781 3 5.5175781 C 3 5.2405781 3.223 5.0175781 3.5 5.0175781 z M 6 8.0175781 L 6 10.109375 C 5.4180774 10.315381 5 10.863338 5 11.517578 C 5 12.171818 5.4180774 12.719776 6 12.925781 L 6 14.017578 L 7 14.017578 L 7 12.925781 C 7.5819226 12.719776 8 12.171818 8 11.517578 C 8 10.863338 7.5819226 10.315381 7 10.109375 L 7 8.0175781 L 6 8.0175781 z M 12.5 9.0175781 C 12.777 9.0175781 13 9.2405781 13 9.5175781 C 13 9.7945781 12.777 10.017578 12.5 10.017578 C 12.223 10.017578 12 9.7945781 12 9.5175781 C 12 9.2405781 12.223 9.0175781 12.5 9.0175781 z M 6.5 11.017578 C 6.777 11.017578 7 11.240578 7 11.517578 C 7 11.794578 6.777 12.017578 6.5 12.017578 C 6.223 12.017578 6 11.794578 6 11.517578 C 6 11.240578 6.223 11.017578 6.5 11.017578 z "
     id="rect4165" />
</svg>
