<?xml version="1.0" encoding="UTF-8" standalone="no"?>
<!-- Created with Inkscape (http://www.inkscape.org/) -->

<svg
   xmlns:dc="http://purl.org/dc/elements/1.1/"
   xmlns:cc="http://creativecommons.org/ns#"
   xmlns:rdf="http://www.w3.org/1999/02/22-rdf-syntax-ns#"
   xmlns:svg="http://www.w3.org/2000/svg"
   xmlns="http://www.w3.org/2000/svg"
   xmlns:sodipodi="http://sodipodi.sourceforge.net/DTD/sodipodi-0.dtd"
   xmlns:inkscape="http://www.inkscape.org/namespaces/inkscape"
   width="22"
   height="22"
   id="svg3813"
   version="1.1"
   inkscape:version="0.91+devel r"
   sodipodi:docname="distribute-horizontal-equal.svg"
   viewBox="0 0 22 22">
  <defs
     id="defs3815" />
  <sodipodi:namedview
     id="base"
     pagecolor="#ffffff"
     bordercolor="#666666"
     borderopacity="1.0"
     inkscape:pageopacity="0.0"
     inkscape:pageshadow="2"
     inkscape:zoom="32"
     inkscape:cx="5.3846478"
     inkscape:cy="12.062494"
     inkscape:document-units="px"
     inkscape:current-layer="layer1"
     showgrid="true"
     fit-margin-top="0"
     fit-margin-left="0"
     fit-margin-right="0"
     fit-margin-bottom="0"
     inkscape:window-width="2560"
     inkscape:window-height="957"
     inkscape:window-x="-4"
     inkscape:window-y="29"
     inkscape:window-maximized="1"
     inkscape:showpageshadow="false">
    <inkscape:grid
       type="xygrid"
       id="grid4109" />
    <sodipodi:guide
       position="2.0000072,19.999993"
       orientation="18,0"
       id="guide4115" />
    <sodipodi:guide
       position="2.0000072,1.9999929"
       orientation="0,18"
       id="guide4117" />
    <sodipodi:guide
       position="20.000007,1.9999929"
       orientation="-18,0"
       id="guide4119" />
    <sodipodi:guide
       position="20.000007,19.999993"
       orientation="0,-18"
       id="guide4121" />
    <sodipodi:guide
       position="3.0000072,18.999993"
       orientation="16,0"
       id="guide4123" />
    <sodipodi:guide
       position="3.0000072,2.9999929"
       orientation="0,16"
       id="guide4125" />
    <sodipodi:guide
       position="19.000007,2.9999929"
       orientation="-16,0"
       id="guide4127" />
    <sodipodi:guide
       position="19.000007,18.999993"
       orientation="0,-16"
       id="guide4129" />
  </sodipodi:namedview>
  <metadata
     id="metadata3818">
    <rdf:RDF>
      <cc:Work
         rdf:about="">
        <dc:format>image/svg+xml</dc:format>
        <dc:type
           rdf:resource="http://purl.org/dc/dcmitype/StillImage" />
        <dc:title />
      </cc:Work>
    </rdf:RDF>
  </metadata>
  <g
     inkscape:label="Capa 1"
     inkscape:groupmode="layer"
     id="layer1"
     transform="translate(-378.85714,-540.07647)">
    <path
       style="opacity:1;fill:#424854;fill-opacity:1;stroke:none"
       d="M 5.3007812 3 L 3.0078125 5.2929688 L 2.8007812 5.5 L 3.0078125 5.7070312 L 5.3007812 8 L 6.0078125 7.2929688 L 4.7148438 6 L 8 6 L 11.292969 6 L 10 7.2929688 L 10.707031 8 L 13 5.7070312 L 13.207031 5.5 L 13 5.2929688 L 10.707031 3 L 10 3.7070312 L 11.292969 5 L 8 5 L 4.7148438 5 L 6.0078125 3.7070312 L 5.3007812 3 z M 3 8 L 3 9 L 3 17 L 3 19 L 4 19 L 4 17 L 10 17 L 10 9 L 4 9 L 4 8 L 3 8 z M 12 8 L 12 9 L 12 18 L 12 19 L 13 19 L 13 18 L 19 18 L 19 9 L 13 9 L 13 8 L 12 8 z M 4 10 L 9 10 L 9 16 L 4 16 L 4 10 z M 13 10 L 18 10 L 18 17 L 13 17 L 13 10 z "
       transform="translate(378.85714,540.07647)"
       id="path4158" />
  </g>
</svg>
