<?xml version="1.0" encoding="UTF-8" standalone="no"?>
<!-- Created with Inkscape (http://www.inkscape.org/) -->

<svg
   xmlns:dc="http://purl.org/dc/elements/1.1/"
   xmlns:cc="http://creativecommons.org/ns#"
   xmlns:rdf="http://www.w3.org/1999/02/22-rdf-syntax-ns#"
   xmlns:svg="http://www.w3.org/2000/svg"
   xmlns="http://www.w3.org/2000/svg"
   xmlns:sodipodi="http://sodipodi.sourceforge.net/DTD/sodipodi-0.dtd"
   xmlns:inkscape="http://www.inkscape.org/namespaces/inkscape"
   width="22"
   height="22"
   id="svg2"
   version="1.1"
   inkscape:version="0.91pre2 r"
   viewBox="0 0 22 22"
   sodipodi:docname="format-text-subscript.svg">
  <defs
     id="defs4" />
  <sodipodi:namedview
     id="base"
     pagecolor="#ffffff"
     bordercolor="#666666"
     borderopacity="1.0"
     inkscape:pageopacity="0.0"
     inkscape:pageshadow="2"
     inkscape:zoom="17.788374"
     inkscape:cx="19.923434"
     inkscape:cy="14.410016"
     inkscape:document-units="px"
     inkscape:current-layer="layer1"
     showgrid="true"
     inkscape:showpageshadow="false"
     units="px"
     inkscape:window-width="1366"
     inkscape:window-height="673"
     inkscape:window-x="-4"
     inkscape:window-y="24"
     inkscape:window-maximized="1"
     showguides="true">
    <inkscape:grid
       type="xygrid"
       id="grid4120" />
    <sodipodi:guide
       position="2,20.000017"
       orientation="18,0"
       id="guide4126" />
    <sodipodi:guide
       position="2,2.0000174"
       orientation="0,18"
       id="guide4128" />
    <sodipodi:guide
       position="20,2.0000174"
       orientation="-18,0"
       id="guide4130" />
    <sodipodi:guide
       position="20,20.000017"
       orientation="0,-18"
       id="guide4132" />
    <sodipodi:guide
       position="3,19.000017"
       orientation="16,0"
       id="guide4134" />
    <sodipodi:guide
       position="3,3.0000174"
       orientation="0,16"
       id="guide4136" />
    <sodipodi:guide
       position="19,3.0000174"
       orientation="-16,0"
       id="guide4138" />
    <sodipodi:guide
       position="19,19.000017"
       orientation="0,-16"
       id="guide4140" />
    <sodipodi:guide
       position="19,13.000017"
       orientation="-6,0"
       id="guide4199" />
    <sodipodi:guide
       position="19,19.000017"
       orientation="0,-6.0000172"
       id="guide4201" />
  </sodipodi:namedview>
  <metadata
     id="metadata7">
    <rdf:RDF>
      <cc:Work
         rdf:about="">
        <dc:format>image/svg+xml</dc:format>
        <dc:type
           rdf:resource="http://purl.org/dc/dcmitype/StillImage" />
        <dc:title />
      </cc:Work>
    </rdf:RDF>
  </metadata>
  <g
     inkscape:label="Capa 1"
     inkscape:groupmode="layer"
     id="layer1"
     transform="translate(0,-1030.3622)">
    <path
       style="font-style:normal;font-variant:normal;font-weight:normal;font-stretch:normal;font-size:medium;line-height:125%;font-family:serif;-inkscape-font-specification:serif;letter-spacing:0px;word-spacing:0px;fill:#424854;fill-opacity:1;stroke:none;stroke-width:1px;stroke-linecap:butt;stroke-linejoin:miter;stroke-opacity:1"
       d="M 3.0507812 3 L 3.0507812 3.7792969 L 4.2167969 3.7792969 L 7.3886719 8.53125 L 4.2597656 13.095703 L 3.0078125 13.095703 L 3.0078125 13.867188 L 6.6035156 13.867188 L 6.6035156 13.095703 L 5.1992188 13.095703 L 7.8554688 9.2148438 L 10.447266 13.095703 L 9.1503906 13.095703 L 9.1503906 13.867188 L 13.458984 13.867188 L 13.458984 13.095703 L 12.294922 13.095703 L 8.8671875 7.9628906 L 11.742188 3.7792969 L 12.964844 3.7792969 L 12.964844 3 L 9.40625 3 L 9.40625 3.7792969 L 10.802734 3.7792969 L 8.4082031 7.2792969 L 6.0800781 3.7792969 L 7.3613281 3.7792969 L 7.3613281 3 L 3.0507812 3 z M 13.517578 11.818359 L 13.517578 12.324219 L 14.091797 12.324219 L 15.96875 16.931641 L 15.638672 17.769531 C 15.521979 18.059665 15.409966 18.253056 15.302734 18.347656 C 15.198656 18.445456 15.05823 18.494141 14.884766 18.494141 C 14.695533 18.494141 14.556306 18.446163 14.464844 18.351562 C 14.376532 18.260096 14.323607 18.107045 14.304688 17.892578 L 13.859375 17.892578 L 13.859375 18.853516 C 14.017069 18.900716 14.173584 18.937557 14.328125 18.962891 C 14.485819 18.988224 14.638877 19 14.787109 19 C 15.13719 19 15.407223 18.92827 15.599609 18.783203 C 15.791996 18.64127 15.967306 18.373489 16.125 17.982422 L 18.429688 12.324219 L 18.992188 12.324219 L 18.992188 11.818359 L 17.103516 11.818359 L 17.103516 12.324219 L 17.857422 12.324219 L 16.441406 15.783203 L 15.027344 12.324219 L 15.832031 12.324219 L 15.832031 11.818359 L 13.517578 11.818359 z "
       transform="translate(0,1030.3622)"
       id="path4153" />
  </g>
</svg>
