<?xml version="1.0" encoding="UTF-8" standalone="no"?>
<!-- Created with Inkscape (http://www.inkscape.org/) -->

<svg
   xmlns:dc="http://purl.org/dc/elements/1.1/"
   xmlns:cc="http://creativecommons.org/ns#"
   xmlns:rdf="http://www.w3.org/1999/02/22-rdf-syntax-ns#"
   xmlns:svg="http://www.w3.org/2000/svg"
   xmlns="http://www.w3.org/2000/svg"
   xmlns:sodipodi="http://sodipodi.sourceforge.net/DTD/sodipodi-0.dtd"
   xmlns:inkscape="http://www.inkscape.org/namespaces/inkscape"
   width="22"
   height="22"
   id="svg4359"
   version="1.1"
   inkscape:version="0.91pre2 r"
   sodipodi:docname="kdenlive-split-audio.svg">
  <defs
     id="defs4361" />
  <sodipodi:namedview
     id="base"
     pagecolor="#ffffff"
     bordercolor="#666666"
     borderopacity="1.0"
     inkscape:pageopacity="0.0"
     inkscape:pageshadow="2"
     inkscape:zoom="22.627417"
     inkscape:cx="9.4559533"
     inkscape:cy="13.844969"
     inkscape:current-layer="layer1"
     showgrid="true"
     inkscape:grid-bbox="true"
     inkscape:document-units="px"
     inkscape:window-width="1366"
     inkscape:window-height="672"
     inkscape:window-x="-4"
     inkscape:window-y="25"
     inkscape:window-maximized="1"
     inkscape:showpageshadow="false"
     borderlayer="true"
     showguides="true">
    <inkscape:grid
       type="xygrid"
       id="grid4105" />
    <sodipodi:guide
       position="0,22"
       orientation="22,0"
       id="guide4111" />
    <sodipodi:guide
       position="0,0"
       orientation="0,22"
       id="guide4113" />
    <sodipodi:guide
       position="22,0"
       orientation="-22,0"
       id="guide4115" />
    <sodipodi:guide
       position="22,22"
       orientation="0,-22"
       id="guide4117" />
    <sodipodi:guide
       position="21,11"
       orientation="0,-20"
       id="guide4145" />
    <sodipodi:guide
       position="3,19"
       orientation="16,0"
       id="guide4130" />
    <sodipodi:guide
       position="3,3"
       orientation="0,16"
       id="guide4132" />
    <sodipodi:guide
       position="19,3"
       orientation="-16,0"
       id="guide4134" />
    <sodipodi:guide
       position="19,19"
       orientation="0,-16"
       id="guide4136" />
    <sodipodi:guide
       position="3,10.999989"
       orientation="8,0"
       id="guide4140" />
    <sodipodi:guide
       position="3,2.9999886"
       orientation="0,8"
       id="guide4142" />
    <sodipodi:guide
       position="11,2.9999886"
       orientation="-8,0"
       id="guide4144" />
    <sodipodi:guide
       position="3,22"
       orientation="19.000011,0"
       id="guide4152" />
    <sodipodi:guide
       position="3,2.9999886"
       orientation="0,4"
       id="guide4154" />
    <sodipodi:guide
       position="7,2.9999886"
       orientation="-19.000011,0"
       id="guide4156" />
    <sodipodi:guide
       position="7,22"
       orientation="0,-4"
       id="guide4158" />
    <sodipodi:guide
       position="15,22"
       orientation="19,0"
       id="guide4160" />
    <sodipodi:guide
       position="15,3"
       orientation="0,4.0000019"
       id="guide4162" />
    <sodipodi:guide
       position="19.000002,3"
       orientation="-19,0"
       id="guide4164" />
    <sodipodi:guide
       position="19.000002,22"
       orientation="0,-4.0000019"
       id="guide4166" />
  </sodipodi:namedview>
  <metadata
     id="metadata4364">
    <rdf:RDF>
      <cc:Work
         rdf:about="">
        <dc:format>image/svg+xml</dc:format>
        <dc:type
           rdf:resource="http://purl.org/dc/dcmitype/StillImage" />
        <dc:title />
      </cc:Work>
    </rdf:RDF>
  </metadata>
  <g
     id="layer1"
     inkscape:label="Layer 1"
     inkscape:groupmode="layer"
     transform="translate(0,-26)">
    <path
       style="opacity:1;fill:#424854;fill-opacity:1;stroke:none"
       d="M 11.59375 3 L 6.59375 8 L 4 8 L 3 8 L 3 9 L 3 13 L 3 14 L 4 14 L 6.5859375 14 L 7.296875 13.289062 L 7.0078125 13 L 7 13.007812 L 7 13 L 7 8.9921875 L 7.0078125 9 L 12.007812 4 L 13 4 L 13 7.5859375 L 14 6.5859375 L 14 3 L 11.599609 3 L 11.599609 3.0058594 L 11.59375 3 z M 18.292969 3 L 3 18.292969 L 3.7070312 19 L 19 3.7070312 L 18.292969 3 z M 17.318359 6.0957031 L 16.605469 6.8085938 C 17.478126 7.9764385 18 9.4235776 18 11 C 18 12.939 17.220328 14.689828 15.955078 15.955078 L 16.662109 16.662109 C 18.108109 15.216109 19 13.216 19 11 C 19 9.1461445 18.368993 7.4493483 17.318359 6.0957031 z M 15.890625 7.5234375 L 15.171875 8.2421875 C 15.693873 9.0323034 16 9.978168 16 11 C 16 12.385 15.442815 13.635315 14.539062 14.539062 L 15.246094 15.246094 C 16.330594 14.161594 17 12.662 17 11 C 17 9.7006822 16.587367 8.5035006 15.890625 7.5234375 z M 4 9 L 5 9 L 5 13 L 4 13 L 4 9 z M 14 9.4140625 L 13 10.414062 L 13 18 L 12.007812 18 L 8.7109375 14.703125 L 8.0039062 15.410156 L 11.59375 19 L 11.599609 18.994141 L 11.599609 19 L 14 19 L 14 18 L 14 9.4140625 z "
       transform="translate(0,26)"
       id="rect4120" />
  </g>
</svg>
