<?xml version="1.0" encoding="UTF-8" standalone="no"?>
<!-- Created with Inkscape (http://www.inkscape.org/) -->

<svg
   xmlns:dc="http://purl.org/dc/elements/1.1/"
   xmlns:cc="http://creativecommons.org/ns#"
   xmlns:rdf="http://www.w3.org/1999/02/22-rdf-syntax-ns#"
   xmlns:svg="http://www.w3.org/2000/svg"
   xmlns="http://www.w3.org/2000/svg"
   xmlns:sodipodi="http://sodipodi.sourceforge.net/DTD/sodipodi-0.dtd"
   xmlns:inkscape="http://www.inkscape.org/namespaces/inkscape"
   width="22"
   height="22"
   id="svg2"
   version="1.1"
   inkscape:version="0.91pre2 r"
   viewBox="0 0 22 22"
   sodipodi:docname="media-playlist-shuffle.svg">
  <defs
     id="defs4" />
  <sodipodi:namedview
     id="base"
     pagecolor="#ffffff"
     bordercolor="#666666"
     borderopacity="1.0"
     inkscape:pageopacity="0.0"
     inkscape:pageshadow="2"
     inkscape:zoom="16.21875"
     inkscape:cx="9.9455824"
     inkscape:cy="12.802557"
     inkscape:document-units="px"
     inkscape:current-layer="layer1"
     showgrid="true"
     units="px"
     borderlayer="true"
     inkscape:showpageshadow="false"
     inkscape:window-width="1366"
     inkscape:window-height="672"
     inkscape:window-x="-4"
     inkscape:window-y="25"
     inkscape:window-maximized="1"
     showguides="true">
    <sodipodi:guide
       position="2,20.000017"
       orientation="18,0"
       id="guide4066" />
    <sodipodi:guide
       position="2,2.0000174"
       orientation="0,18"
       id="guide4068" />
    <sodipodi:guide
       position="20,2.0000174"
       orientation="-18,0"
       id="guide4070" />
    <sodipodi:guide
       position="20,20.000017"
       orientation="0,-18"
       id="guide4072" />
    <sodipodi:guide
       position="3,19.000017"
       orientation="16,0"
       id="guide4074" />
    <sodipodi:guide
       position="3,3.0000174"
       orientation="0,16"
       id="guide4076" />
    <sodipodi:guide
       position="19,3.0000174"
       orientation="-16,0"
       id="guide4078" />
    <sodipodi:guide
       position="19,19.000017"
       orientation="0,-16"
       id="guide4080" />
    <inkscape:grid
       type="xygrid"
       id="grid4101" />
    <sodipodi:guide
       position="8,19.000017"
       orientation="0,-5"
       id="guide4124" />
    <sodipodi:guide
       position="11,3.0000174"
       orientation="0,4"
       id="guide4241" />
    <sodipodi:guide
       position="7,19.000017"
       orientation="16,0"
       id="guide3391" />
    <sodipodi:guide
       position="7,3.0000174"
       orientation="0,8"
       id="guide3393" />
    <sodipodi:guide
       position="15,3.0000174"
       orientation="-16,0"
       id="guide3395" />
    <sodipodi:guide
       position="15,19.000017"
       orientation="0,-8"
       id="guide3397" />
  </sodipodi:namedview>
  <metadata
     id="metadata7">
    <rdf:RDF>
      <cc:Work
         rdf:about="">
        <dc:format>image/svg+xml</dc:format>
        <dc:type
           rdf:resource="http://purl.org/dc/dcmitype/StillImage" />
        <dc:title />
      </cc:Work>
    </rdf:RDF>
  </metadata>
  <g
     inkscape:label="Capa 1"
     inkscape:groupmode="layer"
     id="layer1"
     transform="translate(0,-1030.3622)">
    <g
       id="layer1-5"
       inkscape:label="Capa 1"
       transform="translate(9.2074013,-0.67559833)" />
    <path
       style="opacity:1;fill:#424854;fill-opacity:1;stroke:none;stroke-width:2.79999995;stroke-miterlimit:4;stroke-dasharray:none;stroke-opacity:0.55026455"
       d="M 18.5 3 L 17.792969 3.7070312 L 20.085938 6 L 16 6 L 16 6.0214844 C 14.843209 6.0214844 13.794181 6.4272215 12.949219 7.0820312 L 13.46875 7.9453125 C 14.158869 7.3767771 15.031729 7.0214844 16 7.0214844 L 16 7 L 20.085938 7 L 17.792969 9.2929688 L 18.5 10 L 21.292969 7.2070312 L 22 6.5 L 21.292969 5.7929688 L 18.5 3 z M 0 6 L 0 7 L 7 7 L 7 7.0214844 C 9.208646 7.0214844 10.98626 8.7942266 10.998047 11 L 11 11 C 11 13.77 13.23 16 16 16 L 20.085938 16 L 17.792969 18.292969 L 18.5 19 L 21.292969 16.207031 L 22 15.5 L 21.292969 14.792969 L 18.5 12 L 17.792969 12.707031 L 20.085938 15 L 16 15 C 13.784 15 12 13.216 12 11 L 11.998047 11 C 11.986362 8.2401274 9.7627165 6.0214844 7 6.0214844 L 7 6 L 0 6 z M 8.5996094 14.666016 C 8.1098056 14.879049 7.5699656 15 7 15 L 0 15 L 0 16 L 7 16 C 7.7586197 16 8.4684288 15.819337 9.1113281 15.519531 L 8.5996094 14.666016 z "
       transform="translate(0,1030.3622)"
       id="rect4162" />
  </g>
</svg>
