<?xml version="1.0" encoding="UTF-8" standalone="no"?>
<!-- Created with Inkscape (http://www.inkscape.org/) -->

<svg
   xmlns:dc="http://purl.org/dc/elements/1.1/"
   xmlns:cc="http://creativecommons.org/ns#"
   xmlns:rdf="http://www.w3.org/1999/02/22-rdf-syntax-ns#"
   xmlns:svg="http://www.w3.org/2000/svg"
   xmlns="http://www.w3.org/2000/svg"
   xmlns:sodipodi="http://sodipodi.sourceforge.net/DTD/sodipodi-0.dtd"
   xmlns:inkscape="http://www.inkscape.org/namespaces/inkscape"
   width="22"
   height="22"
   id="svg4359"
   version="1.1"
   inkscape:version="0.91pre2 r"
   sodipodi:docname="user-group-properties.svg">
  <defs
     id="defs4361" />
  <sodipodi:namedview
     id="base"
     pagecolor="#ffffff"
     bordercolor="#666666"
     borderopacity="1.0"
     inkscape:pageopacity="0.0"
     inkscape:pageshadow="2"
     inkscape:zoom="23.340048"
     inkscape:cx="7.6109939"
     inkscape:cy="11.608917"
     inkscape:current-layer="layer1"
     showgrid="true"
     inkscape:grid-bbox="true"
     inkscape:document-units="px"
     inkscape:window-width="1366"
     inkscape:window-height="665"
     inkscape:window-x="-4"
     inkscape:window-y="25"
     inkscape:window-maximized="1"
     inkscape:showpageshadow="false"
     borderlayer="true"
     showguides="true">
    <inkscape:grid
       type="xygrid"
       id="grid4105" />
    <sodipodi:guide
       position="0,22"
       orientation="22,0"
       id="guide4111" />
    <sodipodi:guide
       position="0,0"
       orientation="0,22"
       id="guide4113" />
    <sodipodi:guide
       position="22,0"
       orientation="-22,0"
       id="guide4115" />
    <sodipodi:guide
       position="22,22"
       orientation="0,-22"
       id="guide4117" />
    <sodipodi:guide
       position="3,19"
       orientation="16,0"
       id="guide4130" />
    <sodipodi:guide
       position="3,3"
       orientation="0,16"
       id="guide4132" />
    <sodipodi:guide
       position="19,3"
       orientation="-16,0"
       id="guide4134" />
    <sodipodi:guide
       position="19,19"
       orientation="0,-16"
       id="guide4136" />
    <sodipodi:guide
       position="3,10.999989"
       orientation="8,0"
       id="guide4140" />
    <sodipodi:guide
       position="3,2.9999886"
       orientation="0,8"
       id="guide4142" />
    <sodipodi:guide
       position="11,2.9999886"
       orientation="-8,0"
       id="guide4144" />
    <sodipodi:guide
       position="3,22"
       orientation="19.000011,0"
       id="guide4152" />
    <sodipodi:guide
       position="3,2.9999886"
       orientation="0,4"
       id="guide4154" />
    <sodipodi:guide
       position="7,2.9999886"
       orientation="-19.000011,0"
       id="guide4156" />
    <sodipodi:guide
       position="7,22"
       orientation="0,-4"
       id="guide4158" />
    <sodipodi:guide
       position="15,22"
       orientation="19,0"
       id="guide4160" />
    <sodipodi:guide
       position="15,3"
       orientation="0,4.0000019"
       id="guide4162" />
    <sodipodi:guide
       position="19.000002,3"
       orientation="-19,0"
       id="guide4164" />
    <sodipodi:guide
       position="19.000002,22"
       orientation="0,-4.0000019"
       id="guide4166" />
  </sodipodi:namedview>
  <metadata
     id="metadata4364">
    <rdf:RDF>
      <cc:Work
         rdf:about="">
        <dc:format>image/svg+xml</dc:format>
        <dc:type
           rdf:resource="http://purl.org/dc/dcmitype/StillImage" />
        <dc:title />
      </cc:Work>
    </rdf:RDF>
  </metadata>
  <g
     id="layer1"
     inkscape:label="Layer 1"
     inkscape:groupmode="layer"
     transform="translate(0,-26)">
    <path
       style="opacity:1;fill:#424854;fill-opacity:0.94117647;stroke:none"
       d="M 14 3 L 14 8.0917969 C 13.418077 8.2978026 13 8.8457598 13 9.5 C 13 10.15424 13.418077 10.702197 14 10.908203 L 14 13 L 15 13 L 15 10.908203 C 15.581923 10.702197 16 10.15424 16 9.5 C 16 8.8457598 15.581923 8.2978026 15 8.0917969 L 15 3 L 14 3 z M 17 3 L 17 5.0917969 C 16.418077 5.2978026 16 5.8457596 16 6.5 C 16 7.1542404 16.418077 7.7021974 17 7.9082031 L 17 13 L 18 13 L 18 7.9082031 C 18.581923 7.7021974 19 7.1542404 19 6.5 C 19 5.8457596 18.581923 5.2978026 18 5.0917969 L 18 3 L 17 3 z M 9 6 C 7.338 6 6 7.338 6 9 C 6 10.662 7.338 12 9 12 C 10.662 12 12 10.662 12 9 C 12 7.338 10.662 6 9 6 z M 17.5 6 C 17.777 6 18 6.2229998 18 6.5 C 18 6.7770002 17.777 7 17.5 7 C 17.223 7 17 6.7770002 17 6.5 C 17 6.2229998 17.223 6 17.5 6 z M 9 7 C 10.108 7 11 7.892 11 9 C 11 10.108 10.108 11 9 11 C 7.892 11 7 10.108 7 9 C 7 7.892 7.892 7 9 7 z M 14.5 9 C 14.777 9 15 9.223 15 9.5 C 15 9.777 14.777 10 14.5 10 C 14.223 10 14 9.777 14 9.5 C 14 9.223 14.223 9 14.5 9 z M 9 13 C 5.676 13 3 15.676 3 19 L 4 19 C 4 16.23 6.23 14 9 14 C 11.77 14 14 16.23 14 19 L 15 19 C 15 15.676 12.324 13 9 13 z "
       transform="translate(0,26)"
       id="rect8602" />
  </g>
</svg>
