<?xml version="1.0" encoding="UTF-8" standalone="no"?>
<!-- Created with Inkscape (http://www.inkscape.org/) -->

<svg
   xmlns:dc="http://purl.org/dc/elements/1.1/"
   xmlns:cc="http://creativecommons.org/ns#"
   xmlns:rdf="http://www.w3.org/1999/02/22-rdf-syntax-ns#"
   xmlns:svg="http://www.w3.org/2000/svg"
   xmlns="http://www.w3.org/2000/svg"
   xmlns:sodipodi="http://sodipodi.sourceforge.net/DTD/sodipodi-0.dtd"
   xmlns:inkscape="http://www.inkscape.org/namespaces/inkscape"
   width="22"
   height="22"
   id="svg4359"
   version="1.1"
   inkscape:version="0.91+devel r"
   sodipodi:docname="view-refresh.svg">
  <defs
     id="defs4361" />
  <sodipodi:namedview
     id="base"
     pagecolor="#ffffff"
     bordercolor="#666666"
     borderopacity="1.0"
     inkscape:pageopacity="0.0"
     inkscape:pageshadow="2"
     inkscape:zoom="11.313709"
     inkscape:cx="16.024472"
     inkscape:cy="4.2950033"
     inkscape:current-layer="layer1"
     showgrid="true"
     inkscape:grid-bbox="true"
     inkscape:document-units="px"
     inkscape:window-width="1366"
     inkscape:window-height="670"
     inkscape:window-x="-4"
     inkscape:window-y="29"
     inkscape:window-maximized="1"
     inkscape:showpageshadow="false"
     borderlayer="true"
     showguides="true">
    <inkscape:grid
       type="xygrid"
       id="grid4105" />
    <sodipodi:guide
       position="0,22"
       orientation="22,0"
       id="guide4111" />
    <sodipodi:guide
       position="0,0"
       orientation="0,22"
       id="guide4113" />
    <sodipodi:guide
       position="22,0"
       orientation="-22,0"
       id="guide4115" />
    <sodipodi:guide
       position="22,22"
       orientation="0,-22"
       id="guide4117" />
    <sodipodi:guide
       position="3,19"
       orientation="16,0"
       id="guide4130" />
    <sodipodi:guide
       position="3,3"
       orientation="0,16"
       id="guide4132" />
    <sodipodi:guide
       position="19,3"
       orientation="-16,0"
       id="guide4134" />
    <sodipodi:guide
       position="19,19"
       orientation="0,-16"
       id="guide4136" />
    <sodipodi:guide
       position="3,10.999989"
       orientation="8,0"
       id="guide4140" />
    <sodipodi:guide
       position="3,2.9999886"
       orientation="0,8"
       id="guide4142" />
    <sodipodi:guide
       position="11,2.9999886"
       orientation="-8,0"
       id="guide4144" />
    <sodipodi:guide
       position="3,22"
       orientation="19.000011,0"
       id="guide4152" />
    <sodipodi:guide
       position="3,2.9999886"
       orientation="0,4"
       id="guide4154" />
    <sodipodi:guide
       position="7,2.9999886"
       orientation="-19.000011,0"
       id="guide4156" />
    <sodipodi:guide
       position="7,22"
       orientation="0,-4"
       id="guide4158" />
    <sodipodi:guide
       position="15,22"
       orientation="19,0"
       id="guide4160" />
    <sodipodi:guide
       position="15,3"
       orientation="0,4.0000019"
       id="guide4162" />
    <sodipodi:guide
       position="19.000002,3"
       orientation="-19,0"
       id="guide4164" />
    <sodipodi:guide
       position="19.000002,22"
       orientation="0,-4.0000019"
       id="guide4166" />
    <sodipodi:guide
       position="5,3"
       orientation="0,14"
       id="guide4137" />
    <sodipodi:guide
       position="19,3"
       orientation="-14,0"
       id="guide4139" />
  </sodipodi:namedview>
  <metadata
     id="metadata4364">
    <rdf:RDF>
      <cc:Work
         rdf:about="">
        <dc:format>image/svg+xml</dc:format>
        <dc:type
           rdf:resource="http://purl.org/dc/dcmitype/StillImage" />
        <dc:title />
      </cc:Work>
    </rdf:RDF>
  </metadata>
  <g
     id="layer1"
     inkscape:label="Layer 1"
     inkscape:groupmode="layer"
     transform="translate(0,-26)">
    <path
       style="opacity:0.3;fill:#424854;fill-opacity:1"
       d="M 11 3 A 8.0000019 8 0 0 0 5.6699219 5.0585938 A 1 1 0 0 1 6 5 A 1 1 0 0 1 6.8027344 5.4042969 A 7.0000019 7 0 0 1 11 4 A 7.0000019 7 0 0 1 18 11 A 7.0000019 7 0 0 1 16.591797 15.197266 L 17.585938 15.529297 A 8.0000019 8 0 0 0 19 11 A 8.0000019 8 0 0 0 11 3 z M 5.0644531 5.6523438 A 8.0000019 8 0 0 0 5.0273438 5.6914062 L 5.0449219 5.7070312 A 1 1 0 0 1 5.0644531 5.6523438 z "
       transform="translate(0,26)"
       id="path4165" />
    <path
       style="opacity:1;fill:#424854;fill-opacity:1"
       d="M 6 4 C 4.892 4 4 4.892 4 6 C 4 6.3001943 4.0699898 6.5808983 4.1875 6.8359375 A 8.000001 8.000001 0 0 0 3 11 A 8.000001 8.000001 0 0 0 11 19 A 8.000001 8.000001 0 0 0 17 16.271484 L 17 18 L 18 18 L 18 15 L 18 14 L 17 14 L 14 14 L 14 15 L 16.722656 15 A 7.000001 7.000001 0 0 1 11 18 A 7.000001 7.000001 0 0 1 4 11 A 7.000001 7.000001 0 0 1 4.8671875 7.6484375 C 5.1891685 7.869863 5.5780129 8 6 8 C 7.108 8 8 7.108 8 6 C 8 4.892 7.108 4 6 4 z M 6 5 C 6.554 5 7 5.446 7 6 C 7 6.554 6.554 7 6 7 C 5.7255501 7 5.4791739 6.8887566 5.2988281 6.7109375 C 5.2954767 6.707633 5.292367 6.7045233 5.2890625 6.7011719 C 5.2042835 6.6151883 5.1351838 6.5146057 5.0859375 6.4023438 A 1 1 0 0 1 5.0761719 6.3769531 C 5.0289663 6.2605805 5 6.1337058 5 6 C 5 5.446 5.446 5 6 5 z "
       transform="translate(0,26)"
       id="path4164" />
  </g>
</svg>
