/* XPM */
static char *Flag_20x20_USA[] = {
/* columns rows colors chars-per-pixel */
"20 20 3 1 ",
"  c #3C3B6E",
". c #B22234",
"X c gray100",
/* pixels */
"                ....",
"  X   X   X   X ....",
"    X   X   X   XXXX",
"  X   X   X   X ....",
"    X   X   X   ....",
"  X   X   X   X XXXX",
"    X   X   X   ....",
"  X   X   X   X ....",
"    X   X   X   XXXX",
"  X   X   X   X ....",
"                ....",
"XXXXXXXXXXXXXXXXXXXX",
"....................",
"....................",
"XXXXXXXXXXXXXXXXXXXX",
"....................",
"....................",
"XXXXXXXXXXXXXXXXXXXX",
"....................",
"...................."
};
