/* XPM */
static char *flag_ua[] = {
/* columns rows colors chars-per-pixel */
"20 20 2 1 ",
"  c #0064B4",
". c #FFC864",
/* pixels */
"                    ",
"                    ",
"                    ",
"                    ",
"                    ",
"                    ",
"                    ",
"                    ",
"                    ",
"                    ",
"....................",
"....................",
"....................",
"....................",
"....................",
"....................",
"....................",
"....................",
"....................",
"...................."
};
