/* XPM */
static char *us[] = {
/* columns rows colors chars-per-pixel */
"24 13 32 1",
"  c #16813A70753F",
". c #177F3BF87652",
"X c #182A3C8776B8",
"o c #1B2B3F10787F",
"O c #5E3E342F6487",
"+ c #5DF33CB16C19",
"@ c #1F7842B07B0C",
"# c #215844E17CBD",
"$ c #228A45467CDC",
"% c #23E647457E6A",
"& c #235C486C7F84",
"* c #276849617FBD",
"= c #27BC49957FE2",
"- c #72414EB078E6",
"; c #C9852D6A4DFE",
": c #C9222DF84E8B",
"> c #D041493A6593",
", c #D0EE48FE6543",
"< c #29454AF380D8",
"1 c #2A8D4C088199",
"2 c #34A0560688E6",
"3 c #374358408A75",
"4 c #386E5BB68D58",
"5 c #3AF55B5D8CA5",
"6 c #3DB85DB18E48",
"7 c #69966C409486",
"8 c #6C576F37969A",
"9 c #D84FC652D310",
"0 c #D8A9C632D2E6",
"q c #E22EC414CF8E",
"w c #EF83C0D2CA9D",
"e c #EFA3C14FCB08",
/* pixels */
"@X$oo%X$@O::::::::::::::",
".1*<<=<=$7eeeeeeeeeeeeee",
"X<*<====&+,,,,,,>>>>>>>>",
"@*<*=<=<$7eeeeeewwwwwwww",
"X<=<====$+>>,>>>>>>>>>>>",
" <%<=%==$7wweeeewwwwwwww",
"526236255->>>>>>>>>>>>>>",
"990000009qeeeeeewwwwwwwe",
",,,,,,,,>>>>>>>>>>>>>>>>",
"wwweweeweeeewwwweeeeeeee",
",,>>,,>>>>>>>>>>>>,,>>>>",
"eeeeeewweeeeeeeeewwweeee",
":::::::::::::::::::::;;;"
};
