/* XPM */
static char *_519152114381[] = {
/* columns rows colors chars-per-pixel */
"21 14 20 1 ",
"  c #C00000",
". c #D00000",
"X c #E00000",
"o c #F00000",
"O c red",
"+ c #004290",
"@ c #00489C",
"# c #004DA8",
"$ c #0053B4",
"% c #0058C0",
"& c #427EC0",
"* c #4889D0",
"= c #4D93E0",
"- c #539EF0",
"; c #58A8FF",
": c #C09090",
"> c #D09C9C",
", c #E0A8A8",
"< c #F0B4B4",
"1 c #FFC0C0",
/* pixels */
"%%%$#@+@#oOoX. .XoOOO",
"%;%-#*+*#<1<,>:>,<111",
"%%;$=@&@#oOoX. .XoOOO",
"%;%-#*+*#<1<,>:>,<111",
"%%;$=@&@#oOoX. .XoOOO",
"%;%-#*+*#<1<,>:>,<111",
"%%%$#@+@#oOoX. .XoOOO",
"111<,>:>,<1<,>:>,<111",
"OOOoX. .XoOoX. .XoOOO",
"111<,>:>,<1<,>:>,<111",
"OOOoX. .XoOoX. .XoOOO",
"111<,>:>,<1<,>:>,<111",
"OOOoX. .XoOoX. .XoOOO",
"111<,>:>,<1<,>:>,<111"
};
