<?xml version="1.0" encoding="UTF-8" standalone="no"?>
<!-- Created with Inkscape (http://www.inkscape.org/) -->

<svg
   xmlns:dc="http://purl.org/dc/elements/1.1/"
   xmlns:cc="http://creativecommons.org/ns#"
   xmlns:rdf="http://www.w3.org/1999/02/22-rdf-syntax-ns#"
   xmlns:svg="http://www.w3.org/2000/svg"
   xmlns="http://www.w3.org/2000/svg"
   xmlns:xlink="http://www.w3.org/1999/xlink"
   xmlns:sodipodi="http://sodipodi.sourceforge.net/DTD/sodipodi-0.dtd"
   xmlns:inkscape="http://www.inkscape.org/namespaces/inkscape"
   width="48"
   height="48"
   id="svg5453"
   version="1.1"
   inkscape:version="0.49 r12742"
   sodipodi:docname="media-flash-sd-mmc.svg"
   viewBox="0 0 48 48">
  <defs
     id="defs5455">
    <linearGradient
       inkscape:collect="always"
       id="linearGradient853">
      <stop
         style="stop-color:#333a47;stop-opacity:1"
         offset="0"
         id="stop855" />
      <stop
         style="stop-color:#3e4756;stop-opacity:1"
         offset="1"
         id="stop857" />
    </linearGradient>
    <linearGradient
       inkscape:collect="always"
       xlink:href="#linearGradient853"
       id="linearGradient4128"
       x1="24.25"
       y1="48"
       x2="24.25"
       y2="-0.0039061869"
       gradientUnits="userSpaceOnUse"
       gradientTransform="translate(384.57143,499.798)" />
  </defs>
  <sodipodi:namedview
     id="base"
     pagecolor="#ffffff"
     bordercolor="#666666"
     borderopacity="1.0"
     inkscape:pageopacity="0"
     inkscape:pageshadow="2"
     inkscape:zoom="256"
     inkscape:cx="47.896935"
     inkscape:cy="4.1954949"
     inkscape:document-units="px"
     inkscape:current-layer="layer1"
     showgrid="false"
     fit-margin-top="0"
     fit-margin-left="0"
     fit-margin-right="0"
     fit-margin-bottom="0"
     inkscape:window-width="1366"
     inkscape:window-height="718"
     inkscape:window-x="-2"
     inkscape:window-y="23"
     inkscape:window-maximized="1"
     inkscape:showpageshadow="false"
     borderlayer="true" />
  <metadata
     id="metadata5458">
    <rdf:RDF>
      <cc:Work
         rdf:about="">
        <dc:format>image/svg+xml</dc:format>
        <dc:type
           rdf:resource="http://purl.org/dc/dcmitype/StillImage" />
        <dc:title />
      </cc:Work>
    </rdf:RDF>
  </metadata>
  <g
     inkscape:label="Capa 1"
     inkscape:groupmode="layer"
     id="layer1"
     transform="translate(-384.57143,-499.798)">
    <path
       style="fill:url(#linearGradient4128);fill-opacity:1;stroke:none"
       d="m 386.51674,499.798 c -0.80796,0 -1.49855,0.48715 -1.79297,1.18555 -2.2e-4,5.3e-4 2.3e-4,0.001 0,0.002 -0.0487,0.11589 -0.0876,0.23708 -0.11328,0.36328 -1.2e-4,6.2e-4 1.3e-4,0.001 0,0.002 -0.0256,0.12624 -0.0391,0.25858 -0.0391,0.39258 l 0,44.10938 c 0,0.13466 0.0132,0.26574 0.0391,0.39258 1.3e-4,6.2e-4 -1.2e-4,0.001 0,0.002 0.0258,0.12617 0.0644,0.24741 0.11328,0.36328 0.19609,0.46639 0.56704,0.83864 1.03321,1.03515 5.3e-4,2.3e-4 0.001,-2.2e-4 0.002,0 0.11589,0.0487 0.23708,0.0876 0.36328,0.11329 6.2e-4,1.2e-4 0.001,-1.3e-4 0.002,0 0.12624,0.0255 0.25858,0.039 0.39258,0.039 l 40.25782,0 3.85156,0 c 1.07727,0 1.94531,-0.86803 1.94531,-1.94531 l 0,-16.13867 -3.85352,-2.22461 0,-5.37305 2.82422,-0.75 0,-6.57031 -2.8164,-2.81641 0,-7.52539 -0.008,0 0,-2.71094 c -2e-5,-1.07728 -0.86609,-1.94531 -1.94337,-1.94531 l -0.0156,0 z"
       id="rect4108"
       inkscape:connector-curvature="0"
       sodipodi:nodetypes="sccccsscccccccscssccccccccsscs" />
    <path
       style="fill:#2e3540;fill-opacity:1;stroke:none"
       d="M 24 39.628906 A 89 76.780037 0 0 0 0.15820312 42.544922 C 0.15620312 42.544882 0.15629687 42.542969 0.15429688 42.542969 C 0.14929687 42.542969 0.14727814 42.547828 0.14257812 42.548828 A 89 76.780037 0 0 0 0 42.578125 L 0 42.697266 L 0 42.919922 L 0 45.40625 L 0 45.525391 L 0 45.75 A 89 76.780037 0 0 1 24 42.835938 A 89 76.780037 0 0 1 48 45.763672 L 48 45.621094 L 48 42.601562 L 48 42.576172 A 89 76.780037 0 0 0 47.933594 42.5625 C 47.916794 42.5565 47.903766 42.542969 47.884766 42.542969 C 47.878766 42.542969 47.874741 42.547828 47.869141 42.548828 A 89 76.780037 0 0 0 24 39.628906 z "
       transform="translate(384.57143,499.798)"
       id="path4078" />
    <path
       style="fill:#000000;fill-opacity:0.23529412;stroke:none"
       d="M 24 39.628906 A 89 76.780037 0 0 0 0.15820312 42.544922 C 0.15620312 42.544882 0.15629688 42.542969 0.15429688 42.542969 C 0.14929688 42.542969 0.14727813 42.547828 0.14257812 42.548828 A 89 76.780037 0 0 0 0 42.578125 L 0 42.697266 L 0 42.919922 L 0 43.140625 A 89 76.780037 0 0 1 0.14257812 43.111328 C 0.14757812 43.110328 0.14959687 43.105469 0.15429688 43.105469 C 0.15629688 43.105469 0.15620312 43.107422 0.15820312 43.107422 A 89 76.780037 0 0 1 24 40.191406 A 89 76.780037 0 0 1 47.869141 43.111328 C 47.875141 43.110328 47.879166 43.105469 47.884766 43.105469 C 47.903766 43.105469 47.916794 43.119 47.933594 43.125 A 89 76.780037 0 0 1 48 43.138672 L 48 42.601562 L 48 42.576172 A 89 76.780037 0 0 0 47.933594 42.5625 C 47.916794 42.5565 47.903766 42.542969 47.884766 42.542969 C 47.878766 42.542969 47.874741 42.547828 47.869141 42.548828 A 89 76.780037 0 0 0 24 39.628906 z "
       transform="translate(384.57143,499.798)"
       id="path4081" />
    <path
       style="fill:#000000;fill-opacity:0.11764706;stroke:none"
       d="M 24 40.164062 A 89 76.780037 0 0 0 0.15820312 43.080078 C 0.15620312 43.080038 0.15629688 43.078125 0.15429688 43.078125 C 0.14929688 43.078125 0.14727813 43.082984 0.14257812 43.083984 A 89 76.780037 0 0 0 0 43.113281 L 0 43.232422 L 0 43.455078 L 0 43.675781 A 89 76.780037 0 0 1 0.14257812 43.646484 C 0.14757812 43.645484 0.14959687 43.640625 0.15429688 43.640625 C 0.15629688 43.640625 0.15620312 43.642578 0.15820312 43.642578 A 89 76.780037 0 0 1 24 40.726562 A 89 76.780037 0 0 1 47.869141 43.646484 C 47.875141 43.645484 47.879166 43.640625 47.884766 43.640625 C 47.903766 43.640625 47.916794 43.654156 47.933594 43.660156 A 89 76.780037 0 0 1 48 43.673828 L 48 43.136719 L 48 43.111328 A 89 76.780037 0 0 0 47.933594 43.097656 C 47.916794 43.091656 47.903766 43.078125 47.884766 43.078125 C 47.878766 43.078125 47.874741 43.082984 47.869141 43.083984 A 89 76.780037 0 0 0 24 40.164062 z "
       transform="translate(384.57143,499.798)"
       id="path4086" />
    <path
       style="fill:#000000;fill-opacity:0.05882353;stroke:none"
       d="M 24 40.699219 A 89 76.780037 0 0 0 0.15820312 43.615234 C 0.15620312 43.615194 0.15629688 43.613281 0.15429688 43.613281 C 0.14929688 43.613281 0.14727813 43.618141 0.14257812 43.619141 A 89 76.780037 0 0 0 0 43.648438 L 0 43.767578 L 0 43.990234 L 0 44.210938 A 89 76.780037 0 0 1 0.14257812 44.181641 C 0.14757812 44.180641 0.14959687 44.175781 0.15429688 44.175781 C 0.15629688 44.175781 0.15620312 44.177734 0.15820312 44.177734 A 89 76.780037 0 0 1 24 41.261719 A 89 76.780037 0 0 1 47.869141 44.181641 C 47.875141 44.180641 47.879166 44.175781 47.884766 44.175781 C 47.903766 44.175781 47.916794 44.189313 47.933594 44.195312 A 89 76.780037 0 0 1 48 44.208984 L 48 43.671875 L 48 43.646484 A 89 76.780037 0 0 0 47.933594 43.632812 C 47.916794 43.626813 47.903766 43.613281 47.884766 43.613281 C 47.878766 43.613281 47.874741 43.618141 47.869141 43.619141 A 89 76.780037 0 0 0 24 40.699219 z "
       transform="translate(384.57143,499.798)"
       id="path4088" />
    <path
       style="fill:#747477;fill-opacity:1;stroke:none"
       d="m 408.57143,542.25698 a 89,76.780037 0 0 0 -24,2.94727 l 0,0.34375 a 89,76.780037 0 0 1 24,-2.91406 89,76.780037 0 0 1 24,2.92773 l 0,-0.35547 a 89,76.780037 0 0 0 -24,-2.94922 z"
       id="path4887" />
    <path
       style="fill:#000000;fill-opacity:0.39215686;stroke:none"
       d="M 1.9453125 0 C 1.7632213 0 1.5907812 0.03170589 1.4238281 0.078125 C 1.4218178 0.078681014 1.4199694 0.079511672 1.4179688 0.080078125 C 1.3807525 0.090615312 1.3449836 0.10264952 1.3085938 0.11523438 C 1.1591984 0.16705897 1.0149433 0.23176377 0.88476562 0.31640625 C 0.86916529 0.32654135 0.85327688 0.33547419 0.83789062 0.34570312 C 0.83593114 0.34700583 0.83397255 0.34825676 0.83203125 0.34960938 C 0.70492707 0.4381902 0.59451564 0.54441525 0.4921875 0.66015625 L 0.49023438 0.66210938 C 0.46276714 0.69323237 0.43752451 0.72498671 0.41210938 0.7578125 C 0.41097794 0.75927382 0.40933284 0.76025061 0.40820312 0.76171875 C 0.31160769 0.88721654 0.2260339 1.0226626 0.16210938 1.1699219 C 0.15964238 1.1756219 0.15475875 1.1798219 0.15234375 1.1855469 L 0.15234375 1.1875 C 0.10364412 1.3033931 0.0647425 1.4245914 0.0390625 1.5507812 L 0.0390625 1.5527344 C 0.013232572 1.679561 0 1.810659 0 1.9453125 L 0 2.703125 L 0 45 C 0 45.609466 0.28066215 46.143993 0.71484375 46.498047 C 0.68035335 46.352652 0.65820313 46.203076 0.65820312 46.046875 L 0.65820312 2.3378906 L 0.65820312 1.9375 C 0.65820312 1.5022351 0.73061448 1.2145582 0.90039062 1.0195312 C 0.9064844 1.0083334 0.90972762 0.99544804 0.91601562 0.984375 C 0.92253228 0.97994775 0.93093387 0.97896208 0.9375 0.97460938 C 1.0487507 0.86593601 1.2076246 0.79515192 1.4003906 0.74414062 C 1.5729306 0.68748128 1.7555596 0.65625 1.9453125 0.65625 L 42.203125 0.65625 C 42.412184 0.65625 42.596007 0.67701977 42.753906 0.72265625 C 42.754457 0.72281768 42.755309 0.7224942 42.755859 0.72265625 C 42.765899 0.72557428 42.77337 0.73124883 42.783203 0.734375 C 42.851216 0.7559977 42.914525 0.7803986 42.972656 0.8125 C 43.038822 0.84903816 43.09895 0.89393725 43.152344 0.9453125 C 43.17394 0.95869616 43.199601 0.96434687 43.220703 0.97851562 C 43.239038 1.010447 43.249179 1.0469869 43.265625 1.0800781 C 43.26589 1.080612 43.265356 1.0814994 43.265625 1.0820312 C 43.32343 1.167281 43.365154 1.2743744 43.400391 1.390625 C 43.448027 1.5453848 43.477287 1.7086285 43.482422 1.8789062 L 43.482422 1.9003906 C 43.483078 1.9148188 43.487809 1.9227708 43.488281 1.9375 L 43.488281 2.3378906 C 43.486375 2.335852 43.484335 2.3340626 43.482422 2.3320312 L 43.482422 12.28125 L 44.154297 12.951172 L 46.314453 15.111328 L 46.314453 21.058594 L 44.138672 21.640625 L 44.138672 21.642578 L 43.482422 21.804688 L 43.482422 28.074219 L 44.138672 28.451172 L 44.138672 22.332031 L 44.146484 22.330078 L 44.146484 22.318359 L 46.970703 21.568359 L 46.970703 21.544922 L 46.970703 15.767578 L 46.970703 14.998047 L 44.154297 12.181641 L 44.154297 4.65625 L 44.146484 4.65625 L 44.146484 1.9453125 C 44.146483 1.8461418 44.131357 1.7513603 44.117188 1.65625 C 44.102189 1.5763622 44.082727 1.4943497 44.068359 1.4277344 C 44.035876 1.3097824 43.993636 1.1971849 43.941406 1.0898438 C 43.889177 0.98250247 43.826959 0.88041772 43.755859 0.78515625 C 43.688193 0.69449463 43.613388 0.60869984 43.53125 0.53125 C 43.530279 0.53033595 43.53027 0.52825581 43.529297 0.52734375 C 43.512148 0.51109296 43.492346 0.49803748 43.474609 0.48242188 C 43.470374 0.47873109 43.465184 0.47632268 43.460938 0.47265625 C 43.394719 0.41550061 43.327834 0.3601414 43.253906 0.3125 C 43.234686 0.29998624 43.213771 0.29004247 43.193359 0.27929688 C 43.178608 0.27051678 43.163441 0.26230292 43.148438 0.25390625 C 43.143861 0.25134553 43.139337 0.24865532 43.134766 0.24609375 C 43.069261 0.20939166 43.003904 0.17300396 42.933594 0.14453125 C 42.881116 0.12305365 42.824256 0.11062275 42.769531 0.09375 C 42.709039 0.075300029 42.65061 0.05202244 42.587891 0.0390625 C 42.586577 0.038800256 42.585298 0.037368986 42.583984 0.037109375 C 42.472106 0.014718685 42.35655 0.00617279 42.238281 0.00390625 C 42.226247 0.00367562 42.215216 1.2070929e-05 42.203125 0 L 42.201172 0 L 42.1875 0 L 2.5253906 0 L 1.9453125 0 z M 44.146484 27.691406 L 44.146484 28.460938 L 47.34375 30.306641 L 47.34375 45.46875 C 47.34375 45.96755 47.15309 46.4167 46.84375 46.75 C 47.51998 46.449 48 45.7934 48 45 L 48 30.685547 L 48 29.916016 L 44.146484 27.691406 z "
       transform="translate(384.57143,499.798)"
       id="rect4280" />
    <path
       id="path4094"
       d="m 408.57143,539.0685 a 89,76.780037 0 0 0 -24,2.94921 l 0,0.3418 a 89,76.780037 0 0 1 24,-2.91406 89,76.780037 0 0 1 24,2.92578 l 0,-0.35547 a 89,76.780037 0 0 0 -24,-2.94726 z"
       style="fill:#747477;fill-opacity:0.23529412;stroke:none"
       inkscape:connector-curvature="0" />
    <path
       inkscape:connector-curvature="0"
       style="fill:#747477;fill-opacity:0.11764706;stroke:none"
       d="m 408.57143,538.69539 a 89,76.780037 0 0 0 -24,2.94921 l 0,0.3418 a 89,76.780037 0 0 1 24,-2.91406 89,76.780037 0 0 1 24,2.92578 l 0,-0.35547 a 89,76.780037 0 0 0 -24,-2.94726 z"
       id="path4096" />
    <path
       id="path4098"
       d="m 408.57143,538.31524 a 89,76.780037 0 0 0 -24,2.94921 l 0,0.3418 a 89,76.780037 0 0 1 24,-2.91406 89,76.780037 0 0 1 24,2.92578 l 0,-0.35547 a 89,76.780037 0 0 0 -24,-2.94726 z"
       style="fill:#747477;fill-opacity:0.05882353;stroke:none"
       inkscape:connector-curvature="0" />
    <path
       inkscape:connector-curvature="0"
       style="fill:#747477;fill-opacity:0.05882353;stroke:none"
       d="m 408.57143,543.38933 a 89,76.780037 0 0 0 -24,2.94921 l 0,0.3418 a 89,76.780037 0 0 1 24,-2.91406 89,76.780037 0 0 1 24,2.92578 l 0,-0.35547 a 89,76.780037 0 0 0 -24,-2.94726 z"
       id="path4100" />
    <path
       id="path4102"
       d="m 408.57143,543.01622 a 89,76.780037 0 0 0 -24,2.94921 l 0,0.3418 a 89,76.780037 0 0 1 24,-2.91406 89,76.780037 0 0 1 24,2.92578 l 0,-0.35547 a 89,76.780037 0 0 0 -24,-2.94726 z"
       style="fill:#747477;fill-opacity:0.11764706;stroke:none"
       inkscape:connector-curvature="0" />
    <path
       inkscape:connector-curvature="0"
       style="fill:#747477;fill-opacity:0.23529412;stroke:none"
       d="m 408.57143,542.63607 a 89,76.780037 0 0 0 -24,2.94921 l 0,0.3418 a 89,76.780037 0 0 1 24,-2.91406 89,76.780037 0 0 1 24,2.92578 l 0,-0.35547 a 89,76.780037 0 0 0 -24,-2.94726 z"
       id="path4104" />
    <path
       style="fill:#ffffff;fill-opacity:0.60846564;stroke:none"
       d="M 1.9453125,0.65625 C 0.98019527,0.72494797 0.65820312,0.9970298 0.65820312,1.9375 l 0,0.4003906 c 0,-0.4003906 0.006161,-0.6152344 1.28710938,-0.6152344 l 40.2578125,0 c 1.269899,0 1.285156,0.2148438 1.285156,0.6152344 l 0,-0.4003906 C 43.457339,0.97268863 43.031569,0.65625 42.203125,0.65625 Z"
       transform="translate(384.57143,499.798)"
       id="path4153"
       inkscape:connector-curvature="0"
       sodipodi:nodetypes="cccsscccc" />
    <path
       inkscape:connector-curvature="0"
       style="fill:#000000;fill-opacity:1;stroke:none"
       d="m 384.57143,544.79799 0,1.0625 c 0,1.0773 0.86022,1.9375 1.9375,1.9375 l 44.125,0 c 1.07728,0 1.9375,-0.8602 1.9375,-1.9375 l 0,-1.0625 c 0,1.0773 -0.86022,1.9375 -1.9375,1.9375 l -44.125,0 c -1.07728,0 -1.9375,-0.8602 -1.9375,-1.9375 z"
       id="rect846" />
    <path
       sodipodi:type="star"
       style="fill:#ffffff;fill-opacity:1;stroke:none"
       id="path4864"
       sodipodi:sides="3"
       sodipodi:cx="414.69644"
       sodipodi:cy="514.54797"
       sodipodi:r1="2.8777161"
       sodipodi:r2="1.4388582"
       sodipodi:arg1="0.52359878"
       sodipodi:arg2="1.5707963"
       inkscape:flatsided="true"
       inkscape:rounded="0"
       inkscape:randomized="0"
       d="m 417.18862,515.98683 -4.98435,0 2.49217,-4.31657 z"
       inkscape:transform-center-y="-0.31665718"
       transform="matrix(0.6018838,0,0,0.44016387,158.97236,279.62924)" />
    <path
       style="fill:#ffffff"
       d="m 417.18431,512.26231 c -0.5321,0.005 -0.50708,-0.007 -0.5939,0.18754 -0.0214,0.0474 -0.0503,0.10402 -0.0625,0.12744 -0.0126,0.0235 -0.0216,0.0641 -0.0216,0.089 0,0.0245 -0.016,0.0652 -0.0361,0.0914 -0.0199,0.0261 -0.0353,0.0743 -0.0361,0.1058 -3.9e-4,0.0315 -0.0123,0.0759 -0.024,0.0986 -0.0124,0.0229 -0.0268,0.0853 -0.0313,0.13946 -0.006,0.0539 -0.0185,0.13569 -0.0337,0.18033 -0.0394,0.1172 -0.0311,0.8278 0.012,0.95215 0.12329,0.36093 0.19527,0.4874 0.38952,0.68527 0.11843,0.12064 0.37148,0.28613 0.43761,0.28613 0.0199,0 0.0559,0.0111 0.0793,0.024 0.12421,0.0687 0.66518,0.12774 0.72614,0.0793 0.0161,-0.0126 0.0719,-0.0315 0.12263,-0.0409 0.24554,-0.0442 0.49743,-0.26766 0.65641,-0.58428 0.0553,-0.10956 0.10099,-0.21876 0.10099,-0.24284 0,-0.0241 0.0111,-0.052 0.024,-0.0601 0.0137,-0.007 0.0234,-0.0402 0.024,-0.0697 4e-4,-0.0298 0.0185,-0.0748 0.0385,-0.10099 0.0199,-0.0261 0.0361,-0.0718 0.0361,-0.10339 0,-0.0316 0.009,-0.0774 0.0216,-0.10099 0.0123,-0.0235 0.0342,-0.0878 0.0505,-0.14186 0.0734,-0.24842 0.19431,-0.52066 0.29093,-0.65641 0.17994,-0.25284 0.3777,-0.30824 0.6468,-0.18274 0.0716,0.0334 0.18855,0.15621 0.20918,0.21881 0.007,0.0238 0.0246,0.0433 0.0361,0.0433 0.0214,0 0.0356,0.0646 0.0721,0.31498 0.0605,0.41739 -0.14566,0.84143 -0.52176,1.07478 -0.11314,0.0702 -0.11541,0.0755 -0.11541,0.18995 0,0.065 0.006,0.11924 0.0168,0.12022 0.0244,0.004 0.52628,0.004 0.68526,0 0.10452,-0.002 0.12981,-0.011 0.15148,-0.0577 0.03,-0.0639 0.0872,-0.26591 0.13224,-0.46166 0.0211,-0.091 0.0335,-0.38395 0.0337,-0.65881 l -0.002,0 c 4e-4,-0.27482 -0.0111,-0.53222 -0.0313,-0.55302 -0.016,-0.0159 -0.0288,-0.0508 -0.0288,-0.0769 0,-0.0261 -0.0437,-0.13787 -0.0962,-0.24766 -0.0984,-0.20533 -0.26013,-0.38786 -0.44482,-0.50012 -0.14859,-0.0905 -0.40237,-0.15664 -0.60832,-0.1611 -0.19121,-0.006 -0.49772,0.0496 -0.49772,0.0866 0,0.0111 -0.0187,0.0192 -0.0409,0.0192 -0.0497,0 -0.19146,0.10045 -0.30056,0.2164 -0.14988,0.15928 -0.25376,0.3427 -0.36066,0.62755 -0.0244,0.0646 -0.0535,0.12274 -0.0649,0.12984 -0.0123,0.007 -0.0216,0.0398 -0.0216,0.0721 0,0.0321 -0.0111,0.0664 -0.024,0.0745 -0.0137,0.007 -0.024,0.0449 -0.024,0.0842 0,0.0391 -0.0111,0.0779 -0.024,0.0866 -0.0137,0.007 -0.0264,0.032 -0.0264,0.0529 0,0.0208 -0.0151,0.0731 -0.0337,0.11541 -0.0186,0.0426 -0.0586,0.14099 -0.089,0.2188 -0.0774,0.19909 -0.22336,0.3945 -0.36547,0.4857 -0.10292,0.0659 -0.14511,0.0771 -0.28373,0.0793 -0.15064,0.004 -0.1743,-0.006 -0.29815,-0.089 -0.1673,-0.11523 -0.26429,-0.26936 -0.30295,-0.48329 -0.0524,-0.29185 -0.0299,-0.45874 0.10098,-0.73335 0.11991,-0.25229 0.30081,-0.42199 0.71652,-0.67805 0.1124,-0.0691 0.12126,-0.0817 0.12744,-0.18515 0.0123,-0.20302 0.0435,-0.19096 -0.49291,-0.18754 z m 0.1659,3.39987 c -0.18517,-0.0111 -0.37876,0.0212 -0.53618,0.10098 -0.22594,0.11425 -0.32913,0.23866 -0.46406,0.55062 -0.0422,0.0976 -0.0423,0.57986 0,0.68767 0.0133,0.0337 0.0378,0.10698 0.0553,0.1611 0.017,0.0539 0.0856,0.1669 0.15148,0.25006 0.0657,0.0833 0.11806,0.15912 0.11782,0.17071 -2e-4,0.0123 -0.0566,0.0553 -0.12503,0.0962 -0.0688,0.0406 -0.13527,0.0946 -0.14908,0.12022 -0.014,0.0258 -0.0306,0.22135 -0.0361,0.4352 -0.01,0.42199 -0.014,0.40286 0.13945,0.45925 0.13009,0.0479 0.13341,0.0468 0.14186,-0.0192 0.0147,-0.11499 0.0603,-0.19739 0.12984,-0.23323 0.0569,-0.0296 0.24314,-0.0361 1.06036,-0.0361 0.8701,0 1.00436,-0.007 1.12528,-0.0433 0.0757,-0.0234 0.14214,-0.0498 0.14667,-0.0601 0.007,-0.0111 0.0215,-0.0192 0.0385,-0.0192 0.0586,0 0.26213,-0.20364 0.32219,-0.32219 0.11794,-0.23276 0.13689,-0.31654 0.15148,-0.72374 0.004,-0.0544 0.005,-0.11105 0.005,-0.1659 l -0.002,0 c 0.004,-0.3842 -0.0367,-0.76164 -0.0962,-0.90647 -0.081,-0.19714 -0.0566,-0.18473 -0.35826,-0.19236 -0.30616,-0.007 -0.30777,-0.005 -0.30777,0.18514 0,0.0714 0.0254,0.10932 0.15629,0.24285 0.21891,0.223 0.25616,0.29693 0.30776,0.5987 0.007,0.0454 7.5e-4,0.12675 -0.0168,0.18274 -0.0614,0.1953 -0.16144,0.28676 -0.39192,0.35586 -0.10562,0.0318 -0.56597,0.0361 -0.61313,0.007 -0.0259,-0.0166 -0.035,-0.10687 -0.0409,-0.37509 -0.01,-0.46269 -0.0436,-0.69966 -0.113,-0.83674 -0.0123,-0.0234 -0.0216,-0.061 -0.0216,-0.0818 0,-0.0648 -0.19593,-0.35131 -0.29094,-0.42559 -0.12356,-0.0966 -0.30052,-0.15238 -0.4857,-0.1635 z m -0.0409,0.79106 c 0.10956,0.002 0.22076,0.0209 0.28613,0.0529 0.11695,0.0572 0.25487,0.25694 0.25487,0.36787 0,0.0377 0.009,0.0783 0.0216,0.0914 0.0182,0.0188 0.0311,0.14158 0.0337,0.29575 l 0.005,0 c 8e-4,0.0512 5.2e-4,0.10784 -0.002,0.1635 l -0.007,0.13946 -0.36066,0 c -0.3907,8.1e-4 -0.442,-0.0111 -0.55062,-0.13465 -0.0822,-0.0939 -0.18432,-0.29939 -0.18755,-0.3775 -0.002,-0.0348 -0.01,-0.0811 -0.0192,-0.10339 -0.009,-0.0224 -0.008,-0.0488 0.007,-0.0577 0.0143,-0.007 0.0265,-0.0491 0.0265,-0.089 0,-0.12249 0.0876,-0.2503 0.21399,-0.31017 0.0608,-0.0289 0.1694,-0.0413 0.27892,-0.0385 z m 2.01491,2.48859 c -0.0258,0.006 -0.0745,0.0251 -0.10579,0.0457 -0.0505,0.0334 -0.056,0.0524 -0.0481,0.17553 0.0111,0.17095 0.006,0.19282 -0.0842,0.23803 -0.0585,0.0302 -0.25576,0.0361 -1.20222,0.0361 -1.3089,0 -1.22493,0.0172 -1.23829,-0.23563 l -0.007,-0.14186 -0.12503,-0.0409 -0.12743,-0.0433 -0.012,0.0721 c -0.007,0.0403 -0.0135,0.39086 -0.0168,0.77904 -0.005,0.38818 -0.01,0.70927 -0.0144,0.71412 -0.023,0.0229 0.0245,0.0806 0.0769,0.0938 0.0324,0.007 0.0994,0.007 0.14667,-0.002 0.084,-0.0155 0.0842,-0.0191 0.0842,-0.13464 0,-0.20953 -0.0357,-0.20306 0.9762,-0.20198 l 0.88243,0.002 0.17553,0.0866 c 0.51471,0.25871 0.70524,0.72545 0.40154,0.98101 -0.0718,0.0604 -0.091,0.0684 -0.23323,0.10098 -0.0406,0.009 -0.53064,0.0186 -1.08921,0.0192 -1.17335,8.1e-4 -1.11326,0.0111 -1.11326,-0.22121 0,-0.11584 -0.007,-0.13482 -0.0601,-0.15869 -0.0703,-0.0319 -0.23334,-0.006 -0.23563,0.0361 -7.9e-4,0.0164 -0.001,0.48904 0,1.05073 0.006,1.20648 0.0323,1.68239 0.11301,1.86104 0.0192,0.0426 0.0361,0.0945 0.0361,0.11541 0,0.0209 0.0111,0.0448 0.024,0.0529 0.0137,0.007 0.024,0.0322 0.024,0.0529 0,0.0379 0.12162,0.30749 0.14908,0.32941 0.007,0.007 0.0342,0.0457 0.0553,0.0866 0.0655,0.12766 0.33347,0.39848 0.49291,0.49772 0.17037,0.10599 0.43162,0.22842 0.4905,0.22842 0.0214,0 0.0467,0.0111 0.0553,0.024 0.007,0.0137 0.0474,0.024 0.0866,0.024 0.0391,0 0.10131,0.0123 0.13945,0.0265 0.0928,0.0358 0.78817,0.0355 1.00506,-0.002 0.60901,-0.10242 1.0893,-0.45535 1.34648,-0.98581 0.0556,-0.11499 0.10858,-0.23022 0.11782,-0.25728 0.009,-0.0273 0.0306,-0.0872 0.0481,-0.13465 0.0844,-0.23486 0.11978,-0.54556 0.13945,-1.22866 0.007,-0.18265 0.007,-0.30199 0.007,-0.38231 l 0,-0.002 c -10e-4,-0.12925 -0.01,-0.15448 -0.0361,-0.17312 -0.0564,-0.0411 -0.24385,-0.0422 -0.27651,-0.002 -0.0138,0.0171 -0.0306,0.24055 -0.0385,0.49772 -0.0142,0.47998 -0.0388,0.63843 -0.12984,0.8127 -0.0283,0.0539 -0.0715,0.13253 -0.0938,0.17552 -0.0545,0.10415 -0.29654,0.32656 -0.43279,0.39673 -0.0598,0.0309 -0.12636,0.0661 -0.14667,0.077 -0.11794,0.0634 -0.15139,0.0769 -0.19476,0.0769 -0.0265,0 -0.0544,0.0111 -0.0625,0.024 -0.007,0.0137 -0.0474,0.024 -0.0866,0.024 -0.0392,0 -0.10132,0.014 -0.13945,0.0289 -0.0907,0.0358 -1.04628,0.0331 -1.11326,-0.002 -0.0267,-0.0143 -0.0745,-0.024 -0.10579,-0.024 -0.096,-1.9e-4 -0.37677,-0.10993 -0.56024,-0.2188 -0.26043,-0.15474 -0.45745,-0.41074 -0.54099,-0.69969 -0.0145,-0.051 -0.0378,-0.12673 -0.0505,-0.17072 -0.023,-0.0804 -0.031,-0.32511 -0.0265,-0.69728 0.004,-0.19163 0.007,-0.20109 0.0697,-0.23323 0.0528,-0.0259 0.29748,-0.0341 1.12528,-0.0409 1.17563,-0.009 1.18207,-0.01 1.38976,-0.17552 0.25864,-0.20591 0.35491,-0.45189 0.35345,-0.90166 -0.002,-0.44786 -0.0667,-0.59742 -0.40875,-0.91369 -0.0734,-0.0681 -0.0368,-0.0958 0.12984,-0.0986 0.11523,-0.002 0.16268,-0.0152 0.18514,-0.0457 0.0326,-0.0446 0.0461,-1.13962 0.0144,-1.18779 -0.0275,-0.0423 -0.13552,-0.0919 -0.18515,-0.0842 z m -2.8228,6.92236 c -0.13765,0 -0.13588,-0.01 -0.13465,0.94976 3.9e-4,0.48607 0.007,0.89675 0.0192,0.91368 0.0111,0.017 0.0628,0.0313 0.11541,0.0313 0.1246,0 0.14667,-0.0437 0.14667,-0.28132 0,-0.15803 0.007,-0.18747 0.0481,-0.20919 0.0311,-0.0169 0.51795,-0.0264 1.4114,-0.0264 1.08294,0 1.3713,-0.007 1.39217,-0.0313 0.0185,-0.0225 0.0285,-0.31576 0.0288,-0.60832 l 0,-0.002 c 2e-4,-0.29257 -0.009,-0.58599 -0.0288,-0.60832 -0.0361,-0.0433 -0.24027,-0.0409 -0.29815,0.005 -0.0352,0.0268 -0.0452,0.0643 -0.0409,0.18033 0.005,0.0805 -0.003,0.15741 -0.012,0.17312 -0.0235,0.0378 -2.38169,0.0405 -2.45252,0.005 -0.0406,-0.0217 -0.0481,-0.0518 -0.0481,-0.2188 0,-0.218 -0.0281,-0.27171 -0.14667,-0.27171 z m 3.5225,0.52658 c -0.014,0.007 -0.0231,0.19527 -0.0192,0.46165 l 0.01,0.44722 0.30536,0.1058 c 0.1692,0.0569 0.32211,0.10314 0.33903,0.10339 0.0193,3.9e-4 0.0298,-0.2303 0.0312,-0.46406 0.002,-0.23377 -0.006,-0.47143 -0.024,-0.48329 -0.0816,-0.0505 -0.60958,-0.19072 -0.64198,-0.17071 z m -3.05364,1.70955 c -0.22547,-2e-4 -0.31973,0.006 -0.35585,0.0337 -0.0437,0.0306 -0.1612,0.23961 -0.20919,0.37269 -0.01,0.0273 -0.0307,0.08 -0.0457,0.11782 -0.0154,0.0377 -0.0285,0.0928 -0.0289,0.12262 -8e-4,0.03 -0.0144,0.0944 -0.0312,0.14186 -0.0479,0.13337 -0.0488,0.61227 -0.002,0.76702 0.10477,0.34189 0.22333,0.52816 0.42318,0.65641 0.18706,0.12003 0.37955,0.17483 0.62516,0.17552 0.20661,4.2e-4 0.23224,-0.009 0.46165,-0.1082 0.11473,-0.051 0.29444,-0.24282 0.35826,-0.3823 0.0346,-0.0753 0.0793,-0.16846 0.0986,-0.20678 0.0196,-0.0383 0.0361,-0.0916 0.0361,-0.11782 0,-0.026 0.01,-0.0654 0.0216,-0.089 0.0123,-0.0235 0.0344,-0.10588 0.0505,-0.18034 0.0435,-0.20471 0.12765,-0.41114 0.2164,-0.53378 0.11042,-0.15269 0.25697,-0.18934 0.42077,-0.1058 0.12381,0.0629 0.21943,0.19031 0.25487,0.34384 0.0622,0.26911 -0.0841,0.65884 -0.327,0.868 -0.1156,0.0997 -0.12766,0.12002 -0.12984,0.2188 l -0.005,0.1082 0.3246,0.007 c 0.29771,0.007 0.32815,0.006 0.35105,-0.0385 0.014,-0.026 0.0187,-0.0527 0.012,-0.0601 -0.007,-0.007 0.004,-0.0741 0.0216,-0.14667 0.0409,-0.15181 0.0776,-0.53634 0.0793,-0.77663 l 0,-0.002 c 4e-4,-0.0803 -0.003,-0.14212 -0.01,-0.17552 -0.014,-0.0611 -0.0263,-0.142 -0.0265,-0.18033 -7.8e-4,-0.0966 -0.17257,-0.43631 -0.27891,-0.55062 -0.0481,-0.0521 -0.14181,-0.11965 -0.20679,-0.15148 -0.065,-0.0318 -0.13823,-0.0684 -0.1635,-0.0817 -0.0254,-0.0133 -0.15235,-0.0249 -0.28372,-0.024 -0.1921,0.002 -0.2683,0.0151 -0.38471,0.0625 -0.16863,0.0687 -0.40587,0.287 -0.47127,0.43521 -0.0229,0.0526 -0.0491,0.0962 -0.0601,0.0962 -0.0111,0 -0.0216,0.0189 -0.0216,0.0433 0,0.0244 -0.007,0.0547 -0.0192,0.0673 -0.0111,0.0127 -0.0352,0.0918 -0.0529,0.17312 -0.0176,0.0812 -0.0487,0.17203 -0.0673,0.20197 -0.0183,0.0302 -0.0312,0.0762 -0.0312,0.10339 0,0.0463 -0.019,0.10366 -0.0817,0.24766 -0.11191,0.25552 -0.3626,0.38323 -0.55303,0.28372 -0.18354,-0.0959 -0.26274,-0.25716 -0.26208,-0.5434 3.8e-4,-0.1382 0.0142,-0.20068 0.0697,-0.31498 0.0803,-0.16481 0.29692,-0.37353 0.49051,-0.47368 0.19057,-0.0985 0.21399,-0.12452 0.21399,-0.25727 0,-0.14449 -0.007,-0.14622 -0.42078,-0.14667 z m 3.6283,2.57996 c -0.0436,-0.0123 -0.1081,-0.008 -0.15629,0.007 l -0.0794,0.0264 0.005,0.21399 c 0.002,0.11708 0.004,0.22643 0.002,0.24285 -0.002,0.023 -0.41631,0.0284 -1.85382,0.024 l -1.85141,-0.007 -0.0144,-0.21159 c -0.014,-0.23149 -0.0432,-0.29334 -0.14186,-0.29334 -0.14173,0 -0.14097,-0.007 -0.13705,0.91128 0.004,0.678 0.0111,0.84618 0.0385,0.86319 0.0538,0.0339 0.16012,0.025 0.20197,-0.0168 0.0251,-0.025 0.0409,-0.0833 0.0409,-0.1659 2.2e-4,-0.0702 0.01,-0.14305 0.0216,-0.1611 0.0293,-0.0465 0.86962,-0.0436 0.92811,0.002 0.0991,0.0789 0.25487,0.25033 0.25487,0.28132 0,0.0334 -0.11904,0.15234 -0.15388,0.15389 -0.009,3.8e-4 -0.0648,0.0331 -0.12263,0.0721 -0.38102,0.25893 -0.84395,0.55299 -0.87762,0.55543 -0.0294,0.004 -0.0423,-0.0237 -0.0481,-0.0962 -0.006,-0.0539 -0.0248,-0.11818 -0.0457,-0.14186 -0.04,-0.0443 -0.19069,-0.0593 -0.214,-0.0216 -0.007,0.0123 -0.0186,0.39738 -0.0264,0.85838 -0.0111,0.63257 -0.007,0.84239 0.0144,0.85598 0.0508,0.0314 0.22239,0.019 0.24525,-0.0168 0.0123,-0.0186 0.0214,-0.084 0.0216,-0.14667 4e-4,-0.13559 0.0483,-0.26035 0.12744,-0.33182 0.0692,-0.0628 0.45318,-0.3294 0.47367,-0.3294 0.0213,0 0.2477,-0.15645 0.25728,-0.17793 0.007,-0.01 0.0175,-0.0192 0.0289,-0.0192 0.0111,0 0.18375,-0.10758 0.38471,-0.24044 0.45049,-0.29772 0.53494,-0.35105 0.57466,-0.35105 0.0648,0 0.38847,0.28901 0.541,0.48329 0.0894,0.114 0.16999,0.36527 0.18995,0.58909 0.016,0.18019 0.0371,0.20919 0.15388,0.20919 0.1422,0 0.152,-0.0376 0.14186,-0.5915 -0.007,-0.26391 -0.0171,-0.49643 -0.0264,-0.51695 -0.009,-0.0204 -0.19956,-0.16437 -0.42319,-0.31979 -1.01989,-0.70898 -1.05058,-0.73224 -1.02909,-0.76701 0.007,-0.0111 0.58591,-0.0192 1.28637,-0.0192 0.97999,0 1.28287,-0.007 1.31522,-0.0313 0.0288,-0.0209 0.0385,-0.0636 0.0385,-0.33662 l -0.002,0.002 c 5e-5,-0.091 5.5e-4,-0.20795 -0.002,-0.35826 l -0.007,-0.66363 -0.0745,-0.0192 z m -1.15654,3.96972 c -0.0361,-0.0111 -0.0625,-0.004 -0.0625,0.0216 0,0.0137 0.0191,0.024 0.0409,0.024 0.0217,0 0.077,0.0411 0.12263,0.0914 0.20278,0.22136 0.0246,0.54332 -0.2693,0.4881 -0.14989,-0.0281 -0.21446,-0.11203 -0.0962,-0.12503 0.0238,-0.005 0.0618,-0.0135 0.0866,-0.024 0.0259,-0.0111 0.0584,-0.008 0.0745,0.007 0.0463,0.0464 0.13064,0.0325 0.1611,-0.0264 0.0156,-0.0303 0.0311,-0.0996 0.0361,-0.15148 0.007,-0.0755 0.001,-0.0967 -0.0361,-0.1106 -0.0564,-0.0208 -0.35675,-0.0209 -0.3775,0 -0.0308,0.0309 0.0196,0.0962 0.0745,0.0962 0.0318,0 0.0643,0.009 0.0721,0.0216 0.0176,0.0287 -0.0534,0.10099 -0.0986,0.10099 -0.0183,0 -0.0443,0.0196 -0.0577,0.0433 -0.0384,0.0682 -0.0866,5.3e-4 -0.0866,-0.12262 0,-0.0825 0.0159,-0.12237 0.0721,-0.18274 0.0394,-0.0422 0.0971,-0.0848 0.12743,-0.0938 0.0811,-0.0244 0.0707,-0.0712 -0.012,-0.0505 -0.0776,0.0193 -0.17468,0.1012 -0.20438,0.17312 -0.0111,0.0273 -0.0211,0.10612 -0.0216,0.17553 -0.002,0.11485 0.006,0.13372 0.0962,0.22601 0.092,0.0948 0.10821,0.10339 0.23564,0.10339 0.15746,0 0.23319,-0.0415 0.31017,-0.1659 0.0332,-0.0533 0.0448,-0.0885 0.0433,-0.15148 l 0.002,0.002 c -3.9e-4,-0.0211 -0.004,-0.0455 -0.007,-0.0745 -0.0124,-0.11929 -0.0267,-0.15045 -0.10099,-0.2188 -0.0417,-0.0383 -0.0889,-0.0662 -0.12503,-0.0769 z m -0.024,0.29094 c 0.043,0 0.0642,0.0193 0.0601,0.0457 -0.004,0.0155 -0.0126,0.0354 -0.0337,0.0529 -0.0451,0.0373 -0.089,0.0123 -0.089,-0.0505 0,-0.0346 0.0182,-0.0481 0.0625,-0.0481 z"
       id="path4322"
       inkscape:connector-curvature="0" />
    <path
       style="fill:#ff6600"
       d="m 414.32636,524.59929 c -0.007,-0.1594 -0.0274,-0.31403 -0.0722,-0.47648 -0.21698,-0.78286 -0.72771,-1.24012 -1.76439,-1.57946 -0.54041,-0.17686 -1.20543,-0.25546 -2.17594,-0.25709 -0.91995,-10e-4 -1.31918,0.0386 -2.00466,0.20125 -1.0435,0.24764 -1.70292,0.85183 -1.79516,1.64477 -0.0473,0.40317 -0.0449,0.48421 0.0166,0.79107 0.16033,0.807 0.68172,1.36953 1.53745,1.65879 0.79863,0.26995 1.8474,0.22929 2.49377,-0.0965 0.67278,-0.33925 1.04996,-0.95227 1.05163,-1.70914 0.001,-0.37939 -0.10913,-0.67235 -0.37377,-0.9925 -0.079,-0.0959 -0.13336,-0.19192 -0.12016,-0.21321 0.0151,-0.0236 0.16878,-0.0362 0.39913,-0.0318 1.068,0.0185 1.67075,0.36637 1.73644,1.00285 0.0405,0.39063 -0.21085,0.70865 -0.69321,0.87782 -0.0801,0.028 -0.10258,0.21788 -0.093,0.77858 l 0.0102,0.4405 0.12846,-0.0101 c 0.59452,-0.0459 1.21627,-0.4164 1.4403,-0.85744 0.1326,-0.26104 0.16474,-0.35439 0.23022,-0.66771 0.0378,-0.18052 0.0546,-0.34442 0.0518,-0.50373 z m -0.19818,-4.27571 c 1.6e-4,-0.50944 -0.0102,-0.53919 -0.20925,-0.58987 -0.57998,-0.14808 -1.03303,-0.83346 -1.08399,-1.64038 l -0.0209,-0.32132 -0.43541,0 -0.43542,0 -0.001,0.28462 c -6.1e-4,0.15648 -0.008,0.50745 -0.0102,0.78003 l -0.0102,0.49574 -2.59748,0.0102 -2.59745,0.0102 0,0.64232 0,0.6425 3.69882,-0.0101 3.69882,-0.0102 1.3e-4,-0.29375 z m -2.38966,8.96881 c 0.0102,-0.3855 -0.0605,-0.74608 -0.18754,-0.99863 -0.14871,-0.29454 -0.56063,-0.67478 -0.92945,-0.85742 -0.51861,-0.25686 -0.80051,-0.3164 -1.48647,-0.31431 -0.52772,10e-4 -0.61917,0.0102 -0.8995,0.0977 -0.47339,0.14657 -0.82797,0.34066 -1.11318,0.60941 -0.408,0.38448 -0.53971,0.71451 -0.52794,1.32343 0.0101,0.34687 0.0186,0.40942 0.12133,0.62412 0.0713,0.14916 0.19282,0.3167 0.32496,0.44708 0.1159,0.11486 0.20171,0.2241 0.18999,0.24307 -0.0102,0.0191 -0.10461,0.0455 -0.20616,0.0587 -0.29685,0.0394 -0.29407,0.0362 -0.29407,0.31958 l 0,0.25311 1.28366,0 1.28351,0 10e-4,-0.86408 0.001,-0.86403 -0.3761,0.0102 -0.37624,0.0102 -0.0102,0.48657 c -0.0101,0.55187 10e-4,0.53405 -0.32291,0.42634 -0.29791,-0.0985 -0.66273,-0.39901 -0.79388,-0.65324 -0.10473,-0.20385 -0.12664,-0.51791 -0.051,-0.74553 0.11746,-0.35268 0.52118,-0.65175 1.09029,-0.80684 0.31815,-0.0869 1.12913,-0.0853 1.46001,0.001 0.70001,0.1851 1.04149,0.5528 1.04536,1.12566 0.002,0.23689 -0.0102,0.3027 -0.10473,0.47186 -0.12794,0.23467 -0.35514,0.44419 -0.58476,0.53889 l -0.16748,0.0692 0,0.40062 0,0.40043 0.16838,-0.0255 c 0.25463,-0.0386 0.44334,-0.11512 0.68038,-0.27673 0.53705,-0.36654 0.76813,-0.81367 0.78193,-1.51286 z m -0.0887,2.5406 -2.46167,0 -2.46149,0 0.0102,1.22088 c 0.0102,1.18777 0.0102,1.22652 0.0982,1.43798 0.20672,0.51347 0.70089,0.81064 1.39936,0.84169 0.40162,0.0184 0.79409,-0.1308 1.00329,-0.37919 0.10902,-0.13003 0.13274,-0.13414 0.23286,-0.041 0.21312,0.19855 0.67345,0.32286 1.05062,0.28361 0.29872,-0.0309 0.57465,-0.16971 0.76273,-0.38311 0.34066,-0.38664 0.36376,-0.5052 0.36429,-1.87032 l 6e-4,-1.11069 z m -0.77097,0.8812 0,0.59102 c 0,0.46469 -0.0102,0.61749 -0.0587,0.71435 -0.15574,0.32855 -0.83486,0.36744 -1.06129,0.0606 -0.0651,-0.0888 -0.0745,-0.16788 -0.085,-0.73283 l -0.0101,-0.63331 0.60806,0 0.6081,0 z m -0.29932,-8.11506 c -0.007,0.55908 -0.54713,0.85479 -1.53637,0.82757 -0.791,-0.0218 -1.29435,-0.24696 -1.41098,-0.63141 -0.0449,-0.14763 -0.0455,-0.41367 0,-0.54399 0.0727,-0.21124 0.15794,-0.29919 0.42679,-0.44033 0.43073,-0.22613 1.50436,-0.24009 1.97557,-0.0255 0.32793,0.14917 0.49976,0.37235 0.53825,0.69857 0.008,0.0396 0.0102,0.0782 0.0102,0.11564 z m -1.7016,8.13343 -10e-4,0.6435 c -6.1e-4,0.60082 -0.009,0.65237 -0.0827,0.77627 -0.12352,0.19973 -0.28962,0.26294 -0.63885,0.24274 -0.58032,-0.0341 -0.68903,-0.24507 -0.66155,-1.28701 l 0.0102,-0.39545 0.68707,0.0101 0.68708,0.0102 z"
       id="path4361"
       inkscape:connector-curvature="0" />
    <path
       style="fill:#ffffff"
       d="m 398.99965,525.01472 c -0.0844,-0.0213 -2.17787,-0.0198 -2.27734,0.004 -0.0986,0.0214 -0.18858,0.0951 -0.23828,0.19532 l -0.043,0.0859 0,4.87305 c 1.6e-4,4.79079 7e-4,4.87611 0.0391,4.95117 0.045,0.0886 0.1422,0.17384 0.21875,0.19531 0.0295,0.008 0.56046,0.0156 1.18164,0.0156 1.08582,0 1.1318,-0.002 1.18946,-0.0391 0.0731,-0.0474 0.10824,-0.082 0.16015,-0.16016 0.0395,-0.0593 0.041,-0.10116 0.041,-4.96875 l 0,-0.002 c 0,-4.63507 -0.003,-4.91031 -0.0352,-4.97071 -0.0438,-0.0801 -0.14519,-0.15659 -0.23633,-0.17968 z m 4.95899,0.002 c -0.16288,-0.023 -3.03944,-0.02 -3.0586,0.004 -0.0186,0.0222 -0.0335,0.41727 -0.0215,0.5625 l 0.006,0.0859 0.3125,0 c 0.17204,3.3e-4 0.79301,3e-4 1.38086,0 0.65077,-2e-4 1.09737,0.007 1.14258,0.0195 0.05,0.0136 0.0879,0.0418 0.11523,0.0859 0.0497,0.0802 0.0763,0.22282 0.0449,0.24219 -0.0122,0.007 -0.0215,0.0362 -0.0215,0.0625 0,0.0307 -0.0256,0.065 -0.0684,0.0977 l -0.0664,0.0508 -1.41797,0 c -0.7805,0 -1.42315,0.006 -1.42773,0.008 -0.006,0.006 -0.007,0.15205 0.002,0.32617 l 0.0117,0.31641 1.4082,0.002 c 1.33872,6.5e-4 1.41268,0.004 1.47266,0.0371 0.11321,0.0667 0.15123,0.21874 0.0898,0.35742 -0.0717,0.16237 0.0201,0.1543 -1.57031,0.1543 -0.90808,0 -1.40977,0.006 -1.41406,0.0195 -0.006,0.0108 -0.007,0.16379 -0.002,0.33984 l 0.008,0.32032 1.5293,0 1.52929,0 0.11328,-0.0547 c 0.13326,-0.0631 0.2759,-0.20101 0.33594,-0.32617 0.10995,-0.22922 0.11544,-0.25428 0.11524,-0.50586 -1.8e-4,-0.23885 -0.002,-0.24484 -0.0742,-0.39258 -0.0405,-0.0824 -0.0949,-0.17642 -0.1211,-0.20898 l -0.0469,-0.0606 0.0527,-0.0801 c 0.0288,-0.0444 0.0562,-0.0863 0.0625,-0.0918 0.0353,-0.031 0.10727,-0.22781 0.125,-0.34179 0.006,-0.0465 0.0101,-0.0956 0.01,-0.14649 l 0,-0.002 c -0.003,-0.22054 -0.0725,-0.46818 -0.18555,-0.62891 -0.0823,-0.117 -0.25721,-0.23591 -0.37109,-0.25195 z m -6.07813,0.875 0.96875,0.006 0.006,0.29687 c 6.5e-4,0.0562 0.002,0.10347 0.002,0.14258 l 0,0.002 c -3.1e-4,0.11732 -0.006,0.16244 -0.0215,0.17187 -0.0139,0.009 -0.17832,0.0166 -0.36523,0.0156 l -0.33985,-0.004 0,1.32422 0,1.32226 0.36133,0.004 0.35938,0.006 0,0.29883 0,0.30078 -0.99024,0 -0.98828,0 0,-0.30078 0,-0.29883 0.33984,-0.006 c 0.18693,-0.003 0.34764,-0.006 0.35938,-0.006 0.015,-3.1e-4 0.0227,-0.39683 0.0215,-1.31641 l -0.002,-1.31445 -0.36133,-0.01 c -0.19786,-0.006 -0.36052,-0.0136 -0.36328,-0.0156 -0.004,-0.003 -0.006,-0.13942 -0.006,-0.30469 0,-0.22195 0.005,-0.30152 0.0234,-0.30859 0.0138,-0.006 0.46285,-0.006 0.99609,-0.006 z m 1.88477,2.38281 c -0.0343,0.0342 -0.0553,1.78173 -0.0254,2.14063 0.0246,0.29802 0.0774,0.55395 0.125,0.60156 0.008,0.008 0.0156,0.0308 0.0156,0.0508 0,0.02 0.009,0.0371 0.0195,0.0371 0.0111,0 0.0195,0.0119 0.0195,0.0273 0,0.0518 0.17872,0.22925 0.25586,0.25391 0.0409,0.013 0.0833,0.0314 0.0937,0.041 0.0343,0.0318 0.19475,0.02 0.31836,-0.0254 0.11905,-0.0435 0.29007,-0.18707 0.34375,-0.28711 0.0305,-0.0568 0.0911,-0.17389 0.11133,-0.21485 0.01,-0.019 0.0176,-0.0502 0.0176,-0.0703 0,-0.0199 0.009,-0.0463 0.0215,-0.0586 0.0124,-0.0124 0.0306,-0.0617 0.041,-0.10938 0.0101,-0.0475 0.0264,-0.12319 0.0371,-0.16992 0.0102,-0.0467 0.0287,-0.12319 0.0391,-0.16992 0.0607,-0.27887 0.0867,-0.35934 0.1543,-0.45117 0.0567,-0.0769 0.13332,-0.0863 0.16797,-0.0215 0.0661,0.12336 0.0821,0.34382 0.0879,1.17383 l 0.006,0.82812 0.18164,0.0742 c 0.10024,0.0414 0.18651,0.0687 0.1914,0.0606 0.0141,-0.0231 0.0379,-0.50546 0.0391,-0.81055 0.003,-0.3477 -0.026,-0.84022 -0.0664,-1.13867 -0.0617,-0.45927 -0.17487,-0.78331 -0.32812,-0.94531 -0.16159,-0.1708 -0.45207,-0.12128 -0.625,0.10547 -0.063,0.0822 -0.14844,0.24491 -0.14844,0.28125 0,0.0133 -0.0129,0.0352 -0.0293,0.0488 -0.0164,0.0138 -0.0293,0.0415 -0.0293,0.0625 0,0.0209 -0.01,0.0531 -0.0195,0.0723 -0.01,0.019 -0.0329,0.0884 -0.0527,0.1543 -0.0197,0.066 -0.0438,0.12822 -0.0527,0.13867 -0.009,0.0103 -0.0157,0.0395 -0.0156,0.0644 0,0.0247 -0.009,0.05 -0.0195,0.0566 -0.0112,0.006 -0.0215,0.028 -0.0215,0.0469 0,0.0189 -0.0245,0.0655 -0.0547,0.10156 -0.0648,0.0773 -0.10898,0.0698 -0.16016,-0.0254 -0.029,-0.0536 -0.0317,-0.12391 -0.0293,-0.50195 0.003,-0.24189 0.009,-0.47554 0.0156,-0.51953 0.006,-0.0438 0.0198,-0.16083 0.0293,-0.25977 0.01,-0.099 0.0234,-0.23462 0.0312,-0.30078 l 0.0137,-0.12109 -0.13672,-0.0449 c -0.0755,-0.025 -0.15576,-0.0529 -0.17774,-0.0625 -0.12198,-0.0522 -0.37181,-0.12618 -0.38476,-0.11328 z m 4.43359,0.0137 c -0.0882,-6.3e-4 -0.22789,0.0653 -0.25781,0.12305 -0.021,0.0403 -0.0784,0.19124 -0.082,0.21485 -6.5e-4,0.006 0.0151,0.0496 0.0332,0.0996 0.0593,0.16134 0.16878,0.23992 0.33399,0.24024 0.0758,1.6e-4 0.1973,-0.0704 0.23632,-0.13672 0.0173,-0.0293 0.0374,-0.0942 0.0449,-0.14453 0.003,-0.012 0.006,-0.0252 0.006,-0.0391 l -0.002,0 c 0.005,-0.0955 -0.0256,-0.21875 -0.0547,-0.21875 -0.0105,0 -0.0195,-0.0143 -0.0195,-0.0312 0,-0.04 -0.14939,-0.10684 -0.23828,-0.10743 z m -1.96094,0.0176 0,0.32032 0,0.32031 0.69922,0 0.69727,0 0.0606,-0.0625 c 0.0547,-0.0559 0.0818,-0.14843 0.082,-0.24414 1.8e-4,-0.0957 -0.0271,-0.19534 -0.082,-0.26172 l -0.0606,-0.0723 -0.69727,0 -0.69922,0 z m 1.19141,0.79688 c -0.10189,-0.005 -0.36362,0.0634 -0.49023,0.125 -0.23544,0.11471 -0.44875,0.36554 -0.55079,0.64844 -0.0643,0.17852 -0.0958,0.66845 -0.0586,0.91992 0.009,0.059 0.0323,0.0987 0.0918,0.15429 0.0752,0.0702 0.089,0.0742 0.20508,0.0742 0.11489,0 0.12918,-0.005 0.18359,-0.0644 0.10354,-0.11423 0.10905,-0.13554 0.10937,-0.43945 1.6e-4,-0.17633 0.0102,-0.3122 0.0254,-0.35547 0.0802,-0.22511 0.24239,-0.33985 0.48242,-0.33985 0.27506,0 0.45871,0.16121 0.5,0.43946 0.0114,0.0763 0.0211,0.2525 0.0293,0.55468 0.002,0.0454 0.022,0.0847 0.0723,0.13477 0.0678,0.0678 0.0764,0.0703 0.2168,0.0703 0.1414,0 0.14774,-0.002 0.21875,-0.0723 0.0565,-0.0565 0.0737,-0.0894 0.0742,-0.14453 0.002,-0.0867 0.003,-0.17646 0.002,-0.26172 -0.003,-0.25572 -0.0115,-0.4774 -0.0215,-0.49024 -0.01,-0.0115 -0.0229,-0.0512 -0.0312,-0.0898 -0.0565,-0.26535 -0.28626,-0.58139 -0.51171,-0.70313 -0.0349,-0.0187 -0.0724,-0.0454 -0.084,-0.0566 -0.0115,-0.0114 -0.0412,-0.0195 -0.0644,-0.0195 -0.0232,0 -0.0503,-0.007 -0.0606,-0.0176 -0.0156,-0.0145 -0.2659,-0.064 -0.33789,-0.0664 z m -5.57617,1.46094 c 0.82781,3.3e-4 0.84635,0.004 0.91601,0.0996 0.0661,0.0918 0.0824,0.11337 0.084,0.91211 l 0.006,0 c 3.3e-4,0.26625 -5.7e-4,0.61973 -0.004,1.08985 l -0.006,1.78906 -0.25586,0.006 c -0.14018,0.005 -0.25501,-0.002 -0.25586,-0.01 -6.6e-4,-0.009 -0.005,-0.73256 -0.006,-1.60742 -0.005,-1.45968 -0.006,-1.59225 -0.0371,-1.62304 -0.0294,-0.0294 -0.0877,-0.0352 -0.44531,-0.0352 -0.38543,0 -0.41026,0.003 -0.42969,0.0391 -0.0138,0.0257 -0.0215,0.5676 -0.0215,1.61719 0,1.32385 -0.006,1.58219 -0.0273,1.60156 -0.0185,0.0152 -0.10796,0.0212 -0.26563,0.0176 l -0.23633,-0.006 -0.006,-1.81055 c -0.003,-0.99501 0.004,-1.8214 0.008,-1.83789 0.0385,-0.10583 0.0777,-0.16473 0.13672,-0.20117 0.0653,-0.0403 0.0928,-0.0412 0.8457,-0.041 z m 4.43164,0.62109 0,0.31055 0,0.31054 0.77344,0 c 0.77345,0 0.77392,-7.8e-4 0.84179,0.0449 0.12369,0.0833 0.16354,0.23357 0.10938,0.41993 -0.0447,0.15348 -0.09,0.19298 -0.21875,0.19336 -0.12516,3.3e-4 -0.13829,0.009 -0.20117,0.12695 -0.0818,0.15394 -0.066,0.35186 0.0371,0.46875 0.0345,0.0391 0.0573,0.0452 0.18945,0.0449 0.15604,-3.4e-4 0.26089,-0.0282 0.39453,-0.10156 0.11379,-0.0626 0.17364,-0.13394 0.25977,-0.31055 l 0.0781,-0.1582 -0.002,-0.33008 c -0.002,-0.30795 -0.006,-0.33948 -0.0566,-0.48828 -0.069,-0.19711 -0.14204,-0.30578 -0.26563,-0.39453 -0.18931,-0.13594 -0.18517,-0.13672 -1.10742,-0.13672 l -0.83203,0 z m -2.56641,0.45508 0.0117,0.4375 c 0.006,0.24052 0.0206,0.48641 0.0312,0.54687 0.0102,0.0606 0.0196,0.16451 0.0215,0.23047 0.002,0.066 0.009,0.14671 0.0176,0.17969 0.009,0.0329 0.0306,0.16457 0.0488,0.29101 0.0184,0.12644 0.0427,0.2518 0.0527,0.2793 0.0102,0.0274 0.0216,0.0764 0.0254,0.10938 0.006,0.0575 0.0345,0.17028 0.0742,0.30078 0.0102,0.0338 0.0176,0.077 0.0176,0.0957 0,0.0187 0.008,0.0493 0.0176,0.0684 0.01,0.019 0.0338,0.0754 0.0527,0.125 0.0534,0.14003 0.0726,0.18711 0.0918,0.22461 0.01,0.0191 0.0176,0.0498 0.0176,0.0664 0,0.0166 0.009,0.0293 0.0195,0.0293 0.0109,0 0.0327,0.0314 0.0488,0.0703 0.0951,0.22781 0.3378,0.48216 0.55859,0.58594 0.0963,0.0452 0.3125,0.0616 0.3125,0.0234 0,-0.0111 0.0201,-0.0193 0.0449,-0.0195 0.13119,-6.5e-4 0.43112,-0.41692 0.43359,-0.56445 l 0,-0.002 c 6.3e-4,-0.0211 -0.005,-0.0366 -0.0176,-0.0449 -0.0111,-0.006 -0.0195,-0.0385 -0.0195,-0.0703 0,-0.0319 -0.01,-0.0823 -0.0215,-0.11328 -0.0118,-0.0308 -0.0252,-0.0779 -0.0293,-0.10547 -0.006,-0.0275 -0.0165,-0.0784 -0.0273,-0.11133 -0.0497,-0.15246 -0.0625,-0.20527 -0.0625,-0.25391 0,-0.0288 -0.008,-0.0564 -0.0176,-0.0625 -0.01,-0.006 -0.0238,-0.0466 -0.0312,-0.0879 -0.007,-0.0414 -0.0217,-0.10178 -0.0312,-0.13476 -0.0396,-0.13627 -0.0609,-0.2216 -0.0664,-0.26563 -0.006,-0.0412 -0.0183,-0.0479 -0.10742,-0.0527 -0.15202,-0.008 -0.28439,-0.1169 -0.35547,-0.29102 -0.006,-0.0164 -0.0212,-0.0454 -0.0312,-0.0644 -0.0101,-0.0191 -0.0195,-0.0527 -0.0195,-0.0742 0,-0.0215 -0.008,-0.0428 -0.0176,-0.0488 -0.01,-0.006 -0.0211,-0.0466 -0.0273,-0.0879 -0.006,-0.0414 -0.0216,-0.12311 -0.0332,-0.18359 -0.0113,-0.0605 -0.0338,-0.23244 -0.0508,-0.38086 -0.0347,-0.30298 -0.053,-0.35938 -0.10937,-0.35938 -0.0216,0 -0.0442,-0.009 -0.0508,-0.0195 -0.006,-0.0112 -0.0298,-0.0195 -0.0508,-0.0195 -0.0209,0 -0.0717,-0.0152 -0.11329,-0.0332 -0.0414,-0.018 -0.0932,-0.0403 -0.11523,-0.0488 -0.0779,-0.0314 -0.40011,-0.1416 -0.44531,-0.15234 l -0.0469,-0.0117 z m 1.91016,0.68945 c -0.006,0.006 -0.0181,0.11514 -0.0293,0.24609 -0.0114,0.13095 -0.0303,0.24709 -0.041,0.25782 -0.0349,0.0349 -0.0195,0.0962 0.0469,0.19922 0.0745,0.1157 0.0975,0.15543 0.14453,0.24609 0.0186,0.0356 0.0402,0.0664 0.0488,0.0664 0.009,0 0.0223,0.0159 0.0293,0.0352 0.0229,0.0641 0.10674,0.18916 0.11523,0.17188 0.006,-0.01 0.0105,-0.0709 0.0137,-0.13672 0.005,-0.066 0.0148,-0.13392 0.0234,-0.15039 0.009,-0.0164 0.0161,-0.20846 0.0176,-0.42578 6.5e-4,-0.0909 10e-4,-0.16052 0,-0.21485 -0.002,-0.16304 -0.009,-0.18347 -0.0332,-0.1914 -0.0198,-0.006 -0.054,-0.0197 -0.0762,-0.0293 -0.0769,-0.0334 -0.25105,-0.0831 -0.25976,-0.0742 z m 1.67187,0.89844 c -0.28121,0.0234 -0.30041,0.0291 -0.5039,0.12695 -0.10281,0.0497 -0.29688,0.21246 -0.29688,0.25 0,0.009 -0.011,0.0285 -0.0254,0.043 -0.0366,0.0369 -0.0937,0.15588 -0.0937,0.19531 0,0.0181 -0.009,0.0416 -0.0195,0.0527 -0.0222,0.0221 -0.0608,0.41458 -0.0469,0.47851 0.006,0.0221 0.0131,0.0908 0.0195,0.1543 0.006,0.0635 0.0198,0.12111 0.0293,0.12695 0.01,0.006 0.0176,0.0278 0.0176,0.0488 0,0.0619 0.11022,0.24043 0.20899,0.33984 0.0791,0.0797 0.20159,0.15049 0.36132,0.21094 0.26525,0.10036 0.71749,0.0885 1.00977,-0.0273 0.29875,-0.11827 0.46224,-0.30491 0.55859,-0.63477 0.01,-0.0318 0.0145,-0.11911 0.0156,-0.22265 0.003,-0.17258 -0.006,-0.38878 -0.0234,-0.45704 -0.0545,-0.21887 -0.25676,-0.45914 -0.47461,-0.5664 -0.19709,-0.097 -0.46682,-0.14157 -0.73633,-0.11914 z m -1.84179,0.0176 c -0.0116,10e-4 -0.0265,0.0126 -0.0391,0.0332 -0.022,0.0366 -0.0206,0.0498 0.0195,0.16406 0.0138,0.0385 0.033,0.0893 0.041,0.11133 0.008,0.0222 0.0278,0.0836 0.0449,0.13867 0.0602,0.19183 0.11923,0.36007 0.13672,0.39453 0.01,0.019 0.0171,0.0509 0.0176,0.0703 3.4e-4,0.0195 0.013,0.0529 0.0293,0.0742 0.0163,0.0212 0.0293,0.0605 0.0293,0.0859 0,0.0277 0.0132,0.0449 0.0312,0.0449 0.0169,0 0.0293,-0.0183 0.0293,-0.041 0,-0.0222 0.0145,-0.0728 0.0312,-0.11328 0.014,-0.034 0.0201,-0.0545 0.0195,-0.0742 -0.001,-0.019 -0.009,-0.0389 -0.0254,-0.0703 -0.0198,-0.039 -0.0389,-0.0744 -0.0449,-0.0801 -0.006,-0.006 -0.0239,-0.0502 -0.0391,-0.0996 -0.0151,-0.0496 -0.0401,-0.10373 -0.0547,-0.1211 -0.0146,-0.0174 -0.0254,-0.0436 -0.0254,-0.0566 0,-0.013 -0.007,-0.0376 -0.0176,-0.0566 -0.01,-0.0191 -0.0281,-0.0583 -0.0391,-0.0859 -0.011,-0.0275 -0.0435,-0.0975 -0.0723,-0.15625 -0.0288,-0.0587 -0.0527,-0.1193 -0.0527,-0.13477 0,-0.0195 -0.008,-0.0286 -0.0195,-0.0273 z m 1.95312,0.55859 c 0.20751,-6.5e-4 0.29152,0.0143 0.40235,0.0762 0.1003,0.0558 0.17963,0.26514 0.17578,0.42383 -6.5e-4,0.0366 -0.007,0.0709 -0.0176,0.0996 -0.006,0.0164 -0.0164,0.0557 -0.0234,0.0879 -0.0154,0.07 -0.16296,0.21289 -0.2207,0.21289 -0.0224,0 -0.0511,0.009 -0.0625,0.0195 -0.0274,0.0273 -0.46666,0.0276 -0.49414,0 -0.0114,-0.0114 -0.0346,-0.0195 -0.0508,-0.0195 -0.064,0 -0.16012,-0.10117 -0.20118,-0.21094 -0.0439,-0.11761 -0.0576,-0.3566 -0.0215,-0.3789 0.0112,-0.006 0.0195,-0.0315 0.0195,-0.0547 0,-0.0654 0.0905,-0.16635 0.18945,-0.21289 0.0738,-0.0347 0.12785,-0.0424 0.30469,-0.043 z"
       id="path4082"
       inkscape:connector-curvature="0" />
    <path
       style="fill:#ffffff"
       d="m 398.1703,519.60195 c -0.14553,0 -0.46552,0.0708 -0.6543,0.14453 -0.10954,0.0426 -0.32538,0.16763 -0.41992,0.24414 -0.2923,0.23655 -0.51257,0.58019 -0.61133,0.95312 -0.0445,0.1678 -0.0478,0.2171 -0.041,0.4668 0.006,0.22961 0.0167,0.31332 0.0605,0.46094 0.0895,0.30186 0.25469,0.57278 0.48438,0.79687 0.11733,0.11448 0.39542,0.29102 0.45703,0.29102 0.0329,0 0.0349,-0.0149 0.0254,-0.18359 -0.0102,-0.18137 -0.0126,-0.18733 -0.0781,-0.23633 -0.0366,-0.0274 -0.13119,-0.11524 -0.21094,-0.19532 -0.16643,-0.16715 -0.31057,-0.426 -0.35742,-0.64453 -0.0365,-0.17019 -0.0356,-0.4978 0.002,-0.65625 0.0462,-0.19659 0.19766,-0.46863 0.34766,-0.62695 0.26864,-0.28351 0.53412,-0.40448 0.9414,-0.42773 0.26941,-0.0152 0.46274,0.0235 0.69727,0.13867 0.141,0.0691 0.20622,0.11884 0.35547,0.26758 0.14988,0.14936 0.19753,0.21283 0.26367,0.34961 0.10329,0.21361 0.14245,0.37828 0.14453,0.62695 0.003,0.20642 -0.0188,0.3398 -0.0703,0.48437 -0.0925,0.25947 -0.35502,0.57892 -0.58203,0.70703 l -0.10938,0.0606 0,0.18945 c 0,0.21337 0.007,0.21662 0.14648,0.14454 0.34012,-0.17351 0.61641,-0.43733 0.77149,-0.73633 0.13521,-0.26062 0.18591,-0.45235 0.19726,-0.75196 0.002,-0.0366 0.003,-0.0709 0.004,-0.10351 l -0.002,0 c 0.004,-0.22833 -0.0211,-0.37528 -0.0899,-0.58203 -0.15647,-0.47092 -0.54838,-0.86878 -1.03711,-1.05274 -0.18675,-0.0702 -0.47588,-0.1289 -0.63476,-0.1289 z m -0.47461,0.90234 c -0.15656,-0.006 -0.29785,-0.004 -0.31445,0.006 -0.0262,0.0102 -0.0293,0.12597 -0.0293,0.89258 0,0.82503 0.004,0.87904 0.0352,0.8789 0.0193,0 0.0811,-0.005 0.13867,-0.0117 l 0.10547,-0.0137 0.006,-0.71093 0.006,-0.71289 0.11718,0 c 0.10592,0 0.12232,0.006 0.16016,0.0566 0.0401,0.0535 0.0417,0.081 0.043,0.56054 0.002,0.35535 0.01,0.52018 0.0273,0.5625 0.0688,0.16433 0.20206,0.21673 0.5293,0.20703 0.20206,-0.006 0.23296,-0.0118 0.29883,-0.0566 0.0411,-0.0279 0.0945,-0.0905 0.11914,-0.14062 0.0322,-0.0656 0.0394,-0.0912 0.0391,-0.3418 l 0,-0.002 c -8e-5,-0.0835 -0.002,-0.19291 -0.004,-0.33594 -0.005,-0.32327 -0.0128,-0.60587 -0.0215,-0.6289 -0.0401,-0.10301 -0.15686,-0.179 -0.30469,-0.20118 -0.15893,-0.0238 -0.17578,-0.01 -0.17578,0.14844 l 0,0.13672 0.0898,0.0137 c 0.14862,0.0222 0.15119,0.0333 0.14454,0.56641 -0.006,0.5615 6.8e-4,0.54297 -0.23633,0.54297 -0.14405,0 -0.15886,-0.006 -0.19727,-0.0527 -0.0392,-0.0499 -0.0398,-0.0777 -0.041,-0.55469 -6.4e-4,-0.52358 -0.0136,-0.60669 -0.0937,-0.69531 -0.0794,-0.0878 -0.14421,-0.10479 -0.44141,-0.11328 z"
       id="path4101"
       inkscape:connector-curvature="0" />
  </g>
</svg>
