<?xml version="1.0" encoding="UTF-8" standalone="no"?>
<!-- Created with Inkscape (http://www.inkscape.org/) -->

<svg
   xmlns:dc="http://purl.org/dc/elements/1.1/"
   xmlns:cc="http://creativecommons.org/ns#"
   xmlns:rdf="http://www.w3.org/1999/02/22-rdf-syntax-ns#"
   xmlns:svg="http://www.w3.org/2000/svg"
   xmlns="http://www.w3.org/2000/svg"
   xmlns:xlink="http://www.w3.org/1999/xlink"
   xmlns:sodipodi="http://sodipodi.sourceforge.net/DTD/sodipodi-0.dtd"
   xmlns:inkscape="http://www.inkscape.org/namespaces/inkscape"
   width="48"
   height="48"
   id="svg5453"
   version="1.1"
   inkscape:version="0.48+devel r12886"
   sodipodi:docname="application-x-cd-image.svg"
   viewBox="0 0 48 48">
  <defs
     id="defs5455">
    <linearGradient
       id="linearGradient5057">
      <stop
         id="stop5059"
         offset="0"
         style="stop-color:#f8c5c0;stop-opacity:1" />
      <stop
         id="stop5061"
         offset="1"
         style="stop-color:#fff8f5;stop-opacity:1" />
    </linearGradient>
    <linearGradient
       gradientTransform="matrix(-1,0,0,-1,877.14287,1410.1594)"
       y2="862.36139"
       x2="472.50894"
       y1="871.36139"
       x1="458.57144"
       gradientUnits="userSpaceOnUse"
       id="linearGradient4786"
       xlink:href="#linearGradient4788"
       inkscape:collect="always" />
    <linearGradient
       id="linearGradient4788"
       inkscape:collect="always">
      <stop
         id="stop4790"
         offset="0"
         style="stop-color:#000000;stop-opacity:1" />
      <stop
         id="stop4792"
         offset="1"
         style="stop-color:#000000;stop-opacity:0" />
    </linearGradient>
    <linearGradient
       gradientUnits="userSpaceOnUse"
       y2="33.999271"
       x2="42.956738"
       y1="48.000004"
       x1="42.956738"
       id="linearGradient4439"
       xlink:href="#linearGradient4433"
       inkscape:collect="always"
       gradientTransform="translate(384.57143,499.798)" />
    <linearGradient
       id="linearGradient4433"
       inkscape:collect="always">
      <stop
         id="stop4435"
         offset="0"
         style="stop-color:#2b3141;stop-opacity:1" />
      <stop
         id="stop4437"
         offset="1"
         style="stop-color:#394056;stop-opacity:1" />
    </linearGradient>
    <linearGradient
       gradientUnits="userSpaceOnUse"
       y2="862.36255"
       x2="458.57144"
       y1="869.36218"
       x1="465.57108"
       id="linearGradient4219"
       xlink:href="#linearGradient4278"
       inkscape:collect="always"
       gradientTransform="translate(-40.000013,-328.56418)" />
    <linearGradient
       id="linearGradient4278">
      <stop
         id="stop4280"
         offset="0"
         style="stop-color:#e95143;stop-opacity:1" />
      <stop
         id="stop4282"
         offset="1"
         style="stop-color:#feb492;stop-opacity:1" />
    </linearGradient>
    <linearGradient
       inkscape:collect="always"
       xlink:href="#linearGradient943-6"
       id="linearGradient4117"
       gradientUnits="userSpaceOnUse"
       gradientTransform="translate(319.67799,501.28999)"
       x1="92.14286"
       y1="-1049.092"
       x2="92.14286"
       y2="-1001.0899" />
    <linearGradient
       id="linearGradient943-6">
      <stop
         style="stop-color:#e63c2d;stop-opacity:1"
         offset="0"
         id="stop945-4" />
      <stop
         style="stop-color:#fd7233;stop-opacity:1"
         offset="1"
         id="stop947-3" />
    </linearGradient>
    <linearGradient
       inkscape:collect="always"
       xlink:href="#linearGradient5057"
       id="linearGradient5055"
       x1="23.999981"
       y1="39.000034"
       x2="23.999981"
       y2="9.0000353"
       gradientUnits="userSpaceOnUse" />
  </defs>
  <sodipodi:namedview
     id="base"
     pagecolor="#ffffff"
     bordercolor="#666666"
     borderopacity="1.0"
     inkscape:pageopacity="0"
     inkscape:pageshadow="2"
     inkscape:zoom="11.446291"
     inkscape:cx="21.8278"
     inkscape:cy="13.586239"
     inkscape:document-units="px"
     inkscape:current-layer="layer1"
     showgrid="false"
     fit-margin-top="0"
     fit-margin-left="0"
     fit-margin-right="0"
     fit-margin-bottom="0"
     inkscape:window-width="1366"
     inkscape:window-height="671"
     inkscape:window-x="0"
     inkscape:window-y="24"
     inkscape:window-maximized="1">
    <sodipodi:guide
       position="8.9999811,38.999965"
       orientation="30,0"
       id="guide4826" />
    <sodipodi:guide
       position="8.9999811,8.9999653"
       orientation="0,30"
       id="guide4828" />
    <sodipodi:guide
       position="38.999981,8.9999653"
       orientation="-30,0"
       id="guide4830" />
    <sodipodi:guide
       position="38.999981,38.999965"
       orientation="0,-30"
       id="guide4832" />
    <sodipodi:guide
       position="1.1650391e-05,2.6367188e-05"
       orientation="-48,0"
       id="guide4836" />
    <sodipodi:guide
       position="1.1650391e-05,48.000026"
       orientation="0,48"
       id="guide4838" />
    <sodipodi:guide
       position="48.000012,48.000026"
       orientation="48,0"
       id="guide4840" />
    <sodipodi:guide
       position="48.000012,2.6367188e-05"
       orientation="0,-48"
       id="guide4842" />
    <sodipodi:guide
       position="8.9999811,38.999965"
       orientation="15,0"
       id="guide4921" />
    <sodipodi:guide
       position="8.9999811,23.999965"
       orientation="0,15"
       id="guide4923" />
    <sodipodi:guide
       position="23.999981,23.999965"
       orientation="-15,0"
       id="guide4925" />
    <sodipodi:guide
       position="23.999981,38.999965"
       orientation="0,-15"
       id="guide4927" />
    <sodipodi:guide
       position="8.9999811,27.999599"
       orientation="4,0"
       id="guide4931" />
    <sodipodi:guide
       position="8.9999811,23.999599"
       orientation="0,15"
       id="guide4933" />
    <sodipodi:guide
       position="23.999981,23.999599"
       orientation="-4,0"
       id="guide4935" />
    <sodipodi:guide
       position="23.999981,27.999599"
       orientation="0,-15"
       id="guide4937" />
    <sodipodi:guide
       position="8.9999811,38.999965"
       orientation="4,0"
       id="guide4941" />
    <sodipodi:guide
       position="8.9999811,34.999965"
       orientation="0,15"
       id="guide4943" />
    <sodipodi:guide
       position="23.999981,34.999965"
       orientation="-4,0"
       id="guide4945" />
    <sodipodi:guide
       position="23.999981,38.999965"
       orientation="0,-15"
       id="guide4947" />
    <sodipodi:guide
       position="20.000042,38.999965"
       orientation="15.000366,0"
       id="guide4953" />
    <sodipodi:guide
       position="20.000042,23.999599"
       orientation="0,4"
       id="guide4955" />
    <sodipodi:guide
       position="24.000042,23.999599"
       orientation="-15.000366,0"
       id="guide4957" />
    <sodipodi:guide
       position="24.000042,38.999965"
       orientation="0,-4"
       id="guide4959" />
    <sodipodi:guide
       position="8.9999811,38.999965"
       orientation="15.000366,0"
       id="guide4961" />
    <sodipodi:guide
       position="8.9999811,23.999599"
       orientation="0,4"
       id="guide4963" />
    <sodipodi:guide
       position="12.999981,23.999599"
       orientation="-15.000366,0"
       id="guide4965" />
    <sodipodi:guide
       position="12.999981,38.999965"
       orientation="0,-4"
       id="guide4967" />
    <sodipodi:guide
       position="24.00039,11.99999"
       orientation="0,0"
       id="guide4980" />
    <sodipodi:guide
       position="22.499981,11.999965"
       orientation="3,0"
       id="guide4986" />
    <sodipodi:guide
       position="22.499981,8.9999653"
       orientation="0,3"
       id="guide4988" />
    <sodipodi:guide
       position="25.499981,8.9999653"
       orientation="-3,0"
       id="guide4990" />
    <sodipodi:guide
       position="25.499981,11.999965"
       orientation="0,-3"
       id="guide4992" />
  </sodipodi:namedview>
  <metadata
     id="metadata5458">
    <rdf:RDF>
      <cc:Work
         rdf:about="">
        <dc:format>image/svg+xml</dc:format>
        <dc:type
           rdf:resource="http://purl.org/dc/dcmitype/StillImage" />
        <dc:title />
      </cc:Work>
    </rdf:RDF>
  </metadata>
  <g
     inkscape:label="Capa 1"
     inkscape:groupmode="layer"
     id="layer1"
     transform="translate(-384.57143,-499.798)">
    <rect
       style="fill:url(#linearGradient4117);fill-opacity:1;stroke:none"
       id="rect2991-1-7-3"
       width="48"
       height="48"
       x="384.57144"
       y="-547.79797"
       ry="1.9445436"
       transform="scale(1,-1)" />
    <path
       id="path5069"
       d="m 408.57534,509.998 c -8.28624,0 -15.00391,6.7148 -15.00391,14.99805 0,8.28475 6.71767,15.00195 15.00391,15.00195 8.28325,0 14.99609,-6.7172 14.99609,-15.00195 0,-8.28325 -6.71284,-14.99805 -14.99609,-14.99805 z m -0.004,3 0,6.5 c -2.39356,8.4e-4 -4.42612,1.53369 -5.18164,3.66797 l -6.12891,-2.16797 c 1.89543,-5.20686 6.60865,-8 11.31055,-8 z m 4.70117,0.85742 2.59766,1.5 -3.98242,5.26172 c -0.18032,-0.13633 -0.36758,-0.26689 -0.56836,-0.38281 -0.19955,-0.11521 -0.40439,-0.21123 -0.61133,-0.29883 l 2.56445,-6.08008 z m -4.69922,6.64258 c 2.48249,0 4.49805,2.01667 4.49805,4.5 0,2.48467 -2.01556,4.5 -4.49805,4.5 -2.48514,0 -4.50195,-2.01533 -4.50195,-4.5 0,-2.48333 2.01681,-4.5 4.50195,-4.5 z m 0.002,2.5 c -1.09908,0 -2.00391,0.89453 -2.00391,2 0,1.10077 0.90483,2 2.00391,2 1.10378,0 1.99609,-0.89923 1.99609,-2 0,-1.10547 -0.89231,-2 -1.99609,-2 z m 3.3125,6.38086 3.98242,5.26172 -2.59766,1.5 -2.56445,-6.08008 c 0.20823,-0.088 0.41445,-0.18486 0.61523,-0.30078 0.19955,-0.11521 0.38513,-0.24545 0.56446,-0.38086 z"
       style="fill:#000000;fill-opacity:0.05882353;fill-rule:nonzero;stroke:none"
       inkscape:connector-curvature="0" />
    <path
       inkscape:connector-curvature="0"
       style="fill:#000000;fill-opacity:0.11764706;fill-rule:nonzero;stroke:none"
       d="m 408.57534,509.598 c -8.28624,0 -15.00391,6.7148 -15.00391,14.99805 0,8.28475 6.71767,15.00195 15.00391,15.00195 8.28325,0 14.99609,-6.7172 14.99609,-15.00195 0,-8.28325 -6.71284,-14.99805 -14.99609,-14.99805 z m -0.004,3 0,6.5 c -2.39356,8.4e-4 -4.42612,1.53369 -5.18164,3.66797 l -6.12891,-2.16797 c 1.89543,-5.20686 6.60865,-8 11.31055,-8 z m 4.70117,0.85742 2.59766,1.5 -3.98242,5.26172 c -0.18032,-0.13633 -0.36758,-0.26689 -0.56836,-0.38281 -0.19955,-0.11521 -0.40439,-0.21123 -0.61133,-0.29883 l 2.56445,-6.08008 z m -4.69922,6.64258 c 2.48249,0 4.49805,2.01667 4.49805,4.5 0,2.48467 -2.01556,4.5 -4.49805,4.5 -2.48514,0 -4.50195,-2.01533 -4.50195,-4.5 0,-2.48333 2.01681,-4.5 4.50195,-4.5 z m 0.002,2.5 c -1.09908,0 -2.00391,0.89453 -2.00391,2 0,1.10077 0.90483,2 2.00391,2 1.10378,0 1.99609,-0.89923 1.99609,-2 0,-1.10547 -0.89231,-2 -1.99609,-2 z m 3.3125,6.38086 3.98242,5.26172 -2.59766,1.5 -2.56445,-6.08008 c 0.20823,-0.088 0.41445,-0.18486 0.61523,-0.30078 0.19955,-0.11521 0.38513,-0.24545 0.56446,-0.38086 z"
       id="path5067" />
    <path
       id="path5063"
       d="m 408.57534,509.198 c -8.28624,0 -15.00391,6.7148 -15.00391,14.99805 0,8.28475 6.71767,15.00195 15.00391,15.00195 8.28325,0 14.99609,-6.7172 14.99609,-15.00195 0,-8.28325 -6.71284,-14.99805 -14.99609,-14.99805 z m -0.004,3 0,6.5 c -2.39356,8.4e-4 -4.42612,1.53369 -5.18164,3.66797 l -6.12891,-2.16797 c 1.89543,-5.20686 6.60865,-8 11.31055,-8 z m 4.70117,0.85742 2.59766,1.5 -3.98242,5.26172 c -0.18032,-0.13633 -0.36758,-0.26689 -0.56836,-0.38281 -0.19955,-0.11521 -0.40439,-0.21123 -0.61133,-0.29883 l 2.56445,-6.08008 z m -4.69922,6.64258 c 2.48249,0 4.49805,2.01667 4.49805,4.5 0,2.48467 -2.01556,4.5 -4.49805,4.5 -2.48514,0 -4.50195,-2.01533 -4.50195,-4.5 0,-2.48333 2.01681,-4.5 4.50195,-4.5 z m 0.002,2.5 c -1.09908,0 -2.00391,0.89453 -2.00391,2 0,1.10077 0.90483,2 2.00391,2 1.10378,0 1.99609,-0.89923 1.99609,-2 0,-1.10547 -0.89231,-2 -1.99609,-2 z m 3.3125,6.38086 3.98242,5.26172 -2.59766,1.5 -2.56445,-6.08008 c 0.20823,-0.088 0.41445,-0.18486 0.61523,-0.30078 0.19955,-0.11521 0.38513,-0.24545 0.56446,-0.38086 z"
       style="fill:#000000;fill-opacity:0.23529412;fill-rule:nonzero;stroke:none"
       inkscape:connector-curvature="0" />
    <path
       style="fill:url(#linearGradient5055);fill-opacity:1;fill-rule:nonzero;stroke:none"
       d="M 24.003906 9 C 15.717666 9 9 15.714797 9 23.998047 C 9 32.282797 15.717666 39 24.003906 39 C 32.287156 39 39 32.282797 39 23.998047 C 39 15.714797 32.287156 9 24.003906 9 z M 24 12 L 24 18.5 C 21.60644 18.50084 19.573879 20.033689 18.818359 22.167969 L 12.689453 20 C 14.584883 14.79314 19.2981 12 24 12 z M 28.701172 12.857422 L 31.298828 14.357422 L 27.316406 19.619141 C 27.136086 19.482811 26.948827 19.352248 26.748047 19.236328 C 26.548497 19.121118 26.343659 19.0251 26.136719 18.9375 L 28.701172 12.857422 z M 24.001953 19.5 C 26.484443 19.5 28.5 21.51667 28.5 24 C 28.5 26.48467 26.484443 28.5 24.001953 28.5 C 21.516813 28.5 19.5 26.48467 19.5 24 C 19.5 21.51667 21.516813 19.5 24.001953 19.5 z M 24.003906 22 C 22.904826 22 22 22.89453 22 24 C 22 25.10077 22.904826 26 24.003906 26 C 25.107686 26 26 25.10077 26 24 C 26 22.89453 25.107686 22 24.003906 22 z M 27.316406 28.380859 L 31.298828 33.642578 L 28.701172 35.142578 L 26.136719 29.0625 C 26.344949 28.9745 26.551173 28.877639 26.751953 28.761719 C 26.951503 28.646509 27.137076 28.516269 27.316406 28.380859 z "
       transform="translate(384.57143,499.798)"
       id="path5041" />
    <path
       style="fill:#ff00ff;fill-opacity:1;fill-rule:nonzero;stroke:none"
       d="m 409.47573,518.37808 c 0.0416,0.007 0.0837,0.0117 0.125,0.0195 -0.0413,-0.008 -0.0834,-0.0126 -0.125,-0.0195 z"
       id="path5037" />
    <path
       style="fill:#ff00ff;fill-opacity:1;fill-rule:nonzero;stroke:none"
       d="m 410.41909,518.62222 c 0.0413,0.0148 0.0822,0.0292 0.12304,0.0449 -0.0408,-0.0157 -0.0818,-0.0302 -0.12304,-0.0449 z"
       id="path5035" />
    <path
       style="fill:#ff00ff;fill-opacity:1;fill-rule:nonzero;stroke:none"
       d="m 411.29409,519.02456 c 0.0373,0.0214 0.0727,0.0442 0.10937,0.0664 -0.0365,-0.022 -0.0723,-0.0452 -0.10937,-0.0664 z"
       id="path5033" />
    <path
       style="fill:#ff00ff;fill-opacity:1;fill-rule:nonzero;stroke:none"
       d="m 413.29604,520.99136 c 0.009,0.0143 0.017,0.0285 0.0254,0.043 -0.008,-0.0143 -0.0169,-0.0287 -0.0254,-0.043 z"
       id="path5029" />
    <path
       style="fill:#ff00ff;fill-opacity:1;fill-rule:nonzero;stroke:none"
       d="m 403.16127,522.83316 c -0.004,0.0201 -0.006,0.0404 -0.01,0.0605 0.003,-0.0201 0.006,-0.0405 0.01,-0.0605 z"
       id="path5023" />
    <path
       style="fill:#ff00ff;fill-opacity:1;fill-rule:nonzero;stroke:none"
       d="m 403.16127,524.7648 c 0.005,0.0266 0.009,0.0536 0.0137,0.0801 -0.005,-0.0265 -0.009,-0.0534 -0.0137,-0.0801 z"
       id="path5021" />
    <path
       style="fill:#ff00ff;fill-opacity:1;fill-rule:nonzero;stroke:none"
       d="m 403.42299,525.71597 c 0.0133,0.0357 0.025,0.0721 0.0391,0.10742 -0.0141,-0.0354 -0.0257,-0.0716 -0.0391,-0.10742 z"
       id="path5019" />
    <path
       style="fill:#ff00ff;fill-opacity:1;fill-rule:nonzero;stroke:none"
       d="m 403.85463,526.61441 c 0.0183,0.0305 0.0358,0.0617 0.0547,0.0918 -0.019,-0.0303 -0.0363,-0.0611 -0.0547,-0.0918 z"
       id="path5017" />
    <path
       style="fill:#ff00ff;fill-opacity:1;fill-rule:nonzero;stroke:none"
       d="m 404.43862,527.41714 c 0.0185,0.0211 0.0378,0.0417 0.0566,0.0625 -0.0189,-0.0209 -0.038,-0.0413 -0.0566,-0.0625 z"
       id="path5015" />
    <path
       inkscape:connector-curvature="0"
       style="fill:#ffffff;fill-opacity:0.5372549;stroke:none"
       d="m 387.10266,500.45432 c -0.91709,0 -1.67115,0.6395 -1.84375,1.5 0.33561,-0.2799 0.77451,-0.4375 1.25,-0.4375 l 44.125,0 c 0.47549,0 0.91439,0.1576 1.25,0.4375 -0.1726,-0.8605 -0.92666,-1.5 -1.84375,-1.5 l -42.9375,0 z"
       id="path7515-3" />
    <path
       inkscape:connector-curvature="0"
       style="fill:#000000;fill-opacity:0.39215686;stroke:none"
       d="m 386.50891,499.79802 c -1.07728,0 -1.9375,0.8602 -1.9375,1.9375 l 0,43.0625 c 0,0.7934 0.48002,1.449 1.15625,1.75 -0.30934,-0.3333 -0.5,-0.7824 -0.5,-1.2812 l 0,-42.9375 c 0,-1.0482 0.8269,-1.875 1.875,-1.875 l 42.9375,0 c 1.0481,0 1.875,0.8268 1.875,1.875 l 0,42.9375 c 0,0.4988 -0.19066,0.9479 -0.5,1.2812 0.67623,-0.301 1.15625,-0.9566 1.15625,-1.75 l 0,-43.0625 c 0,-1.0773 -0.86022,-1.9375 -1.9375,-1.9375 l -44.125,0 z"
       id="rect4280-1" />
    <path
       style="fill:#e9442e;fill-opacity:0.3137255;fill-rule:nonzero;stroke:none"
       d="M 24 11.199219 C 19.2981 11.199219 14.584883 13.992359 12.689453 19.199219 L 12.976562 19.300781 C 15.026817 14.547387 19.515041 12 24 12 L 24 11.199219 z M 28.701172 12.056641 L 26.136719 18.136719 C 26.231289 18.176751 26.322627 18.22886 26.416016 18.273438 L 28.701172 12.857422 L 30.876953 14.113281 L 31.298828 13.556641 L 28.701172 12.056641 z M 24.001953 18.699219 C 21.516813 18.699219 19.5 20.715889 19.5 23.199219 C 19.5 23.336161 19.529022 23.465777 19.541016 23.599609 C 19.747035 21.30661 21.654074 19.5 24.001953 19.5 C 26.347329 19.5 28.253096 21.30661 28.458984 23.599609 C 28.47097 23.465777 28.5 23.336161 28.5 23.199219 C 28.5 20.715889 26.484443 18.699219 24.001953 18.699219 z M 9.0195312 23.597656 C 9.0159753 23.73198 9 23.862865 9 23.998047 C 9 32.282797 15.717666 39 24.003906 39 C 32.287156 39 39 32.282797 39 23.998047 C 39 23.862865 38.984022 23.73198 38.980469 23.597656 C 38.766552 31.69576 32.152146 38.199219 24.003906 38.199219 C 15.852725 38.199219 9.2336009 31.69576 9.0195312 23.597656 z M 22.041016 23.601562 C 22.014874 23.730081 22 23.863799 22 24 C 22 25.10077 22.904826 26 24.003906 26 C 25.107686 26 26 25.10077 26 24 C 26 23.863799 25.984802 23.730081 25.958984 23.601562 C 25.7731 24.511111 24.969714 25.199219 24.003906 25.199219 C 23.042211 25.199219 22.229232 24.511111 22.041016 23.601562 z M 27.316406 27.580078 C 27.137076 27.715488 26.951503 27.845727 26.751953 27.960938 C 26.551173 28.076858 26.344949 28.173719 26.136719 28.261719 L 26.416016 28.925781 C 26.528311 28.872199 26.642343 28.825002 26.751953 28.761719 C 26.951503 28.646509 27.137076 28.516269 27.316406 28.380859 L 30.876953 33.085938 L 31.298828 32.841797 L 27.316406 27.580078 z "
       transform="translate(384.57143,499.798)"
       id="path5071" />
    <path
       style="fill:#ffffff;fill-opacity:0.23529412;fill-rule:nonzero;stroke:none"
       d="M 24.003906 9 C 15.717666 9 9 15.714797 9 23.998047 C 9 24.065979 9.0088652 24.1315 9.0097656 24.199219 C 9.1176409 16.008833 15.784952 9.4003906 24.003906 9.4003906 C 32.219894 9.4003906 38.882436 16.008833 38.990234 24.199219 C 38.991134 24.1315 39 24.065979 39 23.998047 C 39 15.714797 32.287156 9 24.003906 9 z M 31.087891 14.636719 L 27.316406 19.619141 C 27.136086 19.482811 26.948827 19.352248 26.748047 19.236328 C 26.594351 19.147592 26.435858 19.076748 26.277344 19.005859 L 26.136719 19.337891 C 26.343659 19.425491 26.548497 19.521509 26.748047 19.636719 C 26.948827 19.752639 27.136086 19.883201 27.316406 20.019531 L 31.298828 14.757812 L 31.087891 14.636719 z M 24 18.5 C 21.60644 18.50084 19.573879 20.033689 18.818359 22.167969 L 12.832031 20.050781 C 12.78544 20.168095 12.733091 20.280514 12.689453 20.400391 L 18.818359 22.568359 C 19.573879 20.434079 21.60644 18.901231 24 18.900391 L 24 18.5 z M 24.003906 22 C 22.904826 22 22 22.89453 22 24 C 22 24.068103 22.012773 24.132824 22.019531 24.199219 C 22.122469 23.189553 22.973157 22.400391 24.003906 22.400391 C 25.039063 22.400391 25.878883 23.189553 25.980469 24.199219 C 25.987139 24.132824 26 24.068103 26 24 C 26 22.89453 25.107686 22 24.003906 22 z M 19.519531 24.199219 C 19.516461 24.267346 19.5 24.331513 19.5 24.400391 C 19.5 26.885061 21.516813 28.900391 24.001953 28.900391 C 26.484443 28.900391 28.5 26.885061 28.5 24.400391 C 28.5 24.331513 28.483537 24.267346 28.480469 24.199219 C 28.373914 26.589425 26.41625 28.5 24.001953 28.5 C 21.585079 28.5 19.626153 26.589425 19.519531 24.199219 z M 26.277344 29.394531 C 26.230051 29.415669 26.184262 29.442798 26.136719 29.462891 L 28.701172 35.542969 L 31.298828 34.042969 L 31.087891 33.763672 L 28.701172 35.142578 L 26.277344 29.394531 z "
       transform="translate(384.57143,499.798)"
       id="path5076" />
    <path
       style="fill:url(#linearGradient4219);fill-opacity:1;stroke:none"
       d="m 418.57143,533.79727 0,14.00073 14,-14 z"
       id="path4130"
       inkscape:connector-curvature="0" />
    <path
       inkscape:connector-curvature="0"
       style="fill:url(#linearGradient4439);fill-opacity:1;stroke:none"
       d="m 432.57143,533.798 -14,14 12.05469,0 c 1.07728,0 1.94531,-0.86803 1.94531,-1.94531 l 0,-12.05469 z"
       id="path4303" />
    <path
       inkscape:connector-curvature="0"
       id="path4784"
       d="m 418.57143,547.798 0,-14.00073 -14,14 z"
       style="opacity:0.1;fill:url(#linearGradient4786);fill-opacity:1;stroke:none" />
    <path
       inkscape:connector-curvature="0"
       style="fill:#000000;fill-opacity:1;stroke:none"
       d="m 384.57141,544.79802 0,1.0625 c 0,1.0773 0.86022,1.9375 1.9375,1.9375 l 44.125,0 c 1.07728,0 1.9375,-0.8602 1.9375,-1.9375 l 0,-1.0625 c 0,1.0773 -0.86022,1.9375 -1.9375,1.9375 l -44.125,0 c -1.07728,0 -1.9375,-0.8602 -1.9375,-1.9375 z"
       id="rect846-0" />
  </g>
</svg>
