<?xml version="1.0" encoding="UTF-8" standalone="no"?>
<!-- Created with Inkscape (http://www.inkscape.org/) -->

<svg
   xmlns:dc="http://purl.org/dc/elements/1.1/"
   xmlns:cc="http://creativecommons.org/ns#"
   xmlns:rdf="http://www.w3.org/1999/02/22-rdf-syntax-ns#"
   xmlns:svg="http://www.w3.org/2000/svg"
   xmlns="http://www.w3.org/2000/svg"
   xmlns:xlink="http://www.w3.org/1999/xlink"
   xmlns:sodipodi="http://sodipodi.sourceforge.net/DTD/sodipodi-0.dtd"
   xmlns:inkscape="http://www.inkscape.org/namespaces/inkscape"
   width="48"
   height="48"
   id="svg4224"
   version="1.1"
   inkscape:version="0.48+devel r12903"
   sodipodi:docname="application-octet-stream.svg">
  <defs
     id="defs4226">
    <linearGradient
       inkscape:collect="always"
       id="linearGradient4411">
      <stop
         style="stop-color:#dadcde;stop-opacity:1"
         offset="0"
         id="stop4413" />
      <stop
         style="stop-color:#fafafa;stop-opacity:1"
         offset="1"
         id="stop4415" />
    </linearGradient>
    <linearGradient
       inkscape:collect="always"
       id="linearGradient4503">
      <stop
         style="stop-color:#90959c;stop-opacity:1"
         offset="0"
         id="stop4505" />
      <stop
         style="stop-color:#c4c8cc;stop-opacity:1"
         offset="1"
         id="stop4507" />
    </linearGradient>
    <linearGradient
       id="linearGradient4461"
       inkscape:collect="always">
      <stop
         id="stop4463"
         offset="0"
         style="stop-color:#45484d;stop-opacity:1" />
      <stop
         id="stop4465"
         offset="1"
         style="stop-color:#5e656b;stop-opacity:1" />
    </linearGradient>
    <linearGradient
       inkscape:collect="always"
       id="linearGradient4788">
      <stop
         style="stop-color:#000000;stop-opacity:1"
         offset="0"
         id="stop4790" />
      <stop
         style="stop-color:#000000;stop-opacity:0"
         offset="1"
         id="stop4792" />
    </linearGradient>
    <linearGradient
       inkscape:collect="always"
       id="linearGradient4433">
      <stop
         style="stop-color:#2b3141;stop-opacity:1"
         offset="0"
         id="stop4435" />
      <stop
         style="stop-color:#394056;stop-opacity:1"
         offset="1"
         id="stop4437" />
    </linearGradient>
    <linearGradient
       y2="-1001.0899"
       x2="92.14286"
       y1="-1049.092"
       x1="92.14286"
       gradientTransform="translate(-64.89343,-3.27419)"
       gradientUnits="userSpaceOnUse"
       id="linearGradient4117"
       xlink:href="#linearGradient4461"
       inkscape:collect="always" />
    <linearGradient
       gradientTransform="translate(1e-5,1004.3622)"
       inkscape:collect="always"
       xlink:href="#linearGradient4433"
       id="linearGradient4439"
       x1="42.956738"
       y1="48.000004"
       x2="42.956738"
       y2="33.999271"
       gradientUnits="userSpaceOnUse" />
    <linearGradient
       inkscape:collect="always"
       xlink:href="#linearGradient4788"
       id="linearGradient4786"
       gradientUnits="userSpaceOnUse"
       x1="458.57144"
       y1="871.36139"
       x2="472.50894"
       y2="862.36139"
       gradientTransform="matrix(-1,0,0,-1,492.57145,1914.7236)" />
    <linearGradient
       gradientTransform="translate(-424.57143,176.00001)"
       inkscape:collect="always"
       xlink:href="#linearGradient4503"
       id="linearGradient4219"
       x1="465.57108"
       y1="869.36218"
       x2="458.57144"
       y2="862.36255"
       gradientUnits="userSpaceOnUse" />
    <linearGradient
       inkscape:collect="always"
       xlink:href="#linearGradient4411"
       id="linearGradient4397"
       gradientUnits="userSpaceOnUse"
       x1="19.299431"
       y1="31.999981"
       x2="19.299431"
       y2="-1.8133333e-05"
       gradientTransform="matrix(0.9375,0,0,0.9375,9,1013.3622)" />
  </defs>
  <sodipodi:namedview
     id="base"
     pagecolor="#ffffff"
     bordercolor="#666666"
     borderopacity="1.0"
     inkscape:pageopacity="0.0"
     inkscape:pageshadow="2"
     inkscape:zoom="2.8328125"
     inkscape:cx="4.1027928"
     inkscape:cy="12.72564"
     inkscape:document-units="px"
     inkscape:current-layer="layer1"
     showgrid="false"
     width="0px"
     height="0px"
     fit-margin-top="0"
     fit-margin-left="0"
     fit-margin-right="0"
     fit-margin-bottom="0"
     inkscape:window-width="1366"
     inkscape:window-height="671"
     inkscape:window-x="0"
     inkscape:window-y="24"
     inkscape:window-maximized="1">
    <sodipodi:guide
       position="1.527832e-05,1.7382813e-05"
       orientation="-48,0"
       id="guide4373" />
    <sodipodi:guide
       position="1.527832e-05,48.000017"
       orientation="0,48"
       id="guide4375" />
    <sodipodi:guide
       position="48.000015,48.000017"
       orientation="48,0"
       id="guide4377" />
    <sodipodi:guide
       position="48.000015,1.7382813e-05"
       orientation="0,-48"
       id="guide4379" />
    <sodipodi:guide
       position="9.0000153,9.0000174"
       orientation="-30,0"
       id="guide4385" />
    <sodipodi:guide
       position="9.0000153,39.000017"
       orientation="0,30"
       id="guide4387" />
    <sodipodi:guide
       position="39.000015,39.000017"
       orientation="30,0"
       id="guide4389" />
    <sodipodi:guide
       position="39.000015,9.0000174"
       orientation="0,-30"
       id="guide4391" />
  </sodipodi:namedview>
  <metadata
     id="metadata4229">
    <rdf:RDF>
      <cc:Work
         rdf:about="">
        <dc:format>image/svg+xml</dc:format>
        <dc:type
           rdf:resource="http://purl.org/dc/dcmitype/StillImage" />
        <dc:title />
      </cc:Work>
    </rdf:RDF>
  </metadata>
  <g
     inkscape:label="Capa 1"
     inkscape:groupmode="layer"
     id="layer1"
     transform="translate(0,-1004.3622)">
    <rect
       style="fill:url(#linearGradient4117);fill-opacity:1;stroke:none"
       id="rect2991-1-7-3-6"
       width="48"
       height="48"
       x="1.527832e-05"
       y="-1052.3622"
       ry="1.9445436"
       transform="scale(1,-1)" />
    <path
       id="path4423"
       d="m 39,1031.4081 0,-3.75 -4.482187,-1.8675 c -0.124688,-0.3515 -0.255938,-0.6918 -0.417188,-1.0256 l 1.809375,-4.5047 -2.652188,-2.6512 -4.464375,1.8384 c -0.340312,-0.165 -0.688125,-0.3037 -1.047187,-0.4322 l -1.900312,-4.4531 -3.75,0 -1.853438,4.4381 c -0.373125,0.1322 -0.732188,0.271 -1.0875,0.4397 l -4.456875,-1.7906 -2.65125,2.6512 1.816875,4.4166 c -0.17625,0.3628 -0.31875,0.7322 -0.454687,1.1138 L 9,1027.7163 l 0,3.75 4.412813,1.8384 c 0.135937,0.3806 0.282187,0.7509 0.4575,1.1138 l -1.783125,4.4456 2.65125,2.6512 4.427812,-1.8234 c 0.355313,0.1687 0.718125,0.3037 1.09125,0.4322 l 1.896563,4.4381 3.749999,0 1.85625,-4.4606 c 0.355313,-0.1322 0.706876,-0.271 1.043438,-0.4322 l 4.497188,1.8019 2.651249,-2.6513 -1.845937,-4.4747 c 0.1575,-0.3365 0.285937,-0.6778 0.410625,-1.0256 L 39,1031.4081 Z m -15.029063,3.7791 c -3.105,0 -5.625,-2.52 -5.625,-5.625 0,-3.105 2.52,-5.625 5.625,-5.625 3.105,0 5.625001,2.52 5.625001,5.625 0,3.105 -2.52,5.625 -5.625,5.625 z"
       style="fill:#000000;fill-opacity:0.05882353"
       inkscape:connector-curvature="0" />
    <path
       inkscape:connector-curvature="0"
       style="fill:#000000;fill-opacity:0.11764706"
       d="m 39,1031.0081 0,-3.75 -4.482187,-1.8675 c -0.124688,-0.3515 -0.255938,-0.6918 -0.417188,-1.0256 l 1.809375,-4.5047 -2.652188,-2.6512 -4.464375,1.8384 c -0.340312,-0.165 -0.688125,-0.3037 -1.047187,-0.4322 l -1.900312,-4.4531 -3.75,0 -1.853438,4.4381 c -0.373125,0.1322 -0.732188,0.271 -1.0875,0.4397 l -4.456875,-1.7906 -2.65125,2.6512 1.816875,4.4166 c -0.17625,0.3628 -0.31875,0.7322 -0.454687,1.1138 L 9,1027.3163 l 0,3.75 4.412813,1.8384 c 0.135937,0.3806 0.282187,0.7509 0.4575,1.1138 l -1.783125,4.4456 2.65125,2.6512 4.427812,-1.8234 c 0.355313,0.1687 0.718125,0.3037 1.09125,0.4322 l 1.896563,4.4381 3.749999,0 1.85625,-4.4606 c 0.355313,-0.1322 0.706876,-0.271 1.043438,-0.4322 l 4.497188,1.8019 2.651249,-2.6513 -1.845937,-4.4747 c 0.1575,-0.3365 0.285937,-0.6778 0.410625,-1.0256 L 39,1031.0081 Z m -15.029063,3.7791 c -3.105,0 -5.625,-2.52 -5.625,-5.625 0,-3.105 2.52,-5.625 5.625,-5.625 3.105,0 5.625001,2.52 5.625001,5.625 0,3.105 -2.52,5.625 -5.625,5.625 z"
       id="path4421" />
    <path
       id="path4417"
       d="m 39,1030.6081 0,-3.75 -4.482187,-1.8675 c -0.124688,-0.3515 -0.255938,-0.6918 -0.417188,-1.0256 l 1.809375,-4.5047 -2.652188,-2.6512 -4.464375,1.8384 c -0.340312,-0.165 -0.688125,-0.3037 -1.047187,-0.4322 l -1.900312,-4.4531 -3.75,0 -1.853438,4.4381 c -0.373125,0.1322 -0.732188,0.271 -1.0875,0.4397 l -4.456875,-1.7906 -2.65125,2.6512 1.816875,4.4166 c -0.17625,0.3628 -0.31875,0.7322 -0.454687,1.1138 L 9,1026.9163 l 0,3.75 4.412813,1.8384 c 0.135937,0.3806 0.282187,0.7509 0.4575,1.1138 l -1.783125,4.4456 2.65125,2.6512 4.427812,-1.8234 c 0.355313,0.1687 0.718125,0.3037 1.09125,0.4322 l 1.896563,4.4381 3.749999,0 1.85625,-4.4606 c 0.355313,-0.1322 0.706876,-0.271 1.043438,-0.4322 l 4.497188,1.8019 2.651249,-2.6513 -1.845937,-4.4747 c 0.1575,-0.3365 0.285937,-0.6778 0.410625,-1.0256 L 39,1030.6081 Z m -15.029063,3.7791 c -3.105,0 -5.625,-2.52 -5.625,-5.625 0,-3.105 2.52,-5.625 5.625,-5.625 3.105,0 5.625001,2.52 5.625001,5.625 0,3.105 -2.52,5.625 -5.625,5.625 z"
       style="fill:#000000;fill-opacity:0.23529412"
       inkscape:connector-curvature="0" />
    <path
       inkscape:connector-curvature="0"
       style="fill:#ffffff;fill-opacity:0.5372549;stroke:none"
       d="m 2.53124,1005.0185 c -0.91709,0 -1.67115,0.6395 -1.84375,1.5 0.33561,-0.2799 0.77451,-0.4375 1.25,-0.4375 l 44.125,0 c 0.47549,0 0.91439,0.1576 1.25,0.4375 -0.1726,-0.8605 -0.92666,-1.5 -1.84375,-1.5 l -42.9375,0 z"
       id="path7515-3-7" />
    <g
       style="font-size:10px;font-style:normal;font-variant:normal;font-weight:normal;font-stretch:normal;line-height:125%;letter-spacing:0px;word-spacing:0px;fill:#000000;fill-opacity:1;stroke:none;font-family:Decker;-inkscape-font-specification:Decker"
       id="text6661"
       transform="translate(-417.3796,398.42203)" />
    <path
       inkscape:connector-curvature="0"
       style="fill:url(#linearGradient4397);fill-opacity:1.0"
       d="m 39,1030.2081 0,-3.75 -4.482187,-1.8675 c -0.124688,-0.3515 -0.255938,-0.6918 -0.417188,-1.0256 l 1.809375,-4.5047 -2.652188,-2.6512 -4.464375,1.8384 c -0.340312,-0.165 -0.688125,-0.3037 -1.047187,-0.4322 l -1.900312,-4.4531 -3.75,0 -1.853438,4.4381 c -0.373125,0.1322 -0.732188,0.271 -1.0875,0.4397 l -4.456875,-1.7906 -2.65125,2.6512 1.816875,4.4166 c -0.17625,0.3628 -0.31875,0.7322 -0.454687,1.1138 L 9,1026.5163 l 0,3.75 4.412813,1.8384 c 0.135937,0.3806 0.282187,0.7509 0.4575,1.1138 l -1.783125,4.4456 2.65125,2.6512 4.427812,-1.8234 c 0.355313,0.1687 0.718125,0.3037 1.09125,0.4322 l 1.896563,4.4381 3.749999,0 1.85625,-4.4606 c 0.355313,-0.1322 0.706876,-0.271 1.043438,-0.4322 l 4.497188,1.8019 2.651249,-2.6513 -1.845937,-4.4747 c 0.1575,-0.3365 0.285937,-0.6778 0.410625,-1.0256 L 39,1030.2081 Z m -15.029063,3.7791 c -3.105,0 -5.625,-2.52 -5.625,-5.625 0,-3.105 2.52,-5.625 5.625,-5.625 3.105,0 5.625001,2.52 5.625001,5.625 0,3.105 -2.52,5.625 -5.625,5.625 z"
       id="path4317" />
    <path
       style="fill:#4c4f54;fill-opacity:0.3137255"
       d="M 35.681641 14.46875 L 34.101562 18.402344 C 34.164245 18.532101 34.208679 18.668784 34.263672 18.800781 L 35.910156 14.697266 L 35.681641 14.46875 z M 12.279297 14.505859 L 12.046875 14.738281 L 13.699219 18.755859 C 13.755158 18.623364 13.799871 18.485994 13.863281 18.355469 L 12.279297 14.505859 z M 23.970703 17.574219 C 20.865703 17.574219 18.345703 20.094219 18.345703 23.199219 C 18.345703 23.334062 18.355888 23.467132 18.365234 23.599609 C 18.571768 20.682185 21.001003 18.375 23.970703 18.375 C 26.940403 18.375 29.369638 20.682185 29.576172 23.599609 C 29.585519 23.467132 29.595703 23.334062 29.595703 23.199219 C 29.595703 20.094219 27.075703 17.574219 23.970703 17.574219 z M 39 25.046875 L 34.517578 26.957031 C 34.39289 27.304831 34.262969 27.645922 34.105469 27.982422 L 34.269531 28.376953 C 34.353082 28.171402 34.442324 27.967725 34.517578 27.757812 L 39 25.845703 L 39 25.046875 z M 9 25.103516 L 9 25.904297 L 13.412109 27.742188 C 13.499896 27.987974 13.607546 28.222961 13.708984 28.460938 L 13.871094 28.056641 C 13.695781 27.693741 13.548046 27.323959 13.412109 26.943359 L 9 25.103516 z M 35.71875 32.691406 L 33.300781 35.109375 L 28.804688 33.306641 C 28.468125 33.467841 28.115079 33.608034 27.759766 33.740234 L 25.904297 38.199219 L 22.154297 38.199219 L 20.257812 33.761719 C 19.884687 33.633219 19.521329 33.498778 19.166016 33.330078 L 14.738281 35.152344 L 12.316406 32.730469 L 12.087891 33.302734 L 14.738281 35.953125 L 19.166016 34.128906 C 19.521329 34.297606 19.884687 34.434 20.257812 34.5625 L 22.154297 39 L 25.904297 39 L 27.759766 34.539062 C 28.115079 34.406862 28.468125 34.268622 28.804688 34.107422 L 33.300781 35.908203 L 35.953125 33.257812 L 35.71875 32.691406 z "
       transform="translate(0,1004.3622)"
       id="path4425" />
    <path
       style="fill:#ffffff;fill-opacity:0.23529412"
       d="M 22.095703 9 L 20.242188 13.4375 C 19.869062 13.5697 19.509609 13.708253 19.154297 13.876953 L 14.697266 12.087891 L 12.046875 14.738281 L 12.164062 15.021484 L 14.697266 12.486328 L 19.154297 14.277344 C 19.509609 14.108644 19.869062 13.970091 20.242188 13.837891 L 22.095703 9.4003906 L 25.845703 9.4003906 L 27.746094 13.853516 C 28.105156 13.982016 28.452657 14.120156 28.792969 14.285156 L 33.257812 12.447266 L 35.794922 14.982422 L 35.910156 14.697266 L 33.257812 12.046875 L 28.792969 13.884766 C 28.452657 13.719766 28.105156 13.581625 27.746094 13.453125 L 25.845703 9 L 22.095703 9 z M 13.78125 19.355469 C 13.646044 19.654932 13.519622 19.956759 13.408203 20.269531 L 9 22.154297 L 9 22.554688 L 13.408203 20.667969 C 13.54414 20.286369 13.687031 19.917488 13.863281 19.554688 L 13.78125 19.355469 z M 34.181641 19.402344 L 34.101562 19.603516 C 34.262812 19.937316 34.39289 20.277406 34.517578 20.628906 L 39 22.496094 L 39 22.095703 L 34.517578 20.228516 C 34.417084 19.945218 34.302931 19.673552 34.181641 19.402344 z M 18.355469 24.199219 C 18.353089 24.266391 18.345703 24.332641 18.345703 24.400391 C 18.345703 27.505391 20.865703 30.025391 23.970703 30.025391 C 27.075703 30.025391 29.595703 27.505391 29.595703 24.400391 C 29.595703 24.332641 29.588317 24.266391 29.585938 24.199219 C 29.479922 27.211191 27.008382 29.625 23.970703 29.625 C 20.933024 29.625 18.461484 27.211191 18.355469 24.199219 z M 34.1875 28.980469 C 34.158366 29.047563 34.13669 29.11689 34.105469 29.183594 L 35.835938 33.375 L 35.953125 33.257812 L 34.1875 28.980469 z M 13.789062 29.058594 L 12.087891 33.302734 L 12.201172 33.416016 L 13.871094 29.255859 C 13.839991 29.191475 13.818441 29.12346 13.789062 29.058594 z "
       transform="translate(0,1004.3622)"
       id="path4430" />
    <path
       style="fill:url(#linearGradient4219);fill-opacity:1;stroke:none"
       d="m 34.00001,1038.3615 0,14.0007 14,-14 z"
       id="path4130"
       inkscape:connector-curvature="0" />
    <path
       inkscape:connector-curvature="0"
       style="fill:url(#linearGradient4439);fill-opacity:1;stroke:none"
       d="m 48.00001,1038.3622 -14,14 12.05469,0 c 1.07727,0 1.94531,-0.868 1.94531,-1.9453 l 0,-12.0547 z"
       id="path4303" />
    <path
       inkscape:connector-curvature="0"
       id="path4784"
       d="m 34.00001,1052.3622 0,-14.0007 -14,14 z"
       style="opacity:0.1;fill:url(#linearGradient4786);fill-opacity:1;stroke:none" />
    <path
       inkscape:connector-curvature="0"
       style="fill:#000000;fill-opacity:1;stroke:none"
       d="m -1e-5,1049.3622 0,1.0625 c 0,1.0773 0.86022,1.9375 1.9375,1.9375 l 44.125,0 c 1.07728,0 1.9375,-0.8602 1.9375,-1.9375 l 0,-1.0625 c 0,1.0773 -0.86022,1.9375 -1.9375,1.9375 l -44.125,0 c -1.07728,0 -1.9375,-0.8602 -1.9375,-1.9375 z"
       id="rect846-0-2" />
    <path
       inkscape:connector-curvature="0"
       style="fill:#000000;fill-opacity:0.39215686;stroke:none"
       d="m 1.93749,1004.3622 c -1.07728,0 -1.9375,0.8602 -1.9375,1.9375 l 0,43.0625 c 0,0.7934 0.48002,1.449 1.15625,1.75 -0.30934,-0.3333 -0.5,-0.7824 -0.5,-1.2812 l 0,-42.9375 c 0,-1.0482 0.8269,-1.875 1.875,-1.875 l 42.9375,0 c 1.0481,0 1.875,0.8268 1.875,1.875 l 0,42.9375 c 0,0.4988 -0.19066,0.9479 -0.5,1.2812 0.67623,-0.301 1.15625,-0.9566 1.15625,-1.75 l 0,-43.0625 c 0,-1.0773 -0.86022,-1.9375 -1.9375,-1.9375 l -44.125,0 z"
       id="rect4280-1-0" />
  </g>
</svg>
