<?xml version="1.0" encoding="UTF-8" standalone="no"?>
<!-- Created with Inkscape (http://www.inkscape.org/) -->

<svg
   xmlns:dc="http://purl.org/dc/elements/1.1/"
   xmlns:cc="http://creativecommons.org/ns#"
   xmlns:rdf="http://www.w3.org/1999/02/22-rdf-syntax-ns#"
   xmlns:svg="http://www.w3.org/2000/svg"
   xmlns="http://www.w3.org/2000/svg"
   xmlns:xlink="http://www.w3.org/1999/xlink"
   xmlns:sodipodi="http://sodipodi.sourceforge.net/DTD/sodipodi-0.dtd"
   xmlns:inkscape="http://www.inkscape.org/namespaces/inkscape"
   width="48"
   height="48"
   id="svg6536"
   version="1.1"
   inkscape:version="0.48+devel r12910"
   sodipodi:docname="application-x-executable.svg">
  <defs
     id="defs6538">
    <linearGradient
       id="linearGradient4788"
       inkscape:collect="always">
      <stop
         id="stop4790"
         offset="0"
         style="stop-color:#000000;stop-opacity:1" />
      <stop
         id="stop4792"
         offset="1"
         style="stop-color:#000000;stop-opacity:0" />
    </linearGradient>
    <linearGradient
       id="linearGradient4433"
       inkscape:collect="always">
      <stop
         id="stop4435"
         offset="0"
         style="stop-color:#2b3141;stop-opacity:1" />
      <stop
         id="stop4437"
         offset="1"
         style="stop-color:#394056;stop-opacity:1" />
    </linearGradient>
    <linearGradient
       inkscape:collect="always"
       xlink:href="#linearGradient943-0"
       id="linearGradient4117"
       gradientUnits="userSpaceOnUse"
       gradientTransform="translate(-64.89343,-3.27419)"
       x1="92.14286"
       y1="-1049.092"
       x2="92.14286"
       y2="-1001.0899" />
    <linearGradient
       gradientUnits="userSpaceOnUse"
       y2="33.999271"
       x2="42.956738"
       y1="48.000004"
       x1="42.956738"
       id="linearGradient4439"
       xlink:href="#linearGradient4433"
       inkscape:collect="always"
       gradientTransform="translate(1e-5,1004.3622)" />
    <linearGradient
       gradientTransform="matrix(-1,0,0,-1,492.57145,1914.7236)"
       y2="862.36139"
       x2="472.50894"
       y1="871.36139"
       x1="458.57144"
       gradientUnits="userSpaceOnUse"
       id="linearGradient4786"
       xlink:href="#linearGradient4788"
       inkscape:collect="always" />
    <linearGradient
       gradientUnits="userSpaceOnUse"
       y2="862.36255"
       x2="458.57144"
       y1="869.36218"
       x1="465.57108"
       id="linearGradient4219"
       xlink:href="#linearGradient4268-5"
       inkscape:collect="always"
       gradientTransform="translate(-424.57143,176.00001)" />
    <linearGradient
       gradientTransform="matrix(0.9375,0,0,0.9375,9,1013.3622)"
       y2="-1.8133333e-05"
       x2="19.299431"
       y1="31.999981"
       x1="19.299431"
       gradientUnits="userSpaceOnUse"
       id="linearGradient4397"
       xlink:href="#linearGradient4451"
       inkscape:collect="always" />
    <linearGradient
       id="linearGradient4451">
      <stop
         id="stop4453"
         offset="0"
         style="stop-color:#befacf;stop-opacity:1" />
      <stop
         id="stop4455"
         offset="1"
         style="stop-color:#f6fef9;stop-opacity:1" />
    </linearGradient>
    <linearGradient
       id="linearGradient4268-5">
      <stop
         style="stop-color:#3bf16c;stop-opacity:1"
         offset="0"
         id="stop4270-2" />
      <stop
         style="stop-color:#9bf5bd;stop-opacity:1"
         offset="1"
         id="stop4272-3" />
    </linearGradient>
    <linearGradient
       id="linearGradient943-0">
      <stop
         id="stop945-2"
         offset="0"
         style="stop-color:#10d547;stop-opacity:1" />
      <stop
         id="stop947-6"
         offset="1"
         style="stop-color:#1ce969;stop-opacity:1" />
    </linearGradient>
  </defs>
  <sodipodi:namedview
     id="base"
     pagecolor="#ffffff"
     bordercolor="#666666"
     borderopacity="1.0"
     inkscape:pageopacity="0.0"
     inkscape:pageshadow="2"
     inkscape:zoom="3.1633793"
     inkscape:cx="-21.821762"
     inkscape:cy="37.148637"
     inkscape:document-units="px"
     inkscape:current-layer="layer1"
     showgrid="false"
     fit-margin-top="0"
     fit-margin-left="0"
     fit-margin-right="0"
     fit-margin-bottom="0"
     inkscape:window-width="1366"
     inkscape:window-height="671"
     inkscape:window-x="0"
     inkscape:window-y="24"
     inkscape:window-maximized="1"
     showguides="false">
    <inkscape:grid
       type="xygrid"
       id="grid3918" />
  </sodipodi:namedview>
  <metadata
     id="metadata6541">
    <rdf:RDF>
      <cc:Work
         rdf:about="">
        <dc:format>image/svg+xml</dc:format>
        <dc:type
           rdf:resource="http://purl.org/dc/dcmitype/StillImage" />
        <dc:title />
      </cc:Work>
    </rdf:RDF>
  </metadata>
  <g
     inkscape:label="Capa 1"
     inkscape:groupmode="layer"
     id="layer1"
     transform="translate(-521.71429,-605.50507)">
    <g
       style="font-size:10px;font-style:normal;font-variant:normal;font-weight:normal;font-stretch:normal;line-height:125%;letter-spacing:0px;word-spacing:0px;fill:#000000;fill-opacity:1;stroke:none;font-family:Decker;-inkscape-font-specification:Decker"
       id="text6661" />
    <g
       transform="translate(521.71429,-398.85712)"
       id="layer1-7"
       inkscape:label="Capa 1">
      <rect
         transform="scale(1,-1)"
         ry="1.9445436"
         y="-1052.3622"
         x="1.527832e-05"
         height="48"
         width="48"
         id="rect2991-1-7-3-6"
         style="fill:url(#linearGradient4117);fill-opacity:1;stroke:none" />
      <path
         inkscape:connector-curvature="0"
         style="fill:#000000;fill-opacity:0.05882353"
         d="m 39,1031.4081 0,-3.75 -4.482187,-1.8675 c -0.124688,-0.3515 -0.255938,-0.6918 -0.417188,-1.0256 l 1.809375,-4.5047 -2.652188,-2.6512 -4.464375,1.8384 c -0.340312,-0.165 -0.688125,-0.3037 -1.047187,-0.4322 l -1.900312,-4.4531 -3.75,0 -1.853438,4.4381 c -0.373125,0.1322 -0.732188,0.271 -1.0875,0.4397 l -4.456875,-1.7906 -2.65125,2.6512 1.816875,4.4166 c -0.17625,0.3628 -0.31875,0.7322 -0.454687,1.1138 L 9,1027.7163 l 0,3.75 4.412813,1.8384 c 0.135937,0.3806 0.282187,0.7509 0.4575,1.1138 l -1.783125,4.4456 2.65125,2.6512 4.427812,-1.8234 c 0.355313,0.1687 0.718125,0.3037 1.09125,0.4322 l 1.896563,4.4381 3.749999,0 1.85625,-4.4606 c 0.355313,-0.1322 0.706876,-0.271 1.043438,-0.4322 l 4.497188,1.8019 2.651249,-2.6513 -1.845937,-4.4747 c 0.1575,-0.3365 0.285937,-0.6778 0.410625,-1.0256 L 39,1031.4081 Z m -15.029063,3.7791 c -3.105,0 -5.625,-2.52 -5.625,-5.625 0,-3.105 2.52,-5.625 5.625,-5.625 3.105,0 5.625001,2.52 5.625001,5.625 0,3.105 -2.52,5.625 -5.625,5.625 z"
         id="path4423" />
      <path
         id="path4421"
         d="m 39,1031.0081 0,-3.75 -4.482187,-1.8675 c -0.124688,-0.3515 -0.255938,-0.6918 -0.417188,-1.0256 l 1.809375,-4.5047 -2.652188,-2.6512 -4.464375,1.8384 c -0.340312,-0.165 -0.688125,-0.3037 -1.047187,-0.4322 l -1.900312,-4.4531 -3.75,0 -1.853438,4.4381 c -0.373125,0.1322 -0.732188,0.271 -1.0875,0.4397 l -4.456875,-1.7906 -2.65125,2.6512 1.816875,4.4166 c -0.17625,0.3628 -0.31875,0.7322 -0.454687,1.1138 L 9,1027.3163 l 0,3.75 4.412813,1.8384 c 0.135937,0.3806 0.282187,0.7509 0.4575,1.1138 l -1.783125,4.4456 2.65125,2.6512 4.427812,-1.8234 c 0.355313,0.1687 0.718125,0.3037 1.09125,0.4322 l 1.896563,4.4381 3.749999,0 1.85625,-4.4606 c 0.355313,-0.1322 0.706876,-0.271 1.043438,-0.4322 l 4.497188,1.8019 2.651249,-2.6513 -1.845937,-4.4747 c 0.1575,-0.3365 0.285937,-0.6778 0.410625,-1.0256 L 39,1031.0081 Z m -15.029063,3.7791 c -3.105,0 -5.625,-2.52 -5.625,-5.625 0,-3.105 2.52,-5.625 5.625,-5.625 3.105,0 5.625001,2.52 5.625001,5.625 0,3.105 -2.52,5.625 -5.625,5.625 z"
         style="fill:#000000;fill-opacity:0.11764706"
         inkscape:connector-curvature="0" />
      <path
         inkscape:connector-curvature="0"
         style="fill:#000000;fill-opacity:0.23529412"
         d="m 39,1030.6081 0,-3.75 -4.482187,-1.8675 c -0.124688,-0.3515 -0.255938,-0.6918 -0.417188,-1.0256 l 1.809375,-4.5047 -2.652188,-2.6512 -4.464375,1.8384 c -0.340312,-0.165 -0.688125,-0.3037 -1.047187,-0.4322 l -1.900312,-4.4531 -3.75,0 -1.853438,4.4381 c -0.373125,0.1322 -0.732188,0.271 -1.0875,0.4397 l -4.456875,-1.7906 -2.65125,2.6512 1.816875,4.4166 c -0.17625,0.3628 -0.31875,0.7322 -0.454687,1.1138 L 9,1026.9163 l 0,3.75 4.412813,1.8384 c 0.135937,0.3806 0.282187,0.7509 0.4575,1.1138 l -1.783125,4.4456 2.65125,2.6512 4.427812,-1.8234 c 0.355313,0.1687 0.718125,0.3037 1.09125,0.4322 l 1.896563,4.4381 3.749999,0 1.85625,-4.4606 c 0.355313,-0.1322 0.706876,-0.271 1.043438,-0.4322 l 4.497188,1.8019 2.651249,-2.6513 -1.845937,-4.4747 c 0.1575,-0.3365 0.285937,-0.6778 0.410625,-1.0256 L 39,1030.6081 Z m -15.029063,3.7791 c -3.105,0 -5.625,-2.52 -5.625,-5.625 0,-3.105 2.52,-5.625 5.625,-5.625 3.105,0 5.625001,2.52 5.625001,5.625 0,3.105 -2.52,5.625 -5.625,5.625 z"
         id="path4417" />
      <path
         id="path7515-3-7"
         d="m 2.53124,1005.0185 c -0.91709,0 -1.67115,0.6395 -1.84375,1.5 0.33561,-0.2799 0.77451,-0.4375 1.25,-0.4375 l 44.125,0 c 0.47549,0 0.91439,0.1576 1.25,0.4375 -0.1726,-0.8605 -0.92666,-1.5 -1.84375,-1.5 l -42.9375,0 z"
         style="fill:#ffffff;fill-opacity:0.5372549;stroke:none"
         inkscape:connector-curvature="0" />
      <g
         transform="translate(-417.3796,398.42203)"
         id="text6661-6"
         style="font-size:10px;font-style:normal;font-variant:normal;font-weight:normal;font-stretch:normal;line-height:125%;letter-spacing:0px;word-spacing:0px;fill:#000000;fill-opacity:1;stroke:none;font-family:Decker;-inkscape-font-specification:Decker" />
      <path
         id="path4317"
         d="m 39,1030.2081 0,-3.75 -4.482187,-1.8675 c -0.124688,-0.3515 -0.255938,-0.6918 -0.417188,-1.0256 l 1.809375,-4.5047 -2.652188,-2.6512 -4.464375,1.8384 c -0.340312,-0.165 -0.688125,-0.3037 -1.047187,-0.4322 l -1.900312,-4.4531 -3.75,0 -1.853438,4.4381 c -0.373125,0.1322 -0.732188,0.271 -1.0875,0.4397 l -4.456875,-1.7906 -2.65125,2.6512 1.816875,4.4166 c -0.17625,0.3628 -0.31875,0.7322 -0.454687,1.1138 L 9,1026.5163 l 0,3.75 4.412813,1.8384 c 0.135937,0.3806 0.282187,0.7509 0.4575,1.1138 l -1.783125,4.4456 2.65125,2.6512 4.427812,-1.8234 c 0.355313,0.1687 0.718125,0.3037 1.09125,0.4322 l 1.896563,4.4381 3.749999,0 1.85625,-4.4606 c 0.355313,-0.1322 0.706876,-0.271 1.043438,-0.4322 l 4.497188,1.8019 2.651249,-2.6513 -1.845937,-4.4747 c 0.1575,-0.3365 0.285937,-0.6778 0.410625,-1.0256 L 39,1030.2081 Z m -15.029063,3.7791 c -3.105,0 -5.625,-2.52 -5.625,-5.625 0,-3.105 2.52,-5.625 5.625,-5.625 3.105,0 5.625001,2.52 5.625001,5.625 0,3.105 -2.52,5.625 -5.625,5.625 z"
         style="fill:url(#linearGradient4397);fill-opacity:1"
         inkscape:connector-curvature="0" />
      <path
         id="path4425"
         transform="translate(0,1004.3622)"
         d="m 35.681641,14.46875 -1.580079,3.933594 c 0.06268,0.129757 0.107117,0.26644 0.16211,0.398437 l 1.646484,-4.103515 -0.228515,-0.228516 z m -23.402344,0.03711 -0.232422,0.232422 1.652344,4.017578 c 0.05594,-0.132495 0.100652,-0.269865 0.164062,-0.40039 l -1.583984,-3.84961 z m 11.691406,3.06836 c -3.105,0 -5.625,2.52 -5.625,5.625 0,0.134843 0.01018,0.267913 0.01953,0.40039 0.206534,-2.917424 2.635769,-5.224609 5.605469,-5.224609 2.9697,0 5.398935,2.307185 5.605469,5.224609 0.0093,-0.132477 0.01953,-0.265547 0.01953,-0.40039 0,-3.105 -2.52,-5.625 -5.625,-5.625 z M 39,25.046875 34.517578,26.957031 c -0.124688,0.3478 -0.254609,0.688891 -0.412109,1.025391 l 0.164062,0.394531 c 0.08355,-0.205551 0.172793,-0.409228 0.248047,-0.619141 L 39,25.845703 39,25.046875 Z m -30,0.05664 0,0.800781 4.412109,1.837891 c 0.08779,0.245786 0.195437,0.480773 0.296875,0.71875 l 0.16211,-0.404297 c -0.175313,-0.3629 -0.323048,-0.732682 -0.458985,-1.113282 L 9,25.103516 Z m 26.71875,7.58789 -2.417969,2.417969 -4.496093,-1.802734 c -0.336563,0.1612 -0.689609,0.301393 -1.044922,0.433593 l -1.855469,4.458985 -3.75,0 -1.896485,-4.4375 c -0.373125,-0.1285 -0.736483,-0.262941 -1.091796,-0.431641 l -4.427735,1.822266 -2.421875,-2.421875 -0.228515,0.572265 2.65039,2.650391 4.427735,-1.824219 c 0.355313,0.1687 0.718671,0.305094 1.091796,0.433594 L 22.154297,39 l 3.75,0 1.855469,-4.460938 c 0.355313,-0.1322 0.708359,-0.27044 1.044922,-0.43164 l 4.496093,1.800781 2.652344,-2.650391 -0.234375,-0.566406 z"
         style="fill:#13dd51;fill-opacity:0.3137255"
         inkscape:connector-curvature="0" />
      <path
         id="path4430"
         transform="translate(0,1004.3622)"
         d="m 22.095703,9 -1.853515,4.4375 c -0.373126,0.1322 -0.732579,0.270753 -1.087891,0.439453 l -4.457031,-1.789062 -2.650391,2.65039 0.117187,0.283203 2.533204,-2.535156 4.457031,1.791016 c 0.355312,-0.1687 0.714765,-0.307253 1.087891,-0.439453 l 1.853515,-4.4375004 3.75,0 1.900391,4.4531254 c 0.359062,0.1285 0.706563,0.26664 1.046875,0.43164 l 4.464843,-1.83789 2.53711,2.535156 0.115234,-0.285156 -2.652344,-2.650391 -4.464843,1.837891 c -0.340312,-0.165 -0.687813,-0.303141 -1.046875,-0.431641 L 25.845703,9 l -3.75,0 z M 13.78125,19.355469 c -0.135206,0.299463 -0.261628,0.60129 -0.373047,0.914062 L 9,22.154297 l 0,0.400391 4.408203,-1.886719 c 0.135937,-0.3816 0.278828,-0.750481 0.455078,-1.113281 l -0.08203,-0.199219 z m 20.400391,0.04687 -0.08008,0.201172 c 0.16125,0.3338 0.291328,0.67389 0.416016,1.02539 L 39,22.496094 39,22.095703 34.517578,20.228516 c -0.100494,-0.283298 -0.214647,-0.554964 -0.335937,-0.826172 z m -15.826172,4.796875 c -0.0024,0.06717 -0.0098,0.133422 -0.0098,0.201172 0,3.105 2.52,5.625 5.625,5.625 3.105,0 5.625,-2.52 5.625,-5.625 0,-0.06775 -0.0074,-0.134 -0.0098,-0.201172 -0.106016,3.011972 -2.577556,5.425781 -5.615235,5.425781 -3.037679,0 -5.509219,-2.413809 -5.615234,-5.425781 z m 15.832031,4.78125 c -0.02913,0.06709 -0.05081,0.136421 -0.08203,0.203125 L 35.835938,33.375 35.953125,33.257812 34.1875,28.980469 Z m -20.398438,0.07813 -1.701171,4.24414 0.113281,0.113282 1.669922,-4.160157 c -0.0311,-0.06438 -0.05265,-0.132399 -0.08203,-0.197265 z"
         style="fill:#ffffff;fill-opacity:0.23529412"
         inkscape:connector-curvature="0" />
      <path
         inkscape:connector-curvature="0"
         id="path4130"
         d="m 34.00001,1038.3615 0,14.0007 14,-14 z"
         style="fill:url(#linearGradient4219);fill-opacity:1;stroke:none" />
      <path
         id="path4303"
         d="m 48.00001,1038.3622 -14,14 12.05469,0 c 1.07727,0 1.94531,-0.868 1.94531,-1.9453 l 0,-12.0547 z"
         style="fill:url(#linearGradient4439);fill-opacity:1;stroke:none"
         inkscape:connector-curvature="0" />
      <path
         style="opacity:0.1;fill:url(#linearGradient4786);fill-opacity:1;stroke:none"
         d="m 34.00001,1052.3622 0,-14.0007 -14,14 z"
         id="path4784"
         inkscape:connector-curvature="0" />
      <path
         id="rect846-0-2"
         d="m -1e-5,1049.3622 0,1.0625 c 0,1.0773 0.86022,1.9375 1.9375,1.9375 l 44.125,0 c 1.07728,0 1.9375,-0.8602 1.9375,-1.9375 l 0,-1.0625 c 0,1.0773 -0.86022,1.9375 -1.9375,1.9375 l -44.125,0 c -1.07728,0 -1.9375,-0.8602 -1.9375,-1.9375 z"
         style="fill:#000000;fill-opacity:1;stroke:none"
         inkscape:connector-curvature="0" />
      <path
         id="rect4280-1-0"
         d="m 1.93749,1004.3622 c -1.07728,0 -1.9375,0.8602 -1.9375,1.9375 l 0,43.0625 c 0,0.7934 0.48002,1.449 1.15625,1.75 -0.30934,-0.3333 -0.5,-0.7824 -0.5,-1.2812 l 0,-42.9375 c 0,-1.0482 0.8269,-1.875 1.875,-1.875 l 42.9375,0 c 1.0481,0 1.875,0.8268 1.875,1.875 l 0,42.9375 c 0,0.4988 -0.19066,0.9479 -0.5,1.2812 0.67623,-0.301 1.15625,-0.9566 1.15625,-1.75 l 0,-43.0625 c 0,-1.0773 -0.86022,-1.9375 -1.9375,-1.9375 l -44.125,0 z"
         style="fill:#000000;fill-opacity:0.39215686;stroke:none"
         inkscape:connector-curvature="0" />
    </g>
  </g>
</svg>
