<?xml version="1.0" encoding="UTF-8" standalone="no"?>
<!-- Created with Inkscape (http://www.inkscape.org/) -->

<svg
   xmlns:dc="http://purl.org/dc/elements/1.1/"
   xmlns:cc="http://creativecommons.org/ns#"
   xmlns:rdf="http://www.w3.org/1999/02/22-rdf-syntax-ns#"
   xmlns:svg="http://www.w3.org/2000/svg"
   xmlns="http://www.w3.org/2000/svg"
   xmlns:xlink="http://www.w3.org/1999/xlink"
   xmlns:sodipodi="http://sodipodi.sourceforge.net/DTD/sodipodi-0.dtd"
   xmlns:inkscape="http://www.inkscape.org/namespaces/inkscape"
   width="48"
   height="48"
   id="svg4214"
   version="1.1"
   inkscape:version="0.48+devel r12910"
   sodipodi:docname="application-wps-office.dot.svg">
  <defs
     id="defs4216">
    <linearGradient
       inkscape:collect="always"
       id="linearGradient4788">
      <stop
         style="stop-color:#000000;stop-opacity:1"
         offset="0"
         id="stop4790" />
      <stop
         style="stop-color:#000000;stop-opacity:0"
         offset="1"
         id="stop4792" />
    </linearGradient>
    <linearGradient
       inkscape:collect="always"
       id="linearGradient4433">
      <stop
         style="stop-color:#2b3141;stop-opacity:1"
         offset="0"
         id="stop4435" />
      <stop
         style="stop-color:#394056;stop-opacity:1"
         offset="1"
         id="stop4437" />
    </linearGradient>
    <linearGradient
       y2="-1001.0899"
       x2="92.14286"
       y1="-1049.092"
       x1="92.14286"
       gradientTransform="translate(-64.89343,-3.27419)"
       gradientUnits="userSpaceOnUse"
       id="linearGradient4117"
       xlink:href="#linearGradient943-2"
       inkscape:collect="always" />
    <linearGradient
       gradientTransform="translate(1e-5,1004.3622)"
       inkscape:collect="always"
       xlink:href="#linearGradient4433"
       id="linearGradient4439"
       x1="42.956738"
       y1="48.000004"
       x2="42.956738"
       y2="33.999271"
       gradientUnits="userSpaceOnUse" />
    <linearGradient
       inkscape:collect="always"
       xlink:href="#linearGradient4788"
       id="linearGradient4786"
       gradientUnits="userSpaceOnUse"
       x1="458.57144"
       y1="871.36139"
       x2="472.50894"
       y2="862.36139"
       gradientTransform="matrix(-1,0,0,-1,492.57145,1914.7236)" />
    <linearGradient
       gradientTransform="translate(-424.57143,176.00001)"
       inkscape:collect="always"
       xlink:href="#linearGradient4349"
       id="linearGradient4219"
       x1="465.57108"
       y1="869.36218"
       x2="458.57144"
       y2="862.36255"
       gradientUnits="userSpaceOnUse" />
    <linearGradient
       gradientUnits="userSpaceOnUse"
       y2="8.9999828"
       x2="24.000008"
       y1="38.999981"
       x1="24.000008"
       id="linearGradient4421"
       xlink:href="#linearGradient4372"
       inkscape:collect="always" />
    <linearGradient
       id="linearGradient4372">
      <stop
         style="stop-color:#cdd1eb;stop-opacity:1"
         offset="0"
         id="stop4374" />
      <stop
         style="stop-color:#f7f8fd;stop-opacity:1"
         offset="1"
         id="stop4376" />
    </linearGradient>
    <linearGradient
       id="linearGradient4349">
      <stop
         id="stop4351"
         offset="0"
         style="stop-color:#6a76c2;stop-opacity:1" />
      <stop
         id="stop4353"
         offset="1"
         style="stop-color:#a6b0ea;stop-opacity:1" />
    </linearGradient>
    <linearGradient
       id="linearGradient943-2">
      <stop
         style="stop-color:#4e5db7;stop-opacity:1"
         offset="0"
         id="stop945-2" />
      <stop
         style="stop-color:#6475da;stop-opacity:1"
         offset="1"
         id="stop947-4-0" />
    </linearGradient>
  </defs>
  <sodipodi:namedview
     id="base"
     pagecolor="#ffffff"
     bordercolor="#666666"
     borderopacity="1.0"
     inkscape:pageopacity="0.0"
     inkscape:pageshadow="2"
     inkscape:zoom="4.046875"
     inkscape:cx="18.982998"
     inkscape:cy="43.050875"
     inkscape:document-units="px"
     inkscape:current-layer="layer1"
     showgrid="false"
     width="0px"
     height="0px"
     fit-margin-top="0"
     fit-margin-left="0"
     fit-margin-right="0"
     fit-margin-bottom="0"
     inkscape:window-width="1366"
     inkscape:window-height="671"
     inkscape:window-x="0"
     inkscape:window-y="24"
     inkscape:window-maximized="1" />
  <metadata
     id="metadata4219">
    <rdf:RDF>
      <cc:Work
         rdf:about="">
        <dc:format>image/svg+xml</dc:format>
        <dc:type
           rdf:resource="http://purl.org/dc/dcmitype/StillImage" />
        <dc:title />
      </cc:Work>
    </rdf:RDF>
  </metadata>
  <g
     inkscape:label="Capa 1"
     inkscape:groupmode="layer"
     id="layer1"
     transform="translate(0,-1004.3622)">
    <g
       id="layer1-6"
       inkscape:label="Capa 1"
       transform="translate(-8.2519533e-7,8.691406e-6)">
      <rect
         transform="scale(1,-1)"
         ry="1.9445436"
         y="-1052.3622"
         x="1.1650391e-05"
         height="48"
         width="48"
         id="rect2991-1-7-3"
         style="fill:url(#linearGradient4117);fill-opacity:1;stroke:none" />
      <path
         inkscape:connector-curvature="0"
         style="fill:#000000;fill-opacity:0.05882353;stroke:none"
         d="m 9,1014.5622 0,26 0,4 9,0 6,-4.9004 6,4.9004 9,0 0,-4 0,-26 -9,0 0,18.8008 -6,-4.8008 -6,4.8008 0,-18.8008 -9,0 z"
         id="path4435" />
      <path
         id="path4433"
         d="m 9,1014.1622 0,26 0,4 9,0 6,-4.9004 6,4.9004 9,0 0,-4 0,-26 -9,0 0,18.8008 -6,-4.8008 -6,4.8008 0,-18.8008 -9,0 z"
         style="fill:#000000;fill-opacity:0.11764706;stroke:none"
         inkscape:connector-curvature="0" />
      <path
         inkscape:connector-curvature="0"
         style="fill:#000000;fill-opacity:0.23529412;stroke:none"
         d="m 9,1013.7622 0,26 0,4 9,0 6,-4.9004 6,4.9004 9,0 0,-4 0,-26 -9,0 0,18.8008 -6,-4.8008 -6,4.8008 0,-18.8008 -9,0 z"
         id="path4429" />
      <path
         id="rect4292"
         transform="translate(0,1004.3622)"
         d="m 9,9 0,26 0,4 9,0 6,-4.900391 L 30,39 39,39 39,35 39,9 30,9 30,27.800781 24,23 18,27.800781 18,9 9,9 Z"
         style="fill:url(#linearGradient4421);fill-opacity:1;stroke:none"
         inkscape:connector-curvature="0" />
      <path
         id="path7515-3"
         d="m 2.53124,1005.0185 c -0.91709,0 -1.67115,0.6395 -1.84375,1.5 0.33561,-0.2799 0.77451,-0.4375 1.25,-0.4375 l 44.125,0 c 0.47549,0 0.91439,0.1576 1.25,0.4375 -0.1726,-0.8605 -0.92666,-1.5 -1.84375,-1.5 l -42.9375,0 z"
         style="fill:#ffffff;fill-opacity:0.5372549;stroke:none"
         inkscape:connector-curvature="0" />
      <path
         id="path4437"
         transform="translate(0,1004.3622)"
         d="m 24,33.298828 -6,4.900391 -9,0 L 9,39 18,39 24,34.099609 30,39 l 9,0 0,-0.800781 -9,0 -6,-4.900391 z"
         style="fill:#4d5cb7;fill-opacity:0.3137255;stroke:none"
         inkscape:connector-curvature="0" />
      <path
         id="path4442"
         transform="translate(0,1004.3622)"
         d="m 9,9 0,0.4003906 9,0 L 18,9 9,9 Z m 21,0 0,0.4003906 9,0 L 39,9 30,9 Z m -6,14 -6,4.800781 0,0.400391 6,-4.800781 6,4.800781 0,-0.400391 L 24,23 Z"
         style="fill:#ffffff;fill-opacity:0.23529412;stroke:none"
         inkscape:connector-curvature="0" />
      <path
         inkscape:connector-curvature="0"
         id="path4130"
         d="m 34.00001,1038.3615 0,14.0007 14,-14 z"
         style="fill:url(#linearGradient4219);fill-opacity:1;stroke:none" />
      <path
         id="path4303"
         d="m 48.00001,1038.3622 -14,14 12.054688,0 c 1.077277,0 1.945312,-0.868 1.945312,-1.9453 l 0,-12.0547 z"
         style="fill:url(#linearGradient4439);fill-opacity:1;stroke:none"
         inkscape:connector-curvature="0" />
      <path
         style="opacity:0.1;fill:url(#linearGradient4786);fill-opacity:1;stroke:none"
         d="m 34.00001,1052.3622 0,-14.0007 -14,14 z"
         id="path4784"
         inkscape:connector-curvature="0" />
      <path
         id="rect846-0-3"
         d="m -1e-5,1049.3622 0,1.0625 c 0,1.0773 0.86022,1.9375 1.9375,1.9375 l 44.125,0 c 1.07728,0 1.9375,-0.8602 1.9375,-1.9375 l 0,-1.0625 c 0,1.0773 -0.86022,1.9375 -1.9375,1.9375 l -44.125,0 c -1.07728,0 -1.9375,-0.8602 -1.9375,-1.9375 z"
         style="fill:#000000;fill-opacity:1;stroke:none"
         inkscape:connector-curvature="0" />
      <path
         id="rect4280-1"
         d="m 1.93749,1004.3622 c -1.07728,0 -1.9375,0.8602 -1.9375,1.9375 l 0,43.0625 c 0,0.7934 0.48002,1.449 1.15625,1.75 -0.30934,-0.3333 -0.5,-0.7824 -0.5,-1.2812 l 0,-42.9375 c 0,-1.0482 0.8269,-1.875 1.875,-1.875 l 42.9375,0 c 1.0481,0 1.875,0.8268 1.875,1.875 l 0,42.9375 c 0,0.4988 -0.19066,0.9479 -0.5,1.2812 0.67623,-0.301 1.15625,-0.9566 1.15625,-1.75 l 0,-43.0625 c 0,-1.0773 -0.86022,-1.9375 -1.9375,-1.9375 l -44.125,0 z"
         style="fill:#000000;fill-opacity:0.39215686;stroke:none"
         inkscape:connector-curvature="0" />
    </g>
  </g>
</svg>
