<?xml version="1.0" encoding="UTF-8" standalone="no"?>
<!-- Created with Inkscape (http://www.inkscape.org/) -->

<svg
   xmlns:dc="http://purl.org/dc/elements/1.1/"
   xmlns:cc="http://creativecommons.org/ns#"
   xmlns:rdf="http://www.w3.org/1999/02/22-rdf-syntax-ns#"
   xmlns:svg="http://www.w3.org/2000/svg"
   xmlns="http://www.w3.org/2000/svg"
   xmlns:xlink="http://www.w3.org/1999/xlink"
   xmlns:sodipodi="http://sodipodi.sourceforge.net/DTD/sodipodi-0.dtd"
   xmlns:inkscape="http://www.inkscape.org/namespaces/inkscape"
   width="48"
   height="48"
   id="svg4768"
   version="1.1"
   inkscape:version="0.48+devel r12886"
   sodipodi:docname="7zip.svg"
   inkscape:export-filename="/home/uri/mintscicon.png"
   inkscape:export-xdpi="13.719384"
   inkscape:export-ydpi="13.719384">
  <defs
     id="defs4770">
    <linearGradient
       id="linearGradient4509"
       inkscape:collect="always">
      <stop
         id="stop4511"
         offset="0"
         style="stop-color:#dadcde;stop-opacity:1" />
      <stop
         id="stop4513"
         offset="1"
         style="stop-color:#fafafa;stop-opacity:1" />
    </linearGradient>
    <linearGradient
       id="linearGradient4503"
       inkscape:collect="always">
      <stop
         id="stop4505"
         offset="0"
         style="stop-color:#90959c;stop-opacity:1" />
      <stop
         id="stop4507"
         offset="1"
         style="stop-color:#c4c8cc;stop-opacity:1" />
    </linearGradient>
    <linearGradient
       inkscape:collect="always"
       id="linearGradient4461">
      <stop
         style="stop-color:#45484d;stop-opacity:1"
         offset="0"
         id="stop4463" />
      <stop
         style="stop-color:#5e656b;stop-opacity:1"
         offset="1"
         id="stop4465" />
    </linearGradient>
    <linearGradient
       id="linearGradient4788"
       inkscape:collect="always">
      <stop
         id="stop4790"
         offset="0"
         style="stop-color:#000000;stop-opacity:1" />
      <stop
         id="stop4792"
         offset="1"
         style="stop-color:#000000;stop-opacity:0" />
    </linearGradient>
    <linearGradient
       id="linearGradient4433"
       inkscape:collect="always">
      <stop
         id="stop4435"
         offset="0"
         style="stop-color:#2b3141;stop-opacity:1" />
      <stop
         id="stop4437"
         offset="1"
         style="stop-color:#394056;stop-opacity:1" />
    </linearGradient>
    <linearGradient
       inkscape:collect="always"
       xlink:href="#linearGradient4461"
       id="linearGradient4117"
       gradientUnits="userSpaceOnUse"
       gradientTransform="translate(172.23334,577.30868)"
       x1="92.14286"
       y1="-1049.092"
       x2="92.14286"
       y2="-1001.0899" />
    <linearGradient
       gradientUnits="userSpaceOnUse"
       y2="33.999271"
       x2="42.956738"
       y1="48.000004"
       x1="42.956738"
       id="linearGradient4439"
       xlink:href="#linearGradient4433"
       inkscape:collect="always"
       gradientTransform="translate(237.12678,423.77932)" />
    <linearGradient
       gradientTransform="matrix(-1,0,0,-1,729.69822,1334.1407)"
       y2="862.36139"
       x2="472.50894"
       y1="871.36139"
       x1="458.57144"
       gradientUnits="userSpaceOnUse"
       id="linearGradient4786"
       xlink:href="#linearGradient4788"
       inkscape:collect="always" />
    <linearGradient
       gradientUnits="userSpaceOnUse"
       y2="862.36255"
       x2="458.57144"
       y1="869.36218"
       x1="465.57108"
       id="linearGradient4219"
       xlink:href="#linearGradient4503"
       inkscape:collect="always"
       gradientTransform="translate(-187.44466,-404.58286)" />
    <linearGradient
       inkscape:collect="always"
       xlink:href="#linearGradient4509"
       id="linearGradient4453"
       x1="25"
       y1="38.999996"
       x2="25"
       y2="8.9999971"
       gradientUnits="userSpaceOnUse" />
  </defs>
  <sodipodi:namedview
     id="base"
     pagecolor="#ffffff"
     bordercolor="#666666"
     borderopacity="1.0"
     inkscape:pageopacity="0.0"
     inkscape:pageshadow="2"
     inkscape:zoom="4.0468749"
     inkscape:cx="19.007193"
     inkscape:cy="-5.4491965"
     inkscape:document-units="px"
     inkscape:current-layer="layer1"
     showgrid="false"
     inkscape:window-width="1366"
     inkscape:window-height="671"
     inkscape:window-x="0"
     inkscape:window-y="24"
     inkscape:window-maximized="1"
     showguides="true"
     inkscape:guide-bbox="true"
     fit-margin-top="0"
     fit-margin-left="0"
     fit-margin-right="0"
     fit-margin-bottom="0">
    <sodipodi:guide
       position="1.9531257e-08,2.6074219e-06"
       orientation="-48,0"
       id="guide4181" />
    <sodipodi:guide
       position="1.9531257e-08,48.000003"
       orientation="0,48"
       id="guide4183" />
    <sodipodi:guide
       position="48,48.000003"
       orientation="48,0"
       id="guide4185" />
    <sodipodi:guide
       position="48,2.6074219e-06"
       orientation="0,-48"
       id="guide4187" />
    <sodipodi:guide
       position="9,9.0000026"
       orientation="-30,0"
       id="guide4204" />
    <sodipodi:guide
       position="9,39.000003"
       orientation="0,30"
       id="guide4206" />
    <sodipodi:guide
       position="39,39.000003"
       orientation="30,0"
       id="guide4208" />
    <sodipodi:guide
       position="39,9.0000026"
       orientation="0,-30"
       id="guide4210" />
    <sodipodi:guide
       position="9,9.0000026"
       orientation="-30,0"
       id="guide4220" />
    <sodipodi:guide
       position="9,39.000003"
       orientation="0,15"
       id="guide4222" />
    <sodipodi:guide
       position="24,39.000003"
       orientation="30,0"
       id="guide4224" />
    <sodipodi:guide
       position="24,9.0000026"
       orientation="0,-15"
       id="guide4226" />
    <sodipodi:guide
       position="17,9.0001552"
       orientation="0,14"
       id="guide4262" />
    <sodipodi:guide
       position="31,23.000155"
       orientation="0,-14"
       id="guide4266" />
    <sodipodi:guide
       position="20.5,23.000155"
       orientation="14,0"
       id="guide4270" />
    <sodipodi:guide
       position="20.5,9.0001552"
       orientation="0,7"
       id="guide4272" />
    <sodipodi:guide
       position="27.5,9.0001552"
       orientation="-14,0"
       id="guide4274" />
    <sodipodi:guide
       position="27.5,23.000155"
       orientation="0,-7"
       id="guide4276" />
    <sodipodi:guide
       position="20.5,20.000155"
       orientation="0,3.5"
       id="guide4284" />
    <sodipodi:guide
       position="24,20.000155"
       orientation="-3,0"
       id="guide4286" />
    <sodipodi:guide
       position="24,23.000155"
       orientation="0,-3.5"
       id="guide4288" />
    <sodipodi:guide
       position="23,25.000064"
       orientation="2,0"
       id="guide4292" />
    <sodipodi:guide
       position="23,23.000064"
       orientation="0,2"
       id="guide4294" />
    <sodipodi:guide
       position="25,23.000064"
       orientation="-2,0"
       id="guide4296" />
    <sodipodi:guide
       position="25,25.000064"
       orientation="0,-2"
       id="guide4298" />
  </sodipodi:namedview>
  <metadata
     id="metadata4773">
    <rdf:RDF>
      <cc:Work
         rdf:about="">
        <dc:format>image/svg+xml</dc:format>
        <dc:type
           rdf:resource="http://purl.org/dc/dcmitype/StillImage" />
        <dc:title />
      </cc:Work>
    </rdf:RDF>
  </metadata>
  <g
     inkscape:label="Capa 1"
     inkscape:groupmode="layer"
     id="layer1"
     transform="translate(-237.12677,-423.77933)">
    <rect
       style="fill:url(#linearGradient4117);fill-opacity:1;stroke:none"
       id="rect2991-1-7-3"
       width="48"
       height="48"
       x="237.12679"
       y="-471.77933"
       ry="1.9445436"
       transform="scale(1,-1)" />
    <path
       id="path4485"
       d="m 258.12677,433.97933 0,3 3,0 0,1 -3,0 0,3 3,0 0,1 -3,0 0,3 3,0 0,1 -3,0 0,3 3,0 0,-2 3,0 0,-3 -3,0 0,-1 3,0 0,-3 -3,0 0,-1 3,0 0,-3 -3,0 0,-2 -3,0 z m 2,16 -2.5,3 0,11 7,0 0,-11 -2.5,-3 -2,0 z m -0.5,9 3,0 0,3 -3,0 0,-3 z"
       style="fill:#000000;fill-opacity:0.05882353;stroke:none"
       inkscape:connector-curvature="0" />
    <path
       inkscape:connector-curvature="0"
       style="fill:#000000;fill-opacity:0.11764706;stroke:none"
       d="m 258.12677,433.57933 0,3 3,0 0,1 -3,0 0,3 3,0 0,1 -3,0 0,3 3,0 0,1 -3,0 0,3 3,0 0,-2 3,0 0,-3 -3,0 0,-1 3,0 0,-3 -3,0 0,-1 3,0 0,-3 -3,0 0,-2 -3,0 z m 2,16 -2.5,3 0,11 7,0 0,-11 -2.5,-3 -2,0 z m -0.5,9 3,0 0,3 -3,0 0,-3 z"
       id="path4483" />
    <path
       style="fill:url(#linearGradient4219);fill-opacity:1.0;stroke:none"
       d="m 271.12678,457.77859 0,14.00073 14,-14 z"
       id="path4130"
       inkscape:connector-curvature="0" />
    <path
       inkscape:connector-curvature="0"
       style="fill:url(#linearGradient4439);fill-opacity:1;stroke:none"
       d="m 285.12678,457.77932 -14,14 12.05469,0 c 1.07727,0 1.94531,-0.86804 1.94531,-1.94531 l 0,-12.05469 z"
       id="path4303" />
    <path
       inkscape:connector-curvature="0"
       id="path4784"
       d="m 271.12678,471.77932 0,-14.00073 -14,14 z"
       style="opacity:0.1;fill:url(#linearGradient4786);fill-opacity:1;stroke:none" />
    <path
       inkscape:connector-curvature="0"
       style="fill:#000000;fill-opacity:1;stroke:none"
       d="m 237.12676,468.77934 0,1.0625 c 0,1.0773 0.86022,1.9375 1.9375,1.9375 l 44.125,0 c 1.07728,0 1.9375,-0.8602 1.9375,-1.9375 l 0,-1.0625 c 0,1.0773 -0.86022,1.9375 -1.9375,1.9375 l -44.125,0 c -1.07728,0 -1.9375,-0.8602 -1.9375,-1.9375 z"
       id="rect846-0-2" />
    <path
       inkscape:connector-curvature="0"
       style="fill:#ffffff;fill-opacity:0.5372549;stroke:none"
       d="m 239.65801,424.43564 c -0.91709,0 -1.67115,0.6395 -1.84375,1.5 0.33561,-0.2799 0.77451,-0.4375 1.25,-0.4375 l 44.125,0 c 0.47549,0 0.91439,0.1576 1.25,0.4375 -0.1726,-0.8605 -0.92666,-1.5 -1.84375,-1.5 l -42.9375,0 z"
       id="path7515-3" />
    <path
       inkscape:connector-curvature="0"
       style="fill:#000000;fill-opacity:0.39215686;stroke:none"
       d="m 239.06426,423.77934 c -1.07728,0 -1.9375,0.8602 -1.9375,1.9375 l 0,43.0625 c 0,0.7934 0.48002,1.449 1.15625,1.75 -0.30934,-0.3333 -0.5,-0.7824 -0.5,-1.2812 l 0,-42.9375 c 0,-1.0482 0.8269,-1.875 1.875,-1.875 l 42.9375,0 c 1.0481,0 1.875,0.8268 1.875,1.875 l 0,42.9375 c 0,0.4988 -0.19066,0.9479 -0.5,1.2812 0.67623,-0.301 1.15625,-0.9566 1.15625,-1.75 l 0,-43.0625 c 0,-1.0773 -0.86022,-1.9375 -1.9375,-1.9375 l -44.125,0 z"
       id="rect4280-1" />
    <g
       style="font-size:10px;font-style:normal;font-variant:normal;font-weight:normal;font-stretch:normal;line-height:125%;letter-spacing:0px;word-spacing:0px;fill:#000000;fill-opacity:1;stroke:none;font-family:Decker;-inkscape-font-specification:Decker"
       id="text6661"
       transform="translate(-180.25283,-182.16084)" />
    <path
       id="path4479"
       d="m 258.12677,433.17933 0,3 3,0 0,1 -3,0 0,3 3,0 0,1 -3,0 0,3 3,0 0,1 -3,0 0,3 3,0 0,-2 3,0 0,-3 -3,0 0,-1 3,0 0,-3 -3,0 0,-1 3,0 0,-3 -3,0 0,-2 -3,0 z m 2,16 -2.5,3 0,11 7,0 0,-11 -2.5,-3 -2,0 z m -0.5,9 3,0 0,3 -3,0 0,-3 z"
       style="fill:#000000;fill-opacity:0.23529412;stroke:none"
       inkscape:connector-curvature="0" />
    <path
       style="fill:url(#linearGradient4453);fill-opacity:1.0;stroke:none"
       d="M 21 9 L 21 12 L 24 12 L 24 13 L 21 13 L 21 16 L 24 16 L 24 17 L 21 17 L 21 20 L 24 20 L 24 21 L 21 21 L 21 24 L 24 24 L 24 22 L 27 22 L 27 19 L 24 19 L 24 18 L 27 18 L 27 15 L 24 15 L 24 14 L 27 14 L 27 11 L 24 11 L 24 9 L 21 9 z M 23 25 L 20.5 28 L 20.5 39 L 27.5 39 L 27.5 28 L 25 25 L 23 25 z M 22.5 34 L 25.5 34 L 25.5 37 L 22.5 37 L 22.5 34 z "
       transform="translate(237.12677,423.77933)"
       id="rect4212" />
    <path
       style="fill:#4c5055;fill-opacity:0.3137255;stroke:none"
       d="M 21 11.199219 L 21 12 L 24 12 L 24 11.199219 L 21 11.199219 z M 24 13.199219 L 24 14 L 27 14 L 27 13.199219 L 24 13.199219 z M 21 15.199219 L 21 16 L 24 16 L 24 15.199219 L 21 15.199219 z M 24 17.199219 L 24 18 L 27 18 L 27 17.199219 L 24 17.199219 z M 21 19.199219 L 21 20 L 24 20 L 24 19.199219 L 21 19.199219 z M 24 21.199219 L 24 22 L 27 22 L 27 21.199219 L 24 21.199219 z M 21 23.199219 L 21 24 L 24 24 L 24 23.199219 L 21 23.199219 z M 22.5 33.199219 L 22.5 34 L 25.5 34 L 25.5 33.199219 L 22.5 33.199219 z M 20.5 38.199219 L 20.5 39 L 27.5 39 L 27.5 38.199219 L 20.5 38.199219 z "
       transform="translate(237.12677,423.77933)"
       id="path4487" />
    <path
       style="fill:#ffffff;fill-opacity:0.23529412;stroke:none"
       d="M 21 9 L 21 9.4003906 L 24 9.4003906 L 24 9 L 21 9 z M 24 11 L 24 11.400391 L 27 11.400391 L 27 11 L 24 11 z M 21 13 L 21 13.400391 L 24 13.400391 L 24 13 L 21 13 z M 24 15 L 24 15.400391 L 27 15.400391 L 27 15 L 24 15 z M 21 17 L 21 17.400391 L 24 17.400391 L 24 17 L 21 17 z M 24 19 L 24 19.400391 L 27 19.400391 L 27 19 L 24 19 z M 21 21 L 21 21.400391 L 24 21.400391 L 24 21 L 21 21 z M 23 25 L 20.5 28 L 20.5 28.400391 L 23 25.400391 L 25 25.400391 L 27.5 28.400391 L 27.5 28 L 25 25 L 23 25 z M 22.5 37 L 22.5 37.400391 L 25.5 37.400391 L 25.5 37 L 22.5 37 z "
       transform="translate(237.12677,423.77933)"
       id="path4515" />
  </g>
</svg>
