<?xml version="1.0" encoding="UTF-8" standalone="no"?>
<!-- Created with Inkscape (http://www.inkscape.org/) -->

<svg
   xmlns:dc="http://purl.org/dc/elements/1.1/"
   xmlns:cc="http://creativecommons.org/ns#"
   xmlns:rdf="http://www.w3.org/1999/02/22-rdf-syntax-ns#"
   xmlns:svg="http://www.w3.org/2000/svg"
   xmlns="http://www.w3.org/2000/svg"
   xmlns:xlink="http://www.w3.org/1999/xlink"
   xmlns:sodipodi="http://sodipodi.sourceforge.net/DTD/sodipodi-0.dtd"
   xmlns:inkscape="http://www.inkscape.org/namespaces/inkscape"
   width="48"
   height="48"
   id="svg5453"
   version="1.1"
   inkscape:version="0.49 r12742"
   sodipodi:docname="application-vnd.geogebra.tool.svg">
  <defs
     id="defs5455">
    <linearGradient
       id="linearGradient4788"
       inkscape:collect="always">
      <stop
         id="stop4790"
         offset="0"
         style="stop-color:#000000;stop-opacity:1" />
      <stop
         id="stop4792"
         offset="1"
         style="stop-color:#000000;stop-opacity:0" />
    </linearGradient>
    <linearGradient
       id="linearGradient4433"
       inkscape:collect="always">
      <stop
         id="stop4435"
         offset="0"
         style="stop-color:#2b3141;stop-opacity:1" />
      <stop
         id="stop4437"
         offset="1"
         style="stop-color:#394056;stop-opacity:1" />
    </linearGradient>
    <linearGradient
       inkscape:collect="always"
       xlink:href="#linearGradient943-2"
       id="linearGradient4117"
       gradientUnits="userSpaceOnUse"
       gradientTransform="translate(319.67799,501.29004)"
       x1="92.14286"
       y1="-1049.092"
       x2="92.14286"
       y2="-1001.0899" />
    <linearGradient
       gradientUnits="userSpaceOnUse"
       y2="33.999271"
       x2="42.956738"
       y1="48.000004"
       x1="42.956738"
       id="linearGradient4439"
       xlink:href="#linearGradient4433"
       inkscape:collect="always"
       gradientTransform="translate(384.57143,499.79796)" />
    <linearGradient
       gradientTransform="matrix(-1,0,0,-1,877.14287,1410.1594)"
       y2="862.36139"
       x2="472.50894"
       y1="871.36139"
       x1="458.57144"
       gradientUnits="userSpaceOnUse"
       id="linearGradient4786"
       xlink:href="#linearGradient4788"
       inkscape:collect="always" />
    <linearGradient
       gradientUnits="userSpaceOnUse"
       y2="862.36255"
       x2="458.57144"
       y1="869.36218"
       x1="465.57108"
       id="linearGradient4219"
       xlink:href="#linearGradient4349"
       inkscape:collect="always"
       gradientTransform="translate(-40.000006,-328.56422)" />
    <linearGradient
       id="linearGradient4349">
      <stop
         style="stop-color:#6a76c2;stop-opacity:1"
         offset="0"
         id="stop4351" />
      <stop
         style="stop-color:#a6b0ea;stop-opacity:1"
         offset="1"
         id="stop4353" />
    </linearGradient>
    <linearGradient
       id="linearGradient943-2">
      <stop
         id="stop945-2"
         offset="0"
         style="stop-color:#4e5db7;stop-opacity:1" />
      <stop
         id="stop947-4"
         offset="1"
         style="stop-color:#6475da;stop-opacity:1" />
    </linearGradient>
    <linearGradient
       id="linearGradient4372">
      <stop
         id="stop4374"
         offset="0"
         style="stop-color:#cdd1eb;stop-opacity:1" />
      <stop
         id="stop4376"
         offset="1"
         style="stop-color:#f7f8fd;stop-opacity:1" />
    </linearGradient>
    <linearGradient
       inkscape:collect="always"
       xlink:href="#linearGradient4372"
       id="linearGradient4817"
       x1="26.75"
       y1="39.000038"
       x2="26.75"
       y2="9.0000353"
       gradientUnits="userSpaceOnUse" />
  </defs>
  <sodipodi:namedview
     id="base"
     pagecolor="#ffffff"
     bordercolor="#666666"
     borderopacity="1.0"
     inkscape:pageopacity="0"
     inkscape:pageshadow="2"
     inkscape:zoom="5.6568543"
     inkscape:cx="11.916346"
     inkscape:cy="20.868039"
     inkscape:document-units="px"
     inkscape:current-layer="layer1"
     showgrid="false"
     fit-margin-top="0"
     fit-margin-left="0"
     fit-margin-right="0"
     fit-margin-bottom="0"
     inkscape:window-width="1366"
     inkscape:window-height="718"
     inkscape:window-x="-2"
     inkscape:window-y="23"
     inkscape:window-maximized="1"
     inkscape:showpageshadow="false"
     borderlayer="true"
     showguides="true">
    <sodipodi:guide
       position="9.0000117,8.9999653"
       orientation="-30,0"
       id="guide4320" />
    <sodipodi:guide
       position="9.0000117,38.999965"
       orientation="0,30"
       id="guide4322" />
    <sodipodi:guide
       position="39.000012,38.999965"
       orientation="30,0"
       id="guide4324" />
    <sodipodi:guide
       position="39.000012,8.9999653"
       orientation="0,-30"
       id="guide4326" />
    <inkscape:grid
       type="xygrid"
       id="grid4328" />
    <sodipodi:guide
       position="9,8.99996"
       orientation="-30,30"
       id="guide4670" />
    <sodipodi:guide
       position="39,38.99996"
       orientation="30,0"
       id="guide4672" />
    <sodipodi:guide
       position="39,8.99996"
       orientation="0,-30"
       id="guide4674" />
    <sodipodi:guide
       position="9,9"
       orientation="0,30"
       id="guide4682" />
    <sodipodi:guide
       position="39,9"
       orientation="-3,0"
       id="guide4684" />
    <sodipodi:guide
       position="39,12"
       orientation="0,-27"
       id="guide4686" />
    <sodipodi:guide
       position="12,12"
       orientation="0,0"
       id="guide4688" />
    <sodipodi:guide
       position="39,38.99996"
       orientation="30,0"
       id="guide4692" />
    <sodipodi:guide
       position="39,8.99996"
       orientation="0,-3"
       id="guide4694" />
    <sodipodi:guide
       position="36,8.99996"
       orientation="-27,0"
       id="guide4696" />
    <sodipodi:guide
       position="36,35.99996"
       orientation="0,0"
       id="guide4698" />
  </sodipodi:namedview>
  <metadata
     id="metadata5458">
    <rdf:RDF>
      <cc:Work
         rdf:about="">
        <dc:format>image/svg+xml</dc:format>
        <dc:type
           rdf:resource="http://purl.org/dc/dcmitype/StillImage" />
        <dc:title></dc:title>
      </cc:Work>
    </rdf:RDF>
  </metadata>
  <g
     inkscape:label="Capa 1"
     inkscape:groupmode="layer"
     id="layer1"
     transform="translate(-384.57143,-499.798)">
    <rect
       style="fill:url(#linearGradient4117);fill-opacity:1.0;stroke:none"
       id="rect2991-1-7-3"
       width="48"
       height="48"
       x="384.57144"
       y="-547.79803"
       ry="1.9445436"
       transform="scale(1,-1)" />
    <path
       inkscape:connector-curvature="0"
       style="fill:#000000;fill-opacity:0.11764706;stroke:none"
       d="m 423.57143,509.598 -3,3 0,24 -19.74805,0 16.96094,-16.96094 0,-4.24414 -21.20508,21.20508 -0.008,0 -3,3 27,0 3,0 0,-3 0,-27 z"
       id="path4823" />
    <path
       id="path4825"
       d="m 423.57143,509.998 -3,3 0,24 -19.74805,0 16.96094,-16.96094 0,-4.24414 -21.20508,21.20508 -0.008,0 -3,3 27,0 3,0 0,-3 0,-27 z"
       style="fill:#000000;fill-opacity:0.05882353;stroke:none"
       inkscape:connector-curvature="0" />
    <path
       id="path4819"
       d="m 423.57143,509.198 -3,3 0,24 -19.74805,0 16.96094,-16.96094 0,-4.24414 -21.20508,21.20508 -0.008,0 -3,3 27,0 3,0 0,-3 0,-27 z"
       style="fill:#000000;fill-opacity:0.23529412;stroke:none"
       inkscape:connector-curvature="0" />
    <path
       style="fill:url(#linearGradient4817);fill-opacity:1;stroke:none"
       d="M 39 9 L 36 12 L 36 36 L 16.251953 36 L 33.212891 19.039062 L 33.212891 14.794922 L 12.007812 36 L 12 36 L 9 39 L 36 39 L 39 39 L 39 36 L 39 9 z "
       transform="translate(384.57143,499.798)"
       id="rect4645" />
    <path
       style="fill:#4d5cb7;fill-opacity:0.3137255;stroke:none"
       d="M 33.212891 18.238281 L 16.251953 35.199219 L 17.052734 35.199219 L 33.212891 19.039062 L 33.212891 18.238281 z M 9.8007812 38.199219 L 9 39 L 36 39 L 39 39 L 39 38.199219 L 36 38.199219 L 9.8007812 38.199219 z "
       transform="translate(384.57143,499.798)"
       id="path4827" />
    <path
       style="fill:#ffffff;fill-opacity:0.23529412;stroke:none"
       d="M 39 9 L 36 12 L 36 12.400391 L 39 9.4003906 L 39 9 z M 33.212891 14.794922 L 12.007812 36 L 12 36 L 9 39 L 9.4003906 39 L 12 36.400391 L 12.007812 36.400391 L 33.212891 15.195312 L 33.212891 14.794922 z M 16.652344 36 L 16.251953 36.400391 L 36 36.400391 L 36 36 L 16.652344 36 z "
       transform="translate(384.57143,499.798)"
       id="path4832" />
    <path
       style="fill:url(#linearGradient4219);fill-opacity:1.0;stroke:none"
       d="m 418.57143,533.79723 0,14.00073 14,-14 z"
       id="path4130"
       inkscape:connector-curvature="0" />
    <path
       inkscape:connector-curvature="0"
       style="fill:url(#linearGradient4439);fill-opacity:1;stroke:none"
       d="m 432.57143,533.79796 -14,14 12.05469,0 c 1.07727,0 1.94531,-0.86803 1.94531,-1.94531 l 0,-12.05469 z"
       id="path4303" />
    <path
       inkscape:connector-curvature="0"
       id="path4784"
       d="m 418.57143,547.79796 0,-14.00073 -14,14 z"
       style="opacity:0.1;fill:url(#linearGradient4786);fill-opacity:1;stroke:none" />
    <path
       inkscape:connector-curvature="0"
       style="fill:#000000;fill-opacity:1;stroke:none"
       d="m 384.57141,544.79798 0,1.0625 c 0,1.0773 0.86022,1.9375 1.9375,1.9375 l 44.125,0 c 1.07728,0 1.9375,-0.8602 1.9375,-1.9375 l 0,-1.0625 c 0,1.0773 -0.86022,1.9375 -1.9375,1.9375 l -44.125,0 c -1.07728,0 -1.9375,-0.8602 -1.9375,-1.9375 z"
       id="rect846-0" />
    <path
       inkscape:connector-curvature="0"
       style="fill:#000000;fill-opacity:0.39215686;stroke:none"
       d="m 386.50891,499.79798 c -1.07728,0 -1.9375,0.8602 -1.9375,1.9375 l 0,43.0625 c 0,0.7934 0.48002,1.449 1.15625,1.75 -0.30934,-0.3333 -0.5,-0.7824 -0.5,-1.2812 l 0,-42.9375 c 0,-1.0482 0.8269,-1.875 1.875,-1.875 l 42.9375,0 c 1.0481,0 1.875,0.8268 1.875,1.875 l 0,42.9375 c 0,0.4988 -0.19066,0.9479 -0.5,1.2812 0.67623,-0.301 1.15625,-0.9566 1.15625,-1.75 l 0,-43.0625 c 0,-1.0773 -0.86022,-1.9375 -1.9375,-1.9375 l -44.125,0 z"
       id="rect4280-1" />
    <path
       inkscape:connector-curvature="0"
       style="fill:#ffffff;fill-opacity:0.5372549;stroke:none"
       d="m 387.10266,500.45428 c -0.91709,0 -1.67115,0.6395 -1.84375,1.5 0.33561,-0.2799 0.77451,-0.4375 1.25,-0.4375 l 44.125,0 c 0.47549,0 0.91439,0.1576 1.25,0.4375 -0.1726,-0.8605 -0.92666,-1.5 -1.84375,-1.5 l -42.9375,0 z"
       id="path7515-3" />
  </g>
</svg>
