<?xml version="1.0" encoding="UTF-8" standalone="no"?>
<!-- Created with Inkscape (http://www.inkscape.org/) -->

<svg
   xmlns:dc="http://purl.org/dc/elements/1.1/"
   xmlns:cc="http://creativecommons.org/ns#"
   xmlns:rdf="http://www.w3.org/1999/02/22-rdf-syntax-ns#"
   xmlns:svg="http://www.w3.org/2000/svg"
   xmlns="http://www.w3.org/2000/svg"
   xmlns:xlink="http://www.w3.org/1999/xlink"
   xmlns:sodipodi="http://sodipodi.sourceforge.net/DTD/sodipodi-0.dtd"
   xmlns:inkscape="http://www.inkscape.org/namespaces/inkscape"
   width="48"
   height="48"
   id="svg4424"
   version="1.1"
   inkscape:version="0.48+devel r12903"
   sodipodi:docname="application-vnd.oasis.opendocument.database.svg">
  <defs
     id="defs4426">
    <linearGradient
       id="linearGradient4788"
       inkscape:collect="always">
      <stop
         id="stop4790"
         offset="0"
         style="stop-color:#000000;stop-opacity:1" />
      <stop
         id="stop4792"
         offset="1"
         style="stop-color:#000000;stop-opacity:0" />
    </linearGradient>
    <linearGradient
       id="linearGradient4433"
       inkscape:collect="always">
      <stop
         id="stop4435"
         offset="0"
         style="stop-color:#2b3141;stop-opacity:1" />
      <stop
         id="stop4437"
         offset="1"
         style="stop-color:#394056;stop-opacity:1" />
    </linearGradient>
    <linearGradient
       inkscape:collect="always"
       xlink:href="#linearGradient943-2"
       id="linearGradient4117"
       gradientUnits="userSpaceOnUse"
       gradientTransform="translate(-64.893431,-3.2741987)"
       x1="92.14286"
       y1="-1049.092"
       x2="92.14286"
       y2="-1001.0899" />
    <linearGradient
       gradientUnits="userSpaceOnUse"
       y2="33.999271"
       x2="42.956738"
       y1="48.000004"
       x1="42.956738"
       id="linearGradient4439"
       xlink:href="#linearGradient4433"
       inkscape:collect="always"
       gradientTransform="translate(9.1748047e-6,1004.3622)" />
    <linearGradient
       gradientTransform="matrix(-1,0,0,-1,492.57145,1914.7236)"
       y2="862.36139"
       x2="472.50894"
       y1="871.36139"
       x1="458.57144"
       gradientUnits="userSpaceOnUse"
       id="linearGradient4786"
       xlink:href="#linearGradient4788"
       inkscape:collect="always" />
    <linearGradient
       gradientUnits="userSpaceOnUse"
       y2="862.36255"
       x2="458.57144"
       y1="869.36218"
       x1="465.57108"
       id="linearGradient4219"
       xlink:href="#linearGradient4349"
       inkscape:collect="always"
       gradientTransform="translate(-424.57143,176.00002)" />
    <linearGradient
       id="linearGradient4372">
      <stop
         id="stop4374"
         offset="0"
         style="stop-color:#cdd1eb;stop-opacity:1" />
      <stop
         id="stop4376"
         offset="1"
         style="stop-color:#f7f8fd;stop-opacity:1" />
    </linearGradient>
    <linearGradient
       id="linearGradient4349">
      <stop
         style="stop-color:#6a76c2;stop-opacity:1"
         offset="0"
         id="stop4351" />
      <stop
         style="stop-color:#a6b0ea;stop-opacity:1"
         offset="1"
         id="stop4353" />
    </linearGradient>
    <linearGradient
       id="linearGradient943-2">
      <stop
         id="stop945-2"
         offset="0"
         style="stop-color:#4e5db7;stop-opacity:1" />
      <stop
         id="stop947-4"
         offset="1"
         style="stop-color:#6475da;stop-opacity:1" />
    </linearGradient>
    <linearGradient
       inkscape:collect="always"
       xlink:href="#linearGradient4372"
       id="linearGradient4271"
       x1="-20.29785"
       y1="1043.2828"
       x2="-20.29785"
       y2="1013.2828"
       gradientUnits="userSpaceOnUse"
       gradientTransform="translate(52.873552,0.0794)" />
  </defs>
  <sodipodi:namedview
     id="base"
     pagecolor="#ffffff"
     bordercolor="#666666"
     borderopacity="1.0"
     inkscape:pageopacity="0.0"
     inkscape:pageshadow="2"
     inkscape:zoom="5.665625"
     inkscape:cx="2.3681742"
     inkscape:cy="20.912654"
     inkscape:document-units="px"
     inkscape:current-layer="layer1"
     showgrid="false"
     inkscape:window-width="1366"
     inkscape:window-height="671"
     inkscape:window-x="0"
     inkscape:window-y="24"
     inkscape:window-maximized="1">
    <sodipodi:guide
       position="1.0825195e-05,1.7382813e-05"
       orientation="-48,0"
       id="guide4275" />
    <sodipodi:guide
       position="1.0825195e-05,48.000017"
       orientation="0,48.000001"
       id="guide4277" />
    <sodipodi:guide
       position="48.000011,48.000017"
       orientation="48,0"
       id="guide4279" />
    <sodipodi:guide
       position="48.000011,1.7382813e-05"
       orientation="0,-48.000001"
       id="guide4281" />
    <sodipodi:guide
       position="9.0000114,9.0000174"
       orientation="-30,0"
       id="guide4287" />
    <sodipodi:guide
       position="9.0000114,39.000017"
       orientation="0,30"
       id="guide4289" />
    <sodipodi:guide
       position="39.000011,39.000017"
       orientation="30,0"
       id="guide4291" />
    <sodipodi:guide
       position="39.000011,9.0000174"
       orientation="0,-30"
       id="guide4293" />
  </sodipodi:namedview>
  <metadata
     id="metadata4429">
    <rdf:RDF>
      <cc:Work
         rdf:about="">
        <dc:format>image/svg+xml</dc:format>
        <dc:type
           rdf:resource="http://purl.org/dc/dcmitype/StillImage" />
        <dc:title />
      </cc:Work>
    </rdf:RDF>
  </metadata>
  <g
     inkscape:label="Capa 1"
     inkscape:groupmode="layer"
     id="layer1"
     transform="translate(0,-1004.3622)">
    <rect
       style="fill:url(#linearGradient4117);fill-opacity:1;stroke:none"
       id="rect2991-1-7-3"
       width="48"
       height="48"
       x="1.0825195e-05"
       y="-1052.3622"
       ry="1.9445436"
       transform="scale(1,-1)" />
    <path
       inkscape:connector-curvature="0"
       id="path4301"
       d="m 11,1014.5622 0,30 26,0 0,-9.8516 0,-3.1231 -14.199219,-17.0253 -2.605469,0 -9.195312,0 z m 13.451172,0 1.714843,2 0.0039,0 8.830078,10.2968 2,2.3321 0,-14.6289 -12.548828,0 z m -11.451172,2 8.863281,0 13.136719,15.75 0,10.25 -22,0 0,-26 z"
       style="fill:#000000;fill-opacity:0.05882353;stroke:none" />
    <path
       style="fill:#000000;fill-opacity:0.11764706;stroke:none"
       d="m 11,1014.1622 0,30 26,0 0,-9.8516 0,-3.1231 -14.199219,-17.0253 -2.605469,0 -9.195312,0 z m 13.451172,0 1.714843,2 0.0039,0 8.830078,10.2968 2,2.3321 0,-14.6289 -12.548828,0 z m -11.451172,2 8.863281,0 13.136719,15.75 0,10.25 -22,0 0,-26 z"
       id="path4299"
       inkscape:connector-curvature="0" />
    <path
       inkscape:connector-curvature="0"
       id="path4295"
       d="m 11,1013.7622 0,30 26,0 0,-9.8516 0,-3.1231 -14.199219,-17.0253 -2.605469,0 -9.195312,0 z m 13.451172,0 1.714843,2 0.0039,0 8.830078,10.2968 2,2.3321 0,-14.6289 -12.548828,0 z m -11.451172,2 8.863281,0 13.136719,15.75 0,10.25 -22,0 0,-26 z"
       style="fill:#000000;fill-opacity:0.23529412;stroke:none" />
    <path
       style="fill:url(#linearGradient4271);fill-opacity:1;stroke:none"
       d="m 11,1013.3622 0,30 26,0 0,-9.8516 0,-3.1231 -14.199219,-17.0253 -2.605469,0 -9.195312,0 z m 13.451172,0 1.714843,2 0.0039,0 8.830078,10.2968 2,2.3321 0,-14.6289 -12.548828,0 z m -11.451172,2 8.863281,0 13.136719,15.75 0,10.25 -22,0 0,-26 z"
       id="rect3235"
       inkscape:connector-curvature="0" />
    <path
       style="fill:#ffffff;fill-opacity:0.23529412;stroke:none"
       d="M 11 9 L 11 9.4003906 L 20.195312 9.4003906 L 22.800781 9.4003906 L 37 26.425781 L 37 26.025391 L 22.800781 9 L 20.195312 9 L 11 9 z M 24.451172 9 L 24.794922 9.4003906 L 37 9.4003906 L 37 9 L 24.451172 9 z M 13 37 L 13 37.400391 L 35 37.400391 L 35 37 L 13 37 z "
       transform="translate(0,1004.3622)"
       id="path4309" />
    <path
       style="fill:#5564c2;fill-opacity:0.3137255;stroke:none"
       d="M 24.451172 9 L 26.166016 11 L 26.169922 11 L 35 21.296875 L 37 23.628906 L 37 22.828125 L 35 20.496094 L 26.169922 10.199219 L 26.166016 10.199219 L 25.138672 9 L 24.451172 9 z M 13 10.199219 L 13 11 L 21.863281 11 L 35 26.75 L 35 25.949219 L 21.863281 10.199219 L 13 10.199219 z M 11 38.199219 L 11 39 L 37 39 L 37 38.199219 L 11 38.199219 z "
       transform="translate(0,1004.3622)"
       id="path4304" />
    <path
       inkscape:connector-curvature="0"
       style="fill:#ffffff;fill-opacity:0.5372549;stroke:none"
       d="m 2.5312392,1005.0185 c -0.91709,0 -1.67115003,0.6395 -1.84375003,1.5 0.33561003,-0.2799 0.77451003,-0.4375 1.25000003,-0.4375 l 44.1249998,0 c 0.47549,0 0.91439,0.1576 1.25,0.4375 -0.1726,-0.8605 -0.92666,-1.5 -1.84375,-1.5 l -42.9374998,0 z"
       id="path7515-3" />
    <path
       style="fill:url(#linearGradient4219);fill-opacity:1;stroke:none"
       d="m 34.000009,1038.3615 0,14.0007 14,-14 z"
       id="path4130"
       inkscape:connector-curvature="0" />
    <path
       inkscape:connector-curvature="0"
       style="fill:url(#linearGradient4439);fill-opacity:1;stroke:none"
       d="m 48.000009,1038.3622 -14,14 12.054688,0 c 1.077277,0 1.945312,-0.868 1.945312,-1.9453 l 0,-12.0547 z"
       id="path4303" />
    <path
       inkscape:connector-curvature="0"
       id="path4784"
       d="m 34.000009,1052.3622 0,-14.0007 -14,14 z"
       style="opacity:0.1;fill:url(#linearGradient4786);fill-opacity:1;stroke:none" />
    <path
       inkscape:connector-curvature="0"
       style="fill:#000000;fill-opacity:1;stroke:none"
       d="m -1.0825195e-5,1049.3622 0,1.0625 c 0,1.0773 0.860219995195,1.9375 1.937500025195,1.9375 l 44.1249998,0 c 1.07728,0 1.9375,-0.8602 1.9375,-1.9375 l 0,-1.0625 c 0,1.0773 -0.86022,1.9375 -1.9375,1.9375 l -44.1249998,0 c -1.07728003,0 -1.937500025195,-0.8602 -1.937500025195,-1.9375 z"
       id="rect846-0-6" />
    <path
       inkscape:connector-curvature="0"
       style="fill:#000000;fill-opacity:0.39215686;stroke:none"
       d="m 1.9374892,1004.3622 c -1.07728003,0 -1.937500025195,0.8602 -1.937500025195,1.9375 l 0,43.0625 c 0,0.7934 0.480019995195,1.449 1.156250025195,1.75 -0.30934003,-0.3333 -0.50000003,-0.7824 -0.50000003,-1.2812 l 0,-42.9375 c 0,-1.0482 0.82690003,-1.875 1.87500003,-1.875 l 42.9374998,0 c 1.0481,0 1.875,0.8268 1.875,1.875 l 0,42.9375 c 0,0.4988 -0.19066,0.9479 -0.5,1.2812 0.67623,-0.301 1.15625,-0.9566 1.15625,-1.75 l 0,-43.0625 c 0,-1.0773 -0.86022,-1.9375 -1.9375,-1.9375 l -44.1249998,0 z"
       id="rect4280-1" />
  </g>
</svg>
