<?xml version="1.0" encoding="UTF-8" standalone="no"?>
<!-- Created with Inkscape (http://www.inkscape.org/) -->

<svg
   xmlns:dc="http://purl.org/dc/elements/1.1/"
   xmlns:cc="http://creativecommons.org/ns#"
   xmlns:rdf="http://www.w3.org/1999/02/22-rdf-syntax-ns#"
   xmlns:svg="http://www.w3.org/2000/svg"
   xmlns="http://www.w3.org/2000/svg"
   xmlns:xlink="http://www.w3.org/1999/xlink"
   xmlns:sodipodi="http://sodipodi.sourceforge.net/DTD/sodipodi-0.dtd"
   xmlns:inkscape="http://www.inkscape.org/namespaces/inkscape"
   width="48"
   height="48"
   id="svg4287"
   version="1.1"
   inkscape:version="0.48+devel r12910"
   sodipodi:docname="application-vnd.oasis.opendocument.text-master.svg">
  <defs
     id="defs4289">
    <linearGradient
       inkscape:collect="always"
       id="linearGradient4788">
      <stop
         style="stop-color:#000000;stop-opacity:1"
         offset="0"
         id="stop4790" />
      <stop
         style="stop-color:#000000;stop-opacity:0"
         offset="1"
         id="stop4792" />
    </linearGradient>
    <linearGradient
       inkscape:collect="always"
       id="linearGradient4433">
      <stop
         style="stop-color:#2b3141;stop-opacity:1"
         offset="0"
         id="stop4435" />
      <stop
         style="stop-color:#394056;stop-opacity:1"
         offset="1"
         id="stop4437" />
    </linearGradient>
    <linearGradient
       y2="-1001.0899"
       x2="92.14286"
       y1="-1049.092"
       x1="92.14286"
       gradientTransform="translate(-64.893431,-3.2741987)"
       gradientUnits="userSpaceOnUse"
       id="linearGradient4117"
       xlink:href="#linearGradient943-6"
       inkscape:collect="always" />
    <linearGradient
       gradientTransform="translate(9.1748047e-6,1004.3622)"
       inkscape:collect="always"
       xlink:href="#linearGradient4433"
       id="linearGradient4439"
       x1="42.956738"
       y1="48.000004"
       x2="42.956738"
       y2="33.999271"
       gradientUnits="userSpaceOnUse" />
    <linearGradient
       inkscape:collect="always"
       xlink:href="#linearGradient4788"
       id="linearGradient4786"
       gradientUnits="userSpaceOnUse"
       x1="458.57144"
       y1="871.36139"
       x2="472.50894"
       y2="862.36139"
       gradientTransform="matrix(-1,0,0,-1,492.57145,1914.7236)" />
    <linearGradient
       gradientTransform="translate(-424.57143,176.00002)"
       inkscape:collect="always"
       xlink:href="#linearGradient4266"
       id="linearGradient4219"
       x1="465.57108"
       y1="869.36218"
       x2="458.57144"
       y2="862.36255"
       gradientUnits="userSpaceOnUse" />
    <linearGradient
       gradientTransform="translate(52.873552,0.0794)"
       gradientUnits="userSpaceOnUse"
       y2="1013.2828"
       x2="-20.29785"
       y1="1043.2828"
       x1="-20.29785"
       id="linearGradient4271"
       xlink:href="#linearGradient4274"
       inkscape:collect="always" />
    <linearGradient
       id="linearGradient4274">
      <stop
         style="stop-color:#b9d9ff;stop-opacity:1"
         offset="0"
         id="stop4276" />
      <stop
         style="stop-color:#f6fbfe;stop-opacity:1"
         offset="1"
         id="stop4278" />
    </linearGradient>
    <linearGradient
       id="linearGradient4266">
      <stop
         style="stop-color:#2d8eff;stop-opacity:1"
         offset="0"
         id="stop4268" />
      <stop
         style="stop-color:#9cd3f4;stop-opacity:1"
         offset="1"
         id="stop4270" />
    </linearGradient>
    <linearGradient
       id="linearGradient943-6">
      <stop
         id="stop945-0"
         offset="0"
         style="stop-color:#0059c1;stop-opacity:1" />
      <stop
         id="stop947-5"
         offset="1"
         style="stop-color:#118de7;stop-opacity:1" />
    </linearGradient>
  </defs>
  <sodipodi:namedview
     id="base"
     pagecolor="#ffffff"
     bordercolor="#666666"
     borderopacity="1.0"
     inkscape:pageopacity="0.0"
     inkscape:pageshadow="2"
     inkscape:zoom="2.8328125"
     inkscape:cx="26.614989"
     inkscape:cy="10.256383"
     inkscape:document-units="px"
     inkscape:current-layer="layer1"
     showgrid="false"
     width="0px"
     height="0px"
     fit-margin-top="0"
     fit-margin-left="0"
     fit-margin-right="0"
     fit-margin-bottom="0"
     inkscape:window-width="1366"
     inkscape:window-height="671"
     inkscape:window-x="0"
     inkscape:window-y="24"
     inkscape:window-maximized="1" />
  <metadata
     id="metadata4292">
    <rdf:RDF>
      <cc:Work
         rdf:about="">
        <dc:format>image/svg+xml</dc:format>
        <dc:type
           rdf:resource="http://purl.org/dc/dcmitype/StillImage" />
        <dc:title />
      </cc:Work>
    </rdf:RDF>
  </metadata>
  <g
     inkscape:label="Capa 1"
     inkscape:groupmode="layer"
     id="layer1"
     transform="translate(0,-1004.3622)">
    <g
       id="layer1-0"
       inkscape:label="Capa 1"
       transform="translate(0,8.6914065e-6)">
      <rect
         transform="scale(1,-1)"
         ry="1.9445436"
         y="-1052.3622"
         x="1.0825195e-05"
         height="48"
         width="48"
         id="rect2991-1-7-3-1"
         style="fill:url(#linearGradient4117);fill-opacity:1.0;stroke:none" />
      <path
         style="fill:#000000;fill-opacity:0.05882353;stroke:none"
         d="m 11,1014.5622 0,30 26,0 0,-9.8516 0,-3.1231 -14.199219,-17.0253 -2.605469,0 -9.195312,0 z m 13.451172,0 1.714843,2 0.0039,0 8.830078,10.2968 2,2.3321 0,-14.6289 -12.548828,0 z m -11.451172,2 8.863281,0 13.136719,15.75 0,10.25 -22,0 0,-26 z"
         id="path4301"
         inkscape:connector-curvature="0" />
      <path
         inkscape:connector-curvature="0"
         id="path4299"
         d="m 11,1014.1622 0,30 26,0 0,-9.8516 0,-3.1231 -14.199219,-17.0253 -2.605469,0 -9.195312,0 z m 13.451172,0 1.714843,2 0.0039,0 8.830078,10.2968 2,2.3321 0,-14.6289 -12.548828,0 z m -11.451172,2 8.863281,0 13.136719,15.75 0,10.25 -22,0 0,-26 z"
         style="fill:#000000;fill-opacity:0.11764706;stroke:none" />
      <path
         style="fill:#000000;fill-opacity:0.23529412;stroke:none"
         d="m 11,1013.7622 0,30 26,0 0,-9.8516 0,-3.1231 -14.199219,-17.0253 -2.605469,0 -9.195312,0 z m 13.451172,0 1.714843,2 0.0039,0 8.830078,10.2968 2,2.3321 0,-14.6289 -12.548828,0 z m -11.451172,2 8.863281,0 13.136719,15.75 0,10.25 -22,0 0,-26 z"
         id="path4295"
         inkscape:connector-curvature="0" />
      <path
         inkscape:connector-curvature="0"
         id="rect3235"
         d="m 11,1013.3622 0,30 26,0 0,-9.8516 0,-3.1231 -14.199219,-17.0253 -2.605469,0 -9.195312,0 z m 13.451172,0 1.714843,2 0.0039,0 8.830078,10.2968 2,2.3321 0,-14.6289 -12.548828,0 z m -11.451172,2 8.863281,0 13.136719,15.75 0,10.25 -22,0 0,-26 z"
         style="fill:url(#linearGradient4271);fill-opacity:1.0;stroke:none" />
      <path
         id="path4309"
         transform="translate(0,1004.3622)"
         d="m 11,9 0,0.4003906 9.195312,0 2.605469,0 L 37,26.425781 37,26.025391 22.800781,9 20.195312,9 11,9 Z m 13.451172,0 0.34375,0.4003906 12.205078,0 L 37,9 24.451172,9 Z M 13,37 l 0,0.400391 22,0 L 35,37 13,37 Z"
         style="fill:#ffffff;fill-opacity:0.23529412;stroke:none"
         inkscape:connector-curvature="0" />
      <path
         id="path4304"
         transform="translate(0,1004.3622)"
         d="m 24.451172,9 1.714844,2 0.0039,0 L 35,21.296875 l 2,2.332031 0,-0.800781 -2,-2.332031 -8.830078,-10.296875 -0.0039,0 L 25.138672,9 24.451172,9 Z M 13,10.199219 13,11 21.863281,11 35,26.75 l 0,-0.800781 -13.136719,-15.75 -8.863281,0 z m -2,28 L 11,39 l 26,0 0,-0.800781 -26,0 z"
         style="fill:#025ec5;fill-opacity:0.3137255;stroke:none"
         inkscape:connector-curvature="0" />
      <path
         id="path7515-3-8"
         d="m 2.5312392,1005.0185 c -0.91709,0 -1.67115003,0.6395 -1.84375003,1.5 0.33561003,-0.2799 0.77451003,-0.4375 1.25000003,-0.4375 l 44.1249998,0 c 0.47549,0 0.91439,0.1576 1.25,0.4375 -0.1726,-0.8605 -0.92666,-1.5 -1.84375,-1.5 l -42.9374998,0 z"
         style="fill:#ffffff;fill-opacity:0.5372549;stroke:none"
         inkscape:connector-curvature="0" />
      <path
         inkscape:connector-curvature="0"
         id="path4130"
         d="m 34.000009,1038.3615 0,14.0007 14,-14 z"
         style="fill:url(#linearGradient4219);fill-opacity:1.0;stroke:none" />
      <path
         id="path4303"
         d="m 48.000009,1038.3622 -14,14 12.054688,0 c 1.077277,0 1.945312,-0.868 1.945312,-1.9453 l 0,-12.0547 z"
         style="fill:url(#linearGradient4439);fill-opacity:1;stroke:none"
         inkscape:connector-curvature="0" />
      <path
         style="opacity:0.1;fill:url(#linearGradient4786);fill-opacity:1;stroke:none"
         d="m 34.000009,1052.3622 0,-14.0007 -14,14 z"
         id="path4784"
         inkscape:connector-curvature="0" />
      <path
         id="rect846-0-6"
         d="m -1.0825195e-5,1049.3622 0,1.0625 c 0,1.0773 0.860219995195,1.9375 1.937500025195,1.9375 l 44.1249998,0 c 1.07728,0 1.9375,-0.8602 1.9375,-1.9375 l 0,-1.0625 c 0,1.0773 -0.86022,1.9375 -1.9375,1.9375 l -44.1249998,0 c -1.07728003,0 -1.937500025195,-0.8602 -1.937500025195,-1.9375 z"
         style="fill:#000000;fill-opacity:1;stroke:none"
         inkscape:connector-curvature="0" />
      <path
         id="rect4280-1-4"
         d="m 1.9374892,1004.3622 c -1.07728003,0 -1.937500025195,0.8602 -1.937500025195,1.9375 l 0,43.0625 c 0,0.7934 0.480019995195,1.449 1.156250025195,1.75 -0.30934003,-0.3333 -0.50000003,-0.7824 -0.50000003,-1.2812 l 0,-42.9375 c 0,-1.0482 0.82690003,-1.875 1.87500003,-1.875 l 42.9374998,0 c 1.0481,0 1.875,0.8268 1.875,1.875 l 0,42.9375 c 0,0.4988 -0.19066,0.9479 -0.5,1.2812 0.67623,-0.301 1.15625,-0.9566 1.15625,-1.75 l 0,-43.0625 c 0,-1.0773 -0.86022,-1.9375 -1.9375,-1.9375 l -44.1249998,0 z"
         style="fill:#000000;fill-opacity:0.39215686;stroke:none"
         inkscape:connector-curvature="0" />
    </g>
  </g>
</svg>
