<?xml version="1.0" encoding="UTF-8" standalone="no"?>
<!-- Created with Inkscape (http://www.inkscape.org/) -->

<svg
   xmlns:dc="http://purl.org/dc/elements/1.1/"
   xmlns:cc="http://creativecommons.org/ns#"
   xmlns:rdf="http://www.w3.org/1999/02/22-rdf-syntax-ns#"
   xmlns:svg="http://www.w3.org/2000/svg"
   xmlns="http://www.w3.org/2000/svg"
   xmlns:xlink="http://www.w3.org/1999/xlink"
   xmlns:sodipodi="http://sodipodi.sourceforge.net/DTD/sodipodi-0.dtd"
   xmlns:inkscape="http://www.inkscape.org/namespaces/inkscape"
   width="48"
   height="48"
   id="svg4768"
   version="1.1"
   inkscape:version="0.48+devel r12910"
   sodipodi:docname="application-x-arc.svg"
   inkscape:export-filename="/home/uri/mintscicon.png"
   inkscape:export-xdpi="13.719384"
   inkscape:export-ydpi="13.719384">
  <defs
     id="defs4770">
    <linearGradient
       inkscape:collect="always"
       id="linearGradient4315">
      <stop
         style="stop-color:#d5d5e3;stop-opacity:1"
         offset="0"
         id="stop4317" />
      <stop
         style="stop-color:#f9f9fb;stop-opacity:1"
         offset="1"
         id="stop4319" />
    </linearGradient>
    <linearGradient
       inkscape:collect="always"
       id="linearGradient4309">
      <stop
         style="stop-color:#8080ac;stop-opacity:1"
         offset="0"
         id="stop4311" />
      <stop
         style="stop-color:#bebed2;stop-opacity:1"
         offset="1"
         id="stop4313" />
    </linearGradient>
    <linearGradient
       id="linearGradient4461"
       inkscape:collect="always">
      <stop
         id="stop4463"
         offset="0"
         style="stop-color:#49496f;stop-opacity:1" />
      <stop
         id="stop4465"
         offset="1"
         style="stop-color:#8484aa;stop-opacity:1" />
    </linearGradient>
    <linearGradient
       inkscape:collect="always"
       id="linearGradient4788">
      <stop
         style="stop-color:#000000;stop-opacity:1"
         offset="0"
         id="stop4790" />
      <stop
         style="stop-color:#000000;stop-opacity:0"
         offset="1"
         id="stop4792" />
    </linearGradient>
    <linearGradient
       inkscape:collect="always"
       id="linearGradient4433">
      <stop
         style="stop-color:#2b3141;stop-opacity:1"
         offset="0"
         id="stop4435" />
      <stop
         style="stop-color:#394056;stop-opacity:1"
         offset="1"
         id="stop4437" />
    </linearGradient>
    <linearGradient
       y2="-1001.2646"
       x2="92.841774"
       y1="-1049.092"
       x1="92.14286"
       gradientTransform="translate(172.23334,577.30868)"
       gradientUnits="userSpaceOnUse"
       id="linearGradient4117"
       xlink:href="#linearGradient4461"
       inkscape:collect="always" />
    <linearGradient
       gradientTransform="translate(237.12678,423.77932)"
       inkscape:collect="always"
       xlink:href="#linearGradient4433"
       id="linearGradient4439"
       x1="42.956738"
       y1="48.000004"
       x2="42.956738"
       y2="33.999271"
       gradientUnits="userSpaceOnUse" />
    <linearGradient
       inkscape:collect="always"
       xlink:href="#linearGradient4788"
       id="linearGradient4786"
       gradientUnits="userSpaceOnUse"
       x1="458.57144"
       y1="871.36139"
       x2="472.50894"
       y2="862.36139"
       gradientTransform="matrix(-1,0,0,-1,729.69822,1334.1407)" />
    <linearGradient
       gradientTransform="translate(-187.44466,-404.58286)"
       inkscape:collect="always"
       xlink:href="#linearGradient4309"
       id="linearGradient4219"
       x1="465.57108"
       y1="869.36218"
       x2="458.57144"
       y2="862.36255"
       gradientUnits="userSpaceOnUse" />
    <linearGradient
       gradientUnits="userSpaceOnUse"
       y2="8.9999971"
       x2="25"
       y1="38.999996"
       x1="25"
       id="linearGradient4453"
       xlink:href="#linearGradient4315"
       inkscape:collect="always"
       gradientTransform="translate(237.12677,423.77933)" />
  </defs>
  <sodipodi:namedview
     id="base"
     pagecolor="#ffffff"
     bordercolor="#666666"
     borderopacity="1.0"
     inkscape:pageopacity="0.0"
     inkscape:pageshadow="2"
     inkscape:zoom="2.8615726"
     inkscape:cx="30.808644"
     inkscape:cy="-3.7745501"
     inkscape:document-units="px"
     inkscape:current-layer="layer1"
     showgrid="false"
     inkscape:window-width="1366"
     inkscape:window-height="671"
     inkscape:window-x="0"
     inkscape:window-y="24"
     inkscape:window-maximized="1"
     showguides="true"
     inkscape:guide-bbox="true"
     fit-margin-top="0"
     fit-margin-left="0"
     fit-margin-right="0"
     fit-margin-bottom="0" />
  <metadata
     id="metadata4773">
    <rdf:RDF>
      <cc:Work
         rdf:about="">
        <dc:format>image/svg+xml</dc:format>
        <dc:type
           rdf:resource="http://purl.org/dc/dcmitype/StillImage" />
        <dc:title />
      </cc:Work>
    </rdf:RDF>
  </metadata>
  <g
     inkscape:label="Capa 1"
     inkscape:groupmode="layer"
     id="layer1"
     transform="translate(-237.12677,-423.77933)">
    <g
       style="font-size:10px;font-style:normal;font-variant:normal;font-weight:normal;font-stretch:normal;line-height:125%;letter-spacing:0px;word-spacing:0px;fill:#000000;fill-opacity:1;stroke:none;font-family:Decker;-inkscape-font-specification:Decker"
       id="text6661"
       transform="translate(-180.25283,-182.16084)" />
    <rect
       style="fill:url(#linearGradient4117);fill-opacity:1;stroke:none"
       id="rect2991-1-7-3"
       width="48"
       height="48"
       x="237.12679"
       y="-471.77933"
       ry="1.9445436"
       transform="scale(1,-1)" />
    <path
       id="path4485"
       d="m 258.12677,433.97933 0,3 3,0 0,1 -3,0 0,3 3,0 0,1 -3,0 0,3 3,0 0,1 -3,0 0,3 3,0 0,-2 3,0 0,-3 -3,0 0,-1 3,0 0,-3 -3,0 0,-1 3,0 0,-3 -3,0 0,-2 -3,0 z m 2,16 -2.5,3 0,11 7,0 0,-11 -2.5,-3 -2,0 z m -0.5,9 3,0 0,3 -3,0 0,-3 z"
       style="fill:#000000;fill-opacity:0.05882353;stroke:none"
       inkscape:connector-curvature="0" />
    <path
       inkscape:connector-curvature="0"
       style="fill:#000000;fill-opacity:0.11764706;stroke:none"
       d="m 258.12677,433.57933 0,3 3,0 0,1 -3,0 0,3 3,0 0,1 -3,0 0,3 3,0 0,1 -3,0 0,3 3,0 0,-2 3,0 0,-3 -3,0 0,-1 3,0 0,-3 -3,0 0,-1 3,0 0,-3 -3,0 0,-2 -3,0 z m 2,16 -2.5,3 0,11 7,0 0,-11 -2.5,-3 -2,0 z m -0.5,9 3,0 0,3 -3,0 0,-3 z"
       id="path4483" />
    <path
       style="fill:url(#linearGradient4219);fill-opacity:1;stroke:none"
       d="m 271.12678,457.77859 0,14.00073 14,-14 z"
       id="path4130"
       inkscape:connector-curvature="0" />
    <path
       inkscape:connector-curvature="0"
       style="fill:url(#linearGradient4439);fill-opacity:1;stroke:none"
       d="m 285.12678,457.77932 -14,14 12.05469,0 c 1.07727,0 1.94531,-0.86804 1.94531,-1.94531 l 0,-12.05469 z"
       id="path4303" />
    <path
       inkscape:connector-curvature="0"
       id="path4784"
       d="m 271.12678,471.77932 0,-14.00073 -14,14 z"
       style="opacity:0.1;fill:url(#linearGradient4786);fill-opacity:1;stroke:none" />
    <path
       inkscape:connector-curvature="0"
       style="fill:#000000;fill-opacity:1;stroke:none"
       d="m 237.12676,468.77934 0,1.0625 c 0,1.0773 0.86022,1.9375 1.9375,1.9375 l 44.125,0 c 1.07728,0 1.9375,-0.8602 1.9375,-1.9375 l 0,-1.0625 c 0,1.0773 -0.86022,1.9375 -1.9375,1.9375 l -44.125,0 c -1.07728,0 -1.9375,-0.8602 -1.9375,-1.9375 z"
       id="rect846-0-2" />
    <path
       inkscape:connector-curvature="0"
       style="fill:#ffffff;fill-opacity:0.5372549;stroke:none"
       d="m 239.65801,424.43564 c -0.91709,0 -1.67115,0.6395 -1.84375,1.5 0.33561,-0.2799 0.77451,-0.4375 1.25,-0.4375 l 44.125,0 c 0.47549,0 0.91439,0.1576 1.25,0.4375 -0.1726,-0.8605 -0.92666,-1.5 -1.84375,-1.5 l -42.9375,0 z"
       id="path7515-3" />
    <path
       inkscape:connector-curvature="0"
       style="fill:#000000;fill-opacity:0.39215686;stroke:none"
       d="m 239.06426,423.77934 c -1.07728,0 -1.9375,0.8602 -1.9375,1.9375 l 0,43.0625 c 0,0.7934 0.48002,1.449 1.15625,1.75 -0.30934,-0.3333 -0.5,-0.7824 -0.5,-1.2812 l 0,-42.9375 c 0,-1.0482 0.8269,-1.875 1.875,-1.875 l 42.9375,0 c 1.0481,0 1.875,0.8268 1.875,1.875 l 0,42.9375 c 0,0.4988 -0.19066,0.9479 -0.5,1.2812 0.67623,-0.301 1.15625,-0.9566 1.15625,-1.75 l 0,-43.0625 c 0,-1.0773 -0.86022,-1.9375 -1.9375,-1.9375 l -44.125,0 z"
       id="rect4280-1" />
    <g
       style="font-size:10px;font-style:normal;font-variant:normal;font-weight:normal;font-stretch:normal;line-height:125%;letter-spacing:0px;word-spacing:0px;fill:#000000;fill-opacity:1;stroke:none;font-family:Decker;-inkscape-font-specification:Decker"
       id="text6661-5"
       transform="translate(-180.25283,-182.16084)" />
    <path
       id="path4479"
       d="m 258.12677,433.17933 0,3 3,0 0,1 -3,0 0,3 3,0 0,1 -3,0 0,3 3,0 0,1 -3,0 0,3 3,0 0,-2 3,0 0,-3 -3,0 0,-1 3,0 0,-3 -3,0 0,-1 3,0 0,-3 -3,0 0,-2 -3,0 z m 2,16 -2.5,3 0,11 7,0 0,-11 -2.5,-3 -2,0 z m -0.5,9 3,0 0,3 -3,0 0,-3 z"
       style="fill:#000000;fill-opacity:0.23529412;stroke:none"
       inkscape:connector-curvature="0" />
    <path
       inkscape:connector-curvature="0"
       style="fill:url(#linearGradient4453);fill-opacity:1.0;stroke:none"
       d="m 258.12677,432.77933 0,3 3,0 0,1 -3,0 0,3 3,0 0,1 -3,0 0,3 3,0 0,1 -3,0 0,3 3,0 0,-2 3,0 0,-3 -3,0 0,-1 3,0 0,-3 -3,0 0,-1 3,0 0,-3 -3,0 0,-2 -3,0 z m 2,16 -2.5,3 0,11 7,0 0,-11 -2.5,-3 -2,0 z m -0.5,9 3,0 0,3 -3,0 0,-3 z"
       id="rect4212" />
    <path
       inkscape:connector-curvature="0"
       style="fill:#515177;fill-opacity:0.3137255;stroke:none"
       d="m 258.12677,434.97855 0,0.80078 3,0 0,-0.80078 -3,0 z m 3,2 0,0.80078 3,0 0,-0.80078 -3,0 z m -3,2 0,0.80078 3,0 0,-0.80078 -3,0 z m 3,2 0,0.80078 3,0 0,-0.80078 -3,0 z m -3,2 0,0.80078 3,0 0,-0.80078 -3,0 z m 3,2 0,0.80078 3,0 0,-0.80078 -3,0 z m -3,2 0,0.80078 3,0 0,-0.80078 -3,0 z m 1.5,10 0,0.80078 3,0 0,-0.80078 -3,0 z m -2,5 0,0.80078 7,0 0,-0.80078 -7,0 z"
       id="path4487" />
    <path
       inkscape:connector-curvature="0"
       style="fill:#ffffff;fill-opacity:0.23529412;stroke:none"
       d="m 258.12677,432.77933 0,0.40039 3,0 0,-0.40039 -3,0 z m 3,2 0,0.40039 3,0 0,-0.40039 -3,0 z m -3,2 0,0.40039 3,0 0,-0.40039 -3,0 z m 3,2 0,0.40039 3,0 0,-0.40039 -3,0 z m -3,2 0,0.40039 3,0 0,-0.40039 -3,0 z m 3,2 0,0.40039 3,0 0,-0.40039 -3,0 z m -3,2 0,0.40039 3,0 0,-0.40039 -3,0 z m 2,4 -2.5,3 0,0.40039 2.5,-3 2,0 2.5,3 0,-0.40039 -2.5,-3 -2,0 z m -0.5,12 0,0.40039 3,0 0,-0.40039 -3,0 z"
       id="path4515" />
  </g>
</svg>
