<?xml version="1.0" encoding="UTF-8" standalone="no"?>
<!-- Created with Inkscape (http://www.inkscape.org/) -->

<svg
   xmlns:dc="http://purl.org/dc/elements/1.1/"
   xmlns:cc="http://creativecommons.org/ns#"
   xmlns:rdf="http://www.w3.org/1999/02/22-rdf-syntax-ns#"
   xmlns:svg="http://www.w3.org/2000/svg"
   xmlns="http://www.w3.org/2000/svg"
   xmlns:xlink="http://www.w3.org/1999/xlink"
   xmlns:sodipodi="http://sodipodi.sourceforge.net/DTD/sodipodi-0.dtd"
   xmlns:inkscape="http://www.inkscape.org/namespaces/inkscape"
   width="48"
   height="48"
   id="svg6387"
   version="1.1"
   inkscape:version="0.48+devel r12910"
   sodipodi:docname="application-x-deb.svg">
  <defs
     id="defs6389">
    <linearGradient
       id="linearGradient4221"
       inkscape:collect="always">
      <stop
         id="stop4223"
         offset="0"
         style="stop-color:#dc9b50;stop-opacity:1" />
      <stop
         id="stop4225"
         offset="1"
         style="stop-color:#f9c897;stop-opacity:1" />
    </linearGradient>
    <linearGradient
       id="linearGradient4215"
       inkscape:collect="always">
      <stop
         id="stop4217"
         offset="0"
         style="stop-color:#f3dec5;stop-opacity:1" />
      <stop
         id="stop4219"
         offset="1"
         style="stop-color:#fefaf6;stop-opacity:1" />
    </linearGradient>
    <linearGradient
       inkscape:collect="always"
       id="linearGradient4461">
      <stop
         style="stop-color:#dea15b;stop-opacity:1"
         offset="0"
         id="stop4463" />
      <stop
         style="stop-color:#edb982;stop-opacity:1"
         offset="1"
         id="stop4465" />
    </linearGradient>
    <linearGradient
       inkscape:collect="always"
       id="linearGradient4788-0">
      <stop
         style="stop-color:#000000;stop-opacity:1"
         offset="0"
         id="stop4790-5" />
      <stop
         style="stop-color:#000000;stop-opacity:0"
         offset="1"
         id="stop4792-9" />
    </linearGradient>
    <linearGradient
       inkscape:collect="always"
       id="linearGradient4433-1">
      <stop
         style="stop-color:#2b3141;stop-opacity:1"
         offset="0"
         id="stop4435-3" />
      <stop
         style="stop-color:#394056;stop-opacity:1"
         offset="1"
         id="stop4437-1" />
    </linearGradient>
    <linearGradient
       y2="-1001.0899"
       x2="92.14286"
       y1="-1049.092"
       x1="92.14286"
       gradientTransform="translate(36.82086,352.72582)"
       gradientUnits="userSpaceOnUse"
       id="linearGradient4117-99"
       xlink:href="#linearGradient4461"
       inkscape:collect="always" />
    <linearGradient
       gradientTransform="translate(101.7143,648.36219)"
       inkscape:collect="always"
       xlink:href="#linearGradient4433-1"
       id="linearGradient4439-9"
       x1="42.956738"
       y1="48.000004"
       x2="42.956738"
       y2="33.999271"
       gradientUnits="userSpaceOnUse" />
    <linearGradient
       inkscape:collect="always"
       xlink:href="#linearGradient4788-0"
       id="linearGradient4786-8"
       gradientUnits="userSpaceOnUse"
       x1="458.57144"
       y1="871.36139"
       x2="472.50894"
       y2="862.36139"
       gradientTransform="matrix(-1,0,0,-1,594.28574,1558.7236)" />
    <linearGradient
       gradientTransform="translate(-322.85714,-180)"
       inkscape:collect="always"
       xlink:href="#linearGradient4221"
       id="linearGradient4219-1"
       x1="465.57108"
       y1="869.36218"
       x2="458.57144"
       y2="862.36255"
       gradientUnits="userSpaceOnUse" />
    <style
       id="style1115"
       type="text/css"><![CDATA[ .fil0 {fill:#1F1A17} ]]></style>
    <style
       id="style1246"
       type="text/css"><![CDATA[ .fil0 {fill:#1F1A17} ]]></style>
    <linearGradient
       inkscape:collect="always"
       xlink:href="#linearGradient4215"
       id="linearGradient4213"
       x1="128.67249"
       y1="687.36218"
       x2="128.67249"
       y2="657.36218"
       gradientUnits="userSpaceOnUse" />
  </defs>
  <sodipodi:namedview
     id="base"
     pagecolor="#ffffff"
     bordercolor="#666666"
     borderopacity="1.0"
     inkscape:pageopacity="0.0"
     inkscape:pageshadow="2"
     inkscape:zoom="5.665625"
     inkscape:cx="10.964431"
     inkscape:cy="30.87366"
     inkscape:document-units="px"
     inkscape:current-layer="layer1"
     showgrid="false"
     fit-margin-top="0"
     fit-margin-left="0"
     fit-margin-right="0"
     fit-margin-bottom="0"
     inkscape:window-width="1366"
     inkscape:window-height="671"
     inkscape:window-x="0"
     inkscape:window-y="24"
     inkscape:window-maximized="1">
    <sodipodi:guide
       position="-3.1958008e-06,-2.6171875e-06"
       orientation="-48,0"
       id="guide4193" />
    <sodipodi:guide
       position="-3.1958008e-06,47.999997"
       orientation="0,48.000008"
       id="guide4195" />
    <sodipodi:guide
       position="48.000004,47.999997"
       orientation="48,0"
       id="guide4197" />
    <sodipodi:guide
       position="48.000004,-2.6171875e-06"
       orientation="0,-48.000008"
       id="guide4199" />
    <sodipodi:guide
       position="8.9999968,8.9999974"
       orientation="-30,0"
       id="guide4205" />
    <sodipodi:guide
       position="8.9999968,38.999997"
       orientation="0,30.000008"
       id="guide4207" />
    <sodipodi:guide
       position="39.000004,38.999997"
       orientation="30,0"
       id="guide4209" />
    <sodipodi:guide
       position="39.000004,8.9999974"
       orientation="0,-30.000008"
       id="guide4211" />
  </sodipodi:namedview>
  <metadata
     id="metadata6392">
    <rdf:RDF>
      <cc:Work
         rdf:about="">
        <dc:format>image/svg+xml</dc:format>
        <dc:type
           rdf:resource="http://purl.org/dc/dcmitype/StillImage" />
        <dc:title />
      </cc:Work>
    </rdf:RDF>
  </metadata>
  <g
     inkscape:label="Capa 1"
     inkscape:groupmode="layer"
     id="layer1"
     transform="translate(-101.71429,-648.36218)">
    <g
       style="font-size:7.5px;font-style:normal;font-variant:normal;font-weight:bold;font-stretch:normal;line-height:125%;letter-spacing:0px;word-spacing:0px;fill:#ffffff;fill-opacity:1;stroke:none;font-family:Impact;-inkscape-font-specification:Impact Bold"
       id="text853"
       transform="translate(-380,117.14288)" />
    <g
       style="font-size:10px;font-style:normal;font-variant:normal;font-weight:normal;font-stretch:normal;line-height:125%;letter-spacing:0px;word-spacing:0px;fill:#000000;fill-opacity:1;stroke:none;font-family:Decker;-inkscape-font-specification:Decker"
       id="text6661"
       transform="translate(-420,42.857112)" />
    <rect
       style="fill:url(#linearGradient4117-99);fill-opacity:1;stroke:none"
       id="rect2991-1-7-3-2"
       width="48"
       height="48"
       x="101.71429"
       y="-696.36218"
       ry="1.9445436"
       transform="scale(1,-1)" />
    <path
       id="path4233"
       d="m 127.46319,658.5623 c -0.46418,0.0376 -0.92544,0.0559 -1.38295,0.11392 l 0.19755,0.0315 c 0.33541,-0.12214 0.82771,-0.063 1.1854,-0.14553 z m -2.02764,0.21832 c -0.75535,0.0448 -1.81075,0.44193 -1.48697,0.0835 -1.23217,0.54967 -3.41957,1.32214 -4.64806,2.47471 l -0.031,-0.25987 c -0.56301,0.67441 -2.46056,2.0146 -2.60996,2.89071 l -0.1456,0.0315 c -0.29217,0.49513 -0.48622,1.06045 -0.71747,1.57024 -0.38234,0.65247 -0.56444,0.25105 -0.50954,0.35358 -0.75268,1.52723 -1.12293,2.81495 -1.44537,3.86813 0.23026,0.34303 0.008,2.06807 0.0938,3.45227 -0.37668,6.83555 4.79361,13.47343 10.45031,15.00478 0.8282,0.29647 2.06028,0.2834 3.1091,0.31199 -1.2375,-0.35333 -1.39339,-0.18193 -2.59959,-0.60313 -0.86846,-0.40944 -1.05821,-0.88022 -1.67413,-1.41428 l 0.23916,0.43686 c -1.20753,-0.42639 -0.70192,-0.53162 -1.68452,-0.8423 l 0.25996,-0.34312 c -0.39131,-0.0304 -1.02918,-0.65937 -1.20622,-1.0087 l -0.43672,0.0204 c -0.51342,-0.63415 -0.7787,-1.09063 -0.75909,-1.44542 l -0.1456,0.23915 c -0.15567,-0.26774 -1.88858,-2.37314 -0.98783,-1.88201 -0.16638,-0.15199 -0.39406,-0.24847 -0.63429,-0.68627 l 0.18716,-0.21843 c -0.43256,-0.55767 -0.79675,-1.26978 -0.76948,-1.5077 0.22993,0.31175 0.39273,0.37307 0.55112,0.42629 -1.09441,-2.71508 -1.15689,-0.1496 -1.98609,-2.76586 l 0.17678,-0.0113 c -0.13407,-0.20291 -0.21455,-0.42896 -0.32235,-0.6446 l 0.0727,-0.75901 c -0.78794,-0.90978 -0.21844,-3.86557 -0.10416,-5.49038 0.0782,-0.66022 0.65261,-1.37013 1.09183,-2.47483 l -0.27034,-0.0412 c 0.5121,-0.89416 2.93632,-3.58997 4.05533,-3.45213 0.54206,-0.67989 -0.11183,-0.0113 -0.21836,-0.17684 1.19058,-1.2309 1.56757,-0.86955 2.37082,-1.09185 0.86581,-0.51346 -0.74336,0.19741 -0.33274,-0.19759 1.49735,-0.38229 1.06062,-0.86699 3.01552,-1.0607 0.0843,0.0472 0.005,0.0957 -0.11456,0.13536 1.37694,-0.37139 3.63271,-0.17696 5.16797,0.5303 2.03537,0.9516 4.32812,3.76945 4.41928,6.4158 l 0.0936,0.0315 c -0.0504,1.05147 0.16004,2.26148 -0.20797,3.37953 l 0.23917,-0.50956 c 0.0243,0.78834 -0.23091,1.17754 -0.46793,1.86128 l -0.42632,0.208 c -0.35106,0.68239 0.0323,0.43404 -0.21837,0.97742 -0.5487,0.4875 -1.67029,1.52603 -2.02768,1.62213 -0.26021,-0.0112 0.18193,-0.30919 0.23917,-0.42628 -0.73437,0.50436 -0.59272,0.76419 -1.71573,1.071 l -0.031,-0.0729 c -2.77111,1.30372 -6.62132,-1.28785 -6.57172,-4.81428 -0.0286,0.22351 -0.0845,0.17003 -0.14559,0.25985 -0.14319,-1.81317 0.8308,-3.63298 2.4852,-4.37769 1.61715,-0.79949 3.52127,-0.47695 4.67926,0.60312 -0.63556,-0.83318 -1.90932,-1.71439 -3.41067,-1.63255 -1.47006,0.0232 -2.84647,0.96046 -3.30666,1.9757 -0.75233,0.47283 -0.83718,1.83146 -1.16461,2.07956 -0.44189,3.24706 0.83079,4.64072 2.9843,6.29099 0.33807,0.22774 0.10032,0.2629 0.1456,0.43684 -0.71474,-0.33418 -1.37524,-0.83563 -1.91329,-1.45585 0.28581,0.41732 0.59929,0.8241 0.99824,1.14384 -0.67448,-0.22762 -1.57796,-1.63764 -1.84051,-1.69497 1.16195,2.08236 4.71976,3.6588 6.58213,2.8804 -0.86046,0.0304 -1.96402,0.0128 -2.93231,-0.34314 -0.40662,-0.2092 -0.95151,-0.63695 -0.85268,-0.71755 2.53986,0.94772 5.16289,0.711 7.36201,-1.05015 0.55903,-0.43527 1.1647,-1.17513 1.34138,-1.18543 -0.23204,0.34909 -0.0238,0.23405 -0.10415,0.43672 0.41659,-0.73599 -0.25836,-0.31514 0.51993,-1.44529 l 0.30154,0.41586 c -0.11183,-0.74628 0.92664,-1.64807 0.82149,-2.82828 0.11903,-0.18012 0.1927,-0.0802 0.19755,0.1663 -0.0128,-0.22073 -0.0403,-0.43746 0,-0.77986 0.0962,0.25465 0.22494,0.53185 0.29115,0.80071 -0.22757,-0.88871 0.22737,-1.50022 0.34316,-2.01729 -0.11328,-0.0498 -0.35096,0.39369 -0.40554,-0.65512 0.008,-0.45624 0.13119,-0.24171 0.17678,-0.35357 -0.0885,-0.0498 -0.32517,-0.39914 -0.46793,-1.071 0.10271,-0.15728 0.27451,0.41307 0.41593,0.43671 -0.0894,-0.53308 -0.24324,-0.94241 -0.24956,-1.35172 -0.41225,-0.86179 -0.14431,0.10895 -0.47834,-0.37442 -0.43788,-1.36892 0.36138,-0.31453 0.41595,-0.93585 0.66416,0.96337 1.04259,2.45933 1.2166,3.07798 -0.13247,-0.75367 -0.35097,-1.48735 -0.61351,-2.19412 0.20299,0.0835 -0.32732,-1.55196 0.25996,-0.46785 -0.62755,-2.30965 -2.68025,-4.46741 -4.57526,-5.47997 0.22994,0.21162 0.52109,0.47694 0.41594,0.51996 -0.94234,-0.56009 -0.77961,-0.60567 -0.91505,-0.84226 -0.76666,-0.31213 -0.8125,0.0243 -1.32059,0 -1.44677,-0.767 -1.72511,-0.68386 -3.0571,-1.16459 l 0.0623,0.28074 c -0.95796,-0.31842 -1.11626,0.12 -2.15244,0 -0.0623,-0.0472 0.33034,-0.17188 0.6551,-0.21842 -0.92536,0.12239 -0.88112,-0.18304 -1.78852,0.0315 0.22259,-0.15611 0.45908,-0.26182 0.697,-0.39564 z m 11.0742,13.1539 c 0.007,0.24583 -0.0605,0.63564 -0.18718,1.05028 0.19266,-0.50507 0.20342,-0.78165 0.18718,-1.05028 z m -10.32556,-12.9875 c 0.26521,0.0459 0.56419,0.0824 0.51993,0.1456 0.28984,-0.0642 0.3652,-0.12001 -0.51993,-0.1456 z m 0.51993,0.1456 -0.17676,0.0412 0.16638,-0.0204 0.0109,-0.0208 z m -1.50776,2.63072 c -0.16641,0.0498 -0.37167,0.10063 -0.45752,0.17684 0.13604,-0.0667 0.29005,-0.12791 0.45752,-0.17686 z m -10.72066,3.26524 c 0.077,0.71596 -0.53831,0.9927 0.13519,0.51986 0.36236,-0.81659 -0.14017,-0.22353 -0.13519,-0.51987 z m -0.5511,2.27726 c -0.43024,0.54966 -0.1939,0.66544 -0.23918,1.03972 0.15574,-0.47719 0.17928,-0.76303 0.23918,-1.03973 z m 17.71871,3.31701 c -0.0611,0 -0.13728,0.16252 -0.17677,0.3327 0.0907,0.0487 0.16006,0.6303 0.24958,0.2703 0.0299,-0.44715 -0.0121,-0.60473 -0.0728,-0.60302 z m 5.43831,1.50768 -0.0728,0.18716 c -0.13247,0.95041 -0.4195,1.89257 -0.86305,2.76586 0.48881,-0.92023 0.80311,-1.93258 0.93585,-2.95303 z m -5.76065,0.34317 c -0.0663,0.32882 -0.2469,0.615 -0.41593,0.91512 -0.92937,0.58483 -0.0872,-0.35235 0,-0.70714 -0.99824,1.25814 -0.12992,0.7498 -0.16638,1.10228 0.29616,-0.40837 0.50713,-0.84738 0.58231,-1.31027 z m -2.02766,1.91327 c -0.40295,0.0995 -0.8124,0.0995 -1.227,0.063 -0.49646,0.0112 0.0896,0.2537 0.73826,0.35357 0.17969,-0.14013 0.34466,-0.27816 0.48874,-0.41599 z m -6.2702,0.0729 c 0.10896,0.40289 0.33143,0.73972 0.54073,1.0917 l -0.15599,-0.44713 c -0.17302,-0.19103 -0.26893,-0.41623 -0.38474,-0.6447 z m -0.38473,0.67585 -0.0727,0.34314 c 0.3261,0.44325 0.59134,0.93196 1.00861,1.279 -0.29876,-0.5851 -0.52519,-0.82946 -0.93579,-1.62227 z"
       style="fill:#000000;fill-opacity:0.05882353"
       inkscape:connector-curvature="0" />
    <path
       inkscape:connector-curvature="0"
       style="fill:#000000;fill-opacity:0.11764706"
       d="m 127.46319,658.1623 c -0.46418,0.0376 -0.92544,0.0559 -1.38295,0.11392 l 0.19755,0.0315 c 0.33541,-0.12214 0.82771,-0.063 1.1854,-0.14553 z m -2.02764,0.21832 c -0.75535,0.0448 -1.81075,0.44193 -1.48697,0.0835 -1.23217,0.54967 -3.41957,1.32214 -4.64806,2.47471 l -0.031,-0.25987 c -0.56301,0.67441 -2.46056,2.0146 -2.60996,2.89071 l -0.1456,0.0315 c -0.29217,0.49513 -0.48622,1.06045 -0.71747,1.57024 -0.38234,0.65247 -0.56444,0.25105 -0.50954,0.35358 -0.75268,1.52723 -1.12293,2.81495 -1.44537,3.86813 0.23026,0.34303 0.008,2.06807 0.0938,3.45227 -0.37668,6.83555 4.79361,13.47343 10.45031,15.00478 0.8282,0.29647 2.06028,0.2834 3.1091,0.31199 -1.2375,-0.35333 -1.39339,-0.18193 -2.59959,-0.60313 -0.86846,-0.40944 -1.05821,-0.88022 -1.67413,-1.41428 l 0.23916,0.43686 c -1.20753,-0.42639 -0.70192,-0.53162 -1.68452,-0.8423 l 0.25996,-0.34312 c -0.39131,-0.0304 -1.02918,-0.65937 -1.20622,-1.0087 l -0.43672,0.0204 c -0.51342,-0.63415 -0.7787,-1.09063 -0.75909,-1.44542 l -0.1456,0.23915 c -0.15567,-0.26774 -1.88858,-2.37314 -0.98783,-1.88201 -0.16638,-0.15199 -0.39406,-0.24847 -0.63429,-0.68627 l 0.18716,-0.21843 c -0.43256,-0.55767 -0.79675,-1.26978 -0.76948,-1.5077 0.22993,0.31175 0.39273,0.37307 0.55112,0.42629 -1.09441,-2.71508 -1.15689,-0.1496 -1.98609,-2.76586 l 0.17678,-0.0113 c -0.13407,-0.20291 -0.21455,-0.42896 -0.32235,-0.6446 l 0.0727,-0.75901 c -0.78794,-0.90978 -0.21844,-3.86557 -0.10416,-5.49038 0.0782,-0.66022 0.65261,-1.37013 1.09183,-2.47483 l -0.27034,-0.0412 c 0.5121,-0.89416 2.93632,-3.58997 4.05533,-3.45213 0.54206,-0.67989 -0.11183,-0.0113 -0.21836,-0.17684 1.19058,-1.2309 1.56757,-0.86955 2.37082,-1.09185 0.86581,-0.51346 -0.74336,0.19741 -0.33274,-0.19759 1.49735,-0.38229 1.06062,-0.86699 3.01552,-1.0607 0.0843,0.0472 0.005,0.0957 -0.11456,0.13536 1.37694,-0.37139 3.63271,-0.17696 5.16797,0.5303 2.03537,0.9516 4.32812,3.76945 4.41928,6.4158 l 0.0936,0.0315 c -0.0504,1.05147 0.16004,2.26148 -0.20797,3.37953 l 0.23917,-0.50956 c 0.0243,0.78834 -0.23091,1.17754 -0.46793,1.86128 l -0.42632,0.208 c -0.35106,0.68239 0.0323,0.43404 -0.21837,0.97742 -0.5487,0.4875 -1.67029,1.52603 -2.02768,1.62213 -0.26021,-0.0112 0.18193,-0.30919 0.23917,-0.42628 -0.73437,0.50436 -0.59272,0.76419 -1.71573,1.071 l -0.031,-0.0729 c -2.77111,1.30372 -6.62132,-1.28785 -6.57172,-4.81428 -0.0286,0.22351 -0.0845,0.17003 -0.14559,0.25985 -0.14319,-1.81317 0.8308,-3.63298 2.4852,-4.37769 1.61715,-0.79949 3.52127,-0.47695 4.67926,0.60312 -0.63556,-0.83318 -1.90932,-1.71439 -3.41067,-1.63255 -1.47006,0.0232 -2.84647,0.96046 -3.30666,1.9757 -0.75233,0.47283 -0.83718,1.83146 -1.16461,2.07956 -0.44189,3.24706 0.83079,4.64072 2.9843,6.29099 0.33807,0.22774 0.10032,0.2629 0.1456,0.43684 -0.71474,-0.33418 -1.37524,-0.83563 -1.91329,-1.45585 0.28581,0.41732 0.59929,0.8241 0.99824,1.14384 -0.67448,-0.22762 -1.57796,-1.63764 -1.84051,-1.69497 1.16195,2.08236 4.71976,3.6588 6.58213,2.8804 -0.86046,0.0304 -1.96402,0.0128 -2.93231,-0.34314 -0.40662,-0.2092 -0.95151,-0.63695 -0.85268,-0.71755 2.53986,0.94772 5.16289,0.711 7.36201,-1.05015 0.55903,-0.43527 1.1647,-1.17513 1.34138,-1.18543 -0.23204,0.34909 -0.0238,0.23405 -0.10415,0.43672 0.41659,-0.73599 -0.25836,-0.31514 0.51993,-1.44529 l 0.30154,0.41586 c -0.11183,-0.74628 0.92664,-1.64807 0.82149,-2.82828 0.11903,-0.18012 0.1927,-0.0802 0.19755,0.1663 -0.0128,-0.22073 -0.0403,-0.43746 0,-0.77986 0.0962,0.25465 0.22494,0.53185 0.29115,0.80071 -0.22757,-0.88871 0.22737,-1.50022 0.34316,-2.01729 -0.11328,-0.0498 -0.35096,0.39369 -0.40554,-0.65512 0.008,-0.45624 0.13119,-0.24171 0.17678,-0.35357 -0.0885,-0.0498 -0.32517,-0.39914 -0.46793,-1.071 0.10271,-0.15728 0.27451,0.41307 0.41593,0.43671 -0.0894,-0.53308 -0.24324,-0.94241 -0.24956,-1.35172 -0.41225,-0.86179 -0.14431,0.10895 -0.47834,-0.37442 -0.43788,-1.36892 0.36138,-0.31453 0.41595,-0.93585 0.66416,0.96337 1.04259,2.45933 1.2166,3.07798 -0.13247,-0.75367 -0.35097,-1.48735 -0.61351,-2.19412 0.20299,0.0835 -0.32732,-1.55196 0.25996,-0.46785 -0.62755,-2.30965 -2.68025,-4.46741 -4.57526,-5.47997 0.22994,0.21162 0.52109,0.47694 0.41594,0.51996 -0.94234,-0.56009 -0.77961,-0.60567 -0.91505,-0.84226 -0.76666,-0.31213 -0.8125,0.0243 -1.32059,0 -1.44677,-0.767 -1.72511,-0.68386 -3.0571,-1.16459 l 0.0623,0.28074 c -0.95796,-0.31842 -1.11626,0.12 -2.15244,0 -0.0623,-0.0472 0.33034,-0.17188 0.6551,-0.21842 -0.92536,0.12239 -0.88112,-0.18304 -1.78852,0.0315 0.22259,-0.15611 0.45908,-0.26182 0.697,-0.39564 z m 11.0742,13.1539 c 0.007,0.24583 -0.0605,0.63564 -0.18718,1.05028 0.19266,-0.50507 0.20342,-0.78165 0.18718,-1.05028 z m -10.32556,-12.9875 c 0.26521,0.0459 0.56419,0.0824 0.51993,0.1456 0.28984,-0.0642 0.3652,-0.12001 -0.51993,-0.1456 z m 0.51993,0.1456 -0.17676,0.0412 0.16638,-0.0204 0.0109,-0.0208 z m -1.50776,2.63072 c -0.16641,0.0498 -0.37167,0.10063 -0.45752,0.17684 0.13604,-0.0667 0.29005,-0.12791 0.45752,-0.17686 z m -10.72066,3.26524 c 0.077,0.71596 -0.53831,0.9927 0.13519,0.51986 0.36236,-0.81659 -0.14017,-0.22353 -0.13519,-0.51987 z m -0.5511,2.27726 c -0.43024,0.54966 -0.1939,0.66544 -0.23918,1.03972 0.15574,-0.47719 0.17928,-0.76303 0.23918,-1.03973 z m 17.71871,3.31701 c -0.0611,0 -0.13728,0.16252 -0.17677,0.3327 0.0907,0.0487 0.16006,0.6303 0.24958,0.2703 0.0299,-0.44715 -0.0121,-0.60473 -0.0728,-0.60302 z m 5.43831,1.50768 -0.0728,0.18716 c -0.13247,0.95041 -0.4195,1.89257 -0.86305,2.76586 0.48881,-0.92023 0.80311,-1.93258 0.93585,-2.95303 z m -5.76065,0.34317 c -0.0663,0.32882 -0.2469,0.615 -0.41593,0.91512 -0.92937,0.58483 -0.0872,-0.35235 0,-0.70714 -0.99824,1.25814 -0.12992,0.7498 -0.16638,1.10228 0.29616,-0.40837 0.50713,-0.84738 0.58231,-1.31027 z m -2.02766,1.91327 c -0.40295,0.0995 -0.8124,0.0995 -1.227,0.063 -0.49646,0.0112 0.0896,0.2537 0.73826,0.35357 0.17969,-0.14013 0.34466,-0.27816 0.48874,-0.41599 z m -6.2702,0.0729 c 0.10896,0.40289 0.33143,0.73972 0.54073,1.0917 l -0.15599,-0.44713 c -0.17302,-0.19103 -0.26893,-0.41623 -0.38474,-0.6447 z m -0.38473,0.67585 -0.0727,0.34314 c 0.3261,0.44325 0.59134,0.93196 1.00861,1.279 -0.29876,-0.5851 -0.52519,-0.82946 -0.93579,-1.62227 z"
       id="path4231" />
    <path
       id="path4227"
       d="m 127.46319,657.7623 c -0.46418,0.0376 -0.92544,0.0559 -1.38295,0.11392 l 0.19755,0.0315 c 0.33541,-0.12214 0.82771,-0.063 1.1854,-0.14553 z m -2.02764,0.21832 c -0.75535,0.0448 -1.81075,0.44193 -1.48697,0.0835 -1.23217,0.54967 -3.41957,1.32214 -4.64806,2.47471 l -0.031,-0.25987 c -0.56301,0.67441 -2.46056,2.0146 -2.60996,2.89071 l -0.1456,0.0315 c -0.29217,0.49513 -0.48622,1.06045 -0.71747,1.57024 -0.38234,0.65247 -0.56444,0.25105 -0.50954,0.35358 -0.75268,1.52723 -1.12293,2.81495 -1.44537,3.86813 0.23026,0.34303 0.008,2.06807 0.0938,3.45227 -0.37668,6.83555 4.79361,13.47343 10.45031,15.00478 0.8282,0.29647 2.06028,0.2834 3.1091,0.31199 -1.2375,-0.35333 -1.39339,-0.18193 -2.59959,-0.60313 -0.86846,-0.40944 -1.05821,-0.88022 -1.67413,-1.41428 l 0.23916,0.43686 c -1.20753,-0.42639 -0.70192,-0.53162 -1.68452,-0.8423 l 0.25996,-0.34312 c -0.39131,-0.0304 -1.02918,-0.65937 -1.20622,-1.0087 l -0.43672,0.0204 c -0.51342,-0.63415 -0.7787,-1.09063 -0.75909,-1.44542 l -0.1456,0.23915 c -0.15567,-0.26774 -1.88858,-2.37314 -0.98783,-1.88201 -0.16638,-0.15199 -0.39406,-0.24847 -0.63429,-0.68627 l 0.18716,-0.21843 c -0.43256,-0.55767 -0.79675,-1.26978 -0.76948,-1.5077 0.22993,0.31175 0.39273,0.37307 0.55112,0.42629 -1.09441,-2.71508 -1.15689,-0.1496 -1.98609,-2.76586 l 0.17678,-0.0113 c -0.13407,-0.20291 -0.21455,-0.42896 -0.32235,-0.6446 l 0.0727,-0.75901 c -0.78794,-0.90978 -0.21844,-3.86557 -0.10416,-5.49038 0.0782,-0.66022 0.65261,-1.37013 1.09183,-2.47483 l -0.27034,-0.0412 c 0.5121,-0.89416 2.93632,-3.58997 4.05533,-3.45213 0.54206,-0.67989 -0.11183,-0.0113 -0.21836,-0.17684 1.19058,-1.2309 1.56757,-0.86955 2.37082,-1.09185 0.86581,-0.51346 -0.74336,0.19741 -0.33274,-0.19759 1.49735,-0.38229 1.06062,-0.86699 3.01552,-1.0607 0.0843,0.0472 0.005,0.0957 -0.11456,0.13536 1.37694,-0.37139 3.63271,-0.17696 5.16797,0.5303 2.03537,0.9516 4.32812,3.76945 4.41928,6.4158 l 0.0936,0.0315 c -0.0504,1.05147 0.16004,2.26148 -0.20797,3.37953 l 0.23917,-0.50956 c 0.0243,0.78834 -0.23091,1.17754 -0.46793,1.86128 l -0.42632,0.208 c -0.35106,0.68239 0.0323,0.43404 -0.21837,0.97742 -0.5487,0.4875 -1.67029,1.52603 -2.02768,1.62213 -0.26021,-0.0112 0.18193,-0.30919 0.23917,-0.42628 -0.73437,0.50436 -0.59272,0.76419 -1.71573,1.071 l -0.031,-0.0729 c -2.77111,1.30372 -6.62132,-1.28785 -6.57172,-4.81428 -0.0286,0.22351 -0.0845,0.17003 -0.14559,0.25985 -0.14319,-1.81317 0.8308,-3.63298 2.4852,-4.37769 1.61715,-0.79949 3.52127,-0.47695 4.67926,0.60312 -0.63556,-0.83318 -1.90932,-1.71439 -3.41067,-1.63255 -1.47006,0.0232 -2.84647,0.96046 -3.30666,1.9757 -0.75233,0.47283 -0.83718,1.83146 -1.16461,2.07956 -0.44189,3.24706 0.83079,4.64072 2.9843,6.29099 0.33807,0.22774 0.10032,0.2629 0.1456,0.43684 -0.71474,-0.33418 -1.37524,-0.83563 -1.91329,-1.45585 0.28581,0.41732 0.59929,0.8241 0.99824,1.14384 -0.67448,-0.22762 -1.57796,-1.63764 -1.84051,-1.69497 1.16195,2.08236 4.71976,3.6588 6.58213,2.8804 -0.86046,0.0304 -1.96402,0.0128 -2.93231,-0.34314 -0.40662,-0.2092 -0.95151,-0.63695 -0.85268,-0.71755 2.53986,0.94772 5.16289,0.711 7.36201,-1.05015 0.55903,-0.43527 1.1647,-1.17513 1.34138,-1.18543 -0.23204,0.34909 -0.0238,0.23405 -0.10415,0.43672 0.41659,-0.73599 -0.25836,-0.31514 0.51993,-1.44529 l 0.30154,0.41586 c -0.11183,-0.74628 0.92664,-1.64807 0.82149,-2.82828 0.11903,-0.18012 0.1927,-0.0802 0.19755,0.1663 -0.0128,-0.22073 -0.0403,-0.43746 0,-0.77986 0.0962,0.25465 0.22494,0.53185 0.29115,0.80071 -0.22757,-0.88871 0.22737,-1.50022 0.34316,-2.01729 -0.11328,-0.0498 -0.35096,0.39369 -0.40554,-0.65512 0.008,-0.45624 0.13119,-0.24171 0.17678,-0.35357 -0.0885,-0.0498 -0.32517,-0.39914 -0.46793,-1.071 0.10271,-0.15728 0.27451,0.41307 0.41593,0.43671 -0.0894,-0.53308 -0.24324,-0.94241 -0.24956,-1.35172 -0.41225,-0.86179 -0.14431,0.10895 -0.47834,-0.37442 -0.43788,-1.36892 0.36138,-0.31453 0.41595,-0.93585 0.66416,0.96337 1.04259,2.45933 1.2166,3.07798 -0.13247,-0.75367 -0.35097,-1.48735 -0.61351,-2.19412 0.20299,0.0835 -0.32732,-1.55196 0.25996,-0.46785 -0.62755,-2.30965 -2.68025,-4.46741 -4.57526,-5.47997 0.22994,0.21162 0.52109,0.47694 0.41594,0.51996 -0.94234,-0.56009 -0.77961,-0.60567 -0.91505,-0.84226 -0.76666,-0.31213 -0.8125,0.0243 -1.32059,0 -1.44677,-0.767 -1.72511,-0.68386 -3.0571,-1.16459 l 0.0623,0.28074 c -0.95796,-0.31842 -1.11626,0.12 -2.15244,0 -0.0623,-0.0472 0.33034,-0.17188 0.6551,-0.21842 -0.92536,0.12239 -0.88112,-0.18304 -1.78852,0.0315 0.22259,-0.15611 0.45908,-0.26182 0.697,-0.39564 z m 11.0742,13.1539 c 0.007,0.24583 -0.0605,0.63564 -0.18718,1.05028 0.19266,-0.50507 0.20342,-0.78165 0.18718,-1.05028 z m -10.32556,-12.9875 c 0.26521,0.0459 0.56419,0.0824 0.51993,0.1456 0.28984,-0.0642 0.3652,-0.12001 -0.51993,-0.1456 z m 0.51993,0.1456 -0.17676,0.0412 0.16638,-0.0204 0.0109,-0.0208 z m -1.50776,2.63072 c -0.16641,0.0498 -0.37167,0.10063 -0.45752,0.17684 0.13604,-0.0667 0.29005,-0.12791 0.45752,-0.17686 z m -10.72066,3.26524 c 0.077,0.71596 -0.53831,0.9927 0.13519,0.51986 0.36236,-0.81659 -0.14017,-0.22353 -0.13519,-0.51987 z m -0.5511,2.27726 c -0.43024,0.54966 -0.1939,0.66544 -0.23918,1.03972 0.15574,-0.47719 0.17928,-0.76303 0.23918,-1.03973 z m 17.71871,3.31701 c -0.0611,0 -0.13728,0.16252 -0.17677,0.3327 0.0907,0.0487 0.16006,0.6303 0.24958,0.2703 0.0299,-0.44715 -0.0121,-0.60473 -0.0728,-0.60302 z m 5.43831,1.50768 -0.0728,0.18716 c -0.13247,0.95041 -0.4195,1.89257 -0.86305,2.76586 0.48881,-0.92023 0.80311,-1.93258 0.93585,-2.95303 z m -5.76065,0.34317 c -0.0663,0.32882 -0.2469,0.615 -0.41593,0.91512 -0.92937,0.58483 -0.0872,-0.35235 0,-0.70714 -0.99824,1.25814 -0.12992,0.7498 -0.16638,1.10228 0.29616,-0.40837 0.50713,-0.84738 0.58231,-1.31027 z m -2.02766,1.91327 c -0.40295,0.0995 -0.8124,0.0995 -1.227,0.063 -0.49646,0.0112 0.0896,0.2537 0.73826,0.35357 0.17969,-0.14013 0.34466,-0.27816 0.48874,-0.41599 z m -6.2702,0.0729 c 0.10896,0.40289 0.33143,0.73972 0.54073,1.0917 l -0.15599,-0.44713 c -0.17302,-0.19103 -0.26893,-0.41623 -0.38474,-0.6447 z m -0.38473,0.67585 -0.0727,0.34314 c 0.3261,0.44325 0.59134,0.93196 1.00861,1.279 -0.29876,-0.5851 -0.52519,-0.82946 -0.93579,-1.62227 z"
       style="fill:#000000;fill-opacity:0.23529412"
       inkscape:connector-curvature="0" />
    <path
       inkscape:connector-curvature="0"
       style="fill:#ffffff;fill-opacity:0.5372549;stroke:none"
       d="m 104.24553,649.01849 c -0.91709,0 -1.67115,0.6395 -1.84375,1.5 0.33561,-0.2799 0.77451,-0.4375 1.25,-0.4375 l 44.125,0 c 0.47549,0 0.91439,0.1576 1.25,0.4375 -0.1726,-0.8605 -0.92666,-1.5 -1.84375,-1.5 l -42.9375,0 z"
       id="path7515-3-1" />
    <path
       style="fill:url(#linearGradient4219-1);fill-opacity:1.0;stroke:none"
       d="m 135.7143,682.36149 0,14.0007 14,-14 z"
       id="path4130-6"
       inkscape:connector-curvature="0" />
    <path
       inkscape:connector-curvature="0"
       style="fill:url(#linearGradient4439-9);fill-opacity:1;stroke:none"
       d="m 149.7143,682.36219 -14,14 12.05469,0 c 1.07728,0 1.94531,-0.868 1.94531,-1.9453 l 0,-12.0547 z"
       id="path4303-7" />
    <path
       inkscape:connector-curvature="0"
       id="path4784-3"
       d="m 135.7143,696.36219 0,-14.0007 -14,14 z"
       style="opacity:0.1;fill:url(#linearGradient4786-8);fill-opacity:1;stroke:none" />
    <path
       inkscape:connector-curvature="0"
       style="fill:#000000;fill-opacity:1;stroke:none"
       d="m 101.71428,693.36219 0,1.0625 c 0,1.0773 0.86022,1.9375 1.9375,1.9375 l 44.125,0 c 1.07728,0 1.9375,-0.8602 1.9375,-1.9375 l 0,-1.0625 c 0,1.0773 -0.86022,1.9375 -1.9375,1.9375 l -44.125,0 c -1.07728,0 -1.9375,-0.8602 -1.9375,-1.9375 z"
       id="rect846-0-3" />
    <path
       inkscape:connector-curvature="0"
       style="fill:#000000;fill-opacity:0.39215686;stroke:none"
       d="m 103.65178,648.36219 c -1.07728,0 -1.9375,0.8602 -1.9375,1.9375 l 0,43.0625 c 0,0.7934 0.48002,1.449 1.15625,1.75 -0.30934,-0.3333 -0.5,-0.7824 -0.5,-1.2812 l 0,-42.9375 c 0,-1.0482 0.8269,-1.875 1.875,-1.875 l 42.9375,0 c 1.0481,0 1.875,0.8268 1.875,1.875 l 0,42.9375 c 0,0.4988 -0.19066,0.9479 -0.5,1.2812 0.67623,-0.301 1.15625,-0.9566 1.15625,-1.75 l 0,-43.0625 c 0,-1.0773 -0.86022,-1.9375 -1.9375,-1.9375 l -44.125,0 z"
       id="rect4280-1-7" />
    <path
       inkscape:connector-curvature="0"
       style="fill:url(#linearGradient4213);fill-opacity:1"
       d="m 127.46319,657.3623 c -0.46418,0.0376 -0.92544,0.0559 -1.38295,0.11392 l 0.19755,0.0315 c 0.33541,-0.12214 0.82771,-0.063 1.1854,-0.14553 z m -2.02764,0.21832 c -0.75535,0.0448 -1.81075,0.44193 -1.48697,0.0835 -1.23217,0.54967 -3.41957,1.32214 -4.64806,2.47471 l -0.031,-0.25987 c -0.56301,0.67441 -2.46056,2.0146 -2.60996,2.89071 l -0.1456,0.0315 c -0.29217,0.49513 -0.48622,1.06045 -0.71747,1.57024 -0.38234,0.65247 -0.56444,0.25105 -0.50954,0.35358 -0.75268,1.52723 -1.12293,2.81495 -1.44537,3.86813 0.23026,0.34303 0.008,2.06807 0.0938,3.45227 -0.37668,6.83555 4.79361,13.47343 10.45031,15.00478 0.8282,0.29647 2.06028,0.2834 3.1091,0.31199 -1.2375,-0.35333 -1.39339,-0.18193 -2.59959,-0.60313 -0.86846,-0.40944 -1.05821,-0.88022 -1.67413,-1.41428 l 0.23916,0.43686 c -1.20753,-0.42639 -0.70192,-0.53162 -1.68452,-0.8423 l 0.25996,-0.34312 c -0.39131,-0.0304 -1.02918,-0.65937 -1.20622,-1.0087 l -0.43672,0.0204 c -0.51342,-0.63415 -0.7787,-1.09063 -0.75909,-1.44542 l -0.1456,0.23915 c -0.15567,-0.26774 -1.88858,-2.37314 -0.98783,-1.88201 -0.16638,-0.15199 -0.39406,-0.24847 -0.63429,-0.68627 l 0.18716,-0.21843 c -0.43256,-0.55767 -0.79675,-1.26978 -0.76948,-1.5077 0.22993,0.31175 0.39273,0.37307 0.55112,0.42629 -1.09441,-2.71508 -1.15689,-0.1496 -1.98609,-2.76586 l 0.17678,-0.0113 c -0.13407,-0.20291 -0.21455,-0.42896 -0.32235,-0.6446 l 0.0727,-0.75901 c -0.78794,-0.90978 -0.21844,-3.86557 -0.10416,-5.49038 0.0782,-0.66022 0.65261,-1.37013 1.09183,-2.47483 l -0.27034,-0.0412 c 0.5121,-0.89416 2.93632,-3.58997 4.05533,-3.45213 0.54206,-0.67989 -0.11183,-0.0113 -0.21836,-0.17684 1.19058,-1.2309 1.56757,-0.86955 2.37082,-1.09185 0.86581,-0.51346 -0.74336,0.19741 -0.33274,-0.19759 1.49735,-0.38229 1.06062,-0.86699 3.01552,-1.0607 0.0843,0.0472 0.005,0.0957 -0.11456,0.13536 1.37694,-0.37139 3.63271,-0.17696 5.16797,0.5303 2.03537,0.9516 4.32812,3.76945 4.41928,6.4158 l 0.0936,0.0315 c -0.0504,1.05147 0.16004,2.26148 -0.20797,3.37953 l 0.23917,-0.50956 c 0.0243,0.78834 -0.23091,1.17754 -0.46793,1.86128 l -0.42632,0.208 c -0.35106,0.68239 0.0323,0.43404 -0.21837,0.97742 -0.5487,0.4875 -1.67029,1.52603 -2.02768,1.62213 -0.26021,-0.0112 0.18193,-0.30919 0.23917,-0.42628 -0.73437,0.50436 -0.59272,0.76419 -1.71573,1.071 l -0.031,-0.0729 c -2.77111,1.30372 -6.62132,-1.28785 -6.57172,-4.81428 -0.0286,0.22351 -0.0845,0.17003 -0.14559,0.25985 -0.14319,-1.81317 0.8308,-3.63298 2.4852,-4.37769 1.61715,-0.79949 3.52127,-0.47695 4.67926,0.60312 -0.63556,-0.83318 -1.90932,-1.71439 -3.41067,-1.63255 -1.47006,0.0232 -2.84647,0.96046 -3.30666,1.9757 -0.75233,0.47283 -0.83718,1.83146 -1.16461,2.07956 -0.44189,3.24706 0.83079,4.64072 2.9843,6.29099 0.33807,0.22774 0.10032,0.2629 0.1456,0.43684 -0.71474,-0.33418 -1.37524,-0.83563 -1.91329,-1.45585 0.28581,0.41732 0.59929,0.8241 0.99824,1.14384 -0.67448,-0.22762 -1.57796,-1.63764 -1.84051,-1.69497 1.16195,2.08236 4.71976,3.6588 6.58213,2.8804 -0.86046,0.0304 -1.96402,0.0128 -2.93231,-0.34314 -0.40662,-0.2092 -0.95151,-0.63695 -0.85268,-0.71755 2.53986,0.94772 5.16289,0.711 7.36201,-1.05015 0.55903,-0.43527 1.1647,-1.17513 1.34138,-1.18543 -0.23204,0.34909 -0.0238,0.23405 -0.10415,0.43672 0.41659,-0.73599 -0.25836,-0.31514 0.51993,-1.44529 l 0.30154,0.41586 c -0.11183,-0.74628 0.92664,-1.64807 0.82149,-2.82828 0.11903,-0.18012 0.1927,-0.0802 0.19755,0.1663 -0.0128,-0.22073 -0.0403,-0.43746 0,-0.77986 0.0962,0.25465 0.22494,0.53185 0.29115,0.80071 -0.22757,-0.88871 0.22737,-1.50022 0.34316,-2.01729 -0.11328,-0.0498 -0.35096,0.39369 -0.40554,-0.65512 0.008,-0.45624 0.13119,-0.24171 0.17678,-0.35357 -0.0885,-0.0498 -0.32517,-0.39914 -0.46793,-1.071 0.10271,-0.15728 0.27451,0.41307 0.41593,0.43671 -0.0894,-0.53308 -0.24324,-0.94241 -0.24956,-1.35172 -0.41225,-0.86179 -0.14431,0.10895 -0.47834,-0.37442 -0.43788,-1.36892 0.36138,-0.31453 0.41595,-0.93585 0.66416,0.96337 1.04259,2.45933 1.2166,3.07798 -0.13247,-0.75367 -0.35097,-1.48735 -0.61351,-2.19412 0.20299,0.0835 -0.32732,-1.55196 0.25996,-0.46785 -0.62755,-2.30965 -2.68025,-4.46741 -4.57526,-5.47997 0.22994,0.21162 0.52109,0.47694 0.41594,0.51996 -0.94234,-0.56009 -0.77961,-0.60567 -0.91505,-0.84226 -0.76666,-0.31213 -0.8125,0.0243 -1.32059,0 -1.44677,-0.767 -1.72511,-0.68386 -3.0571,-1.16459 l 0.0623,0.28074 c -0.95796,-0.31842 -1.11626,0.12 -2.15244,0 -0.0623,-0.0472 0.33034,-0.17188 0.6551,-0.21842 -0.92536,0.12239 -0.88112,-0.18304 -1.78852,0.0315 0.22259,-0.15611 0.45908,-0.26182 0.697,-0.39564 z m 11.0742,13.1539 c 0.007,0.24583 -0.0605,0.63564 -0.18718,1.05028 0.19266,-0.50507 0.20342,-0.78165 0.18718,-1.05028 z m -10.32556,-12.9875 c 0.26521,0.0459 0.56419,0.0824 0.51993,0.1456 0.28984,-0.0642 0.3652,-0.12001 -0.51993,-0.1456 z m 0.51993,0.1456 -0.17676,0.0412 0.16638,-0.0204 0.0109,-0.0208 z m -1.50776,2.63072 c -0.16641,0.0498 -0.37167,0.10063 -0.45752,0.17684 0.13604,-0.0667 0.29005,-0.12791 0.45752,-0.17686 z m -10.72066,3.26524 c 0.077,0.71596 -0.53831,0.9927 0.13519,0.51986 0.36236,-0.81659 -0.14017,-0.22353 -0.13519,-0.51987 z m -0.5511,2.27726 c -0.43024,0.54966 -0.1939,0.66544 -0.23918,1.03972 0.15574,-0.47719 0.17928,-0.76303 0.23918,-1.03973 z m 17.71871,3.31701 c -0.0611,0 -0.13728,0.16252 -0.17677,0.3327 0.0907,0.0487 0.16006,0.6303 0.24958,0.2703 0.0299,-0.44715 -0.0121,-0.60473 -0.0728,-0.60302 z m 5.43831,1.50768 -0.0728,0.18716 c -0.13247,0.95041 -0.4195,1.89257 -0.86305,2.76586 0.48881,-0.92023 0.80311,-1.93258 0.93585,-2.95303 z m -5.76065,0.34317 c -0.0663,0.32882 -0.2469,0.615 -0.41593,0.91512 -0.92937,0.58483 -0.0872,-0.35235 0,-0.70714 -0.99824,1.25814 -0.12992,0.7498 -0.16638,1.10228 0.29616,-0.40837 0.50713,-0.84738 0.58231,-1.31027 z m -2.02766,1.91327 c -0.40295,0.0995 -0.8124,0.0995 -1.227,0.063 -0.49646,0.0112 0.0896,0.2537 0.73826,0.35357 0.17969,-0.14013 0.34466,-0.27816 0.48874,-0.41599 z m -6.2702,0.0729 c 0.10896,0.40289 0.33143,0.73972 0.54073,1.0917 l -0.15599,-0.44713 c -0.17302,-0.19103 -0.26893,-0.41623 -0.38474,-0.6447 z m -0.38473,0.67585 -0.0727,0.34314 c 0.3261,0.44325 0.59134,0.93196 1.00861,1.279 -0.29876,-0.5851 -0.52519,-0.82946 -0.93579,-1.62227 z"
       id="path2820" />
    <path
       style="fill:#e1a45f;fill-opacity:0.3137255"
       d="M 25.390625 11.158203 C 24.711442 11.141132 24.07104 11.200572 23.554688 11.339844 C 23.674247 11.300184 23.754222 11.252278 23.669922 11.205078 C 21.715022 11.398788 22.151647 11.883335 20.654297 12.265625 C 20.243677 12.660625 21.852138 11.949431 20.986328 12.462891 C 20.183078 12.685191 19.805814 12.323787 18.615234 13.554688 C 18.721764 13.720227 19.376044 13.052532 18.833984 13.732422 C 17.714974 13.594582 15.291397 16.289434 14.779297 17.183594 L 15.048828 17.224609 C 14.609608 18.329309 14.035231 19.038999 13.957031 19.699219 C 13.880953 20.780886 13.610787 22.443914 13.666016 23.708984 C 13.711645 22.599958 13.896256 21.364091 13.957031 20.5 C 14.035231 19.83978 14.609608 19.130091 15.048828 18.025391 L 14.779297 17.984375 C 15.291397 17.090215 17.714974 14.39341 18.833984 14.53125 C 19.376044 13.85136 18.721764 14.521009 18.615234 14.355469 C 19.805814 13.124569 20.183078 13.485972 20.986328 13.263672 C 21.852138 12.750212 20.243677 13.461406 20.654297 13.066406 C 22.151647 12.684116 21.715022 12.199569 23.669922 12.005859 C 23.754222 12.053059 23.674247 12.100965 23.554688 12.140625 C 24.931628 11.769235 27.187396 11.962662 28.722656 12.669922 C 30.758026 13.621522 33.051418 16.439588 33.142578 19.085938 L 33.236328 19.117188 C 33.221468 19.427204 33.235162 19.768449 33.244141 20.099609 C 33.250083 19.485921 33.209418 18.879782 33.236328 18.318359 L 33.142578 18.287109 C 33.051418 15.640759 30.758026 12.822694 28.722656 11.871094 C 27.763119 11.429056 26.522597 11.186655 25.390625 11.158203 z M 23.482422 11.361328 C 23.314952 11.410278 23.161431 11.470409 23.025391 11.537109 C 23.111241 11.460899 23.316012 11.411128 23.482422 11.361328 z M 23.482422 12.162109 C 23.316012 12.211909 23.111241 12.261681 23.025391 12.337891 C 23.161431 12.271191 23.314952 12.211059 23.482422 12.162109 z M 34.837891 15.271484 C 34.783321 15.892804 33.983995 14.838111 34.421875 16.207031 C 34.4405 16.233983 34.451693 16.241286 34.466797 16.259766 C 34.515551 16.266627 34.566094 16.27414 34.617188 16.279297 C 34.635864 16.223518 34.659518 16.19458 34.720703 16.269531 C 34.778526 16.248331 34.826557 16.199353 34.837891 16.070312 C 35.502051 17.033683 35.878724 18.529787 36.052734 19.148438 C 35.920264 18.394767 35.701993 17.661848 35.439453 16.955078 C 35.525377 16.990423 35.479836 16.718621 35.443359 16.474609 C 35.27285 16.048491 35.080952 15.624046 34.837891 15.271484 z M 12.761719 15.425781 C 12.838719 16.141741 12.222984 16.418153 12.896484 15.945312 C 13.258844 15.128722 12.756739 15.722121 12.761719 15.425781 z M 35.462891 15.808594 C 35.486498 15.972988 35.496923 16.108738 35.460938 16.136719 C 35.501774 16.159802 35.570524 16.24876 35.699219 16.486328 C 35.637085 16.257648 35.55143 16.033332 35.462891 15.808594 z M 25.65625 17.267578 C 25.168219 17.27528 24.693152 17.389769 24.255859 17.568359 C 22.684423 18.349611 21.763128 20.112153 21.902344 21.875 C 21.908885 21.865382 21.913526 21.86427 21.919922 21.857422 C 22.076367 20.337311 22.98216 18.929122 24.386719 18.296875 C 26.003869 17.497385 27.908416 17.820321 29.066406 18.900391 C 28.430846 18.067211 27.1576 17.185738 25.65625 17.267578 z M 34.775391 17.46875 C 34.760587 17.468161 34.745261 17.476434 34.732422 17.496094 C 34.832441 17.966804 34.965258 18.224724 35.074219 18.386719 C 35.017295 18.13354 34.976901 17.894854 34.943359 17.675781 C 34.88192 17.569348 34.824454 17.470704 34.775391 17.46875 z M 12.210938 17.703125 C 11.780698 18.252785 12.015983 18.369861 11.970703 18.744141 C 12.126443 18.266951 12.151038 17.979825 12.210938 17.703125 z M 35.123047 18.611328 C 35.10288 18.613621 35.085412 18.631412 35.068359 18.660156 C 35.095554 18.693078 35.122659 18.728113 35.148438 18.732422 C 35.140938 18.687703 35.131328 18.654378 35.123047 18.611328 z M 35.054688 19.158203 C 35.066122 19.251596 35.074319 19.370514 35.089844 19.427734 C 35.129378 19.40056 35.176536 19.427633 35.201172 19.367188 C 35.170658 19.350017 35.110508 19.247534 35.054688 19.158203 z M 12.226562 19.919922 C 12.197066 20.01674 12.15547 20.137324 12.126953 20.230469 C 12.192362 20.327911 12.21675 20.55495 12.226562 20.835938 C 12.235696 20.486675 12.240293 20.16672 12.226562 19.919922 z M 35.160156 20.357422 C 35.047693 20.692658 34.973017 21.068457 35.074219 21.527344 C 35.160196 21.078095 35.356404 20.704209 35.429688 20.376953 C 35.361596 20.347019 35.251359 20.462127 35.160156 20.357422 z M 34.794922 20.792969 C 34.754622 21.135369 34.782122 21.351536 34.794922 21.572266 C 34.795284 21.578254 34.794588 21.585798 34.794922 21.591797 C 34.891122 21.846447 35.019728 22.123718 35.085938 22.392578 C 35.004905 22.076129 35.024398 21.805189 35.070312 21.550781 C 35.001564 21.295586 34.88596 21.033954 34.794922 20.792969 z M 34.794922 21.572266 C 34.790072 21.325766 34.716686 21.22613 34.597656 21.40625 C 34.702806 22.58646 33.665514 23.488095 33.777344 24.234375 L 33.474609 23.818359 C 32.696319 24.948509 33.371668 24.527682 32.955078 25.263672 C 33.035428 25.061002 32.826554 25.177215 33.058594 24.828125 C 32.881914 24.838425 32.275827 25.578402 31.716797 26.013672 C 29.517677 27.774822 26.895329 28.01022 24.355469 27.0625 C 24.256639 27.1431 24.802364 27.57205 25.208984 27.78125 C 26.177274 28.13719 27.280165 28.153447 28.140625 28.123047 C 27.037372 28.584165 25.345024 28.207666 23.902344 27.400391 C 23.992617 27.471378 24.074294 27.541497 24.167969 27.613281 C 24.506039 27.841021 24.269173 27.876841 24.314453 28.050781 C 23.599713 27.716601 22.938441 27.21397 22.400391 26.59375 C 22.686201 27.01107 22.999488 27.418541 23.398438 27.738281 C 22.855566 27.555076 22.180901 26.637481 21.794922 26.244141 C 21.816883 26.285023 21.836693 26.311047 21.859375 26.355469 C 21.760059 26.272868 21.670899 26.182066 21.585938 26.085938 C 22.772811 28.146643 26.291265 29.696791 28.140625 28.923828 C 27.280165 28.954228 26.177274 28.936018 25.208984 28.580078 C 24.802364 28.370878 24.256639 27.943881 24.355469 27.863281 C 26.895329 28.811001 29.517677 28.57365 31.716797 26.8125 C 32.275827 26.37723 32.881914 25.637253 33.058594 25.626953 C 32.826554 25.976043 33.035428 25.861783 32.955078 26.064453 C 33.371668 25.328463 32.696319 25.749291 33.474609 24.619141 L 33.777344 25.035156 C 33.665514 24.288876 34.702806 23.387241 34.597656 22.207031 C 34.651563 22.125458 34.695395 22.106049 34.728516 22.126953 C 34.771327 21.911556 34.79897 21.714415 34.794922 21.572266 z M 29.929688 21.021484 C 29.868587 21.021484 29.791443 21.183336 29.751953 21.353516 C 29.842653 21.402216 29.912433 21.983047 30.001953 21.623047 C 30.031853 21.175897 29.990387 21.019774 29.929688 21.021484 z M 33.267578 21.1875 L 33.226562 21.273438 C 33.207189 21.636911 33.159705 21.998367 33.058594 22.353516 C 33.184063 22.012482 33.28239 21.668031 33.267578 21.1875 z M 34.775391 22.027344 C 34.770529 22.058395 34.749004 22.107314 34.742188 22.140625 C 34.773187 22.177106 34.792612 22.255641 34.794922 22.373047 C 34.788522 22.262682 34.778828 22.151917 34.775391 22.027344 z M 34.794922 22.373047 C 34.801922 22.618877 34.734102 23.007235 34.607422 23.421875 C 34.800082 22.916805 34.811162 22.641677 34.794922 22.373047 z M 21.125 22.085938 C 21.084353 22.838689 21.148969 23.489009 21.308594 24.058594 C 21.424047 24.286524 21.520737 24.512534 21.693359 24.703125 L 21.849609 25.148438 C 21.640309 24.796458 21.417554 24.461484 21.308594 24.058594 C 21.625636 25.18989 22.30411 26.039691 23.248047 26.861328 C 23.298355 26.888809 23.350157 26.921207 23.398438 26.9375 C 22.999488 26.61776 22.686201 26.212242 22.400391 25.794922 C 22.938441 26.415142 23.599713 26.91582 24.314453 27.25 C 24.269173 27.07606 24.506039 27.04024 24.167969 26.8125 C 22.400605 25.45814 21.244971 24.260959 21.125 22.085938 z M 12.210938 22.287109 C 12.201115 22.694195 12.201038 23.104663 12.21875 23.507812 C 12.220052 23.299603 12.209202 23.09153 12.220703 22.882812 C 12.208808 22.690912 12.213017 22.487521 12.210938 22.287109 z M 35.367188 22.529297 L 35.294922 22.714844 C 35.162452 23.665254 34.875191 24.607179 34.431641 25.480469 C 34.920451 24.560239 35.234448 23.549747 35.367188 22.529297 z M 29.607422 22.871094 C 29.541122 23.199914 29.360436 23.486989 29.191406 23.787109 C 28.331309 24.328347 28.968757 23.579514 29.140625 23.181641 C 29.098498 23.247285 29.069966 23.316702 29.023438 23.380859 C 29.025396 23.361922 29.016507 23.354219 29.013672 23.339844 C 28.425459 24.178714 29.05626 23.864325 29.023438 24.181641 C 29.319597 23.773271 29.532242 23.333984 29.607422 22.871094 z M 12.21875 24.201172 C 12.122283 30.850786 17.15843 37.194931 22.671875 38.6875 C 23.500075 38.98397 24.73243 38.97141 25.78125 39 C 24.54375 38.64667 24.387841 38.817684 23.181641 38.396484 C 22.76136 38.198341 22.502992 37.984907 22.275391 37.757812 C 17.139563 36.144603 12.507965 30.393774 12.21875 24.201172 z M 27.578125 24.785156 C 27.175175 24.884656 26.766163 24.884156 26.351562 24.847656 C 25.855103 24.858856 26.441184 25.101302 27.089844 25.201172 C 27.269534 25.061042 27.434045 24.922986 27.578125 24.785156 z M 21.308594 24.857422 C 21.417554 25.260312 21.640309 25.597239 21.849609 25.949219 L 21.693359 25.501953 C 21.520339 25.310923 21.424404 25.085892 21.308594 24.857422 z M 20.923828 25.533203 L 20.851562 25.876953 C 21.177662 26.320203 21.442105 26.80921 21.859375 27.15625 C 21.560615 26.57115 21.334428 26.326013 20.923828 25.533203 z M 13.996094 25.871094 L 13.988281 25.949219 C 14.009841 25.992347 14.032713 26.034433 14.052734 26.078125 L 14.060547 25.990234 C 14.033289 25.958761 14.020178 25.907324 13.996094 25.871094 z M 15.611328 29.171875 C 15.67536 29.378101 15.83927 29.660239 16.021484 29.955078 C 15.86459 29.593252 15.729263 29.340855 15.611328 29.171875 z "
       transform="translate(101.71429,648.36218)"
       id="path4235" />
    <path
       style="fill:#ffffff;fill-opacity:0.23529412"
       d="M 25.748047 9 C 25.283867 9.0376 24.822744 9.0552612 24.365234 9.1132812 L 24.564453 9.1464844 C 24.899863 9.0243444 25.390357 9.08253 25.748047 9 z M 23.720703 9.21875 C 22.965353 9.26355 21.910595 9.6611644 22.234375 9.3027344 C 21.002205 9.8524044 18.814428 10.624774 17.585938 11.777344 L 17.554688 11.517578 C 16.991677 12.191988 15.094712 13.532093 14.945312 14.408203 L 14.798828 14.439453 C 14.506658 14.934583 14.313281 15.499976 14.082031 16.009766 C 13.699691 16.662236 13.517366 16.260751 13.572266 16.363281 C 12.819586 17.890511 12.449393 19.177289 12.126953 20.230469 C 12.155736 20.273347 12.177233 20.339173 12.193359 20.421875 C 12.503086 19.405071 12.864344 18.200084 13.572266 16.763672 C 13.517366 16.661142 13.699691 17.062626 14.082031 16.410156 C 14.313281 15.900366 14.506658 15.334974 14.798828 14.839844 L 14.945312 14.806641 C 15.094712 13.930531 16.991677 12.590426 17.554688 11.916016 L 17.585938 12.175781 C 18.814428 11.023211 21.002205 10.250842 22.234375 9.7011719 C 21.910595 10.059602 22.965353 9.6639406 23.720703 9.6191406 C 23.482783 9.7529606 23.247981 9.8575619 23.025391 10.013672 C 23.932791 9.7991319 23.88714 10.104812 24.8125 9.9824219 C 24.48774 10.028962 24.095903 10.153972 24.158203 10.201172 C 25.194383 10.321172 25.352587 9.8827519 26.310547 10.201172 L 26.248047 9.9199219 C 27.580037 10.400652 27.857918 10.316984 29.304688 11.083984 C 29.812778 11.108284 29.85834 10.771854 30.625 11.083984 C 30.76044 11.320574 30.598676 11.367644 31.541016 11.927734 C 31.646166 11.884714 31.35494 11.619823 31.125 11.408203 C 32.810209 12.30866 34.614101 14.113746 35.435547 16.126953 C 35.467232 16.10901 35.539656 16.191777 35.699219 16.486328 C 35.071669 14.176678 33.02001 12.020373 31.125 11.007812 C 31.35494 11.219433 31.646166 11.484324 31.541016 11.527344 C 30.598676 10.967254 30.76044 10.922137 30.625 10.685547 C 29.85834 10.373417 29.812778 10.709847 29.304688 10.685547 C 27.857918 9.9185469 27.580037 10.000261 26.248047 9.5195312 L 26.310547 9.8007812 C 25.562784 9.5522295 25.289895 9.758452 24.71875 9.8066406 C 25.185813 9.8359459 25.228652 9.8768776 24.990234 9.9296875 L 24.978516 9.9511719 L 24.8125 9.9707031 L 24.990234 9.9296875 C 25.028038 9.8757065 24.808165 9.8422058 24.580078 9.8046875 C 24.449291 9.8094046 24.329316 9.8205978 24.158203 9.8007812 C 24.095903 9.7535813 24.48774 9.6285713 24.8125 9.5820312 C 23.88714 9.7044212 23.932791 9.3987412 23.025391 9.6132812 C 23.247981 9.4571712 23.482783 9.35257 23.720703 9.21875 z M 24.470703 9.3847656 C 24.63581 9.4133407 24.803979 9.438751 24.904297 9.46875 C 24.992064 9.4618821 25.079958 9.4533277 25.167969 9.4472656 C 25.124796 9.420331 24.935396 9.3982004 24.470703 9.3847656 z M 25.166016 9.4550781 C 25.083512 9.4592232 25.003587 9.4668466 24.923828 9.4746094 C 24.97233 9.491209 25.005132 9.5099769 24.990234 9.53125 C 25.114452 9.5037357 25.179311 9.477792 25.166016 9.4550781 z M 24.990234 9.53125 L 24.8125 9.5722656 L 24.978516 9.5507812 L 24.990234 9.53125 z M 12.761719 15.425781 C 12.8299 16.059744 12.403743 16.317135 12.761719 16.046875 C 12.767557 15.978539 12.770283 15.905801 12.761719 15.826172 C 12.75971 15.945688 12.839048 15.919389 12.912109 15.900391 C 13.215625 15.186298 12.756885 15.713412 12.761719 15.425781 z M 35.439453 16.515625 C 35.386405 16.514987 35.421052 16.729167 35.453125 16.943359 C 35.507341 16.930932 35.482297 16.734419 35.451172 16.527344 C 35.448365 16.526381 35.44188 16.515654 35.439453 16.515625 z M 34.335938 16.691406 C 34.269733 16.751342 34.267586 16.923906 34.421875 17.40625 C 34.755905 17.88962 34.488141 16.91946 34.900391 17.78125 C 34.904533 18.049529 34.969807 18.331629 35.041016 18.634766 C 35.0779 18.687561 35.113742 18.726622 35.148438 18.732422 C 35.059037 18.199342 34.906711 17.790169 34.900391 17.380859 C 34.488141 16.519069 34.755905 17.491183 34.421875 17.007812 C 34.379461 16.875216 34.356938 16.782256 34.335938 16.691406 z M 35.466797 17.037109 C 35.486681 17.180548 35.493852 17.296069 35.466797 17.332031 C 35.749202 18.050997 35.945302 18.766489 36.052734 19.148438 C 35.925301 18.423424 35.716074 17.718965 35.466797 17.037109 z M 25.65625 17.267578 C 24.18619 17.290778 22.809799 18.226948 22.349609 19.242188 C 21.597279 19.715018 21.511024 21.074166 21.183594 21.322266 C 21.116327 21.816548 21.102074 22.256045 21.111328 22.671875 C 21.120994 22.370465 21.137388 22.062183 21.183594 21.722656 C 21.511024 21.474556 21.597279 20.115408 22.349609 19.642578 C 22.809799 18.627338 24.18619 17.691169 25.65625 17.667969 C 26.278253 17.634063 26.856417 17.769347 27.371094 17.994141 C 28.011471 18.159669 28.600379 18.465722 29.066406 18.900391 C 28.430846 18.067211 27.1576 17.185738 25.65625 17.267578 z M 12.210938 17.703125 C 11.844424 18.171371 11.948116 18.342827 11.962891 18.609375 C 11.973341 18.525896 12.016869 18.423196 12.085938 18.304688 C 12.137155 18.076953 12.173131 17.877765 12.210938 17.703125 z M 15.044922 18.025391 C 14.963469 18.140203 14.828411 18.299009 14.779297 18.384766 L 14.878906 18.400391 C 14.936049 18.275422 14.994617 18.161738 15.048828 18.025391 L 15.044922 18.025391 z M 34.775391 18.669922 C 34.760587 18.669332 34.745261 18.677606 34.732422 18.697266 C 34.822195 19.119756 34.939122 19.369836 35.042969 19.542969 C 35.079365 19.351927 35.164298 19.457661 35.201172 19.367188 C 35.134958 19.329928 34.98618 19.124422 34.855469 18.742188 C 34.854963 18.741514 34.85402 18.7409 34.853516 18.740234 C 34.826204 18.704242 34.79899 18.670862 34.775391 18.669922 z M 35.046875 19.902344 C 35.034754 19.948412 35.025319 20.013768 35.023438 20.121094 C 35.0591 20.806391 35.173071 20.843628 35.279297 20.808594 C 35.334278 20.665637 35.400914 20.505442 35.429688 20.376953 C 35.325948 20.331347 35.123106 20.645515 35.046875 19.902344 z M 33.248047 20.841797 C 33.245627 21.396544 33.205108 21.957981 33.027344 22.498047 L 33.183594 22.167969 C 33.245324 21.722691 33.257515 21.283959 33.248047 20.841797 z M 29.929688 21.021484 C 29.868587 21.021484 29.791443 21.183336 29.751953 21.353516 C 29.779798 21.368467 29.803102 21.458512 29.828125 21.53125 C 29.860659 21.465611 29.898053 21.419922 29.929688 21.419922 C 29.964716 21.418935 29.98765 21.496808 30 21.626953 C 30.000728 21.624141 30.001223 21.625984 30.001953 21.623047 C 30.031853 21.175897 29.990387 21.019774 29.929688 21.021484 z M 12.228516 21.601562 C 12.218619 21.989032 12.208567 22.415992 12.207031 22.847656 C 12.216182 22.388373 12.226071 21.972774 12.228516 21.601562 z M 35.039062 22.115234 C 35.035162 22.155033 35.02884 22.19327 35.027344 22.234375 C 35.044618 22.288024 35.072828 22.339343 35.085938 22.392578 C 35.061314 22.296419 35.048999 22.205134 35.039062 22.115234 z M 34.785156 22.205078 C 34.78372 22.239377 34.78148 22.27673 34.78125 22.308594 C 34.784221 22.335663 34.794283 22.340591 34.794922 22.373047 C 34.791812 22.319418 34.788818 22.260094 34.785156 22.205078 z M 34.794922 22.373047 C 34.796064 22.413142 34.784006 22.476199 34.78125 22.523438 C 34.782965 22.555284 34.785043 22.586595 34.787109 22.617188 C 34.790208 22.535807 34.799473 22.448325 34.794922 22.373047 z M 21.902344 22.388672 C 21.885591 22.61604 21.884232 22.844874 21.902344 23.074219 C 21.963434 22.984399 22.018275 23.037963 22.046875 22.814453 C 21.997275 26.340883 25.848031 28.932626 28.619141 27.628906 L 28.650391 27.701172 C 29.773401 27.394362 29.630864 27.135219 30.365234 26.630859 C 30.307994 26.747949 29.866743 27.045441 30.126953 27.056641 C 30.484343 26.960541 31.605597 25.923047 32.154297 25.435547 C 32.404967 24.892167 32.021987 25.139421 32.373047 24.457031 L 32.798828 24.25 C 33.035848 23.56626 33.291878 23.177012 33.267578 22.388672 L 33.242188 22.441406 C 33.177763 22.950882 32.984931 23.312751 32.798828 23.849609 L 32.373047 24.056641 C 32.021987 24.739031 32.404967 24.491776 32.154297 25.035156 C 31.605597 25.522656 30.484343 26.56015 30.126953 26.65625 C 29.866743 26.64505 30.307994 26.347559 30.365234 26.230469 C 29.630864 26.734829 29.773401 26.993971 28.650391 27.300781 L 28.619141 27.228516 C 25.848031 28.532236 21.997275 25.940493 22.046875 22.414062 C 22.018275 22.637573 21.963434 22.584008 21.902344 22.673828 C 21.894813 22.578468 21.903758 22.483912 21.902344 22.388672 z M 35.367188 22.529297 L 35.294922 22.714844 C 35.162452 23.665254 34.875191 24.607179 34.431641 25.480469 C 34.920451 24.560239 35.234448 23.549747 35.367188 22.529297 z M 34.769531 22.654297 C 34.743802 22.878485 34.695464 23.133701 34.607422 23.421875 C 34.724059 23.116102 34.765533 22.904015 34.783203 22.716797 C 34.780589 22.68984 34.774257 22.675678 34.769531 22.654297 z M 29.607422 22.871094 C 29.541122 23.199914 29.360436 23.486989 29.191406 23.787109 C 29.097111 23.846447 29.031163 23.879957 28.970703 23.910156 C 28.945595 23.951424 28.925752 23.988091 28.902344 24.027344 C 28.974173 24.04876 29.03376 24.081851 29.023438 24.181641 C 29.319597 23.773271 29.532242 23.333984 29.607422 22.871094 z M 29.191406 23.080078 C 28.567506 23.866416 28.678184 23.956201 28.835938 24.003906 C 28.84319 23.990743 28.862761 23.965357 28.871094 23.951172 C 28.541266 24.055804 29.119104 23.374253 29.191406 23.080078 z M 12.21875 23.996094 C 12.208719 24.325037 12.202008 24.65334 12.216797 24.980469 C 12.212401 24.681805 12.20418 24.383823 12.220703 24.083984 C 12.218951 24.05572 12.220252 24.024628 12.21875 23.996094 z M 13.660156 24.394531 C 13.64614 25.217781 13.727246 25.935905 14.027344 26.332031 L 14.060547 25.990234 C 13.78112 25.6676 13.678997 25.081176 13.660156 24.394531 z M 27.578125 24.785156 C 27.175175 24.884656 26.766163 24.884156 26.351562 24.847656 C 25.855103 24.858856 26.441184 25.101302 27.089844 25.201172 C 27.269534 25.061042 27.434045 24.922986 27.578125 24.785156 z M 21.308594 24.857422 C 21.417554 25.260312 21.640309 25.597239 21.849609 25.949219 L 21.693359 25.501953 C 21.520339 25.310923 21.424404 25.085892 21.308594 24.857422 z M 20.923828 25.533203 L 20.851562 25.876953 C 20.874086 25.907569 20.894002 25.939716 20.916016 25.970703 L 20.923828 25.933594 C 20.985529 26.05273 21.021918 26.103788 21.076172 26.201172 C 21.3113 26.546678 21.542025 26.892313 21.859375 27.15625 C 21.560615 26.57115 21.334428 26.326013 20.923828 25.533203 z M 21.558594 26.042969 C 21.813834 26.500392 22.197535 26.925452 22.640625 27.314453 C 22.560636 27.207618 22.475507 27.103821 22.400391 26.994141 C 22.639785 27.270095 22.907586 27.517529 23.189453 27.742188 C 23.544233 27.995369 23.920455 28.22368 24.316406 28.416016 C 24.3097 28.272987 24.480374 28.224123 24.167969 28.013672 C 24.112906 27.971476 24.065616 27.930567 24.011719 27.888672 C 23.414534 27.562245 22.860928 27.12462 22.400391 26.59375 C 22.686201 27.01107 22.999488 27.418541 23.398438 27.738281 C 22.86967 27.559835 22.211414 26.676009 21.820312 26.265625 L 21.849609 26.349609 C 21.826373 26.310532 21.804638 26.271237 21.78125 26.232422 C 21.695088 26.146228 21.606852 26.053506 21.558594 26.042969 z M 14.019531 26.814453 L 13.988281 27.150391 C 14.054268 27.282388 14.121476 27.412818 14.185547 27.544922 C 14.16736 27.490372 14.153734 27.466098 14.134766 27.40625 L 14.310547 27.394531 C 14.189803 27.211789 14.112445 27.010225 14.019531 26.814453 z M 14.277344 27.796875 L 14.134766 27.804688 C 14.897354 30.210778 15.022026 28.283679 15.886719 30.0625 C 15.969284 30.11588 16.046908 30.146948 16.121094 30.171875 C 15.097178 27.63168 14.967704 29.660686 14.277344 27.796875 z M 24.355469 28.263672 C 24.310315 28.300497 24.407628 28.413211 24.556641 28.541016 C 25.833209 29.108781 27.201663 29.316279 28.140625 28.923828 C 27.280165 28.954228 26.177274 28.936018 25.208984 28.580078 C 25.162032 28.555922 25.115842 28.515441 25.066406 28.486328 C 24.829028 28.418925 24.591816 28.351862 24.355469 28.263672 z M 15.568359 30.144531 C 15.544664 30.351265 15.835942 30.91346 16.191406 31.423828 L 16.337891 31.251953 C 16.113314 30.962422 15.912035 30.634425 15.769531 30.349609 C 15.705828 30.292495 15.644512 30.247782 15.568359 30.144531 z M 16.298828 31.697266 L 16.152344 31.871094 C 16.355359 32.241072 16.539646 32.362417 16.695312 32.484375 C 16.528342 32.188905 16.457262 31.97942 16.785156 32.158203 C 16.653474 32.03791 16.483139 31.944752 16.298828 31.697266 z M 16.5625 32.486328 C 16.292886 32.563957 17.637226 34.205181 17.773438 34.439453 L 17.919922 34.201172 C 17.900312 34.555962 18.164314 35.012334 18.677734 35.646484 L 19.115234 35.625 C 19.260072 35.910789 19.707665 36.367631 20.082031 36.546875 L 20.322266 36.234375 C 19.930956 36.203975 19.292274 35.573939 19.115234 35.224609 L 18.677734 35.246094 C 18.164314 34.611944 17.900312 34.155571 17.919922 33.800781 L 17.773438 34.039062 C 17.677947 33.874827 17.037077 33.062765 16.726562 32.539062 C 16.65896 32.509003 16.590926 32.478143 16.5625 32.486328 z M 20.294922 36.669922 L 20.060547 36.976562 C 21.043147 37.287243 20.538564 37.393923 21.746094 37.820312 L 21.505859 37.382812 C 22.121779 37.916872 22.313181 38.387435 23.181641 38.796875 C 23.269143 38.82743 23.319223 38.836583 23.396484 38.861328 C 24.13424 38.97829 25.007049 38.978896 25.78125 39 C 24.54375 38.64667 24.387841 38.817684 23.181641 38.396484 C 22.313181 37.987044 22.121779 37.516482 21.505859 36.982422 L 21.746094 37.419922 C 20.677433 37.042568 20.899058 36.909216 20.294922 36.669922 z "
       transform="translate(101.71429,648.36218)"
       id="path4242" />
  </g>
</svg>
