<?xml version="1.0" encoding="UTF-8" standalone="no"?>
<!-- Created with Inkscape (http://www.inkscape.org/) -->

<svg
   xmlns:dc="http://purl.org/dc/elements/1.1/"
   xmlns:cc="http://creativecommons.org/ns#"
   xmlns:rdf="http://www.w3.org/1999/02/22-rdf-syntax-ns#"
   xmlns:svg="http://www.w3.org/2000/svg"
   xmlns="http://www.w3.org/2000/svg"
   xmlns:xlink="http://www.w3.org/1999/xlink"
   xmlns:sodipodi="http://sodipodi.sourceforge.net/DTD/sodipodi-0.dtd"
   xmlns:inkscape="http://www.inkscape.org/namespaces/inkscape"
   width="48"
   height="48"
   id="svg6388"
   version="1.1"
   inkscape:version="0.48+devel r12913"
   sodipodi:docname="gnome-mime-text-x-copying.svg">
  <defs
     id="defs6390">
    <linearGradient
       inkscape:collect="always"
       id="linearGradient4250">
      <stop
         style="stop-color:#dadcde;stop-opacity:1"
         offset="0"
         id="stop4252" />
      <stop
         style="stop-color:#fafafa;stop-opacity:1"
         offset="1"
         id="stop4254" />
    </linearGradient>
    <linearGradient
       inkscape:collect="always"
       id="linearGradient4503">
      <stop
         style="stop-color:#90959c;stop-opacity:1"
         offset="0"
         id="stop4505" />
      <stop
         style="stop-color:#c4c8cc;stop-opacity:1"
         offset="1"
         id="stop4507" />
    </linearGradient>
    <linearGradient
       id="linearGradient4461"
       inkscape:collect="always">
      <stop
         id="stop4463"
         offset="0"
         style="stop-color:#45484d;stop-opacity:1" />
      <stop
         id="stop4465"
         offset="1"
         style="stop-color:#5e656b;stop-opacity:1" />
    </linearGradient>
    <linearGradient
       id="linearGradient4788-0"
       inkscape:collect="always">
      <stop
         id="stop4790-5"
         offset="0"
         style="stop-color:#000000;stop-opacity:1" />
      <stop
         id="stop4792-9"
         offset="1"
         style="stop-color:#000000;stop-opacity:0" />
    </linearGradient>
    <linearGradient
       id="linearGradient4433-1"
       inkscape:collect="always">
      <stop
         id="stop4435-3"
         offset="0"
         style="stop-color:#2b3141;stop-opacity:1" />
      <stop
         id="stop4437-1"
         offset="1"
         style="stop-color:#394056;stop-opacity:1" />
    </linearGradient>
    <linearGradient
       inkscape:collect="always"
       xlink:href="#linearGradient4461"
       id="linearGradient4117-99"
       gradientUnits="userSpaceOnUse"
       gradientTransform="translate(359.67801,172.72583)"
       x1="92.14286"
       y1="-1049.092"
       x2="92.14286"
       y2="-1001.0899" />
    <linearGradient
       gradientUnits="userSpaceOnUse"
       y2="33.999271"
       x2="42.956738"
       y1="48.000004"
       x1="42.956738"
       id="linearGradient4439-9"
       xlink:href="#linearGradient4433-1"
       inkscape:collect="always"
       gradientTransform="translate(424.57145,828.36218)" />
    <linearGradient
       gradientTransform="matrix(-1,0,0,-1,917.14289,1738.7236)"
       y2="862.36139"
       x2="472.50894"
       y1="871.36139"
       x1="458.57144"
       gradientUnits="userSpaceOnUse"
       id="linearGradient4786-8"
       xlink:href="#linearGradient4788-0"
       inkscape:collect="always" />
    <linearGradient
       gradientUnits="userSpaceOnUse"
       y2="862.36255"
       x2="458.57144"
       y1="869.36218"
       x1="465.57108"
       id="linearGradient4219-1"
       xlink:href="#linearGradient4503"
       inkscape:collect="always"
       gradientTransform="translate(1.4e-5,-1.0591797e-5)" />
    <style
       type="text/css"
       id="style1115"><![CDATA[ .fil0 {fill:#1F1A17} ]]></style>
    <style
       type="text/css"
       id="style1246"><![CDATA[ .fil0 {fill:#1F1A17} ]]></style>
    <linearGradient
       inkscape:collect="always"
       xlink:href="#linearGradient4250"
       id="linearGradient4248"
       x1="450.5174"
       y1="867.36218"
       x2="450.5174"
       y2="837.36218"
       gradientUnits="userSpaceOnUse" />
  </defs>
  <sodipodi:namedview
     id="base"
     pagecolor="#ffffff"
     bordercolor="#666666"
     borderopacity="1.0"
     inkscape:pageopacity="0.0"
     inkscape:pageshadow="2"
     inkscape:zoom="4.0062018"
     inkscape:cx="-3.5951296"
     inkscape:cy="38.854208"
     inkscape:document-units="px"
     inkscape:current-layer="layer1"
     showgrid="false"
     fit-margin-top="0"
     fit-margin-left="0"
     fit-margin-right="0"
     fit-margin-bottom="0"
     inkscape:window-width="1366"
     inkscape:window-height="671"
     inkscape:window-x="0"
     inkscape:window-y="24"
     inkscape:window-maximized="1">
    <sodipodi:guide
       position="1.6503906e-06,-2.6171875e-06"
       orientation="-48,0"
       id="guide4222" />
    <sodipodi:guide
       position="1.6503906e-06,47.999997"
       orientation="0,48"
       id="guide4224" />
    <sodipodi:guide
       position="48.000002,47.999997"
       orientation="48,0"
       id="guide4226" />
    <sodipodi:guide
       position="48.000002,-2.6171875e-06"
       orientation="0,-48"
       id="guide4228" />
    <sodipodi:guide
       position="9.0000017,8.9999974"
       orientation="-30,0"
       id="guide4234" />
    <sodipodi:guide
       position="9.0000017,38.999997"
       orientation="0,30"
       id="guide4236" />
    <sodipodi:guide
       position="39.000002,38.999997"
       orientation="30,0"
       id="guide4238" />
    <sodipodi:guide
       position="39.000002,8.9999974"
       orientation="0,-30"
       id="guide4240" />
  </sodipodi:namedview>
  <metadata
     id="metadata6393">
    <rdf:RDF>
      <cc:Work
         rdf:about="">
        <dc:format>image/svg+xml</dc:format>
        <dc:type
           rdf:resource="http://purl.org/dc/dcmitype/StillImage" />
        <dc:title />
      </cc:Work>
    </rdf:RDF>
  </metadata>
  <g
     inkscape:label="Capa 1"
     inkscape:groupmode="layer"
     id="layer1"
     transform="translate(-424.57144,-828.36218)">
    <g
       style="font-size:10px;font-style:normal;font-variant:normal;font-weight:normal;font-stretch:normal;line-height:125%;letter-spacing:0px;word-spacing:0px;fill:#000000;fill-opacity:1;stroke:none;font-family:Decker;-inkscape-font-specification:Decker"
       id="text6661"
       transform="translate(-97.142852,222.85711)" />
    <g
       style="font-size:7.5px;font-style:normal;font-variant:normal;font-weight:bold;font-stretch:normal;line-height:125%;letter-spacing:0px;word-spacing:0px;fill:#ffffff;fill-opacity:1;stroke:none;font-family:Impact;-inkscape-font-specification:Impact Bold"
       id="text853"
       transform="translate(-140.95959,312.0067)" />
    <g
       style="font-size:10px;font-style:normal;font-variant:normal;font-weight:normal;font-stretch:normal;line-height:125%;letter-spacing:0px;word-spacing:0px;fill:#000000;fill-opacity:1;stroke:none;font-family:Decker;-inkscape-font-specification:Decker"
       id="text6661-4"
       transform="translate(-180.95959,237.72093)" />
    <rect
       style="fill:url(#linearGradient4117-99);fill-opacity:1;stroke:none"
       id="rect2991-1-7-3-2"
       width="48"
       height="48"
       x="424.57144"
       y="-876.36218"
       ry="1.9445436"
       transform="scale(1,-1)" />
    <path
       inkscape:connector-curvature="0"
       id="path4262"
       d="m 435.07144,838.56218 0,25 5,0 0,5 22,0 0,-26 -5,0 0,-4 -22,0 z m 22,6 3,0 0,22 -18,0 0,-3 15,0 0,-19 z"
       style="fill:#000000;fill-opacity:0.05882353;stroke:none" />
    <path
       style="fill:#000000;fill-opacity:0.11764706;stroke:none"
       d="m 435.07144,838.16218 0,25 5,0 0,5 22,0 0,-26 -5,0 0,-4 -22,0 z m 22,6 3,0 0,22 -18,0 0,-3 15,0 0,-19 z"
       id="path4260"
       inkscape:connector-curvature="0" />
    <path
       inkscape:connector-curvature="0"
       id="path4256"
       d="m 435.07144,837.76218 0,25 5,0 0,5 22,0 0,-26 -5,0 0,-4 -22,0 z m 22,6 3,0 0,22 -18,0 0,-3 15,0 0,-19 z"
       style="fill:#000000;fill-opacity:0.23529412;stroke:none" />
    <path
       style="fill:url(#linearGradient4248);fill-opacity:1;stroke:none"
       d="m 435.07144,837.36218 0,25 5,0 0,5 22,0 0,-26 -5,0 0,-4 -22,0 z m 22,6 3,0 0,22 -18,0 0,-3 15,0 0,-19 z"
       id="rect3236"
       inkscape:connector-curvature="0" />
    <path
       inkscape:connector-curvature="0"
       style="fill:#ffffff;fill-opacity:0.5372549;stroke:none"
       d="m 427.10268,829.01848 c -0.91709,0 -1.67115,0.6395 -1.84375,1.5 0.33561,-0.2799 0.77451,-0.4375 1.25,-0.4375 l 44.125,0 c 0.47549,0 0.91439,0.1576 1.25,0.4375 -0.1726,-0.8605 -0.92666,-1.5 -1.84375,-1.5 l -42.9375,0 z"
       id="path7515-3-1" />
    <path
       style="fill:#4c5055;fill-opacity:0.3137255;stroke:none"
       d="M 32.5 14.199219 L 32.5 15 L 35.5 15 L 35.5 14.199219 L 32.5 14.199219 z M 10.5 33.199219 L 10.5 34 L 15.5 34 L 15.5 33.199219 L 10.5 33.199219 z M 17.5 33.199219 L 17.5 34 L 32.5 34 L 32.5 33.199219 L 17.5 33.199219 z M 15.5 38.199219 L 15.5 39 L 37.5 39 L 37.5 38.199219 L 15.5 38.199219 z "
       transform="translate(424.57144,828.36218)"
       id="path4264" />
    <path
       style="fill:#ffffff;fill-opacity:0.23529412;stroke:none"
       d="M 10.5 9 L 10.5 9.4003906 L 32.5 9.4003906 L 32.5 9 L 10.5 9 z M 32.5 13 L 32.5 13.400391 L 37.5 13.400391 L 37.5 13 L 32.5 13 z M 17.5 37 L 17.5 37.400391 L 35.5 37.400391 L 35.5 37 L 17.5 37 z "
       transform="translate(424.57144,828.36218)"
       id="path4269" />
    <path
       style="fill:url(#linearGradient4219-1);fill-opacity:1;stroke:none"
       d="m 458.57145,862.36148 0,14.0007 14,-14 z"
       id="path4130-6"
       inkscape:connector-curvature="0" />
    <path
       inkscape:connector-curvature="0"
       style="fill:url(#linearGradient4439-9);fill-opacity:1;stroke:none"
       d="m 472.57145,862.36218 -14,14 12.05469,0 c 1.07728,0 1.94531,-0.868 1.94531,-1.9453 l 0,-12.0547 z"
       id="path4303-7" />
    <path
       inkscape:connector-curvature="0"
       id="path4784-3"
       d="m 458.57145,876.36218 0,-14.0007 -14,14 z"
       style="opacity:0.1;fill:url(#linearGradient4786-8);fill-opacity:1;stroke:none" />
    <path
       inkscape:connector-curvature="0"
       style="fill:#000000;fill-opacity:1;stroke:none"
       d="m 424.57143,873.36218 0,1.0625 c 0,1.0773 0.86022,1.9375 1.9375,1.9375 l 44.125,0 c 1.07728,0 1.9375,-0.8602 1.9375,-1.9375 l 0,-1.0625 c 0,1.0773 -0.86022,1.9375 -1.9375,1.9375 l -44.125,0 c -1.07728,0 -1.9375,-0.8602 -1.9375,-1.9375 z"
       id="rect846-0-3" />
    <path
       inkscape:connector-curvature="0"
       style="fill:#000000;fill-opacity:0.39215686;stroke:none"
       d="m 426.50893,828.36218 c -1.07728,0 -1.9375,0.8602 -1.9375,1.9375 l 0,43.0625 c 0,0.7934 0.48002,1.449 1.15625,1.75 -0.30934,-0.3333 -0.5,-0.7824 -0.5,-1.2812 l 0,-42.9375 c 0,-1.0482 0.8269,-1.875 1.875,-1.875 l 42.9375,0 c 1.0481,0 1.875,0.8268 1.875,1.875 l 0,42.9375 c 0,0.4988 -0.19066,0.9479 -0.5,1.2812 0.67623,-0.301 1.15625,-0.9566 1.15625,-1.75 l 0,-43.0625 c 0,-1.0773 -0.86022,-1.9375 -1.9375,-1.9375 l -44.125,0 z"
       id="rect4280-1-7" />
  </g>
</svg>
