<?xml version="1.0" encoding="UTF-8" standalone="no"?>
<!-- Created with Inkscape (http://www.inkscape.org/) -->

<svg
   xmlns:dc="http://purl.org/dc/elements/1.1/"
   xmlns:cc="http://creativecommons.org/ns#"
   xmlns:rdf="http://www.w3.org/1999/02/22-rdf-syntax-ns#"
   xmlns:svg="http://www.w3.org/2000/svg"
   xmlns="http://www.w3.org/2000/svg"
   xmlns:xlink="http://www.w3.org/1999/xlink"
   xmlns:sodipodi="http://sodipodi.sourceforge.net/DTD/sodipodi-0.dtd"
   xmlns:inkscape="http://www.inkscape.org/namespaces/inkscape"
   width="48"
   height="48"
   id="svg1655"
   version="1.1"
   inkscape:version="0.48+devel r12913"
   sodipodi:docname="gnome-mime-application-x-tex.svg">
  <defs
     id="defs1657">
    <linearGradient
       inkscape:collect="always"
       id="linearGradient4788">
      <stop
         style="stop-color:#000000;stop-opacity:1"
         offset="0"
         id="stop4790" />
      <stop
         style="stop-color:#000000;stop-opacity:0"
         offset="1"
         id="stop4792" />
    </linearGradient>
    <linearGradient
       inkscape:collect="always"
       id="linearGradient4433">
      <stop
         style="stop-color:#2b3141;stop-opacity:1"
         offset="0"
         id="stop4435" />
      <stop
         style="stop-color:#394056;stop-opacity:1"
         offset="1"
         id="stop4437" />
    </linearGradient>
    <linearGradient
       y2="-1001.0899"
       x2="92.14286"
       y1="-1049.092"
       x1="92.14286"
       gradientTransform="translate(596.82086,349.86869)"
       gradientUnits="userSpaceOnUse"
       id="linearGradient4117"
       xlink:href="#linearGradient4461"
       inkscape:collect="always" />
    <linearGradient
       gradientTransform="translate(661.7143,651.21931)"
       inkscape:collect="always"
       xlink:href="#linearGradient4433"
       id="linearGradient4439"
       x1="42.956738"
       y1="48.000004"
       x2="42.956738"
       y2="33.999271"
       gradientUnits="userSpaceOnUse" />
    <linearGradient
       inkscape:collect="always"
       xlink:href="#linearGradient4788"
       id="linearGradient4786"
       gradientUnits="userSpaceOnUse"
       x1="458.57144"
       y1="871.36139"
       x2="472.50894"
       y2="862.36139"
       gradientTransform="matrix(-1,0,0,-1,1154.2857,1561.5807)" />
    <linearGradient
       gradientTransform="translate(237.14286,-177.14287)"
       inkscape:collect="always"
       xlink:href="#linearGradient4503"
       id="linearGradient4219"
       x1="465.57108"
       y1="869.36218"
       x2="458.57144"
       y2="862.36255"
       gradientUnits="userSpaceOnUse" />
    <linearGradient
       gradientUnits="userSpaceOnUse"
       y2="8.999979"
       x2="21.121513"
       y1="38.999981"
       x1="21.121513"
       id="linearGradient4343"
       xlink:href="#linearGradient4411"
       inkscape:collect="always" />
    <linearGradient
       inkscape:collect="always"
       id="linearGradient4411">
      <stop
         style="stop-color:#dadcde;stop-opacity:1"
         offset="0"
         id="stop4413" />
      <stop
         style="stop-color:#fafafa;stop-opacity:1"
         offset="1"
         id="stop4415" />
    </linearGradient>
    <linearGradient
       inkscape:collect="always"
       id="linearGradient4503">
      <stop
         style="stop-color:#90959c;stop-opacity:1"
         offset="0"
         id="stop4505" />
      <stop
         style="stop-color:#c4c8cc;stop-opacity:1"
         offset="1"
         id="stop4507" />
    </linearGradient>
    <linearGradient
       id="linearGradient4461"
       inkscape:collect="always">
      <stop
         id="stop4463"
         offset="0"
         style="stop-color:#45484d;stop-opacity:1" />
      <stop
         id="stop4465"
         offset="1"
         style="stop-color:#5e656b;stop-opacity:1" />
    </linearGradient>
  </defs>
  <sodipodi:namedview
     id="base"
     pagecolor="#ffffff"
     bordercolor="#666666"
     borderopacity="1.0"
     inkscape:pageopacity="0.0"
     inkscape:pageshadow="2"
     inkscape:zoom="4.0062019"
     inkscape:cx="20.639317"
     inkscape:cy="34.024533"
     inkscape:document-units="px"
     inkscape:current-layer="layer1"
     showgrid="false"
     inkscape:window-width="1366"
     inkscape:window-height="671"
     inkscape:window-x="0"
     inkscape:window-y="24"
     inkscape:window-maximized="1" />
  <metadata
     id="metadata1660">
    <rdf:RDF>
      <cc:Work
         rdf:about="">
        <dc:format>image/svg+xml</dc:format>
        <dc:type
           rdf:resource="http://purl.org/dc/dcmitype/StillImage" />
        <dc:title />
      </cc:Work>
    </rdf:RDF>
  </metadata>
  <g
     inkscape:label="Capa 1"
     inkscape:groupmode="layer"
     id="layer1"
     transform="translate(0,-1004.3622)">
    <g
       transform="translate(-661.71429,353.14289)"
       id="layer1-2"
       inkscape:label="Capa 1">
      <rect
         transform="scale(1,-1)"
         ry="1.9445436"
         y="-699.2193"
         x="661.71429"
         height="48"
         width="48"
         id="rect2991-1-7-3-1"
         style="fill:url(#linearGradient4117);fill-opacity:1.0;stroke:none" />
      <path
         inkscape:connector-curvature="0"
         style="fill:#000000;fill-opacity:0.05882353;stroke:none"
         d="m 672.83538,661.41932 -2.12109,2.12109 7.87891,7.87891 -7.87891,7.87891 2.12109,2.12109 10,-10 -10,-10 z m 12.87891,27 0,3 15,0 0,-3 -15,0 z"
         id="path4357" />
      <path
         id="path4355"
         d="m 672.83538,661.01932 -2.12109,2.12109 7.87891,7.87891 -7.87891,7.87891 2.12109,2.12109 10,-10 -10,-10 z m 12.87891,27 0,3 15,0 0,-3 -15,0 z"
         style="fill:#000000;fill-opacity:0.11764706;stroke:none"
         inkscape:connector-curvature="0" />
      <path
         inkscape:connector-curvature="0"
         style="fill:#000000;fill-opacity:0.23529412;stroke:none"
         d="m 672.83538,660.61932 -2.12109,2.12109 7.87891,7.87891 -7.87891,7.87891 2.12109,2.12109 10,-10 -10,-10 z m 12.87891,27 0,3 15,0 0,-3 -15,0 z"
         id="path4351" />
      <path
         id="rect4284"
         transform="translate(661.71429,651.21932)"
         d="M 11.121094,9 9,11.121094 16.878906,19 9,26.878906 11.121094,29 l 10,-10 -10,-10 z M 24,36 l 0,3 15,0 0,-3 -15,0 z"
         style="fill:url(#linearGradient4343);fill-opacity:1.0;stroke:none"
         inkscape:connector-curvature="0" />
      <path
         id="path4364"
         transform="translate(661.71429,651.21932)"
         d="M 11.121094,9 9,11.121094 9.1992188,11.320312 11.121094,9.4003906 20.921875,19.199219 21.121094,19 l -10,-10 z M 16.679688,19.199219 9,26.878906 9.1992188,27.078125 16.878906,19.400391 16.679688,19.199219 Z M 24,36 l 0,0.400391 15,0 L 39,36 24,36 Z"
         style="fill:#ffffff;fill-opacity:0.23529412;stroke:none"
         inkscape:connector-curvature="0" />
      <path
         id="path4359"
         transform="translate(661.71429,651.21932)"
         d="M 9.4003906,10.720703 9,11.121094 l 7.478516,7.478515 0.40039,-0.40039 -7.4785154,-7.478516 z M 20.720703,18.599609 11.121094,28.199219 9.4003906,26.478516 9,26.878906 11.121094,29 l 10,-10 -0.400391,-0.400391 z M 24,38.199219 24,39 l 15,0 0,-0.800781 -15,0 z"
         style="fill:#4c4f54;fill-opacity:0.3137255;stroke:none"
         inkscape:connector-curvature="0" />
      <path
         inkscape:connector-curvature="0"
         id="path4130"
         d="m 695.7143,685.21858 0,14.00073 14,-14 z"
         style="fill:url(#linearGradient4219);fill-opacity:1.0;stroke:none" />
      <path
         id="path4303"
         d="m 709.7143,685.21931 -14,14 12.05469,0 c 1.07728,0 1.94531,-0.86804 1.94531,-1.94531 l 0,-12.05469 z"
         style="fill:url(#linearGradient4439);fill-opacity:1;stroke:none"
         inkscape:connector-curvature="0" />
      <path
         style="opacity:0.1;fill:url(#linearGradient4786);fill-opacity:1;stroke:none"
         d="m 695.7143,699.21931 0,-14.00073 -14,14 z"
         id="path4784"
         inkscape:connector-curvature="0" />
      <path
         id="rect846-0-4"
         d="m 661.71428,696.21933 0,1.0625 c 0,1.0773 0.86022,1.9375 1.9375,1.9375 l 44.125,0 c 1.07728,0 1.9375,-0.8602 1.9375,-1.9375 l 0,-1.0625 c 0,1.0773 -0.86022,1.9375 -1.9375,1.9375 l -44.125,0 c -1.07728,0 -1.9375,-0.8602 -1.9375,-1.9375 z"
         style="fill:#000000;fill-opacity:1;stroke:none"
         inkscape:connector-curvature="0" />
      <path
         id="path7515-3-3"
         d="m 664.24553,651.87563 c -0.91709,0 -1.67115,0.6395 -1.84375,1.5 0.33561,-0.2799 0.77451,-0.4375 1.25,-0.4375 l 44.125,0 c 0.47549,0 0.91439,0.1576 1.25,0.4375 -0.1726,-0.8605 -0.92666,-1.5 -1.84375,-1.5 l -42.9375,0 z"
         style="fill:#ffffff;fill-opacity:0.5372549;stroke:none"
         inkscape:connector-curvature="0" />
      <path
         id="rect4280-1-1"
         d="m 663.65178,651.21933 c -1.07728,0 -1.9375,0.8602 -1.9375,1.9375 l 0,43.0625 c 0,0.7934 0.48002,1.449 1.15625,1.75 -0.30934,-0.3333 -0.5,-0.7824 -0.5,-1.2812 l 0,-42.9375 c 0,-1.0482 0.8269,-1.875 1.875,-1.875 l 42.9375,0 c 1.0481,0 1.875,0.8268 1.875,1.875 l 0,42.9375 c 0,0.4988 -0.19066,0.9479 -0.5,1.2812 0.67623,-0.301 1.15625,-0.9566 1.15625,-1.75 l 0,-43.0625 c 0,-1.0773 -0.86022,-1.9375 -1.9375,-1.9375 l -44.125,0 z"
         style="fill:#000000;fill-opacity:0.39215686;stroke:none"
         inkscape:connector-curvature="0" />
    </g>
  </g>
</svg>
