<?xml version="1.0" encoding="UTF-8" standalone="no"?>
<!-- Created with Inkscape (http://www.inkscape.org/) -->

<svg
   xmlns:dc="http://purl.org/dc/elements/1.1/"
   xmlns:cc="http://creativecommons.org/ns#"
   xmlns:rdf="http://www.w3.org/1999/02/22-rdf-syntax-ns#"
   xmlns:svg="http://www.w3.org/2000/svg"
   xmlns="http://www.w3.org/2000/svg"
   xmlns:xlink="http://www.w3.org/1999/xlink"
   xmlns:sodipodi="http://sodipodi.sourceforge.net/DTD/sodipodi-0.dtd"
   xmlns:inkscape="http://www.inkscape.org/namespaces/inkscape"
   width="48"
   height="48"
   id="svg6654"
   version="1.1"
   inkscape:version="0.48+devel r12913"
   sodipodi:docname="application-x-ruby.svg">
  <defs
     id="defs6656">
    <linearGradient
       id="linearGradient4229">
      <stop
         style="stop-color:#f5c3c3;stop-opacity:1"
         offset="0"
         id="stop4231" />
      <stop
         style="stop-color:#fef6f6;stop-opacity:1"
         offset="1"
         id="stop4233" />
    </linearGradient>
    <linearGradient
       inkscape:collect="always"
       id="linearGradient4788">
      <stop
         style="stop-color:#000000;stop-opacity:1"
         offset="0"
         id="stop4790" />
      <stop
         style="stop-color:#000000;stop-opacity:0"
         offset="1"
         id="stop4792" />
    </linearGradient>
    <linearGradient
       inkscape:collect="always"
       id="linearGradient4433">
      <stop
         style="stop-color:#2b3141;stop-opacity:1"
         offset="0"
         id="stop4435" />
      <stop
         style="stop-color:#394056;stop-opacity:1"
         offset="1"
         id="stop4437" />
    </linearGradient>
    <linearGradient
       y2="-1001.0899"
       x2="92.14286"
       y1="-1049.092"
       x1="92.14286"
       gradientTransform="translate(102.53514,189.86869)"
       gradientUnits="userSpaceOnUse"
       id="linearGradient4117"
       xlink:href="#linearGradient943-2"
       inkscape:collect="always" />
    <linearGradient
       gradientTransform="translate(167.42858,811.21931)"
       inkscape:collect="always"
       xlink:href="#linearGradient4433"
       id="linearGradient4439"
       x1="42.956738"
       y1="48.000004"
       x2="42.956738"
       y2="33.999271"
       gradientUnits="userSpaceOnUse" />
    <linearGradient
       inkscape:collect="always"
       xlink:href="#linearGradient4788"
       id="linearGradient4786"
       gradientUnits="userSpaceOnUse"
       x1="458.57144"
       y1="871.36139"
       x2="472.50894"
       y2="862.36139"
       gradientTransform="matrix(-1,0,0,-1,660.00002,1721.5807)" />
    <linearGradient
       gradientTransform="translate(-257.14286,-17.142873)"
       inkscape:collect="always"
       xlink:href="#linearGradient4273"
       id="linearGradient4219"
       x1="465.57108"
       y1="869.36218"
       x2="458.57144"
       y2="862.36255"
       gradientUnits="userSpaceOnUse" />
    <linearGradient
       id="linearGradient4273">
      <stop
         style="stop-color:#e14b4b;stop-opacity:1"
         offset="0"
         id="stop4275" />
      <stop
         style="stop-color:#f19fa0;stop-opacity:1"
         offset="1"
         id="stop4277" />
    </linearGradient>
    <linearGradient
       id="linearGradient943-2">
      <stop
         id="stop945-8"
         offset="0"
         style="stop-color:#db2425;stop-opacity:1" />
      <stop
         id="stop947-0"
         offset="1"
         style="stop-color:#e53b3c;stop-opacity:1" />
    </linearGradient>
    <linearGradient
       inkscape:collect="always"
       xlink:href="#linearGradient4229"
       id="linearGradient4209"
       gradientUnits="userSpaceOnUse"
       x1="-89.417305"
       y1="136.83908"
       x2="-89.417305"
       y2="6.7100139"
       gradientTransform="matrix(0.22216682,0,0,0.23054035,44.70205,7.45307)" />
  </defs>
  <sodipodi:namedview
     id="base"
     pagecolor="#ffffff"
     bordercolor="#666666"
     borderopacity="1.0"
     inkscape:pageopacity="0.0"
     inkscape:pageshadow="2"
     inkscape:zoom="2.0031009"
     inkscape:cx="27.375308"
     inkscape:cy="16.335866"
     inkscape:document-units="px"
     inkscape:current-layer="layer1"
     showgrid="false"
     fit-margin-top="0"
     fit-margin-left="0"
     fit-margin-right="0"
     fit-margin-bottom="0"
     inkscape:window-width="1366"
     inkscape:window-height="671"
     inkscape:window-x="0"
     inkscape:window-y="24"
     inkscape:window-maximized="1">
    <sodipodi:guide
       position="3.6083984e-06,6.8359373e-07"
       orientation="-48,0"
       id="guide4181" />
    <sodipodi:guide
       position="3.6083984e-06,48.000001"
       orientation="0,48"
       id="guide4183" />
    <sodipodi:guide
       position="48.000004,48.000001"
       orientation="48,0"
       id="guide4185" />
    <sodipodi:guide
       position="48.000004,6.8359373e-07"
       orientation="0,-48"
       id="guide4187" />
    <sodipodi:guide
       position="9.0000036,9.0000007"
       orientation="-30,0"
       id="guide4193" />
    <sodipodi:guide
       position="9.0000036,39.000001"
       orientation="0,30"
       id="guide4195" />
    <sodipodi:guide
       position="39.000004,39.000001"
       orientation="30,0"
       id="guide4197" />
    <sodipodi:guide
       position="39.000004,9.0000007"
       orientation="0,-30"
       id="guide4199" />
  </sodipodi:namedview>
  <metadata
     id="metadata6659">
    <rdf:RDF>
      <cc:Work
         rdf:about="">
        <dc:format>image/svg+xml</dc:format>
        <dc:type
           rdf:resource="http://purl.org/dc/dcmitype/StillImage" />
        <dc:title />
      </cc:Work>
    </rdf:RDF>
  </metadata>
  <g
     inkscape:label="Capa 1"
     inkscape:groupmode="layer"
     id="layer1"
     transform="translate(-167.42857,-811.2193)">
    <rect
       style="fill:url(#linearGradient4117);fill-opacity:1;stroke:none"
       id="rect2991-1-7-3"
       width="48"
       height="48"
       x="167.42857"
       y="-859.2193"
       ry="1.9445436"
       transform="scale(1,-1)" />
    <path
       id="path4241"
       d="m 195.24302,821.41939 -1.9082,4.74414 2.49805,0.26367 -0.58985,-5.00781 z m 11.18555,2.96094 -4.27148,2.60351 1.84375,1.76563 2.42773,-4.36914 z m -23.37891,2.64062 2.22266,4.42774 1.85352,-1.70118 -4.07618,-2.72656 z m 15.32813,1.95117 -4.08985,0.0508 1.99219,1.36132 2.09766,-1.41211 z m 1.71484,0.0859 -2.35351,1.39063 4.36718,0.25195 -2.01367,-1.64258 z m -7.2832,1.77149 c -0.58155,0.0343 -1.27798,0.24147 -2.05469,0.64257 -2.48548,1.28352 -4.82587,4.04362 -5.22851,6.16016 -0.40263,2.11654 1.28405,2.78743 3.76953,1.50391 2.48547,-1.28352 4.82587,-4.03581 5.22851,-6.15235 0.27681,-1.45512 -0.43542,-2.22978 -1.71484,-2.15429 z m 3.66601,0.36914 -1.34765,3.60937 5.83984,-0.0879 -4.49219,-3.52148 z m 1.43555,0.0937 4.27735,3.48632 0.0625,-3.09765 -4.33985,-0.38867 z m 4.00781,4.24218 -5.83203,0.0937 4.23438,2.96875 1.59765,-3.0625 z m -7.0957,0.32422 c -3.95852,4.00623 -4.74773,5.48053 -9.51172,5.84961 -0.86962,-0.19825 -0.94463,-1.92791 -1.34765,-3.02539 l -0.0547,6.98828 c 0.0784,0.46263 0.64879,1.83839 2.55469,2.21094 4.82989,0.17409 9.80558,-0.26629 14.78125,-0.69727 0.56062,-3.22159 0.52741,-6.54856 0.67382,-9.84179 -2.14477,3.45455 -4.55103,5.87394 -7.06836,7.85937 l 0.61719,-0.64062 4.42969,-5.44727 -5.07422,-3.25586 z m -13.50391,2.02735 -4.89062,1.77929 4.93359,0.82422 -0.043,-2.60351 z m -0.043,9.25976 -2.58204,4.27344 4.36133,-2.43555 -1.77929,-1.83789 z"
       style="fill:#000000;fill-opacity:0.05882353;stroke:none"
       inkscape:connector-curvature="0" />
    <path
       inkscape:connector-curvature="0"
       style="fill:#000000;fill-opacity:0.11764706;stroke:none"
       d="m 195.24302,821.01939 -1.9082,4.74414 2.49805,0.26367 -0.58985,-5.00781 z m 11.18555,2.96094 -4.27148,2.60351 1.84375,1.76563 2.42773,-4.36914 z m -23.37891,2.64062 2.22266,4.42774 1.85352,-1.70118 -4.07618,-2.72656 z m 15.32813,1.95117 -4.08985,0.0508 1.99219,1.36132 2.09766,-1.41211 z m 1.71484,0.0859 -2.35351,1.39063 4.36718,0.25195 -2.01367,-1.64258 z m -7.2832,1.77149 c -0.58155,0.0343 -1.27798,0.24147 -2.05469,0.64257 -2.48548,1.28352 -4.82587,4.04362 -5.22851,6.16016 -0.40263,2.11654 1.28405,2.78743 3.76953,1.50391 2.48547,-1.28352 4.82587,-4.03581 5.22851,-6.15235 0.27681,-1.45512 -0.43542,-2.22978 -1.71484,-2.15429 z m 3.66601,0.36914 -1.34765,3.60937 5.83984,-0.0879 -4.49219,-3.52148 z m 1.43555,0.0937 4.27735,3.48632 0.0625,-3.09765 -4.33985,-0.38867 z m 4.00781,4.24218 -5.83203,0.0937 4.23438,2.96875 1.59765,-3.0625 z m -7.0957,0.32422 c -3.95852,4.00623 -4.74773,5.48053 -9.51172,5.84961 -0.86962,-0.19825 -0.94463,-1.92791 -1.34765,-3.02539 l -0.0547,6.98828 c 0.0784,0.46263 0.64879,1.83839 2.55469,2.21094 4.82989,0.17409 9.80558,-0.26629 14.78125,-0.69727 0.56062,-3.22159 0.52741,-6.54856 0.67382,-9.84179 -2.14477,3.45455 -4.55103,5.87394 -7.06836,7.85937 l 0.61719,-0.64062 4.42969,-5.44727 -5.07422,-3.25586 z m -13.50391,2.02735 -4.89062,1.77929 4.93359,0.82422 -0.043,-2.60351 z m -0.043,9.25976 -2.58204,4.27344 4.36133,-2.43555 -1.77929,-1.83789 z"
       id="path4239" />
    <path
       id="path4235"
       d="m 195.24302,820.61939 -1.9082,4.74414 2.49805,0.26367 -0.58985,-5.00781 z m 11.18555,2.96094 -4.27148,2.60351 1.84375,1.76563 2.42773,-4.36914 z m -23.37891,2.64062 2.22266,4.42774 1.85352,-1.70118 -4.07618,-2.72656 z m 15.32813,1.95117 -4.08985,0.0508 1.99219,1.36132 2.09766,-1.41211 z m 1.71484,0.0859 -2.35351,1.39063 4.36718,0.25195 -2.01367,-1.64258 z m -7.2832,1.77149 c -0.58155,0.0343 -1.27798,0.24147 -2.05469,0.64257 -2.48548,1.28352 -4.82587,4.04362 -5.22851,6.16016 -0.40263,2.11654 1.28405,2.78743 3.76953,1.50391 2.48547,-1.28352 4.82587,-4.03581 5.22851,-6.15235 0.27681,-1.45512 -0.43542,-2.22978 -1.71484,-2.15429 z m 3.66601,0.36914 -1.34765,3.60937 5.83984,-0.0879 -4.49219,-3.52148 z m 1.43555,0.0937 4.27735,3.48632 0.0625,-3.09765 -4.33985,-0.38867 z m 4.00781,4.24218 -5.83203,0.0937 4.23438,2.96875 1.59765,-3.0625 z m -7.0957,0.32422 c -3.95852,4.00623 -4.74773,5.48053 -9.51172,5.84961 -0.86962,-0.19825 -0.94463,-1.92791 -1.34765,-3.02539 l -0.0547,6.98828 c 0.0784,0.46263 0.64879,1.83839 2.55469,2.21094 4.82989,0.17409 9.80558,-0.26629 14.78125,-0.69727 0.56062,-3.22159 0.52741,-6.54856 0.67382,-9.84179 -2.14477,3.45455 -4.55103,5.87394 -7.06836,7.85937 l 0.61719,-0.64062 4.42969,-5.44727 -5.07422,-3.25586 z m -13.50391,2.02735 -4.89062,1.77929 4.93359,0.82422 -0.043,-2.60351 z m -0.043,9.25976 -2.58204,4.27344 4.36133,-2.43555 -1.77929,-1.83789 z"
       style="fill:#000000;fill-opacity:0.23529412;stroke:none"
       inkscape:connector-curvature="0" />
    <path
       inkscape:connector-curvature="0"
       style="fill:#ffffff;fill-opacity:0.5372549;stroke:none"
       d="m 169.95981,811.87561 c -0.91709,0 -1.67115,0.6395 -1.84375,1.5 0.33561,-0.2799 0.77451,-0.4375 1.25,-0.4375 l 44.125,0 c 0.47549,0 0.91439,0.1576 1.25,0.4375 -0.1726,-0.8605 -0.92666,-1.5 -1.84375,-1.5 l -42.9375,0 z"
       id="path7515-3" />
    <path
       style="fill:url(#linearGradient4209);fill-opacity:1;stroke:none"
       d="M 27.814453 9 L 25.90625 13.744141 L 28.404297 14.007812 L 27.814453 9 z M 39 11.960938 L 34.728516 14.564453 L 36.572266 16.330078 L 39 11.960938 z M 15.621094 14.601562 L 17.84375 19.029297 L 19.697266 17.328125 L 15.621094 14.601562 z M 30.949219 16.552734 L 26.859375 16.603516 L 28.851562 17.964844 L 30.949219 16.552734 z M 32.664062 16.638672 L 30.310547 18.029297 L 34.677734 18.28125 L 32.664062 16.638672 z M 25.380859 18.410156 C 24.799309 18.444456 24.102882 18.651634 23.326172 19.052734 C 20.840692 20.336254 18.500296 23.096351 18.097656 25.212891 C 17.695026 27.329431 19.381708 28.000317 21.867188 26.716797 C 24.352657 25.433277 26.693063 22.680993 27.095703 20.564453 C 27.372513 19.109333 26.660279 18.334666 25.380859 18.410156 z M 29.046875 18.779297 L 27.699219 22.388672 L 33.539062 22.300781 L 29.046875 18.779297 z M 30.482422 18.873047 L 34.759766 22.359375 L 34.822266 19.261719 L 30.482422 18.873047 z M 34.490234 23.115234 L 28.658203 23.208984 L 32.892578 26.177734 L 34.490234 23.115234 z M 27.394531 23.439453 C 23.436011 27.445683 22.646802 28.919982 17.882812 29.289062 C 17.013193 29.090812 16.938176 27.361152 16.535156 26.263672 L 16.480469 33.251953 C 16.558869 33.714583 17.129256 35.090341 19.035156 35.462891 C 23.865046 35.636981 28.840736 35.196605 33.816406 34.765625 C 34.377026 31.544025 34.343824 28.217058 34.490234 24.923828 C 32.345464 28.378378 29.939205 30.797773 27.421875 32.783203 L 28.039062 32.142578 L 32.46875 26.695312 L 27.394531 23.439453 z M 13.890625 25.466797 L 9 27.246094 L 13.933594 28.070312 L 13.890625 25.466797 z M 13.847656 34.726562 L 11.265625 39 L 15.626953 36.564453 L 13.847656 34.726562 z "
       transform="translate(167.42857,811.2193)"
       id="path1098" />
    <g
       style="font-size:10px;font-style:normal;font-variant:normal;font-weight:normal;font-stretch:normal;line-height:125%;letter-spacing:0px;word-spacing:0px;fill:#000000;fill-opacity:1;stroke:none;font-family:Decker;-inkscape-font-specification:Decker"
       id="text6661"
       transform="translate(-225.20827,203.81437)" />
    <path
       style="fill:#dd2728;fill-opacity:0.3137255;stroke:none"
       d="M 39 11.960938 L 38.328125 12.371094 L 36.572266 15.529297 L 35.240234 14.253906 L 34.728516 14.564453 L 36.572266 16.330078 L 39 11.960938 z M 26.214844 12.976562 L 25.90625 13.744141 L 28.404297 14.007812 L 28.308594 13.197266 L 26.214844 12.976562 z M 15.621094 14.601562 L 17.84375 19.029297 L 19.697266 17.328125 L 19.193359 16.990234 L 17.84375 18.228516 L 16.226562 15.005859 L 15.621094 14.601562 z M 30.949219 16.552734 L 29.738281 16.568359 L 28.851562 17.164062 L 28.009766 16.589844 L 26.859375 16.603516 L 28.851562 17.964844 L 30.949219 16.552734 z M 31.544922 17.298828 L 30.310547 18.029297 L 34.677734 18.28125 L 33.621094 17.419922 L 31.544922 17.298828 z M 30.482422 18.873047 L 34.759766 22.359375 L 34.822266 19.261719 L 34.806641 19.259766 L 34.759766 21.558594 L 31.585938 18.972656 L 30.482422 18.873047 z M 27.117188 19.576172 C 27.108618 19.639948 27.108382 19.697025 27.095703 19.763672 C 26.693063 21.880212 24.352657 24.632496 21.867188 25.916016 C 19.837945 26.963931 18.344042 26.708455 18.082031 25.427734 C 17.841713 27.362009 19.473805 27.952757 21.867188 26.716797 C 24.352657 25.433277 26.693063 22.680993 27.095703 20.564453 C 27.167382 20.187656 27.17082 19.85877 27.117188 19.576172 z M 32.537109 21.515625 L 28 21.583984 L 27.699219 22.388672 L 33.539062 22.300781 L 32.537109 21.515625 z M 34.490234 23.115234 L 34.068359 23.121094 L 32.892578 25.376953 L 29.775391 23.191406 L 28.658203 23.208984 L 32.892578 26.177734 L 34.490234 23.115234 z M 34.490234 24.923828 C 34.480107 24.94014 34.469123 24.954438 34.458984 24.970703 C 34.348055 27.986264 34.329017 31.019128 33.816406 33.964844 C 28.840736 34.395824 23.865046 34.836199 19.035156 34.662109 C 17.146396 34.29291 16.57286 32.943342 16.486328 32.46875 L 16.480469 33.251953 C 16.558869 33.714583 17.129256 35.090341 19.035156 35.462891 C 23.865046 35.636981 28.840736 35.196605 33.816406 34.765625 C 34.377026 31.544025 34.343824 28.217058 34.490234 24.923828 z M 32.041016 26.419922 L 28.039062 31.341797 L 27.421875 31.982422 C 28.304798 31.286057 29.172379 30.532199 30.021484 29.703125 L 32.46875 26.695312 L 32.041016 26.419922 z M 10.507812 26.697266 L 9 27.246094 L 13.933594 28.070312 L 13.919922 27.267578 L 10.507812 26.697266 z M 15.123047 36.044922 L 11.996094 37.791016 L 11.265625 39 L 15.626953 36.564453 L 15.123047 36.044922 z "
       transform="translate(167.42857,811.2193)"
       id="path4243" />
    <path
       style="fill:#ffffff;fill-opacity:0.23529412;stroke:none"
       d="M 27.814453 9 L 25.90625 13.744141 L 26.060547 13.759766 L 27.814453 9.4003906 L 28.357422 14.001953 L 28.404297 14.007812 L 27.814453 9 z M 39 11.960938 L 34.728516 14.564453 L 34.984375 14.808594 L 38.664062 12.566406 L 39 11.960938 z M 15.621094 14.601562 L 15.923828 15.205078 L 19.445312 17.560547 L 19.697266 17.328125 L 15.621094 14.601562 z M 30.949219 16.552734 L 26.859375 16.603516 L 27.435547 16.996094 L 30.34375 16.960938 L 30.949219 16.552734 z M 32.664062 16.638672 L 30.310547 18.029297 L 30.927734 18.064453 L 32.664062 17.039062 L 34.150391 18.25 L 34.677734 18.28125 L 32.664062 16.638672 z M 25.380859 18.410156 C 24.799309 18.444456 24.102882 18.651634 23.326172 19.052734 C 20.840692 20.336254 18.500296 23.096351 18.097656 25.212891 C 18.035456 25.539866 18.029732 25.827888 18.0625 26.083984 C 18.068334 25.931466 18.064965 25.785133 18.097656 25.613281 C 18.500296 23.496741 20.840692 20.736645 23.326172 19.453125 C 24.102882 19.052025 24.799309 18.844847 25.380859 18.810547 C 26.409541 18.749851 27.06062 19.246998 27.136719 20.197266 C 27.23095 18.984074 26.545989 18.34141 25.380859 18.410156 z M 29.046875 18.779297 L 27.699219 22.388672 L 27.849609 22.386719 L 29.046875 19.179688 L 33.037109 22.308594 L 33.539062 22.300781 L 29.046875 18.779297 z M 30.482422 18.873047 L 31.035156 19.322266 L 34.814453 19.662109 L 34.822266 19.261719 L 30.482422 18.873047 z M 34.490234 23.115234 L 28.658203 23.208984 L 29.216797 23.599609 L 34.279297 23.519531 L 34.490234 23.115234 z M 27.394531 23.439453 C 23.436011 27.445683 22.646803 28.919982 17.882812 29.289062 C 17.013193 29.090812 16.938176 27.361152 16.535156 26.263672 L 16.480469 33.251953 C 16.480868 33.254311 16.48395 33.259314 16.484375 33.261719 L 16.535156 26.664062 C 16.938176 27.761543 17.013193 29.491203 17.882812 29.689453 C 22.646803 29.320373 23.436011 27.846074 27.394531 23.839844 L 32.253906 26.958984 L 32.46875 26.695312 L 27.394531 23.439453 z M 34.490234 24.923828 C 32.735144 27.750727 30.800214 29.864783 28.777344 31.634766 L 28.039062 32.542969 L 27.421875 33.183594 C 29.933262 31.202851 32.333672 28.789178 34.474609 25.347656 C 34.480282 25.206478 34.483963 25.064893 34.490234 24.923828 z M 13.890625 25.466797 L 9 27.246094 L 9.7539062 27.373047 L 13.890625 25.867188 L 13.927734 28.068359 L 13.933594 28.070312 L 13.890625 25.466797 z M 13.847656 34.726562 L 11.265625 39 L 11.630859 38.796875 L 13.847656 35.126953 L 15.375 36.705078 L 15.626953 36.564453 L 13.847656 34.726562 z "
       transform="translate(167.42857,811.2193)"
       id="path4248" />
    <path
       style="fill:url(#linearGradient4219);fill-opacity:1;stroke:none"
       d="m 201.42858,845.21861 0,14.0007 14,-14 z"
       id="path4130"
       inkscape:connector-curvature="0" />
    <path
       inkscape:connector-curvature="0"
       style="fill:url(#linearGradient4439);fill-opacity:1;stroke:none"
       d="m 215.42858,845.21931 -14,14 12.05469,0 c 1.07727,0 1.94531,-0.868 1.94531,-1.9453 l 0,-12.0547 z"
       id="path4303" />
    <path
       inkscape:connector-curvature="0"
       id="path4784"
       d="m 201.42858,859.21931 0,-14.0007 -14,14 z"
       style="opacity:0.1;fill:url(#linearGradient4786);fill-opacity:1;stroke:none" />
    <path
       inkscape:connector-curvature="0"
       style="fill:#000000;fill-opacity:1;stroke:none"
       d="m 167.42856,856.21931 0,1.0625 c 0,1.0773 0.86022,1.9375 1.9375,1.9375 l 44.125,0 c 1.07728,0 1.9375,-0.8602 1.9375,-1.9375 l 0,-1.0625 c 0,1.0773 -0.86022,1.9375 -1.9375,1.9375 l -44.125,0 c -1.07728,0 -1.9375,-0.8602 -1.9375,-1.9375 z"
       id="rect846-0-2" />
    <path
       inkscape:connector-curvature="0"
       style="fill:#000000;fill-opacity:0.39215686;stroke:none"
       d="m 169.36606,811.21931 c -1.07728,0 -1.9375,0.8602 -1.9375,1.9375 l 0,43.0625 c 0,0.7934 0.48002,1.449 1.15625,1.75 -0.30934,-0.3333 -0.5,-0.7824 -0.5,-1.2812 l 0,-42.9375 c 0,-1.0482 0.8269,-1.875 1.875,-1.875 l 42.9375,0 c 1.0481,0 1.875,0.8268 1.875,1.875 l 0,42.9375 c 0,0.4988 -0.19066,0.9479 -0.5,1.2812 0.67623,-0.301 1.15625,-0.9566 1.15625,-1.75 l 0,-43.0625 c 0,-1.0773 -0.86022,-1.9375 -1.9375,-1.9375 l -44.125,0 z"
       id="rect4280-1" />
  </g>
</svg>
