<?xml version="1.0" encoding="UTF-8" standalone="no"?>
<!-- Created with Inkscape (http://www.inkscape.org/) -->

<svg
   xmlns:dc="http://purl.org/dc/elements/1.1/"
   xmlns:cc="http://creativecommons.org/ns#"
   xmlns:rdf="http://www.w3.org/1999/02/22-rdf-syntax-ns#"
   xmlns:svg="http://www.w3.org/2000/svg"
   xmlns="http://www.w3.org/2000/svg"
   xmlns:xlink="http://www.w3.org/1999/xlink"
   xmlns:sodipodi="http://sodipodi.sourceforge.net/DTD/sodipodi-0.dtd"
   xmlns:inkscape="http://www.inkscape.org/namespaces/inkscape"
   width="48"
   height="48"
   id="svg6391"
   version="1.1"
   inkscape:version="0.48+devel r12910"
   sodipodi:docname="application-x-core.svg">
  <defs
     id="defs6393">
    <linearGradient
       inkscape:collect="always"
       id="linearGradient4509">
      <stop
         style="stop-color:#dadcde;stop-opacity:1"
         offset="0"
         id="stop4511" />
      <stop
         style="stop-color:#fafafa;stop-opacity:1"
         offset="1"
         id="stop4513" />
    </linearGradient>
    <linearGradient
       inkscape:collect="always"
       id="linearGradient4503">
      <stop
         style="stop-color:#90959c;stop-opacity:1"
         offset="0"
         id="stop4505" />
      <stop
         style="stop-color:#c4c8cc;stop-opacity:1"
         offset="1"
         id="stop4507" />
    </linearGradient>
    <linearGradient
       id="linearGradient4461"
       inkscape:collect="always">
      <stop
         id="stop4463"
         offset="0"
         style="stop-color:#45484d;stop-opacity:1" />
      <stop
         id="stop4465"
         offset="1"
         style="stop-color:#5e656b;stop-opacity:1" />
    </linearGradient>
    <linearGradient
       id="linearGradient4788-0"
       inkscape:collect="always">
      <stop
         id="stop4790-5"
         offset="0"
         style="stop-color:#000000;stop-opacity:1" />
      <stop
         id="stop4792-9"
         offset="1"
         style="stop-color:#000000;stop-opacity:0" />
    </linearGradient>
    <linearGradient
       id="linearGradient4433-1"
       inkscape:collect="always">
      <stop
         id="stop4435-3"
         offset="0"
         style="stop-color:#2b3141;stop-opacity:1" />
      <stop
         id="stop4437-1"
         offset="1"
         style="stop-color:#394056;stop-opacity:1" />
    </linearGradient>
    <linearGradient
       inkscape:collect="always"
       xlink:href="#linearGradient4461"
       id="linearGradient4117-99"
       gradientUnits="userSpaceOnUse"
       gradientTransform="translate(416.82086,469.8687)"
       x1="92.14286"
       y1="-1049.092"
       x2="92.14286"
       y2="-1001.0899" />
    <linearGradient
       gradientUnits="userSpaceOnUse"
       y2="33.999271"
       x2="42.956738"
       y1="48.000004"
       x1="42.956738"
       id="linearGradient4439-9"
       xlink:href="#linearGradient4433-1"
       inkscape:collect="always"
       gradientTransform="translate(481.7143,531.21931)" />
    <linearGradient
       gradientTransform="matrix(-1,0,0,-1,974.28574,1441.5807)"
       y2="862.36139"
       x2="472.50894"
       y1="871.36139"
       x1="458.57144"
       gradientUnits="userSpaceOnUse"
       id="linearGradient4786-8"
       xlink:href="#linearGradient4788-0"
       inkscape:collect="always" />
    <linearGradient
       gradientUnits="userSpaceOnUse"
       y2="862.36255"
       x2="458.57144"
       y1="869.36218"
       x1="465.57108"
       id="linearGradient4219-1"
       xlink:href="#linearGradient4503"
       inkscape:collect="always"
       gradientTransform="translate(57.14286,-297.14288)" />
    <style
       type="text/css"
       id="style1115"><![CDATA[ .fil0 {fill:#1F1A17} ]]></style>
    <style
       type="text/css"
       id="style1246"><![CDATA[ .fil0 {fill:#1F1A17} ]]></style>
    <linearGradient
       gradientUnits="userSpaceOnUse"
       y2="8.999999"
       x2="23.338814"
       y1="39"
       x1="23.338814"
       id="linearGradient4273"
       xlink:href="#linearGradient4509"
       inkscape:collect="always"
       gradientTransform="translate(481.71429,531.2193)" />
  </defs>
  <sodipodi:namedview
     id="base"
     pagecolor="#ffffff"
     bordercolor="#666666"
     borderopacity="1.0"
     inkscape:pageopacity="0.0"
     inkscape:pageshadow="2"
     inkscape:zoom="4.0062019"
     inkscape:cx="-51.300572"
     inkscape:cy="29.293046"
     inkscape:document-units="px"
     inkscape:current-layer="layer1"
     showgrid="false"
     fit-margin-top="0"
     fit-margin-left="0"
     fit-margin-right="0"
     fit-margin-bottom="0"
     inkscape:window-width="1366"
     inkscape:window-height="671"
     inkscape:window-x="0"
     inkscape:window-y="24"
     inkscape:window-maximized="1" />
  <metadata
     id="metadata6396">
    <rdf:RDF>
      <cc:Work
         rdf:about="">
        <dc:format>image/svg+xml</dc:format>
        <dc:type
           rdf:resource="http://purl.org/dc/dcmitype/StillImage" />
        <dc:title />
      </cc:Work>
    </rdf:RDF>
  </metadata>
  <g
     inkscape:label="Capa 1"
     inkscape:groupmode="layer"
     id="layer1"
     transform="translate(-481.71429,-531.2193)">
    <g
       style="font-size:7.5px;font-style:normal;font-variant:normal;font-weight:bold;font-stretch:normal;line-height:125%;letter-spacing:0px;word-spacing:0px;fill:#ffffff;fill-opacity:1;stroke:none;font-family:Impact;-inkscape-font-specification:Impact Bold"
       id="text853" />
    <g
       style="font-size:10px;font-style:normal;font-variant:normal;font-weight:normal;font-stretch:normal;line-height:125%;letter-spacing:0px;word-spacing:0px;fill:#000000;fill-opacity:1;stroke:none;font-family:Decker;-inkscape-font-specification:Decker"
       id="text6661"
       transform="translate(-40.000002,-74.285768)" />
    <rect
       style="fill:url(#linearGradient4117-99);fill-opacity:1.0;stroke:none"
       id="rect2991-1-7-3-2"
       width="48"
       height="48"
       x="481.71429"
       y="-579.2193"
       ry="1.9445436"
       transform="scale(1,-1)" />
    <path
       id="path4287"
       d="m 505.71429,541.4193 c -8.31,0 -15,6.69 -15,15 0,8.31 6.69,15 15,15 8.31,0 15,-6.69 15,-15 0,-8.31 -6.69,-15 -15,-15 z m 0,3 c 6.648,0 12,5.352 12,12 0,6.648 -5.352,12 -12,12 -6.648,0 -12,-5.352 -12,-12 0,-6.648 5.352,-12 12,-12 z m -3.5,3 0,9 -5,0 4.25,4.5 4.25,4.5 4.25,-4.5 4.25,-4.5 -5,0 0,-9 -7,0 z"
       style="fill:#000000;fill-opacity:0.05882353;stroke:none"
       inkscape:connector-curvature="0" />
    <path
       inkscape:connector-curvature="0"
       style="fill:#000000;fill-opacity:0.11764706;stroke:none"
       d="m 505.71429,541.0193 c -8.31,0 -15,6.69 -15,15 0,8.31 6.69,15 15,15 8.31,0 15,-6.69 15,-15 0,-8.31 -6.69,-15 -15,-15 z m 0,3 c 6.648,0 12,5.352 12,12 0,6.648 -5.352,12 -12,12 -6.648,0 -12,-5.352 -12,-12 0,-6.648 5.352,-12 12,-12 z m -3.5,3 0,9 -5,0 4.25,4.5 4.25,4.5 4.25,-4.5 4.25,-4.5 -5,0 0,-9 -7,0 z"
       id="path4285" />
    <path
       id="path4281"
       d="m 505.71429,540.6193 c -8.31,0 -15,6.69 -15,15 0,8.31 6.69,15 15,15 8.31,0 15,-6.69 15,-15 0,-8.31 -6.69,-15 -15,-15 z m 0,3 c 6.648,0 12,5.352 12,12 0,6.648 -5.352,12 -12,12 -6.648,0 -12,-5.352 -12,-12 0,-6.648 5.352,-12 12,-12 z m -3.5,3 0,9 -5,0 4.25,4.5 4.25,4.5 4.25,-4.5 4.25,-4.5 -5,0 0,-9 -7,0 z"
       style="fill:#000000;fill-opacity:0.23529412;stroke:none"
       inkscape:connector-curvature="0" />
    <path
       inkscape:connector-curvature="0"
       style="fill:url(#linearGradient4273);fill-opacity:1.0;stroke:none"
       d="m 505.71429,540.2193 c -8.31,0 -15,6.69 -15,15 0,8.31 6.69,15 15,15 8.31,0 15,-6.69 15,-15 0,-8.31 -6.69,-15 -15,-15 z m 0,3 c 6.648,0 12,5.352 12,12 0,6.648 -5.352,12 -12,12 -6.648,0 -12,-5.352 -12,-12 0,-6.648 5.352,-12 12,-12 z m -3.5,3 0,9 -5,0 4.25,4.5 4.25,4.5 4.25,-4.5 4.25,-4.5 -5,0 0,-9 -7,0 z"
       id="rect4243" />
    <path
       inkscape:connector-curvature="0"
       style="fill:#ffffff;fill-opacity:0.5372549;stroke:none"
       d="m 484.24553,531.87561 c -0.91709,0 -1.67115,0.6395 -1.84375,1.5 0.33561,-0.2799 0.77451,-0.4375 1.25,-0.4375 l 44.125,0 c 0.47549,0 0.91439,0.1576 1.25,0.4375 -0.1726,-0.8605 -0.92666,-1.5 -1.84375,-1.5 l -42.9375,0 z"
       id="path7515-3-1" />
    <path
       inkscape:connector-curvature="0"
       style="fill:#4c5055;fill-opacity:0.3137255;stroke:none"
       d="m 505.71429,542.41852 c -6.648,0 -12,5.352 -12,12 0,0.13519 0.0151,0.26631 0.0195,0.40039 0.2116,-6.45953 5.46766,-11.59961 11.98047,-11.59961 6.51281,0 11.76887,5.14008 11.98047,11.59961 0.004,-0.13408 0.0195,-0.2652 0.0195,-0.40039 0,-6.648 -5.352,-12 -12,-12 z m -14.98047,12.40039 c -0.004,0.13439 -0.0195,0.26512 -0.0195,0.40039 0,8.31 6.69,15 15,15 8.31,0 15,-6.69 15,-15 0,-0.13527 -0.016,-0.266 -0.0195,-0.40039 -0.21268,8.12176 -6.80557,14.59961 -14.98047,14.59961 -8.1749,0 -14.76779,-6.47785 -14.98047,-14.59961 z m 6.48047,0.40039 4.25,4.5 4.25,4.5 4.25,-4.5 4.25,-4.5 -0.75586,0 -3.49414,3.69922 -4.25,4.5 -4.25,-4.5 -3.49414,-3.69922 -0.75586,0 z"
       id="path4100" />
    <path
       inkscape:connector-curvature="0"
       style="fill:#ffffff;fill-opacity:0.23529412;stroke:none"
       d="m 505.71429,540.2193 c -8.31,0 -15,6.69 -15,15 0,0.0673 0.009,0.13213 0.01,0.19922 0.10806,-8.21554 6.74811,-14.79883 14.99023,-14.79883 8.24212,0 14.88217,6.58329 14.99023,14.79883 8.8e-4,-0.0671 0.01,-0.13191 0.01,-0.19922 0,-8.31 -6.69,-15 -15,-15 z m -3.5,6 0,0.40039 7,0 0,-0.40039 -7,0 z m -5,9 0.37891,0.40039 4.62109,0 0,-0.40039 -5,0 z m 12,0 0,0.40039 4.62109,0 0.37891,-0.40039 -5,0 z m -15.49023,0.19922 c -0.001,0.0677 -0.01,0.13325 -0.01,0.20117 0,6.648 5.352,12 12,12 6.648,0 12,-5.352 12,-12 0,-0.0679 -0.009,-0.13352 -0.01,-0.20117 -0.10676,6.55436 -5.40947,11.80078 -11.9902,11.80078 -6.58074,0 -11.88344,-5.24642 -11.99023,-11.80078 z"
       id="path4105" />
    <path
       style="fill:url(#linearGradient4219-1);fill-opacity:1.0;stroke:none"
       d="m 515.7143,565.21861 0,14.0007 14,-14 z"
       id="path4130-6"
       inkscape:connector-curvature="0" />
    <path
       inkscape:connector-curvature="0"
       style="fill:url(#linearGradient4439-9);fill-opacity:1;stroke:none"
       d="m 529.7143,565.21931 -14,14 12.05469,0 c 1.07728,0 1.94531,-0.868 1.94531,-1.9453 l 0,-12.0547 z"
       id="path4303-7" />
    <path
       inkscape:connector-curvature="0"
       id="path4784-3"
       d="m 515.7143,579.21931 0,-14.0007 -14,14 z"
       style="opacity:0.1;fill:url(#linearGradient4786-8);fill-opacity:1;stroke:none" />
    <path
       inkscape:connector-curvature="0"
       style="fill:#000000;fill-opacity:1;stroke:none"
       d="m 481.71428,576.21931 0,1.0625 c 0,1.0773 0.86022,1.9375 1.9375,1.9375 l 44.125,0 c 1.07728,0 1.9375,-0.8602 1.9375,-1.9375 l 0,-1.0625 c 0,1.0773 -0.86022,1.9375 -1.9375,1.9375 l -44.125,0 c -1.07728,0 -1.9375,-0.8602 -1.9375,-1.9375 z"
       id="rect846-0-3" />
    <path
       inkscape:connector-curvature="0"
       style="fill:#000000;fill-opacity:0.39215686;stroke:none"
       d="m 483.65178,531.21931 c -1.07728,0 -1.9375,0.8602 -1.9375,1.9375 l 0,43.0625 c 0,0.7934 0.48002,1.449 1.15625,1.75 -0.30934,-0.3333 -0.5,-0.7824 -0.5,-1.2812 l 0,-42.9375 c 0,-1.0482 0.8269,-1.875 1.875,-1.875 l 42.9375,0 c 1.0481,0 1.875,0.8268 1.875,1.875 l 0,42.9375 c 0,0.4988 -0.19066,0.9479 -0.5,1.2812 0.67623,-0.301 1.15625,-0.9566 1.15625,-1.75 l 0,-43.0625 c 0,-1.0773 -0.86022,-1.9375 -1.9375,-1.9375 l -44.125,0 z"
       id="rect4280-1-7" />
  </g>
</svg>
