<?xml version="1.0" encoding="UTF-8" standalone="no"?>
<!-- Created with Inkscape (http://www.inkscape.org/) -->

<svg
   xmlns:dc="http://purl.org/dc/elements/1.1/"
   xmlns:cc="http://creativecommons.org/ns#"
   xmlns:rdf="http://www.w3.org/1999/02/22-rdf-syntax-ns#"
   xmlns:svg="http://www.w3.org/2000/svg"
   xmlns="http://www.w3.org/2000/svg"
   xmlns:xlink="http://www.w3.org/1999/xlink"
   xmlns:sodipodi="http://sodipodi.sourceforge.net/DTD/sodipodi-0.dtd"
   xmlns:inkscape="http://www.inkscape.org/namespaces/inkscape"
   width="48"
   height="48"
   id="svg6388"
   version="1.1"
   inkscape:version="0.48+devel r12913"
   sodipodi:docname="gnome-mime-text-x-readme.svg">
  <defs
     id="defs6390">
    <linearGradient
       id="linearGradient4236">
      <stop
         style="stop-color:#b9e7ff;stop-opacity:1"
         offset="0"
         id="stop4238" />
      <stop
         style="stop-color:#f5fcff;stop-opacity:1"
         offset="1"
         id="stop4240" />
    </linearGradient>
    <linearGradient
       id="linearGradient4788"
       inkscape:collect="always">
      <stop
         id="stop4790"
         offset="0"
         style="stop-color:#000000;stop-opacity:1" />
      <stop
         id="stop4792"
         offset="1"
         style="stop-color:#000000;stop-opacity:0" />
    </linearGradient>
    <linearGradient
       id="linearGradient4433"
       inkscape:collect="always">
      <stop
         id="stop4435"
         offset="0"
         style="stop-color:#2b3141;stop-opacity:1" />
      <stop
         id="stop4437"
         offset="1"
         style="stop-color:#394056;stop-opacity:1" />
    </linearGradient>
    <linearGradient
       inkscape:collect="always"
       xlink:href="#linearGradient943-9"
       id="linearGradient4117-4"
       gradientUnits="userSpaceOnUse"
       gradientTransform="translate(359.67801,172.72582)"
       x1="92.14286"
       y1="-1049.092"
       x2="92.14286"
       y2="-1001.0899" />
    <linearGradient
       gradientUnits="userSpaceOnUse"
       y2="33.999271"
       x2="42.956738"
       y1="48.000004"
       x1="42.956738"
       id="linearGradient4439"
       xlink:href="#linearGradient4433"
       inkscape:collect="always"
       gradientTransform="translate(424.57145,828.36218)" />
    <linearGradient
       gradientTransform="matrix(-1,0,0,-1,917.14285,1738.7236)"
       y2="862.36139"
       x2="472.50894"
       y1="871.36139"
       x1="458.57144"
       gradientUnits="userSpaceOnUse"
       id="linearGradient4786"
       xlink:href="#linearGradient4788"
       inkscape:collect="always" />
    <linearGradient
       gradientUnits="userSpaceOnUse"
       y2="862.36255"
       x2="458.57144"
       y1="869.36218"
       x1="465.57108"
       id="linearGradient4219"
       xlink:href="#linearGradient4227"
       inkscape:collect="always"
       gradientTransform="translate(1e-5,0)" />
    <linearGradient
       id="linearGradient4227">
      <stop
         style="stop-color:#2db7ff;stop-opacity:1"
         offset="0"
         id="stop4229" />
      <stop
         style="stop-color:#91ddff;stop-opacity:1"
         offset="1"
         id="stop4231" />
    </linearGradient>
    <linearGradient
       id="linearGradient943-9">
      <stop
         id="stop945-68"
         offset="0"
         style="stop-color:#00a6fc;stop-opacity:1" />
      <stop
         id="stop947-4"
         offset="1"
         style="stop-color:#68cfff;stop-opacity:1" />
    </linearGradient>
    <linearGradient
       inkscape:collect="always"
       xlink:href="#linearGradient4236"
       id="linearGradient4234"
       x1="448.65909"
       y1="867.36218"
       x2="448.65909"
       y2="837.36218"
       gradientUnits="userSpaceOnUse" />
  </defs>
  <sodipodi:namedview
     id="base"
     pagecolor="#ffffff"
     bordercolor="#666666"
     borderopacity="1.0"
     inkscape:pageopacity="0.0"
     inkscape:pageshadow="2"
     inkscape:zoom="4.0062019"
     inkscape:cx="31.346121"
     inkscape:cy="27.526332"
     inkscape:document-units="px"
     inkscape:current-layer="layer1"
     showgrid="false"
     fit-margin-top="0"
     fit-margin-left="0"
     fit-margin-right="0"
     fit-margin-bottom="0"
     inkscape:window-width="1366"
     inkscape:window-height="671"
     inkscape:window-x="0"
     inkscape:window-y="24"
     inkscape:window-maximized="1">
    <sodipodi:guide
       position="1.6503906e-06,-2.6171875e-06"
       orientation="-48,0"
       id="guide4207" />
    <sodipodi:guide
       position="1.6503906e-06,47.999997"
       orientation="0,48"
       id="guide4209" />
    <sodipodi:guide
       position="48.000002,47.999997"
       orientation="48,0"
       id="guide4211" />
    <sodipodi:guide
       position="48.000002,-2.6171875e-06"
       orientation="0,-48"
       id="guide4213" />
    <sodipodi:guide
       position="9.0000017,8.9999974"
       orientation="-30,0"
       id="guide4219" />
    <sodipodi:guide
       position="9.0000017,38.999997"
       orientation="0,30"
       id="guide4221" />
    <sodipodi:guide
       position="39.000002,38.999997"
       orientation="30,0"
       id="guide4223" />
    <sodipodi:guide
       position="39.000002,8.9999974"
       orientation="0,-30"
       id="guide4225" />
  </sodipodi:namedview>
  <metadata
     id="metadata6393">
    <rdf:RDF>
      <cc:Work
         rdf:about="">
        <dc:format>image/svg+xml</dc:format>
        <dc:type
           rdf:resource="http://purl.org/dc/dcmitype/StillImage" />
        <dc:title />
      </cc:Work>
    </rdf:RDF>
  </metadata>
  <g
     inkscape:label="Capa 1"
     inkscape:groupmode="layer"
     id="layer1"
     transform="translate(-424.57144,-828.36218)">
    <rect
       style="fill:url(#linearGradient4117-4);fill-opacity:1;stroke:none"
       id="rect2991-1-7-3-1"
       width="48"
       height="48"
       x="424.57144"
       y="-876.36218"
       ry="1.9445436"
       transform="scale(1,-1)" />
    <path
       inkscape:connector-curvature="0"
       id="path4248"
       d="m 451.3652,838.56237 c -2.19626,0 -3.97874,1.67887 -3.97874,3.74943 0,2.07 1.78248,3.74953 3.97874,3.74953 2.19519,0 3.97874,-1.67953 3.97874,-3.74953 0,-2.07056 -1.78355,-3.74943 -3.97874,-3.74943 z m -3.29089,8.99596 c -0.99886,0.009 -2.2575,0.17944 -3.78992,0.66094 0,0 -1.91519,0.54647 -2.41422,1.42959 0,0 -0.3566,0.63394 0.52601,0.56653 0,0 3.7624,-0.30215 3.76294,1.34869 -0.006,0.0954 -0.0135,0.19912 -0.0135,0.29672 0,0.12787 0.004,0.252 0.0135,0.37762 0,0 -0.0129,1.07035 -0.51252,3.1695 0,0 -1.81538,6.43078 -1.98262,7.66078 -0.10844,0.38793 -0.16185,0.81196 -0.16185,1.24087 0,1.42256 0.64092,2.66344 1.60499,3.35831 0,0 0.0367,0.0281 0.12138,0.0806 0.18289,0.11925 0.37818,0.21853 0.57995,0.29671 1.00561,0.42835 3.0929,0.93975 6.29855,-0.0675 0,0 1.91627,-0.54656 2.41422,-1.42968 0,0 0.35606,-0.63385 -0.526,-0.56644 0,0 -3.76241,0.30263 -3.76295,-1.34878 0.007,-0.10837 0.0135,-0.22659 0.0135,-0.33712 0,-0.0431 0.001,-0.0778 0,-0.12141 -0.004,-0.48938 0.0383,-2.34844 0.8497,-4.8689 0,0 1.32769,-3.89728 1.73986,-6.39291 0.0663,-0.3 0.0998,-0.60749 0.1079,-0.93065 0.0108,-0.17372 0.009,-0.33291 0,-0.47203 -0.002,-0.03 -0.004,-0.0553 -0.0135,-0.0806 -0.12138,-1.3994 -0.83027,-2.59059 -1.82078,-3.2099 0,0 -0.0469,-0.0403 -0.14836,-0.0944 -0.20446,-0.11278 -0.42404,-0.19425 -0.64738,-0.25631 -0.49984,-0.16022 -1.24002,-0.31809 -2.23889,-0.31022 z"
       style="fill:#000000;fill-opacity:0.05882353;fill-rule:nonzero;stroke:none" />
    <path
       style="fill:#000000;fill-opacity:0.11764706;fill-rule:nonzero;stroke:none"
       d="m 451.3652,838.16237 c -2.19626,0 -3.97874,1.67887 -3.97874,3.74943 0,2.07 1.78248,3.74953 3.97874,3.74953 2.19519,0 3.97874,-1.67953 3.97874,-3.74953 0,-2.07056 -1.78355,-3.74943 -3.97874,-3.74943 z m -3.29089,8.99596 c -0.99886,0.009 -2.2575,0.17944 -3.78992,0.66094 0,0 -1.91519,0.54647 -2.41422,1.42959 0,0 -0.3566,0.63394 0.52601,0.56653 0,0 3.7624,-0.30215 3.76294,1.34869 -0.006,0.0954 -0.0135,0.19912 -0.0135,0.29672 0,0.12787 0.004,0.252 0.0135,0.37762 0,0 -0.0129,1.07035 -0.51252,3.1695 0,0 -1.81538,6.43078 -1.98262,7.66078 -0.10844,0.38793 -0.16185,0.81196 -0.16185,1.24087 0,1.42256 0.64092,2.66344 1.60499,3.35831 0,0 0.0367,0.0281 0.12138,0.0806 0.18289,0.11925 0.37818,0.21853 0.57995,0.29671 1.00561,0.42835 3.0929,0.93975 6.29855,-0.0675 0,0 1.91627,-0.54656 2.41422,-1.42968 0,0 0.35606,-0.63385 -0.526,-0.56644 0,0 -3.76241,0.30263 -3.76295,-1.34878 0.007,-0.10837 0.0135,-0.22659 0.0135,-0.33712 0,-0.0431 0.001,-0.0778 0,-0.12141 -0.004,-0.48938 0.0383,-2.34844 0.8497,-4.8689 0,0 1.32769,-3.89728 1.73986,-6.39291 0.0663,-0.3 0.0998,-0.60749 0.1079,-0.93065 0.0108,-0.17372 0.009,-0.33291 0,-0.47203 -0.002,-0.03 -0.004,-0.0553 -0.0135,-0.0806 -0.12138,-1.3994 -0.83027,-2.59059 -1.82078,-3.2099 0,0 -0.0469,-0.0403 -0.14836,-0.0944 -0.20446,-0.11278 -0.42404,-0.19425 -0.64738,-0.25631 -0.49984,-0.16022 -1.24002,-0.31809 -2.23889,-0.31022 z"
       id="path4246"
       inkscape:connector-curvature="0" />
    <path
       inkscape:connector-curvature="0"
       id="path4242"
       d="m 451.3652,837.76237 c -2.19626,0 -3.97874,1.67887 -3.97874,3.74943 0,2.07 1.78248,3.74953 3.97874,3.74953 2.19519,0 3.97874,-1.67953 3.97874,-3.74953 0,-2.07056 -1.78355,-3.74943 -3.97874,-3.74943 z m -3.29089,8.99596 c -0.99886,0.009 -2.2575,0.17944 -3.78992,0.66094 0,0 -1.91519,0.54647 -2.41422,1.42959 0,0 -0.3566,0.63394 0.52601,0.56653 0,0 3.7624,-0.30215 3.76294,1.34869 -0.006,0.0954 -0.0135,0.19912 -0.0135,0.29672 0,0.12787 0.004,0.252 0.0135,0.37762 0,0 -0.0129,1.07035 -0.51252,3.1695 0,0 -1.81538,6.43078 -1.98262,7.66078 -0.10844,0.38793 -0.16185,0.81196 -0.16185,1.24087 0,1.42256 0.64092,2.66344 1.60499,3.35831 0,0 0.0367,0.0281 0.12138,0.0806 0.18289,0.11925 0.37818,0.21853 0.57995,0.29671 1.00561,0.42835 3.0929,0.93975 6.29855,-0.0675 0,0 1.91627,-0.54656 2.41422,-1.42968 0,0 0.35606,-0.63385 -0.526,-0.56644 0,0 -3.76241,0.30263 -3.76295,-1.34878 0.007,-0.10837 0.0135,-0.22659 0.0135,-0.33712 0,-0.0431 0.001,-0.0778 0,-0.12141 -0.004,-0.48938 0.0383,-2.34844 0.8497,-4.8689 0,0 1.32769,-3.89728 1.73986,-6.39291 0.0663,-0.3 0.0998,-0.60749 0.1079,-0.93065 0.0108,-0.17372 0.009,-0.33291 0,-0.47203 -0.002,-0.03 -0.004,-0.0553 -0.0135,-0.0806 -0.12138,-1.3994 -0.83027,-2.59059 -1.82078,-3.2099 0,0 -0.0469,-0.0403 -0.14836,-0.0944 -0.20446,-0.11278 -0.42404,-0.19425 -0.64738,-0.25631 -0.49984,-0.16022 -1.24002,-0.31809 -2.23889,-0.31022 z"
       style="fill:#000000;fill-opacity:0.23529412;fill-rule:nonzero;stroke:none" />
    <path
       inkscape:connector-curvature="0"
       style="fill:#ffffff;fill-opacity:0.5372549;stroke:none"
       d="m 427.10268,829.0185 c -0.91709,0 -1.67115,0.6395 -1.84375,1.5 0.33561,-0.2799 0.77451,-0.4375 1.25,-0.4375 l 44.125,0 c 0.47549,0 0.91439,0.1576 1.25,0.4375 -0.1726,-0.8605 -0.92666,-1.5 -1.84375,-1.5 l -42.9375,0 z"
       id="path7515-3-3" />
    <text
       xml:space="preserve"
       style="font-size:40px;font-style:normal;font-variant:normal;font-weight:bold;font-stretch:normal;line-height:125%;letter-spacing:0px;word-spacing:0px;fill:#1a1a1a;fill-opacity:1;stroke:none;font-family:Impact;-inkscape-font-specification:Impact Bold"
       x="402.09555"
       y="856.15912"
       id="text818"
       sodipodi:linespacing="125%"><tspan
         sodipodi:role="line"
         id="tspan820"
         x="402.09555"
         y="856.15912" /></text>
    <path
       style="fill:url(#linearGradient4234);fill-opacity:1;fill-rule:nonzero;stroke:none"
       d="m 451.3652,837.36237 c -2.19626,0 -3.97874,1.67887 -3.97874,3.74943 0,2.07 1.78248,3.74953 3.97874,3.74953 2.19519,0 3.97874,-1.67953 3.97874,-3.74953 0,-2.07056 -1.78355,-3.74943 -3.97874,-3.74943 z m -3.29089,8.99596 c -0.99886,0.009 -2.2575,0.17944 -3.78992,0.66094 0,0 -1.91519,0.54647 -2.41422,1.42959 0,0 -0.3566,0.63394 0.52601,0.56653 0,0 3.7624,-0.30215 3.76294,1.34869 -0.006,0.0954 -0.0135,0.19912 -0.0135,0.29672 0,0.12787 0.004,0.252 0.0135,0.37762 0,0 -0.0129,1.07035 -0.51252,3.1695 0,0 -1.81538,6.43078 -1.98262,7.66078 -0.10844,0.38793 -0.16185,0.81196 -0.16185,1.24087 0,1.42256 0.64092,2.66344 1.60499,3.35831 0,0 0.0367,0.0281 0.12138,0.0806 0.18289,0.11925 0.37818,0.21853 0.57995,0.29671 1.00561,0.42835 3.0929,0.93975 6.29855,-0.0675 0,0 1.91627,-0.54656 2.41422,-1.42968 0,0 0.35606,-0.63385 -0.526,-0.56644 0,0 -3.76241,0.30263 -3.76295,-1.34878 0.007,-0.10837 0.0135,-0.22659 0.0135,-0.33712 0,-0.0431 0.001,-0.0778 0,-0.12141 -0.004,-0.48938 0.0383,-2.34844 0.8497,-4.8689 0,0 1.32769,-3.89728 1.73986,-6.39291 0.0663,-0.3 0.0998,-0.60749 0.1079,-0.93065 0.0108,-0.17372 0.009,-0.33291 0,-0.47203 -0.002,-0.03 -0.004,-0.0553 -0.0135,-0.0806 -0.12138,-1.3994 -0.83027,-2.59059 -1.82078,-3.2099 0,0 -0.0469,-0.0403 -0.14836,-0.0944 -0.20446,-0.11278 -0.42404,-0.19425 -0.64738,-0.25631 -0.49984,-0.16022 -1.24002,-0.31809 -2.23889,-0.31022 z"
       id="path1640"
       inkscape:connector-curvature="0" />
    <path
       style="fill:#1bb1fd;fill-opacity:0.19607843;fill-rule:nonzero;stroke:none"
       d="M 22.857422 12.349609 C 22.842193 12.482885 22.814453 12.612917 22.814453 12.75 C 22.814453 14.82 24.596709 16.5 26.792969 16.5 C 28.988159 16.5 30.773438 14.82 30.773438 12.75 C 30.773438 12.612917 30.745706 12.482885 30.730469 12.349609 C 30.515556 14.229007 28.842824 15.699219 26.792969 15.699219 C 24.742114 15.699219 23.072215 14.229007 22.857422 12.349609 z M 17.498047 19.832031 C 17.422156 19.914164 17.349245 19.996716 17.298828 20.085938 C 17.298828 20.085938 16.941609 20.719754 17.824219 20.652344 C 17.824219 20.652344 21.509554 20.359794 21.582031 21.957031 C 21.582156 21.951644 21.587891 21.876953 21.587891 21.876953 C 21.578391 21.751333 21.574219 21.625917 21.574219 21.498047 C 21.574219 21.400447 21.581891 21.296572 21.587891 21.201172 C 21.587351 19.550332 17.824219 19.853516 17.824219 19.853516 C 17.682371 19.864349 17.582504 19.851885 17.498047 19.832031 z M 28.349609 21.808594 C 28.334684 22.061245 28.316492 22.311774 28.263672 22.550781 C 27.851502 25.046411 26.523438 28.943359 26.523438 28.943359 C 25.712038 31.463819 25.669828 33.32312 25.673828 33.8125 C 25.674828 33.85611 25.673828 33.890494 25.673828 33.933594 C 25.673828 34.044124 25.667156 34.163114 25.660156 34.271484 C 25.660172 34.318524 25.673741 34.358423 25.679688 34.402344 C 25.688095 33.745415 25.781381 32.049198 26.523438 29.744141 C 26.523438 29.744141 27.851502 25.845239 28.263672 23.349609 C 28.329972 23.049609 28.362994 22.743082 28.371094 22.419922 C 28.381894 22.246202 28.380094 22.086386 28.371094 21.947266 C 28.369094 21.917266 28.366922 21.892488 28.357422 21.867188 C 28.355693 21.847254 28.351576 21.828441 28.349609 21.808594 z M 18.955078 34.367188 C 18.94548 34.493759 18.931641 34.619767 18.931641 34.748047 C 18.931641 36.170607 19.571086 37.410599 20.535156 38.105469 C 20.535156 38.105469 20.57157 38.133047 20.65625 38.185547 C 20.83914 38.304797 21.034558 38.404242 21.236328 38.482422 C 22.241938 38.910772 24.329506 39.423266 27.535156 38.416016 C 27.535156 38.416016 29.451269 37.869448 29.949219 36.986328 C 29.949219 36.986328 30.190876 36.543728 29.751953 36.439453 C 29.07819 37.171401 27.535156 37.615234 27.535156 37.615234 C 24.329506 38.622484 22.241938 38.111944 21.236328 37.683594 C 21.034558 37.605414 20.83914 37.505969 20.65625 37.386719 C 20.57157 37.334219 20.535156 37.306641 20.535156 37.306641 C 19.667404 36.681193 19.067494 35.611675 18.955078 34.367188 z "
       transform="translate(424.57144,828.36218)"
       id="path4250" />
    <path
       style="fill:#ffffff;fill-opacity:0.23529412;fill-rule:nonzero;stroke:none"
       d="M 26.792969 9 C 24.596709 9 22.814453 10.67944 22.814453 12.75 C 22.814453 12.818193 22.832118 12.88192 22.835938 12.949219 C 22.949109 10.974098 24.669762 9.4003906 26.792969 9.4003906 C 28.915141 9.4003906 30.638716 10.974098 30.751953 12.949219 C 30.755775 12.88192 30.773438 12.818193 30.773438 12.75 C 30.773438 10.67944 28.988159 9 26.792969 9 z M 23.501953 17.996094 C 22.503093 18.005094 21.245311 18.17475 19.712891 18.65625 C 19.712891 18.65625 17.797858 19.202818 17.298828 20.085938 C 17.298828 20.085938 17.154573 20.348389 17.285156 20.517578 C 17.288898 20.51016 17.298828 20.486328 17.298828 20.486328 C 17.797858 19.603208 19.712891 19.056641 19.712891 19.056641 C 21.245311 18.575141 22.503093 18.405484 23.501953 18.396484 C 24.500823 18.388614 25.242347 18.546811 25.742188 18.707031 C 25.965528 18.769091 26.184212 18.850111 26.388672 18.962891 C 26.490132 19.016991 26.537109 19.056641 26.537109 19.056641 C 27.527619 19.675951 28.236042 20.868178 28.357422 22.267578 C 28.366922 22.292878 28.369094 22.317656 28.371094 22.347656 C 28.377086 22.20437 28.378718 22.065115 28.371094 21.947266 C 28.369094 21.917266 28.366922 21.892488 28.357422 21.867188 C 28.236042 20.467787 27.527619 19.27556 26.537109 18.65625 C 26.537109 18.65625 26.490132 18.6166 26.388672 18.5625 C 26.184212 18.44972 25.965528 18.368701 25.742188 18.306641 C 25.242347 18.146421 24.500823 17.988224 23.501953 17.996094 z M 21.574219 22.314453 C 21.574404 22.385181 21.579093 22.453985 21.582031 22.523438 C 21.584367 22.482731 21.585443 22.441261 21.587891 22.402344 C 21.58788 22.370732 21.576935 22.344649 21.574219 22.314453 z M 21.578125 22.794922 C 21.573908 22.942399 21.536592 23.903043 21.074219 25.845703 C 21.074219 25.845703 19.259037 32.275859 19.091797 33.505859 C 18.983357 33.893789 18.931641 34.319137 18.931641 34.748047 C 18.931641 34.819043 18.940206 34.886986 18.943359 34.957031 C 18.956952 34.59396 18.99954 34.236288 19.091797 33.90625 C 19.259037 32.67625 21.074219 26.246094 21.074219 26.246094 C 21.573839 24.146944 21.587891 23.076172 21.587891 23.076172 C 21.580803 22.98245 21.579713 22.889157 21.578125 22.794922 z M 25.673828 35.15625 C 25.673017 35.260039 25.666671 35.369838 25.660156 35.470703 C 25.660696 37.122113 29.423828 36.820312 29.423828 36.820312 C 29.737537 36.796338 29.890685 36.86171 29.962891 36.955078 C 30.005889 36.869701 30.235388 36.3579 29.423828 36.419922 C 29.423828 36.419922 25.810071 36.705661 25.673828 35.15625 z "
       transform="translate(424.57144,828.36218)"
       id="path4255" />
    <path
       style="fill:url(#linearGradient4219);fill-opacity:1;stroke:none"
       d="m 458.57145,862.36145 0,14.00073 14,-14 z"
       id="path4130"
       inkscape:connector-curvature="0" />
    <path
       inkscape:connector-curvature="0"
       style="fill:url(#linearGradient4439);fill-opacity:1;stroke:none"
       d="m 472.57145,862.36218 -14,14 12.05469,0 c 1.07728,0 1.94531,-0.86804 1.94531,-1.94531 l 0,-12.05469 z"
       id="path4303" />
    <path
       inkscape:connector-curvature="0"
       id="path4784"
       d="m 458.57145,876.36218 0,-14.00073 -14,14 z"
       style="opacity:0.1;fill:url(#linearGradient4786);fill-opacity:1;stroke:none" />
    <path
       inkscape:connector-curvature="0"
       style="fill:#000000;fill-opacity:1;stroke:none"
       d="m 424.57143,873.3622 0,1.0625 c 0,1.0773 0.86022,1.9375 1.9375,1.9375 l 44.125,0 c 1.07728,0 1.9375,-0.8602 1.9375,-1.9375 l 0,-1.0625 c 0,1.0773 -0.86022,1.9375 -1.9375,1.9375 l -44.125,0 c -1.07728,0 -1.9375,-0.8602 -1.9375,-1.9375 z"
       id="rect846-0-4" />
    <path
       inkscape:connector-curvature="0"
       style="fill:#000000;fill-opacity:0.39215686;stroke:none"
       d="m 426.50893,828.3622 c -1.07728,0 -1.9375,0.8602 -1.9375,1.9375 l 0,43.0625 c 0,0.7934 0.48002,1.449 1.15625,1.75 -0.30934,-0.3333 -0.5,-0.7824 -0.5,-1.2812 l 0,-42.9375 c 0,-1.0482 0.8269,-1.875 1.875,-1.875 l 42.9375,0 c 1.0481,0 1.875,0.8268 1.875,1.875 l 0,42.9375 c 0,0.4988 -0.19066,0.9479 -0.5,1.2812 0.67623,-0.301 1.15625,-0.9566 1.15625,-1.75 l 0,-43.0625 c 0,-1.0773 -0.86022,-1.9375 -1.9375,-1.9375 l -44.125,0 z"
       id="rect4280-1-1" />
  </g>
</svg>
