<?xml version="1.0" encoding="UTF-8" standalone="no"?>
<!-- Created with Inkscape (http://www.inkscape.org/) -->

<svg
   xmlns:dc="http://purl.org/dc/elements/1.1/"
   xmlns:cc="http://creativecommons.org/ns#"
   xmlns:rdf="http://www.w3.org/1999/02/22-rdf-syntax-ns#"
   xmlns:svg="http://www.w3.org/2000/svg"
   xmlns="http://www.w3.org/2000/svg"
   xmlns:xlink="http://www.w3.org/1999/xlink"
   xmlns:sodipodi="http://sodipodi.sourceforge.net/DTD/sodipodi-0.dtd"
   xmlns:inkscape="http://www.inkscape.org/namespaces/inkscape"
   width="48"
   height="48"
   id="svg2"
   version="1.1"
   inkscape:version="0.48+devel r12913"
   sodipodi:docname="video-quicktime.svg">
  <defs
     id="defs4">
    <linearGradient
       id="linearGradient4220">
      <stop
         id="stop4222"
         offset="0"
         style="stop-color:#b9d9ff;stop-opacity:1" />
      <stop
         id="stop4224"
         offset="1"
         style="stop-color:#f6fbfe;stop-opacity:1" />
    </linearGradient>
    <linearGradient
       id="linearGradient4788"
       inkscape:collect="always">
      <stop
         id="stop4790"
         offset="0"
         style="stop-color:#000000;stop-opacity:1" />
      <stop
         id="stop4792"
         offset="1"
         style="stop-color:#000000;stop-opacity:0" />
    </linearGradient>
    <linearGradient
       id="linearGradient4433"
       inkscape:collect="always">
      <stop
         id="stop4435"
         offset="0"
         style="stop-color:#2b3141;stop-opacity:1" />
      <stop
         id="stop4437"
         offset="1"
         style="stop-color:#394056;stop-opacity:1" />
    </linearGradient>
    <linearGradient
       inkscape:collect="always"
       xlink:href="#linearGradient943-6"
       id="linearGradient4117-3"
       gradientUnits="userSpaceOnUse"
       gradientTransform="translate(-64.89343,-3.2741829)"
       x1="92.14286"
       y1="-1049.092"
       x2="92.14286"
       y2="-1001.0899" />
    <linearGradient
       gradientUnits="userSpaceOnUse"
       y2="33.999271"
       x2="42.956738"
       y1="48.000004"
       x1="42.956738"
       id="linearGradient4439"
       xlink:href="#linearGradient4433"
       inkscape:collect="always"
       gradientTransform="translate(1e-5,1004.3622)" />
    <linearGradient
       gradientTransform="matrix(-1,0,0,-1,492.57145,1914.7236)"
       y2="862.36139"
       x2="472.50894"
       y1="871.36139"
       x1="458.57144"
       gradientUnits="userSpaceOnUse"
       id="linearGradient4786"
       xlink:href="#linearGradient4788"
       inkscape:collect="always" />
    <linearGradient
       gradientUnits="userSpaceOnUse"
       y2="862.36255"
       x2="458.57144"
       y1="869.36218"
       x1="465.57108"
       id="linearGradient4219"
       xlink:href="#linearGradient4266"
       inkscape:collect="always"
       gradientTransform="translate(-424.57143,176)" />
    <linearGradient
       id="linearGradient4266">
      <stop
         id="stop4268"
         offset="0"
         style="stop-color:#2d8eff;stop-opacity:1" />
      <stop
         id="stop4270"
         offset="1"
         style="stop-color:#9cd3f4;stop-opacity:1" />
    </linearGradient>
    <linearGradient
       id="linearGradient943-6">
      <stop
         style="stop-color:#0059c1;stop-opacity:1"
         offset="0"
         id="stop945-0" />
      <stop
         style="stop-color:#118de7;stop-opacity:1"
         offset="1"
         id="stop947-5" />
    </linearGradient>
    <linearGradient
       inkscape:collect="always"
       xlink:href="#linearGradient4220"
       id="linearGradient4217"
       x1="24.898897"
       y1="1043.3622"
       x2="24.898897"
       y2="1013.3622"
       gradientUnits="userSpaceOnUse" />
  </defs>
  <sodipodi:namedview
     id="base"
     pagecolor="#ffffff"
     bordercolor="#666666"
     borderopacity="1.0"
     inkscape:pageopacity="0.0"
     inkscape:pageshadow="2"
     inkscape:zoom="2.8615726"
     inkscape:cx="47.974127"
     inkscape:cy="-8.3553319"
     inkscape:document-units="px"
     inkscape:current-layer="layer1"
     showgrid="false"
     inkscape:window-width="1366"
     inkscape:window-height="671"
     inkscape:window-x="0"
     inkscape:window-y="24"
     inkscape:window-maximized="1"
     showguides="true"
     inkscape:guide-bbox="true">
    <inkscape:grid
       type="xygrid"
       id="grid3031" />
    <sodipodi:guide
       position="1.1650391e-05,1.7382813e-05"
       orientation="-48,0"
       id="guide4181" />
    <sodipodi:guide
       position="1.1650391e-05,48.000017"
       orientation="0,48"
       id="guide4183" />
    <sodipodi:guide
       position="48.000011,48.000017"
       orientation="48,0"
       id="guide4185" />
    <sodipodi:guide
       position="48.000011,1.7382813e-05"
       orientation="0,-48"
       id="guide4187" />
    <sodipodi:guide
       position="1.1650391e-05,1.7382813e-05"
       orientation="-48,0"
       id="guide4191" />
    <sodipodi:guide
       position="1.1650391e-05,48.000017"
       orientation="0,48"
       id="guide4193" />
    <sodipodi:guide
       position="48.000011,48.000017"
       orientation="48,0"
       id="guide4195" />
    <sodipodi:guide
       position="48.000011,1.7382813e-05"
       orientation="0,-48"
       id="guide4197" />
    <sodipodi:guide
       position="9.0000114,9.0000174"
       orientation="-30,0"
       id="guide4203" />
    <sodipodi:guide
       position="9.0000114,39.000017"
       orientation="0,30"
       id="guide4205" />
    <sodipodi:guide
       position="39.000011,39.000017"
       orientation="30,0"
       id="guide4207" />
    <sodipodi:guide
       position="39.000011,9.0000174"
       orientation="0,-30"
       id="guide4209" />
  </sodipodi:namedview>
  <metadata
     id="metadata7">
    <rdf:RDF>
      <cc:Work
         rdf:about="">
        <dc:format>image/svg+xml</dc:format>
        <dc:type
           rdf:resource="http://purl.org/dc/dcmitype/StillImage" />
        <dc:title />
      </cc:Work>
    </rdf:RDF>
  </metadata>
  <g
     inkscape:label="Capa 1"
     inkscape:groupmode="layer"
     id="layer1"
     transform="translate(0,-1004.3622)">
    <rect
       style="fill:url(#linearGradient4117-3);fill-opacity:1;stroke:none"
       id="rect2991-1-7-3-1"
       width="48"
       height="48"
       x="1.1650391e-05"
       y="-1052.3622"
       ry="1.9445436"
       transform="scale(1,-1)" />
    <path
       inkscape:connector-curvature="0"
       id="path4232"
       d="m 23.982037,1014.5622 c -8.28414,0 -14.9820655,6.6977 -14.9820655,14.982 0,8.284 6.6979255,15.018 14.9820655,15.018 2.874846,0 5.585906,-0.8255 7.86828,-2.2276 l 2.191622,2.2276 0.03592,0 4.41917,-0.503 0.502994,-4.4551 -2.19162,-2.1916 c 1.404014,-2.2822 2.19162,-4.9922 2.19162,-7.8683 -1.45e-4,-8.2943 -6.733848,-14.982 -15.017991,-14.982 z m 0,5.2455 c 2.442907,0 4.685224,0.9215 6.395223,2.4071 l -5.532946,4.7786 c -0.264694,-0.086 -0.568696,-0.1438 -0.862277,-0.1438 -1.494879,0 -2.694616,1.1997 -2.694616,2.6946 0,1.4948 1.199737,2.6947 2.694616,2.6947 1.494883,0 2.730545,-1.1999 2.730545,-2.6947 0,-0.1269 -0.01905,-0.2372 -0.03593,-0.3593 l 5.568873,-4.8144 c 0.94288,1.4988 1.508985,3.2721 1.508985,5.1737 0,5.3771 -4.395199,9.7366 -9.772475,9.7366 -5.377275,0 -9.736547,-4.3595 -9.736547,-9.7366 3e-6,-5.3773 4.359269,-9.7365 9.736544,-9.7365 z m 8.622773,0.503 1.868267,2.1557 -2.191621,1.8683 c -0.511449,-0.8116 -1.147771,-1.5284 -1.868268,-2.1557 l 2.191622,-1.8683 z m -8.622773,8.1197 c 0.614015,0 1.113775,0.4997 1.113775,1.1138 0,0.614 -0.499761,1.1138 -1.113775,1.1138 -0.614011,0 -1.077846,-0.4998 -1.077846,-1.1138 10e-7,-0.6141 0.463836,-1.1138 1.077846,-1.1138 z"
       style="fill:#000000;fill-opacity:0.05882353;stroke:none" />
    <path
       style="fill:#000000;fill-opacity:0.11764706;stroke:none"
       d="m 23.982037,1014.1622 c -8.28414,0 -14.9820655,6.6977 -14.9820655,14.982 0,8.284 6.6979255,15.018 14.9820655,15.018 2.874846,0 5.585906,-0.8255 7.86828,-2.2276 l 2.191622,2.2276 0.03592,0 4.41917,-0.503 0.502994,-4.4551 -2.19162,-2.1916 c 1.404014,-2.2822 2.19162,-4.9922 2.19162,-7.8683 -1.45e-4,-8.2943 -6.733848,-14.982 -15.017991,-14.982 z m 0,5.2455 c 2.442907,0 4.685224,0.9215 6.395223,2.4071 l -5.532946,4.7786 c -0.264694,-0.086 -0.568696,-0.1438 -0.862277,-0.1438 -1.494879,0 -2.694616,1.1997 -2.694616,2.6946 0,1.4948 1.199737,2.6947 2.694616,2.6947 1.494883,0 2.730545,-1.1999 2.730545,-2.6947 0,-0.1269 -0.01905,-0.2372 -0.03593,-0.3593 l 5.568873,-4.8144 c 0.94288,1.4988 1.508985,3.2721 1.508985,5.1737 0,5.3771 -4.395199,9.7366 -9.772475,9.7366 -5.377275,0 -9.736547,-4.3595 -9.736547,-9.7366 3e-6,-5.3773 4.359269,-9.7365 9.736544,-9.7365 z m 8.622773,0.503 1.868267,2.1557 -2.191621,1.8683 c -0.511449,-0.8116 -1.147771,-1.5284 -1.868268,-2.1557 l 2.191622,-1.8683 z m -8.622773,8.1197 c 0.614015,0 1.113775,0.4997 1.113775,1.1138 0,0.614 -0.499761,1.1138 -1.113775,1.1138 -0.614011,0 -1.077846,-0.4998 -1.077846,-1.1138 10e-7,-0.6141 0.463836,-1.1138 1.077846,-1.1138 z"
       id="path4230"
       inkscape:connector-curvature="0" />
    <path
       inkscape:connector-curvature="0"
       id="path4226"
       d="m 23.982037,1013.7622 c -8.28414,0 -14.9820655,6.6977 -14.9820655,14.982 0,8.284 6.6979255,15.018 14.9820655,15.018 2.874846,0 5.585906,-0.8255 7.86828,-2.2276 l 2.191622,2.2276 0.03592,0 4.41917,-0.503 0.502994,-4.4551 -2.19162,-2.1916 c 1.404014,-2.2822 2.19162,-4.9922 2.19162,-7.8683 -1.45e-4,-8.2943 -6.733848,-14.982 -15.017991,-14.982 z m 0,5.2455 c 2.442907,0 4.685224,0.9215 6.395223,2.4071 l -5.532946,4.7786 c -0.264694,-0.086 -0.568696,-0.1438 -0.862277,-0.1438 -1.494879,0 -2.694616,1.1997 -2.694616,2.6946 0,1.4948 1.199737,2.6947 2.694616,2.6947 1.494883,0 2.730545,-1.1999 2.730545,-2.6947 0,-0.1269 -0.01905,-0.2372 -0.03593,-0.3593 l 5.568873,-4.8144 c 0.94288,1.4988 1.508985,3.2721 1.508985,5.1737 0,5.3771 -4.395199,9.7366 -9.772475,9.7366 -5.377275,0 -9.736547,-4.3595 -9.736547,-9.7366 3e-6,-5.3773 4.359269,-9.7365 9.736544,-9.7365 z m 8.622773,0.503 1.868267,2.1557 -2.191621,1.8683 c -0.511449,-0.8116 -1.147771,-1.5284 -1.868268,-2.1557 l 2.191622,-1.8683 z m -8.622773,8.1197 c 0.614015,0 1.113775,0.4997 1.113775,1.1138 0,0.614 -0.499761,1.1138 -1.113775,1.1138 -0.614011,0 -1.077846,-0.4998 -1.077846,-1.1138 10e-7,-0.6141 0.463836,-1.1138 1.077846,-1.1138 z"
       style="fill:#000000;fill-opacity:0.23529412;stroke:none" />
    <path
       style="fill:url(#linearGradient4217);fill-opacity:1;stroke:none"
       d="m 23.982037,1013.3622 c -8.28414,0 -14.9820655,6.6977 -14.9820655,14.982 0,8.284 6.6979255,15.018 14.9820655,15.018 2.874846,0 5.585906,-0.8255 7.86828,-2.2276 l 2.191622,2.2276 0.03592,0 4.41917,-0.503 0.502994,-4.4551 -2.19162,-2.1916 c 1.404014,-2.2822 2.19162,-4.9922 2.19162,-7.8683 -1.45e-4,-8.2943 -6.733848,-14.982 -15.017991,-14.982 z m 0,5.2455 c 2.442907,0 4.685224,0.9215 6.395223,2.4071 l -5.532946,4.7786 c -0.264694,-0.086 -0.568696,-0.1438 -0.862277,-0.1438 -1.494879,0 -2.694616,1.1997 -2.694616,2.6946 0,1.4948 1.199737,2.6947 2.694616,2.6947 1.494883,0 2.730545,-1.1999 2.730545,-2.6947 0,-0.1269 -0.01905,-0.2372 -0.03593,-0.3593 l 5.568873,-4.8144 c 0.94288,1.4988 1.508985,3.2721 1.508985,5.1737 0,5.3771 -4.395199,9.7366 -9.772475,9.7366 -5.377275,0 -9.736547,-4.3595 -9.736547,-9.7366 3e-6,-5.3773 4.359269,-9.7365 9.736544,-9.7365 z m 8.622773,0.503 1.868267,2.1557 -2.191621,1.8683 c -0.511449,-0.8116 -1.147771,-1.5284 -1.868268,-2.1557 l 2.191622,-1.8683 z m -8.622773,8.1197 c 0.614015,0 1.113775,0.4997 1.113775,1.1138 0,0.614 -0.499761,1.1138 -1.113775,1.1138 -0.614011,0 -1.077846,-0.4998 -1.077846,-1.1138 10e-7,-0.6141 0.463836,-1.1138 1.077846,-1.1138 z"
       id="path917"
       inkscape:connector-curvature="0" />
    <path
       inkscape:connector-curvature="0"
       style="fill:#ffffff;fill-opacity:0.5372549;stroke:none"
       d="m 2.53124,1005.0185 c -0.91709,0 -1.67115,0.6395 -1.84375,1.5 0.33561,-0.2799 0.77451,-0.4375 1.25,-0.4375 l 44.125,0 c 0.47549,0 0.91439,0.1576 1.25,0.4375 -0.1726,-0.8605 -0.92666,-1.5 -1.84375,-1.5 l -42.9375,0 z"
       id="path7515-3-8" />
    <path
       style="fill:#0463c4;fill-opacity:0.3137255;stroke:none"
       d="M 23.982422 13.445312 C 18.605147 13.445312 14.246097 17.804341 14.246094 23.181641 C 14.246094 23.316726 14.260175 23.448284 14.265625 23.582031 C 14.477099 18.391746 18.740236 14.246094 23.982422 14.246094 C 26.204271 14.246094 28.254119 15.013877 29.894531 16.269531 L 30.376953 15.853516 C 28.666954 14.367916 26.425329 13.445312 23.982422 13.445312 z M 32.605469 13.949219 L 30.414062 15.816406 C 30.568462 15.950834 30.717014 16.091675 30.863281 16.234375 L 32.605469 14.748047 L 34.074219 16.443359 L 34.472656 16.103516 L 32.605469 13.949219 z M 31.9375 18.273438 L 26.675781 22.822266 C 26.692661 22.944366 26.712891 23.054741 26.712891 23.181641 C 26.712891 24.676441 25.477305 25.876953 23.982422 25.876953 C 22.62487 25.876953 21.52137 24.883371 21.328125 23.582031 C 21.308577 23.713676 21.287109 23.845093 21.287109 23.982422 C 21.287109 25.477222 22.487543 26.675781 23.982422 26.675781 C 25.477305 26.675781 26.712891 25.477222 26.712891 23.982422 C 26.712891 23.855522 26.692661 23.745147 26.675781 23.623047 L 32.246094 18.808594 C 33.110505 20.18266 33.651147 21.788881 33.736328 23.511719 C 33.740069 23.401245 33.753906 23.293017 33.753906 23.181641 C 33.753906 21.500599 33.293067 19.932247 32.539062 18.552734 L 32.28125 18.773438 C 32.173169 18.601928 32.05635 18.43653 31.9375 18.273438 z M 23.982422 22.068359 C 23.368412 22.068359 22.904298 22.567541 22.904297 23.181641 C 22.904297 23.323413 22.934871 23.457182 22.980469 23.582031 C 23.132348 23.166158 23.510187 22.869141 23.982422 22.869141 C 24.454628 22.869141 24.851957 23.166203 25.013672 23.582031 C 25.062237 23.457159 25.095703 23.323446 25.095703 23.181641 C 25.095703 22.567541 24.596437 22.068359 23.982422 22.068359 z M 9.0195312 23.582031 C 9.0159857 23.716362 9 23.847223 9 23.982422 C 9 32.266422 15.698282 39 23.982422 39 C 26.857268 39 29.567235 38.173584 31.849609 36.771484 L 34.041016 39 L 34.078125 39 L 38.496094 38.496094 L 39 34.041016 L 38.917969 33.958984 L 38.496094 37.697266 L 34.078125 38.199219 L 34.041016 38.199219 L 31.849609 35.972656 C 29.567235 37.374756 26.857268 38.199219 23.982422 38.199219 C 15.833306 38.199219 9.2329775 31.679951 9.0195312 23.582031 z M 38.984375 23.658203 C 38.902089 26.356014 38.13447 28.895593 36.808594 31.050781 L 37.097656 31.339844 C 38.315509 29.167252 39 26.649267 39 23.982422 C 38.999998 23.872954 38.986711 23.767099 38.984375 23.658203 z "
       transform="translate(0,1004.3622)"
       id="path4234" />
    <path
       style="fill:#ffffff;fill-opacity:0.23529412;stroke:none"
       d="M 23.982422 9 C 15.698282 9 9 15.698122 9 23.982422 C 9 24.04969 9.0088851 24.11458 9.0097656 24.181641 C 9.1182289 15.991296 15.766123 9.4003906 23.982422 9.4003906 C 32.211898 9.4003906 38.903985 16.002421 38.992188 24.220703 C 38.993404 24.140934 39 24.062454 39 23.982422 C 38.999855 15.688122 32.266565 9 23.982422 9 z M 30.638672 16.826172 L 30.414062 17.017578 C 31.059347 17.579395 31.630317 18.216578 32.111328 18.925781 L 32.246094 18.808594 C 32.300154 18.894528 32.339077 18.990413 32.390625 19.078125 L 34.472656 17.304688 L 34.273438 17.074219 L 32.28125 18.773438 C 31.824704 18.048961 31.265275 17.40334 30.638672 16.826172 z M 30.134766 16.861328 L 24.84375 21.431641 C 24.579056 21.345641 24.276003 21.287109 23.982422 21.287109 C 22.487543 21.287109 21.287109 22.487522 21.287109 23.982422 C 21.287109 24.05138 21.301623 24.11598 21.306641 24.183594 C 21.409458 22.784537 22.555841 21.6875 23.982422 21.6875 C 24.276003 21.6875 24.579056 21.746031 24.84375 21.832031 L 30.376953 17.052734 C 30.299392 16.985352 30.214486 16.926356 30.134766 16.861328 z M 26.710938 23.992188 L 26.675781 24.023438 C 26.683209 24.077163 26.684946 24.130065 26.691406 24.181641 C 26.696227 24.117938 26.710695 24.057086 26.710938 23.992188 z M 33.746094 24.148438 C 33.655691 29.448052 29.303586 33.71875 23.982422 33.71875 C 18.672495 33.71875 14.36317 29.465707 14.255859 24.181641 C 14.254477 24.249183 14.246094 24.314939 14.246094 24.382812 C 14.246094 29.759912 18.605147 34.119141 23.982422 34.119141 C 29.359698 34.119141 33.753906 29.759912 33.753906 24.382812 C 33.753906 24.304024 33.748024 24.226775 33.746094 24.148438 z M 22.941406 24.183594 C 22.929654 24.250496 22.904297 24.312312 22.904297 24.382812 C 22.904297 24.996813 23.368411 25.496094 23.982422 25.496094 C 24.596436 25.496094 25.095703 24.996813 25.095703 24.382812 C 25.095703 24.31223 25.067306 24.250568 25.054688 24.183594 C 24.956766 24.698347 24.525199 25.095703 23.982422 25.095703 C 23.439569 25.095703 23.032731 24.698456 22.941406 24.183594 z M 36.953125 31.994141 C 36.903551 32.07853 36.859817 32.166737 36.808594 32.25 L 38.958984 34.400391 L 39 34.041016 L 36.953125 31.994141 z "
       transform="translate(0,1004.3622)"
       id="path4239" />
    <path
       style="fill:url(#linearGradient4219);fill-opacity:1;stroke:none"
       d="m 34.00001,1038.3615 0,14.0007 14,-14 z"
       id="path4130"
       inkscape:connector-curvature="0" />
    <path
       inkscape:connector-curvature="0"
       style="fill:url(#linearGradient4439);fill-opacity:1;stroke:none"
       d="m 48.00001,1038.3622 -14,14 12.05469,0 c 1.07727,0 1.94531,-0.8681 1.94531,-1.9453 l 0,-12.0547 z"
       id="path4303" />
    <path
       inkscape:connector-curvature="0"
       id="path4784"
       d="m 34.00001,1052.3622 0,-14.0007 -14,14 z"
       style="opacity:0.1;fill:url(#linearGradient4786);fill-opacity:1;stroke:none" />
    <path
       inkscape:connector-curvature="0"
       style="fill:#000000;fill-opacity:1;stroke:none"
       d="m -1e-5,1049.3622 0,1.0625 c 0,1.0773 0.86022,1.9375 1.9375,1.9375 l 44.125,0 c 1.07728,0 1.9375,-0.8602 1.9375,-1.9375 l 0,-1.0625 c 0,1.0773 -0.86022,1.9375 -1.9375,1.9375 l -44.125,0 c -1.07728,0 -1.9375,-0.8602 -1.9375,-1.9375 z"
       id="rect846-0-6" />
    <path
       inkscape:connector-curvature="0"
       style="fill:#000000;fill-opacity:0.39215686;stroke:none"
       d="m 1.93749,1004.3622 c -1.07728,0 -1.9375,0.8602 -1.9375,1.9375 l 0,43.0625 c 0,0.7934 0.48002,1.4489 1.15625,1.75 -0.30934,-0.3333 -0.5,-0.7824 -0.5,-1.2812 l 0,-42.9376 c 0,-1.0482 0.8269,-1.8749 1.875,-1.8749 l 42.9375,0 c 1.0481,0 1.875,0.8267 1.875,1.8749 l 0,42.9376 c 0,0.4988 -0.19066,0.9479 -0.5,1.2812 0.67623,-0.3011 1.15625,-0.9566 1.15625,-1.75 l 0,-43.0625 c 0,-1.0773 -0.86022,-1.9375 -1.9375,-1.9375 l -44.125,0 z"
       id="rect4280-1-4" />
  </g>
</svg>
