<?xml version="1.0" encoding="UTF-8" standalone="no"?>
<!-- Created with Inkscape (http://www.inkscape.org/) -->

<svg
   xmlns:dc="http://purl.org/dc/elements/1.1/"
   xmlns:cc="http://creativecommons.org/ns#"
   xmlns:rdf="http://www.w3.org/1999/02/22-rdf-syntax-ns#"
   xmlns:svg="http://www.w3.org/2000/svg"
   xmlns="http://www.w3.org/2000/svg"
   xmlns:xlink="http://www.w3.org/1999/xlink"
   xmlns:sodipodi="http://sodipodi.sourceforge.net/DTD/sodipodi-0.dtd"
   xmlns:inkscape="http://www.inkscape.org/namespaces/inkscape"
   width="48"
   height="48"
   id="svg4214"
   version="1.1"
   inkscape:version="0.48+devel r12913"
   sodipodi:docname="virtualbox-hdd.svg">
  <defs
     id="defs4216">
    <linearGradient
       id="linearGradient4429">
      <stop
         style="stop-color:#f4c4f4;stop-opacity:1"
         offset="0"
         id="stop4431" />
      <stop
         style="stop-color:#fef6fd;stop-opacity:1"
         offset="1"
         id="stop4433" />
    </linearGradient>
    <linearGradient
       id="linearGradient4264">
      <stop
         style="stop-color:#de4ddf;stop-opacity:1"
         offset="0"
         id="stop4266" />
      <stop
         style="stop-color:#f898ee;stop-opacity:1"
         offset="1"
         id="stop4268" />
    </linearGradient>
    <linearGradient
       inkscape:collect="always"
       id="linearGradient4788">
      <stop
         style="stop-color:#000000;stop-opacity:1"
         offset="0"
         id="stop4790" />
      <stop
         style="stop-color:#000000;stop-opacity:0"
         offset="1"
         id="stop4792" />
    </linearGradient>
    <linearGradient
       inkscape:collect="always"
       id="linearGradient4433">
      <stop
         style="stop-color:#2b3141;stop-opacity:1"
         offset="0"
         id="stop4435" />
      <stop
         style="stop-color:#394056;stop-opacity:1"
         offset="1"
         id="stop4437" />
    </linearGradient>
    <linearGradient
       id="linearGradient943-5">
      <stop
         id="stop945-6"
         offset="0"
         style="stop-color:#da3adb;stop-opacity:1" />
      <stop
         id="stop947-1"
         offset="1"
         style="stop-color:#f572e8;stop-opacity:1" />
    </linearGradient>
    <linearGradient
       y2="-1001.0899"
       x2="92.14286"
       y1="-1049.092"
       x1="92.14286"
       gradientTransform="translate(-64.89343,-3.2742)"
       gradientUnits="userSpaceOnUse"
       id="linearGradient4117"
       xlink:href="#linearGradient943-5"
       inkscape:collect="always" />
    <linearGradient
       gradientTransform="translate(10e-6,1004.3622)"
       inkscape:collect="always"
       xlink:href="#linearGradient4433"
       id="linearGradient4439"
       x1="42.956738"
       y1="48.000004"
       x2="42.956738"
       y2="33.999271"
       gradientUnits="userSpaceOnUse" />
    <linearGradient
       inkscape:collect="always"
       xlink:href="#linearGradient4788"
       id="linearGradient4786"
       gradientUnits="userSpaceOnUse"
       x1="458.57144"
       y1="871.36139"
       x2="472.50894"
       y2="862.36139"
       gradientTransform="matrix(-1,0,0,-1,492.57141,1914.7236)" />
    <linearGradient
       gradientTransform="translate(-424.57143,176.00002)"
       inkscape:collect="always"
       xlink:href="#linearGradient4264"
       id="linearGradient4219"
       x1="465.57108"
       y1="869.36218"
       x2="458.57144"
       y2="862.36255"
       gradientUnits="userSpaceOnUse" />
    <linearGradient
       inkscape:collect="always"
       xlink:href="#linearGradient4429"
       id="linearGradient4427"
       x1="31.0625"
       y1="38.999981"
       x2="31.0625"
       y2="8.9999828"
       gradientUnits="userSpaceOnUse" />
  </defs>
  <sodipodi:namedview
     id="base"
     pagecolor="#ffffff"
     bordercolor="#666666"
     borderopacity="1.0"
     inkscape:pageopacity="0.0"
     inkscape:pageshadow="2"
     inkscape:zoom="8.0937502"
     inkscape:cx="33.634889"
     inkscape:cy="12.824409"
     inkscape:document-units="px"
     inkscape:current-layer="layer1"
     showgrid="false"
     width="0px"
     height="0px"
     fit-margin-top="0"
     fit-margin-left="0"
     fit-margin-right="0"
     fit-margin-bottom="0"
     inkscape:window-width="1366"
     inkscape:window-height="671"
     inkscape:window-x="0"
     inkscape:window-y="24"
     inkscape:window-maximized="1"
     showguides="true">
    <sodipodi:guide
       position="4.4335939e-06,1.7382813e-05"
       orientation="-48,0"
       id="guide4203" />
    <sodipodi:guide
       position="4.4335939e-06,48.000017"
       orientation="0,47.999999"
       id="guide4205" />
    <sodipodi:guide
       position="48.000004,48.000017"
       orientation="48,0"
       id="guide4207" />
    <sodipodi:guide
       position="48.000004,1.7382813e-05"
       orientation="0,-47.999999"
       id="guide4209" />
    <sodipodi:guide
       position="9.0000038,9.0000174"
       orientation="-30,0"
       id="guide4215" />
    <sodipodi:guide
       position="9.0000038,39.000017"
       orientation="0,30"
       id="guide4217" />
    <sodipodi:guide
       position="39.000004,39.000017"
       orientation="30,0"
       id="guide4219" />
    <sodipodi:guide
       position="39.000004,9.0000174"
       orientation="0,-30"
       id="guide4221" />
    <sodipodi:guide
       position="31.411928,26.049048"
       orientation="2.5980762,-1.5"
       id="guide4310" />
    <sodipodi:guide
       position="29.911928,23.450972"
       orientation="1.5,2.5980762"
       id="guide4312" />
    <sodipodi:guide
       position="32.510004,21.950972"
       orientation="-2.5980762,1.5"
       id="guide4314" />
    <sodipodi:guide
       position="34.010004,24.549048"
       orientation="-1.5,-2.5980762"
       id="guide4316" />
    <sodipodi:guide
       position="37.498077,24.524959"
       orientation="2.5980762,1.5"
       id="guide4318" />
    <sodipodi:guide
       position="38.998077,21.926883"
       orientation="1.5,-2.5980762"
       id="guide4320" />
    <sodipodi:guide
       position="36.400001,20.426883"
       orientation="-2.5980762,-1.5"
       id="guide4322" />
    <sodipodi:guide
       position="34.900001,23.024959"
       orientation="-1.5,2.5980762"
       id="guide4324" />
    <sodipodi:guide
       position="19.555234,24.540621"
       orientation="2.5980762,1.5"
       id="guide4326" />
    <sodipodi:guide
       position="21.055234,21.942545"
       orientation="1.5,-2.5980762"
       id="guide4328" />
    <sodipodi:guide
       position="18.457157,20.442545"
       orientation="-2.5980762,-1.5"
       id="guide4330" />
    <sodipodi:guide
       position="16.957157,23.040621"
       orientation="-1.5,2.5980762"
       id="guide4332" />
    <sodipodi:guide
       position="16.000004,25.500017"
       orientation="3,0"
       id="guide4336" />
    <sodipodi:guide
       position="16.000004,22.500017"
       orientation="0,-3"
       id="guide4338" />
    <sodipodi:guide
       position="13.000004,22.500017"
       orientation="-3,0"
       id="guide4340" />
    <sodipodi:guide
       position="13.000004,25.500017"
       orientation="0,3"
       id="guide4342" />
    <sodipodi:guide
       position="24.000002,39.000017"
       orientation="13.5,0"
       id="guide4354" />
    <sodipodi:guide
       position="24.000002,25.500017"
       orientation="0,14.999998"
       id="guide4356" />
    <sodipodi:guide
       position="39,25.500017"
       orientation="-13.5,0"
       id="guide4358" />
    <sodipodi:guide
       position="39,39.000017"
       orientation="0,-14.999998"
       id="guide4360" />
  </sodipodi:namedview>
  <metadata
     id="metadata4219">
    <rdf:RDF>
      <cc:Work
         rdf:about="">
        <dc:format>image/svg+xml</dc:format>
        <dc:type
           rdf:resource="http://purl.org/dc/dcmitype/StillImage" />
        <dc:title></dc:title>
      </cc:Work>
    </rdf:RDF>
  </metadata>
  <g
     inkscape:label="Capa 1"
     inkscape:groupmode="layer"
     id="layer1"
     transform="translate(0,-1004.3622)">
    <rect
       style="fill:url(#linearGradient4117);fill-opacity:1;stroke:none"
       id="rect2991-1-7-3-1"
       width="48"
       height="48"
       x="4.4335939e-06"
       y="-1052.3622"
       ry="1.9445436"
       transform="scale(1,-1)" />
    <path
       inkscape:connector-curvature="0"
       style="fill:#000000;fill-opacity:0.05882353;stroke:none"
       d="m 9,1014.5622 0,15 0,15 16.033203,0 13.966797,0 0,-12.9277 0,-17.0723 -30,0 z m 3,3 24,0 0,8.877 -1.984375,-3.4356 -3.421875,5.9258 -0.681641,1.1816 -4.863281,8.4239 -3.99414,-6.9161 -1.5,-2.5976 -0.552735,-0.959 -3.347656,0 c -0.56092,-1.1814 -1.754909,-2 -3.154297,-2 -0.171373,0 -0.335349,0.025 -0.5,0.049 l 0,-8.5488 z m 22.025391,11.459 1.974609,3.4199 0,9.1211 -9.230469,0 7.25586,-12.541 z m -18.371094,2.041 1.615234,0 0.02344,0.039 6.015625,10.4609 -11.308594,0 0,-8.5488 c 0.164651,0.024 0.328627,0.049 0.5,0.049 1.399388,0 2.593377,-0.8186 3.154297,-2 z"
       id="path4126" />
    <path
       id="path4124"
       d="m 9,1014.1622 0,15 0,15 16.033203,0 13.966797,0 0,-12.9277 0,-17.0723 -30,0 z m 3,3 24,0 0,8.877 -1.984375,-3.4356 -3.421875,5.9258 -0.681641,1.1816 -4.863281,8.4239 -3.99414,-6.9161 -1.5,-2.5976 -0.552735,-0.959 -3.347656,0 c -0.56092,-1.1814 -1.754909,-2 -3.154297,-2 -0.171373,0 -0.335349,0.025 -0.5,0.049 l 0,-8.5488 z m 22.025391,11.459 1.974609,3.4199 0,9.1211 -9.230469,0 7.25586,-12.541 z m -18.371094,2.041 1.615234,0 0.02344,0.039 6.015625,10.4609 -11.308594,0 0,-8.5488 c 0.164651,0.024 0.328627,0.049 0.5,0.049 1.399388,0 2.593377,-0.8186 3.154297,-2 z"
       style="fill:#000000;fill-opacity:0.11764706;stroke:none"
       inkscape:connector-curvature="0" />
    <path
       inkscape:connector-curvature="0"
       style="fill:#000000;fill-opacity:0.23529412;stroke:none"
       d="m 9,1013.7622 0,15 0,15 16.033203,0 13.966797,0 0,-12.9277 0,-17.0723 -30,0 z m 3,3 24,0 0,8.877 -1.984375,-3.4356 -3.421875,5.9258 -0.681641,1.1816 -4.863281,8.4239 -3.99414,-6.9161 -1.5,-2.5976 -0.552735,-0.959 -3.347656,0 c -0.56092,-1.1814 -1.754909,-2 -3.154297,-2 -0.171373,0 -0.335349,0.025 -0.5,0.049 l 0,-8.5488 z m 22.025391,11.459 1.974609,3.4199 0,9.1211 -9.230469,0 7.25586,-12.541 z m -18.371094,2.041 1.615234,0 0.02344,0.039 6.015625,10.4609 -11.308594,0 0,-8.5488 c 0.164651,0.024 0.328627,0.049 0.5,0.049 1.399388,0 2.593377,-0.8186 3.154297,-2 z"
       id="path4122" />
    <path
       style="fill:url(#linearGradient4427);fill-opacity:1;stroke:none"
       d="M 9 9 L 9 24 L 9 39 L 25.033203 39 L 39 39 L 39 26.072266 L 39 9 L 9 9 z M 12 12 L 36 12 L 36 20.876953 L 34.015625 17.441406 L 30.59375 23.367188 L 29.912109 24.548828 L 25.048828 32.972656 L 21.054688 26.056641 L 19.554688 23.458984 L 19.001953 22.5 L 15.654297 22.5 C 15.093377 21.318575 13.899388 20.5 12.5 20.5 C 12.328627 20.5 12.164651 20.525258 12 20.548828 L 12 12 z M 34.025391 23.458984 L 36 26.878906 L 36 36 L 26.769531 36 L 34.025391 23.458984 z M 15.654297 25.5 L 17.269531 25.5 L 17.292969 25.539062 L 23.308594 36 L 12 36 L 12 27.451172 C 12.164651 27.474742 12.328627 27.5 12.5 27.5 C 13.899388 27.5 15.093377 26.681425 15.654297 25.5 z "
       transform="translate(0,1004.3622)"
       id="rect4223" />
    <path
       inkscape:connector-curvature="0"
       style="fill:#ffffff;fill-opacity:0.5372549;stroke:none"
       d="m 2.53124,1005.0185 c -0.91709,0 -1.67115,0.6395 -1.84375,1.5 0.33561,-0.2799 0.77451,-0.4375 1.25,-0.4375 l 44.125,0 c 0.47549,0 0.91439,0.1576 1.25,0.4375 -0.1726,-0.8605 -0.92666,-1.5 -1.84375,-1.5 l -42.9375,0 z"
       id="path7515-3-3" />
    <path
       style="fill:#e04cde;fill-opacity:0.3137255;stroke:none"
       d="M 12 11.199219 L 12 11.201172 L 12 12 L 36 12 L 36 11.199219 L 12 11.199219 z M 34.025391 22.658203 L 26.769531 35.199219 L 27.232422 35.199219 L 34.025391 23.458984 L 36 26.878906 L 36 26.078125 L 34.025391 22.658203 z M 15.654297 24.699219 C 15.093377 25.880619 13.899388 26.699219 12.5 26.699219 C 12.328627 26.699219 12.164651 26.674391 12 26.650391 L 12 27.451172 C 12.164651 27.474742 12.328627 27.5 12.5 27.5 C 13.899388 27.5 15.093377 26.681425 15.654297 25.5 L 17.269531 25.5 L 17.292969 25.539062 L 22.847656 35.199219 L 23.308594 35.199219 L 17.292969 24.738281 L 17.269531 24.699219 L 15.654297 24.699219 z M 9 38.199219 L 9 39 L 25.033203 39 L 39 39 L 39 38.199219 L 25.033203 38.199219 L 9 38.199219 z "
       transform="translate(0,1004.3622)"
       id="path4128" />
    <path
       style="fill:#ffffff;fill-opacity:0.23529412;stroke:none"
       d="M 9 9 L 9 9.4003906 L 39 9.4003906 L 39 9 L 9 9 z M 34.015625 17.441406 L 30.59375 23.367188 L 29.912109 24.548828 L 25.048828 32.972656 L 21.054688 26.056641 L 19.554688 23.458984 L 19.001953 22.5 L 15.654297 22.5 C 15.093377 21.318575 13.899388 20.5 12.5 20.5 C 12.328627 20.5 12.164651 20.525258 12 20.548828 L 12 20.949219 C 12.164651 20.925219 12.328627 20.900391 12.5 20.900391 C 13.899388 20.900391 15.093377 21.718991 15.654297 22.900391 L 19.001953 22.900391 L 19.554688 23.859375 L 21.054688 26.457031 L 25.048828 33.373047 L 29.912109 24.949219 L 30.59375 23.767578 L 34.015625 17.841797 L 36 21.277344 L 36 20.876953 L 34.015625 17.441406 z M 12 36 L 12 36.400391 L 23.308594 36.400391 L 23.078125 36 L 12 36 z M 27.001953 36 L 26.769531 36.400391 L 36 36.400391 L 36 36 L 27.001953 36 z "
       transform="translate(0,1004.3622)"
       id="path4134" />
    <path
       style="fill:url(#linearGradient4219);fill-opacity:1;stroke:none"
       d="m 34.00001,1038.3615 0,14.0007 14,-14 z"
       id="path4130"
       inkscape:connector-curvature="0" />
    <path
       inkscape:connector-curvature="0"
       style="fill:url(#linearGradient4439);fill-opacity:1;stroke:none"
       d="m 48.00001,1038.3622 -14,14 12.05469,0 c 1.07728,0 1.94531,-0.868 1.94531,-1.9453 l 0,-12.0547 z"
       id="path4303" />
    <path
       inkscape:connector-curvature="0"
       id="path4784"
       d="m 34.00001,1052.3622 0,-14.0007 -14,14 z"
       style="opacity:0.1;fill:url(#linearGradient4786);fill-opacity:1;stroke:none" />
    <path
       inkscape:connector-curvature="0"
       style="fill:#000000;fill-opacity:1;stroke:none"
       d="m -1e-5,1049.3622 0,1.0625 c 0,1.0773 0.86022,1.9375 1.9375,1.9375 l 44.125,0 c 1.07728,0 1.9375,-0.8602 1.9375,-1.9375 l 0,-1.0625 c 0,1.0773 -0.86022,1.9375 -1.9375,1.9375 l -44.125,0 c -1.07728,0 -1.9375,-0.8602 -1.9375,-1.9375 z"
       id="rect846-0-4" />
    <path
       inkscape:connector-curvature="0"
       style="fill:#000000;fill-opacity:0.39215686;stroke:none"
       d="m 1.93749,1004.3622 c -1.07728,0 -1.9375,0.8602 -1.9375,1.9375 l 0,43.0625 c 0,0.7934 0.48002,1.449 1.15625,1.75 -0.30934,-0.3333 -0.5,-0.7824 -0.5,-1.2812 l 0,-42.9375 c 0,-1.0482 0.8269,-1.875 1.875,-1.875 l 42.9375,0 c 1.0481,0 1.875,0.8268 1.875,1.875 l 0,42.9375 c 0,0.4988 -0.19066,0.9479 -0.5,1.2812 0.67623,-0.301 1.15625,-0.9566 1.15625,-1.75 l 0,-43.0625 c 0,-1.0773 -0.86022,-1.9375 -1.9375,-1.9375 l -44.125,0 z"
       id="rect4280-1-1" />
  </g>
</svg>
