<?xml version="1.0" encoding="UTF-8" standalone="no"?>
<!-- Created with Inkscape (http://www.inkscape.org/) -->

<svg
   xmlns:dc="http://purl.org/dc/elements/1.1/"
   xmlns:cc="http://creativecommons.org/ns#"
   xmlns:rdf="http://www.w3.org/1999/02/22-rdf-syntax-ns#"
   xmlns:svg="http://www.w3.org/2000/svg"
   xmlns="http://www.w3.org/2000/svg"
   xmlns:xlink="http://www.w3.org/1999/xlink"
   xmlns:sodipodi="http://sodipodi.sourceforge.net/DTD/sodipodi-0.dtd"
   xmlns:inkscape="http://www.inkscape.org/namespaces/inkscape"
   width="48"
   height="48"
   id="svg6389"
   version="1.1"
   inkscape:version="0.48+devel r12910"
   sodipodi:docname="application-vnd.openxmlformats-officedocument.presentationml.template.svg">
  <defs
     id="defs6391">
    <linearGradient
       id="linearGradient4270">
      <stop
         id="stop4272"
         offset="0"
         style="stop-color:#ffd4b9;stop-opacity:1" />
      <stop
         id="stop4274"
         offset="1"
         style="stop-color:#fff9f5;stop-opacity:1" />
    </linearGradient>
    <linearGradient
       id="linearGradient4264">
      <stop
         id="stop4266"
         offset="0"
         style="stop-color:#ff7e2d;stop-opacity:1" />
      <stop
         id="stop4268"
         offset="1"
         style="stop-color:#ffbb91;stop-opacity:1" />
    </linearGradient>
    <linearGradient
       id="linearGradient943-9">
      <stop
         style="stop-color:#ff6403;stop-opacity:1"
         offset="0"
         id="stop945-2" />
      <stop
         style="stop-color:#ff9553;stop-opacity:1"
         offset="1"
         id="stop947-5" />
    </linearGradient>
    <linearGradient
       id="linearGradient4788"
       inkscape:collect="always">
      <stop
         id="stop4790"
         offset="0"
         style="stop-color:#000000;stop-opacity:1" />
      <stop
         id="stop4792"
         offset="1"
         style="stop-color:#000000;stop-opacity:0" />
    </linearGradient>
    <linearGradient
       id="linearGradient4433-8"
       inkscape:collect="always">
      <stop
         id="stop4435-0"
         offset="0"
         style="stop-color:#2b3141;stop-opacity:1" />
      <stop
         id="stop4437-1"
         offset="1"
         style="stop-color:#394056;stop-opacity:1" />
    </linearGradient>
    <linearGradient
       inkscape:collect="always"
       xlink:href="#linearGradient943-9"
       id="linearGradient4117"
       gradientUnits="userSpaceOnUse"
       gradientTransform="translate(262.63966,700.03565)"
       x1="92.14286"
       y1="-1049.092"
       x2="92.14286"
       y2="-1001.0899" />
    <linearGradient
       gradientUnits="userSpaceOnUse"
       y2="33.999271"
       x2="42.956738"
       y1="48.000004"
       x1="42.956738"
       id="linearGradient4439-7"
       xlink:href="#linearGradient4433-8"
       inkscape:collect="always"
       gradientTransform="translate(327.5331,301.05236)" />
    <linearGradient
       gradientTransform="matrix(-1,0,0,-1,820.10454,1211.4138)"
       y2="862.36139"
       x2="472.50894"
       y1="871.36139"
       x1="458.57144"
       gradientUnits="userSpaceOnUse"
       id="linearGradient4786"
       xlink:href="#linearGradient4788"
       inkscape:collect="always" />
    <linearGradient
       gradientUnits="userSpaceOnUse"
       y2="862.36255"
       x2="458.57144"
       y1="869.36218"
       x1="465.57108"
       id="linearGradient4219-6"
       xlink:href="#linearGradient4264"
       inkscape:collect="always"
       gradientTransform="translate(-97.03834,-527.30983)" />
    <linearGradient
       inkscape:collect="always"
       xlink:href="#linearGradient4270"
       id="linearGradient4314"
       x1="23.838039"
       y1="38.999989"
       x2="23.838039"
       y2="8.9999876"
       gradientUnits="userSpaceOnUse" />
  </defs>
  <sodipodi:namedview
     id="base"
     pagecolor="#ffffff"
     bordercolor="#666666"
     borderopacity="1.0"
     inkscape:pageopacity="0.0"
     inkscape:pageshadow="2"
     inkscape:zoom="5.665625"
     inkscape:cx="24.121367"
     inkscape:cy="30.341523"
     inkscape:document-units="px"
     inkscape:current-layer="layer1"
     showgrid="false"
     fit-margin-top="0"
     fit-margin-left="0"
     fit-margin-right="0"
     fit-margin-bottom="0"
     inkscape:window-width="1366"
     inkscape:window-height="671"
     inkscape:window-x="0"
     inkscape:window-y="24"
     inkscape:window-maximized="1">
    <sodipodi:guide
       position="2.1572266e-05,1.2353516e-05"
       orientation="-48,0"
       id="guide4259" />
    <sodipodi:guide
       position="2.1572266e-05,48.000012"
       orientation="0,48"
       id="guide4261" />
    <sodipodi:guide
       position="48.000022,48.000012"
       orientation="48,0"
       id="guide4263" />
    <sodipodi:guide
       position="48.000022,1.2353516e-05"
       orientation="0,-48"
       id="guide4265" />
    <sodipodi:guide
       position="9.0000216,9.0000124"
       orientation="-30,0"
       id="guide4271" />
    <sodipodi:guide
       position="9.0000216,39.000012"
       orientation="0,30"
       id="guide4273" />
    <sodipodi:guide
       position="39.000022,39.000012"
       orientation="30,0"
       id="guide4275" />
    <sodipodi:guide
       position="39.000022,9.0000124"
       orientation="0,-30"
       id="guide4277" />
    <sodipodi:guide
       position="14.999991,33.000012"
       orientation="18,0"
       id="guide4296" />
    <sodipodi:guide
       position="14.999991,15.000012"
       orientation="0,18"
       id="guide4298" />
    <sodipodi:guide
       position="32.999991,15.000012"
       orientation="-18,0"
       id="guide4300" />
    <sodipodi:guide
       position="32.999991,33.000012"
       orientation="0,-18"
       id="guide4302" />
  </sodipodi:namedview>
  <metadata
     id="metadata6394">
    <rdf:RDF>
      <cc:Work
         rdf:about="">
        <dc:format>image/svg+xml</dc:format>
        <dc:type
           rdf:resource="http://purl.org/dc/dcmitype/StillImage" />
        <dc:title />
      </cc:Work>
    </rdf:RDF>
  </metadata>
  <g
     inkscape:label="Capa 1"
     inkscape:groupmode="layer"
     id="layer1"
     transform="translate(-327.53309,-301.05235)">
    <rect
       style="fill:url(#linearGradient4117);fill-opacity:1;stroke:none"
       id="rect2991-1-7-3"
       width="48"
       height="48"
       x="327.53311"
       y="-349.05234"
       ry="1.9445436"
       transform="scale(1,-1)" />
    <path
       id="path4322"
       d="m 336.53309,311.25235 0,30 30,0 0,-30 -30,0 z m 3,3 24,0 0,24 -24,0 0,-24 z m 12,3 c -4.986,0 -9,4.014 -9,9 0,4.986 4.014,9 9,9 4.986,0 9,-4.014 9,-9 l -9,0 0,-9 z"
       style="fill:#000000;fill-opacity:0.05882353;stroke:none"
       inkscape:connector-curvature="0" />
    <path
       inkscape:connector-curvature="0"
       style="fill:#000000;fill-opacity:0.11764706;stroke:none"
       d="m 336.53309,310.85235 0,30 30,0 0,-30 -30,0 z m 3,3 24,0 0,24 -24,0 0,-24 z m 12,3 c -4.986,0 -9,4.014 -9,9 0,4.986 4.014,9 9,9 4.986,0 9,-4.014 9,-9 l -9,0 0,-9 z"
       id="path4320" />
    <path
       id="path4316"
       d="m 336.53309,310.45235 0,30 30,0 0,-30 -30,0 z m 3,3 24,0 0,24 -24,0 0,-24 z m 12,3 c -4.986,0 -9,4.014 -9,9 0,4.986 4.014,9 9,9 4.986,0 9,-4.014 9,-9 l -9,0 0,-9 z"
       style="fill:#000000;fill-opacity:0.23529412;stroke:none"
       inkscape:connector-curvature="0" />
    <path
       style="fill:url(#linearGradient4314);fill-opacity:1;stroke:none"
       d="M 9 9 L 9 39 L 39 39 L 39 9 L 9 9 z M 12 12 L 36 12 L 36 36 L 12 36 L 12 12 z M 24 15 C 19.014 15 15 19.014 15 24 C 15 28.986 19.014 33 24 33 C 28.986 33 33 28.986 33 24 L 24 24 L 24 15 z "
       transform="translate(327.53309,301.05235)"
       id="rect4279" />
    <path
       inkscape:connector-curvature="0"
       style="fill:#ffffff;fill-opacity:0.5372549;stroke:none"
       d="m 330.06433,301.70866 c -0.91709,0 -1.67115,0.6395 -1.84375,1.5 0.33561,-0.2799 0.77451,-0.4375 1.25,-0.4375 l 44.125,0 c 0.47549,0 0.91439,0.1576 1.25,0.4375 -0.1726,-0.8605 -0.92666,-1.5 -1.84375,-1.5 l -42.9375,0 z"
       id="path7515-3" />
    <path
       style="fill:#ff6505;fill-opacity:0.3137255;stroke:none"
       d="M 12 11.199219 L 12 12 L 36 12 L 36 11.199219 L 12 11.199219 z M 15.019531 23.599609 C 15.013678 23.733448 15 23.864669 15 24 C 15 28.986 19.014 33 24 33 C 28.986 33 33 28.986 33 24 L 32.958984 24 C 32.556061 28.607816 28.715875 32.199219 24 32.199219 C 19.149046 32.199219 15.22891 28.397165 15.019531 23.599609 z M 9 38.199219 L 9 39 L 39 39 L 39 38.199219 L 9 38.199219 z "
       transform="translate(327.53309,301.05235)"
       id="path4324" />
    <path
       style="fill:#ffffff;fill-opacity:0.23529412;stroke:none"
       d="M 9 9 L 9 9.4003906 L 39 9.4003906 L 39 9 L 9 9 z M 24 15 C 19.014 15 15 19.014 15 24 C 15 24.067336 15.008309 24.132244 15.009766 24.199219 C 15.116972 19.307721 19.081852 15.400391 24 15.400391 L 24 15 z M 24 24 L 24 24.400391 L 32.980469 24.400391 C 32.986322 24.266552 33 24.135331 33 24 L 24 24 z M 12 36 L 12 36.400391 L 36 36.400391 L 36 36 L 12 36 z "
       transform="translate(327.53309,301.05235)"
       id="path4329" />
    <path
       style="fill:url(#linearGradient4219-6);fill-opacity:1;stroke:none"
       d="m 361.5331,335.05166 0,14.0007 14,-14 z"
       id="path4130-0"
       inkscape:connector-curvature="0" />
    <path
       inkscape:connector-curvature="0"
       style="fill:url(#linearGradient4439-7);fill-opacity:1;stroke:none"
       d="m 375.5331,335.05236 -14,14 12.05469,0 c 1.07728,0 1.94531,-0.868 1.94531,-1.9453 l 0,-12.0547 z"
       id="path4303-0" />
    <path
       inkscape:connector-curvature="0"
       id="path4784"
       d="m 361.5331,349.05236 0,-14.0007 -14,14 z"
       style="opacity:0.1;fill:url(#linearGradient4786);fill-opacity:1;stroke:none" />
    <path
       inkscape:connector-curvature="0"
       style="fill:#000000;fill-opacity:1;stroke:none"
       d="m 327.53308,346.05236 0,1.0625 c 0,1.0773 0.86022,1.9375 1.9375,1.9375 l 44.125,0 c 1.07728,0 1.9375,-0.8602 1.9375,-1.9375 l 0,-1.0625 c 0,1.0773 -0.86022,1.9375 -1.9375,1.9375 l -44.125,0 c -1.07728,0 -1.9375,-0.8602 -1.9375,-1.9375 z"
       id="rect846-0-6" />
    <path
       inkscape:connector-curvature="0"
       style="fill:#000000;fill-opacity:0.39215686;stroke:none"
       d="m 329.47058,301.05236 c -1.07728,0 -1.9375,0.8602 -1.9375,1.9375 l 0,43.0625 c 0,0.7934 0.48002,1.449 1.15625,1.75 -0.30934,-0.3333 -0.5,-0.7824 -0.5,-1.2812 l 0,-42.9375 c 0,-1.0482 0.8269,-1.875 1.875,-1.875 l 42.9375,0 c 1.0481,0 1.875,0.8268 1.875,1.875 l 0,42.9375 c 0,0.4988 -0.19066,0.9479 -0.5,1.2812 0.67623,-0.301 1.15625,-0.9566 1.15625,-1.75 l 0,-43.0625 c 0,-1.0773 -0.86022,-1.9375 -1.9375,-1.9375 l -44.125,0 z"
       id="rect4280-1" />
  </g>
</svg>
