<?xml version="1.0" encoding="UTF-8" standalone="no"?>
<!-- Created with Inkscape (http://www.inkscape.org/) -->

<svg
   xmlns:dc="http://purl.org/dc/elements/1.1/"
   xmlns:cc="http://creativecommons.org/ns#"
   xmlns:rdf="http://www.w3.org/1999/02/22-rdf-syntax-ns#"
   xmlns:svg="http://www.w3.org/2000/svg"
   xmlns="http://www.w3.org/2000/svg"
   xmlns:xlink="http://www.w3.org/1999/xlink"
   xmlns:sodipodi="http://sodipodi.sourceforge.net/DTD/sodipodi-0.dtd"
   xmlns:inkscape="http://www.inkscape.org/namespaces/inkscape"
   width="48"
   height="48"
   id="svg6391"
   version="1.1"
   inkscape:version="0.48+devel r12913"
   sodipodi:docname="gnome-mime-application-x-xoj.svg">
  <defs
     id="defs6393">
    <linearGradient
       inkscape:collect="always"
       id="linearGradient4788">
      <stop
         style="stop-color:#000000;stop-opacity:1"
         offset="0"
         id="stop4790" />
      <stop
         style="stop-color:#000000;stop-opacity:0"
         offset="1"
         id="stop4792" />
    </linearGradient>
    <linearGradient
       inkscape:collect="always"
       id="linearGradient4433">
      <stop
         style="stop-color:#2b3141;stop-opacity:1"
         offset="0"
         id="stop4435" />
      <stop
         style="stop-color:#394056;stop-opacity:1"
         offset="1"
         id="stop4437" />
    </linearGradient>
    <linearGradient
       y2="-1001.0899"
       x2="92.14286"
       y1="-1049.092"
       x1="92.14286"
       gradientTransform="translate(359.678,172.72582)"
       gradientUnits="userSpaceOnUse"
       id="linearGradient4117"
       xlink:href="#linearGradient4461"
       inkscape:collect="always" />
    <linearGradient
       inkscape:collect="always"
       xlink:href="#linearGradient4433"
       id="linearGradient4439"
       x1="42.956738"
       y1="48.000004"
       x2="42.956738"
       y2="33.999271"
       gradientUnits="userSpaceOnUse" />
    <linearGradient
       inkscape:collect="always"
       xlink:href="#linearGradient4788"
       id="linearGradient4786"
       gradientUnits="userSpaceOnUse"
       x1="458.57144"
       y1="871.36139"
       x2="472.50894"
       y2="862.36139"
       gradientTransform="matrix(-1,0,0,-1,917.14288,1738.7236)" />
    <linearGradient
       inkscape:collect="always"
       xlink:href="#linearGradient4503"
       id="linearGradient4219"
       x1="465.57108"
       y1="869.36218"
       x2="458.57144"
       y2="862.36255"
       gradientUnits="userSpaceOnUse" />
    <linearGradient
       inkscape:collect="always"
       xlink:href="#linearGradient4127"
       id="linearGradient4248"
       x1="449.65753"
       y1="867.36218"
       x2="449.65753"
       y2="837.35773"
       gradientUnits="userSpaceOnUse" />
    <linearGradient
       inkscape:collect="always"
       id="linearGradient4127">
      <stop
         style="stop-color:#dadcde;stop-opacity:1"
         offset="0"
         id="stop4129" />
      <stop
         style="stop-color:#fafafa;stop-opacity:1"
         offset="1"
         id="stop4131" />
    </linearGradient>
    <linearGradient
       id="linearGradient4503"
       inkscape:collect="always">
      <stop
         id="stop4505"
         offset="0"
         style="stop-color:#90959c;stop-opacity:1" />
      <stop
         id="stop4507"
         offset="1"
         style="stop-color:#c4c8cc;stop-opacity:1" />
    </linearGradient>
    <linearGradient
       inkscape:collect="always"
       id="linearGradient4461">
      <stop
         style="stop-color:#45484d;stop-opacity:1"
         offset="0"
         id="stop4463" />
      <stop
         style="stop-color:#5e656b;stop-opacity:1"
         offset="1"
         id="stop4465" />
    </linearGradient>
  </defs>
  <sodipodi:namedview
     id="base"
     pagecolor="#ffffff"
     bordercolor="#666666"
     borderopacity="1.0"
     inkscape:pageopacity="0.0"
     inkscape:pageshadow="2"
     inkscape:zoom="4.5852233"
     inkscape:cx="-10.91062"
     inkscape:cy="40.721987"
     inkscape:document-units="px"
     inkscape:current-layer="layer1"
     showgrid="false"
     fit-margin-top="0"
     fit-margin-left="0"
     fit-margin-right="0"
     fit-margin-bottom="0"
     inkscape:window-width="1366"
     inkscape:window-height="671"
     inkscape:window-x="0"
     inkscape:window-y="24"
     inkscape:window-maximized="1" />
  <metadata
     id="metadata6396">
    <rdf:RDF>
      <cc:Work
         rdf:about="">
        <dc:format>image/svg+xml</dc:format>
        <dc:type
           rdf:resource="http://purl.org/dc/dcmitype/StillImage" />
        <dc:title />
      </cc:Work>
    </rdf:RDF>
  </metadata>
  <g
     inkscape:label="Capa 1"
     inkscape:groupmode="layer"
     id="layer1"
     transform="translate(-481.71429,-531.2193)">
    <g
       transform="translate(154.1812,230.16695)"
       id="layer1-5"
       inkscape:label="Capa 1">
      <g
         inkscape:label="Capa 1"
         id="layer1-9"
         transform="translate(-97.038341,-527.30984)">
        <rect
           style="fill:url(#linearGradient4117);fill-opacity:1.0;stroke:none"
           id="rect2991-1-7-3-8"
           width="48"
           height="48"
           x="424.57144"
           y="-876.36218"
           ry="1.9445436"
           transform="scale(1,-1)" />
        <path
           sodipodi:nodetypes="cccccccccccccccccccccccc"
           inkscape:connector-curvature="0"
           id="path4262"
           d="m 455.53277,839.72278 c 1.5e-4,0 -1.13021,-1.1606 -1.74032,-1.1606 -0.61055,-10e-5 -1.74035,1.1606 -1.74035,1.1606 l -1.74034,1.7402 10.35913,10.359 1.74028,-1.7402 c 0,0 1.16015,-1.1306 1.16023,-1.7408 4e-5,-0.6106 -1.11875,-1.6985 -1.11875,-1.6985 z m -6.38122,2.9001 -14.41988,14.4196 3.7098,1.4699 1.46974,3.7104 3.70978,1.4692 1.46985,3.7103 14.3784,-14.3787 z m -15.58007,15.5802 0,10.3591 10.35909,0 -1.5297,-3.6497 -3.64987,-1.5298 -1.52967,-3.6497 z"
           style="fill:#000000;fill-opacity:0.05882353;fill-rule:nonzero;stroke:none;display:inline" />
        <path
           style="fill:#000000;fill-opacity:0.11764706;fill-rule:nonzero;stroke:none;display:inline"
           d="m 455.53277,839.32278 c 1.5e-4,0 -1.13021,-1.1606 -1.74032,-1.1606 -0.61055,-1e-4 -1.74035,1.1606 -1.74035,1.1606 l -1.74034,1.7402 10.35913,10.359 1.74028,-1.7402 c 0,0 1.16015,-1.1306 1.16023,-1.7408 4e-5,-0.6106 -1.11875,-1.6985 -1.11875,-1.6985 z m -6.38122,2.9001 -14.41988,14.4196 3.7098,1.4699 1.46974,3.7104 3.70978,1.4692 1.46985,3.7103 14.3784,-14.3787 z m -15.58007,15.5802 0,10.3591 10.35909,0 -1.5297,-3.6497 -3.64987,-1.5298 -1.52967,-3.6497 z"
           id="path4260"
           inkscape:connector-curvature="0"
           sodipodi:nodetypes="cccccccccccccccccccccccc" />
        <path
           style="fill:url(#linearGradient4219);fill-opacity:1.0;stroke:none"
           d="m 458.57144,862.36145 0,14.00073 14,-14 z"
           id="path4130"
           inkscape:connector-curvature="0" />
        <path
           inkscape:connector-curvature="0"
           style="fill:url(#linearGradient4439);fill-opacity:1;stroke:none"
           d="M 48,34 34,48 46.054688,48 C 47.131965,48 48,47.131965 48,46.054688 L 48,34 Z"
           transform="translate(424.57144,828.36218)"
           id="path4303" />
        <path
           inkscape:connector-curvature="0"
           id="path4784"
           d="m 458.57144,876.36218 0,-14.00073 -14,14 z"
           style="opacity:0.1;fill:url(#linearGradient4786);fill-opacity:1;stroke:none" />
        <path
           inkscape:connector-curvature="0"
           style="fill:#000000;fill-opacity:1;stroke:none"
           d="m 424.57142,873.3622 0,1.0625 c 0,1.0773 0.86022,1.9375 1.9375,1.9375 l 44.125,0 c 1.07728,0 1.9375,-0.8602 1.9375,-1.9375 l 0,-1.0625 c 0,1.0773 -0.86022,1.9375 -1.9375,1.9375 l -44.125,0 c -1.07728,0 -1.9375,-0.8602 -1.9375,-1.9375 z"
           id="rect846-0-4" />
        <path
           inkscape:connector-curvature="0"
           style="fill:#ffffff;fill-opacity:0.5372549;stroke:none"
           d="m 427.10267,829.0185 c -0.91709,0 -1.67115,0.6395 -1.84375,1.5 0.33561,-0.2799 0.77451,-0.4375 1.25,-0.4375 l 44.125,0 c 0.47549,0 0.91439,0.1576 1.25,0.4375 -0.1726,-0.8605 -0.92666,-1.5 -1.84375,-1.5 l -42.9375,0 z"
           id="path7515-3-2" />
        <path
           inkscape:connector-curvature="0"
           style="fill:#000000;fill-opacity:0.39215686;stroke:none"
           d="m 426.50892,828.3622 c -1.07728,0 -1.9375,0.8602 -1.9375,1.9375 l 0,43.0625 c 0,0.7934 0.48002,1.449 1.15625,1.75 -0.30934,-0.3333 -0.5,-0.7824 -0.5,-1.2812 l 0,-42.9375 c 0,-1.0482 0.8269,-1.875 1.875,-1.875 l 42.9375,0 c 1.0481,0 1.875,0.8268 1.875,1.875 l 0,42.9375 c 0,0.4988 -0.19066,0.9479 -0.5,1.2812 0.67623,-0.301 1.15625,-0.9566 1.15625,-1.75 l 0,-43.0625 c 0,-1.0773 -0.86022,-1.9375 -1.9375,-1.9375 l -44.125,0 z"
           id="rect4280-1-1" />
        <path
           sodipodi:nodetypes="cccccccccccccccccccccccc"
           inkscape:connector-curvature="0"
           id="path4256"
           d="m 455.53277,838.92278 c 1.5e-4,0 -1.13021,-1.1606 -1.74032,-1.1606 -0.61055,-10e-5 -1.74035,1.1606 -1.74035,1.1606 l -1.74034,1.7402 10.35913,10.359 1.74028,-1.7402 c 0,0 1.16015,-1.1306 1.16023,-1.7408 4e-5,-0.6106 -1.11875,-1.6985 -1.11875,-1.6985 z m -6.38122,2.9001 -14.41988,14.4196 3.7098,1.4699 1.46974,3.7104 3.70978,1.4692 1.46985,3.7103 14.3784,-14.3787 z m -15.58007,15.5802 0,10.3591 10.35909,0 -1.5297,-3.6497 -3.64987,-1.5298 -1.52967,-3.6497 z"
           style="fill:#000000;fill-opacity:0.23529412;fill-rule:nonzero;stroke:none;display:inline" />
        <path
           style="fill:url(#linearGradient4248);fill-opacity:1.0;fill-rule:nonzero;stroke:none;display:inline"
           d="m 455.53277,838.52278 c 1.5e-4,0 -1.13021,-1.1606 -1.74032,-1.1606 -0.61055,-10e-5 -1.74035,1.1606 -1.74035,1.1606 l -1.74034,1.7402 10.35913,10.359 1.74028,-1.7402 c 0,0 1.16015,-1.1306 1.16023,-1.7408 4e-5,-0.6106 -1.11875,-1.6985 -1.11875,-1.6985 z m -6.38122,2.9001 -14.41988,14.4196 3.7098,1.4699 1.46974,3.7104 3.70978,1.4692 1.46985,3.7103 14.3784,-14.3787 z m -15.58007,15.5802 0,10.3591 10.35909,0 -1.5297,-3.6497 -3.64987,-1.5298 -1.52967,-3.6497 z"
           id="path314"
           inkscape:connector-curvature="0"
           sodipodi:nodetypes="cccccccccccccccccccccccc" />
        <path
           inkscape:connector-curvature="0"
           style="fill:#4c5055;fill-opacity:0.3137255;fill-rule:nonzero;stroke:none;display:inline"
           d="m 26.140625,11.5 -0.400391,0.400391 10.359375,10.359375 1.740235,-1.740235 c 0,0 1.160076,-1.130034 1.160156,-1.740234 8e-6,-0.119208 -0.05246,-0.258398 -0.121094,-0.402344 -0.290545,0.605513 -1.039062,1.341797 -1.039062,1.341797 L 36.099609,21.458984 26.140625,11.5 Z M 34.5,23.060547 20.519531,37.041016 l -1.470703,-3.710938 -3.708984,-1.46875 -1.470703,-3.710937 -3.134766,-1.244141 -0.574219,0.574219 3.708985,1.470703 1.470703,3.708984 3.708984,1.46875 1.470703,3.710938 L 34.898438,23.460938 34.5,23.060547 Z M 9,38.199219 9,39 19.359375,39 19.023438,38.199219 9,38.199219 Z"
           transform="translate(424.57144,828.36218)"
           id="path4264" />
        <path
           inkscape:connector-curvature="0"
           style="fill:#ffffff;fill-opacity:0.23529412;fill-rule:nonzero;stroke:none;display:inline"
           d="m 29.220703,9 c -0.61055,-10e-5 -1.740234,1.160156 -1.740234,1.160156 l -1.740235,1.740235 0.201172,0.201171 1.539063,-1.541015 c 0,0 1.129684,-1.1602564 1.740234,-1.1601564 0.61011,0 1.740385,1.1601564 1.740235,1.1601564 l 6.919921,6.919922 c 0,0 0.895438,0.873062 1.080079,1.49414 0.01995,-0.06793 0.03905,-0.135759 0.03906,-0.195312 4e-5,-0.6106 -1.119141,-1.699219 -1.119141,-1.699219 L 30.960938,10.160156 C 30.961088,10.160156 29.830813,9 29.220703,9 Z m -4.640625,4.060547 -14.419922,14.419922 0.28711,0.113281 14.132812,-14.132812 10.119141,10.199218 0.199219,-0.199218 -10.31836,-10.400391 z M 9,28.640625 l 0,0.400391 3.650391,1.529296 1.529297,3.650391 3.65039,1.529297 1.361328,3.25 0.167969,0 -1.529297,-3.650391 -3.65039,-1.529297 -1.529297,-3.65039 L 9,28.640625 Z"
           transform="translate(424.57144,828.36218)"
           id="path4269" />
      </g>
    </g>
  </g>
</svg>
