<?xml version="1.0" encoding="UTF-8" standalone="no"?>
<svg
   xmlns:dc="http://purl.org/dc/elements/1.1/"
   xmlns:cc="http://creativecommons.org/ns#"
   xmlns:rdf="http://www.w3.org/1999/02/22-rdf-syntax-ns#"
   xmlns:svg="http://www.w3.org/2000/svg"
   xmlns="http://www.w3.org/2000/svg"
   xmlns:sodipodi="http://sodipodi.sourceforge.net/DTD/sodipodi-0.dtd"
   xmlns:inkscape="http://www.inkscape.org/namespaces/inkscape"
   width="22"
   viewBox="0 0 22 22"
   height="22"
   id="svg2"
   version="1.1"
   inkscape:version="0.91pre2 r"
   sodipodi:docname="audio-input-microphone-high-panel.svg">
  <metadata
     id="metadata32">
    <rdf:RDF>
      <cc:Work
         rdf:about="">
        <dc:format>image/svg+xml</dc:format>
        <dc:type
           rdf:resource="http://purl.org/dc/dcmitype/StillImage" />
        <dc:title></dc:title>
      </cc:Work>
    </rdf:RDF>
  </metadata>
  <defs
     id="defs30" />
  <sodipodi:namedview
     pagecolor="#ffffff"
     bordercolor="#666666"
     borderopacity="1"
     objecttolerance="10"
     gridtolerance="10"
     guidetolerance="10"
     inkscape:pageopacity="0"
     inkscape:pageshadow="2"
     inkscape:window-width="1366"
     inkscape:window-height="672"
     id="namedview28"
     showgrid="true"
     inkscape:showpageshadow="false"
     borderlayer="true"
     inkscape:zoom="16"
     inkscape:cx="12.896148"
     inkscape:cy="6.7478191"
     inkscape:window-x="-4"
     inkscape:window-y="25"
     inkscape:window-maximized="1"
     inkscape:current-layer="svg2">
    <inkscape:grid
       type="xygrid"
       id="grid4161" />
    <sodipodi:guide
       position="0,22"
       orientation="22,0"
       id="guide4183" />
    <sodipodi:guide
       position="0,0"
       orientation="0,22"
       id="guide4185" />
    <sodipodi:guide
       position="22,0"
       orientation="-22,0"
       id="guide4187" />
    <sodipodi:guide
       position="22,22"
       orientation="0,-22"
       id="guide4189" />
    <sodipodi:guide
       position="3,19"
       orientation="16,0"
       id="guide4191" />
    <sodipodi:guide
       position="3,3"
       orientation="0,16"
       id="guide4193" />
    <sodipodi:guide
       position="19,3"
       orientation="-16,0"
       id="guide4195" />
    <sodipodi:guide
       position="19,19"
       orientation="0,-16"
       id="guide4197" />
  </sodipodi:namedview>
  <path
     style="color:#000000;text-decoration:none;text-decoration-line:none;text-decoration-style:solid;text-decoration-color:#000000;clip-rule:nonzero;display:inline;overflow:visible;visibility:visible;opacity:1;isolation:auto;mix-blend-mode:normal;color-interpolation:sRGB;color-interpolation-filters:linearRGB;solid-color:#000000;solid-opacity:1;fill:#424854;fill-opacity:1;fill-rule:nonzero;stroke:none;stroke-width:1;stroke-linecap:butt;stroke-linejoin:miter;stroke-miterlimit:4;stroke-dasharray:none;stroke-dashoffset:0;stroke-opacity:1;color-rendering:auto;image-rendering:auto;shape-rendering:auto;text-rendering:auto;enable-background:accumulate"
     d="M 8 3 C 5.23 3 3 5.23 3 8 L 3 13 C 3 15.05682 4.2328358 16.810613 6 17.580078 L 6 19 L 6 20 L 7 20 L 7 22 L 9 22 L 9 20 L 10 20 L 10 19 L 10 17.580078 C 11.767164 16.810613 13 15.05682 13 13 L 13 8 C 13 5.23 10.77 3 8 3 z M 7.5 4.0488281 L 7.5 5 L 8.5 5 L 8.5 4.0488281 C 10.13996 4.2538468 11.458302 5.4319271 11.861328 7 L 9 7 L 9 8 L 12 8 L 12 9 L 9 9 L 9 10 L 12 10 L 12 11 L 9 11 L 9 12 L 12 12 L 12 13 L 9 13 L 9 14 L 11.861328 14 C 11.417636 15.726297 9.86855 17 8 17 C 6.13145 17 4.5823641 15.726297 4.1386719 14 L 7 14 L 7 13 L 4 13 L 4 12 L 7 12 L 7 11 L 4 11 L 4 10 L 7 10 L 7 9 L 4 9 L 4 8 L 7 8 L 7 7 L 4.1386719 7 C 4.5416975 5.4319271 5.8600405 4.2538468 7.5 4.0488281 z M 7 17.900391 C 7.3230841 17.965505 7.6571685 18 8 18 C 8.3428315 18 8.6769159 17.965505 9 17.900391 L 9 19 L 7 19 L 7 17.900391 z "
     id="rect4199" />
  <rect
     y="14.999998"
     x="17.9"
     height="0.99999994"
     width="1.0999999"
     id="rect4239"
     style="color:#000000;text-decoration:none;text-decoration-line:none;text-decoration-style:solid;text-decoration-color:#000000;clip-rule:nonzero;display:inline;overflow:visible;visibility:visible;opacity:1;isolation:auto;mix-blend-mode:normal;color-interpolation:sRGB;color-interpolation-filters:linearRGB;solid-color:#000000;solid-opacity:1;fill:#424854;fill-opacity:1;fill-rule:nonzero;stroke:none;stroke-width:1;stroke-linecap:butt;stroke-linejoin:miter;stroke-miterlimit:4;stroke-dasharray:none;stroke-dashoffset:0;stroke-opacity:1;color-rendering:auto;image-rendering:auto;shape-rendering:auto;text-rendering:auto;enable-background:accumulate" />
  <rect
     style="color:#000000;text-decoration:none;text-decoration-line:none;text-decoration-style:solid;text-decoration-color:#000000;clip-rule:nonzero;display:inline;overflow:visible;visibility:visible;opacity:1;isolation:auto;mix-blend-mode:normal;color-interpolation:sRGB;color-interpolation-filters:linearRGB;solid-color:#000000;solid-opacity:1;fill:#424854;fill-opacity:1;fill-rule:nonzero;stroke:none;stroke-width:1;stroke-linecap:butt;stroke-linejoin:miter;stroke-miterlimit:4;stroke-dasharray:none;stroke-dashoffset:0;stroke-opacity:1;color-rendering:auto;image-rendering:auto;shape-rendering:auto;text-rendering:auto;enable-background:accumulate"
     id="rect4289"
     width="2.0000014"
     height="0.99999994"
     x="16.999998"
     y="12.000003" />
  <rect
     y="8.9999847"
     x="15.999999"
     height="0.99999994"
     width="3.000001"
     id="rect4291"
     style="color:#000000;text-decoration:none;text-decoration-line:none;text-decoration-style:solid;text-decoration-color:#000000;clip-rule:nonzero;display:inline;overflow:visible;visibility:visible;opacity:1;isolation:auto;mix-blend-mode:normal;color-interpolation:sRGB;color-interpolation-filters:linearRGB;solid-color:#000000;solid-opacity:1;fill:#424854;fill-opacity:1;fill-rule:nonzero;stroke:none;stroke-width:1;stroke-linecap:butt;stroke-linejoin:miter;stroke-miterlimit:4;stroke-dasharray:none;stroke-dashoffset:0;stroke-opacity:1;color-rendering:auto;image-rendering:auto;shape-rendering:auto;text-rendering:auto;enable-background:accumulate" />
  <rect
     style="color:#000000;text-decoration:none;text-decoration-line:none;text-decoration-style:solid;text-decoration-color:#000000;clip-rule:nonzero;display:inline;overflow:visible;visibility:visible;opacity:1;isolation:auto;mix-blend-mode:normal;color-interpolation:sRGB;color-interpolation-filters:linearRGB;solid-color:#000000;solid-opacity:1;fill:#424854;fill-opacity:1;fill-rule:nonzero;stroke:none;stroke-width:1;stroke-linecap:butt;stroke-linejoin:miter;stroke-miterlimit:4;stroke-dasharray:none;stroke-dashoffset:0;stroke-opacity:1;color-rendering:auto;image-rendering:auto;shape-rendering:auto;text-rendering:auto;enable-background:accumulate"
     id="rect4293"
     width="4"
     height="0.99999994"
     x="15"
     y="5.9999928" />
</svg>
