<?xml version="1.0" encoding="UTF-8" standalone="no"?>
<svg
   xmlns:dc="http://purl.org/dc/elements/1.1/"
   xmlns:cc="http://creativecommons.org/ns#"
   xmlns:rdf="http://www.w3.org/1999/02/22-rdf-syntax-ns#"
   xmlns:svg="http://www.w3.org/2000/svg"
   xmlns="http://www.w3.org/2000/svg"
   xmlns:sodipodi="http://sodipodi.sourceforge.net/DTD/sodipodi-0.dtd"
   xmlns:inkscape="http://www.inkscape.org/namespaces/inkscape"
   width="22"
   viewBox="0 0 22 22"
   height="22"
   id="svg2"
   version="1.1"
   inkscape:version="0.91pre2 r"
   sodipodi:docname="bluetooth-paired.svg">
  <metadata
     id="metadata28">
    <rdf:RDF>
      <cc:Work
         rdf:about="">
        <dc:format>image/svg+xml</dc:format>
        <dc:type
           rdf:resource="http://purl.org/dc/dcmitype/StillImage" />
        <dc:title />
      </cc:Work>
    </rdf:RDF>
  </metadata>
  <defs
     id="defs26" />
  <sodipodi:namedview
     pagecolor="#ffffff"
     bordercolor="#666666"
     borderopacity="1"
     objecttolerance="10"
     gridtolerance="10"
     guidetolerance="10"
     inkscape:pageopacity="0"
     inkscape:pageshadow="2"
     inkscape:window-width="1366"
     inkscape:window-height="672"
     id="namedview24"
     showgrid="true"
     inkscape:showpageshadow="false"
     borderlayer="true"
     inkscape:zoom="21.454545"
     inkscape:cx="13.928384"
     inkscape:cy="8.010929"
     inkscape:window-x="-4"
     inkscape:window-y="25"
     inkscape:window-maximized="1"
     inkscape:current-layer="svg2">
    <inkscape:grid
       type="xygrid"
       id="grid4173" />
    <sodipodi:guide
       position="0,22"
       orientation="22,0"
       id="guide4180" />
    <sodipodi:guide
       position="0,0"
       orientation="0,22"
       id="guide4182" />
    <sodipodi:guide
       position="22,0"
       orientation="-22,0"
       id="guide4184" />
    <sodipodi:guide
       position="22,22"
       orientation="0,-22"
       id="guide4186" />
    <sodipodi:guide
       position="3,19"
       orientation="16,0"
       id="guide4188" />
    <sodipodi:guide
       position="3,3"
       orientation="0,16"
       id="guide4190" />
    <sodipodi:guide
       position="19,3"
       orientation="-16,0"
       id="guide4192" />
    <sodipodi:guide
       position="19,19"
       orientation="0,-16"
       id="guide4194" />
  </sodipodi:namedview>
  <path
     style="color:#000000;text-decoration:none;text-decoration-line:none;text-decoration-style:solid;text-decoration-color:#000000;clip-rule:nonzero;display:inline;overflow:visible;visibility:visible;opacity:1;isolation:auto;mix-blend-mode:normal;color-interpolation:sRGB;color-interpolation-filters:linearRGB;solid-color:#000000;solid-opacity:1;fill:#424854;fill-opacity:1;fill-rule:nonzero;stroke:none;stroke-width:1;stroke-linecap:butt;stroke-linejoin:miter;stroke-miterlimit:4;stroke-dasharray:none;stroke-dashoffset:0;stroke-opacity:1;color-rendering:auto;image-rendering:auto;shape-rendering:auto;text-rendering:auto;enable-background:accumulate"
     d="M 10 3 L 10 3.5351562 L 10 10.333984 L 5.7167969 7.4726562 L 5.1933594 8.34375 L 9.1933594 11 L 5.1933594 13.65625 L 5.7167969 14.527344 L 10 11.666016 L 10 19 L 11 19 L 11.001953 19 L 13 17.673828 L 13 16.472656 L 11 17.800781 L 11 12.199219 L 14 14.189453 L 14 13 L 14.017578 13 L 11.001953 11 L 17 7.0195312 L 17 7 L 17 6.9804688 L 11.001953 3 L 11 3 L 10 3 z M 11 4.1992188 L 15.220703 7 L 11 9.8007812 L 11 4.1992188 z M 15.220703 15 L 14 15.810547 L 14 16 L 15.523438 16 L 17 15.019531 L 17 15 L 15.220703 15 z "
     id="path4153" />
  <path
     style="color:#000000;text-decoration:none;text-decoration-line:none;text-decoration-style:solid;text-decoration-color:#000000;clip-rule:nonzero;display:inline;overflow:visible;visibility:visible;opacity:1;isolation:auto;mix-blend-mode:normal;color-interpolation:sRGB;color-interpolation-filters:linearRGB;solid-color:#000000;solid-opacity:1;fill:#f9832d;fill-opacity:1;fill-rule:nonzero;stroke:none;stroke-width:1;stroke-linecap:butt;stroke-linejoin:miter;stroke-miterlimit:4;stroke-dasharray:none;stroke-dashoffset:0;stroke-opacity:1;color-rendering:auto;image-rendering:auto;shape-rendering:auto;text-rendering:auto;enable-background:accumulate"
     d="m 16,11 c -1.108,0 -2,0.892 -2,2 l 0,2 -1,0 0,4 6,0 0,-4 -1,0 0,-2 c 0,-1.108 -0.892,-2 -2,-2 z m 0,1 c 0.554,0 1,0.446 1,1 l 0,2 -2,0 0,-2 c 0,-0.554 0.446,-1 1,-1 z m -2,4 4,0 0,2 -4,0 0,-2 z"
     id="path4149"
     inkscape:connector-curvature="0" />
</svg>
