<?xml version="1.0" encoding="UTF-8" standalone="no"?>
<svg
   xmlns:dc="http://purl.org/dc/elements/1.1/"
   xmlns:cc="http://creativecommons.org/ns#"
   xmlns:rdf="http://www.w3.org/1999/02/22-rdf-syntax-ns#"
   xmlns:svg="http://www.w3.org/2000/svg"
   xmlns="http://www.w3.org/2000/svg"
   xmlns:sodipodi="http://sodipodi.sourceforge.net/DTD/sodipodi-0.dtd"
   xmlns:inkscape="http://www.inkscape.org/namespaces/inkscape"
   viewBox="0 0 22 22"
   id="svg2"
   version="1.1"
   inkscape:version="0.91pre2 r"
   sodipodi:docname="krb-expiring-ticket.svg"
   width="22"
   height="22">
  <metadata
     id="metadata14">
    <rdf:RDF>
      <cc:Work
         rdf:about="">
        <dc:format>image/svg+xml</dc:format>
        <dc:type
           rdf:resource="http://purl.org/dc/dcmitype/StillImage" />
        <dc:title />
      </cc:Work>
    </rdf:RDF>
  </metadata>
  <defs
     id="defs12" />
  <sodipodi:namedview
     pagecolor="#ffffff"
     bordercolor="#666666"
     borderopacity="1"
     objecttolerance="10"
     gridtolerance="10"
     guidetolerance="10"
     inkscape:pageopacity="0"
     inkscape:pageshadow="2"
     inkscape:window-width="1366"
     inkscape:window-height="672"
     id="namedview10"
     showgrid="true"
     inkscape:showpageshadow="false"
     borderlayer="true"
     inkscape:zoom="21.454545"
     inkscape:cx="2.8585213"
     inkscape:cy="12.255826"
     inkscape:window-x="-4"
     inkscape:window-y="25"
     inkscape:window-maximized="1"
     inkscape:current-layer="svg2"
     showguides="true">
    <inkscape:grid
       type="xygrid"
       id="grid4143" />
    <sodipodi:guide
       position="0,22"
       orientation="22,0"
       id="guide4149" />
    <sodipodi:guide
       position="0,0"
       orientation="0,22"
       id="guide4151" />
    <sodipodi:guide
       position="22,0"
       orientation="-22,0"
       id="guide4153" />
    <sodipodi:guide
       position="22,22"
       orientation="0,-22"
       id="guide4155" />
    <sodipodi:guide
       position="3,19"
       orientation="16,0"
       id="guide4157" />
    <sodipodi:guide
       position="3,3"
       orientation="0,16"
       id="guide4159" />
    <sodipodi:guide
       position="19,3"
       orientation="-16,0"
       id="guide4161" />
    <sodipodi:guide
       position="19,19"
       orientation="0,-16"
       id="guide4163" />
  </sodipodi:namedview>
  <path
     style="color:#000000;text-decoration:none;text-decoration-line:none;text-decoration-style:solid;text-decoration-color:#000000;clip-rule:nonzero;display:inline;overflow:visible;visibility:visible;opacity:1;isolation:auto;mix-blend-mode:normal;color-interpolation:sRGB;color-interpolation-filters:linearRGB;solid-color:#000000;solid-opacity:1;fill:#f92d36;fill-opacity:1;fill-rule:nonzero;stroke:none;stroke-width:1;stroke-linecap:butt;stroke-linejoin:miter;stroke-miterlimit:4;stroke-dasharray:none;stroke-dashoffset:0;stroke-opacity:1;color-rendering:auto;image-rendering:auto;shape-rendering:auto;text-rendering:auto;enable-background:accumulate"
     d="M 11 3 C 6.568 3 3 6.568 3 11 C 3 15.432 6.568 19 11 19 C 15.432 19 19 15.432 19 11 C 19 6.568 15.432 3 11 3 z M 11 4 C 14.878 4 18 7.122 18 11 C 18 14.878 14.878 18 11 18 C 7.122 18 4 14.878 4 11 C 4 7.122 7.122 4 11 4 z M 11 6 C 10.446 6 10 6.446 10 7 L 10 8.25 L 11 9.6992188 L 10 11 L 10 15 C 10 15.554 10.446 16 11 16 C 11.554 16 12 15.554 12 15 L 12 13.699219 L 11 12.400391 L 12 10.949219 L 12 7 C 12 6.446 11.554 6 11 6 z "
     id="rect4180" />
</svg>
