<?xml version="1.0" encoding="UTF-8" standalone="no"?>
<svg
   xmlns:dc="http://purl.org/dc/elements/1.1/"
   xmlns:cc="http://creativecommons.org/ns#"
   xmlns:rdf="http://www.w3.org/1999/02/22-rdf-syntax-ns#"
   xmlns:svg="http://www.w3.org/2000/svg"
   xmlns="http://www.w3.org/2000/svg"
   xmlns:sodipodi="http://sodipodi.sourceforge.net/DTD/sodipodi-0.dtd"
   xmlns:inkscape="http://www.inkscape.org/namespaces/inkscape"
   width="22"
   viewBox="0 0 22 22"
   height="22"
   id="svg2"
   version="1.1"
   inkscape:version="0.91pre2 r"
   sodipodi:docname="polly-active.svg">
  <metadata
     id="metadata12">
    <rdf:RDF>
      <cc:Work
         rdf:about="">
        <dc:format>image/svg+xml</dc:format>
        <dc:type
           rdf:resource="http://purl.org/dc/dcmitype/StillImage" />
        <dc:title></dc:title>
      </cc:Work>
    </rdf:RDF>
  </metadata>
  <defs
     id="defs10" />
  <sodipodi:namedview
     pagecolor="#ffffff"
     bordercolor="#666666"
     borderopacity="1"
     objecttolerance="10"
     gridtolerance="10"
     guidetolerance="10"
     inkscape:pageopacity="0"
     inkscape:pageshadow="2"
     inkscape:window-width="1366"
     inkscape:window-height="672"
     id="namedview8"
     showgrid="true"
     borderlayer="true"
     inkscape:showpageshadow="false"
     inkscape:zoom="15.170655"
     inkscape:cx="0.98450091"
     inkscape:cy="18.377597"
     inkscape:window-x="-4"
     inkscape:window-y="25"
     inkscape:window-maximized="1"
     inkscape:current-layer="svg2">
    <inkscape:grid
       type="xygrid"
       id="grid4141" />
    <sodipodi:guide
       position="0,22"
       orientation="22,0"
       id="guide4147" />
    <sodipodi:guide
       position="0,0"
       orientation="0,22"
       id="guide4149" />
    <sodipodi:guide
       position="22,0"
       orientation="-22,0"
       id="guide4151" />
    <sodipodi:guide
       position="22,22"
       orientation="0,-22"
       id="guide4153" />
    <sodipodi:guide
       position="3,19"
       orientation="16,0"
       id="guide4155" />
    <sodipodi:guide
       position="3,3"
       orientation="0,16"
       id="guide4157" />
    <sodipodi:guide
       position="19,3"
       orientation="-16,0"
       id="guide4159" />
    <sodipodi:guide
       position="19,19"
       orientation="0,-16"
       id="guide4161" />
  </sodipodi:namedview>
  <path
     style="color:#000000;text-decoration:none;text-decoration-line:none;text-decoration-style:solid;text-decoration-color:#000000;clip-rule:nonzero;display:inline;overflow:visible;visibility:visible;opacity:1;isolation:auto;mix-blend-mode:normal;color-interpolation:sRGB;color-interpolation-filters:linearRGB;solid-color:#000000;solid-opacity:1;fill:#424854;fill-opacity:1;fill-rule:nonzero;stroke:none;stroke-width:1;stroke-linecap:butt;stroke-linejoin:miter;stroke-miterlimit:4;stroke-dasharray:none;stroke-dashoffset:0;stroke-opacity:1;color-rendering:auto;image-rendering:auto;shape-rendering:auto;text-rendering:auto;enable-background:accumulate"
     d="M 7 3 L 7 7 L 3 7 L 3 8 L 7 8 L 7 14 L 3 14 L 3 15 L 7 15 L 7 19 L 8 19 L 8 15 L 14 15 L 14 19 L 15 19 L 15 15 L 19 15 L 19 14 L 15 14 L 15 8 L 15 7 L 15 3 L 14 3 L 14 7 L 8 7 L 8 3 L 7 3 z M 17 7 L 17 8 L 19 8 L 19 7 L 17 7 z M 8 8 L 14 8 L 14 14 L 8 14 L 8 8 z "
     id="rect4165" />
  <path
     inkscape:connector-curvature="0"
     style="color:#000000;text-decoration:none;text-decoration-line:none;text-decoration-style:solid;text-decoration-color:#000000;clip-rule:nonzero;display:inline;overflow:visible;visibility:visible;opacity:1;isolation:auto;mix-blend-mode:normal;color-interpolation:sRGB;color-interpolation-filters:linearRGB;solid-color:#000000;solid-opacity:1;fill:#229df0;fill-opacity:1;fill-rule:nonzero;stroke:none;stroke-width:1;stroke-linecap:butt;stroke-linejoin:miter;stroke-miterlimit:4;stroke-dasharray:none;stroke-dashoffset:0;stroke-opacity:1;color-rendering:auto;image-rendering:auto;shape-rendering:auto;text-rendering:auto;enable-background:accumulate"
     d="m 13.5,3 0,1 0,3 0,1 1,0 3,0 1,0 0,-1 0,-3 0,-1 -1,0 -3,0 -1,0 z m 2,0.5292969 1,0 0,2.4042969 -1,0 0,-2.4042969 z M 16,6.5 c 0.277,0 0.5,0.223 0.5,0.5 0,0.277 -0.223,0.5 -0.5,0.5 -0.277,0 -0.5,-0.223 -0.5,-0.5 0,-0.277 0.223,-0.5 0.5,-0.5 z"
     id="rect4225" />
</svg>
