<?xml version="1.0" encoding="UTF-8" standalone="no"?>
<svg
   xmlns:dc="http://purl.org/dc/elements/1.1/"
   xmlns:cc="http://creativecommons.org/ns#"
   xmlns:rdf="http://www.w3.org/1999/02/22-rdf-syntax-ns#"
   xmlns:svg="http://www.w3.org/2000/svg"
   xmlns="http://www.w3.org/2000/svg"
   xmlns:sodipodi="http://sodipodi.sourceforge.net/DTD/sodipodi-0.dtd"
   xmlns:inkscape="http://www.inkscape.org/namespaces/inkscape"
   width="22"
   viewBox="0 0 22 22"
   height="22"
   id="svg2"
   version="1.1"
   inkscape:version="0.91pre2 r"
   sodipodi:docname="screencloud-idle.svg">
  <metadata
     id="metadata28">
    <rdf:RDF>
      <cc:Work
         rdf:about="">
        <dc:format>image/svg+xml</dc:format>
        <dc:type
           rdf:resource="http://purl.org/dc/dcmitype/StillImage" />
        <dc:title></dc:title>
      </cc:Work>
    </rdf:RDF>
  </metadata>
  <sodipodi:namedview
     pagecolor="#ffffff"
     bordercolor="#666666"
     borderopacity="1"
     objecttolerance="10"
     gridtolerance="10"
     guidetolerance="10"
     inkscape:pageopacity="0"
     inkscape:pageshadow="2"
     inkscape:window-width="1366"
     inkscape:window-height="672"
     id="namedview26"
     showgrid="true"
     inkscape:showpageshadow="false"
     borderlayer="true"
     inkscape:zoom="21.454545"
     inkscape:cx="7.7690505"
     inkscape:cy="14.473654"
     inkscape:window-x="-4"
     inkscape:window-y="25"
     inkscape:window-maximized="1"
     inkscape:current-layer="svg2">
    <inkscape:grid
       type="xygrid"
       id="grid4157" />
    <sodipodi:guide
       position="0,22"
       orientation="22,0"
       id="guide4163" />
    <sodipodi:guide
       position="0,0"
       orientation="0,22"
       id="guide4165" />
    <sodipodi:guide
       position="22,0"
       orientation="-22,0"
       id="guide4167" />
    <sodipodi:guide
       position="22,22"
       orientation="0,-22"
       id="guide4169" />
    <sodipodi:guide
       position="3,19"
       orientation="16,0"
       id="guide4171" />
    <sodipodi:guide
       position="3,3"
       orientation="0,16"
       id="guide4173" />
    <sodipodi:guide
       position="19,3"
       orientation="-16,0"
       id="guide4175" />
    <sodipodi:guide
       position="19,19"
       orientation="0,-16"
       id="guide4177" />
  </sodipodi:namedview>
  <defs
     id="defs4" />
  <path
     style="color:#000000;text-decoration:none;text-decoration-line:none;text-decoration-style:solid;text-decoration-color:#000000;clip-rule:nonzero;display:inline;overflow:visible;visibility:visible;opacity:1;isolation:auto;mix-blend-mode:normal;color-interpolation:sRGB;color-interpolation-filters:linearRGB;solid-color:#000000;solid-opacity:1;fill:#424854;fill-opacity:1;fill-rule:nonzero;stroke:none;stroke-width:1;stroke-linecap:butt;stroke-linejoin:miter;stroke-miterlimit:4;stroke-dasharray:none;stroke-dashoffset:0;stroke-opacity:1;color-rendering:auto;image-rendering:auto;shape-rendering:auto;text-rendering:auto;enable-background:accumulate"
     d="M 5 9 C 2.23 9 0 11.23 0 14 C 0 16.77 2.23 19 5 19 C 6.1229184 19 7.1456698 18.620358 7.9785156 18 L 5 18 C 2.784 18 1 16.216 1 14 C 1 13.723 1.0269687 13.452266 1.0800781 13.191406 C 1.4518438 11.365391 3.061 10 5 10 L 5.5527344 10 C 5.3742707 9.6921023 5.2322815 9.3614418 5.140625 9.0078125 C 5.093362 9.0065046 5.0475903 9 5 9 z "
     id="rect4181" />
  <rect
     style="color:#000000;text-decoration:none;text-decoration-line:none;text-decoration-style:solid;text-decoration-color:#000000;clip-rule:nonzero;display:inline;overflow:visible;visibility:visible;opacity:1;isolation:auto;mix-blend-mode:normal;color-interpolation:sRGB;color-interpolation-filters:linearRGB;solid-color:#000000;solid-opacity:1;fill:#424854;fill-opacity:1;fill-rule:nonzero;stroke:none;stroke-width:1;stroke-linecap:butt;stroke-linejoin:miter;stroke-miterlimit:4;stroke-dasharray:none;stroke-dashoffset:0;stroke-opacity:1;color-rendering:auto;image-rendering:auto;shape-rendering:auto;text-rendering:auto;enable-background:accumulate"
     id="rect4186"
     width="13"
     height="1"
     x="5"
     y="18"
     ry="0" />
  <path
     style="color:#000000;text-decoration:none;text-decoration-line:none;text-decoration-style:solid;text-decoration-color:#000000;clip-rule:nonzero;display:inline;overflow:visible;visibility:visible;opacity:1;isolation:auto;mix-blend-mode:normal;color-interpolation:sRGB;color-interpolation-filters:linearRGB;solid-color:#000000;solid-opacity:1;fill:#424854;fill-opacity:1;fill-rule:nonzero;stroke:none;stroke-width:1;stroke-linecap:butt;stroke-linejoin:miter;stroke-miterlimit:4;stroke-dasharray:none;stroke-dashoffset:0;stroke-opacity:1;color-rendering:auto;image-rendering:auto;shape-rendering:auto;text-rendering:auto;enable-background:accumulate"
     d="M 18.792969 11.078125 C 18.657377 11.430759 18.457322 11.748163 18.207031 12.021484 C 19.769671 12.129238 21 13.409064 21 15 C 21 16.662 19.662 18 18 18 L 15.375 18 C 16.07795 18.614983 16.988344 19 18 19 C 20.216 19 22 17.216 22 15 C 22 13.055634 20.626585 11.44405 18.792969 11.078125 z "
     id="rect4188" />
  <path
     style="color:#000000;text-decoration:none;text-decoration-line:none;text-decoration-style:solid;text-decoration-color:#000000;clip-rule:nonzero;display:inline;overflow:visible;visibility:visible;opacity:1;isolation:auto;mix-blend-mode:normal;color-interpolation:sRGB;color-interpolation-filters:linearRGB;solid-color:#000000;solid-opacity:1;fill:#424854;fill-opacity:1;fill-rule:nonzero;stroke:none;stroke-width:1;stroke-linecap:butt;stroke-linejoin:miter;stroke-miterlimit:4;stroke-dasharray:none;stroke-dashoffset:0;stroke-opacity:1;color-rendering:auto;image-rendering:auto;shape-rendering:auto;text-rendering:auto;enable-background:accumulate"
     d="M 9 3 C 6.23 3 4 5.23 4 8 C 4 8.7354254 4.1664678 9.4270155 4.4492188 10.054688 C 4.630806 10.029654 4.8113141 10 5 10 L 5.5507812 10 C 5.2086067 9.4108438 5 8.7330387 5 8 C 5 5.784 6.784 4 9 4 C 11.216 4 13 5.784 13 8 C 13 8.379008 12.943044 8.743074 12.841797 9.0878906 C 13.147117 8.547742 13.549298 8.0959153 13.986328 7.7558594 C 13.858475 5.1014505 11.687184 3 9 3 z "
     id="path4193" />
  <path
     style="color:#000000;text-decoration:none;text-decoration-line:none;text-decoration-style:solid;text-decoration-color:#000000;clip-rule:nonzero;display:inline;overflow:visible;visibility:visible;opacity:1;isolation:auto;mix-blend-mode:normal;color-interpolation:sRGB;color-interpolation-filters:linearRGB;solid-color:#000000;solid-opacity:1;fill:#424854;fill-opacity:1;fill-rule:nonzero;stroke:none;stroke-width:1;stroke-linecap:butt;stroke-linejoin:miter;stroke-miterlimit:4;stroke-dasharray:none;stroke-dashoffset:0;stroke-opacity:1;color-rendering:auto;image-rendering:auto;shape-rendering:auto;text-rendering:auto;enable-background:accumulate"
     d="M 16,6 C 14.764536,6 13.768565,6.5666633 13.035948,7.4414062 13.06168,7.625431 13,7.8086638 13,8 c 0,0.3794107 -0.05708,0.7428568 -0.158203,1.0878906 0.363737,-0.6434957 0.866993,-1.15399 1.396484,-1.5097656 0.07678,-0.05584 0.158144,-0.1038677 0.240235,-0.1523438 0.06985,-0.040506 0.137585,-0.078318 0.207031,-0.1132812 0.08071,-0.039421 0.161471,-0.077176 0.246094,-0.109375 C 15.33147,7.0376645 15.709103,6.9581061 16,7 c 1.662,0 3,1.338 3,3 0,0.783336 -0.304678,1.488264 -0.792969,2.021484 0.380404,0.02623 0.740683,0.115528 1.06836,0.269532 C 19.728947,11.642263 20,10.855063 20,10 20,7.784 18.216,6 16,6 Z m -3.544922,3.984375 c -0.0029,0.00501 -0.0049,0.01063 -0.0078,0.015625 l 0.002,0 c 0.0015,-0.0055 0.0043,-0.010138 0.0059,-0.015625 z"
     id="path4195"
     inkscape:connector-curvature="0"
     sodipodi:nodetypes="scsccccccsccsscccc" />
  <path
     style="color:#000000;text-decoration:none;text-decoration-line:none;text-decoration-style:solid;text-decoration-color:#000000;clip-rule:nonzero;display:inline;overflow:visible;visibility:visible;opacity:1;isolation:auto;mix-blend-mode:normal;color-interpolation:sRGB;color-interpolation-filters:linearRGB;solid-color:#000000;solid-opacity:1;fill:#424854;fill-opacity:1;fill-rule:nonzero;stroke:none;stroke-width:1;stroke-linecap:butt;stroke-linejoin:miter;stroke-miterlimit:4;stroke-dasharray:none;stroke-dashoffset:0;stroke-opacity:1;color-rendering:auto;image-rendering:auto;shape-rendering:auto;text-rendering:auto;enable-background:accumulate"
     d="M 11 9 C 8.784 9 7 10.784 7 13 C 7 15.216 8.784 17 11 17 C 13.216 17 15 15.216 15 13 C 15 10.784 13.216 9 11 9 z M 11 10 C 12.662 10 14 11.338 14 13 C 14 14.662 12.662 16 11 16 C 9.338 16 8 14.662 8 13 C 8 11.338 9.338 10 11 10 z "
     id="rect4245" />
  <rect
     style="color:#000000;text-decoration:none;text-decoration-line:none;text-decoration-style:solid;text-decoration-color:#000000;clip-rule:nonzero;display:inline;overflow:visible;visibility:visible;opacity:1;isolation:auto;mix-blend-mode:normal;color-interpolation:sRGB;color-interpolation-filters:linearRGB;solid-color:#000000;solid-opacity:1;fill:#424854;fill-opacity:1;fill-rule:nonzero;stroke:none;stroke-width:1;stroke-linecap:butt;stroke-linejoin:miter;stroke-miterlimit:4;stroke-dasharray:none;stroke-dashoffset:0;stroke-opacity:1;color-rendering:auto;image-rendering:auto;shape-rendering:auto;text-rendering:auto;enable-background:accumulate"
     id="rect4252"
     width="2"
     height="2"
     x="17"
     y="15"
     ry="1" />
</svg>
