<?xml version="1.0" encoding="UTF-8" standalone="no"?>
<svg
   xmlns:dc="http://purl.org/dc/elements/1.1/"
   xmlns:cc="http://creativecommons.org/ns#"
   xmlns:rdf="http://www.w3.org/1999/02/22-rdf-syntax-ns#"
   xmlns:svg="http://www.w3.org/2000/svg"
   xmlns="http://www.w3.org/2000/svg"
   xmlns:sodipodi="http://sodipodi.sourceforge.net/DTD/sodipodi-0.dtd"
   xmlns:inkscape="http://www.inkscape.org/namespaces/inkscape"
   width="22"
   viewBox="0 0 22 22"
   height="22"
   id="svg2"
   version="1.1"
   inkscape:version="0.91pre2 r"
   sodipodi:docname="simplescreenrecorder.svg">
  <metadata
     id="metadata28">
    <rdf:RDF>
      <cc:Work
         rdf:about="">
        <dc:format>image/svg+xml</dc:format>
        <dc:type
           rdf:resource="http://purl.org/dc/dcmitype/StillImage" />
        <dc:title />
      </cc:Work>
    </rdf:RDF>
  </metadata>
  <sodipodi:namedview
     pagecolor="#ffffff"
     bordercolor="#666666"
     borderopacity="1"
     objecttolerance="10"
     gridtolerance="10"
     guidetolerance="10"
     inkscape:pageopacity="0"
     inkscape:pageshadow="2"
     inkscape:window-width="1366"
     inkscape:window-height="672"
     id="namedview26"
     showgrid="true"
     inkscape:showpageshadow="false"
     borderlayer="true"
     inkscape:zoom="30.341309"
     inkscape:cx="13.278716"
     inkscape:cy="13.787553"
     inkscape:window-x="-4"
     inkscape:window-y="25"
     inkscape:window-maximized="1"
     inkscape:current-layer="svg2">
    <inkscape:grid
       type="xygrid"
       id="grid4157" />
    <sodipodi:guide
       position="0,22"
       orientation="22,0"
       id="guide4163" />
    <sodipodi:guide
       position="0,0"
       orientation="0,22"
       id="guide4165" />
    <sodipodi:guide
       position="22,0"
       orientation="-22,0"
       id="guide4167" />
    <sodipodi:guide
       position="22,22"
       orientation="0,-22"
       id="guide4169" />
    <sodipodi:guide
       position="3,19"
       orientation="16,0"
       id="guide4171" />
    <sodipodi:guide
       position="3,3"
       orientation="0,16"
       id="guide4173" />
    <sodipodi:guide
       position="19,3"
       orientation="-16,0"
       id="guide4175" />
    <sodipodi:guide
       position="19,19"
       orientation="0,-16"
       id="guide4177" />
  </sodipodi:namedview>
  <defs
     id="defs4" />
  <path
     style="color:#000000;text-decoration:none;text-decoration-line:none;text-decoration-style:solid;text-decoration-color:#000000;clip-rule:nonzero;display:inline;overflow:visible;visibility:visible;opacity:1;isolation:auto;mix-blend-mode:normal;color-interpolation:sRGB;color-interpolation-filters:linearRGB;solid-color:#000000;solid-opacity:1;fill:#424854;fill-opacity:1;fill-rule:nonzero;stroke:none;stroke-width:1;stroke-linecap:butt;stroke-linejoin:miter;stroke-miterlimit:4;stroke-dasharray:none;stroke-dashoffset:0;stroke-opacity:1;color-rendering:auto;image-rendering:auto;shape-rendering:auto;text-rendering:auto;enable-background:accumulate"
     d="M 9 3 L 9 4 L 9 6 L 8 6 L 8 7 L 5 7 L 5 6 L 3 6 L 3 7 L 1 7 L 1 19 L 21 19 L 21 7 L 19 7 L 19 6 L 19 4 L 19 3 L 10 3 L 9 3 z M 10 4 L 18 4 L 18 6 L 10 6 L 10 4 z M 2 8 L 11 8 L 20 8 L 20 9 L 13.978516 9 C 13.14567 8.3796424 12.122918 8 11 8 C 9.8770816 8 8.8543302 8.3796424 8.0214844 9 L 2 9 L 2 8 z M 11 9 C 11.258251 9 11.50953 9.0279003 11.753906 9.0742188 C 11.95376 9.1133727 12.144452 9.1740819 12.332031 9.2421875 C 12.366662 9.2544052 12.40332 9.2622568 12.4375 9.2753906 C 12.654061 9.3609546 12.864191 9.4637614 13.060547 9.5839844 C 13.259777 9.7060843 13.447893 9.8450114 13.623047 9.9980469 C 13.623047 9.9980469 13.625 10 13.625 10 C 14.461839 10.732117 15 11.795656 15 13 C 15 14.204344 14.459885 15.269836 13.623047 16.001953 C 13.447893 16.154989 13.259777 16.293916 13.060547 16.416016 C 13.060547 16.416016 13.058594 16.416016 13.058594 16.416016 C 12.862238 16.536239 12.654061 16.639045 12.4375 16.724609 C 12.40332 16.737743 12.366662 16.745595 12.332031 16.757812 C 12.144452 16.825918 11.95376 16.886627 11.753906 16.925781 C 11.50953 16.9721 11.258251 17 11 17 C 10.741749 17 10.49047 16.9721 10.246094 16.925781 C 10.04624 16.886627 9.855548 16.825918 9.6679688 16.757812 C 9.6333384 16.745595 9.5966798 16.737743 9.5625 16.724609 C 9.3459394 16.639045 9.1377616 16.536239 8.9414062 16.416016 C 8.9414062 16.416016 8.9394531 16.416016 8.9394531 16.416016 C 8.7402232 16.293916 8.5501535 16.153035 8.375 16 C 7.5381614 15.267883 7 14.204344 7 13 C 7 11.795656 7.5401145 10.730164 8.3769531 9.9980469 C 8.5521066 9.8450114 8.7402232 9.7060843 8.9394531 9.5839844 C 8.9394531 9.5839844 8.9414062 9.5839844 8.9414062 9.5839844 C 9.1377616 9.4637614 9.3459394 9.3609546 9.5625 9.2753906 C 9.5966798 9.2622568 9.6333384 9.2544052 9.6679688 9.2421875 C 9.855548 9.1740819 10.04624 9.1133727 10.246094 9.0742188 C 10.49047 9.0279003 10.741749 9 11 9 z M 2 10 L 7.0175781 10 C 6.387118 10.836645 6 11.867057 6 13 C 6 14.132943 6.387118 15.163355 7.0175781 16 L 2 16 L 2 10 z M 11 10 C 9.338 10 8 11.338 8 13 C 8 14.662 9.338 16 11 16 C 12.662 16 14 14.662 14 13 C 14 11.338 12.662 10 11 10 z M 14.982422 10 L 20 10 L 20 16 L 14.982422 16 C 15.612882 15.163355 16 14.132943 16 13 C 16 11.867057 15.612882 10.836645 14.982422 10 z M 11 11 C 12.108 11 13 11.892 13 13 C 13 14.108 12.108 15 11 15 C 9.892 15 9 14.108 9 13 C 9 11.892 9.892 11 11 11 z M 2 17 L 8.0214844 17 C 8.8543302 17.620358 9.8770816 18 11 18 C 12.122918 18 13.14567 17.620358 13.978516 17 L 20 17 L 20 18 L 11 18 L 2 18 L 2 17 z "
     id="rect4179" />
</svg>
